<?xml version="1.0" encoding="UTF-8"?>
<svg xmlns="http://www.w3.org/2000/svg" xmlns:xlink="http://www.w3.org/1999/xlink"
     width="10000" height="10000" viewBox="0 0 10000 10000">
<defs>
</defs>
<path d="M4322,5817 L1994,3690" stroke="blue" stroke-width="2" />
<path d="M1741,4734 L2266,5675" stroke="blue" stroke-width="2" />
<path d="M3774,2372 L3705,833" stroke="blue" stroke-width="2" />
<path d="M3627,1712 L2329,427" stroke="blue" stroke-width="2" />
<path d="M519,3808 L976,6098" stroke="blue" stroke-width="2" />
<path d="M3488,3486 L4068,6407" stroke="blue" stroke-width="2" />
<path d="M4137,3728 L2161,1734" stroke="blue" stroke-width="2" />
<path d="M3447,3945 L1168,5940" stroke="blue" stroke-width="2" />
<path d="M1067,4397 L1595,5135" stroke="blue" stroke-width="2" />
<path d="M4178,2039 L630,3501" stroke="blue" stroke-width="2" />
<path d="M1160,6559 L3641,65" stroke="blue" stroke-width="2" />
<path d="M3184,2571 L3769,1001" stroke="blue" stroke-width="2" />
<path d="M4102,5669 L551,5761" stroke="blue" stroke-width="2" />
<path d="M3901,2277 L2630,1033" stroke="blue" stroke-width="2" />
<path d="M2858,1568 L4242,467" stroke="blue" stroke-width="2" />
<path d="M2338,3152 L4028,5239" stroke="blue" stroke-width="2" />
<path d="M721,4862 L3694,1295" stroke="blue" stroke-width="2" />
<path d="M1810,1560 L2576,3457" stroke="blue" stroke-width="2" />
<path d="M3888,4647 L1469,2759" stroke="blue" stroke-width="2" />
<path d="M1936,668 L3175,1204" stroke="blue" stroke-width="2" />
<path d="M2746,2357 L3937,2277" stroke="blue" stroke-width="2" />
<path d="M2119,3014 L3036,900" stroke="blue" stroke-width="2" />
<path d="M3300,6101 L2725,562" stroke="blue" stroke-width="2" />
<path d="M2118,4444 L3620,4765" stroke="blue" stroke-width="2" />
<path d="M4059,4295 L929,779" stroke="blue" stroke-width="2" />
<path d="M3418,2687 L2187,6486" stroke="blue" stroke-width="2" />
<path d="M640,5534 L363,2285" stroke="blue" stroke-width="2" />
<path d="M1030,3404 L235,4093" stroke="blue" stroke-width="2" />
<path d="M2327,5683 L4100,6003" stroke="blue" stroke-width="2" />
<path d="M10,5254 L2104,630" stroke="blue" stroke-width="2" />
<path d="M3152,777 L2469,2521" stroke="blue" stroke-width="2" />
<path d="M850,2340 L1307,4991" stroke="blue" stroke-width="2" />
<path d="M942,6206 L2072,3174" stroke="blue" stroke-width="2" />
<path d="M2451,2671 L2368,1110" stroke="blue" stroke-width="2" />
<path d="M1816,3609 L3580,5644" stroke="blue" stroke-width="2" />
<path d="M2057,3922 L350,2785" stroke="blue" stroke-width="2" />
<path d="M2188,1063 L1925,3387" stroke="blue" stroke-width="2" />
<path d="M3580,3833 L1835,5430" stroke="blue" stroke-width="2" />
<path d="M3731,6026 L3269,4670" stroke="blue" stroke-width="2" />
<path d="M2706,1476 L2643,6190" stroke="blue" stroke-width="2" />
<path d="M1564,2599 L4293,1478" stroke="blue" stroke-width="2" />
<path d="M2203,2115 L376,3475" stroke="blue" stroke-width="2" />
<path d="M3289,5199 L4142,4794" stroke="blue" stroke-width="2" />
<path d="M1269,4638 L3321,2415" stroke="blue" stroke-width="2" />
<path d="M2304,5970 L292,2347" stroke="blue" stroke-width="2" />
<path d="M2318,2060 L2099,3269" stroke="blue" stroke-width="2" />
<path d="M3340,4766 L1815,537" stroke="blue" stroke-width="2" />
<path d="M1120,689 L4044,238" stroke="blue" stroke-width="2" />
<path d="M2969,3580 L3198,4354" stroke="blue" stroke-width="2" />
<path d="M2525,268 L2874,2597" stroke="blue" stroke-width="2" />
<path d="M2049,1192 L2314,2618" stroke="blue" stroke-width="2" />
<path d="M1808,6643 L2033,6399" stroke="blue" stroke-width="2" />
<path d="M285,4828 L2374,4490" stroke="blue" stroke-width="2" />
<path d="M1478,2617 L988,6358" stroke="blue" stroke-width="2" />
<path d="M2224,4798 L4326,1077" stroke="blue" stroke-width="2" />
<path d="M3646,3042 L3303,6443" stroke="blue" stroke-width="2" />
<path d="M2680,5869 L757,5370" stroke="blue" stroke-width="2" />
<path d="M140,6287 L4102,1970" stroke="blue" stroke-width="2" />
<path d="M1275,2965 L3125,2465" stroke="blue" stroke-width="2" />
<path d="M2237,5065 L162,481" stroke="blue" stroke-width="2" />
<path d="M21,5928 L1800,3147" stroke="blue" stroke-width="2" />
<path d="M3978,1732 L3661,3846" stroke="blue" stroke-width="2" />
<path d="M2626,4716 L3667,4326" stroke="blue" stroke-width="2" />
<path d="M2469,4040 L1115,627" stroke="blue" stroke-width="2" />
<path d="M1808,4802 L3028,6183" stroke="blue" stroke-width="2" />
<path d="M3606,3027 L2599,2368" stroke="blue" stroke-width="2" />
<path d="M4022,1052 L1084,3801" stroke="blue" stroke-width="2" />
<path d="M1976,5332 L456,5331" stroke="blue" stroke-width="2" />
<path d="M1223,1689 L3125,5405" stroke="blue" stroke-width="2" />
<path d="M1632,3710 L1272,3397" stroke="blue" stroke-width="2" />
<path d="M1233,5477 L2563,5403" stroke="blue" stroke-width="2" />
<path d="M3239,2715 L912,2019" stroke="blue" stroke-width="2" />
<path d="M2073,1 L4003,1873" stroke="blue" stroke-width="2" />
<path d="M1117,6003 L3155,4559" stroke="blue" stroke-width="2" />
<path d="M2619,2654 L1036,6483" stroke="blue" stroke-width="2" />
<path d="M2737,1808 L2319,5801" stroke="blue" stroke-width="2" />
<path d="M1615,4796 L595,4676" stroke="blue" stroke-width="2" />
<path d="M2838,432 L1395,2346" stroke="blue" stroke-width="2" />
<path d="M3512,659 L2547,3546" stroke="blue" stroke-width="2" />
<path d="M3242,5553 L3315,3275" stroke="blue" stroke-width="2" />
<path d="M2934,198 L3793,180" stroke="blue" stroke-width="2" />
<path d="M839,2544 L4156,1092" stroke="blue" stroke-width="2" />
<path d="M3055,3996 L3814,3680" stroke="blue" stroke-width="2" />
<path d="M1058,3517 L1464,4902" stroke="blue" stroke-width="2" />
<path d="M2987,5815 L2792,3100" stroke="blue" stroke-width="2" />
<path d="M3734,6380 L1125,5641" stroke="blue" stroke-width="2" />
<path d="M3934,1452 L2017,3351" stroke="blue" stroke-width="2" />
<path d="M674,6601 L685,2698" stroke="blue" stroke-width="2" />
<path d="M839,1489 L4304,5926" stroke="blue" stroke-width="2" />
<path d="M2105,640 L2269,2130" stroke="blue" stroke-width="2" />
<path d="M1675,3706 L1878,3462" stroke="blue" stroke-width="2" />
<path d="M1804,332 L1935,638" stroke="blue" stroke-width="2" />
<path d="M1174,559 L1624,470" stroke="blue" stroke-width="2" />
<path d="M2372,4489 L3551,1541" stroke="blue" stroke-width="2" />
<path d="M1370,5533 L2113,5561" stroke="blue" stroke-width="2" />
<path d="M3918,6595 L207,3389" stroke="blue" stroke-width="2" />
<path d="M3213,1858 L2502,5436" stroke="blue" stroke-width="2" />
<path d="M4223,5987 L3616,3438" stroke="blue" stroke-width="2" />
<path d="M1758,317 L500,3063" stroke="blue" stroke-width="2" />
<path d="M4000,6222 L4100,2489" stroke="blue" stroke-width="2" />
<path d="M69,6225 L3372,2439" stroke="blue" stroke-width="2" />
<path d="M2405,1513 L1319,6487" stroke="blue" stroke-width="2" />
<path d="M1369,300 L2415,6211" stroke="blue" stroke-width="2" />
<path d="M285,1594 L859,6527" stroke="blue" stroke-width="2" />
<path d="M574,0 L4222,3932" stroke="blue" stroke-width="2" />
<path d="M3384,6317 L4223,4934" stroke="blue" stroke-width="2" />
<path d="M578,4028 L3479,5290" stroke="blue" stroke-width="2" />
<path d="M1596,6311 L1307,1981" stroke="blue" stroke-width="2" />
<path d="M2883,2854 L2441,2426" stroke="blue" stroke-width="2" />
<path d="M4239,6559 L2184,5181" stroke="blue" stroke-width="2" />
<path d="M2440,2052 L4071,706" stroke="blue" stroke-width="2" />
<path d="M1939,2062 L4045,6100" stroke="blue" stroke-width="2" />
<path d="M1693,1595 L1714,2752" stroke="blue" stroke-width="2" />
<path d="M845,4326 L1012,5010" stroke="blue" stroke-width="2" />
<path d="M3230,4683 L944,6550" stroke="blue" stroke-width="2" />
<path d="M3177,5850 L3030,2672" stroke="blue" stroke-width="2" />
<path d="M3535,196 L208,677" stroke="blue" stroke-width="2" />
<path d="M3700,183 L4139,4702" stroke="blue" stroke-width="2" />
<path d="M2166,1877 L324,5100" stroke="blue" stroke-width="2" />
<path d="M1929,4526 L165,737" stroke="blue" stroke-width="2" />
<path d="M2967,4903 L4171,1047" stroke="blue" stroke-width="2" />
<path d="M3948,3116 L4249,2795" stroke="blue" stroke-width="2" />
<path d="M345,1503 L3062,2918" stroke="blue" stroke-width="2" />
<path d="M349,1065 L918,2774" stroke="blue" stroke-width="2" />
<path d="M4260,5131 L619,3114" stroke="blue" stroke-width="2" />
<path d="M3284,1849 L3014,4011" stroke="blue" stroke-width="2" />
<path d="M1235,4109 L446,2885" stroke="blue" stroke-width="2" />
<path d="M2731,844 L126,3872" stroke="blue" stroke-width="2" />
<path d="M3819,3761 L900,1470" stroke="blue" stroke-width="2" />
<path d="M1011,1672 L1270,1852" stroke="blue" stroke-width="2" />
<path d="M2925,3316 L225,1135" stroke="blue" stroke-width="2" />
<path d="M782,4829 L2677,1500" stroke="blue" stroke-width="2" />
<path d="M250,2447 L2170,1735" stroke="blue" stroke-width="2" />
<path d="M1347,6369 L1305,1163" stroke="blue" stroke-width="2" />
<path d="M3115,2730 L526,4305" stroke="blue" stroke-width="2" />
<path d="M3515,1468 L3993,2694" stroke="blue" stroke-width="2" />
<path d="M1861,3583 L3360,5510" stroke="blue" stroke-width="2" />
<path d="M4163,4590 L3613,243" stroke="blue" stroke-width="2" />
<path d="M40,4899 L1944,4000" stroke="blue" stroke-width="2" />
<path d="M1593,1067 L2888,6043" stroke="blue" stroke-width="2" />
<path d="M3573,3931 L2634,3863" stroke="blue" stroke-width="2" />
<path d="M4020,2780 L4315,824" stroke="blue" stroke-width="2" />
<path d="M236,3637 L3477,478" stroke="blue" stroke-width="2" />
<path d="M437,371 L2845,5071" stroke="blue" stroke-width="2" />
<path d="M4214,1708 L173,5364" stroke="blue" stroke-width="2" />
<path d="M3586,741 L1013,6484" stroke="blue" stroke-width="2" />
<path d="M2839,5697 L1753,2709" stroke="blue" stroke-width="2" />
<path d="M1917,2071 L2164,3377" stroke="blue" stroke-width="2" />
<path d="M3436,3587 L926,6096" stroke="blue" stroke-width="2" />
<path d="M967,5270 L1044,30" stroke="blue" stroke-width="2" />
<path d="M4153,2537 L2415,3271" stroke="blue" stroke-width="2" />
<path d="M2105,520 L3669,2180" stroke="blue" stroke-width="2" />
<path d="M3859,2938 L3434,602" stroke="blue" stroke-width="2" />
<path d="M3601,2286 L2320,3427" stroke="blue" stroke-width="2" />
<path d="M4174,4335 L2591,1279" stroke="blue" stroke-width="2" />
<path d="M97,5085 L1730,6336" stroke="blue" stroke-width="2" />
<path d="M3273,4298 L84,507" stroke="blue" stroke-width="2" />
<path d="M542,4888 L2831,6274" stroke="blue" stroke-width="2" />
<path d="M2238,2951 L1195,2836" stroke="blue" stroke-width="2" />
<path d="M4214,5627 L1301,3678" stroke="blue" stroke-width="2" />
<path d="M2755,3572 L3457,6477" stroke="blue" stroke-width="2" />
<path d="M2478,4366 L776,6465" stroke="blue" stroke-width="2" />
<path d="M3454,1903 L3903,5202" stroke="blue" stroke-width="2" />
<path d="M2372,2354 L180,1183" stroke="blue" stroke-width="2" />
<path d="M2087,5456 L3087,3230" stroke="blue" stroke-width="2" />
<path d="M1858,4818 L3120,1213" stroke="blue" stroke-width="2" />
<path d="M2445,1412 L3573,2976" stroke="blue" stroke-width="2" />
<path d="M2225,5900 L675,3432" stroke="blue" stroke-width="2" />
<path d="M3345,3548 L2693,3680" stroke="blue" stroke-width="2" />
<path d="M605,5685 L534,597" stroke="blue" stroke-width="2" />
<path d="M1538,5986 L1480,3989" stroke="blue" stroke-width="2" />
<path d="M69,3844 L1497,541" stroke="blue" stroke-width="2" />
<path d="M1234,5355 L4246,4520" stroke="blue" stroke-width="2" />
<path d="M2529,3861 L3972,2812" stroke="blue" stroke-width="2" />
<path d="M2213,1963 L3173,4758" stroke="blue" stroke-width="2" />
<path d="M2352,6689 L94,2810" stroke="blue" stroke-width="2" />
<path d="M3875,2918 L3493,2625" stroke="blue" stroke-width="2" />
<path d="M3603,3089 L3543,5852" stroke="blue" stroke-width="2" />
<path d="M2112,5357 L1986,816" stroke="blue" stroke-width="2" />
<path d="M481,6241 L2366,6278" stroke="blue" stroke-width="2" />
<path d="M3457,2894 L3608,491" stroke="blue" stroke-width="2" />
<path d="M1561,4231 L2126,6043" stroke="blue" stroke-width="2" />
<path d="M3591,4274 L1343,128" stroke="blue" stroke-width="2" />
<path d="M3332,1131 L3216,6021" stroke="blue" stroke-width="2" />
<path d="M621,6664 L343,3901" stroke="blue" stroke-width="2" />
<path d="M3364,1111 L4064,5662" stroke="blue" stroke-width="2" />
<path d="M2929,5059 L414,3832" stroke="blue" stroke-width="2" />
<path d="M1305,1846 L2750,2176" stroke="blue" stroke-width="2" />
<path d="M1404,6226 L2830,3339" stroke="blue" stroke-width="2" />
<path d="M3516,3872 L1039,3267" stroke="blue" stroke-width="2" />
<path d="M1373,1492 L4253,208" stroke="blue" stroke-width="2" />
<path d="M2609,3417 L1290,5946" stroke="blue" stroke-width="2" />
<path d="M3747,5656 L120,2846" stroke="blue" stroke-width="2" />
<path d="M929,973 L3581,5494" stroke="blue" stroke-width="2" />
<path d="M1506,4794 L755,1510" stroke="blue" stroke-width="2" />
<path d="M2251,5629 L1115,4028" stroke="blue" stroke-width="2" />
<path d="M235,4613 L1254,5402" stroke="blue" stroke-width="2" />
<path d="M3990,3170 L2496,2823" stroke="blue" stroke-width="2" />
<path d="M2208,4659 L1331,1848" stroke="blue" stroke-width="2" />
<path d="M3310,2537 L4259,5436" stroke="blue" stroke-width="2" />
<path d="M1641,6417 L204,5388" stroke="blue" stroke-width="2" />
<path d="M1926,4393 L1435,6369" stroke="blue" stroke-width="2" />
<path d="M1686,856 L380,5023" stroke="blue" stroke-width="2" />
<path d="M459,6453 L2867,2014" stroke="blue" stroke-width="2" />
<path d="M3619,484 L760,4650" stroke="blue" stroke-width="2" />
<path d="M629,5987 L2944,5423" stroke="blue" stroke-width="2" />
<path d="M3922,1472 L3039,191" stroke="blue" stroke-width="2" />
<path d="M2646,1604 L3124,136" stroke="blue" stroke-width="2" />
<path d="M3220,3777 L3460,2454" stroke="blue" stroke-width="2" />
<path d="M1558,6220 L1729,3563" stroke="blue" stroke-width="2" />
<path d="M4174,347 L3837,4118" stroke="blue" stroke-width="2" />
<path d="M2565,1504 L3189,5500" stroke="blue" stroke-width="2" />
<path d="M2262,4813 L1229,3059" stroke="blue" stroke-width="2" />
<path d="M4091,2809 L727,4510" stroke="blue" stroke-width="2" />
<path d="M3725,3097 L1036,4675" stroke="blue" stroke-width="2" />
<path d="M2401,3731 L3710,5917" stroke="blue" stroke-width="2" />
<path d="M1530,3059 L2723,3882" stroke="blue" stroke-width="2" />
<path d="M471,1458 L842,621" stroke="blue" stroke-width="2" />
<path d="M3697,3936 L2892,5797" stroke="blue" stroke-width="2" />
<path d="M2946,1304 L1202,2969" stroke="blue" stroke-width="2" />
<path d="M2824,2334 L16,1875" stroke="blue" stroke-width="2" />
<path d="M1197,201 L1268,1376" stroke="blue" stroke-width="2" />
<path d="M2147,1631 L4251,6627" stroke="blue" stroke-width="2" />
<path d="M551,3217 L622,1960" stroke="blue" stroke-width="2" />
<path d="M2282,6392 L3129,2535" stroke="blue" stroke-width="2" />
<path d="M3376,6208 L70,6307" stroke="blue" stroke-width="2" />
<path d="M1170,3487 L2760,4205" stroke="blue" stroke-width="2" />
<path d="M1305,1867 L1094,49" stroke="blue" stroke-width="2" />
<path d="M2396,709 L3611,4244" stroke="blue" stroke-width="2" />
<path d="M1457,2645 L1326,1978" stroke="blue" stroke-width="2" />
<path d="M958,5752 L2631,6013" stroke="blue" stroke-width="2" />
<path d="M1862,940 L3681,3554" stroke="blue" stroke-width="2" />
<path d="M3325,4872 L137,5241" stroke="blue" stroke-width="2" />
<path d="M1368,5510 L2287,5536" stroke="blue" stroke-width="2" />
<path d="M946,3869 L924,5989" stroke="blue" stroke-width="2" />
<path d="M3773,3016 L1158,696" stroke="blue" stroke-width="2" />
<path d="M1315,3926 L2586,2556" stroke="blue" stroke-width="2" />
<path d="M3710,5659 L70,6444" stroke="blue" stroke-width="2" />
<path d="M4075,3631 L3783,1466" stroke="blue" stroke-width="2" />
<path d="M518,6545 L2855,5750" stroke="blue" stroke-width="2" />
<path d="M3789,664 L2217,4857" stroke="blue" stroke-width="2" />
<path d="M1278,4532 L2724,118" stroke="blue" stroke-width="2" />
<path d="M2712,3011 L4118,3789" stroke="blue" stroke-width="2" />
<path d="M3295,2921 L2706,6403" stroke="blue" stroke-width="2" />
<path d="M893,5705 L638,1683" stroke="blue" stroke-width="2" />
<path d="M1685,1785 L3701,6177" stroke="blue" stroke-width="2" />
<path d="M1139,895 L3043,4122" stroke="blue" stroke-width="2" />
<path d="M1745,4919 L4094,1274" stroke="blue" stroke-width="2" />
<path d="M1656,6391 L534,3838" stroke="blue" stroke-width="2" />
<path d="M3136,4232 L4104,4159" stroke="blue" stroke-width="2" />
<path d="M1719,5595 L1391,2868" stroke="blue" stroke-width="2" />
<path d="M1235,5567 L2219,2431" stroke="blue" stroke-width="2" />
<path d="M810,2547 L3712,4911" stroke="blue" stroke-width="2" />
<path d="M2711,3236 L125,5193" stroke="blue" stroke-width="2" />
<path d="M1581,4732 L3927,2681" stroke="blue" stroke-width="2" />
<path d="M2689,6650 L4273,4828" stroke="blue" stroke-width="2" />
<path d="M163,872 L3778,3997" stroke="blue" stroke-width="2" />
<path d="M1172,4531 L3091,6164" stroke="blue" stroke-width="2" />
<path d="M455,209 L3010,6234" stroke="blue" stroke-width="2" />
<path d="M1604,2024 L3895,5086" stroke="blue" stroke-width="2" />
<path d="M488,4635 L2493,4019" stroke="blue" stroke-width="2" />
<path d="M474,1739 L535,3111" stroke="blue" stroke-width="2" />
<path d="M2138,6266 L3335,2974" stroke="blue" stroke-width="2" />
<path d="M2239,6207 L1997,4215" stroke="blue" stroke-width="2" />
<path d="M4284,2559 L2102,656" stroke="blue" stroke-width="2" />
<path d="M2956,3279 L548,6470" stroke="blue" stroke-width="2" />
<path d="M3539,6233 L3934,4058" stroke="blue" stroke-width="2" />
<path d="M3571,2176 L984,2962" stroke="blue" stroke-width="2" />
<path d="M2516,6344 L4036,4255" stroke="blue" stroke-width="2" />
<path d="M2149,4383 L385,4173" stroke="blue" stroke-width="2" />
<path d="M2926,5025 L2468,471" stroke="blue" stroke-width="2" />
<path d="M2741,2612 L4215,4802" stroke="blue" stroke-width="2" />
<path d="M3836,6122 L3389,4577" stroke="blue" stroke-width="2" />
<path d="M4295,3795 L1410,5191" stroke="blue" stroke-width="2" />
<path d="M945,4931 L2452,6086" stroke="blue" stroke-width="2" />
<path d="M891,3328 L3564,749" stroke="blue" stroke-width="2" />
<path d="M3134,6434 L267,3972" stroke="blue" stroke-width="2" />
<path d="M611,176 L2847,5918" stroke="blue" stroke-width="2" />
<path d="M3580,4910 L2165,4140" stroke="blue" stroke-width="2" />
<path d="M1814,4087 L3058,5167" stroke="blue" stroke-width="2" />
<path d="M348,2615 L2102,4677" stroke="blue" stroke-width="2" />
<path d="M1642,6659 L2514,3189" stroke="blue" stroke-width="2" />
<path d="M2532,4884 L3283,4155" stroke="blue" stroke-width="2" />
<path d="M3960,6503 L2185,96" stroke="blue" stroke-width="2" />
<path d="M1282,2824 L1302,5357" stroke="blue" stroke-width="2" />
<path d="M2011,3133 L3051,3280" stroke="blue" stroke-width="2" />
<path d="M842,4091 L555,2974" stroke="blue" stroke-width="2" />
<path d="M3034,996 L2956,722" stroke="blue" stroke-width="2" />
<path d="M1741,2587 L2443,2779" stroke="blue" stroke-width="2" />
<path d="M632,673 L1766,1434" stroke="blue" stroke-width="2" />
<path d="M1616,276 L4081,4265" stroke="blue" stroke-width="2" />
<path d="M1832,3154 L3702,4088" stroke="blue" stroke-width="2" />
<path d="M2635,4423 L4242,1133" stroke="blue" stroke-width="2" />
<path d="M2284,2976 L3320,2490" stroke="blue" stroke-width="2" />
<path d="M4117,6054 L3838,4925" stroke="blue" stroke-width="2" />
<path d="M3709,2162 L386,2664" stroke="blue" stroke-width="2" />
<path d="M1821,3359 L3436,593" stroke="blue" stroke-width="2" />
<path d="M30,1816 L1807,686" stroke="blue" stroke-width="2" />
<path d="M136,3057 L789,2465" stroke="blue" stroke-width="2" />
<path d="M2109,4489 L41,5497" stroke="blue" stroke-width="2" />
<path d="M4316,5717 L2491,5034" stroke="blue" stroke-width="2" />
<path d="M1233,4332 L2425,4012" stroke="blue" stroke-width="2" />
<path d="M3218,3403 L883,5596" stroke="blue" stroke-width="2" />
<path d="M1167,1583 L1594,3347" stroke="blue" stroke-width="2" />
<path d="M1009,3125 L373,5383" stroke="blue" stroke-width="2" />
<path d="M4017,4465 L3314,578" stroke="blue" stroke-width="2" />
<path d="M247,6503 L1521,3959" stroke="blue" stroke-width="2" />
<path d="M2385,784 L1309,1317" stroke="blue" stroke-width="2" />
<path d="M2961,2535 L2301,1327" stroke="blue" stroke-width="2" />
<path d="M3154,5875 L3303,664" stroke="blue" stroke-width="2" />
<path d="M3198,3060 L298,2239" stroke="blue" stroke-width="2" />
<path d="M2166,3731 L4024,4869" stroke="blue" stroke-width="2" />
<path d="M4301,558 L4087,697" stroke="blue" stroke-width="2" />
<path d="M653,6637 L2679,682" stroke="blue" stroke-width="2" />
<path d="M1189,282 L1692,5258" stroke="blue" stroke-width="2" />
<path d="M2508,4141 L307,3616" stroke="blue" stroke-width="2" />
<path d="M2318,1117 L140,2500" stroke="blue" stroke-width="2" />
<path d="M4076,3362 L4129,221" stroke="blue" stroke-width="2" />
<path d="M3960,6536 L2132,463" stroke="blue" stroke-width="2" />
<path d="M1017,5971 L2234,4812" stroke="blue" stroke-width="2" />
<path d="M2221,4923 L1888,286" stroke="blue" stroke-width="2" />
<path d="M3823,4085 L3304,2446" stroke="blue" stroke-width="2" />
<path d="M3747,4895 L3979,3872" stroke="blue" stroke-width="2" />
<path d="M1011,4301 L2785,3914" stroke="blue" stroke-width="2" />
<path d="M1647,4069 L3512,3123" stroke="blue" stroke-width="2" />
<path d="M3401,2671 L2337,1344" stroke="blue" stroke-width="2" />
<path d="M1637,1337 L1689,5543" stroke="blue" stroke-width="2" />
<path d="M2720,1944 L3264,2934" stroke="blue" stroke-width="2" />
<path d="M1756,4206 L3060,4970" stroke="blue" stroke-width="2" />
<path d="M1046,1199 L927,4641" stroke="blue" stroke-width="2" />
<path d="M2633,2922 L3691,6342" stroke="blue" stroke-width="2" />
<path d="M529,4364 L1437,6647" stroke="blue" stroke-width="2" />
<path d="M3462,1475 L1336,660" stroke="blue" stroke-width="2" />
<path d="M527,6208 L1859,668" stroke="blue" stroke-width="2" />
<path d="M2236,1878 L1755,300" stroke="blue" stroke-width="2" />
<path d="M3904,4715 L3756,4734" stroke="blue" stroke-width="2" />
<path d="M1715,3627 L4264,1259" stroke="blue" stroke-width="2" />
<path d="M4192,4924 L2262,4979" stroke="blue" stroke-width="2" />
<path d="M3305,5729 L2329,3217" stroke="blue" stroke-width="2" />
<path d="M1216,3751 L3383,1487" stroke="blue" stroke-width="2" />
<path d="M2024,3981 L2929,419" stroke="blue" stroke-width="2" />
<path d="M313,1188 L3615,1111" stroke="blue" stroke-width="2" />
<path d="M3281,2095 L412,6167" stroke="blue" stroke-width="2" />
<path d="M2906,4917 L1314,5136" stroke="blue" stroke-width="2" />
<path d="M3696,5482 L1689,3618" stroke="blue" stroke-width="2" />
<path d="M2968,3160 L1360,1001" stroke="blue" stroke-width="2" />
<path d="M1583,4772 L3342,4490" stroke="blue" stroke-width="2" />
<path d="M13,3878 L1553,3066" stroke="blue" stroke-width="2" />
<path d="M4275,5350 L1461,1130" stroke="blue" stroke-width="2" />
<path d="M926,1682 L829,5733" stroke="blue" stroke-width="2" />
<path d="M55,4649 L4159,3339" stroke="blue" stroke-width="2" />
<path d="M3054,3026 L4321,5792" stroke="blue" stroke-width="2" />
<path d="M3235,5931 L3026,5771" stroke="blue" stroke-width="2" />
<path d="M277,1349 L4201,3029" stroke="blue" stroke-width="2" />
<path d="M2056,2687 L3536,370" stroke="blue" stroke-width="2" />
<path d="M1490,5557 L265,154" stroke="blue" stroke-width="2" />
<path d="M1216,1844 L915,1838" stroke="blue" stroke-width="2" />
<path d="M10,2520 L1550,2030" stroke="blue" stroke-width="2" />
<path d="M3653,3678 L3970,5788" stroke="blue" stroke-width="2" />
<path d="M303,470 L3667,5801" stroke="blue" stroke-width="2" />
<path d="M1325,4587 L2624,1285" stroke="blue" stroke-width="2" />
<path d="M1929,142 L2632,3896" stroke="blue" stroke-width="2" />
<path d="M1330,3892 L4042,6629" stroke="blue" stroke-width="2" />
<path d="M2883,5367 L768,2682" stroke="blue" stroke-width="2" />
<path d="M3126,4480 L1729,618" stroke="blue" stroke-width="2" />
<path d="M2816,881 L1187,4207" stroke="blue" stroke-width="2" />
<path d="M2902,5325 L3182,3402" stroke="blue" stroke-width="2" />
<path d="M3615,5246 L2074,3179" stroke="blue" stroke-width="2" />
<path d="M1146,1847 L1268,3826" stroke="blue" stroke-width="2" />
<path d="M2731,290 L3431,5243" stroke="blue" stroke-width="2" />
<path d="M4161,6457 L984,5315" stroke="blue" stroke-width="2" />
<path d="M3972,107 L2302,6048" stroke="blue" stroke-width="2" />
<path d="M1741,4029 L11,2582" stroke="blue" stroke-width="2" />
<path d="M4152,2688 L1210,2926" stroke="blue" stroke-width="2" />
<path d="M582,3133 L2982,930" stroke="blue" stroke-width="2" />
<path d="M65,2874 L2552,4742" stroke="blue" stroke-width="2" />
<path d="M3617,3351 L283,1963" stroke="blue" stroke-width="2" />
<path d="M754,6173 L4075,1424" stroke="blue" stroke-width="2" />
<path d="M3989,6577 L2062,6495" stroke="blue" stroke-width="2" />
<path d="M4035,2725 L1928,3040" stroke="blue" stroke-width="2" />
<path d="M1319,3802 L2350,648" stroke="blue" stroke-width="2" />
<path d="M1423,5090 L45,1218" stroke="blue" stroke-width="2" />
<path d="M1229,5223 L312,4584" stroke="blue" stroke-width="2" />
<path d="M1815,3331 L67,243" stroke="blue" stroke-width="2" />
<path d="M4106,376 L2596,723" stroke="blue" stroke-width="2" />
<path d="M3879,1296 L1630,2672" stroke="blue" stroke-width="2" />
<path d="M1385,5595 L1172,5532" stroke="blue" stroke-width="2" />
<path d="M3431,3289 L574,4103" stroke="blue" stroke-width="2" />
<path d="M2548,3203 L425,956" stroke="blue" stroke-width="2" />
<path d="M2520,5320 L3733,5161" stroke="blue" stroke-width="2" />
<path d="M218,5373 L1604,332" stroke="blue" stroke-width="2" />
<path d="M2294,952 L1204,2083" stroke="blue" stroke-width="2" />
<path d="M3895,5119 L27,5720" stroke="blue" stroke-width="2" />
<path d="M4087,6331 L504,1855" stroke="blue" stroke-width="2" />
<path d="M3998,830 L4129,2611" stroke="blue" stroke-width="2" />
<path d="M3772,5423 L3161,6357" stroke="blue" stroke-width="2" />
<path d="M177,3307 L375,219" stroke="blue" stroke-width="2" />
<path d="M3248,5748 L4192,5781" stroke="blue" stroke-width="2" />
<path d="M2265,2579 L429,2232" stroke="blue" stroke-width="2" />
<path d="M1704,5101 L279,1311" stroke="blue" stroke-width="2" />
<path d="M2396,6007 L2146,4386" stroke="blue" stroke-width="2" />
<path d="M2057,4910 L2758,6039" stroke="blue" stroke-width="2" />
<path d="M1269,2062 L3421,4561" stroke="blue" stroke-width="2" />
<path d="M1058,1554 L363,6464" stroke="blue" stroke-width="2" />
<path d="M2179,2698 L275,6325" stroke="blue" stroke-width="2" />
<path d="M205,1246 L1597,5336" stroke="blue" stroke-width="2" />
<path d="M1774,2439 L3269,2152" stroke="blue" stroke-width="2" />
<path d="M1706,6321 L4249,1661" stroke="blue" stroke-width="2" />
<path d="M3030,2924 L1521,5165" stroke="blue" stroke-width="2" />
<path d="M1248,3465 L2092,2695" stroke="blue" stroke-width="2" />
<path d="M886,1820 L1400,594" stroke="blue" stroke-width="2" />
<path d="M735,5430 L727,4357" stroke="blue" stroke-width="2" />
<path d="M3081,4111 L4151,2123" stroke="blue" stroke-width="2" />
<path d="M3680,1557 L4031,4342" stroke="blue" stroke-width="2" />
<path d="M989,3518 L590,5169" stroke="blue" stroke-width="2" />
<path d="M267,183 L3709,4168" stroke="blue" stroke-width="2" />
<path d="M1086,1904 L4062,6579" stroke="blue" stroke-width="2" />
<path d="M3449,6539 L1725,6112" stroke="blue" stroke-width="2" />
<path d="M3836,1246 L3308,5963" stroke="blue" stroke-width="2" />
<path d="M2116,6118 L1623,3613" stroke="blue" stroke-width="2" />
<path d="M745,946 L1945,2573" stroke="blue" stroke-width="2" />
<path d="M2287,1543 L661,2710" stroke="blue" stroke-width="2" />
<path d="M4120,3865 L1788,1998" stroke="blue" stroke-width="2" />
<path d="M4318,4593 L2676,1321" stroke="blue" stroke-width="2" />
<path d="M139,22 L743,3417" stroke="blue" stroke-width="2" />
<path d="M975,4680 L2708,2306" stroke="blue" stroke-width="2" />
<path d="M1572,3342 L3700,1377" stroke="blue" stroke-width="2" />
<path d="M2117,1768 L1509,723" stroke="blue" stroke-width="2" />
<path d="M159,4548 L2238,2280" stroke="blue" stroke-width="2" />
<path d="M3884,1656 L2838,1272" stroke="blue" stroke-width="2" />
<path d="M1397,1470 L4023,6308" stroke="blue" stroke-width="2" />
<path d="M4220,1924 L917,755" stroke="blue" stroke-width="2" />
<path d="M1955,2056 L27,2941" stroke="blue" stroke-width="2" />
<path d="M1532,5022 L1820,190" stroke="blue" stroke-width="2" />
<path d="M3500,2824 L302,61" stroke="blue" stroke-width="2" />
<path d="M795,3537 L3411,3917" stroke="blue" stroke-width="2" />
<path d="M3731,4425 L2133,5945" stroke="blue" stroke-width="2" />
<path d="M2093,2846 L2813,3886" stroke="blue" stroke-width="2" />
<path d="M4037,1549 L3819,124" stroke="blue" stroke-width="2" />
<path d="M4008,1113 L452,178" stroke="blue" stroke-width="2" />
<path d="M1070,3291 L705,5269" stroke="blue" stroke-width="2" />
<path d="M2323,5256 L253,5374" stroke="blue" stroke-width="2" />
<path d="M774,5225 L531,2766" stroke="blue" stroke-width="2" />
<path d="M1006,3914 L2493,1389" stroke="blue" stroke-width="2" />
<path d="M1651,5627 L2825,2321" stroke="blue" stroke-width="2" />
<path d="M3043,5224 L2766,2858" stroke="blue" stroke-width="2" />
<path d="M2640,963 L2081,3980" stroke="blue" stroke-width="2" />
<path d="M2493,6117 L914,4621" stroke="blue" stroke-width="2" />
<path d="M2423,6253 L1973,1565" stroke="blue" stroke-width="2" />
<path d="M912,308 L3049,331" stroke="blue" stroke-width="2" />
<path d="M4023,286 L832,4809" stroke="blue" stroke-width="2" />
<path d="M4009,2237 L2576,5537" stroke="blue" stroke-width="2" />
<path d="M2744,6322 L636,2680" stroke="blue" stroke-width="2" />
<path d="M2950,6586 L4071,3091" stroke="blue" stroke-width="2" />
<path d="M1921,5100 L1390,4187" stroke="blue" stroke-width="2" />
<path d="M910,5120 L390,5605" stroke="blue" stroke-width="2" />
<path d="M3184,566 L2401,1203" stroke="blue" stroke-width="2" />
<path d="M2639,5481 L23,751" stroke="blue" stroke-width="2" />
<path d="M1439,1006 L3724,883" stroke="blue" stroke-width="2" />
<path d="M1968,5229 L1173,1592" stroke="blue" stroke-width="2" />
<path d="M4106,3100 L147,2497" stroke="blue" stroke-width="2" />
<path d="M709,932 L394,4649" stroke="blue" stroke-width="2" />
<path d="M4312,945 L2046,1123" stroke="blue" stroke-width="2" />
<path d="M244,3110 L3613,6011" stroke="blue" stroke-width="2" />
<path d="M1456,693 L916,1112" stroke="blue" stroke-width="2" />
<path d="M3753,2824 L2506,1147" stroke="blue" stroke-width="2" />
<path d="M1594,2516 L4000,3120" stroke="blue" stroke-width="2" />
<path d="M933,4521 L1071,4942" stroke="blue" stroke-width="2" />
<path d="M3819,6402 L3583,2961" stroke="blue" stroke-width="2" />
<path d="M671,2880 L327,2187" stroke="blue" stroke-width="2" />
<path d="M614,5046 L3254,10" stroke="blue" stroke-width="2" />
<path d="M4042,827 L847,3035" stroke="blue" stroke-width="2" />
<path d="M1301,5525 L1313,4953" stroke="blue" stroke-width="2" />
<path d="M4243,1625 L1696,6218" stroke="blue" stroke-width="2" />
<path d="M104,6450 L1066,1955" stroke="blue" stroke-width="2" />
<path d="M3389,4539 L1510,5982" stroke="blue" stroke-width="2" />
<path d="M897,94 L1480,3921" stroke="blue" stroke-width="2" />
<path d="M744,428 L2054,688" stroke="blue" stroke-width="2" />
<path d="M1918,5472 L4149,5513" stroke="blue" stroke-width="2" />
<path d="M1446,2496 L155,2866" stroke="blue" stroke-width="2" />
<path d="M2641,450 L1582,6538" stroke="blue" stroke-width="2" />
<path d="M2105,4928 L1288,3276" stroke="blue" stroke-width="2" />
<path d="M2482,2761 L1601,5527" stroke="blue" stroke-width="2" />
<path d="M3640,4284 L1788,269" stroke="blue" stroke-width="2" />
<path d="M1159,4000 L3318,150" stroke="blue" stroke-width="2" />
<path d="M341,405 L2916,1739" stroke="blue" stroke-width="2" />
<path d="M692,1958 L1471,581" stroke="blue" stroke-width="2" />
<path d="M1771,5439 L840,5235" stroke="blue" stroke-width="2" />
<path d="M3643,3602 L4001,4626" stroke="blue" stroke-width="2" />
<path d="M3793,4995 L988,5745" stroke="blue" stroke-width="2" />
<path d="M94,982 L71,7" stroke="blue" stroke-width="2" />
<path d="M2864,5796 L3523,2937" stroke="blue" stroke-width="2" />
<path d="M1294,5033 L349,797" stroke="blue" stroke-width="2" />
<path d="M2579,5867 L3457,466" stroke="blue" stroke-width="2" />
<path d="M533,2781 L2135,4791" stroke="blue" stroke-width="2" />
<path d="M1263,2652 L2471,4797" stroke="blue" stroke-width="2" />
<path d="M1151,5978 L3572,5471" stroke="blue" stroke-width="2" />
<path d="M3471,4650 L3976,3194" stroke="blue" stroke-width="2" />
<path d="M1310,143 L1145,3016" stroke="blue" stroke-width="2" />
<path d="M1203,660 L1667,4834" stroke="blue" stroke-width="2" />
<path d="M2239,3480 L3565,6446" stroke="blue" stroke-width="2" />
<path d="M642,5737 L2550,67" stroke="blue" stroke-width="2" />
<path d="M640,4141 L4258,4742" stroke="blue" stroke-width="2" />
<path d="M2022,2899 L186,1216" stroke="blue" stroke-width="2" />
<path d="M1092,4417 L3437,2084" stroke="blue" stroke-width="2" />
<path d="M1921,6314 L3137,4554" stroke="blue" stroke-width="2" />
<path d="M3109,3771 L1805,223" stroke="blue" stroke-width="2" />
<path d="M4132,2924 L2001,2931" stroke="blue" stroke-width="2" />
<path d="M537,1818 L252,5047" stroke="blue" stroke-width="2" />
<path d="M1625,5966 L482,6065" stroke="blue" stroke-width="2" />
<path d="M395,4843 L1623,181" stroke="blue" stroke-width="2" />
<path d="M4250,6247 L1905,1015" stroke="blue" stroke-width="2" />
<path d="M2430,1402 L3880,3185" stroke="blue" stroke-width="2" />
<path d="M751,3557 L4090,4172" stroke="blue" stroke-width="2" />
<path d="M442,4936 L3431,4496" stroke="blue" stroke-width="2" />
<path d="M252,2302 L2919,4755" stroke="blue" stroke-width="2" />
<path d="M991,957 L1756,4662" stroke="blue" stroke-width="2" />
<path d="M1668,3633 L1142,1258" stroke="blue" stroke-width="2" />
<path d="M3323,2503 L1260,1111" stroke="blue" stroke-width="2" />
<path d="M2353,6691 L2911,3244" stroke="blue" stroke-width="2" />
<path d="M1035,1885 L1767,53" stroke="blue" stroke-width="2" />
<path d="M2654,3508 L3174,2369" stroke="blue" stroke-width="2" />
<path d="M1410,2417 L3702,1334" stroke="blue" stroke-width="2" />
<path d="M3337,2381 L2748,6328" stroke="blue" stroke-width="2" />
<path d="M896,6083 L3729,419" stroke="blue" stroke-width="2" />
<path d="M2107,2396 L705,1337" stroke="blue" stroke-width="2" />
<path d="M1862,3045 L1658,934" stroke="blue" stroke-width="2" />
<path d="M2762,528 L70,1428" stroke="blue" stroke-width="2" />
<path d="M2471,3922 L2453,616" stroke="blue" stroke-width="2" />
<path d="M3681,1157 L3728,5536" stroke="blue" stroke-width="2" />
<path d="M2939,4362 L3627,3307" stroke="blue" stroke-width="2" />
<path d="M987,2725 L2213,4228" stroke="blue" stroke-width="2" />
<path d="M1631,5740 L4180,6042" stroke="blue" stroke-width="2" />
<path d="M751,1634 L1598,2219" stroke="blue" stroke-width="2" />
<path d="M3901,486 L2746,1957" stroke="blue" stroke-width="2" />
<path d="M1891,950 L3742,3828" stroke="blue" stroke-width="2" />
<path d="M1543,2997 L2943,5031" stroke="blue" stroke-width="2" />
<path d="M1575,6102 L2167,3668" stroke="blue" stroke-width="2" />
<path d="M1620,6344 L1277,6055" stroke="blue" stroke-width="2" />
<path d="M1000,4343 L629,6387" stroke="blue" stroke-width="2" />
<path d="M936,6375 L652,4638" stroke="blue" stroke-width="2" />
<path d="M2124,6682 L3402,1643" stroke="blue" stroke-width="2" />
<path d="M3960,4703 L423,2683" stroke="blue" stroke-width="2" />
<path d="M4282,3902 L702,3263" stroke="blue" stroke-width="2" />
<path d="M1150,2840 L2267,4476" stroke="blue" stroke-width="2" />
<path d="M2819,5884 L2138,3778" stroke="blue" stroke-width="2" />
<path d="M3172,2159 L3576,3358" stroke="blue" stroke-width="2" />
<path d="M3604,3362 L225,1619" stroke="blue" stroke-width="2" />
<path d="M447,695 L4060,5157" stroke="blue" stroke-width="2" />
<path d="M4193,3954 L2567,2474" stroke="blue" stroke-width="2" />
<path d="M3523,1559 L1486,619" stroke="blue" stroke-width="2" />
<path d="M111,5860 L373,4863" stroke="blue" stroke-width="2" />
<path d="M1682,4112 L237,2907" stroke="blue" stroke-width="2" />
<path d="M3444,5636 L2516,4555" stroke="blue" stroke-width="2" />
<path d="M3526,2029 L1556,3774" stroke="blue" stroke-width="2" />
<path d="M3916,1058 L3601,1367" stroke="blue" stroke-width="2" />
<path d="M1521,2137 L3560,6249" stroke="blue" stroke-width="2" />
<path d="M3585,3107 L172,4568" stroke="blue" stroke-width="2" />
<path d="M1233,6637 L2458,2327" stroke="blue" stroke-width="2" />
<path d="M3704,302 L424,3188" stroke="blue" stroke-width="2" />
<path d="M1766,2474 L2125,146" stroke="blue" stroke-width="2" />
<path d="M2383,683 L563,2599" stroke="blue" stroke-width="2" />
<path d="M742,5863 L3901,787" stroke="blue" stroke-width="2" />
<path d="M1594,4322 L2955,248" stroke="blue" stroke-width="2" />
<path d="M648,5282 L2224,6666" stroke="blue" stroke-width="2" />
<path d="M226,4129 L3853,4926" stroke="blue" stroke-width="2" />
<path d="M2790,1664 L3888,5636" stroke="blue" stroke-width="2" />
<path d="M3040,6243 L1972,5526" stroke="blue" stroke-width="2" />
<path d="M1440,1336 L2852,4977" stroke="blue" stroke-width="2" />
<path d="M1431,5079 L4100,2908" stroke="blue" stroke-width="2" />
<path d="M3386,6621 L2610,611" stroke="blue" stroke-width="2" />
<path d="M2343,3736 L490,2549" stroke="blue" stroke-width="2" />
<path d="M2464,6338 L2619,6274" stroke="blue" stroke-width="2" />
<path d="M3905,6503 L44,3281" stroke="blue" stroke-width="2" />
<path d="M2982,4254 L2564,1914" stroke="blue" stroke-width="2" />
<path d="M3161,4641 L545,5554" stroke="blue" stroke-width="2" />
<path d="M1144,6010 L2739,3111" stroke="blue" stroke-width="2" />
<path d="M2917,6240 L3477,2957" stroke="blue" stroke-width="2" />
<path d="M2290,5025 L1435,5398" stroke="blue" stroke-width="2" />
<path d="M1405,281 L622,5126" stroke="blue" stroke-width="2" />
<path d="M2383,5359 L534,2166" stroke="blue" stroke-width="2" />
<path d="M177,196 L1301,6578" stroke="blue" stroke-width="2" />
<path d="M4272,1862 L4242,4081" stroke="blue" stroke-width="2" />
<path d="M3290,3201 L1907,1760" stroke="blue" stroke-width="2" />
<path d="M2185,2077 L1211,980" stroke="blue" stroke-width="2" />
<path d="M1077,4452 L3306,5965" stroke="blue" stroke-width="2" />
<path d="M450,4467 L3688,5786" stroke="blue" stroke-width="2" />
<path d="M1226,6153 L3120,852" stroke="blue" stroke-width="2" />
<path d="M3133,3822 L422,6696" stroke="blue" stroke-width="2" />
<path d="M2669,5093 L2814,5095" stroke="blue" stroke-width="2" />
<path d="M3272,2670 L2942,594" stroke="blue" stroke-width="2" />
<path d="M2415,2128 L1516,5762" stroke="blue" stroke-width="2" />
<path d="M2905,3030 L1572,3204" stroke="blue" stroke-width="2" />
<path d="M1232,2233 L3834,4281" stroke="blue" stroke-width="2" />
<path d="M799,3803 L2918,1055" stroke="blue" stroke-width="2" />
<path d="M3044,6673 L2503,6200" stroke="blue" stroke-width="2" />
<path d="M1526,1320 L2568,3671" stroke="blue" stroke-width="2" />
<path d="M32,5454 L4129,4757" stroke="blue" stroke-width="2" />
<path d="M2665,5135 L1798,2313" stroke="blue" stroke-width="2" />
<path d="M2647,3898 L3238,6542" stroke="blue" stroke-width="2" />
<path d="M2805,4348 L2371,633" stroke="blue" stroke-width="2" />
<path d="M1373,6589 L1255,6596" stroke="blue" stroke-width="2" />
<path d="M998,637 L1415,324" stroke="blue" stroke-width="2" />
<path d="M2229,358 L424,660" stroke="blue" stroke-width="2" />
<path d="M4013,4569 L2273,2512" stroke="blue" stroke-width="2" />
<path d="M4188,5717 L3501,2456" stroke="blue" stroke-width="2" />
<path d="M3230,777 L2071,409" stroke="blue" stroke-width="2" />
<path d="M3785,2425 L2401,6694" stroke="blue" stroke-width="2" />
<path d="M3541,1237 L531,2893" stroke="blue" stroke-width="2" />
<path d="M3298,4659 L916,667" stroke="blue" stroke-width="2" />
<path d="M531,6232 L2617,1453" stroke="blue" stroke-width="2" />
<path d="M1677,6653 L2947,3421" stroke="blue" stroke-width="2" />
<path d="M3294,6472 L2599,1095" stroke="blue" stroke-width="2" />
<path d="M3096,2253 L1660,6291" stroke="blue" stroke-width="2" />
<path d="M3211,3480 L1158,4841" stroke="blue" stroke-width="2" />
<path d="M2634,2836 L1698,5438" stroke="blue" stroke-width="2" />
<path d="M1975,6226 L2006,822" stroke="blue" stroke-width="2" />
<path d="M2533,1470 L1337,1512" stroke="blue" stroke-width="2" />
<path d="M3162,1663 L336,3547" stroke="blue" stroke-width="2" />
<path d="M4213,4121 L3130,5475" stroke="blue" stroke-width="2" />
<path d="M2917,731 L4148,5100" stroke="blue" stroke-width="2" />
<path d="M1064,939 L597,3008" stroke="blue" stroke-width="2" />
<path d="M2365,3589 L488,2471" stroke="blue" stroke-width="2" />
<path d="M4137,2943 L3841,1056" stroke="blue" stroke-width="2" />
<path d="M3239,1957 L2655,6451" stroke="blue" stroke-width="2" />
<path d="M568,5786 L2722,5099" stroke="blue" stroke-width="2" />
<path d="M689,6516 L1904,5792" stroke="blue" stroke-width="2" />
<path d="M2833,6496 L1762,6371" stroke="blue" stroke-width="2" />
<path d="M3590,3101 L2163,1790" stroke="blue" stroke-width="2" />
<path d="M2765,3301 L4035,508" stroke="blue" stroke-width="2" />
<path d="M1172,5509 L2356,5855" stroke="blue" stroke-width="2" />
<path d="M2207,3312 L3496,6026" stroke="blue" stroke-width="2" />
<path d="M1257,617 L897,2944" stroke="blue" stroke-width="2" />
<path d="M825,3539 L615,4401" stroke="blue" stroke-width="2" />
<path d="M2239,6316 L3711,1135" stroke="blue" stroke-width="2" />
<path d="M483,5953 L3556,990" stroke="blue" stroke-width="2" />
<path d="M625,4427 L2646,3060" stroke="blue" stroke-width="2" />
<path d="M3094,1657 L2964,5142" stroke="blue" stroke-width="2" />
<path d="M4281,4582 L547,701" stroke="blue" stroke-width="2" />
<path d="M765,1705 L3554,4550" stroke="blue" stroke-width="2" />
<path d="M1912,6330 L2059,5717" stroke="blue" stroke-width="2" />
<path d="M1861,4179 L375,4843" stroke="blue" stroke-width="2" />
<path d="M2219,4048 L4168,5945" stroke="blue" stroke-width="2" />
<path d="M2058,5139 L84,1362" stroke="blue" stroke-width="2" />
<path d="M1797,1970 L3928,2948" stroke="blue" stroke-width="2" />
<path d="M3325,1572 L2415,5825" stroke="blue" stroke-width="2" />
<path d="M710,3201 L661,4654" stroke="blue" stroke-width="2" />
<path d="M2118,1246 L2906,3053" stroke="blue" stroke-width="2" />
<path d="M1713,5870 L2244,1963" stroke="blue" stroke-width="2" />
<path d="M3402,5799 L2581,3946" stroke="blue" stroke-width="2" />
<path d="M2629,4184 L4065,2818" stroke="blue" stroke-width="2" />
<path d="M393,1161 L1925,5147" stroke="blue" stroke-width="2" />
<path d="M1234,5545 L267,3566" stroke="blue" stroke-width="2" />
<path d="M3914,170 L3885,5132" stroke="blue" stroke-width="2" />
<path d="M3986,4131 L1199,896" stroke="blue" stroke-width="2" />
<path d="M3085,2600 L1835,942" stroke="blue" stroke-width="2" />
<path d="M2742,256 L2999,3327" stroke="blue" stroke-width="2" />
<path d="M2418,3780 L4096,6139" stroke="blue" stroke-width="2" />
<path d="M1058,2431 L689,1885" stroke="blue" stroke-width="2" />
<path d="M1393,96 L3890,5363" stroke="blue" stroke-width="2" />
<path d="M4285,6154 L4292,2585" stroke="blue" stroke-width="2" />
<path d="M2587,840 L223,2149" stroke="blue" stroke-width="2" />
<path d="M1919,723 L679,4363" stroke="blue" stroke-width="2" />
<path d="M3992,3872 L3221,3011" stroke="blue" stroke-width="2" />
<path d="M1230,1057 L2242,428" stroke="blue" stroke-width="2" />
<path d="M33,5564 L3331,841" stroke="blue" stroke-width="2" />
<path d="M3255,3227 L1919,2746" stroke="blue" stroke-width="2" />
<path d="M903,5186 L601,6123" stroke="blue" stroke-width="2" />
<path d="M3434,860 L171,5189" stroke="blue" stroke-width="2" />
<path d="M2089,5723 L4250,5130" stroke="blue" stroke-width="2" />
<path d="M3531,1897 L749,202" stroke="blue" stroke-width="2" />
<path d="M146,5437 L944,4447" stroke="blue" stroke-width="2" />
<path d="M2807,275 L2975,5231" stroke="blue" stroke-width="2" />
<path d="M4089,953 L3061,6351" stroke="blue" stroke-width="2" />
<path d="M1943,1666 L3862,3436" stroke="blue" stroke-width="2" />
<path d="M2046,1408 L2949,4578" stroke="blue" stroke-width="2" />
<path d="M0,0 L4327,0" stroke="red" stroke-width="10" />
<path d="M4327,0 L4327,6700" stroke="red" stroke-width="10" />
<path d="M0,6700 L4327,6700" stroke="red" stroke-width="10" />
<path d="M0,6700 L0,0" stroke="red" stroke-width="10" />
</svg>