<?xml version="1.0" encoding="UTF-8"?>
<svg xmlns="http://www.w3.org/2000/svg" xmlns:xlink="http://www.w3.org/1999/xlink"
     width="10000" height="10000" viewBox="0 0 10000 10000">
<defs>
</defs>
<path d="M7021,736 L2354,1433" stroke="blue" stroke-width="2" />
<path d="M6456,35 L7936,386" stroke="blue" stroke-width="2" />
<path d="M3807,241 L6076,535" stroke="blue" stroke-width="2" />
<path d="M6400,156 L555,686" stroke="blue" stroke-width="2" />
<path d="M8646,1122 L6764,1421" stroke="blue" stroke-width="2" />
<path d="M2367,1363 L771,1166" stroke="blue" stroke-width="2" />
<path d="M4653,818 L844,131" stroke="blue" stroke-width="2" />
<path d="M4387,212 L5003,1034" stroke="blue" stroke-width="2" />
<path d="M4144,1349 L2192,253" stroke="blue" stroke-width="2" />
<path d="M1199,321 L9403,238" stroke="blue" stroke-width="2" />
<path d="M8328,518 L169,352" stroke="blue" stroke-width="2" />
<path d="M4368,175 L1703,1090" stroke="blue" stroke-width="2" />
<path d="M8612,1009 L4669,202" stroke="blue" stroke-width="2" />
<path d="M2368,707 L9022,552" stroke="blue" stroke-width="2" />
<path d="M5166,1414 L5443,343" stroke="blue" stroke-width="2" />
<path d="M5970,208 L9054,1023" stroke="blue" stroke-width="2" />
<path d="M5094,905 L6920,775" stroke="blue" stroke-width="2" />
<path d="M7506,950 L704,540" stroke="blue" stroke-width="2" />
<path d="M9511,105 L7729,309" stroke="blue" stroke-width="2" />
<path d="M7224,1015 L6459,1421" stroke="blue" stroke-width="2" />
<path d="M4171,970 L2990,759" stroke="blue" stroke-width="2" />
<path d="M7662,1060 L7863,1457" stroke="blue" stroke-width="2" />
<path d="M4033,699 L7027,161" stroke="blue" stroke-width="2" />
<path d="M220,439 L9673,1319" stroke="blue" stroke-width="2" />
<path d="M6178,579 L8968,990" stroke="blue" stroke-width="2" />
<path d="M5059,1427 L31,650" stroke="blue" stroke-width="2" />
<path d="M1732,1408 L6217,950" stroke="blue" stroke-width="2" />
<path d="M733,1381 L127,62" stroke="blue" stroke-width="2" />
<path d="M4103,596 L2711,391" stroke="blue" stroke-width="2" />
<path d="M2245,225 L7142,570" stroke="blue" stroke-width="2" />
<path d="M9683,541 L1110,21" stroke="blue" stroke-width="2" />
<path d="M8030,740 L1441,1189" stroke="blue" stroke-width="2" />
<path d="M8329,829 L2859,71" stroke="blue" stroke-width="2" />
<path d="M5520,723 L6725,471" stroke="blue" stroke-width="2" />
<path d="M2004,1507 L1746,618" stroke="blue" stroke-width="2" />
<path d="M8049,244 L4071,73" stroke="blue" stroke-width="2" />
<path d="M2687,946 L1913,859" stroke="blue" stroke-width="2" />
<path d="M3223,879 L7607,523" stroke="blue" stroke-width="2" />
<path d="M9487,147 L8806,1101" stroke="blue" stroke-width="2" />
<path d="M197,546 L3319,64" stroke="blue" stroke-width="2" />
<path d="M4518,530 L2448,567" stroke="blue" stroke-width="2" />
<path d="M1033,224 L9716,852" stroke="blue" stroke-width="2" />
<path d="M3497,1211 L3666,5" stroke="blue" stroke-width="2" />
<path d="M5109,101 L3199,823" stroke="blue" stroke-width="2" />
<path d="M9563,225 L6949,24" stroke="blue" stroke-width="2" />
<path d="M517,1278 L6878,1140" stroke="blue" stroke-width="2" />
<path d="M2752,379 L3906,962" stroke="blue" stroke-width="2" />
<path d="M6443,1467 L8476,433" stroke="blue" stroke-width="2" />
<path d="M293,321 L656,1325" stroke="blue" stroke-width="2" />
<path d="M5873,1178 L4736,1078" stroke="blue" stroke-width="2" />
<path d="M6087,1176 L3070,1425" stroke="blue" stroke-width="2" />
<path d="M3661,355 L716,149" stroke="blue" stroke-width="2" />
<path d="M5112,583 L7937,1281" stroke="blue" stroke-width="2" />
<path d="M8571,1420 L6154,480" stroke="blue" stroke-width="2" />
<path d="M8909,1022 L7226,448" stroke="blue" stroke-width="2" />
<path d="M6457,23 L3123,25" stroke="blue" stroke-width="2" />
<path d="M6149,22 L9421,603" stroke="blue" stroke-width="2" />
<path d="M8466,5 L2934,472" stroke="blue" stroke-width="2" />
<path d="M6052,190 L7148,1043" stroke="blue" stroke-width="2" />
<path d="M8025,222 L9055,311" stroke="blue" stroke-width="2" />
<path d="M8828,1381 L7014,53" stroke="blue" stroke-width="2" />
<path d="M8040,863 L521,240" stroke="blue" stroke-width="2" />
<path d="M3489,885 L7159,188" stroke="blue" stroke-width="2" />
<path d="M8603,1511 L8616,6" stroke="blue" stroke-width="2" />
<path d="M7724,1402 L4814,529" stroke="blue" stroke-width="2" />
<path d="M9434,141 L518,770" stroke="blue" stroke-width="2" />
<path d="M7213,1300 L1337,826" stroke="blue" stroke-width="2" />
<path d="M5591,1096 L2505,38" stroke="blue" stroke-width="2" />
<path d="M5309,1032 L4641,1405" stroke="blue" stroke-width="2" />
<path d="M9468,667 L2091,1115" stroke="blue" stroke-width="2" />
<path d="M226,196 L3641,168" stroke="blue" stroke-width="2" />
<path d="M369,966 L5608,240" stroke="blue" stroke-width="2" />
<path d="M4083,1269 L9019,847" stroke="blue" stroke-width="2" />
<path d="M5568,832 L3726,735" stroke="blue" stroke-width="2" />
<path d="M5940,181 L7065,877" stroke="blue" stroke-width="2" />
<path d="M8590,1294 L6273,1176" stroke="blue" stroke-width="2" />
<path d="M2965,786 L5345,1273" stroke="blue" stroke-width="2" />
<path d="M9610,711 L1954,940" stroke="blue" stroke-width="2" />
<path d="M275,1315 L5574,30" stroke="blue" stroke-width="2" />
<path d="M2561,914 L1057,939" stroke="blue" stroke-width="2" />
<path d="M1261,834 L8546,1448" stroke="blue" stroke-width="2" />
<path d="M486,1322 L6548,526" stroke="blue" stroke-width="2" />
<path d="M6113,563 L5388,340" stroke="blue" stroke-width="2" />
<path d="M8902,197 L5984,986" stroke="blue" stroke-width="2" />
<path d="M9601,1385 L9602,974" stroke="blue" stroke-width="2" />
<path d="M6428,364 L7177,394" stroke="blue" stroke-width="2" />
<path d="M5627,455 L2061,1447" stroke="blue" stroke-width="2" />
<path d="M3249,1481 L1125,1411" stroke="blue" stroke-width="2" />
<path d="M6534,107 L6708,238" stroke="blue" stroke-width="2" />
<path d="M8370,988 L130,1384" stroke="blue" stroke-width="2" />
<path d="M7928,1040 L10,1428" stroke="blue" stroke-width="2" />
<path d="M3396,660 L9096,528" stroke="blue" stroke-width="2" />
<path d="M957,1277 L4368,272" stroke="blue" stroke-width="2" />
<path d="M8519,1048 L7636,13" stroke="blue" stroke-width="2" />
<path d="M7748,1305 L7662,291" stroke="blue" stroke-width="2" />
<path d="M6193,431 L5556,907" stroke="blue" stroke-width="2" />
<path d="M8412,384 L7685,623" stroke="blue" stroke-width="2" />
<path d="M4069,489 L8191,1268" stroke="blue" stroke-width="2" />
<path d="M4154,1439 L3197,1425" stroke="blue" stroke-width="2" />
<path d="M7814,601 L7732,1240" stroke="blue" stroke-width="2" />
<path d="M7602,1292 L6765,756" stroke="blue" stroke-width="2" />
<path d="M7759,1307 L6573,313" stroke="blue" stroke-width="2" />
<path d="M4625,1267 L9261,359" stroke="blue" stroke-width="2" />
<path d="M2148,1426 L9634,429" stroke="blue" stroke-width="2" />
<path d="M9177,1124 L8117,1131" stroke="blue" stroke-width="2" />
<path d="M4496,1252 L3426,492" stroke="blue" stroke-width="2" />
<path d="M7001,1320 L2563,66" stroke="blue" stroke-width="2" />
<path d="M7283,969 L1864,1130" stroke="blue" stroke-width="2" />
<path d="M4302,17 L6009,805" stroke="blue" stroke-width="2" />
<path d="M6806,1292 L7402,1411" stroke="blue" stroke-width="2" />
<path d="M5679,1270 L3059,365" stroke="blue" stroke-width="2" />
<path d="M6579,1315 L5103,250" stroke="blue" stroke-width="2" />
<path d="M1910,471 L9676,1137" stroke="blue" stroke-width="2" />
<path d="M3458,1053 L8167,1095" stroke="blue" stroke-width="2" />
<path d="M1369,341 L7875,260" stroke="blue" stroke-width="2" />
<path d="M5579,903 L3076,1507" stroke="blue" stroke-width="2" />
<path d="M3479,207 L8204,1164" stroke="blue" stroke-width="2" />
<path d="M2422,590 L1207,564" stroke="blue" stroke-width="2" />
<path d="M1021,991 L6899,238" stroke="blue" stroke-width="2" />
<path d="M6593,163 L7547,233" stroke="blue" stroke-width="2" />
<path d="M5510,1225 L9228,521" stroke="blue" stroke-width="2" />
<path d="M6775,458 L2241,731" stroke="blue" stroke-width="2" />
<path d="M638,324 L6083,1012" stroke="blue" stroke-width="2" />
<path d="M7421,1155 L973,483" stroke="blue" stroke-width="2" />
<path d="M9103,256 L157,182" stroke="blue" stroke-width="2" />
<path d="M4375,984 L6094,772" stroke="blue" stroke-width="2" />
<path d="M2476,893 L2397,647" stroke="blue" stroke-width="2" />
<path d="M1152,1142 L8562,797" stroke="blue" stroke-width="2" />
<path d="M3677,624 L675,1500" stroke="blue" stroke-width="2" />
<path d="M3222,1096 L1012,673" stroke="blue" stroke-width="2" />
<path d="M2831,431 L8737,386" stroke="blue" stroke-width="2" />
<path d="M4556,1131 L708,982" stroke="blue" stroke-width="2" />
<path d="M9659,547 L8323,1391" stroke="blue" stroke-width="2" />
<path d="M7796,565 L4363,287" stroke="blue" stroke-width="2" />
<path d="M2297,149 L7434,845" stroke="blue" stroke-width="2" />
<path d="M4625,1451 L2611,7" stroke="blue" stroke-width="2" />
<path d="M3578,329 L5626,508" stroke="blue" stroke-width="2" />
<path d="M3086,337 L7037,1487" stroke="blue" stroke-width="2" />
<path d="M6776,1417 L3400,1472" stroke="blue" stroke-width="2" />
<path d="M9707,460 L4239,995" stroke="blue" stroke-width="2" />
<path d="M9267,443 L6914,818" stroke="blue" stroke-width="2" />
<path d="M8015,1046 L3327,1059" stroke="blue" stroke-width="2" />
<path d="M4555,1312 L9536,309" stroke="blue" stroke-width="2" />
<path d="M5360,756 L4029,1454" stroke="blue" stroke-width="2" />
<path d="M4206,1438 L9087,1108" stroke="blue" stroke-width="2" />
<path d="M7879,775 L7077,726" stroke="blue" stroke-width="2" />
<path d="M4509,755 L8581,962" stroke="blue" stroke-width="2" />
<path d="M9242,188 L1964,579" stroke="blue" stroke-width="2" />
<path d="M8504,931 L7246,702" stroke="blue" stroke-width="2" />
<path d="M6650,1219 L4679,232" stroke="blue" stroke-width="2" />
<path d="M8996,1269 L2506,279" stroke="blue" stroke-width="2" />
<path d="M3766,1458 L7978,1074" stroke="blue" stroke-width="2" />
<path d="M9591,403 L635,167" stroke="blue" stroke-width="2" />
<path d="M47,1215 L1692,1156" stroke="blue" stroke-width="2" />
<path d="M7095,43 L3633,471" stroke="blue" stroke-width="2" />
<path d="M7691,472 L8440,910" stroke="blue" stroke-width="2" />
<path d="M5056,1118 L7098,1462" stroke="blue" stroke-width="2" />
<path d="M2401,110 L6398,50" stroke="blue" stroke-width="2" />
<path d="M169,1197 L7571,684" stroke="blue" stroke-width="2" />
<path d="M1993,220 L929,65" stroke="blue" stroke-width="2" />
<path d="M5071,1442 L4826,135" stroke="blue" stroke-width="2" />
<path d="M8225,1121 L2846,582" stroke="blue" stroke-width="2" />
<path d="M6887,907 L3369,519" stroke="blue" stroke-width="2" />
<path d="M4750,1216 L5308,1161" stroke="blue" stroke-width="2" />
<path d="M8423,503 L6047,1341" stroke="blue" stroke-width="2" />
<path d="M705,561 L1270,186" stroke="blue" stroke-width="2" />
<path d="M5685,576 L3394,458" stroke="blue" stroke-width="2" />
<path d="M2739,904 L1696,1363" stroke="blue" stroke-width="2" />
<path d="M2918,256 L9540,936" stroke="blue" stroke-width="2" />
<path d="M8859,1366 L4631,432" stroke="blue" stroke-width="2" />
<path d="M3717,135 L6769,1239" stroke="blue" stroke-width="2" />
<path d="M762,300 L5037,635" stroke="blue" stroke-width="2" />
<path d="M5296,119 L4810,772" stroke="blue" stroke-width="2" />
<path d="M3895,882 L3906,832" stroke="blue" stroke-width="2" />
<path d="M8831,524 L791,764" stroke="blue" stroke-width="2" />
<path d="M3245,1442 L4602,127" stroke="blue" stroke-width="2" />
<path d="M5383,937 L6196,1098" stroke="blue" stroke-width="2" />
<path d="M7886,561 L4852,540" stroke="blue" stroke-width="2" />
<path d="M1320,1016 L8616,670" stroke="blue" stroke-width="2" />
<path d="M5005,1396 L1692,408" stroke="blue" stroke-width="2" />
<path d="M2805,538 L240,1176" stroke="blue" stroke-width="2" />
<path d="M9392,1151 L133,1328" stroke="blue" stroke-width="2" />
<path d="M6848,31 L3163,810" stroke="blue" stroke-width="2" />
<path d="M566,817 L4077,408" stroke="blue" stroke-width="2" />
<path d="M6294,1334 L9434,895" stroke="blue" stroke-width="2" />
<path d="M1005,692 L2586,20" stroke="blue" stroke-width="2" />
<path d="M5630,1109 L244,1464" stroke="blue" stroke-width="2" />
<path d="M5205,1195 L1770,927" stroke="blue" stroke-width="2" />
<path d="M9235,544 L4417,1429" stroke="blue" stroke-width="2" />
<path d="M8122,254 L8306,1519" stroke="blue" stroke-width="2" />
<path d="M9351,33 L7702,1069" stroke="blue" stroke-width="2" />
<path d="M9480,157 L6051,1076" stroke="blue" stroke-width="2" />
<path d="M9120,378 L7648,717" stroke="blue" stroke-width="2" />
<path d="M4224,997 L7664,1117" stroke="blue" stroke-width="2" />
<path d="M1412,784 L1074,882" stroke="blue" stroke-width="2" />
<path d="M4682,318 L5788,1005" stroke="blue" stroke-width="2" />
<path d="M8549,1172 L1729,1301" stroke="blue" stroke-width="2" />
<path d="M5357,632 L3292,169" stroke="blue" stroke-width="2" />
<path d="M8247,167 L8423,750" stroke="blue" stroke-width="2" />
<path d="M3834,247 L3817,1171" stroke="blue" stroke-width="2" />
<path d="M5553,645 L2229,262" stroke="blue" stroke-width="2" />
<path d="M6904,212 L9144,1016" stroke="blue" stroke-width="2" />
<path d="M525,1351 L6061,905" stroke="blue" stroke-width="2" />
<path d="M4031,1054 L3794,1339" stroke="blue" stroke-width="2" />
<path d="M7823,817 L5937,676" stroke="blue" stroke-width="2" />
<path d="M5262,481 L8056,143" stroke="blue" stroke-width="2" />
<path d="M1412,376 L139,1326" stroke="blue" stroke-width="2" />
<path d="M495,1011 L5366,237" stroke="blue" stroke-width="2" />
<path d="M4668,1282 L7583,205" stroke="blue" stroke-width="2" />
<path d="M6611,1136 L3913,275" stroke="blue" stroke-width="2" />
<path d="M4313,612 L7626,1107" stroke="blue" stroke-width="2" />
<path d="M4903,269 L7628,1100" stroke="blue" stroke-width="2" />
<path d="M2511,557 L6017,132" stroke="blue" stroke-width="2" />
<path d="M8270,1248 L4348,726" stroke="blue" stroke-width="2" />
<path d="M2329,1419 L755,1134" stroke="blue" stroke-width="2" />
<path d="M9220,1463 L6865,732" stroke="blue" stroke-width="2" />
<path d="M6717,37 L1585,1095" stroke="blue" stroke-width="2" />
<path d="M6828,1506 L3311,1358" stroke="blue" stroke-width="2" />
<path d="M6021,560 L7837,761" stroke="blue" stroke-width="2" />
<path d="M1662,18 L1237,319" stroke="blue" stroke-width="2" />
<path d="M1724,931 L8017,1080" stroke="blue" stroke-width="2" />
<path d="M398,1213 L86,532" stroke="blue" stroke-width="2" />
<path d="M5051,836 L4526,162" stroke="blue" stroke-width="2" />
<path d="M7392,1497 L4916,350" stroke="blue" stroke-width="2" />
<path d="M2590,1161 L3610,705" stroke="blue" stroke-width="2" />
<path d="M3081,1409 L2688,1257" stroke="blue" stroke-width="2" />
<path d="M3552,361 L732,995" stroke="blue" stroke-width="2" />
<path d="M3646,913 L5497,1409" stroke="blue" stroke-width="2" />
<path d="M9578,1103 L8122,565" stroke="blue" stroke-width="2" />
<path d="M4721,310 L9502,242" stroke="blue" stroke-width="2" />
<path d="M8504,1149 L8331,1109" stroke="blue" stroke-width="2" />
<path d="M491,1255 L443,1219" stroke="blue" stroke-width="2" />
<path d="M2670,588 L7390,83" stroke="blue" stroke-width="2" />
<path d="M5903,615 L7688,1000" stroke="blue" stroke-width="2" />
<path d="M4548,258 L4167,471" stroke="blue" stroke-width="2" />
<path d="M735,889 L4745,611" stroke="blue" stroke-width="2" />
<path d="M5659,137 L6574,723" stroke="blue" stroke-width="2" />
<path d="M9573,968 L2805,1042" stroke="blue" stroke-width="2" />
<path d="M8309,1091 L5455,819" stroke="blue" stroke-width="2" />
<path d="M2126,943 L497,1496" stroke="blue" stroke-width="2" />
<path d="M3658,698 L9147,352" stroke="blue" stroke-width="2" />
<path d="M3729,723 L9279,750" stroke="blue" stroke-width="2" />
<path d="M4458,1328 L4282,313" stroke="blue" stroke-width="2" />
<path d="M2918,546 L8102,736" stroke="blue" stroke-width="2" />
<path d="M5587,1001 L5822,1441" stroke="blue" stroke-width="2" />
<path d="M5393,273 L5953,475" stroke="blue" stroke-width="2" />
<path d="M4290,35 L2832,427" stroke="blue" stroke-width="2" />
<path d="M8610,997 L7106,1210" stroke="blue" stroke-width="2" />
<path d="M8225,363 L7775,1014" stroke="blue" stroke-width="2" />
<path d="M1917,592 L7803,818" stroke="blue" stroke-width="2" />
<path d="M5793,376 L4777,1311" stroke="blue" stroke-width="2" />
<path d="M4809,905 L3351,961" stroke="blue" stroke-width="2" />
<path d="M8008,993 L3511,772" stroke="blue" stroke-width="2" />
<path d="M4530,868 L7314,877" stroke="blue" stroke-width="2" />
<path d="M7573,609 L5994,1001" stroke="blue" stroke-width="2" />
<path d="M4255,581 L9120,557" stroke="blue" stroke-width="2" />
<path d="M9251,265 L5380,1346" stroke="blue" stroke-width="2" />
<path d="M5850,21 L8266,764" stroke="blue" stroke-width="2" />
<path d="M4740,543 L7687,1301" stroke="blue" stroke-width="2" />
<path d="M4864,378 L5974,1431" stroke="blue" stroke-width="2" />
<path d="M6673,1310 L7377,1103" stroke="blue" stroke-width="2" />
<path d="M6375,1499 L951,1080" stroke="blue" stroke-width="2" />
<path d="M4535,967 L6060,934" stroke="blue" stroke-width="2" />
<path d="M3771,170 L6922,1288" stroke="blue" stroke-width="2" />
<path d="M3233,1413 L6005,888" stroke="blue" stroke-width="2" />
<path d="M8225,317 L5287,1010" stroke="blue" stroke-width="2" />
<path d="M2500,40 L8575,1310" stroke="blue" stroke-width="2" />
<path d="M6117,222 L222,491" stroke="blue" stroke-width="2" />
<path d="M2197,65 L396,1159" stroke="blue" stroke-width="2" />
<path d="M3418,438 L848,235" stroke="blue" stroke-width="2" />
<path d="M8928,294 L185,1020" stroke="blue" stroke-width="2" />
<path d="M672,324 L1569,1351" stroke="blue" stroke-width="2" />
<path d="M2344,1122 L8760,195" stroke="blue" stroke-width="2" />
<path d="M6029,1436 L3021,303" stroke="blue" stroke-width="2" />
<path d="M8006,125 L7452,414" stroke="blue" stroke-width="2" />
<path d="M5788,756 L8779,423" stroke="blue" stroke-width="2" />
<path d="M2887,1119 L8116,1481" stroke="blue" stroke-width="2" />
<path d="M9080,1114 L1582,156" stroke="blue" stroke-width="2" />
<path d="M2333,325 L8285,750" stroke="blue" stroke-width="2" />
<path d="M6307,1232 L8844,863" stroke="blue" stroke-width="2" />
<path d="M7078,416 L3078,1058" stroke="blue" stroke-width="2" />
<path d="M4494,103 L5557,495" stroke="blue" stroke-width="2" />
<path d="M882,211 L9135,1228" stroke="blue" stroke-width="2" />
<path d="M4190,137 L9511,774" stroke="blue" stroke-width="2" />
<path d="M4743,188 L2886,264" stroke="blue" stroke-width="2" />
<path d="M3827,445 L8713,1463" stroke="blue" stroke-width="2" />
<path d="M6662,272 L1159,458" stroke="blue" stroke-width="2" />
<path d="M7871,1119 L3197,959" stroke="blue" stroke-width="2" />
<path d="M7042,75 L1836,65" stroke="blue" stroke-width="2" />
<path d="M2180,1098 L84,58" stroke="blue" stroke-width="2" />
<path d="M7146,655 L2505,285" stroke="blue" stroke-width="2" />
<path d="M77,1269 L1568,179" stroke="blue" stroke-width="2" />
<path d="M6271,687 L2567,1191" stroke="blue" stroke-width="2" />
<path d="M8632,372 L9210,951" stroke="blue" stroke-width="2" />
<path d="M206,1484 L6517,55" stroke="blue" stroke-width="2" />
<path d="M8512,722 L3116,271" stroke="blue" stroke-width="2" />
<path d="M1220,465 L1762,864" stroke="blue" stroke-width="2" />
<path d="M311,1177 L5123,917" stroke="blue" stroke-width="2" />
<path d="M8079,68 L370,456" stroke="blue" stroke-width="2" />
<path d="M9208,695 L5633,292" stroke="blue" stroke-width="2" />
<path d="M7689,46 L6962,1222" stroke="blue" stroke-width="2" />
<path d="M8978,642 L5263,1251" stroke="blue" stroke-width="2" />
<path d="M4741,1066 L9122,898" stroke="blue" stroke-width="2" />
<path d="M5063,603 L3866,113" stroke="blue" stroke-width="2" />
<path d="M5823,931 L2547,351" stroke="blue" stroke-width="2" />
<path d="M7219,1240 L7319,756" stroke="blue" stroke-width="2" />
<path d="M9574,1286 L2465,517" stroke="blue" stroke-width="2" />
<path d="M4642,419 L6844,810" stroke="blue" stroke-width="2" />
<path d="M9511,1237 L4300,1306" stroke="blue" stroke-width="2" />
<path d="M8888,95 L2723,960" stroke="blue" stroke-width="2" />
<path d="M5001,1319 L5067,622" stroke="blue" stroke-width="2" />
<path d="M8939,258 L6509,316" stroke="blue" stroke-width="2" />
<path d="M7857,40 L371,1426" stroke="blue" stroke-width="2" />
<path d="M3701,83 L2893,797" stroke="blue" stroke-width="2" />
<path d="M3730,481 L9482,1065" stroke="blue" stroke-width="2" />
<path d="M467,786 L5537,728" stroke="blue" stroke-width="2" />
<path d="M7366,1392 L6841,865" stroke="blue" stroke-width="2" />
<path d="M5388,1306 L6425,1518" stroke="blue" stroke-width="2" />
<path d="M3880,1177 L2938,588" stroke="blue" stroke-width="2" />
<path d="M5509,311 L8395,1280" stroke="blue" stroke-width="2" />
<path d="M6670,1485 L5691,1323" stroke="blue" stroke-width="2" />
<path d="M3099,57 L508,39" stroke="blue" stroke-width="2" />
<path d="M6607,286 L6656,1344" stroke="blue" stroke-width="2" />
<path d="M4831,733 L1681,122" stroke="blue" stroke-width="2" />
<path d="M5272,257 L2282,959" stroke="blue" stroke-width="2" />
<path d="M9027,1346 L4319,551" stroke="blue" stroke-width="2" />
<path d="M6250,980 L8269,428" stroke="blue" stroke-width="2" />
<path d="M2694,664 L6507,110" stroke="blue" stroke-width="2" />
<path d="M9587,581 L7534,781" stroke="blue" stroke-width="2" />
<path d="M2411,939 L7970,743" stroke="blue" stroke-width="2" />
<path d="M7659,603 L71,664" stroke="blue" stroke-width="2" />
<path d="M5371,31 L2888,609" stroke="blue" stroke-width="2" />
<path d="M6597,1156 L7751,42" stroke="blue" stroke-width="2" />
<path d="M6279,1135 L2589,782" stroke="blue" stroke-width="2" />
<path d="M4450,1081 L7127,777" stroke="blue" stroke-width="2" />
<path d="M8649,295 L8440,704" stroke="blue" stroke-width="2" />
<path d="M6540,206 L1626,1000" stroke="blue" stroke-width="2" />
<path d="M702,456 L2214,646" stroke="blue" stroke-width="2" />
<path d="M3215,1119 L4334,744" stroke="blue" stroke-width="2" />
<path d="M7492,292 L6537,548" stroke="blue" stroke-width="2" />
<path d="M8669,724 L8030,354" stroke="blue" stroke-width="2" />
<path d="M5856,354 L6784,349" stroke="blue" stroke-width="2" />
<path d="M4640,455 L5721,718" stroke="blue" stroke-width="2" />
<path d="M5331,766 L7889,98" stroke="blue" stroke-width="2" />
<path d="M6274,486 L2091,468" stroke="blue" stroke-width="2" />
<path d="M3146,804 L1133,1246" stroke="blue" stroke-width="2" />
<path d="M4002,582 L3756,973" stroke="blue" stroke-width="2" />
<path d="M2787,245 L5523,27" stroke="blue" stroke-width="2" />
<path d="M55,1060 L1392,30" stroke="blue" stroke-width="2" />
<path d="M3912,177 L7971,1145" stroke="blue" stroke-width="2" />
<path d="M9237,389 L8106,366" stroke="blue" stroke-width="2" />
<path d="M9027,235 L2850,2" stroke="blue" stroke-width="2" />
<path d="M4310,783 L456,690" stroke="blue" stroke-width="2" />
<path d="M9652,245 L7150,647" stroke="blue" stroke-width="2" />
<path d="M1444,1190 L7290,851" stroke="blue" stroke-width="2" />
<path d="M246,1280 L6723,629" stroke="blue" stroke-width="2" />
<path d="M4397,810 L9330,48" stroke="blue" stroke-width="2" />
<path d="M8728,736 L8139,1440" stroke="blue" stroke-width="2" />
<path d="M892,38 L7524,206" stroke="blue" stroke-width="2" />
<path d="M52,1422 L5640,539" stroke="blue" stroke-width="2" />
<path d="M9708,85 L9251,61" stroke="blue" stroke-width="2" />
<path d="M2602,572 L8502,122" stroke="blue" stroke-width="2" />
<path d="M2109,1157 L5859,1316" stroke="blue" stroke-width="2" />
<path d="M1866,1006 L1320,1524" stroke="blue" stroke-width="2" />
<path d="M561,987 L7482,335" stroke="blue" stroke-width="2" />
<path d="M7334,173 L6769,1259" stroke="blue" stroke-width="2" />
<path d="M7263,506 L3240,870" stroke="blue" stroke-width="2" />
<path d="M8166,713 L4847,1022" stroke="blue" stroke-width="2" />
<path d="M2695,1466 L6555,11" stroke="blue" stroke-width="2" />
<path d="M5736,347 L3855,863" stroke="blue" stroke-width="2" />
<path d="M2475,278 L2643,6" stroke="blue" stroke-width="2" />
<path d="M2465,563 L7952,1521" stroke="blue" stroke-width="2" />
<path d="M8659,1447 L5709,663" stroke="blue" stroke-width="2" />
<path d="M5079,1217 L7413,1525" stroke="blue" stroke-width="2" />
<path d="M4864,1328 L3541,1159" stroke="blue" stroke-width="2" />
<path d="M539,1461 L2748,1453" stroke="blue" stroke-width="2" />
<path d="M1841,263 L9060,1350" stroke="blue" stroke-width="2" />
<path d="M4211,253 L1375,831" stroke="blue" stroke-width="2" />
<path d="M1981,179 L6611,702" stroke="blue" stroke-width="2" />
<path d="M4230,521 L8428,503" stroke="blue" stroke-width="2" />
<path d="M1106,503 L364,789" stroke="blue" stroke-width="2" />
<path d="M421,288 L2561,299" stroke="blue" stroke-width="2" />
<path d="M7441,258 L825,1148" stroke="blue" stroke-width="2" />
<path d="M6404,1271 L2674,1165" stroke="blue" stroke-width="2" />
<path d="M7576,602 L45,217" stroke="blue" stroke-width="2" />
<path d="M2937,900 L2063,1075" stroke="blue" stroke-width="2" />
<path d="M6248,212 L2068,115" stroke="blue" stroke-width="2" />
<path d="M3113,1003 L2461,301" stroke="blue" stroke-width="2" />
<path d="M140,929 L6642,511" stroke="blue" stroke-width="2" />
<path d="M4221,328 L4934,1409" stroke="blue" stroke-width="2" />
<path d="M8460,1265 L7012,1072" stroke="blue" stroke-width="2" />
<path d="M2526,1221 L2260,1303" stroke="blue" stroke-width="2" />
<path d="M2082,1482 L1892,770" stroke="blue" stroke-width="2" />
<path d="M3414,1437 L9386,1023" stroke="blue" stroke-width="2" />
<path d="M8562,1066 L2890,660" stroke="blue" stroke-width="2" />
<path d="M7234,240 L5967,1146" stroke="blue" stroke-width="2" />
<path d="M2806,324 L6419,750" stroke="blue" stroke-width="2" />
<path d="M6521,826 L2942,187" stroke="blue" stroke-width="2" />
<path d="M7243,951 L8777,1206" stroke="blue" stroke-width="2" />
<path d="M4929,748 L7845,113" stroke="blue" stroke-width="2" />
<path d="M7467,518 L5769,476" stroke="blue" stroke-width="2" />
<path d="M3004,1151 L2207,819" stroke="blue" stroke-width="2" />
<path d="M5393,102 L7847,756" stroke="blue" stroke-width="2" />
<path d="M8835,761 L7751,79" stroke="blue" stroke-width="2" />
<path d="M444,1355 L7568,878" stroke="blue" stroke-width="2" />
<path d="M2109,857 L7745,1330" stroke="blue" stroke-width="2" />
<path d="M7330,330 L9554,1283" stroke="blue" stroke-width="2" />
<path d="M5843,1515 L8262,920" stroke="blue" stroke-width="2" />
<path d="M8992,1004 L1794,70" stroke="blue" stroke-width="2" />
<path d="M4086,1152 L7565,107" stroke="blue" stroke-width="2" />
<path d="M2610,571 L1513,735" stroke="blue" stroke-width="2" />
<path d="M810,606 L4564,187" stroke="blue" stroke-width="2" />
<path d="M4627,1507 L2808,1084" stroke="blue" stroke-width="2" />
<path d="M1702,1266 L4952,706" stroke="blue" stroke-width="2" />
<path d="M7945,1297 L4620,109" stroke="blue" stroke-width="2" />
<path d="M7133,1207 L4967,476" stroke="blue" stroke-width="2" />
<path d="M919,487 L1835,1454" stroke="blue" stroke-width="2" />
<path d="M7075,178 L5652,401" stroke="blue" stroke-width="2" />
<path d="M7586,209 L2631,399" stroke="blue" stroke-width="2" />
<path d="M9044,150 L7351,233" stroke="blue" stroke-width="2" />
<path d="M3267,861 L9397,1077" stroke="blue" stroke-width="2" />
<path d="M4242,153 L2784,136" stroke="blue" stroke-width="2" />
<path d="M2536,1265 L7265,695" stroke="blue" stroke-width="2" />
<path d="M4070,535 L4968,733" stroke="blue" stroke-width="2" />
<path d="M2519,1099 L8390,1365" stroke="blue" stroke-width="2" />
<path d="M5898,707 L2239,1392" stroke="blue" stroke-width="2" />
<path d="M8283,766 L5250,109" stroke="blue" stroke-width="2" />
<path d="M1044,753 L401,707" stroke="blue" stroke-width="2" />
<path d="M8682,1245 L1348,1140" stroke="blue" stroke-width="2" />
<path d="M6033,807 L5344,1199" stroke="blue" stroke-width="2" />
<path d="M6401,436 L3341,498" stroke="blue" stroke-width="2" />
<path d="M1693,1463 L2513,367" stroke="blue" stroke-width="2" />
<path d="M1307,662 L4470,414" stroke="blue" stroke-width="2" />
<path d="M7778,443 L9179,332" stroke="blue" stroke-width="2" />
<path d="M1518,1122 L3870,716" stroke="blue" stroke-width="2" />
<path d="M2995,996 L9467,947" stroke="blue" stroke-width="2" />
<path d="M2690,1101 L3385,232" stroke="blue" stroke-width="2" />
<path d="M6774,585 L6104,1029" stroke="blue" stroke-width="2" />
<path d="M6689,331 L6944,219" stroke="blue" stroke-width="2" />
<path d="M3199,141 L4521,1449" stroke="blue" stroke-width="2" />
<path d="M4802,1019 L3917,610" stroke="blue" stroke-width="2" />
<path d="M1602,1131 L3915,393" stroke="blue" stroke-width="2" />
<path d="M278,1156 L8275,743" stroke="blue" stroke-width="2" />
<path d="M8779,75 L6003,877" stroke="blue" stroke-width="2" />
<path d="M4286,241 L8484,1066" stroke="blue" stroke-width="2" />
<path d="M7664,1452 L5252,872" stroke="blue" stroke-width="2" />
<path d="M1760,1247 L4114,1522" stroke="blue" stroke-width="2" />
<path d="M2674,853 L7007,983" stroke="blue" stroke-width="2" />
<path d="M3517,246 L7063,1429" stroke="blue" stroke-width="2" />
<path d="M4369,779 L7861,563" stroke="blue" stroke-width="2" />
<path d="M8220,510 L1316,1080" stroke="blue" stroke-width="2" />
<path d="M9283,1243 L8794,1218" stroke="blue" stroke-width="2" />
<path d="M7621,669 L6810,331" stroke="blue" stroke-width="2" />
<path d="M2250,345 L4907,844" stroke="blue" stroke-width="2" />
<path d="M3515,903 L6256,442" stroke="blue" stroke-width="2" />
<path d="M7393,1358 L6611,497" stroke="blue" stroke-width="2" />
<path d="M8597,255 L3325,1288" stroke="blue" stroke-width="2" />
<path d="M4296,69 L603,1427" stroke="blue" stroke-width="2" />
<path d="M9077,1044 L5751,165" stroke="blue" stroke-width="2" />
<path d="M9296,1254 L4843,276" stroke="blue" stroke-width="2" />
<path d="M1494,967 L123,234" stroke="blue" stroke-width="2" />
<path d="M5590,26 L6710,1476" stroke="blue" stroke-width="2" />
<path d="M7774,1010 L8227,199" stroke="blue" stroke-width="2" />
<path d="M9326,236 L3027,619" stroke="blue" stroke-width="2" />
<path d="M3274,787 L6272,169" stroke="blue" stroke-width="2" />
<path d="M5431,122 L5359,847" stroke="blue" stroke-width="2" />
<path d="M6188,689 L1557,1392" stroke="blue" stroke-width="2" />
<path d="M7967,163 L3015,1197" stroke="blue" stroke-width="2" />
<path d="M4845,991 L2167,1198" stroke="blue" stroke-width="2" />
<path d="M2938,305 L7242,1209" stroke="blue" stroke-width="2" />
<path d="M1392,592 L1495,294" stroke="blue" stroke-width="2" />
<path d="M3907,322 L4874,966" stroke="blue" stroke-width="2" />
<path d="M6694,749 L9262,85" stroke="blue" stroke-width="2" />
<path d="M1415,1360 L1725,790" stroke="blue" stroke-width="2" />
<path d="M3689,743 L5632,1338" stroke="blue" stroke-width="2" />
<path d="M9259,747 L7076,431" stroke="blue" stroke-width="2" />
<path d="M2258,1121 L8189,289" stroke="blue" stroke-width="2" />
<path d="M2345,482 L6926,416" stroke="blue" stroke-width="2" />
<path d="M3620,701 L5259,494" stroke="blue" stroke-width="2" />
<path d="M5853,762 L3260,967" stroke="blue" stroke-width="2" />
<path d="M7328,1133 L935,1371" stroke="blue" stroke-width="2" />
<path d="M1305,1002 L9198,187" stroke="blue" stroke-width="2" />
<path d="M8385,244 L8781,776" stroke="blue" stroke-width="2" />
<path d="M8798,548 L4490,633" stroke="blue" stroke-width="2" />
<path d="M8187,1164 L2196,302" stroke="blue" stroke-width="2" />
<path d="M2610,992 L8451,1404" stroke="blue" stroke-width="2" />
<path d="M2812,1288 L2247,1157" stroke="blue" stroke-width="2" />
<path d="M8504,1446 L2763,1112" stroke="blue" stroke-width="2" />
<path d="M1768,727 L1958,444" stroke="blue" stroke-width="2" />
<path d="M1597,228 L4891,652" stroke="blue" stroke-width="2" />
<path d="M2788,506 L7253,12" stroke="blue" stroke-width="2" />
<path d="M7362,242 L3670,1130" stroke="blue" stroke-width="2" />
<path d="M6710,1225 L3336,979" stroke="blue" stroke-width="2" />
<path d="M7350,679 L5457,744" stroke="blue" stroke-width="2" />
<path d="M2571,116 L4976,290" stroke="blue" stroke-width="2" />
<path d="M8332,1062 L8183,271" stroke="blue" stroke-width="2" />
<path d="M9216,6 L1644,346" stroke="blue" stroke-width="2" />
<path d="M2280,176 L4406,1466" stroke="blue" stroke-width="2" />
<path d="M7402,490 L7224,1039" stroke="blue" stroke-width="2" />
<path d="M5088,439 L8329,427" stroke="blue" stroke-width="2" />
<path d="M5928,313 L2637,1498" stroke="blue" stroke-width="2" />
<path d="M9417,1007 L1418,983" stroke="blue" stroke-width="2" />
<path d="M8127,38 L1368,1225" stroke="blue" stroke-width="2" />
<path d="M1005,1023 L6234,1323" stroke="blue" stroke-width="2" />
<path d="M9080,1211 L9330,334" stroke="blue" stroke-width="2" />
<path d="M3140,304 L7132,1036" stroke="blue" stroke-width="2" />
<path d="M2186,629 L9154,663" stroke="blue" stroke-width="2" />
<path d="M7268,1279 L3460,964" stroke="blue" stroke-width="2" />
<path d="M5683,1465 L773,758" stroke="blue" stroke-width="2" />
<path d="M7711,969 L1759,500" stroke="blue" stroke-width="2" />
<path d="M3688,1081 L8755,53" stroke="blue" stroke-width="2" />
<path d="M8178,626 L8405,1212" stroke="blue" stroke-width="2" />
<path d="M7325,1299 L8853,1415" stroke="blue" stroke-width="2" />
<path d="M7184,598 L6003,128" stroke="blue" stroke-width="2" />
<path d="M7312,716 L7799,578" stroke="blue" stroke-width="2" />
<path d="M7168,443 L1004,444" stroke="blue" stroke-width="2" />
<path d="M3797,1079 L6769,211" stroke="blue" stroke-width="2" />
<path d="M7222,1393 L9680,701" stroke="blue" stroke-width="2" />
<path d="M4141,1411 L6883,382" stroke="blue" stroke-width="2" />
<path d="M7682,89 L8640,1358" stroke="blue" stroke-width="2" />
<path d="M7926,650 L1142,613" stroke="blue" stroke-width="2" />
<path d="M5926,784 L2046,77" stroke="blue" stroke-width="2" />
<path d="M6127,719 L2798,668" stroke="blue" stroke-width="2" />
<path d="M2773,1024 L3647,449" stroke="blue" stroke-width="2" />
<path d="M2929,635 L5557,391" stroke="blue" stroke-width="2" />
<path d="M7378,272 L8817,538" stroke="blue" stroke-width="2" />
<path d="M3048,961 L3046,217" stroke="blue" stroke-width="2" />
<path d="M4266,1416 L7487,939" stroke="blue" stroke-width="2" />
<path d="M9338,320 L5925,370" stroke="blue" stroke-width="2" />
<path d="M153,406 L3238,1271" stroke="blue" stroke-width="2" />
<path d="M5927,1036 L4935,48" stroke="blue" stroke-width="2" />
<path d="M8812,1476 L3336,1372" stroke="blue" stroke-width="2" />
<path d="M4285,675 L3569,1367" stroke="blue" stroke-width="2" />
<path d="M6554,898 L4459,921" stroke="blue" stroke-width="2" />
<path d="M7632,202 L5330,429" stroke="blue" stroke-width="2" />
<path d="M4377,339 L2062,35" stroke="blue" stroke-width="2" />
<path d="M8659,1443 L6372,7" stroke="blue" stroke-width="2" />
<path d="M1093,164 L8826,652" stroke="blue" stroke-width="2" />
<path d="M6026,746 L9312,51" stroke="blue" stroke-width="2" />
<path d="M4868,982 L1247,1495" stroke="blue" stroke-width="2" />
<path d="M7672,718 L4913,910" stroke="blue" stroke-width="2" />
<path d="M3647,1122 L4904,128" stroke="blue" stroke-width="2" />
<path d="M6429,923 L7900,356" stroke="blue" stroke-width="2" />
<path d="M5652,1178 L8852,476" stroke="blue" stroke-width="2" />
<path d="M8136,723 L4429,1490" stroke="blue" stroke-width="2" />
<path d="M9216,250 L1107,1187" stroke="blue" stroke-width="2" />
<path d="M2755,1045 L7597,356" stroke="blue" stroke-width="2" />
<path d="M7719,809 L2199,833" stroke="blue" stroke-width="2" />
<path d="M4633,1407 L350,1244" stroke="blue" stroke-width="2" />
<path d="M5144,1200 L405,433" stroke="blue" stroke-width="2" />
<path d="M3521,1183 L5220,749" stroke="blue" stroke-width="2" />
<path d="M275,200 L3092,632" stroke="blue" stroke-width="2" />
<path d="M9038,244 L9045,450" stroke="blue" stroke-width="2" />
<path d="M8206,1233 L6568,495" stroke="blue" stroke-width="2" />
<path d="M5228,430 L4916,265" stroke="blue" stroke-width="2" />
<path d="M2764,1280 L3976,835" stroke="blue" stroke-width="2" />
<path d="M1713,415 L8388,768" stroke="blue" stroke-width="2" />
<path d="M3025,1137 L8347,886" stroke="blue" stroke-width="2" />
<path d="M7479,254 L4113,698" stroke="blue" stroke-width="2" />
<path d="M9365,1449 L4994,202" stroke="blue" stroke-width="2" />
<path d="M682,1365 L1701,101" stroke="blue" stroke-width="2" />
<path d="M5733,864 L6713,101" stroke="blue" stroke-width="2" />
<path d="M9332,797 L1310,770" stroke="blue" stroke-width="2" />
<path d="M57,1424 L3305,1397" stroke="blue" stroke-width="2" />
<path d="M1212,1189 L7628,623" stroke="blue" stroke-width="2" />
<path d="M6708,1014 L866,1192" stroke="blue" stroke-width="2" />
<path d="M1448,489 L2330,1058" stroke="blue" stroke-width="2" />
<path d="M2210,1219 L4559,320" stroke="blue" stroke-width="2" />
<path d="M9050,606 L2074,1399" stroke="blue" stroke-width="2" />
<path d="M1174,523 L1649,453" stroke="blue" stroke-width="2" />
<path d="M1494,1372 L9170,385" stroke="blue" stroke-width="2" />
<path d="M5765,1363 L5435,550" stroke="blue" stroke-width="2" />
<path d="M8998,250 L213,289" stroke="blue" stroke-width="2" />
<path d="M8329,342 L4049,767" stroke="blue" stroke-width="2" />
<path d="M955,657 L6073,1438" stroke="blue" stroke-width="2" />
<path d="M3717,269 L95,1298" stroke="blue" stroke-width="2" />
<path d="M630,282 L3910,284" stroke="blue" stroke-width="2" />
<path d="M79,788 L3653,899" stroke="blue" stroke-width="2" />
<path d="M8680,941 L6467,1492" stroke="blue" stroke-width="2" />
<path d="M1086,681 L1286,1053" stroke="blue" stroke-width="2" />
<path d="M3037,1236 L1518,811" stroke="blue" stroke-width="2" />
<path d="M3042,167 L7561,736" stroke="blue" stroke-width="2" />
<path d="M1931,898 L7248,1388" stroke="blue" stroke-width="2" />
<path d="M8954,934 L6179,759" stroke="blue" stroke-width="2" />
<path d="M8245,533 L1377,941" stroke="blue" stroke-width="2" />
<path d="M9662,1008 L9700,917" stroke="blue" stroke-width="2" />
<path d="M7863,678 L6716,543" stroke="blue" stroke-width="2" />
<path d="M8132,1137 L5437,813" stroke="blue" stroke-width="2" />
<path d="M1278,1150 L8890,188" stroke="blue" stroke-width="2" />
<path d="M1031,307 L3946,636" stroke="blue" stroke-width="2" />
<path d="M7840,723 L9687,700" stroke="blue" stroke-width="2" />
<path d="M9111,375 L254,1188" stroke="blue" stroke-width="2" />
<path d="M3610,296 L5651,389" stroke="blue" stroke-width="2" />
<path d="M3505,235 L4385,220" stroke="blue" stroke-width="2" />
<path d="M9601,1265 L8758,1196" stroke="blue" stroke-width="2" />
<path d="M1739,727 L363,598" stroke="blue" stroke-width="2" />
<path d="M474,208 L2966,1071" stroke="blue" stroke-width="2" />
<path d="M7925,1011 L3712,1441" stroke="blue" stroke-width="2" />
<path d="M3433,543 L3565,98" stroke="blue" stroke-width="2" />
<path d="M31,1367 L7708,271" stroke="blue" stroke-width="2" />
<path d="M4872,720 L1216,38" stroke="blue" stroke-width="2" />
<path d="M3456,496 L3165,443" stroke="blue" stroke-width="2" />
<path d="M34,1228 L3190,788" stroke="blue" stroke-width="2" />
<path d="M1906,80 L8777,1519" stroke="blue" stroke-width="2" />
<path d="M2593,76 L5881,460" stroke="blue" stroke-width="2" />
<path d="M301,1076 L5405,278" stroke="blue" stroke-width="2" />
<path d="M4937,1180 L9605,934" stroke="blue" stroke-width="2" />
<path d="M2522,1462 L877,131" stroke="blue" stroke-width="2" />
<path d="M8707,639 L7564,39" stroke="blue" stroke-width="2" />
<path d="M4018,573 L3717,460" stroke="blue" stroke-width="2" />
<path d="M7639,706 L3184,1072" stroke="blue" stroke-width="2" />
<path d="M5639,1421 L1181,1203" stroke="blue" stroke-width="2" />
<path d="M1952,279 L3287,576" stroke="blue" stroke-width="2" />
<path d="M8698,1050 L5643,157" stroke="blue" stroke-width="2" />
<path d="M5012,1491 L2809,922" stroke="blue" stroke-width="2" />
<path d="M9031,271 L6268,409" stroke="blue" stroke-width="2" />
<path d="M7156,229 L5588,1101" stroke="blue" stroke-width="2" />
<path d="M1082,158 L2108,507" stroke="blue" stroke-width="2" />
<path d="M8186,531 L6974,1268" stroke="blue" stroke-width="2" />
<path d="M3561,250 L2838,118" stroke="blue" stroke-width="2" />
<path d="M4302,1521 L6448,286" stroke="blue" stroke-width="2" />
<path d="M6892,1021 L7339,574" stroke="blue" stroke-width="2" />
<path d="M5587,337 L8853,993" stroke="blue" stroke-width="2" />
<path d="M8834,593 L7652,585" stroke="blue" stroke-width="2" />
<path d="M5914,98 L1475,439" stroke="blue" stroke-width="2" />
<path d="M4694,1449 L3674,326" stroke="blue" stroke-width="2" />
<path d="M9582,266 L6409,1" stroke="blue" stroke-width="2" />
<path d="M3269,409 L5429,1373" stroke="blue" stroke-width="2" />
<path d="M7968,1451 L460,943" stroke="blue" stroke-width="2" />
<path d="M0,0 L9727,0" stroke="red" stroke-width="10" />
<path d="M9727,0 L9727,1527" stroke="red" stroke-width="10" />
<path d="M0,1527 L9727,1527" stroke="red" stroke-width="10" />
<path d="M0,1527 L0,0" stroke="red" stroke-width="10" />
</svg>