<?xml version="1.0" encoding="UTF-8"?>
<svg xmlns="http://www.w3.org/2000/svg" xmlns:xlink="http://www.w3.org/1999/xlink"
     width="10000" height="10000" viewBox="0 0 10000 10000">
<defs>
</defs>
<path d="M1290,2850 L3083,706" stroke="blue" stroke-width="2" />
<path d="M1092,8625 L1046,2662" stroke="blue" stroke-width="2" />
<path d="M1733,4986 L3116,4603" stroke="blue" stroke-width="2" />
<path d="M3448,7288 L3979,826" stroke="blue" stroke-width="2" />
<path d="M3190,3922 L2436,8372" stroke="blue" stroke-width="2" />
<path d="M2861,5804 L1223,8803" stroke="blue" stroke-width="2" />
<path d="M4074,2904 L1657,3365" stroke="blue" stroke-width="2" />
<path d="M3500,1985 L2378,7993" stroke="blue" stroke-width="2" />
<path d="M512,8693 L231,1429" stroke="blue" stroke-width="2" />
<path d="M2959,6020 L1972,3114" stroke="blue" stroke-width="2" />
<path d="M3692,2047 L1419,7946" stroke="blue" stroke-width="2" />
<path d="M3644,647 L2366,4137" stroke="blue" stroke-width="2" />
<path d="M917,5638 L2668,2088" stroke="blue" stroke-width="2" />
<path d="M2816,5171 L356,2087" stroke="blue" stroke-width="2" />
<path d="M783,841 L123,2615" stroke="blue" stroke-width="2" />
<path d="M2590,7589 L1872,6439" stroke="blue" stroke-width="2" />
<path d="M3073,428 L3101,1741" stroke="blue" stroke-width="2" />
<path d="M2330,2139 L1287,2105" stroke="blue" stroke-width="2" />
<path d="M2816,2340 L2340,4026" stroke="blue" stroke-width="2" />
<path d="M3211,6622 L2589,6013" stroke="blue" stroke-width="2" />
<path d="M711,8312 L2316,8185" stroke="blue" stroke-width="2" />
<path d="M1343,6255 L1470,8178" stroke="blue" stroke-width="2" />
<path d="M3196,6158 L3065,1943" stroke="blue" stroke-width="2" />
<path d="M3802,906 L2271,624" stroke="blue" stroke-width="2" />
<path d="M1462,7316 L3829,3511" stroke="blue" stroke-width="2" />
<path d="M2330,1057 L693,8335" stroke="blue" stroke-width="2" />
<path d="M448,5100 L1868,6680" stroke="blue" stroke-width="2" />
<path d="M2329,3792 L1798,6438" stroke="blue" stroke-width="2" />
<path d="M2721,7555 L2996,4415" stroke="blue" stroke-width="2" />
<path d="M3590,1460 L2116,5388" stroke="blue" stroke-width="2" />
<path d="M2394,467 L1226,4837" stroke="blue" stroke-width="2" />
<path d="M432,8180 L1753,7822" stroke="blue" stroke-width="2" />
<path d="M1924,8018 L1015,4171" stroke="blue" stroke-width="2" />
<path d="M2246,8606 L2543,5443" stroke="blue" stroke-width="2" />
<path d="M1052,4571 L943,7208" stroke="blue" stroke-width="2" />
<path d="M2481,8656 L525,4212" stroke="blue" stroke-width="2" />
<path d="M2109,6736 L918,3960" stroke="blue" stroke-width="2" />
<path d="M2752,3964 L1403,2715" stroke="blue" stroke-width="2" />
<path d="M3921,1630 L2597,185" stroke="blue" stroke-width="2" />
<path d="M3845,3605 L3243,2564" stroke="blue" stroke-width="2" />
<path d="M2175,688 L3398,1290" stroke="blue" stroke-width="2" />
<path d="M3301,3473 L1852,1196" stroke="blue" stroke-width="2" />
<path d="M1780,7668 L3959,6336" stroke="blue" stroke-width="2" />
<path d="M1713,6029 L2078,6067" stroke="blue" stroke-width="2" />
<path d="M3009,5545 L2373,5209" stroke="blue" stroke-width="2" />
<path d="M2845,840 L617,6481" stroke="blue" stroke-width="2" />
<path d="M2054,4792 L829,2268" stroke="blue" stroke-width="2" />
<path d="M690,7207 L2055,95" stroke="blue" stroke-width="2" />
<path d="M2984,766 L1792,6352" stroke="blue" stroke-width="2" />
<path d="M2806,1992 L2372,5916" stroke="blue" stroke-width="2" />
<path d="M3810,1936 L2468,4615" stroke="blue" stroke-width="2" />
<path d="M288,3126 L1362,5961" stroke="blue" stroke-width="2" />
<path d="M3140,6540 L1741,1709" stroke="blue" stroke-width="2" />
<path d="M3066,7144 L253,3891" stroke="blue" stroke-width="2" />
<path d="M1695,1940 L3177,7908" stroke="blue" stroke-width="2" />
<path d="M2234,7970 L3721,367" stroke="blue" stroke-width="2" />
<path d="M0,0 L4099,0" stroke="red" stroke-width="10" />
<path d="M4099,0 L4099,9223" stroke="red" stroke-width="10" />
<path d="M0,9223 L4099,9223" stroke="red" stroke-width="10" />
<path d="M0,9223 L0,0" stroke="red" stroke-width="10" />
</svg>