<?xml version="1.0" encoding="UTF-8"?>
<svg xmlns="http://www.w3.org/2000/svg" xmlns:xlink="http://www.w3.org/1999/xlink"
     width="10000" height="10000" viewBox="0 0 10000 10000">
<defs>
</defs>
<path d="M4921,1158 L262,752" stroke="blue" stroke-width="2" />
<path d="M2053,7820 L2254,5211" stroke="blue" stroke-width="2" />
<path d="M4961,3036 L4545,2376" stroke="blue" stroke-width="2" />
<path d="M919,5538 L2560,4249" stroke="blue" stroke-width="2" />
<path d="M2557,1371 L4831,2235" stroke="blue" stroke-width="2" />
<path d="M2675,6816 L5339,7194" stroke="blue" stroke-width="2" />
<path d="M4128,5808 L660,6628" stroke="blue" stroke-width="2" />
<path d="M3695,4544 L4193,549" stroke="blue" stroke-width="2" />
<path d="M4756,7253 L5546,7162" stroke="blue" stroke-width="2" />
<path d="M378,3852 L4474,3105" stroke="blue" stroke-width="2" />
<path d="M4632,6570 L2446,3617" stroke="blue" stroke-width="2" />
<path d="M5345,6942 L2263,427" stroke="blue" stroke-width="2" />
<path d="M5326,7902 L2597,5096" stroke="blue" stroke-width="2" />
<path d="M449,4138 L1371,5589" stroke="blue" stroke-width="2" />
<path d="M4719,5578 L1760,2892" stroke="blue" stroke-width="2" />
<path d="M976,3802 L2498,1478" stroke="blue" stroke-width="2" />
<path d="M4758,1186 L4186,3975" stroke="blue" stroke-width="2" />
<path d="M3233,4196 L5557,793" stroke="blue" stroke-width="2" />
<path d="M290,6298 L1316,3151" stroke="blue" stroke-width="2" />
<path d="M4921,2846 L4679,2030" stroke="blue" stroke-width="2" />
<path d="M3729,3050 L423,31" stroke="blue" stroke-width="2" />
<path d="M5620,1632 L1018,1832" stroke="blue" stroke-width="2" />
<path d="M1628,1620 L247,871" stroke="blue" stroke-width="2" />
<path d="M3346,4936 L2015,7925" stroke="blue" stroke-width="2" />
<path d="M4637,5764 L4821,8043" stroke="blue" stroke-width="2" />
<path d="M3287,3578 L2513,1196" stroke="blue" stroke-width="2" />
<path d="M1850,7072 L4268,375" stroke="blue" stroke-width="2" />
<path d="M1434,8229 L2125,3667" stroke="blue" stroke-width="2" />
<path d="M2604,1057 L2614,2027" stroke="blue" stroke-width="2" />
<path d="M2189,509 L953,1592" stroke="blue" stroke-width="2" />
<path d="M5219,1868 L2767,4007" stroke="blue" stroke-width="2" />
<path d="M4249,4783 L2963,3761" stroke="blue" stroke-width="2" />
<path d="M3396,3895 L4037,8073" stroke="blue" stroke-width="2" />
<path d="M3627,3164 L3204,2972" stroke="blue" stroke-width="2" />
<path d="M3624,7973 L4175,7548" stroke="blue" stroke-width="2" />
<path d="M5546,7564 L822,7434" stroke="blue" stroke-width="2" />
<path d="M5079,3131 L1158,4414" stroke="blue" stroke-width="2" />
<path d="M1388,3461 L4316,5678" stroke="blue" stroke-width="2" />
<path d="M4577,7327 L1542,2865" stroke="blue" stroke-width="2" />
<path d="M2417,5026 L1421,1448" stroke="blue" stroke-width="2" />
<path d="M268,8050 L4188,2983" stroke="blue" stroke-width="2" />
<path d="M2125,7345 L1966,5849" stroke="blue" stroke-width="2" />
<path d="M1877,7399 L4207,5764" stroke="blue" stroke-width="2" />
<path d="M893,7577 L5210,4359" stroke="blue" stroke-width="2" />
<path d="M411,1308 L1789,5738" stroke="blue" stroke-width="2" />
<path d="M3488,6772 L5094,986" stroke="blue" stroke-width="2" />
<path d="M3366,1429 L1331,5239" stroke="blue" stroke-width="2" />
<path d="M79,2059 L3101,1058" stroke="blue" stroke-width="2" />
<path d="M307,8237 L5242,6419" stroke="blue" stroke-width="2" />
<path d="M2594,3120 L3023,367" stroke="blue" stroke-width="2" />
<path d="M2505,6464 L1829,6651" stroke="blue" stroke-width="2" />
<path d="M4522,6833 L1080,5270" stroke="blue" stroke-width="2" />
<path d="M3568,4594 L981,877" stroke="blue" stroke-width="2" />
<path d="M5293,2571 L5217,135" stroke="blue" stroke-width="2" />
<path d="M5139,2348 L2038,5696" stroke="blue" stroke-width="2" />
<path d="M1896,7227 L5256,4267" stroke="blue" stroke-width="2" />
<path d="M5214,5757 L5270,2808" stroke="blue" stroke-width="2" />
<path d="M5142,4712 L374,2116" stroke="blue" stroke-width="2" />
<path d="M1632,1205 L1545,630" stroke="blue" stroke-width="2" />
<path d="M3832,626 L1014,676" stroke="blue" stroke-width="2" />
<path d="M776,570 L4727,1059" stroke="blue" stroke-width="2" />
<path d="M1691,1068 L4285,3870" stroke="blue" stroke-width="2" />
<path d="M2896,3411 L1360,32" stroke="blue" stroke-width="2" />
<path d="M4042,7870 L4528,7655" stroke="blue" stroke-width="2" />
<path d="M3118,5511 L3353,1656" stroke="blue" stroke-width="2" />
<path d="M4610,425 L1916,1787" stroke="blue" stroke-width="2" />
<path d="M1867,3441 L4348,8240" stroke="blue" stroke-width="2" />
<path d="M1705,6366 L1143,567" stroke="blue" stroke-width="2" />
<path d="M2529,1105 L4207,2771" stroke="blue" stroke-width="2" />
<path d="M1056,7711 L2131,6705" stroke="blue" stroke-width="2" />
<path d="M5423,1266 L574,6953" stroke="blue" stroke-width="2" />
<path d="M3547,7089 L2276,71" stroke="blue" stroke-width="2" />
<path d="M2957,2932 L511,1893" stroke="blue" stroke-width="2" />
<path d="M4125,1678 L2217,6577" stroke="blue" stroke-width="2" />
<path d="M697,5663 L3942,7795" stroke="blue" stroke-width="2" />
<path d="M5360,5168 L448,4246" stroke="blue" stroke-width="2" />
<path d="M3794,1212 L5064,3606" stroke="blue" stroke-width="2" />
<path d="M1636,5832 L2115,1683" stroke="blue" stroke-width="2" />
<path d="M3875,1767 L1608,474" stroke="blue" stroke-width="2" />
<path d="M4905,8102 L1013,7865" stroke="blue" stroke-width="2" />
<path d="M1519,5022 L4384,827" stroke="blue" stroke-width="2" />
<path d="M1407,4966 L4282,5626" stroke="blue" stroke-width="2" />
<path d="M4772,1357 L5419,3200" stroke="blue" stroke-width="2" />
<path d="M4572,5306 L3628,1212" stroke="blue" stroke-width="2" />
<path d="M5430,5305 L3139,594" stroke="blue" stroke-width="2" />
<path d="M4106,6865 L1825,5104" stroke="blue" stroke-width="2" />
<path d="M666,6532 L550,1732" stroke="blue" stroke-width="2" />
<path d="M2977,4949 L3898,919" stroke="blue" stroke-width="2" />
<path d="M3429,7315 L3152,4589" stroke="blue" stroke-width="2" />
<path d="M4806,5045 L3273,4901" stroke="blue" stroke-width="2" />
<path d="M194,5607 L3407,669" stroke="blue" stroke-width="2" />
<path d="M4910,4181 L4764,4373" stroke="blue" stroke-width="2" />
<path d="M4837,7795 L979,2092" stroke="blue" stroke-width="2" />
<path d="M192,13 L653,7209" stroke="blue" stroke-width="2" />
<path d="M1858,4549 L302,7618" stroke="blue" stroke-width="2" />
<path d="M661,8100 L3246,6676" stroke="blue" stroke-width="2" />
<path d="M5239,1250 L1083,3598" stroke="blue" stroke-width="2" />
<path d="M2072,2975 L974,5312" stroke="blue" stroke-width="2" />
<path d="M2649,941 L687,4898" stroke="blue" stroke-width="2" />
<path d="M5437,4610 L4051,2176" stroke="blue" stroke-width="2" />
<path d="M2073,702 L2623,5444" stroke="blue" stroke-width="2" />
<path d="M361,4360 L2731,7036" stroke="blue" stroke-width="2" />
<path d="M5098,5217 L572,3950" stroke="blue" stroke-width="2" />
<path d="M2711,3974 L2615,4150" stroke="blue" stroke-width="2" />
<path d="M1554,6320 L2904,7897" stroke="blue" stroke-width="2" />
<path d="M5691,4892 L4925,1480" stroke="blue" stroke-width="2" />
<path d="M711,5865 L593,7634" stroke="blue" stroke-width="2" />
<path d="M637,462 L1339,35" stroke="blue" stroke-width="2" />
<path d="M3100,5767 L3964,7839" stroke="blue" stroke-width="2" />
<path d="M30,6810 L5096,8093" stroke="blue" stroke-width="2" />
<path d="M4046,5679 L1169,2183" stroke="blue" stroke-width="2" />
<path d="M32,3066 L3794,517" stroke="blue" stroke-width="2" />
<path d="M4500,5020 L1220,1877" stroke="blue" stroke-width="2" />
<path d="M2885,7869 L2815,2689" stroke="blue" stroke-width="2" />
<path d="M2061,5994 L3657,3188" stroke="blue" stroke-width="2" />
<path d="M2552,1459 L3019,857" stroke="blue" stroke-width="2" />
<path d="M692,1054 L4303,8010" stroke="blue" stroke-width="2" />
<path d="M1553,5272 L1424,3022" stroke="blue" stroke-width="2" />
<path d="M4219,2073 L1443,99" stroke="blue" stroke-width="2" />
<path d="M5608,7721 L937,4091" stroke="blue" stroke-width="2" />
<path d="M5182,5311 L764,2827" stroke="blue" stroke-width="2" />
<path d="M3540,6874 L3439,4253" stroke="blue" stroke-width="2" />
<path d="M4161,1224 L5460,8041" stroke="blue" stroke-width="2" />
<path d="M4246,833 L5105,886" stroke="blue" stroke-width="2" />
<path d="M3463,5046 L2206,3853" stroke="blue" stroke-width="2" />
<path d="M3290,1347 L1178,8038" stroke="blue" stroke-width="2" />
<path d="M3282,1280 L5449,459" stroke="blue" stroke-width="2" />
<path d="M4474,7553 L3090,413" stroke="blue" stroke-width="2" />
<path d="M3129,2736 L2540,386" stroke="blue" stroke-width="2" />
<path d="M4211,3886 L2652,1981" stroke="blue" stroke-width="2" />
<path d="M4780,3537 L2873,4845" stroke="blue" stroke-width="2" />
<path d="M5425,505 L4072,1051" stroke="blue" stroke-width="2" />
<path d="M4376,7703 L4133,2799" stroke="blue" stroke-width="2" />
<path d="M771,6926 L4874,3474" stroke="blue" stroke-width="2" />
<path d="M2356,3651 L4805,7950" stroke="blue" stroke-width="2" />
<path d="M1692,3174 L2099,1434" stroke="blue" stroke-width="2" />
<path d="M863,2651 L3727,610" stroke="blue" stroke-width="2" />
<path d="M590,5557 L3869,7112" stroke="blue" stroke-width="2" />
<path d="M5032,1843 L3358,2124" stroke="blue" stroke-width="2" />
<path d="M488,4083 L4276,454" stroke="blue" stroke-width="2" />
<path d="M2147,2891 L4854,3169" stroke="blue" stroke-width="2" />
<path d="M2203,7440 L3685,4368" stroke="blue" stroke-width="2" />
<path d="M3502,5241 L1951,4628" stroke="blue" stroke-width="2" />
<path d="M781,4012 L4919,1843" stroke="blue" stroke-width="2" />
<path d="M248,1911 L985,4410" stroke="blue" stroke-width="2" />
<path d="M1191,7800 L4587,7274" stroke="blue" stroke-width="2" />
<path d="M2381,145 L4601,7730" stroke="blue" stroke-width="2" />
<path d="M2541,959 L2730,3964" stroke="blue" stroke-width="2" />
<path d="M2538,4825 L2806,2421" stroke="blue" stroke-width="2" />
<path d="M5662,7356 L2532,1292" stroke="blue" stroke-width="2" />
<path d="M498,6695 L1114,3959" stroke="blue" stroke-width="2" />
<path d="M916,2482 L5709,395" stroke="blue" stroke-width="2" />
<path d="M2331,3150 L4238,2777" stroke="blue" stroke-width="2" />
<path d="M857,5303 L2988,6902" stroke="blue" stroke-width="2" />
<path d="M2582,7337 L724,5522" stroke="blue" stroke-width="2" />
<path d="M2415,2239 L4440,2793" stroke="blue" stroke-width="2" />
<path d="M5123,3227 L2527,966" stroke="blue" stroke-width="2" />
<path d="M1594,624 L3468,2378" stroke="blue" stroke-width="2" />
<path d="M4091,4854 L4943,1" stroke="blue" stroke-width="2" />
<path d="M4795,4385 L4262,8155" stroke="blue" stroke-width="2" />
<path d="M578,3434 L4639,2618" stroke="blue" stroke-width="2" />
<path d="M1097,7274 L4977,7154" stroke="blue" stroke-width="2" />
<path d="M1314,5563 L529,4471" stroke="blue" stroke-width="2" />
<path d="M3814,52 L2517,7580" stroke="blue" stroke-width="2" />
<path d="M799,6797 L846,1982" stroke="blue" stroke-width="2" />
<path d="M1096,5633 L5217,6721" stroke="blue" stroke-width="2" />
<path d="M4633,5014 L4503,5855" stroke="blue" stroke-width="2" />
<path d="M5095,3943 L3810,3052" stroke="blue" stroke-width="2" />
<path d="M1750,6773 L5704,6533" stroke="blue" stroke-width="2" />
<path d="M2696,5858 L2661,6572" stroke="blue" stroke-width="2" />
<path d="M678,4324 L2240,3772" stroke="blue" stroke-width="2" />
<path d="M4289,1850 L1806,5216" stroke="blue" stroke-width="2" />
<path d="M755,5055 L2730,4089" stroke="blue" stroke-width="2" />
<path d="M426,3624 L1645,7326" stroke="blue" stroke-width="2" />
<path d="M2019,2202 L2351,2301" stroke="blue" stroke-width="2" />
<path d="M883,3575 L2788,4478" stroke="blue" stroke-width="2" />
<path d="M5697,6682 L4556,4746" stroke="blue" stroke-width="2" />
<path d="M336,7248 L4152,857" stroke="blue" stroke-width="2" />
<path d="M1332,7073 L2335,7892" stroke="blue" stroke-width="2" />
<path d="M1467,5008 L1729,6911" stroke="blue" stroke-width="2" />
<path d="M3161,3689 L569,6017" stroke="blue" stroke-width="2" />
<path d="M1810,6155 L179,4016" stroke="blue" stroke-width="2" />
<path d="M4182,375 L1945,7465" stroke="blue" stroke-width="2" />
<path d="M1916,6683 L864,96" stroke="blue" stroke-width="2" />
<path d="M3317,6419 L2600,6197" stroke="blue" stroke-width="2" />
<path d="M3254,1299 L4441,1134" stroke="blue" stroke-width="2" />
<path d="M3075,3859 L625,4088" stroke="blue" stroke-width="2" />
<path d="M5470,3076 L1420,7588" stroke="blue" stroke-width="2" />
<path d="M837,6726 L4899,4389" stroke="blue" stroke-width="2" />
<path d="M3768,1125 L5195,4057" stroke="blue" stroke-width="2" />
<path d="M4991,1233 L3494,3178" stroke="blue" stroke-width="2" />
<path d="M5290,6214 L2705,2876" stroke="blue" stroke-width="2" />
<path d="M5586,7715 L3014,7509" stroke="blue" stroke-width="2" />
<path d="M3988,5213 L3215,305" stroke="blue" stroke-width="2" />
<path d="M2592,1315 L5120,4342" stroke="blue" stroke-width="2" />
<path d="M961,2451 L3600,7049" stroke="blue" stroke-width="2" />
<path d="M2428,2937 L3363,2744" stroke="blue" stroke-width="2" />
<path d="M4151,2312 L690,1390" stroke="blue" stroke-width="2" />
<path d="M587,6383 L630,6200" stroke="blue" stroke-width="2" />
<path d="M975,5329 L3433,3436" stroke="blue" stroke-width="2" />
<path d="M2159,3224 L4932,6605" stroke="blue" stroke-width="2" />
<path d="M4793,3674 L1866,2260" stroke="blue" stroke-width="2" />
<path d="M2045,852 L5398,6195" stroke="blue" stroke-width="2" />
<path d="M812,4540 L4062,2725" stroke="blue" stroke-width="2" />
<path d="M3872,7940 L1719,6739" stroke="blue" stroke-width="2" />
<path d="M4074,8135 L5713,5685" stroke="blue" stroke-width="2" />
<path d="M5535,6016 L4483,892" stroke="blue" stroke-width="2" />
<path d="M4236,1968 L2420,5020" stroke="blue" stroke-width="2" />
<path d="M5070,2989 L526,7363" stroke="blue" stroke-width="2" />
<path d="M1311,7030 L5363,7828" stroke="blue" stroke-width="2" />
<path d="M4917,310 L588,4739" stroke="blue" stroke-width="2" />
<path d="M2903,5622 L1346,4882" stroke="blue" stroke-width="2" />
<path d="M5334,1018 L690,6515" stroke="blue" stroke-width="2" />
<path d="M3047,4170 L773,4922" stroke="blue" stroke-width="2" />
<path d="M1511,4227 L1937,4754" stroke="blue" stroke-width="2" />
<path d="M2542,3444 L1557,5691" stroke="blue" stroke-width="2" />
<path d="M3954,11 L3609,6294" stroke="blue" stroke-width="2" />
<path d="M129,7847 L3704,774" stroke="blue" stroke-width="2" />
<path d="M662,4738 L5566,5034" stroke="blue" stroke-width="2" />
<path d="M3301,5809 L4517,2553" stroke="blue" stroke-width="2" />
<path d="M304,3181 L1126,1191" stroke="blue" stroke-width="2" />
<path d="M5697,4303 L695,7634" stroke="blue" stroke-width="2" />
<path d="M4151,7822 L3744,6951" stroke="blue" stroke-width="2" />
<path d="M531,5814 L3667,7194" stroke="blue" stroke-width="2" />
<path d="M2678,1935 L370,16" stroke="blue" stroke-width="2" />
<path d="M4606,3446 L3889,2350" stroke="blue" stroke-width="2" />
<path d="M5741,3299 L3158,1088" stroke="blue" stroke-width="2" />
<path d="M3295,2633 L4206,4339" stroke="blue" stroke-width="2" />
<path d="M1515,1233 L1159,3631" stroke="blue" stroke-width="2" />
<path d="M2030,74 L5239,6706" stroke="blue" stroke-width="2" />
<path d="M2708,6302 L543,8039" stroke="blue" stroke-width="2" />
<path d="M928,7276 L4345,3026" stroke="blue" stroke-width="2" />
<path d="M4852,5949 L4696,869" stroke="blue" stroke-width="2" />
<path d="M442,7124 L2434,134" stroke="blue" stroke-width="2" />
<path d="M2673,3485 L5668,4598" stroke="blue" stroke-width="2" />
<path d="M3526,5624 L115,1887" stroke="blue" stroke-width="2" />
<path d="M4831,7045 L5083,5001" stroke="blue" stroke-width="2" />
<path d="M2596,3190 L1915,3567" stroke="blue" stroke-width="2" />
<path d="M1251,2765 L4744,6107" stroke="blue" stroke-width="2" />
<path d="M5300,324 L2321,2686" stroke="blue" stroke-width="2" />
<path d="M3267,1052 L4710,1350" stroke="blue" stroke-width="2" />
<path d="M4515,7931 L5027,4051" stroke="blue" stroke-width="2" />
<path d="M4910,3176 L4289,1666" stroke="blue" stroke-width="2" />
<path d="M5160,2831 L5601,7198" stroke="blue" stroke-width="2" />
<path d="M5565,5506 L91,2858" stroke="blue" stroke-width="2" />
<path d="M3126,1375 L1199,7662" stroke="blue" stroke-width="2" />
<path d="M916,3396 L770,7678" stroke="blue" stroke-width="2" />
<path d="M5638,5333 L1050,4355" stroke="blue" stroke-width="2" />
<path d="M1992,677 L4463,3540" stroke="blue" stroke-width="2" />
<path d="M5279,215 L2029,5412" stroke="blue" stroke-width="2" />
<path d="M1433,776 L2408,4327" stroke="blue" stroke-width="2" />
<path d="M2775,918 L5283,2219" stroke="blue" stroke-width="2" />
<path d="M1736,6804 L1563,8048" stroke="blue" stroke-width="2" />
<path d="M5133,3384 L1534,6292" stroke="blue" stroke-width="2" />
<path d="M1977,2874 L4354,7898" stroke="blue" stroke-width="2" />
<path d="M2673,1350 L5611,3162" stroke="blue" stroke-width="2" />
<path d="M53,4879 L4888,6785" stroke="blue" stroke-width="2" />
<path d="M2452,691 L1227,7639" stroke="blue" stroke-width="2" />
<path d="M3473,4678 L1478,5233" stroke="blue" stroke-width="2" />
<path d="M753,368 L4891,2581" stroke="blue" stroke-width="2" />
<path d="M3885,6264 L4576,8081" stroke="blue" stroke-width="2" />
<path d="M3490,6820 L3874,809" stroke="blue" stroke-width="2" />
<path d="M4672,6858 L1262,7835" stroke="blue" stroke-width="2" />
<path d="M927,3072 L3526,2344" stroke="blue" stroke-width="2" />
<path d="M4941,6506 L2417,5059" stroke="blue" stroke-width="2" />
<path d="M4728,3217 L257,7598" stroke="blue" stroke-width="2" />
<path d="M2301,1885 L2200,7070" stroke="blue" stroke-width="2" />
<path d="M0,4402 L5212,7329" stroke="blue" stroke-width="2" />
<path d="M1670,7236 L5582,4146" stroke="blue" stroke-width="2" />
<path d="M1829,6613 L3687,4221" stroke="blue" stroke-width="2" />
<path d="M4834,5216 L4155,5290" stroke="blue" stroke-width="2" />
<path d="M5693,5557 L3378,7620" stroke="blue" stroke-width="2" />
<path d="M2795,3649 L2924,7110" stroke="blue" stroke-width="2" />
<path d="M1595,1413 L1792,2408" stroke="blue" stroke-width="2" />
<path d="M2078,1597 L2959,7899" stroke="blue" stroke-width="2" />
<path d="M1221,847 L2501,4177" stroke="blue" stroke-width="2" />
<path d="M5627,6331 L4222,5551" stroke="blue" stroke-width="2" />
<path d="M4379,2185 L1781,7205" stroke="blue" stroke-width="2" />
<path d="M4902,2805 L3473,6560" stroke="blue" stroke-width="2" />
<path d="M1854,1699 L4733,6951" stroke="blue" stroke-width="2" />
<path d="M535,6123 L3548,6629" stroke="blue" stroke-width="2" />
<path d="M5148,5330 L0,7777" stroke="blue" stroke-width="2" />
<path d="M5313,2700 L2768,2181" stroke="blue" stroke-width="2" />
<path d="M3113,5044 L3787,5403" stroke="blue" stroke-width="2" />
<path d="M1413,144 L4195,7522" stroke="blue" stroke-width="2" />
<path d="M1516,3898 L1154,6689" stroke="blue" stroke-width="2" />
<path d="M2611,1653 L826,589" stroke="blue" stroke-width="2" />
<path d="M5022,2795 L5102,3826" stroke="blue" stroke-width="2" />
<path d="M3419,8237 L3755,3958" stroke="blue" stroke-width="2" />
<path d="M325,2138 L523,2801" stroke="blue" stroke-width="2" />
<path d="M3162,6688 L1760,5736" stroke="blue" stroke-width="2" />
<path d="M1300,678 L4461,6695" stroke="blue" stroke-width="2" />
<path d="M5424,6758 L606,8164" stroke="blue" stroke-width="2" />
<path d="M4833,2280 L3234,7200" stroke="blue" stroke-width="2" />
<path d="M1383,3401 L5420,7495" stroke="blue" stroke-width="2" />
<path d="M1305,6398 L4704,2152" stroke="blue" stroke-width="2" />
<path d="M909,7143 L5632,4706" stroke="blue" stroke-width="2" />
<path d="M1281,1660 L3722,7996" stroke="blue" stroke-width="2" />
<path d="M5032,2615 L5604,2456" stroke="blue" stroke-width="2" />
<path d="M4418,1626 L3824,8035" stroke="blue" stroke-width="2" />
<path d="M4802,6968 L3738,4442" stroke="blue" stroke-width="2" />
<path d="M5119,2930 L4991,6761" stroke="blue" stroke-width="2" />
<path d="M4130,6267 L3197,3305" stroke="blue" stroke-width="2" />
<path d="M1067,5504 L1252,3378" stroke="blue" stroke-width="2" />
<path d="M4025,7154 L3384,353" stroke="blue" stroke-width="2" />
<path d="M3524,6265 L4481,6902" stroke="blue" stroke-width="2" />
<path d="M4795,7539 L5557,2970" stroke="blue" stroke-width="2" />
<path d="M84,6759 L1351,8220" stroke="blue" stroke-width="2" />
<path d="M1924,1271 L1909,3743" stroke="blue" stroke-width="2" />
<path d="M2711,4745 L4829,6977" stroke="blue" stroke-width="2" />
<path d="M3586,3861 L5625,1122" stroke="blue" stroke-width="2" />
<path d="M3536,940 L3093,5957" stroke="blue" stroke-width="2" />
<path d="M251,6228 L1670,2265" stroke="blue" stroke-width="2" />
<path d="M985,2492 L1400,2621" stroke="blue" stroke-width="2" />
<path d="M1801,7813 L1868,7044" stroke="blue" stroke-width="2" />
<path d="M2523,5948 L382,2498" stroke="blue" stroke-width="2" />
<path d="M1626,8010 L1058,672" stroke="blue" stroke-width="2" />
<path d="M1778,5855 L1217,5757" stroke="blue" stroke-width="2" />
<path d="M4704,3888 L4392,6663" stroke="blue" stroke-width="2" />
<path d="M2191,1530 L3182,2826" stroke="blue" stroke-width="2" />
<path d="M239,2445 L5150,5420" stroke="blue" stroke-width="2" />
<path d="M1436,6780 L2837,6672" stroke="blue" stroke-width="2" />
<path d="M1201,3800 L5515,5616" stroke="blue" stroke-width="2" />
<path d="M2869,2764 L3086,1288" stroke="blue" stroke-width="2" />
<path d="M2578,3916 L793,7998" stroke="blue" stroke-width="2" />
<path d="M1120,2941 L584,1903" stroke="blue" stroke-width="2" />
<path d="M4614,3503 L3313,2720" stroke="blue" stroke-width="2" />
<path d="M3120,3739 L840,2084" stroke="blue" stroke-width="2" />
<path d="M808,6875 L5098,5473" stroke="blue" stroke-width="2" />
<path d="M3562,1074 L5619,3098" stroke="blue" stroke-width="2" />
<path d="M4364,3040 L3057,2903" stroke="blue" stroke-width="2" />
<path d="M4732,1543 L5388,1436" stroke="blue" stroke-width="2" />
<path d="M1726,4139 L376,160" stroke="blue" stroke-width="2" />
<path d="M2847,2326 L2275,2662" stroke="blue" stroke-width="2" />
<path d="M5266,2876 L3446,6157" stroke="blue" stroke-width="2" />
<path d="M550,197 L4659,6783" stroke="blue" stroke-width="2" />
<path d="M2399,6432 L2131,4123" stroke="blue" stroke-width="2" />
<path d="M1386,3622 L3089,2810" stroke="blue" stroke-width="2" />
<path d="M880,7251 L4602,2989" stroke="blue" stroke-width="2" />
<path d="M167,2383 L5073,1556" stroke="blue" stroke-width="2" />
<path d="M1184,6791 L5014,7210" stroke="blue" stroke-width="2" />
<path d="M2819,8234 L3373,2330" stroke="blue" stroke-width="2" />
<path d="M3333,4417 L923,4670" stroke="blue" stroke-width="2" />
<path d="M4806,3177 L4902,5188" stroke="blue" stroke-width="2" />
<path d="M5534,1834 L4166,792" stroke="blue" stroke-width="2" />
<path d="M2119,6181 L5674,1646" stroke="blue" stroke-width="2" />
<path d="M509,6442 L2979,447" stroke="blue" stroke-width="2" />
<path d="M3976,4217 L4751,5500" stroke="blue" stroke-width="2" />
<path d="M5061,3275 L3595,181" stroke="blue" stroke-width="2" />
<path d="M2775,2503 L3262,3708" stroke="blue" stroke-width="2" />
<path d="M694,6635 L2103,2336" stroke="blue" stroke-width="2" />
<path d="M4622,4460 L3768,347" stroke="blue" stroke-width="2" />
<path d="M5018,563 L1355,2368" stroke="blue" stroke-width="2" />
<path d="M473,5700 L2943,6579" stroke="blue" stroke-width="2" />
<path d="M5030,3389 L1704,5932" stroke="blue" stroke-width="2" />
<path d="M5314,2452 L1622,5277" stroke="blue" stroke-width="2" />
<path d="M5251,7893 L3069,3774" stroke="blue" stroke-width="2" />
<path d="M2955,7075 L2637,7261" stroke="blue" stroke-width="2" />
<path d="M5263,6335 L1339,2261" stroke="blue" stroke-width="2" />
<path d="M4323,47 L4333,7802" stroke="blue" stroke-width="2" />
<path d="M913,4186 L2786,346" stroke="blue" stroke-width="2" />
<path d="M5233,7418 L641,4754" stroke="blue" stroke-width="2" />
<path d="M5661,5546 L1768,4296" stroke="blue" stroke-width="2" />
<path d="M5145,2426 L2414,4539" stroke="blue" stroke-width="2" />
<path d="M125,6896 L1467,570" stroke="blue" stroke-width="2" />
<path d="M3284,8011 L4915,6447" stroke="blue" stroke-width="2" />
<path d="M584,6756 L3316,4823" stroke="blue" stroke-width="2" />
<path d="M325,7839 L895,2757" stroke="blue" stroke-width="2" />
<path d="M1912,4209 L1245,1366" stroke="blue" stroke-width="2" />
<path d="M3907,3846 L681,6019" stroke="blue" stroke-width="2" />
<path d="M1440,6226 L5571,4268" stroke="blue" stroke-width="2" />
<path d="M3118,4915 L3681,5645" stroke="blue" stroke-width="2" />
<path d="M345,4672 L5554,2270" stroke="blue" stroke-width="2" />
<path d="M1314,7499 L1133,284" stroke="blue" stroke-width="2" />
<path d="M662,2 L3352,1409" stroke="blue" stroke-width="2" />
<path d="M5406,6235 L3232,5846" stroke="blue" stroke-width="2" />
<path d="M5025,4778 L1245,454" stroke="blue" stroke-width="2" />
<path d="M401,7680 L5727,6323" stroke="blue" stroke-width="2" />
<path d="M1199,4799 L4499,5344" stroke="blue" stroke-width="2" />
<path d="M1071,6463 L2987,2109" stroke="blue" stroke-width="2" />
<path d="M3914,2653 L2976,1647" stroke="blue" stroke-width="2" />
<path d="M345,2665 L3230,239" stroke="blue" stroke-width="2" />
<path d="M1747,5127 L4516,4783" stroke="blue" stroke-width="2" />
<path d="M2944,3077 L2808,1817" stroke="blue" stroke-width="2" />
<path d="M5137,6945 L5646,95" stroke="blue" stroke-width="2" />
<path d="M4365,4594 L3666,8094" stroke="blue" stroke-width="2" />
<path d="M3825,3541 L4957,1534" stroke="blue" stroke-width="2" />
<path d="M4073,107 L5219,4424" stroke="blue" stroke-width="2" />
<path d="M5714,1624 L4066,4817" stroke="blue" stroke-width="2" />
<path d="M1975,1353 L2776,6997" stroke="blue" stroke-width="2" />
<path d="M5418,241 L2238,1975" stroke="blue" stroke-width="2" />
<path d="M889,110 L154,8157" stroke="blue" stroke-width="2" />
<path d="M3708,1950 L3559,1148" stroke="blue" stroke-width="2" />
<path d="M1753,5113 L5697,4851" stroke="blue" stroke-width="2" />
<path d="M1702,53 L3391,4490" stroke="blue" stroke-width="2" />
<path d="M1288,3201 L324,3653" stroke="blue" stroke-width="2" />
<path d="M2579,348 L5599,6" stroke="blue" stroke-width="2" />
<path d="M3985,5286 L2890,6411" stroke="blue" stroke-width="2" />
<path d="M786,4658 L682,229" stroke="blue" stroke-width="2" />
<path d="M4857,3283 L2570,5256" stroke="blue" stroke-width="2" />
<path d="M5647,5823 L4908,5119" stroke="blue" stroke-width="2" />
<path d="M1004,2432 L3448,6324" stroke="blue" stroke-width="2" />
<path d="M1838,5443 L4659,1523" stroke="blue" stroke-width="2" />
<path d="M364,5673 L5325,1086" stroke="blue" stroke-width="2" />
<path d="M668,4837 L5577,4639" stroke="blue" stroke-width="2" />
<path d="M5526,6018 L649,822" stroke="blue" stroke-width="2" />
<path d="M3213,6303 L5694,1818" stroke="blue" stroke-width="2" />
<path d="M1559,654 L4512,2866" stroke="blue" stroke-width="2" />
<path d="M468,41 L530,402" stroke="blue" stroke-width="2" />
<path d="M3137,3266 L349,5732" stroke="blue" stroke-width="2" />
<path d="M1257,8082 L2954,5202" stroke="blue" stroke-width="2" />
<path d="M2411,3253 L564,3812" stroke="blue" stroke-width="2" />
<path d="M3839,4106 L4426,5661" stroke="blue" stroke-width="2" />
<path d="M5089,1294 L582,1111" stroke="blue" stroke-width="2" />
<path d="M3532,4411 L1557,2143" stroke="blue" stroke-width="2" />
<path d="M256,1352 L4163,3684" stroke="blue" stroke-width="2" />
<path d="M1421,2925 L532,7494" stroke="blue" stroke-width="2" />
<path d="M4221,1150 L570,1366" stroke="blue" stroke-width="2" />
<path d="M3637,878 L3541,5582" stroke="blue" stroke-width="2" />
<path d="M5690,1940 L2819,8183" stroke="blue" stroke-width="2" />
<path d="M5515,1753 L1045,184" stroke="blue" stroke-width="2" />
<path d="M3437,6621 L4467,610" stroke="blue" stroke-width="2" />
<path d="M4564,6896 L2677,6084" stroke="blue" stroke-width="2" />
<path d="M3735,2073 L2811,5760" stroke="blue" stroke-width="2" />
<path d="M1533,6513 L2526,5977" stroke="blue" stroke-width="2" />
<path d="M948,8119 L4979,2895" stroke="blue" stroke-width="2" />
<path d="M4057,1985 L4193,2208" stroke="blue" stroke-width="2" />
<path d="M2023,5224 L2292,3550" stroke="blue" stroke-width="2" />
<path d="M3717,1176 L1210,2610" stroke="blue" stroke-width="2" />
<path d="M418,8187 L1802,4231" stroke="blue" stroke-width="2" />
<path d="M1684,19 L4304,5295" stroke="blue" stroke-width="2" />
<path d="M1303,4157 L5573,1786" stroke="blue" stroke-width="2" />
<path d="M2427,4250 L4321,4293" stroke="blue" stroke-width="2" />
<path d="M3018,8199 L4387,4757" stroke="blue" stroke-width="2" />
<path d="M5725,1370 L398,4774" stroke="blue" stroke-width="2" />
<path d="M2036,802 L2909,884" stroke="blue" stroke-width="2" />
<path d="M674,6156 L3921,294" stroke="blue" stroke-width="2" />
<path d="M4757,1990 L5098,6808" stroke="blue" stroke-width="2" />
<path d="M5592,420 L2740,7555" stroke="blue" stroke-width="2" />
<path d="M3381,3471 L5047,1027" stroke="blue" stroke-width="2" />
<path d="M2070,6937 L5165,6950" stroke="blue" stroke-width="2" />
<path d="M3389,8216 L4011,1650" stroke="blue" stroke-width="2" />
<path d="M464,561 L639,5306" stroke="blue" stroke-width="2" />
<path d="M5226,435 L4295,1411" stroke="blue" stroke-width="2" />
<path d="M1452,6174 L5476,6575" stroke="blue" stroke-width="2" />
<path d="M2654,8028 L297,4825" stroke="blue" stroke-width="2" />
<path d="M3890,5843 L3136,3365" stroke="blue" stroke-width="2" />
<path d="M864,5081 L3189,5455" stroke="blue" stroke-width="2" />
<path d="M1341,84 L2023,2622" stroke="blue" stroke-width="2" />
<path d="M1307,5770 L1114,8002" stroke="blue" stroke-width="2" />
<path d="M1291,3624 L1606,3478" stroke="blue" stroke-width="2" />
<path d="M3769,523 L4805,5805" stroke="blue" stroke-width="2" />
<path d="M2255,2273 L255,7373" stroke="blue" stroke-width="2" />
<path d="M162,7323 L743,4681" stroke="blue" stroke-width="2" />
<path d="M3169,4906 L3964,5740" stroke="blue" stroke-width="2" />
<path d="M4856,7829 L4082,4256" stroke="blue" stroke-width="2" />
<path d="M5510,1244 L1682,7074" stroke="blue" stroke-width="2" />
<path d="M5658,3383 L1550,6146" stroke="blue" stroke-width="2" />
<path d="M1206,6905 L2975,7953" stroke="blue" stroke-width="2" />
<path d="M1894,5851 L1678,7248" stroke="blue" stroke-width="2" />
<path d="M3184,1899 L2012,1624" stroke="blue" stroke-width="2" />
<path d="M1001,7189 L4058,4037" stroke="blue" stroke-width="2" />
<path d="M5071,4181 L5538,5635" stroke="blue" stroke-width="2" />
<path d="M68,4651 L1093,6712" stroke="blue" stroke-width="2" />
<path d="M1637,7489 L5683,7399" stroke="blue" stroke-width="2" />
<path d="M1434,1758 L386,3302" stroke="blue" stroke-width="2" />
<path d="M5649,3672 L3380,7624" stroke="blue" stroke-width="2" />
<path d="M1050,2872 L467,2041" stroke="blue" stroke-width="2" />
<path d="M2647,8192 L3924,3397" stroke="blue" stroke-width="2" />
<path d="M3242,1278 L672,1961" stroke="blue" stroke-width="2" />
<path d="M3079,5738 L1508,5514" stroke="blue" stroke-width="2" />
<path d="M3528,5933 L240,1670" stroke="blue" stroke-width="2" />
<path d="M5711,7527 L272,5328" stroke="blue" stroke-width="2" />
<path d="M708,6617 L5297,2286" stroke="blue" stroke-width="2" />
<path d="M142,1034 L3363,7595" stroke="blue" stroke-width="2" />
<path d="M3486,2796 L1541,3838" stroke="blue" stroke-width="2" />
<path d="M2391,7871 L3941,8126" stroke="blue" stroke-width="2" />
<path d="M1543,7354 L3931,6377" stroke="blue" stroke-width="2" />
<path d="M2905,7882 L3779,6387" stroke="blue" stroke-width="2" />
<path d="M1283,3018 L1994,4727" stroke="blue" stroke-width="2" />
<path d="M960,2648 L1817,878" stroke="blue" stroke-width="2" />
<path d="M5258,5666 L5288,2619" stroke="blue" stroke-width="2" />
<path d="M936,7230 L4816,733" stroke="blue" stroke-width="2" />
<path d="M4879,3013 L3143,5941" stroke="blue" stroke-width="2" />
<path d="M4743,6605 L3824,5835" stroke="blue" stroke-width="2" />
<path d="M4290,1388 L881,3487" stroke="blue" stroke-width="2" />
<path d="M3087,1419 L1200,2947" stroke="blue" stroke-width="2" />
<path d="M3581,2479 L3269,3783" stroke="blue" stroke-width="2" />
<path d="M2584,5178 L302,2907" stroke="blue" stroke-width="2" />
<path d="M4173,7213 L1080,684" stroke="blue" stroke-width="2" />
<path d="M1577,6860 L577,3961" stroke="blue" stroke-width="2" />
<path d="M2383,5988 L5038,3795" stroke="blue" stroke-width="2" />
<path d="M726,7134 L4726,7237" stroke="blue" stroke-width="2" />
<path d="M5206,4596 L2774,3074" stroke="blue" stroke-width="2" />
<path d="M209,3522 L616,4235" stroke="blue" stroke-width="2" />
<path d="M902,3620 L794,4098" stroke="blue" stroke-width="2" />
<path d="M2012,3174 L3690,2228" stroke="blue" stroke-width="2" />
<path d="M2797,2586 L5150,8033" stroke="blue" stroke-width="2" />
<path d="M1524,577 L2712,7920" stroke="blue" stroke-width="2" />
<path d="M4277,4810 L4553,4419" stroke="blue" stroke-width="2" />
<path d="M1754,3056 L3534,1990" stroke="blue" stroke-width="2" />
<path d="M4581,3935 L3891,6490" stroke="blue" stroke-width="2" />
<path d="M1747,4482 L1844,7377" stroke="blue" stroke-width="2" />
<path d="M1492,291 L5318,1203" stroke="blue" stroke-width="2" />
<path d="M511,3890 L5712,7494" stroke="blue" stroke-width="2" />
<path d="M4417,7122 L2025,2084" stroke="blue" stroke-width="2" />
<path d="M3907,8007 L4731,4800" stroke="blue" stroke-width="2" />
<path d="M2248,3705 L5732,4118" stroke="blue" stroke-width="2" />
<path d="M1877,7312 L892,7685" stroke="blue" stroke-width="2" />
<path d="M2267,423 L5672,6188" stroke="blue" stroke-width="2" />
<path d="M4885,3060 L603,3157" stroke="blue" stroke-width="2" />
<path d="M3200,7288 L1183,6448" stroke="blue" stroke-width="2" />
<path d="M2980,5322 L3333,576" stroke="blue" stroke-width="2" />
<path d="M3906,1586 L1112,6248" stroke="blue" stroke-width="2" />
<path d="M1422,5242 L3202,1040" stroke="blue" stroke-width="2" />
<path d="M5672,3777 L3185,4080" stroke="blue" stroke-width="2" />
<path d="M3695,3670 L1011,1689" stroke="blue" stroke-width="2" />
<path d="M3057,6105 L3081,6057" stroke="blue" stroke-width="2" />
<path d="M910,1485 L3534,5462" stroke="blue" stroke-width="2" />
<path d="M3010,4565 L1431,1843" stroke="blue" stroke-width="2" />
<path d="M3194,2534 L302,8032" stroke="blue" stroke-width="2" />
<path d="M2132,2375 L5533,2136" stroke="blue" stroke-width="2" />
<path d="M4074,5987 L1768,6723" stroke="blue" stroke-width="2" />
<path d="M3760,5903 L3375,3652" stroke="blue" stroke-width="2" />
<path d="M4464,5030 L3339,4430" stroke="blue" stroke-width="2" />
<path d="M4460,3409 L1120,1873" stroke="blue" stroke-width="2" />
<path d="M3102,7743 L4980,5734" stroke="blue" stroke-width="2" />
<path d="M494,679 L4582,6748" stroke="blue" stroke-width="2" />
<path d="M4560,135 L3819,8222" stroke="blue" stroke-width="2" />
<path d="M5641,39 L3831,1034" stroke="blue" stroke-width="2" />
<path d="M5043,1693 L1233,2463" stroke="blue" stroke-width="2" />
<path d="M1529,4611 L153,1859" stroke="blue" stroke-width="2" />
<path d="M4112,1908 L2327,1158" stroke="blue" stroke-width="2" />
<path d="M1112,7773 L4715,5316" stroke="blue" stroke-width="2" />
<path d="M891,5996 L3323,3193" stroke="blue" stroke-width="2" />
<path d="M1273,8181 L4602,1817" stroke="blue" stroke-width="2" />
<path d="M5011,6195 L4319,7234" stroke="blue" stroke-width="2" />
<path d="M2103,2683 L1924,2863" stroke="blue" stroke-width="2" />
<path d="M5267,421 L2336,4615" stroke="blue" stroke-width="2" />
<path d="M3209,1167 L2205,7010" stroke="blue" stroke-width="2" />
<path d="M4668,7784 L494,4589" stroke="blue" stroke-width="2" />
<path d="M400,7794 L1267,6381" stroke="blue" stroke-width="2" />
<path d="M4802,5790 L3789,1627" stroke="blue" stroke-width="2" />
<path d="M5432,509 L3462,2198" stroke="blue" stroke-width="2" />
<path d="M2874,6067 L1591,5268" stroke="blue" stroke-width="2" />
<path d="M3133,4559 L3756,4441" stroke="blue" stroke-width="2" />
<path d="M5590,231 L4617,1568" stroke="blue" stroke-width="2" />
<path d="M2779,4868 L3967,3187" stroke="blue" stroke-width="2" />
<path d="M5327,7358 L2109,612" stroke="blue" stroke-width="2" />
<path d="M3912,4588 L1937,2764" stroke="blue" stroke-width="2" />
<path d="M1193,106 L4817,5977" stroke="blue" stroke-width="2" />
<path d="M2792,7623 L2342,5378" stroke="blue" stroke-width="2" />
<path d="M759,5609 L736,3604" stroke="blue" stroke-width="2" />
<path d="M4259,5919 L1304,5274" stroke="blue" stroke-width="2" />
<path d="M2023,2279 L4276,3306" stroke="blue" stroke-width="2" />
<path d="M1681,1187 L806,7432" stroke="blue" stroke-width="2" />
<path d="M3403,1684 L2873,1970" stroke="blue" stroke-width="2" />
<path d="M5048,3422 L3643,3163" stroke="blue" stroke-width="2" />
<path d="M2175,1662 L3316,2465" stroke="blue" stroke-width="2" />
<path d="M3453,4502 L2432,4486" stroke="blue" stroke-width="2" />
<path d="M1248,3015 L3815,7892" stroke="blue" stroke-width="2" />
<path d="M1498,5229 L3714,4339" stroke="blue" stroke-width="2" />
<path d="M4897,3748 L3620,3430" stroke="blue" stroke-width="2" />
<path d="M4439,2346 L4084,3752" stroke="blue" stroke-width="2" />
<path d="M3046,8036 L4120,7173" stroke="blue" stroke-width="2" />
<path d="M2254,6524 L1929,1948" stroke="blue" stroke-width="2" />
<path d="M883,4737 L4502,1217" stroke="blue" stroke-width="2" />
<path d="M4866,7148 L4343,830" stroke="blue" stroke-width="2" />
<path d="M543,6375 L4882,1501" stroke="blue" stroke-width="2" />
<path d="M263,3534 L3580,4387" stroke="blue" stroke-width="2" />
<path d="M4330,778 L4842,5046" stroke="blue" stroke-width="2" />
<path d="M5433,3642 L4821,449" stroke="blue" stroke-width="2" />
<path d="M2462,7131 L1583,5850" stroke="blue" stroke-width="2" />
<path d="M4241,4651 L175,36" stroke="blue" stroke-width="2" />
<path d="M881,7332 L1939,97" stroke="blue" stroke-width="2" />
<path d="M3432,2992 L4005,4904" stroke="blue" stroke-width="2" />
<path d="M2835,1862 L3612,4170" stroke="blue" stroke-width="2" />
<path d="M4622,3010 L1001,5646" stroke="blue" stroke-width="2" />
<path d="M2715,3055 L1425,6019" stroke="blue" stroke-width="2" />
<path d="M3263,7744 L2171,1818" stroke="blue" stroke-width="2" />
<path d="M4810,153 L1505,8140" stroke="blue" stroke-width="2" />
<path d="M391,1990 L696,4483" stroke="blue" stroke-width="2" />
<path d="M5011,6734 L4848,4885" stroke="blue" stroke-width="2" />
<path d="M4432,3685 L3795,7712" stroke="blue" stroke-width="2" />
<path d="M4436,7904 L5405,2932" stroke="blue" stroke-width="2" />
<path d="M3245,4555 L1412,3711" stroke="blue" stroke-width="2" />
<path d="M4221,4122 L2305,933" stroke="blue" stroke-width="2" />
<path d="M4936,3440 L3629,172" stroke="blue" stroke-width="2" />
<path d="M4377,4037 L4288,2848" stroke="blue" stroke-width="2" />
<path d="M2098,4887 L4350,3558" stroke="blue" stroke-width="2" />
<path d="M5590,7530 L4565,1546" stroke="blue" stroke-width="2" />
<path d="M2576,5009 L1766,1982" stroke="blue" stroke-width="2" />
<path d="M5584,4531 L3763,3380" stroke="blue" stroke-width="2" />
<path d="M719,3008 L4076,7946" stroke="blue" stroke-width="2" />
<path d="M1948,6424 L1926,2872" stroke="blue" stroke-width="2" />
<path d="M3806,2309 L2053,6744" stroke="blue" stroke-width="2" />
<path d="M4951,6180 L4100,2656" stroke="blue" stroke-width="2" />
<path d="M3253,4689 L3260,6512" stroke="blue" stroke-width="2" />
<path d="M4320,2552 L2501,757" stroke="blue" stroke-width="2" />
<path d="M1985,3442 L794,3621" stroke="blue" stroke-width="2" />
<path d="M647,4495 L4667,2083" stroke="blue" stroke-width="2" />
<path d="M1669,3964 L5112,769" stroke="blue" stroke-width="2" />
<path d="M2868,6590 L1429,7130" stroke="blue" stroke-width="2" />
<path d="M2039,5002 L4902,457" stroke="blue" stroke-width="2" />
<path d="M5381,6764 L201,5372" stroke="blue" stroke-width="2" />
<path d="M1000,6974 L3847,8146" stroke="blue" stroke-width="2" />
<path d="M4159,3028 L4837,7202" stroke="blue" stroke-width="2" />
<path d="M1049,4173 L604,6336" stroke="blue" stroke-width="2" />
<path d="M2306,4276 L3209,7150" stroke="blue" stroke-width="2" />
<path d="M493,1391 L74,3805" stroke="blue" stroke-width="2" />
<path d="M4711,3337 L2774,7848" stroke="blue" stroke-width="2" />
<path d="M2761,5061 L4113,1674" stroke="blue" stroke-width="2" />
<path d="M5036,2384 L4503,3610" stroke="blue" stroke-width="2" />
<path d="M2135,3365 L538,123" stroke="blue" stroke-width="2" />
<path d="M3751,3384 L498,4466" stroke="blue" stroke-width="2" />
<path d="M5390,8015 L809,1951" stroke="blue" stroke-width="2" />
<path d="M5079,3659 L4848,3305" stroke="blue" stroke-width="2" />
<path d="M3209,5000 L475,6997" stroke="blue" stroke-width="2" />
<path d="M4818,7288 L4650,4261" stroke="blue" stroke-width="2" />
<path d="M3673,8 L5718,6488" stroke="blue" stroke-width="2" />
<path d="M2887,44 L2643,1216" stroke="blue" stroke-width="2" />
<path d="M2668,6960 L355,2127" stroke="blue" stroke-width="2" />
<path d="M3924,3313 L1918,6717" stroke="blue" stroke-width="2" />
<path d="M5081,6035 L3540,3159" stroke="blue" stroke-width="2" />
<path d="M3441,724 L4226,2566" stroke="blue" stroke-width="2" />
<path d="M1129,7712 L4126,3347" stroke="blue" stroke-width="2" />
<path d="M4703,4014 L802,3369" stroke="blue" stroke-width="2" />
<path d="M4471,1339 L2187,5522" stroke="blue" stroke-width="2" />
<path d="M3817,5753 L2060,6747" stroke="blue" stroke-width="2" />
<path d="M2871,7143 L507,3577" stroke="blue" stroke-width="2" />
<path d="M226,2474 L602,5742" stroke="blue" stroke-width="2" />
<path d="M4415,816 L1868,394" stroke="blue" stroke-width="2" />
<path d="M5041,5929 L1157,2716" stroke="blue" stroke-width="2" />
<path d="M4578,6076 L2855,5472" stroke="blue" stroke-width="2" />
<path d="M2606,1504 L2585,3940" stroke="blue" stroke-width="2" />
<path d="M3583,4733 L4200,7407" stroke="blue" stroke-width="2" />
<path d="M4060,6416 L5565,4443" stroke="blue" stroke-width="2" />
<path d="M769,521 L1637,7126" stroke="blue" stroke-width="2" />
<path d="M4385,1866 L2409,3888" stroke="blue" stroke-width="2" />
<path d="M4887,6933 L1033,7159" stroke="blue" stroke-width="2" />
<path d="M950,1724 L24,7687" stroke="blue" stroke-width="2" />
<path d="M2719,7274 L4254,6913" stroke="blue" stroke-width="2" />
<path d="M2083,426 L4757,3631" stroke="blue" stroke-width="2" />
<path d="M3042,5216 L1412,5184" stroke="blue" stroke-width="2" />
<path d="M504,6376 L2735,4398" stroke="blue" stroke-width="2" />
<path d="M4693,6718 L4758,4445" stroke="blue" stroke-width="2" />
<path d="M5333,2480 L2221,4459" stroke="blue" stroke-width="2" />
<path d="M2308,4809 L2499,4806" stroke="blue" stroke-width="2" />
<path d="M5390,5844 L2141,4156" stroke="blue" stroke-width="2" />
<path d="M604,7567 L524,6516" stroke="blue" stroke-width="2" />
<path d="M3098,4598 L899,263" stroke="blue" stroke-width="2" />
<path d="M626,4049 L2599,7899" stroke="blue" stroke-width="2" />
<path d="M2691,6762 L5491,306" stroke="blue" stroke-width="2" />
<path d="M1551,3448 L5632,3501" stroke="blue" stroke-width="2" />
<path d="M2090,3092 L906,484" stroke="blue" stroke-width="2" />
<path d="M3173,5483 L3106,2208" stroke="blue" stroke-width="2" />
<path d="M3038,3745 L5102,1604" stroke="blue" stroke-width="2" />
<path d="M4210,7307 L4283,4993" stroke="blue" stroke-width="2" />
<path d="M4480,2443 L4130,4410" stroke="blue" stroke-width="2" />
<path d="M3897,5450 L1871,6023" stroke="blue" stroke-width="2" />
<path d="M1357,4562 L1216,1597" stroke="blue" stroke-width="2" />
<path d="M4819,1774 L3682,2523" stroke="blue" stroke-width="2" />
<path d="M2410,4386 L5026,1503" stroke="blue" stroke-width="2" />
<path d="M1637,6986 L1954,6025" stroke="blue" stroke-width="2" />
<path d="M255,7545 L1074,494" stroke="blue" stroke-width="2" />
<path d="M5414,1837 L128,1237" stroke="blue" stroke-width="2" />
<path d="M5055,6543 L2234,257" stroke="blue" stroke-width="2" />
<path d="M3506,6820 L4449,5037" stroke="blue" stroke-width="2" />
<path d="M4686,5883 L3665,4904" stroke="blue" stroke-width="2" />
<path d="M4522,2401 L163,598" stroke="blue" stroke-width="2" />
<path d="M4461,7416 L4071,7565" stroke="blue" stroke-width="2" />
<path d="M1524,4540 L2995,1325" stroke="blue" stroke-width="2" />
<path d="M2760,508 L5705,3439" stroke="blue" stroke-width="2" />
<path d="M2458,6470 L1169,3117" stroke="blue" stroke-width="2" />
<path d="M4427,7053 L886,1769" stroke="blue" stroke-width="2" />
<path d="M3807,3485 L4229,7472" stroke="blue" stroke-width="2" />
<path d="M86,1469 L4730,6837" stroke="blue" stroke-width="2" />
<path d="M3849,7120 L5468,4019" stroke="blue" stroke-width="2" />
<path d="M3898,3895 L1840,4125" stroke="blue" stroke-width="2" />
<path d="M1046,6369 L4328,5859" stroke="blue" stroke-width="2" />
<path d="M697,5346 L5244,5680" stroke="blue" stroke-width="2" />
<path d="M176,3633 L423,7543" stroke="blue" stroke-width="2" />
<path d="M1306,6451 L3300,8132" stroke="blue" stroke-width="2" />
<path d="M1366,4397 L5206,6067" stroke="blue" stroke-width="2" />
<path d="M3405,7398 L2012,31" stroke="blue" stroke-width="2" />
<path d="M618,5892 L1196,2261" stroke="blue" stroke-width="2" />
<path d="M5330,4437 L1098,7114" stroke="blue" stroke-width="2" />
<path d="M1704,7686 L196,1287" stroke="blue" stroke-width="2" />
<path d="M4151,5206 L1405,5412" stroke="blue" stroke-width="2" />
<path d="M371,8189 L4049,4651" stroke="blue" stroke-width="2" />
<path d="M4046,6445 L2352,576" stroke="blue" stroke-width="2" />
<path d="M715,3795 L5694,1926" stroke="blue" stroke-width="2" />
<path d="M4810,567 L3775,5164" stroke="blue" stroke-width="2" />
<path d="M3209,6367 L103,5080" stroke="blue" stroke-width="2" />
<path d="M1136,1677 L2677,2758" stroke="blue" stroke-width="2" />
<path d="M3009,1059 L5130,482" stroke="blue" stroke-width="2" />
<path d="M2542,473 L3562,259" stroke="blue" stroke-width="2" />
<path d="M671,5902 L2522,6300" stroke="blue" stroke-width="2" />
<path d="M473,5511 L1236,5337" stroke="blue" stroke-width="2" />
<path d="M1655,4556 L1265,968" stroke="blue" stroke-width="2" />
<path d="M4387,1521 L4754,8215" stroke="blue" stroke-width="2" />
<path d="M2100,8126 L4187,5577" stroke="blue" stroke-width="2" />
<path d="M2240,2928 L130,4448" stroke="blue" stroke-width="2" />
<path d="M2791,4711 L2533,5962" stroke="blue" stroke-width="2" />
<path d="M4875,5153 L1982,96" stroke="blue" stroke-width="2" />
<path d="M3817,5179 L3110,1338" stroke="blue" stroke-width="2" />
<path d="M4396,7848 L2291,1323" stroke="blue" stroke-width="2" />
<path d="M1556,7417 L1994,2889" stroke="blue" stroke-width="2" />
<path d="M4343,7660 L5196,6828" stroke="blue" stroke-width="2" />
<path d="M448,1277 L400,949" stroke="blue" stroke-width="2" />
<path d="M3457,5364 L1231,6276" stroke="blue" stroke-width="2" />
<path d="M961,5548 L1453,7051" stroke="blue" stroke-width="2" />
<path d="M2846,7743 L4644,4297" stroke="blue" stroke-width="2" />
<path d="M420,882 L4834,2576" stroke="blue" stroke-width="2" />
<path d="M1593,5687 L4803,6780" stroke="blue" stroke-width="2" />
<path d="M1950,3661 L691,3869" stroke="blue" stroke-width="2" />
<path d="M4538,4390 L4545,562" stroke="blue" stroke-width="2" />
<path d="M1146,7030 L3283,4830" stroke="blue" stroke-width="2" />
<path d="M4522,1286 L4682,4351" stroke="blue" stroke-width="2" />
<path d="M481,6194 L3188,1258" stroke="blue" stroke-width="2" />
<path d="M1333,5251 L4518,1459" stroke="blue" stroke-width="2" />
<path d="M0,0 L5744,0" stroke="red" stroke-width="10" />
<path d="M5744,0 L5744,8266" stroke="red" stroke-width="10" />
<path d="M0,8266 L5744,8266" stroke="red" stroke-width="10" />
<path d="M0,8266 L0,0" stroke="red" stroke-width="10" />
</svg>