<?xml version="1.0" encoding="UTF-8"?>
<svg xmlns="http://www.w3.org/2000/svg" xmlns:xlink="http://www.w3.org/1999/xlink"
     width="10000" height="10000" viewBox="0 0 10000 10000">
<defs>
</defs>
<path d="M4087,639 L3518,1201" stroke="blue" stroke-width="2" />
<path d="M2546,1325 L9490,410" stroke="blue" stroke-width="2" />
<path d="M3216,70 L5438,658" stroke="blue" stroke-width="2" />
<path d="M6249,1353 L3012,657" stroke="blue" stroke-width="2" />
<path d="M7028,989 L5530,704" stroke="blue" stroke-width="2" />
<path d="M296,1307 L2991,382" stroke="blue" stroke-width="2" />
<path d="M5981,841 L5961,25" stroke="blue" stroke-width="2" />
<path d="M2142,538 L1395,576" stroke="blue" stroke-width="2" />
<path d="M1198,404 L5247,763" stroke="blue" stroke-width="2" />
<path d="M1323,1173 L2623,739" stroke="blue" stroke-width="2" />
<path d="M7112,11 L8225,298" stroke="blue" stroke-width="2" />
<path d="M2539,540 L4604,1431" stroke="blue" stroke-width="2" />
<path d="M6819,969 L2252,741" stroke="blue" stroke-width="2" />
<path d="M3314,416 L4652,197" stroke="blue" stroke-width="2" />
<path d="M4949,873 L1910,1005" stroke="blue" stroke-width="2" />
<path d="M4531,549 L5779,676" stroke="blue" stroke-width="2" />
<path d="M523,947 L7666,1467" stroke="blue" stroke-width="2" />
<path d="M1243,1528 L7251,146" stroke="blue" stroke-width="2" />
<path d="M9334,768 L900,1175" stroke="blue" stroke-width="2" />
<path d="M3900,662 L9311,341" stroke="blue" stroke-width="2" />
<path d="M2612,274 L3569,47" stroke="blue" stroke-width="2" />
<path d="M1604,573 L785,396" stroke="blue" stroke-width="2" />
<path d="M8593,1259 L7831,569" stroke="blue" stroke-width="2" />
<path d="M5758,1094 L1569,1555" stroke="blue" stroke-width="2" />
<path d="M691,1138 L1476,1131" stroke="blue" stroke-width="2" />
<path d="M1973,101 L3311,1274" stroke="blue" stroke-width="2" />
<path d="M4328,810 L6670,1089" stroke="blue" stroke-width="2" />
<path d="M8437,504 L2572,1374" stroke="blue" stroke-width="2" />
<path d="M9379,1200 L2012,774" stroke="blue" stroke-width="2" />
<path d="M967,1034 L6273,954" stroke="blue" stroke-width="2" />
<path d="M8504,1440 L5535,1240" stroke="blue" stroke-width="2" />
<path d="M6955,163 L1029,73" stroke="blue" stroke-width="2" />
<path d="M4689,1558 L2779,519" stroke="blue" stroke-width="2" />
<path d="M5835,368 L5569,1442" stroke="blue" stroke-width="2" />
<path d="M1796,1242 L2149,239" stroke="blue" stroke-width="2" />
<path d="M96,288 L1415,703" stroke="blue" stroke-width="2" />
<path d="M7900,783 L8647,1233" stroke="blue" stroke-width="2" />
<path d="M4430,1244 L4564,679" stroke="blue" stroke-width="2" />
<path d="M6685,1279 L1352,1532" stroke="blue" stroke-width="2" />
<path d="M8620,201 L8511,228" stroke="blue" stroke-width="2" />
<path d="M8509,447 L4969,889" stroke="blue" stroke-width="2" />
<path d="M6828,387 L8360,1525" stroke="blue" stroke-width="2" />
<path d="M9033,950 L549,0" stroke="blue" stroke-width="2" />
<path d="M5566,429 L4372,1549" stroke="blue" stroke-width="2" />
<path d="M4229,1067 L18,253" stroke="blue" stroke-width="2" />
<path d="M8825,39 L522,361" stroke="blue" stroke-width="2" />
<path d="M3486,1475 L741,872" stroke="blue" stroke-width="2" />
<path d="M6398,750 L121,936" stroke="blue" stroke-width="2" />
<path d="M2801,731 L2047,277" stroke="blue" stroke-width="2" />
<path d="M7319,1133 L2398,1091" stroke="blue" stroke-width="2" />
<path d="M2629,930 L1896,620" stroke="blue" stroke-width="2" />
<path d="M8195,1418 L8743,1275" stroke="blue" stroke-width="2" />
<path d="M6329,45 L3527,943" stroke="blue" stroke-width="2" />
<path d="M6171,1049 L3084,751" stroke="blue" stroke-width="2" />
<path d="M7343,309 L8338,845" stroke="blue" stroke-width="2" />
<path d="M6117,824 L413,221" stroke="blue" stroke-width="2" />
<path d="M749,804 L7430,457" stroke="blue" stroke-width="2" />
<path d="M8284,1110 L2485,588" stroke="blue" stroke-width="2" />
<path d="M3096,2 L9469,133" stroke="blue" stroke-width="2" />
<path d="M3488,839 L7350,660" stroke="blue" stroke-width="2" />
<path d="M4840,1469 L1346,169" stroke="blue" stroke-width="2" />
<path d="M2307,227 L8552,1092" stroke="blue" stroke-width="2" />
<path d="M4649,1208 L7488,1524" stroke="blue" stroke-width="2" />
<path d="M6945,876 L7618,123" stroke="blue" stroke-width="2" />
<path d="M5104,609 L5367,1152" stroke="blue" stroke-width="2" />
<path d="M6815,870 L129,120" stroke="blue" stroke-width="2" />
<path d="M1738,99 L1817,565" stroke="blue" stroke-width="2" />
<path d="M4358,1376 L2813,1194" stroke="blue" stroke-width="2" />
<path d="M9043,952 L6330,153" stroke="blue" stroke-width="2" />
<path d="M8508,1120 L5033,210" stroke="blue" stroke-width="2" />
<path d="M9182,83 L8113,158" stroke="blue" stroke-width="2" />
<path d="M3702,156 L4049,1138" stroke="blue" stroke-width="2" />
<path d="M909,109 L1457,901" stroke="blue" stroke-width="2" />
<path d="M2122,201 L3389,1462" stroke="blue" stroke-width="2" />
<path d="M1456,221 L4713,927" stroke="blue" stroke-width="2" />
<path d="M2876,1029 L7216,965" stroke="blue" stroke-width="2" />
<path d="M3875,559 L6092,370" stroke="blue" stroke-width="2" />
<path d="M2267,759 L5408,1088" stroke="blue" stroke-width="2" />
<path d="M2981,507 L2669,712" stroke="blue" stroke-width="2" />
<path d="M2410,528 L3585,879" stroke="blue" stroke-width="2" />
<path d="M1870,1100 L3387,1522" stroke="blue" stroke-width="2" />
<path d="M3674,1110 L2803,447" stroke="blue" stroke-width="2" />
<path d="M2040,1357 L3990,561" stroke="blue" stroke-width="2" />
<path d="M4381,1480 L4653,377" stroke="blue" stroke-width="2" />
<path d="M5850,687 L7272,680" stroke="blue" stroke-width="2" />
<path d="M8713,910 L7003,1254" stroke="blue" stroke-width="2" />
<path d="M6252,1103 L8592,790" stroke="blue" stroke-width="2" />
<path d="M7067,1075 L5865,942" stroke="blue" stroke-width="2" />
<path d="M5524,907 L5548,169" stroke="blue" stroke-width="2" />
<path d="M9559,1440 L3943,1290" stroke="blue" stroke-width="2" />
<path d="M2497,102 L3278,1233" stroke="blue" stroke-width="2" />
<path d="M3495,1264 L2635,209" stroke="blue" stroke-width="2" />
<path d="M9263,1330 L3182,703" stroke="blue" stroke-width="2" />
<path d="M7993,955 L1706,422" stroke="blue" stroke-width="2" />
<path d="M1378,1398 L4029,843" stroke="blue" stroke-width="2" />
<path d="M8265,264 L5036,326" stroke="blue" stroke-width="2" />
<path d="M99,1032 L4438,1288" stroke="blue" stroke-width="2" />
<path d="M6887,763 L1626,851" stroke="blue" stroke-width="2" />
<path d="M5876,808 L779,960" stroke="blue" stroke-width="2" />
<path d="M1182,435 L4183,1507" stroke="blue" stroke-width="2" />
<path d="M7624,558 L9284,949" stroke="blue" stroke-width="2" />
<path d="M6770,1374 L4155,1106" stroke="blue" stroke-width="2" />
<path d="M6274,900 L8122,1350" stroke="blue" stroke-width="2" />
<path d="M9238,423 L7425,284" stroke="blue" stroke-width="2" />
<path d="M1251,252 L6192,1188" stroke="blue" stroke-width="2" />
<path d="M4189,1540 L7956,259" stroke="blue" stroke-width="2" />
<path d="M2511,1172 L737,680" stroke="blue" stroke-width="2" />
<path d="M5806,837 L7195,1318" stroke="blue" stroke-width="2" />
<path d="M7962,55 L5662,32" stroke="blue" stroke-width="2" />
<path d="M3052,1413 L4676,217" stroke="blue" stroke-width="2" />
<path d="M2807,726 L7546,1465" stroke="blue" stroke-width="2" />
<path d="M198,706 L5377,1537" stroke="blue" stroke-width="2" />
<path d="M3033,792 L2104,605" stroke="blue" stroke-width="2" />
<path d="M9512,1322 L7570,902" stroke="blue" stroke-width="2" />
<path d="M5953,1411 L6384,613" stroke="blue" stroke-width="2" />
<path d="M3406,1537 L5339,1010" stroke="blue" stroke-width="2" />
<path d="M9168,1460 L1936,368" stroke="blue" stroke-width="2" />
<path d="M773,924 L7474,930" stroke="blue" stroke-width="2" />
<path d="M3572,985 L979,1165" stroke="blue" stroke-width="2" />
<path d="M5645,625 L6009,528" stroke="blue" stroke-width="2" />
<path d="M4123,763 L850,91" stroke="blue" stroke-width="2" />
<path d="M4758,813 L8760,1496" stroke="blue" stroke-width="2" />
<path d="M2047,1383 L4959,592" stroke="blue" stroke-width="2" />
<path d="M5034,718 L4265,692" stroke="blue" stroke-width="2" />
<path d="M8816,1341 L3374,273" stroke="blue" stroke-width="2" />
<path d="M7726,129 L5216,1213" stroke="blue" stroke-width="2" />
<path d="M684,713 L7627,665" stroke="blue" stroke-width="2" />
<path d="M257,386 L5912,89" stroke="blue" stroke-width="2" />
<path d="M804,992 L1971,1030" stroke="blue" stroke-width="2" />
<path d="M2335,100 L6396,548" stroke="blue" stroke-width="2" />
<path d="M5882,162 L245,738" stroke="blue" stroke-width="2" />
<path d="M1445,123 L7765,997" stroke="blue" stroke-width="2" />
<path d="M7767,1272 L4653,839" stroke="blue" stroke-width="2" />
<path d="M4664,1187 L2416,744" stroke="blue" stroke-width="2" />
<path d="M330,1511 L7849,973" stroke="blue" stroke-width="2" />
<path d="M4127,301 L1733,1265" stroke="blue" stroke-width="2" />
<path d="M137,1526 L6917,1107" stroke="blue" stroke-width="2" />
<path d="M9149,1041 L4836,545" stroke="blue" stroke-width="2" />
<path d="M1097,410 L4903,1104" stroke="blue" stroke-width="2" />
<path d="M6489,124 L2442,1143" stroke="blue" stroke-width="2" />
<path d="M6216,811 L4886,1127" stroke="blue" stroke-width="2" />
<path d="M5647,1425 L5976,118" stroke="blue" stroke-width="2" />
<path d="M3128,1078 L1562,75" stroke="blue" stroke-width="2" />
<path d="M9011,1192 L3941,14" stroke="blue" stroke-width="2" />
<path d="M1297,778 L2118,1137" stroke="blue" stroke-width="2" />
<path d="M7250,42 L6129,867" stroke="blue" stroke-width="2" />
<path d="M8539,147 L886,87" stroke="blue" stroke-width="2" />
<path d="M1883,1135 L5072,394" stroke="blue" stroke-width="2" />
<path d="M7189,1463 L4682,983" stroke="blue" stroke-width="2" />
<path d="M8996,382 L2528,1208" stroke="blue" stroke-width="2" />
<path d="M4615,1271 L4347,272" stroke="blue" stroke-width="2" />
<path d="M4549,1144 L5600,385" stroke="blue" stroke-width="2" />
<path d="M8047,207 L969,784" stroke="blue" stroke-width="2" />
<path d="M945,351 L8223,317" stroke="blue" stroke-width="2" />
<path d="M9523,709 L757,1326" stroke="blue" stroke-width="2" />
<path d="M7530,440 L8197,1413" stroke="blue" stroke-width="2" />
<path d="M5812,138 L7982,143" stroke="blue" stroke-width="2" />
<path d="M3667,100 L5179,382" stroke="blue" stroke-width="2" />
<path d="M3570,283 L6238,1366" stroke="blue" stroke-width="2" />
<path d="M6108,489 L5374,983" stroke="blue" stroke-width="2" />
<path d="M7989,750 L8072,284" stroke="blue" stroke-width="2" />
<path d="M2368,839 L4573,651" stroke="blue" stroke-width="2" />
<path d="M1417,1478 L2137,907" stroke="blue" stroke-width="2" />
<path d="M696,375 L8970,862" stroke="blue" stroke-width="2" />
<path d="M5007,439 L4270,1313" stroke="blue" stroke-width="2" />
<path d="M5006,1029 L4171,715" stroke="blue" stroke-width="2" />
<path d="M9189,741 L9372,1050" stroke="blue" stroke-width="2" />
<path d="M5789,656 L1867,609" stroke="blue" stroke-width="2" />
<path d="M318,509 L2314,1451" stroke="blue" stroke-width="2" />
<path d="M3873,639 L8280,548" stroke="blue" stroke-width="2" />
<path d="M1562,1003 L7368,1211" stroke="blue" stroke-width="2" />
<path d="M974,894 L6056,289" stroke="blue" stroke-width="2" />
<path d="M89,920 L3755,750" stroke="blue" stroke-width="2" />
<path d="M2118,12 L9384,327" stroke="blue" stroke-width="2" />
<path d="M4232,1376 L8424,1008" stroke="blue" stroke-width="2" />
<path d="M3820,945 L2195,192" stroke="blue" stroke-width="2" />
<path d="M3006,707 L4719,671" stroke="blue" stroke-width="2" />
<path d="M9096,829 L3256,812" stroke="blue" stroke-width="2" />
<path d="M3336,1273 L303,176" stroke="blue" stroke-width="2" />
<path d="M2673,545 L3052,995" stroke="blue" stroke-width="2" />
<path d="M2099,932 L9115,810" stroke="blue" stroke-width="2" />
<path d="M1564,420 L4604,1120" stroke="blue" stroke-width="2" />
<path d="M6063,1480 L6774,417" stroke="blue" stroke-width="2" />
<path d="M4616,724 L5620,174" stroke="blue" stroke-width="2" />
<path d="M3220,654 L178,392" stroke="blue" stroke-width="2" />
<path d="M6717,502 L6187,326" stroke="blue" stroke-width="2" />
<path d="M2858,1284 L2021,1557" stroke="blue" stroke-width="2" />
<path d="M1276,565 L3036,538" stroke="blue" stroke-width="2" />
<path d="M9278,1027 L1649,121" stroke="blue" stroke-width="2" />
<path d="M478,1549 L8360,851" stroke="blue" stroke-width="2" />
<path d="M3381,1096 L4045,1122" stroke="blue" stroke-width="2" />
<path d="M7659,1087 L3781,500" stroke="blue" stroke-width="2" />
<path d="M7307,721 L3016,934" stroke="blue" stroke-width="2" />
<path d="M9141,1223 L1004,577" stroke="blue" stroke-width="2" />
<path d="M3877,1538 L6285,1476" stroke="blue" stroke-width="2" />
<path d="M8799,206 L8315,731" stroke="blue" stroke-width="2" />
<path d="M5147,837 L7637,1433" stroke="blue" stroke-width="2" />
<path d="M4918,1358 L8180,1500" stroke="blue" stroke-width="2" />
<path d="M1852,265 L172,973" stroke="blue" stroke-width="2" />
<path d="M5298,1310 L6480,1277" stroke="blue" stroke-width="2" />
<path d="M8278,1079 L4266,476" stroke="blue" stroke-width="2" />
<path d="M3746,895 L6776,488" stroke="blue" stroke-width="2" />
<path d="M3487,547 L6384,1275" stroke="blue" stroke-width="2" />
<path d="M6223,37 L9388,1382" stroke="blue" stroke-width="2" />
<path d="M9578,248 L1087,247" stroke="blue" stroke-width="2" />
<path d="M4569,320 L1209,996" stroke="blue" stroke-width="2" />
<path d="M5332,755 L1419,1368" stroke="blue" stroke-width="2" />
<path d="M9480,41 L313,310" stroke="blue" stroke-width="2" />
<path d="M6569,1318 L9342,212" stroke="blue" stroke-width="2" />
<path d="M3726,40 L9420,159" stroke="blue" stroke-width="2" />
<path d="M6668,538 L7351,1147" stroke="blue" stroke-width="2" />
<path d="M2799,513 L7090,213" stroke="blue" stroke-width="2" />
<path d="M4687,980 L8380,59" stroke="blue" stroke-width="2" />
<path d="M4413,734 L442,10" stroke="blue" stroke-width="2" />
<path d="M1484,319 L9382,766" stroke="blue" stroke-width="2" />
<path d="M4383,1195 L5899,1089" stroke="blue" stroke-width="2" />
<path d="M2592,1509 L8368,1257" stroke="blue" stroke-width="2" />
<path d="M341,1065 L5791,294" stroke="blue" stroke-width="2" />
<path d="M963,1012 L1579,902" stroke="blue" stroke-width="2" />
<path d="M8981,1330 L6378,231" stroke="blue" stroke-width="2" />
<path d="M3682,371 L576,1149" stroke="blue" stroke-width="2" />
<path d="M5081,650 L972,361" stroke="blue" stroke-width="2" />
<path d="M9379,1122 L7075,1197" stroke="blue" stroke-width="2" />
<path d="M8173,1152 L7755,579" stroke="blue" stroke-width="2" />
<path d="M9161,476 L7134,172" stroke="blue" stroke-width="2" />
<path d="M2820,359 L6784,1298" stroke="blue" stroke-width="2" />
<path d="M5206,1017 L5308,872" stroke="blue" stroke-width="2" />
<path d="M8237,723 L3868,1208" stroke="blue" stroke-width="2" />
<path d="M5838,1347 L3034,366" stroke="blue" stroke-width="2" />
<path d="M1276,319 L8258,670" stroke="blue" stroke-width="2" />
<path d="M5954,44 L2761,307" stroke="blue" stroke-width="2" />
<path d="M2352,1180 L7982,1442" stroke="blue" stroke-width="2" />
<path d="M81,1346 L7740,490" stroke="blue" stroke-width="2" />
<path d="M9431,210 L5061,349" stroke="blue" stroke-width="2" />
<path d="M310,58 L8725,329" stroke="blue" stroke-width="2" />
<path d="M3880,970 L4482,356" stroke="blue" stroke-width="2" />
<path d="M7283,227 L3611,1176" stroke="blue" stroke-width="2" />
<path d="M1197,86 L3285,1410" stroke="blue" stroke-width="2" />
<path d="M4973,67 L8782,735" stroke="blue" stroke-width="2" />
<path d="M269,1474 L9392,568" stroke="blue" stroke-width="2" />
<path d="M2500,81 L1603,504" stroke="blue" stroke-width="2" />
<path d="M2655,358 L919,839" stroke="blue" stroke-width="2" />
<path d="M2473,353 L4377,453" stroke="blue" stroke-width="2" />
<path d="M2297,1045 L7794,1451" stroke="blue" stroke-width="2" />
<path d="M881,1275 L4832,459" stroke="blue" stroke-width="2" />
<path d="M7429,1198 L3201,182" stroke="blue" stroke-width="2" />
<path d="M641,1123 L3502,1349" stroke="blue" stroke-width="2" />
<path d="M2282,1065 L104,419" stroke="blue" stroke-width="2" />
<path d="M5177,1461 L226,1467" stroke="blue" stroke-width="2" />
<path d="M8391,827 L5893,359" stroke="blue" stroke-width="2" />
<path d="M837,1062 L9390,426" stroke="blue" stroke-width="2" />
<path d="M6343,796 L531,1066" stroke="blue" stroke-width="2" />
<path d="M137,59 L1475,758" stroke="blue" stroke-width="2" />
<path d="M9322,1459 L6324,451" stroke="blue" stroke-width="2" />
<path d="M1230,1083 L4547,856" stroke="blue" stroke-width="2" />
<path d="M4096,1057 L7902,411" stroke="blue" stroke-width="2" />
<path d="M2964,957 L5748,156" stroke="blue" stroke-width="2" />
<path d="M9193,1558 L6770,307" stroke="blue" stroke-width="2" />
<path d="M9277,294 L7873,829" stroke="blue" stroke-width="2" />
<path d="M4988,982 L6953,155" stroke="blue" stroke-width="2" />
<path d="M3295,652 L3715,1088" stroke="blue" stroke-width="2" />
<path d="M6413,719 L8480,1399" stroke="blue" stroke-width="2" />
<path d="M708,541 L8138,625" stroke="blue" stroke-width="2" />
<path d="M812,791 L8631,307" stroke="blue" stroke-width="2" />
<path d="M4717,913 L57,500" stroke="blue" stroke-width="2" />
<path d="M7270,1315 L2295,1087" stroke="blue" stroke-width="2" />
<path d="M1110,1370 L2697,44" stroke="blue" stroke-width="2" />
<path d="M5879,559 L7233,56" stroke="blue" stroke-width="2" />
<path d="M4762,990 L487,954" stroke="blue" stroke-width="2" />
<path d="M2351,27 L6877,1220" stroke="blue" stroke-width="2" />
<path d="M2346,234 L6202,1267" stroke="blue" stroke-width="2" />
<path d="M9115,1473 L0,1089" stroke="blue" stroke-width="2" />
<path d="M4923,15 L6988,428" stroke="blue" stroke-width="2" />
<path d="M9158,564 L8463,1000" stroke="blue" stroke-width="2" />
<path d="M2512,1435 L7749,29" stroke="blue" stroke-width="2" />
<path d="M8318,785 L6624,1122" stroke="blue" stroke-width="2" />
<path d="M168,79 L1788,293" stroke="blue" stroke-width="2" />
<path d="M4234,1003 L2587,1129" stroke="blue" stroke-width="2" />
<path d="M443,1490 L5423,152" stroke="blue" stroke-width="2" />
<path d="M7584,881 L4893,786" stroke="blue" stroke-width="2" />
<path d="M191,1177 L5976,252" stroke="blue" stroke-width="2" />
<path d="M68,853 L1247,1271" stroke="blue" stroke-width="2" />
<path d="M328,957 L637,717" stroke="blue" stroke-width="2" />
<path d="M1692,1281 L81,358" stroke="blue" stroke-width="2" />
<path d="M5134,506 L492,349" stroke="blue" stroke-width="2" />
<path d="M4374,1089 L6221,311" stroke="blue" stroke-width="2" />
<path d="M9370,985 L4697,689" stroke="blue" stroke-width="2" />
<path d="M2700,751 L9075,1047" stroke="blue" stroke-width="2" />
<path d="M9083,581 L6959,979" stroke="blue" stroke-width="2" />
<path d="M6349,804 L6395,64" stroke="blue" stroke-width="2" />
<path d="M7714,1495 L2356,1552" stroke="blue" stroke-width="2" />
<path d="M1691,1136 L6275,731" stroke="blue" stroke-width="2" />
<path d="M5420,1331 L814,434" stroke="blue" stroke-width="2" />
<path d="M6151,93 L7404,777" stroke="blue" stroke-width="2" />
<path d="M6495,1243 L5121,1333" stroke="blue" stroke-width="2" />
<path d="M3375,497 L3594,35" stroke="blue" stroke-width="2" />
<path d="M3370,403 L8600,344" stroke="blue" stroke-width="2" />
<path d="M5900,1440 L4843,475" stroke="blue" stroke-width="2" />
<path d="M5952,974 L2580,452" stroke="blue" stroke-width="2" />
<path d="M7525,997 L2449,1162" stroke="blue" stroke-width="2" />
<path d="M7713,1536 L1074,1217" stroke="blue" stroke-width="2" />
<path d="M7258,961 L7994,375" stroke="blue" stroke-width="2" />
<path d="M8735,842 L6259,403" stroke="blue" stroke-width="2" />
<path d="M8973,30 L6167,202" stroke="blue" stroke-width="2" />
<path d="M9035,1545 L5976,1429" stroke="blue" stroke-width="2" />
<path d="M4253,217 L5110,1544" stroke="blue" stroke-width="2" />
<path d="M1214,1382 L9502,1048" stroke="blue" stroke-width="2" />
<path d="M6902,300 L1125,196" stroke="blue" stroke-width="2" />
<path d="M4039,568 L9288,522" stroke="blue" stroke-width="2" />
<path d="M8984,993 L4873,761" stroke="blue" stroke-width="2" />
<path d="M4885,1081 L5460,416" stroke="blue" stroke-width="2" />
<path d="M9049,1301 L5214,1160" stroke="blue" stroke-width="2" />
<path d="M6272,1423 L8251,1016" stroke="blue" stroke-width="2" />
<path d="M7782,236 L8017,255" stroke="blue" stroke-width="2" />
<path d="M7231,195 L9381,895" stroke="blue" stroke-width="2" />
<path d="M4753,741 L4655,61" stroke="blue" stroke-width="2" />
<path d="M4734,721 L305,1421" stroke="blue" stroke-width="2" />
<path d="M3522,1208 L3830,1488" stroke="blue" stroke-width="2" />
<path d="M5423,522 L7365,16" stroke="blue" stroke-width="2" />
<path d="M1996,1513 L264,1068" stroke="blue" stroke-width="2" />
<path d="M1724,57 L4238,728" stroke="blue" stroke-width="2" />
<path d="M4109,929 L4246,5" stroke="blue" stroke-width="2" />
<path d="M299,1264 L5162,73" stroke="blue" stroke-width="2" />
<path d="M6535,1253 L3623,456" stroke="blue" stroke-width="2" />
<path d="M7891,90 L4662,1429" stroke="blue" stroke-width="2" />
<path d="M6219,1289 L4932,1112" stroke="blue" stroke-width="2" />
<path d="M9268,312 L2373,1097" stroke="blue" stroke-width="2" />
<path d="M8003,217 L7424,70" stroke="blue" stroke-width="2" />
<path d="M952,277 L2217,352" stroke="blue" stroke-width="2" />
<path d="M4187,1508 L3879,801" stroke="blue" stroke-width="2" />
<path d="M3580,613 L7428,1351" stroke="blue" stroke-width="2" />
<path d="M5787,928 L2382,778" stroke="blue" stroke-width="2" />
<path d="M4113,975 L613,241" stroke="blue" stroke-width="2" />
<path d="M8319,755 L5153,775" stroke="blue" stroke-width="2" />
<path d="M9026,148 L9174,34" stroke="blue" stroke-width="2" />
<path d="M4052,985 L8172,306" stroke="blue" stroke-width="2" />
<path d="M1081,932 L8156,1507" stroke="blue" stroke-width="2" />
<path d="M7576,1435 L4734,100" stroke="blue" stroke-width="2" />
<path d="M7364,341 L5947,757" stroke="blue" stroke-width="2" />
<path d="M5283,946 L9425,1320" stroke="blue" stroke-width="2" />
<path d="M605,1507 L5817,389" stroke="blue" stroke-width="2" />
<path d="M7621,205 L812,1374" stroke="blue" stroke-width="2" />
<path d="M6963,1043 L2719,858" stroke="blue" stroke-width="2" />
<path d="M331,897 L5932,940" stroke="blue" stroke-width="2" />
<path d="M2057,1422 L1795,52" stroke="blue" stroke-width="2" />
<path d="M3100,369 L8039,1342" stroke="blue" stroke-width="2" />
<path d="M2800,806 L5875,1236" stroke="blue" stroke-width="2" />
<path d="M1772,1425 L3860,782" stroke="blue" stroke-width="2" />
<path d="M3556,89 L2668,1355" stroke="blue" stroke-width="2" />
<path d="M7722,238 L977,996" stroke="blue" stroke-width="2" />
<path d="M8944,1043 L8253,1048" stroke="blue" stroke-width="2" />
<path d="M2643,521 L5439,1414" stroke="blue" stroke-width="2" />
<path d="M162,599 L8826,263" stroke="blue" stroke-width="2" />
<path d="M8591,133 L8194,1404" stroke="blue" stroke-width="2" />
<path d="M4238,1056 L7138,988" stroke="blue" stroke-width="2" />
<path d="M6615,72 L7141,833" stroke="blue" stroke-width="2" />
<path d="M8333,1419 L2200,232" stroke="blue" stroke-width="2" />
<path d="M3411,396 L8366,715" stroke="blue" stroke-width="2" />
<path d="M2997,1378 L762,243" stroke="blue" stroke-width="2" />
<path d="M1109,651 L7878,103" stroke="blue" stroke-width="2" />
<path d="M4721,117 L2249,1028" stroke="blue" stroke-width="2" />
<path d="M1985,55 L3557,658" stroke="blue" stroke-width="2" />
<path d="M4651,667 L1399,1040" stroke="blue" stroke-width="2" />
<path d="M9059,375 L4054,752" stroke="blue" stroke-width="2" />
<path d="M8790,1060 L4446,408" stroke="blue" stroke-width="2" />
<path d="M4186,697 L6758,94" stroke="blue" stroke-width="2" />
<path d="M6459,883 L8598,1185" stroke="blue" stroke-width="2" />
<path d="M4964,14 L6248,1177" stroke="blue" stroke-width="2" />
<path d="M3134,1191 L4506,1290" stroke="blue" stroke-width="2" />
<path d="M8830,912 L4831,1211" stroke="blue" stroke-width="2" />
<path d="M8295,422 L6740,202" stroke="blue" stroke-width="2" />
<path d="M8295,1208 L5057,212" stroke="blue" stroke-width="2" />
<path d="M954,953 L7450,785" stroke="blue" stroke-width="2" />
<path d="M2754,33 L5004,501" stroke="blue" stroke-width="2" />
<path d="M2324,500 L7606,189" stroke="blue" stroke-width="2" />
<path d="M9417,1362 L8311,1352" stroke="blue" stroke-width="2" />
<path d="M1952,980 L8839,259" stroke="blue" stroke-width="2" />
<path d="M2503,103 L1459,563" stroke="blue" stroke-width="2" />
<path d="M7287,936 L4471,335" stroke="blue" stroke-width="2" />
<path d="M1352,1194 L9434,1358" stroke="blue" stroke-width="2" />
<path d="M4222,802 L6024,1141" stroke="blue" stroke-width="2" />
<path d="M8862,504 L9227,560" stroke="blue" stroke-width="2" />
<path d="M5175,292 L2398,1299" stroke="blue" stroke-width="2" />
<path d="M2732,931 L6207,1341" stroke="blue" stroke-width="2" />
<path d="M3486,752 L2308,1532" stroke="blue" stroke-width="2" />
<path d="M2367,728 L518,1459" stroke="blue" stroke-width="2" />
<path d="M1278,719 L2544,1470" stroke="blue" stroke-width="2" />
<path d="M5043,110 L2780,823" stroke="blue" stroke-width="2" />
<path d="M4865,1420 L4584,381" stroke="blue" stroke-width="2" />
<path d="M3499,1024 L3538,1553" stroke="blue" stroke-width="2" />
<path d="M2272,1216 L8259,1245" stroke="blue" stroke-width="2" />
<path d="M2648,42 L2737,871" stroke="blue" stroke-width="2" />
<path d="M7528,836 L3943,90" stroke="blue" stroke-width="2" />
<path d="M7383,349 L1269,558" stroke="blue" stroke-width="2" />
<path d="M7638,1092 L4322,1321" stroke="blue" stroke-width="2" />
<path d="M6646,170 L6754,815" stroke="blue" stroke-width="2" />
<path d="M8871,898 L8298,1324" stroke="blue" stroke-width="2" />
<path d="M3985,948 L6449,956" stroke="blue" stroke-width="2" />
<path d="M565,848 L2243,822" stroke="blue" stroke-width="2" />
<path d="M4698,723 L1223,965" stroke="blue" stroke-width="2" />
<path d="M3317,317 L4968,1462" stroke="blue" stroke-width="2" />
<path d="M393,946 L9301,979" stroke="blue" stroke-width="2" />
<path d="M2495,251 L959,1029" stroke="blue" stroke-width="2" />
<path d="M9222,393 L8642,852" stroke="blue" stroke-width="2" />
<path d="M3451,1556 L6820,1530" stroke="blue" stroke-width="2" />
<path d="M7038,504 L1705,138" stroke="blue" stroke-width="2" />
<path d="M329,1369 L7686,986" stroke="blue" stroke-width="2" />
<path d="M5529,599 L2101,4" stroke="blue" stroke-width="2" />
<path d="M7728,19 L2402,574" stroke="blue" stroke-width="2" />
<path d="M5742,279 L8466,1371" stroke="blue" stroke-width="2" />
<path d="M2702,1560 L4318,843" stroke="blue" stroke-width="2" />
<path d="M54,1073 L9091,238" stroke="blue" stroke-width="2" />
<path d="M6754,345 L4824,217" stroke="blue" stroke-width="2" />
<path d="M7778,1095 L490,1147" stroke="blue" stroke-width="2" />
<path d="M3945,246 L6394,186" stroke="blue" stroke-width="2" />
<path d="M3165,241 L9573,1510" stroke="blue" stroke-width="2" />
<path d="M6626,24 L1977,364" stroke="blue" stroke-width="2" />
<path d="M3558,1526 L8364,397" stroke="blue" stroke-width="2" />
<path d="M1829,423 L8396,496" stroke="blue" stroke-width="2" />
<path d="M2410,1194 L1636,422" stroke="blue" stroke-width="2" />
<path d="M8113,157 L4677,721" stroke="blue" stroke-width="2" />
<path d="M3150,51 L9551,526" stroke="blue" stroke-width="2" />
<path d="M8171,329 L2975,3" stroke="blue" stroke-width="2" />
<path d="M8556,1376 L7980,780" stroke="blue" stroke-width="2" />
<path d="M4839,1215 L1069,1487" stroke="blue" stroke-width="2" />
<path d="M1219,873 L3542,1441" stroke="blue" stroke-width="2" />
<path d="M4509,723 L9133,494" stroke="blue" stroke-width="2" />
<path d="M5184,1075 L6910,216" stroke="blue" stroke-width="2" />
<path d="M2355,1171 L3055,630" stroke="blue" stroke-width="2" />
<path d="M3251,1175 L3020,1199" stroke="blue" stroke-width="2" />
<path d="M2583,478 L1599,1382" stroke="blue" stroke-width="2" />
<path d="M8359,482 L7931,746" stroke="blue" stroke-width="2" />
<path d="M1818,500 L9035,482" stroke="blue" stroke-width="2" />
<path d="M8154,897 L5515,16" stroke="blue" stroke-width="2" />
<path d="M3944,800 L5924,588" stroke="blue" stroke-width="2" />
<path d="M169,1318 L6507,1389" stroke="blue" stroke-width="2" />
<path d="M3731,1276 L3943,771" stroke="blue" stroke-width="2" />
<path d="M3785,592 L5799,328" stroke="blue" stroke-width="2" />
<path d="M4194,660 L2312,405" stroke="blue" stroke-width="2" />
<path d="M7760,1148 L6407,1223" stroke="blue" stroke-width="2" />
<path d="M4648,176 L5668,256" stroke="blue" stroke-width="2" />
<path d="M2533,371 L1161,381" stroke="blue" stroke-width="2" />
<path d="M3899,455 L6559,831" stroke="blue" stroke-width="2" />
<path d="M452,345 L1099,957" stroke="blue" stroke-width="2" />
<path d="M9188,834 L4639,196" stroke="blue" stroke-width="2" />
<path d="M1070,336 L9048,1436" stroke="blue" stroke-width="2" />
<path d="M6807,76 L9503,1452" stroke="blue" stroke-width="2" />
<path d="M8469,586 L3225,1096" stroke="blue" stroke-width="2" />
<path d="M8082,522 L6409,724" stroke="blue" stroke-width="2" />
<path d="M7311,123 L9471,672" stroke="blue" stroke-width="2" />
<path d="M5899,1399 L6190,1484" stroke="blue" stroke-width="2" />
<path d="M8321,771 L8175,256" stroke="blue" stroke-width="2" />
<path d="M518,598 L4301,739" stroke="blue" stroke-width="2" />
<path d="M2922,765 L2446,1489" stroke="blue" stroke-width="2" />
<path d="M983,1391 L465,739" stroke="blue" stroke-width="2" />
<path d="M6491,103 L5158,754" stroke="blue" stroke-width="2" />
<path d="M2935,796 L4440,273" stroke="blue" stroke-width="2" />
<path d="M440,934 L5206,497" stroke="blue" stroke-width="2" />
<path d="M5946,1231 L6563,164" stroke="blue" stroke-width="2" />
<path d="M6102,1204 L7534,239" stroke="blue" stroke-width="2" />
<path d="M6031,1348 L7560,461" stroke="blue" stroke-width="2" />
<path d="M5030,667 L1814,1228" stroke="blue" stroke-width="2" />
<path d="M5155,896 L7428,1250" stroke="blue" stroke-width="2" />
<path d="M2115,47 L668,207" stroke="blue" stroke-width="2" />
<path d="M2439,333 L5251,144" stroke="blue" stroke-width="2" />
<path d="M6165,275 L9247,436" stroke="blue" stroke-width="2" />
<path d="M5080,648 L6832,1390" stroke="blue" stroke-width="2" />
<path d="M7646,617 L456,1321" stroke="blue" stroke-width="2" />
<path d="M2926,461 L5756,921" stroke="blue" stroke-width="2" />
<path d="M5982,308 L3620,867" stroke="blue" stroke-width="2" />
<path d="M6490,1315 L3359,766" stroke="blue" stroke-width="2" />
<path d="M7929,708 L7087,1128" stroke="blue" stroke-width="2" />
<path d="M3922,1127 L3575,1497" stroke="blue" stroke-width="2" />
<path d="M6391,88 L3824,1422" stroke="blue" stroke-width="2" />
<path d="M4856,660 L168,1481" stroke="blue" stroke-width="2" />
<path d="M2480,1407 L942,1401" stroke="blue" stroke-width="2" />
<path d="M8010,925 L6399,170" stroke="blue" stroke-width="2" />
<path d="M4470,876 L1288,1007" stroke="blue" stroke-width="2" />
<path d="M1199,387 L1516,1169" stroke="blue" stroke-width="2" />
<path d="M5540,458 L6931,1162" stroke="blue" stroke-width="2" />
<path d="M8926,942 L4636,429" stroke="blue" stroke-width="2" />
<path d="M3024,504 L7368,826" stroke="blue" stroke-width="2" />
<path d="M2419,1102 L6711,1484" stroke="blue" stroke-width="2" />
<path d="M6170,805 L1948,1471" stroke="blue" stroke-width="2" />
<path d="M4753,52 L4469,888" stroke="blue" stroke-width="2" />
<path d="M8341,1483 L327,1168" stroke="blue" stroke-width="2" />
<path d="M8765,706 L45,1177" stroke="blue" stroke-width="2" />
<path d="M6975,401 L1278,1034" stroke="blue" stroke-width="2" />
<path d="M3847,350 L1656,620" stroke="blue" stroke-width="2" />
<path d="M9355,1465 L725,1275" stroke="blue" stroke-width="2" />
<path d="M6969,591 L7311,1257" stroke="blue" stroke-width="2" />
<path d="M1471,932 L5130,1385" stroke="blue" stroke-width="2" />
<path d="M3236,1208 L9470,794" stroke="blue" stroke-width="2" />
<path d="M3571,1485 L4635,231" stroke="blue" stroke-width="2" />
<path d="M404,701 L3057,784" stroke="blue" stroke-width="2" />
<path d="M250,1342 L3375,1211" stroke="blue" stroke-width="2" />
<path d="M6610,1228 L1428,1208" stroke="blue" stroke-width="2" />
<path d="M538,464 L7360,140" stroke="blue" stroke-width="2" />
<path d="M1018,19 L1574,631" stroke="blue" stroke-width="2" />
<path d="M2727,761 L9259,363" stroke="blue" stroke-width="2" />
<path d="M8713,43 L118,1050" stroke="blue" stroke-width="2" />
<path d="M6700,1082 L4755,901" stroke="blue" stroke-width="2" />
<path d="M3367,952 L1368,879" stroke="blue" stroke-width="2" />
<path d="M7476,1509 L2810,391" stroke="blue" stroke-width="2" />
<path d="M6481,81 L7184,456" stroke="blue" stroke-width="2" />
<path d="M4129,600 L4108,662" stroke="blue" stroke-width="2" />
<path d="M7138,1406 L7341,694" stroke="blue" stroke-width="2" />
<path d="M6225,1335 L3342,1167" stroke="blue" stroke-width="2" />
<path d="M7959,1272 L2692,543" stroke="blue" stroke-width="2" />
<path d="M864,108 L2336,1294" stroke="blue" stroke-width="2" />
<path d="M399,13 L5180,180" stroke="blue" stroke-width="2" />
<path d="M7726,1394 L6058,892" stroke="blue" stroke-width="2" />
<path d="M5410,904 L4799,0" stroke="blue" stroke-width="2" />
<path d="M8541,1416 L6113,1469" stroke="blue" stroke-width="2" />
<path d="M8372,684 L1590,237" stroke="blue" stroke-width="2" />
<path d="M8451,799 L4132,460" stroke="blue" stroke-width="2" />
<path d="M177,592 L9483,328" stroke="blue" stroke-width="2" />
<path d="M3047,947 L2455,1250" stroke="blue" stroke-width="2" />
<path d="M4181,252 L4715,786" stroke="blue" stroke-width="2" />
<path d="M8902,637 L6881,1116" stroke="blue" stroke-width="2" />
<path d="M6599,294 L862,958" stroke="blue" stroke-width="2" />
<path d="M3690,1492 L6164,182" stroke="blue" stroke-width="2" />
<path d="M3902,1337 L3627,910" stroke="blue" stroke-width="2" />
<path d="M7881,1069 L7871,1021" stroke="blue" stroke-width="2" />
<path d="M258,39 L3047,973" stroke="blue" stroke-width="2" />
<path d="M7777,1206 L277,300" stroke="blue" stroke-width="2" />
<path d="M91,985 L5206,909" stroke="blue" stroke-width="2" />
<path d="M8181,1008 L4381,1435" stroke="blue" stroke-width="2" />
<path d="M6338,1109 L1330,1031" stroke="blue" stroke-width="2" />
<path d="M4331,884 L8269,1392" stroke="blue" stroke-width="2" />
<path d="M8979,1467 L2104,1390" stroke="blue" stroke-width="2" />
<path d="M3395,39 L3025,49" stroke="blue" stroke-width="2" />
<path d="M8270,681 L3712,684" stroke="blue" stroke-width="2" />
<path d="M5575,614 L9510,762" stroke="blue" stroke-width="2" />
<path d="M5901,964 L1545,109" stroke="blue" stroke-width="2" />
<path d="M9450,1555 L4841,1447" stroke="blue" stroke-width="2" />
<path d="M1495,1236 L7479,1517" stroke="blue" stroke-width="2" />
<path d="M2593,1292 L5042,1528" stroke="blue" stroke-width="2" />
<path d="M1973,466 L705,174" stroke="blue" stroke-width="2" />
<path d="M5936,12 L688,210" stroke="blue" stroke-width="2" />
<path d="M8761,372 L4849,1477" stroke="blue" stroke-width="2" />
<path d="M908,2 L8098,1393" stroke="blue" stroke-width="2" />
<path d="M2378,25 L4345,1016" stroke="blue" stroke-width="2" />
<path d="M321,711 L961,1518" stroke="blue" stroke-width="2" />
<path d="M6814,1064 L3068,1496" stroke="blue" stroke-width="2" />
<path d="M388,439 L3776,1452" stroke="blue" stroke-width="2" />
<path d="M1083,1225 L1763,1161" stroke="blue" stroke-width="2" />
<path d="M5581,390 L8517,1211" stroke="blue" stroke-width="2" />
<path d="M7710,709 L1233,1278" stroke="blue" stroke-width="2" />
<path d="M8633,1282 L800,298" stroke="blue" stroke-width="2" />
<path d="M3583,1391 L3144,554" stroke="blue" stroke-width="2" />
<path d="M0,0 L9601,0" stroke="red" stroke-width="10" />
<path d="M9601,0 L9601,1562" stroke="red" stroke-width="10" />
<path d="M0,1562 L9601,1562" stroke="red" stroke-width="10" />
<path d="M0,1562 L0,0" stroke="red" stroke-width="10" />
</svg>