<?xml version="1.0" encoding="UTF-8"?>
<svg xmlns="http://www.w3.org/2000/svg" xmlns:xlink="http://www.w3.org/1999/xlink"
     width="10000" height="10000" viewBox="0 0 10000 10000">
<defs>
</defs>
<path d="M2520,5325 L1453,6953" stroke="blue" stroke-width="2" />
<path d="M2835,4513 L3782,1465" stroke="blue" stroke-width="2" />
<path d="M1335,982 L2429,5088" stroke="blue" stroke-width="2" />
<path d="M3250,8519 L3729,8095" stroke="blue" stroke-width="2" />
<path d="M919,3672 L3558,4365" stroke="blue" stroke-width="2" />
<path d="M1751,4631 L5197,4822" stroke="blue" stroke-width="2" />
<path d="M4607,8922 L3192,1058" stroke="blue" stroke-width="2" />
<path d="M4802,4813 L3163,5801" stroke="blue" stroke-width="2" />
<path d="M3940,4576 L1864,7059" stroke="blue" stroke-width="2" />
<path d="M4973,8291 L3583,4860" stroke="blue" stroke-width="2" />
<path d="M2683,6814 L761,4607" stroke="blue" stroke-width="2" />
<path d="M1889,9082 L4948,1749" stroke="blue" stroke-width="2" />
<path d="M3158,2201 L2211,6228" stroke="blue" stroke-width="2" />
<path d="M3080,685 L3450,866" stroke="blue" stroke-width="2" />
<path d="M5003,4507 L4909,612" stroke="blue" stroke-width="2" />
<path d="M1622,9063 L4090,7040" stroke="blue" stroke-width="2" />
<path d="M1577,6210 L2535,144" stroke="blue" stroke-width="2" />
<path d="M1068,7018 L5084,8853" stroke="blue" stroke-width="2" />
<path d="M3387,5381 L3376,1647" stroke="blue" stroke-width="2" />
<path d="M4554,2334 L2900,8201" stroke="blue" stroke-width="2" />
<path d="M1810,6912 L2986,364" stroke="blue" stroke-width="2" />
<path d="M326,2671 L1368,3186" stroke="blue" stroke-width="2" />
<path d="M3134,6180 L2282,529" stroke="blue" stroke-width="2" />
<path d="M4650,3561 L2288,4017" stroke="blue" stroke-width="2" />
<path d="M435,3977 L2470,1846" stroke="blue" stroke-width="2" />
<path d="M4814,729 L1736,7397" stroke="blue" stroke-width="2" />
<path d="M4189,3296 L2407,5638" stroke="blue" stroke-width="2" />
<path d="M1744,225 L169,8253" stroke="blue" stroke-width="2" />
<path d="M4433,1246 L3670,4257" stroke="blue" stroke-width="2" />
<path d="M2527,6349 L468,7392" stroke="blue" stroke-width="2" />
<path d="M4711,676 L3058,6281" stroke="blue" stroke-width="2" />
<path d="M1029,4548 L55,6668" stroke="blue" stroke-width="2" />
<path d="M864,953 L2892,5596" stroke="blue" stroke-width="2" />
<path d="M4780,4407 L2873,9084" stroke="blue" stroke-width="2" />
<path d="M4545,7024 L2914,6102" stroke="blue" stroke-width="2" />
<path d="M204,7962 L2167,1585" stroke="blue" stroke-width="2" />
<path d="M1321,7186 L2440,8392" stroke="blue" stroke-width="2" />
<path d="M1575,1449 L1520,4166" stroke="blue" stroke-width="2" />
<path d="M1401,8513 L1842,791" stroke="blue" stroke-width="2" />
<path d="M4747,4848 L4033,3781" stroke="blue" stroke-width="2" />
<path d="M1449,1204 L97,9086" stroke="blue" stroke-width="2" />
<path d="M2117,2230 L1973,1995" stroke="blue" stroke-width="2" />
<path d="M2680,897 L768,2663" stroke="blue" stroke-width="2" />
<path d="M2909,5730 L5123,740" stroke="blue" stroke-width="2" />
<path d="M2860,1656 L2279,4547" stroke="blue" stroke-width="2" />
<path d="M1170,8919 L3810,6954" stroke="blue" stroke-width="2" />
<path d="M3056,8323 L142,3425" stroke="blue" stroke-width="2" />
<path d="M4794,8555 L662,751" stroke="blue" stroke-width="2" />
<path d="M1479,3498 L1640,395" stroke="blue" stroke-width="2" />
<path d="M784,9095 L608,9179" stroke="blue" stroke-width="2" />
<path d="M1511,1652 L903,1150" stroke="blue" stroke-width="2" />
<path d="M4107,6402 L3155,5044" stroke="blue" stroke-width="2" />
<path d="M2339,6050 L1588,7130" stroke="blue" stroke-width="2" />
<path d="M691,4798 L2359,3581" stroke="blue" stroke-width="2" />
<path d="M5116,5188 L4540,2917" stroke="blue" stroke-width="2" />
<path d="M2829,285 L4693,4576" stroke="blue" stroke-width="2" />
<path d="M385,5508 L4885,2485" stroke="blue" stroke-width="2" />
<path d="M2555,2812 L428,7940" stroke="blue" stroke-width="2" />
<path d="M4228,5906 L251,7346" stroke="blue" stroke-width="2" />
<path d="M547,5484 L4688,4336" stroke="blue" stroke-width="2" />
<path d="M1799,3968 L21,989" stroke="blue" stroke-width="2" />
<path d="M313,4767 L3594,1656" stroke="blue" stroke-width="2" />
<path d="M303,3744 L3679,2113" stroke="blue" stroke-width="2" />
<path d="M2990,5801 L1605,2498" stroke="blue" stroke-width="2" />
<path d="M1541,4301 L1578,1916" stroke="blue" stroke-width="2" />
<path d="M3978,5177 L2171,4955" stroke="blue" stroke-width="2" />
<path d="M1871,4894 L1038,8810" stroke="blue" stroke-width="2" />
<path d="M124,3588 L3368,2510" stroke="blue" stroke-width="2" />
<path d="M2573,3989 L1038,5678" stroke="blue" stroke-width="2" />
<path d="M4015,2991 L3007,2302" stroke="blue" stroke-width="2" />
<path d="M459,8140 L3169,6962" stroke="blue" stroke-width="2" />
<path d="M890,972 L1602,5071" stroke="blue" stroke-width="2" />
<path d="M4164,7223 L38,6186" stroke="blue" stroke-width="2" />
<path d="M5044,4202 L2781,1233" stroke="blue" stroke-width="2" />
<path d="M1985,3090 L4334,6983" stroke="blue" stroke-width="2" />
<path d="M4759,7448 L4678,5573" stroke="blue" stroke-width="2" />
<path d="M4973,7234 L1011,1542" stroke="blue" stroke-width="2" />
<path d="M303,6297 L4413,4668" stroke="blue" stroke-width="2" />
<path d="M3397,7491 L1942,7999" stroke="blue" stroke-width="2" />
<path d="M1703,8100 L78,8052" stroke="blue" stroke-width="2" />
<path d="M3972,8622 L3751,3665" stroke="blue" stroke-width="2" />
<path d="M1273,313 L716,6033" stroke="blue" stroke-width="2" />
<path d="M2686,2524 L1077,7315" stroke="blue" stroke-width="2" />
<path d="M1676,8894 L5201,7129" stroke="blue" stroke-width="2" />
<path d="M4354,5219 L2974,1184" stroke="blue" stroke-width="2" />
<path d="M2354,136 L4204,697" stroke="blue" stroke-width="2" />
<path d="M4933,5090 L4309,1021" stroke="blue" stroke-width="2" />
<path d="M2433,4889 L287,7602" stroke="blue" stroke-width="2" />
<path d="M4879,729 L348,3176" stroke="blue" stroke-width="2" />
<path d="M1121,957 L1183,1088" stroke="blue" stroke-width="2" />
<path d="M2422,1522 L4022,2102" stroke="blue" stroke-width="2" />
<path d="M1440,4595 L2176,3310" stroke="blue" stroke-width="2" />
<path d="M5059,1435 L725,2668" stroke="blue" stroke-width="2" />
<path d="M1409,1996 L4147,3285" stroke="blue" stroke-width="2" />
<path d="M1076,6088 L4958,2024" stroke="blue" stroke-width="2" />
<path d="M2136,8580 L1200,6019" stroke="blue" stroke-width="2" />
<path d="M1430,3031 L4323,1119" stroke="blue" stroke-width="2" />
<path d="M2772,8949 L4914,2402" stroke="blue" stroke-width="2" />
<path d="M1233,3422 L3713,5034" stroke="blue" stroke-width="2" />
<path d="M3662,3351 L4721,8551" stroke="blue" stroke-width="2" />
<path d="M2964,8327 L4103,4038" stroke="blue" stroke-width="2" />
<path d="M4161,1865 L914,4681" stroke="blue" stroke-width="2" />
<path d="M2284,6149 L3112,7006" stroke="blue" stroke-width="2" />
<path d="M2189,1130 L4571,1142" stroke="blue" stroke-width="2" />
<path d="M1049,4382 L4692,3525" stroke="blue" stroke-width="2" />
<path d="M584,5722 L903,9188" stroke="blue" stroke-width="2" />
<path d="M1348,26 L2501,4839" stroke="blue" stroke-width="2" />
<path d="M3356,4983 L3553,5802" stroke="blue" stroke-width="2" />
<path d="M3345,6806 L3656,871" stroke="blue" stroke-width="2" />
<path d="M2127,7986 L1991,4747" stroke="blue" stroke-width="2" />
<path d="M192,3795 L3814,5805" stroke="blue" stroke-width="2" />
<path d="M1165,3986 L4912,2877" stroke="blue" stroke-width="2" />
<path d="M1381,893 L1751,195" stroke="blue" stroke-width="2" />
<path d="M3230,9187 L4994,1349" stroke="blue" stroke-width="2" />
<path d="M3943,7843 L4603,6362" stroke="blue" stroke-width="2" />
<path d="M3859,736 L4607,4123" stroke="blue" stroke-width="2" />
<path d="M1583,6512 L1742,6720" stroke="blue" stroke-width="2" />
<path d="M4388,4170 L3706,5140" stroke="blue" stroke-width="2" />
<path d="M253,3409 L307,2232" stroke="blue" stroke-width="2" />
<path d="M2732,6442 L5187,4606" stroke="blue" stroke-width="2" />
<path d="M1781,9416 L3076,7213" stroke="blue" stroke-width="2" />
<path d="M3761,7482 L3916,6193" stroke="blue" stroke-width="2" />
<path d="M533,6445 L3860,7895" stroke="blue" stroke-width="2" />
<path d="M3284,5261 L4162,6502" stroke="blue" stroke-width="2" />
<path d="M3598,1003 L4837,8827" stroke="blue" stroke-width="2" />
<path d="M4160,6613 L540,6607" stroke="blue" stroke-width="2" />
<path d="M4481,7185 L4846,8680" stroke="blue" stroke-width="2" />
<path d="M2769,8022 L2372,2382" stroke="blue" stroke-width="2" />
<path d="M1308,3268 L3827,328" stroke="blue" stroke-width="2" />
<path d="M679,6427 L1449,8155" stroke="blue" stroke-width="2" />
<path d="M4298,2928 L1730,6288" stroke="blue" stroke-width="2" />
<path d="M3283,6616 L2437,1662" stroke="blue" stroke-width="2" />
<path d="M4087,4904 L4950,6391" stroke="blue" stroke-width="2" />
<path d="M554,3557 L5213,1935" stroke="blue" stroke-width="2" />
<path d="M3631,6295 L3898,3250" stroke="blue" stroke-width="2" />
<path d="M3917,6042 L3313,9100" stroke="blue" stroke-width="2" />
<path d="M3761,4484 L3493,3972" stroke="blue" stroke-width="2" />
<path d="M2563,4201 L1245,2092" stroke="blue" stroke-width="2" />
<path d="M527,6800 L5068,8532" stroke="blue" stroke-width="2" />
<path d="M2365,4384 L4557,4347" stroke="blue" stroke-width="2" />
<path d="M3991,7494 L3546,3861" stroke="blue" stroke-width="2" />
<path d="M3499,2934 L2379,258" stroke="blue" stroke-width="2" />
<path d="M4802,8484 L831,6778" stroke="blue" stroke-width="2" />
<path d="M1822,4137 L1339,6454" stroke="blue" stroke-width="2" />
<path d="M443,8824 L683,6622" stroke="blue" stroke-width="2" />
<path d="M3757,4484 L2086,1389" stroke="blue" stroke-width="2" />
<path d="M2161,4302 L4919,7857" stroke="blue" stroke-width="2" />
<path d="M1204,8321 L3953,4381" stroke="blue" stroke-width="2" />
<path d="M2606,3007 L4196,5109" stroke="blue" stroke-width="2" />
<path d="M304,1956 L1388,5667" stroke="blue" stroke-width="2" />
<path d="M4803,8580 L2010,5217" stroke="blue" stroke-width="2" />
<path d="M5179,2636 L484,1541" stroke="blue" stroke-width="2" />
<path d="M2634,6542 L2074,6626" stroke="blue" stroke-width="2" />
<path d="M2129,4024 L3190,1366" stroke="blue" stroke-width="2" />
<path d="M782,3660 L4373,5868" stroke="blue" stroke-width="2" />
<path d="M2325,4658 L1544,5661" stroke="blue" stroke-width="2" />
<path d="M5092,87 L1995,5479" stroke="blue" stroke-width="2" />
<path d="M2795,7109 L1231,3407" stroke="blue" stroke-width="2" />
<path d="M3792,1939 L3874,9435" stroke="blue" stroke-width="2" />
<path d="M295,6356 L4784,7375" stroke="blue" stroke-width="2" />
<path d="M1393,7619 L1559,150" stroke="blue" stroke-width="2" />
<path d="M4517,4025 L4958,441" stroke="blue" stroke-width="2" />
<path d="M554,2613 L469,8185" stroke="blue" stroke-width="2" />
<path d="M1859,1128 L2135,3023" stroke="blue" stroke-width="2" />
<path d="M1355,596 L1792,8998" stroke="blue" stroke-width="2" />
<path d="M1915,406 L3445,2602" stroke="blue" stroke-width="2" />
<path d="M3298,1060 L326,2646" stroke="blue" stroke-width="2" />
<path d="M385,5869 L4222,8234" stroke="blue" stroke-width="2" />
<path d="M1537,9030 L423,823" stroke="blue" stroke-width="2" />
<path d="M5038,7993 L4072,2481" stroke="blue" stroke-width="2" />
<path d="M4279,2249 L1219,6695" stroke="blue" stroke-width="2" />
<path d="M1287,1814 L2236,4975" stroke="blue" stroke-width="2" />
<path d="M2465,7152 L2601,5031" stroke="blue" stroke-width="2" />
<path d="M4855,1101 L4800,7188" stroke="blue" stroke-width="2" />
<path d="M5031,4496 L5147,1354" stroke="blue" stroke-width="2" />
<path d="M2542,3913 L1285,8790" stroke="blue" stroke-width="2" />
<path d="M365,5754 L3063,7034" stroke="blue" stroke-width="2" />
<path d="M3160,4451 L1413,9396" stroke="blue" stroke-width="2" />
<path d="M4523,2176 L807,1727" stroke="blue" stroke-width="2" />
<path d="M415,365 L570,2230" stroke="blue" stroke-width="2" />
<path d="M4255,295 L174,1720" stroke="blue" stroke-width="2" />
<path d="M3267,2435 L195,1230" stroke="blue" stroke-width="2" />
<path d="M2076,582 L4879,3849" stroke="blue" stroke-width="2" />
<path d="M1083,9003 L2924,6040" stroke="blue" stroke-width="2" />
<path d="M3370,3288 L3671,1037" stroke="blue" stroke-width="2" />
<path d="M2134,4215 L1939,2670" stroke="blue" stroke-width="2" />
<path d="M1829,8211 L285,4942" stroke="blue" stroke-width="2" />
<path d="M981,9212 L2856,5197" stroke="blue" stroke-width="2" />
<path d="M632,7194 L4969,1316" stroke="blue" stroke-width="2" />
<path d="M1615,3754 L2861,5478" stroke="blue" stroke-width="2" />
<path d="M699,44 L3688,7851" stroke="blue" stroke-width="2" />
<path d="M3526,5235 L2412,8822" stroke="blue" stroke-width="2" />
<path d="M2109,2098 L560,6966" stroke="blue" stroke-width="2" />
<path d="M1836,7784 L4148,3180" stroke="blue" stroke-width="2" />
<path d="M2068,4840 L4672,2468" stroke="blue" stroke-width="2" />
<path d="M2464,3868 L2500,9345" stroke="blue" stroke-width="2" />
<path d="M2292,4901 L2652,8834" stroke="blue" stroke-width="2" />
<path d="M3247,7301 L1697,2301" stroke="blue" stroke-width="2" />
<path d="M540,3902 L1761,8554" stroke="blue" stroke-width="2" />
<path d="M4397,2636 L368,951" stroke="blue" stroke-width="2" />
<path d="M1469,8109 L1984,2758" stroke="blue" stroke-width="2" />
<path d="M4582,2673 L4162,7999" stroke="blue" stroke-width="2" />
<path d="M922,8802 L2960,6952" stroke="blue" stroke-width="2" />
<path d="M1993,8396 L1382,6099" stroke="blue" stroke-width="2" />
<path d="M3709,6969 L4844,3762" stroke="blue" stroke-width="2" />
<path d="M3129,4266 L4279,3815" stroke="blue" stroke-width="2" />
<path d="M3482,3203 L3874,4617" stroke="blue" stroke-width="2" />
<path d="M3570,5577 L2106,5980" stroke="blue" stroke-width="2" />
<path d="M1234,4170 L2417,8867" stroke="blue" stroke-width="2" />
<path d="M860,6765 L4422,5097" stroke="blue" stroke-width="2" />
<path d="M718,2697 L588,4104" stroke="blue" stroke-width="2" />
<path d="M551,186 L1587,3187" stroke="blue" stroke-width="2" />
<path d="M3535,5439 L1047,3859" stroke="blue" stroke-width="2" />
<path d="M1811,2125 L2741,7796" stroke="blue" stroke-width="2" />
<path d="M1079,6676 L926,7249" stroke="blue" stroke-width="2" />
<path d="M4353,4408 L2140,1212" stroke="blue" stroke-width="2" />
<path d="M1863,3492 L3951,929" stroke="blue" stroke-width="2" />
<path d="M773,3426 L4634,1269" stroke="blue" stroke-width="2" />
<path d="M3654,3535 L5062,9331" stroke="blue" stroke-width="2" />
<path d="M1995,1049 L3332,221" stroke="blue" stroke-width="2" />
<path d="M4412,4581 L3273,7005" stroke="blue" stroke-width="2" />
<path d="M2438,2684 L4810,7593" stroke="blue" stroke-width="2" />
<path d="M3022,3841 L1014,3068" stroke="blue" stroke-width="2" />
<path d="M2508,9233 L3654,7586" stroke="blue" stroke-width="2" />
<path d="M4114,5950 L1708,537" stroke="blue" stroke-width="2" />
<path d="M1789,4650 L4961,7539" stroke="blue" stroke-width="2" />
<path d="M4565,7952 L1575,492" stroke="blue" stroke-width="2" />
<path d="M1290,333 L1916,2137" stroke="blue" stroke-width="2" />
<path d="M1788,3492 L2358,3917" stroke="blue" stroke-width="2" />
<path d="M1327,2244 L1728,8417" stroke="blue" stroke-width="2" />
<path d="M2257,4074 L1789,322" stroke="blue" stroke-width="2" />
<path d="M2767,2784 L1021,469" stroke="blue" stroke-width="2" />
<path d="M2533,1099 L2518,6941" stroke="blue" stroke-width="2" />
<path d="M3414,6136 L1832,6099" stroke="blue" stroke-width="2" />
<path d="M4703,7423 L3697,3012" stroke="blue" stroke-width="2" />
<path d="M1263,437 L1655,121" stroke="blue" stroke-width="2" />
<path d="M161,5638 L3382,7819" stroke="blue" stroke-width="2" />
<path d="M4825,2984 L4717,2471" stroke="blue" stroke-width="2" />
<path d="M4444,9252 L2544,1088" stroke="blue" stroke-width="2" />
<path d="M2918,4488 L3111,7723" stroke="blue" stroke-width="2" />
<path d="M678,3280 L3403,2965" stroke="blue" stroke-width="2" />
<path d="M4721,91 L4480,6057" stroke="blue" stroke-width="2" />
<path d="M1014,1847 L4837,3051" stroke="blue" stroke-width="2" />
<path d="M1114,2305 L3763,1" stroke="blue" stroke-width="2" />
<path d="M1701,945 L2310,2260" stroke="blue" stroke-width="2" />
<path d="M1845,7201 L2484,7989" stroke="blue" stroke-width="2" />
<path d="M4119,5202 L1226,8181" stroke="blue" stroke-width="2" />
<path d="M4857,20 L3544,6264" stroke="blue" stroke-width="2" />
<path d="M3833,4910 L2629,5935" stroke="blue" stroke-width="2" />
<path d="M1546,5687 L1696,3867" stroke="blue" stroke-width="2" />
<path d="M2192,2288 L2263,4846" stroke="blue" stroke-width="2" />
<path d="M4510,847 L1732,5491" stroke="blue" stroke-width="2" />
<path d="M3270,8302 L719,8487" stroke="blue" stroke-width="2" />
<path d="M4614,9301 L4016,9404" stroke="blue" stroke-width="2" />
<path d="M1466,7982 L559,2049" stroke="blue" stroke-width="2" />
<path d="M11,6942 L5069,5847" stroke="blue" stroke-width="2" />
<path d="M3819,2213 L1400,8011" stroke="blue" stroke-width="2" />
<path d="M939,4209 L3598,2496" stroke="blue" stroke-width="2" />
<path d="M1975,5145 L2730,4764" stroke="blue" stroke-width="2" />
<path d="M3966,984 L2088,12" stroke="blue" stroke-width="2" />
<path d="M2618,3762 L1233,346" stroke="blue" stroke-width="2" />
<path d="M1757,7749 L2450,2520" stroke="blue" stroke-width="2" />
<path d="M4940,8319 L2639,6957" stroke="blue" stroke-width="2" />
<path d="M1230,3529 L3668,1655" stroke="blue" stroke-width="2" />
<path d="M593,2890 L625,1601" stroke="blue" stroke-width="2" />
<path d="M2935,1833 L3215,5035" stroke="blue" stroke-width="2" />
<path d="M1500,471 L2869,557" stroke="blue" stroke-width="2" />
<path d="M4615,7461 L3537,9353" stroke="blue" stroke-width="2" />
<path d="M3485,3367 L2513,5191" stroke="blue" stroke-width="2" />
<path d="M3009,2238 L5076,7654" stroke="blue" stroke-width="2" />
<path d="M2901,1914 L2948,6637" stroke="blue" stroke-width="2" />
<path d="M3664,2389 L297,9414" stroke="blue" stroke-width="2" />
<path d="M1229,5370 L4737,8088" stroke="blue" stroke-width="2" />
<path d="M587,4853 L5095,5534" stroke="blue" stroke-width="2" />
<path d="M2291,7346 L701,526" stroke="blue" stroke-width="2" />
<path d="M2330,367 L2076,4594" stroke="blue" stroke-width="2" />
<path d="M1377,5375 L478,2417" stroke="blue" stroke-width="2" />
<path d="M3601,5975 L894,1338" stroke="blue" stroke-width="2" />
<path d="M0,0 L5227,0" stroke="red" stroke-width="10" />
<path d="M5227,0 L5227,9439" stroke="red" stroke-width="10" />
<path d="M0,9439 L5227,9439" stroke="red" stroke-width="10" />
<path d="M0,9439 L0,0" stroke="red" stroke-width="10" />
</svg>