<?xml version="1.0" encoding="UTF-8"?>
<svg xmlns="http://www.w3.org/2000/svg" xmlns:xlink="http://www.w3.org/1999/xlink"
     width="10000" height="10000" viewBox="0 0 10000 10000">
<defs>
</defs>
<path d="M8902,2811 L4591,2514" stroke="blue" stroke-width="2" />
<path d="M5285,4135 L2333,2433" stroke="blue" stroke-width="2" />
<path d="M3588,4937 L3183,371" stroke="blue" stroke-width="2" />
<path d="M2027,1663 L1880,1792" stroke="blue" stroke-width="2" />
<path d="M5826,93 L7089,4633" stroke="blue" stroke-width="2" />
<path d="M2854,4407 L6438,147" stroke="blue" stroke-width="2" />
<path d="M581,1627 L587,123" stroke="blue" stroke-width="2" />
<path d="M3448,425 L4422,4748" stroke="blue" stroke-width="2" />
<path d="M8703,4051 L3353,782" stroke="blue" stroke-width="2" />
<path d="M1456,4898 L8428,2415" stroke="blue" stroke-width="2" />
<path d="M5588,1790 L5119,983" stroke="blue" stroke-width="2" />
<path d="M6334,722 L7216,1707" stroke="blue" stroke-width="2" />
<path d="M6843,2447 L3547,774" stroke="blue" stroke-width="2" />
<path d="M3631,877 L955,3569" stroke="blue" stroke-width="2" />
<path d="M8875,4495 L959,2661" stroke="blue" stroke-width="2" />
<path d="M2839,2098 L6443,3681" stroke="blue" stroke-width="2" />
<path d="M7681,4524 L68,2863" stroke="blue" stroke-width="2" />
<path d="M9198,8 L9093,1156" stroke="blue" stroke-width="2" />
<path d="M2857,4572 L9187,3795" stroke="blue" stroke-width="2" />
<path d="M5033,3588 L159,2272" stroke="blue" stroke-width="2" />
<path d="M6159,3234 L4036,3051" stroke="blue" stroke-width="2" />
<path d="M3631,3763 L7724,5166" stroke="blue" stroke-width="2" />
<path d="M8962,1431 L2354,3505" stroke="blue" stroke-width="2" />
<path d="M614,4704 L5280,3626" stroke="blue" stroke-width="2" />
<path d="M6065,3931 L7839,590" stroke="blue" stroke-width="2" />
<path d="M1573,331 L7135,757" stroke="blue" stroke-width="2" />
<path d="M3916,1122 L2625,1057" stroke="blue" stroke-width="2" />
<path d="M3773,4471 L6992,481" stroke="blue" stroke-width="2" />
<path d="M1593,4388 L932,2431" stroke="blue" stroke-width="2" />
<path d="M3038,540 L2898,5462" stroke="blue" stroke-width="2" />
<path d="M3051,4998 L5605,3710" stroke="blue" stroke-width="2" />
<path d="M7131,1618 L2019,458" stroke="blue" stroke-width="2" />
<path d="M4950,2315 L7761,929" stroke="blue" stroke-width="2" />
<path d="M7225,4991 L3679,80" stroke="blue" stroke-width="2" />
<path d="M6884,5309 L5040,4656" stroke="blue" stroke-width="2" />
<path d="M6321,575 L7499,2220" stroke="blue" stroke-width="2" />
<path d="M6977,1671 L1195,4313" stroke="blue" stroke-width="2" />
<path d="M6453,4445 L2626,3522" stroke="blue" stroke-width="2" />
<path d="M9086,3882 L3401,1179" stroke="blue" stroke-width="2" />
<path d="M6660,5317 L547,5111" stroke="blue" stroke-width="2" />
<path d="M7868,3027 L5481,5064" stroke="blue" stroke-width="2" />
<path d="M7773,5026 L7166,1698" stroke="blue" stroke-width="2" />
<path d="M7446,4164 L8795,4333" stroke="blue" stroke-width="2" />
<path d="M8845,363 L7071,3131" stroke="blue" stroke-width="2" />
<path d="M493,2500 L6003,5101" stroke="blue" stroke-width="2" />
<path d="M2218,5326 L3484,4945" stroke="blue" stroke-width="2" />
<path d="M6376,5147 L3664,943" stroke="blue" stroke-width="2" />
<path d="M8200,3304 L4728,296" stroke="blue" stroke-width="2" />
<path d="M3562,369 L3597,3691" stroke="blue" stroke-width="2" />
<path d="M7701,788 L7216,2768" stroke="blue" stroke-width="2" />
<path d="M4900,3929 L9177,1371" stroke="blue" stroke-width="2" />
<path d="M1644,2019 L4485,1019" stroke="blue" stroke-width="2" />
<path d="M8222,3001 L2478,5058" stroke="blue" stroke-width="2" />
<path d="M1814,4119 L2181,4411" stroke="blue" stroke-width="2" />
<path d="M702,3529 L4690,1759" stroke="blue" stroke-width="2" />
<path d="M3982,891 L6052,3453" stroke="blue" stroke-width="2" />
<path d="M1709,1410 L3943,4523" stroke="blue" stroke-width="2" />
<path d="M4964,4805 L2890,1596" stroke="blue" stroke-width="2" />
<path d="M1827,1245 L6,2573" stroke="blue" stroke-width="2" />
<path d="M725,2238 L6842,5018" stroke="blue" stroke-width="2" />
<path d="M3687,2707 L5679,308" stroke="blue" stroke-width="2" />
<path d="M2559,3958 L8059,4976" stroke="blue" stroke-width="2" />
<path d="M7581,115 L7370,1196" stroke="blue" stroke-width="2" />
<path d="M5573,4171 L6998,2283" stroke="blue" stroke-width="2" />
<path d="M395,4858 L4935,1497" stroke="blue" stroke-width="2" />
<path d="M7561,247 L8177,555" stroke="blue" stroke-width="2" />
<path d="M5126,55 L1337,2320" stroke="blue" stroke-width="2" />
<path d="M6158,447 L2391,4239" stroke="blue" stroke-width="2" />
<path d="M3214,2986 L3638,2027" stroke="blue" stroke-width="2" />
<path d="M5516,4011 L4775,5230" stroke="blue" stroke-width="2" />
<path d="M5768,4166 L2328,3013" stroke="blue" stroke-width="2" />
<path d="M3673,4322 L4868,2354" stroke="blue" stroke-width="2" />
<path d="M4995,3146 L7202,719" stroke="blue" stroke-width="2" />
<path d="M3547,1859 L5793,4851" stroke="blue" stroke-width="2" />
<path d="M356,1096 L6167,5336" stroke="blue" stroke-width="2" />
<path d="M8396,832 L3929,5375" stroke="blue" stroke-width="2" />
<path d="M844,912 L7915,4647" stroke="blue" stroke-width="2" />
<path d="M3508,1998 L5013,3760" stroke="blue" stroke-width="2" />
<path d="M7818,1349 L5797,2893" stroke="blue" stroke-width="2" />
<path d="M9132,3379 L3227,5276" stroke="blue" stroke-width="2" />
<path d="M8340,673 L6523,4910" stroke="blue" stroke-width="2" />
<path d="M6370,3318 L6296,4329" stroke="blue" stroke-width="2" />
<path d="M2600,1383 L1444,711" stroke="blue" stroke-width="2" />
<path d="M1927,4757 L4292,3411" stroke="blue" stroke-width="2" />
<path d="M2766,2095 L1832,4422" stroke="blue" stroke-width="2" />
<path d="M4799,86 L248,3508" stroke="blue" stroke-width="2" />
<path d="M7606,105 L990,2866" stroke="blue" stroke-width="2" />
<path d="M3595,1183 L7740,1535" stroke="blue" stroke-width="2" />
<path d="M1344,2194 L2290,1253" stroke="blue" stroke-width="2" />
<path d="M764,672 L8414,4021" stroke="blue" stroke-width="2" />
<path d="M7146,4136 L955,3760" stroke="blue" stroke-width="2" />
<path d="M8936,4035 L2842,3552" stroke="blue" stroke-width="2" />
<path d="M2102,5183 L7553,5190" stroke="blue" stroke-width="2" />
<path d="M1414,1108 L2923,885" stroke="blue" stroke-width="2" />
<path d="M179,4636 L8513,2954" stroke="blue" stroke-width="2" />
<path d="M5347,4530 L4618,2158" stroke="blue" stroke-width="2" />
<path d="M5954,892 L2753,1349" stroke="blue" stroke-width="2" />
<path d="M461,5198 L1952,3341" stroke="blue" stroke-width="2" />
<path d="M1182,3934 L6313,111" stroke="blue" stroke-width="2" />
<path d="M1496,3842 L6035,1593" stroke="blue" stroke-width="2" />
<path d="M4290,3951 L7761,1205" stroke="blue" stroke-width="2" />
<path d="M5423,4484 L4644,4129" stroke="blue" stroke-width="2" />
<path d="M5326,3296 L1559,1542" stroke="blue" stroke-width="2" />
<path d="M374,4916 L4701,2175" stroke="blue" stroke-width="2" />
<path d="M8422,1932 L3879,2164" stroke="blue" stroke-width="2" />
<path d="M630,238 L3868,4390" stroke="blue" stroke-width="2" />
<path d="M1093,3724 L5086,3857" stroke="blue" stroke-width="2" />
<path d="M2920,2657 L441,754" stroke="blue" stroke-width="2" />
<path d="M1672,1363 L8766,3002" stroke="blue" stroke-width="2" />
<path d="M1490,5082 L3994,616" stroke="blue" stroke-width="2" />
<path d="M1357,4915 L2380,2341" stroke="blue" stroke-width="2" />
<path d="M7570,2115 L6089,4268" stroke="blue" stroke-width="2" />
<path d="M2238,1620 L447,3217" stroke="blue" stroke-width="2" />
<path d="M3570,92 L8570,4209" stroke="blue" stroke-width="2" />
<path d="M5467,865 L1621,5060" stroke="blue" stroke-width="2" />
<path d="M1971,1427 L422,1668" stroke="blue" stroke-width="2" />
<path d="M6359,3604 L3822,1919" stroke="blue" stroke-width="2" />
<path d="M3949,4669 L3655,2335" stroke="blue" stroke-width="2" />
<path d="M8867,1654 L2169,5090" stroke="blue" stroke-width="2" />
<path d="M2221,2817 L4281,3625" stroke="blue" stroke-width="2" />
<path d="M2244,2932 L7848,1079" stroke="blue" stroke-width="2" />
<path d="M3900,244 L1128,3540" stroke="blue" stroke-width="2" />
<path d="M2771,5024 L589,245" stroke="blue" stroke-width="2" />
<path d="M7947,3809 L1911,811" stroke="blue" stroke-width="2" />
<path d="M8007,172 L7423,1959" stroke="blue" stroke-width="2" />
<path d="M8357,2684 L2571,1771" stroke="blue" stroke-width="2" />
<path d="M5946,3682 L888,4298" stroke="blue" stroke-width="2" />
<path d="M5497,4988 L4994,4924" stroke="blue" stroke-width="2" />
<path d="M8738,3901 L5413,3095" stroke="blue" stroke-width="2" />
<path d="M8008,3568 L7711,5076" stroke="blue" stroke-width="2" />
<path d="M1121,1688 L3424,3990" stroke="blue" stroke-width="2" />
<path d="M7753,5408 L6463,1211" stroke="blue" stroke-width="2" />
<path d="M2381,136 L3128,2292" stroke="blue" stroke-width="2" />
<path d="M8521,4224 L1165,2574" stroke="blue" stroke-width="2" />
<path d="M3603,2561 L209,4737" stroke="blue" stroke-width="2" />
<path d="M5039,2157 L7833,4133" stroke="blue" stroke-width="2" />
<path d="M487,4400 L2574,3678" stroke="blue" stroke-width="2" />
<path d="M4104,221 L6992,3575" stroke="blue" stroke-width="2" />
<path d="M2656,2849 L7133,2569" stroke="blue" stroke-width="2" />
<path d="M483,3395 L7652,3854" stroke="blue" stroke-width="2" />
<path d="M9101,4340 L6155,4434" stroke="blue" stroke-width="2" />
<path d="M8569,2862 L341,1710" stroke="blue" stroke-width="2" />
<path d="M4677,927 L7443,3756" stroke="blue" stroke-width="2" />
<path d="M5856,1791 L904,5280" stroke="blue" stroke-width="2" />
<path d="M9140,4247 L3320,4202" stroke="blue" stroke-width="2" />
<path d="M2009,2943 L4777,980" stroke="blue" stroke-width="2" />
<path d="M6752,4057 L1168,1121" stroke="blue" stroke-width="2" />
<path d="M7889,1834 L6218,5049" stroke="blue" stroke-width="2" />
<path d="M8617,2922 L8020,1522" stroke="blue" stroke-width="2" />
<path d="M7089,91 L7761,2839" stroke="blue" stroke-width="2" />
<path d="M2930,1353 L3525,82" stroke="blue" stroke-width="2" />
<path d="M4859,2437 L7583,1632" stroke="blue" stroke-width="2" />
<path d="M8525,2004 L2956,300" stroke="blue" stroke-width="2" />
<path d="M6477,2956 L361,2925" stroke="blue" stroke-width="2" />
<path d="M5078,4079 L2247,2528" stroke="blue" stroke-width="2" />
<path d="M210,2194 L7553,4761" stroke="blue" stroke-width="2" />
<path d="M3841,4081 L5259,4291" stroke="blue" stroke-width="2" />
<path d="M4031,4728 L344,3045" stroke="blue" stroke-width="2" />
<path d="M7041,4161 L8060,4893" stroke="blue" stroke-width="2" />
<path d="M8219,3480 L8878,4666" stroke="blue" stroke-width="2" />
<path d="M947,4562 L1384,4213" stroke="blue" stroke-width="2" />
<path d="M4733,2853 L2660,1162" stroke="blue" stroke-width="2" />
<path d="M1654,4378 L7852,3989" stroke="blue" stroke-width="2" />
<path d="M546,1854 L8280,4747" stroke="blue" stroke-width="2" />
<path d="M4975,2118 L8675,4873" stroke="blue" stroke-width="2" />
<path d="M7182,5031 L7119,547" stroke="blue" stroke-width="2" />
<path d="M2667,232 L3767,4021" stroke="blue" stroke-width="2" />
<path d="M982,3939 L6474,1143" stroke="blue" stroke-width="2" />
<path d="M7929,5277 L3631,2989" stroke="blue" stroke-width="2" />
<path d="M562,2630 L8789,2919" stroke="blue" stroke-width="2" />
<path d="M2692,1840 L4435,960" stroke="blue" stroke-width="2" />
<path d="M4432,3281 L4333,2065" stroke="blue" stroke-width="2" />
<path d="M3753,2514 L5437,496" stroke="blue" stroke-width="2" />
<path d="M3746,5396 L3504,605" stroke="blue" stroke-width="2" />
<path d="M2229,4389 L6258,3088" stroke="blue" stroke-width="2" />
<path d="M2861,915 L3234,3366" stroke="blue" stroke-width="2" />
<path d="M2816,854 L5114,44" stroke="blue" stroke-width="2" />
<path d="M4633,612 L6856,1462" stroke="blue" stroke-width="2" />
<path d="M837,2772 L4028,2445" stroke="blue" stroke-width="2" />
<path d="M8227,4352 L4411,852" stroke="blue" stroke-width="2" />
<path d="M2886,3310 L6581,2821" stroke="blue" stroke-width="2" />
<path d="M3673,1585 L1211,2631" stroke="blue" stroke-width="2" />
<path d="M3046,2578 L7764,3277" stroke="blue" stroke-width="2" />
<path d="M3071,2742 L1726,1035" stroke="blue" stroke-width="2" />
<path d="M4241,2154 L256,2440" stroke="blue" stroke-width="2" />
<path d="M5652,5454 L6267,3251" stroke="blue" stroke-width="2" />
<path d="M7619,3740 L1740,2005" stroke="blue" stroke-width="2" />
<path d="M6389,4885 L3707,205" stroke="blue" stroke-width="2" />
<path d="M1196,123 L855,3205" stroke="blue" stroke-width="2" />
<path d="M7806,3507 L448,4957" stroke="blue" stroke-width="2" />
<path d="M3468,448 L6763,1320" stroke="blue" stroke-width="2" />
<path d="M8456,2951 L5263,3409" stroke="blue" stroke-width="2" />
<path d="M297,1903 L8549,3149" stroke="blue" stroke-width="2" />
<path d="M721,1521 L1466,2132" stroke="blue" stroke-width="2" />
<path d="M3559,374 L1405,2585" stroke="blue" stroke-width="2" />
<path d="M1972,3787 L89,3983" stroke="blue" stroke-width="2" />
<path d="M7123,5310 L9062,1775" stroke="blue" stroke-width="2" />
<path d="M8980,1841 L8813,3310" stroke="blue" stroke-width="2" />
<path d="M1075,4038 L8169,2918" stroke="blue" stroke-width="2" />
<path d="M2421,3027 L2041,473" stroke="blue" stroke-width="2" />
<path d="M7618,2759 L3275,1540" stroke="blue" stroke-width="2" />
<path d="M8413,4206 L3934,2434" stroke="blue" stroke-width="2" />
<path d="M6437,1424 L8348,1953" stroke="blue" stroke-width="2" />
<path d="M4294,714 L4927,354" stroke="blue" stroke-width="2" />
<path d="M7842,2078 L3506,2275" stroke="blue" stroke-width="2" />
<path d="M131,3883 L577,3250" stroke="blue" stroke-width="2" />
<path d="M4021,435 L2088,5063" stroke="blue" stroke-width="2" />
<path d="M4905,4621 L6522,611" stroke="blue" stroke-width="2" />
<path d="M6624,2472 L218,4566" stroke="blue" stroke-width="2" />
<path d="M6974,1886 L5039,3268" stroke="blue" stroke-width="2" />
<path d="M6854,3917 L4995,2245" stroke="blue" stroke-width="2" />
<path d="M1106,785 L5860,3067" stroke="blue" stroke-width="2" />
<path d="M4884,2243 L1832,893" stroke="blue" stroke-width="2" />
<path d="M4460,2012 L6950,2364" stroke="blue" stroke-width="2" />
<path d="M4602,1 L8884,4609" stroke="blue" stroke-width="2" />
<path d="M2483,4094 L229,2587" stroke="blue" stroke-width="2" />
<path d="M1061,477 L8458,1774" stroke="blue" stroke-width="2" />
<path d="M7893,4338 L2774,1341" stroke="blue" stroke-width="2" />
<path d="M2272,4975 L3911,660" stroke="blue" stroke-width="2" />
<path d="M2502,1409 L8704,933" stroke="blue" stroke-width="2" />
<path d="M7995,1946 L9031,3607" stroke="blue" stroke-width="2" />
<path d="M7955,1966 L2188,5048" stroke="blue" stroke-width="2" />
<path d="M2891,3770 L2666,1779" stroke="blue" stroke-width="2" />
<path d="M2743,5366 L1882,3434" stroke="blue" stroke-width="2" />
<path d="M6529,5425 L4972,1107" stroke="blue" stroke-width="2" />
<path d="M994,3030 L3331,3581" stroke="blue" stroke-width="2" />
<path d="M9067,570 L9211,2351" stroke="blue" stroke-width="2" />
<path d="M172,4869 L7753,3507" stroke="blue" stroke-width="2" />
<path d="M6780,488 L1384,4459" stroke="blue" stroke-width="2" />
<path d="M3756,696 L7914,3142" stroke="blue" stroke-width="2" />
<path d="M4168,1763 L339,1470" stroke="blue" stroke-width="2" />
<path d="M7732,1232 L7201,833" stroke="blue" stroke-width="2" />
<path d="M7141,2032 L1914,4359" stroke="blue" stroke-width="2" />
<path d="M9059,436 L519,600" stroke="blue" stroke-width="2" />
<path d="M7911,521 L4027,2157" stroke="blue" stroke-width="2" />
<path d="M8494,1718 L2140,278" stroke="blue" stroke-width="2" />
<path d="M8103,368 L2055,1635" stroke="blue" stroke-width="2" />
<path d="M1862,1139 L8045,1183" stroke="blue" stroke-width="2" />
<path d="M1230,5461 L7325,4513" stroke="blue" stroke-width="2" />
<path d="M5029,1157 L6617,1247" stroke="blue" stroke-width="2" />
<path d="M3525,1530 L2035,1127" stroke="blue" stroke-width="2" />
<path d="M2274,736 L6398,4443" stroke="blue" stroke-width="2" />
<path d="M8839,3212 L2529,2122" stroke="blue" stroke-width="2" />
<path d="M7418,2880 L6205,4886" stroke="blue" stroke-width="2" />
<path d="M3619,1645 L2806,3051" stroke="blue" stroke-width="2" />
<path d="M5987,3894 L5565,5173" stroke="blue" stroke-width="2" />
<path d="M7610,1234 L6253,785" stroke="blue" stroke-width="2" />
<path d="M1159,5219 L2143,4482" stroke="blue" stroke-width="2" />
<path d="M1579,4545 L5247,5448" stroke="blue" stroke-width="2" />
<path d="M1446,435 L1163,5039" stroke="blue" stroke-width="2" />
<path d="M5075,3712 L3528,3982" stroke="blue" stroke-width="2" />
<path d="M8241,4154 L3193,3758" stroke="blue" stroke-width="2" />
<path d="M6127,36 L3708,3074" stroke="blue" stroke-width="2" />
<path d="M5207,2722 L3078,2312" stroke="blue" stroke-width="2" />
<path d="M1072,3293 L5833,3111" stroke="blue" stroke-width="2" />
<path d="M5457,2552 L7849,3867" stroke="blue" stroke-width="2" />
<path d="M6289,3195 L6658,2297" stroke="blue" stroke-width="2" />
<path d="M1303,3598 L909,693" stroke="blue" stroke-width="2" />
<path d="M7022,265 L8954,1915" stroke="blue" stroke-width="2" />
<path d="M482,671 L7817,3844" stroke="blue" stroke-width="2" />
<path d="M4675,2130 L924,3308" stroke="blue" stroke-width="2" />
<path d="M6581,4915 L3350,5407" stroke="blue" stroke-width="2" />
<path d="M6903,3665 L4009,1507" stroke="blue" stroke-width="2" />
<path d="M6465,527 L882,1732" stroke="blue" stroke-width="2" />
<path d="M5686,473 L12,716" stroke="blue" stroke-width="2" />
<path d="M1061,955 L7975,3774" stroke="blue" stroke-width="2" />
<path d="M2719,1447 L7629,4411" stroke="blue" stroke-width="2" />
<path d="M2768,4138 L7575,4682" stroke="blue" stroke-width="2" />
<path d="M2059,4348 L5097,2314" stroke="blue" stroke-width="2" />
<path d="M367,1672 L412,5094" stroke="blue" stroke-width="2" />
<path d="M2126,2605 L4233,2709" stroke="blue" stroke-width="2" />
<path d="M2840,5141 L4819,3387" stroke="blue" stroke-width="2" />
<path d="M4276,5028 L8561,3524" stroke="blue" stroke-width="2" />
<path d="M5370,5290 L4781,1702" stroke="blue" stroke-width="2" />
<path d="M9031,956 L5324,325" stroke="blue" stroke-width="2" />
<path d="M5859,968 L1164,4724" stroke="blue" stroke-width="2" />
<path d="M2370,516 L179,4351" stroke="blue" stroke-width="2" />
<path d="M1289,514 L2710,4051" stroke="blue" stroke-width="2" />
<path d="M7729,3320 L5349,3853" stroke="blue" stroke-width="2" />
<path d="M5662,3311 L5288,1538" stroke="blue" stroke-width="2" />
<path d="M1307,1649 L6867,183" stroke="blue" stroke-width="2" />
<path d="M9124,3976 L5667,1174" stroke="blue" stroke-width="2" />
<path d="M1105,2897 L2919,1543" stroke="blue" stroke-width="2" />
<path d="M2143,2990 L1905,5214" stroke="blue" stroke-width="2" />
<path d="M1986,4426 L3143,2201" stroke="blue" stroke-width="2" />
<path d="M3490,4227 L7996,3827" stroke="blue" stroke-width="2" />
<path d="M5713,3702 L3507,4474" stroke="blue" stroke-width="2" />
<path d="M5007,2763 L2974,368" stroke="blue" stroke-width="2" />
<path d="M5982,4345 L3032,378" stroke="blue" stroke-width="2" />
<path d="M2644,3282 L2944,4290" stroke="blue" stroke-width="2" />
<path d="M2608,3073 L3992,3270" stroke="blue" stroke-width="2" />
<path d="M1229,2721 L3868,4506" stroke="blue" stroke-width="2" />
<path d="M3215,2599 L7713,1129" stroke="blue" stroke-width="2" />
<path d="M6870,4101 L8772,5004" stroke="blue" stroke-width="2" />
<path d="M1961,5251 L6174,4215" stroke="blue" stroke-width="2" />
<path d="M5869,3324 L1211,661" stroke="blue" stroke-width="2" />
<path d="M5515,1266 L8893,3442" stroke="blue" stroke-width="2" />
<path d="M7678,4555 L7746,3327" stroke="blue" stroke-width="2" />
<path d="M4098,4544 L3336,3470" stroke="blue" stroke-width="2" />
<path d="M1600,894 L5310,318" stroke="blue" stroke-width="2" />
<path d="M3372,1550 L8673,4700" stroke="blue" stroke-width="2" />
<path d="M3236,1456 L5100,1324" stroke="blue" stroke-width="2" />
<path d="M5178,5353 L1129,3004" stroke="blue" stroke-width="2" />
<path d="M2331,5380 L5472,5123" stroke="blue" stroke-width="2" />
<path d="M6194,4250 L7596,2994" stroke="blue" stroke-width="2" />
<path d="M9041,1989 L7576,1144" stroke="blue" stroke-width="2" />
<path d="M6227,1206 L7832,1658" stroke="blue" stroke-width="2" />
<path d="M7683,5417 L155,4776" stroke="blue" stroke-width="2" />
<path d="M3790,1715 L3047,1731" stroke="blue" stroke-width="2" />
<path d="M4283,85 L5948,3553" stroke="blue" stroke-width="2" />
<path d="M1225,1193 L5489,3910" stroke="blue" stroke-width="2" />
<path d="M381,280 L1944,3216" stroke="blue" stroke-width="2" />
<path d="M3364,5263 L5271,386" stroke="blue" stroke-width="2" />
<path d="M3048,2040 L8741,5270" stroke="blue" stroke-width="2" />
<path d="M2106,3982 L4249,4070" stroke="blue" stroke-width="2" />
<path d="M7079,4697 L5937,5102" stroke="blue" stroke-width="2" />
<path d="M2807,2753 L3627,1388" stroke="blue" stroke-width="2" />
<path d="M8543,4445 L7970,350" stroke="blue" stroke-width="2" />
<path d="M924,3965 L1243,4036" stroke="blue" stroke-width="2" />
<path d="M660,872 L5545,2242" stroke="blue" stroke-width="2" />
<path d="M7583,643 L4669,4501" stroke="blue" stroke-width="2" />
<path d="M1091,3991 L1698,1963" stroke="blue" stroke-width="2" />
<path d="M8002,3665 L748,1481" stroke="blue" stroke-width="2" />
<path d="M5760,5030 L8770,1373" stroke="blue" stroke-width="2" />
<path d="M1467,2303 L3886,5312" stroke="blue" stroke-width="2" />
<path d="M8807,2500 L5753,3604" stroke="blue" stroke-width="2" />
<path d="M2068,3880 L7536,1316" stroke="blue" stroke-width="2" />
<path d="M8448,3273 L8294,2115" stroke="blue" stroke-width="2" />
<path d="M6106,456 L2597,846" stroke="blue" stroke-width="2" />
<path d="M7481,3384 L1866,1216" stroke="blue" stroke-width="2" />
<path d="M1255,5383 L1730,2393" stroke="blue" stroke-width="2" />
<path d="M253,3609 L6081,748" stroke="blue" stroke-width="2" />
<path d="M3803,1411 L3908,2023" stroke="blue" stroke-width="2" />
<path d="M8924,3355 L5130,5336" stroke="blue" stroke-width="2" />
<path d="M3431,4883 L1212,3271" stroke="blue" stroke-width="2" />
<path d="M232,1667 L4281,2554" stroke="blue" stroke-width="2" />
<path d="M5076,3355 L139,5239" stroke="blue" stroke-width="2" />
<path d="M138,2041 L5085,3236" stroke="blue" stroke-width="2" />
<path d="M2100,4153 L1484,3150" stroke="blue" stroke-width="2" />
<path d="M8892,3558 L3326,4250" stroke="blue" stroke-width="2" />
<path d="M6353,70 L2261,2204" stroke="blue" stroke-width="2" />
<path d="M7552,943 L3050,2660" stroke="blue" stroke-width="2" />
<path d="M1184,4379 L4776,5355" stroke="blue" stroke-width="2" />
<path d="M9091,2873 L8608,5034" stroke="blue" stroke-width="2" />
<path d="M5508,457 L7608,64" stroke="blue" stroke-width="2" />
<path d="M7708,5410 L1143,3219" stroke="blue" stroke-width="2" />
<path d="M107,1484 L2831,33" stroke="blue" stroke-width="2" />
<path d="M5432,2482 L1822,2877" stroke="blue" stroke-width="2" />
<path d="M5955,889 L7689,3534" stroke="blue" stroke-width="2" />
<path d="M1944,4431 L1497,2287" stroke="blue" stroke-width="2" />
<path d="M2768,4916 L9044,3542" stroke="blue" stroke-width="2" />
<path d="M7139,3266 L796,3926" stroke="blue" stroke-width="2" />
<path d="M3447,556 L1489,1014" stroke="blue" stroke-width="2" />
<path d="M3053,2147 L6226,3611" stroke="blue" stroke-width="2" />
<path d="M6324,2893 L4076,4385" stroke="blue" stroke-width="2" />
<path d="M8288,2239 L6904,4516" stroke="blue" stroke-width="2" />
<path d="M2079,1865 L2958,4085" stroke="blue" stroke-width="2" />
<path d="M4384,3581 L6771,4101" stroke="blue" stroke-width="2" />
<path d="M6192,3798 L8149,2379" stroke="blue" stroke-width="2" />
<path d="M8818,33 L1634,4462" stroke="blue" stroke-width="2" />
<path d="M8391,3271 L1281,856" stroke="blue" stroke-width="2" />
<path d="M2275,1059 L6504,2016" stroke="blue" stroke-width="2" />
<path d="M1232,353 L5007,5300" stroke="blue" stroke-width="2" />
<path d="M5325,2200 L6629,1490" stroke="blue" stroke-width="2" />
<path d="M6897,495 L5434,565" stroke="blue" stroke-width="2" />
<path d="M5550,213 L3954,1618" stroke="blue" stroke-width="2" />
<path d="M1344,2365 L8641,734" stroke="blue" stroke-width="2" />
<path d="M8097,2126 L6923,2686" stroke="blue" stroke-width="2" />
<path d="M785,5344 L892,3393" stroke="blue" stroke-width="2" />
<path d="M7260,4448 L1031,858" stroke="blue" stroke-width="2" />
<path d="M1568,5431 L8217,2518" stroke="blue" stroke-width="2" />
<path d="M3179,866 L2742,1288" stroke="blue" stroke-width="2" />
<path d="M6289,4673 L4705,3253" stroke="blue" stroke-width="2" />
<path d="M7083,5259 L1045,2803" stroke="blue" stroke-width="2" />
<path d="M791,4785 L6768,1199" stroke="blue" stroke-width="2" />
<path d="M8141,2394 L886,3633" stroke="blue" stroke-width="2" />
<path d="M6477,2705 L2705,3509" stroke="blue" stroke-width="2" />
<path d="M5241,3 L3261,4920" stroke="blue" stroke-width="2" />
<path d="M8750,2364 L6200,3585" stroke="blue" stroke-width="2" />
<path d="M3647,2954 L8784,875" stroke="blue" stroke-width="2" />
<path d="M7653,3518 L1216,1234" stroke="blue" stroke-width="2" />
<path d="M6566,107 L289,3740" stroke="blue" stroke-width="2" />
<path d="M6326,4 L8201,253" stroke="blue" stroke-width="2" />
<path d="M6783,3198 L5132,3960" stroke="blue" stroke-width="2" />
<path d="M4254,38 L2695,1115" stroke="blue" stroke-width="2" />
<path d="M2115,4434 L1446,1145" stroke="blue" stroke-width="2" />
<path d="M9121,2156 L5684,3026" stroke="blue" stroke-width="2" />
<path d="M3937,2521 L2332,279" stroke="blue" stroke-width="2" />
<path d="M3213,3603 L8109,2464" stroke="blue" stroke-width="2" />
<path d="M8859,4446 L4145,1366" stroke="blue" stroke-width="2" />
<path d="M878,1229 L4237,2267" stroke="blue" stroke-width="2" />
<path d="M3384,1567 L1132,3622" stroke="blue" stroke-width="2" />
<path d="M365,1735 L3984,1598" stroke="blue" stroke-width="2" />
<path d="M6678,437 L5267,5089" stroke="blue" stroke-width="2" />
<path d="M7029,2760 L4921,213" stroke="blue" stroke-width="2" />
<path d="M8339,2734 L5927,727" stroke="blue" stroke-width="2" />
<path d="M3954,3646 L6504,3414" stroke="blue" stroke-width="2" />
<path d="M2760,5205 L14,4363" stroke="blue" stroke-width="2" />
<path d="M701,652 L2434,2706" stroke="blue" stroke-width="2" />
<path d="M220,753 L8425,2307" stroke="blue" stroke-width="2" />
<path d="M2338,3146 L7229,1430" stroke="blue" stroke-width="2" />
<path d="M7498,1403 L9172,1667" stroke="blue" stroke-width="2" />
<path d="M2452,55 L2120,4466" stroke="blue" stroke-width="2" />
<path d="M7590,4356 L7703,3897" stroke="blue" stroke-width="2" />
<path d="M4491,860 L4694,2167" stroke="blue" stroke-width="2" />
<path d="M89,2094 L2517,1991" stroke="blue" stroke-width="2" />
<path d="M477,544 L4133,5367" stroke="blue" stroke-width="2" />
<path d="M8032,5379 L525,1693" stroke="blue" stroke-width="2" />
<path d="M5944,850 L5630,2713" stroke="blue" stroke-width="2" />
<path d="M6659,1195 L3071,3810" stroke="blue" stroke-width="2" />
<path d="M2314,3130 L3133,4895" stroke="blue" stroke-width="2" />
<path d="M8484,5328 L6215,4246" stroke="blue" stroke-width="2" />
<path d="M3368,4402 L1916,1208" stroke="blue" stroke-width="2" />
<path d="M3868,5182 L4600,1242" stroke="blue" stroke-width="2" />
<path d="M3778,1533 L5730,146" stroke="blue" stroke-width="2" />
<path d="M1295,4897 L154,1519" stroke="blue" stroke-width="2" />
<path d="M1040,3870 L2166,5064" stroke="blue" stroke-width="2" />
<path d="M9052,3566 L6229,5449" stroke="blue" stroke-width="2" />
<path d="M2905,1627 L4672,687" stroke="blue" stroke-width="2" />
<path d="M5668,3924 L3793,2053" stroke="blue" stroke-width="2" />
<path d="M932,2242 L619,2591" stroke="blue" stroke-width="2" />
<path d="M7049,3581 L4604,3725" stroke="blue" stroke-width="2" />
<path d="M220,913 L2128,4867" stroke="blue" stroke-width="2" />
<path d="M1436,4998 L7469,906" stroke="blue" stroke-width="2" />
<path d="M859,5123 L935,230" stroke="blue" stroke-width="2" />
<path d="M3470,5248 L8399,2270" stroke="blue" stroke-width="2" />
<path d="M7630,4408 L931,4068" stroke="blue" stroke-width="2" />
<path d="M1616,484 L6762,4504" stroke="blue" stroke-width="2" />
<path d="M3697,2026 L2680,4992" stroke="blue" stroke-width="2" />
<path d="M6062,3852 L1705,1122" stroke="blue" stroke-width="2" />
<path d="M6318,4220 L7669,4593" stroke="blue" stroke-width="2" />
<path d="M248,795 L111,1531" stroke="blue" stroke-width="2" />
<path d="M8761,964 L4521,4097" stroke="blue" stroke-width="2" />
<path d="M8611,908 L6522,47" stroke="blue" stroke-width="2" />
<path d="M5523,4843 L4594,2177" stroke="blue" stroke-width="2" />
<path d="M4659,3225 L2936,4350" stroke="blue" stroke-width="2" />
<path d="M6279,1289 L5275,2648" stroke="blue" stroke-width="2" />
<path d="M9117,2948 L5596,1440" stroke="blue" stroke-width="2" />
<path d="M1712,624 L2691,3456" stroke="blue" stroke-width="2" />
<path d="M98,3662 L490,4753" stroke="blue" stroke-width="2" />
<path d="M332,4007 L2121,3575" stroke="blue" stroke-width="2" />
<path d="M3102,5398 L6630,1130" stroke="blue" stroke-width="2" />
<path d="M7099,3649 L8794,3048" stroke="blue" stroke-width="2" />
<path d="M1799,2007 L8624,4735" stroke="blue" stroke-width="2" />
<path d="M1524,1081 L3096,2052" stroke="blue" stroke-width="2" />
<path d="M2688,2372 L4981,5173" stroke="blue" stroke-width="2" />
<path d="M8773,1294 L1789,425" stroke="blue" stroke-width="2" />
<path d="M4468,4850 L9147,3138" stroke="blue" stroke-width="2" />
<path d="M8143,4767 L7823,598" stroke="blue" stroke-width="2" />
<path d="M7789,1349 L3521,1108" stroke="blue" stroke-width="2" />
<path d="M5163,5203 L6230,1764" stroke="blue" stroke-width="2" />
<path d="M5622,553 L7916,2153" stroke="blue" stroke-width="2" />
<path d="M0,0 L9227,0" stroke="red" stroke-width="10" />
<path d="M9227,0 L9227,5465" stroke="red" stroke-width="10" />
<path d="M0,5465 L9227,5465" stroke="red" stroke-width="10" />
<path d="M0,5465 L0,0" stroke="red" stroke-width="10" />
</svg>