<?xml version="1.0" encoding="UTF-8"?>
<svg xmlns="http://www.w3.org/2000/svg" xmlns:xlink="http://www.w3.org/1999/xlink"
     width="10000" height="10000" viewBox="0 0 10000 10000">
<defs>
</defs>
<path d="M3192,1478 L2635,3475" stroke="blue" stroke-width="2" />
<path d="M2744,2496 L2287,2276" stroke="blue" stroke-width="2" />
<path d="M1191,4575 L769,7300" stroke="blue" stroke-width="2" />
<path d="M259,2987 L3125,256" stroke="blue" stroke-width="2" />
<path d="M2086,6471 L2297,4495" stroke="blue" stroke-width="2" />
<path d="M1665,484 L527,2248" stroke="blue" stroke-width="2" />
<path d="M1269,2585 L148,6282" stroke="blue" stroke-width="2" />
<path d="M360,5752 L1850,4925" stroke="blue" stroke-width="2" />
<path d="M137,3317 L2087,5102" stroke="blue" stroke-width="2" />
<path d="M3270,7886 L1106,2799" stroke="blue" stroke-width="2" />
<path d="M1331,213 L121,3975" stroke="blue" stroke-width="2" />
<path d="M1526,7619 L695,4770" stroke="blue" stroke-width="2" />
<path d="M2772,5097 L3461,4532" stroke="blue" stroke-width="2" />
<path d="M1057,5088 L991,6533" stroke="blue" stroke-width="2" />
<path d="M249,2381 L362,4063" stroke="blue" stroke-width="2" />
<path d="M1812,3091 L1559,7026" stroke="blue" stroke-width="2" />
<path d="M532,2152 L1757,2353" stroke="blue" stroke-width="2" />
<path d="M1394,2734 L3259,2801" stroke="blue" stroke-width="2" />
<path d="M1238,3481 L3444,2079" stroke="blue" stroke-width="2" />
<path d="M1399,5244 L294,6545" stroke="blue" stroke-width="2" />
<path d="M595,1073 L2021,3505" stroke="blue" stroke-width="2" />
<path d="M1298,6470 L3503,1290" stroke="blue" stroke-width="2" />
<path d="M234,6803 L3436,1755" stroke="blue" stroke-width="2" />
<path d="M736,775 L3230,1085" stroke="blue" stroke-width="2" />
<path d="M2594,2970 L3602,5920" stroke="blue" stroke-width="2" />
<path d="M1823,12 L1589,1179" stroke="blue" stroke-width="2" />
<path d="M439,5861 L1362,2856" stroke="blue" stroke-width="2" />
<path d="M126,413 L1335,5199" stroke="blue" stroke-width="2" />
<path d="M594,1740 L2686,3203" stroke="blue" stroke-width="2" />
<path d="M3211,2571 L387,3686" stroke="blue" stroke-width="2" />
<path d="M3202,4085 L2948,4489" stroke="blue" stroke-width="2" />
<path d="M2543,1028 L2918,1612" stroke="blue" stroke-width="2" />
<path d="M1755,7005 L2713,1832" stroke="blue" stroke-width="2" />
<path d="M1199,6898 L1832,6583" stroke="blue" stroke-width="2" />
<path d="M2602,465 L1484,846" stroke="blue" stroke-width="2" />
<path d="M3319,7585 L1484,1026" stroke="blue" stroke-width="2" />
<path d="M218,1686 L3003,2544" stroke="blue" stroke-width="2" />
<path d="M2723,7278 L3340,780" stroke="blue" stroke-width="2" />
<path d="M952,6691 L484,4378" stroke="blue" stroke-width="2" />
<path d="M229,2027 L78,3503" stroke="blue" stroke-width="2" />
<path d="M2970,2899 L1753,897" stroke="blue" stroke-width="2" />
<path d="M3143,6144 L1371,5854" stroke="blue" stroke-width="2" />
<path d="M993,1160 L1866,462" stroke="blue" stroke-width="2" />
<path d="M2683,2934 L3264,1525" stroke="blue" stroke-width="2" />
<path d="M599,3958 L2119,5424" stroke="blue" stroke-width="2" />
<path d="M1229,1514 L1607,2531" stroke="blue" stroke-width="2" />
<path d="M1721,3888 L1102,5308" stroke="blue" stroke-width="2" />
<path d="M1161,7213 L2925,754" stroke="blue" stroke-width="2" />
<path d="M184,917 L1947,3737" stroke="blue" stroke-width="2" />
<path d="M1698,1721 L2295,50" stroke="blue" stroke-width="2" />
<path d="M1098,5944 L510,3675" stroke="blue" stroke-width="2" />
<path d="M2311,656 L1126,3999" stroke="blue" stroke-width="2" />
<path d="M3456,7915 L2506,6739" stroke="blue" stroke-width="2" />
<path d="M19,1851 L3633,5805" stroke="blue" stroke-width="2" />
<path d="M1036,2733 L2330,6600" stroke="blue" stroke-width="2" />
<path d="M2678,756 L3437,2328" stroke="blue" stroke-width="2" />
<path d="M2107,1671 L2137,7760" stroke="blue" stroke-width="2" />
<path d="M1893,2686 L637,2299" stroke="blue" stroke-width="2" />
<path d="M3253,6767 L2095,1341" stroke="blue" stroke-width="2" />
<path d="M1928,3680 L3565,4121" stroke="blue" stroke-width="2" />
<path d="M1721,4212 L3464,5089" stroke="blue" stroke-width="2" />
<path d="M2852,1524 L1518,1601" stroke="blue" stroke-width="2" />
<path d="M414,4127 L2458,3034" stroke="blue" stroke-width="2" />
<path d="M589,2754 L1542,427" stroke="blue" stroke-width="2" />
<path d="M342,6732 L1698,1682" stroke="blue" stroke-width="2" />
<path d="M1053,6133 L3053,3368" stroke="blue" stroke-width="2" />
<path d="M3582,7468 L433,4448" stroke="blue" stroke-width="2" />
<path d="M3002,5245 L3117,5693" stroke="blue" stroke-width="2" />
<path d="M204,4125 L2555,6465" stroke="blue" stroke-width="2" />
<path d="M1427,6309 L1897,5328" stroke="blue" stroke-width="2" />
<path d="M1410,2792 L687,3484" stroke="blue" stroke-width="2" />
<path d="M2990,3554 L2885,6286" stroke="blue" stroke-width="2" />
<path d="M5,251 L2367,685" stroke="blue" stroke-width="2" />
<path d="M1253,2230 L1623,7921" stroke="blue" stroke-width="2" />
<path d="M3130,2881 L3182,733" stroke="blue" stroke-width="2" />
<path d="M1252,4318 L2645,2583" stroke="blue" stroke-width="2" />
<path d="M2301,819 L229,6041" stroke="blue" stroke-width="2" />
<path d="M2749,5937 L1552,1518" stroke="blue" stroke-width="2" />
<path d="M3199,860 L1597,2321" stroke="blue" stroke-width="2" />
<path d="M2439,5533 L1595,3310" stroke="blue" stroke-width="2" />
<path d="M2575,7493 L31,5334" stroke="blue" stroke-width="2" />
<path d="M1626,4505 L2095,4676" stroke="blue" stroke-width="2" />
<path d="M2761,4711 L3261,420" stroke="blue" stroke-width="2" />
<path d="M186,5652 L3483,5565" stroke="blue" stroke-width="2" />
<path d="M770,5043 L2818,5696" stroke="blue" stroke-width="2" />
<path d="M3234,1487 L2287,1361" stroke="blue" stroke-width="2" />
<path d="M111,5038 L3698,43" stroke="blue" stroke-width="2" />
<path d="M413,175 L2074,1911" stroke="blue" stroke-width="2" />
<path d="M135,2755 L2579,2854" stroke="blue" stroke-width="2" />
<path d="M161,2344 L2864,6566" stroke="blue" stroke-width="2" />
<path d="M2410,700 L678,4189" stroke="blue" stroke-width="2" />
<path d="M3465,4669 L3156,4709" stroke="blue" stroke-width="2" />
<path d="M2882,7598 L2071,3785" stroke="blue" stroke-width="2" />
<path d="M880,6099 L1715,4357" stroke="blue" stroke-width="2" />
<path d="M2603,5492 L2950,4325" stroke="blue" stroke-width="2" />
<path d="M2633,7778 L773,3740" stroke="blue" stroke-width="2" />
<path d="M480,3997 L937,2735" stroke="blue" stroke-width="2" />
<path d="M3042,2127 L699,5340" stroke="blue" stroke-width="2" />
<path d="M3375,3068 L1115,3811" stroke="blue" stroke-width="2" />
<path d="M3170,2827 L1020,6506" stroke="blue" stroke-width="2" />
<path d="M2632,3316 L2858,7622" stroke="blue" stroke-width="2" />
<path d="M2087,3550 L1716,5796" stroke="blue" stroke-width="2" />
<path d="M3033,4878 L1106,2819" stroke="blue" stroke-width="2" />
<path d="M1120,6350 L3574,6048" stroke="blue" stroke-width="2" />
<path d="M3568,2786 L988,4561" stroke="blue" stroke-width="2" />
<path d="M252,647 L1893,5330" stroke="blue" stroke-width="2" />
<path d="M275,57 L3059,3522" stroke="blue" stroke-width="2" />
<path d="M392,5079 L3533,4584" stroke="blue" stroke-width="2" />
<path d="M301,5316 L1386,5747" stroke="blue" stroke-width="2" />
<path d="M1570,4009 L1711,3442" stroke="blue" stroke-width="2" />
<path d="M3345,7901 L258,7398" stroke="blue" stroke-width="2" />
<path d="M2032,7773 L917,7191" stroke="blue" stroke-width="2" />
<path d="M3442,6930 L1554,4217" stroke="blue" stroke-width="2" />
<path d="M3163,2072 L2773,7622" stroke="blue" stroke-width="2" />
<path d="M3099,6583 L614,6641" stroke="blue" stroke-width="2" />
<path d="M2100,4364 L2739,835" stroke="blue" stroke-width="2" />
<path d="M92,5787 L2621,2005" stroke="blue" stroke-width="2" />
<path d="M2994,4549 L2882,7035" stroke="blue" stroke-width="2" />
<path d="M2229,1035 L2943,5564" stroke="blue" stroke-width="2" />
<path d="M448,7858 L3661,2325" stroke="blue" stroke-width="2" />
<path d="M1294,963 L2038,6320" stroke="blue" stroke-width="2" />
<path d="M1831,5370 L301,3088" stroke="blue" stroke-width="2" />
<path d="M2303,2892 L2453,1845" stroke="blue" stroke-width="2" />
<path d="M840,3911 L2596,1631" stroke="blue" stroke-width="2" />
<path d="M2698,5938 L967,3790" stroke="blue" stroke-width="2" />
<path d="M2127,1525 L2134,4592" stroke="blue" stroke-width="2" />
<path d="M1870,7226 L407,5857" stroke="blue" stroke-width="2" />
<path d="M238,7489 L1633,1133" stroke="blue" stroke-width="2" />
<path d="M465,2929 L2602,1712" stroke="blue" stroke-width="2" />
<path d="M1461,4666 L3034,6210" stroke="blue" stroke-width="2" />
<path d="M3486,3229 L3177,7046" stroke="blue" stroke-width="2" />
<path d="M1352,6552 L99,4817" stroke="blue" stroke-width="2" />
<path d="M1594,4659 L38,404" stroke="blue" stroke-width="2" />
<path d="M1689,836 L2208,1974" stroke="blue" stroke-width="2" />
<path d="M3668,6182 L3086,1503" stroke="blue" stroke-width="2" />
<path d="M720,5785 L375,1939" stroke="blue" stroke-width="2" />
<path d="M1047,3638 L3283,465" stroke="blue" stroke-width="2" />
<path d="M2087,7685 L2564,814" stroke="blue" stroke-width="2" />
<path d="M2229,3883 L158,95" stroke="blue" stroke-width="2" />
<path d="M1617,5359 L765,6829" stroke="blue" stroke-width="2" />
<path d="M253,3124 L1541,3870" stroke="blue" stroke-width="2" />
<path d="M2488,3912 L1032,7795" stroke="blue" stroke-width="2" />
<path d="M2315,312 L3252,264" stroke="blue" stroke-width="2" />
<path d="M2997,6150 L1364,3812" stroke="blue" stroke-width="2" />
<path d="M1261,2147 L1320,5312" stroke="blue" stroke-width="2" />
<path d="M154,3110 L2425,5901" stroke="blue" stroke-width="2" />
<path d="M3066,1125 L165,862" stroke="blue" stroke-width="2" />
<path d="M2692,6365 L1998,4500" stroke="blue" stroke-width="2" />
<path d="M497,7660 L2817,6124" stroke="blue" stroke-width="2" />
<path d="M1774,2538 L295,3670" stroke="blue" stroke-width="2" />
<path d="M1629,4750 L3668,1971" stroke="blue" stroke-width="2" />
<path d="M1222,5074 L3528,2835" stroke="blue" stroke-width="2" />
<path d="M3455,4475 L2436,2523" stroke="blue" stroke-width="2" />
<path d="M158,6868 L807,4474" stroke="blue" stroke-width="2" />
<path d="M2980,5971 L3648,2214" stroke="blue" stroke-width="2" />
<path d="M370,7537 L2477,4997" stroke="blue" stroke-width="2" />
<path d="M1249,1674 L541,6816" stroke="blue" stroke-width="2" />
<path d="M1459,4660 L2946,2109" stroke="blue" stroke-width="2" />
<path d="M1417,7402 L2091,3636" stroke="blue" stroke-width="2" />
<path d="M2200,7336 L712,701" stroke="blue" stroke-width="2" />
<path d="M2853,5984 L242,5598" stroke="blue" stroke-width="2" />
<path d="M1218,1862 L893,5898" stroke="blue" stroke-width="2" />
<path d="M1109,1853 L62,5246" stroke="blue" stroke-width="2" />
<path d="M1484,3434 L1784,1690" stroke="blue" stroke-width="2" />
<path d="M618,1684 L1761,5059" stroke="blue" stroke-width="2" />
<path d="M3311,5295 L1100,3952" stroke="blue" stroke-width="2" />
<path d="M2740,7360 L2686,7796" stroke="blue" stroke-width="2" />
<path d="M870,5357 L3669,2569" stroke="blue" stroke-width="2" />
<path d="M1625,6805 L1416,3722" stroke="blue" stroke-width="2" />
<path d="M3048,1013 L850,5155" stroke="blue" stroke-width="2" />
<path d="M2939,479 L1716,801" stroke="blue" stroke-width="2" />
<path d="M673,5487 L361,485" stroke="blue" stroke-width="2" />
<path d="M3113,3219 L2922,1467" stroke="blue" stroke-width="2" />
<path d="M1914,6180 L2165,3146" stroke="blue" stroke-width="2" />
<path d="M900,1834 L938,2466" stroke="blue" stroke-width="2" />
<path d="M2165,5684 L2827,2218" stroke="blue" stroke-width="2" />
<path d="M2860,2279 L940,7296" stroke="blue" stroke-width="2" />
<path d="M3003,4954 L1486,4281" stroke="blue" stroke-width="2" />
<path d="M2106,7560 L531,2868" stroke="blue" stroke-width="2" />
<path d="M2311,5308 L327,417" stroke="blue" stroke-width="2" />
<path d="M2342,7720 L2794,2213" stroke="blue" stroke-width="2" />
<path d="M201,1153 L2233,7369" stroke="blue" stroke-width="2" />
<path d="M3217,826 L2293,2296" stroke="blue" stroke-width="2" />
<path d="M3040,7638 L1083,5333" stroke="blue" stroke-width="2" />
<path d="M1836,6456 L1416,591" stroke="blue" stroke-width="2" />
<path d="M2968,3614 L2272,1175" stroke="blue" stroke-width="2" />
<path d="M1280,3923 L855,809" stroke="blue" stroke-width="2" />
<path d="M3223,2504 L2841,4417" stroke="blue" stroke-width="2" />
<path d="M1108,6497 L1539,890" stroke="blue" stroke-width="2" />
<path d="M1423,6428 L2510,5146" stroke="blue" stroke-width="2" />
<path d="M1516,5027 L2367,6538" stroke="blue" stroke-width="2" />
<path d="M451,1538 L2697,1086" stroke="blue" stroke-width="2" />
<path d="M2300,472 L75,3388" stroke="blue" stroke-width="2" />
<path d="M3446,2272 L1448,7056" stroke="blue" stroke-width="2" />
<path d="M820,2782 L1274,4558" stroke="blue" stroke-width="2" />
<path d="M2297,4645 L1788,2359" stroke="blue" stroke-width="2" />
<path d="M1161,5177 L2564,5270" stroke="blue" stroke-width="2" />
<path d="M1506,4271 L967,60" stroke="blue" stroke-width="2" />
<path d="M1253,6063 L2723,7512" stroke="blue" stroke-width="2" />
<path d="M358,3102 L14,1190" stroke="blue" stroke-width="2" />
<path d="M1886,1324 L3026,5323" stroke="blue" stroke-width="2" />
<path d="M965,1568 L1590,3160" stroke="blue" stroke-width="2" />
<path d="M1599,2126 L1611,4503" stroke="blue" stroke-width="2" />
<path d="M2477,3021 L1915,3253" stroke="blue" stroke-width="2" />
<path d="M1099,226 L1950,873" stroke="blue" stroke-width="2" />
<path d="M3245,5470 L2054,5749" stroke="blue" stroke-width="2" />
<path d="M1192,3447 L2333,1418" stroke="blue" stroke-width="2" />
<path d="M3075,1737 L3086,5629" stroke="blue" stroke-width="2" />
<path d="M1983,7646 L2901,6335" stroke="blue" stroke-width="2" />
<path d="M1416,6643 L3456,7590" stroke="blue" stroke-width="2" />
<path d="M454,6432 L1891,2140" stroke="blue" stroke-width="2" />
<path d="M903,4561 L1187,3537" stroke="blue" stroke-width="2" />
<path d="M995,2886 L1141,6882" stroke="blue" stroke-width="2" />
<path d="M1855,4479 L2319,110" stroke="blue" stroke-width="2" />
<path d="M2842,6728 L1657,2064" stroke="blue" stroke-width="2" />
<path d="M3280,5698 L310,7417" stroke="blue" stroke-width="2" />
<path d="M2301,6392 L2617,135" stroke="blue" stroke-width="2" />
<path d="M2324,2514 L86,3090" stroke="blue" stroke-width="2" />
<path d="M1264,432 L451,7041" stroke="blue" stroke-width="2" />
<path d="M2440,6726 L2364,7790" stroke="blue" stroke-width="2" />
<path d="M3032,1684 L1371,6586" stroke="blue" stroke-width="2" />
<path d="M2786,4218 L964,354" stroke="blue" stroke-width="2" />
<path d="M2403,3461 L2910,4704" stroke="blue" stroke-width="2" />
<path d="M2612,5281 L876,4409" stroke="blue" stroke-width="2" />
<path d="M2118,1378 L2793,6664" stroke="blue" stroke-width="2" />
<path d="M2593,1013 L3214,4323" stroke="blue" stroke-width="2" />
<path d="M206,246 L2656,2746" stroke="blue" stroke-width="2" />
<path d="M558,1518 L424,2766" stroke="blue" stroke-width="2" />
<path d="M1215,3571 L1065,3817" stroke="blue" stroke-width="2" />
<path d="M3610,3636 L3136,2814" stroke="blue" stroke-width="2" />
<path d="M1250,3029 L2764,905" stroke="blue" stroke-width="2" />
<path d="M133,5150 L1576,2009" stroke="blue" stroke-width="2" />
<path d="M518,849 L1913,2182" stroke="blue" stroke-width="2" />
<path d="M1679,945 L980,3972" stroke="blue" stroke-width="2" />
<path d="M723,788 L258,3466" stroke="blue" stroke-width="2" />
<path d="M510,5630 L1729,4660" stroke="blue" stroke-width="2" />
<path d="M2177,3068 L1567,7086" stroke="blue" stroke-width="2" />
<path d="M425,7889 L857,6171" stroke="blue" stroke-width="2" />
<path d="M2853,4406 L1091,1966" stroke="blue" stroke-width="2" />
<path d="M574,6719 L2672,4612" stroke="blue" stroke-width="2" />
<path d="M1037,2590 L97,525" stroke="blue" stroke-width="2" />
<path d="M2255,1981 L138,3427" stroke="blue" stroke-width="2" />
<path d="M409,5879 L1091,5845" stroke="blue" stroke-width="2" />
<path d="M1846,4229 L2974,824" stroke="blue" stroke-width="2" />
<path d="M148,1759 L3706,3097" stroke="blue" stroke-width="2" />
<path d="M3145,3524 L280,3944" stroke="blue" stroke-width="2" />
<path d="M91,1231 L18,2059" stroke="blue" stroke-width="2" />
<path d="M3051,3662 L993,6864" stroke="blue" stroke-width="2" />
<path d="M651,178 L294,2304" stroke="blue" stroke-width="2" />
<path d="M1317,1696 L3096,1493" stroke="blue" stroke-width="2" />
<path d="M3440,1682 L3392,6310" stroke="blue" stroke-width="2" />
<path d="M2488,5831 L2090,640" stroke="blue" stroke-width="2" />
<path d="M3636,1059 L359,6215" stroke="blue" stroke-width="2" />
<path d="M423,6492 L3515,5390" stroke="blue" stroke-width="2" />
<path d="M1279,869 L3612,5194" stroke="blue" stroke-width="2" />
<path d="M26,6742 L3523,4507" stroke="blue" stroke-width="2" />
<path d="M1946,4441 L977,211" stroke="blue" stroke-width="2" />
<path d="M1415,3934 L3462,2195" stroke="blue" stroke-width="2" />
<path d="M417,1674 L588,7762" stroke="blue" stroke-width="2" />
<path d="M2252,5594 L43,5711" stroke="blue" stroke-width="2" />
<path d="M188,4921 L1768,4782" stroke="blue" stroke-width="2" />
<path d="M3275,3156 L2834,7155" stroke="blue" stroke-width="2" />
<path d="M3170,4837 L1340,764" stroke="blue" stroke-width="2" />
<path d="M2207,7029 L796,6209" stroke="blue" stroke-width="2" />
<path d="M178,2367 L2720,3826" stroke="blue" stroke-width="2" />
<path d="M2626,5696 L1900,6826" stroke="blue" stroke-width="2" />
<path d="M3497,5908 L2520,779" stroke="blue" stroke-width="2" />
<path d="M1893,582 L1005,2888" stroke="blue" stroke-width="2" />
<path d="M2458,1430 L250,6710" stroke="blue" stroke-width="2" />
<path d="M3308,4259 L1648,6030" stroke="blue" stroke-width="2" />
<path d="M2220,732 L225,6766" stroke="blue" stroke-width="2" />
<path d="M142,642 L202,4098" stroke="blue" stroke-width="2" />
<path d="M232,618 L3707,6422" stroke="blue" stroke-width="2" />
<path d="M639,7296 L2750,6545" stroke="blue" stroke-width="2" />
<path d="M2862,3518 L3617,2036" stroke="blue" stroke-width="2" />
<path d="M2988,4699 L1260,7438" stroke="blue" stroke-width="2" />
<path d="M1236,6483 L1131,1569" stroke="blue" stroke-width="2" />
<path d="M256,3684 L3708,6992" stroke="blue" stroke-width="2" />
<path d="M3095,7656 L295,165" stroke="blue" stroke-width="2" />
<path d="M3248,4488 L2190,1625" stroke="blue" stroke-width="2" />
<path d="M3307,657 L659,2633" stroke="blue" stroke-width="2" />
<path d="M3677,1181 L1724,6760" stroke="blue" stroke-width="2" />
<path d="M3022,2824 L359,4834" stroke="blue" stroke-width="2" />
<path d="M471,1522 L54,923" stroke="blue" stroke-width="2" />
<path d="M1898,2153 L2366,6750" stroke="blue" stroke-width="2" />
<path d="M1179,4559 L1272,5727" stroke="blue" stroke-width="2" />
<path d="M1815,6250 L275,4953" stroke="blue" stroke-width="2" />
<path d="M1114,2322 L2076,460" stroke="blue" stroke-width="2" />
<path d="M1505,5175 L2131,3419" stroke="blue" stroke-width="2" />
<path d="M1705,6200 L1097,356" stroke="blue" stroke-width="2" />
<path d="M238,5863 L124,3125" stroke="blue" stroke-width="2" />
<path d="M1146,3643 L3257,2721" stroke="blue" stroke-width="2" />
<path d="M504,1394 L2205,1471" stroke="blue" stroke-width="2" />
<path d="M2623,6612 L2090,1284" stroke="blue" stroke-width="2" />
<path d="M1265,1139 L937,2221" stroke="blue" stroke-width="2" />
<path d="M759,49 L228,3410" stroke="blue" stroke-width="2" />
<path d="M2386,1973 L121,2695" stroke="blue" stroke-width="2" />
<path d="M3513,4170 L98,4164" stroke="blue" stroke-width="2" />
<path d="M3502,4215 L2520,73" stroke="blue" stroke-width="2" />
<path d="M3596,3678 L1143,3384" stroke="blue" stroke-width="2" />
<path d="M2043,1570 L1473,657" stroke="blue" stroke-width="2" />
<path d="M811,5710 L786,672" stroke="blue" stroke-width="2" />
<path d="M1090,3704 L3652,3483" stroke="blue" stroke-width="2" />
<path d="M3476,5458 L3078,3534" stroke="blue" stroke-width="2" />
<path d="M1873,5893 L2432,7420" stroke="blue" stroke-width="2" />
<path d="M1203,7225 L2831,5968" stroke="blue" stroke-width="2" />
<path d="M2270,600 L607,129" stroke="blue" stroke-width="2" />
<path d="M1236,3056 L913,6839" stroke="blue" stroke-width="2" />
<path d="M1599,6467 L1236,6630" stroke="blue" stroke-width="2" />
<path d="M519,529 L3329,6732" stroke="blue" stroke-width="2" />
<path d="M3278,6048 L1448,7586" stroke="blue" stroke-width="2" />
<path d="M1049,4445 L1830,1664" stroke="blue" stroke-width="2" />
<path d="M1982,7482 L728,262" stroke="blue" stroke-width="2" />
<path d="M398,281 L2634,7222" stroke="blue" stroke-width="2" />
<path d="M943,5498 L516,3173" stroke="blue" stroke-width="2" />
<path d="M2464,5464 L3303,3503" stroke="blue" stroke-width="2" />
<path d="M3597,6332 L3058,4369" stroke="blue" stroke-width="2" />
<path d="M3543,7211 L2704,3674" stroke="blue" stroke-width="2" />
<path d="M2614,4275 L3536,1144" stroke="blue" stroke-width="2" />
<path d="M2278,3600 L3147,6058" stroke="blue" stroke-width="2" />
<path d="M1427,6145 L2400,5799" stroke="blue" stroke-width="2" />
<path d="M794,4986 L1393,1018" stroke="blue" stroke-width="2" />
<path d="M1022,4276 L200,2611" stroke="blue" stroke-width="2" />
<path d="M947,7659 L3377,2325" stroke="blue" stroke-width="2" />
<path d="M3681,901 L3212,1985" stroke="blue" stroke-width="2" />
<path d="M3400,4164 L2746,4663" stroke="blue" stroke-width="2" />
<path d="M1294,2100 L3663,1448" stroke="blue" stroke-width="2" />
<path d="M3332,7684 L1724,1886" stroke="blue" stroke-width="2" />
<path d="M3217,837 L3389,835" stroke="blue" stroke-width="2" />
<path d="M2304,4196 L2483,3407" stroke="blue" stroke-width="2" />
<path d="M1233,5373 L3644,7633" stroke="blue" stroke-width="2" />
<path d="M1137,5672 L2953,237" stroke="blue" stroke-width="2" />
<path d="M2918,3147 L2073,5141" stroke="blue" stroke-width="2" />
<path d="M3693,3537 L1593,5551" stroke="blue" stroke-width="2" />
<path d="M542,1756 L470,1989" stroke="blue" stroke-width="2" />
<path d="M3374,2755 L2011,124" stroke="blue" stroke-width="2" />
<path d="M2608,5652 L2204,7299" stroke="blue" stroke-width="2" />
<path d="M1186,1984 L3148,2721" stroke="blue" stroke-width="2" />
<path d="M1835,7074 L605,7938" stroke="blue" stroke-width="2" />
<path d="M3421,3643 L3001,901" stroke="blue" stroke-width="2" />
<path d="M3034,7081 L2243,6997" stroke="blue" stroke-width="2" />
<path d="M1846,3315 L313,723" stroke="blue" stroke-width="2" />
<path d="M727,3818 L487,1115" stroke="blue" stroke-width="2" />
<path d="M1125,6567 L2019,2288" stroke="blue" stroke-width="2" />
<path d="M2709,5488 L82,2252" stroke="blue" stroke-width="2" />
<path d="M3697,962 L2018,2060" stroke="blue" stroke-width="2" />
<path d="M274,7233 L1062,1255" stroke="blue" stroke-width="2" />
<path d="M347,5207 L721,939" stroke="blue" stroke-width="2" />
<path d="M15,2453 L1936,1425" stroke="blue" stroke-width="2" />
<path d="M795,1186 L26,3349" stroke="blue" stroke-width="2" />
<path d="M1260,3456 L3474,386" stroke="blue" stroke-width="2" />
<path d="M1794,3109 L3315,1754" stroke="blue" stroke-width="2" />
<path d="M2192,2060 L59,3866" stroke="blue" stroke-width="2" />
<path d="M605,4439 L2062,5551" stroke="blue" stroke-width="2" />
<path d="M397,4545 L247,6023" stroke="blue" stroke-width="2" />
<path d="M3390,3299 L1248,3338" stroke="blue" stroke-width="2" />
<path d="M3539,7551 L2592,5993" stroke="blue" stroke-width="2" />
<path d="M1352,3457 L544,5933" stroke="blue" stroke-width="2" />
<path d="M3428,4392 L2326,1080" stroke="blue" stroke-width="2" />
<path d="M3307,587 L549,1659" stroke="blue" stroke-width="2" />
<path d="M859,3348 L1461,864" stroke="blue" stroke-width="2" />
<path d="M3599,3121 L2614,7798" stroke="blue" stroke-width="2" />
<path d="M763,3880 L1806,6602" stroke="blue" stroke-width="2" />
<path d="M1152,2893 L767,4277" stroke="blue" stroke-width="2" />
<path d="M2913,3363 L3514,7065" stroke="blue" stroke-width="2" />
<path d="M2510,2555 L1450,3899" stroke="blue" stroke-width="2" />
<path d="M2161,6173 L1438,5858" stroke="blue" stroke-width="2" />
<path d="M2763,4046 L2473,2014" stroke="blue" stroke-width="2" />
<path d="M2782,6459 L1870,3672" stroke="blue" stroke-width="2" />
<path d="M1975,3009 L1029,5735" stroke="blue" stroke-width="2" />
<path d="M927,4757 L1629,6006" stroke="blue" stroke-width="2" />
<path d="M1228,5196 L877,4757" stroke="blue" stroke-width="2" />
<path d="M3112,1642 L2975,4909" stroke="blue" stroke-width="2" />
<path d="M745,5435 L3695,3162" stroke="blue" stroke-width="2" />
<path d="M3005,3936 L262,6981" stroke="blue" stroke-width="2" />
<path d="M1733,6024 L2024,1021" stroke="blue" stroke-width="2" />
<path d="M657,2728 L2164,5795" stroke="blue" stroke-width="2" />
<path d="M3225,3681 L1474,2549" stroke="blue" stroke-width="2" />
<path d="M532,3240 L3687,4485" stroke="blue" stroke-width="2" />
<path d="M1662,654 L1422,131" stroke="blue" stroke-width="2" />
<path d="M1182,181 L3562,2307" stroke="blue" stroke-width="2" />
<path d="M449,3848 L496,5798" stroke="blue" stroke-width="2" />
<path d="M2870,5395 L435,1360" stroke="blue" stroke-width="2" />
<path d="M3163,5251 L757,6647" stroke="blue" stroke-width="2" />
<path d="M2568,441 L690,7641" stroke="blue" stroke-width="2" />
<path d="M1636,58 L1590,2103" stroke="blue" stroke-width="2" />
<path d="M3146,1657 L91,7135" stroke="blue" stroke-width="2" />
<path d="M3375,6561 L3673,5856" stroke="blue" stroke-width="2" />
<path d="M1390,5466 L3661,6934" stroke="blue" stroke-width="2" />
<path d="M2796,272 L1526,5585" stroke="blue" stroke-width="2" />
<path d="M2490,2543 L1722,1595" stroke="blue" stroke-width="2" />
<path d="M1725,4 L1828,1075" stroke="blue" stroke-width="2" />
<path d="M3343,5021 L1445,2290" stroke="blue" stroke-width="2" />
<path d="M1191,5794 L523,3789" stroke="blue" stroke-width="2" />
<path d="M1979,885 L3317,5353" stroke="blue" stroke-width="2" />
<path d="M3410,4398 L1357,4493" stroke="blue" stroke-width="2" />
<path d="M531,6440 L2329,7857" stroke="blue" stroke-width="2" />
<path d="M3365,1299 L3195,4029" stroke="blue" stroke-width="2" />
<path d="M2442,6267 L3503,6549" stroke="blue" stroke-width="2" />
<path d="M2268,610 L1976,7314" stroke="blue" stroke-width="2" />
<path d="M2327,6511 L2746,1033" stroke="blue" stroke-width="2" />
<path d="M2603,1055 L2929,568" stroke="blue" stroke-width="2" />
<path d="M1346,5438 L1518,7053" stroke="blue" stroke-width="2" />
<path d="M2324,2812 L1970,2161" stroke="blue" stroke-width="2" />
<path d="M3113,6367 L1329,102" stroke="blue" stroke-width="2" />
<path d="M1110,7859 L2013,7897" stroke="blue" stroke-width="2" />
<path d="M991,4729 L921,4570" stroke="blue" stroke-width="2" />
<path d="M2338,6516 L1748,4861" stroke="blue" stroke-width="2" />
<path d="M3258,4125 L3336,1979" stroke="blue" stroke-width="2" />
<path d="M3084,6826 L522,5147" stroke="blue" stroke-width="2" />
<path d="M3240,3536 L1166,7556" stroke="blue" stroke-width="2" />
<path d="M2848,36 L1984,7077" stroke="blue" stroke-width="2" />
<path d="M1114,3906 L3111,7688" stroke="blue" stroke-width="2" />
<path d="M3648,7571 L385,870" stroke="blue" stroke-width="2" />
<path d="M1455,2171 L3517,3989" stroke="blue" stroke-width="2" />
<path d="M3500,695 L648,4894" stroke="blue" stroke-width="2" />
<path d="M1007,4846 L1362,1085" stroke="blue" stroke-width="2" />
<path d="M1993,4682 L1171,7653" stroke="blue" stroke-width="2" />
<path d="M0,3882 L2104,1369" stroke="blue" stroke-width="2" />
<path d="M2258,5887 L2177,1816" stroke="blue" stroke-width="2" />
<path d="M1938,3104 L3529,6780" stroke="blue" stroke-width="2" />
<path d="M3384,3507 L2269,983" stroke="blue" stroke-width="2" />
<path d="M54,737 L1066,983" stroke="blue" stroke-width="2" />
<path d="M1442,317 L941,6686" stroke="blue" stroke-width="2" />
<path d="M3101,2253 L2960,3224" stroke="blue" stroke-width="2" />
<path d="M0,0 L3716,0" stroke="red" stroke-width="10" />
<path d="M3716,0 L3716,7941" stroke="red" stroke-width="10" />
<path d="M0,7941 L3716,7941" stroke="red" stroke-width="10" />
<path d="M0,7941 L0,0" stroke="red" stroke-width="10" />
</svg>