<?xml version="1.0" encoding="UTF-8"?>
<svg xmlns="http://www.w3.org/2000/svg" xmlns:xlink="http://www.w3.org/1999/xlink"
     width="10000" height="10000" viewBox="0 0 10000 10000">
<defs>
</defs>
<path d="M1098,1254 L357,2206" stroke="blue" stroke-width="2" />
<path d="M1176,6187 L325,6584" stroke="blue" stroke-width="2" />
<path d="M69,4946 L237,6220" stroke="blue" stroke-width="2" />
<path d="M1255,3500 L1050,5898" stroke="blue" stroke-width="2" />
<path d="M115,7237 L1392,2645" stroke="blue" stroke-width="2" />
<path d="M305,174 L152,2579" stroke="blue" stroke-width="2" />
<path d="M740,6259 L1346,873" stroke="blue" stroke-width="2" />
<path d="M1167,1375 L1324,2254" stroke="blue" stroke-width="2" />
<path d="M1114,5042 L831,6275" stroke="blue" stroke-width="2" />
<path d="M1029,7151 L613,3527" stroke="blue" stroke-width="2" />
<path d="M722,3652 L56,3856" stroke="blue" stroke-width="2" />
<path d="M795,3579 L379,1281" stroke="blue" stroke-width="2" />
<path d="M72,399 L415,7433" stroke="blue" stroke-width="2" />
<path d="M213,6504 L537,1151" stroke="blue" stroke-width="2" />
<path d="M212,2628 L55,5242" stroke="blue" stroke-width="2" />
<path d="M300,3836 L1358,3704" stroke="blue" stroke-width="2" />
<path d="M1240,3745 L1237,3626" stroke="blue" stroke-width="2" />
<path d="M993,1447 L1040,218" stroke="blue" stroke-width="2" />
<path d="M611,331 L850,5918" stroke="blue" stroke-width="2" />
<path d="M667,6490 L887,4678" stroke="blue" stroke-width="2" />
<path d="M1142,5089 L397,6186" stroke="blue" stroke-width="2" />
<path d="M236,3372 L648,6114" stroke="blue" stroke-width="2" />
<path d="M339,7708 L946,436" stroke="blue" stroke-width="2" />
<path d="M856,364 L620,3086" stroke="blue" stroke-width="2" />
<path d="M1369,956 L1088,6574" stroke="blue" stroke-width="2" />
<path d="M1192,1434 L581,806" stroke="blue" stroke-width="2" />
<path d="M689,3050 L1150,7278" stroke="blue" stroke-width="2" />
<path d="M294,1223 L756,2721" stroke="blue" stroke-width="2" />
<path d="M1240,6488 L795,385" stroke="blue" stroke-width="2" />
<path d="M738,5375 L92,3317" stroke="blue" stroke-width="2" />
<path d="M668,2469 L889,5388" stroke="blue" stroke-width="2" />
<path d="M498,5595 L1246,259" stroke="blue" stroke-width="2" />
<path d="M206,5323 L61,4987" stroke="blue" stroke-width="2" />
<path d="M682,3526 L509,5269" stroke="blue" stroke-width="2" />
<path d="M471,4555 L859,7146" stroke="blue" stroke-width="2" />
<path d="M489,2578 L471,2267" stroke="blue" stroke-width="2" />
<path d="M784,7176 L266,5632" stroke="blue" stroke-width="2" />
<path d="M34,7190 L230,6302" stroke="blue" stroke-width="2" />
<path d="M217,4434 L910,7505" stroke="blue" stroke-width="2" />
<path d="M415,4176 L305,5582" stroke="blue" stroke-width="2" />
<path d="M130,5164 L1125,4932" stroke="blue" stroke-width="2" />
<path d="M536,5091 L149,41" stroke="blue" stroke-width="2" />
<path d="M418,6999 L294,5538" stroke="blue" stroke-width="2" />
<path d="M147,5789 L246,4754" stroke="blue" stroke-width="2" />
<path d="M771,1619 L1042,1429" stroke="blue" stroke-width="2" />
<path d="M1245,2654 L1206,6792" stroke="blue" stroke-width="2" />
<path d="M768,2927 L1001,4838" stroke="blue" stroke-width="2" />
<path d="M522,2590 L613,2993" stroke="blue" stroke-width="2" />
<path d="M361,2636 L1086,3031" stroke="blue" stroke-width="2" />
<path d="M884,6504 L887,4631" stroke="blue" stroke-width="2" />
<path d="M763,5598 L678,234" stroke="blue" stroke-width="2" />
<path d="M786,5795 L1380,5839" stroke="blue" stroke-width="2" />
<path d="M409,1097 L558,4273" stroke="blue" stroke-width="2" />
<path d="M1064,2904 L1117,2925" stroke="blue" stroke-width="2" />
<path d="M821,4432 L1252,4483" stroke="blue" stroke-width="2" />
<path d="M98,6113 L370,2649" stroke="blue" stroke-width="2" />
<path d="M746,5350 L500,3838" stroke="blue" stroke-width="2" />
<path d="M596,2150 L1242,4407" stroke="blue" stroke-width="2" />
<path d="M506,2703 L683,507" stroke="blue" stroke-width="2" />
<path d="M163,3594 L10,4343" stroke="blue" stroke-width="2" />
<path d="M278,194 L968,68" stroke="blue" stroke-width="2" />
<path d="M1099,6023 L189,4857" stroke="blue" stroke-width="2" />
<path d="M214,5832 L887,4619" stroke="blue" stroke-width="2" />
<path d="M964,2452 L793,3092" stroke="blue" stroke-width="2" />
<path d="M704,2632 L1250,88" stroke="blue" stroke-width="2" />
<path d="M184,7658 L121,2844" stroke="blue" stroke-width="2" />
<path d="M1006,7570 L331,3571" stroke="blue" stroke-width="2" />
<path d="M633,1963 L499,6660" stroke="blue" stroke-width="2" />
<path d="M393,4856 L1216,2262" stroke="blue" stroke-width="2" />
<path d="M1114,6 L585,6383" stroke="blue" stroke-width="2" />
<path d="M401,1376 L941,3208" stroke="blue" stroke-width="2" />
<path d="M432,4880 L808,4837" stroke="blue" stroke-width="2" />
<path d="M469,4064 L819,814" stroke="blue" stroke-width="2" />
<path d="M113,4924 L484,3897" stroke="blue" stroke-width="2" />
<path d="M530,6719 L569,6331" stroke="blue" stroke-width="2" />
<path d="M1335,6998 L291,1653" stroke="blue" stroke-width="2" />
<path d="M257,7127 L59,1855" stroke="blue" stroke-width="2" />
<path d="M993,3807 L61,5342" stroke="blue" stroke-width="2" />
<path d="M1283,4998 L0,3791" stroke="blue" stroke-width="2" />
<path d="M1364,2241 L1194,3372" stroke="blue" stroke-width="2" />
<path d="M951,7120 L1393,1271" stroke="blue" stroke-width="2" />
<path d="M847,4916 L240,7565" stroke="blue" stroke-width="2" />
<path d="M1330,6360 L990,7809" stroke="blue" stroke-width="2" />
<path d="M40,7519 L1313,5215" stroke="blue" stroke-width="2" />
<path d="M223,1736 L65,525" stroke="blue" stroke-width="2" />
<path d="M516,1374 L891,2394" stroke="blue" stroke-width="2" />
<path d="M104,5647 L1329,6662" stroke="blue" stroke-width="2" />
<path d="M1164,4337 L442,1881" stroke="blue" stroke-width="2" />
<path d="M1071,6028 L1169,2031" stroke="blue" stroke-width="2" />
<path d="M375,7850 L222,3698" stroke="blue" stroke-width="2" />
<path d="M1109,600 L303,6006" stroke="blue" stroke-width="2" />
<path d="M1188,5411 L116,2557" stroke="blue" stroke-width="2" />
<path d="M813,1601 L719,5126" stroke="blue" stroke-width="2" />
<path d="M1317,6636 L711,211" stroke="blue" stroke-width="2" />
<path d="M920,5124 L1333,7443" stroke="blue" stroke-width="2" />
<path d="M359,5789 L1183,3566" stroke="blue" stroke-width="2" />
<path d="M661,4898 L730,1786" stroke="blue" stroke-width="2" />
<path d="M128,5736 L1381,6620" stroke="blue" stroke-width="2" />
<path d="M592,2915 L926,7504" stroke="blue" stroke-width="2" />
<path d="M113,1226 L603,885" stroke="blue" stroke-width="2" />
<path d="M767,756 L979,936" stroke="blue" stroke-width="2" />
<path d="M807,2602 L493,7884" stroke="blue" stroke-width="2" />
<path d="M531,3711 L245,7050" stroke="blue" stroke-width="2" />
<path d="M1355,2058 L187,1901" stroke="blue" stroke-width="2" />
<path d="M743,5895 L835,1756" stroke="blue" stroke-width="2" />
<path d="M600,5942 L1071,2686" stroke="blue" stroke-width="2" />
<path d="M225,1877 L240,3501" stroke="blue" stroke-width="2" />
<path d="M1187,3734 L1248,5494" stroke="blue" stroke-width="2" />
<path d="M1266,3577 L1089,4218" stroke="blue" stroke-width="2" />
<path d="M259,1481 L973,370" stroke="blue" stroke-width="2" />
<path d="M30,6565 L556,1376" stroke="blue" stroke-width="2" />
<path d="M946,5928 L252,3177" stroke="blue" stroke-width="2" />
<path d="M301,7202 L937,3545" stroke="blue" stroke-width="2" />
<path d="M1261,1007 L890,6794" stroke="blue" stroke-width="2" />
<path d="M1188,2926 L798,1870" stroke="blue" stroke-width="2" />
<path d="M1171,5038 L590,3372" stroke="blue" stroke-width="2" />
<path d="M655,5623 L100,1886" stroke="blue" stroke-width="2" />
<path d="M1378,3836 L456,5595" stroke="blue" stroke-width="2" />
<path d="M968,4214 L1109,1594" stroke="blue" stroke-width="2" />
<path d="M1365,1685 L839,4336" stroke="blue" stroke-width="2" />
<path d="M1208,1230 L807,3779" stroke="blue" stroke-width="2" />
<path d="M1366,4616 L96,5324" stroke="blue" stroke-width="2" />
<path d="M1104,1333 L163,6540" stroke="blue" stroke-width="2" />
<path d="M188,2643 L865,7367" stroke="blue" stroke-width="2" />
<path d="M955,6690 L884,3067" stroke="blue" stroke-width="2" />
<path d="M1153,2910 L207,7576" stroke="blue" stroke-width="2" />
<path d="M1007,6232 L722,1172" stroke="blue" stroke-width="2" />
<path d="M1348,6552 L1346,113" stroke="blue" stroke-width="2" />
<path d="M615,678 L510,7018" stroke="blue" stroke-width="2" />
<path d="M1148,6085 L21,6773" stroke="blue" stroke-width="2" />
<path d="M1149,401 L432,6365" stroke="blue" stroke-width="2" />
<path d="M989,5074 L1139,4879" stroke="blue" stroke-width="2" />
<path d="M727,6635 L903,7570" stroke="blue" stroke-width="2" />
<path d="M558,7694 L1388,4283" stroke="blue" stroke-width="2" />
<path d="M885,2568 L319,587" stroke="blue" stroke-width="2" />
<path d="M69,4588 L1028,7723" stroke="blue" stroke-width="2" />
<path d="M616,453 L734,7368" stroke="blue" stroke-width="2" />
<path d="M927,6117 L88,7447" stroke="blue" stroke-width="2" />
<path d="M27,3974 L262,659" stroke="blue" stroke-width="2" />
<path d="M579,5940 L5,6759" stroke="blue" stroke-width="2" />
<path d="M1207,1537 L1299,5614" stroke="blue" stroke-width="2" />
<path d="M1151,6670 L1137,3471" stroke="blue" stroke-width="2" />
<path d="M756,4962 L291,1219" stroke="blue" stroke-width="2" />
<path d="M423,1364 L637,3991" stroke="blue" stroke-width="2" />
<path d="M194,1305 L189,990" stroke="blue" stroke-width="2" />
<path d="M909,5461 L1098,4120" stroke="blue" stroke-width="2" />
<path d="M779,1426 L1041,3708" stroke="blue" stroke-width="2" />
<path d="M1186,3031 L114,3557" stroke="blue" stroke-width="2" />
<path d="M344,5591 L1252,3590" stroke="blue" stroke-width="2" />
<path d="M476,4406 L167,1495" stroke="blue" stroke-width="2" />
<path d="M1222,6493 L207,1488" stroke="blue" stroke-width="2" />
<path d="M1198,6373 L787,3595" stroke="blue" stroke-width="2" />
<path d="M1055,2712 L965,323" stroke="blue" stroke-width="2" />
<path d="M744,3434 L228,6752" stroke="blue" stroke-width="2" />
<path d="M521,7398 L639,1609" stroke="blue" stroke-width="2" />
<path d="M366,2241 L1134,3224" stroke="blue" stroke-width="2" />
<path d="M1341,1456 L1089,2809" stroke="blue" stroke-width="2" />
<path d="M509,6606 L73,5130" stroke="blue" stroke-width="2" />
<path d="M685,649 L103,3094" stroke="blue" stroke-width="2" />
<path d="M1023,1346 L339,439" stroke="blue" stroke-width="2" />
<path d="M1320,5418 L305,5835" stroke="blue" stroke-width="2" />
<path d="M1042,3173 L305,1706" stroke="blue" stroke-width="2" />
<path d="M115,6899 L379,2844" stroke="blue" stroke-width="2" />
<path d="M1390,2712 L1157,437" stroke="blue" stroke-width="2" />
<path d="M1346,6798 L739,4553" stroke="blue" stroke-width="2" />
<path d="M920,2878 L62,2258" stroke="blue" stroke-width="2" />
<path d="M120,387 L668,3138" stroke="blue" stroke-width="2" />
<path d="M432,1485 L84,7423" stroke="blue" stroke-width="2" />
<path d="M577,2710 L114,5908" stroke="blue" stroke-width="2" />
<path d="M985,3448 L928,1936" stroke="blue" stroke-width="2" />
<path d="M734,4498 L627,7155" stroke="blue" stroke-width="2" />
<path d="M164,3082 L1170,17" stroke="blue" stroke-width="2" />
<path d="M591,3347 L1327,7276" stroke="blue" stroke-width="2" />
<path d="M1009,7069 L67,1086" stroke="blue" stroke-width="2" />
<path d="M702,7105 L294,1567" stroke="blue" stroke-width="2" />
<path d="M567,1518 L601,805" stroke="blue" stroke-width="2" />
<path d="M491,536 L908,3476" stroke="blue" stroke-width="2" />
<path d="M749,6338 L283,524" stroke="blue" stroke-width="2" />
<path d="M843,5686 L109,3674" stroke="blue" stroke-width="2" />
<path d="M317,5618 L759,2223" stroke="blue" stroke-width="2" />
<path d="M1156,7819 L1104,6244" stroke="blue" stroke-width="2" />
<path d="M293,1949 L1349,882" stroke="blue" stroke-width="2" />
<path d="M1187,2805 L99,2553" stroke="blue" stroke-width="2" />
<path d="M1349,7196 L75,5346" stroke="blue" stroke-width="2" />
<path d="M929,6277 L1316,936" stroke="blue" stroke-width="2" />
<path d="M674,391 L1179,5128" stroke="blue" stroke-width="2" />
<path d="M885,2789 L121,1597" stroke="blue" stroke-width="2" />
<path d="M582,2047 L111,5396" stroke="blue" stroke-width="2" />
<path d="M1341,7885 L1091,665" stroke="blue" stroke-width="2" />
<path d="M764,6078 L593,4469" stroke="blue" stroke-width="2" />
<path d="M1295,7392 L401,4442" stroke="blue" stroke-width="2" />
<path d="M1225,6150 L1179,4380" stroke="blue" stroke-width="2" />
<path d="M895,7508 L336,2806" stroke="blue" stroke-width="2" />
<path d="M50,1442 L516,3107" stroke="blue" stroke-width="2" />
<path d="M731,1122 L376,998" stroke="blue" stroke-width="2" />
<path d="M430,2010 L404,629" stroke="blue" stroke-width="2" />
<path d="M834,1302 L1046,3512" stroke="blue" stroke-width="2" />
<path d="M1169,4342 L649,5108" stroke="blue" stroke-width="2" />
<path d="M302,2636 L646,6010" stroke="blue" stroke-width="2" />
<path d="M894,732 L1069,2634" stroke="blue" stroke-width="2" />
<path d="M491,1404 L1058,6468" stroke="blue" stroke-width="2" />
<path d="M1109,414 L732,6355" stroke="blue" stroke-width="2" />
<path d="M1298,1923 L1212,3237" stroke="blue" stroke-width="2" />
<path d="M1061,7726 L981,1288" stroke="blue" stroke-width="2" />
<path d="M450,5127 L125,6676" stroke="blue" stroke-width="2" />
<path d="M992,5645 L641,5781" stroke="blue" stroke-width="2" />
<path d="M192,1063 L735,979" stroke="blue" stroke-width="2" />
<path d="M1395,6351 L1134,5671" stroke="blue" stroke-width="2" />
<path d="M501,7083 L360,3104" stroke="blue" stroke-width="2" />
<path d="M1352,3401 L1079,1233" stroke="blue" stroke-width="2" />
<path d="M678,1870 L305,7083" stroke="blue" stroke-width="2" />
<path d="M654,5351 L784,5698" stroke="blue" stroke-width="2" />
<path d="M1104,7538 L432,5055" stroke="blue" stroke-width="2" />
<path d="M608,2151 L933,3550" stroke="blue" stroke-width="2" />
<path d="M599,3036 L195,6352" stroke="blue" stroke-width="2" />
<path d="M1154,774 L63,4615" stroke="blue" stroke-width="2" />
<path d="M44,722 L1264,5242" stroke="blue" stroke-width="2" />
<path d="M791,4713 L1009,1829" stroke="blue" stroke-width="2" />
<path d="M2,4393 L1273,5580" stroke="blue" stroke-width="2" />
<path d="M655,1386 L338,7846" stroke="blue" stroke-width="2" />
<path d="M563,3976 L239,6676" stroke="blue" stroke-width="2" />
<path d="M1355,3061 L877,4893" stroke="blue" stroke-width="2" />
<path d="M168,5315 L849,4539" stroke="blue" stroke-width="2" />
<path d="M922,2386 L1080,7345" stroke="blue" stroke-width="2" />
<path d="M815,3633 L47,1142" stroke="blue" stroke-width="2" />
<path d="M206,3414 L1162,5145" stroke="blue" stroke-width="2" />
<path d="M604,1215 L1111,2037" stroke="blue" stroke-width="2" />
<path d="M148,308 L725,5577" stroke="blue" stroke-width="2" />
<path d="M1345,988 L230,4038" stroke="blue" stroke-width="2" />
<path d="M1248,623 L1168,6097" stroke="blue" stroke-width="2" />
<path d="M1149,5018 L1002,2052" stroke="blue" stroke-width="2" />
<path d="M1004,7044 L210,4261" stroke="blue" stroke-width="2" />
<path d="M45,7264 L1377,6764" stroke="blue" stroke-width="2" />
<path d="M1370,4206 L849,6867" stroke="blue" stroke-width="2" />
<path d="M186,6170 L1206,2254" stroke="blue" stroke-width="2" />
<path d="M832,5794 L1231,3385" stroke="blue" stroke-width="2" />
<path d="M1313,1196 L1307,1019" stroke="blue" stroke-width="2" />
<path d="M1168,1475 L800,7108" stroke="blue" stroke-width="2" />
<path d="M723,5014 L205,5950" stroke="blue" stroke-width="2" />
<path d="M256,1240 L1247,3609" stroke="blue" stroke-width="2" />
<path d="M665,3583 L1388,859" stroke="blue" stroke-width="2" />
<path d="M1142,7358 L165,1255" stroke="blue" stroke-width="2" />
<path d="M535,4092 L179,5516" stroke="blue" stroke-width="2" />
<path d="M133,1589 L1229,4397" stroke="blue" stroke-width="2" />
<path d="M57,4864 L635,3547" stroke="blue" stroke-width="2" />
<path d="M932,4128 L238,1362" stroke="blue" stroke-width="2" />
<path d="M1090,4440 L70,6861" stroke="blue" stroke-width="2" />
<path d="M201,7332 L873,3785" stroke="blue" stroke-width="2" />
<path d="M614,4414 L340,3130" stroke="blue" stroke-width="2" />
<path d="M1375,7227 L732,7733" stroke="blue" stroke-width="2" />
<path d="M519,5161 L1139,2619" stroke="blue" stroke-width="2" />
<path d="M200,3958 L253,215" stroke="blue" stroke-width="2" />
<path d="M368,4793 L1309,2652" stroke="blue" stroke-width="2" />
<path d="M1047,1242 L785,5402" stroke="blue" stroke-width="2" />
<path d="M905,1697 L1049,1312" stroke="blue" stroke-width="2" />
<path d="M4,4400 L956,1116" stroke="blue" stroke-width="2" />
<path d="M794,5823 L1016,4820" stroke="blue" stroke-width="2" />
<path d="M593,7717 L123,6564" stroke="blue" stroke-width="2" />
<path d="M929,1749 L830,2080" stroke="blue" stroke-width="2" />
<path d="M790,7576 L253,5718" stroke="blue" stroke-width="2" />
<path d="M580,742 L578,3561" stroke="blue" stroke-width="2" />
<path d="M764,4286 L1198,2890" stroke="blue" stroke-width="2" />
<path d="M558,3573 L119,1137" stroke="blue" stroke-width="2" />
<path d="M1363,6038 L432,6921" stroke="blue" stroke-width="2" />
<path d="M721,4057 L95,7691" stroke="blue" stroke-width="2" />
<path d="M997,4186 L219,190" stroke="blue" stroke-width="2" />
<path d="M1265,5344 L266,5359" stroke="blue" stroke-width="2" />
<path d="M960,4191 L551,6832" stroke="blue" stroke-width="2" />
<path d="M646,5445 L811,1001" stroke="blue" stroke-width="2" />
<path d="M706,2949 L194,3565" stroke="blue" stroke-width="2" />
<path d="M1040,3913 L912,5406" stroke="blue" stroke-width="2" />
<path d="M1066,1412 L745,2118" stroke="blue" stroke-width="2" />
<path d="M1191,6681 L949,1136" stroke="blue" stroke-width="2" />
<path d="M1392,6699 L492,7840" stroke="blue" stroke-width="2" />
<path d="M866,7271 L1091,462" stroke="blue" stroke-width="2" />
<path d="M345,4485 L1374,5732" stroke="blue" stroke-width="2" />
<path d="M822,3675 L1367,6265" stroke="blue" stroke-width="2" />
<path d="M591,7599 L951,4512" stroke="blue" stroke-width="2" />
<path d="M760,6029 L978,1744" stroke="blue" stroke-width="2" />
<path d="M47,1206 L728,2119" stroke="blue" stroke-width="2" />
<path d="M126,1830 L223,6168" stroke="blue" stroke-width="2" />
<path d="M789,2296 L1241,1497" stroke="blue" stroke-width="2" />
<path d="M991,6653 L749,3282" stroke="blue" stroke-width="2" />
<path d="M589,6373 L492,7493" stroke="blue" stroke-width="2" />
<path d="M537,5008 L428,6105" stroke="blue" stroke-width="2" />
<path d="M851,1051 L614,5441" stroke="blue" stroke-width="2" />
<path d="M1188,5087 L965,7243" stroke="blue" stroke-width="2" />
<path d="M1302,460 L155,4644" stroke="blue" stroke-width="2" />
<path d="M43,304 L624,6333" stroke="blue" stroke-width="2" />
<path d="M54,6244 L937,3175" stroke="blue" stroke-width="2" />
<path d="M122,4884 L24,3408" stroke="blue" stroke-width="2" />
<path d="M231,5873 L1007,209" stroke="blue" stroke-width="2" />
<path d="M320,674 L196,1201" stroke="blue" stroke-width="2" />
<path d="M925,6875 L688,6185" stroke="blue" stroke-width="2" />
<path d="M367,453 L771,7742" stroke="blue" stroke-width="2" />
<path d="M1092,2390 L171,5368" stroke="blue" stroke-width="2" />
<path d="M348,5524 L171,908" stroke="blue" stroke-width="2" />
<path d="M1153,922 L1191,2000" stroke="blue" stroke-width="2" />
<path d="M602,5380 L657,3772" stroke="blue" stroke-width="2" />
<path d="M1009,1134 L975,1293" stroke="blue" stroke-width="2" />
<path d="M486,7472 L1291,83" stroke="blue" stroke-width="2" />
<path d="M964,7885 L1348,3517" stroke="blue" stroke-width="2" />
<path d="M1093,4160 L276,3843" stroke="blue" stroke-width="2" />
<path d="M556,5536 L805,3261" stroke="blue" stroke-width="2" />
<path d="M942,5142 L300,4300" stroke="blue" stroke-width="2" />
<path d="M531,6778 L38,3310" stroke="blue" stroke-width="2" />
<path d="M443,7328 L186,2898" stroke="blue" stroke-width="2" />
<path d="M1139,5689 L1379,7768" stroke="blue" stroke-width="2" />
<path d="M516,1640 L1222,5158" stroke="blue" stroke-width="2" />
<path d="M1227,1629 L276,2868" stroke="blue" stroke-width="2" />
<path d="M165,5976 L1182,1482" stroke="blue" stroke-width="2" />
<path d="M20,2288 L970,7766" stroke="blue" stroke-width="2" />
<path d="M1049,106 L782,1775" stroke="blue" stroke-width="2" />
<path d="M731,2880 L382,1651" stroke="blue" stroke-width="2" />
<path d="M303,1316 L532,7056" stroke="blue" stroke-width="2" />
<path d="M158,2628 L549,1867" stroke="blue" stroke-width="2" />
<path d="M475,6592 L1186,2467" stroke="blue" stroke-width="2" />
<path d="M1180,287 L461,2576" stroke="blue" stroke-width="2" />
<path d="M632,6779 L821,4260" stroke="blue" stroke-width="2" />
<path d="M1086,20 L896,5997" stroke="blue" stroke-width="2" />
<path d="M737,2497 L1285,1668" stroke="blue" stroke-width="2" />
<path d="M781,432 L766,4357" stroke="blue" stroke-width="2" />
<path d="M1368,2507 L1331,2028" stroke="blue" stroke-width="2" />
<path d="M369,5561 L420,4003" stroke="blue" stroke-width="2" />
<path d="M230,4584 L1144,3725" stroke="blue" stroke-width="2" />
<path d="M237,7592 L58,5439" stroke="blue" stroke-width="2" />
<path d="M745,2262 L1035,2729" stroke="blue" stroke-width="2" />
<path d="M1218,295 L104,7432" stroke="blue" stroke-width="2" />
<path d="M1109,300 L541,4670" stroke="blue" stroke-width="2" />
<path d="M1019,3213 L771,2209" stroke="blue" stroke-width="2" />
<path d="M995,7655 L307,2064" stroke="blue" stroke-width="2" />
<path d="M1338,6939 L715,6017" stroke="blue" stroke-width="2" />
<path d="M386,6704 L219,7326" stroke="blue" stroke-width="2" />
<path d="M1097,6538 L546,469" stroke="blue" stroke-width="2" />
<path d="M1197,4815 L174,3754" stroke="blue" stroke-width="2" />
<path d="M34,3420 L600,2948" stroke="blue" stroke-width="2" />
<path d="M1065,5618 L121,3591" stroke="blue" stroke-width="2" />
<path d="M851,7747 L167,6681" stroke="blue" stroke-width="2" />
<path d="M521,3434 L253,2458" stroke="blue" stroke-width="2" />
<path d="M1253,3828 L1268,4399" stroke="blue" stroke-width="2" />
<path d="M366,6998 L217,6934" stroke="blue" stroke-width="2" />
<path d="M1353,1425 L770,7442" stroke="blue" stroke-width="2" />
<path d="M276,7463 L316,6938" stroke="blue" stroke-width="2" />
<path d="M526,7890 L960,3778" stroke="blue" stroke-width="2" />
<path d="M236,7602 L1256,4645" stroke="blue" stroke-width="2" />
<path d="M312,7635 L167,6727" stroke="blue" stroke-width="2" />
<path d="M167,4672 L149,5949" stroke="blue" stroke-width="2" />
<path d="M1218,7041 L590,7026" stroke="blue" stroke-width="2" />
<path d="M934,2908 L1129,802" stroke="blue" stroke-width="2" />
<path d="M1282,4276 L119,3467" stroke="blue" stroke-width="2" />
<path d="M936,4802 L1076,3038" stroke="blue" stroke-width="2" />
<path d="M49,2113 L1226,5372" stroke="blue" stroke-width="2" />
<path d="M969,4203 L1071,5818" stroke="blue" stroke-width="2" />
<path d="M1,3646 L725,176" stroke="blue" stroke-width="2" />
<path d="M111,1338 L347,1508" stroke="blue" stroke-width="2" />
<path d="M533,5785 L221,679" stroke="blue" stroke-width="2" />
<path d="M789,3580 L1033,3833" stroke="blue" stroke-width="2" />
<path d="M236,3320 L254,4530" stroke="blue" stroke-width="2" />
<path d="M793,7825 L1109,7367" stroke="blue" stroke-width="2" />
<path d="M1016,2147 L1269,2206" stroke="blue" stroke-width="2" />
<path d="M636,2569 L962,6921" stroke="blue" stroke-width="2" />
<path d="M258,6634 L325,3125" stroke="blue" stroke-width="2" />
<path d="M634,5805 L677,5305" stroke="blue" stroke-width="2" />
<path d="M374,7494 L891,687" stroke="blue" stroke-width="2" />
<path d="M593,7711 L1080,7150" stroke="blue" stroke-width="2" />
<path d="M873,2448 L594,3640" stroke="blue" stroke-width="2" />
<path d="M1349,3626 L901,4450" stroke="blue" stroke-width="2" />
<path d="M957,2136 L146,6192" stroke="blue" stroke-width="2" />
<path d="M776,3324 L1013,6848" stroke="blue" stroke-width="2" />
<path d="M570,3795 L670,6849" stroke="blue" stroke-width="2" />
<path d="M789,6495 L1331,7889" stroke="blue" stroke-width="2" />
<path d="M1387,3611 L214,5710" stroke="blue" stroke-width="2" />
<path d="M998,2712 L221,7110" stroke="blue" stroke-width="2" />
<path d="M289,302 L301,1043" stroke="blue" stroke-width="2" />
<path d="M1266,5329 L300,5636" stroke="blue" stroke-width="2" />
<path d="M1390,34 L1157,7142" stroke="blue" stroke-width="2" />
<path d="M373,7715 L18,3290" stroke="blue" stroke-width="2" />
<path d="M76,1440 L793,1485" stroke="blue" stroke-width="2" />
<path d="M1014,1020 L10,1957" stroke="blue" stroke-width="2" />
<path d="M616,4473 L1132,2105" stroke="blue" stroke-width="2" />
<path d="M165,7727 L361,5862" stroke="blue" stroke-width="2" />
<path d="M728,1293 L440,5545" stroke="blue" stroke-width="2" />
<path d="M810,3770 L804,5083" stroke="blue" stroke-width="2" />
<path d="M1273,6500 L1138,171" stroke="blue" stroke-width="2" />
<path d="M777,3628 L232,5336" stroke="blue" stroke-width="2" />
<path d="M383,3337 L1324,2686" stroke="blue" stroke-width="2" />
<path d="M479,6126 L1350,2969" stroke="blue" stroke-width="2" />
<path d="M250,11 L303,4845" stroke="blue" stroke-width="2" />
<path d="M422,7754 L804,355" stroke="blue" stroke-width="2" />
<path d="M807,7025 L659,3941" stroke="blue" stroke-width="2" />
<path d="M203,3814 L1181,6649" stroke="blue" stroke-width="2" />
<path d="M976,5187 L1030,7240" stroke="blue" stroke-width="2" />
<path d="M779,2806 L285,981" stroke="blue" stroke-width="2" />
<path d="M1092,7463 L1383,6823" stroke="blue" stroke-width="2" />
<path d="M159,7230 L122,4962" stroke="blue" stroke-width="2" />
<path d="M0,0 L1397,0" stroke="red" stroke-width="10" />
<path d="M1397,0 L1397,7900" stroke="red" stroke-width="10" />
<path d="M0,7900 L1397,7900" stroke="red" stroke-width="10" />
<path d="M0,7900 L0,0" stroke="red" stroke-width="10" />
</svg>