<?xml version="1.0" encoding="UTF-8"?>
<svg xmlns="http://www.w3.org/2000/svg" xmlns:xlink="http://www.w3.org/1999/xlink"
     width="10000" height="10000" viewBox="0 0 10000 10000">
<defs>
</defs>
<path d="M5545,6531 L5914,3660" stroke="blue" stroke-width="2" />
<path d="M3354,262 L232,1430" stroke="blue" stroke-width="2" />
<path d="M53,4505 L3437,6949" stroke="blue" stroke-width="2" />
<path d="M87,8020 L5664,2085" stroke="blue" stroke-width="2" />
<path d="M4329,2137 L2789,6385" stroke="blue" stroke-width="2" />
<path d="M2646,2692 L1748,4825" stroke="blue" stroke-width="2" />
<path d="M1577,6965 L3899,6807" stroke="blue" stroke-width="2" />
<path d="M630,6876 L1418,3821" stroke="blue" stroke-width="2" />
<path d="M4908,3116 L4342,6757" stroke="blue" stroke-width="2" />
<path d="M4088,2071 L3567,5232" stroke="blue" stroke-width="2" />
<path d="M4449,3950 L4656,6429" stroke="blue" stroke-width="2" />
<path d="M1491,3481 L1236,5672" stroke="blue" stroke-width="2" />
<path d="M959,4372 L3775,4768" stroke="blue" stroke-width="2" />
<path d="M4037,2826 L1976,4532" stroke="blue" stroke-width="2" />
<path d="M2696,7224 L4114,4340" stroke="blue" stroke-width="2" />
<path d="M2764,4887 L1187,1547" stroke="blue" stroke-width="2" />
<path d="M735,791 L4935,5148" stroke="blue" stroke-width="2" />
<path d="M4803,220 L4991,3870" stroke="blue" stroke-width="2" />
<path d="M3876,8103 L4243,2331" stroke="blue" stroke-width="2" />
<path d="M1303,6412 L5830,7020" stroke="blue" stroke-width="2" />
<path d="M190,4036 L4325,6057" stroke="blue" stroke-width="2" />
<path d="M5340,4331 L2290,3050" stroke="blue" stroke-width="2" />
<path d="M6151,2333 L248,2699" stroke="blue" stroke-width="2" />
<path d="M3583,4789 L5480,4467" stroke="blue" stroke-width="2" />
<path d="M2283,7859 L1337,170" stroke="blue" stroke-width="2" />
<path d="M1877,2619 L4608,3874" stroke="blue" stroke-width="2" />
<path d="M4229,3044 L5968,4905" stroke="blue" stroke-width="2" />
<path d="M4014,5240 L6029,2119" stroke="blue" stroke-width="2" />
<path d="M5776,7223 L4988,1196" stroke="blue" stroke-width="2" />
<path d="M5343,5477 L423,351" stroke="blue" stroke-width="2" />
<path d="M3389,2842 L293,1819" stroke="blue" stroke-width="2" />
<path d="M5309,4032 L5605,5218" stroke="blue" stroke-width="2" />
<path d="M4992,3174 L819,1037" stroke="blue" stroke-width="2" />
<path d="M5783,352 L4981,5827" stroke="blue" stroke-width="2" />
<path d="M6031,5687 L948,51" stroke="blue" stroke-width="2" />
<path d="M472,2973 L4446,6500" stroke="blue" stroke-width="2" />
<path d="M3236,3382 L4443,3722" stroke="blue" stroke-width="2" />
<path d="M1165,2895 L1297,4590" stroke="blue" stroke-width="2" />
<path d="M1142,4322 L3011,873" stroke="blue" stroke-width="2" />
<path d="M2051,345 L1222,893" stroke="blue" stroke-width="2" />
<path d="M2046,3041 L3817,7354" stroke="blue" stroke-width="2" />
<path d="M3696,930 L2123,745" stroke="blue" stroke-width="2" />
<path d="M564,298 L581,4420" stroke="blue" stroke-width="2" />
<path d="M5214,3778 L392,4588" stroke="blue" stroke-width="2" />
<path d="M4385,3504 L227,1516" stroke="blue" stroke-width="2" />
<path d="M4781,5980 L5565,2554" stroke="blue" stroke-width="2" />
<path d="M3486,3718 L3267,6359" stroke="blue" stroke-width="2" />
<path d="M4245,2244 L4537,7269" stroke="blue" stroke-width="2" />
<path d="M2287,1526 L3130,1059" stroke="blue" stroke-width="2" />
<path d="M2512,3353 L3285,4916" stroke="blue" stroke-width="2" />
<path d="M5996,3979 L4773,3053" stroke="blue" stroke-width="2" />
<path d="M5367,7158 L1678,126" stroke="blue" stroke-width="2" />
<path d="M2572,8126 L3765,652" stroke="blue" stroke-width="2" />
<path d="M121,2833 L3160,2273" stroke="blue" stroke-width="2" />
<path d="M2431,700 L3673,1884" stroke="blue" stroke-width="2" />
<path d="M6140,4694 L1580,1044" stroke="blue" stroke-width="2" />
<path d="M3960,2010 L2828,1692" stroke="blue" stroke-width="2" />
<path d="M3820,1505 L3735,5220" stroke="blue" stroke-width="2" />
<path d="M1922,7258 L2972,7924" stroke="blue" stroke-width="2" />
<path d="M3816,7573 L5495,483" stroke="blue" stroke-width="2" />
<path d="M3505,6373 L6082,254" stroke="blue" stroke-width="2" />
<path d="M5321,3283 L4262,2400" stroke="blue" stroke-width="2" />
<path d="M5047,6515 L5434,6925" stroke="blue" stroke-width="2" />
<path d="M3396,3852 L4098,4448" stroke="blue" stroke-width="2" />
<path d="M6144,7871 L2670,5716" stroke="blue" stroke-width="2" />
<path d="M2707,3982 L990,2828" stroke="blue" stroke-width="2" />
<path d="M5078,6910 L1629,1865" stroke="blue" stroke-width="2" />
<path d="M462,6029 L4194,7989" stroke="blue" stroke-width="2" />
<path d="M2109,2090 L2422,2664" stroke="blue" stroke-width="2" />
<path d="M3824,2951 L332,5403" stroke="blue" stroke-width="2" />
<path d="M2323,3462 L768,6889" stroke="blue" stroke-width="2" />
<path d="M4484,6789 L5572,450" stroke="blue" stroke-width="2" />
<path d="M319,4686 L2513,6587" stroke="blue" stroke-width="2" />
<path d="M4191,2781 L5848,6257" stroke="blue" stroke-width="2" />
<path d="M249,5861 L3169,5968" stroke="blue" stroke-width="2" />
<path d="M4882,3472 L1622,5304" stroke="blue" stroke-width="2" />
<path d="M2942,1823 L2682,5732" stroke="blue" stroke-width="2" />
<path d="M2049,4936 L4326,5070" stroke="blue" stroke-width="2" />
<path d="M6165,6485 L4003,3443" stroke="blue" stroke-width="2" />
<path d="M2170,129 L334,8019" stroke="blue" stroke-width="2" />
<path d="M2183,5472 L712,5490" stroke="blue" stroke-width="2" />
<path d="M1423,454 L5022,3959" stroke="blue" stroke-width="2" />
<path d="M3675,5026 L1358,1521" stroke="blue" stroke-width="2" />
<path d="M5785,4657 L3855,3501" stroke="blue" stroke-width="2" />
<path d="M4992,3677 L3272,8024" stroke="blue" stroke-width="2" />
<path d="M1245,5511 L2161,3522" stroke="blue" stroke-width="2" />
<path d="M5421,7436 L633,2945" stroke="blue" stroke-width="2" />
<path d="M5115,5649 L4145,7181" stroke="blue" stroke-width="2" />
<path d="M5032,7989 L4515,7636" stroke="blue" stroke-width="2" />
<path d="M1676,250 L512,6618" stroke="blue" stroke-width="2" />
<path d="M2320,2558 L2998,3779" stroke="blue" stroke-width="2" />
<path d="M5509,2268 L3105,893" stroke="blue" stroke-width="2" />
<path d="M5111,6971 L3689,3193" stroke="blue" stroke-width="2" />
<path d="M2148,1458 L19,7618" stroke="blue" stroke-width="2" />
<path d="M1193,2801 L5872,7624" stroke="blue" stroke-width="2" />
<path d="M440,7134 L4033,6363" stroke="blue" stroke-width="2" />
<path d="M3629,2823 L4282,3682" stroke="blue" stroke-width="2" />
<path d="M6150,5956 L3185,4636" stroke="blue" stroke-width="2" />
<path d="M6099,3401 L2542,3820" stroke="blue" stroke-width="2" />
<path d="M6132,1080 L1066,1248" stroke="blue" stroke-width="2" />
<path d="M3988,6138 L3505,3619" stroke="blue" stroke-width="2" />
<path d="M3880,1779 L785,4627" stroke="blue" stroke-width="2" />
<path d="M4648,2129 L187,2978" stroke="blue" stroke-width="2" />
<path d="M238,2829 L4584,7868" stroke="blue" stroke-width="2" />
<path d="M4036,6305 L3633,3269" stroke="blue" stroke-width="2" />
<path d="M2449,6233 L272,414" stroke="blue" stroke-width="2" />
<path d="M5252,4193 L1555,7294" stroke="blue" stroke-width="2" />
<path d="M4832,6855 L4524,6971" stroke="blue" stroke-width="2" />
<path d="M303,4479 L1574,4911" stroke="blue" stroke-width="2" />
<path d="M2565,976 L6021,4421" stroke="blue" stroke-width="2" />
<path d="M4088,16 L4752,1983" stroke="blue" stroke-width="2" />
<path d="M5691,1198 L5503,3049" stroke="blue" stroke-width="2" />
<path d="M3938,3138 L5374,4676" stroke="blue" stroke-width="2" />
<path d="M3749,2338 L4468,7220" stroke="blue" stroke-width="2" />
<path d="M3329,2797 L5331,1759" stroke="blue" stroke-width="2" />
<path d="M878,2272 L58,7737" stroke="blue" stroke-width="2" />
<path d="M399,4591 L257,4041" stroke="blue" stroke-width="2" />
<path d="M5941,6439 L2262,7333" stroke="blue" stroke-width="2" />
<path d="M1387,316 L1829,4941" stroke="blue" stroke-width="2" />
<path d="M3054,5770 L0,2494" stroke="blue" stroke-width="2" />
<path d="M99,3149 L1842,3682" stroke="blue" stroke-width="2" />
<path d="M2760,2178 L925,5535" stroke="blue" stroke-width="2" />
<path d="M2514,5839 L799,4425" stroke="blue" stroke-width="2" />
<path d="M4282,1530 L5113,120" stroke="blue" stroke-width="2" />
<path d="M5467,5441 L2865,1911" stroke="blue" stroke-width="2" />
<path d="M5193,1488 L5455,4214" stroke="blue" stroke-width="2" />
<path d="M1995,6038 L2386,4157" stroke="blue" stroke-width="2" />
<path d="M469,7346 L2119,533" stroke="blue" stroke-width="2" />
<path d="M3279,151 L3364,6000" stroke="blue" stroke-width="2" />
<path d="M2392,751 L2740,664" stroke="blue" stroke-width="2" />
<path d="M4449,3488 L846,5287" stroke="blue" stroke-width="2" />
<path d="M278,7681 L5977,6226" stroke="blue" stroke-width="2" />
<path d="M2955,7036 L1328,5221" stroke="blue" stroke-width="2" />
<path d="M2215,3207 L3800,4652" stroke="blue" stroke-width="2" />
<path d="M627,2977 L5668,408" stroke="blue" stroke-width="2" />
<path d="M6098,5318 L1224,1340" stroke="blue" stroke-width="2" />
<path d="M5046,6095 L797,5172" stroke="blue" stroke-width="2" />
<path d="M464,5643 L6128,3149" stroke="blue" stroke-width="2" />
<path d="M1138,7088 L5740,5570" stroke="blue" stroke-width="2" />
<path d="M2887,7779 L3491,322" stroke="blue" stroke-width="2" />
<path d="M3152,6650 L75,5475" stroke="blue" stroke-width="2" />
<path d="M862,3734 L461,407" stroke="blue" stroke-width="2" />
<path d="M1166,3670 L3126,5113" stroke="blue" stroke-width="2" />
<path d="M5238,955 L1160,3653" stroke="blue" stroke-width="2" />
<path d="M5667,2516 L2616,7843" stroke="blue" stroke-width="2" />
<path d="M5020,3505 L870,4273" stroke="blue" stroke-width="2" />
<path d="M1663,7029 L4131,7423" stroke="blue" stroke-width="2" />
<path d="M2001,4343 L348,3400" stroke="blue" stroke-width="2" />
<path d="M1352,7440 L297,1814" stroke="blue" stroke-width="2" />
<path d="M1373,7289 L5304,7015" stroke="blue" stroke-width="2" />
<path d="M5993,2901 L4977,7407" stroke="blue" stroke-width="2" />
<path d="M4952,3516 L5623,5434" stroke="blue" stroke-width="2" />
<path d="M2346,3815 L2823,7645" stroke="blue" stroke-width="2" />
<path d="M2072,1684 L816,1915" stroke="blue" stroke-width="2" />
<path d="M2668,6720 L2113,3723" stroke="blue" stroke-width="2" />
<path d="M923,4484 L5231,388" stroke="blue" stroke-width="2" />
<path d="M2553,1837 L6131,2960" stroke="blue" stroke-width="2" />
<path d="M2871,4254 L4563,77" stroke="blue" stroke-width="2" />
<path d="M3500,1583 L3920,4421" stroke="blue" stroke-width="2" />
<path d="M1065,1577 L5540,4803" stroke="blue" stroke-width="2" />
<path d="M92,3557 L1336,1504" stroke="blue" stroke-width="2" />
<path d="M1941,841 L4997,7148" stroke="blue" stroke-width="2" />
<path d="M1450,7289 L2704,5234" stroke="blue" stroke-width="2" />
<path d="M4091,3839 L2906,404" stroke="blue" stroke-width="2" />
<path d="M2862,4012 L3077,1355" stroke="blue" stroke-width="2" />
<path d="M171,6756 L3594,3471" stroke="blue" stroke-width="2" />
<path d="M3484,7167 L50,5739" stroke="blue" stroke-width="2" />
<path d="M5728,4251 L3642,1496" stroke="blue" stroke-width="2" />
<path d="M3385,2642 L5460,1537" stroke="blue" stroke-width="2" />
<path d="M6136,290 L1131,4134" stroke="blue" stroke-width="2" />
<path d="M3923,2177 L1872,7795" stroke="blue" stroke-width="2" />
<path d="M1610,7119 L4351,562" stroke="blue" stroke-width="2" />
<path d="M3195,309 L3041,2085" stroke="blue" stroke-width="2" />
<path d="M3444,159 L4089,843" stroke="blue" stroke-width="2" />
<path d="M3259,3890 L4457,2706" stroke="blue" stroke-width="2" />
<path d="M1145,787 L2099,2364" stroke="blue" stroke-width="2" />
<path d="M604,5348 L2592,6970" stroke="blue" stroke-width="2" />
<path d="M1575,2105 L2729,3839" stroke="blue" stroke-width="2" />
<path d="M995,3169 L5846,6828" stroke="blue" stroke-width="2" />
<path d="M6056,6774 L1364,2074" stroke="blue" stroke-width="2" />
<path d="M2042,2713 L2752,3002" stroke="blue" stroke-width="2" />
<path d="M2425,1105 L3221,3052" stroke="blue" stroke-width="2" />
<path d="M3389,7187 L4253,5955" stroke="blue" stroke-width="2" />
<path d="M1057,3680 L2936,3058" stroke="blue" stroke-width="2" />
<path d="M2139,6510 L4601,2570" stroke="blue" stroke-width="2" />
<path d="M4723,5401 L6084,5350" stroke="blue" stroke-width="2" />
<path d="M515,2664 L722,725" stroke="blue" stroke-width="2" />
<path d="M5296,1276 L2371,740" stroke="blue" stroke-width="2" />
<path d="M412,7483 L5147,235" stroke="blue" stroke-width="2" />
<path d="M1630,4522 L2043,5307" stroke="blue" stroke-width="2" />
<path d="M2508,5678 L3810,4878" stroke="blue" stroke-width="2" />
<path d="M223,1386 L2249,1983" stroke="blue" stroke-width="2" />
<path d="M5912,4136 L106,7184" stroke="blue" stroke-width="2" />
<path d="M3848,5946 L1598,5280" stroke="blue" stroke-width="2" />
<path d="M3842,2569 L5649,6262" stroke="blue" stroke-width="2" />
<path d="M1377,3663 L3377,2774" stroke="blue" stroke-width="2" />
<path d="M2456,2510 L357,204" stroke="blue" stroke-width="2" />
<path d="M5033,6440 L279,3860" stroke="blue" stroke-width="2" />
<path d="M2354,2685 L971,4600" stroke="blue" stroke-width="2" />
<path d="M3712,191 L1071,74" stroke="blue" stroke-width="2" />
<path d="M293,2753 L3114,7057" stroke="blue" stroke-width="2" />
<path d="M331,1139 L3580,2684" stroke="blue" stroke-width="2" />
<path d="M1209,715 L1174,1141" stroke="blue" stroke-width="2" />
<path d="M5697,6877 L4960,2363" stroke="blue" stroke-width="2" />
<path d="M3822,8079 L2238,2309" stroke="blue" stroke-width="2" />
<path d="M669,5570 L1561,1970" stroke="blue" stroke-width="2" />
<path d="M5409,7974 L852,1257" stroke="blue" stroke-width="2" />
<path d="M5646,1772 L2403,7285" stroke="blue" stroke-width="2" />
<path d="M4033,4962 L4492,2829" stroke="blue" stroke-width="2" />
<path d="M4621,6017 L1673,8154" stroke="blue" stroke-width="2" />
<path d="M843,5691 L4428,6782" stroke="blue" stroke-width="2" />
<path d="M853,690 L1687,4854" stroke="blue" stroke-width="2" />
<path d="M1484,5623 L2002,3578" stroke="blue" stroke-width="2" />
<path d="M5331,954 L3903,4257" stroke="blue" stroke-width="2" />
<path d="M82,6615 L2673,1801" stroke="blue" stroke-width="2" />
<path d="M292,7212 L5736,720" stroke="blue" stroke-width="2" />
<path d="M5638,4284 L2378,7342" stroke="blue" stroke-width="2" />
<path d="M4761,6849 L1683,5804" stroke="blue" stroke-width="2" />
<path d="M2181,4794 L3187,6440" stroke="blue" stroke-width="2" />
<path d="M1925,2691 L3575,1908" stroke="blue" stroke-width="2" />
<path d="M5375,2809 L415,6376" stroke="blue" stroke-width="2" />
<path d="M5821,6348 L1091,1820" stroke="blue" stroke-width="2" />
<path d="M2123,7102 L1999,4691" stroke="blue" stroke-width="2" />
<path d="M247,7625 L1305,6681" stroke="blue" stroke-width="2" />
<path d="M37,5978 L1313,620" stroke="blue" stroke-width="2" />
<path d="M5136,4289 L5139,192" stroke="blue" stroke-width="2" />
<path d="M337,2204 L5908,5260" stroke="blue" stroke-width="2" />
<path d="M1001,707 L4760,6474" stroke="blue" stroke-width="2" />
<path d="M348,4028 L743,1293" stroke="blue" stroke-width="2" />
<path d="M2852,2450 L2494,6391" stroke="blue" stroke-width="2" />
<path d="M804,1067 L3034,7276" stroke="blue" stroke-width="2" />
<path d="M2048,4367 L1824,7075" stroke="blue" stroke-width="2" />
<path d="M4710,3798 L5440,363" stroke="blue" stroke-width="2" />
<path d="M1867,7848 L5175,7062" stroke="blue" stroke-width="2" />
<path d="M444,6472 L6158,6460" stroke="blue" stroke-width="2" />
<path d="M2079,3279 L5864,4347" stroke="blue" stroke-width="2" />
<path d="M3035,2404 L3927,860" stroke="blue" stroke-width="2" />
<path d="M1850,5048 L5000,207" stroke="blue" stroke-width="2" />
<path d="M2463,5131 L4955,7938" stroke="blue" stroke-width="2" />
<path d="M506,6001 L5312,6371" stroke="blue" stroke-width="2" />
<path d="M2801,6570 L1484,1265" stroke="blue" stroke-width="2" />
<path d="M2694,3707 L1083,7799" stroke="blue" stroke-width="2" />
<path d="M5622,7904 L61,3062" stroke="blue" stroke-width="2" />
<path d="M206,6853 L2491,1428" stroke="blue" stroke-width="2" />
<path d="M6027,7540 L1218,453" stroke="blue" stroke-width="2" />
<path d="M4649,6808 L1867,7312" stroke="blue" stroke-width="2" />
<path d="M4157,5715 L1354,2577" stroke="blue" stroke-width="2" />
<path d="M4575,3838 L6075,1465" stroke="blue" stroke-width="2" />
<path d="M3161,1729 L1854,740" stroke="blue" stroke-width="2" />
<path d="M525,5152 L2525,6595" stroke="blue" stroke-width="2" />
<path d="M950,328 L2580,793" stroke="blue" stroke-width="2" />
<path d="M5638,4993 L469,8083" stroke="blue" stroke-width="2" />
<path d="M1338,2611 L4521,26" stroke="blue" stroke-width="2" />
<path d="M959,1083 L5326,5542" stroke="blue" stroke-width="2" />
<path d="M2122,514 L611,1115" stroke="blue" stroke-width="2" />
<path d="M4232,1428 L1935,2814" stroke="blue" stroke-width="2" />
<path d="M1119,2591 L3496,4406" stroke="blue" stroke-width="2" />
<path d="M394,7758 L3927,6325" stroke="blue" stroke-width="2" />
<path d="M4854,7932 L105,3850" stroke="blue" stroke-width="2" />
<path d="M2505,4065 L3721,1321" stroke="blue" stroke-width="2" />
<path d="M1640,3761 L4206,7728" stroke="blue" stroke-width="2" />
<path d="M806,7535 L2151,1995" stroke="blue" stroke-width="2" />
<path d="M4465,3863 L5545,915" stroke="blue" stroke-width="2" />
<path d="M1917,7860 L2297,2972" stroke="blue" stroke-width="2" />
<path d="M3369,5842 L4056,3883" stroke="blue" stroke-width="2" />
<path d="M6148,6433 L5466,4337" stroke="blue" stroke-width="2" />
<path d="M5306,6215 L4445,2130" stroke="blue" stroke-width="2" />
<path d="M4936,52 L4428,458" stroke="blue" stroke-width="2" />
<path d="M4911,6731 L1495,5431" stroke="blue" stroke-width="2" />
<path d="M6061,1983 L2839,2688" stroke="blue" stroke-width="2" />
<path d="M3535,2559 L3335,1243" stroke="blue" stroke-width="2" />
<path d="M1293,2729 L5089,6597" stroke="blue" stroke-width="2" />
<path d="M792,3056 L1869,1919" stroke="blue" stroke-width="2" />
<path d="M1697,1927 L4921,4573" stroke="blue" stroke-width="2" />
<path d="M5452,7428 L4884,4373" stroke="blue" stroke-width="2" />
<path d="M795,1974 L548,2531" stroke="blue" stroke-width="2" />
<path d="M1970,7117 L4763,3170" stroke="blue" stroke-width="2" />
<path d="M1739,6145 L1781,2757" stroke="blue" stroke-width="2" />
<path d="M1480,4151 L4419,1141" stroke="blue" stroke-width="2" />
<path d="M3591,1276 L3994,7567" stroke="blue" stroke-width="2" />
<path d="M3312,5634 L1955,3941" stroke="blue" stroke-width="2" />
<path d="M744,6445 L271,349" stroke="blue" stroke-width="2" />
<path d="M4521,2299 L3048,1725" stroke="blue" stroke-width="2" />
<path d="M1350,1616 L1022,964" stroke="blue" stroke-width="2" />
<path d="M823,6026 L885,1734" stroke="blue" stroke-width="2" />
<path d="M3693,4075 L5997,5284" stroke="blue" stroke-width="2" />
<path d="M4398,8058 L402,6600" stroke="blue" stroke-width="2" />
<path d="M1016,4970 L5037,4223" stroke="blue" stroke-width="2" />
<path d="M981,4287 L5298,5543" stroke="blue" stroke-width="2" />
<path d="M5725,4961 L6080,2519" stroke="blue" stroke-width="2" />
<path d="M4891,7168 L3187,5051" stroke="blue" stroke-width="2" />
<path d="M4114,6524 L2838,222" stroke="blue" stroke-width="2" />
<path d="M125,7674 L5948,7905" stroke="blue" stroke-width="2" />
<path d="M2192,414 L3582,4617" stroke="blue" stroke-width="2" />
<path d="M1020,3251 L3603,5452" stroke="blue" stroke-width="2" />
<path d="M120,3967 L5105,3181" stroke="blue" stroke-width="2" />
<path d="M254,2198 L737,3948" stroke="blue" stroke-width="2" />
<path d="M5722,2536 L403,687" stroke="blue" stroke-width="2" />
<path d="M1838,358 L3767,625" stroke="blue" stroke-width="2" />
<path d="M3229,7765 L6094,2841" stroke="blue" stroke-width="2" />
<path d="M5195,5813 L1525,4727" stroke="blue" stroke-width="2" />
<path d="M3874,986 L5217,1164" stroke="blue" stroke-width="2" />
<path d="M1550,230 L5270,7455" stroke="blue" stroke-width="2" />
<path d="M3271,1897 L5691,2754" stroke="blue" stroke-width="2" />
<path d="M3030,413 L5981,6156" stroke="blue" stroke-width="2" />
<path d="M3094,5097 L5806,7549" stroke="blue" stroke-width="2" />
<path d="M1973,461 L282,2974" stroke="blue" stroke-width="2" />
<path d="M5984,6738 L2163,2822" stroke="blue" stroke-width="2" />
<path d="M4119,2299 L1117,2009" stroke="blue" stroke-width="2" />
<path d="M189,3922 L1085,6122" stroke="blue" stroke-width="2" />
<path d="M1886,7990 L5327,2663" stroke="blue" stroke-width="2" />
<path d="M198,5885 L1253,3829" stroke="blue" stroke-width="2" />
<path d="M4066,3195 L3143,1858" stroke="blue" stroke-width="2" />
<path d="M394,7063 L3483,1255" stroke="blue" stroke-width="2" />
<path d="M3492,1890 L1090,6967" stroke="blue" stroke-width="2" />
<path d="M3463,3705 L2487,1583" stroke="blue" stroke-width="2" />
<path d="M489,6906 L1449,3817" stroke="blue" stroke-width="2" />
<path d="M4708,7364 L3646,1938" stroke="blue" stroke-width="2" />
<path d="M5850,7958 L5887,2626" stroke="blue" stroke-width="2" />
<path d="M2978,953 L2531,565" stroke="blue" stroke-width="2" />
<path d="M2427,7045 L11,1897" stroke="blue" stroke-width="2" />
<path d="M620,5986 L268,1230" stroke="blue" stroke-width="2" />
<path d="M5784,829 L297,6771" stroke="blue" stroke-width="2" />
<path d="M175,3180 L5639,2623" stroke="blue" stroke-width="2" />
<path d="M2636,2571 L1047,4431" stroke="blue" stroke-width="2" />
<path d="M848,4726 L1933,4713" stroke="blue" stroke-width="2" />
<path d="M2150,2230 L1000,2094" stroke="blue" stroke-width="2" />
<path d="M5461,3819 L4417,511" stroke="blue" stroke-width="2" />
<path d="M1097,3010 L69,7315" stroke="blue" stroke-width="2" />
<path d="M3512,2267 L6093,7778" stroke="blue" stroke-width="2" />
<path d="M1152,4131 L1972,829" stroke="blue" stroke-width="2" />
<path d="M3400,1300 L3360,2025" stroke="blue" stroke-width="2" />
<path d="M4978,5564 L182,1612" stroke="blue" stroke-width="2" />
<path d="M3579,2204 L5470,3626" stroke="blue" stroke-width="2" />
<path d="M3714,8031 L5493,834" stroke="blue" stroke-width="2" />
<path d="M5163,533 L560,1307" stroke="blue" stroke-width="2" />
<path d="M217,2495 L1479,1835" stroke="blue" stroke-width="2" />
<path d="M341,3701 L5425,388" stroke="blue" stroke-width="2" />
<path d="M2666,3775 L4964,6247" stroke="blue" stroke-width="2" />
<path d="M3850,6438 L4551,6508" stroke="blue" stroke-width="2" />
<path d="M920,7682 L1585,6711" stroke="blue" stroke-width="2" />
<path d="M1770,2129 L3148,4740" stroke="blue" stroke-width="2" />
<path d="M4911,7588 L96,3143" stroke="blue" stroke-width="2" />
<path d="M3750,2057 L762,3727" stroke="blue" stroke-width="2" />
<path d="M4038,3271 L3024,3621" stroke="blue" stroke-width="2" />
<path d="M2081,5453 L5442,6742" stroke="blue" stroke-width="2" />
<path d="M3823,4204 L1282,7363" stroke="blue" stroke-width="2" />
<path d="M324,1572 L4491,3338" stroke="blue" stroke-width="2" />
<path d="M4297,1043 L3268,591" stroke="blue" stroke-width="2" />
<path d="M178,7157 L849,6183" stroke="blue" stroke-width="2" />
<path d="M5575,1381 L5015,6911" stroke="blue" stroke-width="2" />
<path d="M332,803 L3321,1145" stroke="blue" stroke-width="2" />
<path d="M1690,2314 L1461,6014" stroke="blue" stroke-width="2" />
<path d="M2096,7387 L5822,6329" stroke="blue" stroke-width="2" />
<path d="M4907,1008 L15,5436" stroke="blue" stroke-width="2" />
<path d="M1938,4241 L4099,4511" stroke="blue" stroke-width="2" />
<path d="M1644,5826 L4650,3878" stroke="blue" stroke-width="2" />
<path d="M1037,6643 L4941,974" stroke="blue" stroke-width="2" />
<path d="M3797,7389 L4157,7960" stroke="blue" stroke-width="2" />
<path d="M357,6625 L2854,6216" stroke="blue" stroke-width="2" />
<path d="M1107,5437 L3300,4641" stroke="blue" stroke-width="2" />
<path d="M5478,2368 L5011,348" stroke="blue" stroke-width="2" />
<path d="M1697,803 L1472,7567" stroke="blue" stroke-width="2" />
<path d="M2176,4787 L2384,6719" stroke="blue" stroke-width="2" />
<path d="M1118,5795 L5570,3854" stroke="blue" stroke-width="2" />
<path d="M1363,4426 L1107,3913" stroke="blue" stroke-width="2" />
<path d="M4046,7937 L2627,4956" stroke="blue" stroke-width="2" />
<path d="M283,3498 L1056,6622" stroke="blue" stroke-width="2" />
<path d="M859,5712 L5263,1348" stroke="blue" stroke-width="2" />
<path d="M3657,5455 L4317,4379" stroke="blue" stroke-width="2" />
<path d="M1856,3076 L2860,233" stroke="blue" stroke-width="2" />
<path d="M515,1528 L1238,7711" stroke="blue" stroke-width="2" />
<path d="M4934,1503 L1110,2608" stroke="blue" stroke-width="2" />
<path d="M1528,4793 L4452,3900" stroke="blue" stroke-width="2" />
<path d="M4227,140 L4403,6297" stroke="blue" stroke-width="2" />
<path d="M5723,2191 L1888,7922" stroke="blue" stroke-width="2" />
<path d="M4618,2959 L1847,2801" stroke="blue" stroke-width="2" />
<path d="M913,7303 L386,5147" stroke="blue" stroke-width="2" />
<path d="M4375,1975 L4209,2923" stroke="blue" stroke-width="2" />
<path d="M1327,3863 L651,3549" stroke="blue" stroke-width="2" />
<path d="M409,6210 L3089,2498" stroke="blue" stroke-width="2" />
<path d="M5804,6170 L35,2612" stroke="blue" stroke-width="2" />
<path d="M2671,908 L685,5322" stroke="blue" stroke-width="2" />
<path d="M3287,1971 L1478,3851" stroke="blue" stroke-width="2" />
<path d="M5020,2241 L2725,3998" stroke="blue" stroke-width="2" />
<path d="M2760,5409 L879,2541" stroke="blue" stroke-width="2" />
<path d="M5203,573 L3350,2089" stroke="blue" stroke-width="2" />
<path d="M4996,6380 L3895,793" stroke="blue" stroke-width="2" />
<path d="M3285,7338 L3805,551" stroke="blue" stroke-width="2" />
<path d="M3375,6061 L3389,7266" stroke="blue" stroke-width="2" />
<path d="M1839,5296 L4541,6654" stroke="blue" stroke-width="2" />
<path d="M4439,1463 L3243,7994" stroke="blue" stroke-width="2" />
<path d="M2553,7153 L4270,1333" stroke="blue" stroke-width="2" />
<path d="M306,3323 L1944,158" stroke="blue" stroke-width="2" />
<path d="M2568,4803 L2481,6338" stroke="blue" stroke-width="2" />
<path d="M2418,2928 L5111,1722" stroke="blue" stroke-width="2" />
<path d="M4970,41 L1656,3348" stroke="blue" stroke-width="2" />
<path d="M2240,7573 L1626,2773" stroke="blue" stroke-width="2" />
<path d="M3262,6599 L3484,3022" stroke="blue" stroke-width="2" />
<path d="M1461,3948 L4268,3914" stroke="blue" stroke-width="2" />
<path d="M1833,6487 L3186,4573" stroke="blue" stroke-width="2" />
<path d="M5540,1978 L4373,7412" stroke="blue" stroke-width="2" />
<path d="M2706,423 L2257,43" stroke="blue" stroke-width="2" />
<path d="M577,5580 L5791,6108" stroke="blue" stroke-width="2" />
<path d="M257,1811 L2264,5095" stroke="blue" stroke-width="2" />
<path d="M5802,771 L5173,3971" stroke="blue" stroke-width="2" />
<path d="M2599,5133 L5198,7497" stroke="blue" stroke-width="2" />
<path d="M6023,74 L5354,5484" stroke="blue" stroke-width="2" />
<path d="M531,658 L5288,4747" stroke="blue" stroke-width="2" />
<path d="M2901,7560 L3333,1941" stroke="blue" stroke-width="2" />
<path d="M3982,1185 L5501,2823" stroke="blue" stroke-width="2" />
<path d="M712,3741 L2677,3230" stroke="blue" stroke-width="2" />
<path d="M5080,295 L195,2979" stroke="blue" stroke-width="2" />
<path d="M5632,2745 L5041,315" stroke="blue" stroke-width="2" />
<path d="M6046,832 L5703,1359" stroke="blue" stroke-width="2" />
<path d="M108,3638 L1565,7560" stroke="blue" stroke-width="2" />
<path d="M5480,6061 L1070,1352" stroke="blue" stroke-width="2" />
<path d="M5415,1295 L2674,7515" stroke="blue" stroke-width="2" />
<path d="M0,0 L6166,0" stroke="red" stroke-width="10" />
<path d="M6166,0 L6166,8160" stroke="red" stroke-width="10" />
<path d="M0,8160 L6166,8160" stroke="red" stroke-width="10" />
<path d="M0,8160 L0,0" stroke="red" stroke-width="10" />
</svg>