<?xml version="1.0" encoding="UTF-8"?>
<svg xmlns="http://www.w3.org/2000/svg" xmlns:xlink="http://www.w3.org/1999/xlink"
     width="10000" height="10000" viewBox="0 0 10000 10000">
<defs>
</defs>
<path d="M12,765 L914,1297" stroke="blue" stroke-width="2" />
<path d="M297,210 L1086,925" stroke="blue" stroke-width="2" />
<path d="M1175,758 L17,1887" stroke="blue" stroke-width="2" />
<path d="M336,1074 L634,1848" stroke="blue" stroke-width="2" />
<path d="M1091,799 L650,496" stroke="blue" stroke-width="2" />
<path d="M716,1915 L1133,971" stroke="blue" stroke-width="2" />
<path d="M640,1708 L184,115" stroke="blue" stroke-width="2" />
<path d="M1118,559 L297,490" stroke="blue" stroke-width="2" />
<path d="M1097,658 L568,528" stroke="blue" stroke-width="2" />
<path d="M415,1175 L1071,1750" stroke="blue" stroke-width="2" />
<path d="M322,297 L925,336" stroke="blue" stroke-width="2" />
<path d="M1144,991 L638,884" stroke="blue" stroke-width="2" />
<path d="M104,1279 L50,754" stroke="blue" stroke-width="2" />
<path d="M422,423 L626,854" stroke="blue" stroke-width="2" />
<path d="M177,902 L1108,927" stroke="blue" stroke-width="2" />
<path d="M920,102 L449,1557" stroke="blue" stroke-width="2" />
<path d="M55,187 L916,1159" stroke="blue" stroke-width="2" />
<path d="M527,682 L871,353" stroke="blue" stroke-width="2" />
<path d="M24,1016 L865,303" stroke="blue" stroke-width="2" />
<path d="M932,328 L75,1209" stroke="blue" stroke-width="2" />
<path d="M192,1748 L642,367" stroke="blue" stroke-width="2" />
<path d="M1156,929 L1124,992" stroke="blue" stroke-width="2" />
<path d="M874,1913 L455,1269" stroke="blue" stroke-width="2" />
<path d="M625,1061 L56,651" stroke="blue" stroke-width="2" />
<path d="M53,522 L672,605" stroke="blue" stroke-width="2" />
<path d="M616,441 L737,606" stroke="blue" stroke-width="2" />
<path d="M340,1728 L654,1583" stroke="blue" stroke-width="2" />
<path d="M1148,580 L755,1370" stroke="blue" stroke-width="2" />
<path d="M173,1205 L255,17" stroke="blue" stroke-width="2" />
<path d="M697,541 L710,1375" stroke="blue" stroke-width="2" />
<path d="M1179,1600 L197,305" stroke="blue" stroke-width="2" />
<path d="M336,185 L1108,442" stroke="blue" stroke-width="2" />
<path d="M574,1113 L239,1255" stroke="blue" stroke-width="2" />
<path d="M218,1382 L558,1813" stroke="blue" stroke-width="2" />
<path d="M130,4 L9,785" stroke="blue" stroke-width="2" />
<path d="M151,847 L750,636" stroke="blue" stroke-width="2" />
<path d="M480,1014 L79,1512" stroke="blue" stroke-width="2" />
<path d="M658,1074 L576,88" stroke="blue" stroke-width="2" />
<path d="M1040,89 L1183,1600" stroke="blue" stroke-width="2" />
<path d="M136,582 L827,677" stroke="blue" stroke-width="2" />
<path d="M8,1890 L952,1198" stroke="blue" stroke-width="2" />
<path d="M867,568 L179,309" stroke="blue" stroke-width="2" />
<path d="M1045,844 L585,358" stroke="blue" stroke-width="2" />
<path d="M1046,1112 L605,1363" stroke="blue" stroke-width="2" />
<path d="M413,189 L612,631" stroke="blue" stroke-width="2" />
<path d="M548,844 L1199,1266" stroke="blue" stroke-width="2" />
<path d="M571,1289 L16,1738" stroke="blue" stroke-width="2" />
<path d="M26,1436 L284,1351" stroke="blue" stroke-width="2" />
<path d="M823,883 L47,858" stroke="blue" stroke-width="2" />
<path d="M538,1346 L294,1017" stroke="blue" stroke-width="2" />
<path d="M124,266 L434,1730" stroke="blue" stroke-width="2" />
<path d="M1005,1893 L1028,462" stroke="blue" stroke-width="2" />
<path d="M1017,1102 L563,1106" stroke="blue" stroke-width="2" />
<path d="M519,786 L213,148" stroke="blue" stroke-width="2" />
<path d="M326,1260 L781,192" stroke="blue" stroke-width="2" />
<path d="M787,899 L524,61" stroke="blue" stroke-width="2" />
<path d="M421,478 L248,714" stroke="blue" stroke-width="2" />
<path d="M636,343 L882,1236" stroke="blue" stroke-width="2" />
<path d="M490,1092 L329,1420" stroke="blue" stroke-width="2" />
<path d="M946,8 L1030,1331" stroke="blue" stroke-width="2" />
<path d="M729,1169 L896,529" stroke="blue" stroke-width="2" />
<path d="M787,1274 L774,1045" stroke="blue" stroke-width="2" />
<path d="M675,774 L914,261" stroke="blue" stroke-width="2" />
<path d="M304,1649 L895,1938" stroke="blue" stroke-width="2" />
<path d="M140,675 L723,1622" stroke="blue" stroke-width="2" />
<path d="M1100,1061 L942,1581" stroke="blue" stroke-width="2" />
<path d="M812,361 L414,1875" stroke="blue" stroke-width="2" />
<path d="M588,66 L174,1000" stroke="blue" stroke-width="2" />
<path d="M1020,1275 L289,1583" stroke="blue" stroke-width="2" />
<path d="M57,1015 L860,801" stroke="blue" stroke-width="2" />
<path d="M1092,1249 L878,357" stroke="blue" stroke-width="2" />
<path d="M1041,1019 L932,261" stroke="blue" stroke-width="2" />
<path d="M219,368 L268,1703" stroke="blue" stroke-width="2" />
<path d="M206,1503 L436,67" stroke="blue" stroke-width="2" />
<path d="M996,39 L654,1195" stroke="blue" stroke-width="2" />
<path d="M1069,1198 L375,443" stroke="blue" stroke-width="2" />
<path d="M23,1170 L726,1660" stroke="blue" stroke-width="2" />
<path d="M44,1793 L64,1460" stroke="blue" stroke-width="2" />
<path d="M1016,726 L380,256" stroke="blue" stroke-width="2" />
<path d="M959,1118 L779,387" stroke="blue" stroke-width="2" />
<path d="M692,1504 L770,180" stroke="blue" stroke-width="2" />
<path d="M70,1276 L956,1137" stroke="blue" stroke-width="2" />
<path d="M880,486 L788,1448" stroke="blue" stroke-width="2" />
<path d="M1053,131 L440,1030" stroke="blue" stroke-width="2" />
<path d="M998,263 L497,1123" stroke="blue" stroke-width="2" />
<path d="M155,44 L1013,402" stroke="blue" stroke-width="2" />
<path d="M163,1734 L798,629" stroke="blue" stroke-width="2" />
<path d="M1168,1374 L466,386" stroke="blue" stroke-width="2" />
<path d="M75,342 L783,1341" stroke="blue" stroke-width="2" />
<path d="M769,785 L295,88" stroke="blue" stroke-width="2" />
<path d="M390,937 L641,1909" stroke="blue" stroke-width="2" />
<path d="M536,653 L842,1312" stroke="blue" stroke-width="2" />
<path d="M523,1445 L547,1256" stroke="blue" stroke-width="2" />
<path d="M812,1467 L997,11" stroke="blue" stroke-width="2" />
<path d="M355,1877 L572,551" stroke="blue" stroke-width="2" />
<path d="M1167,44 L310,1705" stroke="blue" stroke-width="2" />
<path d="M1087,174 L111,300" stroke="blue" stroke-width="2" />
<path d="M1132,1467 L77,1780" stroke="blue" stroke-width="2" />
<path d="M176,396 L262,1579" stroke="blue" stroke-width="2" />
<path d="M889,264 L1041,1725" stroke="blue" stroke-width="2" />
<path d="M222,741 L1061,1512" stroke="blue" stroke-width="2" />
<path d="M426,187 L767,1515" stroke="blue" stroke-width="2" />
<path d="M19,1852 L225,1020" stroke="blue" stroke-width="2" />
<path d="M195,686 L1024,1914" stroke="blue" stroke-width="2" />
<path d="M1079,83 L964,1608" stroke="blue" stroke-width="2" />
<path d="M366,908 L822,1226" stroke="blue" stroke-width="2" />
<path d="M949,144 L1122,192" stroke="blue" stroke-width="2" />
<path d="M48,1740 L357,260" stroke="blue" stroke-width="2" />
<path d="M613,644 L315,867" stroke="blue" stroke-width="2" />
<path d="M953,1464 L389,1952" stroke="blue" stroke-width="2" />
<path d="M415,145 L280,1129" stroke="blue" stroke-width="2" />
<path d="M257,905 L650,1467" stroke="blue" stroke-width="2" />
<path d="M110,701 L807,1915" stroke="blue" stroke-width="2" />
<path d="M366,1543 L21,893" stroke="blue" stroke-width="2" />
<path d="M108,904 L229,1243" stroke="blue" stroke-width="2" />
<path d="M125,896 L31,1366" stroke="blue" stroke-width="2" />
<path d="M692,380 L1050,873" stroke="blue" stroke-width="2" />
<path d="M698,83 L855,1564" stroke="blue" stroke-width="2" />
<path d="M623,1515 L197,1601" stroke="blue" stroke-width="2" />
<path d="M289,1203 L590,1325" stroke="blue" stroke-width="2" />
<path d="M964,780 L215,1899" stroke="blue" stroke-width="2" />
<path d="M903,799 L485,1487" stroke="blue" stroke-width="2" />
<path d="M650,1038 L1146,17" stroke="blue" stroke-width="2" />
<path d="M559,1133 L915,1327" stroke="blue" stroke-width="2" />
<path d="M342,103 L355,1347" stroke="blue" stroke-width="2" />
<path d="M1133,1716 L1012,370" stroke="blue" stroke-width="2" />
<path d="M937,527 L295,124" stroke="blue" stroke-width="2" />
<path d="M718,482 L684,1462" stroke="blue" stroke-width="2" />
<path d="M1170,256 L590,757" stroke="blue" stroke-width="2" />
<path d="M672,598 L662,1784" stroke="blue" stroke-width="2" />
<path d="M966,981 L683,274" stroke="blue" stroke-width="2" />
<path d="M1186,1273 L1186,1661" stroke="blue" stroke-width="2" />
<path d="M854,1869 L419,1547" stroke="blue" stroke-width="2" />
<path d="M767,1215 L1141,348" stroke="blue" stroke-width="2" />
<path d="M4,1567 L131,956" stroke="blue" stroke-width="2" />
<path d="M898,986 L701,1906" stroke="blue" stroke-width="2" />
<path d="M975,836 L940,1370" stroke="blue" stroke-width="2" />
<path d="M195,1029 L1121,284" stroke="blue" stroke-width="2" />
<path d="M85,1838 L1056,1034" stroke="blue" stroke-width="2" />
<path d="M1012,588 L897,810" stroke="blue" stroke-width="2" />
<path d="M771,91 L289,1181" stroke="blue" stroke-width="2" />
<path d="M169,1679 L56,865" stroke="blue" stroke-width="2" />
<path d="M467,948 L205,1572" stroke="blue" stroke-width="2" />
<path d="M245,117 L1062,1671" stroke="blue" stroke-width="2" />
<path d="M750,411 L406,1157" stroke="blue" stroke-width="2" />
<path d="M809,938 L117,1652" stroke="blue" stroke-width="2" />
<path d="M497,1667 L226,1529" stroke="blue" stroke-width="2" />
<path d="M634,231 L805,1553" stroke="blue" stroke-width="2" />
<path d="M1140,124 L990,1933" stroke="blue" stroke-width="2" />
<path d="M1009,1653 L524,702" stroke="blue" stroke-width="2" />
<path d="M418,1712 L1182,372" stroke="blue" stroke-width="2" />
<path d="M891,1469 L420,412" stroke="blue" stroke-width="2" />
<path d="M1191,548 L225,1269" stroke="blue" stroke-width="2" />
<path d="M1171,858 L902,583" stroke="blue" stroke-width="2" />
<path d="M798,949 L1153,637" stroke="blue" stroke-width="2" />
<path d="M179,76 L1086,235" stroke="blue" stroke-width="2" />
<path d="M942,1627 L717,1642" stroke="blue" stroke-width="2" />
<path d="M872,1217 L869,1513" stroke="blue" stroke-width="2" />
<path d="M696,1523 L793,794" stroke="blue" stroke-width="2" />
<path d="M260,494 L489,281" stroke="blue" stroke-width="2" />
<path d="M1055,534 L243,764" stroke="blue" stroke-width="2" />
<path d="M853,529 L935,482" stroke="blue" stroke-width="2" />
<path d="M346,80 L631,1451" stroke="blue" stroke-width="2" />
<path d="M1111,1392 L582,9" stroke="blue" stroke-width="2" />
<path d="M633,1579 L81,1955" stroke="blue" stroke-width="2" />
<path d="M202,287 L709,1268" stroke="blue" stroke-width="2" />
<path d="M1001,679 L987,1662" stroke="blue" stroke-width="2" />
<path d="M1043,875 L1179,1623" stroke="blue" stroke-width="2" />
<path d="M1138,1120 L620,324" stroke="blue" stroke-width="2" />
<path d="M319,146 L881,1718" stroke="blue" stroke-width="2" />
<path d="M1066,1592 L779,999" stroke="blue" stroke-width="2" />
<path d="M697,820 L812,1764" stroke="blue" stroke-width="2" />
<path d="M608,166 L992,1380" stroke="blue" stroke-width="2" />
<path d="M12,729 L474,1883" stroke="blue" stroke-width="2" />
<path d="M234,329 L178,942" stroke="blue" stroke-width="2" />
<path d="M1041,828 L288,1621" stroke="blue" stroke-width="2" />
<path d="M291,1318 L1087,620" stroke="blue" stroke-width="2" />
<path d="M808,136 L367,568" stroke="blue" stroke-width="2" />
<path d="M417,1655 L491,418" stroke="blue" stroke-width="2" />
<path d="M163,444 L44,89" stroke="blue" stroke-width="2" />
<path d="M1144,912 L812,171" stroke="blue" stroke-width="2" />
<path d="M252,333 L293,1094" stroke="blue" stroke-width="2" />
<path d="M1060,1156 L127,583" stroke="blue" stroke-width="2" />
<path d="M100,1330 L203,114" stroke="blue" stroke-width="2" />
<path d="M328,1341 L965,2" stroke="blue" stroke-width="2" />
<path d="M489,1331 L861,869" stroke="blue" stroke-width="2" />
<path d="M175,1778 L417,258" stroke="blue" stroke-width="2" />
<path d="M753,1126 L587,1678" stroke="blue" stroke-width="2" />
<path d="M1158,1235 L843,954" stroke="blue" stroke-width="2" />
<path d="M224,321 L351,1929" stroke="blue" stroke-width="2" />
<path d="M589,895 L125,1102" stroke="blue" stroke-width="2" />
<path d="M4,344 L826,936" stroke="blue" stroke-width="2" />
<path d="M869,1688 L953,1930" stroke="blue" stroke-width="2" />
<path d="M911,1056 L148,923" stroke="blue" stroke-width="2" />
<path d="M996,773 L642,1375" stroke="blue" stroke-width="2" />
<path d="M274,1882 L175,1015" stroke="blue" stroke-width="2" />
<path d="M681,734 L162,552" stroke="blue" stroke-width="2" />
<path d="M1167,28 L645,1365" stroke="blue" stroke-width="2" />
<path d="M874,942 L1142,1309" stroke="blue" stroke-width="2" />
<path d="M898,1123 L99,1375" stroke="blue" stroke-width="2" />
<path d="M945,822 L288,1865" stroke="blue" stroke-width="2" />
<path d="M513,143 L263,93" stroke="blue" stroke-width="2" />
<path d="M562,1576 L1140,443" stroke="blue" stroke-width="2" />
<path d="M334,837 L406,1682" stroke="blue" stroke-width="2" />
<path d="M603,574 L125,779" stroke="blue" stroke-width="2" />
<path d="M873,1369 L342,1846" stroke="blue" stroke-width="2" />
<path d="M101,1827 L828,1047" stroke="blue" stroke-width="2" />
<path d="M766,1887 L94,358" stroke="blue" stroke-width="2" />
<path d="M1108,1696 L202,1240" stroke="blue" stroke-width="2" />
<path d="M36,1283 L404,1745" stroke="blue" stroke-width="2" />
<path d="M654,755 L52,1118" stroke="blue" stroke-width="2" />
<path d="M1023,1058 L388,140" stroke="blue" stroke-width="2" />
<path d="M1199,1219 L53,1797" stroke="blue" stroke-width="2" />
<path d="M558,546 L23,1326" stroke="blue" stroke-width="2" />
<path d="M1136,760 L800,1601" stroke="blue" stroke-width="2" />
<path d="M723,1885 L179,621" stroke="blue" stroke-width="2" />
<path d="M40,486 L1192,352" stroke="blue" stroke-width="2" />
<path d="M823,100 L365,349" stroke="blue" stroke-width="2" />
<path d="M2,370 L953,1799" stroke="blue" stroke-width="2" />
<path d="M760,867 L191,1160" stroke="blue" stroke-width="2" />
<path d="M155,1805 L654,423" stroke="blue" stroke-width="2" />
<path d="M769,79 L1055,1584" stroke="blue" stroke-width="2" />
<path d="M0,0 L1200,0" stroke="red" stroke-width="10" />
<path d="M1200,0 L1200,1964" stroke="red" stroke-width="10" />
<path d="M0,1964 L1200,1964" stroke="red" stroke-width="10" />
<path d="M0,1964 L0,0" stroke="red" stroke-width="10" />
</svg>