<?xml version="1.0" encoding="UTF-8"?>
<svg xmlns="http://www.w3.org/2000/svg" xmlns:xlink="http://www.w3.org/1999/xlink"
     width="10000" height="10000" viewBox="0 0 10000 10000">
<defs>
</defs>
<path d="M2652,1823 L7210,3651" stroke="blue" stroke-width="2" />
<path d="M3044,2881 L7310,2992" stroke="blue" stroke-width="2" />
<path d="M4344,3118 L862,2005" stroke="blue" stroke-width="2" />
<path d="M3926,1198 L142,583" stroke="blue" stroke-width="2" />
<path d="M833,2238 L80,231" stroke="blue" stroke-width="2" />
<path d="M786,895 L7235,1278" stroke="blue" stroke-width="2" />
<path d="M5408,1928 L1566,3625" stroke="blue" stroke-width="2" />
<path d="M1784,1787 L90,1227" stroke="blue" stroke-width="2" />
<path d="M3427,2690 L5045,2074" stroke="blue" stroke-width="2" />
<path d="M1027,889 L5097,685" stroke="blue" stroke-width="2" />
<path d="M123,2220 L6327,618" stroke="blue" stroke-width="2" />
<path d="M97,2982 L5475,486" stroke="blue" stroke-width="2" />
<path d="M2256,1665 L4028,1978" stroke="blue" stroke-width="2" />
<path d="M4778,851 L3205,2491" stroke="blue" stroke-width="2" />
<path d="M5443,1249 L4686,327" stroke="blue" stroke-width="2" />
<path d="M6248,2796 L890,2117" stroke="blue" stroke-width="2" />
<path d="M130,234 L5138,504" stroke="blue" stroke-width="2" />
<path d="M6776,1207 L2851,2803" stroke="blue" stroke-width="2" />
<path d="M1686,3160 L1573,286" stroke="blue" stroke-width="2" />
<path d="M5406,2332 L5077,1101" stroke="blue" stroke-width="2" />
<path d="M254,207 L1997,548" stroke="blue" stroke-width="2" />
<path d="M1087,3291 L6001,1635" stroke="blue" stroke-width="2" />
<path d="M3382,2720 L477,149" stroke="blue" stroke-width="2" />
<path d="M1629,1812 L3768,430" stroke="blue" stroke-width="2" />
<path d="M6604,1683 L4053,1882" stroke="blue" stroke-width="2" />
<path d="M6697,1157 L4077,2038" stroke="blue" stroke-width="2" />
<path d="M3391,1685 L840,860" stroke="blue" stroke-width="2" />
<path d="M1332,3670 L3414,3" stroke="blue" stroke-width="2" />
<path d="M3833,1762 L2342,748" stroke="blue" stroke-width="2" />
<path d="M2724,3395 L3988,1965" stroke="blue" stroke-width="2" />
<path d="M1201,1938 L2209,644" stroke="blue" stroke-width="2" />
<path d="M1954,2082 L2647,2196" stroke="blue" stroke-width="2" />
<path d="M6914,2294 L153,473" stroke="blue" stroke-width="2" />
<path d="M2293,2052 L5812,2761" stroke="blue" stroke-width="2" />
<path d="M5644,605 L6436,1828" stroke="blue" stroke-width="2" />
<path d="M3295,2759 L2289,3816" stroke="blue" stroke-width="2" />
<path d="M2438,2074 L5625,2231" stroke="blue" stroke-width="2" />
<path d="M6790,2327 L3392,2443" stroke="blue" stroke-width="2" />
<path d="M7059,565 L6025,652" stroke="blue" stroke-width="2" />
<path d="M6484,3087 L4483,3337" stroke="blue" stroke-width="2" />
<path d="M3292,1305 L5933,2543" stroke="blue" stroke-width="2" />
<path d="M822,981 L1528,2666" stroke="blue" stroke-width="2" />
<path d="M770,1638 L2371,2972" stroke="blue" stroke-width="2" />
<path d="M6452,3009 L6593,3649" stroke="blue" stroke-width="2" />
<path d="M694,2976 L5188,3052" stroke="blue" stroke-width="2" />
<path d="M1219,1589 L3888,649" stroke="blue" stroke-width="2" />
<path d="M4697,1126 L5968,2330" stroke="blue" stroke-width="2" />
<path d="M5322,1791 L4737,3320" stroke="blue" stroke-width="2" />
<path d="M4418,3487 L6415,675" stroke="blue" stroke-width="2" />
<path d="M5081,2103 L1486,1304" stroke="blue" stroke-width="2" />
<path d="M1718,2865 L6369,1131" stroke="blue" stroke-width="2" />
<path d="M5873,1397 L2886,257" stroke="blue" stroke-width="2" />
<path d="M1845,1040 L848,3024" stroke="blue" stroke-width="2" />
<path d="M5878,2485 L2193,3215" stroke="blue" stroke-width="2" />
<path d="M6049,990 L445,286" stroke="blue" stroke-width="2" />
<path d="M3719,3659 L5057,3465" stroke="blue" stroke-width="2" />
<path d="M6842,1550 L6971,3665" stroke="blue" stroke-width="2" />
<path d="M392,2997 L464,2579" stroke="blue" stroke-width="2" />
<path d="M3157,1145 L24,2273" stroke="blue" stroke-width="2" />
<path d="M5084,1080 L209,1508" stroke="blue" stroke-width="2" />
<path d="M2569,3127 L1297,3681" stroke="blue" stroke-width="2" />
<path d="M518,634 L4070,3686" stroke="blue" stroke-width="2" />
<path d="M2740,502 L4402,1898" stroke="blue" stroke-width="2" />
<path d="M6235,3120 L115,34" stroke="blue" stroke-width="2" />
<path d="M6641,3533 L6969,2206" stroke="blue" stroke-width="2" />
<path d="M2481,2517 L6184,1082" stroke="blue" stroke-width="2" />
<path d="M4696,3178 L2737,3445" stroke="blue" stroke-width="2" />
<path d="M901,3126 L578,1621" stroke="blue" stroke-width="2" />
<path d="M547,1083 L7217,3005" stroke="blue" stroke-width="2" />
<path d="M2001,3439 L6018,1263" stroke="blue" stroke-width="2" />
<path d="M4273,2469 L761,2977" stroke="blue" stroke-width="2" />
<path d="M5306,745 L3843,3030" stroke="blue" stroke-width="2" />
<path d="M2692,1693 L288,1449" stroke="blue" stroke-width="2" />
<path d="M1816,1121 L3628,2912" stroke="blue" stroke-width="2" />
<path d="M1710,2619 L5873,971" stroke="blue" stroke-width="2" />
<path d="M3956,1649 L3011,1092" stroke="blue" stroke-width="2" />
<path d="M3190,3128 L2348,2431" stroke="blue" stroke-width="2" />
<path d="M1961,2312 L1332,522" stroke="blue" stroke-width="2" />
<path d="M5016,645 L3466,2356" stroke="blue" stroke-width="2" />
<path d="M4516,2380 L599,2006" stroke="blue" stroke-width="2" />
<path d="M3492,2094 L4940,190" stroke="blue" stroke-width="2" />
<path d="M6463,1631 L2820,2961" stroke="blue" stroke-width="2" />
<path d="M1277,3350 L167,1859" stroke="blue" stroke-width="2" />
<path d="M3225,92 L3275,293" stroke="blue" stroke-width="2" />
<path d="M4062,2866 L2167,2449" stroke="blue" stroke-width="2" />
<path d="M967,850 L4577,2131" stroke="blue" stroke-width="2" />
<path d="M578,2011 L5499,598" stroke="blue" stroke-width="2" />
<path d="M1050,1819 L6495,3416" stroke="blue" stroke-width="2" />
<path d="M791,2494 L4675,2399" stroke="blue" stroke-width="2" />
<path d="M194,1406 L1826,3509" stroke="blue" stroke-width="2" />
<path d="M6887,2496 L642,2050" stroke="blue" stroke-width="2" />
<path d="M2429,936 L2648,1127" stroke="blue" stroke-width="2" />
<path d="M7086,1820 L1656,3364" stroke="blue" stroke-width="2" />
<path d="M189,1299 L4353,1347" stroke="blue" stroke-width="2" />
<path d="M1977,2016 L5246,1935" stroke="blue" stroke-width="2" />
<path d="M96,3678 L6749,829" stroke="blue" stroke-width="2" />
<path d="M832,3639 L4098,715" stroke="blue" stroke-width="2" />
<path d="M1888,3448 L14,1738" stroke="blue" stroke-width="2" />
<path d="M7291,2004 L428,3006" stroke="blue" stroke-width="2" />
<path d="M2692,1180 L6517,2113" stroke="blue" stroke-width="2" />
<path d="M1850,595 L677,769" stroke="blue" stroke-width="2" />
<path d="M1777,117 L1874,3827" stroke="blue" stroke-width="2" />
<path d="M4571,3149 L1699,4" stroke="blue" stroke-width="2" />
<path d="M3911,3401 L1520,3129" stroke="blue" stroke-width="2" />
<path d="M3836,1293 L4451,3096" stroke="blue" stroke-width="2" />
<path d="M3657,1580 L2106,905" stroke="blue" stroke-width="2" />
<path d="M2241,652 L251,2449" stroke="blue" stroke-width="2" />
<path d="M767,3070 L1311,697" stroke="blue" stroke-width="2" />
<path d="M1588,1532 L5357,458" stroke="blue" stroke-width="2" />
<path d="M6386,1442 L4179,1878" stroke="blue" stroke-width="2" />
<path d="M674,1024 L4267,400" stroke="blue" stroke-width="2" />
<path d="M2453,20 L921,1258" stroke="blue" stroke-width="2" />
<path d="M2368,2804 L6521,3119" stroke="blue" stroke-width="2" />
<path d="M6550,1005 L6364,3634" stroke="blue" stroke-width="2" />
<path d="M6479,2787 L2265,3052" stroke="blue" stroke-width="2" />
<path d="M159,1708 L3827,3425" stroke="blue" stroke-width="2" />
<path d="M3452,793 L5658,31" stroke="blue" stroke-width="2" />
<path d="M4537,1650 L694,1486" stroke="blue" stroke-width="2" />
<path d="M7305,2414 L2392,2583" stroke="blue" stroke-width="2" />
<path d="M4567,3397 L6550,3548" stroke="blue" stroke-width="2" />
<path d="M119,3402 L4779,1199" stroke="blue" stroke-width="2" />
<path d="M5447,3338 L197,2891" stroke="blue" stroke-width="2" />
<path d="M3897,2996 L6959,788" stroke="blue" stroke-width="2" />
<path d="M6748,3148 L6746,139" stroke="blue" stroke-width="2" />
<path d="M1885,3346 L4478,3775" stroke="blue" stroke-width="2" />
<path d="M362,2398 L5487,2373" stroke="blue" stroke-width="2" />
<path d="M4917,196 L5033,2506" stroke="blue" stroke-width="2" />
<path d="M2768,2209 L7141,1304" stroke="blue" stroke-width="2" />
<path d="M1767,582 L177,1407" stroke="blue" stroke-width="2" />
<path d="M2180,1839 L513,2557" stroke="blue" stroke-width="2" />
<path d="M3173,1791 L3758,1284" stroke="blue" stroke-width="2" />
<path d="M1209,2794 L434,2511" stroke="blue" stroke-width="2" />
<path d="M6014,604 L3274,133" stroke="blue" stroke-width="2" />
<path d="M481,1110 L1360,1411" stroke="blue" stroke-width="2" />
<path d="M3621,2336 L3105,2205" stroke="blue" stroke-width="2" />
<path d="M4888,473 L2911,3228" stroke="blue" stroke-width="2" />
<path d="M4053,1297 L2614,787" stroke="blue" stroke-width="2" />
<path d="M2662,1099 L7030,1804" stroke="blue" stroke-width="2" />
<path d="M1849,2001 L2471,2444" stroke="blue" stroke-width="2" />
<path d="M5808,1618 L29,2609" stroke="blue" stroke-width="2" />
<path d="M1848,2957 L4070,1357" stroke="blue" stroke-width="2" />
<path d="M310,1089 L2256,3756" stroke="blue" stroke-width="2" />
<path d="M7027,1152 L2581,2017" stroke="blue" stroke-width="2" />
<path d="M3963,1750 L6935,453" stroke="blue" stroke-width="2" />
<path d="M644,2392 L2727,305" stroke="blue" stroke-width="2" />
<path d="M483,3432 L1311,3623" stroke="blue" stroke-width="2" />
<path d="M1291,1887 L1513,3449" stroke="blue" stroke-width="2" />
<path d="M200,3661 L1113,2395" stroke="blue" stroke-width="2" />
<path d="M5595,2448 L5556,71" stroke="blue" stroke-width="2" />
<path d="M3388,3087 L3339,2570" stroke="blue" stroke-width="2" />
<path d="M138,175 L6689,264" stroke="blue" stroke-width="2" />
<path d="M2102,2587 L5329,52" stroke="blue" stroke-width="2" />
<path d="M329,1802 L1960,2959" stroke="blue" stroke-width="2" />
<path d="M1578,2776 L2335,3722" stroke="blue" stroke-width="2" />
<path d="M5246,612 L354,151" stroke="blue" stroke-width="2" />
<path d="M521,1536 L6404,1647" stroke="blue" stroke-width="2" />
<path d="M1703,519 L2550,2816" stroke="blue" stroke-width="2" />
<path d="M5745,3655 L4940,1034" stroke="blue" stroke-width="2" />
<path d="M2926,1495 L2394,3513" stroke="blue" stroke-width="2" />
<path d="M6630,2152 L6570,3818" stroke="blue" stroke-width="2" />
<path d="M5572,3503 L6301,40" stroke="blue" stroke-width="2" />
<path d="M1470,713 L2293,2151" stroke="blue" stroke-width="2" />
<path d="M3031,3116 L7035,258" stroke="blue" stroke-width="2" />
<path d="M3804,2406 L3249,1023" stroke="blue" stroke-width="2" />
<path d="M2352,981 L2981,3381" stroke="blue" stroke-width="2" />
<path d="M1218,1988 L533,1810" stroke="blue" stroke-width="2" />
<path d="M564,3551 L5451,1949" stroke="blue" stroke-width="2" />
<path d="M2708,2849 L2311,1973" stroke="blue" stroke-width="2" />
<path d="M1109,1159 L5023,715" stroke="blue" stroke-width="2" />
<path d="M4435,492 L4837,3062" stroke="blue" stroke-width="2" />
<path d="M875,2814 L1641,3203" stroke="blue" stroke-width="2" />
<path d="M4035,72 L806,2185" stroke="blue" stroke-width="2" />
<path d="M6370,3253 L4983,836" stroke="blue" stroke-width="2" />
<path d="M1074,3026 L5132,1852" stroke="blue" stroke-width="2" />
<path d="M1830,3320 L4072,1667" stroke="blue" stroke-width="2" />
<path d="M521,2555 L4697,3241" stroke="blue" stroke-width="2" />
<path d="M5218,1540 L7148,3460" stroke="blue" stroke-width="2" />
<path d="M5863,1804 L6320,1450" stroke="blue" stroke-width="2" />
<path d="M4152,2551 L2299,534" stroke="blue" stroke-width="2" />
<path d="M749,3171 L5344,3027" stroke="blue" stroke-width="2" />
<path d="M3280,3017 L3444,2337" stroke="blue" stroke-width="2" />
<path d="M3426,1873 L391,407" stroke="blue" stroke-width="2" />
<path d="M5393,3409 L394,3487" stroke="blue" stroke-width="2" />
<path d="M272,636 L1565,2032" stroke="blue" stroke-width="2" />
<path d="M890,3109 L5055,663" stroke="blue" stroke-width="2" />
<path d="M3997,2798 L4750,1523" stroke="blue" stroke-width="2" />
<path d="M5255,2709 L151,3651" stroke="blue" stroke-width="2" />
<path d="M6402,2451 L5023,1228" stroke="blue" stroke-width="2" />
<path d="M2666,2391 L4224,3123" stroke="blue" stroke-width="2" />
<path d="M822,3709 L3153,3172" stroke="blue" stroke-width="2" />
<path d="M3647,846 L3476,3818" stroke="blue" stroke-width="2" />
<path d="M867,797 L548,1981" stroke="blue" stroke-width="2" />
<path d="M6535,3390 L4777,3684" stroke="blue" stroke-width="2" />
<path d="M4416,3440 L6679,3009" stroke="blue" stroke-width="2" />
<path d="M6546,194 L3945,2965" stroke="blue" stroke-width="2" />
<path d="M3116,2422 L3050,2243" stroke="blue" stroke-width="2" />
<path d="M5422,3754 L7154,839" stroke="blue" stroke-width="2" />
<path d="M4526,1334 L4706,3205" stroke="blue" stroke-width="2" />
<path d="M849,2259 L1908,49" stroke="blue" stroke-width="2" />
<path d="M5006,2678 L6599,2273" stroke="blue" stroke-width="2" />
<path d="M2822,2124 L2542,3590" stroke="blue" stroke-width="2" />
<path d="M2724,638 L2197,697" stroke="blue" stroke-width="2" />
<path d="M4892,2422 L2944,2164" stroke="blue" stroke-width="2" />
<path d="M4022,274 L3203,2026" stroke="blue" stroke-width="2" />
<path d="M206,640 L865,2592" stroke="blue" stroke-width="2" />
<path d="M3309,2553 L6462,1665" stroke="blue" stroke-width="2" />
<path d="M4305,219 L5848,937" stroke="blue" stroke-width="2" />
<path d="M1553,2484 L5792,674" stroke="blue" stroke-width="2" />
<path d="M6769,1348 L1391,2853" stroke="blue" stroke-width="2" />
<path d="M4322,1892 L3061,297" stroke="blue" stroke-width="2" />
<path d="M5339,2759 L548,792" stroke="blue" stroke-width="2" />
<path d="M6440,27 L6192,3362" stroke="blue" stroke-width="2" />
<path d="M2868,3473 L5853,1518" stroke="blue" stroke-width="2" />
<path d="M7247,2468 L3693,3564" stroke="blue" stroke-width="2" />
<path d="M5564,1834 L6256,998" stroke="blue" stroke-width="2" />
<path d="M4331,3261 L5336,3727" stroke="blue" stroke-width="2" />
<path d="M1170,856 L4789,1998" stroke="blue" stroke-width="2" />
<path d="M983,5 L5594,2984" stroke="blue" stroke-width="2" />
<path d="M2723,121 L6383,2209" stroke="blue" stroke-width="2" />
<path d="M1689,178 L4311,2965" stroke="blue" stroke-width="2" />
<path d="M2596,869 L5867,966" stroke="blue" stroke-width="2" />
<path d="M754,67 L4102,2363" stroke="blue" stroke-width="2" />
<path d="M1866,624 L1075,1654" stroke="blue" stroke-width="2" />
<path d="M5458,38 L627,2352" stroke="blue" stroke-width="2" />
<path d="M3644,2870 L4201,2557" stroke="blue" stroke-width="2" />
<path d="M2246,3287 L6470,2735" stroke="blue" stroke-width="2" />
<path d="M1433,561 L6554,1654" stroke="blue" stroke-width="2" />
<path d="M2001,3513 L2949,632" stroke="blue" stroke-width="2" />
<path d="M369,3623 L6756,1833" stroke="blue" stroke-width="2" />
<path d="M682,3130 L3460,1201" stroke="blue" stroke-width="2" />
<path d="M6538,93 L4646,1856" stroke="blue" stroke-width="2" />
<path d="M3299,3191 L5686,3028" stroke="blue" stroke-width="2" />
<path d="M2530,3152 L3615,1050" stroke="blue" stroke-width="2" />
<path d="M5106,1843 L7268,3475" stroke="blue" stroke-width="2" />
<path d="M2318,1060 L4584,2788" stroke="blue" stroke-width="2" />
<path d="M4991,2408 L2253,3343" stroke="blue" stroke-width="2" />
<path d="M1778,57 L5473,2213" stroke="blue" stroke-width="2" />
<path d="M1880,2500 L5440,1473" stroke="blue" stroke-width="2" />
<path d="M2403,2434 L3756,3066" stroke="blue" stroke-width="2" />
<path d="M1911,2531 L3522,2055" stroke="blue" stroke-width="2" />
<path d="M3632,1640 L1368,1272" stroke="blue" stroke-width="2" />
<path d="M3956,2052 L2200,3032" stroke="blue" stroke-width="2" />
<path d="M2814,2439 L1387,1265" stroke="blue" stroke-width="2" />
<path d="M6560,3183 L461,2125" stroke="blue" stroke-width="2" />
<path d="M3252,2306 L6469,2893" stroke="blue" stroke-width="2" />
<path d="M2693,1056 L5552,1683" stroke="blue" stroke-width="2" />
<path d="M4980,3413 L1065,3386" stroke="blue" stroke-width="2" />
<path d="M825,558 L3389,3095" stroke="blue" stroke-width="2" />
<path d="M1693,758 L247,1074" stroke="blue" stroke-width="2" />
<path d="M657,2858 L5883,470" stroke="blue" stroke-width="2" />
<path d="M3332,2565 L2954,610" stroke="blue" stroke-width="2" />
<path d="M6719,3048 L5428,2321" stroke="blue" stroke-width="2" />
<path d="M3754,884 L5100,2824" stroke="blue" stroke-width="2" />
<path d="M1863,678 L7060,3359" stroke="blue" stroke-width="2" />
<path d="M628,2482 L2527,3701" stroke="blue" stroke-width="2" />
<path d="M3373,293 L4030,462" stroke="blue" stroke-width="2" />
<path d="M5607,2393 L6847,2825" stroke="blue" stroke-width="2" />
<path d="M5274,587 L1385,727" stroke="blue" stroke-width="2" />
<path d="M5968,150 L2644,2205" stroke="blue" stroke-width="2" />
<path d="M574,1920 L5529,1915" stroke="blue" stroke-width="2" />
<path d="M5497,973 L688,180" stroke="blue" stroke-width="2" />
<path d="M2302,2850 L840,2122" stroke="blue" stroke-width="2" />
<path d="M1511,2354 L5801,2275" stroke="blue" stroke-width="2" />
<path d="M3163,1550 L7181,2248" stroke="blue" stroke-width="2" />
<path d="M1977,1314 L982,1760" stroke="blue" stroke-width="2" />
<path d="M5198,3500 L3469,3214" stroke="blue" stroke-width="2" />
<path d="M346,202 L7087,273" stroke="blue" stroke-width="2" />
<path d="M3197,1892 L4163,2920" stroke="blue" stroke-width="2" />
<path d="M3696,2943 L5881,2954" stroke="blue" stroke-width="2" />
<path d="M1167,3203 L3472,2625" stroke="blue" stroke-width="2" />
<path d="M2767,264 L4018,98" stroke="blue" stroke-width="2" />
<path d="M4684,138 L393,2135" stroke="blue" stroke-width="2" />
<path d="M6850,1976 L2090,675" stroke="blue" stroke-width="2" />
<path d="M3474,142 L5697,52" stroke="blue" stroke-width="2" />
<path d="M2716,599 L6926,3640" stroke="blue" stroke-width="2" />
<path d="M795,1415 L2230,1408" stroke="blue" stroke-width="2" />
<path d="M2856,3376 L2059,3192" stroke="blue" stroke-width="2" />
<path d="M4918,3504 L2591,1254" stroke="blue" stroke-width="2" />
<path d="M3443,865 L1790,3761" stroke="blue" stroke-width="2" />
<path d="M184,3069 L860,3325" stroke="blue" stroke-width="2" />
<path d="M4575,3169 L6529,3434" stroke="blue" stroke-width="2" />
<path d="M2490,2078 L6121,2742" stroke="blue" stroke-width="2" />
<path d="M68,1369 L5952,3262" stroke="blue" stroke-width="2" />
<path d="M7053,959 L7113,1012" stroke="blue" stroke-width="2" />
<path d="M1960,3066 L5114,2187" stroke="blue" stroke-width="2" />
<path d="M6742,1139 L1714,2603" stroke="blue" stroke-width="2" />
<path d="M5813,273 L3716,326" stroke="blue" stroke-width="2" />
<path d="M5788,1551 L5807,1957" stroke="blue" stroke-width="2" />
<path d="M1152,75 L451,2927" stroke="blue" stroke-width="2" />
<path d="M5136,2123 L447,3230" stroke="blue" stroke-width="2" />
<path d="M5762,1577 L4289,1040" stroke="blue" stroke-width="2" />
<path d="M2661,859 L3837,2331" stroke="blue" stroke-width="2" />
<path d="M2299,1427 L5471,3392" stroke="blue" stroke-width="2" />
<path d="M1235,1432 L7233,3314" stroke="blue" stroke-width="2" />
<path d="M508,1906 L2236,163" stroke="blue" stroke-width="2" />
<path d="M1657,2169 L6772,173" stroke="blue" stroke-width="2" />
<path d="M6507,3264 L3739,2865" stroke="blue" stroke-width="2" />
<path d="M1873,3677 L2836,3808" stroke="blue" stroke-width="2" />
<path d="M2930,516 L584,2738" stroke="blue" stroke-width="2" />
<path d="M5342,3815 L3280,197" stroke="blue" stroke-width="2" />
<path d="M4126,3108 L4709,1469" stroke="blue" stroke-width="2" />
<path d="M2730,3632 L7234,2979" stroke="blue" stroke-width="2" />
<path d="M487,233 L947,2820" stroke="blue" stroke-width="2" />
<path d="M5909,122 L3335,1581" stroke="blue" stroke-width="2" />
<path d="M5568,2977 L3958,1880" stroke="blue" stroke-width="2" />
<path d="M4310,3768 L6348,587" stroke="blue" stroke-width="2" />
<path d="M4653,284 L4844,1047" stroke="blue" stroke-width="2" />
<path d="M3848,2095 L3245,182" stroke="blue" stroke-width="2" />
<path d="M6180,3291 L3202,2570" stroke="blue" stroke-width="2" />
<path d="M3937,2448 L7047,1087" stroke="blue" stroke-width="2" />
<path d="M2258,1374 L1303,2701" stroke="blue" stroke-width="2" />
<path d="M3749,1113 L143,88" stroke="blue" stroke-width="2" />
<path d="M577,1949 L6833,1434" stroke="blue" stroke-width="2" />
<path d="M6305,1747 L2799,3620" stroke="blue" stroke-width="2" />
<path d="M7179,2390 L2860,3669" stroke="blue" stroke-width="2" />
<path d="M1287,2894 L867,3667" stroke="blue" stroke-width="2" />
<path d="M2750,2381 L6762,1734" stroke="blue" stroke-width="2" />
<path d="M4605,3427 L5666,3738" stroke="blue" stroke-width="2" />
<path d="M7193,1699 L1128,119" stroke="blue" stroke-width="2" />
<path d="M1247,3147 L348,1681" stroke="blue" stroke-width="2" />
<path d="M2152,96 L6359,1864" stroke="blue" stroke-width="2" />
<path d="M4527,3345 L1519,64" stroke="blue" stroke-width="2" />
<path d="M2870,1254 L1633,743" stroke="blue" stroke-width="2" />
<path d="M7210,1915 L933,2470" stroke="blue" stroke-width="2" />
<path d="M2124,2685 L5180,1777" stroke="blue" stroke-width="2" />
<path d="M5183,3003 L6808,85" stroke="blue" stroke-width="2" />
<path d="M6387,2543 L5141,2787" stroke="blue" stroke-width="2" />
<path d="M4428,72 L6770,1711" stroke="blue" stroke-width="2" />
<path d="M3124,1177 L2764,697" stroke="blue" stroke-width="2" />
<path d="M3208,1966 L5789,3190" stroke="blue" stroke-width="2" />
<path d="M5691,3129 L6203,1807" stroke="blue" stroke-width="2" />
<path d="M426,3345 L3715,959" stroke="blue" stroke-width="2" />
<path d="M1872,941 L1703,436" stroke="blue" stroke-width="2" />
<path d="M410,3778 L57,270" stroke="blue" stroke-width="2" />
<path d="M3640,110 L1705,3554" stroke="blue" stroke-width="2" />
<path d="M5369,887 L798,2497" stroke="blue" stroke-width="2" />
<path d="M1670,1053 L6072,1685" stroke="blue" stroke-width="2" />
<path d="M1136,3500 L2706,558" stroke="blue" stroke-width="2" />
<path d="M2858,3556 L6851,1470" stroke="blue" stroke-width="2" />
<path d="M2476,1655 L6526,1301" stroke="blue" stroke-width="2" />
<path d="M3832,2537 L1387,1656" stroke="blue" stroke-width="2" />
<path d="M2132,1762 L6420,422" stroke="blue" stroke-width="2" />
<path d="M4116,2539 L5618,3078" stroke="blue" stroke-width="2" />
<path d="M5128,3373 L2614,266" stroke="blue" stroke-width="2" />
<path d="M4515,3796 L3403,110" stroke="blue" stroke-width="2" />
<path d="M452,2760 L6797,139" stroke="blue" stroke-width="2" />
<path d="M2208,712 L1635,1791" stroke="blue" stroke-width="2" />
<path d="M6634,1292 L6416,1782" stroke="blue" stroke-width="2" />
<path d="M321,2587 L1285,188" stroke="blue" stroke-width="2" />
<path d="M1213,1868 L2763,3685" stroke="blue" stroke-width="2" />
<path d="M4637,3005 L6884,2185" stroke="blue" stroke-width="2" />
<path d="M3876,3044 L950,2787" stroke="blue" stroke-width="2" />
<path d="M3335,2992 L2866,1956" stroke="blue" stroke-width="2" />
<path d="M2561,2322 L4609,1867" stroke="blue" stroke-width="2" />
<path d="M5469,3774 L5639,3225" stroke="blue" stroke-width="2" />
<path d="M271,2454 L1690,1873" stroke="blue" stroke-width="2" />
<path d="M2891,1580 L5445,864" stroke="blue" stroke-width="2" />
<path d="M1500,83 L1146,360" stroke="blue" stroke-width="2" />
<path d="M5521,595 L1834,1374" stroke="blue" stroke-width="2" />
<path d="M7151,773 L2170,76" stroke="blue" stroke-width="2" />
<path d="M5153,1002 L1611,243" stroke="blue" stroke-width="2" />
<path d="M733,2610 L7070,2805" stroke="blue" stroke-width="2" />
<path d="M317,1610 L4649,529" stroke="blue" stroke-width="2" />
<path d="M222,1396 L2940,649" stroke="blue" stroke-width="2" />
<path d="M3526,2973 L1491,878" stroke="blue" stroke-width="2" />
<path d="M4610,2721 L5778,1990" stroke="blue" stroke-width="2" />
<path d="M1906,2245 L2990,758" stroke="blue" stroke-width="2" />
<path d="M4892,1683 L6869,1138" stroke="blue" stroke-width="2" />
<path d="M4769,1213 L1819,3022" stroke="blue" stroke-width="2" />
<path d="M4544,1910 L639,3243" stroke="blue" stroke-width="2" />
<path d="M1924,1893 L4437,1297" stroke="blue" stroke-width="2" />
<path d="M4484,2835 L5190,1089" stroke="blue" stroke-width="2" />
<path d="M3103,1124 L2614,921" stroke="blue" stroke-width="2" />
<path d="M79,538 L7138,3713" stroke="blue" stroke-width="2" />
<path d="M7015,1157 L2182,997" stroke="blue" stroke-width="2" />
<path d="M4312,2814 L5782,2628" stroke="blue" stroke-width="2" />
<path d="M5573,2942 L5120,3079" stroke="blue" stroke-width="2" />
<path d="M341,2951 L5358,3057" stroke="blue" stroke-width="2" />
<path d="M2832,1991 L5034,3434" stroke="blue" stroke-width="2" />
<path d="M4314,165 L1983,3100" stroke="blue" stroke-width="2" />
<path d="M649,2684 L352,1416" stroke="blue" stroke-width="2" />
<path d="M5336,2793 L5548,445" stroke="blue" stroke-width="2" />
<path d="M3866,2487 L6888,3630" stroke="blue" stroke-width="2" />
<path d="M3009,1492 L5738,2322" stroke="blue" stroke-width="2" />
<path d="M6626,3804 L993,3593" stroke="blue" stroke-width="2" />
<path d="M7260,1530 L623,3302" stroke="blue" stroke-width="2" />
<path d="M2362,990 L5841,1466" stroke="blue" stroke-width="2" />
<path d="M2656,1819 L3476,1846" stroke="blue" stroke-width="2" />
<path d="M2441,2549 L5165,2248" stroke="blue" stroke-width="2" />
<path d="M3158,2786 L843,1762" stroke="blue" stroke-width="2" />
<path d="M5754,2940 L2243,1755" stroke="blue" stroke-width="2" />
<path d="M5702,1108 L1758,260" stroke="blue" stroke-width="2" />
<path d="M4448,910 L6077,2314" stroke="blue" stroke-width="2" />
<path d="M5655,662 L4876,924" stroke="blue" stroke-width="2" />
<path d="M6190,2342 L4572,161" stroke="blue" stroke-width="2" />
<path d="M5345,2481 L2787,2889" stroke="blue" stroke-width="2" />
<path d="M4381,1623 L6556,1552" stroke="blue" stroke-width="2" />
<path d="M1677,3556 L5509,1460" stroke="blue" stroke-width="2" />
<path d="M3807,2717 L524,1131" stroke="blue" stroke-width="2" />
<path d="M4480,520 L6394,186" stroke="blue" stroke-width="2" />
<path d="M2215,1995 L2769,3242" stroke="blue" stroke-width="2" />
<path d="M4924,1681 L5632,2042" stroke="blue" stroke-width="2" />
<path d="M1372,1193 L2400,2952" stroke="blue" stroke-width="2" />
<path d="M1209,1925 L772,1994" stroke="blue" stroke-width="2" />
<path d="M4049,2004 L33,3244" stroke="blue" stroke-width="2" />
<path d="M2294,2612 L3061,399" stroke="blue" stroke-width="2" />
<path d="M2803,2540 L1324,1922" stroke="blue" stroke-width="2" />
<path d="M2657,1771 L3778,1303" stroke="blue" stroke-width="2" />
<path d="M4091,384 L7293,1620" stroke="blue" stroke-width="2" />
<path d="M1498,123 L1760,1848" stroke="blue" stroke-width="2" />
<path d="M7205,440 L2947,24" stroke="blue" stroke-width="2" />
<path d="M5232,1042 L365,2503" stroke="blue" stroke-width="2" />
<path d="M621,2711 L1394,1543" stroke="blue" stroke-width="2" />
<path d="M2856,231 L2631,182" stroke="blue" stroke-width="2" />
<path d="M1557,1384 L5568,842" stroke="blue" stroke-width="2" />
<path d="M721,1294 L4680,2503" stroke="blue" stroke-width="2" />
<path d="M4158,954 L6415,2131" stroke="blue" stroke-width="2" />
<path d="M6457,3477 L2696,3676" stroke="blue" stroke-width="2" />
<path d="M4001,3722 L4306,2282" stroke="blue" stroke-width="2" />
<path d="M935,2401 L2019,1873" stroke="blue" stroke-width="2" />
<path d="M5362,3117 L1148,2638" stroke="blue" stroke-width="2" />
<path d="M6669,2012 L3759,3281" stroke="blue" stroke-width="2" />
<path d="M5607,1556 L279,3613" stroke="blue" stroke-width="2" />
<path d="M6988,59 L1551,31" stroke="blue" stroke-width="2" />
<path d="M3704,1669 L331,2595" stroke="blue" stroke-width="2" />
<path d="M3705,801 L7051,2627" stroke="blue" stroke-width="2" />
<path d="M2754,3130 L6410,186" stroke="blue" stroke-width="2" />
<path d="M2884,3165 L6441,1061" stroke="blue" stroke-width="2" />
<path d="M2616,1026 L3739,2630" stroke="blue" stroke-width="2" />
<path d="M1247,92 L4892,7" stroke="blue" stroke-width="2" />
<path d="M6672,2170 L850,1996" stroke="blue" stroke-width="2" />
<path d="M3070,124 L2611,581" stroke="blue" stroke-width="2" />
<path d="M5185,3218 L6161,1900" stroke="blue" stroke-width="2" />
<path d="M6450,1651 L2546,1625" stroke="blue" stroke-width="2" />
<path d="M3902,2537 L5773,3817" stroke="blue" stroke-width="2" />
<path d="M5067,2362 L6204,3000" stroke="blue" stroke-width="2" />
<path d="M7159,3522 L2752,2478" stroke="blue" stroke-width="2" />
<path d="M397,3087 L1430,2969" stroke="blue" stroke-width="2" />
<path d="M4153,3785 L6208,2027" stroke="blue" stroke-width="2" />
<path d="M4420,781 L3442,3236" stroke="blue" stroke-width="2" />
<path d="M1046,428 L4402,1905" stroke="blue" stroke-width="2" />
<path d="M4089,2031 L3736,938" stroke="blue" stroke-width="2" />
<path d="M3031,293 L5279,612" stroke="blue" stroke-width="2" />
<path d="M3614,3498 L342,2558" stroke="blue" stroke-width="2" />
<path d="M821,3364 L3343,225" stroke="blue" stroke-width="2" />
<path d="M488,3711 L2465,3165" stroke="blue" stroke-width="2" />
<path d="M5086,3112 L374,1345" stroke="blue" stroke-width="2" />
<path d="M6680,1204 L2641,1671" stroke="blue" stroke-width="2" />
<path d="M7068,3266 L4199,1462" stroke="blue" stroke-width="2" />
<path d="M7173,3180 L2219,57" stroke="blue" stroke-width="2" />
<path d="M2925,2539 L5888,10" stroke="blue" stroke-width="2" />
<path d="M5820,2766 L6088,1914" stroke="blue" stroke-width="2" />
<path d="M3358,346 L6610,3276" stroke="blue" stroke-width="2" />
<path d="M4630,3552 L5822,480" stroke="blue" stroke-width="2" />
<path d="M4131,1058 L569,208" stroke="blue" stroke-width="2" />
<path d="M6572,908 L5212,2083" stroke="blue" stroke-width="2" />
<path d="M1477,3603 L378,2049" stroke="blue" stroke-width="2" />
<path d="M4583,1677 L2390,1718" stroke="blue" stroke-width="2" />
<path d="M4055,2184 L3408,1844" stroke="blue" stroke-width="2" />
<path d="M5181,588 L7075,1965" stroke="blue" stroke-width="2" />
<path d="M6822,1859 L3264,1484" stroke="blue" stroke-width="2" />
<path d="M683,2742 L4904,2468" stroke="blue" stroke-width="2" />
<path d="M389,132 L839,889" stroke="blue" stroke-width="2" />
<path d="M6959,793 L1251,624" stroke="blue" stroke-width="2" />
<path d="M6512,3622 L3760,3089" stroke="blue" stroke-width="2" />
<path d="M4667,1038 L575,2901" stroke="blue" stroke-width="2" />
<path d="M1805,3629 L5206,353" stroke="blue" stroke-width="2" />
<path d="M168,894 L4155,3019" stroke="blue" stroke-width="2" />
<path d="M633,231 L4372,3675" stroke="blue" stroke-width="2" />
<path d="M2990,248 L5623,3756" stroke="blue" stroke-width="2" />
<path d="M1076,1879 L3768,931" stroke="blue" stroke-width="2" />
<path d="M684,149 L1022,1535" stroke="blue" stroke-width="2" />
<path d="M2195,1235 L5617,1705" stroke="blue" stroke-width="2" />
<path d="M6746,2811 L685,1979" stroke="blue" stroke-width="2" />
<path d="M3995,3196 L6217,345" stroke="blue" stroke-width="2" />
<path d="M5040,932 L3168,1700" stroke="blue" stroke-width="2" />
<path d="M6236,1014 L6127,2493" stroke="blue" stroke-width="2" />
<path d="M472,2308 L4454,458" stroke="blue" stroke-width="2" />
<path d="M228,2284 L3858,2951" stroke="blue" stroke-width="2" />
<path d="M6749,3194 L1806,2062" stroke="blue" stroke-width="2" />
<path d="M3042,207 L4510,3117" stroke="blue" stroke-width="2" />
<path d="M2232,1231 L4280,1668" stroke="blue" stroke-width="2" />
<path d="M903,2521 L1622,1743" stroke="blue" stroke-width="2" />
<path d="M2050,1867 L3759,2240" stroke="blue" stroke-width="2" />
<path d="M879,2416 L3997,32" stroke="blue" stroke-width="2" />
<path d="M589,3807 L5357,164" stroke="blue" stroke-width="2" />
<path d="M2367,2618 L5190,1864" stroke="blue" stroke-width="2" />
<path d="M7288,439 L3353,1486" stroke="blue" stroke-width="2" />
<path d="M3997,451 L4820,2060" stroke="blue" stroke-width="2" />
<path d="M4999,3572 L1770,391" stroke="blue" stroke-width="2" />
<path d="M5637,1695 L6011,3620" stroke="blue" stroke-width="2" />
<path d="M2849,667 L1948,997" stroke="blue" stroke-width="2" />
<path d="M1668,3703 L6995,634" stroke="blue" stroke-width="2" />
<path d="M677,2023 L2573,1821" stroke="blue" stroke-width="2" />
<path d="M1725,3301 L5445,222" stroke="blue" stroke-width="2" />
<path d="M239,270 L3731,2966" stroke="blue" stroke-width="2" />
<path d="M6689,2016 L2023,3742" stroke="blue" stroke-width="2" />
<path d="M7074,1177 L3436,3430" stroke="blue" stroke-width="2" />
<path d="M0,0 L7317,0" stroke="red" stroke-width="10" />
<path d="M7317,0 L7317,3831" stroke="red" stroke-width="10" />
<path d="M0,3831 L7317,3831" stroke="red" stroke-width="10" />
<path d="M0,3831 L0,0" stroke="red" stroke-width="10" />
</svg>