<?xml version="1.0" encoding="UTF-8"?>
<svg xmlns="http://www.w3.org/2000/svg" xmlns:xlink="http://www.w3.org/1999/xlink"
     width="10000" height="10000" viewBox="0 0 10000 10000">
<defs>
</defs>
<path d="M4816,2423 L4668,1620" stroke="blue" stroke-width="2" />
<path d="M3914,4364 L7773,1844" stroke="blue" stroke-width="2" />
<path d="M6910,1289 L915,1736" stroke="blue" stroke-width="2" />
<path d="M3542,1880 L2623,472" stroke="blue" stroke-width="2" />
<path d="M9104,351 L5818,1944" stroke="blue" stroke-width="2" />
<path d="M6968,402 L212,2770" stroke="blue" stroke-width="2" />
<path d="M281,248 L5832,2452" stroke="blue" stroke-width="2" />
<path d="M519,250 L334,814" stroke="blue" stroke-width="2" />
<path d="M6789,3507 L6751,269" stroke="blue" stroke-width="2" />
<path d="M5328,3930 L2842,2944" stroke="blue" stroke-width="2" />
<path d="M503,108 L6299,3743" stroke="blue" stroke-width="2" />
<path d="M2237,2343 L9392,3623" stroke="blue" stroke-width="2" />
<path d="M8733,623 L5884,745" stroke="blue" stroke-width="2" />
<path d="M6890,841 L7211,1705" stroke="blue" stroke-width="2" />
<path d="M1335,2960 L8969,2018" stroke="blue" stroke-width="2" />
<path d="M571,1647 L3202,4535" stroke="blue" stroke-width="2" />
<path d="M8355,3582 L4225,3598" stroke="blue" stroke-width="2" />
<path d="M1681,383 L7582,3873" stroke="blue" stroke-width="2" />
<path d="M5692,4370 L4970,393" stroke="blue" stroke-width="2" />
<path d="M9169,4107 L7466,4591" stroke="blue" stroke-width="2" />
<path d="M988,885 L8220,3265" stroke="blue" stroke-width="2" />
<path d="M6553,574 L5340,4533" stroke="blue" stroke-width="2" />
<path d="M8062,2716 L6581,499" stroke="blue" stroke-width="2" />
<path d="M4898,772 L3083,2317" stroke="blue" stroke-width="2" />
<path d="M1805,1672 L1381,4423" stroke="blue" stroke-width="2" />
<path d="M2624,486 L1295,22" stroke="blue" stroke-width="2" />
<path d="M9210,2621 L7183,1029" stroke="blue" stroke-width="2" />
<path d="M4960,1708 L4375,4667" stroke="blue" stroke-width="2" />
<path d="M1648,3007 L3403,4730" stroke="blue" stroke-width="2" />
<path d="M2260,2630 L6434,3352" stroke="blue" stroke-width="2" />
<path d="M644,1946 L324,2533" stroke="blue" stroke-width="2" />
<path d="M8726,3165 L6473,2218" stroke="blue" stroke-width="2" />
<path d="M9148,2166 L797,1976" stroke="blue" stroke-width="2" />
<path d="M3519,1148 L6731,2905" stroke="blue" stroke-width="2" />
<path d="M6634,2425 L1659,2041" stroke="blue" stroke-width="2" />
<path d="M430,808 L9213,2890" stroke="blue" stroke-width="2" />
<path d="M7832,3212 L6457,3419" stroke="blue" stroke-width="2" />
<path d="M5938,248 L4069,3249" stroke="blue" stroke-width="2" />
<path d="M5921,3241 L1307,111" stroke="blue" stroke-width="2" />
<path d="M7438,3552 L4560,2678" stroke="blue" stroke-width="2" />
<path d="M8313,3520 L5089,476" stroke="blue" stroke-width="2" />
<path d="M7044,1330 L7283,1455" stroke="blue" stroke-width="2" />
<path d="M1226,1291 L9073,284" stroke="blue" stroke-width="2" />
<path d="M1319,5 L7185,3907" stroke="blue" stroke-width="2" />
<path d="M892,2002 L1862,908" stroke="blue" stroke-width="2" />
<path d="M3029,4568 L9420,3390" stroke="blue" stroke-width="2" />
<path d="M6117,3211 L4139,4282" stroke="blue" stroke-width="2" />
<path d="M8344,442 L9232,1738" stroke="blue" stroke-width="2" />
<path d="M1331,1085 L3906,3827" stroke="blue" stroke-width="2" />
<path d="M3833,2550 L9690,1565" stroke="blue" stroke-width="2" />
<path d="M6182,1349 L2566,4011" stroke="blue" stroke-width="2" />
<path d="M451,1100 L9608,1402" stroke="blue" stroke-width="2" />
<path d="M3490,411 L4087,642" stroke="blue" stroke-width="2" />
<path d="M3673,403 L3681,1532" stroke="blue" stroke-width="2" />
<path d="M8246,3075 L2675,4705" stroke="blue" stroke-width="2" />
<path d="M4488,317 L1845,3217" stroke="blue" stroke-width="2" />
<path d="M3904,2032 L6897,4598" stroke="blue" stroke-width="2" />
<path d="M8329,1696 L7935,642" stroke="blue" stroke-width="2" />
<path d="M9585,2052 L6482,4439" stroke="blue" stroke-width="2" />
<path d="M49,228 L6498,4240" stroke="blue" stroke-width="2" />
<path d="M1530,2371 L456,2165" stroke="blue" stroke-width="2" />
<path d="M4137,56 L5427,4425" stroke="blue" stroke-width="2" />
<path d="M6898,2853 L5973,966" stroke="blue" stroke-width="2" />
<path d="M5953,4438 L5179,1338" stroke="blue" stroke-width="2" />
<path d="M5512,1677 L2525,4299" stroke="blue" stroke-width="2" />
<path d="M6068,3945 L3892,527" stroke="blue" stroke-width="2" />
<path d="M1935,3692 L6744,3533" stroke="blue" stroke-width="2" />
<path d="M8287,4250 L821,4182" stroke="blue" stroke-width="2" />
<path d="M8510,2609 L3415,446" stroke="blue" stroke-width="2" />
<path d="M9707,2808 L4967,839" stroke="blue" stroke-width="2" />
<path d="M2061,4247 L7080,375" stroke="blue" stroke-width="2" />
<path d="M6166,756 L5973,3300" stroke="blue" stroke-width="2" />
<path d="M9778,4049 L2007,555" stroke="blue" stroke-width="2" />
<path d="M6155,2966 L4955,822" stroke="blue" stroke-width="2" />
<path d="M8776,361 L4488,4079" stroke="blue" stroke-width="2" />
<path d="M5911,1867 L4559,903" stroke="blue" stroke-width="2" />
<path d="M8640,2853 L7002,710" stroke="blue" stroke-width="2" />
<path d="M311,2542 L6012,2917" stroke="blue" stroke-width="2" />
<path d="M9650,2062 L4283,146" stroke="blue" stroke-width="2" />
<path d="M8742,1825 L9357,3149" stroke="blue" stroke-width="2" />
<path d="M9364,744 L2937,2136" stroke="blue" stroke-width="2" />
<path d="M6796,3255 L6330,3219" stroke="blue" stroke-width="2" />
<path d="M5039,2305 L8205,2260" stroke="blue" stroke-width="2" />
<path d="M5235,1861 L488,3175" stroke="blue" stroke-width="2" />
<path d="M1509,795 L9722,240" stroke="blue" stroke-width="2" />
<path d="M1744,3442 L7009,2517" stroke="blue" stroke-width="2" />
<path d="M6837,2816 L5164,1653" stroke="blue" stroke-width="2" />
<path d="M2280,662 L1056,210" stroke="blue" stroke-width="2" />
<path d="M4155,2656 L7728,1445" stroke="blue" stroke-width="2" />
<path d="M3015,649 L3725,4207" stroke="blue" stroke-width="2" />
<path d="M3420,2522 L8599,1335" stroke="blue" stroke-width="2" />
<path d="M5668,2611 L5735,3527" stroke="blue" stroke-width="2" />
<path d="M3610,905 L1933,1965" stroke="blue" stroke-width="2" />
<path d="M7347,2877 L9375,3656" stroke="blue" stroke-width="2" />
<path d="M9457,2487 L8686,3701" stroke="blue" stroke-width="2" />
<path d="M1660,2227 L828,3258" stroke="blue" stroke-width="2" />
<path d="M8885,2933 L1212,2383" stroke="blue" stroke-width="2" />
<path d="M5825,2079 L2771,830" stroke="blue" stroke-width="2" />
<path d="M4142,144 L2876,4465" stroke="blue" stroke-width="2" />
<path d="M307,209 L6180,903" stroke="blue" stroke-width="2" />
<path d="M7546,1208 L6684,3050" stroke="blue" stroke-width="2" />
<path d="M7267,1788 L7626,4343" stroke="blue" stroke-width="2" />
<path d="M5266,2846 L7800,4369" stroke="blue" stroke-width="2" />
<path d="M2623,1603 L6031,4420" stroke="blue" stroke-width="2" />
<path d="M9287,1533 L5323,535" stroke="blue" stroke-width="2" />
<path d="M1171,2435 L1834,250" stroke="blue" stroke-width="2" />
<path d="M4481,3539 L3199,249" stroke="blue" stroke-width="2" />
<path d="M8168,2617 L6889,880" stroke="blue" stroke-width="2" />
<path d="M910,1757 L7870,608" stroke="blue" stroke-width="2" />
<path d="M5363,1301 L5182,2195" stroke="blue" stroke-width="2" />
<path d="M3031,847 L5472,3017" stroke="blue" stroke-width="2" />
<path d="M7398,667 L510,3935" stroke="blue" stroke-width="2" />
<path d="M7576,4624 L4683,1328" stroke="blue" stroke-width="2" />
<path d="M5701,3678 L8956,2004" stroke="blue" stroke-width="2" />
<path d="M8195,3924 L3486,2062" stroke="blue" stroke-width="2" />
<path d="M3621,3911 L6664,2512" stroke="blue" stroke-width="2" />
<path d="M8038,2973 L3456,501" stroke="blue" stroke-width="2" />
<path d="M7126,2583 L9028,1614" stroke="blue" stroke-width="2" />
<path d="M1659,4301 L422,4293" stroke="blue" stroke-width="2" />
<path d="M8516,38 L2984,3033" stroke="blue" stroke-width="2" />
<path d="M5647,1672 L4662,1331" stroke="blue" stroke-width="2" />
<path d="M9615,4071 L5858,3306" stroke="blue" stroke-width="2" />
<path d="M6317,842 L8916,4479" stroke="blue" stroke-width="2" />
<path d="M2553,507 L3291,2467" stroke="blue" stroke-width="2" />
<path d="M4518,2850 L2945,2258" stroke="blue" stroke-width="2" />
<path d="M750,3509 L4556,4403" stroke="blue" stroke-width="2" />
<path d="M6854,1815 L7366,2853" stroke="blue" stroke-width="2" />
<path d="M9192,420 L7649,4437" stroke="blue" stroke-width="2" />
<path d="M8927,925 L7069,760" stroke="blue" stroke-width="2" />
<path d="M2237,3790 L8795,428" stroke="blue" stroke-width="2" />
<path d="M9069,3007 L7363,2598" stroke="blue" stroke-width="2" />
<path d="M3727,4027 L2432,1296" stroke="blue" stroke-width="2" />
<path d="M2258,2013 L178,2097" stroke="blue" stroke-width="2" />
<path d="M3663,3900 L2417,4580" stroke="blue" stroke-width="2" />
<path d="M8747,4230 L9151,4200" stroke="blue" stroke-width="2" />
<path d="M8108,2243 L927,2590" stroke="blue" stroke-width="2" />
<path d="M7727,2089 L9148,3864" stroke="blue" stroke-width="2" />
<path d="M7844,2637 L1312,2327" stroke="blue" stroke-width="2" />
<path d="M5732,4341 L3216,3302" stroke="blue" stroke-width="2" />
<path d="M1267,4111 L5156,2616" stroke="blue" stroke-width="2" />
<path d="M4801,245 L9726,1928" stroke="blue" stroke-width="2" />
<path d="M1713,2217 L4126,3031" stroke="blue" stroke-width="2" />
<path d="M4305,4229 L3937,2982" stroke="blue" stroke-width="2" />
<path d="M4944,3948 L9808,3694" stroke="blue" stroke-width="2" />
<path d="M4828,1997 L8353,3530" stroke="blue" stroke-width="2" />
<path d="M3879,2006 L5167,3897" stroke="blue" stroke-width="2" />
<path d="M5709,682 L3933,3259" stroke="blue" stroke-width="2" />
<path d="M2726,4659 L309,2654" stroke="blue" stroke-width="2" />
<path d="M9304,1078 L3632,3692" stroke="blue" stroke-width="2" />
<path d="M8588,608 L851,902" stroke="blue" stroke-width="2" />
<path d="M8098,3723 L2367,894" stroke="blue" stroke-width="2" />
<path d="M9363,583 L8587,130" stroke="blue" stroke-width="2" />
<path d="M5909,1887 L8946,2160" stroke="blue" stroke-width="2" />
<path d="M7503,2128 L1252,1709" stroke="blue" stroke-width="2" />
<path d="M5149,3707 L1489,972" stroke="blue" stroke-width="2" />
<path d="M3460,3812 L8785,1072" stroke="blue" stroke-width="2" />
<path d="M6780,758 L3387,3962" stroke="blue" stroke-width="2" />
<path d="M1888,832 L6536,4394" stroke="blue" stroke-width="2" />
<path d="M782,914 L7583,939" stroke="blue" stroke-width="2" />
<path d="M2327,1607 L7028,4444" stroke="blue" stroke-width="2" />
<path d="M2907,4156 L9175,3061" stroke="blue" stroke-width="2" />
<path d="M8434,4430 L8733,3623" stroke="blue" stroke-width="2" />
<path d="M9680,4238 L9388,2827" stroke="blue" stroke-width="2" />
<path d="M6684,592 L1863,400" stroke="blue" stroke-width="2" />
<path d="M9347,4622 L5204,2746" stroke="blue" stroke-width="2" />
<path d="M5224,555 L4681,4691" stroke="blue" stroke-width="2" />
<path d="M5598,2073 L6884,4499" stroke="blue" stroke-width="2" />
<path d="M8018,4560 L9088,2045" stroke="blue" stroke-width="2" />
<path d="M7622,3101 L5783,1513" stroke="blue" stroke-width="2" />
<path d="M4175,2977 L5169,2459" stroke="blue" stroke-width="2" />
<path d="M3057,2829 L8530,4171" stroke="blue" stroke-width="2" />
<path d="M582,4194 L4399,3443" stroke="blue" stroke-width="2" />
<path d="M3795,3995 L5959,2768" stroke="blue" stroke-width="2" />
<path d="M4017,957 L483,3994" stroke="blue" stroke-width="2" />
<path d="M3325,584 L754,887" stroke="blue" stroke-width="2" />
<path d="M2679,4554 L3547,2894" stroke="blue" stroke-width="2" />
<path d="M4807,1111 L2105,911" stroke="blue" stroke-width="2" />
<path d="M5197,3282 L9483,4329" stroke="blue" stroke-width="2" />
<path d="M1889,1780 L2341,2442" stroke="blue" stroke-width="2" />
<path d="M8970,4012 L1622,2756" stroke="blue" stroke-width="2" />
<path d="M4114,3012 L1830,1181" stroke="blue" stroke-width="2" />
<path d="M885,3478 L2783,4339" stroke="blue" stroke-width="2" />
<path d="M3929,2187 L8480,1686" stroke="blue" stroke-width="2" />
<path d="M2843,2123 L3979,1779" stroke="blue" stroke-width="2" />
<path d="M9287,1861 L6564,4547" stroke="blue" stroke-width="2" />
<path d="M998,1356 L7632,4633" stroke="blue" stroke-width="2" />
<path d="M4782,350 L3571,3095" stroke="blue" stroke-width="2" />
<path d="M4139,279 L1971,1789" stroke="blue" stroke-width="2" />
<path d="M7209,4025 L2496,3457" stroke="blue" stroke-width="2" />
<path d="M2622,3583 L9309,681" stroke="blue" stroke-width="2" />
<path d="M7013,3101 L3083,4511" stroke="blue" stroke-width="2" />
<path d="M4036,1742 L5139,2625" stroke="blue" stroke-width="2" />
<path d="M5845,4129 L1731,4048" stroke="blue" stroke-width="2" />
<path d="M6092,286 L5483,312" stroke="blue" stroke-width="2" />
<path d="M1367,2920 L5925,4082" stroke="blue" stroke-width="2" />
<path d="M2626,4334 L8761,191" stroke="blue" stroke-width="2" />
<path d="M5119,2817 L4322,3977" stroke="blue" stroke-width="2" />
<path d="M6573,1531 L2122,217" stroke="blue" stroke-width="2" />
<path d="M7574,2891 L6550,658" stroke="blue" stroke-width="2" />
<path d="M2466,1173 L2950,3936" stroke="blue" stroke-width="2" />
<path d="M5085,4181 L3707,2574" stroke="blue" stroke-width="2" />
<path d="M2588,566 L3956,1274" stroke="blue" stroke-width="2" />
<path d="M8026,3297 L8980,3877" stroke="blue" stroke-width="2" />
<path d="M7292,1607 L7657,195" stroke="blue" stroke-width="2" />
<path d="M4876,1789 L4926,1236" stroke="blue" stroke-width="2" />
<path d="M2804,2080 L1243,1315" stroke="blue" stroke-width="2" />
<path d="M7260,271 L8176,1398" stroke="blue" stroke-width="2" />
<path d="M3015,920 L7083,868" stroke="blue" stroke-width="2" />
<path d="M7511,2885 L4530,2907" stroke="blue" stroke-width="2" />
<path d="M2229,3137 L4333,2823" stroke="blue" stroke-width="2" />
<path d="M9253,1921 L5901,4579" stroke="blue" stroke-width="2" />
<path d="M2250,4675 L2232,1744" stroke="blue" stroke-width="2" />
<path d="M4092,413 L6144,4569" stroke="blue" stroke-width="2" />
<path d="M8705,4356 L3478,744" stroke="blue" stroke-width="2" />
<path d="M9182,1673 L5741,4465" stroke="blue" stroke-width="2" />
<path d="M8012,3720 L4748,4318" stroke="blue" stroke-width="2" />
<path d="M4272,1300 L6116,2975" stroke="blue" stroke-width="2" />
<path d="M9152,4704 L5117,3435" stroke="blue" stroke-width="2" />
<path d="M4911,1632 L8711,930" stroke="blue" stroke-width="2" />
<path d="M6028,3798 L1975,2262" stroke="blue" stroke-width="2" />
<path d="M2238,3704 L2321,1660" stroke="blue" stroke-width="2" />
<path d="M504,4268 L6627,272" stroke="blue" stroke-width="2" />
<path d="M5507,4739 L7378,2836" stroke="blue" stroke-width="2" />
<path d="M5997,3396 L7460,1267" stroke="blue" stroke-width="2" />
<path d="M2629,3944 L6123,4434" stroke="blue" stroke-width="2" />
<path d="M9051,3609 L9566,3659" stroke="blue" stroke-width="2" />
<path d="M3189,4062 L2707,1122" stroke="blue" stroke-width="2" />
<path d="M2611,2305 L5897,2478" stroke="blue" stroke-width="2" />
<path d="M5763,2529 L2462,2446" stroke="blue" stroke-width="2" />
<path d="M1295,2013 L8786,482" stroke="blue" stroke-width="2" />
<path d="M8244,2102 L2968,1750" stroke="blue" stroke-width="2" />
<path d="M8252,293 L4885,3423" stroke="blue" stroke-width="2" />
<path d="M9,1149 L5715,3101" stroke="blue" stroke-width="2" />
<path d="M5274,4024 L1504,4159" stroke="blue" stroke-width="2" />
<path d="M9768,3771 L2069,1716" stroke="blue" stroke-width="2" />
<path d="M7725,1515 L6303,3422" stroke="blue" stroke-width="2" />
<path d="M5569,1647 L7977,3592" stroke="blue" stroke-width="2" />
<path d="M7686,501 L6686,4254" stroke="blue" stroke-width="2" />
<path d="M3348,1519 L969,4577" stroke="blue" stroke-width="2" />
<path d="M1183,866 L1314,1398" stroke="blue" stroke-width="2" />
<path d="M2647,783 L5641,309" stroke="blue" stroke-width="2" />
<path d="M937,530 L544,4" stroke="blue" stroke-width="2" />
<path d="M3826,2689 L8736,1572" stroke="blue" stroke-width="2" />
<path d="M5918,4604 L7314,1823" stroke="blue" stroke-width="2" />
<path d="M9099,499 L5112,4040" stroke="blue" stroke-width="2" />
<path d="M5616,3141 L2069,2317" stroke="blue" stroke-width="2" />
<path d="M934,2649 L6477,4422" stroke="blue" stroke-width="2" />
<path d="M4133,3578 L3555,3714" stroke="blue" stroke-width="2" />
<path d="M1341,1848 L4995,3827" stroke="blue" stroke-width="2" />
<path d="M8076,2640 L5255,3106" stroke="blue" stroke-width="2" />
<path d="M7354,1699 L368,1020" stroke="blue" stroke-width="2" />
<path d="M6295,3438 L1429,1142" stroke="blue" stroke-width="2" />
<path d="M3120,2544 L7546,4033" stroke="blue" stroke-width="2" />
<path d="M7841,1446 L8398,1868" stroke="blue" stroke-width="2" />
<path d="M8288,3359 L8892,284" stroke="blue" stroke-width="2" />
<path d="M3535,1173 L7906,3241" stroke="blue" stroke-width="2" />
<path d="M7386,3503 L8845,3463" stroke="blue" stroke-width="2" />
<path d="M2352,2968 L1415,1202" stroke="blue" stroke-width="2" />
<path d="M3078,28 L7431,3798" stroke="blue" stroke-width="2" />
<path d="M5910,3269 L8963,925" stroke="blue" stroke-width="2" />
<path d="M2086,2151 L1837,3435" stroke="blue" stroke-width="2" />
<path d="M348,1396 L4543,1384" stroke="blue" stroke-width="2" />
<path d="M5895,1244 L2863,3243" stroke="blue" stroke-width="2" />
<path d="M3330,211 L5181,1547" stroke="blue" stroke-width="2" />
<path d="M1593,2026 L3849,2562" stroke="blue" stroke-width="2" />
<path d="M5452,2885 L8635,1718" stroke="blue" stroke-width="2" />
<path d="M8276,4366 L9594,4646" stroke="blue" stroke-width="2" />
<path d="M3610,667 L6960,471" stroke="blue" stroke-width="2" />
<path d="M9299,4575 L6140,4381" stroke="blue" stroke-width="2" />
<path d="M8228,3034 L9218,404" stroke="blue" stroke-width="2" />
<path d="M6996,870 L935,2598" stroke="blue" stroke-width="2" />
<path d="M6184,2349 L9065,2587" stroke="blue" stroke-width="2" />
<path d="M6105,3249 L2615,4279" stroke="blue" stroke-width="2" />
<path d="M8702,896 L1242,24" stroke="blue" stroke-width="2" />
<path d="M4863,3871 L3044,3690" stroke="blue" stroke-width="2" />
<path d="M0,0 L9836,0" stroke="red" stroke-width="10" />
<path d="M9836,0 L9836,4791" stroke="red" stroke-width="10" />
<path d="M0,4791 L9836,4791" stroke="red" stroke-width="10" />
<path d="M0,4791 L0,0" stroke="red" stroke-width="10" />
</svg>