<?xml version="1.0" encoding="UTF-8"?>
<svg xmlns="http://www.w3.org/2000/svg" xmlns:xlink="http://www.w3.org/1999/xlink"
     width="10000" height="10000" viewBox="0 0 10000 10000">
<defs>
</defs>
<path d="M578,784 L1990,2347" stroke="blue" stroke-width="2" />
<path d="M4056,1140 L6099,861" stroke="blue" stroke-width="2" />
<path d="M4689,3792 L700,645" stroke="blue" stroke-width="2" />
<path d="M2224,2144 L5416,2660" stroke="blue" stroke-width="2" />
<path d="M316,272 L4667,4448" stroke="blue" stroke-width="2" />
<path d="M2655,3871 L1965,3006" stroke="blue" stroke-width="2" />
<path d="M165,4352 L4410,3754" stroke="blue" stroke-width="2" />
<path d="M377,4552 L1380,695" stroke="blue" stroke-width="2" />
<path d="M3378,2054 L1969,2371" stroke="blue" stroke-width="2" />
<path d="M5226,2429 L4435,3529" stroke="blue" stroke-width="2" />
<path d="M5602,4497 L2292,128" stroke="blue" stroke-width="2" />
<path d="M4842,2949 L1569,4309" stroke="blue" stroke-width="2" />
<path d="M712,542 L2065,4260" stroke="blue" stroke-width="2" />
<path d="M3067,1807 L4957,1568" stroke="blue" stroke-width="2" />
<path d="M198,2402 L5026,708" stroke="blue" stroke-width="2" />
<path d="M4070,3170 L5934,1227" stroke="blue" stroke-width="2" />
<path d="M276,3442 L2873,3959" stroke="blue" stroke-width="2" />
<path d="M261,537 L2548,2650" stroke="blue" stroke-width="2" />
<path d="M5954,194 L6249,3730" stroke="blue" stroke-width="2" />
<path d="M1669,3625 L3807,2349" stroke="blue" stroke-width="2" />
<path d="M178,2276 L3990,4067" stroke="blue" stroke-width="2" />
<path d="M4043,3086 L3663,1430" stroke="blue" stroke-width="2" />
<path d="M5323,1065 L96,4068" stroke="blue" stroke-width="2" />
<path d="M1899,3046 L3950,23" stroke="blue" stroke-width="2" />
<path d="M385,1265 L3606,2684" stroke="blue" stroke-width="2" />
<path d="M1286,4059 L448,1085" stroke="blue" stroke-width="2" />
<path d="M2193,3946 L6415,295" stroke="blue" stroke-width="2" />
<path d="M4417,4456 L2031,1409" stroke="blue" stroke-width="2" />
<path d="M175,1204 L6192,1105" stroke="blue" stroke-width="2" />
<path d="M2077,1319 L5076,2004" stroke="blue" stroke-width="2" />
<path d="M1887,2385 L628,4316" stroke="blue" stroke-width="2" />
<path d="M5489,2220 L1912,2194" stroke="blue" stroke-width="2" />
<path d="M5778,1906 L598,1443" stroke="blue" stroke-width="2" />
<path d="M4640,3875 L5418,2222" stroke="blue" stroke-width="2" />
<path d="M830,3438 L3835,1770" stroke="blue" stroke-width="2" />
<path d="M166,543 L20,3309" stroke="blue" stroke-width="2" />
<path d="M350,1585 L1126,658" stroke="blue" stroke-width="2" />
<path d="M1580,1600 L2350,2046" stroke="blue" stroke-width="2" />
<path d="M3557,2843 L4096,3636" stroke="blue" stroke-width="2" />
<path d="M5690,4215 L5478,4486" stroke="blue" stroke-width="2" />
<path d="M4475,790 L1905,2850" stroke="blue" stroke-width="2" />
<path d="M6448,956 L6030,4267" stroke="blue" stroke-width="2" />
<path d="M1337,1214 L3697,4451" stroke="blue" stroke-width="2" />
<path d="M3554,3782 L4393,3822" stroke="blue" stroke-width="2" />
<path d="M264,3859 L2843,255" stroke="blue" stroke-width="2" />
<path d="M2112,2191 L4389,2297" stroke="blue" stroke-width="2" />
<path d="M5172,173 L11,2970" stroke="blue" stroke-width="2" />
<path d="M693,4517 L4926,2979" stroke="blue" stroke-width="2" />
<path d="M947,253 L6590,1779" stroke="blue" stroke-width="2" />
<path d="M4953,3652 L2126,4054" stroke="blue" stroke-width="2" />
<path d="M3050,1626 L1589,972" stroke="blue" stroke-width="2" />
<path d="M104,3412 L5255,3380" stroke="blue" stroke-width="2" />
<path d="M3196,3083 L1659,2617" stroke="blue" stroke-width="2" />
<path d="M5178,3276 L2325,3569" stroke="blue" stroke-width="2" />
<path d="M4109,3874 L4815,3147" stroke="blue" stroke-width="2" />
<path d="M2160,4192 L2184,2127" stroke="blue" stroke-width="2" />
<path d="M2656,3002 L118,3469" stroke="blue" stroke-width="2" />
<path d="M2209,2329 L3349,1348" stroke="blue" stroke-width="2" />
<path d="M2076,222 L671,3171" stroke="blue" stroke-width="2" />
<path d="M185,994 L4794,1008" stroke="blue" stroke-width="2" />
<path d="M2058,3256 L1436,952" stroke="blue" stroke-width="2" />
<path d="M3566,3509 L3038,1105" stroke="blue" stroke-width="2" />
<path d="M4168,3294 L113,1843" stroke="blue" stroke-width="2" />
<path d="M3417,1780 L2106,3444" stroke="blue" stroke-width="2" />
<path d="M4506,1565 L3349,409" stroke="blue" stroke-width="2" />
<path d="M1231,3249 L2633,3928" stroke="blue" stroke-width="2" />
<path d="M408,2334 L564,2921" stroke="blue" stroke-width="2" />
<path d="M5198,414 L3015,438" stroke="blue" stroke-width="2" />
<path d="M5964,2490 L6330,1533" stroke="blue" stroke-width="2" />
<path d="M2905,1927 L2623,1052" stroke="blue" stroke-width="2" />
<path d="M142,4109 L6217,4154" stroke="blue" stroke-width="2" />
<path d="M1332,2688 L6008,1036" stroke="blue" stroke-width="2" />
<path d="M977,3008 L6199,1501" stroke="blue" stroke-width="2" />
<path d="M2871,3297 L20,1878" stroke="blue" stroke-width="2" />
<path d="M4471,2966 L2410,2677" stroke="blue" stroke-width="2" />
<path d="M4351,1057 L5221,1170" stroke="blue" stroke-width="2" />
<path d="M4420,2577 L6127,3150" stroke="blue" stroke-width="2" />
<path d="M3600,1779 L6136,1780" stroke="blue" stroke-width="2" />
<path d="M4287,3649 L4120,1197" stroke="blue" stroke-width="2" />
<path d="M1483,2406 L6363,4195" stroke="blue" stroke-width="2" />
<path d="M595,3619 L1547,1042" stroke="blue" stroke-width="2" />
<path d="M4517,224 L5921,3098" stroke="blue" stroke-width="2" />
<path d="M4840,3439 L3867,1388" stroke="blue" stroke-width="2" />
<path d="M1963,1343 L2192,4270" stroke="blue" stroke-width="2" />
<path d="M1892,1647 L6556,3943" stroke="blue" stroke-width="2" />
<path d="M4414,4318 L6574,2707" stroke="blue" stroke-width="2" />
<path d="M4412,4462 L4619,2410" stroke="blue" stroke-width="2" />
<path d="M1864,547 L2759,572" stroke="blue" stroke-width="2" />
<path d="M1340,947 L631,3562" stroke="blue" stroke-width="2" />
<path d="M2942,1734 L3451,1856" stroke="blue" stroke-width="2" />
<path d="M2326,2283 L1645,3325" stroke="blue" stroke-width="2" />
<path d="M5753,1437 L6346,44" stroke="blue" stroke-width="2" />
<path d="M4792,1094 L4511,1388" stroke="blue" stroke-width="2" />
<path d="M4137,1037 L6511,3500" stroke="blue" stroke-width="2" />
<path d="M131,3562 L1555,3247" stroke="blue" stroke-width="2" />
<path d="M4720,2505 L5847,865" stroke="blue" stroke-width="2" />
<path d="M892,3460 L5725,2897" stroke="blue" stroke-width="2" />
<path d="M5340,1224 L5183,3543" stroke="blue" stroke-width="2" />
<path d="M6534,1289 L173,3515" stroke="blue" stroke-width="2" />
<path d="M2893,4331 L2533,2787" stroke="blue" stroke-width="2" />
<path d="M1918,1369 L690,2537" stroke="blue" stroke-width="2" />
<path d="M1051,1394 L4380,1618" stroke="blue" stroke-width="2" />
<path d="M6613,615 L5850,4104" stroke="blue" stroke-width="2" />
<path d="M2821,2488 L598,1979" stroke="blue" stroke-width="2" />
<path d="M6390,3984 L4143,530" stroke="blue" stroke-width="2" />
<path d="M2202,4018 L1326,1871" stroke="blue" stroke-width="2" />
<path d="M2201,4232 L5024,3694" stroke="blue" stroke-width="2" />
<path d="M3152,425 L4112,4490" stroke="blue" stroke-width="2" />
<path d="M1057,1358 L4268,4003" stroke="blue" stroke-width="2" />
<path d="M3502,2732 L3859,1922" stroke="blue" stroke-width="2" />
<path d="M4779,1766 L3641,1213" stroke="blue" stroke-width="2" />
<path d="M5767,3072 L5517,2422" stroke="blue" stroke-width="2" />
<path d="M5603,3975 L3269,2006" stroke="blue" stroke-width="2" />
<path d="M10,469 L4994,137" stroke="blue" stroke-width="2" />
<path d="M2189,502 L4150,3351" stroke="blue" stroke-width="2" />
<path d="M5649,3454 L3602,3672" stroke="blue" stroke-width="2" />
<path d="M5336,65 L5295,3403" stroke="blue" stroke-width="2" />
<path d="M6362,51 L6400,507" stroke="blue" stroke-width="2" />
<path d="M875,2583 L5212,1253" stroke="blue" stroke-width="2" />
<path d="M4465,2326 L336,3048" stroke="blue" stroke-width="2" />
<path d="M5403,4543 L6018,341" stroke="blue" stroke-width="2" />
<path d="M5096,2186 L4305,1620" stroke="blue" stroke-width="2" />
<path d="M4316,4295 L5906,2646" stroke="blue" stroke-width="2" />
<path d="M4580,3216 L1655,3529" stroke="blue" stroke-width="2" />
<path d="M727,1939 L2588,1796" stroke="blue" stroke-width="2" />
<path d="M3349,4007 L2934,1292" stroke="blue" stroke-width="2" />
<path d="M4849,2054 L512,799" stroke="blue" stroke-width="2" />
<path d="M2813,4098 L3258,2251" stroke="blue" stroke-width="2" />
<path d="M6410,3195 L3062,1837" stroke="blue" stroke-width="2" />
<path d="M403,4310 L2411,219" stroke="blue" stroke-width="2" />
<path d="M2831,3031 L1348,758" stroke="blue" stroke-width="2" />
<path d="M4652,4364 L1466,3784" stroke="blue" stroke-width="2" />
<path d="M4664,4434 L4539,4071" stroke="blue" stroke-width="2" />
<path d="M6501,1084 L776,1095" stroke="blue" stroke-width="2" />
<path d="M5874,3734 L5032,2819" stroke="blue" stroke-width="2" />
<path d="M3315,485 L5328,664" stroke="blue" stroke-width="2" />
<path d="M3454,1075 L6182,2549" stroke="blue" stroke-width="2" />
<path d="M2009,397 L4430,3045" stroke="blue" stroke-width="2" />
<path d="M5948,4193 L4317,3882" stroke="blue" stroke-width="2" />
<path d="M937,2111 L1953,2418" stroke="blue" stroke-width="2" />
<path d="M106,3415 L5029,2557" stroke="blue" stroke-width="2" />
<path d="M2967,4105 L647,2758" stroke="blue" stroke-width="2" />
<path d="M3137,407 L4008,3276" stroke="blue" stroke-width="2" />
<path d="M1611,3890 L3175,2369" stroke="blue" stroke-width="2" />
<path d="M4641,1201 L2827,544" stroke="blue" stroke-width="2" />
<path d="M2475,2494 L5976,103" stroke="blue" stroke-width="2" />
<path d="M2478,591 L3834,1060" stroke="blue" stroke-width="2" />
<path d="M1311,918 L4205,3311" stroke="blue" stroke-width="2" />
<path d="M4578,2267 L3354,4591" stroke="blue" stroke-width="2" />
<path d="M3382,1148 L5327,4026" stroke="blue" stroke-width="2" />
<path d="M188,3441 L4209,1093" stroke="blue" stroke-width="2" />
<path d="M3651,211 L5617,3601" stroke="blue" stroke-width="2" />
<path d="M5917,3511 L2648,1139" stroke="blue" stroke-width="2" />
<path d="M3640,3089 L944,368" stroke="blue" stroke-width="2" />
<path d="M5463,3585 L1105,4290" stroke="blue" stroke-width="2" />
<path d="M5332,598 L1999,924" stroke="blue" stroke-width="2" />
<path d="M399,1019 L5248,4066" stroke="blue" stroke-width="2" />
<path d="M6573,3295 L5698,83" stroke="blue" stroke-width="2" />
<path d="M5192,2256 L6511,3496" stroke="blue" stroke-width="2" />
<path d="M5903,2001 L1222,782" stroke="blue" stroke-width="2" />
<path d="M1084,4174 L4461,1637" stroke="blue" stroke-width="2" />
<path d="M1925,4498 L617,3789" stroke="blue" stroke-width="2" />
<path d="M505,1017 L2641,1243" stroke="blue" stroke-width="2" />
<path d="M4979,3791 L3656,4075" stroke="blue" stroke-width="2" />
<path d="M541,741 L1983,243" stroke="blue" stroke-width="2" />
<path d="M4993,2196 L1005,2468" stroke="blue" stroke-width="2" />
<path d="M6360,909 L5007,2554" stroke="blue" stroke-width="2" />
<path d="M5660,403 L3103,2973" stroke="blue" stroke-width="2" />
<path d="M5956,2446 L5626,3371" stroke="blue" stroke-width="2" />
<path d="M5283,2336 L5296,2444" stroke="blue" stroke-width="2" />
<path d="M3680,4554 L3182,2917" stroke="blue" stroke-width="2" />
<path d="M1677,833 L6231,2682" stroke="blue" stroke-width="2" />
<path d="M930,3345 L920,3674" stroke="blue" stroke-width="2" />
<path d="M5737,2601 L5682,2532" stroke="blue" stroke-width="2" />
<path d="M5548,3250 L2416,1151" stroke="blue" stroke-width="2" />
<path d="M1668,1648 L6320,3484" stroke="blue" stroke-width="2" />
<path d="M6383,2184 L1025,1753" stroke="blue" stroke-width="2" />
<path d="M1855,2207 L6080,1020" stroke="blue" stroke-width="2" />
<path d="M3048,4479 L6621,1697" stroke="blue" stroke-width="2" />
<path d="M6201,1567 L6310,1134" stroke="blue" stroke-width="2" />
<path d="M5283,4400 L2115,4399" stroke="blue" stroke-width="2" />
<path d="M6140,1809 L3653,571" stroke="blue" stroke-width="2" />
<path d="M5548,1415 L4563,4035" stroke="blue" stroke-width="2" />
<path d="M4143,3912 L743,1371" stroke="blue" stroke-width="2" />
<path d="M4662,1638 L246,4408" stroke="blue" stroke-width="2" />
<path d="M2813,256 L3038,557" stroke="blue" stroke-width="2" />
<path d="M3418,3183 L3325,2984" stroke="blue" stroke-width="2" />
<path d="M3616,4491 L5340,281" stroke="blue" stroke-width="2" />
<path d="M1905,3410 L398,3115" stroke="blue" stroke-width="2" />
<path d="M4076,3097 L5094,3443" stroke="blue" stroke-width="2" />
<path d="M756,2998 L2329,1449" stroke="blue" stroke-width="2" />
<path d="M4451,2864 L5849,1937" stroke="blue" stroke-width="2" />
<path d="M147,3579 L6315,326" stroke="blue" stroke-width="2" />
<path d="M1197,2690 L4682,4098" stroke="blue" stroke-width="2" />
<path d="M5586,2686 L214,2319" stroke="blue" stroke-width="2" />
<path d="M1705,2950 L2359,2229" stroke="blue" stroke-width="2" />
<path d="M2343,3504 L3848,1991" stroke="blue" stroke-width="2" />
<path d="M1304,970 L4838,4279" stroke="blue" stroke-width="2" />
<path d="M867,2542 L1345,4125" stroke="blue" stroke-width="2" />
<path d="M1964,3778 L5920,4287" stroke="blue" stroke-width="2" />
<path d="M2258,3054 L2157,931" stroke="blue" stroke-width="2" />
<path d="M2171,4566 L2523,1350" stroke="blue" stroke-width="2" />
<path d="M3344,1429 L2195,1538" stroke="blue" stroke-width="2" />
<path d="M4671,2835 L2267,4063" stroke="blue" stroke-width="2" />
<path d="M2409,2890 L2050,2134" stroke="blue" stroke-width="2" />
<path d="M3122,2789 L6288,531" stroke="blue" stroke-width="2" />
<path d="M6531,2562 L1002,4180" stroke="blue" stroke-width="2" />
<path d="M414,84 L728,3555" stroke="blue" stroke-width="2" />
<path d="M2825,891 L3787,2811" stroke="blue" stroke-width="2" />
<path d="M393,2051 L4337,389" stroke="blue" stroke-width="2" />
<path d="M5814,2311 L3884,1173" stroke="blue" stroke-width="2" />
<path d="M1657,2879 L6377,3047" stroke="blue" stroke-width="2" />
<path d="M2281,237 L6231,1244" stroke="blue" stroke-width="2" />
<path d="M1616,2620 L207,2962" stroke="blue" stroke-width="2" />
<path d="M2673,1670 L4154,1822" stroke="blue" stroke-width="2" />
<path d="M1,3458 L192,702" stroke="blue" stroke-width="2" />
<path d="M4078,275 L4269,551" stroke="blue" stroke-width="2" />
<path d="M2029,2222 L687,3390" stroke="blue" stroke-width="2" />
<path d="M3175,4164 L2807,4154" stroke="blue" stroke-width="2" />
<path d="M5231,217 L628,440" stroke="blue" stroke-width="2" />
<path d="M6179,1450 L1519,4590" stroke="blue" stroke-width="2" />
<path d="M5354,1359 L4354,2636" stroke="blue" stroke-width="2" />
<path d="M2471,118 L2025,619" stroke="blue" stroke-width="2" />
<path d="M4568,710 L5847,2640" stroke="blue" stroke-width="2" />
<path d="M5295,1452 L2108,882" stroke="blue" stroke-width="2" />
<path d="M6068,2858 L4230,4359" stroke="blue" stroke-width="2" />
<path d="M3194,3576 L4750,3310" stroke="blue" stroke-width="2" />
<path d="M2329,997 L6618,550" stroke="blue" stroke-width="2" />
<path d="M3682,3273 L5292,2527" stroke="blue" stroke-width="2" />
<path d="M1486,3909 L661,4005" stroke="blue" stroke-width="2" />
<path d="M3164,4018 L5680,3283" stroke="blue" stroke-width="2" />
<path d="M1899,3853 L6522,3719" stroke="blue" stroke-width="2" />
<path d="M2326,1610 L3524,1665" stroke="blue" stroke-width="2" />
<path d="M2835,3794 L6010,1457" stroke="blue" stroke-width="2" />
<path d="M4657,4279 L1811,2695" stroke="blue" stroke-width="2" />
<path d="M4767,267 L3648,1664" stroke="blue" stroke-width="2" />
<path d="M1133,1796 L2744,4535" stroke="blue" stroke-width="2" />
<path d="M844,2320 L5159,2903" stroke="blue" stroke-width="2" />
<path d="M909,2325 L2891,841" stroke="blue" stroke-width="2" />
<path d="M3620,1316 L3476,652" stroke="blue" stroke-width="2" />
<path d="M3889,1379 L791,3244" stroke="blue" stroke-width="2" />
<path d="M4532,1467 L5674,3662" stroke="blue" stroke-width="2" />
<path d="M5410,1869 L1536,1715" stroke="blue" stroke-width="2" />
<path d="M5585,3404 L2435,2933" stroke="blue" stroke-width="2" />
<path d="M4001,2562 L4801,1670" stroke="blue" stroke-width="2" />
<path d="M2378,2699 L4213,1198" stroke="blue" stroke-width="2" />
<path d="M3725,76 L2602,2560" stroke="blue" stroke-width="2" />
<path d="M4359,4375 L6177,2576" stroke="blue" stroke-width="2" />
<path d="M1829,2485 L3417,574" stroke="blue" stroke-width="2" />
<path d="M2765,26 L3570,2620" stroke="blue" stroke-width="2" />
<path d="M5098,1078 L2456,3718" stroke="blue" stroke-width="2" />
<path d="M1478,1347 L497,4366" stroke="blue" stroke-width="2" />
<path d="M5909,2569 L1699,3786" stroke="blue" stroke-width="2" />
<path d="M112,4522 L2360,2277" stroke="blue" stroke-width="2" />
<path d="M2503,2203 L4567,760" stroke="blue" stroke-width="2" />
<path d="M6596,4034 L4764,4234" stroke="blue" stroke-width="2" />
<path d="M5837,650 L1805,4175" stroke="blue" stroke-width="2" />
<path d="M2634,1973 L195,4562" stroke="blue" stroke-width="2" />
<path d="M4439,1352 L3793,2822" stroke="blue" stroke-width="2" />
<path d="M4265,2163 L3206,803" stroke="blue" stroke-width="2" />
<path d="M2632,3404 L6093,3180" stroke="blue" stroke-width="2" />
<path d="M3053,3291 L202,4292" stroke="blue" stroke-width="2" />
<path d="M4451,1655 L1903,3971" stroke="blue" stroke-width="2" />
<path d="M5362,3457 L2882,1600" stroke="blue" stroke-width="2" />
<path d="M2873,3650 L1145,259" stroke="blue" stroke-width="2" />
<path d="M2152,763 L4791,1742" stroke="blue" stroke-width="2" />
<path d="M270,471 L459,314" stroke="blue" stroke-width="2" />
<path d="M4413,3646 L4001,2663" stroke="blue" stroke-width="2" />
<path d="M961,2572 L54,3714" stroke="blue" stroke-width="2" />
<path d="M4603,3698 L5231,741" stroke="blue" stroke-width="2" />
<path d="M5439,163 L4567,2576" stroke="blue" stroke-width="2" />
<path d="M1743,343 L4695,316" stroke="blue" stroke-width="2" />
<path d="M1264,3731 L394,2967" stroke="blue" stroke-width="2" />
<path d="M6185,3401 L1825,462" stroke="blue" stroke-width="2" />
<path d="M1146,2751 L4239,1836" stroke="blue" stroke-width="2" />
<path d="M3462,2464 L4682,3335" stroke="blue" stroke-width="2" />
<path d="M4613,135 L627,2892" stroke="blue" stroke-width="2" />
<path d="M3174,4189 L4057,3882" stroke="blue" stroke-width="2" />
<path d="M4683,4082 L1660,4558" stroke="blue" stroke-width="2" />
<path d="M881,1243 L5857,2515" stroke="blue" stroke-width="2" />
<path d="M6217,1568 L450,149" stroke="blue" stroke-width="2" />
<path d="M5529,3700 L3400,4466" stroke="blue" stroke-width="2" />
<path d="M5555,1581 L2273,410" stroke="blue" stroke-width="2" />
<path d="M2478,1387 L5906,1068" stroke="blue" stroke-width="2" />
<path d="M3067,944 L1888,2145" stroke="blue" stroke-width="2" />
<path d="M1557,855 L3380,3548" stroke="blue" stroke-width="2" />
<path d="M558,305 L2559,4538" stroke="blue" stroke-width="2" />
<path d="M6131,3667 L5703,4302" stroke="blue" stroke-width="2" />
<path d="M377,3799 L1022,2184" stroke="blue" stroke-width="2" />
<path d="M5861,2764 L485,3202" stroke="blue" stroke-width="2" />
<path d="M1841,2632 L2363,2876" stroke="blue" stroke-width="2" />
<path d="M3146,1655 L2534,3916" stroke="blue" stroke-width="2" />
<path d="M2879,1639 L4722,4345" stroke="blue" stroke-width="2" />
<path d="M2355,1829 L3697,2226" stroke="blue" stroke-width="2" />
<path d="M4101,3442 L3732,1055" stroke="blue" stroke-width="2" />
<path d="M610,1976 L2550,810" stroke="blue" stroke-width="2" />
<path d="M3169,3584 L377,2392" stroke="blue" stroke-width="2" />
<path d="M1841,937 L4658,3941" stroke="blue" stroke-width="2" />
<path d="M147,2643 L6246,3508" stroke="blue" stroke-width="2" />
<path d="M6423,1884 L89,185" stroke="blue" stroke-width="2" />
<path d="M2464,17 L267,4234" stroke="blue" stroke-width="2" />
<path d="M5847,3246 L3669,3871" stroke="blue" stroke-width="2" />
<path d="M417,2373 L5857,2941" stroke="blue" stroke-width="2" />
<path d="M5089,1241 L3568,268" stroke="blue" stroke-width="2" />
<path d="M3217,3648 L1399,3780" stroke="blue" stroke-width="2" />
<path d="M1229,1126 L1335,2634" stroke="blue" stroke-width="2" />
<path d="M3088,339 L4801,1135" stroke="blue" stroke-width="2" />
<path d="M5148,4099 L1661,2008" stroke="blue" stroke-width="2" />
<path d="M2705,3701 L2703,1582" stroke="blue" stroke-width="2" />
<path d="M4637,3673 L4895,2914" stroke="blue" stroke-width="2" />
<path d="M900,1190 L2034,1472" stroke="blue" stroke-width="2" />
<path d="M4010,335 L4142,2686" stroke="blue" stroke-width="2" />
<path d="M4766,3904 L5847,578" stroke="blue" stroke-width="2" />
<path d="M320,1163 L1755,1989" stroke="blue" stroke-width="2" />
<path d="M6222,1598 L2052,1620" stroke="blue" stroke-width="2" />
<path d="M4181,437 L2940,373" stroke="blue" stroke-width="2" />
<path d="M5600,869 L953,2402" stroke="blue" stroke-width="2" />
<path d="M2927,2558 L1722,2370" stroke="blue" stroke-width="2" />
<path d="M1575,2485 L967,1481" stroke="blue" stroke-width="2" />
<path d="M5998,2267 L5730,3553" stroke="blue" stroke-width="2" />
<path d="M6302,2510 L3944,3125" stroke="blue" stroke-width="2" />
<path d="M2384,920 L6092,708" stroke="blue" stroke-width="2" />
<path d="M5986,2235 L4536,586" stroke="blue" stroke-width="2" />
<path d="M772,2282 L2993,1434" stroke="blue" stroke-width="2" />
<path d="M3426,980 L3945,631" stroke="blue" stroke-width="2" />
<path d="M2727,571 L5978,3592" stroke="blue" stroke-width="2" />
<path d="M2911,2257 L2313,3686" stroke="blue" stroke-width="2" />
<path d="M3003,2612 L4106,2828" stroke="blue" stroke-width="2" />
<path d="M4900,2807 L4105,4363" stroke="blue" stroke-width="2" />
<path d="M2410,2511 L1775,2829" stroke="blue" stroke-width="2" />
<path d="M3348,1137 L5472,2715" stroke="blue" stroke-width="2" />
<path d="M5106,62 L5908,2773" stroke="blue" stroke-width="2" />
<path d="M3814,3868 L2281,819" stroke="blue" stroke-width="2" />
<path d="M317,1667 L6437,1327" stroke="blue" stroke-width="2" />
<path d="M5338,2044 L4012,2475" stroke="blue" stroke-width="2" />
<path d="M1870,4353 L366,3224" stroke="blue" stroke-width="2" />
<path d="M4367,3986 L5617,259" stroke="blue" stroke-width="2" />
<path d="M382,3526 L4622,2026" stroke="blue" stroke-width="2" />
<path d="M776,162 L775,2553" stroke="blue" stroke-width="2" />
<path d="M3887,141 L1001,401" stroke="blue" stroke-width="2" />
<path d="M3330,2927 L905,3108" stroke="blue" stroke-width="2" />
<path d="M3146,1805 L3838,1963" stroke="blue" stroke-width="2" />
<path d="M1236,2443 L6556,1039" stroke="blue" stroke-width="2" />
<path d="M5560,2682 L2777,3338" stroke="blue" stroke-width="2" />
<path d="M3614,4216 L1302,4174" stroke="blue" stroke-width="2" />
<path d="M4882,4070 L5742,2024" stroke="blue" stroke-width="2" />
<path d="M218,2195 L3225,3148" stroke="blue" stroke-width="2" />
<path d="M6516,2194 L1272,904" stroke="blue" stroke-width="2" />
<path d="M5237,2384 L2332,220" stroke="blue" stroke-width="2" />
<path d="M45,721 L4261,4442" stroke="blue" stroke-width="2" />
<path d="M237,3494 L3024,1601" stroke="blue" stroke-width="2" />
<path d="M1128,2926 L3250,1836" stroke="blue" stroke-width="2" />
<path d="M6108,3772 L5220,3624" stroke="blue" stroke-width="2" />
<path d="M2140,1235 L4186,1192" stroke="blue" stroke-width="2" />
<path d="M6339,1485 L5731,477" stroke="blue" stroke-width="2" />
<path d="M2597,4100 L486,2435" stroke="blue" stroke-width="2" />
<path d="M4181,3366 L6391,1506" stroke="blue" stroke-width="2" />
<path d="M5023,239 L2829,63" stroke="blue" stroke-width="2" />
<path d="M2584,3425 L555,1241" stroke="blue" stroke-width="2" />
<path d="M4987,635 L6332,1564" stroke="blue" stroke-width="2" />
<path d="M5961,1124 L3026,2249" stroke="blue" stroke-width="2" />
<path d="M1297,4229 L4274,2205" stroke="blue" stroke-width="2" />
<path d="M1623,3449 L5374,3052" stroke="blue" stroke-width="2" />
<path d="M4173,3904 L3094,1324" stroke="blue" stroke-width="2" />
<path d="M3713,2283 L4746,1533" stroke="blue" stroke-width="2" />
<path d="M6084,4546 L4835,2493" stroke="blue" stroke-width="2" />
<path d="M1306,4005 L1541,2821" stroke="blue" stroke-width="2" />
<path d="M608,3930 L4638,2661" stroke="blue" stroke-width="2" />
<path d="M5814,2599 L3650,58" stroke="blue" stroke-width="2" />
<path d="M5620,1866 L4074,3353" stroke="blue" stroke-width="2" />
<path d="M1339,2804 L4096,2815" stroke="blue" stroke-width="2" />
<path d="M5873,978 L3680,921" stroke="blue" stroke-width="2" />
<path d="M405,380 L6499,1360" stroke="blue" stroke-width="2" />
<path d="M3391,3603 L5041,1772" stroke="blue" stroke-width="2" />
<path d="M5308,1387 L6178,3007" stroke="blue" stroke-width="2" />
<path d="M1912,422 L1276,3728" stroke="blue" stroke-width="2" />
<path d="M461,3605 L4385,1358" stroke="blue" stroke-width="2" />
<path d="M5843,2717 L2761,1627" stroke="blue" stroke-width="2" />
<path d="M6117,3498 L2237,2008" stroke="blue" stroke-width="2" />
<path d="M5949,4355 L3492,1369" stroke="blue" stroke-width="2" />
<path d="M1797,587 L4161,3774" stroke="blue" stroke-width="2" />
<path d="M1924,4562 L1998,75" stroke="blue" stroke-width="2" />
<path d="M5044,601 L5276,2072" stroke="blue" stroke-width="2" />
<path d="M763,3457 L1640,1533" stroke="blue" stroke-width="2" />
<path d="M586,1293 L5052,132" stroke="blue" stroke-width="2" />
<path d="M2165,4293 L1265,2443" stroke="blue" stroke-width="2" />
<path d="M6046,2077 L2547,1004" stroke="blue" stroke-width="2" />
<path d="M3419,3638 L6071,775" stroke="blue" stroke-width="2" />
<path d="M5657,3815 L3949,586" stroke="blue" stroke-width="2" />
<path d="M914,4562 L4210,1918" stroke="blue" stroke-width="2" />
<path d="M280,2732 L4924,2562" stroke="blue" stroke-width="2" />
<path d="M1485,3784 L1838,3131" stroke="blue" stroke-width="2" />
<path d="M4367,518 L2757,2403" stroke="blue" stroke-width="2" />
<path d="M3946,160 L169,4028" stroke="blue" stroke-width="2" />
<path d="M3930,761 L6123,2442" stroke="blue" stroke-width="2" />
<path d="M3324,1148 L3566,3062" stroke="blue" stroke-width="2" />
<path d="M831,2058 L1675,1195" stroke="blue" stroke-width="2" />
<path d="M14,1948 L6553,4409" stroke="blue" stroke-width="2" />
<path d="M6066,744 L1911,4362" stroke="blue" stroke-width="2" />
<path d="M2617,4562 L6146,163" stroke="blue" stroke-width="2" />
<path d="M6500,1974 L4296,1108" stroke="blue" stroke-width="2" />
<path d="M1047,434 L3050,1867" stroke="blue" stroke-width="2" />
<path d="M1583,4573 L2339,513" stroke="blue" stroke-width="2" />
<path d="M2744,1413 L3444,1319" stroke="blue" stroke-width="2" />
<path d="M5091,979 L809,357" stroke="blue" stroke-width="2" />
<path d="M2864,472 L6354,142" stroke="blue" stroke-width="2" />
<path d="M1268,1232 L3807,1449" stroke="blue" stroke-width="2" />
<path d="M3782,1175 L1488,303" stroke="blue" stroke-width="2" />
<path d="M2700,1396 L3952,1894" stroke="blue" stroke-width="2" />
<path d="M2322,433 L5430,3508" stroke="blue" stroke-width="2" />
<path d="M792,657 L2678,47" stroke="blue" stroke-width="2" />
<path d="M2237,3511 L2775,1163" stroke="blue" stroke-width="2" />
<path d="M5719,2969 L2401,2765" stroke="blue" stroke-width="2" />
<path d="M5303,2455 L1745,555" stroke="blue" stroke-width="2" />
<path d="M1019,4318 L771,592" stroke="blue" stroke-width="2" />
<path d="M1644,1034 L3377,1719" stroke="blue" stroke-width="2" />
<path d="M2928,3536 L2126,3614" stroke="blue" stroke-width="2" />
<path d="M5702,2630 L5149,1148" stroke="blue" stroke-width="2" />
<path d="M1952,1017 L2296,2351" stroke="blue" stroke-width="2" />
<path d="M776,4599 L3933,194" stroke="blue" stroke-width="2" />
<path d="M1494,4018 L3005,1113" stroke="blue" stroke-width="2" />
<path d="M4508,1851 L1308,303" stroke="blue" stroke-width="2" />
<path d="M1698,2810 L3798,679" stroke="blue" stroke-width="2" />
<path d="M3159,3686 L2714,1966" stroke="blue" stroke-width="2" />
<path d="M295,3066 L3244,3903" stroke="blue" stroke-width="2" />
<path d="M2936,1709 L5020,3632" stroke="blue" stroke-width="2" />
<path d="M754,3149 L5978,4464" stroke="blue" stroke-width="2" />
<path d="M1650,2619 L1763,3853" stroke="blue" stroke-width="2" />
<path d="M1297,4083 L3894,281" stroke="blue" stroke-width="2" />
<path d="M2294,4135 L792,198" stroke="blue" stroke-width="2" />
<path d="M1533,2022 L2651,1964" stroke="blue" stroke-width="2" />
<path d="M791,538 L4705,3051" stroke="blue" stroke-width="2" />
<path d="M1019,2038 L4160,347" stroke="blue" stroke-width="2" />
<path d="M2941,199 L6257,1535" stroke="blue" stroke-width="2" />
<path d="M1686,3308 L1299,4358" stroke="blue" stroke-width="2" />
<path d="M1861,4442 L1662,2478" stroke="blue" stroke-width="2" />
<path d="M1575,297 L4867,3540" stroke="blue" stroke-width="2" />
<path d="M399,3485 L5490,3383" stroke="blue" stroke-width="2" />
<path d="M649,2237 L2256,2009" stroke="blue" stroke-width="2" />
<path d="M1466,1295 L2959,857" stroke="blue" stroke-width="2" />
<path d="M5560,3982 L2578,2157" stroke="blue" stroke-width="2" />
<path d="M3789,888 L2753,3053" stroke="blue" stroke-width="2" />
<path d="M600,4394 L1247,4321" stroke="blue" stroke-width="2" />
<path d="M3462,433 L2776,3707" stroke="blue" stroke-width="2" />
<path d="M2496,4488 L276,2088" stroke="blue" stroke-width="2" />
<path d="M3842,1394 L389,650" stroke="blue" stroke-width="2" />
<path d="M6067,4495 L173,3641" stroke="blue" stroke-width="2" />
<path d="M6351,4544 L5644,349" stroke="blue" stroke-width="2" />
<path d="M4679,1358 L4865,3188" stroke="blue" stroke-width="2" />
<path d="M1812,4191 L3119,2245" stroke="blue" stroke-width="2" />
<path d="M4004,2557 L1253,3419" stroke="blue" stroke-width="2" />
<path d="M4363,4115 L5940,1542" stroke="blue" stroke-width="2" />
<path d="M3679,2157 L4246,906" stroke="blue" stroke-width="2" />
<path d="M4890,3968 L5518,4105" stroke="blue" stroke-width="2" />
<path d="M5585,2965 L5681,2988" stroke="blue" stroke-width="2" />
<path d="M204,1409 L3197,2421" stroke="blue" stroke-width="2" />
<path d="M5989,3103 L171,2424" stroke="blue" stroke-width="2" />
<path d="M5907,269 L5840,1313" stroke="blue" stroke-width="2" />
<path d="M1606,906 L5136,1064" stroke="blue" stroke-width="2" />
<path d="M2843,2914 L4528,1291" stroke="blue" stroke-width="2" />
<path d="M162,4545 L4035,2047" stroke="blue" stroke-width="2" />
<path d="M4619,4016 L1112,3179" stroke="blue" stroke-width="2" />
<path d="M4891,1454 L2077,3245" stroke="blue" stroke-width="2" />
<path d="M4123,2540 L5999,1864" stroke="blue" stroke-width="2" />
<path d="M997,3531 L5723,2418" stroke="blue" stroke-width="2" />
<path d="M2739,2346 L2738,4019" stroke="blue" stroke-width="2" />
<path d="M1832,3133 L1522,4357" stroke="blue" stroke-width="2" />
<path d="M661,868 L2635,3247" stroke="blue" stroke-width="2" />
<path d="M5328,4443 L2961,2051" stroke="blue" stroke-width="2" />
<path d="M987,2604 L5093,3114" stroke="blue" stroke-width="2" />
<path d="M1842,175 L5674,235" stroke="blue" stroke-width="2" />
<path d="M2119,4512 L3598,280" stroke="blue" stroke-width="2" />
<path d="M4814,4533 L2216,924" stroke="blue" stroke-width="2" />
<path d="M2527,1703 L2062,2874" stroke="blue" stroke-width="2" />
<path d="M3373,4330 L5569,3696" stroke="blue" stroke-width="2" />
<path d="M1623,2652 L2882,3436" stroke="blue" stroke-width="2" />
<path d="M2824,2934 L6365,860" stroke="blue" stroke-width="2" />
<path d="M1166,3449 L985,4544" stroke="blue" stroke-width="2" />
<path d="M5980,3271 L89,2846" stroke="blue" stroke-width="2" />
<path d="M1934,4189 L5694,183" stroke="blue" stroke-width="2" />
<path d="M1871,2028 L272,2672" stroke="blue" stroke-width="2" />
<path d="M3501,2084 L2619,1292" stroke="blue" stroke-width="2" />
<path d="M5102,2485 L1580,2826" stroke="blue" stroke-width="2" />
<path d="M4625,1352 L5124,4427" stroke="blue" stroke-width="2" />
<path d="M5583,2768 L2607,2251" stroke="blue" stroke-width="2" />
<path d="M1588,1557 L4597,3420" stroke="blue" stroke-width="2" />
<path d="M0,0 L6628,0" stroke="red" stroke-width="10" />
<path d="M6628,0 L6628,4605" stroke="red" stroke-width="10" />
<path d="M0,4605 L6628,4605" stroke="red" stroke-width="10" />
<path d="M0,4605 L0,0" stroke="red" stroke-width="10" />
</svg>