<?xml version="1.0" encoding="UTF-8"?>
<svg xmlns="http://www.w3.org/2000/svg" xmlns:xlink="http://www.w3.org/1999/xlink"
     width="10000" height="10000" viewBox="0 0 10000 10000">
<defs>
</defs>
<path d="M3350,5038 L3505,4328" stroke="blue" stroke-width="2" />
<path d="M3575,3059 L3281,2485" stroke="blue" stroke-width="2" />
<path d="M3885,3621 L3119,4468" stroke="blue" stroke-width="2" />
<path d="M239,3740 L3134,206" stroke="blue" stroke-width="2" />
<path d="M1551,67 L3319,5029" stroke="blue" stroke-width="2" />
<path d="M937,3451 L641,2746" stroke="blue" stroke-width="2" />
<path d="M3250,1352 L4659,4028" stroke="blue" stroke-width="2" />
<path d="M1674,1374 L166,3166" stroke="blue" stroke-width="2" />
<path d="M913,6126 L2118,2667" stroke="blue" stroke-width="2" />
<path d="M1098,4621 L1399,901" stroke="blue" stroke-width="2" />
<path d="M2136,2951 L1420,3837" stroke="blue" stroke-width="2" />
<path d="M2215,4266 L3301,1574" stroke="blue" stroke-width="2" />
<path d="M808,1014 L2832,4959" stroke="blue" stroke-width="2" />
<path d="M645,4836 L3242,1813" stroke="blue" stroke-width="2" />
<path d="M133,3245 L2943,1671" stroke="blue" stroke-width="2" />
<path d="M2850,5629 L3187,1257" stroke="blue" stroke-width="2" />
<path d="M3540,5150 L2479,4753" stroke="blue" stroke-width="2" />
<path d="M2009,1882 L3348,3629" stroke="blue" stroke-width="2" />
<path d="M3889,1362 L1707,4044" stroke="blue" stroke-width="2" />
<path d="M3746,2536 L4445,560" stroke="blue" stroke-width="2" />
<path d="M1788,1928 L3669,1172" stroke="blue" stroke-width="2" />
<path d="M2845,4944 L2899,4705" stroke="blue" stroke-width="2" />
<path d="M3606,4322 L2990,242" stroke="blue" stroke-width="2" />
<path d="M2353,5040 L637,6123" stroke="blue" stroke-width="2" />
<path d="M2631,3290 L1529,2303" stroke="blue" stroke-width="2" />
<path d="M3633,439 L4169,4664" stroke="blue" stroke-width="2" />
<path d="M4437,2322 L3830,2529" stroke="blue" stroke-width="2" />
<path d="M1083,2977 L100,5751" stroke="blue" stroke-width="2" />
<path d="M773,4556 L2234,2569" stroke="blue" stroke-width="2" />
<path d="M4453,298 L3902,277" stroke="blue" stroke-width="2" />
<path d="M3333,747 L4075,677" stroke="blue" stroke-width="2" />
<path d="M2412,238 L4291,1951" stroke="blue" stroke-width="2" />
<path d="M3544,919 L3936,1878" stroke="blue" stroke-width="2" />
<path d="M659,513 L980,3762" stroke="blue" stroke-width="2" />
<path d="M1272,1525 L2824,1283" stroke="blue" stroke-width="2" />
<path d="M3003,2660 L2060,1578" stroke="blue" stroke-width="2" />
<path d="M482,3276 L4612,3482" stroke="blue" stroke-width="2" />
<path d="M1956,5727 L2848,4142" stroke="blue" stroke-width="2" />
<path d="M2718,1785 L1413,3487" stroke="blue" stroke-width="2" />
<path d="M4308,5829 L3710,1378" stroke="blue" stroke-width="2" />
<path d="M3865,190 L4174,5252" stroke="blue" stroke-width="2" />
<path d="M1624,2339 L3241,3931" stroke="blue" stroke-width="2" />
<path d="M2608,1601 L83,3921" stroke="blue" stroke-width="2" />
<path d="M1806,74 L1268,1035" stroke="blue" stroke-width="2" />
<path d="M3394,1814 L4472,3545" stroke="blue" stroke-width="2" />
<path d="M1603,4 L3932,4883" stroke="blue" stroke-width="2" />
<path d="M3791,5776 L346,5711" stroke="blue" stroke-width="2" />
<path d="M3973,1367 L1706,563" stroke="blue" stroke-width="2" />
<path d="M2374,5381 L1018,5592" stroke="blue" stroke-width="2" />
<path d="M1497,551 L1239,1729" stroke="blue" stroke-width="2" />
<path d="M4127,5908 L1439,2177" stroke="blue" stroke-width="2" />
<path d="M3944,2172 L4199,5904" stroke="blue" stroke-width="2" />
<path d="M883,5050 L2603,1955" stroke="blue" stroke-width="2" />
<path d="M2861,273 L502,1635" stroke="blue" stroke-width="2" />
<path d="M3832,1699 L4674,1567" stroke="blue" stroke-width="2" />
<path d="M3733,2821 L1897,986" stroke="blue" stroke-width="2" />
<path d="M3280,3355 L2603,4505" stroke="blue" stroke-width="2" />
<path d="M1119,2474 L711,2180" stroke="blue" stroke-width="2" />
<path d="M452,682 L4239,1001" stroke="blue" stroke-width="2" />
<path d="M3545,3407 L4030,566" stroke="blue" stroke-width="2" />
<path d="M1763,936 L2450,3032" stroke="blue" stroke-width="2" />
<path d="M4127,3394 L3344,451" stroke="blue" stroke-width="2" />
<path d="M4448,1295 L3521,555" stroke="blue" stroke-width="2" />
<path d="M366,1178 L741,4407" stroke="blue" stroke-width="2" />
<path d="M2923,99 L842,4763" stroke="blue" stroke-width="2" />
<path d="M3369,2768 L941,158" stroke="blue" stroke-width="2" />
<path d="M4697,3557 L4540,5348" stroke="blue" stroke-width="2" />
<path d="M3540,246 L1172,828" stroke="blue" stroke-width="2" />
<path d="M1916,4818 L2625,4738" stroke="blue" stroke-width="2" />
<path d="M4575,3306 L2661,4579" stroke="blue" stroke-width="2" />
<path d="M3412,2266 L3022,5154" stroke="blue" stroke-width="2" />
<path d="M2473,458 L49,5169" stroke="blue" stroke-width="2" />
<path d="M2202,3751 L2652,4671" stroke="blue" stroke-width="2" />
<path d="M3238,3004 L2333,5852" stroke="blue" stroke-width="2" />
<path d="M340,982 L4247,3888" stroke="blue" stroke-width="2" />
<path d="M4688,2284 L1513,4557" stroke="blue" stroke-width="2" />
<path d="M1933,5077 L2748,2403" stroke="blue" stroke-width="2" />
<path d="M689,2281 L1683,369" stroke="blue" stroke-width="2" />
<path d="M634,4437 L4060,183" stroke="blue" stroke-width="2" />
<path d="M1948,1754 L2995,2467" stroke="blue" stroke-width="2" />
<path d="M2743,252 L4379,2162" stroke="blue" stroke-width="2" />
<path d="M2012,2666 L3501,5088" stroke="blue" stroke-width="2" />
<path d="M1547,1519 L1079,3583" stroke="blue" stroke-width="2" />
<path d="M801,1917 L1158,6163" stroke="blue" stroke-width="2" />
<path d="M4106,5418 L1282,6045" stroke="blue" stroke-width="2" />
<path d="M848,2206 L4061,4857" stroke="blue" stroke-width="2" />
<path d="M3064,5647 L1073,1674" stroke="blue" stroke-width="2" />
<path d="M2899,3075 L4525,4986" stroke="blue" stroke-width="2" />
<path d="M793,2624 L547,5871" stroke="blue" stroke-width="2" />
<path d="M310,2694 L3383,5782" stroke="blue" stroke-width="2" />
<path d="M2497,2083 L2222,5417" stroke="blue" stroke-width="2" />
<path d="M4486,5572 L3540,4357" stroke="blue" stroke-width="2" />
<path d="M4586,2747 L4006,6023" stroke="blue" stroke-width="2" />
<path d="M3827,4564 L468,2905" stroke="blue" stroke-width="2" />
<path d="M2684,4905 L2099,3370" stroke="blue" stroke-width="2" />
<path d="M2425,5873 L761,2243" stroke="blue" stroke-width="2" />
<path d="M3355,4608 L3259,2661" stroke="blue" stroke-width="2" />
<path d="M4046,7 L2851,1231" stroke="blue" stroke-width="2" />
<path d="M3830,3041 L1614,2972" stroke="blue" stroke-width="2" />
<path d="M2207,4570 L2525,5273" stroke="blue" stroke-width="2" />
<path d="M500,2094 L3501,3863" stroke="blue" stroke-width="2" />
<path d="M2413,4172 L2788,734" stroke="blue" stroke-width="2" />
<path d="M828,2136 L3281,1393" stroke="blue" stroke-width="2" />
<path d="M301,5112 L1363,532" stroke="blue" stroke-width="2" />
<path d="M3458,2560 L707,4124" stroke="blue" stroke-width="2" />
<path d="M2203,2933 L3343,2073" stroke="blue" stroke-width="2" />
<path d="M2324,2247 L1071,1093" stroke="blue" stroke-width="2" />
<path d="M3491,6136 L3546,1280" stroke="blue" stroke-width="2" />
<path d="M1552,3020 L2424,1712" stroke="blue" stroke-width="2" />
<path d="M3558,3387 L1744,4637" stroke="blue" stroke-width="2" />
<path d="M4618,326 L2626,1426" stroke="blue" stroke-width="2" />
<path d="M4369,2895 L2318,5867" stroke="blue" stroke-width="2" />
<path d="M2968,1055 L364,5700" stroke="blue" stroke-width="2" />
<path d="M1135,1441 L4172,5565" stroke="blue" stroke-width="2" />
<path d="M2309,4447 L579,4061" stroke="blue" stroke-width="2" />
<path d="M274,3593 L2761,4474" stroke="blue" stroke-width="2" />
<path d="M2817,3972 L4429,1142" stroke="blue" stroke-width="2" />
<path d="M3007,3443 L3227,83" stroke="blue" stroke-width="2" />
<path d="M3491,2572 L1934,4186" stroke="blue" stroke-width="2" />
<path d="M3968,3344 L4033,5991" stroke="blue" stroke-width="2" />
<path d="M765,805 L592,1099" stroke="blue" stroke-width="2" />
<path d="M4483,1684 L4665,1698" stroke="blue" stroke-width="2" />
<path d="M3600,1109 L510,4473" stroke="blue" stroke-width="2" />
<path d="M1678,3834 L1011,5594" stroke="blue" stroke-width="2" />
<path d="M1362,4533 L3312,1310" stroke="blue" stroke-width="2" />
<path d="M3162,52 L3249,4141" stroke="blue" stroke-width="2" />
<path d="M4164,4883 L3079,2431" stroke="blue" stroke-width="2" />
<path d="M678,308 L3152,6048" stroke="blue" stroke-width="2" />
<path d="M3531,1831 L1741,4813" stroke="blue" stroke-width="2" />
<path d="M2785,2930 L2886,5819" stroke="blue" stroke-width="2" />
<path d="M3951,2065 L3285,3285" stroke="blue" stroke-width="2" />
<path d="M565,595 L4709,2777" stroke="blue" stroke-width="2" />
<path d="M2220,1120 L1753,2" stroke="blue" stroke-width="2" />
<path d="M1486,2766 L714,3465" stroke="blue" stroke-width="2" />
<path d="M717,920 L2216,4243" stroke="blue" stroke-width="2" />
<path d="M4690,5334 L470,880" stroke="blue" stroke-width="2" />
<path d="M1901,7 L2643,4135" stroke="blue" stroke-width="2" />
<path d="M2111,4142 L2849,4122" stroke="blue" stroke-width="2" />
<path d="M2934,3082 L1723,784" stroke="blue" stroke-width="2" />
<path d="M1362,2533 L360,4446" stroke="blue" stroke-width="2" />
<path d="M1051,2578 L1142,5786" stroke="blue" stroke-width="2" />
<path d="M1176,1783 L3656,4297" stroke="blue" stroke-width="2" />
<path d="M2312,630 L185,1161" stroke="blue" stroke-width="2" />
<path d="M870,5098 L1991,5052" stroke="blue" stroke-width="2" />
<path d="M3,2865 L3506,3567" stroke="blue" stroke-width="2" />
<path d="M646,2476 L972,4992" stroke="blue" stroke-width="2" />
<path d="M1993,439 L3917,447" stroke="blue" stroke-width="2" />
<path d="M2672,5378 L3391,2160" stroke="blue" stroke-width="2" />
<path d="M2785,4667 L829,4274" stroke="blue" stroke-width="2" />
<path d="M301,6142 L4535,5891" stroke="blue" stroke-width="2" />
<path d="M1486,2494 L1135,1506" stroke="blue" stroke-width="2" />
<path d="M3717,5502 L1385,4032" stroke="blue" stroke-width="2" />
<path d="M72,6003 L2586,3415" stroke="blue" stroke-width="2" />
<path d="M3609,3044 L2961,5630" stroke="blue" stroke-width="2" />
<path d="M2600,2338 L3796,3244" stroke="blue" stroke-width="2" />
<path d="M4149,3810 L486,1963" stroke="blue" stroke-width="2" />
<path d="M3717,4941 L3322,6015" stroke="blue" stroke-width="2" />
<path d="M284,2807 L3933,4287" stroke="blue" stroke-width="2" />
<path d="M2201,237 L4153,5580" stroke="blue" stroke-width="2" />
<path d="M4178,2969 L720,4511" stroke="blue" stroke-width="2" />
<path d="M4423,323 L1352,3894" stroke="blue" stroke-width="2" />
<path d="M2075,1846 L917,1866" stroke="blue" stroke-width="2" />
<path d="M4047,5751 L28,5190" stroke="blue" stroke-width="2" />
<path d="M1952,3971 L2319,1715" stroke="blue" stroke-width="2" />
<path d="M3217,875 L3427,299" stroke="blue" stroke-width="2" />
<path d="M3688,1473 L869,3221" stroke="blue" stroke-width="2" />
<path d="M3521,972 L674,52" stroke="blue" stroke-width="2" />
<path d="M3477,6053 L4667,5488" stroke="blue" stroke-width="2" />
<path d="M267,4608 L3263,5406" stroke="blue" stroke-width="2" />
<path d="M504,4283 L707,701" stroke="blue" stroke-width="2" />
<path d="M1619,2168 L4679,412" stroke="blue" stroke-width="2" />
<path d="M2657,4721 L1213,3816" stroke="blue" stroke-width="2" />
<path d="M137,1423 L1108,5858" stroke="blue" stroke-width="2" />
<path d="M2848,3190 L561,911" stroke="blue" stroke-width="2" />
<path d="M1475,1701 L456,4098" stroke="blue" stroke-width="2" />
<path d="M100,4505 L3246,5925" stroke="blue" stroke-width="2" />
<path d="M2896,3196 L510,2464" stroke="blue" stroke-width="2" />
<path d="M1284,2022 L322,1141" stroke="blue" stroke-width="2" />
<path d="M4164,4526 L1802,5974" stroke="blue" stroke-width="2" />
<path d="M2811,4309 L4324,2719" stroke="blue" stroke-width="2" />
<path d="M3718,3177 L1051,3270" stroke="blue" stroke-width="2" />
<path d="M2360,1837 L3464,5186" stroke="blue" stroke-width="2" />
<path d="M3475,5130 L1914,550" stroke="blue" stroke-width="2" />
<path d="M2491,1797 L1563,185" stroke="blue" stroke-width="2" />
<path d="M4596,4967 L2896,1339" stroke="blue" stroke-width="2" />
<path d="M1357,2880 L3437,2342" stroke="blue" stroke-width="2" />
<path d="M722,3174 L83,2911" stroke="blue" stroke-width="2" />
<path d="M4215,806 L828,4933" stroke="blue" stroke-width="2" />
<path d="M215,1583 L3541,4693" stroke="blue" stroke-width="2" />
<path d="M2990,2193 L2684,943" stroke="blue" stroke-width="2" />
<path d="M3017,4838 L725,2550" stroke="blue" stroke-width="2" />
<path d="M1841,4465 L301,1184" stroke="blue" stroke-width="2" />
<path d="M3805,1018 L1173,2683" stroke="blue" stroke-width="2" />
<path d="M1859,3461 L1899,1789" stroke="blue" stroke-width="2" />
<path d="M364,553 L2246,5609" stroke="blue" stroke-width="2" />
<path d="M4090,2469 L4545,2694" stroke="blue" stroke-width="2" />
<path d="M3096,4933 L1388,3875" stroke="blue" stroke-width="2" />
<path d="M98,778 L3302,5792" stroke="blue" stroke-width="2" />
<path d="M4579,4058 L2063,4479" stroke="blue" stroke-width="2" />
<path d="M4617,3703 L2929,3493" stroke="blue" stroke-width="2" />
<path d="M2523,4139 L3281,4645" stroke="blue" stroke-width="2" />
<path d="M1119,539 L1733,2663" stroke="blue" stroke-width="2" />
<path d="M1340,3798 L4424,4792" stroke="blue" stroke-width="2" />
<path d="M3157,4222 L2665,2769" stroke="blue" stroke-width="2" />
<path d="M3050,4706 L4493,819" stroke="blue" stroke-width="2" />
<path d="M3855,4174 L1429,5852" stroke="blue" stroke-width="2" />
<path d="M3516,3174 L3360,6105" stroke="blue" stroke-width="2" />
<path d="M870,2430 L2885,1703" stroke="blue" stroke-width="2" />
<path d="M2467,2322 L114,1164" stroke="blue" stroke-width="2" />
<path d="M1154,3707 L220,2029" stroke="blue" stroke-width="2" />
<path d="M4496,3497 L2011,4071" stroke="blue" stroke-width="2" />
<path d="M816,1460 L2236,4425" stroke="blue" stroke-width="2" />
<path d="M3015,2215 L2817,3129" stroke="blue" stroke-width="2" />
<path d="M291,5273 L552,593" stroke="blue" stroke-width="2" />
<path d="M1832,4312 L4361,845" stroke="blue" stroke-width="2" />
<path d="M670,2727 L1794,2769" stroke="blue" stroke-width="2" />
<path d="M1518,5372 L3463,929" stroke="blue" stroke-width="2" />
<path d="M2470,3743 L1436,5214" stroke="blue" stroke-width="2" />
<path d="M2240,1220 L944,4545" stroke="blue" stroke-width="2" />
<path d="M3608,563 L3495,2091" stroke="blue" stroke-width="2" />
<path d="M3304,5437 L1539,4912" stroke="blue" stroke-width="2" />
<path d="M4058,3794 L2369,4135" stroke="blue" stroke-width="2" />
<path d="M4180,3988 L3378,3544" stroke="blue" stroke-width="2" />
<path d="M2194,4260 L907,5168" stroke="blue" stroke-width="2" />
<path d="M1361,1104 L2514,2203" stroke="blue" stroke-width="2" />
<path d="M4271,944 L3266,3935" stroke="blue" stroke-width="2" />
<path d="M522,1417 L1478,209" stroke="blue" stroke-width="2" />
<path d="M2486,2708 L1725,5428" stroke="blue" stroke-width="2" />
<path d="M4290,3419 L24,2672" stroke="blue" stroke-width="2" />
<path d="M2959,254 L2111,5923" stroke="blue" stroke-width="2" />
<path d="M92,3255 L1195,3237" stroke="blue" stroke-width="2" />
<path d="M3646,4969 L3694,1822" stroke="blue" stroke-width="2" />
<path d="M4108,1861 L53,1479" stroke="blue" stroke-width="2" />
<path d="M1175,2707 L2936,5837" stroke="blue" stroke-width="2" />
<path d="M1971,1033 L2278,4738" stroke="blue" stroke-width="2" />
<path d="M1533,3091 L558,3074" stroke="blue" stroke-width="2" />
<path d="M1069,2933 L2358,1342" stroke="blue" stroke-width="2" />
<path d="M1476,4056 L317,2698" stroke="blue" stroke-width="2" />
<path d="M4567,4749 L1554,1544" stroke="blue" stroke-width="2" />
<path d="M1471,4473 L1746,5755" stroke="blue" stroke-width="2" />
<path d="M180,1343 L3446,5081" stroke="blue" stroke-width="2" />
<path d="M2503,6094 L589,2198" stroke="blue" stroke-width="2" />
<path d="M331,2527 L573,2600" stroke="blue" stroke-width="2" />
<path d="M232,5657 L3766,1319" stroke="blue" stroke-width="2" />
<path d="M3246,1890 L478,5076" stroke="blue" stroke-width="2" />
<path d="M1258,834 L2338,3325" stroke="blue" stroke-width="2" />
<path d="M1999,918 L496,2685" stroke="blue" stroke-width="2" />
<path d="M1957,5631 L1248,5216" stroke="blue" stroke-width="2" />
<path d="M4567,4306 L1510,2652" stroke="blue" stroke-width="2" />
<path d="M1212,4820 L638,4878" stroke="blue" stroke-width="2" />
<path d="M3654,3384 L3319,648" stroke="blue" stroke-width="2" />
<path d="M2287,3219 L437,210" stroke="blue" stroke-width="2" />
<path d="M2122,3117 L2443,3436" stroke="blue" stroke-width="2" />
<path d="M1597,499 L2844,1094" stroke="blue" stroke-width="2" />
<path d="M3115,477 L133,2163" stroke="blue" stroke-width="2" />
<path d="M970,2513 L2725,2239" stroke="blue" stroke-width="2" />
<path d="M45,5320 L2077,1097" stroke="blue" stroke-width="2" />
<path d="M4540,2871 L1160,2949" stroke="blue" stroke-width="2" />
<path d="M1680,2469 L420,249" stroke="blue" stroke-width="2" />
<path d="M758,2381 L239,1674" stroke="blue" stroke-width="2" />
<path d="M1766,4322 L4563,1457" stroke="blue" stroke-width="2" />
<path d="M756,6138 L2549,5155" stroke="blue" stroke-width="2" />
<path d="M1922,5987 L4385,644" stroke="blue" stroke-width="2" />
<path d="M3980,3054 L2631,6016" stroke="blue" stroke-width="2" />
<path d="M1970,2080 L1342,3209" stroke="blue" stroke-width="2" />
<path d="M1479,1959 L1698,72" stroke="blue" stroke-width="2" />
<path d="M4643,5380 L370,875" stroke="blue" stroke-width="2" />
<path d="M1893,5697 L2411,348" stroke="blue" stroke-width="2" />
<path d="M1390,2189 L735,275" stroke="blue" stroke-width="2" />
<path d="M1959,5258 L382,4049" stroke="blue" stroke-width="2" />
<path d="M3754,5075 L2167,2008" stroke="blue" stroke-width="2" />
<path d="M1842,4786 L2305,530" stroke="blue" stroke-width="2" />
<path d="M4363,5617 L3700,2077" stroke="blue" stroke-width="2" />
<path d="M2693,6106 L176,4589" stroke="blue" stroke-width="2" />
<path d="M3475,433 L1297,5452" stroke="blue" stroke-width="2" />
<path d="M2024,5142 L3302,1056" stroke="blue" stroke-width="2" />
<path d="M4301,5798 L3888,3947" stroke="blue" stroke-width="2" />
<path d="M4175,1061 L445,5979" stroke="blue" stroke-width="2" />
<path d="M1224,1614 L1377,2813" stroke="blue" stroke-width="2" />
<path d="M693,810 L4462,5370" stroke="blue" stroke-width="2" />
<path d="M1498,4283 L3448,4074" stroke="blue" stroke-width="2" />
<path d="M3631,489 L1716,3419" stroke="blue" stroke-width="2" />
<path d="M2423,2632 L763,4457" stroke="blue" stroke-width="2" />
<path d="M4206,3815 L1319,2804" stroke="blue" stroke-width="2" />
<path d="M4229,1469 L346,1126" stroke="blue" stroke-width="2" />
<path d="M4304,2823 L3739,6149" stroke="blue" stroke-width="2" />
<path d="M1250,2110 L1730,5861" stroke="blue" stroke-width="2" />
<path d="M1585,4369 L606,5193" stroke="blue" stroke-width="2" />
<path d="M562,2338 L2500,2843" stroke="blue" stroke-width="2" />
<path d="M1367,4149 L4596,2665" stroke="blue" stroke-width="2" />
<path d="M4595,904 L3538,2260" stroke="blue" stroke-width="2" />
<path d="M3218,5028 L3118,2805" stroke="blue" stroke-width="2" />
<path d="M1051,3668 L3418,1311" stroke="blue" stroke-width="2" />
<path d="M1274,4182 L1932,1605" stroke="blue" stroke-width="2" />
<path d="M3521,185 L1601,3436" stroke="blue" stroke-width="2" />
<path d="M289,332 L2877,3978" stroke="blue" stroke-width="2" />
<path d="M4336,2627 L1335,3618" stroke="blue" stroke-width="2" />
<path d="M2877,4181 L337,3944" stroke="blue" stroke-width="2" />
<path d="M2197,5445 L311,1398" stroke="blue" stroke-width="2" />
<path d="M2453,1402 L158,5256" stroke="blue" stroke-width="2" />
<path d="M1918,4768 L4552,3543" stroke="blue" stroke-width="2" />
<path d="M355,5713 L236,3729" stroke="blue" stroke-width="2" />
<path d="M3352,3196 L3158,2891" stroke="blue" stroke-width="2" />
<path d="M2240,1352 L2915,2855" stroke="blue" stroke-width="2" />
<path d="M3811,4055 L335,5401" stroke="blue" stroke-width="2" />
<path d="M3742,2246 L3848,5793" stroke="blue" stroke-width="2" />
<path d="M1247,2344 L3820,2277" stroke="blue" stroke-width="2" />
<path d="M615,1572 L4032,458" stroke="blue" stroke-width="2" />
<path d="M1519,3622 L4602,1665" stroke="blue" stroke-width="2" />
<path d="M1324,5145 L3304,4261" stroke="blue" stroke-width="2" />
<path d="M993,5799 L2864,4386" stroke="blue" stroke-width="2" />
<path d="M4557,4094 L2018,5579" stroke="blue" stroke-width="2" />
<path d="M4390,5844 L651,105" stroke="blue" stroke-width="2" />
<path d="M901,4973 L1856,5555" stroke="blue" stroke-width="2" />
<path d="M3738,4584 L639,5034" stroke="blue" stroke-width="2" />
<path d="M3495,842 L4110,2069" stroke="blue" stroke-width="2" />
<path d="M959,4424 L1397,2185" stroke="blue" stroke-width="2" />
<path d="M611,1989 L1350,1454" stroke="blue" stroke-width="2" />
<path d="M3822,407 L1916,1000" stroke="blue" stroke-width="2" />
<path d="M3310,2240 L3230,1106" stroke="blue" stroke-width="2" />
<path d="M1981,1504 L3634,1012" stroke="blue" stroke-width="2" />
<path d="M1080,5818 L2979,4107" stroke="blue" stroke-width="2" />
<path d="M171,3082 L4709,2785" stroke="blue" stroke-width="2" />
<path d="M4369,5931 L2891,3793" stroke="blue" stroke-width="2" />
<path d="M4514,3021 L191,3108" stroke="blue" stroke-width="2" />
<path d="M4479,2547 L1827,4232" stroke="blue" stroke-width="2" />
<path d="M3750,5772 L4367,3970" stroke="blue" stroke-width="2" />
<path d="M3931,2886 L507,2557" stroke="blue" stroke-width="2" />
<path d="M4269,2649 L3529,883" stroke="blue" stroke-width="2" />
<path d="M3830,5582 L4543,2174" stroke="blue" stroke-width="2" />
<path d="M4101,3526 L3548,2003" stroke="blue" stroke-width="2" />
<path d="M850,383 L878,5647" stroke="blue" stroke-width="2" />
<path d="M2185,391 L68,387" stroke="blue" stroke-width="2" />
<path d="M3611,5355 L633,3394" stroke="blue" stroke-width="2" />
<path d="M1955,5395 L372,3518" stroke="blue" stroke-width="2" />
<path d="M3609,3956 L662,573" stroke="blue" stroke-width="2" />
<path d="M1980,2857 L544,2982" stroke="blue" stroke-width="2" />
<path d="M4699,1888 L1730,3767" stroke="blue" stroke-width="2" />
<path d="M1571,2432 L1972,1254" stroke="blue" stroke-width="2" />
<path d="M4444,1160 L3861,6147" stroke="blue" stroke-width="2" />
<path d="M3072,5798 L4527,4554" stroke="blue" stroke-width="2" />
<path d="M437,4811 L1688,469" stroke="blue" stroke-width="2" />
<path d="M566,3502 L3057,5589" stroke="blue" stroke-width="2" />
<path d="M59,3925 L3540,5670" stroke="blue" stroke-width="2" />
<path d="M4562,5046 L293,3129" stroke="blue" stroke-width="2" />
<path d="M3618,3621 L1254,2041" stroke="blue" stroke-width="2" />
<path d="M3318,596 L1079,4592" stroke="blue" stroke-width="2" />
<path d="M561,873 L526,981" stroke="blue" stroke-width="2" />
<path d="M266,3467 L240,465" stroke="blue" stroke-width="2" />
<path d="M2339,4869 L4229,1449" stroke="blue" stroke-width="2" />
<path d="M1121,1159 L2114,583" stroke="blue" stroke-width="2" />
<path d="M2197,3464 L1433,5969" stroke="blue" stroke-width="2" />
<path d="M573,777 L2747,3744" stroke="blue" stroke-width="2" />
<path d="M4055,5952 L930,4796" stroke="blue" stroke-width="2" />
<path d="M1758,5315 L1246,3213" stroke="blue" stroke-width="2" />
<path d="M2591,2647 L4156,5275" stroke="blue" stroke-width="2" />
<path d="M3412,944 L3789,3200" stroke="blue" stroke-width="2" />
<path d="M683,3877 L2932,3147" stroke="blue" stroke-width="2" />
<path d="M3659,3533 L1394,1488" stroke="blue" stroke-width="2" />
<path d="M1796,2380 L3648,5165" stroke="blue" stroke-width="2" />
<path d="M2670,1012 L1000,3631" stroke="blue" stroke-width="2" />
<path d="M3426,429 L953,4593" stroke="blue" stroke-width="2" />
<path d="M4379,5158 L937,4618" stroke="blue" stroke-width="2" />
<path d="M2659,4925 L2272,5467" stroke="blue" stroke-width="2" />
<path d="M618,5867 L1634,1635" stroke="blue" stroke-width="2" />
<path d="M4203,4026 L4207,3163" stroke="blue" stroke-width="2" />
<path d="M2268,539 L3588,1558" stroke="blue" stroke-width="2" />
<path d="M3024,3289 L2271,3842" stroke="blue" stroke-width="2" />
<path d="M4044,102 L3870,2177" stroke="blue" stroke-width="2" />
<path d="M907,4762 L3686,285" stroke="blue" stroke-width="2" />
<path d="M269,3975 L1738,5182" stroke="blue" stroke-width="2" />
<path d="M3444,1302 L4698,1711" stroke="blue" stroke-width="2" />
<path d="M2564,5886 L1089,5904" stroke="blue" stroke-width="2" />
<path d="M2543,271 L2809,2778" stroke="blue" stroke-width="2" />
<path d="M892,2561 L899,2578" stroke="blue" stroke-width="2" />
<path d="M2682,4532 L4273,4600" stroke="blue" stroke-width="2" />
<path d="M1232,2717 L540,4344" stroke="blue" stroke-width="2" />
<path d="M3379,4661 L4452,378" stroke="blue" stroke-width="2" />
<path d="M660,459 L2066,628" stroke="blue" stroke-width="2" />
<path d="M3387,2830 L11,3232" stroke="blue" stroke-width="2" />
<path d="M1955,663 L38,708" stroke="blue" stroke-width="2" />
<path d="M4088,1709 L1679,4380" stroke="blue" stroke-width="2" />
<path d="M1411,622 L3975,1429" stroke="blue" stroke-width="2" />
<path d="M1443,265 L1388,2514" stroke="blue" stroke-width="2" />
<path d="M4364,2788 L4707,2789" stroke="blue" stroke-width="2" />
<path d="M1825,3271 L2465,5381" stroke="blue" stroke-width="2" />
<path d="M513,5262 L2366,4948" stroke="blue" stroke-width="2" />
<path d="M4177,4765 L639,5420" stroke="blue" stroke-width="2" />
<path d="M1739,5737 L3996,5432" stroke="blue" stroke-width="2" />
<path d="M2959,963 L2311,1467" stroke="blue" stroke-width="2" />
<path d="M1989,3025 L81,4734" stroke="blue" stroke-width="2" />
<path d="M278,3144 L1775,567" stroke="blue" stroke-width="2" />
<path d="M3480,2185 L3290,1982" stroke="blue" stroke-width="2" />
<path d="M4614,6121 L2723,4120" stroke="blue" stroke-width="2" />
<path d="M4040,264 L2105,3700" stroke="blue" stroke-width="2" />
<path d="M914,5817 L845,5300" stroke="blue" stroke-width="2" />
<path d="M164,2985 L219,4572" stroke="blue" stroke-width="2" />
<path d="M4693,4163 L1260,1271" stroke="blue" stroke-width="2" />
<path d="M2124,612 L16,3356" stroke="blue" stroke-width="2" />
<path d="M1379,1929 L3777,920" stroke="blue" stroke-width="2" />
<path d="M3195,5868 L3761,5245" stroke="blue" stroke-width="2" />
<path d="M1818,5457 L594,1996" stroke="blue" stroke-width="2" />
<path d="M3084,1870 L829,2104" stroke="blue" stroke-width="2" />
<path d="M570,3133 L1975,580" stroke="blue" stroke-width="2" />
<path d="M618,3579 L432,301" stroke="blue" stroke-width="2" />
<path d="M2459,1429 L91,5167" stroke="blue" stroke-width="2" />
<path d="M2829,2058 L3801,1347" stroke="blue" stroke-width="2" />
<path d="M1231,2749 L1112,395" stroke="blue" stroke-width="2" />
<path d="M3524,4886 L2420,1968" stroke="blue" stroke-width="2" />
<path d="M4459,1566 L3484,4532" stroke="blue" stroke-width="2" />
<path d="M1196,1760 L1681,975" stroke="blue" stroke-width="2" />
<path d="M408,1175 L429,4279" stroke="blue" stroke-width="2" />
<path d="M2431,4078 L4000,134" stroke="blue" stroke-width="2" />
<path d="M2304,5680 L1747,1877" stroke="blue" stroke-width="2" />
<path d="M551,4894 L37,775" stroke="blue" stroke-width="2" />
<path d="M3976,3742 L2296,569" stroke="blue" stroke-width="2" />
<path d="M1590,1098 L4318,1441" stroke="blue" stroke-width="2" />
<path d="M2905,5435 L402,4922" stroke="blue" stroke-width="2" />
<path d="M4300,748 L4662,3723" stroke="blue" stroke-width="2" />
<path d="M1931,5104 L1789,4454" stroke="blue" stroke-width="2" />
<path d="M2739,2742 L2774,1508" stroke="blue" stroke-width="2" />
<path d="M97,2297 L129,1692" stroke="blue" stroke-width="2" />
<path d="M2848,1045 L3715,3584" stroke="blue" stroke-width="2" />
<path d="M2946,5629 L3045,963" stroke="blue" stroke-width="2" />
<path d="M3674,5102 L1991,1042" stroke="blue" stroke-width="2" />
<path d="M2532,3734 L613,151" stroke="blue" stroke-width="2" />
<path d="M3906,3559 L692,5186" stroke="blue" stroke-width="2" />
<path d="M1484,5943 L3990,3101" stroke="blue" stroke-width="2" />
<path d="M650,1925 L2874,5938" stroke="blue" stroke-width="2" />
<path d="M745,3531 L1059,1766" stroke="blue" stroke-width="2" />
<path d="M2464,5103 L2847,723" stroke="blue" stroke-width="2" />
<path d="M1702,1741 L4231,4547" stroke="blue" stroke-width="2" />
<path d="M3839,5747 L2064,3416" stroke="blue" stroke-width="2" />
<path d="M594,4736 L457,5594" stroke="blue" stroke-width="2" />
<path d="M2203,5627 L1091,3003" stroke="blue" stroke-width="2" />
<path d="M4413,610 L849,3804" stroke="blue" stroke-width="2" />
<path d="M30,5643 L2203,1339" stroke="blue" stroke-width="2" />
<path d="M2523,668 L314,3556" stroke="blue" stroke-width="2" />
<path d="M1213,2668 L3055,5270" stroke="blue" stroke-width="2" />
<path d="M3762,3613 L3476,310" stroke="blue" stroke-width="2" />
<path d="M700,4099 L673,4603" stroke="blue" stroke-width="2" />
<path d="M280,4618 L4621,2556" stroke="blue" stroke-width="2" />
<path d="M1813,234 L3431,5475" stroke="blue" stroke-width="2" />
<path d="M2154,3393 L3187,4791" stroke="blue" stroke-width="2" />
<path d="M1103,5061 L485,1664" stroke="blue" stroke-width="2" />
<path d="M3334,1238 L4377,4298" stroke="blue" stroke-width="2" />
<path d="M4103,6133 L4572,2002" stroke="blue" stroke-width="2" />
<path d="M1854,4049 L2566,2144" stroke="blue" stroke-width="2" />
<path d="M1133,1906 L3965,2505" stroke="blue" stroke-width="2" />
<path d="M2290,1662 L456,5484" stroke="blue" stroke-width="2" />
<path d="M4176,5350 L1866,572" stroke="blue" stroke-width="2" />
<path d="M3879,145 L3129,5182" stroke="blue" stroke-width="2" />
<path d="M1111,1660 L3511,5036" stroke="blue" stroke-width="2" />
<path d="M4386,3293 L393,4738" stroke="blue" stroke-width="2" />
<path d="M1413,2733 L1421,2925" stroke="blue" stroke-width="2" />
<path d="M4574,1148 L724,1884" stroke="blue" stroke-width="2" />
<path d="M403,2043 L4095,2519" stroke="blue" stroke-width="2" />
<path d="M2810,5925 L564,4842" stroke="blue" stroke-width="2" />
<path d="M2812,1189 L3969,3462" stroke="blue" stroke-width="2" />
<path d="M4480,6088 L1401,4363" stroke="blue" stroke-width="2" />
<path d="M202,3828 L4343,2860" stroke="blue" stroke-width="2" />
<path d="M2242,1483 L614,2473" stroke="blue" stroke-width="2" />
<path d="M957,2725 L1796,4137" stroke="blue" stroke-width="2" />
<path d="M3668,486 L1104,2664" stroke="blue" stroke-width="2" />
<path d="M746,1078 L1780,3964" stroke="blue" stroke-width="2" />
<path d="M2230,520 L1417,5320" stroke="blue" stroke-width="2" />
<path d="M2439,1124 L1639,818" stroke="blue" stroke-width="2" />
<path d="M3755,2420 L2481,1963" stroke="blue" stroke-width="2" />
<path d="M4395,2308 L2680,2759" stroke="blue" stroke-width="2" />
<path d="M420,4649 L3819,3593" stroke="blue" stroke-width="2" />
<path d="M3808,272 L2461,3343" stroke="blue" stroke-width="2" />
<path d="M1048,3326 L2729,5499" stroke="blue" stroke-width="2" />
<path d="M713,4844 L997,5018" stroke="blue" stroke-width="2" />
<path d="M2450,4352 L3718,3571" stroke="blue" stroke-width="2" />
<path d="M4587,2965 L2465,6138" stroke="blue" stroke-width="2" />
<path d="M4236,1229 L2245,5222" stroke="blue" stroke-width="2" />
<path d="M4453,4013 L4038,5944" stroke="blue" stroke-width="2" />
<path d="M1570,2153 L326,1702" stroke="blue" stroke-width="2" />
<path d="M1168,5235 L3955,200" stroke="blue" stroke-width="2" />
<path d="M4371,187 L1709,2170" stroke="blue" stroke-width="2" />
<path d="M563,2322 L2952,3878" stroke="blue" stroke-width="2" />
<path d="M4283,4268 L4245,4123" stroke="blue" stroke-width="2" />
<path d="M123,3243 L2144,1027" stroke="blue" stroke-width="2" />
<path d="M209,4683 L2772,4002" stroke="blue" stroke-width="2" />
<path d="M256,5062 L1886,3059" stroke="blue" stroke-width="2" />
<path d="M4081,1374 L4291,1173" stroke="blue" stroke-width="2" />
<path d="M363,1471 L932,3057" stroke="blue" stroke-width="2" />
<path d="M1249,4222 L4566,1905" stroke="blue" stroke-width="2" />
<path d="M2353,2479 L1430,2243" stroke="blue" stroke-width="2" />
<path d="M2156,3497 L1521,847" stroke="blue" stroke-width="2" />
<path d="M2245,4301 L4056,4508" stroke="blue" stroke-width="2" />
<path d="M2039,3806 L2613,5155" stroke="blue" stroke-width="2" />
<path d="M1728,1652 L927,170" stroke="blue" stroke-width="2" />
<path d="M621,3312 L2150,5006" stroke="blue" stroke-width="2" />
<path d="M1644,4049 L2729,1562" stroke="blue" stroke-width="2" />
<path d="M3491,1375 L3853,5872" stroke="blue" stroke-width="2" />
<path d="M3181,5597 L976,4565" stroke="blue" stroke-width="2" />
<path d="M188,2102 L2193,2343" stroke="blue" stroke-width="2" />
<path d="M2031,5522 L4462,1651" stroke="blue" stroke-width="2" />
<path d="M4336,4788 L2265,5534" stroke="blue" stroke-width="2" />
<path d="M1229,5192 L2389,3171" stroke="blue" stroke-width="2" />
<path d="M3174,5268 L2736,5987" stroke="blue" stroke-width="2" />
<path d="M3140,1281 L3446,2086" stroke="blue" stroke-width="2" />
<path d="M141,5086 L1323,4845" stroke="blue" stroke-width="2" />
<path d="M1531,1207 L435,5422" stroke="blue" stroke-width="2" />
<path d="M2165,5292 L4611,1270" stroke="blue" stroke-width="2" />
<path d="M1533,4348 L1870,5332" stroke="blue" stroke-width="2" />
<path d="M4592,5327 L793,1690" stroke="blue" stroke-width="2" />
<path d="M328,2272 L4454,1722" stroke="blue" stroke-width="2" />
<path d="M21,4319 L4650,4914" stroke="blue" stroke-width="2" />
<path d="M3075,1203 L4425,4478" stroke="blue" stroke-width="2" />
<path d="M1757,926 L2787,325" stroke="blue" stroke-width="2" />
<path d="M1878,3489 L2986,5195" stroke="blue" stroke-width="2" />
<path d="M3381,1728 L3129,3985" stroke="blue" stroke-width="2" />
<path d="M584,1755 L4079,2230" stroke="blue" stroke-width="2" />
<path d="M3289,4005 L959,2650" stroke="blue" stroke-width="2" />
<path d="M4082,5489 L3985,2921" stroke="blue" stroke-width="2" />
<path d="M1953,4373 L2371,5102" stroke="blue" stroke-width="2" />
<path d="M1430,4498 L3010,5644" stroke="blue" stroke-width="2" />
<path d="M2570,1430 L1707,2896" stroke="blue" stroke-width="2" />
<path d="M402,5048 L4654,2500" stroke="blue" stroke-width="2" />
<path d="M0,0 L4710,0" stroke="red" stroke-width="10" />
<path d="M4710,0 L4710,6166" stroke="red" stroke-width="10" />
<path d="M0,6166 L4710,6166" stroke="red" stroke-width="10" />
<path d="M0,6166 L0,0" stroke="red" stroke-width="10" />
</svg>