<?xml version="1.0" encoding="UTF-8"?>
<svg xmlns="http://www.w3.org/2000/svg" xmlns:xlink="http://www.w3.org/1999/xlink"
     width="10000" height="10000" viewBox="0 0 10000 10000">
<defs>
</defs>
<path d="M1095,2896 L5815,743" stroke="blue" stroke-width="2" />
<path d="M1472,3980 L149,1729" stroke="blue" stroke-width="2" />
<path d="M8468,4217 L8202,1762" stroke="blue" stroke-width="2" />
<path d="M7575,267 L298,4804" stroke="blue" stroke-width="2" />
<path d="M3049,3322 L4532,4154" stroke="blue" stroke-width="2" />
<path d="M6705,5579 L8806,3935" stroke="blue" stroke-width="2" />
<path d="M5067,2160 L3802,4577" stroke="blue" stroke-width="2" />
<path d="M7830,2640 L5647,4928" stroke="blue" stroke-width="2" />
<path d="M337,2501 L5202,5077" stroke="blue" stroke-width="2" />
<path d="M896,2822 L2663,19" stroke="blue" stroke-width="2" />
<path d="M2882,2693 L3117,2853" stroke="blue" stroke-width="2" />
<path d="M8165,3760 L3336,1453" stroke="blue" stroke-width="2" />
<path d="M274,4799 L470,4014" stroke="blue" stroke-width="2" />
<path d="M7489,2749 L5167,4239" stroke="blue" stroke-width="2" />
<path d="M5113,4352 L6598,330" stroke="blue" stroke-width="2" />
<path d="M8348,4030 L489,449" stroke="blue" stroke-width="2" />
<path d="M3102,4761 L6705,282" stroke="blue" stroke-width="2" />
<path d="M1407,4358 L6552,4049" stroke="blue" stroke-width="2" />
<path d="M7300,3879 L2985,3642" stroke="blue" stroke-width="2" />
<path d="M7755,1307 L33,4035" stroke="blue" stroke-width="2" />
<path d="M7008,1391 L8332,39" stroke="blue" stroke-width="2" />
<path d="M5581,4038 L2904,191" stroke="blue" stroke-width="2" />
<path d="M7703,3022 L7690,1378" stroke="blue" stroke-width="2" />
<path d="M1527,4556 L7658,2712" stroke="blue" stroke-width="2" />
<path d="M5448,2233 L4420,2163" stroke="blue" stroke-width="2" />
<path d="M3977,2654 L4802,5265" stroke="blue" stroke-width="2" />
<path d="M7313,5300 L7740,4645" stroke="blue" stroke-width="2" />
<path d="M2319,965 L1136,75" stroke="blue" stroke-width="2" />
<path d="M7224,5385 L8486,2152" stroke="blue" stroke-width="2" />
<path d="M475,4053 L4136,2455" stroke="blue" stroke-width="2" />
<path d="M6466,2284 L2703,4053" stroke="blue" stroke-width="2" />
<path d="M7078,4824 L6407,4435" stroke="blue" stroke-width="2" />
<path d="M8831,1459 L8862,1471" stroke="blue" stroke-width="2" />
<path d="M775,3574 L2691,4569" stroke="blue" stroke-width="2" />
<path d="M6982,4391 L802,1128" stroke="blue" stroke-width="2" />
<path d="M1884,5101 L6864,2007" stroke="blue" stroke-width="2" />
<path d="M6071,2459 L1635,4352" stroke="blue" stroke-width="2" />
<path d="M2041,611 L8090,3719" stroke="blue" stroke-width="2" />
<path d="M8712,3010 L8697,4446" stroke="blue" stroke-width="2" />
<path d="M124,3945 L6214,1050" stroke="blue" stroke-width="2" />
<path d="M7818,1959 L5777,4170" stroke="blue" stroke-width="2" />
<path d="M7947,5066 L6464,5246" stroke="blue" stroke-width="2" />
<path d="M6842,3757 L487,1833" stroke="blue" stroke-width="2" />
<path d="M3669,2509 L885,3438" stroke="blue" stroke-width="2" />
<path d="M7115,3082 L4722,1938" stroke="blue" stroke-width="2" />
<path d="M2710,100 L4855,4648" stroke="blue" stroke-width="2" />
<path d="M3191,4714 L972,4378" stroke="blue" stroke-width="2" />
<path d="M6339,2262 L1876,2477" stroke="blue" stroke-width="2" />
<path d="M4897,1506 L6002,788" stroke="blue" stroke-width="2" />
<path d="M6313,2658 L3578,280" stroke="blue" stroke-width="2" />
<path d="M3637,2787 L335,1062" stroke="blue" stroke-width="2" />
<path d="M236,3866 L8319,5108" stroke="blue" stroke-width="2" />
<path d="M3640,4435 L8517,4804" stroke="blue" stroke-width="2" />
<path d="M5707,2822 L4918,5492" stroke="blue" stroke-width="2" />
<path d="M915,2740 L2853,1964" stroke="blue" stroke-width="2" />
<path d="M4574,2964 L4937,2087" stroke="blue" stroke-width="2" />
<path d="M1075,5021 L6444,1256" stroke="blue" stroke-width="2" />
<path d="M2787,4180 L4967,717" stroke="blue" stroke-width="2" />
<path d="M3446,5349 L1284,1922" stroke="blue" stroke-width="2" />
<path d="M7888,607 L8199,508" stroke="blue" stroke-width="2" />
<path d="M4475,3623 L8490,2793" stroke="blue" stroke-width="2" />
<path d="M5511,2824 L3072,214" stroke="blue" stroke-width="2" />
<path d="M4307,564 L4745,114" stroke="blue" stroke-width="2" />
<path d="M6141,1484 L3543,4485" stroke="blue" stroke-width="2" />
<path d="M4750,5257 L8595,1015" stroke="blue" stroke-width="2" />
<path d="M900,2850 L5609,4336" stroke="blue" stroke-width="2" />
<path d="M7498,1692 L184,2314" stroke="blue" stroke-width="2" />
<path d="M3882,3236 L6023,4553" stroke="blue" stroke-width="2" />
<path d="M6599,1098 L416,173" stroke="blue" stroke-width="2" />
<path d="M5478,5173 L6683,4915" stroke="blue" stroke-width="2" />
<path d="M7566,2863 L8390,5473" stroke="blue" stroke-width="2" />
<path d="M8283,2685 L8259,5331" stroke="blue" stroke-width="2" />
<path d="M1346,4961 L4364,4820" stroke="blue" stroke-width="2" />
<path d="M1243,5041 L7619,2230" stroke="blue" stroke-width="2" />
<path d="M1593,3028 L5820,3509" stroke="blue" stroke-width="2" />
<path d="M7832,2834 L6980,3819" stroke="blue" stroke-width="2" />
<path d="M6112,3344 L1961,2388" stroke="blue" stroke-width="2" />
<path d="M5877,1745 L5551,3439" stroke="blue" stroke-width="2" />
<path d="M1109,5148 L6100,1511" stroke="blue" stroke-width="2" />
<path d="M1069,3043 L5498,2073" stroke="blue" stroke-width="2" />
<path d="M1728,824 L5724,4100" stroke="blue" stroke-width="2" />
<path d="M6397,5309 L6721,5285" stroke="blue" stroke-width="2" />
<path d="M2150,3990 L6203,3195" stroke="blue" stroke-width="2" />
<path d="M1725,3200 L1397,73" stroke="blue" stroke-width="2" />
<path d="M6672,2020 L2371,1421" stroke="blue" stroke-width="2" />
<path d="M1356,912 L980,2162" stroke="blue" stroke-width="2" />
<path d="M6293,252 L3149,1568" stroke="blue" stroke-width="2" />
<path d="M7499,3181 L4345,108" stroke="blue" stroke-width="2" />
<path d="M4040,5538 L645,1580" stroke="blue" stroke-width="2" />
<path d="M2990,2998 L4339,3168" stroke="blue" stroke-width="2" />
<path d="M247,4027 L1203,470" stroke="blue" stroke-width="2" />
<path d="M7125,1544 L4685,2247" stroke="blue" stroke-width="2" />
<path d="M7072,5152 L1310,5589" stroke="blue" stroke-width="2" />
<path d="M5797,2568 L658,4160" stroke="blue" stroke-width="2" />
<path d="M5925,5073 L3109,2432" stroke="blue" stroke-width="2" />
<path d="M2379,1912 L4397,4994" stroke="blue" stroke-width="2" />
<path d="M251,1609 L3033,3995" stroke="blue" stroke-width="2" />
<path d="M5541,1354 L5338,5310" stroke="blue" stroke-width="2" />
<path d="M3464,4082 L2411,4934" stroke="blue" stroke-width="2" />
<path d="M7632,2239 L6469,224" stroke="blue" stroke-width="2" />
<path d="M7094,2011 L2667,987" stroke="blue" stroke-width="2" />
<path d="M7522,1241 L2304,2003" stroke="blue" stroke-width="2" />
<path d="M7179,4275 L7042,5468" stroke="blue" stroke-width="2" />
<path d="M1650,3389 L3771,3312" stroke="blue" stroke-width="2" />
<path d="M5075,2592 L5679,2179" stroke="blue" stroke-width="2" />
<path d="M2492,2384 L6682,3286" stroke="blue" stroke-width="2" />
<path d="M7388,2322 L7849,1525" stroke="blue" stroke-width="2" />
<path d="M7892,590 L8274,4431" stroke="blue" stroke-width="2" />
<path d="M4707,47 L3206,53" stroke="blue" stroke-width="2" />
<path d="M1658,112 L8735,5197" stroke="blue" stroke-width="2" />
<path d="M1259,4824 L7388,2186" stroke="blue" stroke-width="2" />
<path d="M3430,422 L3225,5464" stroke="blue" stroke-width="2" />
<path d="M7370,1032 L3606,3863" stroke="blue" stroke-width="2" />
<path d="M1046,5183 L1283,2125" stroke="blue" stroke-width="2" />
<path d="M2108,321 L4319,5568" stroke="blue" stroke-width="2" />
<path d="M7148,307 L8418,920" stroke="blue" stroke-width="2" />
<path d="M6112,4644 L2497,1721" stroke="blue" stroke-width="2" />
<path d="M2330,4378 L5141,3280" stroke="blue" stroke-width="2" />
<path d="M3844,4218 L6092,2554" stroke="blue" stroke-width="2" />
<path d="M745,4039 L3340,1650" stroke="blue" stroke-width="2" />
<path d="M3417,4430 L7023,4926" stroke="blue" stroke-width="2" />
<path d="M7450,3545 L6495,1312" stroke="blue" stroke-width="2" />
<path d="M479,419 L5233,1663" stroke="blue" stroke-width="2" />
<path d="M8763,5571 L4902,5485" stroke="blue" stroke-width="2" />
<path d="M2182,713 L7849,5330" stroke="blue" stroke-width="2" />
<path d="M6427,295 L8014,3699" stroke="blue" stroke-width="2" />
<path d="M5519,2589 L3288,2969" stroke="blue" stroke-width="2" />
<path d="M4599,5029 L6936,5343" stroke="blue" stroke-width="2" />
<path d="M5154,984 L1455,4910" stroke="blue" stroke-width="2" />
<path d="M2873,3881 L3624,5425" stroke="blue" stroke-width="2" />
<path d="M7049,2674 L3368,1718" stroke="blue" stroke-width="2" />
<path d="M8845,778 L34,5660" stroke="blue" stroke-width="2" />
<path d="M2254,4509 L5271,500" stroke="blue" stroke-width="2" />
<path d="M3495,1661 L4835,5021" stroke="blue" stroke-width="2" />
<path d="M6828,4601 L4605,1923" stroke="blue" stroke-width="2" />
<path d="M2111,2583 L3064,960" stroke="blue" stroke-width="2" />
<path d="M378,2871 L931,1971" stroke="blue" stroke-width="2" />
<path d="M2990,4387 L7903,3058" stroke="blue" stroke-width="2" />
<path d="M1772,3597 L4823,5488" stroke="blue" stroke-width="2" />
<path d="M487,2545 L4179,2353" stroke="blue" stroke-width="2" />
<path d="M3448,1942 L4276,1990" stroke="blue" stroke-width="2" />
<path d="M1039,4368 L2605,3327" stroke="blue" stroke-width="2" />
<path d="M6503,5003 L7505,848" stroke="blue" stroke-width="2" />
<path d="M2956,1515 L1369,5455" stroke="blue" stroke-width="2" />
<path d="M6913,3062 L1087,5209" stroke="blue" stroke-width="2" />
<path d="M1290,333 L4905,836" stroke="blue" stroke-width="2" />
<path d="M7752,509 L3742,4446" stroke="blue" stroke-width="2" />
<path d="M1910,4539 L3898,3" stroke="blue" stroke-width="2" />
<path d="M3677,729 L4556,4132" stroke="blue" stroke-width="2" />
<path d="M1439,173 L2669,2754" stroke="blue" stroke-width="2" />
<path d="M5697,5161 L3949,1987" stroke="blue" stroke-width="2" />
<path d="M7102,2321 L2509,4840" stroke="blue" stroke-width="2" />
<path d="M8063,2490 L7869,5335" stroke="blue" stroke-width="2" />
<path d="M5707,2086 L4513,1288" stroke="blue" stroke-width="2" />
<path d="M7777,1564 L4595,4400" stroke="blue" stroke-width="2" />
<path d="M6890,408 L8816,2085" stroke="blue" stroke-width="2" />
<path d="M4794,4382 L1968,2754" stroke="blue" stroke-width="2" />
<path d="M7078,1982 L8681,432" stroke="blue" stroke-width="2" />
<path d="M7301,5074 L7852,1745" stroke="blue" stroke-width="2" />
<path d="M836,5405 L5593,5345" stroke="blue" stroke-width="2" />
<path d="M6516,2786 L7739,4858" stroke="blue" stroke-width="2" />
<path d="M1026,304 L7219,329" stroke="blue" stroke-width="2" />
<path d="M6184,5361 L3092,437" stroke="blue" stroke-width="2" />
<path d="M2568,1014 L3505,4272" stroke="blue" stroke-width="2" />
<path d="M2011,8 L242,726" stroke="blue" stroke-width="2" />
<path d="M482,3240 L7072,4575" stroke="blue" stroke-width="2" />
<path d="M3966,2629 L1350,1302" stroke="blue" stroke-width="2" />
<path d="M5657,3075 L223,2143" stroke="blue" stroke-width="2" />
<path d="M2647,4981 L706,2792" stroke="blue" stroke-width="2" />
<path d="M1969,1140 L6695,5045" stroke="blue" stroke-width="2" />
<path d="M5968,495 L5530,5348" stroke="blue" stroke-width="2" />
<path d="M4885,140 L3155,3351" stroke="blue" stroke-width="2" />
<path d="M4733,2949 L7541,3621" stroke="blue" stroke-width="2" />
<path d="M643,3119 L6242,1979" stroke="blue" stroke-width="2" />
<path d="M3314,2102 L625,3134" stroke="blue" stroke-width="2" />
<path d="M2477,2652 L7114,3760" stroke="blue" stroke-width="2" />
<path d="M5357,1850 L762,874" stroke="blue" stroke-width="2" />
<path d="M2705,4220 L8145,3854" stroke="blue" stroke-width="2" />
<path d="M2189,4083 L1852,3780" stroke="blue" stroke-width="2" />
<path d="M2727,3121 L3601,4098" stroke="blue" stroke-width="2" />
<path d="M7777,4786 L7192,3391" stroke="blue" stroke-width="2" />
<path d="M5480,4479 L678,5145" stroke="blue" stroke-width="2" />
<path d="M3173,301 L563,5437" stroke="blue" stroke-width="2" />
<path d="M3307,4931 L8399,4220" stroke="blue" stroke-width="2" />
<path d="M4014,1884 L884,3829" stroke="blue" stroke-width="2" />
<path d="M8828,890 L7415,4772" stroke="blue" stroke-width="2" />
<path d="M8499,3965 L7255,4346" stroke="blue" stroke-width="2" />
<path d="M7683,1043 L5719,5577" stroke="blue" stroke-width="2" />
<path d="M7824,1668 L7212,1906" stroke="blue" stroke-width="2" />
<path d="M8276,5342 L1027,517" stroke="blue" stroke-width="2" />
<path d="M3625,576 L6516,3256" stroke="blue" stroke-width="2" />
<path d="M3375,4040 L6216,2123" stroke="blue" stroke-width="2" />
<path d="M6610,4328 L413,5474" stroke="blue" stroke-width="2" />
<path d="M876,454 L5738,2616" stroke="blue" stroke-width="2" />
<path d="M5268,1927 L6852,412" stroke="blue" stroke-width="2" />
<path d="M3980,839 L5292,3355" stroke="blue" stroke-width="2" />
<path d="M3873,775 L7341,1360" stroke="blue" stroke-width="2" />
<path d="M4871,1371 L2377,1230" stroke="blue" stroke-width="2" />
<path d="M604,2048 L7614,1615" stroke="blue" stroke-width="2" />
<path d="M2209,5513 L6525,3799" stroke="blue" stroke-width="2" />
<path d="M8637,3090 L6064,2199" stroke="blue" stroke-width="2" />
<path d="M4614,253 L476,982" stroke="blue" stroke-width="2" />
<path d="M4994,5047 L2169,438" stroke="blue" stroke-width="2" />
<path d="M8865,5526 L5693,3458" stroke="blue" stroke-width="2" />
<path d="M478,1106 L5309,5149" stroke="blue" stroke-width="2" />
<path d="M8445,3102 L2359,1257" stroke="blue" stroke-width="2" />
<path d="M1007,153 L1045,3649" stroke="blue" stroke-width="2" />
<path d="M2863,5189 L4622,1692" stroke="blue" stroke-width="2" />
<path d="M1889,2421 L5936,4883" stroke="blue" stroke-width="2" />
<path d="M2449,4030 L2025,4964" stroke="blue" stroke-width="2" />
<path d="M8210,1317 L5653,4730" stroke="blue" stroke-width="2" />
<path d="M6523,3823 L3633,447" stroke="blue" stroke-width="2" />
<path d="M478,2726 L8344,4438" stroke="blue" stroke-width="2" />
<path d="M3947,5144 L5466,1925" stroke="blue" stroke-width="2" />
<path d="M2469,574 L6510,3549" stroke="blue" stroke-width="2" />
<path d="M8761,231 L3858,3632" stroke="blue" stroke-width="2" />
<path d="M869,1163 L2797,1904" stroke="blue" stroke-width="2" />
<path d="M1623,87 L3698,2256" stroke="blue" stroke-width="2" />
<path d="M4255,2931 L5502,752" stroke="blue" stroke-width="2" />
<path d="M657,2159 L6630,1071" stroke="blue" stroke-width="2" />
<path d="M2153,495 L8438,4524" stroke="blue" stroke-width="2" />
<path d="M5720,253 L2444,4839" stroke="blue" stroke-width="2" />
<path d="M6345,138 L8606,5331" stroke="blue" stroke-width="2" />
<path d="M3050,2458 L1880,1313" stroke="blue" stroke-width="2" />
<path d="M3408,1780 L6326,1338" stroke="blue" stroke-width="2" />
<path d="M2796,174 L7179,5413" stroke="blue" stroke-width="2" />
<path d="M3768,5126 L6388,3790" stroke="blue" stroke-width="2" />
<path d="M2191,981 L1363,3980" stroke="blue" stroke-width="2" />
<path d="M6363,5670 L7065,4764" stroke="blue" stroke-width="2" />
<path d="M3729,1800 L7833,4460" stroke="blue" stroke-width="2" />
<path d="M6152,1212 L963,5584" stroke="blue" stroke-width="2" />
<path d="M236,1480 L218,1337" stroke="blue" stroke-width="2" />
<path d="M2400,1233 L3364,1258" stroke="blue" stroke-width="2" />
<path d="M8675,4620 L2271,2711" stroke="blue" stroke-width="2" />
<path d="M8766,3832 L5640,5012" stroke="blue" stroke-width="2" />
<path d="M5575,5526 L1199,179" stroke="blue" stroke-width="2" />
<path d="M465,5463 L6972,5039" stroke="blue" stroke-width="2" />
<path d="M2855,2070 L3416,2099" stroke="blue" stroke-width="2" />
<path d="M7831,5623 L7335,3509" stroke="blue" stroke-width="2" />
<path d="M3592,4643 L1775,2679" stroke="blue" stroke-width="2" />
<path d="M1212,2542 L3289,3751" stroke="blue" stroke-width="2" />
<path d="M1820,5083 L350,4721" stroke="blue" stroke-width="2" />
<path d="M2776,1539 L6985,2780" stroke="blue" stroke-width="2" />
<path d="M6688,5474 L5580,5029" stroke="blue" stroke-width="2" />
<path d="M5356,1785 L5235,2458" stroke="blue" stroke-width="2" />
<path d="M7013,353 L6405,2567" stroke="blue" stroke-width="2" />
<path d="M8127,3186 L896,837" stroke="blue" stroke-width="2" />
<path d="M6468,38 L1638,3411" stroke="blue" stroke-width="2" />
<path d="M8838,5190 L3684,2989" stroke="blue" stroke-width="2" />
<path d="M6169,1426 L539,5575" stroke="blue" stroke-width="2" />
<path d="M5699,963 L1193,2979" stroke="blue" stroke-width="2" />
<path d="M1163,3425 L8599,4852" stroke="blue" stroke-width="2" />
<path d="M256,455 L1999,515" stroke="blue" stroke-width="2" />
<path d="M8600,5408 L3870,2487" stroke="blue" stroke-width="2" />
<path d="M5875,3035 L8240,5646" stroke="blue" stroke-width="2" />
<path d="M8820,3679 L2322,527" stroke="blue" stroke-width="2" />
<path d="M2532,2027 L1044,5175" stroke="blue" stroke-width="2" />
<path d="M2915,4263 L4962,2390" stroke="blue" stroke-width="2" />
<path d="M548,5080 L1586,1871" stroke="blue" stroke-width="2" />
<path d="M2238,4600 L6920,1160" stroke="blue" stroke-width="2" />
<path d="M6242,4189 L1177,870" stroke="blue" stroke-width="2" />
<path d="M691,1402 L1242,498" stroke="blue" stroke-width="2" />
<path d="M5492,2292 L3786,1658" stroke="blue" stroke-width="2" />
<path d="M7123,216 L8036,1843" stroke="blue" stroke-width="2" />
<path d="M6421,42 L5859,3294" stroke="blue" stroke-width="2" />
<path d="M8516,4957 L5012,500" stroke="blue" stroke-width="2" />
<path d="M6320,1873 L8286,2211" stroke="blue" stroke-width="2" />
<path d="M5974,442 L1355,2746" stroke="blue" stroke-width="2" />
<path d="M2401,1911 L3325,4184" stroke="blue" stroke-width="2" />
<path d="M6213,5315 L6879,4067" stroke="blue" stroke-width="2" />
<path d="M8172,2674 L943,5596" stroke="blue" stroke-width="2" />
<path d="M7841,4031 L2063,753" stroke="blue" stroke-width="2" />
<path d="M2614,2644 L293,1770" stroke="blue" stroke-width="2" />
<path d="M4034,3695 L8663,2112" stroke="blue" stroke-width="2" />
<path d="M436,1696 L7066,4106" stroke="blue" stroke-width="2" />
<path d="M8844,3328 L6405,5357" stroke="blue" stroke-width="2" />
<path d="M909,3734 L3418,527" stroke="blue" stroke-width="2" />
<path d="M5150,2735 L3425,39" stroke="blue" stroke-width="2" />
<path d="M2991,4254 L5301,4203" stroke="blue" stroke-width="2" />
<path d="M8408,5275 L8490,3608" stroke="blue" stroke-width="2" />
<path d="M709,2904 L8094,1730" stroke="blue" stroke-width="2" />
<path d="M6,4315 L6472,1241" stroke="blue" stroke-width="2" />
<path d="M2853,5589 L3158,3260" stroke="blue" stroke-width="2" />
<path d="M4040,3591 L753,3647" stroke="blue" stroke-width="2" />
<path d="M7819,5157 L8237,5282" stroke="blue" stroke-width="2" />
<path d="M6592,1568 L5348,5000" stroke="blue" stroke-width="2" />
<path d="M8254,4336 L985,3561" stroke="blue" stroke-width="2" />
<path d="M7103,2700 L149,1773" stroke="blue" stroke-width="2" />
<path d="M8390,3301 L8635,2957" stroke="blue" stroke-width="2" />
<path d="M518,2386 L2746,3814" stroke="blue" stroke-width="2" />
<path d="M5485,4832 L537,3921" stroke="blue" stroke-width="2" />
<path d="M3017,2090 L5911,3041" stroke="blue" stroke-width="2" />
<path d="M7183,1023 L150,2741" stroke="blue" stroke-width="2" />
<path d="M5380,5442 L7273,2674" stroke="blue" stroke-width="2" />
<path d="M5735,2701 L2800,2872" stroke="blue" stroke-width="2" />
<path d="M3367,5186 L1415,5192" stroke="blue" stroke-width="2" />
<path d="M6435,3301 L1715,4640" stroke="blue" stroke-width="2" />
<path d="M1925,890 L6248,3525" stroke="blue" stroke-width="2" />
<path d="M6168,3463 L7053,5478" stroke="blue" stroke-width="2" />
<path d="M8667,3915 L630,538" stroke="blue" stroke-width="2" />
<path d="M1236,445 L5707,5680" stroke="blue" stroke-width="2" />
<path d="M6948,3428 L8865,136" stroke="blue" stroke-width="2" />
<path d="M5875,4459 L4187,4776" stroke="blue" stroke-width="2" />
<path d="M5083,1143 L4889,2087" stroke="blue" stroke-width="2" />
<path d="M8391,3868 L3319,3728" stroke="blue" stroke-width="2" />
<path d="M7521,5035 L4966,3859" stroke="blue" stroke-width="2" />
<path d="M2543,4435 L2337,3624" stroke="blue" stroke-width="2" />
<path d="M3248,3555 L1678,3204" stroke="blue" stroke-width="2" />
<path d="M7471,182 L2954,4148" stroke="blue" stroke-width="2" />
<path d="M6855,4933 L5551,1492" stroke="blue" stroke-width="2" />
<path d="M1631,3033 L2362,2351" stroke="blue" stroke-width="2" />
<path d="M6266,5397 L921,5643" stroke="blue" stroke-width="2" />
<path d="M1614,2273 L8241,5224" stroke="blue" stroke-width="2" />
<path d="M306,868 L6952,4809" stroke="blue" stroke-width="2" />
<path d="M2081,4464 L5762,5667" stroke="blue" stroke-width="2" />
<path d="M7661,539 L4402,4720" stroke="blue" stroke-width="2" />
<path d="M2560,2197 L5810,47" stroke="blue" stroke-width="2" />
<path d="M1581,2317 L6370,2380" stroke="blue" stroke-width="2" />
<path d="M4032,4804 L5386,3934" stroke="blue" stroke-width="2" />
<path d="M1023,2432 L5499,2803" stroke="blue" stroke-width="2" />
<path d="M1621,4832 L7494,1412" stroke="blue" stroke-width="2" />
<path d="M4674,654 L1292,2087" stroke="blue" stroke-width="2" />
<path d="M8838,2180 L8680,1506" stroke="blue" stroke-width="2" />
<path d="M5750,2265 L1494,386" stroke="blue" stroke-width="2" />
<path d="M2322,4559 L8385,88" stroke="blue" stroke-width="2" />
<path d="M5534,5084 L8358,2981" stroke="blue" stroke-width="2" />
<path d="M2611,2745 L6781,639" stroke="blue" stroke-width="2" />
<path d="M2808,2541 L663,1897" stroke="blue" stroke-width="2" />
<path d="M2213,3331 L4910,5492" stroke="blue" stroke-width="2" />
<path d="M1415,5619 L1446,3333" stroke="blue" stroke-width="2" />
<path d="M5487,3134 L5954,3638" stroke="blue" stroke-width="2" />
<path d="M2735,4526 L7517,940" stroke="blue" stroke-width="2" />
<path d="M8039,3142 L7068,2549" stroke="blue" stroke-width="2" />
<path d="M4216,865 L4752,4382" stroke="blue" stroke-width="2" />
<path d="M2715,2673 L6255,408" stroke="blue" stroke-width="2" />
<path d="M2163,5337 L2735,3795" stroke="blue" stroke-width="2" />
<path d="M1542,1021 L4036,4096" stroke="blue" stroke-width="2" />
<path d="M3320,2215 L6688,2742" stroke="blue" stroke-width="2" />
<path d="M3741,3586 L525,318" stroke="blue" stroke-width="2" />
<path d="M2156,4889 L4843,2565" stroke="blue" stroke-width="2" />
<path d="M4965,1458 L327,5273" stroke="blue" stroke-width="2" />
<path d="M1218,2270 L7383,2079" stroke="blue" stroke-width="2" />
<path d="M2208,2875 L8514,812" stroke="blue" stroke-width="2" />
<path d="M2256,3883 L2051,5156" stroke="blue" stroke-width="2" />
<path d="M3150,5415 L6644,537" stroke="blue" stroke-width="2" />
<path d="M6880,2352 L1849,2546" stroke="blue" stroke-width="2" />
<path d="M276,4184 L1163,1759" stroke="blue" stroke-width="2" />
<path d="M2041,657 L2324,4874" stroke="blue" stroke-width="2" />
<path d="M6384,4707 L1957,3467" stroke="blue" stroke-width="2" />
<path d="M3212,29 L410,1417" stroke="blue" stroke-width="2" />
<path d="M7926,2081 L8574,2323" stroke="blue" stroke-width="2" />
<path d="M3358,5021 L4768,379" stroke="blue" stroke-width="2" />
<path d="M358,4670 L8309,533" stroke="blue" stroke-width="2" />
<path d="M4202,4691 L8224,4346" stroke="blue" stroke-width="2" />
<path d="M0,0 L8866,0" stroke="red" stroke-width="10" />
<path d="M8866,0 L8866,5694" stroke="red" stroke-width="10" />
<path d="M0,5694 L8866,5694" stroke="red" stroke-width="10" />
<path d="M0,5694 L0,0" stroke="red" stroke-width="10" />
</svg>