<?xml version="1.0" encoding="UTF-8"?>
<svg xmlns="http://www.w3.org/2000/svg" xmlns:xlink="http://www.w3.org/1999/xlink"
     width="10000" height="10000" viewBox="0 0 10000 10000">
<defs>
</defs>
<path d="M1661,504 L3727,1762" stroke="blue" stroke-width="2" />
<path d="M190,654 L736,1756" stroke="blue" stroke-width="2" />
<path d="M2889,1258 L1932,989" stroke="blue" stroke-width="2" />
<path d="M1671,323 L3374,1810" stroke="blue" stroke-width="2" />
<path d="M3848,976 L474,334" stroke="blue" stroke-width="2" />
<path d="M2424,1303 L1143,2014" stroke="blue" stroke-width="2" />
<path d="M652,1116 L3732,1523" stroke="blue" stroke-width="2" />
<path d="M3179,1840 L2451,1577" stroke="blue" stroke-width="2" />
<path d="M3395,446 L2384,812" stroke="blue" stroke-width="2" />
<path d="M1758,549 L1161,679" stroke="blue" stroke-width="2" />
<path d="M3633,611 L2393,282" stroke="blue" stroke-width="2" />
<path d="M3090,673 L2730,114" stroke="blue" stroke-width="2" />
<path d="M1134,1328 L2519,1808" stroke="blue" stroke-width="2" />
<path d="M2365,1333 L2466,723" stroke="blue" stroke-width="2" />
<path d="M3422,1767 L2144,889" stroke="blue" stroke-width="2" />
<path d="M694,663 L724,404" stroke="blue" stroke-width="2" />
<path d="M2366,440 L3527,1268" stroke="blue" stroke-width="2" />
<path d="M2484,1725 L317,937" stroke="blue" stroke-width="2" />
<path d="M680,734 L2654,1682" stroke="blue" stroke-width="2" />
<path d="M1416,282 L1809,1328" stroke="blue" stroke-width="2" />
<path d="M2106,729 L721,1287" stroke="blue" stroke-width="2" />
<path d="M1157,565 L2514,1528" stroke="blue" stroke-width="2" />
<path d="M3390,1693 L2423,263" stroke="blue" stroke-width="2" />
<path d="M2790,448 L2533,1098" stroke="blue" stroke-width="2" />
<path d="M677,197 L2843,70" stroke="blue" stroke-width="2" />
<path d="M2358,161 L692,90" stroke="blue" stroke-width="2" />
<path d="M1732,62 L2466,993" stroke="blue" stroke-width="2" />
<path d="M3609,361 L2134,2038" stroke="blue" stroke-width="2" />
<path d="M558,838 L601,1129" stroke="blue" stroke-width="2" />
<path d="M3696,696 L3783,405" stroke="blue" stroke-width="2" />
<path d="M2817,572 L2092,1273" stroke="blue" stroke-width="2" />
<path d="M1198,107 L1555,1716" stroke="blue" stroke-width="2" />
<path d="M1283,1853 L3255,1277" stroke="blue" stroke-width="2" />
<path d="M1958,1638 L3010,348" stroke="blue" stroke-width="2" />
<path d="M560,1002 L1470,264" stroke="blue" stroke-width="2" />
<path d="M2665,1769 L3216,734" stroke="blue" stroke-width="2" />
<path d="M3239,1173 L2999,1069" stroke="blue" stroke-width="2" />
<path d="M3196,588 L1704,786" stroke="blue" stroke-width="2" />
<path d="M1632,771 L1637,1249" stroke="blue" stroke-width="2" />
<path d="M2586,1166 L992,1451" stroke="blue" stroke-width="2" />
<path d="M424,239 L699,1558" stroke="blue" stroke-width="2" />
<path d="M3778,758 L1295,1306" stroke="blue" stroke-width="2" />
<path d="M2149,1266 L3776,1074" stroke="blue" stroke-width="2" />
<path d="M2449,259 L2337,1297" stroke="blue" stroke-width="2" />
<path d="M3617,941 L3622,2026" stroke="blue" stroke-width="2" />
<path d="M11,211 L998,472" stroke="blue" stroke-width="2" />
<path d="M1631,1673 L839,1657" stroke="blue" stroke-width="2" />
<path d="M2179,1168 L1702,1022" stroke="blue" stroke-width="2" />
<path d="M2877,1669 L505,487" stroke="blue" stroke-width="2" />
<path d="M1881,1460 L3835,1881" stroke="blue" stroke-width="2" />
<path d="M228,195 L2762,1050" stroke="blue" stroke-width="2" />
<path d="M986,105 L2351,977" stroke="blue" stroke-width="2" />
<path d="M1161,1885 L3251,1606" stroke="blue" stroke-width="2" />
<path d="M256,115 L519,991" stroke="blue" stroke-width="2" />
<path d="M911,1947 L1150,1344" stroke="blue" stroke-width="2" />
<path d="M1003,818 L2596,406" stroke="blue" stroke-width="2" />
<path d="M1567,1092 L137,1702" stroke="blue" stroke-width="2" />
<path d="M2585,52 L785,371" stroke="blue" stroke-width="2" />
<path d="M1447,1611 L3374,1159" stroke="blue" stroke-width="2" />
<path d="M441,595 L435,903" stroke="blue" stroke-width="2" />
<path d="M2416,1659 L2729,652" stroke="blue" stroke-width="2" />
<path d="M2714,978 L2196,1482" stroke="blue" stroke-width="2" />
<path d="M703,1804 L2124,834" stroke="blue" stroke-width="2" />
<path d="M1999,775 L1609,1471" stroke="blue" stroke-width="2" />
<path d="M3063,325 L77,878" stroke="blue" stroke-width="2" />
<path d="M1678,241 L1628,1218" stroke="blue" stroke-width="2" />
<path d="M2496,1212 L654,1394" stroke="blue" stroke-width="2" />
<path d="M1229,1499 L614,1213" stroke="blue" stroke-width="2" />
<path d="M1061,1628 L2756,1886" stroke="blue" stroke-width="2" />
<path d="M753,1878 L504,451" stroke="blue" stroke-width="2" />
<path d="M3538,776 L3038,228" stroke="blue" stroke-width="2" />
<path d="M2125,1947 L175,705" stroke="blue" stroke-width="2" />
<path d="M3045,983 L1037,1384" stroke="blue" stroke-width="2" />
<path d="M3234,1496 L2149,826" stroke="blue" stroke-width="2" />
<path d="M2655,1574 L1365,1027" stroke="blue" stroke-width="2" />
<path d="M518,259 L1049,5" stroke="blue" stroke-width="2" />
<path d="M3772,778 L2308,126" stroke="blue" stroke-width="2" />
<path d="M2596,1126 L741,1054" stroke="blue" stroke-width="2" />
<path d="M2417,2013 L1450,1951" stroke="blue" stroke-width="2" />
<path d="M965,673 L2189,1641" stroke="blue" stroke-width="2" />
<path d="M1733,230 L3780,395" stroke="blue" stroke-width="2" />
<path d="M143,786 L3901,1819" stroke="blue" stroke-width="2" />
<path d="M2696,1125 L1007,76" stroke="blue" stroke-width="2" />
<path d="M119,1559 L2416,1968" stroke="blue" stroke-width="2" />
<path d="M162,493 L1953,968" stroke="blue" stroke-width="2" />
<path d="M996,576 L1030,483" stroke="blue" stroke-width="2" />
<path d="M1507,997 L2043,1026" stroke="blue" stroke-width="2" />
<path d="M121,615 L965,113" stroke="blue" stroke-width="2" />
<path d="M3227,768 L2582,474" stroke="blue" stroke-width="2" />
<path d="M3013,1850 L1825,14" stroke="blue" stroke-width="2" />
<path d="M821,574 L2548,1549" stroke="blue" stroke-width="2" />
<path d="M3236,1369 L3693,1951" stroke="blue" stroke-width="2" />
<path d="M3500,1240 L535,1943" stroke="blue" stroke-width="2" />
<path d="M1641,1891 L3319,1415" stroke="blue" stroke-width="2" />
<path d="M1386,1792 L1094,2006" stroke="blue" stroke-width="2" />
<path d="M3115,585 L1227,67" stroke="blue" stroke-width="2" />
<path d="M1846,1694 L3638,1880" stroke="blue" stroke-width="2" />
<path d="M3122,453 L2175,1194" stroke="blue" stroke-width="2" />
<path d="M593,34 L3693,1637" stroke="blue" stroke-width="2" />
<path d="M3590,1147 L1575,1370" stroke="blue" stroke-width="2" />
<path d="M3473,1207 L573,720" stroke="blue" stroke-width="2" />
<path d="M3077,1015 L584,685" stroke="blue" stroke-width="2" />
<path d="M3882,200 L3552,1794" stroke="blue" stroke-width="2" />
<path d="M180,1628 L3217,1141" stroke="blue" stroke-width="2" />
<path d="M2701,1475 L2224,1950" stroke="blue" stroke-width="2" />
<path d="M2220,16 L1937,218" stroke="blue" stroke-width="2" />
<path d="M1706,1721 L1686,1731" stroke="blue" stroke-width="2" />
<path d="M876,425 L1304,208" stroke="blue" stroke-width="2" />
<path d="M1000,1866 L3338,1662" stroke="blue" stroke-width="2" />
<path d="M773,1523 L1629,1115" stroke="blue" stroke-width="2" />
<path d="M3638,72 L1843,1284" stroke="blue" stroke-width="2" />
<path d="M675,1546 L661,8" stroke="blue" stroke-width="2" />
<path d="M458,1710 L1679,191" stroke="blue" stroke-width="2" />
<path d="M2491,1450 L485,1586" stroke="blue" stroke-width="2" />
<path d="M3519,44 L81,1671" stroke="blue" stroke-width="2" />
<path d="M742,1285 L2181,1113" stroke="blue" stroke-width="2" />
<path d="M2223,796 L3154,952" stroke="blue" stroke-width="2" />
<path d="M1720,1519 L1937,889" stroke="blue" stroke-width="2" />
<path d="M2368,189 L386,743" stroke="blue" stroke-width="2" />
<path d="M2930,584 L757,511" stroke="blue" stroke-width="2" />
<path d="M3503,1374 L2465,334" stroke="blue" stroke-width="2" />
<path d="M2768,424 L3350,308" stroke="blue" stroke-width="2" />
<path d="M2746,1141 L2243,913" stroke="blue" stroke-width="2" />
<path d="M555,1488 L1553,1352" stroke="blue" stroke-width="2" />
<path d="M246,266 L1232,1676" stroke="blue" stroke-width="2" />
<path d="M2193,1111 L445,733" stroke="blue" stroke-width="2" />
<path d="M2252,410 L1324,1519" stroke="blue" stroke-width="2" />
<path d="M2154,305 L1875,221" stroke="blue" stroke-width="2" />
<path d="M1588,112 L976,1476" stroke="blue" stroke-width="2" />
<path d="M3190,1963 L2713,1288" stroke="blue" stroke-width="2" />
<path d="M2363,1954 L3257,1935" stroke="blue" stroke-width="2" />
<path d="M1828,87 L1533,803" stroke="blue" stroke-width="2" />
<path d="M1498,569 L1959,1013" stroke="blue" stroke-width="2" />
<path d="M3106,1893 L2906,439" stroke="blue" stroke-width="2" />
<path d="M2621,1443 L663,1158" stroke="blue" stroke-width="2" />
<path d="M530,29 L1840,1071" stroke="blue" stroke-width="2" />
<path d="M2652,196 L3261,1787" stroke="blue" stroke-width="2" />
<path d="M1625,845 L2702,1451" stroke="blue" stroke-width="2" />
<path d="M1038,1634 L3796,1370" stroke="blue" stroke-width="2" />
<path d="M1086,1452 L3716,657" stroke="blue" stroke-width="2" />
<path d="M874,274 L3416,1226" stroke="blue" stroke-width="2" />
<path d="M29,257 L3409,1599" stroke="blue" stroke-width="2" />
<path d="M3261,146 L2812,1700" stroke="blue" stroke-width="2" />
<path d="M3313,1565 L3810,1227" stroke="blue" stroke-width="2" />
<path d="M570,1752 L2033,573" stroke="blue" stroke-width="2" />
<path d="M1126,180 L2452,45" stroke="blue" stroke-width="2" />
<path d="M3128,1513 L577,1826" stroke="blue" stroke-width="2" />
<path d="M2866,1069 L617,1844" stroke="blue" stroke-width="2" />
<path d="M2379,1013 L281,388" stroke="blue" stroke-width="2" />
<path d="M3371,1883 L3561,216" stroke="blue" stroke-width="2" />
<path d="M2203,654 L3497,1365" stroke="blue" stroke-width="2" />
<path d="M2187,514 L2218,1712" stroke="blue" stroke-width="2" />
<path d="M3212,288 L166,1220" stroke="blue" stroke-width="2" />
<path d="M225,96 L1056,1050" stroke="blue" stroke-width="2" />
<path d="M2935,1193 L1521,244" stroke="blue" stroke-width="2" />
<path d="M1918,1897 L3319,989" stroke="blue" stroke-width="2" />
<path d="M3742,121 L2145,349" stroke="blue" stroke-width="2" />
<path d="M3215,1189 L3582,661" stroke="blue" stroke-width="2" />
<path d="M2328,765 L2415,521" stroke="blue" stroke-width="2" />
<path d="M1390,1264 L1075,1689" stroke="blue" stroke-width="2" />
<path d="M1423,1015 L689,147" stroke="blue" stroke-width="2" />
<path d="M636,732 L1984,951" stroke="blue" stroke-width="2" />
<path d="M1457,1600 L3900,1323" stroke="blue" stroke-width="2" />
<path d="M1942,1743 L2977,1311" stroke="blue" stroke-width="2" />
<path d="M463,1234 L2857,198" stroke="blue" stroke-width="2" />
<path d="M844,524 L3334,434" stroke="blue" stroke-width="2" />
<path d="M2992,594 L284,50" stroke="blue" stroke-width="2" />
<path d="M991,859 L1256,148" stroke="blue" stroke-width="2" />
<path d="M199,1780 L830,837" stroke="blue" stroke-width="2" />
<path d="M1542,893 L683,1135" stroke="blue" stroke-width="2" />
<path d="M227,944 L29,795" stroke="blue" stroke-width="2" />
<path d="M2774,1560 L1234,991" stroke="blue" stroke-width="2" />
<path d="M588,1494 L3792,329" stroke="blue" stroke-width="2" />
<path d="M1806,991 L472,1951" stroke="blue" stroke-width="2" />
<path d="M1137,407 L115,97" stroke="blue" stroke-width="2" />
<path d="M939,1415 L2989,843" stroke="blue" stroke-width="2" />
<path d="M1885,227 L2404,1251" stroke="blue" stroke-width="2" />
<path d="M2480,1387 L773,1362" stroke="blue" stroke-width="2" />
<path d="M1716,83 L1759,316" stroke="blue" stroke-width="2" />
<path d="M1443,448 L1885,297" stroke="blue" stroke-width="2" />
<path d="M1793,454 L1554,633" stroke="blue" stroke-width="2" />
<path d="M922,652 L859,2006" stroke="blue" stroke-width="2" />
<path d="M498,2033 L3736,783" stroke="blue" stroke-width="2" />
<path d="M2958,1694 L830,2058" stroke="blue" stroke-width="2" />
<path d="M3559,327 L3398,341" stroke="blue" stroke-width="2" />
<path d="M473,1618 L3144,1464" stroke="blue" stroke-width="2" />
<path d="M474,1541 L3042,1214" stroke="blue" stroke-width="2" />
<path d="M2665,1776 L664,966" stroke="blue" stroke-width="2" />
<path d="M3122,1433 L2769,2021" stroke="blue" stroke-width="2" />
<path d="M3111,898 L3104,1907" stroke="blue" stroke-width="2" />
<path d="M955,830 L3415,1899" stroke="blue" stroke-width="2" />
<path d="M1438,1270 L1360,580" stroke="blue" stroke-width="2" />
<path d="M1551,676 L3082,1279" stroke="blue" stroke-width="2" />
<path d="M882,1857 L944,1813" stroke="blue" stroke-width="2" />
<path d="M1024,265 L1576,1437" stroke="blue" stroke-width="2" />
<path d="M20,1920 L2600,1353" stroke="blue" stroke-width="2" />
<path d="M2777,553 L980,1402" stroke="blue" stroke-width="2" />
<path d="M1069,197 L3599,139" stroke="blue" stroke-width="2" />
<path d="M2506,802 L1494,1485" stroke="blue" stroke-width="2" />
<path d="M2314,1993 L1505,1739" stroke="blue" stroke-width="2" />
<path d="M3001,928 L3323,2061" stroke="blue" stroke-width="2" />
<path d="M338,1873 L418,1982" stroke="blue" stroke-width="2" />
<path d="M3385,1659 L744,1751" stroke="blue" stroke-width="2" />
<path d="M3343,329 L1633,18" stroke="blue" stroke-width="2" />
<path d="M1917,1895 L1517,884" stroke="blue" stroke-width="2" />
<path d="M1151,1729 L2938,691" stroke="blue" stroke-width="2" />
<path d="M22,949 L1410,770" stroke="blue" stroke-width="2" />
<path d="M3438,811 L3606,804" stroke="blue" stroke-width="2" />
<path d="M823,1721 L2460,1474" stroke="blue" stroke-width="2" />
<path d="M1720,1586 L480,125" stroke="blue" stroke-width="2" />
<path d="M480,1105 L3047,624" stroke="blue" stroke-width="2" />
<path d="M2075,1906 L3047,192" stroke="blue" stroke-width="2" />
<path d="M71,1182 L2242,35" stroke="blue" stroke-width="2" />
<path d="M2688,1507 L35,984" stroke="blue" stroke-width="2" />
<path d="M1753,207 L3550,1519" stroke="blue" stroke-width="2" />
<path d="M662,1742 L2893,816" stroke="blue" stroke-width="2" />
<path d="M1444,2048 L1832,1505" stroke="blue" stroke-width="2" />
<path d="M1096,436 L3466,2003" stroke="blue" stroke-width="2" />
<path d="M1665,851 L1864,1376" stroke="blue" stroke-width="2" />
<path d="M1119,942 L875,1368" stroke="blue" stroke-width="2" />
<path d="M3595,2050 L700,1387" stroke="blue" stroke-width="2" />
<path d="M1345,505 L273,1499" stroke="blue" stroke-width="2" />
<path d="M2701,1547 L1381,1838" stroke="blue" stroke-width="2" />
<path d="M2244,1926 L465,1406" stroke="blue" stroke-width="2" />
<path d="M313,1909 L2822,2048" stroke="blue" stroke-width="2" />
<path d="M3377,799 L1268,91" stroke="blue" stroke-width="2" />
<path d="M1602,1840 L2559,470" stroke="blue" stroke-width="2" />
<path d="M1238,1041 L3833,1851" stroke="blue" stroke-width="2" />
<path d="M1418,590 L1468,1152" stroke="blue" stroke-width="2" />
<path d="M1693,2042 L490,879" stroke="blue" stroke-width="2" />
<path d="M3855,2006 L527,1953" stroke="blue" stroke-width="2" />
<path d="M1277,1584 L404,1020" stroke="blue" stroke-width="2" />
<path d="M1701,952 L1043,1569" stroke="blue" stroke-width="2" />
<path d="M1437,1964 L1592,1342" stroke="blue" stroke-width="2" />
<path d="M1898,1439 L48,319" stroke="blue" stroke-width="2" />
<path d="M3826,219 L1371,2004" stroke="blue" stroke-width="2" />
<path d="M2968,1267 L1028,925" stroke="blue" stroke-width="2" />
<path d="M1956,738 L2609,886" stroke="blue" stroke-width="2" />
<path d="M1801,1791 L1834,1265" stroke="blue" stroke-width="2" />
<path d="M8,899 L2620,454" stroke="blue" stroke-width="2" />
<path d="M1864,68 L3494,262" stroke="blue" stroke-width="2" />
<path d="M697,1992 L3525,846" stroke="blue" stroke-width="2" />
<path d="M1460,2050 L682,2027" stroke="blue" stroke-width="2" />
<path d="M2234,610 L360,1834" stroke="blue" stroke-width="2" />
<path d="M3105,1285 L2054,404" stroke="blue" stroke-width="2" />
<path d="M695,1911 L3819,309" stroke="blue" stroke-width="2" />
<path d="M275,324 L2069,1668" stroke="blue" stroke-width="2" />
<path d="M879,1374 L52,1329" stroke="blue" stroke-width="2" />
<path d="M2175,198 L2353,1427" stroke="blue" stroke-width="2" />
<path d="M1815,897 L3416,587" stroke="blue" stroke-width="2" />
<path d="M3504,913 L1329,1868" stroke="blue" stroke-width="2" />
<path d="M1621,442 L2217,510" stroke="blue" stroke-width="2" />
<path d="M909,478 L3428,1259" stroke="blue" stroke-width="2" />
<path d="M1782,1924 L2948,1163" stroke="blue" stroke-width="2" />
<path d="M2595,10 L2241,1611" stroke="blue" stroke-width="2" />
<path d="M3017,869 L3473,1722" stroke="blue" stroke-width="2" />
<path d="M299,432 L1181,1994" stroke="blue" stroke-width="2" />
<path d="M970,493 L460,676" stroke="blue" stroke-width="2" />
<path d="M3559,1786 L2564,541" stroke="blue" stroke-width="2" />
<path d="M2852,436 L3575,1652" stroke="blue" stroke-width="2" />
<path d="M2927,228 L1613,164" stroke="blue" stroke-width="2" />
<path d="M598,1078 L2083,616" stroke="blue" stroke-width="2" />
<path d="M1543,96 L527,842" stroke="blue" stroke-width="2" />
<path d="M1271,611 L2548,66" stroke="blue" stroke-width="2" />
<path d="M2925,1273 L1546,865" stroke="blue" stroke-width="2" />
<path d="M747,129 L2816,1980" stroke="blue" stroke-width="2" />
<path d="M820,369 L204,1543" stroke="blue" stroke-width="2" />
<path d="M1129,1108 L3036,1228" stroke="blue" stroke-width="2" />
<path d="M3582,1099 L3400,1323" stroke="blue" stroke-width="2" />
<path d="M3449,568 L2364,1280" stroke="blue" stroke-width="2" />
<path d="M173,1518 L3678,143" stroke="blue" stroke-width="2" />
<path d="M1061,90 L3048,150" stroke="blue" stroke-width="2" />
<path d="M2182,2043 L3299,2044" stroke="blue" stroke-width="2" />
<path d="M2079,308 L3898,1453" stroke="blue" stroke-width="2" />
<path d="M51,546 L3502,797" stroke="blue" stroke-width="2" />
<path d="M1234,1299 L2247,1058" stroke="blue" stroke-width="2" />
<path d="M1670,1945 L3752,1692" stroke="blue" stroke-width="2" />
<path d="M2716,1715 L509,1963" stroke="blue" stroke-width="2" />
<path d="M2573,842 L2190,1753" stroke="blue" stroke-width="2" />
<path d="M2170,349 L2867,1102" stroke="blue" stroke-width="2" />
<path d="M1120,549 L1807,1817" stroke="blue" stroke-width="2" />
<path d="M3551,451 L2965,1004" stroke="blue" stroke-width="2" />
<path d="M907,756 L1023,750" stroke="blue" stroke-width="2" />
<path d="M2830,796 L2266,1610" stroke="blue" stroke-width="2" />
<path d="M2071,323 L1384,208" stroke="blue" stroke-width="2" />
<path d="M503,1994 L1221,1876" stroke="blue" stroke-width="2" />
<path d="M917,1549 L1919,132" stroke="blue" stroke-width="2" />
<path d="M708,1847 L2982,1419" stroke="blue" stroke-width="2" />
<path d="M2043,1859 L1242,856" stroke="blue" stroke-width="2" />
<path d="M1302,1748 L364,783" stroke="blue" stroke-width="2" />
<path d="M85,357 L2945,537" stroke="blue" stroke-width="2" />
<path d="M3213,986 L948,103" stroke="blue" stroke-width="2" />
<path d="M2612,1666 L2955,2051" stroke="blue" stroke-width="2" />
<path d="M934,357 L256,1396" stroke="blue" stroke-width="2" />
<path d="M3859,1504 L1221,292" stroke="blue" stroke-width="2" />
<path d="M610,2019 L3569,971" stroke="blue" stroke-width="2" />
<path d="M3217,664 L259,969" stroke="blue" stroke-width="2" />
<path d="M3186,403 L660,675" stroke="blue" stroke-width="2" />
<path d="M557,55 L1868,1711" stroke="blue" stroke-width="2" />
<path d="M2282,1558 L3766,415" stroke="blue" stroke-width="2" />
<path d="M3004,1888 L89,867" stroke="blue" stroke-width="2" />
<path d="M394,184 L1136,1315" stroke="blue" stroke-width="2" />
<path d="M1036,979 L3884,1301" stroke="blue" stroke-width="2" />
<path d="M1833,1726 L3855,168" stroke="blue" stroke-width="2" />
<path d="M756,1392 L2234,1790" stroke="blue" stroke-width="2" />
<path d="M3527,16 L1481,1837" stroke="blue" stroke-width="2" />
<path d="M1122,1947 L1055,1782" stroke="blue" stroke-width="2" />
<path d="M9,617 L1967,1872" stroke="blue" stroke-width="2" />
<path d="M77,422 L327,667" stroke="blue" stroke-width="2" />
<path d="M2307,1175 L2522,1244" stroke="blue" stroke-width="2" />
<path d="M2476,766 L1608,1212" stroke="blue" stroke-width="2" />
<path d="M2132,1000 L1921,579" stroke="blue" stroke-width="2" />
<path d="M3290,282 L3236,243" stroke="blue" stroke-width="2" />
<path d="M785,1147 L2955,419" stroke="blue" stroke-width="2" />
<path d="M3366,1663 L788,701" stroke="blue" stroke-width="2" />
<path d="M1552,1910 L1037,46" stroke="blue" stroke-width="2" />
<path d="M477,1455 L1310,1214" stroke="blue" stroke-width="2" />
<path d="M1866,1538 L1612,1571" stroke="blue" stroke-width="2" />
<path d="M2560,110 L3541,538" stroke="blue" stroke-width="2" />
<path d="M1355,1062 L1290,896" stroke="blue" stroke-width="2" />
<path d="M2893,312 L2032,1302" stroke="blue" stroke-width="2" />
<path d="M2361,405 L2438,1725" stroke="blue" stroke-width="2" />
<path d="M1659,136 L555,942" stroke="blue" stroke-width="2" />
<path d="M353,1226 L566,75" stroke="blue" stroke-width="2" />
<path d="M3692,248 L2314,607" stroke="blue" stroke-width="2" />
<path d="M843,84 L616,503" stroke="blue" stroke-width="2" />
<path d="M2024,618 L778,988" stroke="blue" stroke-width="2" />
<path d="M1847,214 L3816,291" stroke="blue" stroke-width="2" />
<path d="M2676,1609 L1453,1345" stroke="blue" stroke-width="2" />
<path d="M208,328 L3312,1998" stroke="blue" stroke-width="2" />
<path d="M3148,689 L591,1980" stroke="blue" stroke-width="2" />
<path d="M3729,1159 L2002,400" stroke="blue" stroke-width="2" />
<path d="M907,964 L2059,1489" stroke="blue" stroke-width="2" />
<path d="M3876,469 L1923,504" stroke="blue" stroke-width="2" />
<path d="M2182,677 L1396,962" stroke="blue" stroke-width="2" />
<path d="M1753,837 L564,1826" stroke="blue" stroke-width="2" />
<path d="M1581,1511 L571,1108" stroke="blue" stroke-width="2" />
<path d="M3857,358 L2272,2029" stroke="blue" stroke-width="2" />
<path d="M812,347 L3334,144" stroke="blue" stroke-width="2" />
<path d="M975,388 L1607,1344" stroke="blue" stroke-width="2" />
<path d="M3041,1270 L93,1518" stroke="blue" stroke-width="2" />
<path d="M921,1650 L12,16" stroke="blue" stroke-width="2" />
<path d="M2642,692 L2133,950" stroke="blue" stroke-width="2" />
<path d="M432,1996 L584,815" stroke="blue" stroke-width="2" />
<path d="M926,773 L1230,677" stroke="blue" stroke-width="2" />
<path d="M3643,1729 L284,1104" stroke="blue" stroke-width="2" />
<path d="M3806,369 L714,1298" stroke="blue" stroke-width="2" />
<path d="M84,1867 L487,866" stroke="blue" stroke-width="2" />
<path d="M547,68 L1679,1101" stroke="blue" stroke-width="2" />
<path d="M602,325 L2673,1610" stroke="blue" stroke-width="2" />
<path d="M1976,128 L2722,1623" stroke="blue" stroke-width="2" />
<path d="M2503,1749 L836,454" stroke="blue" stroke-width="2" />
<path d="M576,2043 L1911,1685" stroke="blue" stroke-width="2" />
<path d="M1210,831 L3872,1765" stroke="blue" stroke-width="2" />
<path d="M1265,1148 L1633,1334" stroke="blue" stroke-width="2" />
<path d="M2087,772 L1916,248" stroke="blue" stroke-width="2" />
<path d="M3747,575 L3856,1281" stroke="blue" stroke-width="2" />
<path d="M21,68 L260,1746" stroke="blue" stroke-width="2" />
<path d="M3539,527 L2819,842" stroke="blue" stroke-width="2" />
<path d="M2815,331 L2912,1548" stroke="blue" stroke-width="2" />
<path d="M563,920 L1303,49" stroke="blue" stroke-width="2" />
<path d="M2764,870 L3275,1878" stroke="blue" stroke-width="2" />
<path d="M2670,929 L2774,164" stroke="blue" stroke-width="2" />
<path d="M2180,1927 L2685,712" stroke="blue" stroke-width="2" />
<path d="M1289,1537 L2128,1323" stroke="blue" stroke-width="2" />
<path d="M2931,2011 L1602,1723" stroke="blue" stroke-width="2" />
<path d="M349,960 L1777,1420" stroke="blue" stroke-width="2" />
<path d="M1178,482 L338,1863" stroke="blue" stroke-width="2" />
<path d="M700,1316 L3514,720" stroke="blue" stroke-width="2" />
<path d="M1353,1469 L1813,1721" stroke="blue" stroke-width="2" />
<path d="M392,1493 L698,1332" stroke="blue" stroke-width="2" />
<path d="M2031,1532 L2424,1889" stroke="blue" stroke-width="2" />
<path d="M1728,63 L1743,1827" stroke="blue" stroke-width="2" />
<path d="M1434,1173 L2554,1127" stroke="blue" stroke-width="2" />
<path d="M1010,1811 L2168,1494" stroke="blue" stroke-width="2" />
<path d="M2337,841 L3544,1677" stroke="blue" stroke-width="2" />
<path d="M3166,721 L2420,1525" stroke="blue" stroke-width="2" />
<path d="M1483,1644 L30,813" stroke="blue" stroke-width="2" />
<path d="M15,1782 L3144,1229" stroke="blue" stroke-width="2" />
<path d="M3659,62 L3639,952" stroke="blue" stroke-width="2" />
<path d="M3849,1458 L254,736" stroke="blue" stroke-width="2" />
<path d="M651,1416 L2026,1928" stroke="blue" stroke-width="2" />
<path d="M2394,2001 L518,1818" stroke="blue" stroke-width="2" />
<path d="M644,198 L3737,986" stroke="blue" stroke-width="2" />
<path d="M2134,1034 L1684,1329" stroke="blue" stroke-width="2" />
<path d="M1928,1004 L3030,1412" stroke="blue" stroke-width="2" />
<path d="M1589,1414 L1015,668" stroke="blue" stroke-width="2" />
<path d="M445,1674 L870,705" stroke="blue" stroke-width="2" />
<path d="M1028,1768 L2306,1118" stroke="blue" stroke-width="2" />
<path d="M691,167 L3825,1290" stroke="blue" stroke-width="2" />
<path d="M3128,332 L3014,1729" stroke="blue" stroke-width="2" />
<path d="M2874,1187 L1531,1394" stroke="blue" stroke-width="2" />
<path d="M3329,12 L2918,603" stroke="blue" stroke-width="2" />
<path d="M2772,2055 L637,1883" stroke="blue" stroke-width="2" />
<path d="M2965,1860 L3836,822" stroke="blue" stroke-width="2" />
<path d="M561,1758 L153,1293" stroke="blue" stroke-width="2" />
<path d="M1128,504 L647,752" stroke="blue" stroke-width="2" />
<path d="M2603,1605 L2145,323" stroke="blue" stroke-width="2" />
<path d="M1009,1887 L1926,1305" stroke="blue" stroke-width="2" />
<path d="M539,192 L1688,645" stroke="blue" stroke-width="2" />
<path d="M1757,505 L3515,1582" stroke="blue" stroke-width="2" />
<path d="M2294,557 L1767,1664" stroke="blue" stroke-width="2" />
<path d="M2945,285 L3242,1500" stroke="blue" stroke-width="2" />
<path d="M387,133 L264,398" stroke="blue" stroke-width="2" />
<path d="M401,292 L1707,1007" stroke="blue" stroke-width="2" />
<path d="M1482,941 L3399,731" stroke="blue" stroke-width="2" />
<path d="M1283,1780 L801,1208" stroke="blue" stroke-width="2" />
<path d="M1703,293 L3323,4" stroke="blue" stroke-width="2" />
<path d="M1331,2011 L155,1396" stroke="blue" stroke-width="2" />
<path d="M3679,635 L1237,1428" stroke="blue" stroke-width="2" />
<path d="M3394,1518 L346,1996" stroke="blue" stroke-width="2" />
<path d="M1007,295 L2561,658" stroke="blue" stroke-width="2" />
<path d="M3808,57 L858,120" stroke="blue" stroke-width="2" />
<path d="M2473,1776 L3844,1754" stroke="blue" stroke-width="2" />
<path d="M1927,386 L507,1460" stroke="blue" stroke-width="2" />
<path d="M2377,1701 L3348,1020" stroke="blue" stroke-width="2" />
<path d="M1665,1382 L3778,1538" stroke="blue" stroke-width="2" />
<path d="M1568,1815 L2154,546" stroke="blue" stroke-width="2" />
<path d="M2405,1616 L1383,115" stroke="blue" stroke-width="2" />
<path d="M114,1523 L2371,570" stroke="blue" stroke-width="2" />
<path d="M3112,1791 L1658,695" stroke="blue" stroke-width="2" />
<path d="M3607,63 L494,140" stroke="blue" stroke-width="2" />
<path d="M3755,942 L2756,343" stroke="blue" stroke-width="2" />
<path d="M3045,1666 L3784,1811" stroke="blue" stroke-width="2" />
<path d="M331,536 L3061,459" stroke="blue" stroke-width="2" />
<path d="M2064,957 L3620,237" stroke="blue" stroke-width="2" />
<path d="M604,1529 L1686,2015" stroke="blue" stroke-width="2" />
<path d="M3459,1212 L979,735" stroke="blue" stroke-width="2" />
<path d="M2897,1304 L2673,1566" stroke="blue" stroke-width="2" />
<path d="M584,1393 L1112,412" stroke="blue" stroke-width="2" />
<path d="M2620,1347 L2864,342" stroke="blue" stroke-width="2" />
<path d="M3631,1817 L3450,402" stroke="blue" stroke-width="2" />
<path d="M1285,1787 L3686,1616" stroke="blue" stroke-width="2" />
<path d="M3532,750 L200,870" stroke="blue" stroke-width="2" />
<path d="M2913,1875 L3261,582" stroke="blue" stroke-width="2" />
<path d="M2467,366 L2148,1164" stroke="blue" stroke-width="2" />
<path d="M1087,1815 L3353,328" stroke="blue" stroke-width="2" />
<path d="M662,330 L309,1810" stroke="blue" stroke-width="2" />
<path d="M3412,991 L3096,130" stroke="blue" stroke-width="2" />
<path d="M791,1661 L3237,2003" stroke="blue" stroke-width="2" />
<path d="M782,721 L646,1239" stroke="blue" stroke-width="2" />
<path d="M3852,805 L3042,580" stroke="blue" stroke-width="2" />
<path d="M0,0 L3904,0" stroke="red" stroke-width="10" />
<path d="M3904,0 L3904,2066" stroke="red" stroke-width="10" />
<path d="M0,2066 L3904,2066" stroke="red" stroke-width="10" />
<path d="M0,2066 L0,0" stroke="red" stroke-width="10" />
</svg>