<?xml version="1.0" encoding="UTF-8"?>
<svg xmlns="http://www.w3.org/2000/svg" xmlns:xlink="http://www.w3.org/1999/xlink"
     width="10000" height="10000" viewBox="0 0 10000 10000">
<defs>
</defs>
<path d="M2653,3320 L1993,1366" stroke="blue" stroke-width="2" />
<path d="M38,3648 L1127,3386" stroke="blue" stroke-width="2" />
<path d="M830,2718 L2174,1157" stroke="blue" stroke-width="2" />
<path d="M721,3999 L1090,2230" stroke="blue" stroke-width="2" />
<path d="M186,2877 L241,4042" stroke="blue" stroke-width="2" />
<path d="M800,1324 L166,2902" stroke="blue" stroke-width="2" />
<path d="M1810,1672 L1337,2266" stroke="blue" stroke-width="2" />
<path d="M2907,464 L2084,4059" stroke="blue" stroke-width="2" />
<path d="M386,720 L2447,1878" stroke="blue" stroke-width="2" />
<path d="M1581,1260 L705,2947" stroke="blue" stroke-width="2" />
<path d="M1079,289 L1012,3344" stroke="blue" stroke-width="2" />
<path d="M2824,2070 L503,2130" stroke="blue" stroke-width="2" />
<path d="M1121,2464 L236,3097" stroke="blue" stroke-width="2" />
<path d="M693,2959 L353,3643" stroke="blue" stroke-width="2" />
<path d="M2730,178 L467,2499" stroke="blue" stroke-width="2" />
<path d="M203,2185 L2580,3364" stroke="blue" stroke-width="2" />
<path d="M1888,3085 L1780,3485" stroke="blue" stroke-width="2" />
<path d="M521,611 L107,1225" stroke="blue" stroke-width="2" />
<path d="M2416,645 L1455,2165" stroke="blue" stroke-width="2" />
<path d="M217,820 L1249,2511" stroke="blue" stroke-width="2" />
<path d="M2502,1283 L414,3480" stroke="blue" stroke-width="2" />
<path d="M2231,3367 L94,2209" stroke="blue" stroke-width="2" />
<path d="M1523,612 L156,3799" stroke="blue" stroke-width="2" />
<path d="M2325,1354 L2857,2454" stroke="blue" stroke-width="2" />
<path d="M2766,1630 L1256,543" stroke="blue" stroke-width="2" />
<path d="M1855,1577 L1125,1698" stroke="blue" stroke-width="2" />
<path d="M2332,950 L598,228" stroke="blue" stroke-width="2" />
<path d="M2869,464 L1913,107" stroke="blue" stroke-width="2" />
<path d="M230,2369 L2824,3452" stroke="blue" stroke-width="2" />
<path d="M2501,1236 L1221,2139" stroke="blue" stroke-width="2" />
<path d="M2284,3771 L2148,3769" stroke="blue" stroke-width="2" />
<path d="M2834,4100 L2056,861" stroke="blue" stroke-width="2" />
<path d="M1843,1846 L1980,1865" stroke="blue" stroke-width="2" />
<path d="M2893,3486 L270,2958" stroke="blue" stroke-width="2" />
<path d="M2683,2115 L2843,3914" stroke="blue" stroke-width="2" />
<path d="M1435,1145 L528,1976" stroke="blue" stroke-width="2" />
<path d="M768,128 L657,3225" stroke="blue" stroke-width="2" />
<path d="M1292,672 L1267,2179" stroke="blue" stroke-width="2" />
<path d="M1000,2843 L2488,1743" stroke="blue" stroke-width="2" />
<path d="M2967,3727 L2961,2788" stroke="blue" stroke-width="2" />
<path d="M131,3362 L988,1621" stroke="blue" stroke-width="2" />
<path d="M2249,1769 L2706,3304" stroke="blue" stroke-width="2" />
<path d="M2512,844 L2095,1818" stroke="blue" stroke-width="2" />
<path d="M749,3886 L2423,3941" stroke="blue" stroke-width="2" />
<path d="M2857,153 L1613,3211" stroke="blue" stroke-width="2" />
<path d="M2856,3554 L1747,350" stroke="blue" stroke-width="2" />
<path d="M928,1225 L2034,3551" stroke="blue" stroke-width="2" />
<path d="M787,3440 L9,3781" stroke="blue" stroke-width="2" />
<path d="M202,2723 L1879,2454" stroke="blue" stroke-width="2" />
<path d="M2525,1187 L739,608" stroke="blue" stroke-width="2" />
<path d="M1244,2023 L1989,1388" stroke="blue" stroke-width="2" />
<path d="M342,1586 L231,1854" stroke="blue" stroke-width="2" />
<path d="M2106,3421 L915,628" stroke="blue" stroke-width="2" />
<path d="M1593,4059 L430,2122" stroke="blue" stroke-width="2" />
<path d="M1680,973 L1563,2864" stroke="blue" stroke-width="2" />
<path d="M1123,2267 L318,4051" stroke="blue" stroke-width="2" />
<path d="M2252,2314 L2260,2269" stroke="blue" stroke-width="2" />
<path d="M960,1636 L31,1483" stroke="blue" stroke-width="2" />
<path d="M405,2527 L97,3864" stroke="blue" stroke-width="2" />
<path d="M287,881 L269,1029" stroke="blue" stroke-width="2" />
<path d="M1857,3513 L2516,949" stroke="blue" stroke-width="2" />
<path d="M1772,256 L402,1157" stroke="blue" stroke-width="2" />
<path d="M152,62 L220,3900" stroke="blue" stroke-width="2" />
<path d="M1507,3492 L1598,2233" stroke="blue" stroke-width="2" />
<path d="M871,3587 L2388,1197" stroke="blue" stroke-width="2" />
<path d="M1200,3316 L2556,2061" stroke="blue" stroke-width="2" />
<path d="M2393,2736 L1657,2461" stroke="blue" stroke-width="2" />
<path d="M1444,693 L1306,4088" stroke="blue" stroke-width="2" />
<path d="M2757,3453 L1378,3451" stroke="blue" stroke-width="2" />
<path d="M1952,3559 L1189,395" stroke="blue" stroke-width="2" />
<path d="M1515,634 L3006,1981" stroke="blue" stroke-width="2" />
<path d="M2902,1373 L302,255" stroke="blue" stroke-width="2" />
<path d="M860,3878 L2496,1008" stroke="blue" stroke-width="2" />
<path d="M2075,580 L2036,808" stroke="blue" stroke-width="2" />
<path d="M650,571 L1153,279" stroke="blue" stroke-width="2" />
<path d="M2236,1641 L865,3429" stroke="blue" stroke-width="2" />
<path d="M2449,1670 L1959,2926" stroke="blue" stroke-width="2" />
<path d="M2531,3955 L11,732" stroke="blue" stroke-width="2" />
<path d="M1825,2932 L3019,373" stroke="blue" stroke-width="2" />
<path d="M1173,3944 L2535,2049" stroke="blue" stroke-width="2" />
<path d="M2720,1340 L656,692" stroke="blue" stroke-width="2" />
<path d="M1383,145 L35,2914" stroke="blue" stroke-width="2" />
<path d="M2979,446 L2294,3945" stroke="blue" stroke-width="2" />
<path d="M291,3076 L1346,2865" stroke="blue" stroke-width="2" />
<path d="M2654,3937 L1463,2730" stroke="blue" stroke-width="2" />
<path d="M1135,1328 L2044,1604" stroke="blue" stroke-width="2" />
<path d="M311,2795 L472,1697" stroke="blue" stroke-width="2" />
<path d="M2341,230 L439,538" stroke="blue" stroke-width="2" />
<path d="M2736,47 L2794,302" stroke="blue" stroke-width="2" />
<path d="M1834,3410 L1423,4093" stroke="blue" stroke-width="2" />
<path d="M2504,2743 L517,2400" stroke="blue" stroke-width="2" />
<path d="M2849,419 L2213,2178" stroke="blue" stroke-width="2" />
<path d="M2894,746 L492,3284" stroke="blue" stroke-width="2" />
<path d="M740,2831 L329,69" stroke="blue" stroke-width="2" />
<path d="M2140,3654 L2524,3707" stroke="blue" stroke-width="2" />
<path d="M2191,2795 L1261,84" stroke="blue" stroke-width="2" />
<path d="M573,664 L2189,802" stroke="blue" stroke-width="2" />
<path d="M292,2729 L2022,1488" stroke="blue" stroke-width="2" />
<path d="M69,1961 L898,1522" stroke="blue" stroke-width="2" />
<path d="M1618,160 L2655,2967" stroke="blue" stroke-width="2" />
<path d="M901,56 L527,1038" stroke="blue" stroke-width="2" />
<path d="M1050,3671 L1201,1250" stroke="blue" stroke-width="2" />
<path d="M2891,2846 L1658,2622" stroke="blue" stroke-width="2" />
<path d="M2241,2644 L1436,1546" stroke="blue" stroke-width="2" />
<path d="M2154,4030 L1160,3274" stroke="blue" stroke-width="2" />
<path d="M241,7 L2447,1637" stroke="blue" stroke-width="2" />
<path d="M586,2478 L525,3943" stroke="blue" stroke-width="2" />
<path d="M2515,3777 L2551,3283" stroke="blue" stroke-width="2" />
<path d="M869,2333 L2175,3804" stroke="blue" stroke-width="2" />
<path d="M2447,2188 L1895,3162" stroke="blue" stroke-width="2" />
<path d="M2788,621 L564,2375" stroke="blue" stroke-width="2" />
<path d="M1658,930 L1879,3145" stroke="blue" stroke-width="2" />
<path d="M1386,2610 L2697,943" stroke="blue" stroke-width="2" />
<path d="M415,2729 L581,6" stroke="blue" stroke-width="2" />
<path d="M482,2517 L2237,738" stroke="blue" stroke-width="2" />
<path d="M1908,1219 L709,995" stroke="blue" stroke-width="2" />
<path d="M2764,565 L2893,3306" stroke="blue" stroke-width="2" />
<path d="M1803,3876 L967,3010" stroke="blue" stroke-width="2" />
<path d="M2403,3568 L981,2134" stroke="blue" stroke-width="2" />
<path d="M2752,479 L2918,573" stroke="blue" stroke-width="2" />
<path d="M1373,3348 L1034,2549" stroke="blue" stroke-width="2" />
<path d="M8,3858 L2499,3507" stroke="blue" stroke-width="2" />
<path d="M2336,2149 L1401,2579" stroke="blue" stroke-width="2" />
<path d="M2067,3783 L758,1494" stroke="blue" stroke-width="2" />
<path d="M2588,2934 L2704,666" stroke="blue" stroke-width="2" />
<path d="M1359,2749 L338,4169" stroke="blue" stroke-width="2" />
<path d="M525,462 L1569,3172" stroke="blue" stroke-width="2" />
<path d="M1550,13 L2154,187" stroke="blue" stroke-width="2" />
<path d="M1246,2536 L1903,81" stroke="blue" stroke-width="2" />
<path d="M851,1651 L268,1123" stroke="blue" stroke-width="2" />
<path d="M1644,4192 L592,1453" stroke="blue" stroke-width="2" />
<path d="M1446,3606 L1398,1621" stroke="blue" stroke-width="2" />
<path d="M947,2574 L322,2012" stroke="blue" stroke-width="2" />
<path d="M2535,3091 L206,999" stroke="blue" stroke-width="2" />
<path d="M2035,4087 L957,870" stroke="blue" stroke-width="2" />
<path d="M986,3469 L754,1033" stroke="blue" stroke-width="2" />
<path d="M753,485 L1642,1986" stroke="blue" stroke-width="2" />
<path d="M136,2337 L2508,1327" stroke="blue" stroke-width="2" />
<path d="M269,292 L2125,1086" stroke="blue" stroke-width="2" />
<path d="M2363,1000 L1803,283" stroke="blue" stroke-width="2" />
<path d="M1137,824 L208,1205" stroke="blue" stroke-width="2" />
<path d="M902,3341 L865,86" stroke="blue" stroke-width="2" />
<path d="M2138,855 L299,77" stroke="blue" stroke-width="2" />
<path d="M1415,771 L2290,2493" stroke="blue" stroke-width="2" />
<path d="M316,339 L1988,753" stroke="blue" stroke-width="2" />
<path d="M1640,3138 L1544,551" stroke="blue" stroke-width="2" />
<path d="M1744,2151 L811,390" stroke="blue" stroke-width="2" />
<path d="M1610,63 L130,1871" stroke="blue" stroke-width="2" />
<path d="M306,2637 L408,3001" stroke="blue" stroke-width="2" />
<path d="M2515,1374 L2758,611" stroke="blue" stroke-width="2" />
<path d="M1721,4002 L817,3098" stroke="blue" stroke-width="2" />
<path d="M1847,743 L2060,1295" stroke="blue" stroke-width="2" />
<path d="M989,2069 L306,2824" stroke="blue" stroke-width="2" />
<path d="M919,1685 L2498,837" stroke="blue" stroke-width="2" />
<path d="M1925,480 L2923,2619" stroke="blue" stroke-width="2" />
<path d="M1470,283 L2411,3196" stroke="blue" stroke-width="2" />
<path d="M752,3284 L1360,552" stroke="blue" stroke-width="2" />
<path d="M1396,2755 L1565,929" stroke="blue" stroke-width="2" />
<path d="M935,447 L2274,738" stroke="blue" stroke-width="2" />
<path d="M150,2687 L144,1292" stroke="blue" stroke-width="2" />
<path d="M1979,1862 L2700,3287" stroke="blue" stroke-width="2" />
<path d="M2921,3019 L2311,1116" stroke="blue" stroke-width="2" />
<path d="M1266,3168 L877,3592" stroke="blue" stroke-width="2" />
<path d="M1907,1943 L598,3285" stroke="blue" stroke-width="2" />
<path d="M1916,3602 L2261,185" stroke="blue" stroke-width="2" />
<path d="M739,3583 L2444,577" stroke="blue" stroke-width="2" />
<path d="M615,2447 L1982,2845" stroke="blue" stroke-width="2" />
<path d="M2640,3971 L1954,2616" stroke="blue" stroke-width="2" />
<path d="M658,3401 L989,1184" stroke="blue" stroke-width="2" />
<path d="M522,2315 L1081,299" stroke="blue" stroke-width="2" />
<path d="M182,2950 L1822,2343" stroke="blue" stroke-width="2" />
<path d="M222,3203 L174,438" stroke="blue" stroke-width="2" />
<path d="M2295,877 L416,4172" stroke="blue" stroke-width="2" />
<path d="M144,2731 L690,3740" stroke="blue" stroke-width="2" />
<path d="M1259,1948 L2149,3046" stroke="blue" stroke-width="2" />
<path d="M1599,139 L1743,214" stroke="blue" stroke-width="2" />
<path d="M1108,44 L2452,795" stroke="blue" stroke-width="2" />
<path d="M2210,479 L2002,3215" stroke="blue" stroke-width="2" />
<path d="M824,1080 L2141,3373" stroke="blue" stroke-width="2" />
<path d="M1539,1246 L1285,3709" stroke="blue" stroke-width="2" />
<path d="M1477,1427 L1801,4028" stroke="blue" stroke-width="2" />
<path d="M2324,3694 L2533,3431" stroke="blue" stroke-width="2" />
<path d="M2085,1534 L807,2340" stroke="blue" stroke-width="2" />
<path d="M1335,737 L1518,2893" stroke="blue" stroke-width="2" />
<path d="M1313,810 L1205,2091" stroke="blue" stroke-width="2" />
<path d="M951,2396 L183,1155" stroke="blue" stroke-width="2" />
<path d="M251,2508 L2895,1940" stroke="blue" stroke-width="2" />
<path d="M2306,1908 L547,2249" stroke="blue" stroke-width="2" />
<path d="M434,1846 L2695,124" stroke="blue" stroke-width="2" />
<path d="M653,3049 L1946,1949" stroke="blue" stroke-width="2" />
<path d="M1430,4062 L1564,3290" stroke="blue" stroke-width="2" />
<path d="M2344,1148 L1236,2419" stroke="blue" stroke-width="2" />
<path d="M2437,2922 L1486,1689" stroke="blue" stroke-width="2" />
<path d="M589,1491 L2679,2565" stroke="blue" stroke-width="2" />
<path d="M1341,629 L266,116" stroke="blue" stroke-width="2" />
<path d="M1993,1894 L2095,30" stroke="blue" stroke-width="2" />
<path d="M2587,3075 L939,1009" stroke="blue" stroke-width="2" />
<path d="M726,345 L2098,1403" stroke="blue" stroke-width="2" />
<path d="M344,2312 L1643,3768" stroke="blue" stroke-width="2" />
<path d="M1245,1623 L2981,347" stroke="blue" stroke-width="2" />
<path d="M1353,1843 L1963,2915" stroke="blue" stroke-width="2" />
<path d="M2795,926 L106,973" stroke="blue" stroke-width="2" />
<path d="M2869,3163 L1386,1776" stroke="blue" stroke-width="2" />
<path d="M160,211 L2753,1639" stroke="blue" stroke-width="2" />
<path d="M1856,2884 L811,4067" stroke="blue" stroke-width="2" />
<path d="M537,3917 L1248,3148" stroke="blue" stroke-width="2" />
<path d="M2757,1714 L2365,2107" stroke="blue" stroke-width="2" />
<path d="M1719,2250 L1392,2479" stroke="blue" stroke-width="2" />
<path d="M2427,1749 L1555,1328" stroke="blue" stroke-width="2" />
<path d="M1969,769 L842,3245" stroke="blue" stroke-width="2" />
<path d="M720,1837 L1697,270" stroke="blue" stroke-width="2" />
<path d="M1582,2542 L1951,1744" stroke="blue" stroke-width="2" />
<path d="M182,391 L2539,3345" stroke="blue" stroke-width="2" />
<path d="M1882,2331 L2544,1001" stroke="blue" stroke-width="2" />
<path d="M1115,2621 L1785,1640" stroke="blue" stroke-width="2" />
<path d="M2235,354 L2110,4038" stroke="blue" stroke-width="2" />
<path d="M1285,493 L1228,3294" stroke="blue" stroke-width="2" />
<path d="M390,1869 L2319,3612" stroke="blue" stroke-width="2" />
<path d="M2712,2201 L447,683" stroke="blue" stroke-width="2" />
<path d="M209,1553 L1626,3645" stroke="blue" stroke-width="2" />
<path d="M2210,892 L2598,3811" stroke="blue" stroke-width="2" />
<path d="M495,794 L299,2105" stroke="blue" stroke-width="2" />
<path d="M2584,1854 L1127,3155" stroke="blue" stroke-width="2" />
<path d="M1872,2649 L2373,3331" stroke="blue" stroke-width="2" />
<path d="M376,1213 L1171,3820" stroke="blue" stroke-width="2" />
<path d="M143,3955 L2746,1884" stroke="blue" stroke-width="2" />
<path d="M1308,1652 L676,1687" stroke="blue" stroke-width="2" />
<path d="M2634,2438 L1129,3440" stroke="blue" stroke-width="2" />
<path d="M612,3428 L1162,2034" stroke="blue" stroke-width="2" />
<path d="M89,1289 L1228,2614" stroke="blue" stroke-width="2" />
<path d="M1442,3328 L1189,2995" stroke="blue" stroke-width="2" />
<path d="M732,2821 L2730,1544" stroke="blue" stroke-width="2" />
<path d="M718,3199 L324,363" stroke="blue" stroke-width="2" />
<path d="M549,2970 L2841,2688" stroke="blue" stroke-width="2" />
<path d="M1655,2508 L526,2371" stroke="blue" stroke-width="2" />
<path d="M2448,1120 L869,1758" stroke="blue" stroke-width="2" />
<path d="M861,1982 L1053,659" stroke="blue" stroke-width="2" />
<path d="M914,1129 L2069,3746" stroke="blue" stroke-width="2" />
<path d="M142,1583 L347,414" stroke="blue" stroke-width="2" />
<path d="M1160,762 L1558,1561" stroke="blue" stroke-width="2" />
<path d="M2155,2779 L1038,3847" stroke="blue" stroke-width="2" />
<path d="M2761,2554 L2441,1845" stroke="blue" stroke-width="2" />
<path d="M2967,2887 L948,1286" stroke="blue" stroke-width="2" />
<path d="M248,1853 L1226,1901" stroke="blue" stroke-width="2" />
<path d="M2275,3119 L2474,1379" stroke="blue" stroke-width="2" />
<path d="M1119,3326 L1598,884" stroke="blue" stroke-width="2" />
<path d="M2768,444 L1861,1087" stroke="blue" stroke-width="2" />
<path d="M883,2783 L527,1253" stroke="blue" stroke-width="2" />
<path d="M2466,354 L1028,1351" stroke="blue" stroke-width="2" />
<path d="M1301,3844 L1670,3039" stroke="blue" stroke-width="2" />
<path d="M2612,2720 L1586,1899" stroke="blue" stroke-width="2" />
<path d="M2700,859 L2047,1218" stroke="blue" stroke-width="2" />
<path d="M1830,3003 L2847,1271" stroke="blue" stroke-width="2" />
<path d="M357,2941 L2329,1673" stroke="blue" stroke-width="2" />
<path d="M837,1503 L893,401" stroke="blue" stroke-width="2" />
<path d="M125,3893 L68,2870" stroke="blue" stroke-width="2" />
<path d="M93,1614 L2838,2817" stroke="blue" stroke-width="2" />
<path d="M2390,1529 L2912,63" stroke="blue" stroke-width="2" />
<path d="M2388,695 L2689,3168" stroke="blue" stroke-width="2" />
<path d="M2622,3543 L2600,1703" stroke="blue" stroke-width="2" />
<path d="M1581,84 L2977,1328" stroke="blue" stroke-width="2" />
<path d="M4,4108 L604,729" stroke="blue" stroke-width="2" />
<path d="M463,3210 L252,2539" stroke="blue" stroke-width="2" />
<path d="M1957,2568 L1128,3075" stroke="blue" stroke-width="2" />
<path d="M2900,1576 L1887,2933" stroke="blue" stroke-width="2" />
<path d="M616,3233 L2957,3224" stroke="blue" stroke-width="2" />
<path d="M1952,2564 L852,1839" stroke="blue" stroke-width="2" />
<path d="M2965,2441 L2582,905" stroke="blue" stroke-width="2" />
<path d="M1532,1348 L823,3321" stroke="blue" stroke-width="2" />
<path d="M1152,3673 L2571,4079" stroke="blue" stroke-width="2" />
<path d="M1686,2446 L2478,986" stroke="blue" stroke-width="2" />
<path d="M1071,807 L1182,957" stroke="blue" stroke-width="2" />
<path d="M2985,2734 L2730,740" stroke="blue" stroke-width="2" />
<path d="M1178,2370 L2570,3319" stroke="blue" stroke-width="2" />
<path d="M2994,4184 L1099,2545" stroke="blue" stroke-width="2" />
<path d="M1352,897 L2573,2625" stroke="blue" stroke-width="2" />
<path d="M2473,3896 L332,1037" stroke="blue" stroke-width="2" />
<path d="M1837,1786 L2497,3340" stroke="blue" stroke-width="2" />
<path d="M921,3699 L1621,907" stroke="blue" stroke-width="2" />
<path d="M790,779 L2627,1673" stroke="blue" stroke-width="2" />
<path d="M658,532 L1121,4013" stroke="blue" stroke-width="2" />
<path d="M1351,1483 L402,2770" stroke="blue" stroke-width="2" />
<path d="M885,581 L2068,18" stroke="blue" stroke-width="2" />
<path d="M437,696 L557,2339" stroke="blue" stroke-width="2" />
<path d="M1048,3056 L1848,4136" stroke="blue" stroke-width="2" />
<path d="M1083,2039 L1014,3146" stroke="blue" stroke-width="2" />
<path d="M1479,683 L1454,1420" stroke="blue" stroke-width="2" />
<path d="M1691,3257 L960,3960" stroke="blue" stroke-width="2" />
<path d="M1872,235 L1986,2630" stroke="blue" stroke-width="2" />
<path d="M463,149 L448,2974" stroke="blue" stroke-width="2" />
<path d="M37,2752 L625,3058" stroke="blue" stroke-width="2" />
<path d="M905,3616 L1073,1378" stroke="blue" stroke-width="2" />
<path d="M643,2694 L1528,1450" stroke="blue" stroke-width="2" />
<path d="M334,3720 L18,2512" stroke="blue" stroke-width="2" />
<path d="M2123,2466 L1484,3105" stroke="blue" stroke-width="2" />
<path d="M2339,3904 L1897,3311" stroke="blue" stroke-width="2" />
<path d="M458,3559 L1459,417" stroke="blue" stroke-width="2" />
<path d="M786,1560 L2536,2131" stroke="blue" stroke-width="2" />
<path d="M2211,4037 L1056,162" stroke="blue" stroke-width="2" />
<path d="M866,385 L1597,2134" stroke="blue" stroke-width="2" />
<path d="M1336,4136 L2694,1998" stroke="blue" stroke-width="2" />
<path d="M544,3340 L799,2993" stroke="blue" stroke-width="2" />
<path d="M1557,2545 L289,2659" stroke="blue" stroke-width="2" />
<path d="M905,4150 L1025,3386" stroke="blue" stroke-width="2" />
<path d="M1615,2896 L2560,3803" stroke="blue" stroke-width="2" />
<path d="M558,983 L970,478" stroke="blue" stroke-width="2" />
<path d="M467,3513 L2017,601" stroke="blue" stroke-width="2" />
<path d="M2678,700 L1542,1931" stroke="blue" stroke-width="2" />
<path d="M1879,1689 L1277,3328" stroke="blue" stroke-width="2" />
<path d="M7,2384 L2343,4123" stroke="blue" stroke-width="2" />
<path d="M1066,2526 L414,1237" stroke="blue" stroke-width="2" />
<path d="M106,3116 L2996,2583" stroke="blue" stroke-width="2" />
<path d="M1683,365 L346,1129" stroke="blue" stroke-width="2" />
<path d="M1457,710 L616,3870" stroke="blue" stroke-width="2" />
<path d="M724,2403 L2302,3652" stroke="blue" stroke-width="2" />
<path d="M351,1635 L1831,821" stroke="blue" stroke-width="2" />
<path d="M480,2441 L1233,52" stroke="blue" stroke-width="2" />
<path d="M686,3969 L601,725" stroke="blue" stroke-width="2" />
<path d="M20,1258 L324,1878" stroke="blue" stroke-width="2" />
<path d="M2842,23 L1969,2367" stroke="blue" stroke-width="2" />
<path d="M1963,3816 L179,428" stroke="blue" stroke-width="2" />
<path d="M924,427 L2522,2169" stroke="blue" stroke-width="2" />
<path d="M800,3939 L2693,3744" stroke="blue" stroke-width="2" />
<path d="M1942,3257 L397,3118" stroke="blue" stroke-width="2" />
<path d="M2656,4096 L2803,762" stroke="blue" stroke-width="2" />
<path d="M1987,4170 L302,750" stroke="blue" stroke-width="2" />
<path d="M1687,255 L745,4127" stroke="blue" stroke-width="2" />
<path d="M2421,3764 L2697,3578" stroke="blue" stroke-width="2" />
<path d="M2958,2761 L2583,3661" stroke="blue" stroke-width="2" />
<path d="M2649,1720 L1172,2282" stroke="blue" stroke-width="2" />
<path d="M2740,3521 L794,859" stroke="blue" stroke-width="2" />
<path d="M2234,2589 L2906,3190" stroke="blue" stroke-width="2" />
<path d="M275,4182 L2450,4153" stroke="blue" stroke-width="2" />
<path d="M2516,3616 L1230,37" stroke="blue" stroke-width="2" />
<path d="M1082,4142 L45,3507" stroke="blue" stroke-width="2" />
<path d="M1741,1089 L1263,3579" stroke="blue" stroke-width="2" />
<path d="M1640,2117 L1895,3245" stroke="blue" stroke-width="2" />
<path d="M1496,415 L664,4199" stroke="blue" stroke-width="2" />
<path d="M2241,3855 L88,1612" stroke="blue" stroke-width="2" />
<path d="M922,472 L1013,1428" stroke="blue" stroke-width="2" />
<path d="M1995,3785 L1708,2281" stroke="blue" stroke-width="2" />
<path d="M873,490 L669,1855" stroke="blue" stroke-width="2" />
<path d="M1211,2645 L2539,1889" stroke="blue" stroke-width="2" />
<path d="M2457,3167 L403,1079" stroke="blue" stroke-width="2" />
<path d="M1228,1877 L1292,2506" stroke="blue" stroke-width="2" />
<path d="M534,1696 L2840,2847" stroke="blue" stroke-width="2" />
<path d="M1636,1264 L966,307" stroke="blue" stroke-width="2" />
<path d="M2383,794 L33,1495" stroke="blue" stroke-width="2" />
<path d="M1441,2636 L824,2093" stroke="blue" stroke-width="2" />
<path d="M1444,4096 L937,2983" stroke="blue" stroke-width="2" />
<path d="M1106,3870 L371,906" stroke="blue" stroke-width="2" />
<path d="M1096,1657 L752,517" stroke="blue" stroke-width="2" />
<path d="M46,1500 L1714,309" stroke="blue" stroke-width="2" />
<path d="M818,3107 L1740,3493" stroke="blue" stroke-width="2" />
<path d="M454,484 L2425,7" stroke="blue" stroke-width="2" />
<path d="M1046,235 L2398,2991" stroke="blue" stroke-width="2" />
<path d="M530,3215 L451,1726" stroke="blue" stroke-width="2" />
<path d="M934,60 L2026,340" stroke="blue" stroke-width="2" />
<path d="M265,2848 L1246,2186" stroke="blue" stroke-width="2" />
<path d="M1334,2490 L2471,2131" stroke="blue" stroke-width="2" />
<path d="M914,1899 L2545,3568" stroke="blue" stroke-width="2" />
<path d="M859,109 L2091,2197" stroke="blue" stroke-width="2" />
<path d="M2500,547 L1709,3550" stroke="blue" stroke-width="2" />
<path d="M2530,3068 L2297,248" stroke="blue" stroke-width="2" />
<path d="M1136,2890 L1125,3344" stroke="blue" stroke-width="2" />
<path d="M509,1194 L2895,3035" stroke="blue" stroke-width="2" />
<path d="M2867,3888 L2776,1514" stroke="blue" stroke-width="2" />
<path d="M1771,2764 L1987,3843" stroke="blue" stroke-width="2" />
<path d="M1266,1309 L1509,2408" stroke="blue" stroke-width="2" />
<path d="M2525,398 L2196,988" stroke="blue" stroke-width="2" />
<path d="M882,3758 L1670,3822" stroke="blue" stroke-width="2" />
<path d="M2183,1329 L2787,1776" stroke="blue" stroke-width="2" />
<path d="M570,1315 L2621,942" stroke="blue" stroke-width="2" />
<path d="M1034,632 L2056,1123" stroke="blue" stroke-width="2" />
<path d="M740,3594 L2736,16" stroke="blue" stroke-width="2" />
<path d="M118,2573 L184,2131" stroke="blue" stroke-width="2" />
<path d="M1501,2841 L1856,2414" stroke="blue" stroke-width="2" />
<path d="M2197,2790 L2701,3265" stroke="blue" stroke-width="2" />
<path d="M2596,317 L194,3603" stroke="blue" stroke-width="2" />
<path d="M2973,2651 L2951,2856" stroke="blue" stroke-width="2" />
<path d="M2404,3554 L648,1970" stroke="blue" stroke-width="2" />
<path d="M917,3982 L733,3320" stroke="blue" stroke-width="2" />
<path d="M584,2595 L2563,4116" stroke="blue" stroke-width="2" />
<path d="M699,916 L224,1995" stroke="blue" stroke-width="2" />
<path d="M1003,219 L693,3517" stroke="blue" stroke-width="2" />
<path d="M2581,3298 L111,4123" stroke="blue" stroke-width="2" />
<path d="M557,975 L702,4092" stroke="blue" stroke-width="2" />
<path d="M1330,576 L134,3716" stroke="blue" stroke-width="2" />
<path d="M837,601 L2295,3137" stroke="blue" stroke-width="2" />
<path d="M2192,530 L824,233" stroke="blue" stroke-width="2" />
<path d="M217,3453 L1270,561" stroke="blue" stroke-width="2" />
<path d="M1142,81 L2499,1526" stroke="blue" stroke-width="2" />
<path d="M771,3915 L1849,1159" stroke="blue" stroke-width="2" />
<path d="M2148,649 L2875,1808" stroke="blue" stroke-width="2" />
<path d="M370,3065 L680,1758" stroke="blue" stroke-width="2" />
<path d="M2364,2060 L1373,3754" stroke="blue" stroke-width="2" />
<path d="M692,197 L1212,3649" stroke="blue" stroke-width="2" />
<path d="M1793,2152 L2389,2497" stroke="blue" stroke-width="2" />
<path d="M343,2439 L2805,1345" stroke="blue" stroke-width="2" />
<path d="M2970,1432 L2386,3721" stroke="blue" stroke-width="2" />
<path d="M835,266 L1434,1764" stroke="blue" stroke-width="2" />
<path d="M2054,2663 L180,785" stroke="blue" stroke-width="2" />
<path d="M627,1087 L2644,4184" stroke="blue" stroke-width="2" />
<path d="M497,4097 L917,1941" stroke="blue" stroke-width="2" />
<path d="M863,4206 L2006,3005" stroke="blue" stroke-width="2" />
<path d="M752,2399 L1478,2704" stroke="blue" stroke-width="2" />
<path d="M2085,1654 L1595,3036" stroke="blue" stroke-width="2" />
<path d="M2529,1729 L930,594" stroke="blue" stroke-width="2" />
<path d="M2527,3193 L1529,851" stroke="blue" stroke-width="2" />
<path d="M1403,3404 L2734,1196" stroke="blue" stroke-width="2" />
<path d="M2160,3199 L1894,3862" stroke="blue" stroke-width="2" />
<path d="M72,458 L963,3181" stroke="blue" stroke-width="2" />
<path d="M1723,313 L564,2468" stroke="blue" stroke-width="2" />
<path d="M1020,2818 L2996,327" stroke="blue" stroke-width="2" />
<path d="M1220,2144 L169,1372" stroke="blue" stroke-width="2" />
<path d="M1427,2293 L2218,2883" stroke="blue" stroke-width="2" />
<path d="M1616,3563 L2317,4162" stroke="blue" stroke-width="2" />
<path d="M1413,392 L820,2800" stroke="blue" stroke-width="2" />
<path d="M2158,1813 L640,1132" stroke="blue" stroke-width="2" />
<path d="M2238,1547 L243,3268" stroke="blue" stroke-width="2" />
<path d="M2804,2306 L2861,3507" stroke="blue" stroke-width="2" />
<path d="M612,2906 L1515,1742" stroke="blue" stroke-width="2" />
<path d="M1932,1151 L2679,1778" stroke="blue" stroke-width="2" />
<path d="M1853,891 L267,1676" stroke="blue" stroke-width="2" />
<path d="M1625,864 L1818,2903" stroke="blue" stroke-width="2" />
<path d="M1436,3805 L2112,2391" stroke="blue" stroke-width="2" />
<path d="M1021,2466 L2245,1466" stroke="blue" stroke-width="2" />
<path d="M0,0 L3023,0" stroke="red" stroke-width="10" />
<path d="M3023,0 L3023,4212" stroke="red" stroke-width="10" />
<path d="M0,4212 L3023,4212" stroke="red" stroke-width="10" />
<path d="M0,4212 L0,0" stroke="red" stroke-width="10" />
</svg>