<?xml version="1.0" encoding="UTF-8"?>
<svg xmlns="http://www.w3.org/2000/svg" xmlns:xlink="http://www.w3.org/1999/xlink"
     width="10000" height="10000" viewBox="0 0 10000 10000">
<defs>
</defs>
<path d="M2342,1442 L3459,3174" stroke="blue" stroke-width="2" />
<path d="M4861,3476 L5616,309" stroke="blue" stroke-width="2" />
<path d="M4491,2430 L1048,3306" stroke="blue" stroke-width="2" />
<path d="M2195,4289 L6588,1917" stroke="blue" stroke-width="2" />
<path d="M6165,3612 L1345,4121" stroke="blue" stroke-width="2" />
<path d="M425,678 L5122,1755" stroke="blue" stroke-width="2" />
<path d="M879,3252 L6408,3497" stroke="blue" stroke-width="2" />
<path d="M6230,1774 L2965,25" stroke="blue" stroke-width="2" />
<path d="M6740,1966 L2653,826" stroke="blue" stroke-width="2" />
<path d="M3788,82 L141,4119" stroke="blue" stroke-width="2" />
<path d="M4883,643 L4728,3793" stroke="blue" stroke-width="2" />
<path d="M1575,3629 L1325,2728" stroke="blue" stroke-width="2" />
<path d="M5007,2815 L7000,2617" stroke="blue" stroke-width="2" />
<path d="M612,3592 L1826,969" stroke="blue" stroke-width="2" />
<path d="M1672,927 L1110,4121" stroke="blue" stroke-width="2" />
<path d="M3656,2565 L4788,2001" stroke="blue" stroke-width="2" />
<path d="M2224,1141 L1350,4223" stroke="blue" stroke-width="2" />
<path d="M769,3986 L503,2128" stroke="blue" stroke-width="2" />
<path d="M732,1920 L6536,1497" stroke="blue" stroke-width="2" />
<path d="M3177,3998 L240,2999" stroke="blue" stroke-width="2" />
<path d="M1463,632 L2097,2362" stroke="blue" stroke-width="2" />
<path d="M5874,429 L2314,2979" stroke="blue" stroke-width="2" />
<path d="M3546,4187 L190,2150" stroke="blue" stroke-width="2" />
<path d="M3370,910 L3886,101" stroke="blue" stroke-width="2" />
<path d="M3244,788 L1102,3809" stroke="blue" stroke-width="2" />
<path d="M3196,1836 L3508,90" stroke="blue" stroke-width="2" />
<path d="M3973,3025 L3369,1210" stroke="blue" stroke-width="2" />
<path d="M2323,3302 L5978,3434" stroke="blue" stroke-width="2" />
<path d="M6978,456 L2022,1477" stroke="blue" stroke-width="2" />
<path d="M3456,3918 L3389,2612" stroke="blue" stroke-width="2" />
<path d="M7008,719 L4553,474" stroke="blue" stroke-width="2" />
<path d="M1865,3648 L3260,1847" stroke="blue" stroke-width="2" />
<path d="M2676,2332 L6808,3762" stroke="blue" stroke-width="2" />
<path d="M2444,3253 L4686,536" stroke="blue" stroke-width="2" />
<path d="M5417,1903 L7266,1274" stroke="blue" stroke-width="2" />
<path d="M807,69 L1608,3914" stroke="blue" stroke-width="2" />
<path d="M6185,1826 L2877,3451" stroke="blue" stroke-width="2" />
<path d="M4384,1875 L788,1193" stroke="blue" stroke-width="2" />
<path d="M1265,2412 L1490,3254" stroke="blue" stroke-width="2" />
<path d="M7057,621 L6201,580" stroke="blue" stroke-width="2" />
<path d="M6132,4165 L1841,844" stroke="blue" stroke-width="2" />
<path d="M4398,1078 L92,4321" stroke="blue" stroke-width="2" />
<path d="M4629,2101 L556,1720" stroke="blue" stroke-width="2" />
<path d="M2248,1319 L5748,2525" stroke="blue" stroke-width="2" />
<path d="M2442,641 L3841,3178" stroke="blue" stroke-width="2" />
<path d="M3678,4215 L5406,2969" stroke="blue" stroke-width="2" />
<path d="M305,4175 L1300,1420" stroke="blue" stroke-width="2" />
<path d="M6490,4022 L7150,990" stroke="blue" stroke-width="2" />
<path d="M2035,738 L1181,3817" stroke="blue" stroke-width="2" />
<path d="M801,3486 L6213,598" stroke="blue" stroke-width="2" />
<path d="M4293,3032 L4247,3601" stroke="blue" stroke-width="2" />
<path d="M1875,4276 L5809,2899" stroke="blue" stroke-width="2" />
<path d="M2532,2987 L6911,3507" stroke="blue" stroke-width="2" />
<path d="M6539,2089 L1301,1894" stroke="blue" stroke-width="2" />
<path d="M5646,4273 L2514,2193" stroke="blue" stroke-width="2" />
<path d="M120,3572 L3817,3811" stroke="blue" stroke-width="2" />
<path d="M7347,1160 L4341,3957" stroke="blue" stroke-width="2" />
<path d="M2426,3904 L2936,1301" stroke="blue" stroke-width="2" />
<path d="M5459,3492 L3573,2520" stroke="blue" stroke-width="2" />
<path d="M2872,4024 L700,3978" stroke="blue" stroke-width="2" />
<path d="M6389,847 L2439,3058" stroke="blue" stroke-width="2" />
<path d="M4738,2889 L339,1080" stroke="blue" stroke-width="2" />
<path d="M28,3823 L412,2193" stroke="blue" stroke-width="2" />
<path d="M7373,2464 L637,860" stroke="blue" stroke-width="2" />
<path d="M1081,3310 L1103,255" stroke="blue" stroke-width="2" />
<path d="M4389,1590 L3977,4287" stroke="blue" stroke-width="2" />
<path d="M3078,3145 L4852,2831" stroke="blue" stroke-width="2" />
<path d="M5347,1531 L2491,983" stroke="blue" stroke-width="2" />
<path d="M2493,2616 L680,2515" stroke="blue" stroke-width="2" />
<path d="M7024,569 L5907,780" stroke="blue" stroke-width="2" />
<path d="M5804,446 L4351,3090" stroke="blue" stroke-width="2" />
<path d="M1672,1702 L5712,923" stroke="blue" stroke-width="2" />
<path d="M1107,978 L1582,1251" stroke="blue" stroke-width="2" />
<path d="M6083,1527 L4069,139" stroke="blue" stroke-width="2" />
<path d="M2938,3062 L5177,1324" stroke="blue" stroke-width="2" />
<path d="M742,4054 L1461,4014" stroke="blue" stroke-width="2" />
<path d="M1451,3382 L6763,2373" stroke="blue" stroke-width="2" />
<path d="M2229,1497 L848,2372" stroke="blue" stroke-width="2" />
<path d="M4111,3012 L5626,830" stroke="blue" stroke-width="2" />
<path d="M811,2855 L15,4011" stroke="blue" stroke-width="2" />
<path d="M2044,2772 L7039,2868" stroke="blue" stroke-width="2" />
<path d="M1184,3260 L2880,2909" stroke="blue" stroke-width="2" />
<path d="M2340,448 L3460,3132" stroke="blue" stroke-width="2" />
<path d="M7130,2728 L4376,1680" stroke="blue" stroke-width="2" />
<path d="M1567,2974 L5362,2783" stroke="blue" stroke-width="2" />
<path d="M3004,2473 L5720,2316" stroke="blue" stroke-width="2" />
<path d="M969,650 L3895,3161" stroke="blue" stroke-width="2" />
<path d="M5111,3459 L5455,1865" stroke="blue" stroke-width="2" />
<path d="M3637,1750 L1847,1456" stroke="blue" stroke-width="2" />
<path d="M4441,4048 L5473,2728" stroke="blue" stroke-width="2" />
<path d="M2171,2057 L510,2491" stroke="blue" stroke-width="2" />
<path d="M5060,1525 L5944,3664" stroke="blue" stroke-width="2" />
<path d="M1583,3373 L5622,574" stroke="blue" stroke-width="2" />
<path d="M462,4151 L955,2683" stroke="blue" stroke-width="2" />
<path d="M6790,2640 L3070,2098" stroke="blue" stroke-width="2" />
<path d="M3332,906 L1503,2966" stroke="blue" stroke-width="2" />
<path d="M4663,2447 L5269,387" stroke="blue" stroke-width="2" />
<path d="M6998,3212 L3096,3779" stroke="blue" stroke-width="2" />
<path d="M4343,2372 L1576,3346" stroke="blue" stroke-width="2" />
<path d="M7343,1564 L3821,39" stroke="blue" stroke-width="2" />
<path d="M5381,1457 L1987,3217" stroke="blue" stroke-width="2" />
<path d="M1373,2231 L2109,2174" stroke="blue" stroke-width="2" />
<path d="M6573,1090 L1105,288" stroke="blue" stroke-width="2" />
<path d="M6008,3973 L752,2257" stroke="blue" stroke-width="2" />
<path d="M6423,1090 L6348,3311" stroke="blue" stroke-width="2" />
<path d="M982,965 L6511,2420" stroke="blue" stroke-width="2" />
<path d="M1080,2800 L164,4091" stroke="blue" stroke-width="2" />
<path d="M1757,3337 L3485,1366" stroke="blue" stroke-width="2" />
<path d="M6155,1640 L5690,2659" stroke="blue" stroke-width="2" />
<path d="M1411,3771 L6790,3359" stroke="blue" stroke-width="2" />
<path d="M2686,577 L2480,1189" stroke="blue" stroke-width="2" />
<path d="M5972,2953 L245,1207" stroke="blue" stroke-width="2" />
<path d="M6774,2937 L5209,826" stroke="blue" stroke-width="2" />
<path d="M3474,867 L378,1969" stroke="blue" stroke-width="2" />
<path d="M5950,1858 L4119,3212" stroke="blue" stroke-width="2" />
<path d="M1708,3131 L6862,2006" stroke="blue" stroke-width="2" />
<path d="M415,2572 L4463,244" stroke="blue" stroke-width="2" />
<path d="M4405,2751 L7338,1256" stroke="blue" stroke-width="2" />
<path d="M840,305 L6289,255" stroke="blue" stroke-width="2" />
<path d="M1235,3741 L1746,639" stroke="blue" stroke-width="2" />
<path d="M659,2043 L2552,3471" stroke="blue" stroke-width="2" />
<path d="M4220,1130 L6428,3460" stroke="blue" stroke-width="2" />
<path d="M3981,1305 L254,3279" stroke="blue" stroke-width="2" />
<path d="M5884,2163 L6395,934" stroke="blue" stroke-width="2" />
<path d="M5337,2386 L1202,2116" stroke="blue" stroke-width="2" />
<path d="M4116,2993 L2852,1410" stroke="blue" stroke-width="2" />
<path d="M179,808 L5667,541" stroke="blue" stroke-width="2" />
<path d="M1243,1174 L4241,3881" stroke="blue" stroke-width="2" />
<path d="M2584,1882 L6766,2169" stroke="blue" stroke-width="2" />
<path d="M5434,3723 L3584,3978" stroke="blue" stroke-width="2" />
<path d="M3743,2138 L5924,338" stroke="blue" stroke-width="2" />
<path d="M7326,824 L5044,3742" stroke="blue" stroke-width="2" />
<path d="M3517,3087 L6050,2555" stroke="blue" stroke-width="2" />
<path d="M447,3144 L364,2430" stroke="blue" stroke-width="2" />
<path d="M3561,3633 L5235,3329" stroke="blue" stroke-width="2" />
<path d="M4466,2719 L4216,4053" stroke="blue" stroke-width="2" />
<path d="M2437,2847 L5950,481" stroke="blue" stroke-width="2" />
<path d="M5956,706 L1663,3516" stroke="blue" stroke-width="2" />
<path d="M3313,1561 L5006,3736" stroke="blue" stroke-width="2" />
<path d="M3217,3229 L5930,3480" stroke="blue" stroke-width="2" />
<path d="M6635,1243 L4711,65" stroke="blue" stroke-width="2" />
<path d="M2800,3126 L5228,1772" stroke="blue" stroke-width="2" />
<path d="M4155,678 L5902,1715" stroke="blue" stroke-width="2" />
<path d="M1450,2290 L1762,3506" stroke="blue" stroke-width="2" />
<path d="M547,1235 L6244,3044" stroke="blue" stroke-width="2" />
<path d="M574,3965 L4621,2737" stroke="blue" stroke-width="2" />
<path d="M4536,1684 L3570,2804" stroke="blue" stroke-width="2" />
<path d="M3830,1889 L436,1589" stroke="blue" stroke-width="2" />
<path d="M211,1120 L3862,859" stroke="blue" stroke-width="2" />
<path d="M1385,3778 L6306,1471" stroke="blue" stroke-width="2" />
<path d="M7297,3469 L7244,2058" stroke="blue" stroke-width="2" />
<path d="M6913,2971 L3582,1393" stroke="blue" stroke-width="2" />
<path d="M4817,4205 L448,2697" stroke="blue" stroke-width="2" />
<path d="M7311,581 L2465,3622" stroke="blue" stroke-width="2" />
<path d="M5498,2268 L4835,2514" stroke="blue" stroke-width="2" />
<path d="M597,1807 L184,2358" stroke="blue" stroke-width="2" />
<path d="M2863,3127 L2282,913" stroke="blue" stroke-width="2" />
<path d="M4792,2489 L6205,33" stroke="blue" stroke-width="2" />
<path d="M5054,2241 L4441,2649" stroke="blue" stroke-width="2" />
<path d="M5247,3972 L2991,2568" stroke="blue" stroke-width="2" />
<path d="M5825,3422 L5058,1202" stroke="blue" stroke-width="2" />
<path d="M1359,1185 L2022,76" stroke="blue" stroke-width="2" />
<path d="M351,1891 L5789,1142" stroke="blue" stroke-width="2" />
<path d="M303,1989 L1110,1153" stroke="blue" stroke-width="2" />
<path d="M5722,915 L5978,2250" stroke="blue" stroke-width="2" />
<path d="M1221,284 L3662,1621" stroke="blue" stroke-width="2" />
<path d="M5142,3631 L1277,308" stroke="blue" stroke-width="2" />
<path d="M4433,2055 L1175,1128" stroke="blue" stroke-width="2" />
<path d="M2596,3801 L3081,1212" stroke="blue" stroke-width="2" />
<path d="M4102,3046 L2131,3310" stroke="blue" stroke-width="2" />
<path d="M963,3735 L4842,2225" stroke="blue" stroke-width="2" />
<path d="M283,364 L2443,1333" stroke="blue" stroke-width="2" />
<path d="M4176,2017 L127,2380" stroke="blue" stroke-width="2" />
<path d="M7113,3441 L5591,867" stroke="blue" stroke-width="2" />
<path d="M2178,1953 L2944,269" stroke="blue" stroke-width="2" />
<path d="M7164,3855 L7366,1634" stroke="blue" stroke-width="2" />
<path d="M2148,3032 L1008,2655" stroke="blue" stroke-width="2" />
<path d="M1202,1062 L715,2863" stroke="blue" stroke-width="2" />
<path d="M710,3198 L187,3717" stroke="blue" stroke-width="2" />
<path d="M3734,3147 L6730,2497" stroke="blue" stroke-width="2" />
<path d="M1467,1616 L979,419" stroke="blue" stroke-width="2" />
<path d="M5953,1032 L1616,3817" stroke="blue" stroke-width="2" />
<path d="M1208,2650 L6370,178" stroke="blue" stroke-width="2" />
<path d="M1442,3071 L1989,168" stroke="blue" stroke-width="2" />
<path d="M2604,2455 L630,1065" stroke="blue" stroke-width="2" />
<path d="M4261,3377 L3306,4140" stroke="blue" stroke-width="2" />
<path d="M31,495 L3868,1640" stroke="blue" stroke-width="2" />
<path d="M3038,577 L2615,3293" stroke="blue" stroke-width="2" />
<path d="M5363,1540 L3274,184" stroke="blue" stroke-width="2" />
<path d="M922,1250 L2574,3843" stroke="blue" stroke-width="2" />
<path d="M4028,4153 L371,2262" stroke="blue" stroke-width="2" />
<path d="M6237,1981 L3746,2058" stroke="blue" stroke-width="2" />
<path d="M4935,165 L2218,1044" stroke="blue" stroke-width="2" />
<path d="M1348,166 L1648,1510" stroke="blue" stroke-width="2" />
<path d="M1506,482 L5260,598" stroke="blue" stroke-width="2" />
<path d="M579,3133 L2864,1909" stroke="blue" stroke-width="2" />
<path d="M6600,3280 L2246,2282" stroke="blue" stroke-width="2" />
<path d="M6688,4183 L5201,567" stroke="blue" stroke-width="2" />
<path d="M6595,2790 L4049,2969" stroke="blue" stroke-width="2" />
<path d="M458,411 L2441,3280" stroke="blue" stroke-width="2" />
<path d="M5692,3065 L4807,1829" stroke="blue" stroke-width="2" />
<path d="M6657,2971 L2983,1403" stroke="blue" stroke-width="2" />
<path d="M2276,1893 L2679,3327" stroke="blue" stroke-width="2" />
<path d="M2236,3141 L5004,2275" stroke="blue" stroke-width="2" />
<path d="M5607,3826 L34,1844" stroke="blue" stroke-width="2" />
<path d="M5619,1152 L125,1164" stroke="blue" stroke-width="2" />
<path d="M4340,2198 L5784,994" stroke="blue" stroke-width="2" />
<path d="M6387,2925 L1512,3093" stroke="blue" stroke-width="2" />
<path d="M5446,3066 L1327,2099" stroke="blue" stroke-width="2" />
<path d="M2784,3596 L7008,507" stroke="blue" stroke-width="2" />
<path d="M862,2304 L3245,2029" stroke="blue" stroke-width="2" />
<path d="M69,1321 L3523,1864" stroke="blue" stroke-width="2" />
<path d="M92,216 L6370,4204" stroke="blue" stroke-width="2" />
<path d="M3933,4210 L2492,2854" stroke="blue" stroke-width="2" />
<path d="M767,985 L5478,442" stroke="blue" stroke-width="2" />
<path d="M3513,3862 L929,767" stroke="blue" stroke-width="2" />
<path d="M2979,4094 L442,1181" stroke="blue" stroke-width="2" />
<path d="M759,1614 L5244,2324" stroke="blue" stroke-width="2" />
<path d="M3603,1325 L4178,1424" stroke="blue" stroke-width="2" />
<path d="M2961,1097 L2567,3771" stroke="blue" stroke-width="2" />
<path d="M4269,1098 L4988,2266" stroke="blue" stroke-width="2" />
<path d="M3846,461 L1871,2574" stroke="blue" stroke-width="2" />
<path d="M751,1275 L4523,3750" stroke="blue" stroke-width="2" />
<path d="M2256,3392 L4917,3594" stroke="blue" stroke-width="2" />
<path d="M6463,4203 L1004,3565" stroke="blue" stroke-width="2" />
<path d="M591,236 L4419,1755" stroke="blue" stroke-width="2" />
<path d="M1265,2669 L2504,3951" stroke="blue" stroke-width="2" />
<path d="M2069,3348 L2644,155" stroke="blue" stroke-width="2" />
<path d="M2341,3712 L196,667" stroke="blue" stroke-width="2" />
<path d="M120,1188 L408,3470" stroke="blue" stroke-width="2" />
<path d="M3617,4167 L5999,1120" stroke="blue" stroke-width="2" />
<path d="M3766,2417 L633,186" stroke="blue" stroke-width="2" />
<path d="M4828,1992 L118,915" stroke="blue" stroke-width="2" />
<path d="M2587,124 L947,952" stroke="blue" stroke-width="2" />
<path d="M6631,3437 L6242,1324" stroke="blue" stroke-width="2" />
<path d="M1921,3034 L1473,1332" stroke="blue" stroke-width="2" />
<path d="M6804,43 L772,147" stroke="blue" stroke-width="2" />
<path d="M5645,1417 L2195,4035" stroke="blue" stroke-width="2" />
<path d="M3187,324 L3856,3669" stroke="blue" stroke-width="2" />
<path d="M1455,1656 L441,1256" stroke="blue" stroke-width="2" />
<path d="M6317,1319 L7070,320" stroke="blue" stroke-width="2" />
<path d="M5524,2804 L355,3531" stroke="blue" stroke-width="2" />
<path d="M5352,270 L2267,1314" stroke="blue" stroke-width="2" />
<path d="M7307,2985 L1092,529" stroke="blue" stroke-width="2" />
<path d="M6496,899 L6935,1387" stroke="blue" stroke-width="2" />
<path d="M6967,759 L6079,3153" stroke="blue" stroke-width="2" />
<path d="M6408,1422 L2233,219" stroke="blue" stroke-width="2" />
<path d="M3365,2654 L4487,322" stroke="blue" stroke-width="2" />
<path d="M3997,4161 L4966,1191" stroke="blue" stroke-width="2" />
<path d="M1641,2226 L2145,604" stroke="blue" stroke-width="2" />
<path d="M1669,3483 L4229,859" stroke="blue" stroke-width="2" />
<path d="M3772,361 L6729,2541" stroke="blue" stroke-width="2" />
<path d="M5655,281 L6197,4117" stroke="blue" stroke-width="2" />
<path d="M4752,1280 L5373,1486" stroke="blue" stroke-width="2" />
<path d="M7111,2438 L5707,2708" stroke="blue" stroke-width="2" />
<path d="M5814,2000 L470,1786" stroke="blue" stroke-width="2" />
<path d="M254,3608 L4327,3396" stroke="blue" stroke-width="2" />
<path d="M2580,1672 L4029,3484" stroke="blue" stroke-width="2" />
<path d="M4136,2741 L3494,2483" stroke="blue" stroke-width="2" />
<path d="M122,2477 L1309,926" stroke="blue" stroke-width="2" />
<path d="M5164,2866 L704,4063" stroke="blue" stroke-width="2" />
<path d="M4041,4053 L5747,277" stroke="blue" stroke-width="2" />
<path d="M1463,601 L6234,2412" stroke="blue" stroke-width="2" />
<path d="M2411,1464 L4445,748" stroke="blue" stroke-width="2" />
<path d="M3394,2623 L6854,3875" stroke="blue" stroke-width="2" />
<path d="M4947,4233 L3172,1594" stroke="blue" stroke-width="2" />
<path d="M6812,3413 L6166,1005" stroke="blue" stroke-width="2" />
<path d="M5571,4158 L6295,1764" stroke="blue" stroke-width="2" />
<path d="M4916,2823 L310,219" stroke="blue" stroke-width="2" />
<path d="M3597,1869 L6788,3221" stroke="blue" stroke-width="2" />
<path d="M7142,2635 L666,3327" stroke="blue" stroke-width="2" />
<path d="M2812,775 L4991,3821" stroke="blue" stroke-width="2" />
<path d="M4538,2280 L7054,1331" stroke="blue" stroke-width="2" />
<path d="M2278,3428 L1681,654" stroke="blue" stroke-width="2" />
<path d="M477,1496 L6515,3063" stroke="blue" stroke-width="2" />
<path d="M8,262 L2814,2573" stroke="blue" stroke-width="2" />
<path d="M3687,3713 L1236,752" stroke="blue" stroke-width="2" />
<path d="M3516,3576 L1675,3431" stroke="blue" stroke-width="2" />
<path d="M4121,4058 L4638,3858" stroke="blue" stroke-width="2" />
<path d="M3226,1050 L5066,1206" stroke="blue" stroke-width="2" />
<path d="M4542,2603 L568,899" stroke="blue" stroke-width="2" />
<path d="M1718,2636 L2845,1449" stroke="blue" stroke-width="2" />
<path d="M4806,1156 L5676,2176" stroke="blue" stroke-width="2" />
<path d="M611,2078 L2938,2883" stroke="blue" stroke-width="2" />
<path d="M336,537 L718,3102" stroke="blue" stroke-width="2" />
<path d="M1921,1692 L3289,2794" stroke="blue" stroke-width="2" />
<path d="M3776,887 L6480,1786" stroke="blue" stroke-width="2" />
<path d="M6158,4015 L6430,3694" stroke="blue" stroke-width="2" />
<path d="M3668,53 L386,2463" stroke="blue" stroke-width="2" />
<path d="M4278,1700 L6343,3781" stroke="blue" stroke-width="2" />
<path d="M5481,3347 L5991,360" stroke="blue" stroke-width="2" />
<path d="M2386,2247 L5050,1257" stroke="blue" stroke-width="2" />
<path d="M212,4267 L1406,1520" stroke="blue" stroke-width="2" />
<path d="M1862,1865 L58,239" stroke="blue" stroke-width="2" />
<path d="M3144,4164 L4626,199" stroke="blue" stroke-width="2" />
<path d="M6321,4104 L7367,851" stroke="blue" stroke-width="2" />
<path d="M3527,1402 L5172,3910" stroke="blue" stroke-width="2" />
<path d="M6356,2177 L6488,964" stroke="blue" stroke-width="2" />
<path d="M4983,537 L3151,4182" stroke="blue" stroke-width="2" />
<path d="M5429,3856 L1651,435" stroke="blue" stroke-width="2" />
<path d="M1348,400 L7055,2284" stroke="blue" stroke-width="2" />
<path d="M5302,2391 L557,4093" stroke="blue" stroke-width="2" />
<path d="M4362,3561 L6274,187" stroke="blue" stroke-width="2" />
<path d="M4633,3997 L5553,3695" stroke="blue" stroke-width="2" />
<path d="M924,1159 L1204,2716" stroke="blue" stroke-width="2" />
<path d="M6675,361 L78,267" stroke="blue" stroke-width="2" />
<path d="M2564,349 L266,3400" stroke="blue" stroke-width="2" />
<path d="M2970,2144 L2132,34" stroke="blue" stroke-width="2" />
<path d="M6941,3665 L3706,744" stroke="blue" stroke-width="2" />
<path d="M1298,1573 L3838,3117" stroke="blue" stroke-width="2" />
<path d="M6236,1110 L401,3563" stroke="blue" stroke-width="2" />
<path d="M641,3453 L1427,954" stroke="blue" stroke-width="2" />
<path d="M3853,2859 L3152,618" stroke="blue" stroke-width="2" />
<path d="M893,4081 L5120,4124" stroke="blue" stroke-width="2" />
<path d="M6047,1717 L1992,2398" stroke="blue" stroke-width="2" />
<path d="M6843,687 L6777,2813" stroke="blue" stroke-width="2" />
<path d="M4181,3868 L7363,1682" stroke="blue" stroke-width="2" />
<path d="M6366,886 L3046,1118" stroke="blue" stroke-width="2" />
<path d="M3206,509 L6120,3139" stroke="blue" stroke-width="2" />
<path d="M7168,3862 L6743,1330" stroke="blue" stroke-width="2" />
<path d="M5684,1848 L141,1983" stroke="blue" stroke-width="2" />
<path d="M384,1104 L2292,4017" stroke="blue" stroke-width="2" />
<path d="M6247,3124 L1067,2226" stroke="blue" stroke-width="2" />
<path d="M6365,1827 L4542,2689" stroke="blue" stroke-width="2" />
<path d="M57,994 L1330,1835" stroke="blue" stroke-width="2" />
<path d="M2967,1344 L4947,4239" stroke="blue" stroke-width="2" />
<path d="M4426,1719 L7005,3677" stroke="blue" stroke-width="2" />
<path d="M883,1076 L6912,3119" stroke="blue" stroke-width="2" />
<path d="M3171,4158 L7059,3930" stroke="blue" stroke-width="2" />
<path d="M2905,1841 L2764,2856" stroke="blue" stroke-width="2" />
<path d="M6008,3134 L5332,615" stroke="blue" stroke-width="2" />
<path d="M6426,473 L7020,1720" stroke="blue" stroke-width="2" />
<path d="M3623,2149 L7049,3509" stroke="blue" stroke-width="2" />
<path d="M369,1755 L7015,3501" stroke="blue" stroke-width="2" />
<path d="M3615,388 L3372,281" stroke="blue" stroke-width="2" />
<path d="M3864,1744 L2454,1008" stroke="blue" stroke-width="2" />
<path d="M4022,3310 L4092,2398" stroke="blue" stroke-width="2" />
<path d="M4022,3161 L5090,1606" stroke="blue" stroke-width="2" />
<path d="M245,3475 L3985,2585" stroke="blue" stroke-width="2" />
<path d="M576,1223 L6475,1253" stroke="blue" stroke-width="2" />
<path d="M340,227 L2764,1695" stroke="blue" stroke-width="2" />
<path d="M5062,1338 L7403,1648" stroke="blue" stroke-width="2" />
<path d="M7334,923 L2948,1276" stroke="blue" stroke-width="2" />
<path d="M5809,24 L4374,1303" stroke="blue" stroke-width="2" />
<path d="M2662,1061 L1190,2308" stroke="blue" stroke-width="2" />
<path d="M5508,3129 L6250,3931" stroke="blue" stroke-width="2" />
<path d="M4640,2370 L483,3467" stroke="blue" stroke-width="2" />
<path d="M2157,4059 L6595,3436" stroke="blue" stroke-width="2" />
<path d="M941,535 L3052,2559" stroke="blue" stroke-width="2" />
<path d="M7083,2206 L6079,3505" stroke="blue" stroke-width="2" />
<path d="M5721,3858 L5207,3656" stroke="blue" stroke-width="2" />
<path d="M5224,1004 L7255,2349" stroke="blue" stroke-width="2" />
<path d="M5933,2247 L3372,1783" stroke="blue" stroke-width="2" />
<path d="M6635,1644 L6983,1805" stroke="blue" stroke-width="2" />
<path d="M2139,857 L5718,132" stroke="blue" stroke-width="2" />
<path d="M5542,850 L353,4189" stroke="blue" stroke-width="2" />
<path d="M5036,2122 L1489,8" stroke="blue" stroke-width="2" />
<path d="M99,3359 L5508,390" stroke="blue" stroke-width="2" />
<path d="M3714,221 L4758,2487" stroke="blue" stroke-width="2" />
<path d="M5583,4080 L4864,1529" stroke="blue" stroke-width="2" />
<path d="M995,2365 L3736,927" stroke="blue" stroke-width="2" />
<path d="M5458,1640 L7408,3775" stroke="blue" stroke-width="2" />
<path d="M3310,382 L1184,970" stroke="blue" stroke-width="2" />
<path d="M5521,3412 L3334,2272" stroke="blue" stroke-width="2" />
<path d="M812,2992 L2996,2158" stroke="blue" stroke-width="2" />
<path d="M506,3395 L4697,821" stroke="blue" stroke-width="2" />
<path d="M2698,2643 L208,3337" stroke="blue" stroke-width="2" />
<path d="M5869,1562 L3981,3174" stroke="blue" stroke-width="2" />
<path d="M5189,3853 L2295,1489" stroke="blue" stroke-width="2" />
<path d="M1763,3149 L4862,4305" stroke="blue" stroke-width="2" />
<path d="M4242,3060 L9,3456" stroke="blue" stroke-width="2" />
<path d="M5113,3769 L1735,376" stroke="blue" stroke-width="2" />
<path d="M5597,2835 L472,1868" stroke="blue" stroke-width="2" />
<path d="M5535,1885 L5777,3441" stroke="blue" stroke-width="2" />
<path d="M2300,2910 L6728,2837" stroke="blue" stroke-width="2" />
<path d="M6969,256 L695,2476" stroke="blue" stroke-width="2" />
<path d="M2143,1482 L3959,3631" stroke="blue" stroke-width="2" />
<path d="M1729,1884 L3816,1516" stroke="blue" stroke-width="2" />
<path d="M5177,1737 L2976,4211" stroke="blue" stroke-width="2" />
<path d="M3694,3134 L1290,2537" stroke="blue" stroke-width="2" />
<path d="M1403,1888 L5452,1910" stroke="blue" stroke-width="2" />
<path d="M958,530 L4782,1751" stroke="blue" stroke-width="2" />
<path d="M6052,4173 L4131,3384" stroke="blue" stroke-width="2" />
<path d="M4563,1544 L1076,3186" stroke="blue" stroke-width="2" />
<path d="M516,1302 L1127,1733" stroke="blue" stroke-width="2" />
<path d="M5400,3024 L266,3021" stroke="blue" stroke-width="2" />
<path d="M3796,4288 L4205,3137" stroke="blue" stroke-width="2" />
<path d="M5407,1320 L5900,517" stroke="blue" stroke-width="2" />
<path d="M835,2240 L5934,2209" stroke="blue" stroke-width="2" />
<path d="M1882,2469 L4923,1387" stroke="blue" stroke-width="2" />
<path d="M1629,3957 L2492,1713" stroke="blue" stroke-width="2" />
<path d="M6615,1274 L1811,349" stroke="blue" stroke-width="2" />
<path d="M256,4165 L6967,3754" stroke="blue" stroke-width="2" />
<path d="M6246,1963 L908,1546" stroke="blue" stroke-width="2" />
<path d="M748,2290 L6188,2181" stroke="blue" stroke-width="2" />
<path d="M4679,3196 L4955,2958" stroke="blue" stroke-width="2" />
<path d="M250,3457 L5635,2602" stroke="blue" stroke-width="2" />
<path d="M2130,2139 L5179,576" stroke="blue" stroke-width="2" />
<path d="M3434,1138 L1635,4087" stroke="blue" stroke-width="2" />
<path d="M487,3661 L6394,2134" stroke="blue" stroke-width="2" />
<path d="M4214,64 L3277,220" stroke="blue" stroke-width="2" />
<path d="M4120,1727 L4675,2372" stroke="blue" stroke-width="2" />
<path d="M3194,4104 L5993,589" stroke="blue" stroke-width="2" />
<path d="M4714,696 L1758,787" stroke="blue" stroke-width="2" />
<path d="M5694,4090 L4321,1019" stroke="blue" stroke-width="2" />
<path d="M2772,11 L5282,1989" stroke="blue" stroke-width="2" />
<path d="M4131,4102 L2369,747" stroke="blue" stroke-width="2" />
<path d="M5408,824 L4120,1925" stroke="blue" stroke-width="2" />
<path d="M4449,2364 L4755,3453" stroke="blue" stroke-width="2" />
<path d="M3072,3442 L1756,778" stroke="blue" stroke-width="2" />
<path d="M630,2830 L5769,1117" stroke="blue" stroke-width="2" />
<path d="M862,3339 L1383,2802" stroke="blue" stroke-width="2" />
<path d="M5953,1157 L3931,777" stroke="blue" stroke-width="2" />
<path d="M7226,3977 L4452,2077" stroke="blue" stroke-width="2" />
<path d="M5054,2583 L1787,23" stroke="blue" stroke-width="2" />
<path d="M3995,1014 L4821,1264" stroke="blue" stroke-width="2" />
<path d="M5195,1239 L1153,2208" stroke="blue" stroke-width="2" />
<path d="M2052,1823 L3777,1948" stroke="blue" stroke-width="2" />
<path d="M4322,2471 L4814,716" stroke="blue" stroke-width="2" />
<path d="M4810,4204 L3927,4246" stroke="blue" stroke-width="2" />
<path d="M4785,748 L4858,2482" stroke="blue" stroke-width="2" />
<path d="M0,0 L7415,0" stroke="red" stroke-width="10" />
<path d="M7415,0 L7415,4343" stroke="red" stroke-width="10" />
<path d="M0,4343 L7415,4343" stroke="red" stroke-width="10" />
<path d="M0,4343 L0,0" stroke="red" stroke-width="10" />
</svg>