<?xml version="1.0" encoding="UTF-8"?>
<svg xmlns="http://www.w3.org/2000/svg" xmlns:xlink="http://www.w3.org/1999/xlink"
     width="10000" height="10000" viewBox="0 0 10000 10000">
<defs>
</defs>
<path d="M8138,7914 L8092,6003" stroke="blue" stroke-width="2" />
<path d="M7788,8487 L513,174" stroke="blue" stroke-width="2" />
<path d="M2857,5836 L2435,8420" stroke="blue" stroke-width="2" />
<path d="M1606,3617 L1435,5700" stroke="blue" stroke-width="2" />
<path d="M4187,2256 L8626,163" stroke="blue" stroke-width="2" />
<path d="M4380,5399 L1021,6711" stroke="blue" stroke-width="2" />
<path d="M3978,6549 L4234,5484" stroke="blue" stroke-width="2" />
<path d="M2273,8074 L1696,7467" stroke="blue" stroke-width="2" />
<path d="M5476,5820 L1242,3143" stroke="blue" stroke-width="2" />
<path d="M8498,7164 L6309,5507" stroke="blue" stroke-width="2" />
<path d="M5080,5981 L7154,6568" stroke="blue" stroke-width="2" />
<path d="M8281,1916 L3225,8638" stroke="blue" stroke-width="2" />
<path d="M2575,8633 L7843,67" stroke="blue" stroke-width="2" />
<path d="M8149,2889 L7518,4574" stroke="blue" stroke-width="2" />
<path d="M3772,7077 L1113,7638" stroke="blue" stroke-width="2" />
<path d="M4030,5209 L6776,1773" stroke="blue" stroke-width="2" />
<path d="M6690,5079 L4385,1498" stroke="blue" stroke-width="2" />
<path d="M2081,1164 L5294,1867" stroke="blue" stroke-width="2" />
<path d="M242,7468 L1545,8282" stroke="blue" stroke-width="2" />
<path d="M8360,779 L1932,6101" stroke="blue" stroke-width="2" />
<path d="M7776,6351 L7494,6725" stroke="blue" stroke-width="2" />
<path d="M484,3399 L4402,3839" stroke="blue" stroke-width="2" />
<path d="M5585,3429 L3250,4908" stroke="blue" stroke-width="2" />
<path d="M758,6755 L3495,4373" stroke="blue" stroke-width="2" />
<path d="M3555,6362 L582,5068" stroke="blue" stroke-width="2" />
<path d="M3450,4332 L7551,4893" stroke="blue" stroke-width="2" />
<path d="M8309,2405 L1518,3161" stroke="blue" stroke-width="2" />
<path d="M6296,2853 L7185,4475" stroke="blue" stroke-width="2" />
<path d="M7907,8155 L7535,7189" stroke="blue" stroke-width="2" />
<path d="M2463,4720 L1782,1072" stroke="blue" stroke-width="2" />
<path d="M5257,7329 L2360,4708" stroke="blue" stroke-width="2" />
<path d="M7074,83 L4832,993" stroke="blue" stroke-width="2" />
<path d="M2384,3259 L4732,7457" stroke="blue" stroke-width="2" />
<path d="M7396,7405 L6408,2021" stroke="blue" stroke-width="2" />
<path d="M1855,3589 L770,506" stroke="blue" stroke-width="2" />
<path d="M241,247 L1465,8540" stroke="blue" stroke-width="2" />
<path d="M934,643 L2861,1142" stroke="blue" stroke-width="2" />
<path d="M6236,2933 L6575,5184" stroke="blue" stroke-width="2" />
<path d="M5403,67 L720,6573" stroke="blue" stroke-width="2" />
<path d="M1733,6596 L6708,777" stroke="blue" stroke-width="2" />
<path d="M742,6751 L6295,6110" stroke="blue" stroke-width="2" />
<path d="M7545,8596 L4537,4573" stroke="blue" stroke-width="2" />
<path d="M5899,8526 L3210,4288" stroke="blue" stroke-width="2" />
<path d="M4409,3557 L5557,8257" stroke="blue" stroke-width="2" />
<path d="M7138,589 L6834,331" stroke="blue" stroke-width="2" />
<path d="M7739,6766 L365,6923" stroke="blue" stroke-width="2" />
<path d="M327,7336 L2158,2264" stroke="blue" stroke-width="2" />
<path d="M7062,4318 L392,4268" stroke="blue" stroke-width="2" />
<path d="M3321,4941 L4599,3157" stroke="blue" stroke-width="2" />
<path d="M5258,8519 L5581,263" stroke="blue" stroke-width="2" />
<path d="M3843,152 L4069,2186" stroke="blue" stroke-width="2" />
<path d="M7493,2769 L5714,3493" stroke="blue" stroke-width="2" />
<path d="M6395,8604 L5100,8179" stroke="blue" stroke-width="2" />
<path d="M6987,4921 L798,1207" stroke="blue" stroke-width="2" />
<path d="M730,1598 L4062,803" stroke="blue" stroke-width="2" />
<path d="M18,1179 L4656,5276" stroke="blue" stroke-width="2" />
<path d="M1814,4048 L5232,1028" stroke="blue" stroke-width="2" />
<path d="M2893,2890 L1610,6109" stroke="blue" stroke-width="2" />
<path d="M2523,8467 L5720,828" stroke="blue" stroke-width="2" />
<path d="M4038,2122 L1406,4098" stroke="blue" stroke-width="2" />
<path d="M6857,1532 L2429,255" stroke="blue" stroke-width="2" />
<path d="M7414,2087 L457,605" stroke="blue" stroke-width="2" />
<path d="M7298,8328 L1936,7488" stroke="blue" stroke-width="2" />
<path d="M4779,6849 L8527,6692" stroke="blue" stroke-width="2" />
<path d="M723,7825 L7924,6520" stroke="blue" stroke-width="2" />
<path d="M1432,911 L1196,8514" stroke="blue" stroke-width="2" />
<path d="M3030,7557 L6833,6967" stroke="blue" stroke-width="2" />
<path d="M100,1346 L6768,1890" stroke="blue" stroke-width="2" />
<path d="M4595,4959 L4830,4904" stroke="blue" stroke-width="2" />
<path d="M626,5342 L6610,7955" stroke="blue" stroke-width="2" />
<path d="M3609,7835 L4098,3674" stroke="blue" stroke-width="2" />
<path d="M3907,5278 L3312,6125" stroke="blue" stroke-width="2" />
<path d="M362,5692 L684,8510" stroke="blue" stroke-width="2" />
<path d="M8525,5410 L661,3793" stroke="blue" stroke-width="2" />
<path d="M7343,8302 L49,7578" stroke="blue" stroke-width="2" />
<path d="M6541,4667 L3491,394" stroke="blue" stroke-width="2" />
<path d="M4105,1533 L1017,5994" stroke="blue" stroke-width="2" />
<path d="M2105,2687 L475,6406" stroke="blue" stroke-width="2" />
<path d="M2657,6595 L2697,5783" stroke="blue" stroke-width="2" />
<path d="M3155,316 L6622,398" stroke="blue" stroke-width="2" />
<path d="M567,6121 L2813,1109" stroke="blue" stroke-width="2" />
<path d="M5973,6591 L7227,7454" stroke="blue" stroke-width="2" />
<path d="M7287,8119 L5490,1019" stroke="blue" stroke-width="2" />
<path d="M7585,1774 L7344,1876" stroke="blue" stroke-width="2" />
<path d="M5346,1662 L2049,692" stroke="blue" stroke-width="2" />
<path d="M5225,1033 L3822,3567" stroke="blue" stroke-width="2" />
<path d="M5619,5047 L3772,6600" stroke="blue" stroke-width="2" />
<path d="M4321,126 L4477,4424" stroke="blue" stroke-width="2" />
<path d="M3417,3168 L5423,7613" stroke="blue" stroke-width="2" />
<path d="M5711,1765 L795,8321" stroke="blue" stroke-width="2" />
<path d="M6987,509 L8138,761" stroke="blue" stroke-width="2" />
<path d="M2220,4490 L6420,22" stroke="blue" stroke-width="2" />
<path d="M463,4854 L4825,6353" stroke="blue" stroke-width="2" />
<path d="M1517,5752 L1850,2439" stroke="blue" stroke-width="2" />
<path d="M4027,174 L3007,3191" stroke="blue" stroke-width="2" />
<path d="M6782,4264 L2920,3730" stroke="blue" stroke-width="2" />
<path d="M6514,5015 L1718,7300" stroke="blue" stroke-width="2" />
<path d="M3518,7298 L8579,1972" stroke="blue" stroke-width="2" />
<path d="M7031,4466 L6709,5875" stroke="blue" stroke-width="2" />
<path d="M6324,4215 L6801,5445" stroke="blue" stroke-width="2" />
<path d="M7089,8406 L7604,1705" stroke="blue" stroke-width="2" />
<path d="M5506,1446 L8099,4013" stroke="blue" stroke-width="2" />
<path d="M2020,5133 L1866,7358" stroke="blue" stroke-width="2" />
<path d="M172,4480 L7896,6139" stroke="blue" stroke-width="2" />
<path d="M8288,2095 L6265,8184" stroke="blue" stroke-width="2" />
<path d="M851,3774 L1065,1663" stroke="blue" stroke-width="2" />
<path d="M6749,1597 L6545,6205" stroke="blue" stroke-width="2" />
<path d="M1104,2747 L7889,535" stroke="blue" stroke-width="2" />
<path d="M8084,2484 L5668,7089" stroke="blue" stroke-width="2" />
<path d="M3420,3358 L8356,3375" stroke="blue" stroke-width="2" />
<path d="M2040,1616 L2244,3751" stroke="blue" stroke-width="2" />
<path d="M751,8036 L4393,6482" stroke="blue" stroke-width="2" />
<path d="M188,3807 L118,1429" stroke="blue" stroke-width="2" />
<path d="M5942,5423 L3469,8445" stroke="blue" stroke-width="2" />
<path d="M359,8606 L4396,2972" stroke="blue" stroke-width="2" />
<path d="M8217,4000 L1942,6697" stroke="blue" stroke-width="2" />
<path d="M4242,3457 L5766,4809" stroke="blue" stroke-width="2" />
<path d="M7811,4352 L3068,1466" stroke="blue" stroke-width="2" />
<path d="M5187,7018 L6899,4313" stroke="blue" stroke-width="2" />
<path d="M2988,4916 L8313,8260" stroke="blue" stroke-width="2" />
<path d="M4715,2924 L4710,4166" stroke="blue" stroke-width="2" />
<path d="M333,1941 L1278,46" stroke="blue" stroke-width="2" />
<path d="M2767,6209 L1880,6112" stroke="blue" stroke-width="2" />
<path d="M4727,8055 L3129,8469" stroke="blue" stroke-width="2" />
<path d="M7055,3842 L1073,711" stroke="blue" stroke-width="2" />
<path d="M1018,1964 L7111,791" stroke="blue" stroke-width="2" />
<path d="M6491,1353 L5275,3161" stroke="blue" stroke-width="2" />
<path d="M4029,8442 L5587,3126" stroke="blue" stroke-width="2" />
<path d="M1729,3459 L3109,7816" stroke="blue" stroke-width="2" />
<path d="M489,3446 L3068,3536" stroke="blue" stroke-width="2" />
<path d="M8178,258 L4768,4150" stroke="blue" stroke-width="2" />
<path d="M504,498 L8010,7042" stroke="blue" stroke-width="2" />
<path d="M8289,7 L3787,589" stroke="blue" stroke-width="2" />
<path d="M2145,6829 L238,1378" stroke="blue" stroke-width="2" />
<path d="M5410,8525 L7030,4844" stroke="blue" stroke-width="2" />
<path d="M4302,1269 L3555,3487" stroke="blue" stroke-width="2" />
<path d="M3330,3983 L1839,2143" stroke="blue" stroke-width="2" />
<path d="M5291,4112 L3433,646" stroke="blue" stroke-width="2" />
<path d="M4554,7202 L1401,6168" stroke="blue" stroke-width="2" />
<path d="M2075,1237 L7930,6771" stroke="blue" stroke-width="2" />
<path d="M4457,425 L3043,3550" stroke="blue" stroke-width="2" />
<path d="M6748,5135 L3983,8590" stroke="blue" stroke-width="2" />
<path d="M5128,7462 L724,414" stroke="blue" stroke-width="2" />
<path d="M648,6560 L8233,8249" stroke="blue" stroke-width="2" />
<path d="M4810,5130 L4406,879" stroke="blue" stroke-width="2" />
<path d="M4625,7543 L1340,622" stroke="blue" stroke-width="2" />
<path d="M4803,5655 L6789,4305" stroke="blue" stroke-width="2" />
<path d="M3895,6059 L3369,5691" stroke="blue" stroke-width="2" />
<path d="M8085,7047 L666,1212" stroke="blue" stroke-width="2" />
<path d="M612,8471 L1054,1171" stroke="blue" stroke-width="2" />
<path d="M6956,6951 L7341,5472" stroke="blue" stroke-width="2" />
<path d="M2879,2628 L455,2371" stroke="blue" stroke-width="2" />
<path d="M8398,6056 L8518,4584" stroke="blue" stroke-width="2" />
<path d="M3578,6900 L3777,4910" stroke="blue" stroke-width="2" />
<path d="M1659,6442 L752,4134" stroke="blue" stroke-width="2" />
<path d="M3544,6286 L4603,4011" stroke="blue" stroke-width="2" />
<path d="M4112,1617 L8097,3204" stroke="blue" stroke-width="2" />
<path d="M560,489 L1418,3874" stroke="blue" stroke-width="2" />
<path d="M4153,5815 L857,1969" stroke="blue" stroke-width="2" />
<path d="M7756,8065 L7067,1528" stroke="blue" stroke-width="2" />
<path d="M315,980 L1607,4132" stroke="blue" stroke-width="2" />
<path d="M5608,8617 L5668,7551" stroke="blue" stroke-width="2" />
<path d="M8223,8557 L222,8143" stroke="blue" stroke-width="2" />
<path d="M3110,7096 L1348,1002" stroke="blue" stroke-width="2" />
<path d="M4748,2623 L3455,7573" stroke="blue" stroke-width="2" />
<path d="M8639,7552 L1790,7288" stroke="blue" stroke-width="2" />
<path d="M8208,1347 L5128,3161" stroke="blue" stroke-width="2" />
<path d="M5362,4254 L287,8024" stroke="blue" stroke-width="2" />
<path d="M3879,3014 L7825,6635" stroke="blue" stroke-width="2" />
<path d="M6277,3485 L7082,928" stroke="blue" stroke-width="2" />
<path d="M8062,501 L4996,7329" stroke="blue" stroke-width="2" />
<path d="M1829,7074 L778,3597" stroke="blue" stroke-width="2" />
<path d="M3584,3343 L6449,4890" stroke="blue" stroke-width="2" />
<path d="M8070,5139 L8339,6899" stroke="blue" stroke-width="2" />
<path d="M4468,242 L937,6897" stroke="blue" stroke-width="2" />
<path d="M4722,8273 L122,7069" stroke="blue" stroke-width="2" />
<path d="M1860,4097 L5346,4097" stroke="blue" stroke-width="2" />
<path d="M5011,763 L7261,8192" stroke="blue" stroke-width="2" />
<path d="M3546,5187 L94,746" stroke="blue" stroke-width="2" />
<path d="M2816,3395 L8554,554" stroke="blue" stroke-width="2" />
<path d="M740,269 L8225,3741" stroke="blue" stroke-width="2" />
<path d="M6647,4210 L7441,701" stroke="blue" stroke-width="2" />
<path d="M7701,1002 L1141,683" stroke="blue" stroke-width="2" />
<path d="M3,3263 L632,2188" stroke="blue" stroke-width="2" />
<path d="M4788,4564 L5452,6111" stroke="blue" stroke-width="2" />
<path d="M8492,5955 L1768,869" stroke="blue" stroke-width="2" />
<path d="M5243,3995 L5809,67" stroke="blue" stroke-width="2" />
<path d="M2946,8074 L7332,899" stroke="blue" stroke-width="2" />
<path d="M3256,7263 L3644,1616" stroke="blue" stroke-width="2" />
<path d="M148,4972 L4886,2597" stroke="blue" stroke-width="2" />
<path d="M8351,2792 L7898,3663" stroke="blue" stroke-width="2" />
<path d="M4853,2018 L1827,8623" stroke="blue" stroke-width="2" />
<path d="M3951,1154 L5291,5741" stroke="blue" stroke-width="2" />
<path d="M5048,218 L262,3272" stroke="blue" stroke-width="2" />
<path d="M3378,8039 L4772,7281" stroke="blue" stroke-width="2" />
<path d="M5258,5722 L35,2784" stroke="blue" stroke-width="2" />
<path d="M3001,1986 L3272,2416" stroke="blue" stroke-width="2" />
<path d="M1788,8282 L5584,111" stroke="blue" stroke-width="2" />
<path d="M1755,8030 L7718,7829" stroke="blue" stroke-width="2" />
<path d="M8596,3468 L3568,5254" stroke="blue" stroke-width="2" />
<path d="M5113,8460 L3943,8154" stroke="blue" stroke-width="2" />
<path d="M7913,8404 L7415,3145" stroke="blue" stroke-width="2" />
<path d="M7566,3684 L1044,117" stroke="blue" stroke-width="2" />
<path d="M6691,2365 L3462,7295" stroke="blue" stroke-width="2" />
<path d="M6510,3713 L2010,5629" stroke="blue" stroke-width="2" />
<path d="M4865,2791 L4468,6129" stroke="blue" stroke-width="2" />
<path d="M199,2904 L2633,556" stroke="blue" stroke-width="2" />
<path d="M6920,1833 L6076,7564" stroke="blue" stroke-width="2" />
<path d="M388,8397 L5584,8225" stroke="blue" stroke-width="2" />
<path d="M6130,624 L1504,3720" stroke="blue" stroke-width="2" />
<path d="M7559,4860 L2422,2935" stroke="blue" stroke-width="2" />
<path d="M2252,7651 L4684,4870" stroke="blue" stroke-width="2" />
<path d="M4002,1679 L501,2157" stroke="blue" stroke-width="2" />
<path d="M6763,499 L475,7749" stroke="blue" stroke-width="2" />
<path d="M4785,4529 L1772,691" stroke="blue" stroke-width="2" />
<path d="M6859,4671 L7605,1641" stroke="blue" stroke-width="2" />
<path d="M5862,8625 L4123,1090" stroke="blue" stroke-width="2" />
<path d="M3566,5753 L2871,6365" stroke="blue" stroke-width="2" />
<path d="M2599,1276 L3168,2594" stroke="blue" stroke-width="2" />
<path d="M340,2637 L8259,919" stroke="blue" stroke-width="2" />
<path d="M415,7601 L8523,4979" stroke="blue" stroke-width="2" />
<path d="M4645,3040 L1277,3081" stroke="blue" stroke-width="2" />
<path d="M2112,3247 L2042,1480" stroke="blue" stroke-width="2" />
<path d="M526,1116 L5491,2797" stroke="blue" stroke-width="2" />
<path d="M5893,1030 L4994,4998" stroke="blue" stroke-width="2" />
<path d="M1438,7490 L1357,7272" stroke="blue" stroke-width="2" />
<path d="M6704,3137 L326,5219" stroke="blue" stroke-width="2" />
<path d="M862,733 L6419,1109" stroke="blue" stroke-width="2" />
<path d="M2301,6774 L651,7124" stroke="blue" stroke-width="2" />
<path d="M716,6339 L1493,2472" stroke="blue" stroke-width="2" />
<path d="M4051,1197 L1656,6341" stroke="blue" stroke-width="2" />
<path d="M5970,4096 L6715,940" stroke="blue" stroke-width="2" />
<path d="M4121,7911 L4562,7318" stroke="blue" stroke-width="2" />
<path d="M6027,1076 L4548,2330" stroke="blue" stroke-width="2" />
<path d="M3306,3213 L474,7723" stroke="blue" stroke-width="2" />
<path d="M6435,1999 L4136,6006" stroke="blue" stroke-width="2" />
<path d="M6222,835 L7345,2159" stroke="blue" stroke-width="2" />
<path d="M6017,6756 L3024,8272" stroke="blue" stroke-width="2" />
<path d="M5718,6809 L735,4590" stroke="blue" stroke-width="2" />
<path d="M3339,8573 L5903,3491" stroke="blue" stroke-width="2" />
<path d="M1903,1401 L6260,6137" stroke="blue" stroke-width="2" />
<path d="M3590,1479 L5594,8056" stroke="blue" stroke-width="2" />
<path d="M7069,7589 L8,4839" stroke="blue" stroke-width="2" />
<path d="M684,1103 L288,1365" stroke="blue" stroke-width="2" />
<path d="M7512,6433 L8208,6378" stroke="blue" stroke-width="2" />
<path d="M3380,2148 L7153,8622" stroke="blue" stroke-width="2" />
<path d="M2882,3405 L4496,1138" stroke="blue" stroke-width="2" />
<path d="M778,4625 L285,936" stroke="blue" stroke-width="2" />
<path d="M8319,7308 L4612,4403" stroke="blue" stroke-width="2" />
<path d="M2630,3101 L804,4213" stroke="blue" stroke-width="2" />
<path d="M1331,4447 L7758,6300" stroke="blue" stroke-width="2" />
<path d="M1647,5050 L7698,6946" stroke="blue" stroke-width="2" />
<path d="M1964,6828 L6747,3340" stroke="blue" stroke-width="2" />
<path d="M7639,3461 L4278,6592" stroke="blue" stroke-width="2" />
<path d="M3838,5531 L1478,8177" stroke="blue" stroke-width="2" />
<path d="M1411,4116 L1643,4402" stroke="blue" stroke-width="2" />
<path d="M2640,5487 L142,6505" stroke="blue" stroke-width="2" />
<path d="M209,8315 L3028,3865" stroke="blue" stroke-width="2" />
<path d="M5231,4838 L6991,5057" stroke="blue" stroke-width="2" />
<path d="M3626,5875 L3968,3787" stroke="blue" stroke-width="2" />
<path d="M4923,4575 L4639,6607" stroke="blue" stroke-width="2" />
<path d="M6545,6892 L2969,4519" stroke="blue" stroke-width="2" />
<path d="M1355,5767 L6439,4291" stroke="blue" stroke-width="2" />
<path d="M5486,221 L4320,5773" stroke="blue" stroke-width="2" />
<path d="M2416,2178 L4991,3927" stroke="blue" stroke-width="2" />
<path d="M6430,6415 L4544,7763" stroke="blue" stroke-width="2" />
<path d="M7020,6162 L2885,2415" stroke="blue" stroke-width="2" />
<path d="M1626,805 L7737,837" stroke="blue" stroke-width="2" />
<path d="M7155,3797 L46,5570" stroke="blue" stroke-width="2" />
<path d="M7469,5853 L1646,83" stroke="blue" stroke-width="2" />
<path d="M115,8052 L3764,2893" stroke="blue" stroke-width="2" />
<path d="M6889,7920 L7533,212" stroke="blue" stroke-width="2" />
<path d="M179,7694 L749,7382" stroke="blue" stroke-width="2" />
<path d="M3978,4446 L1671,6561" stroke="blue" stroke-width="2" />
<path d="M3429,8110 L8039,4839" stroke="blue" stroke-width="2" />
<path d="M1808,874 L1315,1390" stroke="blue" stroke-width="2" />
<path d="M4070,813 L6550,104" stroke="blue" stroke-width="2" />
<path d="M1550,7512 L7061,1021" stroke="blue" stroke-width="2" />
<path d="M7103,8503 L4111,6639" stroke="blue" stroke-width="2" />
<path d="M5539,730 L233,6125" stroke="blue" stroke-width="2" />
<path d="M4961,3523 L3507,2583" stroke="blue" stroke-width="2" />
<path d="M4639,290 L8052,7467" stroke="blue" stroke-width="2" />
<path d="M4194,5640 L2738,5016" stroke="blue" stroke-width="2" />
<path d="M1096,7128 L4986,8006" stroke="blue" stroke-width="2" />
<path d="M6979,7005 L1371,3897" stroke="blue" stroke-width="2" />
<path d="M5516,1126 L1615,597" stroke="blue" stroke-width="2" />
<path d="M7836,1724 L2926,3990" stroke="blue" stroke-width="2" />
<path d="M1458,7690 L4142,5077" stroke="blue" stroke-width="2" />
<path d="M5773,1584 L8433,7932" stroke="blue" stroke-width="2" />
<path d="M735,1964 L7766,3659" stroke="blue" stroke-width="2" />
<path d="M6147,7033 L6318,3223" stroke="blue" stroke-width="2" />
<path d="M5269,1021 L5475,1988" stroke="blue" stroke-width="2" />
<path d="M5009,3431 L2563,1207" stroke="blue" stroke-width="2" />
<path d="M5641,432 L4133,3300" stroke="blue" stroke-width="2" />
<path d="M5771,84 L2022,5758" stroke="blue" stroke-width="2" />
<path d="M1294,4551 L5809,7444" stroke="blue" stroke-width="2" />
<path d="M488,7869 L3438,8111" stroke="blue" stroke-width="2" />
<path d="M3901,76 L1778,1475" stroke="blue" stroke-width="2" />
<path d="M847,6327 L1010,6016" stroke="blue" stroke-width="2" />
<path d="M1849,3026 L996,6954" stroke="blue" stroke-width="2" />
<path d="M4860,7233 L7305,940" stroke="blue" stroke-width="2" />
<path d="M439,3826 L870,5179" stroke="blue" stroke-width="2" />
<path d="M4924,4951 L329,3323" stroke="blue" stroke-width="2" />
<path d="M4981,1887 L4560,6509" stroke="blue" stroke-width="2" />
<path d="M3719,189 L2033,8652" stroke="blue" stroke-width="2" />
<path d="M2315,5748 L5082,7478" stroke="blue" stroke-width="2" />
<path d="M3528,7331 L6891,4710" stroke="blue" stroke-width="2" />
<path d="M4410,7342 L1157,1480" stroke="blue" stroke-width="2" />
<path d="M7813,1392 L7232,2975" stroke="blue" stroke-width="2" />
<path d="M8304,5147 L4034,5" stroke="blue" stroke-width="2" />
<path d="M4473,730 L149,1280" stroke="blue" stroke-width="2" />
<path d="M3746,8483 L6885,1915" stroke="blue" stroke-width="2" />
<path d="M2077,7029 L5291,5831" stroke="blue" stroke-width="2" />
<path d="M4208,2906 L2943,4974" stroke="blue" stroke-width="2" />
<path d="M6006,2715 L5745,4740" stroke="blue" stroke-width="2" />
<path d="M5729,2316 L2963,6125" stroke="blue" stroke-width="2" />
<path d="M230,2014 L179,818" stroke="blue" stroke-width="2" />
<path d="M7760,2200 L4738,798" stroke="blue" stroke-width="2" />
<path d="M8484,3192 L2031,7381" stroke="blue" stroke-width="2" />
<path d="M1843,7279 L6473,4178" stroke="blue" stroke-width="2" />
<path d="M4444,6007 L7594,6106" stroke="blue" stroke-width="2" />
<path d="M4093,247 L7237,7285" stroke="blue" stroke-width="2" />
<path d="M5797,4550 L3872,424" stroke="blue" stroke-width="2" />
<path d="M1527,5636 L3972,1537" stroke="blue" stroke-width="2" />
<path d="M3594,6279 L454,7735" stroke="blue" stroke-width="2" />
<path d="M5883,1531 L4137,753" stroke="blue" stroke-width="2" />
<path d="M4556,1594 L3770,3136" stroke="blue" stroke-width="2" />
<path d="M4427,2474 L8027,2322" stroke="blue" stroke-width="2" />
<path d="M2072,6242 L7428,8059" stroke="blue" stroke-width="2" />
<path d="M8594,231 L8621,1831" stroke="blue" stroke-width="2" />
<path d="M3187,4277 L6084,8540" stroke="blue" stroke-width="2" />
<path d="M1620,5048 L1256,3182" stroke="blue" stroke-width="2" />
<path d="M1937,6962 L6059,1350" stroke="blue" stroke-width="2" />
<path d="M8071,4168 L6555,805" stroke="blue" stroke-width="2" />
<path d="M277,5162 L3872,7477" stroke="blue" stroke-width="2" />
<path d="M861,2100 L3994,3065" stroke="blue" stroke-width="2" />
<path d="M2441,5115 L1737,3401" stroke="blue" stroke-width="2" />
<path d="M6871,6776 L1253,551" stroke="blue" stroke-width="2" />
<path d="M7028,5521 L451,6686" stroke="blue" stroke-width="2" />
<path d="M2642,2648 L131,5067" stroke="blue" stroke-width="2" />
<path d="M6120,3907 L515,5433" stroke="blue" stroke-width="2" />
<path d="M4044,3495 L451,4540" stroke="blue" stroke-width="2" />
<path d="M5669,930 L3988,979" stroke="blue" stroke-width="2" />
<path d="M2100,8178 L7043,2873" stroke="blue" stroke-width="2" />
<path d="M6900,690 L5451,6676" stroke="blue" stroke-width="2" />
<path d="M8590,1858 L949,6792" stroke="blue" stroke-width="2" />
<path d="M4313,1395 L4126,4979" stroke="blue" stroke-width="2" />
<path d="M7803,3262 L7828,4851" stroke="blue" stroke-width="2" />
<path d="M2687,4292 L4467,808" stroke="blue" stroke-width="2" />
<path d="M3882,6704 L3451,803" stroke="blue" stroke-width="2" />
<path d="M4672,2042 L6505,1610" stroke="blue" stroke-width="2" />
<path d="M4097,2533 L2317,5705" stroke="blue" stroke-width="2" />
<path d="M77,166 L1055,1486" stroke="blue" stroke-width="2" />
<path d="M3251,1241 L5806,3322" stroke="blue" stroke-width="2" />
<path d="M4414,7814 L490,1993" stroke="blue" stroke-width="2" />
<path d="M4136,2016 L4323,732" stroke="blue" stroke-width="2" />
<path d="M4585,7681 L7339,5221" stroke="blue" stroke-width="2" />
<path d="M5834,2349 L6826,5348" stroke="blue" stroke-width="2" />
<path d="M5323,3374 L4199,2744" stroke="blue" stroke-width="2" />
<path d="M2020,2060 L2563,5769" stroke="blue" stroke-width="2" />
<path d="M6194,1888 L8005,7743" stroke="blue" stroke-width="2" />
<path d="M40,7979 L1141,1275" stroke="blue" stroke-width="2" />
<path d="M3823,5639 L7431,5186" stroke="blue" stroke-width="2" />
<path d="M7642,7940 L7325,4838" stroke="blue" stroke-width="2" />
<path d="M2901,3517 L1106,5080" stroke="blue" stroke-width="2" />
<path d="M962,3617 L2146,1342" stroke="blue" stroke-width="2" />
<path d="M2847,3176 L838,785" stroke="blue" stroke-width="2" />
<path d="M2371,554 L8060,1574" stroke="blue" stroke-width="2" />
<path d="M8162,1465 L4301,2649" stroke="blue" stroke-width="2" />
<path d="M2064,7249 L6179,2618" stroke="blue" stroke-width="2" />
<path d="M2913,4502 L5913,6049" stroke="blue" stroke-width="2" />
<path d="M8387,6616 L1910,6387" stroke="blue" stroke-width="2" />
<path d="M3223,2240 L105,5638" stroke="blue" stroke-width="2" />
<path d="M6249,2423 L6870,7942" stroke="blue" stroke-width="2" />
<path d="M6976,4500 L6781,4478" stroke="blue" stroke-width="2" />
<path d="M1686,3937 L376,3884" stroke="blue" stroke-width="2" />
<path d="M1292,1004 L2405,691" stroke="blue" stroke-width="2" />
<path d="M8432,1870 L8235,2313" stroke="blue" stroke-width="2" />
<path d="M7798,2302 L4258,1208" stroke="blue" stroke-width="2" />
<path d="M2228,4340 L2402,1808" stroke="blue" stroke-width="2" />
<path d="M3415,7795 L6809,4201" stroke="blue" stroke-width="2" />
<path d="M3231,3132 L2506,5387" stroke="blue" stroke-width="2" />
<path d="M1818,6904 L7955,5008" stroke="blue" stroke-width="2" />
<path d="M4877,5317 L1144,1970" stroke="blue" stroke-width="2" />
<path d="M3810,4915 L6200,6739" stroke="blue" stroke-width="2" />
<path d="M1525,8250 L1115,6982" stroke="blue" stroke-width="2" />
<path d="M1468,5867 L8163,8551" stroke="blue" stroke-width="2" />
<path d="M1891,2388 L8620,700" stroke="blue" stroke-width="2" />
<path d="M7005,4388 L3238,1393" stroke="blue" stroke-width="2" />
<path d="M6478,2594 L6676,6574" stroke="blue" stroke-width="2" />
<path d="M238,4445 L152,730" stroke="blue" stroke-width="2" />
<path d="M1046,5881 L7796,3571" stroke="blue" stroke-width="2" />
<path d="M8524,2574 L3724,3316" stroke="blue" stroke-width="2" />
<path d="M4323,7706 L4203,8377" stroke="blue" stroke-width="2" />
<path d="M4964,2498 L3509,17" stroke="blue" stroke-width="2" />
<path d="M7349,5169 L601,6442" stroke="blue" stroke-width="2" />
<path d="M397,4259 L8315,6070" stroke="blue" stroke-width="2" />
<path d="M2339,4858 L4020,6817" stroke="blue" stroke-width="2" />
<path d="M1898,514 L6506,4680" stroke="blue" stroke-width="2" />
<path d="M7488,7580 L1340,1737" stroke="blue" stroke-width="2" />
<path d="M2670,1692 L5038,4377" stroke="blue" stroke-width="2" />
<path d="M7978,5265 L5226,7656" stroke="blue" stroke-width="2" />
<path d="M8431,2251 L1698,6679" stroke="blue" stroke-width="2" />
<path d="M3647,5757 L1995,3202" stroke="blue" stroke-width="2" />
<path d="M4211,3581 L1306,5279" stroke="blue" stroke-width="2" />
<path d="M4356,7216 L2858,3648" stroke="blue" stroke-width="2" />
<path d="M8213,4984 L7837,216" stroke="blue" stroke-width="2" />
<path d="M4457,2824 L5091,3333" stroke="blue" stroke-width="2" />
<path d="M7294,5250 L7297,8644" stroke="blue" stroke-width="2" />
<path d="M6594,3408 L4583,3798" stroke="blue" stroke-width="2" />
<path d="M2403,3656 L3260,3400" stroke="blue" stroke-width="2" />
<path d="M6130,4431 L3363,6132" stroke="blue" stroke-width="2" />
<path d="M6917,4027 L5258,5203" stroke="blue" stroke-width="2" />
<path d="M2304,3682 L1316,7633" stroke="blue" stroke-width="2" />
<path d="M2676,2672 L4123,8200" stroke="blue" stroke-width="2" />
<path d="M6841,262 L6790,4963" stroke="blue" stroke-width="2" />
<path d="M3573,7506 L1296,1265" stroke="blue" stroke-width="2" />
<path d="M7596,6132 L4903,2903" stroke="blue" stroke-width="2" />
<path d="M2117,4543 L3136,2446" stroke="blue" stroke-width="2" />
<path d="M842,565 L1915,3615" stroke="blue" stroke-width="2" />
<path d="M2159,3357 L7779,512" stroke="blue" stroke-width="2" />
<path d="M6212,8626 L4240,6316" stroke="blue" stroke-width="2" />
<path d="M849,7936 L1229,1412" stroke="blue" stroke-width="2" />
<path d="M628,7318 L5921,7406" stroke="blue" stroke-width="2" />
<path d="M6871,1836 L1391,4848" stroke="blue" stroke-width="2" />
<path d="M6288,36 L218,6599" stroke="blue" stroke-width="2" />
<path d="M7215,7710 L4158,6078" stroke="blue" stroke-width="2" />
<path d="M4454,2982 L7686,1579" stroke="blue" stroke-width="2" />
<path d="M6452,1379 L7460,7380" stroke="blue" stroke-width="2" />
<path d="M3929,8219 L1295,5956" stroke="blue" stroke-width="2" />
<path d="M8403,3968 L2378,78" stroke="blue" stroke-width="2" />
<path d="M7275,2691 L750,1335" stroke="blue" stroke-width="2" />
<path d="M3261,2434 L2227,3551" stroke="blue" stroke-width="2" />
<path d="M4135,870 L785,2505" stroke="blue" stroke-width="2" />
<path d="M5471,2601 L2812,2113" stroke="blue" stroke-width="2" />
<path d="M393,1759 L5890,1622" stroke="blue" stroke-width="2" />
<path d="M1587,8144 L6756,5349" stroke="blue" stroke-width="2" />
<path d="M258,7211 L3118,6510" stroke="blue" stroke-width="2" />
<path d="M8262,6746 L2726,733" stroke="blue" stroke-width="2" />
<path d="M5303,7803 L6592,1367" stroke="blue" stroke-width="2" />
<path d="M150,5563 L8564,289" stroke="blue" stroke-width="2" />
<path d="M5157,3485 L5380,1392" stroke="blue" stroke-width="2" />
<path d="M1897,4267 L596,952" stroke="blue" stroke-width="2" />
<path d="M381,1738 L8468,6994" stroke="blue" stroke-width="2" />
<path d="M2395,4901 L2441,4646" stroke="blue" stroke-width="2" />
<path d="M4418,8309 L7860,315" stroke="blue" stroke-width="2" />
<path d="M2830,366 L8117,5163" stroke="blue" stroke-width="2" />
<path d="M4712,8436 L2391,2112" stroke="blue" stroke-width="2" />
<path d="M2441,3174 L6158,199" stroke="blue" stroke-width="2" />
<path d="M2766,4570 L6291,8264" stroke="blue" stroke-width="2" />
<path d="M4950,3526 L7366,2502" stroke="blue" stroke-width="2" />
<path d="M466,8598 L4597,2362" stroke="blue" stroke-width="2" />
<path d="M1421,3966 L2664,8252" stroke="blue" stroke-width="2" />
<path d="M4994,6920 L6001,8011" stroke="blue" stroke-width="2" />
<path d="M7587,8044 L1264,486" stroke="blue" stroke-width="2" />
<path d="M6289,6713 L3917,2465" stroke="blue" stroke-width="2" />
<path d="M2963,7310 L5052,1651" stroke="blue" stroke-width="2" />
<path d="M6119,2439 L6873,2619" stroke="blue" stroke-width="2" />
<path d="M6225,7042 L7823,1291" stroke="blue" stroke-width="2" />
<path d="M5300,2421 L5393,7169" stroke="blue" stroke-width="2" />
<path d="M1927,5857 L2368,4407" stroke="blue" stroke-width="2" />
<path d="M8008,2652 L1260,6208" stroke="blue" stroke-width="2" />
<path d="M7303,1811 L5842,3104" stroke="blue" stroke-width="2" />
<path d="M7485,7738 L4136,6813" stroke="blue" stroke-width="2" />
<path d="M1163,6987 L4208,3348" stroke="blue" stroke-width="2" />
<path d="M1707,7065 L7736,469" stroke="blue" stroke-width="2" />
<path d="M1798,1541 L2867,5977" stroke="blue" stroke-width="2" />
<path d="M788,6516 L7233,7815" stroke="blue" stroke-width="2" />
<path d="M8312,8465 L7743,317" stroke="blue" stroke-width="2" />
<path d="M3458,7789 L7912,4845" stroke="blue" stroke-width="2" />
<path d="M1484,8512 L6958,7405" stroke="blue" stroke-width="2" />
<path d="M7674,5376 L8340,8323" stroke="blue" stroke-width="2" />
<path d="M2495,7645 L4234,2374" stroke="blue" stroke-width="2" />
<path d="M1925,5634 L5262,689" stroke="blue" stroke-width="2" />
<path d="M8184,8006 L2840,7059" stroke="blue" stroke-width="2" />
<path d="M102,6853 L5635,1833" stroke="blue" stroke-width="2" />
<path d="M714,1819 L7844,1639" stroke="blue" stroke-width="2" />
<path d="M2722,1565 L5302,6361" stroke="blue" stroke-width="2" />
<path d="M7522,6454 L5618,1395" stroke="blue" stroke-width="2" />
<path d="M1758,2178 L7009,778" stroke="blue" stroke-width="2" />
<path d="M8074,861 L780,4366" stroke="blue" stroke-width="2" />
<path d="M1687,4443 L911,2222" stroke="blue" stroke-width="2" />
<path d="M4497,7427 L3199,2231" stroke="blue" stroke-width="2" />
<path d="M3148,3620 L5553,3595" stroke="blue" stroke-width="2" />
<path d="M2876,1643 L3603,5924" stroke="blue" stroke-width="2" />
<path d="M2633,1125 L4933,6722" stroke="blue" stroke-width="2" />
<path d="M2620,4222 L6785,3072" stroke="blue" stroke-width="2" />
<path d="M6137,1269 L1909,1751" stroke="blue" stroke-width="2" />
<path d="M6547,2970 L7872,8598" stroke="blue" stroke-width="2" />
<path d="M3550,961 L1856,407" stroke="blue" stroke-width="2" />
<path d="M6561,1099 L1009,5911" stroke="blue" stroke-width="2" />
<path d="M765,6939 L6198,8010" stroke="blue" stroke-width="2" />
<path d="M3112,6080 L3413,7088" stroke="blue" stroke-width="2" />
<path d="M749,1217 L8606,4976" stroke="blue" stroke-width="2" />
<path d="M606,2364 L8372,345" stroke="blue" stroke-width="2" />
<path d="M666,7554 L4445,1506" stroke="blue" stroke-width="2" />
<path d="M5969,828 L5003,3766" stroke="blue" stroke-width="2" />
<path d="M6680,357 L1987,6947" stroke="blue" stroke-width="2" />
<path d="M7115,6886 L335,184" stroke="blue" stroke-width="2" />
<path d="M6407,5505 L7095,4125" stroke="blue" stroke-width="2" />
<path d="M8116,695 L4268,4228" stroke="blue" stroke-width="2" />
<path d="M3245,7428 L8108,816" stroke="blue" stroke-width="2" />
<path d="M3341,5957 L320,7005" stroke="blue" stroke-width="2" />
<path d="M1602,6750 L4820,3399" stroke="blue" stroke-width="2" />
<path d="M299,7128 L7837,873" stroke="blue" stroke-width="2" />
<path d="M7360,3722 L5,7439" stroke="blue" stroke-width="2" />
<path d="M7822,7301 L3102,58" stroke="blue" stroke-width="2" />
<path d="M8002,5723 L2616,69" stroke="blue" stroke-width="2" />
<path d="M3672,662 L644,7773" stroke="blue" stroke-width="2" />
<path d="M844,4760 L2759,1929" stroke="blue" stroke-width="2" />
<path d="M6771,5156 L1735,1248" stroke="blue" stroke-width="2" />
<path d="M1107,5603 L6404,3978" stroke="blue" stroke-width="2" />
<path d="M8283,3676 L3621,1535" stroke="blue" stroke-width="2" />
<path d="M1238,5665 L2879,4155" stroke="blue" stroke-width="2" />
<path d="M7225,5353 L7202,7395" stroke="blue" stroke-width="2" />
<path d="M2887,4509 L6872,1058" stroke="blue" stroke-width="2" />
<path d="M502,315 L834,8475" stroke="blue" stroke-width="2" />
<path d="M6706,2128 L2118,7917" stroke="blue" stroke-width="2" />
<path d="M7153,3547 L4948,7478" stroke="blue" stroke-width="2" />
<path d="M7886,2975 L1454,4510" stroke="blue" stroke-width="2" />
<path d="M3604,3775 L3187,5464" stroke="blue" stroke-width="2" />
<path d="M3286,2213 L598,7875" stroke="blue" stroke-width="2" />
<path d="M5686,721 L7408,7392" stroke="blue" stroke-width="2" />
<path d="M1167,7511 L2543,8093" stroke="blue" stroke-width="2" />
<path d="M3498,936 L3564,4813" stroke="blue" stroke-width="2" />
<path d="M6078,1885 L4948,3388" stroke="blue" stroke-width="2" />
<path d="M1749,7015 L899,4232" stroke="blue" stroke-width="2" />
<path d="M981,2528 L2299,7151" stroke="blue" stroke-width="2" />
<path d="M1478,2507 L2749,6114" stroke="blue" stroke-width="2" />
<path d="M5718,6258 L5749,8205" stroke="blue" stroke-width="2" />
<path d="M1476,5996 L1383,2172" stroke="blue" stroke-width="2" />
<path d="M3793,6249 L5266,7755" stroke="blue" stroke-width="2" />
<path d="M5132,7799 L7683,878" stroke="blue" stroke-width="2" />
<path d="M4029,3401 L5270,6606" stroke="blue" stroke-width="2" />
<path d="M1454,2463 L8504,6328" stroke="blue" stroke-width="2" />
<path d="M8063,5449 L718,7794" stroke="blue" stroke-width="2" />
<path d="M2654,8621 L6048,1162" stroke="blue" stroke-width="2" />
<path d="M7412,4019 L8200,680" stroke="blue" stroke-width="2" />
<path d="M2645,4169 L4181,5757" stroke="blue" stroke-width="2" />
<path d="M1592,3531 L3348,7461" stroke="blue" stroke-width="2" />
<path d="M3017,4568 L2969,2687" stroke="blue" stroke-width="2" />
<path d="M2893,1877 L3346,5214" stroke="blue" stroke-width="2" />
<path d="M7072,1576 L642,1517" stroke="blue" stroke-width="2" />
<path d="M7533,8353 L389,7688" stroke="blue" stroke-width="2" />
<path d="M431,8631 L8519,4866" stroke="blue" stroke-width="2" />
<path d="M7723,8368 L5117,666" stroke="blue" stroke-width="2" />
<path d="M6517,5168 L5112,8036" stroke="blue" stroke-width="2" />
<path d="M7214,8510 L6423,8063" stroke="blue" stroke-width="2" />
<path d="M3399,1219 L6809,8196" stroke="blue" stroke-width="2" />
<path d="M2290,2801 L2641,1480" stroke="blue" stroke-width="2" />
<path d="M108,1219 L5848,2148" stroke="blue" stroke-width="2" />
<path d="M4406,6905 L79,4446" stroke="blue" stroke-width="2" />
<path d="M7836,8591 L3995,6423" stroke="blue" stroke-width="2" />
<path d="M195,6919 L5104,5319" stroke="blue" stroke-width="2" />
<path d="M6176,4385 L8507,5374" stroke="blue" stroke-width="2" />
<path d="M2279,382 L3891,5363" stroke="blue" stroke-width="2" />
<path d="M652,7241 L1354,1623" stroke="blue" stroke-width="2" />
<path d="M4154,1713 L5608,5782" stroke="blue" stroke-width="2" />
<path d="M1819,2529 L7328,7155" stroke="blue" stroke-width="2" />
<path d="M46,64 L6859,55" stroke="blue" stroke-width="2" />
<path d="M8451,322 L4202,5097" stroke="blue" stroke-width="2" />
<path d="M3866,5004 L908,5124" stroke="blue" stroke-width="2" />
<path d="M3,5508 L4788,2525" stroke="blue" stroke-width="2" />
<path d="M2711,3219 L6888,7402" stroke="blue" stroke-width="2" />
<path d="M8630,6542 L7719,1887" stroke="blue" stroke-width="2" />
<path d="M2394,4273 L3154,8016" stroke="blue" stroke-width="2" />
<path d="M5507,8344 L7698,6696" stroke="blue" stroke-width="2" />
<path d="M1507,2909 L7356,5080" stroke="blue" stroke-width="2" />
<path d="M3021,6427 L4979,5831" stroke="blue" stroke-width="2" />
<path d="M816,6852 L322,6628" stroke="blue" stroke-width="2" />
<path d="M5544,5893 L7112,674" stroke="blue" stroke-width="2" />
<path d="M2193,461 L749,5792" stroke="blue" stroke-width="2" />
<path d="M3980,335 L8485,338" stroke="blue" stroke-width="2" />
<path d="M4347,5279 L8343,3370" stroke="blue" stroke-width="2" />
<path d="M3832,6454 L4220,1061" stroke="blue" stroke-width="2" />
<path d="M6421,7514 L853,751" stroke="blue" stroke-width="2" />
<path d="M3436,7128 L3122,554" stroke="blue" stroke-width="2" />
<path d="M7845,2312 L1061,6605" stroke="blue" stroke-width="2" />
<path d="M6733,4946 L4735,8386" stroke="blue" stroke-width="2" />
<path d="M42,7365 L718,5750" stroke="blue" stroke-width="2" />
<path d="M1291,3454 L6522,8614" stroke="blue" stroke-width="2" />
<path d="M6332,237 L1275,1817" stroke="blue" stroke-width="2" />
<path d="M187,4265 L5624,6264" stroke="blue" stroke-width="2" />
<path d="M4527,2368 L3639,3423" stroke="blue" stroke-width="2" />
<path d="M3671,1630 L1745,7719" stroke="blue" stroke-width="2" />
<path d="M6941,1036 L8460,4489" stroke="blue" stroke-width="2" />
<path d="M2561,789 L3807,8223" stroke="blue" stroke-width="2" />
<path d="M4440,5464 L6986,6095" stroke="blue" stroke-width="2" />
<path d="M3878,2107 L8081,6748" stroke="blue" stroke-width="2" />
<path d="M3624,455 L4087,4262" stroke="blue" stroke-width="2" />
<path d="M2010,7539 L1889,2239" stroke="blue" stroke-width="2" />
<path d="M7246,2312 L6553,1096" stroke="blue" stroke-width="2" />
<path d="M8539,5057 L7658,3381" stroke="blue" stroke-width="2" />
<path d="M8235,2584 L2650,4091" stroke="blue" stroke-width="2" />
<path d="M8544,875 L1942,3030" stroke="blue" stroke-width="2" />
<path d="M8607,1945 L3024,6109" stroke="blue" stroke-width="2" />
<path d="M4250,4008 L985,7933" stroke="blue" stroke-width="2" />
<path d="M722,5394 L8456,4433" stroke="blue" stroke-width="2" />
<path d="M6628,2650 L7450,7328" stroke="blue" stroke-width="2" />
<path d="M7161,8529 L8238,1276" stroke="blue" stroke-width="2" />
<path d="M5478,1498 L6771,2684" stroke="blue" stroke-width="2" />
<path d="M8356,809 L6640,5636" stroke="blue" stroke-width="2" />
<path d="M3445,1163 L6878,3355" stroke="blue" stroke-width="2" />
<path d="M399,747 L2028,6135" stroke="blue" stroke-width="2" />
<path d="M3300,1341 L6932,8407" stroke="blue" stroke-width="2" />
<path d="M3947,8093 L7009,4360" stroke="blue" stroke-width="2" />
<path d="M2453,1874 L6419,8150" stroke="blue" stroke-width="2" />
<path d="M8461,1479 L5854,5379" stroke="blue" stroke-width="2" />
<path d="M8371,2056 L7184,6414" stroke="blue" stroke-width="2" />
<path d="M5328,8142 L8605,3440" stroke="blue" stroke-width="2" />
<path d="M2921,2071 L3384,6765" stroke="blue" stroke-width="2" />
<path d="M7096,8021 L6206,2815" stroke="blue" stroke-width="2" />
<path d="M5863,2025 L895,3605" stroke="blue" stroke-width="2" />
<path d="M8129,2549 L6678,6018" stroke="blue" stroke-width="2" />
<path d="M2544,7427 L3554,4423" stroke="blue" stroke-width="2" />
<path d="M1089,6332 L1202,1356" stroke="blue" stroke-width="2" />
<path d="M8256,1379 L3689,234" stroke="blue" stroke-width="2" />
<path d="M5547,7181 L8544,4806" stroke="blue" stroke-width="2" />
<path d="M6408,2551 L7996,4115" stroke="blue" stroke-width="2" />
<path d="M5620,2826 L6055,3249" stroke="blue" stroke-width="2" />
<path d="M1562,511 L4428,3078" stroke="blue" stroke-width="2" />
<path d="M7304,1952 L5263,3581" stroke="blue" stroke-width="2" />
<path d="M4213,2504 L4698,1618" stroke="blue" stroke-width="2" />
<path d="M2584,2568 L5835,2660" stroke="blue" stroke-width="2" />
<path d="M8098,5854 L6925,5363" stroke="blue" stroke-width="2" />
<path d="M5015,8012 L7652,2497" stroke="blue" stroke-width="2" />
<path d="M1569,4904 L6252,1444" stroke="blue" stroke-width="2" />
<path d="M6555,2675 L7996,5858" stroke="blue" stroke-width="2" />
<path d="M1477,2567 L3801,4641" stroke="blue" stroke-width="2" />
<path d="M5950,2859 L3803,8176" stroke="blue" stroke-width="2" />
<path d="M7108,2672 L2073,192" stroke="blue" stroke-width="2" />
<path d="M7887,5103 L3040,5388" stroke="blue" stroke-width="2" />
<path d="M6868,6091 L7368,6143" stroke="blue" stroke-width="2" />
<path d="M0,0 L8641,0" stroke="red" stroke-width="10" />
<path d="M8641,0 L8641,8661" stroke="red" stroke-width="10" />
<path d="M0,8661 L8641,8661" stroke="red" stroke-width="10" />
<path d="M0,8661 L0,0" stroke="red" stroke-width="10" />
</svg>