<?xml version="1.0" encoding="UTF-8"?>
<svg xmlns="http://www.w3.org/2000/svg" xmlns:xlink="http://www.w3.org/1999/xlink"
     width="10000" height="10000" viewBox="0 0 10000 10000">
<defs>
</defs>
<path d="M1229,3855 L7450,5368" stroke="blue" stroke-width="2" />
<path d="M2522,6797 L2742,4145" stroke="blue" stroke-width="2" />
<path d="M4928,2763 L2538,5806" stroke="blue" stroke-width="2" />
<path d="M1961,6932 L1734,6343" stroke="blue" stroke-width="2" />
<path d="M8385,2106 L4322,4795" stroke="blue" stroke-width="2" />
<path d="M7474,6618 L1200,3239" stroke="blue" stroke-width="2" />
<path d="M4157,6891 L4089,7886" stroke="blue" stroke-width="2" />
<path d="M8443,6745 L7005,1757" stroke="blue" stroke-width="2" />
<path d="M4971,1516 L621,791" stroke="blue" stroke-width="2" />
<path d="M5470,5570 L5675,149" stroke="blue" stroke-width="2" />
<path d="M5879,1534 L8372,1917" stroke="blue" stroke-width="2" />
<path d="M6300,5369 L397,5585" stroke="blue" stroke-width="2" />
<path d="M7249,7977 L6490,644" stroke="blue" stroke-width="2" />
<path d="M7274,7330 L1757,2806" stroke="blue" stroke-width="2" />
<path d="M8235,1428 L6773,6483" stroke="blue" stroke-width="2" />
<path d="M2200,5367 L6119,8869" stroke="blue" stroke-width="2" />
<path d="M5506,3581 L584,4151" stroke="blue" stroke-width="2" />
<path d="M3531,6427 L7490,8280" stroke="blue" stroke-width="2" />
<path d="M8358,1411 L8144,6685" stroke="blue" stroke-width="2" />
<path d="M7989,1259 L7538,4470" stroke="blue" stroke-width="2" />
<path d="M5284,5666 L3964,3062" stroke="blue" stroke-width="2" />
<path d="M3290,287 L7005,6234" stroke="blue" stroke-width="2" />
<path d="M5441,2720 L5800,6239" stroke="blue" stroke-width="2" />
<path d="M849,6668 L6817,8815" stroke="blue" stroke-width="2" />
<path d="M6992,5703 L4556,4637" stroke="blue" stroke-width="2" />
<path d="M2121,8687 L1519,7722" stroke="blue" stroke-width="2" />
<path d="M7251,2536 L6662,22" stroke="blue" stroke-width="2" />
<path d="M1784,6403 L1655,5998" stroke="blue" stroke-width="2" />
<path d="M5514,3936 L7336,8259" stroke="blue" stroke-width="2" />
<path d="M3248,7540 L6322,2458" stroke="blue" stroke-width="2" />
<path d="M4391,6727 L4965,5918" stroke="blue" stroke-width="2" />
<path d="M503,5525 L5665,6261" stroke="blue" stroke-width="2" />
<path d="M132,885 L1641,313" stroke="blue" stroke-width="2" />
<path d="M4976,3980 L6684,2137" stroke="blue" stroke-width="2" />
<path d="M6039,3227 L4786,6043" stroke="blue" stroke-width="2" />
<path d="M1246,2112 L871,4607" stroke="blue" stroke-width="2" />
<path d="M4610,8709 L3757,8850" stroke="blue" stroke-width="2" />
<path d="M5929,5401 L4429,6599" stroke="blue" stroke-width="2" />
<path d="M1206,310 L509,2763" stroke="blue" stroke-width="2" />
<path d="M21,5788 L1334,696" stroke="blue" stroke-width="2" />
<path d="M2933,5601 L3763,8777" stroke="blue" stroke-width="2" />
<path d="M3584,1358 L7177,2760" stroke="blue" stroke-width="2" />
<path d="M1743,4003 L5864,7029" stroke="blue" stroke-width="2" />
<path d="M1037,4913 L1720,4482" stroke="blue" stroke-width="2" />
<path d="M4541,8562 L3023,4236" stroke="blue" stroke-width="2" />
<path d="M2879,2443 L7746,6669" stroke="blue" stroke-width="2" />
<path d="M4647,4884 L2638,7038" stroke="blue" stroke-width="2" />
<path d="M8207,4369 L3041,8923" stroke="blue" stroke-width="2" />
<path d="M75,9358 L3677,3103" stroke="blue" stroke-width="2" />
<path d="M301,6329 L3198,1368" stroke="blue" stroke-width="2" />
<path d="M8300,8647 L7081,916" stroke="blue" stroke-width="2" />
<path d="M5964,6795 L4095,6282" stroke="blue" stroke-width="2" />
<path d="M3115,5782 L4176,236" stroke="blue" stroke-width="2" />
<path d="M7510,215 L6346,892" stroke="blue" stroke-width="2" />
<path d="M3961,4584 L3181,2111" stroke="blue" stroke-width="2" />
<path d="M3433,2431 L4700,6739" stroke="blue" stroke-width="2" />
<path d="M6421,4333 L6058,2409" stroke="blue" stroke-width="2" />
<path d="M4470,4302 L3252,405" stroke="blue" stroke-width="2" />
<path d="M3507,9035 L5395,108" stroke="blue" stroke-width="2" />
<path d="M6992,2670 L8228,7431" stroke="blue" stroke-width="2" />
<path d="M4707,8782 L1906,778" stroke="blue" stroke-width="2" />
<path d="M852,1560 L5513,6474" stroke="blue" stroke-width="2" />
<path d="M7800,2499 L7617,1838" stroke="blue" stroke-width="2" />
<path d="M3554,4879 L3297,9311" stroke="blue" stroke-width="2" />
<path d="M1758,5186 L2354,6965" stroke="blue" stroke-width="2" />
<path d="M2291,7585 L3947,333" stroke="blue" stroke-width="2" />
<path d="M5846,9033 L3858,2208" stroke="blue" stroke-width="2" />
<path d="M8145,7984 L1742,7097" stroke="blue" stroke-width="2" />
<path d="M3750,4052 L6092,4358" stroke="blue" stroke-width="2" />
<path d="M7800,4544 L999,7768" stroke="blue" stroke-width="2" />
<path d="M1354,2517 L7095,2067" stroke="blue" stroke-width="2" />
<path d="M1859,2863 L2505,2363" stroke="blue" stroke-width="2" />
<path d="M5383,2533 L2848,1788" stroke="blue" stroke-width="2" />
<path d="M4726,3147 L7127,5445" stroke="blue" stroke-width="2" />
<path d="M712,7599 L6571,7687" stroke="blue" stroke-width="2" />
<path d="M4371,2591 L8050,5938" stroke="blue" stroke-width="2" />
<path d="M6326,3669 L763,7082" stroke="blue" stroke-width="2" />
<path d="M781,6544 L3659,4584" stroke="blue" stroke-width="2" />
<path d="M4608,7815 L8403,3210" stroke="blue" stroke-width="2" />
<path d="M1718,2983 L4261,3246" stroke="blue" stroke-width="2" />
<path d="M1981,3325 L2134,8886" stroke="blue" stroke-width="2" />
<path d="M4128,6856 L4763,5759" stroke="blue" stroke-width="2" />
<path d="M6053,3370 L1736,9322" stroke="blue" stroke-width="2" />
<path d="M5234,5481 L635,7166" stroke="blue" stroke-width="2" />
<path d="M5022,3802 L7412,1387" stroke="blue" stroke-width="2" />
<path d="M7096,2200 L4097,3103" stroke="blue" stroke-width="2" />
<path d="M7267,9347 L1080,1491" stroke="blue" stroke-width="2" />
<path d="M5425,423 L6504,9265" stroke="blue" stroke-width="2" />
<path d="M4989,1350 L2109,1171" stroke="blue" stroke-width="2" />
<path d="M3498,6328 L5830,1066" stroke="blue" stroke-width="2" />
<path d="M2259,8080 L3467,3781" stroke="blue" stroke-width="2" />
<path d="M3441,2192 L381,3671" stroke="blue" stroke-width="2" />
<path d="M1070,1186 L2539,2492" stroke="blue" stroke-width="2" />
<path d="M175,9021 L6415,2625" stroke="blue" stroke-width="2" />
<path d="M4056,5943 L453,5609" stroke="blue" stroke-width="2" />
<path d="M2592,4001 L527,3376" stroke="blue" stroke-width="2" />
<path d="M6693,5506 L5945,262" stroke="blue" stroke-width="2" />
<path d="M2795,8614 L8017,1172" stroke="blue" stroke-width="2" />
<path d="M1727,3838 L2780,468" stroke="blue" stroke-width="2" />
<path d="M4768,6940 L7594,1348" stroke="blue" stroke-width="2" />
<path d="M2691,3399 L8349,311" stroke="blue" stroke-width="2" />
<path d="M2705,3255 L7353,6230" stroke="blue" stroke-width="2" />
<path d="M5642,1486 L784,4214" stroke="blue" stroke-width="2" />
<path d="M2556,1307 L7472,1585" stroke="blue" stroke-width="2" />
<path d="M8021,6158 L5715,8672" stroke="blue" stroke-width="2" />
<path d="M619,3317 L6964,8682" stroke="blue" stroke-width="2" />
<path d="M7473,3705 L2300,7324" stroke="blue" stroke-width="2" />
<path d="M387,6462 L4190,3634" stroke="blue" stroke-width="2" />
<path d="M1675,4923 L6644,5605" stroke="blue" stroke-width="2" />
<path d="M1212,6073 L3631,661" stroke="blue" stroke-width="2" />
<path d="M5851,1497 L1474,5028" stroke="blue" stroke-width="2" />
<path d="M7515,694 L564,4648" stroke="blue" stroke-width="2" />
<path d="M3124,1348 L4135,3099" stroke="blue" stroke-width="2" />
<path d="M6786,7248 L5963,6875" stroke="blue" stroke-width="2" />
<path d="M2165,1566 L6958,8744" stroke="blue" stroke-width="2" />
<path d="M5276,1215 L4604,5957" stroke="blue" stroke-width="2" />
<path d="M7065,6239 L6478,3009" stroke="blue" stroke-width="2" />
<path d="M4864,5921 L2123,812" stroke="blue" stroke-width="2" />
<path d="M2823,2985 L6712,4189" stroke="blue" stroke-width="2" />
<path d="M5736,1630 L6048,1686" stroke="blue" stroke-width="2" />
<path d="M7200,7178 L6804,1567" stroke="blue" stroke-width="2" />
<path d="M3610,2736 L4272,1282" stroke="blue" stroke-width="2" />
<path d="M1210,4065 L6737,2517" stroke="blue" stroke-width="2" />
<path d="M7720,4138 L2024,3140" stroke="blue" stroke-width="2" />
<path d="M7949,5667 L6196,1239" stroke="blue" stroke-width="2" />
<path d="M137,2945 L2472,8559" stroke="blue" stroke-width="2" />
<path d="M8080,975 L6946,7436" stroke="blue" stroke-width="2" />
<path d="M3340,2720 L3645,1950" stroke="blue" stroke-width="2" />
<path d="M4602,1618 L5909,905" stroke="blue" stroke-width="2" />
<path d="M2484,2785 L5595,2965" stroke="blue" stroke-width="2" />
<path d="M4496,1781 L8414,3000" stroke="blue" stroke-width="2" />
<path d="M2196,2000 L2440,4445" stroke="blue" stroke-width="2" />
<path d="M5462,7819 L1845,3825" stroke="blue" stroke-width="2" />
<path d="M5918,8989 L2563,960" stroke="blue" stroke-width="2" />
<path d="M938,8299 L4362,7058" stroke="blue" stroke-width="2" />
<path d="M4476,8022 L2676,3958" stroke="blue" stroke-width="2" />
<path d="M760,3377 L6168,1802" stroke="blue" stroke-width="2" />
<path d="M2558,6423 L7786,1413" stroke="blue" stroke-width="2" />
<path d="M1896,4252 L6980,8579" stroke="blue" stroke-width="2" />
<path d="M5821,7537 L3209,5075" stroke="blue" stroke-width="2" />
<path d="M7467,2611 L4904,388" stroke="blue" stroke-width="2" />
<path d="M2038,7967 L407,8792" stroke="blue" stroke-width="2" />
<path d="M4135,2918 L5833,8130" stroke="blue" stroke-width="2" />
<path d="M34,7296 L1925,2494" stroke="blue" stroke-width="2" />
<path d="M1518,3527 L2534,6306" stroke="blue" stroke-width="2" />
<path d="M1489,4742 L3442,4019" stroke="blue" stroke-width="2" />
<path d="M2480,947 L5268,325" stroke="blue" stroke-width="2" />
<path d="M8063,5012 L7506,4476" stroke="blue" stroke-width="2" />
<path d="M1162,6503 L5071,7050" stroke="blue" stroke-width="2" />
<path d="M1467,1907 L3151,5310" stroke="blue" stroke-width="2" />
<path d="M4111,1043 L1231,1726" stroke="blue" stroke-width="2" />
<path d="M1298,7483 L53,222" stroke="blue" stroke-width="2" />
<path d="M6869,951 L5882,4739" stroke="blue" stroke-width="2" />
<path d="M6743,4946 L1185,986" stroke="blue" stroke-width="2" />
<path d="M5664,6884 L1971,2817" stroke="blue" stroke-width="2" />
<path d="M2424,1768 L5454,2409" stroke="blue" stroke-width="2" />
<path d="M3207,5727 L688,7015" stroke="blue" stroke-width="2" />
<path d="M3643,1875 L3797,6868" stroke="blue" stroke-width="2" />
<path d="M3284,6636 L2504,235" stroke="blue" stroke-width="2" />
<path d="M7499,923 L1267,8898" stroke="blue" stroke-width="2" />
<path d="M1165,4932 L221,1012" stroke="blue" stroke-width="2" />
<path d="M4036,6642 L4665,5770" stroke="blue" stroke-width="2" />
<path d="M6673,2170 L5834,6182" stroke="blue" stroke-width="2" />
<path d="M3443,6480 L7627,8010" stroke="blue" stroke-width="2" />
<path d="M8060,5235 L6206,5342" stroke="blue" stroke-width="2" />
<path d="M1718,1285 L568,4363" stroke="blue" stroke-width="2" />
<path d="M3481,6903 L5205,7597" stroke="blue" stroke-width="2" />
<path d="M4934,4146 L1925,8410" stroke="blue" stroke-width="2" />
<path d="M5916,7957 L2296,8006" stroke="blue" stroke-width="2" />
<path d="M704,7681 L8242,5279" stroke="blue" stroke-width="2" />
<path d="M5416,2088 L3962,271" stroke="blue" stroke-width="2" />
<path d="M7936,2057 L5036,1570" stroke="blue" stroke-width="2" />
<path d="M590,6975 L8247,8841" stroke="blue" stroke-width="2" />
<path d="M2068,6717 L1566,2801" stroke="blue" stroke-width="2" />
<path d="M3279,6620 L3278,8120" stroke="blue" stroke-width="2" />
<path d="M1403,424 L6379,7350" stroke="blue" stroke-width="2" />
<path d="M6577,8230 L7555,7376" stroke="blue" stroke-width="2" />
<path d="M7506,5666 L4163,8968" stroke="blue" stroke-width="2" />
<path d="M3812,1093 L1144,8906" stroke="blue" stroke-width="2" />
<path d="M5363,8631 L8297,7213" stroke="blue" stroke-width="2" />
<path d="M3091,2562 L3913,4752" stroke="blue" stroke-width="2" />
<path d="M3800,1058 L1264,4867" stroke="blue" stroke-width="2" />
<path d="M4257,880 L2836,469" stroke="blue" stroke-width="2" />
<path d="M6641,5008 L3400,6615" stroke="blue" stroke-width="2" />
<path d="M1416,1069 L7349,4720" stroke="blue" stroke-width="2" />
<path d="M4774,3599 L5587,7454" stroke="blue" stroke-width="2" />
<path d="M4301,8900 L838,125" stroke="blue" stroke-width="2" />
<path d="M7698,6215 L5226,5203" stroke="blue" stroke-width="2" />
<path d="M5205,4400 L1709,6242" stroke="blue" stroke-width="2" />
<path d="M596,299 L2744,6658" stroke="blue" stroke-width="2" />
<path d="M2970,7552 L5974,6932" stroke="blue" stroke-width="2" />
<path d="M5887,3006 L7398,7289" stroke="blue" stroke-width="2" />
<path d="M7073,8751 L7583,691" stroke="blue" stroke-width="2" />
<path d="M4057,426 L1882,9007" stroke="blue" stroke-width="2" />
<path d="M6112,4584 L5790,7041" stroke="blue" stroke-width="2" />
<path d="M4888,5190 L1862,278" stroke="blue" stroke-width="2" />
<path d="M2708,850 L6949,251" stroke="blue" stroke-width="2" />
<path d="M2766,2826 L3359,835" stroke="blue" stroke-width="2" />
<path d="M5890,2159 L7044,7225" stroke="blue" stroke-width="2" />
<path d="M5234,9278 L5942,7305" stroke="blue" stroke-width="2" />
<path d="M5737,7877 L8346,4362" stroke="blue" stroke-width="2" />
<path d="M7304,3257 L2202,1170" stroke="blue" stroke-width="2" />
<path d="M8050,3228 L2747,628" stroke="blue" stroke-width="2" />
<path d="M4765,3894 L4054,20" stroke="blue" stroke-width="2" />
<path d="M1352,8366 L2607,2581" stroke="blue" stroke-width="2" />
<path d="M2687,1839 L8354,5667" stroke="blue" stroke-width="2" />
<path d="M2240,5326 L6637,2060" stroke="blue" stroke-width="2" />
<path d="M7393,2401 L1177,4317" stroke="blue" stroke-width="2" />
<path d="M3582,2838 L8109,3320" stroke="blue" stroke-width="2" />
<path d="M4730,4938 L3523,4350" stroke="blue" stroke-width="2" />
<path d="M5268,5677 L5377,6456" stroke="blue" stroke-width="2" />
<path d="M365,3225 L6319,8867" stroke="blue" stroke-width="2" />
<path d="M2903,570 L1962,1183" stroke="blue" stroke-width="2" />
<path d="M2874,194 L4901,3749" stroke="blue" stroke-width="2" />
<path d="M2764,7476 L7038,6748" stroke="blue" stroke-width="2" />
<path d="M2839,2177 L7994,1210" stroke="blue" stroke-width="2" />
<path d="M1711,6094 L3983,9300" stroke="blue" stroke-width="2" />
<path d="M5468,4853 L3957,1557" stroke="blue" stroke-width="2" />
<path d="M4896,5406 L6841,1831" stroke="blue" stroke-width="2" />
<path d="M2366,2615 L7129,4758" stroke="blue" stroke-width="2" />
<path d="M32,7826 L559,3429" stroke="blue" stroke-width="2" />
<path d="M3899,8124 L381,8552" stroke="blue" stroke-width="2" />
<path d="M5244,1222 L6643,2022" stroke="blue" stroke-width="2" />
<path d="M3280,2048 L5512,4283" stroke="blue" stroke-width="2" />
<path d="M4513,2820 L2681,2334" stroke="blue" stroke-width="2" />
<path d="M8176,9145 L2410,1706" stroke="blue" stroke-width="2" />
<path d="M1024,3640 L147,5410" stroke="blue" stroke-width="2" />
<path d="M498,8827 L2196,8095" stroke="blue" stroke-width="2" />
<path d="M7635,746 L7961,3985" stroke="blue" stroke-width="2" />
<path d="M6967,4220 L2581,716" stroke="blue" stroke-width="2" />
<path d="M4506,5639 L6169,5517" stroke="blue" stroke-width="2" />
<path d="M6609,6248 L2960,4726" stroke="blue" stroke-width="2" />
<path d="M839,4984 L1847,4137" stroke="blue" stroke-width="2" />
<path d="M3216,6007 L1904,4698" stroke="blue" stroke-width="2" />
<path d="M669,1644 L1290,8150" stroke="blue" stroke-width="2" />
<path d="M4483,1335 L3274,6298" stroke="blue" stroke-width="2" />
<path d="M317,5148 L1761,7553" stroke="blue" stroke-width="2" />
<path d="M7675,2928 L5201,1362" stroke="blue" stroke-width="2" />
<path d="M8395,7279 L5723,6496" stroke="blue" stroke-width="2" />
<path d="M5352,3992 L2132,660" stroke="blue" stroke-width="2" />
<path d="M3348,5484 L6068,3349" stroke="blue" stroke-width="2" />
<path d="M162,3408 L719,3064" stroke="blue" stroke-width="2" />
<path d="M4658,5231 L6693,2087" stroke="blue" stroke-width="2" />
<path d="M7012,788 L8344,3946" stroke="blue" stroke-width="2" />
<path d="M432,5264 L7670,8108" stroke="blue" stroke-width="2" />
<path d="M4969,8521 L5207,3430" stroke="blue" stroke-width="2" />
<path d="M7097,5700 L1757,8776" stroke="blue" stroke-width="2" />
<path d="M5183,2989 L6172,2318" stroke="blue" stroke-width="2" />
<path d="M5562,2269 L7690,4527" stroke="blue" stroke-width="2" />
<path d="M317,7106 L7454,3806" stroke="blue" stroke-width="2" />
<path d="M780,2745 L2071,3945" stroke="blue" stroke-width="2" />
<path d="M6809,727 L2489,8054" stroke="blue" stroke-width="2" />
<path d="M7767,6228 L111,5043" stroke="blue" stroke-width="2" />
<path d="M5369,7978 L4729,2544" stroke="blue" stroke-width="2" />
<path d="M5583,9179 L2235,1075" stroke="blue" stroke-width="2" />
<path d="M1539,186 L5902,9161" stroke="blue" stroke-width="2" />
<path d="M3454,3473 L2078,5786" stroke="blue" stroke-width="2" />
<path d="M149,2885 L2985,3413" stroke="blue" stroke-width="2" />
<path d="M3469,6010 L2597,7932" stroke="blue" stroke-width="2" />
<path d="M8210,591 L2334,3051" stroke="blue" stroke-width="2" />
<path d="M1208,6451 L356,6536" stroke="blue" stroke-width="2" />
<path d="M5574,5669 L1638,9104" stroke="blue" stroke-width="2" />
<path d="M4275,5888 L4101,6005" stroke="blue" stroke-width="2" />
<path d="M5848,8920 L3715,5992" stroke="blue" stroke-width="2" />
<path d="M2200,7201 L7053,3152" stroke="blue" stroke-width="2" />
<path d="M6044,7604 L2528,3601" stroke="blue" stroke-width="2" />
<path d="M1196,8282 L1549,6330" stroke="blue" stroke-width="2" />
<path d="M5439,540 L6861,7178" stroke="blue" stroke-width="2" />
<path d="M4117,2156 L2829,9330" stroke="blue" stroke-width="2" />
<path d="M5606,509 L702,8328" stroke="blue" stroke-width="2" />
<path d="M6171,4994 L7066,5731" stroke="blue" stroke-width="2" />
<path d="M1656,3960 L7826,262" stroke="blue" stroke-width="2" />
<path d="M4214,5395 L7030,4287" stroke="blue" stroke-width="2" />
<path d="M919,3494 L3741,1402" stroke="blue" stroke-width="2" />
<path d="M3850,3862 L2922,4874" stroke="blue" stroke-width="2" />
<path d="M2037,6798 L5888,4578" stroke="blue" stroke-width="2" />
<path d="M450,4964 L150,1034" stroke="blue" stroke-width="2" />
<path d="M1431,5950 L2420,6298" stroke="blue" stroke-width="2" />
<path d="M3950,4479 L3493,7652" stroke="blue" stroke-width="2" />
<path d="M3598,5344 L3805,8519" stroke="blue" stroke-width="2" />
<path d="M5474,3845 L1086,7896" stroke="blue" stroke-width="2" />
<path d="M2822,1888 L6269,8383" stroke="blue" stroke-width="2" />
<path d="M8278,7809 L7855,7882" stroke="blue" stroke-width="2" />
<path d="M5206,1212 L4236,1477" stroke="blue" stroke-width="2" />
<path d="M3758,6969 L5102,2719" stroke="blue" stroke-width="2" />
<path d="M1495,1082 L5776,5859" stroke="blue" stroke-width="2" />
<path d="M5722,6959 L8238,4586" stroke="blue" stroke-width="2" />
<path d="M1271,2217 L6345,6863" stroke="blue" stroke-width="2" />
<path d="M2371,7431 L2360,4125" stroke="blue" stroke-width="2" />
<path d="M496,4433 L4168,4175" stroke="blue" stroke-width="2" />
<path d="M3151,3787 L650,9133" stroke="blue" stroke-width="2" />
<path d="M733,4120 L5768,7206" stroke="blue" stroke-width="2" />
<path d="M601,480 L2032,2567" stroke="blue" stroke-width="2" />
<path d="M4138,2581 L6670,8123" stroke="blue" stroke-width="2" />
<path d="M5050,6548 L6386,8702" stroke="blue" stroke-width="2" />
<path d="M2211,898 L352,233" stroke="blue" stroke-width="2" />
<path d="M6804,250 L5040,9066" stroke="blue" stroke-width="2" />
<path d="M5726,2991 L8027,3016" stroke="blue" stroke-width="2" />
<path d="M3144,8718 L5462,7700" stroke="blue" stroke-width="2" />
<path d="M8204,8198 L2729,3140" stroke="blue" stroke-width="2" />
<path d="M8091,183 L4858,7958" stroke="blue" stroke-width="2" />
<path d="M6206,2851 L2550,6513" stroke="blue" stroke-width="2" />
<path d="M2468,1243 L5096,1307" stroke="blue" stroke-width="2" />
<path d="M2726,916 L2666,2554" stroke="blue" stroke-width="2" />
<path d="M1272,8476 L767,5140" stroke="blue" stroke-width="2" />
<path d="M1983,4857 L4561,3968" stroke="blue" stroke-width="2" />
<path d="M3243,4713 L8199,2725" stroke="blue" stroke-width="2" />
<path d="M357,8315 L3426,5627" stroke="blue" stroke-width="2" />
<path d="M7025,5310 L6748,2365" stroke="blue" stroke-width="2" />
<path d="M969,8918 L7914,6260" stroke="blue" stroke-width="2" />
<path d="M3573,6528 L683,8423" stroke="blue" stroke-width="2" />
<path d="M1445,7550 L84,1994" stroke="blue" stroke-width="2" />
<path d="M4975,3736 L2116,4979" stroke="blue" stroke-width="2" />
<path d="M2695,3347 L5940,3146" stroke="blue" stroke-width="2" />
<path d="M8379,3512 L5816,449" stroke="blue" stroke-width="2" />
<path d="M7727,274 L2156,1741" stroke="blue" stroke-width="2" />
<path d="M2766,6052 L6577,9167" stroke="blue" stroke-width="2" />
<path d="M7330,2086 L7931,3168" stroke="blue" stroke-width="2" />
<path d="M6994,9306 L3423,2652" stroke="blue" stroke-width="2" />
<path d="M4035,2638 L1378,5147" stroke="blue" stroke-width="2" />
<path d="M4467,2371 L3629,4008" stroke="blue" stroke-width="2" />
<path d="M1020,2052 L7112,3197" stroke="blue" stroke-width="2" />
<path d="M6712,7367 L2355,8559" stroke="blue" stroke-width="2" />
<path d="M6611,691 L4698,1027" stroke="blue" stroke-width="2" />
<path d="M8360,1340 L1559,3509" stroke="blue" stroke-width="2" />
<path d="M386,7865 L2369,7272" stroke="blue" stroke-width="2" />
<path d="M6548,2942 L230,826" stroke="blue" stroke-width="2" />
<path d="M247,5006 L8127,6944" stroke="blue" stroke-width="2" />
<path d="M3253,476 L5420,1737" stroke="blue" stroke-width="2" />
<path d="M2875,868 L7113,54" stroke="blue" stroke-width="2" />
<path d="M5785,4487 L1720,7277" stroke="blue" stroke-width="2" />
<path d="M3438,274 L1608,2131" stroke="blue" stroke-width="2" />
<path d="M5449,564 L3909,5583" stroke="blue" stroke-width="2" />
<path d="M7476,4934 L7368,9273" stroke="blue" stroke-width="2" />
<path d="M894,8108 L7598,7068" stroke="blue" stroke-width="2" />
<path d="M4324,6972 L2818,4972" stroke="blue" stroke-width="2" />
<path d="M6404,919 L6965,4059" stroke="blue" stroke-width="2" />
<path d="M683,4592 L6157,402" stroke="blue" stroke-width="2" />
<path d="M6580,3448 L1218,3168" stroke="blue" stroke-width="2" />
<path d="M5420,1863 L2449,3566" stroke="blue" stroke-width="2" />
<path d="M908,3297 L7270,7717" stroke="blue" stroke-width="2" />
<path d="M631,5158 L3842,7975" stroke="blue" stroke-width="2" />
<path d="M67,1647 L5020,8708" stroke="blue" stroke-width="2" />
<path d="M7844,7743 L434,935" stroke="blue" stroke-width="2" />
<path d="M1249,3081 L4464,8234" stroke="blue" stroke-width="2" />
<path d="M6638,8035 L4504,769" stroke="blue" stroke-width="2" />
<path d="M187,1691 L5934,9224" stroke="blue" stroke-width="2" />
<path d="M6822,583 L4469,3703" stroke="blue" stroke-width="2" />
<path d="M2989,6490 L3180,8508" stroke="blue" stroke-width="2" />
<path d="M8128,2669 L1825,1997" stroke="blue" stroke-width="2" />
<path d="M8057,1710 L6083,5882" stroke="blue" stroke-width="2" />
<path d="M5421,3638 L4266,7525" stroke="blue" stroke-width="2" />
<path d="M4906,1394 L6963,1552" stroke="blue" stroke-width="2" />
<path d="M2007,1124 L2750,3565" stroke="blue" stroke-width="2" />
<path d="M2168,9142 L4683,2345" stroke="blue" stroke-width="2" />
<path d="M3219,4805 L3951,6115" stroke="blue" stroke-width="2" />
<path d="M473,8814 L1683,1079" stroke="blue" stroke-width="2" />
<path d="M7515,527 L7147,4183" stroke="blue" stroke-width="2" />
<path d="M3621,1997 L3558,1124" stroke="blue" stroke-width="2" />
<path d="M3304,3600 L6961,8715" stroke="blue" stroke-width="2" />
<path d="M2579,1204 L3348,9351" stroke="blue" stroke-width="2" />
<path d="M3897,844 L6405,2911" stroke="blue" stroke-width="2" />
<path d="M7871,6629 L5268,8235" stroke="blue" stroke-width="2" />
<path d="M4000,2784 L8106,8712" stroke="blue" stroke-width="2" />
<path d="M2593,1525 L7425,846" stroke="blue" stroke-width="2" />
<path d="M7388,4281 L569,5394" stroke="blue" stroke-width="2" />
<path d="M7558,3736 L4056,4461" stroke="blue" stroke-width="2" />
<path d="M2886,9052 L5888,5561" stroke="blue" stroke-width="2" />
<path d="M1048,2650 L6747,4472" stroke="blue" stroke-width="2" />
<path d="M5192,448 L4638,4638" stroke="blue" stroke-width="2" />
<path d="M6041,1568 L6269,2761" stroke="blue" stroke-width="2" />
<path d="M911,6422 L5558,3057" stroke="blue" stroke-width="2" />
<path d="M7813,2673 L2185,9043" stroke="blue" stroke-width="2" />
<path d="M5845,7122 L6928,367" stroke="blue" stroke-width="2" />
<path d="M7154,4584 L5366,5102" stroke="blue" stroke-width="2" />
<path d="M5266,3129 L2717,8204" stroke="blue" stroke-width="2" />
<path d="M1105,1090 L6527,9028" stroke="blue" stroke-width="2" />
<path d="M4781,8216 L7075,3327" stroke="blue" stroke-width="2" />
<path d="M1176,9110 L382,6316" stroke="blue" stroke-width="2" />
<path d="M6345,5149 L7920,2146" stroke="blue" stroke-width="2" />
<path d="M2060,6615 L2659,8795" stroke="blue" stroke-width="2" />
<path d="M6434,238 L5444,4864" stroke="blue" stroke-width="2" />
<path d="M6368,1571 L1562,2034" stroke="blue" stroke-width="2" />
<path d="M2677,6582 L3164,4297" stroke="blue" stroke-width="2" />
<path d="M8356,3185 L2035,7017" stroke="blue" stroke-width="2" />
<path d="M5916,6630 L4737,272" stroke="blue" stroke-width="2" />
<path d="M581,6334 L1164,6264" stroke="blue" stroke-width="2" />
<path d="M7474,3836 L1912,4064" stroke="blue" stroke-width="2" />
<path d="M4156,2850 L4820,5546" stroke="blue" stroke-width="2" />
<path d="M3097,5375 L6019,8100" stroke="blue" stroke-width="2" />
<path d="M3913,3577 L5583,692" stroke="blue" stroke-width="2" />
<path d="M3266,210 L4562,8672" stroke="blue" stroke-width="2" />
<path d="M1287,2653 L8418,3443" stroke="blue" stroke-width="2" />
<path d="M6185,4685 L3982,6310" stroke="blue" stroke-width="2" />
<path d="M3011,3725 L7673,4424" stroke="blue" stroke-width="2" />
<path d="M5742,4803 L4826,1204" stroke="blue" stroke-width="2" />
<path d="M6538,8708 L3866,5897" stroke="blue" stroke-width="2" />
<path d="M7734,8489 L2566,42" stroke="blue" stroke-width="2" />
<path d="M4926,2573 L5320,1528" stroke="blue" stroke-width="2" />
<path d="M5455,5820 L7613,9219" stroke="blue" stroke-width="2" />
<path d="M4395,5645 L450,8872" stroke="blue" stroke-width="2" />
<path d="M4108,392 L3509,889" stroke="blue" stroke-width="2" />
<path d="M5486,6385 L1666,7486" stroke="blue" stroke-width="2" />
<path d="M2145,2497 L6455,9018" stroke="blue" stroke-width="2" />
<path d="M1838,457 L3016,655" stroke="blue" stroke-width="2" />
<path d="M5968,8472 L6679,638" stroke="blue" stroke-width="2" />
<path d="M591,5678 L4070,7025" stroke="blue" stroke-width="2" />
<path d="M6918,8646 L5919,5892" stroke="blue" stroke-width="2" />
<path d="M3048,4505 L6251,6714" stroke="blue" stroke-width="2" />
<path d="M3040,6191 L8187,2564" stroke="blue" stroke-width="2" />
<path d="M7116,469 L770,620" stroke="blue" stroke-width="2" />
<path d="M4605,8152 L7870,2343" stroke="blue" stroke-width="2" />
<path d="M7985,7132 L3825,1475" stroke="blue" stroke-width="2" />
<path d="M5217,8879 L8329,7477" stroke="blue" stroke-width="2" />
<path d="M6834,1573 L8008,7512" stroke="blue" stroke-width="2" />
<path d="M961,8299 L8197,7491" stroke="blue" stroke-width="2" />
<path d="M6840,4731 L1606,1496" stroke="blue" stroke-width="2" />
<path d="M7458,6597 L5496,3434" stroke="blue" stroke-width="2" />
<path d="M7485,717 L1353,742" stroke="blue" stroke-width="2" />
<path d="M7807,504 L6526,4292" stroke="blue" stroke-width="2" />
<path d="M8215,2662 L4449,8304" stroke="blue" stroke-width="2" />
<path d="M3705,858 L3581,4970" stroke="blue" stroke-width="2" />
<path d="M6097,6330 L2560,5633" stroke="blue" stroke-width="2" />
<path d="M7291,4005 L5394,406" stroke="blue" stroke-width="2" />
<path d="M2401,4611 L7091,8368" stroke="blue" stroke-width="2" />
<path d="M1046,371 L2752,5687" stroke="blue" stroke-width="2" />
<path d="M3979,3670 L3582,8971" stroke="blue" stroke-width="2" />
<path d="M7459,7869 L5140,7742" stroke="blue" stroke-width="2" />
<path d="M636,5934 L1609,2929" stroke="blue" stroke-width="2" />
<path d="M1653,6730 L7041,644" stroke="blue" stroke-width="2" />
<path d="M2636,2857 L7176,8929" stroke="blue" stroke-width="2" />
<path d="M6868,3992 L426,2890" stroke="blue" stroke-width="2" />
<path d="M416,3289 L1627,9068" stroke="blue" stroke-width="2" />
<path d="M3978,4133 L4582,2880" stroke="blue" stroke-width="2" />
<path d="M3409,2397 L4513,3058" stroke="blue" stroke-width="2" />
<path d="M7775,331 L188,5554" stroke="blue" stroke-width="2" />
<path d="M6015,3010 L7868,2389" stroke="blue" stroke-width="2" />
<path d="M4044,1756 L2407,4962" stroke="blue" stroke-width="2" />
<path d="M5311,2077 L2247,6824" stroke="blue" stroke-width="2" />
<path d="M3333,1275 L7376,6414" stroke="blue" stroke-width="2" />
<path d="M2541,8219 L41,4825" stroke="blue" stroke-width="2" />
<path d="M1857,4521 L7861,2446" stroke="blue" stroke-width="2" />
<path d="M3821,6366 L2020,5766" stroke="blue" stroke-width="2" />
<path d="M2760,8286 L2705,5980" stroke="blue" stroke-width="2" />
<path d="M1301,8846 L4528,1823" stroke="blue" stroke-width="2" />
<path d="M6967,6833 L3246,2887" stroke="blue" stroke-width="2" />
<path d="M357,8338 L4910,4516" stroke="blue" stroke-width="2" />
<path d="M54,6046 L2111,5564" stroke="blue" stroke-width="2" />
<path d="M2226,6010 L7030,1463" stroke="blue" stroke-width="2" />
<path d="M1547,7780 L3432,3870" stroke="blue" stroke-width="2" />
<path d="M3103,4137 L6092,2183" stroke="blue" stroke-width="2" />
<path d="M5652,2431 L3073,4227" stroke="blue" stroke-width="2" />
<path d="M2775,861 L5861,1298" stroke="blue" stroke-width="2" />
<path d="M5799,2536 L7777,7830" stroke="blue" stroke-width="2" />
<path d="M6512,1184 L2647,3971" stroke="blue" stroke-width="2" />
<path d="M3928,4394 L7849,8940" stroke="blue" stroke-width="2" />
<path d="M1154,9244 L6705,8986" stroke="blue" stroke-width="2" />
<path d="M5470,1852 L412,8388" stroke="blue" stroke-width="2" />
<path d="M2699,8522 L5118,8745" stroke="blue" stroke-width="2" />
<path d="M1535,1655 L6772,8305" stroke="blue" stroke-width="2" />
<path d="M577,1824 L6557,622" stroke="blue" stroke-width="2" />
<path d="M2832,7370 L913,8857" stroke="blue" stroke-width="2" />
<path d="M6445,9223 L2674,3246" stroke="blue" stroke-width="2" />
<path d="M6338,7415 L6801,5786" stroke="blue" stroke-width="2" />
<path d="M8077,4686 L7098,8344" stroke="blue" stroke-width="2" />
<path d="M2438,4020 L1141,4245" stroke="blue" stroke-width="2" />
<path d="M7235,610 L104,4385" stroke="blue" stroke-width="2" />
<path d="M25,2142 L1325,1372" stroke="blue" stroke-width="2" />
<path d="M4314,3308 L2785,244" stroke="blue" stroke-width="2" />
<path d="M2073,1878 L1427,6159" stroke="blue" stroke-width="2" />
<path d="M4122,4010 L7108,5979" stroke="blue" stroke-width="2" />
<path d="M2115,4186 L3756,9299" stroke="blue" stroke-width="2" />
<path d="M7595,1125 L4621,6301" stroke="blue" stroke-width="2" />
<path d="M7323,1269 L1979,9175" stroke="blue" stroke-width="2" />
<path d="M299,6747 L2293,9355" stroke="blue" stroke-width="2" />
<path d="M1279,5223 L1948,7042" stroke="blue" stroke-width="2" />
<path d="M724,1375 L418,5294" stroke="blue" stroke-width="2" />
<path d="M1412,5125 L6972,7313" stroke="blue" stroke-width="2" />
<path d="M6094,2767 L7973,8989" stroke="blue" stroke-width="2" />
<path d="M7092,4082 L5473,298" stroke="blue" stroke-width="2" />
<path d="M1894,6090 L6508,7684" stroke="blue" stroke-width="2" />
<path d="M3467,4635 L3740,8809" stroke="blue" stroke-width="2" />
<path d="M795,1545 L4918,9097" stroke="blue" stroke-width="2" />
<path d="M1973,881 L7056,7780" stroke="blue" stroke-width="2" />
<path d="M4634,2473 L5721,9357" stroke="blue" stroke-width="2" />
<path d="M3628,6420 L5756,404" stroke="blue" stroke-width="2" />
<path d="M4873,5142 L6579,661" stroke="blue" stroke-width="2" />
<path d="M2182,6873 L3343,5054" stroke="blue" stroke-width="2" />
<path d="M1776,516 L3255,1966" stroke="blue" stroke-width="2" />
<path d="M5512,2303 L1745,9135" stroke="blue" stroke-width="2" />
<path d="M3263,6545 L4643,8910" stroke="blue" stroke-width="2" />
<path d="M6974,8732 L7157,57" stroke="blue" stroke-width="2" />
<path d="M8259,1908 L7466,6020" stroke="blue" stroke-width="2" />
<path d="M7259,471 L3837,3867" stroke="blue" stroke-width="2" />
<path d="M5599,3002 L7791,1381" stroke="blue" stroke-width="2" />
<path d="M1567,7174 L6479,1157" stroke="blue" stroke-width="2" />
<path d="M4992,438 L3662,6882" stroke="blue" stroke-width="2" />
<path d="M1036,7065 L4480,957" stroke="blue" stroke-width="2" />
<path d="M8262,7209 L5042,4108" stroke="blue" stroke-width="2" />
<path d="M6182,1858 L5073,3528" stroke="blue" stroke-width="2" />
<path d="M523,327 L5615,9122" stroke="blue" stroke-width="2" />
<path d="M1615,225 L1953,5358" stroke="blue" stroke-width="2" />
<path d="M6939,6399 L3548,9187" stroke="blue" stroke-width="2" />
<path d="M2586,3652 L2006,1857" stroke="blue" stroke-width="2" />
<path d="M5029,2614 L4183,706" stroke="blue" stroke-width="2" />
<path d="M6265,3226 L4768,6080" stroke="blue" stroke-width="2" />
<path d="M8327,6935 L5613,5382" stroke="blue" stroke-width="2" />
<path d="M7407,6554 L59,7663" stroke="blue" stroke-width="2" />
<path d="M4381,5465 L6172,9284" stroke="blue" stroke-width="2" />
<path d="M5904,3394 L224,6273" stroke="blue" stroke-width="2" />
<path d="M5924,720 L8325,2139" stroke="blue" stroke-width="2" />
<path d="M7236,3995 L2919,746" stroke="blue" stroke-width="2" />
<path d="M3426,1985 L5132,5815" stroke="blue" stroke-width="2" />
<path d="M7853,5377 L6996,7235" stroke="blue" stroke-width="2" />
<path d="M7310,7586 L4336,8854" stroke="blue" stroke-width="2" />
<path d="M2411,8622 L7199,4086" stroke="blue" stroke-width="2" />
<path d="M7405,327 L5353,1049" stroke="blue" stroke-width="2" />
<path d="M5984,7491 L5248,9183" stroke="blue" stroke-width="2" />
<path d="M2477,3325 L994,4001" stroke="blue" stroke-width="2" />
<path d="M11,1700 L1397,7835" stroke="blue" stroke-width="2" />
<path d="M5135,7433 L1023,4143" stroke="blue" stroke-width="2" />
<path d="M1717,1698 L2737,3197" stroke="blue" stroke-width="2" />
<path d="M4360,8942 L2794,9197" stroke="blue" stroke-width="2" />
<path d="M4887,5508 L1800,1350" stroke="blue" stroke-width="2" />
<path d="M6725,1157 L4445,6024" stroke="blue" stroke-width="2" />
<path d="M8190,884 L1321,8199" stroke="blue" stroke-width="2" />
<path d="M2640,3562 L4118,8059" stroke="blue" stroke-width="2" />
<path d="M5028,5321 L2713,7410" stroke="blue" stroke-width="2" />
<path d="M3620,305 L1031,4737" stroke="blue" stroke-width="2" />
<path d="M3126,9269 L3739,4134" stroke="blue" stroke-width="2" />
<path d="M1366,4641 L7806,4100" stroke="blue" stroke-width="2" />
<path d="M4788,1332 L3137,2216" stroke="blue" stroke-width="2" />
<path d="M178,138 L8264,2350" stroke="blue" stroke-width="2" />
<path d="M1568,448 L2512,6653" stroke="blue" stroke-width="2" />
<path d="M7716,8730 L2669,410" stroke="blue" stroke-width="2" />
<path d="M5602,9131 L309,7614" stroke="blue" stroke-width="2" />
<path d="M1259,3914 L109,1934" stroke="blue" stroke-width="2" />
<path d="M1416,8015 L3113,4690" stroke="blue" stroke-width="2" />
<path d="M6780,3102 L8214,1339" stroke="blue" stroke-width="2" />
<path d="M589,2877 L6168,805" stroke="blue" stroke-width="2" />
<path d="M7109,5733 L6299,6730" stroke="blue" stroke-width="2" />
<path d="M319,7063 L7432,8595" stroke="blue" stroke-width="2" />
<path d="M4648,5419 L1888,2639" stroke="blue" stroke-width="2" />
<path d="M5455,7680 L1171,955" stroke="blue" stroke-width="2" />
<path d="M580,9009 L2493,4038" stroke="blue" stroke-width="2" />
<path d="M6585,3362 L2003,2965" stroke="blue" stroke-width="2" />
<path d="M8226,2917 L5321,2588" stroke="blue" stroke-width="2" />
<path d="M7855,6000 L4924,5514" stroke="blue" stroke-width="2" />
<path d="M7053,4264 L1932,9315" stroke="blue" stroke-width="2" />
<path d="M4668,975 L1381,3809" stroke="blue" stroke-width="2" />
<path d="M135,3923 L6074,2075" stroke="blue" stroke-width="2" />
<path d="M8055,2970 L5810,6774" stroke="blue" stroke-width="2" />
<path d="M3101,3954 L1387,8665" stroke="blue" stroke-width="2" />
<path d="M1435,8237 L4324,7368" stroke="blue" stroke-width="2" />
<path d="M6490,6590 L5066,7214" stroke="blue" stroke-width="2" />
<path d="M4710,298 L928,6686" stroke="blue" stroke-width="2" />
<path d="M5882,6925 L1719,7183" stroke="blue" stroke-width="2" />
<path d="M4435,7882 L1227,6128" stroke="blue" stroke-width="2" />
<path d="M3862,8420 L5209,7333" stroke="blue" stroke-width="2" />
<path d="M2173,2731 L8245,1787" stroke="blue" stroke-width="2" />
<path d="M8273,9043 L6163,4480" stroke="blue" stroke-width="2" />
<path d="M5031,3585 L5920,8612" stroke="blue" stroke-width="2" />
<path d="M7177,1092 L7392,8796" stroke="blue" stroke-width="2" />
<path d="M7457,8760 L6899,578" stroke="blue" stroke-width="2" />
<path d="M614,4347 L1195,7959" stroke="blue" stroke-width="2" />
<path d="M3833,263 L7644,3248" stroke="blue" stroke-width="2" />
<path d="M6700,4970 L7898,4294" stroke="blue" stroke-width="2" />
<path d="M7972,666 L577,3669" stroke="blue" stroke-width="2" />
<path d="M5854,2137 L8290,2490" stroke="blue" stroke-width="2" />
<path d="M7981,4298 L4535,2177" stroke="blue" stroke-width="2" />
<path d="M5118,2384 L4833,1663" stroke="blue" stroke-width="2" />
<path d="M3140,443 L3327,623" stroke="blue" stroke-width="2" />
<path d="M2393,8973 L6531,2366" stroke="blue" stroke-width="2" />
<path d="M4811,8764 L7085,1576" stroke="blue" stroke-width="2" />
<path d="M2193,1965 L7089,8878" stroke="blue" stroke-width="2" />
<path d="M2161,8005 L2687,4853" stroke="blue" stroke-width="2" />
<path d="M6358,2072 L1640,8372" stroke="blue" stroke-width="2" />
<path d="M311,1574 L370,8567" stroke="blue" stroke-width="2" />
<path d="M3706,8696 L7988,6232" stroke="blue" stroke-width="2" />
<path d="M6068,736 L6731,568" stroke="blue" stroke-width="2" />
<path d="M4215,756 L2361,7098" stroke="blue" stroke-width="2" />
<path d="M7908,2960 L7467,8374" stroke="blue" stroke-width="2" />
<path d="M3175,8331 L5864,4880" stroke="blue" stroke-width="2" />
<path d="M7480,149 L7866,9133" stroke="blue" stroke-width="2" />
<path d="M6802,4455 L2959,9068" stroke="blue" stroke-width="2" />
<path d="M737,2369 L613,3840" stroke="blue" stroke-width="2" />
<path d="M615,8998 L7343,3504" stroke="blue" stroke-width="2" />
<path d="M7240,8696 L3203,311" stroke="blue" stroke-width="2" />
<path d="M849,8326 L7957,2209" stroke="blue" stroke-width="2" />
<path d="M2752,7146 L1318,1621" stroke="blue" stroke-width="2" />
<path d="M5344,8786 L6409,7610" stroke="blue" stroke-width="2" />
<path d="M2612,6094 L1995,3796" stroke="blue" stroke-width="2" />
<path d="M3395,236 L1935,1520" stroke="blue" stroke-width="2" />
<path d="M1793,5059 L1831,4893" stroke="blue" stroke-width="2" />
<path d="M1770,4492 L4172,4722" stroke="blue" stroke-width="2" />
<path d="M4652,7554 L3681,342" stroke="blue" stroke-width="2" />
<path d="M4216,3102 L6151,2254" stroke="blue" stroke-width="2" />
<path d="M3730,1220 L5923,3307" stroke="blue" stroke-width="2" />
<path d="M3872,5392 L8105,3744" stroke="blue" stroke-width="2" />
<path d="M5337,1054 L1356,2977" stroke="blue" stroke-width="2" />
<path d="M5800,2191 L3726,4367" stroke="blue" stroke-width="2" />
<path d="M7161,4424 L2418,5684" stroke="blue" stroke-width="2" />
<path d="M2980,491 L6743,201" stroke="blue" stroke-width="2" />
<path d="M7808,9282 L626,2916" stroke="blue" stroke-width="2" />
<path d="M6974,6016 L3982,1771" stroke="blue" stroke-width="2" />
<path d="M7223,998 L865,3756" stroke="blue" stroke-width="2" />
<path d="M125,3130 L4617,5535" stroke="blue" stroke-width="2" />
<path d="M6634,2263 L5319,9139" stroke="blue" stroke-width="2" />
<path d="M5220,46 L5143,3609" stroke="blue" stroke-width="2" />
<path d="M5150,4782 L1758,2803" stroke="blue" stroke-width="2" />
<path d="M2747,6417 L4272,2251" stroke="blue" stroke-width="2" />
<path d="M2940,6858 L6076,5706" stroke="blue" stroke-width="2" />
<path d="M6203,4040 L7239,7166" stroke="blue" stroke-width="2" />
<path d="M3150,5831 L831,6719" stroke="blue" stroke-width="2" />
<path d="M1648,3475 L7465,4682" stroke="blue" stroke-width="2" />
<path d="M5823,1508 L3939,7792" stroke="blue" stroke-width="2" />
<path d="M4319,2607 L6264,8336" stroke="blue" stroke-width="2" />
<path d="M7758,430 L6956,3782" stroke="blue" stroke-width="2" />
<path d="M5632,1221 L527,5619" stroke="blue" stroke-width="2" />
<path d="M3162,8607 L1596,7518" stroke="blue" stroke-width="2" />
<path d="M4020,8692 L5371,2908" stroke="blue" stroke-width="2" />
<path d="M8104,6781 L1055,1338" stroke="blue" stroke-width="2" />
<path d="M5833,7051 L3670,9178" stroke="blue" stroke-width="2" />
<path d="M3444,2418 L5463,900" stroke="blue" stroke-width="2" />
<path d="M5761,7398 L3721,4505" stroke="blue" stroke-width="2" />
<path d="M6839,1421 L7347,6977" stroke="blue" stroke-width="2" />
<path d="M4284,4235 L3525,5530" stroke="blue" stroke-width="2" />
<path d="M3638,8307 L4676,1567" stroke="blue" stroke-width="2" />
<path d="M2554,5744 L3052,4431" stroke="blue" stroke-width="2" />
<path d="M7425,4143 L2318,5915" stroke="blue" stroke-width="2" />
<path d="M4838,5523 L4622,8750" stroke="blue" stroke-width="2" />
<path d="M6283,2217 L3047,6627" stroke="blue" stroke-width="2" />
<path d="M7389,9197 L4587,665" stroke="blue" stroke-width="2" />
<path d="M3511,2138 L1509,979" stroke="blue" stroke-width="2" />
<path d="M2526,2789 L2065,3095" stroke="blue" stroke-width="2" />
<path d="M8075,7480 L8327,2073" stroke="blue" stroke-width="2" />
<path d="M1615,729 L4126,2850" stroke="blue" stroke-width="2" />
<path d="M745,6236 L1729,2548" stroke="blue" stroke-width="2" />
<path d="M1220,4464 L3090,8817" stroke="blue" stroke-width="2" />
<path d="M711,1303 L3785,8210" stroke="blue" stroke-width="2" />
<path d="M4299,2708 L1150,6273" stroke="blue" stroke-width="2" />
<path d="M7384,4433 L1760,1101" stroke="blue" stroke-width="2" />
<path d="M8108,956 L2569,4495" stroke="blue" stroke-width="2" />
<path d="M2784,8886 L225,4349" stroke="blue" stroke-width="2" />
<path d="M4086,82 L7317,3415" stroke="blue" stroke-width="2" />
<path d="M7101,4803 L2884,2816" stroke="blue" stroke-width="2" />
<path d="M5690,3752 L5374,8080" stroke="blue" stroke-width="2" />
<path d="M4738,1608 L3759,6376" stroke="blue" stroke-width="2" />
<path d="M6609,7 L2781,1273" stroke="blue" stroke-width="2" />
<path d="M1817,4362 L7473,5792" stroke="blue" stroke-width="2" />
<path d="M7724,1398 L2645,550" stroke="blue" stroke-width="2" />
<path d="M784,3928 L2878,6373" stroke="blue" stroke-width="2" />
<path d="M975,532 L7180,3395" stroke="blue" stroke-width="2" />
<path d="M5974,7898 L864,8325" stroke="blue" stroke-width="2" />
<path d="M3730,822 L8349,7704" stroke="blue" stroke-width="2" />
<path d="M7394,4059 L4154,3350" stroke="blue" stroke-width="2" />
<path d="M7110,8742 L7446,61" stroke="blue" stroke-width="2" />
<path d="M6785,7626 L2097,1739" stroke="blue" stroke-width="2" />
<path d="M6587,5192 L2043,142" stroke="blue" stroke-width="2" />
<path d="M8131,7519 L4463,3768" stroke="blue" stroke-width="2" />
<path d="M6159,4889 L4425,1911" stroke="blue" stroke-width="2" />
<path d="M5764,1236 L8298,2141" stroke="blue" stroke-width="2" />
<path d="M4008,4949 L771,8346" stroke="blue" stroke-width="2" />
<path d="M3753,2891 L8047,9263" stroke="blue" stroke-width="2" />
<path d="M5106,4607 L6421,1514" stroke="blue" stroke-width="2" />
<path d="M7073,7257 L2624,4634" stroke="blue" stroke-width="2" />
<path d="M6733,7011 L5595,6401" stroke="blue" stroke-width="2" />
<path d="M1292,6630 L4394,6530" stroke="blue" stroke-width="2" />
<path d="M4013,7105 L2833,8641" stroke="blue" stroke-width="2" />
<path d="M8,4932 L4553,1816" stroke="blue" stroke-width="2" />
<path d="M2649,3312 L7995,2658" stroke="blue" stroke-width="2" />
<path d="M7752,4796 L3976,3560" stroke="blue" stroke-width="2" />
<path d="M5797,8093 L8303,1617" stroke="blue" stroke-width="2" />
<path d="M1200,1590 L4987,3250" stroke="blue" stroke-width="2" />
<path d="M3525,9225 L2311,1096" stroke="blue" stroke-width="2" />
<path d="M3904,3660 L5558,2415" stroke="blue" stroke-width="2" />
<path d="M7381,899 L6848,2576" stroke="blue" stroke-width="2" />
<path d="M621,6599 L5105,678" stroke="blue" stroke-width="2" />
<path d="M8315,8194 L4083,7690" stroke="blue" stroke-width="2" />
<path d="M7532,4181 L5930,5632" stroke="blue" stroke-width="2" />
<path d="M3595,7882 L7033,4671" stroke="blue" stroke-width="2" />
<path d="M3830,805 L6105,3363" stroke="blue" stroke-width="2" />
<path d="M1917,6349 L595,5161" stroke="blue" stroke-width="2" />
<path d="M7474,7602 L3667,8220" stroke="blue" stroke-width="2" />
<path d="M2320,6787 L2317,1303" stroke="blue" stroke-width="2" />
<path d="M4276,6251 L4042,6680" stroke="blue" stroke-width="2" />
<path d="M2061,854 L6131,2264" stroke="blue" stroke-width="2" />
<path d="M6541,1813 L551,4964" stroke="blue" stroke-width="2" />
<path d="M1587,731 L2852,2931" stroke="blue" stroke-width="2" />
<path d="M206,8296 L1089,5630" stroke="blue" stroke-width="2" />
<path d="M3920,6412 L4713,1413" stroke="blue" stroke-width="2" />
<path d="M7125,6408 L115,5464" stroke="blue" stroke-width="2" />
<path d="M3305,6766 L7433,4988" stroke="blue" stroke-width="2" />
<path d="M2693,4535 L4799,1879" stroke="blue" stroke-width="2" />
<path d="M7517,3548 L6366,6900" stroke="blue" stroke-width="2" />
<path d="M2314,9010 L1246,3990" stroke="blue" stroke-width="2" />
<path d="M7477,3042 L5157,1764" stroke="blue" stroke-width="2" />
<path d="M2318,6525 L7534,6904" stroke="blue" stroke-width="2" />
<path d="M8099,4880 L661,3018" stroke="blue" stroke-width="2" />
<path d="M6432,1288 L939,4724" stroke="blue" stroke-width="2" />
<path d="M3309,1061 L5921,1568" stroke="blue" stroke-width="2" />
<path d="M4323,9085 L8282,5102" stroke="blue" stroke-width="2" />
<path d="M8356,1113 L847,4640" stroke="blue" stroke-width="2" />
<path d="M2949,561 L2627,9142" stroke="blue" stroke-width="2" />
<path d="M3610,3642 L2934,669" stroke="blue" stroke-width="2" />
<path d="M5876,500 L1558,5505" stroke="blue" stroke-width="2" />
<path d="M7646,7584 L2054,5118" stroke="blue" stroke-width="2" />
<path d="M2131,2478 L3263,7763" stroke="blue" stroke-width="2" />
<path d="M2861,5590 L4088,3681" stroke="blue" stroke-width="2" />
<path d="M6724,816 L1025,777" stroke="blue" stroke-width="2" />
<path d="M6937,7437 L3374,4111" stroke="blue" stroke-width="2" />
<path d="M6187,8395 L531,5547" stroke="blue" stroke-width="2" />
<path d="M5641,681 L1103,5292" stroke="blue" stroke-width="2" />
<path d="M1259,7605 L1456,6574" stroke="blue" stroke-width="2" />
<path d="M6345,3924 L4571,7505" stroke="blue" stroke-width="2" />
<path d="M5910,5717 L1099,5683" stroke="blue" stroke-width="2" />
<path d="M4087,6968 L1087,6946" stroke="blue" stroke-width="2" />
<path d="M4428,6260 L2564,1706" stroke="blue" stroke-width="2" />
<path d="M3422,2800 L6685,3192" stroke="blue" stroke-width="2" />
<path d="M2803,3336 L3638,6686" stroke="blue" stroke-width="2" />
<path d="M1652,2872 L3854,4177" stroke="blue" stroke-width="2" />
<path d="M0,0 L8463,0" stroke="red" stroke-width="10" />
<path d="M8463,0 L8463,9386" stroke="red" stroke-width="10" />
<path d="M0,9386 L8463,9386" stroke="red" stroke-width="10" />
<path d="M0,9386 L0,0" stroke="red" stroke-width="10" />
</svg>