<?xml version="1.0" encoding="UTF-8"?>
<svg xmlns="http://www.w3.org/2000/svg" xmlns:xlink="http://www.w3.org/1999/xlink"
     width="10000" height="10000" viewBox="0 0 10000 10000">
<defs>
</defs>
<path d="M588,342 L1060,796" stroke="blue" stroke-width="2" />
<path d="M301,1636 L1323,200" stroke="blue" stroke-width="2" />
<path d="M540,698 L419,177" stroke="blue" stroke-width="2" />
<path d="M1385,1705 L29,1299" stroke="blue" stroke-width="2" />
<path d="M1158,413 L280,2132" stroke="blue" stroke-width="2" />
<path d="M978,1701 L998,384" stroke="blue" stroke-width="2" />
<path d="M386,1163 L920,1536" stroke="blue" stroke-width="2" />
<path d="M293,2283 L590,1319" stroke="blue" stroke-width="2" />
<path d="M1038,650 L355,600" stroke="blue" stroke-width="2" />
<path d="M572,428 L423,1248" stroke="blue" stroke-width="2" />
<path d="M1009,677 L88,1614" stroke="blue" stroke-width="2" />
<path d="M492,78 L826,384" stroke="blue" stroke-width="2" />
<path d="M1012,1294 L1349,1027" stroke="blue" stroke-width="2" />
<path d="M611,1449 L463,713" stroke="blue" stroke-width="2" />
<path d="M359,1899 L409,1786" stroke="blue" stroke-width="2" />
<path d="M1142,1356 L605,49" stroke="blue" stroke-width="2" />
<path d="M977,2483 L769,876" stroke="blue" stroke-width="2" />
<path d="M649,2405 L513,1964" stroke="blue" stroke-width="2" />
<path d="M882,452 L1173,387" stroke="blue" stroke-width="2" />
<path d="M836,54 L809,1794" stroke="blue" stroke-width="2" />
<path d="M22,1012 L1042,1577" stroke="blue" stroke-width="2" />
<path d="M1285,654 L461,1348" stroke="blue" stroke-width="2" />
<path d="M66,1941 L1443,1184" stroke="blue" stroke-width="2" />
<path d="M953,1677 L681,1155" stroke="blue" stroke-width="2" />
<path d="M1102,909 L874,1876" stroke="blue" stroke-width="2" />
<path d="M1505,2563 L806,711" stroke="blue" stroke-width="2" />
<path d="M294,1772 L1449,1785" stroke="blue" stroke-width="2" />
<path d="M1301,579 L145,2419" stroke="blue" stroke-width="2" />
<path d="M1090,1361 L644,1069" stroke="blue" stroke-width="2" />
<path d="M1323,2347 L637,2203" stroke="blue" stroke-width="2" />
<path d="M1376,1527 L613,142" stroke="blue" stroke-width="2" />
<path d="M1287,1666 L123,2430" stroke="blue" stroke-width="2" />
<path d="M1226,1768 L505,534" stroke="blue" stroke-width="2" />
<path d="M837,2262 L117,1560" stroke="blue" stroke-width="2" />
<path d="M574,1232 L674,1243" stroke="blue" stroke-width="2" />
<path d="M986,1378 L1237,307" stroke="blue" stroke-width="2" />
<path d="M1095,636 L1014,2108" stroke="blue" stroke-width="2" />
<path d="M374,2199 L1075,2324" stroke="blue" stroke-width="2" />
<path d="M1341,1446 L182,963" stroke="blue" stroke-width="2" />
<path d="M659,2185 L1475,519" stroke="blue" stroke-width="2" />
<path d="M938,2185 L1040,1237" stroke="blue" stroke-width="2" />
<path d="M1323,123 L366,611" stroke="blue" stroke-width="2" />
<path d="M366,2098 L1122,1367" stroke="blue" stroke-width="2" />
<path d="M14,718 L1352,2288" stroke="blue" stroke-width="2" />
<path d="M284,2491 L19,1193" stroke="blue" stroke-width="2" />
<path d="M1253,508 L588,1186" stroke="blue" stroke-width="2" />
<path d="M364,1488 L1104,451" stroke="blue" stroke-width="2" />
<path d="M38,2552 L719,345" stroke="blue" stroke-width="2" />
<path d="M699,1911 L702,2005" stroke="blue" stroke-width="2" />
<path d="M1249,686 L1392,2035" stroke="blue" stroke-width="2" />
<path d="M18,1208 L856,1628" stroke="blue" stroke-width="2" />
<path d="M1095,2048 L547,2609" stroke="blue" stroke-width="2" />
<path d="M963,2244 L972,2298" stroke="blue" stroke-width="2" />
<path d="M193,220 L1196,1671" stroke="blue" stroke-width="2" />
<path d="M1294,1305 L384,442" stroke="blue" stroke-width="2" />
<path d="M1063,1958 L1471,1763" stroke="blue" stroke-width="2" />
<path d="M402,935 L185,1260" stroke="blue" stroke-width="2" />
<path d="M1165,1032 L1263,520" stroke="blue" stroke-width="2" />
<path d="M103,269 L1033,1900" stroke="blue" stroke-width="2" />
<path d="M1395,2239 L107,1387" stroke="blue" stroke-width="2" />
<path d="M116,465 L540,1402" stroke="blue" stroke-width="2" />
<path d="M27,129 L263,524" stroke="blue" stroke-width="2" />
<path d="M1173,1640 L292,1761" stroke="blue" stroke-width="2" />
<path d="M540,1278 L520,655" stroke="blue" stroke-width="2" />
<path d="M87,1611 L1237,1334" stroke="blue" stroke-width="2" />
<path d="M519,1646 L1292,1284" stroke="blue" stroke-width="2" />
<path d="M1451,1967 L570,2558" stroke="blue" stroke-width="2" />
<path d="M1301,501 L963,2042" stroke="blue" stroke-width="2" />
<path d="M589,1998 L1158,2094" stroke="blue" stroke-width="2" />
<path d="M985,2556 L1512,1463" stroke="blue" stroke-width="2" />
<path d="M1324,1232 L391,486" stroke="blue" stroke-width="2" />
<path d="M1316,1123 L1013,1244" stroke="blue" stroke-width="2" />
<path d="M408,838 L679,2603" stroke="blue" stroke-width="2" />
<path d="M1188,753 L238,182" stroke="blue" stroke-width="2" />
<path d="M521,899 L1458,92" stroke="blue" stroke-width="2" />
<path d="M0,2544 L56,746" stroke="blue" stroke-width="2" />
<path d="M366,1877 L449,753" stroke="blue" stroke-width="2" />
<path d="M1033,245 L1287,2471" stroke="blue" stroke-width="2" />
<path d="M990,1732 L90,2446" stroke="blue" stroke-width="2" />
<path d="M1329,1218 L1047,1943" stroke="blue" stroke-width="2" />
<path d="M920,1715 L442,1440" stroke="blue" stroke-width="2" />
<path d="M77,1458 L394,2623" stroke="blue" stroke-width="2" />
<path d="M308,1827 L616,2583" stroke="blue" stroke-width="2" />
<path d="M533,662 L474,2045" stroke="blue" stroke-width="2" />
<path d="M1325,2080 L616,1269" stroke="blue" stroke-width="2" />
<path d="M916,2168 L1339,2289" stroke="blue" stroke-width="2" />
<path d="M1340,2227 L210,1660" stroke="blue" stroke-width="2" />
<path d="M197,485 L978,1057" stroke="blue" stroke-width="2" />
<path d="M642,1650 L197,561" stroke="blue" stroke-width="2" />
<path d="M762,1527 L1063,882" stroke="blue" stroke-width="2" />
<path d="M419,1103 L1091,1069" stroke="blue" stroke-width="2" />
<path d="M1275,580 L1370,2229" stroke="blue" stroke-width="2" />
<path d="M1288,1893 L296,1087" stroke="blue" stroke-width="2" />
<path d="M1043,978 L952,2005" stroke="blue" stroke-width="2" />
<path d="M756,1971 L436,233" stroke="blue" stroke-width="2" />
<path d="M281,1737 L626,1389" stroke="blue" stroke-width="2" />
<path d="M1106,2375 L1373,1822" stroke="blue" stroke-width="2" />
<path d="M1282,254 L308,2371" stroke="blue" stroke-width="2" />
<path d="M512,2320 L1244,157" stroke="blue" stroke-width="2" />
<path d="M271,1399 L230,2349" stroke="blue" stroke-width="2" />
<path d="M1250,2404 L361,1452" stroke="blue" stroke-width="2" />
<path d="M262,413 L1382,779" stroke="blue" stroke-width="2" />
<path d="M705,1077 L33,1353" stroke="blue" stroke-width="2" />
<path d="M263,2406 L1343,598" stroke="blue" stroke-width="2" />
<path d="M1170,554 L1336,1656" stroke="blue" stroke-width="2" />
<path d="M471,2546 L408,1301" stroke="blue" stroke-width="2" />
<path d="M1216,2012 L1489,390" stroke="blue" stroke-width="2" />
<path d="M11,794 L1425,2035" stroke="blue" stroke-width="2" />
<path d="M1400,1314 L1258,1145" stroke="blue" stroke-width="2" />
<path d="M64,805 L793,1325" stroke="blue" stroke-width="2" />
<path d="M771,1341 L1132,2283" stroke="blue" stroke-width="2" />
<path d="M145,2393 L960,1239" stroke="blue" stroke-width="2" />
<path d="M286,2027 L555,1296" stroke="blue" stroke-width="2" />
<path d="M994,1530 L219,1845" stroke="blue" stroke-width="2" />
<path d="M871,325 L731,2032" stroke="blue" stroke-width="2" />
<path d="M1341,2534 L1199,2112" stroke="blue" stroke-width="2" />
<path d="M1488,155 L1098,1627" stroke="blue" stroke-width="2" />
<path d="M1190,759 L512,340" stroke="blue" stroke-width="2" />
<path d="M181,104 L784,2367" stroke="blue" stroke-width="2" />
<path d="M348,1504 L346,373" stroke="blue" stroke-width="2" />
<path d="M742,1797 L477,1195" stroke="blue" stroke-width="2" />
<path d="M890,815 L593,712" stroke="blue" stroke-width="2" />
<path d="M197,915 L831,1385" stroke="blue" stroke-width="2" />
<path d="M615,1866 L705,1264" stroke="blue" stroke-width="2" />
<path d="M1306,317 L325,1811" stroke="blue" stroke-width="2" />
<path d="M499,593 L1045,1720" stroke="blue" stroke-width="2" />
<path d="M1180,553 L264,1992" stroke="blue" stroke-width="2" />
<path d="M517,2334 L1153,393" stroke="blue" stroke-width="2" />
<path d="M1218,1143 L270,2528" stroke="blue" stroke-width="2" />
<path d="M1235,1281 L1403,2391" stroke="blue" stroke-width="2" />
<path d="M619,2319 L1094,1590" stroke="blue" stroke-width="2" />
<path d="M809,1709 L1465,1857" stroke="blue" stroke-width="2" />
<path d="M61,1774 L1300,1856" stroke="blue" stroke-width="2" />
<path d="M162,2259 L564,987" stroke="blue" stroke-width="2" />
<path d="M787,1895 L1047,2014" stroke="blue" stroke-width="2" />
<path d="M168,1596 L723,1766" stroke="blue" stroke-width="2" />
<path d="M216,2512 L1511,391" stroke="blue" stroke-width="2" />
<path d="M423,1096 L655,237" stroke="blue" stroke-width="2" />
<path d="M1488,1593 L373,2079" stroke="blue" stroke-width="2" />
<path d="M1168,1745 L1395,1519" stroke="blue" stroke-width="2" />
<path d="M660,2560 L1040,441" stroke="blue" stroke-width="2" />
<path d="M802,1269 L679,2395" stroke="blue" stroke-width="2" />
<path d="M1234,1964 L438,1133" stroke="blue" stroke-width="2" />
<path d="M536,1450 L1465,1535" stroke="blue" stroke-width="2" />
<path d="M650,26 L876,2002" stroke="blue" stroke-width="2" />
<path d="M1405,2143 L1048,1053" stroke="blue" stroke-width="2" />
<path d="M78,2514 L1031,1987" stroke="blue" stroke-width="2" />
<path d="M884,964 L559,1478" stroke="blue" stroke-width="2" />
<path d="M922,1608 L1468,1752" stroke="blue" stroke-width="2" />
<path d="M1073,2273 L208,682" stroke="blue" stroke-width="2" />
<path d="M1331,372 L1467,2310" stroke="blue" stroke-width="2" />
<path d="M493,1113 L211,1254" stroke="blue" stroke-width="2" />
<path d="M553,782 L785,618" stroke="blue" stroke-width="2" />
<path d="M274,1556 L1098,16" stroke="blue" stroke-width="2" />
<path d="M823,1835 L84,2018" stroke="blue" stroke-width="2" />
<path d="M121,247 L995,2464" stroke="blue" stroke-width="2" />
<path d="M1351,1613 L666,17" stroke="blue" stroke-width="2" />
<path d="M120,1690 L1381,2359" stroke="blue" stroke-width="2" />
<path d="M114,643 L131,2269" stroke="blue" stroke-width="2" />
<path d="M1361,1664 L1265,2556" stroke="blue" stroke-width="2" />
<path d="M632,866 L479,7" stroke="blue" stroke-width="2" />
<path d="M723,2311 L575,157" stroke="blue" stroke-width="2" />
<path d="M1192,1179 L1017,902" stroke="blue" stroke-width="2" />
<path d="M374,1452 L724,682" stroke="blue" stroke-width="2" />
<path d="M597,430 L356,1328" stroke="blue" stroke-width="2" />
<path d="M1077,2655 L118,1324" stroke="blue" stroke-width="2" />
<path d="M1247,1561 L991,2292" stroke="blue" stroke-width="2" />
<path d="M910,2404 L79,1615" stroke="blue" stroke-width="2" />
<path d="M236,155 L773,1380" stroke="blue" stroke-width="2" />
<path d="M951,129 L1235,2363" stroke="blue" stroke-width="2" />
<path d="M1012,626 L1040,1737" stroke="blue" stroke-width="2" />
<path d="M321,2260 L541,2218" stroke="blue" stroke-width="2" />
<path d="M199,1982 L1396,2376" stroke="blue" stroke-width="2" />
<path d="M914,2415 L888,141" stroke="blue" stroke-width="2" />
<path d="M180,2199 L937,448" stroke="blue" stroke-width="2" />
<path d="M33,2241 L698,1189" stroke="blue" stroke-width="2" />
<path d="M1125,2259 L788,678" stroke="blue" stroke-width="2" />
<path d="M1233,2526 L1038,503" stroke="blue" stroke-width="2" />
<path d="M1061,737 L672,701" stroke="blue" stroke-width="2" />
<path d="M790,1562 L953,640" stroke="blue" stroke-width="2" />
<path d="M1076,1121 L931,2045" stroke="blue" stroke-width="2" />
<path d="M162,1716 L1290,1938" stroke="blue" stroke-width="2" />
<path d="M883,1837 L431,1150" stroke="blue" stroke-width="2" />
<path d="M1201,1424 L841,919" stroke="blue" stroke-width="2" />
<path d="M1024,2505 L586,1845" stroke="blue" stroke-width="2" />
<path d="M601,954 L1439,1814" stroke="blue" stroke-width="2" />
<path d="M588,560 L29,1570" stroke="blue" stroke-width="2" />
<path d="M855,1584 L640,1532" stroke="blue" stroke-width="2" />
<path d="M567,2471 L292,1810" stroke="blue" stroke-width="2" />
<path d="M779,557 L698,1322" stroke="blue" stroke-width="2" />
<path d="M751,868 L1021,2129" stroke="blue" stroke-width="2" />
<path d="M408,640 L1080,1580" stroke="blue" stroke-width="2" />
<path d="M1336,636 L1196,1025" stroke="blue" stroke-width="2" />
<path d="M57,939 L859,433" stroke="blue" stroke-width="2" />
<path d="M227,245 L941,2377" stroke="blue" stroke-width="2" />
<path d="M27,450 L340,2175" stroke="blue" stroke-width="2" />
<path d="M417,2554 L552,366" stroke="blue" stroke-width="2" />
<path d="M652,1482 L1131,2590" stroke="blue" stroke-width="2" />
<path d="M489,1157 L772,2589" stroke="blue" stroke-width="2" />
<path d="M807,2577 L632,1944" stroke="blue" stroke-width="2" />
<path d="M1423,516 L1111,255" stroke="blue" stroke-width="2" />
<path d="M228,377 L1125,2283" stroke="blue" stroke-width="2" />
<path d="M543,456 L996,2455" stroke="blue" stroke-width="2" />
<path d="M497,1115 L17,444" stroke="blue" stroke-width="2" />
<path d="M1306,2231 L1403,2607" stroke="blue" stroke-width="2" />
<path d="M128,2569 L522,1124" stroke="blue" stroke-width="2" />
<path d="M50,983 L737,657" stroke="blue" stroke-width="2" />
<path d="M455,2488 L1399,2020" stroke="blue" stroke-width="2" />
<path d="M908,2095 L1467,1715" stroke="blue" stroke-width="2" />
<path d="M771,2605 L513,1521" stroke="blue" stroke-width="2" />
<path d="M943,418 L688,2555" stroke="blue" stroke-width="2" />
<path d="M846,2006 L1373,646" stroke="blue" stroke-width="2" />
<path d="M376,579 L218,260" stroke="blue" stroke-width="2" />
<path d="M728,1197 L669,998" stroke="blue" stroke-width="2" />
<path d="M1135,1489 L208,514" stroke="blue" stroke-width="2" />
<path d="M254,1106 L88,1525" stroke="blue" stroke-width="2" />
<path d="M474,2201 L246,1659" stroke="blue" stroke-width="2" />
<path d="M637,2617 L667,2642" stroke="blue" stroke-width="2" />
<path d="M539,1157 L512,893" stroke="blue" stroke-width="2" />
<path d="M1005,263 L1363,1134" stroke="blue" stroke-width="2" />
<path d="M907,1803 L691,1549" stroke="blue" stroke-width="2" />
<path d="M358,1755 L754,929" stroke="blue" stroke-width="2" />
<path d="M1047,2226 L529,2423" stroke="blue" stroke-width="2" />
<path d="M826,2355 L558,587" stroke="blue" stroke-width="2" />
<path d="M53,1562 L222,1435" stroke="blue" stroke-width="2" />
<path d="M966,2417 L1224,365" stroke="blue" stroke-width="2" />
<path d="M1278,127 L45,805" stroke="blue" stroke-width="2" />
<path d="M1194,136 L140,707" stroke="blue" stroke-width="2" />
<path d="M1443,2195 L86,1380" stroke="blue" stroke-width="2" />
<path d="M193,870 L648,643" stroke="blue" stroke-width="2" />
<path d="M1436,497 L742,267" stroke="blue" stroke-width="2" />
<path d="M601,1386 L1187,1885" stroke="blue" stroke-width="2" />
<path d="M84,2066 L263,232" stroke="blue" stroke-width="2" />
<path d="M318,2504 L1226,477" stroke="blue" stroke-width="2" />
<path d="M779,2375 L1147,21" stroke="blue" stroke-width="2" />
<path d="M1196,2639 L1376,376" stroke="blue" stroke-width="2" />
<path d="M943,1568 L265,150" stroke="blue" stroke-width="2" />
<path d="M1086,1098 L1002,1286" stroke="blue" stroke-width="2" />
<path d="M843,768 L940,1300" stroke="blue" stroke-width="2" />
<path d="M19,1674 L89,1487" stroke="blue" stroke-width="2" />
<path d="M1289,589 L904,2534" stroke="blue" stroke-width="2" />
<path d="M1433,2125 L254,300" stroke="blue" stroke-width="2" />
<path d="M1065,81 L1501,2365" stroke="blue" stroke-width="2" />
<path d="M489,2260 L956,93" stroke="blue" stroke-width="2" />
<path d="M110,1424 L369,263" stroke="blue" stroke-width="2" />
<path d="M1440,2282 L1176,1162" stroke="blue" stroke-width="2" />
<path d="M1279,2277 L92,2301" stroke="blue" stroke-width="2" />
<path d="M447,111 L137,183" stroke="blue" stroke-width="2" />
<path d="M477,25 L978,202" stroke="blue" stroke-width="2" />
<path d="M97,2510 L497,321" stroke="blue" stroke-width="2" />
<path d="M912,2626 L66,1807" stroke="blue" stroke-width="2" />
<path d="M917,1377 L924,1399" stroke="blue" stroke-width="2" />
<path d="M665,1920 L253,924" stroke="blue" stroke-width="2" />
<path d="M633,1091 L43,255" stroke="blue" stroke-width="2" />
<path d="M845,1691 L340,2480" stroke="blue" stroke-width="2" />
<path d="M232,13 L1428,2131" stroke="blue" stroke-width="2" />
<path d="M1375,847 L513,230" stroke="blue" stroke-width="2" />
<path d="M1222,698 L1182,128" stroke="blue" stroke-width="2" />
<path d="M221,1081 L1220,66" stroke="blue" stroke-width="2" />
<path d="M472,1440 L75,901" stroke="blue" stroke-width="2" />
<path d="M1478,1319 L1079,484" stroke="blue" stroke-width="2" />
<path d="M326,2267 L223,2429" stroke="blue" stroke-width="2" />
<path d="M1061,1438 L1194,1672" stroke="blue" stroke-width="2" />
<path d="M521,1887 L1288,1389" stroke="blue" stroke-width="2" />
<path d="M562,2339 L748,592" stroke="blue" stroke-width="2" />
<path d="M199,749 L623,2133" stroke="blue" stroke-width="2" />
<path d="M658,2218 L925,887" stroke="blue" stroke-width="2" />
<path d="M746,1203 L131,1015" stroke="blue" stroke-width="2" />
<path d="M1336,2126 L66,600" stroke="blue" stroke-width="2" />
<path d="M1433,952 L1017,741" stroke="blue" stroke-width="2" />
<path d="M14,1757 L340,1232" stroke="blue" stroke-width="2" />
<path d="M1350,1996 L1435,599" stroke="blue" stroke-width="2" />
<path d="M334,43 L26,1008" stroke="blue" stroke-width="2" />
<path d="M1029,746 L617,2324" stroke="blue" stroke-width="2" />
<path d="M335,244 L643,1482" stroke="blue" stroke-width="2" />
<path d="M679,1870 L601,844" stroke="blue" stroke-width="2" />
<path d="M195,1839 L1164,1839" stroke="blue" stroke-width="2" />
<path d="M333,1613 L1056,1155" stroke="blue" stroke-width="2" />
<path d="M504,2238 L568,356" stroke="blue" stroke-width="2" />
<path d="M786,880 L547,1681" stroke="blue" stroke-width="2" />
<path d="M776,1311 L1226,706" stroke="blue" stroke-width="2" />
<path d="M1286,1991 L874,1330" stroke="blue" stroke-width="2" />
<path d="M774,2254 L423,640" stroke="blue" stroke-width="2" />
<path d="M702,1811 L626,2432" stroke="blue" stroke-width="2" />
<path d="M1403,1360 L1039,1713" stroke="blue" stroke-width="2" />
<path d="M660,2529 L1041,246" stroke="blue" stroke-width="2" />
<path d="M1399,2048 L1280,1299" stroke="blue" stroke-width="2" />
<path d="M711,625 L253,2629" stroke="blue" stroke-width="2" />
<path d="M1044,1475 L1184,2298" stroke="blue" stroke-width="2" />
<path d="M68,1143 L1390,977" stroke="blue" stroke-width="2" />
<path d="M365,1410 L301,121" stroke="blue" stroke-width="2" />
<path d="M1155,2557 L944,226" stroke="blue" stroke-width="2" />
<path d="M904,1804 L540,2543" stroke="blue" stroke-width="2" />
<path d="M1469,2594 L732,2293" stroke="blue" stroke-width="2" />
<path d="M1485,346 L897,793" stroke="blue" stroke-width="2" />
<path d="M1340,889 L319,1254" stroke="blue" stroke-width="2" />
<path d="M664,2298 L662,2081" stroke="blue" stroke-width="2" />
<path d="M1204,408 L50,38" stroke="blue" stroke-width="2" />
<path d="M807,1164 L655,1130" stroke="blue" stroke-width="2" />
<path d="M689,478 L330,190" stroke="blue" stroke-width="2" />
<path d="M128,1386 L336,761" stroke="blue" stroke-width="2" />
<path d="M1047,2299 L687,1968" stroke="blue" stroke-width="2" />
<path d="M736,2211 L1110,1133" stroke="blue" stroke-width="2" />
<path d="M122,1513 L456,593" stroke="blue" stroke-width="2" />
<path d="M356,1439 L728,1148" stroke="blue" stroke-width="2" />
<path d="M1149,212 L507,1114" stroke="blue" stroke-width="2" />
<path d="M200,1924 L839,2012" stroke="blue" stroke-width="2" />
<path d="M419,811 L815,2097" stroke="blue" stroke-width="2" />
<path d="M680,47 L1084,1566" stroke="blue" stroke-width="2" />
<path d="M662,975 L295,2390" stroke="blue" stroke-width="2" />
<path d="M1451,758 L875,1673" stroke="blue" stroke-width="2" />
<path d="M738,709 L423,2579" stroke="blue" stroke-width="2" />
<path d="M1004,117 L237,448" stroke="blue" stroke-width="2" />
<path d="M1194,2321 L466,1668" stroke="blue" stroke-width="2" />
<path d="M346,1566 L169,1598" stroke="blue" stroke-width="2" />
<path d="M410,491 L267,2336" stroke="blue" stroke-width="2" />
<path d="M581,1806 L841,793" stroke="blue" stroke-width="2" />
<path d="M453,1208 L532,2343" stroke="blue" stroke-width="2" />
<path d="M547,944 L920,702" stroke="blue" stroke-width="2" />
<path d="M1121,2226 L958,1901" stroke="blue" stroke-width="2" />
<path d="M1137,1890 L1007,2021" stroke="blue" stroke-width="2" />
<path d="M1051,59 L794,2033" stroke="blue" stroke-width="2" />
<path d="M506,2493 L257,1793" stroke="blue" stroke-width="2" />
<path d="M384,1567 L1027,1511" stroke="blue" stroke-width="2" />
<path d="M1450,970 L1276,1696" stroke="blue" stroke-width="2" />
<path d="M907,1527 L1513,469" stroke="blue" stroke-width="2" />
<path d="M82,740 L1068,1060" stroke="blue" stroke-width="2" />
<path d="M1304,4 L1247,821" stroke="blue" stroke-width="2" />
<path d="M379,1207 L1178,328" stroke="blue" stroke-width="2" />
<path d="M1271,1268 L904,2433" stroke="blue" stroke-width="2" />
<path d="M197,216 L1456,563" stroke="blue" stroke-width="2" />
<path d="M984,1182 L330,1804" stroke="blue" stroke-width="2" />
<path d="M200,1532 L1463,1431" stroke="blue" stroke-width="2" />
<path d="M425,2578 L105,2250" stroke="blue" stroke-width="2" />
<path d="M629,693 L1024,299" stroke="blue" stroke-width="2" />
<path d="M947,2232 L777,1889" stroke="blue" stroke-width="2" />
<path d="M1071,42 L496,942" stroke="blue" stroke-width="2" />
<path d="M78,48 L692,1625" stroke="blue" stroke-width="2" />
<path d="M75,2632 L456,1432" stroke="blue" stroke-width="2" />
<path d="M234,49 L199,1652" stroke="blue" stroke-width="2" />
<path d="M1324,1718 L900,1904" stroke="blue" stroke-width="2" />
<path d="M963,1599 L1439,2150" stroke="blue" stroke-width="2" />
<path d="M1354,1211 L1075,2007" stroke="blue" stroke-width="2" />
<path d="M883,1431 L352,1566" stroke="blue" stroke-width="2" />
<path d="M288,2426 L721,2521" stroke="blue" stroke-width="2" />
<path d="M118,565 L839,1379" stroke="blue" stroke-width="2" />
<path d="M352,1469 L225,593" stroke="blue" stroke-width="2" />
<path d="M862,1481 L45,119" stroke="blue" stroke-width="2" />
<path d="M1010,947 L1320,2542" stroke="blue" stroke-width="2" />
<path d="M893,547 L1514,2539" stroke="blue" stroke-width="2" />
<path d="M495,624 L333,1019" stroke="blue" stroke-width="2" />
<path d="M794,1665 L1128,1479" stroke="blue" stroke-width="2" />
<path d="M1418,1481 L1037,2158" stroke="blue" stroke-width="2" />
<path d="M633,2555 L379,651" stroke="blue" stroke-width="2" />
<path d="M518,2114 L1148,484" stroke="blue" stroke-width="2" />
<path d="M23,629 L849,1263" stroke="blue" stroke-width="2" />
<path d="M1262,1919 L1452,772" stroke="blue" stroke-width="2" />
<path d="M1441,895 L142,2279" stroke="blue" stroke-width="2" />
<path d="M1343,571 L985,876" stroke="blue" stroke-width="2" />
<path d="M447,2131 L337,1872" stroke="blue" stroke-width="2" />
<path d="M416,1513 L453,307" stroke="blue" stroke-width="2" />
<path d="M1388,1478 L111,2492" stroke="blue" stroke-width="2" />
<path d="M529,422 L988,2542" stroke="blue" stroke-width="2" />
<path d="M128,1490 L285,1034" stroke="blue" stroke-width="2" />
<path d="M1000,1940 L36,1390" stroke="blue" stroke-width="2" />
<path d="M617,2555 L1437,1668" stroke="blue" stroke-width="2" />
<path d="M1228,868 L619,1548" stroke="blue" stroke-width="2" />
<path d="M1432,704 L1208,2185" stroke="blue" stroke-width="2" />
<path d="M560,1459 L257,2327" stroke="blue" stroke-width="2" />
<path d="M528,352 L1490,109" stroke="blue" stroke-width="2" />
<path d="M1016,2428 L1503,1060" stroke="blue" stroke-width="2" />
<path d="M467,1222 L1125,959" stroke="blue" stroke-width="2" />
<path d="M310,1918 L250,336" stroke="blue" stroke-width="2" />
<path d="M731,329 L1341,1545" stroke="blue" stroke-width="2" />
<path d="M1027,2041 L117,1891" stroke="blue" stroke-width="2" />
<path d="M1447,33 L249,1927" stroke="blue" stroke-width="2" />
<path d="M279,1800 L555,570" stroke="blue" stroke-width="2" />
<path d="M27,1577 L400,881" stroke="blue" stroke-width="2" />
<path d="M1050,2604 L1469,1744" stroke="blue" stroke-width="2" />
<path d="M1157,425 L334,721" stroke="blue" stroke-width="2" />
<path d="M1221,236 L94,864" stroke="blue" stroke-width="2" />
<path d="M476,2293 L386,47" stroke="blue" stroke-width="2" />
<path d="M178,2364 L444,1612" stroke="blue" stroke-width="2" />
<path d="M142,1582 L1188,1262" stroke="blue" stroke-width="2" />
<path d="M557,302 L12,972" stroke="blue" stroke-width="2" />
<path d="M957,1155 L1493,2206" stroke="blue" stroke-width="2" />
<path d="M262,1902 L42,2168" stroke="blue" stroke-width="2" />
<path d="M130,621 L1047,1940" stroke="blue" stroke-width="2" />
<path d="M701,252 L1197,1827" stroke="blue" stroke-width="2" />
<path d="M619,1823 L709,1178" stroke="blue" stroke-width="2" />
<path d="M876,2344 L454,1915" stroke="blue" stroke-width="2" />
<path d="M1459,2176 L550,2383" stroke="blue" stroke-width="2" />
<path d="M332,1950 L866,1542" stroke="blue" stroke-width="2" />
<path d="M716,1535 L283,1112" stroke="blue" stroke-width="2" />
<path d="M466,1573 L729,329" stroke="blue" stroke-width="2" />
<path d="M837,1141 L1479,1881" stroke="blue" stroke-width="2" />
<path d="M576,839 L484,1842" stroke="blue" stroke-width="2" />
<path d="M761,1566 L1183,2046" stroke="blue" stroke-width="2" />
<path d="M1414,214 L1397,2385" stroke="blue" stroke-width="2" />
<path d="M194,544 L493,222" stroke="blue" stroke-width="2" />
<path d="M34,1331 L8,133" stroke="blue" stroke-width="2" />
<path d="M103,968 L822,1428" stroke="blue" stroke-width="2" />
<path d="M47,2221 L904,123" stroke="blue" stroke-width="2" />
<path d="M728,1483 L737,755" stroke="blue" stroke-width="2" />
<path d="M666,149 L1115,1004" stroke="blue" stroke-width="2" />
<path d="M681,2071 L830,445" stroke="blue" stroke-width="2" />
<path d="M894,2564 L711,2515" stroke="blue" stroke-width="2" />
<path d="M995,2532 L66,427" stroke="blue" stroke-width="2" />
<path d="M1304,343 L1404,970" stroke="blue" stroke-width="2" />
<path d="M1485,2295 L225,574" stroke="blue" stroke-width="2" />
<path d="M626,709 L22,275" stroke="blue" stroke-width="2" />
<path d="M835,1930 L1422,600" stroke="blue" stroke-width="2" />
<path d="M1156,53 L689,1243" stroke="blue" stroke-width="2" />
<path d="M369,2561 L50,719" stroke="blue" stroke-width="2" />
<path d="M1226,1536 L664,614" stroke="blue" stroke-width="2" />
<path d="M1174,2108 L1248,1944" stroke="blue" stroke-width="2" />
<path d="M168,158 L1208,182" stroke="blue" stroke-width="2" />
<path d="M771,327 L1267,684" stroke="blue" stroke-width="2" />
<path d="M1037,1497 L1267,159" stroke="blue" stroke-width="2" />
<path d="M304,1430 L609,830" stroke="blue" stroke-width="2" />
<path d="M488,796 L441,551" stroke="blue" stroke-width="2" />
<path d="M51,1234 L497,343" stroke="blue" stroke-width="2" />
<path d="M1244,1391 L808,304" stroke="blue" stroke-width="2" />
<path d="M1089,381 L713,1746" stroke="blue" stroke-width="2" />
<path d="M770,944 L57,1758" stroke="blue" stroke-width="2" />
<path d="M633,2236 L1038,1886" stroke="blue" stroke-width="2" />
<path d="M102,148 L65,600" stroke="blue" stroke-width="2" />
<path d="M1058,1578 L1051,2251" stroke="blue" stroke-width="2" />
<path d="M78,2215 L852,375" stroke="blue" stroke-width="2" />
<path d="M1157,1345 L505,1599" stroke="blue" stroke-width="2" />
<path d="M965,2129 L825,655" stroke="blue" stroke-width="2" />
<path d="M766,2567 L9,396" stroke="blue" stroke-width="2" />
<path d="M679,2171 L566,1966" stroke="blue" stroke-width="2" />
<path d="M155,1833 L127,2041" stroke="blue" stroke-width="2" />
<path d="M1131,1212 L1276,2020" stroke="blue" stroke-width="2" />
<path d="M260,2232 L1265,1693" stroke="blue" stroke-width="2" />
<path d="M1031,980 L1227,2584" stroke="blue" stroke-width="2" />
<path d="M591,474 L492,1102" stroke="blue" stroke-width="2" />
<path d="M879,1606 L416,756" stroke="blue" stroke-width="2" />
<path d="M571,476 L862,1122" stroke="blue" stroke-width="2" />
<path d="M734,1996 L1286,1245" stroke="blue" stroke-width="2" />
<path d="M712,2274 L425,1841" stroke="blue" stroke-width="2" />
<path d="M233,1328 L647,523" stroke="blue" stroke-width="2" />
<path d="M180,208 L374,885" stroke="blue" stroke-width="2" />
<path d="M267,912 L1374,410" stroke="blue" stroke-width="2" />
<path d="M45,2465 L1289,2255" stroke="blue" stroke-width="2" />
<path d="M279,1472 L75,642" stroke="blue" stroke-width="2" />
<path d="M493,135 L706,208" stroke="blue" stroke-width="2" />
<path d="M308,744 L697,1116" stroke="blue" stroke-width="2" />
<path d="M27,1138 L864,2036" stroke="blue" stroke-width="2" />
<path d="M8,50 L1487,977" stroke="blue" stroke-width="2" />
<path d="M1461,281 L640,2099" stroke="blue" stroke-width="2" />
<path d="M1031,176 L969,254" stroke="blue" stroke-width="2" />
<path d="M1209,673 L393,2158" stroke="blue" stroke-width="2" />
<path d="M969,1410 L487,641" stroke="blue" stroke-width="2" />
<path d="M1216,470 L807,1787" stroke="blue" stroke-width="2" />
<path d="M477,80 L134,449" stroke="blue" stroke-width="2" />
<path d="M960,1478 L1136,1534" stroke="blue" stroke-width="2" />
<path d="M36,2420 L245,845" stroke="blue" stroke-width="2" />
<path d="M675,1952 L1365,1732" stroke="blue" stroke-width="2" />
<path d="M499,1660 L1234,1948" stroke="blue" stroke-width="2" />
<path d="M823,1628 L168,2509" stroke="blue" stroke-width="2" />
<path d="M502,2017 L1075,179" stroke="blue" stroke-width="2" />
<path d="M1102,1350 L298,2006" stroke="blue" stroke-width="2" />
<path d="M412,244 L1040,768" stroke="blue" stroke-width="2" />
<path d="M217,1624 L918,2384" stroke="blue" stroke-width="2" />
<path d="M399,1079 L108,426" stroke="blue" stroke-width="2" />
<path d="M1477,117 L560,83" stroke="blue" stroke-width="2" />
<path d="M809,1190 L754,1180" stroke="blue" stroke-width="2" />
<path d="M882,319 L1466,2395" stroke="blue" stroke-width="2" />
<path d="M374,1252 L969,2242" stroke="blue" stroke-width="2" />
<path d="M529,1974 L1130,863" stroke="blue" stroke-width="2" />
<path d="M1295,548 L201,2028" stroke="blue" stroke-width="2" />
<path d="M993,214 L1221,459" stroke="blue" stroke-width="2" />
<path d="M463,1410 L1504,1552" stroke="blue" stroke-width="2" />
<path d="M146,2187 L168,788" stroke="blue" stroke-width="2" />
<path d="M700,1618 L708,771" stroke="blue" stroke-width="2" />
<path d="M228,2453 L58,66" stroke="blue" stroke-width="2" />
<path d="M88,218 L288,1060" stroke="blue" stroke-width="2" />
<path d="M649,2333 L1373,532" stroke="blue" stroke-width="2" />
<path d="M156,302 L951,1129" stroke="blue" stroke-width="2" />
<path d="M731,1326 L245,1618" stroke="blue" stroke-width="2" />
<path d="M165,1756 L766,378" stroke="blue" stroke-width="2" />
<path d="M1059,1828 L439,290" stroke="blue" stroke-width="2" />
<path d="M177,1550 L384,614" stroke="blue" stroke-width="2" />
<path d="M1331,234 L538,1855" stroke="blue" stroke-width="2" />
<path d="M205,666 L212,1221" stroke="blue" stroke-width="2" />
<path d="M924,1768 L410,1533" stroke="blue" stroke-width="2" />
<path d="M1261,145 L987,1749" stroke="blue" stroke-width="2" />
<path d="M1339,1850 L311,901" stroke="blue" stroke-width="2" />
<path d="M343,1849 L462,1236" stroke="blue" stroke-width="2" />
<path d="M1321,361 L965,2534" stroke="blue" stroke-width="2" />
<path d="M325,1197 L953,32" stroke="blue" stroke-width="2" />
<path d="M1090,954 L305,1956" stroke="blue" stroke-width="2" />
<path d="M1219,913 L289,1988" stroke="blue" stroke-width="2" />
<path d="M860,2029 L1227,2508" stroke="blue" stroke-width="2" />
<path d="M461,459 L1429,890" stroke="blue" stroke-width="2" />
<path d="M545,1553 L637,2358" stroke="blue" stroke-width="2" />
<path d="M726,2372 L971,1389" stroke="blue" stroke-width="2" />
<path d="M577,2563 L276,1199" stroke="blue" stroke-width="2" />
<path d="M1485,1676 L1305,299" stroke="blue" stroke-width="2" />
<path d="M993,1582 L118,791" stroke="blue" stroke-width="2" />
<path d="M1352,2404 L1480,1860" stroke="blue" stroke-width="2" />
<path d="M717,1102 L1171,1026" stroke="blue" stroke-width="2" />
<path d="M1323,267 L356,468" stroke="blue" stroke-width="2" />
<path d="M307,856 L209,497" stroke="blue" stroke-width="2" />
<path d="M709,2440 L651,2" stroke="blue" stroke-width="2" />
<path d="M1134,1973 L696,2555" stroke="blue" stroke-width="2" />
<path d="M70,2465 L1500,304" stroke="blue" stroke-width="2" />
<path d="M1245,351 L1109,1456" stroke="blue" stroke-width="2" />
<path d="M1234,2095 L717,2149" stroke="blue" stroke-width="2" />
<path d="M459,628 L515,2050" stroke="blue" stroke-width="2" />
<path d="M1294,2336 L341,298" stroke="blue" stroke-width="2" />
<path d="M406,1990 L706,2489" stroke="blue" stroke-width="2" />
<path d="M1137,1218 L263,354" stroke="blue" stroke-width="2" />
<path d="M817,1574 L955,1232" stroke="blue" stroke-width="2" />
<path d="M0,0 L1515,0" stroke="red" stroke-width="10" />
<path d="M1515,0 L1515,2659" stroke="red" stroke-width="10" />
<path d="M0,2659 L1515,2659" stroke="red" stroke-width="10" />
<path d="M0,2659 L0,0" stroke="red" stroke-width="10" />
</svg>