<?xml version="1.0" encoding="UTF-8"?>
<svg xmlns="http://www.w3.org/2000/svg" xmlns:xlink="http://www.w3.org/1999/xlink"
     width="10000" height="10000" viewBox="0 0 10000 10000">
<defs>
</defs>
<path d="M2414,4086 L4650,201" stroke="blue" stroke-width="2" />
<path d="M7989,6783 L5629,590" stroke="blue" stroke-width="2" />
<path d="M7569,3819 L4851,4563" stroke="blue" stroke-width="2" />
<path d="M6523,9268 L1446,7181" stroke="blue" stroke-width="2" />
<path d="M8032,6166 L5618,4712" stroke="blue" stroke-width="2" />
<path d="M3233,6153 L7383,9060" stroke="blue" stroke-width="2" />
<path d="M2586,7048 L835,6510" stroke="blue" stroke-width="2" />
<path d="M2267,6609 L7350,1489" stroke="blue" stroke-width="2" />
<path d="M102,2520 L6016,7741" stroke="blue" stroke-width="2" />
<path d="M7152,6723 L790,4870" stroke="blue" stroke-width="2" />
<path d="M4081,3910 L1422,3458" stroke="blue" stroke-width="2" />
<path d="M3342,1315 L6729,1496" stroke="blue" stroke-width="2" />
<path d="M4374,5046 L2413,6528" stroke="blue" stroke-width="2" />
<path d="M4610,3096 L5961,601" stroke="blue" stroke-width="2" />
<path d="M1605,4959 L327,4247" stroke="blue" stroke-width="2" />
<path d="M7261,5002 L4737,7331" stroke="blue" stroke-width="2" />
<path d="M5535,8494 L5650,3192" stroke="blue" stroke-width="2" />
<path d="M6653,4655 L3818,7886" stroke="blue" stroke-width="2" />
<path d="M4486,6701 L6032,4470" stroke="blue" stroke-width="2" />
<path d="M7233,1252 L5115,2491" stroke="blue" stroke-width="2" />
<path d="M5161,8193 L6054,1260" stroke="blue" stroke-width="2" />
<path d="M6166,5056 L1686,3167" stroke="blue" stroke-width="2" />
<path d="M5252,6792 L4860,452" stroke="blue" stroke-width="2" />
<path d="M2475,751 L7482,6960" stroke="blue" stroke-width="2" />
<path d="M3196,7166 L4355,1228" stroke="blue" stroke-width="2" />
<path d="M513,7562 L1510,4973" stroke="blue" stroke-width="2" />
<path d="M8076,8562 L4000,8825" stroke="blue" stroke-width="2" />
<path d="M1277,6987 L767,7704" stroke="blue" stroke-width="2" />
<path d="M2620,5653 L1536,8409" stroke="blue" stroke-width="2" />
<path d="M4337,2946 L2043,6614" stroke="blue" stroke-width="2" />
<path d="M1744,1091 L3228,4046" stroke="blue" stroke-width="2" />
<path d="M6834,8333 L5763,1232" stroke="blue" stroke-width="2" />
<path d="M2180,3061 L7384,5594" stroke="blue" stroke-width="2" />
<path d="M6381,4692 L1632,3623" stroke="blue" stroke-width="2" />
<path d="M6028,5040 L2501,8718" stroke="blue" stroke-width="2" />
<path d="M2955,1562 L342,5752" stroke="blue" stroke-width="2" />
<path d="M5320,2789 L3421,8617" stroke="blue" stroke-width="2" />
<path d="M6832,263 L5678,1822" stroke="blue" stroke-width="2" />
<path d="M2716,825 L3779,2001" stroke="blue" stroke-width="2" />
<path d="M3324,5561 L7092,1016" stroke="blue" stroke-width="2" />
<path d="M6205,1492 L432,7000" stroke="blue" stroke-width="2" />
<path d="M5532,8689 L7159,6810" stroke="blue" stroke-width="2" />
<path d="M1693,3959 L1571,2643" stroke="blue" stroke-width="2" />
<path d="M7178,3351 L1674,4063" stroke="blue" stroke-width="2" />
<path d="M3218,1773 L7154,4569" stroke="blue" stroke-width="2" />
<path d="M1404,1285 L3983,6762" stroke="blue" stroke-width="2" />
<path d="M7987,7102 L7083,2771" stroke="blue" stroke-width="2" />
<path d="M2034,9284 L7116,4586" stroke="blue" stroke-width="2" />
<path d="M6299,7255 L4959,7399" stroke="blue" stroke-width="2" />
<path d="M1862,4652 L2771,8710" stroke="blue" stroke-width="2" />
<path d="M1793,593 L7714,4257" stroke="blue" stroke-width="2" />
<path d="M5480,9377 L2222,8315" stroke="blue" stroke-width="2" />
<path d="M7584,6467 L4084,8752" stroke="blue" stroke-width="2" />
<path d="M7514,4074 L2382,3885" stroke="blue" stroke-width="2" />
<path d="M4335,6309 L262,9118" stroke="blue" stroke-width="2" />
<path d="M6293,6053 L4887,6039" stroke="blue" stroke-width="2" />
<path d="M1526,9265 L3760,5245" stroke="blue" stroke-width="2" />
<path d="M6180,1045 L2887,3976" stroke="blue" stroke-width="2" />
<path d="M7945,8899 L8050,628" stroke="blue" stroke-width="2" />
<path d="M6213,1161 L1377,4752" stroke="blue" stroke-width="2" />
<path d="M3520,9133 L7270,9533" stroke="blue" stroke-width="2" />
<path d="M4342,607 L6752,8720" stroke="blue" stroke-width="2" />
<path d="M3152,6828 L1295,3841" stroke="blue" stroke-width="2" />
<path d="M4437,3256 L5084,4835" stroke="blue" stroke-width="2" />
<path d="M7184,7866 L7893,8043" stroke="blue" stroke-width="2" />
<path d="M7563,4251 L6114,2725" stroke="blue" stroke-width="2" />
<path d="M2713,4287 L1781,1685" stroke="blue" stroke-width="2" />
<path d="M7311,2246 L2481,1878" stroke="blue" stroke-width="2" />
<path d="M4058,3149 L5823,3746" stroke="blue" stroke-width="2" />
<path d="M3080,8986 L6539,3586" stroke="blue" stroke-width="2" />
<path d="M8102,2942 L3660,3988" stroke="blue" stroke-width="2" />
<path d="M4397,4683 L1583,8609" stroke="blue" stroke-width="2" />
<path d="M2027,8945 L1487,4152" stroke="blue" stroke-width="2" />
<path d="M7774,7070 L3061,1242" stroke="blue" stroke-width="2" />
<path d="M3400,9377 L5784,6995" stroke="blue" stroke-width="2" />
<path d="M6368,7184 L244,3758" stroke="blue" stroke-width="2" />
<path d="M767,1817 L7024,5414" stroke="blue" stroke-width="2" />
<path d="M1788,8924 L3323,1008" stroke="blue" stroke-width="2" />
<path d="M2842,7083 L4663,2858" stroke="blue" stroke-width="2" />
<path d="M4860,7858 L7821,188" stroke="blue" stroke-width="2" />
<path d="M1939,7578 L5806,8694" stroke="blue" stroke-width="2" />
<path d="M5625,1960 L6633,682" stroke="blue" stroke-width="2" />
<path d="M3055,6829 L2940,2605" stroke="blue" stroke-width="2" />
<path d="M582,7274 L5625,5998" stroke="blue" stroke-width="2" />
<path d="M6598,3597 L3499,5072" stroke="blue" stroke-width="2" />
<path d="M2599,5494 L3408,3442" stroke="blue" stroke-width="2" />
<path d="M7765,4030 L2994,8420" stroke="blue" stroke-width="2" />
<path d="M3997,1174 L5001,651" stroke="blue" stroke-width="2" />
<path d="M5861,8121 L1112,6485" stroke="blue" stroke-width="2" />
<path d="M7777,8363 L5199,1126" stroke="blue" stroke-width="2" />
<path d="M7567,4829 L917,4096" stroke="blue" stroke-width="2" />
<path d="M2698,2830 L2123,3674" stroke="blue" stroke-width="2" />
<path d="M4283,4229 L2237,2482" stroke="blue" stroke-width="2" />
<path d="M1700,5106 L7466,6245" stroke="blue" stroke-width="2" />
<path d="M411,2253 L5271,1256" stroke="blue" stroke-width="2" />
<path d="M7756,9391 L4409,9257" stroke="blue" stroke-width="2" />
<path d="M1032,94 L1594,2065" stroke="blue" stroke-width="2" />
<path d="M982,8280 L2593,7885" stroke="blue" stroke-width="2" />
<path d="M1699,7575 L2815,4846" stroke="blue" stroke-width="2" />
<path d="M2394,2139 L5570,9252" stroke="blue" stroke-width="2" />
<path d="M5458,7859 L6302,1669" stroke="blue" stroke-width="2" />
<path d="M239,1210 L23,7842" stroke="blue" stroke-width="2" />
<path d="M2397,9298 L1201,6896" stroke="blue" stroke-width="2" />
<path d="M243,7549 L3646,5506" stroke="blue" stroke-width="2" />
<path d="M7568,7570 L7159,8861" stroke="blue" stroke-width="2" />
<path d="M4479,1015 L2093,1819" stroke="blue" stroke-width="2" />
<path d="M8140,369 L3637,5203" stroke="blue" stroke-width="2" />
<path d="M3556,2707 L7113,8463" stroke="blue" stroke-width="2" />
<path d="M5059,9159 L4499,3849" stroke="blue" stroke-width="2" />
<path d="M7543,1788 L846,8486" stroke="blue" stroke-width="2" />
<path d="M2883,173 L6859,3919" stroke="blue" stroke-width="2" />
<path d="M3651,2590 L6714,6151" stroke="blue" stroke-width="2" />
<path d="M5878,7023 L4223,5707" stroke="blue" stroke-width="2" />
<path d="M6502,3282 L2606,9118" stroke="blue" stroke-width="2" />
<path d="M684,8376 L2539,4660" stroke="blue" stroke-width="2" />
<path d="M5386,3328 L7832,6119" stroke="blue" stroke-width="2" />
<path d="M4098,3828 L1861,1959" stroke="blue" stroke-width="2" />
<path d="M108,436 L5199,7147" stroke="blue" stroke-width="2" />
<path d="M2418,1232 L8155,1794" stroke="blue" stroke-width="2" />
<path d="M7300,4892 L1382,4879" stroke="blue" stroke-width="2" />
<path d="M7633,6844 L7625,6764" stroke="blue" stroke-width="2" />
<path d="M2964,6672 L3555,6315" stroke="blue" stroke-width="2" />
<path d="M7864,1103 L4110,8334" stroke="blue" stroke-width="2" />
<path d="M6811,4370 L3590,100" stroke="blue" stroke-width="2" />
<path d="M5399,5813 L1686,1307" stroke="blue" stroke-width="2" />
<path d="M3801,5419 L357,6087" stroke="blue" stroke-width="2" />
<path d="M281,4865 L3371,5634" stroke="blue" stroke-width="2" />
<path d="M7261,5606 L2768,2040" stroke="blue" stroke-width="2" />
<path d="M2880,2373 L6416,8147" stroke="blue" stroke-width="2" />
<path d="M94,3854 L1248,4055" stroke="blue" stroke-width="2" />
<path d="M2480,525 L7539,82" stroke="blue" stroke-width="2" />
<path d="M2271,2075 L6470,324" stroke="blue" stroke-width="2" />
<path d="M5496,5455 L5799,1423" stroke="blue" stroke-width="2" />
<path d="M384,5859 L6210,5235" stroke="blue" stroke-width="2" />
<path d="M6133,8208 L3193,4009" stroke="blue" stroke-width="2" />
<path d="M5098,8928 L2951,5314" stroke="blue" stroke-width="2" />
<path d="M5231,1369 L6470,8879" stroke="blue" stroke-width="2" />
<path d="M3406,3783 L2182,778" stroke="blue" stroke-width="2" />
<path d="M4744,7694 L6948,3877" stroke="blue" stroke-width="2" />
<path d="M3313,59 L1024,1668" stroke="blue" stroke-width="2" />
<path d="M606,2813 L671,419" stroke="blue" stroke-width="2" />
<path d="M6565,3232 L7485,4469" stroke="blue" stroke-width="2" />
<path d="M3270,8306 L3069,6942" stroke="blue" stroke-width="2" />
<path d="M4513,688 L1993,7339" stroke="blue" stroke-width="2" />
<path d="M8004,3837 L7509,6827" stroke="blue" stroke-width="2" />
<path d="M2914,2643 L1033,2417" stroke="blue" stroke-width="2" />
<path d="M2057,8890 L4433,5511" stroke="blue" stroke-width="2" />
<path d="M7496,8069 L6129,3767" stroke="blue" stroke-width="2" />
<path d="M2344,6219 L4843,9350" stroke="blue" stroke-width="2" />
<path d="M3518,451 L187,4177" stroke="blue" stroke-width="2" />
<path d="M8131,8714 L4947,6169" stroke="blue" stroke-width="2" />
<path d="M3807,1078 L1122,3173" stroke="blue" stroke-width="2" />
<path d="M260,1088 L6360,478" stroke="blue" stroke-width="2" />
<path d="M5575,1504 L4582,8052" stroke="blue" stroke-width="2" />
<path d="M4770,2477 L2731,6542" stroke="blue" stroke-width="2" />
<path d="M4516,5620 L7795,6341" stroke="blue" stroke-width="2" />
<path d="M5485,1945 L895,4646" stroke="blue" stroke-width="2" />
<path d="M541,6995 L6347,3025" stroke="blue" stroke-width="2" />
<path d="M7555,2495 L2169,5342" stroke="blue" stroke-width="2" />
<path d="M4835,6732 L6040,9371" stroke="blue" stroke-width="2" />
<path d="M3857,2263 L385,1477" stroke="blue" stroke-width="2" />
<path d="M7912,3921 L4302,3455" stroke="blue" stroke-width="2" />
<path d="M5815,8152 L4014,2426" stroke="blue" stroke-width="2" />
<path d="M4041,629 L3588,3522" stroke="blue" stroke-width="2" />
<path d="M7586,8318 L2116,7417" stroke="blue" stroke-width="2" />
<path d="M7363,8798 L5198,6261" stroke="blue" stroke-width="2" />
<path d="M5279,6525 L5558,7278" stroke="blue" stroke-width="2" />
<path d="M3474,4619 L3098,2527" stroke="blue" stroke-width="2" />
<path d="M7020,2913 L7184,1135" stroke="blue" stroke-width="2" />
<path d="M1999,9266 L763,109" stroke="blue" stroke-width="2" />
<path d="M830,5096 L3882,406" stroke="blue" stroke-width="2" />
<path d="M6598,3747 L59,5379" stroke="blue" stroke-width="2" />
<path d="M3335,3851 L2323,3276" stroke="blue" stroke-width="2" />
<path d="M313,609 L6799,283" stroke="blue" stroke-width="2" />
<path d="M1430,4844 L7555,4188" stroke="blue" stroke-width="2" />
<path d="M6115,2169 L7924,3748" stroke="blue" stroke-width="2" />
<path d="M8086,448 L3879,838" stroke="blue" stroke-width="2" />
<path d="M977,6476 L7987,3503" stroke="blue" stroke-width="2" />
<path d="M1553,1634 L4740,7099" stroke="blue" stroke-width="2" />
<path d="M4989,1045 L1760,5485" stroke="blue" stroke-width="2" />
<path d="M4971,5016 L3304,7215" stroke="blue" stroke-width="2" />
<path d="M6208,758 L5686,5221" stroke="blue" stroke-width="2" />
<path d="M820,1477 L8085,6106" stroke="blue" stroke-width="2" />
<path d="M2961,1532 L5991,2085" stroke="blue" stroke-width="2" />
<path d="M2406,8325 L5093,7455" stroke="blue" stroke-width="2" />
<path d="M2906,8990 L3332,1640" stroke="blue" stroke-width="2" />
<path d="M7990,2853 L7707,4071" stroke="blue" stroke-width="2" />
<path d="M7872,2053 L6211,2998" stroke="blue" stroke-width="2" />
<path d="M7494,684 L1721,9088" stroke="blue" stroke-width="2" />
<path d="M6892,5288 L3510,4979" stroke="blue" stroke-width="2" />
<path d="M4595,2500 L5232,6374" stroke="blue" stroke-width="2" />
<path d="M761,7976 L6831,1341" stroke="blue" stroke-width="2" />
<path d="M3664,8050 L4823,6615" stroke="blue" stroke-width="2" />
<path d="M3349,1967 L4000,8890" stroke="blue" stroke-width="2" />
<path d="M2418,6630 L3763,4115" stroke="blue" stroke-width="2" />
<path d="M7712,2598 L3217,6856" stroke="blue" stroke-width="2" />
<path d="M2698,2996 L4857,7913" stroke="blue" stroke-width="2" />
<path d="M3789,1039 L3280,6145" stroke="blue" stroke-width="2" />
<path d="M5136,500 L1932,9311" stroke="blue" stroke-width="2" />
<path d="M4259,8714 L4681,1246" stroke="blue" stroke-width="2" />
<path d="M7001,6338 L3184,1593" stroke="blue" stroke-width="2" />
<path d="M364,7323 L2196,3693" stroke="blue" stroke-width="2" />
<path d="M4712,6085 L6388,685" stroke="blue" stroke-width="2" />
<path d="M7390,6346 L6399,3634" stroke="blue" stroke-width="2" />
<path d="M8175,8007 L5784,6860" stroke="blue" stroke-width="2" />
<path d="M2593,6877 L499,5923" stroke="blue" stroke-width="2" />
<path d="M1415,1950 L1623,5140" stroke="blue" stroke-width="2" />
<path d="M2713,4912 L4742,2935" stroke="blue" stroke-width="2" />
<path d="M3605,3056 L6589,3218" stroke="blue" stroke-width="2" />
<path d="M1296,2942 L7035,6084" stroke="blue" stroke-width="2" />
<path d="M1914,1510 L733,7905" stroke="blue" stroke-width="2" />
<path d="M3028,3096 L7915,3573" stroke="blue" stroke-width="2" />
<path d="M2372,8783 L6378,9101" stroke="blue" stroke-width="2" />
<path d="M7700,8791 L3563,7361" stroke="blue" stroke-width="2" />
<path d="M4889,9107 L1387,2883" stroke="blue" stroke-width="2" />
<path d="M2816,862 L6593,8621" stroke="blue" stroke-width="2" />
<path d="M8153,2583 L642,4676" stroke="blue" stroke-width="2" />
<path d="M2867,7956 L7190,5191" stroke="blue" stroke-width="2" />
<path d="M7618,1795 L1084,8736" stroke="blue" stroke-width="2" />
<path d="M5820,6754 L1857,2286" stroke="blue" stroke-width="2" />
<path d="M5067,6944 L3678,8262" stroke="blue" stroke-width="2" />
<path d="M5188,4838 L5001,2591" stroke="blue" stroke-width="2" />
<path d="M2473,3025 L2954,275" stroke="blue" stroke-width="2" />
<path d="M3987,4489 L1765,8676" stroke="blue" stroke-width="2" />
<path d="M6913,4895 L3203,5037" stroke="blue" stroke-width="2" />
<path d="M353,4214 L4319,3078" stroke="blue" stroke-width="2" />
<path d="M2423,4648 L4571,680" stroke="blue" stroke-width="2" />
<path d="M1327,3808 L3636,9222" stroke="blue" stroke-width="2" />
<path d="M3955,2736 L4753,216" stroke="blue" stroke-width="2" />
<path d="M4885,8983 L1435,3341" stroke="blue" stroke-width="2" />
<path d="M4038,4568 L4573,1207" stroke="blue" stroke-width="2" />
<path d="M7104,3459 L512,1189" stroke="blue" stroke-width="2" />
<path d="M2004,995 L5016,5202" stroke="blue" stroke-width="2" />
<path d="M4254,4315 L5645,9021" stroke="blue" stroke-width="2" />
<path d="M63,1787 L3756,8797" stroke="blue" stroke-width="2" />
<path d="M2673,3066 L2771,4207" stroke="blue" stroke-width="2" />
<path d="M3021,3234 L4848,6751" stroke="blue" stroke-width="2" />
<path d="M6678,2211 L4536,2375" stroke="blue" stroke-width="2" />
<path d="M7254,1588 L1889,995" stroke="blue" stroke-width="2" />
<path d="M1165,6197 L7429,9448" stroke="blue" stroke-width="2" />
<path d="M428,3152 L3414,5923" stroke="blue" stroke-width="2" />
<path d="M4909,2939 L5790,8959" stroke="blue" stroke-width="2" />
<path d="M3123,7393 L3862,7108" stroke="blue" stroke-width="2" />
<path d="M605,632 L7727,5221" stroke="blue" stroke-width="2" />
<path d="M505,7191 L6026,176" stroke="blue" stroke-width="2" />
<path d="M4749,2961 L6397,5256" stroke="blue" stroke-width="2" />
<path d="M4041,3337 L7200,729" stroke="blue" stroke-width="2" />
<path d="M3298,4173 L8101,5344" stroke="blue" stroke-width="2" />
<path d="M3193,7344 L5710,6306" stroke="blue" stroke-width="2" />
<path d="M935,5727 L2323,6943" stroke="blue" stroke-width="2" />
<path d="M6117,9217 L1094,9360" stroke="blue" stroke-width="2" />
<path d="M4222,5199 L5747,2549" stroke="blue" stroke-width="2" />
<path d="M3392,8925 L6382,2900" stroke="blue" stroke-width="2" />
<path d="M5686,1983 L1617,4091" stroke="blue" stroke-width="2" />
<path d="M3513,4272 L7489,2460" stroke="blue" stroke-width="2" />
<path d="M6327,1102 L5672,7130" stroke="blue" stroke-width="2" />
<path d="M7519,1192 L5586,5841" stroke="blue" stroke-width="2" />
<path d="M1492,4662 L6302,8043" stroke="blue" stroke-width="2" />
<path d="M825,8533 L6777,4202" stroke="blue" stroke-width="2" />
<path d="M1368,7835 L2294,787" stroke="blue" stroke-width="2" />
<path d="M8131,7145 L3068,656" stroke="blue" stroke-width="2" />
<path d="M2086,8652 L6093,9" stroke="blue" stroke-width="2" />
<path d="M1193,6705 L3578,5532" stroke="blue" stroke-width="2" />
<path d="M1782,538 L7258,486" stroke="blue" stroke-width="2" />
<path d="M6649,2966 L155,6410" stroke="blue" stroke-width="2" />
<path d="M6528,3607 L5514,3163" stroke="blue" stroke-width="2" />
<path d="M3198,2187 L4683,8252" stroke="blue" stroke-width="2" />
<path d="M3614,5514 L2184,2178" stroke="blue" stroke-width="2" />
<path d="M3871,1442 L2308,5031" stroke="blue" stroke-width="2" />
<path d="M2794,6146 L5073,4334" stroke="blue" stroke-width="2" />
<path d="M5242,5082 L5489,3172" stroke="blue" stroke-width="2" />
<path d="M308,482 L5189,3618" stroke="blue" stroke-width="2" />
<path d="M6333,705 L5990,411" stroke="blue" stroke-width="2" />
<path d="M178,3907 L4743,27" stroke="blue" stroke-width="2" />
<path d="M3391,3231 L1607,336" stroke="blue" stroke-width="2" />
<path d="M406,3200 L2651,6694" stroke="blue" stroke-width="2" />
<path d="M4010,493 L5926,3657" stroke="blue" stroke-width="2" />
<path d="M7631,4119 L8093,2726" stroke="blue" stroke-width="2" />
<path d="M2987,984 L5491,9191" stroke="blue" stroke-width="2" />
<path d="M2796,8205 L1740,5305" stroke="blue" stroke-width="2" />
<path d="M297,5974 L6961,6958" stroke="blue" stroke-width="2" />
<path d="M2515,6588 L5439,6098" stroke="blue" stroke-width="2" />
<path d="M384,699 L3986,3692" stroke="blue" stroke-width="2" />
<path d="M2810,1277 L5008,5258" stroke="blue" stroke-width="2" />
<path d="M4597,6162 L4582,6731" stroke="blue" stroke-width="2" />
<path d="M153,90 L5427,4080" stroke="blue" stroke-width="2" />
<path d="M6466,3769 L1964,8110" stroke="blue" stroke-width="2" />
<path d="M7357,7366 L6716,7544" stroke="blue" stroke-width="2" />
<path d="M5967,3842 L6229,8578" stroke="blue" stroke-width="2" />
<path d="M7449,7561 L1674,2529" stroke="blue" stroke-width="2" />
<path d="M3034,6413 L3709,9407" stroke="blue" stroke-width="2" />
<path d="M821,6542 L5802,6193" stroke="blue" stroke-width="2" />
<path d="M5358,1277 L6512,9275" stroke="blue" stroke-width="2" />
<path d="M6671,7202 L5567,8724" stroke="blue" stroke-width="2" />
<path d="M7574,3992 L7434,3497" stroke="blue" stroke-width="2" />
<path d="M4701,4245 L1852,5650" stroke="blue" stroke-width="2" />
<path d="M2703,7218 L2201,3681" stroke="blue" stroke-width="2" />
<path d="M5952,341 L5079,66" stroke="blue" stroke-width="2" />
<path d="M5966,5817 L4764,9516" stroke="blue" stroke-width="2" />
<path d="M3046,2215 L2923,6770" stroke="blue" stroke-width="2" />
<path d="M1135,9538 L4572,5048" stroke="blue" stroke-width="2" />
<path d="M7970,3244 L3955,5563" stroke="blue" stroke-width="2" />
<path d="M1215,734 L5376,1899" stroke="blue" stroke-width="2" />
<path d="M4540,2681 L8036,3577" stroke="blue" stroke-width="2" />
<path d="M5568,1547 L7378,2347" stroke="blue" stroke-width="2" />
<path d="M691,6173 L3033,1850" stroke="blue" stroke-width="2" />
<path d="M5715,8986 L6965,3816" stroke="blue" stroke-width="2" />
<path d="M3470,134 L6244,3858" stroke="blue" stroke-width="2" />
<path d="M7830,9442 L5067,7469" stroke="blue" stroke-width="2" />
<path d="M7460,8974 L186,9319" stroke="blue" stroke-width="2" />
<path d="M1427,4819 L1660,6360" stroke="blue" stroke-width="2" />
<path d="M3947,7917 L370,3029" stroke="blue" stroke-width="2" />
<path d="M1247,2344 L4029,8291" stroke="blue" stroke-width="2" />
<path d="M5696,1266 L2544,2816" stroke="blue" stroke-width="2" />
<path d="M2434,8606 L982,6168" stroke="blue" stroke-width="2" />
<path d="M1348,3148 L6460,9464" stroke="blue" stroke-width="2" />
<path d="M4915,4424 L3375,3472" stroke="blue" stroke-width="2" />
<path d="M584,8928 L2862,3445" stroke="blue" stroke-width="2" />
<path d="M5150,2979 L4501,6488" stroke="blue" stroke-width="2" />
<path d="M1707,2863 L1469,2568" stroke="blue" stroke-width="2" />
<path d="M3249,3467 L4216,438" stroke="blue" stroke-width="2" />
<path d="M6916,6209 L5398,1085" stroke="blue" stroke-width="2" />
<path d="M6289,3764 L3322,5877" stroke="blue" stroke-width="2" />
<path d="M5381,600 L7027,1407" stroke="blue" stroke-width="2" />
<path d="M354,7330 L7682,6278" stroke="blue" stroke-width="2" />
<path d="M1707,6634 L5272,2463" stroke="blue" stroke-width="2" />
<path d="M6072,8661 L6108,5834" stroke="blue" stroke-width="2" />
<path d="M7399,6858 L7163,4531" stroke="blue" stroke-width="2" />
<path d="M2955,5448 L1924,4155" stroke="blue" stroke-width="2" />
<path d="M2072,7271 L4752,9363" stroke="blue" stroke-width="2" />
<path d="M4189,1298 L29,8352" stroke="blue" stroke-width="2" />
<path d="M1349,2598 L4052,3927" stroke="blue" stroke-width="2" />
<path d="M4777,7018 L7723,3773" stroke="blue" stroke-width="2" />
<path d="M3970,6459 L5413,2191" stroke="blue" stroke-width="2" />
<path d="M5992,2200 L6549,1333" stroke="blue" stroke-width="2" />
<path d="M7147,1299 L2384,3126" stroke="blue" stroke-width="2" />
<path d="M3832,5977 L4023,5321" stroke="blue" stroke-width="2" />
<path d="M3966,5622 L3333,4848" stroke="blue" stroke-width="2" />
<path d="M6909,2608 L5996,4770" stroke="blue" stroke-width="2" />
<path d="M5617,3643 L2974,9477" stroke="blue" stroke-width="2" />
<path d="M1688,9433 L5395,8284" stroke="blue" stroke-width="2" />
<path d="M4982,2959 L390,3079" stroke="blue" stroke-width="2" />
<path d="M143,5125 L2900,2090" stroke="blue" stroke-width="2" />
<path d="M5567,258 L4613,3033" stroke="blue" stroke-width="2" />
<path d="M480,7852 L4073,5340" stroke="blue" stroke-width="2" />
<path d="M5501,6832 L5819,1462" stroke="blue" stroke-width="2" />
<path d="M2556,1308 L1384,6921" stroke="blue" stroke-width="2" />
<path d="M8088,3960 L4610,5503" stroke="blue" stroke-width="2" />
<path d="M7576,2482 L6590,4744" stroke="blue" stroke-width="2" />
<path d="M6480,4846 L1917,8135" stroke="blue" stroke-width="2" />
<path d="M1029,7911 L3804,2445" stroke="blue" stroke-width="2" />
<path d="M811,6848 L7345,5164" stroke="blue" stroke-width="2" />
<path d="M1246,5685 L5448,9287" stroke="blue" stroke-width="2" />
<path d="M657,6482 L4519,8732" stroke="blue" stroke-width="2" />
<path d="M4656,5101 L503,2532" stroke="blue" stroke-width="2" />
<path d="M3724,9022 L3816,5866" stroke="blue" stroke-width="2" />
<path d="M4115,7047 L4924,1525" stroke="blue" stroke-width="2" />
<path d="M6752,4752 L4287,7001" stroke="blue" stroke-width="2" />
<path d="M245,4368 L792,4096" stroke="blue" stroke-width="2" />
<path d="M7440,2279 L7467,5846" stroke="blue" stroke-width="2" />
<path d="M7241,3688 L5890,612" stroke="blue" stroke-width="2" />
<path d="M7257,2349 L3411,4054" stroke="blue" stroke-width="2" />
<path d="M92,2595 L5307,5976" stroke="blue" stroke-width="2" />
<path d="M874,7459 L2026,5721" stroke="blue" stroke-width="2" />
<path d="M5449,9304 L1971,7375" stroke="blue" stroke-width="2" />
<path d="M5317,7877 L886,5486" stroke="blue" stroke-width="2" />
<path d="M3868,868 L4666,2491" stroke="blue" stroke-width="2" />
<path d="M3633,9014 L5850,3120" stroke="blue" stroke-width="2" />
<path d="M3150,8255 L5948,8395" stroke="blue" stroke-width="2" />
<path d="M1978,5107 L233,8007" stroke="blue" stroke-width="2" />
<path d="M2755,4024 L6713,7980" stroke="blue" stroke-width="2" />
<path d="M2455,8681 L6454,3704" stroke="blue" stroke-width="2" />
<path d="M250,9031 L6046,5860" stroke="blue" stroke-width="2" />
<path d="M3589,5369 L6048,935" stroke="blue" stroke-width="2" />
<path d="M792,8814 L5503,3816" stroke="blue" stroke-width="2" />
<path d="M6213,2579 L5463,8145" stroke="blue" stroke-width="2" />
<path d="M2865,3248 L5470,3650" stroke="blue" stroke-width="2" />
<path d="M3650,913 L4111,6000" stroke="blue" stroke-width="2" />
<path d="M174,5958 L4860,504" stroke="blue" stroke-width="2" />
<path d="M7268,1968 L5652,7273" stroke="blue" stroke-width="2" />
<path d="M4390,7776 L7710,8341" stroke="blue" stroke-width="2" />
<path d="M5208,1839 L671,6296" stroke="blue" stroke-width="2" />
<path d="M2214,1683 L5406,3462" stroke="blue" stroke-width="2" />
<path d="M6239,6860 L7335,4032" stroke="blue" stroke-width="2" />
<path d="M7579,3014 L4903,8081" stroke="blue" stroke-width="2" />
<path d="M4778,3401 L5830,2609" stroke="blue" stroke-width="2" />
<path d="M3364,3808 L1912,283" stroke="blue" stroke-width="2" />
<path d="M3037,6460 L2468,8916" stroke="blue" stroke-width="2" />
<path d="M7931,2762 L3270,1714" stroke="blue" stroke-width="2" />
<path d="M5781,4191 L968,8410" stroke="blue" stroke-width="2" />
<path d="M4919,9489 L3718,873" stroke="blue" stroke-width="2" />
<path d="M2807,4372 L6896,4793" stroke="blue" stroke-width="2" />
<path d="M4836,6327 L71,7575" stroke="blue" stroke-width="2" />
<path d="M5535,4835 L4519,6112" stroke="blue" stroke-width="2" />
<path d="M2863,3554 L5586,4454" stroke="blue" stroke-width="2" />
<path d="M5803,2208 L8172,7513" stroke="blue" stroke-width="2" />
<path d="M8088,5276 L6878,2121" stroke="blue" stroke-width="2" />
<path d="M1363,5894 L4177,357" stroke="blue" stroke-width="2" />
<path d="M8065,8461 L5435,5238" stroke="blue" stroke-width="2" />
<path d="M5244,7767 L1059,3680" stroke="blue" stroke-width="2" />
<path d="M5254,1838 L3442,7581" stroke="blue" stroke-width="2" />
<path d="M768,5947 L7560,7378" stroke="blue" stroke-width="2" />
<path d="M272,163 L2740,8251" stroke="blue" stroke-width="2" />
<path d="M940,4263 L4051,3477" stroke="blue" stroke-width="2" />
<path d="M5834,490 L8125,7030" stroke="blue" stroke-width="2" />
<path d="M4394,4386 L5619,668" stroke="blue" stroke-width="2" />
<path d="M3774,7087 L4019,185" stroke="blue" stroke-width="2" />
<path d="M6346,6177 L4434,8561" stroke="blue" stroke-width="2" />
<path d="M4418,6274 L1155,3005" stroke="blue" stroke-width="2" />
<path d="M5795,9055 L2863,2388" stroke="blue" stroke-width="2" />
<path d="M2956,3322 L3114,726" stroke="blue" stroke-width="2" />
<path d="M3931,4457 L4866,8195" stroke="blue" stroke-width="2" />
<path d="M4940,6295 L2531,3827" stroke="blue" stroke-width="2" />
<path d="M6528,1602 L2435,2224" stroke="blue" stroke-width="2" />
<path d="M532,371 L6977,5656" stroke="blue" stroke-width="2" />
<path d="M4808,5617 L6107,5247" stroke="blue" stroke-width="2" />
<path d="M7080,35 L2962,7254" stroke="blue" stroke-width="2" />
<path d="M0,0 L8177,0" stroke="red" stroke-width="10" />
<path d="M8177,0 L8177,9541" stroke="red" stroke-width="10" />
<path d="M0,9541 L8177,9541" stroke="red" stroke-width="10" />
<path d="M0,9541 L0,0" stroke="red" stroke-width="10" />
</svg>