<?xml version="1.0" encoding="UTF-8"?>
<svg xmlns="http://www.w3.org/2000/svg" xmlns:xlink="http://www.w3.org/1999/xlink"
     width="10000" height="10000" viewBox="0 0 10000 10000">
<defs>
</defs>
<path d="M9070,3744 L1586,3778" stroke="blue" stroke-width="2" />
<path d="M1426,3002 L3022,4096" stroke="blue" stroke-width="2" />
<path d="M7299,6722 L6627,2682" stroke="blue" stroke-width="2" />
<path d="M4830,464 L3002,653" stroke="blue" stroke-width="2" />
<path d="M3223,6804 L484,4754" stroke="blue" stroke-width="2" />
<path d="M2064,5561 L4097,2841" stroke="blue" stroke-width="2" />
<path d="M7369,408 L216,3335" stroke="blue" stroke-width="2" />
<path d="M4195,3240 L8601,6666" stroke="blue" stroke-width="2" />
<path d="M4390,3764 L248,26" stroke="blue" stroke-width="2" />
<path d="M5344,6343 L5846,4842" stroke="blue" stroke-width="2" />
<path d="M6632,4421 L3654,1494" stroke="blue" stroke-width="2" />
<path d="M4812,2544 L6338,5405" stroke="blue" stroke-width="2" />
<path d="M8549,4807 L6389,4677" stroke="blue" stroke-width="2" />
<path d="M2467,4188 L6348,6128" stroke="blue" stroke-width="2" />
<path d="M20,352 L6688,4392" stroke="blue" stroke-width="2" />
<path d="M6922,4637 L3481,1041" stroke="blue" stroke-width="2" />
<path d="M7570,4125 L8686,3976" stroke="blue" stroke-width="2" />
<path d="M5144,1647 L6839,2144" stroke="blue" stroke-width="2" />
<path d="M7553,5058 L6706,5075" stroke="blue" stroke-width="2" />
<path d="M1357,2409 L2431,5030" stroke="blue" stroke-width="2" />
<path d="M4258,5698 L5061,4691" stroke="blue" stroke-width="2" />
<path d="M5552,3747 L4166,6441" stroke="blue" stroke-width="2" />
<path d="M352,6849 L5873,5742" stroke="blue" stroke-width="2" />
<path d="M227,3228 L2660,1337" stroke="blue" stroke-width="2" />
<path d="M7616,2668 L2471,103" stroke="blue" stroke-width="2" />
<path d="M807,4000 L739,1556" stroke="blue" stroke-width="2" />
<path d="M1498,3698 L6725,5279" stroke="blue" stroke-width="2" />
<path d="M7112,5920 L7206,4930" stroke="blue" stroke-width="2" />
<path d="M876,6063 L3130,6596" stroke="blue" stroke-width="2" />
<path d="M5145,5011 L2869,3646" stroke="blue" stroke-width="2" />
<path d="M1659,1604 L5748,6933" stroke="blue" stroke-width="2" />
<path d="M5681,6874 L959,80" stroke="blue" stroke-width="2" />
<path d="M2280,4038 L5252,2857" stroke="blue" stroke-width="2" />
<path d="M6618,6834 L3340,1247" stroke="blue" stroke-width="2" />
<path d="M9103,2105 L6390,3504" stroke="blue" stroke-width="2" />
<path d="M5927,6473 L5678,822" stroke="blue" stroke-width="2" />
<path d="M913,6835 L3197,2531" stroke="blue" stroke-width="2" />
<path d="M3948,4489 L6703,1437" stroke="blue" stroke-width="2" />
<path d="M4090,4183 L8682,1570" stroke="blue" stroke-width="2" />
<path d="M6237,2281 L1571,4673" stroke="blue" stroke-width="2" />
<path d="M7730,5843 L7166,6889" stroke="blue" stroke-width="2" />
<path d="M6743,2875 L8442,4443" stroke="blue" stroke-width="2" />
<path d="M2151,4510 L3762,6641" stroke="blue" stroke-width="2" />
<path d="M5275,1712 L9171,2532" stroke="blue" stroke-width="2" />
<path d="M3338,1365 L4498,4959" stroke="blue" stroke-width="2" />
<path d="M3759,1038 L6551,5683" stroke="blue" stroke-width="2" />
<path d="M5903,4126 L2287,2805" stroke="blue" stroke-width="2" />
<path d="M1690,4082 L5832,4251" stroke="blue" stroke-width="2" />
<path d="M8070,2968 L2476,727" stroke="blue" stroke-width="2" />
<path d="M6101,6187 L7866,178" stroke="blue" stroke-width="2" />
<path d="M3199,4844 L860,854" stroke="blue" stroke-width="2" />
<path d="M6350,1482 L5015,5516" stroke="blue" stroke-width="2" />
<path d="M3667,2658 L7520,2275" stroke="blue" stroke-width="2" />
<path d="M8086,3634 L3504,5733" stroke="blue" stroke-width="2" />
<path d="M3342,1387 L8055,380" stroke="blue" stroke-width="2" />
<path d="M8599,6108 L2380,2825" stroke="blue" stroke-width="2" />
<path d="M4201,455 L4788,6849" stroke="blue" stroke-width="2" />
<path d="M5096,1793 L4485,4356" stroke="blue" stroke-width="2" />
<path d="M2397,4988 L4821,6810" stroke="blue" stroke-width="2" />
<path d="M956,319 L3953,871" stroke="blue" stroke-width="2" />
<path d="M5747,4297 L7860,3524" stroke="blue" stroke-width="2" />
<path d="M3430,696 L5814,4608" stroke="blue" stroke-width="2" />
<path d="M117,6190 L2047,1775" stroke="blue" stroke-width="2" />
<path d="M4663,1559 L6086,3660" stroke="blue" stroke-width="2" />
<path d="M3380,6416 L5123,5425" stroke="blue" stroke-width="2" />
<path d="M2687,1579 L1980,3828" stroke="blue" stroke-width="2" />
<path d="M1257,4176 L1182,2785" stroke="blue" stroke-width="2" />
<path d="M1954,3815 L3980,3726" stroke="blue" stroke-width="2" />
<path d="M7967,4818 L5958,2917" stroke="blue" stroke-width="2" />
<path d="M2573,3681 L8149,1402" stroke="blue" stroke-width="2" />
<path d="M7447,5032 L6731,1320" stroke="blue" stroke-width="2" />
<path d="M2402,4206 L2854,644" stroke="blue" stroke-width="2" />
<path d="M6001,4861 L8724,6160" stroke="blue" stroke-width="2" />
<path d="M9210,2155 L415,4777" stroke="blue" stroke-width="2" />
<path d="M8660,6443 L5405,843" stroke="blue" stroke-width="2" />
<path d="M7753,6583 L8290,191" stroke="blue" stroke-width="2" />
<path d="M9126,4236 L1871,3028" stroke="blue" stroke-width="2" />
<path d="M8352,209 L6475,2008" stroke="blue" stroke-width="2" />
<path d="M8233,3877 L2727,5589" stroke="blue" stroke-width="2" />
<path d="M2428,647 L3744,1379" stroke="blue" stroke-width="2" />
<path d="M6667,5987 L9211,4250" stroke="blue" stroke-width="2" />
<path d="M7352,4428 L1731,5181" stroke="blue" stroke-width="2" />
<path d="M4045,1905 L7978,2752" stroke="blue" stroke-width="2" />
<path d="M3606,1076 L6842,3058" stroke="blue" stroke-width="2" />
<path d="M5573,850 L3102,6589" stroke="blue" stroke-width="2" />
<path d="M854,6170 L5731,2567" stroke="blue" stroke-width="2" />
<path d="M6596,6505 L9238,855" stroke="blue" stroke-width="2" />
<path d="M2208,2932 L5126,3620" stroke="blue" stroke-width="2" />
<path d="M878,4453 L3955,4264" stroke="blue" stroke-width="2" />
<path d="M275,2439 L2055,2951" stroke="blue" stroke-width="2" />
<path d="M7381,4810 L5419,3383" stroke="blue" stroke-width="2" />
<path d="M7791,6159 L110,5720" stroke="blue" stroke-width="2" />
<path d="M9186,1488 L6604,5781" stroke="blue" stroke-width="2" />
<path d="M3710,154 L7417,801" stroke="blue" stroke-width="2" />
<path d="M4318,6063 L7165,363" stroke="blue" stroke-width="2" />
<path d="M3476,1641 L6841,5102" stroke="blue" stroke-width="2" />
<path d="M1087,4771 L4244,4951" stroke="blue" stroke-width="2" />
<path d="M75,5028 L3258,4267" stroke="blue" stroke-width="2" />
<path d="M3780,4188 L1951,6398" stroke="blue" stroke-width="2" />
<path d="M4910,928 L561,2046" stroke="blue" stroke-width="2" />
<path d="M8778,4330 L2642,5884" stroke="blue" stroke-width="2" />
<path d="M1104,1190 L7084,3782" stroke="blue" stroke-width="2" />
<path d="M5376,612 L6727,987" stroke="blue" stroke-width="2" />
<path d="M1391,296 L8050,283" stroke="blue" stroke-width="2" />
<path d="M4149,6296 L1558,2198" stroke="blue" stroke-width="2" />
<path d="M3813,6213 L9005,5827" stroke="blue" stroke-width="2" />
<path d="M1291,6392 L8601,1946" stroke="blue" stroke-width="2" />
<path d="M5870,3869 L4979,1822" stroke="blue" stroke-width="2" />
<path d="M5599,427 L107,6760" stroke="blue" stroke-width="2" />
<path d="M281,1781 L4812,4531" stroke="blue" stroke-width="2" />
<path d="M4643,564 L8941,968" stroke="blue" stroke-width="2" />
<path d="M7054,1418 L7680,2389" stroke="blue" stroke-width="2" />
<path d="M8418,4248 L6528,6082" stroke="blue" stroke-width="2" />
<path d="M7859,6543 L5260,2494" stroke="blue" stroke-width="2" />
<path d="M741,5598 L4888,4061" stroke="blue" stroke-width="2" />
<path d="M833,5572 L1509,5907" stroke="blue" stroke-width="2" />
<path d="M5210,3692 L799,3911" stroke="blue" stroke-width="2" />
<path d="M8426,1721 L8788,1709" stroke="blue" stroke-width="2" />
<path d="M8697,2201 L9087,3186" stroke="blue" stroke-width="2" />
<path d="M3790,6076 L8238,1843" stroke="blue" stroke-width="2" />
<path d="M1528,3024 L2019,1274" stroke="blue" stroke-width="2" />
<path d="M6082,6559 L8965,4052" stroke="blue" stroke-width="2" />
<path d="M3862,4430 L5156,6565" stroke="blue" stroke-width="2" />
<path d="M6987,2502 L7676,5566" stroke="blue" stroke-width="2" />
<path d="M7049,119 L7984,2330" stroke="blue" stroke-width="2" />
<path d="M6354,5518 L1088,459" stroke="blue" stroke-width="2" />
<path d="M7831,5102 L5819,94" stroke="blue" stroke-width="2" />
<path d="M3830,4948 L5016,5652" stroke="blue" stroke-width="2" />
<path d="M1539,3716 L870,2006" stroke="blue" stroke-width="2" />
<path d="M2673,5324 L5377,3614" stroke="blue" stroke-width="2" />
<path d="M2401,701 L2552,6907" stroke="blue" stroke-width="2" />
<path d="M7796,2370 L2503,1924" stroke="blue" stroke-width="2" />
<path d="M6136,6941 L7912,342" stroke="blue" stroke-width="2" />
<path d="M8632,3434 L2662,1159" stroke="blue" stroke-width="2" />
<path d="M6851,3114 L4492,5794" stroke="blue" stroke-width="2" />
<path d="M558,2008 L4661,5593" stroke="blue" stroke-width="2" />
<path d="M7764,1455 L4476,4540" stroke="blue" stroke-width="2" />
<path d="M8409,5329 L8873,2168" stroke="blue" stroke-width="2" />
<path d="M7847,2574 L7187,2106" stroke="blue" stroke-width="2" />
<path d="M4442,6020 L6552,5374" stroke="blue" stroke-width="2" />
<path d="M2183,6688 L3402,6399" stroke="blue" stroke-width="2" />
<path d="M2609,3660 L5493,3851" stroke="blue" stroke-width="2" />
<path d="M4983,4891 L2923,5306" stroke="blue" stroke-width="2" />
<path d="M9112,4497 L7864,6092" stroke="blue" stroke-width="2" />
<path d="M4881,3263 L8027,1887" stroke="blue" stroke-width="2" />
<path d="M8545,6887 L6094,253" stroke="blue" stroke-width="2" />
<path d="M2869,1124 L7823,1981" stroke="blue" stroke-width="2" />
<path d="M3719,1521 L5287,1685" stroke="blue" stroke-width="2" />
<path d="M1414,274 L8189,5739" stroke="blue" stroke-width="2" />
<path d="M6671,5492 L2894,5508" stroke="blue" stroke-width="2" />
<path d="M7432,5411 L6862,4166" stroke="blue" stroke-width="2" />
<path d="M8348,459 L5193,1492" stroke="blue" stroke-width="2" />
<path d="M6816,4423 L499,1477" stroke="blue" stroke-width="2" />
<path d="M4697,2458 L9018,5068" stroke="blue" stroke-width="2" />
<path d="M3976,5802 L1931,773" stroke="blue" stroke-width="2" />
<path d="M4325,4907 L5102,545" stroke="blue" stroke-width="2" />
<path d="M2131,3024 L2118,5479" stroke="blue" stroke-width="2" />
<path d="M7438,203 L8361,6494" stroke="blue" stroke-width="2" />
<path d="M9226,4026 L3840,1118" stroke="blue" stroke-width="2" />
<path d="M6185,2729 L5436,6634" stroke="blue" stroke-width="2" />
<path d="M600,2124 L448,1553" stroke="blue" stroke-width="2" />
<path d="M6417,5294 L3274,4578" stroke="blue" stroke-width="2" />
<path d="M5177,2366 L244,5181" stroke="blue" stroke-width="2" />
<path d="M3714,3276 L7063,176" stroke="blue" stroke-width="2" />
<path d="M5408,6491 L552,386" stroke="blue" stroke-width="2" />
<path d="M2826,4289 L4805,4000" stroke="blue" stroke-width="2" />
<path d="M7101,2950 L7100,239" stroke="blue" stroke-width="2" />
<path d="M4093,1798 L3159,2660" stroke="blue" stroke-width="2" />
<path d="M3833,650 L9098,256" stroke="blue" stroke-width="2" />
<path d="M7212,3553 L761,2756" stroke="blue" stroke-width="2" />
<path d="M723,250 L7118,4722" stroke="blue" stroke-width="2" />
<path d="M3220,4675 L8707,5424" stroke="blue" stroke-width="2" />
<path d="M4383,5558 L7437,587" stroke="blue" stroke-width="2" />
<path d="M2009,2372 L5346,1106" stroke="blue" stroke-width="2" />
<path d="M4751,6249 L4870,4535" stroke="blue" stroke-width="2" />
<path d="M5153,5106 L6302,5381" stroke="blue" stroke-width="2" />
<path d="M5397,1926 L1767,3198" stroke="blue" stroke-width="2" />
<path d="M3160,5902 L153,5235" stroke="blue" stroke-width="2" />
<path d="M3348,3869 L2530,1113" stroke="blue" stroke-width="2" />
<path d="M90,4935 L5663,603" stroke="blue" stroke-width="2" />
<path d="M3397,886 L1167,2766" stroke="blue" stroke-width="2" />
<path d="M742,2733 L7580,3897" stroke="blue" stroke-width="2" />
<path d="M305,1872 L1341,2448" stroke="blue" stroke-width="2" />
<path d="M8599,4369 L8607,6668" stroke="blue" stroke-width="2" />
<path d="M1805,4919 L7419,3328" stroke="blue" stroke-width="2" />
<path d="M167,4319 L9190,3168" stroke="blue" stroke-width="2" />
<path d="M6927,1518 L1745,3102" stroke="blue" stroke-width="2" />
<path d="M974,6436 L2381,4452" stroke="blue" stroke-width="2" />
<path d="M5070,2971 L2645,3895" stroke="blue" stroke-width="2" />
<path d="M4292,5482 L1771,5394" stroke="blue" stroke-width="2" />
<path d="M7440,462 L94,6413" stroke="blue" stroke-width="2" />
<path d="M3533,3984 L4020,816" stroke="blue" stroke-width="2" />
<path d="M541,5045 L4616,1232" stroke="blue" stroke-width="2" />
<path d="M795,4937 L6831,1010" stroke="blue" stroke-width="2" />
<path d="M9263,6931 L9285,3732" stroke="blue" stroke-width="2" />
<path d="M27,1696 L8857,4091" stroke="blue" stroke-width="2" />
<path d="M4288,6062 L3932,1683" stroke="blue" stroke-width="2" />
<path d="M6061,5543 L6617,3706" stroke="blue" stroke-width="2" />
<path d="M5824,435 L9176,2635" stroke="blue" stroke-width="2" />
<path d="M4790,5055 L6013,545" stroke="blue" stroke-width="2" />
<path d="M8917,1225 L4613,4998" stroke="blue" stroke-width="2" />
<path d="M489,4078 L2311,2280" stroke="blue" stroke-width="2" />
<path d="M4886,5914 L838,4996" stroke="blue" stroke-width="2" />
<path d="M3329,5337 L5770,4759" stroke="blue" stroke-width="2" />
<path d="M6967,5413 L2599,3875" stroke="blue" stroke-width="2" />
<path d="M1057,6299 L3937,1908" stroke="blue" stroke-width="2" />
<path d="M8551,2477 L315,1179" stroke="blue" stroke-width="2" />
<path d="M4129,768 L5591,3009" stroke="blue" stroke-width="2" />
<path d="M2556,931 L6072,4249" stroke="blue" stroke-width="2" />
<path d="M981,80 L8375,4848" stroke="blue" stroke-width="2" />
<path d="M8602,6758 L1546,5850" stroke="blue" stroke-width="2" />
<path d="M1824,2242 L5911,146" stroke="blue" stroke-width="2" />
<path d="M3042,4960 L7863,2584" stroke="blue" stroke-width="2" />
<path d="M1459,6122 L381,1798" stroke="blue" stroke-width="2" />
<path d="M3128,5156 L7907,4948" stroke="blue" stroke-width="2" />
<path d="M5789,1389 L5466,265" stroke="blue" stroke-width="2" />
<path d="M2140,6917 L6464,697" stroke="blue" stroke-width="2" />
<path d="M2334,6203 L74,6208" stroke="blue" stroke-width="2" />
<path d="M732,1542 L5904,5743" stroke="blue" stroke-width="2" />
<path d="M8257,64 L4672,621" stroke="blue" stroke-width="2" />
<path d="M7640,324 L3203,4856" stroke="blue" stroke-width="2" />
<path d="M4741,145 L3556,1838" stroke="blue" stroke-width="2" />
<path d="M1645,1872 L4536,5275" stroke="blue" stroke-width="2" />
<path d="M7106,3459 L7650,6283" stroke="blue" stroke-width="2" />
<path d="M7390,6023 L3361,6284" stroke="blue" stroke-width="2" />
<path d="M7801,2112 L958,4092" stroke="blue" stroke-width="2" />
<path d="M6877,1506 L6453,2240" stroke="blue" stroke-width="2" />
<path d="M5708,4501 L485,5319" stroke="blue" stroke-width="2" />
<path d="M4719,4710 L654,4139" stroke="blue" stroke-width="2" />
<path d="M8608,124 L1329,3600" stroke="blue" stroke-width="2" />
<path d="M3009,1315 L8722,3366" stroke="blue" stroke-width="2" />
<path d="M9258,4140 L5787,1842" stroke="blue" stroke-width="2" />
<path d="M3900,3879 L8878,4703" stroke="blue" stroke-width="2" />
<path d="M484,200 L7713,3322" stroke="blue" stroke-width="2" />
<path d="M7512,1913 L375,1385" stroke="blue" stroke-width="2" />
<path d="M8313,2575 L7680,4825" stroke="blue" stroke-width="2" />
<path d="M1717,4353 L3736,6153" stroke="blue" stroke-width="2" />
<path d="M475,3513 L7582,1365" stroke="blue" stroke-width="2" />
<path d="M8253,6154 L2878,2133" stroke="blue" stroke-width="2" />
<path d="M6469,6036 L8974,3773" stroke="blue" stroke-width="2" />
<path d="M8407,3869 L2215,3115" stroke="blue" stroke-width="2" />
<path d="M8679,4911 L2215,6164" stroke="blue" stroke-width="2" />
<path d="M3260,414 L740,6891" stroke="blue" stroke-width="2" />
<path d="M5593,881 L2779,3898" stroke="blue" stroke-width="2" />
<path d="M2953,1670 L5659,6081" stroke="blue" stroke-width="2" />
<path d="M1474,4442 L7975,2811" stroke="blue" stroke-width="2" />
<path d="M3395,5046 L620,926" stroke="blue" stroke-width="2" />
<path d="M6162,6183 L3510,5329" stroke="blue" stroke-width="2" />
<path d="M1296,4356 L6775,3447" stroke="blue" stroke-width="2" />
<path d="M88,2605 L2903,1437" stroke="blue" stroke-width="2" />
<path d="M1206,1414 L5545,5994" stroke="blue" stroke-width="2" />
<path d="M2810,6547 L9143,3021" stroke="blue" stroke-width="2" />
<path d="M8152,1327 L6179,1622" stroke="blue" stroke-width="2" />
<path d="M4795,670 L2343,6386" stroke="blue" stroke-width="2" />
<path d="M1169,2069 L1054,4944" stroke="blue" stroke-width="2" />
<path d="M2529,6249 L243,6902" stroke="blue" stroke-width="2" />
<path d="M8089,6244 L1547,3903" stroke="blue" stroke-width="2" />
<path d="M2595,341 L1522,960" stroke="blue" stroke-width="2" />
<path d="M7216,1555 L8683,1135" stroke="blue" stroke-width="2" />
<path d="M6516,5084 L6290,529" stroke="blue" stroke-width="2" />
<path d="M7744,3779 L3330,1335" stroke="blue" stroke-width="2" />
<path d="M9153,796 L5334,5390" stroke="blue" stroke-width="2" />
<path d="M900,1756 L4525,6312" stroke="blue" stroke-width="2" />
<path d="M2688,2336 L3144,4233" stroke="blue" stroke-width="2" />
<path d="M6027,5669 L5468,4120" stroke="blue" stroke-width="2" />
<path d="M2717,497 L3706,1093" stroke="blue" stroke-width="2" />
<path d="M7899,5214 L7204,3899" stroke="blue" stroke-width="2" />
<path d="M1195,1589 L7651,911" stroke="blue" stroke-width="2" />
<path d="M4754,4320 L5252,2928" stroke="blue" stroke-width="2" />
<path d="M1133,611 L6090,4631" stroke="blue" stroke-width="2" />
<path d="M1563,1205 L5197,1533" stroke="blue" stroke-width="2" />
<path d="M1431,2478 L2919,3960" stroke="blue" stroke-width="2" />
<path d="M8623,1475 L5679,3656" stroke="blue" stroke-width="2" />
<path d="M2519,6909 L4286,6724" stroke="blue" stroke-width="2" />
<path d="M7886,823 L2271,63" stroke="blue" stroke-width="2" />
<path d="M5840,5771 L3844,2368" stroke="blue" stroke-width="2" />
<path d="M1595,3865 L1885,5080" stroke="blue" stroke-width="2" />
<path d="M1023,5373 L6919,158" stroke="blue" stroke-width="2" />
<path d="M4149,5727 L3890,2096" stroke="blue" stroke-width="2" />
<path d="M7758,6656 L8056,6512" stroke="blue" stroke-width="2" />
<path d="M3254,6367 L3509,2666" stroke="blue" stroke-width="2" />
<path d="M6042,2404 L957,3056" stroke="blue" stroke-width="2" />
<path d="M1217,5112 L3631,1640" stroke="blue" stroke-width="2" />
<path d="M5770,3166 L4323,5340" stroke="blue" stroke-width="2" />
<path d="M796,5273 L1550,6034" stroke="blue" stroke-width="2" />
<path d="M6769,5626 L4117,6540" stroke="blue" stroke-width="2" />
<path d="M6746,3192 L7758,5384" stroke="blue" stroke-width="2" />
<path d="M4167,2829 L3364,2210" stroke="blue" stroke-width="2" />
<path d="M4567,3380 L9254,2090" stroke="blue" stroke-width="2" />
<path d="M7302,5817 L6052,3654" stroke="blue" stroke-width="2" />
<path d="M3017,6785 L5438,3566" stroke="blue" stroke-width="2" />
<path d="M127,1878 L702,2866" stroke="blue" stroke-width="2" />
<path d="M5246,3282 L1124,4002" stroke="blue" stroke-width="2" />
<path d="M4428,2174 L7907,1221" stroke="blue" stroke-width="2" />
<path d="M4433,4024 L7558,6427" stroke="blue" stroke-width="2" />
<path d="M1197,1343 L2528,294" stroke="blue" stroke-width="2" />
<path d="M2475,2451 L8701,4727" stroke="blue" stroke-width="2" />
<path d="M8830,2955 L5442,4869" stroke="blue" stroke-width="2" />
<path d="M7114,2618 L7479,5532" stroke="blue" stroke-width="2" />
<path d="M4282,757 L5660,4738" stroke="blue" stroke-width="2" />
<path d="M3629,1483 L9094,4741" stroke="blue" stroke-width="2" />
<path d="M509,5039 L4494,2050" stroke="blue" stroke-width="2" />
<path d="M1469,5562 L7354,1962" stroke="blue" stroke-width="2" />
<path d="M4143,3669 L1122,6309" stroke="blue" stroke-width="2" />
<path d="M2516,4247 L3646,5634" stroke="blue" stroke-width="2" />
<path d="M47,5858 L4663,5948" stroke="blue" stroke-width="2" />
<path d="M1833,4929 L683,4244" stroke="blue" stroke-width="2" />
<path d="M1717,3720 L1445,3369" stroke="blue" stroke-width="2" />
<path d="M7641,6702 L9063,3089" stroke="blue" stroke-width="2" />
<path d="M5835,3392 L5374,5398" stroke="blue" stroke-width="2" />
<path d="M7952,5394 L7147,712" stroke="blue" stroke-width="2" />
<path d="M698,5452 L2964,6595" stroke="blue" stroke-width="2" />
<path d="M5281,4749 L6051,2295" stroke="blue" stroke-width="2" />
<path d="M5554,5455 L5219,1601" stroke="blue" stroke-width="2" />
<path d="M21,6696 L2589,1021" stroke="blue" stroke-width="2" />
<path d="M4553,1594 L4645,2278" stroke="blue" stroke-width="2" />
<path d="M8326,6327 L8806,1662" stroke="blue" stroke-width="2" />
<path d="M3063,4830 L6173,221" stroke="blue" stroke-width="2" />
<path d="M4394,4141 L6777,6041" stroke="blue" stroke-width="2" />
<path d="M3590,5008 L8732,3325" stroke="blue" stroke-width="2" />
<path d="M7438,4369 L4739,2280" stroke="blue" stroke-width="2" />
<path d="M4491,5545 L7533,6540" stroke="blue" stroke-width="2" />
<path d="M5027,1084 L8399,6148" stroke="blue" stroke-width="2" />
<path d="M6376,6053 L8563,4809" stroke="blue" stroke-width="2" />
<path d="M1915,3507 L4512,5992" stroke="blue" stroke-width="2" />
<path d="M1757,6127 L9162,6900" stroke="blue" stroke-width="2" />
<path d="M1786,6564 L2053,4639" stroke="blue" stroke-width="2" />
<path d="M7050,3903 L6156,6095" stroke="blue" stroke-width="2" />
<path d="M163,2688 L3594,3796" stroke="blue" stroke-width="2" />
<path d="M183,2642 L8395,1463" stroke="blue" stroke-width="2" />
<path d="M7497,924 L261,5709" stroke="blue" stroke-width="2" />
<path d="M9194,5648 L201,1062" stroke="blue" stroke-width="2" />
<path d="M8688,3049 L6861,258" stroke="blue" stroke-width="2" />
<path d="M4976,6162 L1421,1580" stroke="blue" stroke-width="2" />
<path d="M9006,3931 L8526,6224" stroke="blue" stroke-width="2" />
<path d="M5750,4262 L8757,5999" stroke="blue" stroke-width="2" />
<path d="M4760,6330 L4534,614" stroke="blue" stroke-width="2" />
<path d="M805,4350 L2010,4483" stroke="blue" stroke-width="2" />
<path d="M7279,6944 L6853,4565" stroke="blue" stroke-width="2" />
<path d="M1227,95 L6660,5764" stroke="blue" stroke-width="2" />
<path d="M2178,3290 L8076,404" stroke="blue" stroke-width="2" />
<path d="M1,6223 L366,1580" stroke="blue" stroke-width="2" />
<path d="M6030,2249 L4523,4299" stroke="blue" stroke-width="2" />
<path d="M6361,5377 L1398,3955" stroke="blue" stroke-width="2" />
<path d="M5906,4251 L476,5319" stroke="blue" stroke-width="2" />
<path d="M7754,2849 L485,5577" stroke="blue" stroke-width="2" />
<path d="M6782,6268 L2930,6095" stroke="blue" stroke-width="2" />
<path d="M8163,3036 L4228,586" stroke="blue" stroke-width="2" />
<path d="M948,3265 L3043,4013" stroke="blue" stroke-width="2" />
<path d="M2724,2044 L4757,5844" stroke="blue" stroke-width="2" />
<path d="M5721,457 L1738,3006" stroke="blue" stroke-width="2" />
<path d="M6631,70 L9273,278" stroke="blue" stroke-width="2" />
<path d="M8567,377 L2582,380" stroke="blue" stroke-width="2" />
<path d="M8850,4446 L3902,3688" stroke="blue" stroke-width="2" />
<path d="M1089,2385 L5861,5309" stroke="blue" stroke-width="2" />
<path d="M6521,3415 L3291,4330" stroke="blue" stroke-width="2" />
<path d="M7301,5647 L5943,5415" stroke="blue" stroke-width="2" />
<path d="M3280,621 L120,3706" stroke="blue" stroke-width="2" />
<path d="M7878,13 L495,1984" stroke="blue" stroke-width="2" />
<path d="M4807,3416 L3731,2660" stroke="blue" stroke-width="2" />
<path d="M8075,5197 L7152,2181" stroke="blue" stroke-width="2" />
<path d="M4845,45 L2320,6192" stroke="blue" stroke-width="2" />
<path d="M6388,6757 L5745,6856" stroke="blue" stroke-width="2" />
<path d="M8753,617 L7771,1670" stroke="blue" stroke-width="2" />
<path d="M1394,993 L9229,3926" stroke="blue" stroke-width="2" />
<path d="M3057,5452 L5838,2873" stroke="blue" stroke-width="2" />
<path d="M6825,2752 L3701,2454" stroke="blue" stroke-width="2" />
<path d="M627,3288 L482,6576" stroke="blue" stroke-width="2" />
<path d="M983,4559 L1677,1261" stroke="blue" stroke-width="2" />
<path d="M2383,6485 L7930,6832" stroke="blue" stroke-width="2" />
<path d="M2462,490 L1869,5018" stroke="blue" stroke-width="2" />
<path d="M1327,1669 L415,2340" stroke="blue" stroke-width="2" />
<path d="M4176,1448 L8673,6074" stroke="blue" stroke-width="2" />
<path d="M8781,1843 L4623,341" stroke="blue" stroke-width="2" />
<path d="M4890,2474 L1025,192" stroke="blue" stroke-width="2" />
<path d="M792,587 L3572,6803" stroke="blue" stroke-width="2" />
<path d="M6694,590 L7563,1670" stroke="blue" stroke-width="2" />
<path d="M149,3051 L6285,6150" stroke="blue" stroke-width="2" />
<path d="M6133,5317 L4889,3574" stroke="blue" stroke-width="2" />
<path d="M3049,2317 L8569,5653" stroke="blue" stroke-width="2" />
<path d="M4525,559 L5106,83" stroke="blue" stroke-width="2" />
<path d="M3561,2815 L2342,2260" stroke="blue" stroke-width="2" />
<path d="M9114,5382 L8284,2532" stroke="blue" stroke-width="2" />
<path d="M3739,3522 L7408,871" stroke="blue" stroke-width="2" />
<path d="M8716,4837 L4510,332" stroke="blue" stroke-width="2" />
<path d="M942,771 L4560,6582" stroke="blue" stroke-width="2" />
<path d="M4285,5820 L3708,1454" stroke="blue" stroke-width="2" />
<path d="M8903,5897 L9299,2656" stroke="blue" stroke-width="2" />
<path d="M8510,4134 L2762,2528" stroke="blue" stroke-width="2" />
<path d="M3953,205 L4393,6832" stroke="blue" stroke-width="2" />
<path d="M8686,2650 L6029,4918" stroke="blue" stroke-width="2" />
<path d="M4590,1449 L3385,1743" stroke="blue" stroke-width="2" />
<path d="M1568,94 L1753,135" stroke="blue" stroke-width="2" />
<path d="M4694,2883 L6363,4620" stroke="blue" stroke-width="2" />
<path d="M8476,1577 L806,1925" stroke="blue" stroke-width="2" />
<path d="M1958,4934 L6015,3667" stroke="blue" stroke-width="2" />
<path d="M144,2378 L8480,3562" stroke="blue" stroke-width="2" />
<path d="M3153,6479 L7075,6232" stroke="blue" stroke-width="2" />
<path d="M5569,2285 L4284,880" stroke="blue" stroke-width="2" />
<path d="M6370,3586 L4652,3165" stroke="blue" stroke-width="2" />
<path d="M1120,6405 L445,2522" stroke="blue" stroke-width="2" />
<path d="M4618,2530 L2290,4212" stroke="blue" stroke-width="2" />
<path d="M740,2197 L3213,999" stroke="blue" stroke-width="2" />
<path d="M2731,2315 L2048,4429" stroke="blue" stroke-width="2" />
<path d="M5123,6062 L758,4726" stroke="blue" stroke-width="2" />
<path d="M7374,2549 L1164,3369" stroke="blue" stroke-width="2" />
<path d="M3975,2908 L6826,3743" stroke="blue" stroke-width="2" />
<path d="M2835,6057 L6295,6737" stroke="blue" stroke-width="2" />
<path d="M4724,5279 L2220,2209" stroke="blue" stroke-width="2" />
<path d="M6189,2440 L2383,5133" stroke="blue" stroke-width="2" />
<path d="M2006,3843 L4797,4707" stroke="blue" stroke-width="2" />
<path d="M6783,2818 L5395,4401" stroke="blue" stroke-width="2" />
<path d="M6000,702 L2006,3536" stroke="blue" stroke-width="2" />
<path d="M5269,5514 L4036,989" stroke="blue" stroke-width="2" />
<path d="M8692,62 L8227,2013" stroke="blue" stroke-width="2" />
<path d="M8352,2626 L7649,1010" stroke="blue" stroke-width="2" />
<path d="M4775,3693 L7145,3150" stroke="blue" stroke-width="2" />
<path d="M6058,2437 L2853,3345" stroke="blue" stroke-width="2" />
<path d="M4813,5307 L1112,1852" stroke="blue" stroke-width="2" />
<path d="M8363,3611 L2546,5612" stroke="blue" stroke-width="2" />
<path d="M4102,2420 L9,5995" stroke="blue" stroke-width="2" />
<path d="M1980,1448 L6323,4539" stroke="blue" stroke-width="2" />
<path d="M1928,2561 L7234,152" stroke="blue" stroke-width="2" />
<path d="M9171,3946 L7686,2972" stroke="blue" stroke-width="2" />
<path d="M3196,708 L848,6466" stroke="blue" stroke-width="2" />
<path d="M6787,1486 L6199,672" stroke="blue" stroke-width="2" />
<path d="M8585,4581 L6471,4663" stroke="blue" stroke-width="2" />
<path d="M4921,5228 L6522,2087" stroke="blue" stroke-width="2" />
<path d="M1143,12 L537,5997" stroke="blue" stroke-width="2" />
<path d="M376,4022 L3166,1209" stroke="blue" stroke-width="2" />
<path d="M1001,4715 L273,4617" stroke="blue" stroke-width="2" />
<path d="M4205,4902 L3703,2774" stroke="blue" stroke-width="2" />
<path d="M2091,4558 L2557,6370" stroke="blue" stroke-width="2" />
<path d="M5980,6546 L2111,1199" stroke="blue" stroke-width="2" />
<path d="M7915,99 L2295,3156" stroke="blue" stroke-width="2" />
<path d="M1143,6462 L7984,5407" stroke="blue" stroke-width="2" />
<path d="M2552,4524 L8939,3003" stroke="blue" stroke-width="2" />
<path d="M2178,1061 L725,1779" stroke="blue" stroke-width="2" />
<path d="M2498,6760 L587,5373" stroke="blue" stroke-width="2" />
<path d="M3850,3531 L1424,2553" stroke="blue" stroke-width="2" />
<path d="M1349,4481 L2772,6530" stroke="blue" stroke-width="2" />
<path d="M5936,1598 L3284,582" stroke="blue" stroke-width="2" />
<path d="M3515,5856 L3053,628" stroke="blue" stroke-width="2" />
<path d="M1391,1743 L5843,4937" stroke="blue" stroke-width="2" />
<path d="M3313,3333 L7161,6103" stroke="blue" stroke-width="2" />
<path d="M7811,3437 L4229,773" stroke="blue" stroke-width="2" />
<path d="M765,4614 L1521,3156" stroke="blue" stroke-width="2" />
<path d="M7638,2794 L3995,6590" stroke="blue" stroke-width="2" />
<path d="M7073,4925 L9144,59" stroke="blue" stroke-width="2" />
<path d="M8557,5226 L1864,2036" stroke="blue" stroke-width="2" />
<path d="M84,6461 L9140,872" stroke="blue" stroke-width="2" />
<path d="M7298,4295 L8738,1301" stroke="blue" stroke-width="2" />
<path d="M1160,68 L1938,4787" stroke="blue" stroke-width="2" />
<path d="M7100,2284 L294,1112" stroke="blue" stroke-width="2" />
<path d="M6476,2980 L8253,4367" stroke="blue" stroke-width="2" />
<path d="M7881,577 L5251,6810" stroke="blue" stroke-width="2" />
<path d="M9168,4719 L2708,2898" stroke="blue" stroke-width="2" />
<path d="M6567,2663 L7227,2046" stroke="blue" stroke-width="2" />
<path d="M453,1154 L4573,4445" stroke="blue" stroke-width="2" />
<path d="M4669,3216 L2751,31" stroke="blue" stroke-width="2" />
<path d="M3364,2703 L2654,1491" stroke="blue" stroke-width="2" />
<path d="M6959,1533 L9304,6739" stroke="blue" stroke-width="2" />
<path d="M3312,6180 L268,4337" stroke="blue" stroke-width="2" />
<path d="M5839,3863 L577,3051" stroke="blue" stroke-width="2" />
<path d="M632,955 L7741,1489" stroke="blue" stroke-width="2" />
<path d="M7320,3928 L2060,1604" stroke="blue" stroke-width="2" />
<path d="M8232,4189 L2671,1201" stroke="blue" stroke-width="2" />
<path d="M3010,5811 L5936,348" stroke="blue" stroke-width="2" />
<path d="M5764,5367 L3821,2982" stroke="blue" stroke-width="2" />
<path d="M9154,1544 L9047,3890" stroke="blue" stroke-width="2" />
<path d="M7563,2762 L4231,6830" stroke="blue" stroke-width="2" />
<path d="M4419,5107 L6489,1163" stroke="blue" stroke-width="2" />
<path d="M5807,3509 L3201,6923" stroke="blue" stroke-width="2" />
<path d="M5735,3004 L5802,2785" stroke="blue" stroke-width="2" />
<path d="M234,136 L5580,5374" stroke="blue" stroke-width="2" />
<path d="M6449,3881 L6509,858" stroke="blue" stroke-width="2" />
<path d="M2035,2080 L6948,4050" stroke="blue" stroke-width="2" />
<path d="M2086,4435 L2666,3299" stroke="blue" stroke-width="2" />
<path d="M7750,1271 L1917,2805" stroke="blue" stroke-width="2" />
<path d="M7134,621 L3063,2072" stroke="blue" stroke-width="2" />
<path d="M7960,1638 L2912,1034" stroke="blue" stroke-width="2" />
<path d="M2061,328 L2831,717" stroke="blue" stroke-width="2" />
<path d="M2101,6163 L6717,1785" stroke="blue" stroke-width="2" />
<path d="M8629,2162 L1708,4625" stroke="blue" stroke-width="2" />
<path d="M5621,6522 L5082,4390" stroke="blue" stroke-width="2" />
<path d="M4294,518 L208,6066" stroke="blue" stroke-width="2" />
<path d="M8049,1206 L3844,72" stroke="blue" stroke-width="2" />
<path d="M4822,5640 L8721,2673" stroke="blue" stroke-width="2" />
<path d="M5915,1543 L8313,76" stroke="blue" stroke-width="2" />
<path d="M6582,1059 L8010,1716" stroke="blue" stroke-width="2" />
<path d="M6353,1014 L5407,2306" stroke="blue" stroke-width="2" />
<path d="M0,0 L9329,0" stroke="red" stroke-width="10" />
<path d="M9329,0 L9329,6947" stroke="red" stroke-width="10" />
<path d="M0,6947 L9329,6947" stroke="red" stroke-width="10" />
<path d="M0,6947 L0,0" stroke="red" stroke-width="10" />
</svg>