<?xml version="1.0" encoding="UTF-8"?>
<svg xmlns="http://www.w3.org/2000/svg" xmlns:xlink="http://www.w3.org/1999/xlink"
     width="10000" height="10000" viewBox="0 0 10000 10000">
<defs>
</defs>
<path d="M6440,917 L2169,196" stroke="blue" stroke-width="2" />
<path d="M3217,1471 L3025,1136" stroke="blue" stroke-width="2" />
<path d="M5468,563 L6000,1011" stroke="blue" stroke-width="2" />
<path d="M2169,1624 L1863,472" stroke="blue" stroke-width="2" />
<path d="M6600,1956 L5042,1162" stroke="blue" stroke-width="2" />
<path d="M5553,914 L2505,1662" stroke="blue" stroke-width="2" />
<path d="M2362,725 L6219,1439" stroke="blue" stroke-width="2" />
<path d="M2157,877 L5456,683" stroke="blue" stroke-width="2" />
<path d="M1575,847 L3153,522" stroke="blue" stroke-width="2" />
<path d="M2530,308 L4397,609" stroke="blue" stroke-width="2" />
<path d="M5623,1758 L797,1083" stroke="blue" stroke-width="2" />
<path d="M6782,1794 L2536,1514" stroke="blue" stroke-width="2" />
<path d="M2011,1189 L3808,1921" stroke="blue" stroke-width="2" />
<path d="M2338,625 L4024,1101" stroke="blue" stroke-width="2" />
<path d="M6975,377 L596,571" stroke="blue" stroke-width="2" />
<path d="M6414,595 L278,1268" stroke="blue" stroke-width="2" />
<path d="M4979,951 L4503,1139" stroke="blue" stroke-width="2" />
<path d="M6846,28 L3068,1027" stroke="blue" stroke-width="2" />
<path d="M5928,1851 L667,1622" stroke="blue" stroke-width="2" />
<path d="M4338,707 L6090,1182" stroke="blue" stroke-width="2" />
<path d="M3216,907 L5248,1020" stroke="blue" stroke-width="2" />
<path d="M5770,1861 L119,350" stroke="blue" stroke-width="2" />
<path d="M3932,910 L4726,1757" stroke="blue" stroke-width="2" />
<path d="M4793,765 L116,1724" stroke="blue" stroke-width="2" />
<path d="M2807,602 L5573,1294" stroke="blue" stroke-width="2" />
<path d="M4582,1327 L4404,1544" stroke="blue" stroke-width="2" />
<path d="M5204,841 L5866,1421" stroke="blue" stroke-width="2" />
<path d="M4829,1673 L872,1203" stroke="blue" stroke-width="2" />
<path d="M3850,82 L89,40" stroke="blue" stroke-width="2" />
<path d="M6918,1933 L4758,1188" stroke="blue" stroke-width="2" />
<path d="M5137,1083 L5746,1158" stroke="blue" stroke-width="2" />
<path d="M452,1978 L5011,1903" stroke="blue" stroke-width="2" />
<path d="M1268,1054 L5055,1314" stroke="blue" stroke-width="2" />
<path d="M5997,1179 L115,237" stroke="blue" stroke-width="2" />
<path d="M4960,716 L2884,1042" stroke="blue" stroke-width="2" />
<path d="M4061,691 L6988,1049" stroke="blue" stroke-width="2" />
<path d="M831,1715 L2918,815" stroke="blue" stroke-width="2" />
<path d="M2425,1072 L4121,1870" stroke="blue" stroke-width="2" />
<path d="M776,1765 L3304,100" stroke="blue" stroke-width="2" />
<path d="M5257,293 L5783,608" stroke="blue" stroke-width="2" />
<path d="M5036,4 L5771,1686" stroke="blue" stroke-width="2" />
<path d="M3644,336 L5654,251" stroke="blue" stroke-width="2" />
<path d="M3342,21 L1450,75" stroke="blue" stroke-width="2" />
<path d="M6601,188 L4873,1942" stroke="blue" stroke-width="2" />
<path d="M2768,1737 L2708,1637" stroke="blue" stroke-width="2" />
<path d="M773,1334 L3046,247" stroke="blue" stroke-width="2" />
<path d="M990,287 L6022,790" stroke="blue" stroke-width="2" />
<path d="M4152,683 L6120,1506" stroke="blue" stroke-width="2" />
<path d="M305,1399 L4487,669" stroke="blue" stroke-width="2" />
<path d="M4843,1516 L6420,479" stroke="blue" stroke-width="2" />
<path d="M317,1387 L6336,1051" stroke="blue" stroke-width="2" />
<path d="M2352,1171 L3886,1431" stroke="blue" stroke-width="2" />
<path d="M5597,953 L623,1739" stroke="blue" stroke-width="2" />
<path d="M330,521 L4628,1478" stroke="blue" stroke-width="2" />
<path d="M3785,1214 L3451,716" stroke="blue" stroke-width="2" />
<path d="M1299,1123 L3266,835" stroke="blue" stroke-width="2" />
<path d="M298,1361 L5814,1177" stroke="blue" stroke-width="2" />
<path d="M740,897 L6486,279" stroke="blue" stroke-width="2" />
<path d="M6518,402 L3455,118" stroke="blue" stroke-width="2" />
<path d="M6946,1944 L4700,293" stroke="blue" stroke-width="2" />
<path d="M5693,1144 L3218,171" stroke="blue" stroke-width="2" />
<path d="M3125,562 L3851,1547" stroke="blue" stroke-width="2" />
<path d="M2344,1527 L1736,235" stroke="blue" stroke-width="2" />
<path d="M5621,1733 L1285,115" stroke="blue" stroke-width="2" />
<path d="M854,1176 L6583,1898" stroke="blue" stroke-width="2" />
<path d="M1064,833 L5333,1399" stroke="blue" stroke-width="2" />
<path d="M5933,1957 L6573,715" stroke="blue" stroke-width="2" />
<path d="M4265,1950 L6551,799" stroke="blue" stroke-width="2" />
<path d="M907,15 L4594,328" stroke="blue" stroke-width="2" />
<path d="M2665,923 L4930,889" stroke="blue" stroke-width="2" />
<path d="M4477,2036 L6972,1956" stroke="blue" stroke-width="2" />
<path d="M6947,1302 L6057,368" stroke="blue" stroke-width="2" />
<path d="M2127,248 L2645,1133" stroke="blue" stroke-width="2" />
<path d="M1140,178 L4875,218" stroke="blue" stroke-width="2" />
<path d="M1405,47 L1360,903" stroke="blue" stroke-width="2" />
<path d="M4083,1994 L187,1646" stroke="blue" stroke-width="2" />
<path d="M5723,929 L4921,1150" stroke="blue" stroke-width="2" />
<path d="M4879,1556 L6526,1250" stroke="blue" stroke-width="2" />
<path d="M6558,1542 L6562,913" stroke="blue" stroke-width="2" />
<path d="M4479,1485 L3749,666" stroke="blue" stroke-width="2" />
<path d="M2751,1613 L3017,738" stroke="blue" stroke-width="2" />
<path d="M3782,624 L5861,853" stroke="blue" stroke-width="2" />
<path d="M2763,537 L4142,1584" stroke="blue" stroke-width="2" />
<path d="M2649,1794 L2301,1561" stroke="blue" stroke-width="2" />
<path d="M6419,1929 L4333,1255" stroke="blue" stroke-width="2" />
<path d="M1639,151 L4619,19" stroke="blue" stroke-width="2" />
<path d="M3152,256 L6237,695" stroke="blue" stroke-width="2" />
<path d="M328,608 L4483,211" stroke="blue" stroke-width="2" />
<path d="M2825,176 L6994,1469" stroke="blue" stroke-width="2" />
<path d="M958,345 L697,1927" stroke="blue" stroke-width="2" />
<path d="M183,189 L5425,1768" stroke="blue" stroke-width="2" />
<path d="M3090,306 L1400,908" stroke="blue" stroke-width="2" />
<path d="M1365,1493 L6049,1809" stroke="blue" stroke-width="2" />
<path d="M6773,1150 L356,2039" stroke="blue" stroke-width="2" />
<path d="M4933,841 L601,1225" stroke="blue" stroke-width="2" />
<path d="M1819,2005 L1024,961" stroke="blue" stroke-width="2" />
<path d="M4441,1138 L5204,1225" stroke="blue" stroke-width="2" />
<path d="M1720,136 L913,297" stroke="blue" stroke-width="2" />
<path d="M4216,214 L5304,285" stroke="blue" stroke-width="2" />
<path d="M3497,1143 L4733,63" stroke="blue" stroke-width="2" />
<path d="M3897,57 L5632,73" stroke="blue" stroke-width="2" />
<path d="M5187,1931 L1627,400" stroke="blue" stroke-width="2" />
<path d="M6860,734 L6239,996" stroke="blue" stroke-width="2" />
<path d="M2241,782 L548,1827" stroke="blue" stroke-width="2" />
<path d="M6506,1929 L2784,1761" stroke="blue" stroke-width="2" />
<path d="M2851,1671 L1019,822" stroke="blue" stroke-width="2" />
<path d="M3604,1849 L2022,763" stroke="blue" stroke-width="2" />
<path d="M216,1129 L1065,893" stroke="blue" stroke-width="2" />
<path d="M1967,175 L4358,1100" stroke="blue" stroke-width="2" />
<path d="M2929,1518 L4099,999" stroke="blue" stroke-width="2" />
<path d="M653,536 L2043,967" stroke="blue" stroke-width="2" />
<path d="M5858,1177 L1909,1814" stroke="blue" stroke-width="2" />
<path d="M923,1339 L250,1828" stroke="blue" stroke-width="2" />
<path d="M6798,1812 L3714,1663" stroke="blue" stroke-width="2" />
<path d="M2483,1168 L5520,990" stroke="blue" stroke-width="2" />
<path d="M2144,2003 L3504,1237" stroke="blue" stroke-width="2" />
<path d="M2774,1449 L6416,2002" stroke="blue" stroke-width="2" />
<path d="M1216,562 L5147,238" stroke="blue" stroke-width="2" />
<path d="M4976,312 L2096,1454" stroke="blue" stroke-width="2" />
<path d="M1294,1947 L366,896" stroke="blue" stroke-width="2" />
<path d="M1129,1768 L4901,1937" stroke="blue" stroke-width="2" />
<path d="M2479,1714 L5255,1760" stroke="blue" stroke-width="2" />
<path d="M1159,1708 L4415,1693" stroke="blue" stroke-width="2" />
<path d="M6736,1960 L4777,1854" stroke="blue" stroke-width="2" />
<path d="M1951,1707 L4101,178" stroke="blue" stroke-width="2" />
<path d="M4606,451 L3658,1454" stroke="blue" stroke-width="2" />
<path d="M6348,113 L1527,653" stroke="blue" stroke-width="2" />
<path d="M6886,143 L1046,1570" stroke="blue" stroke-width="2" />
<path d="M6596,1131 L2159,550" stroke="blue" stroke-width="2" />
<path d="M3406,1673 L1934,1432" stroke="blue" stroke-width="2" />
<path d="M4874,1031 L5427,155" stroke="blue" stroke-width="2" />
<path d="M970,570 L3162,1482" stroke="blue" stroke-width="2" />
<path d="M5655,69 L6454,558" stroke="blue" stroke-width="2" />
<path d="M3004,280 L5481,104" stroke="blue" stroke-width="2" />
<path d="M5115,1837 L1432,55" stroke="blue" stroke-width="2" />
<path d="M1389,1622 L6752,1478" stroke="blue" stroke-width="2" />
<path d="M1635,477 L2652,243" stroke="blue" stroke-width="2" />
<path d="M5241,195 L1426,788" stroke="blue" stroke-width="2" />
<path d="M4546,1816 L1258,0" stroke="blue" stroke-width="2" />
<path d="M5572,388 L482,850" stroke="blue" stroke-width="2" />
<path d="M2812,1689 L5748,700" stroke="blue" stroke-width="2" />
<path d="M6407,846 L4555,1792" stroke="blue" stroke-width="2" />
<path d="M773,1371 L2375,1669" stroke="blue" stroke-width="2" />
<path d="M6548,1034 L2116,1809" stroke="blue" stroke-width="2" />
<path d="M6436,510 L1058,497" stroke="blue" stroke-width="2" />
<path d="M2133,572 L2732,954" stroke="blue" stroke-width="2" />
<path d="M6721,385 L3988,158" stroke="blue" stroke-width="2" />
<path d="M5291,1462 L6965,925" stroke="blue" stroke-width="2" />
<path d="M5972,1661 L5798,405" stroke="blue" stroke-width="2" />
<path d="M6728,203 L199,120" stroke="blue" stroke-width="2" />
<path d="M3579,259 L2597,1548" stroke="blue" stroke-width="2" />
<path d="M5916,1572 L6923,970" stroke="blue" stroke-width="2" />
<path d="M4807,1775 L6944,1468" stroke="blue" stroke-width="2" />
<path d="M5184,1732 L5260,1696" stroke="blue" stroke-width="2" />
<path d="M57,440 L6060,744" stroke="blue" stroke-width="2" />
<path d="M1639,469 L3898,1785" stroke="blue" stroke-width="2" />
<path d="M5815,1253 L5785,2040" stroke="blue" stroke-width="2" />
<path d="M6070,584 L5036,1243" stroke="blue" stroke-width="2" />
<path d="M2728,831 L4194,659" stroke="blue" stroke-width="2" />
<path d="M2916,1965 L2005,111" stroke="blue" stroke-width="2" />
<path d="M6698,2001 L6574,101" stroke="blue" stroke-width="2" />
<path d="M5832,690 L1888,1457" stroke="blue" stroke-width="2" />
<path d="M3846,1342 L614,1432" stroke="blue" stroke-width="2" />
<path d="M3197,1050 L5020,341" stroke="blue" stroke-width="2" />
<path d="M4754,321 L5064,822" stroke="blue" stroke-width="2" />
<path d="M6422,257 L4126,75" stroke="blue" stroke-width="2" />
<path d="M140,877 L2240,1487" stroke="blue" stroke-width="2" />
<path d="M1118,1516 L3019,78" stroke="blue" stroke-width="2" />
<path d="M143,852 L3408,1193" stroke="blue" stroke-width="2" />
<path d="M6289,1452 L3515,383" stroke="blue" stroke-width="2" />
<path d="M4193,1261 L1173,525" stroke="blue" stroke-width="2" />
<path d="M1236,469 L659,609" stroke="blue" stroke-width="2" />
<path d="M1541,1609 L595,1390" stroke="blue" stroke-width="2" />
<path d="M6774,1807 L4803,164" stroke="blue" stroke-width="2" />
<path d="M2513,1583 L4070,1751" stroke="blue" stroke-width="2" />
<path d="M1221,868 L2769,640" stroke="blue" stroke-width="2" />
<path d="M5614,1316 L4002,1551" stroke="blue" stroke-width="2" />
<path d="M1999,1650 L723,1244" stroke="blue" stroke-width="2" />
<path d="M2323,1053 L3310,449" stroke="blue" stroke-width="2" />
<path d="M4301,1286 L5936,1827" stroke="blue" stroke-width="2" />
<path d="M6012,439 L3199,489" stroke="blue" stroke-width="2" />
<path d="M6548,1228 L2642,1066" stroke="blue" stroke-width="2" />
<path d="M4687,878 L6119,465" stroke="blue" stroke-width="2" />
<path d="M2052,502 L4671,1546" stroke="blue" stroke-width="2" />
<path d="M2940,392 L4511,1125" stroke="blue" stroke-width="2" />
<path d="M526,876 L6455,1019" stroke="blue" stroke-width="2" />
<path d="M6991,1478 L944,1895" stroke="blue" stroke-width="2" />
<path d="M1971,1235 L2895,877" stroke="blue" stroke-width="2" />
<path d="M1463,1422 L4127,1170" stroke="blue" stroke-width="2" />
<path d="M5991,277 L3441,500" stroke="blue" stroke-width="2" />
<path d="M311,310 L3210,328" stroke="blue" stroke-width="2" />
<path d="M6973,1848 L5491,306" stroke="blue" stroke-width="2" />
<path d="M3787,129 L6565,569" stroke="blue" stroke-width="2" />
<path d="M6356,191 L1128,928" stroke="blue" stroke-width="2" />
<path d="M3785,1171 L2865,326" stroke="blue" stroke-width="2" />
<path d="M2206,1661 L6245,856" stroke="blue" stroke-width="2" />
<path d="M482,1923 L6733,1759" stroke="blue" stroke-width="2" />
<path d="M5746,514 L1313,1406" stroke="blue" stroke-width="2" />
<path d="M1014,1641 L481,1959" stroke="blue" stroke-width="2" />
<path d="M5242,260 L3998,1102" stroke="blue" stroke-width="2" />
<path d="M3657,1751 L1979,206" stroke="blue" stroke-width="2" />
<path d="M6913,1507 L5904,1093" stroke="blue" stroke-width="2" />
<path d="M5355,1601 L5676,481" stroke="blue" stroke-width="2" />
<path d="M2249,313 L5671,907" stroke="blue" stroke-width="2" />
<path d="M4315,398 L5576,442" stroke="blue" stroke-width="2" />
<path d="M5805,414 L5934,115" stroke="blue" stroke-width="2" />
<path d="M5970,1423 L5883,151" stroke="blue" stroke-width="2" />
<path d="M1088,463 L2476,843" stroke="blue" stroke-width="2" />
<path d="M102,416 L2855,627" stroke="blue" stroke-width="2" />
<path d="M711,1043 L6587,1179" stroke="blue" stroke-width="2" />
<path d="M6455,477 L185,1396" stroke="blue" stroke-width="2" />
<path d="M3387,1645 L1498,166" stroke="blue" stroke-width="2" />
<path d="M862,1699 L2701,626" stroke="blue" stroke-width="2" />
<path d="M4907,1753 L1042,187" stroke="blue" stroke-width="2" />
<path d="M3816,1252 L3224,1133" stroke="blue" stroke-width="2" />
<path d="M4059,385 L3076,202" stroke="blue" stroke-width="2" />
<path d="M5806,849 L2237,417" stroke="blue" stroke-width="2" />
<path d="M1667,798 L5803,1221" stroke="blue" stroke-width="2" />
<path d="M673,918 L1196,944" stroke="blue" stroke-width="2" />
<path d="M4557,1866 L3450,2037" stroke="blue" stroke-width="2" />
<path d="M294,1498 L4176,1963" stroke="blue" stroke-width="2" />
<path d="M4287,1044 L5563,684" stroke="blue" stroke-width="2" />
<path d="M705,1301 L4718,326" stroke="blue" stroke-width="2" />
<path d="M5206,1404 L1411,209" stroke="blue" stroke-width="2" />
<path d="M6081,1912 L4678,1810" stroke="blue" stroke-width="2" />
<path d="M1693,1927 L92,605" stroke="blue" stroke-width="2" />
<path d="M5947,318 L4018,662" stroke="blue" stroke-width="2" />
<path d="M192,640 L2872,1110" stroke="blue" stroke-width="2" />
<path d="M4793,412 L4120,179" stroke="blue" stroke-width="2" />
<path d="M4136,1886 L1143,1238" stroke="blue" stroke-width="2" />
<path d="M6294,1613 L622,294" stroke="blue" stroke-width="2" />
<path d="M1837,706 L1441,1556" stroke="blue" stroke-width="2" />
<path d="M2904,1059 L2610,1239" stroke="blue" stroke-width="2" />
<path d="M4055,478 L3460,1636" stroke="blue" stroke-width="2" />
<path d="M3720,577 L5495,84" stroke="blue" stroke-width="2" />
<path d="M4615,237 L4208,1130" stroke="blue" stroke-width="2" />
<path d="M1321,1232 L2462,1551" stroke="blue" stroke-width="2" />
<path d="M2615,1594 L6308,1834" stroke="blue" stroke-width="2" />
<path d="M5965,1433 L3557,694" stroke="blue" stroke-width="2" />
<path d="M2628,1956 L5727,633" stroke="blue" stroke-width="2" />
<path d="M2147,1416 L6359,330" stroke="blue" stroke-width="2" />
<path d="M4392,594 L1686,1956" stroke="blue" stroke-width="2" />
<path d="M4588,536 L6394,1490" stroke="blue" stroke-width="2" />
<path d="M2010,89 L2866,48" stroke="blue" stroke-width="2" />
<path d="M6515,600 L266,293" stroke="blue" stroke-width="2" />
<path d="M4508,1472 L5864,1964" stroke="blue" stroke-width="2" />
<path d="M5209,56 L5471,284" stroke="blue" stroke-width="2" />
<path d="M2185,885 L448,252" stroke="blue" stroke-width="2" />
<path d="M5352,220 L115,352" stroke="blue" stroke-width="2" />
<path d="M2766,1981 L6978,1370" stroke="blue" stroke-width="2" />
<path d="M1483,908 L983,2030" stroke="blue" stroke-width="2" />
<path d="M1138,538 L4911,753" stroke="blue" stroke-width="2" />
<path d="M5024,206 L3707,1771" stroke="blue" stroke-width="2" />
<path d="M3414,583 L2945,407" stroke="blue" stroke-width="2" />
<path d="M721,1308 L3201,220" stroke="blue" stroke-width="2" />
<path d="M220,557 L4584,343" stroke="blue" stroke-width="2" />
<path d="M5273,1548 L4844,1032" stroke="blue" stroke-width="2" />
<path d="M1182,747 L3042,838" stroke="blue" stroke-width="2" />
<path d="M6200,776 L2984,232" stroke="blue" stroke-width="2" />
<path d="M4751,484 L5117,924" stroke="blue" stroke-width="2" />
<path d="M781,1243 L4348,1875" stroke="blue" stroke-width="2" />
<path d="M4387,1424 L6749,1709" stroke="blue" stroke-width="2" />
<path d="M2711,569 L4346,1466" stroke="blue" stroke-width="2" />
<path d="M5698,217 L3949,990" stroke="blue" stroke-width="2" />
<path d="M2764,154 L5835,246" stroke="blue" stroke-width="2" />
<path d="M515,947 L4297,797" stroke="blue" stroke-width="2" />
<path d="M1046,1943 L844,515" stroke="blue" stroke-width="2" />
<path d="M5628,157 L282,519" stroke="blue" stroke-width="2" />
<path d="M3395,1135 L2545,2031" stroke="blue" stroke-width="2" />
<path d="M2811,485 L2787,1802" stroke="blue" stroke-width="2" />
<path d="M6683,1730 L2654,1409" stroke="blue" stroke-width="2" />
<path d="M1682,1913 L3938,1859" stroke="blue" stroke-width="2" />
<path d="M1299,605 L5145,997" stroke="blue" stroke-width="2" />
<path d="M2830,1000 L6605,1492" stroke="blue" stroke-width="2" />
<path d="M5425,1439 L4179,1952" stroke="blue" stroke-width="2" />
<path d="M4166,151 L4945,904" stroke="blue" stroke-width="2" />
<path d="M2446,1602 L3995,997" stroke="blue" stroke-width="2" />
<path d="M4304,167 L2076,1459" stroke="blue" stroke-width="2" />
<path d="M845,1902 L1644,597" stroke="blue" stroke-width="2" />
<path d="M4400,1260 L3840,1143" stroke="blue" stroke-width="2" />
<path d="M5945,482 L5880,91" stroke="blue" stroke-width="2" />
<path d="M6562,712 L4460,975" stroke="blue" stroke-width="2" />
<path d="M1986,1765 L6054,1134" stroke="blue" stroke-width="2" />
<path d="M3286,1889 L671,1481" stroke="blue" stroke-width="2" />
<path d="M4872,543 L5513,1557" stroke="blue" stroke-width="2" />
<path d="M759,1961 L3440,24" stroke="blue" stroke-width="2" />
<path d="M5477,728 L2725,411" stroke="blue" stroke-width="2" />
<path d="M4236,1930 L1078,1597" stroke="blue" stroke-width="2" />
<path d="M1009,1526 L6419,1376" stroke="blue" stroke-width="2" />
<path d="M908,1198 L1076,457" stroke="blue" stroke-width="2" />
<path d="M1700,1546 L2025,85" stroke="blue" stroke-width="2" />
<path d="M3412,900 L148,1866" stroke="blue" stroke-width="2" />
<path d="M928,1386 L3572,1714" stroke="blue" stroke-width="2" />
<path d="M1011,545 L527,662" stroke="blue" stroke-width="2" />
<path d="M2383,2037 L2652,1121" stroke="blue" stroke-width="2" />
<path d="M4440,161 L3311,776" stroke="blue" stroke-width="2" />
<path d="M375,1068 L6700,308" stroke="blue" stroke-width="2" />
<path d="M4053,123 L1915,603" stroke="blue" stroke-width="2" />
<path d="M1713,682 L3346,875" stroke="blue" stroke-width="2" />
<path d="M6922,1474 L4520,1284" stroke="blue" stroke-width="2" />
<path d="M4099,1899 L5626,1981" stroke="blue" stroke-width="2" />
<path d="M3226,1477 L932,1664" stroke="blue" stroke-width="2" />
<path d="M4769,628 L5246,373" stroke="blue" stroke-width="2" />
<path d="M4288,1480 L1879,674" stroke="blue" stroke-width="2" />
<path d="M161,1897 L6825,1227" stroke="blue" stroke-width="2" />
<path d="M4282,380 L1315,699" stroke="blue" stroke-width="2" />
<path d="M3127,419 L1745,1558" stroke="blue" stroke-width="2" />
<path d="M2104,1208 L6718,694" stroke="blue" stroke-width="2" />
<path d="M3121,1266 L4898,1866" stroke="blue" stroke-width="2" />
<path d="M4474,1497 L5316,761" stroke="blue" stroke-width="2" />
<path d="M1851,972 L2494,1687" stroke="blue" stroke-width="2" />
<path d="M3927,856 L2519,1019" stroke="blue" stroke-width="2" />
<path d="M949,1848 L2160,1851" stroke="blue" stroke-width="2" />
<path d="M1211,1427 L61,1325" stroke="blue" stroke-width="2" />
<path d="M1016,1387 L6790,1474" stroke="blue" stroke-width="2" />
<path d="M438,935 L1401,592" stroke="blue" stroke-width="2" />
<path d="M6611,618 L927,1156" stroke="blue" stroke-width="2" />
<path d="M5901,1307 L3853,570" stroke="blue" stroke-width="2" />
<path d="M6119,1216 L2829,2022" stroke="blue" stroke-width="2" />
<path d="M2555,725 L6522,1344" stroke="blue" stroke-width="2" />
<path d="M437,1359 L4892,255" stroke="blue" stroke-width="2" />
<path d="M2249,1631 L4468,1315" stroke="blue" stroke-width="2" />
<path d="M3888,1271 L679,1500" stroke="blue" stroke-width="2" />
<path d="M5983,256 L6914,1256" stroke="blue" stroke-width="2" />
<path d="M1860,994 L602,1040" stroke="blue" stroke-width="2" />
<path d="M3798,1077 L523,858" stroke="blue" stroke-width="2" />
<path d="M2040,679 L4672,1042" stroke="blue" stroke-width="2" />
<path d="M5917,662 L5469,1828" stroke="blue" stroke-width="2" />
<path d="M3272,236 L485,16" stroke="blue" stroke-width="2" />
<path d="M2241,1015 L6837,1274" stroke="blue" stroke-width="2" />
<path d="M5485,148 L410,1514" stroke="blue" stroke-width="2" />
<path d="M3345,1410 L5622,690" stroke="blue" stroke-width="2" />
<path d="M1745,1579 L6015,116" stroke="blue" stroke-width="2" />
<path d="M905,1141 L2006,614" stroke="blue" stroke-width="2" />
<path d="M1164,783 L6407,1968" stroke="blue" stroke-width="2" />
<path d="M5552,1803 L3952,1233" stroke="blue" stroke-width="2" />
<path d="M2228,1083 L4168,940" stroke="blue" stroke-width="2" />
<path d="M5606,1429 L364,274" stroke="blue" stroke-width="2" />
<path d="M841,1679 L3989,931" stroke="blue" stroke-width="2" />
<path d="M3882,766 L6818,243" stroke="blue" stroke-width="2" />
<path d="M1000,732 L1322,1317" stroke="blue" stroke-width="2" />
<path d="M4836,1224 L5293,626" stroke="blue" stroke-width="2" />
<path d="M2106,1420 L5165,911" stroke="blue" stroke-width="2" />
<path d="M6796,1570 L1462,1597" stroke="blue" stroke-width="2" />
<path d="M157,198 L4775,1070" stroke="blue" stroke-width="2" />
<path d="M697,1970 L6521,1275" stroke="blue" stroke-width="2" />
<path d="M3234,800 L1740,1941" stroke="blue" stroke-width="2" />
<path d="M5579,402 L3042,788" stroke="blue" stroke-width="2" />
<path d="M1881,107 L6326,235" stroke="blue" stroke-width="2" />
<path d="M997,1720 L1078,1930" stroke="blue" stroke-width="2" />
<path d="M6688,1913 L5503,914" stroke="blue" stroke-width="2" />
<path d="M5042,340 L6008,1970" stroke="blue" stroke-width="2" />
<path d="M1024,2024 L2941,580" stroke="blue" stroke-width="2" />
<path d="M3805,1987 L3663,507" stroke="blue" stroke-width="2" />
<path d="M3482,459 L2889,1818" stroke="blue" stroke-width="2" />
<path d="M3834,1222 L3545,1810" stroke="blue" stroke-width="2" />
<path d="M6166,1864 L455,111" stroke="blue" stroke-width="2" />
<path d="M6619,298 L503,1659" stroke="blue" stroke-width="2" />
<path d="M2761,1868 L4488,1233" stroke="blue" stroke-width="2" />
<path d="M6589,417 L2111,334" stroke="blue" stroke-width="2" />
<path d="M3484,615 L6245,16" stroke="blue" stroke-width="2" />
<path d="M2924,944 L1042,268" stroke="blue" stroke-width="2" />
<path d="M2735,1247 L1218,1527" stroke="blue" stroke-width="2" />
<path d="M6113,1454 L1490,787" stroke="blue" stroke-width="2" />
<path d="M1757,1545 L486,13" stroke="blue" stroke-width="2" />
<path d="M4476,2034 L3064,1043" stroke="blue" stroke-width="2" />
<path d="M5062,486 L153,790" stroke="blue" stroke-width="2" />
<path d="M665,593 L3742,1211" stroke="blue" stroke-width="2" />
<path d="M2096,1036 L6306,1026" stroke="blue" stroke-width="2" />
<path d="M560,1983 L2894,443" stroke="blue" stroke-width="2" />
<path d="M1262,935 L3428,685" stroke="blue" stroke-width="2" />
<path d="M5487,1350 L4183,388" stroke="blue" stroke-width="2" />
<path d="M3918,2023 L1980,578" stroke="blue" stroke-width="2" />
<path d="M1853,1101 L5822,852" stroke="blue" stroke-width="2" />
<path d="M530,1129 L4033,1126" stroke="blue" stroke-width="2" />
<path d="M4619,1370 L557,322" stroke="blue" stroke-width="2" />
<path d="M2031,95 L3698,1241" stroke="blue" stroke-width="2" />
<path d="M2507,1256 L5669,1684" stroke="blue" stroke-width="2" />
<path d="M2015,877 L6068,1186" stroke="blue" stroke-width="2" />
<path d="M2301,633 L2681,227" stroke="blue" stroke-width="2" />
<path d="M1301,124 L189,580" stroke="blue" stroke-width="2" />
<path d="M3793,983 L69,119" stroke="blue" stroke-width="2" />
<path d="M6404,1598 L4503,206" stroke="blue" stroke-width="2" />
<path d="M438,1224 L5955,1884" stroke="blue" stroke-width="2" />
<path d="M2134,1117 L2336,1742" stroke="blue" stroke-width="2" />
<path d="M4100,1027 L6402,1020" stroke="blue" stroke-width="2" />
<path d="M4902,1288 L6251,389" stroke="blue" stroke-width="2" />
<path d="M2210,1557 L1165,1548" stroke="blue" stroke-width="2" />
<path d="M6669,281 L1972,394" stroke="blue" stroke-width="2" />
<path d="M1454,32 L4732,1873" stroke="blue" stroke-width="2" />
<path d="M5075,964 L354,1267" stroke="blue" stroke-width="2" />
<path d="M1452,377 L6557,129" stroke="blue" stroke-width="2" />
<path d="M2443,1875 L6736,1082" stroke="blue" stroke-width="2" />
<path d="M3897,190 L2768,1375" stroke="blue" stroke-width="2" />
<path d="M677,1297 L4398,734" stroke="blue" stroke-width="2" />
<path d="M4168,575 L4691,1398" stroke="blue" stroke-width="2" />
<path d="M2574,1067 L3709,85" stroke="blue" stroke-width="2" />
<path d="M3807,1403 L6197,1256" stroke="blue" stroke-width="2" />
<path d="M3643,1055 L1532,318" stroke="blue" stroke-width="2" />
<path d="M2411,648 L6180,223" stroke="blue" stroke-width="2" />
<path d="M6659,1934 L4693,674" stroke="blue" stroke-width="2" />
<path d="M2709,262 L2340,357" stroke="blue" stroke-width="2" />
<path d="M6788,1422 L484,678" stroke="blue" stroke-width="2" />
<path d="M1484,117 L4105,118" stroke="blue" stroke-width="2" />
<path d="M60,296 L602,96" stroke="blue" stroke-width="2" />
<path d="M5400,434 L4955,1095" stroke="blue" stroke-width="2" />
<path d="M1086,1849 L2020,1552" stroke="blue" stroke-width="2" />
<path d="M732,1600 L1932,774" stroke="blue" stroke-width="2" />
<path d="M4682,584 L4211,367" stroke="blue" stroke-width="2" />
<path d="M5737,1406 L743,1862" stroke="blue" stroke-width="2" />
<path d="M2641,798 L3266,342" stroke="blue" stroke-width="2" />
<path d="M904,1475 L1379,190" stroke="blue" stroke-width="2" />
<path d="M3025,1891 L1115,462" stroke="blue" stroke-width="2" />
<path d="M5852,524 L6085,1865" stroke="blue" stroke-width="2" />
<path d="M6113,627 L322,1805" stroke="blue" stroke-width="2" />
<path d="M1994,792 L2133,1541" stroke="blue" stroke-width="2" />
<path d="M5952,137 L6884,884" stroke="blue" stroke-width="2" />
<path d="M5332,1994 L3437,1586" stroke="blue" stroke-width="2" />
<path d="M1545,2038 L2389,1583" stroke="blue" stroke-width="2" />
<path d="M4760,677 L3974,402" stroke="blue" stroke-width="2" />
<path d="M700,1058 L654,660" stroke="blue" stroke-width="2" />
<path d="M324,88 L2772,1149" stroke="blue" stroke-width="2" />
<path d="M5176,414 L1019,1016" stroke="blue" stroke-width="2" />
<path d="M2090,1915 L5677,639" stroke="blue" stroke-width="2" />
<path d="M971,558 L2518,40" stroke="blue" stroke-width="2" />
<path d="M6980,810 L4208,1568" stroke="blue" stroke-width="2" />
<path d="M2370,1581 L761,1235" stroke="blue" stroke-width="2" />
<path d="M2368,1965 L606,156" stroke="blue" stroke-width="2" />
<path d="M1255,1238 L5058,1974" stroke="blue" stroke-width="2" />
<path d="M455,835 L1021,1946" stroke="blue" stroke-width="2" />
<path d="M6547,1710 L3186,27" stroke="blue" stroke-width="2" />
<path d="M6665,1568 L511,1632" stroke="blue" stroke-width="2" />
<path d="M6232,295 L1904,125" stroke="blue" stroke-width="2" />
<path d="M766,1963 L4191,1180" stroke="blue" stroke-width="2" />
<path d="M1567,1874 L6028,286" stroke="blue" stroke-width="2" />
<path d="M1636,834 L1117,927" stroke="blue" stroke-width="2" />
<path d="M6820,235 L4764,140" stroke="blue" stroke-width="2" />
<path d="M1494,1109 L2586,771" stroke="blue" stroke-width="2" />
<path d="M3,648 L5868,1733" stroke="blue" stroke-width="2" />
<path d="M4078,64 L2925,262" stroke="blue" stroke-width="2" />
<path d="M1581,1237 L4307,13" stroke="blue" stroke-width="2" />
<path d="M6728,1156 L6019,1550" stroke="blue" stroke-width="2" />
<path d="M1710,1571 L3763,1278" stroke="blue" stroke-width="2" />
<path d="M3008,288 L5359,1238" stroke="blue" stroke-width="2" />
<path d="M691,1817 L177,1296" stroke="blue" stroke-width="2" />
<path d="M2445,9 L2377,640" stroke="blue" stroke-width="2" />
<path d="M5036,842 L1700,1109" stroke="blue" stroke-width="2" />
<path d="M5832,1651 L3419,1267" stroke="blue" stroke-width="2" />
<path d="M2180,29 L2338,1276" stroke="blue" stroke-width="2" />
<path d="M4712,1158 L6652,1742" stroke="blue" stroke-width="2" />
<path d="M4091,1632 L6801,58" stroke="blue" stroke-width="2" />
<path d="M6904,1202 L3530,1490" stroke="blue" stroke-width="2" />
<path d="M1344,145 L5122,1932" stroke="blue" stroke-width="2" />
<path d="M3765,727 L4523,242" stroke="blue" stroke-width="2" />
<path d="M3735,245 L6491,808" stroke="blue" stroke-width="2" />
<path d="M2857,124 L4892,607" stroke="blue" stroke-width="2" />
<path d="M613,1015 L6386,1982" stroke="blue" stroke-width="2" />
<path d="M2635,1547 L2952,1346" stroke="blue" stroke-width="2" />
<path d="M4981,733 L3848,1941" stroke="blue" stroke-width="2" />
<path d="M5309,954 L861,1904" stroke="blue" stroke-width="2" />
<path d="M5649,1878 L5196,151" stroke="blue" stroke-width="2" />
<path d="M166,724 L4545,142" stroke="blue" stroke-width="2" />
<path d="M2016,211 L1460,119" stroke="blue" stroke-width="2" />
<path d="M430,1980 L4169,1656" stroke="blue" stroke-width="2" />
<path d="M6990,1820 L1992,94" stroke="blue" stroke-width="2" />
<path d="M4730,1745 L4385,1232" stroke="blue" stroke-width="2" />
<path d="M5714,1954 L4970,1719" stroke="blue" stroke-width="2" />
<path d="M6092,423 L722,1317" stroke="blue" stroke-width="2" />
<path d="M2659,1208 L6379,1102" stroke="blue" stroke-width="2" />
<path d="M6629,643 L821,21" stroke="blue" stroke-width="2" />
<path d="M3492,91 L4540,1240" stroke="blue" stroke-width="2" />
<path d="M3353,790 L2902,1194" stroke="blue" stroke-width="2" />
<path d="M960,356 L6889,1251" stroke="blue" stroke-width="2" />
<path d="M1945,1096 L75,1395" stroke="blue" stroke-width="2" />
<path d="M2711,1027 L5575,2032" stroke="blue" stroke-width="2" />
<path d="M5327,1727 L894,685" stroke="blue" stroke-width="2" />
<path d="M4281,1505 L3807,1054" stroke="blue" stroke-width="2" />
<path d="M3210,1060 L2470,120" stroke="blue" stroke-width="2" />
<path d="M3311,44 L6663,365" stroke="blue" stroke-width="2" />
<path d="M5325,1686 L3427,1386" stroke="blue" stroke-width="2" />
<path d="M4783,1873 L5501,878" stroke="blue" stroke-width="2" />
<path d="M4903,1107 L4905,1936" stroke="blue" stroke-width="2" />
<path d="M4780,151 L1609,743" stroke="blue" stroke-width="2" />
<path d="M5595,895 L5644,180" stroke="blue" stroke-width="2" />
<path d="M6439,1797 L1215,1382" stroke="blue" stroke-width="2" />
<path d="M507,1930 L1410,999" stroke="blue" stroke-width="2" />
<path d="M4930,568 L3999,448" stroke="blue" stroke-width="2" />
<path d="M2409,1868 L4861,1079" stroke="blue" stroke-width="2" />
<path d="M6104,928 L4990,1544" stroke="blue" stroke-width="2" />
<path d="M1383,584 L2785,396" stroke="blue" stroke-width="2" />
<path d="M949,685 L1149,423" stroke="blue" stroke-width="2" />
<path d="M3764,143 L3316,823" stroke="blue" stroke-width="2" />
<path d="M1214,5 L6160,1504" stroke="blue" stroke-width="2" />
<path d="M2119,708 L6044,1386" stroke="blue" stroke-width="2" />
<path d="M1487,1691 L2945,1804" stroke="blue" stroke-width="2" />
<path d="M4897,1918 L4401,324" stroke="blue" stroke-width="2" />
<path d="M5047,214 L3528,1276" stroke="blue" stroke-width="2" />
<path d="M3238,955 L1656,1886" stroke="blue" stroke-width="2" />
<path d="M3663,1847 L2689,1495" stroke="blue" stroke-width="2" />
<path d="M3590,684 L2045,2009" stroke="blue" stroke-width="2" />
<path d="M52,1501 L6309,1899" stroke="blue" stroke-width="2" />
<path d="M1133,1914 L5866,1123" stroke="blue" stroke-width="2" />
<path d="M6662,933 L1798,201" stroke="blue" stroke-width="2" />
<path d="M5831,491 L768,599" stroke="blue" stroke-width="2" />
<path d="M1616,1488 L194,1952" stroke="blue" stroke-width="2" />
<path d="M4378,1871 L782,1474" stroke="blue" stroke-width="2" />
<path d="M6923,934 L5998,1436" stroke="blue" stroke-width="2" />
<path d="M419,1820 L395,463" stroke="blue" stroke-width="2" />
<path d="M298,1286 L3056,186" stroke="blue" stroke-width="2" />
<path d="M6833,608 L2595,1093" stroke="blue" stroke-width="2" />
<path d="M1994,1416 L2714,176" stroke="blue" stroke-width="2" />
<path d="M4403,391 L5326,1124" stroke="blue" stroke-width="2" />
<path d="M3846,1385 L5531,1215" stroke="blue" stroke-width="2" />
<path d="M685,1925 L625,549" stroke="blue" stroke-width="2" />
<path d="M1468,1030 L5884,1036" stroke="blue" stroke-width="2" />
<path d="M4219,766 L551,1241" stroke="blue" stroke-width="2" />
<path d="M2897,541 L1611,1751" stroke="blue" stroke-width="2" />
<path d="M4336,1048 L5620,1865" stroke="blue" stroke-width="2" />
<path d="M6312,1694 L2878,1145" stroke="blue" stroke-width="2" />
<path d="M975,87 L3355,1868" stroke="blue" stroke-width="2" />
<path d="M6802,897 L2013,685" stroke="blue" stroke-width="2" />
<path d="M4146,356 L207,524" stroke="blue" stroke-width="2" />
<path d="M4168,1954 L6223,1528" stroke="blue" stroke-width="2" />
<path d="M4080,143 L1344,1842" stroke="blue" stroke-width="2" />
<path d="M1062,2018 L5107,43" stroke="blue" stroke-width="2" />
<path d="M834,1802 L4553,1642" stroke="blue" stroke-width="2" />
<path d="M4210,643 L4430,1092" stroke="blue" stroke-width="2" />
<path d="M1837,1917 L2735,1893" stroke="blue" stroke-width="2" />
<path d="M5096,591 L2014,1402" stroke="blue" stroke-width="2" />
<path d="M1052,1477 L3220,1647" stroke="blue" stroke-width="2" />
<path d="M147,1526 L3801,1434" stroke="blue" stroke-width="2" />
<path d="M1451,234 L2911,1978" stroke="blue" stroke-width="2" />
<path d="M5505,1272 L2228,1569" stroke="blue" stroke-width="2" />
<path d="M5584,1541 L5867,387" stroke="blue" stroke-width="2" />
<path d="M4533,1679 L3207,578" stroke="blue" stroke-width="2" />
<path d="M4540,717 L4757,1409" stroke="blue" stroke-width="2" />
<path d="M361,891 L376,1047" stroke="blue" stroke-width="2" />
<path d="M4207,1088 L5846,914" stroke="blue" stroke-width="2" />
<path d="M5720,1412 L1182,940" stroke="blue" stroke-width="2" />
<path d="M4830,53 L2782,1156" stroke="blue" stroke-width="2" />
<path d="M4333,1550 L2293,996" stroke="blue" stroke-width="2" />
<path d="M1596,64 L1263,127" stroke="blue" stroke-width="2" />
<path d="M5187,677 L6422,74" stroke="blue" stroke-width="2" />
<path d="M6753,715 L4183,120" stroke="blue" stroke-width="2" />
<path d="M4007,1902 L6750,911" stroke="blue" stroke-width="2" />
<path d="M3510,1495 L3215,135" stroke="blue" stroke-width="2" />
<path d="M1011,989 L5831,758" stroke="blue" stroke-width="2" />
<path d="M3709,1133 L4334,1522" stroke="blue" stroke-width="2" />
<path d="M3485,771 L3418,1992" stroke="blue" stroke-width="2" />
<path d="M2811,220 L1649,1000" stroke="blue" stroke-width="2" />
<path d="M6852,807 L864,461" stroke="blue" stroke-width="2" />
<path d="M6184,873 L3820,195" stroke="blue" stroke-width="2" />
<path d="M6624,574 L6370,1001" stroke="blue" stroke-width="2" />
<path d="M4093,1250 L3936,1540" stroke="blue" stroke-width="2" />
<path d="M6773,1284 L6792,1315" stroke="blue" stroke-width="2" />
<path d="M2708,712 L6286,124" stroke="blue" stroke-width="2" />
<path d="M84,1702 L3840,726" stroke="blue" stroke-width="2" />
<path d="M6980,1894 L332,325" stroke="blue" stroke-width="2" />
<path d="M3951,993 L352,132" stroke="blue" stroke-width="2" />
<path d="M5481,1172 L5338,22" stroke="blue" stroke-width="2" />
<path d="M4803,1966 L1745,1755" stroke="blue" stroke-width="2" />
<path d="M4000,984 L1668,475" stroke="blue" stroke-width="2" />
<path d="M6491,605 L1546,525" stroke="blue" stroke-width="2" />
<path d="M100,1299 L4466,1044" stroke="blue" stroke-width="2" />
<path d="M6247,690 L1340,2037" stroke="blue" stroke-width="2" />
<path d="M4093,74 L3880,1996" stroke="blue" stroke-width="2" />
<path d="M5224,1767 L2765,620" stroke="blue" stroke-width="2" />
<path d="M4129,1415 L1040,999" stroke="blue" stroke-width="2" />
<path d="M5504,592 L886,578" stroke="blue" stroke-width="2" />
<path d="M104,1848 L1697,1919" stroke="blue" stroke-width="2" />
<path d="M6857,1545 L5316,1703" stroke="blue" stroke-width="2" />
<path d="M299,967 L1821,325" stroke="blue" stroke-width="2" />
<path d="M6016,1809 L3010,30" stroke="blue" stroke-width="2" />
<path d="M3132,359 L6076,458" stroke="blue" stroke-width="2" />
<path d="M5441,1695 L3746,1857" stroke="blue" stroke-width="2" />
<path d="M3237,691 L2648,753" stroke="blue" stroke-width="2" />
<path d="M381,1189 L299,97" stroke="blue" stroke-width="2" />
<path d="M5503,1291 L5014,492" stroke="blue" stroke-width="2" />
<path d="M6694,218 L5375,286" stroke="blue" stroke-width="2" />
<path d="M4986,603 L2054,193" stroke="blue" stroke-width="2" />
<path d="M3932,539 L3301,800" stroke="blue" stroke-width="2" />
<path d="M5368,325 L324,1068" stroke="blue" stroke-width="2" />
<path d="M1786,1550 L2870,865" stroke="blue" stroke-width="2" />
<path d="M3286,712 L4269,1130" stroke="blue" stroke-width="2" />
<path d="M1867,351 L5759,870" stroke="blue" stroke-width="2" />
<path d="M6809,737 L1029,4" stroke="blue" stroke-width="2" />
<path d="M4689,1709 L354,1630" stroke="blue" stroke-width="2" />
<path d="M1693,1125 L3220,1209" stroke="blue" stroke-width="2" />
<path d="M4804,1842 L6514,895" stroke="blue" stroke-width="2" />
<path d="M6266,461 L2228,409" stroke="blue" stroke-width="2" />
<path d="M869,890 L5755,1070" stroke="blue" stroke-width="2" />
<path d="M6530,1190 L6318,892" stroke="blue" stroke-width="2" />
<path d="M2511,1053 L1229,756" stroke="blue" stroke-width="2" />
<path d="M4949,1975 L1366,981" stroke="blue" stroke-width="2" />
<path d="M6817,1945 L5474,850" stroke="blue" stroke-width="2" />
<path d="M601,1269 L2610,1945" stroke="blue" stroke-width="2" />
<path d="M2788,201 L589,767" stroke="blue" stroke-width="2" />
<path d="M6735,1215 L1633,1080" stroke="blue" stroke-width="2" />
<path d="M6184,507 L2020,929" stroke="blue" stroke-width="2" />
<path d="M4284,868 L285,109" stroke="blue" stroke-width="2" />
<path d="M5458,1140 L5407,1878" stroke="blue" stroke-width="2" />
<path d="M2607,1066 L5290,1697" stroke="blue" stroke-width="2" />
<path d="M2600,444 L1512,861" stroke="blue" stroke-width="2" />
<path d="M2746,331 L5364,1991" stroke="blue" stroke-width="2" />
<path d="M3029,528 L1623,1362" stroke="blue" stroke-width="2" />
<path d="M4830,185 L1680,1846" stroke="blue" stroke-width="2" />
<path d="M4319,2035 L2082,1871" stroke="blue" stroke-width="2" />
<path d="M5560,1709 L3309,515" stroke="blue" stroke-width="2" />
<path d="M6030,707 L4865,607" stroke="blue" stroke-width="2" />
<path d="M1330,1475 L1809,765" stroke="blue" stroke-width="2" />
<path d="M1382,1671 L3809,508" stroke="blue" stroke-width="2" />
<path d="M2235,1869 L2114,215" stroke="blue" stroke-width="2" />
<path d="M4359,856 L5948,372" stroke="blue" stroke-width="2" />
<path d="M1175,159 L2268,1437" stroke="blue" stroke-width="2" />
<path d="M2808,663 L6475,1832" stroke="blue" stroke-width="2" />
<path d="M5983,1873 L2899,1702" stroke="blue" stroke-width="2" />
<path d="M5771,1706 L3636,801" stroke="blue" stroke-width="2" />
<path d="M4334,1305 L6683,1860" stroke="blue" stroke-width="2" />
<path d="M2544,590 L6298,433" stroke="blue" stroke-width="2" />
<path d="M3393,807 L5,40" stroke="blue" stroke-width="2" />
<path d="M1991,147 L3602,1968" stroke="blue" stroke-width="2" />
<path d="M6609,1098 L4021,137" stroke="blue" stroke-width="2" />
<path d="M4986,1955 L5365,1938" stroke="blue" stroke-width="2" />
<path d="M6555,1529 L5195,1043" stroke="blue" stroke-width="2" />
<path d="M6880,1888 L5814,362" stroke="blue" stroke-width="2" />
<path d="M4648,1466 L4363,554" stroke="blue" stroke-width="2" />
<path d="M3197,1242 L4400,362" stroke="blue" stroke-width="2" />
<path d="M709,1756 L3792,74" stroke="blue" stroke-width="2" />
<path d="M6337,1667 L1444,1238" stroke="blue" stroke-width="2" />
<path d="M2034,1681 L4861,1897" stroke="blue" stroke-width="2" />
<path d="M3016,604 L2459,1786" stroke="blue" stroke-width="2" />
<path d="M6224,318 L4340,474" stroke="blue" stroke-width="2" />
<path d="M1110,2032 L1381,2020" stroke="blue" stroke-width="2" />
<path d="M5229,153 L112,324" stroke="blue" stroke-width="2" />
<path d="M1026,1944 L2266,956" stroke="blue" stroke-width="2" />
<path d="M6986,1747 L1994,435" stroke="blue" stroke-width="2" />
<path d="M6290,904 L3872,1861" stroke="blue" stroke-width="2" />
<path d="M6049,245 L3109,264" stroke="blue" stroke-width="2" />
<path d="M101,985 L4982,1328" stroke="blue" stroke-width="2" />
<path d="M1067,568 L4916,1245" stroke="blue" stroke-width="2" />
<path d="M3207,1852 L2385,668" stroke="blue" stroke-width="2" />
<path d="M1182,333 L1871,1313" stroke="blue" stroke-width="2" />
<path d="M1159,12 L524,1704" stroke="blue" stroke-width="2" />
<path d="M2067,1802 L5116,1627" stroke="blue" stroke-width="2" />
<path d="M2031,232 L1316,461" stroke="blue" stroke-width="2" />
<path d="M5236,2004 L3817,788" stroke="blue" stroke-width="2" />
<path d="M2594,586 L723,546" stroke="blue" stroke-width="2" />
<path d="M836,383 L1930,87" stroke="blue" stroke-width="2" />
<path d="M2334,1366 L509,1773" stroke="blue" stroke-width="2" />
<path d="M999,104 L751,63" stroke="blue" stroke-width="2" />
<path d="M4129,1532 L5797,615" stroke="blue" stroke-width="2" />
<path d="M3968,1953 L5895,572" stroke="blue" stroke-width="2" />
<path d="M2295,1129 L3099,209" stroke="blue" stroke-width="2" />
<path d="M1892,474 L3365,782" stroke="blue" stroke-width="2" />
<path d="M3965,90 L674,124" stroke="blue" stroke-width="2" />
<path d="M3271,252 L579,1408" stroke="blue" stroke-width="2" />
<path d="M5046,537 L1160,514" stroke="blue" stroke-width="2" />
<path d="M0,0 L7011,0" stroke="red" stroke-width="10" />
<path d="M7011,0 L7011,2046" stroke="red" stroke-width="10" />
<path d="M0,2046 L7011,2046" stroke="red" stroke-width="10" />
<path d="M0,2046 L0,0" stroke="red" stroke-width="10" />
</svg>