<?xml version="1.0" encoding="UTF-8"?>
<svg xmlns="http://www.w3.org/2000/svg" xmlns:xlink="http://www.w3.org/1999/xlink"
     width="10000" height="10000" viewBox="0 0 10000 10000">
<defs>
</defs>
<path d="M3969,2102 L5327,460" stroke="blue" stroke-width="2" />
<path d="M6283,4416 L3891,5786" stroke="blue" stroke-width="2" />
<path d="M6158,5115 L4368,184" stroke="blue" stroke-width="2" />
<path d="M5867,3229 L7157,5822" stroke="blue" stroke-width="2" />
<path d="M3215,3993 L4632,3233" stroke="blue" stroke-width="2" />
<path d="M2535,5327 L4911,6027" stroke="blue" stroke-width="2" />
<path d="M3683,2234 L3475,3571" stroke="blue" stroke-width="2" />
<path d="M2929,6331 L3683,57" stroke="blue" stroke-width="2" />
<path d="M5089,3493 L5513,2510" stroke="blue" stroke-width="2" />
<path d="M4260,2371 L4892,4544" stroke="blue" stroke-width="2" />
<path d="M4767,247 L4239,4459" stroke="blue" stroke-width="2" />
<path d="M1937,3930 L4967,5861" stroke="blue" stroke-width="2" />
<path d="M3681,4650 L3404,6475" stroke="blue" stroke-width="2" />
<path d="M6609,1811 L4402,2577" stroke="blue" stroke-width="2" />
<path d="M1789,1142 L5496,99" stroke="blue" stroke-width="2" />
<path d="M3233,2543 L1786,480" stroke="blue" stroke-width="2" />
<path d="M608,1894 L4942,3919" stroke="blue" stroke-width="2" />
<path d="M3279,1106 L4976,3591" stroke="blue" stroke-width="2" />
<path d="M3633,3607 L7106,6207" stroke="blue" stroke-width="2" />
<path d="M2305,4136 L2704,4466" stroke="blue" stroke-width="2" />
<path d="M5663,2907 L6248,6284" stroke="blue" stroke-width="2" />
<path d="M7111,3589 L4506,2659" stroke="blue" stroke-width="2" />
<path d="M2371,1882 L14,2821" stroke="blue" stroke-width="2" />
<path d="M6457,5312 L2553,3138" stroke="blue" stroke-width="2" />
<path d="M3124,4663 L5601,3014" stroke="blue" stroke-width="2" />
<path d="M529,2276 L6068,5021" stroke="blue" stroke-width="2" />
<path d="M6757,6457 L3943,3051" stroke="blue" stroke-width="2" />
<path d="M955,2319 L4512,5490" stroke="blue" stroke-width="2" />
<path d="M459,2653 L2180,2671" stroke="blue" stroke-width="2" />
<path d="M5070,909 L1029,1553" stroke="blue" stroke-width="2" />
<path d="M132,1887 L412,4644" stroke="blue" stroke-width="2" />
<path d="M2302,172 L4837,518" stroke="blue" stroke-width="2" />
<path d="M5840,2451 L1204,3857" stroke="blue" stroke-width="2" />
<path d="M5973,6438 L2022,6025" stroke="blue" stroke-width="2" />
<path d="M754,211 L2063,173" stroke="blue" stroke-width="2" />
<path d="M5766,4529 L5498,5006" stroke="blue" stroke-width="2" />
<path d="M2188,3038 L2327,5254" stroke="blue" stroke-width="2" />
<path d="M11,5240 L5115,3830" stroke="blue" stroke-width="2" />
<path d="M5924,849 L1357,5192" stroke="blue" stroke-width="2" />
<path d="M876,2573 L3293,4155" stroke="blue" stroke-width="2" />
<path d="M4796,3412 L3150,3279" stroke="blue" stroke-width="2" />
<path d="M2710,5240 L546,3361" stroke="blue" stroke-width="2" />
<path d="M4729,3302 L1322,3607" stroke="blue" stroke-width="2" />
<path d="M3592,32 L4179,5031" stroke="blue" stroke-width="2" />
<path d="M5535,6114 L960,281" stroke="blue" stroke-width="2" />
<path d="M6324,4720 L3860,4154" stroke="blue" stroke-width="2" />
<path d="M3035,3526 L6401,4140" stroke="blue" stroke-width="2" />
<path d="M4438,4582 L4107,975" stroke="blue" stroke-width="2" />
<path d="M5853,2602 L3360,2220" stroke="blue" stroke-width="2" />
<path d="M3712,5736 L2559,5229" stroke="blue" stroke-width="2" />
<path d="M2525,6470 L2618,4934" stroke="blue" stroke-width="2" />
<path d="M7038,5424 L4587,3006" stroke="blue" stroke-width="2" />
<path d="M5062,137 L1605,4500" stroke="blue" stroke-width="2" />
<path d="M4311,2426 L7164,1850" stroke="blue" stroke-width="2" />
<path d="M4559,1750 L60,2498" stroke="blue" stroke-width="2" />
<path d="M3068,5262 L3483,2078" stroke="blue" stroke-width="2" />
<path d="M5373,969 L482,2292" stroke="blue" stroke-width="2" />
<path d="M5891,6063 L3098,5169" stroke="blue" stroke-width="2" />
<path d="M3900,2951 L3055,1806" stroke="blue" stroke-width="2" />
<path d="M4286,2569 L4370,3507" stroke="blue" stroke-width="2" />
<path d="M7000,6386 L5530,1327" stroke="blue" stroke-width="2" />
<path d="M5894,4590 L4564,6088" stroke="blue" stroke-width="2" />
<path d="M2416,3533 L4607,5994" stroke="blue" stroke-width="2" />
<path d="M5040,5369 L4268,3475" stroke="blue" stroke-width="2" />
<path d="M960,6039 L531,6258" stroke="blue" stroke-width="2" />
<path d="M2875,735 L726,2060" stroke="blue" stroke-width="2" />
<path d="M4606,960 L1420,1120" stroke="blue" stroke-width="2" />
<path d="M3177,981 L3600,4331" stroke="blue" stroke-width="2" />
<path d="M5902,1851 L5671,4918" stroke="blue" stroke-width="2" />
<path d="M6507,5725 L5959,68" stroke="blue" stroke-width="2" />
<path d="M3611,1915 L1392,1480" stroke="blue" stroke-width="2" />
<path d="M1672,1703 L7073,2976" stroke="blue" stroke-width="2" />
<path d="M1817,306 L2960,754" stroke="blue" stroke-width="2" />
<path d="M3103,2273 L306,849" stroke="blue" stroke-width="2" />
<path d="M526,223 L1425,4614" stroke="blue" stroke-width="2" />
<path d="M359,3679 L2256,3623" stroke="blue" stroke-width="2" />
<path d="M1369,3245 L1098,4609" stroke="blue" stroke-width="2" />
<path d="M4910,837 L3410,5909" stroke="blue" stroke-width="2" />
<path d="M3525,5247 L5796,4895" stroke="blue" stroke-width="2" />
<path d="M1908,419 L5478,5853" stroke="blue" stroke-width="2" />
<path d="M6594,48 L5612,2512" stroke="blue" stroke-width="2" />
<path d="M3366,654 L1163,5734" stroke="blue" stroke-width="2" />
<path d="M5872,4093 L6394,3566" stroke="blue" stroke-width="2" />
<path d="M6711,5287 L4412,2496" stroke="blue" stroke-width="2" />
<path d="M4817,2667 L3343,1702" stroke="blue" stroke-width="2" />
<path d="M5930,3372 L5644,6408" stroke="blue" stroke-width="2" />
<path d="M2421,2915 L4602,735" stroke="blue" stroke-width="2" />
<path d="M1268,4677 L4554,3907" stroke="blue" stroke-width="2" />
<path d="M5806,5808 L2635,3414" stroke="blue" stroke-width="2" />
<path d="M2767,1491 L2657,606" stroke="blue" stroke-width="2" />
<path d="M4773,621 L6341,4343" stroke="blue" stroke-width="2" />
<path d="M4987,3467 L966,1127" stroke="blue" stroke-width="2" />
<path d="M3626,6202 L2225,1218" stroke="blue" stroke-width="2" />
<path d="M2459,5536 L242,6315" stroke="blue" stroke-width="2" />
<path d="M2924,4009 L2168,4922" stroke="blue" stroke-width="2" />
<path d="M5928,2631 L5815,6059" stroke="blue" stroke-width="2" />
<path d="M5934,5200 L5623,3675" stroke="blue" stroke-width="2" />
<path d="M5047,1529 L952,3301" stroke="blue" stroke-width="2" />
<path d="M4798,1429 L3925,3323" stroke="blue" stroke-width="2" />
<path d="M1122,3225 L5977,2245" stroke="blue" stroke-width="2" />
<path d="M1015,4280 L1674,2699" stroke="blue" stroke-width="2" />
<path d="M4350,2164 L5570,4809" stroke="blue" stroke-width="2" />
<path d="M5210,4594 L6621,1114" stroke="blue" stroke-width="2" />
<path d="M6654,4944 L4297,4820" stroke="blue" stroke-width="2" />
<path d="M2878,5887 L5576,3676" stroke="blue" stroke-width="2" />
<path d="M4778,1780 L4286,4989" stroke="blue" stroke-width="2" />
<path d="M2371,4081 L1901,5524" stroke="blue" stroke-width="2" />
<path d="M375,2519 L491,4527" stroke="blue" stroke-width="2" />
<path d="M5536,1108 L3797,780" stroke="blue" stroke-width="2" />
<path d="M646,869 L2073,5918" stroke="blue" stroke-width="2" />
<path d="M1605,3056 L4331,876" stroke="blue" stroke-width="2" />
<path d="M3048,5165 L675,5006" stroke="blue" stroke-width="2" />
<path d="M469,489 L2074,1929" stroke="blue" stroke-width="2" />
<path d="M4222,2303 L4108,5854" stroke="blue" stroke-width="2" />
<path d="M3217,1681 L4780,538" stroke="blue" stroke-width="2" />
<path d="M2810,79 L3372,887" stroke="blue" stroke-width="2" />
<path d="M4195,2959 L2461,3189" stroke="blue" stroke-width="2" />
<path d="M5426,2887 L4638,493" stroke="blue" stroke-width="2" />
<path d="M4089,4753 L3474,2849" stroke="blue" stroke-width="2" />
<path d="M3399,3351 L3904,3971" stroke="blue" stroke-width="2" />
<path d="M2605,3691 L5931,4783" stroke="blue" stroke-width="2" />
<path d="M6702,2679 L5614,19" stroke="blue" stroke-width="2" />
<path d="M2692,1322 L5745,5778" stroke="blue" stroke-width="2" />
<path d="M3765,88 L1897,5165" stroke="blue" stroke-width="2" />
<path d="M1227,62 L1862,3598" stroke="blue" stroke-width="2" />
<path d="M5820,4605 L4099,964" stroke="blue" stroke-width="2" />
<path d="M5615,5028 L3351,854" stroke="blue" stroke-width="2" />
<path d="M1716,6317 L5833,4331" stroke="blue" stroke-width="2" />
<path d="M1802,692 L1580,4886" stroke="blue" stroke-width="2" />
<path d="M353,4661 L3268,647" stroke="blue" stroke-width="2" />
<path d="M5554,6036 L207,5511" stroke="blue" stroke-width="2" />
<path d="M757,693 L3345,2904" stroke="blue" stroke-width="2" />
<path d="M6948,2242 L1927,1652" stroke="blue" stroke-width="2" />
<path d="M6457,1687 L5785,5023" stroke="blue" stroke-width="2" />
<path d="M3020,5139 L573,119" stroke="blue" stroke-width="2" />
<path d="M6441,6121 L1944,6468" stroke="blue" stroke-width="2" />
<path d="M38,3029 L4180,551" stroke="blue" stroke-width="2" />
<path d="M3619,3586 L5794,2006" stroke="blue" stroke-width="2" />
<path d="M5239,672 L4088,5483" stroke="blue" stroke-width="2" />
<path d="M4028,2165 L2764,6130" stroke="blue" stroke-width="2" />
<path d="M2912,6170 L1058,3357" stroke="blue" stroke-width="2" />
<path d="M4661,4780 L6101,1847" stroke="blue" stroke-width="2" />
<path d="M1564,6056 L2548,3036" stroke="blue" stroke-width="2" />
<path d="M6803,687 L3635,21" stroke="blue" stroke-width="2" />
<path d="M3806,679 L806,5238" stroke="blue" stroke-width="2" />
<path d="M1197,4319 L724,2724" stroke="blue" stroke-width="2" />
<path d="M4518,6323 L2407,4829" stroke="blue" stroke-width="2" />
<path d="M2531,5199 L3450,2331" stroke="blue" stroke-width="2" />
<path d="M5419,60 L6327,4115" stroke="blue" stroke-width="2" />
<path d="M2344,1778 L2752,2719" stroke="blue" stroke-width="2" />
<path d="M3724,5206 L5503,3655" stroke="blue" stroke-width="2" />
<path d="M3051,649 L4470,2184" stroke="blue" stroke-width="2" />
<path d="M6878,4652 L6464,4452" stroke="blue" stroke-width="2" />
<path d="M4104,6371 L6647,1937" stroke="blue" stroke-width="2" />
<path d="M4931,1064 L4847,1590" stroke="blue" stroke-width="2" />
<path d="M3126,4418 L2089,3041" stroke="blue" stroke-width="2" />
<path d="M999,3292 L2224,3244" stroke="blue" stroke-width="2" />
<path d="M2369,4769 L3713,33" stroke="blue" stroke-width="2" />
<path d="M2672,1042 L2533,4370" stroke="blue" stroke-width="2" />
<path d="M378,3873 L6571,4923" stroke="blue" stroke-width="2" />
<path d="M5530,1672 L4680,5980" stroke="blue" stroke-width="2" />
<path d="M1317,2152 L5465,969" stroke="blue" stroke-width="2" />
<path d="M713,6105 L931,4790" stroke="blue" stroke-width="2" />
<path d="M5969,4986 L6186,3554" stroke="blue" stroke-width="2" />
<path d="M2602,2712 L1102,2074" stroke="blue" stroke-width="2" />
<path d="M54,945 L4853,279" stroke="blue" stroke-width="2" />
<path d="M5665,4058 L3460,5627" stroke="blue" stroke-width="2" />
<path d="M5774,5631 L6422,667" stroke="blue" stroke-width="2" />
<path d="M1348,5705 L1417,5158" stroke="blue" stroke-width="2" />
<path d="M6464,3555 L4631,1578" stroke="blue" stroke-width="2" />
<path d="M5467,5362 L2847,2158" stroke="blue" stroke-width="2" />
<path d="M5655,1635 L117,5582" stroke="blue" stroke-width="2" />
<path d="M2109,6075 L5776,1385" stroke="blue" stroke-width="2" />
<path d="M1256,3123 L3629,354" stroke="blue" stroke-width="2" />
<path d="M6809,380 L1517,1763" stroke="blue" stroke-width="2" />
<path d="M6791,2936 L1179,3142" stroke="blue" stroke-width="2" />
<path d="M4735,2740 L2336,3037" stroke="blue" stroke-width="2" />
<path d="M4411,4052 L2415,4036" stroke="blue" stroke-width="2" />
<path d="M5398,2253 L5783,3682" stroke="blue" stroke-width="2" />
<path d="M552,1726 L1658,214" stroke="blue" stroke-width="2" />
<path d="M5386,2556 L216,6097" stroke="blue" stroke-width="2" />
<path d="M5584,5952 L465,406" stroke="blue" stroke-width="2" />
<path d="M6980,3741 L3303,1512" stroke="blue" stroke-width="2" />
<path d="M6517,5066 L707,6022" stroke="blue" stroke-width="2" />
<path d="M6924,646 L2882,4722" stroke="blue" stroke-width="2" />
<path d="M4025,3845 L2479,3522" stroke="blue" stroke-width="2" />
<path d="M3239,2809 L4842,6443" stroke="blue" stroke-width="2" />
<path d="M2198,2396 L5538,4394" stroke="blue" stroke-width="2" />
<path d="M5965,2836 L3189,3467" stroke="blue" stroke-width="2" />
<path d="M6369,5459 L6328,5851" stroke="blue" stroke-width="2" />
<path d="M3424,3146 L4029,1698" stroke="blue" stroke-width="2" />
<path d="M6142,5547 L1931,1201" stroke="blue" stroke-width="2" />
<path d="M1952,5649 L2939,2857" stroke="blue" stroke-width="2" />
<path d="M4997,1833 L472,2252" stroke="blue" stroke-width="2" />
<path d="M5969,5804 L4809,3508" stroke="blue" stroke-width="2" />
<path d="M3420,2793 L4497,825" stroke="blue" stroke-width="2" />
<path d="M4829,2850 L5896,4977" stroke="blue" stroke-width="2" />
<path d="M2338,2381 L4769,4413" stroke="blue" stroke-width="2" />
<path d="M6075,70 L1426,2559" stroke="blue" stroke-width="2" />
<path d="M1011,3381 L2435,1825" stroke="blue" stroke-width="2" />
<path d="M1873,4878 L1650,1154" stroke="blue" stroke-width="2" />
<path d="M6065,3541 L1047,2150" stroke="blue" stroke-width="2" />
<path d="M2475,4347 L2330,1334" stroke="blue" stroke-width="2" />
<path d="M5881,4414 L2019,88" stroke="blue" stroke-width="2" />
<path d="M1284,5075 L4985,5649" stroke="blue" stroke-width="2" />
<path d="M5068,887 L634,1320" stroke="blue" stroke-width="2" />
<path d="M11,177 L44,500" stroke="blue" stroke-width="2" />
<path d="M5453,185 L4610,4518" stroke="blue" stroke-width="2" />
<path d="M3143,3794 L1020,5378" stroke="blue" stroke-width="2" />
<path d="M5266,2290 L4964,5868" stroke="blue" stroke-width="2" />
<path d="M4596,597 L1024,1925" stroke="blue" stroke-width="2" />
<path d="M1580,4486 L163,6468" stroke="blue" stroke-width="2" />
<path d="M1162,3399 L2159,1038" stroke="blue" stroke-width="2" />
<path d="M3940,486 L1664,6238" stroke="blue" stroke-width="2" />
<path d="M2450,5156 L366,1864" stroke="blue" stroke-width="2" />
<path d="M4365,2553 L6982,5817" stroke="blue" stroke-width="2" />
<path d="M1586,5537 L274,967" stroke="blue" stroke-width="2" />
<path d="M6384,6070 L5809,3813" stroke="blue" stroke-width="2" />
<path d="M100,5502 L3222,4281" stroke="blue" stroke-width="2" />
<path d="M5774,1201 L1887,2085" stroke="blue" stroke-width="2" />
<path d="M61,5427 L671,4854" stroke="blue" stroke-width="2" />
<path d="M5768,5511 L1550,3657" stroke="blue" stroke-width="2" />
<path d="M1211,3633 L5312,2441" stroke="blue" stroke-width="2" />
<path d="M4574,3662 L6961,4384" stroke="blue" stroke-width="2" />
<path d="M1602,5168 L4049,40" stroke="blue" stroke-width="2" />
<path d="M1179,5142 L1821,1188" stroke="blue" stroke-width="2" />
<path d="M4322,5318 L3924,6297" stroke="blue" stroke-width="2" />
<path d="M135,2842 L3942,2702" stroke="blue" stroke-width="2" />
<path d="M443,11 L4679,4998" stroke="blue" stroke-width="2" />
<path d="M6201,387 L1232,4697" stroke="blue" stroke-width="2" />
<path d="M488,1521 L6169,2696" stroke="blue" stroke-width="2" />
<path d="M154,3007 L6109,5643" stroke="blue" stroke-width="2" />
<path d="M2926,955 L1812,309" stroke="blue" stroke-width="2" />
<path d="M6330,3714 L5765,4459" stroke="blue" stroke-width="2" />
<path d="M4483,3367 L2660,2053" stroke="blue" stroke-width="2" />
<path d="M5356,5182 L2768,5746" stroke="blue" stroke-width="2" />
<path d="M6100,2537 L7056,3991" stroke="blue" stroke-width="2" />
<path d="M5482,676 L1269,2377" stroke="blue" stroke-width="2" />
<path d="M716,1397 L6583,1454" stroke="blue" stroke-width="2" />
<path d="M1948,2227 L4171,1655" stroke="blue" stroke-width="2" />
<path d="M6166,6395 L2711,5869" stroke="blue" stroke-width="2" />
<path d="M5175,5437 L5522,1096" stroke="blue" stroke-width="2" />
<path d="M2928,6367 L5297,4696" stroke="blue" stroke-width="2" />
<path d="M427,4562 L2177,4888" stroke="blue" stroke-width="2" />
<path d="M5754,3156 L5455,5421" stroke="blue" stroke-width="2" />
<path d="M5406,1708 L7116,5425" stroke="blue" stroke-width="2" />
<path d="M1465,6257 L5137,3073" stroke="blue" stroke-width="2" />
<path d="M6506,2826 L5988,344" stroke="blue" stroke-width="2" />
<path d="M4646,4069 L3472,5140" stroke="blue" stroke-width="2" />
<path d="M4978,1543 L1984,4633" stroke="blue" stroke-width="2" />
<path d="M3771,252 L4955,97" stroke="blue" stroke-width="2" />
<path d="M2827,5702 L913,2301" stroke="blue" stroke-width="2" />
<path d="M5207,1757 L805,3234" stroke="blue" stroke-width="2" />
<path d="M1240,1743 L6081,5846" stroke="blue" stroke-width="2" />
<path d="M4225,368 L130,4147" stroke="blue" stroke-width="2" />
<path d="M4471,3699 L4163,5008" stroke="blue" stroke-width="2" />
<path d="M3090,1160 L7098,981" stroke="blue" stroke-width="2" />
<path d="M3199,5920 L6105,5067" stroke="blue" stroke-width="2" />
<path d="M2032,1950 L647,3037" stroke="blue" stroke-width="2" />
<path d="M1305,4635 L2625,3883" stroke="blue" stroke-width="2" />
<path d="M1569,5684 L3662,1499" stroke="blue" stroke-width="2" />
<path d="M3338,5680 L2104,4221" stroke="blue" stroke-width="2" />
<path d="M183,1336 L1622,3104" stroke="blue" stroke-width="2" />
<path d="M3204,5762 L4218,4211" stroke="blue" stroke-width="2" />
<path d="M6775,13 L2290,1900" stroke="blue" stroke-width="2" />
<path d="M3491,6476 L2698,2770" stroke="blue" stroke-width="2" />
<path d="M2746,705 L1979,5789" stroke="blue" stroke-width="2" />
<path d="M3917,1279 L980,1341" stroke="blue" stroke-width="2" />
<path d="M3918,5912 L2660,3699" stroke="blue" stroke-width="2" />
<path d="M1542,3434 L4225,701" stroke="blue" stroke-width="2" />
<path d="M4717,4804 L3534,3955" stroke="blue" stroke-width="2" />
<path d="M2791,980 L6859,3077" stroke="blue" stroke-width="2" />
<path d="M159,3777 L855,3785" stroke="blue" stroke-width="2" />
<path d="M3183,2723 L6431,4893" stroke="blue" stroke-width="2" />
<path d="M6405,84 L6593,5482" stroke="blue" stroke-width="2" />
<path d="M6457,3887 L4505,973" stroke="blue" stroke-width="2" />
<path d="M3045,3768 L2863,2894" stroke="blue" stroke-width="2" />
<path d="M3535,3573 L689,3857" stroke="blue" stroke-width="2" />
<path d="M2119,1158 L573,1122" stroke="blue" stroke-width="2" />
<path d="M4058,4404 L847,783" stroke="blue" stroke-width="2" />
<path d="M1792,2093 L3976,332" stroke="blue" stroke-width="2" />
<path d="M6262,487 L1635,2201" stroke="blue" stroke-width="2" />
<path d="M6596,4652 L2624,6083" stroke="blue" stroke-width="2" />
<path d="M6105,1750 L445,5482" stroke="blue" stroke-width="2" />
<path d="M3872,219 L74,1797" stroke="blue" stroke-width="2" />
<path d="M6737,903 L5279,1325" stroke="blue" stroke-width="2" />
<path d="M6910,4531 L5189,1893" stroke="blue" stroke-width="2" />
<path d="M3337,4652 L639,2683" stroke="blue" stroke-width="2" />
<path d="M3166,2938 L4623,6152" stroke="blue" stroke-width="2" />
<path d="M1938,1831 L6565,338" stroke="blue" stroke-width="2" />
<path d="M6490,2320 L6724,4546" stroke="blue" stroke-width="2" />
<path d="M5594,1591 L5147,6219" stroke="blue" stroke-width="2" />
<path d="M3939,2284 L3421,971" stroke="blue" stroke-width="2" />
<path d="M4484,6266 L6833,3322" stroke="blue" stroke-width="2" />
<path d="M3287,1235 L3526,5274" stroke="blue" stroke-width="2" />
<path d="M6581,1986 L1988,6433" stroke="blue" stroke-width="2" />
<path d="M811,3616 L6866,1735" stroke="blue" stroke-width="2" />
<path d="M1548,4399 L3019,2458" stroke="blue" stroke-width="2" />
<path d="M3969,1142 L1475,2877" stroke="blue" stroke-width="2" />
<path d="M1247,5246 L3280,4098" stroke="blue" stroke-width="2" />
<path d="M7110,2043 L281,2997" stroke="blue" stroke-width="2" />
<path d="M5489,4860 L3798,41" stroke="blue" stroke-width="2" />
<path d="M2735,6141 L2751,4683" stroke="blue" stroke-width="2" />
<path d="M1113,603 L1623,5740" stroke="blue" stroke-width="2" />
<path d="M1579,3662 L6083,3353" stroke="blue" stroke-width="2" />
<path d="M6091,1448 L2299,3686" stroke="blue" stroke-width="2" />
<path d="M3923,2157 L6661,1466" stroke="blue" stroke-width="2" />
<path d="M6493,6034 L3802,944" stroke="blue" stroke-width="2" />
<path d="M69,4838 L5777,6131" stroke="blue" stroke-width="2" />
<path d="M6355,4874 L4180,5081" stroke="blue" stroke-width="2" />
<path d="M5971,3266 L6661,915" stroke="blue" stroke-width="2" />
<path d="M3902,3388 L4844,2974" stroke="blue" stroke-width="2" />
<path d="M6904,1104 L5414,612" stroke="blue" stroke-width="2" />
<path d="M6498,5040 L5147,3893" stroke="blue" stroke-width="2" />
<path d="M2492,4230 L2973,4734" stroke="blue" stroke-width="2" />
<path d="M6786,728 L1213,1304" stroke="blue" stroke-width="2" />
<path d="M3185,3066 L593,5694" stroke="blue" stroke-width="2" />
<path d="M1762,5840 L4166,3358" stroke="blue" stroke-width="2" />
<path d="M6674,3052 L6519,855" stroke="blue" stroke-width="2" />
<path d="M1805,5921 L4101,3711" stroke="blue" stroke-width="2" />
<path d="M3644,46 L5037,3161" stroke="blue" stroke-width="2" />
<path d="M6522,327 L6136,1298" stroke="blue" stroke-width="2" />
<path d="M4401,4915 L787,1494" stroke="blue" stroke-width="2" />
<path d="M1939,4767 L426,1206" stroke="blue" stroke-width="2" />
<path d="M3996,5407 L4336,4767" stroke="blue" stroke-width="2" />
<path d="M2594,1574 L4712,5991" stroke="blue" stroke-width="2" />
<path d="M2645,556 L3573,6275" stroke="blue" stroke-width="2" />
<path d="M1501,976 L2214,6214" stroke="blue" stroke-width="2" />
<path d="M3585,6089 L2333,3187" stroke="blue" stroke-width="2" />
<path d="M1212,4380 L6745,2316" stroke="blue" stroke-width="2" />
<path d="M6160,185 L1777,11" stroke="blue" stroke-width="2" />
<path d="M960,3320 L1463,2830" stroke="blue" stroke-width="2" />
<path d="M6796,2454 L1553,3917" stroke="blue" stroke-width="2" />
<path d="M2935,2480 L160,4448" stroke="blue" stroke-width="2" />
<path d="M1046,6221 L5555,1248" stroke="blue" stroke-width="2" />
<path d="M1158,2435 L1659,3907" stroke="blue" stroke-width="2" />
<path d="M4354,5744 L2466,2956" stroke="blue" stroke-width="2" />
<path d="M5342,3726 L5743,1771" stroke="blue" stroke-width="2" />
<path d="M3076,1822 L3442,5634" stroke="blue" stroke-width="2" />
<path d="M906,6346 L6,3872" stroke="blue" stroke-width="2" />
<path d="M2250,4644 L4870,2458" stroke="blue" stroke-width="2" />
<path d="M4078,4881 L1675,4153" stroke="blue" stroke-width="2" />
<path d="M198,193 L4213,436" stroke="blue" stroke-width="2" />
<path d="M2225,3483 L715,2984" stroke="blue" stroke-width="2" />
<path d="M4549,3256 L6911,2474" stroke="blue" stroke-width="2" />
<path d="M3063,339 L2713,2221" stroke="blue" stroke-width="2" />
<path d="M4922,635 L5708,1858" stroke="blue" stroke-width="2" />
<path d="M2236,4620 L7001,570" stroke="blue" stroke-width="2" />
<path d="M5365,3589 L6505,5745" stroke="blue" stroke-width="2" />
<path d="M1713,2158 L6680,1445" stroke="blue" stroke-width="2" />
<path d="M4069,741 L4573,4963" stroke="blue" stroke-width="2" />
<path d="M1272,820 L5113,5671" stroke="blue" stroke-width="2" />
<path d="M0,0 L7199,0" stroke="red" stroke-width="10" />
<path d="M7199,0 L7199,6500" stroke="red" stroke-width="10" />
<path d="M0,6500 L7199,6500" stroke="red" stroke-width="10" />
<path d="M0,6500 L0,0" stroke="red" stroke-width="10" />
</svg>