<?xml version="1.0" encoding="UTF-8"?>
<svg xmlns="http://www.w3.org/2000/svg" xmlns:xlink="http://www.w3.org/1999/xlink"
     width="10000" height="10000" viewBox="0 0 10000 10000">
<defs>
</defs>
<path d="M2966,3744 L2613,2375" stroke="blue" stroke-width="2" />
<path d="M27,1060 L319,70" stroke="blue" stroke-width="2" />
<path d="M1822,4210 L1453,1205" stroke="blue" stroke-width="2" />
<path d="M528,1230 L2678,2986" stroke="blue" stroke-width="2" />
<path d="M1592,4571 L443,4428" stroke="blue" stroke-width="2" />
<path d="M2205,4134 L1154,1645" stroke="blue" stroke-width="2" />
<path d="M2319,3137 L129,4069" stroke="blue" stroke-width="2" />
<path d="M724,1075 L2236,675" stroke="blue" stroke-width="2" />
<path d="M1822,292 L2277,4628" stroke="blue" stroke-width="2" />
<path d="M3211,3064 L782,3113" stroke="blue" stroke-width="2" />
<path d="M270,3455 L1211,2089" stroke="blue" stroke-width="2" />
<path d="M2898,3864 L3051,2279" stroke="blue" stroke-width="2" />
<path d="M2816,2879 L1910,500" stroke="blue" stroke-width="2" />
<path d="M2030,2894 L3569,3735" stroke="blue" stroke-width="2" />
<path d="M305,3529 L1944,1234" stroke="blue" stroke-width="2" />
<path d="M2043,3147 L1474,462" stroke="blue" stroke-width="2" />
<path d="M1017,4381 L991,2492" stroke="blue" stroke-width="2" />
<path d="M3060,5029 L3573,594" stroke="blue" stroke-width="2" />
<path d="M2460,1472 L2085,1889" stroke="blue" stroke-width="2" />
<path d="M1723,2719 L939,3569" stroke="blue" stroke-width="2" />
<path d="M1061,3101 L2491,4297" stroke="blue" stroke-width="2" />
<path d="M2544,2761 L1839,4898" stroke="blue" stroke-width="2" />
<path d="M317,2434 L1568,1095" stroke="blue" stroke-width="2" />
<path d="M562,3532 L1137,3500" stroke="blue" stroke-width="2" />
<path d="M1865,557 L490,91" stroke="blue" stroke-width="2" />
<path d="M3558,2109 L2723,2409" stroke="blue" stroke-width="2" />
<path d="M837,670 L1289,2019" stroke="blue" stroke-width="2" />
<path d="M268,4828 L239,748" stroke="blue" stroke-width="2" />
<path d="M1617,1466 L181,3227" stroke="blue" stroke-width="2" />
<path d="M3266,2091 L3333,534" stroke="blue" stroke-width="2" />
<path d="M1087,4757 L978,3498" stroke="blue" stroke-width="2" />
<path d="M215,1517 L3165,2331" stroke="blue" stroke-width="2" />
<path d="M3202,1203 L3311,1572" stroke="blue" stroke-width="2" />
<path d="M2938,346 L2390,3160" stroke="blue" stroke-width="2" />
<path d="M3338,1236 L3556,1398" stroke="blue" stroke-width="2" />
<path d="M2749,4255 L2749,1794" stroke="blue" stroke-width="2" />
<path d="M1054,4516 L2362,1349" stroke="blue" stroke-width="2" />
<path d="M1971,113 L2217,3280" stroke="blue" stroke-width="2" />
<path d="M3208,2796 L1775,3138" stroke="blue" stroke-width="2" />
<path d="M1485,2429 L1552,1088" stroke="blue" stroke-width="2" />
<path d="M763,392 L430,4655" stroke="blue" stroke-width="2" />
<path d="M3371,2427 L3306,1714" stroke="blue" stroke-width="2" />
<path d="M2374,4324 L1324,1777" stroke="blue" stroke-width="2" />
<path d="M1264,3635 L3226,2206" stroke="blue" stroke-width="2" />
<path d="M1137,2060 L157,954" stroke="blue" stroke-width="2" />
<path d="M2467,135 L1115,1357" stroke="blue" stroke-width="2" />
<path d="M3467,1901 L2246,2377" stroke="blue" stroke-width="2" />
<path d="M188,1958 L80,1371" stroke="blue" stroke-width="2" />
<path d="M1674,1678 L1645,1231" stroke="blue" stroke-width="2" />
<path d="M125,3358 L2625,1912" stroke="blue" stroke-width="2" />
<path d="M742,4826 L1292,1671" stroke="blue" stroke-width="2" />
<path d="M3085,1342 L2295,2162" stroke="blue" stroke-width="2" />
<path d="M1476,3564 L49,1600" stroke="blue" stroke-width="2" />
<path d="M1990,2040 L525,1398" stroke="blue" stroke-width="2" />
<path d="M44,1100 L2752,3978" stroke="blue" stroke-width="2" />
<path d="M2629,103 L427,622" stroke="blue" stroke-width="2" />
<path d="M1000,4038 L1596,1844" stroke="blue" stroke-width="2" />
<path d="M2689,218 L3020,3739" stroke="blue" stroke-width="2" />
<path d="M1218,1880 L133,4077" stroke="blue" stroke-width="2" />
<path d="M3244,1000 L2847,3130" stroke="blue" stroke-width="2" />
<path d="M1980,1003 L262,834" stroke="blue" stroke-width="2" />
<path d="M2939,2164 L20,126" stroke="blue" stroke-width="2" />
<path d="M2706,4732 L15,327" stroke="blue" stroke-width="2" />
<path d="M3369,3335 L959,4304" stroke="blue" stroke-width="2" />
<path d="M2018,3282 L1255,1486" stroke="blue" stroke-width="2" />
<path d="M158,359 L735,869" stroke="blue" stroke-width="2" />
<path d="M3074,636 L3060,2064" stroke="blue" stroke-width="2" />
<path d="M2147,294 L759,3035" stroke="blue" stroke-width="2" />
<path d="M58,2283 L1567,2212" stroke="blue" stroke-width="2" />
<path d="M480,2503 L2925,1365" stroke="blue" stroke-width="2" />
<path d="M666,3563 L1392,4018" stroke="blue" stroke-width="2" />
<path d="M3182,2977 L2707,4642" stroke="blue" stroke-width="2" />
<path d="M1864,1453 L269,1503" stroke="blue" stroke-width="2" />
<path d="M936,4736 L3118,2603" stroke="blue" stroke-width="2" />
<path d="M3554,3497 L1070,582" stroke="blue" stroke-width="2" />
<path d="M531,3695 L3010,3322" stroke="blue" stroke-width="2" />
<path d="M945,534 L270,3143" stroke="blue" stroke-width="2" />
<path d="M3376,5024 L1326,2151" stroke="blue" stroke-width="2" />
<path d="M2264,4405 L437,2573" stroke="blue" stroke-width="2" />
<path d="M2482,4730 L3143,2347" stroke="blue" stroke-width="2" />
<path d="M2136,1113 L1343,2010" stroke="blue" stroke-width="2" />
<path d="M216,3705 L3492,4367" stroke="blue" stroke-width="2" />
<path d="M1781,852 L489,334" stroke="blue" stroke-width="2" />
<path d="M495,3499 L2778,3311" stroke="blue" stroke-width="2" />
<path d="M3435,4016 L447,464" stroke="blue" stroke-width="2" />
<path d="M1836,4039 L804,478" stroke="blue" stroke-width="2" />
<path d="M2788,2699 L67,4275" stroke="blue" stroke-width="2" />
<path d="M3332,164 L2721,4765" stroke="blue" stroke-width="2" />
<path d="M484,4574 L2138,4589" stroke="blue" stroke-width="2" />
<path d="M1129,1684 L2012,2477" stroke="blue" stroke-width="2" />
<path d="M2567,1210 L2466,2798" stroke="blue" stroke-width="2" />
<path d="M2435,1505 L1,4833" stroke="blue" stroke-width="2" />
<path d="M3562,4507 L435,128" stroke="blue" stroke-width="2" />
<path d="M376,182 L1748,4261" stroke="blue" stroke-width="2" />
<path d="M2712,2238 L1303,2216" stroke="blue" stroke-width="2" />
<path d="M2698,2705 L895,3029" stroke="blue" stroke-width="2" />
<path d="M3564,4381 L1558,4229" stroke="blue" stroke-width="2" />
<path d="M1788,4001 L327,4485" stroke="blue" stroke-width="2" />
<path d="M161,3063 L2225,1947" stroke="blue" stroke-width="2" />
<path d="M3028,1232 L973,2773" stroke="blue" stroke-width="2" />
<path d="M3464,4263 L3085,2688" stroke="blue" stroke-width="2" />
<path d="M1061,4070 L3207,213" stroke="blue" stroke-width="2" />
<path d="M654,376 L3461,1913" stroke="blue" stroke-width="2" />
<path d="M1222,726 L956,2039" stroke="blue" stroke-width="2" />
<path d="M82,556 L544,2293" stroke="blue" stroke-width="2" />
<path d="M2346,512 L1723,1899" stroke="blue" stroke-width="2" />
<path d="M2880,5075 L2338,3804" stroke="blue" stroke-width="2" />
<path d="M3024,2665 L1064,315" stroke="blue" stroke-width="2" />
<path d="M1111,1019 L2471,4872" stroke="blue" stroke-width="2" />
<path d="M1009,1973 L2790,2784" stroke="blue" stroke-width="2" />
<path d="M2819,780 L1654,1643" stroke="blue" stroke-width="2" />
<path d="M1484,3823 L2533,2746" stroke="blue" stroke-width="2" />
<path d="M203,1437 L2001,1067" stroke="blue" stroke-width="2" />
<path d="M3231,1997 L714,401" stroke="blue" stroke-width="2" />
<path d="M3174,2256 L51,4906" stroke="blue" stroke-width="2" />
<path d="M287,3530 L3576,4188" stroke="blue" stroke-width="2" />
<path d="M2529,4570 L1958,2483" stroke="blue" stroke-width="2" />
<path d="M2179,2124 L1795,2404" stroke="blue" stroke-width="2" />
<path d="M2597,1162 L2475,1257" stroke="blue" stroke-width="2" />
<path d="M623,3163 L2844,2249" stroke="blue" stroke-width="2" />
<path d="M1734,1606 L2073,2830" stroke="blue" stroke-width="2" />
<path d="M3570,1431 L2157,364" stroke="blue" stroke-width="2" />
<path d="M2,3661 L746,2446" stroke="blue" stroke-width="2" />
<path d="M382,2403 L1238,4518" stroke="blue" stroke-width="2" />
<path d="M1007,1241 L1555,2494" stroke="blue" stroke-width="2" />
<path d="M351,3507 L1608,2941" stroke="blue" stroke-width="2" />
<path d="M3447,488 L575,1318" stroke="blue" stroke-width="2" />
<path d="M3474,2285 L1719,188" stroke="blue" stroke-width="2" />
<path d="M3029,1225 L2306,4864" stroke="blue" stroke-width="2" />
<path d="M1215,5024 L655,1633" stroke="blue" stroke-width="2" />
<path d="M3005,1125 L643,3340" stroke="blue" stroke-width="2" />
<path d="M1625,364 L1932,3161" stroke="blue" stroke-width="2" />
<path d="M504,4875 L2124,1792" stroke="blue" stroke-width="2" />
<path d="M1991,2345 L3400,3640" stroke="blue" stroke-width="2" />
<path d="M1479,342 L261,900" stroke="blue" stroke-width="2" />
<path d="M1385,2148 L233,319" stroke="blue" stroke-width="2" />
<path d="M2996,4432 L2258,3845" stroke="blue" stroke-width="2" />
<path d="M827,1556 L3274,3509" stroke="blue" stroke-width="2" />
<path d="M2288,3422 L0,3881" stroke="blue" stroke-width="2" />
<path d="M288,2425 L2244,386" stroke="blue" stroke-width="2" />
<path d="M1255,4360 L3484,224" stroke="blue" stroke-width="2" />
<path d="M3148,1813 L1260,4342" stroke="blue" stroke-width="2" />
<path d="M319,1399 L653,3637" stroke="blue" stroke-width="2" />
<path d="M1015,43 L917,902" stroke="blue" stroke-width="2" />
<path d="M2600,1894 L2316,3335" stroke="blue" stroke-width="2" />
<path d="M1245,4769 L3355,2028" stroke="blue" stroke-width="2" />
<path d="M2508,4727 L3135,3395" stroke="blue" stroke-width="2" />
<path d="M2429,2993 L332,2760" stroke="blue" stroke-width="2" />
<path d="M3491,4149 L2664,4890" stroke="blue" stroke-width="2" />
<path d="M668,804 L1842,3220" stroke="blue" stroke-width="2" />
<path d="M3554,1906 L2075,2199" stroke="blue" stroke-width="2" />
<path d="M3294,1195 L1736,2499" stroke="blue" stroke-width="2" />
<path d="M3038,2062 L2653,2959" stroke="blue" stroke-width="2" />
<path d="M1969,2458 L3291,2338" stroke="blue" stroke-width="2" />
<path d="M1838,5002 L2727,598" stroke="blue" stroke-width="2" />
<path d="M147,1775 L2679,3428" stroke="blue" stroke-width="2" />
<path d="M2977,3272 L585,4741" stroke="blue" stroke-width="2" />
<path d="M776,858 L740,1964" stroke="blue" stroke-width="2" />
<path d="M663,2299 L2872,126" stroke="blue" stroke-width="2" />
<path d="M1118,4236 L102,4435" stroke="blue" stroke-width="2" />
<path d="M1143,1755 L1728,1207" stroke="blue" stroke-width="2" />
<path d="M2091,4752 L1525,3845" stroke="blue" stroke-width="2" />
<path d="M1830,75 L1894,3925" stroke="blue" stroke-width="2" />
<path d="M2251,2088 L1359,2136" stroke="blue" stroke-width="2" />
<path d="M2707,1695 L2134,3431" stroke="blue" stroke-width="2" />
<path d="M1618,4911 L1280,4079" stroke="blue" stroke-width="2" />
<path d="M1039,2868 L318,702" stroke="blue" stroke-width="2" />
<path d="M3306,3465 L2825,4517" stroke="blue" stroke-width="2" />
<path d="M709,5073 L1022,897" stroke="blue" stroke-width="2" />
<path d="M1329,2146 L1508,1642" stroke="blue" stroke-width="2" />
<path d="M909,4837 L2975,4581" stroke="blue" stroke-width="2" />
<path d="M1974,4335 L3302,2384" stroke="blue" stroke-width="2" />
<path d="M1750,4680 L2784,596" stroke="blue" stroke-width="2" />
<path d="M1606,549 L1283,585" stroke="blue" stroke-width="2" />
<path d="M796,148 L609,2298" stroke="blue" stroke-width="2" />
<path d="M595,915 L478,240" stroke="blue" stroke-width="2" />
<path d="M486,1358 L1173,2545" stroke="blue" stroke-width="2" />
<path d="M3064,4450 L793,4937" stroke="blue" stroke-width="2" />
<path d="M3427,3290 L2534,4571" stroke="blue" stroke-width="2" />
<path d="M1659,542 L2346,2261" stroke="blue" stroke-width="2" />
<path d="M1904,2128 L520,3015" stroke="blue" stroke-width="2" />
<path d="M2681,3929 L1973,4381" stroke="blue" stroke-width="2" />
<path d="M1574,2099 L459,246" stroke="blue" stroke-width="2" />
<path d="M3042,644 L67,491" stroke="blue" stroke-width="2" />
<path d="M2487,2021 L1671,917" stroke="blue" stroke-width="2" />
<path d="M2412,1003 L3040,3084" stroke="blue" stroke-width="2" />
<path d="M3486,455 L1320,2589" stroke="blue" stroke-width="2" />
<path d="M1976,2373 L1058,3153" stroke="blue" stroke-width="2" />
<path d="M1631,3013 L3315,1834" stroke="blue" stroke-width="2" />
<path d="M3406,4821 L3397,2478" stroke="blue" stroke-width="2" />
<path d="M3064,1196 L950,4924" stroke="blue" stroke-width="2" />
<path d="M898,2428 L757,4374" stroke="blue" stroke-width="2" />
<path d="M871,978 L287,2082" stroke="blue" stroke-width="2" />
<path d="M483,3296 L640,2967" stroke="blue" stroke-width="2" />
<path d="M3026,347 L3258,3961" stroke="blue" stroke-width="2" />
<path d="M533,2451 L3302,2963" stroke="blue" stroke-width="2" />
<path d="M1861,3645 L1882,3689" stroke="blue" stroke-width="2" />
<path d="M1442,805 L2821,3179" stroke="blue" stroke-width="2" />
<path d="M2432,16 L1546,1251" stroke="blue" stroke-width="2" />
<path d="M1553,4572 L2380,1779" stroke="blue" stroke-width="2" />
<path d="M3196,3283 L918,4152" stroke="blue" stroke-width="2" />
<path d="M2280,4172 L1337,920" stroke="blue" stroke-width="2" />
<path d="M10,3200 L608,1586" stroke="blue" stroke-width="2" />
<path d="M2725,4855 L1896,1332" stroke="blue" stroke-width="2" />
<path d="M1941,813 L1378,231" stroke="blue" stroke-width="2" />
<path d="M145,2857 L976,4467" stroke="blue" stroke-width="2" />
<path d="M1233,2281 L3221,1275" stroke="blue" stroke-width="2" />
<path d="M559,3678 L2621,3924" stroke="blue" stroke-width="2" />
<path d="M2861,1674 L2224,3563" stroke="blue" stroke-width="2" />
<path d="M2829,3947 L192,1484" stroke="blue" stroke-width="2" />
<path d="M1521,2448 L1919,3356" stroke="blue" stroke-width="2" />
<path d="M1483,2476 L1868,2932" stroke="blue" stroke-width="2" />
<path d="M64,1895 L852,1170" stroke="blue" stroke-width="2" />
<path d="M527,4974 L3174,297" stroke="blue" stroke-width="2" />
<path d="M1886,2852 L3084,2805" stroke="blue" stroke-width="2" />
<path d="M116,4024 L3071,778" stroke="blue" stroke-width="2" />
<path d="M1904,1079 L2048,469" stroke="blue" stroke-width="2" />
<path d="M2375,2879 L367,2129" stroke="blue" stroke-width="2" />
<path d="M660,4569 L1222,3562" stroke="blue" stroke-width="2" />
<path d="M2078,1897 L915,4257" stroke="blue" stroke-width="2" />
<path d="M2632,1304 L1708,2617" stroke="blue" stroke-width="2" />
<path d="M1867,517 L694,4414" stroke="blue" stroke-width="2" />
<path d="M1997,2572 L70,205" stroke="blue" stroke-width="2" />
<path d="M3558,2650 L575,515" stroke="blue" stroke-width="2" />
<path d="M1725,3995 L1614,3234" stroke="blue" stroke-width="2" />
<path d="M2011,4060 L1906,494" stroke="blue" stroke-width="2" />
<path d="M1837,2737 L1103,512" stroke="blue" stroke-width="2" />
<path d="M3536,1275 L3002,140" stroke="blue" stroke-width="2" />
<path d="M1945,1065 L182,977" stroke="blue" stroke-width="2" />
<path d="M892,1588 L1604,478" stroke="blue" stroke-width="2" />
<path d="M1436,4390 L2305,1163" stroke="blue" stroke-width="2" />
<path d="M826,3121 L2296,5041" stroke="blue" stroke-width="2" />
<path d="M2499,4931 L741,606" stroke="blue" stroke-width="2" />
<path d="M3446,4863 L2559,4201" stroke="blue" stroke-width="2" />
<path d="M1616,4794 L1007,1161" stroke="blue" stroke-width="2" />
<path d="M3031,4921 L3003,2315" stroke="blue" stroke-width="2" />
<path d="M596,3197 L955,3312" stroke="blue" stroke-width="2" />
<path d="M2072,702 L1849,4369" stroke="blue" stroke-width="2" />
<path d="M1264,4969 L253,3188" stroke="blue" stroke-width="2" />
<path d="M428,2688 L110,3147" stroke="blue" stroke-width="2" />
<path d="M987,5064 L1804,3252" stroke="blue" stroke-width="2" />
<path d="M2803,1350 L2796,1206" stroke="blue" stroke-width="2" />
<path d="M732,5069 L2992,3196" stroke="blue" stroke-width="2" />
<path d="M2336,2585 L171,2712" stroke="blue" stroke-width="2" />
<path d="M2955,916 L3332,3793" stroke="blue" stroke-width="2" />
<path d="M579,614 L2154,1747" stroke="blue" stroke-width="2" />
<path d="M3328,1255 L3006,3784" stroke="blue" stroke-width="2" />
<path d="M2109,131 L2089,275" stroke="blue" stroke-width="2" />
<path d="M2882,2450 L148,4515" stroke="blue" stroke-width="2" />
<path d="M1271,4292 L2378,47" stroke="blue" stroke-width="2" />
<path d="M2660,3552 L2677,922" stroke="blue" stroke-width="2" />
<path d="M1512,1509 L680,4501" stroke="blue" stroke-width="2" />
<path d="M3461,2480 L1187,3629" stroke="blue" stroke-width="2" />
<path d="M1695,2769 L3168,4445" stroke="blue" stroke-width="2" />
<path d="M340,4269 L1780,3609" stroke="blue" stroke-width="2" />
<path d="M2078,713 L373,2923" stroke="blue" stroke-width="2" />
<path d="M1583,2554 L1059,5014" stroke="blue" stroke-width="2" />
<path d="M2321,2918 L3311,2639" stroke="blue" stroke-width="2" />
<path d="M2075,2669 L160,2334" stroke="blue" stroke-width="2" />
<path d="M175,2489 L2464,4226" stroke="blue" stroke-width="2" />
<path d="M3028,1355 L1593,3640" stroke="blue" stroke-width="2" />
<path d="M3465,1084 L743,2340" stroke="blue" stroke-width="2" />
<path d="M2997,2556 L3053,3795" stroke="blue" stroke-width="2" />
<path d="M1620,1349 L2690,3175" stroke="blue" stroke-width="2" />
<path d="M3407,1129 L1607,1872" stroke="blue" stroke-width="2" />
<path d="M76,2438 L2201,1586" stroke="blue" stroke-width="2" />
<path d="M1875,2183 L2190,154" stroke="blue" stroke-width="2" />
<path d="M143,1260 L2981,206" stroke="blue" stroke-width="2" />
<path d="M1156,2401 L3150,1467" stroke="blue" stroke-width="2" />
<path d="M1595,2677 L3306,2363" stroke="blue" stroke-width="2" />
<path d="M1641,2343 L2761,3890" stroke="blue" stroke-width="2" />
<path d="M74,2695 L3087,4176" stroke="blue" stroke-width="2" />
<path d="M772,4406 L1952,3312" stroke="blue" stroke-width="2" />
<path d="M1844,537 L1922,4016" stroke="blue" stroke-width="2" />
<path d="M1535,1007 L2183,3248" stroke="blue" stroke-width="2" />
<path d="M2704,3850 L1211,4201" stroke="blue" stroke-width="2" />
<path d="M3321,384 L2679,1552" stroke="blue" stroke-width="2" />
<path d="M1666,3616 L2804,1204" stroke="blue" stroke-width="2" />
<path d="M1327,2139 L238,836" stroke="blue" stroke-width="2" />
<path d="M2372,959 L589,4814" stroke="blue" stroke-width="2" />
<path d="M3490,1204 L2926,621" stroke="blue" stroke-width="2" />
<path d="M2058,4093 L856,1517" stroke="blue" stroke-width="2" />
<path d="M2418,1732 L3521,838" stroke="blue" stroke-width="2" />
<path d="M3538,1430 L515,2585" stroke="blue" stroke-width="2" />
<path d="M844,1786 L1869,1137" stroke="blue" stroke-width="2" />
<path d="M3424,2934 L3196,1523" stroke="blue" stroke-width="2" />
<path d="M1544,141 L1379,462" stroke="blue" stroke-width="2" />
<path d="M3108,525 L1295,223" stroke="blue" stroke-width="2" />
<path d="M219,3586 L1190,869" stroke="blue" stroke-width="2" />
<path d="M2759,1870 L1088,3601" stroke="blue" stroke-width="2" />
<path d="M1692,1888 L871,1709" stroke="blue" stroke-width="2" />
<path d="M3270,759 L1096,744" stroke="blue" stroke-width="2" />
<path d="M1365,454 L3017,108" stroke="blue" stroke-width="2" />
<path d="M385,536 L1619,1594" stroke="blue" stroke-width="2" />
<path d="M88,1239 L288,1149" stroke="blue" stroke-width="2" />
<path d="M2620,2925 L2181,838" stroke="blue" stroke-width="2" />
<path d="M1720,2585 L365,2506" stroke="blue" stroke-width="2" />
<path d="M1044,4403 L2317,2620" stroke="blue" stroke-width="2" />
<path d="M3183,4783 L2568,2969" stroke="blue" stroke-width="2" />
<path d="M57,4263 L194,2982" stroke="blue" stroke-width="2" />
<path d="M2732,3227 L1712,4308" stroke="blue" stroke-width="2" />
<path d="M2376,232 L2382,1631" stroke="blue" stroke-width="2" />
<path d="M1014,2379 L990,4428" stroke="blue" stroke-width="2" />
<path d="M848,400 L634,4089" stroke="blue" stroke-width="2" />
<path d="M2601,999 L2197,3507" stroke="blue" stroke-width="2" />
<path d="M660,4038 L2383,1264" stroke="blue" stroke-width="2" />
<path d="M1645,4949 L44,4392" stroke="blue" stroke-width="2" />
<path d="M2586,5016 L2861,393" stroke="blue" stroke-width="2" />
<path d="M2461,482 L1935,1289" stroke="blue" stroke-width="2" />
<path d="M1327,2454 L582,3748" stroke="blue" stroke-width="2" />
<path d="M1485,5093 L2344,4255" stroke="blue" stroke-width="2" />
<path d="M2070,3348 L2532,2568" stroke="blue" stroke-width="2" />
<path d="M3080,3385 L1954,377" stroke="blue" stroke-width="2" />
<path d="M1485,4303 L2503,3773" stroke="blue" stroke-width="2" />
<path d="M2015,2208 L1643,1571" stroke="blue" stroke-width="2" />
<path d="M1515,2581 L2334,240" stroke="blue" stroke-width="2" />
<path d="M713,1300 L1197,1522" stroke="blue" stroke-width="2" />
<path d="M3545,1418 L2973,1504" stroke="blue" stroke-width="2" />
<path d="M2784,3736 L586,1582" stroke="blue" stroke-width="2" />
<path d="M2804,2884 L3410,1018" stroke="blue" stroke-width="2" />
<path d="M1187,2803 L2606,393" stroke="blue" stroke-width="2" />
<path d="M2809,1715 L3072,2433" stroke="blue" stroke-width="2" />
<path d="M1531,1868 L301,4332" stroke="blue" stroke-width="2" />
<path d="M2111,1630 L2904,2109" stroke="blue" stroke-width="2" />
<path d="M1647,1492 L1888,4599" stroke="blue" stroke-width="2" />
<path d="M181,19 L2206,2748" stroke="blue" stroke-width="2" />
<path d="M2790,4958 L1893,1706" stroke="blue" stroke-width="2" />
<path d="M2862,363 L3213,5082" stroke="blue" stroke-width="2" />
<path d="M3089,1318 L1980,2211" stroke="blue" stroke-width="2" />
<path d="M868,3182 L1737,2422" stroke="blue" stroke-width="2" />
<path d="M406,1487 L850,3119" stroke="blue" stroke-width="2" />
<path d="M2235,1997 L2394,950" stroke="blue" stroke-width="2" />
<path d="M778,2126 L2285,784" stroke="blue" stroke-width="2" />
<path d="M3510,811 L2217,1774" stroke="blue" stroke-width="2" />
<path d="M541,3459 L2702,1867" stroke="blue" stroke-width="2" />
<path d="M1923,3765 L422,3593" stroke="blue" stroke-width="2" />
<path d="M2880,226 L1478,3286" stroke="blue" stroke-width="2" />
<path d="M1733,3535 L3329,2310" stroke="blue" stroke-width="2" />
<path d="M2890,2131 L2420,963" stroke="blue" stroke-width="2" />
<path d="M2236,4256 L726,3221" stroke="blue" stroke-width="2" />
<path d="M66,1953 L1194,598" stroke="blue" stroke-width="2" />
<path d="M1645,2205 L2801,3805" stroke="blue" stroke-width="2" />
<path d="M932,3206 L1279,181" stroke="blue" stroke-width="2" />
<path d="M2215,4434 L41,4428" stroke="blue" stroke-width="2" />
<path d="M2647,331 L455,2331" stroke="blue" stroke-width="2" />
<path d="M2693,4762 L3108,1351" stroke="blue" stroke-width="2" />
<path d="M2515,667 L2599,3454" stroke="blue" stroke-width="2" />
<path d="M3114,2535 L345,2674" stroke="blue" stroke-width="2" />
<path d="M1221,53 L260,1095" stroke="blue" stroke-width="2" />
<path d="M663,1464 L2344,2386" stroke="blue" stroke-width="2" />
<path d="M2153,1369 L3434,1284" stroke="blue" stroke-width="2" />
<path d="M261,2179 L2797,4709" stroke="blue" stroke-width="2" />
<path d="M1858,866 L1180,380" stroke="blue" stroke-width="2" />
<path d="M2854,2226 L3069,1976" stroke="blue" stroke-width="2" />
<path d="M2162,1281 L3203,1626" stroke="blue" stroke-width="2" />
<path d="M2490,508 L820,1526" stroke="blue" stroke-width="2" />
<path d="M2040,3999 L895,3679" stroke="blue" stroke-width="2" />
<path d="M313,4774 L3076,213" stroke="blue" stroke-width="2" />
<path d="M683,670 L693,3704" stroke="blue" stroke-width="2" />
<path d="M306,4322 L2525,4464" stroke="blue" stroke-width="2" />
<path d="M1738,594 L1731,2926" stroke="blue" stroke-width="2" />
<path d="M2039,4009 L1509,4269" stroke="blue" stroke-width="2" />
<path d="M2198,1394 L1735,4230" stroke="blue" stroke-width="2" />
<path d="M1803,4112 L1105,2289" stroke="blue" stroke-width="2" />
<path d="M659,3632 L469,3810" stroke="blue" stroke-width="2" />
<path d="M1697,2266 L655,1048" stroke="blue" stroke-width="2" />
<path d="M589,600 L3185,3297" stroke="blue" stroke-width="2" />
<path d="M828,1670 L3480,2990" stroke="blue" stroke-width="2" />
<path d="M2196,521 L210,133" stroke="blue" stroke-width="2" />
<path d="M1969,1851 L1391,869" stroke="blue" stroke-width="2" />
<path d="M893,1939 L2192,3077" stroke="blue" stroke-width="2" />
<path d="M2194,2049 L3396,3571" stroke="blue" stroke-width="2" />
<path d="M64,279 L2937,2491" stroke="blue" stroke-width="2" />
<path d="M3140,2532 L2371,1404" stroke="blue" stroke-width="2" />
<path d="M1164,1365 L2647,1527" stroke="blue" stroke-width="2" />
<path d="M425,1289 L2152,1645" stroke="blue" stroke-width="2" />
<path d="M420,4280 L1522,3163" stroke="blue" stroke-width="2" />
<path d="M66,1226 L2768,4729" stroke="blue" stroke-width="2" />
<path d="M1581,3763 L501,1392" stroke="blue" stroke-width="2" />
<path d="M2377,3598 L3340,266" stroke="blue" stroke-width="2" />
<path d="M2538,4922 L221,3076" stroke="blue" stroke-width="2" />
<path d="M2571,1725 L3285,3791" stroke="blue" stroke-width="2" />
<path d="M2473,3528 L560,2428" stroke="blue" stroke-width="2" />
<path d="M2880,2571 L2871,3510" stroke="blue" stroke-width="2" />
<path d="M1542,625 L3002,997" stroke="blue" stroke-width="2" />
<path d="M418,3776 L1120,3077" stroke="blue" stroke-width="2" />
<path d="M2960,1641 L3141,647" stroke="blue" stroke-width="2" />
<path d="M2147,3490 L1302,2651" stroke="blue" stroke-width="2" />
<path d="M1305,2703 L186,1474" stroke="blue" stroke-width="2" />
<path d="M506,1229 L1818,1310" stroke="blue" stroke-width="2" />
<path d="M2629,4659 L247,1837" stroke="blue" stroke-width="2" />
<path d="M565,4083 L2799,3898" stroke="blue" stroke-width="2" />
<path d="M1704,3471 L680,4359" stroke="blue" stroke-width="2" />
<path d="M1378,359 L1363,1877" stroke="blue" stroke-width="2" />
<path d="M1518,1979 L1565,2950" stroke="blue" stroke-width="2" />
<path d="M3147,2547 L1705,373" stroke="blue" stroke-width="2" />
<path d="M2219,4882 L3431,1787" stroke="blue" stroke-width="2" />
<path d="M2076,2199 L849,2316" stroke="blue" stroke-width="2" />
<path d="M664,3503 L1070,1920" stroke="blue" stroke-width="2" />
<path d="M3419,662 L2894,1694" stroke="blue" stroke-width="2" />
<path d="M1006,3314 L1711,4908" stroke="blue" stroke-width="2" />
<path d="M2540,1813 L2262,4165" stroke="blue" stroke-width="2" />
<path d="M2597,1014 L413,617" stroke="blue" stroke-width="2" />
<path d="M1752,3605 L2270,2421" stroke="blue" stroke-width="2" />
<path d="M1052,2970 L3003,3021" stroke="blue" stroke-width="2" />
<path d="M539,3350 L2114,3679" stroke="blue" stroke-width="2" />
<path d="M744,379 L1493,2886" stroke="blue" stroke-width="2" />
<path d="M1936,4024 L201,4422" stroke="blue" stroke-width="2" />
<path d="M2035,3688 L134,3081" stroke="blue" stroke-width="2" />
<path d="M144,936 L1579,2849" stroke="blue" stroke-width="2" />
<path d="M2583,2166 L1606,3531" stroke="blue" stroke-width="2" />
<path d="M820,796 L1427,3572" stroke="blue" stroke-width="2" />
<path d="M1855,3667 L3379,2615" stroke="blue" stroke-width="2" />
<path d="M304,2267 L1084,2686" stroke="blue" stroke-width="2" />
<path d="M1420,631 L759,2413" stroke="blue" stroke-width="2" />
<path d="M2521,2049 L1326,3830" stroke="blue" stroke-width="2" />
<path d="M17,3182 L1343,4604" stroke="blue" stroke-width="2" />
<path d="M1217,4507 L12,3552" stroke="blue" stroke-width="2" />
<path d="M740,116 L350,3160" stroke="blue" stroke-width="2" />
<path d="M1594,1721 L1554,1070" stroke="blue" stroke-width="2" />
<path d="M976,2520 L579,4516" stroke="blue" stroke-width="2" />
<path d="M90,1096 L799,646" stroke="blue" stroke-width="2" />
<path d="M1375,1581 L1777,251" stroke="blue" stroke-width="2" />
<path d="M1380,3537 L99,3123" stroke="blue" stroke-width="2" />
<path d="M1891,116 L762,2718" stroke="blue" stroke-width="2" />
<path d="M1351,3504 L457,1736" stroke="blue" stroke-width="2" />
<path d="M3430,3747 L121,2054" stroke="blue" stroke-width="2" />
<path d="M384,4267 L911,1039" stroke="blue" stroke-width="2" />
<path d="M1369,1377 L1753,1789" stroke="blue" stroke-width="2" />
<path d="M1003,352 L2513,4271" stroke="blue" stroke-width="2" />
<path d="M3406,299 L2018,1866" stroke="blue" stroke-width="2" />
<path d="M1743,2911 L1343,3517" stroke="blue" stroke-width="2" />
<path d="M745,837 L1064,4070" stroke="blue" stroke-width="2" />
<path d="M2901,1319 L3502,2858" stroke="blue" stroke-width="2" />
<path d="M2079,1442 L2616,2682" stroke="blue" stroke-width="2" />
<path d="M1246,4145 L58,891" stroke="blue" stroke-width="2" />
<path d="M3178,1636 L3528,3654" stroke="blue" stroke-width="2" />
<path d="M440,1732 L1311,4616" stroke="blue" stroke-width="2" />
<path d="M1190,4945 L1902,4615" stroke="blue" stroke-width="2" />
<path d="M928,2216 L1782,1597" stroke="blue" stroke-width="2" />
<path d="M1989,1386 L2926,114" stroke="blue" stroke-width="2" />
<path d="M1395,3476 L2126,1943" stroke="blue" stroke-width="2" />
<path d="M2841,3064 L657,3217" stroke="blue" stroke-width="2" />
<path d="M1440,1570 L873,3556" stroke="blue" stroke-width="2" />
<path d="M3242,1658 L1058,688" stroke="blue" stroke-width="2" />
<path d="M815,2241 L3091,1455" stroke="blue" stroke-width="2" />
<path d="M2612,1935 L1049,4466" stroke="blue" stroke-width="2" />
<path d="M1303,3600 L1569,608" stroke="blue" stroke-width="2" />
<path d="M6,797 L3249,3630" stroke="blue" stroke-width="2" />
<path d="M3163,630 L186,2409" stroke="blue" stroke-width="2" />
<path d="M226,4289 L2263,2890" stroke="blue" stroke-width="2" />
<path d="M2563,4794 L697,2726" stroke="blue" stroke-width="2" />
<path d="M1394,4596 L2503,2626" stroke="blue" stroke-width="2" />
<path d="M1898,4075 L1331,4114" stroke="blue" stroke-width="2" />
<path d="M885,189 L1493,770" stroke="blue" stroke-width="2" />
<path d="M3277,1732 L3008,2547" stroke="blue" stroke-width="2" />
<path d="M2905,396 L3028,4576" stroke="blue" stroke-width="2" />
<path d="M1021,897 L1103,4005" stroke="blue" stroke-width="2" />
<path d="M2173,1743 L179,4341" stroke="blue" stroke-width="2" />
<path d="M2649,3241 L2102,2859" stroke="blue" stroke-width="2" />
<path d="M942,672 L1934,4778" stroke="blue" stroke-width="2" />
<path d="M1968,1799 L3096,4120" stroke="blue" stroke-width="2" />
<path d="M3323,4842 L2580,1718" stroke="blue" stroke-width="2" />
<path d="M2743,1693 L607,4065" stroke="blue" stroke-width="2" />
<path d="M3543,2041 L2231,1932" stroke="blue" stroke-width="2" />
<path d="M3081,4901 L289,3667" stroke="blue" stroke-width="2" />
<path d="M1008,98 L1524,1983" stroke="blue" stroke-width="2" />
<path d="M1355,2263 L1933,98" stroke="blue" stroke-width="2" />
<path d="M1099,4796 L454,1054" stroke="blue" stroke-width="2" />
<path d="M1533,3811 L1347,937" stroke="blue" stroke-width="2" />
<path d="M1175,1075 L2047,1855" stroke="blue" stroke-width="2" />
<path d="M3128,3700 L30,3899" stroke="blue" stroke-width="2" />
<path d="M1695,4202 L2272,1362" stroke="blue" stroke-width="2" />
<path d="M1603,698 L2923,4980" stroke="blue" stroke-width="2" />
<path d="M1429,3597 L3065,4252" stroke="blue" stroke-width="2" />
<path d="M1498,3691 L2867,3908" stroke="blue" stroke-width="2" />
<path d="M2056,2936 L1725,511" stroke="blue" stroke-width="2" />
<path d="M2895,4640 L1629,3425" stroke="blue" stroke-width="2" />
<path d="M1295,922 L843,687" stroke="blue" stroke-width="2" />
<path d="M524,1068 L2167,4356" stroke="blue" stroke-width="2" />
<path d="M2645,4415 L2521,2063" stroke="blue" stroke-width="2" />
<path d="M3333,3670 L2270,1467" stroke="blue" stroke-width="2" />
<path d="M469,3223 L1707,2209" stroke="blue" stroke-width="2" />
<path d="M2509,3468 L2027,3235" stroke="blue" stroke-width="2" />
<path d="M3264,3199 L2269,755" stroke="blue" stroke-width="2" />
<path d="M2358,65 L1126,241" stroke="blue" stroke-width="2" />
<path d="M1465,3716 L3355,3570" stroke="blue" stroke-width="2" />
<path d="M14,3504 L1350,513" stroke="blue" stroke-width="2" />
<path d="M2975,4420 L2287,4547" stroke="blue" stroke-width="2" />
<path d="M1775,1489 L3289,2888" stroke="blue" stroke-width="2" />
<path d="M683,891 L3458,3768" stroke="blue" stroke-width="2" />
<path d="M1183,2666 L2577,3529" stroke="blue" stroke-width="2" />
<path d="M1495,677 L1150,890" stroke="blue" stroke-width="2" />
<path d="M448,3098 L3509,3982" stroke="blue" stroke-width="2" />
<path d="M3552,282 L677,4894" stroke="blue" stroke-width="2" />
<path d="M2138,1099 L2395,5064" stroke="blue" stroke-width="2" />
<path d="M1453,1341 L915,4239" stroke="blue" stroke-width="2" />
<path d="M2334,4366 L643,4139" stroke="blue" stroke-width="2" />
<path d="M1136,2927 L3180,2987" stroke="blue" stroke-width="2" />
<path d="M1433,1206 L2067,870" stroke="blue" stroke-width="2" />
<path d="M3494,4572 L3403,2052" stroke="blue" stroke-width="2" />
<path d="M970,2439 L2231,4652" stroke="blue" stroke-width="2" />
<path d="M519,1351 L154,503" stroke="blue" stroke-width="2" />
<path d="M2425,2166 L2060,2997" stroke="blue" stroke-width="2" />
<path d="M1714,778 L354,1590" stroke="blue" stroke-width="2" />
<path d="M2800,2397 L1300,1235" stroke="blue" stroke-width="2" />
<path d="M2294,4884 L2946,3710" stroke="blue" stroke-width="2" />
<path d="M7,1998 L3372,4410" stroke="blue" stroke-width="2" />
<path d="M905,3796 L2728,3230" stroke="blue" stroke-width="2" />
<path d="M3248,3863 L3438,339" stroke="blue" stroke-width="2" />
<path d="M1297,1420 L3341,1204" stroke="blue" stroke-width="2" />
<path d="M500,4623 L1234,93" stroke="blue" stroke-width="2" />
<path d="M2466,2846 L1313,330" stroke="blue" stroke-width="2" />
<path d="M3248,3782 L2483,1134" stroke="blue" stroke-width="2" />
<path d="M1486,2560 L2883,3187" stroke="blue" stroke-width="2" />
<path d="M2737,2504 L352,4960" stroke="blue" stroke-width="2" />
<path d="M1743,319 L2801,1718" stroke="blue" stroke-width="2" />
<path d="M2191,1895 L2953,3568" stroke="blue" stroke-width="2" />
<path d="M3331,4563 L555,3282" stroke="blue" stroke-width="2" />
<path d="M3441,4793 L2551,1922" stroke="blue" stroke-width="2" />
<path d="M3522,1943 L3209,3217" stroke="blue" stroke-width="2" />
<path d="M2641,1111 L846,4028" stroke="blue" stroke-width="2" />
<path d="M1519,3769 L1785,4688" stroke="blue" stroke-width="2" />
<path d="M761,3055 L1462,2450" stroke="blue" stroke-width="2" />
<path d="M1361,2432 L2028,236" stroke="blue" stroke-width="2" />
<path d="M3550,2703 L2049,4005" stroke="blue" stroke-width="2" />
<path d="M1986,4071 L1656,4958" stroke="blue" stroke-width="2" />
<path d="M3485,1098 L2592,3313" stroke="blue" stroke-width="2" />
<path d="M1907,4307 L3462,3119" stroke="blue" stroke-width="2" />
<path d="M47,1072 L290,3761" stroke="blue" stroke-width="2" />
<path d="M691,4097 L702,1590" stroke="blue" stroke-width="2" />
<path d="M2289,1714 L1071,2101" stroke="blue" stroke-width="2" />
<path d="M2901,1428 L2023,2062" stroke="blue" stroke-width="2" />
<path d="M963,250 L565,1922" stroke="blue" stroke-width="2" />
<path d="M2941,4840 L353,2651" stroke="blue" stroke-width="2" />
<path d="M2666,134 L3379,798" stroke="blue" stroke-width="2" />
<path d="M1822,1388 L3320,241" stroke="blue" stroke-width="2" />
<path d="M2783,235 L111,3638" stroke="blue" stroke-width="2" />
<path d="M1630,4120 L1060,4639" stroke="blue" stroke-width="2" />
<path d="M3347,1617 L3550,678" stroke="blue" stroke-width="2" />
<path d="M2961,564 L2435,2066" stroke="blue" stroke-width="2" />
<path d="M2712,2532 L399,3509" stroke="blue" stroke-width="2" />
<path d="M2659,2576 L1430,2199" stroke="blue" stroke-width="2" />
<path d="M1212,1323 L753,5054" stroke="blue" stroke-width="2" />
<path d="M2551,3386 L2769,1713" stroke="blue" stroke-width="2" />
<path d="M409,277 L1992,2410" stroke="blue" stroke-width="2" />
<path d="M1085,2471 L817,3324" stroke="blue" stroke-width="2" />
<path d="M2710,4555 L1520,628" stroke="blue" stroke-width="2" />
<path d="M274,3231 L726,2215" stroke="blue" stroke-width="2" />
<path d="M776,4563 L481,1891" stroke="blue" stroke-width="2" />
<path d="M2722,2837 L3079,2512" stroke="blue" stroke-width="2" />
<path d="M1874,2586 L1375,3056" stroke="blue" stroke-width="2" />
<path d="M1780,4559 L1713,1011" stroke="blue" stroke-width="2" />
<path d="M2884,4622 L382,1688" stroke="blue" stroke-width="2" />
<path d="M1538,1344 L269,1982" stroke="blue" stroke-width="2" />
<path d="M787,3887 L3102,4430" stroke="blue" stroke-width="2" />
<path d="M1626,1478 L660,3619" stroke="blue" stroke-width="2" />
<path d="M98,4563 L3276,3778" stroke="blue" stroke-width="2" />
<path d="M1034,3522 L2889,29" stroke="blue" stroke-width="2" />
<path d="M2261,3007 L3355,3298" stroke="blue" stroke-width="2" />
<path d="M2001,4026 L1935,1156" stroke="blue" stroke-width="2" />
<path d="M3345,1902 L2648,2460" stroke="blue" stroke-width="2" />
<path d="M646,3434 L859,3654" stroke="blue" stroke-width="2" />
<path d="M2589,4385 L1232,5018" stroke="blue" stroke-width="2" />
<path d="M2153,1491 L2886,4777" stroke="blue" stroke-width="2" />
<path d="M2597,875 L205,3273" stroke="blue" stroke-width="2" />
<path d="M2542,2399 L2268,3016" stroke="blue" stroke-width="2" />
<path d="M3193,1014 L536,1935" stroke="blue" stroke-width="2" />
<path d="M0,0 L3577,0" stroke="red" stroke-width="10" />
<path d="M3577,0 L3577,5095" stroke="red" stroke-width="10" />
<path d="M0,5095 L3577,5095" stroke="red" stroke-width="10" />
<path d="M0,5095 L0,0" stroke="red" stroke-width="10" />
</svg>