<?xml version="1.0" encoding="UTF-8"?>
<svg xmlns="http://www.w3.org/2000/svg" xmlns:xlink="http://www.w3.org/1999/xlink"
     width="10000" height="10000" viewBox="0 0 10000 10000">
<defs>
</defs>
<path d="M3462,4824 L5727,4955" stroke="blue" stroke-width="2" />
<path d="M4537,3033 L1991,2041" stroke="blue" stroke-width="2" />
<path d="M5812,1093 L5774,4628" stroke="blue" stroke-width="2" />
<path d="M4979,3386 L3581,6212" stroke="blue" stroke-width="2" />
<path d="M2745,835 L6156,5517" stroke="blue" stroke-width="2" />
<path d="M910,1823 L1726,5903" stroke="blue" stroke-width="2" />
<path d="M1714,2855 L4378,5938" stroke="blue" stroke-width="2" />
<path d="M3925,1124 L1722,4031" stroke="blue" stroke-width="2" />
<path d="M5951,344 L2030,5603" stroke="blue" stroke-width="2" />
<path d="M4699,743 L4028,2918" stroke="blue" stroke-width="2" />
<path d="M3070,6421 L6483,380" stroke="blue" stroke-width="2" />
<path d="M3858,4374 L1784,5946" stroke="blue" stroke-width="2" />
<path d="M1722,4350 L6049,1189" stroke="blue" stroke-width="2" />
<path d="M3258,462 L517,4717" stroke="blue" stroke-width="2" />
<path d="M3673,1456 L1440,6361" stroke="blue" stroke-width="2" />
<path d="M917,4715 L4918,2702" stroke="blue" stroke-width="2" />
<path d="M33,6810 L5571,1961" stroke="blue" stroke-width="2" />
<path d="M2679,904 L1654,2411" stroke="blue" stroke-width="2" />
<path d="M5877,1303 L4957,409" stroke="blue" stroke-width="2" />
<path d="M6359,3726 L2503,2115" stroke="blue" stroke-width="2" />
<path d="M6562,4888 L4573,1244" stroke="blue" stroke-width="2" />
<path d="M1740,6194 L3187,5541" stroke="blue" stroke-width="2" />
<path d="M4057,4985 L1219,1090" stroke="blue" stroke-width="2" />
<path d="M5224,4218 L5563,152" stroke="blue" stroke-width="2" />
<path d="M3547,6232 L896,3709" stroke="blue" stroke-width="2" />
<path d="M3139,4649 L1046,5674" stroke="blue" stroke-width="2" />
<path d="M287,1758 L3829,5904" stroke="blue" stroke-width="2" />
<path d="M1769,1351 L2330,3194" stroke="blue" stroke-width="2" />
<path d="M2185,2108 L6217,3163" stroke="blue" stroke-width="2" />
<path d="M3923,1687 L6617,4189" stroke="blue" stroke-width="2" />
<path d="M6467,6274 L3786,5915" stroke="blue" stroke-width="2" />
<path d="M4139,6480 L6555,3273" stroke="blue" stroke-width="2" />
<path d="M4796,1246 L2640,3404" stroke="blue" stroke-width="2" />
<path d="M1023,3514 L2375,3050" stroke="blue" stroke-width="2" />
<path d="M818,3098 L2093,6044" stroke="blue" stroke-width="2" />
<path d="M6620,1945 L2099,3900" stroke="blue" stroke-width="2" />
<path d="M75,6658 L2525,2006" stroke="blue" stroke-width="2" />
<path d="M4422,6462 L5262,21" stroke="blue" stroke-width="2" />
<path d="M6550,3039 L2763,1690" stroke="blue" stroke-width="2" />
<path d="M3571,5992 L6554,3701" stroke="blue" stroke-width="2" />
<path d="M580,4207 L4426,6602" stroke="blue" stroke-width="2" />
<path d="M227,1493 L4589,2392" stroke="blue" stroke-width="2" />
<path d="M5118,1199 L4073,5803" stroke="blue" stroke-width="2" />
<path d="M2098,6857 L1382,6631" stroke="blue" stroke-width="2" />
<path d="M5089,3983 L183,3333" stroke="blue" stroke-width="2" />
<path d="M2598,3127 L3072,2810" stroke="blue" stroke-width="2" />
<path d="M342,5557 L1160,5980" stroke="blue" stroke-width="2" />
<path d="M6348,2371 L2373,899" stroke="blue" stroke-width="2" />
<path d="M5350,6543 L2098,1470" stroke="blue" stroke-width="2" />
<path d="M6315,2468 L4413,6015" stroke="blue" stroke-width="2" />
<path d="M6414,241 L1525,4762" stroke="blue" stroke-width="2" />
<path d="M5703,4923 L4542,4595" stroke="blue" stroke-width="2" />
<path d="M3140,4929 L4461,6632" stroke="blue" stroke-width="2" />
<path d="M6407,5687 L1427,5590" stroke="blue" stroke-width="2" />
<path d="M5757,2783 L605,5862" stroke="blue" stroke-width="2" />
<path d="M1868,6759 L3102,6773" stroke="blue" stroke-width="2" />
<path d="M5100,2806 L3174,1100" stroke="blue" stroke-width="2" />
<path d="M2535,132 L4125,6034" stroke="blue" stroke-width="2" />
<path d="M1760,4443 L619,1152" stroke="blue" stroke-width="2" />
<path d="M1931,548 L2383,5692" stroke="blue" stroke-width="2" />
<path d="M2933,6888 L5125,478" stroke="blue" stroke-width="2" />
<path d="M1212,4282 L534,3228" stroke="blue" stroke-width="2" />
<path d="M5119,4935 L3267,6668" stroke="blue" stroke-width="2" />
<path d="M1794,134 L4846,3801" stroke="blue" stroke-width="2" />
<path d="M4147,1514 L6512,6884" stroke="blue" stroke-width="2" />
<path d="M5224,6373 L1242,1409" stroke="blue" stroke-width="2" />
<path d="M2430,769 L72,3760" stroke="blue" stroke-width="2" />
<path d="M5839,2772 L1637,1415" stroke="blue" stroke-width="2" />
<path d="M5111,3011 L893,1474" stroke="blue" stroke-width="2" />
<path d="M5305,4985 L4043,3383" stroke="blue" stroke-width="2" />
<path d="M1707,4687 L6527,6484" stroke="blue" stroke-width="2" />
<path d="M3503,6663 L1877,3208" stroke="blue" stroke-width="2" />
<path d="M2347,2461 L2912,4977" stroke="blue" stroke-width="2" />
<path d="M4200,1605 L221,6707" stroke="blue" stroke-width="2" />
<path d="M4462,5381 L6647,2296" stroke="blue" stroke-width="2" />
<path d="M2722,2578 L5408,2069" stroke="blue" stroke-width="2" />
<path d="M5219,4860 L5480,1667" stroke="blue" stroke-width="2" />
<path d="M593,2918 L3583,3253" stroke="blue" stroke-width="2" />
<path d="M4604,6842 L3218,1116" stroke="blue" stroke-width="2" />
<path d="M1614,5068 L4612,2018" stroke="blue" stroke-width="2" />
<path d="M1236,6493 L4495,3201" stroke="blue" stroke-width="2" />
<path d="M221,364 L6678,173" stroke="blue" stroke-width="2" />
<path d="M143,5003 L6720,5514" stroke="blue" stroke-width="2" />
<path d="M112,4056 L4533,6258" stroke="blue" stroke-width="2" />
<path d="M4557,3719 L0,6146" stroke="blue" stroke-width="2" />
<path d="M2382,6545 L1628,5665" stroke="blue" stroke-width="2" />
<path d="M4625,5858 L256,92" stroke="blue" stroke-width="2" />
<path d="M6702,4639 L4891,3901" stroke="blue" stroke-width="2" />
<path d="M2961,3869 L3783,641" stroke="blue" stroke-width="2" />
<path d="M4757,2687 L5939,1945" stroke="blue" stroke-width="2" />
<path d="M4029,2385 L1995,2557" stroke="blue" stroke-width="2" />
<path d="M3503,2700 L4803,637" stroke="blue" stroke-width="2" />
<path d="M456,4269 L6326,5848" stroke="blue" stroke-width="2" />
<path d="M5352,3850 L4491,2462" stroke="blue" stroke-width="2" />
<path d="M3231,2748 L4730,6826" stroke="blue" stroke-width="2" />
<path d="M6515,4299 L854,3731" stroke="blue" stroke-width="2" />
<path d="M381,6811 L3236,4060" stroke="blue" stroke-width="2" />
<path d="M3989,3457 L1105,2436" stroke="blue" stroke-width="2" />
<path d="M5443,4673 L5950,5782" stroke="blue" stroke-width="2" />
<path d="M289,183 L196,4877" stroke="blue" stroke-width="2" />
<path d="M2370,5305 L2336,1910" stroke="blue" stroke-width="2" />
<path d="M1929,2926 L3442,1487" stroke="blue" stroke-width="2" />
<path d="M5369,656 L769,6023" stroke="blue" stroke-width="2" />
<path d="M2237,898 L2753,4843" stroke="blue" stroke-width="2" />
<path d="M2873,3612 L5420,1662" stroke="blue" stroke-width="2" />
<path d="M2877,2830 L3235,2804" stroke="blue" stroke-width="2" />
<path d="M3020,1813 L786,1875" stroke="blue" stroke-width="2" />
<path d="M5045,1234 L4112,1599" stroke="blue" stroke-width="2" />
<path d="M5704,1817 L3893,766" stroke="blue" stroke-width="2" />
<path d="M4077,3324 L5558,584" stroke="blue" stroke-width="2" />
<path d="M4664,5993 L3850,5113" stroke="blue" stroke-width="2" />
<path d="M4013,3273 L5210,6650" stroke="blue" stroke-width="2" />
<path d="M4944,2060 L3942,4399" stroke="blue" stroke-width="2" />
<path d="M368,266 L3736,6084" stroke="blue" stroke-width="2" />
<path d="M786,999 L3850,2864" stroke="blue" stroke-width="2" />
<path d="M5167,2667 L4083,2786" stroke="blue" stroke-width="2" />
<path d="M5529,5061 L1311,2765" stroke="blue" stroke-width="2" />
<path d="M735,469 L5929,3062" stroke="blue" stroke-width="2" />
<path d="M5422,1667 L1298,6211" stroke="blue" stroke-width="2" />
<path d="M4916,5193 L2105,1132" stroke="blue" stroke-width="2" />
<path d="M6174,1157 L1901,3274" stroke="blue" stroke-width="2" />
<path d="M4653,5447 L5294,979" stroke="blue" stroke-width="2" />
<path d="M6662,3943 L4421,3493" stroke="blue" stroke-width="2" />
<path d="M5141,3513 L6289,6722" stroke="blue" stroke-width="2" />
<path d="M3184,2354 L2757,3916" stroke="blue" stroke-width="2" />
<path d="M4278,6376 L1035,649" stroke="blue" stroke-width="2" />
<path d="M2821,4120 L3441,4377" stroke="blue" stroke-width="2" />
<path d="M3432,2436 L4887,3307" stroke="blue" stroke-width="2" />
<path d="M1058,1071 L1548,4599" stroke="blue" stroke-width="2" />
<path d="M1304,519 L536,795" stroke="blue" stroke-width="2" />
<path d="M3025,3483 L4889,3261" stroke="blue" stroke-width="2" />
<path d="M1049,946 L6468,4321" stroke="blue" stroke-width="2" />
<path d="M1906,4606 L6588,3953" stroke="blue" stroke-width="2" />
<path d="M4114,1362 L709,4270" stroke="blue" stroke-width="2" />
<path d="M5652,1825 L1233,1123" stroke="blue" stroke-width="2" />
<path d="M1353,6178 L4643,4024" stroke="blue" stroke-width="2" />
<path d="M6508,4136 L5803,3525" stroke="blue" stroke-width="2" />
<path d="M5955,3797 L3604,5896" stroke="blue" stroke-width="2" />
<path d="M6077,3699 L2573,5733" stroke="blue" stroke-width="2" />
<path d="M902,4419 L3995,3557" stroke="blue" stroke-width="2" />
<path d="M1407,343 L674,155" stroke="blue" stroke-width="2" />
<path d="M582,1683 L3638,6037" stroke="blue" stroke-width="2" />
<path d="M5895,4343 L4888,6351" stroke="blue" stroke-width="2" />
<path d="M2790,1356 L963,1624" stroke="blue" stroke-width="2" />
<path d="M602,4913 L2455,191" stroke="blue" stroke-width="2" />
<path d="M3313,6271 L3799,4909" stroke="blue" stroke-width="2" />
<path d="M4517,4045 L3855,6597" stroke="blue" stroke-width="2" />
<path d="M5475,610 L5255,523" stroke="blue" stroke-width="2" />
<path d="M3766,3319 L2202,3149" stroke="blue" stroke-width="2" />
<path d="M6662,5994 L1533,4950" stroke="blue" stroke-width="2" />
<path d="M2196,2533 L157,4955" stroke="blue" stroke-width="2" />
<path d="M4198,3164 L2362,5425" stroke="blue" stroke-width="2" />
<path d="M3540,2257 L4331,564" stroke="blue" stroke-width="2" />
<path d="M534,4226 L3333,4553" stroke="blue" stroke-width="2" />
<path d="M3136,2378 L168,53" stroke="blue" stroke-width="2" />
<path d="M540,4822 L5507,448" stroke="blue" stroke-width="2" />
<path d="M3796,3319 L4129,3527" stroke="blue" stroke-width="2" />
<path d="M999,2914 L4652,3891" stroke="blue" stroke-width="2" />
<path d="M1498,2294 L2830,1016" stroke="blue" stroke-width="2" />
<path d="M1792,2958 L2150,3157" stroke="blue" stroke-width="2" />
<path d="M4952,998 L5959,2676" stroke="blue" stroke-width="2" />
<path d="M5720,6363 L5525,346" stroke="blue" stroke-width="2" />
<path d="M4207,2958 L1446,6395" stroke="blue" stroke-width="2" />
<path d="M5820,5120 L1049,2124" stroke="blue" stroke-width="2" />
<path d="M5562,4252 L2644,3915" stroke="blue" stroke-width="2" />
<path d="M4117,2172 L6114,2021" stroke="blue" stroke-width="2" />
<path d="M4373,3158 L6429,5946" stroke="blue" stroke-width="2" />
<path d="M3028,2582 L2169,4746" stroke="blue" stroke-width="2" />
<path d="M5960,6077 L3808,6288" stroke="blue" stroke-width="2" />
<path d="M2352,3213 L5446,6226" stroke="blue" stroke-width="2" />
<path d="M4669,5145 L4228,5172" stroke="blue" stroke-width="2" />
<path d="M5912,3291 L97,2129" stroke="blue" stroke-width="2" />
<path d="M6058,5398 L6013,3835" stroke="blue" stroke-width="2" />
<path d="M4119,3184 L1348,2660" stroke="blue" stroke-width="2" />
<path d="M2204,5266 L2636,1632" stroke="blue" stroke-width="2" />
<path d="M5851,1628 L6187,684" stroke="blue" stroke-width="2" />
<path d="M4989,4339 L4804,1086" stroke="blue" stroke-width="2" />
<path d="M6471,3961 L4221,6053" stroke="blue" stroke-width="2" />
<path d="M1963,2200 L4696,234" stroke="blue" stroke-width="2" />
<path d="M972,3397 L4170,4935" stroke="blue" stroke-width="2" />
<path d="M3728,4874 L2088,3517" stroke="blue" stroke-width="2" />
<path d="M3215,5347 L2048,5824" stroke="blue" stroke-width="2" />
<path d="M3189,4531 L1227,1973" stroke="blue" stroke-width="2" />
<path d="M3092,3418 L3601,1180" stroke="blue" stroke-width="2" />
<path d="M3677,2851 L3010,5363" stroke="blue" stroke-width="2" />
<path d="M6720,6021 L6625,1896" stroke="blue" stroke-width="2" />
<path d="M2682,6307 L1009,1904" stroke="blue" stroke-width="2" />
<path d="M6606,5698 L2131,4668" stroke="blue" stroke-width="2" />
<path d="M520,464 L6005,2940" stroke="blue" stroke-width="2" />
<path d="M2647,6254 L5555,3180" stroke="blue" stroke-width="2" />
<path d="M6285,6721 L3518,4700" stroke="blue" stroke-width="2" />
<path d="M974,4095 L4519,5176" stroke="blue" stroke-width="2" />
<path d="M6439,2947 L4957,4493" stroke="blue" stroke-width="2" />
<path d="M1335,4074 L6698,5923" stroke="blue" stroke-width="2" />
<path d="M3453,2748 L2159,49" stroke="blue" stroke-width="2" />
<path d="M5732,6622 L133,2121" stroke="blue" stroke-width="2" />
<path d="M930,140 L4475,5536" stroke="blue" stroke-width="2" />
<path d="M3937,5450 L4811,2487" stroke="blue" stroke-width="2" />
<path d="M6214,450 L94,1846" stroke="blue" stroke-width="2" />
<path d="M2861,3283 L6056,6387" stroke="blue" stroke-width="2" />
<path d="M2611,1364 L5643,234" stroke="blue" stroke-width="2" />
<path d="M2898,4876 L1875,5839" stroke="blue" stroke-width="2" />
<path d="M1913,4377 L2955,4449" stroke="blue" stroke-width="2" />
<path d="M1723,523 L1618,3221" stroke="blue" stroke-width="2" />
<path d="M2822,1721 L2035,6468" stroke="blue" stroke-width="2" />
<path d="M4468,2159 L5104,5619" stroke="blue" stroke-width="2" />
<path d="M1899,1945 L601,1894" stroke="blue" stroke-width="2" />
<path d="M6569,5584 L3168,6642" stroke="blue" stroke-width="2" />
<path d="M2975,1022 L6017,5118" stroke="blue" stroke-width="2" />
<path d="M473,2419 L3846,2961" stroke="blue" stroke-width="2" />
<path d="M5502,4813 L2806,907" stroke="blue" stroke-width="2" />
<path d="M5510,5963 L3441,4021" stroke="blue" stroke-width="2" />
<path d="M3226,4028 L4306,18" stroke="blue" stroke-width="2" />
<path d="M5026,4780 L4685,6765" stroke="blue" stroke-width="2" />
<path d="M3457,4674 L2625,572" stroke="blue" stroke-width="2" />
<path d="M821,3399 L3481,6194" stroke="blue" stroke-width="2" />
<path d="M3829,3784 L5752,715" stroke="blue" stroke-width="2" />
<path d="M4128,334 L5721,74" stroke="blue" stroke-width="2" />
<path d="M5183,915 L2430,2859" stroke="blue" stroke-width="2" />
<path d="M2819,4510 L4324,5035" stroke="blue" stroke-width="2" />
<path d="M3649,2311 L5472,6311" stroke="blue" stroke-width="2" />
<path d="M4016,3995 L2038,1575" stroke="blue" stroke-width="2" />
<path d="M4753,5395 L2452,4681" stroke="blue" stroke-width="2" />
<path d="M6019,2644 L328,6132" stroke="blue" stroke-width="2" />
<path d="M6678,6409 L2859,1723" stroke="blue" stroke-width="2" />
<path d="M5137,3955 L4730,340" stroke="blue" stroke-width="2" />
<path d="M5142,6004 L1286,6800" stroke="blue" stroke-width="2" />
<path d="M6533,6343 L2448,3509" stroke="blue" stroke-width="2" />
<path d="M3593,4489 L3306,841" stroke="blue" stroke-width="2" />
<path d="M6614,6473 L5513,75" stroke="blue" stroke-width="2" />
<path d="M2761,4999 L1075,5992" stroke="blue" stroke-width="2" />
<path d="M2616,6527 L2303,1632" stroke="blue" stroke-width="2" />
<path d="M2045,978 L4251,215" stroke="blue" stroke-width="2" />
<path d="M1472,6691 L2632,484" stroke="blue" stroke-width="2" />
<path d="M1927,6744 L4422,3505" stroke="blue" stroke-width="2" />
<path d="M1318,5132 L6638,5975" stroke="blue" stroke-width="2" />
<path d="M1838,542 L5747,10" stroke="blue" stroke-width="2" />
<path d="M1553,573 L5422,3951" stroke="blue" stroke-width="2" />
<path d="M4330,5079 L4783,1454" stroke="blue" stroke-width="2" />
<path d="M3719,5884 L2696,5510" stroke="blue" stroke-width="2" />
<path d="M2732,2254 L2496,6856" stroke="blue" stroke-width="2" />
<path d="M4557,2477 L4603,4906" stroke="blue" stroke-width="2" />
<path d="M4934,3978 L3169,1064" stroke="blue" stroke-width="2" />
<path d="M1995,4692 L3866,5429" stroke="blue" stroke-width="2" />
<path d="M3466,186 L6084,1010" stroke="blue" stroke-width="2" />
<path d="M5358,1849 L6158,3909" stroke="blue" stroke-width="2" />
<path d="M3113,4180 L4000,3194" stroke="blue" stroke-width="2" />
<path d="M26,5344 L6186,2528" stroke="blue" stroke-width="2" />
<path d="M6433,1971 L6245,4286" stroke="blue" stroke-width="2" />
<path d="M1217,5354 L3520,2912" stroke="blue" stroke-width="2" />
<path d="M6575,2277 L1468,5804" stroke="blue" stroke-width="2" />
<path d="M70,6052 L613,6064" stroke="blue" stroke-width="2" />
<path d="M1454,3677 L6014,6536" stroke="blue" stroke-width="2" />
<path d="M6135,430 L956,3633" stroke="blue" stroke-width="2" />
<path d="M2732,3786 L3645,480" stroke="blue" stroke-width="2" />
<path d="M1246,297 L4402,5471" stroke="blue" stroke-width="2" />
<path d="M6484,5891 L4011,5947" stroke="blue" stroke-width="2" />
<path d="M5488,3319 L6206,6261" stroke="blue" stroke-width="2" />
<path d="M3595,2977 L6121,4773" stroke="blue" stroke-width="2" />
<path d="M3775,2022 L3166,2842" stroke="blue" stroke-width="2" />
<path d="M2176,6711 L5033,1657" stroke="blue" stroke-width="2" />
<path d="M5322,6647 L3988,4031" stroke="blue" stroke-width="2" />
<path d="M4532,4449 L6191,194" stroke="blue" stroke-width="2" />
<path d="M4923,3005 L5598,3516" stroke="blue" stroke-width="2" />
<path d="M1980,962 L2245,733" stroke="blue" stroke-width="2" />
<path d="M4689,2871 L4063,2754" stroke="blue" stroke-width="2" />
<path d="M2964,3879 L5272,433" stroke="blue" stroke-width="2" />
<path d="M4632,6599 L523,6832" stroke="blue" stroke-width="2" />
<path d="M6136,4327 L3915,6746" stroke="blue" stroke-width="2" />
<path d="M4845,4734 L3068,4840" stroke="blue" stroke-width="2" />
<path d="M5277,2154 L4584,566" stroke="blue" stroke-width="2" />
<path d="M5664,324 L5475,5305" stroke="blue" stroke-width="2" />
<path d="M6206,1709 L2326,1396" stroke="blue" stroke-width="2" />
<path d="M4756,2277 L2971,3531" stroke="blue" stroke-width="2" />
<path d="M4638,241 L3852,1451" stroke="blue" stroke-width="2" />
<path d="M6586,2333 L6427,6796" stroke="blue" stroke-width="2" />
<path d="M4963,1046 L6192,6110" stroke="blue" stroke-width="2" />
<path d="M4453,2513 L1457,4243" stroke="blue" stroke-width="2" />
<path d="M6546,96 L1521,2863" stroke="blue" stroke-width="2" />
<path d="M5466,243 L1486,5578" stroke="blue" stroke-width="2" />
<path d="M1442,3112 L4846,560" stroke="blue" stroke-width="2" />
<path d="M3970,2032 L3578,2532" stroke="blue" stroke-width="2" />
<path d="M971,5395 L542,5557" stroke="blue" stroke-width="2" />
<path d="M1882,2476 L6082,4045" stroke="blue" stroke-width="2" />
<path d="M5278,2313 L2000,2633" stroke="blue" stroke-width="2" />
<path d="M3219,5211 L4558,3774" stroke="blue" stroke-width="2" />
<path d="M4166,6505 L4716,3296" stroke="blue" stroke-width="2" />
<path d="M5943,3729 L4065,6880" stroke="blue" stroke-width="2" />
<path d="M3395,5578 L2130,1506" stroke="blue" stroke-width="2" />
<path d="M6298,4828 L5497,5191" stroke="blue" stroke-width="2" />
<path d="M2450,4617 L4694,4678" stroke="blue" stroke-width="2" />
<path d="M4629,4170 L397,2508" stroke="blue" stroke-width="2" />
<path d="M3222,3758 L2313,57" stroke="blue" stroke-width="2" />
<path d="M5494,3583 L3389,3375" stroke="blue" stroke-width="2" />
<path d="M2673,4550 L1176,4546" stroke="blue" stroke-width="2" />
<path d="M1062,5848 L3236,3926" stroke="blue" stroke-width="2" />
<path d="M2628,6445 L5388,6198" stroke="blue" stroke-width="2" />
<path d="M2184,2320 L1738,134" stroke="blue" stroke-width="2" />
<path d="M126,2942 L528,6716" stroke="blue" stroke-width="2" />
<path d="M3439,2308 L5454,491" stroke="blue" stroke-width="2" />
<path d="M534,1716 L2167,2642" stroke="blue" stroke-width="2" />
<path d="M105,6409 L615,6605" stroke="blue" stroke-width="2" />
<path d="M2866,4738 L3279,4420" stroke="blue" stroke-width="2" />
<path d="M6064,4208 L454,5075" stroke="blue" stroke-width="2" />
<path d="M5176,4149 L378,2586" stroke="blue" stroke-width="2" />
<path d="M2158,1553 L1913,1905" stroke="blue" stroke-width="2" />
<path d="M6067,3990 L427,6483" stroke="blue" stroke-width="2" />
<path d="M5368,3263 L6609,6493" stroke="blue" stroke-width="2" />
<path d="M3217,5235 L2109,5099" stroke="blue" stroke-width="2" />
<path d="M856,1151 L500,1822" stroke="blue" stroke-width="2" />
<path d="M4185,567 L702,6099" stroke="blue" stroke-width="2" />
<path d="M1449,5146 L963,4123" stroke="blue" stroke-width="2" />
<path d="M3099,5596 L3022,6142" stroke="blue" stroke-width="2" />
<path d="M6370,5435 L3481,3550" stroke="blue" stroke-width="2" />
<path d="M4016,1480 L6311,1131" stroke="blue" stroke-width="2" />
<path d="M5048,1042 L4694,267" stroke="blue" stroke-width="2" />
<path d="M2406,5026 L3889,539" stroke="blue" stroke-width="2" />
<path d="M2655,936 L5949,5337" stroke="blue" stroke-width="2" />
<path d="M6502,6490 L5428,2059" stroke="blue" stroke-width="2" />
<path d="M3587,4755 L1413,2843" stroke="blue" stroke-width="2" />
<path d="M5047,2429 L6479,5340" stroke="blue" stroke-width="2" />
<path d="M5441,4646 L6096,2474" stroke="blue" stroke-width="2" />
<path d="M4947,5931 L3032,651" stroke="blue" stroke-width="2" />
<path d="M1613,6467 L4329,2200" stroke="blue" stroke-width="2" />
<path d="M5099,4040 L2737,1641" stroke="blue" stroke-width="2" />
<path d="M751,2381 L5053,1956" stroke="blue" stroke-width="2" />
<path d="M6531,1891 L4088,1710" stroke="blue" stroke-width="2" />
<path d="M4185,3986 L4837,1615" stroke="blue" stroke-width="2" />
<path d="M6539,6072 L4175,2027" stroke="blue" stroke-width="2" />
<path d="M3416,4618 L1411,3300" stroke="blue" stroke-width="2" />
<path d="M6263,1479 L2229,4418" stroke="blue" stroke-width="2" />
<path d="M1905,5825 L1389,4781" stroke="blue" stroke-width="2" />
<path d="M4321,5799 L4672,6474" stroke="blue" stroke-width="2" />
<path d="M5588,1076 L3130,3423" stroke="blue" stroke-width="2" />
<path d="M4931,6566 L6444,2409" stroke="blue" stroke-width="2" />
<path d="M2844,2783 L4638,1856" stroke="blue" stroke-width="2" />
<path d="M3352,5735 L4571,2660" stroke="blue" stroke-width="2" />
<path d="M2550,325 L4913,3901" stroke="blue" stroke-width="2" />
<path d="M5342,2335 L6065,2723" stroke="blue" stroke-width="2" />
<path d="M955,4800 L4583,2705" stroke="blue" stroke-width="2" />
<path d="M2858,6288 L2791,558" stroke="blue" stroke-width="2" />
<path d="M229,3052 L2242,3923" stroke="blue" stroke-width="2" />
<path d="M6649,1615 L2998,3467" stroke="blue" stroke-width="2" />
<path d="M3755,5490 L2978,2807" stroke="blue" stroke-width="2" />
<path d="M5667,1675 L1672,2896" stroke="blue" stroke-width="2" />
<path d="M4834,4382 L5163,5347" stroke="blue" stroke-width="2" />
<path d="M6095,4233 L4211,6586" stroke="blue" stroke-width="2" />
<path d="M110,180 L5963,4788" stroke="blue" stroke-width="2" />
<path d="M1994,3229 L2919,596" stroke="blue" stroke-width="2" />
<path d="M4315,5439 L419,1580" stroke="blue" stroke-width="2" />
<path d="M391,5711 L1089,5144" stroke="blue" stroke-width="2" />
<path d="M1463,1804 L3798,3253" stroke="blue" stroke-width="2" />
<path d="M5705,683 L5555,742" stroke="blue" stroke-width="2" />
<path d="M1195,3662 L2533,6196" stroke="blue" stroke-width="2" />
<path d="M264,6725 L2567,4106" stroke="blue" stroke-width="2" />
<path d="M1922,6518 L6551,1358" stroke="blue" stroke-width="2" />
<path d="M4334,5293 L3657,1043" stroke="blue" stroke-width="2" />
<path d="M1619,237 L5995,5645" stroke="blue" stroke-width="2" />
<path d="M5067,3924 L1882,6304" stroke="blue" stroke-width="2" />
<path d="M6227,6771 L806,438" stroke="blue" stroke-width="2" />
<path d="M3469,6735 L4511,4958" stroke="blue" stroke-width="2" />
<path d="M207,6813 L5838,3608" stroke="blue" stroke-width="2" />
<path d="M1342,949 L215,2741" stroke="blue" stroke-width="2" />
<path d="M1495,4045 L6106,6788" stroke="blue" stroke-width="2" />
<path d="M4189,4696 L1305,1537" stroke="blue" stroke-width="2" />
<path d="M4370,5754 L5773,6861" stroke="blue" stroke-width="2" />
<path d="M288,783 L959,1283" stroke="blue" stroke-width="2" />
<path d="M4733,6889 L2568,2250" stroke="blue" stroke-width="2" />
<path d="M854,3552 L4132,3944" stroke="blue" stroke-width="2" />
<path d="M5013,1144 L1717,3086" stroke="blue" stroke-width="2" />
<path d="M60,4198 L5946,13" stroke="blue" stroke-width="2" />
<path d="M5893,4154 L5059,3107" stroke="blue" stroke-width="2" />
<path d="M5705,1311 L564,159" stroke="blue" stroke-width="2" />
<path d="M4009,4579 L4304,6687" stroke="blue" stroke-width="2" />
<path d="M866,6172 L1051,4846" stroke="blue" stroke-width="2" />
<path d="M5543,5965 L6610,2475" stroke="blue" stroke-width="2" />
<path d="M6546,952 L768,2910" stroke="blue" stroke-width="2" />
<path d="M1892,554 L2262,4500" stroke="blue" stroke-width="2" />
<path d="M346,5169 L3314,3509" stroke="blue" stroke-width="2" />
<path d="M1051,2556 L5011,6447" stroke="blue" stroke-width="2" />
<path d="M4560,5299 L1909,6241" stroke="blue" stroke-width="2" />
<path d="M188,5583 L6064,4120" stroke="blue" stroke-width="2" />
<path d="M196,2363 L649,5259" stroke="blue" stroke-width="2" />
<path d="M4463,3137 L5185,2278" stroke="blue" stroke-width="2" />
<path d="M5674,1640 L3579,2849" stroke="blue" stroke-width="2" />
<path d="M2894,5554 L5588,4649" stroke="blue" stroke-width="2" />
<path d="M3747,1883 L3123,6236" stroke="blue" stroke-width="2" />
<path d="M5683,6756 L3720,5729" stroke="blue" stroke-width="2" />
<path d="M3152,710 L6557,5045" stroke="blue" stroke-width="2" />
<path d="M632,2147 L3169,1797" stroke="blue" stroke-width="2" />
<path d="M1710,5593 L1916,5286" stroke="blue" stroke-width="2" />
<path d="M1397,608 L5057,6882" stroke="blue" stroke-width="2" />
<path d="M2683,863 L6169,4700" stroke="blue" stroke-width="2" />
<path d="M3457,978 L5878,6647" stroke="blue" stroke-width="2" />
<path d="M240,3885 L2968,6579" stroke="blue" stroke-width="2" />
<path d="M889,6215 L2576,5078" stroke="blue" stroke-width="2" />
<path d="M6357,2447 L5887,6349" stroke="blue" stroke-width="2" />
<path d="M4444,686 L1681,3138" stroke="blue" stroke-width="2" />
<path d="M3809,4243 L3541,1750" stroke="blue" stroke-width="2" />
<path d="M1264,6047 L465,2075" stroke="blue" stroke-width="2" />
<path d="M6641,2112 L4946,3992" stroke="blue" stroke-width="2" />
<path d="M4300,2757 L1439,6887" stroke="blue" stroke-width="2" />
<path d="M5759,3284 L4088,6793" stroke="blue" stroke-width="2" />
<path d="M6232,1111 L5720,6860" stroke="blue" stroke-width="2" />
<path d="M194,6153 L4255,5684" stroke="blue" stroke-width="2" />
<path d="M3555,117 L2050,3369" stroke="blue" stroke-width="2" />
<path d="M4090,173 L4194,2768" stroke="blue" stroke-width="2" />
<path d="M4363,3711 L3785,6818" stroke="blue" stroke-width="2" />
<path d="M5539,317 L762,2324" stroke="blue" stroke-width="2" />
<path d="M1701,4695 L927,557" stroke="blue" stroke-width="2" />
<path d="M6129,1608 L6512,681" stroke="blue" stroke-width="2" />
<path d="M319,933 L6430,3133" stroke="blue" stroke-width="2" />
<path d="M3414,444 L1920,6520" stroke="blue" stroke-width="2" />
<path d="M2626,4361 L942,425" stroke="blue" stroke-width="2" />
<path d="M4616,6180 L2104,5282" stroke="blue" stroke-width="2" />
<path d="M4430,4675 L3066,211" stroke="blue" stroke-width="2" />
<path d="M906,4730 L1996,3850" stroke="blue" stroke-width="2" />
<path d="M6099,421 L4621,953" stroke="blue" stroke-width="2" />
<path d="M695,2910 L1289,1383" stroke="blue" stroke-width="2" />
<path d="M4572,1809 L6129,6663" stroke="blue" stroke-width="2" />
<path d="M4667,6168 L1775,735" stroke="blue" stroke-width="2" />
<path d="M2812,751 L2532,6264" stroke="blue" stroke-width="2" />
<path d="M4873,1349 L687,4815" stroke="blue" stroke-width="2" />
<path d="M1471,582 L4163,4046" stroke="blue" stroke-width="2" />
<path d="M3326,669 L5589,2074" stroke="blue" stroke-width="2" />
<path d="M2958,5659 L976,1561" stroke="blue" stroke-width="2" />
<path d="M4919,2730 L5478,2048" stroke="blue" stroke-width="2" />
<path d="M6669,643 L1725,5462" stroke="blue" stroke-width="2" />
<path d="M1965,6629 L6408,999" stroke="blue" stroke-width="2" />
<path d="M930,5360 L2768,1787" stroke="blue" stroke-width="2" />
<path d="M6057,4665 L580,3068" stroke="blue" stroke-width="2" />
<path d="M3853,5363 L6714,6579" stroke="blue" stroke-width="2" />
<path d="M499,6119 L5135,4219" stroke="blue" stroke-width="2" />
<path d="M2838,5297 L4445,4449" stroke="blue" stroke-width="2" />
<path d="M735,5732 L5091,3569" stroke="blue" stroke-width="2" />
<path d="M944,1470 L4815,5404" stroke="blue" stroke-width="2" />
<path d="M3835,3692 L1199,5514" stroke="blue" stroke-width="2" />
<path d="M6341,3602 L6082,5125" stroke="blue" stroke-width="2" />
<path d="M3081,1821 L4724,3607" stroke="blue" stroke-width="2" />
<path d="M1949,5505 L610,3640" stroke="blue" stroke-width="2" />
<path d="M4399,2561 L3383,5918" stroke="blue" stroke-width="2" />
<path d="M4272,6333 L575,4999" stroke="blue" stroke-width="2" />
<path d="M893,1327 L4537,3052" stroke="blue" stroke-width="2" />
<path d="M6364,859 L1891,675" stroke="blue" stroke-width="2" />
<path d="M1688,1197 L1443,5401" stroke="blue" stroke-width="2" />
<path d="M4744,6876 L3651,1554" stroke="blue" stroke-width="2" />
<path d="M1761,1851 L5662,4383" stroke="blue" stroke-width="2" />
<path d="M4430,3414 L1906,4539" stroke="blue" stroke-width="2" />
<path d="M5444,439 L4516,4857" stroke="blue" stroke-width="2" />
<path d="M1259,6211 L6372,2733" stroke="blue" stroke-width="2" />
<path d="M227,2702 L2588,1298" stroke="blue" stroke-width="2" />
<path d="M936,5833 L3955,5962" stroke="blue" stroke-width="2" />
<path d="M1096,2252 L1489,5239" stroke="blue" stroke-width="2" />
<path d="M3298,107 L5940,1035" stroke="blue" stroke-width="2" />
<path d="M4688,6076 L994,1389" stroke="blue" stroke-width="2" />
<path d="M1037,6804 L4425,4312" stroke="blue" stroke-width="2" />
<path d="M62,6574 L2421,5525" stroke="blue" stroke-width="2" />
<path d="M767,4212 L6049,2220" stroke="blue" stroke-width="2" />
<path d="M742,4628 L2763,6636" stroke="blue" stroke-width="2" />
<path d="M1262,1143 L4805,3854" stroke="blue" stroke-width="2" />
<path d="M3269,3746 L1748,5785" stroke="blue" stroke-width="2" />
<path d="M2668,5017 L4791,1792" stroke="blue" stroke-width="2" />
<path d="M6193,2924 L4136,6560" stroke="blue" stroke-width="2" />
<path d="M2064,2731 L2980,3102" stroke="blue" stroke-width="2" />
<path d="M4406,2263 L5666,4176" stroke="blue" stroke-width="2" />
<path d="M712,4188 L5342,1536" stroke="blue" stroke-width="2" />
<path d="M1242,5949 L1423,5142" stroke="blue" stroke-width="2" />
<path d="M3635,2610 L6132,6398" stroke="blue" stroke-width="2" />
<path d="M2117,2415 L723,4653" stroke="blue" stroke-width="2" />
<path d="M240,3950 L411,473" stroke="blue" stroke-width="2" />
<path d="M3069,142 L2812,4509" stroke="blue" stroke-width="2" />
<path d="M5683,613 L1192,1161" stroke="blue" stroke-width="2" />
<path d="M6626,4410 L4414,2159" stroke="blue" stroke-width="2" />
<path d="M3009,6588 L969,4728" stroke="blue" stroke-width="2" />
<path d="M2130,5443 L4882,1794" stroke="blue" stroke-width="2" />
<path d="M4602,3536 L5327,5762" stroke="blue" stroke-width="2" />
<path d="M6660,772 L2103,5266" stroke="blue" stroke-width="2" />
<path d="M5281,2584 L6694,4732" stroke="blue" stroke-width="2" />
<path d="M2919,4436 L3435,6025" stroke="blue" stroke-width="2" />
<path d="M1349,449 L4288,2708" stroke="blue" stroke-width="2" />
<path d="M3271,3862 L2827,4402" stroke="blue" stroke-width="2" />
<path d="M1208,1306 L5751,6015" stroke="blue" stroke-width="2" />
<path d="M721,3854 L3488,3641" stroke="blue" stroke-width="2" />
<path d="M3708,2801 L173,5474" stroke="blue" stroke-width="2" />
<path d="M4329,2759 L3945,3853" stroke="blue" stroke-width="2" />
<path d="M3829,2747 L2025,5149" stroke="blue" stroke-width="2" />
<path d="M2063,662 L6448,937" stroke="blue" stroke-width="2" />
<path d="M6618,3355 L4195,1057" stroke="blue" stroke-width="2" />
<path d="M6714,1184 L4086,3362" stroke="blue" stroke-width="2" />
<path d="M1524,1311 L331,2392" stroke="blue" stroke-width="2" />
<path d="M255,2747 L480,4301" stroke="blue" stroke-width="2" />
<path d="M3700,5597 L2030,5929" stroke="blue" stroke-width="2" />
<path d="M2276,3071 L4604,3593" stroke="blue" stroke-width="2" />
<path d="M5216,4966 L5577,4933" stroke="blue" stroke-width="2" />
<path d="M4583,5032 L317,3274" stroke="blue" stroke-width="2" />
<path d="M601,6526 L946,5649" stroke="blue" stroke-width="2" />
<path d="M1512,3785 L4381,5555" stroke="blue" stroke-width="2" />
<path d="M2386,6500 L6226,2019" stroke="blue" stroke-width="2" />
<path d="M4082,3930 L6442,2580" stroke="blue" stroke-width="2" />
<path d="M965,735 L3737,1271" stroke="blue" stroke-width="2" />
<path d="M6451,566 L639,6456" stroke="blue" stroke-width="2" />
<path d="M4507,3133 L1895,689" stroke="blue" stroke-width="2" />
<path d="M1559,972 L3388,4609" stroke="blue" stroke-width="2" />
<path d="M190,6587 L6400,3249" stroke="blue" stroke-width="2" />
<path d="M722,64 L4538,5570" stroke="blue" stroke-width="2" />
<path d="M5208,727 L4672,5934" stroke="blue" stroke-width="2" />
<path d="M5416,6005 L6624,1458" stroke="blue" stroke-width="2" />
<path d="M532,4476 L1360,60" stroke="blue" stroke-width="2" />
<path d="M501,830 L4374,6096" stroke="blue" stroke-width="2" />
<path d="M88,5591 L6312,4464" stroke="blue" stroke-width="2" />
<path d="M3021,1494 L2676,3726" stroke="blue" stroke-width="2" />
<path d="M4954,2907 L5581,2456" stroke="blue" stroke-width="2" />
<path d="M1240,3973 L3594,5594" stroke="blue" stroke-width="2" />
<path d="M523,1355 L2202,2310" stroke="blue" stroke-width="2" />
<path d="M4518,770 L3756,4810" stroke="blue" stroke-width="2" />
<path d="M60,4598 L3970,927" stroke="blue" stroke-width="2" />
<path d="M6036,5423 L5211,6267" stroke="blue" stroke-width="2" />
<path d="M5638,6194 L4956,4631" stroke="blue" stroke-width="2" />
<path d="M4632,199 L4467,3577" stroke="blue" stroke-width="2" />
<path d="M4674,5013 L2313,26" stroke="blue" stroke-width="2" />
<path d="M4311,4699 L1470,6763" stroke="blue" stroke-width="2" />
<path d="M6121,2974 L3760,2329" stroke="blue" stroke-width="2" />
<path d="M3545,6231 L856,5459" stroke="blue" stroke-width="2" />
<path d="M4283,4252 L2773,617" stroke="blue" stroke-width="2" />
<path d="M3044,6281 L3441,4557" stroke="blue" stroke-width="2" />
<path d="M569,759 L3984,2151" stroke="blue" stroke-width="2" />
<path d="M4792,3785 L1623,6375" stroke="blue" stroke-width="2" />
<path d="M738,3792 L2154,6815" stroke="blue" stroke-width="2" />
<path d="M6630,732 L5146,5655" stroke="blue" stroke-width="2" />
<path d="M4381,2076 L712,4143" stroke="blue" stroke-width="2" />
<path d="M2836,4496 L1519,5898" stroke="blue" stroke-width="2" />
<path d="M6456,3012 L4258,1850" stroke="blue" stroke-width="2" />
<path d="M5646,676 L2296,65" stroke="blue" stroke-width="2" />
<path d="M4382,819 L5275,1083" stroke="blue" stroke-width="2" />
<path d="M6431,3561 L5536,5022" stroke="blue" stroke-width="2" />
<path d="M5403,1791 L907,5228" stroke="blue" stroke-width="2" />
<path d="M3224,6430 L4637,4709" stroke="blue" stroke-width="2" />
<path d="M5459,231 L4018,3608" stroke="blue" stroke-width="2" />
<path d="M594,96 L5773,1468" stroke="blue" stroke-width="2" />
<path d="M334,6660 L492,4895" stroke="blue" stroke-width="2" />
<path d="M5469,4332 L498,1065" stroke="blue" stroke-width="2" />
<path d="M4715,1600 L3936,5281" stroke="blue" stroke-width="2" />
<path d="M3507,2316 L4207,6018" stroke="blue" stroke-width="2" />
<path d="M1181,1644 L2458,3067" stroke="blue" stroke-width="2" />
<path d="M896,273 L4190,1680" stroke="blue" stroke-width="2" />
<path d="M3346,2391 L998,1856" stroke="blue" stroke-width="2" />
<path d="M3260,6819 L3105,6351" stroke="blue" stroke-width="2" />
<path d="M1060,6164 L36,4676" stroke="blue" stroke-width="2" />
<path d="M3129,854 L3704,4680" stroke="blue" stroke-width="2" />
<path d="M887,2255 L4604,1979" stroke="blue" stroke-width="2" />
<path d="M2301,1624 L4560,34" stroke="blue" stroke-width="2" />
<path d="M4779,6850 L3973,5703" stroke="blue" stroke-width="2" />
<path d="M3210,3927 L3270,6181" stroke="blue" stroke-width="2" />
<path d="M3081,2602 L4641,4204" stroke="blue" stroke-width="2" />
<path d="M2744,4870 L2188,3098" stroke="blue" stroke-width="2" />
<path d="M5089,2932 L1944,2107" stroke="blue" stroke-width="2" />
<path d="M5238,6793 L3104,1917" stroke="blue" stroke-width="2" />
<path d="M3006,4230 L5213,4148" stroke="blue" stroke-width="2" />
<path d="M1931,3811 L202,2021" stroke="blue" stroke-width="2" />
<path d="M2072,2062 L1759,6057" stroke="blue" stroke-width="2" />
<path d="M5474,4671 L2805,6029" stroke="blue" stroke-width="2" />
<path d="M2357,3864 L6447,5581" stroke="blue" stroke-width="2" />
<path d="M5577,4997 L46,3178" stroke="blue" stroke-width="2" />
<path d="M3388,1259 L2156,3179" stroke="blue" stroke-width="2" />
<path d="M2106,13 L4392,952" stroke="blue" stroke-width="2" />
<path d="M3104,577 L4019,4568" stroke="blue" stroke-width="2" />
<path d="M4055,6682 L6039,5781" stroke="blue" stroke-width="2" />
<path d="M2643,5071 L5560,1419" stroke="blue" stroke-width="2" />
<path d="M5029,930 L2872,6413" stroke="blue" stroke-width="2" />
<path d="M5593,4455 L899,6367" stroke="blue" stroke-width="2" />
<path d="M5310,910 L5416,913" stroke="blue" stroke-width="2" />
<path d="M1624,71 L4976,2722" stroke="blue" stroke-width="2" />
<path d="M2680,5984 L5634,3333" stroke="blue" stroke-width="2" />
<path d="M3875,5441 L4082,1325" stroke="blue" stroke-width="2" />
<path d="M617,4531 L5105,252" stroke="blue" stroke-width="2" />
<path d="M2363,6206 L3476,5120" stroke="blue" stroke-width="2" />
<path d="M1341,4312 L2289,1293" stroke="blue" stroke-width="2" />
<path d="M4383,2573 L4800,6740" stroke="blue" stroke-width="2" />
<path d="M298,3145 L1050,3953" stroke="blue" stroke-width="2" />
<path d="M520,4343 L3213,4403" stroke="blue" stroke-width="2" />
<path d="M4007,5673 L5231,2370" stroke="blue" stroke-width="2" />
<path d="M4742,2812 L762,4264" stroke="blue" stroke-width="2" />
<path d="M896,4984 L4968,1443" stroke="blue" stroke-width="2" />
<path d="M14,6481 L896,6014" stroke="blue" stroke-width="2" />
<path d="M1606,5687 L871,1960" stroke="blue" stroke-width="2" />
<path d="M2492,1496 L3298,2908" stroke="blue" stroke-width="2" />
<path d="M3588,4917 L5407,3166" stroke="blue" stroke-width="2" />
<path d="M4708,3638 L6693,4463" stroke="blue" stroke-width="2" />
<path d="M977,774 L5588,2162" stroke="blue" stroke-width="2" />
<path d="M870,4143 L1218,5166" stroke="blue" stroke-width="2" />
<path d="M4805,350 L4660,5294" stroke="blue" stroke-width="2" />
<path d="M1412,4703 L6006,5304" stroke="blue" stroke-width="2" />
<path d="M3215,5801 L2624,1377" stroke="blue" stroke-width="2" />
<path d="M1092,3588 L2268,829" stroke="blue" stroke-width="2" />
<path d="M1149,3055 L4014,1659" stroke="blue" stroke-width="2" />
<path d="M3644,2565 L6466,2433" stroke="blue" stroke-width="2" />
<path d="M934,29 L3028,1502" stroke="blue" stroke-width="2" />
<path d="M3651,6110 L5814,5155" stroke="blue" stroke-width="2" />
<path d="M1047,5672 L4657,3822" stroke="blue" stroke-width="2" />
<path d="M5344,2626 L6413,2149" stroke="blue" stroke-width="2" />
<path d="M5656,3620 L1329,6403" stroke="blue" stroke-width="2" />
<path d="M6467,1002 L1583,3987" stroke="blue" stroke-width="2" />
<path d="M1029,701 L6308,982" stroke="blue" stroke-width="2" />
<path d="M6045,1370 L2517,2669" stroke="blue" stroke-width="2" />
<path d="M1884,478 L4094,4521" stroke="blue" stroke-width="2" />
<path d="M6238,6513 L6433,4944" stroke="blue" stroke-width="2" />
<path d="M5946,2010 L5642,1576" stroke="blue" stroke-width="2" />
<path d="M1961,6736 L1076,4048" stroke="blue" stroke-width="2" />
<path d="M863,2897 L5100,5635" stroke="blue" stroke-width="2" />
<path d="M4656,3339 L3878,171" stroke="blue" stroke-width="2" />
<path d="M6382,1532 L2182,2092" stroke="blue" stroke-width="2" />
<path d="M99,4018 L33,1322" stroke="blue" stroke-width="2" />
<path d="M1489,4946 L3136,6814" stroke="blue" stroke-width="2" />
<path d="M3857,2353 L805,3525" stroke="blue" stroke-width="2" />
<path d="M1502,4853 L2384,6111" stroke="blue" stroke-width="2" />
<path d="M388,3192 L1416,1319" stroke="blue" stroke-width="2" />
<path d="M2119,1186 L1511,4113" stroke="blue" stroke-width="2" />
<path d="M1449,740 L2610,3885" stroke="blue" stroke-width="2" />
<path d="M5985,6753 L2408,6561" stroke="blue" stroke-width="2" />
<path d="M4552,6576 L2875,2527" stroke="blue" stroke-width="2" />
<path d="M4071,1114 L6301,963" stroke="blue" stroke-width="2" />
<path d="M5119,5969 L540,6593" stroke="blue" stroke-width="2" />
<path d="M196,4793 L6244,5761" stroke="blue" stroke-width="2" />
<path d="M2204,547 L1829,2470" stroke="blue" stroke-width="2" />
<path d="M6473,5081 L5929,5089" stroke="blue" stroke-width="2" />
<path d="M2734,772 L4698,5623" stroke="blue" stroke-width="2" />
<path d="M3637,3739 L843,4379" stroke="blue" stroke-width="2" />
<path d="M341,5816 L2502,1549" stroke="blue" stroke-width="2" />
<path d="M4373,265 L5093,6693" stroke="blue" stroke-width="2" />
<path d="M2415,6413 L3116,4267" stroke="blue" stroke-width="2" />
<path d="M6526,5476 L3645,3132" stroke="blue" stroke-width="2" />
<path d="M2435,3829 L2003,3268" stroke="blue" stroke-width="2" />
<path d="M3755,3192 L1815,1804" stroke="blue" stroke-width="2" />
<path d="M5903,5036 L3335,2099" stroke="blue" stroke-width="2" />
<path d="M3242,2655 L5185,593" stroke="blue" stroke-width="2" />
<path d="M2696,4700 L6026,3725" stroke="blue" stroke-width="2" />
<path d="M3167,5774 L921,1958" stroke="blue" stroke-width="2" />
<path d="M4800,5803 L508,4156" stroke="blue" stroke-width="2" />
<path d="M5567,2878 L5428,2711" stroke="blue" stroke-width="2" />
<path d="M1495,3388 L159,3245" stroke="blue" stroke-width="2" />
<path d="M6586,1802 L5083,2093" stroke="blue" stroke-width="2" />
<path d="M2860,4064 L2986,4554" stroke="blue" stroke-width="2" />
<path d="M39,5539 L1756,2580" stroke="blue" stroke-width="2" />
<path d="M3510,4647 L701,1345" stroke="blue" stroke-width="2" />
<path d="M3633,6576 L4023,1403" stroke="blue" stroke-width="2" />
<path d="M1131,34 L523,4086" stroke="blue" stroke-width="2" />
<path d="M2709,5100 L2488,4386" stroke="blue" stroke-width="2" />
<path d="M2817,1757 L4353,5300" stroke="blue" stroke-width="2" />
<path d="M337,5222 L4262,1743" stroke="blue" stroke-width="2" />
<path d="M6057,4771 L4975,5534" stroke="blue" stroke-width="2" />
<path d="M4952,3745 L2003,1846" stroke="blue" stroke-width="2" />
<path d="M4840,2040 L1658,4207" stroke="blue" stroke-width="2" />
<path d="M5653,4443 L4899,3102" stroke="blue" stroke-width="2" />
<path d="M1422,6854 L5038,1789" stroke="blue" stroke-width="2" />
<path d="M2359,1598 L1772,1454" stroke="blue" stroke-width="2" />
<path d="M4795,2142 L37,5468" stroke="blue" stroke-width="2" />
<path d="M3282,6375 L3563,289" stroke="blue" stroke-width="2" />
<path d="M1798,878 L2445,1718" stroke="blue" stroke-width="2" />
<path d="M449,3612 L5359,3769" stroke="blue" stroke-width="2" />
<path d="M1425,2735 L5700,1053" stroke="blue" stroke-width="2" />
<path d="M2899,4893 L145,3179" stroke="blue" stroke-width="2" />
<path d="M1891,443 L581,5296" stroke="blue" stroke-width="2" />
<path d="M5948,1856 L4962,4" stroke="blue" stroke-width="2" />
<path d="M4706,5721 L5587,5518" stroke="blue" stroke-width="2" />
<path d="M2473,1554 L3874,648" stroke="blue" stroke-width="2" />
<path d="M3084,5838 L2155,5120" stroke="blue" stroke-width="2" />
<path d="M1032,3822 L4910,1374" stroke="blue" stroke-width="2" />
<path d="M1982,530 L3390,3163" stroke="blue" stroke-width="2" />
<path d="M45,4572 L1143,4091" stroke="blue" stroke-width="2" />
<path d="M1400,3767 L6185,2459" stroke="blue" stroke-width="2" />
<path d="M3359,1082 L4905,512" stroke="blue" stroke-width="2" />
<path d="M2563,6697 L48,4844" stroke="blue" stroke-width="2" />
<path d="M2106,2928 L4149,6647" stroke="blue" stroke-width="2" />
<path d="M288,120 L4930,3109" stroke="blue" stroke-width="2" />
<path d="M6366,2473 L71,1494" stroke="blue" stroke-width="2" />
<path d="M454,2718 L5501,3158" stroke="blue" stroke-width="2" />
<path d="M6213,56 L5797,2960" stroke="blue" stroke-width="2" />
<path d="M5480,5406 L5556,4334" stroke="blue" stroke-width="2" />
<path d="M1459,299 L681,3033" stroke="blue" stroke-width="2" />
<path d="M105,375 L5144,3792" stroke="blue" stroke-width="2" />
<path d="M1691,5288 L2369,2937" stroke="blue" stroke-width="2" />
<path d="M5640,5200 L976,3934" stroke="blue" stroke-width="2" />
<path d="M1402,4465 L4675,157" stroke="blue" stroke-width="2" />
<path d="M6648,390 L3813,3969" stroke="blue" stroke-width="2" />
<path d="M1715,356 L3561,2490" stroke="blue" stroke-width="2" />
<path d="M75,1235 L4435,6363" stroke="blue" stroke-width="2" />
<path d="M3147,1610 L2892,4870" stroke="blue" stroke-width="2" />
<path d="M3604,6264 L3883,2000" stroke="blue" stroke-width="2" />
<path d="M1586,6679 L6098,3075" stroke="blue" stroke-width="2" />
<path d="M4942,6805 L657,4189" stroke="blue" stroke-width="2" />
<path d="M3233,3835 L6394,6728" stroke="blue" stroke-width="2" />
<path d="M2285,1151 L6525,2220" stroke="blue" stroke-width="2" />
<path d="M5776,2598 L6061,6482" stroke="blue" stroke-width="2" />
<path d="M0,0 L6723,0" stroke="red" stroke-width="10" />
<path d="M6723,0 L6723,6892" stroke="red" stroke-width="10" />
<path d="M0,6892 L6723,6892" stroke="red" stroke-width="10" />
<path d="M0,6892 L0,0" stroke="red" stroke-width="10" />
</svg>