<?xml version="1.0" encoding="UTF-8"?>
<svg xmlns="http://www.w3.org/2000/svg" xmlns:xlink="http://www.w3.org/1999/xlink"
     width="10000" height="10000" viewBox="0 0 10000 10000">
<defs>
</defs>
<path d="M9565,444 L4623,372" stroke="blue" stroke-width="2" />
<path d="M4438,244 L74,2978" stroke="blue" stroke-width="2" />
<path d="M7600,209 L806,2324" stroke="blue" stroke-width="2" />
<path d="M4941,1561 L2305,2355" stroke="blue" stroke-width="2" />
<path d="M220,2692 L8843,3316" stroke="blue" stroke-width="2" />
<path d="M332,3683 L2110,3408" stroke="blue" stroke-width="2" />
<path d="M7534,2552 L6117,3449" stroke="blue" stroke-width="2" />
<path d="M1701,1057 L6746,2654" stroke="blue" stroke-width="2" />
<path d="M8200,3397 L172,1528" stroke="blue" stroke-width="2" />
<path d="M1276,3428 L4556,1146" stroke="blue" stroke-width="2" />
<path d="M60,337 L9590,2340" stroke="blue" stroke-width="2" />
<path d="M4681,1300 L8360,480" stroke="blue" stroke-width="2" />
<path d="M7822,1381 L1727,132" stroke="blue" stroke-width="2" />
<path d="M2349,3530 L6167,1975" stroke="blue" stroke-width="2" />
<path d="M9027,2768 L9197,3083" stroke="blue" stroke-width="2" />
<path d="M639,70 L1512,879" stroke="blue" stroke-width="2" />
<path d="M6395,2862 L5515,3290" stroke="blue" stroke-width="2" />
<path d="M7412,319 L1310,1968" stroke="blue" stroke-width="2" />
<path d="M6197,2656 L395,3298" stroke="blue" stroke-width="2" />
<path d="M9371,3136 L4307,1000" stroke="blue" stroke-width="2" />
<path d="M8954,1732 L4244,1577" stroke="blue" stroke-width="2" />
<path d="M5754,117 L5465,612" stroke="blue" stroke-width="2" />
<path d="M1892,2910 L2342,536" stroke="blue" stroke-width="2" />
<path d="M9181,286 L3783,1264" stroke="blue" stroke-width="2" />
<path d="M6480,2062 L8110,822" stroke="blue" stroke-width="2" />
<path d="M4928,381 L1809,3569" stroke="blue" stroke-width="2" />
<path d="M3455,1184 L4588,2712" stroke="blue" stroke-width="2" />
<path d="M4702,379 L6638,492" stroke="blue" stroke-width="2" />
<path d="M5404,60 L8674,3111" stroke="blue" stroke-width="2" />
<path d="M517,2159 L320,184" stroke="blue" stroke-width="2" />
<path d="M5561,2760 L1137,2086" stroke="blue" stroke-width="2" />
<path d="M1613,3548 L4372,2241" stroke="blue" stroke-width="2" />
<path d="M7473,3190 L2786,3202" stroke="blue" stroke-width="2" />
<path d="M8702,3048 L910,2278" stroke="blue" stroke-width="2" />
<path d="M8089,1894 L416,2707" stroke="blue" stroke-width="2" />
<path d="M7170,2111 L1976,466" stroke="blue" stroke-width="2" />
<path d="M7586,767 L1655,2025" stroke="blue" stroke-width="2" />
<path d="M4290,3612 L7995,2606" stroke="blue" stroke-width="2" />
<path d="M7246,1016 L9022,3662" stroke="blue" stroke-width="2" />
<path d="M6273,1933 L6031,2149" stroke="blue" stroke-width="2" />
<path d="M743,2596 L4759,3640" stroke="blue" stroke-width="2" />
<path d="M2228,294 L2080,2034" stroke="blue" stroke-width="2" />
<path d="M167,2177 L7049,1837" stroke="blue" stroke-width="2" />
<path d="M8811,2403 L8226,2756" stroke="blue" stroke-width="2" />
<path d="M9095,1450 L3293,2096" stroke="blue" stroke-width="2" />
<path d="M6303,2818 L1139,1859" stroke="blue" stroke-width="2" />
<path d="M2733,3149 L9021,2" stroke="blue" stroke-width="2" />
<path d="M9109,3295 L4798,2743" stroke="blue" stroke-width="2" />
<path d="M796,2808 L7078,3457" stroke="blue" stroke-width="2" />
<path d="M4711,3294 L358,650" stroke="blue" stroke-width="2" />
<path d="M2861,2049 L764,647" stroke="blue" stroke-width="2" />
<path d="M2620,3397 L458,2234" stroke="blue" stroke-width="2" />
<path d="M7958,3015 L3120,2894" stroke="blue" stroke-width="2" />
<path d="M5643,1491 L2188,2836" stroke="blue" stroke-width="2" />
<path d="M3258,953 L7638,3220" stroke="blue" stroke-width="2" />
<path d="M5408,2221 L4233,2115" stroke="blue" stroke-width="2" />
<path d="M3473,1132 L2005,3035" stroke="blue" stroke-width="2" />
<path d="M5616,3713 L9450,3710" stroke="blue" stroke-width="2" />
<path d="M2964,676 L370,399" stroke="blue" stroke-width="2" />
<path d="M2269,3031 L8394,2558" stroke="blue" stroke-width="2" />
<path d="M7622,1043 L9090,3002" stroke="blue" stroke-width="2" />
<path d="M5075,1961 L1925,233" stroke="blue" stroke-width="2" />
<path d="M6456,864 L2195,166" stroke="blue" stroke-width="2" />
<path d="M9593,3120 L6263,2251" stroke="blue" stroke-width="2" />
<path d="M6816,2298 L9091,2168" stroke="blue" stroke-width="2" />
<path d="M304,3295 L3557,2200" stroke="blue" stroke-width="2" />
<path d="M2288,1818 L4234,2134" stroke="blue" stroke-width="2" />
<path d="M5683,1036 L2454,3418" stroke="blue" stroke-width="2" />
<path d="M2974,463 L6822,2736" stroke="blue" stroke-width="2" />
<path d="M3705,408 L6630,379" stroke="blue" stroke-width="2" />
<path d="M136,2244 L7753,1100" stroke="blue" stroke-width="2" />
<path d="M8123,3261 L3307,381" stroke="blue" stroke-width="2" />
<path d="M5581,3496 L5811,2654" stroke="blue" stroke-width="2" />
<path d="M176,2024 L1311,891" stroke="blue" stroke-width="2" />
<path d="M6472,3007 L7988,1812" stroke="blue" stroke-width="2" />
<path d="M3424,394 L6085,3255" stroke="blue" stroke-width="2" />
<path d="M4377,3647 L7704,3681" stroke="blue" stroke-width="2" />
<path d="M3756,2090 L8910,190" stroke="blue" stroke-width="2" />
<path d="M7274,3171 L8993,2390" stroke="blue" stroke-width="2" />
<path d="M2687,3435 L5376,104" stroke="blue" stroke-width="2" />
<path d="M4287,1203 L1685,713" stroke="blue" stroke-width="2" />
<path d="M3219,1509 L2398,3102" stroke="blue" stroke-width="2" />
<path d="M7795,1385 L8318,2347" stroke="blue" stroke-width="2" />
<path d="M5753,2509 L5106,2602" stroke="blue" stroke-width="2" />
<path d="M964,2045 L3485,3537" stroke="blue" stroke-width="2" />
<path d="M8228,803 L4651,2659" stroke="blue" stroke-width="2" />
<path d="M6060,7 L4919,1621" stroke="blue" stroke-width="2" />
<path d="M2020,1924 L4432,394" stroke="blue" stroke-width="2" />
<path d="M852,851 L6128,1816" stroke="blue" stroke-width="2" />
<path d="M7186,2066 L607,1922" stroke="blue" stroke-width="2" />
<path d="M2739,1414 L9287,764" stroke="blue" stroke-width="2" />
<path d="M6974,786 L6622,985" stroke="blue" stroke-width="2" />
<path d="M7613,1905 L7142,50" stroke="blue" stroke-width="2" />
<path d="M7737,436 L870,2753" stroke="blue" stroke-width="2" />
<path d="M2634,989 L114,3025" stroke="blue" stroke-width="2" />
<path d="M2886,3323 L6449,571" stroke="blue" stroke-width="2" />
<path d="M4672,879 L1727,3395" stroke="blue" stroke-width="2" />
<path d="M8412,2255 L1138,2726" stroke="blue" stroke-width="2" />
<path d="M5212,3132 L2636,2598" stroke="blue" stroke-width="2" />
<path d="M5113,3269 L2579,3450" stroke="blue" stroke-width="2" />
<path d="M6260,295 L4812,2657" stroke="blue" stroke-width="2" />
<path d="M7268,1952 L8414,3092" stroke="blue" stroke-width="2" />
<path d="M5128,3731 L97,1284" stroke="blue" stroke-width="2" />
<path d="M9412,1055 L3630,1283" stroke="blue" stroke-width="2" />
<path d="M1059,3149 L2486,1548" stroke="blue" stroke-width="2" />
<path d="M3611,106 L1068,3338" stroke="blue" stroke-width="2" />
<path d="M5791,3168 L2456,136" stroke="blue" stroke-width="2" />
<path d="M4092,947 L5086,1100" stroke="blue" stroke-width="2" />
<path d="M300,776 L6147,2646" stroke="blue" stroke-width="2" />
<path d="M6507,342 L7826,1773" stroke="blue" stroke-width="2" />
<path d="M5206,1323 L3364,505" stroke="blue" stroke-width="2" />
<path d="M8605,160 L9605,1974" stroke="blue" stroke-width="2" />
<path d="M6103,126 L6390,430" stroke="blue" stroke-width="2" />
<path d="M6066,629 L1457,1288" stroke="blue" stroke-width="2" />
<path d="M8847,3759 L4858,3102" stroke="blue" stroke-width="2" />
<path d="M7250,385 L9255,3722" stroke="blue" stroke-width="2" />
<path d="M5058,2931 L3444,3472" stroke="blue" stroke-width="2" />
<path d="M6903,706 L5698,1942" stroke="blue" stroke-width="2" />
<path d="M2821,2357 L7821,220" stroke="blue" stroke-width="2" />
<path d="M9149,2495 L3512,96" stroke="blue" stroke-width="2" />
<path d="M413,3054 L6013,585" stroke="blue" stroke-width="2" />
<path d="M1602,56 L3248,2550" stroke="blue" stroke-width="2" />
<path d="M2280,3546 L4180,1663" stroke="blue" stroke-width="2" />
<path d="M5489,3431 L1264,3718" stroke="blue" stroke-width="2" />
<path d="M6592,1894 L5534,1647" stroke="blue" stroke-width="2" />
<path d="M2857,1702 L2082,1372" stroke="blue" stroke-width="2" />
<path d="M3527,367 L3603,338" stroke="blue" stroke-width="2" />
<path d="M8467,3439 L8817,1131" stroke="blue" stroke-width="2" />
<path d="M1843,2928 L6431,3564" stroke="blue" stroke-width="2" />
<path d="M4185,817 L2871,3386" stroke="blue" stroke-width="2" />
<path d="M1575,1629 L50,1533" stroke="blue" stroke-width="2" />
<path d="M6931,693 L5476,3211" stroke="blue" stroke-width="2" />
<path d="M5151,1324 L1681,2533" stroke="blue" stroke-width="2" />
<path d="M9327,380 L6734,2151" stroke="blue" stroke-width="2" />
<path d="M8525,3144 L3191,2566" stroke="blue" stroke-width="2" />
<path d="M1962,2134 L3053,3468" stroke="blue" stroke-width="2" />
<path d="M1208,3577 L5541,39" stroke="blue" stroke-width="2" />
<path d="M5429,1715 L4056,759" stroke="blue" stroke-width="2" />
<path d="M43,2137 L8760,1581" stroke="blue" stroke-width="2" />
<path d="M5140,3293 L3324,2620" stroke="blue" stroke-width="2" />
<path d="M392,3729 L3444,1961" stroke="blue" stroke-width="2" />
<path d="M69,2375 L6989,1480" stroke="blue" stroke-width="2" />
<path d="M6871,50 L8132,1049" stroke="blue" stroke-width="2" />
<path d="M50,2207 L6554,1318" stroke="blue" stroke-width="2" />
<path d="M1429,3327 L8881,1063" stroke="blue" stroke-width="2" />
<path d="M6705,784 L8749,1822" stroke="blue" stroke-width="2" />
<path d="M9279,2020 L1749,329" stroke="blue" stroke-width="2" />
<path d="M4095,489 L4309,249" stroke="blue" stroke-width="2" />
<path d="M2101,715 L9323,1166" stroke="blue" stroke-width="2" />
<path d="M8262,3492 L7509,2759" stroke="blue" stroke-width="2" />
<path d="M5229,63 L4993,1364" stroke="blue" stroke-width="2" />
<path d="M826,3362 L9207,2840" stroke="blue" stroke-width="2" />
<path d="M6104,2498 L1592,3759" stroke="blue" stroke-width="2" />
<path d="M422,506 L6508,350" stroke="blue" stroke-width="2" />
<path d="M491,2723 L7178,819" stroke="blue" stroke-width="2" />
<path d="M9377,47 L6273,216" stroke="blue" stroke-width="2" />
<path d="M3314,2891 L5833,1175" stroke="blue" stroke-width="2" />
<path d="M9094,870 L7191,1891" stroke="blue" stroke-width="2" />
<path d="M9228,3321 L7674,3184" stroke="blue" stroke-width="2" />
<path d="M1379,3145 L8351,2844" stroke="blue" stroke-width="2" />
<path d="M9199,3574 L1701,447" stroke="blue" stroke-width="2" />
<path d="M2432,3336 L1364,2171" stroke="blue" stroke-width="2" />
<path d="M5382,1553 L8604,952" stroke="blue" stroke-width="2" />
<path d="M5573,3567 L5867,735" stroke="blue" stroke-width="2" />
<path d="M8188,529 L7461,324" stroke="blue" stroke-width="2" />
<path d="M5637,1100 L1026,1086" stroke="blue" stroke-width="2" />
<path d="M1937,1861 L5649,1517" stroke="blue" stroke-width="2" />
<path d="M6391,1400 L6386,3177" stroke="blue" stroke-width="2" />
<path d="M4605,3210 L8528,1577" stroke="blue" stroke-width="2" />
<path d="M8700,2341 L6308,1382" stroke="blue" stroke-width="2" />
<path d="M1357,3272 L1580,565" stroke="blue" stroke-width="2" />
<path d="M645,1674 L7842,675" stroke="blue" stroke-width="2" />
<path d="M618,1225 L5233,3411" stroke="blue" stroke-width="2" />
<path d="M447,1142 L2838,2778" stroke="blue" stroke-width="2" />
<path d="M3425,787 L2113,1188" stroke="blue" stroke-width="2" />
<path d="M8752,1393 L6656,2670" stroke="blue" stroke-width="2" />
<path d="M6246,2220 L3755,720" stroke="blue" stroke-width="2" />
<path d="M6329,1249 L9011,1128" stroke="blue" stroke-width="2" />
<path d="M8774,375 L4459,1037" stroke="blue" stroke-width="2" />
<path d="M6830,2024 L5433,2220" stroke="blue" stroke-width="2" />
<path d="M1712,586 L6624,2050" stroke="blue" stroke-width="2" />
<path d="M5545,2256 L5469,1574" stroke="blue" stroke-width="2" />
<path d="M6774,334 L6423,1282" stroke="blue" stroke-width="2" />
<path d="M219,2725 L8940,1413" stroke="blue" stroke-width="2" />
<path d="M7321,930 L3353,2026" stroke="blue" stroke-width="2" />
<path d="M3688,2366 L8632,1251" stroke="blue" stroke-width="2" />
<path d="M6615,1553 L8120,1433" stroke="blue" stroke-width="2" />
<path d="M8149,404 L3109,992" stroke="blue" stroke-width="2" />
<path d="M7446,3292 L2160,627" stroke="blue" stroke-width="2" />
<path d="M8037,3121 L3701,1137" stroke="blue" stroke-width="2" />
<path d="M4819,2922 L73,745" stroke="blue" stroke-width="2" />
<path d="M2759,1306 L7261,1206" stroke="blue" stroke-width="2" />
<path d="M154,681 L5886,2256" stroke="blue" stroke-width="2" />
<path d="M4802,496 L2528,2733" stroke="blue" stroke-width="2" />
<path d="M6998,2257 L5584,1622" stroke="blue" stroke-width="2" />
<path d="M483,104 L4608,3723" stroke="blue" stroke-width="2" />
<path d="M7024,127 L5408,1964" stroke="blue" stroke-width="2" />
<path d="M4505,2687 L4184,546" stroke="blue" stroke-width="2" />
<path d="M8405,336 L953,923" stroke="blue" stroke-width="2" />
<path d="M3115,1235 L5248,1154" stroke="blue" stroke-width="2" />
<path d="M6614,3274 L4560,914" stroke="blue" stroke-width="2" />
<path d="M2821,481 L8345,1482" stroke="blue" stroke-width="2" />
<path d="M7101,878 L3628,1427" stroke="blue" stroke-width="2" />
<path d="M3640,2892 L8006,2334" stroke="blue" stroke-width="2" />
<path d="M9179,2895 L6984,2913" stroke="blue" stroke-width="2" />
<path d="M8899,2484 L2415,1353" stroke="blue" stroke-width="2" />
<path d="M8600,1148 L8565,2680" stroke="blue" stroke-width="2" />
<path d="M6830,1277 L7310,700" stroke="blue" stroke-width="2" />
<path d="M6945,716 L5668,2485" stroke="blue" stroke-width="2" />
<path d="M2972,991 L3769,2117" stroke="blue" stroke-width="2" />
<path d="M3724,2535 L1783,3405" stroke="blue" stroke-width="2" />
<path d="M7350,2713 L5722,2754" stroke="blue" stroke-width="2" />
<path d="M9498,3652 L4743,1002" stroke="blue" stroke-width="2" />
<path d="M3292,1844 L406,2071" stroke="blue" stroke-width="2" />
<path d="M4838,676 L7569,646" stroke="blue" stroke-width="2" />
<path d="M8488,2865 L8579,608" stroke="blue" stroke-width="2" />
<path d="M6716,2829 L4078,2885" stroke="blue" stroke-width="2" />
<path d="M2754,980 L1670,3699" stroke="blue" stroke-width="2" />
<path d="M4958,2140 L3896,2272" stroke="blue" stroke-width="2" />
<path d="M2455,1289 L7586,276" stroke="blue" stroke-width="2" />
<path d="M6432,116 L8425,2765" stroke="blue" stroke-width="2" />
<path d="M5946,1037 L2172,1534" stroke="blue" stroke-width="2" />
<path d="M2163,1277 L8124,830" stroke="blue" stroke-width="2" />
<path d="M6938,1431 L1742,436" stroke="blue" stroke-width="2" />
<path d="M1804,1324 L3300,2385" stroke="blue" stroke-width="2" />
<path d="M6486,1260 L3510,1726" stroke="blue" stroke-width="2" />
<path d="M8002,2122 L3097,320" stroke="blue" stroke-width="2" />
<path d="M6015,1934 L1825,1097" stroke="blue" stroke-width="2" />
<path d="M1305,1365 L6088,1159" stroke="blue" stroke-width="2" />
<path d="M4210,3474 L6299,2163" stroke="blue" stroke-width="2" />
<path d="M7133,473 L2158,298" stroke="blue" stroke-width="2" />
<path d="M5679,2661 L1460,2684" stroke="blue" stroke-width="2" />
<path d="M374,569 L753,2435" stroke="blue" stroke-width="2" />
<path d="M6847,2145 L3565,379" stroke="blue" stroke-width="2" />
<path d="M8718,394 L6308,1699" stroke="blue" stroke-width="2" />
<path d="M8709,881 L6746,2867" stroke="blue" stroke-width="2" />
<path d="M2513,2350 L8814,569" stroke="blue" stroke-width="2" />
<path d="M3672,1277 L129,2892" stroke="blue" stroke-width="2" />
<path d="M4587,469 L9608,2881" stroke="blue" stroke-width="2" />
<path d="M1174,2437 L8750,1099" stroke="blue" stroke-width="2" />
<path d="M5416,1449 L5267,2564" stroke="blue" stroke-width="2" />
<path d="M175,1583 L518,2334" stroke="blue" stroke-width="2" />
<path d="M6363,2053 L3397,651" stroke="blue" stroke-width="2" />
<path d="M6405,3223 L3874,176" stroke="blue" stroke-width="2" />
<path d="M8392,774 L8896,2648" stroke="blue" stroke-width="2" />
<path d="M7560,9 L7460,27" stroke="blue" stroke-width="2" />
<path d="M4039,3092 L2312,637" stroke="blue" stroke-width="2" />
<path d="M6696,1725 L7071,3483" stroke="blue" stroke-width="2" />
<path d="M2537,2741 L5427,1578" stroke="blue" stroke-width="2" />
<path d="M9214,3527 L3340,2729" stroke="blue" stroke-width="2" />
<path d="M3996,132 L8024,3084" stroke="blue" stroke-width="2" />
<path d="M8463,1769 L9472,2307" stroke="blue" stroke-width="2" />
<path d="M4482,590 L1106,3016" stroke="blue" stroke-width="2" />
<path d="M5165,2732 L3849,1781" stroke="blue" stroke-width="2" />
<path d="M5864,1694 L5337,2708" stroke="blue" stroke-width="2" />
<path d="M8975,3060 L5645,3116" stroke="blue" stroke-width="2" />
<path d="M5361,449 L4262,1783" stroke="blue" stroke-width="2" />
<path d="M1594,2537 L7542,438" stroke="blue" stroke-width="2" />
<path d="M2666,1010 L8498,374" stroke="blue" stroke-width="2" />
<path d="M319,1371 L2278,353" stroke="blue" stroke-width="2" />
<path d="M8841,1127 L4813,1231" stroke="blue" stroke-width="2" />
<path d="M417,2114 L4924,2459" stroke="blue" stroke-width="2" />
<path d="M4899,328 L7893,3606" stroke="blue" stroke-width="2" />
<path d="M238,1548 L2018,454" stroke="blue" stroke-width="2" />
<path d="M8338,2824 L163,1616" stroke="blue" stroke-width="2" />
<path d="M5901,1873 L8265,3399" stroke="blue" stroke-width="2" />
<path d="M1640,3342 L8542,901" stroke="blue" stroke-width="2" />
<path d="M9070,2534 L3731,1394" stroke="blue" stroke-width="2" />
<path d="M9469,884 L1608,1439" stroke="blue" stroke-width="2" />
<path d="M281,3518 L2830,2521" stroke="blue" stroke-width="2" />
<path d="M5372,3417 L1084,2374" stroke="blue" stroke-width="2" />
<path d="M382,1934 L4605,603" stroke="blue" stroke-width="2" />
<path d="M4061,3217 L9378,266" stroke="blue" stroke-width="2" />
<path d="M6146,3766 L7939,619" stroke="blue" stroke-width="2" />
<path d="M8637,3532 L6388,1837" stroke="blue" stroke-width="2" />
<path d="M6386,885 L3095,2367" stroke="blue" stroke-width="2" />
<path d="M4118,2571 L3883,1601" stroke="blue" stroke-width="2" />
<path d="M6794,2393 L3703,2899" stroke="blue" stroke-width="2" />
<path d="M8162,44 L3145,1953" stroke="blue" stroke-width="2" />
<path d="M3235,1971 L8199,2646" stroke="blue" stroke-width="2" />
<path d="M4855,2364 L9315,32" stroke="blue" stroke-width="2" />
<path d="M7451,3043 L459,329" stroke="blue" stroke-width="2" />
<path d="M8992,1643 L6846,2786" stroke="blue" stroke-width="2" />
<path d="M4234,1923 L6048,1404" stroke="blue" stroke-width="2" />
<path d="M6116,874 L259,1887" stroke="blue" stroke-width="2" />
<path d="M2846,541 L4272,3749" stroke="blue" stroke-width="2" />
<path d="M8340,3723 L9075,1938" stroke="blue" stroke-width="2" />
<path d="M6076,2143 L3022,3031" stroke="blue" stroke-width="2" />
<path d="M7592,3530 L9076,2268" stroke="blue" stroke-width="2" />
<path d="M2356,18 L5991,3592" stroke="blue" stroke-width="2" />
<path d="M8072,325 L6345,319" stroke="blue" stroke-width="2" />
<path d="M4471,941 L9106,672" stroke="blue" stroke-width="2" />
<path d="M9599,88 L1060,644" stroke="blue" stroke-width="2" />
<path d="M8235,1526 L2434,3374" stroke="blue" stroke-width="2" />
<path d="M3478,769 L1030,2039" stroke="blue" stroke-width="2" />
<path d="M7003,2241 L1990,3366" stroke="blue" stroke-width="2" />
<path d="M2785,3217 L4269,897" stroke="blue" stroke-width="2" />
<path d="M252,1351 L1993,2829" stroke="blue" stroke-width="2" />
<path d="M101,2205 L7397,3229" stroke="blue" stroke-width="2" />
<path d="M5600,243 L4743,828" stroke="blue" stroke-width="2" />
<path d="M8496,1410 L1618,976" stroke="blue" stroke-width="2" />
<path d="M7356,2466 L4773,2773" stroke="blue" stroke-width="2" />
<path d="M9066,1402 L6157,893" stroke="blue" stroke-width="2" />
<path d="M4756,3325 L7089,1006" stroke="blue" stroke-width="2" />
<path d="M1434,1581 L2863,539" stroke="blue" stroke-width="2" />
<path d="M9046,1969 L3811,2192" stroke="blue" stroke-width="2" />
<path d="M5448,3292 L6304,1182" stroke="blue" stroke-width="2" />
<path d="M8105,1734 L239,1248" stroke="blue" stroke-width="2" />
<path d="M9590,1972 L154,3272" stroke="blue" stroke-width="2" />
<path d="M5062,1972 L273,1860" stroke="blue" stroke-width="2" />
<path d="M5356,2444 L7051,1676" stroke="blue" stroke-width="2" />
<path d="M677,3142 L8974,3098" stroke="blue" stroke-width="2" />
<path d="M5181,622 L5199,2021" stroke="blue" stroke-width="2" />
<path d="M3069,1310 L8906,1014" stroke="blue" stroke-width="2" />
<path d="M3338,1072 L4873,3700" stroke="blue" stroke-width="2" />
<path d="M847,1729 L4256,3518" stroke="blue" stroke-width="2" />
<path d="M4318,1610 L9299,555" stroke="blue" stroke-width="2" />
<path d="M2046,1460 L6559,455" stroke="blue" stroke-width="2" />
<path d="M2381,1361 L2655,3411" stroke="blue" stroke-width="2" />
<path d="M6530,2450 L8104,3178" stroke="blue" stroke-width="2" />
<path d="M5424,2332 L170,3709" stroke="blue" stroke-width="2" />
<path d="M2590,1874 L5768,51" stroke="blue" stroke-width="2" />
<path d="M6036,790 L7264,2924" stroke="blue" stroke-width="2" />
<path d="M3372,935 L8904,1842" stroke="blue" stroke-width="2" />
<path d="M8092,1956 L4814,3410" stroke="blue" stroke-width="2" />
<path d="M136,1057 L7019,2255" stroke="blue" stroke-width="2" />
<path d="M2405,513 L2747,1003" stroke="blue" stroke-width="2" />
<path d="M3323,3203 L994,3323" stroke="blue" stroke-width="2" />
<path d="M7689,3161 L2727,2488" stroke="blue" stroke-width="2" />
<path d="M306,82 L2163,1346" stroke="blue" stroke-width="2" />
<path d="M694,1386 L8391,2243" stroke="blue" stroke-width="2" />
<path d="M1066,1791 L2402,1181" stroke="blue" stroke-width="2" />
<path d="M7019,2269 L6276,2969" stroke="blue" stroke-width="2" />
<path d="M2176,205 L9465,677" stroke="blue" stroke-width="2" />
<path d="M600,303 L1346,3350" stroke="blue" stroke-width="2" />
<path d="M7036,2589 L7418,199" stroke="blue" stroke-width="2" />
<path d="M5786,3161 L2133,762" stroke="blue" stroke-width="2" />
<path d="M5902,620 L5390,1434" stroke="blue" stroke-width="2" />
<path d="M8670,1710 L6612,468" stroke="blue" stroke-width="2" />
<path d="M4861,3677 L1854,3029" stroke="blue" stroke-width="2" />
<path d="M2096,1639 L8433,663" stroke="blue" stroke-width="2" />
<path d="M774,1924 L9128,282" stroke="blue" stroke-width="2" />
<path d="M6128,1103 L28,760" stroke="blue" stroke-width="2" />
<path d="M7132,2932 L8974,223" stroke="blue" stroke-width="2" />
<path d="M2760,3055 L1709,1073" stroke="blue" stroke-width="2" />
<path d="M417,2091 L757,807" stroke="blue" stroke-width="2" />
<path d="M4115,745 L8738,784" stroke="blue" stroke-width="2" />
<path d="M1860,60 L796,1014" stroke="blue" stroke-width="2" />
<path d="M7744,231 L8379,1133" stroke="blue" stroke-width="2" />
<path d="M8569,1972 L617,2368" stroke="blue" stroke-width="2" />
<path d="M4249,1319 L18,1036" stroke="blue" stroke-width="2" />
<path d="M5463,113 L5402,2030" stroke="blue" stroke-width="2" />
<path d="M4290,2550 L4775,817" stroke="blue" stroke-width="2" />
<path d="M8890,2736 L2817,452" stroke="blue" stroke-width="2" />
<path d="M1781,1426 L1941,1898" stroke="blue" stroke-width="2" />
<path d="M3119,1735 L5345,2414" stroke="blue" stroke-width="2" />
<path d="M4721,943 L6916,1897" stroke="blue" stroke-width="2" />
<path d="M7755,3534 L3460,2407" stroke="blue" stroke-width="2" />
<path d="M243,1679 L2959,3102" stroke="blue" stroke-width="2" />
<path d="M434,1073 L5320,2189" stroke="blue" stroke-width="2" />
<path d="M8442,1332 L5814,455" stroke="blue" stroke-width="2" />
<path d="M8374,1216 L6872,2695" stroke="blue" stroke-width="2" />
<path d="M1320,406 L5912,2395" stroke="blue" stroke-width="2" />
<path d="M8517,2382 L1143,3289" stroke="blue" stroke-width="2" />
<path d="M8720,907 L8695,3049" stroke="blue" stroke-width="2" />
<path d="M5995,314 L6573,2982" stroke="blue" stroke-width="2" />
<path d="M8807,1664 L7003,1084" stroke="blue" stroke-width="2" />
<path d="M2805,3181 L2662,1528" stroke="blue" stroke-width="2" />
<path d="M26,189 L7391,610" stroke="blue" stroke-width="2" />
<path d="M9008,991 L897,1847" stroke="blue" stroke-width="2" />
<path d="M9392,1314 L8806,1937" stroke="blue" stroke-width="2" />
<path d="M620,150 L7502,1510" stroke="blue" stroke-width="2" />
<path d="M7995,1169 L6406,2489" stroke="blue" stroke-width="2" />
<path d="M4710,1636 L7756,350" stroke="blue" stroke-width="2" />
<path d="M6940,2741 L76,1290" stroke="blue" stroke-width="2" />
<path d="M6377,1674 L5953,2527" stroke="blue" stroke-width="2" />
<path d="M3338,2475 L4228,3069" stroke="blue" stroke-width="2" />
<path d="M6019,2349 L8467,1274" stroke="blue" stroke-width="2" />
<path d="M6215,2801 L4293,2735" stroke="blue" stroke-width="2" />
<path d="M1921,1502 L2432,569" stroke="blue" stroke-width="2" />
<path d="M4924,2772 L6449,2173" stroke="blue" stroke-width="2" />
<path d="M7095,2163 L3931,1062" stroke="blue" stroke-width="2" />
<path d="M8763,154 L9171,3691" stroke="blue" stroke-width="2" />
<path d="M5219,1846 L3743,451" stroke="blue" stroke-width="2" />
<path d="M7266,532 L931,1243" stroke="blue" stroke-width="2" />
<path d="M8810,2486 L8809,1457" stroke="blue" stroke-width="2" />
<path d="M5800,1754 L4538,236" stroke="blue" stroke-width="2" />
<path d="M4595,73 L1287,2006" stroke="blue" stroke-width="2" />
<path d="M5294,1442 L383,1282" stroke="blue" stroke-width="2" />
<path d="M9435,2417 L5698,3571" stroke="blue" stroke-width="2" />
<path d="M161,726 L6314,498" stroke="blue" stroke-width="2" />
<path d="M6616,2988 L5880,1620" stroke="blue" stroke-width="2" />
<path d="M2727,1220 L2873,1394" stroke="blue" stroke-width="2" />
<path d="M9423,3536 L724,2521" stroke="blue" stroke-width="2" />
<path d="M2581,441 L8261,2701" stroke="blue" stroke-width="2" />
<path d="M5458,1675 L3787,3123" stroke="blue" stroke-width="2" />
<path d="M636,1572 L6785,578" stroke="blue" stroke-width="2" />
<path d="M2123,267 L4741,551" stroke="blue" stroke-width="2" />
<path d="M1003,2260 L9438,1339" stroke="blue" stroke-width="2" />
<path d="M8045,880 L5725,585" stroke="blue" stroke-width="2" />
<path d="M9173,606 L2736,2030" stroke="blue" stroke-width="2" />
<path d="M6550,3674 L2410,2123" stroke="blue" stroke-width="2" />
<path d="M7835,2028 L8095,518" stroke="blue" stroke-width="2" />
<path d="M7637,3677 L2287,2829" stroke="blue" stroke-width="2" />
<path d="M9528,2103 L3559,3171" stroke="blue" stroke-width="2" />
<path d="M8508,2312 L523,1597" stroke="blue" stroke-width="2" />
<path d="M5978,3268 L161,1993" stroke="blue" stroke-width="2" />
<path d="M6532,84 L5020,3419" stroke="blue" stroke-width="2" />
<path d="M5364,2747 L606,2597" stroke="blue" stroke-width="2" />
<path d="M6495,1040 L5510,2149" stroke="blue" stroke-width="2" />
<path d="M604,2623 L292,2508" stroke="blue" stroke-width="2" />
<path d="M8748,2288 L632,1431" stroke="blue" stroke-width="2" />
<path d="M5154,3593 L994,2969" stroke="blue" stroke-width="2" />
<path d="M8405,3499 L4672,2632" stroke="blue" stroke-width="2" />
<path d="M164,2215 L3126,451" stroke="blue" stroke-width="2" />
<path d="M1047,3474 L6325,1284" stroke="blue" stroke-width="2" />
<path d="M523,3230 L7983,1272" stroke="blue" stroke-width="2" />
<path d="M5229,788 L3969,2993" stroke="blue" stroke-width="2" />
<path d="M5344,2562 L3653,2052" stroke="blue" stroke-width="2" />
<path d="M415,3250 L3231,2462" stroke="blue" stroke-width="2" />
<path d="M549,2071 L2559,1359" stroke="blue" stroke-width="2" />
<path d="M1019,2442 L6588,2076" stroke="blue" stroke-width="2" />
<path d="M1266,920 L3221,1627" stroke="blue" stroke-width="2" />
<path d="M7214,1416 L8110,3544" stroke="blue" stroke-width="2" />
<path d="M3873,2978 L4445,61" stroke="blue" stroke-width="2" />
<path d="M4210,2886 L8843,2479" stroke="blue" stroke-width="2" />
<path d="M8633,3603 L9485,1958" stroke="blue" stroke-width="2" />
<path d="M1681,1233 L5451,230" stroke="blue" stroke-width="2" />
<path d="M2483,2197 L4644,1409" stroke="blue" stroke-width="2" />
<path d="M3263,2180 L8401,1243" stroke="blue" stroke-width="2" />
<path d="M1680,2725 L2812,1483" stroke="blue" stroke-width="2" />
<path d="M9112,2288 L2691,2262" stroke="blue" stroke-width="2" />
<path d="M8857,3637 L9149,3584" stroke="blue" stroke-width="2" />
<path d="M7310,1236 L4701,2216" stroke="blue" stroke-width="2" />
<path d="M8898,2176 L457,2050" stroke="blue" stroke-width="2" />
<path d="M8242,3748 L62,2363" stroke="blue" stroke-width="2" />
<path d="M2646,1281 L2717,1929" stroke="blue" stroke-width="2" />
<path d="M7062,3543 L1242,1554" stroke="blue" stroke-width="2" />
<path d="M1914,1535 L1649,3533" stroke="blue" stroke-width="2" />
<path d="M2925,1940 L1581,2929" stroke="blue" stroke-width="2" />
<path d="M1356,942 L5288,134" stroke="blue" stroke-width="2" />
<path d="M45,273 L7518,2315" stroke="blue" stroke-width="2" />
<path d="M7164,3155 L9225,3462" stroke="blue" stroke-width="2" />
<path d="M4675,573 L4346,2508" stroke="blue" stroke-width="2" />
<path d="M9333,94 L1895,1029" stroke="blue" stroke-width="2" />
<path d="M8627,3060 L136,3156" stroke="blue" stroke-width="2" />
<path d="M4376,2113 L1082,2340" stroke="blue" stroke-width="2" />
<path d="M5914,3286 L4480,1269" stroke="blue" stroke-width="2" />
<path d="M5035,2744 L9474,2186" stroke="blue" stroke-width="2" />
<path d="M875,158 L967,2912" stroke="blue" stroke-width="2" />
<path d="M294,2053 L4501,485" stroke="blue" stroke-width="2" />
<path d="M1879,1724 L7527,426" stroke="blue" stroke-width="2" />
<path d="M3844,2746 L961,18" stroke="blue" stroke-width="2" />
<path d="M6983,3156 L2874,3513" stroke="blue" stroke-width="2" />
<path d="M8850,3122 L7104,1373" stroke="blue" stroke-width="2" />
<path d="M6203,434 L7287,599" stroke="blue" stroke-width="2" />
<path d="M4949,2794 L2518,1454" stroke="blue" stroke-width="2" />
<path d="M171,2143 L7319,379" stroke="blue" stroke-width="2" />
<path d="M4351,987 L7955,661" stroke="blue" stroke-width="2" />
<path d="M4451,3421 L1550,2886" stroke="blue" stroke-width="2" />
<path d="M7786,3149 L8972,926" stroke="blue" stroke-width="2" />
<path d="M6607,904 L7847,3140" stroke="blue" stroke-width="2" />
<path d="M1622,1750 L9281,3178" stroke="blue" stroke-width="2" />
<path d="M9061,1309 L8040,648" stroke="blue" stroke-width="2" />
<path d="M6471,124 L1635,2305" stroke="blue" stroke-width="2" />
<path d="M6184,784 L7448,1054" stroke="blue" stroke-width="2" />
<path d="M3255,1944 L6650,3562" stroke="blue" stroke-width="2" />
<path d="M9190,3686 L7414,1167" stroke="blue" stroke-width="2" />
<path d="M4482,2641 L4101,3502" stroke="blue" stroke-width="2" />
<path d="M1497,2470 L613,1620" stroke="blue" stroke-width="2" />
<path d="M7985,1904 L5988,1127" stroke="blue" stroke-width="2" />
<path d="M5992,3052 L4129,1584" stroke="blue" stroke-width="2" />
<path d="M4068,173 L3929,1167" stroke="blue" stroke-width="2" />
<path d="M9087,2644 L8891,1560" stroke="blue" stroke-width="2" />
<path d="M9089,800 L3321,3728" stroke="blue" stroke-width="2" />
<path d="M5960,1081 L9553,2126" stroke="blue" stroke-width="2" />
<path d="M2194,1063 L6581,1930" stroke="blue" stroke-width="2" />
<path d="M1837,2250 L5396,3554" stroke="blue" stroke-width="2" />
<path d="M1148,917 L447,2387" stroke="blue" stroke-width="2" />
<path d="M6838,383 L4436,1535" stroke="blue" stroke-width="2" />
<path d="M4701,63 L1911,2919" stroke="blue" stroke-width="2" />
<path d="M3260,2913 L5721,3406" stroke="blue" stroke-width="2" />
<path d="M4333,2430 L5924,144" stroke="blue" stroke-width="2" />
<path d="M2562,2538 L2692,814" stroke="blue" stroke-width="2" />
<path d="M8401,3723 L5246,675" stroke="blue" stroke-width="2" />
<path d="M8711,2358 L6574,3651" stroke="blue" stroke-width="2" />
<path d="M4872,516 L54,1813" stroke="blue" stroke-width="2" />
<path d="M3652,3433 L8285,1113" stroke="blue" stroke-width="2" />
<path d="M5839,2810 L216,994" stroke="blue" stroke-width="2" />
<path d="M4070,3235 L1174,1062" stroke="blue" stroke-width="2" />
<path d="M7323,414 L9389,248" stroke="blue" stroke-width="2" />
<path d="M369,1751 L1611,383" stroke="blue" stroke-width="2" />
<path d="M9514,2778 L4745,3042" stroke="blue" stroke-width="2" />
<path d="M4848,2410 L121,3166" stroke="blue" stroke-width="2" />
<path d="M8961,1609 L8590,2292" stroke="blue" stroke-width="2" />
<path d="M8470,1500 L6517,3362" stroke="blue" stroke-width="2" />
<path d="M3760,302 L4844,3473" stroke="blue" stroke-width="2" />
<path d="M7379,2726 L306,2891" stroke="blue" stroke-width="2" />
<path d="M5957,2085 L1770,2441" stroke="blue" stroke-width="2" />
<path d="M133,118 L5459,1563" stroke="blue" stroke-width="2" />
<path d="M1300,2315 L8332,509" stroke="blue" stroke-width="2" />
<path d="M5280,1138 L8691,2484" stroke="blue" stroke-width="2" />
<path d="M6526,153 L1671,426" stroke="blue" stroke-width="2" />
<path d="M8807,2786 L6541,3219" stroke="blue" stroke-width="2" />
<path d="M1406,1087 L7715,1476" stroke="blue" stroke-width="2" />
<path d="M9125,2182 L8688,994" stroke="blue" stroke-width="2" />
<path d="M1618,1113 L6897,3549" stroke="blue" stroke-width="2" />
<path d="M5466,594 L1502,1783" stroke="blue" stroke-width="2" />
<path d="M5848,2283 L8932,912" stroke="blue" stroke-width="2" />
<path d="M9027,2996 L4986,1821" stroke="blue" stroke-width="2" />
<path d="M6172,1498 L834,1546" stroke="blue" stroke-width="2" />
<path d="M7560,2230 L7403,3172" stroke="blue" stroke-width="2" />
<path d="M687,337 L8651,2640" stroke="blue" stroke-width="2" />
<path d="M6672,3530 L2552,2313" stroke="blue" stroke-width="2" />
<path d="M1783,920 L1,3481" stroke="blue" stroke-width="2" />
<path d="M9458,1186 L6809,1478" stroke="blue" stroke-width="2" />
<path d="M4039,407 L8562,543" stroke="blue" stroke-width="2" />
<path d="M6157,822 L3096,1607" stroke="blue" stroke-width="2" />
<path d="M5158,647 L4912,3613" stroke="blue" stroke-width="2" />
<path d="M7848,2059 L4658,1700" stroke="blue" stroke-width="2" />
<path d="M3288,2007 L6714,3142" stroke="blue" stroke-width="2" />
<path d="M4996,1415 L2253,1610" stroke="blue" stroke-width="2" />
<path d="M2961,876 L6532,1792" stroke="blue" stroke-width="2" />
<path d="M5553,401 L6677,3747" stroke="blue" stroke-width="2" />
<path d="M5098,2391 L8244,3744" stroke="blue" stroke-width="2" />
<path d="M7363,3469 L4329,2235" stroke="blue" stroke-width="2" />
<path d="M319,3749 L6747,2548" stroke="blue" stroke-width="2" />
<path d="M7985,2587 L2490,3499" stroke="blue" stroke-width="2" />
<path d="M7772,1199 L4224,1726" stroke="blue" stroke-width="2" />
<path d="M5473,769 L8608,1720" stroke="blue" stroke-width="2" />
<path d="M7905,2014 L4589,3199" stroke="blue" stroke-width="2" />
<path d="M6101,63 L2624,329" stroke="blue" stroke-width="2" />
<path d="M6419,2483 L7012,1282" stroke="blue" stroke-width="2" />
<path d="M9148,344 L619,2408" stroke="blue" stroke-width="2" />
<path d="M2810,2420 L8480,316" stroke="blue" stroke-width="2" />
<path d="M6727,1 L1020,2548" stroke="blue" stroke-width="2" />
<path d="M7924,1741 L9191,1476" stroke="blue" stroke-width="2" />
<path d="M3462,1434 L3136,2691" stroke="blue" stroke-width="2" />
<path d="M6750,687 L6253,2320" stroke="blue" stroke-width="2" />
<path d="M6925,794 L4380,2078" stroke="blue" stroke-width="2" />
<path d="M1494,458 L5543,3311" stroke="blue" stroke-width="2" />
<path d="M1515,625 L4144,1520" stroke="blue" stroke-width="2" />
<path d="M1544,1459 L2863,1401" stroke="blue" stroke-width="2" />
<path d="M8542,31 L3757,24" stroke="blue" stroke-width="2" />
<path d="M6251,1353 L3110,317" stroke="blue" stroke-width="2" />
<path d="M3732,3236 L3778,905" stroke="blue" stroke-width="2" />
<path d="M7434,1581 L4292,3506" stroke="blue" stroke-width="2" />
<path d="M5548,3070 L5590,3540" stroke="blue" stroke-width="2" />
<path d="M1639,2146 L2308,2753" stroke="blue" stroke-width="2" />
<path d="M6216,652 L246,609" stroke="blue" stroke-width="2" />
<path d="M4819,1639 L360,2332" stroke="blue" stroke-width="2" />
<path d="M3482,2326 L3641,3590" stroke="blue" stroke-width="2" />
<path d="M2864,2805 L5394,1110" stroke="blue" stroke-width="2" />
<path d="M2735,1112 L1304,1010" stroke="blue" stroke-width="2" />
<path d="M4777,252 L6887,902" stroke="blue" stroke-width="2" />
<path d="M4024,1648 L9223,3588" stroke="blue" stroke-width="2" />
<path d="M4295,1194 L5901,1764" stroke="blue" stroke-width="2" />
<path d="M4467,3645 L7165,1002" stroke="blue" stroke-width="2" />
<path d="M4724,266 L7818,846" stroke="blue" stroke-width="2" />
<path d="M9016,1330 L6605,1698" stroke="blue" stroke-width="2" />
<path d="M5537,1102 L6129,1428" stroke="blue" stroke-width="2" />
<path d="M7793,499 L7757,3561" stroke="blue" stroke-width="2" />
<path d="M9254,2025 L2985,1041" stroke="blue" stroke-width="2" />
<path d="M5550,998 L8382,3144" stroke="blue" stroke-width="2" />
<path d="M2794,644 L8606,620" stroke="blue" stroke-width="2" />
<path d="M5150,2170 L792,12" stroke="blue" stroke-width="2" />
<path d="M4598,740 L3425,1563" stroke="blue" stroke-width="2" />
<path d="M7685,1953 L3831,19" stroke="blue" stroke-width="2" />
<path d="M4895,189 L292,3075" stroke="blue" stroke-width="2" />
<path d="M3701,1696 L8081,1077" stroke="blue" stroke-width="2" />
<path d="M8642,2815 L8715,3164" stroke="blue" stroke-width="2" />
<path d="M7631,3113 L7511,199" stroke="blue" stroke-width="2" />
<path d="M3567,2010 L870,2497" stroke="blue" stroke-width="2" />
<path d="M7428,2398 L1576,367" stroke="blue" stroke-width="2" />
<path d="M7577,941 L5728,1469" stroke="blue" stroke-width="2" />
<path d="M1673,3408 L2662,1864" stroke="blue" stroke-width="2" />
<path d="M3203,3675 L5886,1480" stroke="blue" stroke-width="2" />
<path d="M2193,163 L2887,51" stroke="blue" stroke-width="2" />
<path d="M8446,2681 L5061,3542" stroke="blue" stroke-width="2" />
<path d="M5393,339 L2139,2498" stroke="blue" stroke-width="2" />
<path d="M7791,482 L4932,1616" stroke="blue" stroke-width="2" />
<path d="M6967,1343 L8281,440" stroke="blue" stroke-width="2" />
<path d="M2274,2572 L8006,1200" stroke="blue" stroke-width="2" />
<path d="M3934,3352 L9579,1365" stroke="blue" stroke-width="2" />
<path d="M7656,1393 L58,430" stroke="blue" stroke-width="2" />
<path d="M3269,1980 L6850,986" stroke="blue" stroke-width="2" />
<path d="M5638,2937 L6380,1517" stroke="blue" stroke-width="2" />
<path d="M9338,360 L1610,2831" stroke="blue" stroke-width="2" />
<path d="M9613,3035 L8253,71" stroke="blue" stroke-width="2" />
<path d="M1865,2377 L6214,2943" stroke="blue" stroke-width="2" />
<path d="M6182,1678 L3223,117" stroke="blue" stroke-width="2" />
<path d="M8279,2028 L7157,2158" stroke="blue" stroke-width="2" />
<path d="M524,1025 L2247,3533" stroke="blue" stroke-width="2" />
<path d="M1934,665 L5940,2984" stroke="blue" stroke-width="2" />
<path d="M7885,1134 L4021,1232" stroke="blue" stroke-width="2" />
<path d="M4024,557 L8134,347" stroke="blue" stroke-width="2" />
<path d="M9213,63 L8506,441" stroke="blue" stroke-width="2" />
<path d="M3714,117 L9354,3620" stroke="blue" stroke-width="2" />
<path d="M3266,531 L427,3042" stroke="blue" stroke-width="2" />
<path d="M2457,1731 L4576,3419" stroke="blue" stroke-width="2" />
<path d="M9326,1534 L6590,3596" stroke="blue" stroke-width="2" />
<path d="M1951,748 L354,1699" stroke="blue" stroke-width="2" />
<path d="M6284,2640 L5670,1540" stroke="blue" stroke-width="2" />
<path d="M4527,1461 L6573,1686" stroke="blue" stroke-width="2" />
<path d="M6234,3551 L7905,2514" stroke="blue" stroke-width="2" />
<path d="M609,2511 L5010,1889" stroke="blue" stroke-width="2" />
<path d="M8086,2594 L8103,2630" stroke="blue" stroke-width="2" />
<path d="M6499,517 L8872,2653" stroke="blue" stroke-width="2" />
<path d="M6122,703 L5816,1395" stroke="blue" stroke-width="2" />
<path d="M9079,3471 L8123,1755" stroke="blue" stroke-width="2" />
<path d="M9526,2170 L7290,1860" stroke="blue" stroke-width="2" />
<path d="M6280,1297 L8,1582" stroke="blue" stroke-width="2" />
<path d="M2638,2266 L2555,1895" stroke="blue" stroke-width="2" />
<path d="M6514,1553 L1859,2902" stroke="blue" stroke-width="2" />
<path d="M6676,1087 L1099,2579" stroke="blue" stroke-width="2" />
<path d="M9429,1269 L7959,3467" stroke="blue" stroke-width="2" />
<path d="M2913,949 L2205,1987" stroke="blue" stroke-width="2" />
<path d="M2650,711 L2947,3127" stroke="blue" stroke-width="2" />
<path d="M8290,1410 L1622,2095" stroke="blue" stroke-width="2" />
<path d="M773,1870 L292,2585" stroke="blue" stroke-width="2" />
<path d="M4939,1529 L1308,3580" stroke="blue" stroke-width="2" />
<path d="M6677,111 L5863,1732" stroke="blue" stroke-width="2" />
<path d="M6118,639 L4070,2199" stroke="blue" stroke-width="2" />
<path d="M4009,548 L5213,2660" stroke="blue" stroke-width="2" />
<path d="M7151,744 L2538,2750" stroke="blue" stroke-width="2" />
<path d="M8295,293 L6456,1884" stroke="blue" stroke-width="2" />
<path d="M7064,2427 L3348,1964" stroke="blue" stroke-width="2" />
<path d="M6847,2181 L9281,2091" stroke="blue" stroke-width="2" />
<path d="M8979,2383 L3892,1266" stroke="blue" stroke-width="2" />
<path d="M5019,2817 L728,2458" stroke="blue" stroke-width="2" />
<path d="M3195,2523 L3521,2136" stroke="blue" stroke-width="2" />
<path d="M2828,255 L218,2316" stroke="blue" stroke-width="2" />
<path d="M2045,1320 L3180,1580" stroke="blue" stroke-width="2" />
<path d="M6854,2074 L5040,2344" stroke="blue" stroke-width="2" />
<path d="M1063,1571 L3540,3465" stroke="blue" stroke-width="2" />
<path d="M7755,336 L9448,1446" stroke="blue" stroke-width="2" />
<path d="M8249,893 L2551,124" stroke="blue" stroke-width="2" />
<path d="M2101,2348 L8309,2704" stroke="blue" stroke-width="2" />
<path d="M8396,2550 L3537,3571" stroke="blue" stroke-width="2" />
<path d="M4072,1213 L3779,963" stroke="blue" stroke-width="2" />
<path d="M8246,3112 L5470,1921" stroke="blue" stroke-width="2" />
<path d="M8096,1467 L722,3116" stroke="blue" stroke-width="2" />
<path d="M4379,2447 L3783,2260" stroke="blue" stroke-width="2" />
<path d="M8989,131 L1296,4" stroke="blue" stroke-width="2" />
<path d="M5639,2191 L3992,398" stroke="blue" stroke-width="2" />
<path d="M2559,3608 L2841,1528" stroke="blue" stroke-width="2" />
<path d="M667,3016 L6932,1815" stroke="blue" stroke-width="2" />
<path d="M141,2557 L6577,659" stroke="blue" stroke-width="2" />
<path d="M8647,999 L2707,489" stroke="blue" stroke-width="2" />
<path d="M236,2186 L7442,2859" stroke="blue" stroke-width="2" />
<path d="M8133,1783 L3465,3415" stroke="blue" stroke-width="2" />
<path d="M1943,3758 L3268,842" stroke="blue" stroke-width="2" />
<path d="M4258,3331 L47,1749" stroke="blue" stroke-width="2" />
<path d="M540,3380 L1958,2319" stroke="blue" stroke-width="2" />
<path d="M8489,2651 L7694,2178" stroke="blue" stroke-width="2" />
<path d="M9496,1659 L1986,104" stroke="blue" stroke-width="2" />
<path d="M4848,1956 L7214,1301" stroke="blue" stroke-width="2" />
<path d="M384,3419 L4768,1742" stroke="blue" stroke-width="2" />
<path d="M4206,1109 L4388,2082" stroke="blue" stroke-width="2" />
<path d="M7871,2657 L2879,2343" stroke="blue" stroke-width="2" />
<path d="M6110,2141 L8202,595" stroke="blue" stroke-width="2" />
<path d="M695,3750 L5431,2624" stroke="blue" stroke-width="2" />
<path d="M7961,185 L3668,29" stroke="blue" stroke-width="2" />
<path d="M5196,2649 L3762,3170" stroke="blue" stroke-width="2" />
<path d="M919,243 L5699,2350" stroke="blue" stroke-width="2" />
<path d="M377,231 L402,2720" stroke="blue" stroke-width="2" />
<path d="M8705,1309 L4893,1540" stroke="blue" stroke-width="2" />
<path d="M6641,3696 L6873,2582" stroke="blue" stroke-width="2" />
<path d="M3510,2316 L6578,584" stroke="blue" stroke-width="2" />
<path d="M2377,2784 L1376,2988" stroke="blue" stroke-width="2" />
<path d="M3492,1958 L7174,2829" stroke="blue" stroke-width="2" />
<path d="M4238,303 L1791,40" stroke="blue" stroke-width="2" />
<path d="M6100,278 L7370,185" stroke="blue" stroke-width="2" />
<path d="M7050,732 L6872,3232" stroke="blue" stroke-width="2" />
<path d="M868,2521 L1572,1964" stroke="blue" stroke-width="2" />
<path d="M6594,812 L3606,3616" stroke="blue" stroke-width="2" />
<path d="M8241,433 L1376,3720" stroke="blue" stroke-width="2" />
<path d="M0,0 L9617,0" stroke="red" stroke-width="10" />
<path d="M9617,0 L9617,3768" stroke="red" stroke-width="10" />
<path d="M0,3768 L9617,3768" stroke="red" stroke-width="10" />
<path d="M0,3768 L0,0" stroke="red" stroke-width="10" />
</svg>