<?xml version="1.0" encoding="UTF-8"?>
<svg xmlns="http://www.w3.org/2000/svg" xmlns:xlink="http://www.w3.org/1999/xlink"
     width="10000" height="10000" viewBox="0 0 10000 10000">
<defs>
</defs>
<path d="M2489,185 L1396,896" stroke="blue" stroke-width="2" />
<path d="M7211,1332 L4551,325" stroke="blue" stroke-width="2" />
<path d="M4996,21 L1360,1523" stroke="blue" stroke-width="2" />
<path d="M2419,1291 L3455,1" stroke="blue" stroke-width="2" />
<path d="M2505,203 L2825,1311" stroke="blue" stroke-width="2" />
<path d="M4874,1093 L231,1227" stroke="blue" stroke-width="2" />
<path d="M2571,1475 L625,1050" stroke="blue" stroke-width="2" />
<path d="M6493,684 L1833,324" stroke="blue" stroke-width="2" />
<path d="M2876,28 L4288,1184" stroke="blue" stroke-width="2" />
<path d="M3905,1372 L443,1072" stroke="blue" stroke-width="2" />
<path d="M3934,64 L2990,1170" stroke="blue" stroke-width="2" />
<path d="M4899,935 L2786,401" stroke="blue" stroke-width="2" />
<path d="M6419,362 L1734,214" stroke="blue" stroke-width="2" />
<path d="M5350,1524 L7194,1584" stroke="blue" stroke-width="2" />
<path d="M577,197 L4280,780" stroke="blue" stroke-width="2" />
<path d="M4589,98 L6899,895" stroke="blue" stroke-width="2" />
<path d="M7377,1316 L3302,1495" stroke="blue" stroke-width="2" />
<path d="M107,1145 L4383,1383" stroke="blue" stroke-width="2" />
<path d="M1784,898 L6749,1630" stroke="blue" stroke-width="2" />
<path d="M339,614 L5692,486" stroke="blue" stroke-width="2" />
<path d="M3241,929 L6909,217" stroke="blue" stroke-width="2" />
<path d="M1563,271 L4404,583" stroke="blue" stroke-width="2" />
<path d="M5753,702 L345,677" stroke="blue" stroke-width="2" />
<path d="M3661,1632 L1432,1214" stroke="blue" stroke-width="2" />
<path d="M5642,843 L4476,1382" stroke="blue" stroke-width="2" />
<path d="M5995,228 L448,879" stroke="blue" stroke-width="2" />
<path d="M6900,494 L2089,1537" stroke="blue" stroke-width="2" />
<path d="M5885,1484 L1107,657" stroke="blue" stroke-width="2" />
<path d="M1174,1097 L4896,420" stroke="blue" stroke-width="2" />
<path d="M528,1370 L5732,134" stroke="blue" stroke-width="2" />
<path d="M4910,274 L742,46" stroke="blue" stroke-width="2" />
<path d="M4139,733 L3070,211" stroke="blue" stroke-width="2" />
<path d="M2373,623 L1883,1387" stroke="blue" stroke-width="2" />
<path d="M1487,203 L1780,472" stroke="blue" stroke-width="2" />
<path d="M4146,1161 L4895,1291" stroke="blue" stroke-width="2" />
<path d="M7380,897 L6803,999" stroke="blue" stroke-width="2" />
<path d="M1449,970 L1650,462" stroke="blue" stroke-width="2" />
<path d="M532,1422 L3242,325" stroke="blue" stroke-width="2" />
<path d="M171,895 L6846,1366" stroke="blue" stroke-width="2" />
<path d="M1384,910 L6034,602" stroke="blue" stroke-width="2" />
<path d="M4489,527 L7073,998" stroke="blue" stroke-width="2" />
<path d="M5260,980 L6475,1327" stroke="blue" stroke-width="2" />
<path d="M5657,812 L896,799" stroke="blue" stroke-width="2" />
<path d="M2950,1007 L3056,487" stroke="blue" stroke-width="2" />
<path d="M6354,72 L239,29" stroke="blue" stroke-width="2" />
<path d="M338,537 L259,1630" stroke="blue" stroke-width="2" />
<path d="M483,1209 L5615,596" stroke="blue" stroke-width="2" />
<path d="M99,139 L3577,374" stroke="blue" stroke-width="2" />
<path d="M2462,1000 L327,1427" stroke="blue" stroke-width="2" />
<path d="M1339,892 L5560,118" stroke="blue" stroke-width="2" />
<path d="M6582,1095 L7018,1184" stroke="blue" stroke-width="2" />
<path d="M1554,1193 L5268,1038" stroke="blue" stroke-width="2" />
<path d="M4409,286 L7320,117" stroke="blue" stroke-width="2" />
<path d="M2885,123 L6577,744" stroke="blue" stroke-width="2" />
<path d="M3054,1180 L1944,71" stroke="blue" stroke-width="2" />
<path d="M2259,808 L287,1596" stroke="blue" stroke-width="2" />
<path d="M5998,1127 L6948,1398" stroke="blue" stroke-width="2" />
<path d="M6463,678 L7401,1552" stroke="blue" stroke-width="2" />
<path d="M6957,911 L496,513" stroke="blue" stroke-width="2" />
<path d="M6564,58 L1796,1596" stroke="blue" stroke-width="2" />
<path d="M3109,1038 L4332,194" stroke="blue" stroke-width="2" />
<path d="M4831,1603 L3719,507" stroke="blue" stroke-width="2" />
<path d="M949,686 L811,1057" stroke="blue" stroke-width="2" />
<path d="M4198,168 L5185,785" stroke="blue" stroke-width="2" />
<path d="M3013,592 L1887,840" stroke="blue" stroke-width="2" />
<path d="M7290,876 L2486,1161" stroke="blue" stroke-width="2" />
<path d="M3471,876 L4184,1522" stroke="blue" stroke-width="2" />
<path d="M2242,952 L947,695" stroke="blue" stroke-width="2" />
<path d="M511,570 L3429,266" stroke="blue" stroke-width="2" />
<path d="M3763,105 L3154,1485" stroke="blue" stroke-width="2" />
<path d="M387,41 L7204,143" stroke="blue" stroke-width="2" />
<path d="M5956,324 L153,1447" stroke="blue" stroke-width="2" />
<path d="M1663,1394 L4034,482" stroke="blue" stroke-width="2" />
<path d="M2629,870 L5195,119" stroke="blue" stroke-width="2" />
<path d="M6202,593 L4788,278" stroke="blue" stroke-width="2" />
<path d="M4031,1230 L3412,990" stroke="blue" stroke-width="2" />
<path d="M1506,187 L1054,323" stroke="blue" stroke-width="2" />
<path d="M5339,229 L6711,404" stroke="blue" stroke-width="2" />
<path d="M5681,539 L7133,1033" stroke="blue" stroke-width="2" />
<path d="M1556,1352 L5279,493" stroke="blue" stroke-width="2" />
<path d="M3977,1638 L5876,557" stroke="blue" stroke-width="2" />
<path d="M371,729 L5881,1094" stroke="blue" stroke-width="2" />
<path d="M3759,1320 L6820,552" stroke="blue" stroke-width="2" />
<path d="M3988,1525 L3648,37" stroke="blue" stroke-width="2" />
<path d="M952,730 L7403,1046" stroke="blue" stroke-width="2" />
<path d="M1644,439 L881,676" stroke="blue" stroke-width="2" />
<path d="M4402,391 L3934,1376" stroke="blue" stroke-width="2" />
<path d="M3868,1151 L4621,545" stroke="blue" stroke-width="2" />
<path d="M2731,306 L5472,347" stroke="blue" stroke-width="2" />
<path d="M6123,349 L7013,617" stroke="blue" stroke-width="2" />
<path d="M5039,1652 L1966,23" stroke="blue" stroke-width="2" />
<path d="M4648,399 L2114,654" stroke="blue" stroke-width="2" />
<path d="M1124,216 L6029,1606" stroke="blue" stroke-width="2" />
<path d="M5973,1389 L1063,1038" stroke="blue" stroke-width="2" />
<path d="M4316,952 L2520,1334" stroke="blue" stroke-width="2" />
<path d="M4102,1568 L844,1634" stroke="blue" stroke-width="2" />
<path d="M3632,1490 L4394,234" stroke="blue" stroke-width="2" />
<path d="M7348,1464 L1611,349" stroke="blue" stroke-width="2" />
<path d="M701,716 L4702,1145" stroke="blue" stroke-width="2" />
<path d="M2496,1128 L2152,1180" stroke="blue" stroke-width="2" />
<path d="M7157,963 L6003,222" stroke="blue" stroke-width="2" />
<path d="M3310,1182 L3336,700" stroke="blue" stroke-width="2" />
<path d="M5147,335 L2494,243" stroke="blue" stroke-width="2" />
<path d="M499,405 L7026,1239" stroke="blue" stroke-width="2" />
<path d="M617,26 L5219,1380" stroke="blue" stroke-width="2" />
<path d="M4836,1160 L206,1434" stroke="blue" stroke-width="2" />
<path d="M4451,331 L1437,1536" stroke="blue" stroke-width="2" />
<path d="M3166,824 L2658,1107" stroke="blue" stroke-width="2" />
<path d="M3872,798 L3631,1250" stroke="blue" stroke-width="2" />
<path d="M4693,370 L506,510" stroke="blue" stroke-width="2" />
<path d="M479,551 L3674,395" stroke="blue" stroke-width="2" />
<path d="M626,290 L3440,511" stroke="blue" stroke-width="2" />
<path d="M3305,710 L3747,447" stroke="blue" stroke-width="2" />
<path d="M7386,605 L2013,1341" stroke="blue" stroke-width="2" />
<path d="M1220,1478 L229,385" stroke="blue" stroke-width="2" />
<path d="M5342,1643 L7241,1592" stroke="blue" stroke-width="2" />
<path d="M3967,755 L7074,660" stroke="blue" stroke-width="2" />
<path d="M6735,1245 L4845,1468" stroke="blue" stroke-width="2" />
<path d="M6699,171 L3078,1230" stroke="blue" stroke-width="2" />
<path d="M2534,565 L3412,47" stroke="blue" stroke-width="2" />
<path d="M4562,1533 L7321,1119" stroke="blue" stroke-width="2" />
<path d="M1139,1325 L5575,688" stroke="blue" stroke-width="2" />
<path d="M6942,533 L6136,919" stroke="blue" stroke-width="2" />
<path d="M6656,1320 L1949,1228" stroke="blue" stroke-width="2" />
<path d="M3741,1505 L4106,760" stroke="blue" stroke-width="2" />
<path d="M5837,861 L4750,1188" stroke="blue" stroke-width="2" />
<path d="M7375,1027 L6075,1244" stroke="blue" stroke-width="2" />
<path d="M6031,196 L3957,1282" stroke="blue" stroke-width="2" />
<path d="M3722,93 L7461,1596" stroke="blue" stroke-width="2" />
<path d="M1692,1001 L6212,667" stroke="blue" stroke-width="2" />
<path d="M695,202 L3485,811" stroke="blue" stroke-width="2" />
<path d="M4771,1646 L2802,986" stroke="blue" stroke-width="2" />
<path d="M2657,1241 L3429,760" stroke="blue" stroke-width="2" />
<path d="M838,1029 L883,206" stroke="blue" stroke-width="2" />
<path d="M5783,408 L3471,1114" stroke="blue" stroke-width="2" />
<path d="M1493,4 L569,278" stroke="blue" stroke-width="2" />
<path d="M5541,727 L1925,853" stroke="blue" stroke-width="2" />
<path d="M816,820 L5317,212" stroke="blue" stroke-width="2" />
<path d="M4560,707 L5515,1334" stroke="blue" stroke-width="2" />
<path d="M4994,893 L5974,76" stroke="blue" stroke-width="2" />
<path d="M517,189 L460,638" stroke="blue" stroke-width="2" />
<path d="M6872,1561 L5631,1109" stroke="blue" stroke-width="2" />
<path d="M3746,51 L4689,544" stroke="blue" stroke-width="2" />
<path d="M4245,1335 L1632,1342" stroke="blue" stroke-width="2" />
<path d="M4746,604 L5179,871" stroke="blue" stroke-width="2" />
<path d="M1828,314 L3543,1628" stroke="blue" stroke-width="2" />
<path d="M3346,1567 L7220,254" stroke="blue" stroke-width="2" />
<path d="M5357,1231 L1028,1289" stroke="blue" stroke-width="2" />
<path d="M1215,1541 L4441,1478" stroke="blue" stroke-width="2" />
<path d="M7356,1281 L3341,1209" stroke="blue" stroke-width="2" />
<path d="M3601,717 L3554,176" stroke="blue" stroke-width="2" />
<path d="M3781,689 L368,1351" stroke="blue" stroke-width="2" />
<path d="M804,1448 L2095,1098" stroke="blue" stroke-width="2" />
<path d="M1220,991 L650,326" stroke="blue" stroke-width="2" />
<path d="M2916,433 L867,711" stroke="blue" stroke-width="2" />
<path d="M2306,665 L993,98" stroke="blue" stroke-width="2" />
<path d="M2398,705 L2536,1356" stroke="blue" stroke-width="2" />
<path d="M6944,386 L1123,808" stroke="blue" stroke-width="2" />
<path d="M6996,1424 L7435,1388" stroke="blue" stroke-width="2" />
<path d="M5563,12 L617,14" stroke="blue" stroke-width="2" />
<path d="M6406,1449 L4077,1030" stroke="blue" stroke-width="2" />
<path d="M134,212 L4281,920" stroke="blue" stroke-width="2" />
<path d="M6669,1175 L5562,98" stroke="blue" stroke-width="2" />
<path d="M6242,4 L442,846" stroke="blue" stroke-width="2" />
<path d="M3374,1262 L6770,1002" stroke="blue" stroke-width="2" />
<path d="M6694,298 L3710,961" stroke="blue" stroke-width="2" />
<path d="M1018,598 L4616,1645" stroke="blue" stroke-width="2" />
<path d="M2499,1075 L2660,590" stroke="blue" stroke-width="2" />
<path d="M2812,39 L5560,259" stroke="blue" stroke-width="2" />
<path d="M61,331 L277,499" stroke="blue" stroke-width="2" />
<path d="M1427,1018 L7380,881" stroke="blue" stroke-width="2" />
<path d="M1122,188 L6250,977" stroke="blue" stroke-width="2" />
<path d="M1461,1544 L4386,1255" stroke="blue" stroke-width="2" />
<path d="M1382,1076 L1540,378" stroke="blue" stroke-width="2" />
<path d="M3297,485 L1282,1556" stroke="blue" stroke-width="2" />
<path d="M3288,395 L6546,477" stroke="blue" stroke-width="2" />
<path d="M7003,990 L5835,56" stroke="blue" stroke-width="2" />
<path d="M1877,118 L3265,1410" stroke="blue" stroke-width="2" />
<path d="M1976,310 L2575,344" stroke="blue" stroke-width="2" />
<path d="M321,11 L1997,690" stroke="blue" stroke-width="2" />
<path d="M873,1056 L1970,293" stroke="blue" stroke-width="2" />
<path d="M1750,1539 L6469,1341" stroke="blue" stroke-width="2" />
<path d="M602,1384 L6201,96" stroke="blue" stroke-width="2" />
<path d="M511,1121 L3493,1578" stroke="blue" stroke-width="2" />
<path d="M4078,35 L2521,829" stroke="blue" stroke-width="2" />
<path d="M4313,277 L5173,408" stroke="blue" stroke-width="2" />
<path d="M351,814 L2708,20" stroke="blue" stroke-width="2" />
<path d="M540,1397 L5316,61" stroke="blue" stroke-width="2" />
<path d="M6766,110 L4311,1296" stroke="blue" stroke-width="2" />
<path d="M3846,256 L6,503" stroke="blue" stroke-width="2" />
<path d="M4517,735 L2966,826" stroke="blue" stroke-width="2" />
<path d="M189,1425 L2517,666" stroke="blue" stroke-width="2" />
<path d="M4421,438 L1400,451" stroke="blue" stroke-width="2" />
<path d="M2566,615 L7316,1523" stroke="blue" stroke-width="2" />
<path d="M5955,395 L2874,46" stroke="blue" stroke-width="2" />
<path d="M1906,420 L6856,1586" stroke="blue" stroke-width="2" />
<path d="M3332,117 L5674,809" stroke="blue" stroke-width="2" />
<path d="M6767,289 L4393,907" stroke="blue" stroke-width="2" />
<path d="M5726,199 L4641,1044" stroke="blue" stroke-width="2" />
<path d="M4931,925 L2379,313" stroke="blue" stroke-width="2" />
<path d="M1864,808 L3022,261" stroke="blue" stroke-width="2" />
<path d="M3350,780 L3991,954" stroke="blue" stroke-width="2" />
<path d="M4511,1423 L138,988" stroke="blue" stroke-width="2" />
<path d="M4458,405 L2736,939" stroke="blue" stroke-width="2" />
<path d="M2628,1646 L3698,513" stroke="blue" stroke-width="2" />
<path d="M6423,998 L84,1410" stroke="blue" stroke-width="2" />
<path d="M3963,1220 L5520,541" stroke="blue" stroke-width="2" />
<path d="M2094,915 L3102,1485" stroke="blue" stroke-width="2" />
<path d="M46,157 L4369,1086" stroke="blue" stroke-width="2" />
<path d="M5832,761 L1611,121" stroke="blue" stroke-width="2" />
<path d="M3014,1300 L1434,1522" stroke="blue" stroke-width="2" />
<path d="M1884,641 L1943,795" stroke="blue" stroke-width="2" />
<path d="M5738,596 L4042,1375" stroke="blue" stroke-width="2" />
<path d="M4691,991 L3832,515" stroke="blue" stroke-width="2" />
<path d="M2101,1069 L4351,1377" stroke="blue" stroke-width="2" />
<path d="M2498,81 L6493,1172" stroke="blue" stroke-width="2" />
<path d="M6503,604 L5666,728" stroke="blue" stroke-width="2" />
<path d="M2918,550 L5093,419" stroke="blue" stroke-width="2" />
<path d="M6924,646 L7273,0" stroke="blue" stroke-width="2" />
<path d="M7294,1645 L6998,680" stroke="blue" stroke-width="2" />
<path d="M3285,452 L6067,1432" stroke="blue" stroke-width="2" />
<path d="M5013,1290 L3240,940" stroke="blue" stroke-width="2" />
<path d="M1878,632 L3617,522" stroke="blue" stroke-width="2" />
<path d="M6009,658 L247,550" stroke="blue" stroke-width="2" />
<path d="M2475,132 L5477,1127" stroke="blue" stroke-width="2" />
<path d="M2318,320 L6928,58" stroke="blue" stroke-width="2" />
<path d="M3476,1177 L4206,351" stroke="blue" stroke-width="2" />
<path d="M2525,1214 L1208,510" stroke="blue" stroke-width="2" />
<path d="M3619,927 L1379,1422" stroke="blue" stroke-width="2" />
<path d="M5928,974 L4379,546" stroke="blue" stroke-width="2" />
<path d="M2606,1182 L1358,493" stroke="blue" stroke-width="2" />
<path d="M7009,1573 L5182,925" stroke="blue" stroke-width="2" />
<path d="M5411,1219 L5215,1161" stroke="blue" stroke-width="2" />
<path d="M7078,881 L6421,703" stroke="blue" stroke-width="2" />
<path d="M7302,664 L6633,1089" stroke="blue" stroke-width="2" />
<path d="M4368,692 L4704,661" stroke="blue" stroke-width="2" />
<path d="M972,561 L6712,31" stroke="blue" stroke-width="2" />
<path d="M6036,566 L63,1505" stroke="blue" stroke-width="2" />
<path d="M1389,1091 L489,1535" stroke="blue" stroke-width="2" />
<path d="M294,776 L3272,765" stroke="blue" stroke-width="2" />
<path d="M6364,1393 L6480,1631" stroke="blue" stroke-width="2" />
<path d="M1363,200 L4224,1517" stroke="blue" stroke-width="2" />
<path d="M2392,220 L2312,475" stroke="blue" stroke-width="2" />
<path d="M1343,78 L3136,330" stroke="blue" stroke-width="2" />
<path d="M2038,368 L4819,630" stroke="blue" stroke-width="2" />
<path d="M2147,488 L1984,1146" stroke="blue" stroke-width="2" />
<path d="M3266,1172 L5232,506" stroke="blue" stroke-width="2" />
<path d="M5708,819 L6489,136" stroke="blue" stroke-width="2" />
<path d="M6362,565 L5104,1306" stroke="blue" stroke-width="2" />
<path d="M6829,1374 L6365,887" stroke="blue" stroke-width="2" />
<path d="M953,1363 L1829,1182" stroke="blue" stroke-width="2" />
<path d="M2191,592 L3643,184" stroke="blue" stroke-width="2" />
<path d="M4422,684 L6578,1126" stroke="blue" stroke-width="2" />
<path d="M4800,767 L209,1595" stroke="blue" stroke-width="2" />
<path d="M4766,1121 L5034,44" stroke="blue" stroke-width="2" />
<path d="M6674,909 L3518,130" stroke="blue" stroke-width="2" />
<path d="M5,802 L4734,326" stroke="blue" stroke-width="2" />
<path d="M6532,536 L2275,764" stroke="blue" stroke-width="2" />
<path d="M4311,1402 L2873,723" stroke="blue" stroke-width="2" />
<path d="M4976,1433 L1751,1645" stroke="blue" stroke-width="2" />
<path d="M7400,1483 L4768,599" stroke="blue" stroke-width="2" />
<path d="M4291,1457 L5730,1097" stroke="blue" stroke-width="2" />
<path d="M3402,1526 L3364,950" stroke="blue" stroke-width="2" />
<path d="M1092,78 L3529,1193" stroke="blue" stroke-width="2" />
<path d="M4360,587 L5665,1386" stroke="blue" stroke-width="2" />
<path d="M6946,664 L2140,858" stroke="blue" stroke-width="2" />
<path d="M2325,561 L3593,1641" stroke="blue" stroke-width="2" />
<path d="M6877,1216 L5957,1272" stroke="blue" stroke-width="2" />
<path d="M1445,1321 L2738,712" stroke="blue" stroke-width="2" />
<path d="M2663,1191 L1020,845" stroke="blue" stroke-width="2" />
<path d="M1247,800 L1999,1616" stroke="blue" stroke-width="2" />
<path d="M5641,1135 L155,277" stroke="blue" stroke-width="2" />
<path d="M4207,1645 L4952,1650" stroke="blue" stroke-width="2" />
<path d="M4745,531 L183,287" stroke="blue" stroke-width="2" />
<path d="M7323,740 L1053,1387" stroke="blue" stroke-width="2" />
<path d="M7384,891 L3329,1559" stroke="blue" stroke-width="2" />
<path d="M1467,314 L4543,567" stroke="blue" stroke-width="2" />
<path d="M4069,1399 L7387,995" stroke="blue" stroke-width="2" />
<path d="M2487,1294 L6693,1056" stroke="blue" stroke-width="2" />
<path d="M1813,566 L5009,1137" stroke="blue" stroke-width="2" />
<path d="M4712,498 L2903,1482" stroke="blue" stroke-width="2" />
<path d="M1183,566 L5433,1458" stroke="blue" stroke-width="2" />
<path d="M3634,411 L4529,1308" stroke="blue" stroke-width="2" />
<path d="M3062,1044 L6170,286" stroke="blue" stroke-width="2" />
<path d="M1918,1625 L5725,902" stroke="blue" stroke-width="2" />
<path d="M6576,119 L1003,547" stroke="blue" stroke-width="2" />
<path d="M3038,848 L7146,821" stroke="blue" stroke-width="2" />
<path d="M2704,779 L1962,29" stroke="blue" stroke-width="2" />
<path d="M2956,1277 L1986,902" stroke="blue" stroke-width="2" />
<path d="M2935,1051 L6585,931" stroke="blue" stroke-width="2" />
<path d="M6813,629 L2937,234" stroke="blue" stroke-width="2" />
<path d="M6803,21 L6809,145" stroke="blue" stroke-width="2" />
<path d="M5277,176 L723,601" stroke="blue" stroke-width="2" />
<path d="M5598,865 L2610,302" stroke="blue" stroke-width="2" />
<path d="M2351,1482 L7186,664" stroke="blue" stroke-width="2" />
<path d="M3597,1646 L2077,848" stroke="blue" stroke-width="2" />
<path d="M2515,598 L725,1338" stroke="blue" stroke-width="2" />
<path d="M6182,1429 L4315,1480" stroke="blue" stroke-width="2" />
<path d="M1744,596 L4881,538" stroke="blue" stroke-width="2" />
<path d="M5077,649 L28,1023" stroke="blue" stroke-width="2" />
<path d="M1419,683 L4702,69" stroke="blue" stroke-width="2" />
<path d="M2855,892 L377,1614" stroke="blue" stroke-width="2" />
<path d="M5381,770 L7437,641" stroke="blue" stroke-width="2" />
<path d="M2942,1372 L2196,1517" stroke="blue" stroke-width="2" />
<path d="M5984,1544 L910,1438" stroke="blue" stroke-width="2" />
<path d="M6407,374 L3661,116" stroke="blue" stroke-width="2" />
<path d="M6188,1646 L992,733" stroke="blue" stroke-width="2" />
<path d="M3804,131 L7482,360" stroke="blue" stroke-width="2" />
<path d="M5546,397 L3502,1509" stroke="blue" stroke-width="2" />
<path d="M5492,16 L2541,1119" stroke="blue" stroke-width="2" />
<path d="M1265,479 L6334,860" stroke="blue" stroke-width="2" />
<path d="M5215,918 L5954,745" stroke="blue" stroke-width="2" />
<path d="M1271,1618 L3404,824" stroke="blue" stroke-width="2" />
<path d="M2116,779 L1868,548" stroke="blue" stroke-width="2" />
<path d="M2476,852 L5667,747" stroke="blue" stroke-width="2" />
<path d="M6787,481 L1712,1651" stroke="blue" stroke-width="2" />
<path d="M1378,1495 L2362,381" stroke="blue" stroke-width="2" />
<path d="M5932,1507 L1021,698" stroke="blue" stroke-width="2" />
<path d="M6967,1137 L3386,367" stroke="blue" stroke-width="2" />
<path d="M5392,853 L241,1038" stroke="blue" stroke-width="2" />
<path d="M7373,49 L5549,1407" stroke="blue" stroke-width="2" />
<path d="M6629,277 L5581,1383" stroke="blue" stroke-width="2" />
<path d="M6732,871 L5839,1137" stroke="blue" stroke-width="2" />
<path d="M5257,256 L441,363" stroke="blue" stroke-width="2" />
<path d="M7162,1466 L2594,140" stroke="blue" stroke-width="2" />
<path d="M1720,781 L4429,566" stroke="blue" stroke-width="2" />
<path d="M6897,675 L4379,97" stroke="blue" stroke-width="2" />
<path d="M2180,1307 L1607,586" stroke="blue" stroke-width="2" />
<path d="M2980,659 L3510,685" stroke="blue" stroke-width="2" />
<path d="M2023,1563 L5350,106" stroke="blue" stroke-width="2" />
<path d="M1577,1501 L3846,1001" stroke="blue" stroke-width="2" />
<path d="M1453,538 L6045,1616" stroke="blue" stroke-width="2" />
<path d="M7410,1376 L6061,1568" stroke="blue" stroke-width="2" />
<path d="M6756,995 L2007,691" stroke="blue" stroke-width="2" />
<path d="M595,1330 L3259,562" stroke="blue" stroke-width="2" />
<path d="M4352,574 L2646,107" stroke="blue" stroke-width="2" />
<path d="M721,11 L3868,1273" stroke="blue" stroke-width="2" />
<path d="M4403,401 L7301,356" stroke="blue" stroke-width="2" />
<path d="M55,430 L3305,1383" stroke="blue" stroke-width="2" />
<path d="M5662,43 L618,1275" stroke="blue" stroke-width="2" />
<path d="M596,665 L6588,624" stroke="blue" stroke-width="2" />
<path d="M1037,29 L2937,807" stroke="blue" stroke-width="2" />
<path d="M3283,1260 L3852,374" stroke="blue" stroke-width="2" />
<path d="M7465,1153 L5184,644" stroke="blue" stroke-width="2" />
<path d="M7067,1640 L6670,998" stroke="blue" stroke-width="2" />
<path d="M681,587 L3501,766" stroke="blue" stroke-width="2" />
<path d="M6462,440 L3193,1497" stroke="blue" stroke-width="2" />
<path d="M587,339 L6962,722" stroke="blue" stroke-width="2" />
<path d="M141,335 L7064,1006" stroke="blue" stroke-width="2" />
<path d="M7243,1014 L2322,25" stroke="blue" stroke-width="2" />
<path d="M6216,1020 L4697,429" stroke="blue" stroke-width="2" />
<path d="M5417,267 L1736,1116" stroke="blue" stroke-width="2" />
<path d="M5691,888 L4006,930" stroke="blue" stroke-width="2" />
<path d="M6886,1589 L1554,1501" stroke="blue" stroke-width="2" />
<path d="M4127,540 L286,1607" stroke="blue" stroke-width="2" />
<path d="M2584,807 L4010,629" stroke="blue" stroke-width="2" />
<path d="M808,1555 L612,1028" stroke="blue" stroke-width="2" />
<path d="M7267,103 L4316,350" stroke="blue" stroke-width="2" />
<path d="M3491,507 L4893,71" stroke="blue" stroke-width="2" />
<path d="M3370,682 L5084,501" stroke="blue" stroke-width="2" />
<path d="M171,498 L3334,19" stroke="blue" stroke-width="2" />
<path d="M5004,406 L5058,146" stroke="blue" stroke-width="2" />
<path d="M5587,391 L5597,546" stroke="blue" stroke-width="2" />
<path d="M3030,1246 L4607,1074" stroke="blue" stroke-width="2" />
<path d="M6349,444 L7418,719" stroke="blue" stroke-width="2" />
<path d="M594,1 L5513,749" stroke="blue" stroke-width="2" />
<path d="M1101,475 L2313,406" stroke="blue" stroke-width="2" />
<path d="M4331,876 L2248,1276" stroke="blue" stroke-width="2" />
<path d="M2303,1359 L5861,1000" stroke="blue" stroke-width="2" />
<path d="M4642,1207 L1349,1592" stroke="blue" stroke-width="2" />
<path d="M5563,1287 L1817,940" stroke="blue" stroke-width="2" />
<path d="M5261,771 L3036,1361" stroke="blue" stroke-width="2" />
<path d="M7455,1113 L3324,1104" stroke="blue" stroke-width="2" />
<path d="M718,284 L2643,1539" stroke="blue" stroke-width="2" />
<path d="M4326,654 L6778,519" stroke="blue" stroke-width="2" />
<path d="M7166,843 L1455,61" stroke="blue" stroke-width="2" />
<path d="M4515,931 L868,1255" stroke="blue" stroke-width="2" />
<path d="M2870,567 L5743,285" stroke="blue" stroke-width="2" />
<path d="M4816,1229 L5186,76" stroke="blue" stroke-width="2" />
<path d="M5323,1368 L4202,107" stroke="blue" stroke-width="2" />
<path d="M6623,212 L4620,454" stroke="blue" stroke-width="2" />
<path d="M4821,951 L1857,756" stroke="blue" stroke-width="2" />
<path d="M3859,1486 L7326,567" stroke="blue" stroke-width="2" />
<path d="M839,103 L4935,626" stroke="blue" stroke-width="2" />
<path d="M383,27 L3935,1497" stroke="blue" stroke-width="2" />
<path d="M5317,28 L6889,1272" stroke="blue" stroke-width="2" />
<path d="M3204,887 L3249,562" stroke="blue" stroke-width="2" />
<path d="M0,0 L7483,0" stroke="red" stroke-width="10" />
<path d="M7483,0 L7483,1653" stroke="red" stroke-width="10" />
<path d="M0,1653 L7483,1653" stroke="red" stroke-width="10" />
<path d="M0,1653 L0,0" stroke="red" stroke-width="10" />
</svg>