<?xml version="1.0" encoding="UTF-8"?>
<svg xmlns="http://www.w3.org/2000/svg" xmlns:xlink="http://www.w3.org/1999/xlink"
     width="10000" height="10000" viewBox="0 0 10000 10000">
<defs>
</defs>
<path d="M6387,211 L4391,2580" stroke="blue" stroke-width="2" />
<path d="M6555,1064 L3549,67" stroke="blue" stroke-width="2" />
<path d="M4753,1957 L261,1591" stroke="blue" stroke-width="2" />
<path d="M921,654 L6119,1728" stroke="blue" stroke-width="2" />
<path d="M1723,1505 L6408,3516" stroke="blue" stroke-width="2" />
<path d="M7925,683 L8467,69" stroke="blue" stroke-width="2" />
<path d="M5031,252 L2076,968" stroke="blue" stroke-width="2" />
<path d="M2154,1212 L3510,1767" stroke="blue" stroke-width="2" />
<path d="M8738,10 L6082,2442" stroke="blue" stroke-width="2" />
<path d="M632,3677 L6078,2760" stroke="blue" stroke-width="2" />
<path d="M8256,1309 L8924,3308" stroke="blue" stroke-width="2" />
<path d="M6230,1555 L7658,275" stroke="blue" stroke-width="2" />
<path d="M2729,1021 L8046,113" stroke="blue" stroke-width="2" />
<path d="M1888,52 L7661,2540" stroke="blue" stroke-width="2" />
<path d="M7963,51 L4940,3007" stroke="blue" stroke-width="2" />
<path d="M2153,533 L4194,3325" stroke="blue" stroke-width="2" />
<path d="M2658,3024 L2849,1653" stroke="blue" stroke-width="2" />
<path d="M638,1990 L6277,546" stroke="blue" stroke-width="2" />
<path d="M138,2595 L712,2421" stroke="blue" stroke-width="2" />
<path d="M2436,2774 L4646,3521" stroke="blue" stroke-width="2" />
<path d="M8214,1945 L2903,1352" stroke="blue" stroke-width="2" />
<path d="M7406,2332 L1468,3211" stroke="blue" stroke-width="2" />
<path d="M8630,2662 L1867,3500" stroke="blue" stroke-width="2" />
<path d="M6688,1755 L7638,2336" stroke="blue" stroke-width="2" />
<path d="M3871,2788 L8525,2645" stroke="blue" stroke-width="2" />
<path d="M1823,472 L5092,3113" stroke="blue" stroke-width="2" />
<path d="M6589,3421 L3862,746" stroke="blue" stroke-width="2" />
<path d="M3486,410 L2184,3615" stroke="blue" stroke-width="2" />
<path d="M8040,3463 L408,2232" stroke="blue" stroke-width="2" />
<path d="M6890,1548 L585,2027" stroke="blue" stroke-width="2" />
<path d="M5962,2941 L6009,3451" stroke="blue" stroke-width="2" />
<path d="M6878,2991 L6468,515" stroke="blue" stroke-width="2" />
<path d="M1783,2946 L1326,509" stroke="blue" stroke-width="2" />
<path d="M3809,2331 L4056,354" stroke="blue" stroke-width="2" />
<path d="M6252,150 L1342,2028" stroke="blue" stroke-width="2" />
<path d="M5114,929 L3903,2548" stroke="blue" stroke-width="2" />
<path d="M1907,51 L1953,2768" stroke="blue" stroke-width="2" />
<path d="M4592,2040 L3911,2076" stroke="blue" stroke-width="2" />
<path d="M3971,3683 L2720,3574" stroke="blue" stroke-width="2" />
<path d="M5701,3540 L6590,1598" stroke="blue" stroke-width="2" />
<path d="M1365,3714 L667,1712" stroke="blue" stroke-width="2" />
<path d="M7706,2790 L16,1608" stroke="blue" stroke-width="2" />
<path d="M392,2844 L6850,223" stroke="blue" stroke-width="2" />
<path d="M6141,181 L5343,2625" stroke="blue" stroke-width="2" />
<path d="M7305,1718 L4183,924" stroke="blue" stroke-width="2" />
<path d="M7123,3310 L1714,2443" stroke="blue" stroke-width="2" />
<path d="M6537,2672 L632,2893" stroke="blue" stroke-width="2" />
<path d="M1558,2172 L81,1880" stroke="blue" stroke-width="2" />
<path d="M7776,239 L5453,3642" stroke="blue" stroke-width="2" />
<path d="M7957,1631 L4996,2748" stroke="blue" stroke-width="2" />
<path d="M3232,2181 L7930,2593" stroke="blue" stroke-width="2" />
<path d="M7107,487 L9022,1673" stroke="blue" stroke-width="2" />
<path d="M7892,2412 L3320,196" stroke="blue" stroke-width="2" />
<path d="M6206,1994 L5108,2063" stroke="blue" stroke-width="2" />
<path d="M4948,3194 L5667,1347" stroke="blue" stroke-width="2" />
<path d="M7998,2575 L7385,3350" stroke="blue" stroke-width="2" />
<path d="M4403,1830 L6259,1254" stroke="blue" stroke-width="2" />
<path d="M3164,2543 L3054,2214" stroke="blue" stroke-width="2" />
<path d="M8788,3113 L1686,1025" stroke="blue" stroke-width="2" />
<path d="M1562,2165 L64,111" stroke="blue" stroke-width="2" />
<path d="M4044,429 L7915,789" stroke="blue" stroke-width="2" />
<path d="M5217,1417 L8012,1724" stroke="blue" stroke-width="2" />
<path d="M4103,1623 L2866,3715" stroke="blue" stroke-width="2" />
<path d="M5256,2150 L6740,422" stroke="blue" stroke-width="2" />
<path d="M1339,1400 L177,2860" stroke="blue" stroke-width="2" />
<path d="M8108,1865 L3571,1732" stroke="blue" stroke-width="2" />
<path d="M5910,1111 L6871,1070" stroke="blue" stroke-width="2" />
<path d="M5738,2030 L5571,2302" stroke="blue" stroke-width="2" />
<path d="M8625,3339 L5016,2294" stroke="blue" stroke-width="2" />
<path d="M470,3349 L6972,3278" stroke="blue" stroke-width="2" />
<path d="M779,2797 L2044,3550" stroke="blue" stroke-width="2" />
<path d="M5078,1527 L6091,1322" stroke="blue" stroke-width="2" />
<path d="M4633,2465 L7878,1230" stroke="blue" stroke-width="2" />
<path d="M4482,3663 L7177,245" stroke="blue" stroke-width="2" />
<path d="M2849,2249 L3652,3445" stroke="blue" stroke-width="2" />
<path d="M2688,1092 L4222,2723" stroke="blue" stroke-width="2" />
<path d="M7813,2264 L4427,1023" stroke="blue" stroke-width="2" />
<path d="M8952,3148 L7956,1692" stroke="blue" stroke-width="2" />
<path d="M317,2958 L6338,1810" stroke="blue" stroke-width="2" />
<path d="M6151,1615 L3326,2350" stroke="blue" stroke-width="2" />
<path d="M716,85 L173,1442" stroke="blue" stroke-width="2" />
<path d="M4913,181 L8039,2744" stroke="blue" stroke-width="2" />
<path d="M93,2760 L6215,1843" stroke="blue" stroke-width="2" />
<path d="M2069,823 L3851,718" stroke="blue" stroke-width="2" />
<path d="M0,0 L9025,0" stroke="red" stroke-width="10" />
<path d="M9025,0 L9025,3738" stroke="red" stroke-width="10" />
<path d="M0,3738 L9025,3738" stroke="red" stroke-width="10" />
<path d="M0,3738 L0,0" stroke="red" stroke-width="10" />
</svg>