<?xml version="1.0" encoding="UTF-8"?>
<svg xmlns="http://www.w3.org/2000/svg" xmlns:xlink="http://www.w3.org/1999/xlink"
     width="10000" height="10000" viewBox="0 0 10000 10000">
<defs>
</defs>
<path d="M787,890 L6373,196" stroke="blue" stroke-width="2" />
<path d="M1912,3864 L2190,560" stroke="blue" stroke-width="2" />
<path d="M4451,3797 L2272,2538" stroke="blue" stroke-width="2" />
<path d="M4312,1984 L1822,2638" stroke="blue" stroke-width="2" />
<path d="M2448,3789 L3088,295" stroke="blue" stroke-width="2" />
<path d="M1444,3813 L8243,1996" stroke="blue" stroke-width="2" />
<path d="M8757,2545 L4170,966" stroke="blue" stroke-width="2" />
<path d="M8170,920 L1709,51" stroke="blue" stroke-width="2" />
<path d="M1153,2808 L4805,124" stroke="blue" stroke-width="2" />
<path d="M4252,2641 L7191,3272" stroke="blue" stroke-width="2" />
<path d="M8788,1424 L7905,2850" stroke="blue" stroke-width="2" />
<path d="M2255,1914 L5493,154" stroke="blue" stroke-width="2" />
<path d="M1483,696 L1092,2613" stroke="blue" stroke-width="2" />
<path d="M5847,1039 L989,764" stroke="blue" stroke-width="2" />
<path d="M3909,1735 L4319,1177" stroke="blue" stroke-width="2" />
<path d="M2383,1239 L6938,3113" stroke="blue" stroke-width="2" />
<path d="M6472,498 L6804,1117" stroke="blue" stroke-width="2" />
<path d="M3250,1438 L7973,1227" stroke="blue" stroke-width="2" />
<path d="M592,1321 L2335,416" stroke="blue" stroke-width="2" />
<path d="M2900,3846 L1949,2017" stroke="blue" stroke-width="2" />
<path d="M1813,1003 L249,298" stroke="blue" stroke-width="2" />
<path d="M1383,1590 L296,825" stroke="blue" stroke-width="2" />
<path d="M8337,1997 L2501,178" stroke="blue" stroke-width="2" />
<path d="M4475,3179 L8472,1492" stroke="blue" stroke-width="2" />
<path d="M8996,2115 L653,3166" stroke="blue" stroke-width="2" />
<path d="M4828,1835 L4515,1263" stroke="blue" stroke-width="2" />
<path d="M548,2627 L6869,2430" stroke="blue" stroke-width="2" />
<path d="M6438,1826 L9055,2956" stroke="blue" stroke-width="2" />
<path d="M375,3133 L8772,3519" stroke="blue" stroke-width="2" />
<path d="M7365,1843 L6512,2559" stroke="blue" stroke-width="2" />
<path d="M3715,4058 L4489,1994" stroke="blue" stroke-width="2" />
<path d="M4663,1195 L4290,2362" stroke="blue" stroke-width="2" />
<path d="M3194,3539 L5703,1128" stroke="blue" stroke-width="2" />
<path d="M3161,1052 L3227,3232" stroke="blue" stroke-width="2" />
<path d="M4245,713 L7053,3146" stroke="blue" stroke-width="2" />
<path d="M1073,965 L7201,1316" stroke="blue" stroke-width="2" />
<path d="M8018,3321 L3399,3829" stroke="blue" stroke-width="2" />
<path d="M1293,3310 L34,2629" stroke="blue" stroke-width="2" />
<path d="M146,2814 L8002,1283" stroke="blue" stroke-width="2" />
<path d="M151,2528 L5928,3701" stroke="blue" stroke-width="2" />
<path d="M2804,3465 L4394,1876" stroke="blue" stroke-width="2" />
<path d="M5897,3018 L4715,3275" stroke="blue" stroke-width="2" />
<path d="M1233,1628 L9004,1914" stroke="blue" stroke-width="2" />
<path d="M7106,127 L6944,3186" stroke="blue" stroke-width="2" />
<path d="M5079,1520 L2899,3817" stroke="blue" stroke-width="2" />
<path d="M8904,1292 L1034,2264" stroke="blue" stroke-width="2" />
<path d="M7174,4071 L6560,3426" stroke="blue" stroke-width="2" />
<path d="M1363,1407 L6574,1133" stroke="blue" stroke-width="2" />
<path d="M6385,1349 L7437,3963" stroke="blue" stroke-width="2" />
<path d="M5382,2035 L7798,4086" stroke="blue" stroke-width="2" />
<path d="M2632,2449 L776,4020" stroke="blue" stroke-width="2" />
<path d="M8134,2258 L7193,1466" stroke="blue" stroke-width="2" />
<path d="M1181,3392 L4202,3631" stroke="blue" stroke-width="2" />
<path d="M2129,2181 L576,2398" stroke="blue" stroke-width="2" />
<path d="M223,1402 L1629,1353" stroke="blue" stroke-width="2" />
<path d="M3421,3296 L6698,539" stroke="blue" stroke-width="2" />
<path d="M4771,4045 L1554,3826" stroke="blue" stroke-width="2" />
<path d="M4328,3619 L3055,1552" stroke="blue" stroke-width="2" />
<path d="M1368,2897 L178,2639" stroke="blue" stroke-width="2" />
<path d="M8613,1449 L5463,3210" stroke="blue" stroke-width="2" />
<path d="M5726,530 L7110,270" stroke="blue" stroke-width="2" />
<path d="M6979,2976 L6435,1905" stroke="blue" stroke-width="2" />
<path d="M2123,444 L4789,2009" stroke="blue" stroke-width="2" />
<path d="M2665,2955 L7511,2482" stroke="blue" stroke-width="2" />
<path d="M3106,205 L8822,1049" stroke="blue" stroke-width="2" />
<path d="M6122,143 L1481,2257" stroke="blue" stroke-width="2" />
<path d="M8493,1557 L22,2653" stroke="blue" stroke-width="2" />
<path d="M6905,905 L7670,4092" stroke="blue" stroke-width="2" />
<path d="M7374,1848 L7016,2534" stroke="blue" stroke-width="2" />
<path d="M5187,1364 L2819,1822" stroke="blue" stroke-width="2" />
<path d="M1613,3401 L6247,3286" stroke="blue" stroke-width="2" />
<path d="M4461,3504 L8989,327" stroke="blue" stroke-width="2" />
<path d="M2290,3032 L6402,1241" stroke="blue" stroke-width="2" />
<path d="M3855,2412 L4722,2964" stroke="blue" stroke-width="2" />
<path d="M148,192 L2685,2362" stroke="blue" stroke-width="2" />
<path d="M8975,1020 L5807,453" stroke="blue" stroke-width="2" />
<path d="M1014,1575 L3776,1074" stroke="blue" stroke-width="2" />
<path d="M6510,2061 L2477,3461" stroke="blue" stroke-width="2" />
<path d="M5220,3867 L4429,2446" stroke="blue" stroke-width="2" />
<path d="M2379,1179 L6739,3092" stroke="blue" stroke-width="2" />
<path d="M932,176 L5667,3328" stroke="blue" stroke-width="2" />
<path d="M625,3012 L952,2557" stroke="blue" stroke-width="2" />
<path d="M8307,3188 L4252,3250" stroke="blue" stroke-width="2" />
<path d="M5126,649 L7633,2388" stroke="blue" stroke-width="2" />
<path d="M2715,3897 L3799,1423" stroke="blue" stroke-width="2" />
<path d="M1281,1203 L2840,329" stroke="blue" stroke-width="2" />
<path d="M4716,1100 L8457,491" stroke="blue" stroke-width="2" />
<path d="M9021,3569 L454,3760" stroke="blue" stroke-width="2" />
<path d="M6823,3620 L19,136" stroke="blue" stroke-width="2" />
<path d="M5329,748 L2380,2038" stroke="blue" stroke-width="2" />
<path d="M2194,1747 L3869,2855" stroke="blue" stroke-width="2" />
<path d="M2265,2811 L1399,2242" stroke="blue" stroke-width="2" />
<path d="M1460,3035 L2132,2099" stroke="blue" stroke-width="2" />
<path d="M7035,1698 L934,355" stroke="blue" stroke-width="2" />
<path d="M436,3796 L5343,3702" stroke="blue" stroke-width="2" />
<path d="M1784,2920 L928,786" stroke="blue" stroke-width="2" />
<path d="M53,3224 L4462,890" stroke="blue" stroke-width="2" />
<path d="M42,2914 L4601,1838" stroke="blue" stroke-width="2" />
<path d="M4604,2993 L6674,2417" stroke="blue" stroke-width="2" />
<path d="M8749,2683 L1053,2737" stroke="blue" stroke-width="2" />
<path d="M7915,1476 L988,1056" stroke="blue" stroke-width="2" />
<path d="M3585,2711 L1281,539" stroke="blue" stroke-width="2" />
<path d="M8728,553 L1406,2738" stroke="blue" stroke-width="2" />
<path d="M301,2867 L6042,2539" stroke="blue" stroke-width="2" />
<path d="M823,1840 L197,1340" stroke="blue" stroke-width="2" />
<path d="M2147,991 L476,1061" stroke="blue" stroke-width="2" />
<path d="M8555,2861 L4082,207" stroke="blue" stroke-width="2" />
<path d="M2411,349 L2600,1703" stroke="blue" stroke-width="2" />
<path d="M1950,1100 L2077,1521" stroke="blue" stroke-width="2" />
<path d="M5628,1919 L6819,3415" stroke="blue" stroke-width="2" />
<path d="M3867,4072 L329,3347" stroke="blue" stroke-width="2" />
<path d="M4984,2942 L6730,3730" stroke="blue" stroke-width="2" />
<path d="M6545,1685 L6093,670" stroke="blue" stroke-width="2" />
<path d="M783,2025 L1108,3655" stroke="blue" stroke-width="2" />
<path d="M498,717 L5300,3419" stroke="blue" stroke-width="2" />
<path d="M1461,127 L7548,3643" stroke="blue" stroke-width="2" />
<path d="M8696,555 L3544,280" stroke="blue" stroke-width="2" />
<path d="M6836,205 L3277,535" stroke="blue" stroke-width="2" />
<path d="M7450,2350 L1229,1355" stroke="blue" stroke-width="2" />
<path d="M8602,3635 L4309,4000" stroke="blue" stroke-width="2" />
<path d="M8441,2492 L3426,472" stroke="blue" stroke-width="2" />
<path d="M4248,666 L5775,1688" stroke="blue" stroke-width="2" />
<path d="M473,2607 L3562,782" stroke="blue" stroke-width="2" />
<path d="M6025,555 L8617,1828" stroke="blue" stroke-width="2" />
<path d="M6287,1553 L4732,1733" stroke="blue" stroke-width="2" />
<path d="M7116,818 L4558,2744" stroke="blue" stroke-width="2" />
<path d="M3656,1622 L855,4050" stroke="blue" stroke-width="2" />
<path d="M8859,1544 L7092,2920" stroke="blue" stroke-width="2" />
<path d="M5203,1845 L4034,902" stroke="blue" stroke-width="2" />
<path d="M7338,2295 L2739,1305" stroke="blue" stroke-width="2" />
<path d="M8567,1423 L1064,228" stroke="blue" stroke-width="2" />
<path d="M5883,3752 L2015,1338" stroke="blue" stroke-width="2" />
<path d="M5822,1739 L842,2513" stroke="blue" stroke-width="2" />
<path d="M6665,446 L3853,3543" stroke="blue" stroke-width="2" />
<path d="M7206,1018 L8279,741" stroke="blue" stroke-width="2" />
<path d="M8883,1865 L3693,1354" stroke="blue" stroke-width="2" />
<path d="M1909,3920 L92,978" stroke="blue" stroke-width="2" />
<path d="M7922,3447 L7944,2469" stroke="blue" stroke-width="2" />
<path d="M2997,3657 L8434,759" stroke="blue" stroke-width="2" />
<path d="M7377,805 L8982,2536" stroke="blue" stroke-width="2" />
<path d="M1907,1308 L6505,1516" stroke="blue" stroke-width="2" />
<path d="M2907,3321 L127,2651" stroke="blue" stroke-width="2" />
<path d="M6773,1195 L7070,3318" stroke="blue" stroke-width="2" />
<path d="M7961,1739 L4529,958" stroke="blue" stroke-width="2" />
<path d="M5268,2494 L2566,2298" stroke="blue" stroke-width="2" />
<path d="M1786,3817 L2613,1629" stroke="blue" stroke-width="2" />
<path d="M7172,2402 L2611,2797" stroke="blue" stroke-width="2" />
<path d="M1843,3781 L4385,2391" stroke="blue" stroke-width="2" />
<path d="M8005,3493 L1801,447" stroke="blue" stroke-width="2" />
<path d="M4950,91 L5506,92" stroke="blue" stroke-width="2" />
<path d="M1148,2544 L4221,2017" stroke="blue" stroke-width="2" />
<path d="M4557,3271 L6214,1047" stroke="blue" stroke-width="2" />
<path d="M3873,1047 L7560,2913" stroke="blue" stroke-width="2" />
<path d="M2863,64 L2104,2859" stroke="blue" stroke-width="2" />
<path d="M1185,2124 L3353,3400" stroke="blue" stroke-width="2" />
<path d="M6214,3592 L8912,2716" stroke="blue" stroke-width="2" />
<path d="M3896,3521 L3471,2066" stroke="blue" stroke-width="2" />
<path d="M8038,2508 L7856,3696" stroke="blue" stroke-width="2" />
<path d="M8775,336 L1691,700" stroke="blue" stroke-width="2" />
<path d="M5963,2199 L5096,4024" stroke="blue" stroke-width="2" />
<path d="M2865,403 L5831,1226" stroke="blue" stroke-width="2" />
<path d="M7315,831 L2686,3752" stroke="blue" stroke-width="2" />
<path d="M311,558 L7861,2667" stroke="blue" stroke-width="2" />
<path d="M4375,1301 L3536,2797" stroke="blue" stroke-width="2" />
<path d="M3399,3819 L702,1794" stroke="blue" stroke-width="2" />
<path d="M2228,1813 L3299,1898" stroke="blue" stroke-width="2" />
<path d="M2525,3569 L1574,3439" stroke="blue" stroke-width="2" />
<path d="M901,2466 L6521,3148" stroke="blue" stroke-width="2" />
<path d="M5549,675 L1448,2186" stroke="blue" stroke-width="2" />
<path d="M3664,880 L6778,3567" stroke="blue" stroke-width="2" />
<path d="M3207,12 L6873,3801" stroke="blue" stroke-width="2" />
<path d="M658,1415 L8127,933" stroke="blue" stroke-width="2" />
<path d="M5029,1502 L966,3362" stroke="blue" stroke-width="2" />
<path d="M7698,978 L991,915" stroke="blue" stroke-width="2" />
<path d="M6330,1266 L8903,2691" stroke="blue" stroke-width="2" />
<path d="M6547,2308 L2653,989" stroke="blue" stroke-width="2" />
<path d="M1461,437 L7600,4013" stroke="blue" stroke-width="2" />
<path d="M6545,361 L7729,3797" stroke="blue" stroke-width="2" />
<path d="M7105,1012 L6918,2374" stroke="blue" stroke-width="2" />
<path d="M8780,1381 L1549,1317" stroke="blue" stroke-width="2" />
<path d="M2302,772 L3261,2089" stroke="blue" stroke-width="2" />
<path d="M1790,3409 L8265,2480" stroke="blue" stroke-width="2" />
<path d="M6753,760 L2205,2542" stroke="blue" stroke-width="2" />
<path d="M1480,3099 L5935,1774" stroke="blue" stroke-width="2" />
<path d="M5986,54 L1959,2683" stroke="blue" stroke-width="2" />
<path d="M8831,3010 L8571,2946" stroke="blue" stroke-width="2" />
<path d="M341,804 L1249,599" stroke="blue" stroke-width="2" />
<path d="M7516,3944 L1912,3562" stroke="blue" stroke-width="2" />
<path d="M4463,3275 L6129,7" stroke="blue" stroke-width="2" />
<path d="M7592,2726 L4641,3110" stroke="blue" stroke-width="2" />
<path d="M6009,1690 L980,1136" stroke="blue" stroke-width="2" />
<path d="M3164,937 L7985,1196" stroke="blue" stroke-width="2" />
<path d="M7215,3046 L7427,1666" stroke="blue" stroke-width="2" />
<path d="M93,343 L7316,1358" stroke="blue" stroke-width="2" />
<path d="M9074,2832 L421,471" stroke="blue" stroke-width="2" />
<path d="M7944,1505 L3189,1258" stroke="blue" stroke-width="2" />
<path d="M5165,1160 L8614,3261" stroke="blue" stroke-width="2" />
<path d="M2640,1209 L6069,2048" stroke="blue" stroke-width="2" />
<path d="M4823,2756 L1643,3007" stroke="blue" stroke-width="2" />
<path d="M3911,3088 L2014,128" stroke="blue" stroke-width="2" />
<path d="M5800,1290 L6086,2727" stroke="blue" stroke-width="2" />
<path d="M1948,2346 L876,1165" stroke="blue" stroke-width="2" />
<path d="M218,1242 L148,2514" stroke="blue" stroke-width="2" />
<path d="M3490,3382 L2342,3410" stroke="blue" stroke-width="2" />
<path d="M5284,4080 L6212,2334" stroke="blue" stroke-width="2" />
<path d="M9039,1287 L2789,3988" stroke="blue" stroke-width="2" />
<path d="M8806,1895 L6323,2979" stroke="blue" stroke-width="2" />
<path d="M4868,4103 L7438,4067" stroke="blue" stroke-width="2" />
<path d="M3704,2319 L5780,290" stroke="blue" stroke-width="2" />
<path d="M8560,2391 L265,104" stroke="blue" stroke-width="2" />
<path d="M7085,1500 L3278,3797" stroke="blue" stroke-width="2" />
<path d="M8310,3398 L2699,2376" stroke="blue" stroke-width="2" />
<path d="M6910,1147 L3031,512" stroke="blue" stroke-width="2" />
<path d="M3512,3749 L6226,2074" stroke="blue" stroke-width="2" />
<path d="M5820,654 L2015,1274" stroke="blue" stroke-width="2" />
<path d="M1581,1381 L5124,3000" stroke="blue" stroke-width="2" />
<path d="M2655,2651 L2396,3866" stroke="blue" stroke-width="2" />
<path d="M6957,979 L1763,2393" stroke="blue" stroke-width="2" />
<path d="M5192,1241 L5716,4046" stroke="blue" stroke-width="2" />
<path d="M4869,3889 L7360,271" stroke="blue" stroke-width="2" />
<path d="M3016,1252 L3864,1807" stroke="blue" stroke-width="2" />
<path d="M7163,1165 L6902,638" stroke="blue" stroke-width="2" />
<path d="M2301,50 L2128,338" stroke="blue" stroke-width="2" />
<path d="M2348,3650 L7678,3507" stroke="blue" stroke-width="2" />
<path d="M3187,3269 L6263,318" stroke="blue" stroke-width="2" />
<path d="M8593,3282 L2321,1303" stroke="blue" stroke-width="2" />
<path d="M6531,2383 L4333,1993" stroke="blue" stroke-width="2" />
<path d="M3586,2558 L3285,1978" stroke="blue" stroke-width="2" />
<path d="M7434,2843 L5460,2621" stroke="blue" stroke-width="2" />
<path d="M4964,3343 L7798,742" stroke="blue" stroke-width="2" />
<path d="M4617,1997 L1484,522" stroke="blue" stroke-width="2" />
<path d="M8357,3673 L1855,1514" stroke="blue" stroke-width="2" />
<path d="M1502,3461 L1381,1442" stroke="blue" stroke-width="2" />
<path d="M2849,480 L7645,3402" stroke="blue" stroke-width="2" />
<path d="M784,536 L1427,607" stroke="blue" stroke-width="2" />
<path d="M7251,259 L7655,2431" stroke="blue" stroke-width="2" />
<path d="M5402,1981 L357,3187" stroke="blue" stroke-width="2" />
<path d="M4380,669 L1700,2670" stroke="blue" stroke-width="2" />
<path d="M2423,451 L5662,801" stroke="blue" stroke-width="2" />
<path d="M9065,2019 L497,3311" stroke="blue" stroke-width="2" />
<path d="M1156,1168 L5072,219" stroke="blue" stroke-width="2" />
<path d="M6904,664 L1671,2463" stroke="blue" stroke-width="2" />
<path d="M8173,217 L3102,938" stroke="blue" stroke-width="2" />
<path d="M4810,1788 L7039,2234" stroke="blue" stroke-width="2" />
<path d="M8485,573 L6712,3147" stroke="blue" stroke-width="2" />
<path d="M3661,3679 L6045,894" stroke="blue" stroke-width="2" />
<path d="M4176,1134 L7714,2749" stroke="blue" stroke-width="2" />
<path d="M3365,4010 L5661,1770" stroke="blue" stroke-width="2" />
<path d="M6256,3955 L1503,3736" stroke="blue" stroke-width="2" />
<path d="M6735,632 L3486,59" stroke="blue" stroke-width="2" />
<path d="M8306,131 L1689,362" stroke="blue" stroke-width="2" />
<path d="M8351,3473 L396,1863" stroke="blue" stroke-width="2" />
<path d="M8285,1331 L1386,1950" stroke="blue" stroke-width="2" />
<path d="M2553,1873 L4500,658" stroke="blue" stroke-width="2" />
<path d="M9038,618 L2413,1241" stroke="blue" stroke-width="2" />
<path d="M6625,3341 L2201,3049" stroke="blue" stroke-width="2" />
<path d="M6600,1131 L4385,1628" stroke="blue" stroke-width="2" />
<path d="M3248,3565 L1911,284" stroke="blue" stroke-width="2" />
<path d="M3532,1864 L345,698" stroke="blue" stroke-width="2" />
<path d="M8873,570 L726,2145" stroke="blue" stroke-width="2" />
<path d="M2311,644 L8030,2473" stroke="blue" stroke-width="2" />
<path d="M2053,3915 L5045,2533" stroke="blue" stroke-width="2" />
<path d="M7935,2152 L1984,536" stroke="blue" stroke-width="2" />
<path d="M4292,3215 L8690,852" stroke="blue" stroke-width="2" />
<path d="M8952,2826 L6831,1789" stroke="blue" stroke-width="2" />
<path d="M5946,1373 L7105,2969" stroke="blue" stroke-width="2" />
<path d="M2087,1417 L2836,3193" stroke="blue" stroke-width="2" />
<path d="M6314,2780 L4527,1570" stroke="blue" stroke-width="2" />
<path d="M4792,3981 L2415,1727" stroke="blue" stroke-width="2" />
<path d="M7520,494 L5875,1653" stroke="blue" stroke-width="2" />
<path d="M3823,3439 L5186,3420" stroke="blue" stroke-width="2" />
<path d="M8794,502 L435,441" stroke="blue" stroke-width="2" />
<path d="M28,869 L7941,2418" stroke="blue" stroke-width="2" />
<path d="M3455,841 L662,2639" stroke="blue" stroke-width="2" />
<path d="M677,293 L1816,279" stroke="blue" stroke-width="2" />
<path d="M3634,1811 L5528,1262" stroke="blue" stroke-width="2" />
<path d="M5552,2644 L5324,3073" stroke="blue" stroke-width="2" />
<path d="M5989,3078 L4932,2571" stroke="blue" stroke-width="2" />
<path d="M6694,1943 L4240,2198" stroke="blue" stroke-width="2" />
<path d="M6139,1427 L1385,3763" stroke="blue" stroke-width="2" />
<path d="M1371,3858 L4617,2797" stroke="blue" stroke-width="2" />
<path d="M2817,592 L1687,2167" stroke="blue" stroke-width="2" />
<path d="M3697,2673 L326,2875" stroke="blue" stroke-width="2" />
<path d="M2121,3162 L2006,2923" stroke="blue" stroke-width="2" />
<path d="M1317,2547 L7511,908" stroke="blue" stroke-width="2" />
<path d="M8127,766 L428,1603" stroke="blue" stroke-width="2" />
<path d="M708,1911 L5931,1858" stroke="blue" stroke-width="2" />
<path d="M2018,2188 L791,1580" stroke="blue" stroke-width="2" />
<path d="M693,3105 L4576,3493" stroke="blue" stroke-width="2" />
<path d="M333,3155 L5562,3270" stroke="blue" stroke-width="2" />
<path d="M8274,653 L5376,735" stroke="blue" stroke-width="2" />
<path d="M7497,2221 L3501,4092" stroke="blue" stroke-width="2" />
<path d="M7577,1504 L7634,877" stroke="blue" stroke-width="2" />
<path d="M3299,2964 L417,1778" stroke="blue" stroke-width="2" />
<path d="M5637,393 L1113,1479" stroke="blue" stroke-width="2" />
<path d="M4062,2531 L8908,2081" stroke="blue" stroke-width="2" />
<path d="M7275,237 L3762,2894" stroke="blue" stroke-width="2" />
<path d="M3480,541 L568,1455" stroke="blue" stroke-width="2" />
<path d="M1665,482 L8953,4083" stroke="blue" stroke-width="2" />
<path d="M7041,1270 L3564,3847" stroke="blue" stroke-width="2" />
<path d="M7676,741 L7989,3490" stroke="blue" stroke-width="2" />
<path d="M4947,2137 L4086,36" stroke="blue" stroke-width="2" />
<path d="M1779,1599 L184,675" stroke="blue" stroke-width="2" />
<path d="M4517,3591 L7282,288" stroke="blue" stroke-width="2" />
<path d="M71,3365 L349,2919" stroke="blue" stroke-width="2" />
<path d="M5673,383 L976,1321" stroke="blue" stroke-width="2" />
<path d="M5358,4052 L4942,3785" stroke="blue" stroke-width="2" />
<path d="M4657,932 L8988,640" stroke="blue" stroke-width="2" />
<path d="M4202,406 L4525,3354" stroke="blue" stroke-width="2" />
<path d="M7416,3944 L457,3004" stroke="blue" stroke-width="2" />
<path d="M3371,1199 L7896,156" stroke="blue" stroke-width="2" />
<path d="M6754,3058 L5213,3337" stroke="blue" stroke-width="2" />
<path d="M1763,1503 L4851,1661" stroke="blue" stroke-width="2" />
<path d="M288,440 L6600,2520" stroke="blue" stroke-width="2" />
<path d="M4805,179 L8826,3346" stroke="blue" stroke-width="2" />
<path d="M1891,1147 L6109,2658" stroke="blue" stroke-width="2" />
<path d="M3457,324 L1986,3907" stroke="blue" stroke-width="2" />
<path d="M3596,4096 L6236,3124" stroke="blue" stroke-width="2" />
<path d="M8655,1001 L7945,1385" stroke="blue" stroke-width="2" />
<path d="M3256,549 L7783,408" stroke="blue" stroke-width="2" />
<path d="M2839,734 L6340,3809" stroke="blue" stroke-width="2" />
<path d="M7611,2108 L3549,3542" stroke="blue" stroke-width="2" />
<path d="M5157,2701 L5510,2269" stroke="blue" stroke-width="2" />
<path d="M8687,891 L8494,2509" stroke="blue" stroke-width="2" />
<path d="M1422,3775 L1148,322" stroke="blue" stroke-width="2" />
<path d="M2679,1047 L9104,3614" stroke="blue" stroke-width="2" />
<path d="M1795,2090 L4269,317" stroke="blue" stroke-width="2" />
<path d="M1656,3036 L3302,3315" stroke="blue" stroke-width="2" />
<path d="M6071,1138 L7499,4090" stroke="blue" stroke-width="2" />
<path d="M3107,2801 L7866,1493" stroke="blue" stroke-width="2" />
<path d="M309,203 L7472,2643" stroke="blue" stroke-width="2" />
<path d="M6327,2562 L8630,3280" stroke="blue" stroke-width="2" />
<path d="M6832,1720 L2040,52" stroke="blue" stroke-width="2" />
<path d="M3266,3958 L7374,649" stroke="blue" stroke-width="2" />
<path d="M1294,1335 L3323,1109" stroke="blue" stroke-width="2" />
<path d="M5581,3545 L488,2231" stroke="blue" stroke-width="2" />
<path d="M3067,2924 L8825,1101" stroke="blue" stroke-width="2" />
<path d="M2572,3683 L7932,2541" stroke="blue" stroke-width="2" />
<path d="M1923,1644 L5681,4004" stroke="blue" stroke-width="2" />
<path d="M3614,2245 L1699,160" stroke="blue" stroke-width="2" />
<path d="M4252,2403 L9077,3468" stroke="blue" stroke-width="2" />
<path d="M539,3171 L1468,289" stroke="blue" stroke-width="2" />
<path d="M2863,2314 L2203,2280" stroke="blue" stroke-width="2" />
<path d="M6951,9 L3320,628" stroke="blue" stroke-width="2" />
<path d="M7744,2422 L7986,3412" stroke="blue" stroke-width="2" />
<path d="M6886,1686 L1808,921" stroke="blue" stroke-width="2" />
<path d="M2944,1260 L4342,3795" stroke="blue" stroke-width="2" />
<path d="M5262,821 L6405,2873" stroke="blue" stroke-width="2" />
<path d="M234,1499 L1099,797" stroke="blue" stroke-width="2" />
<path d="M5910,3842 L1823,3157" stroke="blue" stroke-width="2" />
<path d="M4524,87 L1631,2932" stroke="blue" stroke-width="2" />
<path d="M2774,22 L3451,353" stroke="blue" stroke-width="2" />
<path d="M3720,2052 L2168,1670" stroke="blue" stroke-width="2" />
<path d="M6312,357 L1192,224" stroke="blue" stroke-width="2" />
<path d="M8153,1659 L2291,3838" stroke="blue" stroke-width="2" />
<path d="M3461,3415 L6482,3450" stroke="blue" stroke-width="2" />
<path d="M4418,3655 L5904,1145" stroke="blue" stroke-width="2" />
<path d="M1904,2608 L8063,295" stroke="blue" stroke-width="2" />
<path d="M6602,3286 L430,2724" stroke="blue" stroke-width="2" />
<path d="M7688,2796 L2499,121" stroke="blue" stroke-width="2" />
<path d="M5103,2467 L8524,1675" stroke="blue" stroke-width="2" />
<path d="M6601,3623 L4839,3987" stroke="blue" stroke-width="2" />
<path d="M5687,1770 L6005,3578" stroke="blue" stroke-width="2" />
<path d="M787,2746 L6519,3840" stroke="blue" stroke-width="2" />
<path d="M5223,2792 L6402,3294" stroke="blue" stroke-width="2" />
<path d="M8569,2047 L235,2016" stroke="blue" stroke-width="2" />
<path d="M3867,3208 L7805,763" stroke="blue" stroke-width="2" />
<path d="M4845,389 L7884,1506" stroke="blue" stroke-width="2" />
<path d="M3288,2386 L3650,2246" stroke="blue" stroke-width="2" />
<path d="M1565,1585 L5887,2827" stroke="blue" stroke-width="2" />
<path d="M7993,594 L5588,360" stroke="blue" stroke-width="2" />
<path d="M8949,2164 L7091,2869" stroke="blue" stroke-width="2" />
<path d="M85,2569 L7392,1286" stroke="blue" stroke-width="2" />
<path d="M6036,3729 L1279,2426" stroke="blue" stroke-width="2" />
<path d="M1584,3318 L3753,612" stroke="blue" stroke-width="2" />
<path d="M7293,1347 L2305,2986" stroke="blue" stroke-width="2" />
<path d="M5948,3664 L7218,3102" stroke="blue" stroke-width="2" />
<path d="M8068,1071 L4702,2773" stroke="blue" stroke-width="2" />
<path d="M8915,3425 L2198,1004" stroke="blue" stroke-width="2" />
<path d="M7365,3581 L5516,3416" stroke="blue" stroke-width="2" />
<path d="M4885,3475 L1172,3016" stroke="blue" stroke-width="2" />
<path d="M6214,731 L3672,1054" stroke="blue" stroke-width="2" />
<path d="M2549,1531 L2516,860" stroke="blue" stroke-width="2" />
<path d="M5690,2032 L704,4029" stroke="blue" stroke-width="2" />
<path d="M7897,960 L8056,623" stroke="blue" stroke-width="2" />
<path d="M6519,624 L7344,2076" stroke="blue" stroke-width="2" />
<path d="M2238,265 L4834,1529" stroke="blue" stroke-width="2" />
<path d="M4692,919 L2020,1457" stroke="blue" stroke-width="2" />
<path d="M5310,196 L7386,2754" stroke="blue" stroke-width="2" />
<path d="M3396,3318 L2740,3510" stroke="blue" stroke-width="2" />
<path d="M1111,2256 L4918,3188" stroke="blue" stroke-width="2" />
<path d="M7258,3527 L1622,188" stroke="blue" stroke-width="2" />
<path d="M9098,1724 L2725,669" stroke="blue" stroke-width="2" />
<path d="M7211,1891 L6054,2359" stroke="blue" stroke-width="2" />
<path d="M7969,3144 L7605,782" stroke="blue" stroke-width="2" />
<path d="M1945,3519 L5626,547" stroke="blue" stroke-width="2" />
<path d="M4709,2797 L1117,2060" stroke="blue" stroke-width="2" />
<path d="M5918,129 L4351,2325" stroke="blue" stroke-width="2" />
<path d="M3756,1485 L4427,3432" stroke="blue" stroke-width="2" />
<path d="M4522,4026 L5639,2907" stroke="blue" stroke-width="2" />
<path d="M1982,2576 L1387,2802" stroke="blue" stroke-width="2" />
<path d="M115,2798 L8596,3060" stroke="blue" stroke-width="2" />
<path d="M1149,1299 L8022,66" stroke="blue" stroke-width="2" />
<path d="M4494,2932 L97,2635" stroke="blue" stroke-width="2" />
<path d="M1338,2442 L5413,265" stroke="blue" stroke-width="2" />
<path d="M1285,2622 L4187,4003" stroke="blue" stroke-width="2" />
<path d="M5271,3468 L6653,2154" stroke="blue" stroke-width="2" />
<path d="M603,2036 L4159,3976" stroke="blue" stroke-width="2" />
<path d="M3851,3055 L3396,3814" stroke="blue" stroke-width="2" />
<path d="M4136,3424 L7721,3199" stroke="blue" stroke-width="2" />
<path d="M1318,1684 L8079,2874" stroke="blue" stroke-width="2" />
<path d="M5526,1030 L8950,3518" stroke="blue" stroke-width="2" />
<path d="M7243,2766 L4533,1431" stroke="blue" stroke-width="2" />
<path d="M5116,319 L4526,355" stroke="blue" stroke-width="2" />
<path d="M8461,2431 L5549,2605" stroke="blue" stroke-width="2" />
<path d="M3874,773 L565,1873" stroke="blue" stroke-width="2" />
<path d="M4931,3374 L3638,1995" stroke="blue" stroke-width="2" />
<path d="M3586,2330 L4839,926" stroke="blue" stroke-width="2" />
<path d="M4261,3747 L5104,3781" stroke="blue" stroke-width="2" />
<path d="M7890,2934 L5703,1169" stroke="blue" stroke-width="2" />
<path d="M4424,2917 L7561,3160" stroke="blue" stroke-width="2" />
<path d="M3186,2295 L3884,2511" stroke="blue" stroke-width="2" />
<path d="M955,2423 L4961,3713" stroke="blue" stroke-width="2" />
<path d="M5377,3098 L6198,1380" stroke="blue" stroke-width="2" />
<path d="M5377,1761 L4237,1748" stroke="blue" stroke-width="2" />
<path d="M1338,28 L4268,1351" stroke="blue" stroke-width="2" />
<path d="M1293,4076 L7326,1725" stroke="blue" stroke-width="2" />
<path d="M3966,3653 L2475,709" stroke="blue" stroke-width="2" />
<path d="M5558,3384 L7342,638" stroke="blue" stroke-width="2" />
<path d="M8728,3471 L75,353" stroke="blue" stroke-width="2" />
<path d="M2882,3115 L4206,3117" stroke="blue" stroke-width="2" />
<path d="M3725,3924 L4935,3703" stroke="blue" stroke-width="2" />
<path d="M2161,1458 L163,3907" stroke="blue" stroke-width="2" />
<path d="M1296,4103 L1329,3525" stroke="blue" stroke-width="2" />
<path d="M3941,3141 L4672,3592" stroke="blue" stroke-width="2" />
<path d="M4456,332 L590,2916" stroke="blue" stroke-width="2" />
<path d="M6374,157 L673,3325" stroke="blue" stroke-width="2" />
<path d="M5570,1607 L5214,1320" stroke="blue" stroke-width="2" />
<path d="M8153,1608 L8046,1910" stroke="blue" stroke-width="2" />
<path d="M961,4104 L8192,2860" stroke="blue" stroke-width="2" />
<path d="M3794,2065 L5086,56" stroke="blue" stroke-width="2" />
<path d="M6128,2174 L5427,3089" stroke="blue" stroke-width="2" />
<path d="M2570,254 L2072,1414" stroke="blue" stroke-width="2" />
<path d="M5671,1257 L1070,1994" stroke="blue" stroke-width="2" />
<path d="M6466,1265 L8024,3728" stroke="blue" stroke-width="2" />
<path d="M8963,3540 L3679,975" stroke="blue" stroke-width="2" />
<path d="M6715,2772 L2549,1031" stroke="blue" stroke-width="2" />
<path d="M1063,160 L6915,303" stroke="blue" stroke-width="2" />
<path d="M9047,1166 L1349,3875" stroke="blue" stroke-width="2" />
<path d="M7858,3068 L2924,2303" stroke="blue" stroke-width="2" />
<path d="M5463,4044 L7290,4038" stroke="blue" stroke-width="2" />
<path d="M3001,431 L659,3886" stroke="blue" stroke-width="2" />
<path d="M6934,3560 L2201,791" stroke="blue" stroke-width="2" />
<path d="M8996,341 L5515,297" stroke="blue" stroke-width="2" />
<path d="M744,3401 L1656,3138" stroke="blue" stroke-width="2" />
<path d="M6786,2684 L7192,3289" stroke="blue" stroke-width="2" />
<path d="M531,3364 L158,2769" stroke="blue" stroke-width="2" />
<path d="M3464,3849 L200,1550" stroke="blue" stroke-width="2" />
<path d="M7048,1569 L7828,4007" stroke="blue" stroke-width="2" />
<path d="M1896,1277 L7627,746" stroke="blue" stroke-width="2" />
<path d="M287,53 L127,3502" stroke="blue" stroke-width="2" />
<path d="M6096,1923 L5947,1446" stroke="blue" stroke-width="2" />
<path d="M2108,468 L2909,2399" stroke="blue" stroke-width="2" />
<path d="M521,462 L4693,2055" stroke="blue" stroke-width="2" />
<path d="M6800,612 L5481,3905" stroke="blue" stroke-width="2" />
<path d="M5435,1115 L841,1473" stroke="blue" stroke-width="2" />
<path d="M7207,923 L3078,2317" stroke="blue" stroke-width="2" />
<path d="M3920,744 L2601,3417" stroke="blue" stroke-width="2" />
<path d="M783,1145 L7074,1836" stroke="blue" stroke-width="2" />
<path d="M5007,1871 L8840,1898" stroke="blue" stroke-width="2" />
<path d="M8531,1433 L8569,3553" stroke="blue" stroke-width="2" />
<path d="M779,4078 L7735,2647" stroke="blue" stroke-width="2" />
<path d="M8401,313 L7658,3626" stroke="blue" stroke-width="2" />
<path d="M1444,1207 L1598,2150" stroke="blue" stroke-width="2" />
<path d="M523,3436 L5446,3833" stroke="blue" stroke-width="2" />
<path d="M5653,650 L5160,530" stroke="blue" stroke-width="2" />
<path d="M6104,3485 L5050,3683" stroke="blue" stroke-width="2" />
<path d="M7614,3460 L7625,2688" stroke="blue" stroke-width="2" />
<path d="M2819,78 L2828,90" stroke="blue" stroke-width="2" />
<path d="M8452,922 L6314,1034" stroke="blue" stroke-width="2" />
<path d="M606,2883 L6437,2291" stroke="blue" stroke-width="2" />
<path d="M6415,3701 L910,3017" stroke="blue" stroke-width="2" />
<path d="M7782,3957 L4495,3093" stroke="blue" stroke-width="2" />
<path d="M1305,2326 L2211,2466" stroke="blue" stroke-width="2" />
<path d="M3408,3324 L8510,3384" stroke="blue" stroke-width="2" />
<path d="M7733,3322 L6110,2246" stroke="blue" stroke-width="2" />
<path d="M4820,761 L3334,3942" stroke="blue" stroke-width="2" />
<path d="M6506,3307 L3316,2000" stroke="blue" stroke-width="2" />
<path d="M7528,3310 L6831,2161" stroke="blue" stroke-width="2" />
<path d="M6828,153 L244,2371" stroke="blue" stroke-width="2" />
<path d="M5280,1343 L7524,1160" stroke="blue" stroke-width="2" />
<path d="M4117,2750 L322,3297" stroke="blue" stroke-width="2" />
<path d="M2132,1863 L7821,2141" stroke="blue" stroke-width="2" />
<path d="M8185,791 L5144,3381" stroke="blue" stroke-width="2" />
<path d="M8195,3242 L5153,2762" stroke="blue" stroke-width="2" />
<path d="M2833,2684 L3914,2540" stroke="blue" stroke-width="2" />
<path d="M4451,381 L3580,1488" stroke="blue" stroke-width="2" />
<path d="M8440,3709 L4496,1969" stroke="blue" stroke-width="2" />
<path d="M8656,2306 L4013,506" stroke="blue" stroke-width="2" />
<path d="M3004,10 L1165,470" stroke="blue" stroke-width="2" />
<path d="M4657,4069 L5107,242" stroke="blue" stroke-width="2" />
<path d="M1805,14 L7679,2818" stroke="blue" stroke-width="2" />
<path d="M118,3394 L669,1308" stroke="blue" stroke-width="2" />
<path d="M8652,3606 L1226,3834" stroke="blue" stroke-width="2" />
<path d="M219,1050 L5231,1359" stroke="blue" stroke-width="2" />
<path d="M939,1263 L1595,251" stroke="blue" stroke-width="2" />
<path d="M7595,3712 L7400,355" stroke="blue" stroke-width="2" />
<path d="M8552,1630 L3954,1894" stroke="blue" stroke-width="2" />
<path d="M7145,1475 L7780,3690" stroke="blue" stroke-width="2" />
<path d="M392,1378 L4235,1323" stroke="blue" stroke-width="2" />
<path d="M6833,1666 L3494,1990" stroke="blue" stroke-width="2" />
<path d="M5418,1268 L6391,417" stroke="blue" stroke-width="2" />
<path d="M8674,3306 L6944,2336" stroke="blue" stroke-width="2" />
<path d="M735,3971 L8641,2753" stroke="blue" stroke-width="2" />
<path d="M3621,2130 L7223,1979" stroke="blue" stroke-width="2" />
<path d="M7520,3835 L6822,539" stroke="blue" stroke-width="2" />
<path d="M7236,3581 L101,34" stroke="blue" stroke-width="2" />
<path d="M6903,2583 L3153,1143" stroke="blue" stroke-width="2" />
<path d="M4163,3859 L3993,1496" stroke="blue" stroke-width="2" />
<path d="M6408,3757 L1131,2500" stroke="blue" stroke-width="2" />
<path d="M8644,1485 L265,3709" stroke="blue" stroke-width="2" />
<path d="M4157,2626 L3634,4026" stroke="blue" stroke-width="2" />
<path d="M2222,4075 L8510,2461" stroke="blue" stroke-width="2" />
<path d="M3395,2721 L4748,1017" stroke="blue" stroke-width="2" />
<path d="M4118,3101 L8283,658" stroke="blue" stroke-width="2" />
<path d="M3438,1037 L3671,1359" stroke="blue" stroke-width="2" />
<path d="M7969,2515 L8566,512" stroke="blue" stroke-width="2" />
<path d="M1240,1655 L8627,120" stroke="blue" stroke-width="2" />
<path d="M3572,3108 L7869,2622" stroke="blue" stroke-width="2" />
<path d="M4285,3423 L5564,250" stroke="blue" stroke-width="2" />
<path d="M7449,2732 L2631,2263" stroke="blue" stroke-width="2" />
<path d="M6089,1043 L7274,4056" stroke="blue" stroke-width="2" />
<path d="M6347,1809 L4475,3034" stroke="blue" stroke-width="2" />
<path d="M1734,224 L2974,2701" stroke="blue" stroke-width="2" />
<path d="M1603,1746 L2588,1835" stroke="blue" stroke-width="2" />
<path d="M4657,148 L9068,1330" stroke="blue" stroke-width="2" />
<path d="M5531,2526 L674,1276" stroke="blue" stroke-width="2" />
<path d="M5213,2636 L4853,131" stroke="blue" stroke-width="2" />
<path d="M366,1783 L8827,3965" stroke="blue" stroke-width="2" />
<path d="M4134,2221 L8506,2627" stroke="blue" stroke-width="2" />
<path d="M4707,343 L5993,1305" stroke="blue" stroke-width="2" />
<path d="M1018,2935 L4572,1193" stroke="blue" stroke-width="2" />
<path d="M2537,1018 L6212,2616" stroke="blue" stroke-width="2" />
<path d="M8490,3692 L7220,214" stroke="blue" stroke-width="2" />
<path d="M2868,2410 L7643,3497" stroke="blue" stroke-width="2" />
<path d="M1516,4105 L821,237" stroke="blue" stroke-width="2" />
<path d="M7097,1633 L8522,1512" stroke="blue" stroke-width="2" />
<path d="M6049,1956 L5135,570" stroke="blue" stroke-width="2" />
<path d="M4928,82 L5205,123" stroke="blue" stroke-width="2" />
<path d="M5495,717 L1512,2332" stroke="blue" stroke-width="2" />
<path d="M4950,170 L1059,3852" stroke="blue" stroke-width="2" />
<path d="M3410,2379 L7312,3268" stroke="blue" stroke-width="2" />
<path d="M2401,4058 L4843,1731" stroke="blue" stroke-width="2" />
<path d="M290,328 L1905,1918" stroke="blue" stroke-width="2" />
<path d="M4856,3069 L8980,3709" stroke="blue" stroke-width="2" />
<path d="M5414,72 L565,3109" stroke="blue" stroke-width="2" />
<path d="M6219,3960 L5271,2931" stroke="blue" stroke-width="2" />
<path d="M263,3635 L2080,2288" stroke="blue" stroke-width="2" />
<path d="M313,2046 L8838,3395" stroke="blue" stroke-width="2" />
<path d="M6881,1431 L4026,359" stroke="blue" stroke-width="2" />
<path d="M4893,3086 L1752,117" stroke="blue" stroke-width="2" />
<path d="M4655,1932 L7874,1297" stroke="blue" stroke-width="2" />
<path d="M1043,2301 L7809,1920" stroke="blue" stroke-width="2" />
<path d="M1125,108 L3940,2296" stroke="blue" stroke-width="2" />
<path d="M8675,605 L7285,2082" stroke="blue" stroke-width="2" />
<path d="M4043,3829 L4280,962" stroke="blue" stroke-width="2" />
<path d="M4267,2344 L1574,2343" stroke="blue" stroke-width="2" />
<path d="M8049,3767 L3331,3917" stroke="blue" stroke-width="2" />
<path d="M6600,1625 L7630,1276" stroke="blue" stroke-width="2" />
<path d="M2224,251 L8741,67" stroke="blue" stroke-width="2" />
<path d="M8295,234 L4495,3857" stroke="blue" stroke-width="2" />
<path d="M1538,1132 L1660,2819" stroke="blue" stroke-width="2" />
<path d="M4162,3132 L5261,463" stroke="blue" stroke-width="2" />
<path d="M8012,1038 L4219,2682" stroke="blue" stroke-width="2" />
<path d="M5547,2670 L6980,2623" stroke="blue" stroke-width="2" />
<path d="M8960,2800 L4200,3369" stroke="blue" stroke-width="2" />
<path d="M8471,2303 L1623,1188" stroke="blue" stroke-width="2" />
<path d="M6931,1955 L1817,2366" stroke="blue" stroke-width="2" />
<path d="M6360,2134 L6834,3307" stroke="blue" stroke-width="2" />
<path d="M430,3263 L8490,3624" stroke="blue" stroke-width="2" />
<path d="M7631,399 L4438,3517" stroke="blue" stroke-width="2" />
<path d="M5766,536 L255,2397" stroke="blue" stroke-width="2" />
<path d="M4219,493 L3341,2093" stroke="blue" stroke-width="2" />
<path d="M827,1260 L326,4012" stroke="blue" stroke-width="2" />
<path d="M4096,3829 L5242,236" stroke="blue" stroke-width="2" />
<path d="M4217,1731 L8077,1151" stroke="blue" stroke-width="2" />
<path d="M3562,410 L5706,2760" stroke="blue" stroke-width="2" />
<path d="M3029,3288 L2331,2138" stroke="blue" stroke-width="2" />
<path d="M3875,2814 L2373,1935" stroke="blue" stroke-width="2" />
<path d="M2514,2638 L3002,178" stroke="blue" stroke-width="2" />
<path d="M4082,1228 L1928,2328" stroke="blue" stroke-width="2" />
<path d="M6332,2992 L4140,313" stroke="blue" stroke-width="2" />
<path d="M3328,703 L1436,1993" stroke="blue" stroke-width="2" />
<path d="M2993,3322 L8626,1121" stroke="blue" stroke-width="2" />
<path d="M2413,1591 L3667,3279" stroke="blue" stroke-width="2" />
<path d="M8279,382 L6785,1199" stroke="blue" stroke-width="2" />
<path d="M216,3597 L21,3198" stroke="blue" stroke-width="2" />
<path d="M6266,334 L1584,3532" stroke="blue" stroke-width="2" />
<path d="M2778,2050 L4546,222" stroke="blue" stroke-width="2" />
<path d="M5583,3542 L1771,2181" stroke="blue" stroke-width="2" />
<path d="M2964,2755 L1490,2700" stroke="blue" stroke-width="2" />
<path d="M5750,1142 L2062,495" stroke="blue" stroke-width="2" />
<path d="M1917,2196 L2214,3779" stroke="blue" stroke-width="2" />
<path d="M8916,1057 L159,1309" stroke="blue" stroke-width="2" />
<path d="M5500,1619 L2246,3097" stroke="blue" stroke-width="2" />
<path d="M7380,4068 L2605,1427" stroke="blue" stroke-width="2" />
<path d="M4115,3166 L6014,2139" stroke="blue" stroke-width="2" />
<path d="M8360,758 L7253,2417" stroke="blue" stroke-width="2" />
<path d="M8868,898 L8686,1968" stroke="blue" stroke-width="2" />
<path d="M2800,2464 L7858,550" stroke="blue" stroke-width="2" />
<path d="M5095,2959 L6734,1999" stroke="blue" stroke-width="2" />
<path d="M4484,1609 L3362,514" stroke="blue" stroke-width="2" />
<path d="M2779,3085 L7994,1908" stroke="blue" stroke-width="2" />
<path d="M164,1682 L2296,4064" stroke="blue" stroke-width="2" />
<path d="M6025,314 L4851,1458" stroke="blue" stroke-width="2" />
<path d="M5230,951 L4604,2811" stroke="blue" stroke-width="2" />
<path d="M4787,1563 L4171,2922" stroke="blue" stroke-width="2" />
<path d="M9102,687 L4553,1623" stroke="blue" stroke-width="2" />
<path d="M8162,3478 L750,3768" stroke="blue" stroke-width="2" />
<path d="M2317,1237 L575,2279" stroke="blue" stroke-width="2" />
<path d="M3304,1666 L379,2574" stroke="blue" stroke-width="2" />
<path d="M1702,1860 L913,994" stroke="blue" stroke-width="2" />
<path d="M3152,2490 L2101,1501" stroke="blue" stroke-width="2" />
<path d="M5150,899 L8644,2976" stroke="blue" stroke-width="2" />
<path d="M2939,2314 L4974,2194" stroke="blue" stroke-width="2" />
<path d="M8579,3265 L1588,1869" stroke="blue" stroke-width="2" />
<path d="M7727,3862 L5416,1570" stroke="blue" stroke-width="2" />
<path d="M762,940 L2224,3095" stroke="blue" stroke-width="2" />
<path d="M7450,2785 L6985,582" stroke="blue" stroke-width="2" />
<path d="M2683,2839 L7733,3533" stroke="blue" stroke-width="2" />
<path d="M8790,4008 L1107,3741" stroke="blue" stroke-width="2" />
<path d="M3595,1423 L7544,3093" stroke="blue" stroke-width="2" />
<path d="M2143,1113 L3353,949" stroke="blue" stroke-width="2" />
<path d="M77,2692 L4731,2258" stroke="blue" stroke-width="2" />
<path d="M3076,327 L3237,3598" stroke="blue" stroke-width="2" />
<path d="M8320,1211 L3040,3705" stroke="blue" stroke-width="2" />
<path d="M8500,4046 L2786,3908" stroke="blue" stroke-width="2" />
<path d="M4793,316 L2375,868" stroke="blue" stroke-width="2" />
<path d="M1299,815 L2059,1277" stroke="blue" stroke-width="2" />
<path d="M6154,1236 L7502,539" stroke="blue" stroke-width="2" />
<path d="M9047,2535 L6829,3043" stroke="blue" stroke-width="2" />
<path d="M4903,2458 L1310,2628" stroke="blue" stroke-width="2" />
<path d="M3770,3738 L7626,561" stroke="blue" stroke-width="2" />
<path d="M2915,2364 L7377,3383" stroke="blue" stroke-width="2" />
<path d="M1728,1437 L4024,1964" stroke="blue" stroke-width="2" />
<path d="M1077,2023 L8026,3372" stroke="blue" stroke-width="2" />
<path d="M2404,1686 L5396,2539" stroke="blue" stroke-width="2" />
<path d="M5945,2168 L6932,3931" stroke="blue" stroke-width="2" />
<path d="M7498,2915 L5087,2708" stroke="blue" stroke-width="2" />
<path d="M3139,1212 L1398,2227" stroke="blue" stroke-width="2" />
<path d="M826,214 L6511,1299" stroke="blue" stroke-width="2" />
<path d="M5275,3286 L7298,1432" stroke="blue" stroke-width="2" />
<path d="M4723,1027 L1980,2085" stroke="blue" stroke-width="2" />
<path d="M7517,501 L3029,1979" stroke="blue" stroke-width="2" />
<path d="M5724,1721 L3506,2674" stroke="blue" stroke-width="2" />
<path d="M6072,1416 L3731,925" stroke="blue" stroke-width="2" />
<path d="M6718,2566 L5585,981" stroke="blue" stroke-width="2" />
<path d="M4629,3884 L570,3750" stroke="blue" stroke-width="2" />
<path d="M8822,929 L1005,2000" stroke="blue" stroke-width="2" />
<path d="M3243,1094 L6561,930" stroke="blue" stroke-width="2" />
<path d="M5915,1893 L9089,1313" stroke="blue" stroke-width="2" />
<path d="M113,447 L2120,1188" stroke="blue" stroke-width="2" />
<path d="M668,3462 L8065,1991" stroke="blue" stroke-width="2" />
<path d="M3879,4013 L5384,1587" stroke="blue" stroke-width="2" />
<path d="M8952,671 L3681,2433" stroke="blue" stroke-width="2" />
<path d="M6100,4003 L6702,547" stroke="blue" stroke-width="2" />
<path d="M630,2998 L5832,3273" stroke="blue" stroke-width="2" />
<path d="M5844,3221 L4545,2351" stroke="blue" stroke-width="2" />
<path d="M2680,1900 L3791,886" stroke="blue" stroke-width="2" />
<path d="M4978,954 L7076,3883" stroke="blue" stroke-width="2" />
<path d="M3219,3524 L7616,3470" stroke="blue" stroke-width="2" />
<path d="M1516,765 L5428,2326" stroke="blue" stroke-width="2" />
<path d="M7691,3742 L2027,435" stroke="blue" stroke-width="2" />
<path d="M8869,3778 L3668,2914" stroke="blue" stroke-width="2" />
<path d="M5802,2000 L1237,611" stroke="blue" stroke-width="2" />
<path d="M6405,3689 L8439,4008" stroke="blue" stroke-width="2" />
<path d="M7295,2189 L2365,481" stroke="blue" stroke-width="2" />
<path d="M630,910 L2838,64" stroke="blue" stroke-width="2" />
<path d="M2655,2083 L7583,2084" stroke="blue" stroke-width="2" />
<path d="M7261,1996 L4814,1738" stroke="blue" stroke-width="2" />
<path d="M827,3957 L7997,1427" stroke="blue" stroke-width="2" />
<path d="M1238,1541 L4152,1675" stroke="blue" stroke-width="2" />
<path d="M8950,2122 L7088,425" stroke="blue" stroke-width="2" />
<path d="M6079,3740 L568,2606" stroke="blue" stroke-width="2" />
<path d="M3986,3737 L4412,827" stroke="blue" stroke-width="2" />
<path d="M2278,1144 L6606,2064" stroke="blue" stroke-width="2" />
<path d="M2326,1537 L4764,1877" stroke="blue" stroke-width="2" />
<path d="M193,843 L908,2694" stroke="blue" stroke-width="2" />
<path d="M2831,2408 L1457,1001" stroke="blue" stroke-width="2" />
<path d="M2690,3747 L4491,2748" stroke="blue" stroke-width="2" />
<path d="M7027,1391 L3202,1007" stroke="blue" stroke-width="2" />
<path d="M1348,3956 L5391,3312" stroke="blue" stroke-width="2" />
<path d="M2574,495 L2573,3909" stroke="blue" stroke-width="2" />
<path d="M3863,3642 L8054,529" stroke="blue" stroke-width="2" />
<path d="M1634,2211 L6966,3387" stroke="blue" stroke-width="2" />
<path d="M6346,1020 L1651,2450" stroke="blue" stroke-width="2" />
<path d="M464,2102 L7209,3466" stroke="blue" stroke-width="2" />
<path d="M2164,3254 L5693,2249" stroke="blue" stroke-width="2" />
<path d="M4383,1159 L5107,692" stroke="blue" stroke-width="2" />
<path d="M7944,535 L8907,3665" stroke="blue" stroke-width="2" />
<path d="M7814,1466 L6184,1170" stroke="blue" stroke-width="2" />
<path d="M33,504 L6888,1166" stroke="blue" stroke-width="2" />
<path d="M8149,2971 L5966,2206" stroke="blue" stroke-width="2" />
<path d="M5576,2234 L6385,2006" stroke="blue" stroke-width="2" />
<path d="M8563,501 L2978,3700" stroke="blue" stroke-width="2" />
<path d="M356,3474 L905,2352" stroke="blue" stroke-width="2" />
<path d="M3261,3956 L2718,2193" stroke="blue" stroke-width="2" />
<path d="M3660,3825 L3107,206" stroke="blue" stroke-width="2" />
<path d="M7978,2445 L4938,1100" stroke="blue" stroke-width="2" />
<path d="M6525,2160 L6047,3860" stroke="blue" stroke-width="2" />
<path d="M3997,2744 L7757,159" stroke="blue" stroke-width="2" />
<path d="M155,2979 L6535,2312" stroke="blue" stroke-width="2" />
<path d="M7585,8 L6112,434" stroke="blue" stroke-width="2" />
<path d="M3028,2586 L6869,719" stroke="blue" stroke-width="2" />
<path d="M2592,2447 L6978,684" stroke="blue" stroke-width="2" />
<path d="M7927,3505 L4397,3460" stroke="blue" stroke-width="2" />
<path d="M3084,278 L7110,2139" stroke="blue" stroke-width="2" />
<path d="M8993,2692 L1143,2765" stroke="blue" stroke-width="2" />
<path d="M1117,1657 L7795,3541" stroke="blue" stroke-width="2" />
<path d="M444,3394 L3602,3246" stroke="blue" stroke-width="2" />
<path d="M6873,3806 L4270,2543" stroke="blue" stroke-width="2" />
<path d="M7682,1606 L4104,1241" stroke="blue" stroke-width="2" />
<path d="M2717,2596 L8952,3554" stroke="blue" stroke-width="2" />
<path d="M6719,1680 L1676,2003" stroke="blue" stroke-width="2" />
<path d="M4381,2810 L8574,3209" stroke="blue" stroke-width="2" />
<path d="M3987,3920 L4307,1679" stroke="blue" stroke-width="2" />
<path d="M83,2153 L3336,2816" stroke="blue" stroke-width="2" />
<path d="M2674,2649 L3174,768" stroke="blue" stroke-width="2" />
<path d="M8993,3526 L4242,2201" stroke="blue" stroke-width="2" />
<path d="M1963,2545 L7106,2798" stroke="blue" stroke-width="2" />
<path d="M8631,2995 L7509,1361" stroke="blue" stroke-width="2" />
<path d="M7026,3691 L2142,4093" stroke="blue" stroke-width="2" />
<path d="M4016,469 L6698,769" stroke="blue" stroke-width="2" />
<path d="M7963,3974 L2976,1571" stroke="blue" stroke-width="2" />
<path d="M2799,4059 L5128,3186" stroke="blue" stroke-width="2" />
<path d="M0,0 L9112,0" stroke="red" stroke-width="10" />
<path d="M9112,0 L9112,4108" stroke="red" stroke-width="10" />
<path d="M0,4108 L9112,4108" stroke="red" stroke-width="10" />
<path d="M0,4108 L0,0" stroke="red" stroke-width="10" />
</svg>