<?xml version="1.0" encoding="UTF-8"?>
<svg xmlns="http://www.w3.org/2000/svg" xmlns:xlink="http://www.w3.org/1999/xlink"
     width="10000" height="10000" viewBox="0 0 10000 10000">
<defs>
</defs>
<path d="M1031,3684 L1624,1675" stroke="blue" stroke-width="2" />
<path d="M1282,2751 L2453,0" stroke="blue" stroke-width="2" />
<path d="M1967,535 L1028,756" stroke="blue" stroke-width="2" />
<path d="M1604,1084 L316,456" stroke="blue" stroke-width="2" />
<path d="M2418,3349 L2280,945" stroke="blue" stroke-width="2" />
<path d="M76,420 L308,1127" stroke="blue" stroke-width="2" />
<path d="M2210,2322 L2806,356" stroke="blue" stroke-width="2" />
<path d="M2671,2493 L1930,3146" stroke="blue" stroke-width="2" />
<path d="M2012,655 L345,3675" stroke="blue" stroke-width="2" />
<path d="M1678,3754 L1754,4075" stroke="blue" stroke-width="2" />
<path d="M2824,957 L2698,2198" stroke="blue" stroke-width="2" />
<path d="M23,3758 L2335,2436" stroke="blue" stroke-width="2" />
<path d="M1659,117 L1628,363" stroke="blue" stroke-width="2" />
<path d="M318,3079 L2305,2278" stroke="blue" stroke-width="2" />
<path d="M2196,4121 L214,852" stroke="blue" stroke-width="2" />
<path d="M1555,1643 L286,1294" stroke="blue" stroke-width="2" />
<path d="M854,1374 L1087,2593" stroke="blue" stroke-width="2" />
<path d="M955,1746 L722,4110" stroke="blue" stroke-width="2" />
<path d="M2080,2286 L2337,65" stroke="blue" stroke-width="2" />
<path d="M891,327 L2449,2122" stroke="blue" stroke-width="2" />
<path d="M2012,1361 L1531,3962" stroke="blue" stroke-width="2" />
<path d="M1202,1499 L2794,1710" stroke="blue" stroke-width="2" />
<path d="M2383,3360 L2585,4002" stroke="blue" stroke-width="2" />
<path d="M422,240 L1094,3729" stroke="blue" stroke-width="2" />
<path d="M175,3516 L2327,475" stroke="blue" stroke-width="2" />
<path d="M1818,2437 L376,522" stroke="blue" stroke-width="2" />
<path d="M827,1851 L582,3761" stroke="blue" stroke-width="2" />
<path d="M309,4201 L776,3684" stroke="blue" stroke-width="2" />
<path d="M1936,761 L2483,1723" stroke="blue" stroke-width="2" />
<path d="M661,2801 L2424,250" stroke="blue" stroke-width="2" />
<path d="M2665,912 L1023,3823" stroke="blue" stroke-width="2" />
<path d="M2588,3111 L1123,3444" stroke="blue" stroke-width="2" />
<path d="M2109,3395 L608,3678" stroke="blue" stroke-width="2" />
<path d="M2638,792 L2812,2661" stroke="blue" stroke-width="2" />
<path d="M2315,2269 L163,319" stroke="blue" stroke-width="2" />
<path d="M1621,1776 L847,1727" stroke="blue" stroke-width="2" />
<path d="M1079,1009 L477,3654" stroke="blue" stroke-width="2" />
<path d="M459,4060 L857,2023" stroke="blue" stroke-width="2" />
<path d="M1427,3616 L1073,2248" stroke="blue" stroke-width="2" />
<path d="M2373,762 L2801,564" stroke="blue" stroke-width="2" />
<path d="M1249,558 L306,3142" stroke="blue" stroke-width="2" />
<path d="M2763,3676 L2363,3440" stroke="blue" stroke-width="2" />
<path d="M263,3350 L608,2513" stroke="blue" stroke-width="2" />
<path d="M235,1995 L1520,2638" stroke="blue" stroke-width="2" />
<path d="M227,3512 L70,3501" stroke="blue" stroke-width="2" />
<path d="M1459,567 L2830,2161" stroke="blue" stroke-width="2" />
<path d="M20,2467 L2349,59" stroke="blue" stroke-width="2" />
<path d="M1513,3452 L2695,3293" stroke="blue" stroke-width="2" />
<path d="M1947,2347 L1143,2343" stroke="blue" stroke-width="2" />
<path d="M4,450 L1624,1080" stroke="blue" stroke-width="2" />
<path d="M843,1059 L1916,1918" stroke="blue" stroke-width="2" />
<path d="M1956,204 L165,3636" stroke="blue" stroke-width="2" />
<path d="M2285,1296 L1963,1328" stroke="blue" stroke-width="2" />
<path d="M2387,1897 L1357,1744" stroke="blue" stroke-width="2" />
<path d="M311,3151 L2830,4097" stroke="blue" stroke-width="2" />
<path d="M1490,4208 L2799,3681" stroke="blue" stroke-width="2" />
<path d="M2139,1171 L1782,198" stroke="blue" stroke-width="2" />
<path d="M982,3394 L1276,2996" stroke="blue" stroke-width="2" />
<path d="M1150,453 L870,1893" stroke="blue" stroke-width="2" />
<path d="M123,2564 L1931,3634" stroke="blue" stroke-width="2" />
<path d="M329,391 L561,3017" stroke="blue" stroke-width="2" />
<path d="M668,2044 L991,1609" stroke="blue" stroke-width="2" />
<path d="M1267,215 L1513,2175" stroke="blue" stroke-width="2" />
<path d="M1876,70 L1614,3061" stroke="blue" stroke-width="2" />
<path d="M2345,694 L2095,4119" stroke="blue" stroke-width="2" />
<path d="M2292,1651 L1291,4070" stroke="blue" stroke-width="2" />
<path d="M996,1270 L1632,304" stroke="blue" stroke-width="2" />
<path d="M1015,3928 L1568,3279" stroke="blue" stroke-width="2" />
<path d="M1303,2432 L299,2350" stroke="blue" stroke-width="2" />
<path d="M2739,16 L844,737" stroke="blue" stroke-width="2" />
<path d="M2390,3918 L2390,2225" stroke="blue" stroke-width="2" />
<path d="M727,2260 L897,389" stroke="blue" stroke-width="2" />
<path d="M2824,2513 L157,405" stroke="blue" stroke-width="2" />
<path d="M88,684 L2332,1033" stroke="blue" stroke-width="2" />
<path d="M1181,776 L1375,3560" stroke="blue" stroke-width="2" />
<path d="M2787,3329 L838,3792" stroke="blue" stroke-width="2" />
<path d="M1626,36 L969,1348" stroke="blue" stroke-width="2" />
<path d="M2000,2845 L170,1025" stroke="blue" stroke-width="2" />
<path d="M2554,816 L1760,2242" stroke="blue" stroke-width="2" />
<path d="M1780,1526 L1569,2093" stroke="blue" stroke-width="2" />
<path d="M1549,1514 L2835,578" stroke="blue" stroke-width="2" />
<path d="M1237,1634 L2255,2013" stroke="blue" stroke-width="2" />
<path d="M2210,4049 L1414,657" stroke="blue" stroke-width="2" />
<path d="M1551,722 L4,1783" stroke="blue" stroke-width="2" />
<path d="M1022,2126 L2569,2937" stroke="blue" stroke-width="2" />
<path d="M1488,983 L9,1134" stroke="blue" stroke-width="2" />
<path d="M533,3572 L2376,2806" stroke="blue" stroke-width="2" />
<path d="M851,3899 L300,2338" stroke="blue" stroke-width="2" />
<path d="M1629,226 L759,3615" stroke="blue" stroke-width="2" />
<path d="M2618,100 L2812,3866" stroke="blue" stroke-width="2" />
<path d="M1598,2241 L357,1939" stroke="blue" stroke-width="2" />
<path d="M2662,3712 L2494,1964" stroke="blue" stroke-width="2" />
<path d="M799,201 L1235,2308" stroke="blue" stroke-width="2" />
<path d="M960,236 L2441,3978" stroke="blue" stroke-width="2" />
<path d="M2775,2161 L1370,577" stroke="blue" stroke-width="2" />
<path d="M1562,529 L1204,676" stroke="blue" stroke-width="2" />
<path d="M2682,471 L1465,4205" stroke="blue" stroke-width="2" />
<path d="M1763,3216 L21,388" stroke="blue" stroke-width="2" />
<path d="M1642,1604 L596,3971" stroke="blue" stroke-width="2" />
<path d="M2125,3926 L2177,1429" stroke="blue" stroke-width="2" />
<path d="M1750,304 L657,1467" stroke="blue" stroke-width="2" />
<path d="M2734,1544 L1760,227" stroke="blue" stroke-width="2" />
<path d="M2274,1320 L381,3818" stroke="blue" stroke-width="2" />
<path d="M1995,374 L1382,465" stroke="blue" stroke-width="2" />
<path d="M2706,1223 L2784,1931" stroke="blue" stroke-width="2" />
<path d="M2586,2863 L2429,3180" stroke="blue" stroke-width="2" />
<path d="M2724,2166 L730,3166" stroke="blue" stroke-width="2" />
<path d="M443,731 L1954,1267" stroke="blue" stroke-width="2" />
<path d="M1276,2052 L1638,4211" stroke="blue" stroke-width="2" />
<path d="M2749,102 L1979,612" stroke="blue" stroke-width="2" />
<path d="M1432,3177 L1702,1127" stroke="blue" stroke-width="2" />
<path d="M2148,3753 L2234,2851" stroke="blue" stroke-width="2" />
<path d="M1323,3785 L1519,1510" stroke="blue" stroke-width="2" />
<path d="M411,3478 L164,3539" stroke="blue" stroke-width="2" />
<path d="M2799,2958 L234,3952" stroke="blue" stroke-width="2" />
<path d="M812,3214 L952,3373" stroke="blue" stroke-width="2" />
<path d="M1429,2448 L2094,2491" stroke="blue" stroke-width="2" />
<path d="M555,2718 L2753,2272" stroke="blue" stroke-width="2" />
<path d="M9,235 L771,2667" stroke="blue" stroke-width="2" />
<path d="M2758,1944 L2632,607" stroke="blue" stroke-width="2" />
<path d="M2601,1663 L1244,2900" stroke="blue" stroke-width="2" />
<path d="M776,1381 L1415,3421" stroke="blue" stroke-width="2" />
<path d="M1118,4118 L1921,2419" stroke="blue" stroke-width="2" />
<path d="M225,4231 L1389,450" stroke="blue" stroke-width="2" />
<path d="M804,2472 L1992,3324" stroke="blue" stroke-width="2" />
<path d="M116,814 L1434,4183" stroke="blue" stroke-width="2" />
<path d="M200,3933 L965,3450" stroke="blue" stroke-width="2" />
<path d="M2532,3159 L558,2980" stroke="blue" stroke-width="2" />
<path d="M1396,1375 L528,1404" stroke="blue" stroke-width="2" />
<path d="M200,3369 L1315,2752" stroke="blue" stroke-width="2" />
<path d="M1104,2 L979,3196" stroke="blue" stroke-width="2" />
<path d="M763,2351 L439,2884" stroke="blue" stroke-width="2" />
<path d="M2164,3357 L84,2331" stroke="blue" stroke-width="2" />
<path d="M2365,3951 L2657,1602" stroke="blue" stroke-width="2" />
<path d="M1274,64 L1678,1611" stroke="blue" stroke-width="2" />
<path d="M1832,1909 L1159,130" stroke="blue" stroke-width="2" />
<path d="M2426,1068 L2077,3736" stroke="blue" stroke-width="2" />
<path d="M2699,3417 L2156,3762" stroke="blue" stroke-width="2" />
<path d="M2787,825 L100,4161" stroke="blue" stroke-width="2" />
<path d="M1592,2532 L2366,3073" stroke="blue" stroke-width="2" />
<path d="M2108,2746 L2637,1786" stroke="blue" stroke-width="2" />
<path d="M1816,2593 L53,2761" stroke="blue" stroke-width="2" />
<path d="M1207,2283 L1765,748" stroke="blue" stroke-width="2" />
<path d="M1500,2005 L1368,56" stroke="blue" stroke-width="2" />
<path d="M1766,2038 L2696,1658" stroke="blue" stroke-width="2" />
<path d="M414,705 L324,1832" stroke="blue" stroke-width="2" />
<path d="M2791,3361 L1090,2352" stroke="blue" stroke-width="2" />
<path d="M847,2723 L2543,1377" stroke="blue" stroke-width="2" />
<path d="M357,685 L51,706" stroke="blue" stroke-width="2" />
<path d="M365,1257 L1018,1899" stroke="blue" stroke-width="2" />
<path d="M2508,2549 L978,3093" stroke="blue" stroke-width="2" />
<path d="M1765,3105 L2222,1434" stroke="blue" stroke-width="2" />
<path d="M2461,2641 L743,3790" stroke="blue" stroke-width="2" />
<path d="M833,1057 L2696,1249" stroke="blue" stroke-width="2" />
<path d="M753,4137 L2608,2597" stroke="blue" stroke-width="2" />
<path d="M2096,773 L1115,240" stroke="blue" stroke-width="2" />
<path d="M1924,1239 L1765,3476" stroke="blue" stroke-width="2" />
<path d="M2636,3539 L2307,2922" stroke="blue" stroke-width="2" />
<path d="M720,3265 L1967,3538" stroke="blue" stroke-width="2" />
<path d="M2550,2740 L2465,1494" stroke="blue" stroke-width="2" />
<path d="M2179,1200 L1083,2330" stroke="blue" stroke-width="2" />
<path d="M751,2437 L641,1477" stroke="blue" stroke-width="2" />
<path d="M1912,577 L2613,972" stroke="blue" stroke-width="2" />
<path d="M2004,857 L2290,1476" stroke="blue" stroke-width="2" />
<path d="M869,3367 L1129,794" stroke="blue" stroke-width="2" />
<path d="M208,1883 L636,756" stroke="blue" stroke-width="2" />
<path d="M1413,2094 L513,1878" stroke="blue" stroke-width="2" />
<path d="M829,1814 L1038,3989" stroke="blue" stroke-width="2" />
<path d="M649,314 L849,2303" stroke="blue" stroke-width="2" />
<path d="M2280,3057 L1872,40" stroke="blue" stroke-width="2" />
<path d="M1432,291 L1360,1266" stroke="blue" stroke-width="2" />
<path d="M1677,3766 L304,626" stroke="blue" stroke-width="2" />
<path d="M2805,2037 L2183,2624" stroke="blue" stroke-width="2" />
<path d="M1388,3508 L2511,926" stroke="blue" stroke-width="2" />
<path d="M1279,2971 L1741,2924" stroke="blue" stroke-width="2" />
<path d="M82,139 L2842,3697" stroke="blue" stroke-width="2" />
<path d="M2269,854 L652,2141" stroke="blue" stroke-width="2" />
<path d="M6,2837 L1082,981" stroke="blue" stroke-width="2" />
<path d="M2343,122 L2126,2178" stroke="blue" stroke-width="2" />
<path d="M1608,3932 L2525,1027" stroke="blue" stroke-width="2" />
<path d="M736,2883 L822,3003" stroke="blue" stroke-width="2" />
<path d="M1290,2024 L1037,4121" stroke="blue" stroke-width="2" />
<path d="M2463,2207 L2172,2070" stroke="blue" stroke-width="2" />
<path d="M780,1186 L753,548" stroke="blue" stroke-width="2" />
<path d="M1235,931 L2819,2238" stroke="blue" stroke-width="2" />
<path d="M2275,1091 L2712,729" stroke="blue" stroke-width="2" />
<path d="M850,2463 L2419,1498" stroke="blue" stroke-width="2" />
<path d="M1393,588 L1555,3588" stroke="blue" stroke-width="2" />
<path d="M2626,4101 L2430,3872" stroke="blue" stroke-width="2" />
<path d="M1911,4104 L1294,1479" stroke="blue" stroke-width="2" />
<path d="M1228,57 L1519,250" stroke="blue" stroke-width="2" />
<path d="M2698,3909 L2041,4092" stroke="blue" stroke-width="2" />
<path d="M469,151 L2187,2602" stroke="blue" stroke-width="2" />
<path d="M1321,3157 L2649,3919" stroke="blue" stroke-width="2" />
<path d="M1815,3835 L2028,1988" stroke="blue" stroke-width="2" />
<path d="M2686,1593 L2043,3640" stroke="blue" stroke-width="2" />
<path d="M1021,3415 L1013,3495" stroke="blue" stroke-width="2" />
<path d="M1878,4101 L1069,2142" stroke="blue" stroke-width="2" />
<path d="M1458,3748 L279,738" stroke="blue" stroke-width="2" />
<path d="M1698,2326 L692,4190" stroke="blue" stroke-width="2" />
<path d="M1275,4248 L2444,3553" stroke="blue" stroke-width="2" />
<path d="M1932,3538 L851,2361" stroke="blue" stroke-width="2" />
<path d="M1864,810 L1939,4250" stroke="blue" stroke-width="2" />
<path d="M487,1016 L1064,3172" stroke="blue" stroke-width="2" />
<path d="M2374,2187 L2510,50" stroke="blue" stroke-width="2" />
<path d="M2067,3352 L936,1802" stroke="blue" stroke-width="2" />
<path d="M2660,1364 L2450,485" stroke="blue" stroke-width="2" />
<path d="M1766,793 L2714,3114" stroke="blue" stroke-width="2" />
<path d="M261,1266 L2040,1289" stroke="blue" stroke-width="2" />
<path d="M48,2453 L172,122" stroke="blue" stroke-width="2" />
<path d="M780,1473 L1581,542" stroke="blue" stroke-width="2" />
<path d="M1620,1357 L1851,1420" stroke="blue" stroke-width="2" />
<path d="M1089,554 L2632,1692" stroke="blue" stroke-width="2" />
<path d="M1112,4071 L131,2912" stroke="blue" stroke-width="2" />
<path d="M2704,3669 L924,2754" stroke="blue" stroke-width="2" />
<path d="M2366,401 L2635,1986" stroke="blue" stroke-width="2" />
<path d="M863,2068 L1274,3862" stroke="blue" stroke-width="2" />
<path d="M1129,4241 L1589,1451" stroke="blue" stroke-width="2" />
<path d="M2769,3882 L2148,71" stroke="blue" stroke-width="2" />
<path d="M1401,3736 L1025,3876" stroke="blue" stroke-width="2" />
<path d="M1570,278 L1523,2467" stroke="blue" stroke-width="2" />
<path d="M1720,4201 L1198,3904" stroke="blue" stroke-width="2" />
<path d="M323,1060 L1332,819" stroke="blue" stroke-width="2" />
<path d="M556,2846 L1461,3344" stroke="blue" stroke-width="2" />
<path d="M1294,4111 L2848,1632" stroke="blue" stroke-width="2" />
<path d="M421,3384 L116,1693" stroke="blue" stroke-width="2" />
<path d="M169,2521 L1950,527" stroke="blue" stroke-width="2" />
<path d="M155,2401 L2775,1204" stroke="blue" stroke-width="2" />
<path d="M2734,3979 L2249,2690" stroke="blue" stroke-width="2" />
<path d="M54,734 L2722,1912" stroke="blue" stroke-width="2" />
<path d="M111,3565 L1630,1908" stroke="blue" stroke-width="2" />
<path d="M1569,2616 L1137,1354" stroke="blue" stroke-width="2" />
<path d="M1646,2201 L2336,1456" stroke="blue" stroke-width="2" />
<path d="M2234,4157 L1085,2877" stroke="blue" stroke-width="2" />
<path d="M1236,1660 L92,1339" stroke="blue" stroke-width="2" />
<path d="M1199,3203 L2805,2807" stroke="blue" stroke-width="2" />
<path d="M2168,3935 L1937,3657" stroke="blue" stroke-width="2" />
<path d="M1554,3217 L296,1942" stroke="blue" stroke-width="2" />
<path d="M2105,693 L2218,3246" stroke="blue" stroke-width="2" />
<path d="M2592,296 L2466,1009" stroke="blue" stroke-width="2" />
<path d="M1887,3931 L1467,144" stroke="blue" stroke-width="2" />
<path d="M2620,350 L361,1985" stroke="blue" stroke-width="2" />
<path d="M1488,939 L917,2726" stroke="blue" stroke-width="2" />
<path d="M1807,172 L798,3753" stroke="blue" stroke-width="2" />
<path d="M820,948 L2059,2698" stroke="blue" stroke-width="2" />
<path d="M2246,3170 L1724,2159" stroke="blue" stroke-width="2" />
<path d="M2023,3929 L720,2739" stroke="blue" stroke-width="2" />
<path d="M1383,3477 L2710,2139" stroke="blue" stroke-width="2" />
<path d="M1380,3709 L528,3912" stroke="blue" stroke-width="2" />
<path d="M426,1987 L2801,2585" stroke="blue" stroke-width="2" />
<path d="M489,2216 L177,3929" stroke="blue" stroke-width="2" />
<path d="M1350,3054 L852,4156" stroke="blue" stroke-width="2" />
<path d="M940,3046 L340,3500" stroke="blue" stroke-width="2" />
<path d="M1743,3 L2836,2569" stroke="blue" stroke-width="2" />
<path d="M1358,3879 L1650,1479" stroke="blue" stroke-width="2" />
<path d="M1452,3156 L1608,1321" stroke="blue" stroke-width="2" />
<path d="M2635,2388 L1435,3430" stroke="blue" stroke-width="2" />
<path d="M2110,2838 L451,3063" stroke="blue" stroke-width="2" />
<path d="M1257,2344 L924,3328" stroke="blue" stroke-width="2" />
<path d="M476,492 L2672,477" stroke="blue" stroke-width="2" />
<path d="M54,421 L729,1134" stroke="blue" stroke-width="2" />
<path d="M163,1273 L2438,121" stroke="blue" stroke-width="2" />
<path d="M1489,116 L1736,3185" stroke="blue" stroke-width="2" />
<path d="M1430,3287 L524,164" stroke="blue" stroke-width="2" />
<path d="M1018,2127 L2042,4181" stroke="blue" stroke-width="2" />
<path d="M579,3856 L528,311" stroke="blue" stroke-width="2" />
<path d="M2544,2971 L2371,1653" stroke="blue" stroke-width="2" />
<path d="M1524,3592 L408,1202" stroke="blue" stroke-width="2" />
<path d="M2017,3977 L1066,2513" stroke="blue" stroke-width="2" />
<path d="M2793,900 L542,114" stroke="blue" stroke-width="2" />
<path d="M2623,2058 L887,2362" stroke="blue" stroke-width="2" />
<path d="M2702,79 L2295,4014" stroke="blue" stroke-width="2" />
<path d="M2394,1743 L2004,3127" stroke="blue" stroke-width="2" />
<path d="M2163,94 L1931,1706" stroke="blue" stroke-width="2" />
<path d="M2721,280 L2465,3704" stroke="blue" stroke-width="2" />
<path d="M558,2451 L2242,3151" stroke="blue" stroke-width="2" />
<path d="M2347,2542 L2759,3471" stroke="blue" stroke-width="2" />
<path d="M1110,1989 L2150,3042" stroke="blue" stroke-width="2" />
<path d="M329,2451 L196,3228" stroke="blue" stroke-width="2" />
<path d="M1596,2113 L272,1093" stroke="blue" stroke-width="2" />
<path d="M1106,3267 L2481,2129" stroke="blue" stroke-width="2" />
<path d="M1113,3989 L1553,542" stroke="blue" stroke-width="2" />
<path d="M263,2806 L2248,1408" stroke="blue" stroke-width="2" />
<path d="M2693,3010 L974,3594" stroke="blue" stroke-width="2" />
<path d="M176,3860 L351,3636" stroke="blue" stroke-width="2" />
<path d="M253,3779 L2146,4239" stroke="blue" stroke-width="2" />
<path d="M956,3210 L2812,3403" stroke="blue" stroke-width="2" />
<path d="M1095,472 L2124,2834" stroke="blue" stroke-width="2" />
<path d="M1288,3691 L2128,1358" stroke="blue" stroke-width="2" />
<path d="M2364,2772 L2147,3856" stroke="blue" stroke-width="2" />
<path d="M2488,3403 L2774,2350" stroke="blue" stroke-width="2" />
<path d="M477,3142 L1333,1837" stroke="blue" stroke-width="2" />
<path d="M2011,3540 L1502,583" stroke="blue" stroke-width="2" />
<path d="M2740,2536 L654,2281" stroke="blue" stroke-width="2" />
<path d="M517,3969 L560,1433" stroke="blue" stroke-width="2" />
<path d="M239,3132 L2229,3748" stroke="blue" stroke-width="2" />
<path d="M375,1896 L468,1151" stroke="blue" stroke-width="2" />
<path d="M2229,3360 L1510,3202" stroke="blue" stroke-width="2" />
<path d="M826,3498 L2678,1474" stroke="blue" stroke-width="2" />
<path d="M560,1935 L2684,1944" stroke="blue" stroke-width="2" />
<path d="M1156,4073 L824,2390" stroke="blue" stroke-width="2" />
<path d="M2006,3060 L2054,546" stroke="blue" stroke-width="2" />
<path d="M1981,4086 L242,2132" stroke="blue" stroke-width="2" />
<path d="M709,3959 L2229,690" stroke="blue" stroke-width="2" />
<path d="M430,1468 L1597,3398" stroke="blue" stroke-width="2" />
<path d="M1553,2337 L2273,2013" stroke="blue" stroke-width="2" />
<path d="M2707,359 L324,3866" stroke="blue" stroke-width="2" />
<path d="M700,1061 L667,1442" stroke="blue" stroke-width="2" />
<path d="M2483,3237 L230,3335" stroke="blue" stroke-width="2" />
<path d="M595,2076 L641,1599" stroke="blue" stroke-width="2" />
<path d="M1414,444 L2043,766" stroke="blue" stroke-width="2" />
<path d="M2709,2500 L435,3141" stroke="blue" stroke-width="2" />
<path d="M2837,3548 L2678,3255" stroke="blue" stroke-width="2" />
<path d="M1160,898 L2503,3274" stroke="blue" stroke-width="2" />
<path d="M2515,814 L2352,1349" stroke="blue" stroke-width="2" />
<path d="M718,625 L2016,3167" stroke="blue" stroke-width="2" />
<path d="M7,3484 L2148,390" stroke="blue" stroke-width="2" />
<path d="M1387,4209 L2505,78" stroke="blue" stroke-width="2" />
<path d="M1894,1978 L701,3305" stroke="blue" stroke-width="2" />
<path d="M1484,789 L1105,3513" stroke="blue" stroke-width="2" />
<path d="M2489,248 L213,2112" stroke="blue" stroke-width="2" />
<path d="M1461,2117 L807,3066" stroke="blue" stroke-width="2" />
<path d="M2293,4128 L2153,1810" stroke="blue" stroke-width="2" />
<path d="M895,2568 L1929,3245" stroke="blue" stroke-width="2" />
<path d="M982,2792 L1833,3436" stroke="blue" stroke-width="2" />
<path d="M1979,1162 L1119,4143" stroke="blue" stroke-width="2" />
<path d="M1261,137 L579,2824" stroke="blue" stroke-width="2" />
<path d="M1697,1870 L2820,460" stroke="blue" stroke-width="2" />
<path d="M765,4233 L927,3970" stroke="blue" stroke-width="2" />
<path d="M517,3136 L2150,2899" stroke="blue" stroke-width="2" />
<path d="M65,1184 L701,1040" stroke="blue" stroke-width="2" />
<path d="M2052,410 L120,1856" stroke="blue" stroke-width="2" />
<path d="M2035,3851 L353,1154" stroke="blue" stroke-width="2" />
<path d="M2505,832 L778,1420" stroke="blue" stroke-width="2" />
<path d="M1220,829 L1459,1932" stroke="blue" stroke-width="2" />
<path d="M192,2908 L1260,146" stroke="blue" stroke-width="2" />
<path d="M2674,4018 L2616,4021" stroke="blue" stroke-width="2" />
<path d="M2020,973 L1087,4088" stroke="blue" stroke-width="2" />
<path d="M2580,1539 L2504,382" stroke="blue" stroke-width="2" />
<path d="M199,1724 L2392,1573" stroke="blue" stroke-width="2" />
<path d="M1427,2657 L812,1184" stroke="blue" stroke-width="2" />
<path d="M578,3623 L829,1155" stroke="blue" stroke-width="2" />
<path d="M2772,735 L824,4223" stroke="blue" stroke-width="2" />
<path d="M1676,3013 L1279,865" stroke="blue" stroke-width="2" />
<path d="M2522,259 L1527,3201" stroke="blue" stroke-width="2" />
<path d="M800,1116 L956,2856" stroke="blue" stroke-width="2" />
<path d="M903,3638 L303,3846" stroke="blue" stroke-width="2" />
<path d="M1643,2142 L429,2534" stroke="blue" stroke-width="2" />
<path d="M2680,711 L900,654" stroke="blue" stroke-width="2" />
<path d="M2643,2909 L2720,2056" stroke="blue" stroke-width="2" />
<path d="M390,725 L1856,3252" stroke="blue" stroke-width="2" />
<path d="M310,448 L1834,3536" stroke="blue" stroke-width="2" />
<path d="M649,313 L1760,2800" stroke="blue" stroke-width="2" />
<path d="M1408,1902 L2632,1294" stroke="blue" stroke-width="2" />
<path d="M1746,38 L2485,2620" stroke="blue" stroke-width="2" />
<path d="M1953,2653 L2351,1044" stroke="blue" stroke-width="2" />
<path d="M2791,2946 L2186,2116" stroke="blue" stroke-width="2" />
<path d="M2332,4205 L2682,3050" stroke="blue" stroke-width="2" />
<path d="M2137,3339 L1378,1608" stroke="blue" stroke-width="2" />
<path d="M2363,1619 L582,1554" stroke="blue" stroke-width="2" />
<path d="M2464,246 L2511,3327" stroke="blue" stroke-width="2" />
<path d="M398,1020 L2840,3902" stroke="blue" stroke-width="2" />
<path d="M230,2255 L553,2139" stroke="blue" stroke-width="2" />
<path d="M2229,4028 L2194,3509" stroke="blue" stroke-width="2" />
<path d="M581,3270 L1930,3233" stroke="blue" stroke-width="2" />
<path d="M1796,3396 L1946,1493" stroke="blue" stroke-width="2" />
<path d="M1197,3926 L1702,669" stroke="blue" stroke-width="2" />
<path d="M2084,1815 L927,359" stroke="blue" stroke-width="2" />
<path d="M2618,3453 L1943,845" stroke="blue" stroke-width="2" />
<path d="M2716,2495 L2498,2688" stroke="blue" stroke-width="2" />
<path d="M126,641 L1972,2018" stroke="blue" stroke-width="2" />
<path d="M1355,1358 L2047,3851" stroke="blue" stroke-width="2" />
<path d="M835,3286 L2400,597" stroke="blue" stroke-width="2" />
<path d="M384,2072 L175,2060" stroke="blue" stroke-width="2" />
<path d="M1214,2372 L1677,2126" stroke="blue" stroke-width="2" />
<path d="M721,2537 L616,1181" stroke="blue" stroke-width="2" />
<path d="M2638,758 L2077,278" stroke="blue" stroke-width="2" />
<path d="M1781,2876 L1347,753" stroke="blue" stroke-width="2" />
<path d="M1318,2873 L1828,4141" stroke="blue" stroke-width="2" />
<path d="M1470,1754 L1855,3426" stroke="blue" stroke-width="2" />
<path d="M1360,3948 L1805,3956" stroke="blue" stroke-width="2" />
<path d="M424,788 L2627,2633" stroke="blue" stroke-width="2" />
<path d="M2227,4106 L739,3051" stroke="blue" stroke-width="2" />
<path d="M1604,1452 L1222,149" stroke="blue" stroke-width="2" />
<path d="M418,4209 L695,2343" stroke="blue" stroke-width="2" />
<path d="M462,1600 L1082,3922" stroke="blue" stroke-width="2" />
<path d="M1529,352 L734,2831" stroke="blue" stroke-width="2" />
<path d="M1883,3877 L2620,3784" stroke="blue" stroke-width="2" />
<path d="M755,2183 L1671,3903" stroke="blue" stroke-width="2" />
<path d="M2463,3233 L2759,1096" stroke="blue" stroke-width="2" />
<path d="M193,80 L2534,3958" stroke="blue" stroke-width="2" />
<path d="M2025,2058 L2197,4206" stroke="blue" stroke-width="2" />
<path d="M1865,875 L1794,638" stroke="blue" stroke-width="2" />
<path d="M1329,2387 L610,2529" stroke="blue" stroke-width="2" />
<path d="M1825,2393 L1709,584" stroke="blue" stroke-width="2" />
<path d="M2177,2218 L1539,4083" stroke="blue" stroke-width="2" />
<path d="M2093,914 L1997,4098" stroke="blue" stroke-width="2" />
<path d="M2629,796 L544,708" stroke="blue" stroke-width="2" />
<path d="M1292,2368 L1114,4098" stroke="blue" stroke-width="2" />
<path d="M192,2773 L1589,958" stroke="blue" stroke-width="2" />
<path d="M668,1811 L711,2667" stroke="blue" stroke-width="2" />
<path d="M362,2525 L447,1858" stroke="blue" stroke-width="2" />
<path d="M435,2556 L2315,3116" stroke="blue" stroke-width="2" />
<path d="M2784,3370 L2794,2282" stroke="blue" stroke-width="2" />
<path d="M399,3296 L1916,3094" stroke="blue" stroke-width="2" />
<path d="M2269,1852 L1809,2842" stroke="blue" stroke-width="2" />
<path d="M550,3500 L155,1114" stroke="blue" stroke-width="2" />
<path d="M2677,3333 L843,3274" stroke="blue" stroke-width="2" />
<path d="M669,3764 L1530,3879" stroke="blue" stroke-width="2" />
<path d="M1198,3802 L2547,2107" stroke="blue" stroke-width="2" />
<path d="M1576,836 L970,1716" stroke="blue" stroke-width="2" />
<path d="M2327,78 L1337,1700" stroke="blue" stroke-width="2" />
<path d="M751,3171 L1383,400" stroke="blue" stroke-width="2" />
<path d="M1087,1587 L797,4167" stroke="blue" stroke-width="2" />
<path d="M53,8 L1574,1461" stroke="blue" stroke-width="2" />
<path d="M445,3665 L1064,493" stroke="blue" stroke-width="2" />
<path d="M2737,1049 L2478,2923" stroke="blue" stroke-width="2" />
<path d="M2581,853 L2685,1634" stroke="blue" stroke-width="2" />
<path d="M1285,1529 L1620,502" stroke="blue" stroke-width="2" />
<path d="M584,1340 L815,3340" stroke="blue" stroke-width="2" />
<path d="M550,499 L277,934" stroke="blue" stroke-width="2" />
<path d="M2203,3230 L983,3521" stroke="blue" stroke-width="2" />
<path d="M1400,3855 L350,1755" stroke="blue" stroke-width="2" />
<path d="M1722,1175 L1850,974" stroke="blue" stroke-width="2" />
<path d="M331,2939 L865,3935" stroke="blue" stroke-width="2" />
<path d="M2233,121 L340,3524" stroke="blue" stroke-width="2" />
<path d="M1568,560 L1653,3097" stroke="blue" stroke-width="2" />
<path d="M1464,213 L2509,3044" stroke="blue" stroke-width="2" />
<path d="M2367,3940 L1559,2347" stroke="blue" stroke-width="2" />
<path d="M2813,2238 L103,855" stroke="blue" stroke-width="2" />
<path d="M469,937 L315,1806" stroke="blue" stroke-width="2" />
<path d="M1051,226 L25,1208" stroke="blue" stroke-width="2" />
<path d="M643,2480 L1522,122" stroke="blue" stroke-width="2" />
<path d="M172,1417 L492,310" stroke="blue" stroke-width="2" />
<path d="M1631,1591 L1459,825" stroke="blue" stroke-width="2" />
<path d="M2586,3384 L2140,506" stroke="blue" stroke-width="2" />
<path d="M2467,662 L149,1112" stroke="blue" stroke-width="2" />
<path d="M2698,3893 L1879,1563" stroke="blue" stroke-width="2" />
<path d="M100,972 L336,606" stroke="blue" stroke-width="2" />
<path d="M2469,415 L2808,1435" stroke="blue" stroke-width="2" />
<path d="M1430,383 L816,1869" stroke="blue" stroke-width="2" />
<path d="M886,2046 L2664,99" stroke="blue" stroke-width="2" />
<path d="M1277,1705 L2344,1233" stroke="blue" stroke-width="2" />
<path d="M1698,792 L246,408" stroke="blue" stroke-width="2" />
<path d="M11,648 L804,4193" stroke="blue" stroke-width="2" />
<path d="M1396,2028 L2564,3431" stroke="blue" stroke-width="2" />
<path d="M634,3361 L2763,3173" stroke="blue" stroke-width="2" />
<path d="M2116,702 L1034,3751" stroke="blue" stroke-width="2" />
<path d="M152,3989 L1617,4132" stroke="blue" stroke-width="2" />
<path d="M1918,1112 L1826,3740" stroke="blue" stroke-width="2" />
<path d="M1848,3324 L2354,516" stroke="blue" stroke-width="2" />
<path d="M452,2898 L1823,922" stroke="blue" stroke-width="2" />
<path d="M472,2881 L1977,1665" stroke="blue" stroke-width="2" />
<path d="M1360,1135 L1668,175" stroke="blue" stroke-width="2" />
<path d="M732,3833 L1106,2049" stroke="blue" stroke-width="2" />
<path d="M1220,751 L2649,700" stroke="blue" stroke-width="2" />
<path d="M1158,2672 L2669,1014" stroke="blue" stroke-width="2" />
<path d="M2406,1349 L120,533" stroke="blue" stroke-width="2" />
<path d="M2418,3105 L2317,1930" stroke="blue" stroke-width="2" />
<path d="M2689,950 L2472,1084" stroke="blue" stroke-width="2" />
<path d="M2641,582 L859,3626" stroke="blue" stroke-width="2" />
<path d="M983,715 L1943,3012" stroke="blue" stroke-width="2" />
<path d="M2763,2279 L2376,1227" stroke="blue" stroke-width="2" />
<path d="M645,3524 L2395,3467" stroke="blue" stroke-width="2" />
<path d="M2431,2298 L1422,363" stroke="blue" stroke-width="2" />
<path d="M2173,1267 L2404,3879" stroke="blue" stroke-width="2" />
<path d="M2692,3660 L1925,3144" stroke="blue" stroke-width="2" />
<path d="M1296,3682 L583,428" stroke="blue" stroke-width="2" />
<path d="M187,384 L1960,164" stroke="blue" stroke-width="2" />
<path d="M369,3890 L520,241" stroke="blue" stroke-width="2" />
<path d="M1772,651 L99,2895" stroke="blue" stroke-width="2" />
<path d="M710,1311 L70,3046" stroke="blue" stroke-width="2" />
<path d="M1329,1201 L2516,339" stroke="blue" stroke-width="2" />
<path d="M434,3695 L560,3803" stroke="blue" stroke-width="2" />
<path d="M1710,1421 L15,2019" stroke="blue" stroke-width="2" />
<path d="M1118,3238 L538,1082" stroke="blue" stroke-width="2" />
<path d="M558,1699 L531,2689" stroke="blue" stroke-width="2" />
<path d="M1136,1028 L1032,3374" stroke="blue" stroke-width="2" />
<path d="M1282,3348 L587,1194" stroke="blue" stroke-width="2" />
<path d="M1180,475 L151,396" stroke="blue" stroke-width="2" />
<path d="M405,1782 L2419,1016" stroke="blue" stroke-width="2" />
<path d="M1130,3736 L1858,3665" stroke="blue" stroke-width="2" />
<path d="M1038,2617 L102,685" stroke="blue" stroke-width="2" />
<path d="M2803,2299 L1528,1579" stroke="blue" stroke-width="2" />
<path d="M767,1196 L2576,4004" stroke="blue" stroke-width="2" />
<path d="M1576,238 L1338,1599" stroke="blue" stroke-width="2" />
<path d="M1689,4175 L1961,2402" stroke="blue" stroke-width="2" />
<path d="M2828,2927 L2507,2812" stroke="blue" stroke-width="2" />
<path d="M2300,630 L929,662" stroke="blue" stroke-width="2" />
<path d="M2645,1510 L793,4213" stroke="blue" stroke-width="2" />
<path d="M1850,1948 L16,1912" stroke="blue" stroke-width="2" />
<path d="M2457,1176 L1156,533" stroke="blue" stroke-width="2" />
<path d="M979,936 L945,517" stroke="blue" stroke-width="2" />
<path d="M2066,1379 L2529,653" stroke="blue" stroke-width="2" />
<path d="M557,1609 L1285,53" stroke="blue" stroke-width="2" />
<path d="M535,1316 L175,901" stroke="blue" stroke-width="2" />
<path d="M769,1985 L830,319" stroke="blue" stroke-width="2" />
<path d="M1811,2391 L259,1843" stroke="blue" stroke-width="2" />
<path d="M194,3190 L2095,2701" stroke="blue" stroke-width="2" />
<path d="M1022,3179 L995,297" stroke="blue" stroke-width="2" />
<path d="M2440,3674 L175,4221" stroke="blue" stroke-width="2" />
<path d="M1614,2755 L2290,2377" stroke="blue" stroke-width="2" />
<path d="M1130,2373 L1195,3036" stroke="blue" stroke-width="2" />
<path d="M1396,4018 L1655,1875" stroke="blue" stroke-width="2" />
<path d="M1789,3629 L1896,1023" stroke="blue" stroke-width="2" />
<path d="M332,2274 L767,2424" stroke="blue" stroke-width="2" />
<path d="M1974,3812 L100,3312" stroke="blue" stroke-width="2" />
<path d="M1781,2419 L2640,471" stroke="blue" stroke-width="2" />
<path d="M717,3009 L1087,158" stroke="blue" stroke-width="2" />
<path d="M2671,957 L241,2725" stroke="blue" stroke-width="2" />
<path d="M1176,2281 L1205,4249" stroke="blue" stroke-width="2" />
<path d="M1298,3541 L2504,1332" stroke="blue" stroke-width="2" />
<path d="M1075,4079 L989,1360" stroke="blue" stroke-width="2" />
<path d="M911,2448 L1825,3554" stroke="blue" stroke-width="2" />
<path d="M1368,2519 L2580,3250" stroke="blue" stroke-width="2" />
<path d="M376,3031 L1842,2821" stroke="blue" stroke-width="2" />
<path d="M273,2127 L1287,2252" stroke="blue" stroke-width="2" />
<path d="M807,282 L2435,1048" stroke="blue" stroke-width="2" />
<path d="M1841,3777 L13,2944" stroke="blue" stroke-width="2" />
<path d="M1904,1798 L1475,2993" stroke="blue" stroke-width="2" />
<path d="M478,3864 L1468,1378" stroke="blue" stroke-width="2" />
<path d="M2136,2309 L507,170" stroke="blue" stroke-width="2" />
<path d="M1492,394 L2534,1805" stroke="blue" stroke-width="2" />
<path d="M1552,2155 L1671,639" stroke="blue" stroke-width="2" />
<path d="M1530,485 L2685,3169" stroke="blue" stroke-width="2" />
<path d="M1962,2636 L1062,1070" stroke="blue" stroke-width="2" />
<path d="M1124,60 L2695,771" stroke="blue" stroke-width="2" />
<path d="M2523,347 L2629,301" stroke="blue" stroke-width="2" />
<path d="M1894,945 L1270,646" stroke="blue" stroke-width="2" />
<path d="M212,3274 L2444,345" stroke="blue" stroke-width="2" />
<path d="M2076,645 L866,1162" stroke="blue" stroke-width="2" />
<path d="M7,3563 L2187,2558" stroke="blue" stroke-width="2" />
<path d="M630,336 L1408,4008" stroke="blue" stroke-width="2" />
<path d="M767,2783 L308,2587" stroke="blue" stroke-width="2" />
<path d="M1191,511 L2065,139" stroke="blue" stroke-width="2" />
<path d="M86,2800 L739,3418" stroke="blue" stroke-width="2" />
<path d="M615,1598 L798,1053" stroke="blue" stroke-width="2" />
<path d="M894,3604 L1871,2810" stroke="blue" stroke-width="2" />
<path d="M2278,2025 L438,1956" stroke="blue" stroke-width="2" />
<path d="M934,2236 L2220,3091" stroke="blue" stroke-width="2" />
<path d="M2341,1345 L2172,1734" stroke="blue" stroke-width="2" />
<path d="M2061,826 L284,3836" stroke="blue" stroke-width="2" />
<path d="M2715,1766 L1721,3922" stroke="blue" stroke-width="2" />
<path d="M2070,2233 L225,2531" stroke="blue" stroke-width="2" />
<path d="M236,3720 L2143,2889" stroke="blue" stroke-width="2" />
<path d="M2359,2302 L1133,2984" stroke="blue" stroke-width="2" />
<path d="M2611,2726 L2282,1747" stroke="blue" stroke-width="2" />
<path d="M1574,3408 L1186,4062" stroke="blue" stroke-width="2" />
<path d="M1024,506 L1009,1826" stroke="blue" stroke-width="2" />
<path d="M743,404 L1022,2362" stroke="blue" stroke-width="2" />
<path d="M1155,2624 L234,1579" stroke="blue" stroke-width="2" />
<path d="M1401,387 L2746,2294" stroke="blue" stroke-width="2" />
<path d="M992,3072 L2259,2346" stroke="blue" stroke-width="2" />
<path d="M247,1994 L1078,1736" stroke="blue" stroke-width="2" />
<path d="M1864,355 L2509,3477" stroke="blue" stroke-width="2" />
<path d="M1771,3062 L1438,3125" stroke="blue" stroke-width="2" />
<path d="M2408,689 L1571,2917" stroke="blue" stroke-width="2" />
<path d="M2193,3106 L2179,3379" stroke="blue" stroke-width="2" />
<path d="M423,3498 L456,3225" stroke="blue" stroke-width="2" />
<path d="M2570,1110 L1560,438" stroke="blue" stroke-width="2" />
<path d="M1080,3322 L1047,2697" stroke="blue" stroke-width="2" />
<path d="M2256,2013 L45,1033" stroke="blue" stroke-width="2" />
<path d="M1000,1504 L1023,1927" stroke="blue" stroke-width="2" />
<path d="M2231,3667 L382,3219" stroke="blue" stroke-width="2" />
<path d="M1542,4220 L2397,1111" stroke="blue" stroke-width="2" />
<path d="M1844,145 L2835,1525" stroke="blue" stroke-width="2" />
<path d="M1274,2070 L1038,756" stroke="blue" stroke-width="2" />
<path d="M0,0 L2849,0" stroke="red" stroke-width="10" />
<path d="M2849,0 L2849,4253" stroke="red" stroke-width="10" />
<path d="M0,4253 L2849,4253" stroke="red" stroke-width="10" />
<path d="M0,4253 L0,0" stroke="red" stroke-width="10" />
</svg>