<?xml version="1.0" encoding="UTF-8"?>
<svg xmlns="http://www.w3.org/2000/svg" xmlns:xlink="http://www.w3.org/1999/xlink"
     width="10000" height="10000" viewBox="0 0 10000 10000">
<defs>
</defs>
<path d="M1489,3516 L79,6863" stroke="blue" stroke-width="2" />
<path d="M2105,4850 L1003,2937" stroke="blue" stroke-width="2" />
<path d="M70,4170 L2030,530" stroke="blue" stroke-width="2" />
<path d="M55,7109 L119,7123" stroke="blue" stroke-width="2" />
<path d="M1748,642 L2674,7388" stroke="blue" stroke-width="2" />
<path d="M230,6467 L2428,6570" stroke="blue" stroke-width="2" />
<path d="M662,3311 L1144,2106" stroke="blue" stroke-width="2" />
<path d="M1387,1155 L879,7296" stroke="blue" stroke-width="2" />
<path d="M1328,126 L129,1843" stroke="blue" stroke-width="2" />
<path d="M1240,6480 L1140,5436" stroke="blue" stroke-width="2" />
<path d="M749,7911 L2847,7948" stroke="blue" stroke-width="2" />
<path d="M876,4625 L792,5847" stroke="blue" stroke-width="2" />
<path d="M1599,1700 L1311,2338" stroke="blue" stroke-width="2" />
<path d="M646,4699 L24,6751" stroke="blue" stroke-width="2" />
<path d="M710,778 L842,1220" stroke="blue" stroke-width="2" />
<path d="M1991,5608 L1546,1713" stroke="blue" stroke-width="2" />
<path d="M1521,8110 L565,8014" stroke="blue" stroke-width="2" />
<path d="M741,7121 L667,852" stroke="blue" stroke-width="2" />
<path d="M2735,126 L626,6393" stroke="blue" stroke-width="2" />
<path d="M541,6190 L412,2950" stroke="blue" stroke-width="2" />
<path d="M2311,5750 L2054,6230" stroke="blue" stroke-width="2" />
<path d="M587,4262 L1635,1256" stroke="blue" stroke-width="2" />
<path d="M101,6466 L1114,7232" stroke="blue" stroke-width="2" />
<path d="M2046,3005 L1777,7955" stroke="blue" stroke-width="2" />
<path d="M1958,2941 L2236,5838" stroke="blue" stroke-width="2" />
<path d="M2862,6333 L765,5176" stroke="blue" stroke-width="2" />
<path d="M2091,2784 L2577,5095" stroke="blue" stroke-width="2" />
<path d="M313,577 L1120,2350" stroke="blue" stroke-width="2" />
<path d="M2001,4245 L934,5176" stroke="blue" stroke-width="2" />
<path d="M1552,6063 L1378,3179" stroke="blue" stroke-width="2" />
<path d="M2481,447 L1359,2634" stroke="blue" stroke-width="2" />
<path d="M166,313 L297,2940" stroke="blue" stroke-width="2" />
<path d="M742,4281 L484,2943" stroke="blue" stroke-width="2" />
<path d="M88,3449 L48,7750" stroke="blue" stroke-width="2" />
<path d="M2816,5899 L990,7703" stroke="blue" stroke-width="2" />
<path d="M2627,2845 L1981,7270" stroke="blue" stroke-width="2" />
<path d="M1276,655 L1494,5305" stroke="blue" stroke-width="2" />
<path d="M107,876 L2533,247" stroke="blue" stroke-width="2" />
<path d="M2806,7856 L934,7423" stroke="blue" stroke-width="2" />
<path d="M2841,339 L1738,6285" stroke="blue" stroke-width="2" />
<path d="M1635,1555 L14,4457" stroke="blue" stroke-width="2" />
<path d="M595,4609 L2015,7070" stroke="blue" stroke-width="2" />
<path d="M2551,4357 L1477,6500" stroke="blue" stroke-width="2" />
<path d="M2490,5184 L635,4641" stroke="blue" stroke-width="2" />
<path d="M2813,2597 L333,4793" stroke="blue" stroke-width="2" />
<path d="M1271,1876 L2777,520" stroke="blue" stroke-width="2" />
<path d="M2094,6614 L2819,1326" stroke="blue" stroke-width="2" />
<path d="M2152,2110 L1531,6866" stroke="blue" stroke-width="2" />
<path d="M95,7754 L485,3643" stroke="blue" stroke-width="2" />
<path d="M1865,2760 L376,4796" stroke="blue" stroke-width="2" />
<path d="M977,85 L741,7096" stroke="blue" stroke-width="2" />
<path d="M2051,1416 L2539,4529" stroke="blue" stroke-width="2" />
<path d="M855,7186 L897,1896" stroke="blue" stroke-width="2" />
<path d="M1978,3826 L706,782" stroke="blue" stroke-width="2" />
<path d="M2361,27 L2380,5677" stroke="blue" stroke-width="2" />
<path d="M1445,7787 L662,575" stroke="blue" stroke-width="2" />
<path d="M1977,3708 L1815,4204" stroke="blue" stroke-width="2" />
<path d="M1386,491 L2110,7516" stroke="blue" stroke-width="2" />
<path d="M2379,5783 L15,7468" stroke="blue" stroke-width="2" />
<path d="M1067,3563 L1757,6253" stroke="blue" stroke-width="2" />
<path d="M2476,5615 L2805,5604" stroke="blue" stroke-width="2" />
<path d="M554,1278 L1145,4284" stroke="blue" stroke-width="2" />
<path d="M1151,6405 L26,3911" stroke="blue" stroke-width="2" />
<path d="M515,4548 L1039,2549" stroke="blue" stroke-width="2" />
<path d="M696,317 L646,2346" stroke="blue" stroke-width="2" />
<path d="M1247,4408 L872,7137" stroke="blue" stroke-width="2" />
<path d="M1981,2621 L2336,2804" stroke="blue" stroke-width="2" />
<path d="M1849,1346 L450,1269" stroke="blue" stroke-width="2" />
<path d="M895,5552 L115,3106" stroke="blue" stroke-width="2" />
<path d="M2382,6147 L1368,4353" stroke="blue" stroke-width="2" />
<path d="M955,2935 L2643,4116" stroke="blue" stroke-width="2" />
<path d="M1584,6292 L1246,3100" stroke="blue" stroke-width="2" />
<path d="M2151,6118 L2795,3249" stroke="blue" stroke-width="2" />
<path d="M2041,6528 L2190,6030" stroke="blue" stroke-width="2" />
<path d="M2063,4650 L2337,4986" stroke="blue" stroke-width="2" />
<path d="M570,4787 L2199,4221" stroke="blue" stroke-width="2" />
<path d="M1432,4189 L2843,2599" stroke="blue" stroke-width="2" />
<path d="M989,774 L2508,5003" stroke="blue" stroke-width="2" />
<path d="M504,885 L1944,6431" stroke="blue" stroke-width="2" />
<path d="M1671,6911 L1874,5671" stroke="blue" stroke-width="2" />
<path d="M1004,135 L2557,129" stroke="blue" stroke-width="2" />
<path d="M2528,1012 L481,2604" stroke="blue" stroke-width="2" />
<path d="M2610,4015 L2203,6279" stroke="blue" stroke-width="2" />
<path d="M1634,7124 L1944,2652" stroke="blue" stroke-width="2" />
<path d="M625,1172 L2390,1140" stroke="blue" stroke-width="2" />
<path d="M1943,399 L1015,5596" stroke="blue" stroke-width="2" />
<path d="M2853,3047 L2128,7142" stroke="blue" stroke-width="2" />
<path d="M1445,7804 L1618,4859" stroke="blue" stroke-width="2" />
<path d="M1299,3778 L1094,5193" stroke="blue" stroke-width="2" />
<path d="M1701,6457 L1811,237" stroke="blue" stroke-width="2" />
<path d="M1566,3090 L2314,2176" stroke="blue" stroke-width="2" />
<path d="M295,1142 L34,1170" stroke="blue" stroke-width="2" />
<path d="M752,3250 L1331,4157" stroke="blue" stroke-width="2" />
<path d="M768,7601 L2296,6206" stroke="blue" stroke-width="2" />
<path d="M804,7333 L468,5309" stroke="blue" stroke-width="2" />
<path d="M1867,1459 L2527,7352" stroke="blue" stroke-width="2" />
<path d="M237,4045 L32,2806" stroke="blue" stroke-width="2" />
<path d="M893,928 L724,3827" stroke="blue" stroke-width="2" />
<path d="M1395,4553 L1821,3543" stroke="blue" stroke-width="2" />
<path d="M82,6244 L2148,4218" stroke="blue" stroke-width="2" />
<path d="M2351,5218 L1744,5815" stroke="blue" stroke-width="2" />
<path d="M1990,6507 L2506,5890" stroke="blue" stroke-width="2" />
<path d="M2145,1680 L2023,7400" stroke="blue" stroke-width="2" />
<path d="M423,6534 L235,3800" stroke="blue" stroke-width="2" />
<path d="M1960,4401 L1671,2627" stroke="blue" stroke-width="2" />
<path d="M2409,2270 L955,4613" stroke="blue" stroke-width="2" />
<path d="M182,5058 L2762,1563" stroke="blue" stroke-width="2" />
<path d="M293,3947 L2084,3086" stroke="blue" stroke-width="2" />
<path d="M296,6374 L260,3704" stroke="blue" stroke-width="2" />
<path d="M574,2609 L1473,1696" stroke="blue" stroke-width="2" />
<path d="M1813,4209 L1902,4606" stroke="blue" stroke-width="2" />
<path d="M1313,7012 L2641,5793" stroke="blue" stroke-width="2" />
<path d="M1674,6923 L2744,4036" stroke="blue" stroke-width="2" />
<path d="M1750,709 L2437,2947" stroke="blue" stroke-width="2" />
<path d="M2821,170 L1222,8078" stroke="blue" stroke-width="2" />
<path d="M1523,4819 L372,5907" stroke="blue" stroke-width="2" />
<path d="M2058,6909 L680,211" stroke="blue" stroke-width="2" />
<path d="M1785,244 L846,6711" stroke="blue" stroke-width="2" />
<path d="M374,7234 L1574,496" stroke="blue" stroke-width="2" />
<path d="M2579,3377 L1908,6988" stroke="blue" stroke-width="2" />
<path d="M1763,7448 L770,1740" stroke="blue" stroke-width="2" />
<path d="M219,7969 L2412,6897" stroke="blue" stroke-width="2" />
<path d="M2592,6888 L1866,7806" stroke="blue" stroke-width="2" />
<path d="M114,7580 L172,1296" stroke="blue" stroke-width="2" />
<path d="M2540,6371 L1074,3625" stroke="blue" stroke-width="2" />
<path d="M591,5738 L1622,3098" stroke="blue" stroke-width="2" />
<path d="M260,3069 L2476,5159" stroke="blue" stroke-width="2" />
<path d="M2449,5072 L833,2366" stroke="blue" stroke-width="2" />
<path d="M1432,6033 L1762,1561" stroke="blue" stroke-width="2" />
<path d="M1019,7769 L2327,4546" stroke="blue" stroke-width="2" />
<path d="M1352,2913 L1695,1888" stroke="blue" stroke-width="2" />
<path d="M733,3206 L901,1658" stroke="blue" stroke-width="2" />
<path d="M1544,4502 L1017,4041" stroke="blue" stroke-width="2" />
<path d="M218,6741 L2660,3350" stroke="blue" stroke-width="2" />
<path d="M1563,4657 L2430,3756" stroke="blue" stroke-width="2" />
<path d="M1726,2297 L1541,382" stroke="blue" stroke-width="2" />
<path d="M168,5348 L2848,7896" stroke="blue" stroke-width="2" />
<path d="M2069,1998 L509,2406" stroke="blue" stroke-width="2" />
<path d="M485,6973 L2073,1469" stroke="blue" stroke-width="2" />
<path d="M2216,4233 L766,1489" stroke="blue" stroke-width="2" />
<path d="M496,3460 L741,7711" stroke="blue" stroke-width="2" />
<path d="M747,1706 L2142,7085" stroke="blue" stroke-width="2" />
<path d="M1922,5142 L2354,8058" stroke="blue" stroke-width="2" />
<path d="M2676,5441 L1964,49" stroke="blue" stroke-width="2" />
<path d="M405,8035 L1405,7483" stroke="blue" stroke-width="2" />
<path d="M2288,3086 L1739,2238" stroke="blue" stroke-width="2" />
<path d="M2334,4651 L1318,3456" stroke="blue" stroke-width="2" />
<path d="M1507,6869 L2554,3158" stroke="blue" stroke-width="2" />
<path d="M1994,8008 L1446,2356" stroke="blue" stroke-width="2" />
<path d="M659,2076 L1441,6009" stroke="blue" stroke-width="2" />
<path d="M2195,1780 L2449,885" stroke="blue" stroke-width="2" />
<path d="M2826,3251 L226,5590" stroke="blue" stroke-width="2" />
<path d="M2757,1872 L1578,6820" stroke="blue" stroke-width="2" />
<path d="M2736,7054 L192,4094" stroke="blue" stroke-width="2" />
<path d="M653,7891 L2457,7932" stroke="blue" stroke-width="2" />
<path d="M1671,8009 L2667,5220" stroke="blue" stroke-width="2" />
<path d="M147,2462 L183,2011" stroke="blue" stroke-width="2" />
<path d="M2722,7020 L379,2647" stroke="blue" stroke-width="2" />
<path d="M2430,2720 L822,3060" stroke="blue" stroke-width="2" />
<path d="M1830,103 L2827,7945" stroke="blue" stroke-width="2" />
<path d="M1832,4064 L1790,4442" stroke="blue" stroke-width="2" />
<path d="M163,4579 L2645,1281" stroke="blue" stroke-width="2" />
<path d="M650,4264 L203,850" stroke="blue" stroke-width="2" />
<path d="M1881,4902 L2798,7657" stroke="blue" stroke-width="2" />
<path d="M851,5329 L663,2984" stroke="blue" stroke-width="2" />
<path d="M2194,261 L2588,1768" stroke="blue" stroke-width="2" />
<path d="M428,577 L105,1382" stroke="blue" stroke-width="2" />
<path d="M834,5935 L1739,6663" stroke="blue" stroke-width="2" />
<path d="M2394,5964 L1733,2675" stroke="blue" stroke-width="2" />
<path d="M209,2083 L619,6514" stroke="blue" stroke-width="2" />
<path d="M1677,1233 L495,4660" stroke="blue" stroke-width="2" />
<path d="M1115,2667 L2418,6465" stroke="blue" stroke-width="2" />
<path d="M710,3243 L606,6466" stroke="blue" stroke-width="2" />
<path d="M1704,7823 L751,5454" stroke="blue" stroke-width="2" />
<path d="M690,3620 L2840,1325" stroke="blue" stroke-width="2" />
<path d="M2585,941 L1630,3507" stroke="blue" stroke-width="2" />
<path d="M1237,1139 L417,7252" stroke="blue" stroke-width="2" />
<path d="M1965,3755 L2454,6419" stroke="blue" stroke-width="2" />
<path d="M2482,2094 L870,2061" stroke="blue" stroke-width="2" />
<path d="M518,1214 L1024,4947" stroke="blue" stroke-width="2" />
<path d="M2289,5384 L1168,6111" stroke="blue" stroke-width="2" />
<path d="M1116,4108 L2271,3440" stroke="blue" stroke-width="2" />
<path d="M415,6758 L1048,6452" stroke="blue" stroke-width="2" />
<path d="M1747,1898 L1438,4815" stroke="blue" stroke-width="2" />
<path d="M2233,2377 L2136,7341" stroke="blue" stroke-width="2" />
<path d="M667,4896 L224,5872" stroke="blue" stroke-width="2" />
<path d="M1273,584 L1192,1413" stroke="blue" stroke-width="2" />
<path d="M316,688 L968,430" stroke="blue" stroke-width="2" />
<path d="M1382,2903 L1659,5367" stroke="blue" stroke-width="2" />
<path d="M2073,1505 L2662,1518" stroke="blue" stroke-width="2" />
<path d="M2553,679 L1421,5282" stroke="blue" stroke-width="2" />
<path d="M179,3486 L731,6698" stroke="blue" stroke-width="2" />
<path d="M211,1902 L2411,2774" stroke="blue" stroke-width="2" />
<path d="M2017,5475 L390,4748" stroke="blue" stroke-width="2" />
<path d="M2606,395 L2655,6469" stroke="blue" stroke-width="2" />
<path d="M681,4754 L807,118" stroke="blue" stroke-width="2" />
<path d="M1193,2187 L2505,5658" stroke="blue" stroke-width="2" />
<path d="M1684,3694 L24,43" stroke="blue" stroke-width="2" />
<path d="M1018,2874 L670,4573" stroke="blue" stroke-width="2" />
<path d="M1371,5664 L2112,7985" stroke="blue" stroke-width="2" />
<path d="M2182,3359 L845,4450" stroke="blue" stroke-width="2" />
<path d="M2415,6193 L185,2028" stroke="blue" stroke-width="2" />
<path d="M1388,3545 L2352,3299" stroke="blue" stroke-width="2" />
<path d="M2296,4049 L2210,2902" stroke="blue" stroke-width="2" />
<path d="M2087,1610 L189,7255" stroke="blue" stroke-width="2" />
<path d="M1365,6969 L1172,5442" stroke="blue" stroke-width="2" />
<path d="M10,1415 L437,7302" stroke="blue" stroke-width="2" />
<path d="M1195,2521 L2404,4206" stroke="blue" stroke-width="2" />
<path d="M1866,7188 L960,1321" stroke="blue" stroke-width="2" />
<path d="M1802,6469 L2747,4763" stroke="blue" stroke-width="2" />
<path d="M519,2198 L606,3730" stroke="blue" stroke-width="2" />
<path d="M2841,3874 L1246,1982" stroke="blue" stroke-width="2" />
<path d="M1317,7148 L753,1835" stroke="blue" stroke-width="2" />
<path d="M869,6688 L2756,3126" stroke="blue" stroke-width="2" />
<path d="M841,4610 L68,3554" stroke="blue" stroke-width="2" />
<path d="M2269,7217 L2173,4561" stroke="blue" stroke-width="2" />
<path d="M1983,6242 L1623,5887" stroke="blue" stroke-width="2" />
<path d="M2517,5810 L87,30" stroke="blue" stroke-width="2" />
<path d="M2676,2747 L81,5380" stroke="blue" stroke-width="2" />
<path d="M2813,6680 L1499,3655" stroke="blue" stroke-width="2" />
<path d="M1198,2419 L1756,7976" stroke="blue" stroke-width="2" />
<path d="M2308,7225 L2730,4369" stroke="blue" stroke-width="2" />
<path d="M1117,2544 L678,2987" stroke="blue" stroke-width="2" />
<path d="M2576,4590 L2796,774" stroke="blue" stroke-width="2" />
<path d="M2006,18 L128,5685" stroke="blue" stroke-width="2" />
<path d="M116,3945 L1679,242" stroke="blue" stroke-width="2" />
<path d="M1093,2157 L1808,6217" stroke="blue" stroke-width="2" />
<path d="M978,3231 L1041,7960" stroke="blue" stroke-width="2" />
<path d="M522,2252 L485,4065" stroke="blue" stroke-width="2" />
<path d="M2545,3879 L2230,4557" stroke="blue" stroke-width="2" />
<path d="M949,1571 L1975,5125" stroke="blue" stroke-width="2" />
<path d="M1039,7956 L2051,5622" stroke="blue" stroke-width="2" />
<path d="M790,3179 L1616,7071" stroke="blue" stroke-width="2" />
<path d="M363,3487 L2000,1820" stroke="blue" stroke-width="2" />
<path d="M620,3304 L2125,2076" stroke="blue" stroke-width="2" />
<path d="M685,6631 L631,7883" stroke="blue" stroke-width="2" />
<path d="M2478,4198 L1314,3503" stroke="blue" stroke-width="2" />
<path d="M235,4715 L2748,1998" stroke="blue" stroke-width="2" />
<path d="M1265,1402 L238,198" stroke="blue" stroke-width="2" />
<path d="M1305,1846 L2242,6055" stroke="blue" stroke-width="2" />
<path d="M8,1118 L1705,1227" stroke="blue" stroke-width="2" />
<path d="M1230,2640 L2249,7311" stroke="blue" stroke-width="2" />
<path d="M223,3004 L454,3814" stroke="blue" stroke-width="2" />
<path d="M2555,1926 L2298,4045" stroke="blue" stroke-width="2" />
<path d="M924,6344 L572,2242" stroke="blue" stroke-width="2" />
<path d="M951,7662 L1344,2882" stroke="blue" stroke-width="2" />
<path d="M2539,7415 L1381,1146" stroke="blue" stroke-width="2" />
<path d="M2170,4507 L1051,2668" stroke="blue" stroke-width="2" />
<path d="M1892,7861 L2516,7984" stroke="blue" stroke-width="2" />
<path d="M883,78 L1042,1080" stroke="blue" stroke-width="2" />
<path d="M1820,1073 L59,7509" stroke="blue" stroke-width="2" />
<path d="M999,6083 L1259,4672" stroke="blue" stroke-width="2" />
<path d="M1494,7282 L1771,217" stroke="blue" stroke-width="2" />
<path d="M1360,1541 L1487,5453" stroke="blue" stroke-width="2" />
<path d="M16,7336 L899,340" stroke="blue" stroke-width="2" />
<path d="M1226,5974 L1920,4364" stroke="blue" stroke-width="2" />
<path d="M678,1440 L1808,2114" stroke="blue" stroke-width="2" />
<path d="M1799,921 L854,95" stroke="blue" stroke-width="2" />
<path d="M232,2007 L155,341" stroke="blue" stroke-width="2" />
<path d="M35,3503 L525,3564" stroke="blue" stroke-width="2" />
<path d="M650,3669 L1884,7895" stroke="blue" stroke-width="2" />
<path d="M241,5021 L2460,1711" stroke="blue" stroke-width="2" />
<path d="M1037,7209 L643,6650" stroke="blue" stroke-width="2" />
<path d="M994,3744 L1631,6533" stroke="blue" stroke-width="2" />
<path d="M932,7556 L2026,6649" stroke="blue" stroke-width="2" />
<path d="M2389,1532 L557,2628" stroke="blue" stroke-width="2" />
<path d="M1672,7537 L1189,4953" stroke="blue" stroke-width="2" />
<path d="M1846,6967 L953,375" stroke="blue" stroke-width="2" />
<path d="M1928,7462 L2746,3831" stroke="blue" stroke-width="2" />
<path d="M1231,7787 L557,4575" stroke="blue" stroke-width="2" />
<path d="M787,6137 L2256,4834" stroke="blue" stroke-width="2" />
<path d="M2159,1467 L2861,7447" stroke="blue" stroke-width="2" />
<path d="M1253,3420 L719,6912" stroke="blue" stroke-width="2" />
<path d="M1911,5833 L2797,7754" stroke="blue" stroke-width="2" />
<path d="M2861,8106 L688,3646" stroke="blue" stroke-width="2" />
<path d="M1885,4078 L1220,5313" stroke="blue" stroke-width="2" />
<path d="M869,7739 L2293,6887" stroke="blue" stroke-width="2" />
<path d="M1547,7759 L2123,1368" stroke="blue" stroke-width="2" />
<path d="M1244,3024 L2609,4279" stroke="blue" stroke-width="2" />
<path d="M2446,5826 L745,7377" stroke="blue" stroke-width="2" />
<path d="M1679,7596 L1636,191" stroke="blue" stroke-width="2" />
<path d="M366,5946 L1502,2837" stroke="blue" stroke-width="2" />
<path d="M789,5260 L750,8134" stroke="blue" stroke-width="2" />
<path d="M1104,8016 L1157,1504" stroke="blue" stroke-width="2" />
<path d="M1782,3905 L2155,6024" stroke="blue" stroke-width="2" />
<path d="M2094,7387 L1853,4413" stroke="blue" stroke-width="2" />
<path d="M1141,6927 L2715,913" stroke="blue" stroke-width="2" />
<path d="M539,2089 L1984,3073" stroke="blue" stroke-width="2" />
<path d="M535,6114 L380,7702" stroke="blue" stroke-width="2" />
<path d="M1733,1148 L489,6127" stroke="blue" stroke-width="2" />
<path d="M1460,7823 L2463,7989" stroke="blue" stroke-width="2" />
<path d="M2610,4693 L1409,7368" stroke="blue" stroke-width="2" />
<path d="M420,7304 L402,2626" stroke="blue" stroke-width="2" />
<path d="M1129,1202 L671,321" stroke="blue" stroke-width="2" />
<path d="M1695,4593 L2438,5626" stroke="blue" stroke-width="2" />
<path d="M236,3333 L51,44" stroke="blue" stroke-width="2" />
<path d="M1102,737 L2386,5906" stroke="blue" stroke-width="2" />
<path d="M2071,4930 L1766,4926" stroke="blue" stroke-width="2" />
<path d="M1750,5326 L669,4858" stroke="blue" stroke-width="2" />
<path d="M619,2333 L2501,7470" stroke="blue" stroke-width="2" />
<path d="M975,7880 L2831,4245" stroke="blue" stroke-width="2" />
<path d="M2561,6732 L155,7498" stroke="blue" stroke-width="2" />
<path d="M1880,7298 L1821,7369" stroke="blue" stroke-width="2" />
<path d="M2315,6393 L1709,2935" stroke="blue" stroke-width="2" />
<path d="M2625,4508 L371,2819" stroke="blue" stroke-width="2" />
<path d="M1757,5957 L165,1727" stroke="blue" stroke-width="2" />
<path d="M2008,7936 L2248,407" stroke="blue" stroke-width="2" />
<path d="M566,6458 L1875,5718" stroke="blue" stroke-width="2" />
<path d="M713,6629 L1964,3691" stroke="blue" stroke-width="2" />
<path d="M1435,7095 L1413,4753" stroke="blue" stroke-width="2" />
<path d="M712,5430 L1677,3941" stroke="blue" stroke-width="2" />
<path d="M586,5156 L2422,3089" stroke="blue" stroke-width="2" />
<path d="M1718,2382 L627,4654" stroke="blue" stroke-width="2" />
<path d="M374,3459 L2843,5887" stroke="blue" stroke-width="2" />
<path d="M664,5919 L2799,7221" stroke="blue" stroke-width="2" />
<path d="M1073,7021 L283,883" stroke="blue" stroke-width="2" />
<path d="M2733,3510 L337,6087" stroke="blue" stroke-width="2" />
<path d="M1492,3237 L179,6571" stroke="blue" stroke-width="2" />
<path d="M2150,3640 L792,6805" stroke="blue" stroke-width="2" />
<path d="M1485,5759 L788,2846" stroke="blue" stroke-width="2" />
<path d="M2664,7802 L2476,7453" stroke="blue" stroke-width="2" />
<path d="M1203,3676 L46,5497" stroke="blue" stroke-width="2" />
<path d="M1926,4661 L1141,5583" stroke="blue" stroke-width="2" />
<path d="M988,4056 L691,6035" stroke="blue" stroke-width="2" />
<path d="M133,6150 L126,1333" stroke="blue" stroke-width="2" />
<path d="M137,2674 L1769,1045" stroke="blue" stroke-width="2" />
<path d="M1002,5554 L2215,7006" stroke="blue" stroke-width="2" />
<path d="M2333,7612 L1235,131" stroke="blue" stroke-width="2" />
<path d="M2810,1505 L2403,2837" stroke="blue" stroke-width="2" />
<path d="M1641,5651 L2035,7278" stroke="blue" stroke-width="2" />
<path d="M552,466 L872,3377" stroke="blue" stroke-width="2" />
<path d="M2507,5789 L928,6336" stroke="blue" stroke-width="2" />
<path d="M1104,3684 L103,2838" stroke="blue" stroke-width="2" />
<path d="M2047,7892 L2822,1351" stroke="blue" stroke-width="2" />
<path d="M147,4915 L2388,4352" stroke="blue" stroke-width="2" />
<path d="M1514,6930 L70,7130" stroke="blue" stroke-width="2" />
<path d="M1643,4856 L669,1368" stroke="blue" stroke-width="2" />
<path d="M146,716 L767,8060" stroke="blue" stroke-width="2" />
<path d="M1207,4480 L607,7450" stroke="blue" stroke-width="2" />
<path d="M291,3800 L2257,4754" stroke="blue" stroke-width="2" />
<path d="M1218,2141 L1370,7218" stroke="blue" stroke-width="2" />
<path d="M1462,7245 L108,6831" stroke="blue" stroke-width="2" />
<path d="M1815,1390 L2829,7310" stroke="blue" stroke-width="2" />
<path d="M2308,5608 L398,5012" stroke="blue" stroke-width="2" />
<path d="M1760,2297 L1673,7133" stroke="blue" stroke-width="2" />
<path d="M2696,8060 L194,2881" stroke="blue" stroke-width="2" />
<path d="M2527,5590 L2438,4630" stroke="blue" stroke-width="2" />
<path d="M2276,5480 L713,1430" stroke="blue" stroke-width="2" />
<path d="M906,3587 L2359,7112" stroke="blue" stroke-width="2" />
<path d="M2471,1139 L2689,3430" stroke="blue" stroke-width="2" />
<path d="M2606,3060 L1201,1983" stroke="blue" stroke-width="2" />
<path d="M1581,2716 L2528,3101" stroke="blue" stroke-width="2" />
<path d="M909,4158 L1601,5709" stroke="blue" stroke-width="2" />
<path d="M2667,7320 L156,4428" stroke="blue" stroke-width="2" />
<path d="M1916,1549 L2733,2284" stroke="blue" stroke-width="2" />
<path d="M2579,7333 L1019,5252" stroke="blue" stroke-width="2" />
<path d="M2366,1264 L1244,5713" stroke="blue" stroke-width="2" />
<path d="M415,6086 L774,392" stroke="blue" stroke-width="2" />
<path d="M1071,3262 L135,3365" stroke="blue" stroke-width="2" />
<path d="M2715,5151 L166,2655" stroke="blue" stroke-width="2" />
<path d="M2027,6706 L2002,5132" stroke="blue" stroke-width="2" />
<path d="M2606,144 L2168,7118" stroke="blue" stroke-width="2" />
<path d="M2634,2442 L1720,6372" stroke="blue" stroke-width="2" />
<path d="M1627,7862 L2501,6424" stroke="blue" stroke-width="2" />
<path d="M1072,5549 L2499,7273" stroke="blue" stroke-width="2" />
<path d="M146,7656 L544,6577" stroke="blue" stroke-width="2" />
<path d="M1344,876 L736,3177" stroke="blue" stroke-width="2" />
<path d="M1534,1776 L1931,6389" stroke="blue" stroke-width="2" />
<path d="M1663,2844 L391,2241" stroke="blue" stroke-width="2" />
<path d="M366,4129 L1215,985" stroke="blue" stroke-width="2" />
<path d="M1722,4114 L2150,2643" stroke="blue" stroke-width="2" />
<path d="M1728,2505 L1670,4027" stroke="blue" stroke-width="2" />
<path d="M88,7729 L537,3860" stroke="blue" stroke-width="2" />
<path d="M1040,2018 L888,111" stroke="blue" stroke-width="2" />
<path d="M28,3083 L2658,3934" stroke="blue" stroke-width="2" />
<path d="M359,4914 L1254,6629" stroke="blue" stroke-width="2" />
<path d="M2518,1250 L1481,2711" stroke="blue" stroke-width="2" />
<path d="M2479,940 L1946,6185" stroke="blue" stroke-width="2" />
<path d="M2857,865 L358,7520" stroke="blue" stroke-width="2" />
<path d="M366,1389 L2146,429" stroke="blue" stroke-width="2" />
<path d="M666,881 L116,2942" stroke="blue" stroke-width="2" />
<path d="M88,2612 L668,1792" stroke="blue" stroke-width="2" />
<path d="M2696,2611 L603,2029" stroke="blue" stroke-width="2" />
<path d="M1247,4649 L1527,4428" stroke="blue" stroke-width="2" />
<path d="M2626,4379 L805,7480" stroke="blue" stroke-width="2" />
<path d="M398,5525 L929,4024" stroke="blue" stroke-width="2" />
<path d="M2076,8013 L500,5952" stroke="blue" stroke-width="2" />
<path d="M1463,1312 L669,5414" stroke="blue" stroke-width="2" />
<path d="M396,1057 L1461,5282" stroke="blue" stroke-width="2" />
<path d="M602,457 L2020,3269" stroke="blue" stroke-width="2" />
<path d="M598,7843 L1594,639" stroke="blue" stroke-width="2" />
<path d="M2266,6152 L749,3590" stroke="blue" stroke-width="2" />
<path d="M2152,1482 L1052,3131" stroke="blue" stroke-width="2" />
<path d="M615,4889 L2442,3060" stroke="blue" stroke-width="2" />
<path d="M2184,1834 L333,1813" stroke="blue" stroke-width="2" />
<path d="M1717,2052 L2625,6624" stroke="blue" stroke-width="2" />
<path d="M2546,7631 L2290,1620" stroke="blue" stroke-width="2" />
<path d="M1283,4802 L2471,2098" stroke="blue" stroke-width="2" />
<path d="M2212,3477 L1169,3436" stroke="blue" stroke-width="2" />
<path d="M2751,6334 L305,2023" stroke="blue" stroke-width="2" />
<path d="M58,7083 L1832,6352" stroke="blue" stroke-width="2" />
<path d="M2571,1474 L916,6872" stroke="blue" stroke-width="2" />
<path d="M896,3883 L477,7281" stroke="blue" stroke-width="2" />
<path d="M670,6922 L1432,3098" stroke="blue" stroke-width="2" />
<path d="M2576,1297 L2706,2711" stroke="blue" stroke-width="2" />
<path d="M1188,3655 L56,4293" stroke="blue" stroke-width="2" />
<path d="M1302,6100 L239,3188" stroke="blue" stroke-width="2" />
<path d="M117,6446 L1769,2739" stroke="blue" stroke-width="2" />
<path d="M365,3604 L667,2180" stroke="blue" stroke-width="2" />
<path d="M1535,4312 L2463,5593" stroke="blue" stroke-width="2" />
<path d="M100,7644 L321,5341" stroke="blue" stroke-width="2" />
<path d="M2233,5576 L2502,5122" stroke="blue" stroke-width="2" />
<path d="M865,2478 L660,3061" stroke="blue" stroke-width="2" />
<path d="M1622,2092 L1303,341" stroke="blue" stroke-width="2" />
<path d="M245,1845 L1297,7432" stroke="blue" stroke-width="2" />
<path d="M71,4207 L1357,4430" stroke="blue" stroke-width="2" />
<path d="M642,508 L599,6336" stroke="blue" stroke-width="2" />
<path d="M204,6021 L2308,3443" stroke="blue" stroke-width="2" />
<path d="M1762,2989 L188,6971" stroke="blue" stroke-width="2" />
<path d="M2151,3722 L2295,6214" stroke="blue" stroke-width="2" />
<path d="M111,344 L2743,7955" stroke="blue" stroke-width="2" />
<path d="M1934,2490 L1033,5289" stroke="blue" stroke-width="2" />
<path d="M1779,5835 L944,477" stroke="blue" stroke-width="2" />
<path d="M1799,6339 L1267,3756" stroke="blue" stroke-width="2" />
<path d="M1508,5299 L185,970" stroke="blue" stroke-width="2" />
<path d="M2820,504 L1446,1662" stroke="blue" stroke-width="2" />
<path d="M1922,3587 L688,2582" stroke="blue" stroke-width="2" />
<path d="M947,4263 L1011,5375" stroke="blue" stroke-width="2" />
<path d="M1455,1686 L2563,3404" stroke="blue" stroke-width="2" />
<path d="M836,21 L804,2905" stroke="blue" stroke-width="2" />
<path d="M1849,3454 L605,77" stroke="blue" stroke-width="2" />
<path d="M1851,803 L869,8088" stroke="blue" stroke-width="2" />
<path d="M2477,1087 L1830,3502" stroke="blue" stroke-width="2" />
<path d="M2530,5263 L1760,1728" stroke="blue" stroke-width="2" />
<path d="M1279,6159 L1184,1247" stroke="blue" stroke-width="2" />
<path d="M1474,856 L1745,7720" stroke="blue" stroke-width="2" />
<path d="M618,5007 L897,5215" stroke="blue" stroke-width="2" />
<path d="M985,3058 L2527,3057" stroke="blue" stroke-width="2" />
<path d="M2628,7011 L589,1185" stroke="blue" stroke-width="2" />
<path d="M1279,2305 L2671,6328" stroke="blue" stroke-width="2" />
<path d="M2566,6075 L2575,6927" stroke="blue" stroke-width="2" />
<path d="M1361,1721 L235,6174" stroke="blue" stroke-width="2" />
<path d="M116,1061 L1390,3009" stroke="blue" stroke-width="2" />
<path d="M2703,4450 L1729,5563" stroke="blue" stroke-width="2" />
<path d="M181,45 L2505,575" stroke="blue" stroke-width="2" />
<path d="M1076,4520 L1183,5920" stroke="blue" stroke-width="2" />
<path d="M396,902 L1940,3346" stroke="blue" stroke-width="2" />
<path d="M376,2168 L863,5765" stroke="blue" stroke-width="2" />
<path d="M2826,4345 L1140,7840" stroke="blue" stroke-width="2" />
<path d="M1718,1273 L2017,7491" stroke="blue" stroke-width="2" />
<path d="M79,1859 L2160,4033" stroke="blue" stroke-width="2" />
<path d="M681,3130 L179,6048" stroke="blue" stroke-width="2" />
<path d="M2053,126 L2777,542" stroke="blue" stroke-width="2" />
<path d="M2544,7794 L920,2310" stroke="blue" stroke-width="2" />
<path d="M1117,3324 L2306,6729" stroke="blue" stroke-width="2" />
<path d="M1218,2068 L302,7" stroke="blue" stroke-width="2" />
<path d="M483,3765 L2253,2125" stroke="blue" stroke-width="2" />
<path d="M431,1858 L2514,4046" stroke="blue" stroke-width="2" />
<path d="M1072,102 L1683,3458" stroke="blue" stroke-width="2" />
<path d="M2530,5450 L2093,3734" stroke="blue" stroke-width="2" />
<path d="M796,2706 L2778,6167" stroke="blue" stroke-width="2" />
<path d="M1294,3067 L1070,5148" stroke="blue" stroke-width="2" />
<path d="M2100,6386 L2247,6218" stroke="blue" stroke-width="2" />
<path d="M1667,6663 L2268,4653" stroke="blue" stroke-width="2" />
<path d="M148,2136 L2690,7068" stroke="blue" stroke-width="2" />
<path d="M2687,2422 L1999,7106" stroke="blue" stroke-width="2" />
<path d="M2824,2779 L1640,5499" stroke="blue" stroke-width="2" />
<path d="M170,7777 L2576,4180" stroke="blue" stroke-width="2" />
<path d="M2763,3517 L477,5728" stroke="blue" stroke-width="2" />
<path d="M2129,8131 L1261,1693" stroke="blue" stroke-width="2" />
<path d="M1428,1054 L1720,6683" stroke="blue" stroke-width="2" />
<path d="M2206,7161 L1106,7102" stroke="blue" stroke-width="2" />
<path d="M1280,73 L828,230" stroke="blue" stroke-width="2" />
<path d="M2195,2923 L388,5433" stroke="blue" stroke-width="2" />
<path d="M669,3419 L1149,6626" stroke="blue" stroke-width="2" />
<path d="M5,286 L755,5874" stroke="blue" stroke-width="2" />
<path d="M637,4500 L657,4602" stroke="blue" stroke-width="2" />
<path d="M2203,2090 L418,3854" stroke="blue" stroke-width="2" />
<path d="M231,1218 L386,3807" stroke="blue" stroke-width="2" />
<path d="M2044,6837 L405,39" stroke="blue" stroke-width="2" />
<path d="M30,2411 L326,2184" stroke="blue" stroke-width="2" />
<path d="M2138,809 L2068,6061" stroke="blue" stroke-width="2" />
<path d="M2439,4378 L205,3547" stroke="blue" stroke-width="2" />
<path d="M1576,32 L2831,2244" stroke="blue" stroke-width="2" />
<path d="M2346,6300 L31,3297" stroke="blue" stroke-width="2" />
<path d="M160,5871 L295,1269" stroke="blue" stroke-width="2" />
<path d="M371,3244 L1440,1628" stroke="blue" stroke-width="2" />
<path d="M1204,1235 L2233,1278" stroke="blue" stroke-width="2" />
<path d="M2401,606 L1292,6413" stroke="blue" stroke-width="2" />
<path d="M177,5307 L1599,1056" stroke="blue" stroke-width="2" />
<path d="M2857,4708 L2142,7345" stroke="blue" stroke-width="2" />
<path d="M1573,2398 L1158,6116" stroke="blue" stroke-width="2" />
<path d="M991,2548 L1242,7105" stroke="blue" stroke-width="2" />
<path d="M1551,6706 L966,3757" stroke="blue" stroke-width="2" />
<path d="M633,5290 L548,4365" stroke="blue" stroke-width="2" />
<path d="M672,5456 L1762,807" stroke="blue" stroke-width="2" />
<path d="M2617,6066 L121,7814" stroke="blue" stroke-width="2" />
<path d="M2349,956 L962,2844" stroke="blue" stroke-width="2" />
<path d="M447,6748 L2522,1223" stroke="blue" stroke-width="2" />
<path d="M1688,4922 L691,5940" stroke="blue" stroke-width="2" />
<path d="M1433,3507 L2467,2204" stroke="blue" stroke-width="2" />
<path d="M970,908 L2690,2027" stroke="blue" stroke-width="2" />
<path d="M2550,2872 L2083,5993" stroke="blue" stroke-width="2" />
<path d="M1248,6263 L1899,4360" stroke="blue" stroke-width="2" />
<path d="M2574,6138 L190,6917" stroke="blue" stroke-width="2" />
<path d="M1679,2348 L2504,3117" stroke="blue" stroke-width="2" />
<path d="M2737,5626 L2401,7639" stroke="blue" stroke-width="2" />
<path d="M1041,514 L1229,8090" stroke="blue" stroke-width="2" />
<path d="M1190,6836 L1113,7100" stroke="blue" stroke-width="2" />
<path d="M2663,6952 L437,1401" stroke="blue" stroke-width="2" />
<path d="M586,7877 L586,1517" stroke="blue" stroke-width="2" />
<path d="M2482,1561 L1137,7523" stroke="blue" stroke-width="2" />
<path d="M310,8064 L1518,763" stroke="blue" stroke-width="2" />
<path d="M407,3981 L1228,4572" stroke="blue" stroke-width="2" />
<path d="M992,4983 L2033,4983" stroke="blue" stroke-width="2" />
<path d="M2812,1906 L1020,4467" stroke="blue" stroke-width="2" />
<path d="M1341,2033 L936,991" stroke="blue" stroke-width="2" />
<path d="M1519,1897 L451,2907" stroke="blue" stroke-width="2" />
<path d="M926,5033 L2592,6358" stroke="blue" stroke-width="2" />
<path d="M2434,3647 L2257,922" stroke="blue" stroke-width="2" />
<path d="M2457,121 L1297,923" stroke="blue" stroke-width="2" />
<path d="M1351,4117 L1001,7705" stroke="blue" stroke-width="2" />
<path d="M1349,8046 L1059,4533" stroke="blue" stroke-width="2" />
<path d="M1561,7585 L561,1349" stroke="blue" stroke-width="2" />
<path d="M1620,4608 L1457,6450" stroke="blue" stroke-width="2" />
<path d="M517,7692 L1890,1159" stroke="blue" stroke-width="2" />
<path d="M1283,1855 L445,8093" stroke="blue" stroke-width="2" />
<path d="M197,7292 L635,5276" stroke="blue" stroke-width="2" />
<path d="M2304,3466 L2435,519" stroke="blue" stroke-width="2" />
<path d="M1586,4622 L2853,6769" stroke="blue" stroke-width="2" />
<path d="M1242,3838 L233,5678" stroke="blue" stroke-width="2" />
<path d="M1829,4008 L484,1306" stroke="blue" stroke-width="2" />
<path d="M1608,4634 L1442,5433" stroke="blue" stroke-width="2" />
<path d="M2518,4391 L1255,1943" stroke="blue" stroke-width="2" />
<path d="M1280,896 L2432,434" stroke="blue" stroke-width="2" />
<path d="M1691,797 L500,4766" stroke="blue" stroke-width="2" />
<path d="M1815,2317 L2300,1187" stroke="blue" stroke-width="2" />
<path d="M853,131 L964,5978" stroke="blue" stroke-width="2" />
<path d="M42,4248 L578,1279" stroke="blue" stroke-width="2" />
<path d="M669,5380 L2115,7119" stroke="blue" stroke-width="2" />
<path d="M1316,5914 L1675,901" stroke="blue" stroke-width="2" />
<path d="M2104,5565 L734,663" stroke="blue" stroke-width="2" />
<path d="M1384,3792 L829,1934" stroke="blue" stroke-width="2" />
<path d="M722,7668 L2635,4091" stroke="blue" stroke-width="2" />
<path d="M1277,8018 L2011,180" stroke="blue" stroke-width="2" />
<path d="M1174,204 L9,7383" stroke="blue" stroke-width="2" />
<path d="M1860,6072 L1319,7502" stroke="blue" stroke-width="2" />
<path d="M7,7335 L432,2928" stroke="blue" stroke-width="2" />
<path d="M2161,1959 L69,6436" stroke="blue" stroke-width="2" />
<path d="M797,7988 L1295,3711" stroke="blue" stroke-width="2" />
<path d="M1949,5036 L1640,4956" stroke="blue" stroke-width="2" />
<path d="M290,4090 L1706,7795" stroke="blue" stroke-width="2" />
<path d="M1250,7241 L1460,984" stroke="blue" stroke-width="2" />
<path d="M468,4390 L1527,176" stroke="blue" stroke-width="2" />
<path d="M395,2982 L1408,5845" stroke="blue" stroke-width="2" />
<path d="M1114,4412 L1442,283" stroke="blue" stroke-width="2" />
<path d="M1614,7738 L1729,7793" stroke="blue" stroke-width="2" />
<path d="M1763,2994 L1542,7684" stroke="blue" stroke-width="2" />
<path d="M769,334 L750,1414" stroke="blue" stroke-width="2" />
<path d="M873,387 L1670,6976" stroke="blue" stroke-width="2" />
<path d="M2821,2012 L1030,6401" stroke="blue" stroke-width="2" />
<path d="M95,3948 L990,1971" stroke="blue" stroke-width="2" />
<path d="M385,961 L1064,3623" stroke="blue" stroke-width="2" />
<path d="M698,5003 L2710,4512" stroke="blue" stroke-width="2" />
<path d="M404,3764 L1649,5997" stroke="blue" stroke-width="2" />
<path d="M1496,3652 L416,474" stroke="blue" stroke-width="2" />
<path d="M596,2730 L2402,7000" stroke="blue" stroke-width="2" />
<path d="M178,5804 L854,1013" stroke="blue" stroke-width="2" />
<path d="M2843,7757 L1032,7882" stroke="blue" stroke-width="2" />
<path d="M2248,110 L2230,6057" stroke="blue" stroke-width="2" />
<path d="M2656,7416 L2193,3897" stroke="blue" stroke-width="2" />
<path d="M2564,7397 L256,141" stroke="blue" stroke-width="2" />
<path d="M1215,5502 L1128,8101" stroke="blue" stroke-width="2" />
<path d="M901,3269 L1620,2822" stroke="blue" stroke-width="2" />
<path d="M1227,7609 L319,2723" stroke="blue" stroke-width="2" />
<path d="M1607,3245 L1217,2482" stroke="blue" stroke-width="2" />
<path d="M934,3932 L774,4506" stroke="blue" stroke-width="2" />
<path d="M153,3679 L406,5068" stroke="blue" stroke-width="2" />
<path d="M2692,6533 L177,2740" stroke="blue" stroke-width="2" />
<path d="M505,661 L613,166" stroke="blue" stroke-width="2" />
<path d="M1535,3125 L904,6930" stroke="blue" stroke-width="2" />
<path d="M1573,1243 L1513,6681" stroke="blue" stroke-width="2" />
<path d="M2086,5007 L1883,2691" stroke="blue" stroke-width="2" />
<path d="M518,4597 L1490,1751" stroke="blue" stroke-width="2" />
<path d="M329,3973 L1780,3784" stroke="blue" stroke-width="2" />
<path d="M857,5728 L1945,28" stroke="blue" stroke-width="2" />
<path d="M1865,2655 L208,6945" stroke="blue" stroke-width="2" />
<path d="M1016,6310 L1973,7902" stroke="blue" stroke-width="2" />
<path d="M2624,3536 L629,6753" stroke="blue" stroke-width="2" />
<path d="M1791,6020 L86,4168" stroke="blue" stroke-width="2" />
<path d="M1710,2570 L706,2685" stroke="blue" stroke-width="2" />
<path d="M1489,7446 L584,2010" stroke="blue" stroke-width="2" />
<path d="M810,6774 L409,1089" stroke="blue" stroke-width="2" />
<path d="M2749,4942 L2323,5698" stroke="blue" stroke-width="2" />
<path d="M1556,730 L184,3751" stroke="blue" stroke-width="2" />
<path d="M2340,4362 L521,7135" stroke="blue" stroke-width="2" />
<path d="M251,2036 L589,5111" stroke="blue" stroke-width="2" />
<path d="M306,6675 L319,4239" stroke="blue" stroke-width="2" />
<path d="M1519,7477 L363,3757" stroke="blue" stroke-width="2" />
<path d="M2344,989 L2079,7248" stroke="blue" stroke-width="2" />
<path d="M2264,2401 L1873,7523" stroke="blue" stroke-width="2" />
<path d="M1171,2447 L2743,1775" stroke="blue" stroke-width="2" />
<path d="M168,1202 L1053,4844" stroke="blue" stroke-width="2" />
<path d="M769,626 L2863,5184" stroke="blue" stroke-width="2" />
<path d="M816,4543 L2447,505" stroke="blue" stroke-width="2" />
<path d="M1511,2898 L199,2404" stroke="blue" stroke-width="2" />
<path d="M1590,5534 L2843,2962" stroke="blue" stroke-width="2" />
<path d="M429,1658 L555,2421" stroke="blue" stroke-width="2" />
<path d="M2784,6782 L2145,7058" stroke="blue" stroke-width="2" />
<path d="M2805,7268 L2625,7417" stroke="blue" stroke-width="2" />
<path d="M2434,5254 L1639,5227" stroke="blue" stroke-width="2" />
<path d="M2195,7932 L277,4120" stroke="blue" stroke-width="2" />
<path d="M2761,6281 L372,1683" stroke="blue" stroke-width="2" />
<path d="M921,129 L92,3364" stroke="blue" stroke-width="2" />
<path d="M273,2085 L1073,4931" stroke="blue" stroke-width="2" />
<path d="M127,3312 L2656,5466" stroke="blue" stroke-width="2" />
<path d="M34,5189 L146,5218" stroke="blue" stroke-width="2" />
<path d="M1763,7199 L1236,2620" stroke="blue" stroke-width="2" />
<path d="M2637,870 L867,2348" stroke="blue" stroke-width="2" />
<path d="M2457,673 L85,8024" stroke="blue" stroke-width="2" />
<path d="M2321,3652 L1494,5837" stroke="blue" stroke-width="2" />
<path d="M255,2936 L2326,7349" stroke="blue" stroke-width="2" />
<path d="M1826,1484 L170,7184" stroke="blue" stroke-width="2" />
<path d="M2412,1272 L1532,4485" stroke="blue" stroke-width="2" />
<path d="M381,6615 L848,3565" stroke="blue" stroke-width="2" />
<path d="M2590,4299 L2092,2342" stroke="blue" stroke-width="2" />
<path d="M2211,1105 L1267,3651" stroke="blue" stroke-width="2" />
<path d="M1616,791 L268,6580" stroke="blue" stroke-width="2" />
<path d="M808,3022 L486,8115" stroke="blue" stroke-width="2" />
<path d="M2110,1407 L2181,4897" stroke="blue" stroke-width="2" />
<path d="M988,5559 L1467,460" stroke="blue" stroke-width="2" />
<path d="M1283,6587 L1658,2652" stroke="blue" stroke-width="2" />
<path d="M2559,6795 L2346,7866" stroke="blue" stroke-width="2" />
<path d="M1293,6765 L1960,7806" stroke="blue" stroke-width="2" />
<path d="M932,6750 L2294,7814" stroke="blue" stroke-width="2" />
<path d="M866,3694 L1158,6611" stroke="blue" stroke-width="2" />
<path d="M997,100 L421,6796" stroke="blue" stroke-width="2" />
<path d="M1217,5156 L220,2010" stroke="blue" stroke-width="2" />
<path d="M497,3198 L2475,7929" stroke="blue" stroke-width="2" />
<path d="M2231,1412 L290,895" stroke="blue" stroke-width="2" />
<path d="M2343,35 L684,6847" stroke="blue" stroke-width="2" />
<path d="M1384,386 L945,5636" stroke="blue" stroke-width="2" />
<path d="M422,7064 L1329,6580" stroke="blue" stroke-width="2" />
<path d="M699,633 L1052,207" stroke="blue" stroke-width="2" />
<path d="M1529,3993 L1561,4011" stroke="blue" stroke-width="2" />
<path d="M2764,2102 L1999,4685" stroke="blue" stroke-width="2" />
<path d="M1031,5018 L1754,430" stroke="blue" stroke-width="2" />
<path d="M1547,5977 L684,2894" stroke="blue" stroke-width="2" />
<path d="M1871,5711 L1953,2831" stroke="blue" stroke-width="2" />
<path d="M2801,6709 L1718,6301" stroke="blue" stroke-width="2" />
<path d="M775,1741 L1352,4090" stroke="blue" stroke-width="2" />
<path d="M265,3377 L1399,4437" stroke="blue" stroke-width="2" />
<path d="M1431,3416 L567,952" stroke="blue" stroke-width="2" />
<path d="M2285,5223 L376,4169" stroke="blue" stroke-width="2" />
<path d="M89,6719 L758,3504" stroke="blue" stroke-width="2" />
<path d="M240,7607 L2462,1979" stroke="blue" stroke-width="2" />
<path d="M1046,6684 L1356,3645" stroke="blue" stroke-width="2" />
<path d="M2048,5546 L1734,7451" stroke="blue" stroke-width="2" />
<path d="M2339,3489 L2158,2963" stroke="blue" stroke-width="2" />
<path d="M1496,6908 L2590,3640" stroke="blue" stroke-width="2" />
<path d="M384,6148 L1862,4066" stroke="blue" stroke-width="2" />
<path d="M2662,4209 L838,61" stroke="blue" stroke-width="2" />
<path d="M709,6029 L1667,553" stroke="blue" stroke-width="2" />
<path d="M889,3927 L183,4691" stroke="blue" stroke-width="2" />
<path d="M2224,8096 L1174,4358" stroke="blue" stroke-width="2" />
<path d="M1902,1978 L1218,5767" stroke="blue" stroke-width="2" />
<path d="M1094,914 L1795,1923" stroke="blue" stroke-width="2" />
<path d="M2269,7998 L1119,314" stroke="blue" stroke-width="2" />
<path d="M1678,6470 L1832,7898" stroke="blue" stroke-width="2" />
<path d="M115,6182 L2489,5348" stroke="blue" stroke-width="2" />
<path d="M1481,819 L1321,4034" stroke="blue" stroke-width="2" />
<path d="M683,5868 L302,4970" stroke="blue" stroke-width="2" />
<path d="M714,5734 L320,231" stroke="blue" stroke-width="2" />
<path d="M496,8149 L407,2746" stroke="blue" stroke-width="2" />
<path d="M715,7921 L1195,5313" stroke="blue" stroke-width="2" />
<path d="M737,4350 L1822,1997" stroke="blue" stroke-width="2" />
<path d="M55,3661 L2732,5304" stroke="blue" stroke-width="2" />
<path d="M1161,2689 L852,428" stroke="blue" stroke-width="2" />
<path d="M891,6992 L2411,7420" stroke="blue" stroke-width="2" />
<path d="M2750,4970 L1207,2774" stroke="blue" stroke-width="2" />
<path d="M692,3817 L1786,1951" stroke="blue" stroke-width="2" />
<path d="M2397,796 L478,379" stroke="blue" stroke-width="2" />
<path d="M1915,3254 L316,3416" stroke="blue" stroke-width="2" />
<path d="M83,6195 L2158,5873" stroke="blue" stroke-width="2" />
<path d="M1303,1311 L551,7117" stroke="blue" stroke-width="2" />
<path d="M0,0 L2865,0" stroke="red" stroke-width="10" />
<path d="M2865,0 L2865,8151" stroke="red" stroke-width="10" />
<path d="M0,8151 L2865,8151" stroke="red" stroke-width="10" />
<path d="M0,8151 L0,0" stroke="red" stroke-width="10" />
</svg>