<?xml version="1.0" encoding="UTF-8"?>
<svg xmlns="http://www.w3.org/2000/svg" xmlns:xlink="http://www.w3.org/1999/xlink"
     width="10000" height="10000" viewBox="0 0 10000 10000">
<defs>
</defs>
<path d="M8473,166 L6140,1225" stroke="blue" stroke-width="2" />
<path d="M6160,631 L5519,569" stroke="blue" stroke-width="2" />
<path d="M5992,1001 L4877,959" stroke="blue" stroke-width="2" />
<path d="M2488,754 L2623,745" stroke="blue" stroke-width="2" />
<path d="M3020,349 L7595,1030" stroke="blue" stroke-width="2" />
<path d="M3892,630 L1850,651" stroke="blue" stroke-width="2" />
<path d="M2002,855 L8604,690" stroke="blue" stroke-width="2" />
<path d="M7360,658 L5879,592" stroke="blue" stroke-width="2" />
<path d="M6021,159 L4162,999" stroke="blue" stroke-width="2" />
<path d="M7959,184 L3220,597" stroke="blue" stroke-width="2" />
<path d="M1483,342 L3023,625" stroke="blue" stroke-width="2" />
<path d="M2175,794 L987,774" stroke="blue" stroke-width="2" />
<path d="M5382,772 L2619,864" stroke="blue" stroke-width="2" />
<path d="M2404,221 L3388,436" stroke="blue" stroke-width="2" />
<path d="M3089,1063 L6824,600" stroke="blue" stroke-width="2" />
<path d="M5843,981 L7681,51" stroke="blue" stroke-width="2" />
<path d="M4206,844 L6087,429" stroke="blue" stroke-width="2" />
<path d="M4643,424 L5545,965" stroke="blue" stroke-width="2" />
<path d="M3098,376 L6508,975" stroke="blue" stroke-width="2" />
<path d="M3498,967 L571,148" stroke="blue" stroke-width="2" />
<path d="M1071,413 L7032,1072" stroke="blue" stroke-width="2" />
<path d="M3506,273 L1452,804" stroke="blue" stroke-width="2" />
<path d="M6497,628 L7419,569" stroke="blue" stroke-width="2" />
<path d="M3194,372 L1895,962" stroke="blue" stroke-width="2" />
<path d="M5680,261 L5981,273" stroke="blue" stroke-width="2" />
<path d="M927,1070 L6133,348" stroke="blue" stroke-width="2" />
<path d="M4591,366 L4124,1212" stroke="blue" stroke-width="2" />
<path d="M4299,514 L3884,355" stroke="blue" stroke-width="2" />
<path d="M5224,416 L6275,430" stroke="blue" stroke-width="2" />
<path d="M938,380 L5283,599" stroke="blue" stroke-width="2" />
<path d="M7276,1220 L7395,231" stroke="blue" stroke-width="2" />
<path d="M7301,496 L302,640" stroke="blue" stroke-width="2" />
<path d="M5533,219 L5355,1092" stroke="blue" stroke-width="2" />
<path d="M3096,1083 L7714,458" stroke="blue" stroke-width="2" />
<path d="M974,713 L6843,317" stroke="blue" stroke-width="2" />
<path d="M3612,310 L6393,119" stroke="blue" stroke-width="2" />
<path d="M4913,1061 L8129,333" stroke="blue" stroke-width="2" />
<path d="M123,717 L592,462" stroke="blue" stroke-width="2" />
<path d="M7481,982 L6397,56" stroke="blue" stroke-width="2" />
<path d="M7614,1175 L2008,1254" stroke="blue" stroke-width="2" />
<path d="M4489,721 L6621,1169" stroke="blue" stroke-width="2" />
<path d="M6037,911 L8188,846" stroke="blue" stroke-width="2" />
<path d="M6667,809 L925,960" stroke="blue" stroke-width="2" />
<path d="M3813,942 L8481,291" stroke="blue" stroke-width="2" />
<path d="M7156,683 L6732,1120" stroke="blue" stroke-width="2" />
<path d="M3134,333 L3544,876" stroke="blue" stroke-width="2" />
<path d="M7384,910 L1964,926" stroke="blue" stroke-width="2" />
<path d="M1931,957 L1654,427" stroke="blue" stroke-width="2" />
<path d="M4849,448 L1111,1182" stroke="blue" stroke-width="2" />
<path d="M1548,612 L7074,797" stroke="blue" stroke-width="2" />
<path d="M3107,595 L401,188" stroke="blue" stroke-width="2" />
<path d="M7110,1160 L8489,481" stroke="blue" stroke-width="2" />
<path d="M468,153 L2126,767" stroke="blue" stroke-width="2" />
<path d="M4462,978 L904,116" stroke="blue" stroke-width="2" />
<path d="M203,588 L5835,678" stroke="blue" stroke-width="2" />
<path d="M5763,574 L2505,24" stroke="blue" stroke-width="2" />
<path d="M537,709 L627,1006" stroke="blue" stroke-width="2" />
<path d="M7060,1262 L4289,1115" stroke="blue" stroke-width="2" />
<path d="M2726,1106 L4419,210" stroke="blue" stroke-width="2" />
<path d="M8175,738 L7859,467" stroke="blue" stroke-width="2" />
<path d="M943,64 L8362,1079" stroke="blue" stroke-width="2" />
<path d="M1502,942 L5990,669" stroke="blue" stroke-width="2" />
<path d="M772,509 L1369,354" stroke="blue" stroke-width="2" />
<path d="M6955,271 L3524,1054" stroke="blue" stroke-width="2" />
<path d="M5431,190 L7220,691" stroke="blue" stroke-width="2" />
<path d="M891,812 L2261,532" stroke="blue" stroke-width="2" />
<path d="M2575,450 L2063,267" stroke="blue" stroke-width="2" />
<path d="M7962,1204 L2529,1206" stroke="blue" stroke-width="2" />
<path d="M5846,1108 L1915,1188" stroke="blue" stroke-width="2" />
<path d="M5618,43 L8127,837" stroke="blue" stroke-width="2" />
<path d="M4065,846 L801,82" stroke="blue" stroke-width="2" />
<path d="M6422,506 L2003,11" stroke="blue" stroke-width="2" />
<path d="M6223,187 L5752,1006" stroke="blue" stroke-width="2" />
<path d="M7074,780 L762,816" stroke="blue" stroke-width="2" />
<path d="M3023,1143 L3935,300" stroke="blue" stroke-width="2" />
<path d="M7703,37 L1412,841" stroke="blue" stroke-width="2" />
<path d="M4265,1230 L4487,1231" stroke="blue" stroke-width="2" />
<path d="M6800,930 L1697,186" stroke="blue" stroke-width="2" />
<path d="M4545,287 L3752,1234" stroke="blue" stroke-width="2" />
<path d="M6946,604 L8213,1186" stroke="blue" stroke-width="2" />
<path d="M816,932 L6636,10" stroke="blue" stroke-width="2" />
<path d="M7400,257 L5791,948" stroke="blue" stroke-width="2" />
<path d="M2775,143 L1066,220" stroke="blue" stroke-width="2" />
<path d="M6422,595 L950,608" stroke="blue" stroke-width="2" />
<path d="M6727,467 L8080,685" stroke="blue" stroke-width="2" />
<path d="M6153,182 L6484,155" stroke="blue" stroke-width="2" />
<path d="M3664,405 L4382,448" stroke="blue" stroke-width="2" />
<path d="M6513,686 L5843,608" stroke="blue" stroke-width="2" />
<path d="M5473,292 L5363,421" stroke="blue" stroke-width="2" />
<path d="M7928,342 L6242,247" stroke="blue" stroke-width="2" />
<path d="M2260,387 L2225,423" stroke="blue" stroke-width="2" />
<path d="M2466,47 L4154,1246" stroke="blue" stroke-width="2" />
<path d="M7941,259 L6292,665" stroke="blue" stroke-width="2" />
<path d="M2026,599 L4680,606" stroke="blue" stroke-width="2" />
<path d="M7230,257 L6045,438" stroke="blue" stroke-width="2" />
<path d="M4585,79 L863,640" stroke="blue" stroke-width="2" />
<path d="M5592,995 L761,308" stroke="blue" stroke-width="2" />
<path d="M4729,1267 L4014,496" stroke="blue" stroke-width="2" />
<path d="M4888,911 L6582,716" stroke="blue" stroke-width="2" />
<path d="M1103,897 L2116,921" stroke="blue" stroke-width="2" />
<path d="M3104,1173 L3217,320" stroke="blue" stroke-width="2" />
<path d="M6032,904 L732,359" stroke="blue" stroke-width="2" />
<path d="M2892,1165 L7522,57" stroke="blue" stroke-width="2" />
<path d="M4689,1227 L3383,28" stroke="blue" stroke-width="2" />
<path d="M6857,1256 L4795,1152" stroke="blue" stroke-width="2" />
<path d="M5719,95 L6276,79" stroke="blue" stroke-width="2" />
<path d="M5125,355 L7816,1108" stroke="blue" stroke-width="2" />
<path d="M2452,1201 L5385,730" stroke="blue" stroke-width="2" />
<path d="M8638,184 L3265,576" stroke="blue" stroke-width="2" />
<path d="M3830,748 L6416,724" stroke="blue" stroke-width="2" />
<path d="M7951,974 L6536,877" stroke="blue" stroke-width="2" />
<path d="M540,494 L596,481" stroke="blue" stroke-width="2" />
<path d="M2668,763 L4099,1046" stroke="blue" stroke-width="2" />
<path d="M7136,374 L7871,185" stroke="blue" stroke-width="2" />
<path d="M5670,102 L7598,669" stroke="blue" stroke-width="2" />
<path d="M4359,249 L1460,243" stroke="blue" stroke-width="2" />
<path d="M5869,735 L5263,121" stroke="blue" stroke-width="2" />
<path d="M8023,504 L6613,879" stroke="blue" stroke-width="2" />
<path d="M1439,400 L1210,697" stroke="blue" stroke-width="2" />
<path d="M4368,1144 L7696,233" stroke="blue" stroke-width="2" />
<path d="M3809,512 L4096,986" stroke="blue" stroke-width="2" />
<path d="M5669,754 L6294,731" stroke="blue" stroke-width="2" />
<path d="M8506,1055 L2113,886" stroke="blue" stroke-width="2" />
<path d="M7832,73 L7662,566" stroke="blue" stroke-width="2" />
<path d="M3983,132 L832,640" stroke="blue" stroke-width="2" />
<path d="M3111,603 L2383,729" stroke="blue" stroke-width="2" />
<path d="M5515,273 L7279,709" stroke="blue" stroke-width="2" />
<path d="M3746,155 L4641,674" stroke="blue" stroke-width="2" />
<path d="M3661,362 L2660,817" stroke="blue" stroke-width="2" />
<path d="M4380,91 L1531,448" stroke="blue" stroke-width="2" />
<path d="M2049,1243 L51,625" stroke="blue" stroke-width="2" />
<path d="M3212,975 L1042,1170" stroke="blue" stroke-width="2" />
<path d="M3628,200 L6524,533" stroke="blue" stroke-width="2" />
<path d="M3335,102 L4817,1129" stroke="blue" stroke-width="2" />
<path d="M1072,123 L8642,502" stroke="blue" stroke-width="2" />
<path d="M7417,898 L4248,792" stroke="blue" stroke-width="2" />
<path d="M5499,692 L8338,1089" stroke="blue" stroke-width="2" />
<path d="M5831,357 L2386,60" stroke="blue" stroke-width="2" />
<path d="M1378,711 L7712,1197" stroke="blue" stroke-width="2" />
<path d="M5115,1191 L1883,1046" stroke="blue" stroke-width="2" />
<path d="M202,46 L6859,77" stroke="blue" stroke-width="2" />
<path d="M7328,790 L4776,1108" stroke="blue" stroke-width="2" />
<path d="M5706,45 L3379,692" stroke="blue" stroke-width="2" />
<path d="M4590,998 L1542,1164" stroke="blue" stroke-width="2" />
<path d="M1186,695 L530,1159" stroke="blue" stroke-width="2" />
<path d="M716,336 L4529,505" stroke="blue" stroke-width="2" />
<path d="M5812,1100 L2893,584" stroke="blue" stroke-width="2" />
<path d="M5580,1017 L402,127" stroke="blue" stroke-width="2" />
<path d="M3497,128 L5583,98" stroke="blue" stroke-width="2" />
<path d="M4704,903 L657,272" stroke="blue" stroke-width="2" />
<path d="M4820,153 L5273,1100" stroke="blue" stroke-width="2" />
<path d="M2165,274 L6331,1209" stroke="blue" stroke-width="2" />
<path d="M1905,594 L3528,275" stroke="blue" stroke-width="2" />
<path d="M4695,603 L698,1171" stroke="blue" stroke-width="2" />
<path d="M5927,673 L351,997" stroke="blue" stroke-width="2" />
<path d="M7153,1132 L3339,1105" stroke="blue" stroke-width="2" />
<path d="M5418,1018 L4708,542" stroke="blue" stroke-width="2" />
<path d="M7545,194 L5956,640" stroke="blue" stroke-width="2" />
<path d="M516,240 L4160,270" stroke="blue" stroke-width="2" />
<path d="M5262,198 L7260,869" stroke="blue" stroke-width="2" />
<path d="M3208,559 L1827,840" stroke="blue" stroke-width="2" />
<path d="M6081,652 L5150,103" stroke="blue" stroke-width="2" />
<path d="M3607,552 L8301,1089" stroke="blue" stroke-width="2" />
<path d="M6489,24 L8105,593" stroke="blue" stroke-width="2" />
<path d="M7072,565 L8121,59" stroke="blue" stroke-width="2" />
<path d="M1817,592 L8064,1228" stroke="blue" stroke-width="2" />
<path d="M4266,608 L4550,988" stroke="blue" stroke-width="2" />
<path d="M6599,676 L3125,87" stroke="blue" stroke-width="2" />
<path d="M5966,862 L5508,202" stroke="blue" stroke-width="2" />
<path d="M2053,1027 L5079,209" stroke="blue" stroke-width="2" />
<path d="M4279,428 L5182,10" stroke="blue" stroke-width="2" />
<path d="M7913,768 L3861,653" stroke="blue" stroke-width="2" />
<path d="M7225,999 L5662,217" stroke="blue" stroke-width="2" />
<path d="M2190,714 L7851,509" stroke="blue" stroke-width="2" />
<path d="M7810,993 L7937,519" stroke="blue" stroke-width="2" />
<path d="M1302,8 L4601,61" stroke="blue" stroke-width="2" />
<path d="M6628,313 L6705,195" stroke="blue" stroke-width="2" />
<path d="M3913,625 L3117,264" stroke="blue" stroke-width="2" />
<path d="M7901,760 L2396,354" stroke="blue" stroke-width="2" />
<path d="M7226,1190 L2057,378" stroke="blue" stroke-width="2" />
<path d="M6546,326 L6375,1214" stroke="blue" stroke-width="2" />
<path d="M8221,38 L811,6" stroke="blue" stroke-width="2" />
<path d="M1931,422 L2955,15" stroke="blue" stroke-width="2" />
<path d="M3210,586 L8207,414" stroke="blue" stroke-width="2" />
<path d="M8119,238 L1373,404" stroke="blue" stroke-width="2" />
<path d="M8226,1193 L3647,532" stroke="blue" stroke-width="2" />
<path d="M1027,514 L1186,47" stroke="blue" stroke-width="2" />
<path d="M8087,495 L457,737" stroke="blue" stroke-width="2" />
<path d="M6620,65 L5134,207" stroke="blue" stroke-width="2" />
<path d="M5549,1169 L2115,770" stroke="blue" stroke-width="2" />
<path d="M2156,610 L1247,629" stroke="blue" stroke-width="2" />
<path d="M4077,189 L2457,786" stroke="blue" stroke-width="2" />
<path d="M4370,186 L750,1208" stroke="blue" stroke-width="2" />
<path d="M1886,1062 L6020,792" stroke="blue" stroke-width="2" />
<path d="M5193,1134 L2747,587" stroke="blue" stroke-width="2" />
<path d="M2677,384 L7690,1250" stroke="blue" stroke-width="2" />
<path d="M2941,191 L2244,52" stroke="blue" stroke-width="2" />
<path d="M751,1160 L2310,601" stroke="blue" stroke-width="2" />
<path d="M4723,378 L5934,319" stroke="blue" stroke-width="2" />
<path d="M823,137 L1887,784" stroke="blue" stroke-width="2" />
<path d="M3845,701 L3203,864" stroke="blue" stroke-width="2" />
<path d="M7245,440 L3197,184" stroke="blue" stroke-width="2" />
<path d="M6670,926 L1280,24" stroke="blue" stroke-width="2" />
<path d="M8356,523 L8443,413" stroke="blue" stroke-width="2" />
<path d="M3798,286 L2909,532" stroke="blue" stroke-width="2" />
<path d="M2393,351 L5688,660" stroke="blue" stroke-width="2" />
<path d="M2577,1163 L1949,635" stroke="blue" stroke-width="2" />
<path d="M4887,945 L7359,84" stroke="blue" stroke-width="2" />
<path d="M3108,1261 L5268,1246" stroke="blue" stroke-width="2" />
<path d="M3691,687 L4608,465" stroke="blue" stroke-width="2" />
<path d="M7742,257 L3345,574" stroke="blue" stroke-width="2" />
<path d="M894,553 L6372,703" stroke="blue" stroke-width="2" />
<path d="M2062,632 L1908,854" stroke="blue" stroke-width="2" />
<path d="M4856,471 L1848,85" stroke="blue" stroke-width="2" />
<path d="M4461,974 L883,510" stroke="blue" stroke-width="2" />
<path d="M3638,81 L4958,667" stroke="blue" stroke-width="2" />
<path d="M8558,863 L1549,1020" stroke="blue" stroke-width="2" />
<path d="M7748,902 L7143,1097" stroke="blue" stroke-width="2" />
<path d="M6990,893 L6801,567" stroke="blue" stroke-width="2" />
<path d="M5282,275 L536,672" stroke="blue" stroke-width="2" />
<path d="M1257,827 L5179,523" stroke="blue" stroke-width="2" />
<path d="M8304,824 L8089,544" stroke="blue" stroke-width="2" />
<path d="M2024,105 L6092,1027" stroke="blue" stroke-width="2" />
<path d="M4615,1137 L6738,379" stroke="blue" stroke-width="2" />
<path d="M2353,472 L5618,160" stroke="blue" stroke-width="2" />
<path d="M1176,1111 L329,750" stroke="blue" stroke-width="2" />
<path d="M2363,1229 L7406,222" stroke="blue" stroke-width="2" />
<path d="M3437,273 L7375,101" stroke="blue" stroke-width="2" />
<path d="M4215,1149 L2611,219" stroke="blue" stroke-width="2" />
<path d="M2805,210 L4213,163" stroke="blue" stroke-width="2" />
<path d="M8571,992 L2769,1242" stroke="blue" stroke-width="2" />
<path d="M4177,1214 L215,10" stroke="blue" stroke-width="2" />
<path d="M2063,969 L5361,349" stroke="blue" stroke-width="2" />
<path d="M8508,240 L3493,465" stroke="blue" stroke-width="2" />
<path d="M7991,890 L5026,882" stroke="blue" stroke-width="2" />
<path d="M4692,633 L1385,810" stroke="blue" stroke-width="2" />
<path d="M7612,1143 L1469,243" stroke="blue" stroke-width="2" />
<path d="M863,989 L5555,581" stroke="blue" stroke-width="2" />
<path d="M2823,516 L353,603" stroke="blue" stroke-width="2" />
<path d="M2717,8 L5425,284" stroke="blue" stroke-width="2" />
<path d="M3259,397 L4118,1058" stroke="blue" stroke-width="2" />
<path d="M768,672 L2700,18" stroke="blue" stroke-width="2" />
<path d="M100,297 L3700,895" stroke="blue" stroke-width="2" />
<path d="M6412,1095 L575,682" stroke="blue" stroke-width="2" />
<path d="M7681,421 L6892,927" stroke="blue" stroke-width="2" />
<path d="M7990,862 L8305,483" stroke="blue" stroke-width="2" />
<path d="M2863,813 L2677,42" stroke="blue" stroke-width="2" />
<path d="M3779,171 L762,1024" stroke="blue" stroke-width="2" />
<path d="M4241,471 L7699,631" stroke="blue" stroke-width="2" />
<path d="M2183,96 L2107,1086" stroke="blue" stroke-width="2" />
<path d="M3636,56 L1484,127" stroke="blue" stroke-width="2" />
<path d="M4279,637 L4348,1061" stroke="blue" stroke-width="2" />
<path d="M7154,288 L6172,1094" stroke="blue" stroke-width="2" />
<path d="M4483,1120 L2049,225" stroke="blue" stroke-width="2" />
<path d="M3337,317 L1643,902" stroke="blue" stroke-width="2" />
<path d="M2912,458 L4921,1086" stroke="blue" stroke-width="2" />
<path d="M1874,43 L5418,1263" stroke="blue" stroke-width="2" />
<path d="M8138,726 L5512,328" stroke="blue" stroke-width="2" />
<path d="M4789,582 L4281,1242" stroke="blue" stroke-width="2" />
<path d="M4878,1186 L7313,559" stroke="blue" stroke-width="2" />
<path d="M5897,107 L4309,553" stroke="blue" stroke-width="2" />
<path d="M8634,59 L5727,474" stroke="blue" stroke-width="2" />
<path d="M215,109 L2992,190" stroke="blue" stroke-width="2" />
<path d="M6785,494 L1767,235" stroke="blue" stroke-width="2" />
<path d="M4305,666 L7187,1159" stroke="blue" stroke-width="2" />
<path d="M212,566 L103,711" stroke="blue" stroke-width="2" />
<path d="M7868,766 L4949,843" stroke="blue" stroke-width="2" />
<path d="M4245,1081 L6455,845" stroke="blue" stroke-width="2" />
<path d="M2923,51 L5962,1062" stroke="blue" stroke-width="2" />
<path d="M4210,623 L7115,57" stroke="blue" stroke-width="2" />
<path d="M3270,25 L8153,1228" stroke="blue" stroke-width="2" />
<path d="M6050,486 L1388,434" stroke="blue" stroke-width="2" />
<path d="M7359,10 L7907,262" stroke="blue" stroke-width="2" />
<path d="M869,287 L5256,474" stroke="blue" stroke-width="2" />
<path d="M6477,893 L5272,566" stroke="blue" stroke-width="2" />
<path d="M5838,1052 L5595,1039" stroke="blue" stroke-width="2" />
<path d="M6241,583 L578,965" stroke="blue" stroke-width="2" />
<path d="M65,835 L3575,743" stroke="blue" stroke-width="2" />
<path d="M336,337 L8666,446" stroke="blue" stroke-width="2" />
<path d="M5017,746 L3969,63" stroke="blue" stroke-width="2" />
<path d="M218,1180 L8443,899" stroke="blue" stroke-width="2" />
<path d="M3387,53 L3783,841" stroke="blue" stroke-width="2" />
<path d="M5005,235 L5173,445" stroke="blue" stroke-width="2" />
<path d="M4542,862 L4673,421" stroke="blue" stroke-width="2" />
<path d="M7237,327 L1286,1199" stroke="blue" stroke-width="2" />
<path d="M6821,1157 L4046,43" stroke="blue" stroke-width="2" />
<path d="M6795,1152 L8664,1249" stroke="blue" stroke-width="2" />
<path d="M3716,458 L7147,692" stroke="blue" stroke-width="2" />
<path d="M4063,649 L3925,844" stroke="blue" stroke-width="2" />
<path d="M2591,313 L6039,1108" stroke="blue" stroke-width="2" />
<path d="M5404,15 L7844,341" stroke="blue" stroke-width="2" />
<path d="M4552,946 L1933,1237" stroke="blue" stroke-width="2" />
<path d="M2804,508 L7488,470" stroke="blue" stroke-width="2" />
<path d="M5694,1133 L4771,990" stroke="blue" stroke-width="2" />
<path d="M7137,302 L8284,799" stroke="blue" stroke-width="2" />
<path d="M6408,1097 L8027,934" stroke="blue" stroke-width="2" />
<path d="M4026,71 L3912,486" stroke="blue" stroke-width="2" />
<path d="M6732,345 L3127,784" stroke="blue" stroke-width="2" />
<path d="M4774,90 L87,1252" stroke="blue" stroke-width="2" />
<path d="M8222,469 L1540,219" stroke="blue" stroke-width="2" />
<path d="M6896,998 L2805,30" stroke="blue" stroke-width="2" />
<path d="M2320,551 L1621,284" stroke="blue" stroke-width="2" />
<path d="M2386,265 L5364,607" stroke="blue" stroke-width="2" />
<path d="M3332,1134 L2062,919" stroke="blue" stroke-width="2" />
<path d="M2240,1197 L1233,1154" stroke="blue" stroke-width="2" />
<path d="M8092,524 L1345,994" stroke="blue" stroke-width="2" />
<path d="M4353,1036 L5401,154" stroke="blue" stroke-width="2" />
<path d="M5744,1157 L4814,576" stroke="blue" stroke-width="2" />
<path d="M7997,682 L7483,606" stroke="blue" stroke-width="2" />
<path d="M5812,560 L7556,996" stroke="blue" stroke-width="2" />
<path d="M2043,1250 L7045,895" stroke="blue" stroke-width="2" />
<path d="M2191,379 L7407,367" stroke="blue" stroke-width="2" />
<path d="M3534,474 L2588,932" stroke="blue" stroke-width="2" />
<path d="M8659,1258 L1533,783" stroke="blue" stroke-width="2" />
<path d="M4863,179 L520,958" stroke="blue" stroke-width="2" />
<path d="M4811,806 L1076,45" stroke="blue" stroke-width="2" />
<path d="M3273,1204 L558,704" stroke="blue" stroke-width="2" />
<path d="M7673,402 L1526,249" stroke="blue" stroke-width="2" />
<path d="M7598,246 L6127,10" stroke="blue" stroke-width="2" />
<path d="M3474,590 L7398,294" stroke="blue" stroke-width="2" />
<path d="M4714,349 L6056,509" stroke="blue" stroke-width="2" />
<path d="M1063,935 L2148,809" stroke="blue" stroke-width="2" />
<path d="M6149,593 L4846,56" stroke="blue" stroke-width="2" />
<path d="M7601,338 L2631,307" stroke="blue" stroke-width="2" />
<path d="M4326,337 L74,589" stroke="blue" stroke-width="2" />
<path d="M2751,351 L8190,619" stroke="blue" stroke-width="2" />
<path d="M7692,928 L3643,1175" stroke="blue" stroke-width="2" />
<path d="M1523,167 L4804,179" stroke="blue" stroke-width="2" />
<path d="M5299,405 L8509,823" stroke="blue" stroke-width="2" />
<path d="M345,692 L2675,0" stroke="blue" stroke-width="2" />
<path d="M2824,548 L7236,1055" stroke="blue" stroke-width="2" />
<path d="M5242,1227 L7659,488" stroke="blue" stroke-width="2" />
<path d="M7786,333 L232,1056" stroke="blue" stroke-width="2" />
<path d="M2818,667 L3630,933" stroke="blue" stroke-width="2" />
<path d="M3302,1118 L2880,422" stroke="blue" stroke-width="2" />
<path d="M2677,919 L6016,371" stroke="blue" stroke-width="2" />
<path d="M5629,290 L750,132" stroke="blue" stroke-width="2" />
<path d="M4917,311 L3022,1026" stroke="blue" stroke-width="2" />
<path d="M6118,181 L3345,1056" stroke="blue" stroke-width="2" />
<path d="M1759,504 L4228,247" stroke="blue" stroke-width="2" />
<path d="M4977,1058 L6833,1165" stroke="blue" stroke-width="2" />
<path d="M203,1077 L3545,491" stroke="blue" stroke-width="2" />
<path d="M5806,1227 L3695,853" stroke="blue" stroke-width="2" />
<path d="M6458,76 L2795,376" stroke="blue" stroke-width="2" />
<path d="M1850,327 L3297,62" stroke="blue" stroke-width="2" />
<path d="M1962,471 L6443,3" stroke="blue" stroke-width="2" />
<path d="M8453,893 L665,660" stroke="blue" stroke-width="2" />
<path d="M1493,1063 L5496,327" stroke="blue" stroke-width="2" />
<path d="M634,949 L7760,732" stroke="blue" stroke-width="2" />
<path d="M2236,235 L1255,944" stroke="blue" stroke-width="2" />
<path d="M673,333 L1565,750" stroke="blue" stroke-width="2" />
<path d="M5121,573 L8258,707" stroke="blue" stroke-width="2" />
<path d="M4896,151 L7512,1177" stroke="blue" stroke-width="2" />
<path d="M7211,852 L1524,60" stroke="blue" stroke-width="2" />
<path d="M3229,1061 L1576,734" stroke="blue" stroke-width="2" />
<path d="M7252,1134 L2321,70" stroke="blue" stroke-width="2" />
<path d="M3482,550 L3691,728" stroke="blue" stroke-width="2" />
<path d="M3089,993 L3585,897" stroke="blue" stroke-width="2" />
<path d="M4392,318 L5527,526" stroke="blue" stroke-width="2" />
<path d="M3304,618 L7368,596" stroke="blue" stroke-width="2" />
<path d="M6313,932 L3979,705" stroke="blue" stroke-width="2" />
<path d="M6061,1256 L8412,579" stroke="blue" stroke-width="2" />
<path d="M6212,311 L673,431" stroke="blue" stroke-width="2" />
<path d="M4685,247 L7317,551" stroke="blue" stroke-width="2" />
<path d="M5448,618 L1160,1045" stroke="blue" stroke-width="2" />
<path d="M4851,309 L926,1032" stroke="blue" stroke-width="2" />
<path d="M3583,805 L2866,608" stroke="blue" stroke-width="2" />
<path d="M2561,202 L4393,197" stroke="blue" stroke-width="2" />
<path d="M4768,189 L342,507" stroke="blue" stroke-width="2" />
<path d="M8134,247 L7306,52" stroke="blue" stroke-width="2" />
<path d="M4285,127 L6971,49" stroke="blue" stroke-width="2" />
<path d="M4945,1097 L2616,891" stroke="blue" stroke-width="2" />
<path d="M3257,135 L6934,186" stroke="blue" stroke-width="2" />
<path d="M3765,450 L3321,882" stroke="blue" stroke-width="2" />
<path d="M8351,477 L4445,451" stroke="blue" stroke-width="2" />
<path d="M8277,925 L7086,720" stroke="blue" stroke-width="2" />
<path d="M5516,889 L3063,394" stroke="blue" stroke-width="2" />
<path d="M3279,596 L1186,771" stroke="blue" stroke-width="2" />
<path d="M2819,330 L1777,1266" stroke="blue" stroke-width="2" />
<path d="M5798,512 L1548,883" stroke="blue" stroke-width="2" />
<path d="M3499,683 L8429,1040" stroke="blue" stroke-width="2" />
<path d="M4619,3 L6613,572" stroke="blue" stroke-width="2" />
<path d="M5750,267 L4404,174" stroke="blue" stroke-width="2" />
<path d="M5235,1078 L7745,1023" stroke="blue" stroke-width="2" />
<path d="M3190,1222 L1023,636" stroke="blue" stroke-width="2" />
<path d="M2214,914 L8551,953" stroke="blue" stroke-width="2" />
<path d="M3370,922 L1860,12" stroke="blue" stroke-width="2" />
<path d="M2659,126 L1256,1034" stroke="blue" stroke-width="2" />
<path d="M5754,1161 L4623,465" stroke="blue" stroke-width="2" />
<path d="M7299,1030 L280,866" stroke="blue" stroke-width="2" />
<path d="M1212,601 L5353,77" stroke="blue" stroke-width="2" />
<path d="M562,52 L6375,701" stroke="blue" stroke-width="2" />
<path d="M6471,330 L6302,1086" stroke="blue" stroke-width="2" />
<path d="M3434,404 L48,337" stroke="blue" stroke-width="2" />
<path d="M6563,331 L5076,292" stroke="blue" stroke-width="2" />
<path d="M3150,1076 L42,625" stroke="blue" stroke-width="2" />
<path d="M8523,366 L364,552" stroke="blue" stroke-width="2" />
<path d="M7766,203 L2255,356" stroke="blue" stroke-width="2" />
<path d="M5991,193 L2398,325" stroke="blue" stroke-width="2" />
<path d="M7376,1197 L111,1044" stroke="blue" stroke-width="2" />
<path d="M1205,777 L3569,865" stroke="blue" stroke-width="2" />
<path d="M7721,175 L5478,141" stroke="blue" stroke-width="2" />
<path d="M1644,426 L4550,975" stroke="blue" stroke-width="2" />
<path d="M5290,1158 L7643,576" stroke="blue" stroke-width="2" />
<path d="M4051,417 L1644,278" stroke="blue" stroke-width="2" />
<path d="M7471,248 L6968,1244" stroke="blue" stroke-width="2" />
<path d="M4683,893 L4805,105" stroke="blue" stroke-width="2" />
<path d="M3800,1250 L4358,482" stroke="blue" stroke-width="2" />
<path d="M3836,954 L4759,447" stroke="blue" stroke-width="2" />
<path d="M6758,896 L3198,667" stroke="blue" stroke-width="2" />
<path d="M4579,656 L2097,195" stroke="blue" stroke-width="2" />
<path d="M8511,1135 L2915,410" stroke="blue" stroke-width="2" />
<path d="M3871,1141 L2888,939" stroke="blue" stroke-width="2" />
<path d="M2338,610 L7803,276" stroke="blue" stroke-width="2" />
<path d="M2897,1249 L1460,124" stroke="blue" stroke-width="2" />
<path d="M3148,422 L5588,466" stroke="blue" stroke-width="2" />
<path d="M4174,964 L502,1206" stroke="blue" stroke-width="2" />
<path d="M3436,201 L4542,480" stroke="blue" stroke-width="2" />
<path d="M1627,312 L8655,227" stroke="blue" stroke-width="2" />
<path d="M5638,328 L6684,711" stroke="blue" stroke-width="2" />
<path d="M7972,21 L4575,1072" stroke="blue" stroke-width="2" />
<path d="M1653,21 L2311,1117" stroke="blue" stroke-width="2" />
<path d="M808,925 L5619,1086" stroke="blue" stroke-width="2" />
<path d="M1940,672 L4308,999" stroke="blue" stroke-width="2" />
<path d="M5399,264 L8111,292" stroke="blue" stroke-width="2" />
<path d="M8082,699 L305,718" stroke="blue" stroke-width="2" />
<path d="M8021,917 L1997,726" stroke="blue" stroke-width="2" />
<path d="M2546,169 L1136,7" stroke="blue" stroke-width="2" />
<path d="M5000,307 L6266,398" stroke="blue" stroke-width="2" />
<path d="M3663,731 L7684,937" stroke="blue" stroke-width="2" />
<path d="M5415,830 L4790,1080" stroke="blue" stroke-width="2" />
<path d="M7802,491 L581,374" stroke="blue" stroke-width="2" />
<path d="M7836,417 L1770,1201" stroke="blue" stroke-width="2" />
<path d="M8393,248 L8171,1004" stroke="blue" stroke-width="2" />
<path d="M6094,974 L5175,449" stroke="blue" stroke-width="2" />
<path d="M1375,551 L6150,795" stroke="blue" stroke-width="2" />
<path d="M4109,343 L8274,982" stroke="blue" stroke-width="2" />
<path d="M3064,1220 L1250,1258" stroke="blue" stroke-width="2" />
<path d="M5874,414 L2930,206" stroke="blue" stroke-width="2" />
<path d="M7624,961 L4099,954" stroke="blue" stroke-width="2" />
<path d="M4509,321 L3664,447" stroke="blue" stroke-width="2" />
<path d="M4428,150 L5422,988" stroke="blue" stroke-width="2" />
<path d="M3321,993 L4245,1124" stroke="blue" stroke-width="2" />
<path d="M780,1151 L5341,1144" stroke="blue" stroke-width="2" />
<path d="M209,177 L5211,255" stroke="blue" stroke-width="2" />
<path d="M6050,955 L2139,711" stroke="blue" stroke-width="2" />
<path d="M6097,411 L398,1205" stroke="blue" stroke-width="2" />
<path d="M3263,819 L2087,133" stroke="blue" stroke-width="2" />
<path d="M1544,1033 L2533,373" stroke="blue" stroke-width="2" />
<path d="M1191,979 L7536,1118" stroke="blue" stroke-width="2" />
<path d="M2284,870 L1731,918" stroke="blue" stroke-width="2" />
<path d="M6042,422 L3904,625" stroke="blue" stroke-width="2" />
<path d="M4875,824 L5370,425" stroke="blue" stroke-width="2" />
<path d="M204,997 L3008,816" stroke="blue" stroke-width="2" />
<path d="M6290,746 L139,11" stroke="blue" stroke-width="2" />
<path d="M5563,970 L212,417" stroke="blue" stroke-width="2" />
<path d="M4333,470 L5072,473" stroke="blue" stroke-width="2" />
<path d="M678,1264 L6277,16" stroke="blue" stroke-width="2" />
<path d="M2128,872 L6283,882" stroke="blue" stroke-width="2" />
<path d="M1310,33 L8560,172" stroke="blue" stroke-width="2" />
<path d="M4486,1170 L8655,946" stroke="blue" stroke-width="2" />
<path d="M8669,314 L7723,876" stroke="blue" stroke-width="2" />
<path d="M7300,146 L5055,1042" stroke="blue" stroke-width="2" />
<path d="M3898,702 L5189,766" stroke="blue" stroke-width="2" />
<path d="M6692,923 L8363,957" stroke="blue" stroke-width="2" />
<path d="M6753,1089 L2521,290" stroke="blue" stroke-width="2" />
<path d="M970,473 L710,293" stroke="blue" stroke-width="2" />
<path d="M3685,1106 L4053,729" stroke="blue" stroke-width="2" />
<path d="M2148,173 L6578,571" stroke="blue" stroke-width="2" />
<path d="M2138,478 L6488,1070" stroke="blue" stroke-width="2" />
<path d="M5184,2 L5238,1109" stroke="blue" stroke-width="2" />
<path d="M2212,510 L4353,532" stroke="blue" stroke-width="2" />
<path d="M7780,84 L4501,602" stroke="blue" stroke-width="2" />
<path d="M7907,945 L2915,1040" stroke="blue" stroke-width="2" />
<path d="M6065,297 L749,430" stroke="blue" stroke-width="2" />
<path d="M810,407 L3440,228" stroke="blue" stroke-width="2" />
<path d="M6931,444 L5898,406" stroke="blue" stroke-width="2" />
<path d="M7527,1190 L6826,213" stroke="blue" stroke-width="2" />
<path d="M7265,598 L8632,300" stroke="blue" stroke-width="2" />
<path d="M3484,756 L5434,1227" stroke="blue" stroke-width="2" />
<path d="M71,650 L2465,227" stroke="blue" stroke-width="2" />
<path d="M7847,405 L6657,150" stroke="blue" stroke-width="2" />
<path d="M6796,996 L7843,840" stroke="blue" stroke-width="2" />
<path d="M5282,807 L2583,370" stroke="blue" stroke-width="2" />
<path d="M6770,460 L5342,103" stroke="blue" stroke-width="2" />
<path d="M4291,1208 L887,996" stroke="blue" stroke-width="2" />
<path d="M6058,401 L2166,417" stroke="blue" stroke-width="2" />
<path d="M8508,493 L5570,417" stroke="blue" stroke-width="2" />
<path d="M4061,1084 L7671,79" stroke="blue" stroke-width="2" />
<path d="M8239,5 L1897,895" stroke="blue" stroke-width="2" />
<path d="M6672,792 L5153,844" stroke="blue" stroke-width="2" />
<path d="M8638,1259 L1819,282" stroke="blue" stroke-width="2" />
<path d="M6100,757 L2403,177" stroke="blue" stroke-width="2" />
<path d="M2184,879 L1262,115" stroke="blue" stroke-width="2" />
<path d="M2320,1057 L1226,621" stroke="blue" stroke-width="2" />
<path d="M4571,48 L4340,1009" stroke="blue" stroke-width="2" />
<path d="M5539,316 L1744,947" stroke="blue" stroke-width="2" />
<path d="M5777,577 L7347,519" stroke="blue" stroke-width="2" />
<path d="M5533,49 L1762,78" stroke="blue" stroke-width="2" />
<path d="M5676,299 L8028,320" stroke="blue" stroke-width="2" />
<path d="M4301,853 L832,825" stroke="blue" stroke-width="2" />
<path d="M2874,914 L2456,481" stroke="blue" stroke-width="2" />
<path d="M896,1102 L5909,974" stroke="blue" stroke-width="2" />
<path d="M5728,754 L6754,977" stroke="blue" stroke-width="2" />
<path d="M8317,135 L1145,938" stroke="blue" stroke-width="2" />
<path d="M7574,324 L3357,1035" stroke="blue" stroke-width="2" />
<path d="M7638,652 L6802,907" stroke="blue" stroke-width="2" />
<path d="M5827,222 L6304,566" stroke="blue" stroke-width="2" />
<path d="M8306,268 L3349,275" stroke="blue" stroke-width="2" />
<path d="M6266,426 L7930,372" stroke="blue" stroke-width="2" />
<path d="M2665,46 L1801,760" stroke="blue" stroke-width="2" />
<path d="M6281,271 L7079,43" stroke="blue" stroke-width="2" />
<path d="M3797,633 L1900,353" stroke="blue" stroke-width="2" />
<path d="M5514,264 L4508,895" stroke="blue" stroke-width="2" />
<path d="M6511,490 L2597,1030" stroke="blue" stroke-width="2" />
<path d="M1926,597 L5499,73" stroke="blue" stroke-width="2" />
<path d="M1299,1000 L3282,750" stroke="blue" stroke-width="2" />
<path d="M2370,876 L5382,878" stroke="blue" stroke-width="2" />
<path d="M5250,113 L7684,710" stroke="blue" stroke-width="2" />
<path d="M3539,726 L1411,425" stroke="blue" stroke-width="2" />
<path d="M6283,879 L8473,808" stroke="blue" stroke-width="2" />
<path d="M3788,640 L2626,34" stroke="blue" stroke-width="2" />
<path d="M1064,616 L3634,250" stroke="blue" stroke-width="2" />
<path d="M3077,927 L3088,1070" stroke="blue" stroke-width="2" />
<path d="M1162,262 L3088,615" stroke="blue" stroke-width="2" />
<path d="M3218,345 L2249,535" stroke="blue" stroke-width="2" />
<path d="M699,173 L8106,966" stroke="blue" stroke-width="2" />
<path d="M2015,314 L6274,296" stroke="blue" stroke-width="2" />
<path d="M2242,411 L2970,922" stroke="blue" stroke-width="2" />
<path d="M5128,274 L1610,1093" stroke="blue" stroke-width="2" />
<path d="M6425,264 L3999,495" stroke="blue" stroke-width="2" />
<path d="M6955,330 L1478,388" stroke="blue" stroke-width="2" />
<path d="M6971,468 L7890,451" stroke="blue" stroke-width="2" />
<path d="M8158,898 L2788,11" stroke="blue" stroke-width="2" />
<path d="M7856,652 L13,239" stroke="blue" stroke-width="2" />
<path d="M1571,624 L7160,646" stroke="blue" stroke-width="2" />
<path d="M4374,818 L561,992" stroke="blue" stroke-width="2" />
<path d="M667,406 L1756,538" stroke="blue" stroke-width="2" />
<path d="M3987,1060 L4038,816" stroke="blue" stroke-width="2" />
<path d="M5642,538 L4250,686" stroke="blue" stroke-width="2" />
<path d="M3081,892 L5659,626" stroke="blue" stroke-width="2" />
<path d="M7057,208 L4338,201" stroke="blue" stroke-width="2" />
<path d="M6178,928 L1581,1067" stroke="blue" stroke-width="2" />
<path d="M1961,815 L7090,957" stroke="blue" stroke-width="2" />
<path d="M2668,850 L3203,1032" stroke="blue" stroke-width="2" />
<path d="M4581,201 L6785,366" stroke="blue" stroke-width="2" />
<path d="M3942,108 L7694,721" stroke="blue" stroke-width="2" />
<path d="M482,945 L49,349" stroke="blue" stroke-width="2" />
<path d="M3756,4 L3056,1149" stroke="blue" stroke-width="2" />
<path d="M5384,135 L5184,666" stroke="blue" stroke-width="2" />
<path d="M623,270 L331,1176" stroke="blue" stroke-width="2" />
<path d="M8251,244 L5218,1096" stroke="blue" stroke-width="2" />
<path d="M7547,931 L5670,689" stroke="blue" stroke-width="2" />
<path d="M756,357 L7875,954" stroke="blue" stroke-width="2" />
<path d="M411,626 L7482,900" stroke="blue" stroke-width="2" />
<path d="M7438,642 L7648,193" stroke="blue" stroke-width="2" />
<path d="M7004,1195 L3534,1262" stroke="blue" stroke-width="2" />
<path d="M16,453 L8533,255" stroke="blue" stroke-width="2" />
<path d="M5275,1205 L7853,948" stroke="blue" stroke-width="2" />
<path d="M4614,636 L5681,147" stroke="blue" stroke-width="2" />
<path d="M1574,541 L945,840" stroke="blue" stroke-width="2" />
<path d="M103,239 L7014,478" stroke="blue" stroke-width="2" />
<path d="M2645,102 L3482,853" stroke="blue" stroke-width="2" />
<path d="M5576,127 L8618,552" stroke="blue" stroke-width="2" />
<path d="M1185,1021 L5370,179" stroke="blue" stroke-width="2" />
<path d="M2429,1151 L1104,825" stroke="blue" stroke-width="2" />
<path d="M8386,570 L6813,679" stroke="blue" stroke-width="2" />
<path d="M6186,1192 L7886,366" stroke="blue" stroke-width="2" />
<path d="M321,1133 L5211,1080" stroke="blue" stroke-width="2" />
<path d="M7388,829 L5143,1115" stroke="blue" stroke-width="2" />
<path d="M4980,1220 L6453,1159" stroke="blue" stroke-width="2" />
<path d="M7784,249 L6607,422" stroke="blue" stroke-width="2" />
<path d="M1006,562 L2178,1081" stroke="blue" stroke-width="2" />
<path d="M5702,1020 L3678,747" stroke="blue" stroke-width="2" />
<path d="M1609,667 L1162,155" stroke="blue" stroke-width="2" />
<path d="M5618,444 L141,978" stroke="blue" stroke-width="2" />
<path d="M2878,1062 L2437,1199" stroke="blue" stroke-width="2" />
<path d="M3209,396 L4293,926" stroke="blue" stroke-width="2" />
<path d="M2613,980 L2241,170" stroke="blue" stroke-width="2" />
<path d="M6067,913 L1831,154" stroke="blue" stroke-width="2" />
<path d="M1501,231 L1088,315" stroke="blue" stroke-width="2" />
<path d="M6603,583 L8155,284" stroke="blue" stroke-width="2" />
<path d="M1479,341 L1760,139" stroke="blue" stroke-width="2" />
<path d="M3542,843 L6085,68" stroke="blue" stroke-width="2" />
<path d="M4259,94 L3045,559" stroke="blue" stroke-width="2" />
<path d="M7270,786 L7519,907" stroke="blue" stroke-width="2" />
<path d="M2842,381 L5753,182" stroke="blue" stroke-width="2" />
<path d="M0,0 L8680,0" stroke="red" stroke-width="10" />
<path d="M8680,0 L8680,1269" stroke="red" stroke-width="10" />
<path d="M0,1269 L8680,1269" stroke="red" stroke-width="10" />
<path d="M0,1269 L0,0" stroke="red" stroke-width="10" />
</svg>