<?xml version="1.0" encoding="UTF-8"?>
<svg xmlns="http://www.w3.org/2000/svg" xmlns:xlink="http://www.w3.org/1999/xlink"
     width="10000" height="10000" viewBox="0 0 10000 10000">
<defs>
</defs>
<path d="M1226,897 L42,1133" stroke="blue" stroke-width="2" />
<path d="M461,1412 L203,34" stroke="blue" stroke-width="2" />
<path d="M213,386 L238,1330" stroke="blue" stroke-width="2" />
<path d="M890,163 L147,855" stroke="blue" stroke-width="2" />
<path d="M478,505 L23,1719" stroke="blue" stroke-width="2" />
<path d="M1117,467 L1332,903" stroke="blue" stroke-width="2" />
<path d="M356,199 L540,250" stroke="blue" stroke-width="2" />
<path d="M668,1633 L1349,1736" stroke="blue" stroke-width="2" />
<path d="M1326,1839 L896,238" stroke="blue" stroke-width="2" />
<path d="M767,1177 L656,436" stroke="blue" stroke-width="2" />
<path d="M655,16 L983,325" stroke="blue" stroke-width="2" />
<path d="M1153,707 L807,904" stroke="blue" stroke-width="2" />
<path d="M882,444 L328,957" stroke="blue" stroke-width="2" />
<path d="M170,1792 L1096,243" stroke="blue" stroke-width="2" />
<path d="M909,268 L469,980" stroke="blue" stroke-width="2" />
<path d="M604,1068 L1205,551" stroke="blue" stroke-width="2" />
<path d="M1251,1161 L364,1781" stroke="blue" stroke-width="2" />
<path d="M583,309 L327,972" stroke="blue" stroke-width="2" />
<path d="M718,418 L54,1026" stroke="blue" stroke-width="2" />
<path d="M279,137 L581,1082" stroke="blue" stroke-width="2" />
<path d="M883,353 L543,1604" stroke="blue" stroke-width="2" />
<path d="M397,467 L830,1795" stroke="blue" stroke-width="2" />
<path d="M828,258 L1264,291" stroke="blue" stroke-width="2" />
<path d="M1278,1696 L169,81" stroke="blue" stroke-width="2" />
<path d="M1271,403 L1231,738" stroke="blue" stroke-width="2" />
<path d="M326,449 L1345,641" stroke="blue" stroke-width="2" />
<path d="M544,169 L1096,273" stroke="blue" stroke-width="2" />
<path d="M242,221 L542,133" stroke="blue" stroke-width="2" />
<path d="M436,625 L843,1360" stroke="blue" stroke-width="2" />
<path d="M1226,1416 L1125,1922" stroke="blue" stroke-width="2" />
<path d="M1092,1723 L96,1371" stroke="blue" stroke-width="2" />
<path d="M802,1314 L1257,1302" stroke="blue" stroke-width="2" />
<path d="M961,873 L520,871" stroke="blue" stroke-width="2" />
<path d="M710,107 L1287,392" stroke="blue" stroke-width="2" />
<path d="M105,98 L1142,280" stroke="blue" stroke-width="2" />
<path d="M1194,943 L1064,1923" stroke="blue" stroke-width="2" />
<path d="M472,1653 L911,406" stroke="blue" stroke-width="2" />
<path d="M1167,117 L306,1859" stroke="blue" stroke-width="2" />
<path d="M816,833 L1242,367" stroke="blue" stroke-width="2" />
<path d="M1053,1389 L1315,1517" stroke="blue" stroke-width="2" />
<path d="M1066,782 L82,1806" stroke="blue" stroke-width="2" />
<path d="M555,1372 L453,900" stroke="blue" stroke-width="2" />
<path d="M327,1082 L968,117" stroke="blue" stroke-width="2" />
<path d="M1,383 L82,569" stroke="blue" stroke-width="2" />
<path d="M352,1093 L1115,987" stroke="blue" stroke-width="2" />
<path d="M189,1190 L230,1742" stroke="blue" stroke-width="2" />
<path d="M1334,1181 L284,726" stroke="blue" stroke-width="2" />
<path d="M676,1421 L383,751" stroke="blue" stroke-width="2" />
<path d="M1401,590 L630,797" stroke="blue" stroke-width="2" />
<path d="M932,1186 L1144,1085" stroke="blue" stroke-width="2" />
<path d="M127,1114 L60,1129" stroke="blue" stroke-width="2" />
<path d="M54,297 L401,335" stroke="blue" stroke-width="2" />
<path d="M259,1727 L1117,124" stroke="blue" stroke-width="2" />
<path d="M775,859 L909,270" stroke="blue" stroke-width="2" />
<path d="M1308,841 L563,1941" stroke="blue" stroke-width="2" />
<path d="M1017,1138 L484,1032" stroke="blue" stroke-width="2" />
<path d="M654,1327 L720,1874" stroke="blue" stroke-width="2" />
<path d="M825,951 L1114,1836" stroke="blue" stroke-width="2" />
<path d="M1211,1238 L776,66" stroke="blue" stroke-width="2" />
<path d="M1106,916 L1227,721" stroke="blue" stroke-width="2" />
<path d="M1286,1227 L849,1596" stroke="blue" stroke-width="2" />
<path d="M340,443 L616,1686" stroke="blue" stroke-width="2" />
<path d="M159,1312 L1395,375" stroke="blue" stroke-width="2" />
<path d="M745,195 L192,1447" stroke="blue" stroke-width="2" />
<path d="M1387,538 L455,1759" stroke="blue" stroke-width="2" />
<path d="M1125,1627 L635,1751" stroke="blue" stroke-width="2" />
<path d="M224,231 L793,453" stroke="blue" stroke-width="2" />
<path d="M650,1386 L9,1039" stroke="blue" stroke-width="2" />
<path d="M299,1612 L1096,944" stroke="blue" stroke-width="2" />
<path d="M1163,86 L579,191" stroke="blue" stroke-width="2" />
<path d="M8,1814 L882,602" stroke="blue" stroke-width="2" />
<path d="M784,157 L942,1108" stroke="blue" stroke-width="2" />
<path d="M1383,1696 L132,204" stroke="blue" stroke-width="2" />
<path d="M885,1853 L1215,259" stroke="blue" stroke-width="2" />
<path d="M1064,1294 L319,869" stroke="blue" stroke-width="2" />
<path d="M1048,881 L1298,45" stroke="blue" stroke-width="2" />
<path d="M482,1282 L135,7" stroke="blue" stroke-width="2" />
<path d="M537,996 L200,70" stroke="blue" stroke-width="2" />
<path d="M408,1724 L481,1582" stroke="blue" stroke-width="2" />
<path d="M497,508 L1125,1398" stroke="blue" stroke-width="2" />
<path d="M1407,1255 L788,1442" stroke="blue" stroke-width="2" />
<path d="M1056,1376 L206,861" stroke="blue" stroke-width="2" />
<path d="M369,1072 L1185,569" stroke="blue" stroke-width="2" />
<path d="M355,751 L613,1790" stroke="blue" stroke-width="2" />
<path d="M1193,1067 L966,746" stroke="blue" stroke-width="2" />
<path d="M1331,810 L473,797" stroke="blue" stroke-width="2" />
<path d="M308,1681 L787,63" stroke="blue" stroke-width="2" />
<path d="M120,1299 L383,993" stroke="blue" stroke-width="2" />
<path d="M688,1938 L1382,651" stroke="blue" stroke-width="2" />
<path d="M1173,1166 L998,1251" stroke="blue" stroke-width="2" />
<path d="M1232,1383 L222,761" stroke="blue" stroke-width="2" />
<path d="M1124,1737 L923,1296" stroke="blue" stroke-width="2" />
<path d="M456,817 L1218,1741" stroke="blue" stroke-width="2" />
<path d="M658,1462 L596,1535" stroke="blue" stroke-width="2" />
<path d="M349,1422 L236,1281" stroke="blue" stroke-width="2" />
<path d="M501,1669 L1230,526" stroke="blue" stroke-width="2" />
<path d="M510,1671 L90,626" stroke="blue" stroke-width="2" />
<path d="M195,973 L350,965" stroke="blue" stroke-width="2" />
<path d="M1155,306 L1374,192" stroke="blue" stroke-width="2" />
<path d="M1259,1637 L109,611" stroke="blue" stroke-width="2" />
<path d="M387,77 L953,1221" stroke="blue" stroke-width="2" />
<path d="M1379,852 L497,1603" stroke="blue" stroke-width="2" />
<path d="M985,781 L948,1467" stroke="blue" stroke-width="2" />
<path d="M581,310 L105,1" stroke="blue" stroke-width="2" />
<path d="M824,1844 L780,32" stroke="blue" stroke-width="2" />
<path d="M1327,1394 L1100,1613" stroke="blue" stroke-width="2" />
<path d="M595,905 L652,718" stroke="blue" stroke-width="2" />
<path d="M252,23 L416,584" stroke="blue" stroke-width="2" />
<path d="M1361,1031 L941,1917" stroke="blue" stroke-width="2" />
<path d="M417,1915 L314,1521" stroke="blue" stroke-width="2" />
<path d="M1206,1494 L851,1123" stroke="blue" stroke-width="2" />
<path d="M1031,15 L494,217" stroke="blue" stroke-width="2" />
<path d="M983,502 L99,1845" stroke="blue" stroke-width="2" />
<path d="M746,267 L417,1232" stroke="blue" stroke-width="2" />
<path d="M322,1740 L898,793" stroke="blue" stroke-width="2" />
<path d="M60,1254 L733,1870" stroke="blue" stroke-width="2" />
<path d="M885,136 L431,1921" stroke="blue" stroke-width="2" />
<path d="M1162,1815 L1390,1497" stroke="blue" stroke-width="2" />
<path d="M207,230 L352,85" stroke="blue" stroke-width="2" />
<path d="M156,407 L727,1161" stroke="blue" stroke-width="2" />
<path d="M283,221 L610,1236" stroke="blue" stroke-width="2" />
<path d="M131,610 L1010,904" stroke="blue" stroke-width="2" />
<path d="M354,213 L746,85" stroke="blue" stroke-width="2" />
<path d="M1371,1522 L368,1613" stroke="blue" stroke-width="2" />
<path d="M1395,626 L156,1945" stroke="blue" stroke-width="2" />
<path d="M106,579 L1277,1024" stroke="blue" stroke-width="2" />
<path d="M367,1119 L127,1430" stroke="blue" stroke-width="2" />
<path d="M620,791 L187,1340" stroke="blue" stroke-width="2" />
<path d="M874,4 L671,1552" stroke="blue" stroke-width="2" />
<path d="M326,1832 L874,474" stroke="blue" stroke-width="2" />
<path d="M1106,1813 L230,38" stroke="blue" stroke-width="2" />
<path d="M1299,1898 L528,1540" stroke="blue" stroke-width="2" />
<path d="M264,211 L850,1583" stroke="blue" stroke-width="2" />
<path d="M1393,871 L431,1527" stroke="blue" stroke-width="2" />
<path d="M1334,610 L1268,600" stroke="blue" stroke-width="2" />
<path d="M1111,958 L474,974" stroke="blue" stroke-width="2" />
<path d="M648,1775 L674,1049" stroke="blue" stroke-width="2" />
<path d="M1120,167 L779,1468" stroke="blue" stroke-width="2" />
<path d="M307,140 L1222,1194" stroke="blue" stroke-width="2" />
<path d="M555,49 L308,427" stroke="blue" stroke-width="2" />
<path d="M1077,648 L492,464" stroke="blue" stroke-width="2" />
<path d="M235,131 L839,1712" stroke="blue" stroke-width="2" />
<path d="M1127,1021 L524,1233" stroke="blue" stroke-width="2" />
<path d="M157,1421 L119,1246" stroke="blue" stroke-width="2" />
<path d="M932,1101 L1337,1329" stroke="blue" stroke-width="2" />
<path d="M650,1436 L349,1206" stroke="blue" stroke-width="2" />
<path d="M1024,723 L1205,236" stroke="blue" stroke-width="2" />
<path d="M422,734 L1291,1487" stroke="blue" stroke-width="2" />
<path d="M109,173 L1092,1138" stroke="blue" stroke-width="2" />
<path d="M439,345 L864,1508" stroke="blue" stroke-width="2" />
<path d="M802,166 L614,899" stroke="blue" stroke-width="2" />
<path d="M1120,1932 L1246,767" stroke="blue" stroke-width="2" />
<path d="M430,175 L1340,272" stroke="blue" stroke-width="2" />
<path d="M123,300 L112,158" stroke="blue" stroke-width="2" />
<path d="M1013,1335 L753,1236" stroke="blue" stroke-width="2" />
<path d="M437,731 L523,1824" stroke="blue" stroke-width="2" />
<path d="M969,1578 L408,1181" stroke="blue" stroke-width="2" />
<path d="M773,1365 L1130,1295" stroke="blue" stroke-width="2" />
<path d="M71,1041 L618,610" stroke="blue" stroke-width="2" />
<path d="M519,288 L1041,451" stroke="blue" stroke-width="2" />
<path d="M758,1207 L1257,913" stroke="blue" stroke-width="2" />
<path d="M734,1342 L733,749" stroke="blue" stroke-width="2" />
<path d="M898,707 L879,513" stroke="blue" stroke-width="2" />
<path d="M986,489 L66,1656" stroke="blue" stroke-width="2" />
<path d="M861,463 L811,560" stroke="blue" stroke-width="2" />
<path d="M1211,511 L238,1854" stroke="blue" stroke-width="2" />
<path d="M132,551 L905,1091" stroke="blue" stroke-width="2" />
<path d="M319,908 L233,1946" stroke="blue" stroke-width="2" />
<path d="M1197,1377 L827,954" stroke="blue" stroke-width="2" />
<path d="M1404,1105 L1389,1935" stroke="blue" stroke-width="2" />
<path d="M670,1834 L1067,185" stroke="blue" stroke-width="2" />
<path d="M326,1037 L1022,1474" stroke="blue" stroke-width="2" />
<path d="M605,1702 L155,697" stroke="blue" stroke-width="2" />
<path d="M741,1653 L594,1915" stroke="blue" stroke-width="2" />
<path d="M799,585 L171,424" stroke="blue" stroke-width="2" />
<path d="M169,559 L1206,1427" stroke="blue" stroke-width="2" />
<path d="M830,1103 L96,1054" stroke="blue" stroke-width="2" />
<path d="M994,318 L747,1669" stroke="blue" stroke-width="2" />
<path d="M764,944 L387,1660" stroke="blue" stroke-width="2" />
<path d="M198,116 L203,71" stroke="blue" stroke-width="2" />
<path d="M99,1862 L97,933" stroke="blue" stroke-width="2" />
<path d="M62,864 L334,1881" stroke="blue" stroke-width="2" />
<path d="M1256,66 L1108,1286" stroke="blue" stroke-width="2" />
<path d="M321,170 L1390,356" stroke="blue" stroke-width="2" />
<path d="M875,677 L550,290" stroke="blue" stroke-width="2" />
<path d="M109,741 L520,748" stroke="blue" stroke-width="2" />
<path d="M270,1745 L284,837" stroke="blue" stroke-width="2" />
<path d="M1255,1695 L643,248" stroke="blue" stroke-width="2" />
<path d="M458,1762 L660,1407" stroke="blue" stroke-width="2" />
<path d="M528,1120 L277,471" stroke="blue" stroke-width="2" />
<path d="M855,478 L466,79" stroke="blue" stroke-width="2" />
<path d="M1040,1857 L1139,721" stroke="blue" stroke-width="2" />
<path d="M1367,213 L1052,697" stroke="blue" stroke-width="2" />
<path d="M990,747 L738,984" stroke="blue" stroke-width="2" />
<path d="M240,856 L496,750" stroke="blue" stroke-width="2" />
<path d="M362,1491 L49,886" stroke="blue" stroke-width="2" />
<path d="M138,934 L594,139" stroke="blue" stroke-width="2" />
<path d="M916,1105 L921,788" stroke="blue" stroke-width="2" />
<path d="M778,175 L434,432" stroke="blue" stroke-width="2" />
<path d="M674,393 L491,979" stroke="blue" stroke-width="2" />
<path d="M127,571 L1072,1464" stroke="blue" stroke-width="2" />
<path d="M1079,207 L950,56" stroke="blue" stroke-width="2" />
<path d="M1238,837 L564,1154" stroke="blue" stroke-width="2" />
<path d="M337,517 L1165,1282" stroke="blue" stroke-width="2" />
<path d="M397,1402 L425,1769" stroke="blue" stroke-width="2" />
<path d="M1234,1366 L728,857" stroke="blue" stroke-width="2" />
<path d="M1011,1697 L642,578" stroke="blue" stroke-width="2" />
<path d="M127,1541 L732,976" stroke="blue" stroke-width="2" />
<path d="M699,711 L686,246" stroke="blue" stroke-width="2" />
<path d="M761,724 L200,1511" stroke="blue" stroke-width="2" />
<path d="M40,874 L1263,312" stroke="blue" stroke-width="2" />
<path d="M77,1492 L346,895" stroke="blue" stroke-width="2" />
<path d="M1038,626 L469,816" stroke="blue" stroke-width="2" />
<path d="M778,126 L754,1570" stroke="blue" stroke-width="2" />
<path d="M842,1109 L246,1143" stroke="blue" stroke-width="2" />
<path d="M1175,1391 L1089,789" stroke="blue" stroke-width="2" />
<path d="M204,143 L1070,1103" stroke="blue" stroke-width="2" />
<path d="M889,182 L943,1008" stroke="blue" stroke-width="2" />
<path d="M241,618 L815,164" stroke="blue" stroke-width="2" />
<path d="M1404,1251 L569,632" stroke="blue" stroke-width="2" />
<path d="M922,768 L1350,822" stroke="blue" stroke-width="2" />
<path d="M688,333 L194,1777" stroke="blue" stroke-width="2" />
<path d="M1014,253 L756,1281" stroke="blue" stroke-width="2" />
<path d="M1099,726 L1147,1897" stroke="blue" stroke-width="2" />
<path d="M1364,1235 L270,1468" stroke="blue" stroke-width="2" />
<path d="M1398,1230 L1127,1305" stroke="blue" stroke-width="2" />
<path d="M973,1346 L960,1042" stroke="blue" stroke-width="2" />
<path d="M506,216 L1184,299" stroke="blue" stroke-width="2" />
<path d="M1149,555 L190,383" stroke="blue" stroke-width="2" />
<path d="M249,728 L377,1627" stroke="blue" stroke-width="2" />
<path d="M412,826 L874,1942" stroke="blue" stroke-width="2" />
<path d="M196,1829 L444,1546" stroke="blue" stroke-width="2" />
<path d="M133,1427 L199,1445" stroke="blue" stroke-width="2" />
<path d="M1294,1402 L637,1272" stroke="blue" stroke-width="2" />
<path d="M294,1655 L331,1675" stroke="blue" stroke-width="2" />
<path d="M1004,982 L1013,491" stroke="blue" stroke-width="2" />
<path d="M595,715 L1344,833" stroke="blue" stroke-width="2" />
<path d="M475,1500 L644,1869" stroke="blue" stroke-width="2" />
<path d="M250,79 L798,1108" stroke="blue" stroke-width="2" />
<path d="M1397,1729 L1339,890" stroke="blue" stroke-width="2" />
<path d="M867,1849 L886,1301" stroke="blue" stroke-width="2" />
<path d="M1105,439 L1301,447" stroke="blue" stroke-width="2" />
<path d="M303,590 L339,98" stroke="blue" stroke-width="2" />
<path d="M330,1788 L493,384" stroke="blue" stroke-width="2" />
<path d="M1336,1052 L1038,1218" stroke="blue" stroke-width="2" />
<path d="M716,31 L518,405" stroke="blue" stroke-width="2" />
<path d="M665,1058 L773,1279" stroke="blue" stroke-width="2" />
<path d="M749,1565 L1241,469" stroke="blue" stroke-width="2" />
<path d="M421,1561 L1184,1872" stroke="blue" stroke-width="2" />
<path d="M434,375 L403,1496" stroke="blue" stroke-width="2" />
<path d="M396,894 L123,806" stroke="blue" stroke-width="2" />
<path d="M239,281 L94,1922" stroke="blue" stroke-width="2" />
<path d="M244,344 L515,118" stroke="blue" stroke-width="2" />
<path d="M1049,728 L905,969" stroke="blue" stroke-width="2" />
<path d="M884,287 L1017,1266" stroke="blue" stroke-width="2" />
<path d="M130,1794 L1116,589" stroke="blue" stroke-width="2" />
<path d="M1002,207 L537,822" stroke="blue" stroke-width="2" />
<path d="M1143,1317 L750,749" stroke="blue" stroke-width="2" />
<path d="M709,411 L765,522" stroke="blue" stroke-width="2" />
<path d="M426,364 L1021,1275" stroke="blue" stroke-width="2" />
<path d="M1183,395 L791,1213" stroke="blue" stroke-width="2" />
<path d="M1273,839 L245,350" stroke="blue" stroke-width="2" />
<path d="M340,471 L403,1611" stroke="blue" stroke-width="2" />
<path d="M170,1857 L714,1475" stroke="blue" stroke-width="2" />
<path d="M457,135 L275,398" stroke="blue" stroke-width="2" />
<path d="M1285,993 L122,1561" stroke="blue" stroke-width="2" />
<path d="M864,35 L619,1790" stroke="blue" stroke-width="2" />
<path d="M1328,93 L373,645" stroke="blue" stroke-width="2" />
<path d="M1344,1235 L109,292" stroke="blue" stroke-width="2" />
<path d="M66,1482 L1095,433" stroke="blue" stroke-width="2" />
<path d="M1125,321 L345,504" stroke="blue" stroke-width="2" />
<path d="M1385,296 L877,1890" stroke="blue" stroke-width="2" />
<path d="M150,830 L413,227" stroke="blue" stroke-width="2" />
<path d="M965,1771 L413,439" stroke="blue" stroke-width="2" />
<path d="M193,379 L1085,1625" stroke="blue" stroke-width="2" />
<path d="M908,1005 L1164,1354" stroke="blue" stroke-width="2" />
<path d="M665,379 L43,1775" stroke="blue" stroke-width="2" />
<path d="M1305,440 L157,1815" stroke="blue" stroke-width="2" />
<path d="M1027,187 L924,1741" stroke="blue" stroke-width="2" />
<path d="M916,1 L1218,210" stroke="blue" stroke-width="2" />
<path d="M527,716 L467,906" stroke="blue" stroke-width="2" />
<path d="M32,381 L1174,1091" stroke="blue" stroke-width="2" />
<path d="M1325,1329 L14,1617" stroke="blue" stroke-width="2" />
<path d="M1212,961 L137,745" stroke="blue" stroke-width="2" />
<path d="M734,1042 L1227,1836" stroke="blue" stroke-width="2" />
<path d="M1254,575 L1078,175" stroke="blue" stroke-width="2" />
<path d="M1321,820 L1347,106" stroke="blue" stroke-width="2" />
<path d="M538,845 L777,860" stroke="blue" stroke-width="2" />
<path d="M1032,906 L1114,1416" stroke="blue" stroke-width="2" />
<path d="M1220,598 L1310,145" stroke="blue" stroke-width="2" />
<path d="M109,313 L98,981" stroke="blue" stroke-width="2" />
<path d="M1107,1800 L889,195" stroke="blue" stroke-width="2" />
<path d="M1162,1938 L47,1492" stroke="blue" stroke-width="2" />
<path d="M777,1022 L321,1232" stroke="blue" stroke-width="2" />
<path d="M520,604 L1035,913" stroke="blue" stroke-width="2" />
<path d="M364,449 L382,1088" stroke="blue" stroke-width="2" />
<path d="M252,620 L142,1760" stroke="blue" stroke-width="2" />
<path d="M537,1110 L862,188" stroke="blue" stroke-width="2" />
<path d="M753,1588 L1365,220" stroke="blue" stroke-width="2" />
<path d="M733,1910 L1167,959" stroke="blue" stroke-width="2" />
<path d="M963,1805 L209,1080" stroke="blue" stroke-width="2" />
<path d="M810,28 L928,1151" stroke="blue" stroke-width="2" />
<path d="M1000,1025 L53,121" stroke="blue" stroke-width="2" />
<path d="M1010,1900 L321,398" stroke="blue" stroke-width="2" />
<path d="M210,1134 L14,532" stroke="blue" stroke-width="2" />
<path d="M1287,1645 L275,1782" stroke="blue" stroke-width="2" />
<path d="M782,339 L930,663" stroke="blue" stroke-width="2" />
<path d="M1048,880 L321,261" stroke="blue" stroke-width="2" />
<path d="M1385,1125 L1333,1082" stroke="blue" stroke-width="2" />
<path d="M62,97 L715,1875" stroke="blue" stroke-width="2" />
<path d="M840,1057 L701,1051" stroke="blue" stroke-width="2" />
<path d="M379,358 L252,64" stroke="blue" stroke-width="2" />
<path d="M896,88 L1233,1598" stroke="blue" stroke-width="2" />
<path d="M1380,1818 L812,727" stroke="blue" stroke-width="2" />
<path d="M544,1434 L1305,1721" stroke="blue" stroke-width="2" />
<path d="M1023,560 L202,141" stroke="blue" stroke-width="2" />
<path d="M797,104 L638,680" stroke="blue" stroke-width="2" />
<path d="M1396,446 L952,1622" stroke="blue" stroke-width="2" />
<path d="M1318,1172 L632,1768" stroke="blue" stroke-width="2" />
<path d="M1185,1130 L864,1393" stroke="blue" stroke-width="2" />
<path d="M293,598 L1129,1230" stroke="blue" stroke-width="2" />
<path d="M1289,156 L101,1795" stroke="blue" stroke-width="2" />
<path d="M112,979 L1061,980" stroke="blue" stroke-width="2" />
<path d="M1268,1943 L593,1614" stroke="blue" stroke-width="2" />
<path d="M829,1148 L793,1647" stroke="blue" stroke-width="2" />
<path d="M722,1253 L136,500" stroke="blue" stroke-width="2" />
<path d="M411,1103 L297,1775" stroke="blue" stroke-width="2" />
<path d="M239,1051 L141,1403" stroke="blue" stroke-width="2" />
<path d="M1342,544 L30,321" stroke="blue" stroke-width="2" />
<path d="M164,1787 L859,657" stroke="blue" stroke-width="2" />
<path d="M1375,1838 L1385,1662" stroke="blue" stroke-width="2" />
<path d="M787,292 L726,1797" stroke="blue" stroke-width="2" />
<path d="M891,250 L735,1481" stroke="blue" stroke-width="2" />
<path d="M520,975 L926,1605" stroke="blue" stroke-width="2" />
<path d="M593,451 L335,16" stroke="blue" stroke-width="2" />
<path d="M1187,874 L459,145" stroke="blue" stroke-width="2" />
<path d="M1048,439 L84,75" stroke="blue" stroke-width="2" />
<path d="M733,1637 L1309,1844" stroke="blue" stroke-width="2" />
<path d="M964,1951 L973,1290" stroke="blue" stroke-width="2" />
<path d="M649,115 L491,627" stroke="blue" stroke-width="2" />
<path d="M990,1530 L1025,1080" stroke="blue" stroke-width="2" />
<path d="M382,772 L1018,617" stroke="blue" stroke-width="2" />
<path d="M1409,1219 L1273,30" stroke="blue" stroke-width="2" />
<path d="M844,278 L125,830" stroke="blue" stroke-width="2" />
<path d="M272,968 L651,200" stroke="blue" stroke-width="2" />
<path d="M475,522 L666,1335" stroke="blue" stroke-width="2" />
<path d="M981,336 L687,523" stroke="blue" stroke-width="2" />
<path d="M372,1527 L730,1088" stroke="blue" stroke-width="2" />
<path d="M817,806 L488,1589" stroke="blue" stroke-width="2" />
<path d="M986,873 L882,1806" stroke="blue" stroke-width="2" />
<path d="M996,271 L983,927" stroke="blue" stroke-width="2" />
<path d="M1057,243 L554,542" stroke="blue" stroke-width="2" />
<path d="M1286,127 L887,585" stroke="blue" stroke-width="2" />
<path d="M668,881 L1248,1180" stroke="blue" stroke-width="2" />
<path d="M318,732 L597,492" stroke="blue" stroke-width="2" />
<path d="M381,358 L616,770" stroke="blue" stroke-width="2" />
<path d="M993,598 L600,174" stroke="blue" stroke-width="2" />
<path d="M854,294 L1155,961" stroke="blue" stroke-width="2" />
<path d="M1091,1563 L152,398" stroke="blue" stroke-width="2" />
<path d="M1188,444 L1304,1760" stroke="blue" stroke-width="2" />
<path d="M662,25 L172,479" stroke="blue" stroke-width="2" />
<path d="M1088,1012 L350,1457" stroke="blue" stroke-width="2" />
<path d="M1046,1752 L1147,964" stroke="blue" stroke-width="2" />
<path d="M839,809 L482,809" stroke="blue" stroke-width="2" />
<path d="M328,338 L966,1226" stroke="blue" stroke-width="2" />
<path d="M440,637 L1326,742" stroke="blue" stroke-width="2" />
<path d="M1248,379 L37,618" stroke="blue" stroke-width="2" />
<path d="M577,1144 L990,690" stroke="blue" stroke-width="2" />
<path d="M271,1733 L708,1658" stroke="blue" stroke-width="2" />
<path d="M1061,284 L778,737" stroke="blue" stroke-width="2" />
<path d="M1168,1250 L355,896" stroke="blue" stroke-width="2" />
<path d="M137,1617 L1224,163" stroke="blue" stroke-width="2" />
<path d="M599,229 L497,1877" stroke="blue" stroke-width="2" />
<path d="M1042,1807 L1274,934" stroke="blue" stroke-width="2" />
<path d="M651,182 L1074,623" stroke="blue" stroke-width="2" />
<path d="M1300,1427 L957,1447" stroke="blue" stroke-width="2" />
<path d="M179,1395 L875,170" stroke="blue" stroke-width="2" />
<path d="M1238,1037 L829,1412" stroke="blue" stroke-width="2" />
<path d="M1364,1212 L97,1525" stroke="blue" stroke-width="2" />
<path d="M1261,466 L439,793" stroke="blue" stroke-width="2" />
<path d="M197,1283 L625,1732" stroke="blue" stroke-width="2" />
<path d="M448,177 L990,965" stroke="blue" stroke-width="2" />
<path d="M404,442 L1277,908" stroke="blue" stroke-width="2" />
<path d="M26,1190 L116,1181" stroke="blue" stroke-width="2" />
<path d="M1094,357 L352,166" stroke="blue" stroke-width="2" />
<path d="M1007,1172 L1012,221" stroke="blue" stroke-width="2" />
<path d="M924,500 L972,707" stroke="blue" stroke-width="2" />
<path d="M936,1816 L483,1496" stroke="blue" stroke-width="2" />
<path d="M720,1716 L901,478" stroke="blue" stroke-width="2" />
<path d="M1,947 L412,483" stroke="blue" stroke-width="2" />
<path d="M1069,1506 L1024,1026" stroke="blue" stroke-width="2" />
<path d="M1399,1577 L1157,1403" stroke="blue" stroke-width="2" />
<path d="M428,1631 L578,1578" stroke="blue" stroke-width="2" />
<path d="M237,305 L1290,853" stroke="blue" stroke-width="2" />
<path d="M642,826 L787,998" stroke="blue" stroke-width="2" />
<path d="M306,463 L1122,391" stroke="blue" stroke-width="2" />
<path d="M1165,449 L286,933" stroke="blue" stroke-width="2" />
<path d="M159,1153 L442,1795" stroke="blue" stroke-width="2" />
<path d="M1256,310 L812,636" stroke="blue" stroke-width="2" />
<path d="M563,9 L999,549" stroke="blue" stroke-width="2" />
<path d="M893,392 L490,387" stroke="blue" stroke-width="2" />
<path d="M1212,518 L140,728" stroke="blue" stroke-width="2" />
<path d="M1009,578 L353,900" stroke="blue" stroke-width="2" />
<path d="M1155,688 L477,1022" stroke="blue" stroke-width="2" />
<path d="M1167,1698 L417,754" stroke="blue" stroke-width="2" />
<path d="M100,1668 L403,91" stroke="blue" stroke-width="2" />
<path d="M778,737 L546,1394" stroke="blue" stroke-width="2" />
<path d="M608,1507 L115,1276" stroke="blue" stroke-width="2" />
<path d="M380,1786 L680,1912" stroke="blue" stroke-width="2" />
<path d="M330,1727 L1337,1712" stroke="blue" stroke-width="2" />
<path d="M524,780 L692,1847" stroke="blue" stroke-width="2" />
<path d="M1161,1429 L1036,397" stroke="blue" stroke-width="2" />
<path d="M1343,884 L1293,440" stroke="blue" stroke-width="2" />
<path d="M1023,46 L1103,442" stroke="blue" stroke-width="2" />
<path d="M70,856 L521,640" stroke="blue" stroke-width="2" />
<path d="M1402,782 L1377,7" stroke="blue" stroke-width="2" />
<path d="M1097,1634 L364,628" stroke="blue" stroke-width="2" />
<path d="M322,666 L28,1622" stroke="blue" stroke-width="2" />
<path d="M875,124 L399,1133" stroke="blue" stroke-width="2" />
<path d="M1388,194 L287,1280" stroke="blue" stroke-width="2" />
<path d="M555,511 L103,289" stroke="blue" stroke-width="2" />
<path d="M502,1622 L1376,1500" stroke="blue" stroke-width="2" />
<path d="M1098,1177 L135,290" stroke="blue" stroke-width="2" />
<path d="M625,1668 L697,644" stroke="blue" stroke-width="2" />
<path d="M0,0 L1410,0" stroke="red" stroke-width="10" />
<path d="M1410,0 L1410,1953" stroke="red" stroke-width="10" />
<path d="M0,1953 L1410,1953" stroke="red" stroke-width="10" />
<path d="M0,1953 L0,0" stroke="red" stroke-width="10" />
</svg>