<?xml version="1.0" encoding="UTF-8"?>
<svg xmlns="http://www.w3.org/2000/svg" xmlns:xlink="http://www.w3.org/1999/xlink"
     width="10000" height="10000" viewBox="0 0 10000 10000">
<defs>
</defs>
<path d="M1122,1811 L2433,29" stroke="blue" stroke-width="2" />
<path d="M1860,2885 L3317,2851" stroke="blue" stroke-width="2" />
<path d="M864,39 L1652,1802" stroke="blue" stroke-width="2" />
<path d="M1017,3118 L2495,20" stroke="blue" stroke-width="2" />
<path d="M1822,3028 L2540,2160" stroke="blue" stroke-width="2" />
<path d="M1766,2489 L3759,1513" stroke="blue" stroke-width="2" />
<path d="M3252,214 L3811,3215" stroke="blue" stroke-width="2" />
<path d="M362,2741 L2992,559" stroke="blue" stroke-width="2" />
<path d="M597,2364 L1580,1248" stroke="blue" stroke-width="2" />
<path d="M1359,328 L2545,1620" stroke="blue" stroke-width="2" />
<path d="M2734,2927 L903,563" stroke="blue" stroke-width="2" />
<path d="M4052,2879 L1823,3032" stroke="blue" stroke-width="2" />
<path d="M3039,1806 L3649,1283" stroke="blue" stroke-width="2" />
<path d="M3470,384 L520,1574" stroke="blue" stroke-width="2" />
<path d="M1739,214 L578,796" stroke="blue" stroke-width="2" />
<path d="M952,225 L1026,2532" stroke="blue" stroke-width="2" />
<path d="M1557,435 L2893,3208" stroke="blue" stroke-width="2" />
<path d="M283,1585 L2500,1869" stroke="blue" stroke-width="2" />
<path d="M175,435 L2199,293" stroke="blue" stroke-width="2" />
<path d="M2729,1339 L1612,1234" stroke="blue" stroke-width="2" />
<path d="M3434,1606 L2235,2973" stroke="blue" stroke-width="2" />
<path d="M2333,992 L3214,699" stroke="blue" stroke-width="2" />
<path d="M1127,1297 L1210,2620" stroke="blue" stroke-width="2" />
<path d="M4093,2810 L1426,285" stroke="blue" stroke-width="2" />
<path d="M2374,404 L978,1487" stroke="blue" stroke-width="2" />
<path d="M1242,1502 L3295,2415" stroke="blue" stroke-width="2" />
<path d="M257,510 L1315,65" stroke="blue" stroke-width="2" />
<path d="M4231,2298 L2834,1566" stroke="blue" stroke-width="2" />
<path d="M1788,2905 L467,3083" stroke="blue" stroke-width="2" />
<path d="M355,1863 L2093,3230" stroke="blue" stroke-width="2" />
<path d="M3885,1726 L1202,2953" stroke="blue" stroke-width="2" />
<path d="M408,2888 L1882,2166" stroke="blue" stroke-width="2" />
<path d="M2226,362 L2497,781" stroke="blue" stroke-width="2" />
<path d="M2175,3177 L2794,374" stroke="blue" stroke-width="2" />
<path d="M2409,1723 L2054,2075" stroke="blue" stroke-width="2" />
<path d="M2825,180 L1667,1351" stroke="blue" stroke-width="2" />
<path d="M1693,2283 L337,3050" stroke="blue" stroke-width="2" />
<path d="M721,2724 L794,2151" stroke="blue" stroke-width="2" />
<path d="M938,2235 L3084,403" stroke="blue" stroke-width="2" />
<path d="M242,2671 L2794,2886" stroke="blue" stroke-width="2" />
<path d="M1754,876 L1784,244" stroke="blue" stroke-width="2" />
<path d="M694,1526 L3746,1728" stroke="blue" stroke-width="2" />
<path d="M1410,2770 L1229,100" stroke="blue" stroke-width="2" />
<path d="M1752,3240 L2984,2745" stroke="blue" stroke-width="2" />
<path d="M1941,924 L1936,817" stroke="blue" stroke-width="2" />
<path d="M3370,1721 L2759,593" stroke="blue" stroke-width="2" />
<path d="M3155,1686 L144,2276" stroke="blue" stroke-width="2" />
<path d="M183,3099 L2044,1008" stroke="blue" stroke-width="2" />
<path d="M4218,726 L3569,2586" stroke="blue" stroke-width="2" />
<path d="M1718,1015 L3765,2736" stroke="blue" stroke-width="2" />
<path d="M4114,2205 L607,394" stroke="blue" stroke-width="2" />
<path d="M759,2547 L3216,585" stroke="blue" stroke-width="2" />
<path d="M4138,1524 L859,297" stroke="blue" stroke-width="2" />
<path d="M1133,1715 L867,2518" stroke="blue" stroke-width="2" />
<path d="M2215,1617 L89,752" stroke="blue" stroke-width="2" />
<path d="M3627,2459 L4009,750" stroke="blue" stroke-width="2" />
<path d="M3669,1266 L3194,354" stroke="blue" stroke-width="2" />
<path d="M2299,2431 L1052,2402" stroke="blue" stroke-width="2" />
<path d="M240,2790 L1189,2418" stroke="blue" stroke-width="2" />
<path d="M3314,584 L3519,871" stroke="blue" stroke-width="2" />
<path d="M2738,1264 L607,2561" stroke="blue" stroke-width="2" />
<path d="M2907,805 L4165,2751" stroke="blue" stroke-width="2" />
<path d="M4174,3185 L1768,974" stroke="blue" stroke-width="2" />
<path d="M2598,1422 L2982,2597" stroke="blue" stroke-width="2" />
<path d="M3262,2441 L934,1853" stroke="blue" stroke-width="2" />
<path d="M942,942 L1298,1864" stroke="blue" stroke-width="2" />
<path d="M416,326 L1657,2690" stroke="blue" stroke-width="2" />
<path d="M549,3196 L3041,66" stroke="blue" stroke-width="2" />
<path d="M4302,2203 L3927,1119" stroke="blue" stroke-width="2" />
<path d="M416,282 L2043,1964" stroke="blue" stroke-width="2" />
<path d="M726,1980 L545,834" stroke="blue" stroke-width="2" />
<path d="M3951,2584 L3570,1951" stroke="blue" stroke-width="2" />
<path d="M4115,643 L2631,1242" stroke="blue" stroke-width="2" />
<path d="M3785,94 L1012,317" stroke="blue" stroke-width="2" />
<path d="M2340,2262 L3200,1831" stroke="blue" stroke-width="2" />
<path d="M2429,1178 L2857,2732" stroke="blue" stroke-width="2" />
<path d="M802,333 L408,1401" stroke="blue" stroke-width="2" />
<path d="M1931,1344 L3677,727" stroke="blue" stroke-width="2" />
<path d="M3156,1473 L503,3205" stroke="blue" stroke-width="2" />
<path d="M4113,1653 L2477,2750" stroke="blue" stroke-width="2" />
<path d="M2488,376 L3747,2462" stroke="blue" stroke-width="2" />
<path d="M434,588 L177,2055" stroke="blue" stroke-width="2" />
<path d="M4220,1708 L2304,1647" stroke="blue" stroke-width="2" />
<path d="M2219,2773 L1833,41" stroke="blue" stroke-width="2" />
<path d="M328,659 L2839,3211" stroke="blue" stroke-width="2" />
<path d="M2059,3216 L894,3185" stroke="blue" stroke-width="2" />
<path d="M1000,2502 L3769,2623" stroke="blue" stroke-width="2" />
<path d="M429,68 L488,2161" stroke="blue" stroke-width="2" />
<path d="M58,2615 L207,2740" stroke="blue" stroke-width="2" />
<path d="M1262,1832 L1404,709" stroke="blue" stroke-width="2" />
<path d="M2013,2838 L406,2320" stroke="blue" stroke-width="2" />
<path d="M3234,236 L2185,1081" stroke="blue" stroke-width="2" />
<path d="M4071,2958 L1604,2859" stroke="blue" stroke-width="2" />
<path d="M2775,846 L2823,1842" stroke="blue" stroke-width="2" />
<path d="M3093,1975 L2307,2641" stroke="blue" stroke-width="2" />
<path d="M937,468 L2677,1809" stroke="blue" stroke-width="2" />
<path d="M3265,2174 L1633,1781" stroke="blue" stroke-width="2" />
<path d="M1243,1598 L1209,2388" stroke="blue" stroke-width="2" />
<path d="M4051,558 L951,567" stroke="blue" stroke-width="2" />
<path d="M1694,227 L3752,3199" stroke="blue" stroke-width="2" />
<path d="M2520,2976 L997,2458" stroke="blue" stroke-width="2" />
<path d="M1795,61 L388,3261" stroke="blue" stroke-width="2" />
<path d="M1244,1913 L827,2377" stroke="blue" stroke-width="2" />
<path d="M3216,1501 L556,1972" stroke="blue" stroke-width="2" />
<path d="M2585,1592 L173,2583" stroke="blue" stroke-width="2" />
<path d="M2250,3066 L2022,2027" stroke="blue" stroke-width="2" />
<path d="M2027,2923 L304,1481" stroke="blue" stroke-width="2" />
<path d="M190,388 L668,1307" stroke="blue" stroke-width="2" />
<path d="M553,2727 L2090,1478" stroke="blue" stroke-width="2" />
<path d="M3138,456 L3262,468" stroke="blue" stroke-width="2" />
<path d="M698,3003 L3857,2110" stroke="blue" stroke-width="2" />
<path d="M4006,667 L3783,1211" stroke="blue" stroke-width="2" />
<path d="M2985,1627 L167,1673" stroke="blue" stroke-width="2" />
<path d="M888,1588 L1761,1580" stroke="blue" stroke-width="2" />
<path d="M205,337 L1342,1596" stroke="blue" stroke-width="2" />
<path d="M2191,1556 L3929,1178" stroke="blue" stroke-width="2" />
<path d="M3492,2332 L4065,2773" stroke="blue" stroke-width="2" />
<path d="M1019,262 L2070,2483" stroke="blue" stroke-width="2" />
<path d="M2573,2265 L3121,1547" stroke="blue" stroke-width="2" />
<path d="M1016,341 L3491,2625" stroke="blue" stroke-width="2" />
<path d="M519,2282 L2081,103" stroke="blue" stroke-width="2" />
<path d="M2054,873 L394,2120" stroke="blue" stroke-width="2" />
<path d="M3020,2906 L87,1806" stroke="blue" stroke-width="2" />
<path d="M730,1771 L2785,3240" stroke="blue" stroke-width="2" />
<path d="M2800,231 L1201,2510" stroke="blue" stroke-width="2" />
<path d="M1944,2547 L3532,2647" stroke="blue" stroke-width="2" />
<path d="M1737,1451 L67,2387" stroke="blue" stroke-width="2" />
<path d="M2429,2923 L3101,1804" stroke="blue" stroke-width="2" />
<path d="M3159,701 L95,1640" stroke="blue" stroke-width="2" />
<path d="M668,2458 L1086,2941" stroke="blue" stroke-width="2" />
<path d="M1730,38 L3398,2254" stroke="blue" stroke-width="2" />
<path d="M3689,1645 L663,923" stroke="blue" stroke-width="2" />
<path d="M1698,2668 L1185,3060" stroke="blue" stroke-width="2" />
<path d="M811,1984 L109,2562" stroke="blue" stroke-width="2" />
<path d="M2411,1896 L898,410" stroke="blue" stroke-width="2" />
<path d="M4053,813 L2480,1828" stroke="blue" stroke-width="2" />
<path d="M4196,2047 L411,381" stroke="blue" stroke-width="2" />
<path d="M3192,2129 L1597,247" stroke="blue" stroke-width="2" />
<path d="M2267,1696 L3412,2454" stroke="blue" stroke-width="2" />
<path d="M1043,1612 L1230,1341" stroke="blue" stroke-width="2" />
<path d="M2716,2175 L3631,1505" stroke="blue" stroke-width="2" />
<path d="M3064,3053 L1319,2774" stroke="blue" stroke-width="2" />
<path d="M70,696 L3846,2916" stroke="blue" stroke-width="2" />
<path d="M4136,2368 L4094,1202" stroke="blue" stroke-width="2" />
<path d="M2956,2141 L1582,764" stroke="blue" stroke-width="2" />
<path d="M438,828 L110,2570" stroke="blue" stroke-width="2" />
<path d="M2794,2310 L3165,2944" stroke="blue" stroke-width="2" />
<path d="M3554,1540 L2744,1893" stroke="blue" stroke-width="2" />
<path d="M494,2666 L672,412" stroke="blue" stroke-width="2" />
<path d="M3714,2609 L1514,2529" stroke="blue" stroke-width="2" />
<path d="M453,146 L543,2662" stroke="blue" stroke-width="2" />
<path d="M117,74 L1987,1754" stroke="blue" stroke-width="2" />
<path d="M918,3064 L1706,571" stroke="blue" stroke-width="2" />
<path d="M557,3131 L2188,2803" stroke="blue" stroke-width="2" />
<path d="M932,3170 L1143,2909" stroke="blue" stroke-width="2" />
<path d="M1858,197 L1588,3243" stroke="blue" stroke-width="2" />
<path d="M2064,2183 L1116,1172" stroke="blue" stroke-width="2" />
<path d="M2225,1849 L1242,1533" stroke="blue" stroke-width="2" />
<path d="M1603,3214 L2790,2421" stroke="blue" stroke-width="2" />
<path d="M1802,2325 L2626,2277" stroke="blue" stroke-width="2" />
<path d="M1776,2331 L2015,132" stroke="blue" stroke-width="2" />
<path d="M239,692 L517,204" stroke="blue" stroke-width="2" />
<path d="M672,2109 L2920,2885" stroke="blue" stroke-width="2" />
<path d="M1239,1022 L3649,1850" stroke="blue" stroke-width="2" />
<path d="M1177,342 L1178,1742" stroke="blue" stroke-width="2" />
<path d="M4017,2503 L1208,3057" stroke="blue" stroke-width="2" />
<path d="M4105,856 L2319,1744" stroke="blue" stroke-width="2" />
<path d="M3394,1058 L2218,2540" stroke="blue" stroke-width="2" />
<path d="M1917,1734 L1723,1722" stroke="blue" stroke-width="2" />
<path d="M3980,617 L264,3035" stroke="blue" stroke-width="2" />
<path d="M3727,1397 L1923,2005" stroke="blue" stroke-width="2" />
<path d="M2839,1520 L3823,737" stroke="blue" stroke-width="2" />
<path d="M1707,2353 L2540,3250" stroke="blue" stroke-width="2" />
<path d="M2414,1687 L1706,197" stroke="blue" stroke-width="2" />
<path d="M2048,2297 L3245,1963" stroke="blue" stroke-width="2" />
<path d="M1664,151 L820,2448" stroke="blue" stroke-width="2" />
<path d="M351,925 L628,1311" stroke="blue" stroke-width="2" />
<path d="M3184,963 L3809,3255" stroke="blue" stroke-width="2" />
<path d="M3442,2105 L3090,853" stroke="blue" stroke-width="2" />
<path d="M2444,1126 L2953,141" stroke="blue" stroke-width="2" />
<path d="M2312,3079 L2773,2086" stroke="blue" stroke-width="2" />
<path d="M3485,2491 L799,2708" stroke="blue" stroke-width="2" />
<path d="M613,2162 L3287,3250" stroke="blue" stroke-width="2" />
<path d="M1905,2266 L2619,1040" stroke="blue" stroke-width="2" />
<path d="M3480,481 L3272,1849" stroke="blue" stroke-width="2" />
<path d="M226,726 L3528,1412" stroke="blue" stroke-width="2" />
<path d="M3475,2941 L3361,1271" stroke="blue" stroke-width="2" />
<path d="M830,408 L3203,806" stroke="blue" stroke-width="2" />
<path d="M2,1474 L2559,2769" stroke="blue" stroke-width="2" />
<path d="M2533,1034 L2125,1117" stroke="blue" stroke-width="2" />
<path d="M767,2707 L3849,2250" stroke="blue" stroke-width="2" />
<path d="M2755,1884 L4253,843" stroke="blue" stroke-width="2" />
<path d="M3256,3049 L2955,470" stroke="blue" stroke-width="2" />
<path d="M3833,3046 L2170,1245" stroke="blue" stroke-width="2" />
<path d="M154,931 L68,1524" stroke="blue" stroke-width="2" />
<path d="M1490,17 L2454,2340" stroke="blue" stroke-width="2" />
<path d="M2215,180 L2977,3197" stroke="blue" stroke-width="2" />
<path d="M2962,1502 L4244,3130" stroke="blue" stroke-width="2" />
<path d="M599,1126 L1785,1525" stroke="blue" stroke-width="2" />
<path d="M776,106 L3561,1310" stroke="blue" stroke-width="2" />
<path d="M658,2572 L1250,1210" stroke="blue" stroke-width="2" />
<path d="M2179,2083 L1792,2682" stroke="blue" stroke-width="2" />
<path d="M3058,2592 L2185,3083" stroke="blue" stroke-width="2" />
<path d="M1668,1399 L203,2452" stroke="blue" stroke-width="2" />
<path d="M3057,1207 L1338,131" stroke="blue" stroke-width="2" />
<path d="M2088,33 L1840,656" stroke="blue" stroke-width="2" />
<path d="M1042,966 L1027,358" stroke="blue" stroke-width="2" />
<path d="M2958,3148 L3567,1920" stroke="blue" stroke-width="2" />
<path d="M2670,3133 L2751,2172" stroke="blue" stroke-width="2" />
<path d="M535,2229 L4140,2939" stroke="blue" stroke-width="2" />
<path d="M418,3033 L441,1907" stroke="blue" stroke-width="2" />
<path d="M2936,3091 L3618,2425" stroke="blue" stroke-width="2" />
<path d="M4172,1625 L1053,877" stroke="blue" stroke-width="2" />
<path d="M1706,842 L2524,1128" stroke="blue" stroke-width="2" />
<path d="M2873,3133 L2779,1871" stroke="blue" stroke-width="2" />
<path d="M621,1999 L3864,872" stroke="blue" stroke-width="2" />
<path d="M706,1514 L3869,1957" stroke="blue" stroke-width="2" />
<path d="M2111,3156 L1363,301" stroke="blue" stroke-width="2" />
<path d="M3783,171 L2085,631" stroke="blue" stroke-width="2" />
<path d="M4223,1980 L119,2207" stroke="blue" stroke-width="2" />
<path d="M1219,1010 L1642,1439" stroke="blue" stroke-width="2" />
<path d="M3911,271 L79,1578" stroke="blue" stroke-width="2" />
<path d="M3226,2698 L264,1302" stroke="blue" stroke-width="2" />
<path d="M3008,1537 L600,3147" stroke="blue" stroke-width="2" />
<path d="M3106,320 L2094,1334" stroke="blue" stroke-width="2" />
<path d="M3632,506 L2618,3085" stroke="blue" stroke-width="2" />
<path d="M3956,2725 L3150,2868" stroke="blue" stroke-width="2" />
<path d="M2665,1383 L697,1632" stroke="blue" stroke-width="2" />
<path d="M2462,3159 L1353,1159" stroke="blue" stroke-width="2" />
<path d="M3984,874 L1293,3143" stroke="blue" stroke-width="2" />
<path d="M2555,2905 L995,293" stroke="blue" stroke-width="2" />
<path d="M3835,340 L947,2550" stroke="blue" stroke-width="2" />
<path d="M3586,1634 L3365,420" stroke="blue" stroke-width="2" />
<path d="M3364,2627 L570,3156" stroke="blue" stroke-width="2" />
<path d="M1084,1145 L606,622" stroke="blue" stroke-width="2" />
<path d="M2490,2374 L4043,1221" stroke="blue" stroke-width="2" />
<path d="M3928,1314 L3638,345" stroke="blue" stroke-width="2" />
<path d="M2097,2263 L3058,1333" stroke="blue" stroke-width="2" />
<path d="M615,2685 L1593,1829" stroke="blue" stroke-width="2" />
<path d="M797,1465 L1719,3254" stroke="blue" stroke-width="2" />
<path d="M1083,325 L1101,3041" stroke="blue" stroke-width="2" />
<path d="M314,2797 L1969,1921" stroke="blue" stroke-width="2" />
<path d="M32,2005 L745,474" stroke="blue" stroke-width="2" />
<path d="M997,2896 L884,771" stroke="blue" stroke-width="2" />
<path d="M2634,1503 L2418,2" stroke="blue" stroke-width="2" />
<path d="M523,406 L362,2779" stroke="blue" stroke-width="2" />
<path d="M3514,2109 L3969,682" stroke="blue" stroke-width="2" />
<path d="M477,309 L2705,1784" stroke="blue" stroke-width="2" />
<path d="M1851,2567 L4030,551" stroke="blue" stroke-width="2" />
<path d="M1872,749 L3285,1170" stroke="blue" stroke-width="2" />
<path d="M539,1909 L2754,2643" stroke="blue" stroke-width="2" />
<path d="M88,848 L439,1750" stroke="blue" stroke-width="2" />
<path d="M3754,478 L2501,896" stroke="blue" stroke-width="2" />
<path d="M224,1458 L4015,68" stroke="blue" stroke-width="2" />
<path d="M1672,1336 L711,2303" stroke="blue" stroke-width="2" />
<path d="M2637,305 L1713,1023" stroke="blue" stroke-width="2" />
<path d="M2621,2315 L3075,1364" stroke="blue" stroke-width="2" />
<path d="M214,433 L3250,1335" stroke="blue" stroke-width="2" />
<path d="M489,1550 L2049,2322" stroke="blue" stroke-width="2" />
<path d="M673,1880 L3570,102" stroke="blue" stroke-width="2" />
<path d="M781,3093 L900,2465" stroke="blue" stroke-width="2" />
<path d="M1835,3029 L1537,2115" stroke="blue" stroke-width="2" />
<path d="M446,748 L920,470" stroke="blue" stroke-width="2" />
<path d="M310,1542 L535,2475" stroke="blue" stroke-width="2" />
<path d="M645,2812 L3453,2732" stroke="blue" stroke-width="2" />
<path d="M3757,2150 L1742,323" stroke="blue" stroke-width="2" />
<path d="M930,1304 L2427,2334" stroke="blue" stroke-width="2" />
<path d="M2438,77 L2692,2042" stroke="blue" stroke-width="2" />
<path d="M728,2437 L194,2954" stroke="blue" stroke-width="2" />
<path d="M123,2852 L635,96" stroke="blue" stroke-width="2" />
<path d="M268,890 L3419,1214" stroke="blue" stroke-width="2" />
<path d="M1775,2486 L2034,2893" stroke="blue" stroke-width="2" />
<path d="M387,3091 L1886,3141" stroke="blue" stroke-width="2" />
<path d="M1003,356 L2400,1483" stroke="blue" stroke-width="2" />
<path d="M4243,1543 L2307,1237" stroke="blue" stroke-width="2" />
<path d="M2387,152 L1929,1866" stroke="blue" stroke-width="2" />
<path d="M2543,746 L2765,1143" stroke="blue" stroke-width="2" />
<path d="M3620,1184 L613,1686" stroke="blue" stroke-width="2" />
<path d="M2496,1956 L144,3145" stroke="blue" stroke-width="2" />
<path d="M3622,1521 L3139,720" stroke="blue" stroke-width="2" />
<path d="M1421,2889 L3774,1477" stroke="blue" stroke-width="2" />
<path d="M2149,2819 L2961,800" stroke="blue" stroke-width="2" />
<path d="M2008,2530 L3043,1909" stroke="blue" stroke-width="2" />
<path d="M2718,647 L2559,1833" stroke="blue" stroke-width="2" />
<path d="M1565,1778 L3862,2476" stroke="blue" stroke-width="2" />
<path d="M536,2436 L2417,1482" stroke="blue" stroke-width="2" />
<path d="M1849,267 L2962,794" stroke="blue" stroke-width="2" />
<path d="M2513,1613 L2958,1112" stroke="blue" stroke-width="2" />
<path d="M284,1458 L1471,1226" stroke="blue" stroke-width="2" />
<path d="M3584,2166 L3732,652" stroke="blue" stroke-width="2" />
<path d="M956,1186 L2609,2727" stroke="blue" stroke-width="2" />
<path d="M4114,1597 L322,1214" stroke="blue" stroke-width="2" />
<path d="M1168,2298 L1641,1384" stroke="blue" stroke-width="2" />
<path d="M3402,417 L4057,2277" stroke="blue" stroke-width="2" />
<path d="M2105,3005 L2304,1122" stroke="blue" stroke-width="2" />
<path d="M430,2644 L2428,2654" stroke="blue" stroke-width="2" />
<path d="M3652,2094 L3020,1228" stroke="blue" stroke-width="2" />
<path d="M571,2754 L410,1926" stroke="blue" stroke-width="2" />
<path d="M2314,2199 L2569,1516" stroke="blue" stroke-width="2" />
<path d="M2991,154 L2990,1435" stroke="blue" stroke-width="2" />
<path d="M2582,2707 L1709,2047" stroke="blue" stroke-width="2" />
<path d="M1028,2199 L4003,749" stroke="blue" stroke-width="2" />
<path d="M1538,1714 L2876,501" stroke="blue" stroke-width="2" />
<path d="M1917,1822 L3583,2899" stroke="blue" stroke-width="2" />
<path d="M2307,1544 L1872,2449" stroke="blue" stroke-width="2" />
<path d="M870,2067 L2715,900" stroke="blue" stroke-width="2" />
<path d="M771,2813 L1483,455" stroke="blue" stroke-width="2" />
<path d="M1592,420 L1714,1788" stroke="blue" stroke-width="2" />
<path d="M1978,2527 L1034,1761" stroke="blue" stroke-width="2" />
<path d="M3238,1402 L850,1015" stroke="blue" stroke-width="2" />
<path d="M4231,1061 L742,1872" stroke="blue" stroke-width="2" />
<path d="M1086,1345 L2276,1840" stroke="blue" stroke-width="2" />
<path d="M657,2246 L678,1189" stroke="blue" stroke-width="2" />
<path d="M1893,2800 L1922,149" stroke="blue" stroke-width="2" />
<path d="M3185,768 L2993,700" stroke="blue" stroke-width="2" />
<path d="M3249,938 L2568,1453" stroke="blue" stroke-width="2" />
<path d="M783,2251 L4062,2635" stroke="blue" stroke-width="2" />
<path d="M737,595 L2646,424" stroke="blue" stroke-width="2" />
<path d="M3459,3206 L3031,2377" stroke="blue" stroke-width="2" />
<path d="M1581,1121 L3834,2025" stroke="blue" stroke-width="2" />
<path d="M445,1211 L2514,1585" stroke="blue" stroke-width="2" />
<path d="M2389,1377 L3403,2138" stroke="blue" stroke-width="2" />
<path d="M3078,2627 L1049,2862" stroke="blue" stroke-width="2" />
<path d="M615,2055 L2846,260" stroke="blue" stroke-width="2" />
<path d="M1771,584 L1004,1641" stroke="blue" stroke-width="2" />
<path d="M441,876 L2133,1767" stroke="blue" stroke-width="2" />
<path d="M1739,1058 L3632,1433" stroke="blue" stroke-width="2" />
<path d="M3587,2617 L554,102" stroke="blue" stroke-width="2" />
<path d="M2094,2234 L4105,2883" stroke="blue" stroke-width="2" />
<path d="M1506,14 L1119,1741" stroke="blue" stroke-width="2" />
<path d="M1913,794 L1273,440" stroke="blue" stroke-width="2" />
<path d="M340,2460 L3361,2580" stroke="blue" stroke-width="2" />
<path d="M1175,177 L3298,510" stroke="blue" stroke-width="2" />
<path d="M2859,128 L843,1808" stroke="blue" stroke-width="2" />
<path d="M99,2517 L1439,1903" stroke="blue" stroke-width="2" />
<path d="M887,746 L2795,704" stroke="blue" stroke-width="2" />
<path d="M2265,2977 L117,442" stroke="blue" stroke-width="2" />
<path d="M1402,1262 L3949,600" stroke="blue" stroke-width="2" />
<path d="M2106,1929 L3700,1234" stroke="blue" stroke-width="2" />
<path d="M4222,1005 L3170,228" stroke="blue" stroke-width="2" />
<path d="M401,3061 L3935,1671" stroke="blue" stroke-width="2" />
<path d="M3775,2146 L1282,949" stroke="blue" stroke-width="2" />
<path d="M2637,2509 L2461,566" stroke="blue" stroke-width="2" />
<path d="M4104,2192 L1553,888" stroke="blue" stroke-width="2" />
<path d="M2392,2032 L92,1003" stroke="blue" stroke-width="2" />
<path d="M2625,318 L2844,1554" stroke="blue" stroke-width="2" />
<path d="M3205,674 L447,1696" stroke="blue" stroke-width="2" />
<path d="M3482,2298 L587,1671" stroke="blue" stroke-width="2" />
<path d="M599,2431 L376,1108" stroke="blue" stroke-width="2" />
<path d="M9,0 L553,1387" stroke="blue" stroke-width="2" />
<path d="M678,3256 L349,2435" stroke="blue" stroke-width="2" />
<path d="M4220,1775 L1459,1059" stroke="blue" stroke-width="2" />
<path d="M3581,1431 L1743,1727" stroke="blue" stroke-width="2" />
<path d="M3530,3020 L4045,754" stroke="blue" stroke-width="2" />
<path d="M4041,2083 L3185,1008" stroke="blue" stroke-width="2" />
<path d="M4146,2976 L1954,297" stroke="blue" stroke-width="2" />
<path d="M3484,3041 L3704,1782" stroke="blue" stroke-width="2" />
<path d="M2664,1329 L1554,1175" stroke="blue" stroke-width="2" />
<path d="M1402,1225 L2504,879" stroke="blue" stroke-width="2" />
<path d="M2267,1733 L2858,625" stroke="blue" stroke-width="2" />
<path d="M2981,3036 L1165,1711" stroke="blue" stroke-width="2" />
<path d="M3850,2389 L2662,612" stroke="blue" stroke-width="2" />
<path d="M2636,2718 L4301,2709" stroke="blue" stroke-width="2" />
<path d="M165,2299 L1522,366" stroke="blue" stroke-width="2" />
<path d="M263,2326 L1431,2992" stroke="blue" stroke-width="2" />
<path d="M889,846 L2893,2765" stroke="blue" stroke-width="2" />
<path d="M53,1115 L3445,873" stroke="blue" stroke-width="2" />
<path d="M277,1591 L1754,2156" stroke="blue" stroke-width="2" />
<path d="M1825,280 L3850,2551" stroke="blue" stroke-width="2" />
<path d="M2894,2273 L674,1854" stroke="blue" stroke-width="2" />
<path d="M2494,863 L765,612" stroke="blue" stroke-width="2" />
<path d="M4185,130 L2648,364" stroke="blue" stroke-width="2" />
<path d="M468,1526 L1586,293" stroke="blue" stroke-width="2" />
<path d="M510,2909 L1355,1205" stroke="blue" stroke-width="2" />
<path d="M1011,1788 L283,3046" stroke="blue" stroke-width="2" />
<path d="M3840,2563 L786,2910" stroke="blue" stroke-width="2" />
<path d="M1382,2015 L404,4" stroke="blue" stroke-width="2" />
<path d="M2336,650 L3514,3075" stroke="blue" stroke-width="2" />
<path d="M2336,370 L47,2939" stroke="blue" stroke-width="2" />
<path d="M2585,1212 L728,2427" stroke="blue" stroke-width="2" />
<path d="M1313,2911 L3961,2399" stroke="blue" stroke-width="2" />
<path d="M1575,3136 L828,3200" stroke="blue" stroke-width="2" />
<path d="M2733,2520 L775,1708" stroke="blue" stroke-width="2" />
<path d="M2273,3201 L3180,2427" stroke="blue" stroke-width="2" />
<path d="M2033,3196 L412,1450" stroke="blue" stroke-width="2" />
<path d="M4259,545 L1585,330" stroke="blue" stroke-width="2" />
<path d="M2700,203 L2803,2693" stroke="blue" stroke-width="2" />
<path d="M3249,239 L2671,1444" stroke="blue" stroke-width="2" />
<path d="M3916,2544 L383,750" stroke="blue" stroke-width="2" />
<path d="M2075,2260 L1666,2764" stroke="blue" stroke-width="2" />
<path d="M4230,2132 L2810,3159" stroke="blue" stroke-width="2" />
<path d="M410,2572 L2176,3077" stroke="blue" stroke-width="2" />
<path d="M2421,2094 L614,1485" stroke="blue" stroke-width="2" />
<path d="M367,1562 L3328,582" stroke="blue" stroke-width="2" />
<path d="M2877,197 L607,2024" stroke="blue" stroke-width="2" />
<path d="M1694,2833 L1310,2331" stroke="blue" stroke-width="2" />
<path d="M1770,2238 L3982,86" stroke="blue" stroke-width="2" />
<path d="M4286,2415 L3082,3166" stroke="blue" stroke-width="2" />
<path d="M422,1213 L440,1941" stroke="blue" stroke-width="2" />
<path d="M2481,1891 L863,2637" stroke="blue" stroke-width="2" />
<path d="M1175,2599 L3749,2677" stroke="blue" stroke-width="2" />
<path d="M2840,1224 L142,701" stroke="blue" stroke-width="2" />
<path d="M4063,1408 L3176,2969" stroke="blue" stroke-width="2" />
<path d="M345,1661 L935,1671" stroke="blue" stroke-width="2" />
<path d="M2213,1638 L2905,1080" stroke="blue" stroke-width="2" />
<path d="M2181,2125 L4110,2567" stroke="blue" stroke-width="2" />
<path d="M361,2299 L1269,3008" stroke="blue" stroke-width="2" />
<path d="M3211,2397 L3792,1361" stroke="blue" stroke-width="2" />
<path d="M38,1227 L1709,1949" stroke="blue" stroke-width="2" />
<path d="M430,2164 L2529,2616" stroke="blue" stroke-width="2" />
<path d="M244,3128 L3305,2648" stroke="blue" stroke-width="2" />
<path d="M626,548 L3026,3074" stroke="blue" stroke-width="2" />
<path d="M123,1738 L340,479" stroke="blue" stroke-width="2" />
<path d="M3960,374 L1810,579" stroke="blue" stroke-width="2" />
<path d="M430,1227 L1339,1908" stroke="blue" stroke-width="2" />
<path d="M926,1685 L4092,2725" stroke="blue" stroke-width="2" />
<path d="M2463,889 L544,592" stroke="blue" stroke-width="2" />
<path d="M3516,1909 L2793,888" stroke="blue" stroke-width="2" />
<path d="M3148,1051 L4104,398" stroke="blue" stroke-width="2" />
<path d="M3973,193 L2330,1415" stroke="blue" stroke-width="2" />
<path d="M2469,781 L2326,599" stroke="blue" stroke-width="2" />
<path d="M2873,1390 L2096,1313" stroke="blue" stroke-width="2" />
<path d="M3222,343 L1192,606" stroke="blue" stroke-width="2" />
<path d="M2181,3175 L2715,849" stroke="blue" stroke-width="2" />
<path d="M265,1189 L3029,553" stroke="blue" stroke-width="2" />
<path d="M2430,2292 L185,1914" stroke="blue" stroke-width="2" />
<path d="M754,2779 L2154,1917" stroke="blue" stroke-width="2" />
<path d="M2044,2150 L665,1386" stroke="blue" stroke-width="2" />
<path d="M3553,1177 L2010,153" stroke="blue" stroke-width="2" />
<path d="M1242,381 L1757,2545" stroke="blue" stroke-width="2" />
<path d="M2008,2104 L3746,1211" stroke="blue" stroke-width="2" />
<path d="M1634,1355 L627,1265" stroke="blue" stroke-width="2" />
<path d="M1573,732 L2828,2224" stroke="blue" stroke-width="2" />
<path d="M4114,1728 L3187,1170" stroke="blue" stroke-width="2" />
<path d="M2091,255 L1386,1209" stroke="blue" stroke-width="2" />
<path d="M389,2946 L21,958" stroke="blue" stroke-width="2" />
<path d="M1180,1232 L71,2838" stroke="blue" stroke-width="2" />
<path d="M2376,2093 L2399,1904" stroke="blue" stroke-width="2" />
<path d="M3199,2477 L3963,1697" stroke="blue" stroke-width="2" />
<path d="M4184,329 L1628,1065" stroke="blue" stroke-width="2" />
<path d="M3203,1856 L2525,435" stroke="blue" stroke-width="2" />
<path d="M940,2664 L1483,3118" stroke="blue" stroke-width="2" />
<path d="M849,1070 L3684,1012" stroke="blue" stroke-width="2" />
<path d="M4286,1776 L394,1930" stroke="blue" stroke-width="2" />
<path d="M741,1595 L3617,3226" stroke="blue" stroke-width="2" />
<path d="M3173,851 L2070,269" stroke="blue" stroke-width="2" />
<path d="M4142,2179 L3298,2015" stroke="blue" stroke-width="2" />
<path d="M3921,2801 L292,2921" stroke="blue" stroke-width="2" />
<path d="M2221,92 L1431,344" stroke="blue" stroke-width="2" />
<path d="M445,3102 L4179,247" stroke="blue" stroke-width="2" />
<path d="M3640,2312 L2446,2781" stroke="blue" stroke-width="2" />
<path d="M125,2779 L2191,326" stroke="blue" stroke-width="2" />
<path d="M3183,387 L1150,479" stroke="blue" stroke-width="2" />
<path d="M2255,2377 L3055,1570" stroke="blue" stroke-width="2" />
<path d="M2761,1960 L10,479" stroke="blue" stroke-width="2" />
<path d="M686,980 L4272,2308" stroke="blue" stroke-width="2" />
<path d="M4258,1683 L3531,1426" stroke="blue" stroke-width="2" />
<path d="M103,2599 L827,3212" stroke="blue" stroke-width="2" />
<path d="M3852,773 L4252,2910" stroke="blue" stroke-width="2" />
<path d="M1098,722 L2398,509" stroke="blue" stroke-width="2" />
<path d="M2908,2571 L3870,1719" stroke="blue" stroke-width="2" />
<path d="M3741,2541 L1235,265" stroke="blue" stroke-width="2" />
<path d="M3308,2465 L1354,549" stroke="blue" stroke-width="2" />
<path d="M1622,171 L1159,1416" stroke="blue" stroke-width="2" />
<path d="M51,3151 L3753,140" stroke="blue" stroke-width="2" />
<path d="M1266,349 L2369,871" stroke="blue" stroke-width="2" />
<path d="M2089,2156 L2406,505" stroke="blue" stroke-width="2" />
<path d="M3094,2032 L2263,158" stroke="blue" stroke-width="2" />
<path d="M3053,740 L3511,1076" stroke="blue" stroke-width="2" />
<path d="M1705,376 L3323,1399" stroke="blue" stroke-width="2" />
<path d="M1453,578 L2637,962" stroke="blue" stroke-width="2" />
<path d="M1044,1305 L2690,2633" stroke="blue" stroke-width="2" />
<path d="M2766,2576 L1999,471" stroke="blue" stroke-width="2" />
<path d="M3208,2511 L3949,1577" stroke="blue" stroke-width="2" />
<path d="M314,2694 L1997,3177" stroke="blue" stroke-width="2" />
<path d="M107,460 L1236,1755" stroke="blue" stroke-width="2" />
<path d="M1242,1116 L2255,2310" stroke="blue" stroke-width="2" />
<path d="M690,2635 L211,3052" stroke="blue" stroke-width="2" />
<path d="M783,2940 L4132,987" stroke="blue" stroke-width="2" />
<path d="M1352,2505 L806,1661" stroke="blue" stroke-width="2" />
<path d="M623,325 L342,263" stroke="blue" stroke-width="2" />
<path d="M4208,2817 L2417,662" stroke="blue" stroke-width="2" />
<path d="M3870,2553 L148,700" stroke="blue" stroke-width="2" />
<path d="M1366,1530 L233,2858" stroke="blue" stroke-width="2" />
<path d="M3,2372 L1809,517" stroke="blue" stroke-width="2" />
<path d="M703,884 L3009,1882" stroke="blue" stroke-width="2" />
<path d="M3280,1242 L1762,1885" stroke="blue" stroke-width="2" />
<path d="M1417,3023 L3956,156" stroke="blue" stroke-width="2" />
<path d="M4109,843 L3327,716" stroke="blue" stroke-width="2" />
<path d="M4190,1251 L853,2493" stroke="blue" stroke-width="2" />
<path d="M385,2476 L2923,2552" stroke="blue" stroke-width="2" />
<path d="M1931,193 L2683,3124" stroke="blue" stroke-width="2" />
<path d="M2450,1676 L2336,818" stroke="blue" stroke-width="2" />
<path d="M1924,461 L2706,2410" stroke="blue" stroke-width="2" />
<path d="M4206,3158 L2203,262" stroke="blue" stroke-width="2" />
<path d="M3151,2974 L4298,714" stroke="blue" stroke-width="2" />
<path d="M2146,788 L1464,2617" stroke="blue" stroke-width="2" />
<path d="M1075,2130 L772,1480" stroke="blue" stroke-width="2" />
<path d="M2974,2949 L3245,2531" stroke="blue" stroke-width="2" />
<path d="M1200,1539 L2546,715" stroke="blue" stroke-width="2" />
<path d="M1815,69 L2951,2530" stroke="blue" stroke-width="2" />
<path d="M262,1138 L392,1038" stroke="blue" stroke-width="2" />
<path d="M377,721 L1055,809" stroke="blue" stroke-width="2" />
<path d="M2030,2867 L4166,1619" stroke="blue" stroke-width="2" />
<path d="M3840,827 L814,3070" stroke="blue" stroke-width="2" />
<path d="M1544,2527 L920,576" stroke="blue" stroke-width="2" />
<path d="M613,1478 L3788,2872" stroke="blue" stroke-width="2" />
<path d="M3140,2039 L3265,2490" stroke="blue" stroke-width="2" />
<path d="M2279,3249 L2074,1178" stroke="blue" stroke-width="2" />
<path d="M1350,97 L1567,2865" stroke="blue" stroke-width="2" />
<path d="M920,1773 L792,1956" stroke="blue" stroke-width="2" />
<path d="M3819,649 L3324,678" stroke="blue" stroke-width="2" />
<path d="M2854,2564 L2253,76" stroke="blue" stroke-width="2" />
<path d="M1071,718 L3864,2828" stroke="blue" stroke-width="2" />
<path d="M299,524 L383,1805" stroke="blue" stroke-width="2" />
<path d="M2278,509 L1147,2014" stroke="blue" stroke-width="2" />
<path d="M3341,523 L3733,769" stroke="blue" stroke-width="2" />
<path d="M2115,1626 L2273,3079" stroke="blue" stroke-width="2" />
<path d="M952,1780 L1258,3017" stroke="blue" stroke-width="2" />
<path d="M4078,304 L1502,248" stroke="blue" stroke-width="2" />
<path d="M2275,937 L2408,646" stroke="blue" stroke-width="2" />
<path d="M4265,2567 L2760,3182" stroke="blue" stroke-width="2" />
<path d="M4045,1907 L3995,13" stroke="blue" stroke-width="2" />
<path d="M3975,266 L1379,2509" stroke="blue" stroke-width="2" />
<path d="M2826,2337 L1299,1242" stroke="blue" stroke-width="2" />
<path d="M60,3142 L2184,54" stroke="blue" stroke-width="2" />
<path d="M1227,432 L3254,2752" stroke="blue" stroke-width="2" />
<path d="M771,416 L3784,905" stroke="blue" stroke-width="2" />
<path d="M1187,2887 L1220,994" stroke="blue" stroke-width="2" />
<path d="M1042,1474 L4125,2075" stroke="blue" stroke-width="2" />
<path d="M2852,851 L265,472" stroke="blue" stroke-width="2" />
<path d="M4249,2984 L901,1553" stroke="blue" stroke-width="2" />
<path d="M4152,1248 L2359,2351" stroke="blue" stroke-width="2" />
<path d="M384,1078 L3724,1062" stroke="blue" stroke-width="2" />
<path d="M3593,1840 L2203,131" stroke="blue" stroke-width="2" />
<path d="M337,2298 L2500,2577" stroke="blue" stroke-width="2" />
<path d="M563,684 L4136,1997" stroke="blue" stroke-width="2" />
<path d="M1974,1128 L1407,277" stroke="blue" stroke-width="2" />
<path d="M1640,1121 L3686,2203" stroke="blue" stroke-width="2" />
<path d="M2516,2987 L3465,3250" stroke="blue" stroke-width="2" />
<path d="M3871,2492 L1791,994" stroke="blue" stroke-width="2" />
<path d="M3433,2962 L1459,1677" stroke="blue" stroke-width="2" />
<path d="M593,1894 L3689,1218" stroke="blue" stroke-width="2" />
<path d="M1464,2399 L3754,526" stroke="blue" stroke-width="2" />
<path d="M1600,567 L3360,2771" stroke="blue" stroke-width="2" />
<path d="M1126,632 L776,2418" stroke="blue" stroke-width="2" />
<path d="M3575,819 L1642,2754" stroke="blue" stroke-width="2" />
<path d="M3946,2793 L2493,3238" stroke="blue" stroke-width="2" />
<path d="M3423,2110 L1728,2485" stroke="blue" stroke-width="2" />
<path d="M38,521 L854,1353" stroke="blue" stroke-width="2" />
<path d="M261,1607 L1207,97" stroke="blue" stroke-width="2" />
<path d="M3192,556 L3018,2088" stroke="blue" stroke-width="2" />
<path d="M3584,556 L2462,128" stroke="blue" stroke-width="2" />
<path d="M3015,2418 L809,2671" stroke="blue" stroke-width="2" />
<path d="M337,2215 L3909,3069" stroke="blue" stroke-width="2" />
<path d="M1308,1133 L3567,249" stroke="blue" stroke-width="2" />
<path d="M1880,1192 L3136,807" stroke="blue" stroke-width="2" />
<path d="M3558,1536 L827,423" stroke="blue" stroke-width="2" />
<path d="M1109,1289 L1096,2221" stroke="blue" stroke-width="2" />
<path d="M1471,1283 L3488,2189" stroke="blue" stroke-width="2" />
<path d="M2605,1854 L471,660" stroke="blue" stroke-width="2" />
<path d="M742,2593 L1230,1171" stroke="blue" stroke-width="2" />
<path d="M3268,2858 L392,355" stroke="blue" stroke-width="2" />
<path d="M1809,569 L1716,916" stroke="blue" stroke-width="2" />
<path d="M3655,1237 L516,73" stroke="blue" stroke-width="2" />
<path d="M241,2251 L778,480" stroke="blue" stroke-width="2" />
<path d="M795,911 L1469,799" stroke="blue" stroke-width="2" />
<path d="M1611,3022 L3972,73" stroke="blue" stroke-width="2" />
<path d="M1018,382 L584,1056" stroke="blue" stroke-width="2" />
<path d="M2616,878 L2435,1975" stroke="blue" stroke-width="2" />
<path d="M2870,395 L855,2904" stroke="blue" stroke-width="2" />
<path d="M3208,1442 L1070,197" stroke="blue" stroke-width="2" />
<path d="M3772,1442 L1930,317" stroke="blue" stroke-width="2" />
<path d="M3970,1358 L3603,1792" stroke="blue" stroke-width="2" />
<path d="M2674,2541 L2285,584" stroke="blue" stroke-width="2" />
<path d="M4213,985 L2365,1594" stroke="blue" stroke-width="2" />
<path d="M2113,991 L1679,2848" stroke="blue" stroke-width="2" />
<path d="M3140,119 L192,269" stroke="blue" stroke-width="2" />
<path d="M257,1854 L308,1551" stroke="blue" stroke-width="2" />
<path d="M3463,583 L1875,2266" stroke="blue" stroke-width="2" />
<path d="M522,1573 L922,779" stroke="blue" stroke-width="2" />
<path d="M3289,3180 L1907,1176" stroke="blue" stroke-width="2" />
<path d="M2923,386 L393,2821" stroke="blue" stroke-width="2" />
<path d="M1516,1243 L1518,1727" stroke="blue" stroke-width="2" />
<path d="M1472,1468 L1249,1044" stroke="blue" stroke-width="2" />
<path d="M3395,2469 L845,426" stroke="blue" stroke-width="2" />
<path d="M1096,2062 L1968,470" stroke="blue" stroke-width="2" />
<path d="M3730,1569 L3171,2465" stroke="blue" stroke-width="2" />
<path d="M2132,411 L3073,1790" stroke="blue" stroke-width="2" />
<path d="M289,2322 L3629,3147" stroke="blue" stroke-width="2" />
<path d="M3710,663 L3243,693" stroke="blue" stroke-width="2" />
<path d="M2442,2151 L4301,1372" stroke="blue" stroke-width="2" />
<path d="M3874,209 L1953,3189" stroke="blue" stroke-width="2" />
<path d="M4010,941 L3744,2962" stroke="blue" stroke-width="2" />
<path d="M3890,2363 L3413,3150" stroke="blue" stroke-width="2" />
<path d="M2172,1509 L1632,99" stroke="blue" stroke-width="2" />
<path d="M2422,675 L1343,2757" stroke="blue" stroke-width="2" />
<path d="M1301,2199 L333,585" stroke="blue" stroke-width="2" />
<path d="M2000,1806 L1693,2511" stroke="blue" stroke-width="2" />
<path d="M1456,1542 L1987,1138" stroke="blue" stroke-width="2" />
<path d="M2647,1682 L2915,2957" stroke="blue" stroke-width="2" />
<path d="M277,2880 L752,1691" stroke="blue" stroke-width="2" />
<path d="M3589,1804 L3099,2653" stroke="blue" stroke-width="2" />
<path d="M1216,991 L176,645" stroke="blue" stroke-width="2" />
<path d="M2822,3188 L4302,1697" stroke="blue" stroke-width="2" />
<path d="M2579,850 L1563,1271" stroke="blue" stroke-width="2" />
<path d="M3864,1885 L4026,238" stroke="blue" stroke-width="2" />
<path d="M4238,2014 L1118,3244" stroke="blue" stroke-width="2" />
<path d="M746,202 L3105,2264" stroke="blue" stroke-width="2" />
<path d="M1986,789 L1846,920" stroke="blue" stroke-width="2" />
<path d="M2512,851 L1160,837" stroke="blue" stroke-width="2" />
<path d="M1135,404 L2951,1655" stroke="blue" stroke-width="2" />
<path d="M2276,2188 L2013,1690" stroke="blue" stroke-width="2" />
<path d="M1697,2825 L1767,2795" stroke="blue" stroke-width="2" />
<path d="M2673,2564 L1412,1749" stroke="blue" stroke-width="2" />
<path d="M955,2135 L2856,1119" stroke="blue" stroke-width="2" />
<path d="M801,516 L2094,1708" stroke="blue" stroke-width="2" />
<path d="M2663,412 L3858,1521" stroke="blue" stroke-width="2" />
<path d="M3469,456 L1398,2365" stroke="blue" stroke-width="2" />
<path d="M1535,202 L2072,2606" stroke="blue" stroke-width="2" />
<path d="M4030,1427 L452,2626" stroke="blue" stroke-width="2" />
<path d="M1118,844 L1235,2931" stroke="blue" stroke-width="2" />
<path d="M99,1194 L385,1054" stroke="blue" stroke-width="2" />
<path d="M311,731 L1939,772" stroke="blue" stroke-width="2" />
<path d="M1080,1223 L3678,1068" stroke="blue" stroke-width="2" />
<path d="M269,1991 L3538,300" stroke="blue" stroke-width="2" />
<path d="M141,3214 L2012,1412" stroke="blue" stroke-width="2" />
<path d="M4152,2784 L444,1387" stroke="blue" stroke-width="2" />
<path d="M4175,506 L4148,2656" stroke="blue" stroke-width="2" />
<path d="M1327,1490 L3784,2386" stroke="blue" stroke-width="2" />
<path d="M916,893 L3922,188" stroke="blue" stroke-width="2" />
<path d="M3994,2596 L2229,332" stroke="blue" stroke-width="2" />
<path d="M1113,1082 L2564,2373" stroke="blue" stroke-width="2" />
<path d="M1551,1428 L186,2601" stroke="blue" stroke-width="2" />
<path d="M208,124 L489,2218" stroke="blue" stroke-width="2" />
<path d="M107,961 L295,1798" stroke="blue" stroke-width="2" />
<path d="M3797,2528 L1470,1428" stroke="blue" stroke-width="2" />
<path d="M2559,71 L2518,1456" stroke="blue" stroke-width="2" />
<path d="M708,852 L2737,2906" stroke="blue" stroke-width="2" />
<path d="M1691,1858 L4024,1715" stroke="blue" stroke-width="2" />
<path d="M2653,339 L1713,1100" stroke="blue" stroke-width="2" />
<path d="M1057,1937 L4279,867" stroke="blue" stroke-width="2" />
<path d="M2225,1416 L3496,1762" stroke="blue" stroke-width="2" />
<path d="M3306,2256 L2113,1837" stroke="blue" stroke-width="2" />
<path d="M35,1141 L1036,958" stroke="blue" stroke-width="2" />
<path d="M2401,1928 L2774,2803" stroke="blue" stroke-width="2" />
<path d="M2515,1221 L2866,384" stroke="blue" stroke-width="2" />
<path d="M3974,2638 L2416,959" stroke="blue" stroke-width="2" />
<path d="M125,2967 L1836,3174" stroke="blue" stroke-width="2" />
<path d="M1656,1655 L1959,2391" stroke="blue" stroke-width="2" />
<path d="M1683,1504 L2991,805" stroke="blue" stroke-width="2" />
<path d="M1987,2497 L2570,1786" stroke="blue" stroke-width="2" />
<path d="M2995,1780 L4029,671" stroke="blue" stroke-width="2" />
<path d="M1357,2669 L2712,2449" stroke="blue" stroke-width="2" />
<path d="M2281,1345 L2587,478" stroke="blue" stroke-width="2" />
<path d="M4183,2740 L3467,1913" stroke="blue" stroke-width="2" />
<path d="M1718,2785 L63,1678" stroke="blue" stroke-width="2" />
<path d="M2143,1642 L869,2032" stroke="blue" stroke-width="2" />
<path d="M3172,386 L2883,2008" stroke="blue" stroke-width="2" />
<path d="M4108,1374 L1259,256" stroke="blue" stroke-width="2" />
<path d="M2247,998 L2783,2085" stroke="blue" stroke-width="2" />
<path d="M2775,111 L976,2910" stroke="blue" stroke-width="2" />
<path d="M409,40 L2086,3170" stroke="blue" stroke-width="2" />
<path d="M283,2592 L2813,564" stroke="blue" stroke-width="2" />
<path d="M2678,50 L3929,2804" stroke="blue" stroke-width="2" />
<path d="M3851,1313 L3942,1431" stroke="blue" stroke-width="2" />
<path d="M4024,2386 L58,2770" stroke="blue" stroke-width="2" />
<path d="M2303,2673 L379,1768" stroke="blue" stroke-width="2" />
<path d="M3945,1855 L1960,2576" stroke="blue" stroke-width="2" />
<path d="M291,2016 L4137,2191" stroke="blue" stroke-width="2" />
<path d="M1158,2080 L4052,2978" stroke="blue" stroke-width="2" />
<path d="M3392,1949 L2471,420" stroke="blue" stroke-width="2" />
<path d="M0,0 L4304,0" stroke="red" stroke-width="10" />
<path d="M4304,0 L4304,3262" stroke="red" stroke-width="10" />
<path d="M0,3262 L4304,3262" stroke="red" stroke-width="10" />
<path d="M0,3262 L0,0" stroke="red" stroke-width="10" />
</svg>