<?xml version="1.0" encoding="UTF-8"?>
<svg xmlns="http://www.w3.org/2000/svg" xmlns:xlink="http://www.w3.org/1999/xlink"
     width="10000" height="10000" viewBox="0 0 10000 10000">
<defs>
</defs>
<path d="M3338,2256 L43,401" stroke="blue" stroke-width="2" />
<path d="M693,866 L428,4409" stroke="blue" stroke-width="2" />
<path d="M1005,3012 L673,5612" stroke="blue" stroke-width="2" />
<path d="M1538,5351 L3041,3099" stroke="blue" stroke-width="2" />
<path d="M3810,1300 L3496,441" stroke="blue" stroke-width="2" />
<path d="M4555,1115 L4682,2933" stroke="blue" stroke-width="2" />
<path d="M2092,554 L1023,1483" stroke="blue" stroke-width="2" />
<path d="M478,2788 L1572,781" stroke="blue" stroke-width="2" />
<path d="M1440,2337 L2638,3134" stroke="blue" stroke-width="2" />
<path d="M2533,5365 L3697,1025" stroke="blue" stroke-width="2" />
<path d="M4167,3792 L1394,2900" stroke="blue" stroke-width="2" />
<path d="M2675,306 L4079,3139" stroke="blue" stroke-width="2" />
<path d="M3515,3808 L2759,4593" stroke="blue" stroke-width="2" />
<path d="M4308,2566 L791,2926" stroke="blue" stroke-width="2" />
<path d="M2463,274 L279,5597" stroke="blue" stroke-width="2" />
<path d="M2794,3604 L3855,2904" stroke="blue" stroke-width="2" />
<path d="M1221,480 L3916,3584" stroke="blue" stroke-width="2" />
<path d="M684,371 L916,2859" stroke="blue" stroke-width="2" />
<path d="M726,1512 L4739,3701" stroke="blue" stroke-width="2" />
<path d="M344,1182 L3409,5323" stroke="blue" stroke-width="2" />
<path d="M3216,5168 L3150,4932" stroke="blue" stroke-width="2" />
<path d="M2637,5055 L1173,5416" stroke="blue" stroke-width="2" />
<path d="M2558,2955 L3602,2675" stroke="blue" stroke-width="2" />
<path d="M2532,1772 L3937,2161" stroke="blue" stroke-width="2" />
<path d="M1477,3484 L1306,1352" stroke="blue" stroke-width="2" />
<path d="M1946,459 L4118,1256" stroke="blue" stroke-width="2" />
<path d="M1144,2362 L597,4473" stroke="blue" stroke-width="2" />
<path d="M1587,3963 L3026,620" stroke="blue" stroke-width="2" />
<path d="M4280,3101 L3469,1395" stroke="blue" stroke-width="2" />
<path d="M4265,4011 L1153,765" stroke="blue" stroke-width="2" />
<path d="M1564,896 L4732,2806" stroke="blue" stroke-width="2" />
<path d="M983,3915 L3643,1018" stroke="blue" stroke-width="2" />
<path d="M436,4389 L1923,32" stroke="blue" stroke-width="2" />
<path d="M2603,4355 L354,3319" stroke="blue" stroke-width="2" />
<path d="M2388,5253 L4198,552" stroke="blue" stroke-width="2" />
<path d="M1556,5694 L3427,5654" stroke="blue" stroke-width="2" />
<path d="M2833,3770 L1393,2080" stroke="blue" stroke-width="2" />
<path d="M4018,3628 L789,3527" stroke="blue" stroke-width="2" />
<path d="M3881,4364 L4031,5094" stroke="blue" stroke-width="2" />
<path d="M4653,1031 L3426,1233" stroke="blue" stroke-width="2" />
<path d="M4231,2202 L2965,1404" stroke="blue" stroke-width="2" />
<path d="M2091,461 L4729,3986" stroke="blue" stroke-width="2" />
<path d="M555,5403 L2517,1499" stroke="blue" stroke-width="2" />
<path d="M2995,3266 L2357,4556" stroke="blue" stroke-width="2" />
<path d="M3955,1242 L3787,5047" stroke="blue" stroke-width="2" />
<path d="M4256,2606 L1305,2698" stroke="blue" stroke-width="2" />
<path d="M1336,998 L3743,3370" stroke="blue" stroke-width="2" />
<path d="M3512,4224 L75,3526" stroke="blue" stroke-width="2" />
<path d="M585,4958 L1157,2412" stroke="blue" stroke-width="2" />
<path d="M49,5601 L2765,1014" stroke="blue" stroke-width="2" />
<path d="M4192,580 L818,3551" stroke="blue" stroke-width="2" />
<path d="M368,3534 L4324,541" stroke="blue" stroke-width="2" />
<path d="M928,3072 L3688,4692" stroke="blue" stroke-width="2" />
<path d="M3020,284 L799,4866" stroke="blue" stroke-width="2" />
<path d="M3725,407 L3285,834" stroke="blue" stroke-width="2" />
<path d="M285,5345 L2799,5559" stroke="blue" stroke-width="2" />
<path d="M2027,4046 L1384,199" stroke="blue" stroke-width="2" />
<path d="M1992,2015 L2012,78" stroke="blue" stroke-width="2" />
<path d="M4229,567 L453,1518" stroke="blue" stroke-width="2" />
<path d="M3087,3277 L4708,2312" stroke="blue" stroke-width="2" />
<path d="M2058,500 L1762,347" stroke="blue" stroke-width="2" />
<path d="M4091,5317 L4620,4681" stroke="blue" stroke-width="2" />
<path d="M3926,1054 L1424,4656" stroke="blue" stroke-width="2" />
<path d="M1184,753 L2260,2060" stroke="blue" stroke-width="2" />
<path d="M124,1862 L4236,3837" stroke="blue" stroke-width="2" />
<path d="M2624,3441 L2253,5624" stroke="blue" stroke-width="2" />
<path d="M3310,479 L764,1143" stroke="blue" stroke-width="2" />
<path d="M4292,4723 L4471,791" stroke="blue" stroke-width="2" />
<path d="M4123,367 L110,3971" stroke="blue" stroke-width="2" />
<path d="M2073,3749 L215,4870" stroke="blue" stroke-width="2" />
<path d="M4572,4856 L2747,2598" stroke="blue" stroke-width="2" />
<path d="M1343,1013 L4237,2148" stroke="blue" stroke-width="2" />
<path d="M158,1453 L4507,3188" stroke="blue" stroke-width="2" />
<path d="M1967,2150 L12,4503" stroke="blue" stroke-width="2" />
<path d="M394,320 L257,3688" stroke="blue" stroke-width="2" />
<path d="M1562,4853 L1272,1071" stroke="blue" stroke-width="2" />
<path d="M304,3893 L1364,1272" stroke="blue" stroke-width="2" />
<path d="M49,1630 L3420,513" stroke="blue" stroke-width="2" />
<path d="M1507,1383 L1177,1164" stroke="blue" stroke-width="2" />
<path d="M2777,2830 L40,3347" stroke="blue" stroke-width="2" />
<path d="M4573,3714 L1608,2148" stroke="blue" stroke-width="2" />
<path d="M2612,5027 L663,3848" stroke="blue" stroke-width="2" />
<path d="M3654,1610 L2168,4240" stroke="blue" stroke-width="2" />
<path d="M4697,5723 L17,135" stroke="blue" stroke-width="2" />
<path d="M2654,5137 L1830,4012" stroke="blue" stroke-width="2" />
<path d="M2339,590 L489,4490" stroke="blue" stroke-width="2" />
<path d="M3728,3832 L1147,2966" stroke="blue" stroke-width="2" />
<path d="M1290,1088 L3042,2979" stroke="blue" stroke-width="2" />
<path d="M3248,3761 L436,4742" stroke="blue" stroke-width="2" />
<path d="M2878,604 L135,1680" stroke="blue" stroke-width="2" />
<path d="M2838,5095 L2384,2274" stroke="blue" stroke-width="2" />
<path d="M1716,852 L3515,344" stroke="blue" stroke-width="2" />
<path d="M3562,69 L437,5554" stroke="blue" stroke-width="2" />
<path d="M4048,5625 L229,1974" stroke="blue" stroke-width="2" />
<path d="M2334,2235 L1898,4396" stroke="blue" stroke-width="2" />
<path d="M3718,4953 L3524,3014" stroke="blue" stroke-width="2" />
<path d="M947,3836 L3578,5378" stroke="blue" stroke-width="2" />
<path d="M2585,770 L356,2306" stroke="blue" stroke-width="2" />
<path d="M1671,995 L2189,3009" stroke="blue" stroke-width="2" />
<path d="M4752,3336 L303,3109" stroke="blue" stroke-width="2" />
<path d="M1053,4379 L3573,3054" stroke="blue" stroke-width="2" />
<path d="M2333,5607 L1,1013" stroke="blue" stroke-width="2" />
<path d="M1704,1677 L723,1223" stroke="blue" stroke-width="2" />
<path d="M4166,5352 L3839,107" stroke="blue" stroke-width="2" />
<path d="M4277,750 L4655,3181" stroke="blue" stroke-width="2" />
<path d="M2992,310 L1517,2616" stroke="blue" stroke-width="2" />
<path d="M3048,2634 L1171,2414" stroke="blue" stroke-width="2" />
<path d="M2965,2149 L3952,4477" stroke="blue" stroke-width="2" />
<path d="M1144,3568 L2532,1406" stroke="blue" stroke-width="2" />
<path d="M3011,2265 L2618,284" stroke="blue" stroke-width="2" />
<path d="M19,4303 L620,5345" stroke="blue" stroke-width="2" />
<path d="M2891,1069 L1167,4851" stroke="blue" stroke-width="2" />
<path d="M3466,873 L1607,920" stroke="blue" stroke-width="2" />
<path d="M449,1803 L1850,5025" stroke="blue" stroke-width="2" />
<path d="M3141,2536 L431,925" stroke="blue" stroke-width="2" />
<path d="M4420,412 L3059,5667" stroke="blue" stroke-width="2" />
<path d="M2764,3129 L1528,34" stroke="blue" stroke-width="2" />
<path d="M4165,1900 L564,3298" stroke="blue" stroke-width="2" />
<path d="M1601,15 L1204,782" stroke="blue" stroke-width="2" />
<path d="M4444,5304 L3566,4613" stroke="blue" stroke-width="2" />
<path d="M386,5638 L287,2043" stroke="blue" stroke-width="2" />
<path d="M4392,3905 L1208,522" stroke="blue" stroke-width="2" />
<path d="M1486,3232 L4200,5383" stroke="blue" stroke-width="2" />
<path d="M4680,1134 L2350,4803" stroke="blue" stroke-width="2" />
<path d="M2223,4617 L3916,5767" stroke="blue" stroke-width="2" />
<path d="M2865,643 L310,2652" stroke="blue" stroke-width="2" />
<path d="M707,5385 L4745,92" stroke="blue" stroke-width="2" />
<path d="M4334,3102 L4576,5436" stroke="blue" stroke-width="2" />
<path d="M1265,4374 L462,355" stroke="blue" stroke-width="2" />
<path d="M2525,2932 L2670,1296" stroke="blue" stroke-width="2" />
<path d="M459,2452 L4576,1731" stroke="blue" stroke-width="2" />
<path d="M543,5038 L1160,5600" stroke="blue" stroke-width="2" />
<path d="M911,1252 L379,2854" stroke="blue" stroke-width="2" />
<path d="M3056,1241 L703,165" stroke="blue" stroke-width="2" />
<path d="M4673,887 L3077,5024" stroke="blue" stroke-width="2" />
<path d="M575,1399 L551,339" stroke="blue" stroke-width="2" />
<path d="M2029,1966 L4623,1098" stroke="blue" stroke-width="2" />
<path d="M2598,5757 L3357,5255" stroke="blue" stroke-width="2" />
<path d="M4483,312 L3349,3937" stroke="blue" stroke-width="2" />
<path d="M991,1119 L3502,141" stroke="blue" stroke-width="2" />
<path d="M2716,5586 L4327,4952" stroke="blue" stroke-width="2" />
<path d="M2674,4439 L790,2023" stroke="blue" stroke-width="2" />
<path d="M1412,1539 L2486,5029" stroke="blue" stroke-width="2" />
<path d="M3613,4636 L1148,2766" stroke="blue" stroke-width="2" />
<path d="M661,1051 L1244,4911" stroke="blue" stroke-width="2" />
<path d="M1481,2137 L2061,3580" stroke="blue" stroke-width="2" />
<path d="M3815,1250 L3946,3702" stroke="blue" stroke-width="2" />
<path d="M4184,1201 L536,1474" stroke="blue" stroke-width="2" />
<path d="M569,1926 L1019,648" stroke="blue" stroke-width="2" />
<path d="M557,4445 L1018,1071" stroke="blue" stroke-width="2" />
<path d="M922,4118 L3029,2358" stroke="blue" stroke-width="2" />
<path d="M3426,3862 L3852,5767" stroke="blue" stroke-width="2" />
<path d="M3986,122 L204,5202" stroke="blue" stroke-width="2" />
<path d="M1809,1571 L3017,3700" stroke="blue" stroke-width="2" />
<path d="M3667,827 L4257,3664" stroke="blue" stroke-width="2" />
<path d="M2567,259 L4648,765" stroke="blue" stroke-width="2" />
<path d="M293,1522 L178,3697" stroke="blue" stroke-width="2" />
<path d="M2955,4918 L415,4832" stroke="blue" stroke-width="2" />
<path d="M816,2825 L2268,1429" stroke="blue" stroke-width="2" />
<path d="M2841,1977 L2947,5517" stroke="blue" stroke-width="2" />
<path d="M909,2362 L4557,2040" stroke="blue" stroke-width="2" />
<path d="M2417,426 L502,2265" stroke="blue" stroke-width="2" />
<path d="M3350,2258 L3330,3116" stroke="blue" stroke-width="2" />
<path d="M3689,3161 L3089,2431" stroke="blue" stroke-width="2" />
<path d="M1869,983 L1126,4579" stroke="blue" stroke-width="2" />
<path d="M4658,5445 L3655,2107" stroke="blue" stroke-width="2" />
<path d="M2656,4695 L4174,74" stroke="blue" stroke-width="2" />
<path d="M333,5363 L4544,1462" stroke="blue" stroke-width="2" />
<path d="M2277,302 L669,4288" stroke="blue" stroke-width="2" />
<path d="M3458,5313 L4471,4125" stroke="blue" stroke-width="2" />
<path d="M3276,921 L3167,3841" stroke="blue" stroke-width="2" />
<path d="M3859,5147 L1565,3476" stroke="blue" stroke-width="2" />
<path d="M532,29 L2727,2341" stroke="blue" stroke-width="2" />
<path d="M1946,618 L2505,4097" stroke="blue" stroke-width="2" />
<path d="M2146,5617 L2984,1953" stroke="blue" stroke-width="2" />
<path d="M147,4616 L1953,4294" stroke="blue" stroke-width="2" />
<path d="M2605,2532 L1858,874" stroke="blue" stroke-width="2" />
<path d="M1699,3100 L4554,1336" stroke="blue" stroke-width="2" />
<path d="M2165,4581 L411,3879" stroke="blue" stroke-width="2" />
<path d="M1694,551 L940,4653" stroke="blue" stroke-width="2" />
<path d="M1356,87 L160,2001" stroke="blue" stroke-width="2" />
<path d="M979,5519 L4528,4277" stroke="blue" stroke-width="2" />
<path d="M1182,3333 L4323,2964" stroke="blue" stroke-width="2" />
<path d="M2126,4242 L2037,608" stroke="blue" stroke-width="2" />
<path d="M1238,1987 L1541,196" stroke="blue" stroke-width="2" />
<path d="M122,2696 L1614,1676" stroke="blue" stroke-width="2" />
<path d="M1136,3722 L2714,3934" stroke="blue" stroke-width="2" />
<path d="M4039,268 L3330,514" stroke="blue" stroke-width="2" />
<path d="M580,514 L4542,4248" stroke="blue" stroke-width="2" />
<path d="M3435,245 L2910,4413" stroke="blue" stroke-width="2" />
<path d="M3655,1610 L4125,1728" stroke="blue" stroke-width="2" />
<path d="M4214,2972 L2416,2993" stroke="blue" stroke-width="2" />
<path d="M4570,510 L2185,2967" stroke="blue" stroke-width="2" />
<path d="M34,4824 L3533,4883" stroke="blue" stroke-width="2" />
<path d="M3260,1276 L2923,4413" stroke="blue" stroke-width="2" />
<path d="M290,4732 L3087,2407" stroke="blue" stroke-width="2" />
<path d="M1208,4902 L1617,1161" stroke="blue" stroke-width="2" />
<path d="M2289,5046 L1621,4093" stroke="blue" stroke-width="2" />
<path d="M4472,2656 L2805,431" stroke="blue" stroke-width="2" />
<path d="M1821,5291 L1938,4593" stroke="blue" stroke-width="2" />
<path d="M969,1053 L1666,2306" stroke="blue" stroke-width="2" />
<path d="M2762,230 L3904,4944" stroke="blue" stroke-width="2" />
<path d="M1622,569 L2078,4418" stroke="blue" stroke-width="2" />
<path d="M2957,2556 L3585,1339" stroke="blue" stroke-width="2" />
<path d="M3916,993 L2979,303" stroke="blue" stroke-width="2" />
<path d="M4514,342 L94,2260" stroke="blue" stroke-width="2" />
<path d="M3985,436 L3591,5266" stroke="blue" stroke-width="2" />
<path d="M1216,1970 L233,3813" stroke="blue" stroke-width="2" />
<path d="M2291,1233 L112,4000" stroke="blue" stroke-width="2" />
<path d="M4661,900 L213,2550" stroke="blue" stroke-width="2" />
<path d="M3130,1151 L465,2219" stroke="blue" stroke-width="2" />
<path d="M3328,1032 L320,515" stroke="blue" stroke-width="2" />
<path d="M4009,4790 L1791,4702" stroke="blue" stroke-width="2" />
<path d="M340,285 L4723,117" stroke="blue" stroke-width="2" />
<path d="M210,2497 L4402,408" stroke="blue" stroke-width="2" />
<path d="M4648,2926 L741,3265" stroke="blue" stroke-width="2" />
<path d="M927,1100 L3776,3711" stroke="blue" stroke-width="2" />
<path d="M3753,287 L100,1131" stroke="blue" stroke-width="2" />
<path d="M2089,1096 L3274,2459" stroke="blue" stroke-width="2" />
<path d="M1472,2286 L3659,3517" stroke="blue" stroke-width="2" />
<path d="M3899,3023 L1336,4195" stroke="blue" stroke-width="2" />
<path d="M105,4654 L2987,697" stroke="blue" stroke-width="2" />
<path d="M1349,4050 L4285,3689" stroke="blue" stroke-width="2" />
<path d="M937,4757 L3497,4436" stroke="blue" stroke-width="2" />
<path d="M3166,4672 L1167,4822" stroke="blue" stroke-width="2" />
<path d="M4490,5381 L830,5571" stroke="blue" stroke-width="2" />
<path d="M3052,285 L2171,1628" stroke="blue" stroke-width="2" />
<path d="M2727,599 L2443,4901" stroke="blue" stroke-width="2" />
<path d="M3490,2022 L540,4803" stroke="blue" stroke-width="2" />
<path d="M2091,2132 L1901,1077" stroke="blue" stroke-width="2" />
<path d="M4701,2217 L3839,4409" stroke="blue" stroke-width="2" />
<path d="M2182,1208 L44,2264" stroke="blue" stroke-width="2" />
<path d="M898,3025 L3243,5395" stroke="blue" stroke-width="2" />
<path d="M4124,3750 L2681,4604" stroke="blue" stroke-width="2" />
<path d="M3585,3136 L3092,3419" stroke="blue" stroke-width="2" />
<path d="M4468,112 L3821,403" stroke="blue" stroke-width="2" />
<path d="M2939,305 L1959,2768" stroke="blue" stroke-width="2" />
<path d="M2572,3258 L1878,3269" stroke="blue" stroke-width="2" />
<path d="M372,13 L233,2017" stroke="blue" stroke-width="2" />
<path d="M3797,4255 L1816,1725" stroke="blue" stroke-width="2" />
<path d="M1493,1532 L1937,3713" stroke="blue" stroke-width="2" />
<path d="M3443,2224 L2151,2773" stroke="blue" stroke-width="2" />
<path d="M3061,2507 L1694,1287" stroke="blue" stroke-width="2" />
<path d="M1299,5167 L1395,1286" stroke="blue" stroke-width="2" />
<path d="M209,4306 L4372,2746" stroke="blue" stroke-width="2" />
<path d="M1734,3066 L96,2954" stroke="blue" stroke-width="2" />
<path d="M4228,4409 L2110,3847" stroke="blue" stroke-width="2" />
<path d="M1062,245 L3109,123" stroke="blue" stroke-width="2" />
<path d="M192,1704 L592,5335" stroke="blue" stroke-width="2" />
<path d="M3060,5417 L3063,623" stroke="blue" stroke-width="2" />
<path d="M2182,1038 L1764,1509" stroke="blue" stroke-width="2" />
<path d="M4593,3685 L482,3571" stroke="blue" stroke-width="2" />
<path d="M935,5582 L742,930" stroke="blue" stroke-width="2" />
<path d="M194,2130 L1676,3773" stroke="blue" stroke-width="2" />
<path d="M993,62 L2092,4349" stroke="blue" stroke-width="2" />
<path d="M3614,1433 L1962,4959" stroke="blue" stroke-width="2" />
<path d="M2498,3565 L4564,5510" stroke="blue" stroke-width="2" />
<path d="M2340,4137 L1309,2598" stroke="blue" stroke-width="2" />
<path d="M1347,4722 L3502,1187" stroke="blue" stroke-width="2" />
<path d="M2267,1841 L1404,1442" stroke="blue" stroke-width="2" />
<path d="M3304,2488 L3470,2418" stroke="blue" stroke-width="2" />
<path d="M1042,5020 L4040,5287" stroke="blue" stroke-width="2" />
<path d="M2229,4712 L2262,446" stroke="blue" stroke-width="2" />
<path d="M4337,5634 L1072,5511" stroke="blue" stroke-width="2" />
<path d="M1287,3949 L3259,4313" stroke="blue" stroke-width="2" />
<path d="M2164,5224 L565,5253" stroke="blue" stroke-width="2" />
<path d="M1267,2821 L4214,3944" stroke="blue" stroke-width="2" />
<path d="M3345,1741 L4171,2938" stroke="blue" stroke-width="2" />
<path d="M3036,689 L729,2184" stroke="blue" stroke-width="2" />
<path d="M361,1848 L611,4370" stroke="blue" stroke-width="2" />
<path d="M4443,5439 L47,5707" stroke="blue" stroke-width="2" />
<path d="M3866,1898 L2184,5396" stroke="blue" stroke-width="2" />
<path d="M337,4865 L3026,4426" stroke="blue" stroke-width="2" />
<path d="M3725,3285 L3926,4654" stroke="blue" stroke-width="2" />
<path d="M2616,5531 L3752,1437" stroke="blue" stroke-width="2" />
<path d="M1131,2623 L505,3787" stroke="blue" stroke-width="2" />
<path d="M3139,2704 L3926,5401" stroke="blue" stroke-width="2" />
<path d="M403,507 L1587,1906" stroke="blue" stroke-width="2" />
<path d="M2878,4810 L3321,1402" stroke="blue" stroke-width="2" />
<path d="M2088,3356 L4606,5146" stroke="blue" stroke-width="2" />
<path d="M1064,3325 L1054,3013" stroke="blue" stroke-width="2" />
<path d="M4266,1119 L688,5102" stroke="blue" stroke-width="2" />
<path d="M3991,2109 L177,3342" stroke="blue" stroke-width="2" />
<path d="M2605,276 L4184,4064" stroke="blue" stroke-width="2" />
<path d="M4484,3801 L1645,3559" stroke="blue" stroke-width="2" />
<path d="M3076,4509 L1559,5419" stroke="blue" stroke-width="2" />
<path d="M614,4946 L612,2475" stroke="blue" stroke-width="2" />
<path d="M3881,1327 L16,3007" stroke="blue" stroke-width="2" />
<path d="M4435,1335 L4173,4852" stroke="blue" stroke-width="2" />
<path d="M3081,2037 L3487,5595" stroke="blue" stroke-width="2" />
<path d="M4649,5608 L34,1162" stroke="blue" stroke-width="2" />
<path d="M223,1751 L3534,1435" stroke="blue" stroke-width="2" />
<path d="M3482,3823 L250,4496" stroke="blue" stroke-width="2" />
<path d="M2776,2394 L4,4917" stroke="blue" stroke-width="2" />
<path d="M1895,1331 L1196,3097" stroke="blue" stroke-width="2" />
<path d="M3766,4272 L961,4396" stroke="blue" stroke-width="2" />
<path d="M4666,2766 L3325,4918" stroke="blue" stroke-width="2" />
<path d="M1250,3451 L3025,4178" stroke="blue" stroke-width="2" />
<path d="M3425,2569 L2741,1319" stroke="blue" stroke-width="2" />
<path d="M748,5594 L624,5258" stroke="blue" stroke-width="2" />
<path d="M710,3680 L2293,4050" stroke="blue" stroke-width="2" />
<path d="M1617,4493 L148,5272" stroke="blue" stroke-width="2" />
<path d="M3488,1614 L1891,1752" stroke="blue" stroke-width="2" />
<path d="M2711,1046 L3724,411" stroke="blue" stroke-width="2" />
<path d="M2345,890 L1517,953" stroke="blue" stroke-width="2" />
<path d="M4708,2280 L4461,822" stroke="blue" stroke-width="2" />
<path d="M1282,410 L1752,2996" stroke="blue" stroke-width="2" />
<path d="M806,5062 L1990,4177" stroke="blue" stroke-width="2" />
<path d="M4577,5720 L1052,4737" stroke="blue" stroke-width="2" />
<path d="M4237,3238 L2336,4507" stroke="blue" stroke-width="2" />
<path d="M1082,2785 L2634,3377" stroke="blue" stroke-width="2" />
<path d="M4151,2441 L2521,2435" stroke="blue" stroke-width="2" />
<path d="M1082,5754 L806,2017" stroke="blue" stroke-width="2" />
<path d="M2763,1081 L1261,809" stroke="blue" stroke-width="2" />
<path d="M1432,1566 L2090,405" stroke="blue" stroke-width="2" />
<path d="M3591,598 L1762,3328" stroke="blue" stroke-width="2" />
<path d="M3662,3586 L3620,5118" stroke="blue" stroke-width="2" />
<path d="M1662,4823 L4695,4656" stroke="blue" stroke-width="2" />
<path d="M2625,549 L3593,2506" stroke="blue" stroke-width="2" />
<path d="M966,2195 L1552,4472" stroke="blue" stroke-width="2" />
<path d="M2542,5748 L4520,798" stroke="blue" stroke-width="2" />
<path d="M801,4024 L46,5250" stroke="blue" stroke-width="2" />
<path d="M2802,4121 L2249,2597" stroke="blue" stroke-width="2" />
<path d="M4063,5612 L2803,1615" stroke="blue" stroke-width="2" />
<path d="M516,4721 L2740,3776" stroke="blue" stroke-width="2" />
<path d="M3681,2241 L52,4406" stroke="blue" stroke-width="2" />
<path d="M3682,4971 L1349,4697" stroke="blue" stroke-width="2" />
<path d="M3704,315 L849,3783" stroke="blue" stroke-width="2" />
<path d="M4587,3576 L948,390" stroke="blue" stroke-width="2" />
<path d="M1845,3951 L3831,973" stroke="blue" stroke-width="2" />
<path d="M3047,1938 L3369,2068" stroke="blue" stroke-width="2" />
<path d="M2789,1529 L822,2693" stroke="blue" stroke-width="2" />
<path d="M230,3766 L2159,5405" stroke="blue" stroke-width="2" />
<path d="M3220,1776 L4587,2586" stroke="blue" stroke-width="2" />
<path d="M1138,3722 L3631,3008" stroke="blue" stroke-width="2" />
<path d="M3944,1966 L1966,3818" stroke="blue" stroke-width="2" />
<path d="M2634,2781 L3092,3123" stroke="blue" stroke-width="2" />
<path d="M2206,2698 L354,3572" stroke="blue" stroke-width="2" />
<path d="M1672,1597 L3901,1139" stroke="blue" stroke-width="2" />
<path d="M1918,2680 L3321,3072" stroke="blue" stroke-width="2" />
<path d="M1511,442 L2306,3374" stroke="blue" stroke-width="2" />
<path d="M3145,5647 L3295,5678" stroke="blue" stroke-width="2" />
<path d="M3796,5478 L1453,5703" stroke="blue" stroke-width="2" />
<path d="M1387,1442 L1191,2928" stroke="blue" stroke-width="2" />
<path d="M4391,1502 L1863,2291" stroke="blue" stroke-width="2" />
<path d="M1994,4371 L3435,2056" stroke="blue" stroke-width="2" />
<path d="M631,3768 L737,2172" stroke="blue" stroke-width="2" />
<path d="M1507,5347 L129,906" stroke="blue" stroke-width="2" />
<path d="M403,3444 L4749,5331" stroke="blue" stroke-width="2" />
<path d="M1949,440 L1172,1063" stroke="blue" stroke-width="2" />
<path d="M4102,1902 L829,4118" stroke="blue" stroke-width="2" />
<path d="M2547,2106 L3964,3173" stroke="blue" stroke-width="2" />
<path d="M4249,4758 L1472,4712" stroke="blue" stroke-width="2" />
<path d="M3248,409 L1653,505" stroke="blue" stroke-width="2" />
<path d="M3516,969 L3501,2415" stroke="blue" stroke-width="2" />
<path d="M1512,2625 L746,1798" stroke="blue" stroke-width="2" />
<path d="M470,4379 L877,2528" stroke="blue" stroke-width="2" />
<path d="M4675,816 L3121,2180" stroke="blue" stroke-width="2" />
<path d="M4453,1655 L2596,5095" stroke="blue" stroke-width="2" />
<path d="M989,5714 L2929,343" stroke="blue" stroke-width="2" />
<path d="M16,5337 L3664,4814" stroke="blue" stroke-width="2" />
<path d="M4590,1660 L3672,104" stroke="blue" stroke-width="2" />
<path d="M463,5692 L1157,5676" stroke="blue" stroke-width="2" />
<path d="M1753,2783 L8,4468" stroke="blue" stroke-width="2" />
<path d="M2358,2894 L2499,1830" stroke="blue" stroke-width="2" />
<path d="M4306,4659 L4171,5402" stroke="blue" stroke-width="2" />
<path d="M310,2438 L4561,947" stroke="blue" stroke-width="2" />
<path d="M430,5006 L2522,2663" stroke="blue" stroke-width="2" />
<path d="M553,1560 L1171,1148" stroke="blue" stroke-width="2" />
<path d="M33,4916 L1835,3694" stroke="blue" stroke-width="2" />
<path d="M1542,4608 L1219,4726" stroke="blue" stroke-width="2" />
<path d="M1653,1305 L1998,5172" stroke="blue" stroke-width="2" />
<path d="M1854,5695 L4486,67" stroke="blue" stroke-width="2" />
<path d="M3112,887 L4322,3679" stroke="blue" stroke-width="2" />
<path d="M4502,4564 L2662,2512" stroke="blue" stroke-width="2" />
<path d="M125,2074 L2508,920" stroke="blue" stroke-width="2" />
<path d="M2623,1323 L3832,2372" stroke="blue" stroke-width="2" />
<path d="M542,4381 L977,5124" stroke="blue" stroke-width="2" />
<path d="M1946,984 L4768,185" stroke="blue" stroke-width="2" />
<path d="M3245,4948 L4633,692" stroke="blue" stroke-width="2" />
<path d="M1112,1145 L1466,5264" stroke="blue" stroke-width="2" />
<path d="M3365,604 L1922,4427" stroke="blue" stroke-width="2" />
<path d="M4574,2089 L1061,2041" stroke="blue" stroke-width="2" />
<path d="M583,3186 L2229,2379" stroke="blue" stroke-width="2" />
<path d="M2561,635 L266,3940" stroke="blue" stroke-width="2" />
<path d="M4622,4840 L4162,5489" stroke="blue" stroke-width="2" />
<path d="M2974,1257 L1432,3127" stroke="blue" stroke-width="2" />
<path d="M509,945 L2871,3646" stroke="blue" stroke-width="2" />
<path d="M4133,1229 L2162,3864" stroke="blue" stroke-width="2" />
<path d="M4114,1788 L3454,4481" stroke="blue" stroke-width="2" />
<path d="M2103,30 L4213,3680" stroke="blue" stroke-width="2" />
<path d="M8,1522 L4598,5773" stroke="blue" stroke-width="2" />
<path d="M1783,5476 L2275,791" stroke="blue" stroke-width="2" />
<path d="M806,4702 L2535,5140" stroke="blue" stroke-width="2" />
<path d="M4652,2928 L3880,1739" stroke="blue" stroke-width="2" />
<path d="M48,3146 L2867,4097" stroke="blue" stroke-width="2" />
<path d="M2802,4197 L3864,570" stroke="blue" stroke-width="2" />
<path d="M3126,5037 L4138,3388" stroke="blue" stroke-width="2" />
<path d="M2843,5345 L1290,81" stroke="blue" stroke-width="2" />
<path d="M3625,2441 L3981,5487" stroke="blue" stroke-width="2" />
<path d="M1944,4606 L2737,2850" stroke="blue" stroke-width="2" />
<path d="M849,2136 L1302,5385" stroke="blue" stroke-width="2" />
<path d="M3290,3564 L1400,4699" stroke="blue" stroke-width="2" />
<path d="M2825,5430 L696,61" stroke="blue" stroke-width="2" />
<path d="M2110,4194 L3327,121" stroke="blue" stroke-width="2" />
<path d="M4584,1428 L859,2790" stroke="blue" stroke-width="2" />
<path d="M2204,1137 L2011,1461" stroke="blue" stroke-width="2" />
<path d="M3658,1534 L1781,2861" stroke="blue" stroke-width="2" />
<path d="M4090,4937 L3209,3323" stroke="blue" stroke-width="2" />
<path d="M1740,2971 L3392,2406" stroke="blue" stroke-width="2" />
<path d="M4029,4896 L1412,2298" stroke="blue" stroke-width="2" />
<path d="M1917,4862 L4386,621" stroke="blue" stroke-width="2" />
<path d="M3447,5686 L2373,908" stroke="blue" stroke-width="2" />
<path d="M4308,5531 L1808,4305" stroke="blue" stroke-width="2" />
<path d="M1702,4506 L2184,2404" stroke="blue" stroke-width="2" />
<path d="M1965,3778 L1899,3280" stroke="blue" stroke-width="2" />
<path d="M3821,1714 L446,5139" stroke="blue" stroke-width="2" />
<path d="M4038,4506 L2017,275" stroke="blue" stroke-width="2" />
<path d="M751,3033 L4017,2160" stroke="blue" stroke-width="2" />
<path d="M3950,4129 L4591,2485" stroke="blue" stroke-width="2" />
<path d="M3667,5042 L3597,1993" stroke="blue" stroke-width="2" />
<path d="M4630,25 L1257,1828" stroke="blue" stroke-width="2" />
<path d="M1786,4886 L844,1302" stroke="blue" stroke-width="2" />
<path d="M3193,1109 L3051,3098" stroke="blue" stroke-width="2" />
<path d="M3491,1512 L3743,990" stroke="blue" stroke-width="2" />
<path d="M0,4797 L2777,1104" stroke="blue" stroke-width="2" />
<path d="M3964,4568 L790,2048" stroke="blue" stroke-width="2" />
<path d="M1680,5562 L2105,2400" stroke="blue" stroke-width="2" />
<path d="M1034,672 L1657,1743" stroke="blue" stroke-width="2" />
<path d="M4294,1416 L289,5212" stroke="blue" stroke-width="2" />
<path d="M110,3968 L1476,4591" stroke="blue" stroke-width="2" />
<path d="M3766,2143 L1788,4860" stroke="blue" stroke-width="2" />
<path d="M1571,4227 L1259,3534" stroke="blue" stroke-width="2" />
<path d="M430,1024 L954,5254" stroke="blue" stroke-width="2" />
<path d="M874,4344 L233,1237" stroke="blue" stroke-width="2" />
<path d="M1601,1525 L2549,2604" stroke="blue" stroke-width="2" />
<path d="M2199,2172 L1332,866" stroke="blue" stroke-width="2" />
<path d="M2058,1331 L4115,4301" stroke="blue" stroke-width="2" />
<path d="M1847,4960 L3746,4800" stroke="blue" stroke-width="2" />
<path d="M2045,747 L3326,4956" stroke="blue" stroke-width="2" />
<path d="M1285,3522 L375,2888" stroke="blue" stroke-width="2" />
<path d="M1193,4544 L3567,2231" stroke="blue" stroke-width="2" />
<path d="M3581,5656 L795,329" stroke="blue" stroke-width="2" />
<path d="M1071,4604 L2942,572" stroke="blue" stroke-width="2" />
<path d="M4759,5570 L3566,4976" stroke="blue" stroke-width="2" />
<path d="M1369,3214 L3119,1018" stroke="blue" stroke-width="2" />
<path d="M1069,3095 L3303,5235" stroke="blue" stroke-width="2" />
<path d="M3868,3218 L2481,170" stroke="blue" stroke-width="2" />
<path d="M2805,5227 L3958,5583" stroke="blue" stroke-width="2" />
<path d="M3221,3086 L2990,798" stroke="blue" stroke-width="2" />
<path d="M386,3009 L3535,3780" stroke="blue" stroke-width="2" />
<path d="M3821,1233 L3914,5612" stroke="blue" stroke-width="2" />
<path d="M1565,3066 L558,1897" stroke="blue" stroke-width="2" />
<path d="M3729,989 L1233,885" stroke="blue" stroke-width="2" />
<path d="M3021,2284 L542,5511" stroke="blue" stroke-width="2" />
<path d="M815,4143 L4084,4514" stroke="blue" stroke-width="2" />
<path d="M3752,2052 L1771,2299" stroke="blue" stroke-width="2" />
<path d="M3144,5591 L3107,5157" stroke="blue" stroke-width="2" />
<path d="M567,1299 L201,5087" stroke="blue" stroke-width="2" />
<path d="M4396,4858 L356,171" stroke="blue" stroke-width="2" />
<path d="M3699,208 L3181,3149" stroke="blue" stroke-width="2" />
<path d="M4381,666 L3077,1465" stroke="blue" stroke-width="2" />
<path d="M3590,4474 L2269,4575" stroke="blue" stroke-width="2" />
<path d="M1935,2688 L124,478" stroke="blue" stroke-width="2" />
<path d="M3620,2367 L876,5074" stroke="blue" stroke-width="2" />
<path d="M3534,2858 L3382,1270" stroke="blue" stroke-width="2" />
<path d="M3997,2059 L1686,292" stroke="blue" stroke-width="2" />
<path d="M2568,3840 L436,2653" stroke="blue" stroke-width="2" />
<path d="M3307,803 L4502,911" stroke="blue" stroke-width="2" />
<path d="M1592,76 L2078,1303" stroke="blue" stroke-width="2" />
<path d="M3993,5175 L4701,406" stroke="blue" stroke-width="2" />
<path d="M1758,2094 L3738,2123" stroke="blue" stroke-width="2" />
<path d="M4180,2203 L938,3713" stroke="blue" stroke-width="2" />
<path d="M160,195 L2628,2364" stroke="blue" stroke-width="2" />
<path d="M2110,307 L761,5340" stroke="blue" stroke-width="2" />
<path d="M3283,950 L549,577" stroke="blue" stroke-width="2" />
<path d="M823,371 L4080,4479" stroke="blue" stroke-width="2" />
<path d="M3845,4671 L759,4533" stroke="blue" stroke-width="2" />
<path d="M3949,20 L1849,34" stroke="blue" stroke-width="2" />
<path d="M735,5339 L1401,2553" stroke="blue" stroke-width="2" />
<path d="M3586,4646 L452,2229" stroke="blue" stroke-width="2" />
<path d="M4318,2706 L2399,1075" stroke="blue" stroke-width="2" />
<path d="M4368,2975 L107,170" stroke="blue" stroke-width="2" />
<path d="M2733,2639 L759,3781" stroke="blue" stroke-width="2" />
<path d="M1554,2675 L1218,2575" stroke="blue" stroke-width="2" />
<path d="M1965,3839 L2727,595" stroke="blue" stroke-width="2" />
<path d="M2062,3160 L2222,2213" stroke="blue" stroke-width="2" />
<path d="M4026,1191 L4125,1580" stroke="blue" stroke-width="2" />
<path d="M3128,151 L1503,2192" stroke="blue" stroke-width="2" />
<path d="M2028,3852 L4554,2477" stroke="blue" stroke-width="2" />
<path d="M2746,3924 L1009,654" stroke="blue" stroke-width="2" />
<path d="M2763,4725 L40,2175" stroke="blue" stroke-width="2" />
<path d="M424,4492 L351,1420" stroke="blue" stroke-width="2" />
<path d="M3659,1097 L1392,1942" stroke="blue" stroke-width="2" />
<path d="M1324,1030 L831,2416" stroke="blue" stroke-width="2" />
<path d="M2563,3002 L262,375" stroke="blue" stroke-width="2" />
<path d="M4515,2895 L4167,2483" stroke="blue" stroke-width="2" />
<path d="M1740,2137 L2541,2354" stroke="blue" stroke-width="2" />
<path d="M1499,2378 L425,2719" stroke="blue" stroke-width="2" />
<path d="M116,5708 L2884,3667" stroke="blue" stroke-width="2" />
<path d="M3641,1364 L539,5367" stroke="blue" stroke-width="2" />
<path d="M2560,5485 L2528,3929" stroke="blue" stroke-width="2" />
<path d="M614,4469 L840,5724" stroke="blue" stroke-width="2" />
<path d="M847,5027 L3109,5228" stroke="blue" stroke-width="2" />
<path d="M3198,634 L4712,824" stroke="blue" stroke-width="2" />
<path d="M1559,5149 L3657,1793" stroke="blue" stroke-width="2" />
<path d="M3672,1643 L583,2080" stroke="blue" stroke-width="2" />
<path d="M2870,2537 L2514,2380" stroke="blue" stroke-width="2" />
<path d="M723,4695 L184,1940" stroke="blue" stroke-width="2" />
<path d="M2656,2171 L976,2142" stroke="blue" stroke-width="2" />
<path d="M2982,1243 L3545,4441" stroke="blue" stroke-width="2" />
<path d="M263,691 L607,2539" stroke="blue" stroke-width="2" />
<path d="M596,3792 L2710,4403" stroke="blue" stroke-width="2" />
<path d="M3137,81 L2367,2837" stroke="blue" stroke-width="2" />
<path d="M751,1975 L2702,2179" stroke="blue" stroke-width="2" />
<path d="M469,3244 L2614,1329" stroke="blue" stroke-width="2" />
<path d="M4417,2904 L3529,4515" stroke="blue" stroke-width="2" />
<path d="M3956,1588 L4091,1515" stroke="blue" stroke-width="2" />
<path d="M1431,4035 L757,535" stroke="blue" stroke-width="2" />
<path d="M3402,1140 L2142,4788" stroke="blue" stroke-width="2" />
<path d="M934,134 L1404,4092" stroke="blue" stroke-width="2" />
<path d="M786,1579 L1319,2377" stroke="blue" stroke-width="2" />
<path d="M550,1164 L586,694" stroke="blue" stroke-width="2" />
<path d="M3785,1932 L1419,4294" stroke="blue" stroke-width="2" />
<path d="M3417,1297 L95,5382" stroke="blue" stroke-width="2" />
<path d="M1217,3173 L1827,1857" stroke="blue" stroke-width="2" />
<path d="M2,67 L587,5241" stroke="blue" stroke-width="2" />
<path d="M4350,4020 L4294,1480" stroke="blue" stroke-width="2" />
<path d="M2384,5481 L1825,2434" stroke="blue" stroke-width="2" />
<path d="M4461,1487 L3045,2943" stroke="blue" stroke-width="2" />
<path d="M2057,3341 L1022,5070" stroke="blue" stroke-width="2" />
<path d="M2286,4025 L3783,649" stroke="blue" stroke-width="2" />
<path d="M793,180 L2615,3880" stroke="blue" stroke-width="2" />
<path d="M251,3050 L4606,1013" stroke="blue" stroke-width="2" />
<path d="M3430,860 L1037,1684" stroke="blue" stroke-width="2" />
<path d="M4429,1327 L970,4766" stroke="blue" stroke-width="2" />
<path d="M1268,4740 L3616,5060" stroke="blue" stroke-width="2" />
<path d="M2066,1336 L2670,1560" stroke="blue" stroke-width="2" />
<path d="M2559,1736 L2886,3823" stroke="blue" stroke-width="2" />
<path d="M733,2614 L3736,2489" stroke="blue" stroke-width="2" />
<path d="M2772,1618 L1896,4154" stroke="blue" stroke-width="2" />
<path d="M3862,3538 L3928,4524" stroke="blue" stroke-width="2" />
<path d="M4554,639 L815,2117" stroke="blue" stroke-width="2" />
<path d="M875,800 L2542,5670" stroke="blue" stroke-width="2" />
<path d="M1860,1123 L1244,3106" stroke="blue" stroke-width="2" />
<path d="M17,5195 L2210,482" stroke="blue" stroke-width="2" />
<path d="M3732,781 L4229,4047" stroke="blue" stroke-width="2" />
<path d="M2089,2654 L101,4698" stroke="blue" stroke-width="2" />
<path d="M4218,3603 L1653,3111" stroke="blue" stroke-width="2" />
<path d="M2076,2187 L2676,3096" stroke="blue" stroke-width="2" />
<path d="M3571,4261 L1012,2330" stroke="blue" stroke-width="2" />
<path d="M2745,374 L1426,1957" stroke="blue" stroke-width="2" />
<path d="M4033,4379 L690,2933" stroke="blue" stroke-width="2" />
<path d="M2713,3224 L4753,2853" stroke="blue" stroke-width="2" />
<path d="M1454,4147 L3330,4550" stroke="blue" stroke-width="2" />
<path d="M4380,5153 L3362,3919" stroke="blue" stroke-width="2" />
<path d="M2103,1674 L3613,3485" stroke="blue" stroke-width="2" />
<path d="M1235,2746 L2987,1501" stroke="blue" stroke-width="2" />
<path d="M2310,4753 L538,5618" stroke="blue" stroke-width="2" />
<path d="M918,2919 L3146,2937" stroke="blue" stroke-width="2" />
<path d="M2972,4854 L1969,2151" stroke="blue" stroke-width="2" />
<path d="M452,4566 L4254,4543" stroke="blue" stroke-width="2" />
<path d="M3083,5144 L3128,3023" stroke="blue" stroke-width="2" />
<path d="M2219,3310 L1905,670" stroke="blue" stroke-width="2" />
<path d="M2291,3334 L3914,5061" stroke="blue" stroke-width="2" />
<path d="M3043,1790 L4394,4869" stroke="blue" stroke-width="2" />
<path d="M4254,1705 L2648,4839" stroke="blue" stroke-width="2" />
<path d="M4119,4793 L1865,2643" stroke="blue" stroke-width="2" />
<path d="M2118,5647 L3123,2245" stroke="blue" stroke-width="2" />
<path d="M1720,3290 L955,5189" stroke="blue" stroke-width="2" />
<path d="M2092,4629 L347,1540" stroke="blue" stroke-width="2" />
<path d="M2856,4967 L43,1507" stroke="blue" stroke-width="2" />
<path d="M2457,3995 L3204,2993" stroke="blue" stroke-width="2" />
<path d="M1673,5416 L204,3328" stroke="blue" stroke-width="2" />
<path d="M1663,3531 L1937,681" stroke="blue" stroke-width="2" />
<path d="M1016,3874 L3298,1931" stroke="blue" stroke-width="2" />
<path d="M2296,4593 L3416,920" stroke="blue" stroke-width="2" />
<path d="M1827,2619 L2124,2309" stroke="blue" stroke-width="2" />
<path d="M3033,4125 L1152,5684" stroke="blue" stroke-width="2" />
<path d="M1121,1350 L1745,4966" stroke="blue" stroke-width="2" />
<path d="M828,5141 L1477,4458" stroke="blue" stroke-width="2" />
<path d="M2865,1437 L1280,2429" stroke="blue" stroke-width="2" />
<path d="M1332,4848 L3804,4512" stroke="blue" stroke-width="2" />
<path d="M1178,2818 L340,4488" stroke="blue" stroke-width="2" />
<path d="M2939,2284 L4091,243" stroke="blue" stroke-width="2" />
<path d="M4473,1620 L463,821" stroke="blue" stroke-width="2" />
<path d="M1006,2200 L379,5228" stroke="blue" stroke-width="2" />
<path d="M1161,4593 L3040,2943" stroke="blue" stroke-width="2" />
<path d="M2160,229 L2626,3812" stroke="blue" stroke-width="2" />
<path d="M2863,475 L346,3118" stroke="blue" stroke-width="2" />
<path d="M3647,363 L4360,4619" stroke="blue" stroke-width="2" />
<path d="M1653,893 L1763,3047" stroke="blue" stroke-width="2" />
<path d="M3525,4587 L3396,3982" stroke="blue" stroke-width="2" />
<path d="M467,1385 L117,385" stroke="blue" stroke-width="2" />
<path d="M0,1076 L1820,2245" stroke="blue" stroke-width="2" />
<path d="M1450,20 L3142,3986" stroke="blue" stroke-width="2" />
<path d="M1524,3793 L4538,3359" stroke="blue" stroke-width="2" />
<path d="M2148,3271 L2953,4179" stroke="blue" stroke-width="2" />
<path d="M2982,2678 L3114,4518" stroke="blue" stroke-width="2" />
<path d="M4064,315 L3612,5242" stroke="blue" stroke-width="2" />
<path d="M1178,3849 L959,2550" stroke="blue" stroke-width="2" />
<path d="M1823,3892 L3510,1408" stroke="blue" stroke-width="2" />
<path d="M3088,2821 L161,4927" stroke="blue" stroke-width="2" />
<path d="M4128,3581 L3207,339" stroke="blue" stroke-width="2" />
<path d="M1566,4184 L1484,2938" stroke="blue" stroke-width="2" />
<path d="M2317,499 L2202,1055" stroke="blue" stroke-width="2" />
<path d="M3204,1400 L3624,1102" stroke="blue" stroke-width="2" />
<path d="M1154,4154 L4428,1199" stroke="blue" stroke-width="2" />
<path d="M436,208 L2015,4051" stroke="blue" stroke-width="2" />
<path d="M1569,922 L4070,1741" stroke="blue" stroke-width="2" />
<path d="M1003,1186 L2217,4763" stroke="blue" stroke-width="2" />
<path d="M4405,2137 L2053,3490" stroke="blue" stroke-width="2" />
<path d="M1749,1075 L4279,2517" stroke="blue" stroke-width="2" />
<path d="M1945,1127 L4047,1295" stroke="blue" stroke-width="2" />
<path d="M1050,4817 L4141,2696" stroke="blue" stroke-width="2" />
<path d="M2074,4978 L2168,3524" stroke="blue" stroke-width="2" />
<path d="M3917,2490 L226,5048" stroke="blue" stroke-width="2" />
<path d="M689,206 L1707,1478" stroke="blue" stroke-width="2" />
<path d="M2253,3844 L106,223" stroke="blue" stroke-width="2" />
<path d="M395,1370 L46,3592" stroke="blue" stroke-width="2" />
<path d="M1981,3163 L2625,4360" stroke="blue" stroke-width="2" />
<path d="M4431,2870 L4397,3176" stroke="blue" stroke-width="2" />
<path d="M2284,287 L689,3167" stroke="blue" stroke-width="2" />
<path d="M3386,4680 L4320,1548" stroke="blue" stroke-width="2" />
<path d="M659,197 L1494,1681" stroke="blue" stroke-width="2" />
<path d="M302,4258 L1364,1999" stroke="blue" stroke-width="2" />
<path d="M1479,1753 L482,95" stroke="blue" stroke-width="2" />
<path d="M3777,1938 L2877,4969" stroke="blue" stroke-width="2" />
<path d="M4702,5278 L2552,3814" stroke="blue" stroke-width="2" />
<path d="M2205,1644 L623,906" stroke="blue" stroke-width="2" />
<path d="M3549,4635 L1979,1210" stroke="blue" stroke-width="2" />
<path d="M677,5585 L2120,4997" stroke="blue" stroke-width="2" />
<path d="M3958,5135 L3383,4017" stroke="blue" stroke-width="2" />
<path d="M680,4297 L3969,2499" stroke="blue" stroke-width="2" />
<path d="M1627,4540 L3750,1694" stroke="blue" stroke-width="2" />
<path d="M3395,5594 L4627,5571" stroke="blue" stroke-width="2" />
<path d="M3520,1602 L4244,251" stroke="blue" stroke-width="2" />
<path d="M206,367 L2080,3457" stroke="blue" stroke-width="2" />
<path d="M1325,4850 L964,1244" stroke="blue" stroke-width="2" />
<path d="M2687,3229 L667,188" stroke="blue" stroke-width="2" />
<path d="M2003,50 L4300,4608" stroke="blue" stroke-width="2" />
<path d="M2547,261 L4284,2427" stroke="blue" stroke-width="2" />
<path d="M2493,1103 L3000,2689" stroke="blue" stroke-width="2" />
<path d="M1161,4266 L2138,3627" stroke="blue" stroke-width="2" />
<path d="M4375,2302 L3952,4547" stroke="blue" stroke-width="2" />
<path d="M4622,3539 L524,4813" stroke="blue" stroke-width="2" />
<path d="M4208,22 L252,1603" stroke="blue" stroke-width="2" />
<path d="M1290,1544 L1225,3566" stroke="blue" stroke-width="2" />
<path d="M1966,3615 L1761,1210" stroke="blue" stroke-width="2" />
<path d="M4540,820 L2918,2068" stroke="blue" stroke-width="2" />
<path d="M3284,1343 L2570,3432" stroke="blue" stroke-width="2" />
<path d="M183,4732 L2083,1922" stroke="blue" stroke-width="2" />
<path d="M2569,284 L666,1094" stroke="blue" stroke-width="2" />
<path d="M4414,3621 L1273,5209" stroke="blue" stroke-width="2" />
<path d="M4375,1735 L4015,5771" stroke="blue" stroke-width="2" />
<path d="M2706,4872 L2379,5642" stroke="blue" stroke-width="2" />
<path d="M187,776 L2528,1543" stroke="blue" stroke-width="2" />
<path d="M1577,1968 L1080,51" stroke="blue" stroke-width="2" />
<path d="M2006,2820 L2563,4955" stroke="blue" stroke-width="2" />
<path d="M576,4088 L2095,3001" stroke="blue" stroke-width="2" />
<path d="M0,0 L4771,0" stroke="red" stroke-width="10" />
<path d="M4771,0 L4771,5776" stroke="red" stroke-width="10" />
<path d="M0,5776 L4771,5776" stroke="red" stroke-width="10" />
<path d="M0,5776 L0,0" stroke="red" stroke-width="10" />
</svg>