<?xml version="1.0" encoding="UTF-8"?>
<svg xmlns="http://www.w3.org/2000/svg" xmlns:xlink="http://www.w3.org/1999/xlink"
     width="10000" height="10000" viewBox="0 0 10000 10000">
<defs>
</defs>
<path d="M5400,29 L5375,384" stroke="blue" stroke-width="2" />
<path d="M4226,1261 L4761,1868" stroke="blue" stroke-width="2" />
<path d="M1450,6336 L2479,6049" stroke="blue" stroke-width="2" />
<path d="M2448,3883 L2447,5421" stroke="blue" stroke-width="2" />
<path d="M5197,4326 L3703,6126" stroke="blue" stroke-width="2" />
<path d="M7653,2580 L29,3036" stroke="blue" stroke-width="2" />
<path d="M5569,3297 L934,4862" stroke="blue" stroke-width="2" />
<path d="M3796,3710 L4851,4892" stroke="blue" stroke-width="2" />
<path d="M2200,3730 L7211,896" stroke="blue" stroke-width="2" />
<path d="M4354,6134 L3711,2045" stroke="blue" stroke-width="2" />
<path d="M4545,1850 L434,1013" stroke="blue" stroke-width="2" />
<path d="M4483,5439 L6403,1534" stroke="blue" stroke-width="2" />
<path d="M5578,2646 L5416,3997" stroke="blue" stroke-width="2" />
<path d="M991,3445 L138,5133" stroke="blue" stroke-width="2" />
<path d="M3781,4200 L7578,1586" stroke="blue" stroke-width="2" />
<path d="M4547,6801 L6909,6018" stroke="blue" stroke-width="2" />
<path d="M3007,4863 L4073,1246" stroke="blue" stroke-width="2" />
<path d="M5389,1243 L6336,4614" stroke="blue" stroke-width="2" />
<path d="M562,6750 L5337,2358" stroke="blue" stroke-width="2" />
<path d="M427,1074 L6890,6036" stroke="blue" stroke-width="2" />
<path d="M3208,2674 L2285,4926" stroke="blue" stroke-width="2" />
<path d="M3682,2945 L6897,1182" stroke="blue" stroke-width="2" />
<path d="M6675,5322 L5283,2755" stroke="blue" stroke-width="2" />
<path d="M4634,101 L1802,4494" stroke="blue" stroke-width="2" />
<path d="M2618,2459 L6597,4686" stroke="blue" stroke-width="2" />
<path d="M525,5279 L4375,3682" stroke="blue" stroke-width="2" />
<path d="M4180,744 L2627,3838" stroke="blue" stroke-width="2" />
<path d="M2103,4339 L692,6749" stroke="blue" stroke-width="2" />
<path d="M7539,2639 L4379,6425" stroke="blue" stroke-width="2" />
<path d="M6895,693 L7577,6539" stroke="blue" stroke-width="2" />
<path d="M309,197 L5135,6468" stroke="blue" stroke-width="2" />
<path d="M3360,1316 L6603,4535" stroke="blue" stroke-width="2" />
<path d="M2931,5304 L3357,5417" stroke="blue" stroke-width="2" />
<path d="M1960,1895 L1403,3079" stroke="blue" stroke-width="2" />
<path d="M3016,654 L1650,5723" stroke="blue" stroke-width="2" />
<path d="M1892,5752 L943,6069" stroke="blue" stroke-width="2" />
<path d="M7054,1303 L1577,3409" stroke="blue" stroke-width="2" />
<path d="M1776,5327 L7087,2730" stroke="blue" stroke-width="2" />
<path d="M7456,3651 L2838,141" stroke="blue" stroke-width="2" />
<path d="M2423,4715 L3884,3889" stroke="blue" stroke-width="2" />
<path d="M4543,4025 L1807,6598" stroke="blue" stroke-width="2" />
<path d="M3750,6355 L2076,5701" stroke="blue" stroke-width="2" />
<path d="M410,3162 L5487,6574" stroke="blue" stroke-width="2" />
<path d="M4367,1459 L5504,6371" stroke="blue" stroke-width="2" />
<path d="M4708,3371 L6733,507" stroke="blue" stroke-width="2" />
<path d="M1562,1827 L3304,3378" stroke="blue" stroke-width="2" />
<path d="M3445,2721 L5256,2885" stroke="blue" stroke-width="2" />
<path d="M5955,5956 L256,5675" stroke="blue" stroke-width="2" />
<path d="M3972,2343 L3517,3872" stroke="blue" stroke-width="2" />
<path d="M7215,1155 L6481,3536" stroke="blue" stroke-width="2" />
<path d="M1236,85 L3072,3663" stroke="blue" stroke-width="2" />
<path d="M5508,4715 L6165,898" stroke="blue" stroke-width="2" />
<path d="M2698,3712 L3173,3647" stroke="blue" stroke-width="2" />
<path d="M351,5117 L7104,6905" stroke="blue" stroke-width="2" />
<path d="M7040,1895 L1861,2149" stroke="blue" stroke-width="2" />
<path d="M6044,1733 L3015,2206" stroke="blue" stroke-width="2" />
<path d="M5833,5037 L3607,5165" stroke="blue" stroke-width="2" />
<path d="M79,2436 L261,4570" stroke="blue" stroke-width="2" />
<path d="M5422,4339 L2286,1105" stroke="blue" stroke-width="2" />
<path d="M7301,3288 L6946,844" stroke="blue" stroke-width="2" />
<path d="M3149,2622 L2080,4570" stroke="blue" stroke-width="2" />
<path d="M6181,4314 L845,6636" stroke="blue" stroke-width="2" />
<path d="M6717,2672 L253,1759" stroke="blue" stroke-width="2" />
<path d="M1708,1398 L579,5648" stroke="blue" stroke-width="2" />
<path d="M7043,2056 L7340,4674" stroke="blue" stroke-width="2" />
<path d="M2815,238 L728,129" stroke="blue" stroke-width="2" />
<path d="M3439,5421 L3525,3675" stroke="blue" stroke-width="2" />
<path d="M590,4575 L4316,6511" stroke="blue" stroke-width="2" />
<path d="M3236,2200 L1106,4153" stroke="blue" stroke-width="2" />
<path d="M1162,5334 L1752,1039" stroke="blue" stroke-width="2" />
<path d="M6505,3834 L2592,6539" stroke="blue" stroke-width="2" />
<path d="M7341,4817 L2576,6755" stroke="blue" stroke-width="2" />
<path d="M5692,1952 L6686,6489" stroke="blue" stroke-width="2" />
<path d="M941,2125 L934,6679" stroke="blue" stroke-width="2" />
<path d="M7018,3488 L357,1893" stroke="blue" stroke-width="2" />
<path d="M2998,301 L628,984" stroke="blue" stroke-width="2" />
<path d="M4641,1013 L3803,3075" stroke="blue" stroke-width="2" />
<path d="M2039,5570 L3058,444" stroke="blue" stroke-width="2" />
<path d="M3298,2346 L1734,1156" stroke="blue" stroke-width="2" />
<path d="M5930,4109 L6967,6727" stroke="blue" stroke-width="2" />
<path d="M4718,1030 L4160,5005" stroke="blue" stroke-width="2" />
<path d="M986,836 L3515,6177" stroke="blue" stroke-width="2" />
<path d="M3895,417 L580,1635" stroke="blue" stroke-width="2" />
<path d="M7312,6833 L1563,3108" stroke="blue" stroke-width="2" />
<path d="M1816,5121 L2416,6008" stroke="blue" stroke-width="2" />
<path d="M6876,6875 L1524,1730" stroke="blue" stroke-width="2" />
<path d="M6122,4914 L5923,4698" stroke="blue" stroke-width="2" />
<path d="M2917,5191 L1988,5922" stroke="blue" stroke-width="2" />
<path d="M2334,1562 L2296,1222" stroke="blue" stroke-width="2" />
<path d="M352,5172 L6044,1097" stroke="blue" stroke-width="2" />
<path d="M6575,132 L788,5308" stroke="blue" stroke-width="2" />
<path d="M641,3068 L3463,1967" stroke="blue" stroke-width="2" />
<path d="M7568,4724 L1711,1689" stroke="blue" stroke-width="2" />
<path d="M2906,5221 L1397,2209" stroke="blue" stroke-width="2" />
<path d="M4081,2436 L2753,4643" stroke="blue" stroke-width="2" />
<path d="M7116,5084 L5612,5714" stroke="blue" stroke-width="2" />
<path d="M2703,4518 L6687,1363" stroke="blue" stroke-width="2" />
<path d="M6309,2848 L7319,1195" stroke="blue" stroke-width="2" />
<path d="M6399,504 L4720,2652" stroke="blue" stroke-width="2" />
<path d="M1927,2117 L6681,3090" stroke="blue" stroke-width="2" />
<path d="M7498,6393 L3698,3623" stroke="blue" stroke-width="2" />
<path d="M3105,4155 L4769,1595" stroke="blue" stroke-width="2" />
<path d="M4625,3988 L3514,2880" stroke="blue" stroke-width="2" />
<path d="M1191,3178 L2694,5906" stroke="blue" stroke-width="2" />
<path d="M1418,2578 L3178,1013" stroke="blue" stroke-width="2" />
<path d="M242,5337 L628,72" stroke="blue" stroke-width="2" />
<path d="M4920,3748 L3846,5776" stroke="blue" stroke-width="2" />
<path d="M2341,3587 L1353,5007" stroke="blue" stroke-width="2" />
<path d="M5569,379 L2308,3694" stroke="blue" stroke-width="2" />
<path d="M358,5620 L1963,4208" stroke="blue" stroke-width="2" />
<path d="M1437,1398 L5906,799" stroke="blue" stroke-width="2" />
<path d="M6990,5158 L6565,1514" stroke="blue" stroke-width="2" />
<path d="M4541,6162 L859,2479" stroke="blue" stroke-width="2" />
<path d="M960,3585 L4730,2902" stroke="blue" stroke-width="2" />
<path d="M2410,1445 L3085,6287" stroke="blue" stroke-width="2" />
<path d="M3328,4022 L3861,4672" stroke="blue" stroke-width="2" />
<path d="M1119,2786 L1907,5506" stroke="blue" stroke-width="2" />
<path d="M3490,4768 L6972,3845" stroke="blue" stroke-width="2" />
<path d="M2711,1780 L642,1736" stroke="blue" stroke-width="2" />
<path d="M6439,5211 L6946,5499" stroke="blue" stroke-width="2" />
<path d="M5010,31 L3019,3926" stroke="blue" stroke-width="2" />
<path d="M7164,5209 L5856,1470" stroke="blue" stroke-width="2" />
<path d="M3839,3715 L6739,217" stroke="blue" stroke-width="2" />
<path d="M5959,1745 L7301,5549" stroke="blue" stroke-width="2" />
<path d="M2092,6044 L6682,6896" stroke="blue" stroke-width="2" />
<path d="M1878,4255 L7611,6648" stroke="blue" stroke-width="2" />
<path d="M5799,4667 L3802,1387" stroke="blue" stroke-width="2" />
<path d="M2323,2004 L6648,1412" stroke="blue" stroke-width="2" />
<path d="M221,4332 L7345,2337" stroke="blue" stroke-width="2" />
<path d="M5192,1748 L5011,4922" stroke="blue" stroke-width="2" />
<path d="M6766,2475 L1108,846" stroke="blue" stroke-width="2" />
<path d="M3589,313 L4828,4560" stroke="blue" stroke-width="2" />
<path d="M1105,6391 L1638,1955" stroke="blue" stroke-width="2" />
<path d="M1114,2235 L5122,1852" stroke="blue" stroke-width="2" />
<path d="M3152,5013 L3787,6135" stroke="blue" stroke-width="2" />
<path d="M6142,6715 L1996,4243" stroke="blue" stroke-width="2" />
<path d="M4130,6686 L1642,184" stroke="blue" stroke-width="2" />
<path d="M3526,193 L2286,6103" stroke="blue" stroke-width="2" />
<path d="M1726,2633 L1260,3336" stroke="blue" stroke-width="2" />
<path d="M6982,5172 L1024,3947" stroke="blue" stroke-width="2" />
<path d="M1152,4480 L6007,4089" stroke="blue" stroke-width="2" />
<path d="M4427,5483 L254,3862" stroke="blue" stroke-width="2" />
<path d="M7587,2516 L5397,800" stroke="blue" stroke-width="2" />
<path d="M7333,2094 L6031,1602" stroke="blue" stroke-width="2" />
<path d="M3950,2620 L716,4963" stroke="blue" stroke-width="2" />
<path d="M3131,4144 L148,2374" stroke="blue" stroke-width="2" />
<path d="M5315,3774 L3833,6738" stroke="blue" stroke-width="2" />
<path d="M4752,6264 L3295,3855" stroke="blue" stroke-width="2" />
<path d="M1287,3772 L4705,6114" stroke="blue" stroke-width="2" />
<path d="M6192,2771 L2217,1870" stroke="blue" stroke-width="2" />
<path d="M789,5729 L6311,4117" stroke="blue" stroke-width="2" />
<path d="M931,6273 L2876,6460" stroke="blue" stroke-width="2" />
<path d="M4520,3403 L1464,2500" stroke="blue" stroke-width="2" />
<path d="M1688,424 L97,5303" stroke="blue" stroke-width="2" />
<path d="M4588,4904 L7324,5904" stroke="blue" stroke-width="2" />
<path d="M743,5969 L3135,25" stroke="blue" stroke-width="2" />
<path d="M5141,2581 L2077,6455" stroke="blue" stroke-width="2" />
<path d="M2624,2421 L2457,3483" stroke="blue" stroke-width="2" />
<path d="M5342,110 L4825,3403" stroke="blue" stroke-width="2" />
<path d="M3484,1813 L1202,2227" stroke="blue" stroke-width="2" />
<path d="M3221,4916 L2612,1279" stroke="blue" stroke-width="2" />
<path d="M6461,2438 L2868,3261" stroke="blue" stroke-width="2" />
<path d="M3293,613 L7162,4259" stroke="blue" stroke-width="2" />
<path d="M2356,6091 L6118,4825" stroke="blue" stroke-width="2" />
<path d="M3838,5289 L3232,4721" stroke="blue" stroke-width="2" />
<path d="M2123,3032 L151,382" stroke="blue" stroke-width="2" />
<path d="M6460,2275 L6980,4853" stroke="blue" stroke-width="2" />
<path d="M4429,5302 L159,602" stroke="blue" stroke-width="2" />
<path d="M919,1222 L3698,3612" stroke="blue" stroke-width="2" />
<path d="M1056,4834 L5328,603" stroke="blue" stroke-width="2" />
<path d="M5165,2053 L1562,5631" stroke="blue" stroke-width="2" />
<path d="M2233,397 L5467,4060" stroke="blue" stroke-width="2" />
<path d="M5824,3622 L5915,2987" stroke="blue" stroke-width="2" />
<path d="M3834,2369 L4891,2295" stroke="blue" stroke-width="2" />
<path d="M3093,5613 L4104,3696" stroke="blue" stroke-width="2" />
<path d="M6104,2061 L4977,3182" stroke="blue" stroke-width="2" />
<path d="M1257,3170 L1044,5306" stroke="blue" stroke-width="2" />
<path d="M1108,2070 L3629,3388" stroke="blue" stroke-width="2" />
<path d="M2678,6329 L6296,4365" stroke="blue" stroke-width="2" />
<path d="M3576,6775 L2639,4304" stroke="blue" stroke-width="2" />
<path d="M1493,562 L598,2712" stroke="blue" stroke-width="2" />
<path d="M4872,3113 L562,1209" stroke="blue" stroke-width="2" />
<path d="M2078,5717 L6507,4292" stroke="blue" stroke-width="2" />
<path d="M2772,4048 L470,2155" stroke="blue" stroke-width="2" />
<path d="M2380,215 L5648,3184" stroke="blue" stroke-width="2" />
<path d="M2228,3486 L4070,4203" stroke="blue" stroke-width="2" />
<path d="M5196,2576 L3613,2369" stroke="blue" stroke-width="2" />
<path d="M1274,4301 L2933,3903" stroke="blue" stroke-width="2" />
<path d="M4961,6724 L4194,6198" stroke="blue" stroke-width="2" />
<path d="M6169,4913 L6115,2869" stroke="blue" stroke-width="2" />
<path d="M5500,3272 L6785,5399" stroke="blue" stroke-width="2" />
<path d="M5303,2794 L4824,2684" stroke="blue" stroke-width="2" />
<path d="M6560,3263 L3704,3760" stroke="blue" stroke-width="2" />
<path d="M598,6230 L3887,1453" stroke="blue" stroke-width="2" />
<path d="M3612,4929 L6966,3863" stroke="blue" stroke-width="2" />
<path d="M1999,6179 L3697,4051" stroke="blue" stroke-width="2" />
<path d="M7202,4484 L6518,4827" stroke="blue" stroke-width="2" />
<path d="M1334,1150 L6817,3098" stroke="blue" stroke-width="2" />
<path d="M660,3092 L7177,1328" stroke="blue" stroke-width="2" />
<path d="M252,3395 L1891,2304" stroke="blue" stroke-width="2" />
<path d="M2447,872 L4713,3475" stroke="blue" stroke-width="2" />
<path d="M7239,6856 L878,5657" stroke="blue" stroke-width="2" />
<path d="M1978,812 L5786,4695" stroke="blue" stroke-width="2" />
<path d="M1192,5980 L5986,4911" stroke="blue" stroke-width="2" />
<path d="M6149,1293 L7082,3260" stroke="blue" stroke-width="2" />
<path d="M1235,1400 L4397,6254" stroke="blue" stroke-width="2" />
<path d="M2347,6628 L5212,1858" stroke="blue" stroke-width="2" />
<path d="M7296,1937 L5422,2746" stroke="blue" stroke-width="2" />
<path d="M3457,3970 L4078,5828" stroke="blue" stroke-width="2" />
<path d="M5591,2428 L4890,6035" stroke="blue" stroke-width="2" />
<path d="M4392,5004 L389,5783" stroke="blue" stroke-width="2" />
<path d="M3921,5749 L4383,3980" stroke="blue" stroke-width="2" />
<path d="M7598,1694 L6534,3693" stroke="blue" stroke-width="2" />
<path d="M5474,790 L4393,73" stroke="blue" stroke-width="2" />
<path d="M4214,2171 L4102,5001" stroke="blue" stroke-width="2" />
<path d="M1946,6676 L5322,83" stroke="blue" stroke-width="2" />
<path d="M7751,4852 L1435,4954" stroke="blue" stroke-width="2" />
<path d="M3118,4632 L5984,5351" stroke="blue" stroke-width="2" />
<path d="M3814,3063 L6253,1950" stroke="blue" stroke-width="2" />
<path d="M6865,6001 L7088,38" stroke="blue" stroke-width="2" />
<path d="M6142,2508 L2133,1888" stroke="blue" stroke-width="2" />
<path d="M3,5119 L808,6372" stroke="blue" stroke-width="2" />
<path d="M3962,2550 L3356,5654" stroke="blue" stroke-width="2" />
<path d="M3946,801 L6893,1063" stroke="blue" stroke-width="2" />
<path d="M134,3158 L5210,4675" stroke="blue" stroke-width="2" />
<path d="M5073,3291 L5631,1376" stroke="blue" stroke-width="2" />
<path d="M2668,1967 L1785,2366" stroke="blue" stroke-width="2" />
<path d="M7134,691 L1414,2937" stroke="blue" stroke-width="2" />
<path d="M7309,5109 L5468,2448" stroke="blue" stroke-width="2" />
<path d="M5722,2737 L7429,6880" stroke="blue" stroke-width="2" />
<path d="M3221,1926 L4340,6887" stroke="blue" stroke-width="2" />
<path d="M969,13 L4624,4593" stroke="blue" stroke-width="2" />
<path d="M4318,3806 L7019,2140" stroke="blue" stroke-width="2" />
<path d="M4258,1383 L1770,2675" stroke="blue" stroke-width="2" />
<path d="M1295,3762 L2001,5459" stroke="blue" stroke-width="2" />
<path d="M4083,3926 L6860,5977" stroke="blue" stroke-width="2" />
<path d="M550,2238 L6158,4530" stroke="blue" stroke-width="2" />
<path d="M2296,3700 L6528,1914" stroke="blue" stroke-width="2" />
<path d="M4377,1188 L7344,2158" stroke="blue" stroke-width="2" />
<path d="M2003,3632 L4576,2051" stroke="blue" stroke-width="2" />
<path d="M82,1375 L3679,6212" stroke="blue" stroke-width="2" />
<path d="M3255,1434 L2978,812" stroke="blue" stroke-width="2" />
<path d="M3056,760 L3741,1627" stroke="blue" stroke-width="2" />
<path d="M7768,2846 L3824,3864" stroke="blue" stroke-width="2" />
<path d="M5001,1092 L5881,4553" stroke="blue" stroke-width="2" />
<path d="M201,5194 L5594,5560" stroke="blue" stroke-width="2" />
<path d="M1592,3164 L3028,3465" stroke="blue" stroke-width="2" />
<path d="M4661,6778 L6903,1032" stroke="blue" stroke-width="2" />
<path d="M1466,389 L1684,439" stroke="blue" stroke-width="2" />
<path d="M3151,6950 L6816,5521" stroke="blue" stroke-width="2" />
<path d="M3729,4266 L526,1923" stroke="blue" stroke-width="2" />
<path d="M1411,3769 L5219,992" stroke="blue" stroke-width="2" />
<path d="M1632,762 L2864,4257" stroke="blue" stroke-width="2" />
<path d="M4596,108 L622,2113" stroke="blue" stroke-width="2" />
<path d="M518,1016 L396,4905" stroke="blue" stroke-width="2" />
<path d="M6874,5559 L7099,5196" stroke="blue" stroke-width="2" />
<path d="M3394,908 L664,3414" stroke="blue" stroke-width="2" />
<path d="M1762,3043 L800,2536" stroke="blue" stroke-width="2" />
<path d="M5171,4502 L6309,4634" stroke="blue" stroke-width="2" />
<path d="M4770,5922 L7129,5519" stroke="blue" stroke-width="2" />
<path d="M4106,3394 L4836,1802" stroke="blue" stroke-width="2" />
<path d="M3758,1455 L1504,1362" stroke="blue" stroke-width="2" />
<path d="M6308,4731 L1588,5941" stroke="blue" stroke-width="2" />
<path d="M7004,5236 L3271,5506" stroke="blue" stroke-width="2" />
<path d="M5699,4166 L6234,5158" stroke="blue" stroke-width="2" />
<path d="M2540,837 L1240,2953" stroke="blue" stroke-width="2" />
<path d="M1494,3603 L6797,2080" stroke="blue" stroke-width="2" />
<path d="M2336,5053 L5288,878" stroke="blue" stroke-width="2" />
<path d="M6186,160 L420,6229" stroke="blue" stroke-width="2" />
<path d="M3245,602 L1320,6032" stroke="blue" stroke-width="2" />
<path d="M6790,1313 L3035,940" stroke="blue" stroke-width="2" />
<path d="M5880,5979 L1862,1114" stroke="blue" stroke-width="2" />
<path d="M0,1683 L6697,5832" stroke="blue" stroke-width="2" />
<path d="M5120,984 L3001,2393" stroke="blue" stroke-width="2" />
<path d="M3976,1541 L258,6229" stroke="blue" stroke-width="2" />
<path d="M699,2460 L5353,4335" stroke="blue" stroke-width="2" />
<path d="M465,6097 L3115,3493" stroke="blue" stroke-width="2" />
<path d="M4957,3118 L2703,3427" stroke="blue" stroke-width="2" />
<path d="M2240,4489 L2661,1561" stroke="blue" stroke-width="2" />
<path d="M7054,1156 L4667,6755" stroke="blue" stroke-width="2" />
<path d="M6219,5208 L5129,5117" stroke="blue" stroke-width="2" />
<path d="M2251,3935 L730,6591" stroke="blue" stroke-width="2" />
<path d="M101,6584 L482,1890" stroke="blue" stroke-width="2" />
<path d="M3389,3411 L4657,3798" stroke="blue" stroke-width="2" />
<path d="M3161,6226 L6750,6852" stroke="blue" stroke-width="2" />
<path d="M7742,4795 L2887,3599" stroke="blue" stroke-width="2" />
<path d="M3296,4378 L4655,2700" stroke="blue" stroke-width="2" />
<path d="M3856,1906 L164,5683" stroke="blue" stroke-width="2" />
<path d="M2714,724 L1043,3166" stroke="blue" stroke-width="2" />
<path d="M6783,927 L1800,3234" stroke="blue" stroke-width="2" />
<path d="M3812,1786 L5493,4725" stroke="blue" stroke-width="2" />
<path d="M1590,2781 L7111,4824" stroke="blue" stroke-width="2" />
<path d="M2509,5798 L3530,6861" stroke="blue" stroke-width="2" />
<path d="M917,3886 L2589,1917" stroke="blue" stroke-width="2" />
<path d="M3393,80 L5135,1433" stroke="blue" stroke-width="2" />
<path d="M3020,2143 L2003,2396" stroke="blue" stroke-width="2" />
<path d="M5714,1017 L4633,2635" stroke="blue" stroke-width="2" />
<path d="M6266,3256 L7561,158" stroke="blue" stroke-width="2" />
<path d="M3416,4634 L7551,5345" stroke="blue" stroke-width="2" />
<path d="M7586,664 L772,6667" stroke="blue" stroke-width="2" />
<path d="M7555,2576 L3555,4985" stroke="blue" stroke-width="2" />
<path d="M3891,2861 L2597,5483" stroke="blue" stroke-width="2" />
<path d="M6913,6312 L160,4083" stroke="blue" stroke-width="2" />
<path d="M327,3905 L207,466" stroke="blue" stroke-width="2" />
<path d="M6978,1659 L6709,3511" stroke="blue" stroke-width="2" />
<path d="M2705,3801 L5511,695" stroke="blue" stroke-width="2" />
<path d="M7070,4306 L3375,5047" stroke="blue" stroke-width="2" />
<path d="M1895,2163 L2410,1287" stroke="blue" stroke-width="2" />
<path d="M3066,6441 L4934,5327" stroke="blue" stroke-width="2" />
<path d="M6076,5793 L5143,5785" stroke="blue" stroke-width="2" />
<path d="M5459,4639 L6597,5255" stroke="blue" stroke-width="2" />
<path d="M3487,1802 L3771,3380" stroke="blue" stroke-width="2" />
<path d="M4126,5445 L4963,5478" stroke="blue" stroke-width="2" />
<path d="M1920,1077 L7259,6842" stroke="blue" stroke-width="2" />
<path d="M3743,2029 L312,2078" stroke="blue" stroke-width="2" />
<path d="M868,5020 L7225,940" stroke="blue" stroke-width="2" />
<path d="M6800,905 L7617,890" stroke="blue" stroke-width="2" />
<path d="M2909,3617 L4176,5188" stroke="blue" stroke-width="2" />
<path d="M7714,2601 L5419,2051" stroke="blue" stroke-width="2" />
<path d="M4126,2522 L3467,2306" stroke="blue" stroke-width="2" />
<path d="M4082,5686 L6805,254" stroke="blue" stroke-width="2" />
<path d="M2361,6835 L4537,4321" stroke="blue" stroke-width="2" />
<path d="M2238,5834 L6098,1793" stroke="blue" stroke-width="2" />
<path d="M1192,5627 L6214,1620" stroke="blue" stroke-width="2" />
<path d="M874,980 L7197,3100" stroke="blue" stroke-width="2" />
<path d="M1182,2979 L4251,811" stroke="blue" stroke-width="2" />
<path d="M7655,5809 L195,5147" stroke="blue" stroke-width="2" />
<path d="M6622,1465 L127,5210" stroke="blue" stroke-width="2" />
<path d="M2518,5210 L2311,5362" stroke="blue" stroke-width="2" />
<path d="M1361,18 L6549,3168" stroke="blue" stroke-width="2" />
<path d="M2495,2488 L6279,4292" stroke="blue" stroke-width="2" />
<path d="M4685,4105 L5307,1538" stroke="blue" stroke-width="2" />
<path d="M2384,1584 L2520,5347" stroke="blue" stroke-width="2" />
<path d="M687,37 L6811,3276" stroke="blue" stroke-width="2" />
<path d="M5810,1614 L2970,72" stroke="blue" stroke-width="2" />
<path d="M5970,2451 L4324,3634" stroke="blue" stroke-width="2" />
<path d="M5968,1026 L5182,877" stroke="blue" stroke-width="2" />
<path d="M2751,4350 L3659,6591" stroke="blue" stroke-width="2" />
<path d="M1130,2989 L5436,907" stroke="blue" stroke-width="2" />
<path d="M7377,3912 L663,5887" stroke="blue" stroke-width="2" />
<path d="M2517,4905 L5652,5094" stroke="blue" stroke-width="2" />
<path d="M1175,5693 L1082,2444" stroke="blue" stroke-width="2" />
<path d="M2967,6408 L4941,2162" stroke="blue" stroke-width="2" />
<path d="M815,3139 L3434,4881" stroke="blue" stroke-width="2" />
<path d="M6201,6743 L1259,5947" stroke="blue" stroke-width="2" />
<path d="M2761,5074 L5507,1004" stroke="blue" stroke-width="2" />
<path d="M1791,6233 L3005,433" stroke="blue" stroke-width="2" />
<path d="M5679,6930 L446,4204" stroke="blue" stroke-width="2" />
<path d="M4019,4966 L7523,4644" stroke="blue" stroke-width="2" />
<path d="M521,2940 L7466,3141" stroke="blue" stroke-width="2" />
<path d="M7238,5728 L5642,6249" stroke="blue" stroke-width="2" />
<path d="M1262,5716 L7591,6300" stroke="blue" stroke-width="2" />
<path d="M7217,4870 L4033,2530" stroke="blue" stroke-width="2" />
<path d="M1134,3762 L1272,1872" stroke="blue" stroke-width="2" />
<path d="M2481,2424 L6203,4721" stroke="blue" stroke-width="2" />
<path d="M3159,2536 L4150,6339" stroke="blue" stroke-width="2" />
<path d="M5789,2422 L2396,4417" stroke="blue" stroke-width="2" />
<path d="M5275,2513 L1534,2806" stroke="blue" stroke-width="2" />
<path d="M2108,3777 L5877,4215" stroke="blue" stroke-width="2" />
<path d="M7699,3047 L6540,5184" stroke="blue" stroke-width="2" />
<path d="M2032,2508 L7122,1569" stroke="blue" stroke-width="2" />
<path d="M6253,662 L7037,596" stroke="blue" stroke-width="2" />
<path d="M5068,5190 L6369,3167" stroke="blue" stroke-width="2" />
<path d="M2423,4737 L7569,1320" stroke="blue" stroke-width="2" />
<path d="M2224,1110 L7321,6389" stroke="blue" stroke-width="2" />
<path d="M5565,1746 L3638,4649" stroke="blue" stroke-width="2" />
<path d="M3851,1972 L107,2522" stroke="blue" stroke-width="2" />
<path d="M257,2620 L2723,614" stroke="blue" stroke-width="2" />
<path d="M7353,6156 L1483,5967" stroke="blue" stroke-width="2" />
<path d="M2427,2440 L7089,3066" stroke="blue" stroke-width="2" />
<path d="M6923,4403 L6649,1858" stroke="blue" stroke-width="2" />
<path d="M4788,328 L4801,392" stroke="blue" stroke-width="2" />
<path d="M5996,2853 L2148,5845" stroke="blue" stroke-width="2" />
<path d="M7540,6134 L2484,6663" stroke="blue" stroke-width="2" />
<path d="M2884,2581 L3517,5029" stroke="blue" stroke-width="2" />
<path d="M7460,6303 L770,862" stroke="blue" stroke-width="2" />
<path d="M5181,956 L7450,322" stroke="blue" stroke-width="2" />
<path d="M3451,6380 L4003,1402" stroke="blue" stroke-width="2" />
<path d="M2435,369 L6232,1859" stroke="blue" stroke-width="2" />
<path d="M7560,1815 L7058,1294" stroke="blue" stroke-width="2" />
<path d="M1891,4959 L4387,1472" stroke="blue" stroke-width="2" />
<path d="M4645,5246 L3026,5634" stroke="blue" stroke-width="2" />
<path d="M4082,2704 L1465,3301" stroke="blue" stroke-width="2" />
<path d="M7154,203 L5782,3389" stroke="blue" stroke-width="2" />
<path d="M2336,5920 L5035,4569" stroke="blue" stroke-width="2" />
<path d="M5529,4998 L6449,5380" stroke="blue" stroke-width="2" />
<path d="M5465,2288 L780,2727" stroke="blue" stroke-width="2" />
<path d="M7353,296 L4420,6190" stroke="blue" stroke-width="2" />
<path d="M6654,4571 L741,6006" stroke="blue" stroke-width="2" />
<path d="M503,6160 L571,5886" stroke="blue" stroke-width="2" />
<path d="M1637,6149 L6826,2883" stroke="blue" stroke-width="2" />
<path d="M2342,4309 L2724,5690" stroke="blue" stroke-width="2" />
<path d="M4295,4324 L5827,5007" stroke="blue" stroke-width="2" />
<path d="M5741,3595 L5022,4655" stroke="blue" stroke-width="2" />
<path d="M5856,3125 L3801,6950" stroke="blue" stroke-width="2" />
<path d="M464,6060 L6590,3421" stroke="blue" stroke-width="2" />
<path d="M575,1674 L1790,5399" stroke="blue" stroke-width="2" />
<path d="M2704,595 L1384,6093" stroke="blue" stroke-width="2" />
<path d="M1591,5769 L931,5797" stroke="blue" stroke-width="2" />
<path d="M1842,5921 L1480,3952" stroke="blue" stroke-width="2" />
<path d="M7092,3981 L2158,6774" stroke="blue" stroke-width="2" />
<path d="M3615,3295 L6186,6246" stroke="blue" stroke-width="2" />
<path d="M638,345 L7129,4571" stroke="blue" stroke-width="2" />
<path d="M4793,1155 L2431,578" stroke="blue" stroke-width="2" />
<path d="M998,6265 L2082,5421" stroke="blue" stroke-width="2" />
<path d="M6677,5064 L2952,4803" stroke="blue" stroke-width="2" />
<path d="M6305,6665 L4939,5987" stroke="blue" stroke-width="2" />
<path d="M177,2074 L1150,3439" stroke="blue" stroke-width="2" />
<path d="M317,370 L2786,3534" stroke="blue" stroke-width="2" />
<path d="M121,4944 L3070,3740" stroke="blue" stroke-width="2" />
<path d="M7000,6030 L4525,3278" stroke="blue" stroke-width="2" />
<path d="M4624,5349 L336,5151" stroke="blue" stroke-width="2" />
<path d="M1132,3200 L143,3749" stroke="blue" stroke-width="2" />
<path d="M199,662 L1223,747" stroke="blue" stroke-width="2" />
<path d="M7341,1158 L886,5227" stroke="blue" stroke-width="2" />
<path d="M1876,6703 L4333,2573" stroke="blue" stroke-width="2" />
<path d="M4997,498 L4374,3155" stroke="blue" stroke-width="2" />
<path d="M6249,6066 L5769,2929" stroke="blue" stroke-width="2" />
<path d="M2220,4436 L850,2903" stroke="blue" stroke-width="2" />
<path d="M5313,1675 L719,1967" stroke="blue" stroke-width="2" />
<path d="M3743,894 L3990,5981" stroke="blue" stroke-width="2" />
<path d="M5063,3494 L344,3919" stroke="blue" stroke-width="2" />
<path d="M2282,5773 L3880,5788" stroke="blue" stroke-width="2" />
<path d="M3593,2952 L3231,4551" stroke="blue" stroke-width="2" />
<path d="M4421,4181 L3069,6526" stroke="blue" stroke-width="2" />
<path d="M3438,6648 L1853,5482" stroke="blue" stroke-width="2" />
<path d="M7557,4726 L7416,4035" stroke="blue" stroke-width="2" />
<path d="M1045,5165 L4527,1891" stroke="blue" stroke-width="2" />
<path d="M3292,4802 L6374,799" stroke="blue" stroke-width="2" />
<path d="M6984,2996 L3894,6152" stroke="blue" stroke-width="2" />
<path d="M1260,4073 L6360,2412" stroke="blue" stroke-width="2" />
<path d="M7459,3577 L7190,6921" stroke="blue" stroke-width="2" />
<path d="M4884,4771 L4127,5426" stroke="blue" stroke-width="2" />
<path d="M7148,2821 L591,2322" stroke="blue" stroke-width="2" />
<path d="M7593,6002 L4700,1540" stroke="blue" stroke-width="2" />
<path d="M3287,5493 L3931,6767" stroke="blue" stroke-width="2" />
<path d="M5486,4497 L3003,6143" stroke="blue" stroke-width="2" />
<path d="M6458,6055 L6456,3357" stroke="blue" stroke-width="2" />
<path d="M2919,98 L3993,5405" stroke="blue" stroke-width="2" />
<path d="M6098,484 L7281,2321" stroke="blue" stroke-width="2" />
<path d="M5844,5477 L3810,1345" stroke="blue" stroke-width="2" />
<path d="M5833,4884 L6917,2995" stroke="blue" stroke-width="2" />
<path d="M1127,6417 L46,3709" stroke="blue" stroke-width="2" />
<path d="M4725,1990 L2566,3665" stroke="blue" stroke-width="2" />
<path d="M7608,4857 L4607,519" stroke="blue" stroke-width="2" />
<path d="M6856,4463 L2680,5255" stroke="blue" stroke-width="2" />
<path d="M2489,532 L2862,2584" stroke="blue" stroke-width="2" />
<path d="M483,2018 L4567,6146" stroke="blue" stroke-width="2" />
<path d="M3719,2239 L5645,5108" stroke="blue" stroke-width="2" />
<path d="M1132,3339 L7069,5288" stroke="blue" stroke-width="2" />
<path d="M721,6291 L1115,2661" stroke="blue" stroke-width="2" />
<path d="M5733,5798 L1034,3436" stroke="blue" stroke-width="2" />
<path d="M5288,6486 L5101,3396" stroke="blue" stroke-width="2" />
<path d="M3586,2885 L1154,4113" stroke="blue" stroke-width="2" />
<path d="M6044,4618 L1365,4000" stroke="blue" stroke-width="2" />
<path d="M1507,6441 L5407,6131" stroke="blue" stroke-width="2" />
<path d="M430,6105 L6089,1755" stroke="blue" stroke-width="2" />
<path d="M535,720 L2395,2607" stroke="blue" stroke-width="2" />
<path d="M6173,4884 L1279,6320" stroke="blue" stroke-width="2" />
<path d="M4313,4052 L3275,2072" stroke="blue" stroke-width="2" />
<path d="M1458,2281 L3088,236" stroke="blue" stroke-width="2" />
<path d="M4079,1803 L4454,3135" stroke="blue" stroke-width="2" />
<path d="M7148,4068 L2921,778" stroke="blue" stroke-width="2" />
<path d="M5357,6005 L6026,3704" stroke="blue" stroke-width="2" />
<path d="M1778,2666 L2996,3275" stroke="blue" stroke-width="2" />
<path d="M3355,2079 L91,2058" stroke="blue" stroke-width="2" />
<path d="M4582,1108 L2814,6638" stroke="blue" stroke-width="2" />
<path d="M6167,6858 L2404,6130" stroke="blue" stroke-width="2" />
<path d="M2942,1883 L2011,6083" stroke="blue" stroke-width="2" />
<path d="M6126,1522 L42,518" stroke="blue" stroke-width="2" />
<path d="M3788,6040 L7460,5280" stroke="blue" stroke-width="2" />
<path d="M6439,2838 L5108,892" stroke="blue" stroke-width="2" />
<path d="M6114,1170 L3501,4775" stroke="blue" stroke-width="2" />
<path d="M4882,4237 L3978,3090" stroke="blue" stroke-width="2" />
<path d="M5929,554 L7330,2789" stroke="blue" stroke-width="2" />
<path d="M4948,3427 L5428,2818" stroke="blue" stroke-width="2" />
<path d="M5094,2465 L4585,4482" stroke="blue" stroke-width="2" />
<path d="M1195,2349 L4954,4547" stroke="blue" stroke-width="2" />
<path d="M727,1700 L7418,5379" stroke="blue" stroke-width="2" />
<path d="M502,6407 L3792,1630" stroke="blue" stroke-width="2" />
<path d="M1372,4455 L6863,2554" stroke="blue" stroke-width="2" />
<path d="M5391,6073 L1456,6660" stroke="blue" stroke-width="2" />
<path d="M4035,6485 L2568,5415" stroke="blue" stroke-width="2" />
<path d="M3553,2638 L1319,6172" stroke="blue" stroke-width="2" />
<path d="M4756,6684 L2338,5715" stroke="blue" stroke-width="2" />
<path d="M6717,3235 L3346,2243" stroke="blue" stroke-width="2" />
<path d="M4473,3182 L4223,990" stroke="blue" stroke-width="2" />
<path d="M3434,4682 L3511,520" stroke="blue" stroke-width="2" />
<path d="M7575,6187 L7198,4381" stroke="blue" stroke-width="2" />
<path d="M6303,3136 L3606,4483" stroke="blue" stroke-width="2" />
<path d="M6143,4264 L4301,4720" stroke="blue" stroke-width="2" />
<path d="M5109,6685 L6043,2334" stroke="blue" stroke-width="2" />
<path d="M3795,4491 L6205,807" stroke="blue" stroke-width="2" />
<path d="M5939,2091 L1548,1590" stroke="blue" stroke-width="2" />
<path d="M3051,4129 L3674,2364" stroke="blue" stroke-width="2" />
<path d="M2084,986 L5033,1108" stroke="blue" stroke-width="2" />
<path d="M783,5829 L6450,712" stroke="blue" stroke-width="2" />
<path d="M3789,6247 L7709,5624" stroke="blue" stroke-width="2" />
<path d="M1481,4189 L6993,3517" stroke="blue" stroke-width="2" />
<path d="M2663,4281 L6745,4933" stroke="blue" stroke-width="2" />
<path d="M317,2817 L7071,2536" stroke="blue" stroke-width="2" />
<path d="M4469,2594 L6205,2317" stroke="blue" stroke-width="2" />
<path d="M2148,5930 L865,4494" stroke="blue" stroke-width="2" />
<path d="M6999,1002 L2676,1890" stroke="blue" stroke-width="2" />
<path d="M4205,5766 L2765,1575" stroke="blue" stroke-width="2" />
<path d="M5794,3829 L4080,143" stroke="blue" stroke-width="2" />
<path d="M6948,5235 L7544,2458" stroke="blue" stroke-width="2" />
<path d="M6798,4653 L1586,853" stroke="blue" stroke-width="2" />
<path d="M3932,4927 L5972,3550" stroke="blue" stroke-width="2" />
<path d="M3380,5828 L4293,5192" stroke="blue" stroke-width="2" />
<path d="M4130,6292 L6360,3942" stroke="blue" stroke-width="2" />
<path d="M5625,2451 L1299,1119" stroke="blue" stroke-width="2" />
<path d="M6597,3030 L375,1151" stroke="blue" stroke-width="2" />
<path d="M4632,230 L686,3338" stroke="blue" stroke-width="2" />
<path d="M7242,4299 L1587,5399" stroke="blue" stroke-width="2" />
<path d="M6652,4001 L2943,5082" stroke="blue" stroke-width="2" />
<path d="M5782,1224 L784,3962" stroke="blue" stroke-width="2" />
<path d="M2648,4485 L7515,2414" stroke="blue" stroke-width="2" />
<path d="M3582,4017 L1802,5782" stroke="blue" stroke-width="2" />
<path d="M4471,1460 L5415,2140" stroke="blue" stroke-width="2" />
<path d="M3069,2993 L5910,5810" stroke="blue" stroke-width="2" />
<path d="M3824,4922 L4703,2837" stroke="blue" stroke-width="2" />
<path d="M211,3912 L4467,2091" stroke="blue" stroke-width="2" />
<path d="M3780,641 L1262,1572" stroke="blue" stroke-width="2" />
<path d="M7527,5407 L7027,6275" stroke="blue" stroke-width="2" />
<path d="M3558,1105 L997,6531" stroke="blue" stroke-width="2" />
<path d="M2844,6921 L2697,3912" stroke="blue" stroke-width="2" />
<path d="M3175,1516 L3179,666" stroke="blue" stroke-width="2" />
<path d="M4215,306 L4803,4096" stroke="blue" stroke-width="2" />
<path d="M315,3127 L4342,530" stroke="blue" stroke-width="2" />
<path d="M6115,5989 L1741,2496" stroke="blue" stroke-width="2" />
<path d="M2113,5534 L1992,2339" stroke="blue" stroke-width="2" />
<path d="M6267,2451 L4723,1152" stroke="blue" stroke-width="2" />
<path d="M7500,2508 L3444,6725" stroke="blue" stroke-width="2" />
<path d="M2517,5169 L5956,2235" stroke="blue" stroke-width="2" />
<path d="M4603,4602 L4191,401" stroke="blue" stroke-width="2" />
<path d="M482,3612 L2114,6484" stroke="blue" stroke-width="2" />
<path d="M3020,3133 L2526,3660" stroke="blue" stroke-width="2" />
<path d="M4151,5902 L3545,5202" stroke="blue" stroke-width="2" />
<path d="M5263,4190 L1760,6382" stroke="blue" stroke-width="2" />
<path d="M3067,2155 L2175,6594" stroke="blue" stroke-width="2" />
<path d="M6995,873 L2201,6886" stroke="blue" stroke-width="2" />
<path d="M2129,2352 L1125,2922" stroke="blue" stroke-width="2" />
<path d="M6124,1739 L4010,392" stroke="blue" stroke-width="2" />
<path d="M3803,1088 L2382,2990" stroke="blue" stroke-width="2" />
<path d="M4542,4149 L5256,6220" stroke="blue" stroke-width="2" />
<path d="M5027,1529 L1917,5623" stroke="blue" stroke-width="2" />
<path d="M2534,3798 L5556,4356" stroke="blue" stroke-width="2" />
<path d="M6184,5029 L6018,5224" stroke="blue" stroke-width="2" />
<path d="M5736,802 L5995,3577" stroke="blue" stroke-width="2" />
<path d="M3350,3160 L2175,1557" stroke="blue" stroke-width="2" />
<path d="M7180,2995 L1859,6877" stroke="blue" stroke-width="2" />
<path d="M126,1452 L4091,3119" stroke="blue" stroke-width="2" />
<path d="M2550,373 L2040,5807" stroke="blue" stroke-width="2" />
<path d="M6667,3410 L1695,693" stroke="blue" stroke-width="2" />
<path d="M1512,3330 L5174,4106" stroke="blue" stroke-width="2" />
<path d="M5950,3752 L7306,3948" stroke="blue" stroke-width="2" />
<path d="M7207,6292 L6339,6646" stroke="blue" stroke-width="2" />
<path d="M7137,6849 L417,1590" stroke="blue" stroke-width="2" />
<path d="M240,355 L5697,3132" stroke="blue" stroke-width="2" />
<path d="M4878,1637 L2020,415" stroke="blue" stroke-width="2" />
<path d="M5696,460 L233,5762" stroke="blue" stroke-width="2" />
<path d="M2194,1546 L7040,3460" stroke="blue" stroke-width="2" />
<path d="M2605,393 L7552,4761" stroke="blue" stroke-width="2" />
<path d="M328,1907 L7687,3655" stroke="blue" stroke-width="2" />
<path d="M6829,5187 L4457,5696" stroke="blue" stroke-width="2" />
<path d="M5285,1478 L27,6800" stroke="blue" stroke-width="2" />
<path d="M5666,3223 L5401,1956" stroke="blue" stroke-width="2" />
<path d="M6727,2870 L1624,4416" stroke="blue" stroke-width="2" />
<path d="M1649,6172 L1716,4095" stroke="blue" stroke-width="2" />
<path d="M551,5871 L1561,357" stroke="blue" stroke-width="2" />
<path d="M4084,3568 L1825,3464" stroke="blue" stroke-width="2" />
<path d="M6891,6083 L6862,6058" stroke="blue" stroke-width="2" />
<path d="M4208,4248 L387,2069" stroke="blue" stroke-width="2" />
<path d="M6718,3412 L4036,2572" stroke="blue" stroke-width="2" />
<path d="M3081,5198 L3727,1799" stroke="blue" stroke-width="2" />
<path d="M1917,4489 L4595,3765" stroke="blue" stroke-width="2" />
<path d="M2268,2577 L4554,6807" stroke="blue" stroke-width="2" />
<path d="M5595,6426 L4286,585" stroke="blue" stroke-width="2" />
<path d="M2675,1411 L3200,6664" stroke="blue" stroke-width="2" />
<path d="M5082,1566 L3140,5484" stroke="blue" stroke-width="2" />
<path d="M5586,5956 L1329,4450" stroke="blue" stroke-width="2" />
<path d="M7269,5828 L3109,4759" stroke="blue" stroke-width="2" />
<path d="M4283,2373 L253,253" stroke="blue" stroke-width="2" />
<path d="M7273,409 L5167,6535" stroke="blue" stroke-width="2" />
<path d="M3711,358 L1083,3893" stroke="blue" stroke-width="2" />
<path d="M5290,596 L1021,3091" stroke="blue" stroke-width="2" />
<path d="M6529,645 L1587,145" stroke="blue" stroke-width="2" />
<path d="M6546,3233 L6369,4904" stroke="blue" stroke-width="2" />
<path d="M4623,6524 L3228,2458" stroke="blue" stroke-width="2" />
<path d="M3359,4028 L4301,1008" stroke="blue" stroke-width="2" />
<path d="M6827,384 L3787,5159" stroke="blue" stroke-width="2" />
<path d="M3367,2156 L657,2845" stroke="blue" stroke-width="2" />
<path d="M4675,5299 L65,487" stroke="blue" stroke-width="2" />
<path d="M5127,4291 L5823,2332" stroke="blue" stroke-width="2" />
<path d="M1934,599 L6418,19" stroke="blue" stroke-width="2" />
<path d="M1336,6846 L7187,4951" stroke="blue" stroke-width="2" />
<path d="M3726,1406 L1258,2658" stroke="blue" stroke-width="2" />
<path d="M5497,6861 L4441,646" stroke="blue" stroke-width="2" />
<path d="M1319,3268 L4199,3132" stroke="blue" stroke-width="2" />
<path d="M1955,1607 L6193,1721" stroke="blue" stroke-width="2" />
<path d="M2374,6509 L3133,5056" stroke="blue" stroke-width="2" />
<path d="M5826,1893 L6926,5723" stroke="blue" stroke-width="2" />
<path d="M2983,4230 L6771,6852" stroke="blue" stroke-width="2" />
<path d="M5152,1138 L206,4618" stroke="blue" stroke-width="2" />
<path d="M4649,5626 L2916,1109" stroke="blue" stroke-width="2" />
<path d="M1425,6891 L5271,255" stroke="blue" stroke-width="2" />
<path d="M6912,3415 L1510,2890" stroke="blue" stroke-width="2" />
<path d="M7048,3001 L916,3393" stroke="blue" stroke-width="2" />
<path d="M5176,3503 L7226,2970" stroke="blue" stroke-width="2" />
<path d="M2083,934 L101,1276" stroke="blue" stroke-width="2" />
<path d="M5304,1313 L4525,4846" stroke="blue" stroke-width="2" />
<path d="M1798,5740 L5516,4231" stroke="blue" stroke-width="2" />
<path d="M3975,4589 L4836,15" stroke="blue" stroke-width="2" />
<path d="M2215,3495 L2172,4947" stroke="blue" stroke-width="2" />
<path d="M6214,5402 L2095,3959" stroke="blue" stroke-width="2" />
<path d="M0,0 L7773,0" stroke="red" stroke-width="10" />
<path d="M7773,0 L7773,6963" stroke="red" stroke-width="10" />
<path d="M0,6963 L7773,6963" stroke="red" stroke-width="10" />
<path d="M0,6963 L0,0" stroke="red" stroke-width="10" />
</svg>