<?xml version="1.0" encoding="UTF-8"?>
<svg xmlns="http://www.w3.org/2000/svg" xmlns:xlink="http://www.w3.org/1999/xlink"
     width="10000" height="10000" viewBox="0 0 10000 10000">
<defs>
</defs>
<path d="M5874,293 L3700,1691" stroke="blue" stroke-width="2" />
<path d="M1165,2279 L7559,2116" stroke="blue" stroke-width="2" />
<path d="M3656,2284 L1613,2484" stroke="blue" stroke-width="2" />
<path d="M7955,1462 L5556,147" stroke="blue" stroke-width="2" />
<path d="M5237,355 L7149,1720" stroke="blue" stroke-width="2" />
<path d="M4399,2169 L7153,1014" stroke="blue" stroke-width="2" />
<path d="M2682,662 L1050,44" stroke="blue" stroke-width="2" />
<path d="M4935,1531 L1942,1227" stroke="blue" stroke-width="2" />
<path d="M4150,2797 L5129,357" stroke="blue" stroke-width="2" />
<path d="M7363,2554 L7857,633" stroke="blue" stroke-width="2" />
<path d="M7207,127 L3105,376" stroke="blue" stroke-width="2" />
<path d="M625,782 L3049,1837" stroke="blue" stroke-width="2" />
<path d="M4937,710 L4895,2973" stroke="blue" stroke-width="2" />
<path d="M4343,193 L7025,2510" stroke="blue" stroke-width="2" />
<path d="M2612,1432 L3886,2447" stroke="blue" stroke-width="2" />
<path d="M1369,2888 L1484,2629" stroke="blue" stroke-width="2" />
<path d="M841,2427 L292,2998" stroke="blue" stroke-width="2" />
<path d="M2127,948 L1870,2925" stroke="blue" stroke-width="2" />
<path d="M6933,3027 L6741,688" stroke="blue" stroke-width="2" />
<path d="M719,1166 L4199,616" stroke="blue" stroke-width="2" />
<path d="M8015,598 L7210,289" stroke="blue" stroke-width="2" />
<path d="M3050,2545 L2158,2911" stroke="blue" stroke-width="2" />
<path d="M7984,2876 L220,462" stroke="blue" stroke-width="2" />
<path d="M4963,165 L289,379" stroke="blue" stroke-width="2" />
<path d="M2255,1998 L319,1571" stroke="blue" stroke-width="2" />
<path d="M7339,2821 L333,2501" stroke="blue" stroke-width="2" />
<path d="M1527,1253 L6786,1422" stroke="blue" stroke-width="2" />
<path d="M4349,2564 L59,3200" stroke="blue" stroke-width="2" />
<path d="M5692,2151 L224,441" stroke="blue" stroke-width="2" />
<path d="M7591,1597 L5139,395" stroke="blue" stroke-width="2" />
<path d="M972,2734 L2368,2621" stroke="blue" stroke-width="2" />
<path d="M3379,2898 L2730,2556" stroke="blue" stroke-width="2" />
<path d="M1480,84 L5982,1919" stroke="blue" stroke-width="2" />
<path d="M6929,1830 L7798,283" stroke="blue" stroke-width="2" />
<path d="M3729,1312 L2279,2193" stroke="blue" stroke-width="2" />
<path d="M7090,1736 L6700,3034" stroke="blue" stroke-width="2" />
<path d="M3673,2050 L1657,2468" stroke="blue" stroke-width="2" />
<path d="M7264,3155 L4739,2952" stroke="blue" stroke-width="2" />
<path d="M2162,2128 L7036,1730" stroke="blue" stroke-width="2" />
<path d="M3459,31 L1670,2530" stroke="blue" stroke-width="2" />
<path d="M259,2435 L5251,549" stroke="blue" stroke-width="2" />
<path d="M7341,249 L2012,24" stroke="blue" stroke-width="2" />
<path d="M2001,3228 L1705,1416" stroke="blue" stroke-width="2" />
<path d="M3328,1264 L7542,2273" stroke="blue" stroke-width="2" />
<path d="M778,290 L2207,70" stroke="blue" stroke-width="2" />
<path d="M2175,2694 L6413,1615" stroke="blue" stroke-width="2" />
<path d="M39,2115 L260,474" stroke="blue" stroke-width="2" />
<path d="M5951,1612 L314,427" stroke="blue" stroke-width="2" />
<path d="M2527,664 L4883,605" stroke="blue" stroke-width="2" />
<path d="M5672,2116 L4996,2616" stroke="blue" stroke-width="2" />
<path d="M2586,301 L4039,2137" stroke="blue" stroke-width="2" />
<path d="M5616,1419 L7429,794" stroke="blue" stroke-width="2" />
<path d="M6723,1659 L7159,2649" stroke="blue" stroke-width="2" />
<path d="M7433,2919 L5953,2047" stroke="blue" stroke-width="2" />
<path d="M4647,1502 L1769,2948" stroke="blue" stroke-width="2" />
<path d="M1444,1619 L5173,794" stroke="blue" stroke-width="2" />
<path d="M7320,3187 L3368,782" stroke="blue" stroke-width="2" />
<path d="M687,2164 L2224,568" stroke="blue" stroke-width="2" />
<path d="M741,1553 L2415,436" stroke="blue" stroke-width="2" />
<path d="M3078,781 L3889,1905" stroke="blue" stroke-width="2" />
<path d="M7195,880 L2603,1885" stroke="blue" stroke-width="2" />
<path d="M2050,1971 L2277,29" stroke="blue" stroke-width="2" />
<path d="M4945,1259 L1056,2662" stroke="blue" stroke-width="2" />
<path d="M1791,1257 L5759,333" stroke="blue" stroke-width="2" />
<path d="M5633,435 L2293,3168" stroke="blue" stroke-width="2" />
<path d="M485,1518 L2230,602" stroke="blue" stroke-width="2" />
<path d="M2382,200 L55,2711" stroke="blue" stroke-width="2" />
<path d="M1028,1686 L2968,1194" stroke="blue" stroke-width="2" />
<path d="M4251,2730 L2145,2686" stroke="blue" stroke-width="2" />
<path d="M4922,1572 L3816,1656" stroke="blue" stroke-width="2" />
<path d="M5446,1647 L225,1444" stroke="blue" stroke-width="2" />
<path d="M3234,3011 L7842,1984" stroke="blue" stroke-width="2" />
<path d="M7292,1069 L7156,891" stroke="blue" stroke-width="2" />
<path d="M7004,346 L6538,532" stroke="blue" stroke-width="2" />
<path d="M2132,168 L6940,2315" stroke="blue" stroke-width="2" />
<path d="M44,792 L1558,505" stroke="blue" stroke-width="2" />
<path d="M7986,2256 L5262,1002" stroke="blue" stroke-width="2" />
<path d="M6408,767 L4576,700" stroke="blue" stroke-width="2" />
<path d="M7536,978 L3922,833" stroke="blue" stroke-width="2" />
<path d="M7901,1782 L1387,1881" stroke="blue" stroke-width="2" />
<path d="M4522,175 L2211,2614" stroke="blue" stroke-width="2" />
<path d="M3187,720 L2512,730" stroke="blue" stroke-width="2" />
<path d="M295,2125 L5733,2449" stroke="blue" stroke-width="2" />
<path d="M5882,2154 L6258,1509" stroke="blue" stroke-width="2" />
<path d="M7057,2741 L1748,1034" stroke="blue" stroke-width="2" />
<path d="M4112,1063 L7829,2804" stroke="blue" stroke-width="2" />
<path d="M4265,1225 L5489,354" stroke="blue" stroke-width="2" />
<path d="M4998,1087 L4857,1536" stroke="blue" stroke-width="2" />
<path d="M4424,508 L2314,1638" stroke="blue" stroke-width="2" />
<path d="M2948,24 L3982,2136" stroke="blue" stroke-width="2" />
<path d="M1140,2073 L6808,860" stroke="blue" stroke-width="2" />
<path d="M5280,2662 L1293,1550" stroke="blue" stroke-width="2" />
<path d="M5395,2855 L1283,2674" stroke="blue" stroke-width="2" />
<path d="M3369,5 L1514,444" stroke="blue" stroke-width="2" />
<path d="M7599,344 L4101,315" stroke="blue" stroke-width="2" />
<path d="M1012,59 L1793,150" stroke="blue" stroke-width="2" />
<path d="M1916,395 L929,2347" stroke="blue" stroke-width="2" />
<path d="M5911,1372 L1918,2489" stroke="blue" stroke-width="2" />
<path d="M4626,424 L7665,1857" stroke="blue" stroke-width="2" />
<path d="M1519,1835 L3550,3209" stroke="blue" stroke-width="2" />
<path d="M3516,2245 L7463,44" stroke="blue" stroke-width="2" />
<path d="M2396,1513 L1838,1819" stroke="blue" stroke-width="2" />
<path d="M3768,2843 L2892,1308" stroke="blue" stroke-width="2" />
<path d="M1978,1634 L1590,1993" stroke="blue" stroke-width="2" />
<path d="M1819,1730 L2226,2553" stroke="blue" stroke-width="2" />
<path d="M403,2216 L3578,443" stroke="blue" stroke-width="2" />
<path d="M586,1052 L5867,524" stroke="blue" stroke-width="2" />
<path d="M633,1624 L7586,3114" stroke="blue" stroke-width="2" />
<path d="M5132,502 L5981,593" stroke="blue" stroke-width="2" />
<path d="M3345,3072 L6453,2221" stroke="blue" stroke-width="2" />
<path d="M6673,2241 L761,2058" stroke="blue" stroke-width="2" />
<path d="M5356,2205 L6546,2961" stroke="blue" stroke-width="2" />
<path d="M6011,2107 L7493,281" stroke="blue" stroke-width="2" />
<path d="M978,305 L156,3023" stroke="blue" stroke-width="2" />
<path d="M359,268 L468,1315" stroke="blue" stroke-width="2" />
<path d="M6557,777 L7498,452" stroke="blue" stroke-width="2" />
<path d="M2861,2713 L962,2633" stroke="blue" stroke-width="2" />
<path d="M6129,914 L4264,2543" stroke="blue" stroke-width="2" />
<path d="M2419,1094 L2724,144" stroke="blue" stroke-width="2" />
<path d="M6745,610 L5898,2649" stroke="blue" stroke-width="2" />
<path d="M4329,222 L7957,1135" stroke="blue" stroke-width="2" />
<path d="M4912,2141 L5453,254" stroke="blue" stroke-width="2" />
<path d="M4065,2444 L5099,2674" stroke="blue" stroke-width="2" />
<path d="M4324,2056 L833,2376" stroke="blue" stroke-width="2" />
<path d="M1053,56 L5022,1272" stroke="blue" stroke-width="2" />
<path d="M39,2198 L7437,1681" stroke="blue" stroke-width="2" />
<path d="M3438,297 L5066,684" stroke="blue" stroke-width="2" />
<path d="M7744,1038 L6727,2920" stroke="blue" stroke-width="2" />
<path d="M6679,1212 L2821,1589" stroke="blue" stroke-width="2" />
<path d="M8069,2668 L4505,3024" stroke="blue" stroke-width="2" />
<path d="M6219,1757 L970,1303" stroke="blue" stroke-width="2" />
<path d="M1300,1947 L7434,722" stroke="blue" stroke-width="2" />
<path d="M6052,3069 L1090,2964" stroke="blue" stroke-width="2" />
<path d="M5488,2900 L1717,3037" stroke="blue" stroke-width="2" />
<path d="M6271,386 L6910,2790" stroke="blue" stroke-width="2" />
<path d="M2816,1065 L7883,188" stroke="blue" stroke-width="2" />
<path d="M3526,2355 L2067,2561" stroke="blue" stroke-width="2" />
<path d="M3124,1024 L481,572" stroke="blue" stroke-width="2" />
<path d="M1695,616 L6131,2853" stroke="blue" stroke-width="2" />
<path d="M7596,1443 L5346,3153" stroke="blue" stroke-width="2" />
<path d="M5727,1441 L1899,212" stroke="blue" stroke-width="2" />
<path d="M336,823 L1498,3211" stroke="blue" stroke-width="2" />
<path d="M1760,1717 L1688,2352" stroke="blue" stroke-width="2" />
<path d="M398,2365 L2952,464" stroke="blue" stroke-width="2" />
<path d="M7249,908 L1810,2183" stroke="blue" stroke-width="2" />
<path d="M464,797 L5563,390" stroke="blue" stroke-width="2" />
<path d="M4279,184 L896,891" stroke="blue" stroke-width="2" />
<path d="M3096,2049 L2705,2372" stroke="blue" stroke-width="2" />
<path d="M5298,1056 L5502,1778" stroke="blue" stroke-width="2" />
<path d="M601,3006 L2135,3136" stroke="blue" stroke-width="2" />
<path d="M3507,1506 L7570,3118" stroke="blue" stroke-width="2" />
<path d="M1733,920 L1598,2752" stroke="blue" stroke-width="2" />
<path d="M4800,2144 L2743,1865" stroke="blue" stroke-width="2" />
<path d="M2649,1277 L354,846" stroke="blue" stroke-width="2" />
<path d="M7221,3041 L7271,168" stroke="blue" stroke-width="2" />
<path d="M780,531 L4021,3143" stroke="blue" stroke-width="2" />
<path d="M3564,443 L5713,1809" stroke="blue" stroke-width="2" />
<path d="M7709,1131 L3329,303" stroke="blue" stroke-width="2" />
<path d="M6859,2296 L6228,1472" stroke="blue" stroke-width="2" />
<path d="M4167,2973 L1555,3039" stroke="blue" stroke-width="2" />
<path d="M6741,466 L398,894" stroke="blue" stroke-width="2" />
<path d="M4419,3087 L6512,87" stroke="blue" stroke-width="2" />
<path d="M7704,250 L2433,1792" stroke="blue" stroke-width="2" />
<path d="M4018,918 L5273,1693" stroke="blue" stroke-width="2" />
<path d="M5931,2097 L4420,964" stroke="blue" stroke-width="2" />
<path d="M5830,1380 L3021,2011" stroke="blue" stroke-width="2" />
<path d="M52,827 L4191,1641" stroke="blue" stroke-width="2" />
<path d="M6323,2139 L6728,3165" stroke="blue" stroke-width="2" />
<path d="M7808,23 L5354,2325" stroke="blue" stroke-width="2" />
<path d="M3128,2856 L8052,1717" stroke="blue" stroke-width="2" />
<path d="M6621,1420 L6736,298" stroke="blue" stroke-width="2" />
<path d="M5838,967 L1060,2597" stroke="blue" stroke-width="2" />
<path d="M7303,886 L1572,2532" stroke="blue" stroke-width="2" />
<path d="M2100,2451 L1919,1943" stroke="blue" stroke-width="2" />
<path d="M5505,944 L2285,2889" stroke="blue" stroke-width="2" />
<path d="M2814,1913 L975,771" stroke="blue" stroke-width="2" />
<path d="M7654,2993 L3003,2334" stroke="blue" stroke-width="2" />
<path d="M4189,1793 L8033,1833" stroke="blue" stroke-width="2" />
<path d="M7020,201 L1655,379" stroke="blue" stroke-width="2" />
<path d="M6964,248 L6914,2857" stroke="blue" stroke-width="2" />
<path d="M2202,433 L6292,1099" stroke="blue" stroke-width="2" />
<path d="M6560,1983 L2159,2515" stroke="blue" stroke-width="2" />
<path d="M4940,1081 L6675,1437" stroke="blue" stroke-width="2" />
<path d="M4199,2833 L4976,2744" stroke="blue" stroke-width="2" />
<path d="M6955,1340 L5643,2034" stroke="blue" stroke-width="2" />
<path d="M1564,2986 L2434,1976" stroke="blue" stroke-width="2" />
<path d="M7404,2610 L6575,1470" stroke="blue" stroke-width="2" />
<path d="M8074,2234 L6120,2718" stroke="blue" stroke-width="2" />
<path d="M3115,2445 L2016,1784" stroke="blue" stroke-width="2" />
<path d="M5670,3023 L4412,1685" stroke="blue" stroke-width="2" />
<path d="M4978,1035 L7082,623" stroke="blue" stroke-width="2" />
<path d="M816,2520 L3928,2977" stroke="blue" stroke-width="2" />
<path d="M1598,714 L1429,1107" stroke="blue" stroke-width="2" />
<path d="M2710,3117 L7337,950" stroke="blue" stroke-width="2" />
<path d="M6505,430 L3217,2077" stroke="blue" stroke-width="2" />
<path d="M2221,387 L2443,3031" stroke="blue" stroke-width="2" />
<path d="M5979,443 L2303,2577" stroke="blue" stroke-width="2" />
<path d="M1444,1345 L546,905" stroke="blue" stroke-width="2" />
<path d="M2767,138 L2118,1954" stroke="blue" stroke-width="2" />
<path d="M3000,2382 L3704,3170" stroke="blue" stroke-width="2" />
<path d="M1425,106 L4826,841" stroke="blue" stroke-width="2" />
<path d="M3472,3169 L2252,2787" stroke="blue" stroke-width="2" />
<path d="M1571,475 L7245,3025" stroke="blue" stroke-width="2" />
<path d="M3920,2999 L2679,165" stroke="blue" stroke-width="2" />
<path d="M88,636 L4724,2131" stroke="blue" stroke-width="2" />
<path d="M7304,1692 L4009,1987" stroke="blue" stroke-width="2" />
<path d="M2607,395 L7655,2009" stroke="blue" stroke-width="2" />
<path d="M947,982 L1718,967" stroke="blue" stroke-width="2" />
<path d="M3387,1342 L6328,1119" stroke="blue" stroke-width="2" />
<path d="M5787,2288 L744,2674" stroke="blue" stroke-width="2" />
<path d="M6040,2412 L6640,1398" stroke="blue" stroke-width="2" />
<path d="M366,2909 L5085,388" stroke="blue" stroke-width="2" />
<path d="M2122,1334 L2348,2299" stroke="blue" stroke-width="2" />
<path d="M300,3107 L6356,1669" stroke="blue" stroke-width="2" />
<path d="M2254,384 L6798,456" stroke="blue" stroke-width="2" />
<path d="M7891,2033 L791,3151" stroke="blue" stroke-width="2" />
<path d="M159,2805 L958,1326" stroke="blue" stroke-width="2" />
<path d="M6746,1650 L5238,433" stroke="blue" stroke-width="2" />
<path d="M4332,1392 L815,356" stroke="blue" stroke-width="2" />
<path d="M616,2140 L2684,2652" stroke="blue" stroke-width="2" />
<path d="M6128,1906 L5719,846" stroke="blue" stroke-width="2" />
<path d="M4615,3209 L1009,888" stroke="blue" stroke-width="2" />
<path d="M2631,530 L4740,497" stroke="blue" stroke-width="2" />
<path d="M6713,240 L7191,3044" stroke="blue" stroke-width="2" />
<path d="M3197,2943 L7675,2182" stroke="blue" stroke-width="2" />
<path d="M1434,2923 L891,2199" stroke="blue" stroke-width="2" />
<path d="M2472,2772 L3473,880" stroke="blue" stroke-width="2" />
<path d="M3358,2323 L4808,493" stroke="blue" stroke-width="2" />
<path d="M7202,2006 L1062,541" stroke="blue" stroke-width="2" />
<path d="M4305,2132 L1595,3144" stroke="blue" stroke-width="2" />
<path d="M6583,3064 L5466,1847" stroke="blue" stroke-width="2" />
<path d="M7395,1566 L6028,2919" stroke="blue" stroke-width="2" />
<path d="M7721,1898 L1802,165" stroke="blue" stroke-width="2" />
<path d="M2734,2721 L2594,581" stroke="blue" stroke-width="2" />
<path d="M7487,221 L4525,2739" stroke="blue" stroke-width="2" />
<path d="M2674,763 L3367,265" stroke="blue" stroke-width="2" />
<path d="M4788,2477 L6466,174" stroke="blue" stroke-width="2" />
<path d="M1256,1277 L3915,2951" stroke="blue" stroke-width="2" />
<path d="M7250,2352 L5194,1332" stroke="blue" stroke-width="2" />
<path d="M5689,786 L5131,3011" stroke="blue" stroke-width="2" />
<path d="M7970,1083 L5855,692" stroke="blue" stroke-width="2" />
<path d="M410,592 L7178,2046" stroke="blue" stroke-width="2" />
<path d="M3229,2770 L6662,2048" stroke="blue" stroke-width="2" />
<path d="M3812,1837 L3069,1367" stroke="blue" stroke-width="2" />
<path d="M5829,1092 L5879,682" stroke="blue" stroke-width="2" />
<path d="M2697,2394 L5262,1468" stroke="blue" stroke-width="2" />
<path d="M8031,933 L1862,1163" stroke="blue" stroke-width="2" />
<path d="M2280,729 L5904,2709" stroke="blue" stroke-width="2" />
<path d="M3525,2003 L5373,837" stroke="blue" stroke-width="2" />
<path d="M1120,3045 L5024,1646" stroke="blue" stroke-width="2" />
<path d="M3810,167 L1222,269" stroke="blue" stroke-width="2" />
<path d="M7644,3168 L4261,321" stroke="blue" stroke-width="2" />
<path d="M523,1890 L7754,1381" stroke="blue" stroke-width="2" />
<path d="M7158,1554 L455,2927" stroke="blue" stroke-width="2" />
<path d="M2413,811 L3495,2755" stroke="blue" stroke-width="2" />
<path d="M3017,1589 L1489,1325" stroke="blue" stroke-width="2" />
<path d="M1211,2482 L1527,972" stroke="blue" stroke-width="2" />
<path d="M3466,1492 L1533,2493" stroke="blue" stroke-width="2" />
<path d="M7594,2314 L5293,2256" stroke="blue" stroke-width="2" />
<path d="M4193,1428 L3404,2081" stroke="blue" stroke-width="2" />
<path d="M4368,521 L2839,201" stroke="blue" stroke-width="2" />
<path d="M3632,993 L4467,628" stroke="blue" stroke-width="2" />
<path d="M7495,2961 L1262,2355" stroke="blue" stroke-width="2" />
<path d="M1503,3021 L853,1885" stroke="blue" stroke-width="2" />
<path d="M487,2401 L4862,2837" stroke="blue" stroke-width="2" />
<path d="M3232,334 L4901,1223" stroke="blue" stroke-width="2" />
<path d="M3250,729 L335,125" stroke="blue" stroke-width="2" />
<path d="M4820,2966 L4573,2381" stroke="blue" stroke-width="2" />
<path d="M7640,1896 L4763,1708" stroke="blue" stroke-width="2" />
<path d="M4792,688 L7290,455" stroke="blue" stroke-width="2" />
<path d="M4104,264 L6721,2655" stroke="blue" stroke-width="2" />
<path d="M1142,1748 L4848,1293" stroke="blue" stroke-width="2" />
<path d="M5606,3008 L400,502" stroke="blue" stroke-width="2" />
<path d="M2220,991 L4571,1413" stroke="blue" stroke-width="2" />
<path d="M2695,47 L204,877" stroke="blue" stroke-width="2" />
<path d="M7584,3085 L3293,1218" stroke="blue" stroke-width="2" />
<path d="M774,898 L2934,614" stroke="blue" stroke-width="2" />
<path d="M163,1427 L4018,1160" stroke="blue" stroke-width="2" />
<path d="M659,567 L5794,1809" stroke="blue" stroke-width="2" />
<path d="M1664,322 L4486,1263" stroke="blue" stroke-width="2" />
<path d="M7852,1800 L6321,2169" stroke="blue" stroke-width="2" />
<path d="M6980,491 L2926,1803" stroke="blue" stroke-width="2" />
<path d="M5908,2820 L4389,1849" stroke="blue" stroke-width="2" />
<path d="M78,2206 L5554,1649" stroke="blue" stroke-width="2" />
<path d="M6614,1630 L4922,2221" stroke="blue" stroke-width="2" />
<path d="M415,2392 L3291,2525" stroke="blue" stroke-width="2" />
<path d="M5846,2916 L3563,2904" stroke="blue" stroke-width="2" />
<path d="M7959,2621 L3502,1265" stroke="blue" stroke-width="2" />
<path d="M3150,1351 L4053,1955" stroke="blue" stroke-width="2" />
<path d="M5392,1565 L2625,2273" stroke="blue" stroke-width="2" />
<path d="M2342,2382 L6287,2762" stroke="blue" stroke-width="2" />
<path d="M4920,737 L6028,2086" stroke="blue" stroke-width="2" />
<path d="M346,20 L1816,2630" stroke="blue" stroke-width="2" />
<path d="M2662,419 L4200,2468" stroke="blue" stroke-width="2" />
<path d="M7892,483 L1240,1600" stroke="blue" stroke-width="2" />
<path d="M4869,2916 L5161,1975" stroke="blue" stroke-width="2" />
<path d="M1700,2565 L4741,2912" stroke="blue" stroke-width="2" />
<path d="M881,2833 L3259,987" stroke="blue" stroke-width="2" />
<path d="M366,479 L7218,1975" stroke="blue" stroke-width="2" />
<path d="M1353,2544 L2475,1826" stroke="blue" stroke-width="2" />
<path d="M4457,2879 L1945,2655" stroke="blue" stroke-width="2" />
<path d="M932,13 L131,1529" stroke="blue" stroke-width="2" />
<path d="M6490,1048 L3695,3194" stroke="blue" stroke-width="2" />
<path d="M6615,2676 L454,1419" stroke="blue" stroke-width="2" />
<path d="M2378,502 L802,580" stroke="blue" stroke-width="2" />
<path d="M3296,1094 L349,1980" stroke="blue" stroke-width="2" />
<path d="M2714,1864 L7274,1459" stroke="blue" stroke-width="2" />
<path d="M1490,899 L1405,1238" stroke="blue" stroke-width="2" />
<path d="M6596,1260 L81,2313" stroke="blue" stroke-width="2" />
<path d="M7495,1278 L6939,3090" stroke="blue" stroke-width="2" />
<path d="M6542,1210 L4098,2695" stroke="blue" stroke-width="2" />
<path d="M7268,2634 L5574,2335" stroke="blue" stroke-width="2" />
<path d="M674,1936 L5305,1624" stroke="blue" stroke-width="2" />
<path d="M1424,1046 L7122,2510" stroke="blue" stroke-width="2" />
<path d="M1882,3180 L1802,662" stroke="blue" stroke-width="2" />
<path d="M1199,657 L1235,2377" stroke="blue" stroke-width="2" />
<path d="M5737,2614 L1946,2621" stroke="blue" stroke-width="2" />
<path d="M7025,2902 L753,2680" stroke="blue" stroke-width="2" />
<path d="M5154,368 L2898,2112" stroke="blue" stroke-width="2" />
<path d="M8081,2371 L542,3232" stroke="blue" stroke-width="2" />
<path d="M6828,469 L5434,2621" stroke="blue" stroke-width="2" />
<path d="M4894,2163 L4956,2559" stroke="blue" stroke-width="2" />
<path d="M720,2272 L1154,147" stroke="blue" stroke-width="2" />
<path d="M6826,1326 L3041,1072" stroke="blue" stroke-width="2" />
<path d="M6403,431 L3472,808" stroke="blue" stroke-width="2" />
<path d="M5539,1614 L7557,991" stroke="blue" stroke-width="2" />
<path d="M8035,3147 L4048,1858" stroke="blue" stroke-width="2" />
<path d="M2846,3069 L2492,884" stroke="blue" stroke-width="2" />
<path d="M1324,1597 L1434,3037" stroke="blue" stroke-width="2" />
<path d="M6968,2937 L3871,2968" stroke="blue" stroke-width="2" />
<path d="M3867,1940 L245,194" stroke="blue" stroke-width="2" />
<path d="M1363,1305 L4651,2254" stroke="blue" stroke-width="2" />
<path d="M6256,204 L5394,631" stroke="blue" stroke-width="2" />
<path d="M1490,1883 L2004,3143" stroke="blue" stroke-width="2" />
<path d="M156,863 L2244,2653" stroke="blue" stroke-width="2" />
<path d="M277,2599 L4500,2561" stroke="blue" stroke-width="2" />
<path d="M4480,374 L6574,340" stroke="blue" stroke-width="2" />
<path d="M3649,14 L7293,1870" stroke="blue" stroke-width="2" />
<path d="M6947,1285 L6188,958" stroke="blue" stroke-width="2" />
<path d="M172,1799 L7224,1777" stroke="blue" stroke-width="2" />
<path d="M1433,2377 L1688,2617" stroke="blue" stroke-width="2" />
<path d="M7617,1890 L5870,458" stroke="blue" stroke-width="2" />
<path d="M7941,2649 L6012,2727" stroke="blue" stroke-width="2" />
<path d="M3474,980 L7529,839" stroke="blue" stroke-width="2" />
<path d="M1624,488 L7991,300" stroke="blue" stroke-width="2" />
<path d="M2549,2452 L5387,682" stroke="blue" stroke-width="2" />
<path d="M2510,2267 L6545,1900" stroke="blue" stroke-width="2" />
<path d="M3551,1846 L585,2301" stroke="blue" stroke-width="2" />
<path d="M396,846 L2559,2493" stroke="blue" stroke-width="2" />
<path d="M2585,2924 L3174,2190" stroke="blue" stroke-width="2" />
<path d="M5270,587 L1276,3051" stroke="blue" stroke-width="2" />
<path d="M6522,1269 L3290,1637" stroke="blue" stroke-width="2" />
<path d="M5174,1803 L472,384" stroke="blue" stroke-width="2" />
<path d="M2344,1495 L3269,1281" stroke="blue" stroke-width="2" />
<path d="M7089,3031 L7907,441" stroke="blue" stroke-width="2" />
<path d="M1124,633 L4217,904" stroke="blue" stroke-width="2" />
<path d="M2239,864 L5096,1324" stroke="blue" stroke-width="2" />
<path d="M3258,1073 L6261,2648" stroke="blue" stroke-width="2" />
<path d="M3455,1778 L5566,2390" stroke="blue" stroke-width="2" />
<path d="M5454,1636 L2332,1418" stroke="blue" stroke-width="2" />
<path d="M4014,854 L1087,360" stroke="blue" stroke-width="2" />
<path d="M937,1031 L8012,2512" stroke="blue" stroke-width="2" />
<path d="M6359,1760 L2246,1249" stroke="blue" stroke-width="2" />
<path d="M2342,716 L1549,2948" stroke="blue" stroke-width="2" />
<path d="M4195,1459 L3157,1775" stroke="blue" stroke-width="2" />
<path d="M1785,699 L5925,1545" stroke="blue" stroke-width="2" />
<path d="M6124,181 L716,38" stroke="blue" stroke-width="2" />
<path d="M1091,3138 L6299,116" stroke="blue" stroke-width="2" />
<path d="M1733,459 L5983,1143" stroke="blue" stroke-width="2" />
<path d="M1575,1007 L7272,152" stroke="blue" stroke-width="2" />
<path d="M4896,2428 L2044,3047" stroke="blue" stroke-width="2" />
<path d="M5750,3110 L6629,1105" stroke="blue" stroke-width="2" />
<path d="M2017,2796 L981,220" stroke="blue" stroke-width="2" />
<path d="M5854,1765 L7386,860" stroke="blue" stroke-width="2" />
<path d="M7345,1636 L6305,3241" stroke="blue" stroke-width="2" />
<path d="M635,1765 L1804,2063" stroke="blue" stroke-width="2" />
<path d="M3016,710 L4307,3043" stroke="blue" stroke-width="2" />
<path d="M2212,1001 L3848,2864" stroke="blue" stroke-width="2" />
<path d="M2905,1894 L5669,99" stroke="blue" stroke-width="2" />
<path d="M7688,1859 L5750,1729" stroke="blue" stroke-width="2" />
<path d="M1642,103 L2301,2031" stroke="blue" stroke-width="2" />
<path d="M7870,2681 L4274,1707" stroke="blue" stroke-width="2" />
<path d="M847,2462 L2418,2049" stroke="blue" stroke-width="2" />
<path d="M386,309 L1865,1800" stroke="blue" stroke-width="2" />
<path d="M3284,1777 L4250,1429" stroke="blue" stroke-width="2" />
<path d="M6940,2208 L6976,1010" stroke="blue" stroke-width="2" />
<path d="M5445,780 L2866,3235" stroke="blue" stroke-width="2" />
<path d="M3372,2352 L928,2419" stroke="blue" stroke-width="2" />
<path d="M6990,2848 L1285,1851" stroke="blue" stroke-width="2" />
<path d="M78,1667 L3295,303" stroke="blue" stroke-width="2" />
<path d="M768,143 L4066,906" stroke="blue" stroke-width="2" />
<path d="M758,1252 L6892,2491" stroke="blue" stroke-width="2" />
<path d="M655,2609 L1766,2555" stroke="blue" stroke-width="2" />
<path d="M1599,975 L5007,3219" stroke="blue" stroke-width="2" />
<path d="M6865,2880 L7541,1986" stroke="blue" stroke-width="2" />
<path d="M3576,1402 L6589,1940" stroke="blue" stroke-width="2" />
<path d="M6313,2584 L1151,518" stroke="blue" stroke-width="2" />
<path d="M4709,2502 L5417,791" stroke="blue" stroke-width="2" />
<path d="M2537,1588 L292,859" stroke="blue" stroke-width="2" />
<path d="M6746,2158 L4159,1576" stroke="blue" stroke-width="2" />
<path d="M6505,259 L6185,1449" stroke="blue" stroke-width="2" />
<path d="M2431,1543 L3797,2955" stroke="blue" stroke-width="2" />
<path d="M2361,865 L4098,530" stroke="blue" stroke-width="2" />
<path d="M237,427 L2906,260" stroke="blue" stroke-width="2" />
<path d="M2387,269 L1577,1409" stroke="blue" stroke-width="2" />
<path d="M2373,440 L7351,1427" stroke="blue" stroke-width="2" />
<path d="M3083,3137 L1978,1016" stroke="blue" stroke-width="2" />
<path d="M2681,1959 L1848,704" stroke="blue" stroke-width="2" />
<path d="M2138,2151 L2326,1658" stroke="blue" stroke-width="2" />
<path d="M3269,427 L1974,3095" stroke="blue" stroke-width="2" />
<path d="M1072,47 L2374,2956" stroke="blue" stroke-width="2" />
<path d="M5790,781 L690,806" stroke="blue" stroke-width="2" />
<path d="M1859,1831 L2153,2679" stroke="blue" stroke-width="2" />
<path d="M8053,69 L6333,2991" stroke="blue" stroke-width="2" />
<path d="M5169,1774 L7753,2949" stroke="blue" stroke-width="2" />
<path d="M1190,2278 L5366,2385" stroke="blue" stroke-width="2" />
<path d="M7007,1678 L3308,2433" stroke="blue" stroke-width="2" />
<path d="M4802,974 L4344,1240" stroke="blue" stroke-width="2" />
<path d="M4960,230 L2098,646" stroke="blue" stroke-width="2" />
<path d="M2315,667 L2646,1270" stroke="blue" stroke-width="2" />
<path d="M3401,3112 L7202,2213" stroke="blue" stroke-width="2" />
<path d="M6751,274 L3908,1165" stroke="blue" stroke-width="2" />
<path d="M2660,2482 L5259,1598" stroke="blue" stroke-width="2" />
<path d="M2390,1832 L4532,116" stroke="blue" stroke-width="2" />
<path d="M2711,71 L96,1471" stroke="blue" stroke-width="2" />
<path d="M6945,1036 L7658,653" stroke="blue" stroke-width="2" />
<path d="M7901,2612 L7363,1410" stroke="blue" stroke-width="2" />
<path d="M2309,2135 L2714,1660" stroke="blue" stroke-width="2" />
<path d="M814,3083 L99,3130" stroke="blue" stroke-width="2" />
<path d="M1323,2582 L5088,1891" stroke="blue" stroke-width="2" />
<path d="M328,522 L3959,2296" stroke="blue" stroke-width="2" />
<path d="M1612,2189 L4432,3040" stroke="blue" stroke-width="2" />
<path d="M4213,1446 L409,2194" stroke="blue" stroke-width="2" />
<path d="M6608,2645 L6771,1588" stroke="blue" stroke-width="2" />
<path d="M4778,1928 L7449,350" stroke="blue" stroke-width="2" />
<path d="M6718,1451 L6927,3041" stroke="blue" stroke-width="2" />
<path d="M7296,1055 L7340,852" stroke="blue" stroke-width="2" />
<path d="M3052,2618 L7924,3200" stroke="blue" stroke-width="2" />
<path d="M2641,2674 L886,156" stroke="blue" stroke-width="2" />
<path d="M3826,1048 L293,1715" stroke="blue" stroke-width="2" />
<path d="M5201,1077 L3998,2420" stroke="blue" stroke-width="2" />
<path d="M4079,478 L3904,1246" stroke="blue" stroke-width="2" />
<path d="M4325,257 L1493,2336" stroke="blue" stroke-width="2" />
<path d="M2661,2121 L4376,939" stroke="blue" stroke-width="2" />
<path d="M4732,189 L5838,1911" stroke="blue" stroke-width="2" />
<path d="M3867,2582 L6228,1518" stroke="blue" stroke-width="2" />
<path d="M2116,2083 L3073,1701" stroke="blue" stroke-width="2" />
<path d="M5209,2504 L4012,792" stroke="blue" stroke-width="2" />
<path d="M7488,394 L3594,1425" stroke="blue" stroke-width="2" />
<path d="M256,555 L1732,3230" stroke="blue" stroke-width="2" />
<path d="M7049,2918 L6164,2842" stroke="blue" stroke-width="2" />
<path d="M995,1522 L4348,2572" stroke="blue" stroke-width="2" />
<path d="M2189,3221 L6012,2679" stroke="blue" stroke-width="2" />
<path d="M649,233 L5481,1746" stroke="blue" stroke-width="2" />
<path d="M0,0 L8086,0" stroke="red" stroke-width="10" />
<path d="M8086,0 L8086,3251" stroke="red" stroke-width="10" />
<path d="M0,3251 L8086,3251" stroke="red" stroke-width="10" />
<path d="M0,3251 L0,0" stroke="red" stroke-width="10" />
</svg>