<?xml version="1.0" encoding="UTF-8"?>
<svg xmlns="http://www.w3.org/2000/svg" xmlns:xlink="http://www.w3.org/1999/xlink"
     width="10000" height="10000" viewBox="0 0 10000 10000">
<defs>
</defs>
<path d="M582,5835 L4305,5049" stroke="blue" stroke-width="2" />
<path d="M3576,345 L2262,2029" stroke="blue" stroke-width="2" />
<path d="M3292,4732 L195,4209" stroke="blue" stroke-width="2" />
<path d="M4029,6428 L173,5161" stroke="blue" stroke-width="2" />
<path d="M2173,6004 L3557,6520" stroke="blue" stroke-width="2" />
<path d="M4968,5402 L187,1978" stroke="blue" stroke-width="2" />
<path d="M3605,6839 L4444,400" stroke="blue" stroke-width="2" />
<path d="M4263,6168 L4728,1558" stroke="blue" stroke-width="2" />
<path d="M5858,3332 L2931,880" stroke="blue" stroke-width="2" />
<path d="M6120,5939 L1530,3535" stroke="blue" stroke-width="2" />
<path d="M5208,4642 L873,3468" stroke="blue" stroke-width="2" />
<path d="M5494,5765 L2543,4340" stroke="blue" stroke-width="2" />
<path d="M2785,7306 L2250,3035" stroke="blue" stroke-width="2" />
<path d="M3821,5362 L733,1986" stroke="blue" stroke-width="2" />
<path d="M2442,5508 L1630,6803" stroke="blue" stroke-width="2" />
<path d="M3237,5455 L4475,2091" stroke="blue" stroke-width="2" />
<path d="M4840,328 L1290,6019" stroke="blue" stroke-width="2" />
<path d="M3091,3916 L6290,1285" stroke="blue" stroke-width="2" />
<path d="M4803,5415 L4451,6064" stroke="blue" stroke-width="2" />
<path d="M4047,682 L3934,3570" stroke="blue" stroke-width="2" />
<path d="M6238,2876 L5523,1752" stroke="blue" stroke-width="2" />
<path d="M382,847 L4824,4463" stroke="blue" stroke-width="2" />
<path d="M4627,1287 L135,3909" stroke="blue" stroke-width="2" />
<path d="M981,2079 L5325,1838" stroke="blue" stroke-width="2" />
<path d="M4160,5777 L1683,2293" stroke="blue" stroke-width="2" />
<path d="M4892,5444 L1872,1165" stroke="blue" stroke-width="2" />
<path d="M5690,6661 L1688,484" stroke="blue" stroke-width="2" />
<path d="M4493,2194 L2484,3952" stroke="blue" stroke-width="2" />
<path d="M554,6456 L1849,886" stroke="blue" stroke-width="2" />
<path d="M3173,1296 L2964,283" stroke="blue" stroke-width="2" />
<path d="M3225,948 L3091,646" stroke="blue" stroke-width="2" />
<path d="M4409,5305 L2953,3166" stroke="blue" stroke-width="2" />
<path d="M5666,5369 L5795,2792" stroke="blue" stroke-width="2" />
<path d="M235,6551 L5152,5434" stroke="blue" stroke-width="2" />
<path d="M4362,6005 L5452,1784" stroke="blue" stroke-width="2" />
<path d="M1604,6543 L4353,3657" stroke="blue" stroke-width="2" />
<path d="M2512,1939 L3404,7028" stroke="blue" stroke-width="2" />
<path d="M3427,434 L1969,5231" stroke="blue" stroke-width="2" />
<path d="M5367,7075 L2146,6008" stroke="blue" stroke-width="2" />
<path d="M3817,452 L3618,5981" stroke="blue" stroke-width="2" />
<path d="M2325,3869 L127,2847" stroke="blue" stroke-width="2" />
<path d="M3813,5226 L4984,5645" stroke="blue" stroke-width="2" />
<path d="M1905,2017 L2679,2919" stroke="blue" stroke-width="2" />
<path d="M4795,7298 L1160,7183" stroke="blue" stroke-width="2" />
<path d="M1919,1066 L2286,3105" stroke="blue" stroke-width="2" />
<path d="M5386,4121 L1042,5511" stroke="blue" stroke-width="2" />
<path d="M1258,2585 L5853,4295" stroke="blue" stroke-width="2" />
<path d="M6062,4701 L3330,5759" stroke="blue" stroke-width="2" />
<path d="M1032,4933 L4691,3869" stroke="blue" stroke-width="2" />
<path d="M2790,6435 L3495,3892" stroke="blue" stroke-width="2" />
<path d="M3677,119 L4805,1067" stroke="blue" stroke-width="2" />
<path d="M4339,1278 L5051,244" stroke="blue" stroke-width="2" />
<path d="M4377,2591 L1045,5073" stroke="blue" stroke-width="2" />
<path d="M3112,6489 L1266,3125" stroke="blue" stroke-width="2" />
<path d="M3303,4278 L4904,5446" stroke="blue" stroke-width="2" />
<path d="M6143,335 L4374,4723" stroke="blue" stroke-width="2" />
<path d="M229,1303 L1956,6715" stroke="blue" stroke-width="2" />
<path d="M4441,2549 L5619,5751" stroke="blue" stroke-width="2" />
<path d="M592,5977 L2684,887" stroke="blue" stroke-width="2" />
<path d="M3795,2524 L5825,3986" stroke="blue" stroke-width="2" />
<path d="M4477,5588 L5117,1179" stroke="blue" stroke-width="2" />
<path d="M1721,3623 L2567,4736" stroke="blue" stroke-width="2" />
<path d="M5596,781 L5153,4068" stroke="blue" stroke-width="2" />
<path d="M4590,2116 L5705,6518" stroke="blue" stroke-width="2" />
<path d="M6035,1211 L1661,72" stroke="blue" stroke-width="2" />
<path d="M3028,6192 L6193,2459" stroke="blue" stroke-width="2" />
<path d="M6279,3310 L4217,3662" stroke="blue" stroke-width="2" />
<path d="M900,7080 L4295,2293" stroke="blue" stroke-width="2" />
<path d="M1926,4222 L1606,2124" stroke="blue" stroke-width="2" />
<path d="M5420,542 L397,7051" stroke="blue" stroke-width="2" />
<path d="M576,7154 L5800,3054" stroke="blue" stroke-width="2" />
<path d="M4108,4815 L5105,1508" stroke="blue" stroke-width="2" />
<path d="M3627,3383 L1492,2277" stroke="blue" stroke-width="2" />
<path d="M877,4430 L2887,878" stroke="blue" stroke-width="2" />
<path d="M6232,1693 L6224,6893" stroke="blue" stroke-width="2" />
<path d="M1750,218 L606,2665" stroke="blue" stroke-width="2" />
<path d="M1302,4355 L5347,3696" stroke="blue" stroke-width="2" />
<path d="M2150,7071 L6104,3639" stroke="blue" stroke-width="2" />
<path d="M1242,37 L4835,1356" stroke="blue" stroke-width="2" />
<path d="M372,5686 L3923,3939" stroke="blue" stroke-width="2" />
<path d="M5636,2940 L2007,451" stroke="blue" stroke-width="2" />
<path d="M5491,3953 L3583,2288" stroke="blue" stroke-width="2" />
<path d="M4191,3283 L2117,2950" stroke="blue" stroke-width="2" />
<path d="M1597,4989 L2230,5117" stroke="blue" stroke-width="2" />
<path d="M5776,6779 L636,283" stroke="blue" stroke-width="2" />
<path d="M3526,4767 L512,2650" stroke="blue" stroke-width="2" />
<path d="M5757,6636 L3487,1004" stroke="blue" stroke-width="2" />
<path d="M2799,6248 L4149,978" stroke="blue" stroke-width="2" />
<path d="M1938,1113 L82,7216" stroke="blue" stroke-width="2" />
<path d="M3029,4591 L2414,5256" stroke="blue" stroke-width="2" />
<path d="M1652,6156 L6151,3514" stroke="blue" stroke-width="2" />
<path d="M4402,2641 L4270,6250" stroke="blue" stroke-width="2" />
<path d="M1608,1417 L6276,4209" stroke="blue" stroke-width="2" />
<path d="M3346,2354 L4631,559" stroke="blue" stroke-width="2" />
<path d="M2131,6386 L1450,4029" stroke="blue" stroke-width="2" />
<path d="M5762,392 L5593,815" stroke="blue" stroke-width="2" />
<path d="M5626,1266 L5139,5299" stroke="blue" stroke-width="2" />
<path d="M5984,2775 L257,4967" stroke="blue" stroke-width="2" />
<path d="M6324,6213 L1251,2421" stroke="blue" stroke-width="2" />
<path d="M2615,3425 L3783,6556" stroke="blue" stroke-width="2" />
<path d="M19,4858 L1345,2077" stroke="blue" stroke-width="2" />
<path d="M708,5892 L2758,1617" stroke="blue" stroke-width="2" />
<path d="M2239,6679 L3804,4662" stroke="blue" stroke-width="2" />
<path d="M1589,4666 L2515,2055" stroke="blue" stroke-width="2" />
<path d="M5311,6654 L996,6802" stroke="blue" stroke-width="2" />
<path d="M3596,2807 L3636,3898" stroke="blue" stroke-width="2" />
<path d="M5140,35 L3698,1162" stroke="blue" stroke-width="2" />
<path d="M5624,2055 L671,7128" stroke="blue" stroke-width="2" />
<path d="M6199,1884 L5149,6165" stroke="blue" stroke-width="2" />
<path d="M3336,2989 L4358,4106" stroke="blue" stroke-width="2" />
<path d="M3313,5623 L1498,3473" stroke="blue" stroke-width="2" />
<path d="M3444,1500 L5318,4603" stroke="blue" stroke-width="2" />
<path d="M1686,4092 L4493,6202" stroke="blue" stroke-width="2" />
<path d="M4733,3760 L3486,2373" stroke="blue" stroke-width="2" />
<path d="M3898,2889 L5336,143" stroke="blue" stroke-width="2" />
<path d="M184,4334 L1084,3750" stroke="blue" stroke-width="2" />
<path d="M5524,7070 L5639,2726" stroke="blue" stroke-width="2" />
<path d="M3545,3706 L2118,6467" stroke="blue" stroke-width="2" />
<path d="M4390,2808 L3991,6315" stroke="blue" stroke-width="2" />
<path d="M3241,606 L4136,2294" stroke="blue" stroke-width="2" />
<path d="M416,528 L4097,5831" stroke="blue" stroke-width="2" />
<path d="M1537,6995 L3003,5184" stroke="blue" stroke-width="2" />
<path d="M1637,2634 L3451,1293" stroke="blue" stroke-width="2" />
<path d="M1076,3143 L4627,4783" stroke="blue" stroke-width="2" />
<path d="M1910,4865 L2940,3541" stroke="blue" stroke-width="2" />
<path d="M2647,1750 L4449,1536" stroke="blue" stroke-width="2" />
<path d="M4241,1156 L4128,3365" stroke="blue" stroke-width="2" />
<path d="M256,5703 L5778,7207" stroke="blue" stroke-width="2" />
<path d="M2884,5387 L1750,3934" stroke="blue" stroke-width="2" />
<path d="M3733,7107 L5542,1819" stroke="blue" stroke-width="2" />
<path d="M5078,2257 L3727,7200" stroke="blue" stroke-width="2" />
<path d="M961,1969 L1406,2930" stroke="blue" stroke-width="2" />
<path d="M2688,6914 L5756,5335" stroke="blue" stroke-width="2" />
<path d="M3687,4688 L379,314" stroke="blue" stroke-width="2" />
<path d="M3845,7113 L4933,7249" stroke="blue" stroke-width="2" />
<path d="M4549,1541 L1293,3451" stroke="blue" stroke-width="2" />
<path d="M1552,6280 L3405,2132" stroke="blue" stroke-width="2" />
<path d="M4419,529 L3398,301" stroke="blue" stroke-width="2" />
<path d="M4576,6879 L316,4446" stroke="blue" stroke-width="2" />
<path d="M1029,5691 L4321,3777" stroke="blue" stroke-width="2" />
<path d="M24,7297 L3902,411" stroke="blue" stroke-width="2" />
<path d="M5778,6429 L5063,7184" stroke="blue" stroke-width="2" />
<path d="M1051,5738 L4405,122" stroke="blue" stroke-width="2" />
<path d="M5483,7180 L5784,731" stroke="blue" stroke-width="2" />
<path d="M325,2306 L1070,4419" stroke="blue" stroke-width="2" />
<path d="M5410,244 L2925,1092" stroke="blue" stroke-width="2" />
<path d="M73,423 L5789,5244" stroke="blue" stroke-width="2" />
<path d="M4035,1083 L2223,7258" stroke="blue" stroke-width="2" />
<path d="M652,5205 L4522,2048" stroke="blue" stroke-width="2" />
<path d="M3831,6776 L3750,659" stroke="blue" stroke-width="2" />
<path d="M2905,2191 L2371,1170" stroke="blue" stroke-width="2" />
<path d="M4127,5496 L2608,5920" stroke="blue" stroke-width="2" />
<path d="M1110,7031 L5839,641" stroke="blue" stroke-width="2" />
<path d="M2877,3765 L1510,6821" stroke="blue" stroke-width="2" />
<path d="M3426,4995 L3288,6859" stroke="blue" stroke-width="2" />
<path d="M3834,6069 L3445,2046" stroke="blue" stroke-width="2" />
<path d="M5310,2590 L4817,2707" stroke="blue" stroke-width="2" />
<path d="M4250,5933 L3891,3845" stroke="blue" stroke-width="2" />
<path d="M5690,6494 L3730,3792" stroke="blue" stroke-width="2" />
<path d="M908,3906 L490,179" stroke="blue" stroke-width="2" />
<path d="M3724,6988 L15,224" stroke="blue" stroke-width="2" />
<path d="M2018,3438 L1893,7113" stroke="blue" stroke-width="2" />
<path d="M904,2843 L6145,40" stroke="blue" stroke-width="2" />
<path d="M2735,4856 L4466,5253" stroke="blue" stroke-width="2" />
<path d="M1003,581 L5475,6849" stroke="blue" stroke-width="2" />
<path d="M2065,5162 L3793,6647" stroke="blue" stroke-width="2" />
<path d="M6343,113 L762,3999" stroke="blue" stroke-width="2" />
<path d="M5126,2943 L1531,3595" stroke="blue" stroke-width="2" />
<path d="M1252,5756 L1067,3904" stroke="blue" stroke-width="2" />
<path d="M807,3005 L870,5400" stroke="blue" stroke-width="2" />
<path d="M2945,1919 L5544,3530" stroke="blue" stroke-width="2" />
<path d="M1154,3793 L4099,1718" stroke="blue" stroke-width="2" />
<path d="M1199,5764 L6235,1953" stroke="blue" stroke-width="2" />
<path d="M3443,5511 L1858,2249" stroke="blue" stroke-width="2" />
<path d="M5558,1198 L788,3310" stroke="blue" stroke-width="2" />
<path d="M5356,6886 L5836,1826" stroke="blue" stroke-width="2" />
<path d="M6356,4584 L1550,2235" stroke="blue" stroke-width="2" />
<path d="M4010,692 L1085,1486" stroke="blue" stroke-width="2" />
<path d="M4227,2255 L2460,3698" stroke="blue" stroke-width="2" />
<path d="M77,1238 L3863,2660" stroke="blue" stroke-width="2" />
<path d="M3401,3407 L3950,1896" stroke="blue" stroke-width="2" />
<path d="M1777,2193 L919,5691" stroke="blue" stroke-width="2" />
<path d="M3001,3208 L5974,6728" stroke="blue" stroke-width="2" />
<path d="M5437,1529 L1783,345" stroke="blue" stroke-width="2" />
<path d="M910,5925 L2828,3928" stroke="blue" stroke-width="2" />
<path d="M1005,2561 L4076,3010" stroke="blue" stroke-width="2" />
<path d="M5906,1142 L6336,4162" stroke="blue" stroke-width="2" />
<path d="M4185,188 L783,3826" stroke="blue" stroke-width="2" />
<path d="M5522,1850 L2070,5984" stroke="blue" stroke-width="2" />
<path d="M345,2808 L740,5981" stroke="blue" stroke-width="2" />
<path d="M1223,6065 L4147,4168" stroke="blue" stroke-width="2" />
<path d="M6151,7275 L6053,6853" stroke="blue" stroke-width="2" />
<path d="M3279,119 L3928,3986" stroke="blue" stroke-width="2" />
<path d="M4060,1427 L5639,1279" stroke="blue" stroke-width="2" />
<path d="M3901,7009 L4419,1532" stroke="blue" stroke-width="2" />
<path d="M6228,1190 L3588,4351" stroke="blue" stroke-width="2" />
<path d="M6232,35 L3913,7106" stroke="blue" stroke-width="2" />
<path d="M3731,1526 L3468,4807" stroke="blue" stroke-width="2" />
<path d="M4949,6632 L99,623" stroke="blue" stroke-width="2" />
<path d="M1742,5828 L1347,6447" stroke="blue" stroke-width="2" />
<path d="M5667,5123 L5182,5534" stroke="blue" stroke-width="2" />
<path d="M5946,6671 L1592,7127" stroke="blue" stroke-width="2" />
<path d="M180,3963 L811,2433" stroke="blue" stroke-width="2" />
<path d="M963,1271 L3126,7009" stroke="blue" stroke-width="2" />
<path d="M4667,7339 L2047,1348" stroke="blue" stroke-width="2" />
<path d="M1138,232 L2547,6642" stroke="blue" stroke-width="2" />
<path d="M531,458 L718,3157" stroke="blue" stroke-width="2" />
<path d="M1305,4310 L1918,7145" stroke="blue" stroke-width="2" />
<path d="M1452,843 L3161,5216" stroke="blue" stroke-width="2" />
<path d="M5620,5812 L5976,967" stroke="blue" stroke-width="2" />
<path d="M4214,1346 L5955,1454" stroke="blue" stroke-width="2" />
<path d="M889,5856 L3160,2792" stroke="blue" stroke-width="2" />
<path d="M2179,915 L1180,6905" stroke="blue" stroke-width="2" />
<path d="M232,1834 L331,1651" stroke="blue" stroke-width="2" />
<path d="M1326,5469 L4369,5982" stroke="blue" stroke-width="2" />
<path d="M1666,2932 L5336,2945" stroke="blue" stroke-width="2" />
<path d="M4183,5247 L4790,1393" stroke="blue" stroke-width="2" />
<path d="M4498,595 L57,2622" stroke="blue" stroke-width="2" />
<path d="M366,220 L5436,3636" stroke="blue" stroke-width="2" />
<path d="M1895,339 L5026,7197" stroke="blue" stroke-width="2" />
<path d="M3130,5840 L3286,4834" stroke="blue" stroke-width="2" />
<path d="M3185,3772 L1827,6603" stroke="blue" stroke-width="2" />
<path d="M5395,3201 L5500,5148" stroke="blue" stroke-width="2" />
<path d="M5002,6750 L3081,2289" stroke="blue" stroke-width="2" />
<path d="M3533,652 L6196,3065" stroke="blue" stroke-width="2" />
<path d="M4450,3805 L2845,1813" stroke="blue" stroke-width="2" />
<path d="M1641,6437 L2364,560" stroke="blue" stroke-width="2" />
<path d="M5443,4717 L1236,1348" stroke="blue" stroke-width="2" />
<path d="M4762,4333 L4109,6601" stroke="blue" stroke-width="2" />
<path d="M134,4759 L2368,3216" stroke="blue" stroke-width="2" />
<path d="M241,6088 L1058,995" stroke="blue" stroke-width="2" />
<path d="M2173,6667 L4362,6107" stroke="blue" stroke-width="2" />
<path d="M436,6238 L3949,2000" stroke="blue" stroke-width="2" />
<path d="M4463,3007 L2122,2700" stroke="blue" stroke-width="2" />
<path d="M297,3524 L5357,2610" stroke="blue" stroke-width="2" />
<path d="M3694,2487 L3296,5812" stroke="blue" stroke-width="2" />
<path d="M1801,1792 L4618,4234" stroke="blue" stroke-width="2" />
<path d="M3875,824 L6353,5650" stroke="blue" stroke-width="2" />
<path d="M5525,1697 L6170,4660" stroke="blue" stroke-width="2" />
<path d="M515,6320 L3535,2004" stroke="blue" stroke-width="2" />
<path d="M2817,4291 L1842,868" stroke="blue" stroke-width="2" />
<path d="M236,4166 L2759,5421" stroke="blue" stroke-width="2" />
<path d="M284,647 L4217,2748" stroke="blue" stroke-width="2" />
<path d="M5199,3415 L673,6735" stroke="blue" stroke-width="2" />
<path d="M2842,2740 L4191,3500" stroke="blue" stroke-width="2" />
<path d="M4665,6335 L2021,4763" stroke="blue" stroke-width="2" />
<path d="M3522,6330 L4438,3884" stroke="blue" stroke-width="2" />
<path d="M4878,4920 L2170,1328" stroke="blue" stroke-width="2" />
<path d="M5227,5150 L2420,3473" stroke="blue" stroke-width="2" />
<path d="M1395,3819 L4877,6686" stroke="blue" stroke-width="2" />
<path d="M4275,7147 L3983,3080" stroke="blue" stroke-width="2" />
<path d="M6321,5464 L975,1473" stroke="blue" stroke-width="2" />
<path d="M1781,5588 L2033,5095" stroke="blue" stroke-width="2" />
<path d="M2287,3749 L3835,2439" stroke="blue" stroke-width="2" />
<path d="M1943,2395 L2769,4756" stroke="blue" stroke-width="2" />
<path d="M4539,1175 L5838,4215" stroke="blue" stroke-width="2" />
<path d="M3718,2986 L3851,5" stroke="blue" stroke-width="2" />
<path d="M399,1934 L573,6367" stroke="blue" stroke-width="2" />
<path d="M4242,5299 L3967,4488" stroke="blue" stroke-width="2" />
<path d="M5520,5881 L4887,3416" stroke="blue" stroke-width="2" />
<path d="M5123,2626 L3103,986" stroke="blue" stroke-width="2" />
<path d="M1921,6271 L1040,5325" stroke="blue" stroke-width="2" />
<path d="M3369,174 L2562,5545" stroke="blue" stroke-width="2" />
<path d="M1049,6204 L3420,3114" stroke="blue" stroke-width="2" />
<path d="M4969,1508 L1078,496" stroke="blue" stroke-width="2" />
<path d="M65,882 L5329,1551" stroke="blue" stroke-width="2" />
<path d="M3767,4994 L1101,5848" stroke="blue" stroke-width="2" />
<path d="M4841,6898 L5789,1328" stroke="blue" stroke-width="2" />
<path d="M6238,1035 L5108,1973" stroke="blue" stroke-width="2" />
<path d="M1304,6357 L2188,1473" stroke="blue" stroke-width="2" />
<path d="M4056,5026 L748,3526" stroke="blue" stroke-width="2" />
<path d="M2273,3377 L869,3616" stroke="blue" stroke-width="2" />
<path d="M4865,455 L5148,1389" stroke="blue" stroke-width="2" />
<path d="M6242,4646 L5106,4311" stroke="blue" stroke-width="2" />
<path d="M1260,4153 L2010,7241" stroke="blue" stroke-width="2" />
<path d="M5264,1423 L5995,1775" stroke="blue" stroke-width="2" />
<path d="M3745,4988 L5871,1937" stroke="blue" stroke-width="2" />
<path d="M4003,2174 L2375,2874" stroke="blue" stroke-width="2" />
<path d="M6183,4925 L1558,356" stroke="blue" stroke-width="2" />
<path d="M5033,6490 L5501,2250" stroke="blue" stroke-width="2" />
<path d="M1418,6317 L2231,567" stroke="blue" stroke-width="2" />
<path d="M1129,218 L1407,1350" stroke="blue" stroke-width="2" />
<path d="M6184,2619 L1996,4667" stroke="blue" stroke-width="2" />
<path d="M2052,2229 L3778,4745" stroke="blue" stroke-width="2" />
<path d="M346,6323 L5433,2001" stroke="blue" stroke-width="2" />
<path d="M4225,5309 L4495,367" stroke="blue" stroke-width="2" />
<path d="M61,5358 L2152,7175" stroke="blue" stroke-width="2" />
<path d="M2629,5569 L4667,3678" stroke="blue" stroke-width="2" />
<path d="M594,4133 L1200,889" stroke="blue" stroke-width="2" />
<path d="M2775,873 L163,2106" stroke="blue" stroke-width="2" />
<path d="M1701,1781 L5083,6204" stroke="blue" stroke-width="2" />
<path d="M5012,3902 L1678,126" stroke="blue" stroke-width="2" />
<path d="M879,4454 L4773,2945" stroke="blue" stroke-width="2" />
<path d="M6055,2755 L195,6767" stroke="blue" stroke-width="2" />
<path d="M5347,4466 L1853,7027" stroke="blue" stroke-width="2" />
<path d="M422,973 L5168,4543" stroke="blue" stroke-width="2" />
<path d="M3051,5507 L1884,4142" stroke="blue" stroke-width="2" />
<path d="M1958,1229 L2175,1415" stroke="blue" stroke-width="2" />
<path d="M4765,6517 L2611,216" stroke="blue" stroke-width="2" />
<path d="M4269,4602 L2740,1136" stroke="blue" stroke-width="2" />
<path d="M985,4403 L4779,2604" stroke="blue" stroke-width="2" />
<path d="M5702,6553 L4636,3969" stroke="blue" stroke-width="2" />
<path d="M5422,2154 L2074,2881" stroke="blue" stroke-width="2" />
<path d="M1713,1419 L3470,6287" stroke="blue" stroke-width="2" />
<path d="M4441,4495 L250,3628" stroke="blue" stroke-width="2" />
<path d="M3091,455 L3961,4074" stroke="blue" stroke-width="2" />
<path d="M135,5885 L3634,4738" stroke="blue" stroke-width="2" />
<path d="M5274,1049 L3151,255" stroke="blue" stroke-width="2" />
<path d="M506,5064 L2832,5662" stroke="blue" stroke-width="2" />
<path d="M2995,701 L2768,497" stroke="blue" stroke-width="2" />
<path d="M4097,1427 L4045,5210" stroke="blue" stroke-width="2" />
<path d="M1703,6427 L5953,3863" stroke="blue" stroke-width="2" />
<path d="M600,4267 L1074,2854" stroke="blue" stroke-width="2" />
<path d="M134,6706 L495,2988" stroke="blue" stroke-width="2" />
<path d="M2984,2215 L2630,2411" stroke="blue" stroke-width="2" />
<path d="M5933,5626 L683,598" stroke="blue" stroke-width="2" />
<path d="M5490,5414 L5663,2063" stroke="blue" stroke-width="2" />
<path d="M4419,5274 L266,2603" stroke="blue" stroke-width="2" />
<path d="M32,3780 L1469,8" stroke="blue" stroke-width="2" />
<path d="M1251,7261 L1316,5562" stroke="blue" stroke-width="2" />
<path d="M3435,3782 L2890,475" stroke="blue" stroke-width="2" />
<path d="M3142,2422 L3426,3738" stroke="blue" stroke-width="2" />
<path d="M5412,7158 L1671,1549" stroke="blue" stroke-width="2" />
<path d="M1145,2528 L6334,1925" stroke="blue" stroke-width="2" />
<path d="M3589,3065 L4141,4153" stroke="blue" stroke-width="2" />
<path d="M2874,3131 L6055,5198" stroke="blue" stroke-width="2" />
<path d="M5827,1808 L955,6270" stroke="blue" stroke-width="2" />
<path d="M4514,2288 L6110,7223" stroke="blue" stroke-width="2" />
<path d="M1211,2734 L1810,30" stroke="blue" stroke-width="2" />
<path d="M2328,4155 L2487,3592" stroke="blue" stroke-width="2" />
<path d="M2932,2221 L2590,673" stroke="blue" stroke-width="2" />
<path d="M1961,7281 L2660,5859" stroke="blue" stroke-width="2" />
<path d="M4065,6611 L4531,4966" stroke="blue" stroke-width="2" />
<path d="M1264,5652 L150,1334" stroke="blue" stroke-width="2" />
<path d="M466,1169 L4187,6438" stroke="blue" stroke-width="2" />
<path d="M4047,3656 L1934,6369" stroke="blue" stroke-width="2" />
<path d="M2492,3813 L4241,902" stroke="blue" stroke-width="2" />
<path d="M799,6179 L1848,5803" stroke="blue" stroke-width="2" />
<path d="M5864,6386 L309,5576" stroke="blue" stroke-width="2" />
<path d="M3117,4132 L6046,4342" stroke="blue" stroke-width="2" />
<path d="M4940,6357 L4909,6131" stroke="blue" stroke-width="2" />
<path d="M4872,6597 L3500,5551" stroke="blue" stroke-width="2" />
<path d="M2144,11 L5432,5755" stroke="blue" stroke-width="2" />
<path d="M1313,4640 L2705,2987" stroke="blue" stroke-width="2" />
<path d="M6062,5103 L2993,4579" stroke="blue" stroke-width="2" />
<path d="M4510,5533 L1757,1142" stroke="blue" stroke-width="2" />
<path d="M2199,1524 L5470,3851" stroke="blue" stroke-width="2" />
<path d="M4804,5221 L1220,753" stroke="blue" stroke-width="2" />
<path d="M6150,5145 L290,7058" stroke="blue" stroke-width="2" />
<path d="M5689,3736 L795,6520" stroke="blue" stroke-width="2" />
<path d="M4733,7150 L3085,494" stroke="blue" stroke-width="2" />
<path d="M1967,2447 L3240,175" stroke="blue" stroke-width="2" />
<path d="M3851,3397 L3689,2176" stroke="blue" stroke-width="2" />
<path d="M4872,4717 L2775,4438" stroke="blue" stroke-width="2" />
<path d="M3806,2559 L1376,2874" stroke="blue" stroke-width="2" />
<path d="M163,863 L1526,2403" stroke="blue" stroke-width="2" />
<path d="M4046,1904 L1061,2949" stroke="blue" stroke-width="2" />
<path d="M934,4457 L293,1612" stroke="blue" stroke-width="2" />
<path d="M5738,1682 L5411,6127" stroke="blue" stroke-width="2" />
<path d="M5804,3898 L1244,4582" stroke="blue" stroke-width="2" />
<path d="M2059,7330 L3792,4202" stroke="blue" stroke-width="2" />
<path d="M4014,5234 L5492,6308" stroke="blue" stroke-width="2" />
<path d="M5378,4831 L5688,7074" stroke="blue" stroke-width="2" />
<path d="M6251,4892 L1178,3026" stroke="blue" stroke-width="2" />
<path d="M6334,6760 L2479,5233" stroke="blue" stroke-width="2" />
<path d="M5093,3415 L2441,2475" stroke="blue" stroke-width="2" />
<path d="M202,4012 L1074,4993" stroke="blue" stroke-width="2" />
<path d="M1506,392 L387,2873" stroke="blue" stroke-width="2" />
<path d="M412,726 L4901,3561" stroke="blue" stroke-width="2" />
<path d="M2651,408 L2517,725" stroke="blue" stroke-width="2" />
<path d="M2075,4574 L6033,743" stroke="blue" stroke-width="2" />
<path d="M1328,2701 L4712,3147" stroke="blue" stroke-width="2" />
<path d="M3693,3655 L4013,5331" stroke="blue" stroke-width="2" />
<path d="M5561,78 L2269,5800" stroke="blue" stroke-width="2" />
<path d="M3009,649 L1759,506" stroke="blue" stroke-width="2" />
<path d="M4607,2520 L3270,1795" stroke="blue" stroke-width="2" />
<path d="M2724,3954 L4761,6596" stroke="blue" stroke-width="2" />
<path d="M4200,2991 L6100,4318" stroke="blue" stroke-width="2" />
<path d="M2831,3433 L3570,1758" stroke="blue" stroke-width="2" />
<path d="M1314,6945 L4350,5587" stroke="blue" stroke-width="2" />
<path d="M3019,2108 L975,2143" stroke="blue" stroke-width="2" />
<path d="M877,3532 L3069,3125" stroke="blue" stroke-width="2" />
<path d="M2505,5673 L6321,6116" stroke="blue" stroke-width="2" />
<path d="M5655,6577 L76,3206" stroke="blue" stroke-width="2" />
<path d="M2024,4795 L2463,6288" stroke="blue" stroke-width="2" />
<path d="M4668,2474 L4714,2763" stroke="blue" stroke-width="2" />
<path d="M4364,3553 L3836,7259" stroke="blue" stroke-width="2" />
<path d="M5053,1593 L5063,3835" stroke="blue" stroke-width="2" />
<path d="M2635,5865 L2722,1984" stroke="blue" stroke-width="2" />
<path d="M3407,5567 L5593,6392" stroke="blue" stroke-width="2" />
<path d="M1844,5890 L3149,6295" stroke="blue" stroke-width="2" />
<path d="M4300,3924 L1693,2112" stroke="blue" stroke-width="2" />
<path d="M3094,6065 L3752,4037" stroke="blue" stroke-width="2" />
<path d="M5970,1752 L6005,2628" stroke="blue" stroke-width="2" />
<path d="M590,776 L982,1190" stroke="blue" stroke-width="2" />
<path d="M4454,3113 L3217,4130" stroke="blue" stroke-width="2" />
<path d="M4234,182 L4870,3604" stroke="blue" stroke-width="2" />
<path d="M5249,3679 L4319,7130" stroke="blue" stroke-width="2" />
<path d="M1194,5979 L200,5837" stroke="blue" stroke-width="2" />
<path d="M1703,1854 L3851,884" stroke="blue" stroke-width="2" />
<path d="M1285,3348 L5890,6442" stroke="blue" stroke-width="2" />
<path d="M649,1226 L6297,1421" stroke="blue" stroke-width="2" />
<path d="M2763,5401 L1483,4731" stroke="blue" stroke-width="2" />
<path d="M5479,5593 L2810,4670" stroke="blue" stroke-width="2" />
<path d="M111,2140 L1030,864" stroke="blue" stroke-width="2" />
<path d="M3939,5252 L5926,5596" stroke="blue" stroke-width="2" />
<path d="M1903,6825 L4717,5240" stroke="blue" stroke-width="2" />
<path d="M402,1763 L132,5680" stroke="blue" stroke-width="2" />
<path d="M5234,4491 L1498,1159" stroke="blue" stroke-width="2" />
<path d="M2014,681 L4333,6480" stroke="blue" stroke-width="2" />
<path d="M5517,2919 L1218,1234" stroke="blue" stroke-width="2" />
<path d="M4628,3356 L5083,7012" stroke="blue" stroke-width="2" />
<path d="M1782,320 L5490,251" stroke="blue" stroke-width="2" />
<path d="M399,6287 L4272,2671" stroke="blue" stroke-width="2" />
<path d="M2209,4225 L165,5944" stroke="blue" stroke-width="2" />
<path d="M2934,5189 L1852,6184" stroke="blue" stroke-width="2" />
<path d="M3192,3959 L3873,6778" stroke="blue" stroke-width="2" />
<path d="M3333,244 L281,1141" stroke="blue" stroke-width="2" />
<path d="M5684,1986 L2151,3233" stroke="blue" stroke-width="2" />
<path d="M3346,4797 L1424,5873" stroke="blue" stroke-width="2" />
<path d="M5085,3717 L5283,6164" stroke="blue" stroke-width="2" />
<path d="M3771,728 L1060,6061" stroke="blue" stroke-width="2" />
<path d="M1286,6901 L4487,3525" stroke="blue" stroke-width="2" />
<path d="M2983,2728 L4953,7182" stroke="blue" stroke-width="2" />
<path d="M4946,6510 L3621,1111" stroke="blue" stroke-width="2" />
<path d="M4032,2751 L2775,5022" stroke="blue" stroke-width="2" />
<path d="M970,5439 L91,107" stroke="blue" stroke-width="2" />
<path d="M1153,6007 L1065,861" stroke="blue" stroke-width="2" />
<path d="M3747,1155 L1856,4436" stroke="blue" stroke-width="2" />
<path d="M1859,6579 L727,1544" stroke="blue" stroke-width="2" />
<path d="M1759,6703 L1185,495" stroke="blue" stroke-width="2" />
<path d="M6087,1488 L4683,327" stroke="blue" stroke-width="2" />
<path d="M576,6160 L5274,6038" stroke="blue" stroke-width="2" />
<path d="M4043,679 L5293,6133" stroke="blue" stroke-width="2" />
<path d="M1314,1722 L1653,1913" stroke="blue" stroke-width="2" />
<path d="M2264,5270 L564,3137" stroke="blue" stroke-width="2" />
<path d="M844,5632 L2117,2806" stroke="blue" stroke-width="2" />
<path d="M2506,494 L405,6748" stroke="blue" stroke-width="2" />
<path d="M2407,5981 L758,115" stroke="blue" stroke-width="2" />
<path d="M3431,274 L6052,5345" stroke="blue" stroke-width="2" />
<path d="M3835,1679 L1928,270" stroke="blue" stroke-width="2" />
<path d="M3918,2406 L2828,3202" stroke="blue" stroke-width="2" />
<path d="M5221,271 L6102,5509" stroke="blue" stroke-width="2" />
<path d="M193,1260 L1446,186" stroke="blue" stroke-width="2" />
<path d="M346,1625 L4476,291" stroke="blue" stroke-width="2" />
<path d="M3855,2537 L2936,1473" stroke="blue" stroke-width="2" />
<path d="M3562,1543 L737,4817" stroke="blue" stroke-width="2" />
<path d="M1197,2594 L5801,5538" stroke="blue" stroke-width="2" />
<path d="M3708,3422 L5593,558" stroke="blue" stroke-width="2" />
<path d="M3312,5913 L661,1099" stroke="blue" stroke-width="2" />
<path d="M5397,5499 L4096,5695" stroke="blue" stroke-width="2" />
<path d="M6340,4078 L3979,2379" stroke="blue" stroke-width="2" />
<path d="M3585,6453 L4773,4433" stroke="blue" stroke-width="2" />
<path d="M3663,1647 L5966,6915" stroke="blue" stroke-width="2" />
<path d="M2863,4986 L3336,3348" stroke="blue" stroke-width="2" />
<path d="M4864,2590 L4357,3770" stroke="blue" stroke-width="2" />
<path d="M2148,6043 L369,4286" stroke="blue" stroke-width="2" />
<path d="M1896,5762 L1797,1785" stroke="blue" stroke-width="2" />
<path d="M908,678 L2568,2144" stroke="blue" stroke-width="2" />
<path d="M6079,6702 L4998,3728" stroke="blue" stroke-width="2" />
<path d="M4873,2162 L2921,2143" stroke="blue" stroke-width="2" />
<path d="M2472,7265 L4450,5791" stroke="blue" stroke-width="2" />
<path d="M1587,4945 L5915,3389" stroke="blue" stroke-width="2" />
<path d="M3727,6824 L1157,3087" stroke="blue" stroke-width="2" />
<path d="M5799,7164 L4597,5855" stroke="blue" stroke-width="2" />
<path d="M2599,102 L5783,5123" stroke="blue" stroke-width="2" />
<path d="M4248,3512 L2575,2164" stroke="blue" stroke-width="2" />
<path d="M2066,6542 L451,163" stroke="blue" stroke-width="2" />
<path d="M3149,4907 L2806,2706" stroke="blue" stroke-width="2" />
<path d="M4470,571 L2270,7223" stroke="blue" stroke-width="2" />
<path d="M4587,2066 L3761,6826" stroke="blue" stroke-width="2" />
<path d="M902,3284 L5588,2333" stroke="blue" stroke-width="2" />
<path d="M5936,5776 L235,3422" stroke="blue" stroke-width="2" />
<path d="M3523,5453 L6297,83" stroke="blue" stroke-width="2" />
<path d="M4796,3024 L5354,6532" stroke="blue" stroke-width="2" />
<path d="M5625,4147 L1970,3248" stroke="blue" stroke-width="2" />
<path d="M2909,7047 L508,4036" stroke="blue" stroke-width="2" />
<path d="M3447,6417 L3240,3948" stroke="blue" stroke-width="2" />
<path d="M5189,3303 L4450,2483" stroke="blue" stroke-width="2" />
<path d="M4619,223 L3589,1200" stroke="blue" stroke-width="2" />
<path d="M1194,1135 L3259,2961" stroke="blue" stroke-width="2" />
<path d="M5888,7155 L1563,4525" stroke="blue" stroke-width="2" />
<path d="M6110,5317 L1195,2957" stroke="blue" stroke-width="2" />
<path d="M3830,5164 L1016,6936" stroke="blue" stroke-width="2" />
<path d="M2940,6954 L3376,7185" stroke="blue" stroke-width="2" />
<path d="M4674,82 L17,6118" stroke="blue" stroke-width="2" />
<path d="M128,5270 L348,3591" stroke="blue" stroke-width="2" />
<path d="M3047,4522 L172,6988" stroke="blue" stroke-width="2" />
<path d="M5673,1247 L5504,829" stroke="blue" stroke-width="2" />
<path d="M865,803 L43,1079" stroke="blue" stroke-width="2" />
<path d="M688,2156 L1657,5951" stroke="blue" stroke-width="2" />
<path d="M5187,2073 L4983,3828" stroke="blue" stroke-width="2" />
<path d="M531,6378 L4622,1544" stroke="blue" stroke-width="2" />
<path d="M2880,3301 L4171,7001" stroke="blue" stroke-width="2" />
<path d="M3114,5638 L6041,2089" stroke="blue" stroke-width="2" />
<path d="M4021,398 L850,5102" stroke="blue" stroke-width="2" />
<path d="M4088,4364 L6324,7083" stroke="blue" stroke-width="2" />
<path d="M3977,5686 L4926,2730" stroke="blue" stroke-width="2" />
<path d="M2701,2525 L3513,1391" stroke="blue" stroke-width="2" />
<path d="M4464,2277 L1460,6420" stroke="blue" stroke-width="2" />
<path d="M4453,4428 L422,5439" stroke="blue" stroke-width="2" />
<path d="M1564,2052 L5144,7196" stroke="blue" stroke-width="2" />
<path d="M2328,4123 L4154,1742" stroke="blue" stroke-width="2" />
<path d="M5276,6446 L3601,2003" stroke="blue" stroke-width="2" />
<path d="M1391,1024 L1046,3013" stroke="blue" stroke-width="2" />
<path d="M5295,1815 L5093,120" stroke="blue" stroke-width="2" />
<path d="M3648,6838 L3818,4609" stroke="blue" stroke-width="2" />
<path d="M4994,4694 L2707,5098" stroke="blue" stroke-width="2" />
<path d="M296,2023 L2763,2374" stroke="blue" stroke-width="2" />
<path d="M2896,1676 L3916,2428" stroke="blue" stroke-width="2" />
<path d="M2736,1480 L3922,4323" stroke="blue" stroke-width="2" />
<path d="M3385,5937 L4551,4274" stroke="blue" stroke-width="2" />
<path d="M2973,5177 L4500,6657" stroke="blue" stroke-width="2" />
<path d="M4188,2645 L3289,2035" stroke="blue" stroke-width="2" />
<path d="M2153,1038 L2820,129" stroke="blue" stroke-width="2" />
<path d="M3854,4254 L4299,3928" stroke="blue" stroke-width="2" />
<path d="M1347,3562 L4171,1312" stroke="blue" stroke-width="2" />
<path d="M2692,392 L2402,6076" stroke="blue" stroke-width="2" />
<path d="M2019,1119 L663,4851" stroke="blue" stroke-width="2" />
<path d="M2779,1410 L2954,3001" stroke="blue" stroke-width="2" />
<path d="M2688,5260 L4617,7006" stroke="blue" stroke-width="2" />
<path d="M6001,3601 L697,3848" stroke="blue" stroke-width="2" />
<path d="M4353,3811 L769,991" stroke="blue" stroke-width="2" />
<path d="M4998,7318 L1065,6308" stroke="blue" stroke-width="2" />
<path d="M416,632 L3278,3955" stroke="blue" stroke-width="2" />
<path d="M5053,962 L5066,428" stroke="blue" stroke-width="2" />
<path d="M1884,415 L4707,4811" stroke="blue" stroke-width="2" />
<path d="M6351,459 L810,6795" stroke="blue" stroke-width="2" />
<path d="M2546,4892 L5163,2680" stroke="blue" stroke-width="2" />
<path d="M4398,6481 L1822,5070" stroke="blue" stroke-width="2" />
<path d="M4832,2314 L4067,5818" stroke="blue" stroke-width="2" />
<path d="M3392,2742 L2951,5964" stroke="blue" stroke-width="2" />
<path d="M446,6112 L2078,5946" stroke="blue" stroke-width="2" />
<path d="M1308,35 L2655,553" stroke="blue" stroke-width="2" />
<path d="M1747,7312 L5195,4561" stroke="blue" stroke-width="2" />
<path d="M5339,3401 L1735,2305" stroke="blue" stroke-width="2" />
<path d="M6014,1076 L4564,5983" stroke="blue" stroke-width="2" />
<path d="M1208,855 L5564,7163" stroke="blue" stroke-width="2" />
<path d="M790,4157 L3127,1357" stroke="blue" stroke-width="2" />
<path d="M2305,6809 L1826,7085" stroke="blue" stroke-width="2" />
<path d="M6224,5361 L5588,6602" stroke="blue" stroke-width="2" />
<path d="M3647,2862 L26,2835" stroke="blue" stroke-width="2" />
<path d="M1199,3924 L1167,2566" stroke="blue" stroke-width="2" />
<path d="M3814,5076 L1898,4175" stroke="blue" stroke-width="2" />
<path d="M4413,3072 L4554,4961" stroke="blue" stroke-width="2" />
<path d="M6267,781 L3096,1222" stroke="blue" stroke-width="2" />
<path d="M4794,3507 L686,3219" stroke="blue" stroke-width="2" />
<path d="M4600,3876 L3289,2782" stroke="blue" stroke-width="2" />
<path d="M405,2575 L4394,918" stroke="blue" stroke-width="2" />
<path d="M1176,6266 L4576,735" stroke="blue" stroke-width="2" />
<path d="M1029,4128 L5382,6568" stroke="blue" stroke-width="2" />
<path d="M6217,4594 L4562,4560" stroke="blue" stroke-width="2" />
<path d="M6262,4029 L5696,2184" stroke="blue" stroke-width="2" />
<path d="M2465,1736 L3850,2617" stroke="blue" stroke-width="2" />
<path d="M1455,1070 L3818,6059" stroke="blue" stroke-width="2" />
<path d="M644,3152 L4389,807" stroke="blue" stroke-width="2" />
<path d="M4141,1710 L1522,277" stroke="blue" stroke-width="2" />
<path d="M1586,2928 L2553,7220" stroke="blue" stroke-width="2" />
<path d="M1299,4511 L671,6857" stroke="blue" stroke-width="2" />
<path d="M822,2834 L5747,5307" stroke="blue" stroke-width="2" />
<path d="M4892,4521 L4867,5466" stroke="blue" stroke-width="2" />
<path d="M5817,6917 L3545,1815" stroke="blue" stroke-width="2" />
<path d="M4262,391 L1983,1404" stroke="blue" stroke-width="2" />
<path d="M1219,3467 L736,6341" stroke="blue" stroke-width="2" />
<path d="M5970,5858 L856,580" stroke="blue" stroke-width="2" />
<path d="M507,794 L5432,6033" stroke="blue" stroke-width="2" />
<path d="M1275,2669 L2798,2150" stroke="blue" stroke-width="2" />
<path d="M2230,6578 L3444,5618" stroke="blue" stroke-width="2" />
<path d="M1446,2396 L5175,2622" stroke="blue" stroke-width="2" />
<path d="M71,5891 L2028,3564" stroke="blue" stroke-width="2" />
<path d="M5522,4623 L2292,1491" stroke="blue" stroke-width="2" />
<path d="M4981,1350 L5504,4068" stroke="blue" stroke-width="2" />
<path d="M3935,3565 L3833,3104" stroke="blue" stroke-width="2" />
<path d="M1486,2138 L818,1669" stroke="blue" stroke-width="2" />
<path d="M956,4741 L2260,6549" stroke="blue" stroke-width="2" />
<path d="M5432,6734 L4052,495" stroke="blue" stroke-width="2" />
<path d="M6048,2054 L4524,5102" stroke="blue" stroke-width="2" />
<path d="M4485,7104 L4,6536" stroke="blue" stroke-width="2" />
<path d="M642,1671 L5841,3840" stroke="blue" stroke-width="2" />
<path d="M5990,1607 L663,376" stroke="blue" stroke-width="2" />
<path d="M1455,5976 L1409,710" stroke="blue" stroke-width="2" />
<path d="M5613,3100 L3943,7218" stroke="blue" stroke-width="2" />
<path d="M2455,2541 L1498,4593" stroke="blue" stroke-width="2" />
<path d="M3232,5461 L3187,5211" stroke="blue" stroke-width="2" />
<path d="M3382,3336 L4272,5988" stroke="blue" stroke-width="2" />
<path d="M5443,5399 L2484,5903" stroke="blue" stroke-width="2" />
<path d="M2894,584 L4917,4464" stroke="blue" stroke-width="2" />
<path d="M3002,3038 L3942,881" stroke="blue" stroke-width="2" />
<path d="M917,6821 L5172,2917" stroke="blue" stroke-width="2" />
<path d="M2453,363 L4654,2506" stroke="blue" stroke-width="2" />
<path d="M2583,3421 L5872,5425" stroke="blue" stroke-width="2" />
<path d="M1337,2603 L2118,1982" stroke="blue" stroke-width="2" />
<path d="M3171,1672 L5699,3473" stroke="blue" stroke-width="2" />
<path d="M619,3728 L4278,2649" stroke="blue" stroke-width="2" />
<path d="M3999,2411 L3488,2181" stroke="blue" stroke-width="2" />
<path d="M3396,4511 L5725,2689" stroke="blue" stroke-width="2" />
<path d="M4235,7251 L2329,4018" stroke="blue" stroke-width="2" />
<path d="M299,6379 L5651,5200" stroke="blue" stroke-width="2" />
<path d="M109,3467 L143,60" stroke="blue" stroke-width="2" />
<path d="M4546,250 L3883,1391" stroke="blue" stroke-width="2" />
<path d="M3475,6787 L409,4977" stroke="blue" stroke-width="2" />
<path d="M2384,4413 L3536,5447" stroke="blue" stroke-width="2" />
<path d="M4819,7308 L6349,6038" stroke="blue" stroke-width="2" />
<path d="M4365,1882 L3135,2882" stroke="blue" stroke-width="2" />
<path d="M2076,1984 L1394,5627" stroke="blue" stroke-width="2" />
<path d="M6298,2922 L2237,2200" stroke="blue" stroke-width="2" />
<path d="M31,3096 L1250,4544" stroke="blue" stroke-width="2" />
<path d="M5620,2682 L2806,5927" stroke="blue" stroke-width="2" />
<path d="M5746,1455 L1656,2355" stroke="blue" stroke-width="2" />
<path d="M2004,2651 L5203,3769" stroke="blue" stroke-width="2" />
<path d="M1819,3167 L2544,6433" stroke="blue" stroke-width="2" />
<path d="M920,2278 L3221,772" stroke="blue" stroke-width="2" />
<path d="M5162,4239 L4882,449" stroke="blue" stroke-width="2" />
<path d="M5060,6527 L5697,2965" stroke="blue" stroke-width="2" />
<path d="M1867,1144 L2405,6822" stroke="blue" stroke-width="2" />
<path d="M2364,1396 L4091,5418" stroke="blue" stroke-width="2" />
<path d="M2396,5442 L3362,1390" stroke="blue" stroke-width="2" />
<path d="M776,6391 L1600,1828" stroke="blue" stroke-width="2" />
<path d="M4238,284 L3638,3517" stroke="blue" stroke-width="2" />
<path d="M2757,5108 L3689,731" stroke="blue" stroke-width="2" />
<path d="M3945,2558 L4383,5740" stroke="blue" stroke-width="2" />
<path d="M140,6111 L3638,2313" stroke="blue" stroke-width="2" />
<path d="M1609,6461 L4772,3524" stroke="blue" stroke-width="2" />
<path d="M1406,5128 L162,4954" stroke="blue" stroke-width="2" />
<path d="M6016,6525 L1913,156" stroke="blue" stroke-width="2" />
<path d="M3014,5736 L1941,1012" stroke="blue" stroke-width="2" />
<path d="M4714,648 L2397,5365" stroke="blue" stroke-width="2" />
<path d="M5995,4532 L2772,297" stroke="blue" stroke-width="2" />
<path d="M5345,6729 L1811,2443" stroke="blue" stroke-width="2" />
<path d="M800,3794 L2039,6511" stroke="blue" stroke-width="2" />
<path d="M1576,1497 L3246,5582" stroke="blue" stroke-width="2" />
<path d="M5321,5266 L5792,5747" stroke="blue" stroke-width="2" />
<path d="M3740,4758 L5707,5498" stroke="blue" stroke-width="2" />
<path d="M2515,3418 L115,138" stroke="blue" stroke-width="2" />
<path d="M1375,3124 L6009,860" stroke="blue" stroke-width="2" />
<path d="M3097,5400 L1209,5185" stroke="blue" stroke-width="2" />
<path d="M2583,7269 L1199,2361" stroke="blue" stroke-width="2" />
<path d="M183,3519 L2163,5941" stroke="blue" stroke-width="2" />
<path d="M314,3148 L5499,5125" stroke="blue" stroke-width="2" />
<path d="M4042,6304 L5675,539" stroke="blue" stroke-width="2" />
<path d="M4133,2677 L5162,237" stroke="blue" stroke-width="2" />
<path d="M4842,5589 L777,5072" stroke="blue" stroke-width="2" />
<path d="M2816,2255 L4017,6416" stroke="blue" stroke-width="2" />
<path d="M3576,1841 L78,7053" stroke="blue" stroke-width="2" />
<path d="M3724,84 L2740,6997" stroke="blue" stroke-width="2" />
<path d="M1040,1184 L2293,3656" stroke="blue" stroke-width="2" />
<path d="M3790,3661 L1829,3367" stroke="blue" stroke-width="2" />
<path d="M3922,7202 L2251,1333" stroke="blue" stroke-width="2" />
<path d="M1672,5137 L358,1026" stroke="blue" stroke-width="2" />
<path d="M5733,5872 L1418,2051" stroke="blue" stroke-width="2" />
<path d="M5263,4600 L4406,7329" stroke="blue" stroke-width="2" />
<path d="M5946,3756 L4447,3045" stroke="blue" stroke-width="2" />
<path d="M2685,5017 L4116,138" stroke="blue" stroke-width="2" />
<path d="M213,5573 L2436,5391" stroke="blue" stroke-width="2" />
<path d="M1944,4706 L5018,2253" stroke="blue" stroke-width="2" />
<path d="M3215,2601 L2116,5252" stroke="blue" stroke-width="2" />
<path d="M3384,841 L6065,5024" stroke="blue" stroke-width="2" />
<path d="M1175,5336 L2204,3740" stroke="blue" stroke-width="2" />
<path d="M952,3883 L262,1413" stroke="blue" stroke-width="2" />
<path d="M4911,3924 L4324,5065" stroke="blue" stroke-width="2" />
<path d="M2250,788 L1812,44" stroke="blue" stroke-width="2" />
<path d="M5725,1465 L3061,2291" stroke="blue" stroke-width="2" />
<path d="M113,1585 L2237,156" stroke="blue" stroke-width="2" />
<path d="M32,4536 L4743,728" stroke="blue" stroke-width="2" />
<path d="M5044,2237 L4592,5803" stroke="blue" stroke-width="2" />
<path d="M2221,1029 L5549,3101" stroke="blue" stroke-width="2" />
<path d="M418,5839 L6320,925" stroke="blue" stroke-width="2" />
<path d="M1890,4782 L2599,5249" stroke="blue" stroke-width="2" />
<path d="M5135,3615 L1603,2370" stroke="blue" stroke-width="2" />
<path d="M2430,2229 L1175,1697" stroke="blue" stroke-width="2" />
<path d="M2188,2452 L5417,1835" stroke="blue" stroke-width="2" />
<path d="M3396,939 L5361,2632" stroke="blue" stroke-width="2" />
<path d="M2123,4698 L1867,269" stroke="blue" stroke-width="2" />
<path d="M4977,6201 L2404,5667" stroke="blue" stroke-width="2" />
<path d="M6353,4931 L3634,6889" stroke="blue" stroke-width="2" />
<path d="M1599,1085 L2333,2904" stroke="blue" stroke-width="2" />
<path d="M3103,1838 L30,2340" stroke="blue" stroke-width="2" />
<path d="M6261,577 L4464,7338" stroke="blue" stroke-width="2" />
<path d="M4306,314 L5319,4864" stroke="blue" stroke-width="2" />
<path d="M253,6162 L4648,2581" stroke="blue" stroke-width="2" />
<path d="M6010,5175 L2877,6228" stroke="blue" stroke-width="2" />
<path d="M2107,5527 L835,4511" stroke="blue" stroke-width="2" />
<path d="M1035,4903 L4910,1454" stroke="blue" stroke-width="2" />
<path d="M3422,6894 L2072,1542" stroke="blue" stroke-width="2" />
<path d="M1219,5754 L3459,2261" stroke="blue" stroke-width="2" />
<path d="M1851,1039 L5537,1692" stroke="blue" stroke-width="2" />
<path d="M5126,2197 L6068,7317" stroke="blue" stroke-width="2" />
<path d="M6117,6500 L1170,3876" stroke="blue" stroke-width="2" />
<path d="M3150,4698 L6261,1514" stroke="blue" stroke-width="2" />
<path d="M6023,4128 L859,5000" stroke="blue" stroke-width="2" />
<path d="M1926,4802 L4823,1547" stroke="blue" stroke-width="2" />
<path d="M3221,2181 L3647,7200" stroke="blue" stroke-width="2" />
<path d="M1801,4757 L3943,6446" stroke="blue" stroke-width="2" />
<path d="M2258,4000 L5524,4351" stroke="blue" stroke-width="2" />
<path d="M4258,5177 L1886,6882" stroke="blue" stroke-width="2" />
<path d="M2809,4920 L5078,3870" stroke="blue" stroke-width="2" />
<path d="M1747,5039 L366,2027" stroke="blue" stroke-width="2" />
<path d="M5720,5581 L5870,1662" stroke="blue" stroke-width="2" />
<path d="M6119,5338 L2117,5811" stroke="blue" stroke-width="2" />
<path d="M4689,4195 L5481,2414" stroke="blue" stroke-width="2" />
<path d="M5857,2038 L120,588" stroke="blue" stroke-width="2" />
<path d="M6207,6527 L2708,2527" stroke="blue" stroke-width="2" />
<path d="M4742,808 L1870,1763" stroke="blue" stroke-width="2" />
<path d="M1615,2691 L4916,6557" stroke="blue" stroke-width="2" />
<path d="M6098,2402 L1431,4952" stroke="blue" stroke-width="2" />
<path d="M5262,1560 L71,4195" stroke="blue" stroke-width="2" />
<path d="M6186,3740 L4569,1968" stroke="blue" stroke-width="2" />
<path d="M1447,2639 L3264,5799" stroke="blue" stroke-width="2" />
<path d="M1062,4756 L818,6070" stroke="blue" stroke-width="2" />
<path d="M1373,1387 L4946,2389" stroke="blue" stroke-width="2" />
<path d="M4912,5739 L5880,202" stroke="blue" stroke-width="2" />
<path d="M2323,3143 L432,5531" stroke="blue" stroke-width="2" />
<path d="M1582,1691 L1223,5221" stroke="blue" stroke-width="2" />
<path d="M3390,4117 L5075,1308" stroke="blue" stroke-width="2" />
<path d="M1492,4332 L962,5981" stroke="blue" stroke-width="2" />
<path d="M4621,6894 L398,5399" stroke="blue" stroke-width="2" />
<path d="M1102,5422 L3059,5326" stroke="blue" stroke-width="2" />
<path d="M4398,5957 L5090,919" stroke="blue" stroke-width="2" />
<path d="M4507,1233 L4835,3711" stroke="blue" stroke-width="2" />
<path d="M59,1984 L3189,5659" stroke="blue" stroke-width="2" />
<path d="M5456,7191 L281,2778" stroke="blue" stroke-width="2" />
<path d="M6026,1068 L496,747" stroke="blue" stroke-width="2" />
<path d="M4034,5791 L2190,3668" stroke="blue" stroke-width="2" />
<path d="M171,2055 L3103,737" stroke="blue" stroke-width="2" />
<path d="M4505,1320 L5542,1983" stroke="blue" stroke-width="2" />
<path d="M6116,2388 L4149,880" stroke="blue" stroke-width="2" />
<path d="M4313,3225 L653,2733" stroke="blue" stroke-width="2" />
<path d="M0,0 L6365,0" stroke="red" stroke-width="10" />
<path d="M6365,0 L6365,7343" stroke="red" stroke-width="10" />
<path d="M0,7343 L6365,7343" stroke="red" stroke-width="10" />
<path d="M0,7343 L0,0" stroke="red" stroke-width="10" />
</svg>