<?xml version="1.0" encoding="UTF-8"?>
<svg xmlns="http://www.w3.org/2000/svg" xmlns:xlink="http://www.w3.org/1999/xlink"
     width="10000" height="10000" viewBox="0 0 10000 10000">
<defs>
</defs>
<path d="M939,720 L987,362" stroke="blue" stroke-width="2" />
<path d="M305,2975 L621,1728" stroke="blue" stroke-width="2" />
<path d="M5,1821 L958,595" stroke="blue" stroke-width="2" />
<path d="M294,2885 L976,1765" stroke="blue" stroke-width="2" />
<path d="M270,544 L406,1015" stroke="blue" stroke-width="2" />
<path d="M613,1974 L75,1427" stroke="blue" stroke-width="2" />
<path d="M541,1353 L628,2564" stroke="blue" stroke-width="2" />
<path d="M231,3540 L1027,1129" stroke="blue" stroke-width="2" />
<path d="M731,1085 L662,3237" stroke="blue" stroke-width="2" />
<path d="M384,867 L727,957" stroke="blue" stroke-width="2" />
<path d="M694,3229 L104,850" stroke="blue" stroke-width="2" />
<path d="M629,3616 L694,955" stroke="blue" stroke-width="2" />
<path d="M209,204 L1054,2688" stroke="blue" stroke-width="2" />
<path d="M222,1053 L303,2677" stroke="blue" stroke-width="2" />
<path d="M760,2808 L329,3158" stroke="blue" stroke-width="2" />
<path d="M614,2063 L925,974" stroke="blue" stroke-width="2" />
<path d="M435,525 L23,3509" stroke="blue" stroke-width="2" />
<path d="M331,1857 L649,2254" stroke="blue" stroke-width="2" />
<path d="M122,837 L796,2872" stroke="blue" stroke-width="2" />
<path d="M655,3236 L882,2835" stroke="blue" stroke-width="2" />
<path d="M803,2599 L405,910" stroke="blue" stroke-width="2" />
<path d="M289,469 L836,50" stroke="blue" stroke-width="2" />
<path d="M72,892 L780,2436" stroke="blue" stroke-width="2" />
<path d="M228,3021 L791,2748" stroke="blue" stroke-width="2" />
<path d="M170,1595 L626,692" stroke="blue" stroke-width="2" />
<path d="M618,867 L374,2955" stroke="blue" stroke-width="2" />
<path d="M647,572 L588,1638" stroke="blue" stroke-width="2" />
<path d="M26,910 L858,2311" stroke="blue" stroke-width="2" />
<path d="M272,830 L369,856" stroke="blue" stroke-width="2" />
<path d="M520,3022 L835,333" stroke="blue" stroke-width="2" />
<path d="M766,31 L35,948" stroke="blue" stroke-width="2" />
<path d="M257,815 L307,988" stroke="blue" stroke-width="2" />
<path d="M106,494 L242,797" stroke="blue" stroke-width="2" />
<path d="M326,1349 L819,3152" stroke="blue" stroke-width="2" />
<path d="M155,3443 L370,413" stroke="blue" stroke-width="2" />
<path d="M107,756 L282,227" stroke="blue" stroke-width="2" />
<path d="M565,2636 L927,285" stroke="blue" stroke-width="2" />
<path d="M103,2650 L673,3558" stroke="blue" stroke-width="2" />
<path d="M593,1080 L213,3217" stroke="blue" stroke-width="2" />
<path d="M383,370 L968,1425" stroke="blue" stroke-width="2" />
<path d="M850,1270 L240,1176" stroke="blue" stroke-width="2" />
<path d="M386,3436 L883,2242" stroke="blue" stroke-width="2" />
<path d="M488,2789 L249,438" stroke="blue" stroke-width="2" />
<path d="M652,185 L477,3355" stroke="blue" stroke-width="2" />
<path d="M293,3326 L330,748" stroke="blue" stroke-width="2" />
<path d="M798,1504 L346,356" stroke="blue" stroke-width="2" />
<path d="M576,1681 L578,3588" stroke="blue" stroke-width="2" />
<path d="M636,1821 L335,2749" stroke="blue" stroke-width="2" />
<path d="M700,1225 L703,1339" stroke="blue" stroke-width="2" />
<path d="M771,1538 L198,322" stroke="blue" stroke-width="2" />
<path d="M201,1238 L152,892" stroke="blue" stroke-width="2" />
<path d="M906,1328 L843,168" stroke="blue" stroke-width="2" />
<path d="M767,2288 L370,808" stroke="blue" stroke-width="2" />
<path d="M95,3117 L472,669" stroke="blue" stroke-width="2" />
<path d="M233,1429 L147,846" stroke="blue" stroke-width="2" />
<path d="M735,1066 L739,833" stroke="blue" stroke-width="2" />
<path d="M629,3338 L154,1155" stroke="blue" stroke-width="2" />
<path d="M383,2702 L404,2129" stroke="blue" stroke-width="2" />
<path d="M27,1707 L120,2872" stroke="blue" stroke-width="2" />
<path d="M966,2411 L1009,3457" stroke="blue" stroke-width="2" />
<path d="M901,3402 L700,1446" stroke="blue" stroke-width="2" />
<path d="M854,1820 L84,2966" stroke="blue" stroke-width="2" />
<path d="M587,2030 L537,2325" stroke="blue" stroke-width="2" />
<path d="M556,394 L286,1309" stroke="blue" stroke-width="2" />
<path d="M588,2420 L1047,1710" stroke="blue" stroke-width="2" />
<path d="M824,345 L64,1953" stroke="blue" stroke-width="2" />
<path d="M833,3404 L519,2988" stroke="blue" stroke-width="2" />
<path d="M342,2567 L661,3566" stroke="blue" stroke-width="2" />
<path d="M728,1369 L811,2651" stroke="blue" stroke-width="2" />
<path d="M113,1424 L401,2387" stroke="blue" stroke-width="2" />
<path d="M784,1469 L212,1738" stroke="blue" stroke-width="2" />
<path d="M107,2137 L778,3356" stroke="blue" stroke-width="2" />
<path d="M986,2009 L435,2391" stroke="blue" stroke-width="2" />
<path d="M910,1543 L1033,3551" stroke="blue" stroke-width="2" />
<path d="M571,126 L110,1736" stroke="blue" stroke-width="2" />
<path d="M969,3473 L180,1623" stroke="blue" stroke-width="2" />
<path d="M184,3057 L273,3100" stroke="blue" stroke-width="2" />
<path d="M689,673 L811,1665" stroke="blue" stroke-width="2" />
<path d="M968,1426 L28,2027" stroke="blue" stroke-width="2" />
<path d="M350,1220 L428,24" stroke="blue" stroke-width="2" />
<path d="M614,2741 L670,2990" stroke="blue" stroke-width="2" />
<path d="M880,3356 L40,775" stroke="blue" stroke-width="2" />
<path d="M973,908 L989,2147" stroke="blue" stroke-width="2" />
<path d="M859,3589 L753,1932" stroke="blue" stroke-width="2" />
<path d="M641,1660 L341,3188" stroke="blue" stroke-width="2" />
<path d="M547,1149 L372,1360" stroke="blue" stroke-width="2" />
<path d="M55,582 L41,1760" stroke="blue" stroke-width="2" />
<path d="M277,29 L721,3645" stroke="blue" stroke-width="2" />
<path d="M499,1151 L452,3423" stroke="blue" stroke-width="2" />
<path d="M740,1476 L732,709" stroke="blue" stroke-width="2" />
<path d="M9,1513 L995,2415" stroke="blue" stroke-width="2" />
<path d="M906,3541 L573,2320" stroke="blue" stroke-width="2" />
<path d="M878,73 L957,1834" stroke="blue" stroke-width="2" />
<path d="M424,3004 L601,50" stroke="blue" stroke-width="2" />
<path d="M1015,1076 L1021,2291" stroke="blue" stroke-width="2" />
<path d="M1001,3260 L195,514" stroke="blue" stroke-width="2" />
<path d="M216,2444 L946,3478" stroke="blue" stroke-width="2" />
<path d="M489,3653 L496,2270" stroke="blue" stroke-width="2" />
<path d="M613,1921 L705,694" stroke="blue" stroke-width="2" />
<path d="M565,3250 L326,1085" stroke="blue" stroke-width="2" />
<path d="M506,2588 L841,3609" stroke="blue" stroke-width="2" />
<path d="M814,2957 L88,2365" stroke="blue" stroke-width="2" />
<path d="M139,612 L701,1971" stroke="blue" stroke-width="2" />
<path d="M126,2066 L459,2918" stroke="blue" stroke-width="2" />
<path d="M77,157 L489,2909" stroke="blue" stroke-width="2" />
<path d="M27,3247 L16,811" stroke="blue" stroke-width="2" />
<path d="M696,525 L758,53" stroke="blue" stroke-width="2" />
<path d="M589,1248 L148,203" stroke="blue" stroke-width="2" />
<path d="M337,2484 L672,3592" stroke="blue" stroke-width="2" />
<path d="M168,3051 L307,2208" stroke="blue" stroke-width="2" />
<path d="M167,2285 L865,2960" stroke="blue" stroke-width="2" />
<path d="M967,1251 L571,2574" stroke="blue" stroke-width="2" />
<path d="M799,3156 L752,831" stroke="blue" stroke-width="2" />
<path d="M156,1811 L979,198" stroke="blue" stroke-width="2" />
<path d="M310,1643 L321,3293" stroke="blue" stroke-width="2" />
<path d="M714,420 L800,1864" stroke="blue" stroke-width="2" />
<path d="M92,23 L250,1864" stroke="blue" stroke-width="2" />
<path d="M509,2607 L32,2218" stroke="blue" stroke-width="2" />
<path d="M309,1728 L222,776" stroke="blue" stroke-width="2" />
<path d="M438,2466 L306,2769" stroke="blue" stroke-width="2" />
<path d="M867,3251 L133,2071" stroke="blue" stroke-width="2" />
<path d="M963,168 L371,25" stroke="blue" stroke-width="2" />
<path d="M901,3596 L42,3043" stroke="blue" stroke-width="2" />
<path d="M671,3112 L965,904" stroke="blue" stroke-width="2" />
<path d="M933,237 L565,2684" stroke="blue" stroke-width="2" />
<path d="M730,1484 L732,3413" stroke="blue" stroke-width="2" />
<path d="M89,3424 L859,768" stroke="blue" stroke-width="2" />
<path d="M861,2207 L98,1847" stroke="blue" stroke-width="2" />
<path d="M807,630 L581,503" stroke="blue" stroke-width="2" />
<path d="M399,2330 L397,1876" stroke="blue" stroke-width="2" />
<path d="M739,2815 L2,2701" stroke="blue" stroke-width="2" />
<path d="M260,1845 L347,1139" stroke="blue" stroke-width="2" />
<path d="M826,300 L158,902" stroke="blue" stroke-width="2" />
<path d="M534,2034 L959,3194" stroke="blue" stroke-width="2" />
<path d="M646,3491 L76,713" stroke="blue" stroke-width="2" />
<path d="M717,2978 L304,1472" stroke="blue" stroke-width="2" />
<path d="M46,3599 L509,3085" stroke="blue" stroke-width="2" />
<path d="M356,3607 L160,485" stroke="blue" stroke-width="2" />
<path d="M11,1098 L1016,182" stroke="blue" stroke-width="2" />
<path d="M289,63 L757,1347" stroke="blue" stroke-width="2" />
<path d="M72,2685 L560,940" stroke="blue" stroke-width="2" />
<path d="M642,1644 L424,1195" stroke="blue" stroke-width="2" />
<path d="M335,1877 L686,2763" stroke="blue" stroke-width="2" />
<path d="M680,1344 L563,1533" stroke="blue" stroke-width="2" />
<path d="M577,3099 L576,1377" stroke="blue" stroke-width="2" />
<path d="M695,3301 L118,866" stroke="blue" stroke-width="2" />
<path d="M235,299 L971,1123" stroke="blue" stroke-width="2" />
<path d="M768,842 L850,3107" stroke="blue" stroke-width="2" />
<path d="M877,722 L443,1711" stroke="blue" stroke-width="2" />
<path d="M696,2765 L794,3453" stroke="blue" stroke-width="2" />
<path d="M876,1048 L462,1298" stroke="blue" stroke-width="2" />
<path d="M805,627 L183,1939" stroke="blue" stroke-width="2" />
<path d="M833,3086 L654,2328" stroke="blue" stroke-width="2" />
<path d="M466,398 L844,551" stroke="blue" stroke-width="2" />
<path d="M313,2499 L296,698" stroke="blue" stroke-width="2" />
<path d="M990,3104 L931,888" stroke="blue" stroke-width="2" />
<path d="M127,713 L480,1569" stroke="blue" stroke-width="2" />
<path d="M21,3157 L784,1692" stroke="blue" stroke-width="2" />
<path d="M638,540 L26,2017" stroke="blue" stroke-width="2" />
<path d="M171,3575 L408,597" stroke="blue" stroke-width="2" />
<path d="M399,3138 L444,784" stroke="blue" stroke-width="2" />
<path d="M861,240 L868,3276" stroke="blue" stroke-width="2" />
<path d="M369,371 L588,1052" stroke="blue" stroke-width="2" />
<path d="M992,3203 L882,1677" stroke="blue" stroke-width="2" />
<path d="M342,2566 L142,1368" stroke="blue" stroke-width="2" />
<path d="M176,3523 L52,2439" stroke="blue" stroke-width="2" />
<path d="M697,2461 L691,657" stroke="blue" stroke-width="2" />
<path d="M642,2794 L325,2524" stroke="blue" stroke-width="2" />
<path d="M166,563 L926,3560" stroke="blue" stroke-width="2" />
<path d="M144,3313 L437,2451" stroke="blue" stroke-width="2" />
<path d="M20,3106 L712,2725" stroke="blue" stroke-width="2" />
<path d="M817,760 L511,32" stroke="blue" stroke-width="2" />
<path d="M18,915 L208,1288" stroke="blue" stroke-width="2" />
<path d="M888,117 L684,930" stroke="blue" stroke-width="2" />
<path d="M508,986 L649,2496" stroke="blue" stroke-width="2" />
<path d="M655,633 L381,2343" stroke="blue" stroke-width="2" />
<path d="M953,1974 L935,1482" stroke="blue" stroke-width="2" />
<path d="M185,1664 L768,1710" stroke="blue" stroke-width="2" />
<path d="M337,3455 L970,353" stroke="blue" stroke-width="2" />
<path d="M13,2466 L230,573" stroke="blue" stroke-width="2" />
<path d="M124,1817 L974,795" stroke="blue" stroke-width="2" />
<path d="M579,3651 L934,1457" stroke="blue" stroke-width="2" />
<path d="M731,2444 L818,581" stroke="blue" stroke-width="2" />
<path d="M554,3563 L670,2073" stroke="blue" stroke-width="2" />
<path d="M881,221 L14,158" stroke="blue" stroke-width="2" />
<path d="M981,812 L349,1207" stroke="blue" stroke-width="2" />
<path d="M152,175 L412,457" stroke="blue" stroke-width="2" />
<path d="M552,1708 L462,1436" stroke="blue" stroke-width="2" />
<path d="M802,161 L931,1325" stroke="blue" stroke-width="2" />
<path d="M915,44 L34,7" stroke="blue" stroke-width="2" />
<path d="M621,2749 L354,1691" stroke="blue" stroke-width="2" />
<path d="M292,616 L1030,3264" stroke="blue" stroke-width="2" />
<path d="M74,3183 L430,3143" stroke="blue" stroke-width="2" />
<path d="M943,1179 L288,1616" stroke="blue" stroke-width="2" />
<path d="M279,3154 L502,919" stroke="blue" stroke-width="2" />
<path d="M660,318 L798,143" stroke="blue" stroke-width="2" />
<path d="M1001,405 L1047,3378" stroke="blue" stroke-width="2" />
<path d="M968,2724 L982,831" stroke="blue" stroke-width="2" />
<path d="M103,2360 L28,683" stroke="blue" stroke-width="2" />
<path d="M769,1829 L385,55" stroke="blue" stroke-width="2" />
<path d="M1013,1670 L1033,2636" stroke="blue" stroke-width="2" />
<path d="M469,3525 L646,423" stroke="blue" stroke-width="2" />
<path d="M161,2031 L415,2145" stroke="blue" stroke-width="2" />
<path d="M1032,2133 L71,1395" stroke="blue" stroke-width="2" />
<path d="M502,3419 L110,1773" stroke="blue" stroke-width="2" />
<path d="M445,1411 L680,2739" stroke="blue" stroke-width="2" />
<path d="M786,2138 L859,802" stroke="blue" stroke-width="2" />
<path d="M680,3194 L638,1753" stroke="blue" stroke-width="2" />
<path d="M303,2284 L1006,2373" stroke="blue" stroke-width="2" />
<path d="M788,1266 L775,1627" stroke="blue" stroke-width="2" />
<path d="M817,2538 L1028,3212" stroke="blue" stroke-width="2" />
<path d="M357,1500 L430,1236" stroke="blue" stroke-width="2" />
<path d="M815,156 L258,2294" stroke="blue" stroke-width="2" />
<path d="M679,3240 L407,3284" stroke="blue" stroke-width="2" />
<path d="M808,1546 L474,1166" stroke="blue" stroke-width="2" />
<path d="M271,2043 L970,2592" stroke="blue" stroke-width="2" />
<path d="M857,2694 L480,2900" stroke="blue" stroke-width="2" />
<path d="M996,2826 L490,161" stroke="blue" stroke-width="2" />
<path d="M681,918 L226,883" stroke="blue" stroke-width="2" />
<path d="M729,3575 L277,1481" stroke="blue" stroke-width="2" />
<path d="M607,2602 L420,3066" stroke="blue" stroke-width="2" />
<path d="M9,1907 L985,3017" stroke="blue" stroke-width="2" />
<path d="M807,246 L1030,2885" stroke="blue" stroke-width="2" />
<path d="M1040,425 L859,1981" stroke="blue" stroke-width="2" />
<path d="M974,2443 L40,801" stroke="blue" stroke-width="2" />
<path d="M953,2350 L867,3540" stroke="blue" stroke-width="2" />
<path d="M262,2009 L443,409" stroke="blue" stroke-width="2" />
<path d="M550,869 L624,3173" stroke="blue" stroke-width="2" />
<path d="M388,3276 L123,1955" stroke="blue" stroke-width="2" />
<path d="M748,1522 L486,2222" stroke="blue" stroke-width="2" />
<path d="M632,1330 L191,2949" stroke="blue" stroke-width="2" />
<path d="M498,3551 L899,9" stroke="blue" stroke-width="2" />
<path d="M327,355 L62,1016" stroke="blue" stroke-width="2" />
<path d="M307,2753 L884,424" stroke="blue" stroke-width="2" />
<path d="M1004,1917 L843,3016" stroke="blue" stroke-width="2" />
<path d="M132,16 L675,2238" stroke="blue" stroke-width="2" />
<path d="M688,2071 L332,782" stroke="blue" stroke-width="2" />
<path d="M576,1612 L436,1064" stroke="blue" stroke-width="2" />
<path d="M825,1925 L1007,2292" stroke="blue" stroke-width="2" />
<path d="M776,2444 L513,2082" stroke="blue" stroke-width="2" />
<path d="M129,795 L316,815" stroke="blue" stroke-width="2" />
<path d="M726,2805 L563,1902" stroke="blue" stroke-width="2" />
<path d="M156,3396 L221,126" stroke="blue" stroke-width="2" />
<path d="M435,1670 L1006,176" stroke="blue" stroke-width="2" />
<path d="M757,1710 L769,744" stroke="blue" stroke-width="2" />
<path d="M1033,2128 L468,3583" stroke="blue" stroke-width="2" />
<path d="M557,390 L526,843" stroke="blue" stroke-width="2" />
<path d="M824,3266 L669,2837" stroke="blue" stroke-width="2" />
<path d="M880,591 L840,3227" stroke="blue" stroke-width="2" />
<path d="M918,844 L894,1991" stroke="blue" stroke-width="2" />
<path d="M885,1751 L329,243" stroke="blue" stroke-width="2" />
<path d="M829,1539 L634,1181" stroke="blue" stroke-width="2" />
<path d="M550,3259 L1038,754" stroke="blue" stroke-width="2" />
<path d="M141,2087 L757,3360" stroke="blue" stroke-width="2" />
<path d="M642,2321 L263,198" stroke="blue" stroke-width="2" />
<path d="M906,3641 L864,1994" stroke="blue" stroke-width="2" />
<path d="M570,3117 L500,1812" stroke="blue" stroke-width="2" />
<path d="M32,2949 L136,2628" stroke="blue" stroke-width="2" />
<path d="M678,3219 L1039,3594" stroke="blue" stroke-width="2" />
<path d="M963,2706 L666,1124" stroke="blue" stroke-width="2" />
<path d="M507,2087 L787,375" stroke="blue" stroke-width="2" />
<path d="M607,3134 L798,3259" stroke="blue" stroke-width="2" />
<path d="M96,1822 L1012,2604" stroke="blue" stroke-width="2" />
<path d="M661,2752 L173,423" stroke="blue" stroke-width="2" />
<path d="M171,1370 L170,254" stroke="blue" stroke-width="2" />
<path d="M789,1855 L156,413" stroke="blue" stroke-width="2" />
<path d="M48,254 L944,794" stroke="blue" stroke-width="2" />
<path d="M422,3561 L264,1074" stroke="blue" stroke-width="2" />
<path d="M329,356 L750,2799" stroke="blue" stroke-width="2" />
<path d="M386,2078 L976,2524" stroke="blue" stroke-width="2" />
<path d="M183,798 L564,2366" stroke="blue" stroke-width="2" />
<path d="M592,1249 L1028,1311" stroke="blue" stroke-width="2" />
<path d="M607,3637 L414,1805" stroke="blue" stroke-width="2" />
<path d="M393,1518 L932,3382" stroke="blue" stroke-width="2" />
<path d="M772,224 L229,1219" stroke="blue" stroke-width="2" />
<path d="M920,2900 L746,2710" stroke="blue" stroke-width="2" />
<path d="M244,1632 L674,811" stroke="blue" stroke-width="2" />
<path d="M606,1565 L103,3210" stroke="blue" stroke-width="2" />
<path d="M383,2605 L113,2874" stroke="blue" stroke-width="2" />
<path d="M208,1852 L1037,74" stroke="blue" stroke-width="2" />
<path d="M468,1981 L587,3016" stroke="blue" stroke-width="2" />
<path d="M606,3096 L72,2876" stroke="blue" stroke-width="2" />
<path d="M769,991 L859,2173" stroke="blue" stroke-width="2" />
<path d="M631,1418 L552,975" stroke="blue" stroke-width="2" />
<path d="M122,105 L844,738" stroke="blue" stroke-width="2" />
<path d="M154,2162 L786,2821" stroke="blue" stroke-width="2" />
<path d="M870,3492 L431,2684" stroke="blue" stroke-width="2" />
<path d="M176,2498 L85,1744" stroke="blue" stroke-width="2" />
<path d="M12,715 L153,1920" stroke="blue" stroke-width="2" />
<path d="M959,2224 L364,51" stroke="blue" stroke-width="2" />
<path d="M726,423 L539,352" stroke="blue" stroke-width="2" />
<path d="M854,1513 L980,2021" stroke="blue" stroke-width="2" />
<path d="M871,361 L1002,3528" stroke="blue" stroke-width="2" />
<path d="M889,737 L291,1225" stroke="blue" stroke-width="2" />
<path d="M777,2826 L231,3431" stroke="blue" stroke-width="2" />
<path d="M545,463 L959,797" stroke="blue" stroke-width="2" />
<path d="M245,2796 L362,3088" stroke="blue" stroke-width="2" />
<path d="M757,289 L924,2861" stroke="blue" stroke-width="2" />
<path d="M549,829 L937,889" stroke="blue" stroke-width="2" />
<path d="M96,1223 L324,477" stroke="blue" stroke-width="2" />
<path d="M990,1018 L723,2564" stroke="blue" stroke-width="2" />
<path d="M95,770 L1055,2243" stroke="blue" stroke-width="2" />
<path d="M690,3608 L825,2556" stroke="blue" stroke-width="2" />
<path d="M591,2254 L613,974" stroke="blue" stroke-width="2" />
<path d="M470,900 L308,2499" stroke="blue" stroke-width="2" />
<path d="M884,3502 L685,120" stroke="blue" stroke-width="2" />
<path d="M442,3035 L956,740" stroke="blue" stroke-width="2" />
<path d="M377,2701 L672,2786" stroke="blue" stroke-width="2" />
<path d="M424,3548 L50,3331" stroke="blue" stroke-width="2" />
<path d="M66,861 L787,1619" stroke="blue" stroke-width="2" />
<path d="M0,0 L1056,0" stroke="red" stroke-width="10" />
<path d="M1056,0 L1056,3659" stroke="red" stroke-width="10" />
<path d="M0,3659 L1056,3659" stroke="red" stroke-width="10" />
<path d="M0,3659 L0,0" stroke="red" stroke-width="10" />
</svg>