<?xml version="1.0" encoding="UTF-8"?>
<svg xmlns="http://www.w3.org/2000/svg" xmlns:xlink="http://www.w3.org/1999/xlink"
     width="10000" height="10000" viewBox="0 0 10000 10000">
<defs>
</defs>
<path d="M2592,4004 L1451,5878" stroke="blue" stroke-width="2" />
<path d="M58,265 L2855,5128" stroke="blue" stroke-width="2" />
<path d="M1679,821 L2129,4864" stroke="blue" stroke-width="2" />
<path d="M3189,8365 L3064,9524" stroke="blue" stroke-width="2" />
<path d="M2530,2642 L1794,4249" stroke="blue" stroke-width="2" />
<path d="M2123,1293 L1253,7911" stroke="blue" stroke-width="2" />
<path d="M3107,4838 L2240,7803" stroke="blue" stroke-width="2" />
<path d="M1533,8501 L2979,4038" stroke="blue" stroke-width="2" />
<path d="M2495,1708 L2190,8381" stroke="blue" stroke-width="2" />
<path d="M1180,4357 L1141,6135" stroke="blue" stroke-width="2" />
<path d="M1174,6432 L701,6652" stroke="blue" stroke-width="2" />
<path d="M187,2057 L1018,6335" stroke="blue" stroke-width="2" />
<path d="M3099,1303 L1973,7342" stroke="blue" stroke-width="2" />
<path d="M101,2916 L872,5272" stroke="blue" stroke-width="2" />
<path d="M68,5973 L606,3060" stroke="blue" stroke-width="2" />
<path d="M1855,4866 L3471,8259" stroke="blue" stroke-width="2" />
<path d="M1442,2289 L1458,3952" stroke="blue" stroke-width="2" />
<path d="M3387,617 L2343,1206" stroke="blue" stroke-width="2" />
<path d="M2870,2470 L366,695" stroke="blue" stroke-width="2" />
<path d="M3399,212 L1100,8232" stroke="blue" stroke-width="2" />
<path d="M1062,5641 L1817,6238" stroke="blue" stroke-width="2" />
<path d="M726,2681 L2166,7632" stroke="blue" stroke-width="2" />
<path d="M1498,435 L1302,6889" stroke="blue" stroke-width="2" />
<path d="M1408,5011 L906,9491" stroke="blue" stroke-width="2" />
<path d="M954,512 L2343,9106" stroke="blue" stroke-width="2" />
<path d="M2067,8520 L2748,3025" stroke="blue" stroke-width="2" />
<path d="M2507,222 L1769,4365" stroke="blue" stroke-width="2" />
<path d="M948,675 L1741,5582" stroke="blue" stroke-width="2" />
<path d="M3312,6662 L1512,8764" stroke="blue" stroke-width="2" />
<path d="M2782,4925 L503,2798" stroke="blue" stroke-width="2" />
<path d="M424,288 L2673,2327" stroke="blue" stroke-width="2" />
<path d="M635,6212 L197,2974" stroke="blue" stroke-width="2" />
<path d="M713,9500 L2141,6032" stroke="blue" stroke-width="2" />
<path d="M1552,4234 L2910,3147" stroke="blue" stroke-width="2" />
<path d="M2760,5579 L1835,7019" stroke="blue" stroke-width="2" />
<path d="M42,8837 L3451,2889" stroke="blue" stroke-width="2" />
<path d="M1471,7043 L1885,7479" stroke="blue" stroke-width="2" />
<path d="M3366,5908 L1632,6297" stroke="blue" stroke-width="2" />
<path d="M3358,7567 L3358,7711" stroke="blue" stroke-width="2" />
<path d="M643,9010 L3366,38" stroke="blue" stroke-width="2" />
<path d="M834,2999 L1010,1583" stroke="blue" stroke-width="2" />
<path d="M2884,9461 L1640,8861" stroke="blue" stroke-width="2" />
<path d="M311,4948 L2547,3060" stroke="blue" stroke-width="2" />
<path d="M471,3971 L870,2602" stroke="blue" stroke-width="2" />
<path d="M902,6518 L3487,8306" stroke="blue" stroke-width="2" />
<path d="M657,9163 L774,6112" stroke="blue" stroke-width="2" />
<path d="M1,165 L3514,6770" stroke="blue" stroke-width="2" />
<path d="M2602,9398 L1595,4259" stroke="blue" stroke-width="2" />
<path d="M1371,295 L3360,1318" stroke="blue" stroke-width="2" />
<path d="M1372,1574 L2526,7618" stroke="blue" stroke-width="2" />
<path d="M2402,2145 L284,9461" stroke="blue" stroke-width="2" />
<path d="M1436,4628 L107,237" stroke="blue" stroke-width="2" />
<path d="M2089,2873 L3131,2522" stroke="blue" stroke-width="2" />
<path d="M225,4901 L487,4150" stroke="blue" stroke-width="2" />
<path d="M809,2856 L3517,4077" stroke="blue" stroke-width="2" />
<path d="M2283,4746 L2313,7001" stroke="blue" stroke-width="2" />
<path d="M2462,3870 L2766,3521" stroke="blue" stroke-width="2" />
<path d="M3184,5689 L1912,5061" stroke="blue" stroke-width="2" />
<path d="M660,1479 L2873,8083" stroke="blue" stroke-width="2" />
<path d="M3272,2034 L1477,1303" stroke="blue" stroke-width="2" />
<path d="M2980,2092 L1082,5941" stroke="blue" stroke-width="2" />
<path d="M1776,2285 L662,3233" stroke="blue" stroke-width="2" />
<path d="M2407,2314 L1744,9109" stroke="blue" stroke-width="2" />
<path d="M3150,2584 L2484,268" stroke="blue" stroke-width="2" />
<path d="M1652,337 L3012,7745" stroke="blue" stroke-width="2" />
<path d="M2716,962 L201,8743" stroke="blue" stroke-width="2" />
<path d="M717,4325 L1464,2538" stroke="blue" stroke-width="2" />
<path d="M1344,4046 L2445,8823" stroke="blue" stroke-width="2" />
<path d="M279,9562 L2811,9561" stroke="blue" stroke-width="2" />
<path d="M2883,4643 L1485,3877" stroke="blue" stroke-width="2" />
<path d="M2194,3760 L1591,3467" stroke="blue" stroke-width="2" />
<path d="M772,5607 L257,8660" stroke="blue" stroke-width="2" />
<path d="M3045,7573 L1637,4165" stroke="blue" stroke-width="2" />
<path d="M1012,8287 L2203,7424" stroke="blue" stroke-width="2" />
<path d="M3328,4574 L1830,252" stroke="blue" stroke-width="2" />
<path d="M112,6166 L2805,6952" stroke="blue" stroke-width="2" />
<path d="M777,431 L762,6948" stroke="blue" stroke-width="2" />
<path d="M2199,151 L2863,2024" stroke="blue" stroke-width="2" />
<path d="M264,8879 L76,6794" stroke="blue" stroke-width="2" />
<path d="M3103,3071 L2892,6937" stroke="blue" stroke-width="2" />
<path d="M2594,6186 L593,5211" stroke="blue" stroke-width="2" />
<path d="M2339,6322 L2197,6166" stroke="blue" stroke-width="2" />
<path d="M2612,8216 L2906,9627" stroke="blue" stroke-width="2" />
<path d="M1814,6536 L1076,3141" stroke="blue" stroke-width="2" />
<path d="M2410,5710 L3149,5007" stroke="blue" stroke-width="2" />
<path d="M2176,8731 L2255,1256" stroke="blue" stroke-width="2" />
<path d="M3095,2881 L2098,4219" stroke="blue" stroke-width="2" />
<path d="M3068,1204 L2093,4730" stroke="blue" stroke-width="2" />
<path d="M25,4344 L2805,5686" stroke="blue" stroke-width="2" />
<path d="M1045,6530 L922,8978" stroke="blue" stroke-width="2" />
<path d="M1796,2309 L3426,5183" stroke="blue" stroke-width="2" />
<path d="M473,6432 L2287,6035" stroke="blue" stroke-width="2" />
<path d="M2147,547 L2802,5147" stroke="blue" stroke-width="2" />
<path d="M1244,1124 L1884,1949" stroke="blue" stroke-width="2" />
<path d="M338,8746 L704,6367" stroke="blue" stroke-width="2" />
<path d="M1546,5918 L1862,3636" stroke="blue" stroke-width="2" />
<path d="M2750,1287 L1435,2581" stroke="blue" stroke-width="2" />
<path d="M90,3976 L1571,5304" stroke="blue" stroke-width="2" />
<path d="M330,6828 L3336,5921" stroke="blue" stroke-width="2" />
<path d="M1560,1170 L1628,4872" stroke="blue" stroke-width="2" />
<path d="M3407,2978 L1066,3837" stroke="blue" stroke-width="2" />
<path d="M516,7413 L1269,7539" stroke="blue" stroke-width="2" />
<path d="M2696,9442 L954,5488" stroke="blue" stroke-width="2" />
<path d="M3053,3910 L2311,270" stroke="blue" stroke-width="2" />
<path d="M1177,2986 L973,7287" stroke="blue" stroke-width="2" />
<path d="M351,2743 L2192,681" stroke="blue" stroke-width="2" />
<path d="M1112,334 L302,4079" stroke="blue" stroke-width="2" />
<path d="M3384,6537 L1970,5995" stroke="blue" stroke-width="2" />
<path d="M675,8371 L1351,1929" stroke="blue" stroke-width="2" />
<path d="M2480,1932 L1652,9447" stroke="blue" stroke-width="2" />
<path d="M2478,2142 L2808,3214" stroke="blue" stroke-width="2" />
<path d="M2055,402 L2764,3646" stroke="blue" stroke-width="2" />
<path d="M1702,1440 L3432,6081" stroke="blue" stroke-width="2" />
<path d="M2816,7994 L2423,2225" stroke="blue" stroke-width="2" />
<path d="M1826,8983 L1028,7796" stroke="blue" stroke-width="2" />
<path d="M2995,3354 L1432,3668" stroke="blue" stroke-width="2" />
<path d="M1256,1147 L955,5105" stroke="blue" stroke-width="2" />
<path d="M330,9119 L813,256" stroke="blue" stroke-width="2" />
<path d="M225,7433 L2513,1442" stroke="blue" stroke-width="2" />
<path d="M1410,7293 L1519,1327" stroke="blue" stroke-width="2" />
<path d="M1810,380 L586,7196" stroke="blue" stroke-width="2" />
<path d="M2778,357 L667,1083" stroke="blue" stroke-width="2" />
<path d="M122,6886 L3055,4914" stroke="blue" stroke-width="2" />
<path d="M2516,2722 L2044,8345" stroke="blue" stroke-width="2" />
<path d="M93,1695 L1659,9656" stroke="blue" stroke-width="2" />
<path d="M3183,3243 L1226,1907" stroke="blue" stroke-width="2" />
<path d="M1260,7222 L800,6169" stroke="blue" stroke-width="2" />
<path d="M3108,6483 L2683,4781" stroke="blue" stroke-width="2" />
<path d="M383,8304 L2499,1817" stroke="blue" stroke-width="2" />
<path d="M2251,178 L3501,7206" stroke="blue" stroke-width="2" />
<path d="M825,4376 L626,9287" stroke="blue" stroke-width="2" />
<path d="M2885,6125 L1519,9573" stroke="blue" stroke-width="2" />
<path d="M2839,7667 L2366,3997" stroke="blue" stroke-width="2" />
<path d="M1474,7822 L2862,2054" stroke="blue" stroke-width="2" />
<path d="M1797,5418 L2967,3953" stroke="blue" stroke-width="2" />
<path d="M2592,606 L2964,2516" stroke="blue" stroke-width="2" />
<path d="M1130,226 L1461,5527" stroke="blue" stroke-width="2" />
<path d="M1209,9127 L3515,7257" stroke="blue" stroke-width="2" />
<path d="M1674,4461 L415,890" stroke="blue" stroke-width="2" />
<path d="M1843,6639 L2755,5395" stroke="blue" stroke-width="2" />
<path d="M1417,2535 L419,4627" stroke="blue" stroke-width="2" />
<path d="M340,5671 L353,1862" stroke="blue" stroke-width="2" />
<path d="M1917,2182 L2055,3394" stroke="blue" stroke-width="2" />
<path d="M710,8548 L3375,2775" stroke="blue" stroke-width="2" />
<path d="M3363,4874 L2219,1265" stroke="blue" stroke-width="2" />
<path d="M3154,8774 L1904,1067" stroke="blue" stroke-width="2" />
<path d="M2356,1139 L1821,2920" stroke="blue" stroke-width="2" />
<path d="M716,8362 L144,1382" stroke="blue" stroke-width="2" />
<path d="M722,7585 L3438,9505" stroke="blue" stroke-width="2" />
<path d="M0,0 L3522,0" stroke="red" stroke-width="10" />
<path d="M3522,0 L3522,9821" stroke="red" stroke-width="10" />
<path d="M0,9821 L3522,9821" stroke="red" stroke-width="10" />
<path d="M0,9821 L0,0" stroke="red" stroke-width="10" />
</svg>