<?xml version="1.0" encoding="UTF-8"?>
<svg xmlns="http://www.w3.org/2000/svg" xmlns:xlink="http://www.w3.org/1999/xlink"
     width="10000" height="10000" viewBox="0 0 10000 10000">
<defs>
</defs>
<path d="M2466,6823 L3631,2208" stroke="blue" stroke-width="2" />
<path d="M4461,1136 L1132,6408" stroke="blue" stroke-width="2" />
<path d="M5862,1296 L2231,6892" stroke="blue" stroke-width="2" />
<path d="M5828,6506 L1489,7030" stroke="blue" stroke-width="2" />
<path d="M1564,3190 L87,2074" stroke="blue" stroke-width="2" />
<path d="M6321,6482 L4078,6597" stroke="blue" stroke-width="2" />
<path d="M4611,1506 L6097,5274" stroke="blue" stroke-width="2" />
<path d="M5927,3861 L532,796" stroke="blue" stroke-width="2" />
<path d="M4716,1628 L4782,3573" stroke="blue" stroke-width="2" />
<path d="M5680,2422 L273,6031" stroke="blue" stroke-width="2" />
<path d="M4046,4164 L2361,387" stroke="blue" stroke-width="2" />
<path d="M2586,848 L245,13" stroke="blue" stroke-width="2" />
<path d="M2328,1262 L1540,2051" stroke="blue" stroke-width="2" />
<path d="M5802,1403 L4446,1463" stroke="blue" stroke-width="2" />
<path d="M3824,776 L5454,83" stroke="blue" stroke-width="2" />
<path d="M3615,6577 L4170,396" stroke="blue" stroke-width="2" />
<path d="M2887,3640 L3082,952" stroke="blue" stroke-width="2" />
<path d="M4397,5500 L2844,2747" stroke="blue" stroke-width="2" />
<path d="M5844,92 L3333,3650" stroke="blue" stroke-width="2" />
<path d="M659,4965 L1972,2570" stroke="blue" stroke-width="2" />
<path d="M4160,4514 L4278,1950" stroke="blue" stroke-width="2" />
<path d="M1189,7271 L2825,1955" stroke="blue" stroke-width="2" />
<path d="M3086,4159 L5795,4415" stroke="blue" stroke-width="2" />
<path d="M1541,2667 L4864,3155" stroke="blue" stroke-width="2" />
<path d="M2382,3679 L6096,1211" stroke="blue" stroke-width="2" />
<path d="M4947,2493 L1117,257" stroke="blue" stroke-width="2" />
<path d="M4970,5826 L5153,6182" stroke="blue" stroke-width="2" />
<path d="M1724,4179 L3300,3311" stroke="blue" stroke-width="2" />
<path d="M2298,2498 L4188,2219" stroke="blue" stroke-width="2" />
<path d="M4988,5760 L31,4600" stroke="blue" stroke-width="2" />
<path d="M6325,2171 L3555,262" stroke="blue" stroke-width="2" />
<path d="M3925,5043 L4283,2390" stroke="blue" stroke-width="2" />
<path d="M575,1581 L6138,6638" stroke="blue" stroke-width="2" />
<path d="M5514,2666 L2153,3201" stroke="blue" stroke-width="2" />
<path d="M4618,3091 L3497,795" stroke="blue" stroke-width="2" />
<path d="M4053,5676 L2368,4644" stroke="blue" stroke-width="2" />
<path d="M4480,528 L5351,6428" stroke="blue" stroke-width="2" />
<path d="M5280,577 L275,5345" stroke="blue" stroke-width="2" />
<path d="M6077,1523 L4564,4073" stroke="blue" stroke-width="2" />
<path d="M3546,4020 L6278,2629" stroke="blue" stroke-width="2" />
<path d="M721,307 L3691,5627" stroke="blue" stroke-width="2" />
<path d="M314,6552 L5500,3641" stroke="blue" stroke-width="2" />
<path d="M4833,2263 L5058,4319" stroke="blue" stroke-width="2" />
<path d="M3996,4857 L3713,3431" stroke="blue" stroke-width="2" />
<path d="M559,2339 L954,3295" stroke="blue" stroke-width="2" />
<path d="M1755,955 L3075,3160" stroke="blue" stroke-width="2" />
<path d="M3282,3637 L1679,605" stroke="blue" stroke-width="2" />
<path d="M1867,7064 L568,3267" stroke="blue" stroke-width="2" />
<path d="M6268,5813 L1227,602" stroke="blue" stroke-width="2" />
<path d="M1567,6638 L1819,42" stroke="blue" stroke-width="2" />
<path d="M657,2966 L4991,842" stroke="blue" stroke-width="2" />
<path d="M4263,6466 L2165,4306" stroke="blue" stroke-width="2" />
<path d="M3949,4785 L1939,3798" stroke="blue" stroke-width="2" />
<path d="M5600,1388 L5569,2417" stroke="blue" stroke-width="2" />
<path d="M5958,4386 L464,2082" stroke="blue" stroke-width="2" />
<path d="M1360,3570 L1226,1271" stroke="blue" stroke-width="2" />
<path d="M5401,3658 L3131,5426" stroke="blue" stroke-width="2" />
<path d="M3069,6648 L5507,2466" stroke="blue" stroke-width="2" />
<path d="M1322,6230 L2589,3927" stroke="blue" stroke-width="2" />
<path d="M3644,1388 L677,4474" stroke="blue" stroke-width="2" />
<path d="M2246,5657 L1717,63" stroke="blue" stroke-width="2" />
<path d="M3549,4952 L5457,2854" stroke="blue" stroke-width="2" />
<path d="M3245,7087 L1829,930" stroke="blue" stroke-width="2" />
<path d="M2375,4813 L5596,1185" stroke="blue" stroke-width="2" />
<path d="M1043,3386 L2702,7054" stroke="blue" stroke-width="2" />
<path d="M5721,1412 L2366,117" stroke="blue" stroke-width="2" />
<path d="M5766,6368 L4584,5302" stroke="blue" stroke-width="2" />
<path d="M3120,603 L2398,766" stroke="blue" stroke-width="2" />
<path d="M1552,2352 L2192,7057" stroke="blue" stroke-width="2" />
<path d="M1822,1442 L5919,5915" stroke="blue" stroke-width="2" />
<path d="M863,6870 L2696,1680" stroke="blue" stroke-width="2" />
<path d="M3416,4721 L5343,1236" stroke="blue" stroke-width="2" />
<path d="M1440,2816 L3432,6352" stroke="blue" stroke-width="2" />
<path d="M2352,5906 L4745,2453" stroke="blue" stroke-width="2" />
<path d="M5697,5520 L344,1597" stroke="blue" stroke-width="2" />
<path d="M3037,273 L77,1724" stroke="blue" stroke-width="2" />
<path d="M4613,708 L4796,2405" stroke="blue" stroke-width="2" />
<path d="M4652,2324 L1180,6509" stroke="blue" stroke-width="2" />
<path d="M3512,1490 L1513,5913" stroke="blue" stroke-width="2" />
<path d="M5224,1964 L1215,3604" stroke="blue" stroke-width="2" />
<path d="M1850,3735 L1355,6130" stroke="blue" stroke-width="2" />
<path d="M1950,324 L3697,3926" stroke="blue" stroke-width="2" />
<path d="M3109,3082 L4611,6856" stroke="blue" stroke-width="2" />
<path d="M1767,3036 L5682,6582" stroke="blue" stroke-width="2" />
<path d="M2176,5292 L5911,4408" stroke="blue" stroke-width="2" />
<path d="M4615,4052 L5181,1487" stroke="blue" stroke-width="2" />
<path d="M1263,4400 L1804,5367" stroke="blue" stroke-width="2" />
<path d="M4932,2884 L5961,2041" stroke="blue" stroke-width="2" />
<path d="M320,2485 L681,1266" stroke="blue" stroke-width="2" />
<path d="M1507,1138 L955,6364" stroke="blue" stroke-width="2" />
<path d="M1207,1561 L2862,4987" stroke="blue" stroke-width="2" />
<path d="M4862,6396 L2207,2747" stroke="blue" stroke-width="2" />
<path d="M180,2398 L2805,5673" stroke="blue" stroke-width="2" />
<path d="M5009,2565 L2503,4502" stroke="blue" stroke-width="2" />
<path d="M3570,3992 L4081,750" stroke="blue" stroke-width="2" />
<path d="M1204,3385 L4317,3437" stroke="blue" stroke-width="2" />
<path d="M4175,728 L6320,6099" stroke="blue" stroke-width="2" />
<path d="M3705,4207 L5963,3318" stroke="blue" stroke-width="2" />
<path d="M4518,6175 L3185,7268" stroke="blue" stroke-width="2" />
<path d="M316,2970 L1135,6916" stroke="blue" stroke-width="2" />
<path d="M525,5292 L3248,1125" stroke="blue" stroke-width="2" />
<path d="M3061,2005 L3114,6987" stroke="blue" stroke-width="2" />
<path d="M5338,6795 L1985,4000" stroke="blue" stroke-width="2" />
<path d="M1274,1498 L6260,5777" stroke="blue" stroke-width="2" />
<path d="M854,4701 L2546,568" stroke="blue" stroke-width="2" />
<path d="M3439,2576 L1555,4582" stroke="blue" stroke-width="2" />
<path d="M117,7235 L6033,4457" stroke="blue" stroke-width="2" />
<path d="M3086,2347 L1493,3216" stroke="blue" stroke-width="2" />
<path d="M4466,6904 L5825,1555" stroke="blue" stroke-width="2" />
<path d="M6243,544 L5519,1435" stroke="blue" stroke-width="2" />
<path d="M1750,2514 L3013,417" stroke="blue" stroke-width="2" />
<path d="M1703,7042 L1805,6632" stroke="blue" stroke-width="2" />
<path d="M655,4467 L1981,4236" stroke="blue" stroke-width="2" />
<path d="M2830,1914 L2153,6897" stroke="blue" stroke-width="2" />
<path d="M4810,4173 L3821,250" stroke="blue" stroke-width="2" />
<path d="M388,6167 L6221,4115" stroke="blue" stroke-width="2" />
<path d="M6406,6568 L1659,3414" stroke="blue" stroke-width="2" />
<path d="M5998,2360 L3095,6295" stroke="blue" stroke-width="2" />
<path d="M4040,6531 L960,4676" stroke="blue" stroke-width="2" />
<path d="M2723,5693 L3646,1129" stroke="blue" stroke-width="2" />
<path d="M995,4379 L5971,3447" stroke="blue" stroke-width="2" />
<path d="M2356,1804 L2859,172" stroke="blue" stroke-width="2" />
<path d="M5007,1864 L5326,52" stroke="blue" stroke-width="2" />
<path d="M1134,1252 L5045,1960" stroke="blue" stroke-width="2" />
<path d="M1961,2041 L45,1110" stroke="blue" stroke-width="2" />
<path d="M859,1778 L194,1001" stroke="blue" stroke-width="2" />
<path d="M5970,2773 L499,6917" stroke="blue" stroke-width="2" />
<path d="M4307,597 L3064,1571" stroke="blue" stroke-width="2" />
<path d="M5305,5856 L804,3385" stroke="blue" stroke-width="2" />
<path d="M3067,2145 L4691,2028" stroke="blue" stroke-width="2" />
<path d="M2205,5190 L4096,6164" stroke="blue" stroke-width="2" />
<path d="M4408,1230 L262,707" stroke="blue" stroke-width="2" />
<path d="M6423,4593 L4317,6452" stroke="blue" stroke-width="2" />
<path d="M2051,7059 L4577,2604" stroke="blue" stroke-width="2" />
<path d="M4752,6579 L526,821" stroke="blue" stroke-width="2" />
<path d="M3766,80 L2973,4853" stroke="blue" stroke-width="2" />
<path d="M3510,1094 L6393,6685" stroke="blue" stroke-width="2" />
<path d="M3528,6602 L4302,520" stroke="blue" stroke-width="2" />
<path d="M3290,825 L137,3118" stroke="blue" stroke-width="2" />
<path d="M1717,1435 L5941,1661" stroke="blue" stroke-width="2" />
<path d="M4522,1986 L2391,3457" stroke="blue" stroke-width="2" />
<path d="M2799,2725 L5125,6710" stroke="blue" stroke-width="2" />
<path d="M856,6179 L1138,3300" stroke="blue" stroke-width="2" />
<path d="M2407,5160 L2292,4049" stroke="blue" stroke-width="2" />
<path d="M4392,3366 L3730,2552" stroke="blue" stroke-width="2" />
<path d="M4805,1483 L2552,4504" stroke="blue" stroke-width="2" />
<path d="M5403,7192 L201,6161" stroke="blue" stroke-width="2" />
<path d="M6373,2545 L66,5272" stroke="blue" stroke-width="2" />
<path d="M4993,5567 L3560,3697" stroke="blue" stroke-width="2" />
<path d="M518,1296 L5263,3660" stroke="blue" stroke-width="2" />
<path d="M5721,5682 L706,1933" stroke="blue" stroke-width="2" />
<path d="M5924,2991 L3623,3184" stroke="blue" stroke-width="2" />
<path d="M709,1184 L2758,740" stroke="blue" stroke-width="2" />
<path d="M3797,4067 L4337,382" stroke="blue" stroke-width="2" />
<path d="M283,1344 L2813,875" stroke="blue" stroke-width="2" />
<path d="M4736,20 L5615,2697" stroke="blue" stroke-width="2" />
<path d="M5185,3435 L2876,2493" stroke="blue" stroke-width="2" />
<path d="M1117,2928 L2264,4776" stroke="blue" stroke-width="2" />
<path d="M2683,5925 L4778,3230" stroke="blue" stroke-width="2" />
<path d="M940,32 L4598,5110" stroke="blue" stroke-width="2" />
<path d="M2410,4041 L4452,2817" stroke="blue" stroke-width="2" />
<path d="M5011,2223 L3047,4696" stroke="blue" stroke-width="2" />
<path d="M4716,6487 L6416,3593" stroke="blue" stroke-width="2" />
<path d="M3604,2040 L3420,5434" stroke="blue" stroke-width="2" />
<path d="M5390,6519 L2254,2731" stroke="blue" stroke-width="2" />
<path d="M913,2360 L3540,1049" stroke="blue" stroke-width="2" />
<path d="M867,3250 L5727,273" stroke="blue" stroke-width="2" />
<path d="M3528,5649 L1118,6931" stroke="blue" stroke-width="2" />
<path d="M1721,6182 L4685,2256" stroke="blue" stroke-width="2" />
<path d="M2790,641 L5526,4140" stroke="blue" stroke-width="2" />
<path d="M1947,5432 L3474,5995" stroke="blue" stroke-width="2" />
<path d="M212,4718 L2387,978" stroke="blue" stroke-width="2" />
<path d="M987,4139 L5620,5554" stroke="blue" stroke-width="2" />
<path d="M6332,2416 L5176,4153" stroke="blue" stroke-width="2" />
<path d="M3774,2872 L5487,4310" stroke="blue" stroke-width="2" />
<path d="M528,5990 L6409,2534" stroke="blue" stroke-width="2" />
<path d="M5591,6630 L4156,5965" stroke="blue" stroke-width="2" />
<path d="M4345,3688 L5207,3310" stroke="blue" stroke-width="2" />
<path d="M788,747 L194,6379" stroke="blue" stroke-width="2" />
<path d="M5556,3645 L3289,1212" stroke="blue" stroke-width="2" />
<path d="M5845,2218 L4060,6687" stroke="blue" stroke-width="2" />
<path d="M527,4026 L782,2430" stroke="blue" stroke-width="2" />
<path d="M1097,1015 L5783,557" stroke="blue" stroke-width="2" />
<path d="M2996,2775 L5682,4935" stroke="blue" stroke-width="2" />
<path d="M3674,2671 L5831,5927" stroke="blue" stroke-width="2" />
<path d="M397,6059 L3523,660" stroke="blue" stroke-width="2" />
<path d="M5362,6774 L875,3139" stroke="blue" stroke-width="2" />
<path d="M1378,5560 L5415,2602" stroke="blue" stroke-width="2" />
<path d="M3920,4524 L4113,1843" stroke="blue" stroke-width="2" />
<path d="M3666,1847 L6114,1961" stroke="blue" stroke-width="2" />
<path d="M2057,4295 L4615,2039" stroke="blue" stroke-width="2" />
<path d="M3416,3454 L1232,3998" stroke="blue" stroke-width="2" />
<path d="M2717,3901 L1674,4105" stroke="blue" stroke-width="2" />
<path d="M3696,1541 L4267,7246" stroke="blue" stroke-width="2" />
<path d="M2904,1418 L3417,6190" stroke="blue" stroke-width="2" />
<path d="M5832,4592 L923,3494" stroke="blue" stroke-width="2" />
<path d="M6223,4628 L5931,6724" stroke="blue" stroke-width="2" />
<path d="M4594,1408 L5141,1906" stroke="blue" stroke-width="2" />
<path d="M6200,1078 L4994,3881" stroke="blue" stroke-width="2" />
<path d="M1613,6396 L2342,3787" stroke="blue" stroke-width="2" />
<path d="M927,3934 L5193,2738" stroke="blue" stroke-width="2" />
<path d="M280,5283 L5181,7124" stroke="blue" stroke-width="2" />
<path d="M5534,90 L5342,4980" stroke="blue" stroke-width="2" />
<path d="M2495,2063 L950,3082" stroke="blue" stroke-width="2" />
<path d="M1706,123 L5200,1925" stroke="blue" stroke-width="2" />
<path d="M2439,6945 L856,2634" stroke="blue" stroke-width="2" />
<path d="M3520,5988 L417,6513" stroke="blue" stroke-width="2" />
<path d="M6318,7204 L3516,215" stroke="blue" stroke-width="2" />
<path d="M3846,3797 L2015,6553" stroke="blue" stroke-width="2" />
<path d="M5684,3593 L3635,3667" stroke="blue" stroke-width="2" />
<path d="M1700,2013 L5797,5049" stroke="blue" stroke-width="2" />
<path d="M5340,5281 L1108,4332" stroke="blue" stroke-width="2" />
<path d="M5000,5065 L652,3311" stroke="blue" stroke-width="2" />
<path d="M1529,4311 L3844,5058" stroke="blue" stroke-width="2" />
<path d="M5785,2402 L5575,6991" stroke="blue" stroke-width="2" />
<path d="M1426,4852 L5528,3758" stroke="blue" stroke-width="2" />
<path d="M1237,3973 L2894,1312" stroke="blue" stroke-width="2" />
<path d="M3958,446 L4234,2630" stroke="blue" stroke-width="2" />
<path d="M1555,2246 L583,1155" stroke="blue" stroke-width="2" />
<path d="M3589,2669 L6052,2795" stroke="blue" stroke-width="2" />
<path d="M1131,921 L2102,3234" stroke="blue" stroke-width="2" />
<path d="M6005,631 L2528,3512" stroke="blue" stroke-width="2" />
<path d="M4443,648 L5564,4026" stroke="blue" stroke-width="2" />
<path d="M3655,6157 L643,1031" stroke="blue" stroke-width="2" />
<path d="M2312,2520 L4613,640" stroke="blue" stroke-width="2" />
<path d="M600,6420 L1639,6512" stroke="blue" stroke-width="2" />
<path d="M1185,188 L4925,5485" stroke="blue" stroke-width="2" />
<path d="M2481,1385 L6136,3706" stroke="blue" stroke-width="2" />
<path d="M946,3899 L3460,5229" stroke="blue" stroke-width="2" />
<path d="M2356,1493 L1322,7216" stroke="blue" stroke-width="2" />
<path d="M1064,6909 L5074,1175" stroke="blue" stroke-width="2" />
<path d="M2296,2922 L2882,1472" stroke="blue" stroke-width="2" />
<path d="M5131,2763 L817,3629" stroke="blue" stroke-width="2" />
<path d="M988,6487 L6201,289" stroke="blue" stroke-width="2" />
<path d="M4263,1564 L4424,6124" stroke="blue" stroke-width="2" />
<path d="M4352,6844 L1393,2417" stroke="blue" stroke-width="2" />
<path d="M6242,7209 L5164,5185" stroke="blue" stroke-width="2" />
<path d="M1123,2903 L1960,2782" stroke="blue" stroke-width="2" />
<path d="M4294,103 L3365,8" stroke="blue" stroke-width="2" />
<path d="M858,3794 L953,3916" stroke="blue" stroke-width="2" />
<path d="M5385,4444 L2415,4979" stroke="blue" stroke-width="2" />
<path d="M4751,4374 L3355,1637" stroke="blue" stroke-width="2" />
<path d="M4222,5478 L2592,6924" stroke="blue" stroke-width="2" />
<path d="M5695,4158 L3275,3756" stroke="blue" stroke-width="2" />
<path d="M132,2487 L1633,2536" stroke="blue" stroke-width="2" />
<path d="M3205,1465 L2916,1087" stroke="blue" stroke-width="2" />
<path d="M3612,4094 L5657,3185" stroke="blue" stroke-width="2" />
<path d="M3742,2384 L2470,2788" stroke="blue" stroke-width="2" />
<path d="M5868,2891 L3421,6366" stroke="blue" stroke-width="2" />
<path d="M5158,1236 L5012,885" stroke="blue" stroke-width="2" />
<path d="M4064,6446 L3708,3029" stroke="blue" stroke-width="2" />
<path d="M2050,5128 L105,4532" stroke="blue" stroke-width="2" />
<path d="M926,5192 L4872,5722" stroke="blue" stroke-width="2" />
<path d="M3396,6336 L2981,344" stroke="blue" stroke-width="2" />
<path d="M2875,3641 L1891,5596" stroke="blue" stroke-width="2" />
<path d="M2950,5670 L1288,4824" stroke="blue" stroke-width="2" />
<path d="M893,3648 L3854,5333" stroke="blue" stroke-width="2" />
<path d="M166,2526 L2530,5107" stroke="blue" stroke-width="2" />
<path d="M2181,6234 L5474,5219" stroke="blue" stroke-width="2" />
<path d="M5446,205 L2589,2334" stroke="blue" stroke-width="2" />
<path d="M5853,4314 L5990,3404" stroke="blue" stroke-width="2" />
<path d="M4944,1201 L1044,633" stroke="blue" stroke-width="2" />
<path d="M2825,6852 L611,684" stroke="blue" stroke-width="2" />
<path d="M3509,5467 L2305,2396" stroke="blue" stroke-width="2" />
<path d="M3207,1362 L1041,3727" stroke="blue" stroke-width="2" />
<path d="M6226,1179 L6054,3388" stroke="blue" stroke-width="2" />
<path d="M2682,1414 L6304,4246" stroke="blue" stroke-width="2" />
<path d="M2087,666 L5181,3516" stroke="blue" stroke-width="2" />
<path d="M4750,7243 L1540,5753" stroke="blue" stroke-width="2" />
<path d="M1195,2081 L1038,2582" stroke="blue" stroke-width="2" />
<path d="M5918,6648 L813,769" stroke="blue" stroke-width="2" />
<path d="M4129,5519 L4566,4078" stroke="blue" stroke-width="2" />
<path d="M263,2306 L5956,1368" stroke="blue" stroke-width="2" />
<path d="M6237,7177 L1741,1501" stroke="blue" stroke-width="2" />
<path d="M2225,6098 L4091,6174" stroke="blue" stroke-width="2" />
<path d="M679,1260 L3649,5557" stroke="blue" stroke-width="2" />
<path d="M4613,298 L1370,5321" stroke="blue" stroke-width="2" />
<path d="M3562,3706 L6341,972" stroke="blue" stroke-width="2" />
<path d="M617,1028 L4897,4911" stroke="blue" stroke-width="2" />
<path d="M555,4011 L3144,1229" stroke="blue" stroke-width="2" />
<path d="M6197,4324 L3192,7103" stroke="blue" stroke-width="2" />
<path d="M1784,5274 L5961,1453" stroke="blue" stroke-width="2" />
<path d="M2898,1546 L4965,3279" stroke="blue" stroke-width="2" />
<path d="M2627,3105 L3436,6154" stroke="blue" stroke-width="2" />
<path d="M3254,4078 L5973,4738" stroke="blue" stroke-width="2" />
<path d="M5958,2638 L6404,6533" stroke="blue" stroke-width="2" />
<path d="M2145,2149 L3786,3214" stroke="blue" stroke-width="2" />
<path d="M1610,4214 L4481,4551" stroke="blue" stroke-width="2" />
<path d="M4919,2101 L533,539" stroke="blue" stroke-width="2" />
<path d="M77,1217 L3072,5623" stroke="blue" stroke-width="2" />
<path d="M3620,1970 L1533,327" stroke="blue" stroke-width="2" />
<path d="M806,4475 L89,5550" stroke="blue" stroke-width="2" />
<path d="M631,2990 L552,3672" stroke="blue" stroke-width="2" />
<path d="M4994,2615 L2591,4465" stroke="blue" stroke-width="2" />
<path d="M597,2668 L6215,1732" stroke="blue" stroke-width="2" />
<path d="M17,5672 L4447,1147" stroke="blue" stroke-width="2" />
<path d="M4654,4799 L3526,4164" stroke="blue" stroke-width="2" />
<path d="M5837,4990 L2792,4572" stroke="blue" stroke-width="2" />
<path d="M4768,5490 L4953,3418" stroke="blue" stroke-width="2" />
<path d="M1258,2919 L5295,4035" stroke="blue" stroke-width="2" />
<path d="M804,6874 L1455,5115" stroke="blue" stroke-width="2" />
<path d="M2024,2958 L804,5278" stroke="blue" stroke-width="2" />
<path d="M3456,2727 L876,1058" stroke="blue" stroke-width="2" />
<path d="M2288,786 L2602,6000" stroke="blue" stroke-width="2" />
<path d="M3796,2796 L3484,3639" stroke="blue" stroke-width="2" />
<path d="M1517,6007 L1373,3270" stroke="blue" stroke-width="2" />
<path d="M3893,621 L4070,5299" stroke="blue" stroke-width="2" />
<path d="M3437,2647 L1611,3624" stroke="blue" stroke-width="2" />
<path d="M2038,7045 L3187,301" stroke="blue" stroke-width="2" />
<path d="M1188,744 L3027,2306" stroke="blue" stroke-width="2" />
<path d="M6115,622 L4711,216" stroke="blue" stroke-width="2" />
<path d="M101,1603 L4031,2845" stroke="blue" stroke-width="2" />
<path d="M6277,4989 L6037,1536" stroke="blue" stroke-width="2" />
<path d="M4387,511 L318,2889" stroke="blue" stroke-width="2" />
<path d="M2907,655 L1099,6793" stroke="blue" stroke-width="2" />
<path d="M1200,5539 L479,4181" stroke="blue" stroke-width="2" />
<path d="M126,4157 L1273,2570" stroke="blue" stroke-width="2" />
<path d="M4614,2265 L4771,5435" stroke="blue" stroke-width="2" />
<path d="M972,5800 L1639,3435" stroke="blue" stroke-width="2" />
<path d="M2307,807 L5384,40" stroke="blue" stroke-width="2" />
<path d="M6359,206 L4008,1015" stroke="blue" stroke-width="2" />
<path d="M3484,6094 L433,2749" stroke="blue" stroke-width="2" />
<path d="M3024,3859 L4486,1632" stroke="blue" stroke-width="2" />
<path d="M4616,2588 L1029,2434" stroke="blue" stroke-width="2" />
<path d="M2482,4094 L6423,2576" stroke="blue" stroke-width="2" />
<path d="M5724,6055 L800,1699" stroke="blue" stroke-width="2" />
<path d="M2527,3425 L3746,1907" stroke="blue" stroke-width="2" />
<path d="M594,3867 L3230,4384" stroke="blue" stroke-width="2" />
<path d="M4439,1221 L4158,957" stroke="blue" stroke-width="2" />
<path d="M4887,2901 L2316,862" stroke="blue" stroke-width="2" />
<path d="M1598,3786 L2311,517" stroke="blue" stroke-width="2" />
<path d="M1366,6402 L1083,3011" stroke="blue" stroke-width="2" />
<path d="M3051,78 L979,5766" stroke="blue" stroke-width="2" />
<path d="M905,3608 L3291,3233" stroke="blue" stroke-width="2" />
<path d="M0,0 L6467,0" stroke="red" stroke-width="10" />
<path d="M6467,0 L6467,7276" stroke="red" stroke-width="10" />
<path d="M0,7276 L6467,7276" stroke="red" stroke-width="10" />
<path d="M0,7276 L0,0" stroke="red" stroke-width="10" />
</svg>