<?xml version="1.0" encoding="UTF-8"?>
<svg xmlns="http://www.w3.org/2000/svg" xmlns:xlink="http://www.w3.org/1999/xlink"
     width="10000" height="10000" viewBox="0 0 10000 10000">
<defs>
</defs>
<path d="M4683,2053 L1069,1318" stroke="blue" stroke-width="2" />
<path d="M7908,1722 L3088,1666" stroke="blue" stroke-width="2" />
<path d="M8509,441 L5434,470" stroke="blue" stroke-width="2" />
<path d="M5135,2028 L3325,472" stroke="blue" stroke-width="2" />
<path d="M5568,2382 L8792,191" stroke="blue" stroke-width="2" />
<path d="M5022,234 L323,61" stroke="blue" stroke-width="2" />
<path d="M595,485 L4750,682" stroke="blue" stroke-width="2" />
<path d="M6087,49 L4691,609" stroke="blue" stroke-width="2" />
<path d="M8731,1556 L901,223" stroke="blue" stroke-width="2" />
<path d="M2901,680 L1957,2552" stroke="blue" stroke-width="2" />
<path d="M7709,1756 L1717,1865" stroke="blue" stroke-width="2" />
<path d="M7498,794 L6640,551" stroke="blue" stroke-width="2" />
<path d="M6743,924 L1246,987" stroke="blue" stroke-width="2" />
<path d="M9364,1619 L1681,945" stroke="blue" stroke-width="2" />
<path d="M3881,2365 L9801,117" stroke="blue" stroke-width="2" />
<path d="M6316,21 L7145,444" stroke="blue" stroke-width="2" />
<path d="M5253,711 L4655,34" stroke="blue" stroke-width="2" />
<path d="M9122,29 L7634,17" stroke="blue" stroke-width="2" />
<path d="M2951,1954 L7352,226" stroke="blue" stroke-width="2" />
<path d="M6899,680 L9021,268" stroke="blue" stroke-width="2" />
<path d="M3990,2617 L8273,253" stroke="blue" stroke-width="2" />
<path d="M5638,2104 L8038,446" stroke="blue" stroke-width="2" />
<path d="M967,2095 L3861,1780" stroke="blue" stroke-width="2" />
<path d="M607,294 L9385,546" stroke="blue" stroke-width="2" />
<path d="M3183,188 L6710,1590" stroke="blue" stroke-width="2" />
<path d="M5968,1897 L1028,1439" stroke="blue" stroke-width="2" />
<path d="M5771,2583 L2993,2317" stroke="blue" stroke-width="2" />
<path d="M9311,194 L7079,97" stroke="blue" stroke-width="2" />
<path d="M366,160 L7122,202" stroke="blue" stroke-width="2" />
<path d="M8302,655 L2998,1450" stroke="blue" stroke-width="2" />
<path d="M802,233 L6645,1238" stroke="blue" stroke-width="2" />
<path d="M5830,1219 L5436,1138" stroke="blue" stroke-width="2" />
<path d="M2095,643 L773,1801" stroke="blue" stroke-width="2" />
<path d="M1141,1552 L7603,1298" stroke="blue" stroke-width="2" />
<path d="M1401,995 L2795,1698" stroke="blue" stroke-width="2" />
<path d="M7591,1569 L5522,2413" stroke="blue" stroke-width="2" />
<path d="M2880,1724 L3031,1560" stroke="blue" stroke-width="2" />
<path d="M7381,1097 L3451,2243" stroke="blue" stroke-width="2" />
<path d="M7947,446 L4826,1198" stroke="blue" stroke-width="2" />
<path d="M8260,1892 L5692,752" stroke="blue" stroke-width="2" />
<path d="M3114,1791 L8604,2320" stroke="blue" stroke-width="2" />
<path d="M2924,1961 L6961,1286" stroke="blue" stroke-width="2" />
<path d="M5236,1953 L4778,176" stroke="blue" stroke-width="2" />
<path d="M6238,1649 L4384,923" stroke="blue" stroke-width="2" />
<path d="M4821,1100 L5280,572" stroke="blue" stroke-width="2" />
<path d="M2958,1182 L185,534" stroke="blue" stroke-width="2" />
<path d="M777,1507 L8167,1357" stroke="blue" stroke-width="2" />
<path d="M2559,666 L7429,2029" stroke="blue" stroke-width="2" />
<path d="M3019,593 L1611,1348" stroke="blue" stroke-width="2" />
<path d="M3484,389 L9692,637" stroke="blue" stroke-width="2" />
<path d="M1126,2213 L244,1515" stroke="blue" stroke-width="2" />
<path d="M9147,1190 L1969,1771" stroke="blue" stroke-width="2" />
<path d="M1410,1013 L4771,1879" stroke="blue" stroke-width="2" />
<path d="M2211,2319 L3566,560" stroke="blue" stroke-width="2" />
<path d="M5372,880 L5466,882" stroke="blue" stroke-width="2" />
<path d="M2618,327 L6373,2127" stroke="blue" stroke-width="2" />
<path d="M4407,409 L3940,1647" stroke="blue" stroke-width="2" />
<path d="M6612,1681 L4318,1386" stroke="blue" stroke-width="2" />
<path d="M5509,1671 L7403,2461" stroke="blue" stroke-width="2" />
<path d="M2327,1831 L7763,784" stroke="blue" stroke-width="2" />
<path d="M5755,1902 L2275,2408" stroke="blue" stroke-width="2" />
<path d="M476,728 L9550,71" stroke="blue" stroke-width="2" />
<path d="M39,382 L4779,525" stroke="blue" stroke-width="2" />
<path d="M6987,19 L4992,1003" stroke="blue" stroke-width="2" />
<path d="M7538,93 L8935,1400" stroke="blue" stroke-width="2" />
<path d="M617,98 L8548,476" stroke="blue" stroke-width="2" />
<path d="M7419,2032 L1474,157" stroke="blue" stroke-width="2" />
<path d="M1130,972 L7302,822" stroke="blue" stroke-width="2" />
<path d="M5876,835 L8895,2079" stroke="blue" stroke-width="2" />
<path d="M605,2211 L5392,2540" stroke="blue" stroke-width="2" />
<path d="M8316,2190 L4977,1151" stroke="blue" stroke-width="2" />
<path d="M3714,2207 L1095,2151" stroke="blue" stroke-width="2" />
<path d="M1933,572 L2341,1662" stroke="blue" stroke-width="2" />
<path d="M9354,2515 L1660,1289" stroke="blue" stroke-width="2" />
<path d="M8030,1831 L4029,428" stroke="blue" stroke-width="2" />
<path d="M7085,873 L979,2179" stroke="blue" stroke-width="2" />
<path d="M364,1761 L7481,860" stroke="blue" stroke-width="2" />
<path d="M6465,2626 L3113,990" stroke="blue" stroke-width="2" />
<path d="M2491,1870 L7374,392" stroke="blue" stroke-width="2" />
<path d="M8705,2100 L2536,2094" stroke="blue" stroke-width="2" />
<path d="M1261,207 L7096,1187" stroke="blue" stroke-width="2" />
<path d="M6797,1749 L5520,706" stroke="blue" stroke-width="2" />
<path d="M1015,415 L8736,2405" stroke="blue" stroke-width="2" />
<path d="M945,2105 L3003,1218" stroke="blue" stroke-width="2" />
<path d="M7697,1846 L2757,2328" stroke="blue" stroke-width="2" />
<path d="M5384,1394 L8331,838" stroke="blue" stroke-width="2" />
<path d="M4718,1984 L8908,604" stroke="blue" stroke-width="2" />
<path d="M2516,2585 L9652,1862" stroke="blue" stroke-width="2" />
<path d="M7216,1949 L2060,95" stroke="blue" stroke-width="2" />
<path d="M5467,2254 L7000,839" stroke="blue" stroke-width="2" />
<path d="M3816,345 L5223,2223" stroke="blue" stroke-width="2" />
<path d="M7084,2553 L1595,1165" stroke="blue" stroke-width="2" />
<path d="M8846,2407 L8038,1819" stroke="blue" stroke-width="2" />
<path d="M5587,1878 L5226,2608" stroke="blue" stroke-width="2" />
<path d="M2911,391 L2456,2516" stroke="blue" stroke-width="2" />
<path d="M6046,1508 L5625,317" stroke="blue" stroke-width="2" />
<path d="M5582,1363 L750,689" stroke="blue" stroke-width="2" />
<path d="M3353,1493 L5951,1999" stroke="blue" stroke-width="2" />
<path d="M9665,2136 L2115,2155" stroke="blue" stroke-width="2" />
<path d="M3856,627 L1731,573" stroke="blue" stroke-width="2" />
<path d="M2540,1586 L7415,1594" stroke="blue" stroke-width="2" />
<path d="M3161,2043 L9859,2588" stroke="blue" stroke-width="2" />
<path d="M6417,767 L1247,2564" stroke="blue" stroke-width="2" />
<path d="M7705,1244 L1943,389" stroke="blue" stroke-width="2" />
<path d="M5349,533 L5573,1898" stroke="blue" stroke-width="2" />
<path d="M3410,1486 L4235,133" stroke="blue" stroke-width="2" />
<path d="M8907,534 L2804,896" stroke="blue" stroke-width="2" />
<path d="M3553,1734 L1885,1114" stroke="blue" stroke-width="2" />
<path d="M1149,1020 L2608,726" stroke="blue" stroke-width="2" />
<path d="M6446,983 L6347,650" stroke="blue" stroke-width="2" />
<path d="M9218,2408 L6192,774" stroke="blue" stroke-width="2" />
<path d="M1435,25 L4128,851" stroke="blue" stroke-width="2" />
<path d="M4253,1465 L5661,245" stroke="blue" stroke-width="2" />
<path d="M2928,2492 L2198,1025" stroke="blue" stroke-width="2" />
<path d="M2600,2580 L5343,932" stroke="blue" stroke-width="2" />
<path d="M8535,1386 L7142,1369" stroke="blue" stroke-width="2" />
<path d="M2963,1556 L3735,1413" stroke="blue" stroke-width="2" />
<path d="M628,387 L3035,2074" stroke="blue" stroke-width="2" />
<path d="M7110,2 L9828,1531" stroke="blue" stroke-width="2" />
<path d="M3907,395 L2577,937" stroke="blue" stroke-width="2" />
<path d="M9352,1673 L9550,1663" stroke="blue" stroke-width="2" />
<path d="M3460,2220 L4964,1414" stroke="blue" stroke-width="2" />
<path d="M6913,2593 L8463,945" stroke="blue" stroke-width="2" />
<path d="M1454,1476 L4662,2359" stroke="blue" stroke-width="2" />
<path d="M1871,844 L4987,1625" stroke="blue" stroke-width="2" />
<path d="M6386,1495 L4218,1648" stroke="blue" stroke-width="2" />
<path d="M1888,533 L2371,323" stroke="blue" stroke-width="2" />
<path d="M5802,2383 L1154,217" stroke="blue" stroke-width="2" />
<path d="M4886,2209 L193,1753" stroke="blue" stroke-width="2" />
<path d="M8702,604 L1150,1472" stroke="blue" stroke-width="2" />
<path d="M941,425 L5383,216" stroke="blue" stroke-width="2" />
<path d="M7756,2203 L6586,2071" stroke="blue" stroke-width="2" />
<path d="M1246,68 L1412,664" stroke="blue" stroke-width="2" />
<path d="M1799,795 L8089,2212" stroke="blue" stroke-width="2" />
<path d="M5184,125 L2251,509" stroke="blue" stroke-width="2" />
<path d="M7485,1510 L4478,2475" stroke="blue" stroke-width="2" />
<path d="M6174,395 L2476,2525" stroke="blue" stroke-width="2" />
<path d="M9417,1828 L9624,2035" stroke="blue" stroke-width="2" />
<path d="M2178,2586 L3919,2259" stroke="blue" stroke-width="2" />
<path d="M2266,428 L3299,1263" stroke="blue" stroke-width="2" />
<path d="M310,729 L3690,1900" stroke="blue" stroke-width="2" />
<path d="M2278,438 L2833,599" stroke="blue" stroke-width="2" />
<path d="M9219,689 L6929,371" stroke="blue" stroke-width="2" />
<path d="M3978,420 L5572,1443" stroke="blue" stroke-width="2" />
<path d="M752,1578 L7247,644" stroke="blue" stroke-width="2" />
<path d="M4198,1037 L9128,1259" stroke="blue" stroke-width="2" />
<path d="M8241,1846 L5259,414" stroke="blue" stroke-width="2" />
<path d="M2860,1402 L3135,1936" stroke="blue" stroke-width="2" />
<path d="M1461,2223 L9421,1527" stroke="blue" stroke-width="2" />
<path d="M9456,1970 L6850,623" stroke="blue" stroke-width="2" />
<path d="M2116,1917 L1084,330" stroke="blue" stroke-width="2" />
<path d="M3553,361 L4597,724" stroke="blue" stroke-width="2" />
<path d="M3542,2231 L6572,576" stroke="blue" stroke-width="2" />
<path d="M6594,1075 L9282,1409" stroke="blue" stroke-width="2" />
<path d="M6463,2383 L8679,1620" stroke="blue" stroke-width="2" />
<path d="M1064,2434 L5800,2007" stroke="blue" stroke-width="2" />
<path d="M3851,77 L528,1614" stroke="blue" stroke-width="2" />
<path d="M6884,967 L5967,67" stroke="blue" stroke-width="2" />
<path d="M6743,1426 L6680,2385" stroke="blue" stroke-width="2" />
<path d="M1001,2288 L8778,662" stroke="blue" stroke-width="2" />
<path d="M6440,189 L3728,584" stroke="blue" stroke-width="2" />
<path d="M8748,1428 L6507,357" stroke="blue" stroke-width="2" />
<path d="M7884,373 L270,1888" stroke="blue" stroke-width="2" />
<path d="M1466,1021 L20,518" stroke="blue" stroke-width="2" />
<path d="M3202,737 L9238,450" stroke="blue" stroke-width="2" />
<path d="M2777,776 L6366,1595" stroke="blue" stroke-width="2" />
<path d="M1161,888 L2868,1510" stroke="blue" stroke-width="2" />
<path d="M1806,1018 L1600,1135" stroke="blue" stroke-width="2" />
<path d="M4304,1623 L6676,1190" stroke="blue" stroke-width="2" />
<path d="M5734,2178 L2301,2351" stroke="blue" stroke-width="2" />
<path d="M7295,85 L5784,2154" stroke="blue" stroke-width="2" />
<path d="M6169,2052 L3204,2118" stroke="blue" stroke-width="2" />
<path d="M7867,1061 L8017,2532" stroke="blue" stroke-width="2" />
<path d="M8177,1025 L689,1165" stroke="blue" stroke-width="2" />
<path d="M2530,898 L9302,99" stroke="blue" stroke-width="2" />
<path d="M1944,526 L776,260" stroke="blue" stroke-width="2" />
<path d="M7381,1540 L3038,1031" stroke="blue" stroke-width="2" />
<path d="M564,182 L8218,1846" stroke="blue" stroke-width="2" />
<path d="M6471,1876 L6662,616" stroke="blue" stroke-width="2" />
<path d="M6543,1642 L1920,912" stroke="blue" stroke-width="2" />
<path d="M4914,1874 L2784,803" stroke="blue" stroke-width="2" />
<path d="M6031,493 L6049,2337" stroke="blue" stroke-width="2" />
<path d="M5965,1822 L782,2075" stroke="blue" stroke-width="2" />
<path d="M9083,374 L6250,123" stroke="blue" stroke-width="2" />
<path d="M5676,1589 L1967,2084" stroke="blue" stroke-width="2" />
<path d="M7965,2105 L1347,1391" stroke="blue" stroke-width="2" />
<path d="M3974,294 L4185,1649" stroke="blue" stroke-width="2" />
<path d="M8775,1114 L1879,223" stroke="blue" stroke-width="2" />
<path d="M8186,577 L7341,1292" stroke="blue" stroke-width="2" />
<path d="M1978,1140 L3278,1738" stroke="blue" stroke-width="2" />
<path d="M24,1571 L9793,1615" stroke="blue" stroke-width="2" />
<path d="M1566,608 L398,59" stroke="blue" stroke-width="2" />
<path d="M4600,1881 L4580,1537" stroke="blue" stroke-width="2" />
<path d="M3579,1809 L7491,1630" stroke="blue" stroke-width="2" />
<path d="M9376,1997 L4666,2088" stroke="blue" stroke-width="2" />
<path d="M901,1724 L3524,2237" stroke="blue" stroke-width="2" />
<path d="M223,1388 L1112,1345" stroke="blue" stroke-width="2" />
<path d="M3054,905 L2979,1046" stroke="blue" stroke-width="2" />
<path d="M3333,2281 L2589,574" stroke="blue" stroke-width="2" />
<path d="M2600,1871 L7175,1988" stroke="blue" stroke-width="2" />
<path d="M7475,2630 L8781,577" stroke="blue" stroke-width="2" />
<path d="M3820,2604 L9556,1940" stroke="blue" stroke-width="2" />
<path d="M768,1223 L1366,1664" stroke="blue" stroke-width="2" />
<path d="M8735,1747 L6826,433" stroke="blue" stroke-width="2" />
<path d="M6808,2376 L487,933" stroke="blue" stroke-width="2" />
<path d="M7226,907 L7314,1917" stroke="blue" stroke-width="2" />
<path d="M6703,1461 L1177,1436" stroke="blue" stroke-width="2" />
<path d="M9762,549 L3483,1217" stroke="blue" stroke-width="2" />
<path d="M6336,1083 L3659,1496" stroke="blue" stroke-width="2" />
<path d="M7363,1276 L8815,844" stroke="blue" stroke-width="2" />
<path d="M3607,395 L5701,359" stroke="blue" stroke-width="2" />
<path d="M1121,1521 L7234,507" stroke="blue" stroke-width="2" />
<path d="M4110,357 L4038,1810" stroke="blue" stroke-width="2" />
<path d="M3006,1981 L1965,1983" stroke="blue" stroke-width="2" />
<path d="M6274,1090 L6439,2344" stroke="blue" stroke-width="2" />
<path d="M5729,1372 L5278,200" stroke="blue" stroke-width="2" />
<path d="M9573,202 L5818,1667" stroke="blue" stroke-width="2" />
<path d="M8653,812 L9806,2431" stroke="blue" stroke-width="2" />
<path d="M5957,1656 L1853,983" stroke="blue" stroke-width="2" />
<path d="M5313,2087 L922,745" stroke="blue" stroke-width="2" />
<path d="M7228,504 L3935,1138" stroke="blue" stroke-width="2" />
<path d="M2887,2371 L3325,637" stroke="blue" stroke-width="2" />
<path d="M9837,204 L1411,612" stroke="blue" stroke-width="2" />
<path d="M4620,2489 L7882,1963" stroke="blue" stroke-width="2" />
<path d="M9682,1808 L2670,1233" stroke="blue" stroke-width="2" />
<path d="M268,1902 L809,2293" stroke="blue" stroke-width="2" />
<path d="M5947,2192 L1004,714" stroke="blue" stroke-width="2" />
<path d="M5332,2449 L1663,159" stroke="blue" stroke-width="2" />
<path d="M1831,2511 L9344,315" stroke="blue" stroke-width="2" />
<path d="M9433,760 L7757,1862" stroke="blue" stroke-width="2" />
<path d="M5337,1722 L8653,596" stroke="blue" stroke-width="2" />
<path d="M3839,905 L9828,1453" stroke="blue" stroke-width="2" />
<path d="M4141,901 L9567,1271" stroke="blue" stroke-width="2" />
<path d="M7166,836 L881,947" stroke="blue" stroke-width="2" />
<path d="M9601,103 L378,1608" stroke="blue" stroke-width="2" />
<path d="M8778,1008 L1966,2318" stroke="blue" stroke-width="2" />
<path d="M8686,1767 L5571,859" stroke="blue" stroke-width="2" />
<path d="M1384,327 L5706,1893" stroke="blue" stroke-width="2" />
<path d="M1269,345 L6763,2516" stroke="blue" stroke-width="2" />
<path d="M8799,1143 L3726,1216" stroke="blue" stroke-width="2" />
<path d="M9329,1795 L6296,1900" stroke="blue" stroke-width="2" />
<path d="M5932,819 L8187,1715" stroke="blue" stroke-width="2" />
<path d="M2647,1085 L6071,1840" stroke="blue" stroke-width="2" />
<path d="M4425,2241 L1670,1294" stroke="blue" stroke-width="2" />
<path d="M9519,1144 L832,818" stroke="blue" stroke-width="2" />
<path d="M7867,1483 L6035,2053" stroke="blue" stroke-width="2" />
<path d="M1480,375 L1889,880" stroke="blue" stroke-width="2" />
<path d="M6261,1197 L6982,1950" stroke="blue" stroke-width="2" />
<path d="M8380,1837 L5725,269" stroke="blue" stroke-width="2" />
<path d="M1768,2613 L6285,2407" stroke="blue" stroke-width="2" />
<path d="M9347,1225 L5863,2300" stroke="blue" stroke-width="2" />
<path d="M5528,1122 L3839,900" stroke="blue" stroke-width="2" />
<path d="M1204,2387 L3893,1136" stroke="blue" stroke-width="2" />
<path d="M8260,2455 L4298,727" stroke="blue" stroke-width="2" />
<path d="M8103,641 L4024,1120" stroke="blue" stroke-width="2" />
<path d="M7914,439 L4547,379" stroke="blue" stroke-width="2" />
<path d="M4278,1427 L3646,1249" stroke="blue" stroke-width="2" />
<path d="M8810,2077 L1693,333" stroke="blue" stroke-width="2" />
<path d="M6287,2329 L2680,2457" stroke="blue" stroke-width="2" />
<path d="M7585,1 L497,2210" stroke="blue" stroke-width="2" />
<path d="M5733,2465 L9286,178" stroke="blue" stroke-width="2" />
<path d="M5971,1019 L1164,1754" stroke="blue" stroke-width="2" />
<path d="M74,1801 L3210,187" stroke="blue" stroke-width="2" />
<path d="M7521,1628 L1754,136" stroke="blue" stroke-width="2" />
<path d="M227,453 L2917,2199" stroke="blue" stroke-width="2" />
<path d="M669,1420 L8593,341" stroke="blue" stroke-width="2" />
<path d="M7427,714 L5100,845" stroke="blue" stroke-width="2" />
<path d="M4214,151 L2525,1980" stroke="blue" stroke-width="2" />
<path d="M4769,559 L365,1501" stroke="blue" stroke-width="2" />
<path d="M2295,1015 L9750,319" stroke="blue" stroke-width="2" />
<path d="M989,1077 L2897,710" stroke="blue" stroke-width="2" />
<path d="M6597,1242 L6277,2612" stroke="blue" stroke-width="2" />
<path d="M1803,341 L5038,1127" stroke="blue" stroke-width="2" />
<path d="M6983,1225 L3691,1979" stroke="blue" stroke-width="2" />
<path d="M1613,2611 L4413,1868" stroke="blue" stroke-width="2" />
<path d="M509,2507 L8233,1297" stroke="blue" stroke-width="2" />
<path d="M601,1789 L5161,579" stroke="blue" stroke-width="2" />
<path d="M811,794 L8600,2513" stroke="blue" stroke-width="2" />
<path d="M537,1077 L6373,215" stroke="blue" stroke-width="2" />
<path d="M4880,760 L229,1226" stroke="blue" stroke-width="2" />
<path d="M9620,2628 L6372,1817" stroke="blue" stroke-width="2" />
<path d="M1463,568 L2929,162" stroke="blue" stroke-width="2" />
<path d="M4958,1594 L3795,927" stroke="blue" stroke-width="2" />
<path d="M5352,147 L1465,1474" stroke="blue" stroke-width="2" />
<path d="M100,2074 L6625,401" stroke="blue" stroke-width="2" />
<path d="M9780,1674 L7778,952" stroke="blue" stroke-width="2" />
<path d="M6750,932 L3528,2637" stroke="blue" stroke-width="2" />
<path d="M5773,2355 L1821,2481" stroke="blue" stroke-width="2" />
<path d="M6940,1273 L5043,1325" stroke="blue" stroke-width="2" />
<path d="M916,5 L9231,2618" stroke="blue" stroke-width="2" />
<path d="M4434,1382 L6614,506" stroke="blue" stroke-width="2" />
<path d="M9502,1981 L2087,327" stroke="blue" stroke-width="2" />
<path d="M9090,1670 L3194,1992" stroke="blue" stroke-width="2" />
<path d="M1121,310 L3705,2075" stroke="blue" stroke-width="2" />
<path d="M9752,1277 L8741,1239" stroke="blue" stroke-width="2" />
<path d="M3939,825 L9518,1538" stroke="blue" stroke-width="2" />
<path d="M6995,2221 L543,1267" stroke="blue" stroke-width="2" />
<path d="M2484,440 L1059,2209" stroke="blue" stroke-width="2" />
<path d="M1935,759 L269,165" stroke="blue" stroke-width="2" />
<path d="M2106,2366 L4204,1295" stroke="blue" stroke-width="2" />
<path d="M2054,1538 L9673,655" stroke="blue" stroke-width="2" />
<path d="M8954,331 L5815,66" stroke="blue" stroke-width="2" />
<path d="M5615,2382 L7554,1367" stroke="blue" stroke-width="2" />
<path d="M3311,361 L1769,2087" stroke="blue" stroke-width="2" />
<path d="M3279,2109 L4856,1845" stroke="blue" stroke-width="2" />
<path d="M4649,122 L280,1083" stroke="blue" stroke-width="2" />
<path d="M5782,1686 L376,171" stroke="blue" stroke-width="2" />
<path d="M4742,2442 L7622,2549" stroke="blue" stroke-width="2" />
<path d="M4381,1622 L5767,1582" stroke="blue" stroke-width="2" />
<path d="M4452,1704 L8228,1578" stroke="blue" stroke-width="2" />
<path d="M264,2199 L7170,1575" stroke="blue" stroke-width="2" />
<path d="M3526,2247 L5537,964" stroke="blue" stroke-width="2" />
<path d="M7357,1892 L3806,696" stroke="blue" stroke-width="2" />
<path d="M439,36 L4056,1249" stroke="blue" stroke-width="2" />
<path d="M4781,582 L74,1995" stroke="blue" stroke-width="2" />
<path d="M8345,119 L7613,2385" stroke="blue" stroke-width="2" />
<path d="M8159,2264 L3896,447" stroke="blue" stroke-width="2" />
<path d="M6464,747 L3205,1477" stroke="blue" stroke-width="2" />
<path d="M6455,1615 L3448,563" stroke="blue" stroke-width="2" />
<path d="M8748,149 L3125,1835" stroke="blue" stroke-width="2" />
<path d="M3118,606 L1528,2586" stroke="blue" stroke-width="2" />
<path d="M2095,1171 L4093,1067" stroke="blue" stroke-width="2" />
<path d="M8865,2525 L9459,1888" stroke="blue" stroke-width="2" />
<path d="M2458,224 L8952,407" stroke="blue" stroke-width="2" />
<path d="M9086,88 L7244,1742" stroke="blue" stroke-width="2" />
<path d="M2835,2585 L5336,1729" stroke="blue" stroke-width="2" />
<path d="M8016,1665 L3039,1860" stroke="blue" stroke-width="2" />
<path d="M4092,2323 L7809,1845" stroke="blue" stroke-width="2" />
<path d="M1329,600 L3924,2084" stroke="blue" stroke-width="2" />
<path d="M7199,488 L5423,1007" stroke="blue" stroke-width="2" />
<path d="M3669,2150 L1169,2348" stroke="blue" stroke-width="2" />
<path d="M9654,33 L3374,1038" stroke="blue" stroke-width="2" />
<path d="M998,1102 L7132,637" stroke="blue" stroke-width="2" />
<path d="M2833,263 L8047,1831" stroke="blue" stroke-width="2" />
<path d="M903,2597 L2467,2303" stroke="blue" stroke-width="2" />
<path d="M4558,1446 L8,1044" stroke="blue" stroke-width="2" />
<path d="M4055,2574 L5581,576" stroke="blue" stroke-width="2" />
<path d="M6104,849 L5692,2077" stroke="blue" stroke-width="2" />
<path d="M5701,2536 L4146,918" stroke="blue" stroke-width="2" />
<path d="M2368,1244 L2750,254" stroke="blue" stroke-width="2" />
<path d="M7560,2023 L4261,944" stroke="blue" stroke-width="2" />
<path d="M2589,873 L4727,1190" stroke="blue" stroke-width="2" />
<path d="M7203,187 L177,2592" stroke="blue" stroke-width="2" />
<path d="M5814,1541 L2864,1354" stroke="blue" stroke-width="2" />
<path d="M7641,327 L5883,522" stroke="blue" stroke-width="2" />
<path d="M706,775 L4991,140" stroke="blue" stroke-width="2" />
<path d="M3250,1618 L6400,638" stroke="blue" stroke-width="2" />
<path d="M21,1287 L7337,897" stroke="blue" stroke-width="2" />
<path d="M8468,942 L7969,780" stroke="blue" stroke-width="2" />
<path d="M7644,1176 L7637,711" stroke="blue" stroke-width="2" />
<path d="M8272,1299 L7823,2417" stroke="blue" stroke-width="2" />
<path d="M7800,789 L7016,1854" stroke="blue" stroke-width="2" />
<path d="M6896,2335 L1406,190" stroke="blue" stroke-width="2" />
<path d="M1376,2316 L817,1791" stroke="blue" stroke-width="2" />
<path d="M8550,1563 L1817,1247" stroke="blue" stroke-width="2" />
<path d="M7974,156 L1122,2319" stroke="blue" stroke-width="2" />
<path d="M2166,255 L204,2597" stroke="blue" stroke-width="2" />
<path d="M364,2629 L6073,1116" stroke="blue" stroke-width="2" />
<path d="M4004,88 L7113,41" stroke="blue" stroke-width="2" />
<path d="M7980,2280 L7893,2107" stroke="blue" stroke-width="2" />
<path d="M5723,621 L79,2379" stroke="blue" stroke-width="2" />
<path d="M0,0 L9864,0" stroke="red" stroke-width="10" />
<path d="M9864,0 L9864,2638" stroke="red" stroke-width="10" />
<path d="M0,2638 L9864,2638" stroke="red" stroke-width="10" />
<path d="M0,2638 L0,0" stroke="red" stroke-width="10" />
</svg>