<?xml version="1.0" encoding="UTF-8"?>
<svg xmlns="http://www.w3.org/2000/svg" xmlns:xlink="http://www.w3.org/1999/xlink"
     width="10000" height="10000" viewBox="0 0 10000 10000">
<defs>
</defs>
<path d="M2785,6048 L1505,1413" stroke="blue" stroke-width="2" />
<path d="M2152,2493 L1367,4548" stroke="blue" stroke-width="2" />
<path d="M1419,5158 L870,8922" stroke="blue" stroke-width="2" />
<path d="M765,6656 L1001,6126" stroke="blue" stroke-width="2" />
<path d="M536,6051 L1389,8850" stroke="blue" stroke-width="2" />
<path d="M1140,2151 L1954,592" stroke="blue" stroke-width="2" />
<path d="M1315,2582 L2773,8003" stroke="blue" stroke-width="2" />
<path d="M1332,8024 L1572,689" stroke="blue" stroke-width="2" />
<path d="M2564,1092 L2086,2338" stroke="blue" stroke-width="2" />
<path d="M2512,30 L2266,872" stroke="blue" stroke-width="2" />
<path d="M349,3144 L1791,4002" stroke="blue" stroke-width="2" />
<path d="M1788,4055 L2856,8797" stroke="blue" stroke-width="2" />
<path d="M1553,5215 L1500,6248" stroke="blue" stroke-width="2" />
<path d="M2904,2771 L427,3482" stroke="blue" stroke-width="2" />
<path d="M2653,3303 L2493,8918" stroke="blue" stroke-width="2" />
<path d="M481,5195 L898,8855" stroke="blue" stroke-width="2" />
<path d="M2227,4921 L190,1597" stroke="blue" stroke-width="2" />
<path d="M1462,4957 L2311,626" stroke="blue" stroke-width="2" />
<path d="M1352,5057 L1977,4492" stroke="blue" stroke-width="2" />
<path d="M1317,103 L1043,7087" stroke="blue" stroke-width="2" />
<path d="M1726,2575 L738,3719" stroke="blue" stroke-width="2" />
<path d="M112,5470 L224,6168" stroke="blue" stroke-width="2" />
<path d="M1926,964 L1652,2963" stroke="blue" stroke-width="2" />
<path d="M1803,2380 L2679,5637" stroke="blue" stroke-width="2" />
<path d="M1416,3077 L1951,3164" stroke="blue" stroke-width="2" />
<path d="M2646,3334 L280,6540" stroke="blue" stroke-width="2" />
<path d="M2855,4003 L2517,4962" stroke="blue" stroke-width="2" />
<path d="M1006,7473 L139,488" stroke="blue" stroke-width="2" />
<path d="M980,825 L1246,4342" stroke="blue" stroke-width="2" />
<path d="M56,5642 L1412,8924" stroke="blue" stroke-width="2" />
<path d="M1601,7783 L1074,8895" stroke="blue" stroke-width="2" />
<path d="M1933,3339 L235,8124" stroke="blue" stroke-width="2" />
<path d="M2837,5602 L379,2204" stroke="blue" stroke-width="2" />
<path d="M867,1989 L365,4592" stroke="blue" stroke-width="2" />
<path d="M934,3344 L1394,7264" stroke="blue" stroke-width="2" />
<path d="M1907,4391 L762,5063" stroke="blue" stroke-width="2" />
<path d="M1692,4167 L2822,6269" stroke="blue" stroke-width="2" />
<path d="M542,8690 L2012,628" stroke="blue" stroke-width="2" />
<path d="M732,2406 L936,3406" stroke="blue" stroke-width="2" />
<path d="M876,5181 L1308,711" stroke="blue" stroke-width="2" />
<path d="M2278,2747 L2355,3853" stroke="blue" stroke-width="2" />
<path d="M2442,2066 L2863,5652" stroke="blue" stroke-width="2" />
<path d="M629,7567 L2749,8971" stroke="blue" stroke-width="2" />
<path d="M1752,3601 L1383,2550" stroke="blue" stroke-width="2" />
<path d="M1250,3570 L1773,11" stroke="blue" stroke-width="2" />
<path d="M2737,8537 L845,1301" stroke="blue" stroke-width="2" />
<path d="M677,4056 L319,1505" stroke="blue" stroke-width="2" />
<path d="M1394,928 L436,3436" stroke="blue" stroke-width="2" />
<path d="M1623,1555 L1911,8119" stroke="blue" stroke-width="2" />
<path d="M1162,742 L518,427" stroke="blue" stroke-width="2" />
<path d="M2754,1798 L1563,567" stroke="blue" stroke-width="2" />
<path d="M832,1338 L398,7027" stroke="blue" stroke-width="2" />
<path d="M1409,7324 L831,7844" stroke="blue" stroke-width="2" />
<path d="M1131,255 L2408,4917" stroke="blue" stroke-width="2" />
<path d="M796,4668 L1158,3487" stroke="blue" stroke-width="2" />
<path d="M283,931 L2116,2674" stroke="blue" stroke-width="2" />
<path d="M2840,2839 L2124,5499" stroke="blue" stroke-width="2" />
<path d="M2273,8064 L608,3044" stroke="blue" stroke-width="2" />
<path d="M1814,18 L676,7895" stroke="blue" stroke-width="2" />
<path d="M1605,5042 L1545,7006" stroke="blue" stroke-width="2" />
<path d="M1758,1335 L1026,5962" stroke="blue" stroke-width="2" />
<path d="M2065,4746 L1124,3911" stroke="blue" stroke-width="2" />
<path d="M2127,1012 L575,8562" stroke="blue" stroke-width="2" />
<path d="M1507,6146 L1994,1104" stroke="blue" stroke-width="2" />
<path d="M612,333 L142,7628" stroke="blue" stroke-width="2" />
<path d="M1251,4648 L1314,1683" stroke="blue" stroke-width="2" />
<path d="M2195,3869 L1920,1171" stroke="blue" stroke-width="2" />
<path d="M2674,7179 L650,3130" stroke="blue" stroke-width="2" />
<path d="M469,8560 L1629,2968" stroke="blue" stroke-width="2" />
<path d="M1965,8724 L339,5710" stroke="blue" stroke-width="2" />
<path d="M2529,8004 L1328,2931" stroke="blue" stroke-width="2" />
<path d="M653,8619 L2326,2579" stroke="blue" stroke-width="2" />
<path d="M1752,3780 L1381,3088" stroke="blue" stroke-width="2" />
<path d="M941,6790 L1475,7502" stroke="blue" stroke-width="2" />
<path d="M711,6885 L1300,484" stroke="blue" stroke-width="2" />
<path d="M2547,4405 L199,4667" stroke="blue" stroke-width="2" />
<path d="M94,2009 L1983,4827" stroke="blue" stroke-width="2" />
<path d="M2551,5034 L551,7879" stroke="blue" stroke-width="2" />
<path d="M1842,145 L2830,423" stroke="blue" stroke-width="2" />
<path d="M2699,6274 L1597,303" stroke="blue" stroke-width="2" />
<path d="M2193,4054 L1456,6446" stroke="blue" stroke-width="2" />
<path d="M1573,162 L92,5649" stroke="blue" stroke-width="2" />
<path d="M1210,197 L1525,8288" stroke="blue" stroke-width="2" />
<path d="M507,7636 L1750,6029" stroke="blue" stroke-width="2" />
<path d="M789,6438 L2000,5033" stroke="blue" stroke-width="2" />
<path d="M1942,3588 L1182,6613" stroke="blue" stroke-width="2" />
<path d="M1917,7806 L2466,5796" stroke="blue" stroke-width="2" />
<path d="M1725,1671 L2395,5414" stroke="blue" stroke-width="2" />
<path d="M189,3319 L2233,6718" stroke="blue" stroke-width="2" />
<path d="M179,4825 L2569,2938" stroke="blue" stroke-width="2" />
<path d="M2370,2345 L554,294" stroke="blue" stroke-width="2" />
<path d="M2334,1016 L42,3933" stroke="blue" stroke-width="2" />
<path d="M2365,1847 L1248,6088" stroke="blue" stroke-width="2" />
<path d="M489,2346 L934,7122" stroke="blue" stroke-width="2" />
<path d="M1454,6681 L1360,3162" stroke="blue" stroke-width="2" />
<path d="M1385,2799 L225,4092" stroke="blue" stroke-width="2" />
<path d="M1810,3724 L45,8231" stroke="blue" stroke-width="2" />
<path d="M2074,709 L1470,6457" stroke="blue" stroke-width="2" />
<path d="M2884,5661 L341,5018" stroke="blue" stroke-width="2" />
<path d="M1202,3816 L39,5488" stroke="blue" stroke-width="2" />
<path d="M1729,2283 L1388,6413" stroke="blue" stroke-width="2" />
<path d="M2098,8905 L2154,2715" stroke="blue" stroke-width="2" />
<path d="M2631,7489 L2296,2183" stroke="blue" stroke-width="2" />
<path d="M1794,7303 L2898,6811" stroke="blue" stroke-width="2" />
<path d="M1703,7226 L977,7074" stroke="blue" stroke-width="2" />
<path d="M2270,8814 L951,550" stroke="blue" stroke-width="2" />
<path d="M1145,7788 L1754,6843" stroke="blue" stroke-width="2" />
<path d="M2118,3254 L1735,4985" stroke="blue" stroke-width="2" />
<path d="M358,8308 L357,7785" stroke="blue" stroke-width="2" />
<path d="M1735,3762 L1921,267" stroke="blue" stroke-width="2" />
<path d="M1638,4580 L1341,5055" stroke="blue" stroke-width="2" />
<path d="M2253,4279 L1805,8070" stroke="blue" stroke-width="2" />
<path d="M1076,7982 L1005,7588" stroke="blue" stroke-width="2" />
<path d="M2601,4563 L678,6874" stroke="blue" stroke-width="2" />
<path d="M1329,49 L78,1432" stroke="blue" stroke-width="2" />
<path d="M2481,8289 L1665,478" stroke="blue" stroke-width="2" />
<path d="M2034,7607 L475,3784" stroke="blue" stroke-width="2" />
<path d="M2572,2024 L1359,8788" stroke="blue" stroke-width="2" />
<path d="M2068,5717 L671,2709" stroke="blue" stroke-width="2" />
<path d="M1160,7530 L613,3825" stroke="blue" stroke-width="2" />
<path d="M996,7698 L1646,3931" stroke="blue" stroke-width="2" />
<path d="M2764,3948 L2509,3306" stroke="blue" stroke-width="2" />
<path d="M1656,2900 L284,538" stroke="blue" stroke-width="2" />
<path d="M909,2830 L2766,8095" stroke="blue" stroke-width="2" />
<path d="M866,5810 L375,1432" stroke="blue" stroke-width="2" />
<path d="M392,6812 L1823,5027" stroke="blue" stroke-width="2" />
<path d="M356,4988 L301,1923" stroke="blue" stroke-width="2" />
<path d="M915,1692 L1250,7336" stroke="blue" stroke-width="2" />
<path d="M2807,2820 L1419,1720" stroke="blue" stroke-width="2" />
<path d="M2062,6549 L2506,787" stroke="blue" stroke-width="2" />
<path d="M1323,5695 L2804,6455" stroke="blue" stroke-width="2" />
<path d="M226,8173 L1081,1208" stroke="blue" stroke-width="2" />
<path d="M2072,3172 L2026,2852" stroke="blue" stroke-width="2" />
<path d="M2525,7723 L2609,1207" stroke="blue" stroke-width="2" />
<path d="M113,8138 L2003,6773" stroke="blue" stroke-width="2" />
<path d="M1898,7002 L1231,1810" stroke="blue" stroke-width="2" />
<path d="M2579,8441 L1799,5458" stroke="blue" stroke-width="2" />
<path d="M1148,5266 L1012,2204" stroke="blue" stroke-width="2" />
<path d="M1452,2459 L2789,3309" stroke="blue" stroke-width="2" />
<path d="M517,4255 L2669,8860" stroke="blue" stroke-width="2" />
<path d="M1441,1047 L2565,6652" stroke="blue" stroke-width="2" />
<path d="M1511,3073 L1278,3352" stroke="blue" stroke-width="2" />
<path d="M2733,2092 L1601,6570" stroke="blue" stroke-width="2" />
<path d="M2534,4021 L2458,8578" stroke="blue" stroke-width="2" />
<path d="M1962,101 L1025,4687" stroke="blue" stroke-width="2" />
<path d="M888,8296 L282,8872" stroke="blue" stroke-width="2" />
<path d="M592,7987 L5,8001" stroke="blue" stroke-width="2" />
<path d="M350,3204 L1172,5324" stroke="blue" stroke-width="2" />
<path d="M1758,8456 L1084,1698" stroke="blue" stroke-width="2" />
<path d="M1300,5611 L286,1026" stroke="blue" stroke-width="2" />
<path d="M531,2900 L1185,5803" stroke="blue" stroke-width="2" />
<path d="M1213,4624 L1008,2392" stroke="blue" stroke-width="2" />
<path d="M2008,2482 L809,8137" stroke="blue" stroke-width="2" />
<path d="M1015,2077 L2198,2053" stroke="blue" stroke-width="2" />
<path d="M2485,1344 L1767,683" stroke="blue" stroke-width="2" />
<path d="M1224,3628 L1812,536" stroke="blue" stroke-width="2" />
<path d="M4,3748 L2198,1705" stroke="blue" stroke-width="2" />
<path d="M1355,6188 L70,6564" stroke="blue" stroke-width="2" />
<path d="M489,5479 L2175,2830" stroke="blue" stroke-width="2" />
<path d="M822,2441 L1096,1097" stroke="blue" stroke-width="2" />
<path d="M193,7648 L2416,2416" stroke="blue" stroke-width="2" />
<path d="M2301,8430 L551,3253" stroke="blue" stroke-width="2" />
<path d="M54,304 L2145,2293" stroke="blue" stroke-width="2" />
<path d="M1160,8745 L1118,2226" stroke="blue" stroke-width="2" />
<path d="M356,7181 L1805,7298" stroke="blue" stroke-width="2" />
<path d="M2117,8447 L1079,1579" stroke="blue" stroke-width="2" />
<path d="M1403,6609 L1349,1401" stroke="blue" stroke-width="2" />
<path d="M551,5601 L2437,8937" stroke="blue" stroke-width="2" />
<path d="M2006,1754 L1162,5567" stroke="blue" stroke-width="2" />
<path d="M1236,2474 L2312,6114" stroke="blue" stroke-width="2" />
<path d="M64,7332 L2541,7932" stroke="blue" stroke-width="2" />
<path d="M2096,1966 L2899,1429" stroke="blue" stroke-width="2" />
<path d="M2565,5578 L2048,5068" stroke="blue" stroke-width="2" />
<path d="M1564,8869 L170,4593" stroke="blue" stroke-width="2" />
<path d="M1236,8013 L235,2086" stroke="blue" stroke-width="2" />
<path d="M442,5626 L1089,7627" stroke="blue" stroke-width="2" />
<path d="M550,7348 L1729,1202" stroke="blue" stroke-width="2" />
<path d="M2799,3706 L2091,2690" stroke="blue" stroke-width="2" />
<path d="M1919,5803 L277,8080" stroke="blue" stroke-width="2" />
<path d="M1815,6421 L1616,4081" stroke="blue" stroke-width="2" />
<path d="M2373,5118 L2658,1010" stroke="blue" stroke-width="2" />
<path d="M1165,2844 L2041,5937" stroke="blue" stroke-width="2" />
<path d="M798,5836 L2839,4" stroke="blue" stroke-width="2" />
<path d="M527,8363 L1461,6635" stroke="blue" stroke-width="2" />
<path d="M1368,8773 L842,6387" stroke="blue" stroke-width="2" />
<path d="M2307,726 L191,2020" stroke="blue" stroke-width="2" />
<path d="M1924,6508 L834,7714" stroke="blue" stroke-width="2" />
<path d="M2152,2801 L1077,1689" stroke="blue" stroke-width="2" />
<path d="M2362,5145 L1537,2621" stroke="blue" stroke-width="2" />
<path d="M991,5631 L1450,5690" stroke="blue" stroke-width="2" />
<path d="M656,4780 L1694,5306" stroke="blue" stroke-width="2" />
<path d="M1251,8482 L626,57" stroke="blue" stroke-width="2" />
<path d="M201,1068 L1998,1354" stroke="blue" stroke-width="2" />
<path d="M1743,2496 L1216,3635" stroke="blue" stroke-width="2" />
<path d="M2300,3609 L373,3396" stroke="blue" stroke-width="2" />
<path d="M2411,573 L1152,4629" stroke="blue" stroke-width="2" />
<path d="M470,1981 L1051,8635" stroke="blue" stroke-width="2" />
<path d="M588,1428 L524,1213" stroke="blue" stroke-width="2" />
<path d="M1964,930 L292,78" stroke="blue" stroke-width="2" />
<path d="M339,2733 L1452,1243" stroke="blue" stroke-width="2" />
<path d="M851,4784 L2310,4757" stroke="blue" stroke-width="2" />
<path d="M1419,4732 L550,438" stroke="blue" stroke-width="2" />
<path d="M2727,2729 L844,7148" stroke="blue" stroke-width="2" />
<path d="M2144,7270 L1142,7361" stroke="blue" stroke-width="2" />
<path d="M2388,4918 L2878,2432" stroke="blue" stroke-width="2" />
<path d="M974,6591 L2004,6856" stroke="blue" stroke-width="2" />
<path d="M2480,3411 L649,2453" stroke="blue" stroke-width="2" />
<path d="M1546,436 L1454,3722" stroke="blue" stroke-width="2" />
<path d="M197,4261 L2091,7831" stroke="blue" stroke-width="2" />
<path d="M1661,3885 L2407,4924" stroke="blue" stroke-width="2" />
<path d="M354,2368 L437,6436" stroke="blue" stroke-width="2" />
<path d="M1053,6135 L1934,2238" stroke="blue" stroke-width="2" />
<path d="M746,5017 L1769,7288" stroke="blue" stroke-width="2" />
<path d="M1455,6045 L90,4797" stroke="blue" stroke-width="2" />
<path d="M1524,7143 L237,6690" stroke="blue" stroke-width="2" />
<path d="M2156,8530 L896,7825" stroke="blue" stroke-width="2" />
<path d="M379,7854 L1372,1765" stroke="blue" stroke-width="2" />
<path d="M2022,4484 L2037,4998" stroke="blue" stroke-width="2" />
<path d="M289,8912 L1100,3249" stroke="blue" stroke-width="2" />
<path d="M1722,5747 L2419,841" stroke="blue" stroke-width="2" />
<path d="M2589,823 L2525,2080" stroke="blue" stroke-width="2" />
<path d="M316,6232 L2459,1974" stroke="blue" stroke-width="2" />
<path d="M1092,2884 L646,344" stroke="blue" stroke-width="2" />
<path d="M1923,5925 L2622,3135" stroke="blue" stroke-width="2" />
<path d="M520,7275 L906,8542" stroke="blue" stroke-width="2" />
<path d="M1236,3914 L107,6229" stroke="blue" stroke-width="2" />
<path d="M272,5204 L1169,6587" stroke="blue" stroke-width="2" />
<path d="M1423,1127 L2044,259" stroke="blue" stroke-width="2" />
<path d="M1318,7851 L1168,6983" stroke="blue" stroke-width="2" />
<path d="M901,2132 L1296,4419" stroke="blue" stroke-width="2" />
<path d="M672,6766 L2846,700" stroke="blue" stroke-width="2" />
<path d="M2855,1374 L2795,7543" stroke="blue" stroke-width="2" />
<path d="M965,7979 L2493,8113" stroke="blue" stroke-width="2" />
<path d="M1224,7077 L2151,7908" stroke="blue" stroke-width="2" />
<path d="M1733,7838 L34,8885" stroke="blue" stroke-width="2" />
<path d="M716,1790 L2851,8915" stroke="blue" stroke-width="2" />
<path d="M97,6267 L2426,827" stroke="blue" stroke-width="2" />
<path d="M2010,8728 L1252,6497" stroke="blue" stroke-width="2" />
<path d="M2627,3211 L1868,3646" stroke="blue" stroke-width="2" />
<path d="M425,3689 L621,1326" stroke="blue" stroke-width="2" />
<path d="M112,2776 L1877,513" stroke="blue" stroke-width="2" />
<path d="M679,6369 L2537,7646" stroke="blue" stroke-width="2" />
<path d="M1247,4288 L796,575" stroke="blue" stroke-width="2" />
<path d="M2529,6752 L2160,1908" stroke="blue" stroke-width="2" />
<path d="M829,3083 L2322,4910" stroke="blue" stroke-width="2" />
<path d="M515,3300 L1310,4634" stroke="blue" stroke-width="2" />
<path d="M1206,1047 L2495,7997" stroke="blue" stroke-width="2" />
<path d="M2485,3690 L1678,5717" stroke="blue" stroke-width="2" />
<path d="M2650,708 L2153,1744" stroke="blue" stroke-width="2" />
<path d="M1289,1200 L1568,1898" stroke="blue" stroke-width="2" />
<path d="M31,1424 L695,4935" stroke="blue" stroke-width="2" />
<path d="M1685,8243 L522,7228" stroke="blue" stroke-width="2" />
<path d="M2311,8557 L1524,4549" stroke="blue" stroke-width="2" />
<path d="M1678,8150 L1004,3519" stroke="blue" stroke-width="2" />
<path d="M2772,8487 L2301,6752" stroke="blue" stroke-width="2" />
<path d="M1230,2386 L1898,2673" stroke="blue" stroke-width="2" />
<path d="M1187,2118 L1944,6578" stroke="blue" stroke-width="2" />
<path d="M392,4127 L776,5302" stroke="blue" stroke-width="2" />
<path d="M640,8464 L2112,6639" stroke="blue" stroke-width="2" />
<path d="M1788,3392 L874,930" stroke="blue" stroke-width="2" />
<path d="M893,6116 L2667,5993" stroke="blue" stroke-width="2" />
<path d="M1856,1570 L2047,8780" stroke="blue" stroke-width="2" />
<path d="M1313,5874 L2289,5608" stroke="blue" stroke-width="2" />
<path d="M1120,2076 L2176,1113" stroke="blue" stroke-width="2" />
<path d="M964,4484 L97,8671" stroke="blue" stroke-width="2" />
<path d="M296,2709 L1289,24" stroke="blue" stroke-width="2" />
<path d="M186,8510 L1837,2544" stroke="blue" stroke-width="2" />
<path d="M1983,1789 L1538,4387" stroke="blue" stroke-width="2" />
<path d="M1451,8396 L1612,2009" stroke="blue" stroke-width="2" />
<path d="M1695,8537 L2688,2039" stroke="blue" stroke-width="2" />
<path d="M1768,5766 L506,1343" stroke="blue" stroke-width="2" />
<path d="M2587,7288 L283,3529" stroke="blue" stroke-width="2" />
<path d="M1492,1472 L2852,2627" stroke="blue" stroke-width="2" />
<path d="M1040,8584 L1129,766" stroke="blue" stroke-width="2" />
<path d="M2228,3400 L2209,216" stroke="blue" stroke-width="2" />
<path d="M1912,4069 L1504,8552" stroke="blue" stroke-width="2" />
<path d="M2697,5145 L2771,135" stroke="blue" stroke-width="2" />
<path d="M2570,1671 L329,4058" stroke="blue" stroke-width="2" />
<path d="M881,7438 L446,4569" stroke="blue" stroke-width="2" />
<path d="M809,2808 L254,6762" stroke="blue" stroke-width="2" />
<path d="M1561,2269 L824,5521" stroke="blue" stroke-width="2" />
<path d="M990,1918 L1886,8398" stroke="blue" stroke-width="2" />
<path d="M2693,2483 L1547,1457" stroke="blue" stroke-width="2" />
<path d="M1864,886 L701,3261" stroke="blue" stroke-width="2" />
<path d="M630,4803 L2027,1223" stroke="blue" stroke-width="2" />
<path d="M475,6084 L2398,4018" stroke="blue" stroke-width="2" />
<path d="M2161,8258 L2675,4474" stroke="blue" stroke-width="2" />
<path d="M2896,6553 L1701,6045" stroke="blue" stroke-width="2" />
<path d="M1103,179 L2152,8031" stroke="blue" stroke-width="2" />
<path d="M2879,5202 L2661,4629" stroke="blue" stroke-width="2" />
<path d="M31,3080 L939,6542" stroke="blue" stroke-width="2" />
<path d="M1171,8258 L1705,6086" stroke="blue" stroke-width="2" />
<path d="M666,5216 L1058,8699" stroke="blue" stroke-width="2" />
<path d="M2236,5195 L1436,290" stroke="blue" stroke-width="2" />
<path d="M1367,8298 L339,5652" stroke="blue" stroke-width="2" />
<path d="M250,2714 L1057,4898" stroke="blue" stroke-width="2" />
<path d="M1309,316 L1032,3264" stroke="blue" stroke-width="2" />
<path d="M2167,1213 L237,592" stroke="blue" stroke-width="2" />
<path d="M1904,1625 L2813,2734" stroke="blue" stroke-width="2" />
<path d="M1276,722 L2339,3441" stroke="blue" stroke-width="2" />
<path d="M904,8681 L2437,1556" stroke="blue" stroke-width="2" />
<path d="M2054,8846 L2462,4191" stroke="blue" stroke-width="2" />
<path d="M218,2757 L1750,4292" stroke="blue" stroke-width="2" />
<path d="M241,8934 L71,7922" stroke="blue" stroke-width="2" />
<path d="M2681,2705 L1727,3508" stroke="blue" stroke-width="2" />
<path d="M1283,3142 L2313,1023" stroke="blue" stroke-width="2" />
<path d="M2150,5676 L1767,8287" stroke="blue" stroke-width="2" />
<path d="M2630,5509 L1239,4247" stroke="blue" stroke-width="2" />
<path d="M1463,8687 L2549,7504" stroke="blue" stroke-width="2" />
<path d="M1830,272 L2789,5181" stroke="blue" stroke-width="2" />
<path d="M628,7080 L1441,1050" stroke="blue" stroke-width="2" />
<path d="M1651,6664 L1381,3395" stroke="blue" stroke-width="2" />
<path d="M2211,6354 L2543,8845" stroke="blue" stroke-width="2" />
<path d="M752,4181 L343,4976" stroke="blue" stroke-width="2" />
<path d="M855,8790 L727,6298" stroke="blue" stroke-width="2" />
<path d="M2480,11 L1815,158" stroke="blue" stroke-width="2" />
<path d="M2570,6163 L428,5" stroke="blue" stroke-width="2" />
<path d="M2645,2481 L74,6939" stroke="blue" stroke-width="2" />
<path d="M1443,4773 L2495,4495" stroke="blue" stroke-width="2" />
<path d="M2113,6538 L2054,4641" stroke="blue" stroke-width="2" />
<path d="M800,7827 L1392,2192" stroke="blue" stroke-width="2" />
<path d="M708,5441 L872,447" stroke="blue" stroke-width="2" />
<path d="M1720,409 L1149,5902" stroke="blue" stroke-width="2" />
<path d="M1819,2430 L1920,2312" stroke="blue" stroke-width="2" />
<path d="M594,320 L2104,7862" stroke="blue" stroke-width="2" />
<path d="M2054,210 L1485,4214" stroke="blue" stroke-width="2" />
<path d="M2757,1456 L2889,4786" stroke="blue" stroke-width="2" />
<path d="M849,1296 L76,675" stroke="blue" stroke-width="2" />
<path d="M659,2385 L2002,4732" stroke="blue" stroke-width="2" />
<path d="M1265,5980 L1989,6232" stroke="blue" stroke-width="2" />
<path d="M1883,3833 L1620,2520" stroke="blue" stroke-width="2" />
<path d="M591,8818 L2346,267" stroke="blue" stroke-width="2" />
<path d="M983,5149 L981,7123" stroke="blue" stroke-width="2" />
<path d="M2742,3861 L2011,5346" stroke="blue" stroke-width="2" />
<path d="M1107,291 L1226,5853" stroke="blue" stroke-width="2" />
<path d="M113,1025 L2451,5486" stroke="blue" stroke-width="2" />
<path d="M1500,7639 L383,5628" stroke="blue" stroke-width="2" />
<path d="M1949,6902 L2826,1192" stroke="blue" stroke-width="2" />
<path d="M1572,852 L2475,1591" stroke="blue" stroke-width="2" />
<path d="M1574,5794 L572,4279" stroke="blue" stroke-width="2" />
<path d="M2194,7825 L97,718" stroke="blue" stroke-width="2" />
<path d="M1382,7909 L647,1413" stroke="blue" stroke-width="2" />
<path d="M440,3977 L424,6373" stroke="blue" stroke-width="2" />
<path d="M2027,4857 L549,1046" stroke="blue" stroke-width="2" />
<path d="M1173,4723 L435,484" stroke="blue" stroke-width="2" />
<path d="M2134,3167 L2095,8795" stroke="blue" stroke-width="2" />
<path d="M2851,6318 L742,1215" stroke="blue" stroke-width="2" />
<path d="M2079,8000 L922,6373" stroke="blue" stroke-width="2" />
<path d="M96,4368 L2841,8330" stroke="blue" stroke-width="2" />
<path d="M1509,4264 L2328,7212" stroke="blue" stroke-width="2" />
<path d="M353,5347 L2,3324" stroke="blue" stroke-width="2" />
<path d="M2500,2126 L1637,1856" stroke="blue" stroke-width="2" />
<path d="M2467,3824 L2279,2884" stroke="blue" stroke-width="2" />
<path d="M1842,7922 L2001,6609" stroke="blue" stroke-width="2" />
<path d="M434,3465 L1846,6484" stroke="blue" stroke-width="2" />
<path d="M217,95 L1958,8628" stroke="blue" stroke-width="2" />
<path d="M2804,5720 L2181,6465" stroke="blue" stroke-width="2" />
<path d="M2608,8705 L2218,4422" stroke="blue" stroke-width="2" />
<path d="M359,5714 L1888,7336" stroke="blue" stroke-width="2" />
<path d="M1479,8411 L879,7684" stroke="blue" stroke-width="2" />
<path d="M549,5840 L2203,7019" stroke="blue" stroke-width="2" />
<path d="M902,4468 L1358,4646" stroke="blue" stroke-width="2" />
<path d="M2581,4561 L1409,5779" stroke="blue" stroke-width="2" />
<path d="M2024,131 L2151,4230" stroke="blue" stroke-width="2" />
<path d="M408,5545 L2655,5577" stroke="blue" stroke-width="2" />
<path d="M73,3270 L2096,4829" stroke="blue" stroke-width="2" />
<path d="M289,7331 L1563,4988" stroke="blue" stroke-width="2" />
<path d="M1629,5314 L437,4473" stroke="blue" stroke-width="2" />
<path d="M2137,4965 L203,4554" stroke="blue" stroke-width="2" />
<path d="M640,6948 L1002,8598" stroke="blue" stroke-width="2" />
<path d="M2208,2044 L1208,4337" stroke="blue" stroke-width="2" />
<path d="M1262,4768 L1403,29" stroke="blue" stroke-width="2" />
<path d="M2774,7950 L1128,8408" stroke="blue" stroke-width="2" />
<path d="M2826,8733 L1928,6342" stroke="blue" stroke-width="2" />
<path d="M1188,388 L460,12" stroke="blue" stroke-width="2" />
<path d="M2067,4132 L1288,6357" stroke="blue" stroke-width="2" />
<path d="M373,7202 L2577,3839" stroke="blue" stroke-width="2" />
<path d="M2284,7756 L756,8406" stroke="blue" stroke-width="2" />
<path d="M983,6701 L743,5926" stroke="blue" stroke-width="2" />
<path d="M910,1662 L315,8730" stroke="blue" stroke-width="2" />
<path d="M418,3966 L77,4347" stroke="blue" stroke-width="2" />
<path d="M1216,4033 L933,8479" stroke="blue" stroke-width="2" />
<path d="M1625,8728 L1655,7789" stroke="blue" stroke-width="2" />
<path d="M2673,4709 L102,7769" stroke="blue" stroke-width="2" />
<path d="M1676,5309 L2826,6536" stroke="blue" stroke-width="2" />
<path d="M2457,7108 L1404,3810" stroke="blue" stroke-width="2" />
<path d="M2141,2714 L2596,5752" stroke="blue" stroke-width="2" />
<path d="M176,6318 L2812,4594" stroke="blue" stroke-width="2" />
<path d="M849,3244 L2706,5811" stroke="blue" stroke-width="2" />
<path d="M856,7137 L2364,7852" stroke="blue" stroke-width="2" />
<path d="M1779,8745 L2354,3328" stroke="blue" stroke-width="2" />
<path d="M2186,8571 L988,4703" stroke="blue" stroke-width="2" />
<path d="M416,2472 L625,7932" stroke="blue" stroke-width="2" />
<path d="M1269,4865 L1345,845" stroke="blue" stroke-width="2" />
<path d="M1252,4705 L205,4935" stroke="blue" stroke-width="2" />
<path d="M325,5581 L1018,5775" stroke="blue" stroke-width="2" />
<path d="M761,3973 L1492,3526" stroke="blue" stroke-width="2" />
<path d="M2139,1352 L141,6524" stroke="blue" stroke-width="2" />
<path d="M2669,4642 L387,8206" stroke="blue" stroke-width="2" />
<path d="M757,8425 L229,7795" stroke="blue" stroke-width="2" />
<path d="M892,8139 L2441,196" stroke="blue" stroke-width="2" />
<path d="M881,5318 L2160,7363" stroke="blue" stroke-width="2" />
<path d="M2023,1019 L1757,6459" stroke="blue" stroke-width="2" />
<path d="M975,5865 L2740,2281" stroke="blue" stroke-width="2" />
<path d="M820,4778 L947,8177" stroke="blue" stroke-width="2" />
<path d="M237,1875 L415,4571" stroke="blue" stroke-width="2" />
<path d="M2660,3606 L2025,7144" stroke="blue" stroke-width="2" />
<path d="M573,7146 L2732,2327" stroke="blue" stroke-width="2" />
<path d="M1397,6106 L2006,6056" stroke="blue" stroke-width="2" />
<path d="M1296,5710 L1242,1524" stroke="blue" stroke-width="2" />
<path d="M2277,1245 L144,8378" stroke="blue" stroke-width="2" />
<path d="M384,3521 L561,5435" stroke="blue" stroke-width="2" />
<path d="M883,1866 L1604,4553" stroke="blue" stroke-width="2" />
<path d="M2057,5661 L89,4540" stroke="blue" stroke-width="2" />
<path d="M1953,6791 L702,6718" stroke="blue" stroke-width="2" />
<path d="M1970,399 L1924,8019" stroke="blue" stroke-width="2" />
<path d="M1786,563 L626,1329" stroke="blue" stroke-width="2" />
<path d="M185,1348 L2447,5953" stroke="blue" stroke-width="2" />
<path d="M1064,5564 L1852,4167" stroke="blue" stroke-width="2" />
<path d="M2400,5252 L405,6311" stroke="blue" stroke-width="2" />
<path d="M2443,2773 L830,7027" stroke="blue" stroke-width="2" />
<path d="M2837,1994 L2423,326" stroke="blue" stroke-width="2" />
<path d="M90,3841 L1812,6846" stroke="blue" stroke-width="2" />
<path d="M1640,1429 L2266,4972" stroke="blue" stroke-width="2" />
<path d="M451,3266 L1247,8039" stroke="blue" stroke-width="2" />
<path d="M2225,1146 L2711,1396" stroke="blue" stroke-width="2" />
<path d="M808,8587 L1670,337" stroke="blue" stroke-width="2" />
<path d="M2719,4123 L392,6278" stroke="blue" stroke-width="2" />
<path d="M1618,8218 L208,7496" stroke="blue" stroke-width="2" />
<path d="M2241,406 L135,3824" stroke="blue" stroke-width="2" />
<path d="M1809,3565 L2263,240" stroke="blue" stroke-width="2" />
<path d="M2053,5938 L369,6807" stroke="blue" stroke-width="2" />
<path d="M2379,8627 L278,7504" stroke="blue" stroke-width="2" />
<path d="M2099,1439 L172,4940" stroke="blue" stroke-width="2" />
<path d="M876,2707 L2266,2887" stroke="blue" stroke-width="2" />
<path d="M2052,4284 L515,8558" stroke="blue" stroke-width="2" />
<path d="M2837,5784 L1338,1704" stroke="blue" stroke-width="2" />
<path d="M1039,7224 L649,6650" stroke="blue" stroke-width="2" />
<path d="M2445,793 L1068,2790" stroke="blue" stroke-width="2" />
<path d="M1022,4499 L2348,7564" stroke="blue" stroke-width="2" />
<path d="M1568,6081 L312,7505" stroke="blue" stroke-width="2" />
<path d="M2046,2825 L1833,7510" stroke="blue" stroke-width="2" />
<path d="M1966,7955 L2546,476" stroke="blue" stroke-width="2" />
<path d="M2616,3048 L277,8718" stroke="blue" stroke-width="2" />
<path d="M2461,1377 L1800,3665" stroke="blue" stroke-width="2" />
<path d="M502,4466 L596,1028" stroke="blue" stroke-width="2" />
<path d="M1362,1106 L2397,7791" stroke="blue" stroke-width="2" />
<path d="M1989,6652 L487,8572" stroke="blue" stroke-width="2" />
<path d="M1519,6479 L2736,1458" stroke="blue" stroke-width="2" />
<path d="M1309,7966 L418,6716" stroke="blue" stroke-width="2" />
<path d="M33,3615 L1169,2318" stroke="blue" stroke-width="2" />
<path d="M88,7593 L731,2192" stroke="blue" stroke-width="2" />
<path d="M580,8645 L2771,3870" stroke="blue" stroke-width="2" />
<path d="M287,2278 L1741,3337" stroke="blue" stroke-width="2" />
<path d="M2659,8491 L1797,2968" stroke="blue" stroke-width="2" />
<path d="M1477,7184 L823,4814" stroke="blue" stroke-width="2" />
<path d="M338,5011 L2299,5948" stroke="blue" stroke-width="2" />
<path d="M685,7144 L130,4032" stroke="blue" stroke-width="2" />
<path d="M2262,2345 L216,6536" stroke="blue" stroke-width="2" />
<path d="M1905,8823 L621,7072" stroke="blue" stroke-width="2" />
<path d="M2233,45 L484,3061" stroke="blue" stroke-width="2" />
<path d="M395,6129 L1794,7848" stroke="blue" stroke-width="2" />
<path d="M2536,755 L291,6144" stroke="blue" stroke-width="2" />
<path d="M1839,5815 L2840,2144" stroke="blue" stroke-width="2" />
<path d="M330,8735 L769,776" stroke="blue" stroke-width="2" />
<path d="M2907,5696 L807,8111" stroke="blue" stroke-width="2" />
<path d="M639,380 L185,6801" stroke="blue" stroke-width="2" />
<path d="M2285,470 L1244,5388" stroke="blue" stroke-width="2" />
<path d="M1822,4615 L2116,5375" stroke="blue" stroke-width="2" />
<path d="M2015,3854 L2774,5442" stroke="blue" stroke-width="2" />
<path d="M1902,6297 L1847,2678" stroke="blue" stroke-width="2" />
<path d="M2146,8809 L1026,3236" stroke="blue" stroke-width="2" />
<path d="M1734,1793 L559,4950" stroke="blue" stroke-width="2" />
<path d="M1222,4015 L1085,2021" stroke="blue" stroke-width="2" />
<path d="M1951,1923 L33,1344" stroke="blue" stroke-width="2" />
<path d="M1649,4406 L92,6844" stroke="blue" stroke-width="2" />
<path d="M789,6515 L2017,2818" stroke="blue" stroke-width="2" />
<path d="M2183,6091 L1604,6874" stroke="blue" stroke-width="2" />
<path d="M1232,7759 L982,5319" stroke="blue" stroke-width="2" />
<path d="M849,7449 L1781,8008" stroke="blue" stroke-width="2" />
<path d="M1213,579 L1541,5871" stroke="blue" stroke-width="2" />
<path d="M2618,8076 L423,6753" stroke="blue" stroke-width="2" />
<path d="M1751,7212 L556,1163" stroke="blue" stroke-width="2" />
<path d="M2708,1497 L1340,2968" stroke="blue" stroke-width="2" />
<path d="M1117,2124 L2443,644" stroke="blue" stroke-width="2" />
<path d="M143,5265 L1988,5787" stroke="blue" stroke-width="2" />
<path d="M2322,1927 L349,1977" stroke="blue" stroke-width="2" />
<path d="M548,4239 L899,4635" stroke="blue" stroke-width="2" />
<path d="M1118,3436 L292,4240" stroke="blue" stroke-width="2" />
<path d="M1070,4909 L1326,4120" stroke="blue" stroke-width="2" />
<path d="M1583,955 L1694,5419" stroke="blue" stroke-width="2" />
<path d="M1964,3092 L1486,741" stroke="blue" stroke-width="2" />
<path d="M1085,501 L73,4312" stroke="blue" stroke-width="2" />
<path d="M2142,4208 L482,3223" stroke="blue" stroke-width="2" />
<path d="M1891,6002 L347,4374" stroke="blue" stroke-width="2" />
<path d="M896,6527 L80,8706" stroke="blue" stroke-width="2" />
<path d="M1557,6672 L2544,385" stroke="blue" stroke-width="2" />
<path d="M2882,738 L178,1914" stroke="blue" stroke-width="2" />
<path d="M15,2738 L113,1455" stroke="blue" stroke-width="2" />
<path d="M1445,6893 L28,5818" stroke="blue" stroke-width="2" />
<path d="M1127,6430 L1309,4096" stroke="blue" stroke-width="2" />
<path d="M2546,1046 L2118,8548" stroke="blue" stroke-width="2" />
<path d="M1173,4812 L2191,4224" stroke="blue" stroke-width="2" />
<path d="M2179,7562 L1268,2579" stroke="blue" stroke-width="2" />
<path d="M1341,4988 L725,3199" stroke="blue" stroke-width="2" />
<path d="M2271,488 L941,3492" stroke="blue" stroke-width="2" />
<path d="M1235,233 L852,4779" stroke="blue" stroke-width="2" />
<path d="M1028,6778 L1371,994" stroke="blue" stroke-width="2" />
<path d="M2285,5562 L1145,7510" stroke="blue" stroke-width="2" />
<path d="M1827,2593 L1187,4280" stroke="blue" stroke-width="2" />
<path d="M907,1233 L656,5587" stroke="blue" stroke-width="2" />
<path d="M76,2644 L1749,7627" stroke="blue" stroke-width="2" />
<path d="M1571,6495 L1396,6865" stroke="blue" stroke-width="2" />
<path d="M952,6764 L1357,4557" stroke="blue" stroke-width="2" />
<path d="M1694,2174 L200,5580" stroke="blue" stroke-width="2" />
<path d="M1152,7266 L2523,7601" stroke="blue" stroke-width="2" />
<path d="M2382,8947 L394,8004" stroke="blue" stroke-width="2" />
<path d="M2692,3421 L1150,7344" stroke="blue" stroke-width="2" />
<path d="M2370,8133 L1650,4054" stroke="blue" stroke-width="2" />
<path d="M2855,7644 L2788,5549" stroke="blue" stroke-width="2" />
<path d="M466,1272 L2078,667" stroke="blue" stroke-width="2" />
<path d="M989,7949 L848,1930" stroke="blue" stroke-width="2" />
<path d="M97,2743 L1244,2568" stroke="blue" stroke-width="2" />
<path d="M515,3021 L2045,6908" stroke="blue" stroke-width="2" />
<path d="M816,6277 L2427,6536" stroke="blue" stroke-width="2" />
<path d="M959,8883 L2643,7257" stroke="blue" stroke-width="2" />
<path d="M1017,6454 L1436,5167" stroke="blue" stroke-width="2" />
<path d="M2637,5846 L2040,3726" stroke="blue" stroke-width="2" />
<path d="M2275,3710 L765,5414" stroke="blue" stroke-width="2" />
<path d="M99,6223 L1419,974" stroke="blue" stroke-width="2" />
<path d="M1397,4353 L869,3759" stroke="blue" stroke-width="2" />
<path d="M1781,7688 L1396,4585" stroke="blue" stroke-width="2" />
<path d="M1579,8959 L1274,6164" stroke="blue" stroke-width="2" />
<path d="M834,8707 L1981,975" stroke="blue" stroke-width="2" />
<path d="M1272,8148 L429,4277" stroke="blue" stroke-width="2" />
<path d="M1849,4023 L1499,4690" stroke="blue" stroke-width="2" />
<path d="M1107,8611 L2762,4012" stroke="blue" stroke-width="2" />
<path d="M1468,8850 L2556,362" stroke="blue" stroke-width="2" />
<path d="M2384,7906 L1179,2145" stroke="blue" stroke-width="2" />
<path d="M458,771 L714,7441" stroke="blue" stroke-width="2" />
<path d="M819,21 L2321,7850" stroke="blue" stroke-width="2" />
<path d="M1755,1170 L1855,5680" stroke="blue" stroke-width="2" />
<path d="M749,8854 L1260,8150" stroke="blue" stroke-width="2" />
<path d="M1150,2386 L1002,3058" stroke="blue" stroke-width="2" />
<path d="M1718,2371 L2020,5548" stroke="blue" stroke-width="2" />
<path d="M2555,5828 L2090,595" stroke="blue" stroke-width="2" />
<path d="M1867,2585 L2177,8290" stroke="blue" stroke-width="2" />
<path d="M318,4961 L2794,6091" stroke="blue" stroke-width="2" />
<path d="M2338,7006 L2139,2450" stroke="blue" stroke-width="2" />
<path d="M1353,7960 L644,861" stroke="blue" stroke-width="2" />
<path d="M1031,2927 L2286,1701" stroke="blue" stroke-width="2" />
<path d="M2666,5907 L309,2680" stroke="blue" stroke-width="2" />
<path d="M1089,5554 L2773,744" stroke="blue" stroke-width="2" />
<path d="M27,8084 L592,2117" stroke="blue" stroke-width="2" />
<path d="M1701,1181 L2087,4861" stroke="blue" stroke-width="2" />
<path d="M725,2940 L1568,7253" stroke="blue" stroke-width="2" />
<path d="M873,3571 L1541,5944" stroke="blue" stroke-width="2" />
<path d="M1471,8328 L226,7871" stroke="blue" stroke-width="2" />
<path d="M879,5656 L1379,8192" stroke="blue" stroke-width="2" />
<path d="M2455,8402 L1675,1800" stroke="blue" stroke-width="2" />
<path d="M377,3819 L1786,156" stroke="blue" stroke-width="2" />
<path d="M2266,8606 L2151,4160" stroke="blue" stroke-width="2" />
<path d="M653,4271 L71,8288" stroke="blue" stroke-width="2" />
<path d="M2149,2665 L1808,484" stroke="blue" stroke-width="2" />
<path d="M907,7449 L2485,3305" stroke="blue" stroke-width="2" />
<path d="M15,1478 L2194,5640" stroke="blue" stroke-width="2" />
<path d="M1171,3751 L2767,6440" stroke="blue" stroke-width="2" />
<path d="M1202,1540 L622,4489" stroke="blue" stroke-width="2" />
<path d="M152,1715 L781,8394" stroke="blue" stroke-width="2" />
<path d="M560,7657 L1210,5254" stroke="blue" stroke-width="2" />
<path d="M1467,4501 L2715,5501" stroke="blue" stroke-width="2" />
<path d="M1184,182 L30,2742" stroke="blue" stroke-width="2" />
<path d="M744,1351 L1738,6894" stroke="blue" stroke-width="2" />
<path d="M2498,5081 L66,22" stroke="blue" stroke-width="2" />
<path d="M1218,6812 L605,8855" stroke="blue" stroke-width="2" />
<path d="M2556,5858 L2290,8285" stroke="blue" stroke-width="2" />
<path d="M2774,1555 L1025,8829" stroke="blue" stroke-width="2" />
<path d="M2655,6596 L175,7595" stroke="blue" stroke-width="2" />
<path d="M262,236 L1133,858" stroke="blue" stroke-width="2" />
<path d="M1154,253 L2370,592" stroke="blue" stroke-width="2" />
<path d="M831,7074 L0,5174" stroke="blue" stroke-width="2" />
<path d="M1361,230 L1742,943" stroke="blue" stroke-width="2" />
<path d="M224,8375 L1757,455" stroke="blue" stroke-width="2" />
<path d="M1387,4171 L255,1382" stroke="blue" stroke-width="2" />
<path d="M937,6107 L681,4803" stroke="blue" stroke-width="2" />
<path d="M2079,41 L2187,6407" stroke="blue" stroke-width="2" />
<path d="M1158,6036 L199,3641" stroke="blue" stroke-width="2" />
<path d="M2860,4233 L2365,4253" stroke="blue" stroke-width="2" />
<path d="M1089,5179 L2310,1295" stroke="blue" stroke-width="2" />
<path d="M199,7975 L2853,5676" stroke="blue" stroke-width="2" />
<path d="M2510,3269 L2159,181" stroke="blue" stroke-width="2" />
<path d="M373,871 L1703,6427" stroke="blue" stroke-width="2" />
<path d="M741,6287 L1264,5474" stroke="blue" stroke-width="2" />
<path d="M122,1471 L510,1416" stroke="blue" stroke-width="2" />
<path d="M1388,7316 L2394,3590" stroke="blue" stroke-width="2" />
<path d="M2302,3941 L927,891" stroke="blue" stroke-width="2" />
<path d="M2082,4751 L894,7502" stroke="blue" stroke-width="2" />
<path d="M573,1606 L267,6928" stroke="blue" stroke-width="2" />
<path d="M1772,7062 L1561,1765" stroke="blue" stroke-width="2" />
<path d="M989,2497 L870,3365" stroke="blue" stroke-width="2" />
<path d="M1697,1189 L2669,4834" stroke="blue" stroke-width="2" />
<path d="M876,8200 L1720,6321" stroke="blue" stroke-width="2" />
<path d="M2144,6420 L1816,1783" stroke="blue" stroke-width="2" />
<path d="M2434,8191 L352,8889" stroke="blue" stroke-width="2" />
<path d="M2144,8193 L577,6539" stroke="blue" stroke-width="2" />
<path d="M922,5147 L2606,5481" stroke="blue" stroke-width="2" />
<path d="M2319,3891 L1213,3239" stroke="blue" stroke-width="2" />
<path d="M2141,8552 L2784,2169" stroke="blue" stroke-width="2" />
<path d="M2511,8863 L2503,8472" stroke="blue" stroke-width="2" />
<path d="M341,3576 L2192,5368" stroke="blue" stroke-width="2" />
<path d="M825,278 L2876,4103" stroke="blue" stroke-width="2" />
<path d="M692,1726 L2056,1602" stroke="blue" stroke-width="2" />
<path d="M1446,504 L149,7632" stroke="blue" stroke-width="2" />
<path d="M1029,6515 L2154,204" stroke="blue" stroke-width="2" />
<path d="M1178,1094 L186,2594" stroke="blue" stroke-width="2" />
<path d="M2146,7363 L1593,6920" stroke="blue" stroke-width="2" />
<path d="M2529,8523 L1642,8606" stroke="blue" stroke-width="2" />
<path d="M1880,5585 L2565,193" stroke="blue" stroke-width="2" />
<path d="M829,842 L1272,7273" stroke="blue" stroke-width="2" />
<path d="M2586,5425 L64,4270" stroke="blue" stroke-width="2" />
<path d="M2173,5474 L1334,6653" stroke="blue" stroke-width="2" />
<path d="M2523,8342 L802,7055" stroke="blue" stroke-width="2" />
<path d="M2436,7987 L2571,7303" stroke="blue" stroke-width="2" />
<path d="M2665,1046 L1850,6692" stroke="blue" stroke-width="2" />
<path d="M1150,6320 L2372,1025" stroke="blue" stroke-width="2" />
<path d="M2745,3270 L1751,8202" stroke="blue" stroke-width="2" />
<path d="M2551,7282 L347,8668" stroke="blue" stroke-width="2" />
<path d="M1421,27 L1815,3921" stroke="blue" stroke-width="2" />
<path d="M1851,8278 L1594,7957" stroke="blue" stroke-width="2" />
<path d="M2893,7249 L1621,2003" stroke="blue" stroke-width="2" />
<path d="M1788,4667 L486,1343" stroke="blue" stroke-width="2" />
<path d="M2559,5429 L192,6358" stroke="blue" stroke-width="2" />
<path d="M699,1692 L1214,3776" stroke="blue" stroke-width="2" />
<path d="M1595,2992 L307,6277" stroke="blue" stroke-width="2" />
<path d="M688,8634 L2885,3972" stroke="blue" stroke-width="2" />
<path d="M2053,8773 L1470,5475" stroke="blue" stroke-width="2" />
<path d="M1310,3690 L2377,8554" stroke="blue" stroke-width="2" />
<path d="M2564,3547 L1628,4052" stroke="blue" stroke-width="2" />
<path d="M567,8621 L1572,2569" stroke="blue" stroke-width="2" />
<path d="M2490,6085 L1092,3733" stroke="blue" stroke-width="2" />
<path d="M185,8868 L2665,8803" stroke="blue" stroke-width="2" />
<path d="M2470,149 L585,2018" stroke="blue" stroke-width="2" />
<path d="M1461,8790 L2398,2992" stroke="blue" stroke-width="2" />
<path d="M2061,7699 L2861,8475" stroke="blue" stroke-width="2" />
<path d="M1867,3929 L1559,3852" stroke="blue" stroke-width="2" />
<path d="M2046,1744 L2882,4080" stroke="blue" stroke-width="2" />
<path d="M1724,765 L2634,1790" stroke="blue" stroke-width="2" />
<path d="M785,7194 L1086,1502" stroke="blue" stroke-width="2" />
<path d="M2310,6411 L1350,7626" stroke="blue" stroke-width="2" />
<path d="M2420,7703 L102,4441" stroke="blue" stroke-width="2" />
<path d="M1708,4632 L1824,8110" stroke="blue" stroke-width="2" />
<path d="M40,7593 L2674,2147" stroke="blue" stroke-width="2" />
<path d="M435,7569 L2690,4358" stroke="blue" stroke-width="2" />
<path d="M585,5028 L2069,1780" stroke="blue" stroke-width="2" />
<path d="M644,6941 L1595,2833" stroke="blue" stroke-width="2" />
<path d="M672,6772 L102,6144" stroke="blue" stroke-width="2" />
<path d="M2670,5562 L192,6262" stroke="blue" stroke-width="2" />
<path d="M2016,2495 L1854,7320" stroke="blue" stroke-width="2" />
<path d="M1811,5835 L2721,4596" stroke="blue" stroke-width="2" />
<path d="M2488,6444 L805,8622" stroke="blue" stroke-width="2" />
<path d="M1638,1844 L2124,1391" stroke="blue" stroke-width="2" />
<path d="M2892,6527 L1905,2821" stroke="blue" stroke-width="2" />
<path d="M934,5296 L745,2092" stroke="blue" stroke-width="2" />
<path d="M2075,8346 L521,5211" stroke="blue" stroke-width="2" />
<path d="M2149,8857 L2053,7330" stroke="blue" stroke-width="2" />
<path d="M2622,7152 L1964,2019" stroke="blue" stroke-width="2" />
<path d="M2421,4472 L2311,7746" stroke="blue" stroke-width="2" />
<path d="M2297,168 L1218,1204" stroke="blue" stroke-width="2" />
<path d="M285,3702 L807,5043" stroke="blue" stroke-width="2" />
<path d="M1564,6832 L2854,7051" stroke="blue" stroke-width="2" />
<path d="M512,8932 L64,6186" stroke="blue" stroke-width="2" />
<path d="M906,1545 L2521,5589" stroke="blue" stroke-width="2" />
<path d="M1650,2951 L1283,921" stroke="blue" stroke-width="2" />
<path d="M1861,585 L1822,441" stroke="blue" stroke-width="2" />
<path d="M704,1557 L1418,8334" stroke="blue" stroke-width="2" />
<path d="M2289,148 L238,2446" stroke="blue" stroke-width="2" />
<path d="M2004,5757 L401,2269" stroke="blue" stroke-width="2" />
<path d="M2733,6883 L2595,3579" stroke="blue" stroke-width="2" />
<path d="M1767,735 L2611,2021" stroke="blue" stroke-width="2" />
<path d="M2761,4838 L1845,3218" stroke="blue" stroke-width="2" />
<path d="M2732,8878 L1835,8181" stroke="blue" stroke-width="2" />
<path d="M1585,8833 L1410,3288" stroke="blue" stroke-width="2" />
<path d="M597,5900 L2460,2257" stroke="blue" stroke-width="2" />
<path d="M787,2377 L1061,1304" stroke="blue" stroke-width="2" />
<path d="M2604,3676 L730,4754" stroke="blue" stroke-width="2" />
<path d="M189,8274 L284,1368" stroke="blue" stroke-width="2" />
<path d="M1689,6078 L1766,8958" stroke="blue" stroke-width="2" />
<path d="M0,0 L2908,0" stroke="red" stroke-width="10" />
<path d="M2908,0 L2908,8985" stroke="red" stroke-width="10" />
<path d="M0,8985 L2908,8985" stroke="red" stroke-width="10" />
<path d="M0,8985 L0,0" stroke="red" stroke-width="10" />
</svg>