<?xml version="1.0" encoding="UTF-8"?>
<svg xmlns="http://www.w3.org/2000/svg" xmlns:xlink="http://www.w3.org/1999/xlink"
     width="10000" height="10000" viewBox="0 0 10000 10000">
<defs>
</defs>
<path d="M2274,876 L3263,200" stroke="blue" stroke-width="2" />
<path d="M1434,729 L2833,966" stroke="blue" stroke-width="2" />
<path d="M2717,1139 L127,909" stroke="blue" stroke-width="2" />
<path d="M3262,705 L718,1332" stroke="blue" stroke-width="2" />
<path d="M4047,379 L3935,433" stroke="blue" stroke-width="2" />
<path d="M3783,1042 L2488,1095" stroke="blue" stroke-width="2" />
<path d="M648,201 L1542,306" stroke="blue" stroke-width="2" />
<path d="M808,232 L3070,122" stroke="blue" stroke-width="2" />
<path d="M789,1040 L1496,833" stroke="blue" stroke-width="2" />
<path d="M1808,1309 L2045,831" stroke="blue" stroke-width="2" />
<path d="M1686,1265 L3006,129" stroke="blue" stroke-width="2" />
<path d="M3093,1229 L1341,417" stroke="blue" stroke-width="2" />
<path d="M3987,1270 L1690,1040" stroke="blue" stroke-width="2" />
<path d="M514,240 L882,492" stroke="blue" stroke-width="2" />
<path d="M1151,365 L772,1283" stroke="blue" stroke-width="2" />
<path d="M3143,1033 L2671,234" stroke="blue" stroke-width="2" />
<path d="M2053,1120 L2662,277" stroke="blue" stroke-width="2" />
<path d="M2967,37 L2558,455" stroke="blue" stroke-width="2" />
<path d="M743,1089 L4037,280" stroke="blue" stroke-width="2" />
<path d="M1397,964 L1275,1339" stroke="blue" stroke-width="2" />
<path d="M1155,61 L2247,621" stroke="blue" stroke-width="2" />
<path d="M98,738 L1474,690" stroke="blue" stroke-width="2" />
<path d="M575,181 L1766,633" stroke="blue" stroke-width="2" />
<path d="M741,110 L631,1359" stroke="blue" stroke-width="2" />
<path d="M1793,722 L3221,594" stroke="blue" stroke-width="2" />
<path d="M3907,572 L2154,5" stroke="blue" stroke-width="2" />
<path d="M1638,218 L3871,285" stroke="blue" stroke-width="2" />
<path d="M2542,581 L2038,858" stroke="blue" stroke-width="2" />
<path d="M3618,1315 L3115,1029" stroke="blue" stroke-width="2" />
<path d="M3728,675 L1304,621" stroke="blue" stroke-width="2" />
<path d="M3975,579 L1557,166" stroke="blue" stroke-width="2" />
<path d="M2110,613 L302,526" stroke="blue" stroke-width="2" />
<path d="M908,1068 L1077,112" stroke="blue" stroke-width="2" />
<path d="M1965,255 L772,631" stroke="blue" stroke-width="2" />
<path d="M423,222 L3794,48" stroke="blue" stroke-width="2" />
<path d="M1419,820 L773,777" stroke="blue" stroke-width="2" />
<path d="M1452,1224 L2197,28" stroke="blue" stroke-width="2" />
<path d="M1386,638 L1144,364" stroke="blue" stroke-width="2" />
<path d="M3347,1038 L2539,807" stroke="blue" stroke-width="2" />
<path d="M3812,655 L2190,763" stroke="blue" stroke-width="2" />
<path d="M1934,611 L3289,1338" stroke="blue" stroke-width="2" />
<path d="M2784,687 L3237,1217" stroke="blue" stroke-width="2" />
<path d="M444,1329 L1114,318" stroke="blue" stroke-width="2" />
<path d="M4050,997 L3718,1011" stroke="blue" stroke-width="2" />
<path d="M2492,37 L877,419" stroke="blue" stroke-width="2" />
<path d="M2291,1028 L831,789" stroke="blue" stroke-width="2" />
<path d="M65,986 L848,506" stroke="blue" stroke-width="2" />
<path d="M3058,925 L66,433" stroke="blue" stroke-width="2" />
<path d="M2653,520 L2713,945" stroke="blue" stroke-width="2" />
<path d="M2677,980 L433,1357" stroke="blue" stroke-width="2" />
<path d="M2386,857 L59,507" stroke="blue" stroke-width="2" />
<path d="M2423,546 L1907,927" stroke="blue" stroke-width="2" />
<path d="M2465,173 L892,174" stroke="blue" stroke-width="2" />
<path d="M2679,946 L836,264" stroke="blue" stroke-width="2" />
<path d="M3142,933 L2368,695" stroke="blue" stroke-width="2" />
<path d="M2416,264 L2563,555" stroke="blue" stroke-width="2" />
<path d="M518,265 L1272,402" stroke="blue" stroke-width="2" />
<path d="M715,292 L3233,644" stroke="blue" stroke-width="2" />
<path d="M2496,229 L1301,37" stroke="blue" stroke-width="2" />
<path d="M1244,1438 L1412,879" stroke="blue" stroke-width="2" />
<path d="M3561,1258 L3995,796" stroke="blue" stroke-width="2" />
<path d="M3097,1162 L2740,803" stroke="blue" stroke-width="2" />
<path d="M2238,423 L1264,1211" stroke="blue" stroke-width="2" />
<path d="M1570,923 L2516,58" stroke="blue" stroke-width="2" />
<path d="M2192,455 L1581,1374" stroke="blue" stroke-width="2" />
<path d="M994,1209 L1292,159" stroke="blue" stroke-width="2" />
<path d="M2701,1247 L1323,346" stroke="blue" stroke-width="2" />
<path d="M2107,178 L3000,942" stroke="blue" stroke-width="2" />
<path d="M1214,365 L2470,57" stroke="blue" stroke-width="2" />
<path d="M2196,1024 L669,941" stroke="blue" stroke-width="2" />
<path d="M1016,714 L2798,1284" stroke="blue" stroke-width="2" />
<path d="M1650,1150 L1536,162" stroke="blue" stroke-width="2" />
<path d="M502,684 L2224,651" stroke="blue" stroke-width="2" />
<path d="M2825,205 L1215,580" stroke="blue" stroke-width="2" />
<path d="M1951,845 L3535,408" stroke="blue" stroke-width="2" />
<path d="M1478,1347 L267,1135" stroke="blue" stroke-width="2" />
<path d="M489,444 L2052,261" stroke="blue" stroke-width="2" />
<path d="M1658,343 L3717,982" stroke="blue" stroke-width="2" />
<path d="M1020,606 L1674,883" stroke="blue" stroke-width="2" />
<path d="M687,1399 L3142,1161" stroke="blue" stroke-width="2" />
<path d="M1831,333 L3325,993" stroke="blue" stroke-width="2" />
<path d="M1037,622 L36,213" stroke="blue" stroke-width="2" />
<path d="M3027,559 L312,1395" stroke="blue" stroke-width="2" />
<path d="M2891,1004 L1196,1183" stroke="blue" stroke-width="2" />
<path d="M3119,6 L966,997" stroke="blue" stroke-width="2" />
<path d="M1044,460 L706,273" stroke="blue" stroke-width="2" />
<path d="M1112,694 L4062,254" stroke="blue" stroke-width="2" />
<path d="M3909,789 L1271,1368" stroke="blue" stroke-width="2" />
<path d="M2334,731 L856,563" stroke="blue" stroke-width="2" />
<path d="M2204,711 L343,1394" stroke="blue" stroke-width="2" />
<path d="M970,106 L498,1146" stroke="blue" stroke-width="2" />
<path d="M422,738 L2820,893" stroke="blue" stroke-width="2" />
<path d="M3993,202 L1058,1166" stroke="blue" stroke-width="2" />
<path d="M3684,1428 L493,1154" stroke="blue" stroke-width="2" />
<path d="M1538,759 L94,243" stroke="blue" stroke-width="2" />
<path d="M2507,469 L843,94" stroke="blue" stroke-width="2" />
<path d="M869,501 L760,192" stroke="blue" stroke-width="2" />
<path d="M3514,1360 L4014,31" stroke="blue" stroke-width="2" />
<path d="M842,469 L904,915" stroke="blue" stroke-width="2" />
<path d="M2730,361 L3446,199" stroke="blue" stroke-width="2" />
<path d="M1591,138 L2575,1080" stroke="blue" stroke-width="2" />
<path d="M2638,1250 L552,240" stroke="blue" stroke-width="2" />
<path d="M2522,966 L1958,651" stroke="blue" stroke-width="2" />
<path d="M460,562 L3631,1212" stroke="blue" stroke-width="2" />
<path d="M1150,795 L3501,1153" stroke="blue" stroke-width="2" />
<path d="M1612,544 L3795,967" stroke="blue" stroke-width="2" />
<path d="M53,745 L1252,1413" stroke="blue" stroke-width="2" />
<path d="M2630,596 L3349,138" stroke="blue" stroke-width="2" />
<path d="M2734,1326 L3176,1439" stroke="blue" stroke-width="2" />
<path d="M2026,913 L2162,1214" stroke="blue" stroke-width="2" />
<path d="M3966,651 L356,29" stroke="blue" stroke-width="2" />
<path d="M1525,753 L1673,1041" stroke="blue" stroke-width="2" />
<path d="M2764,661 L601,364" stroke="blue" stroke-width="2" />
<path d="M126,580 L3969,1287" stroke="blue" stroke-width="2" />
<path d="M2976,761 L3103,1079" stroke="blue" stroke-width="2" />
<path d="M1796,261 L3751,88" stroke="blue" stroke-width="2" />
<path d="M2306,1199 L2872,896" stroke="blue" stroke-width="2" />
<path d="M3844,662 L1762,570" stroke="blue" stroke-width="2" />
<path d="M1330,212 L1448,1426" stroke="blue" stroke-width="2" />
<path d="M2739,996 L392,615" stroke="blue" stroke-width="2" />
<path d="M3391,273 L2221,1250" stroke="blue" stroke-width="2" />
<path d="M2331,1118 L1657,1259" stroke="blue" stroke-width="2" />
<path d="M3739,707 L1534,349" stroke="blue" stroke-width="2" />
<path d="M2761,366 L1900,307" stroke="blue" stroke-width="2" />
<path d="M2671,110 L332,650" stroke="blue" stroke-width="2" />
<path d="M265,309 L1070,123" stroke="blue" stroke-width="2" />
<path d="M1907,246 L3557,815" stroke="blue" stroke-width="2" />
<path d="M3864,368 L1878,1027" stroke="blue" stroke-width="2" />
<path d="M1712,563 L2658,466" stroke="blue" stroke-width="2" />
<path d="M839,886 L1086,1180" stroke="blue" stroke-width="2" />
<path d="M229,539 L405,538" stroke="blue" stroke-width="2" />
<path d="M3587,1396 L1465,1098" stroke="blue" stroke-width="2" />
<path d="M1197,474 L3126,518" stroke="blue" stroke-width="2" />
<path d="M481,410 L1841,739" stroke="blue" stroke-width="2" />
<path d="M2880,1159 L3503,359" stroke="blue" stroke-width="2" />
<path d="M1765,1320 L936,677" stroke="blue" stroke-width="2" />
<path d="M3464,224 L3325,668" stroke="blue" stroke-width="2" />
<path d="M1794,225 L3045,906" stroke="blue" stroke-width="2" />
<path d="M2485,973 L1113,50" stroke="blue" stroke-width="2" />
<path d="M3901,1368 L743,863" stroke="blue" stroke-width="2" />
<path d="M2784,1024 L1262,1164" stroke="blue" stroke-width="2" />
<path d="M2494,882 L1486,1219" stroke="blue" stroke-width="2" />
<path d="M2526,1340 L3915,898" stroke="blue" stroke-width="2" />
<path d="M2933,445 L3834,335" stroke="blue" stroke-width="2" />
<path d="M1278,1197 L2731,92" stroke="blue" stroke-width="2" />
<path d="M176,1145 L3333,196" stroke="blue" stroke-width="2" />
<path d="M3108,534 L1362,1122" stroke="blue" stroke-width="2" />
<path d="M450,1220 L827,507" stroke="blue" stroke-width="2" />
<path d="M3122,611 L670,5" stroke="blue" stroke-width="2" />
<path d="M1816,955 L877,415" stroke="blue" stroke-width="2" />
<path d="M2380,853 L2795,102" stroke="blue" stroke-width="2" />
<path d="M1841,471 L2812,768" stroke="blue" stroke-width="2" />
<path d="M170,964 L955,662" stroke="blue" stroke-width="2" />
<path d="M3897,588 L4004,774" stroke="blue" stroke-width="2" />
<path d="M3532,1154 L1206,148" stroke="blue" stroke-width="2" />
<path d="M491,1427 L458,972" stroke="blue" stroke-width="2" />
<path d="M992,476 L2316,1132" stroke="blue" stroke-width="2" />
<path d="M22,120 L914,727" stroke="blue" stroke-width="2" />
<path d="M2560,817 L1778,90" stroke="blue" stroke-width="2" />
<path d="M1337,796 L1529,207" stroke="blue" stroke-width="2" />
<path d="M3326,631 L3007,5" stroke="blue" stroke-width="2" />
<path d="M1827,1062 L3105,518" stroke="blue" stroke-width="2" />
<path d="M2049,1326 L2109,780" stroke="blue" stroke-width="2" />
<path d="M1858,476 L1771,1028" stroke="blue" stroke-width="2" />
<path d="M1013,752 L369,1299" stroke="blue" stroke-width="2" />
<path d="M2072,107 L3747,925" stroke="blue" stroke-width="2" />
<path d="M2079,347 L3140,1176" stroke="blue" stroke-width="2" />
<path d="M486,980 L308,974" stroke="blue" stroke-width="2" />
<path d="M2080,1149 L1231,1311" stroke="blue" stroke-width="2" />
<path d="M2077,975 L144,85" stroke="blue" stroke-width="2" />
<path d="M99,28 L1998,1068" stroke="blue" stroke-width="2" />
<path d="M2916,307 L2545,1418" stroke="blue" stroke-width="2" />
<path d="M1208,1275 L1239,1149" stroke="blue" stroke-width="2" />
<path d="M3855,161 L1965,1079" stroke="blue" stroke-width="2" />
<path d="M148,637 L1428,969" stroke="blue" stroke-width="2" />
<path d="M1983,367 L3249,622" stroke="blue" stroke-width="2" />
<path d="M1418,1002 L957,1302" stroke="blue" stroke-width="2" />
<path d="M2426,1280 L950,1339" stroke="blue" stroke-width="2" />
<path d="M3600,1330 L248,782" stroke="blue" stroke-width="2" />
<path d="M1511,972 L612,1216" stroke="blue" stroke-width="2" />
<path d="M3377,396 L2755,612" stroke="blue" stroke-width="2" />
<path d="M1758,341 L1363,1109" stroke="blue" stroke-width="2" />
<path d="M2484,43 L3985,1072" stroke="blue" stroke-width="2" />
<path d="M2886,44 L2552,388" stroke="blue" stroke-width="2" />
<path d="M843,1166 L3990,969" stroke="blue" stroke-width="2" />
<path d="M634,407 L50,993" stroke="blue" stroke-width="2" />
<path d="M1140,293 L756,950" stroke="blue" stroke-width="2" />
<path d="M675,766 L698,234" stroke="blue" stroke-width="2" />
<path d="M3325,20 L39,870" stroke="blue" stroke-width="2" />
<path d="M1110,314 L2795,1113" stroke="blue" stroke-width="2" />
<path d="M866,699 L2225,1139" stroke="blue" stroke-width="2" />
<path d="M3332,346 L1092,1142" stroke="blue" stroke-width="2" />
<path d="M3413,947 L929,1171" stroke="blue" stroke-width="2" />
<path d="M306,245 L1497,1255" stroke="blue" stroke-width="2" />
<path d="M3944,1199 L1332,336" stroke="blue" stroke-width="2" />
<path d="M1368,1437 L1167,898" stroke="blue" stroke-width="2" />
<path d="M3105,827 L3228,1002" stroke="blue" stroke-width="2" />
<path d="M1017,480 L3689,70" stroke="blue" stroke-width="2" />
<path d="M1348,376 L2543,519" stroke="blue" stroke-width="2" />
<path d="M633,244 L4027,1000" stroke="blue" stroke-width="2" />
<path d="M3212,596 L1713,634" stroke="blue" stroke-width="2" />
<path d="M3266,680 L76,1401" stroke="blue" stroke-width="2" />
<path d="M3337,237 L883,1299" stroke="blue" stroke-width="2" />
<path d="M147,863 L759,270" stroke="blue" stroke-width="2" />
<path d="M3695,1009 L2400,1022" stroke="blue" stroke-width="2" />
<path d="M966,960 L1130,851" stroke="blue" stroke-width="2" />
<path d="M3899,1142 L3519,443" stroke="blue" stroke-width="2" />
<path d="M3739,387 L1489,781" stroke="blue" stroke-width="2" />
<path d="M2976,453 L1580,1318" stroke="blue" stroke-width="2" />
<path d="M3311,481 L246,873" stroke="blue" stroke-width="2" />
<path d="M3255,136 L1498,241" stroke="blue" stroke-width="2" />
<path d="M2050,758 L3584,223" stroke="blue" stroke-width="2" />
<path d="M1687,845 L345,679" stroke="blue" stroke-width="2" />
<path d="M858,1205 L2033,619" stroke="blue" stroke-width="2" />
<path d="M747,1093 L1336,763" stroke="blue" stroke-width="2" />
<path d="M2833,1118 L3900,83" stroke="blue" stroke-width="2" />
<path d="M3612,213 L3136,298" stroke="blue" stroke-width="2" />
<path d="M1468,429 L1453,685" stroke="blue" stroke-width="2" />
<path d="M68,1361 L593,457" stroke="blue" stroke-width="2" />
<path d="M2453,819 L1854,1377" stroke="blue" stroke-width="2" />
<path d="M1288,1348 L1087,1042" stroke="blue" stroke-width="2" />
<path d="M3433,1115 L1540,1217" stroke="blue" stroke-width="2" />
<path d="M685,69 L2645,176" stroke="blue" stroke-width="2" />
<path d="M3012,752 L987,519" stroke="blue" stroke-width="2" />
<path d="M3184,822 L1972,156" stroke="blue" stroke-width="2" />
<path d="M505,110 L368,904" stroke="blue" stroke-width="2" />
<path d="M584,1059 L258,34" stroke="blue" stroke-width="2" />
<path d="M2882,511 L358,458" stroke="blue" stroke-width="2" />
<path d="M1520,643 L2988,1027" stroke="blue" stroke-width="2" />
<path d="M1359,540 L2167,1352" stroke="blue" stroke-width="2" />
<path d="M717,511 L1523,543" stroke="blue" stroke-width="2" />
<path d="M708,607 L4020,1349" stroke="blue" stroke-width="2" />
<path d="M1005,71 L1221,572" stroke="blue" stroke-width="2" />
<path d="M3985,163 L2120,264" stroke="blue" stroke-width="2" />
<path d="M3190,571 L3505,830" stroke="blue" stroke-width="2" />
<path d="M960,342 L1828,1262" stroke="blue" stroke-width="2" />
<path d="M3149,1245 L111,304" stroke="blue" stroke-width="2" />
<path d="M2907,819 L2376,137" stroke="blue" stroke-width="2" />
<path d="M1254,844 L330,196" stroke="blue" stroke-width="2" />
<path d="M2524,323 L380,303" stroke="blue" stroke-width="2" />
<path d="M157,753 L1800,1052" stroke="blue" stroke-width="2" />
<path d="M2662,1073 L1666,1266" stroke="blue" stroke-width="2" />
<path d="M1648,189 L842,1386" stroke="blue" stroke-width="2" />
<path d="M2644,917 L587,468" stroke="blue" stroke-width="2" />
<path d="M1955,1262 L1670,929" stroke="blue" stroke-width="2" />
<path d="M2295,1373 L3218,1069" stroke="blue" stroke-width="2" />
<path d="M2892,963 L3128,217" stroke="blue" stroke-width="2" />
<path d="M2718,261 L971,1259" stroke="blue" stroke-width="2" />
<path d="M108,984 L3309,1402" stroke="blue" stroke-width="2" />
<path d="M9,1217 L3030,994" stroke="blue" stroke-width="2" />
<path d="M933,597 L3848,959" stroke="blue" stroke-width="2" />
<path d="M3743,813 L3119,262" stroke="blue" stroke-width="2" />
<path d="M716,1238 L2390,580" stroke="blue" stroke-width="2" />
<path d="M1409,935 L1317,967" stroke="blue" stroke-width="2" />
<path d="M250,1070 L430,1224" stroke="blue" stroke-width="2" />
<path d="M2061,987 L4036,755" stroke="blue" stroke-width="2" />
<path d="M116,824 L1090,1248" stroke="blue" stroke-width="2" />
<path d="M1633,684 L1136,460" stroke="blue" stroke-width="2" />
<path d="M3916,1111 L2819,640" stroke="blue" stroke-width="2" />
<path d="M2023,505 L3347,616" stroke="blue" stroke-width="2" />
<path d="M3072,1220 L2232,1410" stroke="blue" stroke-width="2" />
<path d="M3409,913 L2043,580" stroke="blue" stroke-width="2" />
<path d="M629,880 L4102,1387" stroke="blue" stroke-width="2" />
<path d="M1047,156 L3292,409" stroke="blue" stroke-width="2" />
<path d="M2421,1053 L395,645" stroke="blue" stroke-width="2" />
<path d="M1978,564 L2681,1183" stroke="blue" stroke-width="2" />
<path d="M526,756 L2680,1038" stroke="blue" stroke-width="2" />
<path d="M0,0 L4112,0" stroke="red" stroke-width="10" />
<path d="M4112,0 L4112,1443" stroke="red" stroke-width="10" />
<path d="M0,1443 L4112,1443" stroke="red" stroke-width="10" />
<path d="M0,1443 L0,0" stroke="red" stroke-width="10" />
</svg>