<?xml version="1.0" encoding="UTF-8"?>
<svg xmlns="http://www.w3.org/2000/svg" xmlns:xlink="http://www.w3.org/1999/xlink"
     width="10000" height="10000" viewBox="0 0 10000 10000">
<defs>
</defs>
<path d="M9032,1043 L4452,687" stroke="blue" stroke-width="2" />
<path d="M4413,571 L9711,177" stroke="blue" stroke-width="2" />
<path d="M685,11 L1983,401" stroke="blue" stroke-width="2" />
<path d="M6399,418 L1998,189" stroke="blue" stroke-width="2" />
<path d="M9912,598 L9463,1145" stroke="blue" stroke-width="2" />
<path d="M8897,761 L8088,1132" stroke="blue" stroke-width="2" />
<path d="M1907,864 L3738,100" stroke="blue" stroke-width="2" />
<path d="M3913,853 L9075,41" stroke="blue" stroke-width="2" />
<path d="M6697,936 L3116,423" stroke="blue" stroke-width="2" />
<path d="M3412,879 L7117,509" stroke="blue" stroke-width="2" />
<path d="M356,1135 L8342,282" stroke="blue" stroke-width="2" />
<path d="M3575,383 L8765,788" stroke="blue" stroke-width="2" />
<path d="M3655,1002 L9366,131" stroke="blue" stroke-width="2" />
<path d="M2633,466 L4837,822" stroke="blue" stroke-width="2" />
<path d="M1784,865 L5573,98" stroke="blue" stroke-width="2" />
<path d="M1544,729 L8504,963" stroke="blue" stroke-width="2" />
<path d="M5940,949 L3701,1239" stroke="blue" stroke-width="2" />
<path d="M662,947 L4495,408" stroke="blue" stroke-width="2" />
<path d="M1511,516 L6497,648" stroke="blue" stroke-width="2" />
<path d="M8304,224 L7407,1170" stroke="blue" stroke-width="2" />
<path d="M5449,1081 L3287,455" stroke="blue" stroke-width="2" />
<path d="M669,1085 L1347,1098" stroke="blue" stroke-width="2" />
<path d="M207,252 L8261,119" stroke="blue" stroke-width="2" />
<path d="M7703,543 L838,1060" stroke="blue" stroke-width="2" />
<path d="M6216,138 L8392,848" stroke="blue" stroke-width="2" />
<path d="M7051,753 L5958,427" stroke="blue" stroke-width="2" />
<path d="M1653,945 L6462,983" stroke="blue" stroke-width="2" />
<path d="M1842,1174 L8518,791" stroke="blue" stroke-width="2" />
<path d="M3455,1 L2939,893" stroke="blue" stroke-width="2" />
<path d="M460,855 L1868,821" stroke="blue" stroke-width="2" />
<path d="M9804,1163 L7365,813" stroke="blue" stroke-width="2" />
<path d="M6240,843 L4003,7" stroke="blue" stroke-width="2" />
<path d="M8840,476 L8837,908" stroke="blue" stroke-width="2" />
<path d="M1573,744 L2218,46" stroke="blue" stroke-width="2" />
<path d="M8342,198 L3928,1031" stroke="blue" stroke-width="2" />
<path d="M5131,96 L9226,291" stroke="blue" stroke-width="2" />
<path d="M6680,1090 L7417,473" stroke="blue" stroke-width="2" />
<path d="M487,1182 L2555,975" stroke="blue" stroke-width="2" />
<path d="M4969,1056 L2869,1128" stroke="blue" stroke-width="2" />
<path d="M9658,579 L5026,931" stroke="blue" stroke-width="2" />
<path d="M7944,786 L2547,358" stroke="blue" stroke-width="2" />
<path d="M3982,1072 L280,1165" stroke="blue" stroke-width="2" />
<path d="M8360,610 L3910,870" stroke="blue" stroke-width="2" />
<path d="M8821,839 L9352,841" stroke="blue" stroke-width="2" />
<path d="M1078,12 L9540,802" stroke="blue" stroke-width="2" />
<path d="M8658,530 L3662,214" stroke="blue" stroke-width="2" />
<path d="M7541,777 L9730,568" stroke="blue" stroke-width="2" />
<path d="M4303,42 L3387,32" stroke="blue" stroke-width="2" />
<path d="M8456,1210 L4942,280" stroke="blue" stroke-width="2" />
<path d="M127,170 L7396,103" stroke="blue" stroke-width="2" />
<path d="M3064,946 L1395,1021" stroke="blue" stroke-width="2" />
<path d="M4803,369 L6149,833" stroke="blue" stroke-width="2" />
<path d="M8907,818 L1400,37" stroke="blue" stroke-width="2" />
<path d="M7843,962 L5964,617" stroke="blue" stroke-width="2" />
<path d="M9176,456 L1673,1033" stroke="blue" stroke-width="2" />
<path d="M3463,159 L1398,1249" stroke="blue" stroke-width="2" />
<path d="M473,1068 L7369,1141" stroke="blue" stroke-width="2" />
<path d="M4870,1221 L8578,603" stroke="blue" stroke-width="2" />
<path d="M7945,163 L3172,878" stroke="blue" stroke-width="2" />
<path d="M2118,1160 L7766,236" stroke="blue" stroke-width="2" />
<path d="M3121,472 L412,878" stroke="blue" stroke-width="2" />
<path d="M1106,492 L9679,75" stroke="blue" stroke-width="2" />
<path d="M5041,789 L9486,101" stroke="blue" stroke-width="2" />
<path d="M7352,167 L4176,461" stroke="blue" stroke-width="2" />
<path d="M7130,345 L3709,300" stroke="blue" stroke-width="2" />
<path d="M6561,813 L3749,691" stroke="blue" stroke-width="2" />
<path d="M7411,375 L6604,424" stroke="blue" stroke-width="2" />
<path d="M3808,1190 L8368,584" stroke="blue" stroke-width="2" />
<path d="M1115,720 L4406,533" stroke="blue" stroke-width="2" />
<path d="M4527,925 L2808,851" stroke="blue" stroke-width="2" />
<path d="M1333,914 L3477,858" stroke="blue" stroke-width="2" />
<path d="M8592,21 L8688,528" stroke="blue" stroke-width="2" />
<path d="M6373,412 L1192,230" stroke="blue" stroke-width="2" />
<path d="M9469,1072 L7960,985" stroke="blue" stroke-width="2" />
<path d="M5970,630 L3078,309" stroke="blue" stroke-width="2" />
<path d="M9524,1172 L7318,83" stroke="blue" stroke-width="2" />
<path d="M9412,1076 L4650,1173" stroke="blue" stroke-width="2" />
<path d="M2454,1222 L1338,295" stroke="blue" stroke-width="2" />
<path d="M3538,1267 L7684,120" stroke="blue" stroke-width="2" />
<path d="M539,572 L4762,663" stroke="blue" stroke-width="2" />
<path d="M8247,72 L403,372" stroke="blue" stroke-width="2" />
<path d="M538,945 L8687,492" stroke="blue" stroke-width="2" />
<path d="M746,899 L5043,277" stroke="blue" stroke-width="2" />
<path d="M9716,66 L212,958" stroke="blue" stroke-width="2" />
<path d="M3272,1256 L4818,506" stroke="blue" stroke-width="2" />
<path d="M4982,1029 L4282,701" stroke="blue" stroke-width="2" />
<path d="M8746,442 L4356,295" stroke="blue" stroke-width="2" />
<path d="M4341,407 L8437,885" stroke="blue" stroke-width="2" />
<path d="M1062,790 L2743,898" stroke="blue" stroke-width="2" />
<path d="M5336,567 L9121,35" stroke="blue" stroke-width="2" />
<path d="M3743,533 L7996,732" stroke="blue" stroke-width="2" />
<path d="M9881,455 L9235,659" stroke="blue" stroke-width="2" />
<path d="M7065,659 L671,702" stroke="blue" stroke-width="2" />
<path d="M268,1229 L9011,425" stroke="blue" stroke-width="2" />
<path d="M8564,870 L2597,780" stroke="blue" stroke-width="2" />
<path d="M3029,411 L7790,803" stroke="blue" stroke-width="2" />
<path d="M5232,525 L301,903" stroke="blue" stroke-width="2" />
<path d="M5479,839 L1167,1035" stroke="blue" stroke-width="2" />
<path d="M3398,222 L5670,231" stroke="blue" stroke-width="2" />
<path d="M5335,1063 L607,1122" stroke="blue" stroke-width="2" />
<path d="M6471,1230 L519,243" stroke="blue" stroke-width="2" />
<path d="M7994,723 L9217,318" stroke="blue" stroke-width="2" />
<path d="M12,1092 L1745,689" stroke="blue" stroke-width="2" />
<path d="M7151,110 L7014,10" stroke="blue" stroke-width="2" />
<path d="M7592,834 L4226,230" stroke="blue" stroke-width="2" />
<path d="M9833,576 L9681,911" stroke="blue" stroke-width="2" />
<path d="M7634,36 L8605,838" stroke="blue" stroke-width="2" />
<path d="M2129,399 L6337,567" stroke="blue" stroke-width="2" />
<path d="M1012,876 L7816,335" stroke="blue" stroke-width="2" />
<path d="M7582,922 L2273,1217" stroke="blue" stroke-width="2" />
<path d="M9079,1137 L7080,979" stroke="blue" stroke-width="2" />
<path d="M8159,738 L3245,966" stroke="blue" stroke-width="2" />
<path d="M7758,677 L2758,694" stroke="blue" stroke-width="2" />
<path d="M3698,831 L5107,418" stroke="blue" stroke-width="2" />
<path d="M9701,450 L4282,1214" stroke="blue" stroke-width="2" />
<path d="M1314,1187 L2843,1143" stroke="blue" stroke-width="2" />
<path d="M8675,452 L8336,464" stroke="blue" stroke-width="2" />
<path d="M5138,281 L5739,1013" stroke="blue" stroke-width="2" />
<path d="M1547,751 L144,360" stroke="blue" stroke-width="2" />
<path d="M6317,524 L1929,198" stroke="blue" stroke-width="2" />
<path d="M2518,72 L8121,203" stroke="blue" stroke-width="2" />
<path d="M5993,1191 L5437,1162" stroke="blue" stroke-width="2" />
<path d="M9619,354 L7865,994" stroke="blue" stroke-width="2" />
<path d="M4457,1099 L4756,862" stroke="blue" stroke-width="2" />
<path d="M8820,1101 L7637,477" stroke="blue" stroke-width="2" />
<path d="M3970,285 L3364,690" stroke="blue" stroke-width="2" />
<path d="M6031,671 L2812,1213" stroke="blue" stroke-width="2" />
<path d="M114,439 L5164,33" stroke="blue" stroke-width="2" />
<path d="M701,139 L710,254" stroke="blue" stroke-width="2" />
<path d="M1265,18 L8620,995" stroke="blue" stroke-width="2" />
<path d="M2263,456 L3098,573" stroke="blue" stroke-width="2" />
<path d="M9580,839 L6617,55" stroke="blue" stroke-width="2" />
<path d="M9615,948 L827,1018" stroke="blue" stroke-width="2" />
<path d="M4824,673 L4880,286" stroke="blue" stroke-width="2" />
<path d="M5699,807 L7575,1056" stroke="blue" stroke-width="2" />
<path d="M5905,446 L6389,684" stroke="blue" stroke-width="2" />
<path d="M3144,587 L2617,212" stroke="blue" stroke-width="2" />
<path d="M282,59 L982,29" stroke="blue" stroke-width="2" />
<path d="M5811,168 L6936,656" stroke="blue" stroke-width="2" />
<path d="M0,1175 L5376,1158" stroke="blue" stroke-width="2" />
<path d="M1962,1044 L7145,4" stroke="blue" stroke-width="2" />
<path d="M3687,913 L7473,184" stroke="blue" stroke-width="2" />
<path d="M20,829 L477,220" stroke="blue" stroke-width="2" />
<path d="M1428,457 L3025,1041" stroke="blue" stroke-width="2" />
<path d="M2211,1189 L9842,216" stroke="blue" stroke-width="2" />
<path d="M9758,151 L7089,255" stroke="blue" stroke-width="2" />
<path d="M3703,728 L9456,670" stroke="blue" stroke-width="2" />
<path d="M481,889 L968,984" stroke="blue" stroke-width="2" />
<path d="M5783,61 L7792,462" stroke="blue" stroke-width="2" />
<path d="M9743,356 L8915,16" stroke="blue" stroke-width="2" />
<path d="M7359,1157 L9877,936" stroke="blue" stroke-width="2" />
<path d="M2316,447 L2864,1259" stroke="blue" stroke-width="2" />
<path d="M624,357 L1369,932" stroke="blue" stroke-width="2" />
<path d="M4786,998 L537,951" stroke="blue" stroke-width="2" />
<path d="M7876,234 L1609,54" stroke="blue" stroke-width="2" />
<path d="M4461,57 L1810,624" stroke="blue" stroke-width="2" />
<path d="M6537,1052 L9177,832" stroke="blue" stroke-width="2" />
<path d="M5589,749 L1488,85" stroke="blue" stroke-width="2" />
<path d="M9603,116 L4859,527" stroke="blue" stroke-width="2" />
<path d="M9749,573 L3638,888" stroke="blue" stroke-width="2" />
<path d="M3460,413 L3909,482" stroke="blue" stroke-width="2" />
<path d="M1655,257 L5093,463" stroke="blue" stroke-width="2" />
<path d="M9934,574 L7331,969" stroke="blue" stroke-width="2" />
<path d="M6795,521 L1733,105" stroke="blue" stroke-width="2" />
<path d="M4757,410 L344,1030" stroke="blue" stroke-width="2" />
<path d="M2548,6 L3148,1166" stroke="blue" stroke-width="2" />
<path d="M3497,947 L6048,1152" stroke="blue" stroke-width="2" />
<path d="M2763,327 L9719,739" stroke="blue" stroke-width="2" />
<path d="M1962,477 L2665,156" stroke="blue" stroke-width="2" />
<path d="M8292,973 L1614,996" stroke="blue" stroke-width="2" />
<path d="M5138,221 L2537,236" stroke="blue" stroke-width="2" />
<path d="M4518,409 L2405,148" stroke="blue" stroke-width="2" />
<path d="M3197,731 L6372,1262" stroke="blue" stroke-width="2" />
<path d="M613,585 L7193,1268" stroke="blue" stroke-width="2" />
<path d="M7135,213 L3708,328" stroke="blue" stroke-width="2" />
<path d="M2715,1069 L8086,1227" stroke="blue" stroke-width="2" />
<path d="M609,679 L1505,351" stroke="blue" stroke-width="2" />
<path d="M2359,895 L8427,308" stroke="blue" stroke-width="2" />
<path d="M8396,811 L9598,1010" stroke="blue" stroke-width="2" />
<path d="M2446,808 L3351,663" stroke="blue" stroke-width="2" />
<path d="M8560,1110 L7439,832" stroke="blue" stroke-width="2" />
<path d="M7864,671 L6428,1080" stroke="blue" stroke-width="2" />
<path d="M7619,821 L733,302" stroke="blue" stroke-width="2" />
<path d="M7911,365 L1878,391" stroke="blue" stroke-width="2" />
<path d="M95,375 L547,283" stroke="blue" stroke-width="2" />
<path d="M1430,294 L4796,1229" stroke="blue" stroke-width="2" />
<path d="M1634,602 L3899,1056" stroke="blue" stroke-width="2" />
<path d="M3130,25 L2300,307" stroke="blue" stroke-width="2" />
<path d="M5893,844 L4016,868" stroke="blue" stroke-width="2" />
<path d="M9146,785 L5083,1036" stroke="blue" stroke-width="2" />
<path d="M1341,225 L340,935" stroke="blue" stroke-width="2" />
<path d="M7648,312 L1402,107" stroke="blue" stroke-width="2" />
<path d="M8636,1264 L2577,192" stroke="blue" stroke-width="2" />
<path d="M424,633 L9142,807" stroke="blue" stroke-width="2" />
<path d="M5614,27 L4106,899" stroke="blue" stroke-width="2" />
<path d="M6059,374 L313,783" stroke="blue" stroke-width="2" />
<path d="M2826,522 L3048,290" stroke="blue" stroke-width="2" />
<path d="M7767,1151 L1045,926" stroke="blue" stroke-width="2" />
<path d="M5500,909 L9261,842" stroke="blue" stroke-width="2" />
<path d="M5411,160 L3667,1103" stroke="blue" stroke-width="2" />
<path d="M1016,54 L4986,486" stroke="blue" stroke-width="2" />
<path d="M6196,195 L7698,163" stroke="blue" stroke-width="2" />
<path d="M3964,882 L5190,817" stroke="blue" stroke-width="2" />
<path d="M3609,584 L7067,731" stroke="blue" stroke-width="2" />
<path d="M3727,831 L5020,1228" stroke="blue" stroke-width="2" />
<path d="M2827,915 L7664,1265" stroke="blue" stroke-width="2" />
<path d="M6307,591 L3129,1115" stroke="blue" stroke-width="2" />
<path d="M119,1251 L4944,34" stroke="blue" stroke-width="2" />
<path d="M3032,808 L8882,940" stroke="blue" stroke-width="2" />
<path d="M4414,492 L9780,257" stroke="blue" stroke-width="2" />
<path d="M6792,48 L3834,90" stroke="blue" stroke-width="2" />
<path d="M4966,861 L8432,20" stroke="blue" stroke-width="2" />
<path d="M3206,611 L3341,498" stroke="blue" stroke-width="2" />
<path d="M4869,690 L6187,1240" stroke="blue" stroke-width="2" />
<path d="M1648,867 L6107,898" stroke="blue" stroke-width="2" />
<path d="M6751,1234 L7245,613" stroke="blue" stroke-width="2" />
<path d="M7775,253 L6049,323" stroke="blue" stroke-width="2" />
<path d="M5152,263 L8094,240" stroke="blue" stroke-width="2" />
<path d="M2442,806 L1575,1199" stroke="blue" stroke-width="2" />
<path d="M8171,338 L3122,928" stroke="blue" stroke-width="2" />
<path d="M671,549 L9496,555" stroke="blue" stroke-width="2" />
<path d="M6142,221 L4268,1016" stroke="blue" stroke-width="2" />
<path d="M5135,405 L2749,613" stroke="blue" stroke-width="2" />
<path d="M4511,320 L376,305" stroke="blue" stroke-width="2" />
<path d="M5242,719 L230,366" stroke="blue" stroke-width="2" />
<path d="M8642,15 L890,992" stroke="blue" stroke-width="2" />
<path d="M4491,109 L413,1001" stroke="blue" stroke-width="2" />
<path d="M687,181 L8933,1159" stroke="blue" stroke-width="2" />
<path d="M9277,9 L9537,802" stroke="blue" stroke-width="2" />
<path d="M1370,313 L9369,860" stroke="blue" stroke-width="2" />
<path d="M9813,952 L576,1209" stroke="blue" stroke-width="2" />
<path d="M8158,467 L6989,425" stroke="blue" stroke-width="2" />
<path d="M4009,631 L817,475" stroke="blue" stroke-width="2" />
<path d="M5291,514 L3650,1043" stroke="blue" stroke-width="2" />
<path d="M1768,473 L511,948" stroke="blue" stroke-width="2" />
<path d="M4064,926 L4763,519" stroke="blue" stroke-width="2" />
<path d="M5885,478 L8605,1128" stroke="blue" stroke-width="2" />
<path d="M932,1121 L7927,992" stroke="blue" stroke-width="2" />
<path d="M1088,803 L7162,587" stroke="blue" stroke-width="2" />
<path d="M4406,582 L1428,92" stroke="blue" stroke-width="2" />
<path d="M5238,284 L1973,150" stroke="blue" stroke-width="2" />
<path d="M2516,660 L7027,179" stroke="blue" stroke-width="2" />
<path d="M6959,1210 L7827,29" stroke="blue" stroke-width="2" />
<path d="M3340,77 L6356,36" stroke="blue" stroke-width="2" />
<path d="M506,1118 L5056,161" stroke="blue" stroke-width="2" />
<path d="M2228,1116 L2641,487" stroke="blue" stroke-width="2" />
<path d="M2502,1066 L7209,1242" stroke="blue" stroke-width="2" />
<path d="M9391,0 L8575,140" stroke="blue" stroke-width="2" />
<path d="M8551,353 L3608,460" stroke="blue" stroke-width="2" />
<path d="M406,409 L3448,373" stroke="blue" stroke-width="2" />
<path d="M8767,495 L7748,854" stroke="blue" stroke-width="2" />
<path d="M9044,1075 L8345,939" stroke="blue" stroke-width="2" />
<path d="M7521,995 L7197,529" stroke="blue" stroke-width="2" />
<path d="M8816,437 L1074,39" stroke="blue" stroke-width="2" />
<path d="M5879,583 L8702,939" stroke="blue" stroke-width="2" />
<path d="M4362,359 L2100,652" stroke="blue" stroke-width="2" />
<path d="M5123,1110 L3162,219" stroke="blue" stroke-width="2" />
<path d="M9118,1244 L7923,164" stroke="blue" stroke-width="2" />
<path d="M5343,1108 L894,1181" stroke="blue" stroke-width="2" />
<path d="M8741,185 L6512,874" stroke="blue" stroke-width="2" />
<path d="M2482,366 L4998,809" stroke="blue" stroke-width="2" />
<path d="M6957,68 L5659,565" stroke="blue" stroke-width="2" />
<path d="M7453,260 L6488,203" stroke="blue" stroke-width="2" />
<path d="M285,728 L3007,919" stroke="blue" stroke-width="2" />
<path d="M266,178 L8078,1118" stroke="blue" stroke-width="2" />
<path d="M713,478 L2678,536" stroke="blue" stroke-width="2" />
<path d="M5795,696 L7359,262" stroke="blue" stroke-width="2" />
<path d="M5412,7 L3525,666" stroke="blue" stroke-width="2" />
<path d="M4026,1208 L2581,210" stroke="blue" stroke-width="2" />
<path d="M8540,1141 L7879,76" stroke="blue" stroke-width="2" />
<path d="M6933,1107 L3241,1040" stroke="blue" stroke-width="2" />
<path d="M1553,727 L9021,463" stroke="blue" stroke-width="2" />
<path d="M9464,1200 L159,1155" stroke="blue" stroke-width="2" />
<path d="M8760,130 L2537,260" stroke="blue" stroke-width="2" />
<path d="M5981,116 L6319,319" stroke="blue" stroke-width="2" />
<path d="M5354,1241 L1185,563" stroke="blue" stroke-width="2" />
<path d="M9820,1056 L1424,611" stroke="blue" stroke-width="2" />
<path d="M1659,895 L8119,792" stroke="blue" stroke-width="2" />
<path d="M99,223 L9110,1062" stroke="blue" stroke-width="2" />
<path d="M8863,1040 L8985,491" stroke="blue" stroke-width="2" />
<path d="M1205,412 L5772,1160" stroke="blue" stroke-width="2" />
<path d="M4754,593 L7430,213" stroke="blue" stroke-width="2" />
<path d="M5764,632 L7243,942" stroke="blue" stroke-width="2" />
<path d="M4441,1250 L6295,542" stroke="blue" stroke-width="2" />
<path d="M1558,993 L9224,808" stroke="blue" stroke-width="2" />
<path d="M8873,1261 L1275,290" stroke="blue" stroke-width="2" />
<path d="M9693,915 L4600,542" stroke="blue" stroke-width="2" />
<path d="M942,1163 L3788,538" stroke="blue" stroke-width="2" />
<path d="M3210,296 L8935,1" stroke="blue" stroke-width="2" />
<path d="M2606,926 L5690,856" stroke="blue" stroke-width="2" />
<path d="M6152,215 L1275,1263" stroke="blue" stroke-width="2" />
<path d="M4354,1191 L7391,738" stroke="blue" stroke-width="2" />
<path d="M55,0 L518,526" stroke="blue" stroke-width="2" />
<path d="M5860,531 L7010,248" stroke="blue" stroke-width="2" />
<path d="M7656,1174 L5129,1209" stroke="blue" stroke-width="2" />
<path d="M1329,751 L2789,971" stroke="blue" stroke-width="2" />
<path d="M3479,588 L5584,1151" stroke="blue" stroke-width="2" />
<path d="M7148,26 L5890,821" stroke="blue" stroke-width="2" />
<path d="M9298,1126 L5166,1062" stroke="blue" stroke-width="2" />
<path d="M5757,652 L234,738" stroke="blue" stroke-width="2" />
<path d="M4860,183 L9024,82" stroke="blue" stroke-width="2" />
<path d="M1934,751 L1676,815" stroke="blue" stroke-width="2" />
<path d="M809,1006 L9733,764" stroke="blue" stroke-width="2" />
<path d="M3102,1110 L1994,166" stroke="blue" stroke-width="2" />
<path d="M7867,197 L7843,389" stroke="blue" stroke-width="2" />
<path d="M9528,366 L9449,435" stroke="blue" stroke-width="2" />
<path d="M4123,944 L425,532" stroke="blue" stroke-width="2" />
<path d="M5701,141 L5296,375" stroke="blue" stroke-width="2" />
<path d="M203,414 L7157,952" stroke="blue" stroke-width="2" />
<path d="M6758,618 L1752,584" stroke="blue" stroke-width="2" />
<path d="M7323,294 L5565,309" stroke="blue" stroke-width="2" />
<path d="M2213,4 L520,744" stroke="blue" stroke-width="2" />
<path d="M9354,511 L2471,386" stroke="blue" stroke-width="2" />
<path d="M5630,249 L5429,886" stroke="blue" stroke-width="2" />
<path d="M4005,647 L1819,161" stroke="blue" stroke-width="2" />
<path d="M6366,1023 L8558,148" stroke="blue" stroke-width="2" />
<path d="M7048,426 L3964,558" stroke="blue" stroke-width="2" />
<path d="M7434,347 L2192,491" stroke="blue" stroke-width="2" />
<path d="M1207,1258 L9824,218" stroke="blue" stroke-width="2" />
<path d="M2442,856 L4362,647" stroke="blue" stroke-width="2" />
<path d="M3436,814 L7914,520" stroke="blue" stroke-width="2" />
<path d="M8347,780 L994,239" stroke="blue" stroke-width="2" />
<path d="M6119,305 L483,1014" stroke="blue" stroke-width="2" />
<path d="M4063,106 L3804,81" stroke="blue" stroke-width="2" />
<path d="M8897,382 L7550,69" stroke="blue" stroke-width="2" />
<path d="M8181,728 L9811,485" stroke="blue" stroke-width="2" />
<path d="M2665,429 L3476,1130" stroke="blue" stroke-width="2" />
<path d="M9843,44 L9697,186" stroke="blue" stroke-width="2" />
<path d="M2708,769 L5119,683" stroke="blue" stroke-width="2" />
<path d="M80,987 L3086,6" stroke="blue" stroke-width="2" />
<path d="M6947,701 L8837,193" stroke="blue" stroke-width="2" />
<path d="M8614,502 L3277,971" stroke="blue" stroke-width="2" />
<path d="M2819,716 L6542,141" stroke="blue" stroke-width="2" />
<path d="M8119,212 L8103,775" stroke="blue" stroke-width="2" />
<path d="M4837,579 L2076,998" stroke="blue" stroke-width="2" />
<path d="M8740,516 L469,1210" stroke="blue" stroke-width="2" />
<path d="M9679,579 L6744,260" stroke="blue" stroke-width="2" />
<path d="M5862,1165 L2314,727" stroke="blue" stroke-width="2" />
<path d="M838,874 L920,329" stroke="blue" stroke-width="2" />
<path d="M869,189 L7348,20" stroke="blue" stroke-width="2" />
<path d="M5332,893 L8857,482" stroke="blue" stroke-width="2" />
<path d="M1689,265 L2533,255" stroke="blue" stroke-width="2" />
<path d="M511,1266 L7859,1095" stroke="blue" stroke-width="2" />
<path d="M3652,546 L8765,506" stroke="blue" stroke-width="2" />
<path d="M2844,206 L8943,806" stroke="blue" stroke-width="2" />
<path d="M1231,455 L1159,936" stroke="blue" stroke-width="2" />
<path d="M890,303 L5256,235" stroke="blue" stroke-width="2" />
<path d="M8104,643 L3558,988" stroke="blue" stroke-width="2" />
<path d="M628,466 L6653,1032" stroke="blue" stroke-width="2" />
<path d="M8587,945 L1907,518" stroke="blue" stroke-width="2" />
<path d="M2779,769 L7064,366" stroke="blue" stroke-width="2" />
<path d="M3233,979 L6697,424" stroke="blue" stroke-width="2" />
<path d="M1905,1102 L6137,1030" stroke="blue" stroke-width="2" />
<path d="M8625,320 L1693,927" stroke="blue" stroke-width="2" />
<path d="M2944,243 L5093,1068" stroke="blue" stroke-width="2" />
<path d="M3902,247 L4417,877" stroke="blue" stroke-width="2" />
<path d="M6030,1167 L8410,183" stroke="blue" stroke-width="2" />
<path d="M901,1012 L2202,535" stroke="blue" stroke-width="2" />
<path d="M3495,1053 L5733,654" stroke="blue" stroke-width="2" />
<path d="M919,172 L1111,119" stroke="blue" stroke-width="2" />
<path d="M8619,1103 L7912,200" stroke="blue" stroke-width="2" />
<path d="M1246,1178 L9112,735" stroke="blue" stroke-width="2" />
<path d="M5705,74 L9048,4" stroke="blue" stroke-width="2" />
<path d="M8889,549 L7236,1183" stroke="blue" stroke-width="2" />
<path d="M9609,940 L5490,459" stroke="blue" stroke-width="2" />
<path d="M6598,555 L3606,1065" stroke="blue" stroke-width="2" />
<path d="M7691,962 L2682,1085" stroke="blue" stroke-width="2" />
<path d="M2206,1117 L1106,1119" stroke="blue" stroke-width="2" />
<path d="M351,330 L1715,499" stroke="blue" stroke-width="2" />
<path d="M9406,127 L5690,445" stroke="blue" stroke-width="2" />
<path d="M9254,998 L5137,105" stroke="blue" stroke-width="2" />
<path d="M4480,1247 L3053,443" stroke="blue" stroke-width="2" />
<path d="M6994,226 L1076,1163" stroke="blue" stroke-width="2" />
<path d="M8464,294 L3440,429" stroke="blue" stroke-width="2" />
<path d="M2801,227 L2168,1205" stroke="blue" stroke-width="2" />
<path d="M3848,243 L2134,388" stroke="blue" stroke-width="2" />
<path d="M2793,847 L4001,629" stroke="blue" stroke-width="2" />
<path d="M621,194 L9385,517" stroke="blue" stroke-width="2" />
<path d="M3804,351 L8144,249" stroke="blue" stroke-width="2" />
<path d="M6204,755 L2625,633" stroke="blue" stroke-width="2" />
<path d="M3524,732 L2613,1213" stroke="blue" stroke-width="2" />
<path d="M5301,682 L6901,1175" stroke="blue" stroke-width="2" />
<path d="M5375,1199 L6340,1047" stroke="blue" stroke-width="2" />
<path d="M2471,299 L697,38" stroke="blue" stroke-width="2" />
<path d="M5181,194 L4199,927" stroke="blue" stroke-width="2" />
<path d="M7466,787 L9494,1029" stroke="blue" stroke-width="2" />
<path d="M5370,722 L3827,1085" stroke="blue" stroke-width="2" />
<path d="M7136,428 L378,589" stroke="blue" stroke-width="2" />
<path d="M5587,616 L7688,668" stroke="blue" stroke-width="2" />
<path d="M8795,192 L2181,379" stroke="blue" stroke-width="2" />
<path d="M5177,1076 L7878,174" stroke="blue" stroke-width="2" />
<path d="M8446,1030 L7843,597" stroke="blue" stroke-width="2" />
<path d="M2749,757 L1132,56" stroke="blue" stroke-width="2" />
<path d="M5192,535 L1841,193" stroke="blue" stroke-width="2" />
<path d="M9745,979 L587,314" stroke="blue" stroke-width="2" />
<path d="M2640,1225 L3351,815" stroke="blue" stroke-width="2" />
<path d="M4106,727 L8537,158" stroke="blue" stroke-width="2" />
<path d="M7052,338 L8828,237" stroke="blue" stroke-width="2" />
<path d="M438,376 L1824,868" stroke="blue" stroke-width="2" />
<path d="M8171,158 L3371,47" stroke="blue" stroke-width="2" />
<path d="M7747,850 L1553,1243" stroke="blue" stroke-width="2" />
<path d="M2825,124 L3485,610" stroke="blue" stroke-width="2" />
<path d="M4159,230 L4474,719" stroke="blue" stroke-width="2" />
<path d="M9012,579 L5068,233" stroke="blue" stroke-width="2" />
<path d="M312,1088 L9124,882" stroke="blue" stroke-width="2" />
<path d="M9884,698 L4650,295" stroke="blue" stroke-width="2" />
<path d="M2154,751 L5245,800" stroke="blue" stroke-width="2" />
<path d="M5519,974 L6344,146" stroke="blue" stroke-width="2" />
<path d="M7329,46 L8935,548" stroke="blue" stroke-width="2" />
<path d="M4211,476 L5508,706" stroke="blue" stroke-width="2" />
<path d="M1761,1267 L3782,144" stroke="blue" stroke-width="2" />
<path d="M3631,452 L8320,1135" stroke="blue" stroke-width="2" />
<path d="M5111,699 L6550,148" stroke="blue" stroke-width="2" />
<path d="M1788,235 L319,1064" stroke="blue" stroke-width="2" />
<path d="M7353,206 L4011,393" stroke="blue" stroke-width="2" />
<path d="M1836,783 L8542,971" stroke="blue" stroke-width="2" />
<path d="M4102,364 L8771,927" stroke="blue" stroke-width="2" />
<path d="M3504,675 L3417,775" stroke="blue" stroke-width="2" />
<path d="M7882,443 L2726,1267" stroke="blue" stroke-width="2" />
<path d="M9838,162 L9805,737" stroke="blue" stroke-width="2" />
<path d="M4453,472 L4468,736" stroke="blue" stroke-width="2" />
<path d="M6735,1247 L6021,790" stroke="blue" stroke-width="2" />
<path d="M3280,778 L5695,695" stroke="blue" stroke-width="2" />
<path d="M9901,19 L4523,501" stroke="blue" stroke-width="2" />
<path d="M632,894 L5650,885" stroke="blue" stroke-width="2" />
<path d="M1845,314 L3785,750" stroke="blue" stroke-width="2" />
<path d="M4584,1071 L7476,416" stroke="blue" stroke-width="2" />
<path d="M3903,815 L8940,417" stroke="blue" stroke-width="2" />
<path d="M398,1225 L8378,1190" stroke="blue" stroke-width="2" />
<path d="M5287,428 L2192,693" stroke="blue" stroke-width="2" />
<path d="M7891,503 L3579,1" stroke="blue" stroke-width="2" />
<path d="M7068,794 L6758,284" stroke="blue" stroke-width="2" />
<path d="M377,1078 L981,476" stroke="blue" stroke-width="2" />
<path d="M4998,368 L5409,843" stroke="blue" stroke-width="2" />
<path d="M4673,803 L4720,1058" stroke="blue" stroke-width="2" />
<path d="M1179,806 L2756,1175" stroke="blue" stroke-width="2" />
<path d="M4237,868 L9339,123" stroke="blue" stroke-width="2" />
<path d="M423,1112 L5402,153" stroke="blue" stroke-width="2" />
<path d="M7305,374 L689,685" stroke="blue" stroke-width="2" />
<path d="M1841,62 L9266,514" stroke="blue" stroke-width="2" />
<path d="M7215,46 L4810,102" stroke="blue" stroke-width="2" />
<path d="M5064,583 L8883,452" stroke="blue" stroke-width="2" />
<path d="M8071,865 L7575,970" stroke="blue" stroke-width="2" />
<path d="M75,167 L8418,222" stroke="blue" stroke-width="2" />
<path d="M5713,76 L6402,1156" stroke="blue" stroke-width="2" />
<path d="M4453,1032 L6613,825" stroke="blue" stroke-width="2" />
<path d="M7000,914 L4333,1214" stroke="blue" stroke-width="2" />
<path d="M8295,781 L9736,548" stroke="blue" stroke-width="2" />
<path d="M4168,253 L9763,171" stroke="blue" stroke-width="2" />
<path d="M5053,1052 L7388,636" stroke="blue" stroke-width="2" />
<path d="M8640,784 L3181,688" stroke="blue" stroke-width="2" />
<path d="M6831,1064 L2281,525" stroke="blue" stroke-width="2" />
<path d="M347,404 L461,752" stroke="blue" stroke-width="2" />
<path d="M7234,1134 L8931,1237" stroke="blue" stroke-width="2" />
<path d="M5695,818 L2509,634" stroke="blue" stroke-width="2" />
<path d="M560,524 L2129,77" stroke="blue" stroke-width="2" />
<path d="M4176,720 L3791,745" stroke="blue" stroke-width="2" />
<path d="M3462,117 L954,793" stroke="blue" stroke-width="2" />
<path d="M6053,1255 L14,1103" stroke="blue" stroke-width="2" />
<path d="M606,1084 L8119,868" stroke="blue" stroke-width="2" />
<path d="M3241,225 L5417,66" stroke="blue" stroke-width="2" />
<path d="M6018,149 L5800,279" stroke="blue" stroke-width="2" />
<path d="M1164,294 L1645,389" stroke="blue" stroke-width="2" />
<path d="M9762,578 L3990,233" stroke="blue" stroke-width="2" />
<path d="M1283,496 L6185,524" stroke="blue" stroke-width="2" />
<path d="M40,1150 L7534,786" stroke="blue" stroke-width="2" />
<path d="M7843,637 L8998,140" stroke="blue" stroke-width="2" />
<path d="M2421,168 L7343,1171" stroke="blue" stroke-width="2" />
<path d="M165,8 L8708,167" stroke="blue" stroke-width="2" />
<path d="M2420,1270 L5313,833" stroke="blue" stroke-width="2" />
<path d="M1006,991 L8795,849" stroke="blue" stroke-width="2" />
<path d="M8214,1136 L4724,200" stroke="blue" stroke-width="2" />
<path d="M611,150 L2556,103" stroke="blue" stroke-width="2" />
<path d="M9719,321 L6632,629" stroke="blue" stroke-width="2" />
<path d="M3849,24 L950,824" stroke="blue" stroke-width="2" />
<path d="M5121,1232 L4415,770" stroke="blue" stroke-width="2" />
<path d="M5856,810 L1543,799" stroke="blue" stroke-width="2" />
<path d="M7808,637 L1264,695" stroke="blue" stroke-width="2" />
<path d="M6539,135 L1120,1162" stroke="blue" stroke-width="2" />
<path d="M5075,401 L383,157" stroke="blue" stroke-width="2" />
<path d="M4214,1214 L5367,1006" stroke="blue" stroke-width="2" />
<path d="M6736,989 L5582,985" stroke="blue" stroke-width="2" />
<path d="M7074,787 L5874,648" stroke="blue" stroke-width="2" />
<path d="M1707,381 L9838,260" stroke="blue" stroke-width="2" />
<path d="M6004,928 L456,1026" stroke="blue" stroke-width="2" />
<path d="M5225,1161 L120,383" stroke="blue" stroke-width="2" />
<path d="M8038,671 L213,411" stroke="blue" stroke-width="2" />
<path d="M1085,683 L3059,437" stroke="blue" stroke-width="2" />
<path d="M2519,1257 L4416,1240" stroke="blue" stroke-width="2" />
<path d="M4724,447 L5848,712" stroke="blue" stroke-width="2" />
<path d="M7164,1228 L3357,629" stroke="blue" stroke-width="2" />
<path d="M4134,940 L801,746" stroke="blue" stroke-width="2" />
<path d="M8531,289 L6531,1040" stroke="blue" stroke-width="2" />
<path d="M7095,501 L8302,106" stroke="blue" stroke-width="2" />
<path d="M3843,528 L534,450" stroke="blue" stroke-width="2" />
<path d="M3500,1221 L2498,506" stroke="blue" stroke-width="2" />
<path d="M7805,635 L3197,658" stroke="blue" stroke-width="2" />
<path d="M4202,694 L1356,444" stroke="blue" stroke-width="2" />
<path d="M2513,384 L1948,336" stroke="blue" stroke-width="2" />
<path d="M8330,613 L3210,656" stroke="blue" stroke-width="2" />
<path d="M6935,859 L2715,99" stroke="blue" stroke-width="2" />
<path d="M6318,95 L3130,333" stroke="blue" stroke-width="2" />
<path d="M8306,1090 L3108,1125" stroke="blue" stroke-width="2" />
<path d="M4289,58 L156,569" stroke="blue" stroke-width="2" />
<path d="M6704,1015 L2718,68" stroke="blue" stroke-width="2" />
<path d="M5210,270 L7301,938" stroke="blue" stroke-width="2" />
<path d="M9396,393 L6480,273" stroke="blue" stroke-width="2" />
<path d="M9885,637 L6956,340" stroke="blue" stroke-width="2" />
<path d="M1655,1099 L9656,733" stroke="blue" stroke-width="2" />
<path d="M6698,827 L9000,41" stroke="blue" stroke-width="2" />
<path d="M1668,1104 L3140,956" stroke="blue" stroke-width="2" />
<path d="M7895,1139 L3790,71" stroke="blue" stroke-width="2" />
<path d="M4614,1003 L4241,1066" stroke="blue" stroke-width="2" />
<path d="M8843,449 L2559,621" stroke="blue" stroke-width="2" />
<path d="M793,873 L9304,158" stroke="blue" stroke-width="2" />
<path d="M6117,1177 L4136,23" stroke="blue" stroke-width="2" />
<path d="M8377,1202 L2869,1227" stroke="blue" stroke-width="2" />
<path d="M7492,494 L1768,326" stroke="blue" stroke-width="2" />
<path d="M1902,646 L1199,465" stroke="blue" stroke-width="2" />
<path d="M1490,942 L6064,1049" stroke="blue" stroke-width="2" />
<path d="M5867,282 L6646,1254" stroke="blue" stroke-width="2" />
<path d="M3673,1219 L3210,338" stroke="blue" stroke-width="2" />
<path d="M6798,311 L4915,366" stroke="blue" stroke-width="2" />
<path d="M5156,1116 L2980,55" stroke="blue" stroke-width="2" />
<path d="M7431,979 L4591,158" stroke="blue" stroke-width="2" />
<path d="M4191,1074 L3290,1170" stroke="blue" stroke-width="2" />
<path d="M4813,1072 L1827,1095" stroke="blue" stroke-width="2" />
<path d="M2603,146 L5135,229" stroke="blue" stroke-width="2" />
<path d="M3750,1123 L9356,15" stroke="blue" stroke-width="2" />
<path d="M7994,1 L4593,1122" stroke="blue" stroke-width="2" />
<path d="M5738,888 L1508,649" stroke="blue" stroke-width="2" />
<path d="M879,849 L9134,225" stroke="blue" stroke-width="2" />
<path d="M2871,1257 L4750,45" stroke="blue" stroke-width="2" />
<path d="M4007,453 L6625,1060" stroke="blue" stroke-width="2" />
<path d="M4376,348 L2802,822" stroke="blue" stroke-width="2" />
<path d="M198,410 L502,964" stroke="blue" stroke-width="2" />
<path d="M9163,507 L1955,209" stroke="blue" stroke-width="2" />
<path d="M3924,801 L5387,402" stroke="blue" stroke-width="2" />
<path d="M6697,908 L5129,607" stroke="blue" stroke-width="2" />
<path d="M1327,1085 L884,202" stroke="blue" stroke-width="2" />
<path d="M8584,644 L4077,693" stroke="blue" stroke-width="2" />
<path d="M15,914 L6560,201" stroke="blue" stroke-width="2" />
<path d="M1840,307 L6661,544" stroke="blue" stroke-width="2" />
<path d="M1608,793 L9520,979" stroke="blue" stroke-width="2" />
<path d="M7967,839 L5702,822" stroke="blue" stroke-width="2" />
<path d="M7113,393 L1199,947" stroke="blue" stroke-width="2" />
<path d="M8163,36 L5826,842" stroke="blue" stroke-width="2" />
<path d="M9760,868 L8466,142" stroke="blue" stroke-width="2" />
<path d="M8567,783 L7726,1187" stroke="blue" stroke-width="2" />
<path d="M2526,1161 L3048,1107" stroke="blue" stroke-width="2" />
<path d="M849,554 L7949,86" stroke="blue" stroke-width="2" />
<path d="M1344,510 L6090,1005" stroke="blue" stroke-width="2" />
<path d="M8281,158 L580,742" stroke="blue" stroke-width="2" />
<path d="M7779,1187 L2022,1097" stroke="blue" stroke-width="2" />
<path d="M5890,168 L9782,504" stroke="blue" stroke-width="2" />
<path d="M8091,343 L7182,1188" stroke="blue" stroke-width="2" />
<path d="M913,998 L7132,561" stroke="blue" stroke-width="2" />
<path d="M1007,663 L9269,1050" stroke="blue" stroke-width="2" />
<path d="M3987,404 L3893,1200" stroke="blue" stroke-width="2" />
<path d="M5439,257 L1458,901" stroke="blue" stroke-width="2" />
<path d="M807,294 L6721,751" stroke="blue" stroke-width="2" />
<path d="M4639,535 L4617,123" stroke="blue" stroke-width="2" />
<path d="M8202,713 L1669,470" stroke="blue" stroke-width="2" />
<path d="M3907,493 L8374,432" stroke="blue" stroke-width="2" />
<path d="M7654,100 L573,656" stroke="blue" stroke-width="2" />
<path d="M2300,495 L7506,1153" stroke="blue" stroke-width="2" />
<path d="M5258,752 L6600,250" stroke="blue" stroke-width="2" />
<path d="M8127,643 L1027,289" stroke="blue" stroke-width="2" />
<path d="M4347,1047 L5619,853" stroke="blue" stroke-width="2" />
<path d="M429,51 L9904,764" stroke="blue" stroke-width="2" />
<path d="M4084,364 L2509,826" stroke="blue" stroke-width="2" />
<path d="M1527,597 L4117,1026" stroke="blue" stroke-width="2" />
<path d="M5904,1009 L4743,253" stroke="blue" stroke-width="2" />
<path d="M8210,722 L3587,144" stroke="blue" stroke-width="2" />
<path d="M444,580 L9009,252" stroke="blue" stroke-width="2" />
<path d="M6204,754 L9630,569" stroke="blue" stroke-width="2" />
<path d="M8123,1012 L4599,33" stroke="blue" stroke-width="2" />
<path d="M4531,1156 L7052,335" stroke="blue" stroke-width="2" />
<path d="M2542,183 L8283,117" stroke="blue" stroke-width="2" />
<path d="M4213,569 L830,409" stroke="blue" stroke-width="2" />
<path d="M3586,481 L1391,803" stroke="blue" stroke-width="2" />
<path d="M5136,968 L1711,172" stroke="blue" stroke-width="2" />
<path d="M4791,887 L7041,669" stroke="blue" stroke-width="2" />
<path d="M3271,697 L1578,458" stroke="blue" stroke-width="2" />
<path d="M6752,920 L7056,461" stroke="blue" stroke-width="2" />
<path d="M7950,196 L9289,1172" stroke="blue" stroke-width="2" />
<path d="M2782,600 L6133,1235" stroke="blue" stroke-width="2" />
<path d="M3057,971 L1800,116" stroke="blue" stroke-width="2" />
<path d="M8807,845 L7453,357" stroke="blue" stroke-width="2" />
<path d="M5040,348 L6283,1104" stroke="blue" stroke-width="2" />
<path d="M9647,1098 L4005,596" stroke="blue" stroke-width="2" />
<path d="M1267,1019 L7576,1252" stroke="blue" stroke-width="2" />
<path d="M2334,38 L2189,274" stroke="blue" stroke-width="2" />
<path d="M7947,870 L9770,309" stroke="blue" stroke-width="2" />
<path d="M5704,788 L9329,753" stroke="blue" stroke-width="2" />
<path d="M4450,437 L6712,1157" stroke="blue" stroke-width="2" />
<path d="M1084,520 L6843,525" stroke="blue" stroke-width="2" />
<path d="M8222,1060 L3510,1068" stroke="blue" stroke-width="2" />
<path d="M6952,453 L6604,1239" stroke="blue" stroke-width="2" />
<path d="M9427,656 L2232,944" stroke="blue" stroke-width="2" />
<path d="M9234,1141 L2357,943" stroke="blue" stroke-width="2" />
<path d="M6761,1170 L2815,1057" stroke="blue" stroke-width="2" />
<path d="M3422,714 L4377,832" stroke="blue" stroke-width="2" />
<path d="M3951,579 L6733,317" stroke="blue" stroke-width="2" />
<path d="M912,161 L7100,1115" stroke="blue" stroke-width="2" />
<path d="M100,1125 L6643,915" stroke="blue" stroke-width="2" />
<path d="M5938,1158 L3521,404" stroke="blue" stroke-width="2" />
<path d="M4081,449 L5926,777" stroke="blue" stroke-width="2" />
<path d="M4967,508 L9780,1156" stroke="blue" stroke-width="2" />
<path d="M0,0 L9941,0" stroke="red" stroke-width="10" />
<path d="M9941,0 L9941,1271" stroke="red" stroke-width="10" />
<path d="M0,1271 L9941,1271" stroke="red" stroke-width="10" />
<path d="M0,1271 L0,0" stroke="red" stroke-width="10" />
</svg>