<?xml version="1.0" encoding="UTF-8"?>
<svg xmlns="http://www.w3.org/2000/svg" xmlns:xlink="http://www.w3.org/1999/xlink"
     width="10000" height="10000" viewBox="0 0 10000 10000">
<defs>
</defs>
<path d="M2394,4483 L475,979" stroke="blue" stroke-width="2" />
<path d="M840,2068 L2723,2184" stroke="blue" stroke-width="2" />
<path d="M3464,3302 L584,345" stroke="blue" stroke-width="2" />
<path d="M506,3935 L4072,4209" stroke="blue" stroke-width="2" />
<path d="M1067,3686 L2022,5092" stroke="blue" stroke-width="2" />
<path d="M148,4511 L2468,4092" stroke="blue" stroke-width="2" />
<path d="M2879,302 L1542,4700" stroke="blue" stroke-width="2" />
<path d="M3156,3393 L3178,4688" stroke="blue" stroke-width="2" />
<path d="M1097,2838 L4170,1057" stroke="blue" stroke-width="2" />
<path d="M611,276 L177,2987" stroke="blue" stroke-width="2" />
<path d="M2944,89 L1750,1211" stroke="blue" stroke-width="2" />
<path d="M430,436 L2911,3740" stroke="blue" stroke-width="2" />
<path d="M1677,236 L2926,4089" stroke="blue" stroke-width="2" />
<path d="M3017,1346 L2992,3409" stroke="blue" stroke-width="2" />
<path d="M629,2790 L176,1971" stroke="blue" stroke-width="2" />
<path d="M523,5025 L1954,1882" stroke="blue" stroke-width="2" />
<path d="M1311,2143 L3836,4611" stroke="blue" stroke-width="2" />
<path d="M1553,2218 L772,5194" stroke="blue" stroke-width="2" />
<path d="M3168,129 L3902,1794" stroke="blue" stroke-width="2" />
<path d="M808,4627 L3565,5442" stroke="blue" stroke-width="2" />
<path d="M3955,2915 L1409,3432" stroke="blue" stroke-width="2" />
<path d="M1224,3671 L2523,1885" stroke="blue" stroke-width="2" />
<path d="M3632,4810 L3792,994" stroke="blue" stroke-width="2" />
<path d="M2586,746 L2545,4480" stroke="blue" stroke-width="2" />
<path d="M1814,1128 L1234,3680" stroke="blue" stroke-width="2" />
<path d="M291,5419 L1622,1562" stroke="blue" stroke-width="2" />
<path d="M1887,4853 L1464,244" stroke="blue" stroke-width="2" />
<path d="M1950,237 L353,153" stroke="blue" stroke-width="2" />
<path d="M3499,1871 L3353,2626" stroke="blue" stroke-width="2" />
<path d="M3022,4212 L2072,2925" stroke="blue" stroke-width="2" />
<path d="M1882,1542 L2061,923" stroke="blue" stroke-width="2" />
<path d="M1037,222 L3418,2669" stroke="blue" stroke-width="2" />
<path d="M89,3882 L1052,2952" stroke="blue" stroke-width="2" />
<path d="M2663,1841 L2799,74" stroke="blue" stroke-width="2" />
<path d="M3523,3107 L3736,2629" stroke="blue" stroke-width="2" />
<path d="M3353,2733 L2567,3466" stroke="blue" stroke-width="2" />
<path d="M3160,648 L622,2177" stroke="blue" stroke-width="2" />
<path d="M1245,4720 L429,3271" stroke="blue" stroke-width="2" />
<path d="M1364,1942 L1523,2030" stroke="blue" stroke-width="2" />
<path d="M1348,285 L130,2082" stroke="blue" stroke-width="2" />
<path d="M1306,3 L3654,1023" stroke="blue" stroke-width="2" />
<path d="M937,1633 L1324,4038" stroke="blue" stroke-width="2" />
<path d="M327,1875 L2372,4861" stroke="blue" stroke-width="2" />
<path d="M604,1088 L3180,1684" stroke="blue" stroke-width="2" />
<path d="M1090,1602 L2840,4592" stroke="blue" stroke-width="2" />
<path d="M1253,2411 L2873,3543" stroke="blue" stroke-width="2" />
<path d="M1872,5031 L3559,1311" stroke="blue" stroke-width="2" />
<path d="M3445,1500 L2241,5348" stroke="blue" stroke-width="2" />
<path d="M802,4308 L3054,4823" stroke="blue" stroke-width="2" />
<path d="M480,3501 L2887,820" stroke="blue" stroke-width="2" />
<path d="M3370,5209 L16,5318" stroke="blue" stroke-width="2" />
<path d="M3619,4963 L2200,1451" stroke="blue" stroke-width="2" />
<path d="M1699,526 L571,3136" stroke="blue" stroke-width="2" />
<path d="M1103,1096 L3780,445" stroke="blue" stroke-width="2" />
<path d="M1937,3211 L2939,945" stroke="blue" stroke-width="2" />
<path d="M3773,5112 L1736,2628" stroke="blue" stroke-width="2" />
<path d="M937,778 L212,875" stroke="blue" stroke-width="2" />
<path d="M2635,3543 L1553,5107" stroke="blue" stroke-width="2" />
<path d="M213,3473 L1468,3640" stroke="blue" stroke-width="2" />
<path d="M3612,5417 L1837,3428" stroke="blue" stroke-width="2" />
<path d="M2845,337 L1716,2440" stroke="blue" stroke-width="2" />
<path d="M2531,3846 L1732,1390" stroke="blue" stroke-width="2" />
<path d="M3298,2854 L2871,2808" stroke="blue" stroke-width="2" />
<path d="M3672,3563 L4009,1915" stroke="blue" stroke-width="2" />
<path d="M810,5049 L394,5250" stroke="blue" stroke-width="2" />
<path d="M3653,254 L2387,2389" stroke="blue" stroke-width="2" />
<path d="M1419,2153 L1982,2649" stroke="blue" stroke-width="2" />
<path d="M3261,1044 L1532,2848" stroke="blue" stroke-width="2" />
<path d="M2857,1667 L2901,547" stroke="blue" stroke-width="2" />
<path d="M519,2032 L1405,2808" stroke="blue" stroke-width="2" />
<path d="M3354,33 L1208,3805" stroke="blue" stroke-width="2" />
<path d="M171,4673 L2787,1922" stroke="blue" stroke-width="2" />
<path d="M383,2448 L676,223" stroke="blue" stroke-width="2" />
<path d="M1613,1475 L3354,1634" stroke="blue" stroke-width="2" />
<path d="M1375,2483 L664,4083" stroke="blue" stroke-width="2" />
<path d="M3867,660 L268,8" stroke="blue" stroke-width="2" />
<path d="M3859,4198 L1569,5465" stroke="blue" stroke-width="2" />
<path d="M4017,4159 L731,5091" stroke="blue" stroke-width="2" />
<path d="M339,35 L2582,1314" stroke="blue" stroke-width="2" />
<path d="M917,4030 L2660,3452" stroke="blue" stroke-width="2" />
<path d="M2065,3971 L2253,3673" stroke="blue" stroke-width="2" />
<path d="M293,2430 L2777,1645" stroke="blue" stroke-width="2" />
<path d="M3314,3469 L1380,1447" stroke="blue" stroke-width="2" />
<path d="M2745,1289 L868,4205" stroke="blue" stroke-width="2" />
<path d="M1829,3575 L1214,236" stroke="blue" stroke-width="2" />
<path d="M3594,1185 L3282,4141" stroke="blue" stroke-width="2" />
<path d="M2040,1824 L2065,1280" stroke="blue" stroke-width="2" />
<path d="M3848,3484 L187,4615" stroke="blue" stroke-width="2" />
<path d="M3776,1668 L3479,4820" stroke="blue" stroke-width="2" />
<path d="M2548,4704 L3141,2781" stroke="blue" stroke-width="2" />
<path d="M794,426 L765,2181" stroke="blue" stroke-width="2" />
<path d="M3692,399 L1466,754" stroke="blue" stroke-width="2" />
<path d="M3702,1494 L3517,1980" stroke="blue" stroke-width="2" />
<path d="M454,1086 L2311,3059" stroke="blue" stroke-width="2" />
<path d="M1370,4639 L3543,3495" stroke="blue" stroke-width="2" />
<path d="M3611,930 L1791,2583" stroke="blue" stroke-width="2" />
<path d="M568,4719 L546,4233" stroke="blue" stroke-width="2" />
<path d="M1301,455 L2922,1159" stroke="blue" stroke-width="2" />
<path d="M525,4246 L4089,823" stroke="blue" stroke-width="2" />
<path d="M706,3220 L3497,173" stroke="blue" stroke-width="2" />
<path d="M3485,1962 L1109,1032" stroke="blue" stroke-width="2" />
<path d="M3676,2127 L1917,4927" stroke="blue" stroke-width="2" />
<path d="M2439,2283 L101,4156" stroke="blue" stroke-width="2" />
<path d="M3066,872 L2422,4894" stroke="blue" stroke-width="2" />
<path d="M361,852 L2678,108" stroke="blue" stroke-width="2" />
<path d="M1041,4463 L2194,2665" stroke="blue" stroke-width="2" />
<path d="M3701,1494 L280,1892" stroke="blue" stroke-width="2" />
<path d="M1995,5128 L2278,3193" stroke="blue" stroke-width="2" />
<path d="M3391,1765 L1545,1838" stroke="blue" stroke-width="2" />
<path d="M2211,5029 L1065,443" stroke="blue" stroke-width="2" />
<path d="M2362,4440 L2502,4893" stroke="blue" stroke-width="2" />
<path d="M59,2653 L299,112" stroke="blue" stroke-width="2" />
<path d="M1867,1685 L2672,4420" stroke="blue" stroke-width="2" />
<path d="M4094,1770 L3773,5017" stroke="blue" stroke-width="2" />
<path d="M937,4350 L1104,101" stroke="blue" stroke-width="2" />
<path d="M3351,134 L153,206" stroke="blue" stroke-width="2" />
<path d="M1810,1627 L2257,3062" stroke="blue" stroke-width="2" />
<path d="M2525,3805 L4114,3348" stroke="blue" stroke-width="2" />
<path d="M1330,2457 L332,2700" stroke="blue" stroke-width="2" />
<path d="M531,1094 L1689,2894" stroke="blue" stroke-width="2" />
<path d="M1734,703 L477,1919" stroke="blue" stroke-width="2" />
<path d="M2668,38 L1730,4869" stroke="blue" stroke-width="2" />
<path d="M2529,3332 L1615,4822" stroke="blue" stroke-width="2" />
<path d="M1184,4689 L3427,796" stroke="blue" stroke-width="2" />
<path d="M852,3487 L870,688" stroke="blue" stroke-width="2" />
<path d="M3288,3654 L434,1364" stroke="blue" stroke-width="2" />
<path d="M530,1236 L1424,4779" stroke="blue" stroke-width="2" />
<path d="M1742,2553 L3826,1241" stroke="blue" stroke-width="2" />
<path d="M2116,4666 L1233,700" stroke="blue" stroke-width="2" />
<path d="M1554,664 L2340,3931" stroke="blue" stroke-width="2" />
<path d="M2903,4030 L1330,1632" stroke="blue" stroke-width="2" />
<path d="M2340,5432 L2786,2231" stroke="blue" stroke-width="2" />
<path d="M16,4260 L4149,1616" stroke="blue" stroke-width="2" />
<path d="M1265,2893 L555,3039" stroke="blue" stroke-width="2" />
<path d="M2784,5277 L4002,478" stroke="blue" stroke-width="2" />
<path d="M1963,3983 L3452,5089" stroke="blue" stroke-width="2" />
<path d="M1105,4677 L53,2364" stroke="blue" stroke-width="2" />
<path d="M3257,488 L970,2396" stroke="blue" stroke-width="2" />
<path d="M4129,2590 L3278,3868" stroke="blue" stroke-width="2" />
<path d="M931,4362 L514,335" stroke="blue" stroke-width="2" />
<path d="M369,4947 L734,1394" stroke="blue" stroke-width="2" />
<path d="M2381,521 L1537,806" stroke="blue" stroke-width="2" />
<path d="M196,5297 L446,4654" stroke="blue" stroke-width="2" />
<path d="M725,2389 L3379,3326" stroke="blue" stroke-width="2" />
<path d="M4145,4621 L3408,3092" stroke="blue" stroke-width="2" />
<path d="M2229,1226 L827,295" stroke="blue" stroke-width="2" />
<path d="M3772,2325 L1786,1545" stroke="blue" stroke-width="2" />
<path d="M2186,4436 L433,3977" stroke="blue" stroke-width="2" />
<path d="M1583,1199 L3713,3947" stroke="blue" stroke-width="2" />
<path d="M2866,1332 L2509,4269" stroke="blue" stroke-width="2" />
<path d="M1477,4615 L761,1305" stroke="blue" stroke-width="2" />
<path d="M1816,3546 L1296,4422" stroke="blue" stroke-width="2" />
<path d="M1091,4337 L3578,5119" stroke="blue" stroke-width="2" />
<path d="M4142,2055 L1970,5087" stroke="blue" stroke-width="2" />
<path d="M773,4125 L316,1995" stroke="blue" stroke-width="2" />
<path d="M768,4581 L2203,265" stroke="blue" stroke-width="2" />
<path d="M2629,1895 L367,2336" stroke="blue" stroke-width="2" />
<path d="M4162,3419 L1493,2575" stroke="blue" stroke-width="2" />
<path d="M1913,2755 L1798,3901" stroke="blue" stroke-width="2" />
<path d="M423,1591 L3743,4043" stroke="blue" stroke-width="2" />
<path d="M3966,3647 L729,835" stroke="blue" stroke-width="2" />
<path d="M4057,4002 L1582,1298" stroke="blue" stroke-width="2" />
<path d="M1638,2825 L268,3751" stroke="blue" stroke-width="2" />
<path d="M1545,4453 L1086,2264" stroke="blue" stroke-width="2" />
<path d="M260,3142 L1018,837" stroke="blue" stroke-width="2" />
<path d="M3549,574 L880,827" stroke="blue" stroke-width="2" />
<path d="M3837,3085 L3787,237" stroke="blue" stroke-width="2" />
<path d="M1375,3941 L3338,3307" stroke="blue" stroke-width="2" />
<path d="M1864,397 L1677,796" stroke="blue" stroke-width="2" />
<path d="M3732,3066 L2044,5253" stroke="blue" stroke-width="2" />
<path d="M1376,2563 L3808,3295" stroke="blue" stroke-width="2" />
<path d="M2510,2763 L1779,3735" stroke="blue" stroke-width="2" />
<path d="M1949,2246 L1102,5294" stroke="blue" stroke-width="2" />
<path d="M1660,3414 L2243,4648" stroke="blue" stroke-width="2" />
<path d="M2269,4373 L2697,4319" stroke="blue" stroke-width="2" />
<path d="M546,1759 L3251,4703" stroke="blue" stroke-width="2" />
<path d="M2926,2860 L2367,2383" stroke="blue" stroke-width="2" />
<path d="M303,1336 L3569,2336" stroke="blue" stroke-width="2" />
<path d="M240,2172 L346,4813" stroke="blue" stroke-width="2" />
<path d="M2656,860 L2853,4490" stroke="blue" stroke-width="2" />
<path d="M0,0 L4188,0" stroke="red" stroke-width="10" />
<path d="M4188,0 L4188,5470" stroke="red" stroke-width="10" />
<path d="M0,5470 L4188,5470" stroke="red" stroke-width="10" />
<path d="M0,5470 L0,0" stroke="red" stroke-width="10" />
</svg>