<?xml version="1.0" encoding="UTF-8"?>
<svg xmlns="http://www.w3.org/2000/svg" xmlns:xlink="http://www.w3.org/1999/xlink"
     width="10000" height="10000" viewBox="0 0 10000 10000">
<defs>
</defs>
<path d="M1465,1563 L1483,363" stroke="blue" stroke-width="2" />
<path d="M3061,1908 L1396,1811" stroke="blue" stroke-width="2" />
<path d="M2384,891 L2354,560" stroke="blue" stroke-width="2" />
<path d="M1809,704 L3911,693" stroke="blue" stroke-width="2" />
<path d="M116,1316 L3202,1240" stroke="blue" stroke-width="2" />
<path d="M223,1685 L2225,556" stroke="blue" stroke-width="2" />
<path d="M2040,898 L3686,665" stroke="blue" stroke-width="2" />
<path d="M1738,1940 L1432,548" stroke="blue" stroke-width="2" />
<path d="M773,1015 L3080,783" stroke="blue" stroke-width="2" />
<path d="M2046,1797 L2082,118" stroke="blue" stroke-width="2" />
<path d="M993,1277 L2941,1763" stroke="blue" stroke-width="2" />
<path d="M2030,936 L347,1727" stroke="blue" stroke-width="2" />
<path d="M2769,271 L4107,321" stroke="blue" stroke-width="2" />
<path d="M4228,739 L226,716" stroke="blue" stroke-width="2" />
<path d="M2275,410 L1103,25" stroke="blue" stroke-width="2" />
<path d="M734,1395 L1531,19" stroke="blue" stroke-width="2" />
<path d="M2583,713 L2546,93" stroke="blue" stroke-width="2" />
<path d="M2352,570 L3948,1208" stroke="blue" stroke-width="2" />
<path d="M116,1402 L3431,747" stroke="blue" stroke-width="2" />
<path d="M2301,1698 L3574,148" stroke="blue" stroke-width="2" />
<path d="M828,99 L1381,1846" stroke="blue" stroke-width="2" />
<path d="M4311,718 L3974,1269" stroke="blue" stroke-width="2" />
<path d="M640,1385 L4037,1740" stroke="blue" stroke-width="2" />
<path d="M231,1077 L318,1035" stroke="blue" stroke-width="2" />
<path d="M4229,944 L3914,1138" stroke="blue" stroke-width="2" />
<path d="M441,283 L2237,182" stroke="blue" stroke-width="2" />
<path d="M937,702 L1114,1354" stroke="blue" stroke-width="2" />
<path d="M4334,468 L593,1098" stroke="blue" stroke-width="2" />
<path d="M1685,1407 L776,1048" stroke="blue" stroke-width="2" />
<path d="M4254,1934 L1321,1463" stroke="blue" stroke-width="2" />
<path d="M200,1071 L3134,823" stroke="blue" stroke-width="2" />
<path d="M90,357 L1463,802" stroke="blue" stroke-width="2" />
<path d="M1732,1496 L2929,1780" stroke="blue" stroke-width="2" />
<path d="M1562,1842 L1793,563" stroke="blue" stroke-width="2" />
<path d="M1216,1311 L2478,1615" stroke="blue" stroke-width="2" />
<path d="M2774,1281 L231,1513" stroke="blue" stroke-width="2" />
<path d="M2686,478 L2884,424" stroke="blue" stroke-width="2" />
<path d="M805,267 L635,39" stroke="blue" stroke-width="2" />
<path d="M1405,806 L3960,867" stroke="blue" stroke-width="2" />
<path d="M1420,1420 L305,254" stroke="blue" stroke-width="2" />
<path d="M2357,260 L1233,1801" stroke="blue" stroke-width="2" />
<path d="M2079,1036 L3166,1638" stroke="blue" stroke-width="2" />
<path d="M2357,870 L710,554" stroke="blue" stroke-width="2" />
<path d="M2478,1248 L4055,832" stroke="blue" stroke-width="2" />
<path d="M478,847 L444,22" stroke="blue" stroke-width="2" />
<path d="M957,808 L3856,1171" stroke="blue" stroke-width="2" />
<path d="M1628,675 L2532,100" stroke="blue" stroke-width="2" />
<path d="M3834,726 L846,1932" stroke="blue" stroke-width="2" />
<path d="M634,711 L3167,293" stroke="blue" stroke-width="2" />
<path d="M1635,1290 L2057,1092" stroke="blue" stroke-width="2" />
<path d="M2137,1041 L2602,748" stroke="blue" stroke-width="2" />
<path d="M2685,833 L871,816" stroke="blue" stroke-width="2" />
<path d="M3908,1013 L1054,393" stroke="blue" stroke-width="2" />
<path d="M1453,466 L357,1637" stroke="blue" stroke-width="2" />
<path d="M1822,1436 L63,573" stroke="blue" stroke-width="2" />
<path d="M930,1019 L3182,647" stroke="blue" stroke-width="2" />
<path d="M880,1155 L188,761" stroke="blue" stroke-width="2" />
<path d="M3462,743 L4289,540" stroke="blue" stroke-width="2" />
<path d="M1338,397 L3610,824" stroke="blue" stroke-width="2" />
<path d="M1481,1656 L1730,537" stroke="blue" stroke-width="2" />
<path d="M3970,958 L922,497" stroke="blue" stroke-width="2" />
<path d="M294,312 L852,1181" stroke="blue" stroke-width="2" />
<path d="M3297,696 L4232,471" stroke="blue" stroke-width="2" />
<path d="M1724,739 L4319,1339" stroke="blue" stroke-width="2" />
<path d="M4141,249 L3438,85" stroke="blue" stroke-width="2" />
<path d="M1915,537 L2314,1323" stroke="blue" stroke-width="2" />
<path d="M929,141 L215,733" stroke="blue" stroke-width="2" />
<path d="M1295,714 L1574,1637" stroke="blue" stroke-width="2" />
<path d="M3116,1063 L617,154" stroke="blue" stroke-width="2" />
<path d="M2162,48 L866,1183" stroke="blue" stroke-width="2" />
<path d="M4368,241 L1924,1795" stroke="blue" stroke-width="2" />
<path d="M1329,220 L200,440" stroke="blue" stroke-width="2" />
<path d="M3404,245 L159,1549" stroke="blue" stroke-width="2" />
<path d="M2318,384 L2841,459" stroke="blue" stroke-width="2" />
<path d="M917,1408 L657,1174" stroke="blue" stroke-width="2" />
<path d="M496,1055 L1555,728" stroke="blue" stroke-width="2" />
<path d="M1145,595 L451,1161" stroke="blue" stroke-width="2" />
<path d="M2846,126 L3758,1790" stroke="blue" stroke-width="2" />
<path d="M2978,31 L3772,1437" stroke="blue" stroke-width="2" />
<path d="M2619,779 L4130,160" stroke="blue" stroke-width="2" />
<path d="M79,1272 L362,161" stroke="blue" stroke-width="2" />
<path d="M1174,820 L4294,1573" stroke="blue" stroke-width="2" />
<path d="M929,1783 L812,804" stroke="blue" stroke-width="2" />
<path d="M2846,1490 L614,1282" stroke="blue" stroke-width="2" />
<path d="M3942,822 L1941,860" stroke="blue" stroke-width="2" />
<path d="M3129,259 L259,3" stroke="blue" stroke-width="2" />
<path d="M4103,1518 L1035,546" stroke="blue" stroke-width="2" />
<path d="M1669,529 L3564,1091" stroke="blue" stroke-width="2" />
<path d="M3833,353 L1246,1394" stroke="blue" stroke-width="2" />
<path d="M1555,1693 L156,714" stroke="blue" stroke-width="2" />
<path d="M3134,1026 L3023,170" stroke="blue" stroke-width="2" />
<path d="M3717,308 L415,1671" stroke="blue" stroke-width="2" />
<path d="M670,1637 L3085,164" stroke="blue" stroke-width="2" />
<path d="M2042,936 L502,1412" stroke="blue" stroke-width="2" />
<path d="M1584,530 L1637,1558" stroke="blue" stroke-width="2" />
<path d="M2714,1215 L3916,755" stroke="blue" stroke-width="2" />
<path d="M869,148 L3527,59" stroke="blue" stroke-width="2" />
<path d="M1157,351 L1060,1382" stroke="blue" stroke-width="2" />
<path d="M1293,1133 L3317,325" stroke="blue" stroke-width="2" />
<path d="M960,1495 L2399,1385" stroke="blue" stroke-width="2" />
<path d="M125,349 L3857,1261" stroke="blue" stroke-width="2" />
<path d="M2803,949 L3146,143" stroke="blue" stroke-width="2" />
<path d="M75,793 L525,557" stroke="blue" stroke-width="2" />
<path d="M3903,1382 L1067,531" stroke="blue" stroke-width="2" />
<path d="M1746,910 L2958,1298" stroke="blue" stroke-width="2" />
<path d="M1132,488 L3275,155" stroke="blue" stroke-width="2" />
<path d="M1191,1783 L683,1903" stroke="blue" stroke-width="2" />
<path d="M4286,1871 L702,300" stroke="blue" stroke-width="2" />
<path d="M2264,1243 L4318,1641" stroke="blue" stroke-width="2" />
<path d="M3053,1476 L1101,716" stroke="blue" stroke-width="2" />
<path d="M3888,1625 L1143,1415" stroke="blue" stroke-width="2" />
<path d="M901,1196 L1651,709" stroke="blue" stroke-width="2" />
<path d="M2126,604 L3017,7" stroke="blue" stroke-width="2" />
<path d="M540,46 L3572,1761" stroke="blue" stroke-width="2" />
<path d="M3416,30 L1521,76" stroke="blue" stroke-width="2" />
<path d="M3802,1371 L1717,1327" stroke="blue" stroke-width="2" />
<path d="M1164,1523 L1410,614" stroke="blue" stroke-width="2" />
<path d="M1327,554 L733,29" stroke="blue" stroke-width="2" />
<path d="M1918,620 L4129,841" stroke="blue" stroke-width="2" />
<path d="M248,315 L2526,796" stroke="blue" stroke-width="2" />
<path d="M533,1272 L2069,436" stroke="blue" stroke-width="2" />
<path d="M1128,505 L1998,675" stroke="blue" stroke-width="2" />
<path d="M2233,1050 L2337,1347" stroke="blue" stroke-width="2" />
<path d="M4178,32 L2399,635" stroke="blue" stroke-width="2" />
<path d="M2502,258 L3691,192" stroke="blue" stroke-width="2" />
<path d="M2939,622 L1026,436" stroke="blue" stroke-width="2" />
<path d="M891,573 L686,1659" stroke="blue" stroke-width="2" />
<path d="M1605,1197 L945,72" stroke="blue" stroke-width="2" />
<path d="M4017,1694 L3892,1397" stroke="blue" stroke-width="2" />
<path d="M1541,918 L640,733" stroke="blue" stroke-width="2" />
<path d="M2761,497 L3639,1490" stroke="blue" stroke-width="2" />
<path d="M2443,482 L898,293" stroke="blue" stroke-width="2" />
<path d="M2352,581 L1401,1491" stroke="blue" stroke-width="2" />
<path d="M1488,1303 L1212,1360" stroke="blue" stroke-width="2" />
<path d="M2580,1719 L3112,1138" stroke="blue" stroke-width="2" />
<path d="M3791,461 L2238,1392" stroke="blue" stroke-width="2" />
<path d="M913,741 L2084,326" stroke="blue" stroke-width="2" />
<path d="M4381,1728 L2877,1205" stroke="blue" stroke-width="2" />
<path d="M803,1942 L1072,555" stroke="blue" stroke-width="2" />
<path d="M1463,1788 L2495,372" stroke="blue" stroke-width="2" />
<path d="M1157,1462 L433,1231" stroke="blue" stroke-width="2" />
<path d="M1566,1340 L2672,1229" stroke="blue" stroke-width="2" />
<path d="M4123,337 L2016,431" stroke="blue" stroke-width="2" />
<path d="M3552,1006 L3140,649" stroke="blue" stroke-width="2" />
<path d="M278,1252 L349,840" stroke="blue" stroke-width="2" />
<path d="M1699,274 L875,1901" stroke="blue" stroke-width="2" />
<path d="M133,860 L1567,312" stroke="blue" stroke-width="2" />
<path d="M2295,1914 L1936,613" stroke="blue" stroke-width="2" />
<path d="M2260,433 L1327,1749" stroke="blue" stroke-width="2" />
<path d="M1589,1649 L18,599" stroke="blue" stroke-width="2" />
<path d="M2132,1798 L1931,1154" stroke="blue" stroke-width="2" />
<path d="M1215,1889 L1534,23" stroke="blue" stroke-width="2" />
<path d="M3251,1061 L526,1117" stroke="blue" stroke-width="2" />
<path d="M163,1583 L3199,346" stroke="blue" stroke-width="2" />
<path d="M3094,841 L46,443" stroke="blue" stroke-width="2" />
<path d="M3263,584 L2226,711" stroke="blue" stroke-width="2" />
<path d="M3457,1107 L3884,1162" stroke="blue" stroke-width="2" />
<path d="M908,1464 L3694,1057" stroke="blue" stroke-width="2" />
<path d="M150,1550 L2654,1733" stroke="blue" stroke-width="2" />
<path d="M4030,584 L3692,1282" stroke="blue" stroke-width="2" />
<path d="M2643,258 L3465,1480" stroke="blue" stroke-width="2" />
<path d="M2115,1805 L3592,1258" stroke="blue" stroke-width="2" />
<path d="M473,744 L1414,1846" stroke="blue" stroke-width="2" />
<path d="M3467,317 L835,126" stroke="blue" stroke-width="2" />
<path d="M1273,108 L2382,1571" stroke="blue" stroke-width="2" />
<path d="M1184,1570 L260,1942" stroke="blue" stroke-width="2" />
<path d="M1315,1810 L845,412" stroke="blue" stroke-width="2" />
<path d="M2408,1915 L2094,1245" stroke="blue" stroke-width="2" />
<path d="M957,1791 L4249,628" stroke="blue" stroke-width="2" />
<path d="M2943,639 L1768,355" stroke="blue" stroke-width="2" />
<path d="M4149,749 L2768,4" stroke="blue" stroke-width="2" />
<path d="M389,931 L3302,1491" stroke="blue" stroke-width="2" />
<path d="M4259,1200 L2845,788" stroke="blue" stroke-width="2" />
<path d="M697,823 L1804,243" stroke="blue" stroke-width="2" />
<path d="M1658,1898 L1312,1545" stroke="blue" stroke-width="2" />
<path d="M3670,1677 L1070,1611" stroke="blue" stroke-width="2" />
<path d="M2776,1740 L3891,255" stroke="blue" stroke-width="2" />
<path d="M2635,414 L4109,1484" stroke="blue" stroke-width="2" />
<path d="M3841,768 L3442,1387" stroke="blue" stroke-width="2" />
<path d="M2897,246 L4366,1809" stroke="blue" stroke-width="2" />
<path d="M2402,296 L3639,465" stroke="blue" stroke-width="2" />
<path d="M1194,1396 L746,133" stroke="blue" stroke-width="2" />
<path d="M3112,340 L3283,1923" stroke="blue" stroke-width="2" />
<path d="M2063,1078 L271,1578" stroke="blue" stroke-width="2" />
<path d="M4210,1170 L426,1258" stroke="blue" stroke-width="2" />
<path d="M266,82 L1153,120" stroke="blue" stroke-width="2" />
<path d="M2147,530 L840,1212" stroke="blue" stroke-width="2" />
<path d="M2160,4 L1297,97" stroke="blue" stroke-width="2" />
<path d="M4307,1711 L3286,1551" stroke="blue" stroke-width="2" />
<path d="M2552,1483 L104,1206" stroke="blue" stroke-width="2" />
<path d="M2908,1385 L462,1629" stroke="blue" stroke-width="2" />
<path d="M1420,1548 L2763,444" stroke="blue" stroke-width="2" />
<path d="M2240,1770 L2712,1526" stroke="blue" stroke-width="2" />
<path d="M663,728 L807,1183" stroke="blue" stroke-width="2" />
<path d="M3490,793 L2833,1836" stroke="blue" stroke-width="2" />
<path d="M1207,925 L2306,1102" stroke="blue" stroke-width="2" />
<path d="M357,1698 L4213,93" stroke="blue" stroke-width="2" />
<path d="M2843,139 L4324,63" stroke="blue" stroke-width="2" />
<path d="M1678,425 L1027,1885" stroke="blue" stroke-width="2" />
<path d="M1690,1833 L3295,519" stroke="blue" stroke-width="2" />
<path d="M3215,698 L2587,1332" stroke="blue" stroke-width="2" />
<path d="M3393,523 L3786,124" stroke="blue" stroke-width="2" />
<path d="M2384,1545 L3144,117" stroke="blue" stroke-width="2" />
<path d="M1868,562 L314,1071" stroke="blue" stroke-width="2" />
<path d="M855,1531 L3515,1114" stroke="blue" stroke-width="2" />
<path d="M851,1016 L2394,1628" stroke="blue" stroke-width="2" />
<path d="M3829,1550 L611,646" stroke="blue" stroke-width="2" />
<path d="M2035,1507 L3892,431" stroke="blue" stroke-width="2" />
<path d="M2694,1143 L2181,838" stroke="blue" stroke-width="2" />
<path d="M348,1318 L1849,785" stroke="blue" stroke-width="2" />
<path d="M1266,1774 L1269,914" stroke="blue" stroke-width="2" />
<path d="M3373,319 L3611,1436" stroke="blue" stroke-width="2" />
<path d="M2079,1273 L1051,1186" stroke="blue" stroke-width="2" />
<path d="M48,1768 L1408,840" stroke="blue" stroke-width="2" />
<path d="M1417,351 L3965,409" stroke="blue" stroke-width="2" />
<path d="M1558,816 L2972,8" stroke="blue" stroke-width="2" />
<path d="M2097,1192 L1644,1071" stroke="blue" stroke-width="2" />
<path d="M3518,210 L1644,1437" stroke="blue" stroke-width="2" />
<path d="M3754,1541 L222,1176" stroke="blue" stroke-width="2" />
<path d="M3539,1006 L2875,1808" stroke="blue" stroke-width="2" />
<path d="M2029,343 L3723,1456" stroke="blue" stroke-width="2" />
<path d="M3991,1072 L2790,1488" stroke="blue" stroke-width="2" />
<path d="M2033,773 L982,1355" stroke="blue" stroke-width="2" />
<path d="M617,370 L1829,747" stroke="blue" stroke-width="2" />
<path d="M135,417 L2329,1040" stroke="blue" stroke-width="2" />
<path d="M874,676 L2820,1829" stroke="blue" stroke-width="2" />
<path d="M1768,995 L2529,1120" stroke="blue" stroke-width="2" />
<path d="M3103,1180 L3513,1275" stroke="blue" stroke-width="2" />
<path d="M132,1524 L4274,295" stroke="blue" stroke-width="2" />
<path d="M76,1390 L3651,662" stroke="blue" stroke-width="2" />
<path d="M812,1804 L3310,1048" stroke="blue" stroke-width="2" />
<path d="M1395,1174 L4326,892" stroke="blue" stroke-width="2" />
<path d="M2392,1921 L3379,1692" stroke="blue" stroke-width="2" />
<path d="M1918,1548 L3433,228" stroke="blue" stroke-width="2" />
<path d="M1982,203 L2090,1402" stroke="blue" stroke-width="2" />
<path d="M26,1617 L41,423" stroke="blue" stroke-width="2" />
<path d="M13,564 L1386,989" stroke="blue" stroke-width="2" />
<path d="M416,1000 L3276,1461" stroke="blue" stroke-width="2" />
<path d="M3195,723 L3792,783" stroke="blue" stroke-width="2" />
<path d="M2551,429 L460,1239" stroke="blue" stroke-width="2" />
<path d="M1563,1740 L1809,1009" stroke="blue" stroke-width="2" />
<path d="M2393,149 L4310,0" stroke="blue" stroke-width="2" />
<path d="M86,1225 L1379,1267" stroke="blue" stroke-width="2" />
<path d="M1076,1328 L2150,38" stroke="blue" stroke-width="2" />
<path d="M727,1846 L1824,1923" stroke="blue" stroke-width="2" />
<path d="M725,327 L4281,1598" stroke="blue" stroke-width="2" />
<path d="M2046,1473 L3972,1078" stroke="blue" stroke-width="2" />
<path d="M1434,461 L2250,30" stroke="blue" stroke-width="2" />
<path d="M2445,361 L1824,1651" stroke="blue" stroke-width="2" />
<path d="M439,1561 L3315,197" stroke="blue" stroke-width="2" />
<path d="M3353,925 L3459,458" stroke="blue" stroke-width="2" />
<path d="M880,1763 L2512,651" stroke="blue" stroke-width="2" />
<path d="M4136,19 L791,1467" stroke="blue" stroke-width="2" />
<path d="M1960,1924 L1998,842" stroke="blue" stroke-width="2" />
<path d="M1121,706 L3021,711" stroke="blue" stroke-width="2" />
<path d="M1350,206 L1724,764" stroke="blue" stroke-width="2" />
<path d="M3491,1928 L4054,737" stroke="blue" stroke-width="2" />
<path d="M4369,1220 L3482,1800" stroke="blue" stroke-width="2" />
<path d="M2054,1717 L2677,1369" stroke="blue" stroke-width="2" />
<path d="M2536,1192 L355,340" stroke="blue" stroke-width="2" />
<path d="M1968,627 L929,1532" stroke="blue" stroke-width="2" />
<path d="M2189,651 L491,530" stroke="blue" stroke-width="2" />
<path d="M2386,196 L1694,209" stroke="blue" stroke-width="2" />
<path d="M3766,149 L2297,1207" stroke="blue" stroke-width="2" />
<path d="M2827,843 L3479,487" stroke="blue" stroke-width="2" />
<path d="M1791,704 L3307,900" stroke="blue" stroke-width="2" />
<path d="M4028,1825 L3639,176" stroke="blue" stroke-width="2" />
<path d="M2606,8 L1465,1690" stroke="blue" stroke-width="2" />
<path d="M673,532 L3911,1271" stroke="blue" stroke-width="2" />
<path d="M1841,1154 L642,781" stroke="blue" stroke-width="2" />
<path d="M2575,1287 L2560,1941" stroke="blue" stroke-width="2" />
<path d="M1879,1628 L1634,1469" stroke="blue" stroke-width="2" />
<path d="M2453,774 L1419,1202" stroke="blue" stroke-width="2" />
<path d="M3194,1844 L2059,1742" stroke="blue" stroke-width="2" />
<path d="M2636,713 L3868,1228" stroke="blue" stroke-width="2" />
<path d="M1663,190 L1711,148" stroke="blue" stroke-width="2" />
<path d="M3168,273 L1965,393" stroke="blue" stroke-width="2" />
<path d="M2240,1737 L1757,1493" stroke="blue" stroke-width="2" />
<path d="M3975,1792 L2957,276" stroke="blue" stroke-width="2" />
<path d="M2590,1048 L825,1734" stroke="blue" stroke-width="2" />
<path d="M38,1331 L276,1017" stroke="blue" stroke-width="2" />
<path d="M1441,1522 L145,387" stroke="blue" stroke-width="2" />
<path d="M4009,3 L2281,1683" stroke="blue" stroke-width="2" />
<path d="M335,741 L976,1178" stroke="blue" stroke-width="2" />
<path d="M1680,1230 L1709,751" stroke="blue" stroke-width="2" />
<path d="M169,522 L2247,287" stroke="blue" stroke-width="2" />
<path d="M3869,62 L2025,1519" stroke="blue" stroke-width="2" />
<path d="M1515,1378 L3578,999" stroke="blue" stroke-width="2" />
<path d="M3622,740 L2812,1458" stroke="blue" stroke-width="2" />
<path d="M4209,1058 L4123,1085" stroke="blue" stroke-width="2" />
<path d="M1196,1616 L376,1908" stroke="blue" stroke-width="2" />
<path d="M729,153 L2285,1298" stroke="blue" stroke-width="2" />
<path d="M3970,1462 L2237,1828" stroke="blue" stroke-width="2" />
<path d="M1627,1758 L2038,269" stroke="blue" stroke-width="2" />
<path d="M1164,1820 L1779,300" stroke="blue" stroke-width="2" />
<path d="M357,65 L1908,1629" stroke="blue" stroke-width="2" />
<path d="M403,1457 L301,1096" stroke="blue" stroke-width="2" />
<path d="M2117,1540 L4340,960" stroke="blue" stroke-width="2" />
<path d="M812,703 L1706,876" stroke="blue" stroke-width="2" />
<path d="M4063,837 L2693,1612" stroke="blue" stroke-width="2" />
<path d="M313,1551 L3034,1349" stroke="blue" stroke-width="2" />
<path d="M470,1129 L3904,1803" stroke="blue" stroke-width="2" />
<path d="M1763,1836 L3828,171" stroke="blue" stroke-width="2" />
<path d="M3870,1115 L224,178" stroke="blue" stroke-width="2" />
<path d="M3988,1265 L237,1596" stroke="blue" stroke-width="2" />
<path d="M3404,1545 L2964,1211" stroke="blue" stroke-width="2" />
<path d="M707,397 L830,594" stroke="blue" stroke-width="2" />
<path d="M3111,684 L896,1008" stroke="blue" stroke-width="2" />
<path d="M3824,723 L3525,368" stroke="blue" stroke-width="2" />
<path d="M390,1244 L2709,718" stroke="blue" stroke-width="2" />
<path d="M4388,932 L1890,1132" stroke="blue" stroke-width="2" />
<path d="M509,930 L68,1915" stroke="blue" stroke-width="2" />
<path d="M3983,1034 L3132,1236" stroke="blue" stroke-width="2" />
<path d="M272,898 L4374,771" stroke="blue" stroke-width="2" />
<path d="M3912,1236 L3567,1335" stroke="blue" stroke-width="2" />
<path d="M2920,1756 L2763,1131" stroke="blue" stroke-width="2" />
<path d="M3381,968 L4029,1421" stroke="blue" stroke-width="2" />
<path d="M509,297 L697,1711" stroke="blue" stroke-width="2" />
<path d="M100,805 L2620,0" stroke="blue" stroke-width="2" />
<path d="M2324,591 L693,27" stroke="blue" stroke-width="2" />
<path d="M3655,121 L3976,984" stroke="blue" stroke-width="2" />
<path d="M33,562 L444,708" stroke="blue" stroke-width="2" />
<path d="M377,211 L4274,1477" stroke="blue" stroke-width="2" />
<path d="M3406,1423 L2383,1637" stroke="blue" stroke-width="2" />
<path d="M2401,986 L1738,314" stroke="blue" stroke-width="2" />
<path d="M4286,1728 L2523,270" stroke="blue" stroke-width="2" />
<path d="M975,105 L1445,991" stroke="blue" stroke-width="2" />
<path d="M3720,1637 L784,788" stroke="blue" stroke-width="2" />
<path d="M2592,910 L691,159" stroke="blue" stroke-width="2" />
<path d="M3669,308 L4311,1036" stroke="blue" stroke-width="2" />
<path d="M578,998 L287,277" stroke="blue" stroke-width="2" />
<path d="M2864,1245 L144,143" stroke="blue" stroke-width="2" />
<path d="M3901,1736 L3619,982" stroke="blue" stroke-width="2" />
<path d="M1206,184 L362,642" stroke="blue" stroke-width="2" />
<path d="M1594,1418 L19,445" stroke="blue" stroke-width="2" />
<path d="M777,1000 L52,1314" stroke="blue" stroke-width="2" />
<path d="M3161,1662 L3546,454" stroke="blue" stroke-width="2" />
<path d="M4164,762 L4120,1871" stroke="blue" stroke-width="2" />
<path d="M2490,778 L2570,967" stroke="blue" stroke-width="2" />
<path d="M609,125 L3484,967" stroke="blue" stroke-width="2" />
<path d="M2448,1830 L2278,1597" stroke="blue" stroke-width="2" />
<path d="M3329,1035 L1507,1909" stroke="blue" stroke-width="2" />
<path d="M1429,954 L3195,1512" stroke="blue" stroke-width="2" />
<path d="M928,899 L4382,1433" stroke="blue" stroke-width="2" />
<path d="M1079,1182 L4106,953" stroke="blue" stroke-width="2" />
<path d="M3160,551 L4023,622" stroke="blue" stroke-width="2" />
<path d="M3361,1080 L91,895" stroke="blue" stroke-width="2" />
<path d="M2165,632 L3858,1904" stroke="blue" stroke-width="2" />
<path d="M2801,450 L241,915" stroke="blue" stroke-width="2" />
<path d="M2978,336 L4378,1052" stroke="blue" stroke-width="2" />
<path d="M648,203 L2956,1696" stroke="blue" stroke-width="2" />
<path d="M4186,1558 L1008,820" stroke="blue" stroke-width="2" />
<path d="M3428,82 L2447,73" stroke="blue" stroke-width="2" />
<path d="M3267,1787 L3347,1843" stroke="blue" stroke-width="2" />
<path d="M0,0 L4395,0" stroke="red" stroke-width="10" />
<path d="M4395,0 L4395,1943" stroke="red" stroke-width="10" />
<path d="M0,1943 L4395,1943" stroke="red" stroke-width="10" />
<path d="M0,1943 L0,0" stroke="red" stroke-width="10" />
</svg>