<?xml version="1.0" encoding="UTF-8"?>
<svg xmlns="http://www.w3.org/2000/svg" xmlns:xlink="http://www.w3.org/1999/xlink"
     width="10000" height="10000" viewBox="0 0 10000 10000">
<defs>
</defs>
<path d="M4068,1984 L4380,1189" stroke="blue" stroke-width="2" />
<path d="M4462,2387 L3617,1452" stroke="blue" stroke-width="2" />
<path d="M3343,1180 L2350,114" stroke="blue" stroke-width="2" />
<path d="M2372,436 L4438,138" stroke="blue" stroke-width="2" />
<path d="M3633,589 L1282,1070" stroke="blue" stroke-width="2" />
<path d="M2066,1019 L2731,619" stroke="blue" stroke-width="2" />
<path d="M3986,1849 L4083,368" stroke="blue" stroke-width="2" />
<path d="M3690,625 L73,464" stroke="blue" stroke-width="2" />
<path d="M2882,1346 L2692,1688" stroke="blue" stroke-width="2" />
<path d="M1848,1057 L2028,1762" stroke="blue" stroke-width="2" />
<path d="M4500,1884 L716,679" stroke="blue" stroke-width="2" />
<path d="M167,542 L3331,2489" stroke="blue" stroke-width="2" />
<path d="M3829,2050 L1503,2646" stroke="blue" stroke-width="2" />
<path d="M3606,178 L2058,1454" stroke="blue" stroke-width="2" />
<path d="M975,755 L264,2153" stroke="blue" stroke-width="2" />
<path d="M136,2465 L324,2596" stroke="blue" stroke-width="2" />
<path d="M1654,587 L2349,125" stroke="blue" stroke-width="2" />
<path d="M4059,1402 L3183,315" stroke="blue" stroke-width="2" />
<path d="M3552,2893 L3946,1108" stroke="blue" stroke-width="2" />
<path d="M4081,2867 L1527,2607" stroke="blue" stroke-width="2" />
<path d="M4368,1283 L305,1837" stroke="blue" stroke-width="2" />
<path d="M619,575 L521,1122" stroke="blue" stroke-width="2" />
<path d="M2202,2235 L2002,1481" stroke="blue" stroke-width="2" />
<path d="M4022,100 L3139,477" stroke="blue" stroke-width="2" />
<path d="M3906,1443 L18,2613" stroke="blue" stroke-width="2" />
<path d="M4356,3000 L3224,512" stroke="blue" stroke-width="2" />
<path d="M1768,951 L4317,2919" stroke="blue" stroke-width="2" />
<path d="M715,1178 L1456,132" stroke="blue" stroke-width="2" />
<path d="M1235,2578 L1044,667" stroke="blue" stroke-width="2" />
<path d="M913,1333 L2371,883" stroke="blue" stroke-width="2" />
<path d="M233,663 L2546,2953" stroke="blue" stroke-width="2" />
<path d="M1057,13 L2329,756" stroke="blue" stroke-width="2" />
<path d="M2902,97 L2001,2875" stroke="blue" stroke-width="2" />
<path d="M3139,304 L1022,2053" stroke="blue" stroke-width="2" />
<path d="M2177,903 L1654,1817" stroke="blue" stroke-width="2" />
<path d="M2119,2724 L844,952" stroke="blue" stroke-width="2" />
<path d="M3098,906 L2508,2166" stroke="blue" stroke-width="2" />
<path d="M3282,2487 L4325,2226" stroke="blue" stroke-width="2" />
<path d="M4355,2990 L1134,2154" stroke="blue" stroke-width="2" />
<path d="M1316,1534 L1119,1246" stroke="blue" stroke-width="2" />
<path d="M2624,2252 L1020,664" stroke="blue" stroke-width="2" />
<path d="M136,2756 L3805,2343" stroke="blue" stroke-width="2" />
<path d="M2282,2592 L580,2083" stroke="blue" stroke-width="2" />
<path d="M4241,960 L1001,2787" stroke="blue" stroke-width="2" />
<path d="M1912,893 L6,879" stroke="blue" stroke-width="2" />
<path d="M2704,2071 L3662,1739" stroke="blue" stroke-width="2" />
<path d="M780,705 L2894,866" stroke="blue" stroke-width="2" />
<path d="M4405,1854 L2909,178" stroke="blue" stroke-width="2" />
<path d="M1322,1117 L4231,767" stroke="blue" stroke-width="2" />
<path d="M910,2257 L807,2326" stroke="blue" stroke-width="2" />
<path d="M4235,1220 L2836,261" stroke="blue" stroke-width="2" />
<path d="M2708,1461 L2231,2993" stroke="blue" stroke-width="2" />
<path d="M12,1498 L3798,850" stroke="blue" stroke-width="2" />
<path d="M801,2935 L2187,692" stroke="blue" stroke-width="2" />
<path d="M4007,2824 L1256,2925" stroke="blue" stroke-width="2" />
<path d="M3035,388 L3627,873" stroke="blue" stroke-width="2" />
<path d="M3896,1372 L4365,710" stroke="blue" stroke-width="2" />
<path d="M4077,2753 L4483,166" stroke="blue" stroke-width="2" />
<path d="M1657,1658 L2670,1136" stroke="blue" stroke-width="2" />
<path d="M906,1302 L163,1410" stroke="blue" stroke-width="2" />
<path d="M3700,1189 L1254,1435" stroke="blue" stroke-width="2" />
<path d="M4463,746 L2089,776" stroke="blue" stroke-width="2" />
<path d="M1749,2062 L4447,1883" stroke="blue" stroke-width="2" />
<path d="M70,522 L3104,2788" stroke="blue" stroke-width="2" />
<path d="M3060,2440 L1343,2263" stroke="blue" stroke-width="2" />
<path d="M1022,1259 L2534,1533" stroke="blue" stroke-width="2" />
<path d="M4464,2363 L2288,1834" stroke="blue" stroke-width="2" />
<path d="M4362,2742 L2559,2586" stroke="blue" stroke-width="2" />
<path d="M3187,203 L1912,392" stroke="blue" stroke-width="2" />
<path d="M3100,1254 L905,2565" stroke="blue" stroke-width="2" />
<path d="M2083,2530 L279,146" stroke="blue" stroke-width="2" />
<path d="M549,1307 L3196,1310" stroke="blue" stroke-width="2" />
<path d="M3481,2627 L2592,2334" stroke="blue" stroke-width="2" />
<path d="M374,1116 L4355,2383" stroke="blue" stroke-width="2" />
<path d="M2332,98 L2316,2233" stroke="blue" stroke-width="2" />
<path d="M1585,2840 L1884,1617" stroke="blue" stroke-width="2" />
<path d="M1707,1867 L3556,654" stroke="blue" stroke-width="2" />
<path d="M3266,1201 L3748,1104" stroke="blue" stroke-width="2" />
<path d="M2588,1199 L2410,2980" stroke="blue" stroke-width="2" />
<path d="M3377,781 L1050,457" stroke="blue" stroke-width="2" />
<path d="M3530,56 L2654,2603" stroke="blue" stroke-width="2" />
<path d="M1693,251 L2287,21" stroke="blue" stroke-width="2" />
<path d="M2282,2988 L3600,934" stroke="blue" stroke-width="2" />
<path d="M1445,2621 L3878,101" stroke="blue" stroke-width="2" />
<path d="M3154,745 L2562,2238" stroke="blue" stroke-width="2" />
<path d="M332,2020 L3537,1835" stroke="blue" stroke-width="2" />
<path d="M2666,306 L1722,2136" stroke="blue" stroke-width="2" />
<path d="M2924,500 L1238,458" stroke="blue" stroke-width="2" />
<path d="M862,2094 L252,1258" stroke="blue" stroke-width="2" />
<path d="M975,1735 L3529,2786" stroke="blue" stroke-width="2" />
<path d="M1084,951 L673,2332" stroke="blue" stroke-width="2" />
<path d="M300,2601 L1272,1007" stroke="blue" stroke-width="2" />
<path d="M2810,2736 L1175,2166" stroke="blue" stroke-width="2" />
<path d="M4409,2126 L241,1310" stroke="blue" stroke-width="2" />
<path d="M3108,1367 L2024,1011" stroke="blue" stroke-width="2" />
<path d="M4342,68 L2066,2616" stroke="blue" stroke-width="2" />
<path d="M1946,620 L3169,1751" stroke="blue" stroke-width="2" />
<path d="M2998,1562 L2860,196" stroke="blue" stroke-width="2" />
<path d="M442,224 L462,407" stroke="blue" stroke-width="2" />
<path d="M1053,1025 L2339,2705" stroke="blue" stroke-width="2" />
<path d="M318,2665 L1690,1217" stroke="blue" stroke-width="2" />
<path d="M2284,360 L3929,1064" stroke="blue" stroke-width="2" />
<path d="M1363,572 L3447,407" stroke="blue" stroke-width="2" />
<path d="M2655,2883 L1446,2107" stroke="blue" stroke-width="2" />
<path d="M47,1941 L1848,1765" stroke="blue" stroke-width="2" />
<path d="M1036,2540 L1145,2605" stroke="blue" stroke-width="2" />
<path d="M990,2338 L822,1625" stroke="blue" stroke-width="2" />
<path d="M4354,991 L3891,2652" stroke="blue" stroke-width="2" />
<path d="M4025,1421 L366,2522" stroke="blue" stroke-width="2" />
<path d="M48,1207 L2805,1848" stroke="blue" stroke-width="2" />
<path d="M2696,934 L2401,2217" stroke="blue" stroke-width="2" />
<path d="M793,122 L2684,2777" stroke="blue" stroke-width="2" />
<path d="M1934,618 L122,1167" stroke="blue" stroke-width="2" />
<path d="M368,1386 L996,1733" stroke="blue" stroke-width="2" />
<path d="M2212,2353 L2875,1973" stroke="blue" stroke-width="2" />
<path d="M1595,2610 L2744,730" stroke="blue" stroke-width="2" />
<path d="M1946,87 L824,1303" stroke="blue" stroke-width="2" />
<path d="M10,2901 L2977,1251" stroke="blue" stroke-width="2" />
<path d="M1806,473 L2022,1979" stroke="blue" stroke-width="2" />
<path d="M4079,1801 L967,756" stroke="blue" stroke-width="2" />
<path d="M259,65 L1766,2341" stroke="blue" stroke-width="2" />
<path d="M2646,2619 L1471,261" stroke="blue" stroke-width="2" />
<path d="M1065,1090 L430,2411" stroke="blue" stroke-width="2" />
<path d="M2192,238 L3992,98" stroke="blue" stroke-width="2" />
<path d="M25,2413 L3841,779" stroke="blue" stroke-width="2" />
<path d="M2040,149 L1057,1569" stroke="blue" stroke-width="2" />
<path d="M1803,2165 L2179,2166" stroke="blue" stroke-width="2" />
<path d="M2449,2466 L4298,2897" stroke="blue" stroke-width="2" />
<path d="M584,2686 L4078,1837" stroke="blue" stroke-width="2" />
<path d="M1680,1346 L46,617" stroke="blue" stroke-width="2" />
<path d="M1701,460 L231,1882" stroke="blue" stroke-width="2" />
<path d="M4262,1938 L1330,1276" stroke="blue" stroke-width="2" />
<path d="M1367,2836 L361,2160" stroke="blue" stroke-width="2" />
<path d="M2693,2815 L1926,2120" stroke="blue" stroke-width="2" />
<path d="M1075,2433 L3358,879" stroke="blue" stroke-width="2" />
<path d="M37,2873 L120,1961" stroke="blue" stroke-width="2" />
<path d="M1887,2635 L1141,2594" stroke="blue" stroke-width="2" />
<path d="M3854,897 L4376,483" stroke="blue" stroke-width="2" />
<path d="M554,1034 L2259,2757" stroke="blue" stroke-width="2" />
<path d="M3868,2847 L791,2479" stroke="blue" stroke-width="2" />
<path d="M4317,1073 L2849,1158" stroke="blue" stroke-width="2" />
<path d="M2322,2034 L2051,1405" stroke="blue" stroke-width="2" />
<path d="M3395,1271 L4428,2079" stroke="blue" stroke-width="2" />
<path d="M138,2447 L3729,2188" stroke="blue" stroke-width="2" />
<path d="M4412,2855 L705,1640" stroke="blue" stroke-width="2" />
<path d="M2537,643 L1545,2065" stroke="blue" stroke-width="2" />
<path d="M2955,1227 L3875,163" stroke="blue" stroke-width="2" />
<path d="M3846,98 L1481,3" stroke="blue" stroke-width="2" />
<path d="M3944,2677 L2792,2723" stroke="blue" stroke-width="2" />
<path d="M4210,556 L1279,134" stroke="blue" stroke-width="2" />
<path d="M3651,1293 L925,2957" stroke="blue" stroke-width="2" />
<path d="M2516,2896 L1449,2328" stroke="blue" stroke-width="2" />
<path d="M1078,2317 L1127,1969" stroke="blue" stroke-width="2" />
<path d="M1358,1417 L2715,344" stroke="blue" stroke-width="2" />
<path d="M78,2875 L1052,21" stroke="blue" stroke-width="2" />
<path d="M2058,2861 L4310,287" stroke="blue" stroke-width="2" />
<path d="M2678,630 L589,1228" stroke="blue" stroke-width="2" />
<path d="M1720,1661 L3838,1816" stroke="blue" stroke-width="2" />
<path d="M3335,358 L1671,2308" stroke="blue" stroke-width="2" />
<path d="M3742,676 L589,2453" stroke="blue" stroke-width="2" />
<path d="M3471,1327 L4099,2957" stroke="blue" stroke-width="2" />
<path d="M278,1166 L2008,1985" stroke="blue" stroke-width="2" />
<path d="M2426,297 L303,1631" stroke="blue" stroke-width="2" />
<path d="M3386,2118 L623,1114" stroke="blue" stroke-width="2" />
<path d="M1283,164 L2278,210" stroke="blue" stroke-width="2" />
<path d="M2913,3001 L4274,1961" stroke="blue" stroke-width="2" />
<path d="M4357,1078 L1573,957" stroke="blue" stroke-width="2" />
<path d="M3815,1813 L1784,1305" stroke="blue" stroke-width="2" />
<path d="M1528,455 L3460,1915" stroke="blue" stroke-width="2" />
<path d="M151,1941 L1442,2081" stroke="blue" stroke-width="2" />
<path d="M3590,686 L1243,1625" stroke="blue" stroke-width="2" />
<path d="M2420,229 L1753,2994" stroke="blue" stroke-width="2" />
<path d="M660,1260 L1275,2800" stroke="blue" stroke-width="2" />
<path d="M3485,634 L2796,2249" stroke="blue" stroke-width="2" />
<path d="M4302,415 L2726,1743" stroke="blue" stroke-width="2" />
<path d="M3231,2456 L3222,76" stroke="blue" stroke-width="2" />
<path d="M3664,165 L3602,967" stroke="blue" stroke-width="2" />
<path d="M4128,625 L2371,2363" stroke="blue" stroke-width="2" />
<path d="M2357,2080 L3381,2627" stroke="blue" stroke-width="2" />
<path d="M3626,2361 L2309,866" stroke="blue" stroke-width="2" />
<path d="M2382,171 L2672,1046" stroke="blue" stroke-width="2" />
<path d="M3367,2281 L810,1812" stroke="blue" stroke-width="2" />
<path d="M1961,2087 L1762,105" stroke="blue" stroke-width="2" />
<path d="M3255,2652 L215,1100" stroke="blue" stroke-width="2" />
<path d="M2882,1054 L1749,231" stroke="blue" stroke-width="2" />
<path d="M3806,2746 L4190,1511" stroke="blue" stroke-width="2" />
<path d="M3386,293 L2940,2533" stroke="blue" stroke-width="2" />
<path d="M1332,2918 L589,756" stroke="blue" stroke-width="2" />
<path d="M2936,2195 L2276,321" stroke="blue" stroke-width="2" />
<path d="M1986,822 L249,636" stroke="blue" stroke-width="2" />
<path d="M2994,560 L2899,1796" stroke="blue" stroke-width="2" />
<path d="M1201,549 L4258,2362" stroke="blue" stroke-width="2" />
<path d="M861,1355 L838,2972" stroke="blue" stroke-width="2" />
<path d="M1751,502 L509,2454" stroke="blue" stroke-width="2" />
<path d="M2294,2952 L659,1328" stroke="blue" stroke-width="2" />
<path d="M2431,2010 L3817,2808" stroke="blue" stroke-width="2" />
<path d="M562,403 L3432,1681" stroke="blue" stroke-width="2" />
<path d="M4332,2818 L1210,2696" stroke="blue" stroke-width="2" />
<path d="M2384,2733 L1395,1834" stroke="blue" stroke-width="2" />
<path d="M1379,1176 L2543,874" stroke="blue" stroke-width="2" />
<path d="M238,1216 L3906,2046" stroke="blue" stroke-width="2" />
<path d="M2919,2015 L1330,253" stroke="blue" stroke-width="2" />
<path d="M2959,1799 L3651,1873" stroke="blue" stroke-width="2" />
<path d="M2694,608 L4502,532" stroke="blue" stroke-width="2" />
<path d="M4406,2002 L281,309" stroke="blue" stroke-width="2" />
<path d="M4012,1099 L250,1693" stroke="blue" stroke-width="2" />
<path d="M4272,2725 L1221,2458" stroke="blue" stroke-width="2" />
<path d="M329,2124 L2982,85" stroke="blue" stroke-width="2" />
<path d="M2969,631 L1417,1168" stroke="blue" stroke-width="2" />
<path d="M4173,109 L3880,2274" stroke="blue" stroke-width="2" />
<path d="M2980,3000 L4263,204" stroke="blue" stroke-width="2" />
<path d="M2968,1181 L2226,992" stroke="blue" stroke-width="2" />
<path d="M935,820 L1922,702" stroke="blue" stroke-width="2" />
<path d="M3110,2807 L1923,1162" stroke="blue" stroke-width="2" />
<path d="M1093,2943 L178,2981" stroke="blue" stroke-width="2" />
<path d="M85,2374 L1006,123" stroke="blue" stroke-width="2" />
<path d="M490,2647 L1692,2155" stroke="blue" stroke-width="2" />
<path d="M1140,860 L2637,2443" stroke="blue" stroke-width="2" />
<path d="M362,2377 L3585,2253" stroke="blue" stroke-width="2" />
<path d="M4315,838 L844,333" stroke="blue" stroke-width="2" />
<path d="M1232,1870 L1141,1268" stroke="blue" stroke-width="2" />
<path d="M3054,1250 L4077,313" stroke="blue" stroke-width="2" />
<path d="M170,605 L812,973" stroke="blue" stroke-width="2" />
<path d="M2315,1949 L2465,2123" stroke="blue" stroke-width="2" />
<path d="M321,2160 L2898,601" stroke="blue" stroke-width="2" />
<path d="M3957,699 L43,1222" stroke="blue" stroke-width="2" />
<path d="M3576,2846 L1556,257" stroke="blue" stroke-width="2" />
<path d="M1495,2104 L779,2607" stroke="blue" stroke-width="2" />
<path d="M3172,392 L2693,928" stroke="blue" stroke-width="2" />
<path d="M2849,2029 L395,903" stroke="blue" stroke-width="2" />
<path d="M4489,791 L2650,7" stroke="blue" stroke-width="2" />
<path d="M4211,131 L3159,838" stroke="blue" stroke-width="2" />
<path d="M1825,115 L2176,344" stroke="blue" stroke-width="2" />
<path d="M2801,2943 L3575,1942" stroke="blue" stroke-width="2" />
<path d="M2101,2062 L2918,1108" stroke="blue" stroke-width="2" />
<path d="M129,295 L3392,2820" stroke="blue" stroke-width="2" />
<path d="M1336,2683 L2174,864" stroke="blue" stroke-width="2" />
<path d="M343,911 L4326,1551" stroke="blue" stroke-width="2" />
<path d="M1185,792 L3888,1348" stroke="blue" stroke-width="2" />
<path d="M1603,1310 L2237,631" stroke="blue" stroke-width="2" />
<path d="M129,954 L640,934" stroke="blue" stroke-width="2" />
<path d="M958,342 L1556,1088" stroke="blue" stroke-width="2" />
<path d="M3655,2772 L416,2676" stroke="blue" stroke-width="2" />
<path d="M3752,540 L488,2279" stroke="blue" stroke-width="2" />
<path d="M3257,1916 L3640,2784" stroke="blue" stroke-width="2" />
<path d="M1075,108 L1829,699" stroke="blue" stroke-width="2" />
<path d="M3975,1324 L463,2198" stroke="blue" stroke-width="2" />
<path d="M1812,33 L3630,2356" stroke="blue" stroke-width="2" />
<path d="M1326,358 L1954,407" stroke="blue" stroke-width="2" />
<path d="M1430,187 L590,570" stroke="blue" stroke-width="2" />
<path d="M3774,408 L1896,527" stroke="blue" stroke-width="2" />
<path d="M2791,2955 L4332,1197" stroke="blue" stroke-width="2" />
<path d="M2616,2372 L552,1175" stroke="blue" stroke-width="2" />
<path d="M1794,248 L3589,2533" stroke="blue" stroke-width="2" />
<path d="M2313,1420 L848,2913" stroke="blue" stroke-width="2" />
<path d="M3099,1393 L2662,1567" stroke="blue" stroke-width="2" />
<path d="M320,1878 L3789,107" stroke="blue" stroke-width="2" />
<path d="M34,1794 L3302,2758" stroke="blue" stroke-width="2" />
<path d="M2352,1133 L3452,2228" stroke="blue" stroke-width="2" />
<path d="M584,1854 L1877,692" stroke="blue" stroke-width="2" />
<path d="M1780,639 L1345,187" stroke="blue" stroke-width="2" />
<path d="M1243,1108 L3612,578" stroke="blue" stroke-width="2" />
<path d="M3744,2874 L1083,1272" stroke="blue" stroke-width="2" />
<path d="M1034,353 L422,585" stroke="blue" stroke-width="2" />
<path d="M1374,1811 L2068,1472" stroke="blue" stroke-width="2" />
<path d="M4058,2395 L2066,395" stroke="blue" stroke-width="2" />
<path d="M648,2458 L4233,2510" stroke="blue" stroke-width="2" />
<path d="M1184,769 L1945,441" stroke="blue" stroke-width="2" />
<path d="M1094,2530 L1554,595" stroke="blue" stroke-width="2" />
<path d="M267,1044 L3925,2162" stroke="blue" stroke-width="2" />
<path d="M1644,513 L2751,518" stroke="blue" stroke-width="2" />
<path d="M3525,468 L2513,1466" stroke="blue" stroke-width="2" />
<path d="M1706,578 L2069,1382" stroke="blue" stroke-width="2" />
<path d="M3987,2521 L2526,1220" stroke="blue" stroke-width="2" />
<path d="M374,1162 L2751,982" stroke="blue" stroke-width="2" />
<path d="M2932,2085 L4272,860" stroke="blue" stroke-width="2" />
<path d="M198,359 L1264,2001" stroke="blue" stroke-width="2" />
<path d="M4135,2449 L1837,2987" stroke="blue" stroke-width="2" />
<path d="M4029,1431 L222,691" stroke="blue" stroke-width="2" />
<path d="M2978,911 L4249,767" stroke="blue" stroke-width="2" />
<path d="M1875,2859 L1292,1546" stroke="blue" stroke-width="2" />
<path d="M398,2020 L2414,2175" stroke="blue" stroke-width="2" />
<path d="M2542,467 L1029,1748" stroke="blue" stroke-width="2" />
<path d="M1191,402 L3144,2180" stroke="blue" stroke-width="2" />
<path d="M1794,1744 L2375,495" stroke="blue" stroke-width="2" />
<path d="M3023,2237 L4251,1410" stroke="blue" stroke-width="2" />
<path d="M2170,781 L3102,2574" stroke="blue" stroke-width="2" />
<path d="M2678,2191 L3003,1852" stroke="blue" stroke-width="2" />
<path d="M1069,1177 L447,197" stroke="blue" stroke-width="2" />
<path d="M1954,512 L3337,971" stroke="blue" stroke-width="2" />
<path d="M1744,2581 L763,2002" stroke="blue" stroke-width="2" />
<path d="M1703,1884 L1744,1896" stroke="blue" stroke-width="2" />
<path d="M4034,65 L3072,2094" stroke="blue" stroke-width="2" />
<path d="M2700,2522 L2997,1672" stroke="blue" stroke-width="2" />
<path d="M3736,2961 L2950,62" stroke="blue" stroke-width="2" />
<path d="M3129,556 L1770,318" stroke="blue" stroke-width="2" />
<path d="M1565,1631 L2782,207" stroke="blue" stroke-width="2" />
<path d="M3342,169 L4006,311" stroke="blue" stroke-width="2" />
<path d="M1867,1775 L1245,785" stroke="blue" stroke-width="2" />
<path d="M3185,1243 L1127,1226" stroke="blue" stroke-width="2" />
<path d="M2049,965 L1597,185" stroke="blue" stroke-width="2" />
<path d="M1009,610 L997,2376" stroke="blue" stroke-width="2" />
<path d="M1085,1224 L1391,1436" stroke="blue" stroke-width="2" />
<path d="M915,761 L3677,1772" stroke="blue" stroke-width="2" />
<path d="M4485,2508 L1901,1465" stroke="blue" stroke-width="2" />
<path d="M2350,1612 L2245,2846" stroke="blue" stroke-width="2" />
<path d="M3290,1357 L4026,2345" stroke="blue" stroke-width="2" />
<path d="M3416,1984 L1376,901" stroke="blue" stroke-width="2" />
<path d="M1982,434 L4386,589" stroke="blue" stroke-width="2" />
<path d="M1116,2358 L3560,2231" stroke="blue" stroke-width="2" />
<path d="M292,355 L3679,2051" stroke="blue" stroke-width="2" />
<path d="M3517,1913 L1587,2575" stroke="blue" stroke-width="2" />
<path d="M1433,445 L2994,2876" stroke="blue" stroke-width="2" />
<path d="M182,2081 L271,2188" stroke="blue" stroke-width="2" />
<path d="M1589,2021 L2532,2681" stroke="blue" stroke-width="2" />
<path d="M1936,2595 L2237,2181" stroke="blue" stroke-width="2" />
<path d="M118,1355 L3072,2247" stroke="blue" stroke-width="2" />
<path d="M1436,2286 L429,2107" stroke="blue" stroke-width="2" />
<path d="M3434,2653 L4505,1924" stroke="blue" stroke-width="2" />
<path d="M3257,1855 L733,797" stroke="blue" stroke-width="2" />
<path d="M3909,1018 L4301,858" stroke="blue" stroke-width="2" />
<path d="M3365,935 L2351,947" stroke="blue" stroke-width="2" />
<path d="M2564,1022 L3673,2339" stroke="blue" stroke-width="2" />
<path d="M917,2619 L3499,1438" stroke="blue" stroke-width="2" />
<path d="M4440,722 L1618,541" stroke="blue" stroke-width="2" />
<path d="M2391,599 L120,2830" stroke="blue" stroke-width="2" />
<path d="M2646,550 L14,2362" stroke="blue" stroke-width="2" />
<path d="M326,2932 L1266,1974" stroke="blue" stroke-width="2" />
<path d="M3700,134 L1011,2958" stroke="blue" stroke-width="2" />
<path d="M4227,2943 L2642,858" stroke="blue" stroke-width="2" />
<path d="M2675,70 L803,2200" stroke="blue" stroke-width="2" />
<path d="M1641,545 L3181,1758" stroke="blue" stroke-width="2" />
<path d="M4114,2888 L2131,2209" stroke="blue" stroke-width="2" />
<path d="M3087,920 L1468,717" stroke="blue" stroke-width="2" />
<path d="M2447,2223 L1540,56" stroke="blue" stroke-width="2" />
<path d="M4203,2568 L244,2073" stroke="blue" stroke-width="2" />
<path d="M2644,97 L2906,1886" stroke="blue" stroke-width="2" />
<path d="M670,2276 L1530,2677" stroke="blue" stroke-width="2" />
<path d="M2737,1641 L669,1274" stroke="blue" stroke-width="2" />
<path d="M3179,1284 L3009,928" stroke="blue" stroke-width="2" />
<path d="M1262,2485 L1736,203" stroke="blue" stroke-width="2" />
<path d="M2982,900 L144,930" stroke="blue" stroke-width="2" />
<path d="M2035,319 L2844,347" stroke="blue" stroke-width="2" />
<path d="M2588,2234 L3101,206" stroke="blue" stroke-width="2" />
<path d="M1924,1569 L4496,617" stroke="blue" stroke-width="2" />
<path d="M3766,2650 L3909,308" stroke="blue" stroke-width="2" />
<path d="M2828,634 L1416,1163" stroke="blue" stroke-width="2" />
<path d="M512,2453 L892,2319" stroke="blue" stroke-width="2" />
<path d="M963,2321 L1783,1524" stroke="blue" stroke-width="2" />
<path d="M329,2477 L2458,2730" stroke="blue" stroke-width="2" />
<path d="M2939,2366 L3562,1947" stroke="blue" stroke-width="2" />
<path d="M3751,1240 L4473,2984" stroke="blue" stroke-width="2" />
<path d="M2522,1510 L1108,2562" stroke="blue" stroke-width="2" />
<path d="M2359,2465 L4051,2171" stroke="blue" stroke-width="2" />
<path d="M1805,1741 L199,228" stroke="blue" stroke-width="2" />
<path d="M2372,1391 L2675,89" stroke="blue" stroke-width="2" />
<path d="M2201,220 L2372,1866" stroke="blue" stroke-width="2" />
<path d="M2005,510 L1082,2130" stroke="blue" stroke-width="2" />
<path d="M3722,1581 L2832,1436" stroke="blue" stroke-width="2" />
<path d="M3931,2744 L16,100" stroke="blue" stroke-width="2" />
<path d="M442,1491 L2844,1535" stroke="blue" stroke-width="2" />
<path d="M1196,1224 L1236,2385" stroke="blue" stroke-width="2" />
<path d="M420,1767 L567,393" stroke="blue" stroke-width="2" />
<path d="M479,2850 L2340,119" stroke="blue" stroke-width="2" />
<path d="M3449,1753 L2553,49" stroke="blue" stroke-width="2" />
<path d="M2499,1046 L341,1409" stroke="blue" stroke-width="2" />
<path d="M2190,1417 L1399,668" stroke="blue" stroke-width="2" />
<path d="M4299,2016 L1426,1056" stroke="blue" stroke-width="2" />
<path d="M3698,2757 L3116,2288" stroke="blue" stroke-width="2" />
<path d="M3948,1047 L1478,2930" stroke="blue" stroke-width="2" />
<path d="M4295,1830 L4116,2930" stroke="blue" stroke-width="2" />
<path d="M1136,2476 L2624,1871" stroke="blue" stroke-width="2" />
<path d="M2074,199 L264,161" stroke="blue" stroke-width="2" />
<path d="M2335,2396 L3127,1246" stroke="blue" stroke-width="2" />
<path d="M844,1385 L2030,1237" stroke="blue" stroke-width="2" />
<path d="M3908,1143 L771,2190" stroke="blue" stroke-width="2" />
<path d="M4224,1401 L4459,1867" stroke="blue" stroke-width="2" />
<path d="M3412,756 L1614,1315" stroke="blue" stroke-width="2" />
<path d="M2970,800 L922,2608" stroke="blue" stroke-width="2" />
<path d="M290,1326 L4398,1197" stroke="blue" stroke-width="2" />
<path d="M2520,188 L1345,1569" stroke="blue" stroke-width="2" />
<path d="M2254,1913 L206,2604" stroke="blue" stroke-width="2" />
<path d="M2610,1667 L2996,2423" stroke="blue" stroke-width="2" />
<path d="M1505,2037 L2699,2280" stroke="blue" stroke-width="2" />
<path d="M3277,2957 L616,1997" stroke="blue" stroke-width="2" />
<path d="M1297,2674 L1898,2826" stroke="blue" stroke-width="2" />
<path d="M2326,53 L2807,2055" stroke="blue" stroke-width="2" />
<path d="M3839,1697 L672,1548" stroke="blue" stroke-width="2" />
<path d="M847,1449 L1888,563" stroke="blue" stroke-width="2" />
<path d="M255,2729 L475,1829" stroke="blue" stroke-width="2" />
<path d="M2257,2878 L758,821" stroke="blue" stroke-width="2" />
<path d="M660,727 L783,2896" stroke="blue" stroke-width="2" />
<path d="M2465,868 L738,1446" stroke="blue" stroke-width="2" />
<path d="M788,2098 L2319,65" stroke="blue" stroke-width="2" />
<path d="M359,1509 L3750,624" stroke="blue" stroke-width="2" />
<path d="M1944,1412 L219,655" stroke="blue" stroke-width="2" />
<path d="M2365,628 L324,2047" stroke="blue" stroke-width="2" />
<path d="M3732,1042 L2920,2201" stroke="blue" stroke-width="2" />
<path d="M3392,181 L4021,2137" stroke="blue" stroke-width="2" />
<path d="M745,245 L849,647" stroke="blue" stroke-width="2" />
<path d="M1740,210 L3898,1762" stroke="blue" stroke-width="2" />
<path d="M1730,1439 L3685,1949" stroke="blue" stroke-width="2" />
<path d="M406,2999 L845,2278" stroke="blue" stroke-width="2" />
<path d="M857,1986 L497,492" stroke="blue" stroke-width="2" />
<path d="M273,620 L1646,1983" stroke="blue" stroke-width="2" />
<path d="M3844,1970 L1953,1967" stroke="blue" stroke-width="2" />
<path d="M225,2688 L1318,1217" stroke="blue" stroke-width="2" />
<path d="M3718,1730 L3016,517" stroke="blue" stroke-width="2" />
<path d="M360,1435 L3412,75" stroke="blue" stroke-width="2" />
<path d="M266,432 L2533,713" stroke="blue" stroke-width="2" />
<path d="M2562,1988 L2324,2119" stroke="blue" stroke-width="2" />
<path d="M501,2768 L3933,471" stroke="blue" stroke-width="2" />
<path d="M674,864 L3246,938" stroke="blue" stroke-width="2" />
<path d="M736,607 L1294,2206" stroke="blue" stroke-width="2" />
<path d="M3684,2773 L928,2391" stroke="blue" stroke-width="2" />
<path d="M340,1421 L2234,1455" stroke="blue" stroke-width="2" />
<path d="M748,2509 L3827,1830" stroke="blue" stroke-width="2" />
<path d="M46,1574 L3563,1117" stroke="blue" stroke-width="2" />
<path d="M1614,1620 L1275,411" stroke="blue" stroke-width="2" />
<path d="M1019,702 L1972,116" stroke="blue" stroke-width="2" />
<path d="M2047,1707 L508,959" stroke="blue" stroke-width="2" />
<path d="M1290,2440 L2945,2006" stroke="blue" stroke-width="2" />
<path d="M606,348 L2975,1433" stroke="blue" stroke-width="2" />
<path d="M639,1752 L4312,2201" stroke="blue" stroke-width="2" />
<path d="M239,2743 L2057,2355" stroke="blue" stroke-width="2" />
<path d="M2772,2156 L3820,1774" stroke="blue" stroke-width="2" />
<path d="M751,1537 L827,1816" stroke="blue" stroke-width="2" />
<path d="M1337,2670 L1294,1012" stroke="blue" stroke-width="2" />
<path d="M3172,2107 L154,1207" stroke="blue" stroke-width="2" />
<path d="M3481,2469 L2283,763" stroke="blue" stroke-width="2" />
<path d="M2070,2285 L2787,681" stroke="blue" stroke-width="2" />
<path d="M1096,2038 L3995,1524" stroke="blue" stroke-width="2" />
<path d="M2459,1769 L1551,2255" stroke="blue" stroke-width="2" />
<path d="M2892,1844 L4459,1547" stroke="blue" stroke-width="2" />
<path d="M428,1430 L3949,1357" stroke="blue" stroke-width="2" />
<path d="M909,450 L830,817" stroke="blue" stroke-width="2" />
<path d="M1369,1559 L1998,1002" stroke="blue" stroke-width="2" />
<path d="M1540,2117 L113,431" stroke="blue" stroke-width="2" />
<path d="M4428,19 L1950,2455" stroke="blue" stroke-width="2" />
<path d="M2276,678 L1982,110" stroke="blue" stroke-width="2" />
<path d="M2660,1645 L1294,1686" stroke="blue" stroke-width="2" />
<path d="M1072,1326 L4324,2613" stroke="blue" stroke-width="2" />
<path d="M1995,338 L2443,2542" stroke="blue" stroke-width="2" />
<path d="M3117,2172 L351,516" stroke="blue" stroke-width="2" />
<path d="M1420,639 L2487,1736" stroke="blue" stroke-width="2" />
<path d="M1883,2362 L792,1259" stroke="blue" stroke-width="2" />
<path d="M54,634 L2249,695" stroke="blue" stroke-width="2" />
<path d="M4458,19 L2534,369" stroke="blue" stroke-width="2" />
<path d="M426,2363 L721,2455" stroke="blue" stroke-width="2" />
<path d="M2494,1588 L528,392" stroke="blue" stroke-width="2" />
<path d="M3020,1490 L1740,228" stroke="blue" stroke-width="2" />
<path d="M3472,1915 L1952,2407" stroke="blue" stroke-width="2" />
<path d="M135,2472 L701,2512" stroke="blue" stroke-width="2" />
<path d="M3769,2392 L2523,1205" stroke="blue" stroke-width="2" />
<path d="M3786,1674 L1506,14" stroke="blue" stroke-width="2" />
<path d="M2922,878 L1507,1273" stroke="blue" stroke-width="2" />
<path d="M3772,2231 L4432,1505" stroke="blue" stroke-width="2" />
<path d="M2662,440 L3402,1" stroke="blue" stroke-width="2" />
<path d="M267,350 L4263,511" stroke="blue" stroke-width="2" />
<path d="M2066,2493 L3402,399" stroke="blue" stroke-width="2" />
<path d="M3289,836 L2551,2788" stroke="blue" stroke-width="2" />
<path d="M541,2871 L3162,1488" stroke="blue" stroke-width="2" />
<path d="M1114,1287 L3596,2764" stroke="blue" stroke-width="2" />
<path d="M2994,1110 L2225,1694" stroke="blue" stroke-width="2" />
<path d="M2999,621 L2669,1443" stroke="blue" stroke-width="2" />
<path d="M4056,1642 L318,940" stroke="blue" stroke-width="2" />
<path d="M1338,2738 L644,2514" stroke="blue" stroke-width="2" />
<path d="M2943,2662 L884,2907" stroke="blue" stroke-width="2" />
<path d="M1418,2346 L3651,2266" stroke="blue" stroke-width="2" />
<path d="M1692,2037 L3066,321" stroke="blue" stroke-width="2" />
<path d="M4372,2328 L3905,254" stroke="blue" stroke-width="2" />
<path d="M2626,1014 L2376,2228" stroke="blue" stroke-width="2" />
<path d="M3540,2334 L4483,574" stroke="blue" stroke-width="2" />
<path d="M1414,1882 L1387,2309" stroke="blue" stroke-width="2" />
<path d="M949,709 L2172,660" stroke="blue" stroke-width="2" />
<path d="M526,2035 L602,885" stroke="blue" stroke-width="2" />
<path d="M2496,2990 L151,335" stroke="blue" stroke-width="2" />
<path d="M1569,1008 L2374,920" stroke="blue" stroke-width="2" />
<path d="M3809,2099 L349,2911" stroke="blue" stroke-width="2" />
<path d="M1035,945 L318,269" stroke="blue" stroke-width="2" />
<path d="M2055,469 L624,2152" stroke="blue" stroke-width="2" />
<path d="M1497,373 L4352,29" stroke="blue" stroke-width="2" />
<path d="M3881,301 L788,247" stroke="blue" stroke-width="2" />
<path d="M2577,1778 L3036,856" stroke="blue" stroke-width="2" />
<path d="M3833,1827 L447,30" stroke="blue" stroke-width="2" />
<path d="M4485,2141 L1587,497" stroke="blue" stroke-width="2" />
<path d="M880,1160 L83,447" stroke="blue" stroke-width="2" />
<path d="M4081,1823 L4149,2886" stroke="blue" stroke-width="2" />
<path d="M3632,1840 L143,2633" stroke="blue" stroke-width="2" />
<path d="M2117,980 L3061,1915" stroke="blue" stroke-width="2" />
<path d="M787,1397 L153,1442" stroke="blue" stroke-width="2" />
<path d="M2998,2860 L776,1151" stroke="blue" stroke-width="2" />
<path d="M1488,388 L2319,2392" stroke="blue" stroke-width="2" />
<path d="M3396,2753 L1593,2743" stroke="blue" stroke-width="2" />
<path d="M635,1200 L1537,77" stroke="blue" stroke-width="2" />
<path d="M151,329 L3720,2441" stroke="blue" stroke-width="2" />
<path d="M598,87 L3167,1977" stroke="blue" stroke-width="2" />
<path d="M2092,727 L4404,870" stroke="blue" stroke-width="2" />
<path d="M3839,990 L248,1753" stroke="blue" stroke-width="2" />
<path d="M509,1104 L451,34" stroke="blue" stroke-width="2" />
<path d="M492,2529 L1843,258" stroke="blue" stroke-width="2" />
<path d="M3168,363 L3363,1454" stroke="blue" stroke-width="2" />
<path d="M133,2748 L3149,2804" stroke="blue" stroke-width="2" />
<path d="M3180,125 L4366,1186" stroke="blue" stroke-width="2" />
<path d="M3625,720 L3411,164" stroke="blue" stroke-width="2" />
<path d="M2547,1147 L1480,2032" stroke="blue" stroke-width="2" />
<path d="M2354,1255 L1019,486" stroke="blue" stroke-width="2" />
<path d="M3041,2650 L2528,2675" stroke="blue" stroke-width="2" />
<path d="M2526,2204 L1865,2737" stroke="blue" stroke-width="2" />
<path d="M2638,1727 L4261,810" stroke="blue" stroke-width="2" />
<path d="M875,124 L3145,621" stroke="blue" stroke-width="2" />
<path d="M3018,2760 L1765,2224" stroke="blue" stroke-width="2" />
<path d="M3927,451 L81,243" stroke="blue" stroke-width="2" />
<path d="M1310,1480 L986,955" stroke="blue" stroke-width="2" />
<path d="M932,357 L3589,2812" stroke="blue" stroke-width="2" />
<path d="M2528,1041 L2973,733" stroke="blue" stroke-width="2" />
<path d="M1974,2419 L121,1655" stroke="blue" stroke-width="2" />
<path d="M2223,509 L1552,992" stroke="blue" stroke-width="2" />
<path d="M3368,1326 L1878,223" stroke="blue" stroke-width="2" />
<path d="M2658,1366 L3580,1482" stroke="blue" stroke-width="2" />
<path d="M450,381 L1612,950" stroke="blue" stroke-width="2" />
<path d="M3609,1321 L924,2769" stroke="blue" stroke-width="2" />
<path d="M3659,1752 L2932,2703" stroke="blue" stroke-width="2" />
<path d="M4092,2911 L1155,823" stroke="blue" stroke-width="2" />
<path d="M2427,1790 L3727,706" stroke="blue" stroke-width="2" />
<path d="M2678,1404 L2050,707" stroke="blue" stroke-width="2" />
<path d="M3019,2809 L3426,107" stroke="blue" stroke-width="2" />
<path d="M2676,246 L208,2065" stroke="blue" stroke-width="2" />
<path d="M3894,2425 L4401,851" stroke="blue" stroke-width="2" />
<path d="M872,338 L1520,1020" stroke="blue" stroke-width="2" />
<path d="M3441,2761 L3036,1654" stroke="blue" stroke-width="2" />
<path d="M1071,2513 L1284,2944" stroke="blue" stroke-width="2" />
<path d="M1798,64 L2767,243" stroke="blue" stroke-width="2" />
<path d="M1857,34 L1586,1620" stroke="blue" stroke-width="2" />
<path d="M2542,2263 L2680,248" stroke="blue" stroke-width="2" />
<path d="M2700,662 L1388,831" stroke="blue" stroke-width="2" />
<path d="M4224,285 L1587,2604" stroke="blue" stroke-width="2" />
<path d="M2612,92 L4128,584" stroke="blue" stroke-width="2" />
<path d="M4426,780 L801,58" stroke="blue" stroke-width="2" />
<path d="M3483,1061 L4464,2151" stroke="blue" stroke-width="2" />
<path d="M1537,2910 L624,1321" stroke="blue" stroke-width="2" />
<path d="M4079,2206 L207,1775" stroke="blue" stroke-width="2" />
<path d="M4380,1686 L919,1983" stroke="blue" stroke-width="2" />
<path d="M1561,1490 L2284,783" stroke="blue" stroke-width="2" />
<path d="M3374,2327 L3518,2938" stroke="blue" stroke-width="2" />
<path d="M2467,2724 L1560,1262" stroke="blue" stroke-width="2" />
<path d="M3010,2568 L2152,574" stroke="blue" stroke-width="2" />
<path d="M3801,1161 L2029,1111" stroke="blue" stroke-width="2" />
<path d="M642,2786 L2426,143" stroke="blue" stroke-width="2" />
<path d="M1327,447 L3874,397" stroke="blue" stroke-width="2" />
<path d="M3390,1670 L328,813" stroke="blue" stroke-width="2" />
<path d="M2328,1558 L2454,2300" stroke="blue" stroke-width="2" />
<path d="M2376,2386 L4051,2399" stroke="blue" stroke-width="2" />
<path d="M699,2188 L362,2720" stroke="blue" stroke-width="2" />
<path d="M4319,2918 L3751,36" stroke="blue" stroke-width="2" />
<path d="M1566,2747 L2259,2276" stroke="blue" stroke-width="2" />
<path d="M2001,2398 L2158,2909" stroke="blue" stroke-width="2" />
<path d="M773,129 L3911,2405" stroke="blue" stroke-width="2" />
<path d="M1388,1127 L9,2651" stroke="blue" stroke-width="2" />
<path d="M1213,2907 L3514,697" stroke="blue" stroke-width="2" />
<path d="M1189,1219 L4409,587" stroke="blue" stroke-width="2" />
<path d="M2979,410 L457,2272" stroke="blue" stroke-width="2" />
<path d="M4439,2048 L962,1724" stroke="blue" stroke-width="2" />
<path d="M2681,464 L4254,206" stroke="blue" stroke-width="2" />
<path d="M2536,1849 L2026,490" stroke="blue" stroke-width="2" />
<path d="M3611,268 L2997,2391" stroke="blue" stroke-width="2" />
<path d="M4403,376 L1207,1908" stroke="blue" stroke-width="2" />
<path d="M1511,791 L3669,1969" stroke="blue" stroke-width="2" />
<path d="M153,2246 L733,1008" stroke="blue" stroke-width="2" />
<path d="M565,922 L3346,178" stroke="blue" stroke-width="2" />
<path d="M1942,2535 L2155,2732" stroke="blue" stroke-width="2" />
<path d="M3764,2154 L1679,29" stroke="blue" stroke-width="2" />
<path d="M143,1440 L1172,681" stroke="blue" stroke-width="2" />
<path d="M1311,2595 L2864,1374" stroke="blue" stroke-width="2" />
<path d="M1270,1482 L1276,1753" stroke="blue" stroke-width="2" />
<path d="M2801,2266 L2279,782" stroke="blue" stroke-width="2" />
<path d="M2328,1771 L2073,1482" stroke="blue" stroke-width="2" />
<path d="M3414,1250 L3743,2020" stroke="blue" stroke-width="2" />
<path d="M2589,1107 L3165,1205" stroke="blue" stroke-width="2" />
<path d="M4285,94 L53,1101" stroke="blue" stroke-width="2" />
<path d="M3204,2622 L1214,2542" stroke="blue" stroke-width="2" />
<path d="M4504,2629 L3161,2555" stroke="blue" stroke-width="2" />
<path d="M2763,1971 L1936,2154" stroke="blue" stroke-width="2" />
<path d="M2472,827 L1505,116" stroke="blue" stroke-width="2" />
<path d="M3874,560 L2512,182" stroke="blue" stroke-width="2" />
<path d="M2391,1834 L4059,1221" stroke="blue" stroke-width="2" />
<path d="M4132,130 L2950,1029" stroke="blue" stroke-width="2" />
<path d="M1928,2344 L3886,2367" stroke="blue" stroke-width="2" />
<path d="M2953,2093 L1272,1848" stroke="blue" stroke-width="2" />
<path d="M3184,2746 L2854,1413" stroke="blue" stroke-width="2" />
<path d="M3670,1474 L4341,368" stroke="blue" stroke-width="2" />
<path d="M3607,2751 L243,2675" stroke="blue" stroke-width="2" />
<path d="M2841,2146 L4295,2103" stroke="blue" stroke-width="2" />
<path d="M1540,896 L2967,1692" stroke="blue" stroke-width="2" />
<path d="M2230,726 L4076,2239" stroke="blue" stroke-width="2" />
<path d="M519,1718 L756,1996" stroke="blue" stroke-width="2" />
<path d="M4058,397 L564,2426" stroke="blue" stroke-width="2" />
<path d="M0,0 L4507,0" stroke="red" stroke-width="10" />
<path d="M4507,0 L4507,3004" stroke="red" stroke-width="10" />
<path d="M0,3004 L4507,3004" stroke="red" stroke-width="10" />
<path d="M0,3004 L0,0" stroke="red" stroke-width="10" />
</svg>