<?xml version="1.0" encoding="UTF-8"?>
<svg xmlns="http://www.w3.org/2000/svg" xmlns:xlink="http://www.w3.org/1999/xlink"
     width="10000" height="10000" viewBox="0 0 10000 10000">
<defs>
</defs>
<path d="M199,2017 L665,730" stroke="blue" stroke-width="2" />
<path d="M728,2337 L822,552" stroke="blue" stroke-width="2" />
<path d="M840,2560 L1063,2236" stroke="blue" stroke-width="2" />
<path d="M1454,2320 L649,203" stroke="blue" stroke-width="2" />
<path d="M273,829 L79,209" stroke="blue" stroke-width="2" />
<path d="M1317,18 L1170,1229" stroke="blue" stroke-width="2" />
<path d="M1536,1041 L343,2140" stroke="blue" stroke-width="2" />
<path d="M885,372 L207,238" stroke="blue" stroke-width="2" />
<path d="M285,2083 L1019,185" stroke="blue" stroke-width="2" />
<path d="M1045,1466 L1491,697" stroke="blue" stroke-width="2" />
<path d="M1135,493 L1144,1578" stroke="blue" stroke-width="2" />
<path d="M297,1077 L1061,1259" stroke="blue" stroke-width="2" />
<path d="M300,2425 L949,280" stroke="blue" stroke-width="2" />
<path d="M298,2483 L1204,1035" stroke="blue" stroke-width="2" />
<path d="M381,1659 L1026,435" stroke="blue" stroke-width="2" />
<path d="M906,812 L834,1494" stroke="blue" stroke-width="2" />
<path d="M865,662 L414,490" stroke="blue" stroke-width="2" />
<path d="M464,1307 L647,2262" stroke="blue" stroke-width="2" />
<path d="M838,2020 L1440,2381" stroke="blue" stroke-width="2" />
<path d="M709,473 L458,2230" stroke="blue" stroke-width="2" />
<path d="M1509,1018 L1247,423" stroke="blue" stroke-width="2" />
<path d="M553,1372 L331,168" stroke="blue" stroke-width="2" />
<path d="M1327,396 L430,1138" stroke="blue" stroke-width="2" />
<path d="M438,1819 L517,1305" stroke="blue" stroke-width="2" />
<path d="M8,1372 L1177,537" stroke="blue" stroke-width="2" />
<path d="M97,2222 L12,2191" stroke="blue" stroke-width="2" />
<path d="M932,1854 L621,1476" stroke="blue" stroke-width="2" />
<path d="M1133,1985 L1323,1900" stroke="blue" stroke-width="2" />
<path d="M459,855 L614,1367" stroke="blue" stroke-width="2" />
<path d="M1041,571 L127,2337" stroke="blue" stroke-width="2" />
<path d="M77,212 L1382,1410" stroke="blue" stroke-width="2" />
<path d="M953,547 L413,1918" stroke="blue" stroke-width="2" />
<path d="M190,741 L1336,1586" stroke="blue" stroke-width="2" />
<path d="M159,2366 L1507,90" stroke="blue" stroke-width="2" />
<path d="M682,1859 L149,1852" stroke="blue" stroke-width="2" />
<path d="M655,468 L1042,2154" stroke="blue" stroke-width="2" />
<path d="M813,30 L1270,1014" stroke="blue" stroke-width="2" />
<path d="M1110,314 L1302,2470" stroke="blue" stroke-width="2" />
<path d="M1101,191 L275,1577" stroke="blue" stroke-width="2" />
<path d="M1100,1652 L289,387" stroke="blue" stroke-width="2" />
<path d="M1253,1164 L1185,2305" stroke="blue" stroke-width="2" />
<path d="M926,2310 L738,752" stroke="blue" stroke-width="2" />
<path d="M1542,1378 L26,1497" stroke="blue" stroke-width="2" />
<path d="M406,219 L1055,1391" stroke="blue" stroke-width="2" />
<path d="M897,180 L1525,1045" stroke="blue" stroke-width="2" />
<path d="M490,17 L355,1809" stroke="blue" stroke-width="2" />
<path d="M127,1792 L256,1322" stroke="blue" stroke-width="2" />
<path d="M1121,1998 L427,391" stroke="blue" stroke-width="2" />
<path d="M176,562 L961,962" stroke="blue" stroke-width="2" />
<path d="M85,932 L804,1507" stroke="blue" stroke-width="2" />
<path d="M680,2119 L694,1460" stroke="blue" stroke-width="2" />
<path d="M1049,2197 L898,1905" stroke="blue" stroke-width="2" />
<path d="M1438,1901 L1554,595" stroke="blue" stroke-width="2" />
<path d="M907,561 L1166,1222" stroke="blue" stroke-width="2" />
<path d="M110,1815 L1248,35" stroke="blue" stroke-width="2" />
<path d="M461,6 L439,1341" stroke="blue" stroke-width="2" />
<path d="M1520,1751 L665,672" stroke="blue" stroke-width="2" />
<path d="M961,456 L271,415" stroke="blue" stroke-width="2" />
<path d="M44,2043 L1083,1012" stroke="blue" stroke-width="2" />
<path d="M1183,945 L108,835" stroke="blue" stroke-width="2" />
<path d="M614,2322 L590,459" stroke="blue" stroke-width="2" />
<path d="M1511,1170 L368,1944" stroke="blue" stroke-width="2" />
<path d="M1495,606 L1321,2261" stroke="blue" stroke-width="2" />
<path d="M1428,2020 L848,1011" stroke="blue" stroke-width="2" />
<path d="M176,1497 L1333,913" stroke="blue" stroke-width="2" />
<path d="M461,1126 L558,138" stroke="blue" stroke-width="2" />
<path d="M256,873 L965,1929" stroke="blue" stroke-width="2" />
<path d="M893,1850 L476,382" stroke="blue" stroke-width="2" />
<path d="M50,784 L616,1618" stroke="blue" stroke-width="2" />
<path d="M95,2448 L284,1595" stroke="blue" stroke-width="2" />
<path d="M556,1985 L1479,2516" stroke="blue" stroke-width="2" />
<path d="M169,1333 L1528,2156" stroke="blue" stroke-width="2" />
<path d="M700,2062 L591,1763" stroke="blue" stroke-width="2" />
<path d="M863,445 L384,2383" stroke="blue" stroke-width="2" />
<path d="M79,1062 L1371,1606" stroke="blue" stroke-width="2" />
<path d="M626,1825 L474,2007" stroke="blue" stroke-width="2" />
<path d="M115,705 L130,1537" stroke="blue" stroke-width="2" />
<path d="M616,2499 L906,1426" stroke="blue" stroke-width="2" />
<path d="M1542,1604 L638,744" stroke="blue" stroke-width="2" />
<path d="M1506,1228 L934,346" stroke="blue" stroke-width="2" />
<path d="M424,13 L507,229" stroke="blue" stroke-width="2" />
<path d="M71,1608 L1209,1319" stroke="blue" stroke-width="2" />
<path d="M222,2202 L1348,819" stroke="blue" stroke-width="2" />
<path d="M583,1097 L791,211" stroke="blue" stroke-width="2" />
<path d="M707,1835 L1139,1732" stroke="blue" stroke-width="2" />
<path d="M1415,1920 L1231,1193" stroke="blue" stroke-width="2" />
<path d="M8,740 L44,1796" stroke="blue" stroke-width="2" />
<path d="M884,1951 L764,1844" stroke="blue" stroke-width="2" />
<path d="M1097,253 L236,303" stroke="blue" stroke-width="2" />
<path d="M441,320 L1462,1053" stroke="blue" stroke-width="2" />
<path d="M477,452 L1133,257" stroke="blue" stroke-width="2" />
<path d="M422,2428 L520,2237" stroke="blue" stroke-width="2" />
<path d="M817,98 L55,769" stroke="blue" stroke-width="2" />
<path d="M1195,789 L504,2275" stroke="blue" stroke-width="2" />
<path d="M1270,2226 L377,610" stroke="blue" stroke-width="2" />
<path d="M575,1492 L192,1759" stroke="blue" stroke-width="2" />
<path d="M810,1933 L336,823" stroke="blue" stroke-width="2" />
<path d="M917,1757 L86,1620" stroke="blue" stroke-width="2" />
<path d="M662,1015 L489,1283" stroke="blue" stroke-width="2" />
<path d="M1455,54 L833,2568" stroke="blue" stroke-width="2" />
<path d="M320,794 L517,1275" stroke="blue" stroke-width="2" />
<path d="M516,314 L231,1562" stroke="blue" stroke-width="2" />
<path d="M113,990 L542,375" stroke="blue" stroke-width="2" />
<path d="M789,167 L1387,53" stroke="blue" stroke-width="2" />
<path d="M502,2544 L619,990" stroke="blue" stroke-width="2" />
<path d="M1425,1574 L1481,1647" stroke="blue" stroke-width="2" />
<path d="M690,812 L1445,1903" stroke="blue" stroke-width="2" />
<path d="M106,764 L234,989" stroke="blue" stroke-width="2" />
<path d="M112,952 L237,2480" stroke="blue" stroke-width="2" />
<path d="M721,1880 L56,758" stroke="blue" stroke-width="2" />
<path d="M1134,813 L1189,1447" stroke="blue" stroke-width="2" />
<path d="M1192,673 L323,434" stroke="blue" stroke-width="2" />
<path d="M1107,2311 L278,899" stroke="blue" stroke-width="2" />
<path d="M1321,1431 L773,293" stroke="blue" stroke-width="2" />
<path d="M1179,146 L1339,1552" stroke="blue" stroke-width="2" />
<path d="M623,2083 L481,2344" stroke="blue" stroke-width="2" />
<path d="M1195,1296 L684,176" stroke="blue" stroke-width="2" />
<path d="M645,994 L753,2124" stroke="blue" stroke-width="2" />
<path d="M161,51 L1207,625" stroke="blue" stroke-width="2" />
<path d="M734,138 L1051,1060" stroke="blue" stroke-width="2" />
<path d="M1528,2151 L1196,181" stroke="blue" stroke-width="2" />
<path d="M672,116 L277,299" stroke="blue" stroke-width="2" />
<path d="M110,2420 L871,1047" stroke="blue" stroke-width="2" />
<path d="M402,1131 L1288,1759" stroke="blue" stroke-width="2" />
<path d="M1209,2479 L502,881" stroke="blue" stroke-width="2" />
<path d="M1129,1629 L429,154" stroke="blue" stroke-width="2" />
<path d="M952,685 L153,2566" stroke="blue" stroke-width="2" />
<path d="M691,1151 L101,2134" stroke="blue" stroke-width="2" />
<path d="M1399,2546 L495,649" stroke="blue" stroke-width="2" />
<path d="M1540,132 L621,1155" stroke="blue" stroke-width="2" />
<path d="M753,2180 L1422,2065" stroke="blue" stroke-width="2" />
<path d="M1552,2494 L1020,1350" stroke="blue" stroke-width="2" />
<path d="M62,1579 L1220,1836" stroke="blue" stroke-width="2" />
<path d="M1172,2543 L817,599" stroke="blue" stroke-width="2" />
<path d="M711,182 L1484,874" stroke="blue" stroke-width="2" />
<path d="M763,233 L807,1738" stroke="blue" stroke-width="2" />
<path d="M1090,1895 L189,1998" stroke="blue" stroke-width="2" />
<path d="M89,2205 L1,1058" stroke="blue" stroke-width="2" />
<path d="M1066,1249 L612,76" stroke="blue" stroke-width="2" />
<path d="M731,279 L1549,1391" stroke="blue" stroke-width="2" />
<path d="M1138,402 L328,573" stroke="blue" stroke-width="2" />
<path d="M539,1140 L745,916" stroke="blue" stroke-width="2" />
<path d="M1084,134 L1131,1519" stroke="blue" stroke-width="2" />
<path d="M1064,1893 L1010,2303" stroke="blue" stroke-width="2" />
<path d="M1153,2576 L1246,1829" stroke="blue" stroke-width="2" />
<path d="M820,686 L905,1215" stroke="blue" stroke-width="2" />
<path d="M821,107 L905,423" stroke="blue" stroke-width="2" />
<path d="M636,2572 L1404,1182" stroke="blue" stroke-width="2" />
<path d="M265,780 L1140,1705" stroke="blue" stroke-width="2" />
<path d="M60,2425 L764,940" stroke="blue" stroke-width="2" />
<path d="M820,147 L235,376" stroke="blue" stroke-width="2" />
<path d="M861,1678 L1269,759" stroke="blue" stroke-width="2" />
<path d="M1258,1338 L477,1104" stroke="blue" stroke-width="2" />
<path d="M1415,1474 L994,1799" stroke="blue" stroke-width="2" />
<path d="M305,487 L601,359" stroke="blue" stroke-width="2" />
<path d="M1280,319 L89,2561" stroke="blue" stroke-width="2" />
<path d="M1438,2590 L889,1171" stroke="blue" stroke-width="2" />
<path d="M497,1210 L158,1867" stroke="blue" stroke-width="2" />
<path d="M117,564 L1461,2467" stroke="blue" stroke-width="2" />
<path d="M95,1576 L29,1482" stroke="blue" stroke-width="2" />
<path d="M558,811 L410,2473" stroke="blue" stroke-width="2" />
<path d="M770,2584 L990,365" stroke="blue" stroke-width="2" />
<path d="M262,1395 L1477,1580" stroke="blue" stroke-width="2" />
<path d="M336,2119 L260,1283" stroke="blue" stroke-width="2" />
<path d="M229,285 L1421,500" stroke="blue" stroke-width="2" />
<path d="M1496,1341 L264,468" stroke="blue" stroke-width="2" />
<path d="M958,1713 L1548,2158" stroke="blue" stroke-width="2" />
<path d="M587,856 L244,1307" stroke="blue" stroke-width="2" />
<path d="M1497,2543 L933,508" stroke="blue" stroke-width="2" />
<path d="M866,117 L1293,13" stroke="blue" stroke-width="2" />
<path d="M323,1825 L794,1116" stroke="blue" stroke-width="2" />
<path d="M1313,1959 L1209,662" stroke="blue" stroke-width="2" />
<path d="M1123,1556 L277,1260" stroke="blue" stroke-width="2" />
<path d="M902,2224 L792,67" stroke="blue" stroke-width="2" />
<path d="M3,1930 L688,17" stroke="blue" stroke-width="2" />
<path d="M1122,2583 L352,1939" stroke="blue" stroke-width="2" />
<path d="M807,1663 L1238,1821" stroke="blue" stroke-width="2" />
<path d="M122,645 L714,1316" stroke="blue" stroke-width="2" />
<path d="M818,684 L1322,2047" stroke="blue" stroke-width="2" />
<path d="M1366,1525 L277,599" stroke="blue" stroke-width="2" />
<path d="M39,508 L1017,454" stroke="blue" stroke-width="2" />
<path d="M1001,346 L1319,2308" stroke="blue" stroke-width="2" />
<path d="M1357,2281 L976,1056" stroke="blue" stroke-width="2" />
<path d="M631,266 L400,2548" stroke="blue" stroke-width="2" />
<path d="M659,2419 L1070,448" stroke="blue" stroke-width="2" />
<path d="M275,995 L1236,390" stroke="blue" stroke-width="2" />
<path d="M210,844 L465,81" stroke="blue" stroke-width="2" />
<path d="M509,144 L1492,803" stroke="blue" stroke-width="2" />
<path d="M1373,1298 L147,2563" stroke="blue" stroke-width="2" />
<path d="M1483,2507 L634,286" stroke="blue" stroke-width="2" />
<path d="M1282,1566 L986,692" stroke="blue" stroke-width="2" />
<path d="M828,1873 L1478,598" stroke="blue" stroke-width="2" />
<path d="M940,1821 L142,2108" stroke="blue" stroke-width="2" />
<path d="M175,2091 L339,1858" stroke="blue" stroke-width="2" />
<path d="M1069,102 L1520,1027" stroke="blue" stroke-width="2" />
<path d="M115,93 L1272,2448" stroke="blue" stroke-width="2" />
<path d="M836,1425 L31,1348" stroke="blue" stroke-width="2" />
<path d="M359,1641 L809,896" stroke="blue" stroke-width="2" />
<path d="M1217,764 L503,1481" stroke="blue" stroke-width="2" />
<path d="M679,1946 L1525,1128" stroke="blue" stroke-width="2" />
<path d="M691,1258 L1553,2208" stroke="blue" stroke-width="2" />
<path d="M104,568 L156,2145" stroke="blue" stroke-width="2" />
<path d="M524,957 L931,681" stroke="blue" stroke-width="2" />
<path d="M1470,2547 L392,968" stroke="blue" stroke-width="2" />
<path d="M1374,2034 L215,2022" stroke="blue" stroke-width="2" />
<path d="M1230,239 L1268,995" stroke="blue" stroke-width="2" />
<path d="M338,416 L671,138" stroke="blue" stroke-width="2" />
<path d="M1398,1123 L542,805" stroke="blue" stroke-width="2" />
<path d="M1338,2024 L485,1858" stroke="blue" stroke-width="2" />
<path d="M628,466 L861,229" stroke="blue" stroke-width="2" />
<path d="M1116,1174 L1211,1304" stroke="blue" stroke-width="2" />
<path d="M230,1975 L482,1643" stroke="blue" stroke-width="2" />
<path d="M154,1035 L1454,968" stroke="blue" stroke-width="2" />
<path d="M1310,1879 L970,1494" stroke="blue" stroke-width="2" />
<path d="M978,949 L741,1293" stroke="blue" stroke-width="2" />
<path d="M808,1169 L671,703" stroke="blue" stroke-width="2" />
<path d="M839,552 L656,34" stroke="blue" stroke-width="2" />
<path d="M359,939 L595,325" stroke="blue" stroke-width="2" />
<path d="M1526,2029 L616,875" stroke="blue" stroke-width="2" />
<path d="M659,200 L1098,2298" stroke="blue" stroke-width="2" />
<path d="M412,714 L517,1461" stroke="blue" stroke-width="2" />
<path d="M848,1397 L228,1231" stroke="blue" stroke-width="2" />
<path d="M1019,2451 L1053,1355" stroke="blue" stroke-width="2" />
<path d="M711,1213 L1475,1725" stroke="blue" stroke-width="2" />
<path d="M1049,2419 L512,2353" stroke="blue" stroke-width="2" />
<path d="M1316,1199 L776,515" stroke="blue" stroke-width="2" />
<path d="M1512,972 L128,593" stroke="blue" stroke-width="2" />
<path d="M899,232 L297,1379" stroke="blue" stroke-width="2" />
<path d="M783,200 L852,1956" stroke="blue" stroke-width="2" />
<path d="M592,1265 L579,1285" stroke="blue" stroke-width="2" />
<path d="M171,1463 L961,204" stroke="blue" stroke-width="2" />
<path d="M573,2032 L95,2590" stroke="blue" stroke-width="2" />
<path d="M390,1549 L273,747" stroke="blue" stroke-width="2" />
<path d="M558,846 L1066,1941" stroke="blue" stroke-width="2" />
<path d="M515,2494 L286,2533" stroke="blue" stroke-width="2" />
<path d="M768,1304 L708,1178" stroke="blue" stroke-width="2" />
<path d="M465,803 L1549,186" stroke="blue" stroke-width="2" />
<path d="M886,2049 L1194,209" stroke="blue" stroke-width="2" />
<path d="M530,690 L1480,1876" stroke="blue" stroke-width="2" />
<path d="M411,2466 L39,2520" stroke="blue" stroke-width="2" />
<path d="M302,2112 L554,274" stroke="blue" stroke-width="2" />
<path d="M0,0 L1555,0" stroke="red" stroke-width="10" />
<path d="M1555,0 L1555,2591" stroke="red" stroke-width="10" />
<path d="M0,2591 L1555,2591" stroke="red" stroke-width="10" />
<path d="M0,2591 L0,0" stroke="red" stroke-width="10" />
</svg>