<?xml version="1.0" encoding="UTF-8"?>
<svg xmlns="http://www.w3.org/2000/svg" xmlns:xlink="http://www.w3.org/1999/xlink"
     width="10000" height="10000" viewBox="0 0 10000 10000">
<defs>
</defs>
<path d="M2856,4572 L1387,3670" stroke="blue" stroke-width="2" />
<path d="M291,3161 L840,4684" stroke="blue" stroke-width="2" />
<path d="M1376,1957 L1651,1667" stroke="blue" stroke-width="2" />
<path d="M2523,2494 L2606,2365" stroke="blue" stroke-width="2" />
<path d="M2856,4596 L2048,537" stroke="blue" stroke-width="2" />
<path d="M142,3671 L2554,2140" stroke="blue" stroke-width="2" />
<path d="M2467,2322 L317,655" stroke="blue" stroke-width="2" />
<path d="M2756,4380 L208,3346" stroke="blue" stroke-width="2" />
<path d="M3109,1992 L1852,4099" stroke="blue" stroke-width="2" />
<path d="M1995,2495 L2944,1540" stroke="blue" stroke-width="2" />
<path d="M803,405 L307,3231" stroke="blue" stroke-width="2" />
<path d="M2375,3119 L99,1747" stroke="blue" stroke-width="2" />
<path d="M643,4859 L2118,3512" stroke="blue" stroke-width="2" />
<path d="M1661,4039 L2342,1565" stroke="blue" stroke-width="2" />
<path d="M444,3940 L2802,1311" stroke="blue" stroke-width="2" />
<path d="M2092,993 L1186,3389" stroke="blue" stroke-width="2" />
<path d="M859,739 L2863,2666" stroke="blue" stroke-width="2" />
<path d="M2704,2519 L832,3565" stroke="blue" stroke-width="2" />
<path d="M1793,3369 L939,1824" stroke="blue" stroke-width="2" />
<path d="M2087,1437 L356,4109" stroke="blue" stroke-width="2" />
<path d="M1874,4983 L1196,2047" stroke="blue" stroke-width="2" />
<path d="M1100,2386 L1402,327" stroke="blue" stroke-width="2" />
<path d="M526,1857 L2799,1041" stroke="blue" stroke-width="2" />
<path d="M2880,68 L2370,222" stroke="blue" stroke-width="2" />
<path d="M1760,3942 L1917,1635" stroke="blue" stroke-width="2" />
<path d="M2825,2871 L1289,3374" stroke="blue" stroke-width="2" />
<path d="M2881,1537 L449,3113" stroke="blue" stroke-width="2" />
<path d="M2040,4575 L593,1311" stroke="blue" stroke-width="2" />
<path d="M2465,142 L1884,3100" stroke="blue" stroke-width="2" />
<path d="M2422,4116 L809,1042" stroke="blue" stroke-width="2" />
<path d="M1454,3214 L1818,4822" stroke="blue" stroke-width="2" />
<path d="M1148,4585 L2590,1000" stroke="blue" stroke-width="2" />
<path d="M558,1439 L1258,968" stroke="blue" stroke-width="2" />
<path d="M1805,4986 L1728,1602" stroke="blue" stroke-width="2" />
<path d="M245,1562 L923,230" stroke="blue" stroke-width="2" />
<path d="M2452,4171 L2995,4061" stroke="blue" stroke-width="2" />
<path d="M2326,1992 L746,3397" stroke="blue" stroke-width="2" />
<path d="M34,928 L1646,2235" stroke="blue" stroke-width="2" />
<path d="M2709,1002 L1601,2735" stroke="blue" stroke-width="2" />
<path d="M3095,2803 L2594,1001" stroke="blue" stroke-width="2" />
<path d="M881,3396 L3059,121" stroke="blue" stroke-width="2" />
<path d="M650,1325 L941,537" stroke="blue" stroke-width="2" />
<path d="M1757,561 L613,480" stroke="blue" stroke-width="2" />
<path d="M1388,3089 L1424,5059" stroke="blue" stroke-width="2" />
<path d="M600,1044 L1332,798" stroke="blue" stroke-width="2" />
<path d="M1886,2026 L1189,431" stroke="blue" stroke-width="2" />
<path d="M1524,2841 L255,4392" stroke="blue" stroke-width="2" />
<path d="M2100,1655 L235,1606" stroke="blue" stroke-width="2" />
<path d="M3126,393 L1856,3632" stroke="blue" stroke-width="2" />
<path d="M455,590 L2467,2344" stroke="blue" stroke-width="2" />
<path d="M356,668 L1090,4214" stroke="blue" stroke-width="2" />
<path d="M1876,2756 L1571,3296" stroke="blue" stroke-width="2" />
<path d="M2765,4331 L223,2740" stroke="blue" stroke-width="2" />
<path d="M1090,1559 L2808,4556" stroke="blue" stroke-width="2" />
<path d="M2472,3695 L2780,4361" stroke="blue" stroke-width="2" />
<path d="M1184,2581 L2434,1307" stroke="blue" stroke-width="2" />
<path d="M1117,3488 L599,857" stroke="blue" stroke-width="2" />
<path d="M2514,1195 L59,920" stroke="blue" stroke-width="2" />
<path d="M3055,2599 L920,3840" stroke="blue" stroke-width="2" />
<path d="M1261,2523 L2008,4604" stroke="blue" stroke-width="2" />
<path d="M2910,3942 L40,138" stroke="blue" stroke-width="2" />
<path d="M1081,3399 L689,1841" stroke="blue" stroke-width="2" />
<path d="M1163,4133 L778,271" stroke="blue" stroke-width="2" />
<path d="M2044,276 L1796,3673" stroke="blue" stroke-width="2" />
<path d="M1639,4966 L3088,321" stroke="blue" stroke-width="2" />
<path d="M1378,395 L794,3758" stroke="blue" stroke-width="2" />
<path d="M2831,3595 L2625,693" stroke="blue" stroke-width="2" />
<path d="M1581,4049 L2710,1321" stroke="blue" stroke-width="2" />
<path d="M353,150 L2833,83" stroke="blue" stroke-width="2" />
<path d="M454,1578 L3137,2633" stroke="blue" stroke-width="2" />
<path d="M2481,389 L2661,5105" stroke="blue" stroke-width="2" />
<path d="M1072,1547 L757,1933" stroke="blue" stroke-width="2" />
<path d="M100,3478 L2749,4370" stroke="blue" stroke-width="2" />
<path d="M2819,510 L288,4676" stroke="blue" stroke-width="2" />
<path d="M2057,3954 L1518,4925" stroke="blue" stroke-width="2" />
<path d="M1599,4760 L258,3537" stroke="blue" stroke-width="2" />
<path d="M554,3344 L2350,1670" stroke="blue" stroke-width="2" />
<path d="M1774,3917 L804,813" stroke="blue" stroke-width="2" />
<path d="M1175,4378 L2942,796" stroke="blue" stroke-width="2" />
<path d="M1948,4552 L429,2156" stroke="blue" stroke-width="2" />
<path d="M675,575 L1198,1749" stroke="blue" stroke-width="2" />
<path d="M1101,3996 L1783,1735" stroke="blue" stroke-width="2" />
<path d="M2514,1779 L3007,768" stroke="blue" stroke-width="2" />
<path d="M3138,1538 L564,2186" stroke="blue" stroke-width="2" />
<path d="M584,3325 L2701,3936" stroke="blue" stroke-width="2" />
<path d="M2981,3921 L448,837" stroke="blue" stroke-width="2" />
<path d="M884,4058 L471,2657" stroke="blue" stroke-width="2" />
<path d="M1488,2910 L1612,4314" stroke="blue" stroke-width="2" />
<path d="M2606,398 L2139,1297" stroke="blue" stroke-width="2" />
<path d="M2403,4900 L2917,4172" stroke="blue" stroke-width="2" />
<path d="M432,3218 L1084,3160" stroke="blue" stroke-width="2" />
<path d="M675,2295 L390,4031" stroke="blue" stroke-width="2" />
<path d="M1711,2519 L1660,795" stroke="blue" stroke-width="2" />
<path d="M539,79 L326,1728" stroke="blue" stroke-width="2" />
<path d="M2197,851 L447,4776" stroke="blue" stroke-width="2" />
<path d="M1688,2261 L401,2077" stroke="blue" stroke-width="2" />
<path d="M1531,403 L424,1248" stroke="blue" stroke-width="2" />
<path d="M3014,4562 L2826,3448" stroke="blue" stroke-width="2" />
<path d="M802,3145 L1380,3872" stroke="blue" stroke-width="2" />
<path d="M986,655 L922,2001" stroke="blue" stroke-width="2" />
<path d="M1057,4478 L49,655" stroke="blue" stroke-width="2" />
<path d="M2809,2431 L676,1551" stroke="blue" stroke-width="2" />
<path d="M1155,823 L2111,1735" stroke="blue" stroke-width="2" />
<path d="M2282,1290 L2756,887" stroke="blue" stroke-width="2" />
<path d="M1324,1171 L2954,5072" stroke="blue" stroke-width="2" />
<path d="M2799,1374 L1608,653" stroke="blue" stroke-width="2" />
<path d="M2887,1514 L2490,1393" stroke="blue" stroke-width="2" />
<path d="M2707,4551 L2298,2219" stroke="blue" stroke-width="2" />
<path d="M1119,1217 L2718,391" stroke="blue" stroke-width="2" />
<path d="M2982,1840 L1928,3824" stroke="blue" stroke-width="2" />
<path d="M1762,3809 L1234,691" stroke="blue" stroke-width="2" />
<path d="M2817,1363 L2873,390" stroke="blue" stroke-width="2" />
<path d="M1881,2892 L2414,3873" stroke="blue" stroke-width="2" />
<path d="M2098,4994 L642,1646" stroke="blue" stroke-width="2" />
<path d="M2447,982 L2390,2294" stroke="blue" stroke-width="2" />
<path d="M3054,2264 L2032,3065" stroke="blue" stroke-width="2" />
<path d="M1730,2035 L1791,1659" stroke="blue" stroke-width="2" />
<path d="M2363,3144 L2968,4901" stroke="blue" stroke-width="2" />
<path d="M2508,1568 L1276,3834" stroke="blue" stroke-width="2" />
<path d="M1025,4413 L2700,3907" stroke="blue" stroke-width="2" />
<path d="M1293,2672 L787,1738" stroke="blue" stroke-width="2" />
<path d="M2506,2747 L2442,355" stroke="blue" stroke-width="2" />
<path d="M2905,4639 L320,75" stroke="blue" stroke-width="2" />
<path d="M2764,3884 L2554,2145" stroke="blue" stroke-width="2" />
<path d="M717,2997 L2114,2362" stroke="blue" stroke-width="2" />
<path d="M732,3717 L778,2206" stroke="blue" stroke-width="2" />
<path d="M731,4050 L2879,2305" stroke="blue" stroke-width="2" />
<path d="M391,813 L665,3332" stroke="blue" stroke-width="2" />
<path d="M2970,3953 L1743,3405" stroke="blue" stroke-width="2" />
<path d="M3160,276 L3168,3407" stroke="blue" stroke-width="2" />
<path d="M852,2925 L2328,4561" stroke="blue" stroke-width="2" />
<path d="M665,1125 L403,948" stroke="blue" stroke-width="2" />
<path d="M196,401 L1176,2155" stroke="blue" stroke-width="2" />
<path d="M1760,3657 L1398,1995" stroke="blue" stroke-width="2" />
<path d="M931,2870 L1648,4867" stroke="blue" stroke-width="2" />
<path d="M1955,613 L977,2648" stroke="blue" stroke-width="2" />
<path d="M1945,1166 L990,660" stroke="blue" stroke-width="2" />
<path d="M1693,4771 L809,3840" stroke="blue" stroke-width="2" />
<path d="M3012,1374 L1127,1131" stroke="blue" stroke-width="2" />
<path d="M2670,2396 L825,1690" stroke="blue" stroke-width="2" />
<path d="M1884,599 L810,467" stroke="blue" stroke-width="2" />
<path d="M700,2796 L2327,3046" stroke="blue" stroke-width="2" />
<path d="M2362,1530 L80,1572" stroke="blue" stroke-width="2" />
<path d="M1596,1602 L3021,1609" stroke="blue" stroke-width="2" />
<path d="M1681,1473 L1274,1846" stroke="blue" stroke-width="2" />
<path d="M1193,2112 L3049,1774" stroke="blue" stroke-width="2" />
<path d="M3036,4626 L826,2246" stroke="blue" stroke-width="2" />
<path d="M336,2998 L822,1097" stroke="blue" stroke-width="2" />
<path d="M1262,3778 L3089,526" stroke="blue" stroke-width="2" />
<path d="M1504,153 L397,2162" stroke="blue" stroke-width="2" />
<path d="M652,1431 L731,360" stroke="blue" stroke-width="2" />
<path d="M2534,1964 L1949,5029" stroke="blue" stroke-width="2" />
<path d="M486,1362 L877,49" stroke="blue" stroke-width="2" />
<path d="M1695,820 L1286,751" stroke="blue" stroke-width="2" />
<path d="M2060,1189 L1647,3322" stroke="blue" stroke-width="2" />
<path d="M1378,5036 L639,2839" stroke="blue" stroke-width="2" />
<path d="M654,748 L1594,2182" stroke="blue" stroke-width="2" />
<path d="M1215,3635 L1114,1367" stroke="blue" stroke-width="2" />
<path d="M1753,4110 L3109,4949" stroke="blue" stroke-width="2" />
<path d="M587,1134 L296,4165" stroke="blue" stroke-width="2" />
<path d="M2352,703 L115,3699" stroke="blue" stroke-width="2" />
<path d="M2041,5029 L974,3379" stroke="blue" stroke-width="2" />
<path d="M2865,4846 L104,1257" stroke="blue" stroke-width="2" />
<path d="M2393,953 L1930,4799" stroke="blue" stroke-width="2" />
<path d="M2284,3177 L2232,354" stroke="blue" stroke-width="2" />
<path d="M566,4688 L2991,3002" stroke="blue" stroke-width="2" />
<path d="M1107,4338 L1936,801" stroke="blue" stroke-width="2" />
<path d="M821,529 L667,2748" stroke="blue" stroke-width="2" />
<path d="M1755,4654 L1676,1702" stroke="blue" stroke-width="2" />
<path d="M2347,4721 L684,1535" stroke="blue" stroke-width="2" />
<path d="M2455,169 L2986,2367" stroke="blue" stroke-width="2" />
<path d="M2307,2863 L2114,2300" stroke="blue" stroke-width="2" />
<path d="M446,4017 L1904,2525" stroke="blue" stroke-width="2" />
<path d="M2800,3821 L1016,3355" stroke="blue" stroke-width="2" />
<path d="M3124,2488 L1734,2319" stroke="blue" stroke-width="2" />
<path d="M2684,5070 L2704,4095" stroke="blue" stroke-width="2" />
<path d="M854,1846 L2815,4597" stroke="blue" stroke-width="2" />
<path d="M639,3811 L1213,4796" stroke="blue" stroke-width="2" />
<path d="M1510,4127 L2678,4375" stroke="blue" stroke-width="2" />
<path d="M2372,3740 L2402,3646" stroke="blue" stroke-width="2" />
<path d="M362,4901 L1346,4529" stroke="blue" stroke-width="2" />
<path d="M1987,690 L3033,4194" stroke="blue" stroke-width="2" />
<path d="M2600,1065 L429,3640" stroke="blue" stroke-width="2" />
<path d="M2839,4280 L441,4525" stroke="blue" stroke-width="2" />
<path d="M1977,1654 L1214,2600" stroke="blue" stroke-width="2" />
<path d="M2918,4724 L293,3249" stroke="blue" stroke-width="2" />
<path d="M1121,1256 L1614,3517" stroke="blue" stroke-width="2" />
<path d="M2992,3481 L2059,1671" stroke="blue" stroke-width="2" />
<path d="M2370,802 L2515,899" stroke="blue" stroke-width="2" />
<path d="M2756,2158 L1085,4761" stroke="blue" stroke-width="2" />
<path d="M2484,1480 L2757,4019" stroke="blue" stroke-width="2" />
<path d="M2320,4791 L1020,1511" stroke="blue" stroke-width="2" />
<path d="M1720,1833 L2767,106" stroke="blue" stroke-width="2" />
<path d="M2818,1120 L702,4651" stroke="blue" stroke-width="2" />
<path d="M2012,3734 L1362,2246" stroke="blue" stroke-width="2" />
<path d="M1241,4270 L2854,898" stroke="blue" stroke-width="2" />
<path d="M1821,4641 L2297,4206" stroke="blue" stroke-width="2" />
<path d="M2191,1968 L1231,4453" stroke="blue" stroke-width="2" />
<path d="M600,1413 L28,2328" stroke="blue" stroke-width="2" />
<path d="M1707,4767 L2194,8" stroke="blue" stroke-width="2" />
<path d="M1619,1325 L587,2684" stroke="blue" stroke-width="2" />
<path d="M1961,41 L2005,4472" stroke="blue" stroke-width="2" />
<path d="M545,1406 L2775,1754" stroke="blue" stroke-width="2" />
<path d="M1844,3666 L1888,1063" stroke="blue" stroke-width="2" />
<path d="M826,3124 L1836,1038" stroke="blue" stroke-width="2" />
<path d="M692,2073 L3122,1171" stroke="blue" stroke-width="2" />
<path d="M486,2506 L1267,2059" stroke="blue" stroke-width="2" />
<path d="M1142,84 L521,4450" stroke="blue" stroke-width="2" />
<path d="M2073,2507 L1367,1240" stroke="blue" stroke-width="2" />
<path d="M445,1934 L1343,4481" stroke="blue" stroke-width="2" />
<path d="M3134,4406 L1902,277" stroke="blue" stroke-width="2" />
<path d="M1170,2401 L3177,2797" stroke="blue" stroke-width="2" />
<path d="M1584,74 L1894,1079" stroke="blue" stroke-width="2" />
<path d="M1684,1604 L1736,3433" stroke="blue" stroke-width="2" />
<path d="M2874,4620 L1395,1534" stroke="blue" stroke-width="2" />
<path d="M2055,4304 L1697,4" stroke="blue" stroke-width="2" />
<path d="M2121,2668 L644,207" stroke="blue" stroke-width="2" />
<path d="M649,23 L525,1318" stroke="blue" stroke-width="2" />
<path d="M515,4557 L551,2403" stroke="blue" stroke-width="2" />
<path d="M1675,4974 L561,157" stroke="blue" stroke-width="2" />
<path d="M362,3285 L2083,3922" stroke="blue" stroke-width="2" />
<path d="M1352,1985 L2522,211" stroke="blue" stroke-width="2" />
<path d="M284,2772 L738,5047" stroke="blue" stroke-width="2" />
<path d="M759,3589 L2651,2556" stroke="blue" stroke-width="2" />
<path d="M2719,2952 L2241,938" stroke="blue" stroke-width="2" />
<path d="M2852,4480 L3121,463" stroke="blue" stroke-width="2" />
<path d="M1258,1086 L327,89" stroke="blue" stroke-width="2" />
<path d="M974,400 L213,2466" stroke="blue" stroke-width="2" />
<path d="M1508,3368 L1666,1579" stroke="blue" stroke-width="2" />
<path d="M1168,3050 L114,3678" stroke="blue" stroke-width="2" />
<path d="M834,2119 L640,3585" stroke="blue" stroke-width="2" />
<path d="M683,4291 L411,3255" stroke="blue" stroke-width="2" />
<path d="M1968,1430 L709,5105" stroke="blue" stroke-width="2" />
<path d="M897,4569 L127,2696" stroke="blue" stroke-width="2" />
<path d="M1749,2539 L32,1929" stroke="blue" stroke-width="2" />
<path d="M3026,1099 L1872,3489" stroke="blue" stroke-width="2" />
<path d="M2031,4702 L2053,914" stroke="blue" stroke-width="2" />
<path d="M259,667 L1447,1599" stroke="blue" stroke-width="2" />
<path d="M2019,5093 L2356,720" stroke="blue" stroke-width="2" />
<path d="M1240,4960 L976,1447" stroke="blue" stroke-width="2" />
<path d="M2324,2883 L2009,2484" stroke="blue" stroke-width="2" />
<path d="M38,4389 L540,2041" stroke="blue" stroke-width="2" />
<path d="M1053,4662 L3113,2747" stroke="blue" stroke-width="2" />
<path d="M1954,641 L1078,2317" stroke="blue" stroke-width="2" />
<path d="M1943,1244 L1196,329" stroke="blue" stroke-width="2" />
<path d="M338,3661 L2575,3355" stroke="blue" stroke-width="2" />
<path d="M1246,2578 L1071,2884" stroke="blue" stroke-width="2" />
<path d="M608,1684 L2111,2865" stroke="blue" stroke-width="2" />
<path d="M2455,4373 L2393,4979" stroke="blue" stroke-width="2" />
<path d="M3006,1536 L1411,3606" stroke="blue" stroke-width="2" />
<path d="M92,1644 L2843,434" stroke="blue" stroke-width="2" />
<path d="M360,2348 L338,2371" stroke="blue" stroke-width="2" />
<path d="M444,1792 L2359,2349" stroke="blue" stroke-width="2" />
<path d="M1343,2689 L1520,1826" stroke="blue" stroke-width="2" />
<path d="M2106,2256 L52,4958" stroke="blue" stroke-width="2" />
<path d="M202,543 L57,3765" stroke="blue" stroke-width="2" />
<path d="M3083,249 L2532,4122" stroke="blue" stroke-width="2" />
<path d="M199,4885 L545,4750" stroke="blue" stroke-width="2" />
<path d="M699,732 L1598,3983" stroke="blue" stroke-width="2" />
<path d="M69,1638 L1436,4537" stroke="blue" stroke-width="2" />
<path d="M2498,369 L2162,560" stroke="blue" stroke-width="2" />
<path d="M569,3396 L2586,4991" stroke="blue" stroke-width="2" />
<path d="M385,1058 L976,3409" stroke="blue" stroke-width="2" />
<path d="M1871,1856 L1067,144" stroke="blue" stroke-width="2" />
<path d="M3113,1509 L2794,975" stroke="blue" stroke-width="2" />
<path d="M1281,726 L1625,1229" stroke="blue" stroke-width="2" />
<path d="M1520,3756 L2147,4103" stroke="blue" stroke-width="2" />
<path d="M424,4220 L363,3498" stroke="blue" stroke-width="2" />
<path d="M3041,976 L272,2603" stroke="blue" stroke-width="2" />
<path d="M1113,3411 L1824,2534" stroke="blue" stroke-width="2" />
<path d="M833,4561 L656,891" stroke="blue" stroke-width="2" />
<path d="M353,649 L176,5040" stroke="blue" stroke-width="2" />
<path d="M2017,2954 L1118,4718" stroke="blue" stroke-width="2" />
<path d="M1062,5033 L181,747" stroke="blue" stroke-width="2" />
<path d="M1019,3963 L842,1845" stroke="blue" stroke-width="2" />
<path d="M2641,643 L246,3075" stroke="blue" stroke-width="2" />
<path d="M2085,4159 L1382,4154" stroke="blue" stroke-width="2" />
<path d="M1323,1570 L2506,1705" stroke="blue" stroke-width="2" />
<path d="M2752,506 L261,596" stroke="blue" stroke-width="2" />
<path d="M1830,600 L434,1021" stroke="blue" stroke-width="2" />
<path d="M708,4193 L1947,4136" stroke="blue" stroke-width="2" />
<path d="M824,4478 L283,688" stroke="blue" stroke-width="2" />
<path d="M167,2518 L2269,2229" stroke="blue" stroke-width="2" />
<path d="M980,2022 L1823,5015" stroke="blue" stroke-width="2" />
<path d="M1630,704 L1326,3061" stroke="blue" stroke-width="2" />
<path d="M922,3061 L1788,1890" stroke="blue" stroke-width="2" />
<path d="M798,2994 L2568,2585" stroke="blue" stroke-width="2" />
<path d="M53,3405 L1920,47" stroke="blue" stroke-width="2" />
<path d="M1489,4878 L1151,382" stroke="blue" stroke-width="2" />
<path d="M774,3627 L508,1117" stroke="blue" stroke-width="2" />
<path d="M2037,3303 L246,4908" stroke="blue" stroke-width="2" />
<path d="M2458,1012 L2061,4103" stroke="blue" stroke-width="2" />
<path d="M2947,4631 L1938,3743" stroke="blue" stroke-width="2" />
<path d="M478,2562 L2117,1794" stroke="blue" stroke-width="2" />
<path d="M2366,458 L2961,478" stroke="blue" stroke-width="2" />
<path d="M2421,3452 L1822,3987" stroke="blue" stroke-width="2" />
<path d="M1291,1821 L2853,1655" stroke="blue" stroke-width="2" />
<path d="M2103,4368 L494,2480" stroke="blue" stroke-width="2" />
<path d="M2695,745 L420,180" stroke="blue" stroke-width="2" />
<path d="M2436,2981 L2583,601" stroke="blue" stroke-width="2" />
<path d="M2088,2060 L3098,1214" stroke="blue" stroke-width="2" />
<path d="M853,1695 L2678,120" stroke="blue" stroke-width="2" />
<path d="M2758,1579 L2486,499" stroke="blue" stroke-width="2" />
<path d="M956,4164 L2343,2902" stroke="blue" stroke-width="2" />
<path d="M2308,212 L2048,2438" stroke="blue" stroke-width="2" />
<path d="M3012,1836 L370,4803" stroke="blue" stroke-width="2" />
<path d="M1171,4678 L636,4019" stroke="blue" stroke-width="2" />
<path d="M2054,1434 L40,649" stroke="blue" stroke-width="2" />
<path d="M679,1956 L2451,3483" stroke="blue" stroke-width="2" />
<path d="M1445,4679 L1661,3027" stroke="blue" stroke-width="2" />
<path d="M2641,1582 L1369,2960" stroke="blue" stroke-width="2" />
<path d="M598,1292 L1517,2014" stroke="blue" stroke-width="2" />
<path d="M2735,3721 L2531,672" stroke="blue" stroke-width="2" />
<path d="M3112,729 L86,493" stroke="blue" stroke-width="2" />
<path d="M806,780 L2045,1057" stroke="blue" stroke-width="2" />
<path d="M2092,531 L1960,1992" stroke="blue" stroke-width="2" />
<path d="M2363,5058 L3147,4366" stroke="blue" stroke-width="2" />
<path d="M2282,3106 L1048,3908" stroke="blue" stroke-width="2" />
<path d="M2088,2983 L2658,953" stroke="blue" stroke-width="2" />
<path d="M1913,3672 L540,3680" stroke="blue" stroke-width="2" />
<path d="M2150,2835 L1365,1329" stroke="blue" stroke-width="2" />
<path d="M1192,3490 L1626,1930" stroke="blue" stroke-width="2" />
<path d="M416,4757 L194,2848" stroke="blue" stroke-width="2" />
<path d="M161,3664 L43,875" stroke="blue" stroke-width="2" />
<path d="M1236,1895 L847,3429" stroke="blue" stroke-width="2" />
<path d="M1929,866 L1974,3983" stroke="blue" stroke-width="2" />
<path d="M1379,4310 L1670,3307" stroke="blue" stroke-width="2" />
<path d="M457,4963 L795,3251" stroke="blue" stroke-width="2" />
<path d="M1830,111 L2903,3551" stroke="blue" stroke-width="2" />
<path d="M717,1909 L860,304" stroke="blue" stroke-width="2" />
<path d="M1081,2841 L1876,826" stroke="blue" stroke-width="2" />
<path d="M2320,4598 L2342,1498" stroke="blue" stroke-width="2" />
<path d="M1394,3702 L1953,1516" stroke="blue" stroke-width="2" />
<path d="M1190,121 L169,3442" stroke="blue" stroke-width="2" />
<path d="M2047,4635 L2803,2624" stroke="blue" stroke-width="2" />
<path d="M2745,2725 L1927,821" stroke="blue" stroke-width="2" />
<path d="M2612,1462 L136,4555" stroke="blue" stroke-width="2" />
<path d="M341,4746 L1983,4531" stroke="blue" stroke-width="2" />
<path d="M2903,266 L130,3975" stroke="blue" stroke-width="2" />
<path d="M2902,678 L1212,3538" stroke="blue" stroke-width="2" />
<path d="M2570,997 L511,1762" stroke="blue" stroke-width="2" />
<path d="M812,460 L2287,1707" stroke="blue" stroke-width="2" />
<path d="M2780,1937 L1703,4773" stroke="blue" stroke-width="2" />
<path d="M2966,1804 L2154,2655" stroke="blue" stroke-width="2" />
<path d="M2782,4648 L60,2457" stroke="blue" stroke-width="2" />
<path d="M1232,4887 L329,439" stroke="blue" stroke-width="2" />
<path d="M1568,2576 L2522,2884" stroke="blue" stroke-width="2" />
<path d="M1734,254 L1500,4326" stroke="blue" stroke-width="2" />
<path d="M793,4039 L464,660" stroke="blue" stroke-width="2" />
<path d="M3000,742 L878,373" stroke="blue" stroke-width="2" />
<path d="M3069,1393 L140,1122" stroke="blue" stroke-width="2" />
<path d="M384,3643 L2061,2415" stroke="blue" stroke-width="2" />
<path d="M2898,2464 L332,1779" stroke="blue" stroke-width="2" />
<path d="M2928,3403 L1881,14" stroke="blue" stroke-width="2" />
<path d="M1326,343 L132,104" stroke="blue" stroke-width="2" />
<path d="M1775,1281 L721,3997" stroke="blue" stroke-width="2" />
<path d="M2333,368 L1,1726" stroke="blue" stroke-width="2" />
<path d="M2657,1847 L2426,2881" stroke="blue" stroke-width="2" />
<path d="M1371,1395 L229,204" stroke="blue" stroke-width="2" />
<path d="M2821,2638 L1710,3148" stroke="blue" stroke-width="2" />
<path d="M635,1582 L1324,152" stroke="blue" stroke-width="2" />
<path d="M2937,632 L15,1219" stroke="blue" stroke-width="2" />
<path d="M487,4094 L70,1202" stroke="blue" stroke-width="2" />
<path d="M1182,4250 L1643,2881" stroke="blue" stroke-width="2" />
<path d="M1812,834 L2190,2526" stroke="blue" stroke-width="2" />
<path d="M1971,5031 L1489,1607" stroke="blue" stroke-width="2" />
<path d="M2450,3155 L2766,1294" stroke="blue" stroke-width="2" />
<path d="M1633,2091 L1623,4562" stroke="blue" stroke-width="2" />
<path d="M2437,2645 L851,861" stroke="blue" stroke-width="2" />
<path d="M79,3045 L2093,4864" stroke="blue" stroke-width="2" />
<path d="M1806,4379 L876,4116" stroke="blue" stroke-width="2" />
<path d="M792,1806 L1006,99" stroke="blue" stroke-width="2" />
<path d="M941,1243 L1782,2340" stroke="blue" stroke-width="2" />
<path d="M1002,572 L2457,3272" stroke="blue" stroke-width="2" />
<path d="M377,2474 L42,3535" stroke="blue" stroke-width="2" />
<path d="M2650,1112 L1215,2588" stroke="blue" stroke-width="2" />
<path d="M2292,66 L952,4417" stroke="blue" stroke-width="2" />
<path d="M952,1968 L776,4955" stroke="blue" stroke-width="2" />
<path d="M1471,706 L1532,2626" stroke="blue" stroke-width="2" />
<path d="M4,273 L24,1864" stroke="blue" stroke-width="2" />
<path d="M2870,476 L2554,1381" stroke="blue" stroke-width="2" />
<path d="M2278,747 L802,3823" stroke="blue" stroke-width="2" />
<path d="M544,2384 L2262,2667" stroke="blue" stroke-width="2" />
<path d="M2442,2265 L2707,2887" stroke="blue" stroke-width="2" />
<path d="M152,2151 L3136,3409" stroke="blue" stroke-width="2" />
<path d="M1562,4394 L2357,1666" stroke="blue" stroke-width="2" />
<path d="M2282,51 L2393,3376" stroke="blue" stroke-width="2" />
<path d="M1562,3219 L802,4436" stroke="blue" stroke-width="2" />
<path d="M2191,4554 L2265,4045" stroke="blue" stroke-width="2" />
<path d="M2030,1741 L2756,4408" stroke="blue" stroke-width="2" />
<path d="M844,3802 L1615,3059" stroke="blue" stroke-width="2" />
<path d="M2891,4478 L898,1427" stroke="blue" stroke-width="2" />
<path d="M213,4688 L1293,1253" stroke="blue" stroke-width="2" />
<path d="M1775,4182 L247,4330" stroke="blue" stroke-width="2" />
<path d="M1860,2741 L1006,4090" stroke="blue" stroke-width="2" />
<path d="M364,268 L710,344" stroke="blue" stroke-width="2" />
<path d="M2911,1660 L1005,2355" stroke="blue" stroke-width="2" />
<path d="M1613,3959 L185,4671" stroke="blue" stroke-width="2" />
<path d="M2971,1661 L1027,3027" stroke="blue" stroke-width="2" />
<path d="M2372,4279 L2708,3034" stroke="blue" stroke-width="2" />
<path d="M1323,2806 L567,474" stroke="blue" stroke-width="2" />
<path d="M117,1326 L2705,521" stroke="blue" stroke-width="2" />
<path d="M2224,3288 L534,3810" stroke="blue" stroke-width="2" />
<path d="M953,3752 L2750,4535" stroke="blue" stroke-width="2" />
<path d="M590,2713 L1103,1001" stroke="blue" stroke-width="2" />
<path d="M394,2172 L315,4430" stroke="blue" stroke-width="2" />
<path d="M3064,3500 L2182,2786" stroke="blue" stroke-width="2" />
<path d="M1993,2441 L283,1453" stroke="blue" stroke-width="2" />
<path d="M1693,4000 L726,2417" stroke="blue" stroke-width="2" />
<path d="M1655,4246 L1480,1853" stroke="blue" stroke-width="2" />
<path d="M1172,4656 L2313,4529" stroke="blue" stroke-width="2" />
<path d="M2959,808 L2010,2371" stroke="blue" stroke-width="2" />
<path d="M165,3774 L2855,1278" stroke="blue" stroke-width="2" />
<path d="M1335,3516 L236,632" stroke="blue" stroke-width="2" />
<path d="M2854,1807 L1035,2228" stroke="blue" stroke-width="2" />
<path d="M2114,3005 L250,2754" stroke="blue" stroke-width="2" />
<path d="M15,3432 L467,4349" stroke="blue" stroke-width="2" />
<path d="M1791,3103 L548,3448" stroke="blue" stroke-width="2" />
<path d="M2152,2052 L497,2871" stroke="blue" stroke-width="2" />
<path d="M2509,39 L50,2588" stroke="blue" stroke-width="2" />
<path d="M1041,713 L211,2778" stroke="blue" stroke-width="2" />
<path d="M1552,5035 L2618,234" stroke="blue" stroke-width="2" />
<path d="M3139,4563 L1783,2785" stroke="blue" stroke-width="2" />
<path d="M243,1176 L2380,2880" stroke="blue" stroke-width="2" />
<path d="M418,357 L672,106" stroke="blue" stroke-width="2" />
<path d="M2709,4187 L2488,3178" stroke="blue" stroke-width="2" />
<path d="M1023,5102 L1079,4499" stroke="blue" stroke-width="2" />
<path d="M419,3759 L297,1478" stroke="blue" stroke-width="2" />
<path d="M6,1243 L179,4659" stroke="blue" stroke-width="2" />
<path d="M1969,351 L1126,2631" stroke="blue" stroke-width="2" />
<path d="M262,5024 L613,4671" stroke="blue" stroke-width="2" />
<path d="M1464,661 L818,809" stroke="blue" stroke-width="2" />
<path d="M2655,4939 L2883,986" stroke="blue" stroke-width="2" />
<path d="M775,3278 L708,731" stroke="blue" stroke-width="2" />
<path d="M0,0 L3178,0" stroke="red" stroke-width="10" />
<path d="M3178,0 L3178,5109" stroke="red" stroke-width="10" />
<path d="M0,5109 L3178,5109" stroke="red" stroke-width="10" />
<path d="M0,5109 L0,0" stroke="red" stroke-width="10" />
</svg>