<?xml version="1.0" encoding="UTF-8"?>
<svg xmlns="http://www.w3.org/2000/svg" xmlns:xlink="http://www.w3.org/1999/xlink"
     width="10000" height="10000" viewBox="0 0 10000 10000">
<defs>
</defs>
<path d="M5828,6800 L4460,5924" stroke="blue" stroke-width="2" />
<path d="M3062,4409 L1004,7206" stroke="blue" stroke-width="2" />
<path d="M1021,9392 L3523,3100" stroke="blue" stroke-width="2" />
<path d="M6740,5653 L5873,8529" stroke="blue" stroke-width="2" />
<path d="M4391,3905 L5480,3420" stroke="blue" stroke-width="2" />
<path d="M2579,8599 L1472,1798" stroke="blue" stroke-width="2" />
<path d="M2507,4965 L4773,7609" stroke="blue" stroke-width="2" />
<path d="M6240,2407 L1120,5276" stroke="blue" stroke-width="2" />
<path d="M573,4992 L4723,1450" stroke="blue" stroke-width="2" />
<path d="M2824,2512 L5629,9762" stroke="blue" stroke-width="2" />
<path d="M1363,8779 L1033,2037" stroke="blue" stroke-width="2" />
<path d="M527,8114 L6762,3166" stroke="blue" stroke-width="2" />
<path d="M7111,3842 L6228,6555" stroke="blue" stroke-width="2" />
<path d="M3676,2985 L1385,795" stroke="blue" stroke-width="2" />
<path d="M4117,5544 L6536,88" stroke="blue" stroke-width="2" />
<path d="M3518,5466 L3862,5017" stroke="blue" stroke-width="2" />
<path d="M1685,124 L5648,887" stroke="blue" stroke-width="2" />
<path d="M2892,3507 L2652,5438" stroke="blue" stroke-width="2" />
<path d="M5265,3627 L1639,326" stroke="blue" stroke-width="2" />
<path d="M6732,3955 L3481,7050" stroke="blue" stroke-width="2" />
<path d="M4455,8098 L1414,2330" stroke="blue" stroke-width="2" />
<path d="M1889,3925 L2234,5737" stroke="blue" stroke-width="2" />
<path d="M2495,3206 L5512,8666" stroke="blue" stroke-width="2" />
<path d="M91,2977 L2041,3634" stroke="blue" stroke-width="2" />
<path d="M4673,7217 L3188,8539" stroke="blue" stroke-width="2" />
<path d="M3900,9374 L474,1239" stroke="blue" stroke-width="2" />
<path d="M2165,3843 L5146,8602" stroke="blue" stroke-width="2" />
<path d="M1711,9792 L1068,8899" stroke="blue" stroke-width="2" />
<path d="M646,5901 L1656,8308" stroke="blue" stroke-width="2" />
<path d="M6858,5879 L3071,6669" stroke="blue" stroke-width="2" />
<path d="M3561,5389 L2691,9482" stroke="blue" stroke-width="2" />
<path d="M5441,3995 L1907,9579" stroke="blue" stroke-width="2" />
<path d="M6867,761 L204,4869" stroke="blue" stroke-width="2" />
<path d="M5489,7393 L4040,878" stroke="blue" stroke-width="2" />
<path d="M6291,5179 L139,9375" stroke="blue" stroke-width="2" />
<path d="M3505,3020 L1891,5462" stroke="blue" stroke-width="2" />
<path d="M1834,7032 L1422,362" stroke="blue" stroke-width="2" />
<path d="M4135,6708 L6194,7185" stroke="blue" stroke-width="2" />
<path d="M7145,7706 L6221,774" stroke="blue" stroke-width="2" />
<path d="M82,8275 L4413,2340" stroke="blue" stroke-width="2" />
<path d="M3911,609 L4414,6460" stroke="blue" stroke-width="2" />
<path d="M6886,3178 L1734,4975" stroke="blue" stroke-width="2" />
<path d="M5862,1242 L4644,7859" stroke="blue" stroke-width="2" />
<path d="M6793,4396 L3999,5448" stroke="blue" stroke-width="2" />
<path d="M7263,5832 L11,2069" stroke="blue" stroke-width="2" />
<path d="M5393,5644 L7254,7167" stroke="blue" stroke-width="2" />
<path d="M5078,8084 L2541,4069" stroke="blue" stroke-width="2" />
<path d="M6931,6287 L628,9398" stroke="blue" stroke-width="2" />
<path d="M5088,2667 L2429,5168" stroke="blue" stroke-width="2" />
<path d="M4983,6955 L2210,2260" stroke="blue" stroke-width="2" />
<path d="M283,5278 L6472,6850" stroke="blue" stroke-width="2" />
<path d="M6932,9574 L300,9623" stroke="blue" stroke-width="2" />
<path d="M7173,4123 L3319,5727" stroke="blue" stroke-width="2" />
<path d="M3491,6711 L6680,5860" stroke="blue" stroke-width="2" />
<path d="M6167,8343 L6877,5111" stroke="blue" stroke-width="2" />
<path d="M5725,6121 L1742,6062" stroke="blue" stroke-width="2" />
<path d="M5757,2105 L1015,7718" stroke="blue" stroke-width="2" />
<path d="M512,767 L3745,533" stroke="blue" stroke-width="2" />
<path d="M2130,2090 L2146,5238" stroke="blue" stroke-width="2" />
<path d="M5863,551 L5350,7243" stroke="blue" stroke-width="2" />
<path d="M4460,6657 L4262,5117" stroke="blue" stroke-width="2" />
<path d="M5949,5137 L5342,8810" stroke="blue" stroke-width="2" />
<path d="M2727,3369 L4945,1454" stroke="blue" stroke-width="2" />
<path d="M2702,6703 L2557,2426" stroke="blue" stroke-width="2" />
<path d="M5869,1682 L4317,3659" stroke="blue" stroke-width="2" />
<path d="M1465,8749 L4427,7809" stroke="blue" stroke-width="2" />
<path d="M2809,2736 L290,7290" stroke="blue" stroke-width="2" />
<path d="M2725,4729 L6609,533" stroke="blue" stroke-width="2" />
<path d="M2418,1909 L5832,5523" stroke="blue" stroke-width="2" />
<path d="M2167,5461 L7117,9056" stroke="blue" stroke-width="2" />
<path d="M6947,170 L5843,6654" stroke="blue" stroke-width="2" />
<path d="M6018,3879 L5831,4342" stroke="blue" stroke-width="2" />
<path d="M4665,1815 L6834,8294" stroke="blue" stroke-width="2" />
<path d="M37,2919 L4011,8535" stroke="blue" stroke-width="2" />
<path d="M5732,4561 L7212,7181" stroke="blue" stroke-width="2" />
<path d="M1489,1819 L576,6965" stroke="blue" stroke-width="2" />
<path d="M4759,257 L4206,1442" stroke="blue" stroke-width="2" />
<path d="M3198,8775 L3922,1137" stroke="blue" stroke-width="2" />
<path d="M558,5003 L2197,2150" stroke="blue" stroke-width="2" />
<path d="M4262,4054 L2885,6608" stroke="blue" stroke-width="2" />
<path d="M6298,4140 L2835,3108" stroke="blue" stroke-width="2" />
<path d="M2832,3352 L2616,1935" stroke="blue" stroke-width="2" />
<path d="M3554,7921 L2618,4431" stroke="blue" stroke-width="2" />
<path d="M2235,9379 L690,660" stroke="blue" stroke-width="2" />
<path d="M7127,1224 L3735,7744" stroke="blue" stroke-width="2" />
<path d="M2724,9224 L6302,4105" stroke="blue" stroke-width="2" />
<path d="M5794,8113 L4576,2368" stroke="blue" stroke-width="2" />
<path d="M3049,1463 L5495,3610" stroke="blue" stroke-width="2" />
<path d="M3971,3517 L834,730" stroke="blue" stroke-width="2" />
<path d="M5716,9492 L2165,1005" stroke="blue" stroke-width="2" />
<path d="M317,2144 L7114,6422" stroke="blue" stroke-width="2" />
<path d="M7204,5762 L3250,645" stroke="blue" stroke-width="2" />
<path d="M2107,3620 L5404,3390" stroke="blue" stroke-width="2" />
<path d="M2893,8294 L5974,2517" stroke="blue" stroke-width="2" />
<path d="M2848,8447 L178,8161" stroke="blue" stroke-width="2" />
<path d="M6301,1184 L4696,9884" stroke="blue" stroke-width="2" />
<path d="M5965,1612 L4910,6506" stroke="blue" stroke-width="2" />
<path d="M1209,7328 L3826,5915" stroke="blue" stroke-width="2" />
<path d="M5355,3595 L3753,5764" stroke="blue" stroke-width="2" />
<path d="M652,4186 L2008,3661" stroke="blue" stroke-width="2" />
<path d="M113,7844 L5233,6872" stroke="blue" stroke-width="2" />
<path d="M5627,5112 L4064,1733" stroke="blue" stroke-width="2" />
<path d="M1066,7556 L322,9674" stroke="blue" stroke-width="2" />
<path d="M205,9598 L6111,5330" stroke="blue" stroke-width="2" />
<path d="M948,1987 L3593,3616" stroke="blue" stroke-width="2" />
<path d="M73,9231 L1377,7559" stroke="blue" stroke-width="2" />
<path d="M6902,5692 L4345,5506" stroke="blue" stroke-width="2" />
<path d="M4268,9048 L1167,1772" stroke="blue" stroke-width="2" />
<path d="M6446,8578 L4473,6688" stroke="blue" stroke-width="2" />
<path d="M5673,3850 L1963,5180" stroke="blue" stroke-width="2" />
<path d="M2124,6800 L4670,3278" stroke="blue" stroke-width="2" />
<path d="M6017,3657 L5630,274" stroke="blue" stroke-width="2" />
<path d="M4435,2055 L7219,5712" stroke="blue" stroke-width="2" />
<path d="M3267,8957 L2089,7126" stroke="blue" stroke-width="2" />
<path d="M6434,6560 L3297,7759" stroke="blue" stroke-width="2" />
<path d="M1987,351 L5182,2207" stroke="blue" stroke-width="2" />
<path d="M1495,1721 L636,4124" stroke="blue" stroke-width="2" />
<path d="M4598,3987 L3017,5190" stroke="blue" stroke-width="2" />
<path d="M3598,3308 L3932,7599" stroke="blue" stroke-width="2" />
<path d="M5384,8236 L3337,9271" stroke="blue" stroke-width="2" />
<path d="M1015,2965 L5484,827" stroke="blue" stroke-width="2" />
<path d="M3219,8958 L4622,3096" stroke="blue" stroke-width="2" />
<path d="M1244,2997 L4831,3342" stroke="blue" stroke-width="2" />
<path d="M1739,4936 L4864,7312" stroke="blue" stroke-width="2" />
<path d="M7227,2789 L1378,3429" stroke="blue" stroke-width="2" />
<path d="M6877,5323 L2072,279" stroke="blue" stroke-width="2" />
<path d="M5017,1102 L6372,7097" stroke="blue" stroke-width="2" />
<path d="M698,4849 L3832,8651" stroke="blue" stroke-width="2" />
<path d="M4912,2870 L7285,7757" stroke="blue" stroke-width="2" />
<path d="M6456,3959 L6372,585" stroke="blue" stroke-width="2" />
<path d="M4243,4814 L5630,6387" stroke="blue" stroke-width="2" />
<path d="M6247,2468 L6949,8568" stroke="blue" stroke-width="2" />
<path d="M13,5634 L2471,7515" stroke="blue" stroke-width="2" />
<path d="M4971,7217 L5230,7618" stroke="blue" stroke-width="2" />
<path d="M465,2348 L6499,6201" stroke="blue" stroke-width="2" />
<path d="M6357,2282 L1674,5331" stroke="blue" stroke-width="2" />
<path d="M7058,870 L3770,5040" stroke="blue" stroke-width="2" />
<path d="M1770,2957 L652,4393" stroke="blue" stroke-width="2" />
<path d="M3541,7514 L862,3620" stroke="blue" stroke-width="2" />
<path d="M3954,2612 L4277,6337" stroke="blue" stroke-width="2" />
<path d="M4755,1370 L120,2785" stroke="blue" stroke-width="2" />
<path d="M6987,6903 L6583,215" stroke="blue" stroke-width="2" />
<path d="M2267,8611 L5672,230" stroke="blue" stroke-width="2" />
<path d="M6811,772 L1965,7427" stroke="blue" stroke-width="2" />
<path d="M4942,8944 L2709,5418" stroke="blue" stroke-width="2" />
<path d="M4056,3652 L2426,924" stroke="blue" stroke-width="2" />
<path d="M2957,8661 L3093,8881" stroke="blue" stroke-width="2" />
<path d="M3895,1913 L7152,9350" stroke="blue" stroke-width="2" />
<path d="M308,6516 L1019,121" stroke="blue" stroke-width="2" />
<path d="M458,1352 L204,8876" stroke="blue" stroke-width="2" />
<path d="M1967,6319 L6959,5495" stroke="blue" stroke-width="2" />
<path d="M4939,6025 L4168,3945" stroke="blue" stroke-width="2" />
<path d="M6126,5329 L3364,6000" stroke="blue" stroke-width="2" />
<path d="M5567,3898 L2348,3226" stroke="blue" stroke-width="2" />
<path d="M6116,2789 L3108,5048" stroke="blue" stroke-width="2" />
<path d="M5001,6488 L5560,9588" stroke="blue" stroke-width="2" />
<path d="M4711,40 L4410,3852" stroke="blue" stroke-width="2" />
<path d="M4518,8242 L1779,3446" stroke="blue" stroke-width="2" />
<path d="M1284,3829 L2585,6998" stroke="blue" stroke-width="2" />
<path d="M3365,9902 L5072,1666" stroke="blue" stroke-width="2" />
<path d="M4006,291 L384,3379" stroke="blue" stroke-width="2" />
<path d="M3859,2096 L5810,3727" stroke="blue" stroke-width="2" />
<path d="M3549,7088 L2016,6086" stroke="blue" stroke-width="2" />
<path d="M4868,4476 L3035,1617" stroke="blue" stroke-width="2" />
<path d="M2732,474 L2885,2800" stroke="blue" stroke-width="2" />
<path d="M4122,3796 L1757,2096" stroke="blue" stroke-width="2" />
<path d="M5305,3461 L4940,7195" stroke="blue" stroke-width="2" />
<path d="M7159,8974 L235,4708" stroke="blue" stroke-width="2" />
<path d="M7018,1886 L125,4865" stroke="blue" stroke-width="2" />
<path d="M2887,3493 L498,6046" stroke="blue" stroke-width="2" />
<path d="M2389,3883 L627,2422" stroke="blue" stroke-width="2" />
<path d="M1323,6350 L351,329" stroke="blue" stroke-width="2" />
<path d="M4294,1128 L858,5710" stroke="blue" stroke-width="2" />
<path d="M6773,3710 L4788,5017" stroke="blue" stroke-width="2" />
<path d="M6865,618 L6292,6034" stroke="blue" stroke-width="2" />
<path d="M1307,8049 L7136,8566" stroke="blue" stroke-width="2" />
<path d="M5898,6683 L6578,4025" stroke="blue" stroke-width="2" />
<path d="M145,2685 L4213,1095" stroke="blue" stroke-width="2" />
<path d="M6290,7159 L1481,4251" stroke="blue" stroke-width="2" />
<path d="M6688,2368 L5460,7399" stroke="blue" stroke-width="2" />
<path d="M907,5347 L4765,2596" stroke="blue" stroke-width="2" />
<path d="M1022,1195 L5737,40" stroke="blue" stroke-width="2" />
<path d="M4853,3219 L6580,8554" stroke="blue" stroke-width="2" />
<path d="M6383,6589 L2782,875" stroke="blue" stroke-width="2" />
<path d="M3945,8703 L6256,9567" stroke="blue" stroke-width="2" />
<path d="M477,6190 L2801,6099" stroke="blue" stroke-width="2" />
<path d="M4799,3776 L3307,3753" stroke="blue" stroke-width="2" />
<path d="M6804,1812 L1039,6813" stroke="blue" stroke-width="2" />
<path d="M1125,8942 L6581,71" stroke="blue" stroke-width="2" />
<path d="M466,785 L5310,6799" stroke="blue" stroke-width="2" />
<path d="M7059,2507 L4554,632" stroke="blue" stroke-width="2" />
<path d="M5594,4320 L1983,9887" stroke="blue" stroke-width="2" />
<path d="M5331,6181 L460,3573" stroke="blue" stroke-width="2" />
<path d="M4403,8140 L3832,1490" stroke="blue" stroke-width="2" />
<path d="M3997,7243 L2830,8121" stroke="blue" stroke-width="2" />
<path d="M911,9587 L5845,3437" stroke="blue" stroke-width="2" />
<path d="M366,7844 L3592,58" stroke="blue" stroke-width="2" />
<path d="M789,6506 L900,1164" stroke="blue" stroke-width="2" />
<path d="M4807,9586 L7195,5634" stroke="blue" stroke-width="2" />
<path d="M445,1821 L6171,6291" stroke="blue" stroke-width="2" />
<path d="M4051,7604 L4072,5874" stroke="blue" stroke-width="2" />
<path d="M4029,9721 L5069,7963" stroke="blue" stroke-width="2" />
<path d="M58,5613 L1722,1290" stroke="blue" stroke-width="2" />
<path d="M3740,4130 L6660,1043" stroke="blue" stroke-width="2" />
<path d="M6142,2555 L3320,334" stroke="blue" stroke-width="2" />
<path d="M6299,9184 L1974,6928" stroke="blue" stroke-width="2" />
<path d="M5791,8364 L959,8832" stroke="blue" stroke-width="2" />
<path d="M4157,9569 L2518,4966" stroke="blue" stroke-width="2" />
<path d="M1115,37 L2977,3195" stroke="blue" stroke-width="2" />
<path d="M4646,444 L4436,8105" stroke="blue" stroke-width="2" />
<path d="M1438,545 L6680,5961" stroke="blue" stroke-width="2" />
<path d="M6191,4918 L3835,6638" stroke="blue" stroke-width="2" />
<path d="M1864,1660 L3099,1740" stroke="blue" stroke-width="2" />
<path d="M5872,3424 L1323,6103" stroke="blue" stroke-width="2" />
<path d="M750,3187 L6488,2209" stroke="blue" stroke-width="2" />
<path d="M2804,507 L3618,3633" stroke="blue" stroke-width="2" />
<path d="M6881,5690 L3855,2117" stroke="blue" stroke-width="2" />
<path d="M6627,3196 L4487,3052" stroke="blue" stroke-width="2" />
<path d="M4780,8196 L5017,333" stroke="blue" stroke-width="2" />
<path d="M6850,7023 L4177,6512" stroke="blue" stroke-width="2" />
<path d="M3056,1460 L1084,4190" stroke="blue" stroke-width="2" />
<path d="M3841,7214 L282,4198" stroke="blue" stroke-width="2" />
<path d="M7103,9104 L5586,5772" stroke="blue" stroke-width="2" />
<path d="M7104,7011 L2653,5088" stroke="blue" stroke-width="2" />
<path d="M5435,8440 L6685,6714" stroke="blue" stroke-width="2" />
<path d="M3636,1822 L4029,6671" stroke="blue" stroke-width="2" />
<path d="M6481,7794 L4181,1277" stroke="blue" stroke-width="2" />
<path d="M4294,1016 L4129,897" stroke="blue" stroke-width="2" />
<path d="M821,9145 L298,8820" stroke="blue" stroke-width="2" />
<path d="M5676,8163 L1378,8112" stroke="blue" stroke-width="2" />
<path d="M1596,3299 L4726,2436" stroke="blue" stroke-width="2" />
<path d="M209,5073 L1015,5660" stroke="blue" stroke-width="2" />
<path d="M4145,7341 L3633,4322" stroke="blue" stroke-width="2" />
<path d="M6166,6318 L5779,6736" stroke="blue" stroke-width="2" />
<path d="M1352,8597 L929,8505" stroke="blue" stroke-width="2" />
<path d="M6622,9142 L2425,4486" stroke="blue" stroke-width="2" />
<path d="M3222,2140 L3469,196" stroke="blue" stroke-width="2" />
<path d="M3474,8361 L5349,4005" stroke="blue" stroke-width="2" />
<path d="M5007,370 L2722,6884" stroke="blue" stroke-width="2" />
<path d="M1224,903 L5039,8365" stroke="blue" stroke-width="2" />
<path d="M6136,1877 L1655,9219" stroke="blue" stroke-width="2" />
<path d="M2062,6651 L5035,5779" stroke="blue" stroke-width="2" />
<path d="M3029,9215 L2593,3360" stroke="blue" stroke-width="2" />
<path d="M2403,958 L4052,2774" stroke="blue" stroke-width="2" />
<path d="M4115,8280 L5966,4065" stroke="blue" stroke-width="2" />
<path d="M3636,5401 L5409,7301" stroke="blue" stroke-width="2" />
<path d="M4182,7728 L2825,9657" stroke="blue" stroke-width="2" />
<path d="M1393,4347 L3887,2317" stroke="blue" stroke-width="2" />
<path d="M2220,8268 L4588,9045" stroke="blue" stroke-width="2" />
<path d="M6536,126 L1539,4634" stroke="blue" stroke-width="2" />
<path d="M6998,6208 L485,8643" stroke="blue" stroke-width="2" />
<path d="M1722,3466 L1741,732" stroke="blue" stroke-width="2" />
<path d="M823,339 L5050,7535" stroke="blue" stroke-width="2" />
<path d="M1161,1427 L2777,4452" stroke="blue" stroke-width="2" />
<path d="M5466,1471 L534,8805" stroke="blue" stroke-width="2" />
<path d="M6966,9296 L1056,6490" stroke="blue" stroke-width="2" />
<path d="M3610,9563 L3439,5241" stroke="blue" stroke-width="2" />
<path d="M5207,5709 L6096,3804" stroke="blue" stroke-width="2" />
<path d="M3331,2052 L5368,7801" stroke="blue" stroke-width="2" />
<path d="M2144,7894 L238,5229" stroke="blue" stroke-width="2" />
<path d="M1395,6222 L2087,3336" stroke="blue" stroke-width="2" />
<path d="M3995,6688 L6388,8574" stroke="blue" stroke-width="2" />
<path d="M3735,397 L5318,5794" stroke="blue" stroke-width="2" />
<path d="M4940,8201 L2926,5497" stroke="blue" stroke-width="2" />
<path d="M2575,708 L2768,1031" stroke="blue" stroke-width="2" />
<path d="M2071,9916 L956,4017" stroke="blue" stroke-width="2" />
<path d="M4543,7436 L4616,736" stroke="blue" stroke-width="2" />
<path d="M1257,9368 L936,3433" stroke="blue" stroke-width="2" />
<path d="M4737,970 L2516,5566" stroke="blue" stroke-width="2" />
<path d="M363,4331 L2655,8933" stroke="blue" stroke-width="2" />
<path d="M1811,151 L7122,5604" stroke="blue" stroke-width="2" />
<path d="M2241,6774 L2910,464" stroke="blue" stroke-width="2" />
<path d="M500,3811 L5463,7194" stroke="blue" stroke-width="2" />
<path d="M4018,5186 L5365,3537" stroke="blue" stroke-width="2" />
<path d="M6713,9749 L4611,3286" stroke="blue" stroke-width="2" />
<path d="M6751,9667 L4662,6308" stroke="blue" stroke-width="2" />
<path d="M3425,362 L3762,7280" stroke="blue" stroke-width="2" />
<path d="M1960,7029 L3041,6948" stroke="blue" stroke-width="2" />
<path d="M5252,26 L2421,1910" stroke="blue" stroke-width="2" />
<path d="M4948,5185 L7131,422" stroke="blue" stroke-width="2" />
<path d="M1568,8414 L6982,7678" stroke="blue" stroke-width="2" />
<path d="M745,9034 L294,713" stroke="blue" stroke-width="2" />
<path d="M4031,1774 L787,4317" stroke="blue" stroke-width="2" />
<path d="M3952,9769 L454,1996" stroke="blue" stroke-width="2" />
<path d="M5494,5519 L2551,9312" stroke="blue" stroke-width="2" />
<path d="M1566,3455 L5859,7171" stroke="blue" stroke-width="2" />
<path d="M921,5325 L6472,6476" stroke="blue" stroke-width="2" />
<path d="M3780,4417 L5910,7783" stroke="blue" stroke-width="2" />
<path d="M5346,6965 L7252,9784" stroke="blue" stroke-width="2" />
<path d="M6873,3277 L4473,4788" stroke="blue" stroke-width="2" />
<path d="M5026,8041 L2708,9269" stroke="blue" stroke-width="2" />
<path d="M6863,5180 L1338,8391" stroke="blue" stroke-width="2" />
<path d="M4579,2565 L815,512" stroke="blue" stroke-width="2" />
<path d="M4992,2127 L6031,8129" stroke="blue" stroke-width="2" />
<path d="M4397,2861 L2419,2886" stroke="blue" stroke-width="2" />
<path d="M6602,471 L2749,9031" stroke="blue" stroke-width="2" />
<path d="M181,5841 L1211,5226" stroke="blue" stroke-width="2" />
<path d="M5893,3985 L248,8069" stroke="blue" stroke-width="2" />
<path d="M1078,1975 L4234,1589" stroke="blue" stroke-width="2" />
<path d="M6323,6853 L3498,692" stroke="blue" stroke-width="2" />
<path d="M2352,9831 L7013,6907" stroke="blue" stroke-width="2" />
<path d="M4433,5029 L198,3810" stroke="blue" stroke-width="2" />
<path d="M7081,1915 L1717,7922" stroke="blue" stroke-width="2" />
<path d="M860,3059 L4857,5282" stroke="blue" stroke-width="2" />
<path d="M4190,858 L7192,8406" stroke="blue" stroke-width="2" />
<path d="M317,4039 L4363,4976" stroke="blue" stroke-width="2" />
<path d="M1338,9721 L2314,842" stroke="blue" stroke-width="2" />
<path d="M2880,9111 L1168,1801" stroke="blue" stroke-width="2" />
<path d="M202,864 L5386,6377" stroke="blue" stroke-width="2" />
<path d="M1315,2777 L1592,5698" stroke="blue" stroke-width="2" />
<path d="M6523,1122 L637,596" stroke="blue" stroke-width="2" />
<path d="M788,902 L4900,9019" stroke="blue" stroke-width="2" />
<path d="M6719,9896 L585,5938" stroke="blue" stroke-width="2" />
<path d="M3286,7772 L1478,8100" stroke="blue" stroke-width="2" />
<path d="M494,6526 L3820,9092" stroke="blue" stroke-width="2" />
<path d="M4968,9151 L3503,1136" stroke="blue" stroke-width="2" />
<path d="M5998,594 L6291,7487" stroke="blue" stroke-width="2" />
<path d="M1344,6000 L7066,2687" stroke="blue" stroke-width="2" />
<path d="M926,6261 L7126,3320" stroke="blue" stroke-width="2" />
<path d="M7035,8699 L6718,2608" stroke="blue" stroke-width="2" />
<path d="M5272,8489 L1346,3272" stroke="blue" stroke-width="2" />
<path d="M6503,3833 L7014,4675" stroke="blue" stroke-width="2" />
<path d="M42,2197 L7232,997" stroke="blue" stroke-width="2" />
<path d="M3928,7181 L4975,8660" stroke="blue" stroke-width="2" />
<path d="M6139,6491 L676,5370" stroke="blue" stroke-width="2" />
<path d="M5467,3725 L3749,1723" stroke="blue" stroke-width="2" />
<path d="M5055,2317 L5149,2749" stroke="blue" stroke-width="2" />
<path d="M3392,6539 L569,5353" stroke="blue" stroke-width="2" />
<path d="M1089,4646 L2136,9898" stroke="blue" stroke-width="2" />
<path d="M553,8992 L844,1142" stroke="blue" stroke-width="2" />
<path d="M869,8926 L4703,3091" stroke="blue" stroke-width="2" />
<path d="M83,7541 L2128,8105" stroke="blue" stroke-width="2" />
<path d="M6412,6966 L2908,3115" stroke="blue" stroke-width="2" />
<path d="M1316,4539 L4841,8750" stroke="blue" stroke-width="2" />
<path d="M4257,703 L2284,8576" stroke="blue" stroke-width="2" />
<path d="M3381,3127 L5537,6248" stroke="blue" stroke-width="2" />
<path d="M6969,2729 L4673,5236" stroke="blue" stroke-width="2" />
<path d="M7208,5034 L204,4673" stroke="blue" stroke-width="2" />
<path d="M5610,6196 L7032,6041" stroke="blue" stroke-width="2" />
<path d="M470,2995 L1061,5795" stroke="blue" stroke-width="2" />
<path d="M3274,3545 L5054,4407" stroke="blue" stroke-width="2" />
<path d="M6024,957 L2562,9354" stroke="blue" stroke-width="2" />
<path d="M5637,6991 L4961,8059" stroke="blue" stroke-width="2" />
<path d="M3347,7917 L1273,3510" stroke="blue" stroke-width="2" />
<path d="M5076,4899 L7263,1068" stroke="blue" stroke-width="2" />
<path d="M5282,4000 L3049,707" stroke="blue" stroke-width="2" />
<path d="M935,9425 L237,6710" stroke="blue" stroke-width="2" />
<path d="M4290,5114 L6788,3348" stroke="blue" stroke-width="2" />
<path d="M6945,9633 L6392,8419" stroke="blue" stroke-width="2" />
<path d="M4390,9931 L2975,6730" stroke="blue" stroke-width="2" />
<path d="M5955,9434 L1147,6923" stroke="blue" stroke-width="2" />
<path d="M3157,9556 L2072,2174" stroke="blue" stroke-width="2" />
<path d="M4346,8989 L1254,1655" stroke="blue" stroke-width="2" />
<path d="M0,0 L7305,0" stroke="red" stroke-width="10" />
<path d="M7305,0 L7305,9936" stroke="red" stroke-width="10" />
<path d="M0,9936 L7305,9936" stroke="red" stroke-width="10" />
<path d="M0,9936 L0,0" stroke="red" stroke-width="10" />
</svg>