<?xml version="1.0" encoding="UTF-8"?>
<svg xmlns="http://www.w3.org/2000/svg" xmlns:xlink="http://www.w3.org/1999/xlink"
     width="10000" height="10000" viewBox="0 0 10000 10000">
<defs>
</defs>
<path d="M2900,1670 L4720,2509" stroke="blue" stroke-width="2" />
<path d="M3921,1381 L2154,1366" stroke="blue" stroke-width="2" />
<path d="M4824,3001 L4495,2186" stroke="blue" stroke-width="2" />
<path d="M3712,668 L1992,819" stroke="blue" stroke-width="2" />
<path d="M3589,1242 L3995,2021" stroke="blue" stroke-width="2" />
<path d="M2168,18 L3062,1768" stroke="blue" stroke-width="2" />
<path d="M3836,1291 L2833,3102" stroke="blue" stroke-width="2" />
<path d="M3561,2015 L4850,417" stroke="blue" stroke-width="2" />
<path d="M4633,2932 L725,1499" stroke="blue" stroke-width="2" />
<path d="M162,753 L2723,1332" stroke="blue" stroke-width="2" />
<path d="M2937,2381 L4075,2204" stroke="blue" stroke-width="2" />
<path d="M2122,246 L105,753" stroke="blue" stroke-width="2" />
<path d="M3658,2872 L775,333" stroke="blue" stroke-width="2" />
<path d="M4013,271 L4078,45" stroke="blue" stroke-width="2" />
<path d="M307,384 L3163,61" stroke="blue" stroke-width="2" />
<path d="M15,1687 L2154,138" stroke="blue" stroke-width="2" />
<path d="M4305,880 L1873,213" stroke="blue" stroke-width="2" />
<path d="M3660,1579 L931,2532" stroke="blue" stroke-width="2" />
<path d="M2892,2722 L3121,1321" stroke="blue" stroke-width="2" />
<path d="M1104,165 L2618,2691" stroke="blue" stroke-width="2" />
<path d="M3780,588 L3741,2497" stroke="blue" stroke-width="2" />
<path d="M3922,1450 L5070,2179" stroke="blue" stroke-width="2" />
<path d="M401,3046 L328,1477" stroke="blue" stroke-width="2" />
<path d="M3281,562 L1217,1283" stroke="blue" stroke-width="2" />
<path d="M2316,2322 L2061,1399" stroke="blue" stroke-width="2" />
<path d="M3306,1212 L2032,1557" stroke="blue" stroke-width="2" />
<path d="M410,496 L2434,2608" stroke="blue" stroke-width="2" />
<path d="M1464,2775 L4418,2884" stroke="blue" stroke-width="2" />
<path d="M4099,2977 L2005,2976" stroke="blue" stroke-width="2" />
<path d="M1382,3 L4721,3089" stroke="blue" stroke-width="2" />
<path d="M1727,521 L2061,2784" stroke="blue" stroke-width="2" />
<path d="M1909,2969 L2974,2742" stroke="blue" stroke-width="2" />
<path d="M5036,507 L65,2826" stroke="blue" stroke-width="2" />
<path d="M3774,1106 L517,1292" stroke="blue" stroke-width="2" />
<path d="M1578,93 L4363,2229" stroke="blue" stroke-width="2" />
<path d="M2137,1415 L106,34" stroke="blue" stroke-width="2" />
<path d="M2372,1905 L1823,775" stroke="blue" stroke-width="2" />
<path d="M2183,2772 L2809,2554" stroke="blue" stroke-width="2" />
<path d="M4596,2707 L4766,1559" stroke="blue" stroke-width="2" />
<path d="M458,587 L605,814" stroke="blue" stroke-width="2" />
<path d="M809,676 L3818,3020" stroke="blue" stroke-width="2" />
<path d="M296,2777 L3518,832" stroke="blue" stroke-width="2" />
<path d="M715,1511 L1128,42" stroke="blue" stroke-width="2" />
<path d="M3292,28 L343,1842" stroke="blue" stroke-width="2" />
<path d="M1369,2049 L2936,1492" stroke="blue" stroke-width="2" />
<path d="M4575,315 L4200,1257" stroke="blue" stroke-width="2" />
<path d="M1504,1447 L3660,979" stroke="blue" stroke-width="2" />
<path d="M2999,2819 L4859,1662" stroke="blue" stroke-width="2" />
<path d="M3742,2956 L144,2645" stroke="blue" stroke-width="2" />
<path d="M889,2082 L1246,1605" stroke="blue" stroke-width="2" />
<path d="M364,2154 L1260,337" stroke="blue" stroke-width="2" />
<path d="M3609,239 L2537,2168" stroke="blue" stroke-width="2" />
<path d="M4144,1694 L4001,1077" stroke="blue" stroke-width="2" />
<path d="M1956,949 L420,1468" stroke="blue" stroke-width="2" />
<path d="M2405,414 L2546,1047" stroke="blue" stroke-width="2" />
<path d="M104,2533 L307,77" stroke="blue" stroke-width="2" />
<path d="M665,1282 L4969,2462" stroke="blue" stroke-width="2" />
<path d="M2770,1833 L3015,1189" stroke="blue" stroke-width="2" />
<path d="M1959,1510 L3134,1022" stroke="blue" stroke-width="2" />
<path d="M2084,286 L1448,119" stroke="blue" stroke-width="2" />
<path d="M775,1700 L2390,717" stroke="blue" stroke-width="2" />
<path d="M4752,761 L571,2987" stroke="blue" stroke-width="2" />
<path d="M813,1745 L936,2956" stroke="blue" stroke-width="2" />
<path d="M4646,1869 L87,3036" stroke="blue" stroke-width="2" />
<path d="M4252,277 L2297,2596" stroke="blue" stroke-width="2" />
<path d="M899,2356 L1963,2127" stroke="blue" stroke-width="2" />
<path d="M2499,2987 L311,1293" stroke="blue" stroke-width="2" />
<path d="M618,453 L1110,1945" stroke="blue" stroke-width="2" />
<path d="M480,2924 L3061,1879" stroke="blue" stroke-width="2" />
<path d="M1665,669 L1238,2636" stroke="blue" stroke-width="2" />
<path d="M1873,728 L4083,742" stroke="blue" stroke-width="2" />
<path d="M4106,202 L1584,2804" stroke="blue" stroke-width="2" />
<path d="M631,1812 L5039,10" stroke="blue" stroke-width="2" />
<path d="M987,383 L3683,64" stroke="blue" stroke-width="2" />
<path d="M3589,1340 L2642,2341" stroke="blue" stroke-width="2" />
<path d="M3660,113 L3665,1372" stroke="blue" stroke-width="2" />
<path d="M414,1315 L4694,926" stroke="blue" stroke-width="2" />
<path d="M2350,507 L1070,2629" stroke="blue" stroke-width="2" />
<path d="M2845,1259 L2715,2301" stroke="blue" stroke-width="2" />
<path d="M3967,2228 L2249,423" stroke="blue" stroke-width="2" />
<path d="M460,1078 L442,860" stroke="blue" stroke-width="2" />
<path d="M2907,2670 L259,950" stroke="blue" stroke-width="2" />
<path d="M429,1127 L1489,1439" stroke="blue" stroke-width="2" />
<path d="M4506,3 L3859,2690" stroke="blue" stroke-width="2" />
<path d="M1350,2162 L962,1181" stroke="blue" stroke-width="2" />
<path d="M2675,1218 L3412,2569" stroke="blue" stroke-width="2" />
<path d="M1900,2143 L3705,2338" stroke="blue" stroke-width="2" />
<path d="M2722,1692 L2946,1189" stroke="blue" stroke-width="2" />
<path d="M3415,334 L1185,2560" stroke="blue" stroke-width="2" />
<path d="M4969,3100 L1641,1162" stroke="blue" stroke-width="2" />
<path d="M105,1623 L4885,2667" stroke="blue" stroke-width="2" />
<path d="M4813,1406 L929,1136" stroke="blue" stroke-width="2" />
<path d="M365,2385 L3448,1446" stroke="blue" stroke-width="2" />
<path d="M3565,559 L3559,896" stroke="blue" stroke-width="2" />
<path d="M1013,251 L1393,3029" stroke="blue" stroke-width="2" />
<path d="M1716,670 L4435,635" stroke="blue" stroke-width="2" />
<path d="M87,53 L96,2982" stroke="blue" stroke-width="2" />
<path d="M444,730 L4832,2615" stroke="blue" stroke-width="2" />
<path d="M4649,178 L21,955" stroke="blue" stroke-width="2" />
<path d="M1739,755 L4328,2269" stroke="blue" stroke-width="2" />
<path d="M4404,2272 L1380,2474" stroke="blue" stroke-width="2" />
<path d="M2088,2160 L4777,390" stroke="blue" stroke-width="2" />
<path d="M818,2781 L3773,1233" stroke="blue" stroke-width="2" />
<path d="M274,1973 L678,3054" stroke="blue" stroke-width="2" />
<path d="M4791,3131 L4416,2886" stroke="blue" stroke-width="2" />
<path d="M34,1337 L2534,1280" stroke="blue" stroke-width="2" />
<path d="M4916,2340 L581,1055" stroke="blue" stroke-width="2" />
<path d="M3677,1655 L1415,335" stroke="blue" stroke-width="2" />
<path d="M3159,412 L4652,2664" stroke="blue" stroke-width="2" />
<path d="M1151,2213 L3404,693" stroke="blue" stroke-width="2" />
<path d="M2601,1566 L4101,2827" stroke="blue" stroke-width="2" />
<path d="M3861,1101 L3951,253" stroke="blue" stroke-width="2" />
<path d="M658,267 L1763,188" stroke="blue" stroke-width="2" />
<path d="M4592,979 L2272,629" stroke="blue" stroke-width="2" />
<path d="M3037,420 L528,2984" stroke="blue" stroke-width="2" />
<path d="M3537,2318 L4105,436" stroke="blue" stroke-width="2" />
<path d="M973,2385 L2939,1615" stroke="blue" stroke-width="2" />
<path d="M2170,1619 L684,3058" stroke="blue" stroke-width="2" />
<path d="M1839,2099 L2775,2249" stroke="blue" stroke-width="2" />
<path d="M918,1691 L1265,2541" stroke="blue" stroke-width="2" />
<path d="M250,458 L1484,15" stroke="blue" stroke-width="2" />
<path d="M3780,1766 L3263,642" stroke="blue" stroke-width="2" />
<path d="M4568,1619 L4852,1220" stroke="blue" stroke-width="2" />
<path d="M3866,2144 L2421,496" stroke="blue" stroke-width="2" />
<path d="M1885,1227 L1079,2369" stroke="blue" stroke-width="2" />
<path d="M4317,1823 L4184,930" stroke="blue" stroke-width="2" />
<path d="M4737,2074 L3323,2788" stroke="blue" stroke-width="2" />
<path d="M3792,2186 L3772,2871" stroke="blue" stroke-width="2" />
<path d="M489,2748 L609,2694" stroke="blue" stroke-width="2" />
<path d="M1093,2327 L1982,424" stroke="blue" stroke-width="2" />
<path d="M1969,2721 L4272,2501" stroke="blue" stroke-width="2" />
<path d="M3803,1531 L3181,1942" stroke="blue" stroke-width="2" />
<path d="M2704,1794 L2004,355" stroke="blue" stroke-width="2" />
<path d="M3245,708 L4105,2972" stroke="blue" stroke-width="2" />
<path d="M0,0 L5097,0" stroke="red" stroke-width="10" />
<path d="M5097,0 L5097,3164" stroke="red" stroke-width="10" />
<path d="M0,3164 L5097,3164" stroke="red" stroke-width="10" />
<path d="M0,3164 L0,0" stroke="red" stroke-width="10" />
</svg>