<?xml version="1.0" encoding="UTF-8"?>
<svg xmlns="http://www.w3.org/2000/svg" xmlns:xlink="http://www.w3.org/1999/xlink"
     width="10000" height="10000" viewBox="0 0 10000 10000">
<defs>
</defs>
<path d="M4214,460 L3211,1277" stroke="blue" stroke-width="2" />
<path d="M1303,741 L5095,179" stroke="blue" stroke-width="2" />
<path d="M1495,308 L3681,2" stroke="blue" stroke-width="2" />
<path d="M414,1578 L103,180" stroke="blue" stroke-width="2" />
<path d="M3728,2029 L429,504" stroke="blue" stroke-width="2" />
<path d="M1244,10 L3809,637" stroke="blue" stroke-width="2" />
<path d="M2962,382 L1319,98" stroke="blue" stroke-width="2" />
<path d="M3052,1415 L187,233" stroke="blue" stroke-width="2" />
<path d="M5197,1147 L1197,1903" stroke="blue" stroke-width="2" />
<path d="M1696,911 L478,879" stroke="blue" stroke-width="2" />
<path d="M4824,360 L3326,426" stroke="blue" stroke-width="2" />
<path d="M931,39 L1732,957" stroke="blue" stroke-width="2" />
<path d="M5019,1769 L2300,1142" stroke="blue" stroke-width="2" />
<path d="M362,866 L4439,1132" stroke="blue" stroke-width="2" />
<path d="M5002,1684 L2994,2061" stroke="blue" stroke-width="2" />
<path d="M4536,1051 L4649,113" stroke="blue" stroke-width="2" />
<path d="M4523,1950 L2381,1894" stroke="blue" stroke-width="2" />
<path d="M2295,1431 L1620,1797" stroke="blue" stroke-width="2" />
<path d="M1646,706 L2284,1718" stroke="blue" stroke-width="2" />
<path d="M2531,1085 L5273,870" stroke="blue" stroke-width="2" />
<path d="M1481,526 L2297,1328" stroke="blue" stroke-width="2" />
<path d="M2640,1978 L2809,1593" stroke="blue" stroke-width="2" />
<path d="M4753,720 L210,1832" stroke="blue" stroke-width="2" />
<path d="M1631,1188 L3526,1161" stroke="blue" stroke-width="2" />
<path d="M1970,261 L4665,599" stroke="blue" stroke-width="2" />
<path d="M3084,1301 L3974,362" stroke="blue" stroke-width="2" />
<path d="M3592,2039 L2065,794" stroke="blue" stroke-width="2" />
<path d="M1337,444 L379,594" stroke="blue" stroke-width="2" />
<path d="M2334,718 L2479,129" stroke="blue" stroke-width="2" />
<path d="M2673,1481 L2370,711" stroke="blue" stroke-width="2" />
<path d="M2868,1424 L4392,784" stroke="blue" stroke-width="2" />
<path d="M2179,970 L4343,1617" stroke="blue" stroke-width="2" />
<path d="M4802,1422 L636,1896" stroke="blue" stroke-width="2" />
<path d="M698,920 L2185,368" stroke="blue" stroke-width="2" />
<path d="M2177,753 L2714,1231" stroke="blue" stroke-width="2" />
<path d="M4588,1410 L181,1395" stroke="blue" stroke-width="2" />
<path d="M2586,185 L1572,910" stroke="blue" stroke-width="2" />
<path d="M1132,1238 L4061,1343" stroke="blue" stroke-width="2" />
<path d="M4721,1210 L3485,1027" stroke="blue" stroke-width="2" />
<path d="M3212,172 L305,693" stroke="blue" stroke-width="2" />
<path d="M1442,254 L1494,1334" stroke="blue" stroke-width="2" />
<path d="M3411,205 L4975,129" stroke="blue" stroke-width="2" />
<path d="M272,2060 L4440,6" stroke="blue" stroke-width="2" />
<path d="M3470,2042 L3647,868" stroke="blue" stroke-width="2" />
<path d="M279,42 L135,549" stroke="blue" stroke-width="2" />
<path d="M4511,2039 L4471,227" stroke="blue" stroke-width="2" />
<path d="M1617,1262 L816,1159" stroke="blue" stroke-width="2" />
<path d="M2580,364 L1185,34" stroke="blue" stroke-width="2" />
<path d="M3764,253 L3584,1177" stroke="blue" stroke-width="2" />
<path d="M4603,1010 L3986,812" stroke="blue" stroke-width="2" />
<path d="M617,703 L1156,553" stroke="blue" stroke-width="2" />
<path d="M1394,680 L3085,1212" stroke="blue" stroke-width="2" />
<path d="M2348,1250 L4775,1480" stroke="blue" stroke-width="2" />
<path d="M4846,970 L3051,825" stroke="blue" stroke-width="2" />
<path d="M4346,1355 L3739,2038" stroke="blue" stroke-width="2" />
<path d="M2228,289 L3085,840" stroke="blue" stroke-width="2" />
<path d="M3978,1728 L774,889" stroke="blue" stroke-width="2" />
<path d="M16,1467 L4287,1373" stroke="blue" stroke-width="2" />
<path d="M5281,1672 L3872,624" stroke="blue" stroke-width="2" />
<path d="M2479,1885 L1608,58" stroke="blue" stroke-width="2" />
<path d="M2897,254 L5177,530" stroke="blue" stroke-width="2" />
<path d="M4356,578 L4931,764" stroke="blue" stroke-width="2" />
<path d="M2822,997 L19,93" stroke="blue" stroke-width="2" />
<path d="M767,2037 L1946,969" stroke="blue" stroke-width="2" />
<path d="M4200,792 L3608,831" stroke="blue" stroke-width="2" />
<path d="M1656,105 L2251,1245" stroke="blue" stroke-width="2" />
<path d="M2023,168 L2421,980" stroke="blue" stroke-width="2" />
<path d="M2407,725 L1513,1487" stroke="blue" stroke-width="2" />
<path d="M2852,1627 L4272,1293" stroke="blue" stroke-width="2" />
<path d="M369,1308 L2116,47" stroke="blue" stroke-width="2" />
<path d="M1672,1239 L3737,1100" stroke="blue" stroke-width="2" />
<path d="M5257,1569 L4329,1076" stroke="blue" stroke-width="2" />
<path d="M3769,1436 L3168,1873" stroke="blue" stroke-width="2" />
<path d="M2211,1970 L277,1529" stroke="blue" stroke-width="2" />
<path d="M916,2009 L4028,1219" stroke="blue" stroke-width="2" />
<path d="M1029,295 L3657,283" stroke="blue" stroke-width="2" />
<path d="M1625,514 L108,654" stroke="blue" stroke-width="2" />
<path d="M1400,79 L4577,1063" stroke="blue" stroke-width="2" />
<path d="M3157,1800 L5216,218" stroke="blue" stroke-width="2" />
<path d="M3394,1064 L377,708" stroke="blue" stroke-width="2" />
<path d="M1619,1064 L587,1128" stroke="blue" stroke-width="2" />
<path d="M3773,1012 L5147,1993" stroke="blue" stroke-width="2" />
<path d="M4763,567 L513,817" stroke="blue" stroke-width="2" />
<path d="M1098,1555 L4134,1767" stroke="blue" stroke-width="2" />
<path d="M3059,157 L5220,1668" stroke="blue" stroke-width="2" />
<path d="M278,234 L4165,1969" stroke="blue" stroke-width="2" />
<path d="M3247,1400 L958,1899" stroke="blue" stroke-width="2" />
<path d="M3463,1765 L3146,1946" stroke="blue" stroke-width="2" />
<path d="M4321,650 L2523,996" stroke="blue" stroke-width="2" />
<path d="M2656,1377 L92,1181" stroke="blue" stroke-width="2" />
<path d="M4929,526 L4402,988" stroke="blue" stroke-width="2" />
<path d="M1502,1710 L4932,1746" stroke="blue" stroke-width="2" />
<path d="M529,1885 L1270,1789" stroke="blue" stroke-width="2" />
<path d="M2558,1213 L1003,1652" stroke="blue" stroke-width="2" />
<path d="M4,267 L4059,999" stroke="blue" stroke-width="2" />
<path d="M3081,1183 L3705,188" stroke="blue" stroke-width="2" />
<path d="M3843,1155 L2922,50" stroke="blue" stroke-width="2" />
<path d="M1094,1936 L1472,1980" stroke="blue" stroke-width="2" />
<path d="M4213,512 L4718,189" stroke="blue" stroke-width="2" />
<path d="M466,1797 L2527,1223" stroke="blue" stroke-width="2" />
<path d="M311,689 L67,1787" stroke="blue" stroke-width="2" />
<path d="M1934,1720 L1287,1763" stroke="blue" stroke-width="2" />
<path d="M3663,1983 L3504,337" stroke="blue" stroke-width="2" />
<path d="M4271,1886 L3330,1395" stroke="blue" stroke-width="2" />
<path d="M1769,2005 L4715,1958" stroke="blue" stroke-width="2" />
<path d="M1202,189 L3304,1876" stroke="blue" stroke-width="2" />
<path d="M4621,938 L5206,1642" stroke="blue" stroke-width="2" />
<path d="M26,977 L2714,1419" stroke="blue" stroke-width="2" />
<path d="M1376,281 L2483,446" stroke="blue" stroke-width="2" />
<path d="M2283,156 L707,1238" stroke="blue" stroke-width="2" />
<path d="M1130,240 L2010,123" stroke="blue" stroke-width="2" />
<path d="M4811,1562 L4461,1314" stroke="blue" stroke-width="2" />
<path d="M4832,1959 L3076,1031" stroke="blue" stroke-width="2" />
<path d="M4419,2025 L1357,653" stroke="blue" stroke-width="2" />
<path d="M2660,12 L2309,1301" stroke="blue" stroke-width="2" />
<path d="M1615,928 L349,403" stroke="blue" stroke-width="2" />
<path d="M320,1910 L919,482" stroke="blue" stroke-width="2" />
<path d="M409,1806 L1460,1024" stroke="blue" stroke-width="2" />
<path d="M1660,1348 L1073,1700" stroke="blue" stroke-width="2" />
<path d="M4786,1957 L706,1719" stroke="blue" stroke-width="2" />
<path d="M681,773 L3764,510" stroke="blue" stroke-width="2" />
<path d="M794,751 L2228,1494" stroke="blue" stroke-width="2" />
<path d="M2564,1412 L3988,1010" stroke="blue" stroke-width="2" />
<path d="M2852,1823 L1318,1798" stroke="blue" stroke-width="2" />
<path d="M5081,626 L1156,206" stroke="blue" stroke-width="2" />
<path d="M1804,388 L4858,1061" stroke="blue" stroke-width="2" />
<path d="M3783,851 L424,15" stroke="blue" stroke-width="2" />
<path d="M2783,1122 L2848,121" stroke="blue" stroke-width="2" />
<path d="M640,1075 L2950,1563" stroke="blue" stroke-width="2" />
<path d="M3165,177 L2209,1792" stroke="blue" stroke-width="2" />
<path d="M4690,1281 L1402,1153" stroke="blue" stroke-width="2" />
<path d="M5118,1707 L3355,1291" stroke="blue" stroke-width="2" />
<path d="M379,1295 L5083,51" stroke="blue" stroke-width="2" />
<path d="M4766,1210 L531,792" stroke="blue" stroke-width="2" />
<path d="M5095,1221 L2714,1658" stroke="blue" stroke-width="2" />
<path d="M382,338 L3106,1598" stroke="blue" stroke-width="2" />
<path d="M3545,1751 L3695,2000" stroke="blue" stroke-width="2" />
<path d="M2019,100 L2935,1399" stroke="blue" stroke-width="2" />
<path d="M5267,1064 L3541,365" stroke="blue" stroke-width="2" />
<path d="M1156,514 L2110,1241" stroke="blue" stroke-width="2" />
<path d="M3683,909 L4569,845" stroke="blue" stroke-width="2" />
<path d="M306,1525 L277,1103" stroke="blue" stroke-width="2" />
<path d="M744,68 L4457,1277" stroke="blue" stroke-width="2" />
<path d="M1584,598 L5192,1908" stroke="blue" stroke-width="2" />
<path d="M2803,1762 L5008,460" stroke="blue" stroke-width="2" />
<path d="M3852,1614 L2690,1724" stroke="blue" stroke-width="2" />
<path d="M2738,68 L2544,1440" stroke="blue" stroke-width="2" />
<path d="M2879,190 L4299,1158" stroke="blue" stroke-width="2" />
<path d="M999,196 L920,27" stroke="blue" stroke-width="2" />
<path d="M2866,136 L4658,1804" stroke="blue" stroke-width="2" />
<path d="M390,869 L272,1654" stroke="blue" stroke-width="2" />
<path d="M574,541 L1319,1804" stroke="blue" stroke-width="2" />
<path d="M3088,1265 L284,1339" stroke="blue" stroke-width="2" />
<path d="M2611,1704 L4010,1187" stroke="blue" stroke-width="2" />
<path d="M668,1840 L527,677" stroke="blue" stroke-width="2" />
<path d="M4984,47 L4617,200" stroke="blue" stroke-width="2" />
<path d="M2185,1200 L1675,19" stroke="blue" stroke-width="2" />
<path d="M3346,514 L1703,896" stroke="blue" stroke-width="2" />
<path d="M5075,214 L2431,454" stroke="blue" stroke-width="2" />
<path d="M1948,1816 L3007,192" stroke="blue" stroke-width="2" />
<path d="M3442,1004 L3081,154" stroke="blue" stroke-width="2" />
<path d="M1651,1950 L2612,922" stroke="blue" stroke-width="2" />
<path d="M1259,577 L495,1065" stroke="blue" stroke-width="2" />
<path d="M1137,109 L2001,258" stroke="blue" stroke-width="2" />
<path d="M2482,1468 L4652,1290" stroke="blue" stroke-width="2" />
<path d="M5119,660 L4804,54" stroke="blue" stroke-width="2" />
<path d="M4837,269 L1467,1400" stroke="blue" stroke-width="2" />
<path d="M2886,781 L3408,1810" stroke="blue" stroke-width="2" />
<path d="M2028,1323 L3513,696" stroke="blue" stroke-width="2" />
<path d="M3459,1072 L4469,1545" stroke="blue" stroke-width="2" />
<path d="M2282,963 L4948,1699" stroke="blue" stroke-width="2" />
<path d="M3231,1507 L1883,1003" stroke="blue" stroke-width="2" />
<path d="M4547,1446 L2062,1744" stroke="blue" stroke-width="2" />
<path d="M4275,619 L2372,769" stroke="blue" stroke-width="2" />
<path d="M2565,1895 L1078,1588" stroke="blue" stroke-width="2" />
<path d="M3384,1810 L3143,276" stroke="blue" stroke-width="2" />
<path d="M1217,1188 L4639,1891" stroke="blue" stroke-width="2" />
<path d="M1208,1897 L3925,961" stroke="blue" stroke-width="2" />
<path d="M2071,799 L4688,1508" stroke="blue" stroke-width="2" />
<path d="M5058,188 L3141,1766" stroke="blue" stroke-width="2" />
<path d="M4786,1263 L4036,1604" stroke="blue" stroke-width="2" />
<path d="M4681,395 L1960,738" stroke="blue" stroke-width="2" />
<path d="M600,1759 L3568,2049" stroke="blue" stroke-width="2" />
<path d="M477,1741 L703,517" stroke="blue" stroke-width="2" />
<path d="M4619,1261 L1413,952" stroke="blue" stroke-width="2" />
<path d="M4382,1479 L1894,1007" stroke="blue" stroke-width="2" />
<path d="M4272,1430 L950,438" stroke="blue" stroke-width="2" />
<path d="M3203,1341 L1944,1060" stroke="blue" stroke-width="2" />
<path d="M3241,685 L3572,1140" stroke="blue" stroke-width="2" />
<path d="M4010,1478 L1676,733" stroke="blue" stroke-width="2" />
<path d="M0,0 L5332,0" stroke="red" stroke-width="10" />
<path d="M5332,0 L5332,2079" stroke="red" stroke-width="10" />
<path d="M0,2079 L5332,2079" stroke="red" stroke-width="10" />
<path d="M0,2079 L0,0" stroke="red" stroke-width="10" />
</svg>