<?xml version="1.0" encoding="UTF-8"?>
<svg xmlns="http://www.w3.org/2000/svg" xmlns:xlink="http://www.w3.org/1999/xlink"
     width="10000" height="10000" viewBox="0 0 10000 10000">
<defs>
</defs>
<path d="M1469,9489 L2263,1951" stroke="blue" stroke-width="2" />
<path d="M604,6869 L894,8298" stroke="blue" stroke-width="2" />
<path d="M549,3890 L52,8363" stroke="blue" stroke-width="2" />
<path d="M1884,8124 L1301,5994" stroke="blue" stroke-width="2" />
<path d="M609,2542 L25,1899" stroke="blue" stroke-width="2" />
<path d="M34,9401 L1286,6080" stroke="blue" stroke-width="2" />
<path d="M540,1895 L1120,6121" stroke="blue" stroke-width="2" />
<path d="M776,6732 L2193,4896" stroke="blue" stroke-width="2" />
<path d="M176,2800 L1276,6114" stroke="blue" stroke-width="2" />
<path d="M2122,4439 L1199,906" stroke="blue" stroke-width="2" />
<path d="M404,6396 L2243,8036" stroke="blue" stroke-width="2" />
<path d="M1198,1404 L819,6079" stroke="blue" stroke-width="2" />
<path d="M2012,5658 L2197,5384" stroke="blue" stroke-width="2" />
<path d="M1490,7232 L2240,1105" stroke="blue" stroke-width="2" />
<path d="M1860,6324 L1545,2825" stroke="blue" stroke-width="2" />
<path d="M1394,5242 L2011,9586" stroke="blue" stroke-width="2" />
<path d="M1340,8331 L700,8331" stroke="blue" stroke-width="2" />
<path d="M1826,8440 L23,7764" stroke="blue" stroke-width="2" />
<path d="M234,6517 L2041,795" stroke="blue" stroke-width="2" />
<path d="M2139,2158 L693,9091" stroke="blue" stroke-width="2" />
<path d="M694,6669 L142,609" stroke="blue" stroke-width="2" />
<path d="M2074,921 L2033,9100" stroke="blue" stroke-width="2" />
<path d="M1818,8864 L2281,4862" stroke="blue" stroke-width="2" />
<path d="M659,7971 L178,957" stroke="blue" stroke-width="2" />
<path d="M291,4763 L299,2828" stroke="blue" stroke-width="2" />
<path d="M326,9724 L2086,9395" stroke="blue" stroke-width="2" />
<path d="M911,1274 L558,5821" stroke="blue" stroke-width="2" />
<path d="M1810,4867 L843,8347" stroke="blue" stroke-width="2" />
<path d="M1417,5771 L455,7875" stroke="blue" stroke-width="2" />
<path d="M191,4242 L246,2679" stroke="blue" stroke-width="2" />
<path d="M88,4060 L1880,5889" stroke="blue" stroke-width="2" />
<path d="M987,2186 L446,9198" stroke="blue" stroke-width="2" />
<path d="M1808,6796 L1215,2996" stroke="blue" stroke-width="2" />
<path d="M1398,8222 L133,5452" stroke="blue" stroke-width="2" />
<path d="M1828,2577 L1225,1250" stroke="blue" stroke-width="2" />
<path d="M305,4705 L1448,8970" stroke="blue" stroke-width="2" />
<path d="M1117,5887 L817,1663" stroke="blue" stroke-width="2" />
<path d="M999,7063 L824,3928" stroke="blue" stroke-width="2" />
<path d="M2031,432 L1260,7948" stroke="blue" stroke-width="2" />
<path d="M2265,1076 L1196,1640" stroke="blue" stroke-width="2" />
<path d="M1444,4898 L73,8967" stroke="blue" stroke-width="2" />
<path d="M236,9045 L228,5827" stroke="blue" stroke-width="2" />
<path d="M1456,6221 L947,7802" stroke="blue" stroke-width="2" />
<path d="M1116,7576 L1600,726" stroke="blue" stroke-width="2" />
<path d="M1547,5082 L865,4674" stroke="blue" stroke-width="2" />
<path d="M636,4320 L344,5358" stroke="blue" stroke-width="2" />
<path d="M40,4569 L806,5809" stroke="blue" stroke-width="2" />
<path d="M319,7505 L312,9517" stroke="blue" stroke-width="2" />
<path d="M1370,9727 L551,6080" stroke="blue" stroke-width="2" />
<path d="M1045,2543 L1262,9047" stroke="blue" stroke-width="2" />
<path d="M1220,7073 L2090,7929" stroke="blue" stroke-width="2" />
<path d="M567,364 L118,3990" stroke="blue" stroke-width="2" />
<path d="M1576,4018 L2275,827" stroke="blue" stroke-width="2" />
<path d="M973,1915 L1371,8896" stroke="blue" stroke-width="2" />
<path d="M2109,1727 L2191,8070" stroke="blue" stroke-width="2" />
<path d="M1611,6696 L2076,2516" stroke="blue" stroke-width="2" />
<path d="M134,746 L1906,2261" stroke="blue" stroke-width="2" />
<path d="M249,2357 L550,8168" stroke="blue" stroke-width="2" />
<path d="M174,9720 L45,7712" stroke="blue" stroke-width="2" />
<path d="M1292,3800 L1560,400" stroke="blue" stroke-width="2" />
<path d="M49,8104 L1194,7813" stroke="blue" stroke-width="2" />
<path d="M1693,9525 L778,7393" stroke="blue" stroke-width="2" />
<path d="M2183,2171 L615,8670" stroke="blue" stroke-width="2" />
<path d="M310,5437 L954,5359" stroke="blue" stroke-width="2" />
<path d="M592,5403 L595,3394" stroke="blue" stroke-width="2" />
<path d="M1592,6110 L1019,320" stroke="blue" stroke-width="2" />
<path d="M24,5598 L303,4913" stroke="blue" stroke-width="2" />
<path d="M1786,7326 L819,1321" stroke="blue" stroke-width="2" />
<path d="M1077,2962 L218,8581" stroke="blue" stroke-width="2" />
<path d="M1066,2917 L762,8932" stroke="blue" stroke-width="2" />
<path d="M1849,5582 L302,8559" stroke="blue" stroke-width="2" />
<path d="M827,6952 L363,48" stroke="blue" stroke-width="2" />
<path d="M1454,6101 L2286,2118" stroke="blue" stroke-width="2" />
<path d="M2240,7167 L1111,8751" stroke="blue" stroke-width="2" />
<path d="M2028,1764 L637,5991" stroke="blue" stroke-width="2" />
<path d="M1517,2133 L1474,5803" stroke="blue" stroke-width="2" />
<path d="M1709,3844 L1214,6161" stroke="blue" stroke-width="2" />
<path d="M1087,4998 L714,9216" stroke="blue" stroke-width="2" />
<path d="M923,7522 L1033,1469" stroke="blue" stroke-width="2" />
<path d="M1302,3215 L349,5421" stroke="blue" stroke-width="2" />
<path d="M962,3568 L946,569" stroke="blue" stroke-width="2" />
<path d="M532,975 L1959,2073" stroke="blue" stroke-width="2" />
<path d="M1672,1952 L1985,8242" stroke="blue" stroke-width="2" />
<path d="M782,8446 L775,5319" stroke="blue" stroke-width="2" />
<path d="M1381,9813 L1102,6976" stroke="blue" stroke-width="2" />
<path d="M1589,1387 L237,5225" stroke="blue" stroke-width="2" />
<path d="M2254,4154 L739,4059" stroke="blue" stroke-width="2" />
<path d="M1906,6289 L1700,2420" stroke="blue" stroke-width="2" />
<path d="M817,2553 L861,7783" stroke="blue" stroke-width="2" />
<path d="M484,5022 L1712,4683" stroke="blue" stroke-width="2" />
<path d="M1361,9821 L1042,2257" stroke="blue" stroke-width="2" />
<path d="M1909,5769 L1016,5034" stroke="blue" stroke-width="2" />
<path d="M1025,1990 L1325,7989" stroke="blue" stroke-width="2" />
<path d="M772,4946 L1178,8022" stroke="blue" stroke-width="2" />
<path d="M1794,8351 L803,644" stroke="blue" stroke-width="2" />
<path d="M1732,3249 L698,6220" stroke="blue" stroke-width="2" />
<path d="M1538,8502 L463,8873" stroke="blue" stroke-width="2" />
<path d="M481,324 L882,7708" stroke="blue" stroke-width="2" />
<path d="M1566,7439 L1392,3891" stroke="blue" stroke-width="2" />
<path d="M2212,451 L2179,3748" stroke="blue" stroke-width="2" />
<path d="M809,6974 L1374,8623" stroke="blue" stroke-width="2" />
<path d="M848,5685 L386,5314" stroke="blue" stroke-width="2" />
<path d="M1558,9562 L425,8040" stroke="blue" stroke-width="2" />
<path d="M1784,8685 L719,9480" stroke="blue" stroke-width="2" />
<path d="M2059,3732 L1250,1207" stroke="blue" stroke-width="2" />
<path d="M1661,3739 L178,3928" stroke="blue" stroke-width="2" />
<path d="M1519,5805 L1019,7883" stroke="blue" stroke-width="2" />
<path d="M788,4122 L1767,5186" stroke="blue" stroke-width="2" />
<path d="M575,8769 L1829,1298" stroke="blue" stroke-width="2" />
<path d="M960,7331 L638,8633" stroke="blue" stroke-width="2" />
<path d="M449,8209 L2076,470" stroke="blue" stroke-width="2" />
<path d="M627,5981 L2061,4602" stroke="blue" stroke-width="2" />
<path d="M1742,6098 L1989,2045" stroke="blue" stroke-width="2" />
<path d="M1160,6591 L191,6890" stroke="blue" stroke-width="2" />
<path d="M1593,6369 L1896,7092" stroke="blue" stroke-width="2" />
<path d="M1613,8772 L2072,6503" stroke="blue" stroke-width="2" />
<path d="M2028,4600 L1781,8516" stroke="blue" stroke-width="2" />
<path d="M2171,6007 L2224,4759" stroke="blue" stroke-width="2" />
<path d="M1682,9669 L1378,8308" stroke="blue" stroke-width="2" />
<path d="M1751,8913 L2073,5425" stroke="blue" stroke-width="2" />
<path d="M1190,5802 L124,7146" stroke="blue" stroke-width="2" />
<path d="M622,6788 L339,6738" stroke="blue" stroke-width="2" />
<path d="M487,6809 L165,8668" stroke="blue" stroke-width="2" />
<path d="M804,1042 L999,2030" stroke="blue" stroke-width="2" />
<path d="M323,164 L1237,630" stroke="blue" stroke-width="2" />
<path d="M505,5356 L2046,6671" stroke="blue" stroke-width="2" />
<path d="M2057,4765 L387,677" stroke="blue" stroke-width="2" />
<path d="M1485,1346 L2253,184" stroke="blue" stroke-width="2" />
<path d="M2015,1644 L1431,4734" stroke="blue" stroke-width="2" />
<path d="M1580,2169 L265,505" stroke="blue" stroke-width="2" />
<path d="M1850,8167 L1525,16" stroke="blue" stroke-width="2" />
<path d="M2069,68 L273,7461" stroke="blue" stroke-width="2" />
<path d="M538,8607 L1681,4619" stroke="blue" stroke-width="2" />
<path d="M125,8645 L787,327" stroke="blue" stroke-width="2" />
<path d="M1973,5677 L1721,7995" stroke="blue" stroke-width="2" />
<path d="M905,2704 L1748,3237" stroke="blue" stroke-width="2" />
<path d="M826,5534 L1995,9249" stroke="blue" stroke-width="2" />
<path d="M1758,827 L1587,4838" stroke="blue" stroke-width="2" />
<path d="M2186,5405 L2011,3446" stroke="blue" stroke-width="2" />
<path d="M749,6459 L180,5285" stroke="blue" stroke-width="2" />
<path d="M694,8328 L1802,9451" stroke="blue" stroke-width="2" />
<path d="M2252,7739 L1891,1684" stroke="blue" stroke-width="2" />
<path d="M446,7849 L1119,5144" stroke="blue" stroke-width="2" />
<path d="M1580,7237 L2265,2578" stroke="blue" stroke-width="2" />
<path d="M578,2434 L1832,6651" stroke="blue" stroke-width="2" />
<path d="M1409,6880 L47,5930" stroke="blue" stroke-width="2" />
<path d="M1471,4120 L1577,8231" stroke="blue" stroke-width="2" />
<path d="M55,6404 L15,5609" stroke="blue" stroke-width="2" />
<path d="M1994,6515 L1026,1444" stroke="blue" stroke-width="2" />
<path d="M351,2697 L98,9234" stroke="blue" stroke-width="2" />
<path d="M1305,8883 L2068,1062" stroke="blue" stroke-width="2" />
<path d="M1733,7372 L1775,5481" stroke="blue" stroke-width="2" />
<path d="M1290,70 L1924,4372" stroke="blue" stroke-width="2" />
<path d="M1885,1295 L1646,8307" stroke="blue" stroke-width="2" />
<path d="M2213,3778 L821,2412" stroke="blue" stroke-width="2" />
<path d="M113,8181 L1521,7539" stroke="blue" stroke-width="2" />
<path d="M195,879 L705,198" stroke="blue" stroke-width="2" />
<path d="M1585,213 L563,2089" stroke="blue" stroke-width="2" />
<path d="M795,8888 L297,6231" stroke="blue" stroke-width="2" />
<path d="M450,901 L1909,7413" stroke="blue" stroke-width="2" />
<path d="M958,8104 L435,1626" stroke="blue" stroke-width="2" />
<path d="M2130,7083 L606,3714" stroke="blue" stroke-width="2" />
<path d="M1804,446 L189,4292" stroke="blue" stroke-width="2" />
<path d="M2112,3701 L1369,1308" stroke="blue" stroke-width="2" />
<path d="M1967,9460 L1822,3565" stroke="blue" stroke-width="2" />
<path d="M133,9153 L1204,5100" stroke="blue" stroke-width="2" />
<path d="M1969,6466 L2191,4154" stroke="blue" stroke-width="2" />
<path d="M1976,5901 L70,526" stroke="blue" stroke-width="2" />
<path d="M1675,8746 L1755,2722" stroke="blue" stroke-width="2" />
<path d="M1104,7350 L921,6207" stroke="blue" stroke-width="2" />
<path d="M179,4522 L1430,7264" stroke="blue" stroke-width="2" />
<path d="M71,1978 L333,5631" stroke="blue" stroke-width="2" />
<path d="M42,7056 L2159,1609" stroke="blue" stroke-width="2" />
<path d="M1492,6153 L119,1978" stroke="blue" stroke-width="2" />
<path d="M1565,8424 L1302,6311" stroke="blue" stroke-width="2" />
<path d="M212,5868 L866,7200" stroke="blue" stroke-width="2" />
<path d="M2288,4284 L207,2879" stroke="blue" stroke-width="2" />
<path d="M447,6909 L1257,2097" stroke="blue" stroke-width="2" />
<path d="M2124,7831 L1195,9412" stroke="blue" stroke-width="2" />
<path d="M1364,3333 L1577,3599" stroke="blue" stroke-width="2" />
<path d="M1181,6589 L1053,7231" stroke="blue" stroke-width="2" />
<path d="M292,8750 L1091,381" stroke="blue" stroke-width="2" />
<path d="M554,3745 L1229,6969" stroke="blue" stroke-width="2" />
<path d="M290,5254 L475,2936" stroke="blue" stroke-width="2" />
<path d="M2005,1423 L114,4189" stroke="blue" stroke-width="2" />
<path d="M1643,3935 L1510,5106" stroke="blue" stroke-width="2" />
<path d="M1376,7696 L1850,8107" stroke="blue" stroke-width="2" />
<path d="M359,3619 L1252,6357" stroke="blue" stroke-width="2" />
<path d="M42,8597 L2210,8852" stroke="blue" stroke-width="2" />
<path d="M75,7423 L543,8231" stroke="blue" stroke-width="2" />
<path d="M46,5502 L52,6111" stroke="blue" stroke-width="2" />
<path d="M1558,5275 L1040,7375" stroke="blue" stroke-width="2" />
<path d="M1543,3588 L1746,5578" stroke="blue" stroke-width="2" />
<path d="M2159,5971 L1824,3307" stroke="blue" stroke-width="2" />
<path d="M176,7785 L744,4086" stroke="blue" stroke-width="2" />
<path d="M1542,2492 L351,3933" stroke="blue" stroke-width="2" />
<path d="M1593,5387 L1462,5859" stroke="blue" stroke-width="2" />
<path d="M2242,9616 L890,7682" stroke="blue" stroke-width="2" />
<path d="M2233,8525 L2001,5876" stroke="blue" stroke-width="2" />
<path d="M812,4535 L1093,6461" stroke="blue" stroke-width="2" />
<path d="M1206,8991 L1333,5712" stroke="blue" stroke-width="2" />
<path d="M1122,2407 L1565,1990" stroke="blue" stroke-width="2" />
<path d="M1044,8481 L2300,1987" stroke="blue" stroke-width="2" />
<path d="M650,1464 L235,9293" stroke="blue" stroke-width="2" />
<path d="M2205,2291 L86,2489" stroke="blue" stroke-width="2" />
<path d="M214,7167 L157,7263" stroke="blue" stroke-width="2" />
<path d="M22,146 L1584,5603" stroke="blue" stroke-width="2" />
<path d="M701,5538 L1033,6257" stroke="blue" stroke-width="2" />
<path d="M2084,4570 L1825,8059" stroke="blue" stroke-width="2" />
<path d="M211,9728 L1574,3313" stroke="blue" stroke-width="2" />
<path d="M2093,2009 L1718,1838" stroke="blue" stroke-width="2" />
<path d="M857,1417 L431,446" stroke="blue" stroke-width="2" />
<path d="M148,2472 L940,9611" stroke="blue" stroke-width="2" />
<path d="M24,2901 L1098,1874" stroke="blue" stroke-width="2" />
<path d="M2024,8184 L337,9315" stroke="blue" stroke-width="2" />
<path d="M1717,1450 L634,2816" stroke="blue" stroke-width="2" />
<path d="M789,8866 L290,3429" stroke="blue" stroke-width="2" />
<path d="M192,6867 L599,5094" stroke="blue" stroke-width="2" />
<path d="M131,8204 L932,5108" stroke="blue" stroke-width="2" />
<path d="M35,7548 L1901,5254" stroke="blue" stroke-width="2" />
<path d="M1011,9649 L559,4927" stroke="blue" stroke-width="2" />
<path d="M1423,1926 L1344,2623" stroke="blue" stroke-width="2" />
<path d="M812,4573 L1783,1707" stroke="blue" stroke-width="2" />
<path d="M448,2364 L1458,8170" stroke="blue" stroke-width="2" />
<path d="M1633,4990 L407,9779" stroke="blue" stroke-width="2" />
<path d="M815,6738 L1511,4352" stroke="blue" stroke-width="2" />
<path d="M2114,5277 L210,8847" stroke="blue" stroke-width="2" />
<path d="M472,7672 L234,1287" stroke="blue" stroke-width="2" />
<path d="M649,7816 L1019,6235" stroke="blue" stroke-width="2" />
<path d="M636,5152 L25,502" stroke="blue" stroke-width="2" />
<path d="M1901,7670 L1953,1775" stroke="blue" stroke-width="2" />
<path d="M448,7016 L1400,3166" stroke="blue" stroke-width="2" />
<path d="M663,4560 L1411,1415" stroke="blue" stroke-width="2" />
<path d="M845,213 L150,8791" stroke="blue" stroke-width="2" />
<path d="M1506,7751 L2181,4089" stroke="blue" stroke-width="2" />
<path d="M1475,5238 L1618,1388" stroke="blue" stroke-width="2" />
<path d="M1553,6944 L1628,8662" stroke="blue" stroke-width="2" />
<path d="M1549,6536 L1249,7846" stroke="blue" stroke-width="2" />
<path d="M622,7296 L2297,3420" stroke="blue" stroke-width="2" />
<path d="M226,9002 L895,5546" stroke="blue" stroke-width="2" />
<path d="M182,9511 L894,9750" stroke="blue" stroke-width="2" />
<path d="M217,106 L558,3176" stroke="blue" stroke-width="2" />
<path d="M206,5176 L557,1891" stroke="blue" stroke-width="2" />
<path d="M1388,2305 L850,1354" stroke="blue" stroke-width="2" />
<path d="M576,9744 L345,5304" stroke="blue" stroke-width="2" />
<path d="M945,3588 L1023,8761" stroke="blue" stroke-width="2" />
<path d="M241,2467 L1992,3126" stroke="blue" stroke-width="2" />
<path d="M693,2272 L2275,287" stroke="blue" stroke-width="2" />
<path d="M1503,7025 L533,1894" stroke="blue" stroke-width="2" />
<path d="M167,2221 L742,4047" stroke="blue" stroke-width="2" />
<path d="M475,6598 L1607,2150" stroke="blue" stroke-width="2" />
<path d="M710,49 L123,9503" stroke="blue" stroke-width="2" />
<path d="M1173,4139 L945,7919" stroke="blue" stroke-width="2" />
<path d="M1280,3609 L1603,3067" stroke="blue" stroke-width="2" />
<path d="M1269,347 L1812,4306" stroke="blue" stroke-width="2" />
<path d="M2115,1748 L1099,5829" stroke="blue" stroke-width="2" />
<path d="M1280,5926 L1688,1322" stroke="blue" stroke-width="2" />
<path d="M2251,10 L1968,9029" stroke="blue" stroke-width="2" />
<path d="M71,179 L1783,1108" stroke="blue" stroke-width="2" />
<path d="M723,1350 L174,8947" stroke="blue" stroke-width="2" />
<path d="M370,1023 L1407,9002" stroke="blue" stroke-width="2" />
<path d="M833,7484 L1122,2068" stroke="blue" stroke-width="2" />
<path d="M422,2876 L1526,7178" stroke="blue" stroke-width="2" />
<path d="M2181,8108 L1683,8761" stroke="blue" stroke-width="2" />
<path d="M1515,2319 L1000,4404" stroke="blue" stroke-width="2" />
<path d="M1833,1895 L261,5116" stroke="blue" stroke-width="2" />
<path d="M2080,7262 L737,2432" stroke="blue" stroke-width="2" />
<path d="M1640,6559 L1486,6541" stroke="blue" stroke-width="2" />
<path d="M1608,9323 L543,1257" stroke="blue" stroke-width="2" />
<path d="M258,1329 L2210,8494" stroke="blue" stroke-width="2" />
<path d="M602,6709 L428,8369" stroke="blue" stroke-width="2" />
<path d="M2009,549 L1313,1066" stroke="blue" stroke-width="2" />
<path d="M116,7922 L1463,4887" stroke="blue" stroke-width="2" />
<path d="M622,4187 L135,5945" stroke="blue" stroke-width="2" />
<path d="M265,8756 L348,3012" stroke="blue" stroke-width="2" />
<path d="M1571,5941 L754,5786" stroke="blue" stroke-width="2" />
<path d="M1878,781 L1930,5926" stroke="blue" stroke-width="2" />
<path d="M816,3901 L320,5683" stroke="blue" stroke-width="2" />
<path d="M1105,160 L116,7051" stroke="blue" stroke-width="2" />
<path d="M561,9074 L2200,2754" stroke="blue" stroke-width="2" />
<path d="M2167,5968 L1206,1927" stroke="blue" stroke-width="2" />
<path d="M1637,3399 L1954,6693" stroke="blue" stroke-width="2" />
<path d="M2182,7398 L274,4814" stroke="blue" stroke-width="2" />
<path d="M450,2502 L333,955" stroke="blue" stroke-width="2" />
<path d="M947,4215 L1342,280" stroke="blue" stroke-width="2" />
<path d="M289,805 L991,8638" stroke="blue" stroke-width="2" />
<path d="M2107,555 L777,1904" stroke="blue" stroke-width="2" />
<path d="M484,5124 L1012,5363" stroke="blue" stroke-width="2" />
<path d="M1593,6832 L1843,3984" stroke="blue" stroke-width="2" />
<path d="M533,316 L275,2270" stroke="blue" stroke-width="2" />
<path d="M1762,1216 L674,5048" stroke="blue" stroke-width="2" />
<path d="M1637,8334 L2078,4235" stroke="blue" stroke-width="2" />
<path d="M1912,6189 L2129,5185" stroke="blue" stroke-width="2" />
<path d="M1226,6404 L485,9743" stroke="blue" stroke-width="2" />
<path d="M411,8587 L1657,5805" stroke="blue" stroke-width="2" />
<path d="M2018,2326 L86,3675" stroke="blue" stroke-width="2" />
<path d="M1473,2316 L801,3504" stroke="blue" stroke-width="2" />
<path d="M1586,3570 L1821,7813" stroke="blue" stroke-width="2" />
<path d="M1140,8393 L345,9069" stroke="blue" stroke-width="2" />
<path d="M1538,3276 L286,2849" stroke="blue" stroke-width="2" />
<path d="M1210,5892 L1871,8836" stroke="blue" stroke-width="2" />
<path d="M171,6284 L1812,3469" stroke="blue" stroke-width="2" />
<path d="M576,7262 L55,2767" stroke="blue" stroke-width="2" />
<path d="M1266,2615 L131,3001" stroke="blue" stroke-width="2" />
<path d="M1995,6403 L216,2051" stroke="blue" stroke-width="2" />
<path d="M339,3022 L538,2845" stroke="blue" stroke-width="2" />
<path d="M2151,4863 L1966,9432" stroke="blue" stroke-width="2" />
<path d="M1752,241 L2130,2405" stroke="blue" stroke-width="2" />
<path d="M1309,8134 L1945,8845" stroke="blue" stroke-width="2" />
<path d="M1038,456 L571,6704" stroke="blue" stroke-width="2" />
<path d="M1609,1652 L168,632" stroke="blue" stroke-width="2" />
<path d="M434,1618 L975,7749" stroke="blue" stroke-width="2" />
<path d="M105,3751 L1195,9697" stroke="blue" stroke-width="2" />
<path d="M433,9557 L278,1863" stroke="blue" stroke-width="2" />
<path d="M595,289 L2023,1535" stroke="blue" stroke-width="2" />
<path d="M1887,2536 L310,2303" stroke="blue" stroke-width="2" />
<path d="M390,697 L1738,999" stroke="blue" stroke-width="2" />
<path d="M531,1032 L474,441" stroke="blue" stroke-width="2" />
<path d="M736,4892 L2166,1575" stroke="blue" stroke-width="2" />
<path d="M1030,2595 L898,5475" stroke="blue" stroke-width="2" />
<path d="M441,7548 L38,5677" stroke="blue" stroke-width="2" />
<path d="M1895,1365 L471,230" stroke="blue" stroke-width="2" />
<path d="M1285,7468 L330,1741" stroke="blue" stroke-width="2" />
<path d="M2056,236 L220,4545" stroke="blue" stroke-width="2" />
<path d="M1149,6732 L232,528" stroke="blue" stroke-width="2" />
<path d="M1464,5781 L1657,9303" stroke="blue" stroke-width="2" />
<path d="M2182,1878 L1800,3300" stroke="blue" stroke-width="2" />
<path d="M782,8231 L796,1409" stroke="blue" stroke-width="2" />
<path d="M863,8004 L1453,9383" stroke="blue" stroke-width="2" />
<path d="M520,9089 L733,2975" stroke="blue" stroke-width="2" />
<path d="M234,9029 L1700,7905" stroke="blue" stroke-width="2" />
<path d="M2150,2822 L1328,650" stroke="blue" stroke-width="2" />
<path d="M849,8974 L580,9073" stroke="blue" stroke-width="2" />
<path d="M1289,6644 L447,9689" stroke="blue" stroke-width="2" />
<path d="M1391,9543 L958,3976" stroke="blue" stroke-width="2" />
<path d="M1392,7595 L620,3871" stroke="blue" stroke-width="2" />
<path d="M1842,2122 L829,4172" stroke="blue" stroke-width="2" />
<path d="M661,4294 L786,1608" stroke="blue" stroke-width="2" />
<path d="M1828,7786 L413,8707" stroke="blue" stroke-width="2" />
<path d="M144,5167 L1030,317" stroke="blue" stroke-width="2" />
<path d="M131,5426 L653,5106" stroke="blue" stroke-width="2" />
<path d="M1463,3223 L1674,2708" stroke="blue" stroke-width="2" />
<path d="M80,5823 L879,4038" stroke="blue" stroke-width="2" />
<path d="M74,1095 L2103,7692" stroke="blue" stroke-width="2" />
<path d="M1442,6332 L1377,8715" stroke="blue" stroke-width="2" />
<path d="M1474,9366 L933,5261" stroke="blue" stroke-width="2" />
<path d="M2131,5392 L63,3786" stroke="blue" stroke-width="2" />
<path d="M1664,5611 L1948,473" stroke="blue" stroke-width="2" />
<path d="M390,9248 L89,3400" stroke="blue" stroke-width="2" />
<path d="M1436,3288 L1382,6085" stroke="blue" stroke-width="2" />
<path d="M1449,4295 L327,6226" stroke="blue" stroke-width="2" />
<path d="M67,6626 L2277,8688" stroke="blue" stroke-width="2" />
<path d="M1560,2486 L211,2651" stroke="blue" stroke-width="2" />
<path d="M1804,1060 L286,7553" stroke="blue" stroke-width="2" />
<path d="M2071,607 L1238,2573" stroke="blue" stroke-width="2" />
<path d="M2164,1250 L809,4728" stroke="blue" stroke-width="2" />
<path d="M422,7751 L1102,483" stroke="blue" stroke-width="2" />
<path d="M85,5492 L224,8065" stroke="blue" stroke-width="2" />
<path d="M1398,6730 L1476,5819" stroke="blue" stroke-width="2" />
<path d="M2180,9819 L2182,5275" stroke="blue" stroke-width="2" />
<path d="M497,1913 L937,62" stroke="blue" stroke-width="2" />
<path d="M1304,6852 L713,4233" stroke="blue" stroke-width="2" />
<path d="M533,2185 L1114,3520" stroke="blue" stroke-width="2" />
<path d="M1302,4776 L1143,7480" stroke="blue" stroke-width="2" />
<path d="M2243,8367 L1493,2032" stroke="blue" stroke-width="2" />
<path d="M2087,7088 L662,9084" stroke="blue" stroke-width="2" />
<path d="M1368,7263 L2230,6060" stroke="blue" stroke-width="2" />
<path d="M847,8223 L1606,1965" stroke="blue" stroke-width="2" />
<path d="M264,6552 L2128,1345" stroke="blue" stroke-width="2" />
<path d="M733,9102 L21,7039" stroke="blue" stroke-width="2" />
<path d="M1468,5376 L2145,8512" stroke="blue" stroke-width="2" />
<path d="M1801,9007 L2098,2529" stroke="blue" stroke-width="2" />
<path d="M2055,2932 L1782,5357" stroke="blue" stroke-width="2" />
<path d="M251,4957 L1572,7098" stroke="blue" stroke-width="2" />
<path d="M982,1244 L1079,5186" stroke="blue" stroke-width="2" />
<path d="M2130,2281 L995,5399" stroke="blue" stroke-width="2" />
<path d="M1114,3245 L308,6523" stroke="blue" stroke-width="2" />
<path d="M1366,9395 L2284,4890" stroke="blue" stroke-width="2" />
<path d="M1299,678 L1878,1817" stroke="blue" stroke-width="2" />
<path d="M564,3261 L785,6892" stroke="blue" stroke-width="2" />
<path d="M407,5709 L396,3214" stroke="blue" stroke-width="2" />
<path d="M66,1531 L1384,9739" stroke="blue" stroke-width="2" />
<path d="M689,7717 L942,1842" stroke="blue" stroke-width="2" />
<path d="M2256,112 L2194,4568" stroke="blue" stroke-width="2" />
<path d="M926,643 L465,4096" stroke="blue" stroke-width="2" />
<path d="M669,9200 L847,947" stroke="blue" stroke-width="2" />
<path d="M328,1099 L539,7712" stroke="blue" stroke-width="2" />
<path d="M296,4431 L335,348" stroke="blue" stroke-width="2" />
<path d="M820,8537 L1991,3390" stroke="blue" stroke-width="2" />
<path d="M852,6717 L1037,11" stroke="blue" stroke-width="2" />
<path d="M2075,6355 L1818,1352" stroke="blue" stroke-width="2" />
<path d="M54,4396 L570,4658" stroke="blue" stroke-width="2" />
<path d="M1121,7416 L271,1979" stroke="blue" stroke-width="2" />
<path d="M341,120 L1264,1888" stroke="blue" stroke-width="2" />
<path d="M735,6092 L1566,7962" stroke="blue" stroke-width="2" />
<path d="M1176,731 L1307,5665" stroke="blue" stroke-width="2" />
<path d="M756,1030 L2040,5222" stroke="blue" stroke-width="2" />
<path d="M1035,9305 L1203,6651" stroke="blue" stroke-width="2" />
<path d="M539,6546 L316,6297" stroke="blue" stroke-width="2" />
<path d="M1209,2995 L610,7829" stroke="blue" stroke-width="2" />
<path d="M1469,4064 L1102,7525" stroke="blue" stroke-width="2" />
<path d="M1304,967 L93,9253" stroke="blue" stroke-width="2" />
<path d="M1408,2071 L905,7597" stroke="blue" stroke-width="2" />
<path d="M746,3484 L1091,285" stroke="blue" stroke-width="2" />
<path d="M291,7786 L1271,240" stroke="blue" stroke-width="2" />
<path d="M722,6256 L2110,6807" stroke="blue" stroke-width="2" />
<path d="M1239,5127 L1919,5607" stroke="blue" stroke-width="2" />
<path d="M1851,3699 L1194,842" stroke="blue" stroke-width="2" />
<path d="M79,6998 L278,4762" stroke="blue" stroke-width="2" />
<path d="M1595,6930 L2039,6101" stroke="blue" stroke-width="2" />
<path d="M654,159 L150,6702" stroke="blue" stroke-width="2" />
<path d="M695,5582 L950,1686" stroke="blue" stroke-width="2" />
<path d="M1429,3461 L2170,2345" stroke="blue" stroke-width="2" />
<path d="M55,9709 L1446,9732" stroke="blue" stroke-width="2" />
<path d="M1908,8510 L2189,9512" stroke="blue" stroke-width="2" />
<path d="M995,8754 L1469,8008" stroke="blue" stroke-width="2" />
<path d="M2013,261 L856,4044" stroke="blue" stroke-width="2" />
<path d="M492,6487 L1905,703" stroke="blue" stroke-width="2" />
<path d="M2129,902 L1664,1789" stroke="blue" stroke-width="2" />
<path d="M34,9726 L1741,6227" stroke="blue" stroke-width="2" />
<path d="M1442,290 L224,2105" stroke="blue" stroke-width="2" />
<path d="M2087,6434 L1227,4828" stroke="blue" stroke-width="2" />
<path d="M296,2268 L2121,3880" stroke="blue" stroke-width="2" />
<path d="M375,4631 L77,5346" stroke="blue" stroke-width="2" />
<path d="M2198,6541 L69,423" stroke="blue" stroke-width="2" />
<path d="M1701,1650 L1028,4926" stroke="blue" stroke-width="2" />
<path d="M988,992 L245,9059" stroke="blue" stroke-width="2" />
<path d="M2161,1236 L901,8578" stroke="blue" stroke-width="2" />
<path d="M737,1988 L1664,4474" stroke="blue" stroke-width="2" />
<path d="M453,787 L571,4577" stroke="blue" stroke-width="2" />
<path d="M1936,2512 L258,1196" stroke="blue" stroke-width="2" />
<path d="M2199,9191 L1984,6873" stroke="blue" stroke-width="2" />
<path d="M909,9485 L2276,4001" stroke="blue" stroke-width="2" />
<path d="M264,7915 L891,8135" stroke="blue" stroke-width="2" />
<path d="M664,8048 L626,4914" stroke="blue" stroke-width="2" />
<path d="M1899,9155 L1786,4146" stroke="blue" stroke-width="2" />
<path d="M966,2118 L1175,9690" stroke="blue" stroke-width="2" />
<path d="M1920,7712 L566,5444" stroke="blue" stroke-width="2" />
<path d="M1680,5068 L1733,815" stroke="blue" stroke-width="2" />
<path d="M2248,3446 L2160,5494" stroke="blue" stroke-width="2" />
<path d="M1373,3163 L178,9771" stroke="blue" stroke-width="2" />
<path d="M407,1851 L1238,449" stroke="blue" stroke-width="2" />
<path d="M1015,5729 L1858,659" stroke="blue" stroke-width="2" />
<path d="M957,3224 L30,9290" stroke="blue" stroke-width="2" />
<path d="M1019,8681 L1636,2353" stroke="blue" stroke-width="2" />
<path d="M2252,3291 L410,5732" stroke="blue" stroke-width="2" />
<path d="M1173,672 L1611,1249" stroke="blue" stroke-width="2" />
<path d="M153,2883 L1751,3709" stroke="blue" stroke-width="2" />
<path d="M494,7 L81,8322" stroke="blue" stroke-width="2" />
<path d="M2239,7286 L716,3905" stroke="blue" stroke-width="2" />
<path d="M1768,3229 L1602,8783" stroke="blue" stroke-width="2" />
<path d="M110,5292 L547,3234" stroke="blue" stroke-width="2" />
<path d="M1173,3753 L1979,2016" stroke="blue" stroke-width="2" />
<path d="M2302,739 L1321,722" stroke="blue" stroke-width="2" />
<path d="M1135,623 L1170,5656" stroke="blue" stroke-width="2" />
<path d="M1103,2582 L1220,3820" stroke="blue" stroke-width="2" />
<path d="M1340,9646 L839,2653" stroke="blue" stroke-width="2" />
<path d="M1108,4089 L354,5403" stroke="blue" stroke-width="2" />
<path d="M1390,4684 L1366,9768" stroke="blue" stroke-width="2" />
<path d="M1774,3792 L968,2623" stroke="blue" stroke-width="2" />
<path d="M638,6067 L1787,4994" stroke="blue" stroke-width="2" />
<path d="M1285,3926 L1989,2950" stroke="blue" stroke-width="2" />
<path d="M87,878 L718,8217" stroke="blue" stroke-width="2" />
<path d="M134,246 L1724,1402" stroke="blue" stroke-width="2" />
<path d="M902,6792 L1750,3576" stroke="blue" stroke-width="2" />
<path d="M279,4696 L256,8065" stroke="blue" stroke-width="2" />
<path d="M2245,9311 L1985,4048" stroke="blue" stroke-width="2" />
<path d="M336,381 L378,8810" stroke="blue" stroke-width="2" />
<path d="M1385,3822 L1166,1544" stroke="blue" stroke-width="2" />
<path d="M731,876 L1068,4395" stroke="blue" stroke-width="2" />
<path d="M1851,4805 L444,6914" stroke="blue" stroke-width="2" />
<path d="M1151,6068 L1086,2966" stroke="blue" stroke-width="2" />
<path d="M882,2259 L1732,992" stroke="blue" stroke-width="2" />
<path d="M1964,5803 L1805,5215" stroke="blue" stroke-width="2" />
<path d="M2191,215 L1216,7584" stroke="blue" stroke-width="2" />
<path d="M566,4368 L1892,2551" stroke="blue" stroke-width="2" />
<path d="M984,598 L1186,6434" stroke="blue" stroke-width="2" />
<path d="M42,5069 L1454,2684" stroke="blue" stroke-width="2" />
<path d="M1712,7188 L2010,2366" stroke="blue" stroke-width="2" />
<path d="M1409,2068 L694,7364" stroke="blue" stroke-width="2" />
<path d="M1272,8510 L648,9027" stroke="blue" stroke-width="2" />
<path d="M816,1277 L1716,5874" stroke="blue" stroke-width="2" />
<path d="M199,7686 L1559,7161" stroke="blue" stroke-width="2" />
<path d="M1594,6911 L1623,3726" stroke="blue" stroke-width="2" />
<path d="M2246,8372 L1757,2267" stroke="blue" stroke-width="2" />
<path d="M2213,6941 L640,3208" stroke="blue" stroke-width="2" />
<path d="M2110,6694 L1333,7911" stroke="blue" stroke-width="2" />
<path d="M628,2338 L1281,5864" stroke="blue" stroke-width="2" />
<path d="M462,7334 L956,4485" stroke="blue" stroke-width="2" />
<path d="M1838,3959 L2136,2730" stroke="blue" stroke-width="2" />
<path d="M1521,2230 L1899,4461" stroke="blue" stroke-width="2" />
<path d="M953,7741 L1394,9437" stroke="blue" stroke-width="2" />
<path d="M435,6179 L117,4881" stroke="blue" stroke-width="2" />
<path d="M1227,3109 L860,3903" stroke="blue" stroke-width="2" />
<path d="M150,1984 L289,2290" stroke="blue" stroke-width="2" />
<path d="M2219,8320 L1466,743" stroke="blue" stroke-width="2" />
<path d="M633,3428 L1776,2746" stroke="blue" stroke-width="2" />
<path d="M299,4596 L280,1003" stroke="blue" stroke-width="2" />
<path d="M1788,5734 L1377,8851" stroke="blue" stroke-width="2" />
<path d="M1431,3652 L1993,7275" stroke="blue" stroke-width="2" />
<path d="M2256,6498 L1277,8439" stroke="blue" stroke-width="2" />
<path d="M42,7472 L2124,5167" stroke="blue" stroke-width="2" />
<path d="M1117,430 L1100,3300" stroke="blue" stroke-width="2" />
<path d="M300,7821 L1807,2894" stroke="blue" stroke-width="2" />
<path d="M2077,7141 L2091,499" stroke="blue" stroke-width="2" />
<path d="M2066,3154 L1774,4220" stroke="blue" stroke-width="2" />
<path d="M1640,9835 L1684,6518" stroke="blue" stroke-width="2" />
<path d="M2263,8256 L513,117" stroke="blue" stroke-width="2" />
<path d="M178,8285 L2000,439" stroke="blue" stroke-width="2" />
<path d="M1130,4323 L883,262" stroke="blue" stroke-width="2" />
<path d="M843,1669 L705,9296" stroke="blue" stroke-width="2" />
<path d="M1896,8655 L1886,5437" stroke="blue" stroke-width="2" />
<path d="M535,6005 L235,6444" stroke="blue" stroke-width="2" />
<path d="M2129,7968 L161,7491" stroke="blue" stroke-width="2" />
<path d="M1546,3254 L1,698" stroke="blue" stroke-width="2" />
<path d="M355,5271 L676,3916" stroke="blue" stroke-width="2" />
<path d="M612,2302 L894,8337" stroke="blue" stroke-width="2" />
<path d="M663,2790 L1069,2785" stroke="blue" stroke-width="2" />
<path d="M85,9716 L1054,1048" stroke="blue" stroke-width="2" />
<path d="M815,5294 L450,1633" stroke="blue" stroke-width="2" />
<path d="M1112,2503 L1623,4134" stroke="blue" stroke-width="2" />
<path d="M728,9281 L875,7374" stroke="blue" stroke-width="2" />
<path d="M1253,1555 L910,354" stroke="blue" stroke-width="2" />
<path d="M1162,451 L412,2876" stroke="blue" stroke-width="2" />
<path d="M648,713 L1845,1171" stroke="blue" stroke-width="2" />
<path d="M1923,5360 L331,8592" stroke="blue" stroke-width="2" />
<path d="M2255,6082 L202,1600" stroke="blue" stroke-width="2" />
<path d="M594,6090 L447,6008" stroke="blue" stroke-width="2" />
<path d="M1843,6698 L521,718" stroke="blue" stroke-width="2" />
<path d="M1422,3653 L1937,7163" stroke="blue" stroke-width="2" />
<path d="M546,6426 L1356,5893" stroke="blue" stroke-width="2" />
<path d="M1746,5876 L277,2913" stroke="blue" stroke-width="2" />
<path d="M1681,6086 L2166,668" stroke="blue" stroke-width="2" />
<path d="M1767,393 L1421,6454" stroke="blue" stroke-width="2" />
<path d="M279,809 L1145,2376" stroke="blue" stroke-width="2" />
<path d="M517,2164 L460,4465" stroke="blue" stroke-width="2" />
<path d="M2022,2115 L1022,3810" stroke="blue" stroke-width="2" />
<path d="M2128,2518 L342,7971" stroke="blue" stroke-width="2" />
<path d="M1024,6418 L1763,1133" stroke="blue" stroke-width="2" />
<path d="M231,1933 L734,552" stroke="blue" stroke-width="2" />
<path d="M74,2552 L744,7150" stroke="blue" stroke-width="2" />
<path d="M1431,4409 L826,1044" stroke="blue" stroke-width="2" />
<path d="M746,6962 L872,9766" stroke="blue" stroke-width="2" />
<path d="M422,964 L838,7590" stroke="blue" stroke-width="2" />
<path d="M119,6360 L1930,5885" stroke="blue" stroke-width="2" />
<path d="M2096,54 L1358,7981" stroke="blue" stroke-width="2" />
<path d="M602,9812 L1377,8490" stroke="blue" stroke-width="2" />
<path d="M1195,4915 L1324,939" stroke="blue" stroke-width="2" />
<path d="M1141,4545 L1906,6401" stroke="blue" stroke-width="2" />
<path d="M2258,91 L1155,2367" stroke="blue" stroke-width="2" />
<path d="M844,2582 L1275,2701" stroke="blue" stroke-width="2" />
<path d="M895,5855 L58,933" stroke="blue" stroke-width="2" />
<path d="M2278,347 L673,966" stroke="blue" stroke-width="2" />
<path d="M2113,7782 L207,9287" stroke="blue" stroke-width="2" />
<path d="M1245,5662 L198,5957" stroke="blue" stroke-width="2" />
<path d="M1047,8964 L1231,4663" stroke="blue" stroke-width="2" />
<path d="M93,7510 L612,3412" stroke="blue" stroke-width="2" />
<path d="M458,6266 L1353,2281" stroke="blue" stroke-width="2" />
<path d="M1187,7526 L1479,1118" stroke="blue" stroke-width="2" />
<path d="M190,2339 L1586,8576" stroke="blue" stroke-width="2" />
<path d="M26,7280 L1656,6151" stroke="blue" stroke-width="2" />
<path d="M1716,6397 L1320,362" stroke="blue" stroke-width="2" />
<path d="M1420,7499 L1601,8146" stroke="blue" stroke-width="2" />
<path d="M666,9484 L971,7258" stroke="blue" stroke-width="2" />
<path d="M1114,7838 L1347,4833" stroke="blue" stroke-width="2" />
<path d="M1191,655 L1463,1632" stroke="blue" stroke-width="2" />
<path d="M1860,3925 L831,1223" stroke="blue" stroke-width="2" />
<path d="M295,1142 L1068,3669" stroke="blue" stroke-width="2" />
<path d="M1427,9842 L1573,4918" stroke="blue" stroke-width="2" />
<path d="M1931,2026 L803,4174" stroke="blue" stroke-width="2" />
<path d="M509,7547 L780,2215" stroke="blue" stroke-width="2" />
<path d="M1021,9543 L388,5682" stroke="blue" stroke-width="2" />
<path d="M2258,3397 L26,7709" stroke="blue" stroke-width="2" />
<path d="M1743,1731 L2027,5890" stroke="blue" stroke-width="2" />
<path d="M941,3006 L1459,4534" stroke="blue" stroke-width="2" />
<path d="M584,7468 L757,4540" stroke="blue" stroke-width="2" />
<path d="M0,0 L2303,0" stroke="red" stroke-width="10" />
<path d="M2303,0 L2303,9846" stroke="red" stroke-width="10" />
<path d="M0,9846 L2303,9846" stroke="red" stroke-width="10" />
<path d="M0,9846 L0,0" stroke="red" stroke-width="10" />
</svg>