<?xml version="1.0" encoding="UTF-8"?>
<svg xmlns="http://www.w3.org/2000/svg" xmlns:xlink="http://www.w3.org/1999/xlink"
     width="10000" height="10000" viewBox="0 0 10000 10000">
<defs>
</defs>
<path d="M1645,6434 L21,6991" stroke="blue" stroke-width="2" />
<path d="M1478,5950 L2299,5211" stroke="blue" stroke-width="2" />
<path d="M2718,5662 L2846,7142" stroke="blue" stroke-width="2" />
<path d="M2682,1819 L5704,2627" stroke="blue" stroke-width="2" />
<path d="M2041,1969 L5823,3007" stroke="blue" stroke-width="2" />
<path d="M4028,6993 L3384,3889" stroke="blue" stroke-width="2" />
<path d="M3975,5867 L1500,1379" stroke="blue" stroke-width="2" />
<path d="M2324,4265 L6151,369" stroke="blue" stroke-width="2" />
<path d="M385,6524 L4843,2899" stroke="blue" stroke-width="2" />
<path d="M5287,6733 L1483,2561" stroke="blue" stroke-width="2" />
<path d="M6208,1181 L4195,6022" stroke="blue" stroke-width="2" />
<path d="M3271,586 L2817,1366" stroke="blue" stroke-width="2" />
<path d="M1749,3935 L3965,2803" stroke="blue" stroke-width="2" />
<path d="M2019,636 L793,3831" stroke="blue" stroke-width="2" />
<path d="M2400,1747 L2152,2106" stroke="blue" stroke-width="2" />
<path d="M3217,3903 L3345,5861" stroke="blue" stroke-width="2" />
<path d="M2856,4894 L625,3526" stroke="blue" stroke-width="2" />
<path d="M5002,725 L5493,5658" stroke="blue" stroke-width="2" />
<path d="M393,2394 L4098,6755" stroke="blue" stroke-width="2" />
<path d="M2407,4609 L3335,1466" stroke="blue" stroke-width="2" />
<path d="M2994,3727 L3537,2727" stroke="blue" stroke-width="2" />
<path d="M273,3932 L781,3119" stroke="blue" stroke-width="2" />
<path d="M5079,5436 L2919,4526" stroke="blue" stroke-width="2" />
<path d="M3934,3690 L5884,1064" stroke="blue" stroke-width="2" />
<path d="M3628,2885 L1540,6827" stroke="blue" stroke-width="2" />
<path d="M2354,4621 L5498,698" stroke="blue" stroke-width="2" />
<path d="M4989,5921 L56,6615" stroke="blue" stroke-width="2" />
<path d="M2987,6575 L3236,4015" stroke="blue" stroke-width="2" />
<path d="M3725,6411 L3461,6855" stroke="blue" stroke-width="2" />
<path d="M2168,47 L2850,6740" stroke="blue" stroke-width="2" />
<path d="M4630,3505 L4502,3100" stroke="blue" stroke-width="2" />
<path d="M380,4806 L5716,6411" stroke="blue" stroke-width="2" />
<path d="M2799,5667 L1296,910" stroke="blue" stroke-width="2" />
<path d="M4068,2107 L4992,747" stroke="blue" stroke-width="2" />
<path d="M1352,215 L1256,2064" stroke="blue" stroke-width="2" />
<path d="M5705,5749 L4946,5085" stroke="blue" stroke-width="2" />
<path d="M2490,949 L526,2214" stroke="blue" stroke-width="2" />
<path d="M2188,6018 L1994,4931" stroke="blue" stroke-width="2" />
<path d="M3799,4778 L1642,2859" stroke="blue" stroke-width="2" />
<path d="M1035,1200 L4069,2308" stroke="blue" stroke-width="2" />
<path d="M3120,2971 L3893,6488" stroke="blue" stroke-width="2" />
<path d="M1792,3228 L218,5898" stroke="blue" stroke-width="2" />
<path d="M2057,178 L692,6337" stroke="blue" stroke-width="2" />
<path d="M259,1292 L2184,124" stroke="blue" stroke-width="2" />
<path d="M4633,608 L23,3253" stroke="blue" stroke-width="2" />
<path d="M5644,5291 L4531,3595" stroke="blue" stroke-width="2" />
<path d="M4909,5007 L5332,1451" stroke="blue" stroke-width="2" />
<path d="M1216,486 L332,207" stroke="blue" stroke-width="2" />
<path d="M2468,187 L49,1404" stroke="blue" stroke-width="2" />
<path d="M3578,7120 L1956,1174" stroke="blue" stroke-width="2" />
<path d="M6290,3734 L434,4964" stroke="blue" stroke-width="2" />
<path d="M2199,3781 L4491,4697" stroke="blue" stroke-width="2" />
<path d="M1438,2020 L516,1879" stroke="blue" stroke-width="2" />
<path d="M5596,3784 L2978,1933" stroke="blue" stroke-width="2" />
<path d="M2623,439 L5896,5777" stroke="blue" stroke-width="2" />
<path d="M9,1699 L4003,2238" stroke="blue" stroke-width="2" />
<path d="M947,6071 L3115,4948" stroke="blue" stroke-width="2" />
<path d="M5998,5221 L5283,7244" stroke="blue" stroke-width="2" />
<path d="M1335,1028 L4083,6931" stroke="blue" stroke-width="2" />
<path d="M4178,7081 L2493,1501" stroke="blue" stroke-width="2" />
<path d="M259,3958 L1443,5500" stroke="blue" stroke-width="2" />
<path d="M2768,4768 L2434,2302" stroke="blue" stroke-width="2" />
<path d="M2780,4555 L5053,3558" stroke="blue" stroke-width="2" />
<path d="M3447,6119 L5685,2745" stroke="blue" stroke-width="2" />
<path d="M990,3284 L5717,1713" stroke="blue" stroke-width="2" />
<path d="M4452,5377 L4681,6668" stroke="blue" stroke-width="2" />
<path d="M4208,5550 L4577,5855" stroke="blue" stroke-width="2" />
<path d="M5950,2104 L1221,3780" stroke="blue" stroke-width="2" />
<path d="M6229,241 L472,6011" stroke="blue" stroke-width="2" />
<path d="M1808,3313 L325,2641" stroke="blue" stroke-width="2" />
<path d="M3296,3239 L6018,2792" stroke="blue" stroke-width="2" />
<path d="M2225,6570 L5723,2466" stroke="blue" stroke-width="2" />
<path d="M5458,4547 L3696,1315" stroke="blue" stroke-width="2" />
<path d="M5172,1964 L5091,866" stroke="blue" stroke-width="2" />
<path d="M5687,3801 L2023,5350" stroke="blue" stroke-width="2" />
<path d="M1939,1299 L5174,248" stroke="blue" stroke-width="2" />
<path d="M5123,2797 L3503,4645" stroke="blue" stroke-width="2" />
<path d="M4651,1814 L846,4323" stroke="blue" stroke-width="2" />
<path d="M49,2616 L967,895" stroke="blue" stroke-width="2" />
<path d="M4849,5675 L3850,5106" stroke="blue" stroke-width="2" />
<path d="M635,6914 L1836,1481" stroke="blue" stroke-width="2" />
<path d="M3517,6702 L4852,4951" stroke="blue" stroke-width="2" />
<path d="M3449,4323 L3327,7040" stroke="blue" stroke-width="2" />
<path d="M1287,4687 L1267,3776" stroke="blue" stroke-width="2" />
<path d="M5748,4354 L4655,2023" stroke="blue" stroke-width="2" />
<path d="M5370,3204 L1287,1774" stroke="blue" stroke-width="2" />
<path d="M1697,4503 L1866,2913" stroke="blue" stroke-width="2" />
<path d="M6257,1898 L4433,3361" stroke="blue" stroke-width="2" />
<path d="M5960,4535 L4828,3938" stroke="blue" stroke-width="2" />
<path d="M186,1994 L4368,1034" stroke="blue" stroke-width="2" />
<path d="M3670,6368 L2240,4569" stroke="blue" stroke-width="2" />
<path d="M3202,3522 L4354,2009" stroke="blue" stroke-width="2" />
<path d="M2821,3861 L1203,6650" stroke="blue" stroke-width="2" />
<path d="M3343,327 L1485,6684" stroke="blue" stroke-width="2" />
<path d="M3557,4927 L2156,4" stroke="blue" stroke-width="2" />
<path d="M291,3400 L331,3544" stroke="blue" stroke-width="2" />
<path d="M3482,5336 L653,112" stroke="blue" stroke-width="2" />
<path d="M2739,1911 L3169,1695" stroke="blue" stroke-width="2" />
<path d="M2616,7161 L5129,273" stroke="blue" stroke-width="2" />
<path d="M5933,2360 L6007,213" stroke="blue" stroke-width="2" />
<path d="M2644,2461 L4885,4556" stroke="blue" stroke-width="2" />
<path d="M2531,2178 L3061,4924" stroke="blue" stroke-width="2" />
<path d="M2786,7137 L3925,3198" stroke="blue" stroke-width="2" />
<path d="M5162,2883 L5753,504" stroke="blue" stroke-width="2" />
<path d="M2656,6333 L621,568" stroke="blue" stroke-width="2" />
<path d="M5989,1336 L1247,1894" stroke="blue" stroke-width="2" />
<path d="M4447,419 L5804,4918" stroke="blue" stroke-width="2" />
<path d="M4002,1708 L5989,6309" stroke="blue" stroke-width="2" />
<path d="M5192,1576 L3161,4842" stroke="blue" stroke-width="2" />
<path d="M6164,2081 L1580,3565" stroke="blue" stroke-width="2" />
<path d="M325,2024 L2271,593" stroke="blue" stroke-width="2" />
<path d="M843,3917 L1788,5776" stroke="blue" stroke-width="2" />
<path d="M2661,6922 L827,7050" stroke="blue" stroke-width="2" />
<path d="M1103,3560 L2958,4236" stroke="blue" stroke-width="2" />
<path d="M316,501 L2171,5163" stroke="blue" stroke-width="2" />
<path d="M5920,3688 L5237,5922" stroke="blue" stroke-width="2" />
<path d="M5160,705 L1954,5845" stroke="blue" stroke-width="2" />
<path d="M2537,2969 L356,1783" stroke="blue" stroke-width="2" />
<path d="M2082,1887 L4053,4294" stroke="blue" stroke-width="2" />
<path d="M778,818 L4343,753" stroke="blue" stroke-width="2" />
<path d="M778,6725 L3862,1747" stroke="blue" stroke-width="2" />
<path d="M4457,6425 L1844,6716" stroke="blue" stroke-width="2" />
<path d="M4709,1208 L2944,56" stroke="blue" stroke-width="2" />
<path d="M3102,6853 L2986,5027" stroke="blue" stroke-width="2" />
<path d="M5316,3728 L2852,7092" stroke="blue" stroke-width="2" />
<path d="M4190,4662 L2306,3425" stroke="blue" stroke-width="2" />
<path d="M1054,7005 L4370,1574" stroke="blue" stroke-width="2" />
<path d="M4145,6761 L694,4970" stroke="blue" stroke-width="2" />
<path d="M6283,6549 L4496,3834" stroke="blue" stroke-width="2" />
<path d="M3724,518 L1894,1721" stroke="blue" stroke-width="2" />
<path d="M3726,5869 L4198,5964" stroke="blue" stroke-width="2" />
<path d="M464,6844 L1464,4255" stroke="blue" stroke-width="2" />
<path d="M5290,173 L3424,4634" stroke="blue" stroke-width="2" />
<path d="M1719,3709 L4002,1290" stroke="blue" stroke-width="2" />
<path d="M4527,5274 L3073,522" stroke="blue" stroke-width="2" />
<path d="M1491,3110 L990,6528" stroke="blue" stroke-width="2" />
<path d="M4640,5026 L2759,450" stroke="blue" stroke-width="2" />
<path d="M4097,5000 L3787,3475" stroke="blue" stroke-width="2" />
<path d="M1169,6793 L789,6590" stroke="blue" stroke-width="2" />
<path d="M3127,1921 L6128,1008" stroke="blue" stroke-width="2" />
<path d="M4272,1872 L607,3347" stroke="blue" stroke-width="2" />
<path d="M2486,4466 L5543,4628" stroke="blue" stroke-width="2" />
<path d="M212,1327 L2653,5779" stroke="blue" stroke-width="2" />
<path d="M3959,4548 L1755,1932" stroke="blue" stroke-width="2" />
<path d="M4560,6928 L2544,3484" stroke="blue" stroke-width="2" />
<path d="M2760,2109 L5040,4074" stroke="blue" stroke-width="2" />
<path d="M739,6396 L4567,856" stroke="blue" stroke-width="2" />
<path d="M1045,2355 L1210,3404" stroke="blue" stroke-width="2" />
<path d="M5339,4254 L5973,244" stroke="blue" stroke-width="2" />
<path d="M364,6132 L4433,3676" stroke="blue" stroke-width="2" />
<path d="M2688,1430 L1449,978" stroke="blue" stroke-width="2" />
<path d="M200,5866 L1977,5607" stroke="blue" stroke-width="2" />
<path d="M3305,1650 L4603,3719" stroke="blue" stroke-width="2" />
<path d="M2635,5658 L5095,6326" stroke="blue" stroke-width="2" />
<path d="M4083,427 L3844,4475" stroke="blue" stroke-width="2" />
<path d="M2660,2401 L4831,992" stroke="blue" stroke-width="2" />
<path d="M3956,551 L3852,3993" stroke="blue" stroke-width="2" />
<path d="M986,2477 L5092,3281" stroke="blue" stroke-width="2" />
<path d="M4960,3259 L2408,7" stroke="blue" stroke-width="2" />
<path d="M1760,7175 L21,4052" stroke="blue" stroke-width="2" />
<path d="M4307,3909 L3231,1733" stroke="blue" stroke-width="2" />
<path d="M6135,5811 L4146,4299" stroke="blue" stroke-width="2" />
<path d="M6171,5458 L2337,2872" stroke="blue" stroke-width="2" />
<path d="M443,4138 L3562,957" stroke="blue" stroke-width="2" />
<path d="M3007,5082 L1754,5050" stroke="blue" stroke-width="2" />
<path d="M5308,3439 L2146,2875" stroke="blue" stroke-width="2" />
<path d="M1970,6133 L4245,2173" stroke="blue" stroke-width="2" />
<path d="M1151,6366 L2418,4198" stroke="blue" stroke-width="2" />
<path d="M3987,3547 L1970,6147" stroke="blue" stroke-width="2" />
<path d="M997,5116 L2546,2139" stroke="blue" stroke-width="2" />
<path d="M1127,4255 L3373,333" stroke="blue" stroke-width="2" />
<path d="M175,6112 L2822,6733" stroke="blue" stroke-width="2" />
<path d="M3520,49 L1584,430" stroke="blue" stroke-width="2" />
<path d="M5286,4079 L2994,6255" stroke="blue" stroke-width="2" />
<path d="M4215,1982 L1485,5853" stroke="blue" stroke-width="2" />
<path d="M5655,4202 L2254,1319" stroke="blue" stroke-width="2" />
<path d="M6087,6523 L3398,665" stroke="blue" stroke-width="2" />
<path d="M1369,1333 L4530,6710" stroke="blue" stroke-width="2" />
<path d="M4443,6500 L5941,5509" stroke="blue" stroke-width="2" />
<path d="M250,174 L2295,6980" stroke="blue" stroke-width="2" />
<path d="M1092,6821 L3841,5417" stroke="blue" stroke-width="2" />
<path d="M4859,4448 L6257,7122" stroke="blue" stroke-width="2" />
<path d="M433,4373 L1159,3847" stroke="blue" stroke-width="2" />
<path d="M4669,2086 L4860,2516" stroke="blue" stroke-width="2" />
<path d="M2776,629 L1639,3055" stroke="blue" stroke-width="2" />
<path d="M4417,459 L3997,6775" stroke="blue" stroke-width="2" />
<path d="M3440,6676 L1846,974" stroke="blue" stroke-width="2" />
<path d="M646,1263 L649,2984" stroke="blue" stroke-width="2" />
<path d="M606,2638 L1020,5385" stroke="blue" stroke-width="2" />
<path d="M5754,6874 L5131,5419" stroke="blue" stroke-width="2" />
<path d="M615,3602 L5609,1534" stroke="blue" stroke-width="2" />
<path d="M6223,3981 L2685,1966" stroke="blue" stroke-width="2" />
<path d="M1265,3465 L4762,2615" stroke="blue" stroke-width="2" />
<path d="M1345,5254 L5440,4095" stroke="blue" stroke-width="2" />
<path d="M3573,1426 L1267,5901" stroke="blue" stroke-width="2" />
<path d="M3613,4426 L3083,2977" stroke="blue" stroke-width="2" />
<path d="M134,6817 L2106,7138" stroke="blue" stroke-width="2" />
<path d="M6230,1188 L5601,1529" stroke="blue" stroke-width="2" />
<path d="M4418,3132 L1655,3417" stroke="blue" stroke-width="2" />
<path d="M2797,1430 L5022,4567" stroke="blue" stroke-width="2" />
<path d="M3011,3971 L3695,1735" stroke="blue" stroke-width="2" />
<path d="M201,2168 L2223,4257" stroke="blue" stroke-width="2" />
<path d="M5013,4551 L1064,2941" stroke="blue" stroke-width="2" />
<path d="M6206,1404 L3360,125" stroke="blue" stroke-width="2" />
<path d="M1874,4596 L4647,3688" stroke="blue" stroke-width="2" />
<path d="M5088,6442 L503,6314" stroke="blue" stroke-width="2" />
<path d="M124,2910 L5013,5865" stroke="blue" stroke-width="2" />
<path d="M4280,3459 L3652,4903" stroke="blue" stroke-width="2" />
<path d="M5999,4192 L1563,4709" stroke="blue" stroke-width="2" />
<path d="M3996,4979 L4763,4739" stroke="blue" stroke-width="2" />
<path d="M2775,7238 L6116,97" stroke="blue" stroke-width="2" />
<path d="M3545,913 L3583,4998" stroke="blue" stroke-width="2" />
<path d="M2067,6470 L1390,6806" stroke="blue" stroke-width="2" />
<path d="M4928,5704 L3999,4347" stroke="blue" stroke-width="2" />
<path d="M5749,6756 L3847,1221" stroke="blue" stroke-width="2" />
<path d="M1350,6647 L1698,8" stroke="blue" stroke-width="2" />
<path d="M4563,3569 L2652,3835" stroke="blue" stroke-width="2" />
<path d="M5148,21 L2863,1007" stroke="blue" stroke-width="2" />
<path d="M750,1190 L1780,2427" stroke="blue" stroke-width="2" />
<path d="M6200,2264 L6214,243" stroke="blue" stroke-width="2" />
<path d="M3057,1533 L5680,2297" stroke="blue" stroke-width="2" />
<path d="M6019,955 L506,2694" stroke="blue" stroke-width="2" />
<path d="M357,5531 L4611,3798" stroke="blue" stroke-width="2" />
<path d="M4605,1271 L1584,5353" stroke="blue" stroke-width="2" />
<path d="M4282,4377 L2286,7123" stroke="blue" stroke-width="2" />
<path d="M4228,5570 L2974,1422" stroke="blue" stroke-width="2" />
<path d="M5452,2171 L3829,1440" stroke="blue" stroke-width="2" />
<path d="M1516,1343 L322,3845" stroke="blue" stroke-width="2" />
<path d="M5057,3525 L3729,2406" stroke="blue" stroke-width="2" />
<path d="M5837,1359 L769,244" stroke="blue" stroke-width="2" />
<path d="M5317,7261 L5836,7187" stroke="blue" stroke-width="2" />
<path d="M3550,4085 L4363,1836" stroke="blue" stroke-width="2" />
<path d="M1863,3085 L2977,117" stroke="blue" stroke-width="2" />
<path d="M702,1300 L3691,5161" stroke="blue" stroke-width="2" />
<path d="M6134,3387 L2910,2028" stroke="blue" stroke-width="2" />
<path d="M5087,7127 L13,5050" stroke="blue" stroke-width="2" />
<path d="M6228,1123 L4290,6066" stroke="blue" stroke-width="2" />
<path d="M2560,6919 L4473,2823" stroke="blue" stroke-width="2" />
<path d="M4744,4630 L83,3093" stroke="blue" stroke-width="2" />
<path d="M5944,1501 L6062,783" stroke="blue" stroke-width="2" />
<path d="M5591,133 L2450,7065" stroke="blue" stroke-width="2" />
<path d="M722,3640 L2850,1238" stroke="blue" stroke-width="2" />
<path d="M6230,5907 L763,4977" stroke="blue" stroke-width="2" />
<path d="M841,1118 L1561,1135" stroke="blue" stroke-width="2" />
<path d="M4288,3802 L379,3639" stroke="blue" stroke-width="2" />
<path d="M1546,5269 L4783,5103" stroke="blue" stroke-width="2" />
<path d="M4524,6971 L2026,211" stroke="blue" stroke-width="2" />
<path d="M2,121 L3506,2234" stroke="blue" stroke-width="2" />
<path d="M5408,2327 L3843,1004" stroke="blue" stroke-width="2" />
<path d="M910,4329 L1777,4502" stroke="blue" stroke-width="2" />
<path d="M878,1031 L6036,3317" stroke="blue" stroke-width="2" />
<path d="M1222,3699 L3793,5938" stroke="blue" stroke-width="2" />
<path d="M283,3102 L1990,4113" stroke="blue" stroke-width="2" />
<path d="M5869,180 L2061,2741" stroke="blue" stroke-width="2" />
<path d="M1025,6306 L3738,1260" stroke="blue" stroke-width="2" />
<path d="M370,316 L4997,973" stroke="blue" stroke-width="2" />
<path d="M3755,2143 L6098,4334" stroke="blue" stroke-width="2" />
<path d="M4732,4823 L4045,1118" stroke="blue" stroke-width="2" />
<path d="M4698,3610 L5505,6621" stroke="blue" stroke-width="2" />
<path d="M3481,2982 L5717,4893" stroke="blue" stroke-width="2" />
<path d="M301,5584 L1930,4165" stroke="blue" stroke-width="2" />
<path d="M6157,5535 L442,182" stroke="blue" stroke-width="2" />
<path d="M5841,4807 L606,1075" stroke="blue" stroke-width="2" />
<path d="M3935,2254 L5560,253" stroke="blue" stroke-width="2" />
<path d="M3981,1198 L3202,6517" stroke="blue" stroke-width="2" />
<path d="M5516,5593 L1455,732" stroke="blue" stroke-width="2" />
<path d="M5301,2572 L4632,3425" stroke="blue" stroke-width="2" />
<path d="M5865,6837 L3202,5045" stroke="blue" stroke-width="2" />
<path d="M1076,2196 L6224,1698" stroke="blue" stroke-width="2" />
<path d="M4583,1337 L1755,1936" stroke="blue" stroke-width="2" />
<path d="M5177,7063 L3740,2844" stroke="blue" stroke-width="2" />
<path d="M4673,2633 L4564,4594" stroke="blue" stroke-width="2" />
<path d="M2927,5036 L1190,1613" stroke="blue" stroke-width="2" />
<path d="M131,3535 L3999,4367" stroke="blue" stroke-width="2" />
<path d="M451,6773 L4650,2248" stroke="blue" stroke-width="2" />
<path d="M1089,4965 L5707,4179" stroke="blue" stroke-width="2" />
<path d="M2780,1808 L4387,2162" stroke="blue" stroke-width="2" />
<path d="M3642,7221 L3666,2056" stroke="blue" stroke-width="2" />
<path d="M2164,2698 L2994,2398" stroke="blue" stroke-width="2" />
<path d="M4399,1486 L5274,4999" stroke="blue" stroke-width="2" />
<path d="M3450,3609 L3436,5875" stroke="blue" stroke-width="2" />
<path d="M4906,2987 L3681,2129" stroke="blue" stroke-width="2" />
<path d="M2980,2123 L6073,138" stroke="blue" stroke-width="2" />
<path d="M784,994 L4629,1876" stroke="blue" stroke-width="2" />
<path d="M2214,1559 L6149,7145" stroke="blue" stroke-width="2" />
<path d="M343,340 L993,5202" stroke="blue" stroke-width="2" />
<path d="M1876,5332 L4629,6433" stroke="blue" stroke-width="2" />
<path d="M3084,1758 L2107,7110" stroke="blue" stroke-width="2" />
<path d="M196,792 L3150,2688" stroke="blue" stroke-width="2" />
<path d="M1342,1006 L3500,1329" stroke="blue" stroke-width="2" />
<path d="M4091,4307 L1888,5051" stroke="blue" stroke-width="2" />
<path d="M3685,681 L2922,3063" stroke="blue" stroke-width="2" />
<path d="M490,4546 L75,3080" stroke="blue" stroke-width="2" />
<path d="M4972,5250 L420,6831" stroke="blue" stroke-width="2" />
<path d="M1187,560 L4376,1699" stroke="blue" stroke-width="2" />
<path d="M1381,311 L1893,3140" stroke="blue" stroke-width="2" />
<path d="M5864,5988 L4454,1900" stroke="blue" stroke-width="2" />
<path d="M464,606 L2288,7143" stroke="blue" stroke-width="2" />
<path d="M2540,2004 L4621,1906" stroke="blue" stroke-width="2" />
<path d="M1367,1284 L4168,849" stroke="blue" stroke-width="2" />
<path d="M930,5069 L3206,6927" stroke="blue" stroke-width="2" />
<path d="M5664,1583 L3257,6207" stroke="blue" stroke-width="2" />
<path d="M1295,6717 L3371,3259" stroke="blue" stroke-width="2" />
<path d="M3735,6739 L2118,2740" stroke="blue" stroke-width="2" />
<path d="M1064,6470 L5523,6124" stroke="blue" stroke-width="2" />
<path d="M841,1956 L1148,5566" stroke="blue" stroke-width="2" />
<path d="M5493,4940 L3582,1138" stroke="blue" stroke-width="2" />
<path d="M269,3401 L1156,3652" stroke="blue" stroke-width="2" />
<path d="M5670,5927 L2838,484" stroke="blue" stroke-width="2" />
<path d="M4900,6236 L5352,6008" stroke="blue" stroke-width="2" />
<path d="M47,5881 L2270,6540" stroke="blue" stroke-width="2" />
<path d="M402,3577 L2149,913" stroke="blue" stroke-width="2" />
<path d="M2378,6006 L4818,3361" stroke="blue" stroke-width="2" />
<path d="M47,7246 L270,2333" stroke="blue" stroke-width="2" />
<path d="M5293,3224 L4005,5676" stroke="blue" stroke-width="2" />
<path d="M1166,1711 L1425,1610" stroke="blue" stroke-width="2" />
<path d="M4086,7009 L3450,7036" stroke="blue" stroke-width="2" />
<path d="M1016,414 L4111,103" stroke="blue" stroke-width="2" />
<path d="M4695,2546 L2489,5655" stroke="blue" stroke-width="2" />
<path d="M1108,6763 L2075,4428" stroke="blue" stroke-width="2" />
<path d="M1568,6201 L3675,1940" stroke="blue" stroke-width="2" />
<path d="M2273,1415 L1377,2970" stroke="blue" stroke-width="2" />
<path d="M1204,5885 L4586,6896" stroke="blue" stroke-width="2" />
<path d="M23,3671 L1906,7152" stroke="blue" stroke-width="2" />
<path d="M2761,2033 L5948,5493" stroke="blue" stroke-width="2" />
<path d="M2148,3960 L3285,2779" stroke="blue" stroke-width="2" />
<path d="M1317,2854 L3068,3618" stroke="blue" stroke-width="2" />
<path d="M4515,4745 L4620,1965" stroke="blue" stroke-width="2" />
<path d="M5141,1260 L5899,5231" stroke="blue" stroke-width="2" />
<path d="M2483,919 L441,6192" stroke="blue" stroke-width="2" />
<path d="M4066,221 L4351,6432" stroke="blue" stroke-width="2" />
<path d="M1403,118 L5496,4610" stroke="blue" stroke-width="2" />
<path d="M5959,6436 L4509,853" stroke="blue" stroke-width="2" />
<path d="M2783,369 L357,393" stroke="blue" stroke-width="2" />
<path d="M4855,5409 L3387,6105" stroke="blue" stroke-width="2" />
<path d="M2108,3547 L5337,4888" stroke="blue" stroke-width="2" />
<path d="M3508,174 L325,4699" stroke="blue" stroke-width="2" />
<path d="M4853,7049 L4269,4472" stroke="blue" stroke-width="2" />
<path d="M188,4966 L4518,3322" stroke="blue" stroke-width="2" />
<path d="M4743,5984 L5114,5525" stroke="blue" stroke-width="2" />
<path d="M849,4876 L454,535" stroke="blue" stroke-width="2" />
<path d="M2780,2677 L4238,4824" stroke="blue" stroke-width="2" />
<path d="M5993,4396 L5084,5193" stroke="blue" stroke-width="2" />
<path d="M4915,2050 L2257,6993" stroke="blue" stroke-width="2" />
<path d="M6141,3101 L545,1040" stroke="blue" stroke-width="2" />
<path d="M550,5123 L834,7114" stroke="blue" stroke-width="2" />
<path d="M5276,3156 L2866,1733" stroke="blue" stroke-width="2" />
<path d="M6254,3159 L3812,1173" stroke="blue" stroke-width="2" />
<path d="M3335,1576 L5039,6073" stroke="blue" stroke-width="2" />
<path d="M2297,275 L2201,6715" stroke="blue" stroke-width="2" />
<path d="M569,6357 L2663,5581" stroke="blue" stroke-width="2" />
<path d="M649,5340 L4344,2629" stroke="blue" stroke-width="2" />
<path d="M3937,5684 L2796,1282" stroke="blue" stroke-width="2" />
<path d="M904,537 L5422,4618" stroke="blue" stroke-width="2" />
<path d="M4178,2913 L5776,3587" stroke="blue" stroke-width="2" />
<path d="M5024,4567 L2711,5046" stroke="blue" stroke-width="2" />
<path d="M4002,2648 L191,4815" stroke="blue" stroke-width="2" />
<path d="M3523,2196 L2306,4188" stroke="blue" stroke-width="2" />
<path d="M2800,6223 L2108,4135" stroke="blue" stroke-width="2" />
<path d="M4241,1420 L1879,6086" stroke="blue" stroke-width="2" />
<path d="M5924,5260 L4621,476" stroke="blue" stroke-width="2" />
<path d="M1488,3874 L3655,6511" stroke="blue" stroke-width="2" />
<path d="M562,5638 L4179,1357" stroke="blue" stroke-width="2" />
<path d="M854,6945 L4275,277" stroke="blue" stroke-width="2" />
<path d="M4693,5085 L3247,2382" stroke="blue" stroke-width="2" />
<path d="M4029,4316 L1991,1007" stroke="blue" stroke-width="2" />
<path d="M373,6300 L4534,1134" stroke="blue" stroke-width="2" />
<path d="M4694,2001 L5803,6995" stroke="blue" stroke-width="2" />
<path d="M6199,2004 L1232,2909" stroke="blue" stroke-width="2" />
<path d="M3846,7145 L778,6814" stroke="blue" stroke-width="2" />
<path d="M4170,5122 L3632,6620" stroke="blue" stroke-width="2" />
<path d="M5072,5212 L692,5270" stroke="blue" stroke-width="2" />
<path d="M1187,7155 L3941,4372" stroke="blue" stroke-width="2" />
<path d="M469,3464 L5260,4334" stroke="blue" stroke-width="2" />
<path d="M1610,3590 L2021,3001" stroke="blue" stroke-width="2" />
<path d="M3867,444 L3658,6814" stroke="blue" stroke-width="2" />
<path d="M4040,5326 L5331,3473" stroke="blue" stroke-width="2" />
<path d="M2629,7133 L4249,506" stroke="blue" stroke-width="2" />
<path d="M772,6206 L1379,2954" stroke="blue" stroke-width="2" />
<path d="M994,2267 L4263,5174" stroke="blue" stroke-width="2" />
<path d="M1870,7044 L3611,4311" stroke="blue" stroke-width="2" />
<path d="M1395,5310 L3629,6851" stroke="blue" stroke-width="2" />
<path d="M569,7168 L78,3450" stroke="blue" stroke-width="2" />
<path d="M4862,7041 L3761,5339" stroke="blue" stroke-width="2" />
<path d="M1882,2001 L5376,1292" stroke="blue" stroke-width="2" />
<path d="M771,874 L4708,5485" stroke="blue" stroke-width="2" />
<path d="M1461,2090 L4747,285" stroke="blue" stroke-width="2" />
<path d="M5878,1071 L3397,580" stroke="blue" stroke-width="2" />
<path d="M4859,4931 L1173,1377" stroke="blue" stroke-width="2" />
<path d="M3146,7144 L2661,6090" stroke="blue" stroke-width="2" />
<path d="M740,4757 L5419,4530" stroke="blue" stroke-width="2" />
<path d="M6201,4555 L1218,5714" stroke="blue" stroke-width="2" />
<path d="M1497,1550 L524,3252" stroke="blue" stroke-width="2" />
<path d="M3137,2226 L6268,5358" stroke="blue" stroke-width="2" />
<path d="M5668,1729 L5690,7083" stroke="blue" stroke-width="2" />
<path d="M4321,798 L1896,4099" stroke="blue" stroke-width="2" />
<path d="M272,3430 L2401,1321" stroke="blue" stroke-width="2" />
<path d="M2026,3292 L2951,2499" stroke="blue" stroke-width="2" />
<path d="M2539,6067 L1000,5972" stroke="blue" stroke-width="2" />
<path d="M6061,1311 L1340,5715" stroke="blue" stroke-width="2" />
<path d="M4839,5561 L4007,5442" stroke="blue" stroke-width="2" />
<path d="M1763,2393 L2143,5911" stroke="blue" stroke-width="2" />
<path d="M2432,466 L3605,5683" stroke="blue" stroke-width="2" />
<path d="M3313,1029 L3708,1364" stroke="blue" stroke-width="2" />
<path d="M2715,2401 L5136,578" stroke="blue" stroke-width="2" />
<path d="M4575,3211 L5191,6958" stroke="blue" stroke-width="2" />
<path d="M2385,162 L1700,2638" stroke="blue" stroke-width="2" />
<path d="M79,3080 L93,1329" stroke="blue" stroke-width="2" />
<path d="M3032,4261 L6070,2439" stroke="blue" stroke-width="2" />
<path d="M5679,4228 L2875,6271" stroke="blue" stroke-width="2" />
<path d="M2405,3366 L226,2240" stroke="blue" stroke-width="2" />
<path d="M4493,4773 L1500,1774" stroke="blue" stroke-width="2" />
<path d="M4720,5346 L1342,1704" stroke="blue" stroke-width="2" />
<path d="M276,6638 L5082,818" stroke="blue" stroke-width="2" />
<path d="M6280,1139 L4903,6065" stroke="blue" stroke-width="2" />
<path d="M901,3985 L2130,1068" stroke="blue" stroke-width="2" />
<path d="M83,6600 L2085,3353" stroke="blue" stroke-width="2" />
<path d="M6091,7146 L819,5015" stroke="blue" stroke-width="2" />
<path d="M2293,696 L3368,7217" stroke="blue" stroke-width="2" />
<path d="M5131,2121 L2968,3615" stroke="blue" stroke-width="2" />
<path d="M5919,2727 L3526,5242" stroke="blue" stroke-width="2" />
<path d="M1117,3716 L5930,1463" stroke="blue" stroke-width="2" />
<path d="M4331,466 L1109,5774" stroke="blue" stroke-width="2" />
<path d="M3797,5374 L5629,6716" stroke="blue" stroke-width="2" />
<path d="M3880,3872 L249,3805" stroke="blue" stroke-width="2" />
<path d="M3048,310 L5786,4120" stroke="blue" stroke-width="2" />
<path d="M842,6434 L3760,2818" stroke="blue" stroke-width="2" />
<path d="M5646,4703 L738,4197" stroke="blue" stroke-width="2" />
<path d="M4205,2719 L357,2329" stroke="blue" stroke-width="2" />
<path d="M251,4998 L4485,2358" stroke="blue" stroke-width="2" />
<path d="M1501,2213 L1240,6394" stroke="blue" stroke-width="2" />
<path d="M3787,2070 L474,3735" stroke="blue" stroke-width="2" />
<path d="M2956,7183 L528,491" stroke="blue" stroke-width="2" />
<path d="M1940,6386 L4554,4031" stroke="blue" stroke-width="2" />
<path d="M5685,4757 L1052,4703" stroke="blue" stroke-width="2" />
<path d="M301,4184 L5994,6987" stroke="blue" stroke-width="2" />
<path d="M777,682 L1975,4711" stroke="blue" stroke-width="2" />
<path d="M1921,1865 L5249,1473" stroke="blue" stroke-width="2" />
<path d="M4140,4414 L2018,914" stroke="blue" stroke-width="2" />
<path d="M3409,4863 L1294,3403" stroke="blue" stroke-width="2" />
<path d="M2552,7222 L4162,3985" stroke="blue" stroke-width="2" />
<path d="M5151,1753 L3887,2691" stroke="blue" stroke-width="2" />
<path d="M3242,203 L3748,3761" stroke="blue" stroke-width="2" />
<path d="M5531,6814 L1066,6109" stroke="blue" stroke-width="2" />
<path d="M5249,2578 L4057,3305" stroke="blue" stroke-width="2" />
<path d="M6048,1963 L2360,119" stroke="blue" stroke-width="2" />
<path d="M763,5378 L3605,1110" stroke="blue" stroke-width="2" />
<path d="M3802,6759 L5124,83" stroke="blue" stroke-width="2" />
<path d="M6114,2223 L1751,6622" stroke="blue" stroke-width="2" />
<path d="M1664,3463 L4984,3661" stroke="blue" stroke-width="2" />
<path d="M5583,4859 L2093,2590" stroke="blue" stroke-width="2" />
<path d="M1513,4092 L932,1098" stroke="blue" stroke-width="2" />
<path d="M258,1452 L5992,4015" stroke="blue" stroke-width="2" />
<path d="M292,4017 L3298,4502" stroke="blue" stroke-width="2" />
<path d="M5717,4422 L6099,3118" stroke="blue" stroke-width="2" />
<path d="M89,1130 L3210,6433" stroke="blue" stroke-width="2" />
<path d="M4002,5026 L3184,1639" stroke="blue" stroke-width="2" />
<path d="M3683,4395 L2838,5685" stroke="blue" stroke-width="2" />
<path d="M426,4302 L356,5667" stroke="blue" stroke-width="2" />
<path d="M427,6780 L133,2009" stroke="blue" stroke-width="2" />
<path d="M2906,6067 L4872,3188" stroke="blue" stroke-width="2" />
<path d="M2788,1067 L5284,1308" stroke="blue" stroke-width="2" />
<path d="M650,5604 L1213,3118" stroke="blue" stroke-width="2" />
<path d="M4117,4349 L1063,218" stroke="blue" stroke-width="2" />
<path d="M4846,4223 L5289,4515" stroke="blue" stroke-width="2" />
<path d="M2770,4752 L3941,4739" stroke="blue" stroke-width="2" />
<path d="M2160,1975 L1342,2520" stroke="blue" stroke-width="2" />
<path d="M5230,3788 L834,1666" stroke="blue" stroke-width="2" />
<path d="M5871,567 L4147,3968" stroke="blue" stroke-width="2" />
<path d="M1532,1222 L4094,78" stroke="blue" stroke-width="2" />
<path d="M2618,2704 L4329,2601" stroke="blue" stroke-width="2" />
<path d="M3374,2853 L2691,1649" stroke="blue" stroke-width="2" />
<path d="M1826,62 L329,1104" stroke="blue" stroke-width="2" />
<path d="M3710,5563 L2396,4082" stroke="blue" stroke-width="2" />
<path d="M5405,3661 L2260,2920" stroke="blue" stroke-width="2" />
<path d="M2403,2445 L897,715" stroke="blue" stroke-width="2" />
<path d="M3775,796 L4598,3738" stroke="blue" stroke-width="2" />
<path d="M3434,3444 L4709,1499" stroke="blue" stroke-width="2" />
<path d="M2046,3327 L5828,1669" stroke="blue" stroke-width="2" />
<path d="M5143,5063 L4791,2525" stroke="blue" stroke-width="2" />
<path d="M2135,1225 L4284,291" stroke="blue" stroke-width="2" />
<path d="M164,409 L3609,117" stroke="blue" stroke-width="2" />
<path d="M1113,6864 L810,7173" stroke="blue" stroke-width="2" />
<path d="M3057,2739 L2065,2289" stroke="blue" stroke-width="2" />
<path d="M3985,7057 L4565,4355" stroke="blue" stroke-width="2" />
<path d="M359,3134 L163,369" stroke="blue" stroke-width="2" />
<path d="M6104,5724 L4616,97" stroke="blue" stroke-width="2" />
<path d="M5360,1203 L656,6296" stroke="blue" stroke-width="2" />
<path d="M462,1522 L4168,3932" stroke="blue" stroke-width="2" />
<path d="M1659,5799 L5205,3193" stroke="blue" stroke-width="2" />
<path d="M6067,2934 L344,5235" stroke="blue" stroke-width="2" />
<path d="M2768,2051 L1578,6767" stroke="blue" stroke-width="2" />
<path d="M1169,1675 L549,6279" stroke="blue" stroke-width="2" />
<path d="M2106,430 L6098,4742" stroke="blue" stroke-width="2" />
<path d="M2605,6167 L2897,6285" stroke="blue" stroke-width="2" />
<path d="M4132,887 L460,6901" stroke="blue" stroke-width="2" />
<path d="M922,19 L3857,5672" stroke="blue" stroke-width="2" />
<path d="M6120,2171 L5069,965" stroke="blue" stroke-width="2" />
<path d="M694,2445 L5824,6434" stroke="blue" stroke-width="2" />
<path d="M5168,6040 L1169,1241" stroke="blue" stroke-width="2" />
<path d="M3434,6553 L3776,4870" stroke="blue" stroke-width="2" />
<path d="M506,6858 L5282,6589" stroke="blue" stroke-width="2" />
<path d="M3131,2355 L2572,3100" stroke="blue" stroke-width="2" />
<path d="M1330,3842 L425,4880" stroke="blue" stroke-width="2" />
<path d="M2456,6679 L4895,3017" stroke="blue" stroke-width="2" />
<path d="M4766,3153 L1753,4562" stroke="blue" stroke-width="2" />
<path d="M787,2670 L5008,540" stroke="blue" stroke-width="2" />
<path d="M3792,3321 L1041,4518" stroke="blue" stroke-width="2" />
<path d="M4608,6599 L5370,3374" stroke="blue" stroke-width="2" />
<path d="M1553,60 L892,1129" stroke="blue" stroke-width="2" />
<path d="M1082,5810 L1384,6906" stroke="blue" stroke-width="2" />
<path d="M3325,1882 L218,217" stroke="blue" stroke-width="2" />
<path d="M793,4675 L4251,6941" stroke="blue" stroke-width="2" />
<path d="M1971,3385 L1989,1240" stroke="blue" stroke-width="2" />
<path d="M2656,3822 L3326,2438" stroke="blue" stroke-width="2" />
<path d="M486,281 L1691,6492" stroke="blue" stroke-width="2" />
<path d="M2820,4933 L4670,2621" stroke="blue" stroke-width="2" />
<path d="M378,3563 L5762,3056" stroke="blue" stroke-width="2" />
<path d="M3682,5019 L3467,1110" stroke="blue" stroke-width="2" />
<path d="M2749,2787 L4968,1949" stroke="blue" stroke-width="2" />
<path d="M1889,6767 L2616,6891" stroke="blue" stroke-width="2" />
<path d="M4962,3797 L428,955" stroke="blue" stroke-width="2" />
<path d="M3717,5451 L5484,5450" stroke="blue" stroke-width="2" />
<path d="M4994,1290 L5654,3121" stroke="blue" stroke-width="2" />
<path d="M4732,2541 L5184,1878" stroke="blue" stroke-width="2" />
<path d="M3744,4119 L3092,1534" stroke="blue" stroke-width="2" />
<path d="M3242,916 L4479,4313" stroke="blue" stroke-width="2" />
<path d="M1079,6269 L4834,620" stroke="blue" stroke-width="2" />
<path d="M5390,3596 L5418,6478" stroke="blue" stroke-width="2" />
<path d="M4569,168 L5892,1574" stroke="blue" stroke-width="2" />
<path d="M103,3028 L4970,28" stroke="blue" stroke-width="2" />
<path d="M5446,4930 L2373,6926" stroke="blue" stroke-width="2" />
<path d="M3413,4719 L4558,1482" stroke="blue" stroke-width="2" />
<path d="M1486,1959 L5742,2083" stroke="blue" stroke-width="2" />
<path d="M515,5591 L1569,3234" stroke="blue" stroke-width="2" />
<path d="M2948,4672 L5208,1060" stroke="blue" stroke-width="2" />
<path d="M1623,2839 L5448,2307" stroke="blue" stroke-width="2" />
<path d="M4152,6059 L1359,7008" stroke="blue" stroke-width="2" />
<path d="M1730,3361 L4351,5924" stroke="blue" stroke-width="2" />
<path d="M2483,2257 L3800,1003" stroke="blue" stroke-width="2" />
<path d="M2663,4855 L2929,7104" stroke="blue" stroke-width="2" />
<path d="M1307,1638 L6053,2114" stroke="blue" stroke-width="2" />
<path d="M1371,451 L1963,6727" stroke="blue" stroke-width="2" />
<path d="M1542,2731 L5394,1188" stroke="blue" stroke-width="2" />
<path d="M3727,1014 L3819,5524" stroke="blue" stroke-width="2" />
<path d="M4737,2946 L4201,3456" stroke="blue" stroke-width="2" />
<path d="M4576,6955 L4604,2738" stroke="blue" stroke-width="2" />
<path d="M5029,6802 L4248,1440" stroke="blue" stroke-width="2" />
<path d="M860,3365 L2355,4364" stroke="blue" stroke-width="2" />
<path d="M5647,6396 L1011,1175" stroke="blue" stroke-width="2" />
<path d="M1261,2586 L4474,3459" stroke="blue" stroke-width="2" />
<path d="M4766,6575 L891,7241" stroke="blue" stroke-width="2" />
<path d="M2904,2678 L2313,771" stroke="blue" stroke-width="2" />
<path d="M1899,5254 L3301,3082" stroke="blue" stroke-width="2" />
<path d="M2357,5679 L3912,4996" stroke="blue" stroke-width="2" />
<path d="M1841,5412 L5845,950" stroke="blue" stroke-width="2" />
<path d="M3293,336 L2064,1141" stroke="blue" stroke-width="2" />
<path d="M4186,1649 L5,803" stroke="blue" stroke-width="2" />
<path d="M21,2635 L2585,4598" stroke="blue" stroke-width="2" />
<path d="M2188,5086 L4764,309" stroke="blue" stroke-width="2" />
<path d="M4095,6128 L5985,4498" stroke="blue" stroke-width="2" />
<path d="M3158,7194 L4745,1565" stroke="blue" stroke-width="2" />
<path d="M5801,516 L1734,1376" stroke="blue" stroke-width="2" />
<path d="M2782,6529 L4670,6476" stroke="blue" stroke-width="2" />
<path d="M2990,6704 L4131,2886" stroke="blue" stroke-width="2" />
<path d="M3051,92 L2295,5598" stroke="blue" stroke-width="2" />
<path d="M1413,1773 L1987,4399" stroke="blue" stroke-width="2" />
<path d="M245,1921 L2790,67" stroke="blue" stroke-width="2" />
<path d="M4060,187 L4864,5116" stroke="blue" stroke-width="2" />
<path d="M3196,2610 L1795,3017" stroke="blue" stroke-width="2" />
<path d="M1567,4172 L2500,676" stroke="blue" stroke-width="2" />
<path d="M5921,6866 L4447,291" stroke="blue" stroke-width="2" />
<path d="M1954,3028 L1202,5348" stroke="blue" stroke-width="2" />
<path d="M607,2435 L5741,3924" stroke="blue" stroke-width="2" />
<path d="M6122,126 L5037,6770" stroke="blue" stroke-width="2" />
<path d="M5087,306 L674,6748" stroke="blue" stroke-width="2" />
<path d="M4462,1850 L3779,1244" stroke="blue" stroke-width="2" />
<path d="M160,6896 L5109,4092" stroke="blue" stroke-width="2" />
<path d="M6072,5734 L5206,4027" stroke="blue" stroke-width="2" />
<path d="M4685,4216 L5437,2163" stroke="blue" stroke-width="2" />
<path d="M651,4084 L912,1115" stroke="blue" stroke-width="2" />
<path d="M5691,1312 L650,4775" stroke="blue" stroke-width="2" />
<path d="M2586,3737 L5395,3209" stroke="blue" stroke-width="2" />
<path d="M2910,2334 L3312,2382" stroke="blue" stroke-width="2" />
<path d="M6275,5086 L5541,4655" stroke="blue" stroke-width="2" />
<path d="M5263,2100 L154,3822" stroke="blue" stroke-width="2" />
<path d="M5139,4434 L5433,2775" stroke="blue" stroke-width="2" />
<path d="M6128,461 L5235,1028" stroke="blue" stroke-width="2" />
<path d="M4999,3677 L5244,578" stroke="blue" stroke-width="2" />
<path d="M1605,6187 L283,457" stroke="blue" stroke-width="2" />
<path d="M6150,6904 L3703,4997" stroke="blue" stroke-width="2" />
<path d="M2449,1834 L4091,897" stroke="blue" stroke-width="2" />
<path d="M3311,6837 L4947,4726" stroke="blue" stroke-width="2" />
<path d="M5327,5264 L5130,4666" stroke="blue" stroke-width="2" />
<path d="M2746,1327 L78,4692" stroke="blue" stroke-width="2" />
<path d="M2402,138 L4871,1816" stroke="blue" stroke-width="2" />
<path d="M2858,4139 L5906,5071" stroke="blue" stroke-width="2" />
<path d="M1917,3879 L6187,6322" stroke="blue" stroke-width="2" />
<path d="M5333,4238 L3386,5965" stroke="blue" stroke-width="2" />
<path d="M2306,5790 L5778,7124" stroke="blue" stroke-width="2" />
<path d="M1120,6258 L3888,10" stroke="blue" stroke-width="2" />
<path d="M5631,6236 L5985,1030" stroke="blue" stroke-width="2" />
<path d="M663,2743 L2556,2505" stroke="blue" stroke-width="2" />
<path d="M2330,1229 L162,1660" stroke="blue" stroke-width="2" />
<path d="M1426,3251 L4817,2916" stroke="blue" stroke-width="2" />
<path d="M3801,2531 L6095,5502" stroke="blue" stroke-width="2" />
<path d="M1843,6890 L643,1946" stroke="blue" stroke-width="2" />
<path d="M6266,1420 L1029,6264" stroke="blue" stroke-width="2" />
<path d="M2012,2854 L4661,5352" stroke="blue" stroke-width="2" />
<path d="M3951,1206 L5541,2719" stroke="blue" stroke-width="2" />
<path d="M5092,1943 L1472,6144" stroke="blue" stroke-width="2" />
<path d="M4081,7208 L5969,4212" stroke="blue" stroke-width="2" />
<path d="M4623,2376 L3844,3717" stroke="blue" stroke-width="2" />
<path d="M750,284 L6027,5558" stroke="blue" stroke-width="2" />
<path d="M2721,2387 L3378,5712" stroke="blue" stroke-width="2" />
<path d="M210,1454 L808,2087" stroke="blue" stroke-width="2" />
<path d="M1174,5907 L1776,676" stroke="blue" stroke-width="2" />
<path d="M2393,5415 L538,6119" stroke="blue" stroke-width="2" />
<path d="M3661,4740 L3751,5607" stroke="blue" stroke-width="2" />
<path d="M5042,3029 L6116,4674" stroke="blue" stroke-width="2" />
<path d="M3674,2762 L4548,1903" stroke="blue" stroke-width="2" />
<path d="M70,5416 L5504,2386" stroke="blue" stroke-width="2" />
<path d="M2604,6634 L3585,3771" stroke="blue" stroke-width="2" />
<path d="M3565,6317 L5588,6823" stroke="blue" stroke-width="2" />
<path d="M2128,1263 L964,6032" stroke="blue" stroke-width="2" />
<path d="M3614,5653 L156,1784" stroke="blue" stroke-width="2" />
<path d="M2543,379 L3975,6994" stroke="blue" stroke-width="2" />
<path d="M4281,798 L423,1322" stroke="blue" stroke-width="2" />
<path d="M2555,1504 L4638,5640" stroke="blue" stroke-width="2" />
<path d="M1942,2778 L3362,446" stroke="blue" stroke-width="2" />
<path d="M4979,324 L1501,5542" stroke="blue" stroke-width="2" />
<path d="M2253,703 L4560,6108" stroke="blue" stroke-width="2" />
<path d="M4814,6451 L5168,7078" stroke="blue" stroke-width="2" />
<path d="M4480,5532 L1336,1414" stroke="blue" stroke-width="2" />
<path d="M4830,4328 L3487,5857" stroke="blue" stroke-width="2" />
<path d="M1756,1026 L789,6700" stroke="blue" stroke-width="2" />
<path d="M4551,3961 L1622,2634" stroke="blue" stroke-width="2" />
<path d="M1231,3009 L912,6232" stroke="blue" stroke-width="2" />
<path d="M1015,1769 L4161,4042" stroke="blue" stroke-width="2" />
<path d="M2069,3319 L5970,4602" stroke="blue" stroke-width="2" />
<path d="M2066,6973 L5774,5876" stroke="blue" stroke-width="2" />
<path d="M4794,847 L5149,3832" stroke="blue" stroke-width="2" />
<path d="M1690,2074 L3671,3111" stroke="blue" stroke-width="2" />
<path d="M5202,6498 L1728,598" stroke="blue" stroke-width="2" />
<path d="M3274,4383 L4998,2535" stroke="blue" stroke-width="2" />
<path d="M4938,960 L6112,4834" stroke="blue" stroke-width="2" />
<path d="M2949,1114 L4617,7185" stroke="blue" stroke-width="2" />
<path d="M340,6820 L1312,4164" stroke="blue" stroke-width="2" />
<path d="M259,4869 L1597,1046" stroke="blue" stroke-width="2" />
<path d="M1691,4819 L5141,5554" stroke="blue" stroke-width="2" />
<path d="M6001,3587 L1648,2440" stroke="blue" stroke-width="2" />
<path d="M2043,6755 L818,4055" stroke="blue" stroke-width="2" />
<path d="M3761,7230 L5953,1724" stroke="blue" stroke-width="2" />
<path d="M5365,1897 L1744,4110" stroke="blue" stroke-width="2" />
<path d="M719,2489 L4676,2424" stroke="blue" stroke-width="2" />
<path d="M5693,524 L2947,3499" stroke="blue" stroke-width="2" />
<path d="M5878,4469 L1665,159" stroke="blue" stroke-width="2" />
<path d="M5581,587 L4866,1232" stroke="blue" stroke-width="2" />
<path d="M5696,2197 L3282,1100" stroke="blue" stroke-width="2" />
<path d="M5383,3997 L4313,3992" stroke="blue" stroke-width="2" />
<path d="M2319,6972 L3986,4591" stroke="blue" stroke-width="2" />
<path d="M2419,6650 L231,5480" stroke="blue" stroke-width="2" />
<path d="M4248,2677 L1211,3560" stroke="blue" stroke-width="2" />
<path d="M88,998 L847,3247" stroke="blue" stroke-width="2" />
<path d="M5661,4536 L5964,3709" stroke="blue" stroke-width="2" />
<path d="M3500,6612 L5339,96" stroke="blue" stroke-width="2" />
<path d="M3569,3160 L2759,7059" stroke="blue" stroke-width="2" />
<path d="M1015,3216 L2807,34" stroke="blue" stroke-width="2" />
<path d="M1825,4701 L2178,5660" stroke="blue" stroke-width="2" />
<path d="M1867,6877 L1447,5778" stroke="blue" stroke-width="2" />
<path d="M6213,153 L4391,4257" stroke="blue" stroke-width="2" />
<path d="M1341,7163 L4183,6978" stroke="blue" stroke-width="2" />
<path d="M4746,3673 L6293,3370" stroke="blue" stroke-width="2" />
<path d="M0,0 L6295,0" stroke="red" stroke-width="10" />
<path d="M6295,0 L6295,7262" stroke="red" stroke-width="10" />
<path d="M0,7262 L6295,7262" stroke="red" stroke-width="10" />
<path d="M0,7262 L0,0" stroke="red" stroke-width="10" />
</svg>