<?xml version="1.0" encoding="UTF-8"?>
<svg xmlns="http://www.w3.org/2000/svg" xmlns:xlink="http://www.w3.org/1999/xlink"
     width="10000" height="10000" viewBox="0 0 10000 10000">
<defs>
</defs>
<path d="M1705,6690 L74,369" stroke="blue" stroke-width="2" />
<path d="M1777,1883 L724,7174" stroke="blue" stroke-width="2" />
<path d="M1409,6773 L887,4449" stroke="blue" stroke-width="2" />
<path d="M741,7351 L510,2501" stroke="blue" stroke-width="2" />
<path d="M643,118 L1331,4390" stroke="blue" stroke-width="2" />
<path d="M1836,1090 L1078,8215" stroke="blue" stroke-width="2" />
<path d="M1508,7876 L504,5191" stroke="blue" stroke-width="2" />
<path d="M729,2432 L1511,4387" stroke="blue" stroke-width="2" />
<path d="M861,4007 L1087,7951" stroke="blue" stroke-width="2" />
<path d="M1631,8168 L164,5883" stroke="blue" stroke-width="2" />
<path d="M252,6659 L858,1216" stroke="blue" stroke-width="2" />
<path d="M1777,1619 L57,2479" stroke="blue" stroke-width="2" />
<path d="M1055,4860 L1213,4969" stroke="blue" stroke-width="2" />
<path d="M1515,1803 L627,2181" stroke="blue" stroke-width="2" />
<path d="M1684,6004 L312,2739" stroke="blue" stroke-width="2" />
<path d="M1556,7160 L202,6010" stroke="blue" stroke-width="2" />
<path d="M1573,4577 L1677,6993" stroke="blue" stroke-width="2" />
<path d="M831,2681 L643,4007" stroke="blue" stroke-width="2" />
<path d="M676,1490 L1177,385" stroke="blue" stroke-width="2" />
<path d="M1652,7935 L280,5856" stroke="blue" stroke-width="2" />
<path d="M475,3865 L221,3363" stroke="blue" stroke-width="2" />
<path d="M669,4563 L225,6150" stroke="blue" stroke-width="2" />
<path d="M602,4930 L1420,7285" stroke="blue" stroke-width="2" />
<path d="M1368,5545 L748,1736" stroke="blue" stroke-width="2" />
<path d="M1096,8536 L452,7979" stroke="blue" stroke-width="2" />
<path d="M1407,8382 L67,7425" stroke="blue" stroke-width="2" />
<path d="M1151,124 L89,7921" stroke="blue" stroke-width="2" />
<path d="M1558,7560 L62,5583" stroke="blue" stroke-width="2" />
<path d="M1435,3976 L67,3802" stroke="blue" stroke-width="2" />
<path d="M1712,2387 L878,5167" stroke="blue" stroke-width="2" />
<path d="M730,4616 L1044,7712" stroke="blue" stroke-width="2" />
<path d="M1295,8201 L1308,2036" stroke="blue" stroke-width="2" />
<path d="M1577,4173 L803,500" stroke="blue" stroke-width="2" />
<path d="M337,754 L1410,5828" stroke="blue" stroke-width="2" />
<path d="M1656,7532 L1819,2566" stroke="blue" stroke-width="2" />
<path d="M221,2757 L76,5980" stroke="blue" stroke-width="2" />
<path d="M1483,8492 L1104,933" stroke="blue" stroke-width="2" />
<path d="M806,5860 L594,35" stroke="blue" stroke-width="2" />
<path d="M510,5442 L203,2763" stroke="blue" stroke-width="2" />
<path d="M856,1691 L559,3836" stroke="blue" stroke-width="2" />
<path d="M1719,6939 L1795,5127" stroke="blue" stroke-width="2" />
<path d="M1148,8186 L682,1769" stroke="blue" stroke-width="2" />
<path d="M378,7575 L1384,2722" stroke="blue" stroke-width="2" />
<path d="M880,51 L823,2807" stroke="blue" stroke-width="2" />
<path d="M689,6116 L1712,8131" stroke="blue" stroke-width="2" />
<path d="M1833,2003 L462,5440" stroke="blue" stroke-width="2" />
<path d="M169,4495 L753,8398" stroke="blue" stroke-width="2" />
<path d="M1006,6388 L1315,3571" stroke="blue" stroke-width="2" />
<path d="M554,2272 L778,4428" stroke="blue" stroke-width="2" />
<path d="M1150,96 L722,7859" stroke="blue" stroke-width="2" />
<path d="M1671,3005 L589,6860" stroke="blue" stroke-width="2" />
<path d="M1538,1879 L843,5221" stroke="blue" stroke-width="2" />
<path d="M887,2676 L1602,8193" stroke="blue" stroke-width="2" />
<path d="M454,6130 L1833,850" stroke="blue" stroke-width="2" />
<path d="M540,2568 L1149,3318" stroke="blue" stroke-width="2" />
<path d="M165,7139 L542,662" stroke="blue" stroke-width="2" />
<path d="M761,7036 L312,8308" stroke="blue" stroke-width="2" />
<path d="M1272,3197 L1850,1133" stroke="blue" stroke-width="2" />
<path d="M975,2868 L686,62" stroke="blue" stroke-width="2" />
<path d="M1451,5195 L337,7617" stroke="blue" stroke-width="2" />
<path d="M109,2521 L911,7151" stroke="blue" stroke-width="2" />
<path d="M1424,8666 L1550,3674" stroke="blue" stroke-width="2" />
<path d="M362,4730 L412,285" stroke="blue" stroke-width="2" />
<path d="M1655,2405 L650,2360" stroke="blue" stroke-width="2" />
<path d="M1796,499 L118,3452" stroke="blue" stroke-width="2" />
<path d="M1150,6403 L541,5619" stroke="blue" stroke-width="2" />
<path d="M1503,5342 L1564,5205" stroke="blue" stroke-width="2" />
<path d="M270,8264 L1839,2930" stroke="blue" stroke-width="2" />
<path d="M1746,6695 L75,8290" stroke="blue" stroke-width="2" />
<path d="M766,7286 L1374,8062" stroke="blue" stroke-width="2" />
<path d="M1693,6940 L763,5561" stroke="blue" stroke-width="2" />
<path d="M1314,8394 L539,7123" stroke="blue" stroke-width="2" />
<path d="M801,7365 L520,2591" stroke="blue" stroke-width="2" />
<path d="M545,4935 L908,1394" stroke="blue" stroke-width="2" />
<path d="M1791,2899 L1167,7956" stroke="blue" stroke-width="2" />
<path d="M673,8246 L886,809" stroke="blue" stroke-width="2" />
<path d="M1283,6651 L1461,8053" stroke="blue" stroke-width="2" />
<path d="M836,5668 L818,7530" stroke="blue" stroke-width="2" />
<path d="M474,1851 L843,5650" stroke="blue" stroke-width="2" />
<path d="M87,4055 L967,4590" stroke="blue" stroke-width="2" />
<path d="M1372,1768 L746,6152" stroke="blue" stroke-width="2" />
<path d="M267,6583 L820,862" stroke="blue" stroke-width="2" />
<path d="M658,2838 L1032,177" stroke="blue" stroke-width="2" />
<path d="M1802,3164 L776,6542" stroke="blue" stroke-width="2" />
<path d="M1066,1469 L1751,7050" stroke="blue" stroke-width="2" />
<path d="M154,1707 L243,3300" stroke="blue" stroke-width="2" />
<path d="M494,6005 L296,157" stroke="blue" stroke-width="2" />
<path d="M1084,8120 L454,4027" stroke="blue" stroke-width="2" />
<path d="M868,7953 L1789,7722" stroke="blue" stroke-width="2" />
<path d="M1501,8213 L1223,6517" stroke="blue" stroke-width="2" />
<path d="M1219,8050 L1843,7096" stroke="blue" stroke-width="2" />
<path d="M1211,3819 L1779,1179" stroke="blue" stroke-width="2" />
<path d="M1637,6502 L202,622" stroke="blue" stroke-width="2" />
<path d="M43,1759 L1581,6362" stroke="blue" stroke-width="2" />
<path d="M1703,5581 L110,7452" stroke="blue" stroke-width="2" />
<path d="M829,1894 L768,3487" stroke="blue" stroke-width="2" />
<path d="M634,7081 L652,315" stroke="blue" stroke-width="2" />
<path d="M1577,581 L1052,6671" stroke="blue" stroke-width="2" />
<path d="M1125,4082 L1235,2777" stroke="blue" stroke-width="2" />
<path d="M969,1831 L325,7694" stroke="blue" stroke-width="2" />
<path d="M259,4110 L624,3565" stroke="blue" stroke-width="2" />
<path d="M1187,2617 L1197,2377" stroke="blue" stroke-width="2" />
<path d="M1410,5988 L822,2076" stroke="blue" stroke-width="2" />
<path d="M1590,4511 L1836,6376" stroke="blue" stroke-width="2" />
<path d="M957,606 L12,479" stroke="blue" stroke-width="2" />
<path d="M1704,3411 L146,2740" stroke="blue" stroke-width="2" />
<path d="M1157,2372 L1236,3136" stroke="blue" stroke-width="2" />
<path d="M75,302 L222,1297" stroke="blue" stroke-width="2" />
<path d="M1488,2017 L374,5945" stroke="blue" stroke-width="2" />
<path d="M460,3289 L222,6473" stroke="blue" stroke-width="2" />
<path d="M1773,430 L687,7473" stroke="blue" stroke-width="2" />
<path d="M372,4864 L761,5039" stroke="blue" stroke-width="2" />
<path d="M1488,5896 L929,7488" stroke="blue" stroke-width="2" />
<path d="M1041,2224 L365,7685" stroke="blue" stroke-width="2" />
<path d="M1748,5232 L478,4788" stroke="blue" stroke-width="2" />
<path d="M1756,1847 L771,4219" stroke="blue" stroke-width="2" />
<path d="M1202,8515 L1130,3497" stroke="blue" stroke-width="2" />
<path d="M1288,2115 L868,1296" stroke="blue" stroke-width="2" />
<path d="M1267,4773 L961,3307" stroke="blue" stroke-width="2" />
<path d="M1426,2748 L1366,2240" stroke="blue" stroke-width="2" />
<path d="M358,5662 L1404,8486" stroke="blue" stroke-width="2" />
<path d="M686,7485 L1618,411" stroke="blue" stroke-width="2" />
<path d="M1228,3508 L315,3460" stroke="blue" stroke-width="2" />
<path d="M139,4479 L452,1363" stroke="blue" stroke-width="2" />
<path d="M360,7950 L349,2054" stroke="blue" stroke-width="2" />
<path d="M1142,6841 L762,1677" stroke="blue" stroke-width="2" />
<path d="M1139,8573 L220,758" stroke="blue" stroke-width="2" />
<path d="M627,4480 L117,3530" stroke="blue" stroke-width="2" />
<path d="M1633,2117 L839,6975" stroke="blue" stroke-width="2" />
<path d="M458,3752 L357,4614" stroke="blue" stroke-width="2" />
<path d="M240,2999 L433,2739" stroke="blue" stroke-width="2" />
<path d="M988,1132 L1359,7805" stroke="blue" stroke-width="2" />
<path d="M531,5765 L1386,3587" stroke="blue" stroke-width="2" />
<path d="M1197,4038 L1187,5594" stroke="blue" stroke-width="2" />
<path d="M875,6488 L740,1335" stroke="blue" stroke-width="2" />
<path d="M422,673 L1069,4468" stroke="blue" stroke-width="2" />
<path d="M761,3315 L898,6852" stroke="blue" stroke-width="2" />
<path d="M1090,7845 L1748,4711" stroke="blue" stroke-width="2" />
<path d="M750,1081 L232,5224" stroke="blue" stroke-width="2" />
<path d="M1549,4701 L263,2610" stroke="blue" stroke-width="2" />
<path d="M266,933 L1579,3212" stroke="blue" stroke-width="2" />
<path d="M1686,1268 L1412,3068" stroke="blue" stroke-width="2" />
<path d="M675,5888 L1170,2389" stroke="blue" stroke-width="2" />
<path d="M1823,699 L659,8437" stroke="blue" stroke-width="2" />
<path d="M1527,1812 L152,3667" stroke="blue" stroke-width="2" />
<path d="M1548,184 L1713,2207" stroke="blue" stroke-width="2" />
<path d="M1529,750 L141,7783" stroke="blue" stroke-width="2" />
<path d="M1459,4256 L294,6672" stroke="blue" stroke-width="2" />
<path d="M553,3688 L827,4003" stroke="blue" stroke-width="2" />
<path d="M1090,3960 L574,1378" stroke="blue" stroke-width="2" />
<path d="M1566,601 L1605,3802" stroke="blue" stroke-width="2" />
<path d="M677,6644 L1792,4951" stroke="blue" stroke-width="2" />
<path d="M392,8402 L983,2490" stroke="blue" stroke-width="2" />
<path d="M1479,6090 L882,506" stroke="blue" stroke-width="2" />
<path d="M1118,7561 L537,1784" stroke="blue" stroke-width="2" />
<path d="M631,1430 L1388,4899" stroke="blue" stroke-width="2" />
<path d="M631,430 L920,5978" stroke="blue" stroke-width="2" />
<path d="M1660,7031 L682,7757" stroke="blue" stroke-width="2" />
<path d="M718,1198 L291,2264" stroke="blue" stroke-width="2" />
<path d="M130,4179 L1519,8041" stroke="blue" stroke-width="2" />
<path d="M1286,5239 L644,726" stroke="blue" stroke-width="2" />
<path d="M464,4247 L65,4175" stroke="blue" stroke-width="2" />
<path d="M686,4545 L1846,6346" stroke="blue" stroke-width="2" />
<path d="M1292,1049 L880,1696" stroke="blue" stroke-width="2" />
<path d="M253,5170 L797,471" stroke="blue" stroke-width="2" />
<path d="M45,8173 L1316,6781" stroke="blue" stroke-width="2" />
<path d="M1066,4097 L1780,4549" stroke="blue" stroke-width="2" />
<path d="M1676,4667 L89,3976" stroke="blue" stroke-width="2" />
<path d="M1392,5184 L1653,7793" stroke="blue" stroke-width="2" />
<path d="M577,3897 L1585,1035" stroke="blue" stroke-width="2" />
<path d="M995,6127 L1671,632" stroke="blue" stroke-width="2" />
<path d="M23,3803 L1063,2849" stroke="blue" stroke-width="2" />
<path d="M1757,7095 L1510,5524" stroke="blue" stroke-width="2" />
<path d="M158,4939 L13,409" stroke="blue" stroke-width="2" />
<path d="M1711,722 L728,6213" stroke="blue" stroke-width="2" />
<path d="M985,7099 L267,8323" stroke="blue" stroke-width="2" />
<path d="M659,6849 L1426,3372" stroke="blue" stroke-width="2" />
<path d="M988,8436 L601,5739" stroke="blue" stroke-width="2" />
<path d="M1426,5073 L1637,1962" stroke="blue" stroke-width="2" />
<path d="M1673,3401 L1643,3163" stroke="blue" stroke-width="2" />
<path d="M1089,2014 L1376,1871" stroke="blue" stroke-width="2" />
<path d="M53,4550 L666,40" stroke="blue" stroke-width="2" />
<path d="M103,8458 L898,2438" stroke="blue" stroke-width="2" />
<path d="M542,4295 L1747,10" stroke="blue" stroke-width="2" />
<path d="M1176,7720 L682,7738" stroke="blue" stroke-width="2" />
<path d="M932,557 L1204,389" stroke="blue" stroke-width="2" />
<path d="M612,6857 L1182,4262" stroke="blue" stroke-width="2" />
<path d="M890,1432 L508,3019" stroke="blue" stroke-width="2" />
<path d="M1829,584 L716,7155" stroke="blue" stroke-width="2" />
<path d="M1075,4032 L260,2716" stroke="blue" stroke-width="2" />
<path d="M428,5103 L1354,2506" stroke="blue" stroke-width="2" />
<path d="M907,4687 L1249,5940" stroke="blue" stroke-width="2" />
<path d="M525,4667 L1202,5706" stroke="blue" stroke-width="2" />
<path d="M1702,4878 L600,1364" stroke="blue" stroke-width="2" />
<path d="M500,2127 L926,3419" stroke="blue" stroke-width="2" />
<path d="M1009,5593 L108,1519" stroke="blue" stroke-width="2" />
<path d="M516,6892 L1037,4617" stroke="blue" stroke-width="2" />
<path d="M1121,6640 L1398,7686" stroke="blue" stroke-width="2" />
<path d="M1363,1845 L31,8306" stroke="blue" stroke-width="2" />
<path d="M38,8190 L516,5851" stroke="blue" stroke-width="2" />
<path d="M1749,4720 L820,4742" stroke="blue" stroke-width="2" />
<path d="M1498,4338 L296,21" stroke="blue" stroke-width="2" />
<path d="M953,5165 L541,1897" stroke="blue" stroke-width="2" />
<path d="M1629,3015 L839,3327" stroke="blue" stroke-width="2" />
<path d="M206,1085 L1764,6626" stroke="blue" stroke-width="2" />
<path d="M1363,741 L1749,2724" stroke="blue" stroke-width="2" />
<path d="M1243,840 L1437,1996" stroke="blue" stroke-width="2" />
<path d="M27,6881 L1450,6409" stroke="blue" stroke-width="2" />
<path d="M165,3095 L328,7604" stroke="blue" stroke-width="2" />
<path d="M626,6282 L1531,8279" stroke="blue" stroke-width="2" />
<path d="M1171,4778 L1733,8174" stroke="blue" stroke-width="2" />
<path d="M165,4327 L1518,7192" stroke="blue" stroke-width="2" />
<path d="M311,2932 L101,7322" stroke="blue" stroke-width="2" />
<path d="M1621,5870 L1397,3786" stroke="blue" stroke-width="2" />
<path d="M1759,5757 L1327,4939" stroke="blue" stroke-width="2" />
<path d="M1005,4940 L1291,7612" stroke="blue" stroke-width="2" />
<path d="M692,7818 L480,6720" stroke="blue" stroke-width="2" />
<path d="M1272,2586 L614,749" stroke="blue" stroke-width="2" />
<path d="M1202,2007 L980,5825" stroke="blue" stroke-width="2" />
<path d="M290,2564 L1835,5974" stroke="blue" stroke-width="2" />
<path d="M426,4641 L876,3820" stroke="blue" stroke-width="2" />
<path d="M632,3300 L1531,3764" stroke="blue" stroke-width="2" />
<path d="M1358,6251 L1246,5731" stroke="blue" stroke-width="2" />
<path d="M728,1431 L800,8291" stroke="blue" stroke-width="2" />
<path d="M1545,4047 L280,3146" stroke="blue" stroke-width="2" />
<path d="M445,5228 L492,4232" stroke="blue" stroke-width="2" />
<path d="M544,6984 L1744,3377" stroke="blue" stroke-width="2" />
<path d="M181,739 L702,3023" stroke="blue" stroke-width="2" />
<path d="M495,6539 L1453,644" stroke="blue" stroke-width="2" />
<path d="M679,8484 L270,2356" stroke="blue" stroke-width="2" />
<path d="M1753,6932 L704,2405" stroke="blue" stroke-width="2" />
<path d="M510,278 L1829,5817" stroke="blue" stroke-width="2" />
<path d="M152,8405 L1360,6465" stroke="blue" stroke-width="2" />
<path d="M1149,6054 L1468,7111" stroke="blue" stroke-width="2" />
<path d="M1709,5004 L1643,3921" stroke="blue" stroke-width="2" />
<path d="M1288,337 L245,1055" stroke="blue" stroke-width="2" />
<path d="M1810,2002 L1443,1755" stroke="blue" stroke-width="2" />
<path d="M67,4042 L1508,3900" stroke="blue" stroke-width="2" />
<path d="M295,4476 L1450,3039" stroke="blue" stroke-width="2" />
<path d="M1463,5881 L1547,6310" stroke="blue" stroke-width="2" />
<path d="M521,1897 L127,6451" stroke="blue" stroke-width="2" />
<path d="M1295,1038 L776,4855" stroke="blue" stroke-width="2" />
<path d="M1110,6951 L142,8651" stroke="blue" stroke-width="2" />
<path d="M214,1445 L475,3362" stroke="blue" stroke-width="2" />
<path d="M1642,1015 L897,2773" stroke="blue" stroke-width="2" />
<path d="M871,4608 L1766,1537" stroke="blue" stroke-width="2" />
<path d="M208,7928 L181,7155" stroke="blue" stroke-width="2" />
<path d="M1495,6739 L59,7615" stroke="blue" stroke-width="2" />
<path d="M582,1745 L215,6446" stroke="blue" stroke-width="2" />
<path d="M623,1905 L293,97" stroke="blue" stroke-width="2" />
<path d="M189,1148 L1786,2787" stroke="blue" stroke-width="2" />
<path d="M1017,5062 L1798,5812" stroke="blue" stroke-width="2" />
<path d="M1758,4205 L1566,2248" stroke="blue" stroke-width="2" />
<path d="M288,6641 L363,7636" stroke="blue" stroke-width="2" />
<path d="M1662,4399 L1484,800" stroke="blue" stroke-width="2" />
<path d="M463,6903 L1299,3742" stroke="blue" stroke-width="2" />
<path d="M372,7058 L345,2892" stroke="blue" stroke-width="2" />
<path d="M1404,637 L1107,4342" stroke="blue" stroke-width="2" />
<path d="M1350,7696 L941,6501" stroke="blue" stroke-width="2" />
<path d="M315,7855 L900,1421" stroke="blue" stroke-width="2" />
<path d="M300,5776 L1233,1777" stroke="blue" stroke-width="2" />
<path d="M991,7585 L1285,5175" stroke="blue" stroke-width="2" />
<path d="M170,6517 L1208,4570" stroke="blue" stroke-width="2" />
<path d="M862,1773 L1451,6106" stroke="blue" stroke-width="2" />
<path d="M1561,4015 L324,6960" stroke="blue" stroke-width="2" />
<path d="M747,7725 L493,6978" stroke="blue" stroke-width="2" />
<path d="M877,3606 L889,6361" stroke="blue" stroke-width="2" />
<path d="M238,2051 L273,6283" stroke="blue" stroke-width="2" />
<path d="M164,8153 L1685,5960" stroke="blue" stroke-width="2" />
<path d="M228,3482 L1027,8147" stroke="blue" stroke-width="2" />
<path d="M98,8640 L1134,2790" stroke="blue" stroke-width="2" />
<path d="M1007,6754 L310,8204" stroke="blue" stroke-width="2" />
<path d="M485,192 L430,491" stroke="blue" stroke-width="2" />
<path d="M1495,7037 L494,5200" stroke="blue" stroke-width="2" />
<path d="M824,1485 L65,777" stroke="blue" stroke-width="2" />
<path d="M373,2215 L249,6491" stroke="blue" stroke-width="2" />
<path d="M1709,5717 L381,5012" stroke="blue" stroke-width="2" />
<path d="M902,5989 L1184,7915" stroke="blue" stroke-width="2" />
<path d="M1010,3468 L1425,6385" stroke="blue" stroke-width="2" />
<path d="M1414,3873 L398,1349" stroke="blue" stroke-width="2" />
<path d="M1362,218 L632,2759" stroke="blue" stroke-width="2" />
<path d="M1216,278 L1040,5478" stroke="blue" stroke-width="2" />
<path d="M867,3964 L809,4165" stroke="blue" stroke-width="2" />
<path d="M139,46 L1060,3982" stroke="blue" stroke-width="2" />
<path d="M761,1078 L1168,99" stroke="blue" stroke-width="2" />
<path d="M497,328 L1031,284" stroke="blue" stroke-width="2" />
<path d="M1653,7886 L1095,2107" stroke="blue" stroke-width="2" />
<path d="M1507,1866 L15,5585" stroke="blue" stroke-width="2" />
<path d="M1817,5410 L1544,5974" stroke="blue" stroke-width="2" />
<path d="M1400,7793 L378,2310" stroke="blue" stroke-width="2" />
<path d="M815,7822 L652,3542" stroke="blue" stroke-width="2" />
<path d="M1652,6186 L440,1846" stroke="blue" stroke-width="2" />
<path d="M552,8351 L646,495" stroke="blue" stroke-width="2" />
<path d="M1416,5854 L1569,1841" stroke="blue" stroke-width="2" />
<path d="M961,5086 L170,1213" stroke="blue" stroke-width="2" />
<path d="M1457,6457 L996,873" stroke="blue" stroke-width="2" />
<path d="M398,1605 L974,6160" stroke="blue" stroke-width="2" />
<path d="M306,8671 L94,6957" stroke="blue" stroke-width="2" />
<path d="M556,8613 L8,4878" stroke="blue" stroke-width="2" />
<path d="M1141,1239 L916,2554" stroke="blue" stroke-width="2" />
<path d="M666,487 L523,2977" stroke="blue" stroke-width="2" />
<path d="M1116,5334 L1688,3317" stroke="blue" stroke-width="2" />
<path d="M119,3259 L1322,4495" stroke="blue" stroke-width="2" />
<path d="M597,3902 L1772,2021" stroke="blue" stroke-width="2" />
<path d="M1538,2219 L761,178" stroke="blue" stroke-width="2" />
<path d="M272,7819 L1127,626" stroke="blue" stroke-width="2" />
<path d="M741,6676 L1524,3035" stroke="blue" stroke-width="2" />
<path d="M1087,2784 L850,6216" stroke="blue" stroke-width="2" />
<path d="M905,7263 L1747,3974" stroke="blue" stroke-width="2" />
<path d="M578,186 L83,4146" stroke="blue" stroke-width="2" />
<path d="M1273,6185 L1029,3534" stroke="blue" stroke-width="2" />
<path d="M124,3780 L389,5889" stroke="blue" stroke-width="2" />
<path d="M93,7562 L1830,277" stroke="blue" stroke-width="2" />
<path d="M149,5489 L1499,585" stroke="blue" stroke-width="2" />
<path d="M1205,4695 L509,225" stroke="blue" stroke-width="2" />
<path d="M963,2913 L1293,8476" stroke="blue" stroke-width="2" />
<path d="M559,5266 L663,577" stroke="blue" stroke-width="2" />
<path d="M695,4456 L228,5231" stroke="blue" stroke-width="2" />
<path d="M435,8011 L1131,482" stroke="blue" stroke-width="2" />
<path d="M685,2626 L1106,4371" stroke="blue" stroke-width="2" />
<path d="M697,4040 L634,3836" stroke="blue" stroke-width="2" />
<path d="M525,3883 L5,387" stroke="blue" stroke-width="2" />
<path d="M1450,3201 L741,8125" stroke="blue" stroke-width="2" />
<path d="M796,4783 L801,6487" stroke="blue" stroke-width="2" />
<path d="M241,4381 L844,8663" stroke="blue" stroke-width="2" />
<path d="M2,3537 L1737,7920" stroke="blue" stroke-width="2" />
<path d="M1056,7329 L80,2583" stroke="blue" stroke-width="2" />
<path d="M1415,1773 L511,2047" stroke="blue" stroke-width="2" />
<path d="M844,4529 L1117,2814" stroke="blue" stroke-width="2" />
<path d="M309,2083 L873,5553" stroke="blue" stroke-width="2" />
<path d="M1132,140 L65,2469" stroke="blue" stroke-width="2" />
<path d="M83,985 L22,4079" stroke="blue" stroke-width="2" />
<path d="M699,4400 L173,8468" stroke="blue" stroke-width="2" />
<path d="M1680,8200 L891,201" stroke="blue" stroke-width="2" />
<path d="M1077,5064 L1088,2863" stroke="blue" stroke-width="2" />
<path d="M1807,7283 L1544,3713" stroke="blue" stroke-width="2" />
<path d="M1041,1647 L373,61" stroke="blue" stroke-width="2" />
<path d="M512,6427 L1695,2655" stroke="blue" stroke-width="2" />
<path d="M339,2325 L909,551" stroke="blue" stroke-width="2" />
<path d="M194,3265 L996,352" stroke="blue" stroke-width="2" />
<path d="M610,6392 L939,4492" stroke="blue" stroke-width="2" />
<path d="M1159,8146 L1151,1999" stroke="blue" stroke-width="2" />
<path d="M1159,6539 L1229,4448" stroke="blue" stroke-width="2" />
<path d="M0,0 L1858,0" stroke="red" stroke-width="10" />
<path d="M1858,0 L1858,8689" stroke="red" stroke-width="10" />
<path d="M0,8689 L1858,8689" stroke="red" stroke-width="10" />
<path d="M0,8689 L0,0" stroke="red" stroke-width="10" />
</svg>