<?xml version="1.0" encoding="UTF-8"?>
<svg xmlns="http://www.w3.org/2000/svg" xmlns:xlink="http://www.w3.org/1999/xlink"
     width="10000" height="10000" viewBox="0 0 10000 10000">
<defs>
</defs>
<path d="M530,8036 L83,7474" stroke="blue" stroke-width="2" />
<path d="M627,5864 L288,6334" stroke="blue" stroke-width="2" />
<path d="M704,5741 L2646,538" stroke="blue" stroke-width="2" />
<path d="M2332,3052 L1692,896" stroke="blue" stroke-width="2" />
<path d="M2243,4556 L688,864" stroke="blue" stroke-width="2" />
<path d="M2054,4858 L1256,7589" stroke="blue" stroke-width="2" />
<path d="M1142,2823 L911,7452" stroke="blue" stroke-width="2" />
<path d="M1705,7727 L2220,5229" stroke="blue" stroke-width="2" />
<path d="M1785,3767 L604,1149" stroke="blue" stroke-width="2" />
<path d="M1999,1010 L505,940" stroke="blue" stroke-width="2" />
<path d="M2178,587 L1919,3161" stroke="blue" stroke-width="2" />
<path d="M1598,7776 L947,4271" stroke="blue" stroke-width="2" />
<path d="M2249,3931 L2026,423" stroke="blue" stroke-width="2" />
<path d="M1112,2713 L1086,2691" stroke="blue" stroke-width="2" />
<path d="M154,435 L1642,6548" stroke="blue" stroke-width="2" />
<path d="M1131,7393 L1333,6109" stroke="blue" stroke-width="2" />
<path d="M1555,7118 L1316,620" stroke="blue" stroke-width="2" />
<path d="M2565,3662 L358,3940" stroke="blue" stroke-width="2" />
<path d="M2295,1840 L785,2074" stroke="blue" stroke-width="2" />
<path d="M1478,4429 L1256,5049" stroke="blue" stroke-width="2" />
<path d="M111,3070 L1866,2692" stroke="blue" stroke-width="2" />
<path d="M1982,1203 L963,3058" stroke="blue" stroke-width="2" />
<path d="M1500,3698 L1446,7474" stroke="blue" stroke-width="2" />
<path d="M1194,5579 L1137,2259" stroke="blue" stroke-width="2" />
<path d="M1238,7617 L1121,2404" stroke="blue" stroke-width="2" />
<path d="M1625,5985 L431,3223" stroke="blue" stroke-width="2" />
<path d="M1926,5966 L2384,5996" stroke="blue" stroke-width="2" />
<path d="M428,5908 L1461,2943" stroke="blue" stroke-width="2" />
<path d="M1605,365 L393,1804" stroke="blue" stroke-width="2" />
<path d="M1106,68 L1199,3472" stroke="blue" stroke-width="2" />
<path d="M1042,1523 L1327,1776" stroke="blue" stroke-width="2" />
<path d="M370,4899 L719,8809" stroke="blue" stroke-width="2" />
<path d="M1877,6733 L1652,8241" stroke="blue" stroke-width="2" />
<path d="M805,8918 L993,5903" stroke="blue" stroke-width="2" />
<path d="M871,7600 L1883,4311" stroke="blue" stroke-width="2" />
<path d="M448,8738 L1054,6970" stroke="blue" stroke-width="2" />
<path d="M725,2831 L1861,4892" stroke="blue" stroke-width="2" />
<path d="M437,5870 L606,5373" stroke="blue" stroke-width="2" />
<path d="M12,7354 L155,5952" stroke="blue" stroke-width="2" />
<path d="M467,3837 L1273,3534" stroke="blue" stroke-width="2" />
<path d="M2331,5288 L1268,380" stroke="blue" stroke-width="2" />
<path d="M1455,402 L1189,6754" stroke="blue" stroke-width="2" />
<path d="M1699,1496 L2639,712" stroke="blue" stroke-width="2" />
<path d="M2361,1167 L765,1475" stroke="blue" stroke-width="2" />
<path d="M2547,4420 L1916,4990" stroke="blue" stroke-width="2" />
<path d="M1789,6766 L1104,5476" stroke="blue" stroke-width="2" />
<path d="M2124,7057 L2199,4170" stroke="blue" stroke-width="2" />
<path d="M849,4967 L1531,1403" stroke="blue" stroke-width="2" />
<path d="M118,3268 L1232,821" stroke="blue" stroke-width="2" />
<path d="M2637,6696 L1713,3251" stroke="blue" stroke-width="2" />
<path d="M1746,8007 L1634,5625" stroke="blue" stroke-width="2" />
<path d="M260,2002 L2124,7336" stroke="blue" stroke-width="2" />
<path d="M268,6208 L277,4068" stroke="blue" stroke-width="2" />
<path d="M1133,3229 L2399,7268" stroke="blue" stroke-width="2" />
<path d="M526,1669 L1116,2938" stroke="blue" stroke-width="2" />
<path d="M134,8217 L1487,6140" stroke="blue" stroke-width="2" />
<path d="M2378,2017 L1957,4329" stroke="blue" stroke-width="2" />
<path d="M477,657 L2576,4705" stroke="blue" stroke-width="2" />
<path d="M87,987 L210,7878" stroke="blue" stroke-width="2" />
<path d="M1055,2327 L871,7663" stroke="blue" stroke-width="2" />
<path d="M1523,3874 L1937,6872" stroke="blue" stroke-width="2" />
<path d="M539,2880 L2027,6914" stroke="blue" stroke-width="2" />
<path d="M896,5247 L2009,7463" stroke="blue" stroke-width="2" />
<path d="M2125,1260 L1520,2648" stroke="blue" stroke-width="2" />
<path d="M1274,3649 L2113,3536" stroke="blue" stroke-width="2" />
<path d="M2003,4176 L980,8340" stroke="blue" stroke-width="2" />
<path d="M283,7548 L60,8413" stroke="blue" stroke-width="2" />
<path d="M1166,4133 L1189,8233" stroke="blue" stroke-width="2" />
<path d="M2323,7548 L2242,6964" stroke="blue" stroke-width="2" />
<path d="M1541,4350 L123,3385" stroke="blue" stroke-width="2" />
<path d="M2613,6603 L2530,2317" stroke="blue" stroke-width="2" />
<path d="M2043,2160 L818,1885" stroke="blue" stroke-width="2" />
<path d="M2263,2046 L70,2468" stroke="blue" stroke-width="2" />
<path d="M970,1489 L134,1327" stroke="blue" stroke-width="2" />
<path d="M1101,3529 L496,6755" stroke="blue" stroke-width="2" />
<path d="M552,4447 L1039,6223" stroke="blue" stroke-width="2" />
<path d="M1180,2209 L2218,8130" stroke="blue" stroke-width="2" />
<path d="M620,466 L2126,6055" stroke="blue" stroke-width="2" />
<path d="M994,873 L1954,378" stroke="blue" stroke-width="2" />
<path d="M560,8508 L2243,8405" stroke="blue" stroke-width="2" />
<path d="M1839,6687 L1908,123" stroke="blue" stroke-width="2" />
<path d="M233,8433 L1924,5157" stroke="blue" stroke-width="2" />
<path d="M2189,6387 L562,5892" stroke="blue" stroke-width="2" />
<path d="M2209,1117 L1469,7821" stroke="blue" stroke-width="2" />
<path d="M548,7762 L596,6302" stroke="blue" stroke-width="2" />
<path d="M789,7037 L2381,4371" stroke="blue" stroke-width="2" />
<path d="M2035,3859 L1138,1974" stroke="blue" stroke-width="2" />
<path d="M769,8093 L2253,3815" stroke="blue" stroke-width="2" />
<path d="M204,3775 L1551,1865" stroke="blue" stroke-width="2" />
<path d="M2481,3587 L406,4091" stroke="blue" stroke-width="2" />
<path d="M2019,161 L2546,7920" stroke="blue" stroke-width="2" />
<path d="M0,0 L2665,0" stroke="red" stroke-width="10" />
<path d="M2665,0 L2665,9000" stroke="red" stroke-width="10" />
<path d="M0,9000 L2665,9000" stroke="red" stroke-width="10" />
<path d="M0,9000 L0,0" stroke="red" stroke-width="10" />
</svg>