<?xml version="1.0" encoding="UTF-8"?>
<svg xmlns="http://www.w3.org/2000/svg" xmlns:xlink="http://www.w3.org/1999/xlink"
     width="10000" height="10000" viewBox="0 0 10000 10000">
<defs>
</defs>
<path d="M1180,4317 L2195,3585" stroke="blue" stroke-width="2" />
<path d="M89,4366 L303,936" stroke="blue" stroke-width="2" />
<path d="M1174,1182 L2664,2801" stroke="blue" stroke-width="2" />
<path d="M2149,2305 L1134,3195" stroke="blue" stroke-width="2" />
<path d="M1915,2803 L2378,2657" stroke="blue" stroke-width="2" />
<path d="M1871,4618 L2151,212" stroke="blue" stroke-width="2" />
<path d="M1717,1123 L1894,4682" stroke="blue" stroke-width="2" />
<path d="M1383,997 L2171,2586" stroke="blue" stroke-width="2" />
<path d="M1530,443 L1119,1091" stroke="blue" stroke-width="2" />
<path d="M1108,4112 L917,819" stroke="blue" stroke-width="2" />
<path d="M693,3804 L1960,2929" stroke="blue" stroke-width="2" />
<path d="M310,1458 L2029,2839" stroke="blue" stroke-width="2" />
<path d="M1664,391 L118,4393" stroke="blue" stroke-width="2" />
<path d="M2049,727 L1216,2357" stroke="blue" stroke-width="2" />
<path d="M2857,1178 L778,759" stroke="blue" stroke-width="2" />
<path d="M1419,352 L1631,2960" stroke="blue" stroke-width="2" />
<path d="M1148,3154 L683,1514" stroke="blue" stroke-width="2" />
<path d="M1229,2293 L787,1592" stroke="blue" stroke-width="2" />
<path d="M37,1622 L1516,2999" stroke="blue" stroke-width="2" />
<path d="M2165,3402 L1710,3827" stroke="blue" stroke-width="2" />
<path d="M2291,4799 L1060,160" stroke="blue" stroke-width="2" />
<path d="M602,2889 L1635,1487" stroke="blue" stroke-width="2" />
<path d="M51,4320 L2073,639" stroke="blue" stroke-width="2" />
<path d="M1588,3540 L90,626" stroke="blue" stroke-width="2" />
<path d="M12,2453 L1254,1995" stroke="blue" stroke-width="2" />
<path d="M307,591 L2469,1437" stroke="blue" stroke-width="2" />
<path d="M1564,3866 L36,4223" stroke="blue" stroke-width="2" />
<path d="M1082,1205 L2317,1495" stroke="blue" stroke-width="2" />
<path d="M1447,4447 L1844,1063" stroke="blue" stroke-width="2" />
<path d="M1109,2143 L1767,4069" stroke="blue" stroke-width="2" />
<path d="M2356,3050 L2364,725" stroke="blue" stroke-width="2" />
<path d="M2142,4279 L973,2095" stroke="blue" stroke-width="2" />
<path d="M1779,1169 L103,4587" stroke="blue" stroke-width="2" />
<path d="M245,4897 L189,9" stroke="blue" stroke-width="2" />
<path d="M2174,3262 L2761,681" stroke="blue" stroke-width="2" />
<path d="M2589,4630 L783,4004" stroke="blue" stroke-width="2" />
<path d="M635,1311 L1038,838" stroke="blue" stroke-width="2" />
<path d="M2764,1960 L92,3316" stroke="blue" stroke-width="2" />
<path d="M2048,1683 L2420,1327" stroke="blue" stroke-width="2" />
<path d="M1813,583 L2552,1299" stroke="blue" stroke-width="2" />
<path d="M1740,2457 L2030,2014" stroke="blue" stroke-width="2" />
<path d="M0,4347 L2228,2748" stroke="blue" stroke-width="2" />
<path d="M1126,3974 L2184,965" stroke="blue" stroke-width="2" />
<path d="M2195,3691 L2543,2131" stroke="blue" stroke-width="2" />
<path d="M2459,1738 L121,2181" stroke="blue" stroke-width="2" />
<path d="M1002,4905 L1927,2174" stroke="blue" stroke-width="2" />
<path d="M1838,2514 L1562,1455" stroke="blue" stroke-width="2" />
<path d="M1620,1025 L1220,4226" stroke="blue" stroke-width="2" />
<path d="M1891,189 L2809,1962" stroke="blue" stroke-width="2" />
<path d="M1219,2122 L1064,2458" stroke="blue" stroke-width="2" />
<path d="M1641,2877 L2197,885" stroke="blue" stroke-width="2" />
<path d="M1345,3828 L1661,755" stroke="blue" stroke-width="2" />
<path d="M854,3600 L343,2234" stroke="blue" stroke-width="2" />
<path d="M1324,3341 L1233,806" stroke="blue" stroke-width="2" />
<path d="M2733,683 L1021,4505" stroke="blue" stroke-width="2" />
<path d="M337,2129 L1428,2814" stroke="blue" stroke-width="2" />
<path d="M1628,3110 L527,2796" stroke="blue" stroke-width="2" />
<path d="M1960,3592 L1110,2570" stroke="blue" stroke-width="2" />
<path d="M1839,3625 L299,3116" stroke="blue" stroke-width="2" />
<path d="M2252,3546 L1961,838" stroke="blue" stroke-width="2" />
<path d="M2853,3896 L929,3165" stroke="blue" stroke-width="2" />
<path d="M2562,2868 L340,2410" stroke="blue" stroke-width="2" />
<path d="M2611,4025 L123,1985" stroke="blue" stroke-width="2" />
<path d="M2408,2229 L1605,2141" stroke="blue" stroke-width="2" />
<path d="M1705,4143 L2113,1547" stroke="blue" stroke-width="2" />
<path d="M2380,113 L294,1372" stroke="blue" stroke-width="2" />
<path d="M124,2854 L1307,1103" stroke="blue" stroke-width="2" />
<path d="M2071,4988 L1722,3956" stroke="blue" stroke-width="2" />
<path d="M1547,1564 L2843,2451" stroke="blue" stroke-width="2" />
<path d="M2272,3013 L1685,1651" stroke="blue" stroke-width="2" />
<path d="M2461,466 L2562,3554" stroke="blue" stroke-width="2" />
<path d="M435,273 L235,2405" stroke="blue" stroke-width="2" />
<path d="M1011,1091 L42,1856" stroke="blue" stroke-width="2" />
<path d="M2205,2642 L358,105" stroke="blue" stroke-width="2" />
<path d="M2547,3549 L47,157" stroke="blue" stroke-width="2" />
<path d="M499,3962 L2822,2188" stroke="blue" stroke-width="2" />
<path d="M2531,4347 L2644,116" stroke="blue" stroke-width="2" />
<path d="M1379,4085 L1362,4525" stroke="blue" stroke-width="2" />
<path d="M454,3124 L352,4377" stroke="blue" stroke-width="2" />
<path d="M406,3084 L1585,4322" stroke="blue" stroke-width="2" />
<path d="M2070,1501 L2310,3863" stroke="blue" stroke-width="2" />
<path d="M1157,391 L2528,2538" stroke="blue" stroke-width="2" />
<path d="M215,3524 L2409,3650" stroke="blue" stroke-width="2" />
<path d="M1501,4959 L245,796" stroke="blue" stroke-width="2" />
<path d="M2311,2981 L1420,141" stroke="blue" stroke-width="2" />
<path d="M2716,1121 L1558,2901" stroke="blue" stroke-width="2" />
<path d="M953,4826 L1367,2042" stroke="blue" stroke-width="2" />
<path d="M1984,3015 L879,694" stroke="blue" stroke-width="2" />
<path d="M1038,4120 L1059,4802" stroke="blue" stroke-width="2" />
<path d="M1086,1626 L1673,628" stroke="blue" stroke-width="2" />
<path d="M2443,449 L1730,2265" stroke="blue" stroke-width="2" />
<path d="M302,3278 L911,2717" stroke="blue" stroke-width="2" />
<path d="M1406,2293 L885,2989" stroke="blue" stroke-width="2" />
<path d="M1757,861 L1385,3703" stroke="blue" stroke-width="2" />
<path d="M1078,2597 L967,4813" stroke="blue" stroke-width="2" />
<path d="M2720,2336 L2018,2283" stroke="blue" stroke-width="2" />
<path d="M1123,321 L756,754" stroke="blue" stroke-width="2" />
<path d="M1347,4978 L1116,1180" stroke="blue" stroke-width="2" />
<path d="M2042,2981 L103,3464" stroke="blue" stroke-width="2" />
<path d="M1206,4544 L644,2418" stroke="blue" stroke-width="2" />
<path d="M1012,4495 L857,4392" stroke="blue" stroke-width="2" />
<path d="M2096,3877 L749,3650" stroke="blue" stroke-width="2" />
<path d="M713,1685 L2634,4105" stroke="blue" stroke-width="2" />
<path d="M258,668 L2242,3171" stroke="blue" stroke-width="2" />
<path d="M94,4510 L1989,506" stroke="blue" stroke-width="2" />
<path d="M2787,3353 L1406,218" stroke="blue" stroke-width="2" />
<path d="M2246,3266 L425,4792" stroke="blue" stroke-width="2" />
<path d="M1480,4382 L1839,872" stroke="blue" stroke-width="2" />
<path d="M824,3905 L950,3985" stroke="blue" stroke-width="2" />
<path d="M2851,10 L892,2904" stroke="blue" stroke-width="2" />
<path d="M2411,2211 L1358,2063" stroke="blue" stroke-width="2" />
<path d="M2693,4407 L2295,2350" stroke="blue" stroke-width="2" />
<path d="M1572,4536 L2359,1368" stroke="blue" stroke-width="2" />
<path d="M1463,4636 L1245,4545" stroke="blue" stroke-width="2" />
<path d="M56,1821 L393,243" stroke="blue" stroke-width="2" />
<path d="M2802,2099 L740,656" stroke="blue" stroke-width="2" />
<path d="M1139,2174 L72,3593" stroke="blue" stroke-width="2" />
<path d="M1095,4236 L222,3531" stroke="blue" stroke-width="2" />
<path d="M1840,1857 L1823,1065" stroke="blue" stroke-width="2" />
<path d="M402,846 L700,623" stroke="blue" stroke-width="2" />
<path d="M882,2623 L1476,652" stroke="blue" stroke-width="2" />
<path d="M2849,4647 L2084,1207" stroke="blue" stroke-width="2" />
<path d="M1066,2936 L303,4771" stroke="blue" stroke-width="2" />
<path d="M2447,3576 L198,2951" stroke="blue" stroke-width="2" />
<path d="M16,62 L1971,1835" stroke="blue" stroke-width="2" />
<path d="M390,2597 L1225,2959" stroke="blue" stroke-width="2" />
<path d="M1165,2701 L2000,2727" stroke="blue" stroke-width="2" />
<path d="M1864,3598 L1853,3523" stroke="blue" stroke-width="2" />
<path d="M449,386 L227,960" stroke="blue" stroke-width="2" />
<path d="M1776,4053 L530,568" stroke="blue" stroke-width="2" />
<path d="M84,1994 L1621,3627" stroke="blue" stroke-width="2" />
<path d="M1800,4193 L2034,3570" stroke="blue" stroke-width="2" />
<path d="M1286,3548 L2041,2631" stroke="blue" stroke-width="2" />
<path d="M2530,4076 L2588,1759" stroke="blue" stroke-width="2" />
<path d="M283,3449 L579,365" stroke="blue" stroke-width="2" />
<path d="M0,480 L2323,4923" stroke="blue" stroke-width="2" />
<path d="M457,2510 L2005,2543" stroke="blue" stroke-width="2" />
<path d="M1514,2007 L421,4982" stroke="blue" stroke-width="2" />
<path d="M799,4453 L125,1849" stroke="blue" stroke-width="2" />
<path d="M1594,1082 L1289,3881" stroke="blue" stroke-width="2" />
<path d="M746,823 L833,1309" stroke="blue" stroke-width="2" />
<path d="M722,619 L2764,4885" stroke="blue" stroke-width="2" />
<path d="M1390,3524 L2556,266" stroke="blue" stroke-width="2" />
<path d="M1852,3465 L463,2069" stroke="blue" stroke-width="2" />
<path d="M2077,1679 L2066,4058" stroke="blue" stroke-width="2" />
<path d="M2838,3798 L341,3268" stroke="blue" stroke-width="2" />
<path d="M2581,2714 L2484,1205" stroke="blue" stroke-width="2" />
<path d="M1354,3269 L356,4594" stroke="blue" stroke-width="2" />
<path d="M1805,685 L687,4590" stroke="blue" stroke-width="2" />
<path d="M1897,2632 L1195,1986" stroke="blue" stroke-width="2" />
<path d="M2622,1194 L1126,4888" stroke="blue" stroke-width="2" />
<path d="M285,113 L2151,505" stroke="blue" stroke-width="2" />
<path d="M2405,3029 L1807,792" stroke="blue" stroke-width="2" />
<path d="M2576,3555 L2713,2868" stroke="blue" stroke-width="2" />
<path d="M1855,255 L849,3485" stroke="blue" stroke-width="2" />
<path d="M1512,569 L697,4414" stroke="blue" stroke-width="2" />
<path d="M2232,4227 L780,2492" stroke="blue" stroke-width="2" />
<path d="M1502,2826 L2497,1356" stroke="blue" stroke-width="2" />
<path d="M767,726 L1273,2300" stroke="blue" stroke-width="2" />
<path d="M340,3359 L2429,4245" stroke="blue" stroke-width="2" />
<path d="M2214,4996 L2222,1244" stroke="blue" stroke-width="2" />
<path d="M251,2756 L2211,3662" stroke="blue" stroke-width="2" />
<path d="M1052,972 L1150,3751" stroke="blue" stroke-width="2" />
<path d="M1488,3272 L2134,3002" stroke="blue" stroke-width="2" />
<path d="M499,4504 L730,671" stroke="blue" stroke-width="2" />
<path d="M2192,512 L303,2892" stroke="blue" stroke-width="2" />
<path d="M1760,2427 L2843,3340" stroke="blue" stroke-width="2" />
<path d="M1238,3295 L2777,3480" stroke="blue" stroke-width="2" />
<path d="M1454,636 L664,4649" stroke="blue" stroke-width="2" />
<path d="M739,2682 L303,3061" stroke="blue" stroke-width="2" />
<path d="M1667,335 L1682,785" stroke="blue" stroke-width="2" />
<path d="M2559,4745 L2792,497" stroke="blue" stroke-width="2" />
<path d="M1887,480 L1110,3945" stroke="blue" stroke-width="2" />
<path d="M0,0 L2858,0" stroke="red" stroke-width="10" />
<path d="M2858,0 L2858,5013" stroke="red" stroke-width="10" />
<path d="M0,5013 L2858,5013" stroke="red" stroke-width="10" />
<path d="M0,5013 L0,0" stroke="red" stroke-width="10" />
</svg>