<?xml version="1.0" encoding="UTF-8"?>
<svg xmlns="http://www.w3.org/2000/svg" xmlns:xlink="http://www.w3.org/1999/xlink"
     width="10000" height="10000" viewBox="0 0 10000 10000">
<defs>
</defs>
<path d="M2794,5211 L5470,4665" stroke="blue" stroke-width="2" />
<path d="M4986,3720 L2536,3254" stroke="blue" stroke-width="2" />
<path d="M5605,2223 L204,2206" stroke="blue" stroke-width="2" />
<path d="M3671,3076 L6606,4406" stroke="blue" stroke-width="2" />
<path d="M4373,2098 L251,5842" stroke="blue" stroke-width="2" />
<path d="M3468,1410 L3397,3700" stroke="blue" stroke-width="2" />
<path d="M3634,5684 L4089,1101" stroke="blue" stroke-width="2" />
<path d="M2310,4558 L2230,1190" stroke="blue" stroke-width="2" />
<path d="M6078,2885 L1289,3242" stroke="blue" stroke-width="2" />
<path d="M3676,3016 L1302,563" stroke="blue" stroke-width="2" />
<path d="M189,4242 L1890,1320" stroke="blue" stroke-width="2" />
<path d="M3874,4103 L6530,4532" stroke="blue" stroke-width="2" />
<path d="M3308,1699 L2381,3443" stroke="blue" stroke-width="2" />
<path d="M1604,5114 L1904,2857" stroke="blue" stroke-width="2" />
<path d="M1660,4227 L2043,5813" stroke="blue" stroke-width="2" />
<path d="M286,1766 L2655,4535" stroke="blue" stroke-width="2" />
<path d="M1296,783 L3782,986" stroke="blue" stroke-width="2" />
<path d="M1044,2003 L4896,1028" stroke="blue" stroke-width="2" />
<path d="M4795,5194 L4905,2213" stroke="blue" stroke-width="2" />
<path d="M6015,4659 L4771,5232" stroke="blue" stroke-width="2" />
<path d="M5316,4672 L6008,5826" stroke="blue" stroke-width="2" />
<path d="M2253,3060 L1848,2304" stroke="blue" stroke-width="2" />
<path d="M3056,3348 L5661,2026" stroke="blue" stroke-width="2" />
<path d="M1964,4805 L6480,310" stroke="blue" stroke-width="2" />
<path d="M6317,5581 L6201,4898" stroke="blue" stroke-width="2" />
<path d="M4695,4496 L1308,5062" stroke="blue" stroke-width="2" />
<path d="M4110,5151 L1181,4845" stroke="blue" stroke-width="2" />
<path d="M2864,1284 L836,1863" stroke="blue" stroke-width="2" />
<path d="M761,4594 L5636,2135" stroke="blue" stroke-width="2" />
<path d="M983,2605 L1997,4872" stroke="blue" stroke-width="2" />
<path d="M525,3620 L1253,3913" stroke="blue" stroke-width="2" />
<path d="M204,4280 L2593,3233" stroke="blue" stroke-width="2" />
<path d="M2877,4385 L3021,721" stroke="blue" stroke-width="2" />
<path d="M4117,929 L493,1442" stroke="blue" stroke-width="2" />
<path d="M4214,4222 L5816,2440" stroke="blue" stroke-width="2" />
<path d="M544,1261 L4773,1200" stroke="blue" stroke-width="2" />
<path d="M2653,1531 L1744,1666" stroke="blue" stroke-width="2" />
<path d="M282,3676 L3897,421" stroke="blue" stroke-width="2" />
<path d="M5095,5215 L3161,3228" stroke="blue" stroke-width="2" />
<path d="M1815,3416 L4702,5539" stroke="blue" stroke-width="2" />
<path d="M2407,4674 L4122,1588" stroke="blue" stroke-width="2" />
<path d="M6037,3623 L825,2401" stroke="blue" stroke-width="2" />
<path d="M3123,4360 L1309,5870" stroke="blue" stroke-width="2" />
<path d="M965,3742 L278,2427" stroke="blue" stroke-width="2" />
<path d="M1834,4588 L3820,3902" stroke="blue" stroke-width="2" />
<path d="M5081,514 L697,2824" stroke="blue" stroke-width="2" />
<path d="M3338,2985 L1728,2205" stroke="blue" stroke-width="2" />
<path d="M3380,2753 L2163,4907" stroke="blue" stroke-width="2" />
<path d="M3854,1944 L6056,1405" stroke="blue" stroke-width="2" />
<path d="M5894,1249 L5219,508" stroke="blue" stroke-width="2" />
<path d="M3266,4190 L1833,3753" stroke="blue" stroke-width="2" />
<path d="M751,1255 L6267,64" stroke="blue" stroke-width="2" />
<path d="M4283,4953 L2652,5574" stroke="blue" stroke-width="2" />
<path d="M3576,2455 L2313,4741" stroke="blue" stroke-width="2" />
<path d="M2902,1406 L5678,845" stroke="blue" stroke-width="2" />
<path d="M5347,2770 L831,3441" stroke="blue" stroke-width="2" />
<path d="M3648,2038 L5588,1261" stroke="blue" stroke-width="2" />
<path d="M2473,1700 L6189,4668" stroke="blue" stroke-width="2" />
<path d="M3911,3148 L2902,2101" stroke="blue" stroke-width="2" />
<path d="M1188,4471 L3590,5599" stroke="blue" stroke-width="2" />
<path d="M5331,5675 L5953,270" stroke="blue" stroke-width="2" />
<path d="M1315,4523 L4383,2663" stroke="blue" stroke-width="2" />
<path d="M4366,4061 L3946,5671" stroke="blue" stroke-width="2" />
<path d="M862,4095 L2487,1375" stroke="blue" stroke-width="2" />
<path d="M6309,4610 L241,4405" stroke="blue" stroke-width="2" />
<path d="M6520,1930 L326,4624" stroke="blue" stroke-width="2" />
<path d="M884,1466 L4907,4208" stroke="blue" stroke-width="2" />
<path d="M5474,5493 L3843,5173" stroke="blue" stroke-width="2" />
<path d="M3955,2978 L2918,4620" stroke="blue" stroke-width="2" />
<path d="M5461,4395 L2851,3922" stroke="blue" stroke-width="2" />
<path d="M4563,5661 L6136,2553" stroke="blue" stroke-width="2" />
<path d="M4434,1834 L661,3692" stroke="blue" stroke-width="2" />
<path d="M1959,5495 L2759,4185" stroke="blue" stroke-width="2" />
<path d="M6591,2521 L5455,457" stroke="blue" stroke-width="2" />
<path d="M5237,733 L2248,1634" stroke="blue" stroke-width="2" />
<path d="M5832,1607 L5334,2022" stroke="blue" stroke-width="2" />
<path d="M5983,3425 L1319,2577" stroke="blue" stroke-width="2" />
<path d="M5612,1084 L5769,2849" stroke="blue" stroke-width="2" />
<path d="M405,3750 L1679,2580" stroke="blue" stroke-width="2" />
<path d="M1304,4152 L5740,593" stroke="blue" stroke-width="2" />
<path d="M4025,322 L538,2400" stroke="blue" stroke-width="2" />
<path d="M3374,3207 L2111,1214" stroke="blue" stroke-width="2" />
<path d="M3381,5053 L2871,5689" stroke="blue" stroke-width="2" />
<path d="M2131,4309 L3725,2355" stroke="blue" stroke-width="2" />
<path d="M1403,4052 L4414,4409" stroke="blue" stroke-width="2" />
<path d="M5180,300 L2161,4465" stroke="blue" stroke-width="2" />
<path d="M1171,2545 L3611,508" stroke="blue" stroke-width="2" />
<path d="M4164,2654 L1366,4913" stroke="blue" stroke-width="2" />
<path d="M2811,2580 L5707,4" stroke="blue" stroke-width="2" />
<path d="M2211,1877 L1581,185" stroke="blue" stroke-width="2" />
<path d="M1387,2983 L4613,5018" stroke="blue" stroke-width="2" />
<path d="M909,4865 L4745,153" stroke="blue" stroke-width="2" />
<path d="M1105,748 L6047,4878" stroke="blue" stroke-width="2" />
<path d="M672,3864 L1214,3243" stroke="blue" stroke-width="2" />
<path d="M4009,4839 L5441,5050" stroke="blue" stroke-width="2" />
<path d="M5142,2902 L3238,4673" stroke="blue" stroke-width="2" />
<path d="M802,1265 L394,630" stroke="blue" stroke-width="2" />
<path d="M4598,2952 L2620,3841" stroke="blue" stroke-width="2" />
<path d="M4739,4811 L6171,4266" stroke="blue" stroke-width="2" />
<path d="M4797,800 L1058,5023" stroke="blue" stroke-width="2" />
<path d="M948,2015 L1772,5706" stroke="blue" stroke-width="2" />
<path d="M1481,1820 L5279,1104" stroke="blue" stroke-width="2" />
<path d="M1169,5184 L1721,5435" stroke="blue" stroke-width="2" />
<path d="M1166,2777 L928,2486" stroke="blue" stroke-width="2" />
<path d="M6104,1548 L5474,3683" stroke="blue" stroke-width="2" />
<path d="M4555,3851 L4177,1618" stroke="blue" stroke-width="2" />
<path d="M4069,2564 L726,3010" stroke="blue" stroke-width="2" />
<path d="M293,1040 L1056,1311" stroke="blue" stroke-width="2" />
<path d="M484,5510 L2641,4678" stroke="blue" stroke-width="2" />
<path d="M3616,1086 L3496,2205" stroke="blue" stroke-width="2" />
<path d="M1198,357 L305,1031" stroke="blue" stroke-width="2" />
<path d="M5986,2816 L6345,519" stroke="blue" stroke-width="2" />
<path d="M1454,510 L5863,3269" stroke="blue" stroke-width="2" />
<path d="M2201,5534 L3492,5232" stroke="blue" stroke-width="2" />
<path d="M6616,5871 L4918,4578" stroke="blue" stroke-width="2" />
<path d="M5712,3873 L4503,4881" stroke="blue" stroke-width="2" />
<path d="M157,1322 L648,1035" stroke="blue" stroke-width="2" />
<path d="M334,226 L3697,30" stroke="blue" stroke-width="2" />
<path d="M1792,6 L53,4711" stroke="blue" stroke-width="2" />
<path d="M5547,318 L6551,4244" stroke="blue" stroke-width="2" />
<path d="M6609,5252 L883,5321" stroke="blue" stroke-width="2" />
<path d="M800,1506 L1850,863" stroke="blue" stroke-width="2" />
<path d="M6223,254 L795,5741" stroke="blue" stroke-width="2" />
<path d="M2836,4291 L2083,1077" stroke="blue" stroke-width="2" />
<path d="M1271,1983 L3784,522" stroke="blue" stroke-width="2" />
<path d="M2097,3816 L2246,1285" stroke="blue" stroke-width="2" />
<path d="M2768,2129 L3496,2882" stroke="blue" stroke-width="2" />
<path d="M266,3059 L1311,5577" stroke="blue" stroke-width="2" />
<path d="M959,4930 L5679,1122" stroke="blue" stroke-width="2" />
<path d="M1568,1294 L2645,2262" stroke="blue" stroke-width="2" />
<path d="M5964,3012 L4165,2632" stroke="blue" stroke-width="2" />
<path d="M6083,562 L1053,5456" stroke="blue" stroke-width="2" />
<path d="M3202,1627 L5644,2096" stroke="blue" stroke-width="2" />
<path d="M5425,308 L5709,2202" stroke="blue" stroke-width="2" />
<path d="M1254,3297 L2812,3290" stroke="blue" stroke-width="2" />
<path d="M1708,5243 L5991,5189" stroke="blue" stroke-width="2" />
<path d="M93,4371 L3824,4268" stroke="blue" stroke-width="2" />
<path d="M5091,2949 L6053,5312" stroke="blue" stroke-width="2" />
<path d="M2981,1371 L3296,3836" stroke="blue" stroke-width="2" />
<path d="M4703,4890 L3464,3882" stroke="blue" stroke-width="2" />
<path d="M441,1881 L4960,1540" stroke="blue" stroke-width="2" />
<path d="M3590,646 L5610,3052" stroke="blue" stroke-width="2" />
<path d="M712,1326 L5639,1503" stroke="blue" stroke-width="2" />
<path d="M337,5326 L6196,4877" stroke="blue" stroke-width="2" />
<path d="M69,5795 L643,2894" stroke="blue" stroke-width="2" />
<path d="M4923,2601 L6283,2267" stroke="blue" stroke-width="2" />
<path d="M2867,4533 L5161,5738" stroke="blue" stroke-width="2" />
<path d="M2957,3137 L4586,172" stroke="blue" stroke-width="2" />
<path d="M5510,1379 L4760,3465" stroke="blue" stroke-width="2" />
<path d="M4050,4423 L3731,3378" stroke="blue" stroke-width="2" />
<path d="M2878,3659 L4213,3675" stroke="blue" stroke-width="2" />
<path d="M5027,840 L952,2050" stroke="blue" stroke-width="2" />
<path d="M6445,1610 L4458,3062" stroke="blue" stroke-width="2" />
<path d="M4712,5660 L3350,4395" stroke="blue" stroke-width="2" />
<path d="M751,5870 L5128,631" stroke="blue" stroke-width="2" />
<path d="M4194,2392 L1955,3217" stroke="blue" stroke-width="2" />
<path d="M4066,3325 L2495,1834" stroke="blue" stroke-width="2" />
<path d="M2688,1507 L5835,2006" stroke="blue" stroke-width="2" />
<path d="M5605,4569 L4900,4081" stroke="blue" stroke-width="2" />
<path d="M4370,2479 L3020,3994" stroke="blue" stroke-width="2" />
<path d="M1031,2078 L1782,837" stroke="blue" stroke-width="2" />
<path d="M4122,669 L2980,5820" stroke="blue" stroke-width="2" />
<path d="M50,4250 L2297,707" stroke="blue" stroke-width="2" />
<path d="M4203,1660 L533,4896" stroke="blue" stroke-width="2" />
<path d="M6155,5280 L3340,4554" stroke="blue" stroke-width="2" />
<path d="M1692,1412 L5460,676" stroke="blue" stroke-width="2" />
<path d="M4724,2224 L1503,5500" stroke="blue" stroke-width="2" />
<path d="M3390,3271 L307,1379" stroke="blue" stroke-width="2" />
<path d="M3801,1324 L2830,4320" stroke="blue" stroke-width="2" />
<path d="M3259,967 L1697,3584" stroke="blue" stroke-width="2" />
<path d="M3236,4157 L2630,4977" stroke="blue" stroke-width="2" />
<path d="M5545,2141 L2805,4778" stroke="blue" stroke-width="2" />
<path d="M5497,4236 L2579,1467" stroke="blue" stroke-width="2" />
<path d="M4898,5532 L360,3695" stroke="blue" stroke-width="2" />
<path d="M3514,5405 L4484,3788" stroke="blue" stroke-width="2" />
<path d="M5629,69 L5535,1419" stroke="blue" stroke-width="2" />
<path d="M1244,5170 L3123,5054" stroke="blue" stroke-width="2" />
<path d="M1131,193 L1796,3188" stroke="blue" stroke-width="2" />
<path d="M3882,4250 L5466,164" stroke="blue" stroke-width="2" />
<path d="M5620,5791 L130,4040" stroke="blue" stroke-width="2" />
<path d="M2683,3602 L3221,3727" stroke="blue" stroke-width="2" />
<path d="M6354,764 L4270,5344" stroke="blue" stroke-width="2" />
<path d="M6586,3218 L5995,87" stroke="blue" stroke-width="2" />
<path d="M3091,2015 L3152,1427" stroke="blue" stroke-width="2" />
<path d="M582,1341 L849,3588" stroke="blue" stroke-width="2" />
<path d="M2355,1228 L6212,5006" stroke="blue" stroke-width="2" />
<path d="M5366,3422 L5171,5002" stroke="blue" stroke-width="2" />
<path d="M3278,4958 L4573,3695" stroke="blue" stroke-width="2" />
<path d="M5570,5569 L5269,575" stroke="blue" stroke-width="2" />
<path d="M3170,4930 L4857,3751" stroke="blue" stroke-width="2" />
<path d="M4473,5772 L5849,1837" stroke="blue" stroke-width="2" />
<path d="M2092,4705 L3647,1859" stroke="blue" stroke-width="2" />
<path d="M5922,363 L5057,3985" stroke="blue" stroke-width="2" />
<path d="M1187,5322 L5024,4361" stroke="blue" stroke-width="2" />
<path d="M166,1114 L4686,1617" stroke="blue" stroke-width="2" />
<path d="M4817,33 L4674,2925" stroke="blue" stroke-width="2" />
<path d="M5635,5670 L2726,4209" stroke="blue" stroke-width="2" />
<path d="M5712,1299 L2953,753" stroke="blue" stroke-width="2" />
<path d="M2967,4088 L5959,2368" stroke="blue" stroke-width="2" />
<path d="M3011,2010 L3651,3782" stroke="blue" stroke-width="2" />
<path d="M1683,1666 L3349,2068" stroke="blue" stroke-width="2" />
<path d="M5862,740 L1919,5204" stroke="blue" stroke-width="2" />
<path d="M1855,479 L3894,4948" stroke="blue" stroke-width="2" />
<path d="M5296,1328 L5666,2963" stroke="blue" stroke-width="2" />
<path d="M3507,3879 L4074,3620" stroke="blue" stroke-width="2" />
<path d="M6450,2248 L1840,1543" stroke="blue" stroke-width="2" />
<path d="M4308,5630 L2089,2117" stroke="blue" stroke-width="2" />
<path d="M5115,5519 L4551,1953" stroke="blue" stroke-width="2" />
<path d="M848,4743 L4941,4674" stroke="blue" stroke-width="2" />
<path d="M4748,4559 L6226,4031" stroke="blue" stroke-width="2" />
<path d="M5977,5793 L3657,5025" stroke="blue" stroke-width="2" />
<path d="M1415,679 L5767,3614" stroke="blue" stroke-width="2" />
<path d="M4707,1211 L4204,5527" stroke="blue" stroke-width="2" />
<path d="M2956,4256 L2926,2338" stroke="blue" stroke-width="2" />
<path d="M3843,5416 L5608,3356" stroke="blue" stroke-width="2" />
<path d="M1003,1612 L6327,4294" stroke="blue" stroke-width="2" />
<path d="M5942,5544 L780,11" stroke="blue" stroke-width="2" />
<path d="M122,2875 L3797,5668" stroke="blue" stroke-width="2" />
<path d="M3980,5236 L5691,1930" stroke="blue" stroke-width="2" />
<path d="M2387,1353 L2243,4675" stroke="blue" stroke-width="2" />
<path d="M2880,2484 L1810,2583" stroke="blue" stroke-width="2" />
<path d="M2363,76 L3783,4053" stroke="blue" stroke-width="2" />
<path d="M1381,1728 L2517,5665" stroke="blue" stroke-width="2" />
<path d="M1461,2749 L1709,3189" stroke="blue" stroke-width="2" />
<path d="M2409,5404 L360,5004" stroke="blue" stroke-width="2" />
<path d="M4615,769 L2250,5058" stroke="blue" stroke-width="2" />
<path d="M4525,3929 L5111,3964" stroke="blue" stroke-width="2" />
<path d="M2356,162 L1329,3929" stroke="blue" stroke-width="2" />
<path d="M2430,3290 L6622,24" stroke="blue" stroke-width="2" />
<path d="M5765,3388 L4616,5191" stroke="blue" stroke-width="2" />
<path d="M6118,2685 L2432,1382" stroke="blue" stroke-width="2" />
<path d="M986,3747 L1858,2843" stroke="blue" stroke-width="2" />
<path d="M5279,146 L1319,2034" stroke="blue" stroke-width="2" />
<path d="M1678,449 L5381,2008" stroke="blue" stroke-width="2" />
<path d="M4033,4081 L3410,1958" stroke="blue" stroke-width="2" />
<path d="M5658,3674 L1469,2458" stroke="blue" stroke-width="2" />
<path d="M4702,3808 L4636,2800" stroke="blue" stroke-width="2" />
<path d="M5220,4393 L978,3650" stroke="blue" stroke-width="2" />
<path d="M5305,3946 L1742,5875" stroke="blue" stroke-width="2" />
<path d="M1011,2847 L3689,5131" stroke="blue" stroke-width="2" />
<path d="M1294,5748 L1934,640" stroke="blue" stroke-width="2" />
<path d="M6080,3816 L4863,1335" stroke="blue" stroke-width="2" />
<path d="M4925,4727 L2658,3512" stroke="blue" stroke-width="2" />
<path d="M522,113 L1956,5409" stroke="blue" stroke-width="2" />
<path d="M5873,4120 L5837,537" stroke="blue" stroke-width="2" />
<path d="M5826,2201 L2163,3041" stroke="blue" stroke-width="2" />
<path d="M3701,3193 L4216,4970" stroke="blue" stroke-width="2" />
<path d="M2322,1895 L3543,5473" stroke="blue" stroke-width="2" />
<path d="M4219,5460 L2178,4673" stroke="blue" stroke-width="2" />
<path d="M2863,4476 L3200,1373" stroke="blue" stroke-width="2" />
<path d="M3060,2607 L5897,4747" stroke="blue" stroke-width="2" />
<path d="M4900,2583 L3300,1103" stroke="blue" stroke-width="2" />
<path d="M1233,3100 L2233,4453" stroke="blue" stroke-width="2" />
<path d="M3990,37 L2107,2434" stroke="blue" stroke-width="2" />
<path d="M1735,973 L3104,4963" stroke="blue" stroke-width="2" />
<path d="M4851,2313 L3387,1910" stroke="blue" stroke-width="2" />
<path d="M4649,3529 L2104,564" stroke="blue" stroke-width="2" />
<path d="M2198,4423 L5438,3305" stroke="blue" stroke-width="2" />
<path d="M1896,699 L277,3077" stroke="blue" stroke-width="2" />
<path d="M1448,4719 L6402,760" stroke="blue" stroke-width="2" />
<path d="M915,3016 L1778,5295" stroke="blue" stroke-width="2" />
<path d="M2854,101 L3043,2354" stroke="blue" stroke-width="2" />
<path d="M4932,5740 L2948,5862" stroke="blue" stroke-width="2" />
<path d="M3632,488 L4442,4329" stroke="blue" stroke-width="2" />
<path d="M2103,2935 L780,1344" stroke="blue" stroke-width="2" />
<path d="M3816,601 L4492,3493" stroke="blue" stroke-width="2" />
<path d="M2806,1387 L3596,160" stroke="blue" stroke-width="2" />
<path d="M6614,3903 L1571,4418" stroke="blue" stroke-width="2" />
<path d="M3252,4973 L3857,1086" stroke="blue" stroke-width="2" />
<path d="M3958,4867 L1416,1984" stroke="blue" stroke-width="2" />
<path d="M881,3565 L2989,3227" stroke="blue" stroke-width="2" />
<path d="M6144,1759 L2680,536" stroke="blue" stroke-width="2" />
<path d="M3363,2196 L6159,5466" stroke="blue" stroke-width="2" />
<path d="M6306,2515 L3582,5791" stroke="blue" stroke-width="2" />
<path d="M1236,5629 L2014,3353" stroke="blue" stroke-width="2" />
<path d="M4833,1284 L815,362" stroke="blue" stroke-width="2" />
<path d="M2925,269 L1102,5400" stroke="blue" stroke-width="2" />
<path d="M642,899 L5176,3173" stroke="blue" stroke-width="2" />
<path d="M2237,3102 L3411,2748" stroke="blue" stroke-width="2" />
<path d="M4005,1738 L2460,3967" stroke="blue" stroke-width="2" />
<path d="M5919,1092 L1611,2298" stroke="blue" stroke-width="2" />
<path d="M5699,462 L664,2204" stroke="blue" stroke-width="2" />
<path d="M4252,946 L4712,5089" stroke="blue" stroke-width="2" />
<path d="M3637,5685 L6391,2241" stroke="blue" stroke-width="2" />
<path d="M2115,5416 L1496,417" stroke="blue" stroke-width="2" />
<path d="M3875,1181 L2058,5386" stroke="blue" stroke-width="2" />
<path d="M4950,52 L6634,4250" stroke="blue" stroke-width="2" />
<path d="M727,4549 L2393,1194" stroke="blue" stroke-width="2" />
<path d="M4665,5017 L5152,2720" stroke="blue" stroke-width="2" />
<path d="M5324,4997 L641,2590" stroke="blue" stroke-width="2" />
<path d="M2745,5432 L1620,4662" stroke="blue" stroke-width="2" />
<path d="M368,5479 L4918,2321" stroke="blue" stroke-width="2" />
<path d="M5363,5178 L2523,4536" stroke="blue" stroke-width="2" />
<path d="M4942,2547 L3193,4008" stroke="blue" stroke-width="2" />
<path d="M3997,1418 L202,3541" stroke="blue" stroke-width="2" />
<path d="M4634,3910 L4648,4097" stroke="blue" stroke-width="2" />
<path d="M3698,2013 L1461,2520" stroke="blue" stroke-width="2" />
<path d="M3486,1528 L649,2177" stroke="blue" stroke-width="2" />
<path d="M2215,637 L3718,4156" stroke="blue" stroke-width="2" />
<path d="M4567,1208 L3169,1982" stroke="blue" stroke-width="2" />
<path d="M52,2676 L2777,4415" stroke="blue" stroke-width="2" />
<path d="M4565,726 L3545,3822" stroke="blue" stroke-width="2" />
<path d="M1869,376 L604,1707" stroke="blue" stroke-width="2" />
<path d="M3225,4807 L6165,3585" stroke="blue" stroke-width="2" />
<path d="M6163,482 L1672,3005" stroke="blue" stroke-width="2" />
<path d="M6415,2614 L3747,2833" stroke="blue" stroke-width="2" />
<path d="M3815,2065 L1279,4377" stroke="blue" stroke-width="2" />
<path d="M3382,1311 L6420,5380" stroke="blue" stroke-width="2" />
<path d="M4916,5089 L2144,480" stroke="blue" stroke-width="2" />
<path d="M1232,222 L2541,1240" stroke="blue" stroke-width="2" />
<path d="M2827,4989 L5548,3517" stroke="blue" stroke-width="2" />
<path d="M1350,770 L6104,5793" stroke="blue" stroke-width="2" />
<path d="M1916,3985 L1078,3932" stroke="blue" stroke-width="2" />
<path d="M1069,4471 L6606,2834" stroke="blue" stroke-width="2" />
<path d="M5525,2120 L4673,4796" stroke="blue" stroke-width="2" />
<path d="M4557,514 L3537,129" stroke="blue" stroke-width="2" />
<path d="M4892,2677 L4864,2319" stroke="blue" stroke-width="2" />
<path d="M1800,4965 L5561,1619" stroke="blue" stroke-width="2" />
<path d="M2384,149 L6389,2118" stroke="blue" stroke-width="2" />
<path d="M5402,5316 L2229,899" stroke="blue" stroke-width="2" />
<path d="M1122,1128 L5391,1078" stroke="blue" stroke-width="2" />
<path d="M1263,288 L4024,4480" stroke="blue" stroke-width="2" />
<path d="M223,4971 L5983,3862" stroke="blue" stroke-width="2" />
<path d="M5645,5459 L3742,3900" stroke="blue" stroke-width="2" />
<path d="M6007,1027 L1955,1447" stroke="blue" stroke-width="2" />
<path d="M5117,3769 L3630,3034" stroke="blue" stroke-width="2" />
<path d="M1635,1789 L6627,2322" stroke="blue" stroke-width="2" />
<path d="M2341,4319 L3152,5539" stroke="blue" stroke-width="2" />
<path d="M1382,2774 L5711,3065" stroke="blue" stroke-width="2" />
<path d="M4817,4570 L2183,1982" stroke="blue" stroke-width="2" />
<path d="M513,1736 L460,696" stroke="blue" stroke-width="2" />
<path d="M3218,3820 L3516,2045" stroke="blue" stroke-width="2" />
<path d="M5565,5720 L5789,3198" stroke="blue" stroke-width="2" />
<path d="M42,4774 L2411,30" stroke="blue" stroke-width="2" />
<path d="M3183,4832 L5713,2448" stroke="blue" stroke-width="2" />
<path d="M6489,3359 L1220,5716" stroke="blue" stroke-width="2" />
<path d="M2269,3417 L2467,4133" stroke="blue" stroke-width="2" />
<path d="M868,4034 L6157,3747" stroke="blue" stroke-width="2" />
<path d="M1075,505 L641,4850" stroke="blue" stroke-width="2" />
<path d="M2297,3780 L4895,229" stroke="blue" stroke-width="2" />
<path d="M5947,1781 L1810,1165" stroke="blue" stroke-width="2" />
<path d="M5667,2223 L998,1450" stroke="blue" stroke-width="2" />
<path d="M3876,4775 L1143,218" stroke="blue" stroke-width="2" />
<path d="M582,536 L1939,3193" stroke="blue" stroke-width="2" />
<path d="M3516,5812 L755,1052" stroke="blue" stroke-width="2" />
<path d="M2136,591 L1891,1420" stroke="blue" stroke-width="2" />
<path d="M4401,552 L4798,4525" stroke="blue" stroke-width="2" />
<path d="M3128,4397 L4384,4098" stroke="blue" stroke-width="2" />
<path d="M4907,508 L759,3715" stroke="blue" stroke-width="2" />
<path d="M1144,2000 L3965,234" stroke="blue" stroke-width="2" />
<path d="M4776,2916 L1927,4454" stroke="blue" stroke-width="2" />
<path d="M3808,4714 L6162,3452" stroke="blue" stroke-width="2" />
<path d="M1500,5317 L6227,4571" stroke="blue" stroke-width="2" />
<path d="M5437,35 L5926,2275" stroke="blue" stroke-width="2" />
<path d="M4266,3847 L3526,2162" stroke="blue" stroke-width="2" />
<path d="M5811,4286 L6465,576" stroke="blue" stroke-width="2" />
<path d="M1232,1628 L6590,241" stroke="blue" stroke-width="2" />
<path d="M2542,1333 L5446,5322" stroke="blue" stroke-width="2" />
<path d="M57,5140 L6110,119" stroke="blue" stroke-width="2" />
<path d="M5290,3537 L4886,703" stroke="blue" stroke-width="2" />
<path d="M119,4601 L1876,4704" stroke="blue" stroke-width="2" />
<path d="M108,5642 L2483,2559" stroke="blue" stroke-width="2" />
<path d="M3002,1120 L6469,51" stroke="blue" stroke-width="2" />
<path d="M2409,3533 L6473,2983" stroke="blue" stroke-width="2" />
<path d="M6513,5441 L1556,1237" stroke="blue" stroke-width="2" />
<path d="M4742,901 L1908,2205" stroke="blue" stroke-width="2" />
<path d="M6506,4137 L1970,1526" stroke="blue" stroke-width="2" />
<path d="M5359,2908 L1969,5795" stroke="blue" stroke-width="2" />
<path d="M5216,2429 L2051,1412" stroke="blue" stroke-width="2" />
<path d="M1290,3054 L3817,1450" stroke="blue" stroke-width="2" />
<path d="M453,5656 L3250,1847" stroke="blue" stroke-width="2" />
<path d="M3142,4264 L4808,1852" stroke="blue" stroke-width="2" />
<path d="M4853,4468 L4657,3371" stroke="blue" stroke-width="2" />
<path d="M4915,3790 L1765,3805" stroke="blue" stroke-width="2" />
<path d="M4706,961 L2017,2747" stroke="blue" stroke-width="2" />
<path d="M3935,5767 L4453,3539" stroke="blue" stroke-width="2" />
<path d="M5701,3637 L2084,3707" stroke="blue" stroke-width="2" />
<path d="M3612,5460 L4097,4098" stroke="blue" stroke-width="2" />
<path d="M3623,3265 L178,4340" stroke="blue" stroke-width="2" />
<path d="M2068,5842 L3191,1853" stroke="blue" stroke-width="2" />
<path d="M3695,17 L1090,4245" stroke="blue" stroke-width="2" />
<path d="M5771,4339 L1731,3185" stroke="blue" stroke-width="2" />
<path d="M5469,5883 L2603,2294" stroke="blue" stroke-width="2" />
<path d="M2191,731 L883,2143" stroke="blue" stroke-width="2" />
<path d="M3870,4483 L4323,2971" stroke="blue" stroke-width="2" />
<path d="M5470,2395 L908,112" stroke="blue" stroke-width="2" />
<path d="M5005,4534 L4436,4589" stroke="blue" stroke-width="2" />
<path d="M2205,187 L6549,664" stroke="blue" stroke-width="2" />
<path d="M6216,4081 L3310,4940" stroke="blue" stroke-width="2" />
<path d="M1783,1319 L3297,5020" stroke="blue" stroke-width="2" />
<path d="M5746,5336 L6573,943" stroke="blue" stroke-width="2" />
<path d="M3573,5765 L550,506" stroke="blue" stroke-width="2" />
<path d="M2887,4804 L5496,1325" stroke="blue" stroke-width="2" />
<path d="M5631,5352 L2130,5715" stroke="blue" stroke-width="2" />
<path d="M458,303 L3367,3475" stroke="blue" stroke-width="2" />
<path d="M1849,5353 L1631,2511" stroke="blue" stroke-width="2" />
<path d="M6161,2640 L3537,2287" stroke="blue" stroke-width="2" />
<path d="M344,5775 L2394,1590" stroke="blue" stroke-width="2" />
<path d="M4133,2713 L2571,2224" stroke="blue" stroke-width="2" />
<path d="M5505,5289 L4506,1194" stroke="blue" stroke-width="2" />
<path d="M878,1068 L4544,3753" stroke="blue" stroke-width="2" />
<path d="M2420,1702 L5541,4539" stroke="blue" stroke-width="2" />
<path d="M3991,863 L970,2582" stroke="blue" stroke-width="2" />
<path d="M3679,5575 L1636,1001" stroke="blue" stroke-width="2" />
<path d="M3894,4733 L858,1345" stroke="blue" stroke-width="2" />
<path d="M4319,3411 L4628,582" stroke="blue" stroke-width="2" />
<path d="M6443,2340 L1833,2181" stroke="blue" stroke-width="2" />
<path d="M2830,1694 L3367,3896" stroke="blue" stroke-width="2" />
<path d="M4942,3312 L4418,440" stroke="blue" stroke-width="2" />
<path d="M2325,4224 L3057,780" stroke="blue" stroke-width="2" />
<path d="M3652,2275 L4255,1974" stroke="blue" stroke-width="2" />
<path d="M973,1173 L1416,4395" stroke="blue" stroke-width="2" />
<path d="M2268,40 L92,890" stroke="blue" stroke-width="2" />
<path d="M2859,5752 L4904,4468" stroke="blue" stroke-width="2" />
<path d="M865,2004 L6244,854" stroke="blue" stroke-width="2" />
<path d="M3721,3904 L2607,4525" stroke="blue" stroke-width="2" />
<path d="M5732,200 L4530,5896" stroke="blue" stroke-width="2" />
<path d="M74,3793 L1199,4363" stroke="blue" stroke-width="2" />
<path d="M4512,4908 L2141,1803" stroke="blue" stroke-width="2" />
<path d="M2385,5496 L75,4873" stroke="blue" stroke-width="2" />
<path d="M4390,5056 L3661,1551" stroke="blue" stroke-width="2" />
<path d="M2481,1631 L1054,5010" stroke="blue" stroke-width="2" />
<path d="M788,2840 L5785,3299" stroke="blue" stroke-width="2" />
<path d="M2625,2028 L1123,4085" stroke="blue" stroke-width="2" />
<path d="M3840,131 L1523,5547" stroke="blue" stroke-width="2" />
<path d="M4038,2779 L5403,5331" stroke="blue" stroke-width="2" />
<path d="M2544,1946 L3985,2667" stroke="blue" stroke-width="2" />
<path d="M5029,2964 L6437,1642" stroke="blue" stroke-width="2" />
<path d="M4770,1348 L4291,2018" stroke="blue" stroke-width="2" />
<path d="M1943,2917 L1016,1104" stroke="blue" stroke-width="2" />
<path d="M3103,2784 L5250,4145" stroke="blue" stroke-width="2" />
<path d="M4121,5267 L2231,3221" stroke="blue" stroke-width="2" />
<path d="M6473,4678 L525,684" stroke="blue" stroke-width="2" />
<path d="M5689,5432 L5581,4917" stroke="blue" stroke-width="2" />
<path d="M1735,232 L940,3394" stroke="blue" stroke-width="2" />
<path d="M5096,4832 L64,5492" stroke="blue" stroke-width="2" />
<path d="M4341,1838 L4427,4300" stroke="blue" stroke-width="2" />
<path d="M3394,5514 L2764,3755" stroke="blue" stroke-width="2" />
<path d="M6582,3434 L888,5838" stroke="blue" stroke-width="2" />
<path d="M977,4482 L5493,2135" stroke="blue" stroke-width="2" />
<path d="M1290,5546 L6173,1877" stroke="blue" stroke-width="2" />
<path d="M5686,4345 L4875,4992" stroke="blue" stroke-width="2" />
<path d="M4139,984 L6347,2257" stroke="blue" stroke-width="2" />
<path d="M5665,2294 L673,408" stroke="blue" stroke-width="2" />
<path d="M2600,3706 L3277,3539" stroke="blue" stroke-width="2" />
<path d="M169,5657 L6542,1526" stroke="blue" stroke-width="2" />
<path d="M1409,3629 L5191,1218" stroke="blue" stroke-width="2" />
<path d="M1966,1838 L3993,5054" stroke="blue" stroke-width="2" />
<path d="M5946,2317 L384,4586" stroke="blue" stroke-width="2" />
<path d="M3796,1460 L4308,2179" stroke="blue" stroke-width="2" />
<path d="M3008,1319 L2176,153" stroke="blue" stroke-width="2" />
<path d="M4608,3625 L61,1321" stroke="blue" stroke-width="2" />
<path d="M3347,1900 L2912,1197" stroke="blue" stroke-width="2" />
<path d="M2688,322 L138,5800" stroke="blue" stroke-width="2" />
<path d="M1117,5166 L5058,3640" stroke="blue" stroke-width="2" />
<path d="M3857,234 L5879,3280" stroke="blue" stroke-width="2" />
<path d="M2375,1148 L5048,3680" stroke="blue" stroke-width="2" />
<path d="M83,2217 L5100,1154" stroke="blue" stroke-width="2" />
<path d="M5530,3848 L3774,1386" stroke="blue" stroke-width="2" />
<path d="M4371,974 L5375,4964" stroke="blue" stroke-width="2" />
<path d="M5518,3926 L3001,2257" stroke="blue" stroke-width="2" />
<path d="M1231,4744 L401,1382" stroke="blue" stroke-width="2" />
<path d="M5699,5631 L6564,3947" stroke="blue" stroke-width="2" />
<path d="M5738,1554 L6328,2260" stroke="blue" stroke-width="2" />
<path d="M1392,434 L6506,2200" stroke="blue" stroke-width="2" />
<path d="M3568,4581 L6234,5132" stroke="blue" stroke-width="2" />
<path d="M2738,5379 L4877,1968" stroke="blue" stroke-width="2" />
<path d="M2218,275 L1770,5145" stroke="blue" stroke-width="2" />
<path d="M6609,125 L3854,5059" stroke="blue" stroke-width="2" />
<path d="M259,1063 L438,3385" stroke="blue" stroke-width="2" />
<path d="M6225,598 L2849,1659" stroke="blue" stroke-width="2" />
<path d="M6401,5580 L4536,2696" stroke="blue" stroke-width="2" />
<path d="M3236,2217 L3004,5126" stroke="blue" stroke-width="2" />
<path d="M6051,2151 L3446,2995" stroke="blue" stroke-width="2" />
<path d="M850,5523 L1175,1173" stroke="blue" stroke-width="2" />
<path d="M917,4670 L5373,1003" stroke="blue" stroke-width="2" />
<path d="M260,5009 L6002,482" stroke="blue" stroke-width="2" />
<path d="M4810,4873 L4253,1940" stroke="blue" stroke-width="2" />
<path d="M6112,1180 L6504,662" stroke="blue" stroke-width="2" />
<path d="M6058,184 L0,4433" stroke="blue" stroke-width="2" />
<path d="M5090,5033 L3104,4044" stroke="blue" stroke-width="2" />
<path d="M2904,3805 L1479,3952" stroke="blue" stroke-width="2" />
<path d="M5382,268 L620,2323" stroke="blue" stroke-width="2" />
<path d="M5306,5597 L5047,4950" stroke="blue" stroke-width="2" />
<path d="M3339,152 L6118,2593" stroke="blue" stroke-width="2" />
<path d="M3549,2631 L1060,4690" stroke="blue" stroke-width="2" />
<path d="M4650,439 L3356,661" stroke="blue" stroke-width="2" />
<path d="M3435,4449 L1266,2402" stroke="blue" stroke-width="2" />
<path d="M6019,748 L1249,2711" stroke="blue" stroke-width="2" />
<path d="M816,5534 L1108,2007" stroke="blue" stroke-width="2" />
<path d="M5499,5279 L1924,5202" stroke="blue" stroke-width="2" />
<path d="M744,5253 L3148,5873" stroke="blue" stroke-width="2" />
<path d="M5739,2380 L6491,4685" stroke="blue" stroke-width="2" />
<path d="M5244,708 L523,759" stroke="blue" stroke-width="2" />
<path d="M3775,3217 L1797,4828" stroke="blue" stroke-width="2" />
<path d="M3010,4713 L1567,885" stroke="blue" stroke-width="2" />
<path d="M5112,24 L5559,4743" stroke="blue" stroke-width="2" />
<path d="M4403,2887 L4079,4184" stroke="blue" stroke-width="2" />
<path d="M2029,3761 L5547,4820" stroke="blue" stroke-width="2" />
<path d="M5590,1765 L3145,2795" stroke="blue" stroke-width="2" />
<path d="M5789,3331 L2298,3898" stroke="blue" stroke-width="2" />
<path d="M5675,5120 L5106,666" stroke="blue" stroke-width="2" />
<path d="M1168,114 L806,420" stroke="blue" stroke-width="2" />
<path d="M3620,5493 L6357,1609" stroke="blue" stroke-width="2" />
<path d="M0,0 L6637,0" stroke="red" stroke-width="10" />
<path d="M6637,0 L6637,5900" stroke="red" stroke-width="10" />
<path d="M0,5900 L6637,5900" stroke="red" stroke-width="10" />
<path d="M0,5900 L0,0" stroke="red" stroke-width="10" />
</svg>