<?xml version="1.0" encoding="UTF-8"?>
<svg xmlns="http://www.w3.org/2000/svg" xmlns:xlink="http://www.w3.org/1999/xlink"
     width="10000" height="10000" viewBox="0 0 10000 10000">
<defs>
</defs>
<path d="M5393,978 L5891,935" stroke="blue" stroke-width="2" />
<path d="M7206,1026 L3008,39" stroke="blue" stroke-width="2" />
<path d="M5987,469 L1872,460" stroke="blue" stroke-width="2" />
<path d="M4110,416 L5957,254" stroke="blue" stroke-width="2" />
<path d="M210,643 L6374,1118" stroke="blue" stroke-width="2" />
<path d="M4588,665 L374,159" stroke="blue" stroke-width="2" />
<path d="M6647,576 L70,1171" stroke="blue" stroke-width="2" />
<path d="M3594,313 L1362,717" stroke="blue" stroke-width="2" />
<path d="M1140,931 L4898,1153" stroke="blue" stroke-width="2" />
<path d="M4657,347 L3876,31" stroke="blue" stroke-width="2" />
<path d="M800,1098 L811,187" stroke="blue" stroke-width="2" />
<path d="M4579,1176 L7284,985" stroke="blue" stroke-width="2" />
<path d="M7951,975 L7638,924" stroke="blue" stroke-width="2" />
<path d="M4328,1012 L5912,1138" stroke="blue" stroke-width="2" />
<path d="M4549,499 L898,462" stroke="blue" stroke-width="2" />
<path d="M4495,714 L1428,791" stroke="blue" stroke-width="2" />
<path d="M7931,1114 L1769,514" stroke="blue" stroke-width="2" />
<path d="M6295,238 L1834,192" stroke="blue" stroke-width="2" />
<path d="M4751,71 L6141,566" stroke="blue" stroke-width="2" />
<path d="M3653,481 L1215,401" stroke="blue" stroke-width="2" />
<path d="M5362,272 L1855,1135" stroke="blue" stroke-width="2" />
<path d="M1346,837 L5548,1195" stroke="blue" stroke-width="2" />
<path d="M1464,545 L3326,578" stroke="blue" stroke-width="2" />
<path d="M7318,437 L7022,311" stroke="blue" stroke-width="2" />
<path d="M7506,523 L5957,201" stroke="blue" stroke-width="2" />
<path d="M2819,3 L1057,915" stroke="blue" stroke-width="2" />
<path d="M7762,539 L774,232" stroke="blue" stroke-width="2" />
<path d="M3209,1020 L7243,1151" stroke="blue" stroke-width="2" />
<path d="M2335,915 L7862,905" stroke="blue" stroke-width="2" />
<path d="M3488,442 L7522,638" stroke="blue" stroke-width="2" />
<path d="M5439,611 L4642,280" stroke="blue" stroke-width="2" />
<path d="M1332,221 L1797,215" stroke="blue" stroke-width="2" />
<path d="M7800,705 L3744,996" stroke="blue" stroke-width="2" />
<path d="M6914,552 L2038,960" stroke="blue" stroke-width="2" />
<path d="M584,848 L4840,1012" stroke="blue" stroke-width="2" />
<path d="M6386,5 L4770,608" stroke="blue" stroke-width="2" />
<path d="M2250,346 L7976,1214" stroke="blue" stroke-width="2" />
<path d="M7938,982 L630,73" stroke="blue" stroke-width="2" />
<path d="M6493,696 L5579,137" stroke="blue" stroke-width="2" />
<path d="M2769,1145 L200,1088" stroke="blue" stroke-width="2" />
<path d="M7650,301 L5276,1170" stroke="blue" stroke-width="2" />
<path d="M5182,1052 L1056,366" stroke="blue" stroke-width="2" />
<path d="M1440,945 L246,412" stroke="blue" stroke-width="2" />
<path d="M5218,1183 L2773,879" stroke="blue" stroke-width="2" />
<path d="M3276,521 L3656,500" stroke="blue" stroke-width="2" />
<path d="M6962,1125 L6516,981" stroke="blue" stroke-width="2" />
<path d="M6852,714 L1004,673" stroke="blue" stroke-width="2" />
<path d="M5083,590 L5367,976" stroke="blue" stroke-width="2" />
<path d="M6608,186 L3791,95" stroke="blue" stroke-width="2" />
<path d="M7615,1212 L3586,1045" stroke="blue" stroke-width="2" />
<path d="M4163,1066 L6743,40" stroke="blue" stroke-width="2" />
<path d="M169,1077 L897,190" stroke="blue" stroke-width="2" />
<path d="M4982,509 L4793,674" stroke="blue" stroke-width="2" />
<path d="M941,372 L231,346" stroke="blue" stroke-width="2" />
<path d="M6774,354 L228,412" stroke="blue" stroke-width="2" />
<path d="M4838,617 L1632,703" stroke="blue" stroke-width="2" />
<path d="M5368,332 L64,982" stroke="blue" stroke-width="2" />
<path d="M5470,709 L3808,469" stroke="blue" stroke-width="2" />
<path d="M3064,699 L538,228" stroke="blue" stroke-width="2" />
<path d="M6613,177 L1155,252" stroke="blue" stroke-width="2" />
<path d="M6057,745 L3986,286" stroke="blue" stroke-width="2" />
<path d="M6402,561 L4900,73" stroke="blue" stroke-width="2" />
<path d="M3591,266 L7963,173" stroke="blue" stroke-width="2" />
<path d="M1847,813 L3365,1115" stroke="blue" stroke-width="2" />
<path d="M3689,1149 L2068,974" stroke="blue" stroke-width="2" />
<path d="M1719,491 L5994,1207" stroke="blue" stroke-width="2" />
<path d="M6626,904 L910,1043" stroke="blue" stroke-width="2" />
<path d="M6208,33 L1193,516" stroke="blue" stroke-width="2" />
<path d="M2206,1141 L6856,653" stroke="blue" stroke-width="2" />
<path d="M3178,1093 L6347,228" stroke="blue" stroke-width="2" />
<path d="M3019,641 L726,1160" stroke="blue" stroke-width="2" />
<path d="M3061,1068 L7777,670" stroke="blue" stroke-width="2" />
<path d="M422,398 L6462,1176" stroke="blue" stroke-width="2" />
<path d="M6099,524 L5221,205" stroke="blue" stroke-width="2" />
<path d="M6814,1024 L5600,588" stroke="blue" stroke-width="2" />
<path d="M7979,754 L2032,43" stroke="blue" stroke-width="2" />
<path d="M5622,531 L7551,29" stroke="blue" stroke-width="2" />
<path d="M3843,27 L509,12" stroke="blue" stroke-width="2" />
<path d="M3096,72 L5194,923" stroke="blue" stroke-width="2" />
<path d="M206,914 L1878,199" stroke="blue" stroke-width="2" />
<path d="M1708,898 L158,467" stroke="blue" stroke-width="2" />
<path d="M3984,435 L3880,536" stroke="blue" stroke-width="2" />
<path d="M5981,1139 L1722,419" stroke="blue" stroke-width="2" />
<path d="M2293,955 L1918,61" stroke="blue" stroke-width="2" />
<path d="M2450,824 L6872,176" stroke="blue" stroke-width="2" />
<path d="M6103,20 L2178,1070" stroke="blue" stroke-width="2" />
<path d="M5320,1003 L3399,902" stroke="blue" stroke-width="2" />
<path d="M7156,975 L7302,994" stroke="blue" stroke-width="2" />
<path d="M2782,458 L5449,1064" stroke="blue" stroke-width="2" />
<path d="M4899,707 L2130,623" stroke="blue" stroke-width="2" />
<path d="M7749,77 L7335,1120" stroke="blue" stroke-width="2" />
<path d="M5214,370 L7100,475" stroke="blue" stroke-width="2" />
<path d="M1331,1108 L715,606" stroke="blue" stroke-width="2" />
<path d="M2310,31 L3135,110" stroke="blue" stroke-width="2" />
<path d="M1154,751 L1566,1123" stroke="blue" stroke-width="2" />
<path d="M422,367 L2304,157" stroke="blue" stroke-width="2" />
<path d="M1986,375 L1130,286" stroke="blue" stroke-width="2" />
<path d="M6824,234 L4359,168" stroke="blue" stroke-width="2" />
<path d="M4070,196 L2700,99" stroke="blue" stroke-width="2" />
<path d="M6578,552 L5917,705" stroke="blue" stroke-width="2" />
<path d="M6053,228 L8098,875" stroke="blue" stroke-width="2" />
<path d="M7205,309 L3010,155" stroke="blue" stroke-width="2" />
<path d="M5367,415 L4824,517" stroke="blue" stroke-width="2" />
<path d="M176,765 L2422,419" stroke="blue" stroke-width="2" />
<path d="M7630,325 L5066,1186" stroke="blue" stroke-width="2" />
<path d="M5437,782 L2015,1095" stroke="blue" stroke-width="2" />
<path d="M1975,680 L7671,511" stroke="blue" stroke-width="2" />
<path d="M7135,361 L6740,783" stroke="blue" stroke-width="2" />
<path d="M6477,905 L4258,469" stroke="blue" stroke-width="2" />
<path d="M3075,882 L6126,277" stroke="blue" stroke-width="2" />
<path d="M4148,1006 L3180,1044" stroke="blue" stroke-width="2" />
<path d="M7467,974 L3937,892" stroke="blue" stroke-width="2" />
<path d="M1149,1095 L2928,946" stroke="blue" stroke-width="2" />
<path d="M3921,128 L2829,1134" stroke="blue" stroke-width="2" />
<path d="M4347,857 L3611,298" stroke="blue" stroke-width="2" />
<path d="M330,709 L6379,451" stroke="blue" stroke-width="2" />
<path d="M6612,759 L2151,511" stroke="blue" stroke-width="2" />
<path d="M4654,298 L1723,213" stroke="blue" stroke-width="2" />
<path d="M6419,139 L5526,810" stroke="blue" stroke-width="2" />
<path d="M7881,192 L3117,546" stroke="blue" stroke-width="2" />
<path d="M6705,378 L6498,1211" stroke="blue" stroke-width="2" />
<path d="M3066,234 L5640,492" stroke="blue" stroke-width="2" />
<path d="M3163,876 L1252,1063" stroke="blue" stroke-width="2" />
<path d="M4201,478 L5854,883" stroke="blue" stroke-width="2" />
<path d="M6311,967 L4928,58" stroke="blue" stroke-width="2" />
<path d="M8011,384 L3498,584" stroke="blue" stroke-width="2" />
<path d="M1171,499 L2462,724" stroke="blue" stroke-width="2" />
<path d="M1342,197 L4133,58" stroke="blue" stroke-width="2" />
<path d="M7225,1102 L6479,160" stroke="blue" stroke-width="2" />
<path d="M5427,387 L1234,931" stroke="blue" stroke-width="2" />
<path d="M4148,384 L4718,825" stroke="blue" stroke-width="2" />
<path d="M3428,1126 L6073,23" stroke="blue" stroke-width="2" />
<path d="M6768,755 L5984,922" stroke="blue" stroke-width="2" />
<path d="M7373,180 L2730,1082" stroke="blue" stroke-width="2" />
<path d="M5757,672 L2421,104" stroke="blue" stroke-width="2" />
<path d="M1309,280 L46,1016" stroke="blue" stroke-width="2" />
<path d="M4496,320 L4174,767" stroke="blue" stroke-width="2" />
<path d="M1680,358 L5827,807" stroke="blue" stroke-width="2" />
<path d="M4521,1158 L1761,93" stroke="blue" stroke-width="2" />
<path d="M5931,124 L3617,736" stroke="blue" stroke-width="2" />
<path d="M3951,882 L2738,1174" stroke="blue" stroke-width="2" />
<path d="M6190,734 L4308,87" stroke="blue" stroke-width="2" />
<path d="M4975,75 L6814,299" stroke="blue" stroke-width="2" />
<path d="M3601,1059 L5957,847" stroke="blue" stroke-width="2" />
<path d="M7537,1076 L3976,750" stroke="blue" stroke-width="2" />
<path d="M5575,1184 L3386,158" stroke="blue" stroke-width="2" />
<path d="M2432,957 L604,194" stroke="blue" stroke-width="2" />
<path d="M6738,1114 L7691,138" stroke="blue" stroke-width="2" />
<path d="M3006,58 L2381,1063" stroke="blue" stroke-width="2" />
<path d="M3707,392 L4704,746" stroke="blue" stroke-width="2" />
<path d="M7965,737 L4997,264" stroke="blue" stroke-width="2" />
<path d="M7950,18 L6027,159" stroke="blue" stroke-width="2" />
<path d="M1316,116 L2042,811" stroke="blue" stroke-width="2" />
<path d="M4341,841 L5985,869" stroke="blue" stroke-width="2" />
<path d="M7799,468 L706,1099" stroke="blue" stroke-width="2" />
<path d="M7863,394 L7152,353" stroke="blue" stroke-width="2" />
<path d="M2330,770 L4541,35" stroke="blue" stroke-width="2" />
<path d="M6373,964 L4092,346" stroke="blue" stroke-width="2" />
<path d="M6121,756 L4200,51" stroke="blue" stroke-width="2" />
<path d="M6117,1214 L253,1088" stroke="blue" stroke-width="2" />
<path d="M7769,913 L1393,940" stroke="blue" stroke-width="2" />
<path d="M1337,441 L6946,807" stroke="blue" stroke-width="2" />
<path d="M5724,1080 L772,746" stroke="blue" stroke-width="2" />
<path d="M232,418 L1676,701" stroke="blue" stroke-width="2" />
<path d="M4212,1045 L3220,1150" stroke="blue" stroke-width="2" />
<path d="M38,790 L3955,1202" stroke="blue" stroke-width="2" />
<path d="M3093,923 L5667,443" stroke="blue" stroke-width="2" />
<path d="M1869,116 L6126,563" stroke="blue" stroke-width="2" />
<path d="M1427,899 L648,624" stroke="blue" stroke-width="2" />
<path d="M4757,1213 L4688,744" stroke="blue" stroke-width="2" />
<path d="M7391,497 L657,842" stroke="blue" stroke-width="2" />
<path d="M6682,864 L370,691" stroke="blue" stroke-width="2" />
<path d="M986,1154 L7807,935" stroke="blue" stroke-width="2" />
<path d="M6657,135 L5641,276" stroke="blue" stroke-width="2" />
<path d="M4039,1054 L3171,705" stroke="blue" stroke-width="2" />
<path d="M764,412 L9,298" stroke="blue" stroke-width="2" />
<path d="M3743,741 L389,985" stroke="blue" stroke-width="2" />
<path d="M6909,483 L3265,245" stroke="blue" stroke-width="2" />
<path d="M3301,501 L5426,846" stroke="blue" stroke-width="2" />
<path d="M1853,337 L1751,233" stroke="blue" stroke-width="2" />
<path d="M2180,546 L1341,672" stroke="blue" stroke-width="2" />
<path d="M1896,376 L7840,35" stroke="blue" stroke-width="2" />
<path d="M6281,1144 L3798,484" stroke="blue" stroke-width="2" />
<path d="M6399,1139 L320,311" stroke="blue" stroke-width="2" />
<path d="M7264,914 L3960,216" stroke="blue" stroke-width="2" />
<path d="M417,202 L7178,995" stroke="blue" stroke-width="2" />
<path d="M2809,387 L3072,144" stroke="blue" stroke-width="2" />
<path d="M5284,784 L417,493" stroke="blue" stroke-width="2" />
<path d="M3967,1207 L6091,333" stroke="blue" stroke-width="2" />
<path d="M870,4 L5330,227" stroke="blue" stroke-width="2" />
<path d="M291,349 L3394,695" stroke="blue" stroke-width="2" />
<path d="M411,150 L6548,1096" stroke="blue" stroke-width="2" />
<path d="M79,313 L3517,941" stroke="blue" stroke-width="2" />
<path d="M8029,1029 L7153,779" stroke="blue" stroke-width="2" />
<path d="M3895,307 L3537,651" stroke="blue" stroke-width="2" />
<path d="M3099,16 L4514,168" stroke="blue" stroke-width="2" />
<path d="M3377,1097 L7125,1099" stroke="blue" stroke-width="2" />
<path d="M5575,704 L7106,494" stroke="blue" stroke-width="2" />
<path d="M7149,945 L6347,698" stroke="blue" stroke-width="2" />
<path d="M2423,813 L697,78" stroke="blue" stroke-width="2" />
<path d="M2223,1170 L3784,309" stroke="blue" stroke-width="2" />
<path d="M7758,290 L2817,824" stroke="blue" stroke-width="2" />
<path d="M321,504 L2169,619" stroke="blue" stroke-width="2" />
<path d="M6681,221 L7211,1084" stroke="blue" stroke-width="2" />
<path d="M2300,525 L4618,377" stroke="blue" stroke-width="2" />
<path d="M3643,889 L4165,939" stroke="blue" stroke-width="2" />
<path d="M6272,868 L1733,89" stroke="blue" stroke-width="2" />
<path d="M2787,734 L4855,991" stroke="blue" stroke-width="2" />
<path d="M5587,373 L1007,760" stroke="blue" stroke-width="2" />
<path d="M5601,78 L5690,929" stroke="blue" stroke-width="2" />
<path d="M37,318 L2895,116" stroke="blue" stroke-width="2" />
<path d="M380,955 L2400,276" stroke="blue" stroke-width="2" />
<path d="M2560,1214 L7946,28" stroke="blue" stroke-width="2" />
<path d="M7219,1159 L6838,843" stroke="blue" stroke-width="2" />
<path d="M2474,127 L970,1042" stroke="blue" stroke-width="2" />
<path d="M3024,451 L1767,1025" stroke="blue" stroke-width="2" />
<path d="M4265,693 L1965,322" stroke="blue" stroke-width="2" />
<path d="M4870,831 L2073,76" stroke="blue" stroke-width="2" />
<path d="M3376,144 L8006,197" stroke="blue" stroke-width="2" />
<path d="M6269,249 L1449,1204" stroke="blue" stroke-width="2" />
<path d="M4416,235 L1342,396" stroke="blue" stroke-width="2" />
<path d="M7929,896 L6105,1131" stroke="blue" stroke-width="2" />
<path d="M2009,18 L6271,1060" stroke="blue" stroke-width="2" />
<path d="M291,1068 L2796,1178" stroke="blue" stroke-width="2" />
<path d="M6379,162 L1604,215" stroke="blue" stroke-width="2" />
<path d="M7623,907 L1667,634" stroke="blue" stroke-width="2" />
<path d="M3204,232 L1582,134" stroke="blue" stroke-width="2" />
<path d="M247,85 L3352,34" stroke="blue" stroke-width="2" />
<path d="M2110,845 L6184,158" stroke="blue" stroke-width="2" />
<path d="M339,439 L3506,1063" stroke="blue" stroke-width="2" />
<path d="M1807,755 L4873,977" stroke="blue" stroke-width="2" />
<path d="M6196,616 L5853,1014" stroke="blue" stroke-width="2" />
<path d="M7335,225 L974,1201" stroke="blue" stroke-width="2" />
<path d="M6683,190 L2744,57" stroke="blue" stroke-width="2" />
<path d="M3820,129 L6084,48" stroke="blue" stroke-width="2" />
<path d="M2411,738 L4976,969" stroke="blue" stroke-width="2" />
<path d="M6479,1123 L4654,194" stroke="blue" stroke-width="2" />
<path d="M1579,928 L673,1187" stroke="blue" stroke-width="2" />
<path d="M4308,894 L4432,843" stroke="blue" stroke-width="2" />
<path d="M3173,1083 L8033,377" stroke="blue" stroke-width="2" />
<path d="M2302,217 L1329,491" stroke="blue" stroke-width="2" />
<path d="M7161,1009 L4581,1101" stroke="blue" stroke-width="2" />
<path d="M5164,1050 L2251,531" stroke="blue" stroke-width="2" />
<path d="M4196,322 L49,244" stroke="blue" stroke-width="2" />
<path d="M1929,194 L6161,72" stroke="blue" stroke-width="2" />
<path d="M343,809 L5456,218" stroke="blue" stroke-width="2" />
<path d="M2373,573 L971,1144" stroke="blue" stroke-width="2" />
<path d="M998,1133 L6910,753" stroke="blue" stroke-width="2" />
<path d="M4420,171 L863,1193" stroke="blue" stroke-width="2" />
<path d="M582,915 L4428,562" stroke="blue" stroke-width="2" />
<path d="M8014,1017 L1107,244" stroke="blue" stroke-width="2" />
<path d="M5040,390 L5200,914" stroke="blue" stroke-width="2" />
<path d="M2058,997 L2827,224" stroke="blue" stroke-width="2" />
<path d="M2421,696 L3125,274" stroke="blue" stroke-width="2" />
<path d="M5437,824 L4446,484" stroke="blue" stroke-width="2" />
<path d="M1517,1201 L4721,860" stroke="blue" stroke-width="2" />
<path d="M4450,999 L1092,1202" stroke="blue" stroke-width="2" />
<path d="M7644,680 L5528,59" stroke="blue" stroke-width="2" />
<path d="M1839,78 L4281,650" stroke="blue" stroke-width="2" />
<path d="M659,577 L4046,528" stroke="blue" stroke-width="2" />
<path d="M3872,394 L2162,396" stroke="blue" stroke-width="2" />
<path d="M4506,132 L6363,716" stroke="blue" stroke-width="2" />
<path d="M7210,1179 L6414,1051" stroke="blue" stroke-width="2" />
<path d="M3636,322 L5804,485" stroke="blue" stroke-width="2" />
<path d="M5434,171 L7798,809" stroke="blue" stroke-width="2" />
<path d="M4590,789 L2153,153" stroke="blue" stroke-width="2" />
<path d="M4711,365 L3186,652" stroke="blue" stroke-width="2" />
<path d="M4580,315 L6474,322" stroke="blue" stroke-width="2" />
<path d="M1889,729 L19,1160" stroke="blue" stroke-width="2" />
<path d="M6588,135 L4405,749" stroke="blue" stroke-width="2" />
<path d="M5726,17 L2031,790" stroke="blue" stroke-width="2" />
<path d="M1770,296 L7792,413" stroke="blue" stroke-width="2" />
<path d="M350,582 L4073,1045" stroke="blue" stroke-width="2" />
<path d="M2309,520 L4575,107" stroke="blue" stroke-width="2" />
<path d="M4604,601 L2436,759" stroke="blue" stroke-width="2" />
<path d="M3521,424 L2786,930" stroke="blue" stroke-width="2" />
<path d="M7535,522 L3277,129" stroke="blue" stroke-width="2" />
<path d="M2137,737 L6411,1023" stroke="blue" stroke-width="2" />
<path d="M3258,1092 L4979,612" stroke="blue" stroke-width="2" />
<path d="M867,182 L5537,33" stroke="blue" stroke-width="2" />
<path d="M5493,70 L7732,1069" stroke="blue" stroke-width="2" />
<path d="M1354,153 L2221,980" stroke="blue" stroke-width="2" />
<path d="M328,32 L2833,219" stroke="blue" stroke-width="2" />
<path d="M6706,78 L5175,932" stroke="blue" stroke-width="2" />
<path d="M7318,680 L3924,826" stroke="blue" stroke-width="2" />
<path d="M5693,735 L159,933" stroke="blue" stroke-width="2" />
<path d="M6382,81 L2174,804" stroke="blue" stroke-width="2" />
<path d="M5301,516 L2881,720" stroke="blue" stroke-width="2" />
<path d="M832,393 L1161,174" stroke="blue" stroke-width="2" />
<path d="M2928,987 L4686,284" stroke="blue" stroke-width="2" />
<path d="M5868,328 L7754,334" stroke="blue" stroke-width="2" />
<path d="M4140,470 L4576,237" stroke="blue" stroke-width="2" />
<path d="M2522,787 L5099,1117" stroke="blue" stroke-width="2" />
<path d="M6524,293 L5840,1093" stroke="blue" stroke-width="2" />
<path d="M2735,371 L4000,465" stroke="blue" stroke-width="2" />
<path d="M6624,967 L7660,867" stroke="blue" stroke-width="2" />
<path d="M4735,636 L3496,1" stroke="blue" stroke-width="2" />
<path d="M7774,982 L2671,754" stroke="blue" stroke-width="2" />
<path d="M7427,334 L4033,970" stroke="blue" stroke-width="2" />
<path d="M563,658 L38,420" stroke="blue" stroke-width="2" />
<path d="M656,1058 L7917,32" stroke="blue" stroke-width="2" />
<path d="M5756,744 L6081,1150" stroke="blue" stroke-width="2" />
<path d="M2641,1031 L767,578" stroke="blue" stroke-width="2" />
<path d="M7793,1072 L3228,780" stroke="blue" stroke-width="2" />
<path d="M1899,1152 L6079,591" stroke="blue" stroke-width="2" />
<path d="M708,361 L7840,208" stroke="blue" stroke-width="2" />
<path d="M4332,210 L7660,66" stroke="blue" stroke-width="2" />
<path d="M4470,82 L8128,1048" stroke="blue" stroke-width="2" />
<path d="M5502,311 L1533,467" stroke="blue" stroke-width="2" />
<path d="M4037,851 L3006,54" stroke="blue" stroke-width="2" />
<path d="M2703,1047 L5965,991" stroke="blue" stroke-width="2" />
<path d="M3302,1166 L4498,523" stroke="blue" stroke-width="2" />
<path d="M3116,435 L3099,414" stroke="blue" stroke-width="2" />
<path d="M3792,597 L1772,599" stroke="blue" stroke-width="2" />
<path d="M2124,101 L6219,15" stroke="blue" stroke-width="2" />
<path d="M6893,24 L2978,356" stroke="blue" stroke-width="2" />
<path d="M7225,1199 L2227,258" stroke="blue" stroke-width="2" />
<path d="M1200,736 L1020,386" stroke="blue" stroke-width="2" />
<path d="M5479,787 L1281,33" stroke="blue" stroke-width="2" />
<path d="M1868,684 L6029,192" stroke="blue" stroke-width="2" />
<path d="M3892,927 L7197,1083" stroke="blue" stroke-width="2" />
<path d="M6040,543 L3558,737" stroke="blue" stroke-width="2" />
<path d="M5042,160 L6428,927" stroke="blue" stroke-width="2" />
<path d="M1928,1209 L439,596" stroke="blue" stroke-width="2" />
<path d="M8013,390 L2021,903" stroke="blue" stroke-width="2" />
<path d="M6252,19 L3429,855" stroke="blue" stroke-width="2" />
<path d="M5855,382 L3329,1146" stroke="blue" stroke-width="2" />
<path d="M437,507 L7347,1034" stroke="blue" stroke-width="2" />
<path d="M7028,1141 L2310,576" stroke="blue" stroke-width="2" />
<path d="M287,529 L722,633" stroke="blue" stroke-width="2" />
<path d="M733,291 L6257,644" stroke="blue" stroke-width="2" />
<path d="M4720,856 L1489,99" stroke="blue" stroke-width="2" />
<path d="M6346,492 L3399,1194" stroke="blue" stroke-width="2" />
<path d="M1436,483 L8103,574" stroke="blue" stroke-width="2" />
<path d="M2568,1110 L5463,595" stroke="blue" stroke-width="2" />
<path d="M5198,847 L4064,63" stroke="blue" stroke-width="2" />
<path d="M4996,58 L5542,200" stroke="blue" stroke-width="2" />
<path d="M1421,873 L2237,217" stroke="blue" stroke-width="2" />
<path d="M1898,799 L5672,620" stroke="blue" stroke-width="2" />
<path d="M6132,906 L3656,165" stroke="blue" stroke-width="2" />
<path d="M932,11 L6292,1086" stroke="blue" stroke-width="2" />
<path d="M5392,396 L2653,895" stroke="blue" stroke-width="2" />
<path d="M5002,502 L7303,1010" stroke="blue" stroke-width="2" />
<path d="M1881,199 L312,494" stroke="blue" stroke-width="2" />
<path d="M7780,345 L2990,665" stroke="blue" stroke-width="2" />
<path d="M786,393 L2843,599" stroke="blue" stroke-width="2" />
<path d="M2755,778 L1710,103" stroke="blue" stroke-width="2" />
<path d="M6682,5 L5926,689" stroke="blue" stroke-width="2" />
<path d="M4892,421 L1517,141" stroke="blue" stroke-width="2" />
<path d="M4863,897 L7063,1108" stroke="blue" stroke-width="2" />
<path d="M2392,327 L2931,1153" stroke="blue" stroke-width="2" />
<path d="M4431,908 L7735,987" stroke="blue" stroke-width="2" />
<path d="M3363,869 L3217,892" stroke="blue" stroke-width="2" />
<path d="M3212,692 L6504,296" stroke="blue" stroke-width="2" />
<path d="M2305,475 L5874,278" stroke="blue" stroke-width="2" />
<path d="M4134,621 L3174,1070" stroke="blue" stroke-width="2" />
<path d="M4688,935 L6636,289" stroke="blue" stroke-width="2" />
<path d="M841,476 L5947,950" stroke="blue" stroke-width="2" />
<path d="M2764,247 L2477,195" stroke="blue" stroke-width="2" />
<path d="M2478,1164 L2882,812" stroke="blue" stroke-width="2" />
<path d="M3712,571 L5276,611" stroke="blue" stroke-width="2" />
<path d="M6691,1088 L6138,990" stroke="blue" stroke-width="2" />
<path d="M7760,73 L1895,609" stroke="blue" stroke-width="2" />
<path d="M2059,1013 L289,771" stroke="blue" stroke-width="2" />
<path d="M7779,148 L4067,547" stroke="blue" stroke-width="2" />
<path d="M411,992 L4520,497" stroke="blue" stroke-width="2" />
<path d="M147,1077 L1006,527" stroke="blue" stroke-width="2" />
<path d="M6257,622 L2021,648" stroke="blue" stroke-width="2" />
<path d="M522,517 L1164,632" stroke="blue" stroke-width="2" />
<path d="M4211,133 L1244,492" stroke="blue" stroke-width="2" />
<path d="M529,665 L4214,319" stroke="blue" stroke-width="2" />
<path d="M4264,194 L1819,692" stroke="blue" stroke-width="2" />
<path d="M7769,1105 L3642,744" stroke="blue" stroke-width="2" />
<path d="M120,741 L4506,477" stroke="blue" stroke-width="2" />
<path d="M6301,861 L4904,536" stroke="blue" stroke-width="2" />
<path d="M6473,38 L794,1120" stroke="blue" stroke-width="2" />
<path d="M3920,255 L2116,1101" stroke="blue" stroke-width="2" />
<path d="M3746,298 L6481,586" stroke="blue" stroke-width="2" />
<path d="M6200,1154 L5788,590" stroke="blue" stroke-width="2" />
<path d="M6305,979 L5604,701" stroke="blue" stroke-width="2" />
<path d="M3161,549 L6343,737" stroke="blue" stroke-width="2" />
<path d="M759,59 L304,684" stroke="blue" stroke-width="2" />
<path d="M6432,414 L8108,296" stroke="blue" stroke-width="2" />
<path d="M1929,74 L181,275" stroke="blue" stroke-width="2" />
<path d="M6483,681 L2374,475" stroke="blue" stroke-width="2" />
<path d="M2436,675 L625,1109" stroke="blue" stroke-width="2" />
<path d="M258,1091 L1620,365" stroke="blue" stroke-width="2" />
<path d="M7555,157 L2596,44" stroke="blue" stroke-width="2" />
<path d="M6686,153 L965,132" stroke="blue" stroke-width="2" />
<path d="M6758,935 L3630,907" stroke="blue" stroke-width="2" />
<path d="M4331,1104 L3307,538" stroke="blue" stroke-width="2" />
<path d="M5873,940 L330,61" stroke="blue" stroke-width="2" />
<path d="M2628,220 L5440,807" stroke="blue" stroke-width="2" />
<path d="M5549,899 L4999,467" stroke="blue" stroke-width="2" />
<path d="M438,70 L5505,60" stroke="blue" stroke-width="2" />
<path d="M5794,1188 L6267,444" stroke="blue" stroke-width="2" />
<path d="M1827,101 L7162,389" stroke="blue" stroke-width="2" />
<path d="M129,252 L6221,288" stroke="blue" stroke-width="2" />
<path d="M8035,106 L124,450" stroke="blue" stroke-width="2" />
<path d="M4766,986 L3230,390" stroke="blue" stroke-width="2" />
<path d="M6002,875 L7556,524" stroke="blue" stroke-width="2" />
<path d="M4019,953 L2676,184" stroke="blue" stroke-width="2" />
<path d="M4007,173 L2642,1208" stroke="blue" stroke-width="2" />
<path d="M3593,386 L8128,1206" stroke="blue" stroke-width="2" />
<path d="M241,835 L7874,263" stroke="blue" stroke-width="2" />
<path d="M5047,539 L6391,417" stroke="blue" stroke-width="2" />
<path d="M7241,97 L1586,1004" stroke="blue" stroke-width="2" />
<path d="M7752,123 L7490,252" stroke="blue" stroke-width="2" />
<path d="M5426,150 L3214,756" stroke="blue" stroke-width="2" />
<path d="M6694,181 L8093,1049" stroke="blue" stroke-width="2" />
<path d="M412,470 L4627,6" stroke="blue" stroke-width="2" />
<path d="M5591,761 L1780,606" stroke="blue" stroke-width="2" />
<path d="M4942,257 L606,817" stroke="blue" stroke-width="2" />
<path d="M6726,1169 L4497,1117" stroke="blue" stroke-width="2" />
<path d="M8028,547 L2290,629" stroke="blue" stroke-width="2" />
<path d="M7749,643 L8019,35" stroke="blue" stroke-width="2" />
<path d="M1184,594 L404,487" stroke="blue" stroke-width="2" />
<path d="M50,1186 L5277,211" stroke="blue" stroke-width="2" />
<path d="M4263,703 L649,561" stroke="blue" stroke-width="2" />
<path d="M3170,840 L5078,153" stroke="blue" stroke-width="2" />
<path d="M6658,1205 L3665,431" stroke="blue" stroke-width="2" />
<path d="M4996,240 L5491,331" stroke="blue" stroke-width="2" />
<path d="M3748,380 L8051,260" stroke="blue" stroke-width="2" />
<path d="M4241,264 L1364,61" stroke="blue" stroke-width="2" />
<path d="M4890,991 L6256,666" stroke="blue" stroke-width="2" />
<path d="M900,357 L4994,890" stroke="blue" stroke-width="2" />
<path d="M2975,491 L1676,647" stroke="blue" stroke-width="2" />
<path d="M5941,621 L4894,449" stroke="blue" stroke-width="2" />
<path d="M2330,480 L6520,714" stroke="blue" stroke-width="2" />
<path d="M1047,1091 L7496,834" stroke="blue" stroke-width="2" />
<path d="M3637,829 L2561,689" stroke="blue" stroke-width="2" />
<path d="M5955,848 L718,266" stroke="blue" stroke-width="2" />
<path d="M5996,501 L7512,728" stroke="blue" stroke-width="2" />
<path d="M702,386 L7571,144" stroke="blue" stroke-width="2" />
<path d="M7557,777 L6376,891" stroke="blue" stroke-width="2" />
<path d="M7890,1091 L6209,441" stroke="blue" stroke-width="2" />
<path d="M7054,329 L6855,89" stroke="blue" stroke-width="2" />
<path d="M6579,494 L3369,510" stroke="blue" stroke-width="2" />
<path d="M7583,930 L5400,520" stroke="blue" stroke-width="2" />
<path d="M324,1122 L4467,909" stroke="blue" stroke-width="2" />
<path d="M4941,141 L3633,556" stroke="blue" stroke-width="2" />
<path d="M5556,1067 L806,61" stroke="blue" stroke-width="2" />
<path d="M607,368 L7822,143" stroke="blue" stroke-width="2" />
<path d="M6101,1015 L3003,819" stroke="blue" stroke-width="2" />
<path d="M1916,584 L5776,78" stroke="blue" stroke-width="2" />
<path d="M917,402 L5619,878" stroke="blue" stroke-width="2" />
<path d="M2213,32 L6803,838" stroke="blue" stroke-width="2" />
<path d="M4822,933 L2850,869" stroke="blue" stroke-width="2" />
<path d="M7883,1163 L3822,704" stroke="blue" stroke-width="2" />
<path d="M4569,1145 L7763,588" stroke="blue" stroke-width="2" />
<path d="M427,426 L2616,654" stroke="blue" stroke-width="2" />
<path d="M792,21 L6243,311" stroke="blue" stroke-width="2" />
<path d="M780,196 L6548,353" stroke="blue" stroke-width="2" />
<path d="M1505,1152 L2312,202" stroke="blue" stroke-width="2" />
<path d="M6251,372 L7953,803" stroke="blue" stroke-width="2" />
<path d="M7990,826 L5203,58" stroke="blue" stroke-width="2" />
<path d="M5391,368 L6560,1053" stroke="blue" stroke-width="2" />
<path d="M1601,750 L5195,697" stroke="blue" stroke-width="2" />
<path d="M7599,881 L3715,526" stroke="blue" stroke-width="2" />
<path d="M7068,1016 L831,1007" stroke="blue" stroke-width="2" />
<path d="M7194,599 L3816,381" stroke="blue" stroke-width="2" />
<path d="M4561,612 L0,364" stroke="blue" stroke-width="2" />
<path d="M1164,1075 L2707,1027" stroke="blue" stroke-width="2" />
<path d="M2685,409 L1781,314" stroke="blue" stroke-width="2" />
<path d="M2217,533 L6071,57" stroke="blue" stroke-width="2" />
<path d="M2020,1105 L2574,637" stroke="blue" stroke-width="2" />
<path d="M976,259 L2587,519" stroke="blue" stroke-width="2" />
<path d="M1504,716 L7354,1052" stroke="blue" stroke-width="2" />
<path d="M1515,575 L4291,1199" stroke="blue" stroke-width="2" />
<path d="M407,727 L6878,335" stroke="blue" stroke-width="2" />
<path d="M5518,825 L213,204" stroke="blue" stroke-width="2" />
<path d="M1914,1092 L4697,248" stroke="blue" stroke-width="2" />
<path d="M7862,531 L7516,1124" stroke="blue" stroke-width="2" />
<path d="M3860,1213 L4293,1054" stroke="blue" stroke-width="2" />
<path d="M4284,828 L4058,825" stroke="blue" stroke-width="2" />
<path d="M1577,288 L435,1006" stroke="blue" stroke-width="2" />
<path d="M5826,499 L1505,99" stroke="blue" stroke-width="2" />
<path d="M1434,575 L2254,105" stroke="blue" stroke-width="2" />
<path d="M7887,232 L5479,1154" stroke="blue" stroke-width="2" />
<path d="M3042,610 L7815,793" stroke="blue" stroke-width="2" />
<path d="M7306,628 L6982,765" stroke="blue" stroke-width="2" />
<path d="M2881,278 L4786,649" stroke="blue" stroke-width="2" />
<path d="M95,107 L7527,107" stroke="blue" stroke-width="2" />
<path d="M2216,928 L496,331" stroke="blue" stroke-width="2" />
<path d="M2673,676 L3086,847" stroke="blue" stroke-width="2" />
<path d="M1031,208 L4772,689" stroke="blue" stroke-width="2" />
<path d="M6402,531 L3714,954" stroke="blue" stroke-width="2" />
<path d="M1248,1169 L3338,238" stroke="blue" stroke-width="2" />
<path d="M7899,512 L7725,1100" stroke="blue" stroke-width="2" />
<path d="M3169,876 L2663,865" stroke="blue" stroke-width="2" />
<path d="M7770,686 L4338,427" stroke="blue" stroke-width="2" />
<path d="M205,1004 L1840,503" stroke="blue" stroke-width="2" />
<path d="M1980,1117 L5024,508" stroke="blue" stroke-width="2" />
<path d="M3748,238 L3862,445" stroke="blue" stroke-width="2" />
<path d="M5205,894 L3906,457" stroke="blue" stroke-width="2" />
<path d="M7234,840 L8130,362" stroke="blue" stroke-width="2" />
<path d="M5771,202 L7655,10" stroke="blue" stroke-width="2" />
<path d="M5821,885 L596,272" stroke="blue" stroke-width="2" />
<path d="M2207,349 L2434,999" stroke="blue" stroke-width="2" />
<path d="M4875,362 L7413,340" stroke="blue" stroke-width="2" />
<path d="M3878,597 L3746,111" stroke="blue" stroke-width="2" />
<path d="M7194,73 L1404,48" stroke="blue" stroke-width="2" />
<path d="M5546,1164 L3304,1023" stroke="blue" stroke-width="2" />
<path d="M824,531 L3153,1074" stroke="blue" stroke-width="2" />
<path d="M1104,877 L3072,238" stroke="blue" stroke-width="2" />
<path d="M1400,550 L6914,1163" stroke="blue" stroke-width="2" />
<path d="M6215,310 L5461,944" stroke="blue" stroke-width="2" />
<path d="M1832,1099 L2223,89" stroke="blue" stroke-width="2" />
<path d="M6110,219 L768,575" stroke="blue" stroke-width="2" />
<path d="M4221,653 L5496,789" stroke="blue" stroke-width="2" />
<path d="M1133,1182 L536,766" stroke="blue" stroke-width="2" />
<path d="M5827,1087 L7266,125" stroke="blue" stroke-width="2" />
<path d="M5716,204 L7553,389" stroke="blue" stroke-width="2" />
<path d="M1238,234 L6152,214" stroke="blue" stroke-width="2" />
<path d="M8039,952 L3026,885" stroke="blue" stroke-width="2" />
<path d="M858,351 L6855,735" stroke="blue" stroke-width="2" />
<path d="M2798,532 L4777,1212" stroke="blue" stroke-width="2" />
<path d="M1496,1136 L2142,780" stroke="blue" stroke-width="2" />
<path d="M2123,784 L7793,338" stroke="blue" stroke-width="2" />
<path d="M7870,50 L5523,316" stroke="blue" stroke-width="2" />
<path d="M4010,1164 L4884,768" stroke="blue" stroke-width="2" />
<path d="M6183,741 L7408,139" stroke="blue" stroke-width="2" />
<path d="M2453,572 L250,1015" stroke="blue" stroke-width="2" />
<path d="M3657,993 L2497,379" stroke="blue" stroke-width="2" />
<path d="M717,438 L7608,127" stroke="blue" stroke-width="2" />
<path d="M7163,902 L4064,1075" stroke="blue" stroke-width="2" />
<path d="M4952,706 L6097,196" stroke="blue" stroke-width="2" />
<path d="M3778,553 L1436,413" stroke="blue" stroke-width="2" />
<path d="M2498,1095 L575,1109" stroke="blue" stroke-width="2" />
<path d="M6327,713 L239,856" stroke="blue" stroke-width="2" />
<path d="M281,886 L2129,157" stroke="blue" stroke-width="2" />
<path d="M1461,358 L944,505" stroke="blue" stroke-width="2" />
<path d="M2691,172 L5503,493" stroke="blue" stroke-width="2" />
<path d="M555,781 L7724,262" stroke="blue" stroke-width="2" />
<path d="M5138,507 L630,822" stroke="blue" stroke-width="2" />
<path d="M6952,493 L7975,995" stroke="blue" stroke-width="2" />
<path d="M249,1157 L5391,420" stroke="blue" stroke-width="2" />
<path d="M3058,521 L1578,559" stroke="blue" stroke-width="2" />
<path d="M4838,1213 L3457,1127" stroke="blue" stroke-width="2" />
<path d="M5593,701 L2770,797" stroke="blue" stroke-width="2" />
<path d="M4105,627 L2246,1182" stroke="blue" stroke-width="2" />
<path d="M1169,584 L4887,206" stroke="blue" stroke-width="2" />
<path d="M5085,671 L5676,1186" stroke="blue" stroke-width="2" />
<path d="M3782,978 L4737,1156" stroke="blue" stroke-width="2" />
<path d="M4001,654 L5314,538" stroke="blue" stroke-width="2" />
<path d="M4066,732 L5067,815" stroke="blue" stroke-width="2" />
<path d="M1871,139 L1276,748" stroke="blue" stroke-width="2" />
<path d="M7490,256 L5055,866" stroke="blue" stroke-width="2" />
<path d="M6491,516 L7427,1092" stroke="blue" stroke-width="2" />
<path d="M2760,1190 L8085,954" stroke="blue" stroke-width="2" />
<path d="M6464,915 L5227,1131" stroke="blue" stroke-width="2" />
<path d="M5707,122 L6031,889" stroke="blue" stroke-width="2" />
<path d="M1468,351 L3859,418" stroke="blue" stroke-width="2" />
<path d="M7949,1113 L1192,714" stroke="blue" stroke-width="2" />
<path d="M6608,723 L1556,740" stroke="blue" stroke-width="2" />
<path d="M3333,971 L188,976" stroke="blue" stroke-width="2" />
<path d="M5259,551 L2006,1037" stroke="blue" stroke-width="2" />
<path d="M5143,1106 L3561,500" stroke="blue" stroke-width="2" />
<path d="M4779,732 L3128,791" stroke="blue" stroke-width="2" />
<path d="M2042,860 L5576,340" stroke="blue" stroke-width="2" />
<path d="M1949,99 L3026,30" stroke="blue" stroke-width="2" />
<path d="M5377,945 L5804,668" stroke="blue" stroke-width="2" />
<path d="M6059,854 L3616,55" stroke="blue" stroke-width="2" />
<path d="M3264,422 L3724,312" stroke="blue" stroke-width="2" />
<path d="M5243,421 L2747,696" stroke="blue" stroke-width="2" />
<path d="M374,346 L2380,923" stroke="blue" stroke-width="2" />
<path d="M4386,1137 L6482,604" stroke="blue" stroke-width="2" />
<path d="M7796,221 L3651,349" stroke="blue" stroke-width="2" />
<path d="M2620,326 L6692,1213" stroke="blue" stroke-width="2" />
<path d="M1876,960 L7558,1206" stroke="blue" stroke-width="2" />
<path d="M2191,199 L599,781" stroke="blue" stroke-width="2" />
<path d="M1006,1204 L5011,742" stroke="blue" stroke-width="2" />
<path d="M470,85 L6173,710" stroke="blue" stroke-width="2" />
<path d="M1480,846 L3488,439" stroke="blue" stroke-width="2" />
<path d="M7823,13 L8121,1041" stroke="blue" stroke-width="2" />
<path d="M7124,586 L893,11" stroke="blue" stroke-width="2" />
<path d="M6106,535 L1382,584" stroke="blue" stroke-width="2" />
<path d="M2605,593 L4827,106" stroke="blue" stroke-width="2" />
<path d="M6709,481 L1284,1094" stroke="blue" stroke-width="2" />
<path d="M2373,155 L2821,291" stroke="blue" stroke-width="2" />
<path d="M5043,487 L5170,356" stroke="blue" stroke-width="2" />
<path d="M5253,1085 L4848,472" stroke="blue" stroke-width="2" />
<path d="M2297,485 L2344,733" stroke="blue" stroke-width="2" />
<path d="M2516,699 L3456,379" stroke="blue" stroke-width="2" />
<path d="M3536,1157 L7767,994" stroke="blue" stroke-width="2" />
<path d="M6132,4 L7697,822" stroke="blue" stroke-width="2" />
<path d="M4013,297 L7080,41" stroke="blue" stroke-width="2" />
<path d="M4339,47 L1229,79" stroke="blue" stroke-width="2" />
<path d="M74,640 L3648,558" stroke="blue" stroke-width="2" />
<path d="M834,120 L2362,1035" stroke="blue" stroke-width="2" />
<path d="M7225,126 L3997,423" stroke="blue" stroke-width="2" />
<path d="M6411,165 L7313,305" stroke="blue" stroke-width="2" />
<path d="M3816,262 L4387,241" stroke="blue" stroke-width="2" />
<path d="M3983,390 L2176,687" stroke="blue" stroke-width="2" />
<path d="M1343,769 L1807,295" stroke="blue" stroke-width="2" />
<path d="M4754,140 L6280,840" stroke="blue" stroke-width="2" />
<path d="M2107,1143 L7428,493" stroke="blue" stroke-width="2" />
<path d="M7106,1019 L8050,445" stroke="blue" stroke-width="2" />
<path d="M6754,728 L4496,1213" stroke="blue" stroke-width="2" />
<path d="M906,752 L4011,631" stroke="blue" stroke-width="2" />
<path d="M743,1021 L2727,247" stroke="blue" stroke-width="2" />
<path d="M5671,384 L5183,871" stroke="blue" stroke-width="2" />
<path d="M7199,767 L5839,1118" stroke="blue" stroke-width="2" />
<path d="M6142,410 L4883,1125" stroke="blue" stroke-width="2" />
<path d="M900,240 L521,1121" stroke="blue" stroke-width="2" />
<path d="M5397,1011 L5773,517" stroke="blue" stroke-width="2" />
<path d="M7293,808 L7150,976" stroke="blue" stroke-width="2" />
<path d="M724,1139 L5614,1027" stroke="blue" stroke-width="2" />
<path d="M7097,469 L3271,364" stroke="blue" stroke-width="2" />
<path d="M4931,65 L6268,164" stroke="blue" stroke-width="2" />
<path d="M1056,553 L351,8" stroke="blue" stroke-width="2" />
<path d="M2273,1089 L3718,489" stroke="blue" stroke-width="2" />
<path d="M5034,282 L378,583" stroke="blue" stroke-width="2" />
<path d="M6022,4 L1208,236" stroke="blue" stroke-width="2" />
<path d="M393,148 L4588,954" stroke="blue" stroke-width="2" />
<path d="M1731,508 L1752,791" stroke="blue" stroke-width="2" />
<path d="M3988,159 L1464,487" stroke="blue" stroke-width="2" />
<path d="M3355,747 L549,400" stroke="blue" stroke-width="2" />
<path d="M6964,1005 L2076,1030" stroke="blue" stroke-width="2" />
<path d="M8070,39 L5890,430" stroke="blue" stroke-width="2" />
<path d="M3755,11 L7329,156" stroke="blue" stroke-width="2" />
<path d="M2378,488 L4185,270" stroke="blue" stroke-width="2" />
<path d="M1355,422 L2823,796" stroke="blue" stroke-width="2" />
<path d="M5892,294 L4189,669" stroke="blue" stroke-width="2" />
<path d="M1328,612 L5098,1057" stroke="blue" stroke-width="2" />
<path d="M6388,638 L7000,835" stroke="blue" stroke-width="2" />
<path d="M5284,1047 L3960,300" stroke="blue" stroke-width="2" />
<path d="M654,586 L5099,966" stroke="blue" stroke-width="2" />
<path d="M8019,859 L5418,433" stroke="blue" stroke-width="2" />
<path d="M6609,294 L2713,818" stroke="blue" stroke-width="2" />
<path d="M3029,930 L6051,495" stroke="blue" stroke-width="2" />
<path d="M7769,804 L5892,706" stroke="blue" stroke-width="2" />
<path d="M2081,916 L1254,407" stroke="blue" stroke-width="2" />
<path d="M5111,912 L992,287" stroke="blue" stroke-width="2" />
<path d="M1373,852 L2678,128" stroke="blue" stroke-width="2" />
<path d="M3387,253 L5024,1095" stroke="blue" stroke-width="2" />
<path d="M2780,113 L3438,158" stroke="blue" stroke-width="2" />
<path d="M568,803 L7701,603" stroke="blue" stroke-width="2" />
<path d="M3490,435 L4088,313" stroke="blue" stroke-width="2" />
<path d="M4274,810 L3860,618" stroke="blue" stroke-width="2" />
<path d="M991,70 L491,588" stroke="blue" stroke-width="2" />
<path d="M2919,82 L5308,524" stroke="blue" stroke-width="2" />
<path d="M781,1179 L3310,1037" stroke="blue" stroke-width="2" />
<path d="M4656,50 L577,795" stroke="blue" stroke-width="2" />
<path d="M443,624 L4239,763" stroke="blue" stroke-width="2" />
<path d="M5823,254 L2520,830" stroke="blue" stroke-width="2" />
<path d="M7812,454 L7015,960" stroke="blue" stroke-width="2" />
<path d="M7906,632 L3786,706" stroke="blue" stroke-width="2" />
<path d="M640,903 L2758,984" stroke="blue" stroke-width="2" />
<path d="M2009,329 L6655,991" stroke="blue" stroke-width="2" />
<path d="M6172,781 L5410,193" stroke="blue" stroke-width="2" />
<path d="M7075,312 L6421,816" stroke="blue" stroke-width="2" />
<path d="M1764,399 L1325,259" stroke="blue" stroke-width="2" />
<path d="M4742,570 L4680,163" stroke="blue" stroke-width="2" />
<path d="M7427,776 L6189,394" stroke="blue" stroke-width="2" />
<path d="M6375,69 L3783,150" stroke="blue" stroke-width="2" />
<path d="M4112,351 L3552,317" stroke="blue" stroke-width="2" />
<path d="M4098,843 L5552,52" stroke="blue" stroke-width="2" />
<path d="M5176,271 L4588,1068" stroke="blue" stroke-width="2" />
<path d="M171,284 L6345,811" stroke="blue" stroke-width="2" />
<path d="M6422,828 L5802,326" stroke="blue" stroke-width="2" />
<path d="M4431,154 L479,1077" stroke="blue" stroke-width="2" />
<path d="M2610,298 L82,827" stroke="blue" stroke-width="2" />
<path d="M4510,13 L4264,1078" stroke="blue" stroke-width="2" />
<path d="M6725,928 L6941,787" stroke="blue" stroke-width="2" />
<path d="M7396,570 L7184,360" stroke="blue" stroke-width="2" />
<path d="M6206,349 L4772,935" stroke="blue" stroke-width="2" />
<path d="M5464,1177 L4860,931" stroke="blue" stroke-width="2" />
<path d="M2009,262 L2044,513" stroke="blue" stroke-width="2" />
<path d="M7512,150 L6609,815" stroke="blue" stroke-width="2" />
<path d="M7395,909 L7272,251" stroke="blue" stroke-width="2" />
<path d="M7007,790 L5066,1081" stroke="blue" stroke-width="2" />
<path d="M6304,579 L7816,491" stroke="blue" stroke-width="2" />
<path d="M6508,1072 L1990,72" stroke="blue" stroke-width="2" />
<path d="M63,1137 L621,390" stroke="blue" stroke-width="2" />
<path d="M6394,647 L1167,581" stroke="blue" stroke-width="2" />
<path d="M4953,586 L3723,1171" stroke="blue" stroke-width="2" />
<path d="M2287,484 L545,64" stroke="blue" stroke-width="2" />
<path d="M7665,588 L8043,355" stroke="blue" stroke-width="2" />
<path d="M3574,1045 L2641,500" stroke="blue" stroke-width="2" />
<path d="M6270,300 L2018,661" stroke="blue" stroke-width="2" />
<path d="M7339,732 L2810,1168" stroke="blue" stroke-width="2" />
<path d="M5919,960 L7279,796" stroke="blue" stroke-width="2" />
<path d="M1260,312 L4961,504" stroke="blue" stroke-width="2" />
<path d="M6494,212 L7642,326" stroke="blue" stroke-width="2" />
<path d="M4665,315 L1655,968" stroke="blue" stroke-width="2" />
<path d="M504,380 L5634,294" stroke="blue" stroke-width="2" />
<path d="M1212,122 L2611,400" stroke="blue" stroke-width="2" />
<path d="M3056,1042 L4735,1053" stroke="blue" stroke-width="2" />
<path d="M2649,922 L2826,946" stroke="blue" stroke-width="2" />
<path d="M7243,690 L7144,71" stroke="blue" stroke-width="2" />
<path d="M2924,106 L4156,96" stroke="blue" stroke-width="2" />
<path d="M5663,419 L5491,975" stroke="blue" stroke-width="2" />
<path d="M3740,29 L3022,421" stroke="blue" stroke-width="2" />
<path d="M4640,366 L4333,474" stroke="blue" stroke-width="2" />
<path d="M3227,344 L833,164" stroke="blue" stroke-width="2" />
<path d="M1703,987 L2955,83" stroke="blue" stroke-width="2" />
<path d="M1075,270 L5747,1191" stroke="blue" stroke-width="2" />
<path d="M366,1078 L4355,565" stroke="blue" stroke-width="2" />
<path d="M2119,532 L1047,927" stroke="blue" stroke-width="2" />
<path d="M5463,1074 L413,1083" stroke="blue" stroke-width="2" />
<path d="M6708,953 L7648,499" stroke="blue" stroke-width="2" />
<path d="M1291,406 L4805,553" stroke="blue" stroke-width="2" />
<path d="M6886,414 L2749,1116" stroke="blue" stroke-width="2" />
<path d="M1589,1138 L2207,963" stroke="blue" stroke-width="2" />
<path d="M3547,1048 L2279,629" stroke="blue" stroke-width="2" />
<path d="M6854,166 L7266,1184" stroke="blue" stroke-width="2" />
<path d="M3570,1210 L2983,802" stroke="blue" stroke-width="2" />
<path d="M5510,1131 L1699,569" stroke="blue" stroke-width="2" />
<path d="M5173,815 L3970,173" stroke="blue" stroke-width="2" />
<path d="M3486,610 L2502,1170" stroke="blue" stroke-width="2" />
<path d="M2482,525 L550,526" stroke="blue" stroke-width="2" />
<path d="M4766,405 L5978,679" stroke="blue" stroke-width="2" />
<path d="M131,509 L1091,183" stroke="blue" stroke-width="2" />
<path d="M1866,24 L1662,171" stroke="blue" stroke-width="2" />
<path d="M1224,1201 L2906,1177" stroke="blue" stroke-width="2" />
<path d="M6440,779 L5693,414" stroke="blue" stroke-width="2" />
<path d="M800,809 L6343,349" stroke="blue" stroke-width="2" />
<path d="M4971,655 L5593,1136" stroke="blue" stroke-width="2" />
<path d="M3540,1032 L3524,1061" stroke="blue" stroke-width="2" />
<path d="M3082,466 L7060,527" stroke="blue" stroke-width="2" />
<path d="M1641,798 L7492,107" stroke="blue" stroke-width="2" />
<path d="M471,941 L2261,298" stroke="blue" stroke-width="2" />
<path d="M4621,742 L2824,1076" stroke="blue" stroke-width="2" />
<path d="M3585,174 L3778,719" stroke="blue" stroke-width="2" />
<path d="M790,614 L2061,695" stroke="blue" stroke-width="2" />
<path d="M7905,431 L6137,683" stroke="blue" stroke-width="2" />
<path d="M7201,869 L3672,597" stroke="blue" stroke-width="2" />
<path d="M4351,614 L5905,764" stroke="blue" stroke-width="2" />
<path d="M3506,685 L8005,746" stroke="blue" stroke-width="2" />
<path d="M6200,1057 L4263,1164" stroke="blue" stroke-width="2" />
<path d="M4397,606 L6966,1000" stroke="blue" stroke-width="2" />
<path d="M1901,103 L679,301" stroke="blue" stroke-width="2" />
<path d="M2974,67 L2925,602" stroke="blue" stroke-width="2" />
<path d="M6955,1183 L6011,340" stroke="blue" stroke-width="2" />
<path d="M7018,748 L2959,470" stroke="blue" stroke-width="2" />
<path d="M0,0 L8137,0" stroke="red" stroke-width="10" />
<path d="M8137,0 L8137,1216" stroke="red" stroke-width="10" />
<path d="M0,1216 L8137,1216" stroke="red" stroke-width="10" />
<path d="M0,1216 L0,0" stroke="red" stroke-width="10" />
</svg>