<?xml version="1.0" encoding="UTF-8"?>
<svg xmlns="http://www.w3.org/2000/svg" xmlns:xlink="http://www.w3.org/1999/xlink"
     width="10000" height="10000" viewBox="0 0 10000 10000">
<defs>
</defs>
<path d="M2209,3 L3581,59" stroke="blue" stroke-width="2" />
<path d="M3514,276 L1307,202" stroke="blue" stroke-width="2" />
<path d="M538,1064 L167,557" stroke="blue" stroke-width="2" />
<path d="M1125,414 L164,264" stroke="blue" stroke-width="2" />
<path d="M1143,632 L2904,770" stroke="blue" stroke-width="2" />
<path d="M1828,875 L1328,758" stroke="blue" stroke-width="2" />
<path d="M1993,491 L1349,700" stroke="blue" stroke-width="2" />
<path d="M1887,840 L2488,371" stroke="blue" stroke-width="2" />
<path d="M713,489 L493,803" stroke="blue" stroke-width="2" />
<path d="M1540,520 L1466,582" stroke="blue" stroke-width="2" />
<path d="M1124,876 L1509,843" stroke="blue" stroke-width="2" />
<path d="M2618,523 L2021,189" stroke="blue" stroke-width="2" />
<path d="M2757,647 L2403,941" stroke="blue" stroke-width="2" />
<path d="M2979,41 L1955,749" stroke="blue" stroke-width="2" />
<path d="M2708,1071 L866,283" stroke="blue" stroke-width="2" />
<path d="M3420,928 L3177,826" stroke="blue" stroke-width="2" />
<path d="M2135,86 L336,781" stroke="blue" stroke-width="2" />
<path d="M3580,829 L1427,915" stroke="blue" stroke-width="2" />
<path d="M2828,542 L546,970" stroke="blue" stroke-width="2" />
<path d="M2467,872 L816,511" stroke="blue" stroke-width="2" />
<path d="M3412,731 L1235,668" stroke="blue" stroke-width="2" />
<path d="M2381,493 L2399,532" stroke="blue" stroke-width="2" />
<path d="M1295,851 L1909,450" stroke="blue" stroke-width="2" />
<path d="M3157,105 L769,452" stroke="blue" stroke-width="2" />
<path d="M1151,225 L1756,1171" stroke="blue" stroke-width="2" />
<path d="M1408,1131 L472,210" stroke="blue" stroke-width="2" />
<path d="M2923,1201 L635,1188" stroke="blue" stroke-width="2" />
<path d="M1287,329 L1301,650" stroke="blue" stroke-width="2" />
<path d="M135,547 L1755,709" stroke="blue" stroke-width="2" />
<path d="M837,1064 L1872,512" stroke="blue" stroke-width="2" />
<path d="M3448,200 L3262,225" stroke="blue" stroke-width="2" />
<path d="M1982,889 L2836,432" stroke="blue" stroke-width="2" />
<path d="M1050,130 L1905,2" stroke="blue" stroke-width="2" />
<path d="M2936,1090 L1181,718" stroke="blue" stroke-width="2" />
<path d="M2347,782 L2130,129" stroke="blue" stroke-width="2" />
<path d="M1989,26 L2664,1109" stroke="blue" stroke-width="2" />
<path d="M334,1199 L500,1056" stroke="blue" stroke-width="2" />
<path d="M398,119 L754,497" stroke="blue" stroke-width="2" />
<path d="M2841,352 L1456,550" stroke="blue" stroke-width="2" />
<path d="M2986,627 L1246,625" stroke="blue" stroke-width="2" />
<path d="M3310,972 L3291,964" stroke="blue" stroke-width="2" />
<path d="M0,0 L3583,0" stroke="red" stroke-width="10" />
<path d="M3583,0 L3583,1220" stroke="red" stroke-width="10" />
<path d="M0,1220 L3583,1220" stroke="red" stroke-width="10" />
<path d="M0,1220 L0,0" stroke="red" stroke-width="10" />
</svg>