<?xml version="1.0" encoding="UTF-8"?>
<svg xmlns="http://www.w3.org/2000/svg" xmlns:xlink="http://www.w3.org/1999/xlink"
     width="10000" height="10000" viewBox="0 0 10000 10000">
<defs>
</defs>
<path d="M3754,2070 L2924,926" stroke="blue" stroke-width="2" />
<path d="M34,400 L622,2413" stroke="blue" stroke-width="2" />
<path d="M4256,1365 L1356,2631" stroke="blue" stroke-width="2" />
<path d="M344,5099 L326,2251" stroke="blue" stroke-width="2" />
<path d="M4647,64 L1407,8137" stroke="blue" stroke-width="2" />
<path d="M1927,3132 L4678,6764" stroke="blue" stroke-width="2" />
<path d="M3069,4394 L1655,2779" stroke="blue" stroke-width="2" />
<path d="M3238,8121 L987,4177" stroke="blue" stroke-width="2" />
<path d="M3360,2074 L1255,6464" stroke="blue" stroke-width="2" />
<path d="M2969,379 L2653,6501" stroke="blue" stroke-width="2" />
<path d="M505,2783 L1966,3256" stroke="blue" stroke-width="2" />
<path d="M518,1215 L2414,4057" stroke="blue" stroke-width="2" />
<path d="M3021,4818 L3492,1505" stroke="blue" stroke-width="2" />
<path d="M3635,7733 L3620,8221" stroke="blue" stroke-width="2" />
<path d="M2148,7496 L1728,5527" stroke="blue" stroke-width="2" />
<path d="M2487,1102 L3499,7962" stroke="blue" stroke-width="2" />
<path d="M7,4970 L4611,3374" stroke="blue" stroke-width="2" />
<path d="M3440,1924 L287,781" stroke="blue" stroke-width="2" />
<path d="M2250,1998 L3315,858" stroke="blue" stroke-width="2" />
<path d="M1199,1772 L4338,5887" stroke="blue" stroke-width="2" />
<path d="M4214,6867 L4824,4919" stroke="blue" stroke-width="2" />
<path d="M2738,4112 L1246,2589" stroke="blue" stroke-width="2" />
<path d="M2887,2735 L4301,4236" stroke="blue" stroke-width="2" />
<path d="M1945,5599 L840,3816" stroke="blue" stroke-width="2" />
<path d="M1509,696 L4616,886" stroke="blue" stroke-width="2" />
<path d="M536,1941 L628,3552" stroke="blue" stroke-width="2" />
<path d="M828,1703 L3433,3995" stroke="blue" stroke-width="2" />
<path d="M3042,3475 L356,6222" stroke="blue" stroke-width="2" />
<path d="M2074,1502 L2980,7001" stroke="blue" stroke-width="2" />
<path d="M193,4843 L16,4458" stroke="blue" stroke-width="2" />
<path d="M3303,6425 L2808,5268" stroke="blue" stroke-width="2" />
<path d="M1292,3415 L4683,8213" stroke="blue" stroke-width="2" />
<path d="M1606,5853 L4598,2088" stroke="blue" stroke-width="2" />
<path d="M4161,2330 L3342,3596" stroke="blue" stroke-width="2" />
<path d="M4647,8392 L3306,6391" stroke="blue" stroke-width="2" />
<path d="M869,2895 L2339,3243" stroke="blue" stroke-width="2" />
<path d="M1590,4079 L2964,81" stroke="blue" stroke-width="2" />
<path d="M1396,1143 L312,2659" stroke="blue" stroke-width="2" />
<path d="M2563,1901 L1076,2134" stroke="blue" stroke-width="2" />
<path d="M1331,648 L524,3678" stroke="blue" stroke-width="2" />
<path d="M3490,6217 L1093,4335" stroke="blue" stroke-width="2" />
<path d="M3745,3596 L1333,5190" stroke="blue" stroke-width="2" />
<path d="M2911,6653 L4430,4244" stroke="blue" stroke-width="2" />
<path d="M323,5727 L784,8456" stroke="blue" stroke-width="2" />
<path d="M1770,8328 L4419,8340" stroke="blue" stroke-width="2" />
<path d="M2376,213 L781,5493" stroke="blue" stroke-width="2" />
<path d="M3326,988 L4834,8473" stroke="blue" stroke-width="2" />
<path d="M2946,764 L842,853" stroke="blue" stroke-width="2" />
<path d="M2818,1884 L755,6777" stroke="blue" stroke-width="2" />
<path d="M2343,8017 L3170,481" stroke="blue" stroke-width="2" />
<path d="M2894,3942 L2650,8381" stroke="blue" stroke-width="2" />
<path d="M2420,2398 L1791,2532" stroke="blue" stroke-width="2" />
<path d="M3486,8387 L556,2721" stroke="blue" stroke-width="2" />
<path d="M3307,5615 L875,6428" stroke="blue" stroke-width="2" />
<path d="M2388,5386 L4701,7971" stroke="blue" stroke-width="2" />
<path d="M1737,2629 L3762,6762" stroke="blue" stroke-width="2" />
<path d="M1119,6795 L2477,2780" stroke="blue" stroke-width="2" />
<path d="M4141,137 L3939,3398" stroke="blue" stroke-width="2" />
<path d="M2880,2336 L1152,5124" stroke="blue" stroke-width="2" />
<path d="M3835,4501 L1929,2571" stroke="blue" stroke-width="2" />
<path d="M2941,7043 L4013,2811" stroke="blue" stroke-width="2" />
<path d="M4850,1041 L4547,4432" stroke="blue" stroke-width="2" />
<path d="M1576,6347 L2353,3763" stroke="blue" stroke-width="2" />
<path d="M1747,5970 L921,156" stroke="blue" stroke-width="2" />
<path d="M1438,6564 L1866,7672" stroke="blue" stroke-width="2" />
<path d="M2251,6565 L643,1639" stroke="blue" stroke-width="2" />
<path d="M3216,2321 L3235,5992" stroke="blue" stroke-width="2" />
<path d="M3346,4847 L3977,3293" stroke="blue" stroke-width="2" />
<path d="M4291,7873 L560,8418" stroke="blue" stroke-width="2" />
<path d="M3502,2639 L2560,3688" stroke="blue" stroke-width="2" />
<path d="M2181,1856 L359,7690" stroke="blue" stroke-width="2" />
<path d="M1368,5477 L2827,6715" stroke="blue" stroke-width="2" />
<path d="M4471,1262 L42,5240" stroke="blue" stroke-width="2" />
<path d="M4024,6817 L1252,7524" stroke="blue" stroke-width="2" />
<path d="M466,3370 L2237,6061" stroke="blue" stroke-width="2" />
<path d="M3872,8252 L3624,8119" stroke="blue" stroke-width="2" />
<path d="M2610,1770 L3522,2733" stroke="blue" stroke-width="2" />
<path d="M1722,7226 L2957,4497" stroke="blue" stroke-width="2" />
<path d="M3292,311 L2934,2586" stroke="blue" stroke-width="2" />
<path d="M3166,6953 L2853,2446" stroke="blue" stroke-width="2" />
<path d="M2625,6182 L1500,4600" stroke="blue" stroke-width="2" />
<path d="M2173,4810 L2829,4430" stroke="blue" stroke-width="2" />
<path d="M3109,3420 L1374,7065" stroke="blue" stroke-width="2" />
<path d="M4160,8336 L107,5609" stroke="blue" stroke-width="2" />
<path d="M1824,592 L1983,1730" stroke="blue" stroke-width="2" />
<path d="M720,5257 L126,6627" stroke="blue" stroke-width="2" />
<path d="M866,3834 L298,1550" stroke="blue" stroke-width="2" />
<path d="M58,837 L842,2324" stroke="blue" stroke-width="2" />
<path d="M2256,3027 L402,1103" stroke="blue" stroke-width="2" />
<path d="M3282,7600 L2245,486" stroke="blue" stroke-width="2" />
<path d="M623,6545 L4712,2701" stroke="blue" stroke-width="2" />
<path d="M4071,181 L2,1903" stroke="blue" stroke-width="2" />
<path d="M2177,6510 L1176,606" stroke="blue" stroke-width="2" />
<path d="M2573,7029 L138,2318" stroke="blue" stroke-width="2" />
<path d="M80,669 L756,8498" stroke="blue" stroke-width="2" />
<path d="M1805,3539 L600,5497" stroke="blue" stroke-width="2" />
<path d="M4382,2927 L4131,1579" stroke="blue" stroke-width="2" />
<path d="M3492,6959 L2869,5914" stroke="blue" stroke-width="2" />
<path d="M1775,2418 L853,4817" stroke="blue" stroke-width="2" />
<path d="M4544,257 L2278,3139" stroke="blue" stroke-width="2" />
<path d="M2114,1934 L3936,8110" stroke="blue" stroke-width="2" />
<path d="M3190,6130 L1848,1649" stroke="blue" stroke-width="2" />
<path d="M3387,5001 L2645,2399" stroke="blue" stroke-width="2" />
<path d="M3535,2974 L1232,1742" stroke="blue" stroke-width="2" />
<path d="M907,2409 L2054,4910" stroke="blue" stroke-width="2" />
<path d="M3257,2214 L842,571" stroke="blue" stroke-width="2" />
<path d="M3758,2556 L1156,467" stroke="blue" stroke-width="2" />
<path d="M654,4327 L4434,5438" stroke="blue" stroke-width="2" />
<path d="M2828,6887 L3182,5699" stroke="blue" stroke-width="2" />
<path d="M2395,212 L1805,5230" stroke="blue" stroke-width="2" />
<path d="M1818,6196 L1901,3517" stroke="blue" stroke-width="2" />
<path d="M3186,4776 L3930,2228" stroke="blue" stroke-width="2" />
<path d="M3520,5281 L3668,3222" stroke="blue" stroke-width="2" />
<path d="M3295,6122 L2465,2764" stroke="blue" stroke-width="2" />
<path d="M3508,3506 L4102,8067" stroke="blue" stroke-width="2" />
<path d="M1410,8045 L4169,708" stroke="blue" stroke-width="2" />
<path d="M1164,910 L2022,8261" stroke="blue" stroke-width="2" />
<path d="M3919,2783 L3329,2534" stroke="blue" stroke-width="2" />
<path d="M865,4133 L1584,1143" stroke="blue" stroke-width="2" />
<path d="M2630,1315 L3678,1111" stroke="blue" stroke-width="2" />
<path d="M3759,2307 L1433,3870" stroke="blue" stroke-width="2" />
<path d="M4136,6943 L2498,1048" stroke="blue" stroke-width="2" />
<path d="M2316,1945 L637,1594" stroke="blue" stroke-width="2" />
<path d="M2238,6131 L3009,241" stroke="blue" stroke-width="2" />
<path d="M1116,5258 L532,6920" stroke="blue" stroke-width="2" />
<path d="M328,941 L1958,5258" stroke="blue" stroke-width="2" />
<path d="M4146,8368 L3351,6663" stroke="blue" stroke-width="2" />
<path d="M4680,7348 L4522,1692" stroke="blue" stroke-width="2" />
<path d="M3571,2064 L441,4617" stroke="blue" stroke-width="2" />
<path d="M4821,2261 L3428,8307" stroke="blue" stroke-width="2" />
<path d="M2312,193 L1121,6641" stroke="blue" stroke-width="2" />
<path d="M2670,7668 L1696,2895" stroke="blue" stroke-width="2" />
<path d="M1977,4985 L2206,262" stroke="blue" stroke-width="2" />
<path d="M1031,4518 L2072,4380" stroke="blue" stroke-width="2" />
<path d="M3671,2087 L724,1893" stroke="blue" stroke-width="2" />
<path d="M4152,805 L268,2712" stroke="blue" stroke-width="2" />
<path d="M3514,4677 L3169,378" stroke="blue" stroke-width="2" />
<path d="M3778,4153 L4190,4164" stroke="blue" stroke-width="2" />
<path d="M1096,4416 L3773,566" stroke="blue" stroke-width="2" />
<path d="M2596,4111 L3518,6434" stroke="blue" stroke-width="2" />
<path d="M3822,2767 L4600,2964" stroke="blue" stroke-width="2" />
<path d="M34,4055 L346,3992" stroke="blue" stroke-width="2" />
<path d="M4306,7852 L1071,4243" stroke="blue" stroke-width="2" />
<path d="M3691,4228 L4529,2211" stroke="blue" stroke-width="2" />
<path d="M752,4709 L165,1902" stroke="blue" stroke-width="2" />
<path d="M2332,1422 L2701,8231" stroke="blue" stroke-width="2" />
<path d="M577,8530 L191,1658" stroke="blue" stroke-width="2" />
<path d="M1218,6318 L2793,2372" stroke="blue" stroke-width="2" />
<path d="M178,5603 L3790,7814" stroke="blue" stroke-width="2" />
<path d="M1036,332 L2708,4102" stroke="blue" stroke-width="2" />
<path d="M1171,1522 L2266,5226" stroke="blue" stroke-width="2" />
<path d="M1357,5080 L1016,1686" stroke="blue" stroke-width="2" />
<path d="M2080,2856 L1101,7719" stroke="blue" stroke-width="2" />
<path d="M1441,975 L272,6563" stroke="blue" stroke-width="2" />
<path d="M4625,2707 L1617,3753" stroke="blue" stroke-width="2" />
<path d="M1565,7200 L2444,211" stroke="blue" stroke-width="2" />
<path d="M1682,4489 L3706,1710" stroke="blue" stroke-width="2" />
<path d="M2226,3731 L981,8001" stroke="blue" stroke-width="2" />
<path d="M502,4803 L3272,4467" stroke="blue" stroke-width="2" />
<path d="M1439,4479 L595,7433" stroke="blue" stroke-width="2" />
<path d="M3028,255 L2240,710" stroke="blue" stroke-width="2" />
<path d="M2741,1851 L513,4321" stroke="blue" stroke-width="2" />
<path d="M2242,1507 L1788,7017" stroke="blue" stroke-width="2" />
<path d="M398,7638 L1888,5934" stroke="blue" stroke-width="2" />
<path d="M1204,258 L1693,8002" stroke="blue" stroke-width="2" />
<path d="M1816,4583 L3807,5749" stroke="blue" stroke-width="2" />
<path d="M1490,189 L3821,6925" stroke="blue" stroke-width="2" />
<path d="M2271,6573 L3571,7582" stroke="blue" stroke-width="2" />
<path d="M2843,1048 L1388,3015" stroke="blue" stroke-width="2" />
<path d="M119,8459 L4714,817" stroke="blue" stroke-width="2" />
<path d="M260,7092 L998,3939" stroke="blue" stroke-width="2" />
<path d="M1640,3120 L3106,8112" stroke="blue" stroke-width="2" />
<path d="M2793,1068 L61,1526" stroke="blue" stroke-width="2" />
<path d="M4419,256 L2247,6103" stroke="blue" stroke-width="2" />
<path d="M3432,1777 L819,8447" stroke="blue" stroke-width="2" />
<path d="M4288,686 L3260,1042" stroke="blue" stroke-width="2" />
<path d="M3124,6551 L469,842" stroke="blue" stroke-width="2" />
<path d="M2475,3504 L1091,78" stroke="blue" stroke-width="2" />
<path d="M3565,1712 L1624,3229" stroke="blue" stroke-width="2" />
<path d="M1511,733 L222,6257" stroke="blue" stroke-width="2" />
<path d="M4326,671 L3666,5855" stroke="blue" stroke-width="2" />
<path d="M3723,1776 L4046,4221" stroke="blue" stroke-width="2" />
<path d="M2918,4590 L403,6550" stroke="blue" stroke-width="2" />
<path d="M4434,6646 L1932,7425" stroke="blue" stroke-width="2" />
<path d="M3898,5027 L2625,4811" stroke="blue" stroke-width="2" />
<path d="M2187,4638 L3534,4413" stroke="blue" stroke-width="2" />
<path d="M3521,3856 L2219,3959" stroke="blue" stroke-width="2" />
<path d="M1846,2995 L4186,5108" stroke="blue" stroke-width="2" />
<path d="M2180,5427 L2804,2877" stroke="blue" stroke-width="2" />
<path d="M835,4669 L489,1421" stroke="blue" stroke-width="2" />
<path d="M3125,789 L1796,7328" stroke="blue" stroke-width="2" />
<path d="M12,1534 L1802,2713" stroke="blue" stroke-width="2" />
<path d="M1451,2927 L3605,4380" stroke="blue" stroke-width="2" />
<path d="M1686,484 L3625,54" stroke="blue" stroke-width="2" />
<path d="M3283,2098 L3074,4947" stroke="blue" stroke-width="2" />
<path d="M638,5170 L3170,5323" stroke="blue" stroke-width="2" />
<path d="M1232,1305 L4433,5500" stroke="blue" stroke-width="2" />
<path d="M1323,8066 L2101,3981" stroke="blue" stroke-width="2" />
<path d="M2617,5799 L1655,7927" stroke="blue" stroke-width="2" />
<path d="M2775,8380 L3855,7465" stroke="blue" stroke-width="2" />
<path d="M796,3887 L2788,6168" stroke="blue" stroke-width="2" />
<path d="M4826,4930 L1633,8028" stroke="blue" stroke-width="2" />
<path d="M2721,1831 L2613,1366" stroke="blue" stroke-width="2" />
<path d="M1428,6066 L2970,2890" stroke="blue" stroke-width="2" />
<path d="M2417,8393 L2683,5979" stroke="blue" stroke-width="2" />
<path d="M4836,5926 L2417,432" stroke="blue" stroke-width="2" />
<path d="M2875,7072 L3470,3637" stroke="blue" stroke-width="2" />
<path d="M2934,2348 L2930,2371" stroke="blue" stroke-width="2" />
<path d="M2418,6331 L687,1981" stroke="blue" stroke-width="2" />
<path d="M3129,3766 L3055,7985" stroke="blue" stroke-width="2" />
<path d="M61,7864 L1614,3715" stroke="blue" stroke-width="2" />
<path d="M1746,6045 L404,358" stroke="blue" stroke-width="2" />
<path d="M4215,4286 L4326,311" stroke="blue" stroke-width="2" />
<path d="M2754,4162 L1347,6850" stroke="blue" stroke-width="2" />
<path d="M2632,56 L2998,8154" stroke="blue" stroke-width="2" />
<path d="M205,2369 L2186,845" stroke="blue" stroke-width="2" />
<path d="M644,4170 L225,2148" stroke="blue" stroke-width="2" />
<path d="M1624,5802 L451,5718" stroke="blue" stroke-width="2" />
<path d="M4004,2142 L280,1598" stroke="blue" stroke-width="2" />
<path d="M3925,182 L4729,2226" stroke="blue" stroke-width="2" />
<path d="M4685,4687 L4084,5079" stroke="blue" stroke-width="2" />
<path d="M181,7969 L771,2861" stroke="blue" stroke-width="2" />
<path d="M720,1710 L3366,3266" stroke="blue" stroke-width="2" />
<path d="M788,5518 L1254,5909" stroke="blue" stroke-width="2" />
<path d="M4262,7754 L538,5019" stroke="blue" stroke-width="2" />
<path d="M775,1166 L2553,6682" stroke="blue" stroke-width="2" />
<path d="M4293,7218 L1796,3264" stroke="blue" stroke-width="2" />
<path d="M1616,133 L1029,2254" stroke="blue" stroke-width="2" />
<path d="M3428,6329 L491,1424" stroke="blue" stroke-width="2" />
<path d="M3464,859 L1718,6613" stroke="blue" stroke-width="2" />
<path d="M1535,5339 L2136,1670" stroke="blue" stroke-width="2" />
<path d="M3665,3551 L4752,2390" stroke="blue" stroke-width="2" />
<path d="M3175,8292 L3898,4988" stroke="blue" stroke-width="2" />
<path d="M1706,5212 L1891,3027" stroke="blue" stroke-width="2" />
<path d="M2138,2349 L878,3174" stroke="blue" stroke-width="2" />
<path d="M4080,8236 L1230,8387" stroke="blue" stroke-width="2" />
<path d="M170,5480 L865,4589" stroke="blue" stroke-width="2" />
<path d="M4124,6581 L1765,7187" stroke="blue" stroke-width="2" />
<path d="M2453,3731 L4240,2625" stroke="blue" stroke-width="2" />
<path d="M1769,5333 L3207,8182" stroke="blue" stroke-width="2" />
<path d="M34,5444 L4251,1287" stroke="blue" stroke-width="2" />
<path d="M2918,1714 L393,7589" stroke="blue" stroke-width="2" />
<path d="M3238,2547 L4392,3511" stroke="blue" stroke-width="2" />
<path d="M2392,221 L1978,4475" stroke="blue" stroke-width="2" />
<path d="M2597,2291 L206,3661" stroke="blue" stroke-width="2" />
<path d="M2812,2197 L1997,1181" stroke="blue" stroke-width="2" />
<path d="M937,3887 L3989,6018" stroke="blue" stroke-width="2" />
<path d="M4746,5143 L1434,3382" stroke="blue" stroke-width="2" />
<path d="M4494,2125 L88,6995" stroke="blue" stroke-width="2" />
<path d="M4476,2677 L191,3532" stroke="blue" stroke-width="2" />
<path d="M1809,1052 L1786,6889" stroke="blue" stroke-width="2" />
<path d="M3487,6882 L3757,113" stroke="blue" stroke-width="2" />
<path d="M3705,2853 L783,2990" stroke="blue" stroke-width="2" />
<path d="M3812,3542 L3889,1144" stroke="blue" stroke-width="2" />
<path d="M3290,399 L774,6704" stroke="blue" stroke-width="2" />
<path d="M2692,3159 L1245,5783" stroke="blue" stroke-width="2" />
<path d="M4407,772 L2942,1553" stroke="blue" stroke-width="2" />
<path d="M2682,2656 L1627,49" stroke="blue" stroke-width="2" />
<path d="M913,2889 L4465,2450" stroke="blue" stroke-width="2" />
<path d="M163,8161 L1313,7987" stroke="blue" stroke-width="2" />
<path d="M1981,4623 L4273,3131" stroke="blue" stroke-width="2" />
<path d="M1531,190 L2737,1941" stroke="blue" stroke-width="2" />
<path d="M3715,1674 L4455,6247" stroke="blue" stroke-width="2" />
<path d="M1166,2285 L1082,6934" stroke="blue" stroke-width="2" />
<path d="M871,8131 L417,480" stroke="blue" stroke-width="2" />
<path d="M1101,4727 L1331,6343" stroke="blue" stroke-width="2" />
<path d="M551,2566 L70,3435" stroke="blue" stroke-width="2" />
<path d="M2728,4975 L1543,1431" stroke="blue" stroke-width="2" />
<path d="M1588,1118 L4796,176" stroke="blue" stroke-width="2" />
<path d="M1453,8431 L1029,1519" stroke="blue" stroke-width="2" />
<path d="M3271,921 L3364,2636" stroke="blue" stroke-width="2" />
<path d="M714,5073 L4406,720" stroke="blue" stroke-width="2" />
<path d="M1927,345 L3915,2897" stroke="blue" stroke-width="2" />
<path d="M4624,3362 L4031,3862" stroke="blue" stroke-width="2" />
<path d="M134,6035 L2401,6132" stroke="blue" stroke-width="2" />
<path d="M4807,195 L3509,8028" stroke="blue" stroke-width="2" />
<path d="M1065,2021 L4125,1457" stroke="blue" stroke-width="2" />
<path d="M284,2864 L2142,8026" stroke="blue" stroke-width="2" />
<path d="M3530,5998 L3022,8419" stroke="blue" stroke-width="2" />
<path d="M4708,1268 L4461,993" stroke="blue" stroke-width="2" />
<path d="M2399,6129 L1130,3916" stroke="blue" stroke-width="2" />
<path d="M372,491 L4397,4478" stroke="blue" stroke-width="2" />
<path d="M1251,2507 L3560,3898" stroke="blue" stroke-width="2" />
<path d="M4600,2600 L636,5018" stroke="blue" stroke-width="2" />
<path d="M47,4812 L2342,8166" stroke="blue" stroke-width="2" />
<path d="M209,1638 L2637,3587" stroke="blue" stroke-width="2" />
<path d="M4462,6923 L2709,3488" stroke="blue" stroke-width="2" />
<path d="M3810,8188 L1202,6593" stroke="blue" stroke-width="2" />
<path d="M3175,2416 L1078,5004" stroke="blue" stroke-width="2" />
<path d="M3133,1883 L2573,2660" stroke="blue" stroke-width="2" />
<path d="M243,2751 L410,1196" stroke="blue" stroke-width="2" />
<path d="M3731,3503 L173,1525" stroke="blue" stroke-width="2" />
<path d="M3175,7497 L3919,3606" stroke="blue" stroke-width="2" />
<path d="M3465,6153 L2559,687" stroke="blue" stroke-width="2" />
<path d="M1792,6708 L3633,5806" stroke="blue" stroke-width="2" />
<path d="M2516,8436 L1208,6317" stroke="blue" stroke-width="2" />
<path d="M3869,4142 L948,235" stroke="blue" stroke-width="2" />
<path d="M1363,5514 L245,608" stroke="blue" stroke-width="2" />
<path d="M2512,3559 L3067,3844" stroke="blue" stroke-width="2" />
<path d="M3686,6054 L1848,8500" stroke="blue" stroke-width="2" />
<path d="M1682,7365 L1583,7451" stroke="blue" stroke-width="2" />
<path d="M1764,1227 L1695,2057" stroke="blue" stroke-width="2" />
<path d="M1176,6090 L538,4375" stroke="blue" stroke-width="2" />
<path d="M2300,393 L1266,4398" stroke="blue" stroke-width="2" />
<path d="M1966,2846 L2833,6193" stroke="blue" stroke-width="2" />
<path d="M1275,4439 L581,5809" stroke="blue" stroke-width="2" />
<path d="M360,3275 L1680,5183" stroke="blue" stroke-width="2" />
<path d="M0,0 L4855,0" stroke="red" stroke-width="10" />
<path d="M4855,0 L4855,8532" stroke="red" stroke-width="10" />
<path d="M0,8532 L4855,8532" stroke="red" stroke-width="10" />
<path d="M0,8532 L0,0" stroke="red" stroke-width="10" />
</svg>