<?xml version="1.0" encoding="UTF-8"?>
<svg xmlns="http://www.w3.org/2000/svg" xmlns:xlink="http://www.w3.org/1999/xlink"
     width="10000" height="10000" viewBox="0 0 10000 10000">
<defs>
</defs>
<path d="M1274,6926 L1665,6202" stroke="blue" stroke-width="2" />
<path d="M1949,7561 L1630,4071" stroke="blue" stroke-width="2" />
<path d="M21,2313 L1352,6202" stroke="blue" stroke-width="2" />
<path d="M2317,1114 L81,5" stroke="blue" stroke-width="2" />
<path d="M1408,6311 L2173,9052" stroke="blue" stroke-width="2" />
<path d="M576,8232 L99,3300" stroke="blue" stroke-width="2" />
<path d="M1855,5889 L2036,5092" stroke="blue" stroke-width="2" />
<path d="M1866,979 L409,7901" stroke="blue" stroke-width="2" />
<path d="M1859,1396 L1239,8307" stroke="blue" stroke-width="2" />
<path d="M768,5369 L618,631" stroke="blue" stroke-width="2" />
<path d="M2063,7466 L912,6901" stroke="blue" stroke-width="2" />
<path d="M2176,2105 L865,6527" stroke="blue" stroke-width="2" />
<path d="M1691,3457 L95,9090" stroke="blue" stroke-width="2" />
<path d="M1410,2325 L4,4155" stroke="blue" stroke-width="2" />
<path d="M1654,3268 L1875,921" stroke="blue" stroke-width="2" />
<path d="M1052,2051 L2354,4353" stroke="blue" stroke-width="2" />
<path d="M251,5101 L1792,8716" stroke="blue" stroke-width="2" />
<path d="M2178,1674 L1474,5805" stroke="blue" stroke-width="2" />
<path d="M1289,1397 L458,1272" stroke="blue" stroke-width="2" />
<path d="M1478,4518 L328,3813" stroke="blue" stroke-width="2" />
<path d="M2075,8878 L1850,7271" stroke="blue" stroke-width="2" />
<path d="M726,2430 L2369,3836" stroke="blue" stroke-width="2" />
<path d="M873,6828 L2414,3504" stroke="blue" stroke-width="2" />
<path d="M349,4623 L2077,5289" stroke="blue" stroke-width="2" />
<path d="M834,8865 L460,3584" stroke="blue" stroke-width="2" />
<path d="M2034,7486 L63,8999" stroke="blue" stroke-width="2" />
<path d="M1212,2134 L1125,8058" stroke="blue" stroke-width="2" />
<path d="M1553,8014 L1191,7785" stroke="blue" stroke-width="2" />
<path d="M945,6929 L2088,8364" stroke="blue" stroke-width="2" />
<path d="M1396,4087 L541,6917" stroke="blue" stroke-width="2" />
<path d="M656,1027 L90,5970" stroke="blue" stroke-width="2" />
<path d="M2083,2003 L1670,2331" stroke="blue" stroke-width="2" />
<path d="M2409,2673 L2394,6065" stroke="blue" stroke-width="2" />
<path d="M573,268 L1838,8347" stroke="blue" stroke-width="2" />
<path d="M2112,4604 L2261,4504" stroke="blue" stroke-width="2" />
<path d="M2209,9054 L1000,273" stroke="blue" stroke-width="2" />
<path d="M439,3534 L217,8497" stroke="blue" stroke-width="2" />
<path d="M309,6848 L1371,176" stroke="blue" stroke-width="2" />
<path d="M1233,5568 L2274,7136" stroke="blue" stroke-width="2" />
<path d="M2379,2196 L1327,3964" stroke="blue" stroke-width="2" />
<path d="M1012,5312 L1301,775" stroke="blue" stroke-width="2" />
<path d="M1685,2992 L1270,819" stroke="blue" stroke-width="2" />
<path d="M1306,5323 L733,7710" stroke="blue" stroke-width="2" />
<path d="M1416,5714 L1463,5890" stroke="blue" stroke-width="2" />
<path d="M2014,7063 L338,853" stroke="blue" stroke-width="2" />
<path d="M902,2892 L1102,6362" stroke="blue" stroke-width="2" />
<path d="M2300,3214 L2114,1803" stroke="blue" stroke-width="2" />
<path d="M647,1633 L2411,3466" stroke="blue" stroke-width="2" />
<path d="M4,6296 L1319,1477" stroke="blue" stroke-width="2" />
<path d="M1645,612 L908,1098" stroke="blue" stroke-width="2" />
<path d="M967,2270 L604,4732" stroke="blue" stroke-width="2" />
<path d="M356,7781 L262,6935" stroke="blue" stroke-width="2" />
<path d="M1306,6403 L318,5729" stroke="blue" stroke-width="2" />
<path d="M190,4381 L1672,7961" stroke="blue" stroke-width="2" />
<path d="M2081,5533 L2304,5234" stroke="blue" stroke-width="2" />
<path d="M1000,1674 L602,6227" stroke="blue" stroke-width="2" />
<path d="M1973,7297 L2331,9066" stroke="blue" stroke-width="2" />
<path d="M1923,918 L1975,5197" stroke="blue" stroke-width="2" />
<path d="M540,7019 L703,7700" stroke="blue" stroke-width="2" />
<path d="M463,2207 L228,7950" stroke="blue" stroke-width="2" />
<path d="M213,7699 L2330,8025" stroke="blue" stroke-width="2" />
<path d="M2204,4413 L1678,1168" stroke="blue" stroke-width="2" />
<path d="M748,3945 L1459,3713" stroke="blue" stroke-width="2" />
<path d="M1700,1698 L1074,3245" stroke="blue" stroke-width="2" />
<path d="M165,3644 L1198,4099" stroke="blue" stroke-width="2" />
<path d="M768,3429 L1227,2466" stroke="blue" stroke-width="2" />
<path d="M1797,7023 L1492,7695" stroke="blue" stroke-width="2" />
<path d="M1738,3767 L568,2832" stroke="blue" stroke-width="2" />
<path d="M1444,6154 L1894,715" stroke="blue" stroke-width="2" />
<path d="M274,6472 L969,321" stroke="blue" stroke-width="2" />
<path d="M458,7894 L1381,1230" stroke="blue" stroke-width="2" />
<path d="M2139,2347 L908,5415" stroke="blue" stroke-width="2" />
<path d="M2071,8217 L384,5957" stroke="blue" stroke-width="2" />
<path d="M992,6931 L2273,8523" stroke="blue" stroke-width="2" />
<path d="M231,7179 L1367,3160" stroke="blue" stroke-width="2" />
<path d="M197,5258 L656,8052" stroke="blue" stroke-width="2" />
<path d="M1842,7792 L1654,5383" stroke="blue" stroke-width="2" />
<path d="M2284,4373 L1155,2271" stroke="blue" stroke-width="2" />
<path d="M1101,3517 L413,8751" stroke="blue" stroke-width="2" />
<path d="M942,1655 L589,2026" stroke="blue" stroke-width="2" />
<path d="M2162,6234 L1230,6472" stroke="blue" stroke-width="2" />
<path d="M582,6956 L2297,3017" stroke="blue" stroke-width="2" />
<path d="M1893,7238 L278,8802" stroke="blue" stroke-width="2" />
<path d="M5,8169 L1108,7717" stroke="blue" stroke-width="2" />
<path d="M253,1708 L325,3562" stroke="blue" stroke-width="2" />
<path d="M2373,5160 L1650,4547" stroke="blue" stroke-width="2" />
<path d="M1375,4440 L49,4710" stroke="blue" stroke-width="2" />
<path d="M217,549 L1376,5867" stroke="blue" stroke-width="2" />
<path d="M2085,5274 L1796,4466" stroke="blue" stroke-width="2" />
<path d="M1789,8082 L2193,6942" stroke="blue" stroke-width="2" />
<path d="M434,7281 L837,3897" stroke="blue" stroke-width="2" />
<path d="M1069,8647 L131,7285" stroke="blue" stroke-width="2" />
<path d="M2394,3591 L205,2783" stroke="blue" stroke-width="2" />
<path d="M39,3537 L759,8735" stroke="blue" stroke-width="2" />
<path d="M1068,65 L474,270" stroke="blue" stroke-width="2" />
<path d="M886,8800 L1228,3060" stroke="blue" stroke-width="2" />
<path d="M1872,1156 L2155,7638" stroke="blue" stroke-width="2" />
<path d="M1562,1277 L1840,2314" stroke="blue" stroke-width="2" />
<path d="M761,6944 L494,1506" stroke="blue" stroke-width="2" />
<path d="M1280,3453 L2345,1368" stroke="blue" stroke-width="2" />
<path d="M1886,2955 L1168,5843" stroke="blue" stroke-width="2" />
<path d="M1947,4991 L1194,2029" stroke="blue" stroke-width="2" />
<path d="M1611,4984 L791,7499" stroke="blue" stroke-width="2" />
<path d="M1069,4188 L1630,6163" stroke="blue" stroke-width="2" />
<path d="M809,3877 L1330,925" stroke="blue" stroke-width="2" />
<path d="M2154,7872 L2017,4730" stroke="blue" stroke-width="2" />
<path d="M478,4002 L1459,1843" stroke="blue" stroke-width="2" />
<path d="M691,4521 L455,8375" stroke="blue" stroke-width="2" />
<path d="M2209,5326 L330,1554" stroke="blue" stroke-width="2" />
<path d="M28,1543 L2199,2922" stroke="blue" stroke-width="2" />
<path d="M3,3461 L138,5073" stroke="blue" stroke-width="2" />
<path d="M466,8519 L1070,8202" stroke="blue" stroke-width="2" />
<path d="M114,4773 L2014,7933" stroke="blue" stroke-width="2" />
<path d="M981,3100 L299,3861" stroke="blue" stroke-width="2" />
<path d="M364,5994 L1739,7859" stroke="blue" stroke-width="2" />
<path d="M745,8659 L1054,6225" stroke="blue" stroke-width="2" />
<path d="M407,8957 L2395,4583" stroke="blue" stroke-width="2" />
<path d="M56,1172 L1897,3487" stroke="blue" stroke-width="2" />
<path d="M1054,4347 L231,7964" stroke="blue" stroke-width="2" />
<path d="M1227,522 L2349,8379" stroke="blue" stroke-width="2" />
<path d="M1982,7364 L400,4344" stroke="blue" stroke-width="2" />
<path d="M1955,3050 L2259,3089" stroke="blue" stroke-width="2" />
<path d="M1331,2645 L1947,8242" stroke="blue" stroke-width="2" />
<path d="M2211,2994 L928,2680" stroke="blue" stroke-width="2" />
<path d="M1891,5440 L1446,7489" stroke="blue" stroke-width="2" />
<path d="M1772,1090 L1313,7855" stroke="blue" stroke-width="2" />
<path d="M399,430 L2045,2116" stroke="blue" stroke-width="2" />
<path d="M283,1673 L411,4830" stroke="blue" stroke-width="2" />
<path d="M59,588 L1007,5410" stroke="blue" stroke-width="2" />
<path d="M2321,1506 L1186,4330" stroke="blue" stroke-width="2" />
<path d="M1989,1571 L801,3250" stroke="blue" stroke-width="2" />
<path d="M2105,3511 L2434,3664" stroke="blue" stroke-width="2" />
<path d="M137,3669 L926,4677" stroke="blue" stroke-width="2" />
<path d="M12,8717 L248,3456" stroke="blue" stroke-width="2" />
<path d="M86,4026 L953,9021" stroke="blue" stroke-width="2" />
<path d="M37,8593 L2225,5425" stroke="blue" stroke-width="2" />
<path d="M1773,2738 L1806,1023" stroke="blue" stroke-width="2" />
<path d="M1109,6523 L829,5474" stroke="blue" stroke-width="2" />
<path d="M1728,2816 L1530,1083" stroke="blue" stroke-width="2" />
<path d="M1907,1074 L1290,7122" stroke="blue" stroke-width="2" />
<path d="M1085,4130 L32,5646" stroke="blue" stroke-width="2" />
<path d="M140,2929 L1547,1256" stroke="blue" stroke-width="2" />
<path d="M2169,4409 L314,7953" stroke="blue" stroke-width="2" />
<path d="M620,1734 L227,3490" stroke="blue" stroke-width="2" />
<path d="M1003,1195 L671,3911" stroke="blue" stroke-width="2" />
<path d="M2356,7082 L1141,6402" stroke="blue" stroke-width="2" />
<path d="M1541,5248 L2144,7741" stroke="blue" stroke-width="2" />
<path d="M83,4392 L1028,4115" stroke="blue" stroke-width="2" />
<path d="M833,2489 L152,6399" stroke="blue" stroke-width="2" />
<path d="M740,2086 L988,6716" stroke="blue" stroke-width="2" />
<path d="M846,8533 L692,8557" stroke="blue" stroke-width="2" />
<path d="M486,6451 L1360,4376" stroke="blue" stroke-width="2" />
<path d="M2046,8277 L2278,9007" stroke="blue" stroke-width="2" />
<path d="M716,1362 L917,6982" stroke="blue" stroke-width="2" />
<path d="M1324,3719 L1937,1223" stroke="blue" stroke-width="2" />
<path d="M2254,3882 L2401,9068" stroke="blue" stroke-width="2" />
<path d="M2378,8998 L857,6221" stroke="blue" stroke-width="2" />
<path d="M2083,3329 L878,1765" stroke="blue" stroke-width="2" />
<path d="M516,1130 L1847,4956" stroke="blue" stroke-width="2" />
<path d="M1588,4561 L1344,5505" stroke="blue" stroke-width="2" />
<path d="M323,3344 L2380,2697" stroke="blue" stroke-width="2" />
<path d="M1484,6963 L1677,9012" stroke="blue" stroke-width="2" />
<path d="M1242,5642 L2120,124" stroke="blue" stroke-width="2" />
<path d="M241,6345 L1701,8910" stroke="blue" stroke-width="2" />
<path d="M71,1320 L1652,221" stroke="blue" stroke-width="2" />
<path d="M1300,4043 L1034,2044" stroke="blue" stroke-width="2" />
<path d="M2424,866 L2052,6593" stroke="blue" stroke-width="2" />
<path d="M903,8010 L1512,5119" stroke="blue" stroke-width="2" />
<path d="M802,1391 L512,4646" stroke="blue" stroke-width="2" />
<path d="M2072,9082 L1069,4765" stroke="blue" stroke-width="2" />
<path d="M1154,8590 L1462,3142" stroke="blue" stroke-width="2" />
<path d="M1956,6964 L983,4543" stroke="blue" stroke-width="2" />
<path d="M208,5277 L1992,2655" stroke="blue" stroke-width="2" />
<path d="M2380,7685 L1673,6155" stroke="blue" stroke-width="2" />
<path d="M2403,8035 L5,9080" stroke="blue" stroke-width="2" />
<path d="M2359,5226 L35,5815" stroke="blue" stroke-width="2" />
<path d="M694,6991 L955,6396" stroke="blue" stroke-width="2" />
<path d="M2352,5549 L1009,1929" stroke="blue" stroke-width="2" />
<path d="M652,471 L361,4896" stroke="blue" stroke-width="2" />
<path d="M869,2951 L2145,6292" stroke="blue" stroke-width="2" />
<path d="M129,3816 L720,607" stroke="blue" stroke-width="2" />
<path d="M1185,4427 L1889,7968" stroke="blue" stroke-width="2" />
<path d="M1211,9094 L1205,2727" stroke="blue" stroke-width="2" />
<path d="M1901,3483 L725,3182" stroke="blue" stroke-width="2" />
<path d="M38,3875 L578,1100" stroke="blue" stroke-width="2" />
<path d="M52,7256 L884,3622" stroke="blue" stroke-width="2" />
<path d="M1041,8591 L2035,6171" stroke="blue" stroke-width="2" />
<path d="M1007,2324 L1198,3682" stroke="blue" stroke-width="2" />
<path d="M56,5640 L2061,1937" stroke="blue" stroke-width="2" />
<path d="M832,1216 L2049,185" stroke="blue" stroke-width="2" />
<path d="M1303,476 L1160,8685" stroke="blue" stroke-width="2" />
<path d="M2409,285 L1229,7806" stroke="blue" stroke-width="2" />
<path d="M1904,3095 L530,1443" stroke="blue" stroke-width="2" />
<path d="M1747,3087 L1810,4352" stroke="blue" stroke-width="2" />
<path d="M1341,7638 L442,5326" stroke="blue" stroke-width="2" />
<path d="M2306,5491 L2024,1896" stroke="blue" stroke-width="2" />
<path d="M1705,1745 L135,7020" stroke="blue" stroke-width="2" />
<path d="M2335,4597 L2203,6104" stroke="blue" stroke-width="2" />
<path d="M1479,9090 L2431,7097" stroke="blue" stroke-width="2" />
<path d="M500,4132 L956,5023" stroke="blue" stroke-width="2" />
<path d="M1707,7759 L813,7660" stroke="blue" stroke-width="2" />
<path d="M1589,3158 L249,1623" stroke="blue" stroke-width="2" />
<path d="M2161,956 L2226,6247" stroke="blue" stroke-width="2" />
<path d="M393,1602 L1906,8856" stroke="blue" stroke-width="2" />
<path d="M1637,1195 L173,8952" stroke="blue" stroke-width="2" />
<path d="M2425,7027 L2318,8650" stroke="blue" stroke-width="2" />
<path d="M1689,1264 L1640,7366" stroke="blue" stroke-width="2" />
<path d="M942,3523 L1325,8559" stroke="blue" stroke-width="2" />
<path d="M960,2849 L1421,5646" stroke="blue" stroke-width="2" />
<path d="M1514,316 L1815,4796" stroke="blue" stroke-width="2" />
<path d="M2310,7310 L470,7762" stroke="blue" stroke-width="2" />
<path d="M1312,8140 L2390,7523" stroke="blue" stroke-width="2" />
<path d="M1273,2160 L1931,6877" stroke="blue" stroke-width="2" />
<path d="M2070,3217 L1403,8803" stroke="blue" stroke-width="2" />
<path d="M2100,22 L1961,1335" stroke="blue" stroke-width="2" />
<path d="M1954,962 L1213,8417" stroke="blue" stroke-width="2" />
<path d="M333,4213 L1829,833" stroke="blue" stroke-width="2" />
<path d="M493,3594 L384,7342" stroke="blue" stroke-width="2" />
<path d="M1384,3776 L2209,5764" stroke="blue" stroke-width="2" />
<path d="M718,4692 L1076,8943" stroke="blue" stroke-width="2" />
<path d="M2086,6951 L153,5880" stroke="blue" stroke-width="2" />
<path d="M245,6245 L762,1316" stroke="blue" stroke-width="2" />
<path d="M1915,7577 L1904,1113" stroke="blue" stroke-width="2" />
<path d="M1051,506 L1257,2911" stroke="blue" stroke-width="2" />
<path d="M1688,1882 L838,2626" stroke="blue" stroke-width="2" />
<path d="M1923,1725 L2339,2682" stroke="blue" stroke-width="2" />
<path d="M2092,3211 L1750,7046" stroke="blue" stroke-width="2" />
<path d="M1453,2709 L2058,2125" stroke="blue" stroke-width="2" />
<path d="M1392,6992 L999,5417" stroke="blue" stroke-width="2" />
<path d="M650,2069 L1845,1966" stroke="blue" stroke-width="2" />
<path d="M846,5664 L1692,1709" stroke="blue" stroke-width="2" />
<path d="M665,3115 L381,6659" stroke="blue" stroke-width="2" />
<path d="M1376,7496 L2378,5236" stroke="blue" stroke-width="2" />
<path d="M2224,1571 L947,6738" stroke="blue" stroke-width="2" />
<path d="M1191,7969 L34,8255" stroke="blue" stroke-width="2" />
<path d="M1164,3838 L153,2378" stroke="blue" stroke-width="2" />
<path d="M50,3678 L1951,8486" stroke="blue" stroke-width="2" />
<path d="M1423,3084 L1330,4253" stroke="blue" stroke-width="2" />
<path d="M9,1626 L2244,5023" stroke="blue" stroke-width="2" />
<path d="M264,8789 L808,326" stroke="blue" stroke-width="2" />
<path d="M788,6695 L619,1276" stroke="blue" stroke-width="2" />
<path d="M1548,6030 L3,180" stroke="blue" stroke-width="2" />
<path d="M255,4430 L1128,7585" stroke="blue" stroke-width="2" />
<path d="M204,4642 L974,6712" stroke="blue" stroke-width="2" />
<path d="M337,175 L2257,6176" stroke="blue" stroke-width="2" />
<path d="M2415,5159 L587,1336" stroke="blue" stroke-width="2" />
<path d="M1072,4060 L660,4395" stroke="blue" stroke-width="2" />
<path d="M933,6811 L2339,1806" stroke="blue" stroke-width="2" />
<path d="M463,5742 L1317,884" stroke="blue" stroke-width="2" />
<path d="M1251,7411 L689,8528" stroke="blue" stroke-width="2" />
<path d="M808,2694 L1252,2284" stroke="blue" stroke-width="2" />
<path d="M2385,5080 L809,1379" stroke="blue" stroke-width="2" />
<path d="M892,8058 L600,7556" stroke="blue" stroke-width="2" />
<path d="M61,4237 L307,4464" stroke="blue" stroke-width="2" />
<path d="M148,4751 L2330,4359" stroke="blue" stroke-width="2" />
<path d="M37,4289 L2045,1335" stroke="blue" stroke-width="2" />
<path d="M1718,2131 L30,1837" stroke="blue" stroke-width="2" />
<path d="M1577,6384 L863,5510" stroke="blue" stroke-width="2" />
<path d="M2205,748 L1521,4254" stroke="blue" stroke-width="2" />
<path d="M2036,3541 L1264,2277" stroke="blue" stroke-width="2" />
<path d="M2100,8513 L577,2709" stroke="blue" stroke-width="2" />
<path d="M1776,4036 L349,1615" stroke="blue" stroke-width="2" />
<path d="M117,7641 L1139,446" stroke="blue" stroke-width="2" />
<path d="M11,2645 L337,6279" stroke="blue" stroke-width="2" />
<path d="M841,6457 L2087,1287" stroke="blue" stroke-width="2" />
<path d="M1090,3067 L572,6708" stroke="blue" stroke-width="2" />
<path d="M1066,8124 L1792,8514" stroke="blue" stroke-width="2" />
<path d="M864,2425 L1788,5476" stroke="blue" stroke-width="2" />
<path d="M1045,8659 L2259,6504" stroke="blue" stroke-width="2" />
<path d="M666,3872 L1473,1270" stroke="blue" stroke-width="2" />
<path d="M123,8562 L1707,4710" stroke="blue" stroke-width="2" />
<path d="M1766,7498 L431,5836" stroke="blue" stroke-width="2" />
<path d="M2230,5033 L286,2322" stroke="blue" stroke-width="2" />
<path d="M771,5557 L1451,8649" stroke="blue" stroke-width="2" />
<path d="M1320,8816 L375,7659" stroke="blue" stroke-width="2" />
<path d="M1433,1291 L104,5107" stroke="blue" stroke-width="2" />
<path d="M2207,6112 L699,9071" stroke="blue" stroke-width="2" />
<path d="M129,8699 L2269,3978" stroke="blue" stroke-width="2" />
<path d="M1194,3693 L717,3490" stroke="blue" stroke-width="2" />
<path d="M1348,5450 L1640,144" stroke="blue" stroke-width="2" />
<path d="M1161,8131 L2097,3456" stroke="blue" stroke-width="2" />
<path d="M370,2805 L202,6716" stroke="blue" stroke-width="2" />
<path d="M797,6295 L1500,5562" stroke="blue" stroke-width="2" />
<path d="M876,6398 L1872,2528" stroke="blue" stroke-width="2" />
<path d="M752,1826 L1133,5452" stroke="blue" stroke-width="2" />
<path d="M2159,5072 L56,5513" stroke="blue" stroke-width="2" />
<path d="M929,1335 L1524,7710" stroke="blue" stroke-width="2" />
<path d="M940,541 L1444,1072" stroke="blue" stroke-width="2" />
<path d="M1079,7820 L758,6735" stroke="blue" stroke-width="2" />
<path d="M364,8444 L1555,1737" stroke="blue" stroke-width="2" />
<path d="M1981,4518 L1522,4751" stroke="blue" stroke-width="2" />
<path d="M1405,4894 L732,6391" stroke="blue" stroke-width="2" />
<path d="M591,794 L1825,6812" stroke="blue" stroke-width="2" />
<path d="M1279,3242 L1734,4978" stroke="blue" stroke-width="2" />
<path d="M2023,1862 L2015,6652" stroke="blue" stroke-width="2" />
<path d="M392,2970 L1484,7949" stroke="blue" stroke-width="2" />
<path d="M696,4403 L281,7990" stroke="blue" stroke-width="2" />
<path d="M2135,2804 L93,4641" stroke="blue" stroke-width="2" />
<path d="M1091,6783 L976,4028" stroke="blue" stroke-width="2" />
<path d="M1305,8189 L70,6110" stroke="blue" stroke-width="2" />
<path d="M1487,729 L1091,6457" stroke="blue" stroke-width="2" />
<path d="M1140,3725 L1047,3555" stroke="blue" stroke-width="2" />
<path d="M1643,8370 L877,4595" stroke="blue" stroke-width="2" />
<path d="M1418,5266 L279,8650" stroke="blue" stroke-width="2" />
<path d="M1893,3608 L1717,3597" stroke="blue" stroke-width="2" />
<path d="M29,2083 L2372,2433" stroke="blue" stroke-width="2" />
<path d="M1565,144 L1523,6282" stroke="blue" stroke-width="2" />
<path d="M1676,8074 L274,2532" stroke="blue" stroke-width="2" />
<path d="M15,903 L162,2788" stroke="blue" stroke-width="2" />
<path d="M537,8172 L1097,4972" stroke="blue" stroke-width="2" />
<path d="M1387,2591 L2430,7596" stroke="blue" stroke-width="2" />
<path d="M1720,7638 L2032,7531" stroke="blue" stroke-width="2" />
<path d="M184,3569 L30,3479" stroke="blue" stroke-width="2" />
<path d="M150,5663 L1698,2621" stroke="blue" stroke-width="2" />
<path d="M838,2932 L736,3016" stroke="blue" stroke-width="2" />
<path d="M1250,7659 L1937,5640" stroke="blue" stroke-width="2" />
<path d="M1386,8380 L495,7868" stroke="blue" stroke-width="2" />
<path d="M1402,3834 L515,5881" stroke="blue" stroke-width="2" />
<path d="M2087,3509 L1694,4603" stroke="blue" stroke-width="2" />
<path d="M496,2613 L1202,4462" stroke="blue" stroke-width="2" />
<path d="M1465,5274 L285,2978" stroke="blue" stroke-width="2" />
<path d="M735,3037 L2283,2053" stroke="blue" stroke-width="2" />
<path d="M747,3971 L557,1461" stroke="blue" stroke-width="2" />
<path d="M955,7854 L2260,4495" stroke="blue" stroke-width="2" />
<path d="M259,615 L1662,4284" stroke="blue" stroke-width="2" />
<path d="M2108,784 L1398,1871" stroke="blue" stroke-width="2" />
<path d="M1555,1360 L258,4122" stroke="blue" stroke-width="2" />
<path d="M2023,129 L1461,5621" stroke="blue" stroke-width="2" />
<path d="M672,1037 L454,4857" stroke="blue" stroke-width="2" />
<path d="M1440,2116 L97,7967" stroke="blue" stroke-width="2" />
<path d="M298,52 L1390,4164" stroke="blue" stroke-width="2" />
<path d="M867,4958 L1552,4377" stroke="blue" stroke-width="2" />
<path d="M942,7010 L803,2299" stroke="blue" stroke-width="2" />
<path d="M1882,9025 L2119,5884" stroke="blue" stroke-width="2" />
<path d="M1716,2915 L1980,514" stroke="blue" stroke-width="2" />
<path d="M1373,7228 L1337,841" stroke="blue" stroke-width="2" />
<path d="M1013,6593 L393,9055" stroke="blue" stroke-width="2" />
<path d="M767,8543 L786,4757" stroke="blue" stroke-width="2" />
<path d="M37,4015 L1023,8896" stroke="blue" stroke-width="2" />
<path d="M1764,4823 L2161,4128" stroke="blue" stroke-width="2" />
<path d="M1199,1702 L1477,4321" stroke="blue" stroke-width="2" />
<path d="M453,8826 L1284,2662" stroke="blue" stroke-width="2" />
<path d="M2319,5742 L2414,6351" stroke="blue" stroke-width="2" />
<path d="M423,1955 L1588,5895" stroke="blue" stroke-width="2" />
<path d="M2332,8530 L1791,6160" stroke="blue" stroke-width="2" />
<path d="M2108,7682 L1251,8650" stroke="blue" stroke-width="2" />
<path d="M430,6362 L848,7678" stroke="blue" stroke-width="2" />
<path d="M2110,4511 L896,818" stroke="blue" stroke-width="2" />
<path d="M1129,1368 L1763,1689" stroke="blue" stroke-width="2" />
<path d="M45,7771 L1135,5419" stroke="blue" stroke-width="2" />
<path d="M746,32 L949,6611" stroke="blue" stroke-width="2" />
<path d="M2012,4341 L1707,536" stroke="blue" stroke-width="2" />
<path d="M1509,3695 L711,5335" stroke="blue" stroke-width="2" />
<path d="M1574,4570 L1852,1293" stroke="blue" stroke-width="2" />
<path d="M1895,861 L1598,7895" stroke="blue" stroke-width="2" />
<path d="M1027,3352 L1508,5459" stroke="blue" stroke-width="2" />
<path d="M2067,6869 L2254,8414" stroke="blue" stroke-width="2" />
<path d="M1728,8284 L1974,3706" stroke="blue" stroke-width="2" />
<path d="M924,2602 L58,3585" stroke="blue" stroke-width="2" />
<path d="M1390,647 L265,3644" stroke="blue" stroke-width="2" />
<path d="M344,124 L746,4841" stroke="blue" stroke-width="2" />
<path d="M1824,690 L1773,5868" stroke="blue" stroke-width="2" />
<path d="M2202,1264 L2362,613" stroke="blue" stroke-width="2" />
<path d="M2371,6553 L2272,3643" stroke="blue" stroke-width="2" />
<path d="M1041,2300 L175,60" stroke="blue" stroke-width="2" />
<path d="M1011,6402 L2265,2738" stroke="blue" stroke-width="2" />
<path d="M545,4606 L189,2819" stroke="blue" stroke-width="2" />
<path d="M572,6844 L679,2477" stroke="blue" stroke-width="2" />
<path d="M391,7059 L1825,8560" stroke="blue" stroke-width="2" />
<path d="M481,4518 L519,166" stroke="blue" stroke-width="2" />
<path d="M1439,4944 L298,3285" stroke="blue" stroke-width="2" />
<path d="M954,6010 L1855,6200" stroke="blue" stroke-width="2" />
<path d="M1441,1988 L2015,8637" stroke="blue" stroke-width="2" />
<path d="M1056,5090 L549,8721" stroke="blue" stroke-width="2" />
<path d="M1247,3543 L985,3915" stroke="blue" stroke-width="2" />
<path d="M1059,6807 L670,8710" stroke="blue" stroke-width="2" />
<path d="M1590,8518 L377,3464" stroke="blue" stroke-width="2" />
<path d="M1532,8409 L1549,5684" stroke="blue" stroke-width="2" />
<path d="M2133,4287 L449,3277" stroke="blue" stroke-width="2" />
<path d="M1194,211 L1938,8778" stroke="blue" stroke-width="2" />
<path d="M1770,2977 L1361,3722" stroke="blue" stroke-width="2" />
<path d="M792,5328 L288,3475" stroke="blue" stroke-width="2" />
<path d="M675,7543 L2202,4127" stroke="blue" stroke-width="2" />
<path d="M343,7025 L542,7021" stroke="blue" stroke-width="2" />
<path d="M542,2909 L2160,3775" stroke="blue" stroke-width="2" />
<path d="M549,8771 L145,6151" stroke="blue" stroke-width="2" />
<path d="M1209,4488 L9,7706" stroke="blue" stroke-width="2" />
<path d="M1983,2545 L2089,628" stroke="blue" stroke-width="2" />
<path d="M203,953 L206,4711" stroke="blue" stroke-width="2" />
<path d="M1594,6535 L1754,4593" stroke="blue" stroke-width="2" />
<path d="M2275,65 L928,9037" stroke="blue" stroke-width="2" />
<path d="M30,4753 L47,3655" stroke="blue" stroke-width="2" />
<path d="M952,2614 L917,1470" stroke="blue" stroke-width="2" />
<path d="M1824,8706 L568,385" stroke="blue" stroke-width="2" />
<path d="M275,8921 L452,7676" stroke="blue" stroke-width="2" />
<path d="M227,7698 L2280,8372" stroke="blue" stroke-width="2" />
<path d="M2084,8071 L2111,3161" stroke="blue" stroke-width="2" />
<path d="M1542,791 L39,4002" stroke="blue" stroke-width="2" />
<path d="M932,7630 L616,269" stroke="blue" stroke-width="2" />
<path d="M2333,3800 L299,3357" stroke="blue" stroke-width="2" />
<path d="M2021,396 L2063,7974" stroke="blue" stroke-width="2" />
<path d="M1210,7051 L539,1271" stroke="blue" stroke-width="2" />
<path d="M74,6500 L605,7721" stroke="blue" stroke-width="2" />
<path d="M1557,3446 L2007,3546" stroke="blue" stroke-width="2" />
<path d="M2044,5128 L102,469" stroke="blue" stroke-width="2" />
<path d="M2324,8422 L2169,3139" stroke="blue" stroke-width="2" />
<path d="M2384,4945 L285,2247" stroke="blue" stroke-width="2" />
<path d="M888,3744 L225,6591" stroke="blue" stroke-width="2" />
<path d="M2398,292 L1000,4383" stroke="blue" stroke-width="2" />
<path d="M1904,6902 L1536,5700" stroke="blue" stroke-width="2" />
<path d="M2074,8056 L743,5343" stroke="blue" stroke-width="2" />
<path d="M1670,6727 L215,2026" stroke="blue" stroke-width="2" />
<path d="M941,8187 L1276,2530" stroke="blue" stroke-width="2" />
<path d="M725,1037 L310,5021" stroke="blue" stroke-width="2" />
<path d="M1625,5508 L40,7387" stroke="blue" stroke-width="2" />
<path d="M706,8696 L2021,4753" stroke="blue" stroke-width="2" />
<path d="M1948,1833 L1211,6439" stroke="blue" stroke-width="2" />
<path d="M1081,1525 L583,4106" stroke="blue" stroke-width="2" />
<path d="M2224,7467 L2326,6602" stroke="blue" stroke-width="2" />
<path d="M513,4817 L662,7837" stroke="blue" stroke-width="2" />
<path d="M1775,5722 L2299,7466" stroke="blue" stroke-width="2" />
<path d="M9,1629 L1341,3293" stroke="blue" stroke-width="2" />
<path d="M1584,3896 L389,5701" stroke="blue" stroke-width="2" />
<path d="M46,8567 L1728,1416" stroke="blue" stroke-width="2" />
<path d="M1895,1729 L487,712" stroke="blue" stroke-width="2" />
<path d="M2373,2980 L2177,7092" stroke="blue" stroke-width="2" />
<path d="M510,8850 L2304,6133" stroke="blue" stroke-width="2" />
<path d="M2421,4903 L2152,463" stroke="blue" stroke-width="2" />
<path d="M476,4007 L1091,3009" stroke="blue" stroke-width="2" />
<path d="M2426,8712 L1932,8839" stroke="blue" stroke-width="2" />
<path d="M2398,4556 L1592,5092" stroke="blue" stroke-width="2" />
<path d="M647,2494 L2221,4393" stroke="blue" stroke-width="2" />
<path d="M231,5150 L553,986" stroke="blue" stroke-width="2" />
<path d="M392,7298 L1877,3204" stroke="blue" stroke-width="2" />
<path d="M821,103 L863,1080" stroke="blue" stroke-width="2" />
<path d="M709,7851 L2366,1921" stroke="blue" stroke-width="2" />
<path d="M1853,5016 L917,789" stroke="blue" stroke-width="2" />
<path d="M1166,1061 L982,2543" stroke="blue" stroke-width="2" />
<path d="M423,406 L2069,2147" stroke="blue" stroke-width="2" />
<path d="M829,3810 L479,4326" stroke="blue" stroke-width="2" />
<path d="M2373,5546 L2343,7195" stroke="blue" stroke-width="2" />
<path d="M355,6957 L1164,3583" stroke="blue" stroke-width="2" />
<path d="M1717,8426 L1787,4018" stroke="blue" stroke-width="2" />
<path d="M569,416 L1275,4532" stroke="blue" stroke-width="2" />
<path d="M472,2184 L198,5196" stroke="blue" stroke-width="2" />
<path d="M1920,6997 L311,2209" stroke="blue" stroke-width="2" />
<path d="M542,3625 L1707,3607" stroke="blue" stroke-width="2" />
<path d="M2392,4138 L580,4352" stroke="blue" stroke-width="2" />
<path d="M500,403 L1066,83" stroke="blue" stroke-width="2" />
<path d="M1729,2852 L1989,6649" stroke="blue" stroke-width="2" />
<path d="M1225,4045 L1542,393" stroke="blue" stroke-width="2" />
<path d="M1814,331 L291,4141" stroke="blue" stroke-width="2" />
<path d="M1764,3732 L85,2373" stroke="blue" stroke-width="2" />
<path d="M1001,5913 L2109,3543" stroke="blue" stroke-width="2" />
<path d="M442,7399 L904,1196" stroke="blue" stroke-width="2" />
<path d="M2127,8279 L1940,1243" stroke="blue" stroke-width="2" />
<path d="M1871,604 L2435,1466" stroke="blue" stroke-width="2" />
<path d="M2178,2748 L843,4566" stroke="blue" stroke-width="2" />
<path d="M2076,3981 L1154,8428" stroke="blue" stroke-width="2" />
<path d="M1601,1716 L858,7445" stroke="blue" stroke-width="2" />
<path d="M1171,2047 L1287,6090" stroke="blue" stroke-width="2" />
<path d="M116,6061 L925,3302" stroke="blue" stroke-width="2" />
<path d="M1838,3997 L2113,6844" stroke="blue" stroke-width="2" />
<path d="M313,1398 L840,7526" stroke="blue" stroke-width="2" />
<path d="M570,8340 L581,1291" stroke="blue" stroke-width="2" />
<path d="M1651,4236 L883,5412" stroke="blue" stroke-width="2" />
<path d="M1388,2807 L1769,8072" stroke="blue" stroke-width="2" />
<path d="M1120,6426 L681,5946" stroke="blue" stroke-width="2" />
<path d="M638,7727 L483,4968" stroke="blue" stroke-width="2" />
<path d="M658,1134 L689,2572" stroke="blue" stroke-width="2" />
<path d="M1709,891 L1094,8587" stroke="blue" stroke-width="2" />
<path d="M1004,3195 L190,8206" stroke="blue" stroke-width="2" />
<path d="M709,725 L553,8305" stroke="blue" stroke-width="2" />
<path d="M1506,5085 L1797,6281" stroke="blue" stroke-width="2" />
<path d="M398,5631 L299,5648" stroke="blue" stroke-width="2" />
<path d="M313,3278 L2146,3926" stroke="blue" stroke-width="2" />
<path d="M41,5661 L35,3368" stroke="blue" stroke-width="2" />
<path d="M1525,8911 L258,4425" stroke="blue" stroke-width="2" />
<path d="M2140,3827 L1354,1141" stroke="blue" stroke-width="2" />
<path d="M1137,3407 L1514,8808" stroke="blue" stroke-width="2" />
<path d="M347,6776 L1954,252" stroke="blue" stroke-width="2" />
<path d="M1251,8001 L1652,8790" stroke="blue" stroke-width="2" />
<path d="M1673,68 L1769,6227" stroke="blue" stroke-width="2" />
<path d="M1365,3100 L1828,1931" stroke="blue" stroke-width="2" />
<path d="M1768,5435 L2132,3708" stroke="blue" stroke-width="2" />
<path d="M124,4577 L2342,3286" stroke="blue" stroke-width="2" />
<path d="M489,2638 L1807,2348" stroke="blue" stroke-width="2" />
<path d="M2140,8490 L1371,8692" stroke="blue" stroke-width="2" />
<path d="M2208,4973 L1840,2527" stroke="blue" stroke-width="2" />
<path d="M1192,3238 L947,2637" stroke="blue" stroke-width="2" />
<path d="M827,151 L616,325" stroke="blue" stroke-width="2" />
<path d="M0,0 L2436,0" stroke="red" stroke-width="10" />
<path d="M2436,0 L2436,9102" stroke="red" stroke-width="10" />
<path d="M0,9102 L2436,9102" stroke="red" stroke-width="10" />
<path d="M0,9102 L0,0" stroke="red" stroke-width="10" />
</svg>