<?xml version="1.0" encoding="UTF-8"?>
<svg xmlns="http://www.w3.org/2000/svg" xmlns:xlink="http://www.w3.org/1999/xlink"
     width="10000" height="10000" viewBox="0 0 10000 10000">
<defs>
</defs>
<path d="M2831,3863 L5438,8079" stroke="blue" stroke-width="2" />
<path d="M3886,7150 L2034,3180" stroke="blue" stroke-width="2" />
<path d="M1970,3906 L7094,891" stroke="blue" stroke-width="2" />
<path d="M2877,3261 L6057,5708" stroke="blue" stroke-width="2" />
<path d="M6374,122 L5385,6054" stroke="blue" stroke-width="2" />
<path d="M6489,1889 L2173,2775" stroke="blue" stroke-width="2" />
<path d="M707,3599 L6598,2190" stroke="blue" stroke-width="2" />
<path d="M1002,3331 L4656,4219" stroke="blue" stroke-width="2" />
<path d="M5413,3716 L3390,4468" stroke="blue" stroke-width="2" />
<path d="M3319,4435 L5501,6253" stroke="blue" stroke-width="2" />
<path d="M1957,605 L7284,3136" stroke="blue" stroke-width="2" />
<path d="M7089,3194 L351,1648" stroke="blue" stroke-width="2" />
<path d="M3995,1201 L5510,6590" stroke="blue" stroke-width="2" />
<path d="M6168,5917 L2781,888" stroke="blue" stroke-width="2" />
<path d="M2801,7042 L7255,1353" stroke="blue" stroke-width="2" />
<path d="M283,8035 L7781,4618" stroke="blue" stroke-width="2" />
<path d="M7903,8497 L6397,7719" stroke="blue" stroke-width="2" />
<path d="M3993,5354 L3571,5500" stroke="blue" stroke-width="2" />
<path d="M2268,5771 L3095,5613" stroke="blue" stroke-width="2" />
<path d="M3787,5882 L7180,1122" stroke="blue" stroke-width="2" />
<path d="M3652,427 L3894,5446" stroke="blue" stroke-width="2" />
<path d="M3717,1831 L5132,7752" stroke="blue" stroke-width="2" />
<path d="M2754,2155 L34,2872" stroke="blue" stroke-width="2" />
<path d="M6371,830 L913,6785" stroke="blue" stroke-width="2" />
<path d="M1053,6213 L6537,8321" stroke="blue" stroke-width="2" />
<path d="M7348,7902 L1033,7773" stroke="blue" stroke-width="2" />
<path d="M209,2992 L6540,1025" stroke="blue" stroke-width="2" />
<path d="M3817,5006 L5014,245" stroke="blue" stroke-width="2" />
<path d="M7171,1288 L672,4368" stroke="blue" stroke-width="2" />
<path d="M1603,3042 L7472,2756" stroke="blue" stroke-width="2" />
<path d="M4912,2904 L4835,6471" stroke="blue" stroke-width="2" />
<path d="M513,5846 L1186,4696" stroke="blue" stroke-width="2" />
<path d="M4302,4061 L1337,1493" stroke="blue" stroke-width="2" />
<path d="M7529,7800 L7495,7279" stroke="blue" stroke-width="2" />
<path d="M3450,4220 L2558,970" stroke="blue" stroke-width="2" />
<path d="M2217,7090 L6945,1040" stroke="blue" stroke-width="2" />
<path d="M2236,4793 L5128,2071" stroke="blue" stroke-width="2" />
<path d="M4998,7782 L6370,7822" stroke="blue" stroke-width="2" />
<path d="M4739,4865 L213,1882" stroke="blue" stroke-width="2" />
<path d="M2394,2756 L3480,1024" stroke="blue" stroke-width="2" />
<path d="M5241,6974 L753,6127" stroke="blue" stroke-width="2" />
<path d="M6011,6506 L5270,2930" stroke="blue" stroke-width="2" />
<path d="M5877,3134 L406,7075" stroke="blue" stroke-width="2" />
<path d="M1960,4917 L191,5950" stroke="blue" stroke-width="2" />
<path d="M586,3441 L2718,8232" stroke="blue" stroke-width="2" />
<path d="M2448,4355 L1382,8630" stroke="blue" stroke-width="2" />
<path d="M5371,335 L5669,3552" stroke="blue" stroke-width="2" />
<path d="M4199,1283 L2036,574" stroke="blue" stroke-width="2" />
<path d="M5914,1250 L2189,3237" stroke="blue" stroke-width="2" />
<path d="M3812,5688 L5824,1324" stroke="blue" stroke-width="2" />
<path d="M2832,3433 L2076,1546" stroke="blue" stroke-width="2" />
<path d="M1315,5080 L5766,5610" stroke="blue" stroke-width="2" />
<path d="M4026,564 L1323,7701" stroke="blue" stroke-width="2" />
<path d="M2868,1015 L5862,6631" stroke="blue" stroke-width="2" />
<path d="M12,1199 L3446,2452" stroke="blue" stroke-width="2" />
<path d="M2932,2320 L6097,4328" stroke="blue" stroke-width="2" />
<path d="M2892,3551 L6905,8284" stroke="blue" stroke-width="2" />
<path d="M2668,492 L510,8644" stroke="blue" stroke-width="2" />
<path d="M2093,459 L4957,5369" stroke="blue" stroke-width="2" />
<path d="M4865,1579 L3050,2164" stroke="blue" stroke-width="2" />
<path d="M3727,1438 L5280,2651" stroke="blue" stroke-width="2" />
<path d="M57,8691 L1432,4174" stroke="blue" stroke-width="2" />
<path d="M6359,4792 L5994,5773" stroke="blue" stroke-width="2" />
<path d="M5133,5185 L249,7481" stroke="blue" stroke-width="2" />
<path d="M2206,8617 L7310,6682" stroke="blue" stroke-width="2" />
<path d="M3006,2839 L4801,5325" stroke="blue" stroke-width="2" />
<path d="M56,2593 L7126,3663" stroke="blue" stroke-width="2" />
<path d="M5973,8602 L4396,5666" stroke="blue" stroke-width="2" />
<path d="M2273,2083 L3367,8343" stroke="blue" stroke-width="2" />
<path d="M6745,88 L3274,5860" stroke="blue" stroke-width="2" />
<path d="M5909,4132 L3226,4644" stroke="blue" stroke-width="2" />
<path d="M1796,8559 L4157,1844" stroke="blue" stroke-width="2" />
<path d="M2282,5227 L4365,833" stroke="blue" stroke-width="2" />
<path d="M1718,6284 L2906,6003" stroke="blue" stroke-width="2" />
<path d="M5618,1844 L1361,2626" stroke="blue" stroke-width="2" />
<path d="M1600,1854 L2087,3306" stroke="blue" stroke-width="2" />
<path d="M5837,1231 L3684,3899" stroke="blue" stroke-width="2" />
<path d="M2935,1167 L7716,6599" stroke="blue" stroke-width="2" />
<path d="M2021,2967 L5211,2447" stroke="blue" stroke-width="2" />
<path d="M6915,4531 L7199,2613" stroke="blue" stroke-width="2" />
<path d="M4477,1866 L4510,3265" stroke="blue" stroke-width="2" />
<path d="M4875,6954 L291,5981" stroke="blue" stroke-width="2" />
<path d="M3237,817 L7337,2351" stroke="blue" stroke-width="2" />
<path d="M548,1243 L5050,4836" stroke="blue" stroke-width="2" />
<path d="M1945,2754 L3298,5495" stroke="blue" stroke-width="2" />
<path d="M3871,3521 L5137,7789" stroke="blue" stroke-width="2" />
<path d="M4203,1265 L1980,5662" stroke="blue" stroke-width="2" />
<path d="M6297,6401 L2916,439" stroke="blue" stroke-width="2" />
<path d="M1871,1725 L7350,4305" stroke="blue" stroke-width="2" />
<path d="M7552,7035 L25,1550" stroke="blue" stroke-width="2" />
<path d="M7448,1119 L217,6340" stroke="blue" stroke-width="2" />
<path d="M7513,2365 L5520,5589" stroke="blue" stroke-width="2" />
<path d="M3618,7529 L745,3822" stroke="blue" stroke-width="2" />
<path d="M2915,2953 L1664,7813" stroke="blue" stroke-width="2" />
<path d="M7246,5534 L457,503" stroke="blue" stroke-width="2" />
<path d="M5821,5449 L7704,6088" stroke="blue" stroke-width="2" />
<path d="M234,8076 L6195,8465" stroke="blue" stroke-width="2" />
<path d="M5475,944 L1753,5924" stroke="blue" stroke-width="2" />
<path d="M29,475 L1419,1320" stroke="blue" stroke-width="2" />
<path d="M4537,562 L4015,4077" stroke="blue" stroke-width="2" />
<path d="M3136,8583 L1455,6261" stroke="blue" stroke-width="2" />
<path d="M537,786 L6766,2802" stroke="blue" stroke-width="2" />
<path d="M1063,4111 L1682,558" stroke="blue" stroke-width="2" />
<path d="M906,663 L4084,7516" stroke="blue" stroke-width="2" />
<path d="M6043,3926 L2562,1868" stroke="blue" stroke-width="2" />
<path d="M7599,6144 L6350,497" stroke="blue" stroke-width="2" />
<path d="M5854,1887 L7324,3449" stroke="blue" stroke-width="2" />
<path d="M320,6299 L278,5066" stroke="blue" stroke-width="2" />
<path d="M2313,3894 L1566,4155" stroke="blue" stroke-width="2" />
<path d="M3647,3978 L4002,977" stroke="blue" stroke-width="2" />
<path d="M6659,8477 L1980,2502" stroke="blue" stroke-width="2" />
<path d="M1171,2692 L7370,2299" stroke="blue" stroke-width="2" />
<path d="M7318,5767 L203,4835" stroke="blue" stroke-width="2" />
<path d="M698,2413 L2186,2448" stroke="blue" stroke-width="2" />
<path d="M7380,2034 L6413,2238" stroke="blue" stroke-width="2" />
<path d="M6408,7852 L1122,7858" stroke="blue" stroke-width="2" />
<path d="M2346,2781 L1680,3629" stroke="blue" stroke-width="2" />
<path d="M2466,1276 L6950,2417" stroke="blue" stroke-width="2" />
<path d="M2381,2036 L3570,6959" stroke="blue" stroke-width="2" />
<path d="M5342,8128 L4683,7162" stroke="blue" stroke-width="2" />
<path d="M7570,5062 L5666,6513" stroke="blue" stroke-width="2" />
<path d="M4327,2172 L7332,254" stroke="blue" stroke-width="2" />
<path d="M7228,8042 L4924,6694" stroke="blue" stroke-width="2" />
<path d="M822,5180 L2782,1741" stroke="blue" stroke-width="2" />
<path d="M5964,714 L3708,4836" stroke="blue" stroke-width="2" />
<path d="M2881,1836 L1177,4093" stroke="blue" stroke-width="2" />
<path d="M5127,5886 L4455,6937" stroke="blue" stroke-width="2" />
<path d="M1326,7075 L1861,3550" stroke="blue" stroke-width="2" />
<path d="M7123,380 L7578,7535" stroke="blue" stroke-width="2" />
<path d="M625,7255 L5101,5313" stroke="blue" stroke-width="2" />
<path d="M6722,7400 L4847,3835" stroke="blue" stroke-width="2" />
<path d="M3061,5269 L6573,4738" stroke="blue" stroke-width="2" />
<path d="M2988,121 L1278,2549" stroke="blue" stroke-width="2" />
<path d="M1021,1221 L6494,5830" stroke="blue" stroke-width="2" />
<path d="M3042,648 L2335,6025" stroke="blue" stroke-width="2" />
<path d="M908,1857 L5458,7444" stroke="blue" stroke-width="2" />
<path d="M3931,4571 L516,4888" stroke="blue" stroke-width="2" />
<path d="M6702,5524 L6772,210" stroke="blue" stroke-width="2" />
<path d="M2668,1769 L5400,954" stroke="blue" stroke-width="2" />
<path d="M1001,7248 L2073,1871" stroke="blue" stroke-width="2" />
<path d="M2557,3553 L2172,7210" stroke="blue" stroke-width="2" />
<path d="M7907,7811 L719,3924" stroke="blue" stroke-width="2" />
<path d="M3742,7802 L4268,5944" stroke="blue" stroke-width="2" />
<path d="M7403,2223 L869,5649" stroke="blue" stroke-width="2" />
<path d="M6955,8335 L4866,4549" stroke="blue" stroke-width="2" />
<path d="M7296,925 L6506,608" stroke="blue" stroke-width="2" />
<path d="M7743,2531 L5152,4478" stroke="blue" stroke-width="2" />
<path d="M3085,98 L3127,4003" stroke="blue" stroke-width="2" />
<path d="M3961,740 L1185,5595" stroke="blue" stroke-width="2" />
<path d="M6984,7879 L2121,1464" stroke="blue" stroke-width="2" />
<path d="M7852,8403 L1184,5018" stroke="blue" stroke-width="2" />
<path d="M6242,7734 L5036,5604" stroke="blue" stroke-width="2" />
<path d="M6473,3896 L677,2224" stroke="blue" stroke-width="2" />
<path d="M4392,5825 L438,4426" stroke="blue" stroke-width="2" />
<path d="M6540,1188 L4673,2078" stroke="blue" stroke-width="2" />
<path d="M1162,7906 L6791,944" stroke="blue" stroke-width="2" />
<path d="M6052,3429 L6915,6851" stroke="blue" stroke-width="2" />
<path d="M3936,6535 L1989,7434" stroke="blue" stroke-width="2" />
<path d="M226,5025 L4151,5139" stroke="blue" stroke-width="2" />
<path d="M2355,5388 L7828,8360" stroke="blue" stroke-width="2" />
<path d="M4939,2764 L3096,8294" stroke="blue" stroke-width="2" />
<path d="M4309,7597 L6193,4162" stroke="blue" stroke-width="2" />
<path d="M5041,2555 L5231,4658" stroke="blue" stroke-width="2" />
<path d="M7630,5664 L6490,1519" stroke="blue" stroke-width="2" />
<path d="M4828,4411 L2160,7013" stroke="blue" stroke-width="2" />
<path d="M4097,4731 L3983,6576" stroke="blue" stroke-width="2" />
<path d="M2681,1530 L844,967" stroke="blue" stroke-width="2" />
<path d="M6412,3375 L578,6349" stroke="blue" stroke-width="2" />
<path d="M902,7089 L7706,5193" stroke="blue" stroke-width="2" />
<path d="M1096,7015 L6561,7643" stroke="blue" stroke-width="2" />
<path d="M1444,7762 L6678,6253" stroke="blue" stroke-width="2" />
<path d="M5685,4720 L7830,5980" stroke="blue" stroke-width="2" />
<path d="M7055,7761 L5189,5332" stroke="blue" stroke-width="2" />
<path d="M4127,4425 L4058,4681" stroke="blue" stroke-width="2" />
<path d="M4258,4375 L608,974" stroke="blue" stroke-width="2" />
<path d="M4330,5199 L6757,6535" stroke="blue" stroke-width="2" />
<path d="M2740,7220 L6481,2037" stroke="blue" stroke-width="2" />
<path d="M7398,571 L5298,4669" stroke="blue" stroke-width="2" />
<path d="M2594,243 L5298,3331" stroke="blue" stroke-width="2" />
<path d="M3604,1874 L4143,4771" stroke="blue" stroke-width="2" />
<path d="M4338,7774 L2508,1286" stroke="blue" stroke-width="2" />
<path d="M1542,3272 L3312,5392" stroke="blue" stroke-width="2" />
<path d="M1663,2305 L519,8483" stroke="blue" stroke-width="2" />
<path d="M7553,5990 L7079,1137" stroke="blue" stroke-width="2" />
<path d="M605,4233 L1006,7372" stroke="blue" stroke-width="2" />
<path d="M6244,7705 L3344,4015" stroke="blue" stroke-width="2" />
<path d="M7461,2457 L255,7613" stroke="blue" stroke-width="2" />
<path d="M2839,7116 L106,534" stroke="blue" stroke-width="2" />
<path d="M7060,6252 L7347,8101" stroke="blue" stroke-width="2" />
<path d="M7179,7190 L110,1727" stroke="blue" stroke-width="2" />
<path d="M627,6923 L4172,601" stroke="blue" stroke-width="2" />
<path d="M2483,8182 L3011,3062" stroke="blue" stroke-width="2" />
<path d="M7491,711 L3722,4212" stroke="blue" stroke-width="2" />
<path d="M1572,8174 L4894,6471" stroke="blue" stroke-width="2" />
<path d="M3580,7482 L4636,121" stroke="blue" stroke-width="2" />
<path d="M5427,7542 L7704,8573" stroke="blue" stroke-width="2" />
<path d="M5355,7278 L6369,2150" stroke="blue" stroke-width="2" />
<path d="M5734,5233 L649,299" stroke="blue" stroke-width="2" />
<path d="M943,1661 L6766,898" stroke="blue" stroke-width="2" />
<path d="M582,4574 L2538,4810" stroke="blue" stroke-width="2" />
<path d="M4116,7243 L6602,2442" stroke="blue" stroke-width="2" />
<path d="M765,4511 L1889,3849" stroke="blue" stroke-width="2" />
<path d="M84,6366 L5415,5717" stroke="blue" stroke-width="2" />
<path d="M7510,1694 L1579,1009" stroke="blue" stroke-width="2" />
<path d="M2002,3898 L5064,8162" stroke="blue" stroke-width="2" />
<path d="M3039,3341 L6393,1726" stroke="blue" stroke-width="2" />
<path d="M7107,7402 L1189,7357" stroke="blue" stroke-width="2" />
<path d="M967,1387 L3320,2575" stroke="blue" stroke-width="2" />
<path d="M7380,1167 L1204,4202" stroke="blue" stroke-width="2" />
<path d="M1264,7811 L4063,3714" stroke="blue" stroke-width="2" />
<path d="M128,3941 L1908,5982" stroke="blue" stroke-width="2" />
<path d="M4187,581 L681,6706" stroke="blue" stroke-width="2" />
<path d="M291,4726 L2229,5845" stroke="blue" stroke-width="2" />
<path d="M6625,7646 L5819,6097" stroke="blue" stroke-width="2" />
<path d="M321,6082 L235,4141" stroke="blue" stroke-width="2" />
<path d="M6788,7267 L5890,579" stroke="blue" stroke-width="2" />
<path d="M705,3729 L56,2509" stroke="blue" stroke-width="2" />
<path d="M2006,5492 L2964,5762" stroke="blue" stroke-width="2" />
<path d="M7682,6829 L6384,5713" stroke="blue" stroke-width="2" />
<path d="M1942,8673 L2274,1968" stroke="blue" stroke-width="2" />
<path d="M7190,8523 L7063,4518" stroke="blue" stroke-width="2" />
<path d="M7479,6519 L3410,7517" stroke="blue" stroke-width="2" />
<path d="M5720,6270 L357,6072" stroke="blue" stroke-width="2" />
<path d="M1406,6870 L2997,3516" stroke="blue" stroke-width="2" />
<path d="M2537,6518 L2843,1125" stroke="blue" stroke-width="2" />
<path d="M2482,5939 L797,6661" stroke="blue" stroke-width="2" />
<path d="M5564,5681 L7588,5689" stroke="blue" stroke-width="2" />
<path d="M7787,254 L7688,8095" stroke="blue" stroke-width="2" />
<path d="M5663,198 L487,3390" stroke="blue" stroke-width="2" />
<path d="M2680,384 L763,6671" stroke="blue" stroke-width="2" />
<path d="M2220,3195 L3095,3011" stroke="blue" stroke-width="2" />
<path d="M1243,7691 L869,4784" stroke="blue" stroke-width="2" />
<path d="M7384,1628 L2362,3068" stroke="blue" stroke-width="2" />
<path d="M675,3657 L1724,6178" stroke="blue" stroke-width="2" />
<path d="M7125,4706 L6264,485" stroke="blue" stroke-width="2" />
<path d="M6672,2517 L5319,4124" stroke="blue" stroke-width="2" />
<path d="M6546,2975 L5713,4160" stroke="blue" stroke-width="2" />
<path d="M2878,8677 L5860,3296" stroke="blue" stroke-width="2" />
<path d="M7428,6800 L2003,4943" stroke="blue" stroke-width="2" />
<path d="M984,1117 L3591,7471" stroke="blue" stroke-width="2" />
<path d="M1484,6945 L1912,3526" stroke="blue" stroke-width="2" />
<path d="M2545,112 L2823,7157" stroke="blue" stroke-width="2" />
<path d="M6995,6526 L2325,4865" stroke="blue" stroke-width="2" />
<path d="M6572,3197 L2342,7660" stroke="blue" stroke-width="2" />
<path d="M5046,2296 L5106,7117" stroke="blue" stroke-width="2" />
<path d="M3159,192 L1425,6932" stroke="blue" stroke-width="2" />
<path d="M171,8286 L2908,243" stroke="blue" stroke-width="2" />
<path d="M3704,2767 L6935,5168" stroke="blue" stroke-width="2" />
<path d="M3075,7407 L4,987" stroke="blue" stroke-width="2" />
<path d="M2298,7995 L4623,751" stroke="blue" stroke-width="2" />
<path d="M2866,8045 L3985,7980" stroke="blue" stroke-width="2" />
<path d="M1594,3242 L7661,1106" stroke="blue" stroke-width="2" />
<path d="M7792,4842 L4826,7702" stroke="blue" stroke-width="2" />
<path d="M7452,330 L7194,2816" stroke="blue" stroke-width="2" />
<path d="M5568,6704 L2739,283" stroke="blue" stroke-width="2" />
<path d="M3272,6687 L449,8356" stroke="blue" stroke-width="2" />
<path d="M2113,3095 L2935,1777" stroke="blue" stroke-width="2" />
<path d="M4107,3133 L4844,7488" stroke="blue" stroke-width="2" />
<path d="M1916,6587 L4826,7028" stroke="blue" stroke-width="2" />
<path d="M4764,614 L4284,489" stroke="blue" stroke-width="2" />
<path d="M3982,5005 L7362,735" stroke="blue" stroke-width="2" />
<path d="M7179,8133 L5198,5837" stroke="blue" stroke-width="2" />
<path d="M2331,8653 L7832,5407" stroke="blue" stroke-width="2" />
<path d="M2892,6483 L7076,274" stroke="blue" stroke-width="2" />
<path d="M5042,1563 L1929,2032" stroke="blue" stroke-width="2" />
<path d="M4491,4529 L2211,6838" stroke="blue" stroke-width="2" />
<path d="M5458,4133 L4015,621" stroke="blue" stroke-width="2" />
<path d="M2939,2666 L7836,7470" stroke="blue" stroke-width="2" />
<path d="M4366,6948 L4740,4974" stroke="blue" stroke-width="2" />
<path d="M5116,227 L5294,3542" stroke="blue" stroke-width="2" />
<path d="M5062,8004 L3540,6034" stroke="blue" stroke-width="2" />
<path d="M1107,2535 L856,7846" stroke="blue" stroke-width="2" />
<path d="M3237,3133 L3548,7294" stroke="blue" stroke-width="2" />
<path d="M2851,2719 L6125,643" stroke="blue" stroke-width="2" />
<path d="M446,1096 L6030,3843" stroke="blue" stroke-width="2" />
<path d="M6406,1977 L1008,4084" stroke="blue" stroke-width="2" />
<path d="M5643,6700 L7088,2978" stroke="blue" stroke-width="2" />
<path d="M7092,1722 L939,8676" stroke="blue" stroke-width="2" />
<path d="M6852,1296 L6570,4850" stroke="blue" stroke-width="2" />
<path d="M5620,1119 L7138,3573" stroke="blue" stroke-width="2" />
<path d="M5347,2835 L4115,654" stroke="blue" stroke-width="2" />
<path d="M4631,2491 L3024,3285" stroke="blue" stroke-width="2" />
<path d="M7301,7208 L290,1322" stroke="blue" stroke-width="2" />
<path d="M2449,5415 L3715,4334" stroke="blue" stroke-width="2" />
<path d="M5057,8399 L4562,6185" stroke="blue" stroke-width="2" />
<path d="M758,663 L852,7113" stroke="blue" stroke-width="2" />
<path d="M220,756 L3954,3618" stroke="blue" stroke-width="2" />
<path d="M4985,721 L7061,6377" stroke="blue" stroke-width="2" />
<path d="M1167,8232 L2290,6076" stroke="blue" stroke-width="2" />
<path d="M1714,6944 L4867,6225" stroke="blue" stroke-width="2" />
<path d="M6382,2062 L1674,3081" stroke="blue" stroke-width="2" />
<path d="M4622,6968 L4759,7386" stroke="blue" stroke-width="2" />
<path d="M7144,4751 L2047,4229" stroke="blue" stroke-width="2" />
<path d="M2531,516 L450,5145" stroke="blue" stroke-width="2" />
<path d="M2686,5199 L41,2000" stroke="blue" stroke-width="2" />
<path d="M3162,3191 L2688,6303" stroke="blue" stroke-width="2" />
<path d="M4866,7941 L6408,6397" stroke="blue" stroke-width="2" />
<path d="M6224,5181 L3193,8446" stroke="blue" stroke-width="2" />
<path d="M6627,4917 L7820,3657" stroke="blue" stroke-width="2" />
<path d="M4513,8536 L4632,8157" stroke="blue" stroke-width="2" />
<path d="M1962,7947 L4132,6980" stroke="blue" stroke-width="2" />
<path d="M7031,1480 L6691,6306" stroke="blue" stroke-width="2" />
<path d="M664,1006 L1553,2337" stroke="blue" stroke-width="2" />
<path d="M1501,5596 L7318,3814" stroke="blue" stroke-width="2" />
<path d="M3723,1563 L3203,4161" stroke="blue" stroke-width="2" />
<path d="M5493,2782 L3338,3910" stroke="blue" stroke-width="2" />
<path d="M7087,6769 L7227,8266" stroke="blue" stroke-width="2" />
<path d="M1471,1956 L2796,5223" stroke="blue" stroke-width="2" />
<path d="M3056,5451 L5808,2022" stroke="blue" stroke-width="2" />
<path d="M7029,7101 L4680,596" stroke="blue" stroke-width="2" />
<path d="M3357,312 L5843,6525" stroke="blue" stroke-width="2" />
<path d="M5014,1910 L426,7155" stroke="blue" stroke-width="2" />
<path d="M5581,8372 L655,6897" stroke="blue" stroke-width="2" />
<path d="M2530,3954 L4062,4707" stroke="blue" stroke-width="2" />
<path d="M620,1280 L2203,3248" stroke="blue" stroke-width="2" />
<path d="M869,6034 L4111,6495" stroke="blue" stroke-width="2" />
<path d="M3302,4104 L3935,5899" stroke="blue" stroke-width="2" />
<path d="M5386,6384 L6642,7943" stroke="blue" stroke-width="2" />
<path d="M5368,1622 L4428,5446" stroke="blue" stroke-width="2" />
<path d="M6530,6706 L7590,336" stroke="blue" stroke-width="2" />
<path d="M918,4634 L3421,4595" stroke="blue" stroke-width="2" />
<path d="M6596,1338 L2245,8145" stroke="blue" stroke-width="2" />
<path d="M3189,5364 L6030,4194" stroke="blue" stroke-width="2" />
<path d="M3905,8352 L2466,896" stroke="blue" stroke-width="2" />
<path d="M1999,8006 L4987,4634" stroke="blue" stroke-width="2" />
<path d="M7375,8239 L3262,4636" stroke="blue" stroke-width="2" />
<path d="M3677,6387 L6152,102" stroke="blue" stroke-width="2" />
<path d="M3709,7221 L3892,1671" stroke="blue" stroke-width="2" />
<path d="M7091,3798 L215,5839" stroke="blue" stroke-width="2" />
<path d="M1700,3681 L1281,6376" stroke="blue" stroke-width="2" />
<path d="M3882,3522 L305,2349" stroke="blue" stroke-width="2" />
<path d="M2266,36 L3041,1308" stroke="blue" stroke-width="2" />
<path d="M3059,2350 L1947,5953" stroke="blue" stroke-width="2" />
<path d="M4579,7732 L2368,1593" stroke="blue" stroke-width="2" />
<path d="M7613,1144 L6116,3196" stroke="blue" stroke-width="2" />
<path d="M3363,6303 L943,4196" stroke="blue" stroke-width="2" />
<path d="M3835,1725 L4342,2679" stroke="blue" stroke-width="2" />
<path d="M6385,7973 L1597,7786" stroke="blue" stroke-width="2" />
<path d="M4868,3331 L2960,4190" stroke="blue" stroke-width="2" />
<path d="M4621,6010 L691,1343" stroke="blue" stroke-width="2" />
<path d="M1594,702 L7486,3763" stroke="blue" stroke-width="2" />
<path d="M6772,2855 L7222,3702" stroke="blue" stroke-width="2" />
<path d="M1340,7865 L7093,6888" stroke="blue" stroke-width="2" />
<path d="M5773,2947 L6614,6914" stroke="blue" stroke-width="2" />
<path d="M4460,3216 L509,2327" stroke="blue" stroke-width="2" />
<path d="M191,4246 L1532,3627" stroke="blue" stroke-width="2" />
<path d="M7036,6364 L1895,832" stroke="blue" stroke-width="2" />
<path d="M7230,5498 L1099,4584" stroke="blue" stroke-width="2" />
<path d="M6812,8453 L170,4286" stroke="blue" stroke-width="2" />
<path d="M2609,8432 L1769,2050" stroke="blue" stroke-width="2" />
<path d="M4941,1256 L1078,6355" stroke="blue" stroke-width="2" />
<path d="M404,370 L989,136" stroke="blue" stroke-width="2" />
<path d="M7203,3228 L7398,8562" stroke="blue" stroke-width="2" />
<path d="M2758,3417 L3358,7277" stroke="blue" stroke-width="2" />
<path d="M1485,4339 L2707,1087" stroke="blue" stroke-width="2" />
<path d="M7660,3111 L2361,2588" stroke="blue" stroke-width="2" />
<path d="M698,7442 L7892,4224" stroke="blue" stroke-width="2" />
<path d="M5223,3876 L3244,3660" stroke="blue" stroke-width="2" />
<path d="M3003,3392 L518,1344" stroke="blue" stroke-width="2" />
<path d="M4475,847 L3895,2230" stroke="blue" stroke-width="2" />
<path d="M922,7008 L7764,248" stroke="blue" stroke-width="2" />
<path d="M5960,4852 L2635,1745" stroke="blue" stroke-width="2" />
<path d="M4331,2291 L3082,4883" stroke="blue" stroke-width="2" />
<path d="M1043,4415 L484,8310" stroke="blue" stroke-width="2" />
<path d="M3912,1614 L3796,5327" stroke="blue" stroke-width="2" />
<path d="M5593,3617 L5483,4982" stroke="blue" stroke-width="2" />
<path d="M1172,3496 L1511,8152" stroke="blue" stroke-width="2" />
<path d="M1858,824 L5987,1706" stroke="blue" stroke-width="2" />
<path d="M287,2683 L1128,4915" stroke="blue" stroke-width="2" />
<path d="M2483,6900 L1031,2576" stroke="blue" stroke-width="2" />
<path d="M6982,6032 L543,3161" stroke="blue" stroke-width="2" />
<path d="M5043,41 L7471,4117" stroke="blue" stroke-width="2" />
<path d="M2433,3641 L4049,2014" stroke="blue" stroke-width="2" />
<path d="M2985,241 L1967,3324" stroke="blue" stroke-width="2" />
<path d="M6179,6063 L3947,7464" stroke="blue" stroke-width="2" />
<path d="M5490,1103 L6110,2488" stroke="blue" stroke-width="2" />
<path d="M1409,5543 L4375,2474" stroke="blue" stroke-width="2" />
<path d="M2809,3992 L7097,7068" stroke="blue" stroke-width="2" />
<path d="M5149,6997 L1128,3134" stroke="blue" stroke-width="2" />
<path d="M2445,706 L3282,933" stroke="blue" stroke-width="2" />
<path d="M1350,7345 L5016,6183" stroke="blue" stroke-width="2" />
<path d="M1195,6498 L3950,7687" stroke="blue" stroke-width="2" />
<path d="M2075,5731 L1101,8316" stroke="blue" stroke-width="2" />
<path d="M62,8567 L4155,2804" stroke="blue" stroke-width="2" />
<path d="M2628,275 L5166,5281" stroke="blue" stroke-width="2" />
<path d="M2518,2128 L5506,7589" stroke="blue" stroke-width="2" />
<path d="M4889,5990 L1916,5915" stroke="blue" stroke-width="2" />
<path d="M5122,494 L1803,584" stroke="blue" stroke-width="2" />
<path d="M6753,5024 L7233,2751" stroke="blue" stroke-width="2" />
<path d="M5126,7702 L3756,754" stroke="blue" stroke-width="2" />
<path d="M7279,983 L3003,6669" stroke="blue" stroke-width="2" />
<path d="M2578,2446 L7423,6655" stroke="blue" stroke-width="2" />
<path d="M4587,5216 L756,8528" stroke="blue" stroke-width="2" />
<path d="M2674,4766 L5828,1203" stroke="blue" stroke-width="2" />
<path d="M4038,7359 L371,2839" stroke="blue" stroke-width="2" />
<path d="M183,1688 L3898,6370" stroke="blue" stroke-width="2" />
<path d="M3631,901 L6445,91" stroke="blue" stroke-width="2" />
<path d="M6903,2609 L5313,7255" stroke="blue" stroke-width="2" />
<path d="M6704,3644 L7836,2139" stroke="blue" stroke-width="2" />
<path d="M2637,581 L4862,6224" stroke="blue" stroke-width="2" />
<path d="M5178,6893 L445,6596" stroke="blue" stroke-width="2" />
<path d="M2813,2267 L5353,438" stroke="blue" stroke-width="2" />
<path d="M6232,1590 L5015,4393" stroke="blue" stroke-width="2" />
<path d="M1404,254 L4879,394" stroke="blue" stroke-width="2" />
<path d="M6536,5078 L6030,7271" stroke="blue" stroke-width="2" />
<path d="M1640,2552 L416,2768" stroke="blue" stroke-width="2" />
<path d="M5298,4173 L21,5543" stroke="blue" stroke-width="2" />
<path d="M662,4860 L7195,1616" stroke="blue" stroke-width="2" />
<path d="M5681,3922 L2640,3304" stroke="blue" stroke-width="2" />
<path d="M4716,5004 L3410,342" stroke="blue" stroke-width="2" />
<path d="M6540,5960 L6149,6430" stroke="blue" stroke-width="2" />
<path d="M3436,3954 L2501,5598" stroke="blue" stroke-width="2" />
<path d="M6406,1813 L6992,5585" stroke="blue" stroke-width="2" />
<path d="M5481,2763 L625,7795" stroke="blue" stroke-width="2" />
<path d="M1335,396 L849,1133" stroke="blue" stroke-width="2" />
<path d="M1195,7263 L890,786" stroke="blue" stroke-width="2" />
<path d="M695,2960 L3676,4591" stroke="blue" stroke-width="2" />
<path d="M6019,3872 L1143,5195" stroke="blue" stroke-width="2" />
<path d="M6986,8645 L1068,6296" stroke="blue" stroke-width="2" />
<path d="M3542,7176 L2404,2608" stroke="blue" stroke-width="2" />
<path d="M139,6706 L2205,7001" stroke="blue" stroke-width="2" />
<path d="M4398,2330 L5128,7561" stroke="blue" stroke-width="2" />
<path d="M1400,7130 L1090,393" stroke="blue" stroke-width="2" />
<path d="M6309,3973 L5688,8123" stroke="blue" stroke-width="2" />
<path d="M3416,4367 L4774,2335" stroke="blue" stroke-width="2" />
<path d="M4653,3844 L6985,6580" stroke="blue" stroke-width="2" />
<path d="M410,4828 L62,2478" stroke="blue" stroke-width="2" />
<path d="M5443,4425 L703,2162" stroke="blue" stroke-width="2" />
<path d="M6765,3818 L6559,2400" stroke="blue" stroke-width="2" />
<path d="M511,8568 L5704,180" stroke="blue" stroke-width="2" />
<path d="M3544,1032 L7344,4200" stroke="blue" stroke-width="2" />
<path d="M7306,7929 L3087,3863" stroke="blue" stroke-width="2" />
<path d="M4180,569 L5239,3697" stroke="blue" stroke-width="2" />
<path d="M437,6594 L4253,3060" stroke="blue" stroke-width="2" />
<path d="M3374,4522 L3144,3439" stroke="blue" stroke-width="2" />
<path d="M2628,3432 L6293,2790" stroke="blue" stroke-width="2" />
<path d="M7683,8546 L2597,4643" stroke="blue" stroke-width="2" />
<path d="M338,4121 L5345,6568" stroke="blue" stroke-width="2" />
<path d="M7858,1175 L2655,3447" stroke="blue" stroke-width="2" />
<path d="M293,7220 L4375,274" stroke="blue" stroke-width="2" />
<path d="M1975,4178 L1724,5172" stroke="blue" stroke-width="2" />
<path d="M970,8271 L3615,3289" stroke="blue" stroke-width="2" />
<path d="M1733,4362 L5993,1651" stroke="blue" stroke-width="2" />
<path d="M4700,5081 L1721,4890" stroke="blue" stroke-width="2" />
<path d="M5540,3188 L5183,5227" stroke="blue" stroke-width="2" />
<path d="M6640,2437 L6617,7212" stroke="blue" stroke-width="2" />
<path d="M4026,5609 L4494,8381" stroke="blue" stroke-width="2" />
<path d="M5870,1127 L3040,650" stroke="blue" stroke-width="2" />
<path d="M2272,2250 L6508,8598" stroke="blue" stroke-width="2" />
<path d="M5456,2453 L6901,5368" stroke="blue" stroke-width="2" />
<path d="M30,7704 L4566,4814" stroke="blue" stroke-width="2" />
<path d="M3911,3995 L7305,4444" stroke="blue" stroke-width="2" />
<path d="M3002,2291 L105,721" stroke="blue" stroke-width="2" />
<path d="M841,5306 L6818,7224" stroke="blue" stroke-width="2" />
<path d="M1554,1738 L565,5139" stroke="blue" stroke-width="2" />
<path d="M5209,1110 L5372,4524" stroke="blue" stroke-width="2" />
<path d="M7118,5731 L665,581" stroke="blue" stroke-width="2" />
<path d="M1514,5895 L6596,2743" stroke="blue" stroke-width="2" />
<path d="M6476,6996 L2130,3041" stroke="blue" stroke-width="2" />
<path d="M2709,2873 L7278,1276" stroke="blue" stroke-width="2" />
<path d="M6695,817 L4043,6631" stroke="blue" stroke-width="2" />
<path d="M6636,4392 L4901,2215" stroke="blue" stroke-width="2" />
<path d="M6347,8069 L3118,3690" stroke="blue" stroke-width="2" />
<path d="M7008,6303 L5810,8331" stroke="blue" stroke-width="2" />
<path d="M467,7781 L2001,3948" stroke="blue" stroke-width="2" />
<path d="M7443,2144 L4111,5701" stroke="blue" stroke-width="2" />
<path d="M5117,1084 L965,5817" stroke="blue" stroke-width="2" />
<path d="M3556,4388 L5693,4559" stroke="blue" stroke-width="2" />
<path d="M1155,6482 L5618,2522" stroke="blue" stroke-width="2" />
<path d="M5247,5381 L1515,7723" stroke="blue" stroke-width="2" />
<path d="M1248,2892 L1656,757" stroke="blue" stroke-width="2" />
<path d="M4565,5952 L7754,1457" stroke="blue" stroke-width="2" />
<path d="M6520,5512 L890,8301" stroke="blue" stroke-width="2" />
<path d="M4805,4463 L2106,4808" stroke="blue" stroke-width="2" />
<path d="M2251,5549 L5719,1688" stroke="blue" stroke-width="2" />
<path d="M2803,3824 L4211,279" stroke="blue" stroke-width="2" />
<path d="M4283,7999 L7128,2478" stroke="blue" stroke-width="2" />
<path d="M4859,447 L4564,3864" stroke="blue" stroke-width="2" />
<path d="M5584,5197 L4274,5802" stroke="blue" stroke-width="2" />
<path d="M357,2381 L4967,8686" stroke="blue" stroke-width="2" />
<path d="M5887,2152 L7207,4426" stroke="blue" stroke-width="2" />
<path d="M6386,6356 L7054,2458" stroke="blue" stroke-width="2" />
<path d="M7762,815 L7285,5769" stroke="blue" stroke-width="2" />
<path d="M936,271 L6001,3790" stroke="blue" stroke-width="2" />
<path d="M4862,4589 L2278,1701" stroke="blue" stroke-width="2" />
<path d="M326,2477 L3878,2750" stroke="blue" stroke-width="2" />
<path d="M4433,8258 L478,1679" stroke="blue" stroke-width="2" />
<path d="M6309,1348 L1610,365" stroke="blue" stroke-width="2" />
<path d="M1787,5440 L953,8045" stroke="blue" stroke-width="2" />
<path d="M4683,3841 L933,7136" stroke="blue" stroke-width="2" />
<path d="M5995,2021 L1426,2545" stroke="blue" stroke-width="2" />
<path d="M6991,7202 L2900,3194" stroke="blue" stroke-width="2" />
<path d="M1924,3213 L4050,7921" stroke="blue" stroke-width="2" />
<path d="M5373,3384 L6565,3409" stroke="blue" stroke-width="2" />
<path d="M6461,2123 L1985,8193" stroke="blue" stroke-width="2" />
<path d="M7643,695 L2892,5454" stroke="blue" stroke-width="2" />
<path d="M2647,3791 L6935,2715" stroke="blue" stroke-width="2" />
<path d="M4151,7532 L2913,8060" stroke="blue" stroke-width="2" />
<path d="M475,2247 L1089,5561" stroke="blue" stroke-width="2" />
<path d="M4855,2823 L1713,6471" stroke="blue" stroke-width="2" />
<path d="M4610,2815 L422,5094" stroke="blue" stroke-width="2" />
<path d="M483,4499 L7315,4925" stroke="blue" stroke-width="2" />
<path d="M6617,1532 L6644,2338" stroke="blue" stroke-width="2" />
<path d="M3326,3283 L4876,5696" stroke="blue" stroke-width="2" />
<path d="M5062,4703 L4173,6720" stroke="blue" stroke-width="2" />
<path d="M6903,5871 L7599,6814" stroke="blue" stroke-width="2" />
<path d="M2777,5 L3820,3116" stroke="blue" stroke-width="2" />
<path d="M3502,8671 L805,7673" stroke="blue" stroke-width="2" />
<path d="M5972,2116 L4215,2772" stroke="blue" stroke-width="2" />
<path d="M6792,1992 L4744,864" stroke="blue" stroke-width="2" />
<path d="M3404,7101 L311,4408" stroke="blue" stroke-width="2" />
<path d="M4667,946 L7195,8516" stroke="blue" stroke-width="2" />
<path d="M7286,8040 L4851,6974" stroke="blue" stroke-width="2" />
<path d="M4775,3687 L2018,1695" stroke="blue" stroke-width="2" />
<path d="M7748,1630 L3920,3743" stroke="blue" stroke-width="2" />
<path d="M5657,7245 L7291,1935" stroke="blue" stroke-width="2" />
<path d="M2151,3509 L2404,8087" stroke="blue" stroke-width="2" />
<path d="M181,198 L6115,8214" stroke="blue" stroke-width="2" />
<path d="M2440,3545 L298,1424" stroke="blue" stroke-width="2" />
<path d="M5069,826 L3978,6196" stroke="blue" stroke-width="2" />
<path d="M3883,4145 L7465,7473" stroke="blue" stroke-width="2" />
<path d="M3250,4903 L881,928" stroke="blue" stroke-width="2" />
<path d="M4492,5326 L861,5949" stroke="blue" stroke-width="2" />
<path d="M7258,3444 L239,5368" stroke="blue" stroke-width="2" />
<path d="M1081,4849 L660,2001" stroke="blue" stroke-width="2" />
<path d="M2468,5283 L4037,1719" stroke="blue" stroke-width="2" />
<path d="M3990,7949 L1449,1707" stroke="blue" stroke-width="2" />
<path d="M1827,7911 L6477,3444" stroke="blue" stroke-width="2" />
<path d="M2390,3011 L5228,5248" stroke="blue" stroke-width="2" />
<path d="M4147,6666 L4894,5062" stroke="blue" stroke-width="2" />
<path d="M3657,2046 L4314,3575" stroke="blue" stroke-width="2" />
<path d="M4747,2883 L7513,1076" stroke="blue" stroke-width="2" />
<path d="M6840,1548 L5060,2288" stroke="blue" stroke-width="2" />
<path d="M344,2995 L6397,5211" stroke="blue" stroke-width="2" />
<path d="M1017,2877 L4274,3871" stroke="blue" stroke-width="2" />
<path d="M6926,3229 L1389,5583" stroke="blue" stroke-width="2" />
<path d="M2128,3550 L824,4129" stroke="blue" stroke-width="2" />
<path d="M4298,7752 L6126,3706" stroke="blue" stroke-width="2" />
<path d="M2258,8320 L5068,722" stroke="blue" stroke-width="2" />
<path d="M7484,264 L910,5966" stroke="blue" stroke-width="2" />
<path d="M2137,1285 L4040,7909" stroke="blue" stroke-width="2" />
<path d="M841,2687 L3709,7709" stroke="blue" stroke-width="2" />
<path d="M4557,1024 L1445,697" stroke="blue" stroke-width="2" />
<path d="M595,7311 L747,7833" stroke="blue" stroke-width="2" />
<path d="M2077,4426 L154,6806" stroke="blue" stroke-width="2" />
<path d="M2980,2671 L7123,5588" stroke="blue" stroke-width="2" />
<path d="M1161,5418 L4717,4675" stroke="blue" stroke-width="2" />
<path d="M6694,2523 L6539,3087" stroke="blue" stroke-width="2" />
<path d="M4678,3872 L3348,7611" stroke="blue" stroke-width="2" />
<path d="M1266,6218 L2417,8230" stroke="blue" stroke-width="2" />
<path d="M4103,1788 L7518,692" stroke="blue" stroke-width="2" />
<path d="M3931,8536 L4091,8255" stroke="blue" stroke-width="2" />
<path d="M3765,4021 L74,7946" stroke="blue" stroke-width="2" />
<path d="M4288,5880 L7250,5432" stroke="blue" stroke-width="2" />
<path d="M3562,3540 L789,5820" stroke="blue" stroke-width="2" />
<path d="M7743,8312 L4849,6747" stroke="blue" stroke-width="2" />
<path d="M2905,4734 L5138,3886" stroke="blue" stroke-width="2" />
<path d="M3842,2725 L7296,3032" stroke="blue" stroke-width="2" />
<path d="M5850,5267 L2085,2684" stroke="blue" stroke-width="2" />
<path d="M1031,3748 L6753,7784" stroke="blue" stroke-width="2" />
<path d="M4544,760 L7227,3469" stroke="blue" stroke-width="2" />
<path d="M7172,7860 L7267,6336" stroke="blue" stroke-width="2" />
<path d="M5374,7967 L1151,2489" stroke="blue" stroke-width="2" />
<path d="M5082,4537 L2507,4437" stroke="blue" stroke-width="2" />
<path d="M6763,7705 L6166,3810" stroke="blue" stroke-width="2" />
<path d="M7431,3293 L6203,4592" stroke="blue" stroke-width="2" />
<path d="M489,2401 L7484,6141" stroke="blue" stroke-width="2" />
<path d="M2477,4106 L5989,2100" stroke="blue" stroke-width="2" />
<path d="M7828,2766 L7404,6105" stroke="blue" stroke-width="2" />
<path d="M684,8173 L3978,2256" stroke="blue" stroke-width="2" />
<path d="M6779,5482 L1566,1956" stroke="blue" stroke-width="2" />
<path d="M7232,931 L4835,7216" stroke="blue" stroke-width="2" />
<path d="M154,869 L2259,1541" stroke="blue" stroke-width="2" />
<path d="M6403,6401 L4464,5668" stroke="blue" stroke-width="2" />
<path d="M4242,1952 L3253,7208" stroke="blue" stroke-width="2" />
<path d="M1277,7947 L2928,3955" stroke="blue" stroke-width="2" />
<path d="M627,8294 L4999,5311" stroke="blue" stroke-width="2" />
<path d="M4123,5994 L4410,7841" stroke="blue" stroke-width="2" />
<path d="M5089,4090 L1326,4627" stroke="blue" stroke-width="2" />
<path d="M5032,3432 L5451,8364" stroke="blue" stroke-width="2" />
<path d="M5929,4103 L2312,7048" stroke="blue" stroke-width="2" />
<path d="M5675,7256 L2696,4455" stroke="blue" stroke-width="2" />
<path d="M2704,1610 L4119,3038" stroke="blue" stroke-width="2" />
<path d="M3743,3140 L6887,8263" stroke="blue" stroke-width="2" />
<path d="M2505,5801 L4900,2751" stroke="blue" stroke-width="2" />
<path d="M4296,5539 L7014,432" stroke="blue" stroke-width="2" />
<path d="M1600,5816 L2272,2545" stroke="blue" stroke-width="2" />
<path d="M126,5220 L395,4900" stroke="blue" stroke-width="2" />
<path d="M2294,2323 L838,5553" stroke="blue" stroke-width="2" />
<path d="M6294,4071 L7613,148" stroke="blue" stroke-width="2" />
<path d="M6842,6013 L3564,4488" stroke="blue" stroke-width="2" />
<path d="M1705,6921 L4881,3749" stroke="blue" stroke-width="2" />
<path d="M6393,5895 L4837,841" stroke="blue" stroke-width="2" />
<path d="M1256,3469 L3389,7733" stroke="blue" stroke-width="2" />
<path d="M5282,4185 L2509,1136" stroke="blue" stroke-width="2" />
<path d="M4033,3255 L5863,7236" stroke="blue" stroke-width="2" />
<path d="M6541,3700 L6029,873" stroke="blue" stroke-width="2" />
<path d="M3898,3872 L4249,1988" stroke="blue" stroke-width="2" />
<path d="M3885,7776 L3739,516" stroke="blue" stroke-width="2" />
<path d="M6760,7967 L3343,7710" stroke="blue" stroke-width="2" />
<path d="M4620,8401 L1712,3725" stroke="blue" stroke-width="2" />
<path d="M953,840 L3772,4188" stroke="blue" stroke-width="2" />
<path d="M1812,3280 L1534,2893" stroke="blue" stroke-width="2" />
<path d="M3421,152 L5143,1256" stroke="blue" stroke-width="2" />
<path d="M5180,357 L2119,4438" stroke="blue" stroke-width="2" />
<path d="M953,2341 L87,1773" stroke="blue" stroke-width="2" />
<path d="M7286,3174 L2046,52" stroke="blue" stroke-width="2" />
<path d="M900,4033 L7124,3837" stroke="blue" stroke-width="2" />
<path d="M4428,3025 L6701,6368" stroke="blue" stroke-width="2" />
<path d="M545,7102 L263,6052" stroke="blue" stroke-width="2" />
<path d="M4228,4470 L1299,58" stroke="blue" stroke-width="2" />
<path d="M4568,3668 L4453,3971" stroke="blue" stroke-width="2" />
<path d="M1623,5195 L4829,3159" stroke="blue" stroke-width="2" />
<path d="M7742,2389 L4769,5145" stroke="blue" stroke-width="2" />
<path d="M6852,3498 L4075,5926" stroke="blue" stroke-width="2" />
<path d="M973,1491 L7013,1891" stroke="blue" stroke-width="2" />
<path d="M2934,6658 L2535,2968" stroke="blue" stroke-width="2" />
<path d="M1227,7720 L7653,2295" stroke="blue" stroke-width="2" />
<path d="M58,6956 L7632,8123" stroke="blue" stroke-width="2" />
<path d="M2481,1200 L1534,3269" stroke="blue" stroke-width="2" />
<path d="M1871,3324 L1919,6630" stroke="blue" stroke-width="2" />
<path d="M3360,4828 L4549,3597" stroke="blue" stroke-width="2" />
<path d="M4744,5386 L3245,960" stroke="blue" stroke-width="2" />
<path d="M6175,7675 L5191,1255" stroke="blue" stroke-width="2" />
<path d="M1868,3360 L1253,1863" stroke="blue" stroke-width="2" />
<path d="M5696,1517 L2586,3143" stroke="blue" stroke-width="2" />
<path d="M373,3420 L413,7765" stroke="blue" stroke-width="2" />
<path d="M1814,4413 L6889,4843" stroke="blue" stroke-width="2" />
<path d="M7331,1723 L3135,1755" stroke="blue" stroke-width="2" />
<path d="M3752,5321 L7666,1358" stroke="blue" stroke-width="2" />
<path d="M5003,4022 L6711,336" stroke="blue" stroke-width="2" />
<path d="M736,7385 L5586,2370" stroke="blue" stroke-width="2" />
<path d="M2424,4774 L6518,2424" stroke="blue" stroke-width="2" />
<path d="M2047,8163 L3759,7295" stroke="blue" stroke-width="2" />
<path d="M4248,3439 L7602,2865" stroke="blue" stroke-width="2" />
<path d="M3514,489 L3181,1537" stroke="blue" stroke-width="2" />
<path d="M2000,722 L5244,3641" stroke="blue" stroke-width="2" />
<path d="M2156,3555 L19,6561" stroke="blue" stroke-width="2" />
<path d="M3676,5867 L5043,4134" stroke="blue" stroke-width="2" />
<path d="M456,7307 L6045,5695" stroke="blue" stroke-width="2" />
<path d="M1329,5159 L7504,5869" stroke="blue" stroke-width="2" />
<path d="M6644,4306 L7723,4048" stroke="blue" stroke-width="2" />
<path d="M4421,7719 L5913,556" stroke="blue" stroke-width="2" />
<path d="M1911,1792 L5285,1774" stroke="blue" stroke-width="2" />
<path d="M5253,8355 L1856,3199" stroke="blue" stroke-width="2" />
<path d="M204,6181 L4460,3771" stroke="blue" stroke-width="2" />
<path d="M5639,5104 L4265,1482" stroke="blue" stroke-width="2" />
<path d="M3316,1047 L3983,7145" stroke="blue" stroke-width="2" />
<path d="M1376,4990 L2516,2683" stroke="blue" stroke-width="2" />
<path d="M3314,6970 L3718,8093" stroke="blue" stroke-width="2" />
<path d="M3410,8225 L3733,2153" stroke="blue" stroke-width="2" />
<path d="M6040,3892 L1118,3486" stroke="blue" stroke-width="2" />
<path d="M3721,5996 L335,4722" stroke="blue" stroke-width="2" />
<path d="M817,4185 L1834,1556" stroke="blue" stroke-width="2" />
<path d="M2025,3979 L212,4627" stroke="blue" stroke-width="2" />
<path d="M5307,1338 L2545,6101" stroke="blue" stroke-width="2" />
<path d="M1286,971 L7163,7398" stroke="blue" stroke-width="2" />
<path d="M0,0 L7912,0" stroke="red" stroke-width="10" />
<path d="M7912,0 L7912,8704" stroke="red" stroke-width="10" />
<path d="M0,8704 L7912,8704" stroke="red" stroke-width="10" />
<path d="M0,8704 L0,0" stroke="red" stroke-width="10" />
</svg>