<?xml version="1.0" encoding="UTF-8"?>
<svg xmlns="http://www.w3.org/2000/svg" xmlns:xlink="http://www.w3.org/1999/xlink"
     width="10000" height="10000" viewBox="0 0 10000 10000">
<defs>
</defs>
<path d="M106,3984 L200,451" stroke="blue" stroke-width="2" />
<path d="M849,7028 L821,2818" stroke="blue" stroke-width="2" />
<path d="M1716,1357 L55,5498" stroke="blue" stroke-width="2" />
<path d="M1794,2600 L1147,550" stroke="blue" stroke-width="2" />
<path d="M178,3892 L1292,4580" stroke="blue" stroke-width="2" />
<path d="M73,1825 L444,2112" stroke="blue" stroke-width="2" />
<path d="M2032,5318 L1810,6457" stroke="blue" stroke-width="2" />
<path d="M2025,1342 L1541,6407" stroke="blue" stroke-width="2" />
<path d="M199,6429 L1979,1278" stroke="blue" stroke-width="2" />
<path d="M345,1873 L1242,1664" stroke="blue" stroke-width="2" />
<path d="M1962,7031 L2324,5743" stroke="blue" stroke-width="2" />
<path d="M1183,7337 L2336,8777" stroke="blue" stroke-width="2" />
<path d="M289,52 L1131,2550" stroke="blue" stroke-width="2" />
<path d="M2005,7953 L1968,7234" stroke="blue" stroke-width="2" />
<path d="M1701,236 L681,1581" stroke="blue" stroke-width="2" />
<path d="M1847,4591 L2265,1245" stroke="blue" stroke-width="2" />
<path d="M2043,6946 L886,7294" stroke="blue" stroke-width="2" />
<path d="M2148,3349 L788,2209" stroke="blue" stroke-width="2" />
<path d="M718,8143 L1258,8614" stroke="blue" stroke-width="2" />
<path d="M1952,8181 L1611,5672" stroke="blue" stroke-width="2" />
<path d="M313,4207 L1681,2555" stroke="blue" stroke-width="2" />
<path d="M116,62 L607,2361" stroke="blue" stroke-width="2" />
<path d="M1283,3144 L1619,8354" stroke="blue" stroke-width="2" />
<path d="M690,334 L1711,2447" stroke="blue" stroke-width="2" />
<path d="M2100,608 L217,5892" stroke="blue" stroke-width="2" />
<path d="M1165,185 L1790,170" stroke="blue" stroke-width="2" />
<path d="M926,3763 L110,66" stroke="blue" stroke-width="2" />
<path d="M1766,6539 L1535,1170" stroke="blue" stroke-width="2" />
<path d="M1639,2317 L2172,6349" stroke="blue" stroke-width="2" />
<path d="M517,6965 L79,7867" stroke="blue" stroke-width="2" />
<path d="M989,6175 L1603,4564" stroke="blue" stroke-width="2" />
<path d="M428,7141 L1790,6283" stroke="blue" stroke-width="2" />
<path d="M1477,5654 L432,1570" stroke="blue" stroke-width="2" />
<path d="M732,5062 L869,7379" stroke="blue" stroke-width="2" />
<path d="M1766,3162 L2164,7207" stroke="blue" stroke-width="2" />
<path d="M122,4559 L1582,8356" stroke="blue" stroke-width="2" />
<path d="M1054,7978 L2079,1752" stroke="blue" stroke-width="2" />
<path d="M2139,7933 L1093,1025" stroke="blue" stroke-width="2" />
<path d="M1885,7967 L1694,3035" stroke="blue" stroke-width="2" />
<path d="M159,8074 L1188,5283" stroke="blue" stroke-width="2" />
<path d="M2327,6831 L2372,2362" stroke="blue" stroke-width="2" />
<path d="M2291,2587 L1509,1824" stroke="blue" stroke-width="2" />
<path d="M1039,3226 L1618,3651" stroke="blue" stroke-width="2" />
<path d="M380,1588 L329,2974" stroke="blue" stroke-width="2" />
<path d="M294,7295 L272,4689" stroke="blue" stroke-width="2" />
<path d="M2046,6620 L312,5728" stroke="blue" stroke-width="2" />
<path d="M1952,2809 L356,1829" stroke="blue" stroke-width="2" />
<path d="M17,7437 L1967,8053" stroke="blue" stroke-width="2" />
<path d="M87,726 L502,6842" stroke="blue" stroke-width="2" />
<path d="M966,7709 L1467,1755" stroke="blue" stroke-width="2" />
<path d="M32,5631 L1946,5376" stroke="blue" stroke-width="2" />
<path d="M164,8048 L1593,8790" stroke="blue" stroke-width="2" />
<path d="M40,925 L1189,6633" stroke="blue" stroke-width="2" />
<path d="M75,1361 L300,6590" stroke="blue" stroke-width="2" />
<path d="M1973,2281 L724,597" stroke="blue" stroke-width="2" />
<path d="M386,2204 L837,6750" stroke="blue" stroke-width="2" />
<path d="M2299,8370 L2087,3999" stroke="blue" stroke-width="2" />
<path d="M1523,1612 L2112,4099" stroke="blue" stroke-width="2" />
<path d="M158,6226 L1632,6950" stroke="blue" stroke-width="2" />
<path d="M12,2372 L117,8601" stroke="blue" stroke-width="2" />
<path d="M1352,6020 L1860,3746" stroke="blue" stroke-width="2" />
<path d="M332,5769 L1722,3776" stroke="blue" stroke-width="2" />
<path d="M1585,7323 L1406,4107" stroke="blue" stroke-width="2" />
<path d="M149,3557 L1796,3090" stroke="blue" stroke-width="2" />
<path d="M801,4542 L487,7932" stroke="blue" stroke-width="2" />
<path d="M951,4880 L2064,1752" stroke="blue" stroke-width="2" />
<path d="M1994,7852 L797,1032" stroke="blue" stroke-width="2" />
<path d="M2034,2344 L1984,4678" stroke="blue" stroke-width="2" />
<path d="M2164,485 L1694,2249" stroke="blue" stroke-width="2" />
<path d="M184,2310 L2078,3577" stroke="blue" stroke-width="2" />
<path d="M2157,8525 L131,1132" stroke="blue" stroke-width="2" />
<path d="M1562,1441 L1548,6103" stroke="blue" stroke-width="2" />
<path d="M90,7945 L199,1476" stroke="blue" stroke-width="2" />
<path d="M9,7010 L1713,3170" stroke="blue" stroke-width="2" />
<path d="M54,7555 L1254,7930" stroke="blue" stroke-width="2" />
<path d="M1262,4571 L807,6734" stroke="blue" stroke-width="2" />
<path d="M2213,2865 L270,8795" stroke="blue" stroke-width="2" />
<path d="M437,7687 L1421,1494" stroke="blue" stroke-width="2" />
<path d="M1892,3564 L1361,7974" stroke="blue" stroke-width="2" />
<path d="M1509,304 L2212,1899" stroke="blue" stroke-width="2" />
<path d="M1115,1424 L1364,6387" stroke="blue" stroke-width="2" />
<path d="M64,2948 L1393,7085" stroke="blue" stroke-width="2" />
<path d="M2178,821 L779,3045" stroke="blue" stroke-width="2" />
<path d="M1806,6306 L2376,5145" stroke="blue" stroke-width="2" />
<path d="M52,6644 L859,8186" stroke="blue" stroke-width="2" />
<path d="M494,782 L1410,5769" stroke="blue" stroke-width="2" />
<path d="M283,7920 L1821,3653" stroke="blue" stroke-width="2" />
<path d="M1198,2618 L1351,5133" stroke="blue" stroke-width="2" />
<path d="M0,0 L2379,0" stroke="red" stroke-width="10" />
<path d="M2379,0 L2379,8826" stroke="red" stroke-width="10" />
<path d="M0,8826 L2379,8826" stroke="red" stroke-width="10" />
<path d="M0,8826 L0,0" stroke="red" stroke-width="10" />
</svg>