<?xml version="1.0" encoding="UTF-8"?>
<svg xmlns="http://www.w3.org/2000/svg" xmlns:xlink="http://www.w3.org/1999/xlink"
     width="10000" height="10000" viewBox="0 0 10000 10000">
<defs>
</defs>
<path d="M398,3923 L1102,4758" stroke="blue" stroke-width="2" />
<path d="M4173,3756 L2163,8922" stroke="blue" stroke-width="2" />
<path d="M7098,5253 L6437,6492" stroke="blue" stroke-width="2" />
<path d="M4122,5978 L6726,7292" stroke="blue" stroke-width="2" />
<path d="M3972,924 L3559,9105" stroke="blue" stroke-width="2" />
<path d="M1277,1914 L1087,727" stroke="blue" stroke-width="2" />
<path d="M6021,9154 L6034,4780" stroke="blue" stroke-width="2" />
<path d="M674,3676 L5039,365" stroke="blue" stroke-width="2" />
<path d="M5084,6560 L652,5314" stroke="blue" stroke-width="2" />
<path d="M5416,8158 L2320,6172" stroke="blue" stroke-width="2" />
<path d="M3619,2195 L275,8545" stroke="blue" stroke-width="2" />
<path d="M7067,2751 L4086,760" stroke="blue" stroke-width="2" />
<path d="M1408,1262 L2344,4917" stroke="blue" stroke-width="2" />
<path d="M5335,5783 L634,1272" stroke="blue" stroke-width="2" />
<path d="M2874,1857 L3038,152" stroke="blue" stroke-width="2" />
<path d="M4564,973 L5509,423" stroke="blue" stroke-width="2" />
<path d="M1410,6909 L6476,7281" stroke="blue" stroke-width="2" />
<path d="M6782,820 L4573,6880" stroke="blue" stroke-width="2" />
<path d="M4575,3269 L7375,6613" stroke="blue" stroke-width="2" />
<path d="M2230,7598 L5005,9251" stroke="blue" stroke-width="2" />
<path d="M3971,6250 L5666,880" stroke="blue" stroke-width="2" />
<path d="M2855,1549 L220,3290" stroke="blue" stroke-width="2" />
<path d="M5072,224 L1397,8512" stroke="blue" stroke-width="2" />
<path d="M25,8756 L896,3011" stroke="blue" stroke-width="2" />
<path d="M742,6962 L5969,1355" stroke="blue" stroke-width="2" />
<path d="M948,9156 L3422,9186" stroke="blue" stroke-width="2" />
<path d="M419,7874 L3170,8076" stroke="blue" stroke-width="2" />
<path d="M7158,2706 L1595,4327" stroke="blue" stroke-width="2" />
<path d="M7987,8481 L5130,6106" stroke="blue" stroke-width="2" />
<path d="M7067,7589 L7792,7663" stroke="blue" stroke-width="2" />
<path d="M6975,6416 L5125,9297" stroke="blue" stroke-width="2" />
<path d="M6272,1044 L566,4656" stroke="blue" stroke-width="2" />
<path d="M1897,7587 L6054,1017" stroke="blue" stroke-width="2" />
<path d="M5954,7846 L6669,6923" stroke="blue" stroke-width="2" />
<path d="M3644,7871 L3339,4651" stroke="blue" stroke-width="2" />
<path d="M2106,206 L3303,1118" stroke="blue" stroke-width="2" />
<path d="M6544,23 L8020,5770" stroke="blue" stroke-width="2" />
<path d="M7077,8020 L6584,4330" stroke="blue" stroke-width="2" />
<path d="M1292,444 L5014,3950" stroke="blue" stroke-width="2" />
<path d="M4744,2049 L4728,1503" stroke="blue" stroke-width="2" />
<path d="M349,2940 L6114,2774" stroke="blue" stroke-width="2" />
<path d="M1917,9117 L6632,5501" stroke="blue" stroke-width="2" />
<path d="M2784,6182 L2836,1226" stroke="blue" stroke-width="2" />
<path d="M2714,5531 L710,3244" stroke="blue" stroke-width="2" />
<path d="M5678,6107 L1005,7423" stroke="blue" stroke-width="2" />
<path d="M3205,7381 L7591,7207" stroke="blue" stroke-width="2" />
<path d="M5540,1064 L1715,4575" stroke="blue" stroke-width="2" />
<path d="M5125,8113 L1626,198" stroke="blue" stroke-width="2" />
<path d="M4261,2964 L7723,2319" stroke="blue" stroke-width="2" />
<path d="M274,4696 L5977,24" stroke="blue" stroke-width="2" />
<path d="M5561,6145 L7499,6106" stroke="blue" stroke-width="2" />
<path d="M4965,3247 L7074,1542" stroke="blue" stroke-width="2" />
<path d="M7343,3821 L4526,5831" stroke="blue" stroke-width="2" />
<path d="M191,8334 L1348,1312" stroke="blue" stroke-width="2" />
<path d="M181,1074 L7708,5154" stroke="blue" stroke-width="2" />
<path d="M8,6578 L5892,8719" stroke="blue" stroke-width="2" />
<path d="M6377,6789 L3129,1833" stroke="blue" stroke-width="2" />
<path d="M3799,8550 L2096,5553" stroke="blue" stroke-width="2" />
<path d="M2557,7645 L3965,4530" stroke="blue" stroke-width="2" />
<path d="M7210,4098 L4760,3918" stroke="blue" stroke-width="2" />
<path d="M6780,5888 L6629,4012" stroke="blue" stroke-width="2" />
<path d="M7503,6333 L7849,8744" stroke="blue" stroke-width="2" />
<path d="M6106,2155 L5301,2101" stroke="blue" stroke-width="2" />
<path d="M2424,4480 L1258,5299" stroke="blue" stroke-width="2" />
<path d="M5240,20 L5310,5592" stroke="blue" stroke-width="2" />
<path d="M6476,1371 L1238,5236" stroke="blue" stroke-width="2" />
<path d="M6690,7182 L5985,3270" stroke="blue" stroke-width="2" />
<path d="M3333,3041 L7477,2033" stroke="blue" stroke-width="2" />
<path d="M2871,5746 L4565,850" stroke="blue" stroke-width="2" />
<path d="M1694,3686 L941,6093" stroke="blue" stroke-width="2" />
<path d="M7134,4961 L6811,1917" stroke="blue" stroke-width="2" />
<path d="M7470,8236 L2174,6347" stroke="blue" stroke-width="2" />
<path d="M1915,7202 L1478,4769" stroke="blue" stroke-width="2" />
<path d="M2650,2044 L7963,5344" stroke="blue" stroke-width="2" />
<path d="M447,1720 L1319,8122" stroke="blue" stroke-width="2" />
<path d="M5552,4378 L5647,7358" stroke="blue" stroke-width="2" />
<path d="M7161,651 L6700,2522" stroke="blue" stroke-width="2" />
<path d="M6543,1995 L176,9121" stroke="blue" stroke-width="2" />
<path d="M1734,4009 L6254,4647" stroke="blue" stroke-width="2" />
<path d="M5223,2240 L5822,8936" stroke="blue" stroke-width="2" />
<path d="M2571,458 L4474,4422" stroke="blue" stroke-width="2" />
<path d="M1503,6363 L1087,7081" stroke="blue" stroke-width="2" />
<path d="M4378,7746 L7279,9080" stroke="blue" stroke-width="2" />
<path d="M1878,4462 L7326,2939" stroke="blue" stroke-width="2" />
<path d="M3318,9019 L4277,5910" stroke="blue" stroke-width="2" />
<path d="M5130,2517 L4546,7002" stroke="blue" stroke-width="2" />
<path d="M6295,9274 L2566,6016" stroke="blue" stroke-width="2" />
<path d="M5329,8176 L590,2129" stroke="blue" stroke-width="2" />
<path d="M3772,4872 L6200,1216" stroke="blue" stroke-width="2" />
<path d="M1175,3312 L5242,6054" stroke="blue" stroke-width="2" />
<path d="M4634,1857 L468,5339" stroke="blue" stroke-width="2" />
<path d="M4756,5938 L6806,4817" stroke="blue" stroke-width="2" />
<path d="M6582,9125 L2068,4857" stroke="blue" stroke-width="2" />
<path d="M718,3857 L1554,5760" stroke="blue" stroke-width="2" />
<path d="M6949,5741 L5738,1987" stroke="blue" stroke-width="2" />
<path d="M3084,2084 L3616,1509" stroke="blue" stroke-width="2" />
<path d="M3628,1280 L1110,5157" stroke="blue" stroke-width="2" />
<path d="M286,7143 L803,2234" stroke="blue" stroke-width="2" />
<path d="M7468,1532 L1277,8294" stroke="blue" stroke-width="2" />
<path d="M5300,7869 L1841,7402" stroke="blue" stroke-width="2" />
<path d="M2092,6835 L7256,2230" stroke="blue" stroke-width="2" />
<path d="M487,13 L1991,2327" stroke="blue" stroke-width="2" />
<path d="M4656,1825 L182,7471" stroke="blue" stroke-width="2" />
<path d="M2690,4195 L6235,8802" stroke="blue" stroke-width="2" />
<path d="M2689,2541 L6153,6532" stroke="blue" stroke-width="2" />
<path d="M1166,3535 L3891,5153" stroke="blue" stroke-width="2" />
<path d="M4298,6659 L4598,7811" stroke="blue" stroke-width="2" />
<path d="M2751,58 L4020,1783" stroke="blue" stroke-width="2" />
<path d="M6189,6770 L7400,7785" stroke="blue" stroke-width="2" />
<path d="M1902,2481 L3738,7068" stroke="blue" stroke-width="2" />
<path d="M7172,9175 L6505,3556" stroke="blue" stroke-width="2" />
<path d="M2060,9047 L3315,5506" stroke="blue" stroke-width="2" />
<path d="M2932,2093 L7362,2411" stroke="blue" stroke-width="2" />
<path d="M1765,5240 L6444,5173" stroke="blue" stroke-width="2" />
<path d="M6128,6899 L384,6879" stroke="blue" stroke-width="2" />
<path d="M159,901 L6213,1778" stroke="blue" stroke-width="2" />
<path d="M3080,3523 L2916,8349" stroke="blue" stroke-width="2" />
<path d="M7837,3246 L6013,1516" stroke="blue" stroke-width="2" />
<path d="M6745,9254 L4298,2347" stroke="blue" stroke-width="2" />
<path d="M6866,1624 L3136,4125" stroke="blue" stroke-width="2" />
<path d="M3065,4404 L6350,126" stroke="blue" stroke-width="2" />
<path d="M5430,9082 L436,1678" stroke="blue" stroke-width="2" />
<path d="M5591,4794 L3648,2639" stroke="blue" stroke-width="2" />
<path d="M7834,8174 L2814,1794" stroke="blue" stroke-width="2" />
<path d="M6358,9179 L2486,2086" stroke="blue" stroke-width="2" />
<path d="M6329,2382 L5867,4520" stroke="blue" stroke-width="2" />
<path d="M6341,4238 L4363,2244" stroke="blue" stroke-width="2" />
<path d="M5985,56 L563,869" stroke="blue" stroke-width="2" />
<path d="M1122,280 L6127,5911" stroke="blue" stroke-width="2" />
<path d="M4960,2901 L4868,3088" stroke="blue" stroke-width="2" />
<path d="M6704,5190 L5889,7748" stroke="blue" stroke-width="2" />
<path d="M1018,8145 L6278,3565" stroke="blue" stroke-width="2" />
<path d="M4572,4391 L3918,2602" stroke="blue" stroke-width="2" />
<path d="M3038,7057 L5784,6807" stroke="blue" stroke-width="2" />
<path d="M1176,8430 L6650,8666" stroke="blue" stroke-width="2" />
<path d="M4758,7909 L4888,4304" stroke="blue" stroke-width="2" />
<path d="M1257,4898 L398,9065" stroke="blue" stroke-width="2" />
<path d="M88,7507 L2378,332" stroke="blue" stroke-width="2" />
<path d="M799,5741 L7029,4037" stroke="blue" stroke-width="2" />
<path d="M886,2988 L2734,9169" stroke="blue" stroke-width="2" />
<path d="M134,2892 L1590,4188" stroke="blue" stroke-width="2" />
<path d="M3675,978 L7868,2965" stroke="blue" stroke-width="2" />
<path d="M1960,7720 L364,4649" stroke="blue" stroke-width="2" />
<path d="M7155,2551 L3613,2248" stroke="blue" stroke-width="2" />
<path d="M5137,2791 L6250,1846" stroke="blue" stroke-width="2" />
<path d="M3326,322 L3419,1152" stroke="blue" stroke-width="2" />
<path d="M4687,8600 L6761,3778" stroke="blue" stroke-width="2" />
<path d="M7001,6652 L3114,8575" stroke="blue" stroke-width="2" />
<path d="M5106,5563 L6016,211" stroke="blue" stroke-width="2" />
<path d="M4976,4109 L3048,433" stroke="blue" stroke-width="2" />
<path d="M5218,2363 L5456,4498" stroke="blue" stroke-width="2" />
<path d="M5363,4323 L1885,5998" stroke="blue" stroke-width="2" />
<path d="M3860,3255 L5920,8024" stroke="blue" stroke-width="2" />
<path d="M1152,4300 L3161,535" stroke="blue" stroke-width="2" />
<path d="M1286,6427 L728,903" stroke="blue" stroke-width="2" />
<path d="M4714,7644 L1600,8133" stroke="blue" stroke-width="2" />
<path d="M128,2177 L2556,1521" stroke="blue" stroke-width="2" />
<path d="M4179,7901 L6759,8613" stroke="blue" stroke-width="2" />
<path d="M7085,7243 L7114,7418" stroke="blue" stroke-width="2" />
<path d="M5641,3426 L4582,8242" stroke="blue" stroke-width="2" />
<path d="M1045,7840 L3857,1369" stroke="blue" stroke-width="2" />
<path d="M2966,1161 L6110,7565" stroke="blue" stroke-width="2" />
<path d="M378,7462 L5249,845" stroke="blue" stroke-width="2" />
<path d="M7369,6354 L5390,6164" stroke="blue" stroke-width="2" />
<path d="M3126,4056 L7796,6252" stroke="blue" stroke-width="2" />
<path d="M2217,6942 L5068,6191" stroke="blue" stroke-width="2" />
<path d="M1487,8559 L2008,1733" stroke="blue" stroke-width="2" />
<path d="M6743,1162 L5145,2262" stroke="blue" stroke-width="2" />
<path d="M6697,4580 L7662,2173" stroke="blue" stroke-width="2" />
<path d="M6623,7769 L2516,7878" stroke="blue" stroke-width="2" />
<path d="M1022,524 L2175,1802" stroke="blue" stroke-width="2" />
<path d="M6188,2288 L3549,1620" stroke="blue" stroke-width="2" />
<path d="M6659,7522 L748,1286" stroke="blue" stroke-width="2" />
<path d="M5138,7521 L2078,6411" stroke="blue" stroke-width="2" />
<path d="M2499,4932 L1511,3630" stroke="blue" stroke-width="2" />
<path d="M1346,555 L5043,1181" stroke="blue" stroke-width="2" />
<path d="M3534,8515 L3440,2767" stroke="blue" stroke-width="2" />
<path d="M2399,64 L2765,2675" stroke="blue" stroke-width="2" />
<path d="M2980,7062 L5457,4417" stroke="blue" stroke-width="2" />
<path d="M2920,3899 L6110,8190" stroke="blue" stroke-width="2" />
<path d="M6129,3386 L2774,6764" stroke="blue" stroke-width="2" />
<path d="M4509,4592 L3395,4084" stroke="blue" stroke-width="2" />
<path d="M4750,7079 L6099,849" stroke="blue" stroke-width="2" />
<path d="M1630,522 L1979,6723" stroke="blue" stroke-width="2" />
<path d="M363,5754 L1189,5085" stroke="blue" stroke-width="2" />
<path d="M7918,5860 L1870,1765" stroke="blue" stroke-width="2" />
<path d="M6400,2185 L6181,7547" stroke="blue" stroke-width="2" />
<path d="M1781,7580 L6447,1046" stroke="blue" stroke-width="2" />
<path d="M6486,913 L4237,8438" stroke="blue" stroke-width="2" />
<path d="M4891,7182 L3896,8205" stroke="blue" stroke-width="2" />
<path d="M1540,7281 L6292,3015" stroke="blue" stroke-width="2" />
<path d="M1145,7481 L4943,1207" stroke="blue" stroke-width="2" />
<path d="M5533,7187 L3687,2368" stroke="blue" stroke-width="2" />
<path d="M231,5654 L788,7005" stroke="blue" stroke-width="2" />
<path d="M3872,2208 L1376,2127" stroke="blue" stroke-width="2" />
<path d="M7995,7385 L1674,593" stroke="blue" stroke-width="2" />
<path d="M5073,636 L864,6082" stroke="blue" stroke-width="2" />
<path d="M5211,9321 L981,7448" stroke="blue" stroke-width="2" />
<path d="M7098,643 L1516,4516" stroke="blue" stroke-width="2" />
<path d="M6842,4625 L2370,1699" stroke="blue" stroke-width="2" />
<path d="M4007,1182 L7547,8366" stroke="blue" stroke-width="2" />
<path d="M3834,8215 L4935,1466" stroke="blue" stroke-width="2" />
<path d="M3170,4845 L3211,8464" stroke="blue" stroke-width="2" />
<path d="M39,574 L4759,5368" stroke="blue" stroke-width="2" />
<path d="M4615,8756 L3127,6337" stroke="blue" stroke-width="2" />
<path d="M6293,881 L3058,4440" stroke="blue" stroke-width="2" />
<path d="M6988,6167 L2685,1028" stroke="blue" stroke-width="2" />
<path d="M900,2612 L7466,4840" stroke="blue" stroke-width="2" />
<path d="M6326,6351 L5809,8142" stroke="blue" stroke-width="2" />
<path d="M3125,6915 L4871,2933" stroke="blue" stroke-width="2" />
<path d="M2734,6803 L5574,4141" stroke="blue" stroke-width="2" />
<path d="M4594,6095 L4642,7852" stroke="blue" stroke-width="2" />
<path d="M2045,8163 L5513,8715" stroke="blue" stroke-width="2" />
<path d="M3968,5216 L2977,7154" stroke="blue" stroke-width="2" />
<path d="M7673,8505 L1761,6097" stroke="blue" stroke-width="2" />
<path d="M1461,5214 L7488,3124" stroke="blue" stroke-width="2" />
<path d="M6683,1655 L4390,5942" stroke="blue" stroke-width="2" />
<path d="M1415,431 L2346,8389" stroke="blue" stroke-width="2" />
<path d="M6414,6385 L2538,5122" stroke="blue" stroke-width="2" />
<path d="M5921,3931 L5854,8244" stroke="blue" stroke-width="2" />
<path d="M4434,6418 L1534,7286" stroke="blue" stroke-width="2" />
<path d="M3051,8279 L1123,6904" stroke="blue" stroke-width="2" />
<path d="M3279,6011 L2289,934" stroke="blue" stroke-width="2" />
<path d="M7080,666 L6340,8217" stroke="blue" stroke-width="2" />
<path d="M4575,6191 L969,8455" stroke="blue" stroke-width="2" />
<path d="M7013,7615 L3518,491" stroke="blue" stroke-width="2" />
<path d="M810,7323 L7495,4513" stroke="blue" stroke-width="2" />
<path d="M4817,3553 L1691,40" stroke="blue" stroke-width="2" />
<path d="M2141,257 L881,3546" stroke="blue" stroke-width="2" />
<path d="M4621,392 L1768,1015" stroke="blue" stroke-width="2" />
<path d="M4110,8964 L1156,6566" stroke="blue" stroke-width="2" />
<path d="M101,7821 L4582,8347" stroke="blue" stroke-width="2" />
<path d="M2580,95 L4509,7382" stroke="blue" stroke-width="2" />
<path d="M1823,6746 L3045,4360" stroke="blue" stroke-width="2" />
<path d="M5646,5420 L2650,1157" stroke="blue" stroke-width="2" />
<path d="M631,2380 L2725,8585" stroke="blue" stroke-width="2" />
<path d="M2063,4654 L3171,8522" stroke="blue" stroke-width="2" />
<path d="M5571,7430 L173,815" stroke="blue" stroke-width="2" />
<path d="M3180,1604 L7053,4549" stroke="blue" stroke-width="2" />
<path d="M4654,2299 L3366,891" stroke="blue" stroke-width="2" />
<path d="M7417,4971 L4374,6432" stroke="blue" stroke-width="2" />
<path d="M2050,8913 L5295,5967" stroke="blue" stroke-width="2" />
<path d="M5150,8840 L1809,1736" stroke="blue" stroke-width="2" />
<path d="M2564,1830 L5012,4158" stroke="blue" stroke-width="2" />
<path d="M4410,8943 L2861,9224" stroke="blue" stroke-width="2" />
<path d="M1097,1981 L4850,4390" stroke="blue" stroke-width="2" />
<path d="M4235,2186 L7527,518" stroke="blue" stroke-width="2" />
<path d="M3674,1696 L6867,2505" stroke="blue" stroke-width="2" />
<path d="M3731,2080 L2392,5760" stroke="blue" stroke-width="2" />
<path d="M3651,1045 L6550,4767" stroke="blue" stroke-width="2" />
<path d="M5814,52 L7483,8534" stroke="blue" stroke-width="2" />
<path d="M6530,1396 L7863,7476" stroke="blue" stroke-width="2" />
<path d="M6609,6604 L1732,4377" stroke="blue" stroke-width="2" />
<path d="M3489,3382 L936,7288" stroke="blue" stroke-width="2" />
<path d="M433,4984 L6234,6578" stroke="blue" stroke-width="2" />
<path d="M4414,1123 L3131,1420" stroke="blue" stroke-width="2" />
<path d="M7611,5481 L7060,5255" stroke="blue" stroke-width="2" />
<path d="M7637,6562 L5673,1762" stroke="blue" stroke-width="2" />
<path d="M4068,7848 L6643,1178" stroke="blue" stroke-width="2" />
<path d="M4410,1591 L5206,4191" stroke="blue" stroke-width="2" />
<path d="M4192,48 L7044,3594" stroke="blue" stroke-width="2" />
<path d="M6921,4188 L7289,502" stroke="blue" stroke-width="2" />
<path d="M6824,7232 L1420,2731" stroke="blue" stroke-width="2" />
<path d="M2375,1031 L6907,4976" stroke="blue" stroke-width="2" />
<path d="M5570,8534 L4595,2749" stroke="blue" stroke-width="2" />
<path d="M5973,7144 L2871,3870" stroke="blue" stroke-width="2" />
<path d="M8003,3191 L4772,4197" stroke="blue" stroke-width="2" />
<path d="M6419,1677 L2031,2281" stroke="blue" stroke-width="2" />
<path d="M1373,5384 L1202,103" stroke="blue" stroke-width="2" />
<path d="M514,4374 L1307,2793" stroke="blue" stroke-width="2" />
<path d="M693,4431 L4396,1969" stroke="blue" stroke-width="2" />
<path d="M1892,3414 L772,808" stroke="blue" stroke-width="2" />
<path d="M5077,4105 L6863,7830" stroke="blue" stroke-width="2" />
<path d="M6240,7275 L571,3045" stroke="blue" stroke-width="2" />
<path d="M2881,3996 L5554,3241" stroke="blue" stroke-width="2" />
<path d="M4584,1153 L2152,6462" stroke="blue" stroke-width="2" />
<path d="M4334,7722 L4230,7603" stroke="blue" stroke-width="2" />
<path d="M7537,5775 L693,3466" stroke="blue" stroke-width="2" />
<path d="M5023,1892 L5430,8219" stroke="blue" stroke-width="2" />
<path d="M4290,6303 L2604,1989" stroke="blue" stroke-width="2" />
<path d="M1595,6972 L448,2994" stroke="blue" stroke-width="2" />
<path d="M3048,8648 L2307,4729" stroke="blue" stroke-width="2" />
<path d="M2993,7866 L7501,3317" stroke="blue" stroke-width="2" />
<path d="M681,6652 L3425,4362" stroke="blue" stroke-width="2" />
<path d="M1330,6566 L1968,4726" stroke="blue" stroke-width="2" />
<path d="M1120,4763 L435,2606" stroke="blue" stroke-width="2" />
<path d="M2653,606 L6469,3600" stroke="blue" stroke-width="2" />
<path d="M7860,7094 L6457,7363" stroke="blue" stroke-width="2" />
<path d="M188,5650 L1120,6146" stroke="blue" stroke-width="2" />
<path d="M3328,8276 L3582,6595" stroke="blue" stroke-width="2" />
<path d="M6997,1821 L6353,2873" stroke="blue" stroke-width="2" />
<path d="M5143,9122 L6725,6352" stroke="blue" stroke-width="2" />
<path d="M2548,5657 L2068,3270" stroke="blue" stroke-width="2" />
<path d="M1836,8803 L442,1129" stroke="blue" stroke-width="2" />
<path d="M6238,1785 L5180,150" stroke="blue" stroke-width="2" />
<path d="M4475,5305 L3231,8426" stroke="blue" stroke-width="2" />
<path d="M2672,3704 L1928,3291" stroke="blue" stroke-width="2" />
<path d="M2512,3729 L4720,3219" stroke="blue" stroke-width="2" />
<path d="M1598,3362 L1671,2866" stroke="blue" stroke-width="2" />
<path d="M4474,2231 L5567,1029" stroke="blue" stroke-width="2" />
<path d="M3652,7618 L1261,971" stroke="blue" stroke-width="2" />
<path d="M7154,7247 L4936,2737" stroke="blue" stroke-width="2" />
<path d="M5173,1369 L1481,7583" stroke="blue" stroke-width="2" />
<path d="M7302,2299 L1641,8812" stroke="blue" stroke-width="2" />
<path d="M7980,398 L759,6706" stroke="blue" stroke-width="2" />
<path d="M610,370 L7114,1761" stroke="blue" stroke-width="2" />
<path d="M7991,9132 L5606,2509" stroke="blue" stroke-width="2" />
<path d="M6017,8314 L2565,7127" stroke="blue" stroke-width="2" />
<path d="M6447,65 L5725,7519" stroke="blue" stroke-width="2" />
<path d="M4382,1155 L1956,7639" stroke="blue" stroke-width="2" />
<path d="M3146,3967 L3327,7605" stroke="blue" stroke-width="2" />
<path d="M6692,8640 L6177,6150" stroke="blue" stroke-width="2" />
<path d="M51,5278 L7209,8978" stroke="blue" stroke-width="2" />
<path d="M3993,7915 L5325,3066" stroke="blue" stroke-width="2" />
<path d="M7403,6403 L2592,8616" stroke="blue" stroke-width="2" />
<path d="M5849,7769 L1722,1258" stroke="blue" stroke-width="2" />
<path d="M6795,3929 L1205,2559" stroke="blue" stroke-width="2" />
<path d="M5662,7742 L1660,140" stroke="blue" stroke-width="2" />
<path d="M7278,1940 L2199,2423" stroke="blue" stroke-width="2" />
<path d="M3718,2503 L1094,8658" stroke="blue" stroke-width="2" />
<path d="M2693,684 L1243,3813" stroke="blue" stroke-width="2" />
<path d="M2776,7443 L5717,7833" stroke="blue" stroke-width="2" />
<path d="M6393,5207 L6580,9051" stroke="blue" stroke-width="2" />
<path d="M2500,7528 L1699,4579" stroke="blue" stroke-width="2" />
<path d="M1109,7057 L6752,2820" stroke="blue" stroke-width="2" />
<path d="M2484,106 L3246,1407" stroke="blue" stroke-width="2" />
<path d="M7339,4068 L4853,1938" stroke="blue" stroke-width="2" />
<path d="M7938,5818 L5315,8893" stroke="blue" stroke-width="2" />
<path d="M3721,5962 L4946,4989" stroke="blue" stroke-width="2" />
<path d="M2969,5003 L2849,3689" stroke="blue" stroke-width="2" />
<path d="M5050,2305 L2717,7459" stroke="blue" stroke-width="2" />
<path d="M7716,1508 L7893,531" stroke="blue" stroke-width="2" />
<path d="M2328,7379 L7488,7590" stroke="blue" stroke-width="2" />
<path d="M4374,3862 L4069,822" stroke="blue" stroke-width="2" />
<path d="M4737,8045 L7071,1812" stroke="blue" stroke-width="2" />
<path d="M6479,868 L6946,4550" stroke="blue" stroke-width="2" />
<path d="M4943,6853 L3416,4120" stroke="blue" stroke-width="2" />
<path d="M4718,6742 L7962,3464" stroke="blue" stroke-width="2" />
<path d="M4921,4217 L2399,8053" stroke="blue" stroke-width="2" />
<path d="M203,3198 L4139,3150" stroke="blue" stroke-width="2" />
<path d="M2417,9158 L4301,6927" stroke="blue" stroke-width="2" />
<path d="M4955,410 L2997,7948" stroke="blue" stroke-width="2" />
<path d="M2089,588 L3544,76" stroke="blue" stroke-width="2" />
<path d="M4664,4604 L6240,3507" stroke="blue" stroke-width="2" />
<path d="M6844,1094 L3279,4298" stroke="blue" stroke-width="2" />
<path d="M4492,4101 L7735,7708" stroke="blue" stroke-width="2" />
<path d="M3459,5168 L1286,5703" stroke="blue" stroke-width="2" />
<path d="M8028,1978 L4168,6719" stroke="blue" stroke-width="2" />
<path d="M1374,1466 L1978,3751" stroke="blue" stroke-width="2" />
<path d="M7159,1832 L3842,4650" stroke="blue" stroke-width="2" />
<path d="M3531,8887 L3249,7495" stroke="blue" stroke-width="2" />
<path d="M3872,1465 L3072,2637" stroke="blue" stroke-width="2" />
<path d="M5959,9056 L7520,6390" stroke="blue" stroke-width="2" />
<path d="M7328,8302 L1656,643" stroke="blue" stroke-width="2" />
<path d="M7022,1592 L6207,8833" stroke="blue" stroke-width="2" />
<path d="M1995,176 L7666,2493" stroke="blue" stroke-width="2" />
<path d="M6754,1960 L3908,8060" stroke="blue" stroke-width="2" />
<path d="M2403,8568 L6455,5841" stroke="blue" stroke-width="2" />
<path d="M2265,2685 L6498,4202" stroke="blue" stroke-width="2" />
<path d="M5490,5365 L4162,6571" stroke="blue" stroke-width="2" />
<path d="M7019,523 L4248,3522" stroke="blue" stroke-width="2" />
<path d="M2804,5598 L2519,2419" stroke="blue" stroke-width="2" />
<path d="M73,530 L7374,4866" stroke="blue" stroke-width="2" />
<path d="M3302,1772 L953,1738" stroke="blue" stroke-width="2" />
<path d="M1442,5642 L2114,8834" stroke="blue" stroke-width="2" />
<path d="M147,3947 L6580,6594" stroke="blue" stroke-width="2" />
<path d="M5395,7253 L4860,6630" stroke="blue" stroke-width="2" />
<path d="M3905,6840 L6181,1705" stroke="blue" stroke-width="2" />
<path d="M418,7913 L3231,1595" stroke="blue" stroke-width="2" />
<path d="M5298,6914 L3130,7293" stroke="blue" stroke-width="2" />
<path d="M2462,1695 L2995,5574" stroke="blue" stroke-width="2" />
<path d="M1786,4076 L1441,4354" stroke="blue" stroke-width="2" />
<path d="M5293,380 L7936,6222" stroke="blue" stroke-width="2" />
<path d="M7200,6361 L2853,6103" stroke="blue" stroke-width="2" />
<path d="M7426,3144 L4113,6555" stroke="blue" stroke-width="2" />
<path d="M1672,4084 L1534,6939" stroke="blue" stroke-width="2" />
<path d="M6699,7877 L7547,5370" stroke="blue" stroke-width="2" />
<path d="M6701,2769 L3929,9024" stroke="blue" stroke-width="2" />
<path d="M4830,5456 L5128,7621" stroke="blue" stroke-width="2" />
<path d="M1291,1194 L6289,1116" stroke="blue" stroke-width="2" />
<path d="M7684,6022 L669,2920" stroke="blue" stroke-width="2" />
<path d="M2175,3144 L7841,4152" stroke="blue" stroke-width="2" />
<path d="M4343,2835 L7478,7283" stroke="blue" stroke-width="2" />
<path d="M4741,3213 L4820,4338" stroke="blue" stroke-width="2" />
<path d="M7883,199 L3890,4689" stroke="blue" stroke-width="2" />
<path d="M3993,7231 L2534,2783" stroke="blue" stroke-width="2" />
<path d="M6925,1991 L7007,3813" stroke="blue" stroke-width="2" />
<path d="M6068,4119 L6203,5594" stroke="blue" stroke-width="2" />
<path d="M3079,7759 L2031,6146" stroke="blue" stroke-width="2" />
<path d="M6561,5689 L2387,1006" stroke="blue" stroke-width="2" />
<path d="M6577,4238 L5526,257" stroke="blue" stroke-width="2" />
<path d="M1589,8011 L1701,1146" stroke="blue" stroke-width="2" />
<path d="M4671,6033 L8030,3899" stroke="blue" stroke-width="2" />
<path d="M3686,9056 L5668,4848" stroke="blue" stroke-width="2" />
<path d="M5085,9270 L2400,4117" stroke="blue" stroke-width="2" />
<path d="M264,819 L92,4896" stroke="blue" stroke-width="2" />
<path d="M7998,9001 L2351,8161" stroke="blue" stroke-width="2" />
<path d="M863,7410 L4339,5557" stroke="blue" stroke-width="2" />
<path d="M312,8193 L5590,5282" stroke="blue" stroke-width="2" />
<path d="M7631,7052 L5349,8463" stroke="blue" stroke-width="2" />
<path d="M3799,5753 L4835,2845" stroke="blue" stroke-width="2" />
<path d="M3929,3035 L1085,8251" stroke="blue" stroke-width="2" />
<path d="M2395,7731 L4753,6239" stroke="blue" stroke-width="2" />
<path d="M6887,909 L3173,526" stroke="blue" stroke-width="2" />
<path d="M2184,9318 L7471,1449" stroke="blue" stroke-width="2" />
<path d="M5566,7093 L6962,3883" stroke="blue" stroke-width="2" />
<path d="M4582,8006 L5922,5714" stroke="blue" stroke-width="2" />
<path d="M6103,376 L6275,3123" stroke="blue" stroke-width="2" />
<path d="M5473,31 L6252,7289" stroke="blue" stroke-width="2" />
<path d="M3531,3635 L6719,485" stroke="blue" stroke-width="2" />
<path d="M4000,4406 L2416,8557" stroke="blue" stroke-width="2" />
<path d="M278,3687 L4695,4153" stroke="blue" stroke-width="2" />
<path d="M4195,2177 L7026,443" stroke="blue" stroke-width="2" />
<path d="M4396,5814 L291,2826" stroke="blue" stroke-width="2" />
<path d="M7988,6439 L2896,1296" stroke="blue" stroke-width="2" />
<path d="M1116,2217 L1022,8192" stroke="blue" stroke-width="2" />
<path d="M5560,7127 L7081,2370" stroke="blue" stroke-width="2" />
<path d="M6978,1275 L4265,31" stroke="blue" stroke-width="2" />
<path d="M6600,180 L1796,8841" stroke="blue" stroke-width="2" />
<path d="M2124,8597 L2197,7549" stroke="blue" stroke-width="2" />
<path d="M7820,9250 L1681,6869" stroke="blue" stroke-width="2" />
<path d="M2613,5059 L663,516" stroke="blue" stroke-width="2" />
<path d="M2446,6330 L6603,4295" stroke="blue" stroke-width="2" />
<path d="M2361,2480 L2238,7980" stroke="blue" stroke-width="2" />
<path d="M162,2806 L6825,3465" stroke="blue" stroke-width="2" />
<path d="M3155,544 L3716,8779" stroke="blue" stroke-width="2" />
<path d="M6070,2896 L751,9168" stroke="blue" stroke-width="2" />
<path d="M6932,2838 L4460,7599" stroke="blue" stroke-width="2" />
<path d="M2007,3790 L1713,2137" stroke="blue" stroke-width="2" />
<path d="M5052,3235 L3608,6192" stroke="blue" stroke-width="2" />
<path d="M3909,6790 L2082,7687" stroke="blue" stroke-width="2" />
<path d="M4166,8320 L7547,5482" stroke="blue" stroke-width="2" />
<path d="M6087,215 L5345,1448" stroke="blue" stroke-width="2" />
<path d="M7114,4852 L584,8745" stroke="blue" stroke-width="2" />
<path d="M1205,7225 L1597,1672" stroke="blue" stroke-width="2" />
<path d="M168,4373 L3714,4901" stroke="blue" stroke-width="2" />
<path d="M7842,7497 L515,1329" stroke="blue" stroke-width="2" />
<path d="M7238,4087 L1835,5670" stroke="blue" stroke-width="2" />
<path d="M5025,4309 L5897,6328" stroke="blue" stroke-width="2" />
<path d="M7184,1169 L3281,5995" stroke="blue" stroke-width="2" />
<path d="M5757,6280 L3392,3024" stroke="blue" stroke-width="2" />
<path d="M7771,6530 L2257,2164" stroke="blue" stroke-width="2" />
<path d="M3840,2003 L7643,7948" stroke="blue" stroke-width="2" />
<path d="M1645,2165 L906,7237" stroke="blue" stroke-width="2" />
<path d="M3296,8831 L7303,6144" stroke="blue" stroke-width="2" />
<path d="M4040,7268 L515,874" stroke="blue" stroke-width="2" />
<path d="M6694,3193 L7206,3902" stroke="blue" stroke-width="2" />
<path d="M2795,5708 L5083,1178" stroke="blue" stroke-width="2" />
<path d="M5916,650 L6911,1387" stroke="blue" stroke-width="2" />
<path d="M7668,8774 L4678,735" stroke="blue" stroke-width="2" />
<path d="M2364,2394 L6039,3732" stroke="blue" stroke-width="2" />
<path d="M5623,9019 L3608,869" stroke="blue" stroke-width="2" />
<path d="M5988,6607 L2232,4203" stroke="blue" stroke-width="2" />
<path d="M6301,6108 L6249,5990" stroke="blue" stroke-width="2" />
<path d="M4909,3390 L2005,7047" stroke="blue" stroke-width="2" />
<path d="M6820,3228 L3329,1941" stroke="blue" stroke-width="2" />
<path d="M5609,4192 L2479,6927" stroke="blue" stroke-width="2" />
<path d="M5868,3972 L424,3635" stroke="blue" stroke-width="2" />
<path d="M7188,4130 L7376,6266" stroke="blue" stroke-width="2" />
<path d="M5928,3462 L135,902" stroke="blue" stroke-width="2" />
<path d="M2757,3920 L1372,5941" stroke="blue" stroke-width="2" />
<path d="M7628,8265 L7114,446" stroke="blue" stroke-width="2" />
<path d="M3388,2603 L1682,1450" stroke="blue" stroke-width="2" />
<path d="M564,8601 L5590,3650" stroke="blue" stroke-width="2" />
<path d="M5761,7201 L1247,5425" stroke="blue" stroke-width="2" />
<path d="M6027,6310 L2161,7594" stroke="blue" stroke-width="2" />
<path d="M5196,2431 L4199,4867" stroke="blue" stroke-width="2" />
<path d="M7132,6874 L7566,8589" stroke="blue" stroke-width="2" />
<path d="M4272,5603 L3016,4218" stroke="blue" stroke-width="2" />
<path d="M5007,1437 L7621,7804" stroke="blue" stroke-width="2" />
<path d="M1580,8671 L6027,7270" stroke="blue" stroke-width="2" />
<path d="M116,9136 L85,5865" stroke="blue" stroke-width="2" />
<path d="M5868,6550 L954,8160" stroke="blue" stroke-width="2" />
<path d="M3072,6514 L956,7520" stroke="blue" stroke-width="2" />
<path d="M5275,6817 L1986,7360" stroke="blue" stroke-width="2" />
<path d="M4650,719 L5459,8518" stroke="blue" stroke-width="2" />
<path d="M6345,4708 L2271,2963" stroke="blue" stroke-width="2" />
<path d="M5160,5863 L3087,507" stroke="blue" stroke-width="2" />
<path d="M3287,1345 L6744,7341" stroke="blue" stroke-width="2" />
<path d="M2799,440 L4670,8068" stroke="blue" stroke-width="2" />
<path d="M5288,7704 L2465,4373" stroke="blue" stroke-width="2" />
<path d="M797,7962 L1541,7670" stroke="blue" stroke-width="2" />
<path d="M5346,2066 L1031,4950" stroke="blue" stroke-width="2" />
<path d="M7254,4641 L6937,4759" stroke="blue" stroke-width="2" />
<path d="M4430,5462 L4768,8107" stroke="blue" stroke-width="2" />
<path d="M7630,9013 L2399,4818" stroke="blue" stroke-width="2" />
<path d="M7513,1983 L3898,7501" stroke="blue" stroke-width="2" />
<path d="M679,489 L6523,6764" stroke="blue" stroke-width="2" />
<path d="M3656,6590 L2599,7717" stroke="blue" stroke-width="2" />
<path d="M111,7764 L7163,5757" stroke="blue" stroke-width="2" />
<path d="M3211,445 L7220,2446" stroke="blue" stroke-width="2" />
<path d="M1150,1167 L6736,8815" stroke="blue" stroke-width="2" />
<path d="M1211,5175 L4266,9307" stroke="blue" stroke-width="2" />
<path d="M5946,2499 L1624,8235" stroke="blue" stroke-width="2" />
<path d="M649,8719 L7105,3646" stroke="blue" stroke-width="2" />
<path d="M7217,5484 L3441,2444" stroke="blue" stroke-width="2" />
<path d="M4548,2088 L1015,1099" stroke="blue" stroke-width="2" />
<path d="M4556,5390 L5125,4169" stroke="blue" stroke-width="2" />
<path d="M7741,4133 L1387,5951" stroke="blue" stroke-width="2" />
<path d="M2428,2104 L4520,2806" stroke="blue" stroke-width="2" />
<path d="M817,346 L6013,4435" stroke="blue" stroke-width="2" />
<path d="M3146,1794 L7522,7635" stroke="blue" stroke-width="2" />
<path d="M6452,6441 L71,1475" stroke="blue" stroke-width="2" />
<path d="M2763,7072 L5362,3533" stroke="blue" stroke-width="2" />
<path d="M922,7513 L2377,4679" stroke="blue" stroke-width="2" />
<path d="M1073,7023 L2170,8757" stroke="blue" stroke-width="2" />
<path d="M6385,3316 L6205,5131" stroke="blue" stroke-width="2" />
<path d="M7920,4513 L7910,389" stroke="blue" stroke-width="2" />
<path d="M4024,8834 L3959,170" stroke="blue" stroke-width="2" />
<path d="M2407,77 L574,8937" stroke="blue" stroke-width="2" />
<path d="M5912,167 L865,1546" stroke="blue" stroke-width="2" />
<path d="M7726,1606 L1251,8606" stroke="blue" stroke-width="2" />
<path d="M749,8623 L2648,618" stroke="blue" stroke-width="2" />
<path d="M7261,3658 L1356,4245" stroke="blue" stroke-width="2" />
<path d="M4500,4512 L6467,4335" stroke="blue" stroke-width="2" />
<path d="M756,6428 L7729,701" stroke="blue" stroke-width="2" />
<path d="M3896,5984 L110,7328" stroke="blue" stroke-width="2" />
<path d="M6795,504 L6827,3819" stroke="blue" stroke-width="2" />
<path d="M3514,2109 L7973,5854" stroke="blue" stroke-width="2" />
<path d="M2073,7127 L4203,529" stroke="blue" stroke-width="2" />
<path d="M171,2560 L1230,7821" stroke="blue" stroke-width="2" />
<path d="M329,9288 L1327,4206" stroke="blue" stroke-width="2" />
<path d="M4643,5264 L7763,8005" stroke="blue" stroke-width="2" />
<path d="M3589,6207 L7436,7770" stroke="blue" stroke-width="2" />
<path d="M3806,2690 L7209,1654" stroke="blue" stroke-width="2" />
<path d="M4331,2342 L7591,3107" stroke="blue" stroke-width="2" />
<path d="M5254,708 L154,2276" stroke="blue" stroke-width="2" />
<path d="M5963,9318 L1105,2039" stroke="blue" stroke-width="2" />
<path d="M7638,2481 L7382,1747" stroke="blue" stroke-width="2" />
<path d="M6386,7843 L7114,1209" stroke="blue" stroke-width="2" />
<path d="M364,8248 L3250,442" stroke="blue" stroke-width="2" />
<path d="M4262,3424 L7209,6021" stroke="blue" stroke-width="2" />
<path d="M7047,4517 L6218,190" stroke="blue" stroke-width="2" />
<path d="M4220,7663 L1480,4411" stroke="blue" stroke-width="2" />
<path d="M3,8107 L4304,3298" stroke="blue" stroke-width="2" />
<path d="M6993,1354 L1633,3108" stroke="blue" stroke-width="2" />
<path d="M6704,5598 L7394,5108" stroke="blue" stroke-width="2" />
<path d="M5264,6519 L7192,6603" stroke="blue" stroke-width="2" />
<path d="M4556,1493 L7921,4088" stroke="blue" stroke-width="2" />
<path d="M6427,5194 L1898,6298" stroke="blue" stroke-width="2" />
<path d="M1279,2784 L3888,8056" stroke="blue" stroke-width="2" />
<path d="M1009,637 L7620,1501" stroke="blue" stroke-width="2" />
<path d="M4076,6099 L4852,6167" stroke="blue" stroke-width="2" />
<path d="M3571,5545 L3245,8967" stroke="blue" stroke-width="2" />
<path d="M1652,8670 L3164,2204" stroke="blue" stroke-width="2" />
<path d="M4544,8121 L7196,420" stroke="blue" stroke-width="2" />
<path d="M5611,4361 L3610,1682" stroke="blue" stroke-width="2" />
<path d="M7666,2710 L2983,9166" stroke="blue" stroke-width="2" />
<path d="M1812,561 L2959,7252" stroke="blue" stroke-width="2" />
<path d="M6195,1733 L3015,4174" stroke="blue" stroke-width="2" />
<path d="M4234,5669 L5758,8903" stroke="blue" stroke-width="2" />
<path d="M3423,3770 L2232,7416" stroke="blue" stroke-width="2" />
<path d="M6248,5909 L7955,19" stroke="blue" stroke-width="2" />
<path d="M5385,9181 L5714,760" stroke="blue" stroke-width="2" />
<path d="M5356,6297 L7817,1486" stroke="blue" stroke-width="2" />
<path d="M2868,7740 L889,1731" stroke="blue" stroke-width="2" />
<path d="M3970,5664 L2120,2266" stroke="blue" stroke-width="2" />
<path d="M7722,235 L2838,8965" stroke="blue" stroke-width="2" />
<path d="M7522,5873 L4691,2853" stroke="blue" stroke-width="2" />
<path d="M3707,5248 L7150,380" stroke="blue" stroke-width="2" />
<path d="M420,353 L1141,4361" stroke="blue" stroke-width="2" />
<path d="M7521,8048 L22,4766" stroke="blue" stroke-width="2" />
<path d="M3241,6922 L3743,247" stroke="blue" stroke-width="2" />
<path d="M1384,8421 L1111,7423" stroke="blue" stroke-width="2" />
<path d="M3678,1767 L3997,659" stroke="blue" stroke-width="2" />
<path d="M2558,7273 L4022,2367" stroke="blue" stroke-width="2" />
<path d="M7320,6667 L4976,8924" stroke="blue" stroke-width="2" />
<path d="M8011,1574 L653,189" stroke="blue" stroke-width="2" />
<path d="M5620,1225 L5002,688" stroke="blue" stroke-width="2" />
<path d="M5408,7120 L3999,295" stroke="blue" stroke-width="2" />
<path d="M2070,2538 L1087,4413" stroke="blue" stroke-width="2" />
<path d="M4179,1097 L7134,6145" stroke="blue" stroke-width="2" />
<path d="M1020,8815 L1988,1942" stroke="blue" stroke-width="2" />
<path d="M715,703 L5534,1533" stroke="blue" stroke-width="2" />
<path d="M5620,781 L1701,909" stroke="blue" stroke-width="2" />
<path d="M4729,5115 L889,7781" stroke="blue" stroke-width="2" />
<path d="M6699,7054 L6462,7249" stroke="blue" stroke-width="2" />
<path d="M7354,2090 L2639,1219" stroke="blue" stroke-width="2" />
<path d="M4378,2719 L7193,964" stroke="blue" stroke-width="2" />
<path d="M3423,6689 L4635,3662" stroke="blue" stroke-width="2" />
<path d="M2798,5629 L4503,193" stroke="blue" stroke-width="2" />
<path d="M7231,3194 L6955,8531" stroke="blue" stroke-width="2" />
<path d="M4122,3775 L1360,4158" stroke="blue" stroke-width="2" />
<path d="M5832,1127 L937,5712" stroke="blue" stroke-width="2" />
<path d="M3946,6643 L5499,311" stroke="blue" stroke-width="2" />
<path d="M1802,9105 L3213,7182" stroke="blue" stroke-width="2" />
<path d="M2264,4654 L3035,7289" stroke="blue" stroke-width="2" />
<path d="M7622,1572 L7140,2656" stroke="blue" stroke-width="2" />
<path d="M323,5163 L6310,706" stroke="blue" stroke-width="2" />
<path d="M5906,5110 L1815,611" stroke="blue" stroke-width="2" />
<path d="M1782,105 L7164,228" stroke="blue" stroke-width="2" />
<path d="M2130,20 L3417,3528" stroke="blue" stroke-width="2" />
<path d="M7639,132 L1146,2576" stroke="blue" stroke-width="2" />
<path d="M5440,2667 L4622,3025" stroke="blue" stroke-width="2" />
<path d="M3776,6328 L3867,2696" stroke="blue" stroke-width="2" />
<path d="M1435,8428 L1617,5319" stroke="blue" stroke-width="2" />
<path d="M462,8387 L363,8759" stroke="blue" stroke-width="2" />
<path d="M6379,6175 L3278,4170" stroke="blue" stroke-width="2" />
<path d="M5251,2243 L1886,5344" stroke="blue" stroke-width="2" />
<path d="M3205,7312 L2993,3253" stroke="blue" stroke-width="2" />
<path d="M2122,7159 L3419,4788" stroke="blue" stroke-width="2" />
<path d="M5291,1841 L212,7107" stroke="blue" stroke-width="2" />
<path d="M4948,463 L1448,3547" stroke="blue" stroke-width="2" />
<path d="M7937,1858 L6030,7205" stroke="blue" stroke-width="2" />
<path d="M2183,588 L4126,1176" stroke="blue" stroke-width="2" />
<path d="M3272,8655 L543,6019" stroke="blue" stroke-width="2" />
<path d="M6640,9248 L329,5489" stroke="blue" stroke-width="2" />
<path d="M3573,1594 L1248,5579" stroke="blue" stroke-width="2" />
<path d="M708,4671 L25,7247" stroke="blue" stroke-width="2" />
<path d="M3569,2557 L3355,8728" stroke="blue" stroke-width="2" />
<path d="M4375,121 L2381,622" stroke="blue" stroke-width="2" />
<path d="M7812,8482 L348,8086" stroke="blue" stroke-width="2" />
<path d="M0,0 L8036,0" stroke="red" stroke-width="10" />
<path d="M8036,0 L8036,9331" stroke="red" stroke-width="10" />
<path d="M0,9331 L8036,9331" stroke="red" stroke-width="10" />
<path d="M0,9331 L0,0" stroke="red" stroke-width="10" />
</svg>