<?xml version="1.0" encoding="UTF-8"?>
<svg xmlns="http://www.w3.org/2000/svg" xmlns:xlink="http://www.w3.org/1999/xlink"
     width="10000" height="10000" viewBox="0 0 10000 10000">
<defs>
</defs>
<path d="M1751,4053 L2481,99" stroke="blue" stroke-width="2" />
<path d="M4631,3547 L160,2878" stroke="blue" stroke-width="2" />
<path d="M3701,1755 L3308,3020" stroke="blue" stroke-width="2" />
<path d="M4939,1849 L1127,196" stroke="blue" stroke-width="2" />
<path d="M3371,2333 L1803,273" stroke="blue" stroke-width="2" />
<path d="M526,4403 L3874,2800" stroke="blue" stroke-width="2" />
<path d="M5047,1607 L5744,1532" stroke="blue" stroke-width="2" />
<path d="M1878,3645 L2907,2572" stroke="blue" stroke-width="2" />
<path d="M636,2850 L1835,411" stroke="blue" stroke-width="2" />
<path d="M2813,2551 L6006,3580" stroke="blue" stroke-width="2" />
<path d="M3062,2542 L6333,2243" stroke="blue" stroke-width="2" />
<path d="M1162,3515 L6236,1375" stroke="blue" stroke-width="2" />
<path d="M5193,929 L1865,252" stroke="blue" stroke-width="2" />
<path d="M6159,261 L4563,657" stroke="blue" stroke-width="2" />
<path d="M2711,149 L6130,384" stroke="blue" stroke-width="2" />
<path d="M2488,633 L1908,4045" stroke="blue" stroke-width="2" />
<path d="M1746,3716 L1213,2890" stroke="blue" stroke-width="2" />
<path d="M5678,4231 L1648,3760" stroke="blue" stroke-width="2" />
<path d="M1224,1708 L2164,2244" stroke="blue" stroke-width="2" />
<path d="M5251,3653 L76,2943" stroke="blue" stroke-width="2" />
<path d="M257,714 L2941,3895" stroke="blue" stroke-width="2" />
<path d="M885,3169 L2506,3275" stroke="blue" stroke-width="2" />
<path d="M6175,641 L3707,304" stroke="blue" stroke-width="2" />
<path d="M318,4093 L6019,2110" stroke="blue" stroke-width="2" />
<path d="M6111,2357 L912,349" stroke="blue" stroke-width="2" />
<path d="M1689,575 L3044,3072" stroke="blue" stroke-width="2" />
<path d="M4107,2834 L3387,880" stroke="blue" stroke-width="2" />
<path d="M130,2422 L772,3132" stroke="blue" stroke-width="2" />
<path d="M3808,3628 L1932,704" stroke="blue" stroke-width="2" />
<path d="M4227,2691 L3749,3177" stroke="blue" stroke-width="2" />
<path d="M4765,2614 L3804,1935" stroke="blue" stroke-width="2" />
<path d="M4066,1215 L5259,4446" stroke="blue" stroke-width="2" />
<path d="M4795,259 L4425,2569" stroke="blue" stroke-width="2" />
<path d="M5785,3075 L1504,977" stroke="blue" stroke-width="2" />
<path d="M155,4248 L2721,1127" stroke="blue" stroke-width="2" />
<path d="M3337,3286 L5175,4351" stroke="blue" stroke-width="2" />
<path d="M421,3073 L4310,4461" stroke="blue" stroke-width="2" />
<path d="M2040,1665 L5129,3019" stroke="blue" stroke-width="2" />
<path d="M4222,4384 L2274,445" stroke="blue" stroke-width="2" />
<path d="M4905,1296 L3854,3586" stroke="blue" stroke-width="2" />
<path d="M5550,4406 L4227,4312" stroke="blue" stroke-width="2" />
<path d="M870,4298 L1224,3206" stroke="blue" stroke-width="2" />
<path d="M1448,3796 L5055,680" stroke="blue" stroke-width="2" />
<path d="M1028,1903 L2018,3128" stroke="blue" stroke-width="2" />
<path d="M2305,575 L1216,3870" stroke="blue" stroke-width="2" />
<path d="M1344,1627 L4531,662" stroke="blue" stroke-width="2" />
<path d="M2436,81 L734,1779" stroke="blue" stroke-width="2" />
<path d="M2178,2710 L5383,3924" stroke="blue" stroke-width="2" />
<path d="M3574,368 L1545,1112" stroke="blue" stroke-width="2" />
<path d="M4628,948 L3033,1336" stroke="blue" stroke-width="2" />
<path d="M3767,2464 L498,2397" stroke="blue" stroke-width="2" />
<path d="M391,2842 L2998,67" stroke="blue" stroke-width="2" />
<path d="M3488,941 L5659,2255" stroke="blue" stroke-width="2" />
<path d="M3226,3006 L2847,131" stroke="blue" stroke-width="2" />
<path d="M2657,875 L400,1173" stroke="blue" stroke-width="2" />
<path d="M274,1054 L673,1272" stroke="blue" stroke-width="2" />
<path d="M5938,3169 L863,4484" stroke="blue" stroke-width="2" />
<path d="M1984,896 L3859,849" stroke="blue" stroke-width="2" />
<path d="M5694,2595 L1371,4316" stroke="blue" stroke-width="2" />
<path d="M1229,2697 L5209,1660" stroke="blue" stroke-width="2" />
<path d="M4094,3411 L2557,3042" stroke="blue" stroke-width="2" />
<path d="M3697,1071 L6309,1274" stroke="blue" stroke-width="2" />
<path d="M159,2479 L5311,2374" stroke="blue" stroke-width="2" />
<path d="M2913,1217 L4765,1667" stroke="blue" stroke-width="2" />
<path d="M3010,3278 L1511,1402" stroke="blue" stroke-width="2" />
<path d="M5738,2699 L4586,1310" stroke="blue" stroke-width="2" />
<path d="M4974,1903 L2407,1221" stroke="blue" stroke-width="2" />
<path d="M1919,3554 L800,3541" stroke="blue" stroke-width="2" />
<path d="M5940,1400 L996,615" stroke="blue" stroke-width="2" />
<path d="M2782,2457 L5169,1383" stroke="blue" stroke-width="2" />
<path d="M856,2535 L4638,2864" stroke="blue" stroke-width="2" />
<path d="M5650,4065 L1878,2522" stroke="blue" stroke-width="2" />
<path d="M340,2908 L6011,1420" stroke="blue" stroke-width="2" />
<path d="M475,3814 L6318,3412" stroke="blue" stroke-width="2" />
<path d="M1540,699 L5292,850" stroke="blue" stroke-width="2" />
<path d="M3964,2224 L6287,1252" stroke="blue" stroke-width="2" />
<path d="M3647,410 L547,1227" stroke="blue" stroke-width="2" />
<path d="M601,3714 L4274,3291" stroke="blue" stroke-width="2" />
<path d="M2119,1817 L3908,3847" stroke="blue" stroke-width="2" />
<path d="M4391,1145 L2620,2840" stroke="blue" stroke-width="2" />
<path d="M5160,1202 L4464,849" stroke="blue" stroke-width="2" />
<path d="M2203,85 L4469,4073" stroke="blue" stroke-width="2" />
<path d="M1775,3322 L1384,543" stroke="blue" stroke-width="2" />
<path d="M4464,1737 L1496,2146" stroke="blue" stroke-width="2" />
<path d="M5497,2678 L3653,3630" stroke="blue" stroke-width="2" />
<path d="M4353,32 L4389,620" stroke="blue" stroke-width="2" />
<path d="M2439,78 L5766,4192" stroke="blue" stroke-width="2" />
<path d="M1945,2198 L2355,1104" stroke="blue" stroke-width="2" />
<path d="M4822,2598 L5165,3773" stroke="blue" stroke-width="2" />
<path d="M5602,2411 L436,735" stroke="blue" stroke-width="2" />
<path d="M2092,1467 L3963,1860" stroke="blue" stroke-width="2" />
<path d="M3854,3506 L1604,872" stroke="blue" stroke-width="2" />
<path d="M4176,4193 L3119,1922" stroke="blue" stroke-width="2" />
<path d="M4684,2877 L1754,373" stroke="blue" stroke-width="2" />
<path d="M4774,3798 L882,3044" stroke="blue" stroke-width="2" />
<path d="M560,2596 L1755,3343" stroke="blue" stroke-width="2" />
<path d="M1122,716 L4379,3054" stroke="blue" stroke-width="2" />
<path d="M3706,2631 L4812,3115" stroke="blue" stroke-width="2" />
<path d="M1360,1332 L3095,624" stroke="blue" stroke-width="2" />
<path d="M1847,1244 L5254,1653" stroke="blue" stroke-width="2" />
<path d="M5470,2694 L5756,3322" stroke="blue" stroke-width="2" />
<path d="M3638,541 L3364,800" stroke="blue" stroke-width="2" />
<path d="M2523,2271 L2815,741" stroke="blue" stroke-width="2" />
<path d="M6246,2667 L75,1550" stroke="blue" stroke-width="2" />
<path d="M6233,970 L2099,1657" stroke="blue" stroke-width="2" />
<path d="M2093,4325 L3833,2108" stroke="blue" stroke-width="2" />
<path d="M5081,1014 L2813,3163" stroke="blue" stroke-width="2" />
<path d="M3830,2429 L1048,1035" stroke="blue" stroke-width="2" />
<path d="M3885,2494 L5974,504" stroke="blue" stroke-width="2" />
<path d="M3958,4394 L2650,3255" stroke="blue" stroke-width="2" />
<path d="M3288,165 L584,2191" stroke="blue" stroke-width="2" />
<path d="M4502,2912 L4542,1087" stroke="blue" stroke-width="2" />
<path d="M3163,2946 L2620,1910" stroke="blue" stroke-width="2" />
<path d="M5637,3536 L308,1996" stroke="blue" stroke-width="2" />
<path d="M2269,2899 L1603,2835" stroke="blue" stroke-width="2" />
<path d="M657,4098 L6306,1044" stroke="blue" stroke-width="2" />
<path d="M2369,1085 L798,1758" stroke="blue" stroke-width="2" />
<path d="M2429,4318 L4586,2740" stroke="blue" stroke-width="2" />
<path d="M1104,1260 L5851,1403" stroke="blue" stroke-width="2" />
<path d="M430,3854 L1751,1585" stroke="blue" stroke-width="2" />
<path d="M2800,1844 L1496,1046" stroke="blue" stroke-width="2" />
<path d="M3367,4348 L3258,3233" stroke="blue" stroke-width="2" />
<path d="M3840,3841 L4531,4451" stroke="blue" stroke-width="2" />
<path d="M2259,3571 L1238,4106" stroke="blue" stroke-width="2" />
<path d="M2978,1009 L5642,2274" stroke="blue" stroke-width="2" />
<path d="M5472,3986 L5041,3582" stroke="blue" stroke-width="2" />
<path d="M3198,275 L2444,3295" stroke="blue" stroke-width="2" />
<path d="M3884,77 L4832,2802" stroke="blue" stroke-width="2" />
<path d="M4058,1971 L2064,2777" stroke="blue" stroke-width="2" />
<path d="M3968,3501 L625,3260" stroke="blue" stroke-width="2" />
<path d="M5347,3874 L773,3071" stroke="blue" stroke-width="2" />
<path d="M864,3007 L4951,3901" stroke="blue" stroke-width="2" />
<path d="M4633,2902 L4482,3457" stroke="blue" stroke-width="2" />
<path d="M4508,2492 L2078,908" stroke="blue" stroke-width="2" />
<path d="M3651,1828 L4106,386" stroke="blue" stroke-width="2" />
<path d="M3286,1439 L5092,705" stroke="blue" stroke-width="2" />
<path d="M463,1619 L4734,2956" stroke="blue" stroke-width="2" />
<path d="M1716,2026 L2867,360" stroke="blue" stroke-width="2" />
<path d="M3172,4186 L2422,3243" stroke="blue" stroke-width="2" />
<path d="M2233,1248 L3835,2266" stroke="blue" stroke-width="2" />
<path d="M4445,1393 L2775,3763" stroke="blue" stroke-width="2" />
<path d="M3992,1921 L4033,4223" stroke="blue" stroke-width="2" />
<path d="M3920,1782 L432,1200" stroke="blue" stroke-width="2" />
<path d="M2508,1055 L3589,3683" stroke="blue" stroke-width="2" />
<path d="M1556,2934 L5141,4270" stroke="blue" stroke-width="2" />
<path d="M2403,3858 L109,3855" stroke="blue" stroke-width="2" />
<path d="M3876,702 L6026,1323" stroke="blue" stroke-width="2" />
<path d="M1782,29 L3292,3770" stroke="blue" stroke-width="2" />
<path d="M5952,1546 L4408,1975" stroke="blue" stroke-width="2" />
<path d="M5535,769 L536,3580" stroke="blue" stroke-width="2" />
<path d="M4743,1192 L5913,847" stroke="blue" stroke-width="2" />
<path d="M3343,2224 L1876,1071" stroke="blue" stroke-width="2" />
<path d="M5006,1742 L444,3726" stroke="blue" stroke-width="2" />
<path d="M2568,3721 L4077,2013" stroke="blue" stroke-width="2" />
<path d="M5000,3772 L545,2476" stroke="blue" stroke-width="2" />
<path d="M2338,2455 L2197,3851" stroke="blue" stroke-width="2" />
<path d="M3057,3947 L5952,3081" stroke="blue" stroke-width="2" />
<path d="M4786,2273 L1788,3770" stroke="blue" stroke-width="2" />
<path d="M2037,3251 L3011,2608" stroke="blue" stroke-width="2" />
<path d="M4071,2226 L5036,2051" stroke="blue" stroke-width="2" />
<path d="M4463,3040 L3934,3793" stroke="blue" stroke-width="2" />
<path d="M107,4381 L4024,1790" stroke="blue" stroke-width="2" />
<path d="M5313,988 L973,3805" stroke="blue" stroke-width="2" />
<path d="M565,678 L1164,2415" stroke="blue" stroke-width="2" />
<path d="M1212,1558 L4717,3094" stroke="blue" stroke-width="2" />
<path d="M3266,3112 L216,1228" stroke="blue" stroke-width="2" />
<path d="M6357,2541 L3297,2417" stroke="blue" stroke-width="2" />
<path d="M3363,1814 L3592,2890" stroke="blue" stroke-width="2" />
<path d="M1692,2690 L454,254" stroke="blue" stroke-width="2" />
<path d="M4421,2398 L2706,237" stroke="blue" stroke-width="2" />
<path d="M3077,2117 L6274,3477" stroke="blue" stroke-width="2" />
<path d="M4164,4199 L5591,3328" stroke="blue" stroke-width="2" />
<path d="M4732,4028 L2705,1304" stroke="blue" stroke-width="2" />
<path d="M6166,1609 L6107,2712" stroke="blue" stroke-width="2" />
<path d="M1207,2224 L1280,2680" stroke="blue" stroke-width="2" />
<path d="M4633,2154 L3692,2889" stroke="blue" stroke-width="2" />
<path d="M3659,3373 L2411,660" stroke="blue" stroke-width="2" />
<path d="M4742,4083 L5457,2441" stroke="blue" stroke-width="2" />
<path d="M533,1716 L3178,1478" stroke="blue" stroke-width="2" />
<path d="M3037,2134 L2635,2737" stroke="blue" stroke-width="2" />
<path d="M571,875 L5507,3665" stroke="blue" stroke-width="2" />
<path d="M2184,836 L1233,2094" stroke="blue" stroke-width="2" />
<path d="M1312,1661 L5248,1988" stroke="blue" stroke-width="2" />
<path d="M4401,2828 L6324,2067" stroke="blue" stroke-width="2" />
<path d="M4963,426 L4026,3391" stroke="blue" stroke-width="2" />
<path d="M2484,4353 L3659,3419" stroke="blue" stroke-width="2" />
<path d="M5877,50 L2423,4360" stroke="blue" stroke-width="2" />
<path d="M4602,574 L629,915" stroke="blue" stroke-width="2" />
<path d="M1947,374 L479,681" stroke="blue" stroke-width="2" />
<path d="M4798,3551 L4051,3810" stroke="blue" stroke-width="2" />
<path d="M1968,3741 L2829,1999" stroke="blue" stroke-width="2" />
<path d="M1875,273 L6307,2336" stroke="blue" stroke-width="2" />
<path d="M4782,1226 L768,964" stroke="blue" stroke-width="2" />
<path d="M2563,1926 L3924,623" stroke="blue" stroke-width="2" />
<path d="M1647,1440 L1450,3022" stroke="blue" stroke-width="2" />
<path d="M4559,4300 L3997,1692" stroke="blue" stroke-width="2" />
<path d="M4334,2339 L3802,3174" stroke="blue" stroke-width="2" />
<path d="M4306,4012 L1147,347" stroke="blue" stroke-width="2" />
<path d="M3299,47 L1541,3054" stroke="blue" stroke-width="2" />
<path d="M2042,676 L6022,1437" stroke="blue" stroke-width="2" />
<path d="M850,2314 L4871,3103" stroke="blue" stroke-width="2" />
<path d="M2370,1250 L1330,1135" stroke="blue" stroke-width="2" />
<path d="M4144,1239 L3924,3217" stroke="blue" stroke-width="2" />
<path d="M4667,124 L5092,2267" stroke="blue" stroke-width="2" />
<path d="M3224,2467 L2837,4307" stroke="blue" stroke-width="2" />
<path d="M2420,4239 L6066,1356" stroke="blue" stroke-width="2" />
<path d="M1040,475 L2231,4175" stroke="blue" stroke-width="2" />
<path d="M1018,1307 L4,724" stroke="blue" stroke-width="2" />
<path d="M5124,1789 L3014,840" stroke="blue" stroke-width="2" />
<path d="M2124,1338 L2547,1456" stroke="blue" stroke-width="2" />
<path d="M5166,4281 L2339,3833" stroke="blue" stroke-width="2" />
<path d="M5725,3035 L5056,2320" stroke="blue" stroke-width="2" />
<path d="M2346,3516 L5141,3879" stroke="blue" stroke-width="2" />
<path d="M1979,3820 L5028,1655" stroke="blue" stroke-width="2" />
<path d="M5934,3576 L3009,3545" stroke="blue" stroke-width="2" />
<path d="M1040,2384 L5533,2890" stroke="blue" stroke-width="2" />
<path d="M6306,4069 L3165,2438" stroke="blue" stroke-width="2" />
<path d="M3353,3044 L5272,2427" stroke="blue" stroke-width="2" />
<path d="M66,4135 L5389,1035" stroke="blue" stroke-width="2" />
<path d="M2511,2785 L1853,3156" stroke="blue" stroke-width="2" />
<path d="M5785,1094 L1213,2961" stroke="blue" stroke-width="2" />
<path d="M5035,1392 L4161,4155" stroke="blue" stroke-width="2" />
<path d="M2058,1674 L1348,990" stroke="blue" stroke-width="2" />
<path d="M549,347 L1965,3337" stroke="blue" stroke-width="2" />
<path d="M2432,3753 L2506,3818" stroke="blue" stroke-width="2" />
<path d="M6038,4324 L824,1123" stroke="blue" stroke-width="2" />
<path d="M3280,1008 L5283,85" stroke="blue" stroke-width="2" />
<path d="M2689,570 L4008,589" stroke="blue" stroke-width="2" />
<path d="M2050,2698 L3974,1638" stroke="blue" stroke-width="2" />
<path d="M5554,2866 L5456,3971" stroke="blue" stroke-width="2" />
<path d="M4650,3385 L1897,2892" stroke="blue" stroke-width="2" />
<path d="M5204,3477 L1434,594" stroke="blue" stroke-width="2" />
<path d="M6340,3215 L1406,3670" stroke="blue" stroke-width="2" />
<path d="M864,3076 L2199,2006" stroke="blue" stroke-width="2" />
<path d="M6355,3936 L4388,1144" stroke="blue" stroke-width="2" />
<path d="M2229,3443 L2054,290" stroke="blue" stroke-width="2" />
<path d="M0,0 L6381,0" stroke="red" stroke-width="10" />
<path d="M6381,0 L6381,4491" stroke="red" stroke-width="10" />
<path d="M0,4491 L6381,4491" stroke="red" stroke-width="10" />
<path d="M0,4491 L0,0" stroke="red" stroke-width="10" />
</svg>