<?xml version="1.0" encoding="UTF-8"?>
<svg xmlns="http://www.w3.org/2000/svg" xmlns:xlink="http://www.w3.org/1999/xlink"
     width="10000" height="10000" viewBox="0 0 10000 10000">
<defs>
</defs>
<path d="M3191,2243 L678,11" stroke="blue" stroke-width="2" />
<path d="M3669,3720 L2076,1483" stroke="blue" stroke-width="2" />
<path d="M1650,541 L1308,1566" stroke="blue" stroke-width="2" />
<path d="M3569,2862 L3763,1356" stroke="blue" stroke-width="2" />
<path d="M3113,3256 L3395,1236" stroke="blue" stroke-width="2" />
<path d="M3762,548 L2728,612" stroke="blue" stroke-width="2" />
<path d="M2694,3359 L38,170" stroke="blue" stroke-width="2" />
<path d="M3824,3224 L2682,330" stroke="blue" stroke-width="2" />
<path d="M57,1989 L2734,357" stroke="blue" stroke-width="2" />
<path d="M394,2276 L395,1924" stroke="blue" stroke-width="2" />
<path d="M524,2931 L1420,3575" stroke="blue" stroke-width="2" />
<path d="M3636,2401 L2188,2698" stroke="blue" stroke-width="2" />
<path d="M1055,1865 L3064,1502" stroke="blue" stroke-width="2" />
<path d="M1368,2420 L400,2565" stroke="blue" stroke-width="2" />
<path d="M367,733 L1120,3434" stroke="blue" stroke-width="2" />
<path d="M127,3028 L2389,1278" stroke="blue" stroke-width="2" />
<path d="M2964,2365 L2611,3089" stroke="blue" stroke-width="2" />
<path d="M1272,683 L927,2097" stroke="blue" stroke-width="2" />
<path d="M2859,3377 L3666,833" stroke="blue" stroke-width="2" />
<path d="M3110,2345 L1004,3067" stroke="blue" stroke-width="2" />
<path d="M1160,521 L3506,61" stroke="blue" stroke-width="2" />
<path d="M1711,3340 L2563,512" stroke="blue" stroke-width="2" />
<path d="M4262,2466 L2264,1027" stroke="blue" stroke-width="2" />
<path d="M4101,3127 L656,3364" stroke="blue" stroke-width="2" />
<path d="M3436,2737 L3956,2010" stroke="blue" stroke-width="2" />
<path d="M877,2373 L4337,2585" stroke="blue" stroke-width="2" />
<path d="M498,1973 L2451,1686" stroke="blue" stroke-width="2" />
<path d="M105,2065 L174,564" stroke="blue" stroke-width="2" />
<path d="M282,2827 L4039,2232" stroke="blue" stroke-width="2" />
<path d="M214,1437 L471,2379" stroke="blue" stroke-width="2" />
<path d="M2983,366 L1048,743" stroke="blue" stroke-width="2" />
<path d="M1739,3668 L648,1534" stroke="blue" stroke-width="2" />
<path d="M161,1093 L215,2963" stroke="blue" stroke-width="2" />
<path d="M1692,2525 L2596,1889" stroke="blue" stroke-width="2" />
<path d="M767,3460 L3290,266" stroke="blue" stroke-width="2" />
<path d="M2599,3421 L1406,1014" stroke="blue" stroke-width="2" />
<path d="M3984,3293 L331,3430" stroke="blue" stroke-width="2" />
<path d="M2892,2614 L2077,1124" stroke="blue" stroke-width="2" />
<path d="M2334,2271 L2550,3630" stroke="blue" stroke-width="2" />
<path d="M4345,1930 L1768,2345" stroke="blue" stroke-width="2" />
<path d="M4258,1105 L4024,3309" stroke="blue" stroke-width="2" />
<path d="M1517,1008 L888,1131" stroke="blue" stroke-width="2" />
<path d="M3610,3150 L3605,2802" stroke="blue" stroke-width="2" />
<path d="M2948,3075 L1177,2607" stroke="blue" stroke-width="2" />
<path d="M1282,2180 L3162,183" stroke="blue" stroke-width="2" />
<path d="M4134,2224 L3042,1786" stroke="blue" stroke-width="2" />
<path d="M547,575 L656,2359" stroke="blue" stroke-width="2" />
<path d="M1982,37 L1024,2688" stroke="blue" stroke-width="2" />
<path d="M446,735 L3524,121" stroke="blue" stroke-width="2" />
<path d="M4228,1057 L3935,2806" stroke="blue" stroke-width="2" />
<path d="M2256,1794 L2588,1554" stroke="blue" stroke-width="2" />
<path d="M3149,498 L1023,970" stroke="blue" stroke-width="2" />
<path d="M461,2568 L2611,3653" stroke="blue" stroke-width="2" />
<path d="M3602,2115 L159,1582" stroke="blue" stroke-width="2" />
<path d="M377,1511 L3306,212" stroke="blue" stroke-width="2" />
<path d="M2848,2946 L3628,2360" stroke="blue" stroke-width="2" />
<path d="M4226,973 L4014,2980" stroke="blue" stroke-width="2" />
<path d="M2261,434 L1801,3410" stroke="blue" stroke-width="2" />
<path d="M644,3606 L83,224" stroke="blue" stroke-width="2" />
<path d="M1116,2165 L4150,125" stroke="blue" stroke-width="2" />
<path d="M4111,1545 L800,3672" stroke="blue" stroke-width="2" />
<path d="M957,2957 L3360,1010" stroke="blue" stroke-width="2" />
<path d="M1011,2687 L2035,3375" stroke="blue" stroke-width="2" />
<path d="M2247,1338 L1154,330" stroke="blue" stroke-width="2" />
<path d="M1426,1326 L4056,3603" stroke="blue" stroke-width="2" />
<path d="M3491,116 L2861,1335" stroke="blue" stroke-width="2" />
<path d="M536,854 L3228,2691" stroke="blue" stroke-width="2" />
<path d="M673,1011 L3262,1864" stroke="blue" stroke-width="2" />
<path d="M3410,1014 L270,1275" stroke="blue" stroke-width="2" />
<path d="M3535,1261 L1840,629" stroke="blue" stroke-width="2" />
<path d="M1454,1804 L2378,3255" stroke="blue" stroke-width="2" />
<path d="M3207,1041 L543,1849" stroke="blue" stroke-width="2" />
<path d="M3788,2395 L280,3539" stroke="blue" stroke-width="2" />
<path d="M2306,76 L1476,1072" stroke="blue" stroke-width="2" />
<path d="M3144,1677 L3821,1273" stroke="blue" stroke-width="2" />
<path d="M4119,281 L2015,268" stroke="blue" stroke-width="2" />
<path d="M3964,2778 L3909,2554" stroke="blue" stroke-width="2" />
<path d="M3864,504 L350,797" stroke="blue" stroke-width="2" />
<path d="M1789,3358 L713,2234" stroke="blue" stroke-width="2" />
<path d="M3617,1878 L849,558" stroke="blue" stroke-width="2" />
<path d="M2367,2071 L777,3557" stroke="blue" stroke-width="2" />
<path d="M932,822 L3123,3275" stroke="blue" stroke-width="2" />
<path d="M655,3510 L125,1731" stroke="blue" stroke-width="2" />
<path d="M1304,205 L3616,873" stroke="blue" stroke-width="2" />
<path d="M1278,3338 L2392,1276" stroke="blue" stroke-width="2" />
<path d="M728,2204 L3269,1773" stroke="blue" stroke-width="2" />
<path d="M838,1633 L68,1848" stroke="blue" stroke-width="2" />
<path d="M1650,181 L3374,318" stroke="blue" stroke-width="2" />
<path d="M3321,485 L4126,1445" stroke="blue" stroke-width="2" />
<path d="M3699,3078 L1360,647" stroke="blue" stroke-width="2" />
<path d="M981,2070 L2356,2539" stroke="blue" stroke-width="2" />
<path d="M601,1449 L1782,1730" stroke="blue" stroke-width="2" />
<path d="M9,3458 L2896,3683" stroke="blue" stroke-width="2" />
<path d="M3626,1987 L1202,123" stroke="blue" stroke-width="2" />
<path d="M3462,3025 L4183,200" stroke="blue" stroke-width="2" />
<path d="M2887,1327 L1731,187" stroke="blue" stroke-width="2" />
<path d="M2003,1420 L2355,2628" stroke="blue" stroke-width="2" />
<path d="M1127,1076 L3364,191" stroke="blue" stroke-width="2" />
<path d="M1110,1576 L1353,244" stroke="blue" stroke-width="2" />
<path d="M2875,1419 L3052,2914" stroke="blue" stroke-width="2" />
<path d="M728,963 L3723,2045" stroke="blue" stroke-width="2" />
<path d="M3335,1971 L2037,2273" stroke="blue" stroke-width="2" />
<path d="M2570,2469 L1142,619" stroke="blue" stroke-width="2" />
<path d="M4340,3653 L2855,1033" stroke="blue" stroke-width="2" />
<path d="M2874,1348 L2855,932" stroke="blue" stroke-width="2" />
<path d="M3765,3172 L3843,2526" stroke="blue" stroke-width="2" />
<path d="M486,2880 L2482,2151" stroke="blue" stroke-width="2" />
<path d="M1907,395 L1380,0" stroke="blue" stroke-width="2" />
<path d="M465,2729 L2157,3112" stroke="blue" stroke-width="2" />
<path d="M1516,463 L44,1571" stroke="blue" stroke-width="2" />
<path d="M1732,1803 L2316,1125" stroke="blue" stroke-width="2" />
<path d="M2798,1954 L2265,279" stroke="blue" stroke-width="2" />
<path d="M1069,1181 L4180,3433" stroke="blue" stroke-width="2" />
<path d="M3924,2109 L3234,3255" stroke="blue" stroke-width="2" />
<path d="M8,2617 L905,1390" stroke="blue" stroke-width="2" />
<path d="M1343,2998 L2016,3720" stroke="blue" stroke-width="2" />
<path d="M585,2113 L2990,356" stroke="blue" stroke-width="2" />
<path d="M3466,1704 L54,3641" stroke="blue" stroke-width="2" />
<path d="M3243,3337 L631,735" stroke="blue" stroke-width="2" />
<path d="M4347,3403 L765,2107" stroke="blue" stroke-width="2" />
<path d="M3143,168 L873,1185" stroke="blue" stroke-width="2" />
<path d="M3929,1747 L2640,1135" stroke="blue" stroke-width="2" />
<path d="M535,815 L941,2166" stroke="blue" stroke-width="2" />
<path d="M3888,566 L55,1777" stroke="blue" stroke-width="2" />
<path d="M760,936 L4325,309" stroke="blue" stroke-width="2" />
<path d="M3903,1170 L3757,2128" stroke="blue" stroke-width="2" />
<path d="M240,844 L2341,3163" stroke="blue" stroke-width="2" />
<path d="M2919,2149 L378,1288" stroke="blue" stroke-width="2" />
<path d="M791,2368 L1654,333" stroke="blue" stroke-width="2" />
<path d="M2475,1675 L3951,1688" stroke="blue" stroke-width="2" />
<path d="M2898,1018 L3089,1759" stroke="blue" stroke-width="2" />
<path d="M1945,2765 L1685,590" stroke="blue" stroke-width="2" />
<path d="M2695,1473 L3264,602" stroke="blue" stroke-width="2" />
<path d="M488,713 L1964,2583" stroke="blue" stroke-width="2" />
<path d="M2679,1439 L4117,629" stroke="blue" stroke-width="2" />
<path d="M2719,3034 L1344,12" stroke="blue" stroke-width="2" />
<path d="M1464,1632 L314,306" stroke="blue" stroke-width="2" />
<path d="M3618,1830 L857,3497" stroke="blue" stroke-width="2" />
<path d="M551,1205 L3194,2515" stroke="blue" stroke-width="2" />
<path d="M1789,1866 L3130,3215" stroke="blue" stroke-width="2" />
<path d="M3660,2876 L843,188" stroke="blue" stroke-width="2" />
<path d="M942,2869 L3007,1916" stroke="blue" stroke-width="2" />
<path d="M1556,1405 L2104,378" stroke="blue" stroke-width="2" />
<path d="M2285,2524 L1147,1932" stroke="blue" stroke-width="2" />
<path d="M518,1713 L969,2184" stroke="blue" stroke-width="2" />
<path d="M715,726 L1715,3670" stroke="blue" stroke-width="2" />
<path d="M2312,1837 L1381,846" stroke="blue" stroke-width="2" />
<path d="M1592,2113 L2234,2234" stroke="blue" stroke-width="2" />
<path d="M1170,247 L841,1328" stroke="blue" stroke-width="2" />
<path d="M3972,547 L1325,2680" stroke="blue" stroke-width="2" />
<path d="M542,3732 L1090,2464" stroke="blue" stroke-width="2" />
<path d="M3738,1240 L1900,2112" stroke="blue" stroke-width="2" />
<path d="M4289,1092 L2940,888" stroke="blue" stroke-width="2" />
<path d="M3116,566 L4163,1221" stroke="blue" stroke-width="2" />
<path d="M418,395 L120,245" stroke="blue" stroke-width="2" />
<path d="M2589,987 L2292,759" stroke="blue" stroke-width="2" />
<path d="M2011,845 L1701,751" stroke="blue" stroke-width="2" />
<path d="M501,3268 L2289,3070" stroke="blue" stroke-width="2" />
<path d="M1945,3204 L3315,1283" stroke="blue" stroke-width="2" />
<path d="M3307,1713 L329,1844" stroke="blue" stroke-width="2" />
<path d="M1323,2387 L2748,3518" stroke="blue" stroke-width="2" />
<path d="M2592,2960 L2663,2708" stroke="blue" stroke-width="2" />
<path d="M2400,2115 L665,29" stroke="blue" stroke-width="2" />
<path d="M3814,3156 L3512,839" stroke="blue" stroke-width="2" />
<path d="M1944,2811 L3839,871" stroke="blue" stroke-width="2" />
<path d="M2219,2002 L768,1339" stroke="blue" stroke-width="2" />
<path d="M2509,664 L465,166" stroke="blue" stroke-width="2" />
<path d="M939,1540 L153,1309" stroke="blue" stroke-width="2" />
<path d="M1767,3136 L1670,1663" stroke="blue" stroke-width="2" />
<path d="M2898,3196 L2235,437" stroke="blue" stroke-width="2" />
<path d="M240,2722 L3965,2713" stroke="blue" stroke-width="2" />
<path d="M187,2786 L1576,1869" stroke="blue" stroke-width="2" />
<path d="M1764,3529 L543,269" stroke="blue" stroke-width="2" />
<path d="M3759,1887 L166,1641" stroke="blue" stroke-width="2" />
<path d="M3850,3537 L3682,2651" stroke="blue" stroke-width="2" />
<path d="M2230,443 L4034,2188" stroke="blue" stroke-width="2" />
<path d="M3112,617 L2381,2217" stroke="blue" stroke-width="2" />
<path d="M4208,2349 L630,3546" stroke="blue" stroke-width="2" />
<path d="M488,81 L1780,3378" stroke="blue" stroke-width="2" />
<path d="M4209,3467 L3077,1375" stroke="blue" stroke-width="2" />
<path d="M1289,1645 L895,1215" stroke="blue" stroke-width="2" />
<path d="M1225,2778 L1972,3268" stroke="blue" stroke-width="2" />
<path d="M2747,3335 L1753,2393" stroke="blue" stroke-width="2" />
<path d="M3411,962 L4164,525" stroke="blue" stroke-width="2" />
<path d="M3946,520 L1190,2468" stroke="blue" stroke-width="2" />
<path d="M2739,1211 L2980,1038" stroke="blue" stroke-width="2" />
<path d="M3359,709 L4079,3420" stroke="blue" stroke-width="2" />
<path d="M2117,3288 L2825,875" stroke="blue" stroke-width="2" />
<path d="M2686,2715 L3118,3120" stroke="blue" stroke-width="2" />
<path d="M807,3246 L2520,3174" stroke="blue" stroke-width="2" />
<path d="M2102,1172 L2249,1297" stroke="blue" stroke-width="2" />
<path d="M2525,3056 L2612,1394" stroke="blue" stroke-width="2" />
<path d="M1826,249 L2999,2571" stroke="blue" stroke-width="2" />
<path d="M3658,1753 L540,1207" stroke="blue" stroke-width="2" />
<path d="M1461,2941 L3397,820" stroke="blue" stroke-width="2" />
<path d="M4017,3514 L4041,119" stroke="blue" stroke-width="2" />
<path d="M4093,2474 L1698,2230" stroke="blue" stroke-width="2" />
<path d="M2882,3201 L651,1694" stroke="blue" stroke-width="2" />
<path d="M2802,42 L3160,256" stroke="blue" stroke-width="2" />
<path d="M3971,2055 L2909,1659" stroke="blue" stroke-width="2" />
<path d="M74,2479 L1525,2207" stroke="blue" stroke-width="2" />
<path d="M4089,731 L939,2070" stroke="blue" stroke-width="2" />
<path d="M395,1414 L188,929" stroke="blue" stroke-width="2" />
<path d="M4313,309 L4191,1492" stroke="blue" stroke-width="2" />
<path d="M379,728 L2981,2254" stroke="blue" stroke-width="2" />
<path d="M360,1275 L3424,2296" stroke="blue" stroke-width="2" />
<path d="M292,2754 L3453,1363" stroke="blue" stroke-width="2" />
<path d="M852,762 L914,3594" stroke="blue" stroke-width="2" />
<path d="M343,664 L524,2119" stroke="blue" stroke-width="2" />
<path d="M3257,2431 L1982,1337" stroke="blue" stroke-width="2" />
<path d="M3512,35 L2402,3247" stroke="blue" stroke-width="2" />
<path d="M2036,1498 L2452,3700" stroke="blue" stroke-width="2" />
<path d="M2326,1470 L2845,2728" stroke="blue" stroke-width="2" />
<path d="M3959,1517 L668,1666" stroke="blue" stroke-width="2" />
<path d="M3278,146 L2907,652" stroke="blue" stroke-width="2" />
<path d="M1899,272 L3775,3536" stroke="blue" stroke-width="2" />
<path d="M4126,498 L4295,2895" stroke="blue" stroke-width="2" />
<path d="M553,2040 L1786,1975" stroke="blue" stroke-width="2" />
<path d="M3060,2560 L4217,195" stroke="blue" stroke-width="2" />
<path d="M1599,695 L1662,1074" stroke="blue" stroke-width="2" />
<path d="M3613,3125 L2758,3179" stroke="blue" stroke-width="2" />
<path d="M1341,3448 L748,403" stroke="blue" stroke-width="2" />
<path d="M3757,617 L604,2486" stroke="blue" stroke-width="2" />
<path d="M455,394 L2664,2723" stroke="blue" stroke-width="2" />
<path d="M2359,3484 L2246,2591" stroke="blue" stroke-width="2" />
<path d="M2903,2102 L3102,1436" stroke="blue" stroke-width="2" />
<path d="M3646,1296 L3738,155" stroke="blue" stroke-width="2" />
<path d="M3697,507 L1542,2051" stroke="blue" stroke-width="2" />
<path d="M1090,346 L4181,2303" stroke="blue" stroke-width="2" />
<path d="M1372,761 L1103,491" stroke="blue" stroke-width="2" />
<path d="M582,2098 L2839,2249" stroke="blue" stroke-width="2" />
<path d="M3343,1113 L3769,2254" stroke="blue" stroke-width="2" />
<path d="M302,3651 L1841,338" stroke="blue" stroke-width="2" />
<path d="M816,2317 L2643,2890" stroke="blue" stroke-width="2" />
<path d="M1236,2281 L2527,1230" stroke="blue" stroke-width="2" />
<path d="M1482,17 L103,1432" stroke="blue" stroke-width="2" />
<path d="M3948,209 L1421,2256" stroke="blue" stroke-width="2" />
<path d="M1984,831 L2739,759" stroke="blue" stroke-width="2" />
<path d="M2701,363 L1179,2905" stroke="blue" stroke-width="2" />
<path d="M2777,395 L3643,2538" stroke="blue" stroke-width="2" />
<path d="M4092,1760 L932,1298" stroke="blue" stroke-width="2" />
<path d="M2317,1335 L1504,3202" stroke="blue" stroke-width="2" />
<path d="M3264,3698 L3964,1674" stroke="blue" stroke-width="2" />
<path d="M3503,3464 L213,1653" stroke="blue" stroke-width="2" />
<path d="M309,2135 L1494,3213" stroke="blue" stroke-width="2" />
<path d="M2136,109 L818,3132" stroke="blue" stroke-width="2" />
<path d="M1730,714 L1727,3109" stroke="blue" stroke-width="2" />
<path d="M2621,2698 L1637,3629" stroke="blue" stroke-width="2" />
<path d="M42,991 L327,3020" stroke="blue" stroke-width="2" />
<path d="M758,2918 L2289,1320" stroke="blue" stroke-width="2" />
<path d="M1242,1503 L1970,505" stroke="blue" stroke-width="2" />
<path d="M1271,3222 L1265,395" stroke="blue" stroke-width="2" />
<path d="M1464,1079 L1541,3468" stroke="blue" stroke-width="2" />
<path d="M3508,1548 L4196,3019" stroke="blue" stroke-width="2" />
<path d="M1777,3410 L3962,732" stroke="blue" stroke-width="2" />
<path d="M3895,877 L560,2308" stroke="blue" stroke-width="2" />
<path d="M288,2189 L1272,3073" stroke="blue" stroke-width="2" />
<path d="M464,1686 L2614,3193" stroke="blue" stroke-width="2" />
<path d="M1138,1731 L3347,3227" stroke="blue" stroke-width="2" />
<path d="M3115,2189 L2417,3539" stroke="blue" stroke-width="2" />
<path d="M2165,3635 L3254,393" stroke="blue" stroke-width="2" />
<path d="M1022,85 L3063,756" stroke="blue" stroke-width="2" />
<path d="M2788,1426 L2299,517" stroke="blue" stroke-width="2" />
<path d="M3946,3469 L3751,1534" stroke="blue" stroke-width="2" />
<path d="M933,987 L2696,3666" stroke="blue" stroke-width="2" />
<path d="M2624,771 L224,1923" stroke="blue" stroke-width="2" />
<path d="M2357,2511 L759,982" stroke="blue" stroke-width="2" />
<path d="M2493,754 L2314,1774" stroke="blue" stroke-width="2" />
<path d="M3301,2406 L352,767" stroke="blue" stroke-width="2" />
<path d="M3776,3549 L611,3212" stroke="blue" stroke-width="2" />
<path d="M1997,2716 L62,2361" stroke="blue" stroke-width="2" />
<path d="M3852,3156 L3714,1067" stroke="blue" stroke-width="2" />
<path d="M1244,530 L3027,1525" stroke="blue" stroke-width="2" />
<path d="M2458,1558 L2981,2523" stroke="blue" stroke-width="2" />
<path d="M1109,144 L4085,405" stroke="blue" stroke-width="2" />
<path d="M4095,936 L3386,2206" stroke="blue" stroke-width="2" />
<path d="M307,1411 L3355,215" stroke="blue" stroke-width="2" />
<path d="M997,2341 L221,3272" stroke="blue" stroke-width="2" />
<path d="M1185,2767 L4015,2072" stroke="blue" stroke-width="2" />
<path d="M269,2150 L3325,2657" stroke="blue" stroke-width="2" />
<path d="M867,2908 L948,3008" stroke="blue" stroke-width="2" />
<path d="M1768,3430 L2770,263" stroke="blue" stroke-width="2" />
<path d="M1210,1078 L3399,3197" stroke="blue" stroke-width="2" />
<path d="M2900,3513 L33,1654" stroke="blue" stroke-width="2" />
<path d="M4159,1535 L1379,2417" stroke="blue" stroke-width="2" />
<path d="M52,811 L4030,776" stroke="blue" stroke-width="2" />
<path d="M1604,1400 L3358,3515" stroke="blue" stroke-width="2" />
<path d="M2162,3599 L1742,2323" stroke="blue" stroke-width="2" />
<path d="M3904,355 L3399,3664" stroke="blue" stroke-width="2" />
<path d="M1568,1860 L1932,263" stroke="blue" stroke-width="2" />
<path d="M4045,1305 L2789,1864" stroke="blue" stroke-width="2" />
<path d="M1306,1012 L3822,294" stroke="blue" stroke-width="2" />
<path d="M2196,934 L3079,2596" stroke="blue" stroke-width="2" />
<path d="M4171,1156 L4279,1303" stroke="blue" stroke-width="2" />
<path d="M790,28 L2208,3009" stroke="blue" stroke-width="2" />
<path d="M2583,2678 L2814,208" stroke="blue" stroke-width="2" />
<path d="M3585,735 L1288,860" stroke="blue" stroke-width="2" />
<path d="M3921,2490 L3402,3405" stroke="blue" stroke-width="2" />
<path d="M299,792 L203,316" stroke="blue" stroke-width="2" />
<path d="M148,3356 L3733,1265" stroke="blue" stroke-width="2" />
<path d="M1588,3142 L4330,1034" stroke="blue" stroke-width="2" />
<path d="M2315,30 L4245,2614" stroke="blue" stroke-width="2" />
<path d="M2180,946 L2218,3125" stroke="blue" stroke-width="2" />
<path d="M1318,908 L420,1630" stroke="blue" stroke-width="2" />
<path d="M271,1994 L4110,3312" stroke="blue" stroke-width="2" />
<path d="M3546,3509 L1109,2710" stroke="blue" stroke-width="2" />
<path d="M3445,419 L1650,2431" stroke="blue" stroke-width="2" />
<path d="M3008,1260 L2949,2344" stroke="blue" stroke-width="2" />
<path d="M3428,3699 L3514,3702" stroke="blue" stroke-width="2" />
<path d="M4141,961 L2494,2891" stroke="blue" stroke-width="2" />
<path d="M3149,1507 L3757,3551" stroke="blue" stroke-width="2" />
<path d="M3406,1008 L1164,3415" stroke="blue" stroke-width="2" />
<path d="M3525,804 L2125,393" stroke="blue" stroke-width="2" />
<path d="M3696,883 L3044,28" stroke="blue" stroke-width="2" />
<path d="M306,3093 L3752,1707" stroke="blue" stroke-width="2" />
<path d="M1194,488 L1273,913" stroke="blue" stroke-width="2" />
<path d="M3470,2684 L3011,2277" stroke="blue" stroke-width="2" />
<path d="M831,2586 L2819,1985" stroke="blue" stroke-width="2" />
<path d="M3605,1339 L3349,706" stroke="blue" stroke-width="2" />
<path d="M1843,2813 L298,2490" stroke="blue" stroke-width="2" />
<path d="M2399,1265 L3106,820" stroke="blue" stroke-width="2" />
<path d="M3635,2705 L4111,3195" stroke="blue" stroke-width="2" />
<path d="M3991,1643 L486,1311" stroke="blue" stroke-width="2" />
<path d="M802,535 L2123,3699" stroke="blue" stroke-width="2" />
<path d="M4327,730 L1528,920" stroke="blue" stroke-width="2" />
<path d="M3110,873 L214,1161" stroke="blue" stroke-width="2" />
<path d="M1817,470 L643,2734" stroke="blue" stroke-width="2" />
<path d="M2763,3725 L4059,1474" stroke="blue" stroke-width="2" />
<path d="M3443,1745 L868,928" stroke="blue" stroke-width="2" />
<path d="M2311,2116 L256,1130" stroke="blue" stroke-width="2" />
<path d="M3758,1191 L3155,225" stroke="blue" stroke-width="2" />
<path d="M652,1492 L725,2095" stroke="blue" stroke-width="2" />
<path d="M991,370 L4248,1292" stroke="blue" stroke-width="2" />
<path d="M614,138 L3648,1433" stroke="blue" stroke-width="2" />
<path d="M2967,2340 L3179,274" stroke="blue" stroke-width="2" />
<path d="M309,846 L1044,1884" stroke="blue" stroke-width="2" />
<path d="M1560,3106 L2337,390" stroke="blue" stroke-width="2" />
<path d="M3453,2821 L1247,943" stroke="blue" stroke-width="2" />
<path d="M816,1588 L1272,3430" stroke="blue" stroke-width="2" />
<path d="M2785,1711 L1405,2684" stroke="blue" stroke-width="2" />
<path d="M456,2975 L1676,1143" stroke="blue" stroke-width="2" />
<path d="M4150,1702 L1887,2902" stroke="blue" stroke-width="2" />
<path d="M2615,442 L3018,1175" stroke="blue" stroke-width="2" />
<path d="M4218,3087 L879,2003" stroke="blue" stroke-width="2" />
<path d="M4180,1720 L2883,2734" stroke="blue" stroke-width="2" />
<path d="M972,1905 L3479,27" stroke="blue" stroke-width="2" />
<path d="M2835,3077 L3760,820" stroke="blue" stroke-width="2" />
<path d="M2263,2622 L2477,2148" stroke="blue" stroke-width="2" />
<path d="M505,2420 L1754,3487" stroke="blue" stroke-width="2" />
<path d="M2451,1864 L1160,3177" stroke="blue" stroke-width="2" />
<path d="M3762,2107 L706,708" stroke="blue" stroke-width="2" />
<path d="M3952,1988 L2758,1468" stroke="blue" stroke-width="2" />
<path d="M4112,3388 L1966,2752" stroke="blue" stroke-width="2" />
<path d="M241,1548 L2841,1937" stroke="blue" stroke-width="2" />
<path d="M2818,1739 L211,1181" stroke="blue" stroke-width="2" />
<path d="M4273,1182 L3719,3065" stroke="blue" stroke-width="2" />
<path d="M2500,2086 L1083,48" stroke="blue" stroke-width="2" />
<path d="M623,624 L712,2748" stroke="blue" stroke-width="2" />
<path d="M2644,3060 L2667,591" stroke="blue" stroke-width="2" />
<path d="M4114,1121 L2694,1106" stroke="blue" stroke-width="2" />
<path d="M3581,2686 L1830,2661" stroke="blue" stroke-width="2" />
<path d="M191,3242 L1727,503" stroke="blue" stroke-width="2" />
<path d="M386,1587 L3149,1044" stroke="blue" stroke-width="2" />
<path d="M2144,2341 L2577,522" stroke="blue" stroke-width="2" />
<path d="M2870,1048 L2692,1621" stroke="blue" stroke-width="2" />
<path d="M1640,1696 L906,1322" stroke="blue" stroke-width="2" />
<path d="M1197,177 L3225,3169" stroke="blue" stroke-width="2" />
<path d="M1181,2103 L1123,2618" stroke="blue" stroke-width="2" />
<path d="M2248,571 L2639,1494" stroke="blue" stroke-width="2" />
<path d="M1883,2520 L2940,3011" stroke="blue" stroke-width="2" />
<path d="M2756,718 L3293,3551" stroke="blue" stroke-width="2" />
<path d="M70,57 L2553,589" stroke="blue" stroke-width="2" />
<path d="M3836,1951 L2474,3067" stroke="blue" stroke-width="2" />
<path d="M3417,312 L277,2546" stroke="blue" stroke-width="2" />
<path d="M1009,2837 L3904,2459" stroke="blue" stroke-width="2" />
<path d="M3960,2435 L3213,1897" stroke="blue" stroke-width="2" />
<path d="M1161,2425 L2063,1010" stroke="blue" stroke-width="2" />
<path d="M1836,554 L3307,3313" stroke="blue" stroke-width="2" />
<path d="M1844,1195 L2549,3454" stroke="blue" stroke-width="2" />
<path d="M4264,1476 L1083,905" stroke="blue" stroke-width="2" />
<path d="M1790,316 L2382,3389" stroke="blue" stroke-width="2" />
<path d="M3758,2172 L4330,469" stroke="blue" stroke-width="2" />
<path d="M4280,64 L94,2284" stroke="blue" stroke-width="2" />
<path d="M137,2255 L3276,2784" stroke="blue" stroke-width="2" />
<path d="M133,1772 L3785,1637" stroke="blue" stroke-width="2" />
<path d="M1934,1526 L2949,1961" stroke="blue" stroke-width="2" />
<path d="M2895,2847 L1168,1263" stroke="blue" stroke-width="2" />
<path d="M4069,713 L888,926" stroke="blue" stroke-width="2" />
<path d="M1450,1499 L1036,1819" stroke="blue" stroke-width="2" />
<path d="M2743,234 L1967,2856" stroke="blue" stroke-width="2" />
<path d="M4165,2436 L4225,2338" stroke="blue" stroke-width="2" />
<path d="M4045,1170 L1933,411" stroke="blue" stroke-width="2" />
<path d="M754,2703 L394,1488" stroke="blue" stroke-width="2" />
<path d="M332,1868 L6,2207" stroke="blue" stroke-width="2" />
<path d="M3881,446 L1194,1553" stroke="blue" stroke-width="2" />
<path d="M1340,802 L4173,2677" stroke="blue" stroke-width="2" />
<path d="M1918,2788 L2463,2425" stroke="blue" stroke-width="2" />
<path d="M2602,2105 L4232,1826" stroke="blue" stroke-width="2" />
<path d="M2227,1096 L3881,1137" stroke="blue" stroke-width="2" />
<path d="M2890,372 L1192,332" stroke="blue" stroke-width="2" />
<path d="M3909,3501 L217,2636" stroke="blue" stroke-width="2" />
<path d="M3232,1166 L551,2771" stroke="blue" stroke-width="2" />
<path d="M1425,3591 L2904,292" stroke="blue" stroke-width="2" />
<path d="M1348,127 L3378,3363" stroke="blue" stroke-width="2" />
<path d="M4154,1660 L1590,2099" stroke="blue" stroke-width="2" />
<path d="M3610,3622 L1508,2221" stroke="blue" stroke-width="2" />
<path d="M1324,162 L788,144" stroke="blue" stroke-width="2" />
<path d="M3357,3132 L2945,754" stroke="blue" stroke-width="2" />
<path d="M1146,1424 L161,1082" stroke="blue" stroke-width="2" />
<path d="M1328,2646 L2955,1150" stroke="blue" stroke-width="2" />
<path d="M771,1845 L2956,391" stroke="blue" stroke-width="2" />
<path d="M3991,2327 L3767,1894" stroke="blue" stroke-width="2" />
<path d="M4281,2834 L2566,3333" stroke="blue" stroke-width="2" />
<path d="M4258,2667 L4171,3669" stroke="blue" stroke-width="2" />
<path d="M3568,2975 L2524,1479" stroke="blue" stroke-width="2" />
<path d="M2550,1396 L528,3106" stroke="blue" stroke-width="2" />
<path d="M2581,2010 L1281,3502" stroke="blue" stroke-width="2" />
<path d="M2709,2000 L770,442" stroke="blue" stroke-width="2" />
<path d="M4104,3514 L4067,115" stroke="blue" stroke-width="2" />
<path d="M3899,3517 L2001,3452" stroke="blue" stroke-width="2" />
<path d="M4236,542 L3360,2633" stroke="blue" stroke-width="2" />
<path d="M415,2784 L3958,2017" stroke="blue" stroke-width="2" />
<path d="M584,2634 L3140,2202" stroke="blue" stroke-width="2" />
<path d="M3330,244 L651,1478" stroke="blue" stroke-width="2" />
<path d="M3487,1398 L3450,3038" stroke="blue" stroke-width="2" />
<path d="M2131,1217 L229,1757" stroke="blue" stroke-width="2" />
<path d="M891,1649 L4219,2163" stroke="blue" stroke-width="2" />
<path d="M1056,1018 L2598,177" stroke="blue" stroke-width="2" />
<path d="M4040,511 L4314,3072" stroke="blue" stroke-width="2" />
<path d="M1827,7 L4102,284" stroke="blue" stroke-width="2" />
<path d="M126,836 L137,3475" stroke="blue" stroke-width="2" />
<path d="M653,2511 L237,1291" stroke="blue" stroke-width="2" />
<path d="M496,159 L4328,2886" stroke="blue" stroke-width="2" />
<path d="M2112,1801 L117,2110" stroke="blue" stroke-width="2" />
<path d="M752,2612 L2534,540" stroke="blue" stroke-width="2" />
<path d="M4010,319 L2493,2355" stroke="blue" stroke-width="2" />
<path d="M478,1739 L2787,770" stroke="blue" stroke-width="2" />
<path d="M45,1152 L94,3392" stroke="blue" stroke-width="2" />
<path d="M707,1931 L482,2164" stroke="blue" stroke-width="2" />
<path d="M202,255 L3581,2307" stroke="blue" stroke-width="2" />
<path d="M3983,2984 L1398,2366" stroke="blue" stroke-width="2" />
<path d="M1728,2744 L1158,3050" stroke="blue" stroke-width="2" />
<path d="M311,586 L157,150" stroke="blue" stroke-width="2" />
<path d="M3584,2074 L61,2036" stroke="blue" stroke-width="2" />
<path d="M1946,516 L3348,1052" stroke="blue" stroke-width="2" />
<path d="M2117,3678 L1226,117" stroke="blue" stroke-width="2" />
<path d="M2294,434 L226,599" stroke="blue" stroke-width="2" />
<path d="M3459,2611 L2996,657" stroke="blue" stroke-width="2" />
<path d="M20,746 L105,3432" stroke="blue" stroke-width="2" />
<path d="M2569,2674 L1215,1674" stroke="blue" stroke-width="2" />
<path d="M2884,1215 L2390,3288" stroke="blue" stroke-width="2" />
<path d="M1266,485 L658,1741" stroke="blue" stroke-width="2" />
<path d="M474,829 L390,2521" stroke="blue" stroke-width="2" />
<path d="M3521,1583 L398,1773" stroke="blue" stroke-width="2" />
<path d="M2110,2340 L2148,1040" stroke="blue" stroke-width="2" />
<path d="M107,1725 L41,264" stroke="blue" stroke-width="2" />
<path d="M4208,908 L4313,3455" stroke="blue" stroke-width="2" />
<path d="M2666,534 L4114,1752" stroke="blue" stroke-width="2" />
<path d="M1097,511 L1570,1885" stroke="blue" stroke-width="2" />
<path d="M1114,1861 L3050,1944" stroke="blue" stroke-width="2" />
<path d="M3290,2545 L3002,800" stroke="blue" stroke-width="2" />
<path d="M0,0 L4348,0" stroke="red" stroke-width="10" />
<path d="M4348,0 L4348,3742" stroke="red" stroke-width="10" />
<path d="M0,3742 L4348,3742" stroke="red" stroke-width="10" />
<path d="M0,3742 L0,0" stroke="red" stroke-width="10" />
</svg>