<?xml version="1.0" encoding="UTF-8"?>
<svg xmlns="http://www.w3.org/2000/svg" xmlns:xlink="http://www.w3.org/1999/xlink"
     width="10000" height="10000" viewBox="0 0 10000 10000">
<defs>
</defs>
<path d="M1724,1655 L2117,837" stroke="blue" stroke-width="2" />
<path d="M3432,893 L689,675" stroke="blue" stroke-width="2" />
<path d="M1330,835 L1814,1893" stroke="blue" stroke-width="2" />
<path d="M2246,1546 L1050,955" stroke="blue" stroke-width="2" />
<path d="M2041,692 L1650,1208" stroke="blue" stroke-width="2" />
<path d="M3561,934 L2544,1337" stroke="blue" stroke-width="2" />
<path d="M3073,19 L3410,1013" stroke="blue" stroke-width="2" />
<path d="M1502,1482 L1571,985" stroke="blue" stroke-width="2" />
<path d="M2328,1668 L3113,209" stroke="blue" stroke-width="2" />
<path d="M2450,320 L1179,678" stroke="blue" stroke-width="2" />
<path d="M2444,181 L2195,787" stroke="blue" stroke-width="2" />
<path d="M827,423 L1336,1705" stroke="blue" stroke-width="2" />
<path d="M718,1748 L221,858" stroke="blue" stroke-width="2" />
<path d="M1670,714 L33,1703" stroke="blue" stroke-width="2" />
<path d="M1058,1567 L439,531" stroke="blue" stroke-width="2" />
<path d="M2204,1204 L2816,1082" stroke="blue" stroke-width="2" />
<path d="M3359,1216 L640,1566" stroke="blue" stroke-width="2" />
<path d="M61,1707 L68,779" stroke="blue" stroke-width="2" />
<path d="M2282,1225 L1775,1661" stroke="blue" stroke-width="2" />
<path d="M3091,402 L421,1007" stroke="blue" stroke-width="2" />
<path d="M825,868 L1485,1521" stroke="blue" stroke-width="2" />
<path d="M1445,1207 L419,804" stroke="blue" stroke-width="2" />
<path d="M3418,1000 L148,1493" stroke="blue" stroke-width="2" />
<path d="M96,1139 L18,2" stroke="blue" stroke-width="2" />
<path d="M3070,1624 L678,220" stroke="blue" stroke-width="2" />
<path d="M2263,1774 L3497,600" stroke="blue" stroke-width="2" />
<path d="M1676,878 L2726,1753" stroke="blue" stroke-width="2" />
<path d="M1778,1115 L3355,610" stroke="blue" stroke-width="2" />
<path d="M2155,743 L905,1106" stroke="blue" stroke-width="2" />
<path d="M1922,1258 L721,1179" stroke="blue" stroke-width="2" />
<path d="M1317,1354 L747,478" stroke="blue" stroke-width="2" />
<path d="M702,1257 L1962,21" stroke="blue" stroke-width="2" />
<path d="M1169,625 L1358,1918" stroke="blue" stroke-width="2" />
<path d="M3253,1002 L922,1454" stroke="blue" stroke-width="2" />
<path d="M3201,1009 L3278,999" stroke="blue" stroke-width="2" />
<path d="M781,1757 L1589,648" stroke="blue" stroke-width="2" />
<path d="M1588,931 L2305,995" stroke="blue" stroke-width="2" />
<path d="M1415,1715 L482,1238" stroke="blue" stroke-width="2" />
<path d="M1805,1843 L869,1494" stroke="blue" stroke-width="2" />
<path d="M3542,381 L3093,1156" stroke="blue" stroke-width="2" />
<path d="M644,889 L3397,168" stroke="blue" stroke-width="2" />
<path d="M1125,984 L307,1308" stroke="blue" stroke-width="2" />
<path d="M2330,737 L2559,334" stroke="blue" stroke-width="2" />
<path d="M1784,374 L6,675" stroke="blue" stroke-width="2" />
<path d="M1327,1514 L3048,972" stroke="blue" stroke-width="2" />
<path d="M2698,236 L1835,633" stroke="blue" stroke-width="2" />
<path d="M2486,657 L941,1833" stroke="blue" stroke-width="2" />
<path d="M1160,193 L3076,1797" stroke="blue" stroke-width="2" />
<path d="M2827,811 L2810,1640" stroke="blue" stroke-width="2" />
<path d="M2955,1901 L1816,1527" stroke="blue" stroke-width="2" />
<path d="M1528,281 L2908,1653" stroke="blue" stroke-width="2" />
<path d="M1405,1534 L307,398" stroke="blue" stroke-width="2" />
<path d="M1727,409 L1206,581" stroke="blue" stroke-width="2" />
<path d="M569,1718 L3203,14" stroke="blue" stroke-width="2" />
<path d="M892,1360 L1417,888" stroke="blue" stroke-width="2" />
<path d="M1201,23 L993,403" stroke="blue" stroke-width="2" />
<path d="M2500,512 L522,1542" stroke="blue" stroke-width="2" />
<path d="M597,427 L3208,980" stroke="blue" stroke-width="2" />
<path d="M949,1652 L3559,37" stroke="blue" stroke-width="2" />
<path d="M2479,538 L3304,302" stroke="blue" stroke-width="2" />
<path d="M2084,1505 L2113,1558" stroke="blue" stroke-width="2" />
<path d="M3422,1775 L3093,1814" stroke="blue" stroke-width="2" />
<path d="M1917,1937 L2831,1310" stroke="blue" stroke-width="2" />
<path d="M610,1549 L605,150" stroke="blue" stroke-width="2" />
<path d="M2653,139 L845,649" stroke="blue" stroke-width="2" />
<path d="M2945,361 L2159,1484" stroke="blue" stroke-width="2" />
<path d="M1190,324 L482,1016" stroke="blue" stroke-width="2" />
<path d="M3506,876 L1728,1773" stroke="blue" stroke-width="2" />
<path d="M1775,732 L636,508" stroke="blue" stroke-width="2" />
<path d="M312,368 L3294,1667" stroke="blue" stroke-width="2" />
<path d="M1958,523 L974,37" stroke="blue" stroke-width="2" />
<path d="M679,1852 L2198,1297" stroke="blue" stroke-width="2" />
<path d="M1643,835 L1068,1835" stroke="blue" stroke-width="2" />
<path d="M208,11 L2725,310" stroke="blue" stroke-width="2" />
<path d="M654,1127 L3356,586" stroke="blue" stroke-width="2" />
<path d="M2274,1901 L2901,611" stroke="blue" stroke-width="2" />
<path d="M370,984 L836,240" stroke="blue" stroke-width="2" />
<path d="M2819,250 L1329,580" stroke="blue" stroke-width="2" />
<path d="M547,566 L1870,1520" stroke="blue" stroke-width="2" />
<path d="M2403,652 L304,692" stroke="blue" stroke-width="2" />
<path d="M2361,1228 L2529,436" stroke="blue" stroke-width="2" />
<path d="M264,1273 L3046,731" stroke="blue" stroke-width="2" />
<path d="M792,1261 L2067,580" stroke="blue" stroke-width="2" />
<path d="M269,414 L1287,682" stroke="blue" stroke-width="2" />
<path d="M466,697 L1708,1253" stroke="blue" stroke-width="2" />
<path d="M3340,446 L3078,1339" stroke="blue" stroke-width="2" />
<path d="M3075,467 L244,624" stroke="blue" stroke-width="2" />
<path d="M2544,671 L2246,156" stroke="blue" stroke-width="2" />
<path d="M763,1759 L1970,277" stroke="blue" stroke-width="2" />
<path d="M1032,1869 L2337,904" stroke="blue" stroke-width="2" />
<path d="M764,1666 L2187,1061" stroke="blue" stroke-width="2" />
<path d="M3002,218 L2112,1208" stroke="blue" stroke-width="2" />
<path d="M1748,759 L12,767" stroke="blue" stroke-width="2" />
<path d="M2166,1393 L2534,437" stroke="blue" stroke-width="2" />
<path d="M2442,374 L3509,1012" stroke="blue" stroke-width="2" />
<path d="M32,43 L2379,792" stroke="blue" stroke-width="2" />
<path d="M3043,172 L429,859" stroke="blue" stroke-width="2" />
<path d="M704,46 L424,184" stroke="blue" stroke-width="2" />
<path d="M1830,357 L2272,1270" stroke="blue" stroke-width="2" />
<path d="M2217,1541 L192,1068" stroke="blue" stroke-width="2" />
<path d="M3502,1501 L2915,434" stroke="blue" stroke-width="2" />
<path d="M2899,1740 L848,332" stroke="blue" stroke-width="2" />
<path d="M2130,1483 L306,1367" stroke="blue" stroke-width="2" />
<path d="M2311,650 L1168,65" stroke="blue" stroke-width="2" />
<path d="M1376,1186 L3257,699" stroke="blue" stroke-width="2" />
<path d="M1088,277 L2116,1940" stroke="blue" stroke-width="2" />
<path d="M1421,458 L1702,1831" stroke="blue" stroke-width="2" />
<path d="M743,1194 L2819,1205" stroke="blue" stroke-width="2" />
<path d="M64,1277 L3314,1301" stroke="blue" stroke-width="2" />
<path d="M2081,1434 L206,898" stroke="blue" stroke-width="2" />
<path d="M101,1646 L3234,1239" stroke="blue" stroke-width="2" />
<path d="M1968,1635 L3527,1804" stroke="blue" stroke-width="2" />
<path d="M1742,1925 L2796,290" stroke="blue" stroke-width="2" />
<path d="M575,546 L461,440" stroke="blue" stroke-width="2" />
<path d="M2684,635 L3044,1267" stroke="blue" stroke-width="2" />
<path d="M1821,1034 L824,794" stroke="blue" stroke-width="2" />
<path d="M1261,1094 L1848,372" stroke="blue" stroke-width="2" />
<path d="M549,1385 L2521,1752" stroke="blue" stroke-width="2" />
<path d="M353,602 L42,127" stroke="blue" stroke-width="2" />
<path d="M2818,1355 L2235,1776" stroke="blue" stroke-width="2" />
<path d="M1720,110 L2969,1174" stroke="blue" stroke-width="2" />
<path d="M2791,714 L3302,691" stroke="blue" stroke-width="2" />
<path d="M679,1540 L2145,1076" stroke="blue" stroke-width="2" />
<path d="M727,587 L2911,1652" stroke="blue" stroke-width="2" />
<path d="M1784,781 L170,1058" stroke="blue" stroke-width="2" />
<path d="M2573,1967 L309,1355" stroke="blue" stroke-width="2" />
<path d="M2328,1907 L2084,729" stroke="blue" stroke-width="2" />
<path d="M986,736 L2107,1681" stroke="blue" stroke-width="2" />
<path d="M3470,1761 L1038,869" stroke="blue" stroke-width="2" />
<path d="M3138,1450 L711,791" stroke="blue" stroke-width="2" />
<path d="M3464,1809 L2226,1146" stroke="blue" stroke-width="2" />
<path d="M1876,675 L815,829" stroke="blue" stroke-width="2" />
<path d="M3516,1675 L867,495" stroke="blue" stroke-width="2" />
<path d="M2610,1501 L2685,146" stroke="blue" stroke-width="2" />
<path d="M1508,1079 L3024,1740" stroke="blue" stroke-width="2" />
<path d="M1215,180 L3213,879" stroke="blue" stroke-width="2" />
<path d="M1666,1460 L274,852" stroke="blue" stroke-width="2" />
<path d="M2981,543 L2968,894" stroke="blue" stroke-width="2" />
<path d="M1330,147 L1050,1940" stroke="blue" stroke-width="2" />
<path d="M1472,387 L2228,1653" stroke="blue" stroke-width="2" />
<path d="M1758,516 L2660,794" stroke="blue" stroke-width="2" />
<path d="M44,680 L1690,942" stroke="blue" stroke-width="2" />
<path d="M1945,1678 L3007,1882" stroke="blue" stroke-width="2" />
<path d="M1188,700 L1478,691" stroke="blue" stroke-width="2" />
<path d="M2605,1558 L500,1775" stroke="blue" stroke-width="2" />
<path d="M583,961 L483,1702" stroke="blue" stroke-width="2" />
<path d="M523,755 L1122,964" stroke="blue" stroke-width="2" />
<path d="M784,1198 L1867,1601" stroke="blue" stroke-width="2" />
<path d="M884,1367 L2849,1261" stroke="blue" stroke-width="2" />
<path d="M702,1142 L3529,278" stroke="blue" stroke-width="2" />
<path d="M491,896 L182,531" stroke="blue" stroke-width="2" />
<path d="M332,319 L931,338" stroke="blue" stroke-width="2" />
<path d="M1066,1445 L641,1620" stroke="blue" stroke-width="2" />
<path d="M745,1086 L2966,1041" stroke="blue" stroke-width="2" />
<path d="M223,147 L2769,866" stroke="blue" stroke-width="2" />
<path d="M757,762 L2568,413" stroke="blue" stroke-width="2" />
<path d="M1137,549 L1015,1398" stroke="blue" stroke-width="2" />
<path d="M1505,1130 L3229,1606" stroke="blue" stroke-width="2" />
<path d="M2227,91 L495,638" stroke="blue" stroke-width="2" />
<path d="M2571,749 L917,1438" stroke="blue" stroke-width="2" />
<path d="M25,732 L790,367" stroke="blue" stroke-width="2" />
<path d="M1681,770 L241,550" stroke="blue" stroke-width="2" />
<path d="M3477,319 L2515,768" stroke="blue" stroke-width="2" />
<path d="M372,1659 L2026,67" stroke="blue" stroke-width="2" />
<path d="M1835,984 L781,663" stroke="blue" stroke-width="2" />
<path d="M1868,1670 L1231,327" stroke="blue" stroke-width="2" />
<path d="M1594,10 L1122,428" stroke="blue" stroke-width="2" />
<path d="M2280,766 L1669,1667" stroke="blue" stroke-width="2" />
<path d="M2390,922 L1539,981" stroke="blue" stroke-width="2" />
<path d="M2692,1623 L1966,74" stroke="blue" stroke-width="2" />
<path d="M2077,216 L3354,534" stroke="blue" stroke-width="2" />
<path d="M3316,445 L2273,1903" stroke="blue" stroke-width="2" />
<path d="M846,1843 L2507,120" stroke="blue" stroke-width="2" />
<path d="M2839,1532 L1653,1793" stroke="blue" stroke-width="2" />
<path d="M1493,1087 L693,93" stroke="blue" stroke-width="2" />
<path d="M0,943 L335,1612" stroke="blue" stroke-width="2" />
<path d="M1669,312 L2899,1585" stroke="blue" stroke-width="2" />
<path d="M3264,1056 L1609,121" stroke="blue" stroke-width="2" />
<path d="M249,1739 L1083,349" stroke="blue" stroke-width="2" />
<path d="M76,1024 L3566,505" stroke="blue" stroke-width="2" />
<path d="M1848,1760 L2990,1379" stroke="blue" stroke-width="2" />
<path d="M1241,398 L1471,1956" stroke="blue" stroke-width="2" />
<path d="M2290,466 L3403,1750" stroke="blue" stroke-width="2" />
<path d="M171,1823 L481,1529" stroke="blue" stroke-width="2" />
<path d="M300,1836 L2919,1427" stroke="blue" stroke-width="2" />
<path d="M3437,1594 L1868,262" stroke="blue" stroke-width="2" />
<path d="M208,547 L1661,1458" stroke="blue" stroke-width="2" />
<path d="M3393,167 L1965,1440" stroke="blue" stroke-width="2" />
<path d="M1210,961 L1134,1218" stroke="blue" stroke-width="2" />
<path d="M809,1742 L2435,98" stroke="blue" stroke-width="2" />
<path d="M3481,1675 L149,191" stroke="blue" stroke-width="2" />
<path d="M554,1523 L2869,434" stroke="blue" stroke-width="2" />
<path d="M583,1254 L3272,1011" stroke="blue" stroke-width="2" />
<path d="M596,1853 L2153,28" stroke="blue" stroke-width="2" />
<path d="M3080,885 L2815,436" stroke="blue" stroke-width="2" />
<path d="M1012,66 L160,1203" stroke="blue" stroke-width="2" />
<path d="M2368,603 L699,133" stroke="blue" stroke-width="2" />
<path d="M1383,1549 L998,1919" stroke="blue" stroke-width="2" />
<path d="M1064,1553 L3056,1400" stroke="blue" stroke-width="2" />
<path d="M666,1710 L2550,717" stroke="blue" stroke-width="2" />
<path d="M1700,491 L2237,413" stroke="blue" stroke-width="2" />
<path d="M3136,1377 L701,244" stroke="blue" stroke-width="2" />
<path d="M645,1242 L1147,116" stroke="blue" stroke-width="2" />
<path d="M614,177 L704,1390" stroke="blue" stroke-width="2" />
<path d="M2321,1277 L1846,974" stroke="blue" stroke-width="2" />
<path d="M1020,1300 L3484,921" stroke="blue" stroke-width="2" />
<path d="M2350,337 L3097,1185" stroke="blue" stroke-width="2" />
<path d="M712,1708 L578,1213" stroke="blue" stroke-width="2" />
<path d="M2416,1376 L712,1239" stroke="blue" stroke-width="2" />
<path d="M1591,1222 L1234,181" stroke="blue" stroke-width="2" />
<path d="M1173,1854 L3129,1159" stroke="blue" stroke-width="2" />
<path d="M326,1465 L3266,1591" stroke="blue" stroke-width="2" />
<path d="M580,814 L1399,1768" stroke="blue" stroke-width="2" />
<path d="M750,1572 L3094,1356" stroke="blue" stroke-width="2" />
<path d="M3028,293 L1969,1602" stroke="blue" stroke-width="2" />
<path d="M1607,1844 L2420,1079" stroke="blue" stroke-width="2" />
<path d="M28,1198 L2548,768" stroke="blue" stroke-width="2" />
<path d="M2857,844 L1523,1617" stroke="blue" stroke-width="2" />
<path d="M508,329 L2557,452" stroke="blue" stroke-width="2" />
<path d="M1670,1120 L3505,353" stroke="blue" stroke-width="2" />
<path d="M3357,1239 L2736,1083" stroke="blue" stroke-width="2" />
<path d="M1811,1835 L2831,1588" stroke="blue" stroke-width="2" />
<path d="M1163,537 L3349,1438" stroke="blue" stroke-width="2" />
<path d="M3308,1946 L2298,1702" stroke="blue" stroke-width="2" />
<path d="M1443,1597 L3430,1932" stroke="blue" stroke-width="2" />
<path d="M3317,1563 L1448,1221" stroke="blue" stroke-width="2" />
<path d="M1162,375 L2882,11" stroke="blue" stroke-width="2" />
<path d="M617,922 L1152,1617" stroke="blue" stroke-width="2" />
<path d="M629,1583 L1562,1553" stroke="blue" stroke-width="2" />
<path d="M248,556 L2505,228" stroke="blue" stroke-width="2" />
<path d="M1873,884 L1249,365" stroke="blue" stroke-width="2" />
<path d="M2364,933 L880,834" stroke="blue" stroke-width="2" />
<path d="M874,324 L3202,220" stroke="blue" stroke-width="2" />
<path d="M309,1721 L754,1912" stroke="blue" stroke-width="2" />
<path d="M3373,179 L1444,521" stroke="blue" stroke-width="2" />
<path d="M2734,1645 L8,883" stroke="blue" stroke-width="2" />
<path d="M1435,348 L2307,884" stroke="blue" stroke-width="2" />
<path d="M2389,174 L1626,1081" stroke="blue" stroke-width="2" />
<path d="M1093,399 L3432,174" stroke="blue" stroke-width="2" />
<path d="M836,1542 L2993,1191" stroke="blue" stroke-width="2" />
<path d="M3089,1138 L1201,346" stroke="blue" stroke-width="2" />
<path d="M2917,1185 L2348,1448" stroke="blue" stroke-width="2" />
<path d="M1258,1369 L434,892" stroke="blue" stroke-width="2" />
<path d="M121,185 L3474,134" stroke="blue" stroke-width="2" />
<path d="M977,1212 L775,1886" stroke="blue" stroke-width="2" />
<path d="M868,1879 L135,1698" stroke="blue" stroke-width="2" />
<path d="M2777,1233 L974,1862" stroke="blue" stroke-width="2" />
<path d="M2903,77 L3138,1911" stroke="blue" stroke-width="2" />
<path d="M1826,245 L163,1310" stroke="blue" stroke-width="2" />
<path d="M2563,171 L1679,1645" stroke="blue" stroke-width="2" />
<path d="M170,1094 L2015,195" stroke="blue" stroke-width="2" />
<path d="M2332,1256 L2488,1415" stroke="blue" stroke-width="2" />
<path d="M415,694 L1216,122" stroke="blue" stroke-width="2" />
<path d="M44,1619 L1383,1036" stroke="blue" stroke-width="2" />
<path d="M3440,18 L3285,843" stroke="blue" stroke-width="2" />
<path d="M1286,317 L3330,49" stroke="blue" stroke-width="2" />
<path d="M1015,1248 L2107,1008" stroke="blue" stroke-width="2" />
<path d="M3392,1298 L718,430" stroke="blue" stroke-width="2" />
<path d="M1108,1877 L1030,143" stroke="blue" stroke-width="2" />
<path d="M1439,1752 L2990,482" stroke="blue" stroke-width="2" />
<path d="M2655,848 L2761,1478" stroke="blue" stroke-width="2" />
<path d="M3513,1385 L2515,1313" stroke="blue" stroke-width="2" />
<path d="M394,56 L2964,536" stroke="blue" stroke-width="2" />
<path d="M2195,1896 L1287,1275" stroke="blue" stroke-width="2" />
<path d="M401,1279 L1960,1122" stroke="blue" stroke-width="2" />
<path d="M2766,1714 L1764,1379" stroke="blue" stroke-width="2" />
<path d="M1414,1685 L3566,1425" stroke="blue" stroke-width="2" />
<path d="M3498,566 L678,26" stroke="blue" stroke-width="2" />
<path d="M3322,1190 L2050,89" stroke="blue" stroke-width="2" />
<path d="M715,759 L448,1129" stroke="blue" stroke-width="2" />
<path d="M2971,574 L2711,1673" stroke="blue" stroke-width="2" />
<path d="M1074,1535 L926,1626" stroke="blue" stroke-width="2" />
<path d="M2514,1232 L2214,961" stroke="blue" stroke-width="2" />
<path d="M2918,1011 L830,678" stroke="blue" stroke-width="2" />
<path d="M248,247 L3500,801" stroke="blue" stroke-width="2" />
<path d="M234,1703 L194,519" stroke="blue" stroke-width="2" />
<path d="M1764,1580 L2538,1019" stroke="blue" stroke-width="2" />
<path d="M1631,890 L1858,1459" stroke="blue" stroke-width="2" />
<path d="M447,1393 L313,1531" stroke="blue" stroke-width="2" />
<path d="M2879,362 L2856,1293" stroke="blue" stroke-width="2" />
<path d="M1808,1192 L940,672" stroke="blue" stroke-width="2" />
<path d="M3287,1521 L2975,578" stroke="blue" stroke-width="2" />
<path d="M705,39 L3427,296" stroke="blue" stroke-width="2" />
<path d="M317,553 L1194,720" stroke="blue" stroke-width="2" />
<path d="M1481,1210 L1719,1037" stroke="blue" stroke-width="2" />
<path d="M2271,636 L436,1303" stroke="blue" stroke-width="2" />
<path d="M312,844 L1403,256" stroke="blue" stroke-width="2" />
<path d="M75,250 L817,1300" stroke="blue" stroke-width="2" />
<path d="M1224,70 L1925,1446" stroke="blue" stroke-width="2" />
<path d="M1690,661 L3437,1087" stroke="blue" stroke-width="2" />
<path d="M42,704 L3468,1285" stroke="blue" stroke-width="2" />
<path d="M1327,1446 L1738,1915" stroke="blue" stroke-width="2" />
<path d="M600,634 L1453,534" stroke="blue" stroke-width="2" />
<path d="M160,1114 L1129,1626" stroke="blue" stroke-width="2" />
<path d="M1754,165 L3136,358" stroke="blue" stroke-width="2" />
<path d="M297,88 L2492,1930" stroke="blue" stroke-width="2" />
<path d="M2137,1911 L1539,178" stroke="blue" stroke-width="2" />
<path d="M1020,1048 L3168,1808" stroke="blue" stroke-width="2" />
<path d="M2471,1090 L124,1223" stroke="blue" stroke-width="2" />
<path d="M2146,456 L594,1433" stroke="blue" stroke-width="2" />
<path d="M2883,732 L1553,309" stroke="blue" stroke-width="2" />
<path d="M3373,1492 L1644,282" stroke="blue" stroke-width="2" />
<path d="M1389,683 L3266,1508" stroke="blue" stroke-width="2" />
<path d="M2497,1236 L1675,1004" stroke="blue" stroke-width="2" />
<path d="M535,278 L629,1227" stroke="blue" stroke-width="2" />
<path d="M689,1012 L19,1065" stroke="blue" stroke-width="2" />
<path d="M1434,1564 L334,161" stroke="blue" stroke-width="2" />
<path d="M2387,1550 L525,1706" stroke="blue" stroke-width="2" />
<path d="M2080,1836 L2442,1690" stroke="blue" stroke-width="2" />
<path d="M2248,204 L1472,102" stroke="blue" stroke-width="2" />
<path d="M1278,1387 L2663,506" stroke="blue" stroke-width="2" />
<path d="M2726,1232 L417,268" stroke="blue" stroke-width="2" />
<path d="M292,531 L1934,1678" stroke="blue" stroke-width="2" />
<path d="M3416,356 L3508,660" stroke="blue" stroke-width="2" />
<path d="M476,1860 L3455,375" stroke="blue" stroke-width="2" />
<path d="M2310,991 L2183,246" stroke="blue" stroke-width="2" />
<path d="M805,1494 L973,522" stroke="blue" stroke-width="2" />
<path d="M2644,1806 L2610,901" stroke="blue" stroke-width="2" />
<path d="M1966,550 L963,1050" stroke="blue" stroke-width="2" />
<path d="M1061,1080 L1603,503" stroke="blue" stroke-width="2" />
<path d="M707,1251 L135,22" stroke="blue" stroke-width="2" />
<path d="M1216,1517 L14,496" stroke="blue" stroke-width="2" />
<path d="M1334,957 L3182,1529" stroke="blue" stroke-width="2" />
<path d="M2652,1569 L2961,1540" stroke="blue" stroke-width="2" />
<path d="M3457,1447 L3105,24" stroke="blue" stroke-width="2" />
<path d="M1688,1694 L96,1382" stroke="blue" stroke-width="2" />
<path d="M3246,470 L1208,509" stroke="blue" stroke-width="2" />
<path d="M3087,743 L2671,633" stroke="blue" stroke-width="2" />
<path d="M1620,300 L2837,671" stroke="blue" stroke-width="2" />
<path d="M1368,1153 L1697,1541" stroke="blue" stroke-width="2" />
<path d="M1470,1343 L2960,1743" stroke="blue" stroke-width="2" />
<path d="M829,1173 L2663,1707" stroke="blue" stroke-width="2" />
<path d="M3086,684 L707,1164" stroke="blue" stroke-width="2" />
<path d="M1700,756 L3185,1897" stroke="blue" stroke-width="2" />
<path d="M1390,434 L1786,1573" stroke="blue" stroke-width="2" />
<path d="M2530,1820 L1391,46" stroke="blue" stroke-width="2" />
<path d="M1246,143 L2435,926" stroke="blue" stroke-width="2" />
<path d="M162,1533 L2247,459" stroke="blue" stroke-width="2" />
<path d="M324,7 L1414,1264" stroke="blue" stroke-width="2" />
<path d="M915,702 L2983,1866" stroke="blue" stroke-width="2" />
<path d="M2794,350 L2152,1430" stroke="blue" stroke-width="2" />
<path d="M1844,844 L2487,240" stroke="blue" stroke-width="2" />
<path d="M2016,1090 L3532,589" stroke="blue" stroke-width="2" />
<path d="M2266,924 L2308,375" stroke="blue" stroke-width="2" />
<path d="M1214,1720 L1444,1931" stroke="blue" stroke-width="2" />
<path d="M1249,1618 L3040,1459" stroke="blue" stroke-width="2" />
<path d="M3555,1635 L3301,278" stroke="blue" stroke-width="2" />
<path d="M910,1642 L2538,1131" stroke="blue" stroke-width="2" />
<path d="M1200,1777 L2525,1304" stroke="blue" stroke-width="2" />
<path d="M2114,1007 L2945,1459" stroke="blue" stroke-width="2" />
<path d="M3170,1451 L1424,871" stroke="blue" stroke-width="2" />
<path d="M1659,695 L360,1919" stroke="blue" stroke-width="2" />
<path d="M2237,1622 L2579,1325" stroke="blue" stroke-width="2" />
<path d="M2292,963 L1738,553" stroke="blue" stroke-width="2" />
<path d="M198,1858 L2861,478" stroke="blue" stroke-width="2" />
<path d="M545,1423 L1655,339" stroke="blue" stroke-width="2" />
<path d="M1255,765 L2117,1371" stroke="blue" stroke-width="2" />
<path d="M1778,979 L2861,65" stroke="blue" stroke-width="2" />
<path d="M165,1116 L3522,1938" stroke="blue" stroke-width="2" />
<path d="M1773,1380 L1619,204" stroke="blue" stroke-width="2" />
<path d="M1984,1647 L981,374" stroke="blue" stroke-width="2" />
<path d="M3366,1149 L2563,1590" stroke="blue" stroke-width="2" />
<path d="M2791,1529 L2608,1391" stroke="blue" stroke-width="2" />
<path d="M3168,1292 L3481,1707" stroke="blue" stroke-width="2" />
<path d="M2805,1492 L1361,1360" stroke="blue" stroke-width="2" />
<path d="M557,1577 L2190,1919" stroke="blue" stroke-width="2" />
<path d="M1570,1374 L2437,601" stroke="blue" stroke-width="2" />
<path d="M3180,1497 L2429,1940" stroke="blue" stroke-width="2" />
<path d="M2790,1493 L933,317" stroke="blue" stroke-width="2" />
<path d="M1591,800 L1166,1046" stroke="blue" stroke-width="2" />
<path d="M2683,1731 L2520,704" stroke="blue" stroke-width="2" />
<path d="M1473,751 L1023,1841" stroke="blue" stroke-width="2" />
<path d="M79,622 L3531,42" stroke="blue" stroke-width="2" />
<path d="M15,295 L3235,1429" stroke="blue" stroke-width="2" />
<path d="M3258,141 L2619,222" stroke="blue" stroke-width="2" />
<path d="M2137,477 L802,1702" stroke="blue" stroke-width="2" />
<path d="M1781,511 L2948,290" stroke="blue" stroke-width="2" />
<path d="M1840,1922 L391,566" stroke="blue" stroke-width="2" />
<path d="M1935,1820 L2595,316" stroke="blue" stroke-width="2" />
<path d="M1819,1574 L2977,183" stroke="blue" stroke-width="2" />
<path d="M851,1113 L933,1551" stroke="blue" stroke-width="2" />
<path d="M2046,1683 L663,1035" stroke="blue" stroke-width="2" />
<path d="M1581,1587 L2101,849" stroke="blue" stroke-width="2" />
<path d="M3233,1929 L2221,560" stroke="blue" stroke-width="2" />
<path d="M1888,1500 L3559,1520" stroke="blue" stroke-width="2" />
<path d="M3262,19 L404,1014" stroke="blue" stroke-width="2" />
<path d="M2962,449 L2394,462" stroke="blue" stroke-width="2" />
<path d="M556,834 L399,704" stroke="blue" stroke-width="2" />
<path d="M1218,1805 L2475,402" stroke="blue" stroke-width="2" />
<path d="M2876,432 L3164,471" stroke="blue" stroke-width="2" />
<path d="M2744,1191 L1516,1101" stroke="blue" stroke-width="2" />
<path d="M2588,1232 L1613,232" stroke="blue" stroke-width="2" />
<path d="M1375,1230 L1327,1490" stroke="blue" stroke-width="2" />
<path d="M3559,1862 L739,1707" stroke="blue" stroke-width="2" />
<path d="M2631,960 L1339,813" stroke="blue" stroke-width="2" />
<path d="M144,1151 L157,791" stroke="blue" stroke-width="2" />
<path d="M3245,1107 L1986,1157" stroke="blue" stroke-width="2" />
<path d="M2507,1715 L606,1197" stroke="blue" stroke-width="2" />
<path d="M2691,388 L551,1609" stroke="blue" stroke-width="2" />
<path d="M1657,711 L1276,1772" stroke="blue" stroke-width="2" />
<path d="M3365,754 L1866,747" stroke="blue" stroke-width="2" />
<path d="M1264,693 L722,651" stroke="blue" stroke-width="2" />
<path d="M975,711 L1055,78" stroke="blue" stroke-width="2" />
<path d="M1245,1716 L117,972" stroke="blue" stroke-width="2" />
<path d="M1410,1260 L3503,1637" stroke="blue" stroke-width="2" />
<path d="M2498,753 L2838,1762" stroke="blue" stroke-width="2" />
<path d="M840,1228 L1635,238" stroke="blue" stroke-width="2" />
<path d="M1439,358 L3068,655" stroke="blue" stroke-width="2" />
<path d="M1522,1179 L931,1942" stroke="blue" stroke-width="2" />
<path d="M1393,847 L880,1562" stroke="blue" stroke-width="2" />
<path d="M352,524 L1660,803" stroke="blue" stroke-width="2" />
<path d="M1535,1685 L2266,1717" stroke="blue" stroke-width="2" />
<path d="M1366,1934 L86,1599" stroke="blue" stroke-width="2" />
<path d="M558,1340 L730,77" stroke="blue" stroke-width="2" />
<path d="M1137,1319 L1178,1837" stroke="blue" stroke-width="2" />
<path d="M1609,1545 L1737,837" stroke="blue" stroke-width="2" />
<path d="M2637,1402 L140,1516" stroke="blue" stroke-width="2" />
<path d="M3516,1932 L2559,1113" stroke="blue" stroke-width="2" />
<path d="M121,791 L1163,1042" stroke="blue" stroke-width="2" />
<path d="M2570,1222 L1021,1719" stroke="blue" stroke-width="2" />
<path d="M1879,697 L3497,1194" stroke="blue" stroke-width="2" />
<path d="M150,895 L2419,1556" stroke="blue" stroke-width="2" />
<path d="M2254,1937 L1612,239" stroke="blue" stroke-width="2" />
<path d="M2733,777 L2147,612" stroke="blue" stroke-width="2" />
<path d="M1769,1687 L1519,403" stroke="blue" stroke-width="2" />
<path d="M1199,1790 L2943,199" stroke="blue" stroke-width="2" />
<path d="M243,1142 L1636,457" stroke="blue" stroke-width="2" />
<path d="M973,1643 L2936,1085" stroke="blue" stroke-width="2" />
<path d="M2831,19 L1328,1603" stroke="blue" stroke-width="2" />
<path d="M373,1867 L1274,1031" stroke="blue" stroke-width="2" />
<path d="M1947,1383 L1383,735" stroke="blue" stroke-width="2" />
<path d="M581,1374 L828,990" stroke="blue" stroke-width="2" />
<path d="M2541,6 L1254,89" stroke="blue" stroke-width="2" />
<path d="M1058,156 L746,1014" stroke="blue" stroke-width="2" />
<path d="M551,78 L375,579" stroke="blue" stroke-width="2" />
<path d="M3158,1300 L3518,422" stroke="blue" stroke-width="2" />
<path d="M1084,338 L3109,952" stroke="blue" stroke-width="2" />
<path d="M2258,1502 L2311,693" stroke="blue" stroke-width="2" />
<path d="M2667,1396 L2000,381" stroke="blue" stroke-width="2" />
<path d="M3445,235 L922,1423" stroke="blue" stroke-width="2" />
<path d="M1208,1485 L1257,1849" stroke="blue" stroke-width="2" />
<path d="M483,993 L1949,77" stroke="blue" stroke-width="2" />
<path d="M1241,427 L858,152" stroke="blue" stroke-width="2" />
<path d="M2104,58 L2737,229" stroke="blue" stroke-width="2" />
<path d="M2640,780 L1689,599" stroke="blue" stroke-width="2" />
<path d="M1975,1437 L686,1128" stroke="blue" stroke-width="2" />
<path d="M356,410 L1280,123" stroke="blue" stroke-width="2" />
<path d="M2844,160 L3278,457" stroke="blue" stroke-width="2" />
<path d="M2073,1174 L3253,290" stroke="blue" stroke-width="2" />
<path d="M2511,793 L1303,1446" stroke="blue" stroke-width="2" />
<path d="M1246,930 L3118,1431" stroke="blue" stroke-width="2" />
<path d="M1109,1225 L739,187" stroke="blue" stroke-width="2" />
<path d="M3151,1861 L2145,527" stroke="blue" stroke-width="2" />
<path d="M396,1096 L1185,845" stroke="blue" stroke-width="2" />
<path d="M2422,309 L1476,804" stroke="blue" stroke-width="2" />
<path d="M132,1577 L370,1823" stroke="blue" stroke-width="2" />
<path d="M590,1784 L69,417" stroke="blue" stroke-width="2" />
<path d="M1740,207 L1202,1003" stroke="blue" stroke-width="2" />
<path d="M2283,426 L1386,1623" stroke="blue" stroke-width="2" />
<path d="M433,1483 L2443,1463" stroke="blue" stroke-width="2" />
<path d="M1868,1437 L319,289" stroke="blue" stroke-width="2" />
<path d="M59,792 L1085,1045" stroke="blue" stroke-width="2" />
<path d="M2831,627 L3410,742" stroke="blue" stroke-width="2" />
<path d="M188,728 L3542,486" stroke="blue" stroke-width="2" />
<path d="M2335,1169 L1233,1256" stroke="blue" stroke-width="2" />
<path d="M1500,1946 L2315,1040" stroke="blue" stroke-width="2" />
<path d="M3243,96 L909,796" stroke="blue" stroke-width="2" />
<path d="M1,1954 L694,1243" stroke="blue" stroke-width="2" />
<path d="M736,1897 L2675,229" stroke="blue" stroke-width="2" />
<path d="M1201,895 L3462,34" stroke="blue" stroke-width="2" />
<path d="M3086,392 L2724,1623" stroke="blue" stroke-width="2" />
<path d="M2058,280 L3281,1663" stroke="blue" stroke-width="2" />
<path d="M489,1720 L3317,1856" stroke="blue" stroke-width="2" />
<path d="M734,1417 L3324,1710" stroke="blue" stroke-width="2" />
<path d="M2450,200 L3143,91" stroke="blue" stroke-width="2" />
<path d="M1940,1242 L2078,340" stroke="blue" stroke-width="2" />
<path d="M3327,1060 L1479,666" stroke="blue" stroke-width="2" />
<path d="M1867,1663 L3368,1679" stroke="blue" stroke-width="2" />
<path d="M766,404 L823,1095" stroke="blue" stroke-width="2" />
<path d="M1194,1355 L1437,534" stroke="blue" stroke-width="2" />
<path d="M549,776 L1663,1467" stroke="blue" stroke-width="2" />
<path d="M1071,963 L3280,613" stroke="blue" stroke-width="2" />
<path d="M2982,688 L2953,1367" stroke="blue" stroke-width="2" />
<path d="M1337,967 L872,1621" stroke="blue" stroke-width="2" />
<path d="M1023,1093 L919,135" stroke="blue" stroke-width="2" />
<path d="M2259,1870 L148,670" stroke="blue" stroke-width="2" />
<path d="M1568,258 L1653,336" stroke="blue" stroke-width="2" />
<path d="M1679,221 L382,1636" stroke="blue" stroke-width="2" />
<path d="M2151,119 L2178,422" stroke="blue" stroke-width="2" />
<path d="M423,257 L3159,1081" stroke="blue" stroke-width="2" />
<path d="M2346,674 L0,1641" stroke="blue" stroke-width="2" />
<path d="M1959,1145 L54,1293" stroke="blue" stroke-width="2" />
<path d="M2294,853 L2378,623" stroke="blue" stroke-width="2" />
<path d="M1151,33 L3431,271" stroke="blue" stroke-width="2" />
<path d="M95,717 L2390,793" stroke="blue" stroke-width="2" />
<path d="M3562,456 L2330,1240" stroke="blue" stroke-width="2" />
<path d="M2166,1235 L1267,758" stroke="blue" stroke-width="2" />
<path d="M2935,1142 L1204,636" stroke="blue" stroke-width="2" />
<path d="M2605,939 L3360,939" stroke="blue" stroke-width="2" />
<path d="M3117,1065 L1667,1106" stroke="blue" stroke-width="2" />
<path d="M1859,1508 L1875,1647" stroke="blue" stroke-width="2" />
<path d="M1989,1382 L1462,1803" stroke="blue" stroke-width="2" />
<path d="M846,1753 L1339,1706" stroke="blue" stroke-width="2" />
<path d="M2580,439 L2577,1035" stroke="blue" stroke-width="2" />
<path d="M1854,1003 L2306,1242" stroke="blue" stroke-width="2" />
<path d="M345,362 L1884,1296" stroke="blue" stroke-width="2" />
<path d="M3504,1635 L434,1201" stroke="blue" stroke-width="2" />
<path d="M571,187 L3189,1406" stroke="blue" stroke-width="2" />
<path d="M3338,1899 L1351,1908" stroke="blue" stroke-width="2" />
<path d="M664,742 L2698,1532" stroke="blue" stroke-width="2" />
<path d="M2048,712 L2203,1632" stroke="blue" stroke-width="2" />
<path d="M1647,173 L1064,1865" stroke="blue" stroke-width="2" />
<path d="M1967,468 L3465,1124" stroke="blue" stroke-width="2" />
<path d="M1321,769 L41,332" stroke="blue" stroke-width="2" />
<path d="M2423,908 L1528,1435" stroke="blue" stroke-width="2" />
<path d="M2229,224 L576,1550" stroke="blue" stroke-width="2" />
<path d="M852,1001 L2207,129" stroke="blue" stroke-width="2" />
<path d="M191,235 L1031,454" stroke="blue" stroke-width="2" />
<path d="M3155,1246 L566,594" stroke="blue" stroke-width="2" />
<path d="M3167,1826 L1541,1918" stroke="blue" stroke-width="2" />
<path d="M2268,595 L1649,515" stroke="blue" stroke-width="2" />
<path d="M3402,1450 L394,1248" stroke="blue" stroke-width="2" />
<path d="M1228,975 L1670,924" stroke="blue" stroke-width="2" />
<path d="M1570,663 L2144,642" stroke="blue" stroke-width="2" />
<path d="M3049,511 L2499,1820" stroke="blue" stroke-width="2" />
<path d="M2593,1629 L1008,149" stroke="blue" stroke-width="2" />
<path d="M679,1960 L576,1278" stroke="blue" stroke-width="2" />
<path d="M786,1484 L1068,703" stroke="blue" stroke-width="2" />
<path d="M1775,1194 L329,1477" stroke="blue" stroke-width="2" />
<path d="M3073,727 L2709,316" stroke="blue" stroke-width="2" />
<path d="M3064,754 L319,1964" stroke="blue" stroke-width="2" />
<path d="M2212,487 L2700,1840" stroke="blue" stroke-width="2" />
<path d="M2405,1054 L3556,1481" stroke="blue" stroke-width="2" />
<path d="M2610,1256 L652,1325" stroke="blue" stroke-width="2" />
<path d="M1692,784 L2459,357" stroke="blue" stroke-width="2" />
<path d="M1529,895 L2746,702" stroke="blue" stroke-width="2" />
<path d="M399,1896 L1792,1337" stroke="blue" stroke-width="2" />
<path d="M1325,156 L3207,1285" stroke="blue" stroke-width="2" />
<path d="M1936,522 L53,908" stroke="blue" stroke-width="2" />
<path d="M2510,970 L3071,1123" stroke="blue" stroke-width="2" />
<path d="M1486,1904 L3362,18" stroke="blue" stroke-width="2" />
<path d="M211,611 L1080,1210" stroke="blue" stroke-width="2" />
<path d="M1233,27 L2409,1638" stroke="blue" stroke-width="2" />
<path d="M751,189 L1485,441" stroke="blue" stroke-width="2" />
<path d="M2279,1537 L23,1467" stroke="blue" stroke-width="2" />
<path d="M1198,204 L3238,1203" stroke="blue" stroke-width="2" />
<path d="M2329,590 L603,1689" stroke="blue" stroke-width="2" />
<path d="M1695,226 L265,216" stroke="blue" stroke-width="2" />
<path d="M2516,443 L868,1710" stroke="blue" stroke-width="2" />
<path d="M2721,1062 L2478,678" stroke="blue" stroke-width="2" />
<path d="M1450,130 L2342,1374" stroke="blue" stroke-width="2" />
<path d="M1019,911 L895,1138" stroke="blue" stroke-width="2" />
<path d="M144,457 L671,568" stroke="blue" stroke-width="2" />
<path d="M210,1660 L890,1227" stroke="blue" stroke-width="2" />
<path d="M2565,1647 L3137,718" stroke="blue" stroke-width="2" />
<path d="M2204,135 L6,396" stroke="blue" stroke-width="2" />
<path d="M311,796 L1378,1309" stroke="blue" stroke-width="2" />
<path d="M2142,521 L3458,833" stroke="blue" stroke-width="2" />
<path d="M1559,1214 L3491,1769" stroke="blue" stroke-width="2" />
<path d="M1702,1336 L2643,182" stroke="blue" stroke-width="2" />
<path d="M698,1042 L3120,621" stroke="blue" stroke-width="2" />
<path d="M3137,1175 L3008,201" stroke="blue" stroke-width="2" />
<path d="M670,1080 L2926,897" stroke="blue" stroke-width="2" />
<path d="M242,1352 L608,1584" stroke="blue" stroke-width="2" />
<path d="M3448,1572 L1550,1079" stroke="blue" stroke-width="2" />
<path d="M1052,1149 L1788,765" stroke="blue" stroke-width="2" />
<path d="M87,1032 L1386,973" stroke="blue" stroke-width="2" />
<path d="M1972,893 L2075,1823" stroke="blue" stroke-width="2" />
<path d="M470,1128 L591,162" stroke="blue" stroke-width="2" />
<path d="M1550,291 L975,364" stroke="blue" stroke-width="2" />
<path d="M3473,1446 L533,1502" stroke="blue" stroke-width="2" />
<path d="M62,1548 L787,1791" stroke="blue" stroke-width="2" />
<path d="M288,1915 L91,50" stroke="blue" stroke-width="2" />
<path d="M433,456 L549,1633" stroke="blue" stroke-width="2" />
<path d="M2212,968 L2392,1140" stroke="blue" stroke-width="2" />
<path d="M3541,411 L1242,1009" stroke="blue" stroke-width="2" />
<path d="M516,590 L644,1243" stroke="blue" stroke-width="2" />
<path d="M2160,483 L1558,1079" stroke="blue" stroke-width="2" />
<path d="M1844,700 L1731,381" stroke="blue" stroke-width="2" />
<path d="M3004,1175 L2262,65" stroke="blue" stroke-width="2" />
<path d="M421,1846 L191,1129" stroke="blue" stroke-width="2" />
<path d="M2778,125 L1575,228" stroke="blue" stroke-width="2" />
<path d="M513,852 L2119,1102" stroke="blue" stroke-width="2" />
<path d="M0,835 L1866,140" stroke="blue" stroke-width="2" />
<path d="M3328,1442 L2669,414" stroke="blue" stroke-width="2" />
<path d="M1554,667 L500,308" stroke="blue" stroke-width="2" />
<path d="M2338,1711 L966,386" stroke="blue" stroke-width="2" />
<path d="M2957,278 L2519,1668" stroke="blue" stroke-width="2" />
<path d="M1526,1644 L3098,395" stroke="blue" stroke-width="2" />
<path d="M3272,827 L787,1179" stroke="blue" stroke-width="2" />
<path d="M2716,1710 L18,645" stroke="blue" stroke-width="2" />
<path d="M1584,504 L404,1244" stroke="blue" stroke-width="2" />
<path d="M2101,109 L896,930" stroke="blue" stroke-width="2" />
<path d="M389,1029 L509,565" stroke="blue" stroke-width="2" />
<path d="M3389,457 L1675,1544" stroke="blue" stroke-width="2" />
<path d="M2150,988 L2787,975" stroke="blue" stroke-width="2" />
<path d="M2420,1757 L1394,1840" stroke="blue" stroke-width="2" />
<path d="M194,132 L3100,1886" stroke="blue" stroke-width="2" />
<path d="M692,932 L2550,356" stroke="blue" stroke-width="2" />
<path d="M1619,1603 L244,278" stroke="blue" stroke-width="2" />
<path d="M1654,149 L3457,874" stroke="blue" stroke-width="2" />
<path d="M2363,1614 L2218,1830" stroke="blue" stroke-width="2" />
<path d="M2543,954 L388,4" stroke="blue" stroke-width="2" />
<path d="M3562,344 L66,1565" stroke="blue" stroke-width="2" />
<path d="M155,1019 L761,773" stroke="blue" stroke-width="2" />
<path d="M2938,1 L2855,601" stroke="blue" stroke-width="2" />
<path d="M2694,352 L3404,590" stroke="blue" stroke-width="2" />
<path d="M1468,395 L1958,508" stroke="blue" stroke-width="2" />
<path d="M3269,456 L1276,636" stroke="blue" stroke-width="2" />
<path d="M1419,573 L1661,1536" stroke="blue" stroke-width="2" />
<path d="M3571,1466 L1649,572" stroke="blue" stroke-width="2" />
<path d="M2785,601 L39,327" stroke="blue" stroke-width="2" />
<path d="M285,1804 L1473,1856" stroke="blue" stroke-width="2" />
<path d="M149,449 L1690,1561" stroke="blue" stroke-width="2" />
<path d="M2895,1404 L1121,785" stroke="blue" stroke-width="2" />
<path d="M887,1540 L1398,771" stroke="blue" stroke-width="2" />
<path d="M1950,1944 L289,1214" stroke="blue" stroke-width="2" />
<path d="M2471,1079 L919,1720" stroke="blue" stroke-width="2" />
<path d="M188,1467 L2357,1338" stroke="blue" stroke-width="2" />
<path d="M2270,68 L1002,1844" stroke="blue" stroke-width="2" />
<path d="M713,950 L2031,1934" stroke="blue" stroke-width="2" />
<path d="M1236,1045 L3563,1798" stroke="blue" stroke-width="2" />
<path d="M1587,370 L1940,249" stroke="blue" stroke-width="2" />
<path d="M1768,741 L3526,948" stroke="blue" stroke-width="2" />
<path d="M3255,313 L3181,374" stroke="blue" stroke-width="2" />
<path d="M0,0 L3575,0" stroke="red" stroke-width="10" />
<path d="M3575,0 L3575,1968" stroke="red" stroke-width="10" />
<path d="M0,1968 L3575,1968" stroke="red" stroke-width="10" />
<path d="M0,1968 L0,0" stroke="red" stroke-width="10" />
</svg>