<?xml version="1.0" encoding="UTF-8"?>
<svg xmlns="http://www.w3.org/2000/svg" xmlns:xlink="http://www.w3.org/1999/xlink"
     width="10000" height="10000" viewBox="0 0 10000 10000">
<defs>
</defs>
<path d="M1016,837 L872,2785" stroke="blue" stroke-width="2" />
<path d="M867,488 L662,2817" stroke="blue" stroke-width="2" />
<path d="M1190,2123 L1531,2567" stroke="blue" stroke-width="2" />
<path d="M16,1001 L1168,3237" stroke="blue" stroke-width="2" />
<path d="M1351,3284 L1944,3223" stroke="blue" stroke-width="2" />
<path d="M818,62 L14,3013" stroke="blue" stroke-width="2" />
<path d="M132,2851 L711,876" stroke="blue" stroke-width="2" />
<path d="M1959,3234 L559,1162" stroke="blue" stroke-width="2" />
<path d="M4,2948 L1639,3347" stroke="blue" stroke-width="2" />
<path d="M1526,2653 L327,2565" stroke="blue" stroke-width="2" />
<path d="M1809,1732 L524,2649" stroke="blue" stroke-width="2" />
<path d="M1666,452 L541,706" stroke="blue" stroke-width="2" />
<path d="M762,1480 L1568,3117" stroke="blue" stroke-width="2" />
<path d="M1645,1696 L1218,3033" stroke="blue" stroke-width="2" />
<path d="M64,1342 L46,1547" stroke="blue" stroke-width="2" />
<path d="M337,1625 L230,2380" stroke="blue" stroke-width="2" />
<path d="M1919,2209 L116,2450" stroke="blue" stroke-width="2" />
<path d="M401,63 L270,2668" stroke="blue" stroke-width="2" />
<path d="M363,927 L1459,17" stroke="blue" stroke-width="2" />
<path d="M1337,3097 L1268,92" stroke="blue" stroke-width="2" />
<path d="M1299,557 L844,817" stroke="blue" stroke-width="2" />
<path d="M1196,1788 L255,1804" stroke="blue" stroke-width="2" />
<path d="M1313,1105 L1100,853" stroke="blue" stroke-width="2" />
<path d="M1899,3253 L1896,1878" stroke="blue" stroke-width="2" />
<path d="M1866,469 L1529,2828" stroke="blue" stroke-width="2" />
<path d="M352,720 L1317,1115" stroke="blue" stroke-width="2" />
<path d="M179,1585 L462,1250" stroke="blue" stroke-width="2" />
<path d="M1595,3186 L1271,1740" stroke="blue" stroke-width="2" />
<path d="M674,1548 L564,1388" stroke="blue" stroke-width="2" />
<path d="M969,3017 L564,1808" stroke="blue" stroke-width="2" />
<path d="M716,1120 L52,1982" stroke="blue" stroke-width="2" />
<path d="M1739,711 L706,141" stroke="blue" stroke-width="2" />
<path d="M377,2499 L971,2390" stroke="blue" stroke-width="2" />
<path d="M306,294 L1676,710" stroke="blue" stroke-width="2" />
<path d="M342,498 L1546,422" stroke="blue" stroke-width="2" />
<path d="M1427,2828 L239,1343" stroke="blue" stroke-width="2" />
<path d="M1764,1701 L1955,2901" stroke="blue" stroke-width="2" />
<path d="M1356,1876 L1855,1051" stroke="blue" stroke-width="2" />
<path d="M113,2558 L716,1021" stroke="blue" stroke-width="2" />
<path d="M1162,2200 L292,3140" stroke="blue" stroke-width="2" />
<path d="M945,397 L226,948" stroke="blue" stroke-width="2" />
<path d="M765,15 L573,2909" stroke="blue" stroke-width="2" />
<path d="M642,1838 L1792,1397" stroke="blue" stroke-width="2" />
<path d="M1433,2969 L254,1369" stroke="blue" stroke-width="2" />
<path d="M1041,2993 L1297,777" stroke="blue" stroke-width="2" />
<path d="M865,927 L1089,2132" stroke="blue" stroke-width="2" />
<path d="M689,1515 L474,1208" stroke="blue" stroke-width="2" />
<path d="M1158,2957 L475,249" stroke="blue" stroke-width="2" />
<path d="M1231,1149 L352,2538" stroke="blue" stroke-width="2" />
<path d="M1411,3350 L879,2285" stroke="blue" stroke-width="2" />
<path d="M917,2584 L450,2300" stroke="blue" stroke-width="2" />
<path d="M878,1619 L239,383" stroke="blue" stroke-width="2" />
<path d="M338,2225 L753,3092" stroke="blue" stroke-width="2" />
<path d="M1808,264 L1612,2749" stroke="blue" stroke-width="2" />
<path d="M1269,540 L149,1513" stroke="blue" stroke-width="2" />
<path d="M868,545 L1951,865" stroke="blue" stroke-width="2" />
<path d="M1203,692 L330,972" stroke="blue" stroke-width="2" />
<path d="M1602,3154 L886,881" stroke="blue" stroke-width="2" />
<path d="M76,3191 L1380,799" stroke="blue" stroke-width="2" />
<path d="M963,534 L1056,46" stroke="blue" stroke-width="2" />
<path d="M875,2612 L1214,307" stroke="blue" stroke-width="2" />
<path d="M175,2321 L1276,2838" stroke="blue" stroke-width="2" />
<path d="M787,2515 L656,348" stroke="blue" stroke-width="2" />
<path d="M398,1269 L1563,1391" stroke="blue" stroke-width="2" />
<path d="M1346,2935 L331,3223" stroke="blue" stroke-width="2" />
<path d="M1347,1727 L1800,473" stroke="blue" stroke-width="2" />
<path d="M1535,3226 L867,1887" stroke="blue" stroke-width="2" />
<path d="M1100,2142 L654,2940" stroke="blue" stroke-width="2" />
<path d="M1185,1015 L1723,1843" stroke="blue" stroke-width="2" />
<path d="M1291,2059 L872,1314" stroke="blue" stroke-width="2" />
<path d="M1883,405 L1576,453" stroke="blue" stroke-width="2" />
<path d="M953,2795 L797,404" stroke="blue" stroke-width="2" />
<path d="M306,2866 L263,18" stroke="blue" stroke-width="2" />
<path d="M712,2899 L837,3159" stroke="blue" stroke-width="2" />
<path d="M166,670 L1464,1694" stroke="blue" stroke-width="2" />
<path d="M41,388 L1219,2708" stroke="blue" stroke-width="2" />
<path d="M1349,2408 L580,1482" stroke="blue" stroke-width="2" />
<path d="M1405,1582 L823,1342" stroke="blue" stroke-width="2" />
<path d="M960,1678 L839,2978" stroke="blue" stroke-width="2" />
<path d="M1478,1619 L798,2232" stroke="blue" stroke-width="2" />
<path d="M469,1666 L140,8" stroke="blue" stroke-width="2" />
<path d="M1745,2650 L162,32" stroke="blue" stroke-width="2" />
<path d="M937,8 L643,879" stroke="blue" stroke-width="2" />
<path d="M1829,1398 L259,3036" stroke="blue" stroke-width="2" />
<path d="M267,3104 L1386,868" stroke="blue" stroke-width="2" />
<path d="M1504,2229 L1453,633" stroke="blue" stroke-width="2" />
<path d="M926,1804 L961,1883" stroke="blue" stroke-width="2" />
<path d="M1322,1566 L1514,271" stroke="blue" stroke-width="2" />
<path d="M1466,2603 L1030,256" stroke="blue" stroke-width="2" />
<path d="M1059,1496 L1122,2459" stroke="blue" stroke-width="2" />
<path d="M262,2175 L239,1371" stroke="blue" stroke-width="2" />
<path d="M1537,717 L327,1653" stroke="blue" stroke-width="2" />
<path d="M471,893 L1312,731" stroke="blue" stroke-width="2" />
<path d="M1608,771 L766,1888" stroke="blue" stroke-width="2" />
<path d="M1917,204 L1823,2341" stroke="blue" stroke-width="2" />
<path d="M438,1511 L315,906" stroke="blue" stroke-width="2" />
<path d="M1154,1553 L267,948" stroke="blue" stroke-width="2" />
<path d="M347,553 L401,3243" stroke="blue" stroke-width="2" />
<path d="M1895,1379 L80,893" stroke="blue" stroke-width="2" />
<path d="M1539,2550 L139,1874" stroke="blue" stroke-width="2" />
<path d="M512,364 L330,1407" stroke="blue" stroke-width="2" />
<path d="M1955,2537 L923,1285" stroke="blue" stroke-width="2" />
<path d="M1428,1888 L1358,659" stroke="blue" stroke-width="2" />
<path d="M1516,1810 L916,2226" stroke="blue" stroke-width="2" />
<path d="M1676,600 L1349,1045" stroke="blue" stroke-width="2" />
<path d="M1887,1280 L808,391" stroke="blue" stroke-width="2" />
<path d="M924,3323 L614,212" stroke="blue" stroke-width="2" />
<path d="M679,362 L427,2588" stroke="blue" stroke-width="2" />
<path d="M429,2418 L2,1388" stroke="blue" stroke-width="2" />
<path d="M1904,2814 L1466,3189" stroke="blue" stroke-width="2" />
<path d="M707,2795 L53,2738" stroke="blue" stroke-width="2" />
<path d="M1129,3017 L865,1247" stroke="blue" stroke-width="2" />
<path d="M618,1373 L19,2121" stroke="blue" stroke-width="2" />
<path d="M418,758 L610,1137" stroke="blue" stroke-width="2" />
<path d="M502,2278 L1009,0" stroke="blue" stroke-width="2" />
<path d="M421,628 L1013,2403" stroke="blue" stroke-width="2" />
<path d="M1584,1676 L546,829" stroke="blue" stroke-width="2" />
<path d="M1326,1245 L721,1566" stroke="blue" stroke-width="2" />
<path d="M527,2750 L557,1449" stroke="blue" stroke-width="2" />
<path d="M636,3071 L1548,3131" stroke="blue" stroke-width="2" />
<path d="M1318,1262 L575,247" stroke="blue" stroke-width="2" />
<path d="M1399,659 L593,1734" stroke="blue" stroke-width="2" />
<path d="M742,2967 L565,1748" stroke="blue" stroke-width="2" />
<path d="M849,2952 L925,3092" stroke="blue" stroke-width="2" />
<path d="M571,1489 L190,1118" stroke="blue" stroke-width="2" />
<path d="M578,779 L1253,2704" stroke="blue" stroke-width="2" />
<path d="M1503,793 L338,2961" stroke="blue" stroke-width="2" />
<path d="M1510,14 L732,164" stroke="blue" stroke-width="2" />
<path d="M391,229 L1070,2503" stroke="blue" stroke-width="2" />
<path d="M353,1143 L1671,2752" stroke="blue" stroke-width="2" />
<path d="M1884,2987 L736,3282" stroke="blue" stroke-width="2" />
<path d="M1784,628 L1220,617" stroke="blue" stroke-width="2" />
<path d="M1550,2080 L631,1214" stroke="blue" stroke-width="2" />
<path d="M750,3170 L1769,262" stroke="blue" stroke-width="2" />
<path d="M365,1486 L893,659" stroke="blue" stroke-width="2" />
<path d="M1658,2565 L931,2760" stroke="blue" stroke-width="2" />
<path d="M1202,2483 L1809,2367" stroke="blue" stroke-width="2" />
<path d="M1653,376 L1911,1115" stroke="blue" stroke-width="2" />
<path d="M1224,2253 L721,688" stroke="blue" stroke-width="2" />
<path d="M1276,1179 L387,777" stroke="blue" stroke-width="2" />
<path d="M831,111 L385,226" stroke="blue" stroke-width="2" />
<path d="M1918,3249 L1615,3105" stroke="blue" stroke-width="2" />
<path d="M1074,2459 L499,1211" stroke="blue" stroke-width="2" />
<path d="M1883,1997 L1916,1089" stroke="blue" stroke-width="2" />
<path d="M496,3077 L1961,2223" stroke="blue" stroke-width="2" />
<path d="M1258,2015 L1004,1831" stroke="blue" stroke-width="2" />
<path d="M1754,2041 L1546,2625" stroke="blue" stroke-width="2" />
<path d="M701,2895 L1425,2911" stroke="blue" stroke-width="2" />
<path d="M702,24 L139,1243" stroke="blue" stroke-width="2" />
<path d="M1111,1669 L664,3083" stroke="blue" stroke-width="2" />
<path d="M1863,2881 L689,565" stroke="blue" stroke-width="2" />
<path d="M381,3021 L1630,509" stroke="blue" stroke-width="2" />
<path d="M48,168 L952,2021" stroke="blue" stroke-width="2" />
<path d="M626,2113 L746,806" stroke="blue" stroke-width="2" />
<path d="M197,1004 L1556,2669" stroke="blue" stroke-width="2" />
<path d="M949,2791 L1564,2920" stroke="blue" stroke-width="2" />
<path d="M672,678 L986,1223" stroke="blue" stroke-width="2" />
<path d="M535,1132 L948,2981" stroke="blue" stroke-width="2" />
<path d="M863,1656 L1767,306" stroke="blue" stroke-width="2" />
<path d="M809,1444 L445,448" stroke="blue" stroke-width="2" />
<path d="M773,188 L680,2225" stroke="blue" stroke-width="2" />
<path d="M69,1366 L1913,2834" stroke="blue" stroke-width="2" />
<path d="M1764,3091 L238,297" stroke="blue" stroke-width="2" />
<path d="M1031,2487 L1707,1227" stroke="blue" stroke-width="2" />
<path d="M1950,257 L764,1420" stroke="blue" stroke-width="2" />
<path d="M1400,3337 L602,3234" stroke="blue" stroke-width="2" />
<path d="M1630,1246 L1407,386" stroke="blue" stroke-width="2" />
<path d="M846,1121 L829,257" stroke="blue" stroke-width="2" />
<path d="M529,366 L1629,1139" stroke="blue" stroke-width="2" />
<path d="M84,1593 L1768,619" stroke="blue" stroke-width="2" />
<path d="M1894,2690 L1205,376" stroke="blue" stroke-width="2" />
<path d="M1585,55 L1331,227" stroke="blue" stroke-width="2" />
<path d="M304,2751 L1722,167" stroke="blue" stroke-width="2" />
<path d="M80,2272 L1669,399" stroke="blue" stroke-width="2" />
<path d="M1478,366 L1565,2340" stroke="blue" stroke-width="2" />
<path d="M1961,2386 L594,2211" stroke="blue" stroke-width="2" />
<path d="M321,1545 L34,3292" stroke="blue" stroke-width="2" />
<path d="M255,1285 L889,31" stroke="blue" stroke-width="2" />
<path d="M1758,2551 L1304,1030" stroke="blue" stroke-width="2" />
<path d="M58,2637 L348,1634" stroke="blue" stroke-width="2" />
<path d="M1636,2723 L1524,709" stroke="blue" stroke-width="2" />
<path d="M416,998 L803,46" stroke="blue" stroke-width="2" />
<path d="M1208,931 L794,2958" stroke="blue" stroke-width="2" />
<path d="M1783,1762 L604,3229" stroke="blue" stroke-width="2" />
<path d="M1122,2406 L658,1734" stroke="blue" stroke-width="2" />
<path d="M74,2978 L839,1643" stroke="blue" stroke-width="2" />
<path d="M294,918 L1210,3226" stroke="blue" stroke-width="2" />
<path d="M1191,906 L521,3039" stroke="blue" stroke-width="2" />
<path d="M1205,229 L384,2197" stroke="blue" stroke-width="2" />
<path d="M1906,2086 L117,2096" stroke="blue" stroke-width="2" />
<path d="M1850,337 L1303,1055" stroke="blue" stroke-width="2" />
<path d="M1903,860 L913,2382" stroke="blue" stroke-width="2" />
<path d="M1399,2410 L1737,3032" stroke="blue" stroke-width="2" />
<path d="M512,3252 L1031,3006" stroke="blue" stroke-width="2" />
<path d="M609,150 L1022,2755" stroke="blue" stroke-width="2" />
<path d="M80,665 L1216,2960" stroke="blue" stroke-width="2" />
<path d="M1204,1958 L822,2215" stroke="blue" stroke-width="2" />
<path d="M460,2585 L217,1029" stroke="blue" stroke-width="2" />
<path d="M1014,3224 L1684,1139" stroke="blue" stroke-width="2" />
<path d="M1023,1656 L667,244" stroke="blue" stroke-width="2" />
<path d="M938,2348 L1226,2894" stroke="blue" stroke-width="2" />
<path d="M1031,1952 L1374,401" stroke="blue" stroke-width="2" />
<path d="M341,2043 L1580,1182" stroke="blue" stroke-width="2" />
<path d="M1790,2395 L793,1780" stroke="blue" stroke-width="2" />
<path d="M1833,1571 L550,742" stroke="blue" stroke-width="2" />
<path d="M1376,388 L811,332" stroke="blue" stroke-width="2" />
<path d="M71,1518 L584,1416" stroke="blue" stroke-width="2" />
<path d="M469,1594 L565,1289" stroke="blue" stroke-width="2" />
<path d="M1501,1748 L1636,213" stroke="blue" stroke-width="2" />
<path d="M1104,1475 L290,1640" stroke="blue" stroke-width="2" />
<path d="M1030,493 L1565,2200" stroke="blue" stroke-width="2" />
<path d="M554,335 L321,353" stroke="blue" stroke-width="2" />
<path d="M834,2936 L1290,1644" stroke="blue" stroke-width="2" />
<path d="M1658,3300 L1265,2089" stroke="blue" stroke-width="2" />
<path d="M1446,3196 L222,2972" stroke="blue" stroke-width="2" />
<path d="M401,2408 L1623,3054" stroke="blue" stroke-width="2" />
<path d="M1495,3288 L535,2720" stroke="blue" stroke-width="2" />
<path d="M1858,254 L1199,3137" stroke="blue" stroke-width="2" />
<path d="M644,232 L995,2715" stroke="blue" stroke-width="2" />
<path d="M382,935 L1470,3160" stroke="blue" stroke-width="2" />
<path d="M1579,2648 L1145,2490" stroke="blue" stroke-width="2" />
<path d="M1279,1564 L463,1475" stroke="blue" stroke-width="2" />
<path d="M368,3186 L534,3087" stroke="blue" stroke-width="2" />
<path d="M1964,2176 L691,1525" stroke="blue" stroke-width="2" />
<path d="M935,2187 L976,117" stroke="blue" stroke-width="2" />
<path d="M773,2214 L1066,939" stroke="blue" stroke-width="2" />
<path d="M1665,172 L1775,613" stroke="blue" stroke-width="2" />
<path d="M1895,2315 L1804,712" stroke="blue" stroke-width="2" />
<path d="M419,274 L1652,162" stroke="blue" stroke-width="2" />
<path d="M1006,1456 L816,3096" stroke="blue" stroke-width="2" />
<path d="M528,1528 L790,3286" stroke="blue" stroke-width="2" />
<path d="M81,2891 L1297,330" stroke="blue" stroke-width="2" />
<path d="M31,2683 L640,2576" stroke="blue" stroke-width="2" />
<path d="M1262,2899 L37,148" stroke="blue" stroke-width="2" />
<path d="M1903,2190 L1395,932" stroke="blue" stroke-width="2" />
<path d="M495,92 L686,1978" stroke="blue" stroke-width="2" />
<path d="M1744,2968 L1011,2978" stroke="blue" stroke-width="2" />
<path d="M1671,1172 L1076,2216" stroke="blue" stroke-width="2" />
<path d="M1075,1227 L1955,1815" stroke="blue" stroke-width="2" />
<path d="M605,1627 L1478,1273" stroke="blue" stroke-width="2" />
<path d="M1644,742 L616,1699" stroke="blue" stroke-width="2" />
<path d="M762,1462 L1488,2508" stroke="blue" stroke-width="2" />
<path d="M1412,3042 L926,142" stroke="blue" stroke-width="2" />
<path d="M242,220 L1439,2529" stroke="blue" stroke-width="2" />
<path d="M1250,126 L1064,2272" stroke="blue" stroke-width="2" />
<path d="M1777,3260 L148,2240" stroke="blue" stroke-width="2" />
<path d="M351,3154 L1274,2358" stroke="blue" stroke-width="2" />
<path d="M842,361 L427,1437" stroke="blue" stroke-width="2" />
<path d="M1791,2421 L460,1952" stroke="blue" stroke-width="2" />
<path d="M648,1854 L1695,2509" stroke="blue" stroke-width="2" />
<path d="M606,3357 L218,1754" stroke="blue" stroke-width="2" />
<path d="M1166,1703 L1573,1781" stroke="blue" stroke-width="2" />
<path d="M1231,186 L837,1472" stroke="blue" stroke-width="2" />
<path d="M1060,1597 L1735,1134" stroke="blue" stroke-width="2" />
<path d="M235,2880 L570,2204" stroke="blue" stroke-width="2" />
<path d="M1950,1317 L1321,3343" stroke="blue" stroke-width="2" />
<path d="M168,3339 L1804,3060" stroke="blue" stroke-width="2" />
<path d="M503,2757 L900,2712" stroke="blue" stroke-width="2" />
<path d="M1094,2614 L1463,373" stroke="blue" stroke-width="2" />
<path d="M757,1361 L27,1817" stroke="blue" stroke-width="2" />
<path d="M1234,3012 L1510,2899" stroke="blue" stroke-width="2" />
<path d="M326,1906 L866,2295" stroke="blue" stroke-width="2" />
<path d="M1641,338 L1554,1135" stroke="blue" stroke-width="2" />
<path d="M565,1417 L1455,2534" stroke="blue" stroke-width="2" />
<path d="M958,3306 L109,1439" stroke="blue" stroke-width="2" />
<path d="M1154,2863 L670,1359" stroke="blue" stroke-width="2" />
<path d="M70,2809 L1398,846" stroke="blue" stroke-width="2" />
<path d="M1642,714 L1034,15" stroke="blue" stroke-width="2" />
<path d="M170,250 L761,962" stroke="blue" stroke-width="2" />
<path d="M820,3169 L1497,3139" stroke="blue" stroke-width="2" />
<path d="M1915,491 L527,2134" stroke="blue" stroke-width="2" />
<path d="M119,3098 L421,2097" stroke="blue" stroke-width="2" />
<path d="M1749,1307 L906,1430" stroke="blue" stroke-width="2" />
<path d="M739,3136 L267,1050" stroke="blue" stroke-width="2" />
<path d="M548,1467 L1604,2659" stroke="blue" stroke-width="2" />
<path d="M610,2758 L1698,698" stroke="blue" stroke-width="2" />
<path d="M1760,672 L465,1420" stroke="blue" stroke-width="2" />
<path d="M202,613 L1196,2759" stroke="blue" stroke-width="2" />
<path d="M1488,923 L1234,354" stroke="blue" stroke-width="2" />
<path d="M799,3058 L1705,1688" stroke="blue" stroke-width="2" />
<path d="M306,2247 L348,1053" stroke="blue" stroke-width="2" />
<path d="M611,3165 L711,1123" stroke="blue" stroke-width="2" />
<path d="M1563,987 L1341,2401" stroke="blue" stroke-width="2" />
<path d="M1526,1325 L1453,1099" stroke="blue" stroke-width="2" />
<path d="M557,1545 L254,821" stroke="blue" stroke-width="2" />
<path d="M1781,3346 L1339,2545" stroke="blue" stroke-width="2" />
<path d="M258,1082 L386,3176" stroke="blue" stroke-width="2" />
<path d="M110,1416 L256,3154" stroke="blue" stroke-width="2" />
<path d="M1510,81 L1958,1281" stroke="blue" stroke-width="2" />
<path d="M947,2690 L537,2945" stroke="blue" stroke-width="2" />
<path d="M1232,3302 L1535,345" stroke="blue" stroke-width="2" />
<path d="M1162,985 L1366,1747" stroke="blue" stroke-width="2" />
<path d="M894,1408 L1323,1194" stroke="blue" stroke-width="2" />
<path d="M738,2926 L1345,2839" stroke="blue" stroke-width="2" />
<path d="M1952,523 L1097,1184" stroke="blue" stroke-width="2" />
<path d="M1383,3289 L1445,1724" stroke="blue" stroke-width="2" />
<path d="M1820,918 L466,2211" stroke="blue" stroke-width="2" />
<path d="M865,734 L1645,75" stroke="blue" stroke-width="2" />
<path d="M1275,507 L955,2008" stroke="blue" stroke-width="2" />
<path d="M1606,614 L1243,2351" stroke="blue" stroke-width="2" />
<path d="M840,3217 L309,1568" stroke="blue" stroke-width="2" />
<path d="M1727,1415 L1293,678" stroke="blue" stroke-width="2" />
<path d="M1340,1449 L221,2981" stroke="blue" stroke-width="2" />
<path d="M1277,112 L1210,2879" stroke="blue" stroke-width="2" />
<path d="M427,1664 L1251,2430" stroke="blue" stroke-width="2" />
<path d="M1859,312 L24,352" stroke="blue" stroke-width="2" />
<path d="M210,732 L1565,960" stroke="blue" stroke-width="2" />
<path d="M251,464 L1650,3176" stroke="blue" stroke-width="2" />
<path d="M417,2597 L1054,755" stroke="blue" stroke-width="2" />
<path d="M847,2545 L460,1160" stroke="blue" stroke-width="2" />
<path d="M1505,1841 L364,2992" stroke="blue" stroke-width="2" />
<path d="M213,820 L897,796" stroke="blue" stroke-width="2" />
<path d="M580,2662 L530,2850" stroke="blue" stroke-width="2" />
<path d="M1295,3307 L1393,3291" stroke="blue" stroke-width="2" />
<path d="M1943,1951 L1574,2232" stroke="blue" stroke-width="2" />
<path d="M447,2078 L168,173" stroke="blue" stroke-width="2" />
<path d="M1070,1400 L70,1996" stroke="blue" stroke-width="2" />
<path d="M50,460 L468,1037" stroke="blue" stroke-width="2" />
<path d="M1218,2599 L1513,1401" stroke="blue" stroke-width="2" />
<path d="M1165,2201 L121,2799" stroke="blue" stroke-width="2" />
<path d="M869,3317 L1283,1540" stroke="blue" stroke-width="2" />
<path d="M240,1939 L1474,539" stroke="blue" stroke-width="2" />
<path d="M1281,2469 L765,353" stroke="blue" stroke-width="2" />
<path d="M1718,2783 L260,1782" stroke="blue" stroke-width="2" />
<path d="M1127,1393 L1092,2530" stroke="blue" stroke-width="2" />
<path d="M1516,2171 L1592,1739" stroke="blue" stroke-width="2" />
<path d="M89,497 L585,2070" stroke="blue" stroke-width="2" />
<path d="M342,2113 L1648,3139" stroke="blue" stroke-width="2" />
<path d="M1093,3328 L250,2452" stroke="blue" stroke-width="2" />
<path d="M1733,950 L1795,1126" stroke="blue" stroke-width="2" />
<path d="M25,1612 L1232,79" stroke="blue" stroke-width="2" />
<path d="M808,1335 L69,497" stroke="blue" stroke-width="2" />
<path d="M1189,2985 L1713,2963" stroke="blue" stroke-width="2" />
<path d="M315,1375 L1762,2331" stroke="blue" stroke-width="2" />
<path d="M141,3168 L1519,2169" stroke="blue" stroke-width="2" />
<path d="M1322,2665 L1164,2203" stroke="blue" stroke-width="2" />
<path d="M1058,850 L902,2557" stroke="blue" stroke-width="2" />
<path d="M331,3191 L765,1746" stroke="blue" stroke-width="2" />
<path d="M905,3066 L80,72" stroke="blue" stroke-width="2" />
<path d="M406,944 L769,1499" stroke="blue" stroke-width="2" />
<path d="M1600,709 L507,1436" stroke="blue" stroke-width="2" />
<path d="M886,1905 L512,3107" stroke="blue" stroke-width="2" />
<path d="M210,1669 L958,3283" stroke="blue" stroke-width="2" />
<path d="M117,3254 L1399,1388" stroke="blue" stroke-width="2" />
<path d="M58,1122 L1235,2316" stroke="blue" stroke-width="2" />
<path d="M1702,2992 L464,2163" stroke="blue" stroke-width="2" />
<path d="M863,1147 L559,1194" stroke="blue" stroke-width="2" />
<path d="M59,2308 L365,2636" stroke="blue" stroke-width="2" />
<path d="M64,246 L781,2887" stroke="blue" stroke-width="2" />
<path d="M1504,808 L595,1527" stroke="blue" stroke-width="2" />
<path d="M1748,2687 L1683,217" stroke="blue" stroke-width="2" />
<path d="M444,363 L1930,187" stroke="blue" stroke-width="2" />
<path d="M1065,2751 L59,875" stroke="blue" stroke-width="2" />
<path d="M361,3190 L1707,3336" stroke="blue" stroke-width="2" />
<path d="M1247,737 L1277,2902" stroke="blue" stroke-width="2" />
<path d="M1813,202 L1223,947" stroke="blue" stroke-width="2" />
<path d="M1097,120 L1711,2404" stroke="blue" stroke-width="2" />
<path d="M866,1741 L1941,1595" stroke="blue" stroke-width="2" />
<path d="M708,1641 L244,3117" stroke="blue" stroke-width="2" />
<path d="M1554,1243 L1677,1904" stroke="blue" stroke-width="2" />
<path d="M1423,2960 L1533,795" stroke="blue" stroke-width="2" />
<path d="M1083,683 L626,3296" stroke="blue" stroke-width="2" />
<path d="M1412,2674 L1195,3271" stroke="blue" stroke-width="2" />
<path d="M557,2550 L738,3319" stroke="blue" stroke-width="2" />
<path d="M1069,706 L1926,3203" stroke="blue" stroke-width="2" />
<path d="M1815,9 L266,1424" stroke="blue" stroke-width="2" />
<path d="M774,23 L1,3262" stroke="blue" stroke-width="2" />
<path d="M630,1737 L1582,136" stroke="blue" stroke-width="2" />
<path d="M178,2174 L1578,67" stroke="blue" stroke-width="2" />
<path d="M1025,2524 L10,1621" stroke="blue" stroke-width="2" />
<path d="M1814,2155 L985,1372" stroke="blue" stroke-width="2" />
<path d="M200,2375 L620,2906" stroke="blue" stroke-width="2" />
<path d="M790,518 L1824,20" stroke="blue" stroke-width="2" />
<path d="M694,2208 L1522,2370" stroke="blue" stroke-width="2" />
<path d="M590,1147 L1331,2315" stroke="blue" stroke-width="2" />
<path d="M840,2347 L1041,2899" stroke="blue" stroke-width="2" />
<path d="M1155,2889 L1792,1278" stroke="blue" stroke-width="2" />
<path d="M1216,938 L1463,2142" stroke="blue" stroke-width="2" />
<path d="M617,364 L1054,2993" stroke="blue" stroke-width="2" />
<path d="M657,2544 L943,30" stroke="blue" stroke-width="2" />
<path d="M573,2574 L1796,2975" stroke="blue" stroke-width="2" />
<path d="M755,482 L371,3053" stroke="blue" stroke-width="2" />
<path d="M1656,1139 L3,2706" stroke="blue" stroke-width="2" />
<path d="M481,1707 L1814,1354" stroke="blue" stroke-width="2" />
<path d="M1922,1546 L1368,219" stroke="blue" stroke-width="2" />
<path d="M450,2570 L1000,3139" stroke="blue" stroke-width="2" />
<path d="M1869,2416 L1198,1515" stroke="blue" stroke-width="2" />
<path d="M884,877 L1444,2963" stroke="blue" stroke-width="2" />
<path d="M170,1041 L1111,752" stroke="blue" stroke-width="2" />
<path d="M23,2855 L30,3226" stroke="blue" stroke-width="2" />
<path d="M1311,1833 L1380,1254" stroke="blue" stroke-width="2" />
<path d="M520,2708 L1525,2253" stroke="blue" stroke-width="2" />
<path d="M1586,2980 L1957,782" stroke="blue" stroke-width="2" />
<path d="M1431,533 L1063,2476" stroke="blue" stroke-width="2" />
<path d="M1276,2912 L458,471" stroke="blue" stroke-width="2" />
<path d="M747,1663 L14,3116" stroke="blue" stroke-width="2" />
<path d="M1328,26 L110,2236" stroke="blue" stroke-width="2" />
<path d="M1099,1166 L535,2531" stroke="blue" stroke-width="2" />
<path d="M43,2634 L811,462" stroke="blue" stroke-width="2" />
<path d="M1530,258 L142,101" stroke="blue" stroke-width="2" />
<path d="M1015,1142 L178,568" stroke="blue" stroke-width="2" />
<path d="M1879,877 L1026,52" stroke="blue" stroke-width="2" />
<path d="M905,600 L244,250" stroke="blue" stroke-width="2" />
<path d="M1328,3011 L1888,7" stroke="blue" stroke-width="2" />
<path d="M146,3349 L721,3271" stroke="blue" stroke-width="2" />
<path d="M604,129 L1408,460" stroke="blue" stroke-width="2" />
<path d="M1881,1012 L1866,2951" stroke="blue" stroke-width="2" />
<path d="M1730,3240 L534,1491" stroke="blue" stroke-width="2" />
<path d="M1246,2667 L1842,1762" stroke="blue" stroke-width="2" />
<path d="M526,1404 L304,720" stroke="blue" stroke-width="2" />
<path d="M1096,2082 L1114,2083" stroke="blue" stroke-width="2" />
<path d="M1475,1605 L627,1540" stroke="blue" stroke-width="2" />
<path d="M567,1107 L1655,205" stroke="blue" stroke-width="2" />
<path d="M1087,618 L73,1564" stroke="blue" stroke-width="2" />
<path d="M1724,2017 L710,3026" stroke="blue" stroke-width="2" />
<path d="M366,330 L561,222" stroke="blue" stroke-width="2" />
<path d="M1395,2906 L1373,2229" stroke="blue" stroke-width="2" />
<path d="M604,2006 L340,1232" stroke="blue" stroke-width="2" />
<path d="M237,2494 L1842,3004" stroke="blue" stroke-width="2" />
<path d="M1926,3085 L1937,2635" stroke="blue" stroke-width="2" />
<path d="M1816,966 L1695,453" stroke="blue" stroke-width="2" />
<path d="M1790,1316 L172,3060" stroke="blue" stroke-width="2" />
<path d="M1150,1798 L316,2447" stroke="blue" stroke-width="2" />
<path d="M1101,3060 L115,95" stroke="blue" stroke-width="2" />
<path d="M1285,2564 L811,947" stroke="blue" stroke-width="2" />
<path d="M622,682 L1547,1024" stroke="blue" stroke-width="2" />
<path d="M226,1998 L1740,3202" stroke="blue" stroke-width="2" />
<path d="M1209,419 L233,489" stroke="blue" stroke-width="2" />
<path d="M47,990 L1908,2216" stroke="blue" stroke-width="2" />
<path d="M1209,2329 L1531,211" stroke="blue" stroke-width="2" />
<path d="M1193,3058 L808,2909" stroke="blue" stroke-width="2" />
<path d="M19,85 L1767,2244" stroke="blue" stroke-width="2" />
<path d="M1232,1053 L359,340" stroke="blue" stroke-width="2" />
<path d="M1933,2526 L1499,906" stroke="blue" stroke-width="2" />
<path d="M1908,2047 L1121,59" stroke="blue" stroke-width="2" />
<path d="M36,3147 L1664,1814" stroke="blue" stroke-width="2" />
<path d="M1723,1253 L566,2175" stroke="blue" stroke-width="2" />
<path d="M1948,2775 L1621,177" stroke="blue" stroke-width="2" />
<path d="M1429,3196 L1101,58" stroke="blue" stroke-width="2" />
<path d="M731,3021 L1497,2435" stroke="blue" stroke-width="2" />
<path d="M199,23 L753,925" stroke="blue" stroke-width="2" />
<path d="M1491,1733 L1704,2449" stroke="blue" stroke-width="2" />
<path d="M560,639 L731,556" stroke="blue" stroke-width="2" />
<path d="M401,1592 L1504,753" stroke="blue" stroke-width="2" />
<path d="M65,2849 L1264,1985" stroke="blue" stroke-width="2" />
<path d="M164,2167 L745,2370" stroke="blue" stroke-width="2" />
<path d="M1481,2129 L4,1493" stroke="blue" stroke-width="2" />
<path d="M1837,1678 L68,1429" stroke="blue" stroke-width="2" />
<path d="M1805,2700 L1579,2422" stroke="blue" stroke-width="2" />
<path d="M457,128 L1358,1355" stroke="blue" stroke-width="2" />
<path d="M87,428 L749,739" stroke="blue" stroke-width="2" />
<path d="M1125,2576 L1603,2774" stroke="blue" stroke-width="2" />
<path d="M1588,410 L1834,3084" stroke="blue" stroke-width="2" />
<path d="M64,516 L146,66" stroke="blue" stroke-width="2" />
<path d="M69,1179 L1296,3314" stroke="blue" stroke-width="2" />
<path d="M364,3021 L1746,2492" stroke="blue" stroke-width="2" />
<path d="M203,1768 L1549,461" stroke="blue" stroke-width="2" />
<path d="M1280,1129 L487,2971" stroke="blue" stroke-width="2" />
<path d="M1204,2016 L800,1796" stroke="blue" stroke-width="2" />
<path d="M1303,2957 L76,84" stroke="blue" stroke-width="2" />
<path d="M1682,2027 L1355,23" stroke="blue" stroke-width="2" />
<path d="M0,0 L1965,0" stroke="red" stroke-width="10" />
<path d="M1965,0 L1965,3359" stroke="red" stroke-width="10" />
<path d="M0,3359 L1965,3359" stroke="red" stroke-width="10" />
<path d="M0,3359 L0,0" stroke="red" stroke-width="10" />
</svg>