<?xml version="1.0" encoding="UTF-8"?>
<svg xmlns="http://www.w3.org/2000/svg" xmlns:xlink="http://www.w3.org/1999/xlink"
     width="10000" height="10000" viewBox="0 0 10000 10000">
<defs>
</defs>
<path d="M2782,1164 L2241,4851" stroke="blue" stroke-width="2" />
<path d="M2558,2698 L3707,5815" stroke="blue" stroke-width="2" />
<path d="M2263,2566 L2355,2550" stroke="blue" stroke-width="2" />
<path d="M1996,4979 L2463,5984" stroke="blue" stroke-width="2" />
<path d="M339,6048 L1299,4669" stroke="blue" stroke-width="2" />
<path d="M1997,6298 L2751,3156" stroke="blue" stroke-width="2" />
<path d="M2294,4223 L830,1914" stroke="blue" stroke-width="2" />
<path d="M1600,3025 L2464,5781" stroke="blue" stroke-width="2" />
<path d="M1780,199 L184,5621" stroke="blue" stroke-width="2" />
<path d="M1097,1921 L1566,5319" stroke="blue" stroke-width="2" />
<path d="M2698,5227 L3049,2868" stroke="blue" stroke-width="2" />
<path d="M3814,787 L1828,635" stroke="blue" stroke-width="2" />
<path d="M1128,6269 L3331,2951" stroke="blue" stroke-width="2" />
<path d="M3024,5193 L2155,2734" stroke="blue" stroke-width="2" />
<path d="M1179,577 L3324,4243" stroke="blue" stroke-width="2" />
<path d="M2503,4267 L584,3282" stroke="blue" stroke-width="2" />
<path d="M3776,3081 L1303,5158" stroke="blue" stroke-width="2" />
<path d="M2141,973 L1890,4461" stroke="blue" stroke-width="2" />
<path d="M685,6165 L1040,889" stroke="blue" stroke-width="2" />
<path d="M3056,1177 L1647,3871" stroke="blue" stroke-width="2" />
<path d="M840,132 L3047,3429" stroke="blue" stroke-width="2" />
<path d="M830,517 L484,1366" stroke="blue" stroke-width="2" />
<path d="M2072,196 L1499,3340" stroke="blue" stroke-width="2" />
<path d="M1681,4125 L3108,3949" stroke="blue" stroke-width="2" />
<path d="M197,920 L1055,4737" stroke="blue" stroke-width="2" />
<path d="M747,5270 L3017,4599" stroke="blue" stroke-width="2" />
<path d="M2056,3360 L3875,5804" stroke="blue" stroke-width="2" />
<path d="M2140,3918 L2517,2433" stroke="blue" stroke-width="2" />
<path d="M202,4831 L2403,2022" stroke="blue" stroke-width="2" />
<path d="M2444,2177 L2222,5965" stroke="blue" stroke-width="2" />
<path d="M310,2131 L196,2817" stroke="blue" stroke-width="2" />
<path d="M310,5587 L2555,648" stroke="blue" stroke-width="2" />
<path d="M3609,3659 L3702,4391" stroke="blue" stroke-width="2" />
<path d="M1709,5061 L3573,2378" stroke="blue" stroke-width="2" />
<path d="M767,5425 L3318,2781" stroke="blue" stroke-width="2" />
<path d="M1572,3604 L1374,1744" stroke="blue" stroke-width="2" />
<path d="M2742,3888 L1951,3655" stroke="blue" stroke-width="2" />
<path d="M33,1771 L1816,145" stroke="blue" stroke-width="2" />
<path d="M443,235 L3357,4171" stroke="blue" stroke-width="2" />
<path d="M1677,335 L3000,4544" stroke="blue" stroke-width="2" />
<path d="M1166,4855 L3400,334" stroke="blue" stroke-width="2" />
<path d="M1481,2733 L1423,875" stroke="blue" stroke-width="2" />
<path d="M2821,5217 L3767,1306" stroke="blue" stroke-width="2" />
<path d="M2522,5855 L1777,2393" stroke="blue" stroke-width="2" />
<path d="M888,4938 L2103,594" stroke="blue" stroke-width="2" />
<path d="M1748,5611 L1089,3205" stroke="blue" stroke-width="2" />
<path d="M595,5869 L3903,3742" stroke="blue" stroke-width="2" />
<path d="M808,2084 L1335,2427" stroke="blue" stroke-width="2" />
<path d="M739,5319 L1107,3190" stroke="blue" stroke-width="2" />
<path d="M1496,2469 L1936,1697" stroke="blue" stroke-width="2" />
<path d="M2028,6298 L1187,3970" stroke="blue" stroke-width="2" />
<path d="M3476,5646 L3561,1924" stroke="blue" stroke-width="2" />
<path d="M3430,4481 L68,4059" stroke="blue" stroke-width="2" />
<path d="M2116,2451 L3260,250" stroke="blue" stroke-width="2" />
<path d="M1340,1940 L1598,72" stroke="blue" stroke-width="2" />
<path d="M1582,1385 L1656,1231" stroke="blue" stroke-width="2" />
<path d="M1485,5073 L502,2669" stroke="blue" stroke-width="2" />
<path d="M3152,5452 L510,2494" stroke="blue" stroke-width="2" />
<path d="M3109,3692 L3008,505" stroke="blue" stroke-width="2" />
<path d="M460,3637 L464,4583" stroke="blue" stroke-width="2" />
<path d="M1692,5058 L2798,1131" stroke="blue" stroke-width="2" />
<path d="M2142,3740 L134,709" stroke="blue" stroke-width="2" />
<path d="M2445,6236 L2365,4284" stroke="blue" stroke-width="2" />
<path d="M1108,3272 L1179,2078" stroke="blue" stroke-width="2" />
<path d="M234,5664 L37,39" stroke="blue" stroke-width="2" />
<path d="M2643,5856 L2518,4947" stroke="blue" stroke-width="2" />
<path d="M2754,4718 L1847,2604" stroke="blue" stroke-width="2" />
<path d="M3405,846 L537,2572" stroke="blue" stroke-width="2" />
<path d="M1245,1823 L3244,2914" stroke="blue" stroke-width="2" />
<path d="M2289,2720 L1447,1397" stroke="blue" stroke-width="2" />
<path d="M3340,200 L2788,1934" stroke="blue" stroke-width="2" />
<path d="M1745,2480 L273,4103" stroke="blue" stroke-width="2" />
<path d="M221,4360 L1783,1830" stroke="blue" stroke-width="2" />
<path d="M3534,1832 L3826,6172" stroke="blue" stroke-width="2" />
<path d="M707,4333 L1743,4903" stroke="blue" stroke-width="2" />
<path d="M1547,3413 L1139,4692" stroke="blue" stroke-width="2" />
<path d="M876,2262 L8,635" stroke="blue" stroke-width="2" />
<path d="M2495,3653 L1827,3884" stroke="blue" stroke-width="2" />
<path d="M1047,5413 L2831,2035" stroke="blue" stroke-width="2" />
<path d="M2536,5096 L404,25" stroke="blue" stroke-width="2" />
<path d="M1331,69 L120,5959" stroke="blue" stroke-width="2" />
<path d="M821,5475 L2670,2041" stroke="blue" stroke-width="2" />
<path d="M3768,1490 L2520,1389" stroke="blue" stroke-width="2" />
<path d="M3121,2306 L523,4370" stroke="blue" stroke-width="2" />
<path d="M2786,6256 L2334,6279" stroke="blue" stroke-width="2" />
<path d="M3770,1179 L1793,4555" stroke="blue" stroke-width="2" />
<path d="M535,2882 L1864,3487" stroke="blue" stroke-width="2" />
<path d="M92,3844 L3136,1677" stroke="blue" stroke-width="2" />
<path d="M1004,3655 L905,762" stroke="blue" stroke-width="2" />
<path d="M3689,4599 L3886,4873" stroke="blue" stroke-width="2" />
<path d="M462,3217 L2854,2959" stroke="blue" stroke-width="2" />
<path d="M3366,2352 L2267,3785" stroke="blue" stroke-width="2" />
<path d="M254,6263 L2618,228" stroke="blue" stroke-width="2" />
<path d="M1145,3849 L3822,2863" stroke="blue" stroke-width="2" />
<path d="M0,0 L3909,0" stroke="red" stroke-width="10" />
<path d="M3909,0 L3909,6333" stroke="red" stroke-width="10" />
<path d="M0,6333 L3909,6333" stroke="red" stroke-width="10" />
<path d="M0,6333 L0,0" stroke="red" stroke-width="10" />
</svg>