<?xml version="1.0" encoding="UTF-8"?>
<svg xmlns="http://www.w3.org/2000/svg" xmlns:xlink="http://www.w3.org/1999/xlink"
     width="10000" height="10000" viewBox="0 0 10000 10000">
<defs>
</defs>
<path d="M178,926 L269,2088" stroke="blue" stroke-width="2" />
<path d="M1406,3302 L1761,3422" stroke="blue" stroke-width="2" />
<path d="M1434,3849 L1479,3933" stroke="blue" stroke-width="2" />
<path d="M1320,2340 L596,2693" stroke="blue" stroke-width="2" />
<path d="M1004,2533 L512,798" stroke="blue" stroke-width="2" />
<path d="M138,1029 L1312,2471" stroke="blue" stroke-width="2" />
<path d="M820,454 L1404,463" stroke="blue" stroke-width="2" />
<path d="M1292,3235 L2336,2687" stroke="blue" stroke-width="2" />
<path d="M1113,2011 L2471,1079" stroke="blue" stroke-width="2" />
<path d="M1086,1258 L2407,2688" stroke="blue" stroke-width="2" />
<path d="M1815,3284 L832,3192" stroke="blue" stroke-width="2" />
<path d="M1833,4015 L2188,178" stroke="blue" stroke-width="2" />
<path d="M1918,1386 L674,2063" stroke="blue" stroke-width="2" />
<path d="M1277,1630 L1753,2253" stroke="blue" stroke-width="2" />
<path d="M2082,2854 L1491,3344" stroke="blue" stroke-width="2" />
<path d="M2455,3833 L291,3255" stroke="blue" stroke-width="2" />
<path d="M476,1229 L2609,2516" stroke="blue" stroke-width="2" />
<path d="M1178,217 L654,610" stroke="blue" stroke-width="2" />
<path d="M103,2177 L735,1172" stroke="blue" stroke-width="2" />
<path d="M270,133 L2487,2698" stroke="blue" stroke-width="2" />
<path d="M1865,795 L788,1049" stroke="blue" stroke-width="2" />
<path d="M2460,2640 L2536,2450" stroke="blue" stroke-width="2" />
<path d="M1709,3131 L132,3152" stroke="blue" stroke-width="2" />
<path d="M305,270 L1044,3906" stroke="blue" stroke-width="2" />
<path d="M781,3294 L2447,3939" stroke="blue" stroke-width="2" />
<path d="M736,3253 L1452,3222" stroke="blue" stroke-width="2" />
<path d="M1465,2453 L2049,3551" stroke="blue" stroke-width="2" />
<path d="M1676,63 L1926,2127" stroke="blue" stroke-width="2" />
<path d="M1564,1627 L1702,2840" stroke="blue" stroke-width="2" />
<path d="M1076,3980 L2074,2207" stroke="blue" stroke-width="2" />
<path d="M127,2198 L2605,341" stroke="blue" stroke-width="2" />
<path d="M1873,1776 L1616,3440" stroke="blue" stroke-width="2" />
<path d="M2268,488 L648,3199" stroke="blue" stroke-width="2" />
<path d="M2235,3124 L1332,2904" stroke="blue" stroke-width="2" />
<path d="M1213,3928 L1495,3523" stroke="blue" stroke-width="2" />
<path d="M246,974 L2021,3688" stroke="blue" stroke-width="2" />
<path d="M1594,4034 L2034,2219" stroke="blue" stroke-width="2" />
<path d="M197,3211 L1636,3255" stroke="blue" stroke-width="2" />
<path d="M188,2749 L2310,3294" stroke="blue" stroke-width="2" />
<path d="M1927,3159 L600,2313" stroke="blue" stroke-width="2" />
<path d="M900,2668 L2261,168" stroke="blue" stroke-width="2" />
<path d="M2560,2782 L940,3783" stroke="blue" stroke-width="2" />
<path d="M1714,2358 L503,1130" stroke="blue" stroke-width="2" />
<path d="M14,685 L1261,1233" stroke="blue" stroke-width="2" />
<path d="M810,1340 L2671,3698" stroke="blue" stroke-width="2" />
<path d="M591,3678 L2394,2888" stroke="blue" stroke-width="2" />
<path d="M1818,529 L965,3026" stroke="blue" stroke-width="2" />
<path d="M2037,2984 L1749,630" stroke="blue" stroke-width="2" />
<path d="M357,90 L925,3264" stroke="blue" stroke-width="2" />
<path d="M726,1420 L1743,4079" stroke="blue" stroke-width="2" />
<path d="M1674,3550 L694,1673" stroke="blue" stroke-width="2" />
<path d="M177,1726 L1913,3052" stroke="blue" stroke-width="2" />
<path d="M781,2065 L495,3213" stroke="blue" stroke-width="2" />
<path d="M826,3377 L399,1332" stroke="blue" stroke-width="2" />
<path d="M185,2186 L1426,1302" stroke="blue" stroke-width="2" />
<path d="M2188,1920 L2016,3752" stroke="blue" stroke-width="2" />
<path d="M2218,2808 L1972,2807" stroke="blue" stroke-width="2" />
<path d="M994,341 L1777,919" stroke="blue" stroke-width="2" />
<path d="M687,1326 L528,3436" stroke="blue" stroke-width="2" />
<path d="M527,3379 L835,2772" stroke="blue" stroke-width="2" />
<path d="M373,2922 L616,2179" stroke="blue" stroke-width="2" />
<path d="M2634,2847 L2711,2907" stroke="blue" stroke-width="2" />
<path d="M2422,977 L282,3706" stroke="blue" stroke-width="2" />
<path d="M438,2220 L736,3992" stroke="blue" stroke-width="2" />
<path d="M1786,1710 L2701,2912" stroke="blue" stroke-width="2" />
<path d="M1376,308 L2188,3446" stroke="blue" stroke-width="2" />
<path d="M2420,3405 L2231,1788" stroke="blue" stroke-width="2" />
<path d="M2687,1527 L1815,1075" stroke="blue" stroke-width="2" />
<path d="M2013,734 L2403,2848" stroke="blue" stroke-width="2" />
<path d="M2560,1272 L918,3655" stroke="blue" stroke-width="2" />
<path d="M87,235 L1622,605" stroke="blue" stroke-width="2" />
<path d="M999,3723 L118,1896" stroke="blue" stroke-width="2" />
<path d="M7,2277 L2169,3638" stroke="blue" stroke-width="2" />
<path d="M447,3882 L1607,223" stroke="blue" stroke-width="2" />
<path d="M1415,1507 L430,1924" stroke="blue" stroke-width="2" />
<path d="M1110,3028 L2483,1611" stroke="blue" stroke-width="2" />
<path d="M1732,3545 L2476,2378" stroke="blue" stroke-width="2" />
<path d="M1056,373 L2379,1083" stroke="blue" stroke-width="2" />
<path d="M2444,1884 L2580,3181" stroke="blue" stroke-width="2" />
<path d="M479,3337 L1324,3251" stroke="blue" stroke-width="2" />
<path d="M2630,1750 L1765,1337" stroke="blue" stroke-width="2" />
<path d="M788,1976 L2071,193" stroke="blue" stroke-width="2" />
<path d="M1269,416 L2673,1149" stroke="blue" stroke-width="2" />
<path d="M747,3349 L2437,43" stroke="blue" stroke-width="2" />
<path d="M53,3378 L1877,2988" stroke="blue" stroke-width="2" />
<path d="M2659,584 L2435,3720" stroke="blue" stroke-width="2" />
<path d="M2621,2891 L508,3643" stroke="blue" stroke-width="2" />
<path d="M584,3627 L1982,2550" stroke="blue" stroke-width="2" />
<path d="M953,3279 L2599,2738" stroke="blue" stroke-width="2" />
<path d="M753,3777 L2221,3768" stroke="blue" stroke-width="2" />
<path d="M829,3312 L1337,1091" stroke="blue" stroke-width="2" />
<path d="M610,278 L1803,2521" stroke="blue" stroke-width="2" />
<path d="M2398,2952 L2006,3943" stroke="blue" stroke-width="2" />
<path d="M180,1034 L2048,3040" stroke="blue" stroke-width="2" />
<path d="M1402,1096 L1077,432" stroke="blue" stroke-width="2" />
<path d="M2093,2027 L932,2301" stroke="blue" stroke-width="2" />
<path d="M912,358 L852,1901" stroke="blue" stroke-width="2" />
<path d="M582,1575 L1013,3385" stroke="blue" stroke-width="2" />
<path d="M2474,688 L1643,2723" stroke="blue" stroke-width="2" />
<path d="M1571,3921 L437,1363" stroke="blue" stroke-width="2" />
<path d="M468,871 L2246,3924" stroke="blue" stroke-width="2" />
<path d="M2252,3519 L2044,3329" stroke="blue" stroke-width="2" />
<path d="M85,3872 L1902,1899" stroke="blue" stroke-width="2" />
<path d="M2429,3422 L968,2494" stroke="blue" stroke-width="2" />
<path d="M924,1939 L1142,2034" stroke="blue" stroke-width="2" />
<path d="M805,1325 L1074,4015" stroke="blue" stroke-width="2" />
<path d="M376,3724 L206,242" stroke="blue" stroke-width="2" />
<path d="M943,684 L1727,3969" stroke="blue" stroke-width="2" />
<path d="M1878,511 L326,3519" stroke="blue" stroke-width="2" />
<path d="M931,83 L2235,2594" stroke="blue" stroke-width="2" />
<path d="M92,522 L791,1208" stroke="blue" stroke-width="2" />
<path d="M1229,511 L1190,250" stroke="blue" stroke-width="2" />
<path d="M2271,2176 L1980,3182" stroke="blue" stroke-width="2" />
<path d="M98,157 L1251,2879" stroke="blue" stroke-width="2" />
<path d="M2500,1363 L1071,1940" stroke="blue" stroke-width="2" />
<path d="M1431,208 L677,2066" stroke="blue" stroke-width="2" />
<path d="M2318,3740 L2232,1860" stroke="blue" stroke-width="2" />
<path d="M430,1879 L84,2068" stroke="blue" stroke-width="2" />
<path d="M2049,602 L2419,3671" stroke="blue" stroke-width="2" />
<path d="M1275,1790 L2325,2809" stroke="blue" stroke-width="2" />
<path d="M2323,363 L668,1511" stroke="blue" stroke-width="2" />
<path d="M2083,1497 L2666,1996" stroke="blue" stroke-width="2" />
<path d="M2413,2422 L2166,1438" stroke="blue" stroke-width="2" />
<path d="M222,3246 L958,7" stroke="blue" stroke-width="2" />
<path d="M1015,734 L2597,1170" stroke="blue" stroke-width="2" />
<path d="M1988,1841 L107,319" stroke="blue" stroke-width="2" />
<path d="M1008,1124 L2384,1213" stroke="blue" stroke-width="2" />
<path d="M2004,3091 L1266,396" stroke="blue" stroke-width="2" />
<path d="M918,1361 L1664,1144" stroke="blue" stroke-width="2" />
<path d="M790,4058 L1579,1954" stroke="blue" stroke-width="2" />
<path d="M2326,1064 L1330,4083" stroke="blue" stroke-width="2" />
<path d="M460,1625 L2154,2956" stroke="blue" stroke-width="2" />
<path d="M1764,3903 L1763,4047" stroke="blue" stroke-width="2" />
<path d="M1295,960 L1939,40" stroke="blue" stroke-width="2" />
<path d="M2713,1674 L1122,1901" stroke="blue" stroke-width="2" />
<path d="M1441,705 L1582,1763" stroke="blue" stroke-width="2" />
<path d="M802,3464 L427,185" stroke="blue" stroke-width="2" />
<path d="M27,361 L1553,912" stroke="blue" stroke-width="2" />
<path d="M828,984 L2614,3256" stroke="blue" stroke-width="2" />
<path d="M550,1644 L1529,1471" stroke="blue" stroke-width="2" />
<path d="M2618,3262 L927,988" stroke="blue" stroke-width="2" />
<path d="M656,661 L1319,2945" stroke="blue" stroke-width="2" />
<path d="M1644,2635 L532,3312" stroke="blue" stroke-width="2" />
<path d="M33,4057 L906,3973" stroke="blue" stroke-width="2" />
<path d="M1259,2094 L1480,622" stroke="blue" stroke-width="2" />
<path d="M191,2810 L1428,3502" stroke="blue" stroke-width="2" />
<path d="M1332,3494 L1635,141" stroke="blue" stroke-width="2" />
<path d="M432,179 L279,2578" stroke="blue" stroke-width="2" />
<path d="M2695,660 L465,2233" stroke="blue" stroke-width="2" />
<path d="M464,696 L901,3342" stroke="blue" stroke-width="2" />
<path d="M43,1024 L2515,783" stroke="blue" stroke-width="2" />
<path d="M1357,393 L236,1097" stroke="blue" stroke-width="2" />
<path d="M202,1591 L1025,4012" stroke="blue" stroke-width="2" />
<path d="M1852,758 L1602,1880" stroke="blue" stroke-width="2" />
<path d="M1885,2563 L2452,640" stroke="blue" stroke-width="2" />
<path d="M2640,636 L2399,3247" stroke="blue" stroke-width="2" />
<path d="M2056,3019 L1361,3041" stroke="blue" stroke-width="2" />
<path d="M702,2644 L2334,2768" stroke="blue" stroke-width="2" />
<path d="M1401,1308 L389,2629" stroke="blue" stroke-width="2" />
<path d="M101,2048 L430,386" stroke="blue" stroke-width="2" />
<path d="M915,2014 L1760,3220" stroke="blue" stroke-width="2" />
<path d="M2287,2697 L708,341" stroke="blue" stroke-width="2" />
<path d="M144,1447 L1797,25" stroke="blue" stroke-width="2" />
<path d="M1825,3244 L2561,1356" stroke="blue" stroke-width="2" />
<path d="M2014,1430 L654,2212" stroke="blue" stroke-width="2" />
<path d="M2645,1435 L491,1291" stroke="blue" stroke-width="2" />
<path d="M2628,670 L96,2352" stroke="blue" stroke-width="2" />
<path d="M882,2169 L615,3112" stroke="blue" stroke-width="2" />
<path d="M67,2836 L2112,1640" stroke="blue" stroke-width="2" />
<path d="M230,238 L2117,3975" stroke="blue" stroke-width="2" />
<path d="M2288,1108 L1227,3277" stroke="blue" stroke-width="2" />
<path d="M2535,3369 L219,2514" stroke="blue" stroke-width="2" />
<path d="M904,3452 L2253,3375" stroke="blue" stroke-width="2" />
<path d="M1167,2926 L201,1883" stroke="blue" stroke-width="2" />
<path d="M1339,1232 L1359,1902" stroke="blue" stroke-width="2" />
<path d="M816,3227 L2572,3495" stroke="blue" stroke-width="2" />
<path d="M406,934 L1288,3913" stroke="blue" stroke-width="2" />
<path d="M1817,2519 L1352,2015" stroke="blue" stroke-width="2" />
<path d="M1516,84 L870,1762" stroke="blue" stroke-width="2" />
<path d="M1849,619 L660,101" stroke="blue" stroke-width="2" />
<path d="M721,2413 L1171,2983" stroke="blue" stroke-width="2" />
<path d="M1675,3228 L2179,3340" stroke="blue" stroke-width="2" />
<path d="M2521,621 L852,686" stroke="blue" stroke-width="2" />
<path d="M1558,3157 L2431,3576" stroke="blue" stroke-width="2" />
<path d="M1828,2791 L2487,800" stroke="blue" stroke-width="2" />
<path d="M2640,2001 L506,977" stroke="blue" stroke-width="2" />
<path d="M1237,1308 L1656,1836" stroke="blue" stroke-width="2" />
<path d="M822,99 L1059,2481" stroke="blue" stroke-width="2" />
<path d="M1216,2300 L610,2487" stroke="blue" stroke-width="2" />
<path d="M2163,3851 L1491,1484" stroke="blue" stroke-width="2" />
<path d="M365,2376 L851,2222" stroke="blue" stroke-width="2" />
<path d="M134,338 L2463,1773" stroke="blue" stroke-width="2" />
<path d="M619,396 L2516,516" stroke="blue" stroke-width="2" />
<path d="M1187,696 L2612,2596" stroke="blue" stroke-width="2" />
<path d="M632,1198 L1400,2882" stroke="blue" stroke-width="2" />
<path d="M2581,2956 L504,4058" stroke="blue" stroke-width="2" />
<path d="M1319,2366 L133,445" stroke="blue" stroke-width="2" />
<path d="M1662,1368 L1534,3327" stroke="blue" stroke-width="2" />
<path d="M1403,3702 L129,3858" stroke="blue" stroke-width="2" />
<path d="M1420,1803 L1010,3175" stroke="blue" stroke-width="2" />
<path d="M2055,954 L506,2540" stroke="blue" stroke-width="2" />
<path d="M255,1088 L1578,2767" stroke="blue" stroke-width="2" />
<path d="M805,821 L404,3073" stroke="blue" stroke-width="2" />
<path d="M77,602 L345,104" stroke="blue" stroke-width="2" />
<path d="M2291,2993 L1360,3594" stroke="blue" stroke-width="2" />
<path d="M2490,1403 L2291,525" stroke="blue" stroke-width="2" />
<path d="M462,2206 L2544,3301" stroke="blue" stroke-width="2" />
<path d="M1000,1423 L2468,457" stroke="blue" stroke-width="2" />
<path d="M173,2962 L220,405" stroke="blue" stroke-width="2" />
<path d="M847,1714 L2208,2786" stroke="blue" stroke-width="2" />
<path d="M1886,1568 L1782,3526" stroke="blue" stroke-width="2" />
<path d="M195,2687 L2355,1080" stroke="blue" stroke-width="2" />
<path d="M2680,3472 L762,1259" stroke="blue" stroke-width="2" />
<path d="M818,3440 L763,3984" stroke="blue" stroke-width="2" />
<path d="M66,2154 L1925,3651" stroke="blue" stroke-width="2" />
<path d="M2211,3292 L653,544" stroke="blue" stroke-width="2" />
<path d="M1464,237 L1726,702" stroke="blue" stroke-width="2" />
<path d="M1875,2363 L790,2802" stroke="blue" stroke-width="2" />
<path d="M1967,1955 L1876,1952" stroke="blue" stroke-width="2" />
<path d="M1578,1572 L1368,3269" stroke="blue" stroke-width="2" />
<path d="M410,577 L141,980" stroke="blue" stroke-width="2" />
<path d="M1028,3295 L2336,3790" stroke="blue" stroke-width="2" />
<path d="M2054,3267 L74,2570" stroke="blue" stroke-width="2" />
<path d="M420,2832 L1791,2459" stroke="blue" stroke-width="2" />
<path d="M1847,1199 L1625,2577" stroke="blue" stroke-width="2" />
<path d="M2084,1783 L1320,1471" stroke="blue" stroke-width="2" />
<path d="M1451,3016 L984,3544" stroke="blue" stroke-width="2" />
<path d="M2497,3876 L965,2673" stroke="blue" stroke-width="2" />
<path d="M188,1484 L2253,31" stroke="blue" stroke-width="2" />
<path d="M589,833 L907,143" stroke="blue" stroke-width="2" />
<path d="M1420,856 L300,611" stroke="blue" stroke-width="2" />
<path d="M712,2661 L57,3877" stroke="blue" stroke-width="2" />
<path d="M1887,835 L1435,2230" stroke="blue" stroke-width="2" />
<path d="M2438,2813 L2490,92" stroke="blue" stroke-width="2" />
<path d="M1085,4079 L2674,3858" stroke="blue" stroke-width="2" />
<path d="M1771,1986 L828,3355" stroke="blue" stroke-width="2" />
<path d="M1762,2677 L1513,3555" stroke="blue" stroke-width="2" />
<path d="M69,3147 L866,4051" stroke="blue" stroke-width="2" />
<path d="M2284,2321 L2514,3930" stroke="blue" stroke-width="2" />
<path d="M935,421 L1337,3186" stroke="blue" stroke-width="2" />
<path d="M1915,2790 L2229,3009" stroke="blue" stroke-width="2" />
<path d="M2430,3231 L2217,2788" stroke="blue" stroke-width="2" />
<path d="M997,1775 L480,2244" stroke="blue" stroke-width="2" />
<path d="M456,2906 L2416,3546" stroke="blue" stroke-width="2" />
<path d="M2677,1595 L1541,987" stroke="blue" stroke-width="2" />
<path d="M558,1975 L2676,494" stroke="blue" stroke-width="2" />
<path d="M2274,3361 L1901,1794" stroke="blue" stroke-width="2" />
<path d="M1572,2527 L2511,2541" stroke="blue" stroke-width="2" />
<path d="M1906,374 L259,2841" stroke="blue" stroke-width="2" />
<path d="M1148,1147 L2072,3712" stroke="blue" stroke-width="2" />
<path d="M93,1508 L1881,2715" stroke="blue" stroke-width="2" />
<path d="M2482,1786 L2024,1052" stroke="blue" stroke-width="2" />
<path d="M1674,2864 L36,3856" stroke="blue" stroke-width="2" />
<path d="M1708,1655 L1994,3659" stroke="blue" stroke-width="2" />
<path d="M327,1253 L2639,1294" stroke="blue" stroke-width="2" />
<path d="M949,2777 L139,858" stroke="blue" stroke-width="2" />
<path d="M755,622 L201,1511" stroke="blue" stroke-width="2" />
<path d="M581,2413 L939,742" stroke="blue" stroke-width="2" />
<path d="M955,1173 L774,3427" stroke="blue" stroke-width="2" />
<path d="M1118,3041 L2097,6" stroke="blue" stroke-width="2" />
<path d="M1067,442 L2597,3089" stroke="blue" stroke-width="2" />
<path d="M1073,1359 L2532,2634" stroke="blue" stroke-width="2" />
<path d="M1186,3182 L1343,3230" stroke="blue" stroke-width="2" />
<path d="M1247,3064 L1745,3685" stroke="blue" stroke-width="2" />
<path d="M853,2363 L1101,3736" stroke="blue" stroke-width="2" />
<path d="M2117,581 L1123,3899" stroke="blue" stroke-width="2" />
<path d="M383,2149 L2162,1652" stroke="blue" stroke-width="2" />
<path d="M408,2560 L1389,270" stroke="blue" stroke-width="2" />
<path d="M1649,2315 L408,458" stroke="blue" stroke-width="2" />
<path d="M1651,1255 L2413,1462" stroke="blue" stroke-width="2" />
<path d="M498,554 L219,3226" stroke="blue" stroke-width="2" />
<path d="M2181,4066 L426,3671" stroke="blue" stroke-width="2" />
<path d="M753,2281 L2463,3315" stroke="blue" stroke-width="2" />
<path d="M459,1842 L58,900" stroke="blue" stroke-width="2" />
<path d="M1019,3526 L1249,1196" stroke="blue" stroke-width="2" />
<path d="M2411,2435 L337,67" stroke="blue" stroke-width="2" />
<path d="M2620,511 L2207,2171" stroke="blue" stroke-width="2" />
<path d="M2240,1296 L583,3969" stroke="blue" stroke-width="2" />
<path d="M995,1938 L1192,1815" stroke="blue" stroke-width="2" />
<path d="M2270,1999 L1871,1466" stroke="blue" stroke-width="2" />
<path d="M981,1289 L422,347" stroke="blue" stroke-width="2" />
<path d="M1357,2862 L179,1760" stroke="blue" stroke-width="2" />
<path d="M1216,1892 L2646,319" stroke="blue" stroke-width="2" />
<path d="M1271,1448 L61,473" stroke="blue" stroke-width="2" />
<path d="M2220,2135 L973,912" stroke="blue" stroke-width="2" />
<path d="M1275,2064 L2500,2475" stroke="blue" stroke-width="2" />
<path d="M294,3201 L1549,341" stroke="blue" stroke-width="2" />
<path d="M1321,1604 L1728,4077" stroke="blue" stroke-width="2" />
<path d="M2160,3823 L1401,1328" stroke="blue" stroke-width="2" />
<path d="M540,2048 L1430,2216" stroke="blue" stroke-width="2" />
<path d="M1586,497 L499,703" stroke="blue" stroke-width="2" />
<path d="M2525,2664 L1265,3248" stroke="blue" stroke-width="2" />
<path d="M1144,669 L2356,2754" stroke="blue" stroke-width="2" />
<path d="M2394,4029 L2582,3656" stroke="blue" stroke-width="2" />
<path d="M211,16 L2520,177" stroke="blue" stroke-width="2" />
<path d="M2628,1694 L1920,2144" stroke="blue" stroke-width="2" />
<path d="M810,3416 L245,4039" stroke="blue" stroke-width="2" />
<path d="M1622,3367 L1022,1057" stroke="blue" stroke-width="2" />
<path d="M2213,2822 L1510,42" stroke="blue" stroke-width="2" />
<path d="M1764,1126 L1025,667" stroke="blue" stroke-width="2" />
<path d="M1941,4079 L461,933" stroke="blue" stroke-width="2" />
<path d="M2286,3598 L1595,2011" stroke="blue" stroke-width="2" />
<path d="M631,2687 L543,285" stroke="blue" stroke-width="2" />
<path d="M1749,468 L87,1510" stroke="blue" stroke-width="2" />
<path d="M1734,747 L2612,2706" stroke="blue" stroke-width="2" />
<path d="M110,3867 L16,1405" stroke="blue" stroke-width="2" />
<path d="M2493,1766 L1096,237" stroke="blue" stroke-width="2" />
<path d="M1033,2250 L9,3616" stroke="blue" stroke-width="2" />
<path d="M1160,37 L371,2846" stroke="blue" stroke-width="2" />
<path d="M275,927 L1265,1047" stroke="blue" stroke-width="2" />
<path d="M2330,2605 L1244,1238" stroke="blue" stroke-width="2" />
<path d="M2040,702 L1436,2930" stroke="blue" stroke-width="2" />
<path d="M2318,1793 L1870,2693" stroke="blue" stroke-width="2" />
<path d="M1508,3255 L1382,3595" stroke="blue" stroke-width="2" />
<path d="M2181,530 L1973,3714" stroke="blue" stroke-width="2" />
<path d="M1156,952 L514,2651" stroke="blue" stroke-width="2" />
<path d="M1321,248 L176,2435" stroke="blue" stroke-width="2" />
<path d="M1468,2925 L2041,3011" stroke="blue" stroke-width="2" />
<path d="M713,3649 L1753,712" stroke="blue" stroke-width="2" />
<path d="M2252,36 L1474,3708" stroke="blue" stroke-width="2" />
<path d="M1814,3350 L2643,3883" stroke="blue" stroke-width="2" />
<path d="M237,3873 L1038,3188" stroke="blue" stroke-width="2" />
<path d="M2722,394 L1860,3320" stroke="blue" stroke-width="2" />
<path d="M466,3904 L616,3123" stroke="blue" stroke-width="2" />
<path d="M1738,3853 L279,1557" stroke="blue" stroke-width="2" />
<path d="M996,2393 L172,542" stroke="blue" stroke-width="2" />
<path d="M1030,1693 L382,2339" stroke="blue" stroke-width="2" />
<path d="M2010,3473 L655,1247" stroke="blue" stroke-width="2" />
<path d="M1316,1209 L2097,1805" stroke="blue" stroke-width="2" />
<path d="M1722,3127 L2043,2892" stroke="blue" stroke-width="2" />
<path d="M1750,2833 L2046,3839" stroke="blue" stroke-width="2" />
<path d="M986,2526 L1126,1099" stroke="blue" stroke-width="2" />
<path d="M1146,3695 L1242,328" stroke="blue" stroke-width="2" />
<path d="M2263,2542 L1387,2709" stroke="blue" stroke-width="2" />
<path d="M262,1402 L452,2017" stroke="blue" stroke-width="2" />
<path d="M2681,3829 L2528,433" stroke="blue" stroke-width="2" />
<path d="M2463,511 L2161,3794" stroke="blue" stroke-width="2" />
<path d="M974,1593 L994,4048" stroke="blue" stroke-width="2" />
<path d="M148,3238 L1971,482" stroke="blue" stroke-width="2" />
<path d="M646,713 L1461,1250" stroke="blue" stroke-width="2" />
<path d="M729,1019 L198,2782" stroke="blue" stroke-width="2" />
<path d="M370,3287 L1335,223" stroke="blue" stroke-width="2" />
<path d="M74,2288 L1985,1231" stroke="blue" stroke-width="2" />
<path d="M765,2190 L1133,2154" stroke="blue" stroke-width="2" />
<path d="M299,326 L131,2455" stroke="blue" stroke-width="2" />
<path d="M1549,3925 L2296,4061" stroke="blue" stroke-width="2" />
<path d="M1760,92 L681,2121" stroke="blue" stroke-width="2" />
<path d="M725,1783 L1776,2175" stroke="blue" stroke-width="2" />
<path d="M1686,1160 L1021,1152" stroke="blue" stroke-width="2" />
<path d="M2050,4095 L2479,1939" stroke="blue" stroke-width="2" />
<path d="M1506,4029 L2512,2173" stroke="blue" stroke-width="2" />
<path d="M1567,3095 L634,2025" stroke="blue" stroke-width="2" />
<path d="M1004,882 L480,3919" stroke="blue" stroke-width="2" />
<path d="M444,306 L2368,571" stroke="blue" stroke-width="2" />
<path d="M755,3693 L1751,1050" stroke="blue" stroke-width="2" />
<path d="M1408,2420 L2633,1336" stroke="blue" stroke-width="2" />
<path d="M1052,3896 L60,1275" stroke="blue" stroke-width="2" />
<path d="M2580,2034 L1034,413" stroke="blue" stroke-width="2" />
<path d="M2703,1054 L1557,3019" stroke="blue" stroke-width="2" />
<path d="M2284,436 L178,470" stroke="blue" stroke-width="2" />
<path d="M345,3581 L2430,3553" stroke="blue" stroke-width="2" />
<path d="M53,2017 L1108,743" stroke="blue" stroke-width="2" />
<path d="M2182,2419 L314,3548" stroke="blue" stroke-width="2" />
<path d="M108,2713 L1546,2414" stroke="blue" stroke-width="2" />
<path d="M2648,154 L342,3246" stroke="blue" stroke-width="2" />
<path d="M133,2228 L629,939" stroke="blue" stroke-width="2" />
<path d="M2236,2929 L1583,260" stroke="blue" stroke-width="2" />
<path d="M2331,3367 L2552,3626" stroke="blue" stroke-width="2" />
<path d="M861,3637 L2341,2595" stroke="blue" stroke-width="2" />
<path d="M178,241 L1405,141" stroke="blue" stroke-width="2" />
<path d="M2275,2251 L560,170" stroke="blue" stroke-width="2" />
<path d="M34,2308 L1426,3308" stroke="blue" stroke-width="2" />
<path d="M782,3711 L1077,3912" stroke="blue" stroke-width="2" />
<path d="M330,862 L2168,25" stroke="blue" stroke-width="2" />
<path d="M2683,1022 L1026,3656" stroke="blue" stroke-width="2" />
<path d="M2072,2449 L79,3607" stroke="blue" stroke-width="2" />
<path d="M1389,973 L1397,1632" stroke="blue" stroke-width="2" />
<path d="M610,3500 L1907,3032" stroke="blue" stroke-width="2" />
<path d="M934,949 L1078,1508" stroke="blue" stroke-width="2" />
<path d="M964,1015 L1353,2419" stroke="blue" stroke-width="2" />
<path d="M584,2159 L1392,2794" stroke="blue" stroke-width="2" />
<path d="M605,3002 L1501,3349" stroke="blue" stroke-width="2" />
<path d="M1791,4068 L373,1870" stroke="blue" stroke-width="2" />
<path d="M1789,460 L2615,4071" stroke="blue" stroke-width="2" />
<path d="M2072,2889 L1375,2531" stroke="blue" stroke-width="2" />
<path d="M2333,1569 L472,489" stroke="blue" stroke-width="2" />
<path d="M985,2223 L1741,1265" stroke="blue" stroke-width="2" />
<path d="M96,415 L1195,3908" stroke="blue" stroke-width="2" />
<path d="M358,3737 L628,3079" stroke="blue" stroke-width="2" />
<path d="M1501,2795 L696,3460" stroke="blue" stroke-width="2" />
<path d="M2098,1218 L1852,3821" stroke="blue" stroke-width="2" />
<path d="M2418,593 L2091,3062" stroke="blue" stroke-width="2" />
<path d="M61,3229 L719,589" stroke="blue" stroke-width="2" />
<path d="M2653,2197 L1307,3391" stroke="blue" stroke-width="2" />
<path d="M455,3402 L2312,1806" stroke="blue" stroke-width="2" />
<path d="M1827,3625 L1729,1646" stroke="blue" stroke-width="2" />
<path d="M2667,2000 L170,2032" stroke="blue" stroke-width="2" />
<path d="M1128,1530 L2576,1172" stroke="blue" stroke-width="2" />
<path d="M1447,1733 L1797,2365" stroke="blue" stroke-width="2" />
<path d="M2341,1005 L2343,1179" stroke="blue" stroke-width="2" />
<path d="M2247,1047 L48,347" stroke="blue" stroke-width="2" />
<path d="M1597,2860 L2372,2166" stroke="blue" stroke-width="2" />
<path d="M2337,1132 L312,3909" stroke="blue" stroke-width="2" />
<path d="M1904,440 L492,2310" stroke="blue" stroke-width="2" />
<path d="M2690,3623 L1280,179" stroke="blue" stroke-width="2" />
<path d="M735,2639 L804,1392" stroke="blue" stroke-width="2" />
<path d="M967,2009 L1093,1166" stroke="blue" stroke-width="2" />
<path d="M690,2164 L917,592" stroke="blue" stroke-width="2" />
<path d="M950,2679 L350,2122" stroke="blue" stroke-width="2" />
<path d="M1731,928 L242,1606" stroke="blue" stroke-width="2" />
<path d="M182,2464 L2137,3542" stroke="blue" stroke-width="2" />
<path d="M1075,1083 L571,536" stroke="blue" stroke-width="2" />
<path d="M2573,2275 L101,2510" stroke="blue" stroke-width="2" />
<path d="M614,295 L807,1" stroke="blue" stroke-width="2" />
<path d="M1666,1144 L1360,3383" stroke="blue" stroke-width="2" />
<path d="M2454,547 L2521,345" stroke="blue" stroke-width="2" />
<path d="M1999,2893 L1702,3685" stroke="blue" stroke-width="2" />
<path d="M188,349 L970,1549" stroke="blue" stroke-width="2" />
<path d="M1961,1433 L1861,2844" stroke="blue" stroke-width="2" />
<path d="M943,1354 L1062,3984" stroke="blue" stroke-width="2" />
<path d="M1948,541 L1876,3388" stroke="blue" stroke-width="2" />
<path d="M1311,1202 L1194,914" stroke="blue" stroke-width="2" />
<path d="M2068,1483 L2274,3155" stroke="blue" stroke-width="2" />
<path d="M1349,2681 L2242,3535" stroke="blue" stroke-width="2" />
<path d="M1148,1407 L972,584" stroke="blue" stroke-width="2" />
<path d="M1944,2326 L473,1947" stroke="blue" stroke-width="2" />
<path d="M784,2708 L659,3364" stroke="blue" stroke-width="2" />
<path d="M2259,3788 L1001,3129" stroke="blue" stroke-width="2" />
<path d="M2403,3955 L514,444" stroke="blue" stroke-width="2" />
<path d="M2444,1927 L139,3391" stroke="blue" stroke-width="2" />
<path d="M67,3834 L2695,885" stroke="blue" stroke-width="2" />
<path d="M2645,192 L927,3037" stroke="blue" stroke-width="2" />
<path d="M374,3687 L1307,910" stroke="blue" stroke-width="2" />
<path d="M1597,2013 L13,2821" stroke="blue" stroke-width="2" />
<path d="M1195,1212 L1152,3603" stroke="blue" stroke-width="2" />
<path d="M1809,3607 L1199,3896" stroke="blue" stroke-width="2" />
<path d="M2003,143 L1413,1269" stroke="blue" stroke-width="2" />
<path d="M2240,3307 L644,3384" stroke="blue" stroke-width="2" />
<path d="M660,3703 L714,521" stroke="blue" stroke-width="2" />
<path d="M2308,2511 L2067,1266" stroke="blue" stroke-width="2" />
<path d="M468,3066 L1972,1319" stroke="blue" stroke-width="2" />
<path d="M1602,3088 L1952,1215" stroke="blue" stroke-width="2" />
<path d="M1939,3805 L1927,3379" stroke="blue" stroke-width="2" />
<path d="M1136,2661 L2588,3242" stroke="blue" stroke-width="2" />
<path d="M248,2414 L198,961" stroke="blue" stroke-width="2" />
<path d="M1995,2415 L2224,2987" stroke="blue" stroke-width="2" />
<path d="M1864,2326 L1870,2146" stroke="blue" stroke-width="2" />
<path d="M1618,1875 L2621,817" stroke="blue" stroke-width="2" />
<path d="M1520,2345 L236,136" stroke="blue" stroke-width="2" />
<path d="M2660,1609 L1730,22" stroke="blue" stroke-width="2" />
<path d="M861,2293 L1904,1191" stroke="blue" stroke-width="2" />
<path d="M2525,1244 L1128,202" stroke="blue" stroke-width="2" />
<path d="M433,748 L1621,1496" stroke="blue" stroke-width="2" />
<path d="M2197,3134 L710,414" stroke="blue" stroke-width="2" />
<path d="M2283,3664 L697,647" stroke="blue" stroke-width="2" />
<path d="M1863,1788 L1381,878" stroke="blue" stroke-width="2" />
<path d="M148,2723 L2455,1126" stroke="blue" stroke-width="2" />
<path d="M2602,2025 L422,3304" stroke="blue" stroke-width="2" />
<path d="M1342,3664 L615,336" stroke="blue" stroke-width="2" />
<path d="M1067,3053 L1421,1034" stroke="blue" stroke-width="2" />
<path d="M325,3343 L557,1154" stroke="blue" stroke-width="2" />
<path d="M1914,4010 L971,1242" stroke="blue" stroke-width="2" />
<path d="M2031,2413 L1436,1378" stroke="blue" stroke-width="2" />
<path d="M852,3528 L1984,1999" stroke="blue" stroke-width="2" />
<path d="M104,2654 L1549,642" stroke="blue" stroke-width="2" />
<path d="M1187,2350 L1745,2566" stroke="blue" stroke-width="2" />
<path d="M1660,2940 L944,3762" stroke="blue" stroke-width="2" />
<path d="M941,409 L1656,1917" stroke="blue" stroke-width="2" />
<path d="M2502,3476 L1703,4026" stroke="blue" stroke-width="2" />
<path d="M742,1333 L2688,3009" stroke="blue" stroke-width="2" />
<path d="M969,3845 L1578,2348" stroke="blue" stroke-width="2" />
<path d="M1916,1768 L2155,4049" stroke="blue" stroke-width="2" />
<path d="M1576,1957 L1829,2251" stroke="blue" stroke-width="2" />
<path d="M1032,2003 L312,3411" stroke="blue" stroke-width="2" />
<path d="M2617,1423 L1460,2303" stroke="blue" stroke-width="2" />
<path d="M2494,1015 L585,1790" stroke="blue" stroke-width="2" />
<path d="M1536,3903 L1268,522" stroke="blue" stroke-width="2" />
<path d="M801,1830 L385,3532" stroke="blue" stroke-width="2" />
<path d="M2449,409 L2496,2515" stroke="blue" stroke-width="2" />
<path d="M164,3202 L1871,2838" stroke="blue" stroke-width="2" />
<path d="M1698,3843 L1982,3523" stroke="blue" stroke-width="2" />
<path d="M568,2990 L2255,2338" stroke="blue" stroke-width="2" />
<path d="M2017,397 L2248,415" stroke="blue" stroke-width="2" />
<path d="M1860,477 L2369,2860" stroke="blue" stroke-width="2" />
<path d="M2220,1829 L1504,33" stroke="blue" stroke-width="2" />
<path d="M2175,3043 L2404,1741" stroke="blue" stroke-width="2" />
<path d="M854,133 L644,628" stroke="blue" stroke-width="2" />
<path d="M2454,43 L2686,2344" stroke="blue" stroke-width="2" />
<path d="M907,984 L2458,2435" stroke="blue" stroke-width="2" />
<path d="M1597,3898 L522,2283" stroke="blue" stroke-width="2" />
<path d="M2247,680 L2101,793" stroke="blue" stroke-width="2" />
<path d="M1648,1427 L174,3374" stroke="blue" stroke-width="2" />
<path d="M1863,2564 L87,2946" stroke="blue" stroke-width="2" />
<path d="M1058,778 L2289,3514" stroke="blue" stroke-width="2" />
<path d="M1746,1941 L1173,3780" stroke="blue" stroke-width="2" />
<path d="M221,1507 L953,327" stroke="blue" stroke-width="2" />
<path d="M825,3046 L254,2515" stroke="blue" stroke-width="2" />
<path d="M1687,2415 L2588,1525" stroke="blue" stroke-width="2" />
<path d="M2701,1631 L27,3523" stroke="blue" stroke-width="2" />
<path d="M1028,2448 L1879,1218" stroke="blue" stroke-width="2" />
<path d="M2437,1961 L1542,2368" stroke="blue" stroke-width="2" />
<path d="M1648,459 L265,3082" stroke="blue" stroke-width="2" />
<path d="M833,3479 L2716,3942" stroke="blue" stroke-width="2" />
<path d="M2015,52 L1161,37" stroke="blue" stroke-width="2" />
<path d="M2140,2311 L696,842" stroke="blue" stroke-width="2" />
<path d="M1710,669 L839,3679" stroke="blue" stroke-width="2" />
<path d="M274,1779 L2571,3210" stroke="blue" stroke-width="2" />
<path d="M2013,1154 L953,224" stroke="blue" stroke-width="2" />
<path d="M2513,178 L1362,2729" stroke="blue" stroke-width="2" />
<path d="M622,2516 L1370,992" stroke="blue" stroke-width="2" />
<path d="M2100,1118 L1556,441" stroke="blue" stroke-width="2" />
<path d="M1054,1341 L612,3127" stroke="blue" stroke-width="2" />
<path d="M1137,2026 L246,2709" stroke="blue" stroke-width="2" />
<path d="M1206,637 L939,1583" stroke="blue" stroke-width="2" />
<path d="M391,3747 L1339,1787" stroke="blue" stroke-width="2" />
<path d="M368,1920 L1151,387" stroke="blue" stroke-width="2" />
<path d="M2722,2692 L2254,3952" stroke="blue" stroke-width="2" />
<path d="M2462,1415 L2015,567" stroke="blue" stroke-width="2" />
<path d="M437,255 L70,1639" stroke="blue" stroke-width="2" />
<path d="M752,1015 L370,3416" stroke="blue" stroke-width="2" />
<path d="M1634,2135 L2276,2578" stroke="blue" stroke-width="2" />
<path d="M2290,1436 L967,3372" stroke="blue" stroke-width="2" />
<path d="M271,1564 L69,2589" stroke="blue" stroke-width="2" />
<path d="M2301,3184 L980,1151" stroke="blue" stroke-width="2" />
<path d="M454,164 L140,918" stroke="blue" stroke-width="2" />
<path d="M680,1078 L2549,2210" stroke="blue" stroke-width="2" />
<path d="M905,636 L735,126" stroke="blue" stroke-width="2" />
<path d="M1401,639 L445,457" stroke="blue" stroke-width="2" />
<path d="M2698,3292 L780,1834" stroke="blue" stroke-width="2" />
<path d="M1588,763 L368,3414" stroke="blue" stroke-width="2" />
<path d="M692,3172 L909,707" stroke="blue" stroke-width="2" />
<path d="M1149,505 L2596,981" stroke="blue" stroke-width="2" />
<path d="M99,2588 L498,2596" stroke="blue" stroke-width="2" />
<path d="M890,2177 L1240,123" stroke="blue" stroke-width="2" />
<path d="M2417,681 L2719,881" stroke="blue" stroke-width="2" />
<path d="M146,3291 L388,3542" stroke="blue" stroke-width="2" />
<path d="M768,3260 L1857,2983" stroke="blue" stroke-width="2" />
<path d="M2370,964 L2575,3224" stroke="blue" stroke-width="2" />
<path d="M1440,2198 L265,1227" stroke="blue" stroke-width="2" />
<path d="M885,3731 L299,3611" stroke="blue" stroke-width="2" />
<path d="M788,3315 L1074,2926" stroke="blue" stroke-width="2" />
<path d="M695,2430 L2390,2627" stroke="blue" stroke-width="2" />
<path d="M2719,137 L227,4049" stroke="blue" stroke-width="2" />
<path d="M1910,3906 L1916,513" stroke="blue" stroke-width="2" />
<path d="M2716,238 L1479,1218" stroke="blue" stroke-width="2" />
<path d="M1482,1245 L1344,929" stroke="blue" stroke-width="2" />
<path d="M2399,3702 L2306,2715" stroke="blue" stroke-width="2" />
<path d="M317,2521 L2444,2254" stroke="blue" stroke-width="2" />
<path d="M0,0 L2726,0" stroke="red" stroke-width="10" />
<path d="M2726,0 L2726,4098" stroke="red" stroke-width="10" />
<path d="M0,4098 L2726,4098" stroke="red" stroke-width="10" />
<path d="M0,4098 L0,0" stroke="red" stroke-width="10" />
</svg>