<?xml version="1.0" encoding="UTF-8"?>
<svg xmlns="http://www.w3.org/2000/svg" xmlns:xlink="http://www.w3.org/1999/xlink"
     width="10000" height="10000" viewBox="0 0 10000 10000">
<defs>
</defs>
<path d="M1639,6314 L581,2095" stroke="blue" stroke-width="2" />
<path d="M1913,6101 L1371,5606" stroke="blue" stroke-width="2" />
<path d="M194,5741 L85,5755" stroke="blue" stroke-width="2" />
<path d="M1928,607 L1654,204" stroke="blue" stroke-width="2" />
<path d="M1928,1390 L207,4616" stroke="blue" stroke-width="2" />
<path d="M1258,5271 L1253,1441" stroke="blue" stroke-width="2" />
<path d="M214,2557 L1888,831" stroke="blue" stroke-width="2" />
<path d="M910,2759 L845,6364" stroke="blue" stroke-width="2" />
<path d="M1320,5078 L1906,1336" stroke="blue" stroke-width="2" />
<path d="M1225,649 L1370,5542" stroke="blue" stroke-width="2" />
<path d="M1780,2333 L1530,1607" stroke="blue" stroke-width="2" />
<path d="M1067,5282 L887,6377" stroke="blue" stroke-width="2" />
<path d="M1147,3206 L998,956" stroke="blue" stroke-width="2" />
<path d="M75,3625 L904,3404" stroke="blue" stroke-width="2" />
<path d="M803,4046 L954,2402" stroke="blue" stroke-width="2" />
<path d="M107,4009 L1431,6260" stroke="blue" stroke-width="2" />
<path d="M1097,4832 L1309,1672" stroke="blue" stroke-width="2" />
<path d="M310,4879 L1727,1813" stroke="blue" stroke-width="2" />
<path d="M143,3497 L1421,4272" stroke="blue" stroke-width="2" />
<path d="M254,2152 L1235,6291" stroke="blue" stroke-width="2" />
<path d="M451,2529 L1831,4779" stroke="blue" stroke-width="2" />
<path d="M1728,6284 L397,3442" stroke="blue" stroke-width="2" />
<path d="M1629,4818 L1356,3593" stroke="blue" stroke-width="2" />
<path d="M1805,4012 L448,1266" stroke="blue" stroke-width="2" />
<path d="M646,6263 L777,5516" stroke="blue" stroke-width="2" />
<path d="M677,219 L1057,6424" stroke="blue" stroke-width="2" />
<path d="M1038,1665 L6,3277" stroke="blue" stroke-width="2" />
<path d="M926,296 L174,2533" stroke="blue" stroke-width="2" />
<path d="M1577,3373 L595,328" stroke="blue" stroke-width="2" />
<path d="M1772,5659 L920,520" stroke="blue" stroke-width="2" />
<path d="M352,349 L1893,2590" stroke="blue" stroke-width="2" />
<path d="M909,3877 L1438,5294" stroke="blue" stroke-width="2" />
<path d="M1770,6193 L1570,2975" stroke="blue" stroke-width="2" />
<path d="M1253,4457 L1080,2980" stroke="blue" stroke-width="2" />
<path d="M322,103 L585,4545" stroke="blue" stroke-width="2" />
<path d="M344,5650 L1042,5684" stroke="blue" stroke-width="2" />
<path d="M1295,2579 L1588,6295" stroke="blue" stroke-width="2" />
<path d="M1418,3094 L632,2899" stroke="blue" stroke-width="2" />
<path d="M1670,539 L694,3688" stroke="blue" stroke-width="2" />
<path d="M1561,310 L857,5025" stroke="blue" stroke-width="2" />
<path d="M1062,3494 L70,5411" stroke="blue" stroke-width="2" />
<path d="M795,6167 L722,2017" stroke="blue" stroke-width="2" />
<path d="M840,5635 L1222,3748" stroke="blue" stroke-width="2" />
<path d="M598,1741 L1577,216" stroke="blue" stroke-width="2" />
<path d="M228,5215 L1561,5593" stroke="blue" stroke-width="2" />
<path d="M1512,2783 L1753,760" stroke="blue" stroke-width="2" />
<path d="M1939,2457 L78,2817" stroke="blue" stroke-width="2" />
<path d="M1158,5969 L929,2840" stroke="blue" stroke-width="2" />
<path d="M996,5850 L0,4147" stroke="blue" stroke-width="2" />
<path d="M843,4864 L719,2062" stroke="blue" stroke-width="2" />
<path d="M576,6192 L1528,3402" stroke="blue" stroke-width="2" />
<path d="M1937,5793 L1154,51" stroke="blue" stroke-width="2" />
<path d="M748,360 L1375,387" stroke="blue" stroke-width="2" />
<path d="M705,4068 L396,4601" stroke="blue" stroke-width="2" />
<path d="M1961,6001 L262,1492" stroke="blue" stroke-width="2" />
<path d="M1349,990 L1067,5203" stroke="blue" stroke-width="2" />
<path d="M377,93 L1424,6502" stroke="blue" stroke-width="2" />
<path d="M1507,1890 L1716,1408" stroke="blue" stroke-width="2" />
<path d="M779,4227 L1951,3003" stroke="blue" stroke-width="2" />
<path d="M392,5741 L484,4615" stroke="blue" stroke-width="2" />
<path d="M184,4950 L313,5821" stroke="blue" stroke-width="2" />
<path d="M344,5664 L1086,5337" stroke="blue" stroke-width="2" />
<path d="M1303,6327 L1783,3332" stroke="blue" stroke-width="2" />
<path d="M1634,4455 L1156,206" stroke="blue" stroke-width="2" />
<path d="M52,5254 L603,1938" stroke="blue" stroke-width="2" />
<path d="M155,1235 L1678,2906" stroke="blue" stroke-width="2" />
<path d="M472,5331 L1881,2713" stroke="blue" stroke-width="2" />
<path d="M1632,3158 L833,4308" stroke="blue" stroke-width="2" />
<path d="M168,164 L1951,5219" stroke="blue" stroke-width="2" />
<path d="M1380,3418 L538,2161" stroke="blue" stroke-width="2" />
<path d="M461,5622 L1318,1683" stroke="blue" stroke-width="2" />
<path d="M728,4539 L1786,1229" stroke="blue" stroke-width="2" />
<path d="M432,4984 L1427,1990" stroke="blue" stroke-width="2" />
<path d="M439,923 L1513,4014" stroke="blue" stroke-width="2" />
<path d="M1160,6123 L38,2509" stroke="blue" stroke-width="2" />
<path d="M1375,1794 L308,610" stroke="blue" stroke-width="2" />
<path d="M711,2840 L1811,3346" stroke="blue" stroke-width="2" />
<path d="M1278,3549 L774,6195" stroke="blue" stroke-width="2" />
<path d="M303,367 L564,1816" stroke="blue" stroke-width="2" />
<path d="M1854,5934 L1176,415" stroke="blue" stroke-width="2" />
<path d="M1028,5743 L414,2674" stroke="blue" stroke-width="2" />
<path d="M936,4894 L934,5888" stroke="blue" stroke-width="2" />
<path d="M670,1436 L164,1107" stroke="blue" stroke-width="2" />
<path d="M788,1833 L1003,1949" stroke="blue" stroke-width="2" />
<path d="M1899,2961 L1197,54" stroke="blue" stroke-width="2" />
<path d="M770,5367 L556,3240" stroke="blue" stroke-width="2" />
<path d="M1578,758 L1725,4563" stroke="blue" stroke-width="2" />
<path d="M992,3759 L1703,5920" stroke="blue" stroke-width="2" />
<path d="M684,1162 L1904,533" stroke="blue" stroke-width="2" />
<path d="M1048,6051 L1918,4000" stroke="blue" stroke-width="2" />
<path d="M1135,1563 L995,231" stroke="blue" stroke-width="2" />
<path d="M137,957 L1598,2509" stroke="blue" stroke-width="2" />
<path d="M588,4985 L48,3307" stroke="blue" stroke-width="2" />
<path d="M1526,1470 L933,5393" stroke="blue" stroke-width="2" />
<path d="M196,6222 L877,2029" stroke="blue" stroke-width="2" />
<path d="M1806,4054 L738,3161" stroke="blue" stroke-width="2" />
<path d="M1318,5999 L489,1655" stroke="blue" stroke-width="2" />
<path d="M950,1159 L1790,3539" stroke="blue" stroke-width="2" />
<path d="M823,3693 L1804,5503" stroke="blue" stroke-width="2" />
<path d="M2009,3292 L950,3319" stroke="blue" stroke-width="2" />
<path d="M1641,3925 L1048,5311" stroke="blue" stroke-width="2" />
<path d="M1174,2432 L1310,2939" stroke="blue" stroke-width="2" />
<path d="M963,3676 L229,117" stroke="blue" stroke-width="2" />
<path d="M103,1155 L770,1708" stroke="blue" stroke-width="2" />
<path d="M45,4569 L607,5768" stroke="blue" stroke-width="2" />
<path d="M1359,879 L1826,3172" stroke="blue" stroke-width="2" />
<path d="M609,2285 L1711,3829" stroke="blue" stroke-width="2" />
<path d="M1646,5948 L1404,1536" stroke="blue" stroke-width="2" />
<path d="M348,876 L223,5383" stroke="blue" stroke-width="2" />
<path d="M429,2723 L1502,5042" stroke="blue" stroke-width="2" />
<path d="M665,2467 L933,946" stroke="blue" stroke-width="2" />
<path d="M1664,2239 L1034,4929" stroke="blue" stroke-width="2" />
<path d="M54,5532 L702,4221" stroke="blue" stroke-width="2" />
<path d="M1322,501 L1981,2358" stroke="blue" stroke-width="2" />
<path d="M1682,241 L1671,3217" stroke="blue" stroke-width="2" />
<path d="M53,84 L1578,5250" stroke="blue" stroke-width="2" />
<path d="M1617,808 L952,4777" stroke="blue" stroke-width="2" />
<path d="M1858,4695 L542,594" stroke="blue" stroke-width="2" />
<path d="M1658,2567 L115,590" stroke="blue" stroke-width="2" />
<path d="M1803,5384 L369,5956" stroke="blue" stroke-width="2" />
<path d="M1619,3864 L72,5963" stroke="blue" stroke-width="2" />
<path d="M838,1185 L1418,1813" stroke="blue" stroke-width="2" />
<path d="M1693,5362 L1904,5456" stroke="blue" stroke-width="2" />
<path d="M407,1124 L1743,1487" stroke="blue" stroke-width="2" />
<path d="M433,2145 L811,251" stroke="blue" stroke-width="2" />
<path d="M1683,4117 L1256,1434" stroke="blue" stroke-width="2" />
<path d="M2002,4876 L1987,3240" stroke="blue" stroke-width="2" />
<path d="M578,5200 L1690,2016" stroke="blue" stroke-width="2" />
<path d="M1850,5090 L1002,4404" stroke="blue" stroke-width="2" />
<path d="M1713,2469 L1592,3899" stroke="blue" stroke-width="2" />
<path d="M418,5277 L1188,2779" stroke="blue" stroke-width="2" />
<path d="M597,5111 L185,1807" stroke="blue" stroke-width="2" />
<path d="M1088,1994 L1245,5506" stroke="blue" stroke-width="2" />
<path d="M1751,2266 L1510,4812" stroke="blue" stroke-width="2" />
<path d="M1386,2644 L1240,273" stroke="blue" stroke-width="2" />
<path d="M1867,3122 L1903,3258" stroke="blue" stroke-width="2" />
<path d="M1733,4087 L268,1677" stroke="blue" stroke-width="2" />
<path d="M876,5084 L370,6128" stroke="blue" stroke-width="2" />
<path d="M353,673 L1577,5836" stroke="blue" stroke-width="2" />
<path d="M1987,1848 L1538,4238" stroke="blue" stroke-width="2" />
<path d="M1228,1591 L1856,6108" stroke="blue" stroke-width="2" />
<path d="M1338,4689 L1929,1837" stroke="blue" stroke-width="2" />
<path d="M1025,6328 L1140,5754" stroke="blue" stroke-width="2" />
<path d="M1969,3623 L1492,4112" stroke="blue" stroke-width="2" />
<path d="M237,1782 L1266,5605" stroke="blue" stroke-width="2" />
<path d="M1160,1306 L1918,1476" stroke="blue" stroke-width="2" />
<path d="M1074,5793 L1976,1774" stroke="blue" stroke-width="2" />
<path d="M66,5673 L36,3238" stroke="blue" stroke-width="2" />
<path d="M64,2092 L1885,496" stroke="blue" stroke-width="2" />
<path d="M285,5100 L613,2856" stroke="blue" stroke-width="2" />
<path d="M774,5582 L702,1215" stroke="blue" stroke-width="2" />
<path d="M120,4973 L1111,5347" stroke="blue" stroke-width="2" />
<path d="M215,2293 L1562,5199" stroke="blue" stroke-width="2" />
<path d="M1181,1705 L510,2274" stroke="blue" stroke-width="2" />
<path d="M508,6477 L379,1183" stroke="blue" stroke-width="2" />
<path d="M56,2231 L1063,4637" stroke="blue" stroke-width="2" />
<path d="M1340,5153 L678,5720" stroke="blue" stroke-width="2" />
<path d="M1227,4767 L1120,4123" stroke="blue" stroke-width="2" />
<path d="M1072,5641 L1817,30" stroke="blue" stroke-width="2" />
<path d="M273,3360 L1794,3612" stroke="blue" stroke-width="2" />
<path d="M0,0 L2010,0" stroke="red" stroke-width="10" />
<path d="M2010,0 L2010,6528" stroke="red" stroke-width="10" />
<path d="M0,6528 L2010,6528" stroke="red" stroke-width="10" />
<path d="M0,6528 L0,0" stroke="red" stroke-width="10" />
</svg>