<?xml version="1.0" encoding="UTF-8"?>
<svg xmlns="http://www.w3.org/2000/svg" xmlns:xlink="http://www.w3.org/1999/xlink"
     width="10000" height="10000" viewBox="0 0 10000 10000">
<defs>
</defs>
<path d="M1921,1213 L6610,2360" stroke="blue" stroke-width="2" />
<path d="M476,848 L2698,3698" stroke="blue" stroke-width="2" />
<path d="M3651,3844 L4898,3707" stroke="blue" stroke-width="2" />
<path d="M4841,2614 L4680,3099" stroke="blue" stroke-width="2" />
<path d="M2063,151 L482,741" stroke="blue" stroke-width="2" />
<path d="M2912,1206 L832,3567" stroke="blue" stroke-width="2" />
<path d="M3766,875 L1362,875" stroke="blue" stroke-width="2" />
<path d="M6578,1402 L858,2959" stroke="blue" stroke-width="2" />
<path d="M6322,4120 L2773,2872" stroke="blue" stroke-width="2" />
<path d="M4347,878 L7159,440" stroke="blue" stroke-width="2" />
<path d="M703,2871 L3711,289" stroke="blue" stroke-width="2" />
<path d="M5006,3751 L1306,1110" stroke="blue" stroke-width="2" />
<path d="M3229,2394 L2378,760" stroke="blue" stroke-width="2" />
<path d="M7691,351 L1523,555" stroke="blue" stroke-width="2" />
<path d="M6130,2560 L7885,3088" stroke="blue" stroke-width="2" />
<path d="M3276,854 L404,3981" stroke="blue" stroke-width="2" />
<path d="M2977,2475 L1725,4109" stroke="blue" stroke-width="2" />
<path d="M941,1038 L2185,3244" stroke="blue" stroke-width="2" />
<path d="M6366,3746 L3061,525" stroke="blue" stroke-width="2" />
<path d="M7734,521 L3345,1881" stroke="blue" stroke-width="2" />
<path d="M3098,889 L80,3318" stroke="blue" stroke-width="2" />
<path d="M2133,1718 L4650,2943" stroke="blue" stroke-width="2" />
<path d="M163,2321 L73,2865" stroke="blue" stroke-width="2" />
<path d="M4160,989 L3972,1378" stroke="blue" stroke-width="2" />
<path d="M5052,3215 L1751,3326" stroke="blue" stroke-width="2" />
<path d="M5152,2007 L6717,1884" stroke="blue" stroke-width="2" />
<path d="M2216,4050 L181,3665" stroke="blue" stroke-width="2" />
<path d="M3071,516 L1602,2958" stroke="blue" stroke-width="2" />
<path d="M101,766 L7023,432" stroke="blue" stroke-width="2" />
<path d="M5015,1203 L6853,105" stroke="blue" stroke-width="2" />
<path d="M2370,2017 L4247,3060" stroke="blue" stroke-width="2" />
<path d="M4468,2462 L6815,2876" stroke="blue" stroke-width="2" />
<path d="M499,815 L4253,2350" stroke="blue" stroke-width="2" />
<path d="M4543,3079 L7074,3711" stroke="blue" stroke-width="2" />
<path d="M5138,2522 L1383,786" stroke="blue" stroke-width="2" />
<path d="M3362,2372 L5356,3937" stroke="blue" stroke-width="2" />
<path d="M5440,4267 L432,2433" stroke="blue" stroke-width="2" />
<path d="M4737,857 L3389,2600" stroke="blue" stroke-width="2" />
<path d="M3088,2862 L5260,3221" stroke="blue" stroke-width="2" />
<path d="M85,280 L3765,3318" stroke="blue" stroke-width="2" />
<path d="M822,3326 L4675,104" stroke="blue" stroke-width="2" />
<path d="M3229,546 L406,1239" stroke="blue" stroke-width="2" />
<path d="M6558,1011 L5753,3894" stroke="blue" stroke-width="2" />
<path d="M6139,2273 L3176,3013" stroke="blue" stroke-width="2" />
<path d="M5310,1471 L5297,3934" stroke="blue" stroke-width="2" />
<path d="M5062,3285 L3065,892" stroke="blue" stroke-width="2" />
<path d="M2749,2370 L1828,484" stroke="blue" stroke-width="2" />
<path d="M6329,696 L3943,5" stroke="blue" stroke-width="2" />
<path d="M666,4084 L1259,533" stroke="blue" stroke-width="2" />
<path d="M5751,2530 L545,2618" stroke="blue" stroke-width="2" />
<path d="M6266,528 L3939,4384" stroke="blue" stroke-width="2" />
<path d="M4565,2885 L4768,1020" stroke="blue" stroke-width="2" />
<path d="M1044,2006 L7063,4032" stroke="blue" stroke-width="2" />
<path d="M5962,583 L6342,1535" stroke="blue" stroke-width="2" />
<path d="M4558,1597 L5867,572" stroke="blue" stroke-width="2" />
<path d="M2321,192 L6541,2314" stroke="blue" stroke-width="2" />
<path d="M6127,1145 L1327,4243" stroke="blue" stroke-width="2" />
<path d="M8032,2770 L4803,139" stroke="blue" stroke-width="2" />
<path d="M2827,2881 L2958,3220" stroke="blue" stroke-width="2" />
<path d="M7068,599 L5510,2670" stroke="blue" stroke-width="2" />
<path d="M3239,1440 L5803,2567" stroke="blue" stroke-width="2" />
<path d="M3310,1530 L4507,3211" stroke="blue" stroke-width="2" />
<path d="M7495,1527 L864,420" stroke="blue" stroke-width="2" />
<path d="M523,1447 L2738,3796" stroke="blue" stroke-width="2" />
<path d="M3572,4010 L155,2" stroke="blue" stroke-width="2" />
<path d="M4915,334 L6722,3565" stroke="blue" stroke-width="2" />
<path d="M5143,1504 L5166,2784" stroke="blue" stroke-width="2" />
<path d="M3806,4004 L1942,1737" stroke="blue" stroke-width="2" />
<path d="M7087,3627 L5859,3251" stroke="blue" stroke-width="2" />
<path d="M789,2972 L6209,355" stroke="blue" stroke-width="2" />
<path d="M7889,971 L4031,2723" stroke="blue" stroke-width="2" />
<path d="M6525,3145 L6634,4016" stroke="blue" stroke-width="2" />
<path d="M674,544 L1729,4383" stroke="blue" stroke-width="2" />
<path d="M7921,3306 L6140,2781" stroke="blue" stroke-width="2" />
<path d="M6046,3381 L6408,3963" stroke="blue" stroke-width="2" />
<path d="M1946,2726 L418,642" stroke="blue" stroke-width="2" />
<path d="M2157,2369 L1494,2605" stroke="blue" stroke-width="2" />
<path d="M71,1684 L5292,2551" stroke="blue" stroke-width="2" />
<path d="M3373,3114 L1966,1715" stroke="blue" stroke-width="2" />
<path d="M482,2249 L1924,1882" stroke="blue" stroke-width="2" />
<path d="M6170,4311 L1593,331" stroke="blue" stroke-width="2" />
<path d="M2412,1053 L3131,2950" stroke="blue" stroke-width="2" />
<path d="M534,3279 L714,3748" stroke="blue" stroke-width="2" />
<path d="M2944,2666 L3658,4392" stroke="blue" stroke-width="2" />
<path d="M4834,2318 L6019,2693" stroke="blue" stroke-width="2" />
<path d="M1060,986 L6277,2676" stroke="blue" stroke-width="2" />
<path d="M7066,2231 L1641,4089" stroke="blue" stroke-width="2" />
<path d="M5200,564 L5592,241" stroke="blue" stroke-width="2" />
<path d="M2631,1552 L4200,3369" stroke="blue" stroke-width="2" />
<path d="M472,4000 L509,2686" stroke="blue" stroke-width="2" />
<path d="M6057,3033 L495,848" stroke="blue" stroke-width="2" />
<path d="M1290,1366 L1673,392" stroke="blue" stroke-width="2" />
<path d="M2926,2381 L5955,4357" stroke="blue" stroke-width="2" />
<path d="M5962,1257 L1386,882" stroke="blue" stroke-width="2" />
<path d="M2316,1124 L3895,4131" stroke="blue" stroke-width="2" />
<path d="M6444,4079 L2531,3548" stroke="blue" stroke-width="2" />
<path d="M1921,2751 L2354,2991" stroke="blue" stroke-width="2" />
<path d="M1683,3707 L5838,569" stroke="blue" stroke-width="2" />
<path d="M5192,2558 L1667,759" stroke="blue" stroke-width="2" />
<path d="M5257,3675 L4232,441" stroke="blue" stroke-width="2" />
<path d="M1404,3314 L5624,1802" stroke="blue" stroke-width="2" />
<path d="M7946,4246 L6752,1004" stroke="blue" stroke-width="2" />
<path d="M3741,1494 L2983,1931" stroke="blue" stroke-width="2" />
<path d="M4208,2177 L7220,2016" stroke="blue" stroke-width="2" />
<path d="M6576,1044 L4775,693" stroke="blue" stroke-width="2" />
<path d="M4322,3720 L3514,361" stroke="blue" stroke-width="2" />
<path d="M2404,1098 L1787,2525" stroke="blue" stroke-width="2" />
<path d="M1834,1 L5464,3502" stroke="blue" stroke-width="2" />
<path d="M7400,1370 L2705,4296" stroke="blue" stroke-width="2" />
<path d="M6885,3706 L4527,2302" stroke="blue" stroke-width="2" />
<path d="M3121,2211 L369,3505" stroke="blue" stroke-width="2" />
<path d="M4384,212 L2987,2648" stroke="blue" stroke-width="2" />
<path d="M4902,1899 L5521,1315" stroke="blue" stroke-width="2" />
<path d="M3486,3669 L7274,2464" stroke="blue" stroke-width="2" />
<path d="M3330,594 L2293,2276" stroke="blue" stroke-width="2" />
<path d="M3886,897 L2072,4039" stroke="blue" stroke-width="2" />
<path d="M3099,3226 L3862,2884" stroke="blue" stroke-width="2" />
<path d="M4564,3013 L2447,1055" stroke="blue" stroke-width="2" />
<path d="M4722,4373 L7990,186" stroke="blue" stroke-width="2" />
<path d="M6311,799 L2699,2877" stroke="blue" stroke-width="2" />
<path d="M3198,818 L7715,4198" stroke="blue" stroke-width="2" />
<path d="M4561,233 L4199,3364" stroke="blue" stroke-width="2" />
<path d="M6028,2844 L2176,404" stroke="blue" stroke-width="2" />
<path d="M9,4386 L7251,3810" stroke="blue" stroke-width="2" />
<path d="M4223,3469 L7973,3038" stroke="blue" stroke-width="2" />
<path d="M6126,4225 L2846,2243" stroke="blue" stroke-width="2" />
<path d="M3868,3502 L2817,2033" stroke="blue" stroke-width="2" />
<path d="M6811,2920 L4132,212" stroke="blue" stroke-width="2" />
<path d="M1373,3126 L7019,1532" stroke="blue" stroke-width="2" />
<path d="M4976,2833 L2615,223" stroke="blue" stroke-width="2" />
<path d="M4337,1652 L5740,3619" stroke="blue" stroke-width="2" />
<path d="M6099,87 L3866,3778" stroke="blue" stroke-width="2" />
<path d="M6530,811 L3834,1933" stroke="blue" stroke-width="2" />
<path d="M5448,1747 L2650,1795" stroke="blue" stroke-width="2" />
<path d="M1441,1488 L4952,4314" stroke="blue" stroke-width="2" />
<path d="M2055,4148 L4762,4206" stroke="blue" stroke-width="2" />
<path d="M3391,722 L7482,28" stroke="blue" stroke-width="2" />
<path d="M3213,1605 L6636,3354" stroke="blue" stroke-width="2" />
<path d="M1569,803 L5390,4092" stroke="blue" stroke-width="2" />
<path d="M3434,920 L3590,1692" stroke="blue" stroke-width="2" />
<path d="M7226,1963 L1509,3149" stroke="blue" stroke-width="2" />
<path d="M7504,4328 L6138,4385" stroke="blue" stroke-width="2" />
<path d="M6969,743 L698,82" stroke="blue" stroke-width="2" />
<path d="M263,2429 L4273,776" stroke="blue" stroke-width="2" />
<path d="M3858,2940 L415,1710" stroke="blue" stroke-width="2" />
<path d="M7151,3901 L4101,1328" stroke="blue" stroke-width="2" />
<path d="M7276,3821 L1573,3856" stroke="blue" stroke-width="2" />
<path d="M139,1218 L7465,2187" stroke="blue" stroke-width="2" />
<path d="M4441,4018 L219,277" stroke="blue" stroke-width="2" />
<path d="M1367,2757 L1749,309" stroke="blue" stroke-width="2" />
<path d="M6664,2239 L7815,2697" stroke="blue" stroke-width="2" />
<path d="M5419,385 L1587,1154" stroke="blue" stroke-width="2" />
<path d="M7759,2994 L2170,762" stroke="blue" stroke-width="2" />
<path d="M5744,2253 L1286,2489" stroke="blue" stroke-width="2" />
<path d="M1966,740 L2975,1275" stroke="blue" stroke-width="2" />
<path d="M8090,4035 L5333,645" stroke="blue" stroke-width="2" />
<path d="M257,3628 L6804,4006" stroke="blue" stroke-width="2" />
<path d="M6052,1198 L6934,1112" stroke="blue" stroke-width="2" />
<path d="M4162,882 L5047,2303" stroke="blue" stroke-width="2" />
<path d="M50,3522 L2505,1304" stroke="blue" stroke-width="2" />
<path d="M5066,3306 L6825,1149" stroke="blue" stroke-width="2" />
<path d="M5975,3191 L2194,1447" stroke="blue" stroke-width="2" />
<path d="M2504,781 L681,2566" stroke="blue" stroke-width="2" />
<path d="M5102,3458 L5515,3846" stroke="blue" stroke-width="2" />
<path d="M6333,129 L2086,973" stroke="blue" stroke-width="2" />
<path d="M4698,925 L6662,3035" stroke="blue" stroke-width="2" />
<path d="M182,452 L6343,2430" stroke="blue" stroke-width="2" />
<path d="M4121,3969 L1082,1291" stroke="blue" stroke-width="2" />
<path d="M6365,3027 L7585,2415" stroke="blue" stroke-width="2" />
<path d="M7889,2575 L532,4118" stroke="blue" stroke-width="2" />
<path d="M1051,2149 L5063,4136" stroke="blue" stroke-width="2" />
<path d="M787,582 L2931,4265" stroke="blue" stroke-width="2" />
<path d="M7076,1538 L918,3876" stroke="blue" stroke-width="2" />
<path d="M137,4154 L5003,3204" stroke="blue" stroke-width="2" />
<path d="M7384,1746 L3660,2558" stroke="blue" stroke-width="2" />
<path d="M229,4127 L1344,2072" stroke="blue" stroke-width="2" />
<path d="M7980,3104 L3543,1516" stroke="blue" stroke-width="2" />
<path d="M642,2106 L4546,1823" stroke="blue" stroke-width="2" />
<path d="M7925,156 L1466,1646" stroke="blue" stroke-width="2" />
<path d="M3411,3272 L3671,878" stroke="blue" stroke-width="2" />
<path d="M5193,1772 L7478,662" stroke="blue" stroke-width="2" />
<path d="M7013,1507 L3988,1797" stroke="blue" stroke-width="2" />
<path d="M7356,279 L2508,685" stroke="blue" stroke-width="2" />
<path d="M7838,692 L8,4372" stroke="blue" stroke-width="2" />
<path d="M4151,3468 L4567,898" stroke="blue" stroke-width="2" />
<path d="M7726,22 L5559,946" stroke="blue" stroke-width="2" />
<path d="M3474,3528 L7246,4257" stroke="blue" stroke-width="2" />
<path d="M5279,924 L3363,856" stroke="blue" stroke-width="2" />
<path d="M588,1829 L5334,3618" stroke="blue" stroke-width="2" />
<path d="M7501,4071 L6868,227" stroke="blue" stroke-width="2" />
<path d="M2999,3953 L6582,879" stroke="blue" stroke-width="2" />
<path d="M7717,1909 L4098,2049" stroke="blue" stroke-width="2" />
<path d="M7979,956 L3423,1523" stroke="blue" stroke-width="2" />
<path d="M3925,1937 L2319,4347" stroke="blue" stroke-width="2" />
<path d="M3376,3413 L3618,1237" stroke="blue" stroke-width="2" />
<path d="M6358,4111 L6298,3223" stroke="blue" stroke-width="2" />
<path d="M6987,353 L4570,2298" stroke="blue" stroke-width="2" />
<path d="M6613,3378 L4985,2122" stroke="blue" stroke-width="2" />
<path d="M7175,1872 L4836,432" stroke="blue" stroke-width="2" />
<path d="M2003,3727 L7076,2516" stroke="blue" stroke-width="2" />
<path d="M1012,2424 L1529,571" stroke="blue" stroke-width="2" />
<path d="M406,1935 L2410,2620" stroke="blue" stroke-width="2" />
<path d="M2096,2497 L6141,1752" stroke="blue" stroke-width="2" />
<path d="M3204,4069 L1212,4180" stroke="blue" stroke-width="2" />
<path d="M4919,3112 L6755,467" stroke="blue" stroke-width="2" />
<path d="M5712,1293 L1688,4160" stroke="blue" stroke-width="2" />
<path d="M3697,3401 L4160,2179" stroke="blue" stroke-width="2" />
<path d="M6468,4262 L2521,3290" stroke="blue" stroke-width="2" />
<path d="M7968,252 L1067,2796" stroke="blue" stroke-width="2" />
<path d="M3064,2521 L1909,1603" stroke="blue" stroke-width="2" />
<path d="M0,0 L8092,0" stroke="red" stroke-width="10" />
<path d="M8092,0 L8092,4399" stroke="red" stroke-width="10" />
<path d="M0,4399 L8092,4399" stroke="red" stroke-width="10" />
<path d="M0,4399 L0,0" stroke="red" stroke-width="10" />
</svg>