<?xml version="1.0" encoding="UTF-8"?>
<svg xmlns="http://www.w3.org/2000/svg" xmlns:xlink="http://www.w3.org/1999/xlink"
     width="10000" height="10000" viewBox="0 0 10000 10000">
<defs>
</defs>
<path d="M6214,2085 L5579,2675" stroke="blue" stroke-width="2" />
<path d="M3531,1086 L4961,685" stroke="blue" stroke-width="2" />
<path d="M4309,1310 L351,1257" stroke="blue" stroke-width="2" />
<path d="M2393,1104 L9080,204" stroke="blue" stroke-width="2" />
<path d="M1967,2451 L5243,2791" stroke="blue" stroke-width="2" />
<path d="M7973,2563 L8023,1355" stroke="blue" stroke-width="2" />
<path d="M6887,448 L1877,754" stroke="blue" stroke-width="2" />
<path d="M5488,1910 L5554,1460" stroke="blue" stroke-width="2" />
<path d="M8906,948 L5130,2621" stroke="blue" stroke-width="2" />
<path d="M717,2173 L955,1313" stroke="blue" stroke-width="2" />
<path d="M8033,2367 L1307,1920" stroke="blue" stroke-width="2" />
<path d="M5174,2213 L6685,2250" stroke="blue" stroke-width="2" />
<path d="M2335,2674 L6771,1686" stroke="blue" stroke-width="2" />
<path d="M5020,2915 L3032,1824" stroke="blue" stroke-width="2" />
<path d="M6180,2140 L7564,1738" stroke="blue" stroke-width="2" />
<path d="M1339,1489 L1929,2608" stroke="blue" stroke-width="2" />
<path d="M7871,1476 L4007,312" stroke="blue" stroke-width="2" />
<path d="M8565,1038 L780,2854" stroke="blue" stroke-width="2" />
<path d="M3696,768 L4988,787" stroke="blue" stroke-width="2" />
<path d="M3147,128 L7333,1734" stroke="blue" stroke-width="2" />
<path d="M7159,2586 L6935,1831" stroke="blue" stroke-width="2" />
<path d="M45,2742 L5754,793" stroke="blue" stroke-width="2" />
<path d="M1232,2312 L2008,1616" stroke="blue" stroke-width="2" />
<path d="M1698,2870 L9311,240" stroke="blue" stroke-width="2" />
<path d="M5887,1715 L61,133" stroke="blue" stroke-width="2" />
<path d="M5734,566 L3419,2459" stroke="blue" stroke-width="2" />
<path d="M2913,708 L6356,865" stroke="blue" stroke-width="2" />
<path d="M7139,60 L9233,844" stroke="blue" stroke-width="2" />
<path d="M8029,2174 L2744,2455" stroke="blue" stroke-width="2" />
<path d="M1801,3041 L3988,951" stroke="blue" stroke-width="2" />
<path d="M1349,2471 L7532,2179" stroke="blue" stroke-width="2" />
<path d="M2178,2200 L5684,790" stroke="blue" stroke-width="2" />
<path d="M2011,697 L6750,766" stroke="blue" stroke-width="2" />
<path d="M7735,2883 L2347,1241" stroke="blue" stroke-width="2" />
<path d="M2416,1892 L521,2832" stroke="blue" stroke-width="2" />
<path d="M3865,1544 L4745,884" stroke="blue" stroke-width="2" />
<path d="M2755,2861 L1336,275" stroke="blue" stroke-width="2" />
<path d="M7917,2490 L64,1106" stroke="blue" stroke-width="2" />
<path d="M3775,2112 L7343,1130" stroke="blue" stroke-width="2" />
<path d="M5913,3075 L2822,1519" stroke="blue" stroke-width="2" />
<path d="M6303,2009 L6396,3034" stroke="blue" stroke-width="2" />
<path d="M849,450 L1137,170" stroke="blue" stroke-width="2" />
<path d="M436,2656 L4747,240" stroke="blue" stroke-width="2" />
<path d="M2512,3047 L1797,1699" stroke="blue" stroke-width="2" />
<path d="M182,1557 L7939,1818" stroke="blue" stroke-width="2" />
<path d="M3256,640 L5622,2210" stroke="blue" stroke-width="2" />
<path d="M4678,2344 L7434,2607" stroke="blue" stroke-width="2" />
<path d="M5426,2489 L7830,491" stroke="blue" stroke-width="2" />
<path d="M6647,178 L4589,3035" stroke="blue" stroke-width="2" />
<path d="M9172,1961 L2047,2696" stroke="blue" stroke-width="2" />
<path d="M7510,1010 L1370,352" stroke="blue" stroke-width="2" />
<path d="M7902,1016 L8208,2699" stroke="blue" stroke-width="2" />
<path d="M7491,2073 L2208,569" stroke="blue" stroke-width="2" />
<path d="M1218,1027 L311,737" stroke="blue" stroke-width="2" />
<path d="M1561,2238 L2617,730" stroke="blue" stroke-width="2" />
<path d="M4602,818 L4102,1781" stroke="blue" stroke-width="2" />
<path d="M4616,938 L8635,2243" stroke="blue" stroke-width="2" />
<path d="M2689,2963 L430,3137" stroke="blue" stroke-width="2" />
<path d="M8701,1694 L5119,333" stroke="blue" stroke-width="2" />
<path d="M1089,2354 L4636,1946" stroke="blue" stroke-width="2" />
<path d="M4913,396 L7835,1342" stroke="blue" stroke-width="2" />
<path d="M2385,203 L4571,2383" stroke="blue" stroke-width="2" />
<path d="M607,1287 L1132,2691" stroke="blue" stroke-width="2" />
<path d="M6417,111 L4475,23" stroke="blue" stroke-width="2" />
<path d="M6805,2375 L9364,1227" stroke="blue" stroke-width="2" />
<path d="M8804,2189 L2843,1164" stroke="blue" stroke-width="2" />
<path d="M8269,1624 L1015,227" stroke="blue" stroke-width="2" />
<path d="M7655,937 L5171,1804" stroke="blue" stroke-width="2" />
<path d="M7683,1100 L648,2184" stroke="blue" stroke-width="2" />
<path d="M379,1710 L86,2746" stroke="blue" stroke-width="2" />
<path d="M923,255 L698,801" stroke="blue" stroke-width="2" />
<path d="M856,4 L6919,1884" stroke="blue" stroke-width="2" />
<path d="M3335,1638 L5518,500" stroke="blue" stroke-width="2" />
<path d="M267,395 L3619,1803" stroke="blue" stroke-width="2" />
<path d="M1579,1428 L754,1447" stroke="blue" stroke-width="2" />
<path d="M9050,1661 L789,208" stroke="blue" stroke-width="2" />
<path d="M4840,1282 L3275,1316" stroke="blue" stroke-width="2" />
<path d="M1519,1811 L7382,2272" stroke="blue" stroke-width="2" />
<path d="M8122,1782 L773,1746" stroke="blue" stroke-width="2" />
<path d="M2226,237 L5790,2814" stroke="blue" stroke-width="2" />
<path d="M5499,1958 L5475,639" stroke="blue" stroke-width="2" />
<path d="M7321,8 L3066,1835" stroke="blue" stroke-width="2" />
<path d="M7790,129 L6302,1489" stroke="blue" stroke-width="2" />
<path d="M6986,2477 L4415,1418" stroke="blue" stroke-width="2" />
<path d="M3761,355 L5367,3100" stroke="blue" stroke-width="2" />
<path d="M3862,1741 L2168,1270" stroke="blue" stroke-width="2" />
<path d="M3179,1143 L389,1123" stroke="blue" stroke-width="2" />
<path d="M7124,768 L8309,2572" stroke="blue" stroke-width="2" />
<path d="M4874,2767 L2701,256" stroke="blue" stroke-width="2" />
<path d="M6897,1043 L3011,2073" stroke="blue" stroke-width="2" />
<path d="M8698,2197 L2970,921" stroke="blue" stroke-width="2" />
<path d="M5105,2187 L9201,1442" stroke="blue" stroke-width="2" />
<path d="M5378,1564 L5368,1375" stroke="blue" stroke-width="2" />
<path d="M1228,1613 L1200,1608" stroke="blue" stroke-width="2" />
<path d="M6132,1524 L5855,1129" stroke="blue" stroke-width="2" />
<path d="M3085,523 L5823,456" stroke="blue" stroke-width="2" />
<path d="M7120,3053 L8023,2553" stroke="blue" stroke-width="2" />
<path d="M4397,552 L7799,1005" stroke="blue" stroke-width="2" />
<path d="M6366,1166 L4459,2197" stroke="blue" stroke-width="2" />
<path d="M3958,3059 L2100,3053" stroke="blue" stroke-width="2" />
<path d="M76,790 L2616,1614" stroke="blue" stroke-width="2" />
<path d="M5476,789 L979,2989" stroke="blue" stroke-width="2" />
<path d="M5987,2829 L7128,1810" stroke="blue" stroke-width="2" />
<path d="M879,2104 L3300,830" stroke="blue" stroke-width="2" />
<path d="M8346,952 L3080,2470" stroke="blue" stroke-width="2" />
<path d="M3498,2832 L6654,2893" stroke="blue" stroke-width="2" />
<path d="M474,667 L6483,2707" stroke="blue" stroke-width="2" />
<path d="M483,1093 L6515,2888" stroke="blue" stroke-width="2" />
<path d="M3673,868 L987,350" stroke="blue" stroke-width="2" />
<path d="M832,474 L9018,765" stroke="blue" stroke-width="2" />
<path d="M1502,85 L3488,2422" stroke="blue" stroke-width="2" />
<path d="M2768,1423 L5860,3036" stroke="blue" stroke-width="2" />
<path d="M2131,2292 L6655,2427" stroke="blue" stroke-width="2" />
<path d="M2637,152 L5414,1866" stroke="blue" stroke-width="2" />
<path d="M4828,2736 L1970,1599" stroke="blue" stroke-width="2" />
<path d="M8345,705 L4367,2867" stroke="blue" stroke-width="2" />
<path d="M8794,2690 L204,3084" stroke="blue" stroke-width="2" />
<path d="M3356,1913 L1849,1790" stroke="blue" stroke-width="2" />
<path d="M6844,2364 L1739,248" stroke="blue" stroke-width="2" />
<path d="M8721,587 L3786,536" stroke="blue" stroke-width="2" />
<path d="M8771,1918 L6666,1757" stroke="blue" stroke-width="2" />
<path d="M7169,1994 L4996,2233" stroke="blue" stroke-width="2" />
<path d="M4089,1894 L9115,2105" stroke="blue" stroke-width="2" />
<path d="M1773,2186 L5021,893" stroke="blue" stroke-width="2" />
<path d="M4942,672 L5224,1822" stroke="blue" stroke-width="2" />
<path d="M8351,2906 L476,1628" stroke="blue" stroke-width="2" />
<path d="M2684,2323 L1515,2435" stroke="blue" stroke-width="2" />
<path d="M4752,2520 L5608,1519" stroke="blue" stroke-width="2" />
<path d="M6959,1460 L7417,1698" stroke="blue" stroke-width="2" />
<path d="M3959,2407 L897,1682" stroke="blue" stroke-width="2" />
<path d="M7155,1230 L2972,1662" stroke="blue" stroke-width="2" />
<path d="M6763,387 L3865,945" stroke="blue" stroke-width="2" />
<path d="M8972,1348 L3181,3057" stroke="blue" stroke-width="2" />
<path d="M3173,249 L4811,1371" stroke="blue" stroke-width="2" />
<path d="M2324,743 L9098,73" stroke="blue" stroke-width="2" />
<path d="M5690,1549 L2914,75" stroke="blue" stroke-width="2" />
<path d="M8185,2602 L8100,2156" stroke="blue" stroke-width="2" />
<path d="M811,1814 L5383,1444" stroke="blue" stroke-width="2" />
<path d="M8622,2304 L8403,1061" stroke="blue" stroke-width="2" />
<path d="M2001,35 L8511,136" stroke="blue" stroke-width="2" />
<path d="M4349,1668 L5520,2009" stroke="blue" stroke-width="2" />
<path d="M5415,1663 L4005,3109" stroke="blue" stroke-width="2" />
<path d="M1634,1440 L2161,408" stroke="blue" stroke-width="2" />
<path d="M6059,422 L7833,2817" stroke="blue" stroke-width="2" />
<path d="M6976,846 L1202,2012" stroke="blue" stroke-width="2" />
<path d="M7850,2979 L4920,1226" stroke="blue" stroke-width="2" />
<path d="M8940,1774 L7315,1035" stroke="blue" stroke-width="2" />
<path d="M472,2549 L2238,2909" stroke="blue" stroke-width="2" />
<path d="M7338,87 L486,3121" stroke="blue" stroke-width="2" />
<path d="M3226,2493 L6724,893" stroke="blue" stroke-width="2" />
<path d="M3251,2194 L8044,1752" stroke="blue" stroke-width="2" />
<path d="M670,2242 L6183,978" stroke="blue" stroke-width="2" />
<path d="M8064,2784 L81,3065" stroke="blue" stroke-width="2" />
<path d="M808,3052 L7412,559" stroke="blue" stroke-width="2" />
<path d="M4280,984 L877,1018" stroke="blue" stroke-width="2" />
<path d="M1856,1954 L3311,1575" stroke="blue" stroke-width="2" />
<path d="M4826,2840 L5063,1796" stroke="blue" stroke-width="2" />
<path d="M6825,228 L256,2358" stroke="blue" stroke-width="2" />
<path d="M2125,884 L7113,64" stroke="blue" stroke-width="2" />
<path d="M3588,1082 L3733,973" stroke="blue" stroke-width="2" />
<path d="M5911,699 L8062,876" stroke="blue" stroke-width="2" />
<path d="M7823,1979 L5943,73" stroke="blue" stroke-width="2" />
<path d="M8953,1464 L5872,3140" stroke="blue" stroke-width="2" />
<path d="M9295,1552 L2373,2986" stroke="blue" stroke-width="2" />
<path d="M5126,2638 L9207,2062" stroke="blue" stroke-width="2" />
<path d="M1427,336 L5260,2924" stroke="blue" stroke-width="2" />
<path d="M1721,1699 L8205,1929" stroke="blue" stroke-width="2" />
<path d="M4036,1162 L1480,2459" stroke="blue" stroke-width="2" />
<path d="M171,1062 L3606,2629" stroke="blue" stroke-width="2" />
<path d="M882,1034 L1622,2690" stroke="blue" stroke-width="2" />
<path d="M1619,2532 L6892,3084" stroke="blue" stroke-width="2" />
<path d="M7946,252 L5892,620" stroke="blue" stroke-width="2" />
<path d="M9268,1672 L8532,3060" stroke="blue" stroke-width="2" />
<path d="M6963,1906 L2698,2461" stroke="blue" stroke-width="2" />
<path d="M6200,1187 L8293,2549" stroke="blue" stroke-width="2" />
<path d="M9311,1367 L6201,3098" stroke="blue" stroke-width="2" />
<path d="M8527,1230 L6741,1546" stroke="blue" stroke-width="2" />
<path d="M3376,393 L7507,2104" stroke="blue" stroke-width="2" />
<path d="M3933,1663 L4559,2081" stroke="blue" stroke-width="2" />
<path d="M3700,319 L4946,2697" stroke="blue" stroke-width="2" />
<path d="M7268,2254 L6513,737" stroke="blue" stroke-width="2" />
<path d="M2753,2400 L676,1113" stroke="blue" stroke-width="2" />
<path d="M5493,35 L5205,191" stroke="blue" stroke-width="2" />
<path d="M575,2342 L6469,3101" stroke="blue" stroke-width="2" />
<path d="M615,2325 L732,2233" stroke="blue" stroke-width="2" />
<path d="M9331,747 L4025,714" stroke="blue" stroke-width="2" />
<path d="M1911,2441 L1793,126" stroke="blue" stroke-width="2" />
<path d="M4346,2612 L2351,2015" stroke="blue" stroke-width="2" />
<path d="M1701,1460 L5035,2470" stroke="blue" stroke-width="2" />
<path d="M7687,312 L5307,1981" stroke="blue" stroke-width="2" />
<path d="M6932,892 L1890,1799" stroke="blue" stroke-width="2" />
<path d="M689,2784 L3823,2295" stroke="blue" stroke-width="2" />
<path d="M1838,2601 L1229,2999" stroke="blue" stroke-width="2" />
<path d="M6799,866 L1633,2904" stroke="blue" stroke-width="2" />
<path d="M5828,1383 L5561,2496" stroke="blue" stroke-width="2" />
<path d="M5654,2999 L8761,3057" stroke="blue" stroke-width="2" />
<path d="M7372,2802 L6841,2222" stroke="blue" stroke-width="2" />
<path d="M1968,982 L6299,2531" stroke="blue" stroke-width="2" />
<path d="M6500,160 L9213,410" stroke="blue" stroke-width="2" />
<path d="M4821,2504 L7369,2503" stroke="blue" stroke-width="2" />
<path d="M2751,2301 L8184,1134" stroke="blue" stroke-width="2" />
<path d="M97,2420 L1651,1837" stroke="blue" stroke-width="2" />
<path d="M565,2188 L6693,1527" stroke="blue" stroke-width="2" />
<path d="M4827,1545 L7225,3027" stroke="blue" stroke-width="2" />
<path d="M3468,790 L5455,1924" stroke="blue" stroke-width="2" />
<path d="M2691,775 L8263,3036" stroke="blue" stroke-width="2" />
<path d="M4488,3145 L1133,2681" stroke="blue" stroke-width="2" />
<path d="M6829,2722 L5949,2156" stroke="blue" stroke-width="2" />
<path d="M5144,456 L113,705" stroke="blue" stroke-width="2" />
<path d="M3872,2378 L4363,326" stroke="blue" stroke-width="2" />
<path d="M240,2734 L2134,1924" stroke="blue" stroke-width="2" />
<path d="M8607,1058 L7492,47" stroke="blue" stroke-width="2" />
<path d="M5605,1562 L6479,512" stroke="blue" stroke-width="2" />
<path d="M1038,1172 L6951,2198" stroke="blue" stroke-width="2" />
<path d="M9207,3114 L990,483" stroke="blue" stroke-width="2" />
<path d="M518,1278 L8757,2505" stroke="blue" stroke-width="2" />
<path d="M8275,1551 L6481,2746" stroke="blue" stroke-width="2" />
<path d="M6697,2448 L2102,3148" stroke="blue" stroke-width="2" />
<path d="M8154,512 L4786,2645" stroke="blue" stroke-width="2" />
<path d="M5993,2100 L6540,844" stroke="blue" stroke-width="2" />
<path d="M7717,2720 L1827,632" stroke="blue" stroke-width="2" />
<path d="M5685,2318 L206,2568" stroke="blue" stroke-width="2" />
<path d="M4273,2969 L5310,2844" stroke="blue" stroke-width="2" />
<path d="M394,245 L4819,3024" stroke="blue" stroke-width="2" />
<path d="M3056,2613 L5529,2202" stroke="blue" stroke-width="2" />
<path d="M3059,980 L792,1267" stroke="blue" stroke-width="2" />
<path d="M9014,2219 L8044,1194" stroke="blue" stroke-width="2" />
<path d="M7553,556 L358,774" stroke="blue" stroke-width="2" />
<path d="M461,748 L609,1612" stroke="blue" stroke-width="2" />
<path d="M1846,2191 L8996,2190" stroke="blue" stroke-width="2" />
<path d="M1966,1861 L5088,300" stroke="blue" stroke-width="2" />
<path d="M1803,1188 L1137,2632" stroke="blue" stroke-width="2" />
<path d="M5496,2366 L7128,1308" stroke="blue" stroke-width="2" />
<path d="M7447,2406 L2587,2660" stroke="blue" stroke-width="2" />
<path d="M5814,349 L1200,2580" stroke="blue" stroke-width="2" />
<path d="M8564,2480 L460,955" stroke="blue" stroke-width="2" />
<path d="M7477,570 L1674,2336" stroke="blue" stroke-width="2" />
<path d="M866,2942 L3272,2077" stroke="blue" stroke-width="2" />
<path d="M6595,2156 L2917,2494" stroke="blue" stroke-width="2" />
<path d="M371,2280 L713,566" stroke="blue" stroke-width="2" />
<path d="M4464,2843 L5795,1454" stroke="blue" stroke-width="2" />
<path d="M825,1740 L8169,1823" stroke="blue" stroke-width="2" />
<path d="M4487,1932 L5474,2191" stroke="blue" stroke-width="2" />
<path d="M5919,463 L179,1285" stroke="blue" stroke-width="2" />
<path d="M648,920 L5833,1573" stroke="blue" stroke-width="2" />
<path d="M500,473 L4012,528" stroke="blue" stroke-width="2" />
<path d="M5749,371 L734,2641" stroke="blue" stroke-width="2" />
<path d="M6958,2052 L1880,1225" stroke="blue" stroke-width="2" />
<path d="M2566,2475 L192,906" stroke="blue" stroke-width="2" />
<path d="M5149,1564 L3233,939" stroke="blue" stroke-width="2" />
<path d="M3114,2678 L5918,1863" stroke="blue" stroke-width="2" />
<path d="M6651,1648 L7571,2980" stroke="blue" stroke-width="2" />
<path d="M2519,2422 L4752,2734" stroke="blue" stroke-width="2" />
<path d="M2126,2976 L7280,773" stroke="blue" stroke-width="2" />
<path d="M718,2809 L4611,240" stroke="blue" stroke-width="2" />
<path d="M2620,697 L4001,2943" stroke="blue" stroke-width="2" />
<path d="M8317,608 L4321,2616" stroke="blue" stroke-width="2" />
<path d="M1454,708 L4332,207" stroke="blue" stroke-width="2" />
<path d="M2571,1019 L2072,3004" stroke="blue" stroke-width="2" />
<path d="M1995,221 L2255,3049" stroke="blue" stroke-width="2" />
<path d="M316,1974 L6868,2348" stroke="blue" stroke-width="2" />
<path d="M653,3084 L8651,591" stroke="blue" stroke-width="2" />
<path d="M7703,1036 L7423,964" stroke="blue" stroke-width="2" />
<path d="M3508,993 L149,1809" stroke="blue" stroke-width="2" />
<path d="M3188,518 L18,2069" stroke="blue" stroke-width="2" />
<path d="M1752,837 L2711,1022" stroke="blue" stroke-width="2" />
<path d="M8802,2765 L1030,1278" stroke="blue" stroke-width="2" />
<path d="M4954,2147 L5423,769" stroke="blue" stroke-width="2" />
<path d="M194,2693 L5604,1948" stroke="blue" stroke-width="2" />
<path d="M1762,1253 L4815,95" stroke="blue" stroke-width="2" />
<path d="M5271,3086 L7833,257" stroke="blue" stroke-width="2" />
<path d="M8650,593 L5644,1334" stroke="blue" stroke-width="2" />
<path d="M8678,2509 L5270,241" stroke="blue" stroke-width="2" />
<path d="M1319,310 L7460,515" stroke="blue" stroke-width="2" />
<path d="M7248,286 L6329,2067" stroke="blue" stroke-width="2" />
<path d="M728,578 L7631,388" stroke="blue" stroke-width="2" />
<path d="M8754,467 L4720,601" stroke="blue" stroke-width="2" />
<path d="M6319,2945 L6256,137" stroke="blue" stroke-width="2" />
<path d="M685,1470 L3331,2616" stroke="blue" stroke-width="2" />
<path d="M7314,2035 L6945,1946" stroke="blue" stroke-width="2" />
<path d="M8889,659 L9102,24" stroke="blue" stroke-width="2" />
<path d="M326,676 L2060,505" stroke="blue" stroke-width="2" />
<path d="M5632,2492 L379,1614" stroke="blue" stroke-width="2" />
<path d="M4910,2530 L8556,12" stroke="blue" stroke-width="2" />
<path d="M6949,2176 L4694,1718" stroke="blue" stroke-width="2" />
<path d="M6383,1106 L1637,1427" stroke="blue" stroke-width="2" />
<path d="M4128,623 L7763,2670" stroke="blue" stroke-width="2" />
<path d="M0,36 L7620,1389" stroke="blue" stroke-width="2" />
<path d="M4539,263 L8109,1541" stroke="blue" stroke-width="2" />
<path d="M6875,1834 L5811,1413" stroke="blue" stroke-width="2" />
<path d="M1111,2607 L1883,1910" stroke="blue" stroke-width="2" />
<path d="M9246,2547 L1144,2926" stroke="blue" stroke-width="2" />
<path d="M6750,1235 L2947,2159" stroke="blue" stroke-width="2" />
<path d="M389,598 L8535,996" stroke="blue" stroke-width="2" />
<path d="M6547,1186 L1477,364" stroke="blue" stroke-width="2" />
<path d="M3402,2252 L1457,2786" stroke="blue" stroke-width="2" />
<path d="M4984,2774 L3686,643" stroke="blue" stroke-width="2" />
<path d="M5689,1489 L4254,2563" stroke="blue" stroke-width="2" />
<path d="M2420,2204 L1705,74" stroke="blue" stroke-width="2" />
<path d="M8800,2610 L5765,361" stroke="blue" stroke-width="2" />
<path d="M8767,1099 L8935,2273" stroke="blue" stroke-width="2" />
<path d="M728,2117 L1462,997" stroke="blue" stroke-width="2" />
<path d="M6412,2015 L6630,1644" stroke="blue" stroke-width="2" />
<path d="M6892,2577 L7084,505" stroke="blue" stroke-width="2" />
<path d="M5137,136 L8970,1468" stroke="blue" stroke-width="2" />
<path d="M3098,2341 L6221,368" stroke="blue" stroke-width="2" />
<path d="M47,512 L3995,1485" stroke="blue" stroke-width="2" />
<path d="M7785,2846 L876,1546" stroke="blue" stroke-width="2" />
<path d="M7462,3068 L6246,873" stroke="blue" stroke-width="2" />
<path d="M3821,1036 L5323,481" stroke="blue" stroke-width="2" />
<path d="M4888,3146 L1852,2964" stroke="blue" stroke-width="2" />
<path d="M1502,1083 L7468,2928" stroke="blue" stroke-width="2" />
<path d="M5861,2161 L2688,1014" stroke="blue" stroke-width="2" />
<path d="M4297,1285 L5375,1407" stroke="blue" stroke-width="2" />
<path d="M4685,1338 L3277,2430" stroke="blue" stroke-width="2" />
<path d="M2855,1623 L577,1803" stroke="blue" stroke-width="2" />
<path d="M8079,41 L1108,2313" stroke="blue" stroke-width="2" />
<path d="M2352,1236 L1644,2480" stroke="blue" stroke-width="2" />
<path d="M549,1863 L3822,1866" stroke="blue" stroke-width="2" />
<path d="M4501,1763 L9205,2931" stroke="blue" stroke-width="2" />
<path d="M7489,142 L7742,710" stroke="blue" stroke-width="2" />
<path d="M8648,1868 L6537,821" stroke="blue" stroke-width="2" />
<path d="M2568,3044 L8427,1780" stroke="blue" stroke-width="2" />
<path d="M8673,221 L5087,2455" stroke="blue" stroke-width="2" />
<path d="M8902,650 L6852,806" stroke="blue" stroke-width="2" />
<path d="M3649,2799 L984,1009" stroke="blue" stroke-width="2" />
<path d="M2150,1796 L2218,1898" stroke="blue" stroke-width="2" />
<path d="M8923,1834 L8722,2996" stroke="blue" stroke-width="2" />
<path d="M703,88 L4950,699" stroke="blue" stroke-width="2" />
<path d="M4579,460 L1047,2041" stroke="blue" stroke-width="2" />
<path d="M7646,2459 L1657,1803" stroke="blue" stroke-width="2" />
<path d="M3582,2800 L4270,1772" stroke="blue" stroke-width="2" />
<path d="M1405,2582 L5666,587" stroke="blue" stroke-width="2" />
<path d="M2039,319 L7870,2164" stroke="blue" stroke-width="2" />
<path d="M4305,235 L2572,2710" stroke="blue" stroke-width="2" />
<path d="M1465,2978 L5438,2226" stroke="blue" stroke-width="2" />
<path d="M8218,482 L3702,2862" stroke="blue" stroke-width="2" />
<path d="M8659,136 L6167,2700" stroke="blue" stroke-width="2" />
<path d="M5275,2696 L8913,675" stroke="blue" stroke-width="2" />
<path d="M3941,583 L6761,2910" stroke="blue" stroke-width="2" />
<path d="M592,1869 L9422,1484" stroke="blue" stroke-width="2" />
<path d="M762,2158 L4299,1715" stroke="blue" stroke-width="2" />
<path d="M1322,474 L8474,2655" stroke="blue" stroke-width="2" />
<path d="M8193,2423 L3772,2403" stroke="blue" stroke-width="2" />
<path d="M6064,525 L3080,1844" stroke="blue" stroke-width="2" />
<path d="M8128,2894 L1796,2849" stroke="blue" stroke-width="2" />
<path d="M2968,2856 L7840,1322" stroke="blue" stroke-width="2" />
<path d="M6878,2799 L2692,826" stroke="blue" stroke-width="2" />
<path d="M8632,1578 L6730,2888" stroke="blue" stroke-width="2" />
<path d="M6699,2806 L4748,3049" stroke="blue" stroke-width="2" />
<path d="M6536,1233 L4449,2770" stroke="blue" stroke-width="2" />
<path d="M3345,2612 L7822,1872" stroke="blue" stroke-width="2" />
<path d="M70,1684 L1419,2317" stroke="blue" stroke-width="2" />
<path d="M6450,2352 L7785,2287" stroke="blue" stroke-width="2" />
<path d="M377,3094 L4000,568" stroke="blue" stroke-width="2" />
<path d="M3138,1771 L2000,406" stroke="blue" stroke-width="2" />
<path d="M5786,2451 L7948,674" stroke="blue" stroke-width="2" />
<path d="M7858,3033 L7449,2016" stroke="blue" stroke-width="2" />
<path d="M1692,2537 L4295,3059" stroke="blue" stroke-width="2" />
<path d="M4996,2978 L8182,188" stroke="blue" stroke-width="2" />
<path d="M7240,2761 L3734,216" stroke="blue" stroke-width="2" />
<path d="M3690,640 L6181,2073" stroke="blue" stroke-width="2" />
<path d="M4979,1247 L1070,1232" stroke="blue" stroke-width="2" />
<path d="M4158,1801 L2081,2775" stroke="blue" stroke-width="2" />
<path d="M7931,161 L1868,1328" stroke="blue" stroke-width="2" />
<path d="M1069,3071 L6599,2134" stroke="blue" stroke-width="2" />
<path d="M2605,3072 L8807,198" stroke="blue" stroke-width="2" />
<path d="M3887,1830 L9094,517" stroke="blue" stroke-width="2" />
<path d="M8360,2459 L4728,1065" stroke="blue" stroke-width="2" />
<path d="M342,1652 L524,546" stroke="blue" stroke-width="2" />
<path d="M2586,1832 L5349,1510" stroke="blue" stroke-width="2" />
<path d="M4314,1387 L5770,199" stroke="blue" stroke-width="2" />
<path d="M280,747 L7109,2959" stroke="blue" stroke-width="2" />
<path d="M1413,829 L4218,8" stroke="blue" stroke-width="2" />
<path d="M7610,2813 L4541,414" stroke="blue" stroke-width="2" />
<path d="M5083,2540 L2456,2823" stroke="blue" stroke-width="2" />
<path d="M429,2037 L7635,665" stroke="blue" stroke-width="2" />
<path d="M2982,894 L9138,1235" stroke="blue" stroke-width="2" />
<path d="M5268,791 L5985,2478" stroke="blue" stroke-width="2" />
<path d="M1021,2964 L6836,2112" stroke="blue" stroke-width="2" />
<path d="M1602,2943 L1812,2266" stroke="blue" stroke-width="2" />
<path d="M7791,123 L7251,90" stroke="blue" stroke-width="2" />
<path d="M2545,1159 L7368,249" stroke="blue" stroke-width="2" />
<path d="M4693,2870 L1808,3131" stroke="blue" stroke-width="2" />
<path d="M8446,2451 L1226,1134" stroke="blue" stroke-width="2" />
<path d="M5044,2624 L2577,728" stroke="blue" stroke-width="2" />
<path d="M3743,840 L5075,134" stroke="blue" stroke-width="2" />
<path d="M6779,638 L5535,1967" stroke="blue" stroke-width="2" />
<path d="M8536,810 L8869,2164" stroke="blue" stroke-width="2" />
<path d="M5124,533 L3617,2028" stroke="blue" stroke-width="2" />
<path d="M6662,2186 L2895,2173" stroke="blue" stroke-width="2" />
<path d="M5993,2589 L3695,2262" stroke="blue" stroke-width="2" />
<path d="M4149,1131 L3181,1229" stroke="blue" stroke-width="2" />
<path d="M9340,2127 L1971,1743" stroke="blue" stroke-width="2" />
<path d="M7198,600 L2985,182" stroke="blue" stroke-width="2" />
<path d="M6754,927 L8240,251" stroke="blue" stroke-width="2" />
<path d="M9155,466 L2398,2970" stroke="blue" stroke-width="2" />
<path d="M6362,2601 L1724,3031" stroke="blue" stroke-width="2" />
<path d="M4837,3073 L6244,2389" stroke="blue" stroke-width="2" />
<path d="M7322,802 L1321,1948" stroke="blue" stroke-width="2" />
<path d="M518,1817 L6734,748" stroke="blue" stroke-width="2" />
<path d="M2980,1412 L4732,3055" stroke="blue" stroke-width="2" />
<path d="M5645,1252 L74,1621" stroke="blue" stroke-width="2" />
<path d="M8731,2345 L1137,933" stroke="blue" stroke-width="2" />
<path d="M642,302 L2862,2435" stroke="blue" stroke-width="2" />
<path d="M6541,1812 L6163,845" stroke="blue" stroke-width="2" />
<path d="M6327,2743 L1791,2970" stroke="blue" stroke-width="2" />
<path d="M1533,909 L4648,1258" stroke="blue" stroke-width="2" />
<path d="M1759,900 L6333,2099" stroke="blue" stroke-width="2" />
<path d="M4637,670 L4775,3015" stroke="blue" stroke-width="2" />
<path d="M8238,961 L3525,1328" stroke="blue" stroke-width="2" />
<path d="M2411,1475 L3774,1331" stroke="blue" stroke-width="2" />
<path d="M7871,1386 L2262,2330" stroke="blue" stroke-width="2" />
<path d="M683,1614 L4023,3037" stroke="blue" stroke-width="2" />
<path d="M711,954 L1913,305" stroke="blue" stroke-width="2" />
<path d="M6109,566 L4637,2446" stroke="blue" stroke-width="2" />
<path d="M6704,108 L6825,2192" stroke="blue" stroke-width="2" />
<path d="M4611,115 L1550,1650" stroke="blue" stroke-width="2" />
<path d="M619,2124 L6074,1068" stroke="blue" stroke-width="2" />
<path d="M4068,2017 L2943,486" stroke="blue" stroke-width="2" />
<path d="M7142,297 L6129,1118" stroke="blue" stroke-width="2" />
<path d="M8365,1076 L8767,727" stroke="blue" stroke-width="2" />
<path d="M8612,1551 L9195,273" stroke="blue" stroke-width="2" />
<path d="M6085,337 L6503,386" stroke="blue" stroke-width="2" />
<path d="M3369,756 L6310,2305" stroke="blue" stroke-width="2" />
<path d="M5860,571 L8876,1789" stroke="blue" stroke-width="2" />
<path d="M1070,2946 L2503,377" stroke="blue" stroke-width="2" />
<path d="M1441,717 L2118,1104" stroke="blue" stroke-width="2" />
<path d="M7860,2841 L2672,3052" stroke="blue" stroke-width="2" />
<path d="M5971,2391 L5861,2219" stroke="blue" stroke-width="2" />
<path d="M7551,147 L352,1473" stroke="blue" stroke-width="2" />
<path d="M3891,299 L509,2325" stroke="blue" stroke-width="2" />
<path d="M8542,2311 L3335,2430" stroke="blue" stroke-width="2" />
<path d="M2737,2572 L5366,1592" stroke="blue" stroke-width="2" />
<path d="M6883,2850 L8675,2837" stroke="blue" stroke-width="2" />
<path d="M225,2022 L3417,1374" stroke="blue" stroke-width="2" />
<path d="M6476,619 L5280,1680" stroke="blue" stroke-width="2" />
<path d="M4309,473 L8306,2408" stroke="blue" stroke-width="2" />
<path d="M9207,560 L1238,1590" stroke="blue" stroke-width="2" />
<path d="M8234,560 L1720,3123" stroke="blue" stroke-width="2" />
<path d="M7526,1900 L2787,1151" stroke="blue" stroke-width="2" />
<path d="M3300,2184 L4936,1778" stroke="blue" stroke-width="2" />
<path d="M1382,2056 L7892,2009" stroke="blue" stroke-width="2" />
<path d="M2546,2947 L5148,130" stroke="blue" stroke-width="2" />
<path d="M2180,2727 L3483,2174" stroke="blue" stroke-width="2" />
<path d="M7153,1467 L6545,1784" stroke="blue" stroke-width="2" />
<path d="M7437,441 L8312,1518" stroke="blue" stroke-width="2" />
<path d="M4088,3021 L1659,2736" stroke="blue" stroke-width="2" />
<path d="M6406,1850 L5465,1997" stroke="blue" stroke-width="2" />
<path d="M5990,1670 L992,1930" stroke="blue" stroke-width="2" />
<path d="M4189,3108 L7397,2690" stroke="blue" stroke-width="2" />
<path d="M5758,731 L1216,2339" stroke="blue" stroke-width="2" />
<path d="M17,1135 L9290,2774" stroke="blue" stroke-width="2" />
<path d="M2100,1094 L5670,501" stroke="blue" stroke-width="2" />
<path d="M3890,2186 L7067,913" stroke="blue" stroke-width="2" />
<path d="M2509,1030 L7371,2963" stroke="blue" stroke-width="2" />
<path d="M7413,747 L2687,1226" stroke="blue" stroke-width="2" />
<path d="M9178,1165 L6499,2589" stroke="blue" stroke-width="2" />
<path d="M4219,880 L3078,1631" stroke="blue" stroke-width="2" />
<path d="M948,1863 L8912,578" stroke="blue" stroke-width="2" />
<path d="M4184,2733 L90,150" stroke="blue" stroke-width="2" />
<path d="M3693,618 L1893,579" stroke="blue" stroke-width="2" />
<path d="M8930,1309 L6755,173" stroke="blue" stroke-width="2" />
<path d="M6632,425 L9317,2542" stroke="blue" stroke-width="2" />
<path d="M7154,1340 L8833,965" stroke="blue" stroke-width="2" />
<path d="M6578,2808 L9143,1388" stroke="blue" stroke-width="2" />
<path d="M8089,1954 L5921,2070" stroke="blue" stroke-width="2" />
<path d="M7242,1945 L8327,920" stroke="blue" stroke-width="2" />
<path d="M2947,1259 L7983,2598" stroke="blue" stroke-width="2" />
<path d="M223,1957 L183,159" stroke="blue" stroke-width="2" />
<path d="M3014,2963 L5801,2231" stroke="blue" stroke-width="2" />
<path d="M512,1995 L6843,1854" stroke="blue" stroke-width="2" />
<path d="M5463,121 L7169,1559" stroke="blue" stroke-width="2" />
<path d="M4614,2088 L5748,1366" stroke="blue" stroke-width="2" />
<path d="M8585,170 L4976,872" stroke="blue" stroke-width="2" />
<path d="M6694,1883 L7309,2760" stroke="blue" stroke-width="2" />
<path d="M2836,846 L6930,3" stroke="blue" stroke-width="2" />
<path d="M5943,1672 L6563,2053" stroke="blue" stroke-width="2" />
<path d="M1883,193 L2131,2516" stroke="blue" stroke-width="2" />
<path d="M2300,1692 L4779,3008" stroke="blue" stroke-width="2" />
<path d="M2730,998 L2516,1241" stroke="blue" stroke-width="2" />
<path d="M3125,3097 L3066,532" stroke="blue" stroke-width="2" />
<path d="M4633,266 L8407,1002" stroke="blue" stroke-width="2" />
<path d="M5744,642 L5004,2406" stroke="blue" stroke-width="2" />
<path d="M4686,409 L9103,1413" stroke="blue" stroke-width="2" />
<path d="M5128,887 L3830,321" stroke="blue" stroke-width="2" />
<path d="M5152,453 L6060,2621" stroke="blue" stroke-width="2" />
<path d="M4138,2481 L1919,1251" stroke="blue" stroke-width="2" />
<path d="M1071,2021 L2181,476" stroke="blue" stroke-width="2" />
<path d="M1977,1496 L1557,2632" stroke="blue" stroke-width="2" />
<path d="M5116,1534 L2417,982" stroke="blue" stroke-width="2" />
<path d="M6599,744 L1685,1062" stroke="blue" stroke-width="2" />
<path d="M8469,1550 L7102,1709" stroke="blue" stroke-width="2" />
<path d="M1265,2611 L577,2701" stroke="blue" stroke-width="2" />
<path d="M3896,965 L9331,762" stroke="blue" stroke-width="2" />
<path d="M3268,127 L6861,914" stroke="blue" stroke-width="2" />
<path d="M1762,1573 L7213,903" stroke="blue" stroke-width="2" />
<path d="M8220,525 L6737,2715" stroke="blue" stroke-width="2" />
<path d="M5626,882 L3185,3051" stroke="blue" stroke-width="2" />
<path d="M5386,372 L6205,2715" stroke="blue" stroke-width="2" />
<path d="M7382,444 L5093,858" stroke="blue" stroke-width="2" />
<path d="M5429,172 L4428,625" stroke="blue" stroke-width="2" />
<path d="M7744,840 L6522,845" stroke="blue" stroke-width="2" />
<path d="M7439,3142 L7475,1373" stroke="blue" stroke-width="2" />
<path d="M3689,443 L7646,408" stroke="blue" stroke-width="2" />
<path d="M4156,2641 L3475,595" stroke="blue" stroke-width="2" />
<path d="M1745,841 L2169,2496" stroke="blue" stroke-width="2" />
<path d="M2001,2804 L8325,2707" stroke="blue" stroke-width="2" />
<path d="M84,628 L416,1092" stroke="blue" stroke-width="2" />
<path d="M5526,1608 L837,2473" stroke="blue" stroke-width="2" />
<path d="M9434,219 L2151,1470" stroke="blue" stroke-width="2" />
<path d="M2517,1151 L4552,2061" stroke="blue" stroke-width="2" />
<path d="M4455,2097 L3876,1878" stroke="blue" stroke-width="2" />
<path d="M1832,1022 L6349,2070" stroke="blue" stroke-width="2" />
<path d="M5969,1018 L1252,2975" stroke="blue" stroke-width="2" />
<path d="M6780,2053 L6841,795" stroke="blue" stroke-width="2" />
<path d="M1339,2383 L6664,2707" stroke="blue" stroke-width="2" />
<path d="M4575,383 L3073,2816" stroke="blue" stroke-width="2" />
<path d="M5360,716 L6487,1357" stroke="blue" stroke-width="2" />
<path d="M7916,1037 L3271,2201" stroke="blue" stroke-width="2" />
<path d="M659,35 L7340,1826" stroke="blue" stroke-width="2" />
<path d="M6911,968 L5602,1144" stroke="blue" stroke-width="2" />
<path d="M7643,763 L6220,3066" stroke="blue" stroke-width="2" />
<path d="M7480,2026 L4914,2527" stroke="blue" stroke-width="2" />
<path d="M8433,2056 L3926,2102" stroke="blue" stroke-width="2" />
<path d="M5927,1398 L4062,2941" stroke="blue" stroke-width="2" />
<path d="M7385,1706 L7649,1250" stroke="blue" stroke-width="2" />
<path d="M1877,181 L7823,831" stroke="blue" stroke-width="2" />
<path d="M857,267 L8449,2206" stroke="blue" stroke-width="2" />
<path d="M1247,1518 L2590,2873" stroke="blue" stroke-width="2" />
<path d="M2925,1723 L6776,1079" stroke="blue" stroke-width="2" />
<path d="M300,1190 L5987,2573" stroke="blue" stroke-width="2" />
<path d="M4696,1136 L827,3101" stroke="blue" stroke-width="2" />
<path d="M2749,78 L5420,1007" stroke="blue" stroke-width="2" />
<path d="M4588,2146 L7046,2842" stroke="blue" stroke-width="2" />
<path d="M4107,2485 L1113,3007" stroke="blue" stroke-width="2" />
<path d="M4639,3117 L1252,2097" stroke="blue" stroke-width="2" />
<path d="M4797,1354 L6270,772" stroke="blue" stroke-width="2" />
<path d="M5195,1147 L1039,644" stroke="blue" stroke-width="2" />
<path d="M6571,2927 L8932,2925" stroke="blue" stroke-width="2" />
<path d="M8363,2406 L2747,2689" stroke="blue" stroke-width="2" />
<path d="M4354,696 L9011,2484" stroke="blue" stroke-width="2" />
<path d="M2377,528 L9026,2716" stroke="blue" stroke-width="2" />
<path d="M150,2065 L8502,982" stroke="blue" stroke-width="2" />
<path d="M2720,2507 L8899,730" stroke="blue" stroke-width="2" />
<path d="M2008,2002 L3206,1921" stroke="blue" stroke-width="2" />
<path d="M7532,150 L7858,1350" stroke="blue" stroke-width="2" />
<path d="M5013,35 L8561,3126" stroke="blue" stroke-width="2" />
<path d="M2911,3135 L5177,1646" stroke="blue" stroke-width="2" />
<path d="M5345,242 L7574,2703" stroke="blue" stroke-width="2" />
<path d="M4215,2288 L4914,2561" stroke="blue" stroke-width="2" />
<path d="M2420,1751 L1165,2526" stroke="blue" stroke-width="2" />
<path d="M9377,2937 L548,34" stroke="blue" stroke-width="2" />
<path d="M8915,2310 L4887,503" stroke="blue" stroke-width="2" />
<path d="M4131,880 L5422,2272" stroke="blue" stroke-width="2" />
<path d="M9287,225 L9182,679" stroke="blue" stroke-width="2" />
<path d="M7507,1318 L3806,597" stroke="blue" stroke-width="2" />
<path d="M4828,2651 L2727,731" stroke="blue" stroke-width="2" />
<path d="M9219,170 L9393,2237" stroke="blue" stroke-width="2" />
<path d="M8281,2643 L6541,2619" stroke="blue" stroke-width="2" />
<path d="M2042,3051 L3106,1468" stroke="blue" stroke-width="2" />
<path d="M8412,413 L6532,371" stroke="blue" stroke-width="2" />
<path d="M526,2146 L8206,1642" stroke="blue" stroke-width="2" />
<path d="M862,1855 L9151,66" stroke="blue" stroke-width="2" />
<path d="M5014,1832 L7047,2206" stroke="blue" stroke-width="2" />
<path d="M2076,941 L6426,101" stroke="blue" stroke-width="2" />
<path d="M8377,1976 L6205,614" stroke="blue" stroke-width="2" />
<path d="M3533,1776 L6503,2206" stroke="blue" stroke-width="2" />
<path d="M3986,162 L9057,38" stroke="blue" stroke-width="2" />
<path d="M5641,1196 L5507,445" stroke="blue" stroke-width="2" />
<path d="M3383,153 L3894,2379" stroke="blue" stroke-width="2" />
<path d="M4538,2681 L6273,2861" stroke="blue" stroke-width="2" />
<path d="M7983,2598 L6612,2016" stroke="blue" stroke-width="2" />
<path d="M8152,2177 L8402,1885" stroke="blue" stroke-width="2" />
<path d="M2967,2319 L7596,1926" stroke="blue" stroke-width="2" />
<path d="M1329,2846 L4092,968" stroke="blue" stroke-width="2" />
<path d="M694,2699 L6803,45" stroke="blue" stroke-width="2" />
<path d="M7716,1933 L8724,3106" stroke="blue" stroke-width="2" />
<path d="M3138,1413 L6717,2275" stroke="blue" stroke-width="2" />
<path d="M6403,969 L8878,1699" stroke="blue" stroke-width="2" />
<path d="M5844,783 L368,1086" stroke="blue" stroke-width="2" />
<path d="M1216,880 L2686,2801" stroke="blue" stroke-width="2" />
<path d="M8982,2167 L1055,1512" stroke="blue" stroke-width="2" />
<path d="M8120,243 L9332,1902" stroke="blue" stroke-width="2" />
<path d="M2229,2058 L1336,1837" stroke="blue" stroke-width="2" />
<path d="M1279,803 L8869,213" stroke="blue" stroke-width="2" />
<path d="M8662,1318 L3370,1777" stroke="blue" stroke-width="2" />
<path d="M8264,2249 L3148,221" stroke="blue" stroke-width="2" />
<path d="M6541,1669 L3584,3115" stroke="blue" stroke-width="2" />
<path d="M6271,1314 L9207,2874" stroke="blue" stroke-width="2" />
<path d="M9317,634 L1540,2114" stroke="blue" stroke-width="2" />
<path d="M1750,558 L7029,2492" stroke="blue" stroke-width="2" />
<path d="M3490,1597 L410,886" stroke="blue" stroke-width="2" />
<path d="M4075,774 L7,1214" stroke="blue" stroke-width="2" />
<path d="M1754,1744 L1045,2630" stroke="blue" stroke-width="2" />
<path d="M7137,2672 L8126,666" stroke="blue" stroke-width="2" />
<path d="M9235,2537 L1256,3022" stroke="blue" stroke-width="2" />
<path d="M6038,629 L1144,2405" stroke="blue" stroke-width="2" />
<path d="M6073,964 L7661,1571" stroke="blue" stroke-width="2" />
<path d="M4470,2955 L5735,115" stroke="blue" stroke-width="2" />
<path d="M4240,139 L9102,1369" stroke="blue" stroke-width="2" />
<path d="M2488,1325 L6567,722" stroke="blue" stroke-width="2" />
<path d="M450,1269 L2248,1077" stroke="blue" stroke-width="2" />
<path d="M5150,396 L4735,2469" stroke="blue" stroke-width="2" />
<path d="M3977,202 L9009,2240" stroke="blue" stroke-width="2" />
<path d="M9311,850 L1111,1909" stroke="blue" stroke-width="2" />
<path d="M748,656 L6855,1434" stroke="blue" stroke-width="2" />
<path d="M8158,912 L4649,2434" stroke="blue" stroke-width="2" />
<path d="M7153,2711 L3268,2095" stroke="blue" stroke-width="2" />
<path d="M523,2444 L5333,2342" stroke="blue" stroke-width="2" />
<path d="M2814,2606 L1633,2398" stroke="blue" stroke-width="2" />
<path d="M2575,1989 L5908,1947" stroke="blue" stroke-width="2" />
<path d="M3438,1062 L3128,2642" stroke="blue" stroke-width="2" />
<path d="M6847,2183 L1490,3102" stroke="blue" stroke-width="2" />
<path d="M1966,643 L3532,2097" stroke="blue" stroke-width="2" />
<path d="M6897,1712 L2188,3023" stroke="blue" stroke-width="2" />
<path d="M5249,368 L9101,3119" stroke="blue" stroke-width="2" />
<path d="M8798,1598 L9095,2084" stroke="blue" stroke-width="2" />
<path d="M5827,1745 L7784,1746" stroke="blue" stroke-width="2" />
<path d="M1063,953 L7176,344" stroke="blue" stroke-width="2" />
<path d="M3464,2604 L7287,441" stroke="blue" stroke-width="2" />
<path d="M8976,1714 L1878,3001" stroke="blue" stroke-width="2" />
<path d="M4482,2620 L8765,209" stroke="blue" stroke-width="2" />
<path d="M8074,2912 L4703,446" stroke="blue" stroke-width="2" />
<path d="M5103,1491 L7533,2976" stroke="blue" stroke-width="2" />
<path d="M2417,2866 L2398,2828" stroke="blue" stroke-width="2" />
<path d="M3797,3080 L2490,466" stroke="blue" stroke-width="2" />
<path d="M8832,1101 L710,1753" stroke="blue" stroke-width="2" />
<path d="M5954,2702 L7635,284" stroke="blue" stroke-width="2" />
<path d="M4099,537 L773,2769" stroke="blue" stroke-width="2" />
<path d="M5689,671 L1157,2959" stroke="blue" stroke-width="2" />
<path d="M6852,259 L497,1679" stroke="blue" stroke-width="2" />
<path d="M9322,2839 L3971,30" stroke="blue" stroke-width="2" />
<path d="M6814,1302 L7640,1792" stroke="blue" stroke-width="2" />
<path d="M8011,77 L455,1963" stroke="blue" stroke-width="2" />
<path d="M4463,924 L3895,3059" stroke="blue" stroke-width="2" />
<path d="M579,3055 L5682,2567" stroke="blue" stroke-width="2" />
<path d="M5994,2426 L1393,40" stroke="blue" stroke-width="2" />
<path d="M7177,1970 L22,2901" stroke="blue" stroke-width="2" />
<path d="M357,2521 L6636,2480" stroke="blue" stroke-width="2" />
<path d="M7887,2614 L1359,2147" stroke="blue" stroke-width="2" />
<path d="M8243,462 L8648,649" stroke="blue" stroke-width="2" />
<path d="M4684,2453 L2294,1250" stroke="blue" stroke-width="2" />
<path d="M2420,185 L3623,695" stroke="blue" stroke-width="2" />
<path d="M7534,1886 L1894,702" stroke="blue" stroke-width="2" />
<path d="M6044,2934 L9055,2283" stroke="blue" stroke-width="2" />
<path d="M0,0 L9447,0" stroke="red" stroke-width="10" />
<path d="M9447,0 L9447,3150" stroke="red" stroke-width="10" />
<path d="M0,3150 L9447,3150" stroke="red" stroke-width="10" />
<path d="M0,3150 L0,0" stroke="red" stroke-width="10" />
</svg>