<?xml version="1.0" encoding="UTF-8"?>
<svg xmlns="http://www.w3.org/2000/svg" xmlns:xlink="http://www.w3.org/1999/xlink"
     width="10000" height="10000" viewBox="0 0 10000 10000">
<defs>
</defs>
<path d="M1735,7751 L3750,6926" stroke="blue" stroke-width="2" />
<path d="M983,9223 L3131,7544" stroke="blue" stroke-width="2" />
<path d="M40,2684 L1566,4856" stroke="blue" stroke-width="2" />
<path d="M1177,8862 L2507,888" stroke="blue" stroke-width="2" />
<path d="M2313,3886 L2534,3351" stroke="blue" stroke-width="2" />
<path d="M579,8140 L143,9196" stroke="blue" stroke-width="2" />
<path d="M4158,4595 L842,6798" stroke="blue" stroke-width="2" />
<path d="M2534,9038 L674,5838" stroke="blue" stroke-width="2" />
<path d="M1694,5377 L4009,4016" stroke="blue" stroke-width="2" />
<path d="M3092,5402 L2936,1226" stroke="blue" stroke-width="2" />
<path d="M3277,3848 L3882,4505" stroke="blue" stroke-width="2" />
<path d="M2361,3948 L271,4396" stroke="blue" stroke-width="2" />
<path d="M4333,4552 L2494,2704" stroke="blue" stroke-width="2" />
<path d="M1823,5569 L3637,7573" stroke="blue" stroke-width="2" />
<path d="M4414,6241 L4423,5070" stroke="blue" stroke-width="2" />
<path d="M781,7702 L2366,6266" stroke="blue" stroke-width="2" />
<path d="M1675,6125 L3466,3458" stroke="blue" stroke-width="2" />
<path d="M923,939 L417,1239" stroke="blue" stroke-width="2" />
<path d="M3281,8449 L1544,856" stroke="blue" stroke-width="2" />
<path d="M1263,6524 L547,5147" stroke="blue" stroke-width="2" />
<path d="M3382,255 L3047,8144" stroke="blue" stroke-width="2" />
<path d="M628,1066 L1481,4207" stroke="blue" stroke-width="2" />
<path d="M3338,2696 L106,4112" stroke="blue" stroke-width="2" />
<path d="M4114,122 L1693,8298" stroke="blue" stroke-width="2" />
<path d="M3073,1459 L2662,1042" stroke="blue" stroke-width="2" />
<path d="M3149,7921 L2990,3815" stroke="blue" stroke-width="2" />
<path d="M1281,9220 L1408,8192" stroke="blue" stroke-width="2" />
<path d="M3692,954 L486,346" stroke="blue" stroke-width="2" />
<path d="M670,6000 L1741,6060" stroke="blue" stroke-width="2" />
<path d="M3665,7325 L2642,5701" stroke="blue" stroke-width="2" />
<path d="M2787,9029 L3152,7535" stroke="blue" stroke-width="2" />
<path d="M202,7167 L2544,6213" stroke="blue" stroke-width="2" />
<path d="M3106,8599 L873,4997" stroke="blue" stroke-width="2" />
<path d="M3440,4952 L4,3607" stroke="blue" stroke-width="2" />
<path d="M3014,2942 L384,6673" stroke="blue" stroke-width="2" />
<path d="M3901,6060 L3971,9391" stroke="blue" stroke-width="2" />
<path d="M3141,2592 L1351,261" stroke="blue" stroke-width="2" />
<path d="M4343,78 L3813,6354" stroke="blue" stroke-width="2" />
<path d="M2762,2960 L2214,2210" stroke="blue" stroke-width="2" />
<path d="M2066,887 L1936,8065" stroke="blue" stroke-width="2" />
<path d="M3386,5877 L817,1036" stroke="blue" stroke-width="2" />
<path d="M2663,44 L3516,2096" stroke="blue" stroke-width="2" />
<path d="M1134,2827 L82,8689" stroke="blue" stroke-width="2" />
<path d="M2537,5158 L1822,9454" stroke="blue" stroke-width="2" />
<path d="M3061,1974 L4429,6531" stroke="blue" stroke-width="2" />
<path d="M3110,7116 L2227,4203" stroke="blue" stroke-width="2" />
<path d="M292,1431 L2350,5681" stroke="blue" stroke-width="2" />
<path d="M4205,3740 L2793,4576" stroke="blue" stroke-width="2" />
<path d="M501,1318 L2936,8074" stroke="blue" stroke-width="2" />
<path d="M488,4794 L3265,9250" stroke="blue" stroke-width="2" />
<path d="M1118,5 L2463,5506" stroke="blue" stroke-width="2" />
<path d="M1487,6740 L3733,6044" stroke="blue" stroke-width="2" />
<path d="M1720,5061 L3236,1658" stroke="blue" stroke-width="2" />
<path d="M1627,4118 L2673,1775" stroke="blue" stroke-width="2" />
<path d="M4428,7504 L2323,7368" stroke="blue" stroke-width="2" />
<path d="M3857,2452 L3892,237" stroke="blue" stroke-width="2" />
<path d="M4387,6253 L3782,9551" stroke="blue" stroke-width="2" />
<path d="M4102,310 L3994,3262" stroke="blue" stroke-width="2" />
<path d="M3601,2288 L2634,4956" stroke="blue" stroke-width="2" />
<path d="M1608,1939 L2450,9041" stroke="blue" stroke-width="2" />
<path d="M2460,2420 L3354,1976" stroke="blue" stroke-width="2" />
<path d="M2493,7903 L4298,1822" stroke="blue" stroke-width="2" />
<path d="M3417,7653 L2230,5827" stroke="blue" stroke-width="2" />
<path d="M3914,5470 L253,7114" stroke="blue" stroke-width="2" />
<path d="M337,6844 L3692,7350" stroke="blue" stroke-width="2" />
<path d="M2238,397 L2641,1501" stroke="blue" stroke-width="2" />
<path d="M3965,2770 L1765,4033" stroke="blue" stroke-width="2" />
<path d="M1202,5726 L3429,8060" stroke="blue" stroke-width="2" />
<path d="M2190,3051 L923,8686" stroke="blue" stroke-width="2" />
<path d="M2266,762 L1998,5349" stroke="blue" stroke-width="2" />
<path d="M542,8181 L2191,9025" stroke="blue" stroke-width="2" />
<path d="M1871,5772 L3584,3492" stroke="blue" stroke-width="2" />
<path d="M1513,9537 L3798,9230" stroke="blue" stroke-width="2" />
<path d="M4459,4701 L4137,1772" stroke="blue" stroke-width="2" />
<path d="M3151,8209 L662,9081" stroke="blue" stroke-width="2" />
<path d="M3544,7378 L3133,6889" stroke="blue" stroke-width="2" />
<path d="M1411,91 L683,5630" stroke="blue" stroke-width="2" />
<path d="M3917,8026 L2561,4928" stroke="blue" stroke-width="2" />
<path d="M3321,8876 L2701,832" stroke="blue" stroke-width="2" />
<path d="M1663,9189 L749,3771" stroke="blue" stroke-width="2" />
<path d="M942,3778 L2043,1938" stroke="blue" stroke-width="2" />
<path d="M872,7498 L789,4218" stroke="blue" stroke-width="2" />
<path d="M3938,6496 L1929,3059" stroke="blue" stroke-width="2" />
<path d="M1316,6459 L1836,2308" stroke="blue" stroke-width="2" />
<path d="M4372,2082 L1329,3097" stroke="blue" stroke-width="2" />
<path d="M4486,7640 L513,249" stroke="blue" stroke-width="2" />
<path d="M646,8824 L3972,3880" stroke="blue" stroke-width="2" />
<path d="M585,1987 L3746,829" stroke="blue" stroke-width="2" />
<path d="M3,9472 L1895,8290" stroke="blue" stroke-width="2" />
<path d="M2102,3759 L751,5089" stroke="blue" stroke-width="2" />
<path d="M2334,651 L3665,8472" stroke="blue" stroke-width="2" />
<path d="M191,7117 L3340,4415" stroke="blue" stroke-width="2" />
<path d="M980,1091 L4487,8017" stroke="blue" stroke-width="2" />
<path d="M372,4471 L2694,320" stroke="blue" stroke-width="2" />
<path d="M4232,4725 L2067,7359" stroke="blue" stroke-width="2" />
<path d="M3777,6301 L3177,2329" stroke="blue" stroke-width="2" />
<path d="M3379,504 L1273,7034" stroke="blue" stroke-width="2" />
<path d="M1523,2796 L3784,1369" stroke="blue" stroke-width="2" />
<path d="M4315,440 L439,782" stroke="blue" stroke-width="2" />
<path d="M2148,5776 L776,6348" stroke="blue" stroke-width="2" />
<path d="M3820,7089 L2145,6818" stroke="blue" stroke-width="2" />
<path d="M3253,6770 L824,3602" stroke="blue" stroke-width="2" />
<path d="M3138,7340 L2498,5419" stroke="blue" stroke-width="2" />
<path d="M653,7826 L1534,3129" stroke="blue" stroke-width="2" />
<path d="M4073,2583 L2277,6918" stroke="blue" stroke-width="2" />
<path d="M1978,1823 L510,5900" stroke="blue" stroke-width="2" />
<path d="M4203,2808 L2444,3677" stroke="blue" stroke-width="2" />
<path d="M4501,3115 L1659,7036" stroke="blue" stroke-width="2" />
<path d="M2102,580 L2993,5958" stroke="blue" stroke-width="2" />
<path d="M4214,1447 L4451,4249" stroke="blue" stroke-width="2" />
<path d="M1757,8905 L4141,24" stroke="blue" stroke-width="2" />
<path d="M1197,7175 L2904,9083" stroke="blue" stroke-width="2" />
<path d="M2640,51 L1760,1834" stroke="blue" stroke-width="2" />
<path d="M1908,9298 L895,875" stroke="blue" stroke-width="2" />
<path d="M3242,3664 L129,2109" stroke="blue" stroke-width="2" />
<path d="M4487,3979 L3246,3508" stroke="blue" stroke-width="2" />
<path d="M2103,2412 L658,6595" stroke="blue" stroke-width="2" />
<path d="M1106,2147 L1712,2419" stroke="blue" stroke-width="2" />
<path d="M854,457 L190,2065" stroke="blue" stroke-width="2" />
<path d="M1463,7994 L3341,7274" stroke="blue" stroke-width="2" />
<path d="M2797,3741 L4250,3801" stroke="blue" stroke-width="2" />
<path d="M1059,6045 L3503,8100" stroke="blue" stroke-width="2" />
<path d="M1398,2812 L1320,6479" stroke="blue" stroke-width="2" />
<path d="M3326,6433 L3956,217" stroke="blue" stroke-width="2" />
<path d="M2235,4022 L374,4268" stroke="blue" stroke-width="2" />
<path d="M1629,3152 L681,1906" stroke="blue" stroke-width="2" />
<path d="M2648,5161 L2260,2847" stroke="blue" stroke-width="2" />
<path d="M384,7473 L4115,3912" stroke="blue" stroke-width="2" />
<path d="M3773,7531 L3420,5346" stroke="blue" stroke-width="2" />
<path d="M2786,6944 L1688,3865" stroke="blue" stroke-width="2" />
<path d="M3875,8741 L1682,2502" stroke="blue" stroke-width="2" />
<path d="M4337,4414 L920,3278" stroke="blue" stroke-width="2" />
<path d="M3106,7458 L3081,5160" stroke="blue" stroke-width="2" />
<path d="M3226,3003 L1477,2290" stroke="blue" stroke-width="2" />
<path d="M2443,1725 L1602,4817" stroke="blue" stroke-width="2" />
<path d="M610,1487 L2247,1610" stroke="blue" stroke-width="2" />
<path d="M4059,6146 L2356,4202" stroke="blue" stroke-width="2" />
<path d="M3778,358 L718,3865" stroke="blue" stroke-width="2" />
<path d="M1596,8814 L861,6331" stroke="blue" stroke-width="2" />
<path d="M992,8400 L1375,5522" stroke="blue" stroke-width="2" />
<path d="M1500,7806 L2149,4961" stroke="blue" stroke-width="2" />
<path d="M620,8930 L1129,8369" stroke="blue" stroke-width="2" />
<path d="M4115,4932 L1295,5714" stroke="blue" stroke-width="2" />
<path d="M765,6001 L149,3491" stroke="blue" stroke-width="2" />
<path d="M2687,6519 L2037,8818" stroke="blue" stroke-width="2" />
<path d="M4219,6923 L4118,4622" stroke="blue" stroke-width="2" />
<path d="M1185,6721 L691,4602" stroke="blue" stroke-width="2" />
<path d="M2836,7253 L1592,7444" stroke="blue" stroke-width="2" />
<path d="M516,545 L2292,5917" stroke="blue" stroke-width="2" />
<path d="M3495,2978 L4494,2518" stroke="blue" stroke-width="2" />
<path d="M3565,9170 L131,5573" stroke="blue" stroke-width="2" />
<path d="M2640,4222 L2040,1923" stroke="blue" stroke-width="2" />
<path d="M3613,5727 L3906,3053" stroke="blue" stroke-width="2" />
<path d="M895,5511 L80,4488" stroke="blue" stroke-width="2" />
<path d="M4152,2976 L3029,1508" stroke="blue" stroke-width="2" />
<path d="M2088,5330 L3006,648" stroke="blue" stroke-width="2" />
<path d="M2459,1465 L3901,8716" stroke="blue" stroke-width="2" />
<path d="M1080,1595 L2590,436" stroke="blue" stroke-width="2" />
<path d="M1383,4125 L884,3356" stroke="blue" stroke-width="2" />
<path d="M4018,1061 L328,5124" stroke="blue" stroke-width="2" />
<path d="M301,3702 L3966,4484" stroke="blue" stroke-width="2" />
<path d="M634,6067 L1561,7089" stroke="blue" stroke-width="2" />
<path d="M2414,4903 L266,6167" stroke="blue" stroke-width="2" />
<path d="M681,1477 L1945,8136" stroke="blue" stroke-width="2" />
<path d="M3870,2774 L2665,3976" stroke="blue" stroke-width="2" />
<path d="M3425,6134 L1061,1865" stroke="blue" stroke-width="2" />
<path d="M4192,3880 L1107,2766" stroke="blue" stroke-width="2" />
<path d="M1569,2953 L1507,7343" stroke="blue" stroke-width="2" />
<path d="M1966,7057 L2249,7869" stroke="blue" stroke-width="2" />
<path d="M2468,8780 L2234,3531" stroke="blue" stroke-width="2" />
<path d="M3877,9563 L1974,3399" stroke="blue" stroke-width="2" />
<path d="M2169,6493 L3951,6684" stroke="blue" stroke-width="2" />
<path d="M1976,1763 L856,7851" stroke="blue" stroke-width="2" />
<path d="M818,7824 L4127,7362" stroke="blue" stroke-width="2" />
<path d="M3669,5300 L2695,1017" stroke="blue" stroke-width="2" />
<path d="M3826,1726 L770,7339" stroke="blue" stroke-width="2" />
<path d="M84,7172 L2779,9551" stroke="blue" stroke-width="2" />
<path d="M2296,9220 L1972,7053" stroke="blue" stroke-width="2" />
<path d="M2605,4157 L3000,7080" stroke="blue" stroke-width="2" />
<path d="M2748,9049 L3128,3576" stroke="blue" stroke-width="2" />
<path d="M2692,6996 L3869,8928" stroke="blue" stroke-width="2" />
<path d="M1568,8046 L2847,2690" stroke="blue" stroke-width="2" />
<path d="M541,3151 L2433,7478" stroke="blue" stroke-width="2" />
<path d="M3609,3772 L1220,7166" stroke="blue" stroke-width="2" />
<path d="M3067,1680 L218,9037" stroke="blue" stroke-width="2" />
<path d="M587,2934 L1432,4116" stroke="blue" stroke-width="2" />
<path d="M2211,5088 L3469,7011" stroke="blue" stroke-width="2" />
<path d="M4226,8919 L3773,7950" stroke="blue" stroke-width="2" />
<path d="M3370,6225 L1174,202" stroke="blue" stroke-width="2" />
<path d="M3260,1916 L3132,2917" stroke="blue" stroke-width="2" />
<path d="M2549,3049 L1978,6202" stroke="blue" stroke-width="2" />
<path d="M27,483 L4212,1450" stroke="blue" stroke-width="2" />
<path d="M2285,7989 L1658,1308" stroke="blue" stroke-width="2" />
<path d="M234,3005 L1356,278" stroke="blue" stroke-width="2" />
<path d="M1713,6971 L2382,5654" stroke="blue" stroke-width="2" />
<path d="M978,9041 L702,2009" stroke="blue" stroke-width="2" />
<path d="M1708,1183 L794,2087" stroke="blue" stroke-width="2" />
<path d="M828,4075 L3663,4425" stroke="blue" stroke-width="2" />
<path d="M2865,5517 L723,5401" stroke="blue" stroke-width="2" />
<path d="M4130,1329 L750,9343" stroke="blue" stroke-width="2" />
<path d="M3542,4338 L138,222" stroke="blue" stroke-width="2" />
<path d="M3924,2407 L3749,8491" stroke="blue" stroke-width="2" />
<path d="M2490,412 L775,4641" stroke="blue" stroke-width="2" />
<path d="M1148,217 L1851,9313" stroke="blue" stroke-width="2" />
<path d="M27,4212 L3360,4371" stroke="blue" stroke-width="2" />
<path d="M376,9177 L2703,5943" stroke="blue" stroke-width="2" />
<path d="M3025,9005 L3854,4341" stroke="blue" stroke-width="2" />
<path d="M659,2428 L386,6367" stroke="blue" stroke-width="2" />
<path d="M3239,2043 L2123,4177" stroke="blue" stroke-width="2" />
<path d="M839,4850 L54,991" stroke="blue" stroke-width="2" />
<path d="M395,1772 L2995,8717" stroke="blue" stroke-width="2" />
<path d="M3343,3370 L685,405" stroke="blue" stroke-width="2" />
<path d="M4384,3400 L2406,169" stroke="blue" stroke-width="2" />
<path d="M1977,3031 L2390,2522" stroke="blue" stroke-width="2" />
<path d="M3971,8565 L2248,52" stroke="blue" stroke-width="2" />
<path d="M3988,4113 L2171,3620" stroke="blue" stroke-width="2" />
<path d="M3552,451 L2960,9436" stroke="blue" stroke-width="2" />
<path d="M1381,7465 L2843,7225" stroke="blue" stroke-width="2" />
<path d="M1302,7207 L612,9524" stroke="blue" stroke-width="2" />
<path d="M4139,1431 L3846,9526" stroke="blue" stroke-width="2" />
<path d="M2502,2437 L3733,8928" stroke="blue" stroke-width="2" />
<path d="M3622,2673 L3666,7774" stroke="blue" stroke-width="2" />
<path d="M762,8189 L1609,3392" stroke="blue" stroke-width="2" />
<path d="M2674,8411 L2405,8367" stroke="blue" stroke-width="2" />
<path d="M472,2582 L2394,4614" stroke="blue" stroke-width="2" />
<path d="M3084,6123 L3656,5624" stroke="blue" stroke-width="2" />
<path d="M2165,6526 L1640,5963" stroke="blue" stroke-width="2" />
<path d="M1237,6042 L3701,7121" stroke="blue" stroke-width="2" />
<path d="M4434,2915 L4099,8470" stroke="blue" stroke-width="2" />
<path d="M3885,2921 L1564,2501" stroke="blue" stroke-width="2" />
<path d="M1662,415 L2678,1321" stroke="blue" stroke-width="2" />
<path d="M2622,3420 L4494,4931" stroke="blue" stroke-width="2" />
<path d="M1189,4658 L1875,3357" stroke="blue" stroke-width="2" />
<path d="M3205,948 L3172,8576" stroke="blue" stroke-width="2" />
<path d="M1844,6921 L2782,814" stroke="blue" stroke-width="2" />
<path d="M1878,5426 L1561,1530" stroke="blue" stroke-width="2" />
<path d="M801,8373 L2833,7187" stroke="blue" stroke-width="2" />
<path d="M3771,3329 L338,5261" stroke="blue" stroke-width="2" />
<path d="M3408,3096 L2241,2769" stroke="blue" stroke-width="2" />
<path d="M3399,3845 L3604,1749" stroke="blue" stroke-width="2" />
<path d="M2709,1831 L87,7190" stroke="blue" stroke-width="2" />
<path d="M3668,7412 L4467,5848" stroke="blue" stroke-width="2" />
<path d="M4392,4658 L1471,7138" stroke="blue" stroke-width="2" />
<path d="M2343,396 L3617,1674" stroke="blue" stroke-width="2" />
<path d="M193,5917 L3861,243" stroke="blue" stroke-width="2" />
<path d="M2837,2348 L4127,3096" stroke="blue" stroke-width="2" />
<path d="M2431,6277 L2313,8785" stroke="blue" stroke-width="2" />
<path d="M2867,6352 L1781,4013" stroke="blue" stroke-width="2" />
<path d="M1925,9240 L1449,3671" stroke="blue" stroke-width="2" />
<path d="M1701,4179 L3393,1081" stroke="blue" stroke-width="2" />
<path d="M3500,8986 L3081,2936" stroke="blue" stroke-width="2" />
<path d="M249,8731 L2173,1823" stroke="blue" stroke-width="2" />
<path d="M650,5030 L3470,3559" stroke="blue" stroke-width="2" />
<path d="M801,1014 L1548,4910" stroke="blue" stroke-width="2" />
<path d="M1027,8067 L2644,7212" stroke="blue" stroke-width="2" />
<path d="M373,3552 L2005,6120" stroke="blue" stroke-width="2" />
<path d="M3992,8201 L3808,7470" stroke="blue" stroke-width="2" />
<path d="M3953,9561 L1409,5829" stroke="blue" stroke-width="2" />
<path d="M1415,7915 L2720,591" stroke="blue" stroke-width="2" />
<path d="M866,8551 L3785,7785" stroke="blue" stroke-width="2" />
<path d="M334,7150 L2815,2713" stroke="blue" stroke-width="2" />
<path d="M430,8828 L2372,5550" stroke="blue" stroke-width="2" />
<path d="M1223,9248 L1343,4811" stroke="blue" stroke-width="2" />
<path d="M2697,5107 L1899,7257" stroke="blue" stroke-width="2" />
<path d="M3281,6097 L3503,2608" stroke="blue" stroke-width="2" />
<path d="M3750,3611 L4116,7564" stroke="blue" stroke-width="2" />
<path d="M589,3069 L2215,6529" stroke="blue" stroke-width="2" />
<path d="M2949,8223 L1801,6968" stroke="blue" stroke-width="2" />
<path d="M3353,2098 L2848,4932" stroke="blue" stroke-width="2" />
<path d="M2249,6225 L3761,9103" stroke="blue" stroke-width="2" />
<path d="M3662,8706 L1748,8543" stroke="blue" stroke-width="2" />
<path d="M3899,2242 L1872,2197" stroke="blue" stroke-width="2" />
<path d="M3423,9111 L1522,2074" stroke="blue" stroke-width="2" />
<path d="M1961,2478 L27,9301" stroke="blue" stroke-width="2" />
<path d="M4431,3855 L3985,6612" stroke="blue" stroke-width="2" />
<path d="M3790,2625 L4436,1873" stroke="blue" stroke-width="2" />
<path d="M3462,2643 L879,7559" stroke="blue" stroke-width="2" />
<path d="M1884,3490 L2565,9175" stroke="blue" stroke-width="2" />
<path d="M3558,5491 L31,6560" stroke="blue" stroke-width="2" />
<path d="M577,8323 L1379,916" stroke="blue" stroke-width="2" />
<path d="M4272,5029 L3387,7878" stroke="blue" stroke-width="2" />
<path d="M2703,3466 L503,6623" stroke="blue" stroke-width="2" />
<path d="M1015,4163 L369,7465" stroke="blue" stroke-width="2" />
<path d="M730,3630 L4085,6665" stroke="blue" stroke-width="2" />
<path d="M2895,4790 L117,8316" stroke="blue" stroke-width="2" />
<path d="M1616,7366 L2183,2641" stroke="blue" stroke-width="2" />
<path d="M682,1187 L2440,8795" stroke="blue" stroke-width="2" />
<path d="M4414,6677 L542,6435" stroke="blue" stroke-width="2" />
<path d="M574,7305 L2562,9245" stroke="blue" stroke-width="2" />
<path d="M481,8329 L228,7660" stroke="blue" stroke-width="2" />
<path d="M1550,6807 L58,7094" stroke="blue" stroke-width="2" />
<path d="M345,2788 L3673,7034" stroke="blue" stroke-width="2" />
<path d="M1497,1839 L3339,8395" stroke="blue" stroke-width="2" />
<path d="M1386,1001 L2939,8011" stroke="blue" stroke-width="2" />
<path d="M3584,5482 L1756,5874" stroke="blue" stroke-width="2" />
<path d="M1780,9408 L1180,3839" stroke="blue" stroke-width="2" />
<path d="M3186,2588 L1284,7530" stroke="blue" stroke-width="2" />
<path d="M1690,773 L3962,1824" stroke="blue" stroke-width="2" />
<path d="M2819,938 L3337,5691" stroke="blue" stroke-width="2" />
<path d="M1268,5760 L1653,1110" stroke="blue" stroke-width="2" />
<path d="M146,7059 L4210,3184" stroke="blue" stroke-width="2" />
<path d="M705,2604 L3379,5312" stroke="blue" stroke-width="2" />
<path d="M4048,4511 L4356,8191" stroke="blue" stroke-width="2" />
<path d="M1700,4130 L1142,3205" stroke="blue" stroke-width="2" />
<path d="M2883,6524 L795,7578" stroke="blue" stroke-width="2" />
<path d="M4006,8282 L348,421" stroke="blue" stroke-width="2" />
<path d="M1042,4682 L2201,5317" stroke="blue" stroke-width="2" />
<path d="M3891,9121 L2707,6197" stroke="blue" stroke-width="2" />
<path d="M4323,2881 L4310,6018" stroke="blue" stroke-width="2" />
<path d="M554,2303 L521,5628" stroke="blue" stroke-width="2" />
<path d="M3108,2034 L82,8045" stroke="blue" stroke-width="2" />
<path d="M2204,6530 L3176,6035" stroke="blue" stroke-width="2" />
<path d="M4111,4005 L4209,2423" stroke="blue" stroke-width="2" />
<path d="M277,5752 L2272,940" stroke="blue" stroke-width="2" />
<path d="M2132,3079 L0,9168" stroke="blue" stroke-width="2" />
<path d="M2484,52 L2505,8461" stroke="blue" stroke-width="2" />
<path d="M2573,3007 L918,4469" stroke="blue" stroke-width="2" />
<path d="M4472,484 L1009,573" stroke="blue" stroke-width="2" />
<path d="M2817,3716 L597,2397" stroke="blue" stroke-width="2" />
<path d="M515,8560 L2904,7380" stroke="blue" stroke-width="2" />
<path d="M1160,5181 L4133,289" stroke="blue" stroke-width="2" />
<path d="M1343,198 L2845,4813" stroke="blue" stroke-width="2" />
<path d="M2265,1091 L1651,846" stroke="blue" stroke-width="2" />
<path d="M3631,5648 L4449,8614" stroke="blue" stroke-width="2" />
<path d="M277,1272 L4425,6454" stroke="blue" stroke-width="2" />
<path d="M679,5784 L1983,7359" stroke="blue" stroke-width="2" />
<path d="M2300,4029 L4427,2716" stroke="blue" stroke-width="2" />
<path d="M376,889 L462,3347" stroke="blue" stroke-width="2" />
<path d="M2851,1924 L3770,2454" stroke="blue" stroke-width="2" />
<path d="M1844,867 L1150,6658" stroke="blue" stroke-width="2" />
<path d="M1656,6799 L987,7764" stroke="blue" stroke-width="2" />
<path d="M2177,7089 L335,6891" stroke="blue" stroke-width="2" />
<path d="M2980,9187 L3663,913" stroke="blue" stroke-width="2" />
<path d="M4328,8272 L2408,4821" stroke="blue" stroke-width="2" />
<path d="M1679,8602 L4264,3501" stroke="blue" stroke-width="2" />
<path d="M739,4406 L3421,9536" stroke="blue" stroke-width="2" />
<path d="M3691,2865 L3683,511" stroke="blue" stroke-width="2" />
<path d="M2093,7295 L3574,4247" stroke="blue" stroke-width="2" />
<path d="M312,5144 L1082,9571" stroke="blue" stroke-width="2" />
<path d="M701,8212 L213,6867" stroke="blue" stroke-width="2" />
<path d="M3252,1255 L385,2773" stroke="blue" stroke-width="2" />
<path d="M87,5388 L2718,7695" stroke="blue" stroke-width="2" />
<path d="M3866,3218 L196,8473" stroke="blue" stroke-width="2" />
<path d="M1527,6955 L949,2797" stroke="blue" stroke-width="2" />
<path d="M3814,1297 L2323,4528" stroke="blue" stroke-width="2" />
<path d="M2509,5180 L4130,2640" stroke="blue" stroke-width="2" />
<path d="M1322,3476 L658,6777" stroke="blue" stroke-width="2" />
<path d="M3083,7691 L803,8263" stroke="blue" stroke-width="2" />
<path d="M3914,6225 L893,915" stroke="blue" stroke-width="2" />
<path d="M3524,1181 L3247,6886" stroke="blue" stroke-width="2" />
<path d="M2811,8740 L4083,9445" stroke="blue" stroke-width="2" />
<path d="M4452,2591 L3571,7604" stroke="blue" stroke-width="2" />
<path d="M4331,2005 L2258,2308" stroke="blue" stroke-width="2" />
<path d="M2098,3019 L3915,8375" stroke="blue" stroke-width="2" />
<path d="M2183,5072 L665,950" stroke="blue" stroke-width="2" />
<path d="M3375,3033 L3589,2755" stroke="blue" stroke-width="2" />
<path d="M573,9567 L413,4055" stroke="blue" stroke-width="2" />
<path d="M169,3532 L2244,1064" stroke="blue" stroke-width="2" />
<path d="M3832,5668 L3619,9021" stroke="blue" stroke-width="2" />
<path d="M3719,2424 L1295,6984" stroke="blue" stroke-width="2" />
<path d="M1251,4534 L3770,950" stroke="blue" stroke-width="2" />
<path d="M2151,3403 L1275,3395" stroke="blue" stroke-width="2" />
<path d="M1827,3116 L1447,8036" stroke="blue" stroke-width="2" />
<path d="M2206,709 L1321,6940" stroke="blue" stroke-width="2" />
<path d="M1411,3334 L367,2425" stroke="blue" stroke-width="2" />
<path d="M1783,1043 L981,6688" stroke="blue" stroke-width="2" />
<path d="M8,2836 L4415,1977" stroke="blue" stroke-width="2" />
<path d="M1483,8866 L601,87" stroke="blue" stroke-width="2" />
<path d="M2883,782 L3514,2040" stroke="blue" stroke-width="2" />
<path d="M3629,4752 L1112,9409" stroke="blue" stroke-width="2" />
<path d="M4000,1030 L2712,2753" stroke="blue" stroke-width="2" />
<path d="M4287,8845 L1339,5912" stroke="blue" stroke-width="2" />
<path d="M846,11 L2334,2963" stroke="blue" stroke-width="2" />
<path d="M1639,1000 L3930,6294" stroke="blue" stroke-width="2" />
<path d="M2249,4871 L1172,3906" stroke="blue" stroke-width="2" />
<path d="M1895,5217 L183,6765" stroke="blue" stroke-width="2" />
<path d="M3184,7670 L1957,9469" stroke="blue" stroke-width="2" />
<path d="M3854,1752 L555,4145" stroke="blue" stroke-width="2" />
<path d="M4532,9438 L2572,212" stroke="blue" stroke-width="2" />
<path d="M1107,6664 L1039,8440" stroke="blue" stroke-width="2" />
<path d="M34,2283 L462,5152" stroke="blue" stroke-width="2" />
<path d="M1948,57 L839,4378" stroke="blue" stroke-width="2" />
<path d="M973,5204 L1030,2794" stroke="blue" stroke-width="2" />
<path d="M2637,491 L3483,2614" stroke="blue" stroke-width="2" />
<path d="M4234,2276 L2027,6859" stroke="blue" stroke-width="2" />
<path d="M3809,114 L2704,4339" stroke="blue" stroke-width="2" />
<path d="M72,8773 L3917,1655" stroke="blue" stroke-width="2" />
<path d="M3111,9532 L2874,4256" stroke="blue" stroke-width="2" />
<path d="M1466,131 L1074,2107" stroke="blue" stroke-width="2" />
<path d="M3315,7888 L4300,1545" stroke="blue" stroke-width="2" />
<path d="M4485,4709 L3364,8607" stroke="blue" stroke-width="2" />
<path d="M1230,5514 L1137,5208" stroke="blue" stroke-width="2" />
<path d="M737,1663 L2303,884" stroke="blue" stroke-width="2" />
<path d="M3109,8231 L1166,2900" stroke="blue" stroke-width="2" />
<path d="M1276,3139 L1267,8404" stroke="blue" stroke-width="2" />
<path d="M1731,2747 L1664,7305" stroke="blue" stroke-width="2" />
<path d="M1409,7742 L2592,4492" stroke="blue" stroke-width="2" />
<path d="M24,7535 L1563,7044" stroke="blue" stroke-width="2" />
<path d="M2979,8632 L2668,948" stroke="blue" stroke-width="2" />
<path d="M2554,7042 L930,8475" stroke="blue" stroke-width="2" />
<path d="M3795,4366 L4409,8038" stroke="blue" stroke-width="2" />
<path d="M1752,9239 L2006,1936" stroke="blue" stroke-width="2" />
<path d="M885,4967 L2352,997" stroke="blue" stroke-width="2" />
<path d="M1075,2296 L3484,914" stroke="blue" stroke-width="2" />
<path d="M226,951 L1366,534" stroke="blue" stroke-width="2" />
<path d="M1293,7060 L1811,8169" stroke="blue" stroke-width="2" />
<path d="M4099,8401 L2595,8331" stroke="blue" stroke-width="2" />
<path d="M3888,1682 L1437,921" stroke="blue" stroke-width="2" />
<path d="M2621,5885 L1999,7330" stroke="blue" stroke-width="2" />
<path d="M2846,742 L4073,3323" stroke="blue" stroke-width="2" />
<path d="M605,7808 L2517,9239" stroke="blue" stroke-width="2" />
<path d="M4508,3720 L3845,6912" stroke="blue" stroke-width="2" />
<path d="M2782,1004 L806,838" stroke="blue" stroke-width="2" />
<path d="M1084,7556 L463,4530" stroke="blue" stroke-width="2" />
<path d="M2991,4141 L1161,9278" stroke="blue" stroke-width="2" />
<path d="M102,1741 L1454,1073" stroke="blue" stroke-width="2" />
<path d="M1554,2231 L4363,2897" stroke="blue" stroke-width="2" />
<path d="M2716,9538 L3897,375" stroke="blue" stroke-width="2" />
<path d="M232,9413 L3327,5282" stroke="blue" stroke-width="2" />
<path d="M2641,6866 L4296,5510" stroke="blue" stroke-width="2" />
<path d="M3164,4810 L3405,5547" stroke="blue" stroke-width="2" />
<path d="M11,8167 L248,6853" stroke="blue" stroke-width="2" />
<path d="M1780,3994 L4421,5813" stroke="blue" stroke-width="2" />
<path d="M2517,3357 L2090,8381" stroke="blue" stroke-width="2" />
<path d="M2850,615 L1617,3376" stroke="blue" stroke-width="2" />
<path d="M4344,7607 L1735,7163" stroke="blue" stroke-width="2" />
<path d="M2751,1253 L868,3328" stroke="blue" stroke-width="2" />
<path d="M1496,6859 L2667,2092" stroke="blue" stroke-width="2" />
<path d="M732,6890 L2611,237" stroke="blue" stroke-width="2" />
<path d="M476,8746 L1263,5588" stroke="blue" stroke-width="2" />
<path d="M3075,8106 L3923,9026" stroke="blue" stroke-width="2" />
<path d="M3910,382 L3150,7022" stroke="blue" stroke-width="2" />
<path d="M958,6731 L396,6706" stroke="blue" stroke-width="2" />
<path d="M3562,8262 L2992,2927" stroke="blue" stroke-width="2" />
<path d="M830,1822 L595,8861" stroke="blue" stroke-width="2" />
<path d="M1701,2295 L2356,2468" stroke="blue" stroke-width="2" />
<path d="M3900,6320 L3390,476" stroke="blue" stroke-width="2" />
<path d="M2821,4792 L3397,6438" stroke="blue" stroke-width="2" />
<path d="M1446,1126 L4489,6715" stroke="blue" stroke-width="2" />
<path d="M119,3943 L756,3465" stroke="blue" stroke-width="2" />
<path d="M3605,9191 L4251,7981" stroke="blue" stroke-width="2" />
<path d="M1180,3715 L2038,3888" stroke="blue" stroke-width="2" />
<path d="M2041,5459 L681,9589" stroke="blue" stroke-width="2" />
<path d="M322,6112 L3094,6457" stroke="blue" stroke-width="2" />
<path d="M431,5723 L1642,7263" stroke="blue" stroke-width="2" />
<path d="M3998,1049 L2426,972" stroke="blue" stroke-width="2" />
<path d="M1035,8676 L1554,7853" stroke="blue" stroke-width="2" />
<path d="M4515,8799 L3352,5867" stroke="blue" stroke-width="2" />
<path d="M1569,3576 L2626,4671" stroke="blue" stroke-width="2" />
<path d="M1296,4471 L3954,1739" stroke="blue" stroke-width="2" />
<path d="M2966,3276 L3829,1582" stroke="blue" stroke-width="2" />
<path d="M3332,5900 L1058,2746" stroke="blue" stroke-width="2" />
<path d="M63,3849 L1026,3441" stroke="blue" stroke-width="2" />
<path d="M3941,7025 L83,9302" stroke="blue" stroke-width="2" />
<path d="M949,7155 L1674,5728" stroke="blue" stroke-width="2" />
<path d="M419,6935 L653,8941" stroke="blue" stroke-width="2" />
<path d="M3378,1968 L1748,1366" stroke="blue" stroke-width="2" />
<path d="M2237,8106 L4202,3048" stroke="blue" stroke-width="2" />
<path d="M1983,3004 L3055,3390" stroke="blue" stroke-width="2" />
<path d="M1193,4661 L4274,6558" stroke="blue" stroke-width="2" />
<path d="M2573,9466 L2843,8778" stroke="blue" stroke-width="2" />
<path d="M2554,5391 L2470,2938" stroke="blue" stroke-width="2" />
<path d="M89,7267 L3613,627" stroke="blue" stroke-width="2" />
<path d="M3231,6751 L821,6095" stroke="blue" stroke-width="2" />
<path d="M2997,4919 L4034,8714" stroke="blue" stroke-width="2" />
<path d="M948,1045 L2519,1668" stroke="blue" stroke-width="2" />
<path d="M1962,2546 L2744,5553" stroke="blue" stroke-width="2" />
<path d="M562,4935 L215,7193" stroke="blue" stroke-width="2" />
<path d="M918,4549 L3811,7094" stroke="blue" stroke-width="2" />
<path d="M2824,4593 L3049,2745" stroke="blue" stroke-width="2" />
<path d="M1834,6125 L746,209" stroke="blue" stroke-width="2" />
<path d="M2733,885 L2417,9552" stroke="blue" stroke-width="2" />
<path d="M2571,2412 L4281,7500" stroke="blue" stroke-width="2" />
<path d="M4247,7266 L2686,3596" stroke="blue" stroke-width="2" />
<path d="M1001,5023 L3905,1553" stroke="blue" stroke-width="2" />
<path d="M708,7915 L3280,1436" stroke="blue" stroke-width="2" />
<path d="M4034,995 L2377,5719" stroke="blue" stroke-width="2" />
<path d="M3759,989 L4152,1861" stroke="blue" stroke-width="2" />
<path d="M4422,7591 L1505,5808" stroke="blue" stroke-width="2" />
<path d="M1472,2746 L2727,8619" stroke="blue" stroke-width="2" />
<path d="M2489,7528 L23,3811" stroke="blue" stroke-width="2" />
<path d="M4115,6301 L2815,2029" stroke="blue" stroke-width="2" />
<path d="M1487,8378 L3357,3810" stroke="blue" stroke-width="2" />
<path d="M2048,1512 L2507,6002" stroke="blue" stroke-width="2" />
<path d="M3871,950 L1735,4270" stroke="blue" stroke-width="2" />
<path d="M2012,7133 L2431,1745" stroke="blue" stroke-width="2" />
<path d="M3347,3960 L2042,8058" stroke="blue" stroke-width="2" />
<path d="M1243,9422 L2175,3324" stroke="blue" stroke-width="2" />
<path d="M1477,5014 L809,7437" stroke="blue" stroke-width="2" />
<path d="M4166,1161 L1964,3159" stroke="blue" stroke-width="2" />
<path d="M4075,9179 L3988,3634" stroke="blue" stroke-width="2" />
<path d="M3638,4606 L2446,6788" stroke="blue" stroke-width="2" />
<path d="M2858,9101 L3349,4513" stroke="blue" stroke-width="2" />
<path d="M3334,1010 L1630,3724" stroke="blue" stroke-width="2" />
<path d="M3365,6621 L1327,7071" stroke="blue" stroke-width="2" />
<path d="M2723,6159 L3871,2408" stroke="blue" stroke-width="2" />
<path d="M2332,6379 L3269,4376" stroke="blue" stroke-width="2" />
<path d="M2638,8493 L1482,5532" stroke="blue" stroke-width="2" />
<path d="M3972,3015 L393,4897" stroke="blue" stroke-width="2" />
<path d="M2299,9501 L3027,2011" stroke="blue" stroke-width="2" />
<path d="M3539,8390 L3095,7890" stroke="blue" stroke-width="2" />
<path d="M1537,794 L2840,6215" stroke="blue" stroke-width="2" />
<path d="M1551,4350 L3205,4582" stroke="blue" stroke-width="2" />
<path d="M4002,1811 L416,4920" stroke="blue" stroke-width="2" />
<path d="M1423,3806 L2209,7555" stroke="blue" stroke-width="2" />
<path d="M4096,2251 L1236,3393" stroke="blue" stroke-width="2" />
<path d="M2449,6933 L3543,3577" stroke="blue" stroke-width="2" />
<path d="M4080,6259 L260,2060" stroke="blue" stroke-width="2" />
<path d="M397,7398 L2163,7399" stroke="blue" stroke-width="2" />
<path d="M2338,9119 L3063,3493" stroke="blue" stroke-width="2" />
<path d="M3018,1815 L755,7461" stroke="blue" stroke-width="2" />
<path d="M4048,4343 L2214,5444" stroke="blue" stroke-width="2" />
<path d="M3202,3069 L1443,9414" stroke="blue" stroke-width="2" />
<path d="M3802,1415 L3875,6151" stroke="blue" stroke-width="2" />
<path d="M2785,7384 L2840,77" stroke="blue" stroke-width="2" />
<path d="M1680,4659 L654,4130" stroke="blue" stroke-width="2" />
<path d="M968,1132 L3549,507" stroke="blue" stroke-width="2" />
<path d="M178,4548 L1579,5646" stroke="blue" stroke-width="2" />
<path d="M207,1999 L4096,522" stroke="blue" stroke-width="2" />
<path d="M1110,9357 L1616,3166" stroke="blue" stroke-width="2" />
<path d="M1358,9009 L2353,1474" stroke="blue" stroke-width="2" />
<path d="M4178,4770 L2890,4190" stroke="blue" stroke-width="2" />
<path d="M326,1091 L570,2067" stroke="blue" stroke-width="2" />
<path d="M356,6370 L4482,8906" stroke="blue" stroke-width="2" />
<path d="M2544,4292 L2294,2036" stroke="blue" stroke-width="2" />
<path d="M4434,7414 L1232,7373" stroke="blue" stroke-width="2" />
<path d="M4406,228 L1188,8042" stroke="blue" stroke-width="2" />
<path d="M176,5827 L3763,5259" stroke="blue" stroke-width="2" />
<path d="M4317,1720 L3186,1577" stroke="blue" stroke-width="2" />
<path d="M1708,8216 L1911,4004" stroke="blue" stroke-width="2" />
<path d="M2809,6115 L3517,497" stroke="blue" stroke-width="2" />
<path d="M3263,1982 L680,2580" stroke="blue" stroke-width="2" />
<path d="M1858,4704 L1081,5443" stroke="blue" stroke-width="2" />
<path d="M305,5726 L4385,5147" stroke="blue" stroke-width="2" />
<path d="M2167,1809 L1907,8985" stroke="blue" stroke-width="2" />
<path d="M4413,1237 L1361,5561" stroke="blue" stroke-width="2" />
<path d="M4449,1670 L3478,4870" stroke="blue" stroke-width="2" />
<path d="M2578,5664 L3565,567" stroke="blue" stroke-width="2" />
<path d="M1227,9316 L1528,306" stroke="blue" stroke-width="2" />
<path d="M3781,924 L2540,3893" stroke="blue" stroke-width="2" />
<path d="M632,4921 L781,4620" stroke="blue" stroke-width="2" />
<path d="M3574,8819 L3025,2482" stroke="blue" stroke-width="2" />
<path d="M1822,4390 L1105,7576" stroke="blue" stroke-width="2" />
<path d="M1968,8849 L1545,7452" stroke="blue" stroke-width="2" />
<path d="M4320,6643 L1580,4883" stroke="blue" stroke-width="2" />
<path d="M4445,4025 L2464,6232" stroke="blue" stroke-width="2" />
<path d="M2912,7344 L1314,6197" stroke="blue" stroke-width="2" />
<path d="M1434,4281 L1977,2014" stroke="blue" stroke-width="2" />
<path d="M4238,2600 L164,5438" stroke="blue" stroke-width="2" />
<path d="M2142,3994 L1678,508" stroke="blue" stroke-width="2" />
<path d="M4254,7821 L3481,7331" stroke="blue" stroke-width="2" />
<path d="M2855,8958 L1987,6014" stroke="blue" stroke-width="2" />
<path d="M2636,6846 L1701,5241" stroke="blue" stroke-width="2" />
<path d="M3070,2098 L3589,7179" stroke="blue" stroke-width="2" />
<path d="M2460,2782 L1123,9544" stroke="blue" stroke-width="2" />
<path d="M3307,759 L4163,3558" stroke="blue" stroke-width="2" />
<path d="M4097,1767 L1197,5288" stroke="blue" stroke-width="2" />
<path d="M3952,5565 L4394,2859" stroke="blue" stroke-width="2" />
<path d="M3464,5132 L1950,9074" stroke="blue" stroke-width="2" />
<path d="M4316,6516 L3201,6465" stroke="blue" stroke-width="2" />
<path d="M3337,6874 L867,4186" stroke="blue" stroke-width="2" />
<path d="M2495,4311 L228,7539" stroke="blue" stroke-width="2" />
<path d="M612,5891 L4239,8027" stroke="blue" stroke-width="2" />
<path d="M106,2886 L3568,8904" stroke="blue" stroke-width="2" />
<path d="M588,7973 L4000,8968" stroke="blue" stroke-width="2" />
<path d="M1825,3717 L665,2483" stroke="blue" stroke-width="2" />
<path d="M3469,410 L3540,8887" stroke="blue" stroke-width="2" />
<path d="M1735,4302 L2668,4011" stroke="blue" stroke-width="2" />
<path d="M2339,8348 L1226,4668" stroke="blue" stroke-width="2" />
<path d="M313,7621 L3794,3138" stroke="blue" stroke-width="2" />
<path d="M4477,2391 L2625,4363" stroke="blue" stroke-width="2" />
<path d="M3240,1087 L2776,5183" stroke="blue" stroke-width="2" />
<path d="M577,2633 L1543,2018" stroke="blue" stroke-width="2" />
<path d="M1863,6110 L821,369" stroke="blue" stroke-width="2" />
<path d="M3083,7867 L1013,1580" stroke="blue" stroke-width="2" />
<path d="M1131,2021 L141,5771" stroke="blue" stroke-width="2" />
<path d="M2537,4146 L4418,8876" stroke="blue" stroke-width="2" />
<path d="M221,5697 L2948,2360" stroke="blue" stroke-width="2" />
<path d="M3574,2566 L306,7725" stroke="blue" stroke-width="2" />
<path d="M3280,8555 L1730,2601" stroke="blue" stroke-width="2" />
<path d="M412,8731 L1629,1255" stroke="blue" stroke-width="2" />
<path d="M821,4776 L2293,8305" stroke="blue" stroke-width="2" />
<path d="M2798,5590 L2094,2708" stroke="blue" stroke-width="2" />
<path d="M271,1305 L1990,3810" stroke="blue" stroke-width="2" />
<path d="M1129,3548 L566,8033" stroke="blue" stroke-width="2" />
<path d="M2999,9527 L84,9041" stroke="blue" stroke-width="2" />
<path d="M2037,2301 L360,6313" stroke="blue" stroke-width="2" />
<path d="M3956,5716 L1556,3643" stroke="blue" stroke-width="2" />
<path d="M1666,9090 L2942,4268" stroke="blue" stroke-width="2" />
<path d="M2299,8435 L583,7132" stroke="blue" stroke-width="2" />
<path d="M3389,6545 L2043,5093" stroke="blue" stroke-width="2" />
<path d="M204,7421 L1220,3148" stroke="blue" stroke-width="2" />
<path d="M2770,8509 L3051,2897" stroke="blue" stroke-width="2" />
<path d="M2005,6441 L3297,4954" stroke="blue" stroke-width="2" />
<path d="M4013,7989 L2443,6367" stroke="blue" stroke-width="2" />
<path d="M3561,6657 L4243,3036" stroke="blue" stroke-width="2" />
<path d="M496,737 L42,1210" stroke="blue" stroke-width="2" />
<path d="M3881,6598 L3053,3156" stroke="blue" stroke-width="2" />
<path d="M3194,3727 L251,7234" stroke="blue" stroke-width="2" />
<path d="M4102,1153 L3555,2047" stroke="blue" stroke-width="2" />
<path d="M47,5080 L1041,7407" stroke="blue" stroke-width="2" />
<path d="M2471,1748 L476,5922" stroke="blue" stroke-width="2" />
<path d="M3084,4891 L1483,5174" stroke="blue" stroke-width="2" />
<path d="M2603,2792 L2429,641" stroke="blue" stroke-width="2" />
<path d="M4297,1136 L1684,1797" stroke="blue" stroke-width="2" />
<path d="M1057,1588 L2298,4783" stroke="blue" stroke-width="2" />
<path d="M3767,8478 L346,1278" stroke="blue" stroke-width="2" />
<path d="M4003,1915 L3507,292" stroke="blue" stroke-width="2" />
<path d="M1134,5503 L3649,4177" stroke="blue" stroke-width="2" />
<path d="M4216,7342 L4029,8430" stroke="blue" stroke-width="2" />
<path d="M2962,8341 L2574,8151" stroke="blue" stroke-width="2" />
<path d="M1292,2012 L3015,8381" stroke="blue" stroke-width="2" />
<path d="M1987,6492 L1244,3968" stroke="blue" stroke-width="2" />
<path d="M1833,4847 L2644,1892" stroke="blue" stroke-width="2" />
<path d="M3648,4288 L3614,4982" stroke="blue" stroke-width="2" />
<path d="M28,7736 L1729,8673" stroke="blue" stroke-width="2" />
<path d="M3915,909 L2776,1294" stroke="blue" stroke-width="2" />
<path d="M950,7415 L2764,8174" stroke="blue" stroke-width="2" />
<path d="M525,5069 L553,8170" stroke="blue" stroke-width="2" />
<path d="M2445,8265 L811,7280" stroke="blue" stroke-width="2" />
<path d="M3531,4372 L2311,9467" stroke="blue" stroke-width="2" />
<path d="M2360,2575 L917,6744" stroke="blue" stroke-width="2" />
<path d="M351,3090 L3521,2185" stroke="blue" stroke-width="2" />
<path d="M2230,8394 L3053,6810" stroke="blue" stroke-width="2" />
<path d="M2235,1639 L726,2497" stroke="blue" stroke-width="2" />
<path d="M1517,3962 L3380,1825" stroke="blue" stroke-width="2" />
<path d="M1646,989 L1583,3405" stroke="blue" stroke-width="2" />
<path d="M3272,2552 L1028,3826" stroke="blue" stroke-width="2" />
<path d="M3807,554 L3878,3274" stroke="blue" stroke-width="2" />
<path d="M3842,4508 L3050,7093" stroke="blue" stroke-width="2" />
<path d="M482,5889 L1744,2261" stroke="blue" stroke-width="2" />
<path d="M1475,7232 L2385,8499" stroke="blue" stroke-width="2" />
<path d="M33,1519 L1666,5634" stroke="blue" stroke-width="2" />
<path d="M2899,8701 L1429,536" stroke="blue" stroke-width="2" />
<path d="M752,7896 L2092,2367" stroke="blue" stroke-width="2" />
<path d="M924,89 L876,5278" stroke="blue" stroke-width="2" />
<path d="M12,4302 L3994,3809" stroke="blue" stroke-width="2" />
<path d="M4126,4522 L24,1737" stroke="blue" stroke-width="2" />
<path d="M3479,5955 L3911,6703" stroke="blue" stroke-width="2" />
<path d="M4021,1949 L238,3886" stroke="blue" stroke-width="2" />
<path d="M4329,7490 L117,552" stroke="blue" stroke-width="2" />
<path d="M1860,1121 L3675,678" stroke="blue" stroke-width="2" />
<path d="M337,1025 L3332,7316" stroke="blue" stroke-width="2" />
<path d="M1973,3308 L2509,6042" stroke="blue" stroke-width="2" />
<path d="M2209,2895 L3640,5492" stroke="blue" stroke-width="2" />
<path d="M3160,6036 L3392,7074" stroke="blue" stroke-width="2" />
<path d="M4060,3926 L1447,3053" stroke="blue" stroke-width="2" />
<path d="M845,8971 L1508,4674" stroke="blue" stroke-width="2" />
<path d="M3079,4536 L1918,1611" stroke="blue" stroke-width="2" />
<path d="M4495,8322 L2955,2320" stroke="blue" stroke-width="2" />
<path d="M3229,5945 L2884,1702" stroke="blue" stroke-width="2" />
<path d="M375,6161 L1299,6925" stroke="blue" stroke-width="2" />
<path d="M4163,4362 L222,942" stroke="blue" stroke-width="2" />
<path d="M2819,8179 L200,3082" stroke="blue" stroke-width="2" />
<path d="M306,6554 L3433,4177" stroke="blue" stroke-width="2" />
<path d="M2302,5823 L1957,8973" stroke="blue" stroke-width="2" />
<path d="M1448,2790 L1003,1058" stroke="blue" stroke-width="2" />
<path d="M2903,550 L421,8968" stroke="blue" stroke-width="2" />
<path d="M2895,5765 L4417,693" stroke="blue" stroke-width="2" />
<path d="M1085,697 L3505,6950" stroke="blue" stroke-width="2" />
<path d="M2458,7187 L326,2987" stroke="blue" stroke-width="2" />
<path d="M2652,3161 L1500,8321" stroke="blue" stroke-width="2" />
<path d="M782,7799 L364,4003" stroke="blue" stroke-width="2" />
<path d="M234,5448 L1016,1861" stroke="blue" stroke-width="2" />
<path d="M4421,7616 L3834,8758" stroke="blue" stroke-width="2" />
<path d="M626,6047 L1819,7204" stroke="blue" stroke-width="2" />
<path d="M1275,1875 L1917,3448" stroke="blue" stroke-width="2" />
<path d="M3650,5875 L3621,8880" stroke="blue" stroke-width="2" />
<path d="M480,8253 L1921,5319" stroke="blue" stroke-width="2" />
<path d="M1487,4536 L735,6799" stroke="blue" stroke-width="2" />
<path d="M4248,3331 L3287,1715" stroke="blue" stroke-width="2" />
<path d="M1841,3409 L480,1432" stroke="blue" stroke-width="2" />
<path d="M3024,3895 L850,6918" stroke="blue" stroke-width="2" />
<path d="M708,8785 L1877,8459" stroke="blue" stroke-width="2" />
<path d="M196,8294 L2581,6204" stroke="blue" stroke-width="2" />
<path d="M539,7341 L2446,1991" stroke="blue" stroke-width="2" />
<path d="M1394,4879 L731,7889" stroke="blue" stroke-width="2" />
<path d="M1076,3708 L1891,3627" stroke="blue" stroke-width="2" />
<path d="M3937,7486 L1804,730" stroke="blue" stroke-width="2" />
<path d="M397,7145 L3396,2193" stroke="blue" stroke-width="2" />
<path d="M2768,5449 L2496,3683" stroke="blue" stroke-width="2" />
<path d="M2647,4552 L953,7390" stroke="blue" stroke-width="2" />
<path d="M2653,7564 L43,3854" stroke="blue" stroke-width="2" />
<path d="M3454,1787 L2649,3589" stroke="blue" stroke-width="2" />
<path d="M311,6238 L2884,7181" stroke="blue" stroke-width="2" />
<path d="M227,6062 L3190,3692" stroke="blue" stroke-width="2" />
<path d="M866,4670 L4479,3639" stroke="blue" stroke-width="2" />
<path d="M2849,1864 L4303,3773" stroke="blue" stroke-width="2" />
<path d="M1571,7515 L2978,2729" stroke="blue" stroke-width="2" />
<path d="M2764,334 L559,4337" stroke="blue" stroke-width="2" />
<path d="M4235,6490 L1374,8596" stroke="blue" stroke-width="2" />
<path d="M3923,6037 L1852,3421" stroke="blue" stroke-width="2" />
<path d="M1917,9435 L802,245" stroke="blue" stroke-width="2" />
<path d="M1080,3609 L501,8252" stroke="blue" stroke-width="2" />
<path d="M3247,2308 L3608,340" stroke="blue" stroke-width="2" />
<path d="M1186,1539 L569,6760" stroke="blue" stroke-width="2" />
<path d="M510,1968 L61,964" stroke="blue" stroke-width="2" />
<path d="M3096,5952 L819,9266" stroke="blue" stroke-width="2" />
<path d="M884,963 L849,2723" stroke="blue" stroke-width="2" />
<path d="M2658,8967 L2183,2616" stroke="blue" stroke-width="2" />
<path d="M3670,3108 L22,3389" stroke="blue" stroke-width="2" />
<path d="M1876,3689 L4512,2564" stroke="blue" stroke-width="2" />
<path d="M1767,5945 L3944,2564" stroke="blue" stroke-width="2" />
<path d="M1000,330 L766,4616" stroke="blue" stroke-width="2" />
<path d="M1648,2317 L660,7387" stroke="blue" stroke-width="2" />
<path d="M902,2611 L1379,8382" stroke="blue" stroke-width="2" />
<path d="M1188,8904 L1600,5569" stroke="blue" stroke-width="2" />
<path d="M4344,8903 L2225,6752" stroke="blue" stroke-width="2" />
<path d="M4280,6334 L4229,5463" stroke="blue" stroke-width="2" />
<path d="M192,8113 L3270,3594" stroke="blue" stroke-width="2" />
<path d="M4129,3229 L489,8692" stroke="blue" stroke-width="2" />
<path d="M3980,970 L4083,2060" stroke="blue" stroke-width="2" />
<path d="M4328,7552 L3358,8484" stroke="blue" stroke-width="2" />
<path d="M0,0 L4534,0" stroke="red" stroke-width="10" />
<path d="M4534,0 L4534,9592" stroke="red" stroke-width="10" />
<path d="M0,9592 L4534,9592" stroke="red" stroke-width="10" />
<path d="M0,9592 L0,0" stroke="red" stroke-width="10" />
</svg>