<?xml version="1.0" encoding="UTF-8"?>
<svg xmlns="http://www.w3.org/2000/svg" xmlns:xlink="http://www.w3.org/1999/xlink"
     width="10000" height="10000" viewBox="0 0 10000 10000">
<defs>
</defs>
<path d="M198,187 L682,6311" stroke="blue" stroke-width="2" />
<path d="M830,4760 L886,4279" stroke="blue" stroke-width="2" />
<path d="M1457,2102 L473,554" stroke="blue" stroke-width="2" />
<path d="M395,819 L1013,4778" stroke="blue" stroke-width="2" />
<path d="M743,4410 L618,4173" stroke="blue" stroke-width="2" />
<path d="M2066,5720 L862,4069" stroke="blue" stroke-width="2" />
<path d="M1308,1563 L1070,6279" stroke="blue" stroke-width="2" />
<path d="M365,3775 L819,202" stroke="blue" stroke-width="2" />
<path d="M1453,6008 L1131,2033" stroke="blue" stroke-width="2" />
<path d="M1003,1834 L1859,6153" stroke="blue" stroke-width="2" />
<path d="M296,5449 L2225,4280" stroke="blue" stroke-width="2" />
<path d="M1051,1493 L816,1240" stroke="blue" stroke-width="2" />
<path d="M900,1479 L1865,5089" stroke="blue" stroke-width="2" />
<path d="M1477,5971 L1552,696" stroke="blue" stroke-width="2" />
<path d="M1431,6193 L336,2996" stroke="blue" stroke-width="2" />
<path d="M426,5981 L102,6397" stroke="blue" stroke-width="2" />
<path d="M520,4923 L1487,1261" stroke="blue" stroke-width="2" />
<path d="M1718,821 L976,1966" stroke="blue" stroke-width="2" />
<path d="M24,4278 L2066,2184" stroke="blue" stroke-width="2" />
<path d="M2201,5050 L1338,4233" stroke="blue" stroke-width="2" />
<path d="M1441,2987 L1372,2270" stroke="blue" stroke-width="2" />
<path d="M1042,5990 L1428,996" stroke="blue" stroke-width="2" />
<path d="M1398,3901 L1871,987" stroke="blue" stroke-width="2" />
<path d="M1222,3544 L1357,4805" stroke="blue" stroke-width="2" />
<path d="M1904,2356 L1254,1211" stroke="blue" stroke-width="2" />
<path d="M1450,6447 L532,849" stroke="blue" stroke-width="2" />
<path d="M821,3975 L988,474" stroke="blue" stroke-width="2" />
<path d="M123,5114 L1864,4610" stroke="blue" stroke-width="2" />
<path d="M2056,5079 L1195,232" stroke="blue" stroke-width="2" />
<path d="M114,861 L1003,4799" stroke="blue" stroke-width="2" />
<path d="M1569,2505 L226,2717" stroke="blue" stroke-width="2" />
<path d="M409,1569 L1206,5068" stroke="blue" stroke-width="2" />
<path d="M892,3639 L1987,5101" stroke="blue" stroke-width="2" />
<path d="M2022,6316 L1063,745" stroke="blue" stroke-width="2" />
<path d="M2016,1685 L794,5053" stroke="blue" stroke-width="2" />
<path d="M1220,795 L1377,1367" stroke="blue" stroke-width="2" />
<path d="M596,4376 L1293,4834" stroke="blue" stroke-width="2" />
<path d="M643,4229 L2366,1759" stroke="blue" stroke-width="2" />
<path d="M1751,5450 L1129,5200" stroke="blue" stroke-width="2" />
<path d="M1187,5031 L1953,865" stroke="blue" stroke-width="2" />
<path d="M223,5428 L318,3742" stroke="blue" stroke-width="2" />
<path d="M1591,3189 L1712,3027" stroke="blue" stroke-width="2" />
<path d="M900,1356 L748,5885" stroke="blue" stroke-width="2" />
<path d="M122,825 L1157,5946" stroke="blue" stroke-width="2" />
<path d="M1992,6457 L300,6445" stroke="blue" stroke-width="2" />
<path d="M1283,4070 L2021,5123" stroke="blue" stroke-width="2" />
<path d="M975,1634 L1467,4219" stroke="blue" stroke-width="2" />
<path d="M2202,3332 L368,2542" stroke="blue" stroke-width="2" />
<path d="M1205,6264 L1627,192" stroke="blue" stroke-width="2" />
<path d="M137,4242 L2141,4389" stroke="blue" stroke-width="2" />
<path d="M591,4603 L2311,1104" stroke="blue" stroke-width="2" />
<path d="M1498,1702 L174,3410" stroke="blue" stroke-width="2" />
<path d="M1014,3233 L908,1616" stroke="blue" stroke-width="2" />
<path d="M357,5621 L425,2769" stroke="blue" stroke-width="2" />
<path d="M185,5901 L2054,3373" stroke="blue" stroke-width="2" />
<path d="M573,387 L191,5572" stroke="blue" stroke-width="2" />
<path d="M203,366 L599,1513" stroke="blue" stroke-width="2" />
<path d="M2001,4483 L2119,4783" stroke="blue" stroke-width="2" />
<path d="M484,4739 L654,5812" stroke="blue" stroke-width="2" />
<path d="M359,890 L1396,1643" stroke="blue" stroke-width="2" />
<path d="M1222,4956 L337,4975" stroke="blue" stroke-width="2" />
<path d="M2220,756 L1729,3048" stroke="blue" stroke-width="2" />
<path d="M874,6285 L1103,107" stroke="blue" stroke-width="2" />
<path d="M1344,1826 L2207,4073" stroke="blue" stroke-width="2" />
<path d="M1862,2766 L607,49" stroke="blue" stroke-width="2" />
<path d="M934,564 L653,664" stroke="blue" stroke-width="2" />
<path d="M443,6467 L577,5021" stroke="blue" stroke-width="2" />
<path d="M1865,3958 L723,5958" stroke="blue" stroke-width="2" />
<path d="M2060,5395 L71,1719" stroke="blue" stroke-width="2" />
<path d="M324,827 L1336,2109" stroke="blue" stroke-width="2" />
<path d="M412,173 L1671,3390" stroke="blue" stroke-width="2" />
<path d="M256,1301 L1742,3217" stroke="blue" stroke-width="2" />
<path d="M523,1157 L1121,1169" stroke="blue" stroke-width="2" />
<path d="M2095,1226 L1859,3808" stroke="blue" stroke-width="2" />
<path d="M1618,567 L1586,346" stroke="blue" stroke-width="2" />
<path d="M2118,5506 L405,1313" stroke="blue" stroke-width="2" />
<path d="M1331,577 L32,5564" stroke="blue" stroke-width="2" />
<path d="M1544,4966 L1596,99" stroke="blue" stroke-width="2" />
<path d="M188,236 L147,2953" stroke="blue" stroke-width="2" />
<path d="M512,1954 L1047,6317" stroke="blue" stroke-width="2" />
<path d="M282,4157 L1357,241" stroke="blue" stroke-width="2" />
<path d="M905,4105 L2304,3511" stroke="blue" stroke-width="2" />
<path d="M2227,5320 L1271,2499" stroke="blue" stroke-width="2" />
<path d="M785,3199 L1338,5908" stroke="blue" stroke-width="2" />
<path d="M1406,2090 L1944,1463" stroke="blue" stroke-width="2" />
<path d="M1163,4523 L2197,883" stroke="blue" stroke-width="2" />
<path d="M370,3501 L2264,1491" stroke="blue" stroke-width="2" />
<path d="M1441,1546 L1785,1932" stroke="blue" stroke-width="2" />
<path d="M471,5880 L157,4821" stroke="blue" stroke-width="2" />
<path d="M906,564 L278,5230" stroke="blue" stroke-width="2" />
<path d="M377,3543 L1383,3130" stroke="blue" stroke-width="2" />
<path d="M1258,5389 L957,4090" stroke="blue" stroke-width="2" />
<path d="M2067,5920 L117,2612" stroke="blue" stroke-width="2" />
<path d="M1619,1913 L470,1826" stroke="blue" stroke-width="2" />
<path d="M215,2885 L346,5310" stroke="blue" stroke-width="2" />
<path d="M984,2245 L826,115" stroke="blue" stroke-width="2" />
<path d="M1960,192 L994,1801" stroke="blue" stroke-width="2" />
<path d="M2159,3420 L515,2862" stroke="blue" stroke-width="2" />
<path d="M1959,5901 L434,6350" stroke="blue" stroke-width="2" />
<path d="M623,3700 L1790,3047" stroke="blue" stroke-width="2" />
<path d="M1998,583 L409,2213" stroke="blue" stroke-width="2" />
<path d="M1305,3811 L2183,43" stroke="blue" stroke-width="2" />
<path d="M365,294 L1744,3810" stroke="blue" stroke-width="2" />
<path d="M1956,3141 L1184,923" stroke="blue" stroke-width="2" />
<path d="M560,3644 L1074,1023" stroke="blue" stroke-width="2" />
<path d="M874,2818 L1503,474" stroke="blue" stroke-width="2" />
<path d="M1435,337 L2371,3700" stroke="blue" stroke-width="2" />
<path d="M2096,405 L1728,792" stroke="blue" stroke-width="2" />
<path d="M1404,6301 L292,5702" stroke="blue" stroke-width="2" />
<path d="M1624,3547 L575,3849" stroke="blue" stroke-width="2" />
<path d="M1472,6027 L2325,3867" stroke="blue" stroke-width="2" />
<path d="M1615,2789 L1610,4899" stroke="blue" stroke-width="2" />
<path d="M2307,2801 L1463,1067" stroke="blue" stroke-width="2" />
<path d="M0,0 L2395,0" stroke="red" stroke-width="10" />
<path d="M2395,0 L2395,6487" stroke="red" stroke-width="10" />
<path d="M0,6487 L2395,6487" stroke="red" stroke-width="10" />
<path d="M0,6487 L0,0" stroke="red" stroke-width="10" />
</svg>