<?xml version="1.0" encoding="UTF-8"?>
<svg xmlns="http://www.w3.org/2000/svg" xmlns:xlink="http://www.w3.org/1999/xlink"
     width="10000" height="10000" viewBox="0 0 10000 10000">
<defs>
</defs>
<path d="M6569,589 L4879,5057" stroke="blue" stroke-width="2" />
<path d="M5883,3698 L3937,977" stroke="blue" stroke-width="2" />
<path d="M7240,2611 L2782,338" stroke="blue" stroke-width="2" />
<path d="M1709,969 L6720,5842" stroke="blue" stroke-width="2" />
<path d="M751,8212 L665,2249" stroke="blue" stroke-width="2" />
<path d="M520,2581 L4126,1220" stroke="blue" stroke-width="2" />
<path d="M6226,1400 L6130,2735" stroke="blue" stroke-width="2" />
<path d="M4966,3154 L5569,8598" stroke="blue" stroke-width="2" />
<path d="M2753,5837 L4792,2122" stroke="blue" stroke-width="2" />
<path d="M762,574 L5266,6941" stroke="blue" stroke-width="2" />
<path d="M5565,1216 L6697,5856" stroke="blue" stroke-width="2" />
<path d="M6402,7452 L5368,8179" stroke="blue" stroke-width="2" />
<path d="M2556,7878 L1700,1906" stroke="blue" stroke-width="2" />
<path d="M6052,7684 L1500,3729" stroke="blue" stroke-width="2" />
<path d="M5863,1619 L739,8080" stroke="blue" stroke-width="2" />
<path d="M4856,4922 L2355,1157" stroke="blue" stroke-width="2" />
<path d="M7143,4498 L2498,1939" stroke="blue" stroke-width="2" />
<path d="M2435,7403 L3005,6967" stroke="blue" stroke-width="2" />
<path d="M1612,525 L47,4704" stroke="blue" stroke-width="2" />
<path d="M5283,4262 L5366,6441" stroke="blue" stroke-width="2" />
<path d="M2119,8420 L148,8389" stroke="blue" stroke-width="2" />
<path d="M4910,1522 L4830,405" stroke="blue" stroke-width="2" />
<path d="M4879,7656 L1004,7624" stroke="blue" stroke-width="2" />
<path d="M5326,2610 L5487,3725" stroke="blue" stroke-width="2" />
<path d="M6314,8375 L1471,4613" stroke="blue" stroke-width="2" />
<path d="M2967,8712 L1067,4481" stroke="blue" stroke-width="2" />
<path d="M778,7523 L1937,5368" stroke="blue" stroke-width="2" />
<path d="M5795,7766 L4989,8199" stroke="blue" stroke-width="2" />
<path d="M3079,3559 L6137,2503" stroke="blue" stroke-width="2" />
<path d="M5712,6604 L6615,6104" stroke="blue" stroke-width="2" />
<path d="M6123,798 L2286,1464" stroke="blue" stroke-width="2" />
<path d="M7147,1133 L7290,7638" stroke="blue" stroke-width="2" />
<path d="M3816,6875 L4975,8664" stroke="blue" stroke-width="2" />
<path d="M1142,4166 L5775,7390" stroke="blue" stroke-width="2" />
<path d="M1035,5182 L2659,1815" stroke="blue" stroke-width="2" />
<path d="M4519,3854 L6255,8775" stroke="blue" stroke-width="2" />
<path d="M6681,1387 L542,5717" stroke="blue" stroke-width="2" />
<path d="M5509,2794 L4743,4828" stroke="blue" stroke-width="2" />
<path d="M2963,48 L1541,2893" stroke="blue" stroke-width="2" />
<path d="M5785,6748 L2086,5850" stroke="blue" stroke-width="2" />
<path d="M5126,2147 L5741,461" stroke="blue" stroke-width="2" />
<path d="M7616,1642 L1702,7842" stroke="blue" stroke-width="2" />
<path d="M1513,516 L3243,3393" stroke="blue" stroke-width="2" />
<path d="M7191,3664 L3885,4473" stroke="blue" stroke-width="2" />
<path d="M2537,7082 L6615,2341" stroke="blue" stroke-width="2" />
<path d="M2594,7486 L2174,2305" stroke="blue" stroke-width="2" />
<path d="M2064,5427 L5159,7984" stroke="blue" stroke-width="2" />
<path d="M6349,5813 L1159,277" stroke="blue" stroke-width="2" />
<path d="M6531,6438 L4584,3632" stroke="blue" stroke-width="2" />
<path d="M1153,1351 L4632,5811" stroke="blue" stroke-width="2" />
<path d="M3446,603 L6878,6166" stroke="blue" stroke-width="2" />
<path d="M5765,3735 L5478,2151" stroke="blue" stroke-width="2" />
<path d="M1928,4361 L7336,3985" stroke="blue" stroke-width="2" />
<path d="M4065,3667 L7243,4158" stroke="blue" stroke-width="2" />
<path d="M1213,2259 L3586,5603" stroke="blue" stroke-width="2" />
<path d="M5659,7807 L3261,6148" stroke="blue" stroke-width="2" />
<path d="M2511,8266 L2841,2453" stroke="blue" stroke-width="2" />
<path d="M2658,8582 L7621,8159" stroke="blue" stroke-width="2" />
<path d="M5234,7709 L1285,1872" stroke="blue" stroke-width="2" />
<path d="M7478,1322 L90,6528" stroke="blue" stroke-width="2" />
<path d="M4791,5555 L1858,3712" stroke="blue" stroke-width="2" />
<path d="M7398,7111 L3196,3224" stroke="blue" stroke-width="2" />
<path d="M2600,7540 L2693,7288" stroke="blue" stroke-width="2" />
<path d="M2829,3187 L1785,4766" stroke="blue" stroke-width="2" />
<path d="M7326,1762 L4784,7305" stroke="blue" stroke-width="2" />
<path d="M1963,5600 L7526,3918" stroke="blue" stroke-width="2" />
<path d="M4560,571 L2979,7562" stroke="blue" stroke-width="2" />
<path d="M1800,3480 L2999,3650" stroke="blue" stroke-width="2" />
<path d="M7378,2894 L1779,705" stroke="blue" stroke-width="2" />
<path d="M869,987 L6962,124" stroke="blue" stroke-width="2" />
<path d="M4954,331 L72,8374" stroke="blue" stroke-width="2" />
<path d="M3632,1030 L3617,4750" stroke="blue" stroke-width="2" />
<path d="M4782,8231 L3409,3735" stroke="blue" stroke-width="2" />
<path d="M5245,5063 L801,5798" stroke="blue" stroke-width="2" />
<path d="M2263,7949 L6700,4078" stroke="blue" stroke-width="2" />
<path d="M6900,3196 L4018,2530" stroke="blue" stroke-width="2" />
<path d="M357,323 L4857,2285" stroke="blue" stroke-width="2" />
<path d="M6050,1132 L1107,888" stroke="blue" stroke-width="2" />
<path d="M1764,6288 L4788,7078" stroke="blue" stroke-width="2" />
<path d="M2605,5139 L6776,7951" stroke="blue" stroke-width="2" />
<path d="M2618,1197 L1880,3208" stroke="blue" stroke-width="2" />
<path d="M7217,7621 L6305,1670" stroke="blue" stroke-width="2" />
<path d="M4271,8233 L3,6676" stroke="blue" stroke-width="2" />
<path d="M114,3477 L7186,7372" stroke="blue" stroke-width="2" />
<path d="M3744,4787 L6483,7645" stroke="blue" stroke-width="2" />
<path d="M5772,808 L2545,6788" stroke="blue" stroke-width="2" />
<path d="M2497,7583 L7596,7026" stroke="blue" stroke-width="2" />
<path d="M5500,6420 L3619,7631" stroke="blue" stroke-width="2" />
<path d="M1535,2288 L6578,418" stroke="blue" stroke-width="2" />
<path d="M2144,6184 L6936,7283" stroke="blue" stroke-width="2" />
<path d="M7155,2503 L7348,1477" stroke="blue" stroke-width="2" />
<path d="M7285,2747 L4609,3822" stroke="blue" stroke-width="2" />
<path d="M486,2752 L5970,8056" stroke="blue" stroke-width="2" />
<path d="M6487,8489 L3519,5204" stroke="blue" stroke-width="2" />
<path d="M6923,3014 L3021,8500" stroke="blue" stroke-width="2" />
<path d="M2315,4648 L1816,6540" stroke="blue" stroke-width="2" />
<path d="M5954,4452 L125,1580" stroke="blue" stroke-width="2" />
<path d="M5342,3980 L2702,2684" stroke="blue" stroke-width="2" />
<path d="M4430,212 L858,4668" stroke="blue" stroke-width="2" />
<path d="M4650,3653 L293,6515" stroke="blue" stroke-width="2" />
<path d="M5234,711 L753,7435" stroke="blue" stroke-width="2" />
<path d="M5782,5371 L5446,2993" stroke="blue" stroke-width="2" />
<path d="M6590,5549 L3211,2145" stroke="blue" stroke-width="2" />
<path d="M6520,7339 L6261,6079" stroke="blue" stroke-width="2" />
<path d="M914,400 L2543,694" stroke="blue" stroke-width="2" />
<path d="M2205,6547 L2241,232" stroke="blue" stroke-width="2" />
<path d="M2349,5230 L3932,6063" stroke="blue" stroke-width="2" />
<path d="M3334,6793 L4633,5438" stroke="blue" stroke-width="2" />
<path d="M691,6089 L2494,1451" stroke="blue" stroke-width="2" />
<path d="M2139,8754 L920,5154" stroke="blue" stroke-width="2" />
<path d="M6876,4205 L5809,7431" stroke="blue" stroke-width="2" />
<path d="M1743,2941 L4354,8757" stroke="blue" stroke-width="2" />
<path d="M4211,6375 L3262,5536" stroke="blue" stroke-width="2" />
<path d="M7417,408 L2275,5082" stroke="blue" stroke-width="2" />
<path d="M5222,4709 L6620,1493" stroke="blue" stroke-width="2" />
<path d="M355,7324 L22,5974" stroke="blue" stroke-width="2" />
<path d="M2921,8253 L2566,6512" stroke="blue" stroke-width="2" />
<path d="M677,3989 L1178,1156" stroke="blue" stroke-width="2" />
<path d="M3440,2637 L4634,3429" stroke="blue" stroke-width="2" />
<path d="M7223,147 L3110,2161" stroke="blue" stroke-width="2" />
<path d="M3444,3484 L6620,7406" stroke="blue" stroke-width="2" />
<path d="M1027,3388 L326,2085" stroke="blue" stroke-width="2" />
<path d="M4991,4902 L5942,4720" stroke="blue" stroke-width="2" />
<path d="M4732,197 L4655,5092" stroke="blue" stroke-width="2" />
<path d="M4398,2420 L1479,3264" stroke="blue" stroke-width="2" />
<path d="M637,2550 L1552,420" stroke="blue" stroke-width="2" />
<path d="M1638,4974 L4376,2478" stroke="blue" stroke-width="2" />
<path d="M1635,1520 L955,6857" stroke="blue" stroke-width="2" />
<path d="M3093,3368 L7126,8634" stroke="blue" stroke-width="2" />
<path d="M955,5022 L577,4919" stroke="blue" stroke-width="2" />
<path d="M134,5219 L155,1289" stroke="blue" stroke-width="2" />
<path d="M5690,8137 L4818,4225" stroke="blue" stroke-width="2" />
<path d="M6930,6740 L715,1605" stroke="blue" stroke-width="2" />
<path d="M7472,3470 L1525,5942" stroke="blue" stroke-width="2" />
<path d="M998,1719 L6154,6564" stroke="blue" stroke-width="2" />
<path d="M699,6966 L4821,7691" stroke="blue" stroke-width="2" />
<path d="M3200,7386 L862,6178" stroke="blue" stroke-width="2" />
<path d="M2113,6278 L4411,3947" stroke="blue" stroke-width="2" />
<path d="M5265,1509 L5880,7105" stroke="blue" stroke-width="2" />
<path d="M1027,2168 L148,2797" stroke="blue" stroke-width="2" />
<path d="M6294,1521 L5898,5374" stroke="blue" stroke-width="2" />
<path d="M4737,5428 L933,6866" stroke="blue" stroke-width="2" />
<path d="M83,53 L2502,2654" stroke="blue" stroke-width="2" />
<path d="M2686,948 L4390,4582" stroke="blue" stroke-width="2" />
<path d="M4235,8264 L7393,3999" stroke="blue" stroke-width="2" />
<path d="M7057,6786 L867,4688" stroke="blue" stroke-width="2" />
<path d="M4462,2405 L1966,7099" stroke="blue" stroke-width="2" />
<path d="M3000,2100 L4365,6066" stroke="blue" stroke-width="2" />
<path d="M4702,1360 L6017,3871" stroke="blue" stroke-width="2" />
<path d="M5274,7936 L773,6584" stroke="blue" stroke-width="2" />
<path d="M6779,1768 L130,3731" stroke="blue" stroke-width="2" />
<path d="M902,5294 L168,8271" stroke="blue" stroke-width="2" />
<path d="M3476,6725 L667,3761" stroke="blue" stroke-width="2" />
<path d="M3302,7053 L6109,3708" stroke="blue" stroke-width="2" />
<path d="M204,10 L2004,2600" stroke="blue" stroke-width="2" />
<path d="M5936,2422 L971,3369" stroke="blue" stroke-width="2" />
<path d="M6689,6295 L4806,8736" stroke="blue" stroke-width="2" />
<path d="M7591,4462 L1298,7265" stroke="blue" stroke-width="2" />
<path d="M4639,7673 L6888,2251" stroke="blue" stroke-width="2" />
<path d="M4230,209 L5705,462" stroke="blue" stroke-width="2" />
<path d="M4892,823 L3716,6309" stroke="blue" stroke-width="2" />
<path d="M4185,7892 L7555,2281" stroke="blue" stroke-width="2" />
<path d="M1634,7507 L760,5958" stroke="blue" stroke-width="2" />
<path d="M1647,5180 L6163,4638" stroke="blue" stroke-width="2" />
<path d="M5543,2608 L3034,5128" stroke="blue" stroke-width="2" />
<path d="M6623,5569 L1400,4046" stroke="blue" stroke-width="2" />
<path d="M2181,8070 L4386,8021" stroke="blue" stroke-width="2" />
<path d="M2983,8686 L3460,3957" stroke="blue" stroke-width="2" />
<path d="M870,4295 L5813,8798" stroke="blue" stroke-width="2" />
<path d="M711,2382 L2329,8035" stroke="blue" stroke-width="2" />
<path d="M1565,2796 L921,3787" stroke="blue" stroke-width="2" />
<path d="M5164,4398 L7007,7219" stroke="blue" stroke-width="2" />
<path d="M2581,1554 L1637,6654" stroke="blue" stroke-width="2" />
<path d="M6716,5877 L4468,74" stroke="blue" stroke-width="2" />
<path d="M1809,1643 L3610,7228" stroke="blue" stroke-width="2" />
<path d="M2020,7160 L4985,549" stroke="blue" stroke-width="2" />
<path d="M3667,6155 L250,1880" stroke="blue" stroke-width="2" />
<path d="M6781,2439 L1623,3923" stroke="blue" stroke-width="2" />
<path d="M4660,3094 L935,3694" stroke="blue" stroke-width="2" />
<path d="M628,784 L63,6301" stroke="blue" stroke-width="2" />
<path d="M6101,6746 L5236,1122" stroke="blue" stroke-width="2" />
<path d="M7040,5230 L5689,1529" stroke="blue" stroke-width="2" />
<path d="M7201,8579 L6794,212" stroke="blue" stroke-width="2" />
<path d="M6273,7909 L4125,3897" stroke="blue" stroke-width="2" />
<path d="M5099,7368 L6460,5343" stroke="blue" stroke-width="2" />
<path d="M370,6723 L3619,6878" stroke="blue" stroke-width="2" />
<path d="M6980,2083 L4368,2372" stroke="blue" stroke-width="2" />
<path d="M1033,7433 L1143,1473" stroke="blue" stroke-width="2" />
<path d="M6008,3996 L3966,5303" stroke="blue" stroke-width="2" />
<path d="M6635,7639 L2925,1970" stroke="blue" stroke-width="2" />
<path d="M2485,2301 L1704,3818" stroke="blue" stroke-width="2" />
<path d="M5747,5003 L7276,5319" stroke="blue" stroke-width="2" />
<path d="M1699,7883 L3162,3773" stroke="blue" stroke-width="2" />
<path d="M2028,6897 L1334,1813" stroke="blue" stroke-width="2" />
<path d="M33,6714 L3497,3073" stroke="blue" stroke-width="2" />
<path d="M2162,2313 L5905,4083" stroke="blue" stroke-width="2" />
<path d="M6243,7488 L3136,3408" stroke="blue" stroke-width="2" />
<path d="M3660,2276 L6728,2669" stroke="blue" stroke-width="2" />
<path d="M2036,2738 L1440,8437" stroke="blue" stroke-width="2" />
<path d="M3638,8300 L2317,8307" stroke="blue" stroke-width="2" />
<path d="M4085,7669 L3471,2818" stroke="blue" stroke-width="2" />
<path d="M3493,2169 L7139,6208" stroke="blue" stroke-width="2" />
<path d="M0,0 L7634,0" stroke="red" stroke-width="10" />
<path d="M7634,0 L7634,8801" stroke="red" stroke-width="10" />
<path d="M0,8801 L7634,8801" stroke="red" stroke-width="10" />
<path d="M0,8801 L0,0" stroke="red" stroke-width="10" />
</svg>