<?xml version="1.0" encoding="UTF-8"?>
<svg xmlns="http://www.w3.org/2000/svg" xmlns:xlink="http://www.w3.org/1999/xlink"
     width="10000" height="10000" viewBox="0 0 10000 10000">
<defs>
</defs>
<path d="M2118,5321 L3119,4345" stroke="blue" stroke-width="2" />
<path d="M9163,2070 L6106,495" stroke="blue" stroke-width="2" />
<path d="M9599,5571 L7683,261" stroke="blue" stroke-width="2" />
<path d="M9910,4937 L2704,3360" stroke="blue" stroke-width="2" />
<path d="M9884,5500 L4566,3943" stroke="blue" stroke-width="2" />
<path d="M772,4346 L8217,4096" stroke="blue" stroke-width="2" />
<path d="M461,3652 L5008,5810" stroke="blue" stroke-width="2" />
<path d="M5674,1208 L7573,4013" stroke="blue" stroke-width="2" />
<path d="M2427,701 L9607,2228" stroke="blue" stroke-width="2" />
<path d="M3673,5626 L2754,6248" stroke="blue" stroke-width="2" />
<path d="M8662,3279 L5909,3803" stroke="blue" stroke-width="2" />
<path d="M6512,646 L526,5060" stroke="blue" stroke-width="2" />
<path d="M4472,4187 L1407,5227" stroke="blue" stroke-width="2" />
<path d="M5430,83 L6086,2389" stroke="blue" stroke-width="2" />
<path d="M8572,4185 L9186,42" stroke="blue" stroke-width="2" />
<path d="M5260,4480 L3215,249" stroke="blue" stroke-width="2" />
<path d="M6142,1061 L7103,1464" stroke="blue" stroke-width="2" />
<path d="M2561,5212 L6193,6344" stroke="blue" stroke-width="2" />
<path d="M4822,3391 L8043,585" stroke="blue" stroke-width="2" />
<path d="M5722,1721 L3890,211" stroke="blue" stroke-width="2" />
<path d="M1460,1539 L4672,3201" stroke="blue" stroke-width="2" />
<path d="M548,2878 L9501,2417" stroke="blue" stroke-width="2" />
<path d="M241,4812 L8482,1850" stroke="blue" stroke-width="2" />
<path d="M7545,5653 L6427,4302" stroke="blue" stroke-width="2" />
<path d="M7664,6230 L9766,561" stroke="blue" stroke-width="2" />
<path d="M8463,1439 L4503,3717" stroke="blue" stroke-width="2" />
<path d="M3202,3726 L1713,3723" stroke="blue" stroke-width="2" />
<path d="M3714,4570 L3319,5173" stroke="blue" stroke-width="2" />
<path d="M8943,1817 L6479,4369" stroke="blue" stroke-width="2" />
<path d="M2678,2075 L5870,2872" stroke="blue" stroke-width="2" />
<path d="M6202,3250 L1561,2325" stroke="blue" stroke-width="2" />
<path d="M8701,4791 L2850,3312" stroke="blue" stroke-width="2" />
<path d="M999,2674 L4368,2074" stroke="blue" stroke-width="2" />
<path d="M3512,1875 L3224,1005" stroke="blue" stroke-width="2" />
<path d="M7122,3797 L1356,3188" stroke="blue" stroke-width="2" />
<path d="M9791,2336 L3976,2267" stroke="blue" stroke-width="2" />
<path d="M8857,5544 L7485,1032" stroke="blue" stroke-width="2" />
<path d="M5134,4982 L2419,1201" stroke="blue" stroke-width="2" />
<path d="M447,2617 L183,5745" stroke="blue" stroke-width="2" />
<path d="M529,6309 L2589,2018" stroke="blue" stroke-width="2" />
<path d="M745,3100 L9388,278" stroke="blue" stroke-width="2" />
<path d="M4982,543 L4165,2914" stroke="blue" stroke-width="2" />
<path d="M557,1686 L4134,1627" stroke="blue" stroke-width="2" />
<path d="M3818,6187 L8193,311" stroke="blue" stroke-width="2" />
<path d="M4413,2291 L1514,840" stroke="blue" stroke-width="2" />
<path d="M3380,4174 L7180,930" stroke="blue" stroke-width="2" />
<path d="M9730,3562 L6368,5219" stroke="blue" stroke-width="2" />
<path d="M3779,2006 L2975,4433" stroke="blue" stroke-width="2" />
<path d="M218,4062 L5625,5987" stroke="blue" stroke-width="2" />
<path d="M5162,537 L9354,4253" stroke="blue" stroke-width="2" />
<path d="M6559,4443 L1869,2904" stroke="blue" stroke-width="2" />
<path d="M4153,860 L9145,927" stroke="blue" stroke-width="2" />
<path d="M2698,4603 L2314,4640" stroke="blue" stroke-width="2" />
<path d="M1300,6053 L249,3502" stroke="blue" stroke-width="2" />
<path d="M7743,5075 L33,2605" stroke="blue" stroke-width="2" />
<path d="M1419,687 L7694,2801" stroke="blue" stroke-width="2" />
<path d="M3279,1963 L3900,318" stroke="blue" stroke-width="2" />
<path d="M8996,5065 L7439,5078" stroke="blue" stroke-width="2" />
<path d="M2491,4618 L8560,2879" stroke="blue" stroke-width="2" />
<path d="M6033,1189 L1789,456" stroke="blue" stroke-width="2" />
<path d="M8278,2409 L6769,596" stroke="blue" stroke-width="2" />
<path d="M4296,3163 L9299,1582" stroke="blue" stroke-width="2" />
<path d="M2421,2569 L7181,2493" stroke="blue" stroke-width="2" />
<path d="M1603,268 L9902,5507" stroke="blue" stroke-width="2" />
<path d="M5508,5781 L5386,5470" stroke="blue" stroke-width="2" />
<path d="M9370,477 L5483,3116" stroke="blue" stroke-width="2" />
<path d="M2893,6140 L3606,5761" stroke="blue" stroke-width="2" />
<path d="M4594,4715 L110,5932" stroke="blue" stroke-width="2" />
<path d="M9184,2128 L8482,5445" stroke="blue" stroke-width="2" />
<path d="M330,5838 L8932,4797" stroke="blue" stroke-width="2" />
<path d="M3144,662 L7773,3239" stroke="blue" stroke-width="2" />
<path d="M5958,6175 L9807,3044" stroke="blue" stroke-width="2" />
<path d="M134,1032 L839,5731" stroke="blue" stroke-width="2" />
<path d="M5345,6044 L9634,5270" stroke="blue" stroke-width="2" />
<path d="M6438,3936 L8730,4916" stroke="blue" stroke-width="2" />
<path d="M8902,4768 L9013,5715" stroke="blue" stroke-width="2" />
<path d="M6001,3482 L3777,3808" stroke="blue" stroke-width="2" />
<path d="M1392,4 L9566,4822" stroke="blue" stroke-width="2" />
<path d="M3417,2946 L515,3282" stroke="blue" stroke-width="2" />
<path d="M5621,3838 L3669,862" stroke="blue" stroke-width="2" />
<path d="M6403,4178 L9137,6369" stroke="blue" stroke-width="2" />
<path d="M1094,711 L2666,4185" stroke="blue" stroke-width="2" />
<path d="M4444,4014 L2153,4272" stroke="blue" stroke-width="2" />
<path d="M4554,4311 L226,1430" stroke="blue" stroke-width="2" />
<path d="M7970,3636 L3521,6307" stroke="blue" stroke-width="2" />
<path d="M3600,5632 L6741,3352" stroke="blue" stroke-width="2" />
<path d="M3637,3460 L200,4854" stroke="blue" stroke-width="2" />
<path d="M7009,2281 L378,590" stroke="blue" stroke-width="2" />
<path d="M4003,3417 L6493,4670" stroke="blue" stroke-width="2" />
<path d="M2994,685 L863,5049" stroke="blue" stroke-width="2" />
<path d="M9300,11 L8571,2482" stroke="blue" stroke-width="2" />
<path d="M2180,4508 L7883,6095" stroke="blue" stroke-width="2" />
<path d="M1195,1304 L9984,742" stroke="blue" stroke-width="2" />
<path d="M8587,1050 L895,6067" stroke="blue" stroke-width="2" />
<path d="M8365,1824 L5022,4061" stroke="blue" stroke-width="2" />
<path d="M1718,2970 L7330,299" stroke="blue" stroke-width="2" />
<path d="M8299,494 L7128,1640" stroke="blue" stroke-width="2" />
<path d="M6322,4060 L2779,420" stroke="blue" stroke-width="2" />
<path d="M8330,4918 L4551,1815" stroke="blue" stroke-width="2" />
<path d="M4953,2353 L4675,5372" stroke="blue" stroke-width="2" />
<path d="M8208,2795 L1131,5272" stroke="blue" stroke-width="2" />
<path d="M8874,4358 L8927,1339" stroke="blue" stroke-width="2" />
<path d="M1358,2543 L979,1085" stroke="blue" stroke-width="2" />
<path d="M4147,2124 L9094,3048" stroke="blue" stroke-width="2" />
<path d="M2393,5284 L1579,3959" stroke="blue" stroke-width="2" />
<path d="M4237,5805 L2413,5679" stroke="blue" stroke-width="2" />
<path d="M4455,2661 L6727,1671" stroke="blue" stroke-width="2" />
<path d="M7126,3369 L7690,1857" stroke="blue" stroke-width="2" />
<path d="M6313,1379 L8438,5007" stroke="blue" stroke-width="2" />
<path d="M3980,3387 L862,5563" stroke="blue" stroke-width="2" />
<path d="M908,3856 L2737,2033" stroke="blue" stroke-width="2" />
<path d="M864,3653 L5758,4249" stroke="blue" stroke-width="2" />
<path d="M8626,5202 L9844,5512" stroke="blue" stroke-width="2" />
<path d="M5033,6398 L7330,5309" stroke="blue" stroke-width="2" />
<path d="M3409,4675 L5211,3201" stroke="blue" stroke-width="2" />
<path d="M4803,2208 L6583,2317" stroke="blue" stroke-width="2" />
<path d="M4963,2344 L3803,3236" stroke="blue" stroke-width="2" />
<path d="M2249,1443 L9723,2131" stroke="blue" stroke-width="2" />
<path d="M2938,4039 L8394,6352" stroke="blue" stroke-width="2" />
<path d="M533,3632 L4568,5379" stroke="blue" stroke-width="2" />
<path d="M3520,367 L2444,983" stroke="blue" stroke-width="2" />
<path d="M1294,1591 L979,3728" stroke="blue" stroke-width="2" />
<path d="M4188,309 L5219,5740" stroke="blue" stroke-width="2" />
<path d="M3763,1527 L4383,1274" stroke="blue" stroke-width="2" />
<path d="M5664,5895 L138,1368" stroke="blue" stroke-width="2" />
<path d="M4502,2033 L6672,2794" stroke="blue" stroke-width="2" />
<path d="M8562,603 L312,1621" stroke="blue" stroke-width="2" />
<path d="M8813,2071 L3026,5901" stroke="blue" stroke-width="2" />
<path d="M6443,1074 L3974,4750" stroke="blue" stroke-width="2" />
<path d="M9348,5419 L785,1975" stroke="blue" stroke-width="2" />
<path d="M5788,4199 L5391,2608" stroke="blue" stroke-width="2" />
<path d="M6731,3083 L6178,4953" stroke="blue" stroke-width="2" />
<path d="M4622,3220 L2654,5330" stroke="blue" stroke-width="2" />
<path d="M1403,5837 L6014,472" stroke="blue" stroke-width="2" />
<path d="M1456,5154 L9632,6339" stroke="blue" stroke-width="2" />
<path d="M7103,3371 L4924,1779" stroke="blue" stroke-width="2" />
<path d="M0,0 L9996,0" stroke="red" stroke-width="10" />
<path d="M9996,0 L9996,6406" stroke="red" stroke-width="10" />
<path d="M0,6406 L9996,6406" stroke="red" stroke-width="10" />
<path d="M0,6406 L0,0" stroke="red" stroke-width="10" />
</svg>