<?xml version="1.0" encoding="UTF-8"?>
<svg xmlns="http://www.w3.org/2000/svg" xmlns:xlink="http://www.w3.org/1999/xlink"
     width="10000" height="10000" viewBox="0 0 10000 10000">
<defs>
</defs>
<path d="M7741,336 L9254,29" stroke="blue" stroke-width="2" />
<path d="M5086,1104 L5942,2482" stroke="blue" stroke-width="2" />
<path d="M2837,649 L115,1005" stroke="blue" stroke-width="2" />
<path d="M4968,2256 L2337,1235" stroke="blue" stroke-width="2" />
<path d="M5112,2276 L2449,2502" stroke="blue" stroke-width="2" />
<path d="M8086,1866 L3011,1010" stroke="blue" stroke-width="2" />
<path d="M5554,36 L1511,1780" stroke="blue" stroke-width="2" />
<path d="M5380,207 L9008,591" stroke="blue" stroke-width="2" />
<path d="M2639,218 L636,1174" stroke="blue" stroke-width="2" />
<path d="M7688,1408 L4311,156" stroke="blue" stroke-width="2" />
<path d="M7692,895 L328,1433" stroke="blue" stroke-width="2" />
<path d="M3849,2361 L2174,2335" stroke="blue" stroke-width="2" />
<path d="M8900,1636 L4215,1296" stroke="blue" stroke-width="2" />
<path d="M7018,1013 L4184,1077" stroke="blue" stroke-width="2" />
<path d="M2113,873 L3893,916" stroke="blue" stroke-width="2" />
<path d="M8755,1831 L340,2004" stroke="blue" stroke-width="2" />
<path d="M4525,2396 L8884,1210" stroke="blue" stroke-width="2" />
<path d="M1391,1418 L7964,990" stroke="blue" stroke-width="2" />
<path d="M7690,921 L2059,528" stroke="blue" stroke-width="2" />
<path d="M3380,1093 L7109,2057" stroke="blue" stroke-width="2" />
<path d="M8447,956 L6112,2393" stroke="blue" stroke-width="2" />
<path d="M7797,195 L1716,1646" stroke="blue" stroke-width="2" />
<path d="M3560,1390 L6679,1817" stroke="blue" stroke-width="2" />
<path d="M7172,472 L3178,2042" stroke="blue" stroke-width="2" />
<path d="M6116,823 L9035,2312" stroke="blue" stroke-width="2" />
<path d="M3368,1512 L23,1242" stroke="blue" stroke-width="2" />
<path d="M7002,1611 L4892,638" stroke="blue" stroke-width="2" />
<path d="M7641,365 L242,2074" stroke="blue" stroke-width="2" />
<path d="M8336,1722 L776,49" stroke="blue" stroke-width="2" />
<path d="M9288,727 L7636,1006" stroke="blue" stroke-width="2" />
<path d="M4550,330 L2147,1679" stroke="blue" stroke-width="2" />
<path d="M160,302 L5033,1374" stroke="blue" stroke-width="2" />
<path d="M673,905 L5855,546" stroke="blue" stroke-width="2" />
<path d="M1640,1528 L6104,1223" stroke="blue" stroke-width="2" />
<path d="M2416,1850 L7781,1536" stroke="blue" stroke-width="2" />
<path d="M9396,1690 L5048,2253" stroke="blue" stroke-width="2" />
<path d="M6384,1279 L8703,1516" stroke="blue" stroke-width="2" />
<path d="M6962,250 L6196,1944" stroke="blue" stroke-width="2" />
<path d="M8900,132 L1352,222" stroke="blue" stroke-width="2" />
<path d="M9253,2310 L5057,2049" stroke="blue" stroke-width="2" />
<path d="M1193,2260 L4968,869" stroke="blue" stroke-width="2" />
<path d="M2377,123 L845,82" stroke="blue" stroke-width="2" />
<path d="M2835,2170 L3681,1020" stroke="blue" stroke-width="2" />
<path d="M8187,878 L7550,1691" stroke="blue" stroke-width="2" />
<path d="M9299,74 L940,1941" stroke="blue" stroke-width="2" />
<path d="M5218,567 L2672,2050" stroke="blue" stroke-width="2" />
<path d="M657,907 L3360,2246" stroke="blue" stroke-width="2" />
<path d="M2075,1266 L9238,616" stroke="blue" stroke-width="2" />
<path d="M792,1188 L8993,1917" stroke="blue" stroke-width="2" />
<path d="M9377,2171 L586,932" stroke="blue" stroke-width="2" />
<path d="M5861,100 L1103,1205" stroke="blue" stroke-width="2" />
<path d="M3973,1140 L335,566" stroke="blue" stroke-width="2" />
<path d="M8181,2 L8455,996" stroke="blue" stroke-width="2" />
<path d="M1322,591 L1130,487" stroke="blue" stroke-width="2" />
<path d="M6520,2341 L2008,1467" stroke="blue" stroke-width="2" />
<path d="M9327,606 L4984,759" stroke="blue" stroke-width="2" />
<path d="M3271,1272 L2365,814" stroke="blue" stroke-width="2" />
<path d="M3022,1826 L3674,1171" stroke="blue" stroke-width="2" />
<path d="M6188,169 L3065,2486" stroke="blue" stroke-width="2" />
<path d="M8117,638 L2013,480" stroke="blue" stroke-width="2" />
<path d="M2848,1826 L6968,1627" stroke="blue" stroke-width="2" />
<path d="M664,1263 L9381,458" stroke="blue" stroke-width="2" />
<path d="M6039,565 L6300,1150" stroke="blue" stroke-width="2" />
<path d="M603,2469 L5222,2179" stroke="blue" stroke-width="2" />
<path d="M2030,1608 L675,2131" stroke="blue" stroke-width="2" />
<path d="M6855,1959 L2601,1417" stroke="blue" stroke-width="2" />
<path d="M4456,2528 L3444,1231" stroke="blue" stroke-width="2" />
<path d="M7036,2374 L4163,635" stroke="blue" stroke-width="2" />
<path d="M4884,1170 L8725,1164" stroke="blue" stroke-width="2" />
<path d="M8804,1534 L5471,1746" stroke="blue" stroke-width="2" />
<path d="M7198,1207 L8785,79" stroke="blue" stroke-width="2" />
<path d="M315,783 L451,1084" stroke="blue" stroke-width="2" />
<path d="M1990,647 L9337,470" stroke="blue" stroke-width="2" />
<path d="M4634,607 L2172,1198" stroke="blue" stroke-width="2" />
<path d="M8827,1346 L8100,1157" stroke="blue" stroke-width="2" />
<path d="M6119,187 L6262,898" stroke="blue" stroke-width="2" />
<path d="M8140,992 L7793,156" stroke="blue" stroke-width="2" />
<path d="M1309,1054 L5253,569" stroke="blue" stroke-width="2" />
<path d="M4205,1205 L5715,905" stroke="blue" stroke-width="2" />
<path d="M2081,498 L3633,424" stroke="blue" stroke-width="2" />
<path d="M2124,548 L6385,2589" stroke="blue" stroke-width="2" />
<path d="M4997,1723 L1118,1280" stroke="blue" stroke-width="2" />
<path d="M4736,991 L4836,864" stroke="blue" stroke-width="2" />
<path d="M8628,2481 L3795,2285" stroke="blue" stroke-width="2" />
<path d="M760,1287 L9009,1530" stroke="blue" stroke-width="2" />
<path d="M3216,1390 L5480,334" stroke="blue" stroke-width="2" />
<path d="M1700,579 L5494,1267" stroke="blue" stroke-width="2" />
<path d="M3910,2402 L7539,2394" stroke="blue" stroke-width="2" />
<path d="M964,2488 L1076,2013" stroke="blue" stroke-width="2" />
<path d="M3001,1875 L7647,292" stroke="blue" stroke-width="2" />
<path d="M4814,1448 L1223,860" stroke="blue" stroke-width="2" />
<path d="M6661,2527 L7737,552" stroke="blue" stroke-width="2" />
<path d="M7823,315 L8746,1662" stroke="blue" stroke-width="2" />
<path d="M5643,1713 L5396,1128" stroke="blue" stroke-width="2" />
<path d="M4977,1837 L2788,2582" stroke="blue" stroke-width="2" />
<path d="M8826,1612 L4309,1830" stroke="blue" stroke-width="2" />
<path d="M3603,1567 L1931,1215" stroke="blue" stroke-width="2" />
<path d="M6316,2440 L3024,1856" stroke="blue" stroke-width="2" />
<path d="M269,736 L5862,2295" stroke="blue" stroke-width="2" />
<path d="M4685,2536 L597,1578" stroke="blue" stroke-width="2" />
<path d="M3468,718 L7238,1210" stroke="blue" stroke-width="2" />
<path d="M8955,1698 L2447,109" stroke="blue" stroke-width="2" />
<path d="M4515,1236 L3220,2030" stroke="blue" stroke-width="2" />
<path d="M4277,466 L2982,2443" stroke="blue" stroke-width="2" />
<path d="M1608,1002 L3940,809" stroke="blue" stroke-width="2" />
<path d="M2555,747 L2979,1325" stroke="blue" stroke-width="2" />
<path d="M5730,1102 L7642,2531" stroke="blue" stroke-width="2" />
<path d="M7780,1891 L7602,176" stroke="blue" stroke-width="2" />
<path d="M5528,924 L6142,1849" stroke="blue" stroke-width="2" />
<path d="M7059,22 L2031,738" stroke="blue" stroke-width="2" />
<path d="M2100,2412 L3843,1429" stroke="blue" stroke-width="2" />
<path d="M6177,1789 L5163,2385" stroke="blue" stroke-width="2" />
<path d="M3479,546 L7696,540" stroke="blue" stroke-width="2" />
<path d="M4036,862 L7025,511" stroke="blue" stroke-width="2" />
<path d="M5175,1229 L409,704" stroke="blue" stroke-width="2" />
<path d="M4463,1669 L1124,122" stroke="blue" stroke-width="2" />
<path d="M1276,261 L2773,1503" stroke="blue" stroke-width="2" />
<path d="M5187,453 L5258,906" stroke="blue" stroke-width="2" />
<path d="M9152,2032 L7949,135" stroke="blue" stroke-width="2" />
<path d="M5448,216 L8824,1504" stroke="blue" stroke-width="2" />
<path d="M3583,999 L2662,1301" stroke="blue" stroke-width="2" />
<path d="M4949,2247 L4577,1477" stroke="blue" stroke-width="2" />
<path d="M4645,1887 L472,1502" stroke="blue" stroke-width="2" />
<path d="M6808,1260 L6509,579" stroke="blue" stroke-width="2" />
<path d="M3867,136 L262,2477" stroke="blue" stroke-width="2" />
<path d="M3595,2396 L3817,1278" stroke="blue" stroke-width="2" />
<path d="M5242,795 L5427,749" stroke="blue" stroke-width="2" />
<path d="M6612,986 L3304,144" stroke="blue" stroke-width="2" />
<path d="M6526,1892 L6647,986" stroke="blue" stroke-width="2" />
<path d="M4795,917 L1420,815" stroke="blue" stroke-width="2" />
<path d="M8410,2081 L564,2177" stroke="blue" stroke-width="2" />
<path d="M2509,427 L9326,1361" stroke="blue" stroke-width="2" />
<path d="M6035,1623 L3447,926" stroke="blue" stroke-width="2" />
<path d="M5315,570 L3865,1952" stroke="blue" stroke-width="2" />
<path d="M3057,217 L7223,359" stroke="blue" stroke-width="2" />
<path d="M4731,1565 L2828,223" stroke="blue" stroke-width="2" />
<path d="M5268,1333 L759,1981" stroke="blue" stroke-width="2" />
<path d="M1411,720 L7419,1863" stroke="blue" stroke-width="2" />
<path d="M8321,622 L6696,412" stroke="blue" stroke-width="2" />
<path d="M3385,1377 L1905,1365" stroke="blue" stroke-width="2" />
<path d="M7327,63 L8396,824" stroke="blue" stroke-width="2" />
<path d="M6030,2552 L4170,2440" stroke="blue" stroke-width="2" />
<path d="M5586,387 L4353,2231" stroke="blue" stroke-width="2" />
<path d="M5618,831 L9203,286" stroke="blue" stroke-width="2" />
<path d="M7983,1450 L352,515" stroke="blue" stroke-width="2" />
<path d="M8072,1757 L8677,715" stroke="blue" stroke-width="2" />
<path d="M4252,1544 L7698,1116" stroke="blue" stroke-width="2" />
<path d="M7324,1767 L7481,577" stroke="blue" stroke-width="2" />
<path d="M1855,1650 L3978,1775" stroke="blue" stroke-width="2" />
<path d="M5571,1114 L2233,1154" stroke="blue" stroke-width="2" />
<path d="M9396,1890 L2973,1246" stroke="blue" stroke-width="2" />
<path d="M5703,1539 L6697,1386" stroke="blue" stroke-width="2" />
<path d="M7798,912 L2303,2062" stroke="blue" stroke-width="2" />
<path d="M3572,1497 L6980,99" stroke="blue" stroke-width="2" />
<path d="M7588,1805 L7201,42" stroke="blue" stroke-width="2" />
<path d="M7329,12 L3536,2254" stroke="blue" stroke-width="2" />
<path d="M4728,1354 L5284,1032" stroke="blue" stroke-width="2" />
<path d="M988,982 L975,1749" stroke="blue" stroke-width="2" />
<path d="M8027,1125 L6334,1918" stroke="blue" stroke-width="2" />
<path d="M8871,2206 L7582,844" stroke="blue" stroke-width="2" />
<path d="M8979,2403 L2567,1115" stroke="blue" stroke-width="2" />
<path d="M4119,1208 L2691,2017" stroke="blue" stroke-width="2" />
<path d="M1841,2557 L4790,2157" stroke="blue" stroke-width="2" />
<path d="M3157,1733 L7053,2393" stroke="blue" stroke-width="2" />
<path d="M5889,1802 L354,2222" stroke="blue" stroke-width="2" />
<path d="M7774,2391 L523,2198" stroke="blue" stroke-width="2" />
<path d="M8687,1448 L1444,990" stroke="blue" stroke-width="2" />
<path d="M5829,2461 L7095,992" stroke="blue" stroke-width="2" />
<path d="M315,568 L9152,1112" stroke="blue" stroke-width="2" />
<path d="M6794,2500 L2552,1631" stroke="blue" stroke-width="2" />
<path d="M7610,515 L7769,2177" stroke="blue" stroke-width="2" />
<path d="M5216,1421 L3267,1388" stroke="blue" stroke-width="2" />
<path d="M3062,1486 L8931,1281" stroke="blue" stroke-width="2" />
<path d="M2561,72 L2250,2024" stroke="blue" stroke-width="2" />
<path d="M9187,479 L1875,1544" stroke="blue" stroke-width="2" />
<path d="M8850,610 L4450,2187" stroke="blue" stroke-width="2" />
<path d="M7082,1739 L1827,1279" stroke="blue" stroke-width="2" />
<path d="M2035,1172 L5195,1428" stroke="blue" stroke-width="2" />
<path d="M3398,1291 L3237,2235" stroke="blue" stroke-width="2" />
<path d="M753,1608 L1258,384" stroke="blue" stroke-width="2" />
<path d="M23,927 L1472,21" stroke="blue" stroke-width="2" />
<path d="M115,1074 L5689,1415" stroke="blue" stroke-width="2" />
<path d="M4609,822 L1139,2555" stroke="blue" stroke-width="2" />
<path d="M8930,503 L4618,1509" stroke="blue" stroke-width="2" />
<path d="M1018,1628 L3210,445" stroke="blue" stroke-width="2" />
<path d="M353,1002 L659,1654" stroke="blue" stroke-width="2" />
<path d="M7229,2001 L2582,43" stroke="blue" stroke-width="2" />
<path d="M3100,465 L6165,1831" stroke="blue" stroke-width="2" />
<path d="M4667,2334 L2589,2588" stroke="blue" stroke-width="2" />
<path d="M7619,365 L6182,2407" stroke="blue" stroke-width="2" />
<path d="M4429,255 L5428,2204" stroke="blue" stroke-width="2" />
<path d="M6374,2142 L7618,701" stroke="blue" stroke-width="2" />
<path d="M1446,1977 L372,2014" stroke="blue" stroke-width="2" />
<path d="M8715,2312 L8820,2184" stroke="blue" stroke-width="2" />
<path d="M6579,2200 L5061,1990" stroke="blue" stroke-width="2" />
<path d="M6052,94 L6272,1694" stroke="blue" stroke-width="2" />
<path d="M1607,830 L351,581" stroke="blue" stroke-width="2" />
<path d="M8856,96 L7073,1883" stroke="blue" stroke-width="2" />
<path d="M5631,2554 L3866,2488" stroke="blue" stroke-width="2" />
<path d="M5821,1916 L6457,116" stroke="blue" stroke-width="2" />
<path d="M105,872 L6321,1315" stroke="blue" stroke-width="2" />
<path d="M8728,556 L287,323" stroke="blue" stroke-width="2" />
<path d="M8866,2283 L2777,716" stroke="blue" stroke-width="2" />
<path d="M8248,1493 L2043,26" stroke="blue" stroke-width="2" />
<path d="M2304,1438 L8402,969" stroke="blue" stroke-width="2" />
<path d="M4744,1695 L4365,369" stroke="blue" stroke-width="2" />
<path d="M4946,1096 L8613,1071" stroke="blue" stroke-width="2" />
<path d="M3453,2226 L9331,2133" stroke="blue" stroke-width="2" />
<path d="M3160,1052 L5717,2547" stroke="blue" stroke-width="2" />
<path d="M2336,2243 L5249,2187" stroke="blue" stroke-width="2" />
<path d="M3483,379 L4902,2156" stroke="blue" stroke-width="2" />
<path d="M5022,331 L6530,395" stroke="blue" stroke-width="2" />
<path d="M5592,1113 L7469,1362" stroke="blue" stroke-width="2" />
<path d="M4084,1888 L8611,173" stroke="blue" stroke-width="2" />
<path d="M4156,169 L3958,2391" stroke="blue" stroke-width="2" />
<path d="M7703,1170 L3284,2210" stroke="blue" stroke-width="2" />
<path d="M2472,730 L8812,80" stroke="blue" stroke-width="2" />
<path d="M5143,67 L5118,1215" stroke="blue" stroke-width="2" />
<path d="M2885,2505 L7968,778" stroke="blue" stroke-width="2" />
<path d="M2564,699 L7473,1208" stroke="blue" stroke-width="2" />
<path d="M5488,318 L5820,430" stroke="blue" stroke-width="2" />
<path d="M3366,2211 L2096,2005" stroke="blue" stroke-width="2" />
<path d="M7679,2322 L7959,2069" stroke="blue" stroke-width="2" />
<path d="M1551,385 L6775,402" stroke="blue" stroke-width="2" />
<path d="M4068,2025 L6757,2321" stroke="blue" stroke-width="2" />
<path d="M4000,1356 L3444,1950" stroke="blue" stroke-width="2" />
<path d="M2853,1578 L9005,2259" stroke="blue" stroke-width="2" />
<path d="M8571,2167 L2143,1805" stroke="blue" stroke-width="2" />
<path d="M3172,947 L9084,1404" stroke="blue" stroke-width="2" />
<path d="M1678,1498 L9072,2254" stroke="blue" stroke-width="2" />
<path d="M1099,2037 L6357,205" stroke="blue" stroke-width="2" />
<path d="M8331,114 L5192,1381" stroke="blue" stroke-width="2" />
<path d="M5136,197 L274,205" stroke="blue" stroke-width="2" />
<path d="M7164,981 L520,1796" stroke="blue" stroke-width="2" />
<path d="M1549,337 L2432,599" stroke="blue" stroke-width="2" />
<path d="M4294,824 L3543,958" stroke="blue" stroke-width="2" />
<path d="M5412,2417 L960,484" stroke="blue" stroke-width="2" />
<path d="M4058,2412 L3735,1141" stroke="blue" stroke-width="2" />
<path d="M4916,128 L1532,796" stroke="blue" stroke-width="2" />
<path d="M6495,841 L1801,1097" stroke="blue" stroke-width="2" />
<path d="M810,494 L6324,51" stroke="blue" stroke-width="2" />
<path d="M6462,1335 L3246,316" stroke="blue" stroke-width="2" />
<path d="M7380,1263 L6064,2316" stroke="blue" stroke-width="2" />
<path d="M1618,1786 L1626,2505" stroke="blue" stroke-width="2" />
<path d="M4987,1276 L274,620" stroke="blue" stroke-width="2" />
<path d="M7861,780 L8094,216" stroke="blue" stroke-width="2" />
<path d="M2478,686 L8925,104" stroke="blue" stroke-width="2" />
<path d="M6907,791 L8680,1195" stroke="blue" stroke-width="2" />
<path d="M8514,1654 L1605,2407" stroke="blue" stroke-width="2" />
<path d="M7865,1102 L3212,687" stroke="blue" stroke-width="2" />
<path d="M1486,860 L8704,1295" stroke="blue" stroke-width="2" />
<path d="M569,89 L7656,943" stroke="blue" stroke-width="2" />
<path d="M8512,327 L3610,594" stroke="blue" stroke-width="2" />
<path d="M2257,1157 L1223,1275" stroke="blue" stroke-width="2" />
<path d="M6140,961 L7800,163" stroke="blue" stroke-width="2" />
<path d="M8534,1191 L8082,598" stroke="blue" stroke-width="2" />
<path d="M666,470 L3021,2447" stroke="blue" stroke-width="2" />
<path d="M1574,1028 L6903,359" stroke="blue" stroke-width="2" />
<path d="M5108,1426 L2297,710" stroke="blue" stroke-width="2" />
<path d="M5805,1673 L3342,2408" stroke="blue" stroke-width="2" />
<path d="M5426,2278 L1986,619" stroke="blue" stroke-width="2" />
<path d="M5071,1530 L6342,2107" stroke="blue" stroke-width="2" />
<path d="M597,2240 L4690,1813" stroke="blue" stroke-width="2" />
<path d="M9178,2479 L1057,21" stroke="blue" stroke-width="2" />
<path d="M2956,1685 L82,1270" stroke="blue" stroke-width="2" />
<path d="M1620,2509 L5602,1815" stroke="blue" stroke-width="2" />
<path d="M8962,1961 L4298,9" stroke="blue" stroke-width="2" />
<path d="M4871,2135 L8059,494" stroke="blue" stroke-width="2" />
<path d="M647,1479 L5206,1265" stroke="blue" stroke-width="2" />
<path d="M6405,512 L5003,1656" stroke="blue" stroke-width="2" />
<path d="M5160,1491 L8557,2061" stroke="blue" stroke-width="2" />
<path d="M9385,1112 L264,366" stroke="blue" stroke-width="2" />
<path d="M7184,2310 L2301,1578" stroke="blue" stroke-width="2" />
<path d="M5625,689 L4565,2540" stroke="blue" stroke-width="2" />
<path d="M8531,1432 L822,901" stroke="blue" stroke-width="2" />
<path d="M4138,1442 L8766,1735" stroke="blue" stroke-width="2" />
<path d="M650,849 L574,2057" stroke="blue" stroke-width="2" />
<path d="M9294,2344 L8866,1553" stroke="blue" stroke-width="2" />
<path d="M6403,724 L6999,589" stroke="blue" stroke-width="2" />
<path d="M2023,429 L2788,149" stroke="blue" stroke-width="2" />
<path d="M7919,1828 L7195,821" stroke="blue" stroke-width="2" />
<path d="M4546,668 L6514,241" stroke="blue" stroke-width="2" />
<path d="M6841,2160 L3769,7" stroke="blue" stroke-width="2" />
<path d="M4127,200 L6297,171" stroke="blue" stroke-width="2" />
<path d="M6303,1356 L368,58" stroke="blue" stroke-width="2" />
<path d="M8674,1192 L711,2589" stroke="blue" stroke-width="2" />
<path d="M6461,941 L4024,252" stroke="blue" stroke-width="2" />
<path d="M6700,2278 L7026,1747" stroke="blue" stroke-width="2" />
<path d="M9267,2085 L2478,1512" stroke="blue" stroke-width="2" />
<path d="M5780,2142 L2604,1484" stroke="blue" stroke-width="2" />
<path d="M1470,1804 L7787,1925" stroke="blue" stroke-width="2" />
<path d="M2153,904 L8684,1017" stroke="blue" stroke-width="2" />
<path d="M7041,266 L376,1914" stroke="blue" stroke-width="2" />
<path d="M2561,997 L5024,932" stroke="blue" stroke-width="2" />
<path d="M4727,2507 L1431,1207" stroke="blue" stroke-width="2" />
<path d="M570,174 L71,1240" stroke="blue" stroke-width="2" />
<path d="M5172,2588 L1969,928" stroke="blue" stroke-width="2" />
<path d="M4802,1079 L8624,1966" stroke="blue" stroke-width="2" />
<path d="M7423,2531 L3946,280" stroke="blue" stroke-width="2" />
<path d="M3028,1114 L7293,1143" stroke="blue" stroke-width="2" />
<path d="M618,1275 L6415,1148" stroke="blue" stroke-width="2" />
<path d="M2998,1580 L3138,552" stroke="blue" stroke-width="2" />
<path d="M5426,1934 L7491,1808" stroke="blue" stroke-width="2" />
<path d="M2418,1886 L7841,225" stroke="blue" stroke-width="2" />
<path d="M5746,37 L4613,2116" stroke="blue" stroke-width="2" />
<path d="M2173,1557 L4159,2066" stroke="blue" stroke-width="2" />
<path d="M627,281 L2714,1928" stroke="blue" stroke-width="2" />
<path d="M276,222 L6221,1691" stroke="blue" stroke-width="2" />
<path d="M910,287 L922,181" stroke="blue" stroke-width="2" />
<path d="M596,2346 L1940,2402" stroke="blue" stroke-width="2" />
<path d="M407,1089 L7832,1282" stroke="blue" stroke-width="2" />
<path d="M4656,1645 L7591,72" stroke="blue" stroke-width="2" />
<path d="M5232,56 L5409,2574" stroke="blue" stroke-width="2" />
<path d="M6829,1464 L2750,2227" stroke="blue" stroke-width="2" />
<path d="M3406,2581 L8053,2178" stroke="blue" stroke-width="2" />
<path d="M5894,501 L5598,318" stroke="blue" stroke-width="2" />
<path d="M6690,945 L7205,2048" stroke="blue" stroke-width="2" />
<path d="M6941,460 L8770,195" stroke="blue" stroke-width="2" />
<path d="M4143,3 L2997,382" stroke="blue" stroke-width="2" />
<path d="M1792,2264 L4398,123" stroke="blue" stroke-width="2" />
<path d="M4164,404 L7491,1610" stroke="blue" stroke-width="2" />
<path d="M4983,1891 L5059,2239" stroke="blue" stroke-width="2" />
<path d="M1370,1363 L3438,816" stroke="blue" stroke-width="2" />
<path d="M2630,2111 L1218,1472" stroke="blue" stroke-width="2" />
<path d="M6422,1167 L4684,420" stroke="blue" stroke-width="2" />
<path d="M2663,810 L5736,1063" stroke="blue" stroke-width="2" />
<path d="M4334,2150 L1394,139" stroke="blue" stroke-width="2" />
<path d="M8896,585 L5950,1950" stroke="blue" stroke-width="2" />
<path d="M3424,1865 L3792,1201" stroke="blue" stroke-width="2" />
<path d="M7750,370 L8812,1477" stroke="blue" stroke-width="2" />
<path d="M1625,1544 L1414,363" stroke="blue" stroke-width="2" />
<path d="M9214,2048 L22,30" stroke="blue" stroke-width="2" />
<path d="M2880,1528 L6722,1232" stroke="blue" stroke-width="2" />
<path d="M1026,1232 L3326,2512" stroke="blue" stroke-width="2" />
<path d="M6245,1537 L2026,717" stroke="blue" stroke-width="2" />
<path d="M775,2150 L8388,2369" stroke="blue" stroke-width="2" />
<path d="M6293,661 L4394,1353" stroke="blue" stroke-width="2" />
<path d="M5506,95 L7602,1626" stroke="blue" stroke-width="2" />
<path d="M7538,816 L4518,58" stroke="blue" stroke-width="2" />
<path d="M185,992 L8246,1585" stroke="blue" stroke-width="2" />
<path d="M3744,768 L2501,1196" stroke="blue" stroke-width="2" />
<path d="M4247,2003 L5310,2378" stroke="blue" stroke-width="2" />
<path d="M4324,455 L5493,901" stroke="blue" stroke-width="2" />
<path d="M8966,2297 L6092,261" stroke="blue" stroke-width="2" />
<path d="M1462,408 L628,1931" stroke="blue" stroke-width="2" />
<path d="M3630,963 L5148,1683" stroke="blue" stroke-width="2" />
<path d="M195,1279 L6004,1763" stroke="blue" stroke-width="2" />
<path d="M9177,398 L3561,2172" stroke="blue" stroke-width="2" />
<path d="M3631,654 L1381,1375" stroke="blue" stroke-width="2" />
<path d="M4677,2509 L1608,810" stroke="blue" stroke-width="2" />
<path d="M3912,2300 L6440,992" stroke="blue" stroke-width="2" />
<path d="M1727,1923 L4082,187" stroke="blue" stroke-width="2" />
<path d="M2878,1179 L8220,1494" stroke="blue" stroke-width="2" />
<path d="M5960,1414 L3430,1452" stroke="blue" stroke-width="2" />
<path d="M6219,2530 L8252,1661" stroke="blue" stroke-width="2" />
<path d="M1679,117 L715,1433" stroke="blue" stroke-width="2" />
<path d="M1977,81 L7128,1348" stroke="blue" stroke-width="2" />
<path d="M8913,1890 L9197,576" stroke="blue" stroke-width="2" />
<path d="M2257,2271 L3697,2301" stroke="blue" stroke-width="2" />
<path d="M1372,335 L4266,931" stroke="blue" stroke-width="2" />
<path d="M6075,374 L613,495" stroke="blue" stroke-width="2" />
<path d="M1024,1374 L4350,2337" stroke="blue" stroke-width="2" />
<path d="M8799,989 L7335,1355" stroke="blue" stroke-width="2" />
<path d="M1429,2378 L7621,1814" stroke="blue" stroke-width="2" />
<path d="M3406,1669 L4878,689" stroke="blue" stroke-width="2" />
<path d="M3978,2078 L6708,1444" stroke="blue" stroke-width="2" />
<path d="M3247,1558 L7459,1692" stroke="blue" stroke-width="2" />
<path d="M7404,1190 L6012,1524" stroke="blue" stroke-width="2" />
<path d="M8029,1671 L5029,2413" stroke="blue" stroke-width="2" />
<path d="M2098,1295 L9170,1314" stroke="blue" stroke-width="2" />
<path d="M2081,2109 L5292,512" stroke="blue" stroke-width="2" />
<path d="M244,2133 L3114,945" stroke="blue" stroke-width="2" />
<path d="M9192,1560 L6248,2441" stroke="blue" stroke-width="2" />
<path d="M6069,346 L4742,2173" stroke="blue" stroke-width="2" />
<path d="M6974,2101 L2976,1679" stroke="blue" stroke-width="2" />
<path d="M4699,1376 L7448,2582" stroke="blue" stroke-width="2" />
<path d="M3074,1236 L1975,1151" stroke="blue" stroke-width="2" />
<path d="M163,1835 L680,674" stroke="blue" stroke-width="2" />
<path d="M5900,1388 L7727,678" stroke="blue" stroke-width="2" />
<path d="M4505,1744 L5411,1343" stroke="blue" stroke-width="2" />
<path d="M1508,2214 L3413,134" stroke="blue" stroke-width="2" />
<path d="M7733,1213 L7790,785" stroke="blue" stroke-width="2" />
<path d="M2286,1425 L4215,2218" stroke="blue" stroke-width="2" />
<path d="M9067,644 L5250,1890" stroke="blue" stroke-width="2" />
<path d="M5336,167 L1758,1195" stroke="blue" stroke-width="2" />
<path d="M4815,2464 L2224,1834" stroke="blue" stroke-width="2" />
<path d="M3780,925 L2334,702" stroke="blue" stroke-width="2" />
<path d="M3012,1854 L8372,1351" stroke="blue" stroke-width="2" />
<path d="M6944,921 L8760,847" stroke="blue" stroke-width="2" />
<path d="M116,1314 L85,1817" stroke="blue" stroke-width="2" />
<path d="M5232,572 L2179,1237" stroke="blue" stroke-width="2" />
<path d="M3808,961 L8335,429" stroke="blue" stroke-width="2" />
<path d="M3736,65 L404,1693" stroke="blue" stroke-width="2" />
<path d="M7093,2502 L2735,576" stroke="blue" stroke-width="2" />
<path d="M3168,719 L3025,128" stroke="blue" stroke-width="2" />
<path d="M237,777 L2559,2303" stroke="blue" stroke-width="2" />
<path d="M8295,1889 L7368,1359" stroke="blue" stroke-width="2" />
<path d="M8647,2068 L4273,1026" stroke="blue" stroke-width="2" />
<path d="M4608,981 L3053,1589" stroke="blue" stroke-width="2" />
<path d="M4993,1548 L646,2139" stroke="blue" stroke-width="2" />
<path d="M2332,93 L5316,1263" stroke="blue" stroke-width="2" />
<path d="M452,534 L6978,2341" stroke="blue" stroke-width="2" />
<path d="M8412,1989 L2780,356" stroke="blue" stroke-width="2" />
<path d="M2701,2554 L8123,1143" stroke="blue" stroke-width="2" />
<path d="M2675,1039 L4146,222" stroke="blue" stroke-width="2" />
<path d="M324,1617 L3705,1541" stroke="blue" stroke-width="2" />
<path d="M6517,648 L9383,159" stroke="blue" stroke-width="2" />
<path d="M4661,2162 L1923,351" stroke="blue" stroke-width="2" />
<path d="M4299,2197 L6206,1895" stroke="blue" stroke-width="2" />
<path d="M527,427 L8943,872" stroke="blue" stroke-width="2" />
<path d="M1006,621 L4854,644" stroke="blue" stroke-width="2" />
<path d="M8427,1077 L5643,397" stroke="blue" stroke-width="2" />
<path d="M8687,2461 L2605,1954" stroke="blue" stroke-width="2" />
<path d="M3545,1298 L7371,1851" stroke="blue" stroke-width="2" />
<path d="M7250,52 L4980,1793" stroke="blue" stroke-width="2" />
<path d="M4213,2236 L3932,89" stroke="blue" stroke-width="2" />
<path d="M3411,1363 L510,194" stroke="blue" stroke-width="2" />
<path d="M634,2506 L7469,901" stroke="blue" stroke-width="2" />
<path d="M6889,1290 L991,516" stroke="blue" stroke-width="2" />
<path d="M8576,1990 L6632,2525" stroke="blue" stroke-width="2" />
<path d="M9220,605 L7514,1183" stroke="blue" stroke-width="2" />
<path d="M7944,51 L2517,50" stroke="blue" stroke-width="2" />
<path d="M2106,846 L6182,9" stroke="blue" stroke-width="2" />
<path d="M2102,790 L9172,1307" stroke="blue" stroke-width="2" />
<path d="M1004,809 L1048,615" stroke="blue" stroke-width="2" />
<path d="M1097,2440 L8420,1429" stroke="blue" stroke-width="2" />
<path d="M5516,1773 L2119,2491" stroke="blue" stroke-width="2" />
<path d="M2568,2018 L7231,2330" stroke="blue" stroke-width="2" />
<path d="M8942,135 L4707,1778" stroke="blue" stroke-width="2" />
<path d="M692,1746 L5621,1089" stroke="blue" stroke-width="2" />
<path d="M8607,238 L3263,934" stroke="blue" stroke-width="2" />
<path d="M5917,410 L2080,233" stroke="blue" stroke-width="2" />
<path d="M4180,964 L3430,2308" stroke="blue" stroke-width="2" />
<path d="M8774,1423 L7440,2131" stroke="blue" stroke-width="2" />
<path d="M8841,361 L9227,999" stroke="blue" stroke-width="2" />
<path d="M3753,1150 L7157,667" stroke="blue" stroke-width="2" />
<path d="M4948,2065 L4829,2386" stroke="blue" stroke-width="2" />
<path d="M3688,1956 L4642,2101" stroke="blue" stroke-width="2" />
<path d="M5966,252 L8834,2416" stroke="blue" stroke-width="2" />
<path d="M1938,495 L4066,1810" stroke="blue" stroke-width="2" />
<path d="M6541,1054 L5515,1181" stroke="blue" stroke-width="2" />
<path d="M5972,953 L2770,1896" stroke="blue" stroke-width="2" />
<path d="M6985,1425 L1655,1178" stroke="blue" stroke-width="2" />
<path d="M3315,1091 L5289,221" stroke="blue" stroke-width="2" />
<path d="M1004,1239 L4406,308" stroke="blue" stroke-width="2" />
<path d="M4961,2535 L3194,682" stroke="blue" stroke-width="2" />
<path d="M8795,2535 L871,15" stroke="blue" stroke-width="2" />
<path d="M403,1507 L6485,1592" stroke="blue" stroke-width="2" />
<path d="M1484,1095 L7743,2405" stroke="blue" stroke-width="2" />
<path d="M8891,2078 L5579,23" stroke="blue" stroke-width="2" />
<path d="M7685,1059 L1999,682" stroke="blue" stroke-width="2" />
<path d="M9387,454 L1458,231" stroke="blue" stroke-width="2" />
<path d="M8643,1488 L2109,518" stroke="blue" stroke-width="2" />
<path d="M1779,972 L5138,780" stroke="blue" stroke-width="2" />
<path d="M7310,1591 L6787,2199" stroke="blue" stroke-width="2" />
<path d="M3354,2424 L7800,557" stroke="blue" stroke-width="2" />
<path d="M9273,2337 L3244,1005" stroke="blue" stroke-width="2" />
<path d="M2904,985 L662,173" stroke="blue" stroke-width="2" />
<path d="M6276,2221 L983,2005" stroke="blue" stroke-width="2" />
<path d="M8290,1557 L8952,1256" stroke="blue" stroke-width="2" />
<path d="M6709,1266 L2374,2124" stroke="blue" stroke-width="2" />
<path d="M5307,300 L1403,1233" stroke="blue" stroke-width="2" />
<path d="M31,2355 L8365,158" stroke="blue" stroke-width="2" />
<path d="M3993,1643 L58,1370" stroke="blue" stroke-width="2" />
<path d="M1564,1175 L5999,1994" stroke="blue" stroke-width="2" />
<path d="M3230,1696 L8824,607" stroke="blue" stroke-width="2" />
<path d="M3578,774 L9403,704" stroke="blue" stroke-width="2" />
<path d="M4116,2177 L1133,893" stroke="blue" stroke-width="2" />
<path d="M614,1100 L7729,1800" stroke="blue" stroke-width="2" />
<path d="M5233,1309 L7093,139" stroke="blue" stroke-width="2" />
<path d="M1563,1374 L4534,1783" stroke="blue" stroke-width="2" />
<path d="M2976,1640 L5425,1351" stroke="blue" stroke-width="2" />
<path d="M6320,590 L8642,2340" stroke="blue" stroke-width="2" />
<path d="M5280,1487 L7886,2347" stroke="blue" stroke-width="2" />
<path d="M3222,2448 L5601,1526" stroke="blue" stroke-width="2" />
<path d="M6960,311 L341,1350" stroke="blue" stroke-width="2" />
<path d="M2164,26 L1506,969" stroke="blue" stroke-width="2" />
<path d="M3681,892 L4894,833" stroke="blue" stroke-width="2" />
<path d="M3932,2445 L6601,2043" stroke="blue" stroke-width="2" />
<path d="M2409,413 L8150,1872" stroke="blue" stroke-width="2" />
<path d="M7403,2316 L3232,2360" stroke="blue" stroke-width="2" />
<path d="M8817,280 L5687,968" stroke="blue" stroke-width="2" />
<path d="M2363,2227 L2573,582" stroke="blue" stroke-width="2" />
<path d="M1137,2282 L4658,2563" stroke="blue" stroke-width="2" />
<path d="M9111,416 L8641,499" stroke="blue" stroke-width="2" />
<path d="M4891,604 L6393,205" stroke="blue" stroke-width="2" />
<path d="M6655,2329 L6435,2045" stroke="blue" stroke-width="2" />
<path d="M1697,426 L8422,695" stroke="blue" stroke-width="2" />
<path d="M9386,2550 L1690,961" stroke="blue" stroke-width="2" />
<path d="M599,1557 L5784,1263" stroke="blue" stroke-width="2" />
<path d="M5706,2440 L3538,1882" stroke="blue" stroke-width="2" />
<path d="M9401,740 L9188,1274" stroke="blue" stroke-width="2" />
<path d="M7691,2301 L4147,286" stroke="blue" stroke-width="2" />
<path d="M3223,585 L1512,133" stroke="blue" stroke-width="2" />
<path d="M3000,1906 L2818,909" stroke="blue" stroke-width="2" />
<path d="M2249,323 L6105,153" stroke="blue" stroke-width="2" />
<path d="M8275,1501 L1195,1495" stroke="blue" stroke-width="2" />
<path d="M4028,1430 L1088,1659" stroke="blue" stroke-width="2" />
<path d="M6122,695 L6579,2484" stroke="blue" stroke-width="2" />
<path d="M4407,917 L7548,2448" stroke="blue" stroke-width="2" />
<path d="M2523,1016 L5681,279" stroke="blue" stroke-width="2" />
<path d="M2579,2179 L4247,285" stroke="blue" stroke-width="2" />
<path d="M848,2496 L6832,835" stroke="blue" stroke-width="2" />
<path d="M1626,2389 L5628,568" stroke="blue" stroke-width="2" />
<path d="M5823,150 L4777,1301" stroke="blue" stroke-width="2" />
<path d="M4708,2235 L6627,1427" stroke="blue" stroke-width="2" />
<path d="M3718,1352 L3506,1405" stroke="blue" stroke-width="2" />
<path d="M8666,2422 L6085,785" stroke="blue" stroke-width="2" />
<path d="M3115,2491 L3330,1060" stroke="blue" stroke-width="2" />
<path d="M25,1607 L8148,1338" stroke="blue" stroke-width="2" />
<path d="M83,916 L255,1306" stroke="blue" stroke-width="2" />
<path d="M298,2555 L2720,62" stroke="blue" stroke-width="2" />
<path d="M7120,1905 L4904,2050" stroke="blue" stroke-width="2" />
<path d="M3008,693 L2695,2193" stroke="blue" stroke-width="2" />
<path d="M842,623 L568,2434" stroke="blue" stroke-width="2" />
<path d="M6377,1572 L7551,1530" stroke="blue" stroke-width="2" />
<path d="M4937,1493 L6716,1600" stroke="blue" stroke-width="2" />
<path d="M6436,2543 L7649,1815" stroke="blue" stroke-width="2" />
<path d="M1055,1383 L7210,1952" stroke="blue" stroke-width="2" />
<path d="M3971,295 L6104,2319" stroke="blue" stroke-width="2" />
<path d="M6274,778 L6555,383" stroke="blue" stroke-width="2" />
<path d="M8570,909 L8249,2023" stroke="blue" stroke-width="2" />
<path d="M5259,718 L7000,1372" stroke="blue" stroke-width="2" />
<path d="M6022,682 L8859,1256" stroke="blue" stroke-width="2" />
<path d="M5083,159 L8842,2217" stroke="blue" stroke-width="2" />
<path d="M3581,1291 L7234,989" stroke="blue" stroke-width="2" />
<path d="M2371,449 L3651,2133" stroke="blue" stroke-width="2" />
<path d="M3856,112 L736,1201" stroke="blue" stroke-width="2" />
<path d="M2156,1603 L8345,2113" stroke="blue" stroke-width="2" />
<path d="M161,1655 L5702,821" stroke="blue" stroke-width="2" />
<path d="M928,848 L8548,1854" stroke="blue" stroke-width="2" />
<path d="M5682,824 L1618,392" stroke="blue" stroke-width="2" />
<path d="M8078,560 L9005,286" stroke="blue" stroke-width="2" />
<path d="M3353,88 L9334,1479" stroke="blue" stroke-width="2" />
<path d="M3661,1527 L4844,1987" stroke="blue" stroke-width="2" />
<path d="M1088,1040 L975,2212" stroke="blue" stroke-width="2" />
<path d="M1075,515 L5020,1915" stroke="blue" stroke-width="2" />
<path d="M4416,1073 L5427,1285" stroke="blue" stroke-width="2" />
<path d="M3737,2048 L8578,1454" stroke="blue" stroke-width="2" />
<path d="M2240,1070 L801,1803" stroke="blue" stroke-width="2" />
<path d="M7240,1542 L1711,1686" stroke="blue" stroke-width="2" />
<path d="M7312,505 L5263,1330" stroke="blue" stroke-width="2" />
<path d="M2749,1748 L7387,232" stroke="blue" stroke-width="2" />
<path d="M8043,668 L2039,1649" stroke="blue" stroke-width="2" />
<path d="M7557,99 L8936,1190" stroke="blue" stroke-width="2" />
<path d="M7152,563 L8529,1019" stroke="blue" stroke-width="2" />
<path d="M2285,1562 L1667,999" stroke="blue" stroke-width="2" />
<path d="M4148,1809 L1907,2021" stroke="blue" stroke-width="2" />
<path d="M797,1480 L1589,1278" stroke="blue" stroke-width="2" />
<path d="M1254,1417 L2669,385" stroke="blue" stroke-width="2" />
<path d="M462,37 L354,1099" stroke="blue" stroke-width="2" />
<path d="M8323,538 L6215,2363" stroke="blue" stroke-width="2" />
<path d="M189,28 L2188,1206" stroke="blue" stroke-width="2" />
<path d="M716,543 L7074,588" stroke="blue" stroke-width="2" />
<path d="M8169,1214 L1884,895" stroke="blue" stroke-width="2" />
<path d="M1260,297 L5241,505" stroke="blue" stroke-width="2" />
<path d="M932,876 L5024,1889" stroke="blue" stroke-width="2" />
<path d="M5558,2111 L8289,1416" stroke="blue" stroke-width="2" />
<path d="M5909,1456 L374,831" stroke="blue" stroke-width="2" />
<path d="M7108,437 L2572,2540" stroke="blue" stroke-width="2" />
<path d="M204,1288 L4288,112" stroke="blue" stroke-width="2" />
<path d="M5158,992 L1858,526" stroke="blue" stroke-width="2" />
<path d="M61,1444 L4541,2509" stroke="blue" stroke-width="2" />
<path d="M8985,1848 L1477,918" stroke="blue" stroke-width="2" />
<path d="M1193,1178 L8630,163" stroke="blue" stroke-width="2" />
<path d="M7697,307 L7383,456" stroke="blue" stroke-width="2" />
<path d="M1687,848 L2852,2388" stroke="blue" stroke-width="2" />
<path d="M6866,1675 L2472,922" stroke="blue" stroke-width="2" />
<path d="M1271,1513 L6950,311" stroke="blue" stroke-width="2" />
<path d="M7258,2200 L2253,118" stroke="blue" stroke-width="2" />
<path d="M4828,397 L7158,2302" stroke="blue" stroke-width="2" />
<path d="M5822,1026 L1813,620" stroke="blue" stroke-width="2" />
<path d="M5142,1774 L7247,1421" stroke="blue" stroke-width="2" />
<path d="M7988,2078 L749,1393" stroke="blue" stroke-width="2" />
<path d="M2622,1675 L7776,2097" stroke="blue" stroke-width="2" />
<path d="M5715,691 L1257,1868" stroke="blue" stroke-width="2" />
<path d="M7373,157 L1138,478" stroke="blue" stroke-width="2" />
<path d="M6718,419 L9109,1471" stroke="blue" stroke-width="2" />
<path d="M6395,1763 L338,89" stroke="blue" stroke-width="2" />
<path d="M4728,1289 L1842,1955" stroke="blue" stroke-width="2" />
<path d="M2210,1409 L5604,488" stroke="blue" stroke-width="2" />
<path d="M8922,1948 L3483,2027" stroke="blue" stroke-width="2" />
<path d="M2403,754 L4657,2101" stroke="blue" stroke-width="2" />
<path d="M1430,2179 L5153,2257" stroke="blue" stroke-width="2" />
<path d="M5694,2375 L7596,598" stroke="blue" stroke-width="2" />
<path d="M8224,824 L468,549" stroke="blue" stroke-width="2" />
<path d="M282,2528 L4377,235" stroke="blue" stroke-width="2" />
<path d="M7140,2241 L4012,2004" stroke="blue" stroke-width="2" />
<path d="M2543,518 L1045,710" stroke="blue" stroke-width="2" />
<path d="M3942,74 L7031,999" stroke="blue" stroke-width="2" />
<path d="M6317,2039 L8367,1574" stroke="blue" stroke-width="2" />
<path d="M3754,156 L2624,116" stroke="blue" stroke-width="2" />
<path d="M4248,2547 L2107,1030" stroke="blue" stroke-width="2" />
<path d="M2668,2226 L8950,1748" stroke="blue" stroke-width="2" />
<path d="M355,116 L4889,418" stroke="blue" stroke-width="2" />
<path d="M7827,2543 L8871,1321" stroke="blue" stroke-width="2" />
<path d="M650,48 L6804,1099" stroke="blue" stroke-width="2" />
<path d="M8837,417 L7490,1486" stroke="blue" stroke-width="2" />
<path d="M874,741 L8520,1283" stroke="blue" stroke-width="2" />
<path d="M6855,356 L7531,53" stroke="blue" stroke-width="2" />
<path d="M9296,23 L1096,880" stroke="blue" stroke-width="2" />
<path d="M3808,740 L3995,2405" stroke="blue" stroke-width="2" />
<path d="M231,444 L2829,1778" stroke="blue" stroke-width="2" />
<path d="M1021,2231 L3019,2111" stroke="blue" stroke-width="2" />
<path d="M4415,1131 L8536,477" stroke="blue" stroke-width="2" />
<path d="M7920,522 L8067,1910" stroke="blue" stroke-width="2" />
<path d="M7038,1423 L7862,1706" stroke="blue" stroke-width="2" />
<path d="M2614,2125 L2375,1626" stroke="blue" stroke-width="2" />
<path d="M669,1420 L946,1931" stroke="blue" stroke-width="2" />
<path d="M3525,4 L1817,982" stroke="blue" stroke-width="2" />
<path d="M4704,2535 L3883,498" stroke="blue" stroke-width="2" />
<path d="M7722,2321 L4315,2412" stroke="blue" stroke-width="2" />
<path d="M7432,269 L7053,784" stroke="blue" stroke-width="2" />
<path d="M2038,11 L6515,1801" stroke="blue" stroke-width="2" />
<path d="M7383,219 L1178,1806" stroke="blue" stroke-width="2" />
<path d="M3755,1765 L3943,1765" stroke="blue" stroke-width="2" />
<path d="M7018,1540 L2746,125" stroke="blue" stroke-width="2" />
<path d="M6489,717 L888,1794" stroke="blue" stroke-width="2" />
<path d="M5329,1064 L5501,265" stroke="blue" stroke-width="2" />
<path d="M7685,1057 L2256,516" stroke="blue" stroke-width="2" />
<path d="M5580,1729 L9238,154" stroke="blue" stroke-width="2" />
<path d="M1155,1736 L9402,989" stroke="blue" stroke-width="2" />
<path d="M5496,742 L2845,1079" stroke="blue" stroke-width="2" />
<path d="M7785,1824 L5675,1344" stroke="blue" stroke-width="2" />
<path d="M5404,2137 L5294,2060" stroke="blue" stroke-width="2" />
<path d="M4711,1280 L4870,2225" stroke="blue" stroke-width="2" />
<path d="M6415,288 L1620,2179" stroke="blue" stroke-width="2" />
<path d="M7518,1312 L5605,1398" stroke="blue" stroke-width="2" />
<path d="M6767,1800 L8957,1874" stroke="blue" stroke-width="2" />
<path d="M4916,1126 L750,1710" stroke="blue" stroke-width="2" />
<path d="M6334,80 L7017,2120" stroke="blue" stroke-width="2" />
<path d="M733,655 L1848,2220" stroke="blue" stroke-width="2" />
<path d="M8557,1091 L6981,1307" stroke="blue" stroke-width="2" />
<path d="M7147,336 L7885,1418" stroke="blue" stroke-width="2" />
<path d="M3530,1963 L5428,1875" stroke="blue" stroke-width="2" />
<path d="M7252,2028 L4694,1925" stroke="blue" stroke-width="2" />
<path d="M7918,2554 L5729,1410" stroke="blue" stroke-width="2" />
<path d="M8648,1053 L7385,1233" stroke="blue" stroke-width="2" />
<path d="M4957,34 L7326,1140" stroke="blue" stroke-width="2" />
<path d="M9058,1928 L5583,1732" stroke="blue" stroke-width="2" />
<path d="M9067,736 L2249,906" stroke="blue" stroke-width="2" />
<path d="M326,2294 L261,1010" stroke="blue" stroke-width="2" />
<path d="M8301,2251 L4223,2221" stroke="blue" stroke-width="2" />
<path d="M3067,301 L45,2036" stroke="blue" stroke-width="2" />
<path d="M4266,2483 L5142,697" stroke="blue" stroke-width="2" />
<path d="M6462,1728 L1921,2442" stroke="blue" stroke-width="2" />
<path d="M7425,1492 L983,2233" stroke="blue" stroke-width="2" />
<path d="M6212,2400 L7790,1297" stroke="blue" stroke-width="2" />
<path d="M6662,1915 L4422,1778" stroke="blue" stroke-width="2" />
<path d="M3245,237 L8145,1415" stroke="blue" stroke-width="2" />
<path d="M5529,1726 L6625,2127" stroke="blue" stroke-width="2" />
<path d="M3164,1913 L6991,1120" stroke="blue" stroke-width="2" />
<path d="M8186,2273 L3456,2338" stroke="blue" stroke-width="2" />
<path d="M5726,800 L707,648" stroke="blue" stroke-width="2" />
<path d="M6183,1858 L8672,1929" stroke="blue" stroke-width="2" />
<path d="M5288,412 L1043,1150" stroke="blue" stroke-width="2" />
<path d="M6126,1245 L5131,2384" stroke="blue" stroke-width="2" />
<path d="M7645,751 L412,1747" stroke="blue" stroke-width="2" />
<path d="M6348,819 L8783,1517" stroke="blue" stroke-width="2" />
<path d="M6764,1 L2429,2345" stroke="blue" stroke-width="2" />
<path d="M4732,2386 L3916,1142" stroke="blue" stroke-width="2" />
<path d="M9059,272 L8171,1388" stroke="blue" stroke-width="2" />
<path d="M892,1145 L3732,1087" stroke="blue" stroke-width="2" />
<path d="M992,323 L2573,2264" stroke="blue" stroke-width="2" />
<path d="M5612,885 L9094,2268" stroke="blue" stroke-width="2" />
<path d="M7477,2505 L8440,932" stroke="blue" stroke-width="2" />
<path d="M2963,806 L9032,956" stroke="blue" stroke-width="2" />
<path d="M4976,2335 L7229,1422" stroke="blue" stroke-width="2" />
<path d="M4703,2110 L900,84" stroke="blue" stroke-width="2" />
<path d="M3837,1849 L9049,1175" stroke="blue" stroke-width="2" />
<path d="M1113,1311 L4531,693" stroke="blue" stroke-width="2" />
<path d="M405,683 L9368,1163" stroke="blue" stroke-width="2" />
<path d="M8527,601 L7014,1032" stroke="blue" stroke-width="2" />
<path d="M220,2477 L5615,35" stroke="blue" stroke-width="2" />
<path d="M8608,2364 L3412,2434" stroke="blue" stroke-width="2" />
<path d="M1667,1 L8198,1829" stroke="blue" stroke-width="2" />
<path d="M1362,1243 L8212,2508" stroke="blue" stroke-width="2" />
<path d="M4456,1578 L819,1861" stroke="blue" stroke-width="2" />
<path d="M3788,1636 L4929,1725" stroke="blue" stroke-width="2" />
<path d="M1001,1723 L654,827" stroke="blue" stroke-width="2" />
<path d="M5269,2554 L3509,2181" stroke="blue" stroke-width="2" />
<path d="M8596,2173 L5227,2110" stroke="blue" stroke-width="2" />
<path d="M8759,1960 L6203,1762" stroke="blue" stroke-width="2" />
<path d="M5732,2537 L4711,27" stroke="blue" stroke-width="2" />
<path d="M8786,1635 L4200,2065" stroke="blue" stroke-width="2" />
<path d="M6017,1581 L5092,1352" stroke="blue" stroke-width="2" />
<path d="M6141,1423 L3860,1607" stroke="blue" stroke-width="2" />
<path d="M1067,1779 L790,686" stroke="blue" stroke-width="2" />
<path d="M3588,1876 L3814,736" stroke="blue" stroke-width="2" />
<path d="M1278,1277 L5393,1282" stroke="blue" stroke-width="2" />
<path d="M2783,1214 L7440,2016" stroke="blue" stroke-width="2" />
<path d="M4412,2342 L3150,818" stroke="blue" stroke-width="2" />
<path d="M791,1408 L3169,378" stroke="blue" stroke-width="2" />
<path d="M1941,275 L6592,1171" stroke="blue" stroke-width="2" />
<path d="M8396,683 L4403,1778" stroke="blue" stroke-width="2" />
<path d="M8901,2147 L8904,685" stroke="blue" stroke-width="2" />
<path d="M2892,542 L7385,2261" stroke="blue" stroke-width="2" />
<path d="M423,894 L4953,1297" stroke="blue" stroke-width="2" />
<path d="M8979,77 L8892,1636" stroke="blue" stroke-width="2" />
<path d="M707,1698 L371,2415" stroke="blue" stroke-width="2" />
<path d="M3723,2436 L2068,447" stroke="blue" stroke-width="2" />
<path d="M1284,2292 L3120,1290" stroke="blue" stroke-width="2" />
<path d="M4347,2339 L9172,244" stroke="blue" stroke-width="2" />
<path d="M5291,575 L5652,156" stroke="blue" stroke-width="2" />
<path d="M9233,1049 L1793,338" stroke="blue" stroke-width="2" />
<path d="M8909,637 L9196,1244" stroke="blue" stroke-width="2" />
<path d="M1173,824 L5819,365" stroke="blue" stroke-width="2" />
<path d="M1011,1946 L2787,2544" stroke="blue" stroke-width="2" />
<path d="M2557,1798 L8227,2120" stroke="blue" stroke-width="2" />
<path d="M7387,1969 L5682,1328" stroke="blue" stroke-width="2" />
<path d="M604,1186 L7421,2393" stroke="blue" stroke-width="2" />
<path d="M8041,745 L6227,1958" stroke="blue" stroke-width="2" />
<path d="M1872,2101 L8787,1106" stroke="blue" stroke-width="2" />
<path d="M6879,1773 L5707,913" stroke="blue" stroke-width="2" />
<path d="M4495,257 L3812,263" stroke="blue" stroke-width="2" />
<path d="M5446,2303 L2026,167" stroke="blue" stroke-width="2" />
<path d="M6749,623 L1837,419" stroke="blue" stroke-width="2" />
<path d="M4081,1683 L8041,2303" stroke="blue" stroke-width="2" />
<path d="M0,0 L9410,0" stroke="red" stroke-width="10" />
<path d="M9410,0 L9410,2593" stroke="red" stroke-width="10" />
<path d="M0,2593 L9410,2593" stroke="red" stroke-width="10" />
<path d="M0,2593 L0,0" stroke="red" stroke-width="10" />
</svg>