<?xml version="1.0" encoding="UTF-8"?>
<svg xmlns="http://www.w3.org/2000/svg" xmlns:xlink="http://www.w3.org/1999/xlink"
     width="10000" height="10000" viewBox="0 0 10000 10000">
<defs>
</defs>
<path d="M5103,4369 L305,2818" stroke="blue" stroke-width="2" />
<path d="M3470,6349 L1339,6251" stroke="blue" stroke-width="2" />
<path d="M389,3044 L2866,4715" stroke="blue" stroke-width="2" />
<path d="M672,4213 L4284,88" stroke="blue" stroke-width="2" />
<path d="M4016,6483 L3257,2813" stroke="blue" stroke-width="2" />
<path d="M2173,4724 L4190,3928" stroke="blue" stroke-width="2" />
<path d="M5163,1150 L972,3957" stroke="blue" stroke-width="2" />
<path d="M3735,5104 L4510,67" stroke="blue" stroke-width="2" />
<path d="M1809,5974 L553,382" stroke="blue" stroke-width="2" />
<path d="M2403,6199 L2271,2616" stroke="blue" stroke-width="2" />
<path d="M3900,4243 L827,41" stroke="blue" stroke-width="2" />
<path d="M5466,1430 L3147,2965" stroke="blue" stroke-width="2" />
<path d="M3603,1481 L4863,3311" stroke="blue" stroke-width="2" />
<path d="M403,813 L3988,4959" stroke="blue" stroke-width="2" />
<path d="M3378,1910 L869,4484" stroke="blue" stroke-width="2" />
<path d="M2181,1240 L3936,5520" stroke="blue" stroke-width="2" />
<path d="M4600,2344 L23,315" stroke="blue" stroke-width="2" />
<path d="M27,816 L2170,4958" stroke="blue" stroke-width="2" />
<path d="M4075,2173 L4732,6601" stroke="blue" stroke-width="2" />
<path d="M15,2487 L4508,2849" stroke="blue" stroke-width="2" />
<path d="M4395,916 L1367,6746" stroke="blue" stroke-width="2" />
<path d="M1281,1218 L3875,2077" stroke="blue" stroke-width="2" />
<path d="M2929,4791 L3095,2896" stroke="blue" stroke-width="2" />
<path d="M2414,6556 L1644,5785" stroke="blue" stroke-width="2" />
<path d="M3401,662 L3952,3770" stroke="blue" stroke-width="2" />
<path d="M523,1744 L2558,4233" stroke="blue" stroke-width="2" />
<path d="M446,1788 L766,1012" stroke="blue" stroke-width="2" />
<path d="M32,1669 L575,4122" stroke="blue" stroke-width="2" />
<path d="M659,92 L1863,5119" stroke="blue" stroke-width="2" />
<path d="M4740,3326 L4300,3579" stroke="blue" stroke-width="2" />
<path d="M386,5410 L4804,6521" stroke="blue" stroke-width="2" />
<path d="M2612,1777 L1059,2436" stroke="blue" stroke-width="2" />
<path d="M4313,1193 L3127,5045" stroke="blue" stroke-width="2" />
<path d="M1351,5547 L5310,3525" stroke="blue" stroke-width="2" />
<path d="M2984,191 L1099,1800" stroke="blue" stroke-width="2" />
<path d="M205,5004 L478,118" stroke="blue" stroke-width="2" />
<path d="M2294,2304 L877,5730" stroke="blue" stroke-width="2" />
<path d="M1125,5296 L4936,6546" stroke="blue" stroke-width="2" />
<path d="M4699,6081 L3860,4202" stroke="blue" stroke-width="2" />
<path d="M3271,1194 L2640,3939" stroke="blue" stroke-width="2" />
<path d="M2068,4637 L471,4526" stroke="blue" stroke-width="2" />
<path d="M3967,3424 L3009,1594" stroke="blue" stroke-width="2" />
<path d="M2943,2004 L769,4955" stroke="blue" stroke-width="2" />
<path d="M1748,2134 L4168,2097" stroke="blue" stroke-width="2" />
<path d="M2428,3274 L1089,6863" stroke="blue" stroke-width="2" />
<path d="M4283,704 L425,6098" stroke="blue" stroke-width="2" />
<path d="M2909,2762 L3426,6384" stroke="blue" stroke-width="2" />
<path d="M2428,1562 L4481,1099" stroke="blue" stroke-width="2" />
<path d="M1837,5666 L2927,2222" stroke="blue" stroke-width="2" />
<path d="M2672,2035 L1387,2979" stroke="blue" stroke-width="2" />
<path d="M5372,2354 L2501,6709" stroke="blue" stroke-width="2" />
<path d="M4713,4631 L4501,1347" stroke="blue" stroke-width="2" />
<path d="M4500,1639 L4422,6576" stroke="blue" stroke-width="2" />
<path d="M5031,3310 L4980,5063" stroke="blue" stroke-width="2" />
<path d="M1062,6713 L5064,2245" stroke="blue" stroke-width="2" />
<path d="M2648,4046 L1425,2324" stroke="blue" stroke-width="2" />
<path d="M2361,3165 L2342,2262" stroke="blue" stroke-width="2" />
<path d="M5358,3372 L818,3321" stroke="blue" stroke-width="2" />
<path d="M3349,5123 L2374,4929" stroke="blue" stroke-width="2" />
<path d="M3566,4196 L3241,6572" stroke="blue" stroke-width="2" />
<path d="M2222,6086 L3283,1320" stroke="blue" stroke-width="2" />
<path d="M2491,5835 L1834,1766" stroke="blue" stroke-width="2" />
<path d="M4205,6325 L2861,6133" stroke="blue" stroke-width="2" />
<path d="M1339,4435 L4854,3615" stroke="blue" stroke-width="2" />
<path d="M4687,4453 L3293,3349" stroke="blue" stroke-width="2" />
<path d="M4597,2437 L5580,6456" stroke="blue" stroke-width="2" />
<path d="M2443,4919 L3461,2900" stroke="blue" stroke-width="2" />
<path d="M333,6709 L4238,4366" stroke="blue" stroke-width="2" />
<path d="M5485,2719 L2655,3560" stroke="blue" stroke-width="2" />
<path d="M2954,3077 L1786,6064" stroke="blue" stroke-width="2" />
<path d="M2116,5648 L4065,3896" stroke="blue" stroke-width="2" />
<path d="M940,3557 L713,1996" stroke="blue" stroke-width="2" />
<path d="M5071,6811 L2957,2908" stroke="blue" stroke-width="2" />
<path d="M1837,2406 L507,1313" stroke="blue" stroke-width="2" />
<path d="M866,774 L2499,519" stroke="blue" stroke-width="2" />
<path d="M1838,6792 L3979,6593" stroke="blue" stroke-width="2" />
<path d="M1330,3833 L5116,5939" stroke="blue" stroke-width="2" />
<path d="M5289,4418 L2256,1487" stroke="blue" stroke-width="2" />
<path d="M5236,966 L2869,159" stroke="blue" stroke-width="2" />
<path d="M2722,1433 L1275,3200" stroke="blue" stroke-width="2" />
<path d="M431,4234 L66,1606" stroke="blue" stroke-width="2" />
<path d="M1300,3277 L4252,3080" stroke="blue" stroke-width="2" />
<path d="M4795,1339 L3123,4158" stroke="blue" stroke-width="2" />
<path d="M3753,2976 L1191,6519" stroke="blue" stroke-width="2" />
<path d="M1079,229 L580,4825" stroke="blue" stroke-width="2" />
<path d="M2935,4946 L2446,2625" stroke="blue" stroke-width="2" />
<path d="M1277,4417 L4348,2243" stroke="blue" stroke-width="2" />
<path d="M661,3906 L4871,3496" stroke="blue" stroke-width="2" />
<path d="M5240,3914 L4168,4670" stroke="blue" stroke-width="2" />
<path d="M4817,6780 L1648,2409" stroke="blue" stroke-width="2" />
<path d="M5335,192 L4124,2835" stroke="blue" stroke-width="2" />
<path d="M5260,2517 L4551,5578" stroke="blue" stroke-width="2" />
<path d="M2170,1897 L5508,6468" stroke="blue" stroke-width="2" />
<path d="M3471,5816 L2106,990" stroke="blue" stroke-width="2" />
<path d="M1172,2213 L4661,1938" stroke="blue" stroke-width="2" />
<path d="M5434,4521 L3514,3819" stroke="blue" stroke-width="2" />
<path d="M3838,164 L2361,2155" stroke="blue" stroke-width="2" />
<path d="M2262,5931 L3995,963" stroke="blue" stroke-width="2" />
<path d="M2811,1438 L2652,3138" stroke="blue" stroke-width="2" />
<path d="M5030,29 L4005,5286" stroke="blue" stroke-width="2" />
<path d="M1807,3509 L2936,435" stroke="blue" stroke-width="2" />
<path d="M842,3728 L1298,4015" stroke="blue" stroke-width="2" />
<path d="M3879,3686 L5275,5970" stroke="blue" stroke-width="2" />
<path d="M440,5576 L391,1889" stroke="blue" stroke-width="2" />
<path d="M4091,3311 L1140,4049" stroke="blue" stroke-width="2" />
<path d="M720,2015 L933,397" stroke="blue" stroke-width="2" />
<path d="M1113,4056 L649,3787" stroke="blue" stroke-width="2" />
<path d="M4842,4661 L4609,5772" stroke="blue" stroke-width="2" />
<path d="M613,241 L1818,1112" stroke="blue" stroke-width="2" />
<path d="M4848,440 L83,905" stroke="blue" stroke-width="2" />
<path d="M4427,3461 L1933,478" stroke="blue" stroke-width="2" />
<path d="M4320,498 L3885,3159" stroke="blue" stroke-width="2" />
<path d="M3045,370 L1925,4193" stroke="blue" stroke-width="2" />
<path d="M3177,2961 L4821,5338" stroke="blue" stroke-width="2" />
<path d="M2313,186 L5558,289" stroke="blue" stroke-width="2" />
<path d="M1611,252 L5145,4345" stroke="blue" stroke-width="2" />
<path d="M4364,3787 L2516,4075" stroke="blue" stroke-width="2" />
<path d="M2235,6366 L554,309" stroke="blue" stroke-width="2" />
<path d="M726,4822 L3056,236" stroke="blue" stroke-width="2" />
<path d="M1370,5787 L5554,5363" stroke="blue" stroke-width="2" />
<path d="M1789,4166 L3106,6164" stroke="blue" stroke-width="2" />
<path d="M1182,119 L3701,1564" stroke="blue" stroke-width="2" />
<path d="M4645,2373 L2742,1294" stroke="blue" stroke-width="2" />
<path d="M1337,1848 L2182,5323" stroke="blue" stroke-width="2" />
<path d="M4536,3001 L1865,3407" stroke="blue" stroke-width="2" />
<path d="M525,5810 L1631,3764" stroke="blue" stroke-width="2" />
<path d="M5306,902 L1289,5503" stroke="blue" stroke-width="2" />
<path d="M3763,6162 L183,5589" stroke="blue" stroke-width="2" />
<path d="M1121,256 L196,1038" stroke="blue" stroke-width="2" />
<path d="M4192,2751 L2786,3502" stroke="blue" stroke-width="2" />
<path d="M3035,723 L3988,6389" stroke="blue" stroke-width="2" />
<path d="M4681,4937 L2154,6538" stroke="blue" stroke-width="2" />
<path d="M2851,537 L5318,5727" stroke="blue" stroke-width="2" />
<path d="M1036,4097 L2664,1713" stroke="blue" stroke-width="2" />
<path d="M2041,5438 L14,4295" stroke="blue" stroke-width="2" />
<path d="M2604,2407 L48,1692" stroke="blue" stroke-width="2" />
<path d="M1158,1999 L2687,1922" stroke="blue" stroke-width="2" />
<path d="M4918,3531 L3715,1335" stroke="blue" stroke-width="2" />
<path d="M2429,5937 L5008,2314" stroke="blue" stroke-width="2" />
<path d="M3893,3210 L2599,1287" stroke="blue" stroke-width="2" />
<path d="M3439,359 L1729,1068" stroke="blue" stroke-width="2" />
<path d="M2435,3844 L808,6381" stroke="blue" stroke-width="2" />
<path d="M4867,6545 L2561,3823" stroke="blue" stroke-width="2" />
<path d="M2553,1776 L810,1335" stroke="blue" stroke-width="2" />
<path d="M5446,134 L1099,2528" stroke="blue" stroke-width="2" />
<path d="M483,5349 L1613,5670" stroke="blue" stroke-width="2" />
<path d="M3765,3405 L4427,2120" stroke="blue" stroke-width="2" />
<path d="M1429,4130 L2679,2591" stroke="blue" stroke-width="2" />
<path d="M1932,6020 L1750,5595" stroke="blue" stroke-width="2" />
<path d="M1138,4707 L4883,1643" stroke="blue" stroke-width="2" />
<path d="M4408,6482 L5585,3847" stroke="blue" stroke-width="2" />
<path d="M5497,5526 L2853,6327" stroke="blue" stroke-width="2" />
<path d="M4008,4800 L1220,6526" stroke="blue" stroke-width="2" />
<path d="M3528,6001 L5301,150" stroke="blue" stroke-width="2" />
<path d="M3780,830 L915,6544" stroke="blue" stroke-width="2" />
<path d="M1802,3486 L1820,3010" stroke="blue" stroke-width="2" />
<path d="M4800,3890 L4195,4337" stroke="blue" stroke-width="2" />
<path d="M76,859 L1511,5160" stroke="blue" stroke-width="2" />
<path d="M2453,6468 L4653,3166" stroke="blue" stroke-width="2" />
<path d="M5501,5631 L2978,1149" stroke="blue" stroke-width="2" />
<path d="M5297,2225 L1059,4917" stroke="blue" stroke-width="2" />
<path d="M2389,4254 L74,1698" stroke="blue" stroke-width="2" />
<path d="M1823,2465 L4060,6128" stroke="blue" stroke-width="2" />
<path d="M2406,4764 L222,1440" stroke="blue" stroke-width="2" />
<path d="M1294,90 L5232,2039" stroke="blue" stroke-width="2" />
<path d="M3768,6384 L5119,118" stroke="blue" stroke-width="2" />
<path d="M5426,662 L1185,3797" stroke="blue" stroke-width="2" />
<path d="M868,516 L3661,4943" stroke="blue" stroke-width="2" />
<path d="M352,4215 L5456,6170" stroke="blue" stroke-width="2" />
<path d="M5053,2560 L2081,6231" stroke="blue" stroke-width="2" />
<path d="M1899,3944 L1668,3187" stroke="blue" stroke-width="2" />
<path d="M474,1616 L4596,931" stroke="blue" stroke-width="2" />
<path d="M739,765 L4547,2874" stroke="blue" stroke-width="2" />
<path d="M4100,6309 L4510,5262" stroke="blue" stroke-width="2" />
<path d="M3878,55 L4592,1065" stroke="blue" stroke-width="2" />
<path d="M3256,5140 L4129,5309" stroke="blue" stroke-width="2" />
<path d="M3720,2678 L4063,5724" stroke="blue" stroke-width="2" />
<path d="M2460,3085 L3340,2504" stroke="blue" stroke-width="2" />
<path d="M1447,6408 L3843,4334" stroke="blue" stroke-width="2" />
<path d="M1864,2027 L4512,2956" stroke="blue" stroke-width="2" />
<path d="M2165,2413 L5545,2458" stroke="blue" stroke-width="2" />
<path d="M2308,6129 L1664,5285" stroke="blue" stroke-width="2" />
<path d="M4833,6341 L4506,5329" stroke="blue" stroke-width="2" />
<path d="M4080,3374 L1114,6825" stroke="blue" stroke-width="2" />
<path d="M4851,2867 L5181,2402" stroke="blue" stroke-width="2" />
<path d="M904,6093 L3205,4079" stroke="blue" stroke-width="2" />
<path d="M2864,6074 L1918,3006" stroke="blue" stroke-width="2" />
<path d="M4516,4745 L2713,6089" stroke="blue" stroke-width="2" />
<path d="M1273,4721 L758,6410" stroke="blue" stroke-width="2" />
<path d="M602,1822 L1261,1971" stroke="blue" stroke-width="2" />
<path d="M4422,1465 L1060,2855" stroke="blue" stroke-width="2" />
<path d="M182,2151 L1265,747" stroke="blue" stroke-width="2" />
<path d="M3761,4955 L4842,4681" stroke="blue" stroke-width="2" />
<path d="M1636,4152 L1157,6252" stroke="blue" stroke-width="2" />
<path d="M2693,3072 L333,5597" stroke="blue" stroke-width="2" />
<path d="M5357,1171 L4417,4952" stroke="blue" stroke-width="2" />
<path d="M427,5880 L4728,1164" stroke="blue" stroke-width="2" />
<path d="M1462,4941 L1148,4205" stroke="blue" stroke-width="2" />
<path d="M4936,5709 L4108,891" stroke="blue" stroke-width="2" />
<path d="M4853,1733 L2432,1920" stroke="blue" stroke-width="2" />
<path d="M2477,6705 L1528,649" stroke="blue" stroke-width="2" />
<path d="M4034,6085 L2475,2847" stroke="blue" stroke-width="2" />
<path d="M3011,5606 L5085,5076" stroke="blue" stroke-width="2" />
<path d="M4607,4707 L2383,1371" stroke="blue" stroke-width="2" />
<path d="M2636,6206 L687,77" stroke="blue" stroke-width="2" />
<path d="M3787,5514 L5526,5403" stroke="blue" stroke-width="2" />
<path d="M2750,5072 L4595,2974" stroke="blue" stroke-width="2" />
<path d="M4709,1889 L1427,3689" stroke="blue" stroke-width="2" />
<path d="M2911,5077 L1795,2800" stroke="blue" stroke-width="2" />
<path d="M382,5658 L4999,6366" stroke="blue" stroke-width="2" />
<path d="M2279,4531 L2113,717" stroke="blue" stroke-width="2" />
<path d="M2736,1153 L44,1580" stroke="blue" stroke-width="2" />
<path d="M3247,4457 L54,908" stroke="blue" stroke-width="2" />
<path d="M4568,1298 L3476,4843" stroke="blue" stroke-width="2" />
<path d="M987,4032 L2330,2740" stroke="blue" stroke-width="2" />
<path d="M4326,2792 L348,2959" stroke="blue" stroke-width="2" />
<path d="M1370,5442 L899,5341" stroke="blue" stroke-width="2" />
<path d="M2946,793 L2935,2293" stroke="blue" stroke-width="2" />
<path d="M4163,6698 L2077,1494" stroke="blue" stroke-width="2" />
<path d="M2017,5836 L4127,2001" stroke="blue" stroke-width="2" />
<path d="M2468,5624 L110,6463" stroke="blue" stroke-width="2" />
<path d="M5067,5941 L2083,5823" stroke="blue" stroke-width="2" />
<path d="M2090,1964 L2999,1348" stroke="blue" stroke-width="2" />
<path d="M497,1313 L1705,4260" stroke="blue" stroke-width="2" />
<path d="M2904,1704 L5109,4583" stroke="blue" stroke-width="2" />
<path d="M3617,996 L2430,4318" stroke="blue" stroke-width="2" />
<path d="M1752,975 L3903,4335" stroke="blue" stroke-width="2" />
<path d="M5246,2276 L646,2863" stroke="blue" stroke-width="2" />
<path d="M2436,6583 L1033,1388" stroke="blue" stroke-width="2" />
<path d="M9,1566 L2083,3840" stroke="blue" stroke-width="2" />
<path d="M1629,1404 L1143,3723" stroke="blue" stroke-width="2" />
<path d="M3327,3748 L1061,874" stroke="blue" stroke-width="2" />
<path d="M3990,4024 L1506,1047" stroke="blue" stroke-width="2" />
<path d="M3457,2965 L1205,119" stroke="blue" stroke-width="2" />
<path d="M2611,663 L752,4134" stroke="blue" stroke-width="2" />
<path d="M4166,6704 L3398,2694" stroke="blue" stroke-width="2" />
<path d="M3063,6520 L4466,2" stroke="blue" stroke-width="2" />
<path d="M3713,5746 L5581,964" stroke="blue" stroke-width="2" />
<path d="M3523,4871 L2523,3781" stroke="blue" stroke-width="2" />
<path d="M3019,4419 L2686,2957" stroke="blue" stroke-width="2" />
<path d="M5558,3499 L4547,5917" stroke="blue" stroke-width="2" />
<path d="M5149,2154 L1573,2378" stroke="blue" stroke-width="2" />
<path d="M1596,6263 L2910,2493" stroke="blue" stroke-width="2" />
<path d="M2449,1748 L2122,944" stroke="blue" stroke-width="2" />
<path d="M3834,5742 L4672,6521" stroke="blue" stroke-width="2" />
<path d="M4357,4025 L1185,3539" stroke="blue" stroke-width="2" />
<path d="M5471,2389 L3754,4700" stroke="blue" stroke-width="2" />
<path d="M1386,3419 L926,1620" stroke="blue" stroke-width="2" />
<path d="M3024,4405 L4225,2236" stroke="blue" stroke-width="2" />
<path d="M3104,5256 L1204,758" stroke="blue" stroke-width="2" />
<path d="M3180,1599 L5498,5057" stroke="blue" stroke-width="2" />
<path d="M3699,6626 L1383,3760" stroke="blue" stroke-width="2" />
<path d="M62,5704 L411,3214" stroke="blue" stroke-width="2" />
<path d="M1061,178 L420,2543" stroke="blue" stroke-width="2" />
<path d="M2413,1138 L3740,1233" stroke="blue" stroke-width="2" />
<path d="M1789,4727 L1169,492" stroke="blue" stroke-width="2" />
<path d="M3069,6617 L2999,3262" stroke="blue" stroke-width="2" />
<path d="M691,4188 L4752,3878" stroke="blue" stroke-width="2" />
<path d="M1441,4951 L2817,4852" stroke="blue" stroke-width="2" />
<path d="M3277,2515 L41,5220" stroke="blue" stroke-width="2" />
<path d="M3736,776 L3334,1845" stroke="blue" stroke-width="2" />
<path d="M2005,6588 L4551,1241" stroke="blue" stroke-width="2" />
<path d="M4246,2726 L1212,3879" stroke="blue" stroke-width="2" />
<path d="M1612,3846 L5240,2342" stroke="blue" stroke-width="2" />
<path d="M3456,6344 L2618,4187" stroke="blue" stroke-width="2" />
<path d="M613,430 L1564,3826" stroke="blue" stroke-width="2" />
<path d="M1981,4139 L1598,2924" stroke="blue" stroke-width="2" />
<path d="M2771,3902 L5555,2906" stroke="blue" stroke-width="2" />
<path d="M2802,353 L3177,362" stroke="blue" stroke-width="2" />
<path d="M4229,1512 L3996,1950" stroke="blue" stroke-width="2" />
<path d="M1540,6311 L4551,6864" stroke="blue" stroke-width="2" />
<path d="M5346,695 L4564,146" stroke="blue" stroke-width="2" />
<path d="M1426,3087 L2363,2894" stroke="blue" stroke-width="2" />
<path d="M5483,513 L4591,4662" stroke="blue" stroke-width="2" />
<path d="M4852,3141 L322,1496" stroke="blue" stroke-width="2" />
<path d="M3614,2540 L788,6142" stroke="blue" stroke-width="2" />
<path d="M3605,6260 L3859,271" stroke="blue" stroke-width="2" />
<path d="M2268,1550 L5474,6322" stroke="blue" stroke-width="2" />
<path d="M5570,4884 L1256,6061" stroke="blue" stroke-width="2" />
<path d="M3578,4266 L658,4779" stroke="blue" stroke-width="2" />
<path d="M4638,4554 L1258,1244" stroke="blue" stroke-width="2" />
<path d="M253,1755 L2396,5766" stroke="blue" stroke-width="2" />
<path d="M3673,3771 L1003,5528" stroke="blue" stroke-width="2" />
<path d="M3153,4595 L1876,823" stroke="blue" stroke-width="2" />
<path d="M2060,3580 L3438,5916" stroke="blue" stroke-width="2" />
<path d="M3792,5069 L3766,6533" stroke="blue" stroke-width="2" />
<path d="M2170,4417 L1631,6816" stroke="blue" stroke-width="2" />
<path d="M945,1778 L816,1623" stroke="blue" stroke-width="2" />
<path d="M1321,3384 L3877,4013" stroke="blue" stroke-width="2" />
<path d="M2971,2095 L1114,3856" stroke="blue" stroke-width="2" />
<path d="M5202,3426 L3215,5582" stroke="blue" stroke-width="2" />
<path d="M3831,6881 L2221,5947" stroke="blue" stroke-width="2" />
<path d="M2197,489 L1097,2774" stroke="blue" stroke-width="2" />
<path d="M5093,6721 L4634,3421" stroke="blue" stroke-width="2" />
<path d="M4726,2345 L1569,6339" stroke="blue" stroke-width="2" />
<path d="M1143,3972 L4118,3119" stroke="blue" stroke-width="2" />
<path d="M1250,4671 L854,1971" stroke="blue" stroke-width="2" />
<path d="M3523,1541 L3671,1316" stroke="blue" stroke-width="2" />
<path d="M2694,6048 L4498,5584" stroke="blue" stroke-width="2" />
<path d="M4876,4977 L4938,6395" stroke="blue" stroke-width="2" />
<path d="M1870,5576 L3642,3909" stroke="blue" stroke-width="2" />
<path d="M5189,4110 L1838,5044" stroke="blue" stroke-width="2" />
<path d="M565,3781 L1205,6164" stroke="blue" stroke-width="2" />
<path d="M4086,4721 L2827,2249" stroke="blue" stroke-width="2" />
<path d="M4260,6095 L5326,3767" stroke="blue" stroke-width="2" />
<path d="M4947,299 L3512,484" stroke="blue" stroke-width="2" />
<path d="M4249,2136 L4926,3988" stroke="blue" stroke-width="2" />
<path d="M3412,990 L331,1181" stroke="blue" stroke-width="2" />
<path d="M2171,3694 L3051,6107" stroke="blue" stroke-width="2" />
<path d="M2434,1613 L3606,1365" stroke="blue" stroke-width="2" />
<path d="M2037,5004 L256,892" stroke="blue" stroke-width="2" />
<path d="M2092,6286 L4056,6067" stroke="blue" stroke-width="2" />
<path d="M0,0 L5598,0" stroke="red" stroke-width="10" />
<path d="M5598,0 L5598,6886" stroke="red" stroke-width="10" />
<path d="M0,6886 L5598,6886" stroke="red" stroke-width="10" />
<path d="M0,6886 L0,0" stroke="red" stroke-width="10" />
</svg>