<?xml version="1.0" encoding="UTF-8"?>
<svg xmlns="http://www.w3.org/2000/svg" xmlns:xlink="http://www.w3.org/1999/xlink"
     width="10000" height="10000" viewBox="0 0 10000 10000">
<defs>
</defs>
<path d="M920,849 L837,545" stroke="blue" stroke-width="2" />
<path d="M632,121 L1119,93" stroke="blue" stroke-width="2" />
<path d="M245,1292 L691,2045" stroke="blue" stroke-width="2" />
<path d="M1472,2069 L1437,753" stroke="blue" stroke-width="2" />
<path d="M1365,8 L864,1082" stroke="blue" stroke-width="2" />
<path d="M1192,783 L353,1999" stroke="blue" stroke-width="2" />
<path d="M695,1157 L706,133" stroke="blue" stroke-width="2" />
<path d="M251,990 L741,7" stroke="blue" stroke-width="2" />
<path d="M159,1166 L874,690" stroke="blue" stroke-width="2" />
<path d="M779,851 L298,1707" stroke="blue" stroke-width="2" />
<path d="M1192,2070 L533,1247" stroke="blue" stroke-width="2" />
<path d="M1029,255 L318,594" stroke="blue" stroke-width="2" />
<path d="M515,1682 L574,743" stroke="blue" stroke-width="2" />
<path d="M541,1573 L836,1344" stroke="blue" stroke-width="2" />
<path d="M424,1036 L510,338" stroke="blue" stroke-width="2" />
<path d="M136,739 L701,1027" stroke="blue" stroke-width="2" />
<path d="M282,1058 L1582,5" stroke="blue" stroke-width="2" />
<path d="M904,99 L620,310" stroke="blue" stroke-width="2" />
<path d="M1215,1355 L1291,608" stroke="blue" stroke-width="2" />
<path d="M471,1551 L530,1135" stroke="blue" stroke-width="2" />
<path d="M357,1064 L658,1993" stroke="blue" stroke-width="2" />
<path d="M488,32 L793,1148" stroke="blue" stroke-width="2" />
<path d="M1611,2176 L1358,118" stroke="blue" stroke-width="2" />
<path d="M19,1342 L1137,539" stroke="blue" stroke-width="2" />
<path d="M586,1623 L913,1846" stroke="blue" stroke-width="2" />
<path d="M740,342 L902,644" stroke="blue" stroke-width="2" />
<path d="M1378,425 L1662,1297" stroke="blue" stroke-width="2" />
<path d="M515,1865 L141,2174" stroke="blue" stroke-width="2" />
<path d="M617,2048 L1315,1578" stroke="blue" stroke-width="2" />
<path d="M890,1304 L1036,1648" stroke="blue" stroke-width="2" />
<path d="M1359,696 L1539,493" stroke="blue" stroke-width="2" />
<path d="M1401,1881 L1307,204" stroke="blue" stroke-width="2" />
<path d="M211,1831 L1151,951" stroke="blue" stroke-width="2" />
<path d="M295,1543 L1355,1699" stroke="blue" stroke-width="2" />
<path d="M1487,1845 L1040,570" stroke="blue" stroke-width="2" />
<path d="M628,297 L1469,1849" stroke="blue" stroke-width="2" />
<path d="M1371,152 L166,1658" stroke="blue" stroke-width="2" />
<path d="M906,1988 L433,2028" stroke="blue" stroke-width="2" />
<path d="M29,1455 L37,1008" stroke="blue" stroke-width="2" />
<path d="M1535,1561 L683,694" stroke="blue" stroke-width="2" />
<path d="M1011,2052 L1675,1058" stroke="blue" stroke-width="2" />
<path d="M1049,1453 L1690,1344" stroke="blue" stroke-width="2" />
<path d="M294,35 L1240,361" stroke="blue" stroke-width="2" />
<path d="M1349,1362 L52,1634" stroke="blue" stroke-width="2" />
<path d="M1187,1918 L463,1612" stroke="blue" stroke-width="2" />
<path d="M1470,947 L286,896" stroke="blue" stroke-width="2" />
<path d="M1099,1483 L1294,1366" stroke="blue" stroke-width="2" />
<path d="M676,2095 L168,906" stroke="blue" stroke-width="2" />
<path d="M762,1615 L1415,792" stroke="blue" stroke-width="2" />
<path d="M278,1034 L136,1822" stroke="blue" stroke-width="2" />
<path d="M93,1188 L1252,1447" stroke="blue" stroke-width="2" />
<path d="M1143,2040 L1526,861" stroke="blue" stroke-width="2" />
<path d="M597,1622 L1476,1266" stroke="blue" stroke-width="2" />
<path d="M271,272 L1084,284" stroke="blue" stroke-width="2" />
<path d="M507,2059 L687,1788" stroke="blue" stroke-width="2" />
<path d="M1105,530 L3,537" stroke="blue" stroke-width="2" />
<path d="M1583,962 L204,1871" stroke="blue" stroke-width="2" />
<path d="M163,1909 L1324,1693" stroke="blue" stroke-width="2" />
<path d="M1716,2133 L959,1316" stroke="blue" stroke-width="2" />
<path d="M740,658 L162,718" stroke="blue" stroke-width="2" />
<path d="M1248,742 L136,1156" stroke="blue" stroke-width="2" />
<path d="M1699,278 L569,2160" stroke="blue" stroke-width="2" />
<path d="M658,341 L1694,1712" stroke="blue" stroke-width="2" />
<path d="M461,1956 L1586,1329" stroke="blue" stroke-width="2" />
<path d="M1141,126 L1345,1508" stroke="blue" stroke-width="2" />
<path d="M30,1211 L753,1248" stroke="blue" stroke-width="2" />
<path d="M655,525 L1162,668" stroke="blue" stroke-width="2" />
<path d="M238,1897 L1229,244" stroke="blue" stroke-width="2" />
<path d="M1116,1336 L1396,1695" stroke="blue" stroke-width="2" />
<path d="M1553,1120 L62,1480" stroke="blue" stroke-width="2" />
<path d="M1140,1976 L1226,1563" stroke="blue" stroke-width="2" />
<path d="M1166,1598 L1248,340" stroke="blue" stroke-width="2" />
<path d="M1566,2063 L522,1892" stroke="blue" stroke-width="2" />
<path d="M331,157 L891,1386" stroke="blue" stroke-width="2" />
<path d="M248,2109 L1487,1587" stroke="blue" stroke-width="2" />
<path d="M1067,2152 L191,1772" stroke="blue" stroke-width="2" />
<path d="M698,350 L772,350" stroke="blue" stroke-width="2" />
<path d="M291,1402 L631,1128" stroke="blue" stroke-width="2" />
<path d="M570,1710 L1726,1989" stroke="blue" stroke-width="2" />
<path d="M1338,586 L851,1950" stroke="blue" stroke-width="2" />
<path d="M811,779 L242,1677" stroke="blue" stroke-width="2" />
<path d="M708,1332 L1626,901" stroke="blue" stroke-width="2" />
<path d="M1715,249 L1225,266" stroke="blue" stroke-width="2" />
<path d="M593,935 L1002,1475" stroke="blue" stroke-width="2" />
<path d="M87,146 L1083,2152" stroke="blue" stroke-width="2" />
<path d="M587,1718 L641,2106" stroke="blue" stroke-width="2" />
<path d="M68,653 L701,997" stroke="blue" stroke-width="2" />
<path d="M1526,46 L1265,1593" stroke="blue" stroke-width="2" />
<path d="M317,1960 L401,51" stroke="blue" stroke-width="2" />
<path d="M664,260 L1065,756" stroke="blue" stroke-width="2" />
<path d="M731,595 L751,671" stroke="blue" stroke-width="2" />
<path d="M1272,2082 L1007,175" stroke="blue" stroke-width="2" />
<path d="M585,1119 L1545,738" stroke="blue" stroke-width="2" />
<path d="M676,2015 L1133,56" stroke="blue" stroke-width="2" />
<path d="M1310,2062 L1140,823" stroke="blue" stroke-width="2" />
<path d="M1340,570 L668,1048" stroke="blue" stroke-width="2" />
<path d="M21,1393 L1659,0" stroke="blue" stroke-width="2" />
<path d="M58,1752 L1431,51" stroke="blue" stroke-width="2" />
<path d="M1194,1815 L1050,86" stroke="blue" stroke-width="2" />
<path d="M698,1668 L32,1542" stroke="blue" stroke-width="2" />
<path d="M1210,1835 L1148,584" stroke="blue" stroke-width="2" />
<path d="M1180,559 L91,1230" stroke="blue" stroke-width="2" />
<path d="M1153,64 L894,763" stroke="blue" stroke-width="2" />
<path d="M0,0 L1737,0" stroke="red" stroke-width="10" />
<path d="M1737,0 L1737,2182" stroke="red" stroke-width="10" />
<path d="M0,2182 L1737,2182" stroke="red" stroke-width="10" />
<path d="M0,2182 L0,0" stroke="red" stroke-width="10" />
</svg>