<?xml version="1.0" encoding="UTF-8"?>
<svg xmlns="http://www.w3.org/2000/svg" xmlns:xlink="http://www.w3.org/1999/xlink"
     width="10000" height="10000" viewBox="0 0 10000 10000">
<defs>
</defs>
<path d="M888,487 L2527,599" stroke="blue" stroke-width="2" />
<path d="M534,515 L1894,1618" stroke="blue" stroke-width="2" />
<path d="M1078,378 L2289,1447" stroke="blue" stroke-width="2" />
<path d="M389,299 L2084,226" stroke="blue" stroke-width="2" />
<path d="M217,1645 L589,990" stroke="blue" stroke-width="2" />
<path d="M1605,257 L2458,832" stroke="blue" stroke-width="2" />
<path d="M3007,264 L201,1481" stroke="blue" stroke-width="2" />
<path d="M855,568 L2964,1305" stroke="blue" stroke-width="2" />
<path d="M2416,218 L284,1124" stroke="blue" stroke-width="2" />
<path d="M2091,1670 L3027,459" stroke="blue" stroke-width="2" />
<path d="M2385,423 L3152,397" stroke="blue" stroke-width="2" />
<path d="M576,1250 L3059,1244" stroke="blue" stroke-width="2" />
<path d="M3055,1229 L1696,404" stroke="blue" stroke-width="2" />
<path d="M2526,861 L787,1308" stroke="blue" stroke-width="2" />
<path d="M987,455 L2165,1102" stroke="blue" stroke-width="2" />
<path d="M2819,763 L3205,1100" stroke="blue" stroke-width="2" />
<path d="M2967,339 L1294,1410" stroke="blue" stroke-width="2" />
<path d="M3311,487 L1607,1445" stroke="blue" stroke-width="2" />
<path d="M1312,1627 L2840,481" stroke="blue" stroke-width="2" />
<path d="M2932,1547 L2322,30" stroke="blue" stroke-width="2" />
<path d="M1550,1636 L2763,837" stroke="blue" stroke-width="2" />
<path d="M128,257 L375,148" stroke="blue" stroke-width="2" />
<path d="M2999,329 L2592,267" stroke="blue" stroke-width="2" />
<path d="M203,1181 L1290,1202" stroke="blue" stroke-width="2" />
<path d="M1891,1244 L2875,1191" stroke="blue" stroke-width="2" />
<path d="M1821,1668 L929,651" stroke="blue" stroke-width="2" />
<path d="M3262,37 L2866,418" stroke="blue" stroke-width="2" />
<path d="M3273,166 L1995,714" stroke="blue" stroke-width="2" />
<path d="M1581,745 L58,1539" stroke="blue" stroke-width="2" />
<path d="M2318,274 L2432,293" stroke="blue" stroke-width="2" />
<path d="M3310,1215 L739,1207" stroke="blue" stroke-width="2" />
<path d="M964,492 L608,1480" stroke="blue" stroke-width="2" />
<path d="M2962,1031 L913,1274" stroke="blue" stroke-width="2" />
<path d="M2454,975 L528,362" stroke="blue" stroke-width="2" />
<path d="M3106,431 L1755,1086" stroke="blue" stroke-width="2" />
<path d="M856,1158 L3163,1313" stroke="blue" stroke-width="2" />
<path d="M2741,1227 L1598,315" stroke="blue" stroke-width="2" />
<path d="M2864,1008 L16,316" stroke="blue" stroke-width="2" />
<path d="M533,546 L1475,179" stroke="blue" stroke-width="2" />
<path d="M2673,873 L829,1584" stroke="blue" stroke-width="2" />
<path d="M2509,160 L1917,283" stroke="blue" stroke-width="2" />
<path d="M491,39 L1110,1309" stroke="blue" stroke-width="2" />
<path d="M235,780 L816,564" stroke="blue" stroke-width="2" />
<path d="M1025,207 L656,656" stroke="blue" stroke-width="2" />
<path d="M1346,155 L2868,1398" stroke="blue" stroke-width="2" />
<path d="M341,161 L3266,959" stroke="blue" stroke-width="2" />
<path d="M2212,1686 L1825,677" stroke="blue" stroke-width="2" />
<path d="M821,1623 L3182,739" stroke="blue" stroke-width="2" />
<path d="M1143,1065 L1342,37" stroke="blue" stroke-width="2" />
<path d="M690,1396 L2880,89" stroke="blue" stroke-width="2" />
<path d="M2967,293 L144,1307" stroke="blue" stroke-width="2" />
<path d="M815,518 L1860,357" stroke="blue" stroke-width="2" />
<path d="M2523,1181 L2129,936" stroke="blue" stroke-width="2" />
<path d="M2180,279 L1045,827" stroke="blue" stroke-width="2" />
<path d="M1179,286 L1126,654" stroke="blue" stroke-width="2" />
<path d="M1636,848 L587,1661" stroke="blue" stroke-width="2" />
<path d="M2844,1632 L1399,1273" stroke="blue" stroke-width="2" />
<path d="M1541,1141 L873,1495" stroke="blue" stroke-width="2" />
<path d="M1263,1346 L1981,1084" stroke="blue" stroke-width="2" />
<path d="M1308,94 L2757,1196" stroke="blue" stroke-width="2" />
<path d="M2336,1439 L1096,271" stroke="blue" stroke-width="2" />
<path d="M893,1512 L881,397" stroke="blue" stroke-width="2" />
<path d="M131,1688 L2369,957" stroke="blue" stroke-width="2" />
<path d="M2690,1390 L2184,675" stroke="blue" stroke-width="2" />
<path d="M773,1650 L259,1651" stroke="blue" stroke-width="2" />
<path d="M1820,92 L2643,902" stroke="blue" stroke-width="2" />
<path d="M3210,1111 L851,1520" stroke="blue" stroke-width="2" />
<path d="M1767,1204 L697,1582" stroke="blue" stroke-width="2" />
<path d="M2970,871 L24,1074" stroke="blue" stroke-width="2" />
<path d="M3086,179 L1617,1077" stroke="blue" stroke-width="2" />
<path d="M509,1644 L2540,1578" stroke="blue" stroke-width="2" />
<path d="M2422,331 L2177,1528" stroke="blue" stroke-width="2" />
<path d="M3162,133 L60,20" stroke="blue" stroke-width="2" />
<path d="M503,397 L123,1187" stroke="blue" stroke-width="2" />
<path d="M3188,1373 L1847,100" stroke="blue" stroke-width="2" />
<path d="M1343,509 L1349,1577" stroke="blue" stroke-width="2" />
<path d="M1144,10 L2905,248" stroke="blue" stroke-width="2" />
<path d="M2258,849 L1701,1337" stroke="blue" stroke-width="2" />
<path d="M440,1567 L2132,443" stroke="blue" stroke-width="2" />
<path d="M2890,144 L281,320" stroke="blue" stroke-width="2" />
<path d="M3049,1495 L437,1649" stroke="blue" stroke-width="2" />
<path d="M879,1100 L1708,1110" stroke="blue" stroke-width="2" />
<path d="M2688,983 L1805,876" stroke="blue" stroke-width="2" />
<path d="M2526,1684 L2112,329" stroke="blue" stroke-width="2" />
<path d="M2232,1342 L2830,1275" stroke="blue" stroke-width="2" />
<path d="M1857,1093 L804,326" stroke="blue" stroke-width="2" />
<path d="M1514,1710 L3027,234" stroke="blue" stroke-width="2" />
<path d="M2781,136 L213,400" stroke="blue" stroke-width="2" />
<path d="M1169,933 L89,509" stroke="blue" stroke-width="2" />
<path d="M374,287 L2792,609" stroke="blue" stroke-width="2" />
<path d="M2447,1626 L3085,1396" stroke="blue" stroke-width="2" />
<path d="M148,126 L526,1207" stroke="blue" stroke-width="2" />
<path d="M1087,1146 L175,139" stroke="blue" stroke-width="2" />
<path d="M274,1547 L3022,1184" stroke="blue" stroke-width="2" />
<path d="M3147,978 L2195,1003" stroke="blue" stroke-width="2" />
<path d="M3079,540 L709,585" stroke="blue" stroke-width="2" />
<path d="M814,611 L3139,194" stroke="blue" stroke-width="2" />
<path d="M2556,613 L2919,125" stroke="blue" stroke-width="2" />
<path d="M2819,1002 L138,1489" stroke="blue" stroke-width="2" />
<path d="M1788,552 L1309,1442" stroke="blue" stroke-width="2" />
<path d="M1687,631 L232,565" stroke="blue" stroke-width="2" />
<path d="M576,1631 L560,804" stroke="blue" stroke-width="2" />
<path d="M3217,542 L467,515" stroke="blue" stroke-width="2" />
<path d="M823,452 L1998,1278" stroke="blue" stroke-width="2" />
<path d="M1647,1321 L3201,1056" stroke="blue" stroke-width="2" />
<path d="M591,450 L1717,39" stroke="blue" stroke-width="2" />
<path d="M1686,409 L263,1310" stroke="blue" stroke-width="2" />
<path d="M76,1397 L2102,580" stroke="blue" stroke-width="2" />
<path d="M3321,15 L2342,964" stroke="blue" stroke-width="2" />
<path d="M1105,81 L1926,853" stroke="blue" stroke-width="2" />
<path d="M2448,1085 L3208,213" stroke="blue" stroke-width="2" />
<path d="M3205,1578 L3330,363" stroke="blue" stroke-width="2" />
<path d="M1311,1684 L2244,1561" stroke="blue" stroke-width="2" />
<path d="M3313,1433 L2988,1364" stroke="blue" stroke-width="2" />
<path d="M2868,54 L2582,478" stroke="blue" stroke-width="2" />
<path d="M2202,1698 L2201,367" stroke="blue" stroke-width="2" />
<path d="M178,1557 L3321,1701" stroke="blue" stroke-width="2" />
<path d="M1667,1617 L1581,1128" stroke="blue" stroke-width="2" />
<path d="M1672,882 L577,278" stroke="blue" stroke-width="2" />
<path d="M456,765 L759,222" stroke="blue" stroke-width="2" />
<path d="M799,1347 L1129,694" stroke="blue" stroke-width="2" />
<path d="M2215,318 L2572,442" stroke="blue" stroke-width="2" />
<path d="M2765,16 L2777,579" stroke="blue" stroke-width="2" />
<path d="M1818,968 L382,1340" stroke="blue" stroke-width="2" />
<path d="M832,547 L2536,1220" stroke="blue" stroke-width="2" />
<path d="M2511,807 L2480,884" stroke="blue" stroke-width="2" />
<path d="M745,407 L1035,91" stroke="blue" stroke-width="2" />
<path d="M338,249 L1968,1091" stroke="blue" stroke-width="2" />
<path d="M3321,1110 L2273,1218" stroke="blue" stroke-width="2" />
<path d="M567,595 L2428,520" stroke="blue" stroke-width="2" />
<path d="M2797,1530 L2747,581" stroke="blue" stroke-width="2" />
<path d="M3043,1213 L1202,1511" stroke="blue" stroke-width="2" />
<path d="M2854,192 L384,668" stroke="blue" stroke-width="2" />
<path d="M1517,1042 L479,1169" stroke="blue" stroke-width="2" />
<path d="M2850,770 L3127,1003" stroke="blue" stroke-width="2" />
<path d="M2549,951 L2490,1687" stroke="blue" stroke-width="2" />
<path d="M2054,622 L2909,49" stroke="blue" stroke-width="2" />
<path d="M269,1342 L918,986" stroke="blue" stroke-width="2" />
<path d="M665,371 L737,1606" stroke="blue" stroke-width="2" />
<path d="M2321,1514 L702,582" stroke="blue" stroke-width="2" />
<path d="M3233,444 L2329,115" stroke="blue" stroke-width="2" />
<path d="M1179,1677 L779,1267" stroke="blue" stroke-width="2" />
<path d="M1617,1660 L859,104" stroke="blue" stroke-width="2" />
<path d="M2579,1480 L821,574" stroke="blue" stroke-width="2" />
<path d="M3268,1249 L1825,1363" stroke="blue" stroke-width="2" />
<path d="M980,347 L1738,1164" stroke="blue" stroke-width="2" />
<path d="M2484,1365 L541,92" stroke="blue" stroke-width="2" />
<path d="M1425,30 L555,511" stroke="blue" stroke-width="2" />
<path d="M1353,485 L1157,912" stroke="blue" stroke-width="2" />
<path d="M256,338 L1980,870" stroke="blue" stroke-width="2" />
<path d="M894,1286 L2715,808" stroke="blue" stroke-width="2" />
<path d="M1593,76 L2681,1690" stroke="blue" stroke-width="2" />
<path d="M422,929 L2659,1020" stroke="blue" stroke-width="2" />
<path d="M1288,1082 L1237,244" stroke="blue" stroke-width="2" />
<path d="M1320,942 L1764,858" stroke="blue" stroke-width="2" />
<path d="M2214,886 L524,455" stroke="blue" stroke-width="2" />
<path d="M1940,1637 L3073,1669" stroke="blue" stroke-width="2" />
<path d="M2577,1404 L953,1707" stroke="blue" stroke-width="2" />
<path d="M1913,338 L3323,1630" stroke="blue" stroke-width="2" />
<path d="M2357,1448 L101,1260" stroke="blue" stroke-width="2" />
<path d="M1072,1030 L1624,618" stroke="blue" stroke-width="2" />
<path d="M3157,1289 L1745,980" stroke="blue" stroke-width="2" />
<path d="M854,559 L3308,333" stroke="blue" stroke-width="2" />
<path d="M2636,948 L1468,199" stroke="blue" stroke-width="2" />
<path d="M867,728 L1568,1394" stroke="blue" stroke-width="2" />
<path d="M2658,21 L2358,1640" stroke="blue" stroke-width="2" />
<path d="M308,1418 L1505,719" stroke="blue" stroke-width="2" />
<path d="M2591,978 L1501,670" stroke="blue" stroke-width="2" />
<path d="M100,1417 L249,1076" stroke="blue" stroke-width="2" />
<path d="M354,1493 L3249,945" stroke="blue" stroke-width="2" />
<path d="M1718,1400 L617,507" stroke="blue" stroke-width="2" />
<path d="M1497,1113 L2320,9" stroke="blue" stroke-width="2" />
<path d="M704,1547 L2600,1335" stroke="blue" stroke-width="2" />
<path d="M1290,418 L1769,60" stroke="blue" stroke-width="2" />
<path d="M2076,544 L2687,605" stroke="blue" stroke-width="2" />
<path d="M2972,1474 L161,497" stroke="blue" stroke-width="2" />
<path d="M3294,120 L1686,715" stroke="blue" stroke-width="2" />
<path d="M422,623 L2413,1048" stroke="blue" stroke-width="2" />
<path d="M1767,34 L749,201" stroke="blue" stroke-width="2" />
<path d="M2659,430 L904,414" stroke="blue" stroke-width="2" />
<path d="M439,725 L595,22" stroke="blue" stroke-width="2" />
<path d="M1912,446 L776,1416" stroke="blue" stroke-width="2" />
<path d="M1561,172 L10,795" stroke="blue" stroke-width="2" />
<path d="M2706,587 L1371,416" stroke="blue" stroke-width="2" />
<path d="M307,1432 L707,402" stroke="blue" stroke-width="2" />
<path d="M2155,702 L2955,1363" stroke="blue" stroke-width="2" />
<path d="M1083,399 L1034,680" stroke="blue" stroke-width="2" />
<path d="M2424,666 L1524,356" stroke="blue" stroke-width="2" />
<path d="M500,906 L2245,782" stroke="blue" stroke-width="2" />
<path d="M3288,262 L560,937" stroke="blue" stroke-width="2" />
<path d="M3116,1383 L3253,413" stroke="blue" stroke-width="2" />
<path d="M61,610 L3185,1614" stroke="blue" stroke-width="2" />
<path d="M1217,1244 L2227,1521" stroke="blue" stroke-width="2" />
<path d="M2656,983 L2970,686" stroke="blue" stroke-width="2" />
<path d="M2991,544 L686,998" stroke="blue" stroke-width="2" />
<path d="M1834,482 L2837,599" stroke="blue" stroke-width="2" />
<path d="M158,1140 L175,153" stroke="blue" stroke-width="2" />
<path d="M959,1692 L3266,1200" stroke="blue" stroke-width="2" />
<path d="M2969,320 L1100,349" stroke="blue" stroke-width="2" />
<path d="M1204,1209 L1846,815" stroke="blue" stroke-width="2" />
<path d="M1139,852 L3350,223" stroke="blue" stroke-width="2" />
<path d="M363,1047 L2156,225" stroke="blue" stroke-width="2" />
<path d="M203,1052 L2280,107" stroke="blue" stroke-width="2" />
<path d="M1693,1067 L2489,1608" stroke="blue" stroke-width="2" />
<path d="M559,1486 L1279,816" stroke="blue" stroke-width="2" />
<path d="M3143,1380 L1123,684" stroke="blue" stroke-width="2" />
<path d="M2920,1080 L30,1502" stroke="blue" stroke-width="2" />
<path d="M1028,693 L941,372" stroke="blue" stroke-width="2" />
<path d="M428,1252 L2932,1193" stroke="blue" stroke-width="2" />
<path d="M3247,1564 L135,1036" stroke="blue" stroke-width="2" />
<path d="M1120,1456 L3051,1131" stroke="blue" stroke-width="2" />
<path d="M2318,962 L3256,359" stroke="blue" stroke-width="2" />
<path d="M1237,1462 L46,863" stroke="blue" stroke-width="2" />
<path d="M1247,607 L2223,139" stroke="blue" stroke-width="2" />
<path d="M2542,1072 L2757,794" stroke="blue" stroke-width="2" />
<path d="M1030,592 L1110,1588" stroke="blue" stroke-width="2" />
<path d="M951,169 L2347,987" stroke="blue" stroke-width="2" />
<path d="M1116,322 L39,186" stroke="blue" stroke-width="2" />
<path d="M807,1132 L1111,602" stroke="blue" stroke-width="2" />
<path d="M2650,165 L1993,25" stroke="blue" stroke-width="2" />
<path d="M1135,1300 L141,878" stroke="blue" stroke-width="2" />
<path d="M2780,1118 L3327,672" stroke="blue" stroke-width="2" />
<path d="M2387,1456 L2125,1141" stroke="blue" stroke-width="2" />
<path d="M28,583 L104,492" stroke="blue" stroke-width="2" />
<path d="M740,1427 L343,671" stroke="blue" stroke-width="2" />
<path d="M2151,85 L713,648" stroke="blue" stroke-width="2" />
<path d="M1196,240 L2911,1339" stroke="blue" stroke-width="2" />
<path d="M2115,759 L1795,1558" stroke="blue" stroke-width="2" />
<path d="M2095,73 L2030,103" stroke="blue" stroke-width="2" />
<path d="M827,545 L154,601" stroke="blue" stroke-width="2" />
<path d="M1902,243 L2163,427" stroke="blue" stroke-width="2" />
<path d="M600,538 L60,180" stroke="blue" stroke-width="2" />
<path d="M937,769 L3345,738" stroke="blue" stroke-width="2" />
<path d="M694,632 L2712,1057" stroke="blue" stroke-width="2" />
<path d="M2209,319 L2099,44" stroke="blue" stroke-width="2" />
<path d="M3352,246 L3069,151" stroke="blue" stroke-width="2" />
<path d="M2140,1595 L585,1046" stroke="blue" stroke-width="2" />
<path d="M2119,201 L1611,1153" stroke="blue" stroke-width="2" />
<path d="M2572,1429 L1385,378" stroke="blue" stroke-width="2" />
<path d="M3141,744 L2014,937" stroke="blue" stroke-width="2" />
<path d="M61,1604 L1210,54" stroke="blue" stroke-width="2" />
<path d="M836,351 L1942,1106" stroke="blue" stroke-width="2" />
<path d="M1469,1220 L1142,1220" stroke="blue" stroke-width="2" />
<path d="M173,1071 L3344,1589" stroke="blue" stroke-width="2" />
<path d="M618,69 L1433,1701" stroke="blue" stroke-width="2" />
<path d="M2902,983 L2029,343" stroke="blue" stroke-width="2" />
<path d="M817,493 L2322,714" stroke="blue" stroke-width="2" />
<path d="M1072,1631 L1057,1158" stroke="blue" stroke-width="2" />
<path d="M548,804 L305,800" stroke="blue" stroke-width="2" />
<path d="M894,1260 L2377,754" stroke="blue" stroke-width="2" />
<path d="M1883,1277 L287,494" stroke="blue" stroke-width="2" />
<path d="M797,1204 L1308,981" stroke="blue" stroke-width="2" />
<path d="M1954,1637 L501,1109" stroke="blue" stroke-width="2" />
<path d="M2692,3 L1175,1110" stroke="blue" stroke-width="2" />
<path d="M1816,1150 L2242,119" stroke="blue" stroke-width="2" />
<path d="M2947,1078 L475,1649" stroke="blue" stroke-width="2" />
<path d="M1229,125 L2917,112" stroke="blue" stroke-width="2" />
<path d="M1838,1413 L1313,1420" stroke="blue" stroke-width="2" />
<path d="M1428,84 L538,490" stroke="blue" stroke-width="2" />
<path d="M1342,800 L1372,450" stroke="blue" stroke-width="2" />
<path d="M1265,861 L1470,1155" stroke="blue" stroke-width="2" />
<path d="M1789,1101 L10,1019" stroke="blue" stroke-width="2" />
<path d="M1089,338 L2859,297" stroke="blue" stroke-width="2" />
<path d="M1485,1442 L1282,271" stroke="blue" stroke-width="2" />
<path d="M1319,936 L3195,1657" stroke="blue" stroke-width="2" />
<path d="M974,1635 L2957,170" stroke="blue" stroke-width="2" />
<path d="M481,1519 L2319,968" stroke="blue" stroke-width="2" />
<path d="M267,1031 L548,1389" stroke="blue" stroke-width="2" />
<path d="M1013,1496 L537,259" stroke="blue" stroke-width="2" />
<path d="M384,1384 L859,613" stroke="blue" stroke-width="2" />
<path d="M1039,45 L1368,291" stroke="blue" stroke-width="2" />
<path d="M180,825 L2601,1133" stroke="blue" stroke-width="2" />
<path d="M2009,1562 L807,1073" stroke="blue" stroke-width="2" />
<path d="M2797,724 L2784,1576" stroke="blue" stroke-width="2" />
<path d="M1912,1437 L1433,654" stroke="blue" stroke-width="2" />
<path d="M2784,208 L81,1127" stroke="blue" stroke-width="2" />
<path d="M185,1297 L2211,704" stroke="blue" stroke-width="2" />
<path d="M1751,957 L1890,565" stroke="blue" stroke-width="2" />
<path d="M2249,1095 L947,1135" stroke="blue" stroke-width="2" />
<path d="M2397,1421 L644,1584" stroke="blue" stroke-width="2" />
<path d="M2187,497 L2441,246" stroke="blue" stroke-width="2" />
<path d="M2171,1278 L1036,805" stroke="blue" stroke-width="2" />
<path d="M771,1358 L2489,569" stroke="blue" stroke-width="2" />
<path d="M1926,265 L808,1177" stroke="blue" stroke-width="2" />
<path d="M8,141 L2097,1045" stroke="blue" stroke-width="2" />
<path d="M1559,433 L2551,161" stroke="blue" stroke-width="2" />
<path d="M453,1221 L3321,432" stroke="blue" stroke-width="2" />
<path d="M2217,935 L63,1201" stroke="blue" stroke-width="2" />
<path d="M1115,178 L227,886" stroke="blue" stroke-width="2" />
<path d="M415,911 L1047,139" stroke="blue" stroke-width="2" />
<path d="M1403,1662 L92,719" stroke="blue" stroke-width="2" />
<path d="M1183,451 L3263,405" stroke="blue" stroke-width="2" />
<path d="M3047,323 L2782,1565" stroke="blue" stroke-width="2" />
<path d="M2896,1602 L2358,1046" stroke="blue" stroke-width="2" />
<path d="M88,601 L2614,1420" stroke="blue" stroke-width="2" />
<path d="M2537,9 L2278,100" stroke="blue" stroke-width="2" />
<path d="M2895,790 L395,1388" stroke="blue" stroke-width="2" />
<path d="M2611,423 L1190,34" stroke="blue" stroke-width="2" />
<path d="M2920,53 L2422,1020" stroke="blue" stroke-width="2" />
<path d="M2441,271 L1559,440" stroke="blue" stroke-width="2" />
<path d="M2909,920 L2978,833" stroke="blue" stroke-width="2" />
<path d="M3024,1579 L1479,231" stroke="blue" stroke-width="2" />
<path d="M2227,71 L2889,561" stroke="blue" stroke-width="2" />
<path d="M249,215 L2697,1064" stroke="blue" stroke-width="2" />
<path d="M2632,761 L1319,1066" stroke="blue" stroke-width="2" />
<path d="M965,7 L79,1076" stroke="blue" stroke-width="2" />
<path d="M748,299 L2809,1638" stroke="blue" stroke-width="2" />
<path d="M243,1122 L2897,1635" stroke="blue" stroke-width="2" />
<path d="M2977,238 L3317,1464" stroke="blue" stroke-width="2" />
<path d="M1882,227 L214,1509" stroke="blue" stroke-width="2" />
<path d="M3181,119 L2987,1281" stroke="blue" stroke-width="2" />
<path d="M3221,721 L2791,1648" stroke="blue" stroke-width="2" />
<path d="M2355,1153 L827,393" stroke="blue" stroke-width="2" />
<path d="M1069,1433 L1395,1536" stroke="blue" stroke-width="2" />
<path d="M1444,683 L3095,1139" stroke="blue" stroke-width="2" />
<path d="M1528,1484 L1958,672" stroke="blue" stroke-width="2" />
<path d="M2935,154 L2392,1674" stroke="blue" stroke-width="2" />
<path d="M2770,500 L959,1020" stroke="blue" stroke-width="2" />
<path d="M2568,1039 L3040,1497" stroke="blue" stroke-width="2" />
<path d="M2216,898 L866,1384" stroke="blue" stroke-width="2" />
<path d="M877,136 L2287,965" stroke="blue" stroke-width="2" />
<path d="M3250,1078 L1193,1436" stroke="blue" stroke-width="2" />
<path d="M3088,70 L763,1264" stroke="blue" stroke-width="2" />
<path d="M2172,1447 L2980,1220" stroke="blue" stroke-width="2" />
<path d="M404,88 L1533,742" stroke="blue" stroke-width="2" />
<path d="M2584,921 L96,1507" stroke="blue" stroke-width="2" />
<path d="M520,42 L2908,1600" stroke="blue" stroke-width="2" />
<path d="M1194,1316 L3271,648" stroke="blue" stroke-width="2" />
<path d="M829,1050 L2142,669" stroke="blue" stroke-width="2" />
<path d="M2123,932 L1463,503" stroke="blue" stroke-width="2" />
<path d="M391,564 L1466,1691" stroke="blue" stroke-width="2" />
<path d="M3328,1108 L1050,148" stroke="blue" stroke-width="2" />
<path d="M2083,1129 L263,1490" stroke="blue" stroke-width="2" />
<path d="M1177,251 L999,1140" stroke="blue" stroke-width="2" />
<path d="M2449,179 L3098,331" stroke="blue" stroke-width="2" />
<path d="M3174,280 L2081,1423" stroke="blue" stroke-width="2" />
<path d="M2821,1633 L1971,802" stroke="blue" stroke-width="2" />
<path d="M3092,74 L2854,433" stroke="blue" stroke-width="2" />
<path d="M998,1019 L1098,1597" stroke="blue" stroke-width="2" />
<path d="M2771,893 L97,490" stroke="blue" stroke-width="2" />
<path d="M2493,292 L1247,994" stroke="blue" stroke-width="2" />
<path d="M265,159 L2120,1565" stroke="blue" stroke-width="2" />
<path d="M2317,1414 L2971,111" stroke="blue" stroke-width="2" />
<path d="M3272,626 L999,1253" stroke="blue" stroke-width="2" />
<path d="M1068,144 L2320,829" stroke="blue" stroke-width="2" />
<path d="M1331,891 L617,908" stroke="blue" stroke-width="2" />
<path d="M2387,343 L2202,396" stroke="blue" stroke-width="2" />
<path d="M86,461 L840,1635" stroke="blue" stroke-width="2" />
<path d="M777,1252 L1425,136" stroke="blue" stroke-width="2" />
<path d="M364,791 L2718,1501" stroke="blue" stroke-width="2" />
<path d="M2993,857 L1639,1612" stroke="blue" stroke-width="2" />
<path d="M12,1435 L597,966" stroke="blue" stroke-width="2" />
<path d="M288,369 L2145,1093" stroke="blue" stroke-width="2" />
<path d="M617,1521 L2025,1224" stroke="blue" stroke-width="2" />
<path d="M527,329 L436,869" stroke="blue" stroke-width="2" />
<path d="M1470,562 L2796,879" stroke="blue" stroke-width="2" />
<path d="M72,536 L2019,708" stroke="blue" stroke-width="2" />
<path d="M2745,167 L2546,1246" stroke="blue" stroke-width="2" />
<path d="M3281,392 L1252,1432" stroke="blue" stroke-width="2" />
<path d="M2421,1608 L2615,532" stroke="blue" stroke-width="2" />
<path d="M430,307 L960,520" stroke="blue" stroke-width="2" />
<path d="M2620,359 L2681,1592" stroke="blue" stroke-width="2" />
<path d="M2729,1555 L1059,1649" stroke="blue" stroke-width="2" />
<path d="M1068,562 L2225,829" stroke="blue" stroke-width="2" />
<path d="M2843,934 L2231,433" stroke="blue" stroke-width="2" />
<path d="M2777,380 L1844,278" stroke="blue" stroke-width="2" />
<path d="M768,1089 L3102,535" stroke="blue" stroke-width="2" />
<path d="M707,1356 L941,1369" stroke="blue" stroke-width="2" />
<path d="M1274,10 L2071,1630" stroke="blue" stroke-width="2" />
<path d="M2250,644 L796,420" stroke="blue" stroke-width="2" />
<path d="M776,1059 L2817,1174" stroke="blue" stroke-width="2" />
<path d="M340,1279 L1838,1379" stroke="blue" stroke-width="2" />
<path d="M995,1287 L1538,768" stroke="blue" stroke-width="2" />
<path d="M575,1132 L2789,1666" stroke="blue" stroke-width="2" />
<path d="M1112,1156 L1070,573" stroke="blue" stroke-width="2" />
<path d="M2621,450 L2745,771" stroke="blue" stroke-width="2" />
<path d="M2354,905 L2326,1544" stroke="blue" stroke-width="2" />
<path d="M2933,751 L1081,441" stroke="blue" stroke-width="2" />
<path d="M2869,1043 L1690,625" stroke="blue" stroke-width="2" />
<path d="M2933,51 L1907,8" stroke="blue" stroke-width="2" />
<path d="M2724,712 L2671,677" stroke="blue" stroke-width="2" />
<path d="M820,100 L3255,1293" stroke="blue" stroke-width="2" />
<path d="M785,1070 L706,373" stroke="blue" stroke-width="2" />
<path d="M43,1346 L1616,41" stroke="blue" stroke-width="2" />
<path d="M481,535 L505,353" stroke="blue" stroke-width="2" />
<path d="M220,1011 L510,1133" stroke="blue" stroke-width="2" />
<path d="M1187,1463 L3175,1011" stroke="blue" stroke-width="2" />
<path d="M1452,206 L2,655" stroke="blue" stroke-width="2" />
<path d="M408,79 L1002,686" stroke="blue" stroke-width="2" />
<path d="M1761,675 L3275,314" stroke="blue" stroke-width="2" />
<path d="M2260,955 L993,164" stroke="blue" stroke-width="2" />
<path d="M2749,699 L3188,438" stroke="blue" stroke-width="2" />
<path d="M2293,1708 L482,1040" stroke="blue" stroke-width="2" />
<path d="M1327,1041 L1495,622" stroke="blue" stroke-width="2" />
<path d="M907,817 L2204,584" stroke="blue" stroke-width="2" />
<path d="M3027,245 L3269,641" stroke="blue" stroke-width="2" />
<path d="M3048,972 L2047,1051" stroke="blue" stroke-width="2" />
<path d="M1100,1219 L676,1486" stroke="blue" stroke-width="2" />
<path d="M1700,659 L2760,1665" stroke="blue" stroke-width="2" />
<path d="M2042,157 L3038,557" stroke="blue" stroke-width="2" />
<path d="M1100,401 L745,510" stroke="blue" stroke-width="2" />
<path d="M232,1045 L3237,331" stroke="blue" stroke-width="2" />
<path d="M2240,526 L3154,715" stroke="blue" stroke-width="2" />
<path d="M973,1481 L2602,1082" stroke="blue" stroke-width="2" />
<path d="M226,1376 L2444,1611" stroke="blue" stroke-width="2" />
<path d="M2221,1608 L497,234" stroke="blue" stroke-width="2" />
<path d="M2428,1207 L1926,1197" stroke="blue" stroke-width="2" />
<path d="M547,1081 L517,1660" stroke="blue" stroke-width="2" />
<path d="M2979,1499 L713,707" stroke="blue" stroke-width="2" />
<path d="M653,784 L2411,1465" stroke="blue" stroke-width="2" />
<path d="M1894,87 L1379,1333" stroke="blue" stroke-width="2" />
<path d="M2182,1124 L3093,290" stroke="blue" stroke-width="2" />
<path d="M2430,1275 L1525,161" stroke="blue" stroke-width="2" />
<path d="M220,1662 L481,33" stroke="blue" stroke-width="2" />
<path d="M2227,1271 L2725,175" stroke="blue" stroke-width="2" />
<path d="M2331,879 L1967,760" stroke="blue" stroke-width="2" />
<path d="M3196,1246 L414,464" stroke="blue" stroke-width="2" />
<path d="M1859,71 L503,850" stroke="blue" stroke-width="2" />
<path d="M2696,280 L2609,1593" stroke="blue" stroke-width="2" />
<path d="M493,632 L2159,229" stroke="blue" stroke-width="2" />
<path d="M1279,453 L3247,395" stroke="blue" stroke-width="2" />
<path d="M2880,738 L3041,83" stroke="blue" stroke-width="2" />
<path d="M1615,1555 L356,521" stroke="blue" stroke-width="2" />
<path d="M3094,1155 L293,694" stroke="blue" stroke-width="2" />
<path d="M138,1505 L2340,658" stroke="blue" stroke-width="2" />
<path d="M2336,39 L2000,971" stroke="blue" stroke-width="2" />
<path d="M1892,131 L2992,768" stroke="blue" stroke-width="2" />
<path d="M614,557 L71,1451" stroke="blue" stroke-width="2" />
<path d="M1665,1690 L2437,436" stroke="blue" stroke-width="2" />
<path d="M3352,1156 L1212,402" stroke="blue" stroke-width="2" />
<path d="M2240,1211 L1914,706" stroke="blue" stroke-width="2" />
<path d="M4,1336 L641,1230" stroke="blue" stroke-width="2" />
<path d="M1860,931 L446,947" stroke="blue" stroke-width="2" />
<path d="M1821,1114 L1602,844" stroke="blue" stroke-width="2" />
<path d="M577,766 L2303,165" stroke="blue" stroke-width="2" />
<path d="M1497,985 L3174,1397" stroke="blue" stroke-width="2" />
<path d="M2427,1419 L1367,1077" stroke="blue" stroke-width="2" />
<path d="M2727,478 L2030,1060" stroke="blue" stroke-width="2" />
<path d="M2074,1070 L1056,160" stroke="blue" stroke-width="2" />
<path d="M2579,605 L242,498" stroke="blue" stroke-width="2" />
<path d="M2320,247 L644,1214" stroke="blue" stroke-width="2" />
<path d="M3283,1485 L3125,1642" stroke="blue" stroke-width="2" />
<path d="M1769,720 L2029,89" stroke="blue" stroke-width="2" />
<path d="M375,1414 L2963,561" stroke="blue" stroke-width="2" />
<path d="M75,1279 L1180,800" stroke="blue" stroke-width="2" />
<path d="M275,1269 L2950,845" stroke="blue" stroke-width="2" />
<path d="M3032,264 L960,344" stroke="blue" stroke-width="2" />
<path d="M3246,587 L1523,1532" stroke="blue" stroke-width="2" />
<path d="M2961,1559 L756,1358" stroke="blue" stroke-width="2" />
<path d="M2268,1516 L223,1449" stroke="blue" stroke-width="2" />
<path d="M449,1675 L497,1100" stroke="blue" stroke-width="2" />
<path d="M787,674 L2855,548" stroke="blue" stroke-width="2" />
<path d="M1139,242 L1533,853" stroke="blue" stroke-width="2" />
<path d="M3046,884 L43,1661" stroke="blue" stroke-width="2" />
<path d="M2129,1640 L115,584" stroke="blue" stroke-width="2" />
<path d="M1947,941 L2884,1322" stroke="blue" stroke-width="2" />
<path d="M1279,1501 L2912,1153" stroke="blue" stroke-width="2" />
<path d="M2144,749 L1968,503" stroke="blue" stroke-width="2" />
<path d="M1552,504 L2044,1056" stroke="blue" stroke-width="2" />
<path d="M107,578 L1248,320" stroke="blue" stroke-width="2" />
<path d="M1047,1369 L3337,1603" stroke="blue" stroke-width="2" />
<path d="M3198,377 L2722,1072" stroke="blue" stroke-width="2" />
<path d="M2941,52 L50,4" stroke="blue" stroke-width="2" />
<path d="M2600,129 L3336,333" stroke="blue" stroke-width="2" />
<path d="M285,1113 L1384,303" stroke="blue" stroke-width="2" />
<path d="M134,1163 L1123,1081" stroke="blue" stroke-width="2" />
<path d="M2739,311 L3271,4" stroke="blue" stroke-width="2" />
<path d="M342,1691 L926,1528" stroke="blue" stroke-width="2" />
<path d="M703,1132 L2946,0" stroke="blue" stroke-width="2" />
<path d="M3351,1432 L1011,923" stroke="blue" stroke-width="2" />
<path d="M2107,26 L297,1162" stroke="blue" stroke-width="2" />
<path d="M2662,717 L3059,728" stroke="blue" stroke-width="2" />
<path d="M2311,504 L2298,1706" stroke="blue" stroke-width="2" />
<path d="M2092,173 L1590,96" stroke="blue" stroke-width="2" />
<path d="M481,813 L457,1639" stroke="blue" stroke-width="2" />
<path d="M1614,215 L2630,1554" stroke="blue" stroke-width="2" />
<path d="M471,491 L47,1217" stroke="blue" stroke-width="2" />
<path d="M745,259 L3266,788" stroke="blue" stroke-width="2" />
<path d="M2202,1572 L1940,332" stroke="blue" stroke-width="2" />
<path d="M3063,1251 L2066,1617" stroke="blue" stroke-width="2" />
<path d="M2435,703 L2335,85" stroke="blue" stroke-width="2" />
<path d="M882,1531 L2734,337" stroke="blue" stroke-width="2" />
<path d="M2030,1441 L3306,1197" stroke="blue" stroke-width="2" />
<path d="M496,689 L652,736" stroke="blue" stroke-width="2" />
<path d="M1461,488 L1445,1620" stroke="blue" stroke-width="2" />
<path d="M750,415 L1207,1657" stroke="blue" stroke-width="2" />
<path d="M1742,71 L2167,361" stroke="blue" stroke-width="2" />
<path d="M2567,1345 L2046,142" stroke="blue" stroke-width="2" />
<path d="M2169,1282 L1269,422" stroke="blue" stroke-width="2" />
<path d="M2266,1385 L992,1714" stroke="blue" stroke-width="2" />
<path d="M2612,742 L558,199" stroke="blue" stroke-width="2" />
<path d="M1709,1241 L2614,65" stroke="blue" stroke-width="2" />
<path d="M1688,903 L2428,1497" stroke="blue" stroke-width="2" />
<path d="M2115,607 L386,728" stroke="blue" stroke-width="2" />
<path d="M2551,172 L1170,1458" stroke="blue" stroke-width="2" />
<path d="M578,790 L1271,1477" stroke="blue" stroke-width="2" />
<path d="M1708,1172 L3268,1507" stroke="blue" stroke-width="2" />
<path d="M486,1377 L2173,1184" stroke="blue" stroke-width="2" />
<path d="M1355,585 L80,1404" stroke="blue" stroke-width="2" />
<path d="M1665,793 L1639,1139" stroke="blue" stroke-width="2" />
<path d="M583,1087 L1864,596" stroke="blue" stroke-width="2" />
<path d="M1450,785 L555,1010" stroke="blue" stroke-width="2" />
<path d="M1222,1663 L2140,364" stroke="blue" stroke-width="2" />
<path d="M2252,344 L2545,555" stroke="blue" stroke-width="2" />
<path d="M908,266 L651,946" stroke="blue" stroke-width="2" />
<path d="M2890,1710 L338,922" stroke="blue" stroke-width="2" />
<path d="M2792,1710 L1483,446" stroke="blue" stroke-width="2" />
<path d="M272,754 L904,1150" stroke="blue" stroke-width="2" />
<path d="M3052,1563 L1021,1209" stroke="blue" stroke-width="2" />
<path d="M106,1657 L2995,1212" stroke="blue" stroke-width="2" />
<path d="M319,251 L1291,1398" stroke="blue" stroke-width="2" />
<path d="M180,55 L10,1449" stroke="blue" stroke-width="2" />
<path d="M48,1381 L13,175" stroke="blue" stroke-width="2" />
<path d="M3352,370 L1131,895" stroke="blue" stroke-width="2" />
<path d="M27,751 L3354,604" stroke="blue" stroke-width="2" />
<path d="M2392,1486 L2963,296" stroke="blue" stroke-width="2" />
<path d="M71,1312 L1799,802" stroke="blue" stroke-width="2" />
<path d="M1936,1355 L14,1155" stroke="blue" stroke-width="2" />
<path d="M3188,1660 L2384,1326" stroke="blue" stroke-width="2" />
<path d="M371,1282 L1244,429" stroke="blue" stroke-width="2" />
<path d="M1286,580 L1496,148" stroke="blue" stroke-width="2" />
<path d="M69,815 L471,895" stroke="blue" stroke-width="2" />
<path d="M3195,91 L60,413" stroke="blue" stroke-width="2" />
<path d="M42,1180 L740,960" stroke="blue" stroke-width="2" />
<path d="M2154,1647 L1177,1226" stroke="blue" stroke-width="2" />
<path d="M1836,1337 L75,722" stroke="blue" stroke-width="2" />
<path d="M1151,236 L1594,962" stroke="blue" stroke-width="2" />
<path d="M1156,1513 L2787,1487" stroke="blue" stroke-width="2" />
<path d="M1025,1467 L1107,265" stroke="blue" stroke-width="2" />
<path d="M1042,769 L3209,1103" stroke="blue" stroke-width="2" />
<path d="M3051,905 L1870,452" stroke="blue" stroke-width="2" />
<path d="M3276,1511 L2193,740" stroke="blue" stroke-width="2" />
<path d="M226,731 L3014,201" stroke="blue" stroke-width="2" />
<path d="M1776,296 L516,1643" stroke="blue" stroke-width="2" />
<path d="M237,803 L634,1214" stroke="blue" stroke-width="2" />
<path d="M418,1024 L2378,164" stroke="blue" stroke-width="2" />
<path d="M2019,1380 L1948,95" stroke="blue" stroke-width="2" />
<path d="M585,195 L2328,544" stroke="blue" stroke-width="2" />
<path d="M403,694 L837,206" stroke="blue" stroke-width="2" />
<path d="M715,0 L3219,94" stroke="blue" stroke-width="2" />
<path d="M2578,176 L873,1661" stroke="blue" stroke-width="2" />
<path d="M2292,363 L2365,1033" stroke="blue" stroke-width="2" />
<path d="M2463,1311 L2882,496" stroke="blue" stroke-width="2" />
<path d="M1290,972 L759,1180" stroke="blue" stroke-width="2" />
<path d="M1727,11 L2084,1192" stroke="blue" stroke-width="2" />
<path d="M2345,1337 L2209,374" stroke="blue" stroke-width="2" />
<path d="M1766,653 L2797,1661" stroke="blue" stroke-width="2" />
<path d="M2155,1105 L3338,1614" stroke="blue" stroke-width="2" />
<path d="M85,602 L2095,497" stroke="blue" stroke-width="2" />
<path d="M2977,616 L2526,1183" stroke="blue" stroke-width="2" />
<path d="M3152,1190 L3133,392" stroke="blue" stroke-width="2" />
<path d="M3258,1335 L2386,1497" stroke="blue" stroke-width="2" />
<path d="M2046,700 L1974,550" stroke="blue" stroke-width="2" />
<path d="M2222,801 L2660,1474" stroke="blue" stroke-width="2" />
<path d="M1569,40 L828,1571" stroke="blue" stroke-width="2" />
<path d="M3047,93 L42,185" stroke="blue" stroke-width="2" />
<path d="M156,907 L1702,32" stroke="blue" stroke-width="2" />
<path d="M282,420 L1710,1311" stroke="blue" stroke-width="2" />
<path d="M577,468 L2544,172" stroke="blue" stroke-width="2" />
<path d="M2648,769 L2311,158" stroke="blue" stroke-width="2" />
<path d="M2958,286 L1449,496" stroke="blue" stroke-width="2" />
<path d="M1928,19 L3214,916" stroke="blue" stroke-width="2" />
<path d="M3127,746 L502,1507" stroke="blue" stroke-width="2" />
<path d="M1859,162 L1997,1215" stroke="blue" stroke-width="2" />
<path d="M2083,1642 L2759,1109" stroke="blue" stroke-width="2" />
<path d="M1546,652 L1710,486" stroke="blue" stroke-width="2" />
<path d="M1496,1119 L43,1105" stroke="blue" stroke-width="2" />
<path d="M23,400 L2749,783" stroke="blue" stroke-width="2" />
<path d="M2902,945 L2370,592" stroke="blue" stroke-width="2" />
<path d="M1167,419 L34,1146" stroke="blue" stroke-width="2" />
<path d="M1524,1201 L1005,1495" stroke="blue" stroke-width="2" />
<path d="M1297,1352 L1989,541" stroke="blue" stroke-width="2" />
<path d="M3235,480 L3072,595" stroke="blue" stroke-width="2" />
<path d="M1997,1404 L2694,730" stroke="blue" stroke-width="2" />
<path d="M1317,1517 L1308,728" stroke="blue" stroke-width="2" />
<path d="M1970,129 L2207,1110" stroke="blue" stroke-width="2" />
<path d="M1666,1504 L2361,1381" stroke="blue" stroke-width="2" />
<path d="M1100,1604 L2232,1537" stroke="blue" stroke-width="2" />
<path d="M3118,379 L3205,963" stroke="blue" stroke-width="2" />
<path d="M36,1073 L762,222" stroke="blue" stroke-width="2" />
<path d="M1205,183 L1305,195" stroke="blue" stroke-width="2" />
<path d="M737,1238 L687,1184" stroke="blue" stroke-width="2" />
<path d="M3279,589 L615,716" stroke="blue" stroke-width="2" />
<path d="M68,1541 L2562,1380" stroke="blue" stroke-width="2" />
<path d="M2714,1462 L2101,1612" stroke="blue" stroke-width="2" />
<path d="M3157,1154 L244,1186" stroke="blue" stroke-width="2" />
<path d="M539,997 L2474,313" stroke="blue" stroke-width="2" />
<path d="M2978,1282 L1260,112" stroke="blue" stroke-width="2" />
<path d="M2869,44 L263,1063" stroke="blue" stroke-width="2" />
<path d="M3108,1125 L3172,434" stroke="blue" stroke-width="2" />
<path d="M2849,285 L379,1378" stroke="blue" stroke-width="2" />
<path d="M2467,1630 L731,1690" stroke="blue" stroke-width="2" />
<path d="M1587,623 L144,1573" stroke="blue" stroke-width="2" />
<path d="M1026,1676 L2636,1663" stroke="blue" stroke-width="2" />
<path d="M1688,78 L767,865" stroke="blue" stroke-width="2" />
<path d="M735,1142 L2046,388" stroke="blue" stroke-width="2" />
<path d="M498,575 L2619,288" stroke="blue" stroke-width="2" />
<path d="M815,377 L162,1059" stroke="blue" stroke-width="2" />
<path d="M1292,636 L2765,1429" stroke="blue" stroke-width="2" />
<path d="M1130,1614 L2255,661" stroke="blue" stroke-width="2" />
<path d="M900,1552 L2794,1302" stroke="blue" stroke-width="2" />
<path d="M2462,1277 L1924,1000" stroke="blue" stroke-width="2" />
<path d="M2674,586 L2610,8" stroke="blue" stroke-width="2" />
<path d="M498,984 L1507,1525" stroke="blue" stroke-width="2" />
<path d="M3197,1082 L257,1686" stroke="blue" stroke-width="2" />
<path d="M933,261 L3339,1565" stroke="blue" stroke-width="2" />
<path d="M3045,1510 L3189,1623" stroke="blue" stroke-width="2" />
<path d="M1666,1137 L1716,1471" stroke="blue" stroke-width="2" />
<path d="M1762,345 L1957,1210" stroke="blue" stroke-width="2" />
<path d="M659,820 L1929,889" stroke="blue" stroke-width="2" />
<path d="M2251,67 L728,20" stroke="blue" stroke-width="2" />
<path d="M767,287 L1668,1332" stroke="blue" stroke-width="2" />
<path d="M190,1475 L310,908" stroke="blue" stroke-width="2" />
<path d="M3035,457 L897,1570" stroke="blue" stroke-width="2" />
<path d="M3277,391 L1554,484" stroke="blue" stroke-width="2" />
<path d="M334,679 L429,1666" stroke="blue" stroke-width="2" />
<path d="M3185,942 L1881,246" stroke="blue" stroke-width="2" />
<path d="M3104,495 L0,1082" stroke="blue" stroke-width="2" />
<path d="M2149,1063 L3271,1345" stroke="blue" stroke-width="2" />
<path d="M3057,134 L836,580" stroke="blue" stroke-width="2" />
<path d="M3021,1481 L382,1705" stroke="blue" stroke-width="2" />
<path d="M454,34 L282,647" stroke="blue" stroke-width="2" />
<path d="M1794,452 L1100,1293" stroke="blue" stroke-width="2" />
<path d="M1990,46 L1353,659" stroke="blue" stroke-width="2" />
<path d="M118,599 L2411,1609" stroke="blue" stroke-width="2" />
<path d="M900,1538 L1254,1353" stroke="blue" stroke-width="2" />
<path d="M898,139 L1253,915" stroke="blue" stroke-width="2" />
<path d="M1239,1664 L1250,847" stroke="blue" stroke-width="2" />
<path d="M3290,287 L2268,1303" stroke="blue" stroke-width="2" />
<path d="M2481,772 L2429,1431" stroke="blue" stroke-width="2" />
<path d="M1308,338 L2982,983" stroke="blue" stroke-width="2" />
<path d="M2126,1173 L871,385" stroke="blue" stroke-width="2" />
<path d="M2479,1113 L782,555" stroke="blue" stroke-width="2" />
<path d="M889,732 L3120,1206" stroke="blue" stroke-width="2" />
<path d="M1096,1625 L1982,1410" stroke="blue" stroke-width="2" />
<path d="M2659,1595 L833,1302" stroke="blue" stroke-width="2" />
<path d="M2646,1576 L2766,1289" stroke="blue" stroke-width="2" />
<path d="M80,1433 L937,973" stroke="blue" stroke-width="2" />
<path d="M2787,1121 L3332,742" stroke="blue" stroke-width="2" />
<path d="M1380,843 L2260,83" stroke="blue" stroke-width="2" />
<path d="M3052,1374 L1028,1430" stroke="blue" stroke-width="2" />
<path d="M3009,1000 L231,68" stroke="blue" stroke-width="2" />
<path d="M2111,534 L1553,852" stroke="blue" stroke-width="2" />
<path d="M3266,959 L3185,632" stroke="blue" stroke-width="2" />
<path d="M2678,262 L2445,47" stroke="blue" stroke-width="2" />
<path d="M3062,363 L2805,326" stroke="blue" stroke-width="2" />
<path d="M1382,140 L3330,193" stroke="blue" stroke-width="2" />
<path d="M1159,182 L79,660" stroke="blue" stroke-width="2" />
<path d="M2527,740 L3254,716" stroke="blue" stroke-width="2" />
<path d="M223,562 L697,585" stroke="blue" stroke-width="2" />
<path d="M1086,99 L2018,1187" stroke="blue" stroke-width="2" />
<path d="M2229,1188 L1072,630" stroke="blue" stroke-width="2" />
<path d="M752,540 L1183,22" stroke="blue" stroke-width="2" />
<path d="M2333,181 L1609,533" stroke="blue" stroke-width="2" />
<path d="M939,563 L1426,748" stroke="blue" stroke-width="2" />
<path d="M2083,1043 L2354,876" stroke="blue" stroke-width="2" />
<path d="M820,1425 L2511,696" stroke="blue" stroke-width="2" />
<path d="M3204,27 L1923,51" stroke="blue" stroke-width="2" />
<path d="M2374,76 L677,1095" stroke="blue" stroke-width="2" />
<path d="M1804,969 L403,1387" stroke="blue" stroke-width="2" />
<path d="M1419,1540 L3170,1705" stroke="blue" stroke-width="2" />
<path d="M187,949 L393,1707" stroke="blue" stroke-width="2" />
<path d="M1383,124 L2265,790" stroke="blue" stroke-width="2" />
<path d="M1371,331 L279,124" stroke="blue" stroke-width="2" />
<path d="M2898,1044 L2214,545" stroke="blue" stroke-width="2" />
<path d="M314,446 L1925,1513" stroke="blue" stroke-width="2" />
<path d="M660,566 L2466,525" stroke="blue" stroke-width="2" />
<path d="M3087,1564 L2841,316" stroke="blue" stroke-width="2" />
<path d="M3352,1 L2212,595" stroke="blue" stroke-width="2" />
<path d="M2491,1637 L1292,629" stroke="blue" stroke-width="2" />
<path d="M1581,1047 L2724,61" stroke="blue" stroke-width="2" />
<path d="M2219,1591 L3239,219" stroke="blue" stroke-width="2" />
<path d="M1488,12 L660,630" stroke="blue" stroke-width="2" />
<path d="M318,1141 L232,1380" stroke="blue" stroke-width="2" />
<path d="M3082,787 L356,1377" stroke="blue" stroke-width="2" />
<path d="M1376,1059 L2589,858" stroke="blue" stroke-width="2" />
<path d="M1381,1268 L1782,1005" stroke="blue" stroke-width="2" />
<path d="M409,265 L1206,1145" stroke="blue" stroke-width="2" />
<path d="M1365,895 L196,202" stroke="blue" stroke-width="2" />
<path d="M719,1243 L2716,370" stroke="blue" stroke-width="2" />
<path d="M321,791 L2329,1089" stroke="blue" stroke-width="2" />
<path d="M771,300 L939,486" stroke="blue" stroke-width="2" />
<path d="M603,1397 L367,525" stroke="blue" stroke-width="2" />
<path d="M1380,1624 L2925,1172" stroke="blue" stroke-width="2" />
<path d="M1116,1343 L2087,821" stroke="blue" stroke-width="2" />
<path d="M2872,1478 L2773,1139" stroke="blue" stroke-width="2" />
<path d="M0,0 L3358,0" stroke="red" stroke-width="10" />
<path d="M3358,0 L3358,1717" stroke="red" stroke-width="10" />
<path d="M0,1717 L3358,1717" stroke="red" stroke-width="10" />
<path d="M0,1717 L0,0" stroke="red" stroke-width="10" />
</svg>