<?xml version="1.0" encoding="UTF-8"?>
<svg xmlns="http://www.w3.org/2000/svg" xmlns:xlink="http://www.w3.org/1999/xlink"
     width="10000" height="10000" viewBox="0 0 10000 10000">
<defs>
</defs>
<path d="M4840,1032 L105,555" stroke="blue" stroke-width="2" />
<path d="M3793,3928 L2650,423" stroke="blue" stroke-width="2" />
<path d="M3800,3261 L5140,2623" stroke="blue" stroke-width="2" />
<path d="M4256,3641 L6834,2570" stroke="blue" stroke-width="2" />
<path d="M3041,2087 L2348,5329" stroke="blue" stroke-width="2" />
<path d="M4985,1756 L4466,4091" stroke="blue" stroke-width="2" />
<path d="M2026,45 L2138,3628" stroke="blue" stroke-width="2" />
<path d="M1753,1351 L5943,5034" stroke="blue" stroke-width="2" />
<path d="M1763,3661 L2105,4193" stroke="blue" stroke-width="2" />
<path d="M1107,1738 L863,3785" stroke="blue" stroke-width="2" />
<path d="M1980,1654 L3036,1306" stroke="blue" stroke-width="2" />
<path d="M2468,5408 L7071,260" stroke="blue" stroke-width="2" />
<path d="M2475,4978 L4399,5430" stroke="blue" stroke-width="2" />
<path d="M677,901 L4556,6242" stroke="blue" stroke-width="2" />
<path d="M551,5344 L1453,1340" stroke="blue" stroke-width="2" />
<path d="M6348,5871 L2674,6221" stroke="blue" stroke-width="2" />
<path d="M1615,3245 L738,4545" stroke="blue" stroke-width="2" />
<path d="M5274,3380 L2318,2294" stroke="blue" stroke-width="2" />
<path d="M4914,4459 L2557,3158" stroke="blue" stroke-width="2" />
<path d="M5737,3555 L6644,5302" stroke="blue" stroke-width="2" />
<path d="M2164,854 L5778,3694" stroke="blue" stroke-width="2" />
<path d="M3453,721 L1756,5384" stroke="blue" stroke-width="2" />
<path d="M789,299 L2390,5994" stroke="blue" stroke-width="2" />
<path d="M1069,4149 L5996,814" stroke="blue" stroke-width="2" />
<path d="M3052,4264 L3316,5679" stroke="blue" stroke-width="2" />
<path d="M4295,3465 L6955,2773" stroke="blue" stroke-width="2" />
<path d="M6168,4650 L4973,1348" stroke="blue" stroke-width="2" />
<path d="M6599,1225 L3478,5632" stroke="blue" stroke-width="2" />
<path d="M5918,6061 L7259,978" stroke="blue" stroke-width="2" />
<path d="M5732,2699 L4284,2304" stroke="blue" stroke-width="2" />
<path d="M5346,5651 L7259,1090" stroke="blue" stroke-width="2" />
<path d="M3874,6248 L1685,5510" stroke="blue" stroke-width="2" />
<path d="M5123,5180 L366,3051" stroke="blue" stroke-width="2" />
<path d="M3726,3425 L2449,1121" stroke="blue" stroke-width="2" />
<path d="M3528,1621 L1219,1157" stroke="blue" stroke-width="2" />
<path d="M4784,4022 L4571,878" stroke="blue" stroke-width="2" />
<path d="M4345,5031 L3899,3360" stroke="blue" stroke-width="2" />
<path d="M1725,2907 L380,8" stroke="blue" stroke-width="2" />
<path d="M2994,808 L4085,911" stroke="blue" stroke-width="2" />
<path d="M4677,4977 L3797,5634" stroke="blue" stroke-width="2" />
<path d="M6256,5167 L3556,4490" stroke="blue" stroke-width="2" />
<path d="M3686,3852 L2758,4532" stroke="blue" stroke-width="2" />
<path d="M1732,1197 L5704,2699" stroke="blue" stroke-width="2" />
<path d="M2671,945 L6905,2013" stroke="blue" stroke-width="2" />
<path d="M444,1588 L2608,5628" stroke="blue" stroke-width="2" />
<path d="M273,3073 L4071,5828" stroke="blue" stroke-width="2" />
<path d="M5419,4691 L3809,4741" stroke="blue" stroke-width="2" />
<path d="M3032,2805 L1553,5273" stroke="blue" stroke-width="2" />
<path d="M6217,877 L3815,971" stroke="blue" stroke-width="2" />
<path d="M1521,4372 L4095,6003" stroke="blue" stroke-width="2" />
<path d="M2829,6450 L6254,4595" stroke="blue" stroke-width="2" />
<path d="M4203,169 L2451,2323" stroke="blue" stroke-width="2" />
<path d="M1310,1097 L461,5808" stroke="blue" stroke-width="2" />
<path d="M831,3173 L530,6262" stroke="blue" stroke-width="2" />
<path d="M427,3046 L76,1717" stroke="blue" stroke-width="2" />
<path d="M2244,3888 L6543,5897" stroke="blue" stroke-width="2" />
<path d="M2993,2722 L1978,5007" stroke="blue" stroke-width="2" />
<path d="M1331,3765 L5694,4505" stroke="blue" stroke-width="2" />
<path d="M6532,4595 L2529,2509" stroke="blue" stroke-width="2" />
<path d="M2534,2196 L1503,3074" stroke="blue" stroke-width="2" />
<path d="M5967,5470 L336,2166" stroke="blue" stroke-width="2" />
<path d="M3783,4664 L1341,943" stroke="blue" stroke-width="2" />
<path d="M2103,2338 L3351,5806" stroke="blue" stroke-width="2" />
<path d="M3915,6146 L1989,3119" stroke="blue" stroke-width="2" />
<path d="M3794,2576 L1754,3938" stroke="blue" stroke-width="2" />
<path d="M4297,4887 L1327,2678" stroke="blue" stroke-width="2" />
<path d="M4522,341 L4126,303" stroke="blue" stroke-width="2" />
<path d="M688,4069 L3319,1913" stroke="blue" stroke-width="2" />
<path d="M1976,4352 L5058,2973" stroke="blue" stroke-width="2" />
<path d="M2628,6382 L4326,1837" stroke="blue" stroke-width="2" />
<path d="M7074,1292 L2005,1910" stroke="blue" stroke-width="2" />
<path d="M1845,3532 L7263,917" stroke="blue" stroke-width="2" />
<path d="M1678,3130 L6694,6506" stroke="blue" stroke-width="2" />
<path d="M6846,2343 L2049,743" stroke="blue" stroke-width="2" />
<path d="M3246,2031 L6050,3944" stroke="blue" stroke-width="2" />
<path d="M3384,3968 L6913,3449" stroke="blue" stroke-width="2" />
<path d="M7084,2023 L6723,4479" stroke="blue" stroke-width="2" />
<path d="M3010,5054 L1433,4012" stroke="blue" stroke-width="2" />
<path d="M6956,6279 L3970,1923" stroke="blue" stroke-width="2" />
<path d="M953,5527 L5036,530" stroke="blue" stroke-width="2" />
<path d="M1810,4335 L1027,1729" stroke="blue" stroke-width="2" />
<path d="M3302,5215 L4563,1542" stroke="blue" stroke-width="2" />
<path d="M6412,6153 L3459,1108" stroke="blue" stroke-width="2" />
<path d="M3673,6013 L1725,6409" stroke="blue" stroke-width="2" />
<path d="M39,2009 L5472,6490" stroke="blue" stroke-width="2" />
<path d="M488,2834 L2998,4533" stroke="blue" stroke-width="2" />
<path d="M3576,1567 L3595,3182" stroke="blue" stroke-width="2" />
<path d="M4080,4163 L342,2031" stroke="blue" stroke-width="2" />
<path d="M4435,4489 L6851,500" stroke="blue" stroke-width="2" />
<path d="M6057,3590 L4526,380" stroke="blue" stroke-width="2" />
<path d="M2585,1627 L762,3420" stroke="blue" stroke-width="2" />
<path d="M4300,2912 L5589,6435" stroke="blue" stroke-width="2" />
<path d="M479,759 L3722,853" stroke="blue" stroke-width="2" />
<path d="M2122,459 L472,683" stroke="blue" stroke-width="2" />
<path d="M638,769 L2134,5685" stroke="blue" stroke-width="2" />
<path d="M6608,1000 L4819,5268" stroke="blue" stroke-width="2" />
<path d="M3502,5345 L4459,6194" stroke="blue" stroke-width="2" />
<path d="M5918,4661 L1627,5977" stroke="blue" stroke-width="2" />
<path d="M4763,1453 L1764,5763" stroke="blue" stroke-width="2" />
<path d="M5356,2860 L923,3206" stroke="blue" stroke-width="2" />
<path d="M3835,4738 L2715,1022" stroke="blue" stroke-width="2" />
<path d="M882,6411 L3416,1221" stroke="blue" stroke-width="2" />
<path d="M6126,4343 L2646,3061" stroke="blue" stroke-width="2" />
<path d="M3759,4103 L6395,3434" stroke="blue" stroke-width="2" />
<path d="M6449,5269 L6391,1509" stroke="blue" stroke-width="2" />
<path d="M6958,5029 L7078,4579" stroke="blue" stroke-width="2" />
<path d="M2490,6345 L3247,4502" stroke="blue" stroke-width="2" />
<path d="M3361,3216 L3494,1314" stroke="blue" stroke-width="2" />
<path d="M4764,5931 L236,5676" stroke="blue" stroke-width="2" />
<path d="M2430,3346 L4018,5091" stroke="blue" stroke-width="2" />
<path d="M4512,3733 L7159,4010" stroke="blue" stroke-width="2" />
<path d="M5142,5923 L1870,5304" stroke="blue" stroke-width="2" />
<path d="M5761,2641 L4034,3923" stroke="blue" stroke-width="2" />
<path d="M5483,3405 L7113,6050" stroke="blue" stroke-width="2" />
<path d="M2596,5929 L21,878" stroke="blue" stroke-width="2" />
<path d="M4344,2065 L714,2534" stroke="blue" stroke-width="2" />
<path d="M294,1003 L6025,992" stroke="blue" stroke-width="2" />
<path d="M4436,4732 L4694,3445" stroke="blue" stroke-width="2" />
<path d="M4306,2913 L1964,5471" stroke="blue" stroke-width="2" />
<path d="M1490,5096 L5901,4457" stroke="blue" stroke-width="2" />
<path d="M300,1497 L750,6043" stroke="blue" stroke-width="2" />
<path d="M0,0 L7305,0" stroke="red" stroke-width="10" />
<path d="M7305,0 L7305,6560" stroke="red" stroke-width="10" />
<path d="M0,6560 L7305,6560" stroke="red" stroke-width="10" />
<path d="M0,6560 L0,0" stroke="red" stroke-width="10" />
</svg>