<?xml version="1.0" encoding="UTF-8"?>
<svg xmlns="http://www.w3.org/2000/svg" xmlns:xlink="http://www.w3.org/1999/xlink"
     width="10000" height="10000" viewBox="0 0 10000 10000">
<defs>
</defs>
<path d="M3971,1583 L8097,2996" stroke="blue" stroke-width="2" />
<path d="M8029,2636 L362,3558" stroke="blue" stroke-width="2" />
<path d="M4183,1156 L5316,867" stroke="blue" stroke-width="2" />
<path d="M415,2168 L8009,2999" stroke="blue" stroke-width="2" />
<path d="M5635,2659 L37,575" stroke="blue" stroke-width="2" />
<path d="M1100,141 L1748,1970" stroke="blue" stroke-width="2" />
<path d="M1860,2059 L5458,1584" stroke="blue" stroke-width="2" />
<path d="M7691,723 L6551,3248" stroke="blue" stroke-width="2" />
<path d="M7042,2400 L1699,683" stroke="blue" stroke-width="2" />
<path d="M1847,1276 L2740,2180" stroke="blue" stroke-width="2" />
<path d="M7026,52 L1520,1442" stroke="blue" stroke-width="2" />
<path d="M1157,357 L5511,1776" stroke="blue" stroke-width="2" />
<path d="M5389,3091 L1642,2276" stroke="blue" stroke-width="2" />
<path d="M1351,3182 L2226,2537" stroke="blue" stroke-width="2" />
<path d="M5136,1624 L7491,278" stroke="blue" stroke-width="2" />
<path d="M305,3192 L4838,2879" stroke="blue" stroke-width="2" />
<path d="M2246,2604 L5526,633" stroke="blue" stroke-width="2" />
<path d="M7469,1388 L8179,3165" stroke="blue" stroke-width="2" />
<path d="M2502,3341 L8193,3146" stroke="blue" stroke-width="2" />
<path d="M6925,1115 L6390,820" stroke="blue" stroke-width="2" />
<path d="M1591,3460 L4428,2098" stroke="blue" stroke-width="2" />
<path d="M6741,2850 L8206,2360" stroke="blue" stroke-width="2" />
<path d="M5466,543 L2446,2045" stroke="blue" stroke-width="2" />
<path d="M1046,974 L7458,1927" stroke="blue" stroke-width="2" />
<path d="M7998,1497 L7039,2458" stroke="blue" stroke-width="2" />
<path d="M4448,2222 L2277,3477" stroke="blue" stroke-width="2" />
<path d="M6149,942 L6160,1173" stroke="blue" stroke-width="2" />
<path d="M7032,2807 L594,2401" stroke="blue" stroke-width="2" />
<path d="M5844,3364 L509,2828" stroke="blue" stroke-width="2" />
<path d="M8391,1603 L4106,920" stroke="blue" stroke-width="2" />
<path d="M1419,1173 L5136,482" stroke="blue" stroke-width="2" />
<path d="M6860,1047 L1736,3509" stroke="blue" stroke-width="2" />
<path d="M5458,2085 L1969,1822" stroke="blue" stroke-width="2" />
<path d="M7905,1476 L3476,596" stroke="blue" stroke-width="2" />
<path d="M4177,3002 L5024,2233" stroke="blue" stroke-width="2" />
<path d="M3196,80 L8173,707" stroke="blue" stroke-width="2" />
<path d="M3106,1975 L6429,1641" stroke="blue" stroke-width="2" />
<path d="M0,0 L8392,0" stroke="red" stroke-width="10" />
<path d="M8392,0 L8392,3652" stroke="red" stroke-width="10" />
<path d="M0,3652 L8392,3652" stroke="red" stroke-width="10" />
<path d="M0,3652 L0,0" stroke="red" stroke-width="10" />
</svg>