<?xml version="1.0" encoding="UTF-8"?>
<svg xmlns="http://www.w3.org/2000/svg" xmlns:xlink="http://www.w3.org/1999/xlink"
     width="10000" height="10000" viewBox="0 0 10000 10000">
<defs>
</defs>
<path d="M3922,1050 L4570,2480" stroke="blue" stroke-width="2" />
<path d="M4635,161 L1711,1958" stroke="blue" stroke-width="2" />
<path d="M4145,3546 L2641,7148" stroke="blue" stroke-width="2" />
<path d="M3321,5679 L2047,8826" stroke="blue" stroke-width="2" />
<path d="M4071,3951 L3184,8524" stroke="blue" stroke-width="2" />
<path d="M4531,4399 L4860,2995" stroke="blue" stroke-width="2" />
<path d="M2737,4439 L4312,7249" stroke="blue" stroke-width="2" />
<path d="M2323,3461 L129,6063" stroke="blue" stroke-width="2" />
<path d="M4458,3498 L2250,7782" stroke="blue" stroke-width="2" />
<path d="M3544,2531 L76,6320" stroke="blue" stroke-width="2" />
<path d="M974,8516 L2390,3777" stroke="blue" stroke-width="2" />
<path d="M1323,1608 L1017,7945" stroke="blue" stroke-width="2" />
<path d="M1380,4046 L1971,8173" stroke="blue" stroke-width="2" />
<path d="M2617,4197 L2254,1624" stroke="blue" stroke-width="2" />
<path d="M2754,303 L2901,2346" stroke="blue" stroke-width="2" />
<path d="M4128,7323 L3455,7275" stroke="blue" stroke-width="2" />
<path d="M2456,1783 L1057,1714" stroke="blue" stroke-width="2" />
<path d="M2444,2250 L774,5953" stroke="blue" stroke-width="2" />
<path d="M2125,5397 L3199,3076" stroke="blue" stroke-width="2" />
<path d="M176,3806 L4329,5030" stroke="blue" stroke-width="2" />
<path d="M2620,5599 L2797,5084" stroke="blue" stroke-width="2" />
<path d="M130,3737 L559,774" stroke="blue" stroke-width="2" />
<path d="M4878,4112 L4788,6454" stroke="blue" stroke-width="2" />
<path d="M3608,788 L2487,3966" stroke="blue" stroke-width="2" />
<path d="M990,4590 L2703,5629" stroke="blue" stroke-width="2" />
<path d="M4381,7930 L519,3469" stroke="blue" stroke-width="2" />
<path d="M2308,3358 L4695,222" stroke="blue" stroke-width="2" />
<path d="M3657,6524 L4649,7531" stroke="blue" stroke-width="2" />
<path d="M1345,5504 L1736,5872" stroke="blue" stroke-width="2" />
<path d="M4126,1366 L3906,6492" stroke="blue" stroke-width="2" />
<path d="M329,7569 L4480,1389" stroke="blue" stroke-width="2" />
<path d="M612,1344 L2874,6049" stroke="blue" stroke-width="2" />
<path d="M2428,1348 L4935,8794" stroke="blue" stroke-width="2" />
<path d="M824,6500 L4767,4877" stroke="blue" stroke-width="2" />
<path d="M457,6336 L3348,5826" stroke="blue" stroke-width="2" />
<path d="M2108,1716 L1235,2218" stroke="blue" stroke-width="2" />
<path d="M2063,7629 L4641,8081" stroke="blue" stroke-width="2" />
<path d="M4048,6377 L572,4578" stroke="blue" stroke-width="2" />
<path d="M1733,1630 L3471,6453" stroke="blue" stroke-width="2" />
<path d="M1263,5515 L1217,537" stroke="blue" stroke-width="2" />
<path d="M1447,5761 L1520,580" stroke="blue" stroke-width="2" />
<path d="M2534,8596 L1001,2838" stroke="blue" stroke-width="2" />
<path d="M3745,1663 L3954,2342" stroke="blue" stroke-width="2" />
<path d="M1146,2965 L2075,100" stroke="blue" stroke-width="2" />
<path d="M1910,4284 L1171,93" stroke="blue" stroke-width="2" />
<path d="M1099,2978 L3391,5521" stroke="blue" stroke-width="2" />
<path d="M4248,7058 L228,4120" stroke="blue" stroke-width="2" />
<path d="M2782,3425 L312,5544" stroke="blue" stroke-width="2" />
<path d="M1690,647 L3202,559" stroke="blue" stroke-width="2" />
<path d="M311,5113 L2986,4097" stroke="blue" stroke-width="2" />
<path d="M0,0 L4960,0" stroke="red" stroke-width="10" />
<path d="M4960,0 L4960,8983" stroke="red" stroke-width="10" />
<path d="M0,8983 L4960,8983" stroke="red" stroke-width="10" />
<path d="M0,8983 L0,0" stroke="red" stroke-width="10" />
</svg>