<?xml version="1.0" encoding="UTF-8"?>
<svg xmlns="http://www.w3.org/2000/svg" xmlns:xlink="http://www.w3.org/1999/xlink"
     width="10000" height="10000" viewBox="0 0 10000 10000">
<defs>
</defs>
<path d="M8898,87 L8294,234" stroke="blue" stroke-width="2" />
<path d="M6860,523 L664,1216" stroke="blue" stroke-width="2" />
<path d="M1414,1720 L6148,1161" stroke="blue" stroke-width="2" />
<path d="M6400,388 L8534,1278" stroke="blue" stroke-width="2" />
<path d="M1593,227 L8837,94" stroke="blue" stroke-width="2" />
<path d="M7960,3 L8599,523" stroke="blue" stroke-width="2" />
<path d="M3088,401 L1244,1554" stroke="blue" stroke-width="2" />
<path d="M4219,67 L5122,184" stroke="blue" stroke-width="2" />
<path d="M6272,427 L5052,1032" stroke="blue" stroke-width="2" />
<path d="M3935,758 L6025,562" stroke="blue" stroke-width="2" />
<path d="M8478,1725 L2604,1433" stroke="blue" stroke-width="2" />
<path d="M5553,27 L3588,1516" stroke="blue" stroke-width="2" />
<path d="M3649,25 L7722,1199" stroke="blue" stroke-width="2" />
<path d="M629,440 L8358,771" stroke="blue" stroke-width="2" />
<path d="M209,1879 L7931,1249" stroke="blue" stroke-width="2" />
<path d="M1881,1747 L8552,1099" stroke="blue" stroke-width="2" />
<path d="M9060,939 L4475,859" stroke="blue" stroke-width="2" />
<path d="M3335,658 L3062,1531" stroke="blue" stroke-width="2" />
<path d="M9179,282 L5229,496" stroke="blue" stroke-width="2" />
<path d="M357,491 L6491,149" stroke="blue" stroke-width="2" />
<path d="M2457,1191 L5428,665" stroke="blue" stroke-width="2" />
<path d="M2094,1535 L5814,1595" stroke="blue" stroke-width="2" />
<path d="M2425,453 L8997,1063" stroke="blue" stroke-width="2" />
<path d="M416,1106 L7669,461" stroke="blue" stroke-width="2" />
<path d="M6154,1196 L2226,825" stroke="blue" stroke-width="2" />
<path d="M5055,414 L2217,875" stroke="blue" stroke-width="2" />
<path d="M7331,1865 L1586,1197" stroke="blue" stroke-width="2" />
<path d="M4317,660 L605,1355" stroke="blue" stroke-width="2" />
<path d="M7727,564 L9029,1361" stroke="blue" stroke-width="2" />
<path d="M6184,846 L748,491" stroke="blue" stroke-width="2" />
<path d="M2370,1657 L2566,852" stroke="blue" stroke-width="2" />
<path d="M5976,1367 L8601,1918" stroke="blue" stroke-width="2" />
<path d="M6452,184 L4345,1721" stroke="blue" stroke-width="2" />
<path d="M2672,251 L4262,525" stroke="blue" stroke-width="2" />
<path d="M3552,673 L1847,713" stroke="blue" stroke-width="2" />
<path d="M337,870 L7320,1573" stroke="blue" stroke-width="2" />
<path d="M6094,844 L5175,1468" stroke="blue" stroke-width="2" />
<path d="M2591,1426 L988,949" stroke="blue" stroke-width="2" />
<path d="M2581,1483 L2583,796" stroke="blue" stroke-width="2" />
<path d="M2183,713 L5382,1344" stroke="blue" stroke-width="2" />
<path d="M4793,926 L265,1579" stroke="blue" stroke-width="2" />
<path d="M2811,1302 L6352,575" stroke="blue" stroke-width="2" />
<path d="M7670,1420 L8125,732" stroke="blue" stroke-width="2" />
<path d="M1249,1302 L1187,1822" stroke="blue" stroke-width="2" />
<path d="M4791,1825 L6453,419" stroke="blue" stroke-width="2" />
<path d="M5364,562 L3584,858" stroke="blue" stroke-width="2" />
<path d="M8117,1731 L6986,1510" stroke="blue" stroke-width="2" />
<path d="M7015,225 L6135,134" stroke="blue" stroke-width="2" />
<path d="M3727,2 L3632,1135" stroke="blue" stroke-width="2" />
<path d="M2932,365 L1190,139" stroke="blue" stroke-width="2" />
<path d="M5816,1829 L8013,456" stroke="blue" stroke-width="2" />
<path d="M4712,1446 L7187,852" stroke="blue" stroke-width="2" />
<path d="M5814,418 L5262,346" stroke="blue" stroke-width="2" />
<path d="M3423,1448 L1020,1580" stroke="blue" stroke-width="2" />
<path d="M5888,80 L7278,677" stroke="blue" stroke-width="2" />
<path d="M34,1716 L192,1246" stroke="blue" stroke-width="2" />
<path d="M4261,1330 L7549,1701" stroke="blue" stroke-width="2" />
<path d="M218,1154 L7362,1500" stroke="blue" stroke-width="2" />
<path d="M4085,1338 L5810,539" stroke="blue" stroke-width="2" />
<path d="M3288,935 L5696,1922" stroke="blue" stroke-width="2" />
<path d="M3963,117 L1510,213" stroke="blue" stroke-width="2" />
<path d="M1340,1551 L1142,1640" stroke="blue" stroke-width="2" />
<path d="M5448,231 L3371,352" stroke="blue" stroke-width="2" />
<path d="M4105,1233 L4461,1307" stroke="blue" stroke-width="2" />
<path d="M8289,1186 L2455,582" stroke="blue" stroke-width="2" />
<path d="M6519,1687 L3939,361" stroke="blue" stroke-width="2" />
<path d="M143,626 L3213,1133" stroke="blue" stroke-width="2" />
<path d="M585,112 L4067,1665" stroke="blue" stroke-width="2" />
<path d="M7276,186 L2287,1319" stroke="blue" stroke-width="2" />
<path d="M136,1683 L5447,459" stroke="blue" stroke-width="2" />
<path d="M4164,324 L1681,876" stroke="blue" stroke-width="2" />
<path d="M3413,354 L8703,1318" stroke="blue" stroke-width="2" />
<path d="M1830,408 L603,1792" stroke="blue" stroke-width="2" />
<path d="M4728,53 L6563,1496" stroke="blue" stroke-width="2" />
<path d="M2801,1729 L4188,490" stroke="blue" stroke-width="2" />
<path d="M2851,643 L7451,992" stroke="blue" stroke-width="2" />
<path d="M6096,1086 L4820,591" stroke="blue" stroke-width="2" />
<path d="M6781,1542 L6992,702" stroke="blue" stroke-width="2" />
<path d="M1234,921 L6673,1293" stroke="blue" stroke-width="2" />
<path d="M6547,717 L2908,542" stroke="blue" stroke-width="2" />
<path d="M4567,1714 L1528,1159" stroke="blue" stroke-width="2" />
<path d="M123,414 L3182,1552" stroke="blue" stroke-width="2" />
<path d="M2449,248 L7892,1286" stroke="blue" stroke-width="2" />
<path d="M3543,1131 L8275,1445" stroke="blue" stroke-width="2" />
<path d="M8505,147 L5948,1043" stroke="blue" stroke-width="2" />
<path d="M1315,410 L7543,1559" stroke="blue" stroke-width="2" />
<path d="M3219,1627 L6653,1844" stroke="blue" stroke-width="2" />
<path d="M7508,81 L7447,1790" stroke="blue" stroke-width="2" />
<path d="M1247,1735 L8170,694" stroke="blue" stroke-width="2" />
<path d="M3618,547 L6534,1152" stroke="blue" stroke-width="2" />
<path d="M2869,81 L7289,1459" stroke="blue" stroke-width="2" />
<path d="M2531,180 L7343,1278" stroke="blue" stroke-width="2" />
<path d="M8490,447 L105,41" stroke="blue" stroke-width="2" />
<path d="M2992,1398 L1701,58" stroke="blue" stroke-width="2" />
<path d="M7092,1908 L4906,1110" stroke="blue" stroke-width="2" />
<path d="M6867,8 L5752,1638" stroke="blue" stroke-width="2" />
<path d="M2931,595 L9002,1596" stroke="blue" stroke-width="2" />
<path d="M5441,1267 L3385,1923" stroke="blue" stroke-width="2" />
<path d="M6996,165 L4044,6" stroke="blue" stroke-width="2" />
<path d="M4582,172 L3039,592" stroke="blue" stroke-width="2" />
<path d="M8482,1494 L6174,727" stroke="blue" stroke-width="2" />
<path d="M8906,252 L1903,971" stroke="blue" stroke-width="2" />
<path d="M6136,980 L8857,569" stroke="blue" stroke-width="2" />
<path d="M3196,646 L5475,100" stroke="blue" stroke-width="2" />
<path d="M3558,576 L8616,265" stroke="blue" stroke-width="2" />
<path d="M1704,1420 L4486,1441" stroke="blue" stroke-width="2" />
<path d="M7242,491 L1295,101" stroke="blue" stroke-width="2" />
<path d="M228,1892 L6838,836" stroke="blue" stroke-width="2" />
<path d="M677,1077 L7488,1006" stroke="blue" stroke-width="2" />
<path d="M4604,493 L1680,1898" stroke="blue" stroke-width="2" />
<path d="M3373,1375 L1161,1530" stroke="blue" stroke-width="2" />
<path d="M8681,1835 L2032,1724" stroke="blue" stroke-width="2" />
<path d="M5874,1632 L954,1900" stroke="blue" stroke-width="2" />
<path d="M1192,629 L8709,694" stroke="blue" stroke-width="2" />
<path d="M532,275 L4305,1706" stroke="blue" stroke-width="2" />
<path d="M8821,1837 L1443,461" stroke="blue" stroke-width="2" />
<path d="M3386,1252 L8787,958" stroke="blue" stroke-width="2" />
<path d="M689,1533 L1698,236" stroke="blue" stroke-width="2" />
<path d="M9169,450 L2277,1619" stroke="blue" stroke-width="2" />
<path d="M6176,1801 L2440,276" stroke="blue" stroke-width="2" />
<path d="M5561,1622 L3717,1087" stroke="blue" stroke-width="2" />
<path d="M794,637 L7793,1325" stroke="blue" stroke-width="2" />
<path d="M218,760 L2316,914" stroke="blue" stroke-width="2" />
<path d="M4762,409 L4039,884" stroke="blue" stroke-width="2" />
<path d="M9091,889 L2562,671" stroke="blue" stroke-width="2" />
<path d="M6481,579 L8395,1900" stroke="blue" stroke-width="2" />
<path d="M5783,612 L8353,1171" stroke="blue" stroke-width="2" />
<path d="M3433,1526 L6594,563" stroke="blue" stroke-width="2" />
<path d="M7465,611 L3427,280" stroke="blue" stroke-width="2" />
<path d="M4301,1393 L7368,618" stroke="blue" stroke-width="2" />
<path d="M5473,1075 L6159,164" stroke="blue" stroke-width="2" />
<path d="M6976,1869 L5252,1143" stroke="blue" stroke-width="2" />
<path d="M8052,1342 L7473,852" stroke="blue" stroke-width="2" />
<path d="M2570,572 L6693,1155" stroke="blue" stroke-width="2" />
<path d="M5661,715 L6270,24" stroke="blue" stroke-width="2" />
<path d="M2141,1288 L1208,703" stroke="blue" stroke-width="2" />
<path d="M3118,486 L7471,277" stroke="blue" stroke-width="2" />
<path d="M5819,823 L4070,610" stroke="blue" stroke-width="2" />
<path d="M570,129 L9155,1261" stroke="blue" stroke-width="2" />
<path d="M2635,1305 L1991,299" stroke="blue" stroke-width="2" />
<path d="M8228,1159 L6439,877" stroke="blue" stroke-width="2" />
<path d="M5927,1018 L8084,132" stroke="blue" stroke-width="2" />
<path d="M8121,918 L1379,768" stroke="blue" stroke-width="2" />
<path d="M3157,616 L507,1226" stroke="blue" stroke-width="2" />
<path d="M5570,120 L6094,55" stroke="blue" stroke-width="2" />
<path d="M8364,1485 L8696,1312" stroke="blue" stroke-width="2" />
<path d="M8490,953 L3210,1870" stroke="blue" stroke-width="2" />
<path d="M8414,1060 L2680,865" stroke="blue" stroke-width="2" />
<path d="M4291,351 L6918,421" stroke="blue" stroke-width="2" />
<path d="M2637,1499 L5929,1335" stroke="blue" stroke-width="2" />
<path d="M4605,1445 L8758,1633" stroke="blue" stroke-width="2" />
<path d="M2491,1145 L8778,8" stroke="blue" stroke-width="2" />
<path d="M6205,1596 L6254,1243" stroke="blue" stroke-width="2" />
<path d="M4132,468 L114,1876" stroke="blue" stroke-width="2" />
<path d="M8156,284 L1445,906" stroke="blue" stroke-width="2" />
<path d="M2639,1320 L2569,1353" stroke="blue" stroke-width="2" />
<path d="M6625,1517 L7045,416" stroke="blue" stroke-width="2" />
<path d="M3206,237 L9164,1035" stroke="blue" stroke-width="2" />
<path d="M7549,1115 L8533,1670" stroke="blue" stroke-width="2" />
<path d="M9210,1917 L7703,997" stroke="blue" stroke-width="2" />
<path d="M883,750 L6446,1647" stroke="blue" stroke-width="2" />
<path d="M7483,1676 L7094,1697" stroke="blue" stroke-width="2" />
<path d="M1396,1872 L720,1117" stroke="blue" stroke-width="2" />
<path d="M3305,630 L1300,1394" stroke="blue" stroke-width="2" />
<path d="M1289,917 L4585,393" stroke="blue" stroke-width="2" />
<path d="M5517,1853 L7006,1214" stroke="blue" stroke-width="2" />
<path d="M1249,248 L24,606" stroke="blue" stroke-width="2" />
<path d="M3143,728 L6108,925" stroke="blue" stroke-width="2" />
<path d="M2190,1192 L5626,957" stroke="blue" stroke-width="2" />
<path d="M3498,99 L6851,45" stroke="blue" stroke-width="2" />
<path d="M4924,163 L6009,1204" stroke="blue" stroke-width="2" />
<path d="M6599,480 L8329,1627" stroke="blue" stroke-width="2" />
<path d="M3586,43 L1481,854" stroke="blue" stroke-width="2" />
<path d="M4070,1550 L3142,756" stroke="blue" stroke-width="2" />
<path d="M983,1512 L5639,521" stroke="blue" stroke-width="2" />
<path d="M3100,1021 L3126,1209" stroke="blue" stroke-width="2" />
<path d="M6058,170 L8126,359" stroke="blue" stroke-width="2" />
<path d="M3587,1326 L8642,1910" stroke="blue" stroke-width="2" />
<path d="M8925,1853 L5174,1475" stroke="blue" stroke-width="2" />
<path d="M2690,966 L4722,1188" stroke="blue" stroke-width="2" />
<path d="M7548,236 L4723,818" stroke="blue" stroke-width="2" />
<path d="M3339,200 L5553,1745" stroke="blue" stroke-width="2" />
<path d="M939,1694 L8042,922" stroke="blue" stroke-width="2" />
<path d="M1180,547 L8759,826" stroke="blue" stroke-width="2" />
<path d="M2179,360 L6224,737" stroke="blue" stroke-width="2" />
<path d="M2050,494 L3717,1657" stroke="blue" stroke-width="2" />
<path d="M6697,1092 L3866,1695" stroke="blue" stroke-width="2" />
<path d="M7477,3 L9090,1413" stroke="blue" stroke-width="2" />
<path d="M4542,1053 L896,1758" stroke="blue" stroke-width="2" />
<path d="M7086,1457 L2732,1838" stroke="blue" stroke-width="2" />
<path d="M1738,169 L3170,563" stroke="blue" stroke-width="2" />
<path d="M1185,1031 L6077,77" stroke="blue" stroke-width="2" />
<path d="M1996,500 L7726,1288" stroke="blue" stroke-width="2" />
<path d="M3265,657 L6470,1906" stroke="blue" stroke-width="2" />
<path d="M721,382 L9084,398" stroke="blue" stroke-width="2" />
<path d="M7933,471 L16,69" stroke="blue" stroke-width="2" />
<path d="M2966,1074 L3122,125" stroke="blue" stroke-width="2" />
<path d="M1745,1216 L724,1307" stroke="blue" stroke-width="2" />
<path d="M8934,1488 L1630,1886" stroke="blue" stroke-width="2" />
<path d="M4374,214 L3877,1312" stroke="blue" stroke-width="2" />
<path d="M8493,1668 L1074,1583" stroke="blue" stroke-width="2" />
<path d="M5445,1423 L2079,1409" stroke="blue" stroke-width="2" />
<path d="M2508,940 L6071,372" stroke="blue" stroke-width="2" />
<path d="M544,58 L2744,1457" stroke="blue" stroke-width="2" />
<path d="M4607,1737 L6991,1333" stroke="blue" stroke-width="2" />
<path d="M5390,359 L2450,1773" stroke="blue" stroke-width="2" />
<path d="M1945,16 L6708,1201" stroke="blue" stroke-width="2" />
<path d="M5536,1090 L5336,1269" stroke="blue" stroke-width="2" />
<path d="M8497,861 L483,513" stroke="blue" stroke-width="2" />
<path d="M6721,1162 L3673,210" stroke="blue" stroke-width="2" />
<path d="M6713,1171 L4731,642" stroke="blue" stroke-width="2" />
<path d="M4362,923 L4313,874" stroke="blue" stroke-width="2" />
<path d="M5013,1554 L8179,1442" stroke="blue" stroke-width="2" />
<path d="M1487,83 L1736,662" stroke="blue" stroke-width="2" />
<path d="M8274,623 L9211,1866" stroke="blue" stroke-width="2" />
<path d="M2425,308 L7717,1368" stroke="blue" stroke-width="2" />
<path d="M6766,1622 L6080,1629" stroke="blue" stroke-width="2" />
<path d="M6312,1835 L9080,953" stroke="blue" stroke-width="2" />
<path d="M460,550 L8046,1033" stroke="blue" stroke-width="2" />
<path d="M3070,1622 L8961,1714" stroke="blue" stroke-width="2" />
<path d="M6038,1784 L8776,135" stroke="blue" stroke-width="2" />
<path d="M873,1364 L4381,983" stroke="blue" stroke-width="2" />
<path d="M4265,1518 L8078,550" stroke="blue" stroke-width="2" />
<path d="M4186,686 L4356,367" stroke="blue" stroke-width="2" />
<path d="M4732,1753 L1612,1590" stroke="blue" stroke-width="2" />
<path d="M3005,263 L7144,819" stroke="blue" stroke-width="2" />
<path d="M7888,816 L1726,1073" stroke="blue" stroke-width="2" />
<path d="M691,75 L8024,1623" stroke="blue" stroke-width="2" />
<path d="M4617,1551 L192,1261" stroke="blue" stroke-width="2" />
<path d="M6427,1851 L6687,127" stroke="blue" stroke-width="2" />
<path d="M3673,1098 L2147,387" stroke="blue" stroke-width="2" />
<path d="M2772,1000 L1183,1478" stroke="blue" stroke-width="2" />
<path d="M1264,46 L613,1418" stroke="blue" stroke-width="2" />
<path d="M2717,500 L6749,1608" stroke="blue" stroke-width="2" />
<path d="M8798,124 L2877,1907" stroke="blue" stroke-width="2" />
<path d="M123,1305 L5586,84" stroke="blue" stroke-width="2" />
<path d="M138,555 L1563,218" stroke="blue" stroke-width="2" />
<path d="M2308,47 L8828,356" stroke="blue" stroke-width="2" />
<path d="M9009,853 L7134,753" stroke="blue" stroke-width="2" />
<path d="M4294,1745 L7225,1160" stroke="blue" stroke-width="2" />
<path d="M1459,1741 L4605,176" stroke="blue" stroke-width="2" />
<path d="M0,0 L9213,0" stroke="red" stroke-width="10" />
<path d="M9213,0 L9213,1927" stroke="red" stroke-width="10" />
<path d="M0,1927 L9213,1927" stroke="red" stroke-width="10" />
<path d="M0,1927 L0,0" stroke="red" stroke-width="10" />
</svg>