<?xml version="1.0" encoding="UTF-8"?>
<svg xmlns="http://www.w3.org/2000/svg" xmlns:xlink="http://www.w3.org/1999/xlink"
     width="10000" height="10000" viewBox="0 0 10000 10000">
<defs>
</defs>
<path d="M3640,2336 L8452,9858" stroke="blue" stroke-width="2" />
<path d="M4932,2647 L6222,693" stroke="blue" stroke-width="2" />
<path d="M6937,7578 L3988,2356" stroke="blue" stroke-width="2" />
<path d="M7376,6854 L8219,1055" stroke="blue" stroke-width="2" />
<path d="M4318,5480 L837,633" stroke="blue" stroke-width="2" />
<path d="M5070,2172 L562,7936" stroke="blue" stroke-width="2" />
<path d="M1041,6316 L1761,9830" stroke="blue" stroke-width="2" />
<path d="M245,8509 L1011,5168" stroke="blue" stroke-width="2" />
<path d="M5663,8439 L9310,7275" stroke="blue" stroke-width="2" />
<path d="M953,8401 L8810,4631" stroke="blue" stroke-width="2" />
<path d="M453,1430 L7104,8120" stroke="blue" stroke-width="2" />
<path d="M7045,3049 L3495,8994" stroke="blue" stroke-width="2" />
<path d="M7130,4695 L6408,8286" stroke="blue" stroke-width="2" />
<path d="M4136,4902 L5275,6291" stroke="blue" stroke-width="2" />
<path d="M9398,7821 L8257,6985" stroke="blue" stroke-width="2" />
<path d="M4146,8083 L463,776" stroke="blue" stroke-width="2" />
<path d="M8256,4906 L7561,2601" stroke="blue" stroke-width="2" />
<path d="M5594,1924 L6315,2006" stroke="blue" stroke-width="2" />
<path d="M8704,9023 L4036,717" stroke="blue" stroke-width="2" />
<path d="M7946,6096 L6634,9646" stroke="blue" stroke-width="2" />
<path d="M1900,6780 L1575,2429" stroke="blue" stroke-width="2" />
<path d="M5283,8871 L918,1253" stroke="blue" stroke-width="2" />
<path d="M8954,1337 L8326,2352" stroke="blue" stroke-width="2" />
<path d="M2100,7958 L9030,8863" stroke="blue" stroke-width="2" />
<path d="M5037,2736 L2827,6068" stroke="blue" stroke-width="2" />
<path d="M4748,6880 L8390,8075" stroke="blue" stroke-width="2" />
<path d="M5631,92 L8170,7534" stroke="blue" stroke-width="2" />
<path d="M7775,857 L7867,5226" stroke="blue" stroke-width="2" />
<path d="M8088,1467 L3601,827" stroke="blue" stroke-width="2" />
<path d="M5675,9118 L7193,6716" stroke="blue" stroke-width="2" />
<path d="M8958,6373 L1207,476" stroke="blue" stroke-width="2" />
<path d="M7013,9472 L6316,6357" stroke="blue" stroke-width="2" />
<path d="M4672,5886 L2855,635" stroke="blue" stroke-width="2" />
<path d="M8840,796 L7761,2375" stroke="blue" stroke-width="2" />
<path d="M933,8257 L5000,1364" stroke="blue" stroke-width="2" />
<path d="M5682,7556 L2673,1591" stroke="blue" stroke-width="2" />
<path d="M150,5450 L3582,8844" stroke="blue" stroke-width="2" />
<path d="M1036,1877 L4341,3339" stroke="blue" stroke-width="2" />
<path d="M5464,6495 L8676,7841" stroke="blue" stroke-width="2" />
<path d="M3377,6607 L2578,3125" stroke="blue" stroke-width="2" />
<path d="M3403,6462 L7089,4319" stroke="blue" stroke-width="2" />
<path d="M7153,6742 L201,5321" stroke="blue" stroke-width="2" />
<path d="M6380,9050 L3909,960" stroke="blue" stroke-width="2" />
<path d="M3201,5054 L4602,4769" stroke="blue" stroke-width="2" />
<path d="M4447,5606 L5721,4302" stroke="blue" stroke-width="2" />
<path d="M7829,8238 L4560,4322" stroke="blue" stroke-width="2" />
<path d="M6129,5282 L6269,5597" stroke="blue" stroke-width="2" />
<path d="M7326,4453 L7646,5686" stroke="blue" stroke-width="2" />
<path d="M4829,8455 L6875,3953" stroke="blue" stroke-width="2" />
<path d="M4197,2647 L2134,2242" stroke="blue" stroke-width="2" />
<path d="M4654,6147 L5545,4343" stroke="blue" stroke-width="2" />
<path d="M6439,9350 L4262,5961" stroke="blue" stroke-width="2" />
<path d="M8476,448 L1506,4502" stroke="blue" stroke-width="2" />
<path d="M9421,6400 L6716,4957" stroke="blue" stroke-width="2" />
<path d="M397,9311 L8964,8574" stroke="blue" stroke-width="2" />
<path d="M154,5023 L1033,3168" stroke="blue" stroke-width="2" />
<path d="M5198,2352 L5050,2716" stroke="blue" stroke-width="2" />
<path d="M5204,9134 L6357,2437" stroke="blue" stroke-width="2" />
<path d="M1141,2176 L8633,9652" stroke="blue" stroke-width="2" />
<path d="M7110,6045 L6133,3250" stroke="blue" stroke-width="2" />
<path d="M239,2032 L7101,8189" stroke="blue" stroke-width="2" />
<path d="M7940,6694 L7048,3467" stroke="blue" stroke-width="2" />
<path d="M6571,7511 L4580,6589" stroke="blue" stroke-width="2" />
<path d="M5295,2825 L4849,2380" stroke="blue" stroke-width="2" />
<path d="M8272,6202 L8905,5958" stroke="blue" stroke-width="2" />
<path d="M6669,7982 L7401,9908" stroke="blue" stroke-width="2" />
<path d="M5311,7294 L3890,990" stroke="blue" stroke-width="2" />
<path d="M859,8697 L2243,9181" stroke="blue" stroke-width="2" />
<path d="M5493,2795 L3118,2264" stroke="blue" stroke-width="2" />
<path d="M2608,1540 L163,8046" stroke="blue" stroke-width="2" />
<path d="M3651,8418 L7109,9504" stroke="blue" stroke-width="2" />
<path d="M8279,8940 L2167,9806" stroke="blue" stroke-width="2" />
<path d="M7203,5366 L9053,9305" stroke="blue" stroke-width="2" />
<path d="M8982,8218 L480,7758" stroke="blue" stroke-width="2" />
<path d="M5880,2284 L3111,3980" stroke="blue" stroke-width="2" />
<path d="M3881,5293 L9246,1274" stroke="blue" stroke-width="2" />
<path d="M6245,1394 L3327,5834" stroke="blue" stroke-width="2" />
<path d="M5449,4978 L981,2792" stroke="blue" stroke-width="2" />
<path d="M2808,4313 L6715,3194" stroke="blue" stroke-width="2" />
<path d="M7329,3682 L3753,9453" stroke="blue" stroke-width="2" />
<path d="M5113,5590 L756,3431" stroke="blue" stroke-width="2" />
<path d="M3338,7071 L7145,8357" stroke="blue" stroke-width="2" />
<path d="M7171,3973 L6754,9523" stroke="blue" stroke-width="2" />
<path d="M7861,5855 L745,8020" stroke="blue" stroke-width="2" />
<path d="M2042,8186 L4293,1213" stroke="blue" stroke-width="2" />
<path d="M1077,89 L6102,9507" stroke="blue" stroke-width="2" />
<path d="M6928,397 L6044,8306" stroke="blue" stroke-width="2" />
<path d="M5981,3964 L8498,5843" stroke="blue" stroke-width="2" />
<path d="M9334,1945 L3633,858" stroke="blue" stroke-width="2" />
<path d="M5186,5485 L5527,9825" stroke="blue" stroke-width="2" />
<path d="M7701,9119 L6522,4182" stroke="blue" stroke-width="2" />
<path d="M3231,8542 L4096,2363" stroke="blue" stroke-width="2" />
<path d="M3880,503 L8821,3031" stroke="blue" stroke-width="2" />
<path d="M5827,9582 L9277,1482" stroke="blue" stroke-width="2" />
<path d="M58,6818 L4553,7505" stroke="blue" stroke-width="2" />
<path d="M705,838 L4352,683" stroke="blue" stroke-width="2" />
<path d="M8487,7089 L854,3953" stroke="blue" stroke-width="2" />
<path d="M6291,1138 L2752,6680" stroke="blue" stroke-width="2" />
<path d="M9281,3725 L5133,7597" stroke="blue" stroke-width="2" />
<path d="M5666,1689 L8210,716" stroke="blue" stroke-width="2" />
<path d="M6591,8468 L355,7285" stroke="blue" stroke-width="2" />
<path d="M5060,4749 L2171,7198" stroke="blue" stroke-width="2" />
<path d="M6694,8483 L7296,692" stroke="blue" stroke-width="2" />
<path d="M9061,7943 L7724,7293" stroke="blue" stroke-width="2" />
<path d="M2880,9829 L8015,6201" stroke="blue" stroke-width="2" />
<path d="M818,6656 L8354,2485" stroke="blue" stroke-width="2" />
<path d="M1645,515 L4829,2779" stroke="blue" stroke-width="2" />
<path d="M1452,5067 L4084,3646" stroke="blue" stroke-width="2" />
<path d="M3507,5165 L3010,4729" stroke="blue" stroke-width="2" />
<path d="M4490,2995 L0,3905" stroke="blue" stroke-width="2" />
<path d="M7396,1258 L8499,457" stroke="blue" stroke-width="2" />
<path d="M1788,9830 L8888,2105" stroke="blue" stroke-width="2" />
<path d="M4260,3785 L4471,7712" stroke="blue" stroke-width="2" />
<path d="M2344,6013 L4132,5408" stroke="blue" stroke-width="2" />
<path d="M6448,2150 L4473,6772" stroke="blue" stroke-width="2" />
<path d="M8191,8739 L5662,430" stroke="blue" stroke-width="2" />
<path d="M434,4805 L226,5711" stroke="blue" stroke-width="2" />
<path d="M6645,7707 L4058,4830" stroke="blue" stroke-width="2" />
<path d="M1762,2880 L7183,670" stroke="blue" stroke-width="2" />
<path d="M8048,921 L6815,4063" stroke="blue" stroke-width="2" />
<path d="M9155,3296 L4133,463" stroke="blue" stroke-width="2" />
<path d="M9162,4559 L6069,9673" stroke="blue" stroke-width="2" />
<path d="M7564,286 L3474,6201" stroke="blue" stroke-width="2" />
<path d="M614,1445 L8601,5580" stroke="blue" stroke-width="2" />
<path d="M6488,419 L948,1886" stroke="blue" stroke-width="2" />
<path d="M2821,3203 L3058,4956" stroke="blue" stroke-width="2" />
<path d="M1777,42 L5853,4196" stroke="blue" stroke-width="2" />
<path d="M1495,8176 L5887,6362" stroke="blue" stroke-width="2" />
<path d="M9305,873 L2143,2525" stroke="blue" stroke-width="2" />
<path d="M9293,2253 L693,5201" stroke="blue" stroke-width="2" />
<path d="M5637,7832 L5198,2924" stroke="blue" stroke-width="2" />
<path d="M4364,6347 L9140,329" stroke="blue" stroke-width="2" />
<path d="M763,1050 L7871,9597" stroke="blue" stroke-width="2" />
<path d="M3040,309 L7780,1071" stroke="blue" stroke-width="2" />
<path d="M3051,850 L6711,5836" stroke="blue" stroke-width="2" />
<path d="M357,250 L689,5327" stroke="blue" stroke-width="2" />
<path d="M2953,3251 L5984,8578" stroke="blue" stroke-width="2" />
<path d="M976,5015 L7533,4501" stroke="blue" stroke-width="2" />
<path d="M3185,2518 L4779,929" stroke="blue" stroke-width="2" />
<path d="M7974,9170 L1585,2802" stroke="blue" stroke-width="2" />
<path d="M2120,1492 L1302,3937" stroke="blue" stroke-width="2" />
<path d="M3558,9029 L4212,2754" stroke="blue" stroke-width="2" />
<path d="M3892,6211 L5350,3255" stroke="blue" stroke-width="2" />
<path d="M5255,515 L5066,9803" stroke="blue" stroke-width="2" />
<path d="M3837,9252 L8071,5833" stroke="blue" stroke-width="2" />
<path d="M8116,9000 L3361,4543" stroke="blue" stroke-width="2" />
<path d="M1484,1117 L2408,9225" stroke="blue" stroke-width="2" />
<path d="M3834,5516 L3647,5895" stroke="blue" stroke-width="2" />
<path d="M705,264 L8486,5227" stroke="blue" stroke-width="2" />
<path d="M8036,5732 L741,2052" stroke="blue" stroke-width="2" />
<path d="M567,6084 L5740,310" stroke="blue" stroke-width="2" />
<path d="M6905,1002 L8217,1084" stroke="blue" stroke-width="2" />
<path d="M7948,658 L1502,1348" stroke="blue" stroke-width="2" />
<path d="M5163,8590 L4144,7688" stroke="blue" stroke-width="2" />
<path d="M3672,4018 L108,1019" stroke="blue" stroke-width="2" />
<path d="M2742,5087 L4586,5220" stroke="blue" stroke-width="2" />
<path d="M6257,7854 L8090,7850" stroke="blue" stroke-width="2" />
<path d="M184,2879 L4506,9852" stroke="blue" stroke-width="2" />
<path d="M1694,8243 L7336,3245" stroke="blue" stroke-width="2" />
<path d="M1992,8976 L5524,949" stroke="blue" stroke-width="2" />
<path d="M690,6561 L7361,6166" stroke="blue" stroke-width="2" />
<path d="M367,547 L4292,2901" stroke="blue" stroke-width="2" />
<path d="M6071,5890 L5983,3956" stroke="blue" stroke-width="2" />
<path d="M2801,146 L4533,9182" stroke="blue" stroke-width="2" />
<path d="M8646,4690 L1785,3729" stroke="blue" stroke-width="2" />
<path d="M5582,7613 L4031,6944" stroke="blue" stroke-width="2" />
<path d="M7787,5288 L8010,3815" stroke="blue" stroke-width="2" />
<path d="M2859,4214 L6907,3424" stroke="blue" stroke-width="2" />
<path d="M265,1936 L189,7877" stroke="blue" stroke-width="2" />
<path d="M709,6941 L8040,7554" stroke="blue" stroke-width="2" />
<path d="M428,6994 L7397,4804" stroke="blue" stroke-width="2" />
<path d="M3673,349 L2009,3943" stroke="blue" stroke-width="2" />
<path d="M5406,63 L1847,5840" stroke="blue" stroke-width="2" />
<path d="M576,5541 L5533,5125" stroke="blue" stroke-width="2" />
<path d="M2532,5121 L5380,5593" stroke="blue" stroke-width="2" />
<path d="M8106,9247 L3496,8167" stroke="blue" stroke-width="2" />
<path d="M3130,8042 L7606,8712" stroke="blue" stroke-width="2" />
<path d="M7277,7166 L190,3128" stroke="blue" stroke-width="2" />
<path d="M3588,2250 L700,6148" stroke="blue" stroke-width="2" />
<path d="M7851,6838 L2753,6180" stroke="blue" stroke-width="2" />
<path d="M1649,2967 L1270,3290" stroke="blue" stroke-width="2" />
<path d="M3866,4595 L8724,8365" stroke="blue" stroke-width="2" />
<path d="M5499,6320 L6684,5235" stroke="blue" stroke-width="2" />
<path d="M7745,9155 L3361,7642" stroke="blue" stroke-width="2" />
<path d="M7805,2844 L6074,9285" stroke="blue" stroke-width="2" />
<path d="M1955,1399 L8377,2930" stroke="blue" stroke-width="2" />
<path d="M338,396 L3571,4201" stroke="blue" stroke-width="2" />
<path d="M7761,2703 L1803,9380" stroke="blue" stroke-width="2" />
<path d="M8705,2786 L6364,9676" stroke="blue" stroke-width="2" />
<path d="M1746,7296 L2582,1204" stroke="blue" stroke-width="2" />
<path d="M1365,151 L9419,4385" stroke="blue" stroke-width="2" />
<path d="M6847,1065 L7405,2671" stroke="blue" stroke-width="2" />
<path d="M8402,5413 L8479,9014" stroke="blue" stroke-width="2" />
<path d="M6334,8167 L9101,304" stroke="blue" stroke-width="2" />
<path d="M9257,5757 L1213,6331" stroke="blue" stroke-width="2" />
<path d="M6874,3451 L4484,3544" stroke="blue" stroke-width="2" />
<path d="M565,9614 L5665,8617" stroke="blue" stroke-width="2" />
<path d="M9161,8444 L4262,8027" stroke="blue" stroke-width="2" />
<path d="M1875,7850 L8400,6124" stroke="blue" stroke-width="2" />
<path d="M6788,26 L5976,6846" stroke="blue" stroke-width="2" />
<path d="M2828,1780 L706,3820" stroke="blue" stroke-width="2" />
<path d="M4587,6364 L8413,5040" stroke="blue" stroke-width="2" />
<path d="M6471,9373 L4265,9591" stroke="blue" stroke-width="2" />
<path d="M6062,8307 L4534,9362" stroke="blue" stroke-width="2" />
<path d="M6576,6382 L436,9679" stroke="blue" stroke-width="2" />
<path d="M6725,2497 L4818,5081" stroke="blue" stroke-width="2" />
<path d="M2890,5891 L3567,6487" stroke="blue" stroke-width="2" />
<path d="M5356,7751 L2086,7214" stroke="blue" stroke-width="2" />
<path d="M1445,9858 L281,2004" stroke="blue" stroke-width="2" />
<path d="M522,6738 L4599,4471" stroke="blue" stroke-width="2" />
<path d="M4079,7995 L6566,740" stroke="blue" stroke-width="2" />
<path d="M1051,7015 L4027,7465" stroke="blue" stroke-width="2" />
<path d="M8259,1838 L5722,8324" stroke="blue" stroke-width="2" />
<path d="M7083,8737 L1052,3231" stroke="blue" stroke-width="2" />
<path d="M7549,7606 L8357,618" stroke="blue" stroke-width="2" />
<path d="M4268,9233 L8022,4403" stroke="blue" stroke-width="2" />
<path d="M4398,3730 L3902,7007" stroke="blue" stroke-width="2" />
<path d="M5037,3617 L672,1408" stroke="blue" stroke-width="2" />
<path d="M2655,2608 L8683,2321" stroke="blue" stroke-width="2" />
<path d="M4172,5562 L6061,1207" stroke="blue" stroke-width="2" />
<path d="M8908,3489 L2423,8413" stroke="blue" stroke-width="2" />
<path d="M103,6424 L3801,7863" stroke="blue" stroke-width="2" />
<path d="M9404,7808 L9475,1280" stroke="blue" stroke-width="2" />
<path d="M1654,6578 L7356,3276" stroke="blue" stroke-width="2" />
<path d="M8184,3300 L1759,2069" stroke="blue" stroke-width="2" />
<path d="M5099,8575 L7050,8984" stroke="blue" stroke-width="2" />
<path d="M4092,5526 L6885,6967" stroke="blue" stroke-width="2" />
<path d="M1691,462 L1580,475" stroke="blue" stroke-width="2" />
<path d="M6165,7268 L2314,1259" stroke="blue" stroke-width="2" />
<path d="M8118,5439 L8527,1263" stroke="blue" stroke-width="2" />
<path d="M5393,3061 L1089,6774" stroke="blue" stroke-width="2" />
<path d="M3246,2924 L9243,4917" stroke="blue" stroke-width="2" />
<path d="M2323,7576 L929,8679" stroke="blue" stroke-width="2" />
<path d="M0,0 L9509,0" stroke="red" stroke-width="10" />
<path d="M9509,0 L9509,9920" stroke="red" stroke-width="10" />
<path d="M0,9920 L9509,9920" stroke="red" stroke-width="10" />
<path d="M0,9920 L0,0" stroke="red" stroke-width="10" />
</svg>