<?xml version="1.0" encoding="UTF-8"?>
<svg xmlns="http://www.w3.org/2000/svg" xmlns:xlink="http://www.w3.org/1999/xlink"
     width="10000" height="10000" viewBox="0 0 10000 10000">
<defs>
</defs>
<path d="M1656,568 L3005,1867" stroke="blue" stroke-width="2" />
<path d="M2626,1769 L3021,664" stroke="blue" stroke-width="2" />
<path d="M2559,856 L1134,1602" stroke="blue" stroke-width="2" />
<path d="M1645,2 L1435,2158" stroke="blue" stroke-width="2" />
<path d="M1873,2340 L2920,360" stroke="blue" stroke-width="2" />
<path d="M1925,1807 L2705,229" stroke="blue" stroke-width="2" />
<path d="M581,2072 L1392,1924" stroke="blue" stroke-width="2" />
<path d="M981,226 L2164,1496" stroke="blue" stroke-width="2" />
<path d="M1738,9 L2115,1386" stroke="blue" stroke-width="2" />
<path d="M342,592 L939,1296" stroke="blue" stroke-width="2" />
<path d="M1476,39 L2580,922" stroke="blue" stroke-width="2" />
<path d="M825,1782 L2200,1737" stroke="blue" stroke-width="2" />
<path d="M2941,1695 L1649,1908" stroke="blue" stroke-width="2" />
<path d="M1001,168 L2174,2180" stroke="blue" stroke-width="2" />
<path d="M2571,2235 L2800,1414" stroke="blue" stroke-width="2" />
<path d="M2170,226 L893,2046" stroke="blue" stroke-width="2" />
<path d="M2854,1181 L785,1944" stroke="blue" stroke-width="2" />
<path d="M2135,2341 L2033,1949" stroke="blue" stroke-width="2" />
<path d="M237,1461 L1478,555" stroke="blue" stroke-width="2" />
<path d="M2588,1820 L2399,270" stroke="blue" stroke-width="2" />
<path d="M2529,2373 L2839,1277" stroke="blue" stroke-width="2" />
<path d="M957,164 L2138,1628" stroke="blue" stroke-width="2" />
<path d="M957,1665 L1392,1557" stroke="blue" stroke-width="2" />
<path d="M370,232 L2871,1521" stroke="blue" stroke-width="2" />
<path d="M620,1520 L990,1849" stroke="blue" stroke-width="2" />
<path d="M845,1368 L2743,1086" stroke="blue" stroke-width="2" />
<path d="M2039,2199 L918,873" stroke="blue" stroke-width="2" />
<path d="M923,550 L2167,1766" stroke="blue" stroke-width="2" />
<path d="M1667,1976 L2533,396" stroke="blue" stroke-width="2" />
<path d="M778,381 L676,1388" stroke="blue" stroke-width="2" />
<path d="M85,2277 L2455,108" stroke="blue" stroke-width="2" />
<path d="M1510,1995 L2027,1286" stroke="blue" stroke-width="2" />
<path d="M1856,758 L1843,1844" stroke="blue" stroke-width="2" />
<path d="M3026,1858 L2208,1060" stroke="blue" stroke-width="2" />
<path d="M2983,916 L83,2176" stroke="blue" stroke-width="2" />
<path d="M455,160 L480,1293" stroke="blue" stroke-width="2" />
<path d="M2434,511 L1111,1741" stroke="blue" stroke-width="2" />
<path d="M1349,168 L1330,1752" stroke="blue" stroke-width="2" />
<path d="M388,630 L2576,2239" stroke="blue" stroke-width="2" />
<path d="M1595,455 L2678,2253" stroke="blue" stroke-width="2" />
<path d="M935,1709 L1828,826" stroke="blue" stroke-width="2" />
<path d="M67,569 L1698,2151" stroke="blue" stroke-width="2" />
<path d="M151,1559 L1015,499" stroke="blue" stroke-width="2" />
<path d="M319,2163 L2484,876" stroke="blue" stroke-width="2" />
<path d="M28,1779 L2595,806" stroke="blue" stroke-width="2" />
<path d="M600,118 L1905,1684" stroke="blue" stroke-width="2" />
<path d="M1322,277 L2104,487" stroke="blue" stroke-width="2" />
<path d="M2077,606 L2918,976" stroke="blue" stroke-width="2" />
<path d="M1337,200 L182,594" stroke="blue" stroke-width="2" />
<path d="M2188,389 L55,1865" stroke="blue" stroke-width="2" />
<path d="M1634,780 L884,1322" stroke="blue" stroke-width="2" />
<path d="M2088,964 L1622,1023" stroke="blue" stroke-width="2" />
<path d="M817,564 L1334,1743" stroke="blue" stroke-width="2" />
<path d="M1408,1159 L744,2082" stroke="blue" stroke-width="2" />
<path d="M2693,2335 L839,1681" stroke="blue" stroke-width="2" />
<path d="M64,845 L3024,387" stroke="blue" stroke-width="2" />
<path d="M628,2264 L3028,1060" stroke="blue" stroke-width="2" />
<path d="M1193,1171 L2485,1557" stroke="blue" stroke-width="2" />
<path d="M1875,104 L1772,396" stroke="blue" stroke-width="2" />
<path d="M546,277 L1653,1310" stroke="blue" stroke-width="2" />
<path d="M2625,1538 L1412,769" stroke="blue" stroke-width="2" />
<path d="M1214,2234 L1482,366" stroke="blue" stroke-width="2" />
<path d="M727,639 L1629,1299" stroke="blue" stroke-width="2" />
<path d="M2848,987 L817,1390" stroke="blue" stroke-width="2" />
<path d="M2033,2343 L381,654" stroke="blue" stroke-width="2" />
<path d="M2950,1601 L1552,1560" stroke="blue" stroke-width="2" />
<path d="M1378,2401 L1778,1843" stroke="blue" stroke-width="2" />
<path d="M587,66 L772,1252" stroke="blue" stroke-width="2" />
<path d="M6,1104 L2889,240" stroke="blue" stroke-width="2" />
<path d="M1530,129 L542,955" stroke="blue" stroke-width="2" />
<path d="M704,889 L504,126" stroke="blue" stroke-width="2" />
<path d="M1630,1319 L1776,400" stroke="blue" stroke-width="2" />
<path d="M947,465 L135,2055" stroke="blue" stroke-width="2" />
<path d="M1960,2159 L733,791" stroke="blue" stroke-width="2" />
<path d="M3009,831 L1364,71" stroke="blue" stroke-width="2" />
<path d="M2030,2201 L2719,363" stroke="blue" stroke-width="2" />
<path d="M1626,847 L834,90" stroke="blue" stroke-width="2" />
<path d="M307,1121 L121,2252" stroke="blue" stroke-width="2" />
<path d="M730,1188 L1201,259" stroke="blue" stroke-width="2" />
<path d="M570,2189 L2168,918" stroke="blue" stroke-width="2" />
<path d="M213,1577 L1668,646" stroke="blue" stroke-width="2" />
<path d="M2645,155 L2871,734" stroke="blue" stroke-width="2" />
<path d="M2985,624 L1558,2274" stroke="blue" stroke-width="2" />
<path d="M1446,1419 L204,607" stroke="blue" stroke-width="2" />
<path d="M511,1270 L1922,274" stroke="blue" stroke-width="2" />
<path d="M1976,321 L517,1171" stroke="blue" stroke-width="2" />
<path d="M1614,1268 L742,2370" stroke="blue" stroke-width="2" />
<path d="M2590,1187 L1648,1254" stroke="blue" stroke-width="2" />
<path d="M431,144 L2434,564" stroke="blue" stroke-width="2" />
<path d="M1777,2109 L1519,1320" stroke="blue" stroke-width="2" />
<path d="M2351,1661 L2688,415" stroke="blue" stroke-width="2" />
<path d="M884,2190 L176,2333" stroke="blue" stroke-width="2" />
<path d="M1215,995 L805,1909" stroke="blue" stroke-width="2" />
<path d="M804,2092 L382,326" stroke="blue" stroke-width="2" />
<path d="M2346,0 L313,223" stroke="blue" stroke-width="2" />
<path d="M489,2356 L598,2392" stroke="blue" stroke-width="2" />
<path d="M2061,2292 L2992,558" stroke="blue" stroke-width="2" />
<path d="M359,1831 L2645,1524" stroke="blue" stroke-width="2" />
<path d="M788,937 L2493,573" stroke="blue" stroke-width="2" />
<path d="M1364,2283 L2844,202" stroke="blue" stroke-width="2" />
<path d="M2985,1156 L1282,1864" stroke="blue" stroke-width="2" />
<path d="M1396,735 L2256,247" stroke="blue" stroke-width="2" />
<path d="M2371,277 L1782,636" stroke="blue" stroke-width="2" />
<path d="M1013,736 L1358,1562" stroke="blue" stroke-width="2" />
<path d="M337,823 L2802,1788" stroke="blue" stroke-width="2" />
<path d="M1051,965 L461,1891" stroke="blue" stroke-width="2" />
<path d="M5,769 L32,550" stroke="blue" stroke-width="2" />
<path d="M1615,1514 L490,470" stroke="blue" stroke-width="2" />
<path d="M2624,76 L1555,505" stroke="blue" stroke-width="2" />
<path d="M2626,534 L785,183" stroke="blue" stroke-width="2" />
<path d="M969,318 L842,997" stroke="blue" stroke-width="2" />
<path d="M1161,1906 L191,1223" stroke="blue" stroke-width="2" />
<path d="M147,2054 L1341,641" stroke="blue" stroke-width="2" />
<path d="M1110,1661 L963,603" stroke="blue" stroke-width="2" />
<path d="M2072,1645 L1531,1758" stroke="blue" stroke-width="2" />
<path d="M103,437 L543,565" stroke="blue" stroke-width="2" />
<path d="M2054,341 L139,1929" stroke="blue" stroke-width="2" />
<path d="M433,2103 L82,932" stroke="blue" stroke-width="2" />
<path d="M43,1164 L2236,1040" stroke="blue" stroke-width="2" />
<path d="M2112,1026 L2597,2332" stroke="blue" stroke-width="2" />
<path d="M1599,102 L2764,1084" stroke="blue" stroke-width="2" />
<path d="M2971,777 L295,1347" stroke="blue" stroke-width="2" />
<path d="M2990,1989 L2177,1546" stroke="blue" stroke-width="2" />
<path d="M2086,838 L1982,1789" stroke="blue" stroke-width="2" />
<path d="M678,1212 L1187,1985" stroke="blue" stroke-width="2" />
<path d="M668,232 L1166,1654" stroke="blue" stroke-width="2" />
<path d="M1979,26 L1612,1388" stroke="blue" stroke-width="2" />
<path d="M283,1217 L2213,601" stroke="blue" stroke-width="2" />
<path d="M1139,449 L824,381" stroke="blue" stroke-width="2" />
<path d="M1438,2340 L1794,538" stroke="blue" stroke-width="2" />
<path d="M1119,1070 L958,561" stroke="blue" stroke-width="2" />
<path d="M387,1433 L800,1963" stroke="blue" stroke-width="2" />
<path d="M717,2189 L2150,70" stroke="blue" stroke-width="2" />
<path d="M1735,514 L2116,1371" stroke="blue" stroke-width="2" />
<path d="M2164,1540 L476,1562" stroke="blue" stroke-width="2" />
<path d="M2194,2306 L945,1173" stroke="blue" stroke-width="2" />
<path d="M1831,650 L2034,615" stroke="blue" stroke-width="2" />
<path d="M507,1844 L331,2202" stroke="blue" stroke-width="2" />
<path d="M199,408 L263,32" stroke="blue" stroke-width="2" />
<path d="M870,564 L801,2194" stroke="blue" stroke-width="2" />
<path d="M439,1025 L982,1001" stroke="blue" stroke-width="2" />
<path d="M1572,498 L2362,633" stroke="blue" stroke-width="2" />
<path d="M602,108 L1201,2033" stroke="blue" stroke-width="2" />
<path d="M2229,1847 L2399,556" stroke="blue" stroke-width="2" />
<path d="M679,1338 L1692,367" stroke="blue" stroke-width="2" />
<path d="M1598,889 L702,503" stroke="blue" stroke-width="2" />
<path d="M2915,275 L2266,1336" stroke="blue" stroke-width="2" />
<path d="M2343,796 L2683,186" stroke="blue" stroke-width="2" />
<path d="M2220,1093 L114,2379" stroke="blue" stroke-width="2" />
<path d="M3018,743 L388,2140" stroke="blue" stroke-width="2" />
<path d="M1151,846 L939,1686" stroke="blue" stroke-width="2" />
<path d="M1124,2045 L2666,1845" stroke="blue" stroke-width="2" />
<path d="M56,997 L2360,950" stroke="blue" stroke-width="2" />
<path d="M551,9 L1486,1715" stroke="blue" stroke-width="2" />
<path d="M11,2391 L767,2277" stroke="blue" stroke-width="2" />
<path d="M1241,1467 L949,102" stroke="blue" stroke-width="2" />
<path d="M1898,316 L593,2153" stroke="blue" stroke-width="2" />
<path d="M1317,2177 L375,258" stroke="blue" stroke-width="2" />
<path d="M2803,1668 L2319,434" stroke="blue" stroke-width="2" />
<path d="M1165,362 L1889,2205" stroke="blue" stroke-width="2" />
<path d="M398,51 L2196,2140" stroke="blue" stroke-width="2" />
<path d="M735,2048 L2791,364" stroke="blue" stroke-width="2" />
<path d="M1286,2378 L656,2156" stroke="blue" stroke-width="2" />
<path d="M1877,733 L19,83" stroke="blue" stroke-width="2" />
<path d="M1536,1695 L2134,148" stroke="blue" stroke-width="2" />
<path d="M2598,2353 L681,543" stroke="blue" stroke-width="2" />
<path d="M952,1865 L532,232" stroke="blue" stroke-width="2" />
<path d="M1047,1636 L2851,2060" stroke="blue" stroke-width="2" />
<path d="M859,436 L2484,343" stroke="blue" stroke-width="2" />
<path d="M432,47 L2087,733" stroke="blue" stroke-width="2" />
<path d="M661,2306 L2608,1743" stroke="blue" stroke-width="2" />
<path d="M2891,1360 L222,1189" stroke="blue" stroke-width="2" />
<path d="M557,342 L2939,1035" stroke="blue" stroke-width="2" />
<path d="M210,2310 L102,1311" stroke="blue" stroke-width="2" />
<path d="M2943,2043 L1852,1829" stroke="blue" stroke-width="2" />
<path d="M1427,1956 L723,1687" stroke="blue" stroke-width="2" />
<path d="M1125,1553 L1467,539" stroke="blue" stroke-width="2" />
<path d="M293,1047 L2439,1034" stroke="blue" stroke-width="2" />
<path d="M1370,710 L157,502" stroke="blue" stroke-width="2" />
<path d="M2383,2247 L2089,42" stroke="blue" stroke-width="2" />
<path d="M697,2155 L474,2214" stroke="blue" stroke-width="2" />
<path d="M2614,1662 L2864,1630" stroke="blue" stroke-width="2" />
<path d="M476,1334 L259,1571" stroke="blue" stroke-width="2" />
<path d="M1042,668 L2434,1881" stroke="blue" stroke-width="2" />
<path d="M577,943 L875,807" stroke="blue" stroke-width="2" />
<path d="M701,1846 L1002,182" stroke="blue" stroke-width="2" />
<path d="M603,1559 L1016,1208" stroke="blue" stroke-width="2" />
<path d="M1897,1878 L2534,468" stroke="blue" stroke-width="2" />
<path d="M2516,1199 L435,1043" stroke="blue" stroke-width="2" />
<path d="M6,1219 L3063,1463" stroke="blue" stroke-width="2" />
<path d="M478,339 L181,1656" stroke="blue" stroke-width="2" />
<path d="M908,989 L657,1797" stroke="blue" stroke-width="2" />
<path d="M972,1678 L3045,2118" stroke="blue" stroke-width="2" />
<path d="M2578,685 L106,294" stroke="blue" stroke-width="2" />
<path d="M3058,392 L2701,114" stroke="blue" stroke-width="2" />
<path d="M126,1799 L2244,1231" stroke="blue" stroke-width="2" />
<path d="M998,10 L2500,843" stroke="blue" stroke-width="2" />
<path d="M1396,2390 L1099,168" stroke="blue" stroke-width="2" />
<path d="M2914,174 L2940,613" stroke="blue" stroke-width="2" />
<path d="M291,730 L677,1456" stroke="blue" stroke-width="2" />
<path d="M2998,109 L2279,279" stroke="blue" stroke-width="2" />
<path d="M396,1800 L314,2064" stroke="blue" stroke-width="2" />
<path d="M346,1330 L577,1747" stroke="blue" stroke-width="2" />
<path d="M1446,43 L2155,2399" stroke="blue" stroke-width="2" />
<path d="M2580,797 L2387,2153" stroke="blue" stroke-width="2" />
<path d="M1122,1382 L241,772" stroke="blue" stroke-width="2" />
<path d="M291,348 L3073,1062" stroke="blue" stroke-width="2" />
<path d="M2393,1776 L116,1086" stroke="blue" stroke-width="2" />
<path d="M483,1798 L1680,69" stroke="blue" stroke-width="2" />
<path d="M301,1649 L2784,1315" stroke="blue" stroke-width="2" />
<path d="M1919,2178 L2382,1924" stroke="blue" stroke-width="2" />
<path d="M223,307 L2634,706" stroke="blue" stroke-width="2" />
<path d="M1920,2148 L131,895" stroke="blue" stroke-width="2" />
<path d="M2186,2124 L594,2197" stroke="blue" stroke-width="2" />
<path d="M1894,517 L2285,611" stroke="blue" stroke-width="2" />
<path d="M796,357 L1898,1408" stroke="blue" stroke-width="2" />
<path d="M1951,821 L2222,1189" stroke="blue" stroke-width="2" />
<path d="M936,706 L1699,1430" stroke="blue" stroke-width="2" />
<path d="M1908,441 L2923,1284" stroke="blue" stroke-width="2" />
<path d="M2931,212 L1312,1495" stroke="blue" stroke-width="2" />
<path d="M2143,958 L1266,1733" stroke="blue" stroke-width="2" />
<path d="M312,2064 L2824,2249" stroke="blue" stroke-width="2" />
<path d="M814,78 L991,1208" stroke="blue" stroke-width="2" />
<path d="M1089,1566 L993,2344" stroke="blue" stroke-width="2" />
<path d="M1782,275 L739,1647" stroke="blue" stroke-width="2" />
<path d="M1344,510 L2538,1681" stroke="blue" stroke-width="2" />
<path d="M27,1934 L1905,166" stroke="blue" stroke-width="2" />
<path d="M86,552 L2346,1081" stroke="blue" stroke-width="2" />
<path d="M4,1104 L2820,1436" stroke="blue" stroke-width="2" />
<path d="M486,171 L1184,1334" stroke="blue" stroke-width="2" />
<path d="M1018,1113 L2057,361" stroke="blue" stroke-width="2" />
<path d="M595,868 L2392,664" stroke="blue" stroke-width="2" />
<path d="M2748,638 L260,1706" stroke="blue" stroke-width="2" />
<path d="M638,440 L1162,1723" stroke="blue" stroke-width="2" />
<path d="M1646,663 L696,2154" stroke="blue" stroke-width="2" />
<path d="M1609,134 L2776,1001" stroke="blue" stroke-width="2" />
<path d="M1009,891 L707,1556" stroke="blue" stroke-width="2" />
<path d="M2438,465 L232,684" stroke="blue" stroke-width="2" />
<path d="M2286,285 L1743,1941" stroke="blue" stroke-width="2" />
<path d="M806,247 L872,758" stroke="blue" stroke-width="2" />
<path d="M1784,140 L1026,1002" stroke="blue" stroke-width="2" />
<path d="M731,1296 L2540,1291" stroke="blue" stroke-width="2" />
<path d="M679,1085 L205,41" stroke="blue" stroke-width="2" />
<path d="M2265,1729 L2498,1553" stroke="blue" stroke-width="2" />
<path d="M1454,1326 L1503,2275" stroke="blue" stroke-width="2" />
<path d="M1867,1205 L2631,120" stroke="blue" stroke-width="2" />
<path d="M1008,1580 L2948,2261" stroke="blue" stroke-width="2" />
<path d="M2712,1980 L1957,351" stroke="blue" stroke-width="2" />
<path d="M1058,1927 L1624,2051" stroke="blue" stroke-width="2" />
<path d="M863,1841 L188,2109" stroke="blue" stroke-width="2" />
<path d="M2210,2251 L759,287" stroke="blue" stroke-width="2" />
<path d="M1495,963 L580,709" stroke="blue" stroke-width="2" />
<path d="M109,563 L1981,1169" stroke="blue" stroke-width="2" />
<path d="M1666,1666 L691,1056" stroke="blue" stroke-width="2" />
<path d="M2668,868 L2670,1201" stroke="blue" stroke-width="2" />
<path d="M2179,1317 L2626,634" stroke="blue" stroke-width="2" />
<path d="M235,166 L975,1584" stroke="blue" stroke-width="2" />
<path d="M1177,222 L1792,457" stroke="blue" stroke-width="2" />
<path d="M1702,2406 L1061,1293" stroke="blue" stroke-width="2" />
<path d="M1440,507 L663,522" stroke="blue" stroke-width="2" />
<path d="M2588,2405 L779,332" stroke="blue" stroke-width="2" />
<path d="M1060,994 L1825,1911" stroke="blue" stroke-width="2" />
<path d="M2530,2298 L1711,314" stroke="blue" stroke-width="2" />
<path d="M1102,2368 L1686,879" stroke="blue" stroke-width="2" />
<path d="M1363,462 L1399,1111" stroke="blue" stroke-width="2" />
<path d="M1228,584 L1649,1662" stroke="blue" stroke-width="2" />
<path d="M1011,361 L306,1432" stroke="blue" stroke-width="2" />
<path d="M2948,1918 L2365,351" stroke="blue" stroke-width="2" />
<path d="M2387,1728 L2464,2150" stroke="blue" stroke-width="2" />
<path d="M637,2342 L1696,168" stroke="blue" stroke-width="2" />
<path d="M2964,913 L2643,510" stroke="blue" stroke-width="2" />
<path d="M1263,887 L1050,542" stroke="blue" stroke-width="2" />
<path d="M2368,2327 L1735,791" stroke="blue" stroke-width="2" />
<path d="M129,2292 L2360,145" stroke="blue" stroke-width="2" />
<path d="M2239,358 L54,2098" stroke="blue" stroke-width="2" />
<path d="M2402,247 L1606,2319" stroke="blue" stroke-width="2" />
<path d="M135,686 L1122,1947" stroke="blue" stroke-width="2" />
<path d="M333,2137 L1223,119" stroke="blue" stroke-width="2" />
<path d="M1033,1039 L2573,189" stroke="blue" stroke-width="2" />
<path d="M1892,2135 L2986,595" stroke="blue" stroke-width="2" />
<path d="M1085,835 L1237,148" stroke="blue" stroke-width="2" />
<path d="M852,742 L2567,1164" stroke="blue" stroke-width="2" />
<path d="M2607,1539 L78,1549" stroke="blue" stroke-width="2" />
<path d="M3049,649 L2410,1707" stroke="blue" stroke-width="2" />
<path d="M698,989 L1686,1338" stroke="blue" stroke-width="2" />
<path d="M1179,432 L2981,416" stroke="blue" stroke-width="2" />
<path d="M733,1770 L1228,7" stroke="blue" stroke-width="2" />
<path d="M539,859 L465,539" stroke="blue" stroke-width="2" />
<path d="M1212,1933 L993,872" stroke="blue" stroke-width="2" />
<path d="M914,2382 L202,1667" stroke="blue" stroke-width="2" />
<path d="M2802,1570 L1928,1284" stroke="blue" stroke-width="2" />
<path d="M599,1733 L1989,1600" stroke="blue" stroke-width="2" />
<path d="M1197,247 L1575,2388" stroke="blue" stroke-width="2" />
<path d="M792,2100 L2198,1546" stroke="blue" stroke-width="2" />
<path d="M362,837 L1317,1428" stroke="blue" stroke-width="2" />
<path d="M590,868 L301,1954" stroke="blue" stroke-width="2" />
<path d="M1716,2189 L1310,2348" stroke="blue" stroke-width="2" />
<path d="M438,2367 L15,726" stroke="blue" stroke-width="2" />
<path d="M2887,2278 L1281,2273" stroke="blue" stroke-width="2" />
<path d="M682,1402 L921,874" stroke="blue" stroke-width="2" />
<path d="M2600,478 L730,969" stroke="blue" stroke-width="2" />
<path d="M2798,1269 L1152,1450" stroke="blue" stroke-width="2" />
<path d="M1210,1479 L2570,1465" stroke="blue" stroke-width="2" />
<path d="M66,2176 L2942,1737" stroke="blue" stroke-width="2" />
<path d="M761,322 L2116,1877" stroke="blue" stroke-width="2" />
<path d="M50,1157 L1870,1873" stroke="blue" stroke-width="2" />
<path d="M1216,2116 L2571,46" stroke="blue" stroke-width="2" />
<path d="M263,1109 L169,1244" stroke="blue" stroke-width="2" />
<path d="M1256,1752 L810,34" stroke="blue" stroke-width="2" />
<path d="M1900,1347 L1207,1953" stroke="blue" stroke-width="2" />
<path d="M1451,702 L584,322" stroke="blue" stroke-width="2" />
<path d="M2034,771 L334,966" stroke="blue" stroke-width="2" />
<path d="M2879,548 L2729,147" stroke="blue" stroke-width="2" />
<path d="M1605,1161 L904,1462" stroke="blue" stroke-width="2" />
<path d="M1414,935 L1219,2187" stroke="blue" stroke-width="2" />
<path d="M877,1286 L2641,939" stroke="blue" stroke-width="2" />
<path d="M2805,1976 L838,1838" stroke="blue" stroke-width="2" />
<path d="M1670,1607 L88,1174" stroke="blue" stroke-width="2" />
<path d="M921,1503 L1842,181" stroke="blue" stroke-width="2" />
<path d="M1615,1438 L1815,2326" stroke="blue" stroke-width="2" />
<path d="M1129,909 L1599,2291" stroke="blue" stroke-width="2" />
<path d="M31,2022 L1501,62" stroke="blue" stroke-width="2" />
<path d="M2771,491 L558,620" stroke="blue" stroke-width="2" />
<path d="M2350,1958 L1039,156" stroke="blue" stroke-width="2" />
<path d="M2040,1856 L1002,1699" stroke="blue" stroke-width="2" />
<path d="M1678,265 L1587,1647" stroke="blue" stroke-width="2" />
<path d="M325,228 L1961,1848" stroke="blue" stroke-width="2" />
<path d="M2696,665 L15,487" stroke="blue" stroke-width="2" />
<path d="M433,1040 L135,581" stroke="blue" stroke-width="2" />
<path d="M2681,320 L2372,2022" stroke="blue" stroke-width="2" />
<path d="M574,1817 L1107,745" stroke="blue" stroke-width="2" />
<path d="M1064,724 L1716,1083" stroke="blue" stroke-width="2" />
<path d="M339,1285 L1941,682" stroke="blue" stroke-width="2" />
<path d="M2458,2356 L1200,1430" stroke="blue" stroke-width="2" />
<path d="M2388,1019 L1074,781" stroke="blue" stroke-width="2" />
<path d="M1027,193 L1074,111" stroke="blue" stroke-width="2" />
<path d="M1433,1587 L2145,1261" stroke="blue" stroke-width="2" />
<path d="M963,1725 L1196,651" stroke="blue" stroke-width="2" />
<path d="M2985,1581 L1686,465" stroke="blue" stroke-width="2" />
<path d="M2672,2091 L1602,110" stroke="blue" stroke-width="2" />
<path d="M1974,742 L191,632" stroke="blue" stroke-width="2" />
<path d="M1806,1772 L2519,1624" stroke="blue" stroke-width="2" />
<path d="M1803,2400 L2475,1199" stroke="blue" stroke-width="2" />
<path d="M2487,1244 L1611,1197" stroke="blue" stroke-width="2" />
<path d="M625,1147 L2806,509" stroke="blue" stroke-width="2" />
<path d="M1539,2192 L1751,10" stroke="blue" stroke-width="2" />
<path d="M1868,796 L1575,1628" stroke="blue" stroke-width="2" />
<path d="M470,1993 L2829,875" stroke="blue" stroke-width="2" />
<path d="M140,1015 L2806,1219" stroke="blue" stroke-width="2" />
<path d="M1415,1888 L1852,1809" stroke="blue" stroke-width="2" />
<path d="M1020,1869 L2921,2308" stroke="blue" stroke-width="2" />
<path d="M1738,803 L635,2090" stroke="blue" stroke-width="2" />
<path d="M889,448 L2738,110" stroke="blue" stroke-width="2" />
<path d="M1195,414 L136,1099" stroke="blue" stroke-width="2" />
<path d="M2698,433 L2752,2369" stroke="blue" stroke-width="2" />
<path d="M617,1375 L2993,1348" stroke="blue" stroke-width="2" />
<path d="M3012,511 L661,1464" stroke="blue" stroke-width="2" />
<path d="M2889,1503 L1222,481" stroke="blue" stroke-width="2" />
<path d="M3008,1782 L1772,68" stroke="blue" stroke-width="2" />
<path d="M913,241 L649,1285" stroke="blue" stroke-width="2" />
<path d="M509,18 L2714,2179" stroke="blue" stroke-width="2" />
<path d="M2199,964 L829,389" stroke="blue" stroke-width="2" />
<path d="M1799,686 L1098,21" stroke="blue" stroke-width="2" />
<path d="M428,2269 L1921,762" stroke="blue" stroke-width="2" />
<path d="M1022,302 L2063,662" stroke="blue" stroke-width="2" />
<path d="M222,1277 L347,1811" stroke="blue" stroke-width="2" />
<path d="M1848,721 L1650,2027" stroke="blue" stroke-width="2" />
<path d="M2150,1658 L1888,905" stroke="blue" stroke-width="2" />
<path d="M1004,365 L900,190" stroke="blue" stroke-width="2" />
<path d="M986,1029 L2923,473" stroke="blue" stroke-width="2" />
<path d="M1194,1048 L1772,332" stroke="blue" stroke-width="2" />
<path d="M2215,1483 L2668,522" stroke="blue" stroke-width="2" />
<path d="M2323,1608 L399,80" stroke="blue" stroke-width="2" />
<path d="M149,1385 L2293,1067" stroke="blue" stroke-width="2" />
<path d="M351,1209 L1121,1592" stroke="blue" stroke-width="2" />
<path d="M616,2132 L3027,1324" stroke="blue" stroke-width="2" />
<path d="M2239,2173 L2996,1080" stroke="blue" stroke-width="2" />
<path d="M3044,1531 L942,10" stroke="blue" stroke-width="2" />
<path d="M2052,798 L2207,231" stroke="blue" stroke-width="2" />
<path d="M1897,703 L437,1338" stroke="blue" stroke-width="2" />
<path d="M1387,2060 L2338,1560" stroke="blue" stroke-width="2" />
<path d="M2275,1818 L491,644" stroke="blue" stroke-width="2" />
<path d="M1182,198 L2362,180" stroke="blue" stroke-width="2" />
<path d="M1445,44 L936,1833" stroke="blue" stroke-width="2" />
<path d="M2575,2225 L286,663" stroke="blue" stroke-width="2" />
<path d="M1253,616 L2716,487" stroke="blue" stroke-width="2" />
<path d="M2330,874 L2125,627" stroke="blue" stroke-width="2" />
<path d="M1981,1074 L3015,1766" stroke="blue" stroke-width="2" />
<path d="M2695,2129 L1070,1286" stroke="blue" stroke-width="2" />
<path d="M2675,2294 L1635,2225" stroke="blue" stroke-width="2" />
<path d="M2133,79 L168,1959" stroke="blue" stroke-width="2" />
<path d="M18,1130 L1478,1912" stroke="blue" stroke-width="2" />
<path d="M3053,1510 L899,2103" stroke="blue" stroke-width="2" />
<path d="M840,1911 L2018,364" stroke="blue" stroke-width="2" />
<path d="M930,2351 L572,2233" stroke="blue" stroke-width="2" />
<path d="M1301,1498 L102,17" stroke="blue" stroke-width="2" />
<path d="M2201,202 L2566,636" stroke="blue" stroke-width="2" />
<path d="M1820,1762 L870,539" stroke="blue" stroke-width="2" />
<path d="M2487,1466 L2980,1889" stroke="blue" stroke-width="2" />
<path d="M1699,1729 L1196,1272" stroke="blue" stroke-width="2" />
<path d="M2814,1531 L1392,1295" stroke="blue" stroke-width="2" />
<path d="M0,0 L3074,0" stroke="red" stroke-width="10" />
<path d="M3074,0 L3074,2408" stroke="red" stroke-width="10" />
<path d="M0,2408 L3074,2408" stroke="red" stroke-width="10" />
<path d="M0,2408 L0,0" stroke="red" stroke-width="10" />
</svg>