<?xml version="1.0" encoding="UTF-8"?>
<svg xmlns="http://www.w3.org/2000/svg" xmlns:xlink="http://www.w3.org/1999/xlink"
     width="10000" height="10000" viewBox="0 0 10000 10000">
<defs>
</defs>
<path d="M5871,2588 L3329,2656" stroke="blue" stroke-width="2" />
<path d="M6481,2747 L4291,1474" stroke="blue" stroke-width="2" />
<path d="M6388,2799 L6096,369" stroke="blue" stroke-width="2" />
<path d="M246,247 L3710,2992" stroke="blue" stroke-width="2" />
<path d="M1430,1671 L5056,2253" stroke="blue" stroke-width="2" />
<path d="M34,1310 L6135,1180" stroke="blue" stroke-width="2" />
<path d="M3277,2831 L4956,2739" stroke="blue" stroke-width="2" />
<path d="M4173,1540 L2602,194" stroke="blue" stroke-width="2" />
<path d="M5323,2422 L975,1756" stroke="blue" stroke-width="2" />
<path d="M5386,1226 L1113,157" stroke="blue" stroke-width="2" />
<path d="M4734,2343 L242,1770" stroke="blue" stroke-width="2" />
<path d="M1952,3114 L4936,1108" stroke="blue" stroke-width="2" />
<path d="M2772,664 L6346,488" stroke="blue" stroke-width="2" />
<path d="M4343,194 L607,2128" stroke="blue" stroke-width="2" />
<path d="M5504,822 L1496,1520" stroke="blue" stroke-width="2" />
<path d="M1302,2223 L1956,2275" stroke="blue" stroke-width="2" />
<path d="M6168,2020 L300,1789" stroke="blue" stroke-width="2" />
<path d="M2435,2682 L4816,396" stroke="blue" stroke-width="2" />
<path d="M4599,851 L2768,2324" stroke="blue" stroke-width="2" />
<path d="M5853,2036 L116,1261" stroke="blue" stroke-width="2" />
<path d="M6561,2864 L6785,1681" stroke="blue" stroke-width="2" />
<path d="M3995,2312 L423,2738" stroke="blue" stroke-width="2" />
<path d="M4457,3138 L4535,2217" stroke="blue" stroke-width="2" />
<path d="M869,1130 L5528,232" stroke="blue" stroke-width="2" />
<path d="M2024,1876 L3079,3009" stroke="blue" stroke-width="2" />
<path d="M6454,864 L5085,2690" stroke="blue" stroke-width="2" />
<path d="M3380,411 L5163,272" stroke="blue" stroke-width="2" />
<path d="M121,2943 L788,2579" stroke="blue" stroke-width="2" />
<path d="M4044,2170 L2847,2392" stroke="blue" stroke-width="2" />
<path d="M129,3059 L6491,552" stroke="blue" stroke-width="2" />
<path d="M2131,2594 L1643,2080" stroke="blue" stroke-width="2" />
<path d="M6272,254 L2554,123" stroke="blue" stroke-width="2" />
<path d="M4263,1667 L3027,1322" stroke="blue" stroke-width="2" />
<path d="M3422,2933 L5630,2353" stroke="blue" stroke-width="2" />
<path d="M3078,1277 L3017,424" stroke="blue" stroke-width="2" />
<path d="M3294,1185 L3521,152" stroke="blue" stroke-width="2" />
<path d="M6690,1876 L818,953" stroke="blue" stroke-width="2" />
<path d="M6852,2072 L2328,1736" stroke="blue" stroke-width="2" />
<path d="M2984,633 L555,857" stroke="blue" stroke-width="2" />
<path d="M475,151 L1157,2893" stroke="blue" stroke-width="2" />
<path d="M4843,2727 L2460,2662" stroke="blue" stroke-width="2" />
<path d="M3919,2320 L6464,211" stroke="blue" stroke-width="2" />
<path d="M3087,1207 L4888,3094" stroke="blue" stroke-width="2" />
<path d="M4782,2118 L4054,112" stroke="blue" stroke-width="2" />
<path d="M1507,1739 L5611,1786" stroke="blue" stroke-width="2" />
<path d="M1242,591 L3086,2087" stroke="blue" stroke-width="2" />
<path d="M1653,1164 L703,2546" stroke="blue" stroke-width="2" />
<path d="M2760,2947 L6054,2180" stroke="blue" stroke-width="2" />
<path d="M1944,1968 L6442,1040" stroke="blue" stroke-width="2" />
<path d="M4907,1493 L832,1925" stroke="blue" stroke-width="2" />
<path d="M1821,3002 L4993,2850" stroke="blue" stroke-width="2" />
<path d="M4110,1073 L6113,185" stroke="blue" stroke-width="2" />
<path d="M4489,2388 L4294,693" stroke="blue" stroke-width="2" />
<path d="M5554,1810 L3820,1184" stroke="blue" stroke-width="2" />
<path d="M1361,732 L3629,2520" stroke="blue" stroke-width="2" />
<path d="M3736,2778 L3725,2296" stroke="blue" stroke-width="2" />
<path d="M4160,233 L4675,1342" stroke="blue" stroke-width="2" />
<path d="M4721,2790 L6462,2361" stroke="blue" stroke-width="2" />
<path d="M1986,2200 L6442,506" stroke="blue" stroke-width="2" />
<path d="M3957,2408 L4824,302" stroke="blue" stroke-width="2" />
<path d="M2062,631 L5114,2152" stroke="blue" stroke-width="2" />
<path d="M2812,1129 L3823,1888" stroke="blue" stroke-width="2" />
<path d="M2754,2689 L4657,1481" stroke="blue" stroke-width="2" />
<path d="M6445,2085 L4742,1707" stroke="blue" stroke-width="2" />
<path d="M6078,331 L2620,2213" stroke="blue" stroke-width="2" />
<path d="M3295,2318 L1826,2401" stroke="blue" stroke-width="2" />
<path d="M2641,150 L6142,1814" stroke="blue" stroke-width="2" />
<path d="M1721,1893 L6617,596" stroke="blue" stroke-width="2" />
<path d="M3622,1086 L2551,3126" stroke="blue" stroke-width="2" />
<path d="M6681,434 L3121,597" stroke="blue" stroke-width="2" />
<path d="M6762,2267 L1178,2171" stroke="blue" stroke-width="2" />
<path d="M2154,1659 L3988,2352" stroke="blue" stroke-width="2" />
<path d="M5404,2467 L6626,1657" stroke="blue" stroke-width="2" />
<path d="M901,3047 L4348,2681" stroke="blue" stroke-width="2" />
<path d="M5447,318 L1264,1095" stroke="blue" stroke-width="2" />
<path d="M4137,2040 L3995,2708" stroke="blue" stroke-width="2" />
<path d="M2365,117 L1399,2858" stroke="blue" stroke-width="2" />
<path d="M1072,2640 L56,1874" stroke="blue" stroke-width="2" />
<path d="M3039,2511 L1570,2178" stroke="blue" stroke-width="2" />
<path d="M4816,2288 L3829,3197" stroke="blue" stroke-width="2" />
<path d="M3010,2549 L6144,1286" stroke="blue" stroke-width="2" />
<path d="M5594,576 L811,47" stroke="blue" stroke-width="2" />
<path d="M3582,2144 L1049,429" stroke="blue" stroke-width="2" />
<path d="M6988,3118 L4922,1732" stroke="blue" stroke-width="2" />
<path d="M6685,372 L6365,531" stroke="blue" stroke-width="2" />
<path d="M5399,1647 L1522,2758" stroke="blue" stroke-width="2" />
<path d="M4186,1169 L6209,2432" stroke="blue" stroke-width="2" />
<path d="M3647,2074 L2448,3081" stroke="blue" stroke-width="2" />
<path d="M6643,2499 L1184,915" stroke="blue" stroke-width="2" />
<path d="M2032,260 L569,2306" stroke="blue" stroke-width="2" />
<path d="M5344,111 L1424,12" stroke="blue" stroke-width="2" />
<path d="M1690,1964 L2983,1315" stroke="blue" stroke-width="2" />
<path d="M3826,183 L6592,2566" stroke="blue" stroke-width="2" />
<path d="M1155,86 L4016,2604" stroke="blue" stroke-width="2" />
<path d="M1718,2280 L152,194" stroke="blue" stroke-width="2" />
<path d="M1096,1803 L1557,1946" stroke="blue" stroke-width="2" />
<path d="M5461,1120 L2908,1703" stroke="blue" stroke-width="2" />
<path d="M5794,3094 L1850,911" stroke="blue" stroke-width="2" />
<path d="M0,0 L7003,0" stroke="red" stroke-width="10" />
<path d="M7003,0 L7003,3213" stroke="red" stroke-width="10" />
<path d="M0,3213 L7003,3213" stroke="red" stroke-width="10" />
<path d="M0,3213 L0,0" stroke="red" stroke-width="10" />
</svg>