<?xml version="1.0" encoding="UTF-8"?>
<svg xmlns="http://www.w3.org/2000/svg" xmlns:xlink="http://www.w3.org/1999/xlink"
     width="10000" height="10000" viewBox="0 0 10000 10000">
<defs>
</defs>
<path d="M3008,1753 L2739,6404" stroke="blue" stroke-width="2" />
<path d="M923,1465 L1019,482" stroke="blue" stroke-width="2" />
<path d="M3101,579 L1966,5970" stroke="blue" stroke-width="2" />
<path d="M940,6544 L879,5124" stroke="blue" stroke-width="2" />
<path d="M2425,2247 L3513,7521" stroke="blue" stroke-width="2" />
<path d="M1858,3262 L1096,2139" stroke="blue" stroke-width="2" />
<path d="M1748,4998 L2139,4206" stroke="blue" stroke-width="2" />
<path d="M2244,1735 L2542,7160" stroke="blue" stroke-width="2" />
<path d="M1038,5485 L1025,916" stroke="blue" stroke-width="2" />
<path d="M151,3274 L1829,1549" stroke="blue" stroke-width="2" />
<path d="M1488,768 L825,3994" stroke="blue" stroke-width="2" />
<path d="M692,3224 L2028,3543" stroke="blue" stroke-width="2" />
<path d="M3746,5942 L1396,3373" stroke="blue" stroke-width="2" />
<path d="M3243,2425 L3682,4965" stroke="blue" stroke-width="2" />
<path d="M3071,356 L1934,3246" stroke="blue" stroke-width="2" />
<path d="M65,7706 L1218,1655" stroke="blue" stroke-width="2" />
<path d="M1413,6192 L3760,3616" stroke="blue" stroke-width="2" />
<path d="M82,636 L1801,2537" stroke="blue" stroke-width="2" />
<path d="M458,5860 L605,956" stroke="blue" stroke-width="2" />
<path d="M1485,1855 L3056,2902" stroke="blue" stroke-width="2" />
<path d="M1099,7302 L2730,617" stroke="blue" stroke-width="2" />
<path d="M1874,1200 L327,5838" stroke="blue" stroke-width="2" />
<path d="M2962,2053 L1524,4069" stroke="blue" stroke-width="2" />
<path d="M3409,4344 L2767,7389" stroke="blue" stroke-width="2" />
<path d="M3235,807 L2836,5103" stroke="blue" stroke-width="2" />
<path d="M2501,5211 L572,4936" stroke="blue" stroke-width="2" />
<path d="M2377,3929 L690,3078" stroke="blue" stroke-width="2" />
<path d="M3299,3395 L1140,3562" stroke="blue" stroke-width="2" />
<path d="M1237,6928 L47,1978" stroke="blue" stroke-width="2" />
<path d="M3421,7648 L2324,1369" stroke="blue" stroke-width="2" />
<path d="M1672,4075 L2637,2323" stroke="blue" stroke-width="2" />
<path d="M2461,5462 L1023,5799" stroke="blue" stroke-width="2" />
<path d="M376,1843 L1181,626" stroke="blue" stroke-width="2" />
<path d="M912,5033 L3367,6771" stroke="blue" stroke-width="2" />
<path d="M3436,5547 L1238,6967" stroke="blue" stroke-width="2" />
<path d="M2951,6395 L1932,3302" stroke="blue" stroke-width="2" />
<path d="M3604,3050 L881,5303" stroke="blue" stroke-width="2" />
<path d="M2491,680 L284,1365" stroke="blue" stroke-width="2" />
<path d="M784,2330 L2011,6781" stroke="blue" stroke-width="2" />
<path d="M1947,241 L2750,1743" stroke="blue" stroke-width="2" />
<path d="M1881,3496 L3354,5714" stroke="blue" stroke-width="2" />
<path d="M2562,4639 L1839,5196" stroke="blue" stroke-width="2" />
<path d="M414,6658 L3264,3157" stroke="blue" stroke-width="2" />
<path d="M2917,2318 L2345,6902" stroke="blue" stroke-width="2" />
<path d="M2577,407 L1701,3322" stroke="blue" stroke-width="2" />
<path d="M3048,2986 L1945,3658" stroke="blue" stroke-width="2" />
<path d="M3751,5697 L2349,1650" stroke="blue" stroke-width="2" />
<path d="M3571,3309 L2548,4871" stroke="blue" stroke-width="2" />
<path d="M451,3563 L3592,1252" stroke="blue" stroke-width="2" />
<path d="M998,6230 L2995,2092" stroke="blue" stroke-width="2" />
<path d="M751,1969 L570,5309" stroke="blue" stroke-width="2" />
<path d="M45,1143 L1051,5250" stroke="blue" stroke-width="2" />
<path d="M949,1051 L1440,2506" stroke="blue" stroke-width="2" />
<path d="M667,480 L2059,238" stroke="blue" stroke-width="2" />
<path d="M550,2379 L1766,5770" stroke="blue" stroke-width="2" />
<path d="M3394,1102 L1681,6376" stroke="blue" stroke-width="2" />
<path d="M1280,1449 L2965,3029" stroke="blue" stroke-width="2" />
<path d="M700,322 L167,6560" stroke="blue" stroke-width="2" />
<path d="M1973,6873 L2139,7700" stroke="blue" stroke-width="2" />
<path d="M1008,5647 L2586,6348" stroke="blue" stroke-width="2" />
<path d="M3299,5833 L2894,7070" stroke="blue" stroke-width="2" />
<path d="M412,71 L3473,2003" stroke="blue" stroke-width="2" />
<path d="M916,6267 L2840,3043" stroke="blue" stroke-width="2" />
<path d="M3029,6750 L571,679" stroke="blue" stroke-width="2" />
<path d="M2699,6993 L3090,6626" stroke="blue" stroke-width="2" />
<path d="M855,5938 L504,1523" stroke="blue" stroke-width="2" />
<path d="M3352,2013 L3644,1239" stroke="blue" stroke-width="2" />
<path d="M2852,3720 L697,1634" stroke="blue" stroke-width="2" />
<path d="M3004,1680 L2016,6438" stroke="blue" stroke-width="2" />
<path d="M819,1029 L504,3931" stroke="blue" stroke-width="2" />
<path d="M3238,4087 L2628,230" stroke="blue" stroke-width="2" />
<path d="M1385,5854 L1028,4472" stroke="blue" stroke-width="2" />
<path d="M2833,2758 L3689,5581" stroke="blue" stroke-width="2" />
<path d="M2456,2714 L3586,5985" stroke="blue" stroke-width="2" />
<path d="M1713,1566 L277,1264" stroke="blue" stroke-width="2" />
<path d="M1001,820 L3672,4083" stroke="blue" stroke-width="2" />
<path d="M2680,3790 L2806,792" stroke="blue" stroke-width="2" />
<path d="M3257,779 L2755,1477" stroke="blue" stroke-width="2" />
<path d="M671,2280 L2871,316" stroke="blue" stroke-width="2" />
<path d="M2470,2154 L190,4437" stroke="blue" stroke-width="2" />
<path d="M721,7526 L1285,1431" stroke="blue" stroke-width="2" />
<path d="M3408,6223 L2145,6421" stroke="blue" stroke-width="2" />
<path d="M1242,317 L604,4344" stroke="blue" stroke-width="2" />
<path d="M2621,4893 L2931,602" stroke="blue" stroke-width="2" />
<path d="M142,788 L3151,6529" stroke="blue" stroke-width="2" />
<path d="M2290,6256 L1195,1656" stroke="blue" stroke-width="2" />
<path d="M2937,4713 L1202,7047" stroke="blue" stroke-width="2" />
<path d="M1098,6188 L2295,4112" stroke="blue" stroke-width="2" />
<path d="M2253,606 L3041,1942" stroke="blue" stroke-width="2" />
<path d="M542,4644 L2760,5315" stroke="blue" stroke-width="2" />
<path d="M2814,2162 L1213,2385" stroke="blue" stroke-width="2" />
<path d="M1326,7017 L2831,7236" stroke="blue" stroke-width="2" />
<path d="M489,5564 L1357,1442" stroke="blue" stroke-width="2" />
<path d="M137,375 L3407,4111" stroke="blue" stroke-width="2" />
<path d="M111,3788 L1722,7588" stroke="blue" stroke-width="2" />
<path d="M2470,5507 L2296,5384" stroke="blue" stroke-width="2" />
<path d="M605,6133 L2704,3685" stroke="blue" stroke-width="2" />
<path d="M173,4675 L2858,5883" stroke="blue" stroke-width="2" />
<path d="M2731,75 L1285,5752" stroke="blue" stroke-width="2" />
<path d="M2299,1015 L2471,1113" stroke="blue" stroke-width="2" />
<path d="M1903,1323 L2061,7630" stroke="blue" stroke-width="2" />
<path d="M910,6227 L2887,3721" stroke="blue" stroke-width="2" />
<path d="M2532,2777 L395,2864" stroke="blue" stroke-width="2" />
<path d="M3217,2625 L3700,553" stroke="blue" stroke-width="2" />
<path d="M1099,6053 L2430,3140" stroke="blue" stroke-width="2" />
<path d="M282,4422 L96,2426" stroke="blue" stroke-width="2" />
<path d="M1007,2645 L1383,3881" stroke="blue" stroke-width="2" />
<path d="M343,1096 L1497,2321" stroke="blue" stroke-width="2" />
<path d="M3219,4116 L261,6174" stroke="blue" stroke-width="2" />
<path d="M352,4105 L500,2946" stroke="blue" stroke-width="2" />
<path d="M2376,7111 L659,6092" stroke="blue" stroke-width="2" />
<path d="M98,6639 L2603,313" stroke="blue" stroke-width="2" />
<path d="M1539,6574 L624,3848" stroke="blue" stroke-width="2" />
<path d="M3310,2871 L1991,3841" stroke="blue" stroke-width="2" />
<path d="M208,1750 L1629,514" stroke="blue" stroke-width="2" />
<path d="M790,696 L3154,5398" stroke="blue" stroke-width="2" />
<path d="M336,5397 L1209,856" stroke="blue" stroke-width="2" />
<path d="M2855,3730 L410,2942" stroke="blue" stroke-width="2" />
<path d="M2055,4172 L1487,4642" stroke="blue" stroke-width="2" />
<path d="M1670,78 L2905,3884" stroke="blue" stroke-width="2" />
<path d="M1345,1918 L755,2815" stroke="blue" stroke-width="2" />
<path d="M2331,2347 L2377,2156" stroke="blue" stroke-width="2" />
<path d="M1138,3724 L1236,2822" stroke="blue" stroke-width="2" />
<path d="M228,1567 L3716,4190" stroke="blue" stroke-width="2" />
<path d="M761,6842 L3402,2859" stroke="blue" stroke-width="2" />
<path d="M2860,4792 L3588,799" stroke="blue" stroke-width="2" />
<path d="M2832,4484 L3254,3195" stroke="blue" stroke-width="2" />
<path d="M370,6539 L1839,7423" stroke="blue" stroke-width="2" />
<path d="M1044,6389 L296,5582" stroke="blue" stroke-width="2" />
<path d="M369,3377 L572,6314" stroke="blue" stroke-width="2" />
<path d="M3057,5711 L1098,5607" stroke="blue" stroke-width="2" />
<path d="M3022,4548 L1795,4608" stroke="blue" stroke-width="2" />
<path d="M3679,6281 L2581,4266" stroke="blue" stroke-width="2" />
<path d="M3090,1395 L2110,1561" stroke="blue" stroke-width="2" />
<path d="M2986,2362 L925,5905" stroke="blue" stroke-width="2" />
<path d="M913,5358 L2622,7347" stroke="blue" stroke-width="2" />
<path d="M2582,6360 L2514,3964" stroke="blue" stroke-width="2" />
<path d="M2887,273 L1818,3146" stroke="blue" stroke-width="2" />
<path d="M2819,1254 L988,5477" stroke="blue" stroke-width="2" />
<path d="M845,1315 L11,4690" stroke="blue" stroke-width="2" />
<path d="M3541,3144 L859,374" stroke="blue" stroke-width="2" />
<path d="M2089,2296 L2952,3032" stroke="blue" stroke-width="2" />
<path d="M1120,4026 L3194,3924" stroke="blue" stroke-width="2" />
<path d="M2349,5260 L2023,6641" stroke="blue" stroke-width="2" />
<path d="M3762,6796 L203,1093" stroke="blue" stroke-width="2" />
<path d="M3526,7408 L3241,3531" stroke="blue" stroke-width="2" />
<path d="M506,3950 L3524,2548" stroke="blue" stroke-width="2" />
<path d="M414,3300 L1062,3568" stroke="blue" stroke-width="2" />
<path d="M1494,6490 L2891,4703" stroke="blue" stroke-width="2" />
<path d="M1067,5623 L2291,6159" stroke="blue" stroke-width="2" />
<path d="M2353,2471 L1162,7304" stroke="blue" stroke-width="2" />
<path d="M826,7311 L2539,5975" stroke="blue" stroke-width="2" />
<path d="M394,7063 L783,1676" stroke="blue" stroke-width="2" />
<path d="M2680,3034 L739,947" stroke="blue" stroke-width="2" />
<path d="M2851,1169 L1438,4224" stroke="blue" stroke-width="2" />
<path d="M667,5158 L2013,1844" stroke="blue" stroke-width="2" />
<path d="M193,3143 L797,390" stroke="blue" stroke-width="2" />
<path d="M3694,5 L1339,6046" stroke="blue" stroke-width="2" />
<path d="M1056,1828 L3567,7153" stroke="blue" stroke-width="2" />
<path d="M3371,119 L1950,4608" stroke="blue" stroke-width="2" />
<path d="M1923,5352 L1049,7186" stroke="blue" stroke-width="2" />
<path d="M1290,4820 L2004,2308" stroke="blue" stroke-width="2" />
<path d="M534,2322 L1885,299" stroke="blue" stroke-width="2" />
<path d="M1363,7048 L679,5220" stroke="blue" stroke-width="2" />
<path d="M2143,5047 L774,249" stroke="blue" stroke-width="2" />
<path d="M399,3377 L197,4235" stroke="blue" stroke-width="2" />
<path d="M1070,234 L864,5109" stroke="blue" stroke-width="2" />
<path d="M775,493 L974,5953" stroke="blue" stroke-width="2" />
<path d="M225,1162 L2248,4188" stroke="blue" stroke-width="2" />
<path d="M103,6780 L2240,6666" stroke="blue" stroke-width="2" />
<path d="M1663,759 L870,3414" stroke="blue" stroke-width="2" />
<path d="M55,7034 L1271,5739" stroke="blue" stroke-width="2" />
<path d="M2116,4128 L2454,6730" stroke="blue" stroke-width="2" />
<path d="M3521,294 L3743,6672" stroke="blue" stroke-width="2" />
<path d="M1905,524 L1105,4930" stroke="blue" stroke-width="2" />
<path d="M2594,3577 L3745,2022" stroke="blue" stroke-width="2" />
<path d="M708,2450 L2527,29" stroke="blue" stroke-width="2" />
<path d="M1752,7625 L2455,3841" stroke="blue" stroke-width="2" />
<path d="M3379,3966 L885,6615" stroke="blue" stroke-width="2" />
<path d="M1912,2430 L941,2936" stroke="blue" stroke-width="2" />
<path d="M2920,6175 L1043,4140" stroke="blue" stroke-width="2" />
<path d="M262,344 L1881,5550" stroke="blue" stroke-width="2" />
<path d="M1210,4446 L1771,2284" stroke="blue" stroke-width="2" />
<path d="M3041,2524 L2519,4327" stroke="blue" stroke-width="2" />
<path d="M2572,7107 L2056,5840" stroke="blue" stroke-width="2" />
<path d="M1082,4744 L2789,3356" stroke="blue" stroke-width="2" />
<path d="M2619,1228 L2383,6700" stroke="blue" stroke-width="2" />
<path d="M1009,5090 L2239,5212" stroke="blue" stroke-width="2" />
<path d="M1461,7597 L1703,6439" stroke="blue" stroke-width="2" />
<path d="M13,4461 L660,4559" stroke="blue" stroke-width="2" />
<path d="M2622,2548 L692,5456" stroke="blue" stroke-width="2" />
<path d="M3135,698 L2962,3277" stroke="blue" stroke-width="2" />
<path d="M155,4516 L982,6395" stroke="blue" stroke-width="2" />
<path d="M2099,5037 L1612,5951" stroke="blue" stroke-width="2" />
<path d="M2180,5004 L994,6697" stroke="blue" stroke-width="2" />
<path d="M3312,1309 L827,4902" stroke="blue" stroke-width="2" />
<path d="M2496,6766 L2995,2207" stroke="blue" stroke-width="2" />
<path d="M2772,4603 L120,775" stroke="blue" stroke-width="2" />
<path d="M713,1967 L2950,3693" stroke="blue" stroke-width="2" />
<path d="M2334,864 L3690,4010" stroke="blue" stroke-width="2" />
<path d="M3573,2348 L2904,3861" stroke="blue" stroke-width="2" />
<path d="M3761,3894 L3243,7216" stroke="blue" stroke-width="2" />
<path d="M2799,2864 L1310,3301" stroke="blue" stroke-width="2" />
<path d="M1936,2509 L1354,5353" stroke="blue" stroke-width="2" />
<path d="M2754,5712 L1395,6750" stroke="blue" stroke-width="2" />
<path d="M2071,5973 L2184,965" stroke="blue" stroke-width="2" />
<path d="M2602,1034 L1900,5611" stroke="blue" stroke-width="2" />
<path d="M309,5581 L2593,6844" stroke="blue" stroke-width="2" />
<path d="M3381,636 L2920,876" stroke="blue" stroke-width="2" />
<path d="M751,978 L42,6248" stroke="blue" stroke-width="2" />
<path d="M534,1413 L1450,6085" stroke="blue" stroke-width="2" />
<path d="M1982,1531 L3634,3940" stroke="blue" stroke-width="2" />
<path d="M1910,1988 L3335,5538" stroke="blue" stroke-width="2" />
<path d="M1427,6459 L2526,343" stroke="blue" stroke-width="2" />
<path d="M2684,2947 L2098,254" stroke="blue" stroke-width="2" />
<path d="M1588,3543 L1160,2134" stroke="blue" stroke-width="2" />
<path d="M1904,2063 L1233,112" stroke="blue" stroke-width="2" />
<path d="M1792,5883 L1629,870" stroke="blue" stroke-width="2" />
<path d="M193,170 L1255,2065" stroke="blue" stroke-width="2" />
<path d="M2886,801 L1440,3412" stroke="blue" stroke-width="2" />
<path d="M1624,2991 L54,6564" stroke="blue" stroke-width="2" />
<path d="M2856,5166 L3033,1165" stroke="blue" stroke-width="2" />
<path d="M1256,2748 L16,5278" stroke="blue" stroke-width="2" />
<path d="M1138,2044 L35,1145" stroke="blue" stroke-width="2" />
<path d="M346,2651 L3685,6524" stroke="blue" stroke-width="2" />
<path d="M637,6551 L1091,4452" stroke="blue" stroke-width="2" />
<path d="M3490,6068 L1326,2188" stroke="blue" stroke-width="2" />
<path d="M2132,2218 L3102,5981" stroke="blue" stroke-width="2" />
<path d="M2290,4535 L3090,3346" stroke="blue" stroke-width="2" />
<path d="M2782,4311 L1614,542" stroke="blue" stroke-width="2" />
<path d="M755,157 L3639,4517" stroke="blue" stroke-width="2" />
<path d="M2563,4292 L2364,4308" stroke="blue" stroke-width="2" />
<path d="M108,7522 L3579,7458" stroke="blue" stroke-width="2" />
<path d="M2831,3796 L359,6927" stroke="blue" stroke-width="2" />
<path d="M263,7271 L2731,5247" stroke="blue" stroke-width="2" />
<path d="M82,7065 L849,2812" stroke="blue" stroke-width="2" />
<path d="M2305,5261 L1683,726" stroke="blue" stroke-width="2" />
<path d="M3638,6244 L2651,5701" stroke="blue" stroke-width="2" />
<path d="M331,4151 L1261,5768" stroke="blue" stroke-width="2" />
<path d="M2654,2242 L779,83" stroke="blue" stroke-width="2" />
<path d="M2771,5023 L1218,4955" stroke="blue" stroke-width="2" />
<path d="M738,6263 L3514,4429" stroke="blue" stroke-width="2" />
<path d="M413,4930 L3216,4392" stroke="blue" stroke-width="2" />
<path d="M2009,3685 L2154,2955" stroke="blue" stroke-width="2" />
<path d="M2490,3028 L614,342" stroke="blue" stroke-width="2" />
<path d="M1739,6260 L3086,7438" stroke="blue" stroke-width="2" />
<path d="M693,6614 L1507,2577" stroke="blue" stroke-width="2" />
<path d="M3416,3841 L3172,4795" stroke="blue" stroke-width="2" />
<path d="M2547,141 L840,7490" stroke="blue" stroke-width="2" />
<path d="M1740,3913 L449,3927" stroke="blue" stroke-width="2" />
<path d="M1485,854 L2740,2667" stroke="blue" stroke-width="2" />
<path d="M1588,3973 L2800,1009" stroke="blue" stroke-width="2" />
<path d="M729,1357 L747,6830" stroke="blue" stroke-width="2" />
<path d="M1063,6785 L535,2856" stroke="blue" stroke-width="2" />
<path d="M3400,4848 L2885,4774" stroke="blue" stroke-width="2" />
<path d="M1992,162 L2520,7562" stroke="blue" stroke-width="2" />
<path d="M3117,7013 L3158,2804" stroke="blue" stroke-width="2" />
<path d="M2069,2409 L3174,6693" stroke="blue" stroke-width="2" />
<path d="M771,6987 L1896,3119" stroke="blue" stroke-width="2" />
<path d="M1599,1778 L2512,2337" stroke="blue" stroke-width="2" />
<path d="M3366,7474 L1401,6980" stroke="blue" stroke-width="2" />
<path d="M263,4661 L3772,5124" stroke="blue" stroke-width="2" />
<path d="M2048,5962 L2726,7579" stroke="blue" stroke-width="2" />
<path d="M1821,1053 L2739,6171" stroke="blue" stroke-width="2" />
<path d="M2167,2380 L566,883" stroke="blue" stroke-width="2" />
<path d="M3194,6177 L2633,7016" stroke="blue" stroke-width="2" />
<path d="M2871,19 L915,975" stroke="blue" stroke-width="2" />
<path d="M1024,7158 L24,6449" stroke="blue" stroke-width="2" />
<path d="M1455,1495 L1861,1607" stroke="blue" stroke-width="2" />
<path d="M2090,5532 L1276,5622" stroke="blue" stroke-width="2" />
<path d="M1620,892 L2771,3813" stroke="blue" stroke-width="2" />
<path d="M3449,5499 L1343,2548" stroke="blue" stroke-width="2" />
<path d="M198,2883 L821,5010" stroke="blue" stroke-width="2" />
<path d="M3494,219 L2385,6419" stroke="blue" stroke-width="2" />
<path d="M2436,3137 L1616,523" stroke="blue" stroke-width="2" />
<path d="M2258,334 L969,2890" stroke="blue" stroke-width="2" />
<path d="M2577,2311 L1804,5146" stroke="blue" stroke-width="2" />
<path d="M963,1582 L2153,3938" stroke="blue" stroke-width="2" />
<path d="M2823,4236 L2050,2290" stroke="blue" stroke-width="2" />
<path d="M1400,1741 L440,5083" stroke="blue" stroke-width="2" />
<path d="M1133,4197 L2596,2668" stroke="blue" stroke-width="2" />
<path d="M1170,5317 L749,3461" stroke="blue" stroke-width="2" />
<path d="M2895,5359 L3130,301" stroke="blue" stroke-width="2" />
<path d="M1403,380 L1630,4767" stroke="blue" stroke-width="2" />
<path d="M922,6476 L2790,5955" stroke="blue" stroke-width="2" />
<path d="M3374,2263 L1373,3594" stroke="blue" stroke-width="2" />
<path d="M73,4384 L3446,1064" stroke="blue" stroke-width="2" />
<path d="M927,5022 L1279,4037" stroke="blue" stroke-width="2" />
<path d="M1118,6272 L1131,4555" stroke="blue" stroke-width="2" />
<path d="M211,5147 L1013,3432" stroke="blue" stroke-width="2" />
<path d="M2809,4169 L1754,2053" stroke="blue" stroke-width="2" />
<path d="M1242,6110 L3145,6849" stroke="blue" stroke-width="2" />
<path d="M1249,1078 L173,4653" stroke="blue" stroke-width="2" />
<path d="M3407,5486 L2636,1970" stroke="blue" stroke-width="2" />
<path d="M3460,2789 L343,6703" stroke="blue" stroke-width="2" />
<path d="M2558,2405 L1508,5315" stroke="blue" stroke-width="2" />
<path d="M2254,1547 L190,5031" stroke="blue" stroke-width="2" />
<path d="M1758,5723 L3368,5690" stroke="blue" stroke-width="2" />
<path d="M2497,3446 L3643,2662" stroke="blue" stroke-width="2" />
<path d="M37,1470 L2455,6498" stroke="blue" stroke-width="2" />
<path d="M2492,3659 L3193,1288" stroke="blue" stroke-width="2" />
<path d="M2384,3418 L555,3330" stroke="blue" stroke-width="2" />
<path d="M3298,1633 L387,3215" stroke="blue" stroke-width="2" />
<path d="M3235,4801 L2962,5281" stroke="blue" stroke-width="2" />
<path d="M2773,2632 L331,7236" stroke="blue" stroke-width="2" />
<path d="M917,4559 L1175,5116" stroke="blue" stroke-width="2" />
<path d="M1441,1916 L2881,5063" stroke="blue" stroke-width="2" />
<path d="M2527,6857 L2937,4042" stroke="blue" stroke-width="2" />
<path d="M13,2960 L2554,3986" stroke="blue" stroke-width="2" />
<path d="M1947,1933 L1415,3820" stroke="blue" stroke-width="2" />
<path d="M868,206 L2927,597" stroke="blue" stroke-width="2" />
<path d="M2544,7461 L2125,2182" stroke="blue" stroke-width="2" />
<path d="M174,335 L1144,5747" stroke="blue" stroke-width="2" />
<path d="M1142,2963 L1722,6978" stroke="blue" stroke-width="2" />
<path d="M1675,5601 L1135,5099" stroke="blue" stroke-width="2" />
<path d="M2183,900 L2692,1801" stroke="blue" stroke-width="2" />
<path d="M3423,7311 L977,4865" stroke="blue" stroke-width="2" />
<path d="M1706,1368 L3476,719" stroke="blue" stroke-width="2" />
<path d="M2553,1917 L3290,3786" stroke="blue" stroke-width="2" />
<path d="M531,5377 L513,893" stroke="blue" stroke-width="2" />
<path d="M1976,5274 L3468,598" stroke="blue" stroke-width="2" />
<path d="M3270,3835 L652,2740" stroke="blue" stroke-width="2" />
<path d="M2920,3448 L991,7335" stroke="blue" stroke-width="2" />
<path d="M1996,1156 L840,4953" stroke="blue" stroke-width="2" />
<path d="M2162,392 L2951,5209" stroke="blue" stroke-width="2" />
<path d="M1003,399 L2547,3028" stroke="blue" stroke-width="2" />
<path d="M1133,4172 L456,3639" stroke="blue" stroke-width="2" />
<path d="M1705,7162 L1129,4145" stroke="blue" stroke-width="2" />
<path d="M1652,1684 L1570,3441" stroke="blue" stroke-width="2" />
<path d="M3060,7451 L2679,2331" stroke="blue" stroke-width="2" />
<path d="M3202,7627 L2648,1541" stroke="blue" stroke-width="2" />
<path d="M456,3039 L1143,7178" stroke="blue" stroke-width="2" />
<path d="M2308,6929 L1006,794" stroke="blue" stroke-width="2" />
<path d="M3243,1991 L2269,763" stroke="blue" stroke-width="2" />
<path d="M1776,1136 L258,1723" stroke="blue" stroke-width="2" />
<path d="M2194,2149 L2122,1652" stroke="blue" stroke-width="2" />
<path d="M3507,3101 L2400,3331" stroke="blue" stroke-width="2" />
<path d="M2012,4891 L2368,3408" stroke="blue" stroke-width="2" />
<path d="M1608,7240 L2038,1262" stroke="blue" stroke-width="2" />
<path d="M43,64 L636,3196" stroke="blue" stroke-width="2" />
<path d="M2504,433 L2721,4449" stroke="blue" stroke-width="2" />
<path d="M999,4396 L430,4965" stroke="blue" stroke-width="2" />
<path d="M2299,2204 L929,1949" stroke="blue" stroke-width="2" />
<path d="M3609,5863 L494,1534" stroke="blue" stroke-width="2" />
<path d="M3021,5644 L1726,7286" stroke="blue" stroke-width="2" />
<path d="M2316,1789 L1901,6861" stroke="blue" stroke-width="2" />
<path d="M3510,197 L850,1933" stroke="blue" stroke-width="2" />
<path d="M2179,4317 L1710,1776" stroke="blue" stroke-width="2" />
<path d="M583,4718 L643,4182" stroke="blue" stroke-width="2" />
<path d="M3507,5289 L1278,2917" stroke="blue" stroke-width="2" />
<path d="M1303,3153 L2076,6412" stroke="blue" stroke-width="2" />
<path d="M2251,715 L2377,5946" stroke="blue" stroke-width="2" />
<path d="M1127,4016 L3641,2732" stroke="blue" stroke-width="2" />
<path d="M3437,4301 L3699,5521" stroke="blue" stroke-width="2" />
<path d="M3308,298 L2208,6485" stroke="blue" stroke-width="2" />
<path d="M1337,7707 L1432,62" stroke="blue" stroke-width="2" />
<path d="M3603,508 L1651,2840" stroke="blue" stroke-width="2" />
<path d="M53,5031 L3024,7688" stroke="blue" stroke-width="2" />
<path d="M2247,5804 L1125,6022" stroke="blue" stroke-width="2" />
<path d="M1834,7026 L1793,4421" stroke="blue" stroke-width="2" />
<path d="M1933,7463 L1720,1166" stroke="blue" stroke-width="2" />
<path d="M2752,4235 L1923,3258" stroke="blue" stroke-width="2" />
<path d="M3746,5120 L491,3221" stroke="blue" stroke-width="2" />
<path d="M1942,5407 L451,3908" stroke="blue" stroke-width="2" />
<path d="M2587,3092 L2014,1580" stroke="blue" stroke-width="2" />
<path d="M3597,3103 L685,2462" stroke="blue" stroke-width="2" />
<path d="M1624,897 L438,5341" stroke="blue" stroke-width="2" />
<path d="M2781,1003 L2681,6550" stroke="blue" stroke-width="2" />
<path d="M2964,7681 L1508,3051" stroke="blue" stroke-width="2" />
<path d="M2723,3078 L36,3211" stroke="blue" stroke-width="2" />
<path d="M2772,6268 L2677,1901" stroke="blue" stroke-width="2" />
<path d="M575,4418 L2948,3951" stroke="blue" stroke-width="2" />
<path d="M3224,7468 L1753,1093" stroke="blue" stroke-width="2" />
<path d="M3530,29 L2197,1839" stroke="blue" stroke-width="2" />
<path d="M1014,7161 L2176,7392" stroke="blue" stroke-width="2" />
<path d="M24,2209 L972,4936" stroke="blue" stroke-width="2" />
<path d="M317,1357 L2736,4114" stroke="blue" stroke-width="2" />
<path d="M929,1680 L993,3460" stroke="blue" stroke-width="2" />
<path d="M3315,3403 L2224,2708" stroke="blue" stroke-width="2" />
<path d="M2538,3645 L3402,3329" stroke="blue" stroke-width="2" />
<path d="M3434,5485 L2423,4923" stroke="blue" stroke-width="2" />
<path d="M503,3903 L3374,3275" stroke="blue" stroke-width="2" />
<path d="M1290,474 L3002,5111" stroke="blue" stroke-width="2" />
<path d="M1105,4116 L3293,6804" stroke="blue" stroke-width="2" />
<path d="M1780,3442 L612,5228" stroke="blue" stroke-width="2" />
<path d="M1261,6077 L3620,6061" stroke="blue" stroke-width="2" />
<path d="M1981,3931 L2858,6653" stroke="blue" stroke-width="2" />
<path d="M2667,7482 L817,7167" stroke="blue" stroke-width="2" />
<path d="M971,1907 L3021,1568" stroke="blue" stroke-width="2" />
<path d="M1803,1962 L3771,7082" stroke="blue" stroke-width="2" />
<path d="M1465,2782 L491,7068" stroke="blue" stroke-width="2" />
<path d="M2279,228 L2379,2996" stroke="blue" stroke-width="2" />
<path d="M191,3252 L3657,4024" stroke="blue" stroke-width="2" />
<path d="M3526,990 L1604,6046" stroke="blue" stroke-width="2" />
<path d="M1550,1879 L844,5993" stroke="blue" stroke-width="2" />
<path d="M3214,7276 L2518,3973" stroke="blue" stroke-width="2" />
<path d="M1397,1749 L2909,4566" stroke="blue" stroke-width="2" />
<path d="M3213,7666 L3290,2276" stroke="blue" stroke-width="2" />
<path d="M3583,5878 L1738,6309" stroke="blue" stroke-width="2" />
<path d="M96,4302 L878,5489" stroke="blue" stroke-width="2" />
<path d="M3030,7315 L3267,6870" stroke="blue" stroke-width="2" />
<path d="M3524,6974 L3193,1484" stroke="blue" stroke-width="2" />
<path d="M1247,6462 L732,4544" stroke="blue" stroke-width="2" />
<path d="M1611,3322 L2027,1140" stroke="blue" stroke-width="2" />
<path d="M3725,6906 L2622,4707" stroke="blue" stroke-width="2" />
<path d="M1599,1506 L389,6221" stroke="blue" stroke-width="2" />
<path d="M1700,1638 L2872,648" stroke="blue" stroke-width="2" />
<path d="M1015,3232 L974,4132" stroke="blue" stroke-width="2" />
<path d="M2282,5693 L762,4694" stroke="blue" stroke-width="2" />
<path d="M1851,809 L204,6496" stroke="blue" stroke-width="2" />
<path d="M71,4369 L2139,6074" stroke="blue" stroke-width="2" />
<path d="M3741,5955 L1020,5663" stroke="blue" stroke-width="2" />
<path d="M3432,612 L1877,63" stroke="blue" stroke-width="2" />
<path d="M1240,1796 L226,1299" stroke="blue" stroke-width="2" />
<path d="M197,1865 L452,7640" stroke="blue" stroke-width="2" />
<path d="M2583,2548 L298,5899" stroke="blue" stroke-width="2" />
<path d="M1935,7109 L3532,4687" stroke="blue" stroke-width="2" />
<path d="M661,1873 L644,6247" stroke="blue" stroke-width="2" />
<path d="M1929,6841 L394,4612" stroke="blue" stroke-width="2" />
<path d="M1376,7484 L2420,6671" stroke="blue" stroke-width="2" />
<path d="M728,2688 L1648,3026" stroke="blue" stroke-width="2" />
<path d="M217,993 L1661,1327" stroke="blue" stroke-width="2" />
<path d="M1776,1429 L1488,4804" stroke="blue" stroke-width="2" />
<path d="M3166,2199 L3655,4256" stroke="blue" stroke-width="2" />
<path d="M3641,5490 L665,4193" stroke="blue" stroke-width="2" />
<path d="M1208,2889 L3469,357" stroke="blue" stroke-width="2" />
<path d="M253,5768 L584,4159" stroke="blue" stroke-width="2" />
<path d="M2232,540 L3175,3373" stroke="blue" stroke-width="2" />
<path d="M3210,5618 L2982,6448" stroke="blue" stroke-width="2" />
<path d="M3338,735 L2349,7343" stroke="blue" stroke-width="2" />
<path d="M61,2892 L334,716" stroke="blue" stroke-width="2" />
<path d="M2185,3994 L1578,7289" stroke="blue" stroke-width="2" />
<path d="M2096,1071 L2835,2251" stroke="blue" stroke-width="2" />
<path d="M1821,3554 L1543,157" stroke="blue" stroke-width="2" />
<path d="M3740,5598 L3429,6464" stroke="blue" stroke-width="2" />
<path d="M3674,3415 L2866,6729" stroke="blue" stroke-width="2" />
<path d="M1471,6188 L879,7057" stroke="blue" stroke-width="2" />
<path d="M129,6366 L2082,6472" stroke="blue" stroke-width="2" />
<path d="M3770,9 L3583,6954" stroke="blue" stroke-width="2" />
<path d="M1284,300 L2498,3013" stroke="blue" stroke-width="2" />
<path d="M2570,508 L2714,4404" stroke="blue" stroke-width="2" />
<path d="M2174,4273 L207,3655" stroke="blue" stroke-width="2" />
<path d="M1153,848 L3135,1997" stroke="blue" stroke-width="2" />
<path d="M450,7149 L517,7037" stroke="blue" stroke-width="2" />
<path d="M2655,1585 L3026,1339" stroke="blue" stroke-width="2" />
<path d="M2031,4388 L1700,4724" stroke="blue" stroke-width="2" />
<path d="M840,1647 L1996,1721" stroke="blue" stroke-width="2" />
<path d="M454,2299 L625,4820" stroke="blue" stroke-width="2" />
<path d="M2418,4968 L3768,1893" stroke="blue" stroke-width="2" />
<path d="M68,2865 L1570,6121" stroke="blue" stroke-width="2" />
<path d="M806,6223 L483,5331" stroke="blue" stroke-width="2" />
<path d="M3000,3499 L1017,255" stroke="blue" stroke-width="2" />
<path d="M3432,2523 L1471,2633" stroke="blue" stroke-width="2" />
<path d="M1965,682 L1233,7436" stroke="blue" stroke-width="2" />
<path d="M1375,2820 L162,6849" stroke="blue" stroke-width="2" />
<path d="M908,2505 L2532,5799" stroke="blue" stroke-width="2" />
<path d="M2785,2022 L1231,3004" stroke="blue" stroke-width="2" />
<path d="M2163,4156 L1422,7061" stroke="blue" stroke-width="2" />
<path d="M220,2093 L883,6720" stroke="blue" stroke-width="2" />
<path d="M2366,6135 L1059,6265" stroke="blue" stroke-width="2" />
<path d="M2570,6639 L3529,2918" stroke="blue" stroke-width="2" />
<path d="M447,3171 L66,4185" stroke="blue" stroke-width="2" />
<path d="M2827,6735 L3013,4452" stroke="blue" stroke-width="2" />
<path d="M1702,2899 L999,4967" stroke="blue" stroke-width="2" />
<path d="M1018,4835 L1463,6398" stroke="blue" stroke-width="2" />
<path d="M602,5732 L2496,2034" stroke="blue" stroke-width="2" />
<path d="M417,5195 L309,4051" stroke="blue" stroke-width="2" />
<path d="M54,6297 L248,4827" stroke="blue" stroke-width="2" />
<path d="M1812,1201 L1824,1369" stroke="blue" stroke-width="2" />
<path d="M2136,2304 L3243,4919" stroke="blue" stroke-width="2" />
<path d="M515,6228 L1792,7470" stroke="blue" stroke-width="2" />
<path d="M757,172 L1649,2915" stroke="blue" stroke-width="2" />
<path d="M1377,4130 L477,7230" stroke="blue" stroke-width="2" />
<path d="M1833,6878 L2137,5791" stroke="blue" stroke-width="2" />
<path d="M1796,1111 L2802,4717" stroke="blue" stroke-width="2" />
<path d="M3099,837 L559,1793" stroke="blue" stroke-width="2" />
<path d="M1021,355 L2993,1868" stroke="blue" stroke-width="2" />
<path d="M2570,3714 L2544,7632" stroke="blue" stroke-width="2" />
<path d="M1138,1201 L3497,3178" stroke="blue" stroke-width="2" />
<path d="M2,1517 L2454,6189" stroke="blue" stroke-width="2" />
<path d="M1800,2112 L429,3877" stroke="blue" stroke-width="2" />
<path d="M1397,2719 L752,2640" stroke="blue" stroke-width="2" />
<path d="M2718,4669 L3436,2978" stroke="blue" stroke-width="2" />
<path d="M1982,20 L2075,258" stroke="blue" stroke-width="2" />
<path d="M2058,5232 L221,3909" stroke="blue" stroke-width="2" />
<path d="M2763,650 L1488,4639" stroke="blue" stroke-width="2" />
<path d="M321,5785 L2984,1342" stroke="blue" stroke-width="2" />
<path d="M3649,5399 L2648,5979" stroke="blue" stroke-width="2" />
<path d="M1488,2166 L2702,5021" stroke="blue" stroke-width="2" />
<path d="M57,6550 L383,466" stroke="blue" stroke-width="2" />
<path d="M669,7407 L2559,2611" stroke="blue" stroke-width="2" />
<path d="M3420,2580 L591,2317" stroke="blue" stroke-width="2" />
<path d="M3665,3500 L2542,7154" stroke="blue" stroke-width="2" />
<path d="M646,6518 L1690,6691" stroke="blue" stroke-width="2" />
<path d="M1505,3665 L1025,2822" stroke="blue" stroke-width="2" />
<path d="M616,3443 L2261,2053" stroke="blue" stroke-width="2" />
<path d="M2595,1661 L56,7558" stroke="blue" stroke-width="2" />
<path d="M1758,1037 L2797,5879" stroke="blue" stroke-width="2" />
<path d="M3081,6166 L373,7680" stroke="blue" stroke-width="2" />
<path d="M1166,4844 L612,1233" stroke="blue" stroke-width="2" />
<path d="M957,5344 L561,697" stroke="blue" stroke-width="2" />
<path d="M3505,2570 L2716,1597" stroke="blue" stroke-width="2" />
<path d="M404,7395 L731,726" stroke="blue" stroke-width="2" />
<path d="M982,7458 L320,2543" stroke="blue" stroke-width="2" />
<path d="M1216,1412 L2477,1440" stroke="blue" stroke-width="2" />
<path d="M1602,6828 L2952,2882" stroke="blue" stroke-width="2" />
<path d="M3666,6981 L2877,5853" stroke="blue" stroke-width="2" />
<path d="M3163,7236 L799,5951" stroke="blue" stroke-width="2" />
<path d="M2891,551 L587,6677" stroke="blue" stroke-width="2" />
<path d="M2039,6550 L1707,3711" stroke="blue" stroke-width="2" />
<path d="M1208,5360 L1894,5747" stroke="blue" stroke-width="2" />
<path d="M347,3156 L3131,1900" stroke="blue" stroke-width="2" />
<path d="M2675,7361 L14,6201" stroke="blue" stroke-width="2" />
<path d="M293,2365 L839,5544" stroke="blue" stroke-width="2" />
<path d="M27,6670 L3014,2733" stroke="blue" stroke-width="2" />
<path d="M2161,1645 L556,4153" stroke="blue" stroke-width="2" />
<path d="M1449,3659 L2572,6237" stroke="blue" stroke-width="2" />
<path d="M1667,2861 L1309,3855" stroke="blue" stroke-width="2" />
<path d="M976,3461 L3508,2850" stroke="blue" stroke-width="2" />
<path d="M896,3488 L3289,1375" stroke="blue" stroke-width="2" />
<path d="M1358,5143 L3723,7479" stroke="blue" stroke-width="2" />
<path d="M1175,6338 L2349,1380" stroke="blue" stroke-width="2" />
<path d="M0,0 L3774,0" stroke="red" stroke-width="10" />
<path d="M3774,0 L3774,7709" stroke="red" stroke-width="10" />
<path d="M0,7709 L3774,7709" stroke="red" stroke-width="10" />
<path d="M0,7709 L0,0" stroke="red" stroke-width="10" />
</svg>