<?xml version="1.0" encoding="UTF-8"?>
<svg xmlns="http://www.w3.org/2000/svg" xmlns:xlink="http://www.w3.org/1999/xlink"
     width="10000" height="10000" viewBox="0 0 10000 10000">
<defs>
</defs>
<path d="M1009,1997 L877,535" stroke="blue" stroke-width="2" />
<path d="M1566,344 L2299,325" stroke="blue" stroke-width="2" />
<path d="M515,1049 L3120,1713" stroke="blue" stroke-width="2" />
<path d="M518,1036 L2224,751" stroke="blue" stroke-width="2" />
<path d="M2842,2021 L313,421" stroke="blue" stroke-width="2" />
<path d="M1338,1515 L1655,1736" stroke="blue" stroke-width="2" />
<path d="M719,134 L152,1699" stroke="blue" stroke-width="2" />
<path d="M1906,991 L1429,1226" stroke="blue" stroke-width="2" />
<path d="M628,1733 L2615,1155" stroke="blue" stroke-width="2" />
<path d="M308,834 L2483,2007" stroke="blue" stroke-width="2" />
<path d="M3007,2038 L2955,1563" stroke="blue" stroke-width="2" />
<path d="M1818,355 L395,133" stroke="blue" stroke-width="2" />
<path d="M2319,2002 L3140,2195" stroke="blue" stroke-width="2" />
<path d="M2578,1137 L949,348" stroke="blue" stroke-width="2" />
<path d="M2628,481 L180,428" stroke="blue" stroke-width="2" />
<path d="M857,1569 L2728,759" stroke="blue" stroke-width="2" />
<path d="M1068,160 L558,1112" stroke="blue" stroke-width="2" />
<path d="M1470,1936 L225,998" stroke="blue" stroke-width="2" />
<path d="M432,1009 L1361,96" stroke="blue" stroke-width="2" />
<path d="M281,1946 L328,2086" stroke="blue" stroke-width="2" />
<path d="M2946,564 L3080,343" stroke="blue" stroke-width="2" />
<path d="M102,131 L2218,1887" stroke="blue" stroke-width="2" />
<path d="M2178,316 L2995,1811" stroke="blue" stroke-width="2" />
<path d="M1008,1035 L1954,1022" stroke="blue" stroke-width="2" />
<path d="M3075,208 L1744,1973" stroke="blue" stroke-width="2" />
<path d="M423,1769 L2265,1124" stroke="blue" stroke-width="2" />
<path d="M2123,606 L433,627" stroke="blue" stroke-width="2" />
<path d="M674,1070 L1151,1660" stroke="blue" stroke-width="2" />
<path d="M1207,910 L2656,91" stroke="blue" stroke-width="2" />
<path d="M1882,579 L2428,732" stroke="blue" stroke-width="2" />
<path d="M1158,1478 L2847,1241" stroke="blue" stroke-width="2" />
<path d="M642,1163 L3087,984" stroke="blue" stroke-width="2" />
<path d="M3076,232 L611,1378" stroke="blue" stroke-width="2" />
<path d="M922,181 L2563,230" stroke="blue" stroke-width="2" />
<path d="M798,2051 L3203,796" stroke="blue" stroke-width="2" />
<path d="M1078,2000 L2163,1477" stroke="blue" stroke-width="2" />
<path d="M80,1270 L1791,2128" stroke="blue" stroke-width="2" />
<path d="M383,1095 L1096,450" stroke="blue" stroke-width="2" />
<path d="M1508,771 L1142,1175" stroke="blue" stroke-width="2" />
<path d="M2214,1511 L23,378" stroke="blue" stroke-width="2" />
<path d="M2670,580 L610,156" stroke="blue" stroke-width="2" />
<path d="M2379,1552 L1543,2031" stroke="blue" stroke-width="2" />
<path d="M2463,1182 L1079,2195" stroke="blue" stroke-width="2" />
<path d="M1131,976 L290,626" stroke="blue" stroke-width="2" />
<path d="M2937,254 L3123,1965" stroke="blue" stroke-width="2" />
<path d="M939,1964 L2134,1630" stroke="blue" stroke-width="2" />
<path d="M1373,417 L1546,1351" stroke="blue" stroke-width="2" />
<path d="M1063,1488 L2902,1340" stroke="blue" stroke-width="2" />
<path d="M2671,895 L576,1496" stroke="blue" stroke-width="2" />
<path d="M416,1473 L251,1916" stroke="blue" stroke-width="2" />
<path d="M1172,2158 L645,2071" stroke="blue" stroke-width="2" />
<path d="M2267,1937 L1676,1466" stroke="blue" stroke-width="2" />
<path d="M1759,1706 L1658,309" stroke="blue" stroke-width="2" />
<path d="M272,1381 L3004,197" stroke="blue" stroke-width="2" />
<path d="M1686,179 L1134,629" stroke="blue" stroke-width="2" />
<path d="M1552,1848 L3198,1509" stroke="blue" stroke-width="2" />
<path d="M225,1735 L1713,1908" stroke="blue" stroke-width="2" />
<path d="M2658,1017 L1885,1528" stroke="blue" stroke-width="2" />
<path d="M2605,106 L2467,280" stroke="blue" stroke-width="2" />
<path d="M1090,1952 L636,621" stroke="blue" stroke-width="2" />
<path d="M2445,727 L2655,697" stroke="blue" stroke-width="2" />
<path d="M2391,1124 L2244,897" stroke="blue" stroke-width="2" />
<path d="M3067,1597 L1648,1518" stroke="blue" stroke-width="2" />
<path d="M1325,225 L2110,1509" stroke="blue" stroke-width="2" />
<path d="M812,1548 L1196,425" stroke="blue" stroke-width="2" />
<path d="M338,494 L1980,256" stroke="blue" stroke-width="2" />
<path d="M229,151 L837,1118" stroke="blue" stroke-width="2" />
<path d="M657,1095 L453,1484" stroke="blue" stroke-width="2" />
<path d="M1901,847 L1749,827" stroke="blue" stroke-width="2" />
<path d="M885,1561 L748,11" stroke="blue" stroke-width="2" />
<path d="M711,974 L2735,1758" stroke="blue" stroke-width="2" />
<path d="M249,414 L2142,814" stroke="blue" stroke-width="2" />
<path d="M3145,1692 L453,85" stroke="blue" stroke-width="2" />
<path d="M1578,1657 L791,1366" stroke="blue" stroke-width="2" />
<path d="M2690,236 L2855,1286" stroke="blue" stroke-width="2" />
<path d="M1928,1693 L1529,2119" stroke="blue" stroke-width="2" />
<path d="M1848,2068 L1130,1319" stroke="blue" stroke-width="2" />
<path d="M283,1112 L2639,1778" stroke="blue" stroke-width="2" />
<path d="M688,1235 L1153,1783" stroke="blue" stroke-width="2" />
<path d="M675,28 L2430,1865" stroke="blue" stroke-width="2" />
<path d="M446,829 L762,230" stroke="blue" stroke-width="2" />
<path d="M1665,839 L3076,1942" stroke="blue" stroke-width="2" />
<path d="M562,885 L2364,1895" stroke="blue" stroke-width="2" />
<path d="M1433,1652 L148,1768" stroke="blue" stroke-width="2" />
<path d="M2072,676 L480,926" stroke="blue" stroke-width="2" />
<path d="M1596,100 L2932,1835" stroke="blue" stroke-width="2" />
<path d="M1948,2071 L620,1790" stroke="blue" stroke-width="2" />
<path d="M576,1625 L1936,929" stroke="blue" stroke-width="2" />
<path d="M632,1666 L2666,1764" stroke="blue" stroke-width="2" />
<path d="M3113,108 L3176,1192" stroke="blue" stroke-width="2" />
<path d="M2920,1184 L2270,881" stroke="blue" stroke-width="2" />
<path d="M3049,625 L1508,1730" stroke="blue" stroke-width="2" />
<path d="M3029,2118 L1667,157" stroke="blue" stroke-width="2" />
<path d="M571,1790 L220,327" stroke="blue" stroke-width="2" />
<path d="M2086,2075 L1910,1460" stroke="blue" stroke-width="2" />
<path d="M2837,887 L1120,1226" stroke="blue" stroke-width="2" />
<path d="M1865,1710 L1822,1598" stroke="blue" stroke-width="2" />
<path d="M110,519 L443,1390" stroke="blue" stroke-width="2" />
<path d="M1327,869 L1731,1460" stroke="blue" stroke-width="2" />
<path d="M928,2063 L82,79" stroke="blue" stroke-width="2" />
<path d="M2475,1784 L929,1625" stroke="blue" stroke-width="2" />
<path d="M2608,1659 L747,167" stroke="blue" stroke-width="2" />
<path d="M2494,699 L1958,1117" stroke="blue" stroke-width="2" />
<path d="M1060,703 L878,1781" stroke="blue" stroke-width="2" />
<path d="M2706,1436 L524,1663" stroke="blue" stroke-width="2" />
<path d="M1969,1796 L2865,1617" stroke="blue" stroke-width="2" />
<path d="M355,699 L378,276" stroke="blue" stroke-width="2" />
<path d="M3040,2151 L1522,1420" stroke="blue" stroke-width="2" />
<path d="M2325,135 L3054,1466" stroke="blue" stroke-width="2" />
<path d="M644,2060 L918,2131" stroke="blue" stroke-width="2" />
<path d="M129,977 L2474,1337" stroke="blue" stroke-width="2" />
<path d="M1163,1119 L2865,860" stroke="blue" stroke-width="2" />
<path d="M957,1240 L1381,400" stroke="blue" stroke-width="2" />
<path d="M519,246 L1110,1821" stroke="blue" stroke-width="2" />
<path d="M2720,1905 L2561,1885" stroke="blue" stroke-width="2" />
<path d="M1350,240 L1587,600" stroke="blue" stroke-width="2" />
<path d="M2101,881 L2017,785" stroke="blue" stroke-width="2" />
<path d="M2504,448 L1906,1395" stroke="blue" stroke-width="2" />
<path d="M2737,923 L1507,1068" stroke="blue" stroke-width="2" />
<path d="M2515,152 L1922,192" stroke="blue" stroke-width="2" />
<path d="M1438,1612 L3204,477" stroke="blue" stroke-width="2" />
<path d="M745,1825 L2935,2095" stroke="blue" stroke-width="2" />
<path d="M3060,262 L3087,1947" stroke="blue" stroke-width="2" />
<path d="M693,293 L3141,1258" stroke="blue" stroke-width="2" />
<path d="M2911,1579 L2939,782" stroke="blue" stroke-width="2" />
<path d="M3178,715 L1318,276" stroke="blue" stroke-width="2" />
<path d="M1609,262 L680,1643" stroke="blue" stroke-width="2" />
<path d="M243,2043 L2785,1102" stroke="blue" stroke-width="2" />
<path d="M335,936 L2818,287" stroke="blue" stroke-width="2" />
<path d="M1384,1845 L2125,2210" stroke="blue" stroke-width="2" />
<path d="M1656,876 L1964,729" stroke="blue" stroke-width="2" />
<path d="M1297,177 L673,52" stroke="blue" stroke-width="2" />
<path d="M3112,463 L2843,273" stroke="blue" stroke-width="2" />
<path d="M591,442 L999,1938" stroke="blue" stroke-width="2" />
<path d="M2878,431 L1938,585" stroke="blue" stroke-width="2" />
<path d="M208,1401 L2470,441" stroke="blue" stroke-width="2" />
<path d="M1384,436 L546,1226" stroke="blue" stroke-width="2" />
<path d="M2583,420 L1780,1518" stroke="blue" stroke-width="2" />
<path d="M2828,301 L1457,1035" stroke="blue" stroke-width="2" />
<path d="M1480,1416 L2417,1926" stroke="blue" stroke-width="2" />
<path d="M1472,574 L3050,1585" stroke="blue" stroke-width="2" />
<path d="M3206,278 L611,998" stroke="blue" stroke-width="2" />
<path d="M1039,1811 L1696,891" stroke="blue" stroke-width="2" />
<path d="M1152,305 L2135,269" stroke="blue" stroke-width="2" />
<path d="M3155,265 L2510,379" stroke="blue" stroke-width="2" />
<path d="M2037,40 L233,1204" stroke="blue" stroke-width="2" />
<path d="M2949,1143 L801,191" stroke="blue" stroke-width="2" />
<path d="M1615,1225 L1801,126" stroke="blue" stroke-width="2" />
<path d="M520,1936 L1279,306" stroke="blue" stroke-width="2" />
<path d="M610,1825 L2447,450" stroke="blue" stroke-width="2" />
<path d="M312,172 L1507,1706" stroke="blue" stroke-width="2" />
<path d="M879,910 L1610,619" stroke="blue" stroke-width="2" />
<path d="M706,165 L3146,309" stroke="blue" stroke-width="2" />
<path d="M1312,1387 L1370,198" stroke="blue" stroke-width="2" />
<path d="M2080,22 L76,2016" stroke="blue" stroke-width="2" />
<path d="M1955,390 L1650,1327" stroke="blue" stroke-width="2" />
<path d="M1905,2013 L1428,1515" stroke="blue" stroke-width="2" />
<path d="M1374,292 L3015,1436" stroke="blue" stroke-width="2" />
<path d="M2001,310 L2765,1076" stroke="blue" stroke-width="2" />
<path d="M2709,2033 L1016,585" stroke="blue" stroke-width="2" />
<path d="M413,16 L10,20" stroke="blue" stroke-width="2" />
<path d="M3170,416 L2161,2014" stroke="blue" stroke-width="2" />
<path d="M377,1100 L1756,1734" stroke="blue" stroke-width="2" />
<path d="M612,1240 L380,1138" stroke="blue" stroke-width="2" />
<path d="M1992,1431 L3170,1096" stroke="blue" stroke-width="2" />
<path d="M2005,75 L1357,1012" stroke="blue" stroke-width="2" />
<path d="M1752,1039 L3091,973" stroke="blue" stroke-width="2" />
<path d="M210,628 L312,1050" stroke="blue" stroke-width="2" />
<path d="M1693,610 L1531,779" stroke="blue" stroke-width="2" />
<path d="M2032,1929 L2062,889" stroke="blue" stroke-width="2" />
<path d="M1125,1633 L1756,1412" stroke="blue" stroke-width="2" />
<path d="M1700,83 L570,668" stroke="blue" stroke-width="2" />
<path d="M2209,1468 L1242,798" stroke="blue" stroke-width="2" />
<path d="M2846,1012 L1722,636" stroke="blue" stroke-width="2" />
<path d="M2067,532 L1731,310" stroke="blue" stroke-width="2" />
<path d="M447,204 L1911,1288" stroke="blue" stroke-width="2" />
<path d="M1118,1989 L1929,703" stroke="blue" stroke-width="2" />
<path d="M868,1131 L3102,1706" stroke="blue" stroke-width="2" />
<path d="M1675,51 L2979,1269" stroke="blue" stroke-width="2" />
<path d="M2038,458 L220,1952" stroke="blue" stroke-width="2" />
<path d="M794,1194 L1891,533" stroke="blue" stroke-width="2" />
<path d="M519,1154 L700,606" stroke="blue" stroke-width="2" />
<path d="M2698,1757 L3017,1434" stroke="blue" stroke-width="2" />
<path d="M1270,485 L1017,845" stroke="blue" stroke-width="2" />
<path d="M155,939 L3080,2162" stroke="blue" stroke-width="2" />
<path d="M2961,1608 L993,1907" stroke="blue" stroke-width="2" />
<path d="M2454,678 L1659,261" stroke="blue" stroke-width="2" />
<path d="M2,623 L2409,1472" stroke="blue" stroke-width="2" />
<path d="M1440,567 L2254,2036" stroke="blue" stroke-width="2" />
<path d="M1881,610 L1143,439" stroke="blue" stroke-width="2" />
<path d="M2739,1905 L1220,1436" stroke="blue" stroke-width="2" />
<path d="M2918,668 L2255,1513" stroke="blue" stroke-width="2" />
<path d="M795,1087 L1385,1185" stroke="blue" stroke-width="2" />
<path d="M2997,323 L1434,2160" stroke="blue" stroke-width="2" />
<path d="M1125,1872 L1637,1171" stroke="blue" stroke-width="2" />
<path d="M3187,521 L2066,1751" stroke="blue" stroke-width="2" />
<path d="M1966,1255 L761,1096" stroke="blue" stroke-width="2" />
<path d="M2890,1552 L953,1754" stroke="blue" stroke-width="2" />
<path d="M74,247 L614,670" stroke="blue" stroke-width="2" />
<path d="M977,1285 L614,564" stroke="blue" stroke-width="2" />
<path d="M2767,1392 L737,777" stroke="blue" stroke-width="2" />
<path d="M676,1046 L594,1514" stroke="blue" stroke-width="2" />
<path d="M1168,1528 L1794,1331" stroke="blue" stroke-width="2" />
<path d="M1021,2070 L362,2059" stroke="blue" stroke-width="2" />
<path d="M880,1281 L2271,614" stroke="blue" stroke-width="2" />
<path d="M1695,134 L2649,1967" stroke="blue" stroke-width="2" />
<path d="M2341,1208 L2832,307" stroke="blue" stroke-width="2" />
<path d="M2478,169 L114,602" stroke="blue" stroke-width="2" />
<path d="M3120,1082 L1225,1827" stroke="blue" stroke-width="2" />
<path d="M2547,2094 L1434,1243" stroke="blue" stroke-width="2" />
<path d="M543,1790 L2690,749" stroke="blue" stroke-width="2" />
<path d="M3021,1959 L1798,1798" stroke="blue" stroke-width="2" />
<path d="M1959,975 L1790,1633" stroke="blue" stroke-width="2" />
<path d="M2777,1926 L484,508" stroke="blue" stroke-width="2" />
<path d="M898,1433 L2625,883" stroke="blue" stroke-width="2" />
<path d="M23,2049 L1067,803" stroke="blue" stroke-width="2" />
<path d="M2470,1458 L1666,636" stroke="blue" stroke-width="2" />
<path d="M2292,1171 L2055,704" stroke="blue" stroke-width="2" />
<path d="M2906,440 L1983,516" stroke="blue" stroke-width="2" />
<path d="M2095,200 L53,117" stroke="blue" stroke-width="2" />
<path d="M1972,1748 L2274,695" stroke="blue" stroke-width="2" />
<path d="M360,1616 L257,1562" stroke="blue" stroke-width="2" />
<path d="M96,994 L3042,1260" stroke="blue" stroke-width="2" />
<path d="M2141,878 L1897,1519" stroke="blue" stroke-width="2" />
<path d="M799,385 L2812,901" stroke="blue" stroke-width="2" />
<path d="M1182,1920 L1802,1660" stroke="blue" stroke-width="2" />
<path d="M962,940 L1407,683" stroke="blue" stroke-width="2" />
<path d="M2847,326 L925,1717" stroke="blue" stroke-width="2" />
<path d="M2895,1136 L2444,207" stroke="blue" stroke-width="2" />
<path d="M2163,1366 L907,1654" stroke="blue" stroke-width="2" />
<path d="M2224,2012 L2472,1276" stroke="blue" stroke-width="2" />
<path d="M1671,2101 L2625,132" stroke="blue" stroke-width="2" />
<path d="M1301,1574 L944,1114" stroke="blue" stroke-width="2" />
<path d="M3016,359 L259,2038" stroke="blue" stroke-width="2" />
<path d="M2416,1183 L1944,529" stroke="blue" stroke-width="2" />
<path d="M2063,1082 L2153,2085" stroke="blue" stroke-width="2" />
<path d="M2186,716 L1392,209" stroke="blue" stroke-width="2" />
<path d="M278,1808 L1296,2073" stroke="blue" stroke-width="2" />
<path d="M2145,1482 L2058,1197" stroke="blue" stroke-width="2" />
<path d="M2829,219 L2881,401" stroke="blue" stroke-width="2" />
<path d="M2850,1025 L58,960" stroke="blue" stroke-width="2" />
<path d="M1073,1845 L882,788" stroke="blue" stroke-width="2" />
<path d="M2433,730 L1647,1111" stroke="blue" stroke-width="2" />
<path d="M1336,1975 L2271,1085" stroke="blue" stroke-width="2" />
<path d="M2365,323 L1225,2092" stroke="blue" stroke-width="2" />
<path d="M1900,2009 L1766,24" stroke="blue" stroke-width="2" />
<path d="M1169,1819 L245,48" stroke="blue" stroke-width="2" />
<path d="M2007,1234 L1545,2164" stroke="blue" stroke-width="2" />
<path d="M507,1834 L2649,356" stroke="blue" stroke-width="2" />
<path d="M2785,1343 L1098,1302" stroke="blue" stroke-width="2" />
<path d="M1428,2165 L6,1678" stroke="blue" stroke-width="2" />
<path d="M543,1570 L2970,1933" stroke="blue" stroke-width="2" />
<path d="M214,372 L735,827" stroke="blue" stroke-width="2" />
<path d="M683,407 L219,1420" stroke="blue" stroke-width="2" />
<path d="M691,1536 L795,1364" stroke="blue" stroke-width="2" />
<path d="M2435,1504 L2366,926" stroke="blue" stroke-width="2" />
<path d="M771,790 L1162,1293" stroke="blue" stroke-width="2" />
<path d="M2007,2050 L299,581" stroke="blue" stroke-width="2" />
<path d="M498,2120 L2633,122" stroke="blue" stroke-width="2" />
<path d="M493,1964 L589,52" stroke="blue" stroke-width="2" />
<path d="M2035,14 L3189,973" stroke="blue" stroke-width="2" />
<path d="M1653,1168 L22,1443" stroke="blue" stroke-width="2" />
<path d="M414,1505 L2182,940" stroke="blue" stroke-width="2" />
<path d="M456,1664 L3119,1192" stroke="blue" stroke-width="2" />
<path d="M2046,1326 L2140,1046" stroke="blue" stroke-width="2" />
<path d="M3084,1580 L2039,1081" stroke="blue" stroke-width="2" />
<path d="M1863,232 L2419,522" stroke="blue" stroke-width="2" />
<path d="M212,1742 L2865,1132" stroke="blue" stroke-width="2" />
<path d="M797,1277 L2238,357" stroke="blue" stroke-width="2" />
<path d="M2479,323 L2692,325" stroke="blue" stroke-width="2" />
<path d="M936,961 L2225,1794" stroke="blue" stroke-width="2" />
<path d="M823,1686 L1562,20" stroke="blue" stroke-width="2" />
<path d="M1877,1942 L1211,806" stroke="blue" stroke-width="2" />
<path d="M940,769 L1600,437" stroke="blue" stroke-width="2" />
<path d="M2952,1824 L3053,1815" stroke="blue" stroke-width="2" />
<path d="M2980,807 L943,23" stroke="blue" stroke-width="2" />
<path d="M2536,794 L2815,1778" stroke="blue" stroke-width="2" />
<path d="M3075,2112 L775,641" stroke="blue" stroke-width="2" />
<path d="M1296,208 L1846,82" stroke="blue" stroke-width="2" />
<path d="M923,555 L1557,372" stroke="blue" stroke-width="2" />
<path d="M486,803 L1282,1112" stroke="blue" stroke-width="2" />
<path d="M2733,610 L1812,125" stroke="blue" stroke-width="2" />
<path d="M2786,1730 L2782,1703" stroke="blue" stroke-width="2" />
<path d="M2935,368 L1646,789" stroke="blue" stroke-width="2" />
<path d="M2787,1056 L2560,902" stroke="blue" stroke-width="2" />
<path d="M289,1852 L400,1162" stroke="blue" stroke-width="2" />
<path d="M1180,852 L440,665" stroke="blue" stroke-width="2" />
<path d="M491,621 L1095,176" stroke="blue" stroke-width="2" />
<path d="M1734,735 L1731,609" stroke="blue" stroke-width="2" />
<path d="M819,57 L1016,1775" stroke="blue" stroke-width="2" />
<path d="M2999,1770 L1293,135" stroke="blue" stroke-width="2" />
<path d="M2367,1685 L2038,837" stroke="blue" stroke-width="2" />
<path d="M3040,1093 L3211,77" stroke="blue" stroke-width="2" />
<path d="M2537,298 L1922,280" stroke="blue" stroke-width="2" />
<path d="M2803,1154 L503,1864" stroke="blue" stroke-width="2" />
<path d="M1221,200 L2140,678" stroke="blue" stroke-width="2" />
<path d="M587,1245 L2504,619" stroke="blue" stroke-width="2" />
<path d="M299,1540 L1457,1270" stroke="blue" stroke-width="2" />
<path d="M8,2046 L1144,2179" stroke="blue" stroke-width="2" />
<path d="M1558,1651 L3175,1890" stroke="blue" stroke-width="2" />
<path d="M2341,160 L2103,517" stroke="blue" stroke-width="2" />
<path d="M2893,1254 L1347,734" stroke="blue" stroke-width="2" />
<path d="M1837,2202 L2127,712" stroke="blue" stroke-width="2" />
<path d="M2084,1114 L1768,601" stroke="blue" stroke-width="2" />
<path d="M2290,3 L2144,1768" stroke="blue" stroke-width="2" />
<path d="M2213,488 L2360,941" stroke="blue" stroke-width="2" />
<path d="M2989,1776 L3109,24" stroke="blue" stroke-width="2" />
<path d="M2516,789 L1353,2038" stroke="blue" stroke-width="2" />
<path d="M1483,268 L2029,1011" stroke="blue" stroke-width="2" />
<path d="M859,1640 L2274,2049" stroke="blue" stroke-width="2" />
<path d="M916,693 L2916,548" stroke="blue" stroke-width="2" />
<path d="M449,1885 L2992,1623" stroke="blue" stroke-width="2" />
<path d="M1542,325 L1998,1338" stroke="blue" stroke-width="2" />
<path d="M575,1581 L874,1151" stroke="blue" stroke-width="2" />
<path d="M707,1119 L534,896" stroke="blue" stroke-width="2" />
<path d="M1434,576 L306,105" stroke="blue" stroke-width="2" />
<path d="M1566,294 L413,1237" stroke="blue" stroke-width="2" />
<path d="M2105,2132 L2780,2186" stroke="blue" stroke-width="2" />
<path d="M809,116 L312,48" stroke="blue" stroke-width="2" />
<path d="M1104,885 L1774,689" stroke="blue" stroke-width="2" />
<path d="M2096,1487 L1694,1374" stroke="blue" stroke-width="2" />
<path d="M976,2022 L999,1169" stroke="blue" stroke-width="2" />
<path d="M2787,713 L3004,500" stroke="blue" stroke-width="2" />
<path d="M725,1 L2907,876" stroke="blue" stroke-width="2" />
<path d="M509,1189 L1301,2057" stroke="blue" stroke-width="2" />
<path d="M541,140 L1684,1435" stroke="blue" stroke-width="2" />
<path d="M1764,2037 L50,194" stroke="blue" stroke-width="2" />
<path d="M2331,1200 L2383,1098" stroke="blue" stroke-width="2" />
<path d="M2480,1244 L2727,1355" stroke="blue" stroke-width="2" />
<path d="M2511,1260 L2851,938" stroke="blue" stroke-width="2" />
<path d="M1452,2176 L967,1280" stroke="blue" stroke-width="2" />
<path d="M501,1397 L152,1046" stroke="blue" stroke-width="2" />
<path d="M1211,1580 L1414,780" stroke="blue" stroke-width="2" />
<path d="M453,1300 L1594,1529" stroke="blue" stroke-width="2" />
<path d="M1029,752 L953,1894" stroke="blue" stroke-width="2" />
<path d="M982,821 L69,1674" stroke="blue" stroke-width="2" />
<path d="M1129,1239 L1673,1289" stroke="blue" stroke-width="2" />
<path d="M2583,1980 L10,286" stroke="blue" stroke-width="2" />
<path d="M2696,133 L2859,1198" stroke="blue" stroke-width="2" />
<path d="M2856,310 L3159,724" stroke="blue" stroke-width="2" />
<path d="M349,735 L2245,17" stroke="blue" stroke-width="2" />
<path d="M894,1781 L1239,1006" stroke="blue" stroke-width="2" />
<path d="M231,2067 L119,765" stroke="blue" stroke-width="2" />
<path d="M250,1245 L2483,2191" stroke="blue" stroke-width="2" />
<path d="M1918,746 L915,2203" stroke="blue" stroke-width="2" />
<path d="M1662,1097 L2869,1444" stroke="blue" stroke-width="2" />
<path d="M2656,563 L2455,30" stroke="blue" stroke-width="2" />
<path d="M1333,36 L3067,741" stroke="blue" stroke-width="2" />
<path d="M527,1741 L163,736" stroke="blue" stroke-width="2" />
<path d="M2932,1350 L2042,9" stroke="blue" stroke-width="2" />
<path d="M551,1586 L1072,1549" stroke="blue" stroke-width="2" />
<path d="M1411,705 L2795,470" stroke="blue" stroke-width="2" />
<path d="M1868,474 L2173,1693" stroke="blue" stroke-width="2" />
<path d="M539,2124 L2790,184" stroke="blue" stroke-width="2" />
<path d="M2051,817 L2394,2093" stroke="blue" stroke-width="2" />
<path d="M3141,720 L2297,218" stroke="blue" stroke-width="2" />
<path d="M1646,903 L1856,676" stroke="blue" stroke-width="2" />
<path d="M2774,1641 L2715,2046" stroke="blue" stroke-width="2" />
<path d="M1907,1634 L2285,1728" stroke="blue" stroke-width="2" />
<path d="M604,1516 L144,518" stroke="blue" stroke-width="2" />
<path d="M3001,980 L1509,507" stroke="blue" stroke-width="2" />
<path d="M2572,367 L2490,2121" stroke="blue" stroke-width="2" />
<path d="M1846,415 L173,405" stroke="blue" stroke-width="2" />
<path d="M1538,1135 L3133,1795" stroke="blue" stroke-width="2" />
<path d="M782,1536 L1141,2110" stroke="blue" stroke-width="2" />
<path d="M2551,2075 L2828,541" stroke="blue" stroke-width="2" />
<path d="M2732,1408 L2507,453" stroke="blue" stroke-width="2" />
<path d="M1427,351 L1672,1517" stroke="blue" stroke-width="2" />
<path d="M1779,277 L2982,449" stroke="blue" stroke-width="2" />
<path d="M682,1592 L263,264" stroke="blue" stroke-width="2" />
<path d="M1337,1447 L1191,576" stroke="blue" stroke-width="2" />
<path d="M1665,852 L904,1778" stroke="blue" stroke-width="2" />
<path d="M1479,1673 L2864,581" stroke="blue" stroke-width="2" />
<path d="M2324,1101 L2872,324" stroke="blue" stroke-width="2" />
<path d="M1996,405 L1475,1956" stroke="blue" stroke-width="2" />
<path d="M1642,772 L737,1494" stroke="blue" stroke-width="2" />
<path d="M2866,1963 L100,2116" stroke="blue" stroke-width="2" />
<path d="M691,1669 L544,1989" stroke="blue" stroke-width="2" />
<path d="M1031,1806 L3103,1043" stroke="blue" stroke-width="2" />
<path d="M677,449 L864,2154" stroke="blue" stroke-width="2" />
<path d="M1606,199 L2411,1438" stroke="blue" stroke-width="2" />
<path d="M2508,1286 L465,82" stroke="blue" stroke-width="2" />
<path d="M1911,275 L2376,616" stroke="blue" stroke-width="2" />
<path d="M55,1405 L2340,253" stroke="blue" stroke-width="2" />
<path d="M37,1810 L2695,1271" stroke="blue" stroke-width="2" />
<path d="M1638,1795 L1800,2054" stroke="blue" stroke-width="2" />
<path d="M3011,850 L293,657" stroke="blue" stroke-width="2" />
<path d="M1969,1428 L27,2024" stroke="blue" stroke-width="2" />
<path d="M636,1184 L2824,920" stroke="blue" stroke-width="2" />
<path d="M1160,1111 L1693,466" stroke="blue" stroke-width="2" />
<path d="M191,2178 L973,815" stroke="blue" stroke-width="2" />
<path d="M2961,243 L96,1362" stroke="blue" stroke-width="2" />
<path d="M434,1064 L812,2174" stroke="blue" stroke-width="2" />
<path d="M60,1768 L2391,1604" stroke="blue" stroke-width="2" />
<path d="M1656,2170 L1800,1048" stroke="blue" stroke-width="2" />
<path d="M439,1397 L1343,1428" stroke="blue" stroke-width="2" />
<path d="M188,1022 L858,1705" stroke="blue" stroke-width="2" />
<path d="M1190,425 L471,1421" stroke="blue" stroke-width="2" />
<path d="M119,469 L369,172" stroke="blue" stroke-width="2" />
<path d="M2184,849 L1352,963" stroke="blue" stroke-width="2" />
<path d="M2715,1886 L2353,1065" stroke="blue" stroke-width="2" />
<path d="M316,1480 L5,1074" stroke="blue" stroke-width="2" />
<path d="M899,1197 L660,2122" stroke="blue" stroke-width="2" />
<path d="M1103,398 L1922,832" stroke="blue" stroke-width="2" />
<path d="M334,1349 L50,1073" stroke="blue" stroke-width="2" />
<path d="M158,1388 L933,638" stroke="blue" stroke-width="2" />
<path d="M1236,1099 L1159,1154" stroke="blue" stroke-width="2" />
<path d="M1516,378 L1127,1089" stroke="blue" stroke-width="2" />
<path d="M2237,482 L864,448" stroke="blue" stroke-width="2" />
<path d="M2124,1320 L1428,419" stroke="blue" stroke-width="2" />
<path d="M2316,2135 L2468,2081" stroke="blue" stroke-width="2" />
<path d="M299,1944 L1166,104" stroke="blue" stroke-width="2" />
<path d="M2087,1558 L505,2086" stroke="blue" stroke-width="2" />
<path d="M2819,940 L120,227" stroke="blue" stroke-width="2" />
<path d="M1473,462 L177,1796" stroke="blue" stroke-width="2" />
<path d="M1147,1872 L2616,1458" stroke="blue" stroke-width="2" />
<path d="M858,1923 L86,115" stroke="blue" stroke-width="2" />
<path d="M738,1768 L2140,412" stroke="blue" stroke-width="2" />
<path d="M1099,1442 L644,1690" stroke="blue" stroke-width="2" />
<path d="M423,1982 L1428,1128" stroke="blue" stroke-width="2" />
<path d="M1612,2093 L1261,716" stroke="blue" stroke-width="2" />
<path d="M1702,1467 L1569,1550" stroke="blue" stroke-width="2" />
<path d="M1045,1490 L2484,1931" stroke="blue" stroke-width="2" />
<path d="M3148,1386 L76,1680" stroke="blue" stroke-width="2" />
<path d="M2312,639 L1111,224" stroke="blue" stroke-width="2" />
<path d="M733,622 L3081,1075" stroke="blue" stroke-width="2" />
<path d="M1997,34 L1075,1482" stroke="blue" stroke-width="2" />
<path d="M3036,1671 L689,2050" stroke="blue" stroke-width="2" />
<path d="M264,1369 L3039,21" stroke="blue" stroke-width="2" />
<path d="M725,1313 L916,399" stroke="blue" stroke-width="2" />
<path d="M1623,645 L1186,278" stroke="blue" stroke-width="2" />
<path d="M1345,1734 L2022,1677" stroke="blue" stroke-width="2" />
<path d="M1157,1682 L1556,1927" stroke="blue" stroke-width="2" />
<path d="M267,1674 L1106,315" stroke="blue" stroke-width="2" />
<path d="M394,204 L2665,1241" stroke="blue" stroke-width="2" />
<path d="M2352,691 L1587,1867" stroke="blue" stroke-width="2" />
<path d="M2080,945 L2247,635" stroke="blue" stroke-width="2" />
<path d="M2912,238 L1262,1862" stroke="blue" stroke-width="2" />
<path d="M30,118 L214,1394" stroke="blue" stroke-width="2" />
<path d="M1008,1174 L1174,363" stroke="blue" stroke-width="2" />
<path d="M2482,2002 L2476,533" stroke="blue" stroke-width="2" />
<path d="M698,986 L225,1337" stroke="blue" stroke-width="2" />
<path d="M3091,1163 L2254,114" stroke="blue" stroke-width="2" />
<path d="M1507,2031 L1712,288" stroke="blue" stroke-width="2" />
<path d="M2686,235 L459,240" stroke="blue" stroke-width="2" />
<path d="M2181,1303 L927,1045" stroke="blue" stroke-width="2" />
<path d="M3045,1267 L1292,432" stroke="blue" stroke-width="2" />
<path d="M1384,598 L270,2034" stroke="blue" stroke-width="2" />
<path d="M1453,233 L842,18" stroke="blue" stroke-width="2" />
<path d="M716,462 L3141,381" stroke="blue" stroke-width="2" />
<path d="M1519,1301 L620,947" stroke="blue" stroke-width="2" />
<path d="M2495,2181 L1401,502" stroke="blue" stroke-width="2" />
<path d="M445,1084 L624,1894" stroke="blue" stroke-width="2" />
<path d="M813,75 L717,1917" stroke="blue" stroke-width="2" />
<path d="M2219,1696 L2736,908" stroke="blue" stroke-width="2" />
<path d="M334,1073 L2549,1465" stroke="blue" stroke-width="2" />
<path d="M711,448 L1461,410" stroke="blue" stroke-width="2" />
<path d="M2627,960 L1945,1661" stroke="blue" stroke-width="2" />
<path d="M1309,1696 L2548,394" stroke="blue" stroke-width="2" />
<path d="M335,1145 L2183,590" stroke="blue" stroke-width="2" />
<path d="M1884,57 L656,530" stroke="blue" stroke-width="2" />
<path d="M700,1948 L2260,193" stroke="blue" stroke-width="2" />
<path d="M2610,1801 L1890,2049" stroke="blue" stroke-width="2" />
<path d="M1485,1183 L2117,146" stroke="blue" stroke-width="2" />
<path d="M2656,896 L1080,1273" stroke="blue" stroke-width="2" />
<path d="M1301,458 L595,501" stroke="blue" stroke-width="2" />
<path d="M2710,462 L1233,688" stroke="blue" stroke-width="2" />
<path d="M1487,352 L883,559" stroke="blue" stroke-width="2" />
<path d="M2673,766 L1729,67" stroke="blue" stroke-width="2" />
<path d="M742,747 L1782,1593" stroke="blue" stroke-width="2" />
<path d="M1790,2035 L2445,2130" stroke="blue" stroke-width="2" />
<path d="M1403,826 L2873,1229" stroke="blue" stroke-width="2" />
<path d="M1741,415 L2754,1500" stroke="blue" stroke-width="2" />
<path d="M1522,1801 L1854,289" stroke="blue" stroke-width="2" />
<path d="M2631,1830 L1407,1377" stroke="blue" stroke-width="2" />
<path d="M1276,1748 L2372,1756" stroke="blue" stroke-width="2" />
<path d="M2555,269 L1179,1274" stroke="blue" stroke-width="2" />
<path d="M2367,1619 L2271,1470" stroke="blue" stroke-width="2" />
<path d="M409,1174 L782,1486" stroke="blue" stroke-width="2" />
<path d="M1621,2036 L717,533" stroke="blue" stroke-width="2" />
<path d="M2549,2000 L705,113" stroke="blue" stroke-width="2" />
<path d="M1206,1684 L1675,1809" stroke="blue" stroke-width="2" />
<path d="M2684,617 L2747,199" stroke="blue" stroke-width="2" />
<path d="M2945,238 L2355,2171" stroke="blue" stroke-width="2" />
<path d="M92,2008 L1221,1649" stroke="blue" stroke-width="2" />
<path d="M1137,893 L1966,1039" stroke="blue" stroke-width="2" />
<path d="M3174,1464 L1799,361" stroke="blue" stroke-width="2" />
<path d="M590,537 L398,1810" stroke="blue" stroke-width="2" />
<path d="M1506,657 L2487,1857" stroke="blue" stroke-width="2" />
<path d="M1181,1566 L3039,755" stroke="blue" stroke-width="2" />
<path d="M756,757 L45,1434" stroke="blue" stroke-width="2" />
<path d="M2074,1328 L2604,2068" stroke="blue" stroke-width="2" />
<path d="M2543,1854 L2965,8" stroke="blue" stroke-width="2" />
<path d="M1320,1610 L540,1138" stroke="blue" stroke-width="2" />
<path d="M3150,640 L398,1244" stroke="blue" stroke-width="2" />
<path d="M2521,204 L1211,1909" stroke="blue" stroke-width="2" />
<path d="M2423,711 L1009,1216" stroke="blue" stroke-width="2" />
<path d="M1765,1746 L1154,1354" stroke="blue" stroke-width="2" />
<path d="M879,378 L1446,138" stroke="blue" stroke-width="2" />
<path d="M3074,1010 L1333,60" stroke="blue" stroke-width="2" />
<path d="M1022,1484 L3091,55" stroke="blue" stroke-width="2" />
<path d="M386,268 L2438,1876" stroke="blue" stroke-width="2" />
<path d="M3038,1048 L2808,1153" stroke="blue" stroke-width="2" />
<path d="M2163,1078 L1071,31" stroke="blue" stroke-width="2" />
<path d="M2916,1336 L615,1928" stroke="blue" stroke-width="2" />
<path d="M1757,418 L2837,1633" stroke="blue" stroke-width="2" />
<path d="M151,3 L1345,490" stroke="blue" stroke-width="2" />
<path d="M2388,2024 L1156,936" stroke="blue" stroke-width="2" />
<path d="M2782,177 L2806,1068" stroke="blue" stroke-width="2" />
<path d="M872,2123 L1240,89" stroke="blue" stroke-width="2" />
<path d="M2467,1362 L1074,1480" stroke="blue" stroke-width="2" />
<path d="M86,1488 L1256,1790" stroke="blue" stroke-width="2" />
<path d="M922,927 L1313,541" stroke="blue" stroke-width="2" />
<path d="M1192,1950 L1032,2076" stroke="blue" stroke-width="2" />
<path d="M232,994 L866,851" stroke="blue" stroke-width="2" />
<path d="M2652,270 L2320,982" stroke="blue" stroke-width="2" />
<path d="M376,970 L151,1323" stroke="blue" stroke-width="2" />
<path d="M3181,1976 L275,200" stroke="blue" stroke-width="2" />
<path d="M2131,1174 L1866,826" stroke="blue" stroke-width="2" />
<path d="M92,1751 L2734,95" stroke="blue" stroke-width="2" />
<path d="M1190,1969 L30,777" stroke="blue" stroke-width="2" />
<path d="M853,1758 L2330,1789" stroke="blue" stroke-width="2" />
<path d="M1796,1580 L323,1720" stroke="blue" stroke-width="2" />
<path d="M2179,1259 L2656,1457" stroke="blue" stroke-width="2" />
<path d="M3087,405 L164,1762" stroke="blue" stroke-width="2" />
<path d="M625,246 L1351,1907" stroke="blue" stroke-width="2" />
<path d="M486,875 L280,1528" stroke="blue" stroke-width="2" />
<path d="M2578,434 L3173,3" stroke="blue" stroke-width="2" />
<path d="M855,2074 L2829,1652" stroke="blue" stroke-width="2" />
<path d="M436,742 L2912,1864" stroke="blue" stroke-width="2" />
<path d="M846,2141 L2399,1501" stroke="blue" stroke-width="2" />
<path d="M905,924 L341,1782" stroke="blue" stroke-width="2" />
<path d="M2488,19 L2477,1534" stroke="blue" stroke-width="2" />
<path d="M2217,1057 L2539,307" stroke="blue" stroke-width="2" />
<path d="M763,1544 L2310,44" stroke="blue" stroke-width="2" />
<path d="M719,74 L933,501" stroke="blue" stroke-width="2" />
<path d="M1688,1323 L2993,2037" stroke="blue" stroke-width="2" />
<path d="M1420,943 L909,86" stroke="blue" stroke-width="2" />
<path d="M551,761 L1424,1011" stroke="blue" stroke-width="2" />
<path d="M543,1572 L3004,2109" stroke="blue" stroke-width="2" />
<path d="M1512,695 L571,1466" stroke="blue" stroke-width="2" />
<path d="M597,1857 L2615,2026" stroke="blue" stroke-width="2" />
<path d="M428,21 L2350,1042" stroke="blue" stroke-width="2" />
<path d="M772,437 L2133,874" stroke="blue" stroke-width="2" />
<path d="M662,823 L3024,632" stroke="blue" stroke-width="2" />
<path d="M738,292 L32,1927" stroke="blue" stroke-width="2" />
<path d="M3200,374 L2184,1381" stroke="blue" stroke-width="2" />
<path d="M2956,843 L2080,2205" stroke="blue" stroke-width="2" />
<path d="M2827,1986 L408,1241" stroke="blue" stroke-width="2" />
<path d="M407,1400 L477,1891" stroke="blue" stroke-width="2" />
<path d="M754,1162 L3165,734" stroke="blue" stroke-width="2" />
<path d="M1597,178 L547,1846" stroke="blue" stroke-width="2" />
<path d="M1267,38 L1453,2051" stroke="blue" stroke-width="2" />
<path d="M553,1308 L1010,292" stroke="blue" stroke-width="2" />
<path d="M745,277 L1393,333" stroke="blue" stroke-width="2" />
<path d="M2987,1374 L2229,1044" stroke="blue" stroke-width="2" />
<path d="M1082,74 L1455,1585" stroke="blue" stroke-width="2" />
<path d="M2711,338 L2358,1565" stroke="blue" stroke-width="2" />
<path d="M324,429 L2996,1834" stroke="blue" stroke-width="2" />
<path d="M2164,198 L592,1347" stroke="blue" stroke-width="2" />
<path d="M2929,1570 L1768,691" stroke="blue" stroke-width="2" />
<path d="M50,1561 L2020,2206" stroke="blue" stroke-width="2" />
<path d="M1807,1003 L276,1061" stroke="blue" stroke-width="2" />
<path d="M2176,1610 L2483,1403" stroke="blue" stroke-width="2" />
<path d="M2038,216 L1070,1002" stroke="blue" stroke-width="2" />
<path d="M2192,77 L1955,597" stroke="blue" stroke-width="2" />
<path d="M894,1298 L218,855" stroke="blue" stroke-width="2" />
<path d="M1951,1698 L1487,1129" stroke="blue" stroke-width="2" />
<path d="M365,2107 L1803,1126" stroke="blue" stroke-width="2" />
<path d="M1767,964 L3051,1390" stroke="blue" stroke-width="2" />
<path d="M153,2175 L2767,223" stroke="blue" stroke-width="2" />
<path d="M2187,1107 L814,2201" stroke="blue" stroke-width="2" />
<path d="M1130,218 L3185,2016" stroke="blue" stroke-width="2" />
<path d="M2754,561 L271,2089" stroke="blue" stroke-width="2" />
<path d="M854,1037 L2087,1276" stroke="blue" stroke-width="2" />
<path d="M613,2189 L189,5" stroke="blue" stroke-width="2" />
<path d="M2814,2008 L224,1324" stroke="blue" stroke-width="2" />
<path d="M1884,1651 L2245,985" stroke="blue" stroke-width="2" />
<path d="M1992,1628 L2828,1407" stroke="blue" stroke-width="2" />
<path d="M2358,923 L1489,278" stroke="blue" stroke-width="2" />
<path d="M262,1985 L1113,726" stroke="blue" stroke-width="2" />
<path d="M2446,969 L284,2119" stroke="blue" stroke-width="2" />
<path d="M2470,1915 L2365,115" stroke="blue" stroke-width="2" />
<path d="M2925,297 L3210,376" stroke="blue" stroke-width="2" />
<path d="M2632,1077 L155,2110" stroke="blue" stroke-width="2" />
<path d="M1990,72 L3031,1985" stroke="blue" stroke-width="2" />
<path d="M2420,468 L954,109" stroke="blue" stroke-width="2" />
<path d="M1249,1477 L2335,1079" stroke="blue" stroke-width="2" />
<path d="M2968,1994 L1853,1801" stroke="blue" stroke-width="2" />
<path d="M2940,40 L1843,588" stroke="blue" stroke-width="2" />
<path d="M3120,27 L717,546" stroke="blue" stroke-width="2" />
<path d="M1450,769 L1300,1545" stroke="blue" stroke-width="2" />
<path d="M1141,1889 L616,2146" stroke="blue" stroke-width="2" />
<path d="M2806,750 L775,1929" stroke="blue" stroke-width="2" />
<path d="M195,130 L2249,1661" stroke="blue" stroke-width="2" />
<path d="M1538,1964 L1211,1809" stroke="blue" stroke-width="2" />
<path d="M851,1316 L2568,2175" stroke="blue" stroke-width="2" />
<path d="M2562,723 L443,1102" stroke="blue" stroke-width="2" />
<path d="M95,22 L734,647" stroke="blue" stroke-width="2" />
<path d="M2483,211 L1358,1541" stroke="blue" stroke-width="2" />
<path d="M2520,2079 L726,488" stroke="blue" stroke-width="2" />
<path d="M225,963 L289,1931" stroke="blue" stroke-width="2" />
<path d="M2747,1591 L2497,391" stroke="blue" stroke-width="2" />
<path d="M1089,1050 L1121,2118" stroke="blue" stroke-width="2" />
<path d="M341,262 L495,579" stroke="blue" stroke-width="2" />
<path d="M458,355 L513,484" stroke="blue" stroke-width="2" />
<path d="M1917,1153 L1754,321" stroke="blue" stroke-width="2" />
<path d="M700,1043 L454,1252" stroke="blue" stroke-width="2" />
<path d="M1473,1330 L2525,1161" stroke="blue" stroke-width="2" />
<path d="M1784,484 L1642,1730" stroke="blue" stroke-width="2" />
<path d="M2673,1881 L1081,483" stroke="blue" stroke-width="2" />
<path d="M919,131 L2018,1126" stroke="blue" stroke-width="2" />
<path d="M2194,347 L1100,1535" stroke="blue" stroke-width="2" />
<path d="M2596,1330 L639,1930" stroke="blue" stroke-width="2" />
<path d="M2883,236 L475,1777" stroke="blue" stroke-width="2" />
<path d="M3104,2202 L1879,145" stroke="blue" stroke-width="2" />
<path d="M248,741 L750,1832" stroke="blue" stroke-width="2" />
<path d="M1358,387 L809,327" stroke="blue" stroke-width="2" />
<path d="M1495,1735 L3066,418" stroke="blue" stroke-width="2" />
<path d="M2845,1342 L54,894" stroke="blue" stroke-width="2" />
<path d="M2800,1023 L1014,190" stroke="blue" stroke-width="2" />
<path d="M2410,1074 L1127,352" stroke="blue" stroke-width="2" />
<path d="M1427,427 L685,1818" stroke="blue" stroke-width="2" />
<path d="M606,927 L699,1874" stroke="blue" stroke-width="2" />
<path d="M2750,1116 L2635,742" stroke="blue" stroke-width="2" />
<path d="M1760,1257 L32,809" stroke="blue" stroke-width="2" />
<path d="M2786,589 L566,1182" stroke="blue" stroke-width="2" />
<path d="M1636,727 L535,438" stroke="blue" stroke-width="2" />
<path d="M1519,1409 L613,318" stroke="blue" stroke-width="2" />
<path d="M2305,59 L1294,342" stroke="blue" stroke-width="2" />
<path d="M3056,154 L2055,730" stroke="blue" stroke-width="2" />
<path d="M187,1903 L268,2177" stroke="blue" stroke-width="2" />
<path d="M0,0 L3213,0" stroke="red" stroke-width="10" />
<path d="M3213,0 L3213,2213" stroke="red" stroke-width="10" />
<path d="M0,2213 L3213,2213" stroke="red" stroke-width="10" />
<path d="M0,2213 L0,0" stroke="red" stroke-width="10" />
</svg>