<?xml version="1.0" encoding="UTF-8"?>
<svg xmlns="http://www.w3.org/2000/svg" xmlns:xlink="http://www.w3.org/1999/xlink"
     width="10000" height="10000" viewBox="0 0 10000 10000">
<defs>
</defs>
<path d="M5503,1310 L6296,4169" stroke="blue" stroke-width="2" />
<path d="M6314,4811 L5597,430" stroke="blue" stroke-width="2" />
<path d="M647,8269 L2587,7168" stroke="blue" stroke-width="2" />
<path d="M4909,809 L6862,2549" stroke="blue" stroke-width="2" />
<path d="M729,2762 L2942,3234" stroke="blue" stroke-width="2" />
<path d="M1951,6438 L5964,5726" stroke="blue" stroke-width="2" />
<path d="M5141,1920 L4287,3356" stroke="blue" stroke-width="2" />
<path d="M4211,8770 L5599,7402" stroke="blue" stroke-width="2" />
<path d="M5024,4467 L6068,8030" stroke="blue" stroke-width="2" />
<path d="M1719,240 L6112,2149" stroke="blue" stroke-width="2" />
<path d="M358,8165 L47,7719" stroke="blue" stroke-width="2" />
<path d="M3663,3666 L3023,6258" stroke="blue" stroke-width="2" />
<path d="M4230,4413 L245,4152" stroke="blue" stroke-width="2" />
<path d="M5120,5702 L1947,8148" stroke="blue" stroke-width="2" />
<path d="M3279,1137 L3798,4920" stroke="blue" stroke-width="2" />
<path d="M3496,2853 L6844,8274" stroke="blue" stroke-width="2" />
<path d="M1265,880 L6168,4230" stroke="blue" stroke-width="2" />
<path d="M4652,2357 L6543,1618" stroke="blue" stroke-width="2" />
<path d="M5855,6438 L5726,8907" stroke="blue" stroke-width="2" />
<path d="M446,1173 L5908,8466" stroke="blue" stroke-width="2" />
<path d="M3344,5039 L2169,1355" stroke="blue" stroke-width="2" />
<path d="M1774,314 L5236,1959" stroke="blue" stroke-width="2" />
<path d="M6302,63 L5360,774" stroke="blue" stroke-width="2" />
<path d="M2128,5794 L5935,6731" stroke="blue" stroke-width="2" />
<path d="M4966,1581 L1239,6553" stroke="blue" stroke-width="2" />
<path d="M5546,8446 L2686,4051" stroke="blue" stroke-width="2" />
<path d="M2649,4562 L3467,7030" stroke="blue" stroke-width="2" />
<path d="M923,4304 L4878,4404" stroke="blue" stroke-width="2" />
<path d="M627,2595 L646,3295" stroke="blue" stroke-width="2" />
<path d="M2924,5860 L5493,8301" stroke="blue" stroke-width="2" />
<path d="M403,4860 L5406,1246" stroke="blue" stroke-width="2" />
<path d="M6698,3841 L3709,7969" stroke="blue" stroke-width="2" />
<path d="M5280,2253 L855,3445" stroke="blue" stroke-width="2" />
<path d="M6416,8876 L2222,3653" stroke="blue" stroke-width="2" />
<path d="M1220,4353 L4955,5321" stroke="blue" stroke-width="2" />
<path d="M4743,7113 L6862,432" stroke="blue" stroke-width="2" />
<path d="M6437,1777 L2114,8042" stroke="blue" stroke-width="2" />
<path d="M6131,3741 L5140,8476" stroke="blue" stroke-width="2" />
<path d="M3669,4115 L5670,6380" stroke="blue" stroke-width="2" />
<path d="M1099,556 L2173,8717" stroke="blue" stroke-width="2" />
<path d="M5493,4615 L3255,6082" stroke="blue" stroke-width="2" />
<path d="M6006,2717 L773,279" stroke="blue" stroke-width="2" />
<path d="M3360,372 L3040,6316" stroke="blue" stroke-width="2" />
<path d="M82,1352 L2902,1156" stroke="blue" stroke-width="2" />
<path d="M968,546 L3830,1869" stroke="blue" stroke-width="2" />
<path d="M2803,208 L1099,421" stroke="blue" stroke-width="2" />
<path d="M5549,8882 L6827,764" stroke="blue" stroke-width="2" />
<path d="M2296,7220 L1779,7299" stroke="blue" stroke-width="2" />
<path d="M2481,8200 L6658,1328" stroke="blue" stroke-width="2" />
<path d="M6291,3916 L2007,4662" stroke="blue" stroke-width="2" />
<path d="M4470,7911 L129,5124" stroke="blue" stroke-width="2" />
<path d="M4895,8967 L4880,8289" stroke="blue" stroke-width="2" />
<path d="M3793,344 L6665,2224" stroke="blue" stroke-width="2" />
<path d="M2026,355 L2023,3965" stroke="blue" stroke-width="2" />
<path d="M5478,303 L3474,2349" stroke="blue" stroke-width="2" />
<path d="M5851,33 L2074,1282" stroke="blue" stroke-width="2" />
<path d="M6601,7300 L5187,3938" stroke="blue" stroke-width="2" />
<path d="M4086,2145 L3440,8087" stroke="blue" stroke-width="2" />
<path d="M4992,5579 L235,664" stroke="blue" stroke-width="2" />
<path d="M2913,7150 L3896,8269" stroke="blue" stroke-width="2" />
<path d="M6690,390 L2001,405" stroke="blue" stroke-width="2" />
<path d="M4579,5297 L5670,3827" stroke="blue" stroke-width="2" />
<path d="M5145,5777 L6823,1247" stroke="blue" stroke-width="2" />
<path d="M5070,8963 L6364,7898" stroke="blue" stroke-width="2" />
<path d="M3957,4560 L1603,4404" stroke="blue" stroke-width="2" />
<path d="M4825,1311 L2650,4063" stroke="blue" stroke-width="2" />
<path d="M3485,2684 L5475,351" stroke="blue" stroke-width="2" />
<path d="M1986,1838 L3587,5679" stroke="blue" stroke-width="2" />
<path d="M2646,410 L2708,3356" stroke="blue" stroke-width="2" />
<path d="M2137,7246 L2316,4452" stroke="blue" stroke-width="2" />
<path d="M6469,7471 L2078,2427" stroke="blue" stroke-width="2" />
<path d="M1187,1165 L3997,976" stroke="blue" stroke-width="2" />
<path d="M5237,8226 L6146,8295" stroke="blue" stroke-width="2" />
<path d="M4680,6137 L2957,6426" stroke="blue" stroke-width="2" />
<path d="M3987,8676 L4379,4932" stroke="blue" stroke-width="2" />
<path d="M6352,5871 L1876,4444" stroke="blue" stroke-width="2" />
<path d="M6123,5121 L5312,1310" stroke="blue" stroke-width="2" />
<path d="M1900,8000 L2740,974" stroke="blue" stroke-width="2" />
<path d="M3889,4716 L4529,8261" stroke="blue" stroke-width="2" />
<path d="M82,3108 L6799,1224" stroke="blue" stroke-width="2" />
<path d="M989,3996 L5079,1258" stroke="blue" stroke-width="2" />
<path d="M1185,5534 L5295,8263" stroke="blue" stroke-width="2" />
<path d="M941,6792 L1059,1414" stroke="blue" stroke-width="2" />
<path d="M3115,8543 L3958,5366" stroke="blue" stroke-width="2" />
<path d="M5608,4844 L6641,6363" stroke="blue" stroke-width="2" />
<path d="M4523,5276 L1111,4608" stroke="blue" stroke-width="2" />
<path d="M623,5578 L6491,3515" stroke="blue" stroke-width="2" />
<path d="M2919,3216 L5898,2311" stroke="blue" stroke-width="2" />
<path d="M4885,3363 L760,2169" stroke="blue" stroke-width="2" />
<path d="M71,7128 L4077,7428" stroke="blue" stroke-width="2" />
<path d="M4461,2871 L3142,7634" stroke="blue" stroke-width="2" />
<path d="M3307,1439 L5846,2671" stroke="blue" stroke-width="2" />
<path d="M1879,612 L5030,5071" stroke="blue" stroke-width="2" />
<path d="M5940,2171 L6355,6997" stroke="blue" stroke-width="2" />
<path d="M1579,3423 L2305,8575" stroke="blue" stroke-width="2" />
<path d="M4555,6007 L4043,4317" stroke="blue" stroke-width="2" />
<path d="M1227,7475 L2202,1401" stroke="blue" stroke-width="2" />
<path d="M1081,3594 L4082,6687" stroke="blue" stroke-width="2" />
<path d="M5629,2067 L1628,2135" stroke="blue" stroke-width="2" />
<path d="M6605,5483 L2565,3065" stroke="blue" stroke-width="2" />
<path d="M1055,8337 L3695,7264" stroke="blue" stroke-width="2" />
<path d="M3576,4304 L4327,3461" stroke="blue" stroke-width="2" />
<path d="M6284,3687 L2227,878" stroke="blue" stroke-width="2" />
<path d="M4239,4151 L3293,4691" stroke="blue" stroke-width="2" />
<path d="M2193,8256 L2407,2633" stroke="blue" stroke-width="2" />
<path d="M978,3924 L1295,6564" stroke="blue" stroke-width="2" />
<path d="M560,6788 L4468,7209" stroke="blue" stroke-width="2" />
<path d="M5620,7396 L5424,5531" stroke="blue" stroke-width="2" />
<path d="M903,4326 L1304,6911" stroke="blue" stroke-width="2" />
<path d="M2839,1536 L2529,2778" stroke="blue" stroke-width="2" />
<path d="M2151,635 L2486,7601" stroke="blue" stroke-width="2" />
<path d="M6525,2246 L1267,6898" stroke="blue" stroke-width="2" />
<path d="M924,7289 L914,1465" stroke="blue" stroke-width="2" />
<path d="M1546,3132 L3285,4785" stroke="blue" stroke-width="2" />
<path d="M2873,280 L3338,2337" stroke="blue" stroke-width="2" />
<path d="M1681,113 L5612,4676" stroke="blue" stroke-width="2" />
<path d="M5901,7718 L3949,840" stroke="blue" stroke-width="2" />
<path d="M6003,6164 L5305,2903" stroke="blue" stroke-width="2" />
<path d="M1599,7265 L1413,3643" stroke="blue" stroke-width="2" />
<path d="M5448,8864 L3119,8735" stroke="blue" stroke-width="2" />
<path d="M3085,742 L4801,2393" stroke="blue" stroke-width="2" />
<path d="M460,1747 L14,8351" stroke="blue" stroke-width="2" />
<path d="M3191,2401 L3339,5924" stroke="blue" stroke-width="2" />
<path d="M4600,6985 L3020,3612" stroke="blue" stroke-width="2" />
<path d="M1484,8740 L2016,2974" stroke="blue" stroke-width="2" />
<path d="M4738,7635 L4094,493" stroke="blue" stroke-width="2" />
<path d="M1614,8828 L534,8404" stroke="blue" stroke-width="2" />
<path d="M2996,7362 L6680,2897" stroke="blue" stroke-width="2" />
<path d="M3996,6032 L3468,4085" stroke="blue" stroke-width="2" />
<path d="M3379,8270 L1310,8749" stroke="blue" stroke-width="2" />
<path d="M824,8435 L865,5009" stroke="blue" stroke-width="2" />
<path d="M2248,7113 L518,6386" stroke="blue" stroke-width="2" />
<path d="M6490,2346 L1338,4035" stroke="blue" stroke-width="2" />
<path d="M4750,8288 L3222,2241" stroke="blue" stroke-width="2" />
<path d="M4859,4648 L500,749" stroke="blue" stroke-width="2" />
<path d="M4480,2749 L6276,3519" stroke="blue" stroke-width="2" />
<path d="M5113,4075 L3468,5654" stroke="blue" stroke-width="2" />
<path d="M641,3075 L1047,4725" stroke="blue" stroke-width="2" />
<path d="M5173,3245 L2305,4652" stroke="blue" stroke-width="2" />
<path d="M128,8816 L6585,8944" stroke="blue" stroke-width="2" />
<path d="M5286,8652 L5711,7101" stroke="blue" stroke-width="2" />
<path d="M1743,1497 L4747,2712" stroke="blue" stroke-width="2" />
<path d="M1295,3874 L983,5432" stroke="blue" stroke-width="2" />
<path d="M6030,6648 L996,6534" stroke="blue" stroke-width="2" />
<path d="M2363,8681 L5638,7439" stroke="blue" stroke-width="2" />
<path d="M1822,7578 L1562,6280" stroke="blue" stroke-width="2" />
<path d="M3017,673 L52,2855" stroke="blue" stroke-width="2" />
<path d="M477,1580 L1243,521" stroke="blue" stroke-width="2" />
<path d="M3227,2075 L3516,8124" stroke="blue" stroke-width="2" />
<path d="M3273,3285 L4373,4648" stroke="blue" stroke-width="2" />
<path d="M1552,1013 L623,5406" stroke="blue" stroke-width="2" />
<path d="M100,8010 L4645,2513" stroke="blue" stroke-width="2" />
<path d="M5578,3836 L2109,2104" stroke="blue" stroke-width="2" />
<path d="M1848,2530 L4056,6692" stroke="blue" stroke-width="2" />
<path d="M10,6704 L2657,704" stroke="blue" stroke-width="2" />
<path d="M2990,2234 L1493,118" stroke="blue" stroke-width="2" />
<path d="M5378,3695 L1658,2308" stroke="blue" stroke-width="2" />
<path d="M4262,4100 L4871,3662" stroke="blue" stroke-width="2" />
<path d="M4589,2290 L4554,4651" stroke="blue" stroke-width="2" />
<path d="M2078,7723 L924,3438" stroke="blue" stroke-width="2" />
<path d="M5013,7204 L6219,2667" stroke="blue" stroke-width="2" />
<path d="M6711,1387 L1604,7469" stroke="blue" stroke-width="2" />
<path d="M2381,4215 L752,3481" stroke="blue" stroke-width="2" />
<path d="M5749,8956 L330,7025" stroke="blue" stroke-width="2" />
<path d="M429,2863 L5558,2214" stroke="blue" stroke-width="2" />
<path d="M3443,8871 L5441,8086" stroke="blue" stroke-width="2" />
<path d="M5802,5293 L4587,4443" stroke="blue" stroke-width="2" />
<path d="M835,1102 L3492,53" stroke="blue" stroke-width="2" />
<path d="M4240,3993 L4969,2200" stroke="blue" stroke-width="2" />
<path d="M3700,95 L6384,248" stroke="blue" stroke-width="2" />
<path d="M6125,1888 L4466,3534" stroke="blue" stroke-width="2" />
<path d="M3408,469 L6419,6375" stroke="blue" stroke-width="2" />
<path d="M6510,364 L238,641" stroke="blue" stroke-width="2" />
<path d="M4501,2731 L2414,5449" stroke="blue" stroke-width="2" />
<path d="M2170,2654 L3741,2256" stroke="blue" stroke-width="2" />
<path d="M6496,1789 L6071,5236" stroke="blue" stroke-width="2" />
<path d="M2815,7212 L724,8816" stroke="blue" stroke-width="2" />
<path d="M3153,7761 L2009,5584" stroke="blue" stroke-width="2" />
<path d="M2913,1741 L5772,7102" stroke="blue" stroke-width="2" />
<path d="M28,3902 L5980,8295" stroke="blue" stroke-width="2" />
<path d="M2497,5868 L970,6898" stroke="blue" stroke-width="2" />
<path d="M1017,5986 L2737,6239" stroke="blue" stroke-width="2" />
<path d="M5923,4464 L1989,2986" stroke="blue" stroke-width="2" />
<path d="M4401,4909 L4777,2537" stroke="blue" stroke-width="2" />
<path d="M3246,2343 L1193,579" stroke="blue" stroke-width="2" />
<path d="M4655,5544 L1279,6872" stroke="blue" stroke-width="2" />
<path d="M1242,3294 L4784,8507" stroke="blue" stroke-width="2" />
<path d="M1804,4216 L1269,6838" stroke="blue" stroke-width="2" />
<path d="M4611,7666 L857,6674" stroke="blue" stroke-width="2" />
<path d="M3823,5876 L5932,3120" stroke="blue" stroke-width="2" />
<path d="M2982,5146 L4152,6000" stroke="blue" stroke-width="2" />
<path d="M5430,5708 L5315,7321" stroke="blue" stroke-width="2" />
<path d="M4011,4621 L2260,2490" stroke="blue" stroke-width="2" />
<path d="M2155,6682 L5342,6243" stroke="blue" stroke-width="2" />
<path d="M2356,6157 L647,7034" stroke="blue" stroke-width="2" />
<path d="M214,3818 L659,3062" stroke="blue" stroke-width="2" />
<path d="M3101,2765 L4347,1395" stroke="blue" stroke-width="2" />
<path d="M4547,3506 L311,1029" stroke="blue" stroke-width="2" />
<path d="M1956,877 L4141,2262" stroke="blue" stroke-width="2" />
<path d="M4568,2402 L5143,3511" stroke="blue" stroke-width="2" />
<path d="M3394,15 L3433,3963" stroke="blue" stroke-width="2" />
<path d="M4285,5971 L4965,7190" stroke="blue" stroke-width="2" />
<path d="M345,8568 L3042,196" stroke="blue" stroke-width="2" />
<path d="M906,2603 L4711,122" stroke="blue" stroke-width="2" />
<path d="M6114,1390 L1894,4955" stroke="blue" stroke-width="2" />
<path d="M5322,5759 L5815,2125" stroke="blue" stroke-width="2" />
<path d="M4609,1502 L5389,7244" stroke="blue" stroke-width="2" />
<path d="M4404,1648 L1476,2831" stroke="blue" stroke-width="2" />
<path d="M6639,6947 L395,8165" stroke="blue" stroke-width="2" />
<path d="M5199,3435 L3704,4197" stroke="blue" stroke-width="2" />
<path d="M1692,3069 L3313,7903" stroke="blue" stroke-width="2" />
<path d="M6643,8213 L485,7161" stroke="blue" stroke-width="2" />
<path d="M1977,376 L170,6980" stroke="blue" stroke-width="2" />
<path d="M786,2042 L3742,6898" stroke="blue" stroke-width="2" />
<path d="M3948,8339 L6596,1172" stroke="blue" stroke-width="2" />
<path d="M5035,7950 L849,7022" stroke="blue" stroke-width="2" />
<path d="M2421,7614 L1446,7033" stroke="blue" stroke-width="2" />
<path d="M678,5407 L5689,5568" stroke="blue" stroke-width="2" />
<path d="M3248,5941 L1401,1478" stroke="blue" stroke-width="2" />
<path d="M2944,1762 L3067,224" stroke="blue" stroke-width="2" />
<path d="M399,361 L2749,6355" stroke="blue" stroke-width="2" />
<path d="M1546,4742 L545,2850" stroke="blue" stroke-width="2" />
<path d="M4949,3670 L3181,7538" stroke="blue" stroke-width="2" />
<path d="M4474,7391 L3343,3945" stroke="blue" stroke-width="2" />
<path d="M2344,543 L5807,1306" stroke="blue" stroke-width="2" />
<path d="M4690,7940 L6790,2131" stroke="blue" stroke-width="2" />
<path d="M1041,7744 L6692,1773" stroke="blue" stroke-width="2" />
<path d="M1958,3603 L5739,5898" stroke="blue" stroke-width="2" />
<path d="M1670,5807 L3315,6851" stroke="blue" stroke-width="2" />
<path d="M2113,1880 L3193,7244" stroke="blue" stroke-width="2" />
<path d="M2624,8589 L2868,7925" stroke="blue" stroke-width="2" />
<path d="M3342,7536 L5558,5382" stroke="blue" stroke-width="2" />
<path d="M6049,5447 L2086,8311" stroke="blue" stroke-width="2" />
<path d="M4310,3653 L3615,3111" stroke="blue" stroke-width="2" />
<path d="M321,7823 L6869,5919" stroke="blue" stroke-width="2" />
<path d="M3666,4456 L3482,8605" stroke="blue" stroke-width="2" />
<path d="M3611,5908 L4130,2454" stroke="blue" stroke-width="2" />
<path d="M4063,925 L527,3740" stroke="blue" stroke-width="2" />
<path d="M4434,6676 L1014,4894" stroke="blue" stroke-width="2" />
<path d="M2278,8415 L6081,538" stroke="blue" stroke-width="2" />
<path d="M2373,3089 L2838,3949" stroke="blue" stroke-width="2" />
<path d="M2022,2159 L193,5477" stroke="blue" stroke-width="2" />
<path d="M5186,2925 L5992,168" stroke="blue" stroke-width="2" />
<path d="M6632,8787 L6234,3464" stroke="blue" stroke-width="2" />
<path d="M977,7352 L1375,7298" stroke="blue" stroke-width="2" />
<path d="M3340,2878 L1115,8560" stroke="blue" stroke-width="2" />
<path d="M907,8884 L6729,4828" stroke="blue" stroke-width="2" />
<path d="M2274,2883 L3005,7491" stroke="blue" stroke-width="2" />
<path d="M5076,8585 L6723,8897" stroke="blue" stroke-width="2" />
<path d="M3682,5842 L2462,8189" stroke="blue" stroke-width="2" />
<path d="M2896,8807 L309,1898" stroke="blue" stroke-width="2" />
<path d="M4613,4972 L924,6749" stroke="blue" stroke-width="2" />
<path d="M2393,4109 L5423,1925" stroke="blue" stroke-width="2" />
<path d="M1192,747 L1491,2062" stroke="blue" stroke-width="2" />
<path d="M3439,7037 L4313,6837" stroke="blue" stroke-width="2" />
<path d="M3607,7746 L2825,3280" stroke="blue" stroke-width="2" />
<path d="M4613,809 L390,1160" stroke="blue" stroke-width="2" />
<path d="M4394,6196 L5795,7281" stroke="blue" stroke-width="2" />
<path d="M3538,3598 L1037,4056" stroke="blue" stroke-width="2" />
<path d="M4401,189 L5815,3297" stroke="blue" stroke-width="2" />
<path d="M1748,7328 L5777,2581" stroke="blue" stroke-width="2" />
<path d="M775,4027 L6125,680" stroke="blue" stroke-width="2" />
<path d="M1020,4866 L3782,475" stroke="blue" stroke-width="2" />
<path d="M3247,6717 L1863,739" stroke="blue" stroke-width="2" />
<path d="M5830,5678 L4287,8118" stroke="blue" stroke-width="2" />
<path d="M3061,925 L4672,2532" stroke="blue" stroke-width="2" />
<path d="M3105,1977 L1741,3548" stroke="blue" stroke-width="2" />
<path d="M6221,2404 L3894,4431" stroke="blue" stroke-width="2" />
<path d="M4042,1021 L3471,7105" stroke="blue" stroke-width="2" />
<path d="M3054,1406 L3888,2251" stroke="blue" stroke-width="2" />
<path d="M81,5123 L598,3092" stroke="blue" stroke-width="2" />
<path d="M2307,7754 L2858,1472" stroke="blue" stroke-width="2" />
<path d="M370,2036 L2685,5488" stroke="blue" stroke-width="2" />
<path d="M2399,2196 L4099,2501" stroke="blue" stroke-width="2" />
<path d="M3661,8835 L1639,7530" stroke="blue" stroke-width="2" />
<path d="M4017,4501 L681,1583" stroke="blue" stroke-width="2" />
<path d="M2100,1905 L6542,7094" stroke="blue" stroke-width="2" />
<path d="M6282,7845 L6449,7950" stroke="blue" stroke-width="2" />
<path d="M285,4434 L6770,4663" stroke="blue" stroke-width="2" />
<path d="M1199,2217 L228,6725" stroke="blue" stroke-width="2" />
<path d="M5221,335 L3006,5871" stroke="blue" stroke-width="2" />
<path d="M5760,4804 L1492,1716" stroke="blue" stroke-width="2" />
<path d="M6339,551 L3453,1371" stroke="blue" stroke-width="2" />
<path d="M1859,3579 L2200,1602" stroke="blue" stroke-width="2" />
<path d="M2837,1730 L490,5451" stroke="blue" stroke-width="2" />
<path d="M2030,4675 L1857,2630" stroke="blue" stroke-width="2" />
<path d="M6394,545 L583,2007" stroke="blue" stroke-width="2" />
<path d="M6811,3206 L6541,3363" stroke="blue" stroke-width="2" />
<path d="M4697,1801 L5707,8451" stroke="blue" stroke-width="2" />
<path d="M3623,4091 L4317,2185" stroke="blue" stroke-width="2" />
<path d="M4125,2877 L1122,6337" stroke="blue" stroke-width="2" />
<path d="M5782,3868 L5827,5327" stroke="blue" stroke-width="2" />
<path d="M6786,768 L507,2274" stroke="blue" stroke-width="2" />
<path d="M5009,8501 L2664,113" stroke="blue" stroke-width="2" />
<path d="M5091,4363 L1016,7502" stroke="blue" stroke-width="2" />
<path d="M2790,3793 L2870,7383" stroke="blue" stroke-width="2" />
<path d="M14,4411 L5782,2008" stroke="blue" stroke-width="2" />
<path d="M6273,870 L6395,5556" stroke="blue" stroke-width="2" />
<path d="M5295,8111 L2162,3101" stroke="blue" stroke-width="2" />
<path d="M5570,1612 L2121,4507" stroke="blue" stroke-width="2" />
<path d="M6674,260 L2680,8903" stroke="blue" stroke-width="2" />
<path d="M2586,3578 L1316,6486" stroke="blue" stroke-width="2" />
<path d="M4359,8722 L1867,8637" stroke="blue" stroke-width="2" />
<path d="M6455,1651 L163,3253" stroke="blue" stroke-width="2" />
<path d="M1221,7752 L1067,8061" stroke="blue" stroke-width="2" />
<path d="M1116,8869 L5501,1591" stroke="blue" stroke-width="2" />
<path d="M123,2483 L3114,4958" stroke="blue" stroke-width="2" />
<path d="M1820,7680 L5524,6010" stroke="blue" stroke-width="2" />
<path d="M48,4919 L273,6507" stroke="blue" stroke-width="2" />
<path d="M2016,6785 L593,1777" stroke="blue" stroke-width="2" />
<path d="M6430,3807 L1731,1978" stroke="blue" stroke-width="2" />
<path d="M2971,6014 L493,8953" stroke="blue" stroke-width="2" />
<path d="M3801,3357 L1936,7793" stroke="blue" stroke-width="2" />
<path d="M6039,773 L4459,5793" stroke="blue" stroke-width="2" />
<path d="M6518,7922 L5381,7663" stroke="blue" stroke-width="2" />
<path d="M6224,4402 L2440,17" stroke="blue" stroke-width="2" />
<path d="M1534,6185 L5485,6942" stroke="blue" stroke-width="2" />
<path d="M1832,3659 L94,4171" stroke="blue" stroke-width="2" />
<path d="M6033,105 L6664,1719" stroke="blue" stroke-width="2" />
<path d="M2773,7385 L5187,2248" stroke="blue" stroke-width="2" />
<path d="M6042,5513 L5789,5168" stroke="blue" stroke-width="2" />
<path d="M2570,5513 L444,538" stroke="blue" stroke-width="2" />
<path d="M2906,5493 L4509,3526" stroke="blue" stroke-width="2" />
<path d="M6149,8721 L6068,4152" stroke="blue" stroke-width="2" />
<path d="M6441,6966 L2911,5994" stroke="blue" stroke-width="2" />
<path d="M105,3679 L1466,355" stroke="blue" stroke-width="2" />
<path d="M3923,5699 L4192,8764" stroke="blue" stroke-width="2" />
<path d="M0,0 L6871,0" stroke="red" stroke-width="10" />
<path d="M6871,0 L6871,9003" stroke="red" stroke-width="10" />
<path d="M0,9003 L6871,9003" stroke="red" stroke-width="10" />
<path d="M0,9003 L0,0" stroke="red" stroke-width="10" />
</svg>