<?xml version="1.0" encoding="UTF-8"?>
<svg xmlns="http://www.w3.org/2000/svg" xmlns:xlink="http://www.w3.org/1999/xlink"
     width="10000" height="10000" viewBox="0 0 10000 10000">
<defs>
</defs>
<path d="M7508,358 L429,7295" stroke="blue" stroke-width="2" />
<path d="M6956,3254 L4046,3181" stroke="blue" stroke-width="2" />
<path d="M1442,3631 L4384,3276" stroke="blue" stroke-width="2" />
<path d="M6406,6535 L3873,647" stroke="blue" stroke-width="2" />
<path d="M2760,4510 L2675,7503" stroke="blue" stroke-width="2" />
<path d="M4484,4279 L2521,2780" stroke="blue" stroke-width="2" />
<path d="M2858,4196 L473,4081" stroke="blue" stroke-width="2" />
<path d="M6044,1027 L2237,7103" stroke="blue" stroke-width="2" />
<path d="M2598,524 L2160,1959" stroke="blue" stroke-width="2" />
<path d="M4995,7548 L4481,5351" stroke="blue" stroke-width="2" />
<path d="M4192,3879 L1266,2484" stroke="blue" stroke-width="2" />
<path d="M4016,1950 L5082,786" stroke="blue" stroke-width="2" />
<path d="M1173,1802 L3130,7366" stroke="blue" stroke-width="2" />
<path d="M7641,4578 L3791,1823" stroke="blue" stroke-width="2" />
<path d="M5853,5882 L7474,5047" stroke="blue" stroke-width="2" />
<path d="M5368,2065 L2317,2478" stroke="blue" stroke-width="2" />
<path d="M3771,738 L945,1132" stroke="blue" stroke-width="2" />
<path d="M6995,6823 L3040,5216" stroke="blue" stroke-width="2" />
<path d="M3992,7928 L1761,7292" stroke="blue" stroke-width="2" />
<path d="M3001,7402 L5433,232" stroke="blue" stroke-width="2" />
<path d="M5422,2582 L4288,1303" stroke="blue" stroke-width="2" />
<path d="M3616,5796 L2245,948" stroke="blue" stroke-width="2" />
<path d="M6764,3685 L1915,1673" stroke="blue" stroke-width="2" />
<path d="M6502,6979 L2466,66" stroke="blue" stroke-width="2" />
<path d="M1380,5317 L1642,283" stroke="blue" stroke-width="2" />
<path d="M5530,2207 L4282,1739" stroke="blue" stroke-width="2" />
<path d="M6002,420 L3711,5147" stroke="blue" stroke-width="2" />
<path d="M4917,7299 L4848,2378" stroke="blue" stroke-width="2" />
<path d="M6559,5107 L5501,1474" stroke="blue" stroke-width="2" />
<path d="M5208,3793 L2052,3580" stroke="blue" stroke-width="2" />
<path d="M4366,2393 L7182,2187" stroke="blue" stroke-width="2" />
<path d="M2838,210 L3517,1079" stroke="blue" stroke-width="2" />
<path d="M813,994 L98,6891" stroke="blue" stroke-width="2" />
<path d="M4424,570 L6895,2090" stroke="blue" stroke-width="2" />
<path d="M7533,2608 L6635,912" stroke="blue" stroke-width="2" />
<path d="M4609,2436 L6408,6931" stroke="blue" stroke-width="2" />
<path d="M5992,6994 L740,3652" stroke="blue" stroke-width="2" />
<path d="M7661,3043 L5643,6379" stroke="blue" stroke-width="2" />
<path d="M6080,1379 L3121,7617" stroke="blue" stroke-width="2" />
<path d="M6629,7816 L6308,124" stroke="blue" stroke-width="2" />
<path d="M6837,2140 L4739,5412" stroke="blue" stroke-width="2" />
<path d="M80,3666 L5935,791" stroke="blue" stroke-width="2" />
<path d="M2412,6914 L1922,588" stroke="blue" stroke-width="2" />
<path d="M5616,2693 L3713,2869" stroke="blue" stroke-width="2" />
<path d="M398,104 L3881,1633" stroke="blue" stroke-width="2" />
<path d="M6282,6066 L5027,6474" stroke="blue" stroke-width="2" />
<path d="M1740,1777 L5066,989" stroke="blue" stroke-width="2" />
<path d="M2244,3372 L3834,5510" stroke="blue" stroke-width="2" />
<path d="M4425,186 L4137,1120" stroke="blue" stroke-width="2" />
<path d="M5924,2001 L3051,3463" stroke="blue" stroke-width="2" />
<path d="M669,6774 L6447,350" stroke="blue" stroke-width="2" />
<path d="M3277,1132 L7464,3866" stroke="blue" stroke-width="2" />
<path d="M5859,1976 L867,3318" stroke="blue" stroke-width="2" />
<path d="M117,2113 L2623,2089" stroke="blue" stroke-width="2" />
<path d="M7761,4024 L5282,5506" stroke="blue" stroke-width="2" />
<path d="M7410,5394 L7507,6222" stroke="blue" stroke-width="2" />
<path d="M4347,4366 L255,6652" stroke="blue" stroke-width="2" />
<path d="M6216,5040 L6235,2062" stroke="blue" stroke-width="2" />
<path d="M61,2836 L3176,6689" stroke="blue" stroke-width="2" />
<path d="M6481,6847 L4759,6467" stroke="blue" stroke-width="2" />
<path d="M1526,1481 L394,1941" stroke="blue" stroke-width="2" />
<path d="M3681,2758 L2215,6216" stroke="blue" stroke-width="2" />
<path d="M2212,4534 L4035,4872" stroke="blue" stroke-width="2" />
<path d="M3530,7072 L2911,1797" stroke="blue" stroke-width="2" />
<path d="M7646,1351 L5865,5407" stroke="blue" stroke-width="2" />
<path d="M5283,3916 L2998,6836" stroke="blue" stroke-width="2" />
<path d="M3763,3188 L1289,6042" stroke="blue" stroke-width="2" />
<path d="M6742,2783 L6226,5402" stroke="blue" stroke-width="2" />
<path d="M5891,7690 L1751,2868" stroke="blue" stroke-width="2" />
<path d="M5133,243 L3443,5180" stroke="blue" stroke-width="2" />
<path d="M4617,4120 L156,6236" stroke="blue" stroke-width="2" />
<path d="M4415,4482 L6422,4374" stroke="blue" stroke-width="2" />
<path d="M1430,6597 L1896,3522" stroke="blue" stroke-width="2" />
<path d="M2390,1843 L7871,5611" stroke="blue" stroke-width="2" />
<path d="M5070,872 L2692,1850" stroke="blue" stroke-width="2" />
<path d="M350,552 L1618,629" stroke="blue" stroke-width="2" />
<path d="M4006,502 L6926,6794" stroke="blue" stroke-width="2" />
<path d="M1438,6949 L3677,4676" stroke="blue" stroke-width="2" />
<path d="M3458,2715 L4842,906" stroke="blue" stroke-width="2" />
<path d="M3640,6915 L2843,4626" stroke="blue" stroke-width="2" />
<path d="M2037,10 L2204,3162" stroke="blue" stroke-width="2" />
<path d="M1735,617 L6503,4187" stroke="blue" stroke-width="2" />
<path d="M2355,2277 L6025,6029" stroke="blue" stroke-width="2" />
<path d="M6164,2287 L918,2095" stroke="blue" stroke-width="2" />
<path d="M4900,3122 L1231,5362" stroke="blue" stroke-width="2" />
<path d="M1074,7936 L7903,3059" stroke="blue" stroke-width="2" />
<path d="M6001,7375 L2459,3174" stroke="blue" stroke-width="2" />
<path d="M3141,5722 L2291,5727" stroke="blue" stroke-width="2" />
<path d="M5301,1187 L1781,2948" stroke="blue" stroke-width="2" />
<path d="M1008,2144 L3226,3296" stroke="blue" stroke-width="2" />
<path d="M1685,5495 L3250,5609" stroke="blue" stroke-width="2" />
<path d="M6716,4827 L5375,1795" stroke="blue" stroke-width="2" />
<path d="M6679,2183 L6841,5375" stroke="blue" stroke-width="2" />
<path d="M1369,3954 L7880,2681" stroke="blue" stroke-width="2" />
<path d="M756,7823 L4504,2552" stroke="blue" stroke-width="2" />
<path d="M2076,5006 L371,4664" stroke="blue" stroke-width="2" />
<path d="M5440,6347 L3788,6175" stroke="blue" stroke-width="2" />
<path d="M772,2199 L4020,5138" stroke="blue" stroke-width="2" />
<path d="M971,7522 L5393,5595" stroke="blue" stroke-width="2" />
<path d="M7264,1610 L374,2009" stroke="blue" stroke-width="2" />
<path d="M2414,736 L6583,3337" stroke="blue" stroke-width="2" />
<path d="M4955,5003 L6235,6269" stroke="blue" stroke-width="2" />
<path d="M4832,1292 L5827,3790" stroke="blue" stroke-width="2" />
<path d="M5040,2912 L1326,1014" stroke="blue" stroke-width="2" />
<path d="M3438,5613 L5695,3770" stroke="blue" stroke-width="2" />
<path d="M787,1626 L4146,4318" stroke="blue" stroke-width="2" />
<path d="M3674,7932 L2538,42" stroke="blue" stroke-width="2" />
<path d="M2931,110 L5970,4104" stroke="blue" stroke-width="2" />
<path d="M2554,6529 L7639,756" stroke="blue" stroke-width="2" />
<path d="M5462,2981 L935,36" stroke="blue" stroke-width="2" />
<path d="M5477,7873 L2815,5232" stroke="blue" stroke-width="2" />
<path d="M6809,4402 L7451,117" stroke="blue" stroke-width="2" />
<path d="M2312,3825 L6057,4865" stroke="blue" stroke-width="2" />
<path d="M5178,7182 L7556,526" stroke="blue" stroke-width="2" />
<path d="M7404,2483 L5438,382" stroke="blue" stroke-width="2" />
<path d="M622,5421 L2284,7112" stroke="blue" stroke-width="2" />
<path d="M1801,2253 L7237,2036" stroke="blue" stroke-width="2" />
<path d="M5497,3676 L6589,5132" stroke="blue" stroke-width="2" />
<path d="M5748,3968 L2320,1773" stroke="blue" stroke-width="2" />
<path d="M7203,4234 L4679,2161" stroke="blue" stroke-width="2" />
<path d="M1570,6012 L1119,6009" stroke="blue" stroke-width="2" />
<path d="M6877,7581 L6052,7276" stroke="blue" stroke-width="2" />
<path d="M1636,606 L4868,3522" stroke="blue" stroke-width="2" />
<path d="M2208,2876 L668,1094" stroke="blue" stroke-width="2" />
<path d="M7204,7560 L4598,6103" stroke="blue" stroke-width="2" />
<path d="M1566,6659 L3804,5783" stroke="blue" stroke-width="2" />
<path d="M602,1274 L7042,4420" stroke="blue" stroke-width="2" />
<path d="M4102,3250 L7764,2640" stroke="blue" stroke-width="2" />
<path d="M4279,3502 L7391,4430" stroke="blue" stroke-width="2" />
<path d="M200,2800 L2631,734" stroke="blue" stroke-width="2" />
<path d="M6910,2488 L7728,6945" stroke="blue" stroke-width="2" />
<path d="M7775,1133 L2688,4383" stroke="blue" stroke-width="2" />
<path d="M3607,50 L2047,803" stroke="blue" stroke-width="2" />
<path d="M3758,1732 L2302,6816" stroke="blue" stroke-width="2" />
<path d="M5823,3402 L456,6781" stroke="blue" stroke-width="2" />
<path d="M6305,6379 L4484,7377" stroke="blue" stroke-width="2" />
<path d="M5112,2028 L5941,5306" stroke="blue" stroke-width="2" />
<path d="M1753,3892 L6595,2897" stroke="blue" stroke-width="2" />
<path d="M393,3253 L7261,6660" stroke="blue" stroke-width="2" />
<path d="M1126,7886 L122,3448" stroke="blue" stroke-width="2" />
<path d="M5475,2273 L5230,7747" stroke="blue" stroke-width="2" />
<path d="M1492,1353 L6907,2527" stroke="blue" stroke-width="2" />
<path d="M7588,4621 L7806,7547" stroke="blue" stroke-width="2" />
<path d="M937,6856 L2710,692" stroke="blue" stroke-width="2" />
<path d="M3029,4970 L4161,5522" stroke="blue" stroke-width="2" />
<path d="M3170,2245 L2190,4273" stroke="blue" stroke-width="2" />
<path d="M3887,3498 L7695,7911" stroke="blue" stroke-width="2" />
<path d="M147,2020 L3910,7817" stroke="blue" stroke-width="2" />
<path d="M3789,5234 L5697,5954" stroke="blue" stroke-width="2" />
<path d="M6340,1883 L2696,127" stroke="blue" stroke-width="2" />
<path d="M2877,1102 L1459,6180" stroke="blue" stroke-width="2" />
<path d="M7086,5877 L6330,7582" stroke="blue" stroke-width="2" />
<path d="M1818,60 L549,1394" stroke="blue" stroke-width="2" />
<path d="M3519,7728 L3622,5698" stroke="blue" stroke-width="2" />
<path d="M429,2016 L7624,3150" stroke="blue" stroke-width="2" />
<path d="M5703,7891 L4302,4281" stroke="blue" stroke-width="2" />
<path d="M64,6374 L2871,5259" stroke="blue" stroke-width="2" />
<path d="M5801,1898 L279,6342" stroke="blue" stroke-width="2" />
<path d="M2562,1311 L5933,4893" stroke="blue" stroke-width="2" />
<path d="M3460,4257 L6517,1461" stroke="blue" stroke-width="2" />
<path d="M2853,1301 L7648,6544" stroke="blue" stroke-width="2" />
<path d="M2536,5293 L505,2316" stroke="blue" stroke-width="2" />
<path d="M5671,7542 L5839,1855" stroke="blue" stroke-width="2" />
<path d="M7322,63 L5474,4733" stroke="blue" stroke-width="2" />
<path d="M5661,4364 L4685,1839" stroke="blue" stroke-width="2" />
<path d="M4402,571 L5597,2794" stroke="blue" stroke-width="2" />
<path d="M3801,2475 L2928,2106" stroke="blue" stroke-width="2" />
<path d="M7803,2264 L478,3003" stroke="blue" stroke-width="2" />
<path d="M1046,4008 L1159,4653" stroke="blue" stroke-width="2" />
<path d="M2450,1933 L5075,7763" stroke="blue" stroke-width="2" />
<path d="M3294,2312 L7324,2495" stroke="blue" stroke-width="2" />
<path d="M5343,1636 L7456,3049" stroke="blue" stroke-width="2" />
<path d="M4888,1043 L4834,2001" stroke="blue" stroke-width="2" />
<path d="M3605,3110 L4391,5830" stroke="blue" stroke-width="2" />
<path d="M2329,4595 L2160,6257" stroke="blue" stroke-width="2" />
<path d="M5911,588 L6124,2274" stroke="blue" stroke-width="2" />
<path d="M1392,840 L5799,1228" stroke="blue" stroke-width="2" />
<path d="M3910,6898 L3087,1200" stroke="blue" stroke-width="2" />
<path d="M5689,2319 L3841,7792" stroke="blue" stroke-width="2" />
<path d="M6678,2884 L2017,5419" stroke="blue" stroke-width="2" />
<path d="M5333,2406 L995,3302" stroke="blue" stroke-width="2" />
<path d="M334,471 L4607,2930" stroke="blue" stroke-width="2" />
<path d="M2315,6347 L6407,6006" stroke="blue" stroke-width="2" />
<path d="M5467,1701 L7859,1093" stroke="blue" stroke-width="2" />
<path d="M7096,6858 L6408,7272" stroke="blue" stroke-width="2" />
<path d="M3800,7464 L1782,6513" stroke="blue" stroke-width="2" />
<path d="M1135,1775 L5666,5867" stroke="blue" stroke-width="2" />
<path d="M359,4426 L1186,6848" stroke="blue" stroke-width="2" />
<path d="M5970,5797 L1617,814" stroke="blue" stroke-width="2" />
<path d="M5916,1835 L3295,1521" stroke="blue" stroke-width="2" />
<path d="M913,7835 L4077,782" stroke="blue" stroke-width="2" />
<path d="M6610,6890 L3472,969" stroke="blue" stroke-width="2" />
<path d="M6279,704 L5636,7645" stroke="blue" stroke-width="2" />
<path d="M5608,2704 L1614,3804" stroke="blue" stroke-width="2" />
<path d="M473,3023 L6723,923" stroke="blue" stroke-width="2" />
<path d="M1460,152 L620,1842" stroke="blue" stroke-width="2" />
<path d="M901,1174 L1558,5299" stroke="blue" stroke-width="2" />
<path d="M7898,418 L4002,824" stroke="blue" stroke-width="2" />
<path d="M2509,1056 L889,3579" stroke="blue" stroke-width="2" />
<path d="M7026,2240 L3421,3159" stroke="blue" stroke-width="2" />
<path d="M847,3869 L6029,5379" stroke="blue" stroke-width="2" />
<path d="M7866,3747 L7373,4753" stroke="blue" stroke-width="2" />
<path d="M5062,3302 L4234,5438" stroke="blue" stroke-width="2" />
<path d="M6313,770 L7500,3480" stroke="blue" stroke-width="2" />
<path d="M5505,5453 L2961,4928" stroke="blue" stroke-width="2" />
<path d="M1265,3871 L6875,7915" stroke="blue" stroke-width="2" />
<path d="M4740,3914 L3074,1554" stroke="blue" stroke-width="2" />
<path d="M4678,1150 L3754,3258" stroke="blue" stroke-width="2" />
<path d="M1798,1924 L4381,2146" stroke="blue" stroke-width="2" />
<path d="M5369,4060 L4126,5426" stroke="blue" stroke-width="2" />
<path d="M5930,5473 L7182,6201" stroke="blue" stroke-width="2" />
<path d="M5986,1764 L1646,992" stroke="blue" stroke-width="2" />
<path d="M400,4009 L3515,3945" stroke="blue" stroke-width="2" />
<path d="M3263,5473 L4627,2327" stroke="blue" stroke-width="2" />
<path d="M3980,2485 L346,6605" stroke="blue" stroke-width="2" />
<path d="M2102,7492 L3979,12" stroke="blue" stroke-width="2" />
<path d="M3290,2273 L4706,6793" stroke="blue" stroke-width="2" />
<path d="M2658,297 L2370,7365" stroke="blue" stroke-width="2" />
<path d="M466,676 L3048,3965" stroke="blue" stroke-width="2" />
<path d="M4475,3166 L1,39" stroke="blue" stroke-width="2" />
<path d="M629,1591 L3793,7099" stroke="blue" stroke-width="2" />
<path d="M2951,7472 L4666,7396" stroke="blue" stroke-width="2" />
<path d="M5463,4050 L41,4270" stroke="blue" stroke-width="2" />
<path d="M2650,3807 L6745,6027" stroke="blue" stroke-width="2" />
<path d="M4213,4724 L6485,2754" stroke="blue" stroke-width="2" />
<path d="M51,2907 L4254,894" stroke="blue" stroke-width="2" />
<path d="M2634,7851 L4476,7239" stroke="blue" stroke-width="2" />
<path d="M2553,3379 L1633,3989" stroke="blue" stroke-width="2" />
<path d="M7726,7213 L2093,5913" stroke="blue" stroke-width="2" />
<path d="M821,6153 L2210,3515" stroke="blue" stroke-width="2" />
<path d="M2141,1369 L482,660" stroke="blue" stroke-width="2" />
<path d="M937,3447 L3923,2892" stroke="blue" stroke-width="2" />
<path d="M3661,3627 L1651,7682" stroke="blue" stroke-width="2" />
<path d="M2869,4304 L7177,3235" stroke="blue" stroke-width="2" />
<path d="M1461,6191 L7016,1733" stroke="blue" stroke-width="2" />
<path d="M154,6088 L7888,6858" stroke="blue" stroke-width="2" />
<path d="M2147,3133 L77,5292" stroke="blue" stroke-width="2" />
<path d="M6708,668 L7065,6728" stroke="blue" stroke-width="2" />
<path d="M7027,4032 L3904,2201" stroke="blue" stroke-width="2" />
<path d="M1200,5616 L5061,6365" stroke="blue" stroke-width="2" />
<path d="M7009,4016 L2494,7222" stroke="blue" stroke-width="2" />
<path d="M4366,3443 L6407,3124" stroke="blue" stroke-width="2" />
<path d="M5741,6654 L1084,1738" stroke="blue" stroke-width="2" />
<path d="M491,4293 L2584,2178" stroke="blue" stroke-width="2" />
<path d="M1493,4776 L2752,784" stroke="blue" stroke-width="2" />
<path d="M6653,7005 L4802,763" stroke="blue" stroke-width="2" />
<path d="M4280,4085 L4427,7369" stroke="blue" stroke-width="2" />
<path d="M5618,5624 L1487,4458" stroke="blue" stroke-width="2" />
<path d="M2094,4755 L7463,3111" stroke="blue" stroke-width="2" />
<path d="M3734,2530 L1761,6922" stroke="blue" stroke-width="2" />
<path d="M7158,1181 L2166,5038" stroke="blue" stroke-width="2" />
<path d="M6840,5776 L3124,4122" stroke="blue" stroke-width="2" />
<path d="M1975,2969 L5408,5922" stroke="blue" stroke-width="2" />
<path d="M1504,537 L99,489" stroke="blue" stroke-width="2" />
<path d="M1085,4328 L4244,3717" stroke="blue" stroke-width="2" />
<path d="M1982,5207 L2130,3234" stroke="blue" stroke-width="2" />
<path d="M296,4416 L5235,136" stroke="blue" stroke-width="2" />
<path d="M5159,6999 L1063,7541" stroke="blue" stroke-width="2" />
<path d="M7118,4383 L325,897" stroke="blue" stroke-width="2" />
<path d="M1230,7346 L2783,2560" stroke="blue" stroke-width="2" />
<path d="M2466,4370 L1009,7389" stroke="blue" stroke-width="2" />
<path d="M510,6865 L585,7802" stroke="blue" stroke-width="2" />
<path d="M3246,6319 L2459,4843" stroke="blue" stroke-width="2" />
<path d="M5500,1967 L885,4789" stroke="blue" stroke-width="2" />
<path d="M5311,6815 L7347,4403" stroke="blue" stroke-width="2" />
<path d="M5691,1698 L4937,6549" stroke="blue" stroke-width="2" />
<path d="M4695,4300 L7608,1533" stroke="blue" stroke-width="2" />
<path d="M4137,4563 L981,6168" stroke="blue" stroke-width="2" />
<path d="M63,6696 L5447,5892" stroke="blue" stroke-width="2" />
<path d="M4438,4142 L5112,7734" stroke="blue" stroke-width="2" />
<path d="M2049,5566 L2518,3736" stroke="blue" stroke-width="2" />
<path d="M1430,1615 L2371,5293" stroke="blue" stroke-width="2" />
<path d="M1391,5411 L298,5031" stroke="blue" stroke-width="2" />
<path d="M4808,3823 L6984,6982" stroke="blue" stroke-width="2" />
<path d="M5246,7428 L1001,7591" stroke="blue" stroke-width="2" />
<path d="M4381,5602 L5939,6111" stroke="blue" stroke-width="2" />
<path d="M1474,2170 L6119,2887" stroke="blue" stroke-width="2" />
<path d="M4413,3936 L5428,1587" stroke="blue" stroke-width="2" />
<path d="M7558,6270 L6250,4057" stroke="blue" stroke-width="2" />
<path d="M178,846 L1157,2090" stroke="blue" stroke-width="2" />
<path d="M404,5616 L601,2911" stroke="blue" stroke-width="2" />
<path d="M5646,2220 L5734,2330" stroke="blue" stroke-width="2" />
<path d="M3746,4577 L4285,459" stroke="blue" stroke-width="2" />
<path d="M6246,6160 L7233,3890" stroke="blue" stroke-width="2" />
<path d="M7759,6288 L5785,933" stroke="blue" stroke-width="2" />
<path d="M1244,4849 L7229,4669" stroke="blue" stroke-width="2" />
<path d="M3940,1114 L4070,2841" stroke="blue" stroke-width="2" />
<path d="M292,5058 L2836,4852" stroke="blue" stroke-width="2" />
<path d="M2658,6132 L5333,3854" stroke="blue" stroke-width="2" />
<path d="M7900,4602 L6189,3215" stroke="blue" stroke-width="2" />
<path d="M6088,3779 L1094,4559" stroke="blue" stroke-width="2" />
<path d="M6078,3185 L6053,1060" stroke="blue" stroke-width="2" />
<path d="M3841,847 L2795,4987" stroke="blue" stroke-width="2" />
<path d="M1156,4484 L575,549" stroke="blue" stroke-width="2" />
<path d="M564,4717 L6463,3176" stroke="blue" stroke-width="2" />
<path d="M1559,2055 L5937,4310" stroke="blue" stroke-width="2" />
<path d="M4673,3123 L1690,1175" stroke="blue" stroke-width="2" />
<path d="M6137,2337 L1932,3929" stroke="blue" stroke-width="2" />
<path d="M3970,5567 L3952,752" stroke="blue" stroke-width="2" />
<path d="M4145,7846 L5015,4537" stroke="blue" stroke-width="2" />
<path d="M2917,6706 L339,5908" stroke="blue" stroke-width="2" />
<path d="M4914,841 L4958,7322" stroke="blue" stroke-width="2" />
<path d="M2154,6305 L5108,6701" stroke="blue" stroke-width="2" />
<path d="M4720,7818 L3241,4432" stroke="blue" stroke-width="2" />
<path d="M1801,4690 L1259,5270" stroke="blue" stroke-width="2" />
<path d="M6176,5063 L3966,4653" stroke="blue" stroke-width="2" />
<path d="M466,2217 L6198,5464" stroke="blue" stroke-width="2" />
<path d="M7495,1017 L1470,1575" stroke="blue" stroke-width="2" />
<path d="M7207,6940 L4560,2881" stroke="blue" stroke-width="2" />
<path d="M1473,2206 L7346,7539" stroke="blue" stroke-width="2" />
<path d="M6616,2634 L6301,4782" stroke="blue" stroke-width="2" />
<path d="M4139,6043 L7170,4706" stroke="blue" stroke-width="2" />
<path d="M7295,2105 L5285,7422" stroke="blue" stroke-width="2" />
<path d="M6468,3659 L3811,6764" stroke="blue" stroke-width="2" />
<path d="M1196,4266 L4884,5715" stroke="blue" stroke-width="2" />
<path d="M154,7110 L7268,2428" stroke="blue" stroke-width="2" />
<path d="M7189,5451 L4888,5571" stroke="blue" stroke-width="2" />
<path d="M6536,6229 L836,7441" stroke="blue" stroke-width="2" />
<path d="M5011,3483 L5047,4492" stroke="blue" stroke-width="2" />
<path d="M3170,719 L7565,1151" stroke="blue" stroke-width="2" />
<path d="M2723,762 L3816,7561" stroke="blue" stroke-width="2" />
<path d="M5680,2377 L7373,3057" stroke="blue" stroke-width="2" />
<path d="M7224,7622 L5389,2850" stroke="blue" stroke-width="2" />
<path d="M1236,6595 L7825,4011" stroke="blue" stroke-width="2" />
<path d="M4719,1434 L7595,5493" stroke="blue" stroke-width="2" />
<path d="M4075,1124 L6016,752" stroke="blue" stroke-width="2" />
<path d="M3601,5382 L7138,533" stroke="blue" stroke-width="2" />
<path d="M2128,445 L1306,5336" stroke="blue" stroke-width="2" />
<path d="M5298,4900 L740,3428" stroke="blue" stroke-width="2" />
<path d="M1441,968 L6452,3807" stroke="blue" stroke-width="2" />
<path d="M7126,4986 L1079,5398" stroke="blue" stroke-width="2" />
<path d="M6576,5925 L6954,4806" stroke="blue" stroke-width="2" />
<path d="M6861,2575 L143,7836" stroke="blue" stroke-width="2" />
<path d="M7573,5121 L4635,1253" stroke="blue" stroke-width="2" />
<path d="M7865,5605 L6740,5276" stroke="blue" stroke-width="2" />
<path d="M7136,7908 L7188,1861" stroke="blue" stroke-width="2" />
<path d="M6159,562 L5809,4107" stroke="blue" stroke-width="2" />
<path d="M910,4109 L4478,1014" stroke="blue" stroke-width="2" />
<path d="M4255,3071 L4656,1183" stroke="blue" stroke-width="2" />
<path d="M7587,2742 L6439,2568" stroke="blue" stroke-width="2" />
<path d="M282,2100 L1251,103" stroke="blue" stroke-width="2" />
<path d="M5897,6290 L2571,383" stroke="blue" stroke-width="2" />
<path d="M3968,1784 L1912,7595" stroke="blue" stroke-width="2" />
<path d="M6063,3819 L4652,5309" stroke="blue" stroke-width="2" />
<path d="M6314,4407 L7381,5731" stroke="blue" stroke-width="2" />
<path d="M5464,1719 L5204,4433" stroke="blue" stroke-width="2" />
<path d="M4721,595 L7859,5188" stroke="blue" stroke-width="2" />
<path d="M6788,1696 L890,2507" stroke="blue" stroke-width="2" />
<path d="M6616,5711 L7898,7711" stroke="blue" stroke-width="2" />
<path d="M7449,3348 L4222,1546" stroke="blue" stroke-width="2" />
<path d="M4947,5534 L806,6432" stroke="blue" stroke-width="2" />
<path d="M6978,3888 L5527,2940" stroke="blue" stroke-width="2" />
<path d="M4214,533 L6282,2318" stroke="blue" stroke-width="2" />
<path d="M530,4832 L3343,838" stroke="blue" stroke-width="2" />
<path d="M1623,2046 L4275,6430" stroke="blue" stroke-width="2" />
<path d="M4217,5459 L2814,1342" stroke="blue" stroke-width="2" />
<path d="M6980,1378 L2025,4765" stroke="blue" stroke-width="2" />
<path d="M1493,6580 L2568,1522" stroke="blue" stroke-width="2" />
<path d="M6010,3311 L4001,927" stroke="blue" stroke-width="2" />
<path d="M4246,4477 L4776,688" stroke="blue" stroke-width="2" />
<path d="M6030,3847 L2397,6460" stroke="blue" stroke-width="2" />
<path d="M1899,3701 L3192,3261" stroke="blue" stroke-width="2" />
<path d="M5367,6831 L5656,4067" stroke="blue" stroke-width="2" />
<path d="M1802,5935 L5240,3803" stroke="blue" stroke-width="2" />
<path d="M2894,311 L3116,1343" stroke="blue" stroke-width="2" />
<path d="M7433,3933 L5352,506" stroke="blue" stroke-width="2" />
<path d="M5620,1819 L1502,6224" stroke="blue" stroke-width="2" />
<path d="M3674,6886 L4343,4423" stroke="blue" stroke-width="2" />
<path d="M4668,3066 L5056,5924" stroke="blue" stroke-width="2" />
<path d="M7376,2563 L44,5397" stroke="blue" stroke-width="2" />
<path d="M5769,6181 L7846,1895" stroke="blue" stroke-width="2" />
<path d="M1634,2524 L3999,6400" stroke="blue" stroke-width="2" />
<path d="M1526,5499 L1260,1753" stroke="blue" stroke-width="2" />
<path d="M5186,1659 L306,1857" stroke="blue" stroke-width="2" />
<path d="M2277,2588 L7494,607" stroke="blue" stroke-width="2" />
<path d="M2691,5574 L1502,3915" stroke="blue" stroke-width="2" />
<path d="M3325,638 L1605,3063" stroke="blue" stroke-width="2" />
<path d="M4584,6777 L7440,7784" stroke="blue" stroke-width="2" />
<path d="M3341,5182 L4216,4512" stroke="blue" stroke-width="2" />
<path d="M1951,1730 L7530,26" stroke="blue" stroke-width="2" />
<path d="M2667,4875 L7867,6992" stroke="blue" stroke-width="2" />
<path d="M2363,5715 L986,3097" stroke="blue" stroke-width="2" />
<path d="M3824,4971 L3329,6982" stroke="blue" stroke-width="2" />
<path d="M3369,351 L6897,6176" stroke="blue" stroke-width="2" />
<path d="M6117,1017 L7674,4565" stroke="blue" stroke-width="2" />
<path d="M5147,6073 L5255,571" stroke="blue" stroke-width="2" />
<path d="M6026,4672 L2903,5037" stroke="blue" stroke-width="2" />
<path d="M2171,7942 L6184,3151" stroke="blue" stroke-width="2" />
<path d="M6522,5276 L2752,797" stroke="blue" stroke-width="2" />
<path d="M4391,1336 L1322,471" stroke="blue" stroke-width="2" />
<path d="M3106,5719 L6777,1263" stroke="blue" stroke-width="2" />
<path d="M5675,1544 L4468,3916" stroke="blue" stroke-width="2" />
<path d="M1593,7027 L4403,603" stroke="blue" stroke-width="2" />
<path d="M2955,695 L5709,332" stroke="blue" stroke-width="2" />
<path d="M3269,1024 L2110,4524" stroke="blue" stroke-width="2" />
<path d="M5049,4379 L7782,2205" stroke="blue" stroke-width="2" />
<path d="M6029,603 L6716,5225" stroke="blue" stroke-width="2" />
<path d="M1372,3181 L7680,144" stroke="blue" stroke-width="2" />
<path d="M4616,4178 L4225,624" stroke="blue" stroke-width="2" />
<path d="M7887,5931 L1979,934" stroke="blue" stroke-width="2" />
<path d="M6517,3357 L5872,6012" stroke="blue" stroke-width="2" />
<path d="M6018,6913 L1841,1057" stroke="blue" stroke-width="2" />
<path d="M2894,5331 L7851,4252" stroke="blue" stroke-width="2" />
<path d="M2266,2160 L6046,1954" stroke="blue" stroke-width="2" />
<path d="M4276,7430 L5917,5921" stroke="blue" stroke-width="2" />
<path d="M7488,2270 L2617,4182" stroke="blue" stroke-width="2" />
<path d="M7528,5700 L6060,478" stroke="blue" stroke-width="2" />
<path d="M3701,7135 L806,4257" stroke="blue" stroke-width="2" />
<path d="M2143,5952 L840,1587" stroke="blue" stroke-width="2" />
<path d="M480,3057 L3010,487" stroke="blue" stroke-width="2" />
<path d="M5080,7559 L693,7199" stroke="blue" stroke-width="2" />
<path d="M6410,5641 L7401,2482" stroke="blue" stroke-width="2" />
<path d="M7346,6390 L45,5017" stroke="blue" stroke-width="2" />
<path d="M7063,4635 L2629,425" stroke="blue" stroke-width="2" />
<path d="M5477,159 L3311,6468" stroke="blue" stroke-width="2" />
<path d="M916,2542 L4393,635" stroke="blue" stroke-width="2" />
<path d="M3761,1508 L3359,3884" stroke="blue" stroke-width="2" />
<path d="M5426,5211 L1501,7644" stroke="blue" stroke-width="2" />
<path d="M3332,5795 L5542,7714" stroke="blue" stroke-width="2" />
<path d="M2420,6678 L185,6231" stroke="blue" stroke-width="2" />
<path d="M2452,5749 L3591,2578" stroke="blue" stroke-width="2" />
<path d="M509,6331 L865,7879" stroke="blue" stroke-width="2" />
<path d="M3047,2451 L6445,4799" stroke="blue" stroke-width="2" />
<path d="M5972,5431 L7421,2970" stroke="blue" stroke-width="2" />
<path d="M5513,4813 L444,4530" stroke="blue" stroke-width="2" />
<path d="M3729,244 L2630,1214" stroke="blue" stroke-width="2" />
<path d="M3521,7754 L1336,2646" stroke="blue" stroke-width="2" />
<path d="M800,754 L7348,2606" stroke="blue" stroke-width="2" />
<path d="M367,5322 L6717,6757" stroke="blue" stroke-width="2" />
<path d="M2631,7195 L5908,4331" stroke="blue" stroke-width="2" />
<path d="M2335,6609 L4834,7137" stroke="blue" stroke-width="2" />
<path d="M6466,548 L6989,7643" stroke="blue" stroke-width="2" />
<path d="M2174,3490 L6227,3089" stroke="blue" stroke-width="2" />
<path d="M4353,1455 L7508,3848" stroke="blue" stroke-width="2" />
<path d="M56,1301 L89,4652" stroke="blue" stroke-width="2" />
<path d="M4823,324 L7611,7187" stroke="blue" stroke-width="2" />
<path d="M6406,4931 L2120,212" stroke="blue" stroke-width="2" />
<path d="M5716,3448 L4091,3954" stroke="blue" stroke-width="2" />
<path d="M2705,6229 L3483,5943" stroke="blue" stroke-width="2" />
<path d="M0,0 L7906,0" stroke="red" stroke-width="10" />
<path d="M7906,0 L7906,7959" stroke="red" stroke-width="10" />
<path d="M0,7959 L7906,7959" stroke="red" stroke-width="10" />
<path d="M0,7959 L0,0" stroke="red" stroke-width="10" />
</svg>