<?xml version="1.0" encoding="UTF-8"?>
<svg xmlns="http://www.w3.org/2000/svg" xmlns:xlink="http://www.w3.org/1999/xlink"
     width="10000" height="10000" viewBox="0 0 10000 10000">
<defs>
</defs>
<path d="M5644,145 L870,2269" stroke="blue" stroke-width="2" />
<path d="M782,6958 L4281,4889" stroke="blue" stroke-width="2" />
<path d="M5479,5706 L1216,305" stroke="blue" stroke-width="2" />
<path d="M4533,2320 L1356,2526" stroke="blue" stroke-width="2" />
<path d="M146,6749 L3094,6475" stroke="blue" stroke-width="2" />
<path d="M5238,6425 L1758,1516" stroke="blue" stroke-width="2" />
<path d="M6265,7535 L5063,6975" stroke="blue" stroke-width="2" />
<path d="M850,3154 L315,7524" stroke="blue" stroke-width="2" />
<path d="M3378,2739 L1446,447" stroke="blue" stroke-width="2" />
<path d="M178,7876 L5306,5051" stroke="blue" stroke-width="2" />
<path d="M6217,519 L670,3642" stroke="blue" stroke-width="2" />
<path d="M2480,3242 L781,1898" stroke="blue" stroke-width="2" />
<path d="M821,5590 L593,5386" stroke="blue" stroke-width="2" />
<path d="M5851,1229 L6481,2771" stroke="blue" stroke-width="2" />
<path d="M2222,356 L5502,4634" stroke="blue" stroke-width="2" />
<path d="M4733,7636 L5141,6006" stroke="blue" stroke-width="2" />
<path d="M3418,1577 L2998,1966" stroke="blue" stroke-width="2" />
<path d="M3152,5797 L1900,805" stroke="blue" stroke-width="2" />
<path d="M5071,4598 L367,6128" stroke="blue" stroke-width="2" />
<path d="M2569,2260 L6669,1352" stroke="blue" stroke-width="2" />
<path d="M6020,3057 L3423,4296" stroke="blue" stroke-width="2" />
<path d="M5956,1706 L4644,6394" stroke="blue" stroke-width="2" />
<path d="M5806,7754 L569,2702" stroke="blue" stroke-width="2" />
<path d="M3033,7394 L1709,8137" stroke="blue" stroke-width="2" />
<path d="M467,2201 L5050,6917" stroke="blue" stroke-width="2" />
<path d="M3624,580 L3094,3314" stroke="blue" stroke-width="2" />
<path d="M2358,5527 L224,3505" stroke="blue" stroke-width="2" />
<path d="M4644,7557 L5828,4810" stroke="blue" stroke-width="2" />
<path d="M4215,161 L3331,7727" stroke="blue" stroke-width="2" />
<path d="M224,1896 L2706,3849" stroke="blue" stroke-width="2" />
<path d="M343,5392 L5233,2924" stroke="blue" stroke-width="2" />
<path d="M6452,560 L1063,1867" stroke="blue" stroke-width="2" />
<path d="M2107,7333 L1115,4350" stroke="blue" stroke-width="2" />
<path d="M2529,123 L5301,180" stroke="blue" stroke-width="2" />
<path d="M748,7019 L1917,1305" stroke="blue" stroke-width="2" />
<path d="M126,387 L2000,7888" stroke="blue" stroke-width="2" />
<path d="M2526,2989 L6178,956" stroke="blue" stroke-width="2" />
<path d="M304,1551 L5026,1220" stroke="blue" stroke-width="2" />
<path d="M2436,7733 L3993,3719" stroke="blue" stroke-width="2" />
<path d="M1690,2862 L1533,982" stroke="blue" stroke-width="2" />
<path d="M4935,5084 L4549,7634" stroke="blue" stroke-width="2" />
<path d="M2787,965 L4794,1066" stroke="blue" stroke-width="2" />
<path d="M2380,6638 L3499,645" stroke="blue" stroke-width="2" />
<path d="M3514,6360 L1039,7782" stroke="blue" stroke-width="2" />
<path d="M4302,72 L2415,5165" stroke="blue" stroke-width="2" />
<path d="M669,1861 L5542,5158" stroke="blue" stroke-width="2" />
<path d="M4560,2126 L4093,7961" stroke="blue" stroke-width="2" />
<path d="M2759,1597 L3196,6440" stroke="blue" stroke-width="2" />
<path d="M2711,4547 L4881,7884" stroke="blue" stroke-width="2" />
<path d="M3162,5482 L2558,4089" stroke="blue" stroke-width="2" />
<path d="M4179,1761 L1134,6928" stroke="blue" stroke-width="2" />
<path d="M1207,5122 L3919,5696" stroke="blue" stroke-width="2" />
<path d="M4931,4074 L6784,2601" stroke="blue" stroke-width="2" />
<path d="M2596,5191 L5911,4798" stroke="blue" stroke-width="2" />
<path d="M777,2282 L2351,6682" stroke="blue" stroke-width="2" />
<path d="M5118,4334 L3934,1244" stroke="blue" stroke-width="2" />
<path d="M2673,7427 L1022,3019" stroke="blue" stroke-width="2" />
<path d="M4221,5119 L947,2297" stroke="blue" stroke-width="2" />
<path d="M881,4953 L5264,8133" stroke="blue" stroke-width="2" />
<path d="M360,5257 L3881,2996" stroke="blue" stroke-width="2" />
<path d="M6600,3827 L5611,1955" stroke="blue" stroke-width="2" />
<path d="M1627,6713 L1252,948" stroke="blue" stroke-width="2" />
<path d="M3788,1591 L4305,6648" stroke="blue" stroke-width="2" />
<path d="M6398,764 L6371,1893" stroke="blue" stroke-width="2" />
<path d="M1488,7524 L2629,2296" stroke="blue" stroke-width="2" />
<path d="M6051,3276 L207,5098" stroke="blue" stroke-width="2" />
<path d="M4851,4387 L1571,3838" stroke="blue" stroke-width="2" />
<path d="M3138,6483 L2614,6305" stroke="blue" stroke-width="2" />
<path d="M2355,568 L4462,2794" stroke="blue" stroke-width="2" />
<path d="M4744,1773 L2454,738" stroke="blue" stroke-width="2" />
<path d="M2643,4426 L1123,663" stroke="blue" stroke-width="2" />
<path d="M6798,5705 L2834,2718" stroke="blue" stroke-width="2" />
<path d="M5029,1499 L3155,1400" stroke="blue" stroke-width="2" />
<path d="M1394,7637 L6486,238" stroke="blue" stroke-width="2" />
<path d="M6789,5199 L5909,1459" stroke="blue" stroke-width="2" />
<path d="M2684,203 L2513,2973" stroke="blue" stroke-width="2" />
<path d="M636,6747 L5238,7719" stroke="blue" stroke-width="2" />
<path d="M2514,2808 L3701,742" stroke="blue" stroke-width="2" />
<path d="M2863,6316 L6271,4991" stroke="blue" stroke-width="2" />
<path d="M4165,2127 L4593,2588" stroke="blue" stroke-width="2" />
<path d="M3462,4520 L5315,1369" stroke="blue" stroke-width="2" />
<path d="M0,0 L6830,0" stroke="red" stroke-width="10" />
<path d="M6830,0 L6830,8200" stroke="red" stroke-width="10" />
<path d="M0,8200 L6830,8200" stroke="red" stroke-width="10" />
<path d="M0,8200 L0,0" stroke="red" stroke-width="10" />
</svg>