<?xml version="1.0" encoding="UTF-8"?>
<svg xmlns="http://www.w3.org/2000/svg" xmlns:xlink="http://www.w3.org/1999/xlink"
     width="10000" height="10000" viewBox="0 0 10000 10000">
<defs>
</defs>
<path d="M1198,36 L63,3429" stroke="blue" stroke-width="2" />
<path d="M1149,734 L879,3582" stroke="blue" stroke-width="2" />
<path d="M1137,2689 L1189,2782" stroke="blue" stroke-width="2" />
<path d="M231,404 L859,3725" stroke="blue" stroke-width="2" />
<path d="M323,3275 L174,27" stroke="blue" stroke-width="2" />
<path d="M271,2100 L28,1377" stroke="blue" stroke-width="2" />
<path d="M1833,320 L261,700" stroke="blue" stroke-width="2" />
<path d="M1848,157 L1363,2756" stroke="blue" stroke-width="2" />
<path d="M936,2738 L1425,76" stroke="blue" stroke-width="2" />
<path d="M1030,3571 L951,833" stroke="blue" stroke-width="2" />
<path d="M1838,539 L600,689" stroke="blue" stroke-width="2" />
<path d="M674,1799 L125,3011" stroke="blue" stroke-width="2" />
<path d="M788,3777 L174,2718" stroke="blue" stroke-width="2" />
<path d="M664,1239 L1621,2937" stroke="blue" stroke-width="2" />
<path d="M73,3008 L603,2561" stroke="blue" stroke-width="2" />
<path d="M729,1339 L41,1479" stroke="blue" stroke-width="2" />
<path d="M1440,353 L59,2927" stroke="blue" stroke-width="2" />
<path d="M604,2936 L18,2996" stroke="blue" stroke-width="2" />
<path d="M1837,744 L107,100" stroke="blue" stroke-width="2" />
<path d="M893,485 L462,187" stroke="blue" stroke-width="2" />
<path d="M654,1354 L435,2485" stroke="blue" stroke-width="2" />
<path d="M839,848 L924,1893" stroke="blue" stroke-width="2" />
<path d="M706,183 L490,458" stroke="blue" stroke-width="2" />
<path d="M1653,846 L597,2531" stroke="blue" stroke-width="2" />
<path d="M1045,2185 L1338,3745" stroke="blue" stroke-width="2" />
<path d="M219,3052 L924,94" stroke="blue" stroke-width="2" />
<path d="M836,2205 L634,414" stroke="blue" stroke-width="2" />
<path d="M420,132 L1544,203" stroke="blue" stroke-width="2" />
<path d="M421,2895 L1810,2700" stroke="blue" stroke-width="2" />
<path d="M1508,1179 L1526,2872" stroke="blue" stroke-width="2" />
<path d="M627,1476 L630,2117" stroke="blue" stroke-width="2" />
<path d="M1826,1318 L405,3336" stroke="blue" stroke-width="2" />
<path d="M1718,382 L1042,1633" stroke="blue" stroke-width="2" />
<path d="M1376,1502 L189,1110" stroke="blue" stroke-width="2" />
<path d="M1653,1287 L1511,234" stroke="blue" stroke-width="2" />
<path d="M883,3666 L1916,1050" stroke="blue" stroke-width="2" />
<path d="M478,1466 L1690,1659" stroke="blue" stroke-width="2" />
<path d="M121,1296 L1271,2238" stroke="blue" stroke-width="2" />
<path d="M1045,2740 L828,1259" stroke="blue" stroke-width="2" />
<path d="M1720,3703 L66,505" stroke="blue" stroke-width="2" />
<path d="M1,317 L872,43" stroke="blue" stroke-width="2" />
<path d="M1769,1228 L908,1248" stroke="blue" stroke-width="2" />
<path d="M1067,1 L1655,574" stroke="blue" stroke-width="2" />
<path d="M1776,2989 L1723,2049" stroke="blue" stroke-width="2" />
<path d="M1634,3353 L1617,2046" stroke="blue" stroke-width="2" />
<path d="M921,1228 L1415,3765" stroke="blue" stroke-width="2" />
<path d="M268,1379 L1410,3418" stroke="blue" stroke-width="2" />
<path d="M1456,831 L1014,751" stroke="blue" stroke-width="2" />
<path d="M1028,761 L100,3197" stroke="blue" stroke-width="2" />
<path d="M908,3249 L736,96" stroke="blue" stroke-width="2" />
<path d="M521,1028 L1292,181" stroke="blue" stroke-width="2" />
<path d="M1358,889 L1170,2917" stroke="blue" stroke-width="2" />
<path d="M256,1815 L1541,2962" stroke="blue" stroke-width="2" />
<path d="M2,2409 L217,2548" stroke="blue" stroke-width="2" />
<path d="M655,3320 L23,1985" stroke="blue" stroke-width="2" />
<path d="M107,102 L1570,777" stroke="blue" stroke-width="2" />
<path d="M926,3665 L371,2608" stroke="blue" stroke-width="2" />
<path d="M137,1975 L118,3095" stroke="blue" stroke-width="2" />
<path d="M1221,393 L1752,430" stroke="blue" stroke-width="2" />
<path d="M9,221 L1600,2139" stroke="blue" stroke-width="2" />
<path d="M642,2872 L472,3280" stroke="blue" stroke-width="2" />
<path d="M1042,1604 L635,2799" stroke="blue" stroke-width="2" />
<path d="M913,1186 L224,1326" stroke="blue" stroke-width="2" />
<path d="M353,319 L1460,1870" stroke="blue" stroke-width="2" />
<path d="M1438,286 L1599,1750" stroke="blue" stroke-width="2" />
<path d="M616,2605 L365,3688" stroke="blue" stroke-width="2" />
<path d="M930,1978 L1800,2284" stroke="blue" stroke-width="2" />
<path d="M1643,634 L344,1967" stroke="blue" stroke-width="2" />
<path d="M1835,3704 L816,1418" stroke="blue" stroke-width="2" />
<path d="M772,2545 L473,2719" stroke="blue" stroke-width="2" />
<path d="M1237,1554 L296,2013" stroke="blue" stroke-width="2" />
<path d="M194,757 L1427,596" stroke="blue" stroke-width="2" />
<path d="M1221,1524 L1986,1886" stroke="blue" stroke-width="2" />
<path d="M1248,3554 L1624,682" stroke="blue" stroke-width="2" />
<path d="M977,1916 L963,2805" stroke="blue" stroke-width="2" />
<path d="M1481,717 L1952,2114" stroke="blue" stroke-width="2" />
<path d="M543,2197 L1764,2290" stroke="blue" stroke-width="2" />
<path d="M404,1417 L951,646" stroke="blue" stroke-width="2" />
<path d="M532,2255 L377,3002" stroke="blue" stroke-width="2" />
<path d="M1345,3344 L138,3172" stroke="blue" stroke-width="2" />
<path d="M1338,3742 L276,2072" stroke="blue" stroke-width="2" />
<path d="M1648,1195 L1750,3742" stroke="blue" stroke-width="2" />
<path d="M1394,576 L1788,3702" stroke="blue" stroke-width="2" />
<path d="M443,974 L951,3298" stroke="blue" stroke-width="2" />
<path d="M1594,3285 L448,753" stroke="blue" stroke-width="2" />
<path d="M105,1052 L1690,2667" stroke="blue" stroke-width="2" />
<path d="M1149,1225 L1651,1471" stroke="blue" stroke-width="2" />
<path d="M702,3405 L1937,932" stroke="blue" stroke-width="2" />
<path d="M1937,589 L306,2341" stroke="blue" stroke-width="2" />
<path d="M85,3296 L1791,2104" stroke="blue" stroke-width="2" />
<path d="M1712,283 L1123,1806" stroke="blue" stroke-width="2" />
<path d="M668,780 L474,2270" stroke="blue" stroke-width="2" />
<path d="M1778,2595 L1420,3231" stroke="blue" stroke-width="2" />
<path d="M789,3674 L1976,669" stroke="blue" stroke-width="2" />
<path d="M1516,1397 L160,3718" stroke="blue" stroke-width="2" />
<path d="M932,3232 L266,1124" stroke="blue" stroke-width="2" />
<path d="M871,2217 L1086,1386" stroke="blue" stroke-width="2" />
<path d="M1541,3172 L210,3650" stroke="blue" stroke-width="2" />
<path d="M1503,2347 L1347,469" stroke="blue" stroke-width="2" />
<path d="M643,293 L1109,1785" stroke="blue" stroke-width="2" />
<path d="M808,3246 L622,1198" stroke="blue" stroke-width="2" />
<path d="M1681,2602 L998,3316" stroke="blue" stroke-width="2" />
<path d="M1281,1214 L1078,2200" stroke="blue" stroke-width="2" />
<path d="M1770,3535 L1834,2703" stroke="blue" stroke-width="2" />
<path d="M1519,679 L403,831" stroke="blue" stroke-width="2" />
<path d="M837,1938 L409,1369" stroke="blue" stroke-width="2" />
<path d="M1224,690 L761,2142" stroke="blue" stroke-width="2" />
<path d="M1014,3147 L709,2178" stroke="blue" stroke-width="2" />
<path d="M1528,8 L231,264" stroke="blue" stroke-width="2" />
<path d="M500,379 L1237,2406" stroke="blue" stroke-width="2" />
<path d="M1284,2998 L1373,839" stroke="blue" stroke-width="2" />
<path d="M361,983 L486,2627" stroke="blue" stroke-width="2" />
<path d="M1460,388 L147,2649" stroke="blue" stroke-width="2" />
<path d="M1031,2971 L618,686" stroke="blue" stroke-width="2" />
<path d="M457,171 L813,13" stroke="blue" stroke-width="2" />
<path d="M1135,3012 L302,82" stroke="blue" stroke-width="2" />
<path d="M1589,3219 L1322,3650" stroke="blue" stroke-width="2" />
<path d="M1579,3587 L1000,1622" stroke="blue" stroke-width="2" />
<path d="M383,2145 L227,1572" stroke="blue" stroke-width="2" />
<path d="M1858,831 L659,251" stroke="blue" stroke-width="2" />
<path d="M640,350 L122,3745" stroke="blue" stroke-width="2" />
<path d="M1475,3418 L1651,2059" stroke="blue" stroke-width="2" />
<path d="M1060,1149 L145,852" stroke="blue" stroke-width="2" />
<path d="M27,1519 L1603,1530" stroke="blue" stroke-width="2" />
<path d="M650,2875 L1008,2427" stroke="blue" stroke-width="2" />
<path d="M1278,123 L825,661" stroke="blue" stroke-width="2" />
<path d="M1226,1034 L1863,3247" stroke="blue" stroke-width="2" />
<path d="M1570,352 L1295,550" stroke="blue" stroke-width="2" />
<path d="M1819,922 L738,2837" stroke="blue" stroke-width="2" />
<path d="M837,555 L67,2655" stroke="blue" stroke-width="2" />
<path d="M1793,3450 L1241,2568" stroke="blue" stroke-width="2" />
<path d="M924,2023 L50,1870" stroke="blue" stroke-width="2" />
<path d="M478,2606 L169,2411" stroke="blue" stroke-width="2" />
<path d="M1057,461 L1789,3727" stroke="blue" stroke-width="2" />
<path d="M421,734 L1730,3179" stroke="blue" stroke-width="2" />
<path d="M1171,402 L374,1087" stroke="blue" stroke-width="2" />
<path d="M704,2613 L1685,3680" stroke="blue" stroke-width="2" />
<path d="M918,3124 L733,3335" stroke="blue" stroke-width="2" />
<path d="M25,485 L41,1866" stroke="blue" stroke-width="2" />
<path d="M129,699 L427,927" stroke="blue" stroke-width="2" />
<path d="M220,3664 L1689,3557" stroke="blue" stroke-width="2" />
<path d="M359,1046 L1829,1150" stroke="blue" stroke-width="2" />
<path d="M1804,2161 L407,1709" stroke="blue" stroke-width="2" />
<path d="M1267,2948 L1902,1806" stroke="blue" stroke-width="2" />
<path d="M1777,3714 L414,3442" stroke="blue" stroke-width="2" />
<path d="M1861,1352 L226,394" stroke="blue" stroke-width="2" />
<path d="M227,1975 L1235,1369" stroke="blue" stroke-width="2" />
<path d="M1123,2022 L1800,2430" stroke="blue" stroke-width="2" />
<path d="M736,809 L352,361" stroke="blue" stroke-width="2" />
<path d="M713,3722 L880,3402" stroke="blue" stroke-width="2" />
<path d="M8,364 L877,3099" stroke="blue" stroke-width="2" />
<path d="M1547,1878 L201,1170" stroke="blue" stroke-width="2" />
<path d="M1870,1319 L1882,229" stroke="blue" stroke-width="2" />
<path d="M1446,2407 L1427,3457" stroke="blue" stroke-width="2" />
<path d="M1496,2986 L1680,2080" stroke="blue" stroke-width="2" />
<path d="M548,1254 L1482,1353" stroke="blue" stroke-width="2" />
<path d="M1970,3085 L820,1491" stroke="blue" stroke-width="2" />
<path d="M1654,3162 L314,3511" stroke="blue" stroke-width="2" />
<path d="M541,1954 L1022,1127" stroke="blue" stroke-width="2" />
<path d="M1123,3444 L1864,1534" stroke="blue" stroke-width="2" />
<path d="M751,811 L1374,3374" stroke="blue" stroke-width="2" />
<path d="M1002,767 L1594,2311" stroke="blue" stroke-width="2" />
<path d="M1181,2048 L729,10" stroke="blue" stroke-width="2" />
<path d="M1691,2762 L1409,938" stroke="blue" stroke-width="2" />
<path d="M864,3417 L1931,460" stroke="blue" stroke-width="2" />
<path d="M894,2670 L1776,3620" stroke="blue" stroke-width="2" />
<path d="M1982,1203 L1914,1807" stroke="blue" stroke-width="2" />
<path d="M423,2642 L1111,3073" stroke="blue" stroke-width="2" />
<path d="M825,1977 L1572,1076" stroke="blue" stroke-width="2" />
<path d="M1634,286 L1784,2319" stroke="blue" stroke-width="2" />
<path d="M1261,2575 L1883,3330" stroke="blue" stroke-width="2" />
<path d="M1433,980 L1581,2733" stroke="blue" stroke-width="2" />
<path d="M1493,2295 L1390,331" stroke="blue" stroke-width="2" />
<path d="M595,2848 L1716,589" stroke="blue" stroke-width="2" />
<path d="M1872,776 L305,2781" stroke="blue" stroke-width="2" />
<path d="M705,570 L765,787" stroke="blue" stroke-width="2" />
<path d="M1917,2173 L830,1254" stroke="blue" stroke-width="2" />
<path d="M306,1948 L1718,1959" stroke="blue" stroke-width="2" />
<path d="M1530,3113 L953,30" stroke="blue" stroke-width="2" />
<path d="M61,610 L1487,1594" stroke="blue" stroke-width="2" />
<path d="M1328,2865 L1558,529" stroke="blue" stroke-width="2" />
<path d="M1445,1623 L1116,1741" stroke="blue" stroke-width="2" />
<path d="M1125,2836 L801,3573" stroke="blue" stroke-width="2" />
<path d="M1298,595 L954,3638" stroke="blue" stroke-width="2" />
<path d="M1575,2237 L457,3561" stroke="blue" stroke-width="2" />
<path d="M740,1726 L1047,3225" stroke="blue" stroke-width="2" />
<path d="M449,3037 L1093,2620" stroke="blue" stroke-width="2" />
<path d="M117,2956 L1586,1902" stroke="blue" stroke-width="2" />
<path d="M423,866 L1646,364" stroke="blue" stroke-width="2" />
<path d="M152,2819 L1657,193" stroke="blue" stroke-width="2" />
<path d="M1504,2328 L518,2182" stroke="blue" stroke-width="2" />
<path d="M68,499 L401,3043" stroke="blue" stroke-width="2" />
<path d="M10,1266 L880,1070" stroke="blue" stroke-width="2" />
<path d="M1759,3649 L115,357" stroke="blue" stroke-width="2" />
<path d="M1296,366 L439,754" stroke="blue" stroke-width="2" />
<path d="M1723,104 L1752,596" stroke="blue" stroke-width="2" />
<path d="M1706,3034 L1658,2871" stroke="blue" stroke-width="2" />
<path d="M214,2091 L131,3769" stroke="blue" stroke-width="2" />
<path d="M73,3475 L182,2262" stroke="blue" stroke-width="2" />
<path d="M1457,13 L1725,3544" stroke="blue" stroke-width="2" />
<path d="M1370,1117 L1736,3528" stroke="blue" stroke-width="2" />
<path d="M1068,2926 L19,749" stroke="blue" stroke-width="2" />
<path d="M267,3098 L134,387" stroke="blue" stroke-width="2" />
<path d="M398,1215 L466,204" stroke="blue" stroke-width="2" />
<path d="M830,3280 L1456,343" stroke="blue" stroke-width="2" />
<path d="M34,709 L1342,1839" stroke="blue" stroke-width="2" />
<path d="M1972,3599 L1435,597" stroke="blue" stroke-width="2" />
<path d="M1010,787 L1440,1263" stroke="blue" stroke-width="2" />
<path d="M1144,3555 L847,765" stroke="blue" stroke-width="2" />
<path d="M312,231 L1357,7" stroke="blue" stroke-width="2" />
<path d="M881,3023 L481,1960" stroke="blue" stroke-width="2" />
<path d="M108,619 L1851,583" stroke="blue" stroke-width="2" />
<path d="M988,2028 L1135,697" stroke="blue" stroke-width="2" />
<path d="M1819,1993 L690,3612" stroke="blue" stroke-width="2" />
<path d="M1145,1769 L613,393" stroke="blue" stroke-width="2" />
<path d="M1849,505 L1045,1543" stroke="blue" stroke-width="2" />
<path d="M1407,1007 L1390,1464" stroke="blue" stroke-width="2" />
<path d="M1321,1860 L979,3424" stroke="blue" stroke-width="2" />
<path d="M348,3742 L260,2599" stroke="blue" stroke-width="2" />
<path d="M1043,596 L1214,3503" stroke="blue" stroke-width="2" />
<path d="M1377,421 L1063,630" stroke="blue" stroke-width="2" />
<path d="M985,2572 L1643,1746" stroke="blue" stroke-width="2" />
<path d="M1349,2275 L776,2834" stroke="blue" stroke-width="2" />
<path d="M1647,3467 L751,928" stroke="blue" stroke-width="2" />
<path d="M325,3605 L965,1568" stroke="blue" stroke-width="2" />
<path d="M1230,2636 L1089,131" stroke="blue" stroke-width="2" />
<path d="M792,1207 L1388,2100" stroke="blue" stroke-width="2" />
<path d="M345,930 L1824,562" stroke="blue" stroke-width="2" />
<path d="M32,2633 L643,2099" stroke="blue" stroke-width="2" />
<path d="M908,1319 L749,1211" stroke="blue" stroke-width="2" />
<path d="M1636,2635 L1056,2624" stroke="blue" stroke-width="2" />
<path d="M691,2939 L1521,2997" stroke="blue" stroke-width="2" />
<path d="M706,692 L839,3357" stroke="blue" stroke-width="2" />
<path d="M1968,3669 L1520,2060" stroke="blue" stroke-width="2" />
<path d="M1781,3570 L338,1674" stroke="blue" stroke-width="2" />
<path d="M432,2340 L672,1762" stroke="blue" stroke-width="2" />
<path d="M1724,74 L1537,1830" stroke="blue" stroke-width="2" />
<path d="M110,2735 L1080,19" stroke="blue" stroke-width="2" />
<path d="M1356,3276 L1659,3196" stroke="blue" stroke-width="2" />
<path d="M608,3081 L1585,827" stroke="blue" stroke-width="2" />
<path d="M484,1859 L1611,3259" stroke="blue" stroke-width="2" />
<path d="M267,1037 L199,3047" stroke="blue" stroke-width="2" />
<path d="M1728,847 L835,300" stroke="blue" stroke-width="2" />
<path d="M582,3629 L1564,3556" stroke="blue" stroke-width="2" />
<path d="M1516,2182 L320,478" stroke="blue" stroke-width="2" />
<path d="M1475,332 L1404,1098" stroke="blue" stroke-width="2" />
<path d="M1737,2423 L1817,2138" stroke="blue" stroke-width="2" />
<path d="M1720,1528 L467,2929" stroke="blue" stroke-width="2" />
<path d="M1165,2352 L451,1687" stroke="blue" stroke-width="2" />
<path d="M1907,1090 L1183,2686" stroke="blue" stroke-width="2" />
<path d="M647,1989 L40,3030" stroke="blue" stroke-width="2" />
<path d="M434,2296 L22,297" stroke="blue" stroke-width="2" />
<path d="M1703,2842 L367,2584" stroke="blue" stroke-width="2" />
<path d="M846,3646 L182,322" stroke="blue" stroke-width="2" />
<path d="M1019,539 L949,2105" stroke="blue" stroke-width="2" />
<path d="M1473,172 L1320,1003" stroke="blue" stroke-width="2" />
<path d="M1298,3417 L1208,57" stroke="blue" stroke-width="2" />
<path d="M350,2224 L1540,424" stroke="blue" stroke-width="2" />
<path d="M162,2300 L395,1298" stroke="blue" stroke-width="2" />
<path d="M1792,2189 L1069,2155" stroke="blue" stroke-width="2" />
<path d="M1901,1561 L1781,1919" stroke="blue" stroke-width="2" />
<path d="M40,206 L1627,2884" stroke="blue" stroke-width="2" />
<path d="M1697,964 L670,1631" stroke="blue" stroke-width="2" />
<path d="M1233,3773 L1837,2420" stroke="blue" stroke-width="2" />
<path d="M1113,3053 L191,2809" stroke="blue" stroke-width="2" />
<path d="M456,1902 L90,444" stroke="blue" stroke-width="2" />
<path d="M1922,1382 L1676,2479" stroke="blue" stroke-width="2" />
<path d="M1806,569 L1521,900" stroke="blue" stroke-width="2" />
<path d="M1809,604 L674,2528" stroke="blue" stroke-width="2" />
<path d="M154,2928 L744,1847" stroke="blue" stroke-width="2" />
<path d="M576,2404 L36,1826" stroke="blue" stroke-width="2" />
<path d="M36,470 L1379,3014" stroke="blue" stroke-width="2" />
<path d="M244,1360 L899,816" stroke="blue" stroke-width="2" />
<path d="M1432,536 L1688,2319" stroke="blue" stroke-width="2" />
<path d="M261,3080 L465,1473" stroke="blue" stroke-width="2" />
<path d="M1495,2017 L312,255" stroke="blue" stroke-width="2" />
<path d="M36,287 L951,975" stroke="blue" stroke-width="2" />
<path d="M1383,1529 L811,1578" stroke="blue" stroke-width="2" />
<path d="M463,3475 L892,3070" stroke="blue" stroke-width="2" />
<path d="M1443,3698 L1322,2164" stroke="blue" stroke-width="2" />
<path d="M389,1025 L465,1500" stroke="blue" stroke-width="2" />
<path d="M690,2158 L792,2942" stroke="blue" stroke-width="2" />
<path d="M613,1040 L155,2524" stroke="blue" stroke-width="2" />
<path d="M1415,859 L269,3357" stroke="blue" stroke-width="2" />
<path d="M1942,103 L960,3054" stroke="blue" stroke-width="2" />
<path d="M1531,3340 L783,122" stroke="blue" stroke-width="2" />
<path d="M174,2829 L1804,1403" stroke="blue" stroke-width="2" />
<path d="M372,693 L1592,2431" stroke="blue" stroke-width="2" />
<path d="M1421,2691 L576,1042" stroke="blue" stroke-width="2" />
<path d="M206,213 L690,2307" stroke="blue" stroke-width="2" />
<path d="M1203,2232 L1620,1751" stroke="blue" stroke-width="2" />
<path d="M1705,2405 L328,983" stroke="blue" stroke-width="2" />
<path d="M955,169 L578,1376" stroke="blue" stroke-width="2" />
<path d="M1350,832 L759,3497" stroke="blue" stroke-width="2" />
<path d="M734,1706 L1155,2215" stroke="blue" stroke-width="2" />
<path d="M129,823 L1982,2669" stroke="blue" stroke-width="2" />
<path d="M1334,2863 L843,1434" stroke="blue" stroke-width="2" />
<path d="M517,1131 L1038,68" stroke="blue" stroke-width="2" />
<path d="M1582,1824 L1689,748" stroke="blue" stroke-width="2" />
<path d="M1299,1740 L1821,2812" stroke="blue" stroke-width="2" />
<path d="M1229,76 L1522,458" stroke="blue" stroke-width="2" />
<path d="M1032,1445 L1019,369" stroke="blue" stroke-width="2" />
<path d="M1024,922 L300,2389" stroke="blue" stroke-width="2" />
<path d="M1959,1672 L1209,3721" stroke="blue" stroke-width="2" />
<path d="M1930,900 L631,2504" stroke="blue" stroke-width="2" />
<path d="M311,2752 L1472,812" stroke="blue" stroke-width="2" />
<path d="M959,2415 L1901,2051" stroke="blue" stroke-width="2" />
<path d="M1252,2089 L530,993" stroke="blue" stroke-width="2" />
<path d="M1982,285 L1277,99" stroke="blue" stroke-width="2" />
<path d="M1330,526 L1970,3151" stroke="blue" stroke-width="2" />
<path d="M1272,1914 L741,3778" stroke="blue" stroke-width="2" />
<path d="M347,1761 L1638,3570" stroke="blue" stroke-width="2" />
<path d="M596,779 L1652,2528" stroke="blue" stroke-width="2" />
<path d="M620,3 L305,1126" stroke="blue" stroke-width="2" />
<path d="M1947,309 L1394,2734" stroke="blue" stroke-width="2" />
<path d="M1584,156 L765,2278" stroke="blue" stroke-width="2" />
<path d="M1837,1524 L825,42" stroke="blue" stroke-width="2" />
<path d="M1118,121 L1391,1232" stroke="blue" stroke-width="2" />
<path d="M1532,741 L172,1893" stroke="blue" stroke-width="2" />
<path d="M583,1796 L478,3110" stroke="blue" stroke-width="2" />
<path d="M1470,658 L18,1404" stroke="blue" stroke-width="2" />
<path d="M773,2923 L195,908" stroke="blue" stroke-width="2" />
<path d="M861,2403 L40,442" stroke="blue" stroke-width="2" />
<path d="M72,343 L53,2475" stroke="blue" stroke-width="2" />
<path d="M499,42 L586,3334" stroke="blue" stroke-width="2" />
<path d="M1360,2830 L1251,3299" stroke="blue" stroke-width="2" />
<path d="M378,2159 L1120,1786" stroke="blue" stroke-width="2" />
<path d="M1611,2590 L605,2833" stroke="blue" stroke-width="2" />
<path d="M977,2674 L561,3710" stroke="blue" stroke-width="2" />
<path d="M1257,2929 L70,806" stroke="blue" stroke-width="2" />
<path d="M80,3552 L452,2087" stroke="blue" stroke-width="2" />
<path d="M254,2755 L1297,1868" stroke="blue" stroke-width="2" />
<path d="M401,2608 L1968,3246" stroke="blue" stroke-width="2" />
<path d="M1749,56 L258,2456" stroke="blue" stroke-width="2" />
<path d="M927,2481 L1638,556" stroke="blue" stroke-width="2" />
<path d="M401,1498 L467,3210" stroke="blue" stroke-width="2" />
<path d="M704,1782 L742,2783" stroke="blue" stroke-width="2" />
<path d="M918,201 L1197,3698" stroke="blue" stroke-width="2" />
<path d="M1888,3281 L537,2346" stroke="blue" stroke-width="2" />
<path d="M1397,678 L372,2368" stroke="blue" stroke-width="2" />
<path d="M1204,3153 L1005,2286" stroke="blue" stroke-width="2" />
<path d="M1614,2199 L610,417" stroke="blue" stroke-width="2" />
<path d="M1569,1302 L605,326" stroke="blue" stroke-width="2" />
<path d="M54,2488 L1933,1098" stroke="blue" stroke-width="2" />
<path d="M596,3511 L762,2152" stroke="blue" stroke-width="2" />
<path d="M128,774 L778,982" stroke="blue" stroke-width="2" />
<path d="M302,3623 L1352,3038" stroke="blue" stroke-width="2" />
<path d="M1627,588 L1750,1693" stroke="blue" stroke-width="2" />
<path d="M178,1952 L232,589" stroke="blue" stroke-width="2" />
<path d="M331,2133 L1930,523" stroke="blue" stroke-width="2" />
<path d="M1950,3066 L1891,246" stroke="blue" stroke-width="2" />
<path d="M1799,1250 L837,96" stroke="blue" stroke-width="2" />
<path d="M1874,3127 L156,2787" stroke="blue" stroke-width="2" />
<path d="M970,532 L620,1236" stroke="blue" stroke-width="2" />
<path d="M190,2448 L1047,2130" stroke="blue" stroke-width="2" />
<path d="M685,1189 L572,348" stroke="blue" stroke-width="2" />
<path d="M1686,2798 L1816,398" stroke="blue" stroke-width="2" />
<path d="M1016,2031 L254,858" stroke="blue" stroke-width="2" />
<path d="M1726,171 L384,2036" stroke="blue" stroke-width="2" />
<path d="M1377,2679 L1794,2801" stroke="blue" stroke-width="2" />
<path d="M2,2520 L1686,762" stroke="blue" stroke-width="2" />
<path d="M361,1991 L1899,1793" stroke="blue" stroke-width="2" />
<path d="M72,577 L1391,256" stroke="blue" stroke-width="2" />
<path d="M1006,1234 L878,1330" stroke="blue" stroke-width="2" />
<path d="M1481,1435 L858,2569" stroke="blue" stroke-width="2" />
<path d="M164,200 L1182,1816" stroke="blue" stroke-width="2" />
<path d="M1606,2054 L608,2158" stroke="blue" stroke-width="2" />
<path d="M305,2846 L1847,2722" stroke="blue" stroke-width="2" />
<path d="M1974,615 L869,2397" stroke="blue" stroke-width="2" />
<path d="M40,2945 L1643,802" stroke="blue" stroke-width="2" />
<path d="M1709,2157 L1685,2442" stroke="blue" stroke-width="2" />
<path d="M750,2610 L332,3267" stroke="blue" stroke-width="2" />
<path d="M1698,159 L710,556" stroke="blue" stroke-width="2" />
<path d="M1760,3420 L1905,372" stroke="blue" stroke-width="2" />
<path d="M948,1723 L1047,656" stroke="blue" stroke-width="2" />
<path d="M268,1400 L1051,535" stroke="blue" stroke-width="2" />
<path d="M485,2480 L28,312" stroke="blue" stroke-width="2" />
<path d="M1166,1577 L611,655" stroke="blue" stroke-width="2" />
<path d="M658,311 L447,3583" stroke="blue" stroke-width="2" />
<path d="M73,3657 L1027,1627" stroke="blue" stroke-width="2" />
<path d="M1958,460 L233,2798" stroke="blue" stroke-width="2" />
<path d="M487,3235 L1418,2034" stroke="blue" stroke-width="2" />
<path d="M1603,467 L1149,2640" stroke="blue" stroke-width="2" />
<path d="M1022,2849 L413,2739" stroke="blue" stroke-width="2" />
<path d="M521,1099 L502,2886" stroke="blue" stroke-width="2" />
<path d="M213,885 L1748,134" stroke="blue" stroke-width="2" />
<path d="M1188,550 L1472,1646" stroke="blue" stroke-width="2" />
<path d="M1686,1052 L1529,721" stroke="blue" stroke-width="2" />
<path d="M234,3624 L1365,784" stroke="blue" stroke-width="2" />
<path d="M963,1499 L298,89" stroke="blue" stroke-width="2" />
<path d="M37,3487 L1944,3435" stroke="blue" stroke-width="2" />
<path d="M205,1856 L1022,1162" stroke="blue" stroke-width="2" />
<path d="M1223,2156 L1040,1836" stroke="blue" stroke-width="2" />
<path d="M555,1529 L1369,97" stroke="blue" stroke-width="2" />
<path d="M1470,521 L964,505" stroke="blue" stroke-width="2" />
<path d="M335,490 L784,3002" stroke="blue" stroke-width="2" />
<path d="M1076,3178 L1610,1605" stroke="blue" stroke-width="2" />
<path d="M1845,640 L1874,2267" stroke="blue" stroke-width="2" />
<path d="M388,3282 L1870,3198" stroke="blue" stroke-width="2" />
<path d="M1423,1700 L981,2771" stroke="blue" stroke-width="2" />
<path d="M733,1880 L296,1035" stroke="blue" stroke-width="2" />
<path d="M1695,2890 L1124,235" stroke="blue" stroke-width="2" />
<path d="M1664,1693 L725,1187" stroke="blue" stroke-width="2" />
<path d="M1695,2536 L250,448" stroke="blue" stroke-width="2" />
<path d="M1785,1327 L902,573" stroke="blue" stroke-width="2" />
<path d="M663,2412 L658,923" stroke="blue" stroke-width="2" />
<path d="M1497,2941 L111,952" stroke="blue" stroke-width="2" />
<path d="M872,2076 L1924,2398" stroke="blue" stroke-width="2" />
<path d="M232,3525 L1310,1287" stroke="blue" stroke-width="2" />
<path d="M1624,1040 L1390,2483" stroke="blue" stroke-width="2" />
<path d="M649,3527 L1715,2287" stroke="blue" stroke-width="2" />
<path d="M33,247 L305,1721" stroke="blue" stroke-width="2" />
<path d="M1286,3572 L915,3478" stroke="blue" stroke-width="2" />
<path d="M118,3127 L6,1408" stroke="blue" stroke-width="2" />
<path d="M1647,1939 L1459,3427" stroke="blue" stroke-width="2" />
<path d="M567,2291 L1314,1966" stroke="blue" stroke-width="2" />
<path d="M1547,3398 L355,2794" stroke="blue" stroke-width="2" />
<path d="M1258,1035 L973,1910" stroke="blue" stroke-width="2" />
<path d="M1253,2160 L131,2157" stroke="blue" stroke-width="2" />
<path d="M103,2656 L1640,3714" stroke="blue" stroke-width="2" />
<path d="M1859,937 L353,916" stroke="blue" stroke-width="2" />
<path d="M455,945 L833,986" stroke="blue" stroke-width="2" />
<path d="M450,1926 L141,1471" stroke="blue" stroke-width="2" />
<path d="M681,1012 L946,3123" stroke="blue" stroke-width="2" />
<path d="M358,2149 L1898,1162" stroke="blue" stroke-width="2" />
<path d="M133,2256 L155,1983" stroke="blue" stroke-width="2" />
<path d="M210,1280 L1483,2917" stroke="blue" stroke-width="2" />
<path d="M525,109 L801,212" stroke="blue" stroke-width="2" />
<path d="M583,343 L1011,1042" stroke="blue" stroke-width="2" />
<path d="M1879,646 L1606,2095" stroke="blue" stroke-width="2" />
<path d="M1691,3714 L979,1496" stroke="blue" stroke-width="2" />
<path d="M2,2797 L1374,1100" stroke="blue" stroke-width="2" />
<path d="M863,1775 L1049,1645" stroke="blue" stroke-width="2" />
<path d="M905,3564 L1392,267" stroke="blue" stroke-width="2" />
<path d="M1769,670 L722,1035" stroke="blue" stroke-width="2" />
<path d="M813,1957 L1937,3379" stroke="blue" stroke-width="2" />
<path d="M1716,1856 L933,1824" stroke="blue" stroke-width="2" />
<path d="M142,2354 L264,1564" stroke="blue" stroke-width="2" />
<path d="M474,3731 L103,1964" stroke="blue" stroke-width="2" />
<path d="M1217,65 L1613,1229" stroke="blue" stroke-width="2" />
<path d="M1735,566 L671,76" stroke="blue" stroke-width="2" />
<path d="M1137,2077 L1590,2593" stroke="blue" stroke-width="2" />
<path d="M911,2527 L880,2192" stroke="blue" stroke-width="2" />
<path d="M870,1864 L1943,1468" stroke="blue" stroke-width="2" />
<path d="M776,1159 L1905,1829" stroke="blue" stroke-width="2" />
<path d="M572,1019 L1296,2967" stroke="blue" stroke-width="2" />
<path d="M589,1591 L248,2530" stroke="blue" stroke-width="2" />
<path d="M1459,576 L862,2528" stroke="blue" stroke-width="2" />
<path d="M516,1023 L626,1375" stroke="blue" stroke-width="2" />
<path d="M1744,2111 L1810,2542" stroke="blue" stroke-width="2" />
<path d="M116,1704 L146,3558" stroke="blue" stroke-width="2" />
<path d="M806,93 L1847,1859" stroke="blue" stroke-width="2" />
<path d="M1198,1418 L1256,2639" stroke="blue" stroke-width="2" />
<path d="M1393,3616 L1385,2526" stroke="blue" stroke-width="2" />
<path d="M1782,2046 L1757,2078" stroke="blue" stroke-width="2" />
<path d="M1202,2103 L1060,2298" stroke="blue" stroke-width="2" />
<path d="M887,2150 L1163,2710" stroke="blue" stroke-width="2" />
<path d="M1110,2277 L736,158" stroke="blue" stroke-width="2" />
<path d="M285,3211 L981,663" stroke="blue" stroke-width="2" />
<path d="M1216,2539 L859,3447" stroke="blue" stroke-width="2" />
<path d="M1469,638 L373,26" stroke="blue" stroke-width="2" />
<path d="M1570,2144 L633,1874" stroke="blue" stroke-width="2" />
<path d="M97,2457 L60,202" stroke="blue" stroke-width="2" />
<path d="M978,806 L770,3502" stroke="blue" stroke-width="2" />
<path d="M713,276 L819,22" stroke="blue" stroke-width="2" />
<path d="M375,326 L704,327" stroke="blue" stroke-width="2" />
<path d="M1161,3431 L355,1877" stroke="blue" stroke-width="2" />
<path d="M1391,3346 L302,2571" stroke="blue" stroke-width="2" />
<path d="M1548,1252 L1879,1601" stroke="blue" stroke-width="2" />
<path d="M1679,3069 L1968,338" stroke="blue" stroke-width="2" />
<path d="M352,2157 L120,3267" stroke="blue" stroke-width="2" />
<path d="M259,2806 L1277,2608" stroke="blue" stroke-width="2" />
<path d="M801,3166 L1540,2723" stroke="blue" stroke-width="2" />
<path d="M588,384 L979,3142" stroke="blue" stroke-width="2" />
<path d="M1314,742 L873,319" stroke="blue" stroke-width="2" />
<path d="M1209,2660 L1540,1288" stroke="blue" stroke-width="2" />
<path d="M1160,1187 L992,2483" stroke="blue" stroke-width="2" />
<path d="M1223,2358 L592,773" stroke="blue" stroke-width="2" />
<path d="M1797,2699 L599,3575" stroke="blue" stroke-width="2" />
<path d="M615,115 L1627,3623" stroke="blue" stroke-width="2" />
<path d="M1518,3540 L1957,2642" stroke="blue" stroke-width="2" />
<path d="M401,1535 L1352,245" stroke="blue" stroke-width="2" />
<path d="M565,3525 L1008,3403" stroke="blue" stroke-width="2" />
<path d="M668,1776 L6,340" stroke="blue" stroke-width="2" />
<path d="M1000,638 L1742,2106" stroke="blue" stroke-width="2" />
<path d="M221,1110 L655,2732" stroke="blue" stroke-width="2" />
<path d="M228,2393 L574,832" stroke="blue" stroke-width="2" />
<path d="M0,0 L1988,0" stroke="red" stroke-width="10" />
<path d="M1988,0 L1988,3779" stroke="red" stroke-width="10" />
<path d="M0,3779 L1988,3779" stroke="red" stroke-width="10" />
<path d="M0,3779 L0,0" stroke="red" stroke-width="10" />
</svg>