<?xml version="1.0" encoding="UTF-8"?>
<svg xmlns="http://www.w3.org/2000/svg" xmlns:xlink="http://www.w3.org/1999/xlink"
     width="10000" height="10000" viewBox="0 0 10000 10000">
<defs>
</defs>
<path d="M2340,2378 L2375,1520" stroke="blue" stroke-width="2" />
<path d="M4385,3653 L3695,461" stroke="blue" stroke-width="2" />
<path d="M5093,2747 L3993,740" stroke="blue" stroke-width="2" />
<path d="M4132,3586 L1464,1255" stroke="blue" stroke-width="2" />
<path d="M2643,1659 L578,1384" stroke="blue" stroke-width="2" />
<path d="M5694,2686 L4868,3171" stroke="blue" stroke-width="2" />
<path d="M3572,1111 L5636,3285" stroke="blue" stroke-width="2" />
<path d="M2708,2323 L866,3508" stroke="blue" stroke-width="2" />
<path d="M3683,1412 L673,1068" stroke="blue" stroke-width="2" />
<path d="M2872,657 L3172,2445" stroke="blue" stroke-width="2" />
<path d="M4952,571 L2440,58" stroke="blue" stroke-width="2" />
<path d="M1930,3909 L892,4300" stroke="blue" stroke-width="2" />
<path d="M1355,3538 L612,2979" stroke="blue" stroke-width="2" />
<path d="M688,3684 L3558,1816" stroke="blue" stroke-width="2" />
<path d="M15,2447 L1921,691" stroke="blue" stroke-width="2" />
<path d="M2975,2814 L2549,484" stroke="blue" stroke-width="2" />
<path d="M3718,4287 L1543,4078" stroke="blue" stroke-width="2" />
<path d="M3471,1904 L1288,1989" stroke="blue" stroke-width="2" />
<path d="M3097,1616 L4812,2405" stroke="blue" stroke-width="2" />
<path d="M223,925 L2873,4111" stroke="blue" stroke-width="2" />
<path d="M5290,1148 L1878,651" stroke="blue" stroke-width="2" />
<path d="M1369,3902 L400,2775" stroke="blue" stroke-width="2" />
<path d="M1165,2673 L4268,825" stroke="blue" stroke-width="2" />
<path d="M5644,456 L3808,4015" stroke="blue" stroke-width="2" />
<path d="M5471,839 L4262,32" stroke="blue" stroke-width="2" />
<path d="M1210,3322 L2431,3996" stroke="blue" stroke-width="2" />
<path d="M3361,177 L1013,3143" stroke="blue" stroke-width="2" />
<path d="M5143,3234 L1136,749" stroke="blue" stroke-width="2" />
<path d="M1478,3821 L2965,1995" stroke="blue" stroke-width="2" />
<path d="M4505,4227 L5390,1193" stroke="blue" stroke-width="2" />
<path d="M1200,2894 L3522,1528" stroke="blue" stroke-width="2" />
<path d="M529,2661 L605,2359" stroke="blue" stroke-width="2" />
<path d="M119,4165 L3888,3409" stroke="blue" stroke-width="2" />
<path d="M4670,1084 L2032,1359" stroke="blue" stroke-width="2" />
<path d="M5206,2511 L882,1041" stroke="blue" stroke-width="2" />
<path d="M3149,1595 L3874,2320" stroke="blue" stroke-width="2" />
<path d="M4735,1952 L2510,3389" stroke="blue" stroke-width="2" />
<path d="M354,2607 L3777,2156" stroke="blue" stroke-width="2" />
<path d="M3824,1792 L773,3788" stroke="blue" stroke-width="2" />
<path d="M754,1821 L4345,531" stroke="blue" stroke-width="2" />
<path d="M5011,243 L4109,2012" stroke="blue" stroke-width="2" />
<path d="M5192,568 L3322,3723" stroke="blue" stroke-width="2" />
<path d="M4242,1622 L3606,1395" stroke="blue" stroke-width="2" />
<path d="M4457,2993 L5522,2778" stroke="blue" stroke-width="2" />
<path d="M756,1413 L2505,2979" stroke="blue" stroke-width="2" />
<path d="M5413,847 L4616,2557" stroke="blue" stroke-width="2" />
<path d="M1156,718 L5832,1821" stroke="blue" stroke-width="2" />
<path d="M2345,247 L4242,406" stroke="blue" stroke-width="2" />
<path d="M4374,2533 L1148,4281" stroke="blue" stroke-width="2" />
<path d="M2172,570 L4261,262" stroke="blue" stroke-width="2" />
<path d="M5416,4122 L637,1418" stroke="blue" stroke-width="2" />
<path d="M3413,2012 L2715,800" stroke="blue" stroke-width="2" />
<path d="M2573,1797 L3562,394" stroke="blue" stroke-width="2" />
<path d="M0,0 L5961,0" stroke="red" stroke-width="10" />
<path d="M5961,0 L5961,4387" stroke="red" stroke-width="10" />
<path d="M0,4387 L5961,4387" stroke="red" stroke-width="10" />
<path d="M0,4387 L0,0" stroke="red" stroke-width="10" />
</svg>