<?xml version="1.0" encoding="UTF-8"?>
<svg xmlns="http://www.w3.org/2000/svg" xmlns:xlink="http://www.w3.org/1999/xlink"
     width="10000" height="10000" viewBox="0 0 10000 10000">
<defs>
</defs>
<path d="M6644,630 L6068,1086" stroke="blue" stroke-width="2" />
<path d="M2758,3525 L6501,1966" stroke="blue" stroke-width="2" />
<path d="M3033,1109 L2944,594" stroke="blue" stroke-width="2" />
<path d="M131,2015 L4992,2092" stroke="blue" stroke-width="2" />
<path d="M3362,2026 L813,1054" stroke="blue" stroke-width="2" />
<path d="M840,3420 L5899,3185" stroke="blue" stroke-width="2" />
<path d="M5244,2414 L3147,737" stroke="blue" stroke-width="2" />
<path d="M245,3174 L1665,919" stroke="blue" stroke-width="2" />
<path d="M2996,3525 L1264,619" stroke="blue" stroke-width="2" />
<path d="M5699,1830 L1213,2502" stroke="blue" stroke-width="2" />
<path d="M5053,364 L1278,1360" stroke="blue" stroke-width="2" />
<path d="M3189,3042 L6650,1563" stroke="blue" stroke-width="2" />
<path d="M3183,2987 L5532,1610" stroke="blue" stroke-width="2" />
<path d="M2646,426 L3216,2717" stroke="blue" stroke-width="2" />
<path d="M5026,1008 L3973,1507" stroke="blue" stroke-width="2" />
<path d="M3516,1449 L3236,387" stroke="blue" stroke-width="2" />
<path d="M1240,1777 L1528,3384" stroke="blue" stroke-width="2" />
<path d="M823,215 L3308,1984" stroke="blue" stroke-width="2" />
<path d="M5199,2047 L5905,3547" stroke="blue" stroke-width="2" />
<path d="M670,1328 L5253,3080" stroke="blue" stroke-width="2" />
<path d="M526,1850 L599,1802" stroke="blue" stroke-width="2" />
<path d="M1823,1971 L4531,1471" stroke="blue" stroke-width="2" />
<path d="M286,3230 L6248,1784" stroke="blue" stroke-width="2" />
<path d="M5035,3539 L6115,2614" stroke="blue" stroke-width="2" />
<path d="M3280,1641 L5594,1646" stroke="blue" stroke-width="2" />
<path d="M3098,2249 L2666,2008" stroke="blue" stroke-width="2" />
<path d="M3680,2830 L567,1990" stroke="blue" stroke-width="2" />
<path d="M5721,3241 L411,3559" stroke="blue" stroke-width="2" />
<path d="M3249,1962 L5928,273" stroke="blue" stroke-width="2" />
<path d="M4070,470 L1302,1267" stroke="blue" stroke-width="2" />
<path d="M3116,2013 L2418,3240" stroke="blue" stroke-width="2" />
<path d="M5510,2072 L2721,1246" stroke="blue" stroke-width="2" />
<path d="M1519,2102 L209,2276" stroke="blue" stroke-width="2" />
<path d="M4199,2489 L5788,1853" stroke="blue" stroke-width="2" />
<path d="M4779,387 L4215,1479" stroke="blue" stroke-width="2" />
<path d="M5656,968 L2598,742" stroke="blue" stroke-width="2" />
<path d="M5723,3066 L5637,1980" stroke="blue" stroke-width="2" />
<path d="M98,2570 L4794,2261" stroke="blue" stroke-width="2" />
<path d="M6428,380 L3493,1123" stroke="blue" stroke-width="2" />
<path d="M3458,2748 L2114,141" stroke="blue" stroke-width="2" />
<path d="M2521,3546 L6065,740" stroke="blue" stroke-width="2" />
<path d="M2807,2381 L1034,136" stroke="blue" stroke-width="2" />
<path d="M6569,1343 L98,1420" stroke="blue" stroke-width="2" />
<path d="M3479,1031 L2546,87" stroke="blue" stroke-width="2" />
<path d="M3563,2130 L4301,8" stroke="blue" stroke-width="2" />
<path d="M2349,603 L6598,2621" stroke="blue" stroke-width="2" />
<path d="M2322,2528 L4122,3265" stroke="blue" stroke-width="2" />
<path d="M6205,315 L1669,171" stroke="blue" stroke-width="2" />
<path d="M4787,3515 L4069,864" stroke="blue" stroke-width="2" />
<path d="M3635,2530 L2960,1099" stroke="blue" stroke-width="2" />
<path d="M6598,1173 L1739,467" stroke="blue" stroke-width="2" />
<path d="M3544,1336 L141,687" stroke="blue" stroke-width="2" />
<path d="M862,2541 L281,2359" stroke="blue" stroke-width="2" />
<path d="M206,2216 L6352,552" stroke="blue" stroke-width="2" />
<path d="M3174,2412 L4916,561" stroke="blue" stroke-width="2" />
<path d="M4770,136 L3502,382" stroke="blue" stroke-width="2" />
<path d="M2273,2284 L3199,3481" stroke="blue" stroke-width="2" />
<path d="M906,2320 L5493,358" stroke="blue" stroke-width="2" />
<path d="M5592,2256 L2407,3322" stroke="blue" stroke-width="2" />
<path d="M2546,1420 L464,3455" stroke="blue" stroke-width="2" />
<path d="M1944,1953 L4914,2950" stroke="blue" stroke-width="2" />
<path d="M4422,1667 L4108,962" stroke="blue" stroke-width="2" />
<path d="M4024,145 L604,3557" stroke="blue" stroke-width="2" />
<path d="M1560,2882 L725,2559" stroke="blue" stroke-width="2" />
<path d="M6610,716 L3925,3402" stroke="blue" stroke-width="2" />
<path d="M2662,1816 L731,3253" stroke="blue" stroke-width="2" />
<path d="M381,47 L5510,2643" stroke="blue" stroke-width="2" />
<path d="M1744,2350 L2416,1915" stroke="blue" stroke-width="2" />
<path d="M1976,31 L4945,189" stroke="blue" stroke-width="2" />
<path d="M2229,3249 L817,1419" stroke="blue" stroke-width="2" />
<path d="M1323,826 L2187,321" stroke="blue" stroke-width="2" />
<path d="M3251,2085 L6339,1764" stroke="blue" stroke-width="2" />
<path d="M1849,2632 L4845,1602" stroke="blue" stroke-width="2" />
<path d="M5914,1923 L3369,2991" stroke="blue" stroke-width="2" />
<path d="M566,431 L3389,1580" stroke="blue" stroke-width="2" />
<path d="M6546,3501 L435,1639" stroke="blue" stroke-width="2" />
<path d="M5056,313 L1543,1490" stroke="blue" stroke-width="2" />
<path d="M5718,2782 L5448,2135" stroke="blue" stroke-width="2" />
<path d="M6461,1466 L4327,2857" stroke="blue" stroke-width="2" />
<path d="M732,1045 L3464,804" stroke="blue" stroke-width="2" />
<path d="M5644,2120 L2666,300" stroke="blue" stroke-width="2" />
<path d="M6676,1283 L3132,1482" stroke="blue" stroke-width="2" />
<path d="M4283,2872 L6629,842" stroke="blue" stroke-width="2" />
<path d="M1542,2607 L839,1027" stroke="blue" stroke-width="2" />
<path d="M3447,2773 L76,1600" stroke="blue" stroke-width="2" />
<path d="M1274,490 L4914,1153" stroke="blue" stroke-width="2" />
<path d="M3472,1417 L1355,2134" stroke="blue" stroke-width="2" />
<path d="M6072,1216 L5209,1140" stroke="blue" stroke-width="2" />
<path d="M1519,1040 L105,517" stroke="blue" stroke-width="2" />
<path d="M753,3188 L2746,3568" stroke="blue" stroke-width="2" />
<path d="M3860,958 L689,3327" stroke="blue" stroke-width="2" />
<path d="M6599,2507 L2559,971" stroke="blue" stroke-width="2" />
<path d="M5429,1687 L2939,2730" stroke="blue" stroke-width="2" />
<path d="M4540,141 L788,3115" stroke="blue" stroke-width="2" />
<path d="M154,2015 L6248,2742" stroke="blue" stroke-width="2" />
<path d="M1713,944 L4240,426" stroke="blue" stroke-width="2" />
<path d="M3986,2781 L675,2145" stroke="blue" stroke-width="2" />
<path d="M6376,2265 L5338,1983" stroke="blue" stroke-width="2" />
<path d="M3711,3034 L6244,1441" stroke="blue" stroke-width="2" />
<path d="M5100,2119 L6313,1528" stroke="blue" stroke-width="2" />
<path d="M6607,157 L1146,1014" stroke="blue" stroke-width="2" />
<path d="M4299,816 L1924,1023" stroke="blue" stroke-width="2" />
<path d="M3585,1856 L101,240" stroke="blue" stroke-width="2" />
<path d="M4363,2588 L6637,62" stroke="blue" stroke-width="2" />
<path d="M6155,3185 L2424,477" stroke="blue" stroke-width="2" />
<path d="M4550,3295 L4006,2473" stroke="blue" stroke-width="2" />
<path d="M6400,50 L1130,2154" stroke="blue" stroke-width="2" />
<path d="M1936,2998 L116,2344" stroke="blue" stroke-width="2" />
<path d="M4553,2734 L6010,3086" stroke="blue" stroke-width="2" />
<path d="M747,2160 L5869,1332" stroke="blue" stroke-width="2" />
<path d="M6038,423 L1422,2090" stroke="blue" stroke-width="2" />
<path d="M822,3429 L5467,1274" stroke="blue" stroke-width="2" />
<path d="M6045,1857 L4415,1448" stroke="blue" stroke-width="2" />
<path d="M4255,279 L6249,2808" stroke="blue" stroke-width="2" />
<path d="M77,1553 L4078,3045" stroke="blue" stroke-width="2" />
<path d="M503,253 L3718,296" stroke="blue" stroke-width="2" />
<path d="M6016,2562 L3115,1254" stroke="blue" stroke-width="2" />
<path d="M5482,2720 L4931,657" stroke="blue" stroke-width="2" />
<path d="M530,596 L1649,1372" stroke="blue" stroke-width="2" />
<path d="M657,2756 L3382,2663" stroke="blue" stroke-width="2" />
<path d="M6190,2844 L2053,955" stroke="blue" stroke-width="2" />
<path d="M5121,2930 L2434,2995" stroke="blue" stroke-width="2" />
<path d="M707,218 L1510,540" stroke="blue" stroke-width="2" />
<path d="M2797,1911 L2641,2403" stroke="blue" stroke-width="2" />
<path d="M187,936 L6027,1055" stroke="blue" stroke-width="2" />
<path d="M4786,1698 L6344,519" stroke="blue" stroke-width="2" />
<path d="M3845,2139 L280,1545" stroke="blue" stroke-width="2" />
<path d="M1416,3345 L3511,2655" stroke="blue" stroke-width="2" />
<path d="M1734,6 L6463,2475" stroke="blue" stroke-width="2" />
<path d="M1446,560 L2743,3002" stroke="blue" stroke-width="2" />
<path d="M5246,2621 L2671,224" stroke="blue" stroke-width="2" />
<path d="M6535,1345 L2915,25" stroke="blue" stroke-width="2" />
<path d="M3901,1723 L1197,611" stroke="blue" stroke-width="2" />
<path d="M5091,2177 L6138,250" stroke="blue" stroke-width="2" />
<path d="M1945,2132 L2408,1309" stroke="blue" stroke-width="2" />
<path d="M3647,2365 L6267,390" stroke="blue" stroke-width="2" />
<path d="M6310,1263 L4289,2971" stroke="blue" stroke-width="2" />
<path d="M3098,1286 L1415,504" stroke="blue" stroke-width="2" />
<path d="M152,2144 L1370,917" stroke="blue" stroke-width="2" />
<path d="M16,1402 L4210,408" stroke="blue" stroke-width="2" />
<path d="M2922,2205 L2912,690" stroke="blue" stroke-width="2" />
<path d="M922,1158 L240,1784" stroke="blue" stroke-width="2" />
<path d="M3939,981 L6644,3070" stroke="blue" stroke-width="2" />
<path d="M6474,303 L2797,3287" stroke="blue" stroke-width="2" />
<path d="M3591,2211 L5971,3060" stroke="blue" stroke-width="2" />
<path d="M2803,3270 L2843,3475" stroke="blue" stroke-width="2" />
<path d="M5190,2083 L2932,2574" stroke="blue" stroke-width="2" />
<path d="M4618,263 L234,769" stroke="blue" stroke-width="2" />
<path d="M4462,1867 L4814,545" stroke="blue" stroke-width="2" />
<path d="M2647,2549 L4184,2598" stroke="blue" stroke-width="2" />
<path d="M4637,3381 L3826,1351" stroke="blue" stroke-width="2" />
<path d="M606,951 L617,1585" stroke="blue" stroke-width="2" />
<path d="M2888,2242 L2674,153" stroke="blue" stroke-width="2" />
<path d="M6063,1108 L3021,1639" stroke="blue" stroke-width="2" />
<path d="M4137,2871 L1654,3103" stroke="blue" stroke-width="2" />
<path d="M2466,3073 L2623,1159" stroke="blue" stroke-width="2" />
<path d="M67,2186 L1355,432" stroke="blue" stroke-width="2" />
<path d="M1817,1080 L3309,2863" stroke="blue" stroke-width="2" />
<path d="M5167,631 L240,1763" stroke="blue" stroke-width="2" />
<path d="M2688,454 L4470,1606" stroke="blue" stroke-width="2" />
<path d="M3145,1150 L247,1208" stroke="blue" stroke-width="2" />
<path d="M3762,2403 L2148,44" stroke="blue" stroke-width="2" />
<path d="M5135,1533 L1893,3039" stroke="blue" stroke-width="2" />
<path d="M2615,1417 L2311,1255" stroke="blue" stroke-width="2" />
<path d="M4571,1706 L178,2621" stroke="blue" stroke-width="2" />
<path d="M519,113 L4538,3088" stroke="blue" stroke-width="2" />
<path d="M5036,2768 L6470,671" stroke="blue" stroke-width="2" />
<path d="M5075,864 L4703,418" stroke="blue" stroke-width="2" />
<path d="M381,1573 L3344,2353" stroke="blue" stroke-width="2" />
<path d="M4437,2401 L3909,2472" stroke="blue" stroke-width="2" />
<path d="M3542,3425 L958,3080" stroke="blue" stroke-width="2" />
<path d="M5008,2070 L1483,1538" stroke="blue" stroke-width="2" />
<path d="M3613,3463 L5330,2062" stroke="blue" stroke-width="2" />
<path d="M3749,1791 L5887,1848" stroke="blue" stroke-width="2" />
<path d="M2761,3237 L3221,1202" stroke="blue" stroke-width="2" />
<path d="M6000,2483 L5869,3187" stroke="blue" stroke-width="2" />
<path d="M0,0 L6689,0" stroke="red" stroke-width="10" />
<path d="M6689,0 L6689,3587" stroke="red" stroke-width="10" />
<path d="M0,3587 L6689,3587" stroke="red" stroke-width="10" />
<path d="M0,3587 L0,0" stroke="red" stroke-width="10" />
</svg>