<?xml version="1.0" encoding="UTF-8"?>
<svg xmlns="http://www.w3.org/2000/svg" xmlns:xlink="http://www.w3.org/1999/xlink"
     width="10000" height="10000" viewBox="0 0 10000 10000">
<defs>
</defs>
<path d="M195,6853 L173,1461" stroke="blue" stroke-width="2" />
<path d="M1262,1994 L682,3700" stroke="blue" stroke-width="2" />
<path d="M1243,4821 L1158,6571" stroke="blue" stroke-width="2" />
<path d="M1270,4432 L1079,3703" stroke="blue" stroke-width="2" />
<path d="M1104,3025 L523,3531" stroke="blue" stroke-width="2" />
<path d="M564,1311 L492,1528" stroke="blue" stroke-width="2" />
<path d="M610,3751 L206,881" stroke="blue" stroke-width="2" />
<path d="M338,567 L997,7165" stroke="blue" stroke-width="2" />
<path d="M1325,2590 L1265,5825" stroke="blue" stroke-width="2" />
<path d="M1409,3670 L16,6324" stroke="blue" stroke-width="2" />
<path d="M1198,2844 L237,713" stroke="blue" stroke-width="2" />
<path d="M1153,1858 L896,6825" stroke="blue" stroke-width="2" />
<path d="M631,6202 L457,7269" stroke="blue" stroke-width="2" />
<path d="M367,6019 L824,654" stroke="blue" stroke-width="2" />
<path d="M1084,4821 L560,6193" stroke="blue" stroke-width="2" />
<path d="M561,1046 L122,4460" stroke="blue" stroke-width="2" />
<path d="M1382,4279 L380,1853" stroke="blue" stroke-width="2" />
<path d="M1397,2207 L194,4799" stroke="blue" stroke-width="2" />
<path d="M860,6906 L654,708" stroke="blue" stroke-width="2" />
<path d="M394,7363 L476,5566" stroke="blue" stroke-width="2" />
<path d="M215,5868 L773,3269" stroke="blue" stroke-width="2" />
<path d="M331,1931 L626,6240" stroke="blue" stroke-width="2" />
<path d="M626,2472 L31,6751" stroke="blue" stroke-width="2" />
<path d="M1053,19 L113,4365" stroke="blue" stroke-width="2" />
<path d="M750,3231 L1326,2678" stroke="blue" stroke-width="2" />
<path d="M1057,196 L585,5290" stroke="blue" stroke-width="2" />
<path d="M1231,2540 L1304,1456" stroke="blue" stroke-width="2" />
<path d="M407,7065 L190,6200" stroke="blue" stroke-width="2" />
<path d="M629,7255 L282,79" stroke="blue" stroke-width="2" />
<path d="M555,5369 L1162,2457" stroke="blue" stroke-width="2" />
<path d="M291,309 L1318,6713" stroke="blue" stroke-width="2" />
<path d="M656,6786 L1200,3768" stroke="blue" stroke-width="2" />
<path d="M1269,2930 L1299,2079" stroke="blue" stroke-width="2" />
<path d="M266,6494 L346,956" stroke="blue" stroke-width="2" />
<path d="M1287,5584 L499,1007" stroke="blue" stroke-width="2" />
<path d="M545,4905 L1080,5339" stroke="blue" stroke-width="2" />
<path d="M9,2282 L712,3617" stroke="blue" stroke-width="2" />
<path d="M181,3206 L953,1846" stroke="blue" stroke-width="2" />
<path d="M344,6033 L923,6657" stroke="blue" stroke-width="2" />
<path d="M1165,4657 L1242,1774" stroke="blue" stroke-width="2" />
<path d="M430,4675 L713,4637" stroke="blue" stroke-width="2" />
<path d="M379,2700 L498,322" stroke="blue" stroke-width="2" />
<path d="M856,704 L1160,54" stroke="blue" stroke-width="2" />
<path d="M60,1387 L234,1807" stroke="blue" stroke-width="2" />
<path d="M359,3506 L387,3684" stroke="blue" stroke-width="2" />
<path d="M672,5941 L1284,5766" stroke="blue" stroke-width="2" />
<path d="M1164,6137 L1280,1374" stroke="blue" stroke-width="2" />
<path d="M630,499 L521,4445" stroke="blue" stroke-width="2" />
<path d="M1042,5900 L1118,1327" stroke="blue" stroke-width="2" />
<path d="M614,4531 L914,2937" stroke="blue" stroke-width="2" />
<path d="M306,6458 L81,3848" stroke="blue" stroke-width="2" />
<path d="M797,7300 L585,722" stroke="blue" stroke-width="2" />
<path d="M61,4777 L235,3516" stroke="blue" stroke-width="2" />
<path d="M810,2340 L545,1979" stroke="blue" stroke-width="2" />
<path d="M1258,170 L1258,340" stroke="blue" stroke-width="2" />
<path d="M439,2175 L413,4898" stroke="blue" stroke-width="2" />
<path d="M74,3941 L788,3828" stroke="blue" stroke-width="2" />
<path d="M692,4622 L191,3899" stroke="blue" stroke-width="2" />
<path d="M1425,686 L136,1266" stroke="blue" stroke-width="2" />
<path d="M58,1702 L838,723" stroke="blue" stroke-width="2" />
<path d="M108,1359 L410,477" stroke="blue" stroke-width="2" />
<path d="M1141,2376 L562,2372" stroke="blue" stroke-width="2" />
<path d="M1142,1945 L1164,1534" stroke="blue" stroke-width="2" />
<path d="M736,67 L39,2898" stroke="blue" stroke-width="2" />
<path d="M353,4556 L90,6921" stroke="blue" stroke-width="2" />
<path d="M239,7034 L922,2336" stroke="blue" stroke-width="2" />
<path d="M370,6712 L354,4592" stroke="blue" stroke-width="2" />
<path d="M649,4652 L371,4895" stroke="blue" stroke-width="2" />
<path d="M1068,6169 L585,6149" stroke="blue" stroke-width="2" />
<path d="M409,2836 L1250,6113" stroke="blue" stroke-width="2" />
<path d="M377,1264 L822,6267" stroke="blue" stroke-width="2" />
<path d="M364,4129 L611,414" stroke="blue" stroke-width="2" />
<path d="M911,3724 L215,4443" stroke="blue" stroke-width="2" />
<path d="M803,4852 L776,2551" stroke="blue" stroke-width="2" />
<path d="M596,3347 L511,2061" stroke="blue" stroke-width="2" />
<path d="M127,1677 L966,355" stroke="blue" stroke-width="2" />
<path d="M924,1017 L321,3249" stroke="blue" stroke-width="2" />
<path d="M547,4107 L353,976" stroke="blue" stroke-width="2" />
<path d="M813,3640 L1010,6540" stroke="blue" stroke-width="2" />
<path d="M264,3761 L278,5589" stroke="blue" stroke-width="2" />
<path d="M338,4005 L1261,843" stroke="blue" stroke-width="2" />
<path d="M42,5166 L895,4728" stroke="blue" stroke-width="2" />
<path d="M486,1075 L641,5152" stroke="blue" stroke-width="2" />
<path d="M688,757 L659,3340" stroke="blue" stroke-width="2" />
<path d="M1372,5983 L1027,5085" stroke="blue" stroke-width="2" />
<path d="M871,3361 L528,2960" stroke="blue" stroke-width="2" />
<path d="M739,5754 L824,2080" stroke="blue" stroke-width="2" />
<path d="M617,3089 L163,4782" stroke="blue" stroke-width="2" />
<path d="M5,866 L373,7187" stroke="blue" stroke-width="2" />
<path d="M834,613 L486,3103" stroke="blue" stroke-width="2" />
<path d="M1199,1899 L926,1456" stroke="blue" stroke-width="2" />
<path d="M1426,4633 L1260,1539" stroke="blue" stroke-width="2" />
<path d="M1205,6440 L1349,2254" stroke="blue" stroke-width="2" />
<path d="M122,4949 L1182,5754" stroke="blue" stroke-width="2" />
<path d="M409,5230 L1140,634" stroke="blue" stroke-width="2" />
<path d="M444,2411 L513,788" stroke="blue" stroke-width="2" />
<path d="M675,2533 L329,3098" stroke="blue" stroke-width="2" />
<path d="M772,6217 L805,230" stroke="blue" stroke-width="2" />
<path d="M744,2211 L1252,5478" stroke="blue" stroke-width="2" />
<path d="M1288,1095 L1076,6629" stroke="blue" stroke-width="2" />
<path d="M483,4832 L277,750" stroke="blue" stroke-width="2" />
<path d="M1263,1948 L235,6850" stroke="blue" stroke-width="2" />
<path d="M698,3442 L1392,5882" stroke="blue" stroke-width="2" />
<path d="M1237,1167 L643,5664" stroke="blue" stroke-width="2" />
<path d="M35,4778 L446,1614" stroke="blue" stroke-width="2" />
<path d="M112,476 L853,4143" stroke="blue" stroke-width="2" />
<path d="M757,3095 L631,3016" stroke="blue" stroke-width="2" />
<path d="M419,4308 L341,2523" stroke="blue" stroke-width="2" />
<path d="M943,4103 L1162,4149" stroke="blue" stroke-width="2" />
<path d="M524,4231 L144,407" stroke="blue" stroke-width="2" />
<path d="M1043,1816 L846,2614" stroke="blue" stroke-width="2" />
<path d="M679,3099 L1388,7281" stroke="blue" stroke-width="2" />
<path d="M1057,2870 L1377,4815" stroke="blue" stroke-width="2" />
<path d="M1023,1896 L529,249" stroke="blue" stroke-width="2" />
<path d="M1426,5885 L836,1010" stroke="blue" stroke-width="2" />
<path d="M707,437 L770,3288" stroke="blue" stroke-width="2" />
<path d="M347,6170 L497,4165" stroke="blue" stroke-width="2" />
<path d="M756,7361 L513,5599" stroke="blue" stroke-width="2" />
<path d="M523,990 L382,825" stroke="blue" stroke-width="2" />
<path d="M276,4800 L526,2609" stroke="blue" stroke-width="2" />
<path d="M1255,2396 L207,3599" stroke="blue" stroke-width="2" />
<path d="M455,2690 L261,4094" stroke="blue" stroke-width="2" />
<path d="M617,5642 L1265,2062" stroke="blue" stroke-width="2" />
<path d="M921,1307 L359,2091" stroke="blue" stroke-width="2" />
<path d="M386,5993 L1043,192" stroke="blue" stroke-width="2" />
<path d="M1145,6697 L1415,6073" stroke="blue" stroke-width="2" />
<path d="M1414,278 L502,2502" stroke="blue" stroke-width="2" />
<path d="M938,791 L568,2487" stroke="blue" stroke-width="2" />
<path d="M784,1323 L1073,802" stroke="blue" stroke-width="2" />
<path d="M594,1899 L419,5839" stroke="blue" stroke-width="2" />
<path d="M941,6696 L777,5741" stroke="blue" stroke-width="2" />
<path d="M1272,2984 L799,4254" stroke="blue" stroke-width="2" />
<path d="M548,7136 L410,3964" stroke="blue" stroke-width="2" />
<path d="M890,5698 L83,3541" stroke="blue" stroke-width="2" />
<path d="M1379,6990 L1399,4224" stroke="blue" stroke-width="2" />
<path d="M85,5498 L98,6200" stroke="blue" stroke-width="2" />
<path d="M1287,1880 L509,4255" stroke="blue" stroke-width="2" />
<path d="M601,6729 L969,5205" stroke="blue" stroke-width="2" />
<path d="M58,7273 L92,1885" stroke="blue" stroke-width="2" />
<path d="M968,842 L1137,3058" stroke="blue" stroke-width="2" />
<path d="M869,751 L1007,2657" stroke="blue" stroke-width="2" />
<path d="M626,4177 L440,1515" stroke="blue" stroke-width="2" />
<path d="M371,3888 L1233,5384" stroke="blue" stroke-width="2" />
<path d="M578,1088 L757,4870" stroke="blue" stroke-width="2" />
<path d="M842,1466 L321,4197" stroke="blue" stroke-width="2" />
<path d="M506,2813 L324,7152" stroke="blue" stroke-width="2" />
<path d="M148,5993 L61,5791" stroke="blue" stroke-width="2" />
<path d="M691,5754 L585,5047" stroke="blue" stroke-width="2" />
<path d="M260,407 L446,1984" stroke="blue" stroke-width="2" />
<path d="M739,4256 L612,4310" stroke="blue" stroke-width="2" />
<path d="M628,2735 L762,973" stroke="blue" stroke-width="2" />
<path d="M883,5991 L1040,6239" stroke="blue" stroke-width="2" />
<path d="M546,1678 L767,7070" stroke="blue" stroke-width="2" />
<path d="M92,6923 L760,2821" stroke="blue" stroke-width="2" />
<path d="M660,6377 L1056,7333" stroke="blue" stroke-width="2" />
<path d="M732,5726 L1077,155" stroke="blue" stroke-width="2" />
<path d="M1307,1260 L654,28" stroke="blue" stroke-width="2" />
<path d="M590,7094 L1139,4362" stroke="blue" stroke-width="2" />
<path d="M1402,5084 L367,3291" stroke="blue" stroke-width="2" />
<path d="M1180,3489 L636,3839" stroke="blue" stroke-width="2" />
<path d="M849,5036 L1002,4208" stroke="blue" stroke-width="2" />
<path d="M1040,426 L148,1018" stroke="blue" stroke-width="2" />
<path d="M914,2356 L55,1753" stroke="blue" stroke-width="2" />
<path d="M1086,1406 L522,6473" stroke="blue" stroke-width="2" />
<path d="M515,3802 L454,5021" stroke="blue" stroke-width="2" />
<path d="M971,6977 L868,3480" stroke="blue" stroke-width="2" />
<path d="M49,3431 L1220,6939" stroke="blue" stroke-width="2" />
<path d="M1315,445 L160,6761" stroke="blue" stroke-width="2" />
<path d="M1384,6731 L525,2065" stroke="blue" stroke-width="2" />
<path d="M1005,6159 L325,831" stroke="blue" stroke-width="2" />
<path d="M226,1985 L101,5456" stroke="blue" stroke-width="2" />
<path d="M79,1815 L522,4988" stroke="blue" stroke-width="2" />
<path d="M901,4043 L168,4261" stroke="blue" stroke-width="2" />
<path d="M300,3079 L1199,4455" stroke="blue" stroke-width="2" />
<path d="M941,5645 L1250,6901" stroke="blue" stroke-width="2" />
<path d="M626,299 L1123,4352" stroke="blue" stroke-width="2" />
<path d="M246,6090 L380,6264" stroke="blue" stroke-width="2" />
<path d="M1198,6054 L781,796" stroke="blue" stroke-width="2" />
<path d="M472,2210 L597,3170" stroke="blue" stroke-width="2" />
<path d="M383,4475 L1249,5995" stroke="blue" stroke-width="2" />
<path d="M358,3020 L232,2623" stroke="blue" stroke-width="2" />
<path d="M972,5479 L292,5246" stroke="blue" stroke-width="2" />
<path d="M1363,1079 L439,4562" stroke="blue" stroke-width="2" />
<path d="M1167,7117 L303,1468" stroke="blue" stroke-width="2" />
<path d="M1421,3188 L920,911" stroke="blue" stroke-width="2" />
<path d="M433,6550 L735,1537" stroke="blue" stroke-width="2" />
<path d="M386,5545 L842,4641" stroke="blue" stroke-width="2" />
<path d="M1092,5830 L101,1210" stroke="blue" stroke-width="2" />
<path d="M635,1749 L477,7231" stroke="blue" stroke-width="2" />
<path d="M925,6885 L91,3570" stroke="blue" stroke-width="2" />
<path d="M1205,5404 L847,3508" stroke="blue" stroke-width="2" />
<path d="M487,4112 L1022,6971" stroke="blue" stroke-width="2" />
<path d="M1316,976 L1062,5724" stroke="blue" stroke-width="2" />
<path d="M1098,1409 L851,4944" stroke="blue" stroke-width="2" />
<path d="M296,3510 L451,4290" stroke="blue" stroke-width="2" />
<path d="M675,4963 L806,4355" stroke="blue" stroke-width="2" />
<path d="M831,4055 L119,5777" stroke="blue" stroke-width="2" />
<path d="M932,1278 L1133,5752" stroke="blue" stroke-width="2" />
<path d="M547,3273 L664,7121" stroke="blue" stroke-width="2" />
<path d="M992,7080 L1426,2805" stroke="blue" stroke-width="2" />
<path d="M885,5624 L971,4940" stroke="blue" stroke-width="2" />
<path d="M809,1520 L836,7289" stroke="blue" stroke-width="2" />
<path d="M863,179 L560,5848" stroke="blue" stroke-width="2" />
<path d="M304,5429 L119,1605" stroke="blue" stroke-width="2" />
<path d="M870,5636 L503,5807" stroke="blue" stroke-width="2" />
<path d="M120,6222 L767,1173" stroke="blue" stroke-width="2" />
<path d="M320,5786 L662,932" stroke="blue" stroke-width="2" />
<path d="M1432,3477 L1298,896" stroke="blue" stroke-width="2" />
<path d="M225,3143 L101,5122" stroke="blue" stroke-width="2" />
<path d="M821,5615 L1015,5123" stroke="blue" stroke-width="2" />
<path d="M2,3584 L901,4728" stroke="blue" stroke-width="2" />
<path d="M678,4438 L1402,280" stroke="blue" stroke-width="2" />
<path d="M400,2762 L1261,789" stroke="blue" stroke-width="2" />
<path d="M307,2786 L621,1465" stroke="blue" stroke-width="2" />
<path d="M840,2190 L865,3030" stroke="blue" stroke-width="2" />
<path d="M1267,5525 L1156,4863" stroke="blue" stroke-width="2" />
<path d="M1215,5695 L1372,388" stroke="blue" stroke-width="2" />
<path d="M189,858 L1075,5533" stroke="blue" stroke-width="2" />
<path d="M695,6404 L170,111" stroke="blue" stroke-width="2" />
<path d="M239,912 L1314,4722" stroke="blue" stroke-width="2" />
<path d="M1383,773 L1147,154" stroke="blue" stroke-width="2" />
<path d="M969,5227 L1072,3432" stroke="blue" stroke-width="2" />
<path d="M1157,448 L426,5372" stroke="blue" stroke-width="2" />
<path d="M670,7310 L769,3401" stroke="blue" stroke-width="2" />
<path d="M1116,6566 L1277,1868" stroke="blue" stroke-width="2" />
<path d="M434,6382 L29,1751" stroke="blue" stroke-width="2" />
<path d="M53,3540 L661,5786" stroke="blue" stroke-width="2" />
<path d="M1020,6545 L332,5657" stroke="blue" stroke-width="2" />
<path d="M101,4747 L1091,84" stroke="blue" stroke-width="2" />
<path d="M887,3145 L985,5122" stroke="blue" stroke-width="2" />
<path d="M235,7196 L987,6691" stroke="blue" stroke-width="2" />
<path d="M931,3334 L1355,5285" stroke="blue" stroke-width="2" />
<path d="M313,1870 L1392,2882" stroke="blue" stroke-width="2" />
<path d="M170,5122 L1366,7323" stroke="blue" stroke-width="2" />
<path d="M370,181 L1352,1145" stroke="blue" stroke-width="2" />
<path d="M1091,3543 L1240,6895" stroke="blue" stroke-width="2" />
<path d="M562,2164 L905,1324" stroke="blue" stroke-width="2" />
<path d="M1430,6146 L487,1800" stroke="blue" stroke-width="2" />
<path d="M263,3379 L1334,6480" stroke="blue" stroke-width="2" />
<path d="M719,7117 L704,2943" stroke="blue" stroke-width="2" />
<path d="M1355,1063 L1004,1742" stroke="blue" stroke-width="2" />
<path d="M212,6279 L194,2637" stroke="blue" stroke-width="2" />
<path d="M1166,242 L243,3253" stroke="blue" stroke-width="2" />
<path d="M683,678 L909,2329" stroke="blue" stroke-width="2" />
<path d="M604,4095 L846,2295" stroke="blue" stroke-width="2" />
<path d="M211,4115 L414,5204" stroke="blue" stroke-width="2" />
<path d="M976,5338 L231,4837" stroke="blue" stroke-width="2" />
<path d="M664,7204 L982,2513" stroke="blue" stroke-width="2" />
<path d="M1025,6345 L1427,1823" stroke="blue" stroke-width="2" />
<path d="M1003,1613 L1046,1785" stroke="blue" stroke-width="2" />
<path d="M1165,3273 L562,4992" stroke="blue" stroke-width="2" />
<path d="M927,2055 L363,120" stroke="blue" stroke-width="2" />
<path d="M307,1642 L84,4923" stroke="blue" stroke-width="2" />
<path d="M1034,4555 L771,2335" stroke="blue" stroke-width="2" />
<path d="M1428,2923 L627,5120" stroke="blue" stroke-width="2" />
<path d="M681,5873 L494,2281" stroke="blue" stroke-width="2" />
<path d="M962,2836 L30,2379" stroke="blue" stroke-width="2" />
<path d="M743,3299 L1327,239" stroke="blue" stroke-width="2" />
<path d="M136,1871 L22,4576" stroke="blue" stroke-width="2" />
<path d="M786,7229 L1316,476" stroke="blue" stroke-width="2" />
<path d="M1375,4362 L826,6629" stroke="blue" stroke-width="2" />
<path d="M1279,4587 L1290,6343" stroke="blue" stroke-width="2" />
<path d="M1002,4843 L1311,3009" stroke="blue" stroke-width="2" />
<path d="M140,6608 L556,3088" stroke="blue" stroke-width="2" />
<path d="M429,1765 L63,5090" stroke="blue" stroke-width="2" />
<path d="M663,2934 L154,3349" stroke="blue" stroke-width="2" />
<path d="M1397,1600 L678,3671" stroke="blue" stroke-width="2" />
<path d="M1381,369 L1418,917" stroke="blue" stroke-width="2" />
<path d="M426,1912 L119,3244" stroke="blue" stroke-width="2" />
<path d="M684,6712 L776,6329" stroke="blue" stroke-width="2" />
<path d="M406,4688 L362,4546" stroke="blue" stroke-width="2" />
<path d="M52,3510 L686,3488" stroke="blue" stroke-width="2" />
<path d="M864,5488 L141,4278" stroke="blue" stroke-width="2" />
<path d="M1082,3339 L1053,898" stroke="blue" stroke-width="2" />
<path d="M761,136 L48,2783" stroke="blue" stroke-width="2" />
<path d="M997,4848 L148,298" stroke="blue" stroke-width="2" />
<path d="M821,6162 L1233,5923" stroke="blue" stroke-width="2" />
<path d="M571,398 L1313,5059" stroke="blue" stroke-width="2" />
<path d="M619,5595 L523,4591" stroke="blue" stroke-width="2" />
<path d="M123,3983 L573,2212" stroke="blue" stroke-width="2" />
<path d="M576,3400 L838,5294" stroke="blue" stroke-width="2" />
<path d="M1013,4376 L852,39" stroke="blue" stroke-width="2" />
<path d="M606,2963 L31,6533" stroke="blue" stroke-width="2" />
<path d="M577,5394 L428,2074" stroke="blue" stroke-width="2" />
<path d="M1063,7136 L108,4903" stroke="blue" stroke-width="2" />
<path d="M416,5572 L504,3533" stroke="blue" stroke-width="2" />
<path d="M523,1721 L455,6783" stroke="blue" stroke-width="2" />
<path d="M1232,6161 L1380,4600" stroke="blue" stroke-width="2" />
<path d="M1170,4767 L979,2771" stroke="blue" stroke-width="2" />
<path d="M522,5085 L1141,347" stroke="blue" stroke-width="2" />
<path d="M402,1614 L250,3629" stroke="blue" stroke-width="2" />
<path d="M354,2922 L868,1579" stroke="blue" stroke-width="2" />
<path d="M445,532 L1249,3766" stroke="blue" stroke-width="2" />
<path d="M797,4919 L22,7234" stroke="blue" stroke-width="2" />
<path d="M933,6165 L1236,1565" stroke="blue" stroke-width="2" />
<path d="M313,1061 L770,1064" stroke="blue" stroke-width="2" />
<path d="M874,5671 L847,3605" stroke="blue" stroke-width="2" />
<path d="M931,805 L1174,6894" stroke="blue" stroke-width="2" />
<path d="M93,462 L184,3578" stroke="blue" stroke-width="2" />
<path d="M129,5780 L417,2211" stroke="blue" stroke-width="2" />
<path d="M1008,3226 L848,5670" stroke="blue" stroke-width="2" />
<path d="M162,2720 L16,3838" stroke="blue" stroke-width="2" />
<path d="M226,6597 L1063,7197" stroke="blue" stroke-width="2" />
<path d="M181,6478 L777,711" stroke="blue" stroke-width="2" />
<path d="M81,6461 L438,894" stroke="blue" stroke-width="2" />
<path d="M449,777 L61,4568" stroke="blue" stroke-width="2" />
<path d="M1073,947 L1219,3485" stroke="blue" stroke-width="2" />
<path d="M323,5636 L662,3085" stroke="blue" stroke-width="2" />
<path d="M866,6483 L1259,738" stroke="blue" stroke-width="2" />
<path d="M331,5178 L462,7022" stroke="blue" stroke-width="2" />
<path d="M599,2019 L992,5200" stroke="blue" stroke-width="2" />
<path d="M1207,921 L434,4373" stroke="blue" stroke-width="2" />
<path d="M665,1550 L824,4869" stroke="blue" stroke-width="2" />
<path d="M1293,6954 L839,6974" stroke="blue" stroke-width="2" />
<path d="M842,453 L807,292" stroke="blue" stroke-width="2" />
<path d="M304,2313 L332,3733" stroke="blue" stroke-width="2" />
<path d="M233,3655 L203,6669" stroke="blue" stroke-width="2" />
<path d="M209,3772 L789,654" stroke="blue" stroke-width="2" />
<path d="M673,3602 L1183,6543" stroke="blue" stroke-width="2" />
<path d="M888,5765 L211,3189" stroke="blue" stroke-width="2" />
<path d="M1139,3720 L910,3605" stroke="blue" stroke-width="2" />
<path d="M1009,475 L696,2284" stroke="blue" stroke-width="2" />
<path d="M659,1791 L597,2548" stroke="blue" stroke-width="2" />
<path d="M733,2949 L212,5332" stroke="blue" stroke-width="2" />
<path d="M641,2296 L505,3625" stroke="blue" stroke-width="2" />
<path d="M1290,3328 L16,5399" stroke="blue" stroke-width="2" />
<path d="M22,1622 L984,1902" stroke="blue" stroke-width="2" />
<path d="M1409,7233 L100,3073" stroke="blue" stroke-width="2" />
<path d="M361,4140 L163,3175" stroke="blue" stroke-width="2" />
<path d="M828,3296 L89,1187" stroke="blue" stroke-width="2" />
<path d="M72,1663 L733,1969" stroke="blue" stroke-width="2" />
<path d="M1071,620 L1230,5775" stroke="blue" stroke-width="2" />
<path d="M821,6534 L55,5319" stroke="blue" stroke-width="2" />
<path d="M1307,6357 L1430,2121" stroke="blue" stroke-width="2" />
<path d="M477,1730 L671,1481" stroke="blue" stroke-width="2" />
<path d="M373,5356 L201,347" stroke="blue" stroke-width="2" />
<path d="M177,7231 L486,822" stroke="blue" stroke-width="2" />
<path d="M890,985 L1168,1118" stroke="blue" stroke-width="2" />
<path d="M1299,3795 L1335,6245" stroke="blue" stroke-width="2" />
<path d="M861,1905 L1034,4394" stroke="blue" stroke-width="2" />
<path d="M577,2875 L1261,7186" stroke="blue" stroke-width="2" />
<path d="M1086,975 L925,2858" stroke="blue" stroke-width="2" />
<path d="M785,350 L597,3381" stroke="blue" stroke-width="2" />
<path d="M787,3676 L468,6161" stroke="blue" stroke-width="2" />
<path d="M456,4179 L1346,879" stroke="blue" stroke-width="2" />
<path d="M1316,1512 L77,2891" stroke="blue" stroke-width="2" />
<path d="M798,2140 L1050,5704" stroke="blue" stroke-width="2" />
<path d="M1106,6323 L553,6009" stroke="blue" stroke-width="2" />
<path d="M738,3557 L1343,2497" stroke="blue" stroke-width="2" />
<path d="M644,5141 L1023,4389" stroke="blue" stroke-width="2" />
<path d="M565,1650 L817,2998" stroke="blue" stroke-width="2" />
<path d="M932,4709 L85,4876" stroke="blue" stroke-width="2" />
<path d="M124,3579 L810,4973" stroke="blue" stroke-width="2" />
<path d="M185,7161 L629,5031" stroke="blue" stroke-width="2" />
<path d="M677,6643 L1414,4665" stroke="blue" stroke-width="2" />
<path d="M337,5765 L443,363" stroke="blue" stroke-width="2" />
<path d="M733,111 L1426,6791" stroke="blue" stroke-width="2" />
<path d="M845,6769 L84,840" stroke="blue" stroke-width="2" />
<path d="M1207,4015 L301,6212" stroke="blue" stroke-width="2" />
<path d="M496,4201 L1340,454" stroke="blue" stroke-width="2" />
<path d="M35,5707 L1167,3999" stroke="blue" stroke-width="2" />
<path d="M991,1283 L733,3106" stroke="blue" stroke-width="2" />
<path d="M143,2079 L936,79" stroke="blue" stroke-width="2" />
<path d="M263,1709 L83,1953" stroke="blue" stroke-width="2" />
<path d="M785,6533 L760,7137" stroke="blue" stroke-width="2" />
<path d="M295,942 L313,4515" stroke="blue" stroke-width="2" />
<path d="M233,903 L1299,1014" stroke="blue" stroke-width="2" />
<path d="M1402,5614 L267,1899" stroke="blue" stroke-width="2" />
<path d="M1253,6105 L885,485" stroke="blue" stroke-width="2" />
<path d="M500,1904 L184,2422" stroke="blue" stroke-width="2" />
<path d="M795,458 L811,2119" stroke="blue" stroke-width="2" />
<path d="M671,4277 L161,4495" stroke="blue" stroke-width="2" />
<path d="M758,5501 L875,3646" stroke="blue" stroke-width="2" />
<path d="M566,6686 L1218,4574" stroke="blue" stroke-width="2" />
<path d="M653,2228 L710,2429" stroke="blue" stroke-width="2" />
<path d="M592,454 L621,6657" stroke="blue" stroke-width="2" />
<path d="M175,799 L369,6464" stroke="blue" stroke-width="2" />
<path d="M661,337 L99,136" stroke="blue" stroke-width="2" />
<path d="M574,898 L525,5775" stroke="blue" stroke-width="2" />
<path d="M971,993 L356,4604" stroke="blue" stroke-width="2" />
<path d="M781,5543 L509,4200" stroke="blue" stroke-width="2" />
<path d="M941,4353 L237,7277" stroke="blue" stroke-width="2" />
<path d="M969,4746 L817,1211" stroke="blue" stroke-width="2" />
<path d="M55,7209 L1026,4092" stroke="blue" stroke-width="2" />
<path d="M1324,2393 L1107,3175" stroke="blue" stroke-width="2" />
<path d="M829,7366 L383,3150" stroke="blue" stroke-width="2" />
<path d="M902,6838 L1215,1319" stroke="blue" stroke-width="2" />
<path d="M1007,4605 L253,2692" stroke="blue" stroke-width="2" />
<path d="M646,674 L179,4267" stroke="blue" stroke-width="2" />
<path d="M978,5656 L975,3415" stroke="blue" stroke-width="2" />
<path d="M1056,7112 L1173,5103" stroke="blue" stroke-width="2" />
<path d="M395,6662 L981,5402" stroke="blue" stroke-width="2" />
<path d="M825,5994 L1132,6459" stroke="blue" stroke-width="2" />
<path d="M777,4325 L176,5888" stroke="blue" stroke-width="2" />
<path d="M1368,1322 L588,6289" stroke="blue" stroke-width="2" />
<path d="M1,1199 L1022,1651" stroke="blue" stroke-width="2" />
<path d="M1064,885 L1367,4797" stroke="blue" stroke-width="2" />
<path d="M249,761 L56,2137" stroke="blue" stroke-width="2" />
<path d="M107,3470 L648,3999" stroke="blue" stroke-width="2" />
<path d="M1248,6834 L255,3856" stroke="blue" stroke-width="2" />
<path d="M1152,3865 L840,1577" stroke="blue" stroke-width="2" />
<path d="M18,5505 L437,5734" stroke="blue" stroke-width="2" />
<path d="M460,1006 L462,4669" stroke="blue" stroke-width="2" />
<path d="M940,5287 L1360,3586" stroke="blue" stroke-width="2" />
<path d="M1099,3397 L1195,2966" stroke="blue" stroke-width="2" />
<path d="M424,6927 L737,6221" stroke="blue" stroke-width="2" />
<path d="M1215,4649 L1377,1153" stroke="blue" stroke-width="2" />
<path d="M801,3539 L153,5771" stroke="blue" stroke-width="2" />
<path d="M1255,5223 L520,3802" stroke="blue" stroke-width="2" />
<path d="M80,2666 L774,638" stroke="blue" stroke-width="2" />
<path d="M202,6725 L764,1452" stroke="blue" stroke-width="2" />
<path d="M227,4319 L111,6321" stroke="blue" stroke-width="2" />
<path d="M1369,7366 L289,7214" stroke="blue" stroke-width="2" />
<path d="M1115,1640 L1074,4269" stroke="blue" stroke-width="2" />
<path d="M597,3078 L971,1527" stroke="blue" stroke-width="2" />
<path d="M26,3546 L159,5822" stroke="blue" stroke-width="2" />
<path d="M417,2764 L628,7098" stroke="blue" stroke-width="2" />
<path d="M643,912 L876,7007" stroke="blue" stroke-width="2" />
<path d="M775,3519 L779,3322" stroke="blue" stroke-width="2" />
<path d="M946,1113 L373,3430" stroke="blue" stroke-width="2" />
<path d="M1140,4424 L188,6091" stroke="blue" stroke-width="2" />
<path d="M1081,6679 L681,143" stroke="blue" stroke-width="2" />
<path d="M948,301 L1186,5361" stroke="blue" stroke-width="2" />
<path d="M387,6933 L454,5734" stroke="blue" stroke-width="2" />
<path d="M1409,6203 L1412,4581" stroke="blue" stroke-width="2" />
<path d="M541,5272 L423,1161" stroke="blue" stroke-width="2" />
<path d="M1012,4435 L428,5805" stroke="blue" stroke-width="2" />
<path d="M237,209 L1291,1303" stroke="blue" stroke-width="2" />
<path d="M472,4824 L1063,539" stroke="blue" stroke-width="2" />
<path d="M771,1681 L1284,5386" stroke="blue" stroke-width="2" />
<path d="M919,5694 L220,6975" stroke="blue" stroke-width="2" />
<path d="M515,6435 L1418,3197" stroke="blue" stroke-width="2" />
<path d="M303,5909 L286,4116" stroke="blue" stroke-width="2" />
<path d="M1320,4841 L639,341" stroke="blue" stroke-width="2" />
<path d="M992,3238 L493,7302" stroke="blue" stroke-width="2" />
<path d="M77,2802 L8,3025" stroke="blue" stroke-width="2" />
<path d="M148,550 L880,6481" stroke="blue" stroke-width="2" />
<path d="M563,3934 L7,4617" stroke="blue" stroke-width="2" />
<path d="M467,2315 L103,4032" stroke="blue" stroke-width="2" />
<path d="M201,6905 L117,3476" stroke="blue" stroke-width="2" />
<path d="M564,929 L1195,3583" stroke="blue" stroke-width="2" />
<path d="M998,3216 L1148,3737" stroke="blue" stroke-width="2" />
<path d="M532,347 L1033,6928" stroke="blue" stroke-width="2" />
<path d="M1041,2839 L56,2472" stroke="blue" stroke-width="2" />
<path d="M1315,4981 L124,6443" stroke="blue" stroke-width="2" />
<path d="M747,2614 L901,4465" stroke="blue" stroke-width="2" />
<path d="M1222,7016 L601,5883" stroke="blue" stroke-width="2" />
<path d="M1138,4594 L1089,6902" stroke="blue" stroke-width="2" />
<path d="M675,4172 L278,6679" stroke="blue" stroke-width="2" />
<path d="M1289,3729 L705,6128" stroke="blue" stroke-width="2" />
<path d="M1154,6107 L958,1162" stroke="blue" stroke-width="2" />
<path d="M468,3784 L282,7049" stroke="blue" stroke-width="2" />
<path d="M1027,4395 L817,5799" stroke="blue" stroke-width="2" />
<path d="M231,6643 L1039,3977" stroke="blue" stroke-width="2" />
<path d="M872,6278 L54,5082" stroke="blue" stroke-width="2" />
<path d="M689,4117 L469,5899" stroke="blue" stroke-width="2" />
<path d="M671,2099 L224,1494" stroke="blue" stroke-width="2" />
<path d="M437,936 L939,3495" stroke="blue" stroke-width="2" />
<path d="M753,6346 L711,2506" stroke="blue" stroke-width="2" />
<path d="M330,1860 L588,5687" stroke="blue" stroke-width="2" />
<path d="M654,3157 L1344,2756" stroke="blue" stroke-width="2" />
<path d="M1306,3978 L732,5887" stroke="blue" stroke-width="2" />
<path d="M613,1690 L1291,5029" stroke="blue" stroke-width="2" />
<path d="M1408,7309 L1372,16" stroke="blue" stroke-width="2" />
<path d="M227,3114 L743,3253" stroke="blue" stroke-width="2" />
<path d="M620,5885 L646,5808" stroke="blue" stroke-width="2" />
<path d="M515,6913 L1343,2667" stroke="blue" stroke-width="2" />
<path d="M1084,2884 L1175,5645" stroke="blue" stroke-width="2" />
<path d="M377,6487 L175,1871" stroke="blue" stroke-width="2" />
<path d="M890,5833 L770,5034" stroke="blue" stroke-width="2" />
<path d="M617,6520 L260,4059" stroke="blue" stroke-width="2" />
<path d="M50,5613 L228,2413" stroke="blue" stroke-width="2" />
<path d="M1383,6747 L1068,3411" stroke="blue" stroke-width="2" />
<path d="M759,6650 L811,6242" stroke="blue" stroke-width="2" />
<path d="M290,2545 L293,1436" stroke="blue" stroke-width="2" />
<path d="M1324,6800 L1351,1150" stroke="blue" stroke-width="2" />
<path d="M165,3764 L779,5300" stroke="blue" stroke-width="2" />
<path d="M26,6963 L527,6339" stroke="blue" stroke-width="2" />
<path d="M110,4260 L1414,4260" stroke="blue" stroke-width="2" />
<path d="M771,4382 L355,889" stroke="blue" stroke-width="2" />
<path d="M1013,3578 L204,6349" stroke="blue" stroke-width="2" />
<path d="M532,5817 L1089,1864" stroke="blue" stroke-width="2" />
<path d="M403,3389 L251,2652" stroke="blue" stroke-width="2" />
<path d="M454,792 L200,4624" stroke="blue" stroke-width="2" />
<path d="M1195,4997 L821,1615" stroke="blue" stroke-width="2" />
<path d="M106,6819 L448,2742" stroke="blue" stroke-width="2" />
<path d="M370,2397 L538,5108" stroke="blue" stroke-width="2" />
<path d="M81,2705 L1279,1168" stroke="blue" stroke-width="2" />
<path d="M437,769 L911,7205" stroke="blue" stroke-width="2" />
<path d="M2,2703 L734,2016" stroke="blue" stroke-width="2" />
<path d="M754,1283 L309,1216" stroke="blue" stroke-width="2" />
<path d="M523,1430 L421,4931" stroke="blue" stroke-width="2" />
<path d="M556,3073 L241,1640" stroke="blue" stroke-width="2" />
<path d="M116,4685 L311,7083" stroke="blue" stroke-width="2" />
<path d="M1100,1282 L1412,2227" stroke="blue" stroke-width="2" />
<path d="M1019,1946 L182,6796" stroke="blue" stroke-width="2" />
<path d="M661,2846 L936,7258" stroke="blue" stroke-width="2" />
<path d="M515,4351 L969,1515" stroke="blue" stroke-width="2" />
<path d="M1350,2795 L897,6583" stroke="blue" stroke-width="2" />
<path d="M787,5453 L136,6497" stroke="blue" stroke-width="2" />
<path d="M1129,3341 L1042,927" stroke="blue" stroke-width="2" />
<path d="M521,1717 L635,597" stroke="blue" stroke-width="2" />
<path d="M1284,5364 L515,7131" stroke="blue" stroke-width="2" />
<path d="M66,4119 L1131,2186" stroke="blue" stroke-width="2" />
<path d="M21,411 L1173,6842" stroke="blue" stroke-width="2" />
<path d="M150,6120 L352,2350" stroke="blue" stroke-width="2" />
<path d="M1007,2475 L900,3100" stroke="blue" stroke-width="2" />
<path d="M364,4896 L435,7317" stroke="blue" stroke-width="2" />
<path d="M1009,1798 L443,1155" stroke="blue" stroke-width="2" />
<path d="M710,943 L1260,6502" stroke="blue" stroke-width="2" />
<path d="M211,6888 L912,5017" stroke="blue" stroke-width="2" />
<path d="M809,452 L1425,6306" stroke="blue" stroke-width="2" />
<path d="M734,3122 L883,5032" stroke="blue" stroke-width="2" />
<path d="M28,4500 L178,3094" stroke="blue" stroke-width="2" />
<path d="M930,2966 L1428,6372" stroke="blue" stroke-width="2" />
<path d="M449,5434 L446,5747" stroke="blue" stroke-width="2" />
<path d="M1375,6672 L1025,5456" stroke="blue" stroke-width="2" />
<path d="M1337,1151 L1024,3237" stroke="blue" stroke-width="2" />
<path d="M1100,351 L466,5014" stroke="blue" stroke-width="2" />
<path d="M518,2982 L105,4613" stroke="blue" stroke-width="2" />
<path d="M516,7033 L235,1980" stroke="blue" stroke-width="2" />
<path d="M603,6022 L10,10" stroke="blue" stroke-width="2" />
<path d="M468,2255 L995,3644" stroke="blue" stroke-width="2" />
<path d="M72,4387 L1377,580" stroke="blue" stroke-width="2" />
<path d="M1133,1765 L1140,1064" stroke="blue" stroke-width="2" />
<path d="M658,6995 L683,1502" stroke="blue" stroke-width="2" />
<path d="M318,5547 L384,1084" stroke="blue" stroke-width="2" />
<path d="M624,2281 L259,6623" stroke="blue" stroke-width="2" />
<path d="M876,1205 L815,6783" stroke="blue" stroke-width="2" />
<path d="M1029,5312 L307,6915" stroke="blue" stroke-width="2" />
<path d="M674,802 L198,7029" stroke="blue" stroke-width="2" />
<path d="M320,6040 L561,2480" stroke="blue" stroke-width="2" />
<path d="M996,2443 L223,5561" stroke="blue" stroke-width="2" />
<path d="M541,4666 L1033,3944" stroke="blue" stroke-width="2" />
<path d="M1273,1364 L1029,4152" stroke="blue" stroke-width="2" />
<path d="M467,6583 L648,1176" stroke="blue" stroke-width="2" />
<path d="M697,3809 L1111,5585" stroke="blue" stroke-width="2" />
<path d="M884,6209 L1055,770" stroke="blue" stroke-width="2" />
<path d="M160,662 L749,6713" stroke="blue" stroke-width="2" />
<path d="M1342,3595 L968,373" stroke="blue" stroke-width="2" />
<path d="M0,0 L1435,0" stroke="red" stroke-width="10" />
<path d="M1435,0 L1435,7372" stroke="red" stroke-width="10" />
<path d="M0,7372 L1435,7372" stroke="red" stroke-width="10" />
<path d="M0,7372 L0,0" stroke="red" stroke-width="10" />
</svg>