<?xml version="1.0" encoding="UTF-8"?>
<svg xmlns="http://www.w3.org/2000/svg" xmlns:xlink="http://www.w3.org/1999/xlink"
     width="10000" height="10000" viewBox="0 0 10000 10000">
<defs>
</defs>
<path d="M4274,913 L5170,574" stroke="blue" stroke-width="2" />
<path d="M2334,788 L510,1206" stroke="blue" stroke-width="2" />
<path d="M1055,883 L6,1219" stroke="blue" stroke-width="2" />
<path d="M1155,861 L3991,612" stroke="blue" stroke-width="2" />
<path d="M2476,258 L1816,612" stroke="blue" stroke-width="2" />
<path d="M2324,415 L2967,174" stroke="blue" stroke-width="2" />
<path d="M361,297 L1681,1198" stroke="blue" stroke-width="2" />
<path d="M5510,1301 L3160,1220" stroke="blue" stroke-width="2" />
<path d="M4016,135 L1130,973" stroke="blue" stroke-width="2" />
<path d="M965,783 L3429,1030" stroke="blue" stroke-width="2" />
<path d="M5208,1318 L5723,973" stroke="blue" stroke-width="2" />
<path d="M5101,762 L5882,725" stroke="blue" stroke-width="2" />
<path d="M1925,1309 L1164,1449" stroke="blue" stroke-width="2" />
<path d="M5072,504 L891,341" stroke="blue" stroke-width="2" />
<path d="M2043,258 L351,1152" stroke="blue" stroke-width="2" />
<path d="M4047,1411 L5904,573" stroke="blue" stroke-width="2" />
<path d="M3118,883 L3300,1133" stroke="blue" stroke-width="2" />
<path d="M2569,542 L2510,558" stroke="blue" stroke-width="2" />
<path d="M4538,90 L1597,1462" stroke="blue" stroke-width="2" />
<path d="M874,1304 L498,1531" stroke="blue" stroke-width="2" />
<path d="M865,739 L3155,110" stroke="blue" stroke-width="2" />
<path d="M2507,225 L2723,939" stroke="blue" stroke-width="2" />
<path d="M3385,1344 L1146,1211" stroke="blue" stroke-width="2" />
<path d="M2307,633 L3688,920" stroke="blue" stroke-width="2" />
<path d="M3502,464 L2858,7" stroke="blue" stroke-width="2" />
<path d="M5069,1454 L1629,1224" stroke="blue" stroke-width="2" />
<path d="M708,329 L3278,487" stroke="blue" stroke-width="2" />
<path d="M3814,798 L5468,508" stroke="blue" stroke-width="2" />
<path d="M4983,879 L4674,1380" stroke="blue" stroke-width="2" />
<path d="M2444,1140 L1802,1212" stroke="blue" stroke-width="2" />
<path d="M811,924 L1528,4" stroke="blue" stroke-width="2" />
<path d="M5763,1074 L187,868" stroke="blue" stroke-width="2" />
<path d="M5266,680 L238,340" stroke="blue" stroke-width="2" />
<path d="M2852,567 L692,131" stroke="blue" stroke-width="2" />
<path d="M3467,42 L49,991" stroke="blue" stroke-width="2" />
<path d="M413,353 L5763,526" stroke="blue" stroke-width="2" />
<path d="M1771,1425 L3646,416" stroke="blue" stroke-width="2" />
<path d="M2970,7 L2656,222" stroke="blue" stroke-width="2" />
<path d="M5823,104 L1087,1095" stroke="blue" stroke-width="2" />
<path d="M3041,1347 L5629,448" stroke="blue" stroke-width="2" />
<path d="M2643,753 L618,1214" stroke="blue" stroke-width="2" />
<path d="M2157,5 L3937,1527" stroke="blue" stroke-width="2" />
<path d="M1868,481 L1986,588" stroke="blue" stroke-width="2" />
<path d="M4736,1291 L5989,1486" stroke="blue" stroke-width="2" />
<path d="M2874,903 L5258,479" stroke="blue" stroke-width="2" />
<path d="M1074,604 L115,42" stroke="blue" stroke-width="2" />
<path d="M4558,825 L2429,1390" stroke="blue" stroke-width="2" />
<path d="M3165,261 L4534,840" stroke="blue" stroke-width="2" />
<path d="M2858,48 L3946,1189" stroke="blue" stroke-width="2" />
<path d="M3734,552 L5610,1427" stroke="blue" stroke-width="2" />
<path d="M1742,1280 L1105,693" stroke="blue" stroke-width="2" />
<path d="M1032,298 L4815,912" stroke="blue" stroke-width="2" />
<path d="M4170,795 L5403,1222" stroke="blue" stroke-width="2" />
<path d="M5075,1006 L4092,938" stroke="blue" stroke-width="2" />
<path d="M3946,466 L5089,435" stroke="blue" stroke-width="2" />
<path d="M6004,732 L2015,828" stroke="blue" stroke-width="2" />
<path d="M5692,1214 L4445,247" stroke="blue" stroke-width="2" />
<path d="M5704,1107 L1043,883" stroke="blue" stroke-width="2" />
<path d="M5575,644 L1555,202" stroke="blue" stroke-width="2" />
<path d="M4937,1196 L3244,340" stroke="blue" stroke-width="2" />
<path d="M2081,1046 L4966,737" stroke="blue" stroke-width="2" />
<path d="M254,400 L2639,1319" stroke="blue" stroke-width="2" />
<path d="M2409,1545 L1999,916" stroke="blue" stroke-width="2" />
<path d="M1839,787 L5204,1291" stroke="blue" stroke-width="2" />
<path d="M3640,861 L5854,608" stroke="blue" stroke-width="2" />
<path d="M1577,98 L5627,355" stroke="blue" stroke-width="2" />
<path d="M2607,1549 L1441,1411" stroke="blue" stroke-width="2" />
<path d="M5561,198 L1953,1467" stroke="blue" stroke-width="2" />
<path d="M4015,386 L2307,1275" stroke="blue" stroke-width="2" />
<path d="M4453,20 L3210,512" stroke="blue" stroke-width="2" />
<path d="M5357,666 L4445,643" stroke="blue" stroke-width="2" />
<path d="M5169,1140 L936,1217" stroke="blue" stroke-width="2" />
<path d="M907,726 L4216,702" stroke="blue" stroke-width="2" />
<path d="M2756,1455 L2628,1440" stroke="blue" stroke-width="2" />
<path d="M669,1292 L4795,878" stroke="blue" stroke-width="2" />
<path d="M539,1366 L4346,1231" stroke="blue" stroke-width="2" />
<path d="M5279,579 L5188,552" stroke="blue" stroke-width="2" />
<path d="M1003,796 L487,1412" stroke="blue" stroke-width="2" />
<path d="M1621,513 L1927,1472" stroke="blue" stroke-width="2" />
<path d="M2130,1244 L2134,117" stroke="blue" stroke-width="2" />
<path d="M4331,1411 L2325,354" stroke="blue" stroke-width="2" />
<path d="M483,442 L5388,550" stroke="blue" stroke-width="2" />
<path d="M954,555 L794,606" stroke="blue" stroke-width="2" />
<path d="M1638,1254 L3180,307" stroke="blue" stroke-width="2" />
<path d="M1260,983 L2740,926" stroke="blue" stroke-width="2" />
<path d="M5204,1263 L4979,934" stroke="blue" stroke-width="2" />
<path d="M2001,722 L5610,19" stroke="blue" stroke-width="2" />
<path d="M2522,639 L2594,226" stroke="blue" stroke-width="2" />
<path d="M375,829 L864,1097" stroke="blue" stroke-width="2" />
<path d="M5729,1334 L382,1473" stroke="blue" stroke-width="2" />
<path d="M4732,1371 L1401,1278" stroke="blue" stroke-width="2" />
<path d="M2283,896 L4914,1006" stroke="blue" stroke-width="2" />
<path d="M1447,1518 L1475,1368" stroke="blue" stroke-width="2" />
<path d="M4793,6 L1396,1249" stroke="blue" stroke-width="2" />
<path d="M5934,1059 L1241,744" stroke="blue" stroke-width="2" />
<path d="M3835,789 L4679,122" stroke="blue" stroke-width="2" />
<path d="M3221,1443 L5865,1537" stroke="blue" stroke-width="2" />
<path d="M3633,1041 L3932,25" stroke="blue" stroke-width="2" />
<path d="M5228,1420 L1195,1498" stroke="blue" stroke-width="2" />
<path d="M296,1514 L780,99" stroke="blue" stroke-width="2" />
<path d="M1708,995 L3668,907" stroke="blue" stroke-width="2" />
<path d="M1755,771 L3218,1062" stroke="blue" stroke-width="2" />
<path d="M3521,1527 L4531,319" stroke="blue" stroke-width="2" />
<path d="M2201,457 L4764,497" stroke="blue" stroke-width="2" />
<path d="M4324,1384 L4604,849" stroke="blue" stroke-width="2" />
<path d="M5994,100 L1660,1057" stroke="blue" stroke-width="2" />
<path d="M4897,1274 L3097,567" stroke="blue" stroke-width="2" />
<path d="M5074,1097 L5339,1412" stroke="blue" stroke-width="2" />
<path d="M2541,83 L1569,309" stroke="blue" stroke-width="2" />
<path d="M3279,536 L5263,705" stroke="blue" stroke-width="2" />
<path d="M5988,775 L1983,470" stroke="blue" stroke-width="2" />
<path d="M5634,394 L4458,1363" stroke="blue" stroke-width="2" />
<path d="M4838,235 L2866,275" stroke="blue" stroke-width="2" />
<path d="M3200,1065 L2871,244" stroke="blue" stroke-width="2" />
<path d="M4028,1434 L4562,1380" stroke="blue" stroke-width="2" />
<path d="M468,1356 L2535,430" stroke="blue" stroke-width="2" />
<path d="M1317,206 L3079,847" stroke="blue" stroke-width="2" />
<path d="M1157,665 L2691,1035" stroke="blue" stroke-width="2" />
<path d="M5678,84 L3947,836" stroke="blue" stroke-width="2" />
<path d="M4170,6 L616,1147" stroke="blue" stroke-width="2" />
<path d="M1535,864 L2581,1078" stroke="blue" stroke-width="2" />
<path d="M995,735 L4743,49" stroke="blue" stroke-width="2" />
<path d="M2958,289 L2415,1117" stroke="blue" stroke-width="2" />
<path d="M2866,631 L3471,960" stroke="blue" stroke-width="2" />
<path d="M1577,568 L480,150" stroke="blue" stroke-width="2" />
<path d="M5191,419 L2143,1071" stroke="blue" stroke-width="2" />
<path d="M2487,535 L5511,907" stroke="blue" stroke-width="2" />
<path d="M235,966 L4573,1089" stroke="blue" stroke-width="2" />
<path d="M4533,1384 L5999,1295" stroke="blue" stroke-width="2" />
<path d="M627,1055 L1135,881" stroke="blue" stroke-width="2" />
<path d="M5494,66 L2791,564" stroke="blue" stroke-width="2" />
<path d="M1593,289 L2738,505" stroke="blue" stroke-width="2" />
<path d="M4568,33 L1617,946" stroke="blue" stroke-width="2" />
<path d="M3313,1436 L3560,527" stroke="blue" stroke-width="2" />
<path d="M5837,1520 L1201,48" stroke="blue" stroke-width="2" />
<path d="M3521,650 L1027,435" stroke="blue" stroke-width="2" />
<path d="M5607,496 L5021,918" stroke="blue" stroke-width="2" />
<path d="M4426,1206 L2478,1361" stroke="blue" stroke-width="2" />
<path d="M1327,1541 L4143,68" stroke="blue" stroke-width="2" />
<path d="M476,1351 L1222,1162" stroke="blue" stroke-width="2" />
<path d="M1609,226 L930,1300" stroke="blue" stroke-width="2" />
<path d="M4814,196 L1959,843" stroke="blue" stroke-width="2" />
<path d="M4146,1214 L1316,536" stroke="blue" stroke-width="2" />
<path d="M529,1260 L3341,1209" stroke="blue" stroke-width="2" />
<path d="M5006,310 L2750,1333" stroke="blue" stroke-width="2" />
<path d="M5241,1052 L886,101" stroke="blue" stroke-width="2" />
<path d="M4483,522 L1774,1355" stroke="blue" stroke-width="2" />
<path d="M3456,711 L4315,887" stroke="blue" stroke-width="2" />
<path d="M1131,1040 L5516,1339" stroke="blue" stroke-width="2" />
<path d="M4196,565 L966,1070" stroke="blue" stroke-width="2" />
<path d="M1530,1238 L1675,626" stroke="blue" stroke-width="2" />
<path d="M2486,573 L5746,337" stroke="blue" stroke-width="2" />
<path d="M5717,776 L5056,274" stroke="blue" stroke-width="2" />
<path d="M1014,553 L4689,1008" stroke="blue" stroke-width="2" />
<path d="M294,1221 L980,135" stroke="blue" stroke-width="2" />
<path d="M2201,284 L1101,319" stroke="blue" stroke-width="2" />
<path d="M4225,70 L5209,355" stroke="blue" stroke-width="2" />
<path d="M2036,1293 L1962,259" stroke="blue" stroke-width="2" />
<path d="M1624,777 L3627,239" stroke="blue" stroke-width="2" />
<path d="M3828,410 L915,1011" stroke="blue" stroke-width="2" />
<path d="M1990,618 L3189,164" stroke="blue" stroke-width="2" />
<path d="M3577,905 L3996,1529" stroke="blue" stroke-width="2" />
<path d="M1014,796 L1425,637" stroke="blue" stroke-width="2" />
<path d="M2842,1430 L5193,377" stroke="blue" stroke-width="2" />
<path d="M3973,852 L2686,849" stroke="blue" stroke-width="2" />
<path d="M3482,980 L5369,1548" stroke="blue" stroke-width="2" />
<path d="M3271,799 L4835,873" stroke="blue" stroke-width="2" />
<path d="M1384,699 L467,172" stroke="blue" stroke-width="2" />
<path d="M2035,103 L3598,294" stroke="blue" stroke-width="2" />
<path d="M5140,1202 L1411,826" stroke="blue" stroke-width="2" />
<path d="M5534,133 L3948,1407" stroke="blue" stroke-width="2" />
<path d="M1864,776 L1251,332" stroke="blue" stroke-width="2" />
<path d="M2406,933 L3778,1405" stroke="blue" stroke-width="2" />
<path d="M2331,1389 L1652,1066" stroke="blue" stroke-width="2" />
<path d="M3398,1133 L5358,964" stroke="blue" stroke-width="2" />
<path d="M1742,352 L5219,541" stroke="blue" stroke-width="2" />
<path d="M1842,1249 L4773,373" stroke="blue" stroke-width="2" />
<path d="M4133,586 L2066,1392" stroke="blue" stroke-width="2" />
<path d="M5464,1482 L4483,1184" stroke="blue" stroke-width="2" />
<path d="M2089,275 L5704,1286" stroke="blue" stroke-width="2" />
<path d="M3852,778 L3096,1136" stroke="blue" stroke-width="2" />
<path d="M2146,918 L5738,401" stroke="blue" stroke-width="2" />
<path d="M5621,237 L3974,370" stroke="blue" stroke-width="2" />
<path d="M5933,461 L3795,719" stroke="blue" stroke-width="2" />
<path d="M2042,792 L433,978" stroke="blue" stroke-width="2" />
<path d="M2288,1429 L1188,918" stroke="blue" stroke-width="2" />
<path d="M5405,103 L2071,1103" stroke="blue" stroke-width="2" />
<path d="M174,578 L401,1149" stroke="blue" stroke-width="2" />
<path d="M4855,1175 L1540,418" stroke="blue" stroke-width="2" />
<path d="M369,1297 L3041,625" stroke="blue" stroke-width="2" />
<path d="M398,1060 L3159,1097" stroke="blue" stroke-width="2" />
<path d="M687,1325 L2217,316" stroke="blue" stroke-width="2" />
<path d="M5516,358 L4590,575" stroke="blue" stroke-width="2" />
<path d="M1702,839 L343,1115" stroke="blue" stroke-width="2" />
<path d="M3567,587 L4895,443" stroke="blue" stroke-width="2" />
<path d="M1814,1449 L4350,1499" stroke="blue" stroke-width="2" />
<path d="M2197,173 L4269,273" stroke="blue" stroke-width="2" />
<path d="M1989,326 L2887,1060" stroke="blue" stroke-width="2" />
<path d="M3375,100 L2850,1350" stroke="blue" stroke-width="2" />
<path d="M5062,1059 L3557,1029" stroke="blue" stroke-width="2" />
<path d="M2372,999 L2007,356" stroke="blue" stroke-width="2" />
<path d="M3225,1466 L3454,283" stroke="blue" stroke-width="2" />
<path d="M405,95 L2973,1358" stroke="blue" stroke-width="2" />
<path d="M651,474 L3287,461" stroke="blue" stroke-width="2" />
<path d="M3742,245 L3508,349" stroke="blue" stroke-width="2" />
<path d="M534,1098 L2563,864" stroke="blue" stroke-width="2" />
<path d="M5515,758 L1386,527" stroke="blue" stroke-width="2" />
<path d="M4861,1142 L1109,291" stroke="blue" stroke-width="2" />
<path d="M3863,839 L3445,205" stroke="blue" stroke-width="2" />
<path d="M4627,300 L4162,1457" stroke="blue" stroke-width="2" />
<path d="M1774,719 L668,682" stroke="blue" stroke-width="2" />
<path d="M1002,74 L3441,1439" stroke="blue" stroke-width="2" />
<path d="M725,602 L5129,1212" stroke="blue" stroke-width="2" />
<path d="M4783,1089 L5489,538" stroke="blue" stroke-width="2" />
<path d="M5139,691 L3680,1274" stroke="blue" stroke-width="2" />
<path d="M167,892 L569,560" stroke="blue" stroke-width="2" />
<path d="M3372,228 L354,193" stroke="blue" stroke-width="2" />
<path d="M911,545 L4105,600" stroke="blue" stroke-width="2" />
<path d="M1665,1058 L3025,791" stroke="blue" stroke-width="2" />
<path d="M4724,776 L339,408" stroke="blue" stroke-width="2" />
<path d="M3443,674 L3231,975" stroke="blue" stroke-width="2" />
<path d="M1071,886 L3369,0" stroke="blue" stroke-width="2" />
<path d="M5000,0 L961,321" stroke="blue" stroke-width="2" />
<path d="M5727,399 L5345,580" stroke="blue" stroke-width="2" />
<path d="M386,1416 L1149,695" stroke="blue" stroke-width="2" />
<path d="M505,1431 L1298,1212" stroke="blue" stroke-width="2" />
<path d="M1701,724 L5870,128" stroke="blue" stroke-width="2" />
<path d="M3578,123 L4931,875" stroke="blue" stroke-width="2" />
<path d="M85,1290 L1457,889" stroke="blue" stroke-width="2" />
<path d="M3587,254 L3079,231" stroke="blue" stroke-width="2" />
<path d="M1593,603 L5768,225" stroke="blue" stroke-width="2" />
<path d="M4613,809 L2873,448" stroke="blue" stroke-width="2" />
<path d="M5732,1293 L4687,26" stroke="blue" stroke-width="2" />
<path d="M5267,1108 L994,428" stroke="blue" stroke-width="2" />
<path d="M1675,1359 L3486,760" stroke="blue" stroke-width="2" />
<path d="M3494,1412 L3619,562" stroke="blue" stroke-width="2" />
<path d="M2995,702 L4851,182" stroke="blue" stroke-width="2" />
<path d="M3006,1275 L3198,795" stroke="blue" stroke-width="2" />
<path d="M1976,1400 L3719,480" stroke="blue" stroke-width="2" />
<path d="M2952,1343 L5172,79" stroke="blue" stroke-width="2" />
<path d="M4584,1519 L3109,271" stroke="blue" stroke-width="2" />
<path d="M52,923 L1073,453" stroke="blue" stroke-width="2" />
<path d="M5276,921 L1743,610" stroke="blue" stroke-width="2" />
<path d="M3747,63 L5004,149" stroke="blue" stroke-width="2" />
<path d="M195,1391 L1442,831" stroke="blue" stroke-width="2" />
<path d="M5309,1034 L2593,1292" stroke="blue" stroke-width="2" />
<path d="M5469,1528 L5432,947" stroke="blue" stroke-width="2" />
<path d="M2681,860 L5023,1231" stroke="blue" stroke-width="2" />
<path d="M1949,1451 L2870,573" stroke="blue" stroke-width="2" />
<path d="M4845,602 L1427,1447" stroke="blue" stroke-width="2" />
<path d="M351,1519 L792,1071" stroke="blue" stroke-width="2" />
<path d="M2485,787 L3974,922" stroke="blue" stroke-width="2" />
<path d="M3469,1011 L5651,830" stroke="blue" stroke-width="2" />
<path d="M2912,290 L1169,1543" stroke="blue" stroke-width="2" />
<path d="M1293,1499 L4643,714" stroke="blue" stroke-width="2" />
<path d="M2106,425 L3738,1019" stroke="blue" stroke-width="2" />
<path d="M5923,588 L4198,989" stroke="blue" stroke-width="2" />
<path d="M3857,1259 L5627,147" stroke="blue" stroke-width="2" />
<path d="M4865,979 L829,731" stroke="blue" stroke-width="2" />
<path d="M1065,486 L2221,922" stroke="blue" stroke-width="2" />
<path d="M3332,708 L947,1097" stroke="blue" stroke-width="2" />
<path d="M547,426 L2729,1266" stroke="blue" stroke-width="2" />
<path d="M343,974 L5796,1480" stroke="blue" stroke-width="2" />
<path d="M2680,1465 L2359,1303" stroke="blue" stroke-width="2" />
<path d="M2162,21 L769,416" stroke="blue" stroke-width="2" />
<path d="M1345,1102 L1311,1349" stroke="blue" stroke-width="2" />
<path d="M1789,1154 L2093,1310" stroke="blue" stroke-width="2" />
<path d="M90,191 L3652,1033" stroke="blue" stroke-width="2" />
<path d="M4862,97 L1914,268" stroke="blue" stroke-width="2" />
<path d="M1342,494 L1571,1134" stroke="blue" stroke-width="2" />
<path d="M3720,291 L3765,1344" stroke="blue" stroke-width="2" />
<path d="M4714,484 L2439,55" stroke="blue" stroke-width="2" />
<path d="M971,1164 L5397,289" stroke="blue" stroke-width="2" />
<path d="M228,489 L3191,987" stroke="blue" stroke-width="2" />
<path d="M5134,984 L1212,1139" stroke="blue" stroke-width="2" />
<path d="M1284,99 L3520,936" stroke="blue" stroke-width="2" />
<path d="M2856,1522 L3815,86" stroke="blue" stroke-width="2" />
<path d="M477,786 L4367,1416" stroke="blue" stroke-width="2" />
<path d="M4693,151 L3215,622" stroke="blue" stroke-width="2" />
<path d="M3740,372 L3228,1272" stroke="blue" stroke-width="2" />
<path d="M5465,1505 L2135,1456" stroke="blue" stroke-width="2" />
<path d="M1680,1507 L831,1242" stroke="blue" stroke-width="2" />
<path d="M4109,755 L798,688" stroke="blue" stroke-width="2" />
<path d="M383,686 L5033,38" stroke="blue" stroke-width="2" />
<path d="M3053,1322 L1463,114" stroke="blue" stroke-width="2" />
<path d="M4719,1119 L2941,309" stroke="blue" stroke-width="2" />
<path d="M193,1021 L5234,676" stroke="blue" stroke-width="2" />
<path d="M5369,1042 L4802,1422" stroke="blue" stroke-width="2" />
<path d="M2727,688 L1638,1423" stroke="blue" stroke-width="2" />
<path d="M4826,726 L5610,1212" stroke="blue" stroke-width="2" />
<path d="M94,659 L5574,852" stroke="blue" stroke-width="2" />
<path d="M495,232 L1177,332" stroke="blue" stroke-width="2" />
<path d="M4245,1198 L3332,1395" stroke="blue" stroke-width="2" />
<path d="M3871,1150 L3577,233" stroke="blue" stroke-width="2" />
<path d="M3924,915 L2713,1243" stroke="blue" stroke-width="2" />
<path d="M2255,1041 L628,735" stroke="blue" stroke-width="2" />
<path d="M5761,1433 L5128,718" stroke="blue" stroke-width="2" />
<path d="M3415,172 L4863,1292" stroke="blue" stroke-width="2" />
<path d="M713,751 L3888,735" stroke="blue" stroke-width="2" />
<path d="M4677,1394 L1002,747" stroke="blue" stroke-width="2" />
<path d="M5241,98 L4961,1228" stroke="blue" stroke-width="2" />
<path d="M5411,619 L5057,1147" stroke="blue" stroke-width="2" />
<path d="M2643,225 L5901,85" stroke="blue" stroke-width="2" />
<path d="M3418,1015 L1584,89" stroke="blue" stroke-width="2" />
<path d="M3613,1318 L5549,177" stroke="blue" stroke-width="2" />
<path d="M5282,1110 L3298,243" stroke="blue" stroke-width="2" />
<path d="M2435,186 L4651,297" stroke="blue" stroke-width="2" />
<path d="M2079,324 L375,1072" stroke="blue" stroke-width="2" />
<path d="M2744,1161 L2179,1354" stroke="blue" stroke-width="2" />
<path d="M2169,1111 L2963,1253" stroke="blue" stroke-width="2" />
<path d="M666,1149 L5815,1311" stroke="blue" stroke-width="2" />
<path d="M5021,1264 L3143,252" stroke="blue" stroke-width="2" />
<path d="M4266,1140 L2815,1005" stroke="blue" stroke-width="2" />
<path d="M4696,848 L1785,260" stroke="blue" stroke-width="2" />
<path d="M3664,434 L5926,143" stroke="blue" stroke-width="2" />
<path d="M928,1006 L4609,1505" stroke="blue" stroke-width="2" />
<path d="M1584,580 L5762,1294" stroke="blue" stroke-width="2" />
<path d="M2245,322 L1445,705" stroke="blue" stroke-width="2" />
<path d="M1169,1406 L1400,323" stroke="blue" stroke-width="2" />
<path d="M4309,1532 L4253,1272" stroke="blue" stroke-width="2" />
<path d="M2801,1070 L4215,1504" stroke="blue" stroke-width="2" />
<path d="M556,1064 L1629,829" stroke="blue" stroke-width="2" />
<path d="M5907,383 L5089,1546" stroke="blue" stroke-width="2" />
<path d="M5557,303 L4971,1038" stroke="blue" stroke-width="2" />
<path d="M4650,226 L649,835" stroke="blue" stroke-width="2" />
<path d="M1647,115 L3164,98" stroke="blue" stroke-width="2" />
<path d="M1847,1391 L517,1090" stroke="blue" stroke-width="2" />
<path d="M4345,1276 L2704,846" stroke="blue" stroke-width="2" />
<path d="M2251,43 L1647,401" stroke="blue" stroke-width="2" />
<path d="M303,885 L4748,993" stroke="blue" stroke-width="2" />
<path d="M3505,1469 L150,1210" stroke="blue" stroke-width="2" />
<path d="M1563,781 L1662,1173" stroke="blue" stroke-width="2" />
<path d="M3364,1125 L5109,87" stroke="blue" stroke-width="2" />
<path d="M4999,320 L2015,832" stroke="blue" stroke-width="2" />
<path d="M2633,453 L1804,455" stroke="blue" stroke-width="2" />
<path d="M1659,825 L2747,1169" stroke="blue" stroke-width="2" />
<path d="M2810,549 L2065,840" stroke="blue" stroke-width="2" />
<path d="M3559,1314 L5747,1366" stroke="blue" stroke-width="2" />
<path d="M5906,798 L121,519" stroke="blue" stroke-width="2" />
<path d="M4294,359 L2698,810" stroke="blue" stroke-width="2" />
<path d="M5236,1291 L3185,718" stroke="blue" stroke-width="2" />
<path d="M4297,444 L3893,1210" stroke="blue" stroke-width="2" />
<path d="M262,492 L2564,15" stroke="blue" stroke-width="2" />
<path d="M4922,1255 L13,1243" stroke="blue" stroke-width="2" />
<path d="M4022,1275 L4936,508" stroke="blue" stroke-width="2" />
<path d="M263,1300 L3850,629" stroke="blue" stroke-width="2" />
<path d="M438,1353 L3987,550" stroke="blue" stroke-width="2" />
<path d="M1981,862 L2260,255" stroke="blue" stroke-width="2" />
<path d="M2027,1262 L3215,736" stroke="blue" stroke-width="2" />
<path d="M5982,975 L696,107" stroke="blue" stroke-width="2" />
<path d="M549,1198 L4309,1410" stroke="blue" stroke-width="2" />
<path d="M6002,1253 L5505,1539" stroke="blue" stroke-width="2" />
<path d="M3131,616 L4728,1413" stroke="blue" stroke-width="2" />
<path d="M1624,1037 L5324,1311" stroke="blue" stroke-width="2" />
<path d="M4807,293 L4701,834" stroke="blue" stroke-width="2" />
<path d="M5360,647 L75,638" stroke="blue" stroke-width="2" />
<path d="M88,156 L2668,981" stroke="blue" stroke-width="2" />
<path d="M1914,1201 L3,1451" stroke="blue" stroke-width="2" />
<path d="M2371,443 L5740,1515" stroke="blue" stroke-width="2" />
<path d="M3976,196 L1916,147" stroke="blue" stroke-width="2" />
<path d="M5164,647 L4172,1293" stroke="blue" stroke-width="2" />
<path d="M4954,977 L5813,1351" stroke="blue" stroke-width="2" />
<path d="M4418,988 L486,1210" stroke="blue" stroke-width="2" />
<path d="M5939,917 L1787,1526" stroke="blue" stroke-width="2" />
<path d="M655,901 L5837,720" stroke="blue" stroke-width="2" />
<path d="M1040,934 L40,634" stroke="blue" stroke-width="2" />
<path d="M5712,216 L3697,585" stroke="blue" stroke-width="2" />
<path d="M3779,980 L4827,1086" stroke="blue" stroke-width="2" />
<path d="M4650,156 L3577,514" stroke="blue" stroke-width="2" />
<path d="M4060,1310 L5002,622" stroke="blue" stroke-width="2" />
<path d="M5706,346 L3009,957" stroke="blue" stroke-width="2" />
<path d="M1363,999 L2034,455" stroke="blue" stroke-width="2" />
<path d="M883,1335 L2323,365" stroke="blue" stroke-width="2" />
<path d="M5874,329 L5754,1323" stroke="blue" stroke-width="2" />
<path d="M814,1317 L3196,1008" stroke="blue" stroke-width="2" />
<path d="M653,1159 L1948,786" stroke="blue" stroke-width="2" />
<path d="M3007,1263 L4870,65" stroke="blue" stroke-width="2" />
<path d="M2085,410 L2753,1529" stroke="blue" stroke-width="2" />
<path d="M325,267 L332,1475" stroke="blue" stroke-width="2" />
<path d="M5019,1490 L1474,1054" stroke="blue" stroke-width="2" />
<path d="M5844,850 L2825,151" stroke="blue" stroke-width="2" />
<path d="M4783,293 L3831,1289" stroke="blue" stroke-width="2" />
<path d="M3990,373 L3904,192" stroke="blue" stroke-width="2" />
<path d="M5755,765 L4363,1532" stroke="blue" stroke-width="2" />
<path d="M3862,444 L1268,996" stroke="blue" stroke-width="2" />
<path d="M5850,321 L2031,1458" stroke="blue" stroke-width="2" />
<path d="M4329,525 L2523,821" stroke="blue" stroke-width="2" />
<path d="M4196,1412 L1857,215" stroke="blue" stroke-width="2" />
<path d="M1108,1330 L3097,698" stroke="blue" stroke-width="2" />
<path d="M5747,58 L1019,14" stroke="blue" stroke-width="2" />
<path d="M5808,1069 L3967,1049" stroke="blue" stroke-width="2" />
<path d="M4891,1368 L4102,756" stroke="blue" stroke-width="2" />
<path d="M1867,294 L1596,361" stroke="blue" stroke-width="2" />
<path d="M517,746 L3713,1238" stroke="blue" stroke-width="2" />
<path d="M1072,905 L4280,246" stroke="blue" stroke-width="2" />
<path d="M1317,412 L1952,591" stroke="blue" stroke-width="2" />
<path d="M942,948 L2896,989" stroke="blue" stroke-width="2" />
<path d="M2753,140 L430,722" stroke="blue" stroke-width="2" />
<path d="M10,702 L3255,1438" stroke="blue" stroke-width="2" />
<path d="M1478,230 L3708,867" stroke="blue" stroke-width="2" />
<path d="M1614,510 L2772,494" stroke="blue" stroke-width="2" />
<path d="M2123,1053 L5782,1070" stroke="blue" stroke-width="2" />
<path d="M5041,364 L4011,456" stroke="blue" stroke-width="2" />
<path d="M195,1352 L1174,407" stroke="blue" stroke-width="2" />
<path d="M4393,1463 L139,583" stroke="blue" stroke-width="2" />
<path d="M5984,429 L3122,632" stroke="blue" stroke-width="2" />
<path d="M2988,397 L4205,237" stroke="blue" stroke-width="2" />
<path d="M1906,540 L980,1527" stroke="blue" stroke-width="2" />
<path d="M64,85 L5119,1310" stroke="blue" stroke-width="2" />
<path d="M4054,1141 L1684,203" stroke="blue" stroke-width="2" />
<path d="M3278,863 L3175,568" stroke="blue" stroke-width="2" />
<path d="M5056,1472 L3319,1338" stroke="blue" stroke-width="2" />
<path d="M5446,1176 L2041,679" stroke="blue" stroke-width="2" />
<path d="M5473,235 L352,827" stroke="blue" stroke-width="2" />
<path d="M4449,749 L4526,1546" stroke="blue" stroke-width="2" />
<path d="M3095,647 L3272,418" stroke="blue" stroke-width="2" />
<path d="M2310,673 L2975,1095" stroke="blue" stroke-width="2" />
<path d="M1150,53 L1686,397" stroke="blue" stroke-width="2" />
<path d="M1475,1495 L2477,1341" stroke="blue" stroke-width="2" />
<path d="M566,449 L5158,302" stroke="blue" stroke-width="2" />
<path d="M5488,1483 L2304,260" stroke="blue" stroke-width="2" />
<path d="M3070,734 L5887,471" stroke="blue" stroke-width="2" />
<path d="M5181,317 L174,1189" stroke="blue" stroke-width="2" />
<path d="M5073,400 L3653,1297" stroke="blue" stroke-width="2" />
<path d="M4810,906 L3597,1511" stroke="blue" stroke-width="2" />
<path d="M1012,764 L5290,1093" stroke="blue" stroke-width="2" />
<path d="M4995,766 L1042,269" stroke="blue" stroke-width="2" />
<path d="M723,1520 L3310,1359" stroke="blue" stroke-width="2" />
<path d="M5440,802 L374,1042" stroke="blue" stroke-width="2" />
<path d="M1089,911 L4881,1512" stroke="blue" stroke-width="2" />
<path d="M4462,617 L5741,153" stroke="blue" stroke-width="2" />
<path d="M5922,1066 L1085,272" stroke="blue" stroke-width="2" />
<path d="M3714,216 L5191,392" stroke="blue" stroke-width="2" />
<path d="M1411,253 L5002,860" stroke="blue" stroke-width="2" />
<path d="M2161,369 L3065,1112" stroke="blue" stroke-width="2" />
<path d="M3348,451 L1724,690" stroke="blue" stroke-width="2" />
<path d="M4829,336 L552,689" stroke="blue" stroke-width="2" />
<path d="M1583,1325 L5560,1188" stroke="blue" stroke-width="2" />
<path d="M1397,1146 L4204,163" stroke="blue" stroke-width="2" />
<path d="M845,908 L4058,1426" stroke="blue" stroke-width="2" />
<path d="M1378,716 L4514,933" stroke="blue" stroke-width="2" />
<path d="M339,1173 L4134,563" stroke="blue" stroke-width="2" />
<path d="M3446,83 L1358,1263" stroke="blue" stroke-width="2" />
<path d="M211,1040 L5443,609" stroke="blue" stroke-width="2" />
<path d="M5654,1191 L3144,172" stroke="blue" stroke-width="2" />
<path d="M5546,1494 L4092,381" stroke="blue" stroke-width="2" />
<path d="M1002,590 L3930,1422" stroke="blue" stroke-width="2" />
<path d="M0,0 L6005,0" stroke="red" stroke-width="10" />
<path d="M6005,0 L6005,1550" stroke="red" stroke-width="10" />
<path d="M0,1550 L6005,1550" stroke="red" stroke-width="10" />
<path d="M0,1550 L0,0" stroke="red" stroke-width="10" />
</svg>