<?xml version="1.0" encoding="UTF-8"?>
<svg xmlns="http://www.w3.org/2000/svg" xmlns:xlink="http://www.w3.org/1999/xlink"
     width="10000" height="10000" viewBox="0 0 10000 10000">
<defs>
</defs>
<path d="M5264,7313 L1504,8522" stroke="blue" stroke-width="2" />
<path d="M1881,2800 L358,7608" stroke="blue" stroke-width="2" />
<path d="M2650,2738 L2878,5365" stroke="blue" stroke-width="2" />
<path d="M2560,8406 L5136,7316" stroke="blue" stroke-width="2" />
<path d="M3745,4164 L3575,103" stroke="blue" stroke-width="2" />
<path d="M902,4277 L4285,1696" stroke="blue" stroke-width="2" />
<path d="M4979,5044 L2333,555" stroke="blue" stroke-width="2" />
<path d="M3469,3311 L1352,8845" stroke="blue" stroke-width="2" />
<path d="M4492,2034 L277,1052" stroke="blue" stroke-width="2" />
<path d="M5361,1899 L4000,2119" stroke="blue" stroke-width="2" />
<path d="M653,6983 L5268,4351" stroke="blue" stroke-width="2" />
<path d="M1458,5983 L4869,5756" stroke="blue" stroke-width="2" />
<path d="M4860,3666 L5323,1025" stroke="blue" stroke-width="2" />
<path d="M2543,286 L2507,2490" stroke="blue" stroke-width="2" />
<path d="M2286,5688 L3386,5981" stroke="blue" stroke-width="2" />
<path d="M1726,4660 L4291,7693" stroke="blue" stroke-width="2" />
<path d="M2252,5290 L3912,733" stroke="blue" stroke-width="2" />
<path d="M5310,6362 L1939,2744" stroke="blue" stroke-width="2" />
<path d="M1673,7774 L4573,4245" stroke="blue" stroke-width="2" />
<path d="M138,6373 L5736,4268" stroke="blue" stroke-width="2" />
<path d="M5583,8097 L2987,3579" stroke="blue" stroke-width="2" />
<path d="M4697,3467 L3462,3157" stroke="blue" stroke-width="2" />
<path d="M223,3495 L5425,165" stroke="blue" stroke-width="2" />
<path d="M1058,6733 L2273,2053" stroke="blue" stroke-width="2" />
<path d="M1898,6301 L5285,6765" stroke="blue" stroke-width="2" />
<path d="M5194,8685 L1792,2438" stroke="blue" stroke-width="2" />
<path d="M5212,932 L3673,4412" stroke="blue" stroke-width="2" />
<path d="M1982,4315 L118,5730" stroke="blue" stroke-width="2" />
<path d="M4114,4784 L2271,7419" stroke="blue" stroke-width="2" />
<path d="M4279,5426 L1512,8343" stroke="blue" stroke-width="2" />
<path d="M2430,1583 L2329,2126" stroke="blue" stroke-width="2" />
<path d="M3281,2105 L3597,7187" stroke="blue" stroke-width="2" />
<path d="M3173,408 L680,3634" stroke="blue" stroke-width="2" />
<path d="M2403,8539 L343,4590" stroke="blue" stroke-width="2" />
<path d="M3752,3771 L3765,8410" stroke="blue" stroke-width="2" />
<path d="M1735,5780 L4691,230" stroke="blue" stroke-width="2" />
<path d="M1611,3225 L2224,6886" stroke="blue" stroke-width="2" />
<path d="M2304,7414 L1754,717" stroke="blue" stroke-width="2" />
<path d="M43,4578 L5794,6898" stroke="blue" stroke-width="2" />
<path d="M4827,5920 L4426,6809" stroke="blue" stroke-width="2" />
<path d="M3991,6497 L4538,4728" stroke="blue" stroke-width="2" />
<path d="M1019,8030 L3244,3593" stroke="blue" stroke-width="2" />
<path d="M4112,8461 L3356,6584" stroke="blue" stroke-width="2" />
<path d="M2243,1523 L3622,1585" stroke="blue" stroke-width="2" />
<path d="M565,2092 L5279,1778" stroke="blue" stroke-width="2" />
<path d="M3462,5709 L1187,7690" stroke="blue" stroke-width="2" />
<path d="M3850,5166 L1057,739" stroke="blue" stroke-width="2" />
<path d="M5,3732 L2057,1784" stroke="blue" stroke-width="2" />
<path d="M1241,2553 L5763,8218" stroke="blue" stroke-width="2" />
<path d="M1584,2332 L4763,7522" stroke="blue" stroke-width="2" />
<path d="M1054,2565 L5730,3418" stroke="blue" stroke-width="2" />
<path d="M802,4492 L3546,8340" stroke="blue" stroke-width="2" />
<path d="M322,5002 L1264,3236" stroke="blue" stroke-width="2" />
<path d="M4982,1563 L2145,8193" stroke="blue" stroke-width="2" />
<path d="M1571,1886 L5031,4196" stroke="blue" stroke-width="2" />
<path d="M5549,2609 L4095,1860" stroke="blue" stroke-width="2" />
<path d="M1682,3397 L867,740" stroke="blue" stroke-width="2" />
<path d="M4885,116 L3248,5764" stroke="blue" stroke-width="2" />
<path d="M2670,888 L663,9128" stroke="blue" stroke-width="2" />
<path d="M4073,6567 L3637,2595" stroke="blue" stroke-width="2" />
<path d="M3799,3501 L1573,2168" stroke="blue" stroke-width="2" />
<path d="M2633,2230 L2268,1767" stroke="blue" stroke-width="2" />
<path d="M2262,8356 L3095,8060" stroke="blue" stroke-width="2" />
<path d="M1831,7874 L1144,2517" stroke="blue" stroke-width="2" />
<path d="M2439,6994 L4169,5770" stroke="blue" stroke-width="2" />
<path d="M2068,3939 L4128,4596" stroke="blue" stroke-width="2" />
<path d="M4667,2737 L2577,147" stroke="blue" stroke-width="2" />
<path d="M3031,5432 L4610,5937" stroke="blue" stroke-width="2" />
<path d="M5456,6337 L605,3077" stroke="blue" stroke-width="2" />
<path d="M2573,2826 L1865,3745" stroke="blue" stroke-width="2" />
<path d="M5361,141 L3137,2968" stroke="blue" stroke-width="2" />
<path d="M4360,4536 L830,4931" stroke="blue" stroke-width="2" />
<path d="M2126,1775 L5761,4575" stroke="blue" stroke-width="2" />
<path d="M4970,2261 L2490,4187" stroke="blue" stroke-width="2" />
<path d="M4230,3603 L2837,2470" stroke="blue" stroke-width="2" />
<path d="M1027,2490 L2232,127" stroke="blue" stroke-width="2" />
<path d="M1136,2241 L2751,6877" stroke="blue" stroke-width="2" />
<path d="M4176,106 L3445,636" stroke="blue" stroke-width="2" />
<path d="M5648,325 L3141,1283" stroke="blue" stroke-width="2" />
<path d="M3590,1971 L5381,5986" stroke="blue" stroke-width="2" />
<path d="M4168,230 L4211,8819" stroke="blue" stroke-width="2" />
<path d="M90,6933 L5470,4971" stroke="blue" stroke-width="2" />
<path d="M5612,2484 L2389,8879" stroke="blue" stroke-width="2" />
<path d="M947,1300 L3979,1540" stroke="blue" stroke-width="2" />
<path d="M2726,7313 L4386,1844" stroke="blue" stroke-width="2" />
<path d="M2665,6351 L4175,7548" stroke="blue" stroke-width="2" />
<path d="M2896,3598 L5357,4900" stroke="blue" stroke-width="2" />
<path d="M5276,5204 L5396,7691" stroke="blue" stroke-width="2" />
<path d="M241,2682 L4655,6276" stroke="blue" stroke-width="2" />
<path d="M5274,8551 L4349,5187" stroke="blue" stroke-width="2" />
<path d="M5301,8072 L584,3568" stroke="blue" stroke-width="2" />
<path d="M2030,4985 L5686,2350" stroke="blue" stroke-width="2" />
<path d="M954,6024 L3598,1440" stroke="blue" stroke-width="2" />
<path d="M4215,7963 L1950,7210" stroke="blue" stroke-width="2" />
<path d="M1654,2818 L2205,4638" stroke="blue" stroke-width="2" />
<path d="M1517,2874 L3679,546" stroke="blue" stroke-width="2" />
<path d="M2045,6800 L2266,3651" stroke="blue" stroke-width="2" />
<path d="M3037,321 L2464,1295" stroke="blue" stroke-width="2" />
<path d="M5536,353 L2966,8578" stroke="blue" stroke-width="2" />
<path d="M2220,8512 L1190,8795" stroke="blue" stroke-width="2" />
<path d="M2902,8478 L4203,5122" stroke="blue" stroke-width="2" />
<path d="M1932,8445 L3853,42" stroke="blue" stroke-width="2" />
<path d="M5689,28 L807,615" stroke="blue" stroke-width="2" />
<path d="M1333,5163 L3823,482" stroke="blue" stroke-width="2" />
<path d="M243,1205 L1710,7347" stroke="blue" stroke-width="2" />
<path d="M3641,7405 L2775,4001" stroke="blue" stroke-width="2" />
<path d="M514,5012 L4744,2855" stroke="blue" stroke-width="2" />
<path d="M3611,2991 L3994,4786" stroke="blue" stroke-width="2" />
<path d="M2818,5644 L4534,4403" stroke="blue" stroke-width="2" />
<path d="M5015,3867 L316,8526" stroke="blue" stroke-width="2" />
<path d="M4902,5761 L4991,885" stroke="blue" stroke-width="2" />
<path d="M600,8040 L478,2820" stroke="blue" stroke-width="2" />
<path d="M4122,2038 L3798,6730" stroke="blue" stroke-width="2" />
<path d="M3315,5536 L1699,4508" stroke="blue" stroke-width="2" />
<path d="M3349,8320 L978,2629" stroke="blue" stroke-width="2" />
<path d="M4398,6919 L4712,863" stroke="blue" stroke-width="2" />
<path d="M5327,7787 L3400,1405" stroke="blue" stroke-width="2" />
<path d="M2631,8143 L5652,8492" stroke="blue" stroke-width="2" />
<path d="M2346,7389 L4544,5167" stroke="blue" stroke-width="2" />
<path d="M1063,12 L4119,3118" stroke="blue" stroke-width="2" />
<path d="M3682,2399 L303,4872" stroke="blue" stroke-width="2" />
<path d="M3581,169 L3239,7957" stroke="blue" stroke-width="2" />
<path d="M4562,2775 L1937,2003" stroke="blue" stroke-width="2" />
<path d="M4172,7730 L3619,5558" stroke="blue" stroke-width="2" />
<path d="M1342,8156 L2984,5409" stroke="blue" stroke-width="2" />
<path d="M3500,8518 L3736,6047" stroke="blue" stroke-width="2" />
<path d="M3988,6178 L2516,1354" stroke="blue" stroke-width="2" />
<path d="M1483,7046 L5473,724" stroke="blue" stroke-width="2" />
<path d="M399,8219 L2267,9094" stroke="blue" stroke-width="2" />
<path d="M5458,8523 L1236,6278" stroke="blue" stroke-width="2" />
<path d="M3209,8170 L1807,7886" stroke="blue" stroke-width="2" />
<path d="M1894,5435 L2226,6053" stroke="blue" stroke-width="2" />
<path d="M1749,5627 L4056,8579" stroke="blue" stroke-width="2" />
<path d="M1121,9059 L3053,3518" stroke="blue" stroke-width="2" />
<path d="M5781,2611 L51,3921" stroke="blue" stroke-width="2" />
<path d="M2806,6633 L1123,6206" stroke="blue" stroke-width="2" />
<path d="M1242,6911 L4979,5734" stroke="blue" stroke-width="2" />
<path d="M1431,6246 L2180,539" stroke="blue" stroke-width="2" />
<path d="M1108,578 L4706,831" stroke="blue" stroke-width="2" />
<path d="M2446,8183 L4405,6032" stroke="blue" stroke-width="2" />
<path d="M67,5181 L2463,5740" stroke="blue" stroke-width="2" />
<path d="M3790,1941 L2681,3373" stroke="blue" stroke-width="2" />
<path d="M4257,2521 L1146,3795" stroke="blue" stroke-width="2" />
<path d="M5673,1939 L4784,817" stroke="blue" stroke-width="2" />
<path d="M2443,1636 L1310,4846" stroke="blue" stroke-width="2" />
<path d="M3666,5920 L1339,4318" stroke="blue" stroke-width="2" />
<path d="M1105,4769 L5175,81" stroke="blue" stroke-width="2" />
<path d="M2840,5851 L3156,1809" stroke="blue" stroke-width="2" />
<path d="M3503,5230 L5098,4910" stroke="blue" stroke-width="2" />
<path d="M4835,1889 L4454,2100" stroke="blue" stroke-width="2" />
<path d="M4081,2299 L4113,6144" stroke="blue" stroke-width="2" />
<path d="M4809,6399 L2326,7296" stroke="blue" stroke-width="2" />
<path d="M2861,6334 L1669,1863" stroke="blue" stroke-width="2" />
<path d="M72,6059 L4050,5270" stroke="blue" stroke-width="2" />
<path d="M1488,4054 L1056,908" stroke="blue" stroke-width="2" />
<path d="M1972,770 L3824,2539" stroke="blue" stroke-width="2" />
<path d="M366,5854 L5183,6050" stroke="blue" stroke-width="2" />
<path d="M797,3646 L3697,2831" stroke="blue" stroke-width="2" />
<path d="M1156,4188 L3068,242" stroke="blue" stroke-width="2" />
<path d="M687,6610 L1755,4916" stroke="blue" stroke-width="2" />
<path d="M4349,3795 L5624,4987" stroke="blue" stroke-width="2" />
<path d="M4634,3176 L4583,7590" stroke="blue" stroke-width="2" />
<path d="M277,6496 L5117,5775" stroke="blue" stroke-width="2" />
<path d="M3031,5794 L5650,720" stroke="blue" stroke-width="2" />
<path d="M5064,4182 L388,3400" stroke="blue" stroke-width="2" />
<path d="M3592,7298 L3444,2111" stroke="blue" stroke-width="2" />
<path d="M4632,592 L2199,2839" stroke="blue" stroke-width="2" />
<path d="M406,7148 L3865,3207" stroke="blue" stroke-width="2" />
<path d="M3951,3833 L3230,3910" stroke="blue" stroke-width="2" />
<path d="M2279,2161 L1612,4105" stroke="blue" stroke-width="2" />
<path d="M669,2516 L2641,1728" stroke="blue" stroke-width="2" />
<path d="M3970,2832 L619,8772" stroke="blue" stroke-width="2" />
<path d="M5782,3073 L2540,5525" stroke="blue" stroke-width="2" />
<path d="M2425,6761 L5531,51" stroke="blue" stroke-width="2" />
<path d="M5727,7576 L4494,3206" stroke="blue" stroke-width="2" />
<path d="M3008,7967 L1837,7142" stroke="blue" stroke-width="2" />
<path d="M1814,7753 L975,4229" stroke="blue" stroke-width="2" />
<path d="M3755,8500 L473,8988" stroke="blue" stroke-width="2" />
<path d="M1272,1656 L2236,197" stroke="blue" stroke-width="2" />
<path d="M4713,6114 L1843,7724" stroke="blue" stroke-width="2" />
<path d="M900,1812 L2037,87" stroke="blue" stroke-width="2" />
<path d="M2521,3236 L255,3296" stroke="blue" stroke-width="2" />
<path d="M2854,4318 L1433,4832" stroke="blue" stroke-width="2" />
<path d="M1230,219 L704,7196" stroke="blue" stroke-width="2" />
<path d="M3852,7352 L682,1347" stroke="blue" stroke-width="2" />
<path d="M5042,8445 L2328,7490" stroke="blue" stroke-width="2" />
<path d="M150,4638 L658,3546" stroke="blue" stroke-width="2" />
<path d="M5421,558 L1892,3540" stroke="blue" stroke-width="2" />
<path d="M2240,5657 L4492,3874" stroke="blue" stroke-width="2" />
<path d="M3641,8764 L2032,3285" stroke="blue" stroke-width="2" />
<path d="M2138,6228 L2410,6698" stroke="blue" stroke-width="2" />
<path d="M3098,3905 L5487,6880" stroke="blue" stroke-width="2" />
<path d="M3179,3281 L4558,7635" stroke="blue" stroke-width="2" />
<path d="M3187,4609 L1879,4907" stroke="blue" stroke-width="2" />
<path d="M5112,6473 L1206,2739" stroke="blue" stroke-width="2" />
<path d="M2823,1695 L5133,8251" stroke="blue" stroke-width="2" />
<path d="M1502,3428 L2645,4517" stroke="blue" stroke-width="2" />
<path d="M5316,8875 L979,3694" stroke="blue" stroke-width="2" />
<path d="M2581,4338 L1486,3929" stroke="blue" stroke-width="2" />
<path d="M4157,9042 L1808,7272" stroke="blue" stroke-width="2" />
<path d="M1779,4072 L3781,591" stroke="blue" stroke-width="2" />
<path d="M1235,2916 L2758,4749" stroke="blue" stroke-width="2" />
<path d="M2350,6317 L2215,3784" stroke="blue" stroke-width="2" />
<path d="M387,2686 L2379,2078" stroke="blue" stroke-width="2" />
<path d="M202,6718 L2799,3319" stroke="blue" stroke-width="2" />
<path d="M1121,7101 L1506,326" stroke="blue" stroke-width="2" />
<path d="M4689,4264 L3835,3829" stroke="blue" stroke-width="2" />
<path d="M1294,6155 L2464,7516" stroke="blue" stroke-width="2" />
<path d="M3151,5111 L1037,1142" stroke="blue" stroke-width="2" />
<path d="M3293,5892 L4826,1941" stroke="blue" stroke-width="2" />
<path d="M273,2517 L1146,2990" stroke="blue" stroke-width="2" />
<path d="M1032,5162 L3043,1654" stroke="blue" stroke-width="2" />
<path d="M5461,1846 L5434,7905" stroke="blue" stroke-width="2" />
<path d="M4549,3522 L1672,7669" stroke="blue" stroke-width="2" />
<path d="M5375,4672 L845,3274" stroke="blue" stroke-width="2" />
<path d="M3854,4882 L1876,5305" stroke="blue" stroke-width="2" />
<path d="M4539,3384 L4195,4343" stroke="blue" stroke-width="2" />
<path d="M1048,4791 L3662,3574" stroke="blue" stroke-width="2" />
<path d="M4620,5330 L2803,3010" stroke="blue" stroke-width="2" />
<path d="M4613,1396 L1448,797" stroke="blue" stroke-width="2" />
<path d="M1854,6149 L2867,2052" stroke="blue" stroke-width="2" />
<path d="M5292,5768 L2323,9092" stroke="blue" stroke-width="2" />
<path d="M1243,2817 L3326,6231" stroke="blue" stroke-width="2" />
<path d="M2570,1054 L707,1897" stroke="blue" stroke-width="2" />
<path d="M4779,379 L615,6383" stroke="blue" stroke-width="2" />
<path d="M1585,1369 L3417,5540" stroke="blue" stroke-width="2" />
<path d="M681,8374 L2031,3213" stroke="blue" stroke-width="2" />
<path d="M124,8992 L5782,6023" stroke="blue" stroke-width="2" />
<path d="M1023,334 L1441,1386" stroke="blue" stroke-width="2" />
<path d="M2887,101 L4957,8455" stroke="blue" stroke-width="2" />
<path d="M5225,3179 L1628,4359" stroke="blue" stroke-width="2" />
<path d="M4003,3982 L2052,6049" stroke="blue" stroke-width="2" />
<path d="M893,5696 L1305,5769" stroke="blue" stroke-width="2" />
<path d="M3678,7036 L1839,1116" stroke="blue" stroke-width="2" />
<path d="M1465,2676 L765,2037" stroke="blue" stroke-width="2" />
<path d="M3798,668 L3164,7320" stroke="blue" stroke-width="2" />
<path d="M4895,6816 L5739,2125" stroke="blue" stroke-width="2" />
<path d="M4094,6583 L281,7595" stroke="blue" stroke-width="2" />
<path d="M1648,316 L430,3005" stroke="blue" stroke-width="2" />
<path d="M23,5511 L2691,7683" stroke="blue" stroke-width="2" />
<path d="M1606,5557 L4854,8613" stroke="blue" stroke-width="2" />
<path d="M2933,6876 L3232,1758" stroke="blue" stroke-width="2" />
<path d="M4275,3765 L2468,394" stroke="blue" stroke-width="2" />
<path d="M5419,8750 L2337,4141" stroke="blue" stroke-width="2" />
<path d="M4515,521 L4218,4031" stroke="blue" stroke-width="2" />
<path d="M1093,3242 L652,4270" stroke="blue" stroke-width="2" />
<path d="M3874,244 L4875,3835" stroke="blue" stroke-width="2" />
<path d="M3011,1526 L4955,6142" stroke="blue" stroke-width="2" />
<path d="M4818,1260 L2374,604" stroke="blue" stroke-width="2" />
<path d="M5691,7061 L977,182" stroke="blue" stroke-width="2" />
<path d="M5675,8542 L2869,719" stroke="blue" stroke-width="2" />
<path d="M4894,1196 L2035,2431" stroke="blue" stroke-width="2" />
<path d="M845,392 L877,8896" stroke="blue" stroke-width="2" />
<path d="M2423,1915 L5370,511" stroke="blue" stroke-width="2" />
<path d="M2573,5506 L1166,3813" stroke="blue" stroke-width="2" />
<path d="M5797,82 L2529,3106" stroke="blue" stroke-width="2" />
<path d="M3099,1852 L3064,8525" stroke="blue" stroke-width="2" />
<path d="M1426,3999 L5365,2937" stroke="blue" stroke-width="2" />
<path d="M1613,1590 L590,2968" stroke="blue" stroke-width="2" />
<path d="M5025,3458 L4816,2174" stroke="blue" stroke-width="2" />
<path d="M1778,2154 L1048,8107" stroke="blue" stroke-width="2" />
<path d="M3630,9053 L1907,1542" stroke="blue" stroke-width="2" />
<path d="M2832,4099 L4380,3687" stroke="blue" stroke-width="2" />
<path d="M2284,7696 L666,6997" stroke="blue" stroke-width="2" />
<path d="M3170,1768 L3469,85" stroke="blue" stroke-width="2" />
<path d="M2033,6133 L1989,8811" stroke="blue" stroke-width="2" />
<path d="M4651,501 L2304,277" stroke="blue" stroke-width="2" />
<path d="M3990,2376 L4317,2384" stroke="blue" stroke-width="2" />
<path d="M3593,1663 L3594,886" stroke="blue" stroke-width="2" />
<path d="M2967,1626 L1678,7416" stroke="blue" stroke-width="2" />
<path d="M1777,3014 L2348,14" stroke="blue" stroke-width="2" />
<path d="M2158,4963 L1577,4953" stroke="blue" stroke-width="2" />
<path d="M1439,7654 L1698,1450" stroke="blue" stroke-width="2" />
<path d="M1630,5630 L2949,119" stroke="blue" stroke-width="2" />
<path d="M2436,3487 L2542,1043" stroke="blue" stroke-width="2" />
<path d="M2292,4423 L1989,2509" stroke="blue" stroke-width="2" />
<path d="M5342,8124 L4351,3879" stroke="blue" stroke-width="2" />
<path d="M651,2528 L1282,1531" stroke="blue" stroke-width="2" />
<path d="M4296,7524 L1397,978" stroke="blue" stroke-width="2" />
<path d="M1424,5465 L1553,2106" stroke="blue" stroke-width="2" />
<path d="M3184,1037 L952,9080" stroke="blue" stroke-width="2" />
<path d="M2451,7657 L2211,5756" stroke="blue" stroke-width="2" />
<path d="M1698,7291 L696,4099" stroke="blue" stroke-width="2" />
<path d="M3028,4360 L4900,3326" stroke="blue" stroke-width="2" />
<path d="M305,205 L4696,2241" stroke="blue" stroke-width="2" />
<path d="M235,886 L4555,7002" stroke="blue" stroke-width="2" />
<path d="M4489,835 L2126,4128" stroke="blue" stroke-width="2" />
<path d="M2517,841 L2783,7138" stroke="blue" stroke-width="2" />
<path d="M3942,745 L5467,4813" stroke="blue" stroke-width="2" />
<path d="M2808,4789 L5655,77" stroke="blue" stroke-width="2" />
<path d="M4064,1662 L458,222" stroke="blue" stroke-width="2" />
<path d="M2043,8020 L2876,3590" stroke="blue" stroke-width="2" />
<path d="M3904,2197 L3417,3417" stroke="blue" stroke-width="2" />
<path d="M2365,6346 L3731,3035" stroke="blue" stroke-width="2" />
<path d="M3226,3420 L37,5738" stroke="blue" stroke-width="2" />
<path d="M3748,2121 L48,2931" stroke="blue" stroke-width="2" />
<path d="M1726,3064 L1050,6770" stroke="blue" stroke-width="2" />
<path d="M3719,3033 L261,2152" stroke="blue" stroke-width="2" />
<path d="M3606,1731 L904,2295" stroke="blue" stroke-width="2" />
<path d="M3871,2357 L729,5941" stroke="blue" stroke-width="2" />
<path d="M4578,3002 L5280,6664" stroke="blue" stroke-width="2" />
<path d="M3781,5583 L4452,4026" stroke="blue" stroke-width="2" />
<path d="M5085,7669 L2490,7717" stroke="blue" stroke-width="2" />
<path d="M1569,558 L2997,2344" stroke="blue" stroke-width="2" />
<path d="M894,359 L2389,5273" stroke="blue" stroke-width="2" />
<path d="M4030,4120 L2006,8872" stroke="blue" stroke-width="2" />
<path d="M5430,6923 L358,8459" stroke="blue" stroke-width="2" />
<path d="M5558,7793 L1879,7037" stroke="blue" stroke-width="2" />
<path d="M912,158 L3853,4838" stroke="blue" stroke-width="2" />
<path d="M4917,6063 L3166,3389" stroke="blue" stroke-width="2" />
<path d="M1820,6863 L4809,7289" stroke="blue" stroke-width="2" />
<path d="M5471,6156 L660,655" stroke="blue" stroke-width="2" />
<path d="M5221,9076 L5617,7476" stroke="blue" stroke-width="2" />
<path d="M938,93 L3770,3699" stroke="blue" stroke-width="2" />
<path d="M278,4750 L5134,6116" stroke="blue" stroke-width="2" />
<path d="M4915,517 L3717,3905" stroke="blue" stroke-width="2" />
<path d="M3391,4486 L979,7449" stroke="blue" stroke-width="2" />
<path d="M2421,4033 L4539,7686" stroke="blue" stroke-width="2" />
<path d="M1854,7512 L3329,6863" stroke="blue" stroke-width="2" />
<path d="M1330,4932 L5782,5310" stroke="blue" stroke-width="2" />
<path d="M424,1170 L4908,4293" stroke="blue" stroke-width="2" />
<path d="M4973,9127 L4887,8441" stroke="blue" stroke-width="2" />
<path d="M4500,3150 L2435,4914" stroke="blue" stroke-width="2" />
<path d="M5152,645 L860,5914" stroke="blue" stroke-width="2" />
<path d="M5082,5591 L2925,5793" stroke="blue" stroke-width="2" />
<path d="M5777,2954 L4886,5349" stroke="blue" stroke-width="2" />
<path d="M2191,7849 L3183,3357" stroke="blue" stroke-width="2" />
<path d="M2371,391 L3700,2907" stroke="blue" stroke-width="2" />
<path d="M4684,2879 L1414,2874" stroke="blue" stroke-width="2" />
<path d="M5480,7893 L4717,2184" stroke="blue" stroke-width="2" />
<path d="M307,7882 L2741,1802" stroke="blue" stroke-width="2" />
<path d="M3582,68 L2349,6714" stroke="blue" stroke-width="2" />
<path d="M1667,6780 L2310,524" stroke="blue" stroke-width="2" />
<path d="M5232,5627 L2449,98" stroke="blue" stroke-width="2" />
<path d="M797,579 L4490,219" stroke="blue" stroke-width="2" />
<path d="M4288,4288 L1852,8835" stroke="blue" stroke-width="2" />
<path d="M4452,27 L933,7518" stroke="blue" stroke-width="2" />
<path d="M1395,7687 L184,7563" stroke="blue" stroke-width="2" />
<path d="M2637,6906 L5044,1102" stroke="blue" stroke-width="2" />
<path d="M4658,2697 L251,4644" stroke="blue" stroke-width="2" />
<path d="M554,3551 L201,7068" stroke="blue" stroke-width="2" />
<path d="M3613,7370 L5589,3892" stroke="blue" stroke-width="2" />
<path d="M3117,2756 L1227,6488" stroke="blue" stroke-width="2" />
<path d="M688,2233 L4165,597" stroke="blue" stroke-width="2" />
<path d="M2190,4584 L2798,6856" stroke="blue" stroke-width="2" />
<path d="M3143,8702 L3435,4520" stroke="blue" stroke-width="2" />
<path d="M3163,5345 L4506,5862" stroke="blue" stroke-width="2" />
<path d="M2264,5351 L4787,677" stroke="blue" stroke-width="2" />
<path d="M1068,3746 L4841,4792" stroke="blue" stroke-width="2" />
<path d="M5400,3157 L3066,2799" stroke="blue" stroke-width="2" />
<path d="M4905,5610 L2031,5332" stroke="blue" stroke-width="2" />
<path d="M5009,4170 L4243,2505" stroke="blue" stroke-width="2" />
<path d="M3647,1747 L4872,6066" stroke="blue" stroke-width="2" />
<path d="M3872,5262 L203,4784" stroke="blue" stroke-width="2" />
<path d="M2974,1984 L5795,5111" stroke="blue" stroke-width="2" />
<path d="M1797,9113 L2400,4222" stroke="blue" stroke-width="2" />
<path d="M4229,8180 L4358,814" stroke="blue" stroke-width="2" />
<path d="M3102,2148 L5509,7048" stroke="blue" stroke-width="2" />
<path d="M3865,8940 L2753,231" stroke="blue" stroke-width="2" />
<path d="M1925,6536 L2295,8614" stroke="blue" stroke-width="2" />
<path d="M4612,5465 L3727,3350" stroke="blue" stroke-width="2" />
<path d="M2097,7681 L860,3688" stroke="blue" stroke-width="2" />
<path d="M3312,2314 L4094,3068" stroke="blue" stroke-width="2" />
<path d="M5715,3327 L2089,3927" stroke="blue" stroke-width="2" />
<path d="M2932,8094 L5254,5033" stroke="blue" stroke-width="2" />
<path d="M2365,7006 L5448,393" stroke="blue" stroke-width="2" />
<path d="M3012,8183 L3186,3709" stroke="blue" stroke-width="2" />
<path d="M3483,4031 L552,8562" stroke="blue" stroke-width="2" />
<path d="M668,2786 L10,8172" stroke="blue" stroke-width="2" />
<path d="M2356,2580 L1081,6668" stroke="blue" stroke-width="2" />
<path d="M3136,3592 L3873,2389" stroke="blue" stroke-width="2" />
<path d="M5099,5453 L2228,1787" stroke="blue" stroke-width="2" />
<path d="M1343,125 L3526,7121" stroke="blue" stroke-width="2" />
<path d="M1592,5830 L1553,2451" stroke="blue" stroke-width="2" />
<path d="M44,7087 L2244,2797" stroke="blue" stroke-width="2" />
<path d="M928,165 L1358,6681" stroke="blue" stroke-width="2" />
<path d="M5102,4362 L965,5904" stroke="blue" stroke-width="2" />
<path d="M3545,1636 L1934,341" stroke="blue" stroke-width="2" />
<path d="M2010,5378 L1802,3136" stroke="blue" stroke-width="2" />
<path d="M4339,1106 L3366,3223" stroke="blue" stroke-width="2" />
<path d="M4325,4922 L1439,3007" stroke="blue" stroke-width="2" />
<path d="M513,3189 L1076,6561" stroke="blue" stroke-width="2" />
<path d="M4902,737 L3774,4411" stroke="blue" stroke-width="2" />
<path d="M286,672 L5186,1746" stroke="blue" stroke-width="2" />
<path d="M2908,8414 L2755,8293" stroke="blue" stroke-width="2" />
<path d="M4526,6375 L1444,7584" stroke="blue" stroke-width="2" />
<path d="M1308,1313 L3618,2468" stroke="blue" stroke-width="2" />
<path d="M3699,6778 L2245,4407" stroke="blue" stroke-width="2" />
<path d="M3602,6291 L1065,7901" stroke="blue" stroke-width="2" />
<path d="M5707,1210 L254,4909" stroke="blue" stroke-width="2" />
<path d="M1547,6182 L3097,267" stroke="blue" stroke-width="2" />
<path d="M2829,5587 L543,298" stroke="blue" stroke-width="2" />
<path d="M846,4119 L3338,8914" stroke="blue" stroke-width="2" />
<path d="M3300,1918 L2114,6407" stroke="blue" stroke-width="2" />
<path d="M1876,5505 L1628,1178" stroke="blue" stroke-width="2" />
<path d="M3492,1595 L4985,1610" stroke="blue" stroke-width="2" />
<path d="M656,6857 L2812,1611" stroke="blue" stroke-width="2" />
<path d="M3270,781 L282,1245" stroke="blue" stroke-width="2" />
<path d="M1080,353 L563,3885" stroke="blue" stroke-width="2" />
<path d="M4975,6422 L3712,4468" stroke="blue" stroke-width="2" />
<path d="M5389,3954 L2149,7633" stroke="blue" stroke-width="2" />
<path d="M4436,342 L3274,5966" stroke="blue" stroke-width="2" />
<path d="M1235,7808 L200,2646" stroke="blue" stroke-width="2" />
<path d="M1697,1644 L4842,230" stroke="blue" stroke-width="2" />
<path d="M0,0 L5825,0" stroke="red" stroke-width="10" />
<path d="M5825,0 L5825,9154" stroke="red" stroke-width="10" />
<path d="M0,9154 L5825,9154" stroke="red" stroke-width="10" />
<path d="M0,9154 L0,0" stroke="red" stroke-width="10" />
</svg>