<?xml version="1.0" encoding="UTF-8"?>
<svg xmlns="http://www.w3.org/2000/svg" xmlns:xlink="http://www.w3.org/1999/xlink"
     width="10000" height="10000" viewBox="0 0 10000 10000">
<defs>
</defs>
<path d="M3912,298 L2577,1152" stroke="blue" stroke-width="2" />
<path d="M3130,601 L3444,1164" stroke="blue" stroke-width="2" />
<path d="M2644,313 L1126,1009" stroke="blue" stroke-width="2" />
<path d="M4027,788 L1921,170" stroke="blue" stroke-width="2" />
<path d="M244,1034 L2820,455" stroke="blue" stroke-width="2" />
<path d="M274,1085 L4667,525" stroke="blue" stroke-width="2" />
<path d="M3604,789 L1780,222" stroke="blue" stroke-width="2" />
<path d="M1127,252 L4,54" stroke="blue" stroke-width="2" />
<path d="M2257,446 L2976,1215" stroke="blue" stroke-width="2" />
<path d="M2538,637 L2442,162" stroke="blue" stroke-width="2" />
<path d="M4173,666 L3660,267" stroke="blue" stroke-width="2" />
<path d="M1002,559 L129,508" stroke="blue" stroke-width="2" />
<path d="M4691,670 L1970,501" stroke="blue" stroke-width="2" />
<path d="M4413,1204 L578,743" stroke="blue" stroke-width="2" />
<path d="M2,1186 L955,853" stroke="blue" stroke-width="2" />
<path d="M2763,68 L2540,286" stroke="blue" stroke-width="2" />
<path d="M1585,1215 L3136,596" stroke="blue" stroke-width="2" />
<path d="M2341,301 L2293,670" stroke="blue" stroke-width="2" />
<path d="M4404,210 L484,331" stroke="blue" stroke-width="2" />
<path d="M356,929 L2896,658" stroke="blue" stroke-width="2" />
<path d="M2579,390 L2170,1131" stroke="blue" stroke-width="2" />
<path d="M1171,94 L4106,566" stroke="blue" stroke-width="2" />
<path d="M1446,459 L4230,1021" stroke="blue" stroke-width="2" />
<path d="M809,425 L697,1051" stroke="blue" stroke-width="2" />
<path d="M413,592 L1353,1080" stroke="blue" stroke-width="2" />
<path d="M731,638 L2655,833" stroke="blue" stroke-width="2" />
<path d="M4092,174 L4139,1157" stroke="blue" stroke-width="2" />
<path d="M2648,395 L2205,228" stroke="blue" stroke-width="2" />
<path d="M4680,282 L2916,291" stroke="blue" stroke-width="2" />
<path d="M344,961 L4012,690" stroke="blue" stroke-width="2" />
<path d="M4063,1072 L4514,4" stroke="blue" stroke-width="2" />
<path d="M4120,1115 L3079,1008" stroke="blue" stroke-width="2" />
<path d="M3754,547 L3338,1014" stroke="blue" stroke-width="2" />
<path d="M3911,15 L2164,45" stroke="blue" stroke-width="2" />
<path d="M3356,917 L4419,167" stroke="blue" stroke-width="2" />
<path d="M4382,223 L2321,892" stroke="blue" stroke-width="2" />
<path d="M869,869 L130,457" stroke="blue" stroke-width="2" />
<path d="M2200,1147 L575,997" stroke="blue" stroke-width="2" />
<path d="M4581,724 L1360,93" stroke="blue" stroke-width="2" />
<path d="M1320,784 L3362,1190" stroke="blue" stroke-width="2" />
<path d="M3992,1137 L208,1204" stroke="blue" stroke-width="2" />
<path d="M1715,563 L4113,615" stroke="blue" stroke-width="2" />
<path d="M3442,239 L332,173" stroke="blue" stroke-width="2" />
<path d="M98,785 L3031,747" stroke="blue" stroke-width="2" />
<path d="M1967,188 L4436,276" stroke="blue" stroke-width="2" />
<path d="M4334,191 L965,1207" stroke="blue" stroke-width="2" />
<path d="M2594,1138 L1165,703" stroke="blue" stroke-width="2" />
<path d="M72,576 L1698,101" stroke="blue" stroke-width="2" />
<path d="M3014,1094 L3682,129" stroke="blue" stroke-width="2" />
<path d="M4007,1136 L4387,478" stroke="blue" stroke-width="2" />
<path d="M733,421 L2371,648" stroke="blue" stroke-width="2" />
<path d="M1548,776 L3388,882" stroke="blue" stroke-width="2" />
<path d="M3953,1074 L2133,179" stroke="blue" stroke-width="2" />
<path d="M4219,972 L2535,135" stroke="blue" stroke-width="2" />
<path d="M556,1111 L3971,504" stroke="blue" stroke-width="2" />
<path d="M742,400 L2848,560" stroke="blue" stroke-width="2" />
<path d="M683,172 L3256,686" stroke="blue" stroke-width="2" />
<path d="M1909,1078 L3811,719" stroke="blue" stroke-width="2" />
<path d="M425,614 L751,858" stroke="blue" stroke-width="2" />
<path d="M3721,451 L999,1130" stroke="blue" stroke-width="2" />
<path d="M1967,1103 L2133,459" stroke="blue" stroke-width="2" />
<path d="M1806,917 L1665,88" stroke="blue" stroke-width="2" />
<path d="M1605,227 L3776,464" stroke="blue" stroke-width="2" />
<path d="M4024,195 L73,417" stroke="blue" stroke-width="2" />
<path d="M2696,570 L2038,1140" stroke="blue" stroke-width="2" />
<path d="M2797,469 L2077,560" stroke="blue" stroke-width="2" />
<path d="M4005,366 L431,329" stroke="blue" stroke-width="2" />
<path d="M2334,257 L4084,454" stroke="blue" stroke-width="2" />
<path d="M4304,187 L3196,1189" stroke="blue" stroke-width="2" />
<path d="M1016,1209 L2036,59" stroke="blue" stroke-width="2" />
<path d="M3788,1220 L3254,1230" stroke="blue" stroke-width="2" />
<path d="M4320,1207 L2721,602" stroke="blue" stroke-width="2" />
<path d="M1446,842 L442,1026" stroke="blue" stroke-width="2" />
<path d="M1936,128 L2821,419" stroke="blue" stroke-width="2" />
<path d="M3701,570 L572,1160" stroke="blue" stroke-width="2" />
<path d="M242,23 L1829,771" stroke="blue" stroke-width="2" />
<path d="M4401,918 L3146,684" stroke="blue" stroke-width="2" />
<path d="M4404,717 L2476,1156" stroke="blue" stroke-width="2" />
<path d="M2580,830 L1423,163" stroke="blue" stroke-width="2" />
<path d="M3005,751 L4067,751" stroke="blue" stroke-width="2" />
<path d="M3249,514 L1642,447" stroke="blue" stroke-width="2" />
<path d="M1528,318 L2964,935" stroke="blue" stroke-width="2" />
<path d="M1590,549 L3840,26" stroke="blue" stroke-width="2" />
<path d="M470,184 L1122,1007" stroke="blue" stroke-width="2" />
<path d="M162,270 L4347,248" stroke="blue" stroke-width="2" />
<path d="M3160,233 L4141,377" stroke="blue" stroke-width="2" />
<path d="M3584,207 L3671,779" stroke="blue" stroke-width="2" />
<path d="M2696,19 L3043,959" stroke="blue" stroke-width="2" />
<path d="M4258,496 L4074,1059" stroke="blue" stroke-width="2" />
<path d="M1964,90 L83,855" stroke="blue" stroke-width="2" />
<path d="M2405,526 L3117,683" stroke="blue" stroke-width="2" />
<path d="M4042,292 L4418,1192" stroke="blue" stroke-width="2" />
<path d="M1730,962 L326,996" stroke="blue" stroke-width="2" />
<path d="M604,919 L1805,809" stroke="blue" stroke-width="2" />
<path d="M2245,218 L1122,829" stroke="blue" stroke-width="2" />
<path d="M1542,143 L3779,502" stroke="blue" stroke-width="2" />
<path d="M3582,342 L841,230" stroke="blue" stroke-width="2" />
<path d="M2426,406 L4534,657" stroke="blue" stroke-width="2" />
<path d="M1640,224 L320,879" stroke="blue" stroke-width="2" />
<path d="M2161,1141 L4643,869" stroke="blue" stroke-width="2" />
<path d="M1391,241 L1108,974" stroke="blue" stroke-width="2" />
<path d="M4637,584 L2472,829" stroke="blue" stroke-width="2" />
<path d="M209,814 L2045,26" stroke="blue" stroke-width="2" />
<path d="M1065,514 L1234,84" stroke="blue" stroke-width="2" />
<path d="M158,155 L648,828" stroke="blue" stroke-width="2" />
<path d="M2070,444 L2819,533" stroke="blue" stroke-width="2" />
<path d="M1194,974 L1522,790" stroke="blue" stroke-width="2" />
<path d="M1110,951 L1854,650" stroke="blue" stroke-width="2" />
<path d="M1110,545 L4418,1151" stroke="blue" stroke-width="2" />
<path d="M964,411 L1530,435" stroke="blue" stroke-width="2" />
<path d="M902,260 L1346,785" stroke="blue" stroke-width="2" />
<path d="M3006,633 L495,54" stroke="blue" stroke-width="2" />
<path d="M1077,786 L3860,655" stroke="blue" stroke-width="2" />
<path d="M4148,17 L1298,330" stroke="blue" stroke-width="2" />
<path d="M2205,195 L472,48" stroke="blue" stroke-width="2" />
<path d="M1744,1206 L2326,780" stroke="blue" stroke-width="2" />
<path d="M59,1059 L2960,989" stroke="blue" stroke-width="2" />
<path d="M4,133 L2853,517" stroke="blue" stroke-width="2" />
<path d="M396,451 L1623,1152" stroke="blue" stroke-width="2" />
<path d="M798,58 L1929,615" stroke="blue" stroke-width="2" />
<path d="M1502,1092 L1080,82" stroke="blue" stroke-width="2" />
<path d="M1688,1079 L703,1202" stroke="blue" stroke-width="2" />
<path d="M2884,523 L1029,234" stroke="blue" stroke-width="2" />
<path d="M816,262 L3941,719" stroke="blue" stroke-width="2" />
<path d="M4404,1150 L1460,1083" stroke="blue" stroke-width="2" />
<path d="M1235,765 L693,1075" stroke="blue" stroke-width="2" />
<path d="M2484,1078 L435,848" stroke="blue" stroke-width="2" />
<path d="M3501,594 L327,895" stroke="blue" stroke-width="2" />
<path d="M3997,853 L1881,768" stroke="blue" stroke-width="2" />
<path d="M3600,384 L4306,779" stroke="blue" stroke-width="2" />
<path d="M4505,1203 L2911,757" stroke="blue" stroke-width="2" />
<path d="M1763,263 L4304,990" stroke="blue" stroke-width="2" />
<path d="M2694,372 L893,158" stroke="blue" stroke-width="2" />
<path d="M1338,135 L2894,476" stroke="blue" stroke-width="2" />
<path d="M1864,134 L2465,127" stroke="blue" stroke-width="2" />
<path d="M4636,213 L4210,872" stroke="blue" stroke-width="2" />
<path d="M451,1068 L973,1042" stroke="blue" stroke-width="2" />
<path d="M4052,230 L2251,1091" stroke="blue" stroke-width="2" />
<path d="M4383,720 L1581,828" stroke="blue" stroke-width="2" />
<path d="M1356,989 L4182,714" stroke="blue" stroke-width="2" />
<path d="M4565,599 L2715,881" stroke="blue" stroke-width="2" />
<path d="M1351,380 L2423,127" stroke="blue" stroke-width="2" />
<path d="M1369,710 L2485,965" stroke="blue" stroke-width="2" />
<path d="M1258,87 L4144,490" stroke="blue" stroke-width="2" />
<path d="M346,831 L3499,739" stroke="blue" stroke-width="2" />
<path d="M1229,1043 L4193,632" stroke="blue" stroke-width="2" />
<path d="M4006,715 L410,1139" stroke="blue" stroke-width="2" />
<path d="M2834,319 L4188,563" stroke="blue" stroke-width="2" />
<path d="M835,139 L1200,35" stroke="blue" stroke-width="2" />
<path d="M1942,897 L3888,724" stroke="blue" stroke-width="2" />
<path d="M2489,746 L1264,1206" stroke="blue" stroke-width="2" />
<path d="M3181,16 L3041,8" stroke="blue" stroke-width="2" />
<path d="M3047,1228 L1915,337" stroke="blue" stroke-width="2" />
<path d="M62,1145 L1271,859" stroke="blue" stroke-width="2" />
<path d="M2827,513 L1834,212" stroke="blue" stroke-width="2" />
<path d="M2271,182 L30,681" stroke="blue" stroke-width="2" />
<path d="M39,215 L3526,566" stroke="blue" stroke-width="2" />
<path d="M4313,161 L4370,969" stroke="blue" stroke-width="2" />
<path d="M2646,944 L1037,26" stroke="blue" stroke-width="2" />
<path d="M2646,484 L3902,607" stroke="blue" stroke-width="2" />
<path d="M3082,558 L3179,26" stroke="blue" stroke-width="2" />
<path d="M3283,427 L2896,1202" stroke="blue" stroke-width="2" />
<path d="M714,234 L2499,432" stroke="blue" stroke-width="2" />
<path d="M2760,821 L1807,261" stroke="blue" stroke-width="2" />
<path d="M2444,1166 L3004,1086" stroke="blue" stroke-width="2" />
<path d="M2693,1090 L1417,1149" stroke="blue" stroke-width="2" />
<path d="M1742,633 L675,1161" stroke="blue" stroke-width="2" />
<path d="M1321,530 L3583,364" stroke="blue" stroke-width="2" />
<path d="M1231,778 L3677,720" stroke="blue" stroke-width="2" />
<path d="M3745,1231 L3565,212" stroke="blue" stroke-width="2" />
<path d="M620,471 L1931,1172" stroke="blue" stroke-width="2" />
<path d="M1620,1108 L4170,1118" stroke="blue" stroke-width="2" />
<path d="M4279,501 L1149,1" stroke="blue" stroke-width="2" />
<path d="M2636,354 L780,1111" stroke="blue" stroke-width="2" />
<path d="M4676,1094 L157,991" stroke="blue" stroke-width="2" />
<path d="M312,96 L2620,116" stroke="blue" stroke-width="2" />
<path d="M4188,510 L4706,262" stroke="blue" stroke-width="2" />
<path d="M3729,655 L2423,1157" stroke="blue" stroke-width="2" />
<path d="M2005,869 L2824,1061" stroke="blue" stroke-width="2" />
<path d="M2154,445 L1987,847" stroke="blue" stroke-width="2" />
<path d="M1773,862 L623,205" stroke="blue" stroke-width="2" />
<path d="M4005,696 L4149,792" stroke="blue" stroke-width="2" />
<path d="M1522,1140 L2224,1" stroke="blue" stroke-width="2" />
<path d="M1191,940 L1364,722" stroke="blue" stroke-width="2" />
<path d="M689,1105 L939,563" stroke="blue" stroke-width="2" />
<path d="M1087,1135 L3468,324" stroke="blue" stroke-width="2" />
<path d="M2930,128 L4271,589" stroke="blue" stroke-width="2" />
<path d="M0,0 L4710,0" stroke="red" stroke-width="10" />
<path d="M4710,0 L4710,1232" stroke="red" stroke-width="10" />
<path d="M0,1232 L4710,1232" stroke="red" stroke-width="10" />
<path d="M0,1232 L0,0" stroke="red" stroke-width="10" />
</svg>