<?xml version="1.0" encoding="UTF-8"?>
<svg xmlns="http://www.w3.org/2000/svg" xmlns:xlink="http://www.w3.org/1999/xlink"
     width="10000" height="10000" viewBox="0 0 10000 10000">
<defs>
</defs>
<path d="M1126,6514 L186,28" stroke="blue" stroke-width="2" />
<path d="M1537,4365 L1339,5994" stroke="blue" stroke-width="2" />
<path d="M1016,619 L1394,3639" stroke="blue" stroke-width="2" />
<path d="M1639,5314 L2088,6720" stroke="blue" stroke-width="2" />
<path d="M563,5982 L1394,5929" stroke="blue" stroke-width="2" />
<path d="M1063,3087 L1510,4294" stroke="blue" stroke-width="2" />
<path d="M833,4260 L2178,2066" stroke="blue" stroke-width="2" />
<path d="M198,5578 L576,1427" stroke="blue" stroke-width="2" />
<path d="M1474,2694 L1675,5416" stroke="blue" stroke-width="2" />
<path d="M816,5730 L2140,1424" stroke="blue" stroke-width="2" />
<path d="M1175,6393 L2012,5504" stroke="blue" stroke-width="2" />
<path d="M1580,5940 L1985,1658" stroke="blue" stroke-width="2" />
<path d="M1033,5923 L958,6080" stroke="blue" stroke-width="2" />
<path d="M250,5189 L1808,612" stroke="blue" stroke-width="2" />
<path d="M1477,2891 L1710,823" stroke="blue" stroke-width="2" />
<path d="M1963,5982 L1297,6151" stroke="blue" stroke-width="2" />
<path d="M1346,2440 L1741,5755" stroke="blue" stroke-width="2" />
<path d="M1589,6127 L1287,3857" stroke="blue" stroke-width="2" />
<path d="M1719,5000 L331,2371" stroke="blue" stroke-width="2" />
<path d="M1615,220 L618,4447" stroke="blue" stroke-width="2" />
<path d="M9,3296 L2150,5883" stroke="blue" stroke-width="2" />
<path d="M514,6029 L1013,6057" stroke="blue" stroke-width="2" />
<path d="M532,2558 L1143,517" stroke="blue" stroke-width="2" />
<path d="M849,3125 L584,593" stroke="blue" stroke-width="2" />
<path d="M1512,1368 L853,5198" stroke="blue" stroke-width="2" />
<path d="M1120,4823 L762,4256" stroke="blue" stroke-width="2" />
<path d="M401,6326 L144,3" stroke="blue" stroke-width="2" />
<path d="M1907,2659 L171,3459" stroke="blue" stroke-width="2" />
<path d="M793,3119 L1985,5499" stroke="blue" stroke-width="2" />
<path d="M1537,1767 L340,6836" stroke="blue" stroke-width="2" />
<path d="M1909,2002 L457,5509" stroke="blue" stroke-width="2" />
<path d="M727,1643 L800,2812" stroke="blue" stroke-width="2" />
<path d="M1267,1346 L1875,39" stroke="blue" stroke-width="2" />
<path d="M1666,5485 L1817,6421" stroke="blue" stroke-width="2" />
<path d="M1779,1646 L122,969" stroke="blue" stroke-width="2" />
<path d="M1027,6369 L1376,1780" stroke="blue" stroke-width="2" />
<path d="M958,4120 L388,4004" stroke="blue" stroke-width="2" />
<path d="M882,748 L1517,5748" stroke="blue" stroke-width="2" />
<path d="M708,4781 L1414,3621" stroke="blue" stroke-width="2" />
<path d="M2081,2241 L1089,3050" stroke="blue" stroke-width="2" />
<path d="M1616,6773 L266,3066" stroke="blue" stroke-width="2" />
<path d="M345,6082 L901,400" stroke="blue" stroke-width="2" />
<path d="M865,3363 L2092,5641" stroke="blue" stroke-width="2" />
<path d="M2119,6960 L1244,3656" stroke="blue" stroke-width="2" />
<path d="M1895,48 L208,4765" stroke="blue" stroke-width="2" />
<path d="M113,4658 L774,942" stroke="blue" stroke-width="2" />
<path d="M836,1696 L856,6081" stroke="blue" stroke-width="2" />
<path d="M1293,1352 L26,4657" stroke="blue" stroke-width="2" />
<path d="M1773,3888 L940,268" stroke="blue" stroke-width="2" />
<path d="M2161,6222 L958,3308" stroke="blue" stroke-width="2" />
<path d="M465,996 L285,369" stroke="blue" stroke-width="2" />
<path d="M520,408 L2150,3592" stroke="blue" stroke-width="2" />
<path d="M466,2666 L25,4382" stroke="blue" stroke-width="2" />
<path d="M1726,3837 L2082,1509" stroke="blue" stroke-width="2" />
<path d="M738,5411 L1307,883" stroke="blue" stroke-width="2" />
<path d="M2133,1354 L535,1517" stroke="blue" stroke-width="2" />
<path d="M844,1567 L416,1500" stroke="blue" stroke-width="2" />
<path d="M2107,3116 L1706,3171" stroke="blue" stroke-width="2" />
<path d="M248,5015 L80,235" stroke="blue" stroke-width="2" />
<path d="M1788,3976 L1451,2446" stroke="blue" stroke-width="2" />
<path d="M1779,5118 L1302,3896" stroke="blue" stroke-width="2" />
<path d="M1433,808 L1697,5085" stroke="blue" stroke-width="2" />
<path d="M51,2513 L308,1931" stroke="blue" stroke-width="2" />
<path d="M1440,5370 L1675,4029" stroke="blue" stroke-width="2" />
<path d="M258,4708 L1893,2348" stroke="blue" stroke-width="2" />
<path d="M1856,5583 L2006,6787" stroke="blue" stroke-width="2" />
<path d="M414,6546 L712,2321" stroke="blue" stroke-width="2" />
<path d="M974,6734 L1134,5528" stroke="blue" stroke-width="2" />
<path d="M436,6549 L1277,6168" stroke="blue" stroke-width="2" />
<path d="M175,5892 L1661,6807" stroke="blue" stroke-width="2" />
<path d="M1107,5506 L751,1526" stroke="blue" stroke-width="2" />
<path d="M171,5564 L1252,6669" stroke="blue" stroke-width="2" />
<path d="M1166,7018 L1311,11" stroke="blue" stroke-width="2" />
<path d="M1796,5945 L278,745" stroke="blue" stroke-width="2" />
<path d="M2152,6060 L1758,2025" stroke="blue" stroke-width="2" />
<path d="M1616,2213 L333,4911" stroke="blue" stroke-width="2" />
<path d="M869,5854 L1646,608" stroke="blue" stroke-width="2" />
<path d="M1040,3818 L451,985" stroke="blue" stroke-width="2" />
<path d="M634,1443 L957,6014" stroke="blue" stroke-width="2" />
<path d="M1811,5161 L2067,1413" stroke="blue" stroke-width="2" />
<path d="M256,6927 L789,1983" stroke="blue" stroke-width="2" />
<path d="M1088,2251 L915,426" stroke="blue" stroke-width="2" />
<path d="M318,3035 L1627,6046" stroke="blue" stroke-width="2" />
<path d="M524,624 L140,5092" stroke="blue" stroke-width="2" />
<path d="M1428,6225 L577,6159" stroke="blue" stroke-width="2" />
<path d="M2041,3539 L2092,5104" stroke="blue" stroke-width="2" />
<path d="M122,4578 L560,4964" stroke="blue" stroke-width="2" />
<path d="M804,3573 L488,2138" stroke="blue" stroke-width="2" />
<path d="M1077,6866 L988,4374" stroke="blue" stroke-width="2" />
<path d="M1619,840 L155,2187" stroke="blue" stroke-width="2" />
<path d="M392,2066 L1682,2466" stroke="blue" stroke-width="2" />
<path d="M295,6446 L330,3204" stroke="blue" stroke-width="2" />
<path d="M18,6659 L519,6815" stroke="blue" stroke-width="2" />
<path d="M1175,2821 L1644,3684" stroke="blue" stroke-width="2" />
<path d="M684,4041 L2065,3399" stroke="blue" stroke-width="2" />
<path d="M2144,2027 L2104,5807" stroke="blue" stroke-width="2" />
<path d="M781,3887 L386,4611" stroke="blue" stroke-width="2" />
<path d="M1101,5159 L401,6035" stroke="blue" stroke-width="2" />
<path d="M1221,2166 L1566,3308" stroke="blue" stroke-width="2" />
<path d="M388,1492 L440,5959" stroke="blue" stroke-width="2" />
<path d="M1494,2695 L1590,3895" stroke="blue" stroke-width="2" />
<path d="M2113,6015 L20,6236" stroke="blue" stroke-width="2" />
<path d="M774,582 L1510,2090" stroke="blue" stroke-width="2" />
<path d="M1556,4381 L2035,4234" stroke="blue" stroke-width="2" />
<path d="M1683,2228 L1670,1458" stroke="blue" stroke-width="2" />
<path d="M585,6716 L521,6319" stroke="blue" stroke-width="2" />
<path d="M1162,4337 L79,467" stroke="blue" stroke-width="2" />
<path d="M17,427 L1541,2466" stroke="blue" stroke-width="2" />
<path d="M198,7052 L370,4141" stroke="blue" stroke-width="2" />
<path d="M747,5835 L1474,4153" stroke="blue" stroke-width="2" />
<path d="M1377,3715 L481,5145" stroke="blue" stroke-width="2" />
<path d="M1321,2015 L364,4836" stroke="blue" stroke-width="2" />
<path d="M770,1386 L925,4138" stroke="blue" stroke-width="2" />
<path d="M598,3977 L503,6776" stroke="blue" stroke-width="2" />
<path d="M958,109 L1560,6166" stroke="blue" stroke-width="2" />
<path d="M1702,2462 L1216,2338" stroke="blue" stroke-width="2" />
<path d="M1947,4511 L2148,378" stroke="blue" stroke-width="2" />
<path d="M1538,3169 L377,1410" stroke="blue" stroke-width="2" />
<path d="M1175,1300 L1486,4901" stroke="blue" stroke-width="2" />
<path d="M1799,6089 L2109,6599" stroke="blue" stroke-width="2" />
<path d="M418,1447 L70,7042" stroke="blue" stroke-width="2" />
<path d="M1728,2170 L1509,5549" stroke="blue" stroke-width="2" />
<path d="M486,2167 L1237,3002" stroke="blue" stroke-width="2" />
<path d="M2086,5330 L1680,5122" stroke="blue" stroke-width="2" />
<path d="M353,2517 L1568,3021" stroke="blue" stroke-width="2" />
<path d="M1280,2202 L678,4745" stroke="blue" stroke-width="2" />
<path d="M1301,1622 L432,1376" stroke="blue" stroke-width="2" />
<path d="M1651,4426 L796,2863" stroke="blue" stroke-width="2" />
<path d="M584,3359 L695,4360" stroke="blue" stroke-width="2" />
<path d="M835,6163 L1860,6101" stroke="blue" stroke-width="2" />
<path d="M1329,805 L2064,2460" stroke="blue" stroke-width="2" />
<path d="M1375,5719 L1737,4613" stroke="blue" stroke-width="2" />
<path d="M361,5052 L249,1636" stroke="blue" stroke-width="2" />
<path d="M116,4183 L1464,928" stroke="blue" stroke-width="2" />
<path d="M312,3396 L919,3565" stroke="blue" stroke-width="2" />
<path d="M59,6040 L77,6022" stroke="blue" stroke-width="2" />
<path d="M1442,3646 L1470,2711" stroke="blue" stroke-width="2" />
<path d="M739,2959 L55,4021" stroke="blue" stroke-width="2" />
<path d="M1556,5449 L2200,2103" stroke="blue" stroke-width="2" />
<path d="M1365,3124 L74,1261" stroke="blue" stroke-width="2" />
<path d="M1457,5957 L1556,4379" stroke="blue" stroke-width="2" />
<path d="M1349,639 L158,2736" stroke="blue" stroke-width="2" />
<path d="M1784,1925 L1590,4587" stroke="blue" stroke-width="2" />
<path d="M498,6320 L1088,5290" stroke="blue" stroke-width="2" />
<path d="M1710,2217 L1106,1813" stroke="blue" stroke-width="2" />
<path d="M85,5555 L334,4877" stroke="blue" stroke-width="2" />
<path d="M1367,5996 L363,6526" stroke="blue" stroke-width="2" />
<path d="M1837,3836 L526,1246" stroke="blue" stroke-width="2" />
<path d="M2108,6303 L473,4465" stroke="blue" stroke-width="2" />
<path d="M1100,6761 L1673,1971" stroke="blue" stroke-width="2" />
<path d="M1325,4160 L233,3388" stroke="blue" stroke-width="2" />
<path d="M1929,2773 L1580,6743" stroke="blue" stroke-width="2" />
<path d="M1403,953 L845,5257" stroke="blue" stroke-width="2" />
<path d="M63,16 L120,3009" stroke="blue" stroke-width="2" />
<path d="M1727,6211 L509,321" stroke="blue" stroke-width="2" />
<path d="M576,4260 L1173,1639" stroke="blue" stroke-width="2" />
<path d="M93,6449 L818,3131" stroke="blue" stroke-width="2" />
<path d="M571,4176 L993,728" stroke="blue" stroke-width="2" />
<path d="M1303,5054 L1612,3875" stroke="blue" stroke-width="2" />
<path d="M1157,4098 L1247,2844" stroke="blue" stroke-width="2" />
<path d="M1515,1254 L1476,919" stroke="blue" stroke-width="2" />
<path d="M1963,2824 L1645,4732" stroke="blue" stroke-width="2" />
<path d="M24,312 L2062,4130" stroke="blue" stroke-width="2" />
<path d="M2127,5221 L1237,2787" stroke="blue" stroke-width="2" />
<path d="M592,5341 L962,3928" stroke="blue" stroke-width="2" />
<path d="M183,5814 L976,4965" stroke="blue" stroke-width="2" />
<path d="M597,1886 L1865,3300" stroke="blue" stroke-width="2" />
<path d="M12,961 L856,5543" stroke="blue" stroke-width="2" />
<path d="M1098,1747 L209,1028" stroke="blue" stroke-width="2" />
<path d="M1835,3186 L1756,4936" stroke="blue" stroke-width="2" />
<path d="M1866,6693 L152,5795" stroke="blue" stroke-width="2" />
<path d="M1506,5724 L742,1309" stroke="blue" stroke-width="2" />
<path d="M2087,3521 L639,946" stroke="blue" stroke-width="2" />
<path d="M1150,5728 L647,2875" stroke="blue" stroke-width="2" />
<path d="M1313,1072 L934,5215" stroke="blue" stroke-width="2" />
<path d="M1291,2949 L1738,2509" stroke="blue" stroke-width="2" />
<path d="M857,4008 L1754,5472" stroke="blue" stroke-width="2" />
<path d="M1483,1472 L1226,2454" stroke="blue" stroke-width="2" />
<path d="M2131,5446 L407,3322" stroke="blue" stroke-width="2" />
<path d="M585,6984 L666,121" stroke="blue" stroke-width="2" />
<path d="M229,6398 L1201,5859" stroke="blue" stroke-width="2" />
<path d="M1497,2921 L1767,3320" stroke="blue" stroke-width="2" />
<path d="M1793,46 L1668,6787" stroke="blue" stroke-width="2" />
<path d="M894,6124 L280,667" stroke="blue" stroke-width="2" />
<path d="M36,4238 L443,3905" stroke="blue" stroke-width="2" />
<path d="M1555,6561 L1479,1460" stroke="blue" stroke-width="2" />
<path d="M822,2643 L53,5114" stroke="blue" stroke-width="2" />
<path d="M2193,2008 L748,4175" stroke="blue" stroke-width="2" />
<path d="M1117,982 L140,2775" stroke="blue" stroke-width="2" />
<path d="M164,4037 L1422,6164" stroke="blue" stroke-width="2" />
<path d="M205,6916 L1168,2085" stroke="blue" stroke-width="2" />
<path d="M1986,2179 L255,6686" stroke="blue" stroke-width="2" />
<path d="M1995,1249 L560,3562" stroke="blue" stroke-width="2" />
<path d="M1695,5905 L608,1976" stroke="blue" stroke-width="2" />
<path d="M0,0 L2201,0" stroke="red" stroke-width="10" />
<path d="M2201,0 L2201,7070" stroke="red" stroke-width="10" />
<path d="M0,7070 L2201,7070" stroke="red" stroke-width="10" />
<path d="M0,7070 L0,0" stroke="red" stroke-width="10" />
</svg>