<?xml version="1.0" encoding="UTF-8"?>
<svg xmlns="http://www.w3.org/2000/svg" xmlns:xlink="http://www.w3.org/1999/xlink"
     width="10000" height="10000" viewBox="0 0 10000 10000">
<defs>
</defs>
<path d="M895,734 L1256,254" stroke="blue" stroke-width="2" />
<path d="M435,1315 L1492,713" stroke="blue" stroke-width="2" />
<path d="M989,15 L1615,1095" stroke="blue" stroke-width="2" />
<path d="M1350,698 L830,937" stroke="blue" stroke-width="2" />
<path d="M490,782 L1483,219" stroke="blue" stroke-width="2" />
<path d="M556,809 L453,1280" stroke="blue" stroke-width="2" />
<path d="M1615,843 L1078,951" stroke="blue" stroke-width="2" />
<path d="M98,1215 L471,778" stroke="blue" stroke-width="2" />
<path d="M269,1136 L1508,768" stroke="blue" stroke-width="2" />
<path d="M1038,1005 L1543,1767" stroke="blue" stroke-width="2" />
<path d="M1122,1336 L793,132" stroke="blue" stroke-width="2" />
<path d="M44,827 L370,822" stroke="blue" stroke-width="2" />
<path d="M590,178 L1315,692" stroke="blue" stroke-width="2" />
<path d="M855,1401 L935,14" stroke="blue" stroke-width="2" />
<path d="M565,22 L1048,195" stroke="blue" stroke-width="2" />
<path d="M407,1377 L1380,1115" stroke="blue" stroke-width="2" />
<path d="M1109,329 L694,1329" stroke="blue" stroke-width="2" />
<path d="M869,1445 L722,284" stroke="blue" stroke-width="2" />
<path d="M1529,1741 L1410,395" stroke="blue" stroke-width="2" />
<path d="M1268,469 L1178,1575" stroke="blue" stroke-width="2" />
<path d="M508,972 L403,62" stroke="blue" stroke-width="2" />
<path d="M1442,376 L431,163" stroke="blue" stroke-width="2" />
<path d="M778,1697 L196,1339" stroke="blue" stroke-width="2" />
<path d="M170,747 L273,35" stroke="blue" stroke-width="2" />
<path d="M1211,1036 L1323,1787" stroke="blue" stroke-width="2" />
<path d="M220,1765 L319,504" stroke="blue" stroke-width="2" />
<path d="M516,480 L1130,1208" stroke="blue" stroke-width="2" />
<path d="M1101,1162 L1536,490" stroke="blue" stroke-width="2" />
<path d="M1581,332 L73,3" stroke="blue" stroke-width="2" />
<path d="M1497,804 L1141,474" stroke="blue" stroke-width="2" />
<path d="M257,578 L325,1186" stroke="blue" stroke-width="2" />
<path d="M253,502 L1354,31" stroke="blue" stroke-width="2" />
<path d="M1085,637 L1066,1615" stroke="blue" stroke-width="2" />
<path d="M1557,760 L1495,42" stroke="blue" stroke-width="2" />
<path d="M951,1110 L344,1146" stroke="blue" stroke-width="2" />
<path d="M198,1749 L778,1380" stroke="blue" stroke-width="2" />
<path d="M75,162 L1320,122" stroke="blue" stroke-width="2" />
<path d="M1055,842 L637,709" stroke="blue" stroke-width="2" />
<path d="M121,728 L1551,1020" stroke="blue" stroke-width="2" />
<path d="M723,793 L1121,641" stroke="blue" stroke-width="2" />
<path d="M1506,279 L607,1127" stroke="blue" stroke-width="2" />
<path d="M1286,799 L531,814" stroke="blue" stroke-width="2" />
<path d="M293,124 L1308,875" stroke="blue" stroke-width="2" />
<path d="M733,1495 L1394,1127" stroke="blue" stroke-width="2" />
<path d="M972,97 L387,1491" stroke="blue" stroke-width="2" />
<path d="M243,1585 L202,1214" stroke="blue" stroke-width="2" />
<path d="M123,388 L1419,346" stroke="blue" stroke-width="2" />
<path d="M1413,350 L1306,1002" stroke="blue" stroke-width="2" />
<path d="M1526,1518 L444,1565" stroke="blue" stroke-width="2" />
<path d="M1006,91 L1327,827" stroke="blue" stroke-width="2" />
<path d="M630,1008 L218,452" stroke="blue" stroke-width="2" />
<path d="M779,80 L1401,1103" stroke="blue" stroke-width="2" />
<path d="M886,1704 L1391,999" stroke="blue" stroke-width="2" />
<path d="M1293,1150 L811,1665" stroke="blue" stroke-width="2" />
<path d="M1164,76 L513,1414" stroke="blue" stroke-width="2" />
<path d="M351,659 L1414,1111" stroke="blue" stroke-width="2" />
<path d="M1179,877 L45,185" stroke="blue" stroke-width="2" />
<path d="M72,1538 L1085,194" stroke="blue" stroke-width="2" />
<path d="M1485,1069 L107,1617" stroke="blue" stroke-width="2" />
<path d="M856,1583 L4,1057" stroke="blue" stroke-width="2" />
<path d="M869,268 L58,1458" stroke="blue" stroke-width="2" />
<path d="M607,1275 L537,173" stroke="blue" stroke-width="2" />
<path d="M1493,1633 L1265,287" stroke="blue" stroke-width="2" />
<path d="M1619,1401 L460,505" stroke="blue" stroke-width="2" />
<path d="M282,1633 L612,1757" stroke="blue" stroke-width="2" />
<path d="M993,432 L357,1661" stroke="blue" stroke-width="2" />
<path d="M217,1291 L1116,1522" stroke="blue" stroke-width="2" />
<path d="M1550,219 L534,47" stroke="blue" stroke-width="2" />
<path d="M1265,575 L1266,125" stroke="blue" stroke-width="2" />
<path d="M5,214 L909,890" stroke="blue" stroke-width="2" />
<path d="M731,1077 L698,470" stroke="blue" stroke-width="2" />
<path d="M1188,1574 L1030,1421" stroke="blue" stroke-width="2" />
<path d="M169,1134 L1543,624" stroke="blue" stroke-width="2" />
<path d="M1550,64 L1218,492" stroke="blue" stroke-width="2" />
<path d="M1540,1638 L1359,996" stroke="blue" stroke-width="2" />
<path d="M524,702 L1532,519" stroke="blue" stroke-width="2" />
<path d="M1247,19 L586,605" stroke="blue" stroke-width="2" />
<path d="M1605,570 L714,1692" stroke="blue" stroke-width="2" />
<path d="M896,701 L1359,468" stroke="blue" stroke-width="2" />
<path d="M1633,629 L1450,1796" stroke="blue" stroke-width="2" />
<path d="M158,1134 L1117,1703" stroke="blue" stroke-width="2" />
<path d="M306,1110 L1607,1668" stroke="blue" stroke-width="2" />
<path d="M467,172 L293,56" stroke="blue" stroke-width="2" />
<path d="M669,1481 L751,816" stroke="blue" stroke-width="2" />
<path d="M1060,1178 L780,1340" stroke="blue" stroke-width="2" />
<path d="M598,1169 L1598,912" stroke="blue" stroke-width="2" />
<path d="M215,1420 L851,1003" stroke="blue" stroke-width="2" />
<path d="M301,1606 L837,367" stroke="blue" stroke-width="2" />
<path d="M930,122 L1093,517" stroke="blue" stroke-width="2" />
<path d="M174,657 L1577,832" stroke="blue" stroke-width="2" />
<path d="M180,601 L761,869" stroke="blue" stroke-width="2" />
<path d="M402,929 L1125,1622" stroke="blue" stroke-width="2" />
<path d="M1530,503 L1170,623" stroke="blue" stroke-width="2" />
<path d="M107,1012 L656,1203" stroke="blue" stroke-width="2" />
<path d="M1584,288 L437,1071" stroke="blue" stroke-width="2" />
<path d="M346,606 L179,857" stroke="blue" stroke-width="2" />
<path d="M453,712 L276,687" stroke="blue" stroke-width="2" />
<path d="M957,540 L33,227" stroke="blue" stroke-width="2" />
<path d="M1429,878 L1483,1331" stroke="blue" stroke-width="2" />
<path d="M480,1541 L1531,629" stroke="blue" stroke-width="2" />
<path d="M1610,565 L932,80" stroke="blue" stroke-width="2" />
<path d="M1215,244 L722,1366" stroke="blue" stroke-width="2" />
<path d="M958,678 L1356,330" stroke="blue" stroke-width="2" />
<path d="M1222,1109 L893,1455" stroke="blue" stroke-width="2" />
<path d="M1314,166 L1416,1693" stroke="blue" stroke-width="2" />
<path d="M1520,279 L1285,201" stroke="blue" stroke-width="2" />
<path d="M792,224 L1301,1512" stroke="blue" stroke-width="2" />
<path d="M600,931 L12,7" stroke="blue" stroke-width="2" />
<path d="M943,755 L765,586" stroke="blue" stroke-width="2" />
<path d="M1088,1356 L1361,1387" stroke="blue" stroke-width="2" />
<path d="M134,332 L112,1194" stroke="blue" stroke-width="2" />
<path d="M302,313 L997,262" stroke="blue" stroke-width="2" />
<path d="M1296,94 L1074,73" stroke="blue" stroke-width="2" />
<path d="M1067,376 L1119,560" stroke="blue" stroke-width="2" />
<path d="M1133,488 L973,1454" stroke="blue" stroke-width="2" />
<path d="M394,678 L1018,104" stroke="blue" stroke-width="2" />
<path d="M750,1732 L1593,1400" stroke="blue" stroke-width="2" />
<path d="M584,1351 L1600,395" stroke="blue" stroke-width="2" />
<path d="M181,1474 L882,1110" stroke="blue" stroke-width="2" />
<path d="M63,616 L519,1746" stroke="blue" stroke-width="2" />
<path d="M1221,1273 L1118,1514" stroke="blue" stroke-width="2" />
<path d="M609,1039 L1337,1245" stroke="blue" stroke-width="2" />
<path d="M946,1634 L1355,131" stroke="blue" stroke-width="2" />
<path d="M840,1607 L310,1165" stroke="blue" stroke-width="2" />
<path d="M289,508 L523,699" stroke="blue" stroke-width="2" />
<path d="M796,1514 L579,173" stroke="blue" stroke-width="2" />
<path d="M893,1534 L797,293" stroke="blue" stroke-width="2" />
<path d="M462,365 L1147,616" stroke="blue" stroke-width="2" />
<path d="M966,559 L64,559" stroke="blue" stroke-width="2" />
<path d="M477,224 L1189,880" stroke="blue" stroke-width="2" />
<path d="M652,331 L900,1794" stroke="blue" stroke-width="2" />
<path d="M481,1075 L1545,878" stroke="blue" stroke-width="2" />
<path d="M1583,1267 L827,1602" stroke="blue" stroke-width="2" />
<path d="M653,1607 L655,1643" stroke="blue" stroke-width="2" />
<path d="M1167,245 L850,59" stroke="blue" stroke-width="2" />
<path d="M649,1089 L104,1784" stroke="blue" stroke-width="2" />
<path d="M815,1355 L226,1427" stroke="blue" stroke-width="2" />
<path d="M1129,363 L1530,1441" stroke="blue" stroke-width="2" />
<path d="M34,604 L1302,109" stroke="blue" stroke-width="2" />
<path d="M1069,535 L971,889" stroke="blue" stroke-width="2" />
<path d="M1328,396 L967,1633" stroke="blue" stroke-width="2" />
<path d="M561,1434 L677,602" stroke="blue" stroke-width="2" />
<path d="M345,727 L540,322" stroke="blue" stroke-width="2" />
<path d="M9,471 L1007,641" stroke="blue" stroke-width="2" />
<path d="M538,1385 L1543,1336" stroke="blue" stroke-width="2" />
<path d="M128,645 L507,48" stroke="blue" stroke-width="2" />
<path d="M1286,897 L99,1342" stroke="blue" stroke-width="2" />
<path d="M867,62 L1483,1335" stroke="blue" stroke-width="2" />
<path d="M1267,1691 L1541,948" stroke="blue" stroke-width="2" />
<path d="M462,154 L56,716" stroke="blue" stroke-width="2" />
<path d="M183,1599 L1108,258" stroke="blue" stroke-width="2" />
<path d="M202,1028 L1063,801" stroke="blue" stroke-width="2" />
<path d="M682,433 L348,601" stroke="blue" stroke-width="2" />
<path d="M1393,535 L202,1380" stroke="blue" stroke-width="2" />
<path d="M832,764 L206,1590" stroke="blue" stroke-width="2" />
<path d="M721,1579 L337,979" stroke="blue" stroke-width="2" />
<path d="M859,1372 L407,11" stroke="blue" stroke-width="2" />
<path d="M1228,426 L1379,416" stroke="blue" stroke-width="2" />
<path d="M565,1234 L1433,259" stroke="blue" stroke-width="2" />
<path d="M483,329 L625,417" stroke="blue" stroke-width="2" />
<path d="M733,117 L1582,1528" stroke="blue" stroke-width="2" />
<path d="M1507,1212 L1215,907" stroke="blue" stroke-width="2" />
<path d="M305,1528 L1184,244" stroke="blue" stroke-width="2" />
<path d="M716,1165 L958,1151" stroke="blue" stroke-width="2" />
<path d="M1398,1667 L463,496" stroke="blue" stroke-width="2" />
<path d="M1000,19 L973,1573" stroke="blue" stroke-width="2" />
<path d="M1314,161 L598,1603" stroke="blue" stroke-width="2" />
<path d="M1588,818 L1108,531" stroke="blue" stroke-width="2" />
<path d="M1103,642 L1615,234" stroke="blue" stroke-width="2" />
<path d="M146,1466 L85,780" stroke="blue" stroke-width="2" />
<path d="M41,453 L1322,787" stroke="blue" stroke-width="2" />
<path d="M1198,809 L1293,1328" stroke="blue" stroke-width="2" />
<path d="M962,956 L624,488" stroke="blue" stroke-width="2" />
<path d="M635,1588 L1186,938" stroke="blue" stroke-width="2" />
<path d="M1435,680 L1181,1610" stroke="blue" stroke-width="2" />
<path d="M673,470 L651,668" stroke="blue" stroke-width="2" />
<path d="M629,387 L317,1075" stroke="blue" stroke-width="2" />
<path d="M1405,639 L669,665" stroke="blue" stroke-width="2" />
<path d="M550,193 L1462,1186" stroke="blue" stroke-width="2" />
<path d="M867,1525 L523,168" stroke="blue" stroke-width="2" />
<path d="M1121,527 L1354,1069" stroke="blue" stroke-width="2" />
<path d="M1460,1180 L930,1657" stroke="blue" stroke-width="2" />
<path d="M1461,958 L869,999" stroke="blue" stroke-width="2" />
<path d="M45,1685 L1628,539" stroke="blue" stroke-width="2" />
<path d="M961,1187 L229,364" stroke="blue" stroke-width="2" />
<path d="M1275,717 L1260,374" stroke="blue" stroke-width="2" />
<path d="M1548,1585 L1207,977" stroke="blue" stroke-width="2" />
<path d="M1244,880 L999,86" stroke="blue" stroke-width="2" />
<path d="M1383,1030 L711,1771" stroke="blue" stroke-width="2" />
<path d="M242,311 L1357,1234" stroke="blue" stroke-width="2" />
<path d="M842,190 L1520,823" stroke="blue" stroke-width="2" />
<path d="M97,749 L439,1141" stroke="blue" stroke-width="2" />
<path d="M1104,1743 L838,1157" stroke="blue" stroke-width="2" />
<path d="M364,1585 L59,1179" stroke="blue" stroke-width="2" />
<path d="M339,1228 L841,110" stroke="blue" stroke-width="2" />
<path d="M235,202 L1018,493" stroke="blue" stroke-width="2" />
<path d="M175,1584 L770,290" stroke="blue" stroke-width="2" />
<path d="M592,667 L330,889" stroke="blue" stroke-width="2" />
<path d="M894,151 L409,372" stroke="blue" stroke-width="2" />
<path d="M751,146 L1080,995" stroke="blue" stroke-width="2" />
<path d="M205,1653 L1374,798" stroke="blue" stroke-width="2" />
<path d="M1165,801 L17,1003" stroke="blue" stroke-width="2" />
<path d="M1332,1089 L1067,838" stroke="blue" stroke-width="2" />
<path d="M158,1476 L1497,1138" stroke="blue" stroke-width="2" />
<path d="M513,1120 L1276,1259" stroke="blue" stroke-width="2" />
<path d="M1554,1418 L1443,82" stroke="blue" stroke-width="2" />
<path d="M388,1708 L572,1504" stroke="blue" stroke-width="2" />
<path d="M1160,1395 L982,1640" stroke="blue" stroke-width="2" />
<path d="M478,1670 L315,216" stroke="blue" stroke-width="2" />
<path d="M1390,1739 L726,1338" stroke="blue" stroke-width="2" />
<path d="M1537,1650 L186,1471" stroke="blue" stroke-width="2" />
<path d="M1038,646 L237,865" stroke="blue" stroke-width="2" />
<path d="M232,1184 L177,1484" stroke="blue" stroke-width="2" />
<path d="M878,1339 L168,976" stroke="blue" stroke-width="2" />
<path d="M457,1579 L1230,1726" stroke="blue" stroke-width="2" />
<path d="M356,740 L1327,490" stroke="blue" stroke-width="2" />
<path d="M756,1747 L1144,1763" stroke="blue" stroke-width="2" />
<path d="M539,1440 L544,510" stroke="blue" stroke-width="2" />
<path d="M1437,1130 L1547,1374" stroke="blue" stroke-width="2" />
<path d="M1599,621 L614,1774" stroke="blue" stroke-width="2" />
<path d="M89,369 L65,167" stroke="blue" stroke-width="2" />
<path d="M57,1458 L689,1046" stroke="blue" stroke-width="2" />
<path d="M1045,133 L681,1561" stroke="blue" stroke-width="2" />
<path d="M731,824 L957,1794" stroke="blue" stroke-width="2" />
<path d="M1382,363 L1128,598" stroke="blue" stroke-width="2" />
<path d="M1199,286 L440,387" stroke="blue" stroke-width="2" />
<path d="M1166,1560 L656,149" stroke="blue" stroke-width="2" />
<path d="M1386,1353 L1327,971" stroke="blue" stroke-width="2" />
<path d="M905,1337 L201,1695" stroke="blue" stroke-width="2" />
<path d="M1257,841 L411,1629" stroke="blue" stroke-width="2" />
<path d="M623,1198 L922,90" stroke="blue" stroke-width="2" />
<path d="M1404,1754 L932,356" stroke="blue" stroke-width="2" />
<path d="M1054,566 L1051,135" stroke="blue" stroke-width="2" />
<path d="M294,149 L1511,667" stroke="blue" stroke-width="2" />
<path d="M1462,1586 L297,1441" stroke="blue" stroke-width="2" />
<path d="M413,447 L100,653" stroke="blue" stroke-width="2" />
<path d="M1062,1791 L520,786" stroke="blue" stroke-width="2" />
<path d="M194,1114 L1366,1405" stroke="blue" stroke-width="2" />
<path d="M1302,380 L1131,1363" stroke="blue" stroke-width="2" />
<path d="M410,84 L391,409" stroke="blue" stroke-width="2" />
<path d="M283,1096 L1274,423" stroke="blue" stroke-width="2" />
<path d="M895,22 L1548,1215" stroke="blue" stroke-width="2" />
<path d="M265,1181 L1042,515" stroke="blue" stroke-width="2" />
<path d="M901,221 L852,1778" stroke="blue" stroke-width="2" />
<path d="M1580,415 L923,290" stroke="blue" stroke-width="2" />
<path d="M1539,1725 L1126,1670" stroke="blue" stroke-width="2" />
<path d="M1345,1236 L783,547" stroke="blue" stroke-width="2" />
<path d="M1503,682 L998,337" stroke="blue" stroke-width="2" />
<path d="M874,1495 L653,1756" stroke="blue" stroke-width="2" />
<path d="M58,308 L1566,1619" stroke="blue" stroke-width="2" />
<path d="M1497,462 L1395,1017" stroke="blue" stroke-width="2" />
<path d="M282,530 L995,726" stroke="blue" stroke-width="2" />
<path d="M356,529 L955,1411" stroke="blue" stroke-width="2" />
<path d="M514,459 L819,9" stroke="blue" stroke-width="2" />
<path d="M62,1637 L1030,1406" stroke="blue" stroke-width="2" />
<path d="M676,39 L455,82" stroke="blue" stroke-width="2" />
<path d="M112,981 L1078,1409" stroke="blue" stroke-width="2" />
<path d="M143,1041 L1628,1782" stroke="blue" stroke-width="2" />
<path d="M423,325 L1250,236" stroke="blue" stroke-width="2" />
<path d="M1456,1149 L1339,282" stroke="blue" stroke-width="2" />
<path d="M419,866 L1253,1250" stroke="blue" stroke-width="2" />
<path d="M24,1148 L601,498" stroke="blue" stroke-width="2" />
<path d="M360,543 L511,420" stroke="blue" stroke-width="2" />
<path d="M754,978 L893,1698" stroke="blue" stroke-width="2" />
<path d="M1196,285 L408,679" stroke="blue" stroke-width="2" />
<path d="M378,617 L1046,544" stroke="blue" stroke-width="2" />
<path d="M912,943 L364,592" stroke="blue" stroke-width="2" />
<path d="M1556,1554 L1465,514" stroke="blue" stroke-width="2" />
<path d="M1518,1370 L1536,1235" stroke="blue" stroke-width="2" />
<path d="M390,1165 L630,140" stroke="blue" stroke-width="2" />
<path d="M154,828 L1063,287" stroke="blue" stroke-width="2" />
<path d="M1621,1142 L18,771" stroke="blue" stroke-width="2" />
<path d="M668,1613 L883,1614" stroke="blue" stroke-width="2" />
<path d="M205,427 L849,878" stroke="blue" stroke-width="2" />
<path d="M124,1114 L653,1778" stroke="blue" stroke-width="2" />
<path d="M684,1671 L247,1683" stroke="blue" stroke-width="2" />
<path d="M1038,1243 L1423,795" stroke="blue" stroke-width="2" />
<path d="M1351,1442 L993,182" stroke="blue" stroke-width="2" />
<path d="M1600,859 L1204,1195" stroke="blue" stroke-width="2" />
<path d="M205,741 L846,968" stroke="blue" stroke-width="2" />
<path d="M528,1140 L160,1349" stroke="blue" stroke-width="2" />
<path d="M152,477 L407,231" stroke="blue" stroke-width="2" />
<path d="M1424,420 L203,40" stroke="blue" stroke-width="2" />
<path d="M1203,1606 L1107,1602" stroke="blue" stroke-width="2" />
<path d="M1028,398 L837,485" stroke="blue" stroke-width="2" />
<path d="M980,870 L339,1474" stroke="blue" stroke-width="2" />
<path d="M416,723 L705,205" stroke="blue" stroke-width="2" />
<path d="M283,469 L657,1146" stroke="blue" stroke-width="2" />
<path d="M359,1783 L222,1414" stroke="blue" stroke-width="2" />
<path d="M928,31 L378,999" stroke="blue" stroke-width="2" />
<path d="M1278,1341 L912,1358" stroke="blue" stroke-width="2" />
<path d="M646,1238 L297,1199" stroke="blue" stroke-width="2" />
<path d="M710,1039 L295,554" stroke="blue" stroke-width="2" />
<path d="M426,860 L413,1755" stroke="blue" stroke-width="2" />
<path d="M1526,148 L472,763" stroke="blue" stroke-width="2" />
<path d="M253,998 L1093,171" stroke="blue" stroke-width="2" />
<path d="M664,437 L167,1636" stroke="blue" stroke-width="2" />
<path d="M1180,1355 L1439,430" stroke="blue" stroke-width="2" />
<path d="M1461,1303 L1244,1567" stroke="blue" stroke-width="2" />
<path d="M965,656 L1290,178" stroke="blue" stroke-width="2" />
<path d="M933,517 L1188,894" stroke="blue" stroke-width="2" />
<path d="M714,33 L1524,925" stroke="blue" stroke-width="2" />
<path d="M1312,1082 L1445,524" stroke="blue" stroke-width="2" />
<path d="M893,32 L1377,1598" stroke="blue" stroke-width="2" />
<path d="M20,1635 L1470,328" stroke="blue" stroke-width="2" />
<path d="M418,564 L1105,913" stroke="blue" stroke-width="2" />
<path d="M343,1545 L1315,186" stroke="blue" stroke-width="2" />
<path d="M771,1328 L625,1078" stroke="blue" stroke-width="2" />
<path d="M306,14 L198,1452" stroke="blue" stroke-width="2" />
<path d="M844,525 L157,507" stroke="blue" stroke-width="2" />
<path d="M1594,1535 L1485,1426" stroke="blue" stroke-width="2" />
<path d="M175,1298 L811,1744" stroke="blue" stroke-width="2" />
<path d="M330,806 L910,1022" stroke="blue" stroke-width="2" />
<path d="M875,443 L1349,926" stroke="blue" stroke-width="2" />
<path d="M1256,112 L1462,931" stroke="blue" stroke-width="2" />
<path d="M1048,882 L334,1402" stroke="blue" stroke-width="2" />
<path d="M0,0 L1634,0" stroke="red" stroke-width="10" />
<path d="M1634,0 L1634,1800" stroke="red" stroke-width="10" />
<path d="M0,1800 L1634,1800" stroke="red" stroke-width="10" />
<path d="M0,1800 L0,0" stroke="red" stroke-width="10" />
</svg>