<?xml version="1.0" encoding="UTF-8"?>
<svg xmlns="http://www.w3.org/2000/svg" xmlns:xlink="http://www.w3.org/1999/xlink"
     width="10000" height="10000" viewBox="0 0 10000 10000">
<defs>
</defs>
<path d="M2914,1171 L6748,2452" stroke="blue" stroke-width="2" />
<path d="M525,8461 L5771,7045" stroke="blue" stroke-width="2" />
<path d="M4671,6470 L4979,4301" stroke="blue" stroke-width="2" />
<path d="M3569,5539 L5827,5977" stroke="blue" stroke-width="2" />
<path d="M6104,3789 L643,6161" stroke="blue" stroke-width="2" />
<path d="M4311,5855 L4023,6420" stroke="blue" stroke-width="2" />
<path d="M5186,4475 L2616,3519" stroke="blue" stroke-width="2" />
<path d="M789,650 L2434,7037" stroke="blue" stroke-width="2" />
<path d="M315,4199 L2033,5670" stroke="blue" stroke-width="2" />
<path d="M5265,7125 L917,5996" stroke="blue" stroke-width="2" />
<path d="M727,5879 L4164,3896" stroke="blue" stroke-width="2" />
<path d="M4206,6424 L5959,675" stroke="blue" stroke-width="2" />
<path d="M1639,5213 L3106,1195" stroke="blue" stroke-width="2" />
<path d="M5865,4569 L1573,8455" stroke="blue" stroke-width="2" />
<path d="M0,0 L7108,0" stroke="red" stroke-width="10" />
<path d="M7108,0 L7108,8796" stroke="red" stroke-width="10" />
<path d="M0,8796 L7108,8796" stroke="red" stroke-width="10" />
<path d="M0,8796 L0,0" stroke="red" stroke-width="10" />
</svg>