<?xml version="1.0" encoding="UTF-8"?>
<svg xmlns="http://www.w3.org/2000/svg" xmlns:xlink="http://www.w3.org/1999/xlink"
     width="10000" height="10000" viewBox="0 0 10000 10000">
<defs>
</defs>
<path d="M569,637 L29,1915" stroke="blue" stroke-width="2" />
<path d="M97,1730 L1761,880" stroke="blue" stroke-width="2" />
<path d="M1821,1666 L1453,705" stroke="blue" stroke-width="2" />
<path d="M758,2019 L1003,1352" stroke="blue" stroke-width="2" />
<path d="M1304,2341 L1984,1406" stroke="blue" stroke-width="2" />
<path d="M772,1034 L1864,669" stroke="blue" stroke-width="2" />
<path d="M890,1923 L833,1606" stroke="blue" stroke-width="2" />
<path d="M4,2514 L69,1479" stroke="blue" stroke-width="2" />
<path d="M2277,1785 L676,1768" stroke="blue" stroke-width="2" />
<path d="M1339,538 L273,1259" stroke="blue" stroke-width="2" />
<path d="M393,2687 L1964,1341" stroke="blue" stroke-width="2" />
<path d="M688,179 L735,417" stroke="blue" stroke-width="2" />
<path d="M693,1647 L1413,1595" stroke="blue" stroke-width="2" />
<path d="M908,1479 L1264,496" stroke="blue" stroke-width="2" />
<path d="M363,1018 L2195,1596" stroke="blue" stroke-width="2" />
<path d="M402,2151 L2262,2064" stroke="blue" stroke-width="2" />
<path d="M1355,813 L1874,2109" stroke="blue" stroke-width="2" />
<path d="M738,597 L452,467" stroke="blue" stroke-width="2" />
<path d="M427,382 L997,330" stroke="blue" stroke-width="2" />
<path d="M450,1334 L1179,1728" stroke="blue" stroke-width="2" />
<path d="M1096,1833 L2070,356" stroke="blue" stroke-width="2" />
<path d="M1061,1326 L2395,1922" stroke="blue" stroke-width="2" />
<path d="M210,1214 L126,1579" stroke="blue" stroke-width="2" />
<path d="M307,2557 L933,1881" stroke="blue" stroke-width="2" />
<path d="M1952,2368 L170,1166" stroke="blue" stroke-width="2" />
<path d="M707,1848 L1501,1639" stroke="blue" stroke-width="2" />
<path d="M2287,946 L2375,98" stroke="blue" stroke-width="2" />
<path d="M530,1419 L1279,2487" stroke="blue" stroke-width="2" />
<path d="M767,2014 L2293,801" stroke="blue" stroke-width="2" />
<path d="M1455,2133 L1857,2105" stroke="blue" stroke-width="2" />
<path d="M975,1310 L1249,1594" stroke="blue" stroke-width="2" />
<path d="M1305,230 L2339,398" stroke="blue" stroke-width="2" />
<path d="M1005,2425 L1932,509" stroke="blue" stroke-width="2" />
<path d="M1934,918 L2326,819" stroke="blue" stroke-width="2" />
<path d="M2188,1362 L580,14" stroke="blue" stroke-width="2" />
<path d="M38,2687 L2066,1172" stroke="blue" stroke-width="2" />
<path d="M744,1077 L2015,700" stroke="blue" stroke-width="2" />
<path d="M1649,100 L1415,686" stroke="blue" stroke-width="2" />
<path d="M1501,719 L2128,1717" stroke="blue" stroke-width="2" />
<path d="M2262,1837 L2231,2523" stroke="blue" stroke-width="2" />
<path d="M779,390 L704,167" stroke="blue" stroke-width="2" />
<path d="M538,635 L367,1247" stroke="blue" stroke-width="2" />
<path d="M206,1584 L444,291" stroke="blue" stroke-width="2" />
<path d="M653,2076 L1229,2359" stroke="blue" stroke-width="2" />
<path d="M1715,2212 L18,1135" stroke="blue" stroke-width="2" />
<path d="M2296,2132 L1384,1986" stroke="blue" stroke-width="2" />
<path d="M330,2020 L1799,447" stroke="blue" stroke-width="2" />
<path d="M2214,2062 L1112,1338" stroke="blue" stroke-width="2" />
<path d="M2278,1890 L607,305" stroke="blue" stroke-width="2" />
<path d="M2288,2520 L646,1046" stroke="blue" stroke-width="2" />
<path d="M1534,1187 L1222,1936" stroke="blue" stroke-width="2" />
<path d="M1700,1673 L356,227" stroke="blue" stroke-width="2" />
<path d="M1620,1151 L381,2340" stroke="blue" stroke-width="2" />
<path d="M1023,1364 L1370,1924" stroke="blue" stroke-width="2" />
<path d="M1963,2347 L13,816" stroke="blue" stroke-width="2" />
<path d="M622,842 L248,92" stroke="blue" stroke-width="2" />
<path d="M521,2510 L1598,912" stroke="blue" stroke-width="2" />
<path d="M1580,869 L387,2114" stroke="blue" stroke-width="2" />
<path d="M143,2439 L1722,2157" stroke="blue" stroke-width="2" />
<path d="M1322,2491 L1636,716" stroke="blue" stroke-width="2" />
<path d="M1854,1449 L16,1276" stroke="blue" stroke-width="2" />
<path d="M1995,737 L1284,1005" stroke="blue" stroke-width="2" />
<path d="M328,1335 L1982,2505" stroke="blue" stroke-width="2" />
<path d="M713,1338 L1758,1409" stroke="blue" stroke-width="2" />
<path d="M1730,1423 L1564,1830" stroke="blue" stroke-width="2" />
<path d="M1313,1169 L1796,606" stroke="blue" stroke-width="2" />
<path d="M192,2146 L1941,2293" stroke="blue" stroke-width="2" />
<path d="M1067,1290 L149,2496" stroke="blue" stroke-width="2" />
<path d="M1952,640 L2066,1078" stroke="blue" stroke-width="2" />
<path d="M665,1289 L198,1192" stroke="blue" stroke-width="2" />
<path d="M2351,2147 L929,1011" stroke="blue" stroke-width="2" />
<path d="M90,1352 L1918,24" stroke="blue" stroke-width="2" />
<path d="M1522,2295 L2272,109" stroke="blue" stroke-width="2" />
<path d="M1270,2448 L2338,1371" stroke="blue" stroke-width="2" />
<path d="M1363,239 L49,1269" stroke="blue" stroke-width="2" />
<path d="M1936,333 L172,2587" stroke="blue" stroke-width="2" />
<path d="M2338,75 L53,749" stroke="blue" stroke-width="2" />
<path d="M749,36 L1589,2662" stroke="blue" stroke-width="2" />
<path d="M58,1731 L1642,542" stroke="blue" stroke-width="2" />
<path d="M539,14 L1445,470" stroke="blue" stroke-width="2" />
<path d="M280,2062 L878,1514" stroke="blue" stroke-width="2" />
<path d="M1322,409 L833,1377" stroke="blue" stroke-width="2" />
<path d="M1005,2036 L542,2121" stroke="blue" stroke-width="2" />
<path d="M1498,1168 L788,552" stroke="blue" stroke-width="2" />
<path d="M1478,1082 L812,124" stroke="blue" stroke-width="2" />
<path d="M830,1005 L1032,1507" stroke="blue" stroke-width="2" />
<path d="M2397,918 L227,2695" stroke="blue" stroke-width="2" />
<path d="M2114,1532 L1758,420" stroke="blue" stroke-width="2" />
<path d="M925,355 L1049,858" stroke="blue" stroke-width="2" />
<path d="M2359,989 L1536,1337" stroke="blue" stroke-width="2" />
<path d="M737,1336 L1082,453" stroke="blue" stroke-width="2" />
<path d="M2184,2701 L1933,1960" stroke="blue" stroke-width="2" />
<path d="M2204,2319 L1191,920" stroke="blue" stroke-width="2" />
<path d="M786,2522 L1150,1620" stroke="blue" stroke-width="2" />
<path d="M161,1520 L387,541" stroke="blue" stroke-width="2" />
<path d="M928,340 L2130,2483" stroke="blue" stroke-width="2" />
<path d="M465,475 L628,107" stroke="blue" stroke-width="2" />
<path d="M593,1343 L373,2347" stroke="blue" stroke-width="2" />
<path d="M779,170 L1552,2460" stroke="blue" stroke-width="2" />
<path d="M798,1830 L1254,2636" stroke="blue" stroke-width="2" />
<path d="M797,1679 L1035,2007" stroke="blue" stroke-width="2" />
<path d="M303,1068 L539,2097" stroke="blue" stroke-width="2" />
<path d="M169,1624 L297,560" stroke="blue" stroke-width="2" />
<path d="M553,1349 L1343,1089" stroke="blue" stroke-width="2" />
<path d="M782,2362 L1175,2228" stroke="blue" stroke-width="2" />
<path d="M1047,1766 L721,1782" stroke="blue" stroke-width="2" />
<path d="M854,1382 L1520,149" stroke="blue" stroke-width="2" />
<path d="M1233,1112 L1981,1122" stroke="blue" stroke-width="2" />
<path d="M485,2300 L1448,403" stroke="blue" stroke-width="2" />
<path d="M1253,596 L159,1876" stroke="blue" stroke-width="2" />
<path d="M2281,1688 L791,883" stroke="blue" stroke-width="2" />
<path d="M1840,2027 L680,946" stroke="blue" stroke-width="2" />
<path d="M1341,2274 L2028,2441" stroke="blue" stroke-width="2" />
<path d="M1742,1852 L1791,2501" stroke="blue" stroke-width="2" />
<path d="M1865,1981 L1815,305" stroke="blue" stroke-width="2" />
<path d="M1955,816 L454,2558" stroke="blue" stroke-width="2" />
<path d="M2079,2390 L451,2497" stroke="blue" stroke-width="2" />
<path d="M2074,39 L1121,845" stroke="blue" stroke-width="2" />
<path d="M2053,1904 L1214,828" stroke="blue" stroke-width="2" />
<path d="M451,2644 L674,323" stroke="blue" stroke-width="2" />
<path d="M1874,2025 L776,1391" stroke="blue" stroke-width="2" />
<path d="M1345,925 L269,100" stroke="blue" stroke-width="2" />
<path d="M2389,2383 L845,1489" stroke="blue" stroke-width="2" />
<path d="M2037,559 L1950,756" stroke="blue" stroke-width="2" />
<path d="M400,1661 L1093,2559" stroke="blue" stroke-width="2" />
<path d="M2277,1743 L1726,2500" stroke="blue" stroke-width="2" />
<path d="M1682,1639 L2167,153" stroke="blue" stroke-width="2" />
<path d="M409,621 L264,460" stroke="blue" stroke-width="2" />
<path d="M741,1849 L418,499" stroke="blue" stroke-width="2" />
<path d="M459,896 L2058,1908" stroke="blue" stroke-width="2" />
<path d="M1402,2529 L1952,2649" stroke="blue" stroke-width="2" />
<path d="M2154,250 L523,1361" stroke="blue" stroke-width="2" />
<path d="M402,2409 L1009,2347" stroke="blue" stroke-width="2" />
<path d="M409,2469 L625,1429" stroke="blue" stroke-width="2" />
<path d="M160,128 L1235,1729" stroke="blue" stroke-width="2" />
<path d="M132,245 L615,1708" stroke="blue" stroke-width="2" />
<path d="M1027,972 L400,2104" stroke="blue" stroke-width="2" />
<path d="M2316,1196 L1616,265" stroke="blue" stroke-width="2" />
<path d="M1560,1824 L640,2585" stroke="blue" stroke-width="2" />
<path d="M1273,527 L1281,2124" stroke="blue" stroke-width="2" />
<path d="M1639,2364 L1958,830" stroke="blue" stroke-width="2" />
<path d="M1836,2126 L898,791" stroke="blue" stroke-width="2" />
<path d="M126,2635 L662,1353" stroke="blue" stroke-width="2" />
<path d="M1710,1583 L240,290" stroke="blue" stroke-width="2" />
<path d="M411,2106 L764,1198" stroke="blue" stroke-width="2" />
<path d="M1944,1359 L2161,2157" stroke="blue" stroke-width="2" />
<path d="M422,1581 L1080,491" stroke="blue" stroke-width="2" />
<path d="M116,1849 L1030,328" stroke="blue" stroke-width="2" />
<path d="M1086,1902 L146,2411" stroke="blue" stroke-width="2" />
<path d="M337,1985 L2003,487" stroke="blue" stroke-width="2" />
<path d="M1868,1395 L2319,1021" stroke="blue" stroke-width="2" />
<path d="M1168,1140 L1456,1804" stroke="blue" stroke-width="2" />
<path d="M624,2467 L1268,1002" stroke="blue" stroke-width="2" />
<path d="M245,2472 L1538,2221" stroke="blue" stroke-width="2" />
<path d="M1365,294 L23,716" stroke="blue" stroke-width="2" />
<path d="M2396,616 L835,2527" stroke="blue" stroke-width="2" />
<path d="M1249,2166 L267,1831" stroke="blue" stroke-width="2" />
<path d="M674,1911 L828,2432" stroke="blue" stroke-width="2" />
<path d="M1429,1384 L2006,1762" stroke="blue" stroke-width="2" />
<path d="M1085,831 L1997,1239" stroke="blue" stroke-width="2" />
<path d="M130,2044 L791,431" stroke="blue" stroke-width="2" />
<path d="M2280,2282 L392,1864" stroke="blue" stroke-width="2" />
<path d="M892,1761 L646,1431" stroke="blue" stroke-width="2" />
<path d="M1425,632 L14,1741" stroke="blue" stroke-width="2" />
<path d="M48,1772 L159,2370" stroke="blue" stroke-width="2" />
<path d="M868,720 L1990,2253" stroke="blue" stroke-width="2" />
<path d="M1156,1007 L1939,1137" stroke="blue" stroke-width="2" />
<path d="M1914,1475 L1552,544" stroke="blue" stroke-width="2" />
<path d="M173,176 L416,265" stroke="blue" stroke-width="2" />
<path d="M1422,2145 L1703,543" stroke="blue" stroke-width="2" />
<path d="M1182,217 L827,581" stroke="blue" stroke-width="2" />
<path d="M1811,2153 L1962,1686" stroke="blue" stroke-width="2" />
<path d="M519,1460 L158,1275" stroke="blue" stroke-width="2" />
<path d="M541,33 L465,1606" stroke="blue" stroke-width="2" />
<path d="M2284,449 L571,132" stroke="blue" stroke-width="2" />
<path d="M1576,368 L986,674" stroke="blue" stroke-width="2" />
<path d="M508,1187 L1417,1010" stroke="blue" stroke-width="2" />
<path d="M2251,2 L1020,904" stroke="blue" stroke-width="2" />
<path d="M2059,1274 L74,137" stroke="blue" stroke-width="2" />
<path d="M851,930 L207,787" stroke="blue" stroke-width="2" />
<path d="M160,2410 L901,1993" stroke="blue" stroke-width="2" />
<path d="M2313,1979 L800,1480" stroke="blue" stroke-width="2" />
<path d="M379,304 L2358,77" stroke="blue" stroke-width="2" />
<path d="M2202,958 L1702,727" stroke="blue" stroke-width="2" />
<path d="M573,2636 L1025,727" stroke="blue" stroke-width="2" />
<path d="M63,2484 L2177,2049" stroke="blue" stroke-width="2" />
<path d="M503,2250 L1018,293" stroke="blue" stroke-width="2" />
<path d="M1605,1473 L375,1696" stroke="blue" stroke-width="2" />
<path d="M2122,1860 L2342,1600" stroke="blue" stroke-width="2" />
<path d="M494,1449 L1543,849" stroke="blue" stroke-width="2" />
<path d="M2104,268 L9,1461" stroke="blue" stroke-width="2" />
<path d="M2085,2058 L1918,2361" stroke="blue" stroke-width="2" />
<path d="M729,1835 L1636,2269" stroke="blue" stroke-width="2" />
<path d="M1442,1123 L1732,1436" stroke="blue" stroke-width="2" />
<path d="M1114,136 L1516,736" stroke="blue" stroke-width="2" />
<path d="M116,850 L1669,2365" stroke="blue" stroke-width="2" />
<path d="M909,1287 L2274,1810" stroke="blue" stroke-width="2" />
<path d="M1320,2704 L2378,1664" stroke="blue" stroke-width="2" />
<path d="M250,418 L2242,541" stroke="blue" stroke-width="2" />
<path d="M2128,126 L374,184" stroke="blue" stroke-width="2" />
<path d="M1274,127 L1620,422" stroke="blue" stroke-width="2" />
<path d="M1676,2534 L886,2517" stroke="blue" stroke-width="2" />
<path d="M339,342 L2036,2031" stroke="blue" stroke-width="2" />
<path d="M2280,2379 L1022,2414" stroke="blue" stroke-width="2" />
<path d="M1247,1903 L2282,752" stroke="blue" stroke-width="2" />
<path d="M1398,1206 L1598,1977" stroke="blue" stroke-width="2" />
<path d="M2161,210 L188,1822" stroke="blue" stroke-width="2" />
<path d="M1792,1444 L343,876" stroke="blue" stroke-width="2" />
<path d="M1805,1250 L507,1396" stroke="blue" stroke-width="2" />
<path d="M2391,53 L1767,968" stroke="blue" stroke-width="2" />
<path d="M2225,2223 L757,189" stroke="blue" stroke-width="2" />
<path d="M2394,125 L2259,282" stroke="blue" stroke-width="2" />
<path d="M414,117 L678,1942" stroke="blue" stroke-width="2" />
<path d="M861,1353 L572,2094" stroke="blue" stroke-width="2" />
<path d="M1596,1563 L889,2079" stroke="blue" stroke-width="2" />
<path d="M1011,1144 L1690,1469" stroke="blue" stroke-width="2" />
<path d="M2343,652 L1621,2478" stroke="blue" stroke-width="2" />
<path d="M2082,726 L1996,696" stroke="blue" stroke-width="2" />
<path d="M1694,2366 L2217,1297" stroke="blue" stroke-width="2" />
<path d="M1518,2060 L457,322" stroke="blue" stroke-width="2" />
<path d="M418,1771 L633,561" stroke="blue" stroke-width="2" />
<path d="M917,1317 L22,2640" stroke="blue" stroke-width="2" />
<path d="M2031,1098 L1804,1325" stroke="blue" stroke-width="2" />
<path d="M796,2464 L1448,1233" stroke="blue" stroke-width="2" />
<path d="M769,156 L2288,1329" stroke="blue" stroke-width="2" />
<path d="M519,154 L1920,2445" stroke="blue" stroke-width="2" />
<path d="M1859,2670 L1358,866" stroke="blue" stroke-width="2" />
<path d="M1730,2445 L286,2605" stroke="blue" stroke-width="2" />
<path d="M2174,477 L1377,620" stroke="blue" stroke-width="2" />
<path d="M500,185 L1153,426" stroke="blue" stroke-width="2" />
<path d="M845,1494 L928,1527" stroke="blue" stroke-width="2" />
<path d="M1146,1550 L1016,770" stroke="blue" stroke-width="2" />
<path d="M183,675 L1508,1675" stroke="blue" stroke-width="2" />
<path d="M271,2086 L1762,297" stroke="blue" stroke-width="2" />
<path d="M962,183 L1952,314" stroke="blue" stroke-width="2" />
<path d="M2362,2365 L1050,2405" stroke="blue" stroke-width="2" />
<path d="M358,2223 L287,2660" stroke="blue" stroke-width="2" />
<path d="M968,2601 L2050,266" stroke="blue" stroke-width="2" />
<path d="M2269,152 L609,1156" stroke="blue" stroke-width="2" />
<path d="M985,53 L579,1752" stroke="blue" stroke-width="2" />
<path d="M788,1531 L1266,1926" stroke="blue" stroke-width="2" />
<path d="M1340,2106 L1169,462" stroke="blue" stroke-width="2" />
<path d="M39,2477 L1997,496" stroke="blue" stroke-width="2" />
<path d="M2289,1834 L907,579" stroke="blue" stroke-width="2" />
<path d="M1641,1509 L1093,1020" stroke="blue" stroke-width="2" />
<path d="M1573,1200 L1227,2324" stroke="blue" stroke-width="2" />
<path d="M1183,2020 L2165,1093" stroke="blue" stroke-width="2" />
<path d="M2249,1227 L1880,1236" stroke="blue" stroke-width="2" />
<path d="M472,2605 L575,1659" stroke="blue" stroke-width="2" />
<path d="M1026,2639 L934,1283" stroke="blue" stroke-width="2" />
<path d="M83,401 L792,803" stroke="blue" stroke-width="2" />
<path d="M448,1335 L1885,2020" stroke="blue" stroke-width="2" />
<path d="M334,2563 L1031,1907" stroke="blue" stroke-width="2" />
<path d="M89,110 L1277,1198" stroke="blue" stroke-width="2" />
<path d="M1770,1899 L884,2475" stroke="blue" stroke-width="2" />
<path d="M1409,2407 L1415,1416" stroke="blue" stroke-width="2" />
<path d="M1802,96 L937,1427" stroke="blue" stroke-width="2" />
<path d="M1011,1306 L359,900" stroke="blue" stroke-width="2" />
<path d="M1011,2118 L1797,976" stroke="blue" stroke-width="2" />
<path d="M939,2664 L1275,2298" stroke="blue" stroke-width="2" />
<path d="M1588,453 L500,377" stroke="blue" stroke-width="2" />
<path d="M205,704 L2306,2298" stroke="blue" stroke-width="2" />
<path d="M1108,749 L37,1358" stroke="blue" stroke-width="2" />
<path d="M806,1624 L1977,1414" stroke="blue" stroke-width="2" />
<path d="M1188,313 L1722,1843" stroke="blue" stroke-width="2" />
<path d="M2115,221 L2340,296" stroke="blue" stroke-width="2" />
<path d="M2086,2586 L1662,562" stroke="blue" stroke-width="2" />
<path d="M774,1972 L1532,1267" stroke="blue" stroke-width="2" />
<path d="M2214,1035 L2033,2694" stroke="blue" stroke-width="2" />
<path d="M1233,1162 L93,688" stroke="blue" stroke-width="2" />
<path d="M1085,2535 L839,2638" stroke="blue" stroke-width="2" />
<path d="M2094,2344 L1221,1463" stroke="blue" stroke-width="2" />
<path d="M1184,1969 L1891,2002" stroke="blue" stroke-width="2" />
<path d="M370,776 L2281,1484" stroke="blue" stroke-width="2" />
<path d="M683,2220 L2123,2066" stroke="blue" stroke-width="2" />
<path d="M1678,947 L248,1867" stroke="blue" stroke-width="2" />
<path d="M1935,2406 L1584,1540" stroke="blue" stroke-width="2" />
<path d="M241,1057 L1210,1062" stroke="blue" stroke-width="2" />
<path d="M1785,1978 L2303,1992" stroke="blue" stroke-width="2" />
<path d="M31,2405 L2290,916" stroke="blue" stroke-width="2" />
<path d="M1921,389 L1843,66" stroke="blue" stroke-width="2" />
<path d="M1307,2333 L2088,2661" stroke="blue" stroke-width="2" />
<path d="M2399,2563 L327,422" stroke="blue" stroke-width="2" />
<path d="M924,724 L1303,1524" stroke="blue" stroke-width="2" />
<path d="M1530,1513 L803,370" stroke="blue" stroke-width="2" />
<path d="M593,2587 L2286,2522" stroke="blue" stroke-width="2" />
<path d="M533,139 L43,941" stroke="blue" stroke-width="2" />
<path d="M1110,2359 L2220,2237" stroke="blue" stroke-width="2" />
<path d="M45,2341 L1783,228" stroke="blue" stroke-width="2" />
<path d="M578,2250 L605,1135" stroke="blue" stroke-width="2" />
<path d="M577,1049 L1949,2662" stroke="blue" stroke-width="2" />
<path d="M189,2317 L1222,891" stroke="blue" stroke-width="2" />
<path d="M1288,1354 L819,1261" stroke="blue" stroke-width="2" />
<path d="M1663,2132 L2143,2256" stroke="blue" stroke-width="2" />
<path d="M1822,1325 L1839,115" stroke="blue" stroke-width="2" />
<path d="M193,683 L1757,2536" stroke="blue" stroke-width="2" />
<path d="M1186,1380 L866,253" stroke="blue" stroke-width="2" />
<path d="M2132,1863 L373,2694" stroke="blue" stroke-width="2" />
<path d="M2282,1932 L690,2069" stroke="blue" stroke-width="2" />
<path d="M1294,2107 L185,337" stroke="blue" stroke-width="2" />
<path d="M1559,1540 L1125,2156" stroke="blue" stroke-width="2" />
<path d="M2329,2653 L2170,1120" stroke="blue" stroke-width="2" />
<path d="M2086,321 L2074,2017" stroke="blue" stroke-width="2" />
<path d="M1584,2675 L617,241" stroke="blue" stroke-width="2" />
<path d="M312,2358 L244,1497" stroke="blue" stroke-width="2" />
<path d="M2024,2033 L1572,1614" stroke="blue" stroke-width="2" />
<path d="M519,1054 L778,2196" stroke="blue" stroke-width="2" />
<path d="M1131,1228 L1814,1683" stroke="blue" stroke-width="2" />
<path d="M1570,198 L1053,2330" stroke="blue" stroke-width="2" />
<path d="M2396,1338 L1793,2517" stroke="blue" stroke-width="2" />
<path d="M1734,1862 L835,37" stroke="blue" stroke-width="2" />
<path d="M97,131 L212,2381" stroke="blue" stroke-width="2" />
<path d="M840,293 L1635,1934" stroke="blue" stroke-width="2" />
<path d="M2267,2552 L602,840" stroke="blue" stroke-width="2" />
<path d="M1941,580 L1021,1171" stroke="blue" stroke-width="2" />
<path d="M1872,1878 L1331,2000" stroke="blue" stroke-width="2" />
<path d="M2302,1401 L1746,1941" stroke="blue" stroke-width="2" />
<path d="M1568,1601 L630,820" stroke="blue" stroke-width="2" />
<path d="M617,1201 L2380,1555" stroke="blue" stroke-width="2" />
<path d="M914,1620 L744,675" stroke="blue" stroke-width="2" />
<path d="M2153,787 L1877,1457" stroke="blue" stroke-width="2" />
<path d="M1572,992 L82,1709" stroke="blue" stroke-width="2" />
<path d="M1786,339 L1488,808" stroke="blue" stroke-width="2" />
<path d="M519,977 L1450,523" stroke="blue" stroke-width="2" />
<path d="M948,2510 L1503,624" stroke="blue" stroke-width="2" />
<path d="M1122,2160 L2278,309" stroke="blue" stroke-width="2" />
<path d="M860,640 L1986,2272" stroke="blue" stroke-width="2" />
<path d="M1821,919 L1085,1999" stroke="blue" stroke-width="2" />
<path d="M1831,2194 L987,1763" stroke="blue" stroke-width="2" />
<path d="M1537,443 L225,1149" stroke="blue" stroke-width="2" />
<path d="M1885,2322 L1348,1768" stroke="blue" stroke-width="2" />
<path d="M1979,2288 L1714,2653" stroke="blue" stroke-width="2" />
<path d="M2191,903 L193,692" stroke="blue" stroke-width="2" />
<path d="M2330,1135 L769,1409" stroke="blue" stroke-width="2" />
<path d="M928,491 L692,205" stroke="blue" stroke-width="2" />
<path d="M178,1507 L1213,1234" stroke="blue" stroke-width="2" />
<path d="M420,588 L597,608" stroke="blue" stroke-width="2" />
<path d="M2020,76 L465,39" stroke="blue" stroke-width="2" />
<path d="M32,813 L303,855" stroke="blue" stroke-width="2" />
<path d="M95,376 L464,359" stroke="blue" stroke-width="2" />
<path d="M1035,206 L208,1573" stroke="blue" stroke-width="2" />
<path d="M554,1547 L1804,1316" stroke="blue" stroke-width="2" />
<path d="M854,1485 L1954,2570" stroke="blue" stroke-width="2" />
<path d="M1402,1690 L293,1879" stroke="blue" stroke-width="2" />
<path d="M601,1502 L548,671" stroke="blue" stroke-width="2" />
<path d="M233,1945 L2355,223" stroke="blue" stroke-width="2" />
<path d="M816,2250 L2156,2619" stroke="blue" stroke-width="2" />
<path d="M363,2044 L1,2614" stroke="blue" stroke-width="2" />
<path d="M1057,1492 L1911,1516" stroke="blue" stroke-width="2" />
<path d="M1714,946 L776,2025" stroke="blue" stroke-width="2" />
<path d="M1647,455 L1934,1241" stroke="blue" stroke-width="2" />
<path d="M1716,1056 L507,2701" stroke="blue" stroke-width="2" />
<path d="M2050,2687 L1173,2022" stroke="blue" stroke-width="2" />
<path d="M1046,2059 L2075,2660" stroke="blue" stroke-width="2" />
<path d="M1975,296 L1889,1541" stroke="blue" stroke-width="2" />
<path d="M320,722 L257,880" stroke="blue" stroke-width="2" />
<path d="M2265,1781 L1082,277" stroke="blue" stroke-width="2" />
<path d="M1286,2077 L196,1638" stroke="blue" stroke-width="2" />
<path d="M2201,2283 L620,1185" stroke="blue" stroke-width="2" />
<path d="M626,938 L658,1921" stroke="blue" stroke-width="2" />
<path d="M2250,394 L1363,893" stroke="blue" stroke-width="2" />
<path d="M405,511 L885,2613" stroke="blue" stroke-width="2" />
<path d="M415,2098 L1679,2679" stroke="blue" stroke-width="2" />
<path d="M459,596 L566,1311" stroke="blue" stroke-width="2" />
<path d="M2027,1921 L484,1655" stroke="blue" stroke-width="2" />
<path d="M2225,311 L1054,1468" stroke="blue" stroke-width="2" />
<path d="M2008,1197 L485,2203" stroke="blue" stroke-width="2" />
<path d="M534,671 L546,2337" stroke="blue" stroke-width="2" />
<path d="M1636,187 L2150,91" stroke="blue" stroke-width="2" />
<path d="M178,2678 L1681,1031" stroke="blue" stroke-width="2" />
<path d="M2044,380 L1307,1258" stroke="blue" stroke-width="2" />
<path d="M423,975 L542,2651" stroke="blue" stroke-width="2" />
<path d="M943,570 L208,419" stroke="blue" stroke-width="2" />
<path d="M793,2169 L915,2207" stroke="blue" stroke-width="2" />
<path d="M1273,31 L1683,1402" stroke="blue" stroke-width="2" />
<path d="M555,1814 L1725,233" stroke="blue" stroke-width="2" />
<path d="M311,1983 L186,1324" stroke="blue" stroke-width="2" />
<path d="M1335,478 L503,2208" stroke="blue" stroke-width="2" />
<path d="M415,2298 L591,196" stroke="blue" stroke-width="2" />
<path d="M422,2529 L972,2577" stroke="blue" stroke-width="2" />
<path d="M2006,1077 L225,1823" stroke="blue" stroke-width="2" />
<path d="M490,828 L431,2191" stroke="blue" stroke-width="2" />
<path d="M1953,206 L1914,1265" stroke="blue" stroke-width="2" />
<path d="M1887,201 L1655,2092" stroke="blue" stroke-width="2" />
<path d="M1404,1104 L499,1045" stroke="blue" stroke-width="2" />
<path d="M933,1470 L2025,1864" stroke="blue" stroke-width="2" />
<path d="M1549,487 L1493,495" stroke="blue" stroke-width="2" />
<path d="M2237,323 L728,1213" stroke="blue" stroke-width="2" />
<path d="M914,2323 L168,1768" stroke="blue" stroke-width="2" />
<path d="M615,1480 L1540,1097" stroke="blue" stroke-width="2" />
<path d="M1968,2260 L1377,2022" stroke="blue" stroke-width="2" />
<path d="M471,847 L467,2279" stroke="blue" stroke-width="2" />
<path d="M443,1527 L2064,927" stroke="blue" stroke-width="2" />
<path d="M494,592 L1390,1566" stroke="blue" stroke-width="2" />
<path d="M1053,2536 L1465,2226" stroke="blue" stroke-width="2" />
<path d="M1747,2552 L1549,1602" stroke="blue" stroke-width="2" />
<path d="M589,136 L93,440" stroke="blue" stroke-width="2" />
<path d="M1034,1303 L2073,502" stroke="blue" stroke-width="2" />
<path d="M1921,1674 L553,70" stroke="blue" stroke-width="2" />
<path d="M1496,1872 L1787,1920" stroke="blue" stroke-width="2" />
<path d="M1755,1562 L1613,2602" stroke="blue" stroke-width="2" />
<path d="M78,2031 L1475,2406" stroke="blue" stroke-width="2" />
<path d="M695,525 L1955,815" stroke="blue" stroke-width="2" />
<path d="M724,2288 L652,1284" stroke="blue" stroke-width="2" />
<path d="M972,656 L854,850" stroke="blue" stroke-width="2" />
<path d="M234,2679 L1527,2238" stroke="blue" stroke-width="2" />
<path d="M1339,2447 L468,1757" stroke="blue" stroke-width="2" />
<path d="M516,2557 L752,2606" stroke="blue" stroke-width="2" />
<path d="M464,152 L169,1170" stroke="blue" stroke-width="2" />
<path d="M1676,2415 L1260,2036" stroke="blue" stroke-width="2" />
<path d="M887,2244 L524,2684" stroke="blue" stroke-width="2" />
<path d="M1719,444 L231,2299" stroke="blue" stroke-width="2" />
<path d="M866,2521 L1090,1449" stroke="blue" stroke-width="2" />
<path d="M453,2062 L996,2415" stroke="blue" stroke-width="2" />
<path d="M2159,484 L954,1199" stroke="blue" stroke-width="2" />
<path d="M6,2194 L165,742" stroke="blue" stroke-width="2" />
<path d="M904,113 L744,1425" stroke="blue" stroke-width="2" />
<path d="M909,960 L729,1040" stroke="blue" stroke-width="2" />
<path d="M1498,2331 L183,1981" stroke="blue" stroke-width="2" />
<path d="M305,1744 L777,598" stroke="blue" stroke-width="2" />
<path d="M981,406 L1515,337" stroke="blue" stroke-width="2" />
<path d="M67,1414 L88,545" stroke="blue" stroke-width="2" />
<path d="M1498,1378 L599,1870" stroke="blue" stroke-width="2" />
<path d="M134,2531 L2214,519" stroke="blue" stroke-width="2" />
<path d="M1060,373 L1734,1566" stroke="blue" stroke-width="2" />
<path d="M546,1047 L887,1575" stroke="blue" stroke-width="2" />
<path d="M1765,1949 L395,1263" stroke="blue" stroke-width="2" />
<path d="M1002,2530 L11,2369" stroke="blue" stroke-width="2" />
<path d="M1395,2658 L562,1773" stroke="blue" stroke-width="2" />
<path d="M748,632 L154,2135" stroke="blue" stroke-width="2" />
<path d="M801,2567 L1386,40" stroke="blue" stroke-width="2" />
<path d="M1071,180 L2370,2230" stroke="blue" stroke-width="2" />
<path d="M1493,1405 L162,2168" stroke="blue" stroke-width="2" />
<path d="M374,418 L1516,212" stroke="blue" stroke-width="2" />
<path d="M1904,1377 L130,1815" stroke="blue" stroke-width="2" />
<path d="M1160,746 L132,591" stroke="blue" stroke-width="2" />
<path d="M2091,457 L1685,380" stroke="blue" stroke-width="2" />
<path d="M1559,2497 L1996,1944" stroke="blue" stroke-width="2" />
<path d="M214,2564 L166,795" stroke="blue" stroke-width="2" />
<path d="M411,782 L313,492" stroke="blue" stroke-width="2" />
<path d="M1627,2582 L759,2293" stroke="blue" stroke-width="2" />
<path d="M921,1529 L1205,1771" stroke="blue" stroke-width="2" />
<path d="M2188,2117 L1088,914" stroke="blue" stroke-width="2" />
<path d="M2363,1160 L2051,2152" stroke="blue" stroke-width="2" />
<path d="M610,21 L1230,832" stroke="blue" stroke-width="2" />
<path d="M537,567 L1132,1713" stroke="blue" stroke-width="2" />
<path d="M270,112 L1840,1776" stroke="blue" stroke-width="2" />
<path d="M1837,2410 L407,1005" stroke="blue" stroke-width="2" />
<path d="M1073,1257 L2012,1222" stroke="blue" stroke-width="2" />
<path d="M1459,1031 L1531,2008" stroke="blue" stroke-width="2" />
<path d="M344,1271 L2148,273" stroke="blue" stroke-width="2" />
<path d="M550,582 L751,1578" stroke="blue" stroke-width="2" />
<path d="M341,565 L1722,2627" stroke="blue" stroke-width="2" />
<path d="M784,1001 L1195,1680" stroke="blue" stroke-width="2" />
<path d="M1981,2555 L736,545" stroke="blue" stroke-width="2" />
<path d="M820,2167 L774,1479" stroke="blue" stroke-width="2" />
<path d="M1459,709 L1173,1800" stroke="blue" stroke-width="2" />
<path d="M284,1074 L1668,1128" stroke="blue" stroke-width="2" />
<path d="M2090,1995 L1862,389" stroke="blue" stroke-width="2" />
<path d="M1743,1605 L1745,1268" stroke="blue" stroke-width="2" />
<path d="M689,2293 L945,734" stroke="blue" stroke-width="2" />
<path d="M290,1414 L483,125" stroke="blue" stroke-width="2" />
<path d="M1454,1404 L2146,2025" stroke="blue" stroke-width="2" />
<path d="M795,1009 L1475,1340" stroke="blue" stroke-width="2" />
<path d="M1960,950 L266,1369" stroke="blue" stroke-width="2" />
<path d="M519,1879 L2109,103" stroke="blue" stroke-width="2" />
<path d="M1646,909 L120,1008" stroke="blue" stroke-width="2" />
<path d="M1562,1454 L1978,2314" stroke="blue" stroke-width="2" />
<path d="M804,2444 L229,435" stroke="blue" stroke-width="2" />
<path d="M2260,1 L993,1305" stroke="blue" stroke-width="2" />
<path d="M883,444 L2350,2636" stroke="blue" stroke-width="2" />
<path d="M846,1560 L1959,1991" stroke="blue" stroke-width="2" />
<path d="M362,1910 L1094,1816" stroke="blue" stroke-width="2" />
<path d="M685,1202 L1878,619" stroke="blue" stroke-width="2" />
<path d="M878,586 L104,376" stroke="blue" stroke-width="2" />
<path d="M252,1884 L1944,1538" stroke="blue" stroke-width="2" />
<path d="M926,1795 L1278,1294" stroke="blue" stroke-width="2" />
<path d="M1111,2700 L455,1632" stroke="blue" stroke-width="2" />
<path d="M1339,1414 L1367,1902" stroke="blue" stroke-width="2" />
<path d="M552,730 L2354,753" stroke="blue" stroke-width="2" />
<path d="M387,1671 L166,380" stroke="blue" stroke-width="2" />
<path d="M627,182 L1680,53" stroke="blue" stroke-width="2" />
<path d="M1705,2504 L39,2652" stroke="blue" stroke-width="2" />
<path d="M1665,2432 L1260,747" stroke="blue" stroke-width="2" />
<path d="M1833,1408 L475,1380" stroke="blue" stroke-width="2" />
<path d="M466,235 L2315,2636" stroke="blue" stroke-width="2" />
<path d="M1003,841 L174,1415" stroke="blue" stroke-width="2" />
<path d="M751,768 L368,1981" stroke="blue" stroke-width="2" />
<path d="M757,1369 L645,751" stroke="blue" stroke-width="2" />
<path d="M1945,2266 L332,726" stroke="blue" stroke-width="2" />
<path d="M122,931 L589,2196" stroke="blue" stroke-width="2" />
<path d="M1076,1497 L367,870" stroke="blue" stroke-width="2" />
<path d="M679,744 L834,565" stroke="blue" stroke-width="2" />
<path d="M126,2554 L2004,2491" stroke="blue" stroke-width="2" />
<path d="M1865,336 L2336,1809" stroke="blue" stroke-width="2" />
<path d="M849,2377 L2051,1186" stroke="blue" stroke-width="2" />
<path d="M2258,1131 L33,887" stroke="blue" stroke-width="2" />
<path d="M764,299 L730,1404" stroke="blue" stroke-width="2" />
<path d="M1096,2642 L1855,1576" stroke="blue" stroke-width="2" />
<path d="M143,2186 L2051,2180" stroke="blue" stroke-width="2" />
<path d="M1977,1173 L585,1858" stroke="blue" stroke-width="2" />
<path d="M1265,1632 L378,236" stroke="blue" stroke-width="2" />
<path d="M727,1278 L15,962" stroke="blue" stroke-width="2" />
<path d="M947,395 L1870,719" stroke="blue" stroke-width="2" />
<path d="M1058,594 L1020,2565" stroke="blue" stroke-width="2" />
<path d="M2257,1985 L1271,1070" stroke="blue" stroke-width="2" />
<path d="M203,301 L117,1082" stroke="blue" stroke-width="2" />
<path d="M1057,1938 L1549,1709" stroke="blue" stroke-width="2" />
<path d="M1750,526 L276,2517" stroke="blue" stroke-width="2" />
<path d="M2297,77 L617,379" stroke="blue" stroke-width="2" />
<path d="M303,561 L2374,1853" stroke="blue" stroke-width="2" />
<path d="M2298,1711 L2385,342" stroke="blue" stroke-width="2" />
<path d="M504,1675 L1682,680" stroke="blue" stroke-width="2" />
<path d="M2229,1962 L1356,79" stroke="blue" stroke-width="2" />
<path d="M1816,1223 L1515,45" stroke="blue" stroke-width="2" />
<path d="M2169,703 L1328,1752" stroke="blue" stroke-width="2" />
<path d="M1092,2692 L2105,1992" stroke="blue" stroke-width="2" />
<path d="M883,1718 L1745,580" stroke="blue" stroke-width="2" />
<path d="M1281,795 L1252,1101" stroke="blue" stroke-width="2" />
<path d="M2357,1270 L150,1045" stroke="blue" stroke-width="2" />
<path d="M1182,1910 L1485,1056" stroke="blue" stroke-width="2" />
<path d="M308,1176 L2186,807" stroke="blue" stroke-width="2" />
<path d="M2340,769 L2299,187" stroke="blue" stroke-width="2" />
<path d="M1721,658 L54,1066" stroke="blue" stroke-width="2" />
<path d="M1077,466 L555,305" stroke="blue" stroke-width="2" />
<path d="M587,2656 L1960,267" stroke="blue" stroke-width="2" />
<path d="M1972,959 L1014,790" stroke="blue" stroke-width="2" />
<path d="M426,1784 L2020,2001" stroke="blue" stroke-width="2" />
<path d="M1292,425 L1378,1011" stroke="blue" stroke-width="2" />
<path d="M342,1168 L1623,1134" stroke="blue" stroke-width="2" />
<path d="M2041,878 L235,485" stroke="blue" stroke-width="2" />
<path d="M826,1537 L1671,2481" stroke="blue" stroke-width="2" />
<path d="M529,1922 L1071,976" stroke="blue" stroke-width="2" />
<path d="M519,695 L732,752" stroke="blue" stroke-width="2" />
<path d="M606,1767 L1517,1567" stroke="blue" stroke-width="2" />
<path d="M2294,633 L541,1314" stroke="blue" stroke-width="2" />
<path d="M1461,1389 L962,1744" stroke="blue" stroke-width="2" />
<path d="M1517,805 L1851,2701" stroke="blue" stroke-width="2" />
<path d="M1100,1731 L303,626" stroke="blue" stroke-width="2" />
<path d="M422,2596 L354,2687" stroke="blue" stroke-width="2" />
<path d="M1858,995 L2158,427" stroke="blue" stroke-width="2" />
<path d="M968,2526 L2067,250" stroke="blue" stroke-width="2" />
<path d="M608,1117 L182,646" stroke="blue" stroke-width="2" />
<path d="M1538,2363 L995,457" stroke="blue" stroke-width="2" />
<path d="M34,477 L1053,918" stroke="blue" stroke-width="2" />
<path d="M1542,1696 L379,1435" stroke="blue" stroke-width="2" />
<path d="M1503,338 L723,1442" stroke="blue" stroke-width="2" />
<path d="M734,1550 L639,2679" stroke="blue" stroke-width="2" />
<path d="M1680,1845 L297,1268" stroke="blue" stroke-width="2" />
<path d="M440,118 L694,984" stroke="blue" stroke-width="2" />
<path d="M2149,349 L1505,819" stroke="blue" stroke-width="2" />
<path d="M1560,386 L981,1530" stroke="blue" stroke-width="2" />
<path d="M1880,224 L736,2039" stroke="blue" stroke-width="2" />
<path d="M128,1911 L1793,1580" stroke="blue" stroke-width="2" />
<path d="M1720,527 L1397,2549" stroke="blue" stroke-width="2" />
<path d="M1843,1660 L305,481" stroke="blue" stroke-width="2" />
<path d="M248,1850 L1285,1448" stroke="blue" stroke-width="2" />
<path d="M2396,1032 L1740,291" stroke="blue" stroke-width="2" />
<path d="M233,474 L962,1386" stroke="blue" stroke-width="2" />
<path d="M1786,1414 L274,185" stroke="blue" stroke-width="2" />
<path d="M2085,85 L831,990" stroke="blue" stroke-width="2" />
<path d="M238,374 L1257,2535" stroke="blue" stroke-width="2" />
<path d="M513,1070 L1667,1012" stroke="blue" stroke-width="2" />
<path d="M635,2594 L2366,1618" stroke="blue" stroke-width="2" />
<path d="M1236,825 L2343,1142" stroke="blue" stroke-width="2" />
<path d="M1230,2299 L2219,1221" stroke="blue" stroke-width="2" />
<path d="M1174,864 L1937,2673" stroke="blue" stroke-width="2" />
<path d="M1221,2544 L2402,58" stroke="blue" stroke-width="2" />
<path d="M1727,1503 L780,1299" stroke="blue" stroke-width="2" />
<path d="M1522,2218 L1655,2244" stroke="blue" stroke-width="2" />
<path d="M893,630 L2102,2664" stroke="blue" stroke-width="2" />
<path d="M1780,2249 L1971,1049" stroke="blue" stroke-width="2" />
<path d="M865,162 L1458,2592" stroke="blue" stroke-width="2" />
<path d="M1155,1341 L263,2508" stroke="blue" stroke-width="2" />
<path d="M1752,2006 L891,1585" stroke="blue" stroke-width="2" />
<path d="M1550,1082 L2137,1041" stroke="blue" stroke-width="2" />
<path d="M913,98 L1386,1169" stroke="blue" stroke-width="2" />
<path d="M1242,2253 L1775,891" stroke="blue" stroke-width="2" />
<path d="M721,231 L134,810" stroke="blue" stroke-width="2" />
<path d="M1344,914 L316,1492" stroke="blue" stroke-width="2" />
<path d="M1381,512 L1080,171" stroke="blue" stroke-width="2" />
<path d="M1636,2524 L917,1662" stroke="blue" stroke-width="2" />
<path d="M1325,43 L1472,964" stroke="blue" stroke-width="2" />
<path d="M501,1670 L1679,599" stroke="blue" stroke-width="2" />
<path d="M534,2392 L2397,2230" stroke="blue" stroke-width="2" />
<path d="M1434,2395 L1608,2613" stroke="blue" stroke-width="2" />
<path d="M1433,217 L633,637" stroke="blue" stroke-width="2" />
<path d="M177,1671 L614,2461" stroke="blue" stroke-width="2" />
<path d="M1269,2025 L1554,1474" stroke="blue" stroke-width="2" />
<path d="M2260,1351 L2181,267" stroke="blue" stroke-width="2" />
<path d="M1114,1519 L1048,2560" stroke="blue" stroke-width="2" />
<path d="M1037,237 L529,1381" stroke="blue" stroke-width="2" />
<path d="M362,1804 L284,2546" stroke="blue" stroke-width="2" />
<path d="M2140,2252 L762,0" stroke="blue" stroke-width="2" />
<path d="M1834,2402 L951,575" stroke="blue" stroke-width="2" />
<path d="M197,1455 L58,454" stroke="blue" stroke-width="2" />
<path d="M835,2337 L680,2438" stroke="blue" stroke-width="2" />
<path d="M1048,2589 L567,1885" stroke="blue" stroke-width="2" />
<path d="M1513,545 L320,158" stroke="blue" stroke-width="2" />
<path d="M2222,658 L1647,1400" stroke="blue" stroke-width="2" />
<path d="M565,516 L78,1235" stroke="blue" stroke-width="2" />
<path d="M631,1223 L1055,1086" stroke="blue" stroke-width="2" />
<path d="M1274,1554 L1754,1893" stroke="blue" stroke-width="2" />
<path d="M1399,2357 L879,643" stroke="blue" stroke-width="2" />
<path d="M1252,759 L1765,478" stroke="blue" stroke-width="2" />
<path d="M2101,2516 L711,81" stroke="blue" stroke-width="2" />
<path d="M1823,2568 L2042,471" stroke="blue" stroke-width="2" />
<path d="M1403,1857 L636,163" stroke="blue" stroke-width="2" />
<path d="M1098,2099 L1943,1033" stroke="blue" stroke-width="2" />
<path d="M55,339 L2209,217" stroke="blue" stroke-width="2" />
<path d="M1370,1611 L1807,843" stroke="blue" stroke-width="2" />
<path d="M1911,2685 L2247,1912" stroke="blue" stroke-width="2" />
<path d="M1940,1708 L1412,431" stroke="blue" stroke-width="2" />
<path d="M391,1267 L162,442" stroke="blue" stroke-width="2" />
<path d="M1265,1652 L1436,1918" stroke="blue" stroke-width="2" />
<path d="M1924,2161 L1514,2546" stroke="blue" stroke-width="2" />
<path d="M2222,1195 L1408,1987" stroke="blue" stroke-width="2" />
<path d="M769,1264 L2037,2352" stroke="blue" stroke-width="2" />
<path d="M156,1335 L602,1407" stroke="blue" stroke-width="2" />
<path d="M1969,681 L1337,2279" stroke="blue" stroke-width="2" />
<path d="M1208,1704 L417,32" stroke="blue" stroke-width="2" />
<path d="M1380,1116 L834,913" stroke="blue" stroke-width="2" />
<path d="M1499,1181 L1272,691" stroke="blue" stroke-width="2" />
<path d="M759,2422 L2343,1120" stroke="blue" stroke-width="2" />
<path d="M330,201 L1682,1389" stroke="blue" stroke-width="2" />
<path d="M1338,1080 L999,1173" stroke="blue" stroke-width="2" />
<path d="M1531,1867 L1520,846" stroke="blue" stroke-width="2" />
<path d="M506,1762 L1303,872" stroke="blue" stroke-width="2" />
<path d="M703,1510 L674,554" stroke="blue" stroke-width="2" />
<path d="M1723,2608 L1536,2440" stroke="blue" stroke-width="2" />
<path d="M2388,1140 L194,2541" stroke="blue" stroke-width="2" />
<path d="M1163,2102 L1575,2699" stroke="blue" stroke-width="2" />
<path d="M2354,2238 L2088,2382" stroke="blue" stroke-width="2" />
<path d="M368,84 L1506,187" stroke="blue" stroke-width="2" />
<path d="M1075,1487 L2004,2632" stroke="blue" stroke-width="2" />
<path d="M1790,460 L1511,2287" stroke="blue" stroke-width="2" />
<path d="M2081,737 L1467,1185" stroke="blue" stroke-width="2" />
<path d="M171,2190 L1755,1249" stroke="blue" stroke-width="2" />
<path d="M1702,2038 L1907,1516" stroke="blue" stroke-width="2" />
<path d="M1171,1937 L816,479" stroke="blue" stroke-width="2" />
<path d="M1553,2361 L1285,768" stroke="blue" stroke-width="2" />
<path d="M516,850 L364,685" stroke="blue" stroke-width="2" />
<path d="M722,995 L1399,2013" stroke="blue" stroke-width="2" />
<path d="M1085,1191 L1842,2536" stroke="blue" stroke-width="2" />
<path d="M794,2422 L388,1161" stroke="blue" stroke-width="2" />
<path d="M427,1149 L1343,410" stroke="blue" stroke-width="2" />
<path d="M289,2610 L497,845" stroke="blue" stroke-width="2" />
<path d="M1825,1590 L908,339" stroke="blue" stroke-width="2" />
<path d="M2104,498 L76,2606" stroke="blue" stroke-width="2" />
<path d="M1119,2429 L333,2447" stroke="blue" stroke-width="2" />
<path d="M678,1287 L315,1804" stroke="blue" stroke-width="2" />
<path d="M1701,630 L975,1731" stroke="blue" stroke-width="2" />
<path d="M559,2402 L209,1643" stroke="blue" stroke-width="2" />
<path d="M1211,819 L2401,691" stroke="blue" stroke-width="2" />
<path d="M1571,2346 L2231,565" stroke="blue" stroke-width="2" />
<path d="M1834,251 L54,557" stroke="blue" stroke-width="2" />
<path d="M59,2508 L1149,1270" stroke="blue" stroke-width="2" />
<path d="M314,1847 L379,1796" stroke="blue" stroke-width="2" />
<path d="M1546,1988 L68,2313" stroke="blue" stroke-width="2" />
<path d="M761,2133 L1605,111" stroke="blue" stroke-width="2" />
<path d="M2341,467 L1916,407" stroke="blue" stroke-width="2" />
<path d="M1367,693 L1127,997" stroke="blue" stroke-width="2" />
<path d="M1656,1957 L1930,773" stroke="blue" stroke-width="2" />
<path d="M958,1268 L2267,2330" stroke="blue" stroke-width="2" />
<path d="M1154,2503 L1762,197" stroke="blue" stroke-width="2" />
<path d="M1920,746 L1918,35" stroke="blue" stroke-width="2" />
<path d="M1372,708 L1182,508" stroke="blue" stroke-width="2" />
<path d="M2395,2234 L1203,2588" stroke="blue" stroke-width="2" />
<path d="M1427,1648 L1888,1239" stroke="blue" stroke-width="2" />
<path d="M508,1283 L808,966" stroke="blue" stroke-width="2" />
<path d="M803,1923 L1139,231" stroke="blue" stroke-width="2" />
<path d="M607,333 L565,78" stroke="blue" stroke-width="2" />
<path d="M304,1088 L778,2202" stroke="blue" stroke-width="2" />
<path d="M1687,206 L134,2653" stroke="blue" stroke-width="2" />
<path d="M1440,2165 L2361,958" stroke="blue" stroke-width="2" />
<path d="M2379,2185 L1531,165" stroke="blue" stroke-width="2" />
<path d="M91,1936 L1969,1648" stroke="blue" stroke-width="2" />
<path d="M1936,250 L1360,1842" stroke="blue" stroke-width="2" />
<path d="M532,755 L336,2224" stroke="blue" stroke-width="2" />
<path d="M2329,2105 L1553,1518" stroke="blue" stroke-width="2" />
<path d="M1908,345 L765,984" stroke="blue" stroke-width="2" />
<path d="M1935,401 L1503,2296" stroke="blue" stroke-width="2" />
<path d="M815,2321 L1353,925" stroke="blue" stroke-width="2" />
<path d="M1886,1640 L1136,161" stroke="blue" stroke-width="2" />
<path d="M1977,1113 L335,1992" stroke="blue" stroke-width="2" />
<path d="M1660,197 L2195,108" stroke="blue" stroke-width="2" />
<path d="M1906,100 L1455,694" stroke="blue" stroke-width="2" />
<path d="M826,1525 L527,1005" stroke="blue" stroke-width="2" />
<path d="M342,1389 L104,1749" stroke="blue" stroke-width="2" />
<path d="M1315,2372 L436,1820" stroke="blue" stroke-width="2" />
<path d="M2066,1921 L576,1279" stroke="blue" stroke-width="2" />
<path d="M1625,2474 L836,958" stroke="blue" stroke-width="2" />
<path d="M1443,1219 L348,399" stroke="blue" stroke-width="2" />
<path d="M1241,905 L1556,1199" stroke="blue" stroke-width="2" />
<path d="M1907,1403 L663,2115" stroke="blue" stroke-width="2" />
<path d="M783,116 L2205,2345" stroke="blue" stroke-width="2" />
<path d="M2191,2206 L356,1998" stroke="blue" stroke-width="2" />
<path d="M1739,1094 L1129,1974" stroke="blue" stroke-width="2" />
<path d="M1187,1194 L1269,1132" stroke="blue" stroke-width="2" />
<path d="M1949,1418 L853,998" stroke="blue" stroke-width="2" />
<path d="M2401,1620 L889,2410" stroke="blue" stroke-width="2" />
<path d="M427,457 L331,377" stroke="blue" stroke-width="2" />
<path d="M1922,985 L670,30" stroke="blue" stroke-width="2" />
<path d="M2328,1971 L2000,2051" stroke="blue" stroke-width="2" />
<path d="M2079,741 L2329,2248" stroke="blue" stroke-width="2" />
<path d="M1241,1512 L2217,2381" stroke="blue" stroke-width="2" />
<path d="M1303,2413 L941,164" stroke="blue" stroke-width="2" />
<path d="M256,86 L816,371" stroke="blue" stroke-width="2" />
<path d="M1510,1083 L332,573" stroke="blue" stroke-width="2" />
<path d="M379,90 L1566,1742" stroke="blue" stroke-width="2" />
<path d="M499,763 L1796,2490" stroke="blue" stroke-width="2" />
<path d="M517,481 L1982,63" stroke="blue" stroke-width="2" />
<path d="M890,1443 L1263,480" stroke="blue" stroke-width="2" />
<path d="M1832,1080 L1656,1756" stroke="blue" stroke-width="2" />
<path d="M449,2127 L2354,583" stroke="blue" stroke-width="2" />
<path d="M1293,1786 L1315,1028" stroke="blue" stroke-width="2" />
<path d="M616,2174 L638,994" stroke="blue" stroke-width="2" />
<path d="M918,615 L1605,2530" stroke="blue" stroke-width="2" />
<path d="M856,2202 L808,2162" stroke="blue" stroke-width="2" />
<path d="M1016,1299 L612,600" stroke="blue" stroke-width="2" />
<path d="M500,1756 L1618,1265" stroke="blue" stroke-width="2" />
<path d="M2200,1997 L1493,2658" stroke="blue" stroke-width="2" />
<path d="M2309,2372 L1552,1154" stroke="blue" stroke-width="2" />
<path d="M1844,1728 L1595,1854" stroke="blue" stroke-width="2" />
<path d="M1900,1438 L540,1195" stroke="blue" stroke-width="2" />
<path d="M353,2071 L1517,247" stroke="blue" stroke-width="2" />
<path d="M837,1389 L1716,1320" stroke="blue" stroke-width="2" />
<path d="M738,1955 L2295,1387" stroke="blue" stroke-width="2" />
<path d="M198,505 L311,1065" stroke="blue" stroke-width="2" />
<path d="M1198,1903 L2146,631" stroke="blue" stroke-width="2" />
<path d="M2355,1354 L1112,2146" stroke="blue" stroke-width="2" />
<path d="M1238,39 L674,1452" stroke="blue" stroke-width="2" />
<path d="M1329,262 L589,957" stroke="blue" stroke-width="2" />
<path d="M1655,1167 L1219,1156" stroke="blue" stroke-width="2" />
<path d="M1878,2525 L452,1572" stroke="blue" stroke-width="2" />
<path d="M1797,1882 L1000,465" stroke="blue" stroke-width="2" />
<path d="M0,0 L2403,0" stroke="red" stroke-width="10" />
<path d="M2403,0 L2403,2707" stroke="red" stroke-width="10" />
<path d="M0,2707 L2403,2707" stroke="red" stroke-width="10" />
<path d="M0,2707 L0,0" stroke="red" stroke-width="10" />
</svg>