<?xml version="1.0" encoding="UTF-8"?>
<svg xmlns="http://www.w3.org/2000/svg" xmlns:xlink="http://www.w3.org/1999/xlink"
     width="10000" height="10000" viewBox="0 0 10000 10000">
<defs>
</defs>
<path d="M4386,1803 L4821,633" stroke="blue" stroke-width="2" />
<path d="M4602,582 L3382,248" stroke="blue" stroke-width="2" />
<path d="M3885,1315 L589,840" stroke="blue" stroke-width="2" />
<path d="M3185,2104 L1300,788" stroke="blue" stroke-width="2" />
<path d="M4553,423 L4076,30" stroke="blue" stroke-width="2" />
<path d="M3321,1381 L3611,2144" stroke="blue" stroke-width="2" />
<path d="M2693,1200 L1588,37" stroke="blue" stroke-width="2" />
<path d="M3673,1139 L4805,960" stroke="blue" stroke-width="2" />
<path d="M416,780 L4250,520" stroke="blue" stroke-width="2" />
<path d="M1259,1297 L3083,216" stroke="blue" stroke-width="2" />
<path d="M2889,2018 L2985,521" stroke="blue" stroke-width="2" />
<path d="M628,1193 L3275,1758" stroke="blue" stroke-width="2" />
<path d="M3773,475 L1013,1070" stroke="blue" stroke-width="2" />
<path d="M1068,1793 L694,1120" stroke="blue" stroke-width="2" />
<path d="M2045,140 L4378,740" stroke="blue" stroke-width="2" />
<path d="M92,36 L4924,298" stroke="blue" stroke-width="2" />
<path d="M3314,620 L701,617" stroke="blue" stroke-width="2" />
<path d="M203,2039 L495,1111" stroke="blue" stroke-width="2" />
<path d="M680,58 L1781,1137" stroke="blue" stroke-width="2" />
<path d="M2156,1076 L1851,1062" stroke="blue" stroke-width="2" />
<path d="M1644,1173 L3524,1893" stroke="blue" stroke-width="2" />
<path d="M3508,152 L3078,1311" stroke="blue" stroke-width="2" />
<path d="M1686,1557 L1206,656" stroke="blue" stroke-width="2" />
<path d="M3671,179 L4654,603" stroke="blue" stroke-width="2" />
<path d="M591,1395 L3934,2049" stroke="blue" stroke-width="2" />
<path d="M1444,1936 L1286,1998" stroke="blue" stroke-width="2" />
<path d="M3608,1092 L4393,1727" stroke="blue" stroke-width="2" />
<path d="M2999,1009 L2020,1065" stroke="blue" stroke-width="2" />
<path d="M2984,665 L3757,113" stroke="blue" stroke-width="2" />
<path d="M3370,983 L3112,1438" stroke="blue" stroke-width="2" />
<path d="M2009,290 L2511,1840" stroke="blue" stroke-width="2" />
<path d="M80,519 L274,245" stroke="blue" stroke-width="2" />
<path d="M1261,128 L3317,672" stroke="blue" stroke-width="2" />
<path d="M4172,804 L1552,1859" stroke="blue" stroke-width="2" />
<path d="M4774,872 L1650,1752" stroke="blue" stroke-width="2" />
<path d="M3019,962 L2185,789" stroke="blue" stroke-width="2" />
<path d="M4316,523 L826,1831" stroke="blue" stroke-width="2" />
<path d="M1788,2134 L2144,937" stroke="blue" stroke-width="2" />
<path d="M2162,1112 L3851,555" stroke="blue" stroke-width="2" />
<path d="M597,1484 L38,1624" stroke="blue" stroke-width="2" />
<path d="M3547,275 L4308,848" stroke="blue" stroke-width="2" />
<path d="M1920,2036 L2079,1580" stroke="blue" stroke-width="2" />
<path d="M69,815 L2822,1171" stroke="blue" stroke-width="2" />
<path d="M2225,101 L333,1119" stroke="blue" stroke-width="2" />
<path d="M2975,1365 L2380,227" stroke="blue" stroke-width="2" />
<path d="M2616,525 L1889,297" stroke="blue" stroke-width="2" />
<path d="M2644,25 L2329,782" stroke="blue" stroke-width="2" />
<path d="M4711,1986 L1729,12" stroke="blue" stroke-width="2" />
<path d="M1525,2095 L2592,1462" stroke="blue" stroke-width="2" />
<path d="M4053,1016 L608,1110" stroke="blue" stroke-width="2" />
<path d="M4354,393 L1405,1362" stroke="blue" stroke-width="2" />
<path d="M292,1844 L4154,967" stroke="blue" stroke-width="2" />
<path d="M2884,1719 L3595,311" stroke="blue" stroke-width="2" />
<path d="M2587,247 L1529,600" stroke="blue" stroke-width="2" />
<path d="M1984,802 L1143,1639" stroke="blue" stroke-width="2" />
<path d="M3154,566 L320,44" stroke="blue" stroke-width="2" />
<path d="M4136,55 L3566,1131" stroke="blue" stroke-width="2" />
<path d="M3232,2097 L4032,1185" stroke="blue" stroke-width="2" />
<path d="M4752,1106 L2347,1205" stroke="blue" stroke-width="2" />
<path d="M482,457 L1695,1034" stroke="blue" stroke-width="2" />
<path d="M509,1794 L2874,1401" stroke="blue" stroke-width="2" />
<path d="M1323,240 L3174,1061" stroke="blue" stroke-width="2" />
<path d="M2107,1030 L615,1278" stroke="blue" stroke-width="2" />
<path d="M2197,1179 L1816,1163" stroke="blue" stroke-width="2" />
<path d="M865,829 L1785,1951" stroke="blue" stroke-width="2" />
<path d="M1116,1597 L3328,1580" stroke="blue" stroke-width="2" />
<path d="M954,1137 L4493,543" stroke="blue" stroke-width="2" />
<path d="M4645,851 L3279,373" stroke="blue" stroke-width="2" />
<path d="M740,1374 L3470,1682" stroke="blue" stroke-width="2" />
<path d="M4268,809 L3792,1282" stroke="blue" stroke-width="2" />
<path d="M3903,1712 L2072,405" stroke="blue" stroke-width="2" />
<path d="M4724,176 L4471,84" stroke="blue" stroke-width="2" />
<path d="M379,471 L4612,1281" stroke="blue" stroke-width="2" />
<path d="M231,612 L1742,185" stroke="blue" stroke-width="2" />
<path d="M4473,1127 L4932,546" stroke="blue" stroke-width="2" />
<path d="M1364,1140 L838,1861" stroke="blue" stroke-width="2" />
<path d="M1675,1150 L3134,1518" stroke="blue" stroke-width="2" />
<path d="M1376,1862 L1067,1106" stroke="blue" stroke-width="2" />
<path d="M1499,641 L3303,1302" stroke="blue" stroke-width="2" />
<path d="M2452,1325 L1666,2033" stroke="blue" stroke-width="2" />
<path d="M2478,2002 L4438,99" stroke="blue" stroke-width="2" />
<path d="M1672,144 L3130,1409" stroke="blue" stroke-width="2" />
<path d="M3736,1319 L4931,972" stroke="blue" stroke-width="2" />
<path d="M337,138 L1679,1969" stroke="blue" stroke-width="2" />
<path d="M3026,2107 L217,1035" stroke="blue" stroke-width="2" />
<path d="M52,1468 L4441,1475" stroke="blue" stroke-width="2" />
<path d="M3745,1159 L3260,1269" stroke="blue" stroke-width="2" />
<path d="M4763,530 L4602,451" stroke="blue" stroke-width="2" />
<path d="M2498,1804 L3650,402" stroke="blue" stroke-width="2" />
<path d="M2551,323 L3925,1019" stroke="blue" stroke-width="2" />
<path d="M700,623 L3229,96" stroke="blue" stroke-width="2" />
<path d="M4581,2108 L169,416" stroke="blue" stroke-width="2" />
<path d="M528,1008 L4171,1359" stroke="blue" stroke-width="2" />
<path d="M2817,386 L4455,409" stroke="blue" stroke-width="2" />
<path d="M2641,1969 L4192,1021" stroke="blue" stroke-width="2" />
<path d="M1830,863 L4537,534" stroke="blue" stroke-width="2" />
<path d="M2290,172 L3901,1403" stroke="blue" stroke-width="2" />
<path d="M3379,771 L2998,2025" stroke="blue" stroke-width="2" />
<path d="M2804,1478 L4798,971" stroke="blue" stroke-width="2" />
<path d="M1712,69 L3509,328" stroke="blue" stroke-width="2" />
<path d="M3952,489 L365,266" stroke="blue" stroke-width="2" />
<path d="M469,1505 L238,1583" stroke="blue" stroke-width="2" />
<path d="M1287,1380 L3969,1962" stroke="blue" stroke-width="2" />
<path d="M3164,1656 L2995,1071" stroke="blue" stroke-width="2" />
<path d="M1517,1068 L108,857" stroke="blue" stroke-width="2" />
<path d="M3855,1665 L4419,1252" stroke="blue" stroke-width="2" />
<path d="M457,601 L3352,218" stroke="blue" stroke-width="2" />
<path d="M4215,1603 L2726,1525" stroke="blue" stroke-width="2" />
<path d="M3475,1328 L3931,482" stroke="blue" stroke-width="2" />
<path d="M3599,1701 L1088,1849" stroke="blue" stroke-width="2" />
<path d="M950,1305 L2880,280" stroke="blue" stroke-width="2" />
<path d="M640,495 L4405,1813" stroke="blue" stroke-width="2" />
<path d="M942,95 L3659,1173" stroke="blue" stroke-width="2" />
<path d="M4121,1876 L3294,2027" stroke="blue" stroke-width="2" />
<path d="M314,1095 L802,538" stroke="blue" stroke-width="2" />
<path d="M1658,1447 L2855,1867" stroke="blue" stroke-width="2" />
<path d="M50,1860 L1833,1216" stroke="blue" stroke-width="2" />
<path d="M695,1910 L1252,52" stroke="blue" stroke-width="2" />
<path d="M3083,176 L536,1225" stroke="blue" stroke-width="2" />
<path d="M2870,1437 L4905,1281" stroke="blue" stroke-width="2" />
<path d="M249,1577 L1605,1157" stroke="blue" stroke-width="2" />
<path d="M43,617 L3607,7" stroke="blue" stroke-width="2" />
<path d="M4883,1268 L1196,925" stroke="blue" stroke-width="2" />
<path d="M3715,896 L1864,584" stroke="blue" stroke-width="2" />
<path d="M1569,1809 L3909,1244" stroke="blue" stroke-width="2" />
<path d="M4693,1200 L3919,1991" stroke="blue" stroke-width="2" />
<path d="M852,1033 L1049,135" stroke="blue" stroke-width="2" />
<path d="M2080,333 L2077,798" stroke="blue" stroke-width="2" />
<path d="M4139,2146 L3300,2006" stroke="blue" stroke-width="2" />
<path d="M2132,2101 L3997,219" stroke="blue" stroke-width="2" />
<path d="M4164,1207 L3788,1507" stroke="blue" stroke-width="2" />
<path d="M2805,1745 L386,709" stroke="blue" stroke-width="2" />
<path d="M1961,922 L2609,499" stroke="blue" stroke-width="2" />
<path d="M3137,1503 L925,1234" stroke="blue" stroke-width="2" />
<path d="M3132,838 L3461,989" stroke="blue" stroke-width="2" />
<path d="M1458,101 L2566,305" stroke="blue" stroke-width="2" />
<path d="M482,32 L527,1116" stroke="blue" stroke-width="2" />
<path d="M2725,238 L4453,484" stroke="blue" stroke-width="2" />
<path d="M2492,729 L452,1045" stroke="blue" stroke-width="2" />
<path d="M3970,182 L3954,734" stroke="blue" stroke-width="2" />
<path d="M2831,678 L2114,1774" stroke="blue" stroke-width="2" />
<path d="M3487,1340 L3797,330" stroke="blue" stroke-width="2" />
<path d="M3753,423 L954,1948" stroke="blue" stroke-width="2" />
<path d="M1935,882 L2335,2066" stroke="blue" stroke-width="2" />
<path d="M976,1666 L378,513" stroke="blue" stroke-width="2" />
<path d="M2913,263 L3999,2134" stroke="blue" stroke-width="2" />
<path d="M779,581 L3820,182" stroke="blue" stroke-width="2" />
<path d="M3645,960 L2889,463" stroke="blue" stroke-width="2" />
<path d="M3030,1580 L3335,82" stroke="blue" stroke-width="2" />
<path d="M3824,150 L158,1415" stroke="blue" stroke-width="2" />
<path d="M2599,597 L2865,119" stroke="blue" stroke-width="2" />
<path d="M1555,1387 L4576,581" stroke="blue" stroke-width="2" />
<path d="M1459,1184 L1603,1101" stroke="blue" stroke-width="2" />
<path d="M1762,576 L751,2093" stroke="blue" stroke-width="2" />
<path d="M3775,1513 L2978,451" stroke="blue" stroke-width="2" />
<path d="M4894,818 L1820,1124" stroke="blue" stroke-width="2" />
<path d="M200,999 L1393,2031" stroke="blue" stroke-width="2" />
<path d="M3110,687 L4208,651" stroke="blue" stroke-width="2" />
<path d="M1911,327 L2621,668" stroke="blue" stroke-width="2" />
<path d="M2430,1693 L2574,1671" stroke="blue" stroke-width="2" />
<path d="M1885,1595 L534,1752" stroke="blue" stroke-width="2" />
<path d="M2853,1630 L4129,1897" stroke="blue" stroke-width="2" />
<path d="M1972,1192 L3673,478" stroke="blue" stroke-width="2" />
<path d="M3077,1840 L3007,1338" stroke="blue" stroke-width="2" />
<path d="M3607,1699 L2668,1097" stroke="blue" stroke-width="2" />
<path d="M4449,1558 L1289,562" stroke="blue" stroke-width="2" />
<path d="M1133,80 L4289,51" stroke="blue" stroke-width="2" />
<path d="M4707,1916 L2800,1447" stroke="blue" stroke-width="2" />
<path d="M1418,1979 L1508,1887" stroke="blue" stroke-width="2" />
<path d="M1660,2038 L3313,2009" stroke="blue" stroke-width="2" />
<path d="M514,940 L2160,914" stroke="blue" stroke-width="2" />
<path d="M629,2143 L84,2047" stroke="blue" stroke-width="2" />
<path d="M1544,374 L1742,1526" stroke="blue" stroke-width="2" />
<path d="M1180,575 L3355,1902" stroke="blue" stroke-width="2" />
<path d="M1880,44 L1130,1901" stroke="blue" stroke-width="2" />
<path d="M2326,252 L3875,561" stroke="blue" stroke-width="2" />
<path d="M286,1181 L1494,1272" stroke="blue" stroke-width="2" />
<path d="M2320,421 L3613,1949" stroke="blue" stroke-width="2" />
<path d="M3698,444 L355,1961" stroke="blue" stroke-width="2" />
<path d="M4445,96 L860,1677" stroke="blue" stroke-width="2" />
<path d="M2725,1197 L1235,709" stroke="blue" stroke-width="2" />
<path d="M954,84 L983,685" stroke="blue" stroke-width="2" />
<path d="M1087,1161 L1850,778" stroke="blue" stroke-width="2" />
<path d="M3684,2091 L3675,832" stroke="blue" stroke-width="2" />
<path d="M1356,863 L2757,1073" stroke="blue" stroke-width="2" />
<path d="M665,1597 L3311,1685" stroke="blue" stroke-width="2" />
<path d="M1019,1312 L4155,2028" stroke="blue" stroke-width="2" />
<path d="M475,383 L4214,1270" stroke="blue" stroke-width="2" />
<path d="M445,548 L4781,419" stroke="blue" stroke-width="2" />
<path d="M1884,1153 L1888,40" stroke="blue" stroke-width="2" />
<path d="M4146,530 L606,1154" stroke="blue" stroke-width="2" />
<path d="M74,583 L1547,1493" stroke="blue" stroke-width="2" />
<path d="M2235,1525 L3083,2109" stroke="blue" stroke-width="2" />
<path d="M51,1962 L2691,1532" stroke="blue" stroke-width="2" />
<path d="M1066,1326 L2825,1305" stroke="blue" stroke-width="2" />
<path d="M4618,855 L740,560" stroke="blue" stroke-width="2" />
<path d="M878,1772 L2809,509" stroke="blue" stroke-width="2" />
<path d="M4154,249 L32,898" stroke="blue" stroke-width="2" />
<path d="M2132,983 L1341,1358" stroke="blue" stroke-width="2" />
<path d="M435,1450 L1150,1578" stroke="blue" stroke-width="2" />
<path d="M2852,495 L1164,122" stroke="blue" stroke-width="2" />
<path d="M4739,1478 L182,2025" stroke="blue" stroke-width="2" />
<path d="M392,499 L1030,583" stroke="blue" stroke-width="2" />
<path d="M2672,308 L3398,1615" stroke="blue" stroke-width="2" />
<path d="M587,99 L1653,1438" stroke="blue" stroke-width="2" />
<path d="M1143,1279 L845,1889" stroke="blue" stroke-width="2" />
<path d="M3323,876 L2731,43" stroke="blue" stroke-width="2" />
<path d="M2495,1503 L4028,538" stroke="blue" stroke-width="2" />
<path d="M1386,1474 L721,2033" stroke="blue" stroke-width="2" />
<path d="M3308,243 L564,1220" stroke="blue" stroke-width="2" />
<path d="M1824,281 L4276,2101" stroke="blue" stroke-width="2" />
<path d="M181,1332 L1090,1530" stroke="blue" stroke-width="2" />
<path d="M846,673 L218,1600" stroke="blue" stroke-width="2" />
<path d="M2638,1163 L915,911" stroke="blue" stroke-width="2" />
<path d="M4685,65 L3219,1074" stroke="blue" stroke-width="2" />
<path d="M2169,2041 L1025,999" stroke="blue" stroke-width="2" />
<path d="M505,1238 L1554,847" stroke="blue" stroke-width="2" />
<path d="M1529,1636 L1716,508" stroke="blue" stroke-width="2" />
<path d="M2790,1331 L1727,641" stroke="blue" stroke-width="2" />
<path d="M1843,6 L130,1438" stroke="blue" stroke-width="2" />
<path d="M2978,305 L2184,1326" stroke="blue" stroke-width="2" />
<path d="M4713,678 L4386,1574" stroke="blue" stroke-width="2" />
<path d="M4207,848 L3029,206" stroke="blue" stroke-width="2" />
<path d="M714,24 L1569,88" stroke="blue" stroke-width="2" />
<path d="M3809,1211 L4608,1153" stroke="blue" stroke-width="2" />
<path d="M1130,833 L1595,283" stroke="blue" stroke-width="2" />
<path d="M4150,1908 L2491,902" stroke="blue" stroke-width="2" />
<path d="M4671,55 L2933,1064" stroke="blue" stroke-width="2" />
<path d="M777,788 L4885,1699" stroke="blue" stroke-width="2" />
<path d="M358,1936 L1495,1810" stroke="blue" stroke-width="2" />
<path d="M212,1452 L4103,1402" stroke="blue" stroke-width="2" />
<path d="M2181,875 L4794,488" stroke="blue" stroke-width="2" />
<path d="M4827,714 L2890,2049" stroke="blue" stroke-width="2" />
<path d="M1203,1567 L108,538" stroke="blue" stroke-width="2" />
<path d="M1290,178 L779,1535" stroke="blue" stroke-width="2" />
<path d="M4176,864 L243,1564" stroke="blue" stroke-width="2" />
<path d="M4703,1156 L1858,1401" stroke="blue" stroke-width="2" />
<path d="M1414,1436 L590,1946" stroke="blue" stroke-width="2" />
<path d="M403,234 L2856,98" stroke="blue" stroke-width="2" />
<path d="M2669,1543 L1080,756" stroke="blue" stroke-width="2" />
<path d="M867,990 L3975,1656" stroke="blue" stroke-width="2" />
<path d="M748,701 L3033,397" stroke="blue" stroke-width="2" />
<path d="M4736,2009 L4649,1354" stroke="blue" stroke-width="2" />
<path d="M3240,221 L4426,1565" stroke="blue" stroke-width="2" />
<path d="M4581,724 L2026,886" stroke="blue" stroke-width="2" />
<path d="M2387,311 L1629,1968" stroke="blue" stroke-width="2" />
<path d="M3853,240 L3792,460" stroke="blue" stroke-width="2" />
<path d="M1312,436 L1421,1729" stroke="blue" stroke-width="2" />
<path d="M346,692 L333,922" stroke="blue" stroke-width="2" />
<path d="M1564,428 L380,212" stroke="blue" stroke-width="2" />
<path d="M4890,409 L3048,908" stroke="blue" stroke-width="2" />
<path d="M376,659 L2923,1589" stroke="blue" stroke-width="2" />
<path d="M2873,0 L4766,1544" stroke="blue" stroke-width="2" />
<path d="M3391,459 L791,791" stroke="blue" stroke-width="2" />
<path d="M4161,1858 L4726,1493" stroke="blue" stroke-width="2" />
<path d="M240,1524 L520,1748" stroke="blue" stroke-width="2" />
<path d="M393,1062 L2051,264" stroke="blue" stroke-width="2" />
<path d="M3839,883 L4643,867" stroke="blue" stroke-width="2" />
<path d="M2145,1759 L3709,1380" stroke="blue" stroke-width="2" />
<path d="M3721,455 L2456,398" stroke="blue" stroke-width="2" />
<path d="M4303,112 L2988,1021" stroke="blue" stroke-width="2" />
<path d="M4295,1828 L4637,607" stroke="blue" stroke-width="2" />
<path d="M2051,1743 L1519,454" stroke="blue" stroke-width="2" />
<path d="M4567,147 L2813,1459" stroke="blue" stroke-width="2" />
<path d="M1908,392 L2205,15" stroke="blue" stroke-width="2" />
<path d="M4785,271 L2202,1715" stroke="blue" stroke-width="2" />
<path d="M3460,657 L274,371" stroke="blue" stroke-width="2" />
<path d="M1833,1056 L1296,1051" stroke="blue" stroke-width="2" />
<path d="M3967,1303 L4434,627" stroke="blue" stroke-width="2" />
<path d="M1315,1804 L4688,2088" stroke="blue" stroke-width="2" />
<path d="M223,425 L1459,781" stroke="blue" stroke-width="2" />
<path d="M2203,782 L628,768" stroke="blue" stroke-width="2" />
<path d="M587,1355 L3240,193" stroke="blue" stroke-width="2" />
<path d="M91,583 L1534,1882" stroke="blue" stroke-width="2" />
<path d="M49,976 L333,1581" stroke="blue" stroke-width="2" />
<path d="M4525,1056 L2381,945" stroke="blue" stroke-width="2" />
<path d="M2974,1849 L496,715" stroke="blue" stroke-width="2" />
<path d="M2128,1120 L4478,1464" stroke="blue" stroke-width="2" />
<path d="M2566,1764 L1508,846" stroke="blue" stroke-width="2" />
<path d="M1756,182 L295,1728" stroke="blue" stroke-width="2" />
<path d="M1006,1932 L2143,612" stroke="blue" stroke-width="2" />
<path d="M1976,1243 L4037,21" stroke="blue" stroke-width="2" />
<path d="M225,2119 L581,2092" stroke="blue" stroke-width="2" />
<path d="M3863,1272 L3190,1794" stroke="blue" stroke-width="2" />
<path d="M1063,719 L1865,1537" stroke="blue" stroke-width="2" />
<path d="M2143,472 L1002,1420" stroke="blue" stroke-width="2" />
<path d="M4910,1918 L4886,548" stroke="blue" stroke-width="2" />
<path d="M3777,1646 L291,1526" stroke="blue" stroke-width="2" />
<path d="M4092,2068 L1322,1445" stroke="blue" stroke-width="2" />
<path d="M1361,1923 L1347,0" stroke="blue" stroke-width="2" />
<path d="M3436,370 L4824,363" stroke="blue" stroke-width="2" />
<path d="M4299,743 L4087,1817" stroke="blue" stroke-width="2" />
<path d="M166,1027 L3386,1168" stroke="blue" stroke-width="2" />
<path d="M1459,1095 L1486,771" stroke="blue" stroke-width="2" />
<path d="M2436,2106 L2614,1172" stroke="blue" stroke-width="2" />
<path d="M3019,387 L2263,583" stroke="blue" stroke-width="2" />
<path d="M3486,1139 L264,1990" stroke="blue" stroke-width="2" />
<path d="M251,1831 L396,87" stroke="blue" stroke-width="2" />
<path d="M3808,1032 L3095,1392" stroke="blue" stroke-width="2" />
<path d="M4384,995 L456,1300" stroke="blue" stroke-width="2" />
<path d="M1547,205 L4268,1787" stroke="blue" stroke-width="2" />
<path d="M3297,553 L768,443" stroke="blue" stroke-width="2" />
<path d="M640,324 L810,1511" stroke="blue" stroke-width="2" />
<path d="M4340,2111 L969,1577" stroke="blue" stroke-width="2" />
<path d="M320,617 L1785,312" stroke="blue" stroke-width="2" />
<path d="M2465,1050 L1697,35" stroke="blue" stroke-width="2" />
<path d="M3737,920 L1814,321" stroke="blue" stroke-width="2" />
<path d="M4635,932 L3412,1626" stroke="blue" stroke-width="2" />
<path d="M1171,168 L2793,1191" stroke="blue" stroke-width="2" />
<path d="M2989,618 L1279,1492" stroke="blue" stroke-width="2" />
<path d="M1950,1271 L3399,1246" stroke="blue" stroke-width="2" />
<path d="M668,903 L265,676" stroke="blue" stroke-width="2" />
<path d="M963,789 L2307,613" stroke="blue" stroke-width="2" />
<path d="M1163,677 L4601,370" stroke="blue" stroke-width="2" />
<path d="M3366,14 L4927,588" stroke="blue" stroke-width="2" />
<path d="M770,267 L3225,2139" stroke="blue" stroke-width="2" />
<path d="M1851,674 L605,2010" stroke="blue" stroke-width="2" />
<path d="M1792,733 L1989,1977" stroke="blue" stroke-width="2" />
<path d="M3934,1745 L935,1338" stroke="blue" stroke-width="2" />
<path d="M4620,1751 L4762,1619" stroke="blue" stroke-width="2" />
<path d="M3529,556 L1119,369" stroke="blue" stroke-width="2" />
<path d="M4432,1075 L4727,336" stroke="blue" stroke-width="2" />
<path d="M2638,293 L2387,1965" stroke="blue" stroke-width="2" />
<path d="M3956,1847 L302,1060" stroke="blue" stroke-width="2" />
<path d="M2671,556 L4051,2075" stroke="blue" stroke-width="2" />
<path d="M2449,162 L1018,1717" stroke="blue" stroke-width="2" />
<path d="M583,539 L4240,184" stroke="blue" stroke-width="2" />
<path d="M3349,217 L652,1360" stroke="blue" stroke-width="2" />
<path d="M1478,1382 L1326,711" stroke="blue" stroke-width="2" />
<path d="M2073,1578 L2973,1214" stroke="blue" stroke-width="2" />
<path d="M4406,1157 L348,433" stroke="blue" stroke-width="2" />
<path d="M3139,437 L3465,928" stroke="blue" stroke-width="2" />
<path d="M674,594 L4279,997" stroke="blue" stroke-width="2" />
<path d="M2882,511 L3126,6" stroke="blue" stroke-width="2" />
<path d="M4340,1705 L2107,975" stroke="blue" stroke-width="2" />
<path d="M3592,1351 L4036,1647" stroke="blue" stroke-width="2" />
<path d="M1338,15 L1401,1229" stroke="blue" stroke-width="2" />
<path d="M3238,474 L4829,2027" stroke="blue" stroke-width="2" />
<path d="M1110,1189 L842,1855" stroke="blue" stroke-width="2" />
<path d="M1868,46 L3830,400" stroke="blue" stroke-width="2" />
<path d="M423,240 L4692,1016" stroke="blue" stroke-width="2" />
<path d="M3098,0 L4681,890" stroke="blue" stroke-width="2" />
<path d="M4764,1430 L4339,1197" stroke="blue" stroke-width="2" />
<path d="M610,919 L4123,343" stroke="blue" stroke-width="2" />
<path d="M4467,1154 L1848,1820" stroke="blue" stroke-width="2" />
<path d="M4026,1041 L4051,1883" stroke="blue" stroke-width="2" />
<path d="M2982,1079 L221,484" stroke="blue" stroke-width="2" />
<path d="M2663,396 L2405,1714" stroke="blue" stroke-width="2" />
<path d="M989,19 L4319,336" stroke="blue" stroke-width="2" />
<path d="M3542,48 L4252,845" stroke="blue" stroke-width="2" />
<path d="M2236,649 L4292,2044" stroke="blue" stroke-width="2" />
<path d="M1183,1491 L663,237" stroke="blue" stroke-width="2" />
<path d="M1085,357 L1076,763" stroke="blue" stroke-width="2" />
<path d="M3952,1202 L1660,1353" stroke="blue" stroke-width="2" />
<path d="M2173,1774 L1450,1121" stroke="blue" stroke-width="2" />
<path d="M3479,48 L359,1623" stroke="blue" stroke-width="2" />
<path d="M953,857 L1926,1244" stroke="blue" stroke-width="2" />
<path d="M1352,930 L2115,2049" stroke="blue" stroke-width="2" />
<path d="M1186,1400 L2746,370" stroke="blue" stroke-width="2" />
<path d="M3821,1535 L3360,1207" stroke="blue" stroke-width="2" />
<path d="M433,955 L119,143" stroke="blue" stroke-width="2" />
<path d="M2922,8 L4601,2093" stroke="blue" stroke-width="2" />
<path d="M4921,155 L564,543" stroke="blue" stroke-width="2" />
<path d="M4734,942 L1736,579" stroke="blue" stroke-width="2" />
<path d="M3917,106 L1081,1709" stroke="blue" stroke-width="2" />
<path d="M2394,868 L4425,1751" stroke="blue" stroke-width="2" />
<path d="M1684,512 L3242,409" stroke="blue" stroke-width="2" />
<path d="M2936,1985 L2403,997" stroke="blue" stroke-width="2" />
<path d="M1839,574 L4185,2095" stroke="blue" stroke-width="2" />
<path d="M373,1774 L1391,1234" stroke="blue" stroke-width="2" />
<path d="M1704,305 L333,1535" stroke="blue" stroke-width="2" />
<path d="M4635,1006 L734,1191" stroke="blue" stroke-width="2" />
<path d="M2560,1241 L4835,1875" stroke="blue" stroke-width="2" />
<path d="M3509,872 L4266,105" stroke="blue" stroke-width="2" />
<path d="M4146,1747 L3654,302" stroke="blue" stroke-width="2" />
<path d="M4311,1171 L3206,857" stroke="blue" stroke-width="2" />
<path d="M1534,1719 L3537,1749" stroke="blue" stroke-width="2" />
<path d="M4238,1608 L3471,1568" stroke="blue" stroke-width="2" />
<path d="M1623,490 L758,1257" stroke="blue" stroke-width="2" />
<path d="M4761,2094 L1552,171" stroke="blue" stroke-width="2" />
<path d="M3173,1862 L2772,2137" stroke="blue" stroke-width="2" />
<path d="M865,1446 L1442,1749" stroke="blue" stroke-width="2" />
<path d="M1077,1439 L3252,398" stroke="blue" stroke-width="2" />
<path d="M2228,638 L2428,1385" stroke="blue" stroke-width="2" />
<path d="M3616,1352 L3830,1963" stroke="blue" stroke-width="2" />
<path d="M3306,1929 L1418,2104" stroke="blue" stroke-width="2" />
<path d="M1046,1899 L1710,615" stroke="blue" stroke-width="2" />
<path d="M594,160 L4044,856" stroke="blue" stroke-width="2" />
<path d="M3753,1648 L466,1524" stroke="blue" stroke-width="2" />
<path d="M4498,1261 L639,162" stroke="blue" stroke-width="2" />
<path d="M2779,763 L1679,1621" stroke="blue" stroke-width="2" />
<path d="M3132,1774 L377,428" stroke="blue" stroke-width="2" />
<path d="M4347,2109 L1812,2016" stroke="blue" stroke-width="2" />
<path d="M3,1232 L3054,1161" stroke="blue" stroke-width="2" />
<path d="M1378,1322 L674,492" stroke="blue" stroke-width="2" />
<path d="M2712,686 L569,756" stroke="blue" stroke-width="2" />
<path d="M1173,700 L4081,290" stroke="blue" stroke-width="2" />
<path d="M1953,176 L3702,605" stroke="blue" stroke-width="2" />
<path d="M2115,203 L3924,2013" stroke="blue" stroke-width="2" />
<path d="M3936,589 L2219,14" stroke="blue" stroke-width="2" />
<path d="M2597,471 L4934,1688" stroke="blue" stroke-width="2" />
<path d="M1246,925 L2155,676" stroke="blue" stroke-width="2" />
<path d="M2837,1050 L207,368" stroke="blue" stroke-width="2" />
<path d="M375,1599 L175,1923" stroke="blue" stroke-width="2" />
<path d="M2885,1551 L4262,2033" stroke="blue" stroke-width="2" />
<path d="M1141,1652 L2631,878" stroke="blue" stroke-width="2" />
<path d="M3486,701 L3883,2102" stroke="blue" stroke-width="2" />
<path d="M4392,827 L2347,1300" stroke="blue" stroke-width="2" />
<path d="M4187,1157 L3135,143" stroke="blue" stroke-width="2" />
<path d="M3852,1856 L2044,1706" stroke="blue" stroke-width="2" />
<path d="M2878,930 L1139,543" stroke="blue" stroke-width="2" />
<path d="M3964,1315 L4029,1727" stroke="blue" stroke-width="2" />
<path d="M750,1588 L4897,1660" stroke="blue" stroke-width="2" />
<path d="M699,1895 L2861,244" stroke="blue" stroke-width="2" />
<path d="M3878,535 L3899,1944" stroke="blue" stroke-width="2" />
<path d="M3198,369 L2620,708" stroke="blue" stroke-width="2" />
<path d="M160,405 L3240,1922" stroke="blue" stroke-width="2" />
<path d="M3863,780 L1212,381" stroke="blue" stroke-width="2" />
<path d="M4590,1639 L3083,511" stroke="blue" stroke-width="2" />
<path d="M907,361 L2907,1027" stroke="blue" stroke-width="2" />
<path d="M1537,1648 L3790,80" stroke="blue" stroke-width="2" />
<path d="M4573,1341 L2667,415" stroke="blue" stroke-width="2" />
<path d="M4881,1427 L4172,1442" stroke="blue" stroke-width="2" />
<path d="M4427,553 L2279,1610" stroke="blue" stroke-width="2" />
<path d="M4529,997 L845,1834" stroke="blue" stroke-width="2" />
<path d="M2297,176 L4577,623" stroke="blue" stroke-width="2" />
<path d="M4215,433 L2397,1390" stroke="blue" stroke-width="2" />
<path d="M773,1584 L3122,842" stroke="blue" stroke-width="2" />
<path d="M262,1450 L3127,1691" stroke="blue" stroke-width="2" />
<path d="M101,1530 L3493,1644" stroke="blue" stroke-width="2" />
<path d="M224,1831 L4523,610" stroke="blue" stroke-width="2" />
<path d="M3343,275 L4412,1204" stroke="blue" stroke-width="2" />
<path d="M4271,1308 L3790,1201" stroke="blue" stroke-width="2" />
<path d="M3729,347 L1669,323" stroke="blue" stroke-width="2" />
<path d="M3990,94 L3922,1701" stroke="blue" stroke-width="2" />
<path d="M2215,1730 L3553,1412" stroke="blue" stroke-width="2" />
<path d="M1871,1774 L1803,31" stroke="blue" stroke-width="2" />
<path d="M650,566 L4770,349" stroke="blue" stroke-width="2" />
<path d="M378,1077 L1163,241" stroke="blue" stroke-width="2" />
<path d="M1855,1915 L2417,2066" stroke="blue" stroke-width="2" />
<path d="M1254,41 L2955,873" stroke="blue" stroke-width="2" />
<path d="M1356,2011 L3643,191" stroke="blue" stroke-width="2" />
<path d="M1623,1577 L2931,46" stroke="blue" stroke-width="2" />
<path d="M1809,2121 L1508,1889" stroke="blue" stroke-width="2" />
<path d="M1640,960 L273,1689" stroke="blue" stroke-width="2" />
<path d="M3606,1337 L4697,1135" stroke="blue" stroke-width="2" />
<path d="M3686,1877 L1481,282" stroke="blue" stroke-width="2" />
<path d="M1682,1849 L341,724" stroke="blue" stroke-width="2" />
<path d="M2106,1519 L587,516" stroke="blue" stroke-width="2" />
<path d="M1923,1064 L4236,190" stroke="blue" stroke-width="2" />
<path d="M15,527 L3767,734" stroke="blue" stroke-width="2" />
<path d="M2372,1646 L1583,559" stroke="blue" stroke-width="2" />
<path d="M4079,57 L27,1349" stroke="blue" stroke-width="2" />
<path d="M4894,199 L583,1446" stroke="blue" stroke-width="2" />
<path d="M444,1938 L4065,220" stroke="blue" stroke-width="2" />
<path d="M48,1772 L2407,1859" stroke="blue" stroke-width="2" />
<path d="M3534,204 L824,1015" stroke="blue" stroke-width="2" />
<path d="M0,0 L4935,0" stroke="red" stroke-width="10" />
<path d="M4935,0 L4935,2148" stroke="red" stroke-width="10" />
<path d="M0,2148 L4935,2148" stroke="red" stroke-width="10" />
<path d="M0,2148 L0,0" stroke="red" stroke-width="10" />
</svg>