<?xml version="1.0" encoding="UTF-8"?>
<svg xmlns="http://www.w3.org/2000/svg" xmlns:xlink="http://www.w3.org/1999/xlink"
     width="10000" height="10000" viewBox="0 0 10000 10000">
<defs>
</defs>
<path d="M5227,2757 L2412,855" stroke="blue" stroke-width="2" />
<path d="M1134,4534 L4654,182" stroke="blue" stroke-width="2" />
<path d="M2449,1101 L5564,4964" stroke="blue" stroke-width="2" />
<path d="M3046,2426 L6888,457" stroke="blue" stroke-width="2" />
<path d="M7373,4229 L5876,2770" stroke="blue" stroke-width="2" />
<path d="M3146,4202 L1375,4767" stroke="blue" stroke-width="2" />
<path d="M3878,4087 L2226,840" stroke="blue" stroke-width="2" />
<path d="M6904,572 L1917,2974" stroke="blue" stroke-width="2" />
<path d="M5473,1700 L5666,178" stroke="blue" stroke-width="2" />
<path d="M7342,149 L4474,1400" stroke="blue" stroke-width="2" />
<path d="M1155,1433 L5531,1000" stroke="blue" stroke-width="2" />
<path d="M5166,2197 L4204,2103" stroke="blue" stroke-width="2" />
<path d="M7617,524 L4446,3674" stroke="blue" stroke-width="2" />
<path d="M465,2564 L1720,3324" stroke="blue" stroke-width="2" />
<path d="M6490,411 L6924,3509" stroke="blue" stroke-width="2" />
<path d="M1089,1314 L7043,4643" stroke="blue" stroke-width="2" />
<path d="M2657,1924 L5259,4872" stroke="blue" stroke-width="2" />
<path d="M6201,4331 L7271,2735" stroke="blue" stroke-width="2" />
<path d="M2114,3608 L6280,2339" stroke="blue" stroke-width="2" />
<path d="M38,418 L705,4921" stroke="blue" stroke-width="2" />
<path d="M870,1552 L3496,4736" stroke="blue" stroke-width="2" />
<path d="M3330,721 L667,3802" stroke="blue" stroke-width="2" />
<path d="M7426,4416 L5789,1608" stroke="blue" stroke-width="2" />
<path d="M2617,1265 L2191,4197" stroke="blue" stroke-width="2" />
<path d="M919,534 L6463,1395" stroke="blue" stroke-width="2" />
<path d="M1357,3987 L2318,3440" stroke="blue" stroke-width="2" />
<path d="M5608,440 L2000,1952" stroke="blue" stroke-width="2" />
<path d="M5900,3827 L6221,2239" stroke="blue" stroke-width="2" />
<path d="M1911,2403 L4382,2966" stroke="blue" stroke-width="2" />
<path d="M2578,2313 L6920,1718" stroke="blue" stroke-width="2" />
<path d="M4663,1091 L2431,2724" stroke="blue" stroke-width="2" />
<path d="M6435,4696 L1692,3200" stroke="blue" stroke-width="2" />
<path d="M3952,4086 L3712,4719" stroke="blue" stroke-width="2" />
<path d="M4757,2232 L6741,4774" stroke="blue" stroke-width="2" />
<path d="M940,4958 L1171,3537" stroke="blue" stroke-width="2" />
<path d="M1414,4356 L6616,376" stroke="blue" stroke-width="2" />
<path d="M7142,4484 L1051,3776" stroke="blue" stroke-width="2" />
<path d="M4386,1464 L1581,2226" stroke="blue" stroke-width="2" />
<path d="M5246,556 L89,718" stroke="blue" stroke-width="2" />
<path d="M1921,4251 L1757,2321" stroke="blue" stroke-width="2" />
<path d="M7310,576 L4016,2668" stroke="blue" stroke-width="2" />
<path d="M6600,319 L5589,1478" stroke="blue" stroke-width="2" />
<path d="M3304,460 L4956,2441" stroke="blue" stroke-width="2" />
<path d="M5898,3042 L4015,4400" stroke="blue" stroke-width="2" />
<path d="M3168,3329 L3462,4417" stroke="blue" stroke-width="2" />
<path d="M6473,3127 L5126,2670" stroke="blue" stroke-width="2" />
<path d="M3314,3384 L6585,4169" stroke="blue" stroke-width="2" />
<path d="M1883,4644 L5372,1760" stroke="blue" stroke-width="2" />
<path d="M1983,4348 L7307,898" stroke="blue" stroke-width="2" />
<path d="M324,2016 L3450,3477" stroke="blue" stroke-width="2" />
<path d="M5548,3659 L1959,2405" stroke="blue" stroke-width="2" />
<path d="M1480,4427 L3060,4790" stroke="blue" stroke-width="2" />
<path d="M6040,1692 L7617,3521" stroke="blue" stroke-width="2" />
<path d="M964,2130 L3381,160" stroke="blue" stroke-width="2" />
<path d="M3816,455 L7074,2910" stroke="blue" stroke-width="2" />
<path d="M3464,1055 L6174,2936" stroke="blue" stroke-width="2" />
<path d="M7209,4019 L900,4856" stroke="blue" stroke-width="2" />
<path d="M6550,4039 L1804,4236" stroke="blue" stroke-width="2" />
<path d="M2702,330 L860,3559" stroke="blue" stroke-width="2" />
<path d="M4049,4492 L7615,2831" stroke="blue" stroke-width="2" />
<path d="M1108,248 L7322,1437" stroke="blue" stroke-width="2" />
<path d="M2581,3670 L6058,4159" stroke="blue" stroke-width="2" />
<path d="M1373,3207 L3699,4279" stroke="blue" stroke-width="2" />
<path d="M2608,758 L2445,3507" stroke="blue" stroke-width="2" />
<path d="M781,2060 L862,2045" stroke="blue" stroke-width="2" />
<path d="M7147,3834 L2448,4760" stroke="blue" stroke-width="2" />
<path d="M2891,3545 L4222,4839" stroke="blue" stroke-width="2" />
<path d="M2187,2088 L2950,2667" stroke="blue" stroke-width="2" />
<path d="M918,508 L293,73" stroke="blue" stroke-width="2" />
<path d="M3127,3987 L636,3002" stroke="blue" stroke-width="2" />
<path d="M4612,2387 L5699,2133" stroke="blue" stroke-width="2" />
<path d="M7085,917 L3935,417" stroke="blue" stroke-width="2" />
<path d="M4665,4543 L3502,172" stroke="blue" stroke-width="2" />
<path d="M5409,2174 L3586,1117" stroke="blue" stroke-width="2" />
<path d="M1954,2881 L1815,2241" stroke="blue" stroke-width="2" />
<path d="M7202,4394 L251,3224" stroke="blue" stroke-width="2" />
<path d="M7369,3314 L6785,501" stroke="blue" stroke-width="2" />
<path d="M5169,1138 L2873,2078" stroke="blue" stroke-width="2" />
<path d="M3284,2730 L5097,4594" stroke="blue" stroke-width="2" />
<path d="M6324,570 L3544,1303" stroke="blue" stroke-width="2" />
<path d="M6826,743 L4674,282" stroke="blue" stroke-width="2" />
<path d="M191,3223 L1996,2834" stroke="blue" stroke-width="2" />
<path d="M2876,2849 L477,1077" stroke="blue" stroke-width="2" />
<path d="M5822,446 L6192,880" stroke="blue" stroke-width="2" />
<path d="M5571,2335 L2206,4998" stroke="blue" stroke-width="2" />
<path d="M6131,4635 L4207,1167" stroke="blue" stroke-width="2" />
<path d="M521,1390 L1610,774" stroke="blue" stroke-width="2" />
<path d="M6354,2646 L3125,4063" stroke="blue" stroke-width="2" />
<path d="M3840,2351 L5980,1175" stroke="blue" stroke-width="2" />
<path d="M7540,1871 L965,1069" stroke="blue" stroke-width="2" />
<path d="M5579,1766 L3690,4878" stroke="blue" stroke-width="2" />
<path d="M1078,4039 L3441,1046" stroke="blue" stroke-width="2" />
<path d="M1276,3262 L5372,2484" stroke="blue" stroke-width="2" />
<path d="M562,2582 L1270,3498" stroke="blue" stroke-width="2" />
<path d="M99,2169 L4837,1641" stroke="blue" stroke-width="2" />
<path d="M6711,2081 L3572,318" stroke="blue" stroke-width="2" />
<path d="M3423,1150 L4798,4134" stroke="blue" stroke-width="2" />
<path d="M3463,1474 L3159,470" stroke="blue" stroke-width="2" />
<path d="M4487,3045 L6524,3819" stroke="blue" stroke-width="2" />
<path d="M7257,3320 L7299,1777" stroke="blue" stroke-width="2" />
<path d="M6515,1321 L6272,310" stroke="blue" stroke-width="2" />
<path d="M674,4057 L6704,2554" stroke="blue" stroke-width="2" />
<path d="M4686,1515 L3475,2092" stroke="blue" stroke-width="2" />
<path d="M1058,4264 L1967,745" stroke="blue" stroke-width="2" />
<path d="M2490,434 L6952,1877" stroke="blue" stroke-width="2" />
<path d="M1699,2479 L6997,2785" stroke="blue" stroke-width="2" />
<path d="M1827,1245 L4440,4444" stroke="blue" stroke-width="2" />
<path d="M6107,379 L6958,540" stroke="blue" stroke-width="2" />
<path d="M3589,4545 L7037,3664" stroke="blue" stroke-width="2" />
<path d="M4328,1192 L2488,82" stroke="blue" stroke-width="2" />
<path d="M3391,2900 L3972,250" stroke="blue" stroke-width="2" />
<path d="M4090,3178 L6608,4326" stroke="blue" stroke-width="2" />
<path d="M4486,2866 L5944,1812" stroke="blue" stroke-width="2" />
<path d="M1576,1520 L1549,380" stroke="blue" stroke-width="2" />
<path d="M4151,1214 L6868,482" stroke="blue" stroke-width="2" />
<path d="M1363,4256 L6501,2915" stroke="blue" stroke-width="2" />
<path d="M1497,3778 L3660,3820" stroke="blue" stroke-width="2" />
<path d="M3113,4732 L2792,4752" stroke="blue" stroke-width="2" />
<path d="M2032,4499 L5870,2553" stroke="blue" stroke-width="2" />
<path d="M3196,2914 L1109,1420" stroke="blue" stroke-width="2" />
<path d="M1295,591 L3759,1137" stroke="blue" stroke-width="2" />
<path d="M6956,3034 L1657,3693" stroke="blue" stroke-width="2" />
<path d="M1460,2440 L7020,3746" stroke="blue" stroke-width="2" />
<path d="M3256,1312 L7247,1002" stroke="blue" stroke-width="2" />
<path d="M40,1810 L5265,197" stroke="blue" stroke-width="2" />
<path d="M3082,2681 L3264,4348" stroke="blue" stroke-width="2" />
<path d="M2797,1108 L6048,1122" stroke="blue" stroke-width="2" />
<path d="M976,1888 L6664,3689" stroke="blue" stroke-width="2" />
<path d="M6912,4918 L5029,3109" stroke="blue" stroke-width="2" />
<path d="M595,2181 L2630,1934" stroke="blue" stroke-width="2" />
<path d="M405,4755 L3108,5030" stroke="blue" stroke-width="2" />
<path d="M5766,1777 L1184,2461" stroke="blue" stroke-width="2" />
<path d="M3175,1157 L3393,2320" stroke="blue" stroke-width="2" />
<path d="M6531,3384 L1244,1143" stroke="blue" stroke-width="2" />
<path d="M3658,2075 L6514,655" stroke="blue" stroke-width="2" />
<path d="M6152,2676 L6244,2989" stroke="blue" stroke-width="2" />
<path d="M1877,3419 L6982,4602" stroke="blue" stroke-width="2" />
<path d="M5982,1122 L7497,4125" stroke="blue" stroke-width="2" />
<path d="M6661,3936 L1778,2314" stroke="blue" stroke-width="2" />
<path d="M6396,1771 L6071,1870" stroke="blue" stroke-width="2" />
<path d="M5051,1774 L1285,2509" stroke="blue" stroke-width="2" />
<path d="M4702,1855 L3799,1229" stroke="blue" stroke-width="2" />
<path d="M5090,2925 L7268,2832" stroke="blue" stroke-width="2" />
<path d="M724,2147 L715,3460" stroke="blue" stroke-width="2" />
<path d="M4273,4469 L500,2770" stroke="blue" stroke-width="2" />
<path d="M4815,1669 L3691,4547" stroke="blue" stroke-width="2" />
<path d="M3728,1796 L5888,297" stroke="blue" stroke-width="2" />
<path d="M2523,921 L2149,4691" stroke="blue" stroke-width="2" />
<path d="M3122,3848 L789,4811" stroke="blue" stroke-width="2" />
<path d="M3826,58 L3117,77" stroke="blue" stroke-width="2" />
<path d="M2499,2650 L6703,1257" stroke="blue" stroke-width="2" />
<path d="M5128,4852 L7388,1543" stroke="blue" stroke-width="2" />
<path d="M5437,1195 L1692,4387" stroke="blue" stroke-width="2" />
<path d="M6950,2234 L867,3473" stroke="blue" stroke-width="2" />
<path d="M3497,3333 L3591,3594" stroke="blue" stroke-width="2" />
<path d="M1468,3220 L6202,3112" stroke="blue" stroke-width="2" />
<path d="M1861,4337 L6799,3105" stroke="blue" stroke-width="2" />
<path d="M3181,4766 L4856,1016" stroke="blue" stroke-width="2" />
<path d="M1188,4713 L2763,4052" stroke="blue" stroke-width="2" />
<path d="M1040,4520 L2649,2178" stroke="blue" stroke-width="2" />
<path d="M3545,4628 L3180,773" stroke="blue" stroke-width="2" />
<path d="M4958,3279 L2885,4992" stroke="blue" stroke-width="2" />
<path d="M2753,86 L934,441" stroke="blue" stroke-width="2" />
<path d="M781,2086 L775,474" stroke="blue" stroke-width="2" />
<path d="M977,3792 L7322,3885" stroke="blue" stroke-width="2" />
<path d="M39,1524 L3962,319" stroke="blue" stroke-width="2" />
<path d="M4769,277 L1336,243" stroke="blue" stroke-width="2" />
<path d="M6062,508 L4782,2959" stroke="blue" stroke-width="2" />
<path d="M3502,2606 L5975,2677" stroke="blue" stroke-width="2" />
<path d="M5730,2191 L2119,3120" stroke="blue" stroke-width="2" />
<path d="M7601,3037 L2350,4274" stroke="blue" stroke-width="2" />
<path d="M5459,1118 L475,4584" stroke="blue" stroke-width="2" />
<path d="M5410,4268 L3217,3189" stroke="blue" stroke-width="2" />
<path d="M439,166 L2480,4706" stroke="blue" stroke-width="2" />
<path d="M7549,3796 L355,3076" stroke="blue" stroke-width="2" />
<path d="M4071,4233 L5492,173" stroke="blue" stroke-width="2" />
<path d="M3397,2071 L2216,1218" stroke="blue" stroke-width="2" />
<path d="M2573,590 L5788,1904" stroke="blue" stroke-width="2" />
<path d="M5543,1120 L3112,4171" stroke="blue" stroke-width="2" />
<path d="M6426,476 L730,888" stroke="blue" stroke-width="2" />
<path d="M2582,1785 L2740,3974" stroke="blue" stroke-width="2" />
<path d="M1999,194 L2362,4743" stroke="blue" stroke-width="2" />
<path d="M1131,219 L4662,1311" stroke="blue" stroke-width="2" />
<path d="M2327,997 L3323,4505" stroke="blue" stroke-width="2" />
<path d="M7203,1267 L6489,3531" stroke="blue" stroke-width="2" />
<path d="M1656,1523 L3533,4150" stroke="blue" stroke-width="2" />
<path d="M5295,4399 L7029,58" stroke="blue" stroke-width="2" />
<path d="M3457,1456 L3362,1460" stroke="blue" stroke-width="2" />
<path d="M7134,1260 L4385,1302" stroke="blue" stroke-width="2" />
<path d="M4022,2127 L3836,220" stroke="blue" stroke-width="2" />
<path d="M430,1464 L3818,2198" stroke="blue" stroke-width="2" />
<path d="M6023,450 L4634,1498" stroke="blue" stroke-width="2" />
<path d="M1509,401 L591,1671" stroke="blue" stroke-width="2" />
<path d="M5886,1104 L1684,3606" stroke="blue" stroke-width="2" />
<path d="M2071,807 L6123,1896" stroke="blue" stroke-width="2" />
<path d="M426,4125 L7304,1418" stroke="blue" stroke-width="2" />
<path d="M4126,994 L3458,4504" stroke="blue" stroke-width="2" />
<path d="M5957,4635 L1301,183" stroke="blue" stroke-width="2" />
<path d="M4210,1283 L6917,2576" stroke="blue" stroke-width="2" />
<path d="M7085,2180 L4153,1519" stroke="blue" stroke-width="2" />
<path d="M4824,4934 L1493,1989" stroke="blue" stroke-width="2" />
<path d="M3684,138 L5612,2578" stroke="blue" stroke-width="2" />
<path d="M7014,3092 L4495,1509" stroke="blue" stroke-width="2" />
<path d="M394,3249 L6432,3518" stroke="blue" stroke-width="2" />
<path d="M6633,1004 L5397,2728" stroke="blue" stroke-width="2" />
<path d="M2332,4477 L2650,1862" stroke="blue" stroke-width="2" />
<path d="M4410,4507 L7311,3723" stroke="blue" stroke-width="2" />
<path d="M6097,4116 L7366,3540" stroke="blue" stroke-width="2" />
<path d="M4411,1164 L3802,4952" stroke="blue" stroke-width="2" />
<path d="M1317,1884 L976,1801" stroke="blue" stroke-width="2" />
<path d="M2009,4785 L2881,1339" stroke="blue" stroke-width="2" />
<path d="M6238,2603 L4635,2791" stroke="blue" stroke-width="2" />
<path d="M1974,4532 L2453,1191" stroke="blue" stroke-width="2" />
<path d="M7075,2773 L6273,1298" stroke="blue" stroke-width="2" />
<path d="M3898,5028 L1527,4215" stroke="blue" stroke-width="2" />
<path d="M3664,275 L150,3201" stroke="blue" stroke-width="2" />
<path d="M6265,4284 L934,2061" stroke="blue" stroke-width="2" />
<path d="M7026,2701 L2921,3269" stroke="blue" stroke-width="2" />
<path d="M3748,4608 L3107,3145" stroke="blue" stroke-width="2" />
<path d="M4760,4809 L6510,2888" stroke="blue" stroke-width="2" />
<path d="M6996,781 L2630,2984" stroke="blue" stroke-width="2" />
<path d="M1984,742 L5677,554" stroke="blue" stroke-width="2" />
<path d="M1457,1182 L2694,1065" stroke="blue" stroke-width="2" />
<path d="M537,1438 L4967,1122" stroke="blue" stroke-width="2" />
<path d="M980,979 L3928,4833" stroke="blue" stroke-width="2" />
<path d="M2554,1349 L1081,3749" stroke="blue" stroke-width="2" />
<path d="M6158,1122 L180,1321" stroke="blue" stroke-width="2" />
<path d="M3591,1 L5724,3056" stroke="blue" stroke-width="2" />
<path d="M1228,1663 L6789,2120" stroke="blue" stroke-width="2" />
<path d="M3089,673 L4496,1998" stroke="blue" stroke-width="2" />
<path d="M1335,4101 L970,414" stroke="blue" stroke-width="2" />
<path d="M1836,913 L855,4166" stroke="blue" stroke-width="2" />
<path d="M4882,3312 L2886,2441" stroke="blue" stroke-width="2" />
<path d="M1320,2111 L2212,87" stroke="blue" stroke-width="2" />
<path d="M3355,3458 L1350,3819" stroke="blue" stroke-width="2" />
<path d="M2326,3095 L3450,939" stroke="blue" stroke-width="2" />
<path d="M2721,2259 L1346,4720" stroke="blue" stroke-width="2" />
<path d="M5048,2244 L4434,1757" stroke="blue" stroke-width="2" />
<path d="M5534,3930 L6020,1316" stroke="blue" stroke-width="2" />
<path d="M2835,4912 L1799,543" stroke="blue" stroke-width="2" />
<path d="M1184,4932 L5237,4187" stroke="blue" stroke-width="2" />
<path d="M6978,1841 L4180,3209" stroke="blue" stroke-width="2" />
<path d="M3855,1619 L2896,4202" stroke="blue" stroke-width="2" />
<path d="M5140,3238 L5171,42" stroke="blue" stroke-width="2" />
<path d="M6373,1259 L2857,676" stroke="blue" stroke-width="2" />
<path d="M4559,4733 L7173,4195" stroke="blue" stroke-width="2" />
<path d="M1755,2274 L4659,2894" stroke="blue" stroke-width="2" />
<path d="M3380,3256 L3139,181" stroke="blue" stroke-width="2" />
<path d="M2919,4326 L5305,1921" stroke="blue" stroke-width="2" />
<path d="M5082,3817 L7105,1673" stroke="blue" stroke-width="2" />
<path d="M4748,3422 L5635,3252" stroke="blue" stroke-width="2" />
<path d="M59,2970 L5075,470" stroke="blue" stroke-width="2" />
<path d="M5073,2773 L654,4116" stroke="blue" stroke-width="2" />
<path d="M6966,1213 L591,304" stroke="blue" stroke-width="2" />
<path d="M1463,4707 L5801,1184" stroke="blue" stroke-width="2" />
<path d="M4269,2721 L2171,875" stroke="blue" stroke-width="2" />
<path d="M3294,1864 L2526,1083" stroke="blue" stroke-width="2" />
<path d="M2521,4461 L3555,419" stroke="blue" stroke-width="2" />
<path d="M1644,3562 L6327,622" stroke="blue" stroke-width="2" />
<path d="M3253,3839 L7210,5048" stroke="blue" stroke-width="2" />
<path d="M5129,4760 L455,4548" stroke="blue" stroke-width="2" />
<path d="M7263,1671 L193,3011" stroke="blue" stroke-width="2" />
<path d="M873,4329 L5473,1811" stroke="blue" stroke-width="2" />
<path d="M522,113 L3072,2673" stroke="blue" stroke-width="2" />
<path d="M1321,1639 L7107,4956" stroke="blue" stroke-width="2" />
<path d="M3388,1242 L4662,3698" stroke="blue" stroke-width="2" />
<path d="M4940,2685 L4593,2860" stroke="blue" stroke-width="2" />
<path d="M1271,3856 L1035,570" stroke="blue" stroke-width="2" />
<path d="M1204,2780 L1125,1929" stroke="blue" stroke-width="2" />
<path d="M5292,1631 L2913,5037" stroke="blue" stroke-width="2" />
<path d="M636,1410 L4223,4542" stroke="blue" stroke-width="2" />
<path d="M546,1029 L4399,3715" stroke="blue" stroke-width="2" />
<path d="M612,3149 L6053,2171" stroke="blue" stroke-width="2" />
<path d="M48,4100 L2393,3997" stroke="blue" stroke-width="2" />
<path d="M3862,1927 L4965,5014" stroke="blue" stroke-width="2" />
<path d="M4289,4344 L5181,1003" stroke="blue" stroke-width="2" />
<path d="M7169,412 L4925,3" stroke="blue" stroke-width="2" />
<path d="M4113,4186 L239,146" stroke="blue" stroke-width="2" />
<path d="M6162,4701 L7251,1331" stroke="blue" stroke-width="2" />
<path d="M3881,4837 L7381,4169" stroke="blue" stroke-width="2" />
<path d="M2250,930 L1401,4981" stroke="blue" stroke-width="2" />
<path d="M566,3515 L6162,2749" stroke="blue" stroke-width="2" />
<path d="M4162,3118 L2154,4818" stroke="blue" stroke-width="2" />
<path d="M5357,5048 L6712,718" stroke="blue" stroke-width="2" />
<path d="M345,4484 L2294,3616" stroke="blue" stroke-width="2" />
<path d="M1671,2258 L6140,1429" stroke="blue" stroke-width="2" />
<path d="M4292,446 L4112,3557" stroke="blue" stroke-width="2" />
<path d="M1334,3921 L5626,3267" stroke="blue" stroke-width="2" />
<path d="M4286,1192 L6091,900" stroke="blue" stroke-width="2" />
<path d="M2825,4310 L5455,3811" stroke="blue" stroke-width="2" />
<path d="M5276,4944 L2825,4190" stroke="blue" stroke-width="2" />
<path d="M3455,72 L2469,219" stroke="blue" stroke-width="2" />
<path d="M4679,1898 L5584,4572" stroke="blue" stroke-width="2" />
<path d="M370,315 L6088,2037" stroke="blue" stroke-width="2" />
<path d="M962,3421 L3161,4610" stroke="blue" stroke-width="2" />
<path d="M2650,3891 L3418,4414" stroke="blue" stroke-width="2" />
<path d="M473,284 L991,3722" stroke="blue" stroke-width="2" />
<path d="M729,3627 L6221,425" stroke="blue" stroke-width="2" />
<path d="M4242,1160 L3553,635" stroke="blue" stroke-width="2" />
<path d="M4361,3276 L3480,1219" stroke="blue" stroke-width="2" />
<path d="M4588,4627 L6898,51" stroke="blue" stroke-width="2" />
<path d="M1290,3346 L6964,2432" stroke="blue" stroke-width="2" />
<path d="M1417,5033 L3099,2354" stroke="blue" stroke-width="2" />
<path d="M3712,3192 L681,4579" stroke="blue" stroke-width="2" />
<path d="M5348,3768 L4504,1356" stroke="blue" stroke-width="2" />
<path d="M5488,3514 L1061,2422" stroke="blue" stroke-width="2" />
<path d="M2974,966 L2479,1655" stroke="blue" stroke-width="2" />
<path d="M913,1103 L206,3796" stroke="blue" stroke-width="2" />
<path d="M1284,4753 L4336,274" stroke="blue" stroke-width="2" />
<path d="M4011,4474 L5866,3114" stroke="blue" stroke-width="2" />
<path d="M4182,1277 L1558,3940" stroke="blue" stroke-width="2" />
<path d="M7134,4359 L3065,2090" stroke="blue" stroke-width="2" />
<path d="M6859,2269 L5544,4048" stroke="blue" stroke-width="2" />
<path d="M3118,4596 L1513,1564" stroke="blue" stroke-width="2" />
<path d="M1624,2030 L6223,3554" stroke="blue" stroke-width="2" />
<path d="M5442,2229 L143,2739" stroke="blue" stroke-width="2" />
<path d="M7053,5025 L2178,1100" stroke="blue" stroke-width="2" />
<path d="M181,2960 L1369,3452" stroke="blue" stroke-width="2" />
<path d="M4430,3067 L4718,2621" stroke="blue" stroke-width="2" />
<path d="M4882,5062 L3476,89" stroke="blue" stroke-width="2" />
<path d="M2396,1615 L1464,1499" stroke="blue" stroke-width="2" />
<path d="M4181,4636 L6926,1157" stroke="blue" stroke-width="2" />
<path d="M2897,382 L6884,186" stroke="blue" stroke-width="2" />
<path d="M6942,3279 L843,701" stroke="blue" stroke-width="2" />
<path d="M5344,1156 L4234,3639" stroke="blue" stroke-width="2" />
<path d="M3602,2985 L7382,294" stroke="blue" stroke-width="2" />
<path d="M4973,4267 L6975,3322" stroke="blue" stroke-width="2" />
<path d="M6766,2200 L7125,3434" stroke="blue" stroke-width="2" />
<path d="M6708,4451 L3956,195" stroke="blue" stroke-width="2" />
<path d="M5224,2533 L3537,1192" stroke="blue" stroke-width="2" />
<path d="M6333,303 L2892,3463" stroke="blue" stroke-width="2" />
<path d="M7096,1641 L5182,2365" stroke="blue" stroke-width="2" />
<path d="M1104,941 L4409,519" stroke="blue" stroke-width="2" />
<path d="M6842,691 L6904,1761" stroke="blue" stroke-width="2" />
<path d="M2131,2444 L5731,4892" stroke="blue" stroke-width="2" />
<path d="M0,0 L7632,0" stroke="red" stroke-width="10" />
<path d="M7632,0 L7632,5068" stroke="red" stroke-width="10" />
<path d="M0,5068 L7632,5068" stroke="red" stroke-width="10" />
<path d="M0,5068 L0,0" stroke="red" stroke-width="10" />
</svg>