<?xml version="1.0" encoding="UTF-8"?>
<svg xmlns="http://www.w3.org/2000/svg" xmlns:xlink="http://www.w3.org/1999/xlink"
     width="10000" height="10000" viewBox="0 0 10000 10000">
<defs>
</defs>
<path d="M2,5884 L1122,3692" stroke="blue" stroke-width="2" />
<path d="M423,3664 L634,7287" stroke="blue" stroke-width="2" />
<path d="M858,6752 L902,7749" stroke="blue" stroke-width="2" />
<path d="M990,8017 L699,4189" stroke="blue" stroke-width="2" />
<path d="M903,4299 L633,2845" stroke="blue" stroke-width="2" />
<path d="M835,4905 L1197,936" stroke="blue" stroke-width="2" />
<path d="M53,3276 L455,1951" stroke="blue" stroke-width="2" />
<path d="M1159,1916 L1281,5990" stroke="blue" stroke-width="2" />
<path d="M1232,282 L1122,375" stroke="blue" stroke-width="2" />
<path d="M257,7576 L882,2721" stroke="blue" stroke-width="2" />
<path d="M488,7049 L1308,1676" stroke="blue" stroke-width="2" />
<path d="M627,4346 L394,1055" stroke="blue" stroke-width="2" />
<path d="M739,4929 L487,1830" stroke="blue" stroke-width="2" />
<path d="M586,8155 L299,3697" stroke="blue" stroke-width="2" />
<path d="M196,4000 L370,3804" stroke="blue" stroke-width="2" />
<path d="M1078,6291 L171,7613" stroke="blue" stroke-width="2" />
<path d="M331,2188 L662,2434" stroke="blue" stroke-width="2" />
<path d="M1418,4112 L847,5560" stroke="blue" stroke-width="2" />
<path d="M981,4893 L460,3045" stroke="blue" stroke-width="2" />
<path d="M582,8037 L157,3021" stroke="blue" stroke-width="2" />
<path d="M793,7469 L446,865" stroke="blue" stroke-width="2" />
<path d="M1168,5752 L405,5423" stroke="blue" stroke-width="2" />
<path d="M404,7965 L1043,6351" stroke="blue" stroke-width="2" />
<path d="M15,6285 L1269,5085" stroke="blue" stroke-width="2" />
<path d="M940,1030 L1341,253" stroke="blue" stroke-width="2" />
<path d="M1262,6655 L1086,7060" stroke="blue" stroke-width="2" />
<path d="M143,6261 L855,1554" stroke="blue" stroke-width="2" />
<path d="M989,3004 L920,2251" stroke="blue" stroke-width="2" />
<path d="M465,1750 L1183,8290" stroke="blue" stroke-width="2" />
<path d="M913,6401 L509,4347" stroke="blue" stroke-width="2" />
<path d="M156,3413 L1295,5068" stroke="blue" stroke-width="2" />
<path d="M1152,1546 L676,4741" stroke="blue" stroke-width="2" />
<path d="M1422,1357 L387,4144" stroke="blue" stroke-width="2" />
<path d="M1336,3470 L737,6452" stroke="blue" stroke-width="2" />
<path d="M508,1612 L1308,3322" stroke="blue" stroke-width="2" />
<path d="M68,7268 L770,6386" stroke="blue" stroke-width="2" />
<path d="M305,4135 L772,2524" stroke="blue" stroke-width="2" />
<path d="M104,1073 L1327,7022" stroke="blue" stroke-width="2" />
<path d="M544,949 L874,1596" stroke="blue" stroke-width="2" />
<path d="M201,7886 L860,817" stroke="blue" stroke-width="2" />
<path d="M1151,8210 L699,2083" stroke="blue" stroke-width="2" />
<path d="M790,836 L700,7143" stroke="blue" stroke-width="2" />
<path d="M1071,43 L1210,5395" stroke="blue" stroke-width="2" />
<path d="M1231,3358 L1201,2870" stroke="blue" stroke-width="2" />
<path d="M435,1662 L886,2496" stroke="blue" stroke-width="2" />
<path d="M414,1567 L380,6011" stroke="blue" stroke-width="2" />
<path d="M596,5258 L576,768" stroke="blue" stroke-width="2" />
<path d="M558,6192 L1402,7573" stroke="blue" stroke-width="2" />
<path d="M143,804 L110,2883" stroke="blue" stroke-width="2" />
<path d="M751,3517 L3,2916" stroke="blue" stroke-width="2" />
<path d="M385,202 L1294,4410" stroke="blue" stroke-width="2" />
<path d="M984,517 L812,2589" stroke="blue" stroke-width="2" />
<path d="M152,1186 L6,4271" stroke="blue" stroke-width="2" />
<path d="M1134,4818 L536,4958" stroke="blue" stroke-width="2" />
<path d="M108,7966 L25,175" stroke="blue" stroke-width="2" />
<path d="M16,409 L803,1906" stroke="blue" stroke-width="2" />
<path d="M393,3515 L277,1821" stroke="blue" stroke-width="2" />
<path d="M571,1861 L1085,4346" stroke="blue" stroke-width="2" />
<path d="M1354,8220 L1406,2903" stroke="blue" stroke-width="2" />
<path d="M531,6721 L1154,6404" stroke="blue" stroke-width="2" />
<path d="M286,5468 L27,6529" stroke="blue" stroke-width="2" />
<path d="M370,4749 L1201,2337" stroke="blue" stroke-width="2" />
<path d="M157,6311 L1079,7997" stroke="blue" stroke-width="2" />
<path d="M631,6077 L1049,4785" stroke="blue" stroke-width="2" />
<path d="M153,2339 L1311,7178" stroke="blue" stroke-width="2" />
<path d="M375,221 L162,5100" stroke="blue" stroke-width="2" />
<path d="M484,3965 L124,7912" stroke="blue" stroke-width="2" />
<path d="M231,3627 L1329,8039" stroke="blue" stroke-width="2" />
<path d="M74,6245 L1178,2974" stroke="blue" stroke-width="2" />
<path d="M950,596 L129,5393" stroke="blue" stroke-width="2" />
<path d="M561,6157 L831,5490" stroke="blue" stroke-width="2" />
<path d="M1152,547 L921,6535" stroke="blue" stroke-width="2" />
<path d="M601,5070 L222,3575" stroke="blue" stroke-width="2" />
<path d="M923,7789 L544,6772" stroke="blue" stroke-width="2" />
<path d="M586,1856 L137,4762" stroke="blue" stroke-width="2" />
<path d="M612,3024 L628,4510" stroke="blue" stroke-width="2" />
<path d="M1074,123 L815,4540" stroke="blue" stroke-width="2" />
<path d="M1050,7027 L825,2711" stroke="blue" stroke-width="2" />
<path d="M719,4308 L301,2148" stroke="blue" stroke-width="2" />
<path d="M122,2754 L100,7182" stroke="blue" stroke-width="2" />
<path d="M985,7815 L1383,3984" stroke="blue" stroke-width="2" />
<path d="M1395,7456 L1403,2094" stroke="blue" stroke-width="2" />
<path d="M730,4489 L561,1552" stroke="blue" stroke-width="2" />
<path d="M1204,4914 L732,3731" stroke="blue" stroke-width="2" />
<path d="M3,819 L1250,377" stroke="blue" stroke-width="2" />
<path d="M1200,5 L1409,139" stroke="blue" stroke-width="2" />
<path d="M798,1399 L146,4155" stroke="blue" stroke-width="2" />
<path d="M951,2483 L1412,1224" stroke="blue" stroke-width="2" />
<path d="M153,1466 L215,428" stroke="blue" stroke-width="2" />
<path d="M961,3110 L206,3592" stroke="blue" stroke-width="2" />
<path d="M10,2594 L1090,4067" stroke="blue" stroke-width="2" />
<path d="M707,3807 L1033,416" stroke="blue" stroke-width="2" />
<path d="M94,3602 L452,6636" stroke="blue" stroke-width="2" />
<path d="M363,7970 L1076,1005" stroke="blue" stroke-width="2" />
<path d="M501,575 L222,5383" stroke="blue" stroke-width="2" />
<path d="M920,1878 L216,5755" stroke="blue" stroke-width="2" />
<path d="M1013,7406 L646,1266" stroke="blue" stroke-width="2" />
<path d="M0,0 L1425,0" stroke="red" stroke-width="10" />
<path d="M1425,0 L1425,8301" stroke="red" stroke-width="10" />
<path d="M0,8301 L1425,8301" stroke="red" stroke-width="10" />
<path d="M0,8301 L0,0" stroke="red" stroke-width="10" />
</svg>