<?xml version="1.0" encoding="UTF-8"?>
<svg xmlns="http://www.w3.org/2000/svg" xmlns:xlink="http://www.w3.org/1999/xlink"
     width="10000" height="10000" viewBox="0 0 10000 10000">
<defs>
</defs>
<path d="M879,630 L2257,721" stroke="blue" stroke-width="2" />
<path d="M5885,5745 L7606,4665" stroke="blue" stroke-width="2" />
<path d="M7004,6847 L1795,6256" stroke="blue" stroke-width="2" />
<path d="M154,3648 L5440,1322" stroke="blue" stroke-width="2" />
<path d="M5652,6342 L1799,2560" stroke="blue" stroke-width="2" />
<path d="M1876,2643 L720,413" stroke="blue" stroke-width="2" />
<path d="M94,2614 L3553,2349" stroke="blue" stroke-width="2" />
<path d="M3,4314 L6922,4708" stroke="blue" stroke-width="2" />
<path d="M381,6058 L7466,6977" stroke="blue" stroke-width="2" />
<path d="M596,4201 L2926,1052" stroke="blue" stroke-width="2" />
<path d="M5054,2431 L4232,7000" stroke="blue" stroke-width="2" />
<path d="M1423,3488 L5781,5910" stroke="blue" stroke-width="2" />
<path d="M1073,1816 L4403,5180" stroke="blue" stroke-width="2" />
<path d="M2012,4102 L6478,5495" stroke="blue" stroke-width="2" />
<path d="M4276,5955 L5991,1333" stroke="blue" stroke-width="2" />
<path d="M1600,6604 L4949,2620" stroke="blue" stroke-width="2" />
<path d="M2865,3252 L3652,976" stroke="blue" stroke-width="2" />
<path d="M549,6865 L6618,2915" stroke="blue" stroke-width="2" />
<path d="M5554,2949 L5731,455" stroke="blue" stroke-width="2" />
<path d="M5687,6262 L3818,3481" stroke="blue" stroke-width="2" />
<path d="M6702,2969 L4229,1798" stroke="blue" stroke-width="2" />
<path d="M5748,1431 L1307,1400" stroke="blue" stroke-width="2" />
<path d="M1920,2850 L5047,6242" stroke="blue" stroke-width="2" />
<path d="M1121,4349 L5182,1787" stroke="blue" stroke-width="2" />
<path d="M6907,2063 L365,28" stroke="blue" stroke-width="2" />
<path d="M6518,753 L1765,4560" stroke="blue" stroke-width="2" />
<path d="M662,671 L1546,1658" stroke="blue" stroke-width="2" />
<path d="M784,6249 L4605,916" stroke="blue" stroke-width="2" />
<path d="M5632,2740 L522,2856" stroke="blue" stroke-width="2" />
<path d="M6558,4886 L738,2150" stroke="blue" stroke-width="2" />
<path d="M465,4787 L7422,5542" stroke="blue" stroke-width="2" />
<path d="M6512,5251 L3618,2979" stroke="blue" stroke-width="2" />
<path d="M5757,2697 L5330,3995" stroke="blue" stroke-width="2" />
<path d="M6461,6063 L2172,1087" stroke="blue" stroke-width="2" />
<path d="M4682,3695 L6559,1074" stroke="blue" stroke-width="2" />
<path d="M5192,668 L6893,1876" stroke="blue" stroke-width="2" />
<path d="M382,3486 L5497,467" stroke="blue" stroke-width="2" />
<path d="M6848,2797 L860,5034" stroke="blue" stroke-width="2" />
<path d="M6876,2605 L2437,2843" stroke="blue" stroke-width="2" />
<path d="M4435,3790 L1780,5927" stroke="blue" stroke-width="2" />
<path d="M1582,2844 L1783,3235" stroke="blue" stroke-width="2" />
<path d="M916,2076 L2937,2792" stroke="blue" stroke-width="2" />
<path d="M3417,5858 L319,5985" stroke="blue" stroke-width="2" />
<path d="M1442,3670 L3272,2310" stroke="blue" stroke-width="2" />
<path d="M4463,6841 L7229,2730" stroke="blue" stroke-width="2" />
<path d="M4542,5816 L6056,5828" stroke="blue" stroke-width="2" />
<path d="M3371,1703 L7196,6032" stroke="blue" stroke-width="2" />
<path d="M3295,6848 L648,1317" stroke="blue" stroke-width="2" />
<path d="M3299,6998 L4022,3156" stroke="blue" stroke-width="2" />
<path d="M7393,1083 L4411,1170" stroke="blue" stroke-width="2" />
<path d="M6047,1544 L7286,5856" stroke="blue" stroke-width="2" />
<path d="M4247,6723 L103,5425" stroke="blue" stroke-width="2" />
<path d="M6627,3456 L2823,4413" stroke="blue" stroke-width="2" />
<path d="M4441,6204 L1648,3775" stroke="blue" stroke-width="2" />
<path d="M3651,6891 L7731,2591" stroke="blue" stroke-width="2" />
<path d="M6037,1350 L2864,1430" stroke="blue" stroke-width="2" />
<path d="M7452,5340 L6482,1618" stroke="blue" stroke-width="2" />
<path d="M1486,2542 L84,1721" stroke="blue" stroke-width="2" />
<path d="M2615,1819 L164,3120" stroke="blue" stroke-width="2" />
<path d="M7112,3992 L658,5396" stroke="blue" stroke-width="2" />
<path d="M4175,4260 L944,5054" stroke="blue" stroke-width="2" />
<path d="M7431,4034 L3879,589" stroke="blue" stroke-width="2" />
<path d="M5653,5281 L4097,4432" stroke="blue" stroke-width="2" />
<path d="M138,693 L6423,936" stroke="blue" stroke-width="2" />
<path d="M1745,1108 L6923,4150" stroke="blue" stroke-width="2" />
<path d="M2579,4957 L4566,251" stroke="blue" stroke-width="2" />
<path d="M3023,739 L6229,4291" stroke="blue" stroke-width="2" />
<path d="M861,5048 L6773,3071" stroke="blue" stroke-width="2" />
<path d="M5718,1149 L4468,4853" stroke="blue" stroke-width="2" />
<path d="M2684,2487 L7655,1043" stroke="blue" stroke-width="2" />
<path d="M5771,6501 L1236,4452" stroke="blue" stroke-width="2" />
<path d="M2180,4245 L5270,2359" stroke="blue" stroke-width="2" />
<path d="M5245,4300 L5002,1163" stroke="blue" stroke-width="2" />
<path d="M6415,6045 L5975,2352" stroke="blue" stroke-width="2" />
<path d="M1125,90 L7412,2875" stroke="blue" stroke-width="2" />
<path d="M4275,4021 L4971,2036" stroke="blue" stroke-width="2" />
<path d="M6949,92 L5760,6099" stroke="blue" stroke-width="2" />
<path d="M6783,2528 L5454,6431" stroke="blue" stroke-width="2" />
<path d="M433,4979 L88,877" stroke="blue" stroke-width="2" />
<path d="M1805,3854 L5329,5362" stroke="blue" stroke-width="2" />
<path d="M5284,6651 L2489,5016" stroke="blue" stroke-width="2" />
<path d="M4897,1578 L778,3874" stroke="blue" stroke-width="2" />
<path d="M6155,4752 L6084,2362" stroke="blue" stroke-width="2" />
<path d="M969,6464 L6147,5248" stroke="blue" stroke-width="2" />
<path d="M2495,5424 L5275,6945" stroke="blue" stroke-width="2" />
<path d="M1447,36 L6362,6753" stroke="blue" stroke-width="2" />
<path d="M6909,323 L1522,4765" stroke="blue" stroke-width="2" />
<path d="M3545,4812 L5855,4212" stroke="blue" stroke-width="2" />
<path d="M7548,6667 L3942,715" stroke="blue" stroke-width="2" />
<path d="M1653,6883 L6509,2135" stroke="blue" stroke-width="2" />
<path d="M2814,1245 L4811,6411" stroke="blue" stroke-width="2" />
<path d="M798,5643 L1512,2403" stroke="blue" stroke-width="2" />
<path d="M7559,5842 L5665,4889" stroke="blue" stroke-width="2" />
<path d="M249,1956 L4325,6369" stroke="blue" stroke-width="2" />
<path d="M6422,868 L4944,1269" stroke="blue" stroke-width="2" />
<path d="M2263,4016 L5334,4873" stroke="blue" stroke-width="2" />
<path d="M5197,3957 L7116,3302" stroke="blue" stroke-width="2" />
<path d="M7547,2600 L2868,5133" stroke="blue" stroke-width="2" />
<path d="M351,5994 L2143,4382" stroke="blue" stroke-width="2" />
<path d="M2815,4330 L3858,5059" stroke="blue" stroke-width="2" />
<path d="M33,728 L5314,433" stroke="blue" stroke-width="2" />
<path d="M5199,3816 L974,1309" stroke="blue" stroke-width="2" />
<path d="M5614,4801 L4070,2516" stroke="blue" stroke-width="2" />
<path d="M7307,6262 L6562,4931" stroke="blue" stroke-width="2" />
<path d="M3696,3076 L2763,6276" stroke="blue" stroke-width="2" />
<path d="M2248,6217 L4189,935" stroke="blue" stroke-width="2" />
<path d="M6291,1567 L6413,492" stroke="blue" stroke-width="2" />
<path d="M4059,4950 L1559,5132" stroke="blue" stroke-width="2" />
<path d="M6973,5854 L4760,207" stroke="blue" stroke-width="2" />
<path d="M2360,1690 L82,334" stroke="blue" stroke-width="2" />
<path d="M7475,6104 L2659,3927" stroke="blue" stroke-width="2" />
<path d="M7022,663 L6682,5582" stroke="blue" stroke-width="2" />
<path d="M6783,1188 L6473,6012" stroke="blue" stroke-width="2" />
<path d="M2879,2026 L5431,4065" stroke="blue" stroke-width="2" />
<path d="M7312,261 L3330,1559" stroke="blue" stroke-width="2" />
<path d="M5640,610 L2509,6614" stroke="blue" stroke-width="2" />
<path d="M7403,807 L3639,5943" stroke="blue" stroke-width="2" />
<path d="M3490,1138 L1128,1170" stroke="blue" stroke-width="2" />
<path d="M7278,2585 L1083,4612" stroke="blue" stroke-width="2" />
<path d="M2399,3993 L3053,6525" stroke="blue" stroke-width="2" />
<path d="M6592,5244 L5409,2762" stroke="blue" stroke-width="2" />
<path d="M4800,4855 L859,5944" stroke="blue" stroke-width="2" />
<path d="M5197,2595 L1833,4102" stroke="blue" stroke-width="2" />
<path d="M3833,3213 L3392,6420" stroke="blue" stroke-width="2" />
<path d="M7297,711 L5459,2165" stroke="blue" stroke-width="2" />
<path d="M1341,7014 L282,3349" stroke="blue" stroke-width="2" />
<path d="M1113,6353 L3877,3260" stroke="blue" stroke-width="2" />
<path d="M1118,1970 L1181,5452" stroke="blue" stroke-width="2" />
<path d="M4188,4456 L5329,5005" stroke="blue" stroke-width="2" />
<path d="M5900,4376 L4869,3035" stroke="blue" stroke-width="2" />
<path d="M5315,2676 L5822,1305" stroke="blue" stroke-width="2" />
<path d="M4053,781 L251,4835" stroke="blue" stroke-width="2" />
<path d="M6830,2151 L7230,1077" stroke="blue" stroke-width="2" />
<path d="M3410,5551 L62,975" stroke="blue" stroke-width="2" />
<path d="M5631,5802 L3002,5005" stroke="blue" stroke-width="2" />
<path d="M4576,6970 L1782,2198" stroke="blue" stroke-width="2" />
<path d="M7685,652 L4373,2157" stroke="blue" stroke-width="2" />
<path d="M116,2348 L3695,926" stroke="blue" stroke-width="2" />
<path d="M3705,5004 L3834,5702" stroke="blue" stroke-width="2" />
<path d="M6219,986 L3501,162" stroke="blue" stroke-width="2" />
<path d="M7262,342 L7205,1764" stroke="blue" stroke-width="2" />
<path d="M605,1200 L3776,3044" stroke="blue" stroke-width="2" />
<path d="M3264,6371 L3758,1940" stroke="blue" stroke-width="2" />
<path d="M6332,3372 L495,6913" stroke="blue" stroke-width="2" />
<path d="M7304,4036 L2003,3345" stroke="blue" stroke-width="2" />
<path d="M1278,1340 L1981,1571" stroke="blue" stroke-width="2" />
<path d="M1432,4825 L95,3739" stroke="blue" stroke-width="2" />
<path d="M2798,6497 L4789,3848" stroke="blue" stroke-width="2" />
<path d="M5234,4233 L4547,437" stroke="blue" stroke-width="2" />
<path d="M3814,6788 L6895,524" stroke="blue" stroke-width="2" />
<path d="M865,4584 L1277,904" stroke="blue" stroke-width="2" />
<path d="M262,5800 L4620,5281" stroke="blue" stroke-width="2" />
<path d="M7584,2700 L1347,6129" stroke="blue" stroke-width="2" />
<path d="M898,5073 L1834,2220" stroke="blue" stroke-width="2" />
<path d="M3136,3198 L7475,208" stroke="blue" stroke-width="2" />
<path d="M4802,3764 L4029,6412" stroke="blue" stroke-width="2" />
<path d="M4426,5693 L3790,5062" stroke="blue" stroke-width="2" />
<path d="M1638,1804 L7007,4163" stroke="blue" stroke-width="2" />
<path d="M7663,27 L1029,1182" stroke="blue" stroke-width="2" />
<path d="M3632,664 L7247,791" stroke="blue" stroke-width="2" />
<path d="M7222,4825 L4975,5079" stroke="blue" stroke-width="2" />
<path d="M6796,2845 L4077,4820" stroke="blue" stroke-width="2" />
<path d="M7455,4048 L5099,5259" stroke="blue" stroke-width="2" />
<path d="M2637,3806 L572,3530" stroke="blue" stroke-width="2" />
<path d="M1468,720 L1022,640" stroke="blue" stroke-width="2" />
<path d="M5678,1863 L107,6600" stroke="blue" stroke-width="2" />
<path d="M3081,2809 L3205,2515" stroke="blue" stroke-width="2" />
<path d="M7292,6368 L2038,638" stroke="blue" stroke-width="2" />
<path d="M5472,1005 L5603,1786" stroke="blue" stroke-width="2" />
<path d="M274,4957 L5987,6788" stroke="blue" stroke-width="2" />
<path d="M6547,499 L2103,7038" stroke="blue" stroke-width="2" />
<path d="M1806,1284 L153,6301" stroke="blue" stroke-width="2" />
<path d="M148,3888 L4985,2176" stroke="blue" stroke-width="2" />
<path d="M6703,1197 L5074,686" stroke="blue" stroke-width="2" />
<path d="M372,6648 L797,6074" stroke="blue" stroke-width="2" />
<path d="M3781,4026 L7588,6506" stroke="blue" stroke-width="2" />
<path d="M285,2316 L7706,5216" stroke="blue" stroke-width="2" />
<path d="M2902,490 L3486,6856" stroke="blue" stroke-width="2" />
<path d="M2102,3805 L7706,6202" stroke="blue" stroke-width="2" />
<path d="M6226,4620 L6174,5367" stroke="blue" stroke-width="2" />
<path d="M99,6061 L2179,2654" stroke="blue" stroke-width="2" />
<path d="M5896,4690 L7116,6893" stroke="blue" stroke-width="2" />
<path d="M5644,676 L5815,2575" stroke="blue" stroke-width="2" />
<path d="M4193,5222 L6502,4987" stroke="blue" stroke-width="2" />
<path d="M2631,5287 L2023,4460" stroke="blue" stroke-width="2" />
<path d="M7608,5080 L3618,2524" stroke="blue" stroke-width="2" />
<path d="M6051,1396 L2937,1615" stroke="blue" stroke-width="2" />
<path d="M2594,3949 L5975,2240" stroke="blue" stroke-width="2" />
<path d="M148,5203 L2288,5564" stroke="blue" stroke-width="2" />
<path d="M3512,2960 L5923,3067" stroke="blue" stroke-width="2" />
<path d="M1516,2038 L4480,1162" stroke="blue" stroke-width="2" />
<path d="M4429,2240 L4640,723" stroke="blue" stroke-width="2" />
<path d="M4973,3746 L5890,3322" stroke="blue" stroke-width="2" />
<path d="M5308,5237 L1056,3041" stroke="blue" stroke-width="2" />
<path d="M2351,5880 L7498,6096" stroke="blue" stroke-width="2" />
<path d="M2949,6382 L6286,5980" stroke="blue" stroke-width="2" />
<path d="M2730,1536 L4603,5098" stroke="blue" stroke-width="2" />
<path d="M5709,1810 L5449,2948" stroke="blue" stroke-width="2" />
<path d="M4992,1705 L5246,3837" stroke="blue" stroke-width="2" />
<path d="M4461,1277 L7080,598" stroke="blue" stroke-width="2" />
<path d="M7472,3824 L1670,5600" stroke="blue" stroke-width="2" />
<path d="M838,6610 L7285,26" stroke="blue" stroke-width="2" />
<path d="M1187,5942 L6974,3419" stroke="blue" stroke-width="2" />
<path d="M2488,1722 L2515,1765" stroke="blue" stroke-width="2" />
<path d="M3142,3873 L6754,6495" stroke="blue" stroke-width="2" />
<path d="M3692,3036 L1226,4316" stroke="blue" stroke-width="2" />
<path d="M2883,1784 L1846,864" stroke="blue" stroke-width="2" />
<path d="M6868,6025 L1778,5442" stroke="blue" stroke-width="2" />
<path d="M3562,4992 L5057,457" stroke="blue" stroke-width="2" />
<path d="M6424,3070 L5337,1403" stroke="blue" stroke-width="2" />
<path d="M6843,3437 L252,2410" stroke="blue" stroke-width="2" />
<path d="M19,1458 L6938,6459" stroke="blue" stroke-width="2" />
<path d="M4887,1044 L706,3635" stroke="blue" stroke-width="2" />
<path d="M1961,6686 L6338,3587" stroke="blue" stroke-width="2" />
<path d="M1584,1050 L5569,2005" stroke="blue" stroke-width="2" />
<path d="M7389,4719 L1209,4151" stroke="blue" stroke-width="2" />
<path d="M5128,3564 L5947,2144" stroke="blue" stroke-width="2" />
<path d="M4546,5585 L7328,6831" stroke="blue" stroke-width="2" />
<path d="M4492,2540 L5038,4284" stroke="blue" stroke-width="2" />
<path d="M7213,1889 L6239,2710" stroke="blue" stroke-width="2" />
<path d="M7704,1770 L1285,5559" stroke="blue" stroke-width="2" />
<path d="M1430,6025 L5458,1224" stroke="blue" stroke-width="2" />
<path d="M1589,3495 L507,6294" stroke="blue" stroke-width="2" />
<path d="M3135,4617 L3083,999" stroke="blue" stroke-width="2" />
<path d="M4683,5163 L1240,6836" stroke="blue" stroke-width="2" />
<path d="M7473,2493 L183,2046" stroke="blue" stroke-width="2" />
<path d="M5421,6852 L3572,5452" stroke="blue" stroke-width="2" />
<path d="M7131,861 L527,3074" stroke="blue" stroke-width="2" />
<path d="M3910,5217 L2899,5326" stroke="blue" stroke-width="2" />
<path d="M5326,5163 L1931,5061" stroke="blue" stroke-width="2" />
<path d="M1104,1359 L3787,3488" stroke="blue" stroke-width="2" />
<path d="M3044,4656 L433,4188" stroke="blue" stroke-width="2" />
<path d="M700,2542 L3316,3893" stroke="blue" stroke-width="2" />
<path d="M6197,4763 L4762,3855" stroke="blue" stroke-width="2" />
<path d="M3552,1031 L1278,1690" stroke="blue" stroke-width="2" />
<path d="M7261,4579 L4717,6008" stroke="blue" stroke-width="2" />
<path d="M4269,6170 L2565,6686" stroke="blue" stroke-width="2" />
<path d="M4872,4228 L1459,3683" stroke="blue" stroke-width="2" />
<path d="M2188,708 L4752,3689" stroke="blue" stroke-width="2" />
<path d="M2228,6179 L4029,2983" stroke="blue" stroke-width="2" />
<path d="M7440,4901 L3032,1354" stroke="blue" stroke-width="2" />
<path d="M1016,4578 L2442,3357" stroke="blue" stroke-width="2" />
<path d="M7495,4631 L1539,3464" stroke="blue" stroke-width="2" />
<path d="M610,2253 L1174,6046" stroke="blue" stroke-width="2" />
<path d="M2071,2388 L6715,1483" stroke="blue" stroke-width="2" />
<path d="M7044,1817 L2243,6956" stroke="blue" stroke-width="2" />
<path d="M6135,6707 L1257,1330" stroke="blue" stroke-width="2" />
<path d="M6595,5677 L3670,2574" stroke="blue" stroke-width="2" />
<path d="M2587,3296 L3357,6874" stroke="blue" stroke-width="2" />
<path d="M127,5316 L933,3331" stroke="blue" stroke-width="2" />
<path d="M298,2492 L2954,4633" stroke="blue" stroke-width="2" />
<path d="M15,2116 L1746,319" stroke="blue" stroke-width="2" />
<path d="M5465,3507 L5059,6774" stroke="blue" stroke-width="2" />
<path d="M6064,5343 L1792,1514" stroke="blue" stroke-width="2" />
<path d="M1042,3909 L3557,2202" stroke="blue" stroke-width="2" />
<path d="M5308,6976 L536,6359" stroke="blue" stroke-width="2" />
<path d="M5454,2655 L6132,4340" stroke="blue" stroke-width="2" />
<path d="M6270,2807 L3598,2296" stroke="blue" stroke-width="2" />
<path d="M2298,1278 L5519,6971" stroke="blue" stroke-width="2" />
<path d="M702,46 L7442,6067" stroke="blue" stroke-width="2" />
<path d="M6481,2416 L3610,5695" stroke="blue" stroke-width="2" />
<path d="M3112,773 L280,4874" stroke="blue" stroke-width="2" />
<path d="M3039,2083 L4084,3704" stroke="blue" stroke-width="2" />
<path d="M45,2582 L1533,1869" stroke="blue" stroke-width="2" />
<path d="M5904,4147 L775,6392" stroke="blue" stroke-width="2" />
<path d="M6587,24 L5191,2884" stroke="blue" stroke-width="2" />
<path d="M7415,4717 L3071,5724" stroke="blue" stroke-width="2" />
<path d="M5404,3314 L2029,6480" stroke="blue" stroke-width="2" />
<path d="M1663,3336 L3046,1185" stroke="blue" stroke-width="2" />
<path d="M7137,746 L4292,1528" stroke="blue" stroke-width="2" />
<path d="M2518,1184 L3506,4171" stroke="blue" stroke-width="2" />
<path d="M5341,4821 L7061,4843" stroke="blue" stroke-width="2" />
<path d="M5559,2298 L1042,6007" stroke="blue" stroke-width="2" />
<path d="M6245,3103 L2662,6088" stroke="blue" stroke-width="2" />
<path d="M4429,6177 L5323,384" stroke="blue" stroke-width="2" />
<path d="M398,3591 L6062,3323" stroke="blue" stroke-width="2" />
<path d="M5159,3252 L7232,5748" stroke="blue" stroke-width="2" />
<path d="M1133,513 L1766,2298" stroke="blue" stroke-width="2" />
<path d="M821,4678 L3509,168" stroke="blue" stroke-width="2" />
<path d="M1074,1026 L4273,5501" stroke="blue" stroke-width="2" />
<path d="M5513,2059 L2721,6455" stroke="blue" stroke-width="2" />
<path d="M5460,4534 L3035,2449" stroke="blue" stroke-width="2" />
<path d="M1241,4099 L7344,6657" stroke="blue" stroke-width="2" />
<path d="M7465,4163 L5910,2320" stroke="blue" stroke-width="2" />
<path d="M2808,5875 L5400,3353" stroke="blue" stroke-width="2" />
<path d="M4687,6831 L63,3383" stroke="blue" stroke-width="2" />
<path d="M1863,653 L2575,2194" stroke="blue" stroke-width="2" />
<path d="M4802,6039 L1481,5622" stroke="blue" stroke-width="2" />
<path d="M7301,269 L3549,2754" stroke="blue" stroke-width="2" />
<path d="M5295,217 L6755,5593" stroke="blue" stroke-width="2" />
<path d="M5293,5903 L1160,1697" stroke="blue" stroke-width="2" />
<path d="M661,4927 L752,1012" stroke="blue" stroke-width="2" />
<path d="M4793,3980 L6040,5076" stroke="blue" stroke-width="2" />
<path d="M2319,1570 L4085,1342" stroke="blue" stroke-width="2" />
<path d="M4022,4823 L1659,4272" stroke="blue" stroke-width="2" />
<path d="M6335,1850 L4553,394" stroke="blue" stroke-width="2" />
<path d="M528,6288 L1663,1289" stroke="blue" stroke-width="2" />
<path d="M3456,2030 L1056,522" stroke="blue" stroke-width="2" />
<path d="M4331,5049 L6423,2453" stroke="blue" stroke-width="2" />
<path d="M4785,1416 L6246,714" stroke="blue" stroke-width="2" />
<path d="M6958,2104 L5459,2445" stroke="blue" stroke-width="2" />
<path d="M1226,3895 L3991,3006" stroke="blue" stroke-width="2" />
<path d="M3679,1208 L794,1857" stroke="blue" stroke-width="2" />
<path d="M6569,4072 L5291,3693" stroke="blue" stroke-width="2" />
<path d="M4687,4095 L7289,2467" stroke="blue" stroke-width="2" />
<path d="M1298,4424 L6116,7029" stroke="blue" stroke-width="2" />
<path d="M2952,1820 L3514,1747" stroke="blue" stroke-width="2" />
<path d="M3327,4942 L2072,1360" stroke="blue" stroke-width="2" />
<path d="M2091,4111 L6787,5801" stroke="blue" stroke-width="2" />
<path d="M4695,2622 L2149,333" stroke="blue" stroke-width="2" />
<path d="M6188,1069 L2308,6339" stroke="blue" stroke-width="2" />
<path d="M7034,1989 L2186,2659" stroke="blue" stroke-width="2" />
<path d="M3929,1110 L2933,5504" stroke="blue" stroke-width="2" />
<path d="M2471,5679 L5051,1729" stroke="blue" stroke-width="2" />
<path d="M6220,5140 L6807,6876" stroke="blue" stroke-width="2" />
<path d="M1541,2129 L2629,3439" stroke="blue" stroke-width="2" />
<path d="M6446,833 L4059,2817" stroke="blue" stroke-width="2" />
<path d="M1160,3343 L5274,3901" stroke="blue" stroke-width="2" />
<path d="M609,5966 L496,3523" stroke="blue" stroke-width="2" />
<path d="M5728,2296 L6059,1826" stroke="blue" stroke-width="2" />
<path d="M7133,3737 L2644,3419" stroke="blue" stroke-width="2" />
<path d="M1951,5421 L5395,6092" stroke="blue" stroke-width="2" />
<path d="M1433,6091 L1469,5629" stroke="blue" stroke-width="2" />
<path d="M6523,2776 L6107,5211" stroke="blue" stroke-width="2" />
<path d="M4254,3791 L910,2057" stroke="blue" stroke-width="2" />
<path d="M6583,775 L6142,4692" stroke="blue" stroke-width="2" />
<path d="M3899,2528 L842,5000" stroke="blue" stroke-width="2" />
<path d="M5459,3277 L4192,2027" stroke="blue" stroke-width="2" />
<path d="M7314,5093 L6492,6372" stroke="blue" stroke-width="2" />
<path d="M7581,49 L1470,4228" stroke="blue" stroke-width="2" />
<path d="M2653,4226 L7334,1950" stroke="blue" stroke-width="2" />
<path d="M7071,5295 L4922,999" stroke="blue" stroke-width="2" />
<path d="M5624,5976 L4044,5619" stroke="blue" stroke-width="2" />
<path d="M3688,2356 L5841,5247" stroke="blue" stroke-width="2" />
<path d="M6247,728 L2550,5552" stroke="blue" stroke-width="2" />
<path d="M4203,5461 L2019,6209" stroke="blue" stroke-width="2" />
<path d="M5986,6483 L6948,914" stroke="blue" stroke-width="2" />
<path d="M3748,3224 L6957,6362" stroke="blue" stroke-width="2" />
<path d="M5177,6729 L40,2621" stroke="blue" stroke-width="2" />
<path d="M1704,446 L6659,2647" stroke="blue" stroke-width="2" />
<path d="M2120,2465 L5397,3036" stroke="blue" stroke-width="2" />
<path d="M5511,1688 L7143,6173" stroke="blue" stroke-width="2" />
<path d="M1120,2828 L4162,6902" stroke="blue" stroke-width="2" />
<path d="M654,443 L5660,3888" stroke="blue" stroke-width="2" />
<path d="M3142,1274 L6541,4874" stroke="blue" stroke-width="2" />
<path d="M5395,6246 L3260,2457" stroke="blue" stroke-width="2" />
<path d="M7091,3335 L6005,5221" stroke="blue" stroke-width="2" />
<path d="M4193,4000 L6749,696" stroke="blue" stroke-width="2" />
<path d="M4172,2783 L1205,2279" stroke="blue" stroke-width="2" />
<path d="M6383,2760 L7561,6302" stroke="blue" stroke-width="2" />
<path d="M3546,1957 L5742,5027" stroke="blue" stroke-width="2" />
<path d="M6371,2486 L2904,2363" stroke="blue" stroke-width="2" />
<path d="M167,657 L3621,3117" stroke="blue" stroke-width="2" />
<path d="M7319,4937 L6251,6700" stroke="blue" stroke-width="2" />
<path d="M4660,1780 L868,2118" stroke="blue" stroke-width="2" />
<path d="M6692,5008 L2415,320" stroke="blue" stroke-width="2" />
<path d="M5750,5843 L2915,732" stroke="blue" stroke-width="2" />
<path d="M5536,4282 L5364,3425" stroke="blue" stroke-width="2" />
<path d="M494,5454 L2913,2696" stroke="blue" stroke-width="2" />
<path d="M7232,6385 L3719,3660" stroke="blue" stroke-width="2" />
<path d="M1791,3340 L1332,1698" stroke="blue" stroke-width="2" />
<path d="M2624,4300 L6378,3634" stroke="blue" stroke-width="2" />
<path d="M975,447 L4917,984" stroke="blue" stroke-width="2" />
<path d="M2608,1535 L2358,385" stroke="blue" stroke-width="2" />
<path d="M4817,364 L3807,2109" stroke="blue" stroke-width="2" />
<path d="M976,5431 L5067,910" stroke="blue" stroke-width="2" />
<path d="M1583,6266 L4521,1797" stroke="blue" stroke-width="2" />
<path d="M7360,1421 L4123,5447" stroke="blue" stroke-width="2" />
<path d="M3361,4567 L2725,6834" stroke="blue" stroke-width="2" />
<path d="M4032,1769 L3948,6220" stroke="blue" stroke-width="2" />
<path d="M6143,2137 L3377,7007" stroke="blue" stroke-width="2" />
<path d="M6097,4949 L3176,2248" stroke="blue" stroke-width="2" />
<path d="M729,3456 L76,540" stroke="blue" stroke-width="2" />
<path d="M5713,4886 L7716,3247" stroke="blue" stroke-width="2" />
<path d="M3169,5010 L7504,6572" stroke="blue" stroke-width="2" />
<path d="M4475,5750 L5553,1204" stroke="blue" stroke-width="2" />
<path d="M1627,61 L6513,3768" stroke="blue" stroke-width="2" />
<path d="M6862,861 L4153,941" stroke="blue" stroke-width="2" />
<path d="M4081,6982 L5780,356" stroke="blue" stroke-width="2" />
<path d="M5489,2097 L5408,4104" stroke="blue" stroke-width="2" />
<path d="M2594,3852 L7113,1738" stroke="blue" stroke-width="2" />
<path d="M6342,6652 L2276,6844" stroke="blue" stroke-width="2" />
<path d="M3207,3987 L6939,873" stroke="blue" stroke-width="2" />
<path d="M3035,3802 L4608,6657" stroke="blue" stroke-width="2" />
<path d="M2536,5287 L5112,3009" stroke="blue" stroke-width="2" />
<path d="M1539,3276 L3436,6193" stroke="blue" stroke-width="2" />
<path d="M4371,4974 L7085,123" stroke="blue" stroke-width="2" />
<path d="M3851,4229 L1381,358" stroke="blue" stroke-width="2" />
<path d="M3622,389 L5650,3909" stroke="blue" stroke-width="2" />
<path d="M7167,5974 L1429,2019" stroke="blue" stroke-width="2" />
<path d="M510,2168 L5143,6214" stroke="blue" stroke-width="2" />
<path d="M859,4983 L687,4120" stroke="blue" stroke-width="2" />
<path d="M6743,1033 L6653,2288" stroke="blue" stroke-width="2" />
<path d="M7332,986 L6240,4843" stroke="blue" stroke-width="2" />
<path d="M153,4105 L2684,398" stroke="blue" stroke-width="2" />
<path d="M0,0 L7733,0" stroke="red" stroke-width="10" />
<path d="M7733,0 L7733,7049" stroke="red" stroke-width="10" />
<path d="M0,7049 L7733,7049" stroke="red" stroke-width="10" />
<path d="M0,7049 L0,0" stroke="red" stroke-width="10" />
</svg>