<?xml version="1.0" encoding="UTF-8"?>
<svg xmlns="http://www.w3.org/2000/svg" xmlns:xlink="http://www.w3.org/1999/xlink"
     width="10000" height="10000" viewBox="0 0 10000 10000">
<defs>
</defs>
<path d="M4735,5888 L5695,3477" stroke="blue" stroke-width="2" />
<path d="M4992,5747 L6480,381" stroke="blue" stroke-width="2" />
<path d="M6582,4282 L2230,2230" stroke="blue" stroke-width="2" />
<path d="M6855,4157 L3632,3548" stroke="blue" stroke-width="2" />
<path d="M6154,2918 L2661,5601" stroke="blue" stroke-width="2" />
<path d="M8498,2840 L7276,3728" stroke="blue" stroke-width="2" />
<path d="M2108,4642 L2988,5485" stroke="blue" stroke-width="2" />
<path d="M6873,1647 L1311,4593" stroke="blue" stroke-width="2" />
<path d="M4086,4699 L6084,3839" stroke="blue" stroke-width="2" />
<path d="M3359,5768 L6915,1260" stroke="blue" stroke-width="2" />
<path d="M4202,4578 L4348,1076" stroke="blue" stroke-width="2" />
<path d="M444,3763 L7362,3755" stroke="blue" stroke-width="2" />
<path d="M2948,4572 L4213,5836" stroke="blue" stroke-width="2" />
<path d="M1457,1104 L3730,2190" stroke="blue" stroke-width="2" />
<path d="M5367,3899 L397,220" stroke="blue" stroke-width="2" />
<path d="M4853,4736 L1725,5937" stroke="blue" stroke-width="2" />
<path d="M1298,3733 L3087,1902" stroke="blue" stroke-width="2" />
<path d="M8362,2621 L2140,3119" stroke="blue" stroke-width="2" />
<path d="M7663,1507 L3,3088" stroke="blue" stroke-width="2" />
<path d="M3862,6364 L6175,2229" stroke="blue" stroke-width="2" />
<path d="M7616,2564 L8487,2120" stroke="blue" stroke-width="2" />
<path d="M7428,3415 L5587,821" stroke="blue" stroke-width="2" />
<path d="M1651,88 L4624,6480" stroke="blue" stroke-width="2" />
<path d="M7139,2245 L6360,1106" stroke="blue" stroke-width="2" />
<path d="M8026,3310 L4550,1725" stroke="blue" stroke-width="2" />
<path d="M4607,6597 L1349,1452" stroke="blue" stroke-width="2" />
<path d="M2310,2856 L8441,5184" stroke="blue" stroke-width="2" />
<path d="M57,5378 L6166,1077" stroke="blue" stroke-width="2" />
<path d="M1884,6002 L1114,3688" stroke="blue" stroke-width="2" />
<path d="M4765,4488 L2982,4096" stroke="blue" stroke-width="2" />
<path d="M4367,2495 L5975,1320" stroke="blue" stroke-width="2" />
<path d="M7919,401 L4540,2117" stroke="blue" stroke-width="2" />
<path d="M1157,6330 L671,96" stroke="blue" stroke-width="2" />
<path d="M1620,4061 L6597,1410" stroke="blue" stroke-width="2" />
<path d="M6213,6646 L4730,2699" stroke="blue" stroke-width="2" />
<path d="M8513,2043 L3550,2649" stroke="blue" stroke-width="2" />
<path d="M1907,3837 L4852,6541" stroke="blue" stroke-width="2" />
<path d="M3715,5487 L1770,2730" stroke="blue" stroke-width="2" />
<path d="M3438,4764 L4465,107" stroke="blue" stroke-width="2" />
<path d="M7605,5742 L2995,5157" stroke="blue" stroke-width="2" />
<path d="M6065,4340 L656,5361" stroke="blue" stroke-width="2" />
<path d="M7747,5921 L5388,1323" stroke="blue" stroke-width="2" />
<path d="M8615,3869 L4356,815" stroke="blue" stroke-width="2" />
<path d="M8146,2727 L211,5698" stroke="blue" stroke-width="2" />
<path d="M8144,2900 L5197,3308" stroke="blue" stroke-width="2" />
<path d="M7810,4133 L3363,577" stroke="blue" stroke-width="2" />
<path d="M8079,149 L8313,3434" stroke="blue" stroke-width="2" />
<path d="M1874,4698 L1345,6253" stroke="blue" stroke-width="2" />
<path d="M4575,1595 L6478,5725" stroke="blue" stroke-width="2" />
<path d="M5951,2895 L8701,6105" stroke="blue" stroke-width="2" />
<path d="M662,4466 L8079,2290" stroke="blue" stroke-width="2" />
<path d="M2769,115 L8749,2786" stroke="blue" stroke-width="2" />
<path d="M5884,6457 L7499,5903" stroke="blue" stroke-width="2" />
<path d="M7233,2758 L8618,3593" stroke="blue" stroke-width="2" />
<path d="M2868,4176 L241,1991" stroke="blue" stroke-width="2" />
<path d="M3376,2986 L4887,4372" stroke="blue" stroke-width="2" />
<path d="M5703,4935 L6790,5952" stroke="blue" stroke-width="2" />
<path d="M4097,6646 L3783,3764" stroke="blue" stroke-width="2" />
<path d="M2310,2037 L1630,5871" stroke="blue" stroke-width="2" />
<path d="M4600,1931 L6714,3049" stroke="blue" stroke-width="2" />
<path d="M1757,4095 L5684,256" stroke="blue" stroke-width="2" />
<path d="M2446,1830 L3532,6166" stroke="blue" stroke-width="2" />
<path d="M3117,4869 L7844,3213" stroke="blue" stroke-width="2" />
<path d="M8138,4815 L2675,6159" stroke="blue" stroke-width="2" />
<path d="M973,2370 L7865,4623" stroke="blue" stroke-width="2" />
<path d="M4868,31 L2298,6175" stroke="blue" stroke-width="2" />
<path d="M4836,5049 L5340,778" stroke="blue" stroke-width="2" />
<path d="M8005,3958 L6667,846" stroke="blue" stroke-width="2" />
<path d="M2064,3612 L915,956" stroke="blue" stroke-width="2" />
<path d="M3091,4062 L2434,46" stroke="blue" stroke-width="2" />
<path d="M7294,4372 L3362,2802" stroke="blue" stroke-width="2" />
<path d="M1531,3847 L361,724" stroke="blue" stroke-width="2" />
<path d="M3937,6300 L1137,1574" stroke="blue" stroke-width="2" />
<path d="M3413,1446 L1239,1472" stroke="blue" stroke-width="2" />
<path d="M4553,5558 L6432,3890" stroke="blue" stroke-width="2" />
<path d="M5576,5487 L3028,2463" stroke="blue" stroke-width="2" />
<path d="M4305,3362 L5389,407" stroke="blue" stroke-width="2" />
<path d="M3062,4736 L3313,2912" stroke="blue" stroke-width="2" />
<path d="M3955,4587 L6607,6437" stroke="blue" stroke-width="2" />
<path d="M4799,2829 L3757,6026" stroke="blue" stroke-width="2" />
<path d="M4298,1436 L146,2267" stroke="blue" stroke-width="2" />
<path d="M842,3802 L1613,1770" stroke="blue" stroke-width="2" />
<path d="M4086,4823 L475,1827" stroke="blue" stroke-width="2" />
<path d="M3606,2400 L3646,3001" stroke="blue" stroke-width="2" />
<path d="M8309,1768 L7766,6627" stroke="blue" stroke-width="2" />
<path d="M3636,1052 L7577,6227" stroke="blue" stroke-width="2" />
<path d="M3281,3338 L7464,4235" stroke="blue" stroke-width="2" />
<path d="M1219,5622 L3690,2447" stroke="blue" stroke-width="2" />
<path d="M7725,6251 L2951,3173" stroke="blue" stroke-width="2" />
<path d="M3451,3568 L6245,5991" stroke="blue" stroke-width="2" />
<path d="M6544,6069 L7385,6605" stroke="blue" stroke-width="2" />
<path d="M3483,3035 L7090,496" stroke="blue" stroke-width="2" />
<path d="M1008,5075 L1932,1078" stroke="blue" stroke-width="2" />
<path d="M6429,3976 L2746,3140" stroke="blue" stroke-width="2" />
<path d="M4177,4098 L3174,4690" stroke="blue" stroke-width="2" />
<path d="M6667,1271 L4761,920" stroke="blue" stroke-width="2" />
<path d="M549,1233 L301,714" stroke="blue" stroke-width="2" />
<path d="M1536,1157 L3614,5397" stroke="blue" stroke-width="2" />
<path d="M4111,1876 L857,5934" stroke="blue" stroke-width="2" />
<path d="M5803,5022 L6180,712" stroke="blue" stroke-width="2" />
<path d="M3425,3469 L8293,6564" stroke="blue" stroke-width="2" />
<path d="M6908,700 L1661,5095" stroke="blue" stroke-width="2" />
<path d="M6363,2630 L7603,5863" stroke="blue" stroke-width="2" />
<path d="M2318,2824 L289,3309" stroke="blue" stroke-width="2" />
<path d="M28,5606 L1250,1690" stroke="blue" stroke-width="2" />
<path d="M8603,3057 L1273,3136" stroke="blue" stroke-width="2" />
<path d="M3658,1348 L1899,5948" stroke="blue" stroke-width="2" />
<path d="M6076,1851 L7937,4016" stroke="blue" stroke-width="2" />
<path d="M5973,1753 L788,5941" stroke="blue" stroke-width="2" />
<path d="M5488,5976 L1185,1180" stroke="blue" stroke-width="2" />
<path d="M4408,4084 L6361,806" stroke="blue" stroke-width="2" />
<path d="M2506,382 L6807,775" stroke="blue" stroke-width="2" />
<path d="M4610,1889 L1549,414" stroke="blue" stroke-width="2" />
<path d="M6222,5924 L3079,1163" stroke="blue" stroke-width="2" />
<path d="M4763,4477 L1375,2442" stroke="blue" stroke-width="2" />
<path d="M2493,1044 L1117,5621" stroke="blue" stroke-width="2" />
<path d="M7797,2752 L3830,5815" stroke="blue" stroke-width="2" />
<path d="M4360,2063 L5581,925" stroke="blue" stroke-width="2" />
<path d="M499,2228 L3896,6105" stroke="blue" stroke-width="2" />
<path d="M8434,3829 L2455,3143" stroke="blue" stroke-width="2" />
<path d="M2585,639 L7337,2657" stroke="blue" stroke-width="2" />
<path d="M850,6421 L4447,1925" stroke="blue" stroke-width="2" />
<path d="M5302,6219 L1173,2710" stroke="blue" stroke-width="2" />
<path d="M4211,909 L8115,5026" stroke="blue" stroke-width="2" />
<path d="M8689,1477 L5426,138" stroke="blue" stroke-width="2" />
<path d="M8196,6393 L1965,1206" stroke="blue" stroke-width="2" />
<path d="M8398,3860 L1402,2506" stroke="blue" stroke-width="2" />
<path d="M8277,447 L5173,5793" stroke="blue" stroke-width="2" />
<path d="M8363,2913 L313,3703" stroke="blue" stroke-width="2" />
<path d="M4003,2106 L2509,3797" stroke="blue" stroke-width="2" />
<path d="M8501,774 L5409,3721" stroke="blue" stroke-width="2" />
<path d="M1074,1416 L4901,5785" stroke="blue" stroke-width="2" />
<path d="M5309,6480 L6895,210" stroke="blue" stroke-width="2" />
<path d="M5980,747 L6546,2263" stroke="blue" stroke-width="2" />
<path d="M2111,781 L225,2460" stroke="blue" stroke-width="2" />
<path d="M711,850 L2156,5210" stroke="blue" stroke-width="2" />
<path d="M6354,6204 L567,4511" stroke="blue" stroke-width="2" />
<path d="M8590,2028 L2724,4934" stroke="blue" stroke-width="2" />
<path d="M7761,2530 L5655,5413" stroke="blue" stroke-width="2" />
<path d="M8629,2715 L7071,3982" stroke="blue" stroke-width="2" />
<path d="M5339,1283 L6104,5366" stroke="blue" stroke-width="2" />
<path d="M8609,4896 L7763,5915" stroke="blue" stroke-width="2" />
<path d="M2759,2048 L2200,1656" stroke="blue" stroke-width="2" />
<path d="M1401,763 L4027,2264" stroke="blue" stroke-width="2" />
<path d="M6621,3371 L5516,5934" stroke="blue" stroke-width="2" />
<path d="M7753,5354 L7907,4962" stroke="blue" stroke-width="2" />
<path d="M8562,5559 L6027,5455" stroke="blue" stroke-width="2" />
<path d="M6041,2186 L8083,5164" stroke="blue" stroke-width="2" />
<path d="M4756,2658 L7560,671" stroke="blue" stroke-width="2" />
<path d="M2231,4640 L4227,44" stroke="blue" stroke-width="2" />
<path d="M4262,5582 L7486,4313" stroke="blue" stroke-width="2" />
<path d="M7930,5866 L5077,2942" stroke="blue" stroke-width="2" />
<path d="M6654,4223 L2264,5425" stroke="blue" stroke-width="2" />
<path d="M5822,3757 L1471,5614" stroke="blue" stroke-width="2" />
<path d="M8203,4708 L4072,5793" stroke="blue" stroke-width="2" />
<path d="M1987,748 L4703,4716" stroke="blue" stroke-width="2" />
<path d="M1398,3161 L2698,1140" stroke="blue" stroke-width="2" />
<path d="M6694,6269 L7386,736" stroke="blue" stroke-width="2" />
<path d="M1438,512 L1803,5205" stroke="blue" stroke-width="2" />
<path d="M4762,5237 L7001,4922" stroke="blue" stroke-width="2" />
<path d="M5505,4188 L5413,2972" stroke="blue" stroke-width="2" />
<path d="M5109,218 L8829,2320" stroke="blue" stroke-width="2" />
<path d="M2698,2234 L2375,5263" stroke="blue" stroke-width="2" />
<path d="M7026,3333 L5910,6169" stroke="blue" stroke-width="2" />
<path d="M1157,4289 L1923,5975" stroke="blue" stroke-width="2" />
<path d="M6336,5752 L2065,3892" stroke="blue" stroke-width="2" />
<path d="M6391,6223 L4473,2394" stroke="blue" stroke-width="2" />
<path d="M870,4533 L4427,1221" stroke="blue" stroke-width="2" />
<path d="M6711,4504 L7455,5427" stroke="blue" stroke-width="2" />
<path d="M4333,6211 L8610,6406" stroke="blue" stroke-width="2" />
<path d="M1133,809 L5066,3734" stroke="blue" stroke-width="2" />
<path d="M1843,3810 L2091,445" stroke="blue" stroke-width="2" />
<path d="M7465,4761 L413,6270" stroke="blue" stroke-width="2" />
<path d="M2347,4372 L4059,3150" stroke="blue" stroke-width="2" />
<path d="M5020,1980 L8766,2227" stroke="blue" stroke-width="2" />
<path d="M6599,5527 L275,6123" stroke="blue" stroke-width="2" />
<path d="M5918,5585 L204,330" stroke="blue" stroke-width="2" />
<path d="M2224,1850 L7404,1774" stroke="blue" stroke-width="2" />
<path d="M6748,2706 L4608,2176" stroke="blue" stroke-width="2" />
<path d="M6285,5386 L5136,986" stroke="blue" stroke-width="2" />
<path d="M8703,1955 L6099,2922" stroke="blue" stroke-width="2" />
<path d="M5113,4511 L5907,5054" stroke="blue" stroke-width="2" />
<path d="M3520,3200 L8406,4708" stroke="blue" stroke-width="2" />
<path d="M2185,2325 L460,3424" stroke="blue" stroke-width="2" />
<path d="M52,2238 L2762,6442" stroke="blue" stroke-width="2" />
<path d="M2238,168 L444,395" stroke="blue" stroke-width="2" />
<path d="M2824,913 L1824,4088" stroke="blue" stroke-width="2" />
<path d="M1255,4756 L8284,3756" stroke="blue" stroke-width="2" />
<path d="M7114,5448 L6677,2358" stroke="blue" stroke-width="2" />
<path d="M355,3742 L2435,2582" stroke="blue" stroke-width="2" />
<path d="M6724,6488 L1945,3832" stroke="blue" stroke-width="2" />
<path d="M4507,252 L63,5681" stroke="blue" stroke-width="2" />
<path d="M947,6208 L7016,4788" stroke="blue" stroke-width="2" />
<path d="M6561,3288 L1349,5922" stroke="blue" stroke-width="2" />
<path d="M2930,6393 L5545,2599" stroke="blue" stroke-width="2" />
<path d="M5666,3390 L3060,5386" stroke="blue" stroke-width="2" />
<path d="M1588,1519 L5835,1939" stroke="blue" stroke-width="2" />
<path d="M4,4621 L4580,303" stroke="blue" stroke-width="2" />
<path d="M828,208 L273,5485" stroke="blue" stroke-width="2" />
<path d="M7138,4668 L6061,6479" stroke="blue" stroke-width="2" />
<path d="M3792,2303 L4100,6345" stroke="blue" stroke-width="2" />
<path d="M157,2216 L5992,3890" stroke="blue" stroke-width="2" />
<path d="M64,1059 L6189,3924" stroke="blue" stroke-width="2" />
<path d="M8255,1890 L5466,2130" stroke="blue" stroke-width="2" />
<path d="M683,5011 L1979,3964" stroke="blue" stroke-width="2" />
<path d="M6526,6208 L8087,2719" stroke="blue" stroke-width="2" />
<path d="M6768,1398 L8340,5874" stroke="blue" stroke-width="2" />
<path d="M3273,2498 L4663,4399" stroke="blue" stroke-width="2" />
<path d="M5012,87 L1371,2712" stroke="blue" stroke-width="2" />
<path d="M7338,1608 L2466,6620" stroke="blue" stroke-width="2" />
<path d="M2861,1448 L6777,4052" stroke="blue" stroke-width="2" />
<path d="M3848,2388 L7117,865" stroke="blue" stroke-width="2" />
<path d="M4254,1608 L413,3891" stroke="blue" stroke-width="2" />
<path d="M7771,1383 L2206,6049" stroke="blue" stroke-width="2" />
<path d="M1851,4760 L7037,386" stroke="blue" stroke-width="2" />
<path d="M5752,4367 L2487,1358" stroke="blue" stroke-width="2" />
<path d="M3965,1908 L3402,2982" stroke="blue" stroke-width="2" />
<path d="M326,2685 L2726,2588" stroke="blue" stroke-width="2" />
<path d="M5975,1691 L8617,5848" stroke="blue" stroke-width="2" />
<path d="M8828,5807 L3788,631" stroke="blue" stroke-width="2" />
<path d="M7285,4368 L7199,2509" stroke="blue" stroke-width="2" />
<path d="M4269,2226 L4212,181" stroke="blue" stroke-width="2" />
<path d="M3060,2600 L5974,2988" stroke="blue" stroke-width="2" />
<path d="M1491,5996 L7717,4405" stroke="blue" stroke-width="2" />
<path d="M8449,6524 L8066,2961" stroke="blue" stroke-width="2" />
<path d="M2947,1832 L1378,2390" stroke="blue" stroke-width="2" />
<path d="M1348,6149 L8276,2688" stroke="blue" stroke-width="2" />
<path d="M77,226 L7859,3509" stroke="blue" stroke-width="2" />
<path d="M3971,61 L6833,11" stroke="blue" stroke-width="2" />
<path d="M6544,2323 L2060,3177" stroke="blue" stroke-width="2" />
<path d="M3778,4713 L6847,989" stroke="blue" stroke-width="2" />
<path d="M2051,1710 L3142,1185" stroke="blue" stroke-width="2" />
<path d="M1285,4084 L4591,6345" stroke="blue" stroke-width="2" />
<path d="M8061,5565 L4224,4405" stroke="blue" stroke-width="2" />
<path d="M2987,4153 L4813,660" stroke="blue" stroke-width="2" />
<path d="M3154,6546 L6854,3120" stroke="blue" stroke-width="2" />
<path d="M7100,2774 L5891,29" stroke="blue" stroke-width="2" />
<path d="M6981,6574 L4508,3849" stroke="blue" stroke-width="2" />
<path d="M8276,1301 L7085,2480" stroke="blue" stroke-width="2" />
<path d="M731,1586 L8336,3387" stroke="blue" stroke-width="2" />
<path d="M91,2209 L8596,5445" stroke="blue" stroke-width="2" />
<path d="M4342,826 L1289,377" stroke="blue" stroke-width="2" />
<path d="M5509,1087 L4772,2127" stroke="blue" stroke-width="2" />
<path d="M1432,4192 L1860,2405" stroke="blue" stroke-width="2" />
<path d="M7542,136 L3344,5432" stroke="blue" stroke-width="2" />
<path d="M6773,4964 L2935,4652" stroke="blue" stroke-width="2" />
<path d="M4154,2491 L3106,2777" stroke="blue" stroke-width="2" />
<path d="M7447,1680 L8578,2377" stroke="blue" stroke-width="2" />
<path d="M4907,2980 L2737,836" stroke="blue" stroke-width="2" />
<path d="M2894,141 L1846,336" stroke="blue" stroke-width="2" />
<path d="M3055,1498 L985,3036" stroke="blue" stroke-width="2" />
<path d="M6480,4871 L4619,2469" stroke="blue" stroke-width="2" />
<path d="M3676,667 L7744,1850" stroke="blue" stroke-width="2" />
<path d="M3374,6008 L44,2863" stroke="blue" stroke-width="2" />
<path d="M6817,2436 L6562,6489" stroke="blue" stroke-width="2" />
<path d="M1300,613 L2418,5933" stroke="blue" stroke-width="2" />
<path d="M3470,914 L4678,773" stroke="blue" stroke-width="2" />
<path d="M8575,932 L4763,1749" stroke="blue" stroke-width="2" />
<path d="M6645,3078 L6231,5045" stroke="blue" stroke-width="2" />
<path d="M7465,1784 L6373,1976" stroke="blue" stroke-width="2" />
<path d="M323,421 L8281,3463" stroke="blue" stroke-width="2" />
<path d="M1941,1056 L3311,3562" stroke="blue" stroke-width="2" />
<path d="M3418,5351 L5556,5433" stroke="blue" stroke-width="2" />
<path d="M6949,1003 L5997,4078" stroke="blue" stroke-width="2" />
<path d="M4434,5938 L1054,5396" stroke="blue" stroke-width="2" />
<path d="M207,4011 L8338,4788" stroke="blue" stroke-width="2" />
<path d="M6038,70 L7165,5994" stroke="blue" stroke-width="2" />
<path d="M2444,442 L3614,3532" stroke="blue" stroke-width="2" />
<path d="M6119,1455 L6043,697" stroke="blue" stroke-width="2" />
<path d="M6850,6176 L2518,5444" stroke="blue" stroke-width="2" />
<path d="M3604,5062 L8216,4631" stroke="blue" stroke-width="2" />
<path d="M3842,5580 L6663,3093" stroke="blue" stroke-width="2" />
<path d="M7482,1492 L2506,3385" stroke="blue" stroke-width="2" />
<path d="M4434,1857 L5847,481" stroke="blue" stroke-width="2" />
<path d="M4518,2435 L4369,6581" stroke="blue" stroke-width="2" />
<path d="M3461,4821 L2476,4644" stroke="blue" stroke-width="2" />
<path d="M79,4561 L2702,4119" stroke="blue" stroke-width="2" />
<path d="M2140,5920 L5741,5136" stroke="blue" stroke-width="2" />
<path d="M8081,2672 L1168,5568" stroke="blue" stroke-width="2" />
<path d="M1921,3505 L3917,5266" stroke="blue" stroke-width="2" />
<path d="M2608,884 L5364,1586" stroke="blue" stroke-width="2" />
<path d="M6887,5773 L7536,5123" stroke="blue" stroke-width="2" />
<path d="M3431,971 L2043,3256" stroke="blue" stroke-width="2" />
<path d="M2282,3713 L6078,3546" stroke="blue" stroke-width="2" />
<path d="M2707,4368 L7202,675" stroke="blue" stroke-width="2" />
<path d="M3648,4428 L6829,3250" stroke="blue" stroke-width="2" />
<path d="M1225,2378 L8855,5017" stroke="blue" stroke-width="2" />
<path d="M5327,3576 L6712,3916" stroke="blue" stroke-width="2" />
<path d="M746,745 L6990,645" stroke="blue" stroke-width="2" />
<path d="M2821,2801 L5337,6192" stroke="blue" stroke-width="2" />
<path d="M139,5117 L2236,5438" stroke="blue" stroke-width="2" />
<path d="M6596,4840 L3514,231" stroke="blue" stroke-width="2" />
<path d="M5470,3418 L8531,5" stroke="blue" stroke-width="2" />
<path d="M493,5188 L5160,2516" stroke="blue" stroke-width="2" />
<path d="M1877,2060 L338,6350" stroke="blue" stroke-width="2" />
<path d="M4747,2519 L8581,2040" stroke="blue" stroke-width="2" />
<path d="M4047,5312 L2005,99" stroke="blue" stroke-width="2" />
<path d="M3587,162 L1152,2972" stroke="blue" stroke-width="2" />
<path d="M8071,1493 L3901,3923" stroke="blue" stroke-width="2" />
<path d="M398,5038 L3718,281" stroke="blue" stroke-width="2" />
<path d="M7986,3330 L3624,6273" stroke="blue" stroke-width="2" />
<path d="M7967,4833 L1664,912" stroke="blue" stroke-width="2" />
<path d="M2786,1238 L2996,3025" stroke="blue" stroke-width="2" />
<path d="M7734,2658 L2693,4539" stroke="blue" stroke-width="2" />
<path d="M6149,5189 L4546,6556" stroke="blue" stroke-width="2" />
<path d="M7437,4690 L7414,5984" stroke="blue" stroke-width="2" />
<path d="M6171,4076 L6950,5639" stroke="blue" stroke-width="2" />
<path d="M8223,905 L8143,814" stroke="blue" stroke-width="2" />
<path d="M327,1545 L2676,2710" stroke="blue" stroke-width="2" />
<path d="M2005,6594 L3173,3044" stroke="blue" stroke-width="2" />
<path d="M251,1059 L6138,2987" stroke="blue" stroke-width="2" />
<path d="M6271,448 L915,3141" stroke="blue" stroke-width="2" />
<path d="M5715,3216 L8217,6" stroke="blue" stroke-width="2" />
<path d="M1937,3190 L8831,3238" stroke="blue" stroke-width="2" />
<path d="M8615,6292 L6445,2406" stroke="blue" stroke-width="2" />
<path d="M6418,2001 L8129,3252" stroke="blue" stroke-width="2" />
<path d="M5187,3453 L2196,4238" stroke="blue" stroke-width="2" />
<path d="M7894,4949 L276,3413" stroke="blue" stroke-width="2" />
<path d="M7959,6066 L4943,3626" stroke="blue" stroke-width="2" />
<path d="M6316,1505 L6480,947" stroke="blue" stroke-width="2" />
<path d="M1040,3126 L6801,3640" stroke="blue" stroke-width="2" />
<path d="M7657,4087 L2455,5061" stroke="blue" stroke-width="2" />
<path d="M8133,3663 L4799,796" stroke="blue" stroke-width="2" />
<path d="M8282,1907 L1696,3236" stroke="blue" stroke-width="2" />
<path d="M2751,6283 L7029,5291" stroke="blue" stroke-width="2" />
<path d="M972,963 L4423,3037" stroke="blue" stroke-width="2" />
<path d="M8231,3033 L6684,5818" stroke="blue" stroke-width="2" />
<path d="M2562,3568 L5085,4722" stroke="blue" stroke-width="2" />
<path d="M8814,3483 L4567,6275" stroke="blue" stroke-width="2" />
<path d="M2834,4666 L5147,305" stroke="blue" stroke-width="2" />
<path d="M1723,3166 L1403,3986" stroke="blue" stroke-width="2" />
<path d="M2788,4361 L3768,2410" stroke="blue" stroke-width="2" />
<path d="M2661,4753 L1967,3243" stroke="blue" stroke-width="2" />
<path d="M562,2418 L1735,5771" stroke="blue" stroke-width="2" />
<path d="M7666,1186 L1288,1212" stroke="blue" stroke-width="2" />
<path d="M6790,1665 L1096,1802" stroke="blue" stroke-width="2" />
<path d="M4755,847 L5024,1588" stroke="blue" stroke-width="2" />
<path d="M6350,3387 L6086,2393" stroke="blue" stroke-width="2" />
<path d="M6333,5085 L7679,1698" stroke="blue" stroke-width="2" />
<path d="M1486,2706 L4086,3096" stroke="blue" stroke-width="2" />
<path d="M347,5662 L4948,5530" stroke="blue" stroke-width="2" />
<path d="M2334,5784 L284,71" stroke="blue" stroke-width="2" />
<path d="M8448,3486 L2234,4313" stroke="blue" stroke-width="2" />
<path d="M5617,5558 L3600,4636" stroke="blue" stroke-width="2" />
<path d="M2515,2028 L6397,2848" stroke="blue" stroke-width="2" />
<path d="M4236,4179 L4141,6324" stroke="blue" stroke-width="2" />
<path d="M5390,3182 L4409,955" stroke="blue" stroke-width="2" />
<path d="M8829,2427 L7914,2733" stroke="blue" stroke-width="2" />
<path d="M3780,6377 L3344,5862" stroke="blue" stroke-width="2" />
<path d="M421,4968 L1721,5589" stroke="blue" stroke-width="2" />
<path d="M2505,6457 L3771,176" stroke="blue" stroke-width="2" />
<path d="M4837,205 L5139,3185" stroke="blue" stroke-width="2" />
<path d="M3539,551 L7464,175" stroke="blue" stroke-width="2" />
<path d="M2639,2862 L4843,5486" stroke="blue" stroke-width="2" />
<path d="M8633,5030 L6024,3043" stroke="blue" stroke-width="2" />
<path d="M6614,3938 L4443,5915" stroke="blue" stroke-width="2" />
<path d="M3503,5702 L6771,2840" stroke="blue" stroke-width="2" />
<path d="M7520,1068 L3011,5784" stroke="blue" stroke-width="2" />
<path d="M2497,3966 L566,1176" stroke="blue" stroke-width="2" />
<path d="M6585,621 L4136,1692" stroke="blue" stroke-width="2" />
<path d="M1838,1049 L3058,6076" stroke="blue" stroke-width="2" />
<path d="M7446,4974 L5312,8" stroke="blue" stroke-width="2" />
<path d="M2099,1611 L5580,1022" stroke="blue" stroke-width="2" />
<path d="M5417,2299 L3837,239" stroke="blue" stroke-width="2" />
<path d="M4223,2593 L370,6467" stroke="blue" stroke-width="2" />
<path d="M2604,3086 L2562,3864" stroke="blue" stroke-width="2" />
<path d="M5980,3093 L3605,888" stroke="blue" stroke-width="2" />
<path d="M4441,112 L3030,1062" stroke="blue" stroke-width="2" />
<path d="M2093,3116 L7280,6498" stroke="blue" stroke-width="2" />
<path d="M6935,2321 L8154,371" stroke="blue" stroke-width="2" />
<path d="M6003,6634 L3712,78" stroke="blue" stroke-width="2" />
<path d="M7744,5554 L4895,2169" stroke="blue" stroke-width="2" />
<path d="M687,4520 L4164,5118" stroke="blue" stroke-width="2" />
<path d="M25,529 L5393,1424" stroke="blue" stroke-width="2" />
<path d="M2492,1970 L6723,4785" stroke="blue" stroke-width="2" />
<path d="M500,6357 L3255,3642" stroke="blue" stroke-width="2" />
<path d="M543,4208 L2732,4135" stroke="blue" stroke-width="2" />
<path d="M198,4275 L4111,1160" stroke="blue" stroke-width="2" />
<path d="M2996,3302 L6734,3419" stroke="blue" stroke-width="2" />
<path d="M4116,2485 L4227,998" stroke="blue" stroke-width="2" />
<path d="M0,0 L8858,0" stroke="red" stroke-width="10" />
<path d="M8858,0 L8858,6650" stroke="red" stroke-width="10" />
<path d="M0,6650 L8858,6650" stroke="red" stroke-width="10" />
<path d="M0,6650 L0,0" stroke="red" stroke-width="10" />
</svg>