<?xml version="1.0" encoding="UTF-8"?>
<svg xmlns="http://www.w3.org/2000/svg" xmlns:xlink="http://www.w3.org/1999/xlink"
     width="10000" height="10000" viewBox="0 0 10000 10000">
<defs>
</defs>
<path d="M7352,6439 L1550,7993" stroke="blue" stroke-width="2" />
<path d="M7878,4054 L1237,5931" stroke="blue" stroke-width="2" />
<path d="M2654,6654 L8206,707" stroke="blue" stroke-width="2" />
<path d="M5993,2159 L5314,5630" stroke="blue" stroke-width="2" />
<path d="M1626,3436 L3961,5149" stroke="blue" stroke-width="2" />
<path d="M7327,4585 L4692,424" stroke="blue" stroke-width="2" />
<path d="M2707,6142 L3383,8249" stroke="blue" stroke-width="2" />
<path d="M6828,4061 L5872,7380" stroke="blue" stroke-width="2" />
<path d="M2761,1748 L6187,744" stroke="blue" stroke-width="2" />
<path d="M1285,6413 L4113,1641" stroke="blue" stroke-width="2" />
<path d="M4317,2020 L830,2406" stroke="blue" stroke-width="2" />
<path d="M7767,7418 L7913,8367" stroke="blue" stroke-width="2" />
<path d="M1392,235 L8276,8413" stroke="blue" stroke-width="2" />
<path d="M831,814 L4217,2404" stroke="blue" stroke-width="2" />
<path d="M6659,3997 L6066,1909" stroke="blue" stroke-width="2" />
<path d="M7065,7007 L7237,6373" stroke="blue" stroke-width="2" />
<path d="M7655,7793 L4933,3451" stroke="blue" stroke-width="2" />
<path d="M6380,2035 L2180,5802" stroke="blue" stroke-width="2" />
<path d="M997,3936 L4747,4917" stroke="blue" stroke-width="2" />
<path d="M4222,7541 L8128,42" stroke="blue" stroke-width="2" />
<path d="M4659,1205 L3944,446" stroke="blue" stroke-width="2" />
<path d="M8062,4613 L5767,7260" stroke="blue" stroke-width="2" />
<path d="M297,4939 L870,5499" stroke="blue" stroke-width="2" />
<path d="M2722,5856 L2832,2265" stroke="blue" stroke-width="2" />
<path d="M4718,463 L6531,1825" stroke="blue" stroke-width="2" />
<path d="M1450,7050 L7417,8587" stroke="blue" stroke-width="2" />
<path d="M3496,81 L2119,4203" stroke="blue" stroke-width="2" />
<path d="M88,3744 L6463,785" stroke="blue" stroke-width="2" />
<path d="M4765,5203 L611,1339" stroke="blue" stroke-width="2" />
<path d="M4103,3905 L1716,7046" stroke="blue" stroke-width="2" />
<path d="M1007,925 L5404,3433" stroke="blue" stroke-width="2" />
<path d="M5522,1228 L7262,8134" stroke="blue" stroke-width="2" />
<path d="M2863,3697 L7120,2713" stroke="blue" stroke-width="2" />
<path d="M4701,7921 L4924,4029" stroke="blue" stroke-width="2" />
<path d="M6115,370 L1429,5612" stroke="blue" stroke-width="2" />
<path d="M2675,8350 L5663,8282" stroke="blue" stroke-width="2" />
<path d="M2451,1969 L3715,2840" stroke="blue" stroke-width="2" />
<path d="M1096,1991 L3461,1976" stroke="blue" stroke-width="2" />
<path d="M4417,4878 L7940,7714" stroke="blue" stroke-width="2" />
<path d="M279,3576 L2808,2748" stroke="blue" stroke-width="2" />
<path d="M5910,2074 L3884,2399" stroke="blue" stroke-width="2" />
<path d="M6477,1677 L7363,8178" stroke="blue" stroke-width="2" />
<path d="M74,3462 L6629,6547" stroke="blue" stroke-width="2" />
<path d="M7436,339 L3639,4196" stroke="blue" stroke-width="2" />
<path d="M4366,5034 L3501,534" stroke="blue" stroke-width="2" />
<path d="M1321,1375 L2121,4763" stroke="blue" stroke-width="2" />
<path d="M7997,8264 L6040,4313" stroke="blue" stroke-width="2" />
<path d="M841,5110 L4466,3641" stroke="blue" stroke-width="2" />
<path d="M2773,4724 L268,3" stroke="blue" stroke-width="2" />
<path d="M1181,6266 L5563,7936" stroke="blue" stroke-width="2" />
<path d="M1572,2512 L6373,7720" stroke="blue" stroke-width="2" />
<path d="M3564,1405 L7096,6455" stroke="blue" stroke-width="2" />
<path d="M1823,3217 L5729,2274" stroke="blue" stroke-width="2" />
<path d="M4337,1483 L3227,3322" stroke="blue" stroke-width="2" />
<path d="M6823,7725 L6852,8171" stroke="blue" stroke-width="2" />
<path d="M3865,4726 L2684,942" stroke="blue" stroke-width="2" />
<path d="M6060,559 L3782,6971" stroke="blue" stroke-width="2" />
<path d="M6859,1379 L3303,3032" stroke="blue" stroke-width="2" />
<path d="M4843,5988 L6202,5718" stroke="blue" stroke-width="2" />
<path d="M1093,866 L5420,6225" stroke="blue" stroke-width="2" />
<path d="M5875,1912 L1444,66" stroke="blue" stroke-width="2" />
<path d="M6509,5037 L7475,2920" stroke="blue" stroke-width="2" />
<path d="M5071,2823 L5428,8035" stroke="blue" stroke-width="2" />
<path d="M2280,2612 L7634,2412" stroke="blue" stroke-width="2" />
<path d="M1284,7874 L6844,345" stroke="blue" stroke-width="2" />
<path d="M3953,6408 L5366,323" stroke="blue" stroke-width="2" />
<path d="M5648,7777 L6064,3727" stroke="blue" stroke-width="2" />
<path d="M2989,2642 L5675,1629" stroke="blue" stroke-width="2" />
<path d="M2965,1172 L2000,6422" stroke="blue" stroke-width="2" />
<path d="M337,4842 L4777,3718" stroke="blue" stroke-width="2" />
<path d="M1382,1911 L764,2599" stroke="blue" stroke-width="2" />
<path d="M2275,4252 L7044,7238" stroke="blue" stroke-width="2" />
<path d="M7768,4845 L1598,8694" stroke="blue" stroke-width="2" />
<path d="M1332,2627 L1042,6266" stroke="blue" stroke-width="2" />
<path d="M3228,5703 L1876,2026" stroke="blue" stroke-width="2" />
<path d="M4232,6864 L7236,1068" stroke="blue" stroke-width="2" />
<path d="M7640,5771 L887,3035" stroke="blue" stroke-width="2" />
<path d="M7765,810 L4371,8591" stroke="blue" stroke-width="2" />
<path d="M4517,8284 L3323,8565" stroke="blue" stroke-width="2" />
<path d="M5857,8683 L3308,5341" stroke="blue" stroke-width="2" />
<path d="M826,2211 L459,887" stroke="blue" stroke-width="2" />
<path d="M5367,4035 L6506,8221" stroke="blue" stroke-width="2" />
<path d="M4431,3624 L4766,3260" stroke="blue" stroke-width="2" />
<path d="M680,606 L5830,1501" stroke="blue" stroke-width="2" />
<path d="M6474,1578 L3004,3642" stroke="blue" stroke-width="2" />
<path d="M4035,4361 L7395,5377" stroke="blue" stroke-width="2" />
<path d="M920,7557 L3537,2382" stroke="blue" stroke-width="2" />
<path d="M3991,5252 L814,1952" stroke="blue" stroke-width="2" />
<path d="M882,6851 L3147,7673" stroke="blue" stroke-width="2" />
<path d="M1104,2187 L7956,1564" stroke="blue" stroke-width="2" />
<path d="M5286,4586 L6644,7516" stroke="blue" stroke-width="2" />
<path d="M117,1648 L4869,1775" stroke="blue" stroke-width="2" />
<path d="M3959,4420 L1893,6622" stroke="blue" stroke-width="2" />
<path d="M7578,1360 L1791,6872" stroke="blue" stroke-width="2" />
<path d="M4515,8085 L27,1545" stroke="blue" stroke-width="2" />
<path d="M3294,7512 L2414,6818" stroke="blue" stroke-width="2" />
<path d="M456,6956 L2864,321" stroke="blue" stroke-width="2" />
<path d="M8117,5584 L7255,2713" stroke="blue" stroke-width="2" />
<path d="M7432,5941 L7033,6800" stroke="blue" stroke-width="2" />
<path d="M6951,7154 L7559,3170" stroke="blue" stroke-width="2" />
<path d="M1682,7027 L7829,1866" stroke="blue" stroke-width="2" />
<path d="M5069,8249 L2871,3826" stroke="blue" stroke-width="2" />
<path d="M8052,8375 L6837,8307" stroke="blue" stroke-width="2" />
<path d="M6863,7801 L4445,3272" stroke="blue" stroke-width="2" />
<path d="M7502,2954 L1349,8129" stroke="blue" stroke-width="2" />
<path d="M6321,1556 L4519,8145" stroke="blue" stroke-width="2" />
<path d="M583,168 L2202,6116" stroke="blue" stroke-width="2" />
<path d="M2039,6357 L7513,7759" stroke="blue" stroke-width="2" />
<path d="M6694,7230 L2328,1046" stroke="blue" stroke-width="2" />
<path d="M5578,5531 L1067,6998" stroke="blue" stroke-width="2" />
<path d="M5658,6985 L1073,451" stroke="blue" stroke-width="2" />
<path d="M2251,2558 L5474,3724" stroke="blue" stroke-width="2" />
<path d="M1295,1034 L2421,4262" stroke="blue" stroke-width="2" />
<path d="M7179,2816 L1742,6790" stroke="blue" stroke-width="2" />
<path d="M7437,6514 L1218,7283" stroke="blue" stroke-width="2" />
<path d="M2869,2181 L932,7495" stroke="blue" stroke-width="2" />
<path d="M3360,884 L3233,2190" stroke="blue" stroke-width="2" />
<path d="M3283,1502 L188,4285" stroke="blue" stroke-width="2" />
<path d="M3726,2222 L5172,151" stroke="blue" stroke-width="2" />
<path d="M40,2979 L6292,1833" stroke="blue" stroke-width="2" />
<path d="M855,5457 L6278,7349" stroke="blue" stroke-width="2" />
<path d="M7998,3359 L4342,4753" stroke="blue" stroke-width="2" />
<path d="M4122,8264 L5197,6997" stroke="blue" stroke-width="2" />
<path d="M6158,552 L5379,1692" stroke="blue" stroke-width="2" />
<path d="M2793,8277 L2251,3127" stroke="blue" stroke-width="2" />
<path d="M4103,2415 L5522,2147" stroke="blue" stroke-width="2" />
<path d="M903,3675 L4337,1443" stroke="blue" stroke-width="2" />
<path d="M1681,8183 L4239,479" stroke="blue" stroke-width="2" />
<path d="M1017,3421 L6923,5598" stroke="blue" stroke-width="2" />
<path d="M1729,17 L4548,4878" stroke="blue" stroke-width="2" />
<path d="M5847,2129 L6220,7051" stroke="blue" stroke-width="2" />
<path d="M4884,7439 L6511,4093" stroke="blue" stroke-width="2" />
<path d="M1898,8010 L4931,413" stroke="blue" stroke-width="2" />
<path d="M5356,6375 L7051,8196" stroke="blue" stroke-width="2" />
<path d="M1473,4021 L7300,4984" stroke="blue" stroke-width="2" />
<path d="M7824,4211 L6035,7941" stroke="blue" stroke-width="2" />
<path d="M5980,3729 L6841,3435" stroke="blue" stroke-width="2" />
<path d="M7181,7978 L6384,7494" stroke="blue" stroke-width="2" />
<path d="M4678,5960 L2162,3032" stroke="blue" stroke-width="2" />
<path d="M3244,1247 L21,1066" stroke="blue" stroke-width="2" />
<path d="M245,4623 L3045,5929" stroke="blue" stroke-width="2" />
<path d="M7537,1831 L1027,3609" stroke="blue" stroke-width="2" />
<path d="M7950,7147 L3467,2569" stroke="blue" stroke-width="2" />
<path d="M6575,3820 L74,4277" stroke="blue" stroke-width="2" />
<path d="M6842,3908 L2019,5969" stroke="blue" stroke-width="2" />
<path d="M6501,532 L7250,3064" stroke="blue" stroke-width="2" />
<path d="M3339,4768 L5452,2149" stroke="blue" stroke-width="2" />
<path d="M5529,7527 L7918,8439" stroke="blue" stroke-width="2" />
<path d="M2854,7026 L6804,6836" stroke="blue" stroke-width="2" />
<path d="M7526,6369 L4378,6005" stroke="blue" stroke-width="2" />
<path d="M2941,6182 L1055,3675" stroke="blue" stroke-width="2" />
<path d="M4539,532 L188,3023" stroke="blue" stroke-width="2" />
<path d="M4166,6544 L5445,2024" stroke="blue" stroke-width="2" />
<path d="M4631,1493 L206,8343" stroke="blue" stroke-width="2" />
<path d="M6227,5730 L1915,2398" stroke="blue" stroke-width="2" />
<path d="M5691,7051 L2286,7771" stroke="blue" stroke-width="2" />
<path d="M796,7082 L5546,8556" stroke="blue" stroke-width="2" />
<path d="M20,2093 L4696,3209" stroke="blue" stroke-width="2" />
<path d="M6087,1094 L7239,1293" stroke="blue" stroke-width="2" />
<path d="M2299,493 L6855,4974" stroke="blue" stroke-width="2" />
<path d="M8278,7955 L5297,3586" stroke="blue" stroke-width="2" />
<path d="M7437,4421 L1221,7532" stroke="blue" stroke-width="2" />
<path d="M2504,1139 L4685,8279" stroke="blue" stroke-width="2" />
<path d="M5922,5840 L7192,5910" stroke="blue" stroke-width="2" />
<path d="M7503,5090 L225,6683" stroke="blue" stroke-width="2" />
<path d="M4863,3575 L7028,6070" stroke="blue" stroke-width="2" />
<path d="M3816,1312 L4706,7845" stroke="blue" stroke-width="2" />
<path d="M6394,5282 L322,3655" stroke="blue" stroke-width="2" />
<path d="M7547,2588 L8041,2267" stroke="blue" stroke-width="2" />
<path d="M7064,399 L3764,8012" stroke="blue" stroke-width="2" />
<path d="M6241,1401 L2761,1506" stroke="blue" stroke-width="2" />
<path d="M1092,5696 L3865,5042" stroke="blue" stroke-width="2" />
<path d="M7140,8065 L3056,543" stroke="blue" stroke-width="2" />
<path d="M4370,8108 L5610,3689" stroke="blue" stroke-width="2" />
<path d="M590,2644 L3540,3490" stroke="blue" stroke-width="2" />
<path d="M5740,500 L6361,4337" stroke="blue" stroke-width="2" />
<path d="M5612,6735 L1528,3677" stroke="blue" stroke-width="2" />
<path d="M4096,331 L1345,225" stroke="blue" stroke-width="2" />
<path d="M2658,7558 L8171,7730" stroke="blue" stroke-width="2" />
<path d="M5388,5326 L7242,2649" stroke="blue" stroke-width="2" />
<path d="M661,4052 L3211,972" stroke="blue" stroke-width="2" />
<path d="M4583,2371 L5001,1153" stroke="blue" stroke-width="2" />
<path d="M7127,1438 L3067,6467" stroke="blue" stroke-width="2" />
<path d="M204,1614 L4685,4318" stroke="blue" stroke-width="2" />
<path d="M6642,8509 L798,4077" stroke="blue" stroke-width="2" />
<path d="M4479,1442 L6527,862" stroke="blue" stroke-width="2" />
<path d="M1539,7968 L7624,5174" stroke="blue" stroke-width="2" />
<path d="M5988,8089 L4271,697" stroke="blue" stroke-width="2" />
<path d="M4849,5809 L3304,803" stroke="blue" stroke-width="2" />
<path d="M3022,5095 L363,1215" stroke="blue" stroke-width="2" />
<path d="M7453,3015 L7585,5413" stroke="blue" stroke-width="2" />
<path d="M5253,4666 L7806,2652" stroke="blue" stroke-width="2" />
<path d="M2539,1390 L4016,8329" stroke="blue" stroke-width="2" />
<path d="M6031,6326 L6020,3728" stroke="blue" stroke-width="2" />
<path d="M2159,4263 L2148,1844" stroke="blue" stroke-width="2" />
<path d="M3508,8069 L1193,8043" stroke="blue" stroke-width="2" />
<path d="M242,4667 L2239,7307" stroke="blue" stroke-width="2" />
<path d="M7403,7472 L5237,5810" stroke="blue" stroke-width="2" />
<path d="M2526,523 L6120,1928" stroke="blue" stroke-width="2" />
<path d="M6465,4370 L3062,4157" stroke="blue" stroke-width="2" />
<path d="M595,3318 L1155,1855" stroke="blue" stroke-width="2" />
<path d="M3759,2334 L234,3819" stroke="blue" stroke-width="2" />
<path d="M3335,7500 L5038,887" stroke="blue" stroke-width="2" />
<path d="M2484,4851 L4534,7039" stroke="blue" stroke-width="2" />
<path d="M2293,2683 L6633,4648" stroke="blue" stroke-width="2" />
<path d="M3676,1805 L990,7025" stroke="blue" stroke-width="2" />
<path d="M4798,5528 L5031,2280" stroke="blue" stroke-width="2" />
<path d="M1074,3823 L4403,7363" stroke="blue" stroke-width="2" />
<path d="M5137,3890 L7691,2871" stroke="blue" stroke-width="2" />
<path d="M3929,5152 L4679,1637" stroke="blue" stroke-width="2" />
<path d="M4554,5228 L1029,4152" stroke="blue" stroke-width="2" />
<path d="M5034,5601 L5613,1259" stroke="blue" stroke-width="2" />
<path d="M1347,4446 L340,4619" stroke="blue" stroke-width="2" />
<path d="M4395,6660 L8062,6448" stroke="blue" stroke-width="2" />
<path d="M4890,7586 L3476,4959" stroke="blue" stroke-width="2" />
<path d="M1736,6994 L339,5666" stroke="blue" stroke-width="2" />
<path d="M5238,8304 L392,4871" stroke="blue" stroke-width="2" />
<path d="M8131,7237 L8223,6202" stroke="blue" stroke-width="2" />
<path d="M6878,3199 L1932,4346" stroke="blue" stroke-width="2" />
<path d="M3359,3745 L7883,4614" stroke="blue" stroke-width="2" />
<path d="M6075,5731 L6864,6389" stroke="blue" stroke-width="2" />
<path d="M973,3073 L3830,6653" stroke="blue" stroke-width="2" />
<path d="M3834,4448 L1632,6545" stroke="blue" stroke-width="2" />
<path d="M6906,7037 L6240,7785" stroke="blue" stroke-width="2" />
<path d="M8120,7409 L5406,4853" stroke="blue" stroke-width="2" />
<path d="M2726,298 L1540,6347" stroke="blue" stroke-width="2" />
<path d="M6445,4095 L2974,2088" stroke="blue" stroke-width="2" />
<path d="M3166,629 L2611,5599" stroke="blue" stroke-width="2" />
<path d="M2461,5087 L1114,143" stroke="blue" stroke-width="2" />
<path d="M2501,1735 L1350,3565" stroke="blue" stroke-width="2" />
<path d="M7192,6319 L4895,6703" stroke="blue" stroke-width="2" />
<path d="M6046,8065 L974,3558" stroke="blue" stroke-width="2" />
<path d="M1406,518 L930,8533" stroke="blue" stroke-width="2" />
<path d="M4559,8028 L260,859" stroke="blue" stroke-width="2" />
<path d="M2145,4787 L6540,8004" stroke="blue" stroke-width="2" />
<path d="M3670,3231 L6068,754" stroke="blue" stroke-width="2" />
<path d="M3271,2898 L78,7850" stroke="blue" stroke-width="2" />
<path d="M4906,5537 L5507,3252" stroke="blue" stroke-width="2" />
<path d="M5898,943 L136,6433" stroke="blue" stroke-width="2" />
<path d="M6909,732 L1124,149" stroke="blue" stroke-width="2" />
<path d="M1763,336 L5364,4247" stroke="blue" stroke-width="2" />
<path d="M3951,1748 L6283,7287" stroke="blue" stroke-width="2" />
<path d="M686,6209 L7081,5524" stroke="blue" stroke-width="2" />
<path d="M5797,502 L4737,4313" stroke="blue" stroke-width="2" />
<path d="M1762,6876 L361,3880" stroke="blue" stroke-width="2" />
<path d="M7695,3638 L1056,4489" stroke="blue" stroke-width="2" />
<path d="M2613,3180 L4449,1173" stroke="blue" stroke-width="2" />
<path d="M4527,1351 L1675,2188" stroke="blue" stroke-width="2" />
<path d="M8251,1857 L6905,2317" stroke="blue" stroke-width="2" />
<path d="M2423,1462 L7674,4619" stroke="blue" stroke-width="2" />
<path d="M845,4973 L7687,1416" stroke="blue" stroke-width="2" />
<path d="M4529,89 L749,2870" stroke="blue" stroke-width="2" />
<path d="M1943,3045 L7329,4581" stroke="blue" stroke-width="2" />
<path d="M765,5758 L262,1575" stroke="blue" stroke-width="2" />
<path d="M1039,3645 L1675,736" stroke="blue" stroke-width="2" />
<path d="M5915,2312 L6614,6341" stroke="blue" stroke-width="2" />
<path d="M4915,4093 L5764,1884" stroke="blue" stroke-width="2" />
<path d="M6373,5529 L162,6079" stroke="blue" stroke-width="2" />
<path d="M361,5033 L4592,8232" stroke="blue" stroke-width="2" />
<path d="M8032,1106 L532,4921" stroke="blue" stroke-width="2" />
<path d="M3018,6131 L5800,6770" stroke="blue" stroke-width="2" />
<path d="M7378,3066 L6794,4921" stroke="blue" stroke-width="2" />
<path d="M5140,6943 L3605,7246" stroke="blue" stroke-width="2" />
<path d="M543,6934 L6921,2591" stroke="blue" stroke-width="2" />
<path d="M6545,3538 L4029,8046" stroke="blue" stroke-width="2" />
<path d="M2522,5515 L6715,7379" stroke="blue" stroke-width="2" />
<path d="M4113,1953 L3079,3164" stroke="blue" stroke-width="2" />
<path d="M3074,6331 L7197,1046" stroke="blue" stroke-width="2" />
<path d="M3391,6241 L4724,7470" stroke="blue" stroke-width="2" />
<path d="M951,4695 L4643,7709" stroke="blue" stroke-width="2" />
<path d="M2187,4640 L6040,6918" stroke="blue" stroke-width="2" />
<path d="M4378,4057 L1125,4188" stroke="blue" stroke-width="2" />
<path d="M1650,4560 L881,720" stroke="blue" stroke-width="2" />
<path d="M3786,6123 L3750,8570" stroke="blue" stroke-width="2" />
<path d="M4457,841 L2060,1023" stroke="blue" stroke-width="2" />
<path d="M3346,7855 L556,1922" stroke="blue" stroke-width="2" />
<path d="M6514,7364 L2158,4262" stroke="blue" stroke-width="2" />
<path d="M6420,1545 L7297,592" stroke="blue" stroke-width="2" />
<path d="M3736,8009 L5346,3966" stroke="blue" stroke-width="2" />
<path d="M7864,7388 L7506,307" stroke="blue" stroke-width="2" />
<path d="M6257,7257 L3703,820" stroke="blue" stroke-width="2" />
<path d="M3015,2825 L7633,5473" stroke="blue" stroke-width="2" />
<path d="M2456,1478 L7260,6049" stroke="blue" stroke-width="2" />
<path d="M5179,7311 L285,3266" stroke="blue" stroke-width="2" />
<path d="M3908,7024 L1632,3158" stroke="blue" stroke-width="2" />
<path d="M1425,1330 L545,113" stroke="blue" stroke-width="2" />
<path d="M18,8346 L445,2658" stroke="blue" stroke-width="2" />
<path d="M2062,3120 L221,7768" stroke="blue" stroke-width="2" />
<path d="M4640,7629 L3557,3634" stroke="blue" stroke-width="2" />
<path d="M3437,7811 L3529,6578" stroke="blue" stroke-width="2" />
<path d="M398,2123 L1915,5591" stroke="blue" stroke-width="2" />
<path d="M1316,4131 L520,1526" stroke="blue" stroke-width="2" />
<path d="M573,5914 L4812,3602" stroke="blue" stroke-width="2" />
<path d="M1568,949 L2588,6022" stroke="blue" stroke-width="2" />
<path d="M6846,5707 L6244,1385" stroke="blue" stroke-width="2" />
<path d="M2308,5966 L1424,2016" stroke="blue" stroke-width="2" />
<path d="M140,2951 L4521,3229" stroke="blue" stroke-width="2" />
<path d="M7015,3619 L3838,1513" stroke="blue" stroke-width="2" />
<path d="M1325,7058 L2828,6353" stroke="blue" stroke-width="2" />
<path d="M7763,8185 L1525,4617" stroke="blue" stroke-width="2" />
<path d="M1520,7346 L6377,1903" stroke="blue" stroke-width="2" />
<path d="M2157,4776 L8074,2466" stroke="blue" stroke-width="2" />
<path d="M5995,547 L7392,7072" stroke="blue" stroke-width="2" />
<path d="M6727,5561 L6617,7426" stroke="blue" stroke-width="2" />
<path d="M4322,7068 L5901,1623" stroke="blue" stroke-width="2" />
<path d="M3638,1434 L7483,3267" stroke="blue" stroke-width="2" />
<path d="M4593,3511 L3197,2271" stroke="blue" stroke-width="2" />
<path d="M5040,2567 L6015,3412" stroke="blue" stroke-width="2" />
<path d="M3531,1685 L2772,8520" stroke="blue" stroke-width="2" />
<path d="M5968,7771 L2615,210" stroke="blue" stroke-width="2" />
<path d="M781,940 L7251,490" stroke="blue" stroke-width="2" />
<path d="M1466,3365 L5229,2529" stroke="blue" stroke-width="2" />
<path d="M5342,3449 L7457,1169" stroke="blue" stroke-width="2" />
<path d="M1777,2808 L1593,4079" stroke="blue" stroke-width="2" />
<path d="M6710,2678 L6314,4815" stroke="blue" stroke-width="2" />
<path d="M2350,3023 L7106,702" stroke="blue" stroke-width="2" />
<path d="M3847,5014 L5903,408" stroke="blue" stroke-width="2" />
<path d="M2744,6394 L3565,3726" stroke="blue" stroke-width="2" />
<path d="M517,3783 L4542,3653" stroke="blue" stroke-width="2" />
<path d="M2914,6323 L4233,3999" stroke="blue" stroke-width="2" />
<path d="M7366,7092 L699,4720" stroke="blue" stroke-width="2" />
<path d="M7942,2443 L1135,2707" stroke="blue" stroke-width="2" />
<path d="M6453,6953 L2431,1576" stroke="blue" stroke-width="2" />
<path d="M1491,6852 L7380,8541" stroke="blue" stroke-width="2" />
<path d="M4144,8280 L1087,7874" stroke="blue" stroke-width="2" />
<path d="M272,475 L6741,5165" stroke="blue" stroke-width="2" />
<path d="M2516,8387 L4628,0" stroke="blue" stroke-width="2" />
<path d="M232,3516 L386,7882" stroke="blue" stroke-width="2" />
<path d="M3055,7504 L6899,5278" stroke="blue" stroke-width="2" />
<path d="M6671,6015 L328,2010" stroke="blue" stroke-width="2" />
<path d="M5231,1997 L3470,4067" stroke="blue" stroke-width="2" />
<path d="M4010,3248 L1440,7475" stroke="blue" stroke-width="2" />
<path d="M3095,3443 L1938,7155" stroke="blue" stroke-width="2" />
<path d="M4454,7604 L5213,2644" stroke="blue" stroke-width="2" />
<path d="M7888,4574 L2616,8068" stroke="blue" stroke-width="2" />
<path d="M3001,5286 L7939,7439" stroke="blue" stroke-width="2" />
<path d="M6549,5630 L4226,8400" stroke="blue" stroke-width="2" />
<path d="M1414,145 L1016,4193" stroke="blue" stroke-width="2" />
<path d="M4169,7361 L3168,8442" stroke="blue" stroke-width="2" />
<path d="M4429,2682 L7963,1991" stroke="blue" stroke-width="2" />
<path d="M4360,6220 L2848,952" stroke="blue" stroke-width="2" />
<path d="M7521,6946 L1882,7874" stroke="blue" stroke-width="2" />
<path d="M7222,5837 L7091,778" stroke="blue" stroke-width="2" />
<path d="M6087,4918 L395,571" stroke="blue" stroke-width="2" />
<path d="M6953,3318 L1953,7004" stroke="blue" stroke-width="2" />
<path d="M3217,1862 L5928,1463" stroke="blue" stroke-width="2" />
<path d="M7842,2883 L1704,288" stroke="blue" stroke-width="2" />
<path d="M652,762 L4659,4000" stroke="blue" stroke-width="2" />
<path d="M2397,5288 L2928,7268" stroke="blue" stroke-width="2" />
<path d="M8212,717 L6093,1413" stroke="blue" stroke-width="2" />
<path d="M6543,2401 L5387,3744" stroke="blue" stroke-width="2" />
<path d="M2483,8276 L2280,5733" stroke="blue" stroke-width="2" />
<path d="M8214,4594 L2369,4184" stroke="blue" stroke-width="2" />
<path d="M1486,4656 L1244,4775" stroke="blue" stroke-width="2" />
<path d="M618,2475 L868,1655" stroke="blue" stroke-width="2" />
<path d="M4643,3924 L5027,8130" stroke="blue" stroke-width="2" />
<path d="M2806,2275 L7138,6507" stroke="blue" stroke-width="2" />
<path d="M3335,5708 L1537,1871" stroke="blue" stroke-width="2" />
<path d="M4475,6787 L733,1967" stroke="blue" stroke-width="2" />
<path d="M7860,6978 L1456,4553" stroke="blue" stroke-width="2" />
<path d="M7542,7677 L5592,5232" stroke="blue" stroke-width="2" />
<path d="M1138,4729 L3654,2598" stroke="blue" stroke-width="2" />
<path d="M736,3431 L1305,4235" stroke="blue" stroke-width="2" />
<path d="M3097,27 L293,603" stroke="blue" stroke-width="2" />
<path d="M6877,3244 L4486,376" stroke="blue" stroke-width="2" />
<path d="M7093,590 L4261,4258" stroke="blue" stroke-width="2" />
<path d="M6351,6015 L6453,8100" stroke="blue" stroke-width="2" />
<path d="M3729,1534 L266,431" stroke="blue" stroke-width="2" />
<path d="M1851,4391 L4777,2385" stroke="blue" stroke-width="2" />
<path d="M2676,6743 L6895,2127" stroke="blue" stroke-width="2" />
<path d="M6478,8398 L1843,4748" stroke="blue" stroke-width="2" />
<path d="M1639,186 L476,8078" stroke="blue" stroke-width="2" />
<path d="M8252,4111 L983,6615" stroke="blue" stroke-width="2" />
<path d="M4308,7510 L6344,1064" stroke="blue" stroke-width="2" />
<path d="M3026,130 L477,4447" stroke="blue" stroke-width="2" />
<path d="M49,4864 L5570,6919" stroke="blue" stroke-width="2" />
<path d="M4577,2988 L7875,4687" stroke="blue" stroke-width="2" />
<path d="M1588,7546 L4406,906" stroke="blue" stroke-width="2" />
<path d="M7792,1658 L2733,3114" stroke="blue" stroke-width="2" />
<path d="M7642,7016 L4708,5219" stroke="blue" stroke-width="2" />
<path d="M590,3087 L7332,626" stroke="blue" stroke-width="2" />
<path d="M3615,2723 L4323,8329" stroke="blue" stroke-width="2" />
<path d="M2559,2538 L3832,4304" stroke="blue" stroke-width="2" />
<path d="M5619,6344 L1761,5605" stroke="blue" stroke-width="2" />
<path d="M6496,6423 L6015,2902" stroke="blue" stroke-width="2" />
<path d="M5705,788 L720,3013" stroke="blue" stroke-width="2" />
<path d="M8219,5569 L7086,7401" stroke="blue" stroke-width="2" />
<path d="M3487,4619 L2528,4258" stroke="blue" stroke-width="2" />
<path d="M337,4108 L2657,3839" stroke="blue" stroke-width="2" />
<path d="M3543,5356 L416,4968" stroke="blue" stroke-width="2" />
<path d="M6897,7396 L5454,2513" stroke="blue" stroke-width="2" />
<path d="M2954,1991 L4569,7063" stroke="blue" stroke-width="2" />
<path d="M7019,3901 L4548,1035" stroke="blue" stroke-width="2" />
<path d="M68,2409 L6745,2093" stroke="blue" stroke-width="2" />
<path d="M6423,6518 L923,2552" stroke="blue" stroke-width="2" />
<path d="M1624,1657 L2885,3964" stroke="blue" stroke-width="2" />
<path d="M5774,3847 L4201,5695" stroke="blue" stroke-width="2" />
<path d="M8185,4776 L3945,4567" stroke="blue" stroke-width="2" />
<path d="M6948,7193 L1242,5621" stroke="blue" stroke-width="2" />
<path d="M4613,1327 L2335,6005" stroke="blue" stroke-width="2" />
<path d="M7301,5684 L876,6021" stroke="blue" stroke-width="2" />
<path d="M5538,3985 L173,6487" stroke="blue" stroke-width="2" />
<path d="M6090,4230 L7,1910" stroke="blue" stroke-width="2" />
<path d="M5753,3236 L1133,8334" stroke="blue" stroke-width="2" />
<path d="M7800,4405 L2345,5384" stroke="blue" stroke-width="2" />
<path d="M3385,1551 L553,6681" stroke="blue" stroke-width="2" />
<path d="M7691,3544 L6894,5482" stroke="blue" stroke-width="2" />
<path d="M6785,4283 L5695,5493" stroke="blue" stroke-width="2" />
<path d="M4228,2817 L7146,5858" stroke="blue" stroke-width="2" />
<path d="M2911,6793 L2932,3978" stroke="blue" stroke-width="2" />
<path d="M4670,1674 L4691,2106" stroke="blue" stroke-width="2" />
<path d="M1193,2117 L3328,2503" stroke="blue" stroke-width="2" />
<path d="M7799,723 L4357,3533" stroke="blue" stroke-width="2" />
<path d="M2799,4424 L5997,4711" stroke="blue" stroke-width="2" />
<path d="M5123,861 L5368,5334" stroke="blue" stroke-width="2" />
<path d="M3510,6767 L2403,3845" stroke="blue" stroke-width="2" />
<path d="M2561,6258 L3431,7106" stroke="blue" stroke-width="2" />
<path d="M4381,868 L4957,2253" stroke="blue" stroke-width="2" />
<path d="M3465,2143 L854,2173" stroke="blue" stroke-width="2" />
<path d="M7274,5949 L4274,2417" stroke="blue" stroke-width="2" />
<path d="M7841,2611 L7069,662" stroke="blue" stroke-width="2" />
<path d="M2139,571 L1294,7009" stroke="blue" stroke-width="2" />
<path d="M6319,962 L1375,5776" stroke="blue" stroke-width="2" />
<path d="M3403,223 L1082,4042" stroke="blue" stroke-width="2" />
<path d="M5422,1914 L4239,1417" stroke="blue" stroke-width="2" />
<path d="M1572,5028 L4704,6765" stroke="blue" stroke-width="2" />
<path d="M7657,1522 L3824,1436" stroke="blue" stroke-width="2" />
<path d="M1803,638 L7190,8407" stroke="blue" stroke-width="2" />
<path d="M6295,10 L4516,7411" stroke="blue" stroke-width="2" />
<path d="M1801,1029 L869,1770" stroke="blue" stroke-width="2" />
<path d="M5500,1941 L7457,3432" stroke="blue" stroke-width="2" />
<path d="M2888,7279 L5226,3019" stroke="blue" stroke-width="2" />
<path d="M2012,5255 L8266,8087" stroke="blue" stroke-width="2" />
<path d="M5521,212 L6852,1824" stroke="blue" stroke-width="2" />
<path d="M1368,7488 L5915,652" stroke="blue" stroke-width="2" />
<path d="M7560,1482 L7783,4328" stroke="blue" stroke-width="2" />
<path d="M3995,474 L5921,7517" stroke="blue" stroke-width="2" />
<path d="M5622,1996 L2894,5211" stroke="blue" stroke-width="2" />
<path d="M7411,1627 L7460,5431" stroke="blue" stroke-width="2" />
<path d="M1538,2058 L7043,8678" stroke="blue" stroke-width="2" />
<path d="M2421,8673 L1924,1576" stroke="blue" stroke-width="2" />
<path d="M1058,4272 L4419,5525" stroke="blue" stroke-width="2" />
<path d="M5840,4055 L301,1711" stroke="blue" stroke-width="2" />
<path d="M8020,6108 L6643,7737" stroke="blue" stroke-width="2" />
<path d="M1267,162 L5676,5487" stroke="blue" stroke-width="2" />
<path d="M5768,7499 L1912,3046" stroke="blue" stroke-width="2" />
<path d="M4248,2149 L4767,3395" stroke="blue" stroke-width="2" />
<path d="M7744,474 L7258,2380" stroke="blue" stroke-width="2" />
<path d="M2375,5847 L6559,4701" stroke="blue" stroke-width="2" />
<path d="M5171,2903 L1742,71" stroke="blue" stroke-width="2" />
<path d="M2266,8396 L7599,2027" stroke="blue" stroke-width="2" />
<path d="M4583,8028 L6630,3958" stroke="blue" stroke-width="2" />
<path d="M4720,1189 L4631,858" stroke="blue" stroke-width="2" />
<path d="M2762,8209 L5805,1223" stroke="blue" stroke-width="2" />
<path d="M6830,815 L6438,7437" stroke="blue" stroke-width="2" />
<path d="M6450,2504 L4608,4597" stroke="blue" stroke-width="2" />
<path d="M7980,8028 L5766,4823" stroke="blue" stroke-width="2" />
<path d="M3149,2409 L877,2865" stroke="blue" stroke-width="2" />
<path d="M2534,3692 L4792,4669" stroke="blue" stroke-width="2" />
<path d="M6253,8287 L68,5065" stroke="blue" stroke-width="2" />
<path d="M2424,3691 L6244,2472" stroke="blue" stroke-width="2" />
<path d="M6948,2798 L8176,713" stroke="blue" stroke-width="2" />
<path d="M7881,4210 L997,3355" stroke="blue" stroke-width="2" />
<path d="M2647,5719 L4879,4145" stroke="blue" stroke-width="2" />
<path d="M4300,7620 L4439,2776" stroke="blue" stroke-width="2" />
<path d="M3430,2823 L868,7345" stroke="blue" stroke-width="2" />
<path d="M4331,3879 L2194,2851" stroke="blue" stroke-width="2" />
<path d="M6221,2494 L200,6881" stroke="blue" stroke-width="2" />
<path d="M6418,4998 L2087,5722" stroke="blue" stroke-width="2" />
<path d="M5244,7359 L4357,901" stroke="blue" stroke-width="2" />
<path d="M7097,2949 L1021,3187" stroke="blue" stroke-width="2" />
<path d="M4385,5888 L4522,3115" stroke="blue" stroke-width="2" />
<path d="M1482,3795 L5071,6696" stroke="blue" stroke-width="2" />
<path d="M6806,3851 L1378,187" stroke="blue" stroke-width="2" />
<path d="M140,7276 L43,4980" stroke="blue" stroke-width="2" />
<path d="M1338,4850 L8000,716" stroke="blue" stroke-width="2" />
<path d="M3004,5331 L5287,5023" stroke="blue" stroke-width="2" />
<path d="M3605,3317 L1497,3597" stroke="blue" stroke-width="2" />
<path d="M2894,5706 L3750,6872" stroke="blue" stroke-width="2" />
<path d="M3007,2113 L8086,5208" stroke="blue" stroke-width="2" />
<path d="M945,3304 L1230,5516" stroke="blue" stroke-width="2" />
<path d="M7278,4110 L217,537" stroke="blue" stroke-width="2" />
<path d="M2416,7515 L8132,1694" stroke="blue" stroke-width="2" />
<path d="M7889,3017 L7292,1241" stroke="blue" stroke-width="2" />
<path d="M1570,655 L4852,7621" stroke="blue" stroke-width="2" />
<path d="M4756,1148 L7343,5649" stroke="blue" stroke-width="2" />
<path d="M815,306 L4797,5576" stroke="blue" stroke-width="2" />
<path d="M3828,3553 L3637,1058" stroke="blue" stroke-width="2" />
<path d="M2306,4421 L6417,6956" stroke="blue" stroke-width="2" />
<path d="M955,6452 L2381,4841" stroke="blue" stroke-width="2" />
<path d="M6012,3886 L1603,8394" stroke="blue" stroke-width="2" />
<path d="M1322,2677 L1630,3983" stroke="blue" stroke-width="2" />
<path d="M8120,4910 L6930,4550" stroke="blue" stroke-width="2" />
<path d="M6752,7034 L2340,4899" stroke="blue" stroke-width="2" />
<path d="M5164,6220 L5944,7953" stroke="blue" stroke-width="2" />
<path d="M6656,6875 L7623,5490" stroke="blue" stroke-width="2" />
<path d="M1795,1181 L720,892" stroke="blue" stroke-width="2" />
<path d="M4971,259 L3160,3258" stroke="blue" stroke-width="2" />
<path d="M1107,1708 L708,5813" stroke="blue" stroke-width="2" />
<path d="M6616,5244 L7984,5121" stroke="blue" stroke-width="2" />
<path d="M668,5030 L7087,4673" stroke="blue" stroke-width="2" />
<path d="M3545,355 L7884,2408" stroke="blue" stroke-width="2" />
<path d="M5583,2589 L1685,2867" stroke="blue" stroke-width="2" />
<path d="M4194,1525 L6169,713" stroke="blue" stroke-width="2" />
<path d="M1784,2181 L6572,4434" stroke="blue" stroke-width="2" />
<path d="M5261,3621 L6137,5461" stroke="blue" stroke-width="2" />
<path d="M4157,2678 L6871,871" stroke="blue" stroke-width="2" />
<path d="M3506,1495 L2152,5892" stroke="blue" stroke-width="2" />
<path d="M1331,35 L2261,1091" stroke="blue" stroke-width="2" />
<path d="M735,787 L6620,6503" stroke="blue" stroke-width="2" />
<path d="M3922,2104 L1659,7439" stroke="blue" stroke-width="2" />
<path d="M5458,2510 L3441,5501" stroke="blue" stroke-width="2" />
<path d="M7774,2886 L1813,1883" stroke="blue" stroke-width="2" />
<path d="M6029,7990 L2673,5792" stroke="blue" stroke-width="2" />
<path d="M3301,7087 L2214,2257" stroke="blue" stroke-width="2" />
<path d="M1390,1407 L7135,6342" stroke="blue" stroke-width="2" />
<path d="M4333,7477 L846,3081" stroke="blue" stroke-width="2" />
<path d="M855,6135 L3258,8202" stroke="blue" stroke-width="2" />
<path d="M2068,2502 L281,6706" stroke="blue" stroke-width="2" />
<path d="M5563,1986 L1191,6345" stroke="blue" stroke-width="2" />
<path d="M196,1026 L5216,5747" stroke="blue" stroke-width="2" />
<path d="M3288,2222 L8109,8031" stroke="blue" stroke-width="2" />
<path d="M168,7312 L2272,2569" stroke="blue" stroke-width="2" />
<path d="M1401,134 L1758,7531" stroke="blue" stroke-width="2" />
<path d="M3267,6287 L7039,4289" stroke="blue" stroke-width="2" />
<path d="M5231,6766 L1245,4878" stroke="blue" stroke-width="2" />
<path d="M2103,5346 L5227,6348" stroke="blue" stroke-width="2" />
<path d="M2027,2837 L7971,1294" stroke="blue" stroke-width="2" />
<path d="M328,6520 L3646,7086" stroke="blue" stroke-width="2" />
<path d="M8180,1658 L291,2639" stroke="blue" stroke-width="2" />
<path d="M7717,1701 L961,4245" stroke="blue" stroke-width="2" />
<path d="M7996,3976 L5116,599" stroke="blue" stroke-width="2" />
<path d="M7605,698 L2288,4933" stroke="blue" stroke-width="2" />
<path d="M2373,5654 L7598,1259" stroke="blue" stroke-width="2" />
<path d="M7549,3174 L6834,817" stroke="blue" stroke-width="2" />
<path d="M3787,3611 L4865,8100" stroke="blue" stroke-width="2" />
<path d="M6868,8431 L397,464" stroke="blue" stroke-width="2" />
<path d="M5567,6488 L6669,794" stroke="blue" stroke-width="2" />
<path d="M3234,4165 L5008,765" stroke="blue" stroke-width="2" />
<path d="M5657,7176 L7110,5035" stroke="blue" stroke-width="2" />
<path d="M6801,8251 L151,3376" stroke="blue" stroke-width="2" />
<path d="M3495,4095 L6361,6057" stroke="blue" stroke-width="2" />
<path d="M6471,567 L3034,4497" stroke="blue" stroke-width="2" />
<path d="M1302,5804 L3197,6146" stroke="blue" stroke-width="2" />
<path d="M3862,2867 L5145,4809" stroke="blue" stroke-width="2" />
<path d="M8236,4585 L1424,1541" stroke="blue" stroke-width="2" />
<path d="M2713,36 L998,678" stroke="blue" stroke-width="2" />
<path d="M6661,5549 L5181,1341" stroke="blue" stroke-width="2" />
<path d="M1439,8103 L3406,4383" stroke="blue" stroke-width="2" />
<path d="M3448,3037 L6454,3922" stroke="blue" stroke-width="2" />
<path d="M4007,5779 L3661,639" stroke="blue" stroke-width="2" />
<path d="M5215,6470 L6427,4654" stroke="blue" stroke-width="2" />
<path d="M2192,3814 L1280,1507" stroke="blue" stroke-width="2" />
<path d="M2290,1758 L5356,5185" stroke="blue" stroke-width="2" />
<path d="M6266,7870 L5144,2805" stroke="blue" stroke-width="2" />
<path d="M6568,1719 L8127,859" stroke="blue" stroke-width="2" />
<path d="M6265,1820 L2588,3772" stroke="blue" stroke-width="2" />
<path d="M5202,3352 L4033,1164" stroke="blue" stroke-width="2" />
<path d="M5653,416 L4824,890" stroke="blue" stroke-width="2" />
<path d="M1203,740 L1265,36" stroke="blue" stroke-width="2" />
<path d="M1992,1352 L1746,6470" stroke="blue" stroke-width="2" />
<path d="M6971,3609 L6457,7951" stroke="blue" stroke-width="2" />
<path d="M2965,6505 L1147,7490" stroke="blue" stroke-width="2" />
<path d="M7726,2713 L300,3878" stroke="blue" stroke-width="2" />
<path d="M177,5985 L148,7581" stroke="blue" stroke-width="2" />
<path d="M1672,5408 L1519,2910" stroke="blue" stroke-width="2" />
<path d="M2801,3824 L5872,1431" stroke="blue" stroke-width="2" />
<path d="M1911,3898 L2624,6227" stroke="blue" stroke-width="2" />
<path d="M0,0 L8286,0" stroke="red" stroke-width="10" />
<path d="M8286,0 L8286,8696" stroke="red" stroke-width="10" />
<path d="M0,8696 L8286,8696" stroke="red" stroke-width="10" />
<path d="M0,8696 L0,0" stroke="red" stroke-width="10" />
</svg>