<?xml version="1.0" encoding="UTF-8"?>
<svg xmlns="http://www.w3.org/2000/svg" xmlns:xlink="http://www.w3.org/1999/xlink"
     width="10000" height="10000" viewBox="0 0 10000 10000">
<defs>
</defs>
<path d="M4623,5551 L5104,789" stroke="blue" stroke-width="2" />
<path d="M4600,1489 L3165,6707" stroke="blue" stroke-width="2" />
<path d="M5724,3613 L4352,2676" stroke="blue" stroke-width="2" />
<path d="M170,8243 L529,2246" stroke="blue" stroke-width="2" />
<path d="M6682,4984 L5566,9600" stroke="blue" stroke-width="2" />
<path d="M1951,7195 L5322,3117" stroke="blue" stroke-width="2" />
<path d="M1070,341 L2164,1575" stroke="blue" stroke-width="2" />
<path d="M2476,3559 L2458,2219" stroke="blue" stroke-width="2" />
<path d="M1505,8232 L3366,9724" stroke="blue" stroke-width="2" />
<path d="M3015,8433 L4262,7234" stroke="blue" stroke-width="2" />
<path d="M8128,8890 L4545,4340" stroke="blue" stroke-width="2" />
<path d="M3635,9564 L3198,3186" stroke="blue" stroke-width="2" />
<path d="M7596,7145 L6912,1735" stroke="blue" stroke-width="2" />
<path d="M6637,6895 L3930,3770" stroke="blue" stroke-width="2" />
<path d="M4870,2581 L2069,1134" stroke="blue" stroke-width="2" />
<path d="M6390,5798 L6728,1026" stroke="blue" stroke-width="2" />
<path d="M6003,2547 L751,7410" stroke="blue" stroke-width="2" />
<path d="M2308,5945 L1475,5216" stroke="blue" stroke-width="2" />
<path d="M5561,9027 L2400,9699" stroke="blue" stroke-width="2" />
<path d="M2680,8079 L6306,8424" stroke="blue" stroke-width="2" />
<path d="M4273,7757 L903,8113" stroke="blue" stroke-width="2" />
<path d="M7038,4388 L1006,6965" stroke="blue" stroke-width="2" />
<path d="M4896,3641 L2364,3394" stroke="blue" stroke-width="2" />
<path d="M4366,4770 L4533,2380" stroke="blue" stroke-width="2" />
<path d="M6276,975 L3656,3360" stroke="blue" stroke-width="2" />
<path d="M7048,865 L771,3017" stroke="blue" stroke-width="2" />
<path d="M4611,6721 L4899,1308" stroke="blue" stroke-width="2" />
<path d="M7780,9659 L5,665" stroke="blue" stroke-width="2" />
<path d="M419,395 L7260,922" stroke="blue" stroke-width="2" />
<path d="M5010,1337 L315,9452" stroke="blue" stroke-width="2" />
<path d="M4109,2818 L3184,8329" stroke="blue" stroke-width="2" />
<path d="M5150,6895 L5394,1717" stroke="blue" stroke-width="2" />
<path d="M3913,7542 L7874,5453" stroke="blue" stroke-width="2" />
<path d="M6200,8631 L4955,1705" stroke="blue" stroke-width="2" />
<path d="M6583,9554 L6833,579" stroke="blue" stroke-width="2" />
<path d="M3239,6440 L6213,3383" stroke="blue" stroke-width="2" />
<path d="M2313,9223 L2071,5523" stroke="blue" stroke-width="2" />
<path d="M4153,3397 L8058,1846" stroke="blue" stroke-width="2" />
<path d="M1140,6423 L5034,3723" stroke="blue" stroke-width="2" />
<path d="M3701,7932 L1534,5020" stroke="blue" stroke-width="2" />
<path d="M3071,5485 L5942,9113" stroke="blue" stroke-width="2" />
<path d="M7896,5045 L4967,9277" stroke="blue" stroke-width="2" />
<path d="M6371,1221 L3327,8093" stroke="blue" stroke-width="2" />
<path d="M113,9503 L851,2558" stroke="blue" stroke-width="2" />
<path d="M5875,2428 L4606,2907" stroke="blue" stroke-width="2" />
<path d="M1254,1063 L277,5153" stroke="blue" stroke-width="2" />
<path d="M5270,2524 L5323,3625" stroke="blue" stroke-width="2" />
<path d="M1313,3983 L6570,8354" stroke="blue" stroke-width="2" />
<path d="M7215,9366 L2706,3324" stroke="blue" stroke-width="2" />
<path d="M67,4420 L6580,6741" stroke="blue" stroke-width="2" />
<path d="M5516,7320 L6925,7745" stroke="blue" stroke-width="2" />
<path d="M1112,2819 L7470,5153" stroke="blue" stroke-width="2" />
<path d="M4579,6962 L6648,7851" stroke="blue" stroke-width="2" />
<path d="M1756,6056 L5622,8259" stroke="blue" stroke-width="2" />
<path d="M5157,2446 L3318,3184" stroke="blue" stroke-width="2" />
<path d="M4638,9417 L930,2679" stroke="blue" stroke-width="2" />
<path d="M6893,2357 L582,5569" stroke="blue" stroke-width="2" />
<path d="M4995,5586 L6080,8730" stroke="blue" stroke-width="2" />
<path d="M7144,8220 L2364,6204" stroke="blue" stroke-width="2" />
<path d="M5159,8201 L359,7056" stroke="blue" stroke-width="2" />
<path d="M4342,3943 L5093,7431" stroke="blue" stroke-width="2" />
<path d="M5260,5729 L4651,3161" stroke="blue" stroke-width="2" />
<path d="M6233,8167 L4072,7519" stroke="blue" stroke-width="2" />
<path d="M6848,1887 L6805,6668" stroke="blue" stroke-width="2" />
<path d="M7603,5576 L1746,6085" stroke="blue" stroke-width="2" />
<path d="M3131,6467 L6198,1661" stroke="blue" stroke-width="2" />
<path d="M2509,28 L314,7463" stroke="blue" stroke-width="2" />
<path d="M1487,787 L2393,5163" stroke="blue" stroke-width="2" />
<path d="M2028,4500 L5034,6513" stroke="blue" stroke-width="2" />
<path d="M3179,214 L828,4156" stroke="blue" stroke-width="2" />
<path d="M6454,7507 L6550,5406" stroke="blue" stroke-width="2" />
<path d="M6757,1549 L4641,118" stroke="blue" stroke-width="2" />
<path d="M3158,6487 L4702,175" stroke="blue" stroke-width="2" />
<path d="M6191,8784 L8030,5766" stroke="blue" stroke-width="2" />
<path d="M5178,9428 L7814,5341" stroke="blue" stroke-width="2" />
<path d="M545,3242 L3737,4948" stroke="blue" stroke-width="2" />
<path d="M7029,1620 L2437,726" stroke="blue" stroke-width="2" />
<path d="M1620,3444 L4676,8223" stroke="blue" stroke-width="2" />
<path d="M632,6798 L1157,3852" stroke="blue" stroke-width="2" />
<path d="M6043,971 L707,5384" stroke="blue" stroke-width="2" />
<path d="M7264,4652 L4378,8978" stroke="blue" stroke-width="2" />
<path d="M2597,7603 L6273,6984" stroke="blue" stroke-width="2" />
<path d="M6615,625 L6440,1416" stroke="blue" stroke-width="2" />
<path d="M3926,6417 L702,8239" stroke="blue" stroke-width="2" />
<path d="M7293,5679 L7432,8877" stroke="blue" stroke-width="2" />
<path d="M3253,7610 L2894,1860" stroke="blue" stroke-width="2" />
<path d="M2655,253 L1181,414" stroke="blue" stroke-width="2" />
<path d="M5661,5117 L7579,3158" stroke="blue" stroke-width="2" />
<path d="M5670,2533 L5044,6490" stroke="blue" stroke-width="2" />
<path d="M5710,6729 L499,5358" stroke="blue" stroke-width="2" />
<path d="M7073,9494 L2985,8198" stroke="blue" stroke-width="2" />
<path d="M1221,4890 L4618,1060" stroke="blue" stroke-width="2" />
<path d="M4106,5393 L7221,1104" stroke="blue" stroke-width="2" />
<path d="M5204,1910 L4737,7" stroke="blue" stroke-width="2" />
<path d="M8038,8790 L8094,287" stroke="blue" stroke-width="2" />
<path d="M5725,6663 L3003,957" stroke="blue" stroke-width="2" />
<path d="M582,3500 L6790,9132" stroke="blue" stroke-width="2" />
<path d="M5865,7479 L7621,6407" stroke="blue" stroke-width="2" />
<path d="M231,8423 L5711,6188" stroke="blue" stroke-width="2" />
<path d="M3287,3621 L7485,3776" stroke="blue" stroke-width="2" />
<path d="M5209,7487 L6988,139" stroke="blue" stroke-width="2" />
<path d="M7353,5143 L2731,6359" stroke="blue" stroke-width="2" />
<path d="M1702,3162 L2999,8006" stroke="blue" stroke-width="2" />
<path d="M6561,4797 L6822,6499" stroke="blue" stroke-width="2" />
<path d="M4928,295 L2519,2935" stroke="blue" stroke-width="2" />
<path d="M4643,2966 L7682,5848" stroke="blue" stroke-width="2" />
<path d="M268,9009 L577,8739" stroke="blue" stroke-width="2" />
<path d="M3167,3604 L6363,6242" stroke="blue" stroke-width="2" />
<path d="M4163,5347 L1899,5624" stroke="blue" stroke-width="2" />
<path d="M6052,2854 L6717,3124" stroke="blue" stroke-width="2" />
<path d="M6037,6515 L4909,2516" stroke="blue" stroke-width="2" />
<path d="M3499,618 L4466,4452" stroke="blue" stroke-width="2" />
<path d="M7826,9464 L1367,7173" stroke="blue" stroke-width="2" />
<path d="M5247,3825 L1004,941" stroke="blue" stroke-width="2" />
<path d="M437,2271 L2718,1422" stroke="blue" stroke-width="2" />
<path d="M2345,6822 L5081,9375" stroke="blue" stroke-width="2" />
<path d="M4303,2585 L7353,8308" stroke="blue" stroke-width="2" />
<path d="M5213,672 L1898,4732" stroke="blue" stroke-width="2" />
<path d="M7242,5614 L4697,8797" stroke="blue" stroke-width="2" />
<path d="M5858,5659 L7838,8605" stroke="blue" stroke-width="2" />
<path d="M3598,6249 L262,7176" stroke="blue" stroke-width="2" />
<path d="M3159,7106 L3151,8346" stroke="blue" stroke-width="2" />
<path d="M7362,9453 L709,598" stroke="blue" stroke-width="2" />
<path d="M1639,6565 L7417,6386" stroke="blue" stroke-width="2" />
<path d="M2853,483 L44,5347" stroke="blue" stroke-width="2" />
<path d="M4841,7034 L7530,5382" stroke="blue" stroke-width="2" />
<path d="M4042,4429 L2580,2932" stroke="blue" stroke-width="2" />
<path d="M5269,1700 L4244,9342" stroke="blue" stroke-width="2" />
<path d="M4033,2833 L7580,75" stroke="blue" stroke-width="2" />
<path d="M7436,5212 L2824,8038" stroke="blue" stroke-width="2" />
<path d="M162,7949 L3839,5751" stroke="blue" stroke-width="2" />
<path d="M2589,7949 L1069,3825" stroke="blue" stroke-width="2" />
<path d="M6767,6320 L2790,1780" stroke="blue" stroke-width="2" />
<path d="M1422,3835 L5570,232" stroke="blue" stroke-width="2" />
<path d="M6277,5600 L1289,3355" stroke="blue" stroke-width="2" />
<path d="M1280,8489 L4863,9603" stroke="blue" stroke-width="2" />
<path d="M4552,7215 L3218,2696" stroke="blue" stroke-width="2" />
<path d="M4528,2475 L1340,730" stroke="blue" stroke-width="2" />
<path d="M7857,3492 L4717,7691" stroke="blue" stroke-width="2" />
<path d="M4637,7516 L1719,4117" stroke="blue" stroke-width="2" />
<path d="M5244,5888 L1600,5440" stroke="blue" stroke-width="2" />
<path d="M3114,2485 L3939,2623" stroke="blue" stroke-width="2" />
<path d="M157,9785 L3566,4436" stroke="blue" stroke-width="2" />
<path d="M5262,5869 L2183,5580" stroke="blue" stroke-width="2" />
<path d="M2479,8849 L8049,4619" stroke="blue" stroke-width="2" />
<path d="M4922,6974 L2005,826" stroke="blue" stroke-width="2" />
<path d="M3761,5878 L420,5149" stroke="blue" stroke-width="2" />
<path d="M2633,4113 L7579,7860" stroke="blue" stroke-width="2" />
<path d="M4650,6498 L7773,1026" stroke="blue" stroke-width="2" />
<path d="M7995,4083 L3594,4806" stroke="blue" stroke-width="2" />
<path d="M5013,4706 L4247,4620" stroke="blue" stroke-width="2" />
<path d="M884,5321 L5099,8431" stroke="blue" stroke-width="2" />
<path d="M4929,6839 L4519,6775" stroke="blue" stroke-width="2" />
<path d="M532,8658 L3019,9782" stroke="blue" stroke-width="2" />
<path d="M3471,3147 L1070,4895" stroke="blue" stroke-width="2" />
<path d="M7063,6213 L5228,8396" stroke="blue" stroke-width="2" />
<path d="M4375,5652 L2947,6087" stroke="blue" stroke-width="2" />
<path d="M1497,9069 L5356,7385" stroke="blue" stroke-width="2" />
<path d="M917,1124 L5955,2569" stroke="blue" stroke-width="2" />
<path d="M765,4151 L4643,3575" stroke="blue" stroke-width="2" />
<path d="M7739,951 L7164,7457" stroke="blue" stroke-width="2" />
<path d="M5148,2446 L4975,4301" stroke="blue" stroke-width="2" />
<path d="M1391,4732 L282,5086" stroke="blue" stroke-width="2" />
<path d="M7197,7593 L2235,891" stroke="blue" stroke-width="2" />
<path d="M4403,3820 L117,7242" stroke="blue" stroke-width="2" />
<path d="M2341,5967 L7288,4655" stroke="blue" stroke-width="2" />
<path d="M2145,1724 L568,3951" stroke="blue" stroke-width="2" />
<path d="M1341,8451 L1742,906" stroke="blue" stroke-width="2" />
<path d="M2466,3823 L818,8025" stroke="blue" stroke-width="2" />
<path d="M911,9601 L6078,9694" stroke="blue" stroke-width="2" />
<path d="M4157,8878 L2198,5603" stroke="blue" stroke-width="2" />
<path d="M7113,6045 L7616,5953" stroke="blue" stroke-width="2" />
<path d="M2372,5306 L4271,9606" stroke="blue" stroke-width="2" />
<path d="M6905,9029 L2402,3877" stroke="blue" stroke-width="2" />
<path d="M7293,2362 L5179,7980" stroke="blue" stroke-width="2" />
<path d="M4890,6823 L2857,506" stroke="blue" stroke-width="2" />
<path d="M2030,9698 L6011,9578" stroke="blue" stroke-width="2" />
<path d="M5975,4802 L2847,3360" stroke="blue" stroke-width="2" />
<path d="M7156,5166 L5674,8250" stroke="blue" stroke-width="2" />
<path d="M4712,734 L3249,7134" stroke="blue" stroke-width="2" />
<path d="M6702,6611 L130,3593" stroke="blue" stroke-width="2" />
<path d="M2317,2136 L5086,4154" stroke="blue" stroke-width="2" />
<path d="M4616,1464 L1078,3527" stroke="blue" stroke-width="2" />
<path d="M8064,9689 L2870,5142" stroke="blue" stroke-width="2" />
<path d="M7062,1268 L6947,9343" stroke="blue" stroke-width="2" />
<path d="M6984,625 L4183,5908" stroke="blue" stroke-width="2" />
<path d="M6595,5512 L7904,7312" stroke="blue" stroke-width="2" />
<path d="M253,9087 L2097,4608" stroke="blue" stroke-width="2" />
<path d="M451,1761 L5652,6874" stroke="blue" stroke-width="2" />
<path d="M6801,81 L6521,3048" stroke="blue" stroke-width="2" />
<path d="M5791,5640 L5966,4143" stroke="blue" stroke-width="2" />
<path d="M2757,1577 L5953,5550" stroke="blue" stroke-width="2" />
<path d="M5735,2969 L8034,7575" stroke="blue" stroke-width="2" />
<path d="M4986,4095 L7758,6406" stroke="blue" stroke-width="2" />
<path d="M7576,5673 L739,3222" stroke="blue" stroke-width="2" />
<path d="M4542,5216 L6874,3089" stroke="blue" stroke-width="2" />
<path d="M6037,1360 L1027,9532" stroke="blue" stroke-width="2" />
<path d="M993,7605 L1878,1501" stroke="blue" stroke-width="2" />
<path d="M7312,7907 L8078,8885" stroke="blue" stroke-width="2" />
<path d="M3324,1541 L682,3599" stroke="blue" stroke-width="2" />
<path d="M4673,9266 L7403,8335" stroke="blue" stroke-width="2" />
<path d="M3518,4402 L2816,2669" stroke="blue" stroke-width="2" />
<path d="M2327,5890 L361,7309" stroke="blue" stroke-width="2" />
<path d="M2795,98 L4640,4365" stroke="blue" stroke-width="2" />
<path d="M5723,5485 L6130,3991" stroke="blue" stroke-width="2" />
<path d="M1496,3509 L3292,9650" stroke="blue" stroke-width="2" />
<path d="M7083,6846 L1556,5262" stroke="blue" stroke-width="2" />
<path d="M1071,8635 L5622,9222" stroke="blue" stroke-width="2" />
<path d="M242,3339 L1791,7876" stroke="blue" stroke-width="2" />
<path d="M1727,3061 L4588,6257" stroke="blue" stroke-width="2" />
<path d="M5274,3412 L4965,7620" stroke="blue" stroke-width="2" />
<path d="M6977,6779 L1759,9518" stroke="blue" stroke-width="2" />
<path d="M5959,3728 L3213,4527" stroke="blue" stroke-width="2" />
<path d="M437,8161 L4661,238" stroke="blue" stroke-width="2" />
<path d="M6424,5792 L7844,5162" stroke="blue" stroke-width="2" />
<path d="M2505,8050 L2235,54" stroke="blue" stroke-width="2" />
<path d="M571,6428 L5518,5703" stroke="blue" stroke-width="2" />
<path d="M5987,1556 L2576,4443" stroke="blue" stroke-width="2" />
<path d="M7727,7906 L147,6790" stroke="blue" stroke-width="2" />
<path d="M5777,413 L5934,8678" stroke="blue" stroke-width="2" />
<path d="M7862,6727 L4757,6252" stroke="blue" stroke-width="2" />
<path d="M4982,319 L4581,4019" stroke="blue" stroke-width="2" />
<path d="M2639,3912 L7599,3696" stroke="blue" stroke-width="2" />
<path d="M7269,127 L4679,1314" stroke="blue" stroke-width="2" />
<path d="M3168,2522 L6745,7849" stroke="blue" stroke-width="2" />
<path d="M1733,2593 L2620,3889" stroke="blue" stroke-width="2" />
<path d="M2842,7816 L3462,1940" stroke="blue" stroke-width="2" />
<path d="M2788,1077 L1234,58" stroke="blue" stroke-width="2" />
<path d="M7044,7376 L5061,9825" stroke="blue" stroke-width="2" />
<path d="M7479,3848 L1591,9502" stroke="blue" stroke-width="2" />
<path d="M5820,9187 L526,7601" stroke="blue" stroke-width="2" />
<path d="M1637,8606 L7438,4537" stroke="blue" stroke-width="2" />
<path d="M7855,7719 L5246,2139" stroke="blue" stroke-width="2" />
<path d="M5134,9805 L7461,218" stroke="blue" stroke-width="2" />
<path d="M2146,6059 L5660,3688" stroke="blue" stroke-width="2" />
<path d="M2951,4182 L5860,1950" stroke="blue" stroke-width="2" />
<path d="M2473,1222 L4528,3981" stroke="blue" stroke-width="2" />
<path d="M4037,9150 L5583,8304" stroke="blue" stroke-width="2" />
<path d="M5389,3600 L4563,5488" stroke="blue" stroke-width="2" />
<path d="M427,5533 L4960,8721" stroke="blue" stroke-width="2" />
<path d="M6515,2524 L3098,247" stroke="blue" stroke-width="2" />
<path d="M3198,4689 L898,3397" stroke="blue" stroke-width="2" />
<path d="M6702,8768 L650,5631" stroke="blue" stroke-width="2" />
<path d="M7436,4492 L2760,1145" stroke="blue" stroke-width="2" />
<path d="M5562,8701 L5400,2782" stroke="blue" stroke-width="2" />
<path d="M3530,877 L986,9052" stroke="blue" stroke-width="2" />
<path d="M5379,3222 L4272,5272" stroke="blue" stroke-width="2" />
<path d="M7700,4214 L7682,8451" stroke="blue" stroke-width="2" />
<path d="M7289,8356 L1619,28" stroke="blue" stroke-width="2" />
<path d="M4157,1385 L3341,7349" stroke="blue" stroke-width="2" />
<path d="M3647,1014 L4571,8447" stroke="blue" stroke-width="2" />
<path d="M1540,3306 L2996,3341" stroke="blue" stroke-width="2" />
<path d="M3020,7902 L5614,5396" stroke="blue" stroke-width="2" />
<path d="M241,5964 L5014,6145" stroke="blue" stroke-width="2" />
<path d="M2071,8579 L1563,6522" stroke="blue" stroke-width="2" />
<path d="M297,6273 L4383,469" stroke="blue" stroke-width="2" />
<path d="M2141,4524 L7235,9726" stroke="blue" stroke-width="2" />
<path d="M1146,7283 L5718,1389" stroke="blue" stroke-width="2" />
<path d="M7703,4185 L7233,7986" stroke="blue" stroke-width="2" />
<path d="M4754,5808 L1515,1224" stroke="blue" stroke-width="2" />
<path d="M1585,4234 L1932,5432" stroke="blue" stroke-width="2" />
<path d="M4272,6910 L4061,6466" stroke="blue" stroke-width="2" />
<path d="M2174,1822 L5835,5734" stroke="blue" stroke-width="2" />
<path d="M4498,430 L4628,1548" stroke="blue" stroke-width="2" />
<path d="M1885,2493 L1501,3329" stroke="blue" stroke-width="2" />
<path d="M3225,473 L7147,6719" stroke="blue" stroke-width="2" />
<path d="M895,3677 L4779,6657" stroke="blue" stroke-width="2" />
<path d="M7005,1155 L5396,8158" stroke="blue" stroke-width="2" />
<path d="M2335,173 L2150,9712" stroke="blue" stroke-width="2" />
<path d="M2466,3563 L13,2398" stroke="blue" stroke-width="2" />
<path d="M6864,8235 L239,2266" stroke="blue" stroke-width="2" />
<path d="M2646,6950 L3090,3656" stroke="blue" stroke-width="2" />
<path d="M2410,7670 L5550,7883" stroke="blue" stroke-width="2" />
<path d="M58,2807 L3943,9284" stroke="blue" stroke-width="2" />
<path d="M1873,9128 L7017,485" stroke="blue" stroke-width="2" />
<path d="M5716,539 L2288,6851" stroke="blue" stroke-width="2" />
<path d="M6357,862 L2005,2837" stroke="blue" stroke-width="2" />
<path d="M1111,2565 L4399,5082" stroke="blue" stroke-width="2" />
<path d="M4568,1515 L8064,8850" stroke="blue" stroke-width="2" />
<path d="M0,0 L8134,0" stroke="red" stroke-width="10" />
<path d="M8134,0 L8134,9859" stroke="red" stroke-width="10" />
<path d="M0,9859 L8134,9859" stroke="red" stroke-width="10" />
<path d="M0,9859 L0,0" stroke="red" stroke-width="10" />
</svg>