<?xml version="1.0" encoding="UTF-8"?>
<svg xmlns="http://www.w3.org/2000/svg" xmlns:xlink="http://www.w3.org/1999/xlink"
     width="10000" height="10000" viewBox="0 0 10000 10000">
<defs>
</defs>
<path d="M7712,754 L1799,321" stroke="blue" stroke-width="2" />
<path d="M2591,272 L7425,417" stroke="blue" stroke-width="2" />
<path d="M7904,1058 L4902,920" stroke="blue" stroke-width="2" />
<path d="M1381,144 L69,873" stroke="blue" stroke-width="2" />
<path d="M4281,460 L3693,843" stroke="blue" stroke-width="2" />
<path d="M3057,1029 L6227,407" stroke="blue" stroke-width="2" />
<path d="M4936,1214 L1590,1078" stroke="blue" stroke-width="2" />
<path d="M8110,530 L8237,488" stroke="blue" stroke-width="2" />
<path d="M6559,697 L3369,65" stroke="blue" stroke-width="2" />
<path d="M414,977 L3766,449" stroke="blue" stroke-width="2" />
<path d="M66,1028 L6085,941" stroke="blue" stroke-width="2" />
<path d="M1727,578 L1135,1242" stroke="blue" stroke-width="2" />
<path d="M5711,555 L1917,755" stroke="blue" stroke-width="2" />
<path d="M5090,967 L2545,1017" stroke="blue" stroke-width="2" />
<path d="M2676,652 L2427,303" stroke="blue" stroke-width="2" />
<path d="M1675,1145 L8448,523" stroke="blue" stroke-width="2" />
<path d="M3391,1070 L4872,527" stroke="blue" stroke-width="2" />
<path d="M2850,1188 L3278,237" stroke="blue" stroke-width="2" />
<path d="M821,442 L2150,666" stroke="blue" stroke-width="2" />
<path d="M3313,123 L4157,732" stroke="blue" stroke-width="2" />
<path d="M3415,597 L3074,434" stroke="blue" stroke-width="2" />
<path d="M884,683 L366,490" stroke="blue" stroke-width="2" />
<path d="M672,88 L7137,642" stroke="blue" stroke-width="2" />
<path d="M8812,642 L4494,27" stroke="blue" stroke-width="2" />
<path d="M2264,915 L2127,685" stroke="blue" stroke-width="2" />
<path d="M6827,738 L8751,1276" stroke="blue" stroke-width="2" />
<path d="M2571,873 L5132,255" stroke="blue" stroke-width="2" />
<path d="M5804,722 L7376,341" stroke="blue" stroke-width="2" />
<path d="M6442,401 L265,415" stroke="blue" stroke-width="2" />
<path d="M8215,237 L4544,831" stroke="blue" stroke-width="2" />
<path d="M5953,925 L503,1260" stroke="blue" stroke-width="2" />
<path d="M8192,592 L2736,385" stroke="blue" stroke-width="2" />
<path d="M6097,442 L5381,775" stroke="blue" stroke-width="2" />
<path d="M7247,935 L1352,311" stroke="blue" stroke-width="2" />
<path d="M4752,1307 L7325,286" stroke="blue" stroke-width="2" />
<path d="M2264,274 L4172,383" stroke="blue" stroke-width="2" />
<path d="M4640,616 L7627,1049" stroke="blue" stroke-width="2" />
<path d="M6912,680 L4812,882" stroke="blue" stroke-width="2" />
<path d="M38,944 L8135,884" stroke="blue" stroke-width="2" />
<path d="M7193,177 L5505,134" stroke="blue" stroke-width="2" />
<path d="M7645,1283 L2484,902" stroke="blue" stroke-width="2" />
<path d="M6225,408 L4145,1142" stroke="blue" stroke-width="2" />
<path d="M2722,1310 L545,1176" stroke="blue" stroke-width="2" />
<path d="M5916,166 L7088,973" stroke="blue" stroke-width="2" />
<path d="M1789,669 L8677,192" stroke="blue" stroke-width="2" />
<path d="M2900,693 L5925,934" stroke="blue" stroke-width="2" />
<path d="M1994,191 L2158,1304" stroke="blue" stroke-width="2" />
<path d="M6150,567 L4826,135" stroke="blue" stroke-width="2" />
<path d="M7020,1074 L8687,463" stroke="blue" stroke-width="2" />
<path d="M198,535 L3069,974" stroke="blue" stroke-width="2" />
<path d="M2381,601 L6134,1306" stroke="blue" stroke-width="2" />
<path d="M3817,1053 L4491,195" stroke="blue" stroke-width="2" />
<path d="M4627,671 L7717,920" stroke="blue" stroke-width="2" />
<path d="M2662,405 L6322,749" stroke="blue" stroke-width="2" />
<path d="M3154,1058 L103,674" stroke="blue" stroke-width="2" />
<path d="M7486,1234 L8729,22" stroke="blue" stroke-width="2" />
<path d="M1867,89 L2823,241" stroke="blue" stroke-width="2" />
<path d="M4720,61 L2583,707" stroke="blue" stroke-width="2" />
<path d="M8516,134 L6402,836" stroke="blue" stroke-width="2" />
<path d="M4066,980 L5099,992" stroke="blue" stroke-width="2" />
<path d="M181,823 L759,205" stroke="blue" stroke-width="2" />
<path d="M8,712 L3402,117" stroke="blue" stroke-width="2" />
<path d="M7936,873 L6363,276" stroke="blue" stroke-width="2" />
<path d="M8209,1067 L948,774" stroke="blue" stroke-width="2" />
<path d="M6249,238 L1796,983" stroke="blue" stroke-width="2" />
<path d="M7939,1072 L6172,126" stroke="blue" stroke-width="2" />
<path d="M3988,237 L2093,97" stroke="blue" stroke-width="2" />
<path d="M7550,1026 L7466,1142" stroke="blue" stroke-width="2" />
<path d="M463,3 L4982,1226" stroke="blue" stroke-width="2" />
<path d="M7810,35 L975,77" stroke="blue" stroke-width="2" />
<path d="M6400,807 L6205,527" stroke="blue" stroke-width="2" />
<path d="M7561,202 L2306,391" stroke="blue" stroke-width="2" />
<path d="M1808,995 L559,360" stroke="blue" stroke-width="2" />
<path d="M4851,814 L6090,584" stroke="blue" stroke-width="2" />
<path d="M5336,571 L2887,222" stroke="blue" stroke-width="2" />
<path d="M3521,706 L6102,182" stroke="blue" stroke-width="2" />
<path d="M4910,378 L5643,754" stroke="blue" stroke-width="2" />
<path d="M8394,280 L3489,614" stroke="blue" stroke-width="2" />
<path d="M7199,1284 L6330,237" stroke="blue" stroke-width="2" />
<path d="M6485,179 L7814,995" stroke="blue" stroke-width="2" />
<path d="M4932,383 L420,56" stroke="blue" stroke-width="2" />
<path d="M5510,1101 L7091,952" stroke="blue" stroke-width="2" />
<path d="M1035,1103 L3944,966" stroke="blue" stroke-width="2" />
<path d="M5712,251 L580,334" stroke="blue" stroke-width="2" />
<path d="M7852,754 L4910,236" stroke="blue" stroke-width="2" />
<path d="M4212,742 L5407,169" stroke="blue" stroke-width="2" />
<path d="M2617,876 L1877,816" stroke="blue" stroke-width="2" />
<path d="M6695,519 L4095,979" stroke="blue" stroke-width="2" />
<path d="M2385,1176 L2248,386" stroke="blue" stroke-width="2" />
<path d="M5378,976 L4382,352" stroke="blue" stroke-width="2" />
<path d="M647,724 L1476,1013" stroke="blue" stroke-width="2" />
<path d="M7719,511 L8871,1000" stroke="blue" stroke-width="2" />
<path d="M7548,824 L1079,912" stroke="blue" stroke-width="2" />
<path d="M4637,684 L990,542" stroke="blue" stroke-width="2" />
<path d="M4803,801 L6609,472" stroke="blue" stroke-width="2" />
<path d="M2766,120 L7205,489" stroke="blue" stroke-width="2" />
<path d="M8407,402 L1768,987" stroke="blue" stroke-width="2" />
<path d="M3502,385 L2288,483" stroke="blue" stroke-width="2" />
<path d="M7654,414 L926,213" stroke="blue" stroke-width="2" />
<path d="M1867,790 L5359,1114" stroke="blue" stroke-width="2" />
<path d="M956,643 L3048,197" stroke="blue" stroke-width="2" />
<path d="M8812,1022 L8080,953" stroke="blue" stroke-width="2" />
<path d="M8200,774 L8105,525" stroke="blue" stroke-width="2" />
<path d="M6871,578 L8682,616" stroke="blue" stroke-width="2" />
<path d="M4600,788 L2696,818" stroke="blue" stroke-width="2" />
<path d="M3520,997 L7340,1310" stroke="blue" stroke-width="2" />
<path d="M187,627 L344,639" stroke="blue" stroke-width="2" />
<path d="M4907,204 L4257,30" stroke="blue" stroke-width="2" />
<path d="M182,928 L5176,1279" stroke="blue" stroke-width="2" />
<path d="M5425,717 L4574,1117" stroke="blue" stroke-width="2" />
<path d="M1947,1024 L7358,137" stroke="blue" stroke-width="2" />
<path d="M5206,590 L3775,511" stroke="blue" stroke-width="2" />
<path d="M328,132 L7233,771" stroke="blue" stroke-width="2" />
<path d="M1984,44 L5465,1272" stroke="blue" stroke-width="2" />
<path d="M7399,857 L8636,325" stroke="blue" stroke-width="2" />
<path d="M5821,1 L7311,119" stroke="blue" stroke-width="2" />
<path d="M3054,1064 L6596,1103" stroke="blue" stroke-width="2" />
<path d="M5504,649 L2123,296" stroke="blue" stroke-width="2" />
<path d="M1067,611 L230,28" stroke="blue" stroke-width="2" />
<path d="M1784,692 L6896,313" stroke="blue" stroke-width="2" />
<path d="M8102,37 L1521,1123" stroke="blue" stroke-width="2" />
<path d="M7661,793 L795,1288" stroke="blue" stroke-width="2" />
<path d="M8390,511 L7864,722" stroke="blue" stroke-width="2" />
<path d="M3472,412 L6021,21" stroke="blue" stroke-width="2" />
<path d="M4588,472 L3191,283" stroke="blue" stroke-width="2" />
<path d="M773,415 L3483,484" stroke="blue" stroke-width="2" />
<path d="M6832,859 L5388,977" stroke="blue" stroke-width="2" />
<path d="M2917,1033 L7937,498" stroke="blue" stroke-width="2" />
<path d="M312,558 L2718,556" stroke="blue" stroke-width="2" />
<path d="M8190,315 L8865,978" stroke="blue" stroke-width="2" />
<path d="M4488,455 L6717,542" stroke="blue" stroke-width="2" />
<path d="M5062,709 L6338,1120" stroke="blue" stroke-width="2" />
<path d="M1883,1023 L5296,406" stroke="blue" stroke-width="2" />
<path d="M6882,381 L3561,648" stroke="blue" stroke-width="2" />
<path d="M3339,278 L4378,1128" stroke="blue" stroke-width="2" />
<path d="M6989,1306 L7264,402" stroke="blue" stroke-width="2" />
<path d="M2725,817 L777,1066" stroke="blue" stroke-width="2" />
<path d="M990,653 L8440,248" stroke="blue" stroke-width="2" />
<path d="M580,881 L7493,971" stroke="blue" stroke-width="2" />
<path d="M4422,1191 L8202,136" stroke="blue" stroke-width="2" />
<path d="M7328,685 L7337,314" stroke="blue" stroke-width="2" />
<path d="M6691,1252 L6052,769" stroke="blue" stroke-width="2" />
<path d="M842,821 L2710,528" stroke="blue" stroke-width="2" />
<path d="M5807,846 L519,4" stroke="blue" stroke-width="2" />
<path d="M3492,243 L3335,1161" stroke="blue" stroke-width="2" />
<path d="M8400,602 L6914,336" stroke="blue" stroke-width="2" />
<path d="M3184,1310 L2313,627" stroke="blue" stroke-width="2" />
<path d="M4296,97 L2043,676" stroke="blue" stroke-width="2" />
<path d="M7127,158 L8267,915" stroke="blue" stroke-width="2" />
<path d="M7724,523 L1976,1156" stroke="blue" stroke-width="2" />
<path d="M4772,659 L7071,346" stroke="blue" stroke-width="2" />
<path d="M2579,970 L326,206" stroke="blue" stroke-width="2" />
<path d="M163,389 L6460,970" stroke="blue" stroke-width="2" />
<path d="M8664,194 L3495,488" stroke="blue" stroke-width="2" />
<path d="M1242,869 L8290,121" stroke="blue" stroke-width="2" />
<path d="M6186,677 L4644,934" stroke="blue" stroke-width="2" />
<path d="M7462,1131 L2925,1081" stroke="blue" stroke-width="2" />
<path d="M2554,118 L4109,1125" stroke="blue" stroke-width="2" />
<path d="M6620,170 L7064,367" stroke="blue" stroke-width="2" />
<path d="M601,43 L7926,325" stroke="blue" stroke-width="2" />
<path d="M206,381 L5027,13" stroke="blue" stroke-width="2" />
<path d="M3559,401 L2316,69" stroke="blue" stroke-width="2" />
<path d="M2941,771 L7352,970" stroke="blue" stroke-width="2" />
<path d="M6510,821 L5311,1101" stroke="blue" stroke-width="2" />
<path d="M1431,893 L5104,803" stroke="blue" stroke-width="2" />
<path d="M8540,700 L75,1199" stroke="blue" stroke-width="2" />
<path d="M7841,604 L1472,529" stroke="blue" stroke-width="2" />
<path d="M3775,1093 L2361,811" stroke="blue" stroke-width="2" />
<path d="M5981,401 L1564,347" stroke="blue" stroke-width="2" />
<path d="M5110,602 L1430,623" stroke="blue" stroke-width="2" />
<path d="M176,1090 L670,1298" stroke="blue" stroke-width="2" />
<path d="M6525,967 L4048,1166" stroke="blue" stroke-width="2" />
<path d="M8680,908 L6408,163" stroke="blue" stroke-width="2" />
<path d="M3355,1204 L2371,569" stroke="blue" stroke-width="2" />
<path d="M1042,307 L4161,126" stroke="blue" stroke-width="2" />
<path d="M8182,1287 L198,575" stroke="blue" stroke-width="2" />
<path d="M1988,717 L6267,1065" stroke="blue" stroke-width="2" />
<path d="M8889,1203 L1730,1091" stroke="blue" stroke-width="2" />
<path d="M400,104 L7226,263" stroke="blue" stroke-width="2" />
<path d="M7670,872 L1206,974" stroke="blue" stroke-width="2" />
<path d="M2073,304 L3416,1104" stroke="blue" stroke-width="2" />
<path d="M5843,767 L3361,429" stroke="blue" stroke-width="2" />
<path d="M4815,1064 L7218,694" stroke="blue" stroke-width="2" />
<path d="M509,963 L783,1302" stroke="blue" stroke-width="2" />
<path d="M2346,1044 L7225,236" stroke="blue" stroke-width="2" />
<path d="M4828,609 L5733,1298" stroke="blue" stroke-width="2" />
<path d="M6693,1230 L6660,179" stroke="blue" stroke-width="2" />
<path d="M1645,731 L6867,414" stroke="blue" stroke-width="2" />
<path d="M3025,334 L8166,643" stroke="blue" stroke-width="2" />
<path d="M1710,525 L6924,173" stroke="blue" stroke-width="2" />
<path d="M7252,630 L2992,937" stroke="blue" stroke-width="2" />
<path d="M2359,1198 L8107,474" stroke="blue" stroke-width="2" />
<path d="M6313,1151 L4477,1229" stroke="blue" stroke-width="2" />
<path d="M8330,418 L580,226" stroke="blue" stroke-width="2" />
<path d="M1155,1064 L2655,284" stroke="blue" stroke-width="2" />
<path d="M7339,264 L3432,144" stroke="blue" stroke-width="2" />
<path d="M74,646 L1529,1230" stroke="blue" stroke-width="2" />
<path d="M383,1204 L4092,663" stroke="blue" stroke-width="2" />
<path d="M2957,1300 L2243,757" stroke="blue" stroke-width="2" />
<path d="M8154,1228 L5658,950" stroke="blue" stroke-width="2" />
<path d="M3380,789 L5440,269" stroke="blue" stroke-width="2" />
<path d="M2118,189 L4917,849" stroke="blue" stroke-width="2" />
<path d="M1489,832 L2447,706" stroke="blue" stroke-width="2" />
<path d="M1620,687 L2651,885" stroke="blue" stroke-width="2" />
<path d="M1361,1055 L8208,1069" stroke="blue" stroke-width="2" />
<path d="M1429,13 L7100,140" stroke="blue" stroke-width="2" />
<path d="M7610,382 L2670,1297" stroke="blue" stroke-width="2" />
<path d="M2617,797 L2995,491" stroke="blue" stroke-width="2" />
<path d="M2261,78 L694,196" stroke="blue" stroke-width="2" />
<path d="M7195,1300 L365,255" stroke="blue" stroke-width="2" />
<path d="M3603,434 L1853,776" stroke="blue" stroke-width="2" />
<path d="M1747,993 L2858,1153" stroke="blue" stroke-width="2" />
<path d="M2392,1101 L1991,976" stroke="blue" stroke-width="2" />
<path d="M659,144 L8023,22" stroke="blue" stroke-width="2" />
<path d="M8375,1171 L7495,576" stroke="blue" stroke-width="2" />
<path d="M3149,430 L7489,482" stroke="blue" stroke-width="2" />
<path d="M8717,702 L2464,698" stroke="blue" stroke-width="2" />
<path d="M7362,891 L5391,1068" stroke="blue" stroke-width="2" />
<path d="M2964,151 L5575,840" stroke="blue" stroke-width="2" />
<path d="M2294,1251 L1417,373" stroke="blue" stroke-width="2" />
<path d="M7859,516 L8127,770" stroke="blue" stroke-width="2" />
<path d="M4804,428 L3242,678" stroke="blue" stroke-width="2" />
<path d="M2014,287 L8035,1045" stroke="blue" stroke-width="2" />
<path d="M7863,526 L4910,374" stroke="blue" stroke-width="2" />
<path d="M8318,128 L4829,39" stroke="blue" stroke-width="2" />
<path d="M5643,937 L8260,723" stroke="blue" stroke-width="2" />
<path d="M2118,1286 L3336,543" stroke="blue" stroke-width="2" />
<path d="M1527,658 L2084,255" stroke="blue" stroke-width="2" />
<path d="M8831,966 L5401,598" stroke="blue" stroke-width="2" />
<path d="M7606,306 L6255,807" stroke="blue" stroke-width="2" />
<path d="M2268,1028 L4604,792" stroke="blue" stroke-width="2" />
<path d="M4180,346 L3697,1146" stroke="blue" stroke-width="2" />
<path d="M6815,296 L1184,1083" stroke="blue" stroke-width="2" />
<path d="M6616,535 L3572,1084" stroke="blue" stroke-width="2" />
<path d="M2944,72 L7966,339" stroke="blue" stroke-width="2" />
<path d="M607,32 L8658,915" stroke="blue" stroke-width="2" />
<path d="M1885,1146 L1307,388" stroke="blue" stroke-width="2" />
<path d="M6505,18 L878,1080" stroke="blue" stroke-width="2" />
<path d="M3562,505 L6286,1244" stroke="blue" stroke-width="2" />
<path d="M5507,172 L5217,1084" stroke="blue" stroke-width="2" />
<path d="M5807,870 L1848,1008" stroke="blue" stroke-width="2" />
<path d="M4525,1203 L4853,826" stroke="blue" stroke-width="2" />
<path d="M2941,1073 L7637,1217" stroke="blue" stroke-width="2" />
<path d="M4576,842 L6292,1290" stroke="blue" stroke-width="2" />
<path d="M5602,733 L7205,261" stroke="blue" stroke-width="2" />
<path d="M1588,112 L6685,1034" stroke="blue" stroke-width="2" />
<path d="M7410,1159 L929,259" stroke="blue" stroke-width="2" />
<path d="M1641,167 L8159,366" stroke="blue" stroke-width="2" />
<path d="M1034,724 L1297,857" stroke="blue" stroke-width="2" />
<path d="M2756,276 L7728,1231" stroke="blue" stroke-width="2" />
<path d="M7553,638 L6530,1100" stroke="blue" stroke-width="2" />
<path d="M5288,375 L5677,184" stroke="blue" stroke-width="2" />
<path d="M203,125 L8022,1089" stroke="blue" stroke-width="2" />
<path d="M5993,1256 L3896,695" stroke="blue" stroke-width="2" />
<path d="M2901,1075 L6719,669" stroke="blue" stroke-width="2" />
<path d="M4603,436 L199,233" stroke="blue" stroke-width="2" />
<path d="M5557,294 L2442,1045" stroke="blue" stroke-width="2" />
<path d="M1738,191 L7126,374" stroke="blue" stroke-width="2" />
<path d="M101,522 L7755,703" stroke="blue" stroke-width="2" />
<path d="M2312,428 L4348,549" stroke="blue" stroke-width="2" />
<path d="M356,268 L1905,102" stroke="blue" stroke-width="2" />
<path d="M8911,544 L6844,731" stroke="blue" stroke-width="2" />
<path d="M8257,453 L1964,3" stroke="blue" stroke-width="2" />
<path d="M3588,482 L7289,597" stroke="blue" stroke-width="2" />
<path d="M3054,316 L6027,867" stroke="blue" stroke-width="2" />
<path d="M3649,656 L4802,795" stroke="blue" stroke-width="2" />
<path d="M6566,187 L961,500" stroke="blue" stroke-width="2" />
<path d="M3043,638 L2664,1089" stroke="blue" stroke-width="2" />
<path d="M8567,671 L3106,320" stroke="blue" stroke-width="2" />
<path d="M6940,1259 L3827,1088" stroke="blue" stroke-width="2" />
<path d="M1291,100 L3230,9" stroke="blue" stroke-width="2" />
<path d="M6064,474 L8332,613" stroke="blue" stroke-width="2" />
<path d="M2282,788 L7872,1183" stroke="blue" stroke-width="2" />
<path d="M4053,835 L5698,926" stroke="blue" stroke-width="2" />
<path d="M3488,193 L6095,361" stroke="blue" stroke-width="2" />
<path d="M6374,709 L3962,369" stroke="blue" stroke-width="2" />
<path d="M5401,495 L4255,468" stroke="blue" stroke-width="2" />
<path d="M6439,763 L8075,1114" stroke="blue" stroke-width="2" />
<path d="M1987,694 L7487,153" stroke="blue" stroke-width="2" />
<path d="M1129,276 L1893,1259" stroke="blue" stroke-width="2" />
<path d="M1222,755 L8045,537" stroke="blue" stroke-width="2" />
<path d="M4790,1261 L595,757" stroke="blue" stroke-width="2" />
<path d="M8853,850 L4910,356" stroke="blue" stroke-width="2" />
<path d="M5863,572 L707,440" stroke="blue" stroke-width="2" />
<path d="M1865,882 L4144,658" stroke="blue" stroke-width="2" />
<path d="M8573,1115 L7782,1274" stroke="blue" stroke-width="2" />
<path d="M2186,942 L5009,256" stroke="blue" stroke-width="2" />
<path d="M2524,1181 L6136,887" stroke="blue" stroke-width="2" />
<path d="M8905,722 L2653,951" stroke="blue" stroke-width="2" />
<path d="M4341,197 L7626,747" stroke="blue" stroke-width="2" />
<path d="M3498,983 L6145,978" stroke="blue" stroke-width="2" />
<path d="M5641,425 L3727,702" stroke="blue" stroke-width="2" />
<path d="M20,916 L5598,28" stroke="blue" stroke-width="2" />
<path d="M2258,282 L5595,1231" stroke="blue" stroke-width="2" />
<path d="M5988,521 L4337,578" stroke="blue" stroke-width="2" />
<path d="M5367,1156 L3043,1072" stroke="blue" stroke-width="2" />
<path d="M2330,1268 L7110,28" stroke="blue" stroke-width="2" />
<path d="M6742,741 L6925,737" stroke="blue" stroke-width="2" />
<path d="M739,1056 L7251,856" stroke="blue" stroke-width="2" />
<path d="M580,855 L5713,1213" stroke="blue" stroke-width="2" />
<path d="M3221,80 L1187,868" stroke="blue" stroke-width="2" />
<path d="M8747,1202 L5541,600" stroke="blue" stroke-width="2" />
<path d="M1035,48 L8501,771" stroke="blue" stroke-width="2" />
<path d="M5569,430 L5206,29" stroke="blue" stroke-width="2" />
<path d="M4648,892 L345,560" stroke="blue" stroke-width="2" />
<path d="M8262,169 L3214,520" stroke="blue" stroke-width="2" />
<path d="M1998,1134 L3407,825" stroke="blue" stroke-width="2" />
<path d="M1256,888 L1177,623" stroke="blue" stroke-width="2" />
<path d="M2292,1005 L6698,957" stroke="blue" stroke-width="2" />
<path d="M1777,1198 L3251,616" stroke="blue" stroke-width="2" />
<path d="M1614,287 L2388,88" stroke="blue" stroke-width="2" />
<path d="M8095,18 L7955,424" stroke="blue" stroke-width="2" />
<path d="M5182,1190 L7803,1126" stroke="blue" stroke-width="2" />
<path d="M1790,38 L3700,50" stroke="blue" stroke-width="2" />
<path d="M5437,996 L5642,220" stroke="blue" stroke-width="2" />
<path d="M5969,557 L3148,1223" stroke="blue" stroke-width="2" />
<path d="M5564,1267 L1022,394" stroke="blue" stroke-width="2" />
<path d="M7333,236 L5256,554" stroke="blue" stroke-width="2" />
<path d="M683,1235 L795,730" stroke="blue" stroke-width="2" />
<path d="M1604,961 L4655,833" stroke="blue" stroke-width="2" />
<path d="M5242,328 L764,616" stroke="blue" stroke-width="2" />
<path d="M3063,1241 L513,442" stroke="blue" stroke-width="2" />
<path d="M3474,40 L5147,303" stroke="blue" stroke-width="2" />
<path d="M8015,1242 L8086,1190" stroke="blue" stroke-width="2" />
<path d="M7106,452 L7390,717" stroke="blue" stroke-width="2" />
<path d="M7187,993 L2327,476" stroke="blue" stroke-width="2" />
<path d="M6698,1129 L8447,235" stroke="blue" stroke-width="2" />
<path d="M1855,1073 L1623,601" stroke="blue" stroke-width="2" />
<path d="M4814,564 L4097,462" stroke="blue" stroke-width="2" />
<path d="M5617,149 L5173,1266" stroke="blue" stroke-width="2" />
<path d="M8557,1068 L6402,997" stroke="blue" stroke-width="2" />
<path d="M7947,570 L8013,821" stroke="blue" stroke-width="2" />
<path d="M643,35 L3309,427" stroke="blue" stroke-width="2" />
<path d="M3776,1205 L7332,333" stroke="blue" stroke-width="2" />
<path d="M5679,208 L617,922" stroke="blue" stroke-width="2" />
<path d="M6487,632 L4312,527" stroke="blue" stroke-width="2" />
<path d="M5452,733 L7005,797" stroke="blue" stroke-width="2" />
<path d="M8517,1041 L4660,180" stroke="blue" stroke-width="2" />
<path d="M4920,595 L7540,410" stroke="blue" stroke-width="2" />
<path d="M5556,797 L3614,640" stroke="blue" stroke-width="2" />
<path d="M6169,420 L2251,117" stroke="blue" stroke-width="2" />
<path d="M4790,1027 L3998,114" stroke="blue" stroke-width="2" />
<path d="M4089,723 L7739,1265" stroke="blue" stroke-width="2" />
<path d="M6895,123 L5717,1091" stroke="blue" stroke-width="2" />
<path d="M3228,522 L5482,534" stroke="blue" stroke-width="2" />
<path d="M7339,1193 L2608,99" stroke="blue" stroke-width="2" />
<path d="M2429,133 L1686,234" stroke="blue" stroke-width="2" />
<path d="M2017,1203 L6899,396" stroke="blue" stroke-width="2" />
<path d="M8827,613 L3547,675" stroke="blue" stroke-width="2" />
<path d="M5467,1136 L3144,1048" stroke="blue" stroke-width="2" />
<path d="M1551,1268 L3328,1250" stroke="blue" stroke-width="2" />
<path d="M7568,845 L622,279" stroke="blue" stroke-width="2" />
<path d="M5962,227 L8126,260" stroke="blue" stroke-width="2" />
<path d="M3016,36 L98,153" stroke="blue" stroke-width="2" />
<path d="M3944,157 L7282,45" stroke="blue" stroke-width="2" />
<path d="M2447,1184 L1233,819" stroke="blue" stroke-width="2" />
<path d="M5005,769 L153,650" stroke="blue" stroke-width="2" />
<path d="M8811,303 L1285,1176" stroke="blue" stroke-width="2" />
<path d="M3229,222 L4624,742" stroke="blue" stroke-width="2" />
<path d="M5153,1166 L2608,1107" stroke="blue" stroke-width="2" />
<path d="M3428,229 L2311,883" stroke="blue" stroke-width="2" />
<path d="M7247,1211 L2808,885" stroke="blue" stroke-width="2" />
<path d="M3435,551 L3747,1186" stroke="blue" stroke-width="2" />
<path d="M6513,440 L2921,1047" stroke="blue" stroke-width="2" />
<path d="M7881,1288 L7067,1278" stroke="blue" stroke-width="2" />
<path d="M2453,815 L6898,1273" stroke="blue" stroke-width="2" />
<path d="M242,383 L3036,646" stroke="blue" stroke-width="2" />
<path d="M5760,1121 L4093,1118" stroke="blue" stroke-width="2" />
<path d="M7265,724 L4524,845" stroke="blue" stroke-width="2" />
<path d="M3911,1161 L7902,907" stroke="blue" stroke-width="2" />
<path d="M4078,582 L5368,1078" stroke="blue" stroke-width="2" />
<path d="M6007,778 L3465,1190" stroke="blue" stroke-width="2" />
<path d="M7499,204 L2823,1304" stroke="blue" stroke-width="2" />
<path d="M7934,712 L3646,100" stroke="blue" stroke-width="2" />
<path d="M2144,502 L1657,701" stroke="blue" stroke-width="2" />
<path d="M5407,349 L249,993" stroke="blue" stroke-width="2" />
<path d="M6339,278 L2208,190" stroke="blue" stroke-width="2" />
<path d="M2870,475 L1479,79" stroke="blue" stroke-width="2" />
<path d="M8728,1214 L5522,46" stroke="blue" stroke-width="2" />
<path d="M7790,835 L2642,643" stroke="blue" stroke-width="2" />
<path d="M5938,700 L1792,293" stroke="blue" stroke-width="2" />
<path d="M3884,387 L8812,6" stroke="blue" stroke-width="2" />
<path d="M6983,794 L264,1051" stroke="blue" stroke-width="2" />
<path d="M165,349 L4407,95" stroke="blue" stroke-width="2" />
<path d="M7020,233 L6503,964" stroke="blue" stroke-width="2" />
<path d="M7439,415 L3733,481" stroke="blue" stroke-width="2" />
<path d="M788,579 L6446,344" stroke="blue" stroke-width="2" />
<path d="M5769,600 L8702,946" stroke="blue" stroke-width="2" />
<path d="M723,422 L305,852" stroke="blue" stroke-width="2" />
<path d="M8620,98 L6125,907" stroke="blue" stroke-width="2" />
<path d="M8475,154 L7195,1008" stroke="blue" stroke-width="2" />
<path d="M4989,1151 L847,264" stroke="blue" stroke-width="2" />
<path d="M6646,562 L1655,118" stroke="blue" stroke-width="2" />
<path d="M1770,1003 L556,356" stroke="blue" stroke-width="2" />
<path d="M72,364 L1703,17" stroke="blue" stroke-width="2" />
<path d="M4479,626 L106,686" stroke="blue" stroke-width="2" />
<path d="M2947,1183 L5244,1144" stroke="blue" stroke-width="2" />
<path d="M1147,1214 L1377,146" stroke="blue" stroke-width="2" />
<path d="M7654,636 L3738,318" stroke="blue" stroke-width="2" />
<path d="M704,849 L8910,1185" stroke="blue" stroke-width="2" />
<path d="M1431,320 L2782,598" stroke="blue" stroke-width="2" />
<path d="M8088,299 L5884,327" stroke="blue" stroke-width="2" />
<path d="M5998,436 L646,190" stroke="blue" stroke-width="2" />
<path d="M7667,699 L7078,983" stroke="blue" stroke-width="2" />
<path d="M2068,274 L4700,1298" stroke="blue" stroke-width="2" />
<path d="M8675,1128 L6753,1088" stroke="blue" stroke-width="2" />
<path d="M4907,250 L8815,618" stroke="blue" stroke-width="2" />
<path d="M2309,844 L1984,352" stroke="blue" stroke-width="2" />
<path d="M1932,1150 L5415,71" stroke="blue" stroke-width="2" />
<path d="M4087,1167 L424,325" stroke="blue" stroke-width="2" />
<path d="M253,802 L612,83" stroke="blue" stroke-width="2" />
<path d="M1591,486 L8860,444" stroke="blue" stroke-width="2" />
<path d="M6495,1100 L2859,1271" stroke="blue" stroke-width="2" />
<path d="M8809,503 L3243,223" stroke="blue" stroke-width="2" />
<path d="M1617,843 L1082,1199" stroke="blue" stroke-width="2" />
<path d="M1035,436 L2839,102" stroke="blue" stroke-width="2" />
<path d="M4432,431 L3839,21" stroke="blue" stroke-width="2" />
<path d="M988,964 L5140,1049" stroke="blue" stroke-width="2" />
<path d="M1275,683 L4426,373" stroke="blue" stroke-width="2" />
<path d="M4979,1204 L4441,181" stroke="blue" stroke-width="2" />
<path d="M7921,656 L4802,461" stroke="blue" stroke-width="2" />
<path d="M2386,1024 L2802,561" stroke="blue" stroke-width="2" />
<path d="M1804,395 L4250,1290" stroke="blue" stroke-width="2" />
<path d="M3723,498 L7576,1146" stroke="blue" stroke-width="2" />
<path d="M7467,267 L6873,48" stroke="blue" stroke-width="2" />
<path d="M8915,68 L7074,1143" stroke="blue" stroke-width="2" />
<path d="M536,607 L6144,970" stroke="blue" stroke-width="2" />
<path d="M5381,1036 L6672,627" stroke="blue" stroke-width="2" />
<path d="M1984,835 L5506,144" stroke="blue" stroke-width="2" />
<path d="M4578,652 L5970,902" stroke="blue" stroke-width="2" />
<path d="M2310,357 L671,192" stroke="blue" stroke-width="2" />
<path d="M8646,405 L2051,1147" stroke="blue" stroke-width="2" />
<path d="M3544,160 L8090,800" stroke="blue" stroke-width="2" />
<path d="M8541,497 L5725,72" stroke="blue" stroke-width="2" />
<path d="M4374,729 L1066,933" stroke="blue" stroke-width="2" />
<path d="M2518,656 L8051,342" stroke="blue" stroke-width="2" />
<path d="M4013,1022 L2965,197" stroke="blue" stroke-width="2" />
<path d="M1792,252 L604,945" stroke="blue" stroke-width="2" />
<path d="M5611,310 L5724,1182" stroke="blue" stroke-width="2" />
<path d="M1785,421 L5892,8" stroke="blue" stroke-width="2" />
<path d="M7329,1270 L5073,1174" stroke="blue" stroke-width="2" />
<path d="M1429,605 L2781,710" stroke="blue" stroke-width="2" />
<path d="M5628,1070 L505,116" stroke="blue" stroke-width="2" />
<path d="M2706,939 L2550,333" stroke="blue" stroke-width="2" />
<path d="M3914,845 L5815,207" stroke="blue" stroke-width="2" />
<path d="M931,208 L2919,179" stroke="blue" stroke-width="2" />
<path d="M268,753 L2014,722" stroke="blue" stroke-width="2" />
<path d="M942,633 L2894,332" stroke="blue" stroke-width="2" />
<path d="M1565,266 L275,1307" stroke="blue" stroke-width="2" />
<path d="M1263,751 L6580,113" stroke="blue" stroke-width="2" />
<path d="M2335,576 L3783,1281" stroke="blue" stroke-width="2" />
<path d="M5097,312 L4344,658" stroke="blue" stroke-width="2" />
<path d="M114,1059 L5489,383" stroke="blue" stroke-width="2" />
<path d="M7683,1155 L6975,251" stroke="blue" stroke-width="2" />
<path d="M8849,687 L8650,174" stroke="blue" stroke-width="2" />
<path d="M7907,211 L814,724" stroke="blue" stroke-width="2" />
<path d="M8298,129 L708,1126" stroke="blue" stroke-width="2" />
<path d="M976,678 L1545,962" stroke="blue" stroke-width="2" />
<path d="M2265,582 L5411,1243" stroke="blue" stroke-width="2" />
<path d="M3229,154 L2746,1093" stroke="blue" stroke-width="2" />
<path d="M2412,328 L8191,854" stroke="blue" stroke-width="2" />
<path d="M5560,766 L1813,907" stroke="blue" stroke-width="2" />
<path d="M3659,281 L4540,728" stroke="blue" stroke-width="2" />
<path d="M2826,153 L7418,842" stroke="blue" stroke-width="2" />
<path d="M8860,1086 L702,17" stroke="blue" stroke-width="2" />
<path d="M7638,438 L7346,332" stroke="blue" stroke-width="2" />
<path d="M7001,165 L8659,776" stroke="blue" stroke-width="2" />
<path d="M205,503 L8146,938" stroke="blue" stroke-width="2" />
<path d="M5408,966 L6757,748" stroke="blue" stroke-width="2" />
<path d="M208,146 L6506,1154" stroke="blue" stroke-width="2" />
<path d="M8221,1051 L8354,1106" stroke="blue" stroke-width="2" />
<path d="M898,357 L383,483" stroke="blue" stroke-width="2" />
<path d="M12,531 L2649,141" stroke="blue" stroke-width="2" />
<path d="M1338,287 L6194,883" stroke="blue" stroke-width="2" />
<path d="M8646,328 L5697,254" stroke="blue" stroke-width="2" />
<path d="M7165,918 L1700,209" stroke="blue" stroke-width="2" />
<path d="M3731,645 L8574,763" stroke="blue" stroke-width="2" />
<path d="M3542,574 L1761,1148" stroke="blue" stroke-width="2" />
<path d="M3739,187 L1732,693" stroke="blue" stroke-width="2" />
<path d="M1094,946 L4383,42" stroke="blue" stroke-width="2" />
<path d="M5456,1100 L7636,86" stroke="blue" stroke-width="2" />
<path d="M24,995 L593,663" stroke="blue" stroke-width="2" />
<path d="M4197,342 L5116,727" stroke="blue" stroke-width="2" />
<path d="M7274,300 L5652,1065" stroke="blue" stroke-width="2" />
<path d="M5985,1273 L2819,109" stroke="blue" stroke-width="2" />
<path d="M6081,1127 L4501,461" stroke="blue" stroke-width="2" />
<path d="M6339,1163 L2618,511" stroke="blue" stroke-width="2" />
<path d="M8861,453 L3423,1208" stroke="blue" stroke-width="2" />
<path d="M2428,786 L4292,155" stroke="blue" stroke-width="2" />
<path d="M8767,618 L8441,655" stroke="blue" stroke-width="2" />
<path d="M6398,322 L5816,995" stroke="blue" stroke-width="2" />
<path d="M5986,944 L1415,426" stroke="blue" stroke-width="2" />
<path d="M7319,826 L7829,1292" stroke="blue" stroke-width="2" />
<path d="M4813,571 L7350,391" stroke="blue" stroke-width="2" />
<path d="M7710,361 L3990,299" stroke="blue" stroke-width="2" />
<path d="M8022,393 L7007,1014" stroke="blue" stroke-width="2" />
<path d="M8851,114 L6736,751" stroke="blue" stroke-width="2" />
<path d="M2804,1061 L7371,305" stroke="blue" stroke-width="2" />
<path d="M3536,110 L2839,720" stroke="blue" stroke-width="2" />
<path d="M5661,378 L2772,1197" stroke="blue" stroke-width="2" />
<path d="M199,301 L6012,152" stroke="blue" stroke-width="2" />
<path d="M8562,900 L6455,770" stroke="blue" stroke-width="2" />
<path d="M3684,286 L5181,1142" stroke="blue" stroke-width="2" />
<path d="M445,465 L5958,116" stroke="blue" stroke-width="2" />
<path d="M1946,1214 L6637,1115" stroke="blue" stroke-width="2" />
<path d="M7438,1143 L2806,111" stroke="blue" stroke-width="2" />
<path d="M8759,279 L631,878" stroke="blue" stroke-width="2" />
<path d="M6479,698 L5318,615" stroke="blue" stroke-width="2" />
<path d="M5247,834 L5309,439" stroke="blue" stroke-width="2" />
<path d="M6022,620 L3607,261" stroke="blue" stroke-width="2" />
<path d="M7147,451 L8605,12" stroke="blue" stroke-width="2" />
<path d="M6651,1119 L3607,825" stroke="blue" stroke-width="2" />
<path d="M4973,223 L8298,1051" stroke="blue" stroke-width="2" />
<path d="M5150,1120 L7748,1289" stroke="blue" stroke-width="2" />
<path d="M204,137 L3601,105" stroke="blue" stroke-width="2" />
<path d="M3894,814 L3626,145" stroke="blue" stroke-width="2" />
<path d="M7198,145 L252,1039" stroke="blue" stroke-width="2" />
<path d="M169,844 L993,980" stroke="blue" stroke-width="2" />
<path d="M1021,630 L1706,106" stroke="blue" stroke-width="2" />
<path d="M3934,47 L2590,849" stroke="blue" stroke-width="2" />
<path d="M1848,793 L8087,830" stroke="blue" stroke-width="2" />
<path d="M6066,172 L3232,1157" stroke="blue" stroke-width="2" />
<path d="M2469,1096 L4296,808" stroke="blue" stroke-width="2" />
<path d="M2531,430 L5345,1036" stroke="blue" stroke-width="2" />
<path d="M7190,182 L3349,632" stroke="blue" stroke-width="2" />
<path d="M1460,1213 L6129,486" stroke="blue" stroke-width="2" />
<path d="M394,988 L8845,1187" stroke="blue" stroke-width="2" />
<path d="M2767,1041 L2469,651" stroke="blue" stroke-width="2" />
<path d="M6462,187 L8351,919" stroke="blue" stroke-width="2" />
<path d="M6223,617 L1487,368" stroke="blue" stroke-width="2" />
<path d="M5561,313 L785,1055" stroke="blue" stroke-width="2" />
<path d="M6793,1309 L6395,285" stroke="blue" stroke-width="2" />
<path d="M6938,969 L3006,1190" stroke="blue" stroke-width="2" />
<path d="M2516,396 L6459,381" stroke="blue" stroke-width="2" />
<path d="M4910,911 L7045,1237" stroke="blue" stroke-width="2" />
<path d="M2395,291 L6264,1174" stroke="blue" stroke-width="2" />
<path d="M7153,58 L1263,804" stroke="blue" stroke-width="2" />
<path d="M2076,462 L5301,1277" stroke="blue" stroke-width="2" />
<path d="M690,437 L2429,524" stroke="blue" stroke-width="2" />
<path d="M2194,599 L4066,151" stroke="blue" stroke-width="2" />
<path d="M2328,470 L695,894" stroke="blue" stroke-width="2" />
<path d="M3111,19 L709,522" stroke="blue" stroke-width="2" />
<path d="M5342,553 L2228,1003" stroke="blue" stroke-width="2" />
<path d="M4899,728 L4006,406" stroke="blue" stroke-width="2" />
<path d="M2617,995 L4197,1072" stroke="blue" stroke-width="2" />
<path d="M2107,531 L7591,1180" stroke="blue" stroke-width="2" />
<path d="M4501,847 L6601,471" stroke="blue" stroke-width="2" />
<path d="M5820,844 L2091,1261" stroke="blue" stroke-width="2" />
<path d="M4123,109 L8148,1194" stroke="blue" stroke-width="2" />
<path d="M5119,313 L2375,604" stroke="blue" stroke-width="2" />
<path d="M6862,962 L8310,947" stroke="blue" stroke-width="2" />
<path d="M1276,865 L1607,1290" stroke="blue" stroke-width="2" />
<path d="M2389,1304 L4870,712" stroke="blue" stroke-width="2" />
<path d="M7802,753 L248,358" stroke="blue" stroke-width="2" />
<path d="M3857,451 L7656,28" stroke="blue" stroke-width="2" />
<path d="M1843,231 L5842,1271" stroke="blue" stroke-width="2" />
<path d="M515,557 L4273,230" stroke="blue" stroke-width="2" />
<path d="M2907,18 L6789,700" stroke="blue" stroke-width="2" />
<path d="M3345,211 L7513,950" stroke="blue" stroke-width="2" />
<path d="M7888,70 L6309,752" stroke="blue" stroke-width="2" />
<path d="M4296,424 L8429,833" stroke="blue" stroke-width="2" />
<path d="M415,890 L3658,155" stroke="blue" stroke-width="2" />
<path d="M5250,127 L4282,205" stroke="blue" stroke-width="2" />
<path d="M993,1221 L4313,448" stroke="blue" stroke-width="2" />
<path d="M5243,12 L1401,106" stroke="blue" stroke-width="2" />
<path d="M884,354 L8628,779" stroke="blue" stroke-width="2" />
<path d="M3159,693 L4005,622" stroke="blue" stroke-width="2" />
<path d="M2786,239 L7180,892" stroke="blue" stroke-width="2" />
<path d="M6659,54 L4207,671" stroke="blue" stroke-width="2" />
<path d="M7432,707 L262,387" stroke="blue" stroke-width="2" />
<path d="M6170,958 L1900,1248" stroke="blue" stroke-width="2" />
<path d="M8593,18 L5463,662" stroke="blue" stroke-width="2" />
<path d="M3885,332 L674,907" stroke="blue" stroke-width="2" />
<path d="M7120,163 L8036,1289" stroke="blue" stroke-width="2" />
<path d="M2348,561 L6468,957" stroke="blue" stroke-width="2" />
<path d="M4267,667 L4821,525" stroke="blue" stroke-width="2" />
<path d="M6037,641 L8793,130" stroke="blue" stroke-width="2" />
<path d="M3156,896 L3753,674" stroke="blue" stroke-width="2" />
<path d="M8383,773 L6809,297" stroke="blue" stroke-width="2" />
<path d="M3904,686 L4262,543" stroke="blue" stroke-width="2" />
<path d="M6482,524 L6218,85" stroke="blue" stroke-width="2" />
<path d="M8523,890 L3111,146" stroke="blue" stroke-width="2" />
<path d="M7883,1285 L7511,903" stroke="blue" stroke-width="2" />
<path d="M2090,1178 L6641,668" stroke="blue" stroke-width="2" />
<path d="M8310,1016 L2186,313" stroke="blue" stroke-width="2" />
<path d="M4426,1120 L713,718" stroke="blue" stroke-width="2" />
<path d="M6571,970 L2454,282" stroke="blue" stroke-width="2" />
<path d="M3405,671 L1609,577" stroke="blue" stroke-width="2" />
<path d="M248,18 L324,264" stroke="blue" stroke-width="2" />
<path d="M735,844 L3839,49" stroke="blue" stroke-width="2" />
<path d="M4705,310 L7459,623" stroke="blue" stroke-width="2" />
<path d="M3437,533 L2019,1029" stroke="blue" stroke-width="2" />
<path d="M4512,294 L7238,879" stroke="blue" stroke-width="2" />
<path d="M6158,174 L531,936" stroke="blue" stroke-width="2" />
<path d="M6685,236 L1516,97" stroke="blue" stroke-width="2" />
<path d="M6285,880 L6020,859" stroke="blue" stroke-width="2" />
<path d="M6715,141 L850,570" stroke="blue" stroke-width="2" />
<path d="M3635,592 L1905,1005" stroke="blue" stroke-width="2" />
<path d="M5952,531 L1478,1115" stroke="blue" stroke-width="2" />
<path d="M3890,457 L1351,1295" stroke="blue" stroke-width="2" />
<path d="M4783,493 L7824,342" stroke="blue" stroke-width="2" />
<path d="M4074,1249 L787,305" stroke="blue" stroke-width="2" />
<path d="M6926,318 L5055,322" stroke="blue" stroke-width="2" />
<path d="M5424,831 L6133,699" stroke="blue" stroke-width="2" />
<path d="M7262,288 L5997,230" stroke="blue" stroke-width="2" />
<path d="M7865,726 L1131,1044" stroke="blue" stroke-width="2" />
<path d="M6380,44 L8659,370" stroke="blue" stroke-width="2" />
<path d="M4087,789 L3603,179" stroke="blue" stroke-width="2" />
<path d="M6805,1110 L1533,132" stroke="blue" stroke-width="2" />
<path d="M7423,877 L1264,535" stroke="blue" stroke-width="2" />
<path d="M7514,244 L5578,1012" stroke="blue" stroke-width="2" />
<path d="M3721,1117 L4636,1280" stroke="blue" stroke-width="2" />
<path d="M576,23 L6126,154" stroke="blue" stroke-width="2" />
<path d="M6248,951 L5660,34" stroke="blue" stroke-width="2" />
<path d="M7396,1066 L5635,761" stroke="blue" stroke-width="2" />
<path d="M3567,832 L3231,832" stroke="blue" stroke-width="2" />
<path d="M3909,490 L425,887" stroke="blue" stroke-width="2" />
<path d="M5003,551 L5311,695" stroke="blue" stroke-width="2" />
<path d="M6372,137 L8468,694" stroke="blue" stroke-width="2" />
<path d="M6503,534 L503,1236" stroke="blue" stroke-width="2" />
<path d="M6363,182 L5871,697" stroke="blue" stroke-width="2" />
<path d="M4400,676 L8772,165" stroke="blue" stroke-width="2" />
<path d="M7905,1206 L7913,96" stroke="blue" stroke-width="2" />
<path d="M8320,166 L4518,472" stroke="blue" stroke-width="2" />
<path d="M5093,326 L502,387" stroke="blue" stroke-width="2" />
<path d="M4122,1149 L6999,268" stroke="blue" stroke-width="2" />
<path d="M2927,479 L5399,496" stroke="blue" stroke-width="2" />
<path d="M6015,153 L6761,75" stroke="blue" stroke-width="2" />
<path d="M5125,524 L3994,939" stroke="blue" stroke-width="2" />
<path d="M1162,869 L1660,1310" stroke="blue" stroke-width="2" />
<path d="M4639,514 L4710,1162" stroke="blue" stroke-width="2" />
<path d="M7563,420 L5164,980" stroke="blue" stroke-width="2" />
<path d="M7768,1220 L5292,347" stroke="blue" stroke-width="2" />
<path d="M4393,960 L3494,321" stroke="blue" stroke-width="2" />
<path d="M3483,974 L8380,1113" stroke="blue" stroke-width="2" />
<path d="M4886,648 L6337,652" stroke="blue" stroke-width="2" />
<path d="M7907,277 L2022,850" stroke="blue" stroke-width="2" />
<path d="M6178,515 L566,1042" stroke="blue" stroke-width="2" />
<path d="M6839,1010 L6991,78" stroke="blue" stroke-width="2" />
<path d="M5923,597 L4297,990" stroke="blue" stroke-width="2" />
<path d="M3797,535 L4786,1140" stroke="blue" stroke-width="2" />
<path d="M3036,486 L6108,360" stroke="blue" stroke-width="2" />
<path d="M5751,768 L3783,631" stroke="blue" stroke-width="2" />
<path d="M3029,1166 L8537,1238" stroke="blue" stroke-width="2" />
<path d="M7494,456 L4807,632" stroke="blue" stroke-width="2" />
<path d="M4790,117 L4431,806" stroke="blue" stroke-width="2" />
<path d="M8575,1233 L8339,830" stroke="blue" stroke-width="2" />
<path d="M7754,85 L6854,488" stroke="blue" stroke-width="2" />
<path d="M5049,850 L8799,961" stroke="blue" stroke-width="2" />
<path d="M7240,936 L1719,511" stroke="blue" stroke-width="2" />
<path d="M4026,107 L1810,1092" stroke="blue" stroke-width="2" />
<path d="M3636,1176 L7470,1031" stroke="blue" stroke-width="2" />
<path d="M7774,20 L2546,411" stroke="blue" stroke-width="2" />
<path d="M4170,768 L5869,526" stroke="blue" stroke-width="2" />
<path d="M4241,103 L6806,326" stroke="blue" stroke-width="2" />
<path d="M8583,962 L8787,672" stroke="blue" stroke-width="2" />
<path d="M7200,870 L8109,386" stroke="blue" stroke-width="2" />
<path d="M3463,492 L2007,474" stroke="blue" stroke-width="2" />
<path d="M4258,716 L7437,1146" stroke="blue" stroke-width="2" />
<path d="M1398,184 L6634,215" stroke="blue" stroke-width="2" />
<path d="M117,616 L6480,1243" stroke="blue" stroke-width="2" />
<path d="M5697,197 L3623,554" stroke="blue" stroke-width="2" />
<path d="M7915,469 L2625,549" stroke="blue" stroke-width="2" />
<path d="M2440,510 L136,759" stroke="blue" stroke-width="2" />
<path d="M8379,938 L949,1072" stroke="blue" stroke-width="2" />
<path d="M1862,1193 L6592,849" stroke="blue" stroke-width="2" />
<path d="M7459,515 L7838,254" stroke="blue" stroke-width="2" />
<path d="M1333,779 L3975,616" stroke="blue" stroke-width="2" />
<path d="M842,472 L684,376" stroke="blue" stroke-width="2" />
<path d="M5174,940 L2772,320" stroke="blue" stroke-width="2" />
<path d="M3247,809 L8187,1045" stroke="blue" stroke-width="2" />
<path d="M721,1191 L6488,1259" stroke="blue" stroke-width="2" />
<path d="M1422,462 L4124,574" stroke="blue" stroke-width="2" />
<path d="M4789,111 L5633,752" stroke="blue" stroke-width="2" />
<path d="M7951,424 L4613,639" stroke="blue" stroke-width="2" />
<path d="M2673,645 L1643,112" stroke="blue" stroke-width="2" />
<path d="M5991,923 L2590,1043" stroke="blue" stroke-width="2" />
<path d="M8782,401 L2360,113" stroke="blue" stroke-width="2" />
<path d="M6907,1061 L3255,741" stroke="blue" stroke-width="2" />
<path d="M6054,1078 L670,976" stroke="blue" stroke-width="2" />
<path d="M4940,1068 L5296,1089" stroke="blue" stroke-width="2" />
<path d="M7699,1107 L8820,499" stroke="blue" stroke-width="2" />
<path d="M3138,295 L7672,127" stroke="blue" stroke-width="2" />
<path d="M3944,233 L5737,1231" stroke="blue" stroke-width="2" />
<path d="M3353,1006 L503,1125" stroke="blue" stroke-width="2" />
<path d="M2037,77 L5936,1089" stroke="blue" stroke-width="2" />
<path d="M6604,690 L1691,521" stroke="blue" stroke-width="2" />
<path d="M7543,1125 L7718,571" stroke="blue" stroke-width="2" />
<path d="M3453,1303 L5842,1287" stroke="blue" stroke-width="2" />
<path d="M7018,1287 L7480,305" stroke="blue" stroke-width="2" />
<path d="M5202,1249 L2310,1154" stroke="blue" stroke-width="2" />
<path d="M2591,442 L8419,900" stroke="blue" stroke-width="2" />
<path d="M2235,759 L1261,594" stroke="blue" stroke-width="2" />
<path d="M6853,864 L3495,1058" stroke="blue" stroke-width="2" />
<path d="M1693,770 L8329,1180" stroke="blue" stroke-width="2" />
<path d="M6883,343 L4740,22" stroke="blue" stroke-width="2" />
<path d="M153,28 L5925,1225" stroke="blue" stroke-width="2" />
<path d="M2348,312 L3677,336" stroke="blue" stroke-width="2" />
<path d="M2058,37 L2017,303" stroke="blue" stroke-width="2" />
<path d="M4243,172 L3536,1085" stroke="blue" stroke-width="2" />
<path d="M7946,399 L69,302" stroke="blue" stroke-width="2" />
<path d="M3284,203 L2345,520" stroke="blue" stroke-width="2" />
<path d="M6948,455 L3561,972" stroke="blue" stroke-width="2" />
<path d="M1778,1063 L310,1172" stroke="blue" stroke-width="2" />
<path d="M273,594 L1430,11" stroke="blue" stroke-width="2" />
<path d="M1304,993 L1512,1306" stroke="blue" stroke-width="2" />
<path d="M168,1047 L8493,0" stroke="blue" stroke-width="2" />
<path d="M6812,781 L7381,1304" stroke="blue" stroke-width="2" />
<path d="M3172,300 L5609,234" stroke="blue" stroke-width="2" />
<path d="M8736,632 L5269,646" stroke="blue" stroke-width="2" />
<path d="M3866,703 L4145,469" stroke="blue" stroke-width="2" />
<path d="M5682,906 L645,1043" stroke="blue" stroke-width="2" />
<path d="M7115,951 L7711,549" stroke="blue" stroke-width="2" />
<path d="M4818,119 L8816,778" stroke="blue" stroke-width="2" />
<path d="M1755,374 L6712,968" stroke="blue" stroke-width="2" />
<path d="M7725,679 L2299,1165" stroke="blue" stroke-width="2" />
<path d="M1587,766 L314,763" stroke="blue" stroke-width="2" />
<path d="M8643,272 L1523,155" stroke="blue" stroke-width="2" />
<path d="M5162,330 L8194,991" stroke="blue" stroke-width="2" />
<path d="M688,216 L2984,1226" stroke="blue" stroke-width="2" />
<path d="M1368,40 L4860,882" stroke="blue" stroke-width="2" />
<path d="M4878,1280 L395,621" stroke="blue" stroke-width="2" />
<path d="M7270,3 L2161,408" stroke="blue" stroke-width="2" />
<path d="M1270,136 L1744,1007" stroke="blue" stroke-width="2" />
<path d="M3938,1085 L6546,627" stroke="blue" stroke-width="2" />
<path d="M5012,354 L2878,437" stroke="blue" stroke-width="2" />
<path d="M8392,301 L3959,236" stroke="blue" stroke-width="2" />
<path d="M5055,608 L1380,206" stroke="blue" stroke-width="2" />
<path d="M1949,1059 L4894,135" stroke="blue" stroke-width="2" />
<path d="M8865,1022 L7732,1281" stroke="blue" stroke-width="2" />
<path d="M3362,172 L947,262" stroke="blue" stroke-width="2" />
<path d="M7183,354 L966,73" stroke="blue" stroke-width="2" />
<path d="M546,918 L3460,36" stroke="blue" stroke-width="2" />
<path d="M4846,176 L7246,1223" stroke="blue" stroke-width="2" />
<path d="M2461,650 L3595,1039" stroke="blue" stroke-width="2" />
<path d="M1263,1232 L8143,1202" stroke="blue" stroke-width="2" />
<path d="M2434,360 L6644,353" stroke="blue" stroke-width="2" />
<path d="M7568,257 L7759,1133" stroke="blue" stroke-width="2" />
<path d="M4599,141 L7085,1011" stroke="blue" stroke-width="2" />
<path d="M4640,1149 L4551,1168" stroke="blue" stroke-width="2" />
<path d="M2854,689 L1652,220" stroke="blue" stroke-width="2" />
<path d="M4901,687 L4474,377" stroke="blue" stroke-width="2" />
<path d="M2126,535 L2190,214" stroke="blue" stroke-width="2" />
<path d="M8840,761 L1089,1108" stroke="blue" stroke-width="2" />
<path d="M7972,255 L585,1279" stroke="blue" stroke-width="2" />
<path d="M5440,992 L6029,488" stroke="blue" stroke-width="2" />
<path d="M1898,270 L2056,649" stroke="blue" stroke-width="2" />
<path d="M2215,195 L2034,475" stroke="blue" stroke-width="2" />
<path d="M7147,17 L6393,435" stroke="blue" stroke-width="2" />
<path d="M3524,1238 L5074,260" stroke="blue" stroke-width="2" />
<path d="M334,164 L4000,630" stroke="blue" stroke-width="2" />
<path d="M6714,382 L1606,219" stroke="blue" stroke-width="2" />
<path d="M2309,460 L861,653" stroke="blue" stroke-width="2" />
<path d="M6359,1034 L8834,856" stroke="blue" stroke-width="2" />
<path d="M8578,134 L845,1171" stroke="blue" stroke-width="2" />
<path d="M4991,639 L1840,787" stroke="blue" stroke-width="2" />
<path d="M0,0 L8917,0" stroke="red" stroke-width="10" />
<path d="M8917,0 L8917,1311" stroke="red" stroke-width="10" />
<path d="M0,1311 L8917,1311" stroke="red" stroke-width="10" />
<path d="M0,1311 L0,0" stroke="red" stroke-width="10" />
</svg>