<?xml version="1.0" encoding="UTF-8"?>
<svg xmlns="http://www.w3.org/2000/svg" xmlns:xlink="http://www.w3.org/1999/xlink"
     width="10000" height="10000" viewBox="0 0 10000 10000">
<defs>
</defs>
<path d="M1446,945 L578,996" stroke="blue" stroke-width="2" />
<path d="M1386,878 L1620,747" stroke="blue" stroke-width="2" />
<path d="M348,289 L1573,741" stroke="blue" stroke-width="2" />
<path d="M1804,1069 L709,149" stroke="blue" stroke-width="2" />
<path d="M1189,882 L395,1088" stroke="blue" stroke-width="2" />
<path d="M816,988 L435,892" stroke="blue" stroke-width="2" />
<path d="M1460,1224 L1136,32" stroke="blue" stroke-width="2" />
<path d="M1558,1188 L976,608" stroke="blue" stroke-width="2" />
<path d="M567,899 L1773,1252" stroke="blue" stroke-width="2" />
<path d="M85,207 L1237,1190" stroke="blue" stroke-width="2" />
<path d="M1755,1276 L653,1079" stroke="blue" stroke-width="2" />
<path d="M383,1219 L737,85" stroke="blue" stroke-width="2" />
<path d="M1513,551 L699,299" stroke="blue" stroke-width="2" />
<path d="M1587,85 L138,1105" stroke="blue" stroke-width="2" />
<path d="M996,851 L1523,715" stroke="blue" stroke-width="2" />
<path d="M1613,1286 L915,1206" stroke="blue" stroke-width="2" />
<path d="M1863,544 L14,1228" stroke="blue" stroke-width="2" />
<path d="M39,435 L1757,886" stroke="blue" stroke-width="2" />
<path d="M1339,863 L633,867" stroke="blue" stroke-width="2" />
<path d="M1110,621 L547,427" stroke="blue" stroke-width="2" />
<path d="M1549,714 L1886,428" stroke="blue" stroke-width="2" />
<path d="M1157,366 L1417,1082" stroke="blue" stroke-width="2" />
<path d="M1896,1134 L1613,728" stroke="blue" stroke-width="2" />
<path d="M1168,581 L1991,792" stroke="blue" stroke-width="2" />
<path d="M1821,126 L482,858" stroke="blue" stroke-width="2" />
<path d="M1263,496 L204,822" stroke="blue" stroke-width="2" />
<path d="M1607,740 L1186,265" stroke="blue" stroke-width="2" />
<path d="M739,699 L1341,743" stroke="blue" stroke-width="2" />
<path d="M452,704 L611,568" stroke="blue" stroke-width="2" />
<path d="M1547,1172 L718,1260" stroke="blue" stroke-width="2" />
<path d="M647,1139 L876,41" stroke="blue" stroke-width="2" />
<path d="M1780,1140 L1586,1251" stroke="blue" stroke-width="2" />
<path d="M1821,34 L1864,470" stroke="blue" stroke-width="2" />
<path d="M1839,543 L1339,192" stroke="blue" stroke-width="2" />
<path d="M1559,1244 L355,16" stroke="blue" stroke-width="2" />
<path d="M1477,38 L1422,33" stroke="blue" stroke-width="2" />
<path d="M829,498 L1667,1058" stroke="blue" stroke-width="2" />
<path d="M487,400 L1162,21" stroke="blue" stroke-width="2" />
<path d="M1627,292 L1755,1122" stroke="blue" stroke-width="2" />
<path d="M1715,307 L996,770" stroke="blue" stroke-width="2" />
<path d="M1820,233 L465,62" stroke="blue" stroke-width="2" />
<path d="M848,100 L448,97" stroke="blue" stroke-width="2" />
<path d="M1925,1292 L1697,1241" stroke="blue" stroke-width="2" />
<path d="M1720,1185 L702,781" stroke="blue" stroke-width="2" />
<path d="M728,241 L1675,64" stroke="blue" stroke-width="2" />
<path d="M60,955 L1919,502" stroke="blue" stroke-width="2" />
<path d="M150,17 L814,1279" stroke="blue" stroke-width="2" />
<path d="M721,893 L194,601" stroke="blue" stroke-width="2" />
<path d="M1803,592 L1131,79" stroke="blue" stroke-width="2" />
<path d="M273,768 L81,1122" stroke="blue" stroke-width="2" />
<path d="M339,459 L771,892" stroke="blue" stroke-width="2" />
<path d="M265,241 L1449,605" stroke="blue" stroke-width="2" />
<path d="M1970,841 L1276,452" stroke="blue" stroke-width="2" />
<path d="M1622,81 L922,752" stroke="blue" stroke-width="2" />
<path d="M66,597 L915,567" stroke="blue" stroke-width="2" />
<path d="M1171,500 L1150,1147" stroke="blue" stroke-width="2" />
<path d="M1202,963 L1872,687" stroke="blue" stroke-width="2" />
<path d="M1454,965 L8,557" stroke="blue" stroke-width="2" />
<path d="M13,601 L1646,573" stroke="blue" stroke-width="2" />
<path d="M1577,519 L900,334" stroke="blue" stroke-width="2" />
<path d="M92,784 L891,1021" stroke="blue" stroke-width="2" />
<path d="M1137,527 L1025,570" stroke="blue" stroke-width="2" />
<path d="M256,122 L922,1190" stroke="blue" stroke-width="2" />
<path d="M1010,769 L1636,138" stroke="blue" stroke-width="2" />
<path d="M1536,185 L1606,230" stroke="blue" stroke-width="2" />
<path d="M1898,1265 L309,16" stroke="blue" stroke-width="2" />
<path d="M1652,1081 L1952,1080" stroke="blue" stroke-width="2" />
<path d="M1721,235 L424,292" stroke="blue" stroke-width="2" />
<path d="M1647,670 L1200,1145" stroke="blue" stroke-width="2" />
<path d="M105,77 L1781,662" stroke="blue" stroke-width="2" />
<path d="M892,933 L1575,1101" stroke="blue" stroke-width="2" />
<path d="M460,1025 L772,1142" stroke="blue" stroke-width="2" />
<path d="M1921,1129 L1017,1090" stroke="blue" stroke-width="2" />
<path d="M569,344 L269,654" stroke="blue" stroke-width="2" />
<path d="M827,989 L757,651" stroke="blue" stroke-width="2" />
<path d="M600,105 L144,656" stroke="blue" stroke-width="2" />
<path d="M1724,204 L30,1057" stroke="blue" stroke-width="2" />
<path d="M136,896 L102,1110" stroke="blue" stroke-width="2" />
<path d="M835,1065 L1070,62" stroke="blue" stroke-width="2" />
<path d="M1232,598 L418,453" stroke="blue" stroke-width="2" />
<path d="M1106,268 L838,1061" stroke="blue" stroke-width="2" />
<path d="M557,113 L998,603" stroke="blue" stroke-width="2" />
<path d="M1530,646 L1634,1015" stroke="blue" stroke-width="2" />
<path d="M1095,514 L1629,247" stroke="blue" stroke-width="2" />
<path d="M503,221 L786,618" stroke="blue" stroke-width="2" />
<path d="M1509,1012 L788,240" stroke="blue" stroke-width="2" />
<path d="M954,465 L267,908" stroke="blue" stroke-width="2" />
<path d="M1223,1021 L363,1276" stroke="blue" stroke-width="2" />
<path d="M30,692 L1560,656" stroke="blue" stroke-width="2" />
<path d="M1044,132 L479,710" stroke="blue" stroke-width="2" />
<path d="M339,935 L757,483" stroke="blue" stroke-width="2" />
<path d="M1711,932 L1399,1037" stroke="blue" stroke-width="2" />
<path d="M637,820 L1532,342" stroke="blue" stroke-width="2" />
<path d="M357,1260 L518,300" stroke="blue" stroke-width="2" />
<path d="M1797,224 L790,266" stroke="blue" stroke-width="2" />
<path d="M484,1154 L1737,603" stroke="blue" stroke-width="2" />
<path d="M1622,61 L1289,89" stroke="blue" stroke-width="2" />
<path d="M245,16 L1338,711" stroke="blue" stroke-width="2" />
<path d="M104,849 L2014,1032" stroke="blue" stroke-width="2" />
<path d="M786,282 L1823,689" stroke="blue" stroke-width="2" />
<path d="M526,908 L1112,1076" stroke="blue" stroke-width="2" />
<path d="M1737,1082 L1645,563" stroke="blue" stroke-width="2" />
<path d="M1831,617 L1747,293" stroke="blue" stroke-width="2" />
<path d="M1532,1123 L977,714" stroke="blue" stroke-width="2" />
<path d="M1717,629 L1724,1021" stroke="blue" stroke-width="2" />
<path d="M323,1289 L682,1149" stroke="blue" stroke-width="2" />
<path d="M1130,1021 L534,296" stroke="blue" stroke-width="2" />
<path d="M822,18 L1750,1177" stroke="blue" stroke-width="2" />
<path d="M2012,964 L1288,530" stroke="blue" stroke-width="2" />
<path d="M1482,706 L877,484" stroke="blue" stroke-width="2" />
<path d="M1472,484 L357,729" stroke="blue" stroke-width="2" />
<path d="M653,277 L1751,1255" stroke="blue" stroke-width="2" />
<path d="M993,295 L1717,357" stroke="blue" stroke-width="2" />
<path d="M467,636 L1691,262" stroke="blue" stroke-width="2" />
<path d="M1229,712 L1750,35" stroke="blue" stroke-width="2" />
<path d="M1062,1207 L618,370" stroke="blue" stroke-width="2" />
<path d="M1872,623 L1903,771" stroke="blue" stroke-width="2" />
<path d="M1494,857 L980,1031" stroke="blue" stroke-width="2" />
<path d="M983,528 L669,313" stroke="blue" stroke-width="2" />
<path d="M1255,760 L843,1068" stroke="blue" stroke-width="2" />
<path d="M1831,1145 L1895,1191" stroke="blue" stroke-width="2" />
<path d="M1517,830 L1687,385" stroke="blue" stroke-width="2" />
<path d="M1435,273 L1377,1105" stroke="blue" stroke-width="2" />
<path d="M1404,1020 L1560,847" stroke="blue" stroke-width="2" />
<path d="M338,588 L20,136" stroke="blue" stroke-width="2" />
<path d="M318,463 L1102,1178" stroke="blue" stroke-width="2" />
<path d="M1405,1278 L1538,438" stroke="blue" stroke-width="2" />
<path d="M1995,93 L1212,1072" stroke="blue" stroke-width="2" />
<path d="M167,937 L829,9" stroke="blue" stroke-width="2" />
<path d="M1264,568 L416,793" stroke="blue" stroke-width="2" />
<path d="M263,274 L1088,103" stroke="blue" stroke-width="2" />
<path d="M32,10 L592,300" stroke="blue" stroke-width="2" />
<path d="M1578,1003 L1831,1195" stroke="blue" stroke-width="2" />
<path d="M627,347 L1459,1058" stroke="blue" stroke-width="2" />
<path d="M1013,1199 L1254,1087" stroke="blue" stroke-width="2" />
<path d="M104,506 L1798,442" stroke="blue" stroke-width="2" />
<path d="M1602,576 L505,688" stroke="blue" stroke-width="2" />
<path d="M1271,1090 L45,612" stroke="blue" stroke-width="2" />
<path d="M378,274 L1744,1060" stroke="blue" stroke-width="2" />
<path d="M9,279 L407,1280" stroke="blue" stroke-width="2" />
<path d="M747,326 L1329,1163" stroke="blue" stroke-width="2" />
<path d="M178,193 L281,252" stroke="blue" stroke-width="2" />
<path d="M367,286 L1289,1260" stroke="blue" stroke-width="2" />
<path d="M157,170 L890,1071" stroke="blue" stroke-width="2" />
<path d="M198,1048 L1489,169" stroke="blue" stroke-width="2" />
<path d="M71,964 L1803,884" stroke="blue" stroke-width="2" />
<path d="M112,1099 L1445,548" stroke="blue" stroke-width="2" />
<path d="M409,769 L723,1204" stroke="blue" stroke-width="2" />
<path d="M477,445 L1622,479" stroke="blue" stroke-width="2" />
<path d="M2003,70 L1863,805" stroke="blue" stroke-width="2" />
<path d="M1714,250 L825,441" stroke="blue" stroke-width="2" />
<path d="M1923,675 L1439,853" stroke="blue" stroke-width="2" />
<path d="M99,310 L1039,1050" stroke="blue" stroke-width="2" />
<path d="M1205,1011 L695,868" stroke="blue" stroke-width="2" />
<path d="M1419,426 L1351,1260" stroke="blue" stroke-width="2" />
<path d="M862,277 L1865,18" stroke="blue" stroke-width="2" />
<path d="M589,257 L1004,63" stroke="blue" stroke-width="2" />
<path d="M1628,1204 L1158,544" stroke="blue" stroke-width="2" />
<path d="M726,879 L1681,779" stroke="blue" stroke-width="2" />
<path d="M1848,1266 L1970,229" stroke="blue" stroke-width="2" />
<path d="M935,344 L1663,838" stroke="blue" stroke-width="2" />
<path d="M1226,449 L1059,153" stroke="blue" stroke-width="2" />
<path d="M511,480 L531,943" stroke="blue" stroke-width="2" />
<path d="M962,753 L1646,248" stroke="blue" stroke-width="2" />
<path d="M1362,1256 L305,986" stroke="blue" stroke-width="2" />
<path d="M1917,56 L385,956" stroke="blue" stroke-width="2" />
<path d="M894,429 L199,1225" stroke="blue" stroke-width="2" />
<path d="M229,247 L1034,390" stroke="blue" stroke-width="2" />
<path d="M2004,701 L377,909" stroke="blue" stroke-width="2" />
<path d="M779,1173 L1496,733" stroke="blue" stroke-width="2" />
<path d="M472,5 L1630,844" stroke="blue" stroke-width="2" />
<path d="M1331,911 L1138,707" stroke="blue" stroke-width="2" />
<path d="M1654,1166 L115,835" stroke="blue" stroke-width="2" />
<path d="M733,601 L779,681" stroke="blue" stroke-width="2" />
<path d="M303,782 L392,455" stroke="blue" stroke-width="2" />
<path d="M422,1172 L822,327" stroke="blue" stroke-width="2" />
<path d="M409,40 L1996,1108" stroke="blue" stroke-width="2" />
<path d="M1741,1073 L539,1153" stroke="blue" stroke-width="2" />
<path d="M644,411 L1467,579" stroke="blue" stroke-width="2" />
<path d="M1723,624 L1929,69" stroke="blue" stroke-width="2" />
<path d="M83,360 L600,1218" stroke="blue" stroke-width="2" />
<path d="M1349,1286 L1420,686" stroke="blue" stroke-width="2" />
<path d="M387,1110 L1661,1198" stroke="blue" stroke-width="2" />
<path d="M48,707 L1465,411" stroke="blue" stroke-width="2" />
<path d="M1211,392 L1591,221" stroke="blue" stroke-width="2" />
<path d="M825,144 L1732,342" stroke="blue" stroke-width="2" />
<path d="M1855,1013 L910,194" stroke="blue" stroke-width="2" />
<path d="M1052,30 L1702,705" stroke="blue" stroke-width="2" />
<path d="M1905,935 L1973,318" stroke="blue" stroke-width="2" />
<path d="M942,1150 L1588,388" stroke="blue" stroke-width="2" />
<path d="M770,917 L1436,884" stroke="blue" stroke-width="2" />
<path d="M777,785 L129,719" stroke="blue" stroke-width="2" />
<path d="M261,1246 L1052,719" stroke="blue" stroke-width="2" />
<path d="M158,662 L297,836" stroke="blue" stroke-width="2" />
<path d="M1660,127 L247,1049" stroke="blue" stroke-width="2" />
<path d="M2017,12 L944,954" stroke="blue" stroke-width="2" />
<path d="M709,806 L1632,881" stroke="blue" stroke-width="2" />
<path d="M225,1045 L247,33" stroke="blue" stroke-width="2" />
<path d="M340,811 L1048,981" stroke="blue" stroke-width="2" />
<path d="M1480,1276 L982,417" stroke="blue" stroke-width="2" />
<path d="M960,582 L290,1262" stroke="blue" stroke-width="2" />
<path d="M858,550 L129,1018" stroke="blue" stroke-width="2" />
<path d="M1064,345 L1553,546" stroke="blue" stroke-width="2" />
<path d="M674,385 L489,213" stroke="blue" stroke-width="2" />
<path d="M1085,979 L1606,112" stroke="blue" stroke-width="2" />
<path d="M1936,579 L1566,926" stroke="blue" stroke-width="2" />
<path d="M853,80 L876,1091" stroke="blue" stroke-width="2" />
<path d="M779,1067 L196,670" stroke="blue" stroke-width="2" />
<path d="M198,787 L2007,86" stroke="blue" stroke-width="2" />
<path d="M1250,1080 L1635,512" stroke="blue" stroke-width="2" />
<path d="M825,552 L1040,797" stroke="blue" stroke-width="2" />
<path d="M1855,734 L1356,22" stroke="blue" stroke-width="2" />
<path d="M608,660 L1288,235" stroke="blue" stroke-width="2" />
<path d="M1138,144 L1010,390" stroke="blue" stroke-width="2" />
<path d="M1846,579 L1357,984" stroke="blue" stroke-width="2" />
<path d="M1049,613 L205,123" stroke="blue" stroke-width="2" />
<path d="M780,1166 L859,845" stroke="blue" stroke-width="2" />
<path d="M1888,51 L160,634" stroke="blue" stroke-width="2" />
<path d="M1238,690 L261,699" stroke="blue" stroke-width="2" />
<path d="M1585,368 L1168,172" stroke="blue" stroke-width="2" />
<path d="M1358,1042 L487,209" stroke="blue" stroke-width="2" />
<path d="M445,53 L141,983" stroke="blue" stroke-width="2" />
<path d="M1569,524 L1727,1158" stroke="blue" stroke-width="2" />
<path d="M79,1171 L1187,876" stroke="blue" stroke-width="2" />
<path d="M1532,126 L505,249" stroke="blue" stroke-width="2" />
<path d="M1822,522 L579,43" stroke="blue" stroke-width="2" />
<path d="M1761,1282 L956,902" stroke="blue" stroke-width="2" />
<path d="M1381,741 L770,32" stroke="blue" stroke-width="2" />
<path d="M1144,583 L1875,438" stroke="blue" stroke-width="2" />
<path d="M1618,746 L1549,1093" stroke="blue" stroke-width="2" />
<path d="M1413,1173 L1208,1233" stroke="blue" stroke-width="2" />
<path d="M506,881 L859,233" stroke="blue" stroke-width="2" />
<path d="M1760,678 L378,1008" stroke="blue" stroke-width="2" />
<path d="M969,1039 L657,137" stroke="blue" stroke-width="2" />
<path d="M1410,329 L1482,474" stroke="blue" stroke-width="2" />
<path d="M847,1200 L1180,1126" stroke="blue" stroke-width="2" />
<path d="M1644,861 L1454,166" stroke="blue" stroke-width="2" />
<path d="M345,495 L646,416" stroke="blue" stroke-width="2" />
<path d="M1952,1180 L1834,18" stroke="blue" stroke-width="2" />
<path d="M966,493 L294,1103" stroke="blue" stroke-width="2" />
<path d="M646,626 L1146,676" stroke="blue" stroke-width="2" />
<path d="M1376,696 L1535,28" stroke="blue" stroke-width="2" />
<path d="M1844,898 L590,966" stroke="blue" stroke-width="2" />
<path d="M1578,128 L456,691" stroke="blue" stroke-width="2" />
<path d="M496,73 L967,79" stroke="blue" stroke-width="2" />
<path d="M1722,478 L1310,1016" stroke="blue" stroke-width="2" />
<path d="M187,1241 L1759,721" stroke="blue" stroke-width="2" />
<path d="M1697,1227 L1970,726" stroke="blue" stroke-width="2" />
<path d="M1269,651 L131,483" stroke="blue" stroke-width="2" />
<path d="M1241,635 L346,803" stroke="blue" stroke-width="2" />
<path d="M961,626 L1586,741" stroke="blue" stroke-width="2" />
<path d="M1783,340 L1949,578" stroke="blue" stroke-width="2" />
<path d="M908,667 L1666,497" stroke="blue" stroke-width="2" />
<path d="M194,617 L1664,1251" stroke="blue" stroke-width="2" />
<path d="M405,1227 L1536,183" stroke="blue" stroke-width="2" />
<path d="M818,922 L811,1187" stroke="blue" stroke-width="2" />
<path d="M1580,1233 L1679,372" stroke="blue" stroke-width="2" />
<path d="M1532,184 L169,694" stroke="blue" stroke-width="2" />
<path d="M1103,763 L596,1132" stroke="blue" stroke-width="2" />
<path d="M1688,881 L267,475" stroke="blue" stroke-width="2" />
<path d="M1635,23 L1881,822" stroke="blue" stroke-width="2" />
<path d="M1221,1054 L1142,713" stroke="blue" stroke-width="2" />
<path d="M1473,1010 L259,1255" stroke="blue" stroke-width="2" />
<path d="M539,983 L494,473" stroke="blue" stroke-width="2" />
<path d="M741,402 L181,570" stroke="blue" stroke-width="2" />
<path d="M415,925 L930,92" stroke="blue" stroke-width="2" />
<path d="M856,637 L893,1205" stroke="blue" stroke-width="2" />
<path d="M1543,313 L750,577" stroke="blue" stroke-width="2" />
<path d="M437,1245 L1057,605" stroke="blue" stroke-width="2" />
<path d="M125,433 L756,133" stroke="blue" stroke-width="2" />
<path d="M1410,167 L290,164" stroke="blue" stroke-width="2" />
<path d="M1136,104 L1766,1110" stroke="blue" stroke-width="2" />
<path d="M1756,501 L1587,107" stroke="blue" stroke-width="2" />
<path d="M1948,35 L1696,1216" stroke="blue" stroke-width="2" />
<path d="M379,95 L184,366" stroke="blue" stroke-width="2" />
<path d="M216,458 L1251,466" stroke="blue" stroke-width="2" />
<path d="M1149,793 L713,225" stroke="blue" stroke-width="2" />
<path d="M439,1104 L538,871" stroke="blue" stroke-width="2" />
<path d="M377,533 L1808,853" stroke="blue" stroke-width="2" />
<path d="M71,1158 L195,1098" stroke="blue" stroke-width="2" />
<path d="M33,916 L1825,1054" stroke="blue" stroke-width="2" />
<path d="M80,1096 L1164,827" stroke="blue" stroke-width="2" />
<path d="M749,993 L1781,1226" stroke="blue" stroke-width="2" />
<path d="M1960,686 L1627,646" stroke="blue" stroke-width="2" />
<path d="M1231,1180 L1389,185" stroke="blue" stroke-width="2" />
<path d="M732,1108 L1013,1094" stroke="blue" stroke-width="2" />
<path d="M1072,1144 L1692,427" stroke="blue" stroke-width="2" />
<path d="M1732,874 L21,62" stroke="blue" stroke-width="2" />
<path d="M1561,574 L1547,753" stroke="blue" stroke-width="2" />
<path d="M1715,1013 L1892,1232" stroke="blue" stroke-width="2" />
<path d="M1889,868 L913,1189" stroke="blue" stroke-width="2" />
<path d="M534,946 L1880,865" stroke="blue" stroke-width="2" />
<path d="M186,252 L464,1040" stroke="blue" stroke-width="2" />
<path d="M92,86 L974,1021" stroke="blue" stroke-width="2" />
<path d="M1138,368 L1700,368" stroke="blue" stroke-width="2" />
<path d="M519,791 L739,1117" stroke="blue" stroke-width="2" />
<path d="M1745,650 L714,554" stroke="blue" stroke-width="2" />
<path d="M1985,91 L541,239" stroke="blue" stroke-width="2" />
<path d="M686,839 L887,1039" stroke="blue" stroke-width="2" />
<path d="M1411,1175 L868,1091" stroke="blue" stroke-width="2" />
<path d="M1176,763 L1510,1153" stroke="blue" stroke-width="2" />
<path d="M339,630 L1032,218" stroke="blue" stroke-width="2" />
<path d="M1354,1213 L1378,863" stroke="blue" stroke-width="2" />
<path d="M1782,578 L863,510" stroke="blue" stroke-width="2" />
<path d="M508,366 L1913,1156" stroke="blue" stroke-width="2" />
<path d="M142,698 L981,719" stroke="blue" stroke-width="2" />
<path d="M1240,858 L1547,926" stroke="blue" stroke-width="2" />
<path d="M364,303 L1382,491" stroke="blue" stroke-width="2" />
<path d="M1197,754 L491,645" stroke="blue" stroke-width="2" />
<path d="M1298,1067 L1906,524" stroke="blue" stroke-width="2" />
<path d="M512,807 L291,1015" stroke="blue" stroke-width="2" />
<path d="M1011,388 L1029,1269" stroke="blue" stroke-width="2" />
<path d="M441,1124 L1493,1058" stroke="blue" stroke-width="2" />
<path d="M682,438 L1752,259" stroke="blue" stroke-width="2" />
<path d="M1210,914 L809,529" stroke="blue" stroke-width="2" />
<path d="M1489,890 L496,989" stroke="blue" stroke-width="2" />
<path d="M849,643 L290,1051" stroke="blue" stroke-width="2" />
<path d="M159,274 L789,108" stroke="blue" stroke-width="2" />
<path d="M161,1065 L939,822" stroke="blue" stroke-width="2" />
<path d="M380,98 L1546,169" stroke="blue" stroke-width="2" />
<path d="M1524,1169 L1867,903" stroke="blue" stroke-width="2" />
<path d="M1996,730 L206,473" stroke="blue" stroke-width="2" />
<path d="M1975,140 L935,718" stroke="blue" stroke-width="2" />
<path d="M549,942 L564,62" stroke="blue" stroke-width="2" />
<path d="M1959,515 L1723,340" stroke="blue" stroke-width="2" />
<path d="M1210,918 L991,48" stroke="blue" stroke-width="2" />
<path d="M545,1103 L1325,246" stroke="blue" stroke-width="2" />
<path d="M959,208 L615,1130" stroke="blue" stroke-width="2" />
<path d="M1381,941 L1761,741" stroke="blue" stroke-width="2" />
<path d="M463,947 L637,354" stroke="blue" stroke-width="2" />
<path d="M118,1165 L478,1178" stroke="blue" stroke-width="2" />
<path d="M924,284 L353,858" stroke="blue" stroke-width="2" />
<path d="M715,399 L784,19" stroke="blue" stroke-width="2" />
<path d="M1504,778 L1968,582" stroke="blue" stroke-width="2" />
<path d="M744,1000 L1630,1075" stroke="blue" stroke-width="2" />
<path d="M1246,507 L515,736" stroke="blue" stroke-width="2" />
<path d="M894,1134 L491,311" stroke="blue" stroke-width="2" />
<path d="M1761,83 L713,804" stroke="blue" stroke-width="2" />
<path d="M3,652 L14,715" stroke="blue" stroke-width="2" />
<path d="M1190,1113 L1195,981" stroke="blue" stroke-width="2" />
<path d="M1296,496 L618,218" stroke="blue" stroke-width="2" />
<path d="M1179,1012 L1549,984" stroke="blue" stroke-width="2" />
<path d="M473,86 L1224,270" stroke="blue" stroke-width="2" />
<path d="M1734,1266 L1156,183" stroke="blue" stroke-width="2" />
<path d="M725,759 L1266,352" stroke="blue" stroke-width="2" />
<path d="M1624,539 L410,1213" stroke="blue" stroke-width="2" />
<path d="M133,544 L859,743" stroke="blue" stroke-width="2" />
<path d="M1396,121 L858,1197" stroke="blue" stroke-width="2" />
<path d="M157,571 L1621,1172" stroke="blue" stroke-width="2" />
<path d="M428,491 L668,307" stroke="blue" stroke-width="2" />
<path d="M429,453 L1910,76" stroke="blue" stroke-width="2" />
<path d="M1110,544 L554,539" stroke="blue" stroke-width="2" />
<path d="M1823,1282 L703,1267" stroke="blue" stroke-width="2" />
<path d="M698,303 L1357,103" stroke="blue" stroke-width="2" />
<path d="M1632,340 L779,716" stroke="blue" stroke-width="2" />
<path d="M1078,917 L1034,289" stroke="blue" stroke-width="2" />
<path d="M94,463 L804,884" stroke="blue" stroke-width="2" />
<path d="M447,719 L736,1085" stroke="blue" stroke-width="2" />
<path d="M1282,464 L1568,435" stroke="blue" stroke-width="2" />
<path d="M614,1027 L378,25" stroke="blue" stroke-width="2" />
<path d="M1232,1199 L91,1173" stroke="blue" stroke-width="2" />
<path d="M1149,1182 L908,1024" stroke="blue" stroke-width="2" />
<path d="M1630,1222 L168,118" stroke="blue" stroke-width="2" />
<path d="M1187,1294 L306,235" stroke="blue" stroke-width="2" />
<path d="M583,777 L548,452" stroke="blue" stroke-width="2" />
<path d="M878,382 L1650,635" stroke="blue" stroke-width="2" />
<path d="M1815,1198 L1922,1003" stroke="blue" stroke-width="2" />
<path d="M344,870 L688,743" stroke="blue" stroke-width="2" />
<path d="M1813,976 L1150,103" stroke="blue" stroke-width="2" />
<path d="M567,554 L1950,675" stroke="blue" stroke-width="2" />
<path d="M2014,440 L457,561" stroke="blue" stroke-width="2" />
<path d="M654,41 L792,960" stroke="blue" stroke-width="2" />
<path d="M813,859 L1639,1260" stroke="blue" stroke-width="2" />
<path d="M417,17 L1447,1118" stroke="blue" stroke-width="2" />
<path d="M961,133 L996,1182" stroke="blue" stroke-width="2" />
<path d="M1878,1134 L1995,604" stroke="blue" stroke-width="2" />
<path d="M695,36 L43,441" stroke="blue" stroke-width="2" />
<path d="M238,479 L1395,27" stroke="blue" stroke-width="2" />
<path d="M1568,25 L1142,53" stroke="blue" stroke-width="2" />
<path d="M479,257 L1973,845" stroke="blue" stroke-width="2" />
<path d="M74,143 L276,275" stroke="blue" stroke-width="2" />
<path d="M1272,548 L585,317" stroke="blue" stroke-width="2" />
<path d="M266,93 L1126,101" stroke="blue" stroke-width="2" />
<path d="M1987,595 L888,734" stroke="blue" stroke-width="2" />
<path d="M302,784 L552,428" stroke="blue" stroke-width="2" />
<path d="M1189,10 L715,472" stroke="blue" stroke-width="2" />
<path d="M21,154 L1815,859" stroke="blue" stroke-width="2" />
<path d="M1933,14 L1776,616" stroke="blue" stroke-width="2" />
<path d="M225,241 L925,706" stroke="blue" stroke-width="2" />
<path d="M347,60 L1460,939" stroke="blue" stroke-width="2" />
<path d="M461,164 L124,192" stroke="blue" stroke-width="2" />
<path d="M1683,1013 L679,632" stroke="blue" stroke-width="2" />
<path d="M203,822 L589,1023" stroke="blue" stroke-width="2" />
<path d="M1946,918 L937,811" stroke="blue" stroke-width="2" />
<path d="M159,76 L947,223" stroke="blue" stroke-width="2" />
<path d="M966,416 L1485,704" stroke="blue" stroke-width="2" />
<path d="M1969,948 L158,743" stroke="blue" stroke-width="2" />
<path d="M271,62 L359,408" stroke="blue" stroke-width="2" />
<path d="M1235,1023 L1970,632" stroke="blue" stroke-width="2" />
<path d="M24,284 L764,514" stroke="blue" stroke-width="2" />
<path d="M792,972 L320,433" stroke="blue" stroke-width="2" />
<path d="M884,837 L1772,792" stroke="blue" stroke-width="2" />
<path d="M850,740 L1596,1168" stroke="blue" stroke-width="2" />
<path d="M2011,45 L1705,1125" stroke="blue" stroke-width="2" />
<path d="M1045,1005 L1850,269" stroke="blue" stroke-width="2" />
<path d="M1739,112 L115,875" stroke="blue" stroke-width="2" />
<path d="M1729,356 L1267,59" stroke="blue" stroke-width="2" />
<path d="M946,714 L1263,514" stroke="blue" stroke-width="2" />
<path d="M1707,1166 L1437,234" stroke="blue" stroke-width="2" />
<path d="M2017,749 L1167,218" stroke="blue" stroke-width="2" />
<path d="M1473,1159 L707,863" stroke="blue" stroke-width="2" />
<path d="M1882,281 L916,1155" stroke="blue" stroke-width="2" />
<path d="M1682,930 L295,955" stroke="blue" stroke-width="2" />
<path d="M290,1133 L34,589" stroke="blue" stroke-width="2" />
<path d="M360,173 L805,683" stroke="blue" stroke-width="2" />
<path d="M802,648 L563,505" stroke="blue" stroke-width="2" />
<path d="M2010,414 L1217,1016" stroke="blue" stroke-width="2" />
<path d="M1097,1110 L688,451" stroke="blue" stroke-width="2" />
<path d="M186,1115 L1343,322" stroke="blue" stroke-width="2" />
<path d="M736,369 L1250,933" stroke="blue" stroke-width="2" />
<path d="M880,1067 L669,1233" stroke="blue" stroke-width="2" />
<path d="M988,965 L945,102" stroke="blue" stroke-width="2" />
<path d="M1484,715 L1765,532" stroke="blue" stroke-width="2" />
<path d="M745,965 L1543,1168" stroke="blue" stroke-width="2" />
<path d="M1614,147 L76,268" stroke="blue" stroke-width="2" />
<path d="M547,71 L1905,398" stroke="blue" stroke-width="2" />
<path d="M604,593 L741,423" stroke="blue" stroke-width="2" />
<path d="M1084,71 L1046,769" stroke="blue" stroke-width="2" />
<path d="M219,454 L830,292" stroke="blue" stroke-width="2" />
<path d="M1486,943 L1362,731" stroke="blue" stroke-width="2" />
<path d="M1468,111 L1458,624" stroke="blue" stroke-width="2" />
<path d="M1850,16 L845,1166" stroke="blue" stroke-width="2" />
<path d="M1659,213 L1846,1262" stroke="blue" stroke-width="2" />
<path d="M1884,1205 L1733,644" stroke="blue" stroke-width="2" />
<path d="M1769,322 L1446,242" stroke="blue" stroke-width="2" />
<path d="M1658,1149 L0,1269" stroke="blue" stroke-width="2" />
<path d="M1368,674 L1663,481" stroke="blue" stroke-width="2" />
<path d="M266,214 L1455,1231" stroke="blue" stroke-width="2" />
<path d="M953,403 L1530,129" stroke="blue" stroke-width="2" />
<path d="M1904,1078 L1239,846" stroke="blue" stroke-width="2" />
<path d="M45,848 L1387,1053" stroke="blue" stroke-width="2" />
<path d="M1891,67 L942,249" stroke="blue" stroke-width="2" />
<path d="M1527,1274 L1004,537" stroke="blue" stroke-width="2" />
<path d="M1315,233 L1470,1231" stroke="blue" stroke-width="2" />
<path d="M1324,538 L223,354" stroke="blue" stroke-width="2" />
<path d="M182,464 L651,235" stroke="blue" stroke-width="2" />
<path d="M406,173 L1884,132" stroke="blue" stroke-width="2" />
<path d="M318,486 L905,1198" stroke="blue" stroke-width="2" />
<path d="M135,1130 L1553,652" stroke="blue" stroke-width="2" />
<path d="M1660,637 L278,60" stroke="blue" stroke-width="2" />
<path d="M1058,873 L1890,1040" stroke="blue" stroke-width="2" />
<path d="M317,155 L1090,1278" stroke="blue" stroke-width="2" />
<path d="M1773,265 L2002,1207" stroke="blue" stroke-width="2" />
<path d="M190,1290 L1905,798" stroke="blue" stroke-width="2" />
<path d="M1703,630 L996,526" stroke="blue" stroke-width="2" />
<path d="M1341,71 L1762,464" stroke="blue" stroke-width="2" />
<path d="M574,861 L568,414" stroke="blue" stroke-width="2" />
<path d="M10,41 L424,951" stroke="blue" stroke-width="2" />
<path d="M1468,145 L1593,650" stroke="blue" stroke-width="2" />
<path d="M493,1082 L320,1160" stroke="blue" stroke-width="2" />
<path d="M1759,750 L1322,1239" stroke="blue" stroke-width="2" />
<path d="M405,274 L987,272" stroke="blue" stroke-width="2" />
<path d="M1684,629 L55,1161" stroke="blue" stroke-width="2" />
<path d="M477,689 L534,992" stroke="blue" stroke-width="2" />
<path d="M671,628 L1983,1245" stroke="blue" stroke-width="2" />
<path d="M902,220 L2009,652" stroke="blue" stroke-width="2" />
<path d="M1487,476 L982,1055" stroke="blue" stroke-width="2" />
<path d="M1600,162 L1217,836" stroke="blue" stroke-width="2" />
<path d="M933,537 L913,1286" stroke="blue" stroke-width="2" />
<path d="M229,1084 L1246,176" stroke="blue" stroke-width="2" />
<path d="M101,640 L69,366" stroke="blue" stroke-width="2" />
<path d="M1814,1186 L1762,761" stroke="blue" stroke-width="2" />
<path d="M1829,640 L1743,743" stroke="blue" stroke-width="2" />
<path d="M1629,1167 L1409,1266" stroke="blue" stroke-width="2" />
<path d="M742,738 L677,746" stroke="blue" stroke-width="2" />
<path d="M779,646 L1892,258" stroke="blue" stroke-width="2" />
<path d="M1170,548 L1006,55" stroke="blue" stroke-width="2" />
<path d="M1295,557 L1317,997" stroke="blue" stroke-width="2" />
<path d="M72,186 L411,336" stroke="blue" stroke-width="2" />
<path d="M138,1007 L1928,681" stroke="blue" stroke-width="2" />
<path d="M1939,1005 L1999,495" stroke="blue" stroke-width="2" />
<path d="M1920,53 L34,856" stroke="blue" stroke-width="2" />
<path d="M1432,244 L66,1112" stroke="blue" stroke-width="2" />
<path d="M156,825 L496,1222" stroke="blue" stroke-width="2" />
<path d="M1088,561 L903,967" stroke="blue" stroke-width="2" />
<path d="M91,254 L1143,1053" stroke="blue" stroke-width="2" />
<path d="M1915,1272 L1915,1023" stroke="blue" stroke-width="2" />
<path d="M1055,641 L1422,1146" stroke="blue" stroke-width="2" />
<path d="M1417,414 L998,1037" stroke="blue" stroke-width="2" />
<path d="M526,1015 L505,604" stroke="blue" stroke-width="2" />
<path d="M152,1289 L1210,1060" stroke="blue" stroke-width="2" />
<path d="M1790,681 L1827,963" stroke="blue" stroke-width="2" />
<path d="M1025,934 L1724,408" stroke="blue" stroke-width="2" />
<path d="M1347,724 L992,406" stroke="blue" stroke-width="2" />
<path d="M1801,913 L1695,293" stroke="blue" stroke-width="2" />
<path d="M298,1234 L1316,910" stroke="blue" stroke-width="2" />
<path d="M1749,403 L1908,723" stroke="blue" stroke-width="2" />
<path d="M1681,402 L992,230" stroke="blue" stroke-width="2" />
<path d="M490,487 L127,529" stroke="blue" stroke-width="2" />
<path d="M243,74 L587,1075" stroke="blue" stroke-width="2" />
<path d="M895,744 L1518,689" stroke="blue" stroke-width="2" />
<path d="M1225,12 L584,582" stroke="blue" stroke-width="2" />
<path d="M1272,848 L1130,578" stroke="blue" stroke-width="2" />
<path d="M243,172 L580,577" stroke="blue" stroke-width="2" />
<path d="M793,884 L1140,791" stroke="blue" stroke-width="2" />
<path d="M1977,61 L808,498" stroke="blue" stroke-width="2" />
<path d="M471,482 L1383,349" stroke="blue" stroke-width="2" />
<path d="M146,698 L224,921" stroke="blue" stroke-width="2" />
<path d="M353,151 L1156,231" stroke="blue" stroke-width="2" />
<path d="M1741,1177 L1515,585" stroke="blue" stroke-width="2" />
<path d="M79,86 L1815,828" stroke="blue" stroke-width="2" />
<path d="M1968,55 L1905,81" stroke="blue" stroke-width="2" />
<path d="M1252,948 L927,407" stroke="blue" stroke-width="2" />
<path d="M1448,99 L1758,1193" stroke="blue" stroke-width="2" />
<path d="M1041,992 L76,1110" stroke="blue" stroke-width="2" />
<path d="M402,532 L1679,507" stroke="blue" stroke-width="2" />
<path d="M1524,1105 L1471,840" stroke="blue" stroke-width="2" />
<path d="M1874,1059 L76,531" stroke="blue" stroke-width="2" />
<path d="M286,815 L1544,680" stroke="blue" stroke-width="2" />
<path d="M1295,210 L1204,1092" stroke="blue" stroke-width="2" />
<path d="M520,188 L108,1259" stroke="blue" stroke-width="2" />
<path d="M885,452 L429,277" stroke="blue" stroke-width="2" />
<path d="M1720,1068 L410,307" stroke="blue" stroke-width="2" />
<path d="M416,802 L1697,773" stroke="blue" stroke-width="2" />
<path d="M1885,28 L1330,769" stroke="blue" stroke-width="2" />
<path d="M439,405 L1199,689" stroke="blue" stroke-width="2" />
<path d="M456,185 L1142,715" stroke="blue" stroke-width="2" />
<path d="M1986,560 L1500,454" stroke="blue" stroke-width="2" />
<path d="M93,1199 L1251,581" stroke="blue" stroke-width="2" />
<path d="M1727,727 L1085,172" stroke="blue" stroke-width="2" />
<path d="M961,1139 L1267,670" stroke="blue" stroke-width="2" />
<path d="M679,1188 L1400,493" stroke="blue" stroke-width="2" />
<path d="M1292,913 L1566,777" stroke="blue" stroke-width="2" />
<path d="M1995,233 L150,881" stroke="blue" stroke-width="2" />
<path d="M1987,1011 L427,1008" stroke="blue" stroke-width="2" />
<path d="M438,1214 L592,880" stroke="blue" stroke-width="2" />
<path d="M454,97 L538,340" stroke="blue" stroke-width="2" />
<path d="M72,588 L376,130" stroke="blue" stroke-width="2" />
<path d="M1861,1153 L17,744" stroke="blue" stroke-width="2" />
<path d="M1998,638 L1726,596" stroke="blue" stroke-width="2" />
<path d="M1110,591 L1512,923" stroke="blue" stroke-width="2" />
<path d="M941,90 L806,1273" stroke="blue" stroke-width="2" />
<path d="M1964,93 L230,275" stroke="blue" stroke-width="2" />
<path d="M732,532 L287,1070" stroke="blue" stroke-width="2" />
<path d="M1588,1241 L1288,74" stroke="blue" stroke-width="2" />
<path d="M1614,726 L683,682" stroke="blue" stroke-width="2" />
<path d="M573,237 L855,101" stroke="blue" stroke-width="2" />
<path d="M433,846 L1850,26" stroke="blue" stroke-width="2" />
<path d="M1350,1047 L1676,1071" stroke="blue" stroke-width="2" />
<path d="M138,77 L413,213" stroke="blue" stroke-width="2" />
<path d="M682,1193 L205,712" stroke="blue" stroke-width="2" />
<path d="M1004,916 L1964,588" stroke="blue" stroke-width="2" />
<path d="M517,70 L1867,876" stroke="blue" stroke-width="2" />
<path d="M907,879 L396,728" stroke="blue" stroke-width="2" />
<path d="M1578,1090 L1783,183" stroke="blue" stroke-width="2" />
<path d="M417,481 L379,54" stroke="blue" stroke-width="2" />
<path d="M0,0 L2020,0" stroke="red" stroke-width="10" />
<path d="M2020,0 L2020,1299" stroke="red" stroke-width="10" />
<path d="M0,1299 L2020,1299" stroke="red" stroke-width="10" />
<path d="M0,1299 L0,0" stroke="red" stroke-width="10" />
</svg>