<?xml version="1.0" encoding="UTF-8"?>
<svg xmlns="http://www.w3.org/2000/svg" xmlns:xlink="http://www.w3.org/1999/xlink"
     width="10000" height="10000" viewBox="0 0 10000 10000">
<defs>
</defs>
<path d="M1138,153 L88,1275" stroke="blue" stroke-width="2" />
<path d="M2797,2139 L975,528" stroke="blue" stroke-width="2" />
<path d="M4040,4079 L4975,734" stroke="blue" stroke-width="2" />
<path d="M635,1235 L1472,4897" stroke="blue" stroke-width="2" />
<path d="M3783,4988 L1155,1900" stroke="blue" stroke-width="2" />
<path d="M3356,759 L1568,142" stroke="blue" stroke-width="2" />
<path d="M1479,303 L4432,410" stroke="blue" stroke-width="2" />
<path d="M3667,4652 L1694,2215" stroke="blue" stroke-width="2" />
<path d="M4328,3171 L2710,543" stroke="blue" stroke-width="2" />
<path d="M3260,4494 L1906,2853" stroke="blue" stroke-width="2" />
<path d="M5079,3107 L467,1795" stroke="blue" stroke-width="2" />
<path d="M4739,3639 L4219,958" stroke="blue" stroke-width="2" />
<path d="M1745,695 L3506,3206" stroke="blue" stroke-width="2" />
<path d="M985,4797 L3954,960" stroke="blue" stroke-width="2" />
<path d="M5181,5023 L658,4159" stroke="blue" stroke-width="2" />
<path d="M3642,3386 L2662,2367" stroke="blue" stroke-width="2" />
<path d="M1541,381 L852,2015" stroke="blue" stroke-width="2" />
<path d="M3532,2435 L1945,1543" stroke="blue" stroke-width="2" />
<path d="M5331,3365 L3503,2899" stroke="blue" stroke-width="2" />
<path d="M6009,967 L3881,3304" stroke="blue" stroke-width="2" />
<path d="M639,1735 L2493,1603" stroke="blue" stroke-width="2" />
<path d="M3642,4796 L1884,4761" stroke="blue" stroke-width="2" />
<path d="M2099,3687 L3454,3299" stroke="blue" stroke-width="2" />
<path d="M1047,479 L4585,4064" stroke="blue" stroke-width="2" />
<path d="M470,2525 L4801,352" stroke="blue" stroke-width="2" />
<path d="M1060,2370 L629,1358" stroke="blue" stroke-width="2" />
<path d="M4259,3896 L3306,3538" stroke="blue" stroke-width="2" />
<path d="M2595,5141 L732,5161" stroke="blue" stroke-width="2" />
<path d="M4344,971 L3604,2521" stroke="blue" stroke-width="2" />
<path d="M1241,3640 L5998,2422" stroke="blue" stroke-width="2" />
<path d="M1789,274 L2768,3800" stroke="blue" stroke-width="2" />
<path d="M1302,4791 L2920,4720" stroke="blue" stroke-width="2" />
<path d="M4850,3860 L162,1702" stroke="blue" stroke-width="2" />
<path d="M1606,2522 L1022,1129" stroke="blue" stroke-width="2" />
<path d="M4570,1042 L5558,3300" stroke="blue" stroke-width="2" />
<path d="M4298,1307 L947,1445" stroke="blue" stroke-width="2" />
<path d="M3153,4560 L281,4592" stroke="blue" stroke-width="2" />
<path d="M154,762 L4201,1084" stroke="blue" stroke-width="2" />
<path d="M2383,2577 L1628,3314" stroke="blue" stroke-width="2" />
<path d="M5657,2169 L2143,1257" stroke="blue" stroke-width="2" />
<path d="M921,1876 L4253,4620" stroke="blue" stroke-width="2" />
<path d="M5781,1798 L5094,4752" stroke="blue" stroke-width="2" />
<path d="M1735,3302 L5044,4172" stroke="blue" stroke-width="2" />
<path d="M912,1215 L5404,3020" stroke="blue" stroke-width="2" />
<path d="M3343,3329 L4350,3340" stroke="blue" stroke-width="2" />
<path d="M1521,1687 L521,2330" stroke="blue" stroke-width="2" />
<path d="M1755,1593 L1962,1002" stroke="blue" stroke-width="2" />
<path d="M2990,1431 L5357,4258" stroke="blue" stroke-width="2" />
<path d="M3130,2083 L466,1093" stroke="blue" stroke-width="2" />
<path d="M1551,1082 L4097,4079" stroke="blue" stroke-width="2" />
<path d="M406,1159 L5989,4653" stroke="blue" stroke-width="2" />
<path d="M1130,4393 L2288,64" stroke="blue" stroke-width="2" />
<path d="M3259,3177 L4618,3360" stroke="blue" stroke-width="2" />
<path d="M3312,5101 L123,700" stroke="blue" stroke-width="2" />
<path d="M3045,4405 L2800,4003" stroke="blue" stroke-width="2" />
<path d="M1143,2694 L2590,821" stroke="blue" stroke-width="2" />
<path d="M5786,2245 L2594,4807" stroke="blue" stroke-width="2" />
<path d="M3283,2796 L496,3872" stroke="blue" stroke-width="2" />
<path d="M3443,4468 L2599,3357" stroke="blue" stroke-width="2" />
<path d="M959,3927 L2047,2236" stroke="blue" stroke-width="2" />
<path d="M2226,2495 L1162,4825" stroke="blue" stroke-width="2" />
<path d="M0,0 L6046,0" stroke="red" stroke-width="10" />
<path d="M6046,0 L6046,5191" stroke="red" stroke-width="10" />
<path d="M0,5191 L6046,5191" stroke="red" stroke-width="10" />
<path d="M0,5191 L0,0" stroke="red" stroke-width="10" />
</svg>