<?xml version="1.0" encoding="UTF-8"?>
<svg xmlns="http://www.w3.org/2000/svg" xmlns:xlink="http://www.w3.org/1999/xlink"
     width="10000" height="10000" viewBox="0 0 10000 10000">
<defs>
</defs>
<path d="M2600,5304 L4984,2053" stroke="blue" stroke-width="2" />
<path d="M2409,782 L4270,903" stroke="blue" stroke-width="2" />
<path d="M4326,6012 L3248,1839" stroke="blue" stroke-width="2" />
<path d="M344,3128 L1853,1094" stroke="blue" stroke-width="2" />
<path d="M4686,3664 L4737,4422" stroke="blue" stroke-width="2" />
<path d="M2406,935 L2910,3802" stroke="blue" stroke-width="2" />
<path d="M643,3544 L925,1238" stroke="blue" stroke-width="2" />
<path d="M2055,4319 L837,5877" stroke="blue" stroke-width="2" />
<path d="M4339,6394 L4047,2976" stroke="blue" stroke-width="2" />
<path d="M1367,6176 L2455,5484" stroke="blue" stroke-width="2" />
<path d="M2066,6211 L935,3503" stroke="blue" stroke-width="2" />
<path d="M2613,4775 L2634,4555" stroke="blue" stroke-width="2" />
<path d="M660,2807 L215,5093" stroke="blue" stroke-width="2" />
<path d="M3614,5762 L3904,2257" stroke="blue" stroke-width="2" />
<path d="M704,453 L3846,3477" stroke="blue" stroke-width="2" />
<path d="M297,3010 L4321,5473" stroke="blue" stroke-width="2" />
<path d="M354,3942 L4053,1906" stroke="blue" stroke-width="2" />
<path d="M4101,5368 L1813,1864" stroke="blue" stroke-width="2" />
<path d="M722,4642 L1160,2030" stroke="blue" stroke-width="2" />
<path d="M1927,4754 L2103,5754" stroke="blue" stroke-width="2" />
<path d="M1836,3806 L3689,3181" stroke="blue" stroke-width="2" />
<path d="M2889,548 L5133,1143" stroke="blue" stroke-width="2" />
<path d="M199,1906 L5165,6139" stroke="blue" stroke-width="2" />
<path d="M2108,5416 L3537,2550" stroke="blue" stroke-width="2" />
<path d="M208,2014 L2736,2849" stroke="blue" stroke-width="2" />
<path d="M3830,2704 L1123,1112" stroke="blue" stroke-width="2" />
<path d="M4733,2375 L951,681" stroke="blue" stroke-width="2" />
<path d="M3464,4872 L999,4526" stroke="blue" stroke-width="2" />
<path d="M2292,654 L86,6287" stroke="blue" stroke-width="2" />
<path d="M1781,2926 L2190,173" stroke="blue" stroke-width="2" />
<path d="M428,3933 L4342,2786" stroke="blue" stroke-width="2" />
<path d="M4839,6174 L4526,3599" stroke="blue" stroke-width="2" />
<path d="M1173,580 L2927,4947" stroke="blue" stroke-width="2" />
<path d="M1325,3375 L2064,3172" stroke="blue" stroke-width="2" />
<path d="M2810,758 L3722,1792" stroke="blue" stroke-width="2" />
<path d="M136,3471 L4989,3179" stroke="blue" stroke-width="2" />
<path d="M3986,6059 L3668,155" stroke="blue" stroke-width="2" />
<path d="M1927,2448 L3446,4117" stroke="blue" stroke-width="2" />
<path d="M4617,4537 L664,6507" stroke="blue" stroke-width="2" />
<path d="M1249,3921 L3082,2460" stroke="blue" stroke-width="2" />
<path d="M2737,3556 L1211,4382" stroke="blue" stroke-width="2" />
<path d="M845,888 L3945,3117" stroke="blue" stroke-width="2" />
<path d="M527,511 L5084,2840" stroke="blue" stroke-width="2" />
<path d="M1561,5327 L1901,4283" stroke="blue" stroke-width="2" />
<path d="M621,3588 L1666,890" stroke="blue" stroke-width="2" />
<path d="M1529,3015 L1718,1997" stroke="blue" stroke-width="2" />
<path d="M1995,6252 L1976,5435" stroke="blue" stroke-width="2" />
<path d="M2271,3125 L407,2526" stroke="blue" stroke-width="2" />
<path d="M3884,5775 L2250,248" stroke="blue" stroke-width="2" />
<path d="M3745,3539 L2492,5972" stroke="blue" stroke-width="2" />
<path d="M399,6286 L4279,5958" stroke="blue" stroke-width="2" />
<path d="M3469,425 L4975,4302" stroke="blue" stroke-width="2" />
<path d="M3553,6319 L4634,332" stroke="blue" stroke-width="2" />
<path d="M4281,6426 L2711,42" stroke="blue" stroke-width="2" />
<path d="M1984,1306 L2808,1967" stroke="blue" stroke-width="2" />
<path d="M2139,6362 L4855,5291" stroke="blue" stroke-width="2" />
<path d="M3777,3592 L2493,3847" stroke="blue" stroke-width="2" />
<path d="M1249,4471 L4563,3859" stroke="blue" stroke-width="2" />
<path d="M1255,2671 L4455,4624" stroke="blue" stroke-width="2" />
<path d="M4435,4948 L1299,853" stroke="blue" stroke-width="2" />
<path d="M4309,1344 L4765,1758" stroke="blue" stroke-width="2" />
<path d="M1236,4189 L2517,5894" stroke="blue" stroke-width="2" />
<path d="M3565,4406 L5156,1518" stroke="blue" stroke-width="2" />
<path d="M4642,1625 L2155,3837" stroke="blue" stroke-width="2" />
<path d="M3959,4871 L4831,1389" stroke="blue" stroke-width="2" />
<path d="M5252,3422 L3885,390" stroke="blue" stroke-width="2" />
<path d="M1487,2751 L3671,3616" stroke="blue" stroke-width="2" />
<path d="M4320,2441 L3311,6473" stroke="blue" stroke-width="2" />
<path d="M351,2540 L667,5033" stroke="blue" stroke-width="2" />
<path d="M4969,1061 L627,5976" stroke="blue" stroke-width="2" />
<path d="M1082,1751 L4559,6387" stroke="blue" stroke-width="2" />
<path d="M4464,5662 L2548,4218" stroke="blue" stroke-width="2" />
<path d="M2609,3231 L2932,5936" stroke="blue" stroke-width="2" />
<path d="M1299,5441 L49,4773" stroke="blue" stroke-width="2" />
<path d="M4089,4991 L3950,2511" stroke="blue" stroke-width="2" />
<path d="M369,4266 L3053,3092" stroke="blue" stroke-width="2" />
<path d="M2597,636 L3575,1210" stroke="blue" stroke-width="2" />
<path d="M2380,1278 L1551,2195" stroke="blue" stroke-width="2" />
<path d="M1879,660 L2886,3479" stroke="blue" stroke-width="2" />
<path d="M55,168 L2566,208" stroke="blue" stroke-width="2" />
<path d="M1862,5660 L66,6323" stroke="blue" stroke-width="2" />
<path d="M3092,5399 L2212,1627" stroke="blue" stroke-width="2" />
<path d="M354,3226 L1644,2103" stroke="blue" stroke-width="2" />
<path d="M4716,6439 L2129,4820" stroke="blue" stroke-width="2" />
<path d="M4638,4598 L3479,3560" stroke="blue" stroke-width="2" />
<path d="M2042,1548 L4785,4268" stroke="blue" stroke-width="2" />
<path d="M2815,4508 L1211,4112" stroke="blue" stroke-width="2" />
<path d="M2554,1257 L352,4616" stroke="blue" stroke-width="2" />
<path d="M1258,3224 L2100,5630" stroke="blue" stroke-width="2" />
<path d="M5060,4352 L2859,1086" stroke="blue" stroke-width="2" />
<path d="M2254,2285 L1389,5549" stroke="blue" stroke-width="2" />
<path d="M2490,3255 L1242,5025" stroke="blue" stroke-width="2" />
<path d="M4612,1540 L5136,3941" stroke="blue" stroke-width="2" />
<path d="M1577,5748 L4685,5514" stroke="blue" stroke-width="2" />
<path d="M244,1924 L1419,4307" stroke="blue" stroke-width="2" />
<path d="M2859,5322 L1054,1135" stroke="blue" stroke-width="2" />
<path d="M591,3259 L2323,980" stroke="blue" stroke-width="2" />
<path d="M862,218 L5101,1274" stroke="blue" stroke-width="2" />
<path d="M771,566 L2119,2045" stroke="blue" stroke-width="2" />
<path d="M1107,6012 L3211,1528" stroke="blue" stroke-width="2" />
<path d="M1001,5938 L3469,3487" stroke="blue" stroke-width="2" />
<path d="M2003,6328 L2361,3010" stroke="blue" stroke-width="2" />
<path d="M540,6262 L4697,1239" stroke="blue" stroke-width="2" />
<path d="M2846,5454 L3251,4806" stroke="blue" stroke-width="2" />
<path d="M3799,3427 L4496,3656" stroke="blue" stroke-width="2" />
<path d="M3968,5002 L529,2916" stroke="blue" stroke-width="2" />
<path d="M4150,5170 L3013,2334" stroke="blue" stroke-width="2" />
<path d="M258,978 L4417,4301" stroke="blue" stroke-width="2" />
<path d="M1595,1411 L4439,2585" stroke="blue" stroke-width="2" />
<path d="M3721,6244 L3661,6481" stroke="blue" stroke-width="2" />
<path d="M3302,640 L4932,4272" stroke="blue" stroke-width="2" />
<path d="M206,1110 L4050,2858" stroke="blue" stroke-width="2" />
<path d="M1947,2287 L1988,5095" stroke="blue" stroke-width="2" />
<path d="M3967,6055 L302,362" stroke="blue" stroke-width="2" />
<path d="M651,1932 L5127,6387" stroke="blue" stroke-width="2" />
<path d="M2382,2258 L1352,1809" stroke="blue" stroke-width="2" />
<path d="M4972,1552 L1178,2195" stroke="blue" stroke-width="2" />
<path d="M74,3983 L4825,5955" stroke="blue" stroke-width="2" />
<path d="M3844,4421 L4753,4912" stroke="blue" stroke-width="2" />
<path d="M23,3197 L3083,349" stroke="blue" stroke-width="2" />
<path d="M2456,2272 L379,1826" stroke="blue" stroke-width="2" />
<path d="M667,5078 L159,5009" stroke="blue" stroke-width="2" />
<path d="M2421,2331 L1010,1737" stroke="blue" stroke-width="2" />
<path d="M2520,3019 L2004,3724" stroke="blue" stroke-width="2" />
<path d="M3552,1995 L724,6127" stroke="blue" stroke-width="2" />
<path d="M2711,4400 L3109,6225" stroke="blue" stroke-width="2" />
<path d="M4847,1340 L4059,1729" stroke="blue" stroke-width="2" />
<path d="M5172,3031 L4188,2785" stroke="blue" stroke-width="2" />
<path d="M4361,1712 L2815,5130" stroke="blue" stroke-width="2" />
<path d="M4429,1479 L2350,6226" stroke="blue" stroke-width="2" />
<path d="M4529,3619 L2652,5570" stroke="blue" stroke-width="2" />
<path d="M3110,4142 L4349,3467" stroke="blue" stroke-width="2" />
<path d="M3745,4740 L5040,5237" stroke="blue" stroke-width="2" />
<path d="M1816,5081 L598,1349" stroke="blue" stroke-width="2" />
<path d="M4480,4208 L2138,5860" stroke="blue" stroke-width="2" />
<path d="M1526,2177 L4330,4987" stroke="blue" stroke-width="2" />
<path d="M3872,5026 L4908,3136" stroke="blue" stroke-width="2" />
<path d="M3534,3966 L1583,4917" stroke="blue" stroke-width="2" />
<path d="M3595,5377 L1764,6187" stroke="blue" stroke-width="2" />
<path d="M431,4947 L533,1178" stroke="blue" stroke-width="2" />
<path d="M1023,1735 L5000,3265" stroke="blue" stroke-width="2" />
<path d="M2673,3788 L4605,2122" stroke="blue" stroke-width="2" />
<path d="M2025,1848 L2644,6517" stroke="blue" stroke-width="2" />
<path d="M3507,1029 L1538,2573" stroke="blue" stroke-width="2" />
<path d="M3233,2145 L2067,2117" stroke="blue" stroke-width="2" />
<path d="M1046,2340 L1340,2612" stroke="blue" stroke-width="2" />
<path d="M3559,3671 L2625,5569" stroke="blue" stroke-width="2" />
<path d="M3681,955 L4289,6382" stroke="blue" stroke-width="2" />
<path d="M4656,652 L3494,2534" stroke="blue" stroke-width="2" />
<path d="M2833,4928 L567,5540" stroke="blue" stroke-width="2" />
<path d="M4780,5770 L2912,1588" stroke="blue" stroke-width="2" />
<path d="M4545,411 L3190,4439" stroke="blue" stroke-width="2" />
<path d="M2823,5323 L3967,3735" stroke="blue" stroke-width="2" />
<path d="M457,1762 L4613,3964" stroke="blue" stroke-width="2" />
<path d="M4173,530 L3009,2532" stroke="blue" stroke-width="2" />
<path d="M1201,1004 L3347,3863" stroke="blue" stroke-width="2" />
<path d="M1559,2335 L198,1854" stroke="blue" stroke-width="2" />
<path d="M2756,5219 L3690,3844" stroke="blue" stroke-width="2" />
<path d="M31,4721 L1730,4285" stroke="blue" stroke-width="2" />
<path d="M351,2122 L675,1278" stroke="blue" stroke-width="2" />
<path d="M1977,2446 L3041,1240" stroke="blue" stroke-width="2" />
<path d="M3108,4268 L4178,1110" stroke="blue" stroke-width="2" />
<path d="M878,4005 L4495,1061" stroke="blue" stroke-width="2" />
<path d="M3847,374 L2347,754" stroke="blue" stroke-width="2" />
<path d="M1969,6126 L4019,620" stroke="blue" stroke-width="2" />
<path d="M1482,1015 L2803,5381" stroke="blue" stroke-width="2" />
<path d="M1484,5116 L4356,2941" stroke="blue" stroke-width="2" />
<path d="M2372,1210 L3973,6320" stroke="blue" stroke-width="2" />
<path d="M1350,6497 L538,3180" stroke="blue" stroke-width="2" />
<path d="M3282,2744 L3937,882" stroke="blue" stroke-width="2" />
<path d="M374,5651 L1023,4161" stroke="blue" stroke-width="2" />
<path d="M1777,60 L1611,3458" stroke="blue" stroke-width="2" />
<path d="M382,559 L3673,5116" stroke="blue" stroke-width="2" />
<path d="M4096,3957 L2265,6216" stroke="blue" stroke-width="2" />
<path d="M263,6432 L257,318" stroke="blue" stroke-width="2" />
<path d="M1386,4568 L1588,3127" stroke="blue" stroke-width="2" />
<path d="M2835,1619 L3644,3833" stroke="blue" stroke-width="2" />
<path d="M3779,4357 L2559,5265" stroke="blue" stroke-width="2" />
<path d="M2205,16 L2276,3893" stroke="blue" stroke-width="2" />
<path d="M410,5784 L1328,3188" stroke="blue" stroke-width="2" />
<path d="M480,2683 L2109,2667" stroke="blue" stroke-width="2" />
<path d="M4680,3415 L3851,401" stroke="blue" stroke-width="2" />
<path d="M749,1055 L3957,5314" stroke="blue" stroke-width="2" />
<path d="M491,3189 L4681,2226" stroke="blue" stroke-width="2" />
<path d="M3265,3316 L710,357" stroke="blue" stroke-width="2" />
<path d="M215,53 L2475,6104" stroke="blue" stroke-width="2" />
<path d="M360,6430 L541,4699" stroke="blue" stroke-width="2" />
<path d="M1279,5825 L2882,1937" stroke="blue" stroke-width="2" />
<path d="M3176,1807 L2292,4429" stroke="blue" stroke-width="2" />
<path d="M1753,1195 L491,4750" stroke="blue" stroke-width="2" />
<path d="M406,3938 L3327,755" stroke="blue" stroke-width="2" />
<path d="M2991,5033 L4016,2365" stroke="blue" stroke-width="2" />
<path d="M3941,3993 L2369,3033" stroke="blue" stroke-width="2" />
<path d="M3359,462 L433,5276" stroke="blue" stroke-width="2" />
<path d="M5109,6104 L1724,2499" stroke="blue" stroke-width="2" />
<path d="M2312,4822 L2026,4811" stroke="blue" stroke-width="2" />
<path d="M2326,1142 L592,2088" stroke="blue" stroke-width="2" />
<path d="M2590,4085 L323,4582" stroke="blue" stroke-width="2" />
<path d="M4859,3059 L785,2885" stroke="blue" stroke-width="2" />
<path d="M1045,3578 L82,3309" stroke="blue" stroke-width="2" />
<path d="M681,5168 L5251,677" stroke="blue" stroke-width="2" />
<path d="M2941,378 L2597,2818" stroke="blue" stroke-width="2" />
<path d="M1080,1546 L3781,3594" stroke="blue" stroke-width="2" />
<path d="M1585,5627 L4406,5073" stroke="blue" stroke-width="2" />
<path d="M3207,2940 L3571,1929" stroke="blue" stroke-width="2" />
<path d="M1745,3421 L4378,2846" stroke="blue" stroke-width="2" />
<path d="M5200,606 L3117,1910" stroke="blue" stroke-width="2" />
<path d="M1693,5728 L4690,5969" stroke="blue" stroke-width="2" />
<path d="M4611,3336 L5295,6462" stroke="blue" stroke-width="2" />
<path d="M43,5847 L4759,2980" stroke="blue" stroke-width="2" />
<path d="M3925,2878 L3482,3358" stroke="blue" stroke-width="2" />
<path d="M2875,5432 L3489,238" stroke="blue" stroke-width="2" />
<path d="M1654,4865 L3988,3811" stroke="blue" stroke-width="2" />
<path d="M4792,1092 L4008,1750" stroke="blue" stroke-width="2" />
<path d="M828,4345 L2968,365" stroke="blue" stroke-width="2" />
<path d="M4344,2493 L660,1177" stroke="blue" stroke-width="2" />
<path d="M332,3064 L3068,191" stroke="blue" stroke-width="2" />
<path d="M1423,6222 L4872,4632" stroke="blue" stroke-width="2" />
<path d="M1328,6 L2236,394" stroke="blue" stroke-width="2" />
<path d="M1822,3405 L2363,131" stroke="blue" stroke-width="2" />
<path d="M1506,5548 L1545,980" stroke="blue" stroke-width="2" />
<path d="M4088,3746 L2334,4540" stroke="blue" stroke-width="2" />
<path d="M949,2578 L4406,2040" stroke="blue" stroke-width="2" />
<path d="M5300,6011 L3719,4933" stroke="blue" stroke-width="2" />
<path d="M2052,1812 L2408,3586" stroke="blue" stroke-width="2" />
<path d="M3765,2448 L1002,1821" stroke="blue" stroke-width="2" />
<path d="M1402,5944 L1010,4193" stroke="blue" stroke-width="2" />
<path d="M4334,3804 L2192,3984" stroke="blue" stroke-width="2" />
<path d="M828,2426 L1519,18" stroke="blue" stroke-width="2" />
<path d="M4716,6521 L1675,5635" stroke="blue" stroke-width="2" />
<path d="M1365,2916 L190,3458" stroke="blue" stroke-width="2" />
<path d="M4336,788 L3593,238" stroke="blue" stroke-width="2" />
<path d="M3681,5213 L4460,3982" stroke="blue" stroke-width="2" />
<path d="M2285,5751 L625,2575" stroke="blue" stroke-width="2" />
<path d="M2975,2454 L2100,1080" stroke="blue" stroke-width="2" />
<path d="M4790,1745 L725,3188" stroke="blue" stroke-width="2" />
<path d="M4245,6265 L3757,5051" stroke="blue" stroke-width="2" />
<path d="M2132,3542 L3401,1559" stroke="blue" stroke-width="2" />
<path d="M4256,227 L5052,6128" stroke="blue" stroke-width="2" />
<path d="M3240,6490 L282,5701" stroke="blue" stroke-width="2" />
<path d="M3457,3988 L4050,4979" stroke="blue" stroke-width="2" />
<path d="M2318,5478 L3378,4718" stroke="blue" stroke-width="2" />
<path d="M4116,4144 L1704,5612" stroke="blue" stroke-width="2" />
<path d="M2572,6217 L1109,744" stroke="blue" stroke-width="2" />
<path d="M1873,4598 L140,2771" stroke="blue" stroke-width="2" />
<path d="M4883,3823 L4468,4119" stroke="blue" stroke-width="2" />
<path d="M1747,1209 L2522,3089" stroke="blue" stroke-width="2" />
<path d="M2598,4826 L4018,1065" stroke="blue" stroke-width="2" />
<path d="M1816,4267 L4037,1245" stroke="blue" stroke-width="2" />
<path d="M3110,163 L2834,296" stroke="blue" stroke-width="2" />
<path d="M2649,4400 L2858,5985" stroke="blue" stroke-width="2" />
<path d="M5210,1163 L1184,2821" stroke="blue" stroke-width="2" />
<path d="M3356,4447 L2641,9" stroke="blue" stroke-width="2" />
<path d="M0,0 L5332,0" stroke="red" stroke-width="10" />
<path d="M5332,0 L5332,6534" stroke="red" stroke-width="10" />
<path d="M0,6534 L5332,6534" stroke="red" stroke-width="10" />
<path d="M0,6534 L0,0" stroke="red" stroke-width="10" />
</svg>