<?xml version="1.0" encoding="UTF-8"?>
<svg xmlns="http://www.w3.org/2000/svg" xmlns:xlink="http://www.w3.org/1999/xlink"
     width="10000" height="10000" viewBox="0 0 10000 10000">
<defs>
</defs>
<path d="M1475,3556 L2005,1154" stroke="blue" stroke-width="2" />
<path d="M190,1748 L1164,3172" stroke="blue" stroke-width="2" />
<path d="M2107,910 L1480,314" stroke="blue" stroke-width="2" />
<path d="M2059,2833 L1241,3456" stroke="blue" stroke-width="2" />
<path d="M2463,3438 L2304,1881" stroke="blue" stroke-width="2" />
<path d="M987,839 L2385,1336" stroke="blue" stroke-width="2" />
<path d="M1164,1569 L616,1535" stroke="blue" stroke-width="2" />
<path d="M951,1794 L1863,1472" stroke="blue" stroke-width="2" />
<path d="M2466,2378 L729,158" stroke="blue" stroke-width="2" />
<path d="M1401,52 L609,2301" stroke="blue" stroke-width="2" />
<path d="M2460,1237 L1709,223" stroke="blue" stroke-width="2" />
<path d="M2451,2367 L904,2885" stroke="blue" stroke-width="2" />
<path d="M187,3085 L386,3305" stroke="blue" stroke-width="2" />
<path d="M66,1239 L446,946" stroke="blue" stroke-width="2" />
<path d="M1936,2808 L1855,2299" stroke="blue" stroke-width="2" />
<path d="M610,1395 L2015,674" stroke="blue" stroke-width="2" />
<path d="M739,387 L1419,3817" stroke="blue" stroke-width="2" />
<path d="M251,2113 L2334,2850" stroke="blue" stroke-width="2" />
<path d="M2167,1845 L1865,3051" stroke="blue" stroke-width="2" />
<path d="M2469,543 L2249,2550" stroke="blue" stroke-width="2" />
<path d="M1435,1830 L559,1992" stroke="blue" stroke-width="2" />
<path d="M2377,983 L1297,27" stroke="blue" stroke-width="2" />
<path d="M2204,226 L1409,3377" stroke="blue" stroke-width="2" />
<path d="M256,3716 L932,811" stroke="blue" stroke-width="2" />
<path d="M1364,337 L1994,1715" stroke="blue" stroke-width="2" />
<path d="M1979,3013 L2351,813" stroke="blue" stroke-width="2" />
<path d="M383,3574 L1441,2839" stroke="blue" stroke-width="2" />
<path d="M148,2937 L580,1981" stroke="blue" stroke-width="2" />
<path d="M1768,1865 L334,2223" stroke="blue" stroke-width="2" />
<path d="M1444,1426 L2168,1008" stroke="blue" stroke-width="2" />
<path d="M1377,1916 L813,1419" stroke="blue" stroke-width="2" />
<path d="M2381,3134 L192,1986" stroke="blue" stroke-width="2" />
<path d="M412,2796 L1446,3520" stroke="blue" stroke-width="2" />
<path d="M2325,1248 L416,2836" stroke="blue" stroke-width="2" />
<path d="M1735,1620 L740,1927" stroke="blue" stroke-width="2" />
<path d="M164,1837 L95,1631" stroke="blue" stroke-width="2" />
<path d="M1906,1544 L400,2908" stroke="blue" stroke-width="2" />
<path d="M570,2947 L1314,14" stroke="blue" stroke-width="2" />
<path d="M2144,1149 L106,815" stroke="blue" stroke-width="2" />
<path d="M572,3069 L768,1760" stroke="blue" stroke-width="2" />
<path d="M911,1832 L435,801" stroke="blue" stroke-width="2" />
<path d="M180,1718 L1417,2188" stroke="blue" stroke-width="2" />
<path d="M1007,3219 L101,3176" stroke="blue" stroke-width="2" />
<path d="M1372,1988 L207,699" stroke="blue" stroke-width="2" />
<path d="M787,1092 L1994,560" stroke="blue" stroke-width="2" />
<path d="M459,2457 L1117,247" stroke="blue" stroke-width="2" />
<path d="M1170,1470 L2033,95" stroke="blue" stroke-width="2" />
<path d="M769,318 L1212,2153" stroke="blue" stroke-width="2" />
<path d="M1768,1234 L2232,329" stroke="blue" stroke-width="2" />
<path d="M867,2159 L2117,1772" stroke="blue" stroke-width="2" />
<path d="M2096,2137 L842,2825" stroke="blue" stroke-width="2" />
<path d="M2134,2456 L1982,248" stroke="blue" stroke-width="2" />
<path d="M2446,24 L2199,2149" stroke="blue" stroke-width="2" />
<path d="M1826,3865 L1143,3837" stroke="blue" stroke-width="2" />
<path d="M121,2457 L161,716" stroke="blue" stroke-width="2" />
<path d="M750,3014 L442,1341" stroke="blue" stroke-width="2" />
<path d="M2421,1185 L164,2282" stroke="blue" stroke-width="2" />
<path d="M2242,3784 L2263,1030" stroke="blue" stroke-width="2" />
<path d="M2194,1982 L1553,2015" stroke="blue" stroke-width="2" />
<path d="M424,1634 L506,1258" stroke="blue" stroke-width="2" />
<path d="M1293,780 L767,1225" stroke="blue" stroke-width="2" />
<path d="M219,2135 L182,2891" stroke="blue" stroke-width="2" />
<path d="M1160,2009 L1395,2198" stroke="blue" stroke-width="2" />
<path d="M733,2796 L1121,2227" stroke="blue" stroke-width="2" />
<path d="M1201,1203 L996,1920" stroke="blue" stroke-width="2" />
<path d="M1231,1882 L50,1474" stroke="blue" stroke-width="2" />
<path d="M1444,342 L148,3681" stroke="blue" stroke-width="2" />
<path d="M1526,2792 L2410,3313" stroke="blue" stroke-width="2" />
<path d="M57,3046 L1028,1398" stroke="blue" stroke-width="2" />
<path d="M869,2318 L201,2067" stroke="blue" stroke-width="2" />
<path d="M1928,1725 L186,95" stroke="blue" stroke-width="2" />
<path d="M240,2687 L1285,2042" stroke="blue" stroke-width="2" />
<path d="M384,2478 L828,793" stroke="blue" stroke-width="2" />
<path d="M1190,2203 L1497,3578" stroke="blue" stroke-width="2" />
<path d="M2478,405 L1105,3695" stroke="blue" stroke-width="2" />
<path d="M1503,1680 L1457,1539" stroke="blue" stroke-width="2" />
<path d="M990,2411 L1920,566" stroke="blue" stroke-width="2" />
<path d="M1821,740 L399,2029" stroke="blue" stroke-width="2" />
<path d="M1488,3851 L1509,2664" stroke="blue" stroke-width="2" />
<path d="M1433,2265 L1861,2548" stroke="blue" stroke-width="2" />
<path d="M2406,418 L7,597" stroke="blue" stroke-width="2" />
<path d="M847,2275 L653,1944" stroke="blue" stroke-width="2" />
<path d="M1169,2820 L470,2610" stroke="blue" stroke-width="2" />
<path d="M1015,65 L1577,2158" stroke="blue" stroke-width="2" />
<path d="M1056,2255 L2367,3176" stroke="blue" stroke-width="2" />
<path d="M637,1049 L2120,2438" stroke="blue" stroke-width="2" />
<path d="M673,1702 L364,285" stroke="blue" stroke-width="2" />
<path d="M1519,850 L1107,1121" stroke="blue" stroke-width="2" />
<path d="M2126,3756 L794,3752" stroke="blue" stroke-width="2" />
<path d="M55,3650 L1031,339" stroke="blue" stroke-width="2" />
<path d="M2176,220 L2365,1398" stroke="blue" stroke-width="2" />
<path d="M1298,3432 L391,2952" stroke="blue" stroke-width="2" />
<path d="M1847,824 L205,2340" stroke="blue" stroke-width="2" />
<path d="M1003,2473 L1687,2527" stroke="blue" stroke-width="2" />
<path d="M2129,1115 L1991,3467" stroke="blue" stroke-width="2" />
<path d="M766,145 L1321,3380" stroke="blue" stroke-width="2" />
<path d="M1998,1156 L40,2138" stroke="blue" stroke-width="2" />
<path d="M728,820 L1828,1226" stroke="blue" stroke-width="2" />
<path d="M936,2607 L1793,790" stroke="blue" stroke-width="2" />
<path d="M48,3592 L2165,805" stroke="blue" stroke-width="2" />
<path d="M2302,2459 L2321,173" stroke="blue" stroke-width="2" />
<path d="M1606,2822 L1297,3235" stroke="blue" stroke-width="2" />
<path d="M1541,2274 L100,1004" stroke="blue" stroke-width="2" />
<path d="M1373,121 L1697,3343" stroke="blue" stroke-width="2" />
<path d="M1120,2399 L118,773" stroke="blue" stroke-width="2" />
<path d="M2271,3151 L89,1087" stroke="blue" stroke-width="2" />
<path d="M2234,2311 L2427,3540" stroke="blue" stroke-width="2" />
<path d="M102,3139 L1579,2638" stroke="blue" stroke-width="2" />
<path d="M1263,1548 L1559,1210" stroke="blue" stroke-width="2" />
<path d="M614,1279 L95,1587" stroke="blue" stroke-width="2" />
<path d="M1007,1642 L22,1183" stroke="blue" stroke-width="2" />
<path d="M516,2170 L1828,1834" stroke="blue" stroke-width="2" />
<path d="M920,620 L695,1693" stroke="blue" stroke-width="2" />
<path d="M1185,825 L1254,1364" stroke="blue" stroke-width="2" />
<path d="M2050,92 L2084,1630" stroke="blue" stroke-width="2" />
<path d="M1638,2080 L1868,2823" stroke="blue" stroke-width="2" />
<path d="M2020,1844 L637,627" stroke="blue" stroke-width="2" />
<path d="M1462,2315 L215,3367" stroke="blue" stroke-width="2" />
<path d="M1298,2754 L871,361" stroke="blue" stroke-width="2" />
<path d="M1166,511 L2011,3566" stroke="blue" stroke-width="2" />
<path d="M582,413 L500,3106" stroke="blue" stroke-width="2" />
<path d="M680,3348 L1038,242" stroke="blue" stroke-width="2" />
<path d="M1942,2307 L1506,3397" stroke="blue" stroke-width="2" />
<path d="M1324,605 L148,2298" stroke="blue" stroke-width="2" />
<path d="M816,2981 L1256,2985" stroke="blue" stroke-width="2" />
<path d="M453,410 L2296,270" stroke="blue" stroke-width="2" />
<path d="M1351,2930 L506,3683" stroke="blue" stroke-width="2" />
<path d="M20,488 L1797,254" stroke="blue" stroke-width="2" />
<path d="M2395,876 L1737,3589" stroke="blue" stroke-width="2" />
<path d="M1103,494 L592,1312" stroke="blue" stroke-width="2" />
<path d="M1695,2037 L460,3708" stroke="blue" stroke-width="2" />
<path d="M894,1359 L1680,3442" stroke="blue" stroke-width="2" />
<path d="M1684,1062 L692,1590" stroke="blue" stroke-width="2" />
<path d="M563,3177 L1329,2821" stroke="blue" stroke-width="2" />
<path d="M999,3610 L479,3267" stroke="blue" stroke-width="2" />
<path d="M702,3664 L715,378" stroke="blue" stroke-width="2" />
<path d="M809,195 L1843,1991" stroke="blue" stroke-width="2" />
<path d="M1950,1755 L1452,2514" stroke="blue" stroke-width="2" />
<path d="M1582,1447 L192,236" stroke="blue" stroke-width="2" />
<path d="M1277,3816 L2009,2191" stroke="blue" stroke-width="2" />
<path d="M1268,618 L1698,3848" stroke="blue" stroke-width="2" />
<path d="M1751,3465 L615,1205" stroke="blue" stroke-width="2" />
<path d="M855,433 L2463,3187" stroke="blue" stroke-width="2" />
<path d="M1302,1145 L1313,1991" stroke="blue" stroke-width="2" />
<path d="M922,1636 L1286,570" stroke="blue" stroke-width="2" />
<path d="M2192,2181 L1837,1557" stroke="blue" stroke-width="2" />
<path d="M687,2829 L1729,2765" stroke="blue" stroke-width="2" />
<path d="M1244,1573 L1858,2263" stroke="blue" stroke-width="2" />
<path d="M903,2600 L2402,3227" stroke="blue" stroke-width="2" />
<path d="M1869,2368 L34,1622" stroke="blue" stroke-width="2" />
<path d="M1688,449 L795,3072" stroke="blue" stroke-width="2" />
<path d="M1708,3098 L638,388" stroke="blue" stroke-width="2" />
<path d="M905,1136 L781,1408" stroke="blue" stroke-width="2" />
<path d="M665,1449 L748,381" stroke="blue" stroke-width="2" />
<path d="M389,227 L191,193" stroke="blue" stroke-width="2" />
<path d="M2061,263 L2003,2103" stroke="blue" stroke-width="2" />
<path d="M2110,2788 L2270,2361" stroke="blue" stroke-width="2" />
<path d="M1614,3672 L388,2322" stroke="blue" stroke-width="2" />
<path d="M1108,3786 L775,829" stroke="blue" stroke-width="2" />
<path d="M176,425 L1615,2516" stroke="blue" stroke-width="2" />
<path d="M2442,2467 L1352,3240" stroke="blue" stroke-width="2" />
<path d="M210,535 L1367,3733" stroke="blue" stroke-width="2" />
<path d="M586,2607 L2274,1792" stroke="blue" stroke-width="2" />
<path d="M859,3071 L447,3796" stroke="blue" stroke-width="2" />
<path d="M2467,3460 L1973,2671" stroke="blue" stroke-width="2" />
<path d="M2397,2474 L2122,1462" stroke="blue" stroke-width="2" />
<path d="M2041,3134 L2263,1691" stroke="blue" stroke-width="2" />
<path d="M1004,3145 L2298,941" stroke="blue" stroke-width="2" />
<path d="M51,32 L732,1828" stroke="blue" stroke-width="2" />
<path d="M1293,1216 L197,1985" stroke="blue" stroke-width="2" />
<path d="M68,3500 L604,1727" stroke="blue" stroke-width="2" />
<path d="M2113,1109 L1595,3416" stroke="blue" stroke-width="2" />
<path d="M1986,879 L1750,988" stroke="blue" stroke-width="2" />
<path d="M845,3283 L1928,3191" stroke="blue" stroke-width="2" />
<path d="M698,3150 L1782,3375" stroke="blue" stroke-width="2" />
<path d="M1592,964 L1111,2702" stroke="blue" stroke-width="2" />
<path d="M985,506 L2184,1054" stroke="blue" stroke-width="2" />
<path d="M532,880 L1830,1028" stroke="blue" stroke-width="2" />
<path d="M889,57 L305,3229" stroke="blue" stroke-width="2" />
<path d="M1968,296 L1461,3528" stroke="blue" stroke-width="2" />
<path d="M483,1212 L1137,1097" stroke="blue" stroke-width="2" />
<path d="M1429,3728 L2400,700" stroke="blue" stroke-width="2" />
<path d="M10,3215 L1068,3120" stroke="blue" stroke-width="2" />
<path d="M932,569 L1810,1941" stroke="blue" stroke-width="2" />
<path d="M486,319 L574,3120" stroke="blue" stroke-width="2" />
<path d="M964,1216 L928,109" stroke="blue" stroke-width="2" />
<path d="M1903,3520 L1781,273" stroke="blue" stroke-width="2" />
<path d="M1306,3266 L1717,2322" stroke="blue" stroke-width="2" />
<path d="M272,2547 L2128,3495" stroke="blue" stroke-width="2" />
<path d="M931,2013 L2094,2212" stroke="blue" stroke-width="2" />
<path d="M1324,1387 L2104,1958" stroke="blue" stroke-width="2" />
<path d="M137,2325 L1981,442" stroke="blue" stroke-width="2" />
<path d="M572,1249 L2211,208" stroke="blue" stroke-width="2" />
<path d="M1018,904 L2246,3541" stroke="blue" stroke-width="2" />
<path d="M151,2246 L348,3343" stroke="blue" stroke-width="2" />
<path d="M328,826 L2423,1485" stroke="blue" stroke-width="2" />
<path d="M81,865 L1220,3520" stroke="blue" stroke-width="2" />
<path d="M1318,770 L1778,1939" stroke="blue" stroke-width="2" />
<path d="M1172,1963 L1700,2292" stroke="blue" stroke-width="2" />
<path d="M1174,2709 L228,1863" stroke="blue" stroke-width="2" />
<path d="M660,1539 L1307,1960" stroke="blue" stroke-width="2" />
<path d="M1159,3100 L1078,2697" stroke="blue" stroke-width="2" />
<path d="M829,1616 L1708,2325" stroke="blue" stroke-width="2" />
<path d="M1486,1941 L1840,1641" stroke="blue" stroke-width="2" />
<path d="M1133,503 L152,39" stroke="blue" stroke-width="2" />
<path d="M44,638 L2200,717" stroke="blue" stroke-width="2" />
<path d="M567,980 L1380,749" stroke="blue" stroke-width="2" />
<path d="M948,37 L618,3567" stroke="blue" stroke-width="2" />
<path d="M1894,2153 L1966,99" stroke="blue" stroke-width="2" />
<path d="M459,36 L1558,1046" stroke="blue" stroke-width="2" />
<path d="M1284,1343 L424,3720" stroke="blue" stroke-width="2" />
<path d="M1833,2861 L1317,2608" stroke="blue" stroke-width="2" />
<path d="M869,3764 L533,3089" stroke="blue" stroke-width="2" />
<path d="M656,2990 L1763,1377" stroke="blue" stroke-width="2" />
<path d="M1852,817 L317,2405" stroke="blue" stroke-width="2" />
<path d="M630,516 L105,3564" stroke="blue" stroke-width="2" />
<path d="M890,1700 L1726,709" stroke="blue" stroke-width="2" />
<path d="M1278,2985 L938,3351" stroke="blue" stroke-width="2" />
<path d="M70,1616 L698,1930" stroke="blue" stroke-width="2" />
<path d="M1267,2244 L104,2752" stroke="blue" stroke-width="2" />
<path d="M1578,491 L1763,281" stroke="blue" stroke-width="2" />
<path d="M2193,346 L463,1686" stroke="blue" stroke-width="2" />
<path d="M1345,2606 L1172,3384" stroke="blue" stroke-width="2" />
<path d="M1367,1681 L1601,678" stroke="blue" stroke-width="2" />
<path d="M147,1254 L661,2849" stroke="blue" stroke-width="2" />
<path d="M362,1184 L215,3655" stroke="blue" stroke-width="2" />
<path d="M616,682 L1322,3432" stroke="blue" stroke-width="2" />
<path d="M1205,102 L1327,1110" stroke="blue" stroke-width="2" />
<path d="M516,1926 L486,1684" stroke="blue" stroke-width="2" />
<path d="M448,1555 L2345,1762" stroke="blue" stroke-width="2" />
<path d="M1004,312 L1422,3848" stroke="blue" stroke-width="2" />
<path d="M1903,1310 L2240,173" stroke="blue" stroke-width="2" />
<path d="M553,2816 L2471,575" stroke="blue" stroke-width="2" />
<path d="M187,2530 L1618,2996" stroke="blue" stroke-width="2" />
<path d="M2351,2116 L1233,2262" stroke="blue" stroke-width="2" />
<path d="M2050,3662 L1619,2656" stroke="blue" stroke-width="2" />
<path d="M2164,3661 L823,3772" stroke="blue" stroke-width="2" />
<path d="M698,2506 L924,1740" stroke="blue" stroke-width="2" />
<path d="M1273,3351 L2079,2013" stroke="blue" stroke-width="2" />
<path d="M2024,3105 L2353,2454" stroke="blue" stroke-width="2" />
<path d="M2099,2285 L1619,1599" stroke="blue" stroke-width="2" />
<path d="M2236,2802 L2140,3215" stroke="blue" stroke-width="2" />
<path d="M2036,1434 L1709,1627" stroke="blue" stroke-width="2" />
<path d="M606,2093 L139,1631" stroke="blue" stroke-width="2" />
<path d="M7,2471 L274,1961" stroke="blue" stroke-width="2" />
<path d="M1878,387 L1566,2151" stroke="blue" stroke-width="2" />
<path d="M1944,1376 L685,217" stroke="blue" stroke-width="2" />
<path d="M350,1795 L299,2594" stroke="blue" stroke-width="2" />
<path d="M518,726 L2348,1608" stroke="blue" stroke-width="2" />
<path d="M1862,2402 L670,3419" stroke="blue" stroke-width="2" />
<path d="M698,1034 L256,217" stroke="blue" stroke-width="2" />
<path d="M912,389 L784,1816" stroke="blue" stroke-width="2" />
<path d="M624,350 L796,750" stroke="blue" stroke-width="2" />
<path d="M1879,3636 L1020,3080" stroke="blue" stroke-width="2" />
<path d="M1968,3032 L1683,2899" stroke="blue" stroke-width="2" />
<path d="M1264,787 L2199,1972" stroke="blue" stroke-width="2" />
<path d="M938,1687 L727,2708" stroke="blue" stroke-width="2" />
<path d="M1555,2970 L1665,3756" stroke="blue" stroke-width="2" />
<path d="M1763,3782 L627,3056" stroke="blue" stroke-width="2" />
<path d="M1452,1614 L2372,2258" stroke="blue" stroke-width="2" />
<path d="M2206,42 L2295,3633" stroke="blue" stroke-width="2" />
<path d="M1028,498 L380,2763" stroke="blue" stroke-width="2" />
<path d="M370,2763 L1170,182" stroke="blue" stroke-width="2" />
<path d="M1549,3197 L482,1168" stroke="blue" stroke-width="2" />
<path d="M33,3309 L1402,1626" stroke="blue" stroke-width="2" />
<path d="M110,2818 L787,1603" stroke="blue" stroke-width="2" />
<path d="M642,3432 L840,1563" stroke="blue" stroke-width="2" />
<path d="M985,2523 L2056,3440" stroke="blue" stroke-width="2" />
<path d="M356,2240 L2399,2491" stroke="blue" stroke-width="2" />
<path d="M377,1880 L392,306" stroke="blue" stroke-width="2" />
<path d="M2046,548 L1274,2177" stroke="blue" stroke-width="2" />
<path d="M152,2457 L449,3441" stroke="blue" stroke-width="2" />
<path d="M2402,1052 L253,1214" stroke="blue" stroke-width="2" />
<path d="M117,2848 L1289,2773" stroke="blue" stroke-width="2" />
<path d="M917,1215 L2062,679" stroke="blue" stroke-width="2" />
<path d="M1859,3177 L1277,285" stroke="blue" stroke-width="2" />
<path d="M457,17 L1808,1223" stroke="blue" stroke-width="2" />
<path d="M1052,782 L1654,3675" stroke="blue" stroke-width="2" />
<path d="M1880,2385 L2119,1326" stroke="blue" stroke-width="2" />
<path d="M844,1512 L1361,1605" stroke="blue" stroke-width="2" />
<path d="M805,3592 L284,1430" stroke="blue" stroke-width="2" />
<path d="M2218,3512 L461,3603" stroke="blue" stroke-width="2" />
<path d="M1298,3614 L2413,3211" stroke="blue" stroke-width="2" />
<path d="M2405,207 L1507,3375" stroke="blue" stroke-width="2" />
<path d="M345,253 L2191,434" stroke="blue" stroke-width="2" />
<path d="M893,467 L2293,3713" stroke="blue" stroke-width="2" />
<path d="M547,60 L2331,1715" stroke="blue" stroke-width="2" />
<path d="M1407,2080 L2,679" stroke="blue" stroke-width="2" />
<path d="M11,3044 L1101,2414" stroke="blue" stroke-width="2" />
<path d="M1215,997 L1772,3588" stroke="blue" stroke-width="2" />
<path d="M1707,882 L367,975" stroke="blue" stroke-width="2" />
<path d="M2287,3580 L40,3285" stroke="blue" stroke-width="2" />
<path d="M1478,3817 L2462,2151" stroke="blue" stroke-width="2" />
<path d="M2256,3370 L775,901" stroke="blue" stroke-width="2" />
<path d="M1184,1878 L704,3030" stroke="blue" stroke-width="2" />
<path d="M2477,1765 L994,1947" stroke="blue" stroke-width="2" />
<path d="M2124,2922 L1865,1810" stroke="blue" stroke-width="2" />
<path d="M740,1220 L2399,741" stroke="blue" stroke-width="2" />
<path d="M1138,302 L1231,2979" stroke="blue" stroke-width="2" />
<path d="M37,2611 L1756,3812" stroke="blue" stroke-width="2" />
<path d="M902,2437 L1560,2142" stroke="blue" stroke-width="2" />
<path d="M2244,1644 L1927,1799" stroke="blue" stroke-width="2" />
<path d="M28,3856 L1409,1899" stroke="blue" stroke-width="2" />
<path d="M1402,2549 L1711,1618" stroke="blue" stroke-width="2" />
<path d="M254,1492 L1397,2506" stroke="blue" stroke-width="2" />
<path d="M302,3756 L25,1226" stroke="blue" stroke-width="2" />
<path d="M1494,1117 L1017,559" stroke="blue" stroke-width="2" />
<path d="M529,168 L2031,134" stroke="blue" stroke-width="2" />
<path d="M1358,962 L686,1943" stroke="blue" stroke-width="2" />
<path d="M78,449 L1275,2773" stroke="blue" stroke-width="2" />
<path d="M1344,1659 L1258,395" stroke="blue" stroke-width="2" />
<path d="M767,1248 L1851,204" stroke="blue" stroke-width="2" />
<path d="M38,3227 L245,3368" stroke="blue" stroke-width="2" />
<path d="M2037,3472 L1023,2269" stroke="blue" stroke-width="2" />
<path d="M373,824 L1113,870" stroke="blue" stroke-width="2" />
<path d="M1267,1482 L309,3233" stroke="blue" stroke-width="2" />
<path d="M1341,304 L1811,1532" stroke="blue" stroke-width="2" />
<path d="M758,3073 L574,3816" stroke="blue" stroke-width="2" />
<path d="M460,289 L2305,407" stroke="blue" stroke-width="2" />
<path d="M1554,119 L1147,3671" stroke="blue" stroke-width="2" />
<path d="M1248,1238 L2041,3433" stroke="blue" stroke-width="2" />
<path d="M1383,779 L2154,78" stroke="blue" stroke-width="2" />
<path d="M71,3040 L2245,3369" stroke="blue" stroke-width="2" />
<path d="M56,3535 L793,3413" stroke="blue" stroke-width="2" />
<path d="M2397,1077 L2228,1439" stroke="blue" stroke-width="2" />
<path d="M171,2591 L39,1244" stroke="blue" stroke-width="2" />
<path d="M649,2350 L2230,1563" stroke="blue" stroke-width="2" />
<path d="M542,1526 L1331,3089" stroke="blue" stroke-width="2" />
<path d="M827,2090 L1813,3031" stroke="blue" stroke-width="2" />
<path d="M657,1903 L536,906" stroke="blue" stroke-width="2" />
<path d="M1609,908 L672,3818" stroke="blue" stroke-width="2" />
<path d="M1644,3335 L1303,1384" stroke="blue" stroke-width="2" />
<path d="M862,1149 L349,3037" stroke="blue" stroke-width="2" />
<path d="M535,2602 L2294,818" stroke="blue" stroke-width="2" />
<path d="M2074,982 L1760,1440" stroke="blue" stroke-width="2" />
<path d="M1672,3185 L2387,2138" stroke="blue" stroke-width="2" />
<path d="M934,454 L991,742" stroke="blue" stroke-width="2" />
<path d="M2239,3825 L2083,3417" stroke="blue" stroke-width="2" />
<path d="M1781,1464 L1049,3525" stroke="blue" stroke-width="2" />
<path d="M1380,3792 L2014,1085" stroke="blue" stroke-width="2" />
<path d="M303,3105 L454,3325" stroke="blue" stroke-width="2" />
<path d="M1331,1487 L1359,709" stroke="blue" stroke-width="2" />
<path d="M1729,1091 L974,2988" stroke="blue" stroke-width="2" />
<path d="M2027,2298 L1781,2236" stroke="blue" stroke-width="2" />
<path d="M1473,1479 L927,3756" stroke="blue" stroke-width="2" />
<path d="M1614,2022 L207,1687" stroke="blue" stroke-width="2" />
<path d="M1632,2449 L856,2828" stroke="blue" stroke-width="2" />
<path d="M1704,3685 L1799,1052" stroke="blue" stroke-width="2" />
<path d="M1357,3321 L423,2440" stroke="blue" stroke-width="2" />
<path d="M2280,2140 L1865,3232" stroke="blue" stroke-width="2" />
<path d="M1473,829 L2034,2298" stroke="blue" stroke-width="2" />
<path d="M1407,971 L209,3340" stroke="blue" stroke-width="2" />
<path d="M869,2789 L460,1375" stroke="blue" stroke-width="2" />
<path d="M1442,620 L1020,3290" stroke="blue" stroke-width="2" />
<path d="M1991,2812 L1446,1374" stroke="blue" stroke-width="2" />
<path d="M746,854 L718,2458" stroke="blue" stroke-width="2" />
<path d="M735,734 L1533,2062" stroke="blue" stroke-width="2" />
<path d="M2318,878 L18,1526" stroke="blue" stroke-width="2" />
<path d="M900,1248 L1540,390" stroke="blue" stroke-width="2" />
<path d="M134,2572 L1018,3684" stroke="blue" stroke-width="2" />
<path d="M411,643 L1471,1991" stroke="blue" stroke-width="2" />
<path d="M876,2596 L268,1517" stroke="blue" stroke-width="2" />
<path d="M2396,178 L1044,855" stroke="blue" stroke-width="2" />
<path d="M2023,547 L27,2635" stroke="blue" stroke-width="2" />
<path d="M1198,2062 L2201,940" stroke="blue" stroke-width="2" />
<path d="M1266,259 L2450,2315" stroke="blue" stroke-width="2" />
<path d="M377,699 L1710,3620" stroke="blue" stroke-width="2" />
<path d="M805,1145 L1269,3379" stroke="blue" stroke-width="2" />
<path d="M2349,1597 L1967,2361" stroke="blue" stroke-width="2" />
<path d="M831,2926 L1752,3782" stroke="blue" stroke-width="2" />
<path d="M1411,3213 L2173,2501" stroke="blue" stroke-width="2" />
<path d="M1495,2343 L108,2244" stroke="blue" stroke-width="2" />
<path d="M115,570 L864,726" stroke="blue" stroke-width="2" />
<path d="M1391,2782 L1220,2094" stroke="blue" stroke-width="2" />
<path d="M2102,3840 L741,3806" stroke="blue" stroke-width="2" />
<path d="M1156,3860 L1727,75" stroke="blue" stroke-width="2" />
<path d="M998,3711 L259,3514" stroke="blue" stroke-width="2" />
<path d="M913,62 L860,773" stroke="blue" stroke-width="2" />
<path d="M2087,451 L1324,2510" stroke="blue" stroke-width="2" />
<path d="M382,2382 L2147,1908" stroke="blue" stroke-width="2" />
<path d="M1587,162 L219,2442" stroke="blue" stroke-width="2" />
<path d="M1262,3644 L847,2835" stroke="blue" stroke-width="2" />
<path d="M1979,3430 L2373,220" stroke="blue" stroke-width="2" />
<path d="M727,767 L182,3407" stroke="blue" stroke-width="2" />
<path d="M1021,201 L1616,3385" stroke="blue" stroke-width="2" />
<path d="M2311,3609 L1068,519" stroke="blue" stroke-width="2" />
<path d="M1748,3384 L1971,3507" stroke="blue" stroke-width="2" />
<path d="M2352,1983 L1564,1045" stroke="blue" stroke-width="2" />
<path d="M41,3183 L623,2190" stroke="blue" stroke-width="2" />
<path d="M1374,3538 L62,2897" stroke="blue" stroke-width="2" />
<path d="M49,3225 L166,3131" stroke="blue" stroke-width="2" />
<path d="M796,2163 L1398,626" stroke="blue" stroke-width="2" />
<path d="M1385,1027 L753,941" stroke="blue" stroke-width="2" />
<path d="M1731,3547 L139,2982" stroke="blue" stroke-width="2" />
<path d="M789,265 L662,1426" stroke="blue" stroke-width="2" />
<path d="M970,361 L49,866" stroke="blue" stroke-width="2" />
<path d="M2103,2295 L2100,1366" stroke="blue" stroke-width="2" />
<path d="M7,2621 L1945,1779" stroke="blue" stroke-width="2" />
<path d="M621,473 L458,3525" stroke="blue" stroke-width="2" />
<path d="M2052,2147 L1979,348" stroke="blue" stroke-width="2" />
<path d="M912,2390 L889,2702" stroke="blue" stroke-width="2" />
<path d="M1290,1165 L526,2276" stroke="blue" stroke-width="2" />
<path d="M21,2747 L1195,3651" stroke="blue" stroke-width="2" />
<path d="M109,1042 L641,13" stroke="blue" stroke-width="2" />
<path d="M35,655 L283,3747" stroke="blue" stroke-width="2" />
<path d="M601,1586 L117,1842" stroke="blue" stroke-width="2" />
<path d="M1847,548 L2470,2521" stroke="blue" stroke-width="2" />
<path d="M565,2230 L2426,1254" stroke="blue" stroke-width="2" />
<path d="M1736,3370 L400,36" stroke="blue" stroke-width="2" />
<path d="M1213,2296 L2074,3038" stroke="blue" stroke-width="2" />
<path d="M2349,857 L1818,1965" stroke="blue" stroke-width="2" />
<path d="M2162,316 L1269,1536" stroke="blue" stroke-width="2" />
<path d="M35,1347 L1814,3438" stroke="blue" stroke-width="2" />
<path d="M1098,870 L1166,3832" stroke="blue" stroke-width="2" />
<path d="M1626,3659 L1074,2570" stroke="blue" stroke-width="2" />
<path d="M1174,617 L819,2610" stroke="blue" stroke-width="2" />
<path d="M433,1789 L1651,3204" stroke="blue" stroke-width="2" />
<path d="M1630,429 L541,803" stroke="blue" stroke-width="2" />
<path d="M1143,3616 L1552,2355" stroke="blue" stroke-width="2" />
<path d="M2077,917 L2418,3233" stroke="blue" stroke-width="2" />
<path d="M2362,418 L740,690" stroke="blue" stroke-width="2" />
<path d="M2408,1874 L1336,190" stroke="blue" stroke-width="2" />
<path d="M1281,2945 L1145,2183" stroke="blue" stroke-width="2" />
<path d="M2175,470 L2062,3447" stroke="blue" stroke-width="2" />
<path d="M80,3273 L770,2097" stroke="blue" stroke-width="2" />
<path d="M1554,1447 L1469,167" stroke="blue" stroke-width="2" />
<path d="M596,1072 L1457,2302" stroke="blue" stroke-width="2" />
<path d="M244,2487 L67,2292" stroke="blue" stroke-width="2" />
<path d="M98,371 L1479,586" stroke="blue" stroke-width="2" />
<path d="M1786,3269 L2248,2521" stroke="blue" stroke-width="2" />
<path d="M212,1174 L2149,1925" stroke="blue" stroke-width="2" />
<path d="M395,2682 L896,1769" stroke="blue" stroke-width="2" />
<path d="M1868,240 L1980,1597" stroke="blue" stroke-width="2" />
<path d="M622,507 L249,2003" stroke="blue" stroke-width="2" />
<path d="M1118,3261 L624,3047" stroke="blue" stroke-width="2" />
<path d="M1259,1727 L1285,711" stroke="blue" stroke-width="2" />
<path d="M586,560 L1179,1283" stroke="blue" stroke-width="2" />
<path d="M893,1910 L1777,456" stroke="blue" stroke-width="2" />
<path d="M1756,650 L2277,885" stroke="blue" stroke-width="2" />
<path d="M1336,2706 L1288,1328" stroke="blue" stroke-width="2" />
<path d="M2422,2078 L1054,1638" stroke="blue" stroke-width="2" />
<path d="M1566,396 L1424,3060" stroke="blue" stroke-width="2" />
<path d="M1235,2094 L2093,3470" stroke="blue" stroke-width="2" />
<path d="M1836,3274 L4,1209" stroke="blue" stroke-width="2" />
<path d="M470,3164 L511,3138" stroke="blue" stroke-width="2" />
<path d="M2110,2259 L610,811" stroke="blue" stroke-width="2" />
<path d="M2154,538 L948,3581" stroke="blue" stroke-width="2" />
<path d="M1660,285 L869,1044" stroke="blue" stroke-width="2" />
<path d="M1781,93 L699,3276" stroke="blue" stroke-width="2" />
<path d="M1982,1054 L1476,527" stroke="blue" stroke-width="2" />
<path d="M1005,2030 L2317,3747" stroke="blue" stroke-width="2" />
<path d="M1282,3230 L1423,1414" stroke="blue" stroke-width="2" />
<path d="M2461,967 L1352,1177" stroke="blue" stroke-width="2" />
<path d="M2322,1074 L1767,996" stroke="blue" stroke-width="2" />
<path d="M866,2170 L297,2013" stroke="blue" stroke-width="2" />
<path d="M278,631 L1024,3152" stroke="blue" stroke-width="2" />
<path d="M2350,2144 L1632,2755" stroke="blue" stroke-width="2" />
<path d="M1843,904 L930,129" stroke="blue" stroke-width="2" />
<path d="M697,1085 L1452,3611" stroke="blue" stroke-width="2" />
<path d="M1321,2792 L1790,1953" stroke="blue" stroke-width="2" />
<path d="M1335,732 L1313,994" stroke="blue" stroke-width="2" />
<path d="M1152,593 L424,2216" stroke="blue" stroke-width="2" />
<path d="M1567,1938 L957,1026" stroke="blue" stroke-width="2" />
<path d="M0,671 L643,1285" stroke="blue" stroke-width="2" />
<path d="M691,1932 L1348,286" stroke="blue" stroke-width="2" />
<path d="M2279,1307 L2188,3562" stroke="blue" stroke-width="2" />
<path d="M2413,26 L1940,3276" stroke="blue" stroke-width="2" />
<path d="M391,2198 L1036,3020" stroke="blue" stroke-width="2" />
<path d="M2256,883 L1225,1287" stroke="blue" stroke-width="2" />
<path d="M2165,3368 L2015,2287" stroke="blue" stroke-width="2" />
<path d="M1072,3646 L1876,3619" stroke="blue" stroke-width="2" />
<path d="M694,1972 L1639,2261" stroke="blue" stroke-width="2" />
<path d="M1072,1876 L1875,3792" stroke="blue" stroke-width="2" />
<path d="M2175,893 L2101,23" stroke="blue" stroke-width="2" />
<path d="M834,3087 L2342,596" stroke="blue" stroke-width="2" />
<path d="M1120,3233 L2414,2382" stroke="blue" stroke-width="2" />
<path d="M1059,14 L981,2229" stroke="blue" stroke-width="2" />
<path d="M1149,3503 L695,1048" stroke="blue" stroke-width="2" />
<path d="M15,1694 L1940,2808" stroke="blue" stroke-width="2" />
<path d="M1263,1256 L1893,1011" stroke="blue" stroke-width="2" />
<path d="M543,3806 L1775,1361" stroke="blue" stroke-width="2" />
<path d="M817,3443 L1459,541" stroke="blue" stroke-width="2" />
<path d="M1154,3274 L50,198" stroke="blue" stroke-width="2" />
<path d="M1165,617 L1873,1539" stroke="blue" stroke-width="2" />
<path d="M2018,3791 L459,2337" stroke="blue" stroke-width="2" />
<path d="M859,3245 L577,2462" stroke="blue" stroke-width="2" />
<path d="M2232,3448 L2333,1369" stroke="blue" stroke-width="2" />
<path d="M1201,1020 L605,3719" stroke="blue" stroke-width="2" />
<path d="M1227,2356 L997,1064" stroke="blue" stroke-width="2" />
<path d="M1920,3172 L2213,2441" stroke="blue" stroke-width="2" />
<path d="M1111,2859 L1773,2507" stroke="blue" stroke-width="2" />
<path d="M1736,3561 L620,1709" stroke="blue" stroke-width="2" />
<path d="M332,2790 L1020,648" stroke="blue" stroke-width="2" />
<path d="M1661,1971 L1871,2910" stroke="blue" stroke-width="2" />
<path d="M55,1769 L210,3711" stroke="blue" stroke-width="2" />
<path d="M911,3377 L835,3392" stroke="blue" stroke-width="2" />
<path d="M1235,888 L2428,3754" stroke="blue" stroke-width="2" />
<path d="M1632,1929 L1001,1120" stroke="blue" stroke-width="2" />
<path d="M1929,599 L2254,2374" stroke="blue" stroke-width="2" />
<path d="M973,1712 L1436,2479" stroke="blue" stroke-width="2" />
<path d="M232,2963 L2242,1576" stroke="blue" stroke-width="2" />
<path d="M735,3537 L1869,2069" stroke="blue" stroke-width="2" />
<path d="M0,0 L2484,0" stroke="red" stroke-width="10" />
<path d="M2484,0 L2484,3866" stroke="red" stroke-width="10" />
<path d="M0,3866 L2484,3866" stroke="red" stroke-width="10" />
<path d="M0,3866 L0,0" stroke="red" stroke-width="10" />
</svg>