<?xml version="1.0" encoding="UTF-8"?>
<svg xmlns="http://www.w3.org/2000/svg" xmlns:xlink="http://www.w3.org/1999/xlink"
     width="10000" height="10000" viewBox="0 0 10000 10000">
<defs>
</defs>
<path d="M1029,4854 L451,4000" stroke="blue" stroke-width="2" />
<path d="M796,4318 L2344,4717" stroke="blue" stroke-width="2" />
<path d="M536,1243 L1543,1231" stroke="blue" stroke-width="2" />
<path d="M155,2779 L581,3178" stroke="blue" stroke-width="2" />
<path d="M2462,5014 L2855,1492" stroke="blue" stroke-width="2" />
<path d="M2556,5192 L3060,2542" stroke="blue" stroke-width="2" />
<path d="M832,4884 L943,303" stroke="blue" stroke-width="2" />
<path d="M511,913 L637,5203" stroke="blue" stroke-width="2" />
<path d="M644,4960 L1381,1129" stroke="blue" stroke-width="2" />
<path d="M1317,597 L1801,1454" stroke="blue" stroke-width="2" />
<path d="M1283,1095 L2226,637" stroke="blue" stroke-width="2" />
<path d="M2828,1626 L2822,1749" stroke="blue" stroke-width="2" />
<path d="M2771,3610 L361,2232" stroke="blue" stroke-width="2" />
<path d="M1616,1343 L2545,1545" stroke="blue" stroke-width="2" />
<path d="M319,3987 L2094,2256" stroke="blue" stroke-width="2" />
<path d="M2568,3432 L2319,1220" stroke="blue" stroke-width="2" />
<path d="M2537,4570 L2003,1413" stroke="blue" stroke-width="2" />
<path d="M1611,1388 L865,2576" stroke="blue" stroke-width="2" />
<path d="M1947,4768 L2249,4714" stroke="blue" stroke-width="2" />
<path d="M2563,1394 L932,5132" stroke="blue" stroke-width="2" />
<path d="M2371,3375 L231,4423" stroke="blue" stroke-width="2" />
<path d="M1599,1869 L2204,4117" stroke="blue" stroke-width="2" />
<path d="M284,4337 L1266,3696" stroke="blue" stroke-width="2" />
<path d="M547,4527 L652,1677" stroke="blue" stroke-width="2" />
<path d="M215,4788 L982,1715" stroke="blue" stroke-width="2" />
<path d="M1044,5221 L1320,2008" stroke="blue" stroke-width="2" />
<path d="M2520,975 L435,2225" stroke="blue" stroke-width="2" />
<path d="M2278,601 L1230,2977" stroke="blue" stroke-width="2" />
<path d="M835,928 L194,3673" stroke="blue" stroke-width="2" />
<path d="M2894,2249 L2540,624" stroke="blue" stroke-width="2" />
<path d="M2335,4541 L426,1021" stroke="blue" stroke-width="2" />
<path d="M754,1362 L2174,2810" stroke="blue" stroke-width="2" />
<path d="M1161,3681 L1693,695" stroke="blue" stroke-width="2" />
<path d="M2906,2515 L2039,2465" stroke="blue" stroke-width="2" />
<path d="M1941,2641 L164,4799" stroke="blue" stroke-width="2" />
<path d="M339,2284 L920,2192" stroke="blue" stroke-width="2" />
<path d="M2583,456 L660,2396" stroke="blue" stroke-width="2" />
<path d="M1317,1497 L2908,1699" stroke="blue" stroke-width="2" />
<path d="M810,2852 L2199,1500" stroke="blue" stroke-width="2" />
<path d="M867,4145 L298,278" stroke="blue" stroke-width="2" />
<path d="M550,1822 L1484,1858" stroke="blue" stroke-width="2" />
<path d="M290,112 L1649,1189" stroke="blue" stroke-width="2" />
<path d="M1015,98 L155,2685" stroke="blue" stroke-width="2" />
<path d="M1553,4834 L534,5338" stroke="blue" stroke-width="2" />
<path d="M847,4201 L1888,3083" stroke="blue" stroke-width="2" />
<path d="M1253,1470 L3023,5051" stroke="blue" stroke-width="2" />
<path d="M2309,1572 L93,1182" stroke="blue" stroke-width="2" />
<path d="M366,2516 L2946,1746" stroke="blue" stroke-width="2" />
<path d="M2732,5106 L125,3000" stroke="blue" stroke-width="2" />
<path d="M891,3203 L2899,5370" stroke="blue" stroke-width="2" />
<path d="M1926,5061 L2753,2802" stroke="blue" stroke-width="2" />
<path d="M3030,1099 L627,437" stroke="blue" stroke-width="2" />
<path d="M2321,2628 L225,5428" stroke="blue" stroke-width="2" />
<path d="M2446,294 L610,4156" stroke="blue" stroke-width="2" />
<path d="M1036,2978 L121,4590" stroke="blue" stroke-width="2" />
<path d="M1565,205 L2863,2328" stroke="blue" stroke-width="2" />
<path d="M1535,4344 L1477,3562" stroke="blue" stroke-width="2" />
<path d="M1294,2560 L2956,634" stroke="blue" stroke-width="2" />
<path d="M446,4764 L3007,3486" stroke="blue" stroke-width="2" />
<path d="M2578,4901 L1518,1562" stroke="blue" stroke-width="2" />
<path d="M2835,5413 L2088,5473" stroke="blue" stroke-width="2" />
<path d="M2831,4719 L2354,1422" stroke="blue" stroke-width="2" />
<path d="M1844,1170 L2052,4077" stroke="blue" stroke-width="2" />
<path d="M3098,2584 L1750,4498" stroke="blue" stroke-width="2" />
<path d="M154,1979 L560,1927" stroke="blue" stroke-width="2" />
<path d="M3007,5328 L2847,1376" stroke="blue" stroke-width="2" />
<path d="M2091,4369 L1619,1701" stroke="blue" stroke-width="2" />
<path d="M480,3543 L759,2976" stroke="blue" stroke-width="2" />
<path d="M1354,4351 L787,1736" stroke="blue" stroke-width="2" />
<path d="M421,4906 L873,3199" stroke="blue" stroke-width="2" />
<path d="M2580,1316 L2728,3093" stroke="blue" stroke-width="2" />
<path d="M3126,2767 L514,5207" stroke="blue" stroke-width="2" />
<path d="M2401,89 L3134,2397" stroke="blue" stroke-width="2" />
<path d="M2021,2827 L2886,2746" stroke="blue" stroke-width="2" />
<path d="M2539,1995 L228,281" stroke="blue" stroke-width="2" />
<path d="M2807,3956 L566,61" stroke="blue" stroke-width="2" />
<path d="M2717,4319 L1932,1233" stroke="blue" stroke-width="2" />
<path d="M2535,1091 L429,5009" stroke="blue" stroke-width="2" />
<path d="M2714,2229 L2022,4137" stroke="blue" stroke-width="2" />
<path d="M246,2829 L2674,3218" stroke="blue" stroke-width="2" />
<path d="M1320,697 L1476,5211" stroke="blue" stroke-width="2" />
<path d="M2540,120 L1739,3911" stroke="blue" stroke-width="2" />
<path d="M771,1455 L2564,119" stroke="blue" stroke-width="2" />
<path d="M1837,5386 L2075,5455" stroke="blue" stroke-width="2" />
<path d="M186,313 L427,5424" stroke="blue" stroke-width="2" />
<path d="M289,5024 L2563,2019" stroke="blue" stroke-width="2" />
<path d="M2356,1007 L2572,590" stroke="blue" stroke-width="2" />
<path d="M2144,1699 L2771,865" stroke="blue" stroke-width="2" />
<path d="M1406,632 L359,5300" stroke="blue" stroke-width="2" />
<path d="M959,529 L3056,2479" stroke="blue" stroke-width="2" />
<path d="M3106,2391 L372,5422" stroke="blue" stroke-width="2" />
<path d="M2570,3739 L221,929" stroke="blue" stroke-width="2" />
<path d="M675,5453 L605,889" stroke="blue" stroke-width="2" />
<path d="M1850,953 L805,4622" stroke="blue" stroke-width="2" />
<path d="M2995,1199 L128,3403" stroke="blue" stroke-width="2" />
<path d="M2589,5016 L935,1191" stroke="blue" stroke-width="2" />
<path d="M2591,2512 L2844,1652" stroke="blue" stroke-width="2" />
<path d="M2258,1927 L1768,2330" stroke="blue" stroke-width="2" />
<path d="M390,4794 L1917,3394" stroke="blue" stroke-width="2" />
<path d="M2336,3246 L2546,3143" stroke="blue" stroke-width="2" />
<path d="M3005,5056 L930,2935" stroke="blue" stroke-width="2" />
<path d="M1557,4790 L569,3928" stroke="blue" stroke-width="2" />
<path d="M224,1770 L189,5032" stroke="blue" stroke-width="2" />
<path d="M1136,3892 L1038,547" stroke="blue" stroke-width="2" />
<path d="M870,4076 L1209,659" stroke="blue" stroke-width="2" />
<path d="M482,1482 L2958,1244" stroke="blue" stroke-width="2" />
<path d="M2525,4251 L1224,5503" stroke="blue" stroke-width="2" />
<path d="M1855,4695 L470,2801" stroke="blue" stroke-width="2" />
<path d="M398,4415 L2496,1626" stroke="blue" stroke-width="2" />
<path d="M895,921 L55,5258" stroke="blue" stroke-width="2" />
<path d="M2473,3693 L426,57" stroke="blue" stroke-width="2" />
<path d="M2489,3933 L2120,2378" stroke="blue" stroke-width="2" />
<path d="M1826,2335 L2696,4606" stroke="blue" stroke-width="2" />
<path d="M1054,1139 L117,1476" stroke="blue" stroke-width="2" />
<path d="M2107,1679 L2130,482" stroke="blue" stroke-width="2" />
<path d="M2814,4570 L3100,1354" stroke="blue" stroke-width="2" />
<path d="M2724,4624 L465,172" stroke="blue" stroke-width="2" />
<path d="M2234,2523 L2433,1512" stroke="blue" stroke-width="2" />
<path d="M1904,3717 L1672,688" stroke="blue" stroke-width="2" />
<path d="M2306,1252 L2337,390" stroke="blue" stroke-width="2" />
<path d="M2015,5421 L637,1120" stroke="blue" stroke-width="2" />
<path d="M1824,146 L581,436" stroke="blue" stroke-width="2" />
<path d="M2330,221 L2627,5080" stroke="blue" stroke-width="2" />
<path d="M1711,926 L1770,5293" stroke="blue" stroke-width="2" />
<path d="M2121,3699 L3094,3094" stroke="blue" stroke-width="2" />
<path d="M1771,4952 L1287,1406" stroke="blue" stroke-width="2" />
<path d="M943,3544 L2263,5118" stroke="blue" stroke-width="2" />
<path d="M2928,3075 L3137,4261" stroke="blue" stroke-width="2" />
<path d="M237,2042 L2970,2571" stroke="blue" stroke-width="2" />
<path d="M661,1320 L778,4562" stroke="blue" stroke-width="2" />
<path d="M1097,1308 L1634,2728" stroke="blue" stroke-width="2" />
<path d="M1349,5053 L1854,2521" stroke="blue" stroke-width="2" />
<path d="M2748,1338 L2014,4177" stroke="blue" stroke-width="2" />
<path d="M1510,2759 L322,3340" stroke="blue" stroke-width="2" />
<path d="M1963,1389 L1651,2434" stroke="blue" stroke-width="2" />
<path d="M3055,4245 L382,2028" stroke="blue" stroke-width="2" />
<path d="M646,245 L2596,5267" stroke="blue" stroke-width="2" />
<path d="M2922,977 L547,1189" stroke="blue" stroke-width="2" />
<path d="M356,722 L219,4387" stroke="blue" stroke-width="2" />
<path d="M283,3079 L1445,1655" stroke="blue" stroke-width="2" />
<path d="M2663,2078 L2071,4922" stroke="blue" stroke-width="2" />
<path d="M2896,2557 L3058,63" stroke="blue" stroke-width="2" />
<path d="M187,4754 L2486,2352" stroke="blue" stroke-width="2" />
<path d="M1747,2953 L1513,3232" stroke="blue" stroke-width="2" />
<path d="M2487,424 L806,405" stroke="blue" stroke-width="2" />
<path d="M1453,4385 L3082,2191" stroke="blue" stroke-width="2" />
<path d="M121,4992 L36,1192" stroke="blue" stroke-width="2" />
<path d="M1898,5361 L1832,2785" stroke="blue" stroke-width="2" />
<path d="M986,820 L1736,5291" stroke="blue" stroke-width="2" />
<path d="M1428,643 L1004,256" stroke="blue" stroke-width="2" />
<path d="M152,5289 L1961,939" stroke="blue" stroke-width="2" />
<path d="M174,839 L1212,3868" stroke="blue" stroke-width="2" />
<path d="M579,132 L2955,4305" stroke="blue" stroke-width="2" />
<path d="M467,717 L263,3336" stroke="blue" stroke-width="2" />
<path d="M2594,1809 L2737,3989" stroke="blue" stroke-width="2" />
<path d="M477,2080 L715,5093" stroke="blue" stroke-width="2" />
<path d="M1318,5142 L1744,3531" stroke="blue" stroke-width="2" />
<path d="M789,1415 L1464,4393" stroke="blue" stroke-width="2" />
<path d="M1831,4116 L2162,2983" stroke="blue" stroke-width="2" />
<path d="M748,1422 L1426,3781" stroke="blue" stroke-width="2" />
<path d="M478,2327 L87,3763" stroke="blue" stroke-width="2" />
<path d="M322,1393 L2593,735" stroke="blue" stroke-width="2" />
<path d="M544,2945 L2999,3120" stroke="blue" stroke-width="2" />
<path d="M2094,5152 L2203,132" stroke="blue" stroke-width="2" />
<path d="M98,3313 L3129,1865" stroke="blue" stroke-width="2" />
<path d="M582,581 L2045,1279" stroke="blue" stroke-width="2" />
<path d="M2718,1064 L1805,5243" stroke="blue" stroke-width="2" />
<path d="M2070,2919 L2044,4820" stroke="blue" stroke-width="2" />
<path d="M2662,2914 L2357,3810" stroke="blue" stroke-width="2" />
<path d="M2430,3552 L457,4734" stroke="blue" stroke-width="2" />
<path d="M2665,4041 L553,3257" stroke="blue" stroke-width="2" />
<path d="M255,3033 L1798,4159" stroke="blue" stroke-width="2" />
<path d="M2221,694 L2500,4796" stroke="blue" stroke-width="2" />
<path d="M2990,4319 L1051,2605" stroke="blue" stroke-width="2" />
<path d="M1503,2397 L2687,128" stroke="blue" stroke-width="2" />
<path d="M2361,3981 L180,1536" stroke="blue" stroke-width="2" />
<path d="M2495,4597 L1544,3691" stroke="blue" stroke-width="2" />
<path d="M455,2294 L2064,632" stroke="blue" stroke-width="2" />
<path d="M662,2282 L213,967" stroke="blue" stroke-width="2" />
<path d="M1223,2071 L1320,1832" stroke="blue" stroke-width="2" />
<path d="M2333,2850 L2543,3413" stroke="blue" stroke-width="2" />
<path d="M2816,2438 L2755,4694" stroke="blue" stroke-width="2" />
<path d="M2597,1489 L1311,5453" stroke="blue" stroke-width="2" />
<path d="M2344,2065 L1125,928" stroke="blue" stroke-width="2" />
<path d="M2146,4085 L198,5174" stroke="blue" stroke-width="2" />
<path d="M2649,3032 L2296,4390" stroke="blue" stroke-width="2" />
<path d="M1761,2890 L3155,2101" stroke="blue" stroke-width="2" />
<path d="M2274,296 L2384,497" stroke="blue" stroke-width="2" />
<path d="M2211,4660 L2153,2412" stroke="blue" stroke-width="2" />
<path d="M1936,5063 L1093,4015" stroke="blue" stroke-width="2" />
<path d="M1938,3348 L553,2179" stroke="blue" stroke-width="2" />
<path d="M1948,5310 L472,3944" stroke="blue" stroke-width="2" />
<path d="M1666,2876 L1702,4392" stroke="blue" stroke-width="2" />
<path d="M180,2138 L2113,5136" stroke="blue" stroke-width="2" />
<path d="M2988,5004 L1198,2185" stroke="blue" stroke-width="2" />
<path d="M2814,3220 L1481,97" stroke="blue" stroke-width="2" />
<path d="M657,2156 L430,1605" stroke="blue" stroke-width="2" />
<path d="M1718,2394 L2081,1541" stroke="blue" stroke-width="2" />
<path d="M2730,2993 L1874,51" stroke="blue" stroke-width="2" />
<path d="M3008,266 L3061,4708" stroke="blue" stroke-width="2" />
<path d="M2920,3392 L3105,3575" stroke="blue" stroke-width="2" />
<path d="M2282,3055 L2880,3742" stroke="blue" stroke-width="2" />
<path d="M2008,1190 L1220,5301" stroke="blue" stroke-width="2" />
<path d="M2509,2050 L524,425" stroke="blue" stroke-width="2" />
<path d="M671,1784 L1736,3125" stroke="blue" stroke-width="2" />
<path d="M2048,1649 L1155,3467" stroke="blue" stroke-width="2" />
<path d="M368,287 L1084,3017" stroke="blue" stroke-width="2" />
<path d="M2639,37 L1286,4534" stroke="blue" stroke-width="2" />
<path d="M1853,1205 L2576,1989" stroke="blue" stroke-width="2" />
<path d="M2725,1138 L402,1491" stroke="blue" stroke-width="2" />
<path d="M3024,2447 L2602,4021" stroke="blue" stroke-width="2" />
<path d="M1879,2887 L1999,3873" stroke="blue" stroke-width="2" />
<path d="M90,4786 L501,910" stroke="blue" stroke-width="2" />
<path d="M458,2145 L112,5150" stroke="blue" stroke-width="2" />
<path d="M2205,3445 L2903,4053" stroke="blue" stroke-width="2" />
<path d="M2136,748 L3148,1362" stroke="blue" stroke-width="2" />
<path d="M897,5403 L2188,4722" stroke="blue" stroke-width="2" />
<path d="M774,519 L244,1909" stroke="blue" stroke-width="2" />
<path d="M2240,2440 L2596,1609" stroke="blue" stroke-width="2" />
<path d="M876,108 L2931,1644" stroke="blue" stroke-width="2" />
<path d="M602,1652 L1107,4801" stroke="blue" stroke-width="2" />
<path d="M1469,2309 L193,3893" stroke="blue" stroke-width="2" />
<path d="M2164,4557 L1076,5335" stroke="blue" stroke-width="2" />
<path d="M1604,1580 L2771,743" stroke="blue" stroke-width="2" />
<path d="M1845,3064 L1546,4152" stroke="blue" stroke-width="2" />
<path d="M2340,2755 L1237,3928" stroke="blue" stroke-width="2" />
<path d="M2020,4391 L1123,4256" stroke="blue" stroke-width="2" />
<path d="M1376,4721 L3046,3611" stroke="blue" stroke-width="2" />
<path d="M1351,4724 L1624,4984" stroke="blue" stroke-width="2" />
<path d="M2851,942 L1165,4111" stroke="blue" stroke-width="2" />
<path d="M772,1651 L1739,670" stroke="blue" stroke-width="2" />
<path d="M2796,1965 L1647,753" stroke="blue" stroke-width="2" />
<path d="M2521,987 L783,282" stroke="blue" stroke-width="2" />
<path d="M1565,560 L896,3885" stroke="blue" stroke-width="2" />
<path d="M2416,3482 L1871,4009" stroke="blue" stroke-width="2" />
<path d="M1707,4216 L2730,5259" stroke="blue" stroke-width="2" />
<path d="M1102,2583 L216,4825" stroke="blue" stroke-width="2" />
<path d="M431,479 L2777,104" stroke="blue" stroke-width="2" />
<path d="M2790,2011 L1637,2549" stroke="blue" stroke-width="2" />
<path d="M2811,4386 L189,4312" stroke="blue" stroke-width="2" />
<path d="M2396,4926 L593,3188" stroke="blue" stroke-width="2" />
<path d="M276,565 L1844,4928" stroke="blue" stroke-width="2" />
<path d="M1151,1487 L2672,4879" stroke="blue" stroke-width="2" />
<path d="M443,1594 L1614,4075" stroke="blue" stroke-width="2" />
<path d="M2065,1404 L158,1502" stroke="blue" stroke-width="2" />
<path d="M425,1791 L1762,52" stroke="blue" stroke-width="2" />
<path d="M326,1538 L2737,3504" stroke="blue" stroke-width="2" />
<path d="M499,4990 L915,2525" stroke="blue" stroke-width="2" />
<path d="M226,4369 L1387,5189" stroke="blue" stroke-width="2" />
<path d="M728,2947 L1942,5505" stroke="blue" stroke-width="2" />
<path d="M2459,5022 L1424,425" stroke="blue" stroke-width="2" />
<path d="M1356,643 L1529,2372" stroke="blue" stroke-width="2" />
<path d="M1436,2787 L174,3851" stroke="blue" stroke-width="2" />
<path d="M981,1415 L2523,3949" stroke="blue" stroke-width="2" />
<path d="M938,2320 L2043,2782" stroke="blue" stroke-width="2" />
<path d="M2181,2623 L2694,3941" stroke="blue" stroke-width="2" />
<path d="M2279,4811 L898,4557" stroke="blue" stroke-width="2" />
<path d="M1890,506 L1089,2455" stroke="blue" stroke-width="2" />
<path d="M1831,1148 L1207,3577" stroke="blue" stroke-width="2" />
<path d="M1385,1604 L2447,5119" stroke="blue" stroke-width="2" />
<path d="M672,3437 L860,4235" stroke="blue" stroke-width="2" />
<path d="M587,3193 L327,4665" stroke="blue" stroke-width="2" />
<path d="M231,1305 L2090,3385" stroke="blue" stroke-width="2" />
<path d="M955,821 L365,3241" stroke="blue" stroke-width="2" />
<path d="M2921,4606 L940,3063" stroke="blue" stroke-width="2" />
<path d="M845,2664 L1681,4462" stroke="blue" stroke-width="2" />
<path d="M1270,101 L2724,1548" stroke="blue" stroke-width="2" />
<path d="M2527,2348 L2158,1259" stroke="blue" stroke-width="2" />
<path d="M2422,113 L944,3084" stroke="blue" stroke-width="2" />
<path d="M1619,5302 L1750,3535" stroke="blue" stroke-width="2" />
<path d="M1507,240 L2602,3979" stroke="blue" stroke-width="2" />
<path d="M2115,2904 L1062,3920" stroke="blue" stroke-width="2" />
<path d="M2100,4941 L1395,3087" stroke="blue" stroke-width="2" />
<path d="M1886,4841 L51,4267" stroke="blue" stroke-width="2" />
<path d="M865,3889 L608,1220" stroke="blue" stroke-width="2" />
<path d="M452,1746 L290,4553" stroke="blue" stroke-width="2" />
<path d="M2996,1790 L2473,1751" stroke="blue" stroke-width="2" />
<path d="M272,241 L2572,4350" stroke="blue" stroke-width="2" />
<path d="M489,3667 L2245,4745" stroke="blue" stroke-width="2" />
<path d="M2731,5393 L386,3930" stroke="blue" stroke-width="2" />
<path d="M2298,4318 L1236,440" stroke="blue" stroke-width="2" />
<path d="M927,3237 L1845,1356" stroke="blue" stroke-width="2" />
<path d="M162,801 L2029,5447" stroke="blue" stroke-width="2" />
<path d="M452,1035 L2697,2057" stroke="blue" stroke-width="2" />
<path d="M2666,2580 L3024,4234" stroke="blue" stroke-width="2" />
<path d="M610,1311 L1612,5087" stroke="blue" stroke-width="2" />
<path d="M2575,134 L580,3470" stroke="blue" stroke-width="2" />
<path d="M3064,218 L2683,3029" stroke="blue" stroke-width="2" />
<path d="M1895,2667 L2664,4891" stroke="blue" stroke-width="2" />
<path d="M2148,177 L114,3566" stroke="blue" stroke-width="2" />
<path d="M2256,718 L758,4517" stroke="blue" stroke-width="2" />
<path d="M748,4476 L722,621" stroke="blue" stroke-width="2" />
<path d="M1559,119 L240,2670" stroke="blue" stroke-width="2" />
<path d="M817,3567 L1982,1757" stroke="blue" stroke-width="2" />
<path d="M1208,3784 L137,3769" stroke="blue" stroke-width="2" />
<path d="M2032,1209 L895,2040" stroke="blue" stroke-width="2" />
<path d="M1869,2391 L342,1066" stroke="blue" stroke-width="2" />
<path d="M618,3525 L2735,4277" stroke="blue" stroke-width="2" />
<path d="M711,5174 L2652,3091" stroke="blue" stroke-width="2" />
<path d="M1422,176 L2583,68" stroke="blue" stroke-width="2" />
<path d="M2592,2281 L2267,1879" stroke="blue" stroke-width="2" />
<path d="M2296,3368 L463,2587" stroke="blue" stroke-width="2" />
<path d="M2141,3285 L2481,3213" stroke="blue" stroke-width="2" />
<path d="M1570,4617 L800,4958" stroke="blue" stroke-width="2" />
<path d="M2850,4752 L1720,598" stroke="blue" stroke-width="2" />
<path d="M2347,867 L2898,2576" stroke="blue" stroke-width="2" />
<path d="M1909,2717 L1089,1324" stroke="blue" stroke-width="2" />
<path d="M2751,321 L811,2171" stroke="blue" stroke-width="2" />
<path d="M2475,443 L2387,138" stroke="blue" stroke-width="2" />
<path d="M701,3678 L2591,4857" stroke="blue" stroke-width="2" />
<path d="M428,522 L2950,5123" stroke="blue" stroke-width="2" />
<path d="M2646,2971 L993,705" stroke="blue" stroke-width="2" />
<path d="M1283,2656 L2374,1299" stroke="blue" stroke-width="2" />
<path d="M2803,239 L2868,3018" stroke="blue" stroke-width="2" />
<path d="M2834,5361 L586,4064" stroke="blue" stroke-width="2" />
<path d="M936,3584 L19,2904" stroke="blue" stroke-width="2" />
<path d="M432,3611 L2869,3056" stroke="blue" stroke-width="2" />
<path d="M271,5057 L3003,3394" stroke="blue" stroke-width="2" />
<path d="M916,590 L1847,2108" stroke="blue" stroke-width="2" />
<path d="M1835,4321 L1628,3126" stroke="blue" stroke-width="2" />
<path d="M190,3017 L1828,4829" stroke="blue" stroke-width="2" />
<path d="M83,2660 L1051,4154" stroke="blue" stroke-width="2" />
<path d="M2609,2987 L614,482" stroke="blue" stroke-width="2" />
<path d="M80,3566 L2979,1642" stroke="blue" stroke-width="2" />
<path d="M0,0 L3156,0" stroke="red" stroke-width="10" />
<path d="M3156,0 L3156,5508" stroke="red" stroke-width="10" />
<path d="M0,5508 L3156,5508" stroke="red" stroke-width="10" />
<path d="M0,5508 L0,0" stroke="red" stroke-width="10" />
</svg>