<?xml version="1.0" encoding="UTF-8"?>
<svg xmlns="http://www.w3.org/2000/svg" xmlns:xlink="http://www.w3.org/1999/xlink"
     width="10000" height="10000" viewBox="0 0 10000 10000">
<defs>
</defs>
<path d="M1493,782 L2135,2008" stroke="blue" stroke-width="2" />
<path d="M2154,1435 L1951,122" stroke="blue" stroke-width="2" />
<path d="M2116,1497 L746,882" stroke="blue" stroke-width="2" />
<path d="M1115,96 L190,1651" stroke="blue" stroke-width="2" />
<path d="M2408,1329 L1009,2300" stroke="blue" stroke-width="2" />
<path d="M546,1769 L2163,799" stroke="blue" stroke-width="2" />
<path d="M2214,2832 L1054,229" stroke="blue" stroke-width="2" />
<path d="M158,2763 L1346,1537" stroke="blue" stroke-width="2" />
<path d="M614,2443 L38,1112" stroke="blue" stroke-width="2" />
<path d="M150,1580 L482,1969" stroke="blue" stroke-width="2" />
<path d="M952,2749 L1957,1657" stroke="blue" stroke-width="2" />
<path d="M1136,2213 L899,2537" stroke="blue" stroke-width="2" />
<path d="M350,1309 L989,160" stroke="blue" stroke-width="2" />
<path d="M2110,1610 L366,1470" stroke="blue" stroke-width="2" />
<path d="M922,94 L1230,2393" stroke="blue" stroke-width="2" />
<path d="M278,508 L1281,1982" stroke="blue" stroke-width="2" />
<path d="M2433,1433 L375,1163" stroke="blue" stroke-width="2" />
<path d="M476,563 L742,1419" stroke="blue" stroke-width="2" />
<path d="M1753,419 L1854,617" stroke="blue" stroke-width="2" />
<path d="M2441,2805 L1809,1263" stroke="blue" stroke-width="2" />
<path d="M1064,1734 L2174,843" stroke="blue" stroke-width="2" />
<path d="M444,223 L893,2271" stroke="blue" stroke-width="2" />
<path d="M1297,2898 L1286,975" stroke="blue" stroke-width="2" />
<path d="M1566,69 L112,191" stroke="blue" stroke-width="2" />
<path d="M722,1223 L1520,2109" stroke="blue" stroke-width="2" />
<path d="M1283,353 L853,2098" stroke="blue" stroke-width="2" />
<path d="M2203,1862 L306,346" stroke="blue" stroke-width="2" />
<path d="M1771,707 L2327,461" stroke="blue" stroke-width="2" />
<path d="M2030,2406 L1547,2638" stroke="blue" stroke-width="2" />
<path d="M1896,241 L236,868" stroke="blue" stroke-width="2" />
<path d="M2010,337 L165,580" stroke="blue" stroke-width="2" />
<path d="M1824,197 L921,1640" stroke="blue" stroke-width="2" />
<path d="M1566,1924 L55,203" stroke="blue" stroke-width="2" />
<path d="M2270,1798 L436,1973" stroke="blue" stroke-width="2" />
<path d="M273,1237 L1788,2973" stroke="blue" stroke-width="2" />
<path d="M1185,481 L734,743" stroke="blue" stroke-width="2" />
<path d="M1380,780 L2372,2495" stroke="blue" stroke-width="2" />
<path d="M1946,421 L2012,1536" stroke="blue" stroke-width="2" />
<path d="M1446,2386 L793,144" stroke="blue" stroke-width="2" />
<path d="M578,62 L1691,1852" stroke="blue" stroke-width="2" />
<path d="M1159,1952 L1738,2355" stroke="blue" stroke-width="2" />
<path d="M994,1056 L577,402" stroke="blue" stroke-width="2" />
<path d="M2416,188 L1509,2046" stroke="blue" stroke-width="2" />
<path d="M1656,1193 L1581,2822" stroke="blue" stroke-width="2" />
<path d="M1374,2876 L1513,2060" stroke="blue" stroke-width="2" />
<path d="M1734,2378 L2207,1848" stroke="blue" stroke-width="2" />
<path d="M698,995 L2,1399" stroke="blue" stroke-width="2" />
<path d="M1078,2151 L243,524" stroke="blue" stroke-width="2" />
<path d="M2332,2243 L1071,877" stroke="blue" stroke-width="2" />
<path d="M607,1909 L1633,2018" stroke="blue" stroke-width="2" />
<path d="M1659,1021 L571,2888" stroke="blue" stroke-width="2" />
<path d="M489,2859 L1195,1744" stroke="blue" stroke-width="2" />
<path d="M823,2505 L1953,1980" stroke="blue" stroke-width="2" />
<path d="M667,1501 L544,1051" stroke="blue" stroke-width="2" />
<path d="M374,2353 L663,1003" stroke="blue" stroke-width="2" />
<path d="M384,2576 L148,1803" stroke="blue" stroke-width="2" />
<path d="M2146,434 L262,2561" stroke="blue" stroke-width="2" />
<path d="M1448,2493 L175,1308" stroke="blue" stroke-width="2" />
<path d="M674,1614 L100,2134" stroke="blue" stroke-width="2" />
<path d="M625,2222 L1262,1359" stroke="blue" stroke-width="2" />
<path d="M1546,472 L421,2217" stroke="blue" stroke-width="2" />
<path d="M904,512 L371,1774" stroke="blue" stroke-width="2" />
<path d="M2422,2503 L2075,93" stroke="blue" stroke-width="2" />
<path d="M1870,2779 L1206,1695" stroke="blue" stroke-width="2" />
<path d="M1144,2871 L2256,1037" stroke="blue" stroke-width="2" />
<path d="M329,1418 L811,1709" stroke="blue" stroke-width="2" />
<path d="M1893,2122 L1240,1068" stroke="blue" stroke-width="2" />
<path d="M1238,1492 L313,1102" stroke="blue" stroke-width="2" />
<path d="M818,1018 L2441,175" stroke="blue" stroke-width="2" />
<path d="M1542,2511 L376,1257" stroke="blue" stroke-width="2" />
<path d="M1336,1634 L285,629" stroke="blue" stroke-width="2" />
<path d="M2211,1838 L1352,444" stroke="blue" stroke-width="2" />
<path d="M2051,1833 L709,931" stroke="blue" stroke-width="2" />
<path d="M861,942 L1904,2003" stroke="blue" stroke-width="2" />
<path d="M2135,133 L2094,2134" stroke="blue" stroke-width="2" />
<path d="M1136,1266 L262,1654" stroke="blue" stroke-width="2" />
<path d="M2323,450 L207,2833" stroke="blue" stroke-width="2" />
<path d="M1961,2954 L902,2890" stroke="blue" stroke-width="2" />
<path d="M1566,145 L257,2435" stroke="blue" stroke-width="2" />
<path d="M724,2018 L2003,2834" stroke="blue" stroke-width="2" />
<path d="M1231,1200 L789,897" stroke="blue" stroke-width="2" />
<path d="M700,1293 L1208,328" stroke="blue" stroke-width="2" />
<path d="M285,1793 L810,725" stroke="blue" stroke-width="2" />
<path d="M1951,520 L482,1221" stroke="blue" stroke-width="2" />
<path d="M2086,2182 L2351,945" stroke="blue" stroke-width="2" />
<path d="M530,683 L1737,2522" stroke="blue" stroke-width="2" />
<path d="M1866,504 L647,2966" stroke="blue" stroke-width="2" />
<path d="M1675,2177 L2302,151" stroke="blue" stroke-width="2" />
<path d="M745,2647 L1927,1503" stroke="blue" stroke-width="2" />
<path d="M564,1888 L2125,475" stroke="blue" stroke-width="2" />
<path d="M337,2045 L229,537" stroke="blue" stroke-width="2" />
<path d="M670,2859 L1079,769" stroke="blue" stroke-width="2" />
<path d="M4,2274 L865,1907" stroke="blue" stroke-width="2" />
<path d="M2297,2851 L1820,1875" stroke="blue" stroke-width="2" />
<path d="M1371,1401 L514,376" stroke="blue" stroke-width="2" />
<path d="M153,1338 L408,2594" stroke="blue" stroke-width="2" />
<path d="M110,708 L278,1970" stroke="blue" stroke-width="2" />
<path d="M254,918 L1635,1000" stroke="blue" stroke-width="2" />
<path d="M613,395 L1053,1413" stroke="blue" stroke-width="2" />
<path d="M1170,1467 L2314,1342" stroke="blue" stroke-width="2" />
<path d="M1198,1399 L1459,1540" stroke="blue" stroke-width="2" />
<path d="M1845,255 L1374,891" stroke="blue" stroke-width="2" />
<path d="M656,38 L482,524" stroke="blue" stroke-width="2" />
<path d="M725,345 L456,2085" stroke="blue" stroke-width="2" />
<path d="M38,1747 L859,1966" stroke="blue" stroke-width="2" />
<path d="M2199,1963 L1423,1368" stroke="blue" stroke-width="2" />
<path d="M811,2459 L2380,1773" stroke="blue" stroke-width="2" />
<path d="M2204,1560 L1948,1390" stroke="blue" stroke-width="2" />
<path d="M1754,1794 L116,2154" stroke="blue" stroke-width="2" />
<path d="M1566,565 L1591,662" stroke="blue" stroke-width="2" />
<path d="M2235,2793 L89,134" stroke="blue" stroke-width="2" />
<path d="M876,1045 L1423,276" stroke="blue" stroke-width="2" />
<path d="M731,2855 L413,1783" stroke="blue" stroke-width="2" />
<path d="M499,158 L711,2921" stroke="blue" stroke-width="2" />
<path d="M1111,2207 L230,1914" stroke="blue" stroke-width="2" />
<path d="M1561,1795 L538,156" stroke="blue" stroke-width="2" />
<path d="M1189,630 L1700,1804" stroke="blue" stroke-width="2" />
<path d="M438,1089 L578,2350" stroke="blue" stroke-width="2" />
<path d="M782,2536 L2134,2484" stroke="blue" stroke-width="2" />
<path d="M297,2766 L1611,451" stroke="blue" stroke-width="2" />
<path d="M899,1636 L1093,87" stroke="blue" stroke-width="2" />
<path d="M315,1964 L599,1442" stroke="blue" stroke-width="2" />
<path d="M273,120 L1846,432" stroke="blue" stroke-width="2" />
<path d="M679,661 L2325,1394" stroke="blue" stroke-width="2" />
<path d="M349,1406 L2219,132" stroke="blue" stroke-width="2" />
<path d="M2186,368 L381,769" stroke="blue" stroke-width="2" />
<path d="M1009,884 L1826,2048" stroke="blue" stroke-width="2" />
<path d="M340,1775 L395,730" stroke="blue" stroke-width="2" />
<path d="M2349,622 L1665,2872" stroke="blue" stroke-width="2" />
<path d="M310,106 L1135,1276" stroke="blue" stroke-width="2" />
<path d="M1740,1730 L1923,2322" stroke="blue" stroke-width="2" />
<path d="M1576,2197 L938,77" stroke="blue" stroke-width="2" />
<path d="M1530,2566 L2417,354" stroke="blue" stroke-width="2" />
<path d="M1804,2783 L2370,1350" stroke="blue" stroke-width="2" />
<path d="M2218,689 L1948,2875" stroke="blue" stroke-width="2" />
<path d="M2397,2613 L1589,310" stroke="blue" stroke-width="2" />
<path d="M834,2219 L1830,1961" stroke="blue" stroke-width="2" />
<path d="M585,1066 L204,2755" stroke="blue" stroke-width="2" />
<path d="M637,2726 L2420,835" stroke="blue" stroke-width="2" />
<path d="M262,2710 L1253,332" stroke="blue" stroke-width="2" />
<path d="M324,2274 L286,1682" stroke="blue" stroke-width="2" />
<path d="M216,2907 L1132,1793" stroke="blue" stroke-width="2" />
<path d="M2362,1660 L1631,2725" stroke="blue" stroke-width="2" />
<path d="M2358,6 L655,1153" stroke="blue" stroke-width="2" />
<path d="M1034,2459 L1592,1857" stroke="blue" stroke-width="2" />
<path d="M1119,1835 L2208,2925" stroke="blue" stroke-width="2" />
<path d="M1076,1290 L2069,2373" stroke="blue" stroke-width="2" />
<path d="M2005,809 L1160,845" stroke="blue" stroke-width="2" />
<path d="M2164,2268 L1144,67" stroke="blue" stroke-width="2" />
<path d="M987,394 L1510,1448" stroke="blue" stroke-width="2" />
<path d="M2360,356 L916,1307" stroke="blue" stroke-width="2" />
<path d="M62,376 L1973,1418" stroke="blue" stroke-width="2" />
<path d="M2135,2298 L1714,30" stroke="blue" stroke-width="2" />
<path d="M1715,2545 L2317,1484" stroke="blue" stroke-width="2" />
<path d="M1254,349 L2227,1701" stroke="blue" stroke-width="2" />
<path d="M739,1916 L28,1628" stroke="blue" stroke-width="2" />
<path d="M249,1635 L1230,534" stroke="blue" stroke-width="2" />
<path d="M2318,1749 L853,365" stroke="blue" stroke-width="2" />
<path d="M559,1982 L187,2622" stroke="blue" stroke-width="2" />
<path d="M1586,550 L2374,2330" stroke="blue" stroke-width="2" />
<path d="M2105,1116 L204,1921" stroke="blue" stroke-width="2" />
<path d="M1680,27 L2141,2300" stroke="blue" stroke-width="2" />
<path d="M2374,2419 L2091,2464" stroke="blue" stroke-width="2" />
<path d="M1288,1302 L1183,1101" stroke="blue" stroke-width="2" />
<path d="M1481,1341 L2280,1417" stroke="blue" stroke-width="2" />
<path d="M2369,2788 L1553,1127" stroke="blue" stroke-width="2" />
<path d="M409,571 L1755,2053" stroke="blue" stroke-width="2" />
<path d="M647,189 L1540,770" stroke="blue" stroke-width="2" />
<path d="M1802,2606 L643,1331" stroke="blue" stroke-width="2" />
<path d="M1256,2671 L397,730" stroke="blue" stroke-width="2" />
<path d="M86,51 L47,212" stroke="blue" stroke-width="2" />
<path d="M1803,847 L1244,175" stroke="blue" stroke-width="2" />
<path d="M729,1073 L1665,355" stroke="blue" stroke-width="2" />
<path d="M2250,359 L1012,1421" stroke="blue" stroke-width="2" />
<path d="M1015,94 L2278,167" stroke="blue" stroke-width="2" />
<path d="M10,1466 L226,2663" stroke="blue" stroke-width="2" />
<path d="M67,862 L1767,2460" stroke="blue" stroke-width="2" />
<path d="M1104,1582 L383,801" stroke="blue" stroke-width="2" />
<path d="M2118,2354 L734,489" stroke="blue" stroke-width="2" />
<path d="M1717,2349 L368,2749" stroke="blue" stroke-width="2" />
<path d="M1234,1736 L192,2417" stroke="blue" stroke-width="2" />
<path d="M2009,1792 L1026,1693" stroke="blue" stroke-width="2" />
<path d="M1298,2236 L1929,2205" stroke="blue" stroke-width="2" />
<path d="M2278,314 L2207,338" stroke="blue" stroke-width="2" />
<path d="M1023,1957 L1794,2150" stroke="blue" stroke-width="2" />
<path d="M2304,481 L1646,450" stroke="blue" stroke-width="2" />
<path d="M1627,2628 L1335,946" stroke="blue" stroke-width="2" />
<path d="M705,2978 L2291,2206" stroke="blue" stroke-width="2" />
<path d="M397,993 L2145,2835" stroke="blue" stroke-width="2" />
<path d="M1607,1051 L643,2103" stroke="blue" stroke-width="2" />
<path d="M2246,2080 L1925,2884" stroke="blue" stroke-width="2" />
<path d="M229,1777 L383,2339" stroke="blue" stroke-width="2" />
<path d="M1714,655 L1468,2775" stroke="blue" stroke-width="2" />
<path d="M1909,138 L1813,2857" stroke="blue" stroke-width="2" />
<path d="M244,391 L262,2326" stroke="blue" stroke-width="2" />
<path d="M2237,2286 L2210,609" stroke="blue" stroke-width="2" />
<path d="M582,611 L273,2295" stroke="blue" stroke-width="2" />
<path d="M1224,1404 L2279,1601" stroke="blue" stroke-width="2" />
<path d="M102,2172 L1975,2652" stroke="blue" stroke-width="2" />
<path d="M2405,1238 L1872,2215" stroke="blue" stroke-width="2" />
<path d="M39,638 L439,2020" stroke="blue" stroke-width="2" />
<path d="M1376,2765 L1059,1013" stroke="blue" stroke-width="2" />
<path d="M315,976 L1797,2396" stroke="blue" stroke-width="2" />
<path d="M1168,2118 L173,377" stroke="blue" stroke-width="2" />
<path d="M1102,677 L392,2254" stroke="blue" stroke-width="2" />
<path d="M1143,1675 L498,477" stroke="blue" stroke-width="2" />
<path d="M1182,1229 L150,2931" stroke="blue" stroke-width="2" />
<path d="M1711,257 L707,1269" stroke="blue" stroke-width="2" />
<path d="M1720,1913 L383,2581" stroke="blue" stroke-width="2" />
<path d="M1646,1531 L2175,876" stroke="blue" stroke-width="2" />
<path d="M2128,1023 L1557,1121" stroke="blue" stroke-width="2" />
<path d="M877,2123 L748,1684" stroke="blue" stroke-width="2" />
<path d="M190,1194 L45,1673" stroke="blue" stroke-width="2" />
<path d="M1596,2748 L1508,2687" stroke="blue" stroke-width="2" />
<path d="M2358,487 L2433,1382" stroke="blue" stroke-width="2" />
<path d="M2398,326 L2412,2144" stroke="blue" stroke-width="2" />
<path d="M293,2178 L982,1323" stroke="blue" stroke-width="2" />
<path d="M2282,12 L1454,713" stroke="blue" stroke-width="2" />
<path d="M2380,2683 L903,1897" stroke="blue" stroke-width="2" />
<path d="M1622,1217 L196,2278" stroke="blue" stroke-width="2" />
<path d="M1150,1335 L1094,838" stroke="blue" stroke-width="2" />
<path d="M1382,244 L108,2126" stroke="blue" stroke-width="2" />
<path d="M1196,2080 L802,1642" stroke="blue" stroke-width="2" />
<path d="M138,2844 L338,575" stroke="blue" stroke-width="2" />
<path d="M981,2283 L1385,2868" stroke="blue" stroke-width="2" />
<path d="M1044,2513 L902,2637" stroke="blue" stroke-width="2" />
<path d="M2430,206 L31,88" stroke="blue" stroke-width="2" />
<path d="M821,530 L143,2289" stroke="blue" stroke-width="2" />
<path d="M576,2596 L582,1960" stroke="blue" stroke-width="2" />
<path d="M221,2856 L1831,1630" stroke="blue" stroke-width="2" />
<path d="M277,2410 L2150,764" stroke="blue" stroke-width="2" />
<path d="M76,359 L2142,927" stroke="blue" stroke-width="2" />
<path d="M721,1996 L518,663" stroke="blue" stroke-width="2" />
<path d="M885,605 L2286,1563" stroke="blue" stroke-width="2" />
<path d="M331,2788 L1984,2931" stroke="blue" stroke-width="2" />
<path d="M1961,1903 L2401,1450" stroke="blue" stroke-width="2" />
<path d="M262,1095 L1885,1550" stroke="blue" stroke-width="2" />
<path d="M1971,1850 L1300,569" stroke="blue" stroke-width="2" />
<path d="M343,2450 L87,2307" stroke="blue" stroke-width="2" />
<path d="M1683,2781 L58,1702" stroke="blue" stroke-width="2" />
<path d="M2441,1827 L780,1538" stroke="blue" stroke-width="2" />
<path d="M1769,151 L1026,2524" stroke="blue" stroke-width="2" />
<path d="M1034,2209 L662,2878" stroke="blue" stroke-width="2" />
<path d="M1764,1569 L1462,980" stroke="blue" stroke-width="2" />
<path d="M1900,2723 L2171,2073" stroke="blue" stroke-width="2" />
<path d="M274,1022 L928,55" stroke="blue" stroke-width="2" />
<path d="M1708,2573 L714,2282" stroke="blue" stroke-width="2" />
<path d="M2258,2597 L544,1201" stroke="blue" stroke-width="2" />
<path d="M374,1488 L605,2528" stroke="blue" stroke-width="2" />
<path d="M199,1487 L682,661" stroke="blue" stroke-width="2" />
<path d="M1810,1435 L91,2164" stroke="blue" stroke-width="2" />
<path d="M1713,1260 L1405,1894" stroke="blue" stroke-width="2" />
<path d="M1896,2118 L495,1951" stroke="blue" stroke-width="2" />
<path d="M605,2430 L181,380" stroke="blue" stroke-width="2" />
<path d="M813,215 L917,1129" stroke="blue" stroke-width="2" />
<path d="M868,1567 L127,613" stroke="blue" stroke-width="2" />
<path d="M2063,2512 L2195,1426" stroke="blue" stroke-width="2" />
<path d="M1826,418 L393,1014" stroke="blue" stroke-width="2" />
<path d="M1841,2149 L1733,745" stroke="blue" stroke-width="2" />
<path d="M237,2557 L599,1770" stroke="blue" stroke-width="2" />
<path d="M1014,2387 L1202,2055" stroke="blue" stroke-width="2" />
<path d="M1075,1865 L1368,1484" stroke="blue" stroke-width="2" />
<path d="M1338,2120 L2088,1766" stroke="blue" stroke-width="2" />
<path d="M2333,2178 L1839,913" stroke="blue" stroke-width="2" />
<path d="M1981,1090 L190,2299" stroke="blue" stroke-width="2" />
<path d="M1831,2735 L1592,985" stroke="blue" stroke-width="2" />
<path d="M858,705 L1899,2365" stroke="blue" stroke-width="2" />
<path d="M1924,1695 L1660,2574" stroke="blue" stroke-width="2" />
<path d="M354,1149 L1786,1455" stroke="blue" stroke-width="2" />
<path d="M1063,1748 L341,1986" stroke="blue" stroke-width="2" />
<path d="M126,2721 L915,2321" stroke="blue" stroke-width="2" />
<path d="M867,1364 L1727,494" stroke="blue" stroke-width="2" />
<path d="M2118,1655 L1166,2534" stroke="blue" stroke-width="2" />
<path d="M1944,1004 L290,914" stroke="blue" stroke-width="2" />
<path d="M136,2563 L2185,2467" stroke="blue" stroke-width="2" />
<path d="M1527,2447 L518,2751" stroke="blue" stroke-width="2" />
<path d="M438,109 L1860,587" stroke="blue" stroke-width="2" />
<path d="M254,1055 L1321,402" stroke="blue" stroke-width="2" />
<path d="M2188,500 L1562,205" stroke="blue" stroke-width="2" />
<path d="M1599,1461 L492,486" stroke="blue" stroke-width="2" />
<path d="M1399,1400 L1193,994" stroke="blue" stroke-width="2" />
<path d="M1483,504 L1276,397" stroke="blue" stroke-width="2" />
<path d="M1212,1158 L49,1657" stroke="blue" stroke-width="2" />
<path d="M1802,2231 L1748,2751" stroke="blue" stroke-width="2" />
<path d="M2064,290 L1879,1849" stroke="blue" stroke-width="2" />
<path d="M1299,1743 L120,2298" stroke="blue" stroke-width="2" />
<path d="M1333,552 L1076,2638" stroke="blue" stroke-width="2" />
<path d="M1236,529 L1479,517" stroke="blue" stroke-width="2" />
<path d="M836,573 L1097,975" stroke="blue" stroke-width="2" />
<path d="M2279,1817 L1538,2385" stroke="blue" stroke-width="2" />
<path d="M1479,1768 L72,2662" stroke="blue" stroke-width="2" />
<path d="M2097,1980 L1591,1445" stroke="blue" stroke-width="2" />
<path d="M1487,2959 L1916,929" stroke="blue" stroke-width="2" />
<path d="M1054,1692 L438,1821" stroke="blue" stroke-width="2" />
<path d="M899,381 L677,1881" stroke="blue" stroke-width="2" />
<path d="M521,835 L723,310" stroke="blue" stroke-width="2" />
<path d="M816,237 L1116,425" stroke="blue" stroke-width="2" />
<path d="M430,2806 L2022,617" stroke="blue" stroke-width="2" />
<path d="M1827,197 L891,2981" stroke="blue" stroke-width="2" />
<path d="M567,2534 L467,1256" stroke="blue" stroke-width="2" />
<path d="M51,605 L155,502" stroke="blue" stroke-width="2" />
<path d="M320,2414 L1917,741" stroke="blue" stroke-width="2" />
<path d="M195,1949 L390,688" stroke="blue" stroke-width="2" />
<path d="M1261,2644 L1274,1728" stroke="blue" stroke-width="2" />
<path d="M773,1845 L1113,2102" stroke="blue" stroke-width="2" />
<path d="M1941,444 L1891,585" stroke="blue" stroke-width="2" />
<path d="M1870,2418 L416,746" stroke="blue" stroke-width="2" />
<path d="M1839,1105 L1638,1410" stroke="blue" stroke-width="2" />
<path d="M2209,1619 L2121,2850" stroke="blue" stroke-width="2" />
<path d="M338,2225 L2434,1463" stroke="blue" stroke-width="2" />
<path d="M1520,2641 L611,951" stroke="blue" stroke-width="2" />
<path d="M764,1607 L2430,2134" stroke="blue" stroke-width="2" />
<path d="M1229,131 L1173,1337" stroke="blue" stroke-width="2" />
<path d="M2212,430 L670,826" stroke="blue" stroke-width="2" />
<path d="M1995,2541 L1695,1396" stroke="blue" stroke-width="2" />
<path d="M92,749 L20,1384" stroke="blue" stroke-width="2" />
<path d="M2387,658 L1664,1766" stroke="blue" stroke-width="2" />
<path d="M1269,1667 L2216,338" stroke="blue" stroke-width="2" />
<path d="M176,2340 L922,2943" stroke="blue" stroke-width="2" />
<path d="M931,2720 L200,329" stroke="blue" stroke-width="2" />
<path d="M1013,2573 L1044,2619" stroke="blue" stroke-width="2" />
<path d="M2004,1918 L1104,2387" stroke="blue" stroke-width="2" />
<path d="M1951,1343 L1442,1653" stroke="blue" stroke-width="2" />
<path d="M964,2280 L283,1671" stroke="blue" stroke-width="2" />
<path d="M1532,1327 L384,2706" stroke="blue" stroke-width="2" />
<path d="M538,1376 L1666,1936" stroke="blue" stroke-width="2" />
<path d="M175,2373 L836,1961" stroke="blue" stroke-width="2" />
<path d="M1730,561 L1955,1121" stroke="blue" stroke-width="2" />
<path d="M2333,1720 L1226,1965" stroke="blue" stroke-width="2" />
<path d="M751,2969 L2167,2818" stroke="blue" stroke-width="2" />
<path d="M1879,1413 L1068,1464" stroke="blue" stroke-width="2" />
<path d="M1877,2342 L120,1237" stroke="blue" stroke-width="2" />
<path d="M2067,500 L2166,1985" stroke="blue" stroke-width="2" />
<path d="M1255,1752 L148,1314" stroke="blue" stroke-width="2" />
<path d="M1366,1278 L1294,138" stroke="blue" stroke-width="2" />
<path d="M901,1837 L298,418" stroke="blue" stroke-width="2" />
<path d="M2042,1831 L2364,1548" stroke="blue" stroke-width="2" />
<path d="M955,2084 L1363,2018" stroke="blue" stroke-width="2" />
<path d="M546,2622 L2384,2661" stroke="blue" stroke-width="2" />
<path d="M1235,1276 L324,718" stroke="blue" stroke-width="2" />
<path d="M362,1319 L430,186" stroke="blue" stroke-width="2" />
<path d="M1008,610 L1164,2461" stroke="blue" stroke-width="2" />
<path d="M1556,656 L1373,2561" stroke="blue" stroke-width="2" />
<path d="M2124,1641 L350,1639" stroke="blue" stroke-width="2" />
<path d="M1732,352 L1286,471" stroke="blue" stroke-width="2" />
<path d="M229,2248 L2184,1556" stroke="blue" stroke-width="2" />
<path d="M2328,1162 L293,1100" stroke="blue" stroke-width="2" />
<path d="M887,2691 L1283,2741" stroke="blue" stroke-width="2" />
<path d="M1956,1492 L1372,2010" stroke="blue" stroke-width="2" />
<path d="M1718,2290 L410,2664" stroke="blue" stroke-width="2" />
<path d="M1786,707 L376,297" stroke="blue" stroke-width="2" />
<path d="M1249,2110 L1125,1288" stroke="blue" stroke-width="2" />
<path d="M2394,813 L322,1297" stroke="blue" stroke-width="2" />
<path d="M236,1290 L1231,449" stroke="blue" stroke-width="2" />
<path d="M2265,2089 L1153,2004" stroke="blue" stroke-width="2" />
<path d="M217,2934 L2045,2080" stroke="blue" stroke-width="2" />
<path d="M1909,1409 L1964,878" stroke="blue" stroke-width="2" />
<path d="M280,1864 L2342,2643" stroke="blue" stroke-width="2" />
<path d="M1003,465 L1883,276" stroke="blue" stroke-width="2" />
<path d="M2360,640 L2270,217" stroke="blue" stroke-width="2" />
<path d="M2405,1328 L1186,2980" stroke="blue" stroke-width="2" />
<path d="M913,1565 L1701,2735" stroke="blue" stroke-width="2" />
<path d="M1764,577 L807,663" stroke="blue" stroke-width="2" />
<path d="M817,1951 L536,1696" stroke="blue" stroke-width="2" />
<path d="M77,313 L1309,1577" stroke="blue" stroke-width="2" />
<path d="M702,2273 L2327,2163" stroke="blue" stroke-width="2" />
<path d="M799,2747 L1421,2030" stroke="blue" stroke-width="2" />
<path d="M1015,2186 L984,2382" stroke="blue" stroke-width="2" />
<path d="M1120,102 L185,2376" stroke="blue" stroke-width="2" />
<path d="M995,2754 L961,303" stroke="blue" stroke-width="2" />
<path d="M2069,105 L60,290" stroke="blue" stroke-width="2" />
<path d="M1620,2088 L1208,1393" stroke="blue" stroke-width="2" />
<path d="M1116,2035 L407,329" stroke="blue" stroke-width="2" />
<path d="M1833,867 L697,1751" stroke="blue" stroke-width="2" />
<path d="M1068,1760 L1695,176" stroke="blue" stroke-width="2" />
<path d="M598,1262 L2430,1993" stroke="blue" stroke-width="2" />
<path d="M1826,762 L2383,2358" stroke="blue" stroke-width="2" />
<path d="M762,787 L2403,818" stroke="blue" stroke-width="2" />
<path d="M1395,445 L2142,2329" stroke="blue" stroke-width="2" />
<path d="M146,169 L879,467" stroke="blue" stroke-width="2" />
<path d="M618,1395 L2029,1140" stroke="blue" stroke-width="2" />
<path d="M2204,2306 L2023,266" stroke="blue" stroke-width="2" />
<path d="M1488,1549 L783,2016" stroke="blue" stroke-width="2" />
<path d="M1794,2136 L120,2583" stroke="blue" stroke-width="2" />
<path d="M366,1564 L1169,1548" stroke="blue" stroke-width="2" />
<path d="M152,2780 L866,896" stroke="blue" stroke-width="2" />
<path d="M1216,1144 L1334,2535" stroke="blue" stroke-width="2" />
<path d="M12,2951 L124,2289" stroke="blue" stroke-width="2" />
<path d="M774,855 L2325,249" stroke="blue" stroke-width="2" />
<path d="M461,1554 L536,2279" stroke="blue" stroke-width="2" />
<path d="M2161,287 L1173,2190" stroke="blue" stroke-width="2" />
<path d="M2190,1320 L2317,214" stroke="blue" stroke-width="2" />
<path d="M842,343 L2323,2190" stroke="blue" stroke-width="2" />
<path d="M1622,2001 L1155,1418" stroke="blue" stroke-width="2" />
<path d="M573,1994 L1707,1381" stroke="blue" stroke-width="2" />
<path d="M121,932 L577,1279" stroke="blue" stroke-width="2" />
<path d="M1324,938 L1533,2460" stroke="blue" stroke-width="2" />
<path d="M1155,1461 L763,2063" stroke="blue" stroke-width="2" />
<path d="M537,1382 L2014,1070" stroke="blue" stroke-width="2" />
<path d="M2321,2868 L60,2111" stroke="blue" stroke-width="2" />
<path d="M1082,1404 L1946,1795" stroke="blue" stroke-width="2" />
<path d="M1287,2424 L80,2061" stroke="blue" stroke-width="2" />
<path d="M1301,1406 L2002,2401" stroke="blue" stroke-width="2" />
<path d="M844,1131 L1198,2170" stroke="blue" stroke-width="2" />
<path d="M1309,1464 L941,722" stroke="blue" stroke-width="2" />
<path d="M1403,1541 L1366,2529" stroke="blue" stroke-width="2" />
<path d="M114,1146 L2121,1749" stroke="blue" stroke-width="2" />
<path d="M2310,36 L1752,1833" stroke="blue" stroke-width="2" />
<path d="M2438,150 L1849,1104" stroke="blue" stroke-width="2" />
<path d="M979,2177 L2173,140" stroke="blue" stroke-width="2" />
<path d="M129,546 L878,697" stroke="blue" stroke-width="2" />
<path d="M2247,2420 L578,2154" stroke="blue" stroke-width="2" />
<path d="M242,1020 L2238,1839" stroke="blue" stroke-width="2" />
<path d="M591,1988 L1482,1853" stroke="blue" stroke-width="2" />
<path d="M2277,847 L1067,296" stroke="blue" stroke-width="2" />
<path d="M1027,1896 L973,1069" stroke="blue" stroke-width="2" />
<path d="M1753,2710 L2177,1856" stroke="blue" stroke-width="2" />
<path d="M1826,800 L1900,1185" stroke="blue" stroke-width="2" />
<path d="M843,1742 L1216,441" stroke="blue" stroke-width="2" />
<path d="M2422,589 L1251,2969" stroke="blue" stroke-width="2" />
<path d="M2390,448 L688,2212" stroke="blue" stroke-width="2" />
<path d="M2241,1567 L1724,728" stroke="blue" stroke-width="2" />
<path d="M690,1981 L654,1282" stroke="blue" stroke-width="2" />
<path d="M1396,973 L176,1396" stroke="blue" stroke-width="2" />
<path d="M201,2936 L852,1229" stroke="blue" stroke-width="2" />
<path d="M727,118 L520,119" stroke="blue" stroke-width="2" />
<path d="M1574,484 L2393,505" stroke="blue" stroke-width="2" />
<path d="M1138,458 L780,2961" stroke="blue" stroke-width="2" />
<path d="M1120,984 L1673,278" stroke="blue" stroke-width="2" />
<path d="M886,1281 L492,2711" stroke="blue" stroke-width="2" />
<path d="M2441,1191 L1081,1694" stroke="blue" stroke-width="2" />
<path d="M641,1470 L1037,1901" stroke="blue" stroke-width="2" />
<path d="M1121,2066 L273,2626" stroke="blue" stroke-width="2" />
<path d="M269,2462 L1788,1385" stroke="blue" stroke-width="2" />
<path d="M1975,1186 L2021,1331" stroke="blue" stroke-width="2" />
<path d="M373,83 L2437,946" stroke="blue" stroke-width="2" />
<path d="M1272,343 L1201,1896" stroke="blue" stroke-width="2" />
<path d="M2213,970 L509,2277" stroke="blue" stroke-width="2" />
<path d="M720,2214 L603,1660" stroke="blue" stroke-width="2" />
<path d="M1156,1581 L1509,2429" stroke="blue" stroke-width="2" />
<path d="M212,373 L1832,2031" stroke="blue" stroke-width="2" />
<path d="M417,2621 L807,355" stroke="blue" stroke-width="2" />
<path d="M1681,673 L263,744" stroke="blue" stroke-width="2" />
<path d="M392,655 L830,990" stroke="blue" stroke-width="2" />
<path d="M1665,1299 L540,1267" stroke="blue" stroke-width="2" />
<path d="M526,885 L1151,663" stroke="blue" stroke-width="2" />
<path d="M2190,51 L730,384" stroke="blue" stroke-width="2" />
<path d="M1754,1543 L2203,2786" stroke="blue" stroke-width="2" />
<path d="M1804,311 L1934,1438" stroke="blue" stroke-width="2" />
<path d="M1826,1292 L583,124" stroke="blue" stroke-width="2" />
<path d="M400,760 L1813,2699" stroke="blue" stroke-width="2" />
<path d="M1999,2540 L1642,101" stroke="blue" stroke-width="2" />
<path d="M1641,1014 L1426,1186" stroke="blue" stroke-width="2" />
<path d="M2349,1863 L1134,1445" stroke="blue" stroke-width="2" />
<path d="M1770,2735 L1123,1000" stroke="blue" stroke-width="2" />
<path d="M1054,359 L1549,725" stroke="blue" stroke-width="2" />
<path d="M2289,1854 L2369,2348" stroke="blue" stroke-width="2" />
<path d="M2207,5 L249,2960" stroke="blue" stroke-width="2" />
<path d="M2265,1060 L413,2661" stroke="blue" stroke-width="2" />
<path d="M2385,1349 L879,360" stroke="blue" stroke-width="2" />
<path d="M242,971 L2238,2150" stroke="blue" stroke-width="2" />
<path d="M1727,2317 L888,1466" stroke="blue" stroke-width="2" />
<path d="M100,1445 L1455,1066" stroke="blue" stroke-width="2" />
<path d="M4,225 L1713,2525" stroke="blue" stroke-width="2" />
<path d="M131,1691 L1729,2408" stroke="blue" stroke-width="2" />
<path d="M2404,2401 L299,882" stroke="blue" stroke-width="2" />
<path d="M1079,574 L933,2589" stroke="blue" stroke-width="2" />
<path d="M1144,2222 L2093,1189" stroke="blue" stroke-width="2" />
<path d="M1551,1988 L110,337" stroke="blue" stroke-width="2" />
<path d="M2239,2911 L2245,66" stroke="blue" stroke-width="2" />
<path d="M526,125 L249,1766" stroke="blue" stroke-width="2" />
<path d="M1529,1781 L1219,1905" stroke="blue" stroke-width="2" />
<path d="M268,1838 L2161,2908" stroke="blue" stroke-width="2" />
<path d="M2379,1727 L2204,972" stroke="blue" stroke-width="2" />
<path d="M989,2136 L357,2067" stroke="blue" stroke-width="2" />
<path d="M881,2009 L450,1481" stroke="blue" stroke-width="2" />
<path d="M127,2635 L1081,737" stroke="blue" stroke-width="2" />
<path d="M673,393 L1035,1412" stroke="blue" stroke-width="2" />
<path d="M153,1076 L656,2055" stroke="blue" stroke-width="2" />
<path d="M494,2464 L1587,323" stroke="blue" stroke-width="2" />
<path d="M1111,1730 L557,1876" stroke="blue" stroke-width="2" />
<path d="M1667,2273 L2412,496" stroke="blue" stroke-width="2" />
<path d="M1486,791 L643,766" stroke="blue" stroke-width="2" />
<path d="M2393,751 L7,201" stroke="blue" stroke-width="2" />
<path d="M645,161 L1712,624" stroke="blue" stroke-width="2" />
<path d="M1305,259 L2380,1588" stroke="blue" stroke-width="2" />
<path d="M1288,461 L537,1546" stroke="blue" stroke-width="2" />
<path d="M1333,665 L1749,597" stroke="blue" stroke-width="2" />
<path d="M1905,2522 L2066,1153" stroke="blue" stroke-width="2" />
<path d="M1597,2933 L154,982" stroke="blue" stroke-width="2" />
<path d="M2360,249 L1997,565" stroke="blue" stroke-width="2" />
<path d="M113,1304 L265,1522" stroke="blue" stroke-width="2" />
<path d="M209,499 L2118,835" stroke="blue" stroke-width="2" />
<path d="M1563,539 L992,904" stroke="blue" stroke-width="2" />
<path d="M930,2720 L62,417" stroke="blue" stroke-width="2" />
<path d="M1438,294 L2355,2380" stroke="blue" stroke-width="2" />
<path d="M569,113 L768,2063" stroke="blue" stroke-width="2" />
<path d="M1673,67 L971,2781" stroke="blue" stroke-width="2" />
<path d="M2215,2917 L366,883" stroke="blue" stroke-width="2" />
<path d="M1323,508 L500,1698" stroke="blue" stroke-width="2" />
<path d="M334,980 L782,76" stroke="blue" stroke-width="2" />
<path d="M913,30 L1199,772" stroke="blue" stroke-width="2" />
<path d="M2034,1452 L1323,470" stroke="blue" stroke-width="2" />
<path d="M778,255 L1135,851" stroke="blue" stroke-width="2" />
<path d="M1338,2129 L250,1775" stroke="blue" stroke-width="2" />
<path d="M1240,1882 L1158,1601" stroke="blue" stroke-width="2" />
<path d="M229,511 L906,1953" stroke="blue" stroke-width="2" />
<path d="M1939,1350 L2227,272" stroke="blue" stroke-width="2" />
<path d="M2131,1901 L608,363" stroke="blue" stroke-width="2" />
<path d="M279,386 L932,786" stroke="blue" stroke-width="2" />
<path d="M81,824 L43,2286" stroke="blue" stroke-width="2" />
<path d="M827,1438 L940,757" stroke="blue" stroke-width="2" />
<path d="M761,369 L678,1294" stroke="blue" stroke-width="2" />
<path d="M377,2588 L1373,2110" stroke="blue" stroke-width="2" />
<path d="M2011,1262 L307,1122" stroke="blue" stroke-width="2" />
<path d="M619,2967 L684,862" stroke="blue" stroke-width="2" />
<path d="M43,2871 L1750,1739" stroke="blue" stroke-width="2" />
<path d="M307,1996 L2156,1447" stroke="blue" stroke-width="2" />
<path d="M759,831 L966,1736" stroke="blue" stroke-width="2" />
<path d="M2393,1021 L744,1485" stroke="blue" stroke-width="2" />
<path d="M2317,2363 L1221,2332" stroke="blue" stroke-width="2" />
<path d="M56,1228 L1811,216" stroke="blue" stroke-width="2" />
<path d="M2028,2729 L532,858" stroke="blue" stroke-width="2" />
<path d="M835,1653 L1712,316" stroke="blue" stroke-width="2" />
<path d="M2347,2547 L1166,105" stroke="blue" stroke-width="2" />
<path d="M2044,2095 L366,492" stroke="blue" stroke-width="2" />
<path d="M1859,2553 L1987,2457" stroke="blue" stroke-width="2" />
<path d="M1785,2858 L534,674" stroke="blue" stroke-width="2" />
<path d="M2182,163 L13,791" stroke="blue" stroke-width="2" />
<path d="M895,2858 L38,2226" stroke="blue" stroke-width="2" />
<path d="M1400,99 L1928,1056" stroke="blue" stroke-width="2" />
<path d="M2261,2928 L1435,1359" stroke="blue" stroke-width="2" />
<path d="M1673,792 L250,1622" stroke="blue" stroke-width="2" />
<path d="M484,1354 L1664,1238" stroke="blue" stroke-width="2" />
<path d="M2334,1016 L1217,2676" stroke="blue" stroke-width="2" />
<path d="M2280,152 L2145,273" stroke="blue" stroke-width="2" />
<path d="M818,744 L1185,2728" stroke="blue" stroke-width="2" />
<path d="M565,2362 L706,1970" stroke="blue" stroke-width="2" />
<path d="M159,404 L777,1155" stroke="blue" stroke-width="2" />
<path d="M201,2337 L995,1647" stroke="blue" stroke-width="2" />
<path d="M2218,2319 L1564,1222" stroke="blue" stroke-width="2" />
<path d="M1976,864 L1531,32" stroke="blue" stroke-width="2" />
<path d="M669,1049 L1090,1614" stroke="blue" stroke-width="2" />
<path d="M2302,573 L566,813" stroke="blue" stroke-width="2" />
<path d="M837,2547 L122,1414" stroke="blue" stroke-width="2" />
<path d="M2072,230 L670,410" stroke="blue" stroke-width="2" />
<path d="M866,2192 L2173,1888" stroke="blue" stroke-width="2" />
<path d="M1691,1380 L788,1474" stroke="blue" stroke-width="2" />
<path d="M2103,2390 L1455,138" stroke="blue" stroke-width="2" />
<path d="M567,680 L2433,535" stroke="blue" stroke-width="2" />
<path d="M1100,366 L2119,2048" stroke="blue" stroke-width="2" />
<path d="M674,2511 L1085,2222" stroke="blue" stroke-width="2" />
<path d="M881,2200 L2189,1419" stroke="blue" stroke-width="2" />
<path d="M4,1200 L350,167" stroke="blue" stroke-width="2" />
<path d="M589,445 L1100,439" stroke="blue" stroke-width="2" />
<path d="M2318,1954 L1724,1762" stroke="blue" stroke-width="2" />
<path d="M361,2884 L231,2426" stroke="blue" stroke-width="2" />
<path d="M973,1945 L530,1655" stroke="blue" stroke-width="2" />
<path d="M2069,2924 L1090,1210" stroke="blue" stroke-width="2" />
<path d="M40,35 L1165,1315" stroke="blue" stroke-width="2" />
<path d="M2193,708 L2044,531" stroke="blue" stroke-width="2" />
<path d="M279,2573 L1440,1938" stroke="blue" stroke-width="2" />
<path d="M220,2326 L988,1470" stroke="blue" stroke-width="2" />
<path d="M1318,2042 L1938,10" stroke="blue" stroke-width="2" />
<path d="M1258,2722 L1,1531" stroke="blue" stroke-width="2" />
<path d="M978,325 L2348,315" stroke="blue" stroke-width="2" />
<path d="M2030,2373 L1591,144" stroke="blue" stroke-width="2" />
<path d="M1449,389 L2231,125" stroke="blue" stroke-width="2" />
<path d="M445,1184 L1524,2564" stroke="blue" stroke-width="2" />
<path d="M11,2316 L966,1401" stroke="blue" stroke-width="2" />
<path d="M1429,1034 L1525,1861" stroke="blue" stroke-width="2" />
<path d="M1001,1704 L125,911" stroke="blue" stroke-width="2" />
<path d="M532,2906 L202,1185" stroke="blue" stroke-width="2" />
<path d="M1939,1134 L1127,64" stroke="blue" stroke-width="2" />
<path d="M1223,1448 L767,740" stroke="blue" stroke-width="2" />
<path d="M2047,401 L1680,2679" stroke="blue" stroke-width="2" />
<path d="M163,2119 L1361,2758" stroke="blue" stroke-width="2" />
<path d="M718,714 L3,1820" stroke="blue" stroke-width="2" />
<path d="M1066,2856 L785,2842" stroke="blue" stroke-width="2" />
<path d="M692,1897 L1971,924" stroke="blue" stroke-width="2" />
<path d="M707,182 L437,913" stroke="blue" stroke-width="2" />
<path d="M1643,1356 L2089,694" stroke="blue" stroke-width="2" />
<path d="M328,2227 L92,2243" stroke="blue" stroke-width="2" />
<path d="M2000,1095 L1582,1140" stroke="blue" stroke-width="2" />
<path d="M250,787 L854,1372" stroke="blue" stroke-width="2" />
<path d="M2126,2292 L1495,1879" stroke="blue" stroke-width="2" />
<path d="M603,2383 L114,2513" stroke="blue" stroke-width="2" />
<path d="M1235,1086 L923,32" stroke="blue" stroke-width="2" />
<path d="M2408,232 L448,83" stroke="blue" stroke-width="2" />
<path d="M1506,465 L1613,1351" stroke="blue" stroke-width="2" />
<path d="M1924,807 L2128,744" stroke="blue" stroke-width="2" />
<path d="M1870,708 L146,2313" stroke="blue" stroke-width="2" />
<path d="M674,1963 L2236,2175" stroke="blue" stroke-width="2" />
<path d="M1862,509 L2376,1871" stroke="blue" stroke-width="2" />
<path d="M2328,2523 L101,708" stroke="blue" stroke-width="2" />
<path d="M959,1876 L1466,220" stroke="blue" stroke-width="2" />
<path d="M1913,601 L1619,1747" stroke="blue" stroke-width="2" />
<path d="M327,2645 L1500,1479" stroke="blue" stroke-width="2" />
<path d="M347,2347 L287,2594" stroke="blue" stroke-width="2" />
<path d="M1321,2643 L705,2111" stroke="blue" stroke-width="2" />
<path d="M883,1036 L2113,1024" stroke="blue" stroke-width="2" />
<path d="M1741,2692 L1334,82" stroke="blue" stroke-width="2" />
<path d="M0,0 L2443,0" stroke="red" stroke-width="10" />
<path d="M2443,0 L2443,2982" stroke="red" stroke-width="10" />
<path d="M0,2982 L2443,2982" stroke="red" stroke-width="10" />
<path d="M0,2982 L0,0" stroke="red" stroke-width="10" />
</svg>