<?xml version="1.0" encoding="UTF-8"?>
<svg xmlns="http://www.w3.org/2000/svg" xmlns:xlink="http://www.w3.org/1999/xlink"
     width="10000" height="10000" viewBox="0 0 10000 10000">
<defs>
</defs>
<path d="M493,465 L1133,1073" stroke="blue" stroke-width="2" />
<path d="M256,239 L736,771" stroke="blue" stroke-width="2" />
<path d="M1269,502 L408,713" stroke="blue" stroke-width="2" />
<path d="M544,161 L376,423" stroke="blue" stroke-width="2" />
<path d="M308,738 L146,648" stroke="blue" stroke-width="2" />
<path d="M606,878 L566,204" stroke="blue" stroke-width="2" />
<path d="M64,345 L258,914" stroke="blue" stroke-width="2" />
<path d="M1072,79 L532,384" stroke="blue" stroke-width="2" />
<path d="M340,198 L801,407" stroke="blue" stroke-width="2" />
<path d="M913,1126 L61,480" stroke="blue" stroke-width="2" />
<path d="M303,339 L838,764" stroke="blue" stroke-width="2" />
<path d="M950,342 L483,890" stroke="blue" stroke-width="2" />
<path d="M338,29 L560,229" stroke="blue" stroke-width="2" />
<path d="M540,951 L298,456" stroke="blue" stroke-width="2" />
<path d="M1264,821 L1189,609" stroke="blue" stroke-width="2" />
<path d="M93,349 L172,344" stroke="blue" stroke-width="2" />
<path d="M401,339 L36,895" stroke="blue" stroke-width="2" />
<path d="M662,639 L1150,270" stroke="blue" stroke-width="2" />
<path d="M433,202 L1164,494" stroke="blue" stroke-width="2" />
<path d="M995,641 L60,853" stroke="blue" stroke-width="2" />
<path d="M1001,50 L1126,581" stroke="blue" stroke-width="2" />
<path d="M373,383 L1127,405" stroke="blue" stroke-width="2" />
<path d="M961,1003 L768,151" stroke="blue" stroke-width="2" />
<path d="M112,797 L875,1050" stroke="blue" stroke-width="2" />
<path d="M1093,314 L769,887" stroke="blue" stroke-width="2" />
<path d="M857,609 L962,721" stroke="blue" stroke-width="2" />
<path d="M1074,559 L728,517" stroke="blue" stroke-width="2" />
<path d="M122,100 L1244,526" stroke="blue" stroke-width="2" />
<path d="M946,64 L228,261" stroke="blue" stroke-width="2" />
<path d="M808,166 L361,517" stroke="blue" stroke-width="2" />
<path d="M487,497 L752,69" stroke="blue" stroke-width="2" />
<path d="M299,381 L54,377" stroke="blue" stroke-width="2" />
<path d="M335,779 L793,979" stroke="blue" stroke-width="2" />
<path d="M404,838 L263,441" stroke="blue" stroke-width="2" />
<path d="M855,270 L734,361" stroke="blue" stroke-width="2" />
<path d="M349,295 L1224,948" stroke="blue" stroke-width="2" />
<path d="M279,347 L120,568" stroke="blue" stroke-width="2" />
<path d="M835,794 L1160,722" stroke="blue" stroke-width="2" />
<path d="M103,872 L15,469" stroke="blue" stroke-width="2" />
<path d="M1099,343 L224,271" stroke="blue" stroke-width="2" />
<path d="M88,620 L7,368" stroke="blue" stroke-width="2" />
<path d="M763,872 L1219,894" stroke="blue" stroke-width="2" />
<path d="M1172,293 L1128,987" stroke="blue" stroke-width="2" />
<path d="M599,501 L458,708" stroke="blue" stroke-width="2" />
<path d="M602,787 L589,511" stroke="blue" stroke-width="2" />
<path d="M948,609 L6,420" stroke="blue" stroke-width="2" />
<path d="M91,319 L346,997" stroke="blue" stroke-width="2" />
<path d="M381,20 L326,184" stroke="blue" stroke-width="2" />
<path d="M470,884 L278,59" stroke="blue" stroke-width="2" />
<path d="M315,580 L1006,914" stroke="blue" stroke-width="2" />
<path d="M670,859 L57,304" stroke="blue" stroke-width="2" />
<path d="M548,594 L416,292" stroke="blue" stroke-width="2" />
<path d="M519,312 L956,188" stroke="blue" stroke-width="2" />
<path d="M1190,140 L416,258" stroke="blue" stroke-width="2" />
<path d="M837,789 L242,787" stroke="blue" stroke-width="2" />
<path d="M495,632 L70,434" stroke="blue" stroke-width="2" />
<path d="M573,162 L621,618" stroke="blue" stroke-width="2" />
<path d="M230,512 L142,139" stroke="blue" stroke-width="2" />
<path d="M684,20 L508,421" stroke="blue" stroke-width="2" />
<path d="M1202,1018 L593,941" stroke="blue" stroke-width="2" />
<path d="M665,278 L684,739" stroke="blue" stroke-width="2" />
<path d="M370,101 L418,1052" stroke="blue" stroke-width="2" />
<path d="M1210,51 L554,658" stroke="blue" stroke-width="2" />
<path d="M1006,35 L754,569" stroke="blue" stroke-width="2" />
<path d="M1121,796 L406,450" stroke="blue" stroke-width="2" />
<path d="M732,568 L778,996" stroke="blue" stroke-width="2" />
<path d="M343,1104 L1160,544" stroke="blue" stroke-width="2" />
<path d="M291,1053 L1016,852" stroke="blue" stroke-width="2" />
<path d="M558,503 L1163,97" stroke="blue" stroke-width="2" />
<path d="M839,106 L873,624" stroke="blue" stroke-width="2" />
<path d="M865,461 L463,113" stroke="blue" stroke-width="2" />
<path d="M284,396 L828,1089" stroke="blue" stroke-width="2" />
<path d="M1265,285 L1262,199" stroke="blue" stroke-width="2" />
<path d="M945,479 L57,589" stroke="blue" stroke-width="2" />
<path d="M483,928 L1220,69" stroke="blue" stroke-width="2" />
<path d="M1074,515 L434,644" stroke="blue" stroke-width="2" />
<path d="M1235,729 L478,830" stroke="blue" stroke-width="2" />
<path d="M50,689 L1048,269" stroke="blue" stroke-width="2" />
<path d="M1074,306 L1007,255" stroke="blue" stroke-width="2" />
<path d="M209,656 L1079,807" stroke="blue" stroke-width="2" />
<path d="M770,1054 L389,238" stroke="blue" stroke-width="2" />
<path d="M243,100 L921,337" stroke="blue" stroke-width="2" />
<path d="M679,252 L887,685" stroke="blue" stroke-width="2" />
<path d="M10,449 L171,350" stroke="blue" stroke-width="2" />
<path d="M878,287 L803,443" stroke="blue" stroke-width="2" />
<path d="M756,985 L400,977" stroke="blue" stroke-width="2" />
<path d="M660,557 L718,632" stroke="blue" stroke-width="2" />
<path d="M710,847 L218,737" stroke="blue" stroke-width="2" />
<path d="M223,707 L1068,973" stroke="blue" stroke-width="2" />
<path d="M412,810 L315,565" stroke="blue" stroke-width="2" />
<path d="M171,310 L934,792" stroke="blue" stroke-width="2" />
<path d="M9,1061 L716,203" stroke="blue" stroke-width="2" />
<path d="M244,760 L478,407" stroke="blue" stroke-width="2" />
<path d="M274,447 L910,676" stroke="blue" stroke-width="2" />
<path d="M604,1002 L300,589" stroke="blue" stroke-width="2" />
<path d="M366,312 L1074,924" stroke="blue" stroke-width="2" />
<path d="M893,1008 L142,1043" stroke="blue" stroke-width="2" />
<path d="M470,397 L335,288" stroke="blue" stroke-width="2" />
<path d="M922,1018 L191,915" stroke="blue" stroke-width="2" />
<path d="M418,410 L542,655" stroke="blue" stroke-width="2" />
<path d="M28,541 L551,959" stroke="blue" stroke-width="2" />
<path d="M530,24 L1162,1013" stroke="blue" stroke-width="2" />
<path d="M501,589 L432,924" stroke="blue" stroke-width="2" />
<path d="M547,996 L1236,801" stroke="blue" stroke-width="2" />
<path d="M711,714 L1025,480" stroke="blue" stroke-width="2" />
<path d="M988,180 L1148,856" stroke="blue" stroke-width="2" />
<path d="M559,908 L66,121" stroke="blue" stroke-width="2" />
<path d="M508,462 L575,921" stroke="blue" stroke-width="2" />
<path d="M366,100 L292,369" stroke="blue" stroke-width="2" />
<path d="M812,600 L509,841" stroke="blue" stroke-width="2" />
<path d="M1041,287 L902,1049" stroke="blue" stroke-width="2" />
<path d="M14,996 L539,360" stroke="blue" stroke-width="2" />
<path d="M491,589 L43,975" stroke="blue" stroke-width="2" />
<path d="M703,261 L525,85" stroke="blue" stroke-width="2" />
<path d="M439,288 L1223,888" stroke="blue" stroke-width="2" />
<path d="M1139,69 L67,1035" stroke="blue" stroke-width="2" />
<path d="M1240,334 L1179,9" stroke="blue" stroke-width="2" />
<path d="M550,727 L71,1090" stroke="blue" stroke-width="2" />
<path d="M511,627 L28,1012" stroke="blue" stroke-width="2" />
<path d="M56,962 L790,1136" stroke="blue" stroke-width="2" />
<path d="M181,456 L507,276" stroke="blue" stroke-width="2" />
<path d="M1242,974 L504,1061" stroke="blue" stroke-width="2" />
<path d="M1066,134 L1003,209" stroke="blue" stroke-width="2" />
<path d="M1245,996 L987,30" stroke="blue" stroke-width="2" />
<path d="M981,142 L454,731" stroke="blue" stroke-width="2" />
<path d="M463,193 L1105,776" stroke="blue" stroke-width="2" />
<path d="M1178,594 L237,674" stroke="blue" stroke-width="2" />
<path d="M82,388 L929,648" stroke="blue" stroke-width="2" />
<path d="M680,532 L1092,450" stroke="blue" stroke-width="2" />
<path d="M1185,656 L1222,784" stroke="blue" stroke-width="2" />
<path d="M836,314 L1035,38" stroke="blue" stroke-width="2" />
<path d="M633,947 L1077,1077" stroke="blue" stroke-width="2" />
<path d="M785,510 L38,1094" stroke="blue" stroke-width="2" />
<path d="M79,748 L698,1019" stroke="blue" stroke-width="2" />
<path d="M154,888 L212,428" stroke="blue" stroke-width="2" />
<path d="M122,1101 L1130,398" stroke="blue" stroke-width="2" />
<path d="M104,204 L316,934" stroke="blue" stroke-width="2" />
<path d="M301,408 L1233,439" stroke="blue" stroke-width="2" />
<path d="M513,433 L440,1019" stroke="blue" stroke-width="2" />
<path d="M270,711 L1247,543" stroke="blue" stroke-width="2" />
<path d="M305,7 L898,360" stroke="blue" stroke-width="2" />
<path d="M925,1100 L273,740" stroke="blue" stroke-width="2" />
<path d="M172,1049 L70,285" stroke="blue" stroke-width="2" />
<path d="M1101,753 L2,1140" stroke="blue" stroke-width="2" />
<path d="M691,211 L1003,522" stroke="blue" stroke-width="2" />
<path d="M121,139 L662,330" stroke="blue" stroke-width="2" />
<path d="M301,207 L849,414" stroke="blue" stroke-width="2" />
<path d="M221,893 L1127,337" stroke="blue" stroke-width="2" />
<path d="M350,702 L1222,268" stroke="blue" stroke-width="2" />
<path d="M1173,706 L662,273" stroke="blue" stroke-width="2" />
<path d="M58,414 L790,430" stroke="blue" stroke-width="2" />
<path d="M1253,1107 L311,386" stroke="blue" stroke-width="2" />
<path d="M275,1054 L530,96" stroke="blue" stroke-width="2" />
<path d="M373,971 L1036,128" stroke="blue" stroke-width="2" />
<path d="M228,1039 L156,372" stroke="blue" stroke-width="2" />
<path d="M642,689 L480,597" stroke="blue" stroke-width="2" />
<path d="M884,1085 L90,1120" stroke="blue" stroke-width="2" />
<path d="M121,461 L824,446" stroke="blue" stroke-width="2" />
<path d="M1212,866 L450,686" stroke="blue" stroke-width="2" />
<path d="M67,968 L976,1084" stroke="blue" stroke-width="2" />
<path d="M119,585 L504,309" stroke="blue" stroke-width="2" />
<path d="M449,21 L795,181" stroke="blue" stroke-width="2" />
<path d="M925,342 L903,803" stroke="blue" stroke-width="2" />
<path d="M417,1045 L40,394" stroke="blue" stroke-width="2" />
<path d="M1143,227 L506,35" stroke="blue" stroke-width="2" />
<path d="M375,1047 L847,1139" stroke="blue" stroke-width="2" />
<path d="M431,506 L1098,175" stroke="blue" stroke-width="2" />
<path d="M1069,1056 L245,746" stroke="blue" stroke-width="2" />
<path d="M1129,783 L907,1115" stroke="blue" stroke-width="2" />
<path d="M950,499 L231,24" stroke="blue" stroke-width="2" />
<path d="M246,649 L1175,766" stroke="blue" stroke-width="2" />
<path d="M701,483 L791,850" stroke="blue" stroke-width="2" />
<path d="M46,82 L901,681" stroke="blue" stroke-width="2" />
<path d="M1039,523 L983,953" stroke="blue" stroke-width="2" />
<path d="M1230,1135 L50,695" stroke="blue" stroke-width="2" />
<path d="M108,1013 L1148,372" stroke="blue" stroke-width="2" />
<path d="M862,809 L1135,987" stroke="blue" stroke-width="2" />
<path d="M286,1004 L553,109" stroke="blue" stroke-width="2" />
<path d="M191,856 L552,145" stroke="blue" stroke-width="2" />
<path d="M746,697 L622,993" stroke="blue" stroke-width="2" />
<path d="M241,227 L1077,721" stroke="blue" stroke-width="2" />
<path d="M863,517 L55,64" stroke="blue" stroke-width="2" />
<path d="M98,566 L1110,1119" stroke="blue" stroke-width="2" />
<path d="M57,170 L363,183" stroke="blue" stroke-width="2" />
<path d="M812,698 L138,341" stroke="blue" stroke-width="2" />
<path d="M439,510 L1012,328" stroke="blue" stroke-width="2" />
<path d="M1210,701 L1176,578" stroke="blue" stroke-width="2" />
<path d="M617,1063 L1064,456" stroke="blue" stroke-width="2" />
<path d="M839,39 L59,781" stroke="blue" stroke-width="2" />
<path d="M1066,257 L1026,602" stroke="blue" stroke-width="2" />
<path d="M750,339 L630,747" stroke="blue" stroke-width="2" />
<path d="M79,1009 L1004,162" stroke="blue" stroke-width="2" />
<path d="M89,1080 L94,594" stroke="blue" stroke-width="2" />
<path d="M1115,771 L304,625" stroke="blue" stroke-width="2" />
<path d="M1077,626 L958,983" stroke="blue" stroke-width="2" />
<path d="M1232,1002 L1176,120" stroke="blue" stroke-width="2" />
<path d="M136,147 L499,1123" stroke="blue" stroke-width="2" />
<path d="M944,1134 L99,553" stroke="blue" stroke-width="2" />
<path d="M262,325 L477,390" stroke="blue" stroke-width="2" />
<path d="M974,1000 L88,775" stroke="blue" stroke-width="2" />
<path d="M757,997 L248,168" stroke="blue" stroke-width="2" />
<path d="M162,181 L1035,839" stroke="blue" stroke-width="2" />
<path d="M421,84 L53,313" stroke="blue" stroke-width="2" />
<path d="M564,1083 L166,103" stroke="blue" stroke-width="2" />
<path d="M983,163 L860,302" stroke="blue" stroke-width="2" />
<path d="M16,1115 L729,616" stroke="blue" stroke-width="2" />
<path d="M729,1044 L1013,130" stroke="blue" stroke-width="2" />
<path d="M1109,95 L486,891" stroke="blue" stroke-width="2" />
<path d="M1052,897 L182,914" stroke="blue" stroke-width="2" />
<path d="M675,147 L788,113" stroke="blue" stroke-width="2" />
<path d="M600,653 L764,419" stroke="blue" stroke-width="2" />
<path d="M317,20 L362,882" stroke="blue" stroke-width="2" />
<path d="M871,539 L324,579" stroke="blue" stroke-width="2" />
<path d="M945,780 L12,1073" stroke="blue" stroke-width="2" />
<path d="M155,1049 L498,26" stroke="blue" stroke-width="2" />
<path d="M849,871 L1256,6" stroke="blue" stroke-width="2" />
<path d="M769,513 L1122,44" stroke="blue" stroke-width="2" />
<path d="M651,932 L568,234" stroke="blue" stroke-width="2" />
<path d="M743,940 L1210,1111" stroke="blue" stroke-width="2" />
<path d="M1143,1027 L159,386" stroke="blue" stroke-width="2" />
<path d="M59,257 L490,980" stroke="blue" stroke-width="2" />
<path d="M1129,269 L872,169" stroke="blue" stroke-width="2" />
<path d="M0,561 L629,533" stroke="blue" stroke-width="2" />
<path d="M280,416 L960,129" stroke="blue" stroke-width="2" />
<path d="M855,216 L201,64" stroke="blue" stroke-width="2" />
<path d="M1101,437 L126,119" stroke="blue" stroke-width="2" />
<path d="M1131,367 L666,42" stroke="blue" stroke-width="2" />
<path d="M176,877 L43,902" stroke="blue" stroke-width="2" />
<path d="M326,922 L1155,731" stroke="blue" stroke-width="2" />
<path d="M1049,949 L1187,566" stroke="blue" stroke-width="2" />
<path d="M700,210 L665,580" stroke="blue" stroke-width="2" />
<path d="M100,280 L980,634" stroke="blue" stroke-width="2" />
<path d="M101,23 L313,1022" stroke="blue" stroke-width="2" />
<path d="M609,435 L518,1130" stroke="blue" stroke-width="2" />
<path d="M613,952 L14,9" stroke="blue" stroke-width="2" />
<path d="M207,1139 L934,543" stroke="blue" stroke-width="2" />
<path d="M16,919 L1216,525" stroke="blue" stroke-width="2" />
<path d="M481,638 L389,718" stroke="blue" stroke-width="2" />
<path d="M446,545 L72,1084" stroke="blue" stroke-width="2" />
<path d="M430,489 L79,223" stroke="blue" stroke-width="2" />
<path d="M473,735 L39,609" stroke="blue" stroke-width="2" />
<path d="M1259,192 L448,244" stroke="blue" stroke-width="2" />
<path d="M393,312 L64,304" stroke="blue" stroke-width="2" />
<path d="M1175,998 L65,238" stroke="blue" stroke-width="2" />
<path d="M1145,971 L1191,330" stroke="blue" stroke-width="2" />
<path d="M1265,895 L59,495" stroke="blue" stroke-width="2" />
<path d="M927,1043 L185,184" stroke="blue" stroke-width="2" />
<path d="M1203,756 L866,813" stroke="blue" stroke-width="2" />
<path d="M978,776 L1102,516" stroke="blue" stroke-width="2" />
<path d="M1188,1025 L866,333" stroke="blue" stroke-width="2" />
<path d="M549,132 L679,903" stroke="blue" stroke-width="2" />
<path d="M773,940 L1120,1058" stroke="blue" stroke-width="2" />
<path d="M834,664 L1206,1139" stroke="blue" stroke-width="2" />
<path d="M480,434 L479,56" stroke="blue" stroke-width="2" />
<path d="M681,1098 L883,975" stroke="blue" stroke-width="2" />
<path d="M1040,229 L637,794" stroke="blue" stroke-width="2" />
<path d="M1111,770 L648,1115" stroke="blue" stroke-width="2" />
<path d="M98,198 L843,285" stroke="blue" stroke-width="2" />
<path d="M730,1057 L51,15" stroke="blue" stroke-width="2" />
<path d="M204,660 L1048,204" stroke="blue" stroke-width="2" />
<path d="M842,384 L919,1011" stroke="blue" stroke-width="2" />
<path d="M690,596 L855,751" stroke="blue" stroke-width="2" />
<path d="M95,1124 L429,637" stroke="blue" stroke-width="2" />
<path d="M1112,6 L179,664" stroke="blue" stroke-width="2" />
<path d="M231,217 L1022,534" stroke="blue" stroke-width="2" />
<path d="M137,409 L944,68" stroke="blue" stroke-width="2" />
<path d="M544,147 L528,1055" stroke="blue" stroke-width="2" />
<path d="M571,406 L202,681" stroke="blue" stroke-width="2" />
<path d="M628,974 L1,964" stroke="blue" stroke-width="2" />
<path d="M95,376 L979,766" stroke="blue" stroke-width="2" />
<path d="M1106,839 L282,340" stroke="blue" stroke-width="2" />
<path d="M181,252 L1152,1039" stroke="blue" stroke-width="2" />
<path d="M266,294 L652,1037" stroke="blue" stroke-width="2" />
<path d="M17,699 L50,846" stroke="blue" stroke-width="2" />
<path d="M924,16 L316,1049" stroke="blue" stroke-width="2" />
<path d="M839,178 L237,546" stroke="blue" stroke-width="2" />
<path d="M693,317 L455,447" stroke="blue" stroke-width="2" />
<path d="M96,494 L727,278" stroke="blue" stroke-width="2" />
<path d="M233,216 L11,530" stroke="blue" stroke-width="2" />
<path d="M621,1036 L9,482" stroke="blue" stroke-width="2" />
<path d="M631,646 L1044,707" stroke="blue" stroke-width="2" />
<path d="M718,289 L819,647" stroke="blue" stroke-width="2" />
<path d="M615,970 L1111,314" stroke="blue" stroke-width="2" />
<path d="M669,657 L137,120" stroke="blue" stroke-width="2" />
<path d="M1257,500 L910,632" stroke="blue" stroke-width="2" />
<path d="M765,304 L647,861" stroke="blue" stroke-width="2" />
<path d="M176,926 L515,20" stroke="blue" stroke-width="2" />
<path d="M198,757 L371,830" stroke="blue" stroke-width="2" />
<path d="M614,174 L63,1002" stroke="blue" stroke-width="2" />
<path d="M1191,236 L759,831" stroke="blue" stroke-width="2" />
<path d="M1106,1113 L98,748" stroke="blue" stroke-width="2" />
<path d="M1043,1101 L216,781" stroke="blue" stroke-width="2" />
<path d="M474,597 L927,861" stroke="blue" stroke-width="2" />
<path d="M346,850 L977,1030" stroke="blue" stroke-width="2" />
<path d="M994,41 L1015,102" stroke="blue" stroke-width="2" />
<path d="M455,253 L482,197" stroke="blue" stroke-width="2" />
<path d="M694,164 L358,3" stroke="blue" stroke-width="2" />
<path d="M464,377 L806,196" stroke="blue" stroke-width="2" />
<path d="M641,664 L1219,889" stroke="blue" stroke-width="2" />
<path d="M954,749 L862,1044" stroke="blue" stroke-width="2" />
<path d="M262,71 L1233,316" stroke="blue" stroke-width="2" />
<path d="M91,986 L182,1114" stroke="blue" stroke-width="2" />
<path d="M1273,64 L838,923" stroke="blue" stroke-width="2" />
<path d="M720,1112 L126,330" stroke="blue" stroke-width="2" />
<path d="M225,856 L722,1135" stroke="blue" stroke-width="2" />
<path d="M991,1086 L65,166" stroke="blue" stroke-width="2" />
<path d="M243,283 L983,698" stroke="blue" stroke-width="2" />
<path d="M1187,1051 L606,769" stroke="blue" stroke-width="2" />
<path d="M606,465 L40,852" stroke="blue" stroke-width="2" />
<path d="M914,148 L989,745" stroke="blue" stroke-width="2" />
<path d="M554,952 L60,1096" stroke="blue" stroke-width="2" />
<path d="M562,79 L440,662" stroke="blue" stroke-width="2" />
<path d="M879,345 L713,1109" stroke="blue" stroke-width="2" />
<path d="M487,914 L397,570" stroke="blue" stroke-width="2" />
<path d="M47,380 L471,418" stroke="blue" stroke-width="2" />
<path d="M1248,992 L664,753" stroke="blue" stroke-width="2" />
<path d="M664,638 L264,1078" stroke="blue" stroke-width="2" />
<path d="M149,504 L773,1138" stroke="blue" stroke-width="2" />
<path d="M1238,276 L5,92" stroke="blue" stroke-width="2" />
<path d="M992,991 L356,863" stroke="blue" stroke-width="2" />
<path d="M1255,478 L937,576" stroke="blue" stroke-width="2" />
<path d="M123,993 L667,374" stroke="blue" stroke-width="2" />
<path d="M94,667 L407,279" stroke="blue" stroke-width="2" />
<path d="M538,47 L197,578" stroke="blue" stroke-width="2" />
<path d="M944,1112 L690,676" stroke="blue" stroke-width="2" />
<path d="M917,170 L1042,536" stroke="blue" stroke-width="2" />
<path d="M167,371 L167,357" stroke="blue" stroke-width="2" />
<path d="M934,595 L284,1045" stroke="blue" stroke-width="2" />
<path d="M1109,1046 L434,106" stroke="blue" stroke-width="2" />
<path d="M502,720 L1240,1091" stroke="blue" stroke-width="2" />
<path d="M837,811 L1002,151" stroke="blue" stroke-width="2" />
<path d="M122,810 L1025,920" stroke="blue" stroke-width="2" />
<path d="M833,825 L311,124" stroke="blue" stroke-width="2" />
<path d="M261,600 L725,623" stroke="blue" stroke-width="2" />
<path d="M612,375 L810,164" stroke="blue" stroke-width="2" />
<path d="M700,401 L377,420" stroke="blue" stroke-width="2" />
<path d="M368,757 L946,1059" stroke="blue" stroke-width="2" />
<path d="M774,251 L741,856" stroke="blue" stroke-width="2" />
<path d="M14,96 L928,507" stroke="blue" stroke-width="2" />
<path d="M442,176 L696,468" stroke="blue" stroke-width="2" />
<path d="M1111,1096 L879,414" stroke="blue" stroke-width="2" />
<path d="M1043,451 L144,906" stroke="blue" stroke-width="2" />
<path d="M1015,807 L167,365" stroke="blue" stroke-width="2" />
<path d="M559,503 L653,779" stroke="blue" stroke-width="2" />
<path d="M846,644 L658,856" stroke="blue" stroke-width="2" />
<path d="M1002,95 L918,463" stroke="blue" stroke-width="2" />
<path d="M326,400 L828,722" stroke="blue" stroke-width="2" />
<path d="M848,27 L383,471" stroke="blue" stroke-width="2" />
<path d="M1146,615 L167,756" stroke="blue" stroke-width="2" />
<path d="M377,532 L939,494" stroke="blue" stroke-width="2" />
<path d="M376,768 L431,428" stroke="blue" stroke-width="2" />
<path d="M1104,1104 L723,706" stroke="blue" stroke-width="2" />
<path d="M165,707 L448,569" stroke="blue" stroke-width="2" />
<path d="M188,471 L286,366" stroke="blue" stroke-width="2" />
<path d="M843,993 L333,319" stroke="blue" stroke-width="2" />
<path d="M294,53 L503,602" stroke="blue" stroke-width="2" />
<path d="M272,610 L634,643" stroke="blue" stroke-width="2" />
<path d="M1241,97 L1243,870" stroke="blue" stroke-width="2" />
<path d="M1046,77 L328,433" stroke="blue" stroke-width="2" />
<path d="M909,362 L731,1095" stroke="blue" stroke-width="2" />
<path d="M917,942 L712,745" stroke="blue" stroke-width="2" />
<path d="M997,384 L261,102" stroke="blue" stroke-width="2" />
<path d="M743,659 L217,195" stroke="blue" stroke-width="2" />
<path d="M276,303 L568,938" stroke="blue" stroke-width="2" />
<path d="M671,627 L661,1093" stroke="blue" stroke-width="2" />
<path d="M400,838 L774,703" stroke="blue" stroke-width="2" />
<path d="M381,539 L581,122" stroke="blue" stroke-width="2" />
<path d="M803,1052 L133,773" stroke="blue" stroke-width="2" />
<path d="M16,184 L321,329" stroke="blue" stroke-width="2" />
<path d="M49,791 L543,648" stroke="blue" stroke-width="2" />
<path d="M1178,871 L1249,1122" stroke="blue" stroke-width="2" />
<path d="M1004,774 L474,1124" stroke="blue" stroke-width="2" />
<path d="M1147,1080 L512,365" stroke="blue" stroke-width="2" />
<path d="M141,477 L206,44" stroke="blue" stroke-width="2" />
<path d="M672,1068 L942,944" stroke="blue" stroke-width="2" />
<path d="M760,256 L841,231" stroke="blue" stroke-width="2" />
<path d="M688,801 L879,490" stroke="blue" stroke-width="2" />
<path d="M1025,432 L568,208" stroke="blue" stroke-width="2" />
<path d="M546,286 L1093,886" stroke="blue" stroke-width="2" />
<path d="M706,43 L139,717" stroke="blue" stroke-width="2" />
<path d="M491,670 L1103,353" stroke="blue" stroke-width="2" />
<path d="M415,1040 L427,206" stroke="blue" stroke-width="2" />
<path d="M619,1003 L124,110" stroke="blue" stroke-width="2" />
<path d="M504,1054 L915,397" stroke="blue" stroke-width="2" />
<path d="M25,862 L1101,1043" stroke="blue" stroke-width="2" />
<path d="M332,233 L233,932" stroke="blue" stroke-width="2" />
<path d="M123,426 L140,409" stroke="blue" stroke-width="2" />
<path d="M881,369 L460,872" stroke="blue" stroke-width="2" />
<path d="M350,148 L1132,528" stroke="blue" stroke-width="2" />
<path d="M83,903 L31,755" stroke="blue" stroke-width="2" />
<path d="M780,505 L122,589" stroke="blue" stroke-width="2" />
<path d="M314,1008 L53,560" stroke="blue" stroke-width="2" />
<path d="M854,834 L749,17" stroke="blue" stroke-width="2" />
<path d="M296,1063 L643,230" stroke="blue" stroke-width="2" />
<path d="M835,1070 L249,540" stroke="blue" stroke-width="2" />
<path d="M113,1100 L1250,1036" stroke="blue" stroke-width="2" />
<path d="M996,283 L930,751" stroke="blue" stroke-width="2" />
<path d="M1192,451 L790,1068" stroke="blue" stroke-width="2" />
<path d="M443,237 L414,396" stroke="blue" stroke-width="2" />
<path d="M737,496 L1257,400" stroke="blue" stroke-width="2" />
<path d="M234,26 L218,23" stroke="blue" stroke-width="2" />
<path d="M1122,946 L97,919" stroke="blue" stroke-width="2" />
<path d="M527,556 L350,828" stroke="blue" stroke-width="2" />
<path d="M1118,348 L6,983" stroke="blue" stroke-width="2" />
<path d="M1130,882 L937,713" stroke="blue" stroke-width="2" />
<path d="M219,1101 L1235,756" stroke="blue" stroke-width="2" />
<path d="M303,273 L51,81" stroke="blue" stroke-width="2" />
<path d="M581,417 L922,982" stroke="blue" stroke-width="2" />
<path d="M383,576 L83,140" stroke="blue" stroke-width="2" />
<path d="M189,777 L695,826" stroke="blue" stroke-width="2" />
<path d="M1010,706 L166,276" stroke="blue" stroke-width="2" />
<path d="M654,446 L542,362" stroke="blue" stroke-width="2" />
<path d="M106,92 L1243,890" stroke="blue" stroke-width="2" />
<path d="M1111,1129 L871,593" stroke="blue" stroke-width="2" />
<path d="M784,398 L451,851" stroke="blue" stroke-width="2" />
<path d="M262,1053 L1074,1051" stroke="blue" stroke-width="2" />
<path d="M882,678 L997,791" stroke="blue" stroke-width="2" />
<path d="M1169,13 L235,163" stroke="blue" stroke-width="2" />
<path d="M416,767 L858,388" stroke="blue" stroke-width="2" />
<path d="M765,141 L432,425" stroke="blue" stroke-width="2" />
<path d="M955,601 L732,1083" stroke="blue" stroke-width="2" />
<path d="M1021,839 L214,556" stroke="blue" stroke-width="2" />
<path d="M229,878 L998,628" stroke="blue" stroke-width="2" />
<path d="M1245,751 L749,1089" stroke="blue" stroke-width="2" />
<path d="M98,1050 L207,178" stroke="blue" stroke-width="2" />
<path d="M789,667 L480,170" stroke="blue" stroke-width="2" />
<path d="M361,851 L448,185" stroke="blue" stroke-width="2" />
<path d="M652,362 L156,353" stroke="blue" stroke-width="2" />
<path d="M475,451 L445,164" stroke="blue" stroke-width="2" />
<path d="M182,919 L1057,841" stroke="blue" stroke-width="2" />
<path d="M340,1103 L813,512" stroke="blue" stroke-width="2" />
<path d="M523,237 L256,1072" stroke="blue" stroke-width="2" />
<path d="M741,302 L776,702" stroke="blue" stroke-width="2" />
<path d="M852,1043 L451,631" stroke="blue" stroke-width="2" />
<path d="M613,1003 L474,577" stroke="blue" stroke-width="2" />
<path d="M10,161 L1044,321" stroke="blue" stroke-width="2" />
<path d="M745,975 L790,679" stroke="blue" stroke-width="2" />
<path d="M619,466 L1254,113" stroke="blue" stroke-width="2" />
<path d="M463,731 L1111,219" stroke="blue" stroke-width="2" />
<path d="M683,480 L1174,536" stroke="blue" stroke-width="2" />
<path d="M1135,878 L843,806" stroke="blue" stroke-width="2" />
<path d="M828,584 L231,188" stroke="blue" stroke-width="2" />
<path d="M203,365 L1086,583" stroke="blue" stroke-width="2" />
<path d="M165,273 L697,358" stroke="blue" stroke-width="2" />
<path d="M1247,476 L959,747" stroke="blue" stroke-width="2" />
<path d="M615,525 L681,250" stroke="blue" stroke-width="2" />
<path d="M188,397 L514,985" stroke="blue" stroke-width="2" />
<path d="M1192,800 L1218,794" stroke="blue" stroke-width="2" />
<path d="M74,125 L158,433" stroke="blue" stroke-width="2" />
<path d="M595,965 L578,697" stroke="blue" stroke-width="2" />
<path d="M1242,1116 L748,506" stroke="blue" stroke-width="2" />
<path d="M955,654 L525,764" stroke="blue" stroke-width="2" />
<path d="M1167,216 L1041,604" stroke="blue" stroke-width="2" />
<path d="M1231,549 L375,880" stroke="blue" stroke-width="2" />
<path d="M1183,848 L372,213" stroke="blue" stroke-width="2" />
<path d="M716,907 L409,614" stroke="blue" stroke-width="2" />
<path d="M806,943 L640,772" stroke="blue" stroke-width="2" />
<path d="M234,535 L639,383" stroke="blue" stroke-width="2" />
<path d="M894,250 L660,812" stroke="blue" stroke-width="2" />
<path d="M683,276 L21,302" stroke="blue" stroke-width="2" />
<path d="M1136,816 L590,580" stroke="blue" stroke-width="2" />
<path d="M1056,651 L1037,473" stroke="blue" stroke-width="2" />
<path d="M731,6 L683,872" stroke="blue" stroke-width="2" />
<path d="M355,905 L1179,574" stroke="blue" stroke-width="2" />
<path d="M1141,485 L1054,1012" stroke="blue" stroke-width="2" />
<path d="M637,839 L584,365" stroke="blue" stroke-width="2" />
<path d="M41,1048 L852,9" stroke="blue" stroke-width="2" />
<path d="M792,849 L1189,1105" stroke="blue" stroke-width="2" />
<path d="M433,155 L873,1056" stroke="blue" stroke-width="2" />
<path d="M884,1120 L269,1080" stroke="blue" stroke-width="2" />
<path d="M220,1026 L308,119" stroke="blue" stroke-width="2" />
<path d="M699,497 L1143,372" stroke="blue" stroke-width="2" />
<path d="M1172,723 L940,832" stroke="blue" stroke-width="2" />
<path d="M179,178 L965,402" stroke="blue" stroke-width="2" />
<path d="M331,821 L609,1077" stroke="blue" stroke-width="2" />
<path d="M268,427 L1041,106" stroke="blue" stroke-width="2" />
<path d="M774,329 L230,562" stroke="blue" stroke-width="2" />
<path d="M259,1043 L928,59" stroke="blue" stroke-width="2" />
<path d="M281,89 L371,950" stroke="blue" stroke-width="2" />
<path d="M869,358 L1059,125" stroke="blue" stroke-width="2" />
<path d="M228,172 L342,752" stroke="blue" stroke-width="2" />
<path d="M1170,922 L558,382" stroke="blue" stroke-width="2" />
<path d="M894,685 L364,914" stroke="blue" stroke-width="2" />
<path d="M1030,271 L841,944" stroke="blue" stroke-width="2" />
<path d="M1153,853 L223,911" stroke="blue" stroke-width="2" />
<path d="M1258,270 L882,447" stroke="blue" stroke-width="2" />
<path d="M469,8 L901,1089" stroke="blue" stroke-width="2" />
<path d="M995,507 L39,761" stroke="blue" stroke-width="2" />
<path d="M641,1069 L377,623" stroke="blue" stroke-width="2" />
<path d="M446,398 L1270,291" stroke="blue" stroke-width="2" />
<path d="M383,974 L558,534" stroke="blue" stroke-width="2" />
<path d="M486,1093 L663,354" stroke="blue" stroke-width="2" />
<path d="M76,688 L1045,952" stroke="blue" stroke-width="2" />
<path d="M452,990 L31,630" stroke="blue" stroke-width="2" />
<path d="M619,859 L852,93" stroke="blue" stroke-width="2" />
<path d="M464,925 L799,1017" stroke="blue" stroke-width="2" />
<path d="M792,358 L317,256" stroke="blue" stroke-width="2" />
<path d="M42,413 L867,87" stroke="blue" stroke-width="2" />
<path d="M250,394 L229,444" stroke="blue" stroke-width="2" />
<path d="M986,866 L332,516" stroke="blue" stroke-width="2" />
<path d="M1270,240 L914,939" stroke="blue" stroke-width="2" />
<path d="M326,334 L1002,479" stroke="blue" stroke-width="2" />
<path d="M952,930 L1071,499" stroke="blue" stroke-width="2" />
<path d="M147,889 L1218,621" stroke="blue" stroke-width="2" />
<path d="M674,262 L174,50" stroke="blue" stroke-width="2" />
<path d="M917,230 L239,867" stroke="blue" stroke-width="2" />
<path d="M1269,500 L475,919" stroke="blue" stroke-width="2" />
<path d="M568,866 L666,94" stroke="blue" stroke-width="2" />
<path d="M613,370 L759,158" stroke="blue" stroke-width="2" />
<path d="M539,911 L297,778" stroke="blue" stroke-width="2" />
<path d="M1228,1025 L683,1002" stroke="blue" stroke-width="2" />
<path d="M504,215 L1087,419" stroke="blue" stroke-width="2" />
<path d="M477,154 L1028,1092" stroke="blue" stroke-width="2" />
<path d="M928,688 L835,416" stroke="blue" stroke-width="2" />
<path d="M385,979 L327,26" stroke="blue" stroke-width="2" />
<path d="M185,391 L228,235" stroke="blue" stroke-width="2" />
<path d="M178,59 L23,1048" stroke="blue" stroke-width="2" />
<path d="M143,784 L724,918" stroke="blue" stroke-width="2" />
<path d="M733,302 L921,363" stroke="blue" stroke-width="2" />
<path d="M1264,847 L696,390" stroke="blue" stroke-width="2" />
<path d="M826,748 L903,634" stroke="blue" stroke-width="2" />
<path d="M884,572 L811,750" stroke="blue" stroke-width="2" />
<path d="M464,24 L773,748" stroke="blue" stroke-width="2" />
<path d="M1004,269 L217,174" stroke="blue" stroke-width="2" />
<path d="M767,261 L938,182" stroke="blue" stroke-width="2" />
<path d="M349,480 L427,228" stroke="blue" stroke-width="2" />
<path d="M1141,1105 L219,1045" stroke="blue" stroke-width="2" />
<path d="M345,700 L378,120" stroke="blue" stroke-width="2" />
<path d="M364,1078 L966,164" stroke="blue" stroke-width="2" />
<path d="M575,1119 L35,734" stroke="blue" stroke-width="2" />
<path d="M752,73 L876,621" stroke="blue" stroke-width="2" />
<path d="M68,261 L447,372" stroke="blue" stroke-width="2" />
<path d="M676,501 L495,796" stroke="blue" stroke-width="2" />
<path d="M508,321 L520,940" stroke="blue" stroke-width="2" />
<path d="M1267,673 L134,724" stroke="blue" stroke-width="2" />
<path d="M689,9 L1251,1006" stroke="blue" stroke-width="2" />
<path d="M25,214 L266,686" stroke="blue" stroke-width="2" />
<path d="M690,717 L946,1138" stroke="blue" stroke-width="2" />
<path d="M1214,342 L570,229" stroke="blue" stroke-width="2" />
<path d="M1262,787 L68,708" stroke="blue" stroke-width="2" />
<path d="M109,369 L766,241" stroke="blue" stroke-width="2" />
<path d="M966,407 L742,1079" stroke="blue" stroke-width="2" />
<path d="M571,593 L9,408" stroke="blue" stroke-width="2" />
<path d="M928,1045 L659,219" stroke="blue" stroke-width="2" />
<path d="M631,568 L408,127" stroke="blue" stroke-width="2" />
<path d="M1247,909 L217,793" stroke="blue" stroke-width="2" />
<path d="M1231,1136 L1075,945" stroke="blue" stroke-width="2" />
<path d="M1274,285 L854,748" stroke="blue" stroke-width="2" />
<path d="M477,523 L522,1018" stroke="blue" stroke-width="2" />
<path d="M1231,914 L621,1018" stroke="blue" stroke-width="2" />
<path d="M340,1104 L590,736" stroke="blue" stroke-width="2" />
<path d="M277,649 L239,706" stroke="blue" stroke-width="2" />
<path d="M27,1089 L470,277" stroke="blue" stroke-width="2" />
<path d="M1168,1041 L15,852" stroke="blue" stroke-width="2" />
<path d="M224,1135 L330,580" stroke="blue" stroke-width="2" />
<path d="M625,254 L1196,362" stroke="blue" stroke-width="2" />
<path d="M1078,447 L1265,763" stroke="blue" stroke-width="2" />
<path d="M1223,353 L993,981" stroke="blue" stroke-width="2" />
<path d="M529,376 L4,641" stroke="blue" stroke-width="2" />
<path d="M341,472 L1177,124" stroke="blue" stroke-width="2" />
<path d="M131,996 L590,707" stroke="blue" stroke-width="2" />
<path d="M753,652 L495,8" stroke="blue" stroke-width="2" />
<path d="M173,634 L59,410" stroke="blue" stroke-width="2" />
<path d="M495,923 L277,893" stroke="blue" stroke-width="2" />
<path d="M1156,994 L853,104" stroke="blue" stroke-width="2" />
<path d="M184,856 L625,119" stroke="blue" stroke-width="2" />
<path d="M191,192 L460,642" stroke="blue" stroke-width="2" />
<path d="M62,359 L934,720" stroke="blue" stroke-width="2" />
<path d="M412,993 L282,52" stroke="blue" stroke-width="2" />
<path d="M1231,29 L824,1027" stroke="blue" stroke-width="2" />
<path d="M234,349 L526,107" stroke="blue" stroke-width="2" />
<path d="M268,599 L274,1085" stroke="blue" stroke-width="2" />
<path d="M681,1009 L158,471" stroke="blue" stroke-width="2" />
<path d="M399,277 L100,426" stroke="blue" stroke-width="2" />
<path d="M563,418 L432,620" stroke="blue" stroke-width="2" />
<path d="M797,423 L508,982" stroke="blue" stroke-width="2" />
<path d="M905,423 L52,613" stroke="blue" stroke-width="2" />
<path d="M1263,732 L646,445" stroke="blue" stroke-width="2" />
<path d="M711,437 L781,787" stroke="blue" stroke-width="2" />
<path d="M412,461 L1072,629" stroke="blue" stroke-width="2" />
<path d="M259,475 L555,634" stroke="blue" stroke-width="2" />
<path d="M582,199 L170,464" stroke="blue" stroke-width="2" />
<path d="M951,865 L67,418" stroke="blue" stroke-width="2" />
<path d="M257,742 L1116,520" stroke="blue" stroke-width="2" />
<path d="M807,464 L631,754" stroke="blue" stroke-width="2" />
<path d="M1162,909 L848,264" stroke="blue" stroke-width="2" />
<path d="M927,518 L764,605" stroke="blue" stroke-width="2" />
<path d="M1119,1066 L754,590" stroke="blue" stroke-width="2" />
<path d="M659,269 L1097,1135" stroke="blue" stroke-width="2" />
<path d="M91,743 L110,1029" stroke="blue" stroke-width="2" />
<path d="M888,446 L1043,170" stroke="blue" stroke-width="2" />
<path d="M588,64 L819,347" stroke="blue" stroke-width="2" />
<path d="M553,297 L1258,708" stroke="blue" stroke-width="2" />
<path d="M816,16 L220,1139" stroke="blue" stroke-width="2" />
<path d="M64,1021 L619,195" stroke="blue" stroke-width="2" />
<path d="M348,1130 L1067,808" stroke="blue" stroke-width="2" />
<path d="M480,809 L580,409" stroke="blue" stroke-width="2" />
<path d="M244,650 L1021,413" stroke="blue" stroke-width="2" />
<path d="M1090,589 L791,870" stroke="blue" stroke-width="2" />
<path d="M677,484 L169,780" stroke="blue" stroke-width="2" />
<path d="M869,505 L227,428" stroke="blue" stroke-width="2" />
<path d="M22,290 L1173,370" stroke="blue" stroke-width="2" />
<path d="M538,147 L489,658" stroke="blue" stroke-width="2" />
<path d="M695,214 L921,328" stroke="blue" stroke-width="2" />
<path d="M510,441 L536,272" stroke="blue" stroke-width="2" />
<path d="M244,683 L1045,793" stroke="blue" stroke-width="2" />
<path d="M1129,715 L434,522" stroke="blue" stroke-width="2" />
<path d="M289,1075 L1021,1072" stroke="blue" stroke-width="2" />
<path d="M1057,878 L755,1069" stroke="blue" stroke-width="2" />
<path d="M733,693 L238,41" stroke="blue" stroke-width="2" />
<path d="M721,432 L1244,743" stroke="blue" stroke-width="2" />
<path d="M1066,593 L1096,557" stroke="blue" stroke-width="2" />
<path d="M608,667 L1178,527" stroke="blue" stroke-width="2" />
<path d="M991,487 L503,622" stroke="blue" stroke-width="2" />
<path d="M1214,1008 L453,204" stroke="blue" stroke-width="2" />
<path d="M591,353 L333,310" stroke="blue" stroke-width="2" />
<path d="M567,934 L103,849" stroke="blue" stroke-width="2" />
<path d="M136,232 L839,1044" stroke="blue" stroke-width="2" />
<path d="M644,862 L80,723" stroke="blue" stroke-width="2" />
<path d="M941,1030 L1002,7" stroke="blue" stroke-width="2" />
<path d="M973,1052 L873,999" stroke="blue" stroke-width="2" />
<path d="M584,759 L538,631" stroke="blue" stroke-width="2" />
<path d="M919,287 L1020,232" stroke="blue" stroke-width="2" />
<path d="M975,1062 L586,308" stroke="blue" stroke-width="2" />
<path d="M61,134 L24,349" stroke="blue" stroke-width="2" />
<path d="M365,799 L68,278" stroke="blue" stroke-width="2" />
<path d="M465,982 L244,425" stroke="blue" stroke-width="2" />
<path d="M599,83 L470,976" stroke="blue" stroke-width="2" />
<path d="M414,254 L294,470" stroke="blue" stroke-width="2" />
<path d="M386,728 L761,67" stroke="blue" stroke-width="2" />
<path d="M878,218 L193,1066" stroke="blue" stroke-width="2" />
<path d="M916,936 L721,1128" stroke="blue" stroke-width="2" />
<path d="M7,727 L1177,837" stroke="blue" stroke-width="2" />
<path d="M1280,373 L1074,11" stroke="blue" stroke-width="2" />
<path d="M118,922 L1257,464" stroke="blue" stroke-width="2" />
<path d="M533,199 L323,1121" stroke="blue" stroke-width="2" />
<path d="M340,729 L713,386" stroke="blue" stroke-width="2" />
<path d="M46,1130 L216,88" stroke="blue" stroke-width="2" />
<path d="M320,1022 L821,1000" stroke="blue" stroke-width="2" />
<path d="M65,236 L489,910" stroke="blue" stroke-width="2" />
<path d="M1175,1010 L744,236" stroke="blue" stroke-width="2" />
<path d="M730,658 L455,845" stroke="blue" stroke-width="2" />
<path d="M221,1067 L832,1115" stroke="blue" stroke-width="2" />
<path d="M579,13 L1183,1100" stroke="blue" stroke-width="2" />
<path d="M279,221 L942,933" stroke="blue" stroke-width="2" />
<path d="M878,836 L705,944" stroke="blue" stroke-width="2" />
<path d="M521,352 L456,275" stroke="blue" stroke-width="2" />
<path d="M1168,608 L302,364" stroke="blue" stroke-width="2" />
<path d="M1235,603 L335,914" stroke="blue" stroke-width="2" />
<path d="M122,5 L1246,700" stroke="blue" stroke-width="2" />
<path d="M559,390 L1250,875" stroke="blue" stroke-width="2" />
<path d="M396,961 L600,442" stroke="blue" stroke-width="2" />
<path d="M930,668 L344,985" stroke="blue" stroke-width="2" />
<path d="M764,1025 L690,1140" stroke="blue" stroke-width="2" />
<path d="M417,907 L883,475" stroke="blue" stroke-width="2" />
<path d="M452,512 L172,661" stroke="blue" stroke-width="2" />
<path d="M733,1093 L394,648" stroke="blue" stroke-width="2" />
<path d="M395,313 L925,500" stroke="blue" stroke-width="2" />
<path d="M471,1059 L166,730" stroke="blue" stroke-width="2" />
<path d="M953,997 L852,609" stroke="blue" stroke-width="2" />
<path d="M441,126 L1021,1059" stroke="blue" stroke-width="2" />
<path d="M698,268 L480,387" stroke="blue" stroke-width="2" />
<path d="M141,957 L604,531" stroke="blue" stroke-width="2" />
<path d="M1183,487 L158,509" stroke="blue" stroke-width="2" />
<path d="M867,771 L46,213" stroke="blue" stroke-width="2" />
<path d="M1017,885 L871,966" stroke="blue" stroke-width="2" />
<path d="M379,829 L954,763" stroke="blue" stroke-width="2" />
<path d="M481,1135 L146,388" stroke="blue" stroke-width="2" />
<path d="M980,106 L61,11" stroke="blue" stroke-width="2" />
<path d="M411,34 L770,75" stroke="blue" stroke-width="2" />
<path d="M414,887 L828,181" stroke="blue" stroke-width="2" />
<path d="M914,1026 L28,263" stroke="blue" stroke-width="2" />
<path d="M509,815 L1096,1079" stroke="blue" stroke-width="2" />
<path d="M390,539 L983,268" stroke="blue" stroke-width="2" />
<path d="M657,739 L1273,932" stroke="blue" stroke-width="2" />
<path d="M1027,600 L917,443" stroke="blue" stroke-width="2" />
<path d="M736,979 L610,317" stroke="blue" stroke-width="2" />
<path d="M603,715 L410,546" stroke="blue" stroke-width="2" />
<path d="M193,101 L689,808" stroke="blue" stroke-width="2" />
<path d="M619,980 L74,782" stroke="blue" stroke-width="2" />
<path d="M324,672 L1049,674" stroke="blue" stroke-width="2" />
<path d="M793,170 L1098,984" stroke="blue" stroke-width="2" />
<path d="M822,314 L442,160" stroke="blue" stroke-width="2" />
<path d="M993,450 L1262,148" stroke="blue" stroke-width="2" />
<path d="M1107,1099 L190,1028" stroke="blue" stroke-width="2" />
<path d="M820,821 L1200,626" stroke="blue" stroke-width="2" />
<path d="M1162,855 L314,194" stroke="blue" stroke-width="2" />
<path d="M993,842 L231,346" stroke="blue" stroke-width="2" />
<path d="M1200,570 L208,355" stroke="blue" stroke-width="2" />
<path d="M763,817 L211,373" stroke="blue" stroke-width="2" />
<path d="M24,401 L769,149" stroke="blue" stroke-width="2" />
<path d="M788,726 L127,756" stroke="blue" stroke-width="2" />
<path d="M700,80 L78,691" stroke="blue" stroke-width="2" />
<path d="M912,718 L128,265" stroke="blue" stroke-width="2" />
<path d="M111,367 L118,359" stroke="blue" stroke-width="2" />
<path d="M936,714 L89,31" stroke="blue" stroke-width="2" />
<path d="M314,633 L554,930" stroke="blue" stroke-width="2" />
<path d="M711,927 L1262,9" stroke="blue" stroke-width="2" />
<path d="M494,440 L751,85" stroke="blue" stroke-width="2" />
<path d="M21,786 L720,1010" stroke="blue" stroke-width="2" />
<path d="M912,1066 L307,341" stroke="blue" stroke-width="2" />
<path d="M517,900 L420,1028" stroke="blue" stroke-width="2" />
<path d="M1180,45 L1022,810" stroke="blue" stroke-width="2" />
<path d="M1184,222 L883,693" stroke="blue" stroke-width="2" />
<path d="M699,1038 L583,731" stroke="blue" stroke-width="2" />
<path d="M1250,463 L1016,371" stroke="blue" stroke-width="2" />
<path d="M126,388 L562,830" stroke="blue" stroke-width="2" />
<path d="M36,45 L731,802" stroke="blue" stroke-width="2" />
<path d="M103,8 L1049,798" stroke="blue" stroke-width="2" />
<path d="M6,831 L388,76" stroke="blue" stroke-width="2" />
<path d="M499,258 L573,226" stroke="blue" stroke-width="2" />
<path d="M711,599 L1029,703" stroke="blue" stroke-width="2" />
<path d="M673,197 L1161,966" stroke="blue" stroke-width="2" />
<path d="M833,890 L1155,744" stroke="blue" stroke-width="2" />
<path d="M502,576 L155,521" stroke="blue" stroke-width="2" />
<path d="M622,575 L55,925" stroke="blue" stroke-width="2" />
<path d="M1066,834 L1211,234" stroke="blue" stroke-width="2" />
<path d="M1251,373 L1223,8" stroke="blue" stroke-width="2" />
<path d="M105,553 L648,850" stroke="blue" stroke-width="2" />
<path d="M549,903 L9,540" stroke="blue" stroke-width="2" />
<path d="M1227,170 L325,30" stroke="blue" stroke-width="2" />
<path d="M1007,868 L480,110" stroke="blue" stroke-width="2" />
<path d="M121,889 L363,1003" stroke="blue" stroke-width="2" />
<path d="M57,316 L325,737" stroke="blue" stroke-width="2" />
<path d="M1166,882 L1045,369" stroke="blue" stroke-width="2" />
<path d="M905,697 L1257,65" stroke="blue" stroke-width="2" />
<path d="M825,132 L462,1025" stroke="blue" stroke-width="2" />
<path d="M1244,1017 L822,537" stroke="blue" stroke-width="2" />
<path d="M448,96 L415,292" stroke="blue" stroke-width="2" />
<path d="M0,0 L1281,0" stroke="red" stroke-width="10" />
<path d="M1281,0 L1281,1141" stroke="red" stroke-width="10" />
<path d="M0,1141 L1281,1141" stroke="red" stroke-width="10" />
<path d="M0,1141 L0,0" stroke="red" stroke-width="10" />
</svg>