<?xml version="1.0" encoding="UTF-8"?>
<svg xmlns="http://www.w3.org/2000/svg" xmlns:xlink="http://www.w3.org/1999/xlink"
     width="10000" height="10000" viewBox="0 0 10000 10000">
<defs>
</defs>
<path d="M1221,5543 L1365,3452" stroke="blue" stroke-width="2" />
<path d="M3209,3312 L231,7569" stroke="blue" stroke-width="2" />
<path d="M5419,440 L3739,2754" stroke="blue" stroke-width="2" />
<path d="M2440,4509 L6314,3986" stroke="blue" stroke-width="2" />
<path d="M7089,3764 L4153,6956" stroke="blue" stroke-width="2" />
<path d="M6895,6395 L3236,7521" stroke="blue" stroke-width="2" />
<path d="M5437,23 L433,6304" stroke="blue" stroke-width="2" />
<path d="M5425,7163 L141,5044" stroke="blue" stroke-width="2" />
<path d="M203,6754 L4857,315" stroke="blue" stroke-width="2" />
<path d="M2482,6710 L3626,874" stroke="blue" stroke-width="2" />
<path d="M5060,1645 L764,6515" stroke="blue" stroke-width="2" />
<path d="M4608,3376 L1679,4702" stroke="blue" stroke-width="2" />
<path d="M6217,1517 L3643,734" stroke="blue" stroke-width="2" />
<path d="M5678,4481 L5949,1335" stroke="blue" stroke-width="2" />
<path d="M5147,120 L6862,4779" stroke="blue" stroke-width="2" />
<path d="M2825,7219 L3479,5351" stroke="blue" stroke-width="2" />
<path d="M4028,5181 L4274,5208" stroke="blue" stroke-width="2" />
<path d="M922,5722 L5378,5214" stroke="blue" stroke-width="2" />
<path d="M5280,5441 L7003,3065" stroke="blue" stroke-width="2" />
<path d="M1298,3398 L3050,3701" stroke="blue" stroke-width="2" />
<path d="M227,4922 L5620,6962" stroke="blue" stroke-width="2" />
<path d="M3755,1234 L1972,1916" stroke="blue" stroke-width="2" />
<path d="M1745,586 L4662,6700" stroke="blue" stroke-width="2" />
<path d="M4814,4383 L6576,2980" stroke="blue" stroke-width="2" />
<path d="M4248,5569 L3981,6286" stroke="blue" stroke-width="2" />
<path d="M3168,4655 L6847,1049" stroke="blue" stroke-width="2" />
<path d="M6452,3125 L2801,2799" stroke="blue" stroke-width="2" />
<path d="M5200,1530 L988,405" stroke="blue" stroke-width="2" />
<path d="M4922,1554 L5758,3934" stroke="blue" stroke-width="2" />
<path d="M5746,5036 L2177,7597" stroke="blue" stroke-width="2" />
<path d="M407,5291 L4241,3755" stroke="blue" stroke-width="2" />
<path d="M6017,5964 L2751,5688" stroke="blue" stroke-width="2" />
<path d="M1375,4814 L4731,4910" stroke="blue" stroke-width="2" />
<path d="M4694,7410 L5858,3004" stroke="blue" stroke-width="2" />
<path d="M2870,5935 L4346,2418" stroke="blue" stroke-width="2" />
<path d="M63,6249 L2833,5823" stroke="blue" stroke-width="2" />
<path d="M330,1076 L1573,3419" stroke="blue" stroke-width="2" />
<path d="M6206,258 L4030,4997" stroke="blue" stroke-width="2" />
<path d="M7168,769 L4999,7060" stroke="blue" stroke-width="2" />
<path d="M3375,1998 L3238,3009" stroke="blue" stroke-width="2" />
<path d="M5318,1304 L926,1315" stroke="blue" stroke-width="2" />
<path d="M1544,6334 L315,7353" stroke="blue" stroke-width="2" />
<path d="M3691,5320 L6822,6885" stroke="blue" stroke-width="2" />
<path d="M2068,1972 L1798,5182" stroke="blue" stroke-width="2" />
<path d="M2241,7248 L3271,3132" stroke="blue" stroke-width="2" />
<path d="M1750,1954 L3669,5033" stroke="blue" stroke-width="2" />
<path d="M1345,2907 L4074,1209" stroke="blue" stroke-width="2" />
<path d="M4463,2138 L1586,3007" stroke="blue" stroke-width="2" />
<path d="M735,6319 L2687,4454" stroke="blue" stroke-width="2" />
<path d="M1937,5912 L5689,3016" stroke="blue" stroke-width="2" />
<path d="M1719,5166 L1709,7390" stroke="blue" stroke-width="2" />
<path d="M6259,1501 L5044,3271" stroke="blue" stroke-width="2" />
<path d="M4068,4198 L7152,656" stroke="blue" stroke-width="2" />
<path d="M5888,3423 L6229,6993" stroke="blue" stroke-width="2" />
<path d="M1450,201 L4578,2823" stroke="blue" stroke-width="2" />
<path d="M129,3916 L2474,6143" stroke="blue" stroke-width="2" />
<path d="M45,6433 L1403,6433" stroke="blue" stroke-width="2" />
<path d="M631,6591 L4053,5462" stroke="blue" stroke-width="2" />
<path d="M5046,1122 L3745,2158" stroke="blue" stroke-width="2" />
<path d="M2138,6797 L2619,3796" stroke="blue" stroke-width="2" />
<path d="M5728,1650 L2234,1784" stroke="blue" stroke-width="2" />
<path d="M3372,1202 L6709,2618" stroke="blue" stroke-width="2" />
<path d="M5660,7411 L363,4828" stroke="blue" stroke-width="2" />
<path d="M2956,2490 L3236,3228" stroke="blue" stroke-width="2" />
<path d="M3284,4890 L512,1006" stroke="blue" stroke-width="2" />
<path d="M5159,6752 L2010,2990" stroke="blue" stroke-width="2" />
<path d="M2502,4666 L5753,2027" stroke="blue" stroke-width="2" />
<path d="M2175,5638 L6943,1130" stroke="blue" stroke-width="2" />
<path d="M5054,1336 L6562,5110" stroke="blue" stroke-width="2" />
<path d="M6465,5602 L5777,571" stroke="blue" stroke-width="2" />
<path d="M2885,5648 L1705,6738" stroke="blue" stroke-width="2" />
<path d="M1893,5284 L2070,2495" stroke="blue" stroke-width="2" />
<path d="M279,1445 L5176,7073" stroke="blue" stroke-width="2" />
<path d="M3615,1002 L4687,2065" stroke="blue" stroke-width="2" />
<path d="M2021,1678 L971,4418" stroke="blue" stroke-width="2" />
<path d="M3286,1110 L6415,5100" stroke="blue" stroke-width="2" />
<path d="M4144,5453 L948,6267" stroke="blue" stroke-width="2" />
<path d="M1387,2530 L2160,5582" stroke="blue" stroke-width="2" />
<path d="M2600,7113 L3624,944" stroke="blue" stroke-width="2" />
<path d="M1610,6338 L2496,6511" stroke="blue" stroke-width="2" />
<path d="M5166,1447 L2557,2016" stroke="blue" stroke-width="2" />
<path d="M3767,198 L6701,6547" stroke="blue" stroke-width="2" />
<path d="M3382,5448 L6702,1800" stroke="blue" stroke-width="2" />
<path d="M6736,5747 L5087,7532" stroke="blue" stroke-width="2" />
<path d="M3759,2201 L6062,6524" stroke="blue" stroke-width="2" />
<path d="M6651,2415 L5842,2303" stroke="blue" stroke-width="2" />
<path d="M944,7037 L4,278" stroke="blue" stroke-width="2" />
<path d="M1823,3696 L4006,3833" stroke="blue" stroke-width="2" />
<path d="M6766,3301 L6755,1493" stroke="blue" stroke-width="2" />
<path d="M2297,7245 L3240,4310" stroke="blue" stroke-width="2" />
<path d="M4812,4009 L3641,6057" stroke="blue" stroke-width="2" />
<path d="M3485,2403 L7037,1553" stroke="blue" stroke-width="2" />
<path d="M3734,3082 L1194,2815" stroke="blue" stroke-width="2" />
<path d="M6286,3174 L4190,499" stroke="blue" stroke-width="2" />
<path d="M2938,1668 L2662,970" stroke="blue" stroke-width="2" />
<path d="M469,2891 L6218,53" stroke="blue" stroke-width="2" />
<path d="M2823,6891 L6260,7181" stroke="blue" stroke-width="2" />
<path d="M6408,5784 L3095,1333" stroke="blue" stroke-width="2" />
<path d="M3648,4346 L4539,1263" stroke="blue" stroke-width="2" />
<path d="M868,6541 L6093,5364" stroke="blue" stroke-width="2" />
<path d="M5616,6571 L674,4737" stroke="blue" stroke-width="2" />
<path d="M2345,5401 L5720,740" stroke="blue" stroke-width="2" />
<path d="M667,3175 L100,204" stroke="blue" stroke-width="2" />
<path d="M3982,3389 L4837,747" stroke="blue" stroke-width="2" />
<path d="M5950,3036 L182,3496" stroke="blue" stroke-width="2" />
<path d="M5214,4744 L3847,1867" stroke="blue" stroke-width="2" />
<path d="M4987,1343 L1422,1791" stroke="blue" stroke-width="2" />
<path d="M1692,6186 L6413,2455" stroke="blue" stroke-width="2" />
<path d="M5402,3437 L3273,2234" stroke="blue" stroke-width="2" />
<path d="M5189,4564 L6921,5638" stroke="blue" stroke-width="2" />
<path d="M5989,5976 L4532,7388" stroke="blue" stroke-width="2" />
<path d="M2322,2108 L4711,4300" stroke="blue" stroke-width="2" />
<path d="M406,4471 L7004,4175" stroke="blue" stroke-width="2" />
<path d="M2766,6565 L4105,6833" stroke="blue" stroke-width="2" />
<path d="M4348,180 L953,209" stroke="blue" stroke-width="2" />
<path d="M6151,2841 L3687,5197" stroke="blue" stroke-width="2" />
<path d="M6016,6159 L6667,650" stroke="blue" stroke-width="2" />
<path d="M3245,6210 L1543,6053" stroke="blue" stroke-width="2" />
<path d="M186,5931 L868,3175" stroke="blue" stroke-width="2" />
<path d="M2996,2276 L5096,1896" stroke="blue" stroke-width="2" />
<path d="M1505,2935 L1920,6014" stroke="blue" stroke-width="2" />
<path d="M1800,4606 L5373,3746" stroke="blue" stroke-width="2" />
<path d="M3111,4829 L527,2903" stroke="blue" stroke-width="2" />
<path d="M2138,5101 L4302,2057" stroke="blue" stroke-width="2" />
<path d="M1919,341 L2389,6945" stroke="blue" stroke-width="2" />
<path d="M5680,2288 L5729,5895" stroke="blue" stroke-width="2" />
<path d="M7030,6538 L6086,1891" stroke="blue" stroke-width="2" />
<path d="M238,7262 L6180,718" stroke="blue" stroke-width="2" />
<path d="M3695,6202 L270,715" stroke="blue" stroke-width="2" />
<path d="M897,1428 L3937,3192" stroke="blue" stroke-width="2" />
<path d="M2071,2147 L1618,260" stroke="blue" stroke-width="2" />
<path d="M3150,1498 L1950,4758" stroke="blue" stroke-width="2" />
<path d="M4749,5585 L3119,7543" stroke="blue" stroke-width="2" />
<path d="M4607,2605 L3908,6564" stroke="blue" stroke-width="2" />
<path d="M2580,4873 L7186,5961" stroke="blue" stroke-width="2" />
<path d="M2299,6598 L5142,173" stroke="blue" stroke-width="2" />
<path d="M6689,229 L5105,77" stroke="blue" stroke-width="2" />
<path d="M1111,1929 L1806,2949" stroke="blue" stroke-width="2" />
<path d="M2506,7275 L5267,6724" stroke="blue" stroke-width="2" />
<path d="M3158,320 L2786,1111" stroke="blue" stroke-width="2" />
<path d="M738,1049 L3018,2083" stroke="blue" stroke-width="2" />
<path d="M4080,4011 L1100,5095" stroke="blue" stroke-width="2" />
<path d="M3889,4147 L4808,6971" stroke="blue" stroke-width="2" />
<path d="M2679,4367 L2118,6533" stroke="blue" stroke-width="2" />
<path d="M5112,3804 L6054,4121" stroke="blue" stroke-width="2" />
<path d="M4830,2059 L1040,5073" stroke="blue" stroke-width="2" />
<path d="M2981,4024 L5854,1266" stroke="blue" stroke-width="2" />
<path d="M4125,3048 L3459,212" stroke="blue" stroke-width="2" />
<path d="M245,2274 L825,6306" stroke="blue" stroke-width="2" />
<path d="M4431,4328 L2521,559" stroke="blue" stroke-width="2" />
<path d="M3095,4627 L6319,2219" stroke="blue" stroke-width="2" />
<path d="M1316,1741 L3675,5919" stroke="blue" stroke-width="2" />
<path d="M2936,5565 L1236,1317" stroke="blue" stroke-width="2" />
<path d="M2840,7456 L5248,4958" stroke="blue" stroke-width="2" />
<path d="M3517,6155 L5728,4129" stroke="blue" stroke-width="2" />
<path d="M4347,119 L3032,3454" stroke="blue" stroke-width="2" />
<path d="M4452,6708 L987,7556" stroke="blue" stroke-width="2" />
<path d="M6660,6166 L4179,5257" stroke="blue" stroke-width="2" />
<path d="M4903,3102 L2759,1347" stroke="blue" stroke-width="2" />
<path d="M5500,275 L7001,6996" stroke="blue" stroke-width="2" />
<path d="M2159,3686 L5653,5296" stroke="blue" stroke-width="2" />
<path d="M6297,3799 L2740,791" stroke="blue" stroke-width="2" />
<path d="M6472,5257 L1943,5609" stroke="blue" stroke-width="2" />
<path d="M4809,635 L1804,2225" stroke="blue" stroke-width="2" />
<path d="M6257,1998 L3406,2125" stroke="blue" stroke-width="2" />
<path d="M2909,6776 L5530,3712" stroke="blue" stroke-width="2" />
<path d="M5711,243 L4706,2806" stroke="blue" stroke-width="2" />
<path d="M2577,1363 L4231,7134" stroke="blue" stroke-width="2" />
<path d="M4617,1467 L4715,2999" stroke="blue" stroke-width="2" />
<path d="M5948,5337 L1083,4313" stroke="blue" stroke-width="2" />
<path d="M6443,3322 L5717,3768" stroke="blue" stroke-width="2" />
<path d="M6791,5656 L6499,6309" stroke="blue" stroke-width="2" />
<path d="M4115,2689 L1809,2883" stroke="blue" stroke-width="2" />
<path d="M4043,469 L6585,2009" stroke="blue" stroke-width="2" />
<path d="M6638,395 L1385,5793" stroke="blue" stroke-width="2" />
<path d="M5901,3995 L5108,5847" stroke="blue" stroke-width="2" />
<path d="M5438,7465 L5438,526" stroke="blue" stroke-width="2" />
<path d="M428,1603 L9,208" stroke="blue" stroke-width="2" />
<path d="M4036,2282 L5346,6430" stroke="blue" stroke-width="2" />
<path d="M5561,4914 L4098,4876" stroke="blue" stroke-width="2" />
<path d="M2172,943 L972,4009" stroke="blue" stroke-width="2" />
<path d="M3359,2061 L4744,630" stroke="blue" stroke-width="2" />
<path d="M5899,4668 L4698,1546" stroke="blue" stroke-width="2" />
<path d="M4262,4746 L2607,4258" stroke="blue" stroke-width="2" />
<path d="M5163,691 L4535,4091" stroke="blue" stroke-width="2" />
<path d="M3540,562 L635,7213" stroke="blue" stroke-width="2" />
<path d="M4589,370 L3518,3179" stroke="blue" stroke-width="2" />
<path d="M4643,1165 L206,4909" stroke="blue" stroke-width="2" />
<path d="M1,5511 L2951,730" stroke="blue" stroke-width="2" />
<path d="M3047,972 L4501,2462" stroke="blue" stroke-width="2" />
<path d="M2149,1828 L1867,3594" stroke="blue" stroke-width="2" />
<path d="M3630,4364 L4620,2311" stroke="blue" stroke-width="2" />
<path d="M3616,944 L369,2886" stroke="blue" stroke-width="2" />
<path d="M5166,7168 L2706,102" stroke="blue" stroke-width="2" />
<path d="M3594,1291 L2842,1702" stroke="blue" stroke-width="2" />
<path d="M4348,449 L4181,5807" stroke="blue" stroke-width="2" />
<path d="M4679,701 L2156,7142" stroke="blue" stroke-width="2" />
<path d="M989,3314 L778,3971" stroke="blue" stroke-width="2" />
<path d="M3847,6315 L4646,552" stroke="blue" stroke-width="2" />
<path d="M4873,1158 L1293,5758" stroke="blue" stroke-width="2" />
<path d="M1714,2089 L5499,3716" stroke="blue" stroke-width="2" />
<path d="M1805,6125 L1781,4900" stroke="blue" stroke-width="2" />
<path d="M1135,6497 L5296,5107" stroke="blue" stroke-width="2" />
<path d="M438,6162 L3802,1812" stroke="blue" stroke-width="2" />
<path d="M7189,5611 L2420,7166" stroke="blue" stroke-width="2" />
<path d="M2255,2492 L4710,2507" stroke="blue" stroke-width="2" />
<path d="M1878,4761 L1676,4119" stroke="blue" stroke-width="2" />
<path d="M1367,6577 L5154,5605" stroke="blue" stroke-width="2" />
<path d="M2231,7409 L3383,4787" stroke="blue" stroke-width="2" />
<path d="M1921,1885 L5929,2738" stroke="blue" stroke-width="2" />
<path d="M6488,5953 L5672,6049" stroke="blue" stroke-width="2" />
<path d="M71,7257 L5087,4554" stroke="blue" stroke-width="2" />
<path d="M5082,554 L2116,5814" stroke="blue" stroke-width="2" />
<path d="M5208,2228 L4039,2648" stroke="blue" stroke-width="2" />
<path d="M7009,3079 L5041,6056" stroke="blue" stroke-width="2" />
<path d="M2721,5697 L1898,5775" stroke="blue" stroke-width="2" />
<path d="M3791,4423 L1544,5972" stroke="blue" stroke-width="2" />
<path d="M3027,6328 L3588,2240" stroke="blue" stroke-width="2" />
<path d="M5642,3826 L1563,3495" stroke="blue" stroke-width="2" />
<path d="M1356,1194 L1894,2775" stroke="blue" stroke-width="2" />
<path d="M5649,4116 L2641,1301" stroke="blue" stroke-width="2" />
<path d="M5528,3155 L1230,3281" stroke="blue" stroke-width="2" />
<path d="M5989,6559 L5759,6027" stroke="blue" stroke-width="2" />
<path d="M1951,5662 L5692,5569" stroke="blue" stroke-width="2" />
<path d="M3834,6859 L1046,2438" stroke="blue" stroke-width="2" />
<path d="M5593,4038 L2760,2693" stroke="blue" stroke-width="2" />
<path d="M4009,7251 L2131,786" stroke="blue" stroke-width="2" />
<path d="M3804,4491 L2304,5199" stroke="blue" stroke-width="2" />
<path d="M3112,4925 L467,4491" stroke="blue" stroke-width="2" />
<path d="M3032,2879 L4486,406" stroke="blue" stroke-width="2" />
<path d="M892,785 L6058,2450" stroke="blue" stroke-width="2" />
<path d="M2363,3199 L5085,545" stroke="blue" stroke-width="2" />
<path d="M5162,433 L4286,5122" stroke="blue" stroke-width="2" />
<path d="M165,3526 L1130,1358" stroke="blue" stroke-width="2" />
<path d="M654,4042 L4526,925" stroke="blue" stroke-width="2" />
<path d="M2069,6682 L4423,2712" stroke="blue" stroke-width="2" />
<path d="M731,1506 L520,5046" stroke="blue" stroke-width="2" />
<path d="M4923,7144 L3092,630" stroke="blue" stroke-width="2" />
<path d="M6876,6516 L2626,6980" stroke="blue" stroke-width="2" />
<path d="M4201,1524 L2929,3912" stroke="blue" stroke-width="2" />
<path d="M4796,1297 L1109,4718" stroke="blue" stroke-width="2" />
<path d="M4268,85 L2846,4383" stroke="blue" stroke-width="2" />
<path d="M3478,6320 L6242,3574" stroke="blue" stroke-width="2" />
<path d="M4269,2548 L6263,337" stroke="blue" stroke-width="2" />
<path d="M2096,1549 L445,5542" stroke="blue" stroke-width="2" />
<path d="M3085,7571 L69,3390" stroke="blue" stroke-width="2" />
<path d="M3690,1596 L1977,4809" stroke="blue" stroke-width="2" />
<path d="M641,4387 L5299,3191" stroke="blue" stroke-width="2" />
<path d="M5452,6396 L3416,1371" stroke="blue" stroke-width="2" />
<path d="M3627,4767 L2195,3973" stroke="blue" stroke-width="2" />
<path d="M3703,7085 L1321,1726" stroke="blue" stroke-width="2" />
<path d="M5562,3272 L1822,4319" stroke="blue" stroke-width="2" />
<path d="M2225,2455 L3681,5519" stroke="blue" stroke-width="2" />
<path d="M6457,7111 L2339,7098" stroke="blue" stroke-width="2" />
<path d="M985,6043 L3848,1112" stroke="blue" stroke-width="2" />
<path d="M1455,6134 L2501,3494" stroke="blue" stroke-width="2" />
<path d="M1801,6290 L5687,3359" stroke="blue" stroke-width="2" />
<path d="M5160,92 L4440,6299" stroke="blue" stroke-width="2" />
<path d="M2954,1868 L775,2359" stroke="blue" stroke-width="2" />
<path d="M4406,4629 L3484,5530" stroke="blue" stroke-width="2" />
<path d="M5600,5271 L3796,6234" stroke="blue" stroke-width="2" />
<path d="M4829,3659 L5387,1442" stroke="blue" stroke-width="2" />
<path d="M559,3914 L4210,5809" stroke="blue" stroke-width="2" />
<path d="M3421,4850 L4515,613" stroke="blue" stroke-width="2" />
<path d="M4109,3792 L2083,4465" stroke="blue" stroke-width="2" />
<path d="M6465,584 L4664,7484" stroke="blue" stroke-width="2" />
<path d="M6994,2396 L6691,4340" stroke="blue" stroke-width="2" />
<path d="M4730,4190 L3788,3296" stroke="blue" stroke-width="2" />
<path d="M2203,5642 L281,953" stroke="blue" stroke-width="2" />
<path d="M6456,7429 L691,2837" stroke="blue" stroke-width="2" />
<path d="M2654,4027 L199,892" stroke="blue" stroke-width="2" />
<path d="M1585,4091 L2919,5907" stroke="blue" stroke-width="2" />
<path d="M1897,6594 L6604,5724" stroke="blue" stroke-width="2" />
<path d="M4117,2039 L6511,4830" stroke="blue" stroke-width="2" />
<path d="M4119,4788 L2950,7249" stroke="blue" stroke-width="2" />
<path d="M4235,2056 L6238,7200" stroke="blue" stroke-width="2" />
<path d="M1471,7193 L2616,1047" stroke="blue" stroke-width="2" />
<path d="M5588,6256 L5081,4569" stroke="blue" stroke-width="2" />
<path d="M3487,1669 L5960,4846" stroke="blue" stroke-width="2" />
<path d="M734,3481 L2475,7285" stroke="blue" stroke-width="2" />
<path d="M1752,3275 L1599,292" stroke="blue" stroke-width="2" />
<path d="M354,44 L4876,1413" stroke="blue" stroke-width="2" />
<path d="M6224,4068 L4311,2515" stroke="blue" stroke-width="2" />
<path d="M3539,4128 L5548,6622" stroke="blue" stroke-width="2" />
<path d="M1870,6867 L5862,1663" stroke="blue" stroke-width="2" />
<path d="M6711,184 L2979,5062" stroke="blue" stroke-width="2" />
<path d="M548,6868 L4545,5100" stroke="blue" stroke-width="2" />
<path d="M2042,36 L6976,3472" stroke="blue" stroke-width="2" />
<path d="M5965,1443 L3554,1469" stroke="blue" stroke-width="2" />
<path d="M5017,2909 L4758,5206" stroke="blue" stroke-width="2" />
<path d="M5116,4014 L5220,2617" stroke="blue" stroke-width="2" />
<path d="M103,5378 L319,1120" stroke="blue" stroke-width="2" />
<path d="M5008,7126 L6374,677" stroke="blue" stroke-width="2" />
<path d="M1589,5897 L840,6219" stroke="blue" stroke-width="2" />
<path d="M6250,2920 L6172,5132" stroke="blue" stroke-width="2" />
<path d="M8,6809 L6223,2073" stroke="blue" stroke-width="2" />
<path d="M2143,2395 L5268,4780" stroke="blue" stroke-width="2" />
<path d="M2366,1754 L5220,7598" stroke="blue" stroke-width="2" />
<path d="M6026,4455 L3478,3659" stroke="blue" stroke-width="2" />
<path d="M2610,989 L2103,7172" stroke="blue" stroke-width="2" />
<path d="M4217,2257 L4684,289" stroke="blue" stroke-width="2" />
<path d="M982,3648 L1825,787" stroke="blue" stroke-width="2" />
<path d="M5921,5801 L670,3558" stroke="blue" stroke-width="2" />
<path d="M3356,4870 L610,3463" stroke="blue" stroke-width="2" />
<path d="M543,6813 L7080,6182" stroke="blue" stroke-width="2" />
<path d="M1399,2996 L4617,838" stroke="blue" stroke-width="2" />
<path d="M3541,4554 L2477,2151" stroke="blue" stroke-width="2" />
<path d="M4386,5276 L6595,5130" stroke="blue" stroke-width="2" />
<path d="M5043,7254 L498,2369" stroke="blue" stroke-width="2" />
<path d="M4677,5424 L1272,409" stroke="blue" stroke-width="2" />
<path d="M1762,3418 L869,1743" stroke="blue" stroke-width="2" />
<path d="M3505,2862 L1559,1331" stroke="blue" stroke-width="2" />
<path d="M6488,7593 L3189,6146" stroke="blue" stroke-width="2" />
<path d="M5606,7009 L300,6491" stroke="blue" stroke-width="2" />
<path d="M1467,5059 L5763,1043" stroke="blue" stroke-width="2" />
<path d="M576,2412 L6004,7097" stroke="blue" stroke-width="2" />
<path d="M4256,5212 L638,6882" stroke="blue" stroke-width="2" />
<path d="M1900,662 L3721,2911" stroke="blue" stroke-width="2" />
<path d="M6756,2258 L4969,5909" stroke="blue" stroke-width="2" />
<path d="M2324,6699 L5396,5712" stroke="blue" stroke-width="2" />
<path d="M2964,527 L4390,1835" stroke="blue" stroke-width="2" />
<path d="M1877,6806 L5794,1217" stroke="blue" stroke-width="2" />
<path d="M1834,3775 L4949,1514" stroke="blue" stroke-width="2" />
<path d="M266,6776 L3446,2768" stroke="blue" stroke-width="2" />
<path d="M6160,1414 L1885,1129" stroke="blue" stroke-width="2" />
<path d="M5335,2626 L6839,6079" stroke="blue" stroke-width="2" />
<path d="M6558,6891 L1610,4135" stroke="blue" stroke-width="2" />
<path d="M4015,7093 L4557,2736" stroke="blue" stroke-width="2" />
<path d="M1129,2567 L3404,3529" stroke="blue" stroke-width="2" />
<path d="M292,6798 L5319,4236" stroke="blue" stroke-width="2" />
<path d="M2468,4227 L5847,1029" stroke="blue" stroke-width="2" />
<path d="M5594,1567 L882,2058" stroke="blue" stroke-width="2" />
<path d="M423,6074 L5702,1144" stroke="blue" stroke-width="2" />
<path d="M2127,7051 L6611,3643" stroke="blue" stroke-width="2" />
<path d="M5561,1545 L5971,7571" stroke="blue" stroke-width="2" />
<path d="M1759,7175 L1847,1148" stroke="blue" stroke-width="2" />
<path d="M7101,6815 L2751,1224" stroke="blue" stroke-width="2" />
<path d="M510,5992 L3869,7386" stroke="blue" stroke-width="2" />
<path d="M7150,1619 L4327,4571" stroke="blue" stroke-width="2" />
<path d="M7157,639 L5970,4793" stroke="blue" stroke-width="2" />
<path d="M1276,4354 L1097,7100" stroke="blue" stroke-width="2" />
<path d="M97,3702 L2011,4877" stroke="blue" stroke-width="2" />
<path d="M6828,2425 L895,1014" stroke="blue" stroke-width="2" />
<path d="M1015,823 L2345,844" stroke="blue" stroke-width="2" />
<path d="M3209,6992 L5574,3845" stroke="blue" stroke-width="2" />
<path d="M1501,4882 L2085,1458" stroke="blue" stroke-width="2" />
<path d="M281,7040 L2291,5862" stroke="blue" stroke-width="2" />
<path d="M433,4916 L4414,1535" stroke="blue" stroke-width="2" />
<path d="M5131,2114 L758,7516" stroke="blue" stroke-width="2" />
<path d="M4618,2797 L5465,2781" stroke="blue" stroke-width="2" />
<path d="M1612,3386 L519,37" stroke="blue" stroke-width="2" />
<path d="M4773,2588 L6981,5144" stroke="blue" stroke-width="2" />
<path d="M2300,3618 L3703,1646" stroke="blue" stroke-width="2" />
<path d="M3913,45 L4171,4385" stroke="blue" stroke-width="2" />
<path d="M1009,2272 L435,3654" stroke="blue" stroke-width="2" />
<path d="M4141,4381 L5363,7501" stroke="blue" stroke-width="2" />
<path d="M6629,1561 L7161,5186" stroke="blue" stroke-width="2" />
<path d="M5708,7423 L1168,7009" stroke="blue" stroke-width="2" />
<path d="M5130,1891 L6623,2334" stroke="blue" stroke-width="2" />
<path d="M5255,3763 L728,7537" stroke="blue" stroke-width="2" />
<path d="M2285,4730 L4104,7443" stroke="blue" stroke-width="2" />
<path d="M6241,1168 L1008,5181" stroke="blue" stroke-width="2" />
<path d="M5845,609 L6196,4406" stroke="blue" stroke-width="2" />
<path d="M6448,7093 L6131,4271" stroke="blue" stroke-width="2" />
<path d="M3764,6369 L5161,4462" stroke="blue" stroke-width="2" />
<path d="M4559,7055 L928,1355" stroke="blue" stroke-width="2" />
<path d="M6481,645 L2357,7023" stroke="blue" stroke-width="2" />
<path d="M292,3859 L5395,3689" stroke="blue" stroke-width="2" />
<path d="M3423,2215 L739,2924" stroke="blue" stroke-width="2" />
<path d="M3536,3945 L5021,4677" stroke="blue" stroke-width="2" />
<path d="M3069,4634 L5691,5115" stroke="blue" stroke-width="2" />
<path d="M6040,779 L3316,2759" stroke="blue" stroke-width="2" />
<path d="M3981,4462 L3587,2786" stroke="blue" stroke-width="2" />
<path d="M4644,3771 L7048,4820" stroke="blue" stroke-width="2" />
<path d="M5138,5039 L5545,2585" stroke="blue" stroke-width="2" />
<path d="M6227,6111 L1161,3305" stroke="blue" stroke-width="2" />
<path d="M720,6763 L1580,3525" stroke="blue" stroke-width="2" />
<path d="M7105,7161 L2302,6461" stroke="blue" stroke-width="2" />
<path d="M2475,2914 L3748,881" stroke="blue" stroke-width="2" />
<path d="M4365,6047 L3982,5611" stroke="blue" stroke-width="2" />
<path d="M1802,2275 L4915,4263" stroke="blue" stroke-width="2" />
<path d="M5609,3263 L3763,6802" stroke="blue" stroke-width="2" />
<path d="M1743,6398 L3282,1159" stroke="blue" stroke-width="2" />
<path d="M7213,7049 L2925,4364" stroke="blue" stroke-width="2" />
<path d="M4862,68 L1938,7588" stroke="blue" stroke-width="2" />
<path d="M4191,1609 L5937,6069" stroke="blue" stroke-width="2" />
<path d="M3328,6036 L5096,5477" stroke="blue" stroke-width="2" />
<path d="M6148,1297 L3968,5" stroke="blue" stroke-width="2" />
<path d="M2167,5825 L3513,3254" stroke="blue" stroke-width="2" />
<path d="M0,0 L7218,0" stroke="red" stroke-width="10" />
<path d="M7218,0 L7218,7601" stroke="red" stroke-width="10" />
<path d="M0,7601 L7218,7601" stroke="red" stroke-width="10" />
<path d="M0,7601 L0,0" stroke="red" stroke-width="10" />
</svg>