<?xml version="1.0" encoding="UTF-8"?>
<svg xmlns="http://www.w3.org/2000/svg" xmlns:xlink="http://www.w3.org/1999/xlink"
     width="10000" height="10000" viewBox="0 0 10000 10000">
<defs>
</defs>
<path d="M3152,6302 L987,2806" stroke="blue" stroke-width="2" />
<path d="M1233,2964 L3493,1640" stroke="blue" stroke-width="2" />
<path d="M2588,6406 L2180,7599" stroke="blue" stroke-width="2" />
<path d="M2372,1026 L1889,5009" stroke="blue" stroke-width="2" />
<path d="M2023,1490 L1027,4464" stroke="blue" stroke-width="2" />
<path d="M3248,4558 L2488,7328" stroke="blue" stroke-width="2" />
<path d="M3008,6054 L1648,5866" stroke="blue" stroke-width="2" />
<path d="M707,397 L1172,576" stroke="blue" stroke-width="2" />
<path d="M1394,3343 L1880,5968" stroke="blue" stroke-width="2" />
<path d="M328,2833 L19,6639" stroke="blue" stroke-width="2" />
<path d="M2871,3333 L405,4775" stroke="blue" stroke-width="2" />
<path d="M1855,5114 L1362,7489" stroke="blue" stroke-width="2" />
<path d="M3125,5481 L3308,5311" stroke="blue" stroke-width="2" />
<path d="M2498,871 L891,3169" stroke="blue" stroke-width="2" />
<path d="M2350,4892 L1478,1246" stroke="blue" stroke-width="2" />
<path d="M1889,7800 L3074,2700" stroke="blue" stroke-width="2" />
<path d="M1015,7033 L3180,2834" stroke="blue" stroke-width="2" />
<path d="M495,7436 L487,7125" stroke="blue" stroke-width="2" />
<path d="M2343,5072 L783,1967" stroke="blue" stroke-width="2" />
<path d="M2426,7581 L682,5276" stroke="blue" stroke-width="2" />
<path d="M1452,6095 L943,6912" stroke="blue" stroke-width="2" />
<path d="M1019,7133 L295,2592" stroke="blue" stroke-width="2" />
<path d="M3560,4626 L3395,3652" stroke="blue" stroke-width="2" />
<path d="M1501,7526 L2806,3047" stroke="blue" stroke-width="2" />
<path d="M754,7437 L2701,4073" stroke="blue" stroke-width="2" />
<path d="M688,972 L1212,7305" stroke="blue" stroke-width="2" />
<path d="M508,4298 L618,5436" stroke="blue" stroke-width="2" />
<path d="M2377,1063 L1634,3112" stroke="blue" stroke-width="2" />
<path d="M1685,2567 L1006,529" stroke="blue" stroke-width="2" />
<path d="M2162,3865 L3096,3960" stroke="blue" stroke-width="2" />
<path d="M2025,2107 L573,3808" stroke="blue" stroke-width="2" />
<path d="M3623,4883 L3747,7420" stroke="blue" stroke-width="2" />
<path d="M1876,2226 L3360,1765" stroke="blue" stroke-width="2" />
<path d="M3559,2791 L54,376" stroke="blue" stroke-width="2" />
<path d="M2833,787 L2075,4321" stroke="blue" stroke-width="2" />
<path d="M102,5536 L1448,5126" stroke="blue" stroke-width="2" />
<path d="M3692,2655 L1073,2325" stroke="blue" stroke-width="2" />
<path d="M2269,1762 L869,6177" stroke="blue" stroke-width="2" />
<path d="M2041,1917 L582,7054" stroke="blue" stroke-width="2" />
<path d="M1853,3891 L1063,2419" stroke="blue" stroke-width="2" />
<path d="M2839,7343 L273,1662" stroke="blue" stroke-width="2" />
<path d="M810,3871 L2064,4731" stroke="blue" stroke-width="2" />
<path d="M3110,932 L3484,390" stroke="blue" stroke-width="2" />
<path d="M3259,2832 L284,3246" stroke="blue" stroke-width="2" />
<path d="M2721,2007 L1215,1063" stroke="blue" stroke-width="2" />
<path d="M1396,2153 L263,5255" stroke="blue" stroke-width="2" />
<path d="M142,772 L2319,5538" stroke="blue" stroke-width="2" />
<path d="M2518,1548 L544,377" stroke="blue" stroke-width="2" />
<path d="M1902,199 L607,4740" stroke="blue" stroke-width="2" />
<path d="M369,1315 L2967,4482" stroke="blue" stroke-width="2" />
<path d="M1909,7013 L1505,7071" stroke="blue" stroke-width="2" />
<path d="M1758,592 L1811,5697" stroke="blue" stroke-width="2" />
<path d="M3265,5220 L307,5923" stroke="blue" stroke-width="2" />
<path d="M514,4643 L2654,1218" stroke="blue" stroke-width="2" />
<path d="M2477,5906 L2017,5119" stroke="blue" stroke-width="2" />
<path d="M3345,5874 L1203,4411" stroke="blue" stroke-width="2" />
<path d="M1363,4907 L2343,996" stroke="blue" stroke-width="2" />
<path d="M1830,4705 L2134,4322" stroke="blue" stroke-width="2" />
<path d="M1128,4381 L1594,218" stroke="blue" stroke-width="2" />
<path d="M2010,2249 L1308,1059" stroke="blue" stroke-width="2" />
<path d="M576,6196 L610,3858" stroke="blue" stroke-width="2" />
<path d="M3363,55 L185,1268" stroke="blue" stroke-width="2" />
<path d="M2608,6317 L1125,971" stroke="blue" stroke-width="2" />
<path d="M465,4905 L3315,5509" stroke="blue" stroke-width="2" />
<path d="M1723,3024 L91,93" stroke="blue" stroke-width="2" />
<path d="M3546,5291 L2243,4448" stroke="blue" stroke-width="2" />
<path d="M959,6355 L75,1411" stroke="blue" stroke-width="2" />
<path d="M129,114 L419,5203" stroke="blue" stroke-width="2" />
<path d="M2006,7262 L3353,5264" stroke="blue" stroke-width="2" />
<path d="M1293,4226 L913,4171" stroke="blue" stroke-width="2" />
<path d="M2604,626 L2861,1502" stroke="blue" stroke-width="2" />
<path d="M1858,1653 L1446,890" stroke="blue" stroke-width="2" />
<path d="M1928,1720 L63,5840" stroke="blue" stroke-width="2" />
<path d="M2317,4183 L54,7587" stroke="blue" stroke-width="2" />
<path d="M2325,1132 L2593,4695" stroke="blue" stroke-width="2" />
<path d="M854,5052 L756,1153" stroke="blue" stroke-width="2" />
<path d="M2325,1170 L3759,3791" stroke="blue" stroke-width="2" />
<path d="M1477,3669 L1715,4482" stroke="blue" stroke-width="2" />
<path d="M2965,6287 L52,2000" stroke="blue" stroke-width="2" />
<path d="M149,5018 L1864,2203" stroke="blue" stroke-width="2" />
<path d="M2062,7326 L1228,3745" stroke="blue" stroke-width="2" />
<path d="M911,2151 L1645,2726" stroke="blue" stroke-width="2" />
<path d="M1383,7780 L504,4795" stroke="blue" stroke-width="2" />
<path d="M1524,4398 L2906,2044" stroke="blue" stroke-width="2" />
<path d="M270,3729 L1689,2485" stroke="blue" stroke-width="2" />
<path d="M237,195 L320,7800" stroke="blue" stroke-width="2" />
<path d="M2984,609 L457,6201" stroke="blue" stroke-width="2" />
<path d="M2041,574 L278,965" stroke="blue" stroke-width="2" />
<path d="M1451,696 L563,5532" stroke="blue" stroke-width="2" />
<path d="M1883,5318 L3403,1684" stroke="blue" stroke-width="2" />
<path d="M3328,2312 L2577,493" stroke="blue" stroke-width="2" />
<path d="M3483,4480 L2130,5639" stroke="blue" stroke-width="2" />
<path d="M1367,2994 L2643,3561" stroke="blue" stroke-width="2" />
<path d="M2971,6237 L1859,2178" stroke="blue" stroke-width="2" />
<path d="M2552,2490 L423,274" stroke="blue" stroke-width="2" />
<path d="M2824,3441 L2428,6387" stroke="blue" stroke-width="2" />
<path d="M2731,5602 L1805,7315" stroke="blue" stroke-width="2" />
<path d="M290,1975 L929,3117" stroke="blue" stroke-width="2" />
<path d="M2881,7659 L531,1022" stroke="blue" stroke-width="2" />
<path d="M3244,3263 L2514,4234" stroke="blue" stroke-width="2" />
<path d="M2973,1416 L1275,2980" stroke="blue" stroke-width="2" />
<path d="M103,2879 L277,5071" stroke="blue" stroke-width="2" />
<path d="M2683,805 L1457,3597" stroke="blue" stroke-width="2" />
<path d="M1904,71 L1461,30" stroke="blue" stroke-width="2" />
<path d="M1980,3733 L1510,6836" stroke="blue" stroke-width="2" />
<path d="M2644,7430 L2693,1584" stroke="blue" stroke-width="2" />
<path d="M146,5663 L2717,3146" stroke="blue" stroke-width="2" />
<path d="M692,670 L3089,1512" stroke="blue" stroke-width="2" />
<path d="M2193,4455 L34,7147" stroke="blue" stroke-width="2" />
<path d="M268,5196 L1267,1166" stroke="blue" stroke-width="2" />
<path d="M2018,5206 L2340,4846" stroke="blue" stroke-width="2" />
<path d="M1514,343 L1720,6472" stroke="blue" stroke-width="2" />
<path d="M1737,2506 L783,3478" stroke="blue" stroke-width="2" />
<path d="M189,7165 L3394,395" stroke="blue" stroke-width="2" />
<path d="M1763,5320 L2529,443" stroke="blue" stroke-width="2" />
<path d="M1680,4142 L493,6424" stroke="blue" stroke-width="2" />
<path d="M2563,5916 L3587,4894" stroke="blue" stroke-width="2" />
<path d="M3062,4266 L3722,6744" stroke="blue" stroke-width="2" />
<path d="M1932,2331 L3296,4287" stroke="blue" stroke-width="2" />
<path d="M1251,204 L501,7075" stroke="blue" stroke-width="2" />
<path d="M508,1361 L2351,2606" stroke="blue" stroke-width="2" />
<path d="M528,11 L1098,5535" stroke="blue" stroke-width="2" />
<path d="M1349,4441 L454,174" stroke="blue" stroke-width="2" />
<path d="M170,4207 L1646,3608" stroke="blue" stroke-width="2" />
<path d="M3109,6051 L1608,7197" stroke="blue" stroke-width="2" />
<path d="M980,2814 L957,2314" stroke="blue" stroke-width="2" />
<path d="M985,6927 L3757,6098" stroke="blue" stroke-width="2" />
<path d="M1671,1320 L274,1797" stroke="blue" stroke-width="2" />
<path d="M3034,2979 L431,7595" stroke="blue" stroke-width="2" />
<path d="M3542,1568 L2842,5630" stroke="blue" stroke-width="2" />
<path d="M1188,186 L117,976" stroke="blue" stroke-width="2" />
<path d="M1867,3325 L545,7747" stroke="blue" stroke-width="2" />
<path d="M139,3278 L3327,4701" stroke="blue" stroke-width="2" />
<path d="M1302,3879 L2011,4242" stroke="blue" stroke-width="2" />
<path d="M2918,160 L492,592" stroke="blue" stroke-width="2" />
<path d="M2287,4008 L621,1482" stroke="blue" stroke-width="2" />
<path d="M481,4457 L2080,104" stroke="blue" stroke-width="2" />
<path d="M1228,1435 L3222,860" stroke="blue" stroke-width="2" />
<path d="M77,7554 L656,7063" stroke="blue" stroke-width="2" />
<path d="M134,4699 L1247,5118" stroke="blue" stroke-width="2" />
<path d="M1930,5008 L2789,243" stroke="blue" stroke-width="2" />
<path d="M2801,4255 L2229,6821" stroke="blue" stroke-width="2" />
<path d="M3633,2220 L2324,6754" stroke="blue" stroke-width="2" />
<path d="M2724,1872 L2308,4016" stroke="blue" stroke-width="2" />
<path d="M3531,2191 L1118,3837" stroke="blue" stroke-width="2" />
<path d="M2868,4155 L896,4527" stroke="blue" stroke-width="2" />
<path d="M350,1610 L3053,3177" stroke="blue" stroke-width="2" />
<path d="M2505,3549 L3313,7265" stroke="blue" stroke-width="2" />
<path d="M2030,2634 L943,6886" stroke="blue" stroke-width="2" />
<path d="M3325,1303 L1839,5942" stroke="blue" stroke-width="2" />
<path d="M418,5524 L590,6993" stroke="blue" stroke-width="2" />
<path d="M470,997 L1599,3641" stroke="blue" stroke-width="2" />
<path d="M2838,417 L1936,2511" stroke="blue" stroke-width="2" />
<path d="M2015,7016 L3668,7390" stroke="blue" stroke-width="2" />
<path d="M2554,12 L2549,800" stroke="blue" stroke-width="2" />
<path d="M3663,2972 L3515,426" stroke="blue" stroke-width="2" />
<path d="M811,2475 L622,6576" stroke="blue" stroke-width="2" />
<path d="M71,2836 L330,945" stroke="blue" stroke-width="2" />
<path d="M2513,7755 L1006,4411" stroke="blue" stroke-width="2" />
<path d="M311,4445 L2697,6203" stroke="blue" stroke-width="2" />
<path d="M3601,1354 L1088,4606" stroke="blue" stroke-width="2" />
<path d="M13,5319 L3728,2024" stroke="blue" stroke-width="2" />
<path d="M492,6371 L999,4749" stroke="blue" stroke-width="2" />
<path d="M505,974 L424,1104" stroke="blue" stroke-width="2" />
<path d="M2782,7275 L3291,3501" stroke="blue" stroke-width="2" />
<path d="M2778,1825 L1372,917" stroke="blue" stroke-width="2" />
<path d="M1263,6769 L3097,1405" stroke="blue" stroke-width="2" />
<path d="M1299,4868 L363,6618" stroke="blue" stroke-width="2" />
<path d="M2173,4757 L217,4866" stroke="blue" stroke-width="2" />
<path d="M803,2279 L295,2995" stroke="blue" stroke-width="2" />
<path d="M2936,1390 L1379,2168" stroke="blue" stroke-width="2" />
<path d="M82,5046 L2894,6651" stroke="blue" stroke-width="2" />
<path d="M2067,6968 L3089,2592" stroke="blue" stroke-width="2" />
<path d="M1159,328 L2100,1325" stroke="blue" stroke-width="2" />
<path d="M2396,340 L62,7710" stroke="blue" stroke-width="2" />
<path d="M3758,1933 L3079,7431" stroke="blue" stroke-width="2" />
<path d="M2071,2701 L167,4511" stroke="blue" stroke-width="2" />
<path d="M1884,7589 L2226,3923" stroke="blue" stroke-width="2" />
<path d="M410,3461 L1190,6266" stroke="blue" stroke-width="2" />
<path d="M33,7633 L1870,2187" stroke="blue" stroke-width="2" />
<path d="M2930,3421 L381,6711" stroke="blue" stroke-width="2" />
<path d="M786,4021 L593,3075" stroke="blue" stroke-width="2" />
<path d="M1636,5889 L2289,1584" stroke="blue" stroke-width="2" />
<path d="M1441,5071 L3604,5899" stroke="blue" stroke-width="2" />
<path d="M2559,4689 L850,3621" stroke="blue" stroke-width="2" />
<path d="M2697,5898 L910,6049" stroke="blue" stroke-width="2" />
<path d="M506,1104 L1166,4051" stroke="blue" stroke-width="2" />
<path d="M1426,1382 L2855,6270" stroke="blue" stroke-width="2" />
<path d="M3140,7022 L40,2618" stroke="blue" stroke-width="2" />
<path d="M3337,2971 L3065,2340" stroke="blue" stroke-width="2" />
<path d="M106,973 L2803,7783" stroke="blue" stroke-width="2" />
<path d="M3715,5633 L3773,4735" stroke="blue" stroke-width="2" />
<path d="M1923,4046 L826,7630" stroke="blue" stroke-width="2" />
<path d="M1314,7468 L3153,3865" stroke="blue" stroke-width="2" />
<path d="M3004,6241 L2226,6360" stroke="blue" stroke-width="2" />
<path d="M1459,2799 L2389,6376" stroke="blue" stroke-width="2" />
<path d="M687,6680 L686,1276" stroke="blue" stroke-width="2" />
<path d="M1748,5991 L2904,3920" stroke="blue" stroke-width="2" />
<path d="M1729,1047 L1114,533" stroke="blue" stroke-width="2" />
<path d="M2209,3593 L2093,4168" stroke="blue" stroke-width="2" />
<path d="M2387,1688 L416,3946" stroke="blue" stroke-width="2" />
<path d="M3272,1236 L3505,4163" stroke="blue" stroke-width="2" />
<path d="M1082,1580 L78,7724" stroke="blue" stroke-width="2" />
<path d="M2035,2616 L180,6669" stroke="blue" stroke-width="2" />
<path d="M2754,3 L3157,4667" stroke="blue" stroke-width="2" />
<path d="M3218,2490 L1861,6432" stroke="blue" stroke-width="2" />
<path d="M34,183 L1775,2403" stroke="blue" stroke-width="2" />
<path d="M1317,6067 L1590,4341" stroke="blue" stroke-width="2" />
<path d="M3202,5148 L1000,7564" stroke="blue" stroke-width="2" />
<path d="M3443,5658 L613,4965" stroke="blue" stroke-width="2" />
<path d="M2908,6576 L3724,956" stroke="blue" stroke-width="2" />
<path d="M695,5956 L1094,7783" stroke="blue" stroke-width="2" />
<path d="M2642,4437 L2437,3832" stroke="blue" stroke-width="2" />
<path d="M3733,4518 L607,1334" stroke="blue" stroke-width="2" />
<path d="M3752,3063 L568,5152" stroke="blue" stroke-width="2" />
<path d="M2569,3206 L3211,2718" stroke="blue" stroke-width="2" />
<path d="M1072,801 L1714,5395" stroke="blue" stroke-width="2" />
<path d="M3388,758 L402,2643" stroke="blue" stroke-width="2" />
<path d="M3273,7102 L2410,3818" stroke="blue" stroke-width="2" />
<path d="M2332,1327 L889,7413" stroke="blue" stroke-width="2" />
<path d="M1131,4695 L3261,7287" stroke="blue" stroke-width="2" />
<path d="M3135,7558 L1171,6715" stroke="blue" stroke-width="2" />
<path d="M3273,7777 L2252,7544" stroke="blue" stroke-width="2" />
<path d="M2209,7050 L918,4243" stroke="blue" stroke-width="2" />
<path d="M1788,3126 L3296,561" stroke="blue" stroke-width="2" />
<path d="M2863,50 L2736,7596" stroke="blue" stroke-width="2" />
<path d="M3369,91 L1295,2599" stroke="blue" stroke-width="2" />
<path d="M3373,411 L899,149" stroke="blue" stroke-width="2" />
<path d="M3321,5211 L229,4069" stroke="blue" stroke-width="2" />
<path d="M3566,5890 L480,5665" stroke="blue" stroke-width="2" />
<path d="M3574,7491 L1027,4269" stroke="blue" stroke-width="2" />
<path d="M3301,7726 L518,964" stroke="blue" stroke-width="2" />
<path d="M2580,4035 L3489,4151" stroke="blue" stroke-width="2" />
<path d="M289,4293 L547,7499" stroke="blue" stroke-width="2" />
<path d="M1163,5573 L3233,3659" stroke="blue" stroke-width="2" />
<path d="M1807,6176 L200,3840" stroke="blue" stroke-width="2" />
<path d="M2621,1973 L436,7676" stroke="blue" stroke-width="2" />
<path d="M2454,770 L1472,2003" stroke="blue" stroke-width="2" />
<path d="M3599,949 L393,2182" stroke="blue" stroke-width="2" />
<path d="M2244,223 L1078,2910" stroke="blue" stroke-width="2" />
<path d="M503,3471 L718,6855" stroke="blue" stroke-width="2" />
<path d="M3340,4920 L3130,1309" stroke="blue" stroke-width="2" />
<path d="M1445,4915 L14,4703" stroke="blue" stroke-width="2" />
<path d="M852,7484 L3710,1917" stroke="blue" stroke-width="2" />
<path d="M2645,220 L1244,698" stroke="blue" stroke-width="2" />
<path d="M3081,326 L16,1194" stroke="blue" stroke-width="2" />
<path d="M44,7066 L702,6692" stroke="blue" stroke-width="2" />
<path d="M329,3687 L2506,2890" stroke="blue" stroke-width="2" />
<path d="M561,5815 L1108,6052" stroke="blue" stroke-width="2" />
<path d="M1444,6101 L1108,5126" stroke="blue" stroke-width="2" />
<path d="M243,6716 L1383,3317" stroke="blue" stroke-width="2" />
<path d="M2855,491 L1713,6047" stroke="blue" stroke-width="2" />
<path d="M2392,7387 L3122,4642" stroke="blue" stroke-width="2" />
<path d="M1975,5458 L1,2324" stroke="blue" stroke-width="2" />
<path d="M3600,7410 L458,3086" stroke="blue" stroke-width="2" />
<path d="M2506,4576 L3132,2406" stroke="blue" stroke-width="2" />
<path d="M1679,3676 L367,7001" stroke="blue" stroke-width="2" />
<path d="M3058,2459 L407,7810" stroke="blue" stroke-width="2" />
<path d="M2022,4024 L138,928" stroke="blue" stroke-width="2" />
<path d="M3739,6710 L2733,6363" stroke="blue" stroke-width="2" />
<path d="M3557,4275 L1087,871" stroke="blue" stroke-width="2" />
<path d="M2939,2776 L215,151" stroke="blue" stroke-width="2" />
<path d="M3427,6204 L718,5276" stroke="blue" stroke-width="2" />
<path d="M1050,7794 L1779,1375" stroke="blue" stroke-width="2" />
<path d="M1195,195 L2239,6973" stroke="blue" stroke-width="2" />
<path d="M2003,6932 L1554,4492" stroke="blue" stroke-width="2" />
<path d="M3518,4483 L2759,5022" stroke="blue" stroke-width="2" />
<path d="M1855,6672 L1639,1633" stroke="blue" stroke-width="2" />
<path d="M835,7558 L88,7624" stroke="blue" stroke-width="2" />
<path d="M1205,372 L2918,1160" stroke="blue" stroke-width="2" />
<path d="M2639,11 L2742,4046" stroke="blue" stroke-width="2" />
<path d="M1044,5033 L2595,1826" stroke="blue" stroke-width="2" />
<path d="M3247,3572 L381,7012" stroke="blue" stroke-width="2" />
<path d="M570,5805 L3376,2168" stroke="blue" stroke-width="2" />
<path d="M1183,5781 L930,986" stroke="blue" stroke-width="2" />
<path d="M3771,899 L3331,7013" stroke="blue" stroke-width="2" />
<path d="M3203,4369 L2907,3444" stroke="blue" stroke-width="2" />
<path d="M528,602 L21,6565" stroke="blue" stroke-width="2" />
<path d="M2426,795 L2822,7526" stroke="blue" stroke-width="2" />
<path d="M2668,2463 L927,6769" stroke="blue" stroke-width="2" />
<path d="M1963,7127 L3684,365" stroke="blue" stroke-width="2" />
<path d="M2789,6610 L2823,6515" stroke="blue" stroke-width="2" />
<path d="M1056,6293 L86,3124" stroke="blue" stroke-width="2" />
<path d="M1270,2253 L3408,1743" stroke="blue" stroke-width="2" />
<path d="M214,5014 L1786,4209" stroke="blue" stroke-width="2" />
<path d="M3422,550 L2530,327" stroke="blue" stroke-width="2" />
<path d="M3270,39 L2348,7273" stroke="blue" stroke-width="2" />
<path d="M930,3332 L3623,6713" stroke="blue" stroke-width="2" />
<path d="M368,7038 L2643,122" stroke="blue" stroke-width="2" />
<path d="M2728,1016 L2831,2604" stroke="blue" stroke-width="2" />
<path d="M2887,3786 L2113,5696" stroke="blue" stroke-width="2" />
<path d="M1755,6765 L2870,3563" stroke="blue" stroke-width="2" />
<path d="M2686,425 L2213,418" stroke="blue" stroke-width="2" />
<path d="M1735,1624 L561,5442" stroke="blue" stroke-width="2" />
<path d="M3473,7333 L1940,5687" stroke="blue" stroke-width="2" />
<path d="M3430,1791 L3411,2309" stroke="blue" stroke-width="2" />
<path d="M3209,3474 L2247,6798" stroke="blue" stroke-width="2" />
<path d="M745,3510 L263,1070" stroke="blue" stroke-width="2" />
<path d="M1580,4532 L2388,135" stroke="blue" stroke-width="2" />
<path d="M3351,4483 L505,7785" stroke="blue" stroke-width="2" />
<path d="M3177,3318 L1585,1798" stroke="blue" stroke-width="2" />
<path d="M1574,1060 L1371,2994" stroke="blue" stroke-width="2" />
<path d="M2826,3651 L3731,4587" stroke="blue" stroke-width="2" />
<path d="M2800,688 L2095,3650" stroke="blue" stroke-width="2" />
<path d="M268,2591 L2828,4635" stroke="blue" stroke-width="2" />
<path d="M2036,4700 L1218,920" stroke="blue" stroke-width="2" />
<path d="M3440,6913 L2013,5118" stroke="blue" stroke-width="2" />
<path d="M3234,1812 L989,7041" stroke="blue" stroke-width="2" />
<path d="M1323,7718 L1730,3614" stroke="blue" stroke-width="2" />
<path d="M87,717 L823,7727" stroke="blue" stroke-width="2" />
<path d="M1422,6582 L1374,1500" stroke="blue" stroke-width="2" />
<path d="M2258,5616 L3379,5929" stroke="blue" stroke-width="2" />
<path d="M436,1381 L1470,2256" stroke="blue" stroke-width="2" />
<path d="M412,4226 L3731,7053" stroke="blue" stroke-width="2" />
<path d="M1856,5929 L1059,1524" stroke="blue" stroke-width="2" />
<path d="M959,767 L1318,5151" stroke="blue" stroke-width="2" />
<path d="M1475,2002 L3535,337" stroke="blue" stroke-width="2" />
<path d="M352,3169 L2794,3312" stroke="blue" stroke-width="2" />
<path d="M1068,3131 L2407,2971" stroke="blue" stroke-width="2" />
<path d="M2464,3548 L3745,4706" stroke="blue" stroke-width="2" />
<path d="M2763,1077 L2173,2654" stroke="blue" stroke-width="2" />
<path d="M2555,3192 L686,2379" stroke="blue" stroke-width="2" />
<path d="M2407,1580 L2865,7163" stroke="blue" stroke-width="2" />
<path d="M1897,6750 L3595,3834" stroke="blue" stroke-width="2" />
<path d="M1576,5716 L506,2524" stroke="blue" stroke-width="2" />
<path d="M2201,2092 L633,4919" stroke="blue" stroke-width="2" />
<path d="M589,271 L837,373" stroke="blue" stroke-width="2" />
<path d="M619,6016 L3622,1042" stroke="blue" stroke-width="2" />
<path d="M1096,5155 L36,2629" stroke="blue" stroke-width="2" />
<path d="M3329,1165 L476,7077" stroke="blue" stroke-width="2" />
<path d="M3709,2722 L1495,7774" stroke="blue" stroke-width="2" />
<path d="M2479,2965 L1599,34" stroke="blue" stroke-width="2" />
<path d="M2180,3900 L1201,121" stroke="blue" stroke-width="2" />
<path d="M51,6419 L2387,3009" stroke="blue" stroke-width="2" />
<path d="M30,3533 L736,5518" stroke="blue" stroke-width="2" />
<path d="M2268,7089 L2286,3141" stroke="blue" stroke-width="2" />
<path d="M344,7606 L1030,7535" stroke="blue" stroke-width="2" />
<path d="M867,2105 L2617,1049" stroke="blue" stroke-width="2" />
<path d="M236,5352 L1607,7489" stroke="blue" stroke-width="2" />
<path d="M2719,7140 L346,5704" stroke="blue" stroke-width="2" />
<path d="M498,7355 L527,4805" stroke="blue" stroke-width="2" />
<path d="M3096,7276 L361,4479" stroke="blue" stroke-width="2" />
<path d="M3308,1637 L3545,7761" stroke="blue" stroke-width="2" />
<path d="M1110,8 L220,7238" stroke="blue" stroke-width="2" />
<path d="M2535,2372 L3690,6973" stroke="blue" stroke-width="2" />
<path d="M2646,7616 L3742,7058" stroke="blue" stroke-width="2" />
<path d="M1962,3893 L3003,6910" stroke="blue" stroke-width="2" />
<path d="M1554,5075 L3118,4799" stroke="blue" stroke-width="2" />
<path d="M3651,6131 L129,1915" stroke="blue" stroke-width="2" />
<path d="M1485,5844 L554,3786" stroke="blue" stroke-width="2" />
<path d="M2604,2874 L2189,4771" stroke="blue" stroke-width="2" />
<path d="M2738,5139 L3136,856" stroke="blue" stroke-width="2" />
<path d="M251,7010 L2833,7800" stroke="blue" stroke-width="2" />
<path d="M2089,4731 L543,5010" stroke="blue" stroke-width="2" />
<path d="M1320,3532 L1183,3482" stroke="blue" stroke-width="2" />
<path d="M3500,1871 L1409,6455" stroke="blue" stroke-width="2" />
<path d="M1722,1977 L850,3209" stroke="blue" stroke-width="2" />
<path d="M3701,5447 L1734,3198" stroke="blue" stroke-width="2" />
<path d="M703,7349 L2566,7203" stroke="blue" stroke-width="2" />
<path d="M822,3193 L394,324" stroke="blue" stroke-width="2" />
<path d="M1358,5194 L2105,4814" stroke="blue" stroke-width="2" />
<path d="M1086,7685 L738,4605" stroke="blue" stroke-width="2" />
<path d="M3211,3961 L2406,3692" stroke="blue" stroke-width="2" />
<path d="M1651,3605 L3446,3333" stroke="blue" stroke-width="2" />
<path d="M2997,2746 L2910,1187" stroke="blue" stroke-width="2" />
<path d="M2350,5042 L650,2204" stroke="blue" stroke-width="2" />
<path d="M2746,1675 L3346,5212" stroke="blue" stroke-width="2" />
<path d="M2131,3156 L698,3494" stroke="blue" stroke-width="2" />
<path d="M794,5227 L1646,4593" stroke="blue" stroke-width="2" />
<path d="M1542,344 L2767,4446" stroke="blue" stroke-width="2" />
<path d="M2832,4461 L468,7258" stroke="blue" stroke-width="2" />
<path d="M2738,552 L2734,3689" stroke="blue" stroke-width="2" />
<path d="M23,5972 L3460,6159" stroke="blue" stroke-width="2" />
<path d="M3512,4153 L2699,108" stroke="blue" stroke-width="2" />
<path d="M2278,3312 L155,3099" stroke="blue" stroke-width="2" />
<path d="M3421,1904 L1469,1927" stroke="blue" stroke-width="2" />
<path d="M2188,504 L3592,3020" stroke="blue" stroke-width="2" />
<path d="M3502,3540 L1345,895" stroke="blue" stroke-width="2" />
<path d="M1586,2311 L3303,6557" stroke="blue" stroke-width="2" />
<path d="M824,633 L121,1690" stroke="blue" stroke-width="2" />
<path d="M268,1677 L1396,7700" stroke="blue" stroke-width="2" />
<path d="M2326,7569 L2705,6365" stroke="blue" stroke-width="2" />
<path d="M1446,3442 L1273,435" stroke="blue" stroke-width="2" />
<path d="M2692,1955 L2539,282" stroke="blue" stroke-width="2" />
<path d="M1817,1711 L1838,5912" stroke="blue" stroke-width="2" />
<path d="M1236,4683 L1112,6910" stroke="blue" stroke-width="2" />
<path d="M1481,3518 L271,7268" stroke="blue" stroke-width="2" />
<path d="M1379,2279 L1186,6571" stroke="blue" stroke-width="2" />
<path d="M2214,913 L71,4212" stroke="blue" stroke-width="2" />
<path d="M1736,5032 L1765,701" stroke="blue" stroke-width="2" />
<path d="M3213,6631 L1101,4651" stroke="blue" stroke-width="2" />
<path d="M164,6717 L843,7459" stroke="blue" stroke-width="2" />
<path d="M2541,1318 L1962,4751" stroke="blue" stroke-width="2" />
<path d="M1276,3447 L1005,1031" stroke="blue" stroke-width="2" />
<path d="M261,4483 L509,4534" stroke="blue" stroke-width="2" />
<path d="M616,2538 L528,3610" stroke="blue" stroke-width="2" />
<path d="M1728,4204 L3184,2122" stroke="blue" stroke-width="2" />
<path d="M1226,7408 L2216,7211" stroke="blue" stroke-width="2" />
<path d="M2029,3411 L585,6528" stroke="blue" stroke-width="2" />
<path d="M3513,643 L290,5514" stroke="blue" stroke-width="2" />
<path d="M983,7294 L205,3871" stroke="blue" stroke-width="2" />
<path d="M2321,6006 L2090,172" stroke="blue" stroke-width="2" />
<path d="M2580,2644 L3152,7280" stroke="blue" stroke-width="2" />
<path d="M1426,1218 L892,6303" stroke="blue" stroke-width="2" />
<path d="M2688,1596 L53,3430" stroke="blue" stroke-width="2" />
<path d="M2876,3575 L3249,4334" stroke="blue" stroke-width="2" />
<path d="M2470,7560 L632,2894" stroke="blue" stroke-width="2" />
<path d="M1511,6628 L296,6459" stroke="blue" stroke-width="2" />
<path d="M1779,5525 L1733,2899" stroke="blue" stroke-width="2" />
<path d="M3401,5399 L1103,7546" stroke="blue" stroke-width="2" />
<path d="M2933,3629 L2847,2282" stroke="blue" stroke-width="2" />
<path d="M1838,1406 L3614,1290" stroke="blue" stroke-width="2" />
<path d="M833,2356 L3387,3974" stroke="blue" stroke-width="2" />
<path d="M2931,1025 L173,3132" stroke="blue" stroke-width="2" />
<path d="M801,7039 L1280,5512" stroke="blue" stroke-width="2" />
<path d="M2304,6305 L2977,7488" stroke="blue" stroke-width="2" />
<path d="M1236,7730 L2389,7699" stroke="blue" stroke-width="2" />
<path d="M2851,7310 L235,3618" stroke="blue" stroke-width="2" />
<path d="M3470,877 L2910,6902" stroke="blue" stroke-width="2" />
<path d="M1333,2654 L3567,6899" stroke="blue" stroke-width="2" />
<path d="M1632,6536 L50,4109" stroke="blue" stroke-width="2" />
<path d="M588,7018 L2145,7009" stroke="blue" stroke-width="2" />
<path d="M2564,4623 L381,779" stroke="blue" stroke-width="2" />
<path d="M3452,7294 L930,3281" stroke="blue" stroke-width="2" />
<path d="M1224,4100 L632,1767" stroke="blue" stroke-width="2" />
<path d="M484,1793 L2110,4052" stroke="blue" stroke-width="2" />
<path d="M161,722 L2072,2914" stroke="blue" stroke-width="2" />
<path d="M651,2187 L3078,4484" stroke="blue" stroke-width="2" />
<path d="M943,1036 L387,4201" stroke="blue" stroke-width="2" />
<path d="M2002,6112 L2645,51" stroke="blue" stroke-width="2" />
<path d="M921,1142 L910,4481" stroke="blue" stroke-width="2" />
<path d="M421,6445 L2436,4323" stroke="blue" stroke-width="2" />
<path d="M740,2773 L582,1508" stroke="blue" stroke-width="2" />
<path d="M856,1652 L875,4950" stroke="blue" stroke-width="2" />
<path d="M1404,584 L2171,7444" stroke="blue" stroke-width="2" />
<path d="M1322,4227 L982,7295" stroke="blue" stroke-width="2" />
<path d="M1382,2168 L1262,7327" stroke="blue" stroke-width="2" />
<path d="M2009,7421 L1816,1165" stroke="blue" stroke-width="2" />
<path d="M3263,6127 L548,5490" stroke="blue" stroke-width="2" />
<path d="M309,7415 L2523,7513" stroke="blue" stroke-width="2" />
<path d="M2879,3887 L773,1954" stroke="blue" stroke-width="2" />
<path d="M1969,6240 L416,3943" stroke="blue" stroke-width="2" />
<path d="M3013,4397 L1712,681" stroke="blue" stroke-width="2" />
<path d="M5,4452 L1367,5798" stroke="blue" stroke-width="2" />
<path d="M3188,5205 L1644,244" stroke="blue" stroke-width="2" />
<path d="M3702,4102 L2767,5979" stroke="blue" stroke-width="2" />
<path d="M986,7729 L690,2462" stroke="blue" stroke-width="2" />
<path d="M2576,1005 L3491,6560" stroke="blue" stroke-width="2" />
<path d="M1885,6887 L321,6457" stroke="blue" stroke-width="2" />
<path d="M2950,5284 L765,7031" stroke="blue" stroke-width="2" />
<path d="M1338,7511 L2637,3247" stroke="blue" stroke-width="2" />
<path d="M277,4382 L1586,4701" stroke="blue" stroke-width="2" />
<path d="M2299,5449 L2095,2843" stroke="blue" stroke-width="2" />
<path d="M2628,3842 L2720,91" stroke="blue" stroke-width="2" />
<path d="M83,750 L431,5374" stroke="blue" stroke-width="2" />
<path d="M3075,4371 L538,7631" stroke="blue" stroke-width="2" />
<path d="M1528,5316 L2245,5743" stroke="blue" stroke-width="2" />
<path d="M2879,7266 L2869,5530" stroke="blue" stroke-width="2" />
<path d="M194,2846 L1286,3448" stroke="blue" stroke-width="2" />
<path d="M1615,5732 L997,7399" stroke="blue" stroke-width="2" />
<path d="M451,2071 L2754,626" stroke="blue" stroke-width="2" />
<path d="M2555,102 L228,7188" stroke="blue" stroke-width="2" />
<path d="M2431,4911 L1114,6988" stroke="blue" stroke-width="2" />
<path d="M3053,7139 L1563,3339" stroke="blue" stroke-width="2" />
<path d="M872,3741 L2189,6614" stroke="blue" stroke-width="2" />
<path d="M912,4271 L3734,7087" stroke="blue" stroke-width="2" />
<path d="M2294,6253 L3435,6592" stroke="blue" stroke-width="2" />
<path d="M1451,2629 L3209,7521" stroke="blue" stroke-width="2" />
<path d="M2878,7380 L3555,1544" stroke="blue" stroke-width="2" />
<path d="M1764,485 L2711,2498" stroke="blue" stroke-width="2" />
<path d="M2262,3894 L3224,5853" stroke="blue" stroke-width="2" />
<path d="M806,1182 L38,809" stroke="blue" stroke-width="2" />
<path d="M3562,4821 L731,1613" stroke="blue" stroke-width="2" />
<path d="M3096,7432 L1065,7011" stroke="blue" stroke-width="2" />
<path d="M3613,461 L1917,2729" stroke="blue" stroke-width="2" />
<path d="M885,229 L328,5765" stroke="blue" stroke-width="2" />
<path d="M3143,3825 L139,1627" stroke="blue" stroke-width="2" />
<path d="M2391,1369 L623,6526" stroke="blue" stroke-width="2" />
<path d="M2095,4410 L3133,43" stroke="blue" stroke-width="2" />
<path d="M550,6175 L3337,3817" stroke="blue" stroke-width="2" />
<path d="M209,7445 L2881,5976" stroke="blue" stroke-width="2" />
<path d="M3307,3131 L385,2808" stroke="blue" stroke-width="2" />
<path d="M260,1605 L2163,1800" stroke="blue" stroke-width="2" />
<path d="M3243,6180 L3199,3766" stroke="blue" stroke-width="2" />
<path d="M2009,6759 L1975,6587" stroke="blue" stroke-width="2" />
<path d="M3520,2623 L2025,7164" stroke="blue" stroke-width="2" />
<path d="M2306,4454 L2256,3533" stroke="blue" stroke-width="2" />
<path d="M1868,713 L3162,2987" stroke="blue" stroke-width="2" />
<path d="M685,2131 L3071,3836" stroke="blue" stroke-width="2" />
<path d="M1547,6100 L748,4964" stroke="blue" stroke-width="2" />
<path d="M3684,2878 L1227,2582" stroke="blue" stroke-width="2" />
<path d="M255,6043 L642,2925" stroke="blue" stroke-width="2" />
<path d="M2826,6903 L2168,4834" stroke="blue" stroke-width="2" />
<path d="M2611,6519 L3420,1846" stroke="blue" stroke-width="2" />
<path d="M2567,1877 L679,6164" stroke="blue" stroke-width="2" />
<path d="M1223,2034 L630,7191" stroke="blue" stroke-width="2" />
<path d="M1211,6917 L1537,5705" stroke="blue" stroke-width="2" />
<path d="M3752,5299 L667,6652" stroke="blue" stroke-width="2" />
<path d="M2240,3902 L1108,18" stroke="blue" stroke-width="2" />
<path d="M9,2887 L920,4017" stroke="blue" stroke-width="2" />
<path d="M27,5725 L3287,2681" stroke="blue" stroke-width="2" />
<path d="M1236,4404 L229,5415" stroke="blue" stroke-width="2" />
<path d="M1947,6979 L3566,6426" stroke="blue" stroke-width="2" />
<path d="M2496,5640 L425,6571" stroke="blue" stroke-width="2" />
<path d="M3336,3986 L2001,1054" stroke="blue" stroke-width="2" />
<path d="M788,2767 L3767,1548" stroke="blue" stroke-width="2" />
<path d="M3751,6426 L246,2798" stroke="blue" stroke-width="2" />
<path d="M2566,1840 L206,4097" stroke="blue" stroke-width="2" />
<path d="M756,7128 L486,6750" stroke="blue" stroke-width="2" />
<path d="M1280,3782 L843,5142" stroke="blue" stroke-width="2" />
<path d="M3288,3723 L2783,522" stroke="blue" stroke-width="2" />
<path d="M1672,1652 L18,5095" stroke="blue" stroke-width="2" />
<path d="M2329,3887 L3756,1220" stroke="blue" stroke-width="2" />
<path d="M1327,208 L3138,2119" stroke="blue" stroke-width="2" />
<path d="M1116,590 L2220,6444" stroke="blue" stroke-width="2" />
<path d="M3151,7542 L208,6483" stroke="blue" stroke-width="2" />
<path d="M528,3901 L1288,1848" stroke="blue" stroke-width="2" />
<path d="M475,2121 L1749,1078" stroke="blue" stroke-width="2" />
<path d="M1030,6009 L210,6527" stroke="blue" stroke-width="2" />
<path d="M1289,1040 L351,3724" stroke="blue" stroke-width="2" />
<path d="M1977,2016 L246,6327" stroke="blue" stroke-width="2" />
<path d="M2925,7134 L1533,5957" stroke="blue" stroke-width="2" />
<path d="M525,109 L2969,4992" stroke="blue" stroke-width="2" />
<path d="M3052,2156 L1150,73" stroke="blue" stroke-width="2" />
<path d="M1093,6860 L1232,839" stroke="blue" stroke-width="2" />
<path d="M3179,5604 L1866,2925" stroke="blue" stroke-width="2" />
<path d="M425,2886 L1256,408" stroke="blue" stroke-width="2" />
<path d="M2030,2297 L1288,4489" stroke="blue" stroke-width="2" />
<path d="M1104,5213 L19,5100" stroke="blue" stroke-width="2" />
<path d="M416,4929 L1404,7063" stroke="blue" stroke-width="2" />
<path d="M529,6418 L3623,5133" stroke="blue" stroke-width="2" />
<path d="M955,2045 L2043,6086" stroke="blue" stroke-width="2" />
<path d="M2727,2588 L3127,2980" stroke="blue" stroke-width="2" />
<path d="M430,2358 L1777,3157" stroke="blue" stroke-width="2" />
<path d="M307,1333 L2439,1437" stroke="blue" stroke-width="2" />
<path d="M1871,7267 L2148,5345" stroke="blue" stroke-width="2" />
<path d="M2665,3419 L943,2432" stroke="blue" stroke-width="2" />
<path d="M2707,5586 L3314,5181" stroke="blue" stroke-width="2" />
<path d="M3369,6237 L1323,2257" stroke="blue" stroke-width="2" />
<path d="M2879,1422 L572,1560" stroke="blue" stroke-width="2" />
<path d="M53,3637 L6,6202" stroke="blue" stroke-width="2" />
<path d="M2197,904 L422,3865" stroke="blue" stroke-width="2" />
<path d="M2420,6714 L3429,3102" stroke="blue" stroke-width="2" />
<path d="M512,1857 L1953,7758" stroke="blue" stroke-width="2" />
<path d="M727,6543 L1944,2846" stroke="blue" stroke-width="2" />
<path d="M3295,1978 L1138,7173" stroke="blue" stroke-width="2" />
<path d="M3381,1586 L2407,1278" stroke="blue" stroke-width="2" />
<path d="M2971,3704 L3390,522" stroke="blue" stroke-width="2" />
<path d="M529,6633 L453,6305" stroke="blue" stroke-width="2" />
<path d="M402,2576 L1079,7433" stroke="blue" stroke-width="2" />
<path d="M2837,6015 L1829,7444" stroke="blue" stroke-width="2" />
<path d="M1548,3810 L3251,678" stroke="blue" stroke-width="2" />
<path d="M888,6552 L3720,2756" stroke="blue" stroke-width="2" />
<path d="M3398,6180 L3577,585" stroke="blue" stroke-width="2" />
<path d="M2528,1702 L666,3006" stroke="blue" stroke-width="2" />
<path d="M2407,6443 L1903,6664" stroke="blue" stroke-width="2" />
<path d="M2581,5817 L584,4408" stroke="blue" stroke-width="2" />
<path d="M531,1066 L1046,6575" stroke="blue" stroke-width="2" />
<path d="M1030,3201 L501,2099" stroke="blue" stroke-width="2" />
<path d="M1111,1063 L1444,4484" stroke="blue" stroke-width="2" />
<path d="M2177,364 L3390,5106" stroke="blue" stroke-width="2" />
<path d="M2259,2224 L186,2335" stroke="blue" stroke-width="2" />
<path d="M381,6850 L3145,5009" stroke="blue" stroke-width="2" />
<path d="M2981,7111 L3301,6232" stroke="blue" stroke-width="2" />
<path d="M1930,4787 L2253,1560" stroke="blue" stroke-width="2" />
<path d="M1225,5497 L3168,6898" stroke="blue" stroke-width="2" />
<path d="M581,937 L2608,2941" stroke="blue" stroke-width="2" />
<path d="M2872,662 L1525,1299" stroke="blue" stroke-width="2" />
<path d="M154,5792 L3192,4178" stroke="blue" stroke-width="2" />
<path d="M3387,3767 L207,7137" stroke="blue" stroke-width="2" />
<path d="M3013,2606 L902,1620" stroke="blue" stroke-width="2" />
<path d="M1464,1588 L1956,5064" stroke="blue" stroke-width="2" />
<path d="M2148,5853 L2206,3741" stroke="blue" stroke-width="2" />
<path d="M968,837 L2086,5335" stroke="blue" stroke-width="2" />
<path d="M1674,4585 L573,4211" stroke="blue" stroke-width="2" />
<path d="M525,2537 L490,3824" stroke="blue" stroke-width="2" />
<path d="M3564,2916 L3007,3781" stroke="blue" stroke-width="2" />
<path d="M964,2273 L1732,1724" stroke="blue" stroke-width="2" />
<path d="M837,7177 L3304,3156" stroke="blue" stroke-width="2" />
<path d="M3244,378 L267,7488" stroke="blue" stroke-width="2" />
<path d="M127,3524 L1284,5038" stroke="blue" stroke-width="2" />
<path d="M2076,7365 L957,870" stroke="blue" stroke-width="2" />
<path d="M830,1571 L3192,6162" stroke="blue" stroke-width="2" />
<path d="M2128,2161 L2390,2364" stroke="blue" stroke-width="2" />
<path d="M693,4885 L2934,2537" stroke="blue" stroke-width="2" />
<path d="M1550,5352 L2090,2331" stroke="blue" stroke-width="2" />
<path d="M1276,5652 L1732,2734" stroke="blue" stroke-width="2" />
<path d="M1009,1649 L1661,5873" stroke="blue" stroke-width="2" />
<path d="M2494,5282 L402,2972" stroke="blue" stroke-width="2" />
<path d="M500,2323 L54,3402" stroke="blue" stroke-width="2" />
<path d="M1017,1507 L3347,6104" stroke="blue" stroke-width="2" />
<path d="M1813,3700 L459,4619" stroke="blue" stroke-width="2" />
<path d="M1426,5097 L399,782" stroke="blue" stroke-width="2" />
<path d="M1648,3506 L1396,1752" stroke="blue" stroke-width="2" />
<path d="M1202,3183 L1308,4535" stroke="blue" stroke-width="2" />
<path d="M2188,4335 L3730,6675" stroke="blue" stroke-width="2" />
<path d="M2587,7274 L545,2057" stroke="blue" stroke-width="2" />
<path d="M174,6689 L162,4656" stroke="blue" stroke-width="2" />
<path d="M392,5425 L1519,7604" stroke="blue" stroke-width="2" />
<path d="M1851,3473 L2711,7762" stroke="blue" stroke-width="2" />
<path d="M3501,347 L2883,829" stroke="blue" stroke-width="2" />
<path d="M3012,3029 L1857,5208" stroke="blue" stroke-width="2" />
<path d="M614,5791 L2364,420" stroke="blue" stroke-width="2" />
<path d="M3115,1449 L3452,4092" stroke="blue" stroke-width="2" />
<path d="M2893,3511 L628,6902" stroke="blue" stroke-width="2" />
<path d="M267,5235 L2084,1180" stroke="blue" stroke-width="2" />
<path d="M802,5005 L2687,3050" stroke="blue" stroke-width="2" />
<path d="M893,2542 L2796,930" stroke="blue" stroke-width="2" />
<path d="M667,4500 L3470,7729" stroke="blue" stroke-width="2" />
<path d="M3691,6250 L1408,7366" stroke="blue" stroke-width="2" />
<path d="M1851,7296 L3339,4958" stroke="blue" stroke-width="2" />
<path d="M614,1653 L41,325" stroke="blue" stroke-width="2" />
<path d="M470,3885 L2688,2011" stroke="blue" stroke-width="2" />
<path d="M301,5336 L1942,4741" stroke="blue" stroke-width="2" />
<path d="M2630,2996 L356,294" stroke="blue" stroke-width="2" />
<path d="M2859,1598 L635,6341" stroke="blue" stroke-width="2" />
<path d="M843,5806 L2881,5638" stroke="blue" stroke-width="2" />
<path d="M457,542 L3631,2506" stroke="blue" stroke-width="2" />
<path d="M2781,3582 L1667,2282" stroke="blue" stroke-width="2" />
<path d="M478,4616 L1779,5442" stroke="blue" stroke-width="2" />
<path d="M3654,531 L1744,1514" stroke="blue" stroke-width="2" />
<path d="M2716,2015 L1150,2017" stroke="blue" stroke-width="2" />
<path d="M108,1409 L459,6041" stroke="blue" stroke-width="2" />
<path d="M3525,5755 L2101,5685" stroke="blue" stroke-width="2" />
<path d="M2660,3024 L2128,2784" stroke="blue" stroke-width="2" />
<path d="M1368,517 L225,4658" stroke="blue" stroke-width="2" />
<path d="M164,6160 L1372,6034" stroke="blue" stroke-width="2" />
<path d="M730,6519 L2013,5676" stroke="blue" stroke-width="2" />
<path d="M2066,7403 L2395,4899" stroke="blue" stroke-width="2" />
<path d="M3678,6240 L2367,5367" stroke="blue" stroke-width="2" />
<path d="M1178,5954 L330,3474" stroke="blue" stroke-width="2" />
<path d="M2498,990 L1670,3293" stroke="blue" stroke-width="2" />
<path d="M1240,6743 L2705,7385" stroke="blue" stroke-width="2" />
<path d="M2821,6270 L3579,7479" stroke="blue" stroke-width="2" />
<path d="M3671,3666 L3414,1100" stroke="blue" stroke-width="2" />
<path d="M1420,2127 L50,2000" stroke="blue" stroke-width="2" />
<path d="M2913,4288 L1215,6706" stroke="blue" stroke-width="2" />
<path d="M466,7218 L2973,7059" stroke="blue" stroke-width="2" />
<path d="M3581,1161 L2453,7479" stroke="blue" stroke-width="2" />
<path d="M3405,6162 L2732,4065" stroke="blue" stroke-width="2" />
<path d="M475,4743 L651,2529" stroke="blue" stroke-width="2" />
<path d="M231,2694 L2214,1421" stroke="blue" stroke-width="2" />
<path d="M1437,699 L1711,4003" stroke="blue" stroke-width="2" />
<path d="M1502,5295 L246,928" stroke="blue" stroke-width="2" />
<path d="M2545,4499 L3111,5873" stroke="blue" stroke-width="2" />
<path d="M1673,6791 L651,7221" stroke="blue" stroke-width="2" />
<path d="M3383,3813 L1827,2038" stroke="blue" stroke-width="2" />
<path d="M1101,5636 L2487,5592" stroke="blue" stroke-width="2" />
<path d="M2111,3179 L1412,2850" stroke="blue" stroke-width="2" />
<path d="M3417,1094 L900,2524" stroke="blue" stroke-width="2" />
<path d="M3071,3511 L385,6135" stroke="blue" stroke-width="2" />
<path d="M1385,2995 L838,2600" stroke="blue" stroke-width="2" />
<path d="M3254,1829 L3603,2078" stroke="blue" stroke-width="2" />
<path d="M1392,1907 L810,3444" stroke="blue" stroke-width="2" />
<path d="M578,458 L2607,6154" stroke="blue" stroke-width="2" />
<path d="M1876,992 L1359,3390" stroke="blue" stroke-width="2" />
<path d="M1510,7132 L589,3207" stroke="blue" stroke-width="2" />
<path d="M1829,5592 L1519,5589" stroke="blue" stroke-width="2" />
<path d="M1175,7645 L2719,7309" stroke="blue" stroke-width="2" />
<path d="M15,2822 L2166,4925" stroke="blue" stroke-width="2" />
<path d="M2525,2997 L2794,539" stroke="blue" stroke-width="2" />
<path d="M719,1377 L2011,2206" stroke="blue" stroke-width="2" />
<path d="M1037,570 L2670,6730" stroke="blue" stroke-width="2" />
<path d="M2166,1985 L929,1576" stroke="blue" stroke-width="2" />
<path d="M2048,5909 L322,6775" stroke="blue" stroke-width="2" />
<path d="M1727,1977 L2372,5527" stroke="blue" stroke-width="2" />
<path d="M2926,2779 L1240,6796" stroke="blue" stroke-width="2" />
<path d="M1559,1380 L486,6638" stroke="blue" stroke-width="2" />
<path d="M1767,342 L2872,2495" stroke="blue" stroke-width="2" />
<path d="M267,1744 L266,3022" stroke="blue" stroke-width="2" />
<path d="M2043,6821 L743,3801" stroke="blue" stroke-width="2" />
<path d="M1302,4026 L1239,561" stroke="blue" stroke-width="2" />
<path d="M820,3188 L217,6250" stroke="blue" stroke-width="2" />
<path d="M2711,1783 L2912,4474" stroke="blue" stroke-width="2" />
<path d="M8,4879 L3494,3530" stroke="blue" stroke-width="2" />
<path d="M2625,5129 L37,987" stroke="blue" stroke-width="2" />
<path d="M2322,4811 L1636,5911" stroke="blue" stroke-width="2" />
<path d="M1810,242 L1631,4174" stroke="blue" stroke-width="2" />
<path d="M638,5148 L654,4119" stroke="blue" stroke-width="2" />
<path d="M3086,3662 L3381,7390" stroke="blue" stroke-width="2" />
<path d="M1954,7592 L88,5582" stroke="blue" stroke-width="2" />
<path d="M1256,5766 L1602,5789" stroke="blue" stroke-width="2" />
<path d="M563,4759 L3766,4526" stroke="blue" stroke-width="2" />
<path d="M3176,1694 L2930,276" stroke="blue" stroke-width="2" />
<path d="M603,3007 L486,6821" stroke="blue" stroke-width="2" />
<path d="M2459,7059 L2589,5807" stroke="blue" stroke-width="2" />
<path d="M1676,5055 L720,6655" stroke="blue" stroke-width="2" />
<path d="M2906,4999 L2851,5270" stroke="blue" stroke-width="2" />
<path d="M39,7694 L3220,399" stroke="blue" stroke-width="2" />
<path d="M3624,3109 L1141,1163" stroke="blue" stroke-width="2" />
<path d="M2289,547 L2704,3939" stroke="blue" stroke-width="2" />
<path d="M886,1711 L3773,3403" stroke="blue" stroke-width="2" />
<path d="M406,931 L3415,6445" stroke="blue" stroke-width="2" />
<path d="M748,7645 L2896,2300" stroke="blue" stroke-width="2" />
<path d="M168,2444 L214,2207" stroke="blue" stroke-width="2" />
<path d="M2635,4370 L318,2252" stroke="blue" stroke-width="2" />
<path d="M0,0 L3778,0" stroke="red" stroke-width="10" />
<path d="M3778,0 L3778,7813" stroke="red" stroke-width="10" />
<path d="M0,7813 L3778,7813" stroke="red" stroke-width="10" />
<path d="M0,7813 L0,0" stroke="red" stroke-width="10" />
</svg>