<?xml version="1.0" encoding="UTF-8"?>
<svg xmlns="http://www.w3.org/2000/svg" xmlns:xlink="http://www.w3.org/1999/xlink"
     width="10000" height="10000" viewBox="0 0 10000 10000">
<defs>
</defs>
<path d="M2496,4550 L2988,140" stroke="blue" stroke-width="2" />
<path d="M183,1588 L3552,4264" stroke="blue" stroke-width="2" />
<path d="M2898,5692 L3098,5028" stroke="blue" stroke-width="2" />
<path d="M1917,1696 L3575,8508" stroke="blue" stroke-width="2" />
<path d="M2153,7447 L1413,6803" stroke="blue" stroke-width="2" />
<path d="M4578,5357 L4226,2849" stroke="blue" stroke-width="2" />
<path d="M3306,1459 L167,4092" stroke="blue" stroke-width="2" />
<path d="M1760,8079 L2303,1998" stroke="blue" stroke-width="2" />
<path d="M1442,3476 L1913,454" stroke="blue" stroke-width="2" />
<path d="M3348,8082 L2781,8068" stroke="blue" stroke-width="2" />
<path d="M4333,2951 L2716,7751" stroke="blue" stroke-width="2" />
<path d="M258,8032 L1841,7612" stroke="blue" stroke-width="2" />
<path d="M3364,2966 L24,8131" stroke="blue" stroke-width="2" />
<path d="M1989,5429 L1948,6419" stroke="blue" stroke-width="2" />
<path d="M2055,6997 L4102,4432" stroke="blue" stroke-width="2" />
<path d="M4473,1917 L780,770" stroke="blue" stroke-width="2" />
<path d="M2392,2765 L2884,5995" stroke="blue" stroke-width="2" />
<path d="M3448,8683 L3432,3583" stroke="blue" stroke-width="2" />
<path d="M2719,6560 L58,2389" stroke="blue" stroke-width="2" />
<path d="M4602,8121 L4321,5516" stroke="blue" stroke-width="2" />
<path d="M1808,549 L1609,5182" stroke="blue" stroke-width="2" />
<path d="M1953,848 L2545,2063" stroke="blue" stroke-width="2" />
<path d="M1759,4386 L3951,210" stroke="blue" stroke-width="2" />
<path d="M3661,843 L4193,5712" stroke="blue" stroke-width="2" />
<path d="M4063,3181 L4581,393" stroke="blue" stroke-width="2" />
<path d="M4633,2598 L4017,4889" stroke="blue" stroke-width="2" />
<path d="M4349,5078 L44,1795" stroke="blue" stroke-width="2" />
<path d="M42,8339 L3039,1217" stroke="blue" stroke-width="2" />
<path d="M3091,5225 L433,5218" stroke="blue" stroke-width="2" />
<path d="M1932,8564 L1174,1851" stroke="blue" stroke-width="2" />
<path d="M1150,5484 L1813,6056" stroke="blue" stroke-width="2" />
<path d="M3175,4890 L1715,3269" stroke="blue" stroke-width="2" />
<path d="M319,6846 L2259,2065" stroke="blue" stroke-width="2" />
<path d="M817,4508 L329,2233" stroke="blue" stroke-width="2" />
<path d="M4190,5832 L3550,8697" stroke="blue" stroke-width="2" />
<path d="M1602,6180 L3300,5082" stroke="blue" stroke-width="2" />
<path d="M2334,2763 L1235,7853" stroke="blue" stroke-width="2" />
<path d="M3030,4839 L4286,6486" stroke="blue" stroke-width="2" />
<path d="M3734,7090 L3431,8427" stroke="blue" stroke-width="2" />
<path d="M4522,7933 L409,3897" stroke="blue" stroke-width="2" />
<path d="M3261,8070 L3596,4986" stroke="blue" stroke-width="2" />
<path d="M1691,5285 L3402,6575" stroke="blue" stroke-width="2" />
<path d="M3870,1899 L329,1871" stroke="blue" stroke-width="2" />
<path d="M3967,8134 L4243,6877" stroke="blue" stroke-width="2" />
<path d="M3590,2176 L2336,8580" stroke="blue" stroke-width="2" />
<path d="M4065,550 L1117,4447" stroke="blue" stroke-width="2" />
<path d="M607,2960 L4618,5298" stroke="blue" stroke-width="2" />
<path d="M1174,892 L3019,5584" stroke="blue" stroke-width="2" />
<path d="M4193,3077 L4346,8701" stroke="blue" stroke-width="2" />
<path d="M2933,7828 L3078,8389" stroke="blue" stroke-width="2" />
<path d="M235,4633 L856,2274" stroke="blue" stroke-width="2" />
<path d="M2509,6667 L1472,6120" stroke="blue" stroke-width="2" />
<path d="M194,3546 L4035,6356" stroke="blue" stroke-width="2" />
<path d="M2133,8618 L3943,7405" stroke="blue" stroke-width="2" />
<path d="M2245,2704 L346,1289" stroke="blue" stroke-width="2" />
<path d="M1807,1706 L146,121" stroke="blue" stroke-width="2" />
<path d="M2621,1549 L2677,7322" stroke="blue" stroke-width="2" />
<path d="M1499,308 L4517,4132" stroke="blue" stroke-width="2" />
<path d="M138,8839 L4482,1621" stroke="blue" stroke-width="2" />
<path d="M3946,5292 L1630,6602" stroke="blue" stroke-width="2" />
<path d="M3322,3508 L4585,5403" stroke="blue" stroke-width="2" />
<path d="M1652,609 L2785,3033" stroke="blue" stroke-width="2" />
<path d="M197,4536 L2616,652" stroke="blue" stroke-width="2" />
<path d="M4574,6891 L2409,8245" stroke="blue" stroke-width="2" />
<path d="M3812,4664 L3995,6831" stroke="blue" stroke-width="2" />
<path d="M408,4580 L1030,8823" stroke="blue" stroke-width="2" />
<path d="M12,7819 L4199,3726" stroke="blue" stroke-width="2" />
<path d="M3754,1861 L2273,3878" stroke="blue" stroke-width="2" />
<path d="M1284,5260 L4280,4436" stroke="blue" stroke-width="2" />
<path d="M2991,110 L2082,2428" stroke="blue" stroke-width="2" />
<path d="M950,1939 L3253,7467" stroke="blue" stroke-width="2" />
<path d="M4447,96 L259,2757" stroke="blue" stroke-width="2" />
<path d="M4042,7341 L2556,6375" stroke="blue" stroke-width="2" />
<path d="M4195,4798 L3178,6639" stroke="blue" stroke-width="2" />
<path d="M730,1120 L920,5035" stroke="blue" stroke-width="2" />
<path d="M2984,2349 L4491,8710" stroke="blue" stroke-width="2" />
<path d="M816,3943 L256,4623" stroke="blue" stroke-width="2" />
<path d="M489,7667 L2621,7645" stroke="blue" stroke-width="2" />
<path d="M708,6650 L909,1613" stroke="blue" stroke-width="2" />
<path d="M723,2689 L892,8351" stroke="blue" stroke-width="2" />
<path d="M4034,5756 L3204,5940" stroke="blue" stroke-width="2" />
<path d="M2034,1408 L2947,4159" stroke="blue" stroke-width="2" />
<path d="M3231,1048 L1424,2746" stroke="blue" stroke-width="2" />
<path d="M1404,5187 L3643,6499" stroke="blue" stroke-width="2" />
<path d="M2856,4107 L3692,4613" stroke="blue" stroke-width="2" />
<path d="M1650,2639 L2702,4498" stroke="blue" stroke-width="2" />
<path d="M696,4210 L2405,3827" stroke="blue" stroke-width="2" />
<path d="M1304,8717 L3865,4280" stroke="blue" stroke-width="2" />
<path d="M664,2958 L1797,1962" stroke="blue" stroke-width="2" />
<path d="M2091,5254 L1931,5776" stroke="blue" stroke-width="2" />
<path d="M2110,7348 L3828,6239" stroke="blue" stroke-width="2" />
<path d="M3416,3197 L1400,7522" stroke="blue" stroke-width="2" />
<path d="M1280,4855 L4100,4744" stroke="blue" stroke-width="2" />
<path d="M833,864 L1111,1558" stroke="blue" stroke-width="2" />
<path d="M352,5593 L747,5532" stroke="blue" stroke-width="2" />
<path d="M1128,3307 L448,5588" stroke="blue" stroke-width="2" />
<path d="M744,1354 L1741,736" stroke="blue" stroke-width="2" />
<path d="M244,466 L135,1984" stroke="blue" stroke-width="2" />
<path d="M4362,7983 L1079,5721" stroke="blue" stroke-width="2" />
<path d="M4296,4159 L2004,7141" stroke="blue" stroke-width="2" />
<path d="M4397,1043 L2429,5352" stroke="blue" stroke-width="2" />
<path d="M3327,2485 L3926,3277" stroke="blue" stroke-width="2" />
<path d="M3908,1615 L3162,1769" stroke="blue" stroke-width="2" />
<path d="M2392,5171 L3623,7245" stroke="blue" stroke-width="2" />
<path d="M3767,4662 L4484,4332" stroke="blue" stroke-width="2" />
<path d="M3498,1768 L3714,3493" stroke="blue" stroke-width="2" />
<path d="M1222,3460 L1198,8840" stroke="blue" stroke-width="2" />
<path d="M1864,3465 L1468,4609" stroke="blue" stroke-width="2" />
<path d="M4455,3623 L2671,2271" stroke="blue" stroke-width="2" />
<path d="M1161,2802 L3092,3122" stroke="blue" stroke-width="2" />
<path d="M4566,8826 L3035,6995" stroke="blue" stroke-width="2" />
<path d="M393,6178 L1326,5491" stroke="blue" stroke-width="2" />
<path d="M3609,249 L2002,8228" stroke="blue" stroke-width="2" />
<path d="M2074,7746 L4486,6126" stroke="blue" stroke-width="2" />
<path d="M3082,2947 L4199,7905" stroke="blue" stroke-width="2" />
<path d="M4192,244 L1897,4196" stroke="blue" stroke-width="2" />
<path d="M1930,8911 L4425,6348" stroke="blue" stroke-width="2" />
<path d="M2289,5643 L1951,97" stroke="blue" stroke-width="2" />
<path d="M1221,6581 L3160,5162" stroke="blue" stroke-width="2" />
<path d="M2035,2639 L3254,5870" stroke="blue" stroke-width="2" />
<path d="M496,294 L1379,3891" stroke="blue" stroke-width="2" />
<path d="M288,4790 L3527,6508" stroke="blue" stroke-width="2" />
<path d="M421,3412 L1368,3933" stroke="blue" stroke-width="2" />
<path d="M3426,6752 L722,2007" stroke="blue" stroke-width="2" />
<path d="M282,5534 L3569,8690" stroke="blue" stroke-width="2" />
<path d="M3439,5946 L254,1908" stroke="blue" stroke-width="2" />
<path d="M2653,5118 L1329,2846" stroke="blue" stroke-width="2" />
<path d="M2632,3550 L1890,527" stroke="blue" stroke-width="2" />
<path d="M4188,7070 L1365,3648" stroke="blue" stroke-width="2" />
<path d="M156,8680 L1293,5268" stroke="blue" stroke-width="2" />
<path d="M1354,3850 L2543,6658" stroke="blue" stroke-width="2" />
<path d="M787,8843 L875,3006" stroke="blue" stroke-width="2" />
<path d="M533,8662 L3739,8430" stroke="blue" stroke-width="2" />
<path d="M2538,1039 L4534,4342" stroke="blue" stroke-width="2" />
<path d="M1800,1521 L1528,5177" stroke="blue" stroke-width="2" />
<path d="M4077,7059 L2963,6646" stroke="blue" stroke-width="2" />
<path d="M4112,6969 L793,7828" stroke="blue" stroke-width="2" />
<path d="M1516,4160 L3562,5387" stroke="blue" stroke-width="2" />
<path d="M4504,4956 L4251,2557" stroke="blue" stroke-width="2" />
<path d="M2091,4097 L2969,3487" stroke="blue" stroke-width="2" />
<path d="M2112,8743 L3665,6101" stroke="blue" stroke-width="2" />
<path d="M4575,391 L2632,5665" stroke="blue" stroke-width="2" />
<path d="M2332,7966 L522,7944" stroke="blue" stroke-width="2" />
<path d="M3660,152 L1501,4374" stroke="blue" stroke-width="2" />
<path d="M3326,5127 L1983,3960" stroke="blue" stroke-width="2" />
<path d="M1505,4321 L4481,6793" stroke="blue" stroke-width="2" />
<path d="M2549,2568 L4372,5268" stroke="blue" stroke-width="2" />
<path d="M450,7970 L1072,2704" stroke="blue" stroke-width="2" />
<path d="M4359,2062 L22,5484" stroke="blue" stroke-width="2" />
<path d="M2494,429 L1967,1631" stroke="blue" stroke-width="2" />
<path d="M3546,1095 L3015,5662" stroke="blue" stroke-width="2" />
<path d="M858,5717 L2812,3475" stroke="blue" stroke-width="2" />
<path d="M705,7124 L1012,5789" stroke="blue" stroke-width="2" />
<path d="M2911,2584 L971,7829" stroke="blue" stroke-width="2" />
<path d="M1998,6117 L2770,357" stroke="blue" stroke-width="2" />
<path d="M3161,2744 L2510,6718" stroke="blue" stroke-width="2" />
<path d="M1983,4070 L2348,3512" stroke="blue" stroke-width="2" />
<path d="M3513,5962 L904,4614" stroke="blue" stroke-width="2" />
<path d="M95,562 L2891,5692" stroke="blue" stroke-width="2" />
<path d="M894,2626 L1194,6717" stroke="blue" stroke-width="2" />
<path d="M3369,8927 L2272,4544" stroke="blue" stroke-width="2" />
<path d="M973,6660 L4279,5271" stroke="blue" stroke-width="2" />
<path d="M3172,1378 L2550,1888" stroke="blue" stroke-width="2" />
<path d="M131,794 L3753,3406" stroke="blue" stroke-width="2" />
<path d="M2731,3247 L2545,4124" stroke="blue" stroke-width="2" />
<path d="M316,5294 L482,3126" stroke="blue" stroke-width="2" />
<path d="M1812,2474 L744,2564" stroke="blue" stroke-width="2" />
<path d="M1768,547 L1834,8471" stroke="blue" stroke-width="2" />
<path d="M4001,122 L3620,1002" stroke="blue" stroke-width="2" />
<path d="M2369,210 L421,1654" stroke="blue" stroke-width="2" />
<path d="M2372,3028 L2731,8055" stroke="blue" stroke-width="2" />
<path d="M1600,3735 L2914,6732" stroke="blue" stroke-width="2" />
<path d="M4391,6109 L4130,2059" stroke="blue" stroke-width="2" />
<path d="M2975,4372 L1327,5841" stroke="blue" stroke-width="2" />
<path d="M2261,63 L2385,3226" stroke="blue" stroke-width="2" />
<path d="M9,4697 L1124,3917" stroke="blue" stroke-width="2" />
<path d="M535,8274 L1091,5400" stroke="blue" stroke-width="2" />
<path d="M282,8823 L2998,6242" stroke="blue" stroke-width="2" />
<path d="M3588,1086 L3747,7003" stroke="blue" stroke-width="2" />
<path d="M4431,6432 L2989,5251" stroke="blue" stroke-width="2" />
<path d="M2743,4730 L4438,7123" stroke="blue" stroke-width="2" />
<path d="M1403,2454 L4184,1813" stroke="blue" stroke-width="2" />
<path d="M5,244 L4201,3710" stroke="blue" stroke-width="2" />
<path d="M690,4337 L4061,2990" stroke="blue" stroke-width="2" />
<path d="M3230,8337 L1068,3945" stroke="blue" stroke-width="2" />
<path d="M2666,5566 L4342,308" stroke="blue" stroke-width="2" />
<path d="M1302,8494 L1253,6110" stroke="blue" stroke-width="2" />
<path d="M3885,4972 L3576,8542" stroke="blue" stroke-width="2" />
<path d="M645,7653 L2882,2312" stroke="blue" stroke-width="2" />
<path d="M3780,4536 L4287,7816" stroke="blue" stroke-width="2" />
<path d="M2976,2725 L1030,824" stroke="blue" stroke-width="2" />
<path d="M4597,3119 L894,8830" stroke="blue" stroke-width="2" />
<path d="M2011,3356 L1595,6681" stroke="blue" stroke-width="2" />
<path d="M3878,8759 L1971,3998" stroke="blue" stroke-width="2" />
<path d="M2381,7706 L3623,1747" stroke="blue" stroke-width="2" />
<path d="M588,8145 L568,4129" stroke="blue" stroke-width="2" />
<path d="M3711,840 L1466,4464" stroke="blue" stroke-width="2" />
<path d="M401,49 L3204,7318" stroke="blue" stroke-width="2" />
<path d="M1510,7251 L4117,6421" stroke="blue" stroke-width="2" />
<path d="M381,8000 L473,6677" stroke="blue" stroke-width="2" />
<path d="M4340,6986 L2185,6690" stroke="blue" stroke-width="2" />
<path d="M4255,349 L663,8475" stroke="blue" stroke-width="2" />
<path d="M1764,2200 L2071,530" stroke="blue" stroke-width="2" />
<path d="M2622,1033 L694,3881" stroke="blue" stroke-width="2" />
<path d="M1529,1372 L2520,7593" stroke="blue" stroke-width="2" />
<path d="M2331,2983 L2577,5349" stroke="blue" stroke-width="2" />
<path d="M3922,3630 L651,4519" stroke="blue" stroke-width="2" />
<path d="M536,1585 L3764,4080" stroke="blue" stroke-width="2" />
<path d="M3428,3047 L857,6457" stroke="blue" stroke-width="2" />
<path d="M1404,6278 L4485,3151" stroke="blue" stroke-width="2" />
<path d="M4328,3315 L2610,1449" stroke="blue" stroke-width="2" />
<path d="M1396,4291 L951,131" stroke="blue" stroke-width="2" />
<path d="M4605,1924 L4340,2534" stroke="blue" stroke-width="2" />
<path d="M2409,657 L693,3747" stroke="blue" stroke-width="2" />
<path d="M4066,8635 L1625,414" stroke="blue" stroke-width="2" />
<path d="M739,6648 L991,2210" stroke="blue" stroke-width="2" />
<path d="M3877,6660 L2390,5375" stroke="blue" stroke-width="2" />
<path d="M571,395 L1420,3294" stroke="blue" stroke-width="2" />
<path d="M2101,6371 L3100,1006" stroke="blue" stroke-width="2" />
<path d="M3335,8783 L1962,8530" stroke="blue" stroke-width="2" />
<path d="M2875,2985 L1302,6309" stroke="blue" stroke-width="2" />
<path d="M4040,3354 L4388,6724" stroke="blue" stroke-width="2" />
<path d="M4401,2240 L295,510" stroke="blue" stroke-width="2" />
<path d="M1895,4896 L1191,7738" stroke="blue" stroke-width="2" />
<path d="M4290,4809 L2427,3449" stroke="blue" stroke-width="2" />
<path d="M3674,5237 L2372,2212" stroke="blue" stroke-width="2" />
<path d="M2597,1337 L2538,2743" stroke="blue" stroke-width="2" />
<path d="M3963,6672 L3052,6440" stroke="blue" stroke-width="2" />
<path d="M1630,7824 L3165,6827" stroke="blue" stroke-width="2" />
<path d="M3252,221 L184,5915" stroke="blue" stroke-width="2" />
<path d="M947,7489 L4625,6901" stroke="blue" stroke-width="2" />
<path d="M3054,8888 L1965,3434" stroke="blue" stroke-width="2" />
<path d="M796,1770 L3274,2831" stroke="blue" stroke-width="2" />
<path d="M3002,1310 L4436,3247" stroke="blue" stroke-width="2" />
<path d="M3258,4300 L3275,4408" stroke="blue" stroke-width="2" />
<path d="M4112,7279 L2785,5313" stroke="blue" stroke-width="2" />
<path d="M2676,1244 L4119,3450" stroke="blue" stroke-width="2" />
<path d="M1155,8626 L1173,7298" stroke="blue" stroke-width="2" />
<path d="M3768,7273 L3253,6136" stroke="blue" stroke-width="2" />
<path d="M467,1194 L664,4698" stroke="blue" stroke-width="2" />
<path d="M2891,130 L4570,4843" stroke="blue" stroke-width="2" />
<path d="M387,8317 L4344,8479" stroke="blue" stroke-width="2" />
<path d="M3282,5136 L4412,8905" stroke="blue" stroke-width="2" />
<path d="M4590,8895 L3820,2067" stroke="blue" stroke-width="2" />
<path d="M3616,840 L3880,5837" stroke="blue" stroke-width="2" />
<path d="M1740,3124 L4220,5352" stroke="blue" stroke-width="2" />
<path d="M4543,3932 L2636,4539" stroke="blue" stroke-width="2" />
<path d="M2765,5714 L82,3928" stroke="blue" stroke-width="2" />
<path d="M4155,8906 L616,6649" stroke="blue" stroke-width="2" />
<path d="M1861,6648 L4500,980" stroke="blue" stroke-width="2" />
<path d="M3577,4085 L1933,2380" stroke="blue" stroke-width="2" />
<path d="M4189,7112 L1588,6437" stroke="blue" stroke-width="2" />
<path d="M2696,6088 L3075,6801" stroke="blue" stroke-width="2" />
<path d="M2379,8784 L4153,3602" stroke="blue" stroke-width="2" />
<path d="M2698,3966 L4472,4705" stroke="blue" stroke-width="2" />
<path d="M1534,6417 L4172,2779" stroke="blue" stroke-width="2" />
<path d="M3279,1312 L955,6548" stroke="blue" stroke-width="2" />
<path d="M1616,523 L4570,4282" stroke="blue" stroke-width="2" />
<path d="M3709,3942 L381,2318" stroke="blue" stroke-width="2" />
<path d="M3191,7666 L2081,5709" stroke="blue" stroke-width="2" />
<path d="M338,8410 L688,7561" stroke="blue" stroke-width="2" />
<path d="M2138,3309 L2166,2888" stroke="blue" stroke-width="2" />
<path d="M3467,8060 L1482,4883" stroke="blue" stroke-width="2" />
<path d="M4186,3840 L1026,1223" stroke="blue" stroke-width="2" />
<path d="M3214,5150 L2882,1733" stroke="blue" stroke-width="2" />
<path d="M1546,8584 L2397,5250" stroke="blue" stroke-width="2" />
<path d="M909,6225 L1261,1587" stroke="blue" stroke-width="2" />
<path d="M1315,4218 L1270,3180" stroke="blue" stroke-width="2" />
<path d="M4170,7573 L2103,7931" stroke="blue" stroke-width="2" />
<path d="M267,2413 L447,7841" stroke="blue" stroke-width="2" />
<path d="M3260,6953 L1635,8498" stroke="blue" stroke-width="2" />
<path d="M1531,332 L2144,4706" stroke="blue" stroke-width="2" />
<path d="M1519,8187 L4618,1622" stroke="blue" stroke-width="2" />
<path d="M4119,6306 L3483,4304" stroke="blue" stroke-width="2" />
<path d="M1079,2691 L2734,8885" stroke="blue" stroke-width="2" />
<path d="M1532,275 L443,2721" stroke="blue" stroke-width="2" />
<path d="M4059,7356 L3789,6578" stroke="blue" stroke-width="2" />
<path d="M4124,7158 L2925,3514" stroke="blue" stroke-width="2" />
<path d="M3451,7747 L1751,4950" stroke="blue" stroke-width="2" />
<path d="M2394,7452 L1968,8846" stroke="blue" stroke-width="2" />
<path d="M227,4670 L730,7051" stroke="blue" stroke-width="2" />
<path d="M2043,2307 L366,6330" stroke="blue" stroke-width="2" />
<path d="M3960,5357 L3572,4052" stroke="blue" stroke-width="2" />
<path d="M666,1728 L1497,950" stroke="blue" stroke-width="2" />
<path d="M4186,8599 L4553,6006" stroke="blue" stroke-width="2" />
<path d="M2002,3475 L2693,3671" stroke="blue" stroke-width="2" />
<path d="M1576,968 L3766,6458" stroke="blue" stroke-width="2" />
<path d="M32,2705 L345,2177" stroke="blue" stroke-width="2" />
<path d="M2893,4219 L724,6528" stroke="blue" stroke-width="2" />
<path d="M203,970 L3067,2938" stroke="blue" stroke-width="2" />
<path d="M3810,6776 L4119,8767" stroke="blue" stroke-width="2" />
<path d="M1329,7015 L324,6663" stroke="blue" stroke-width="2" />
<path d="M102,3760 L1363,2308" stroke="blue" stroke-width="2" />
<path d="M3960,7635 L946,123" stroke="blue" stroke-width="2" />
<path d="M1860,2784 L2082,4411" stroke="blue" stroke-width="2" />
<path d="M2634,641 L959,1721" stroke="blue" stroke-width="2" />
<path d="M3666,4062 L398,1594" stroke="blue" stroke-width="2" />
<path d="M2394,1086 L2459,7663" stroke="blue" stroke-width="2" />
<path d="M3580,5575 L587,4293" stroke="blue" stroke-width="2" />
<path d="M1121,4279 L727,5179" stroke="blue" stroke-width="2" />
<path d="M3220,2208 L2126,5856" stroke="blue" stroke-width="2" />
<path d="M2393,7578 L3047,7568" stroke="blue" stroke-width="2" />
<path d="M3224,1866 L3792,5905" stroke="blue" stroke-width="2" />
<path d="M3305,2817 L720,958" stroke="blue" stroke-width="2" />
<path d="M4238,5847 L4612,310" stroke="blue" stroke-width="2" />
<path d="M927,1301 L669,3918" stroke="blue" stroke-width="2" />
<path d="M377,8056 L473,8770" stroke="blue" stroke-width="2" />
<path d="M3996,907 L2008,514" stroke="blue" stroke-width="2" />
<path d="M1556,2032 L96,8341" stroke="blue" stroke-width="2" />
<path d="M4489,4424 L1915,2799" stroke="blue" stroke-width="2" />
<path d="M2999,3383 L2700,4512" stroke="blue" stroke-width="2" />
<path d="M3145,1411 L1168,3306" stroke="blue" stroke-width="2" />
<path d="M1140,5697 L1956,3508" stroke="blue" stroke-width="2" />
<path d="M282,448 L3705,7659" stroke="blue" stroke-width="2" />
<path d="M3732,8674 L1669,7277" stroke="blue" stroke-width="2" />
<path d="M3094,4406 L3702,4567" stroke="blue" stroke-width="2" />
<path d="M3475,7613 L2263,4262" stroke="blue" stroke-width="2" />
<path d="M2741,1480 L3963,2975" stroke="blue" stroke-width="2" />
<path d="M4033,876 L2850,6102" stroke="blue" stroke-width="2" />
<path d="M3966,1907 L1351,559" stroke="blue" stroke-width="2" />
<path d="M3328,1084 L4528,5133" stroke="blue" stroke-width="2" />
<path d="M1411,1778 L708,5797" stroke="blue" stroke-width="2" />
<path d="M3421,7608 L3577,731" stroke="blue" stroke-width="2" />
<path d="M4354,1358 L571,4660" stroke="blue" stroke-width="2" />
<path d="M498,8019 L1401,21" stroke="blue" stroke-width="2" />
<path d="M1226,4997 L1349,69" stroke="blue" stroke-width="2" />
<path d="M2460,4235 L106,8745" stroke="blue" stroke-width="2" />
<path d="M2060,980 L3208,1986" stroke="blue" stroke-width="2" />
<path d="M930,2576 L446,2525" stroke="blue" stroke-width="2" />
<path d="M219,3152 L4552,7453" stroke="blue" stroke-width="2" />
<path d="M2370,8487 L4157,914" stroke="blue" stroke-width="2" />
<path d="M2900,8800 L2124,8762" stroke="blue" stroke-width="2" />
<path d="M718,5644 L4386,6014" stroke="blue" stroke-width="2" />
<path d="M1556,539 L1348,2237" stroke="blue" stroke-width="2" />
<path d="M328,2744 L2003,6087" stroke="blue" stroke-width="2" />
<path d="M1248,5404 L1847,4458" stroke="blue" stroke-width="2" />
<path d="M3878,8236 L50,8780" stroke="blue" stroke-width="2" />
<path d="M553,2315 L2096,5208" stroke="blue" stroke-width="2" />
<path d="M4410,490 L1634,5478" stroke="blue" stroke-width="2" />
<path d="M2272,7025 L496,7741" stroke="blue" stroke-width="2" />
<path d="M1502,2615 L3862,4609" stroke="blue" stroke-width="2" />
<path d="M1127,6577 L1571,8784" stroke="blue" stroke-width="2" />
<path d="M3489,3470 L3348,4699" stroke="blue" stroke-width="2" />
<path d="M64,6258 L4172,5147" stroke="blue" stroke-width="2" />
<path d="M3245,219 L1340,2047" stroke="blue" stroke-width="2" />
<path d="M2087,5483 L184,4257" stroke="blue" stroke-width="2" />
<path d="M3361,3934 L409,3016" stroke="blue" stroke-width="2" />
<path d="M3489,2584 L1973,8672" stroke="blue" stroke-width="2" />
<path d="M1885,6816 L3593,2881" stroke="blue" stroke-width="2" />
<path d="M289,1149 L4206,1905" stroke="blue" stroke-width="2" />
<path d="M4548,4971 L1792,8850" stroke="blue" stroke-width="2" />
<path d="M2482,4819 L2586,8367" stroke="blue" stroke-width="2" />
<path d="M1266,639 L4477,6422" stroke="blue" stroke-width="2" />
<path d="M1112,1681 L2355,7467" stroke="blue" stroke-width="2" />
<path d="M1199,4177 L1034,8049" stroke="blue" stroke-width="2" />
<path d="M2393,415 L3839,19" stroke="blue" stroke-width="2" />
<path d="M3063,4784 L346,8508" stroke="blue" stroke-width="2" />
<path d="M3188,1187 L1300,870" stroke="blue" stroke-width="2" />
<path d="M4444,520 L1953,5884" stroke="blue" stroke-width="2" />
<path d="M569,934 L445,7753" stroke="blue" stroke-width="2" />
<path d="M803,6508 L4542,5780" stroke="blue" stroke-width="2" />
<path d="M3703,5313 L2295,1015" stroke="blue" stroke-width="2" />
<path d="M3447,8067 L1210,3932" stroke="blue" stroke-width="2" />
<path d="M3821,4391 L1924,7976" stroke="blue" stroke-width="2" />
<path d="M1909,1444 L4543,7777" stroke="blue" stroke-width="2" />
<path d="M4069,939 L2786,7798" stroke="blue" stroke-width="2" />
<path d="M1916,2123 L2200,5836" stroke="blue" stroke-width="2" />
<path d="M1749,6601 L3603,1060" stroke="blue" stroke-width="2" />
<path d="M1094,4866 L1066,8810" stroke="blue" stroke-width="2" />
<path d="M232,3843 L753,1113" stroke="blue" stroke-width="2" />
<path d="M3856,814 L4054,2295" stroke="blue" stroke-width="2" />
<path d="M3961,4653 L899,774" stroke="blue" stroke-width="2" />
<path d="M3127,6927 L749,7125" stroke="blue" stroke-width="2" />
<path d="M724,8409 L4111,292" stroke="blue" stroke-width="2" />
<path d="M1978,164 L562,593" stroke="blue" stroke-width="2" />
<path d="M1639,5376 L1537,7185" stroke="blue" stroke-width="2" />
<path d="M3035,2554 L2979,1039" stroke="blue" stroke-width="2" />
<path d="M4020,340 L2031,8120" stroke="blue" stroke-width="2" />
<path d="M410,4023 L532,287" stroke="blue" stroke-width="2" />
<path d="M4176,5526 L1577,1257" stroke="blue" stroke-width="2" />
<path d="M2378,5970 L3642,1224" stroke="blue" stroke-width="2" />
<path d="M1001,2423 L174,5588" stroke="blue" stroke-width="2" />
<path d="M4148,716 L4167,4242" stroke="blue" stroke-width="2" />
<path d="M1068,306 L4046,7490" stroke="blue" stroke-width="2" />
<path d="M2470,8822 L804,706" stroke="blue" stroke-width="2" />
<path d="M1366,3569 L2194,3881" stroke="blue" stroke-width="2" />
<path d="M1667,1579 L2330,2573" stroke="blue" stroke-width="2" />
<path d="M2872,4516 L794,7777" stroke="blue" stroke-width="2" />
<path d="M4360,3657 L1164,8285" stroke="blue" stroke-width="2" />
<path d="M2640,3003 L2267,6320" stroke="blue" stroke-width="2" />
<path d="M3830,6775 L2078,3773" stroke="blue" stroke-width="2" />
<path d="M93,7540 L4378,5371" stroke="blue" stroke-width="2" />
<path d="M3882,3638 L2317,5545" stroke="blue" stroke-width="2" />
<path d="M2109,4984 L4552,7844" stroke="blue" stroke-width="2" />
<path d="M2186,6314 L3308,6823" stroke="blue" stroke-width="2" />
<path d="M4276,6877 L4180,1883" stroke="blue" stroke-width="2" />
<path d="M3881,6505 L3078,7685" stroke="blue" stroke-width="2" />
<path d="M1558,6309 L1043,3351" stroke="blue" stroke-width="2" />
<path d="M1665,7114 L1662,5601" stroke="blue" stroke-width="2" />
<path d="M1846,6099 L2400,7433" stroke="blue" stroke-width="2" />
<path d="M1635,8396 L2752,6616" stroke="blue" stroke-width="2" />
<path d="M2724,8689 L4434,107" stroke="blue" stroke-width="2" />
<path d="M1155,2073 L4230,6356" stroke="blue" stroke-width="2" />
<path d="M1205,5662 L3345,3527" stroke="blue" stroke-width="2" />
<path d="M3223,1341 L766,3689" stroke="blue" stroke-width="2" />
<path d="M511,2157 L4029,4904" stroke="blue" stroke-width="2" />
<path d="M2541,8185 L2395,3305" stroke="blue" stroke-width="2" />
<path d="M2240,510 L1195,7480" stroke="blue" stroke-width="2" />
<path d="M2933,5571 L4094,471" stroke="blue" stroke-width="2" />
<path d="M3503,4575 L4376,8444" stroke="blue" stroke-width="2" />
<path d="M1542,7861 L2378,758" stroke="blue" stroke-width="2" />
<path d="M1454,3330 L1589,6896" stroke="blue" stroke-width="2" />
<path d="M1513,3865 L1566,6006" stroke="blue" stroke-width="2" />
<path d="M1032,1913 L647,1699" stroke="blue" stroke-width="2" />
<path d="M1937,7994 L3099,8565" stroke="blue" stroke-width="2" />
<path d="M1474,3823 L2186,3572" stroke="blue" stroke-width="2" />
<path d="M1322,6014 L1461,6067" stroke="blue" stroke-width="2" />
<path d="M4284,6706 L1175,7199" stroke="blue" stroke-width="2" />
<path d="M41,6800 L976,7596" stroke="blue" stroke-width="2" />
<path d="M3691,1714 L1120,770" stroke="blue" stroke-width="2" />
<path d="M1640,3656 L4190,604" stroke="blue" stroke-width="2" />
<path d="M416,4925 L1095,4007" stroke="blue" stroke-width="2" />
<path d="M1893,6905 L4315,6235" stroke="blue" stroke-width="2" />
<path d="M4359,6261 L4175,5411" stroke="blue" stroke-width="2" />
<path d="M1821,4216 L1752,1294" stroke="blue" stroke-width="2" />
<path d="M681,1715 L404,3599" stroke="blue" stroke-width="2" />
<path d="M3406,5915 L311,3106" stroke="blue" stroke-width="2" />
<path d="M749,446 L3456,6188" stroke="blue" stroke-width="2" />
<path d="M1292,2183 L3765,18" stroke="blue" stroke-width="2" />
<path d="M3684,581 L1906,8396" stroke="blue" stroke-width="2" />
<path d="M1797,8085 L1644,2471" stroke="blue" stroke-width="2" />
<path d="M126,4311 L1514,8789" stroke="blue" stroke-width="2" />
<path d="M3588,3907 L847,6506" stroke="blue" stroke-width="2" />
<path d="M1479,7627 L2342,451" stroke="blue" stroke-width="2" />
<path d="M1260,3442 L3912,3872" stroke="blue" stroke-width="2" />
<path d="M4642,8819 L3986,2371" stroke="blue" stroke-width="2" />
<path d="M99,5271 L4394,1202" stroke="blue" stroke-width="2" />
<path d="M3603,571 L202,7990" stroke="blue" stroke-width="2" />
<path d="M3236,6074 L3027,4604" stroke="blue" stroke-width="2" />
<path d="M1752,992 L889,4470" stroke="blue" stroke-width="2" />
<path d="M1743,883 L1717,8384" stroke="blue" stroke-width="2" />
<path d="M3748,1045 L4375,8868" stroke="blue" stroke-width="2" />
<path d="M303,3949 L2194,21" stroke="blue" stroke-width="2" />
<path d="M2721,225 L3200,2462" stroke="blue" stroke-width="2" />
<path d="M3207,8304 L4278,865" stroke="blue" stroke-width="2" />
<path d="M2475,6718 L1299,8453" stroke="blue" stroke-width="2" />
<path d="M2752,492 L4636,6604" stroke="blue" stroke-width="2" />
<path d="M2186,4793 L3891,1611" stroke="blue" stroke-width="2" />
<path d="M1365,908 L1455,1010" stroke="blue" stroke-width="2" />
<path d="M2368,8034 L4019,1851" stroke="blue" stroke-width="2" />
<path d="M1192,6375 L3946,5572" stroke="blue" stroke-width="2" />
<path d="M1968,6329 L1087,7699" stroke="blue" stroke-width="2" />
<path d="M4284,304 L1774,7808" stroke="blue" stroke-width="2" />
<path d="M942,2958 L3779,6110" stroke="blue" stroke-width="2" />
<path d="M2993,2725 L4009,7075" stroke="blue" stroke-width="2" />
<path d="M3028,6244 L4523,3397" stroke="blue" stroke-width="2" />
<path d="M3904,8779 L3147,3488" stroke="blue" stroke-width="2" />
<path d="M490,8667 L4100,3711" stroke="blue" stroke-width="2" />
<path d="M118,3829 L3431,2268" stroke="blue" stroke-width="2" />
<path d="M3575,5911 L199,6540" stroke="blue" stroke-width="2" />
<path d="M853,3726 L433,279" stroke="blue" stroke-width="2" />
<path d="M71,326 L3512,6003" stroke="blue" stroke-width="2" />
<path d="M3728,7716 L1733,1140" stroke="blue" stroke-width="2" />
<path d="M3331,3008 L4152,6733" stroke="blue" stroke-width="2" />
<path d="M3781,4342 L1570,2630" stroke="blue" stroke-width="2" />
<path d="M288,5888 L3206,6431" stroke="blue" stroke-width="2" />
<path d="M4343,4816 L4551,4410" stroke="blue" stroke-width="2" />
<path d="M1901,2744 L4259,5440" stroke="blue" stroke-width="2" />
<path d="M402,2488 L3804,834" stroke="blue" stroke-width="2" />
<path d="M1801,7509 L1358,936" stroke="blue" stroke-width="2" />
<path d="M1732,7961 L2770,5817" stroke="blue" stroke-width="2" />
<path d="M1876,1266 L357,5630" stroke="blue" stroke-width="2" />
<path d="M1809,1838 L1637,8520" stroke="blue" stroke-width="2" />
<path d="M3075,1747 L1323,4199" stroke="blue" stroke-width="2" />
<path d="M3017,7618 L2614,8918" stroke="blue" stroke-width="2" />
<path d="M2917,8804 L1763,51" stroke="blue" stroke-width="2" />
<path d="M3951,4795 L1382,5219" stroke="blue" stroke-width="2" />
<path d="M1298,7714 L770,3335" stroke="blue" stroke-width="2" />
<path d="M32,3489 L3912,7732" stroke="blue" stroke-width="2" />
<path d="M1967,4692 L3268,2813" stroke="blue" stroke-width="2" />
<path d="M3672,6853 L2402,21" stroke="blue" stroke-width="2" />
<path d="M164,3767 L2294,8447" stroke="blue" stroke-width="2" />
<path d="M3677,2618 L350,7694" stroke="blue" stroke-width="2" />
<path d="M2356,3316 L2438,708" stroke="blue" stroke-width="2" />
<path d="M3011,2937 L4203,5600" stroke="blue" stroke-width="2" />
<path d="M1710,8294 L2412,3594" stroke="blue" stroke-width="2" />
<path d="M3615,8550 L1538,1281" stroke="blue" stroke-width="2" />
<path d="M877,265 L2420,5474" stroke="blue" stroke-width="2" />
<path d="M3193,3795 L3515,8468" stroke="blue" stroke-width="2" />
<path d="M897,8328 L1630,2580" stroke="blue" stroke-width="2" />
<path d="M2286,1899 L290,5677" stroke="blue" stroke-width="2" />
<path d="M1670,7090 L1162,8085" stroke="blue" stroke-width="2" />
<path d="M494,7438 L2603,6874" stroke="blue" stroke-width="2" />
<path d="M193,3823 L1448,4726" stroke="blue" stroke-width="2" />
<path d="M3565,6182 L3111,4355" stroke="blue" stroke-width="2" />
<path d="M1764,8807 L947,8239" stroke="blue" stroke-width="2" />
<path d="M894,2882 L545,6192" stroke="blue" stroke-width="2" />
<path d="M3737,603 L2473,5407" stroke="blue" stroke-width="2" />
<path d="M1915,5743 L2137,7638" stroke="blue" stroke-width="2" />
<path d="M234,6930 L3556,3216" stroke="blue" stroke-width="2" />
<path d="M2868,4199 L459,6872" stroke="blue" stroke-width="2" />
<path d="M1163,8838 L2357,5303" stroke="blue" stroke-width="2" />
<path d="M3383,6615 L655,8222" stroke="blue" stroke-width="2" />
<path d="M105,1608 L3574,916" stroke="blue" stroke-width="2" />
<path d="M1337,6475 L438,693" stroke="blue" stroke-width="2" />
<path d="M937,5513 L1740,6618" stroke="blue" stroke-width="2" />
<path d="M2568,4394 L631,7187" stroke="blue" stroke-width="2" />
<path d="M4194,8600 L4399,2494" stroke="blue" stroke-width="2" />
<path d="M3865,8321 L2959,7418" stroke="blue" stroke-width="2" />
<path d="M4198,5764 L1785,5706" stroke="blue" stroke-width="2" />
<path d="M1248,3867 L1092,3" stroke="blue" stroke-width="2" />
<path d="M2803,1176 L3627,2479" stroke="blue" stroke-width="2" />
<path d="M2074,6384 L3632,1527" stroke="blue" stroke-width="2" />
<path d="M2420,1434 L2448,1150" stroke="blue" stroke-width="2" />
<path d="M760,382 L1968,6719" stroke="blue" stroke-width="2" />
<path d="M2128,6156 L1775,5941" stroke="blue" stroke-width="2" />
<path d="M1723,6426 L705,1318" stroke="blue" stroke-width="2" />
<path d="M3146,7881 L4152,3493" stroke="blue" stroke-width="2" />
<path d="M4601,7459 L2242,6022" stroke="blue" stroke-width="2" />
<path d="M2811,6753 L2915,1841" stroke="blue" stroke-width="2" />
<path d="M1861,8813 L2891,5571" stroke="blue" stroke-width="2" />
<path d="M4087,4039 L1681,4598" stroke="blue" stroke-width="2" />
<path d="M480,2381 L3368,2709" stroke="blue" stroke-width="2" />
<path d="M2496,7355 L4256,5120" stroke="blue" stroke-width="2" />
<path d="M4530,8253 L3019,7004" stroke="blue" stroke-width="2" />
<path d="M1101,7336 L2530,5771" stroke="blue" stroke-width="2" />
<path d="M659,3346 L3827,7596" stroke="blue" stroke-width="2" />
<path d="M3344,2817 L1091,581" stroke="blue" stroke-width="2" />
<path d="M2906,7862 L3130,440" stroke="blue" stroke-width="2" />
<path d="M120,6966 L4474,7890" stroke="blue" stroke-width="2" />
<path d="M3778,3363 L3628,4174" stroke="blue" stroke-width="2" />
<path d="M3401,3793 L2208,8236" stroke="blue" stroke-width="2" />
<path d="M2031,2662 L4481,4330" stroke="blue" stroke-width="2" />
<path d="M306,1077 L1296,5061" stroke="blue" stroke-width="2" />
<path d="M1987,7724 L3749,4047" stroke="blue" stroke-width="2" />
<path d="M1881,6946 L3289,449" stroke="blue" stroke-width="2" />
<path d="M4364,3641 L4022,7996" stroke="blue" stroke-width="2" />
<path d="M4215,3632 L2616,6765" stroke="blue" stroke-width="2" />
<path d="M1177,5240 L281,8451" stroke="blue" stroke-width="2" />
<path d="M1424,1047 L4186,6302" stroke="blue" stroke-width="2" />
<path d="M1921,3765 L1307,7551" stroke="blue" stroke-width="2" />
<path d="M3280,6265 L3142,8552" stroke="blue" stroke-width="2" />
<path d="M101,4980 L4245,3871" stroke="blue" stroke-width="2" />
<path d="M3723,943 L733,5076" stroke="blue" stroke-width="2" />
<path d="M2236,564 L3630,8752" stroke="blue" stroke-width="2" />
<path d="M4052,1537 L4080,3276" stroke="blue" stroke-width="2" />
<path d="M2265,3562 L3530,6928" stroke="blue" stroke-width="2" />
<path d="M1400,8255 L2889,6602" stroke="blue" stroke-width="2" />
<path d="M3831,1095 L2113,2340" stroke="blue" stroke-width="2" />
<path d="M554,8576 L1765,93" stroke="blue" stroke-width="2" />
<path d="M1087,532 L4295,2644" stroke="blue" stroke-width="2" />
<path d="M2473,4818 L1088,796" stroke="blue" stroke-width="2" />
<path d="M367,6392 L1341,3507" stroke="blue" stroke-width="2" />
<path d="M3755,388 L3044,66" stroke="blue" stroke-width="2" />
<path d="M1312,6322 L1100,6131" stroke="blue" stroke-width="2" />
<path d="M2244,3184 L4190,8605" stroke="blue" stroke-width="2" />
<path d="M1560,6405 L1312,3451" stroke="blue" stroke-width="2" />
<path d="M2322,7979 L3171,2053" stroke="blue" stroke-width="2" />
<path d="M737,6677 L4598,4417" stroke="blue" stroke-width="2" />
<path d="M1995,544 L495,3155" stroke="blue" stroke-width="2" />
<path d="M1263,423 L3414,1436" stroke="blue" stroke-width="2" />
<path d="M3373,1058 L3886,1206" stroke="blue" stroke-width="2" />
<path d="M2014,3417 L4397,333" stroke="blue" stroke-width="2" />
<path d="M2179,8667 L722,3179" stroke="blue" stroke-width="2" />
<path d="M4119,2530 L2029,4341" stroke="blue" stroke-width="2" />
<path d="M3809,8704 L142,3257" stroke="blue" stroke-width="2" />
<path d="M3584,4407 L3094,6443" stroke="blue" stroke-width="2" />
<path d="M2646,6193 L3590,1554" stroke="blue" stroke-width="2" />
<path d="M2835,6143 L2412,989" stroke="blue" stroke-width="2" />
<path d="M3219,697 L2452,4272" stroke="blue" stroke-width="2" />
<path d="M611,924 L1032,6961" stroke="blue" stroke-width="2" />
<path d="M2493,1802 L542,1744" stroke="blue" stroke-width="2" />
<path d="M3721,1564 L2264,4928" stroke="blue" stroke-width="2" />
<path d="M2782,3460 L3168,498" stroke="blue" stroke-width="2" />
<path d="M3240,4024 L2144,2617" stroke="blue" stroke-width="2" />
<path d="M4562,1870 L2129,7996" stroke="blue" stroke-width="2" />
<path d="M4151,8355 L1527,6436" stroke="blue" stroke-width="2" />
<path d="M318,6407 L3859,8834" stroke="blue" stroke-width="2" />
<path d="M2639,372 L4367,3380" stroke="blue" stroke-width="2" />
<path d="M3282,5598 L1726,2569" stroke="blue" stroke-width="2" />
<path d="M2540,8642 L2758,6040" stroke="blue" stroke-width="2" />
<path d="M925,8547 L4474,3403" stroke="blue" stroke-width="2" />
<path d="M2637,7576 L3166,6093" stroke="blue" stroke-width="2" />
<path d="M1607,6650 L1035,8326" stroke="blue" stroke-width="2" />
<path d="M3318,8093 L323,7099" stroke="blue" stroke-width="2" />
<path d="M3161,8398 L436,5541" stroke="blue" stroke-width="2" />
<path d="M2092,7485 L873,3055" stroke="blue" stroke-width="2" />
<path d="M3093,8155 L4234,5926" stroke="blue" stroke-width="2" />
<path d="M2183,4900 L2165,897" stroke="blue" stroke-width="2" />
<path d="M1909,1637 L1104,2007" stroke="blue" stroke-width="2" />
<path d="M4227,5903 L33,2626" stroke="blue" stroke-width="2" />
<path d="M2295,2505 L3104,8393" stroke="blue" stroke-width="2" />
<path d="M410,2402 L2297,6666" stroke="blue" stroke-width="2" />
<path d="M3612,6332 L4078,8548" stroke="blue" stroke-width="2" />
<path d="M4305,943 L2513,1728" stroke="blue" stroke-width="2" />
<path d="M4042,183 L4205,2644" stroke="blue" stroke-width="2" />
<path d="M1895,8810 L3680,8517" stroke="blue" stroke-width="2" />
<path d="M2628,4352 L1065,8800" stroke="blue" stroke-width="2" />
<path d="M4110,834 L2329,1111" stroke="blue" stroke-width="2" />
<path d="M2104,3081 L801,6282" stroke="blue" stroke-width="2" />
<path d="M4609,6537 L1064,5211" stroke="blue" stroke-width="2" />
<path d="M3259,4752 L1654,241" stroke="blue" stroke-width="2" />
<path d="M742,6146 L2774,1274" stroke="blue" stroke-width="2" />
<path d="M604,380 L3480,4408" stroke="blue" stroke-width="2" />
<path d="M3857,3601 L1912,5074" stroke="blue" stroke-width="2" />
<path d="M4645,3769 L665,1991" stroke="blue" stroke-width="2" />
<path d="M1151,2469 L444,3509" stroke="blue" stroke-width="2" />
<path d="M847,8140 L876,5311" stroke="blue" stroke-width="2" />
<path d="M3489,5775 L2553,7497" stroke="blue" stroke-width="2" />
<path d="M714,817 L4583,647" stroke="blue" stroke-width="2" />
<path d="M1141,3129 L3239,8761" stroke="blue" stroke-width="2" />
<path d="M2587,6757 L4173,2014" stroke="blue" stroke-width="2" />
<path d="M2249,1196 L1974,6456" stroke="blue" stroke-width="2" />
<path d="M931,7524 L3434,1375" stroke="blue" stroke-width="2" />
<path d="M278,1096 L956,8429" stroke="blue" stroke-width="2" />
<path d="M3202,8807 L2112,2607" stroke="blue" stroke-width="2" />
<path d="M4449,7191 L847,7866" stroke="blue" stroke-width="2" />
<path d="M1893,8202 L1227,0" stroke="blue" stroke-width="2" />
<path d="M4238,5476 L3338,5202" stroke="blue" stroke-width="2" />
<path d="M1311,5663 L3443,1195" stroke="blue" stroke-width="2" />
<path d="M2673,3179 L3063,6831" stroke="blue" stroke-width="2" />
<path d="M4104,2409 L320,7266" stroke="blue" stroke-width="2" />
<path d="M2864,1225 L451,299" stroke="blue" stroke-width="2" />
<path d="M3652,6557 L2728,860" stroke="blue" stroke-width="2" />
<path d="M3107,8727 L865,5309" stroke="blue" stroke-width="2" />
<path d="M4541,2608 L3023,3100" stroke="blue" stroke-width="2" />
<path d="M2028,8271 L1032,495" stroke="blue" stroke-width="2" />
<path d="M3180,2289 L2279,5103" stroke="blue" stroke-width="2" />
<path d="M3995,5634 L1410,4987" stroke="blue" stroke-width="2" />
<path d="M3345,366 L2139,2414" stroke="blue" stroke-width="2" />
<path d="M3522,7296 L1841,8388" stroke="blue" stroke-width="2" />
<path d="M356,306 L662,5234" stroke="blue" stroke-width="2" />
<path d="M3402,2261 L1790,6014" stroke="blue" stroke-width="2" />
<path d="M1283,733 L1301,2428" stroke="blue" stroke-width="2" />
<path d="M1495,7184 L7,2657" stroke="blue" stroke-width="2" />
<path d="M727,3846 L2238,6062" stroke="blue" stroke-width="2" />
<path d="M1921,6790 L240,8071" stroke="blue" stroke-width="2" />
<path d="M878,1052 L2009,8719" stroke="blue" stroke-width="2" />
<path d="M2533,1106 L2068,1449" stroke="blue" stroke-width="2" />
<path d="M494,5616 L3094,7947" stroke="blue" stroke-width="2" />
<path d="M2517,803 L4620,4283" stroke="blue" stroke-width="2" />
<path d="M1810,6944 L2604,7923" stroke="blue" stroke-width="2" />
<path d="M4583,2390 L4058,6400" stroke="blue" stroke-width="2" />
<path d="M2918,7591 L2021,5113" stroke="blue" stroke-width="2" />
<path d="M2372,6027 L3901,3538" stroke="blue" stroke-width="2" />
<path d="M2061,8541 L1069,2967" stroke="blue" stroke-width="2" />
<path d="M2661,6375 L115,3722" stroke="blue" stroke-width="2" />
<path d="M162,8204 L4597,2588" stroke="blue" stroke-width="2" />
<path d="M4022,6908 L2930,107" stroke="blue" stroke-width="2" />
<path d="M3182,7520 L4087,4365" stroke="blue" stroke-width="2" />
<path d="M1355,2192 L3816,5281" stroke="blue" stroke-width="2" />
<path d="M2500,2372 L2547,7146" stroke="blue" stroke-width="2" />
<path d="M2964,2365 L3076,3569" stroke="blue" stroke-width="2" />
<path d="M3572,5767 L2276,8876" stroke="blue" stroke-width="2" />
<path d="M1953,5373 L464,7801" stroke="blue" stroke-width="2" />
<path d="M1354,5678 L1331,3304" stroke="blue" stroke-width="2" />
<path d="M1784,2770 L2450,5742" stroke="blue" stroke-width="2" />
<path d="M916,4554 L3444,1532" stroke="blue" stroke-width="2" />
<path d="M3130,4814 L1332,6319" stroke="blue" stroke-width="2" />
<path d="M424,4583 L4006,4154" stroke="blue" stroke-width="2" />
<path d="M4133,4207 L4402,6292" stroke="blue" stroke-width="2" />
<path d="M4388,8168 L1129,5938" stroke="blue" stroke-width="2" />
<path d="M1245,3962 L3144,7324" stroke="blue" stroke-width="2" />
<path d="M3189,6577 L891,5693" stroke="blue" stroke-width="2" />
<path d="M1618,5029 L3159,5713" stroke="blue" stroke-width="2" />
<path d="M3689,1260 L3326,386" stroke="blue" stroke-width="2" />
<path d="M2731,8828 L2523,2871" stroke="blue" stroke-width="2" />
<path d="M3104,7242 L4335,7000" stroke="blue" stroke-width="2" />
<path d="M1288,1142 L1158,8581" stroke="blue" stroke-width="2" />
<path d="M1990,166 L3085,1043" stroke="blue" stroke-width="2" />
<path d="M4062,6028 L3817,2938" stroke="blue" stroke-width="2" />
<path d="M2065,2759 L3590,5919" stroke="blue" stroke-width="2" />
<path d="M239,6555 L3599,1016" stroke="blue" stroke-width="2" />
<path d="M3410,8699 L388,274" stroke="blue" stroke-width="2" />
<path d="M1047,5614 L4028,3106" stroke="blue" stroke-width="2" />
<path d="M4292,5164 L4324,4473" stroke="blue" stroke-width="2" />
<path d="M64,5211 L3347,318" stroke="blue" stroke-width="2" />
<path d="M2264,7607 L1752,3106" stroke="blue" stroke-width="2" />
<path d="M1404,8353 L417,8917" stroke="blue" stroke-width="2" />
<path d="M75,2615 L635,3460" stroke="blue" stroke-width="2" />
<path d="M3307,461 L56,5870" stroke="blue" stroke-width="2" />
<path d="M3708,3245 L3975,2688" stroke="blue" stroke-width="2" />
<path d="M4509,8544 L496,8291" stroke="blue" stroke-width="2" />
<path d="M37,4782 L4374,7711" stroke="blue" stroke-width="2" />
<path d="M3755,1149 L630,2892" stroke="blue" stroke-width="2" />
<path d="M2444,6464 L853,2198" stroke="blue" stroke-width="2" />
<path d="M3663,5081 L14,7030" stroke="blue" stroke-width="2" />
<path d="M392,7548 L4269,7763" stroke="blue" stroke-width="2" />
<path d="M3456,7827 L1019,4080" stroke="blue" stroke-width="2" />
<path d="M2614,4984 L1747,8545" stroke="blue" stroke-width="2" />
<path d="M464,2085 L71,1370" stroke="blue" stroke-width="2" />
<path d="M1111,8002 L1155,4137" stroke="blue" stroke-width="2" />
<path d="M123,4200 L2008,3109" stroke="blue" stroke-width="2" />
<path d="M4578,5854 L657,106" stroke="blue" stroke-width="2" />
<path d="M310,2691 L1027,3157" stroke="blue" stroke-width="2" />
<path d="M1292,210 L540,4785" stroke="blue" stroke-width="2" />
<path d="M2765,5823 L135,3946" stroke="blue" stroke-width="2" />
<path d="M2250,7759 L2732,3765" stroke="blue" stroke-width="2" />
<path d="M2051,3249 L1744,6141" stroke="blue" stroke-width="2" />
<path d="M1578,5419 L3207,4346" stroke="blue" stroke-width="2" />
<path d="M3656,5342 L2669,3890" stroke="blue" stroke-width="2" />
<path d="M4079,3531 L4101,7108" stroke="blue" stroke-width="2" />
<path d="M3513,7809 L2031,6627" stroke="blue" stroke-width="2" />
<path d="M2346,4471 L1285,7476" stroke="blue" stroke-width="2" />
<path d="M576,4595 L2588,7184" stroke="blue" stroke-width="2" />
<path d="M2056,1925 L1113,434" stroke="blue" stroke-width="2" />
<path d="M2269,6797 L463,993" stroke="blue" stroke-width="2" />
<path d="M3732,7094 L4262,7334" stroke="blue" stroke-width="2" />
<path d="M3055,847 L1796,3247" stroke="blue" stroke-width="2" />
<path d="M952,2597 L2894,5047" stroke="blue" stroke-width="2" />
<path d="M2324,5755 L2346,4552" stroke="blue" stroke-width="2" />
<path d="M778,1061 L3765,4401" stroke="blue" stroke-width="2" />
<path d="M3051,418 L314,2524" stroke="blue" stroke-width="2" />
<path d="M2558,2703 L1338,609" stroke="blue" stroke-width="2" />
<path d="M990,6415 L2052,1684" stroke="blue" stroke-width="2" />
<path d="M159,2856 L2695,3615" stroke="blue" stroke-width="2" />
<path d="M4285,1574 L3002,3309" stroke="blue" stroke-width="2" />
<path d="M4225,7615 L1392,4383" stroke="blue" stroke-width="2" />
<path d="M1217,7965 L3294,558" stroke="blue" stroke-width="2" />
<path d="M2596,1395 L863,3720" stroke="blue" stroke-width="2" />
<path d="M1330,5085 L2427,2937" stroke="blue" stroke-width="2" />
<path d="M1448,3423 L268,1904" stroke="blue" stroke-width="2" />
<path d="M3722,175 L3487,1807" stroke="blue" stroke-width="2" />
<path d="M289,6315 L4023,5808" stroke="blue" stroke-width="2" />
<path d="M63,8869 L3276,6049" stroke="blue" stroke-width="2" />
<path d="M2069,3577 L4308,636" stroke="blue" stroke-width="2" />
<path d="M4034,8476 L829,4598" stroke="blue" stroke-width="2" />
<path d="M2303,3049 L1004,550" stroke="blue" stroke-width="2" />
<path d="M4459,7278 L2348,2622" stroke="blue" stroke-width="2" />
<path d="M547,5882 L4313,3712" stroke="blue" stroke-width="2" />
<path d="M4582,5505 L800,3919" stroke="blue" stroke-width="2" />
<path d="M2346,5565 L3239,3697" stroke="blue" stroke-width="2" />
<path d="M0,0 L4648,0" stroke="red" stroke-width="10" />
<path d="M4648,0 L4648,8930" stroke="red" stroke-width="10" />
<path d="M0,8930 L4648,8930" stroke="red" stroke-width="10" />
<path d="M0,8930 L0,0" stroke="red" stroke-width="10" />
</svg>