<?xml version="1.0" encoding="UTF-8"?>
<svg xmlns="http://www.w3.org/2000/svg" xmlns:xlink="http://www.w3.org/1999/xlink"
     width="10000" height="10000" viewBox="0 0 10000 10000">
<defs>
</defs>
<path d="M293,2340 L1110,2329" stroke="blue" stroke-width="2" />
<path d="M4259,391 L6407,652" stroke="blue" stroke-width="2" />
<path d="M4954,548 L9,756" stroke="blue" stroke-width="2" />
<path d="M2014,1288 L3399,1858" stroke="blue" stroke-width="2" />
<path d="M4637,2752 L6107,632" stroke="blue" stroke-width="2" />
<path d="M12,1006 L1033,233" stroke="blue" stroke-width="2" />
<path d="M3240,580 L232,2580" stroke="blue" stroke-width="2" />
<path d="M833,3022 L2045,1819" stroke="blue" stroke-width="2" />
<path d="M91,2160 L1253,248" stroke="blue" stroke-width="2" />
<path d="M620,2540 L6415,803" stroke="blue" stroke-width="2" />
<path d="M1289,125 L6372,2177" stroke="blue" stroke-width="2" />
<path d="M3576,2025 L4888,585" stroke="blue" stroke-width="2" />
<path d="M1610,649 L5532,2027" stroke="blue" stroke-width="2" />
<path d="M1652,499 L4380,872" stroke="blue" stroke-width="2" />
<path d="M4311,1063 L604,3006" stroke="blue" stroke-width="2" />
<path d="M1971,1412 L354,1427" stroke="blue" stroke-width="2" />
<path d="M1777,2155 L2589,2500" stroke="blue" stroke-width="2" />
<path d="M1838,2201 L4113,2072" stroke="blue" stroke-width="2" />
<path d="M4303,1990 L2396,612" stroke="blue" stroke-width="2" />
<path d="M5932,2019 L2674,286" stroke="blue" stroke-width="2" />
<path d="M4070,1596 L2844,839" stroke="blue" stroke-width="2" />
<path d="M443,2007 L4671,881" stroke="blue" stroke-width="2" />
<path d="M3668,2607 L6226,2275" stroke="blue" stroke-width="2" />
<path d="M2415,360 L3542,3003" stroke="blue" stroke-width="2" />
<path d="M6544,2324 L1960,599" stroke="blue" stroke-width="2" />
<path d="M5541,1283 L720,452" stroke="blue" stroke-width="2" />
<path d="M4016,3025 L4584,1495" stroke="blue" stroke-width="2" />
<path d="M4973,2837 L4655,1682" stroke="blue" stroke-width="2" />
<path d="M3506,2351 L4513,883" stroke="blue" stroke-width="2" />
<path d="M1686,1845 L4371,2533" stroke="blue" stroke-width="2" />
<path d="M5460,673 L55,2100" stroke="blue" stroke-width="2" />
<path d="M5058,614 L3324,2612" stroke="blue" stroke-width="2" />
<path d="M5318,1118 L2982,2070" stroke="blue" stroke-width="2" />
<path d="M1003,1855 L3529,2050" stroke="blue" stroke-width="2" />
<path d="M564,1514 L2963,2031" stroke="blue" stroke-width="2" />
<path d="M873,2034 L1526,634" stroke="blue" stroke-width="2" />
<path d="M336,2508 L2436,530" stroke="blue" stroke-width="2" />
<path d="M2129,2409 L6339,412" stroke="blue" stroke-width="2" />
<path d="M6277,2215 L1917,768" stroke="blue" stroke-width="2" />
<path d="M2260,1325 L4613,1166" stroke="blue" stroke-width="2" />
<path d="M2062,1803 L4276,1614" stroke="blue" stroke-width="2" />
<path d="M6113,2370 L3,158" stroke="blue" stroke-width="2" />
<path d="M5701,95 L2325,1304" stroke="blue" stroke-width="2" />
<path d="M4911,348 L5273,1942" stroke="blue" stroke-width="2" />
<path d="M2550,174 L6324,1364" stroke="blue" stroke-width="2" />
<path d="M1682,840 L943,2957" stroke="blue" stroke-width="2" />
<path d="M3362,2242 L1711,2829" stroke="blue" stroke-width="2" />
<path d="M2008,1875 L1800,1696" stroke="blue" stroke-width="2" />
<path d="M4362,742 L3527,1524" stroke="blue" stroke-width="2" />
<path d="M1674,1866 L5044,2689" stroke="blue" stroke-width="2" />
<path d="M1224,2143 L4246,129" stroke="blue" stroke-width="2" />
<path d="M3743,2215 L3197,1973" stroke="blue" stroke-width="2" />
<path d="M1294,3056 L6103,2951" stroke="blue" stroke-width="2" />
<path d="M3303,1287 L5268,2374" stroke="blue" stroke-width="2" />
<path d="M45,492 L6631,299" stroke="blue" stroke-width="2" />
<path d="M6209,1514 L563,1347" stroke="blue" stroke-width="2" />
<path d="M4085,1222 L643,1584" stroke="blue" stroke-width="2" />
<path d="M2291,935 L6314,2376" stroke="blue" stroke-width="2" />
<path d="M268,2521 L3476,1415" stroke="blue" stroke-width="2" />
<path d="M3880,1602 L5933,1151" stroke="blue" stroke-width="2" />
<path d="M2775,2535 L1359,1269" stroke="blue" stroke-width="2" />
<path d="M4741,2712 L2428,1335" stroke="blue" stroke-width="2" />
<path d="M2345,363 L1555,2722" stroke="blue" stroke-width="2" />
<path d="M5136,110 L6520,1583" stroke="blue" stroke-width="2" />
<path d="M1389,963 L5656,207" stroke="blue" stroke-width="2" />
<path d="M4797,2645 L286,2895" stroke="blue" stroke-width="2" />
<path d="M4127,1321 L3707,222" stroke="blue" stroke-width="2" />
<path d="M2564,2295 L4811,1181" stroke="blue" stroke-width="2" />
<path d="M1150,186 L1873,221" stroke="blue" stroke-width="2" />
<path d="M1697,2684 L4395,58" stroke="blue" stroke-width="2" />
<path d="M3373,2091 L3836,2753" stroke="blue" stroke-width="2" />
<path d="M3198,725 L3199,734" stroke="blue" stroke-width="2" />
<path d="M3721,1976 L4326,993" stroke="blue" stroke-width="2" />
<path d="M1989,2821 L1698,2678" stroke="blue" stroke-width="2" />
<path d="M657,1142 L5916,2892" stroke="blue" stroke-width="2" />
<path d="M5119,1315 L4723,1893" stroke="blue" stroke-width="2" />
<path d="M3809,2013 L1233,1856" stroke="blue" stroke-width="2" />
<path d="M4143,1726 L3171,1061" stroke="blue" stroke-width="2" />
<path d="M6196,1495 L294,527" stroke="blue" stroke-width="2" />
<path d="M5588,2722 L2546,1568" stroke="blue" stroke-width="2" />
<path d="M3988,1710 L6419,2778" stroke="blue" stroke-width="2" />
<path d="M4655,2074 L2544,2355" stroke="blue" stroke-width="2" />
<path d="M6435,514 L3068,712" stroke="blue" stroke-width="2" />
<path d="M154,266 L4372,1996" stroke="blue" stroke-width="2" />
<path d="M5409,1068 L5047,1224" stroke="blue" stroke-width="2" />
<path d="M4676,2634 L957,1550" stroke="blue" stroke-width="2" />
<path d="M5818,1710 L5059,1345" stroke="blue" stroke-width="2" />
<path d="M3920,934 L2828,2176" stroke="blue" stroke-width="2" />
<path d="M608,142 L4699,1825" stroke="blue" stroke-width="2" />
<path d="M5399,2905 L1341,2365" stroke="blue" stroke-width="2" />
<path d="M506,153 L1238,2200" stroke="blue" stroke-width="2" />
<path d="M3099,652 L2469,3019" stroke="blue" stroke-width="2" />
<path d="M623,1685 L5424,1345" stroke="blue" stroke-width="2" />
<path d="M3331,2686 L2799,1083" stroke="blue" stroke-width="2" />
<path d="M2679,1077 L235,149" stroke="blue" stroke-width="2" />
<path d="M1673,1141 L216,1778" stroke="blue" stroke-width="2" />
<path d="M3467,1347 L1370,1561" stroke="blue" stroke-width="2" />
<path d="M2658,2721 L1514,205" stroke="blue" stroke-width="2" />
<path d="M2831,2436 L2422,1442" stroke="blue" stroke-width="2" />
<path d="M5798,2840 L1281,3010" stroke="blue" stroke-width="2" />
<path d="M4645,2382 L2988,34" stroke="blue" stroke-width="2" />
<path d="M5522,528 L2590,2491" stroke="blue" stroke-width="2" />
<path d="M2330,2838 L1865,1821" stroke="blue" stroke-width="2" />
<path d="M5178,1633 L4525,825" stroke="blue" stroke-width="2" />
<path d="M3113,1474 L56,436" stroke="blue" stroke-width="2" />
<path d="M96,2560 L5808,2850" stroke="blue" stroke-width="2" />
<path d="M4126,1191 L2331,1822" stroke="blue" stroke-width="2" />
<path d="M2262,2064 L6307,475" stroke="blue" stroke-width="2" />
<path d="M5290,2565 L6282,176" stroke="blue" stroke-width="2" />
<path d="M715,516 L2625,2631" stroke="blue" stroke-width="2" />
<path d="M1541,503 L3940,1291" stroke="blue" stroke-width="2" />
<path d="M3614,755 L854,1588" stroke="blue" stroke-width="2" />
<path d="M5620,2438 L3867,2187" stroke="blue" stroke-width="2" />
<path d="M6591,2968 L2914,1688" stroke="blue" stroke-width="2" />
<path d="M4093,320 L5599,947" stroke="blue" stroke-width="2" />
<path d="M6206,2648 L5356,388" stroke="blue" stroke-width="2" />
<path d="M3931,3051 L43,684" stroke="blue" stroke-width="2" />
<path d="M79,2803 L3011,1126" stroke="blue" stroke-width="2" />
<path d="M3760,741 L5585,211" stroke="blue" stroke-width="2" />
<path d="M5129,1416 L4037,1585" stroke="blue" stroke-width="2" />
<path d="M1321,1139 L1338,2162" stroke="blue" stroke-width="2" />
<path d="M3637,3002 L3852,673" stroke="blue" stroke-width="2" />
<path d="M3099,1891 L1384,1361" stroke="blue" stroke-width="2" />
<path d="M5636,1897 L1952,212" stroke="blue" stroke-width="2" />
<path d="M4808,3024 L5315,3027" stroke="blue" stroke-width="2" />
<path d="M6509,1456 L5946,2031" stroke="blue" stroke-width="2" />
<path d="M134,2638 L1275,2452" stroke="blue" stroke-width="2" />
<path d="M1598,2827 L5837,2506" stroke="blue" stroke-width="2" />
<path d="M491,1672 L5852,3011" stroke="blue" stroke-width="2" />
<path d="M694,2459 L2911,2528" stroke="blue" stroke-width="2" />
<path d="M6280,557 L2260,1675" stroke="blue" stroke-width="2" />
<path d="M5441,2266 L1275,1316" stroke="blue" stroke-width="2" />
<path d="M653,2008 L4590,1051" stroke="blue" stroke-width="2" />
<path d="M815,190 L4517,502" stroke="blue" stroke-width="2" />
<path d="M2365,1827 L2241,2920" stroke="blue" stroke-width="2" />
<path d="M2917,2039 L257,1763" stroke="blue" stroke-width="2" />
<path d="M5217,982 L1935,1166" stroke="blue" stroke-width="2" />
<path d="M5457,2357 L2632,1597" stroke="blue" stroke-width="2" />
<path d="M5447,1133 L390,2110" stroke="blue" stroke-width="2" />
<path d="M1039,2138 L3737,3041" stroke="blue" stroke-width="2" />
<path d="M3897,2228 L5594,1504" stroke="blue" stroke-width="2" />
<path d="M2025,820 L3844,951" stroke="blue" stroke-width="2" />
<path d="M2739,5 L2480,962" stroke="blue" stroke-width="2" />
<path d="M123,2561 L2142,2245" stroke="blue" stroke-width="2" />
<path d="M5226,227 L1289,2634" stroke="blue" stroke-width="2" />
<path d="M3352,1604 L1060,2927" stroke="blue" stroke-width="2" />
<path d="M5512,717 L6352,1130" stroke="blue" stroke-width="2" />
<path d="M436,1495 L3862,2603" stroke="blue" stroke-width="2" />
<path d="M4953,2788 L2753,3025" stroke="blue" stroke-width="2" />
<path d="M1616,1227 L4689,1056" stroke="blue" stroke-width="2" />
<path d="M4468,2578 L245,1255" stroke="blue" stroke-width="2" />
<path d="M6213,2658 L1741,3006" stroke="blue" stroke-width="2" />
<path d="M1607,2611 L3196,454" stroke="blue" stroke-width="2" />
<path d="M3341,2088 L5112,1048" stroke="blue" stroke-width="2" />
<path d="M4101,1997 L3296,48" stroke="blue" stroke-width="2" />
<path d="M5376,551 L6518,799" stroke="blue" stroke-width="2" />
<path d="M2640,461 L1661,2466" stroke="blue" stroke-width="2" />
<path d="M1739,130 L2174,2226" stroke="blue" stroke-width="2" />
<path d="M6279,2296 L4285,1784" stroke="blue" stroke-width="2" />
<path d="M3109,1956 L5162,1711" stroke="blue" stroke-width="2" />
<path d="M5594,250 L3276,1580" stroke="blue" stroke-width="2" />
<path d="M6507,1245 L4859,1596" stroke="blue" stroke-width="2" />
<path d="M4932,2907 L6231,1465" stroke="blue" stroke-width="2" />
<path d="M492,1952 L4471,176" stroke="blue" stroke-width="2" />
<path d="M5417,1429 L5941,1314" stroke="blue" stroke-width="2" />
<path d="M3941,488 L3614,925" stroke="blue" stroke-width="2" />
<path d="M3384,1324 L3259,2827" stroke="blue" stroke-width="2" />
<path d="M4199,3034 L2321,2535" stroke="blue" stroke-width="2" />
<path d="M3377,174 L1888,2510" stroke="blue" stroke-width="2" />
<path d="M2576,2764 L5734,2653" stroke="blue" stroke-width="2" />
<path d="M5470,1042 L1511,2195" stroke="blue" stroke-width="2" />
<path d="M2334,1289 L586,1353" stroke="blue" stroke-width="2" />
<path d="M2375,2565 L1808,667" stroke="blue" stroke-width="2" />
<path d="M548,1443 L3497,938" stroke="blue" stroke-width="2" />
<path d="M2187,692 L458,1287" stroke="blue" stroke-width="2" />
<path d="M5249,2266 L3158,303" stroke="blue" stroke-width="2" />
<path d="M1899,1710 L2010,1735" stroke="blue" stroke-width="2" />
<path d="M1001,2070 L2931,2865" stroke="blue" stroke-width="2" />
<path d="M5738,2831 L5759,1339" stroke="blue" stroke-width="2" />
<path d="M5354,846 L2403,1429" stroke="blue" stroke-width="2" />
<path d="M2239,1319 L2335,1825" stroke="blue" stroke-width="2" />
<path d="M2903,106 L4189,1004" stroke="blue" stroke-width="2" />
<path d="M5873,1097 L2119,1378" stroke="blue" stroke-width="2" />
<path d="M4843,900 L4144,1928" stroke="blue" stroke-width="2" />
<path d="M5013,2120 L6451,1456" stroke="blue" stroke-width="2" />
<path d="M3102,2132 L4989,1096" stroke="blue" stroke-width="2" />
<path d="M5630,1154 L5443,2850" stroke="blue" stroke-width="2" />
<path d="M2035,679 L2089,2958" stroke="blue" stroke-width="2" />
<path d="M4218,832 L4299,2991" stroke="blue" stroke-width="2" />
<path d="M3143,566 L912,519" stroke="blue" stroke-width="2" />
<path d="M4405,156 L4181,1225" stroke="blue" stroke-width="2" />
<path d="M3822,995 L1366,1889" stroke="blue" stroke-width="2" />
<path d="M4302,583 L43,3015" stroke="blue" stroke-width="2" />
<path d="M1387,1044 L6263,1065" stroke="blue" stroke-width="2" />
<path d="M3053,3044 L1814,2636" stroke="blue" stroke-width="2" />
<path d="M5617,1723 L3752,410" stroke="blue" stroke-width="2" />
<path d="M1479,1925 L4330,870" stroke="blue" stroke-width="2" />
<path d="M5052,898 L5980,2423" stroke="blue" stroke-width="2" />
<path d="M4509,1001 L1495,215" stroke="blue" stroke-width="2" />
<path d="M1560,2402 L4548,961" stroke="blue" stroke-width="2" />
<path d="M2828,1089 L1670,1494" stroke="blue" stroke-width="2" />
<path d="M4389,2502 L771,1679" stroke="blue" stroke-width="2" />
<path d="M3791,2251 L1132,165" stroke="blue" stroke-width="2" />
<path d="M3707,851 L4061,2203" stroke="blue" stroke-width="2" />
<path d="M4035,870 L3847,2006" stroke="blue" stroke-width="2" />
<path d="M1895,2772 L3240,1093" stroke="blue" stroke-width="2" />
<path d="M6165,2967 L2528,1241" stroke="blue" stroke-width="2" />
<path d="M560,1549 L5491,2018" stroke="blue" stroke-width="2" />
<path d="M3670,2325 L40,889" stroke="blue" stroke-width="2" />
<path d="M1097,1328 L95,1418" stroke="blue" stroke-width="2" />
<path d="M2163,786 L191,632" stroke="blue" stroke-width="2" />
<path d="M951,2605 L859,1108" stroke="blue" stroke-width="2" />
<path d="M3532,1506 L3806,2334" stroke="blue" stroke-width="2" />
<path d="M6570,242 L3692,590" stroke="blue" stroke-width="2" />
<path d="M5174,3031 L5510,2866" stroke="blue" stroke-width="2" />
<path d="M6241,677 L6266,2573" stroke="blue" stroke-width="2" />
<path d="M6574,336 L2,989" stroke="blue" stroke-width="2" />
<path d="M784,1747 L4805,67" stroke="blue" stroke-width="2" />
<path d="M2237,785 L5437,638" stroke="blue" stroke-width="2" />
<path d="M4201,1946 L5297,14" stroke="blue" stroke-width="2" />
<path d="M2311,1565 L2292,2855" stroke="blue" stroke-width="2" />
<path d="M1051,1199 L5707,543" stroke="blue" stroke-width="2" />
<path d="M2664,2775 L4162,1249" stroke="blue" stroke-width="2" />
<path d="M93,1970 L4355,1735" stroke="blue" stroke-width="2" />
<path d="M1225,1830 L2573,2488" stroke="blue" stroke-width="2" />
<path d="M6320,1416 L1096,1518" stroke="blue" stroke-width="2" />
<path d="M4522,1441 L5261,1258" stroke="blue" stroke-width="2" />
<path d="M2303,840 L1462,1877" stroke="blue" stroke-width="2" />
<path d="M3497,2605 L6359,770" stroke="blue" stroke-width="2" />
<path d="M494,1183 L5567,696" stroke="blue" stroke-width="2" />
<path d="M3418,1473 L102,824" stroke="blue" stroke-width="2" />
<path d="M409,2547 L3930,575" stroke="blue" stroke-width="2" />
<path d="M4199,333 L3222,2192" stroke="blue" stroke-width="2" />
<path d="M5911,2888 L4981,1539" stroke="blue" stroke-width="2" />
<path d="M6042,503 L95,874" stroke="blue" stroke-width="2" />
<path d="M4065,1274 L5962,2508" stroke="blue" stroke-width="2" />
<path d="M3671,1985 L5142,1035" stroke="blue" stroke-width="2" />
<path d="M3454,2956 L3358,591" stroke="blue" stroke-width="2" />
<path d="M1353,1989 L4631,1895" stroke="blue" stroke-width="2" />
<path d="M1584,1673 L4806,376" stroke="blue" stroke-width="2" />
<path d="M2625,224 L1724,929" stroke="blue" stroke-width="2" />
<path d="M2026,2438 L482,3018" stroke="blue" stroke-width="2" />
<path d="M1586,597 L4954,1438" stroke="blue" stroke-width="2" />
<path d="M4203,570 L2735,46" stroke="blue" stroke-width="2" />
<path d="M5997,250 L925,2371" stroke="blue" stroke-width="2" />
<path d="M6102,173 L3012,13" stroke="blue" stroke-width="2" />
<path d="M2495,614 L3325,1306" stroke="blue" stroke-width="2" />
<path d="M6383,1593 L3270,698" stroke="blue" stroke-width="2" />
<path d="M5829,2114 L3556,719" stroke="blue" stroke-width="2" />
<path d="M4971,1839 L286,1700" stroke="blue" stroke-width="2" />
<path d="M60,2771 L323,2722" stroke="blue" stroke-width="2" />
<path d="M6421,2090 L2932,2164" stroke="blue" stroke-width="2" />
<path d="M1226,1025 L3486,414" stroke="blue" stroke-width="2" />
<path d="M5123,1399 L5843,2847" stroke="blue" stroke-width="2" />
<path d="M5940,2009 L5146,2241" stroke="blue" stroke-width="2" />
<path d="M190,621 L5340,2106" stroke="blue" stroke-width="2" />
<path d="M5543,478 L2508,1780" stroke="blue" stroke-width="2" />
<path d="M2294,3012 L4086,2834" stroke="blue" stroke-width="2" />
<path d="M5184,2829 L5468,733" stroke="blue" stroke-width="2" />
<path d="M705,559 L6022,1265" stroke="blue" stroke-width="2" />
<path d="M6249,2038 L1440,1038" stroke="blue" stroke-width="2" />
<path d="M5129,2701 L4333,2889" stroke="blue" stroke-width="2" />
<path d="M4497,1130 L3621,1329" stroke="blue" stroke-width="2" />
<path d="M1745,37 L4158,1585" stroke="blue" stroke-width="2" />
<path d="M4732,2331 L5577,2362" stroke="blue" stroke-width="2" />
<path d="M1425,763 L5317,1782" stroke="blue" stroke-width="2" />
<path d="M236,1133 L2076,173" stroke="blue" stroke-width="2" />
<path d="M4586,2165 L2436,231" stroke="blue" stroke-width="2" />
<path d="M3142,2790 L38,1128" stroke="blue" stroke-width="2" />
<path d="M2011,304 L4242,2089" stroke="blue" stroke-width="2" />
<path d="M2961,861 L6405,2558" stroke="blue" stroke-width="2" />
<path d="M4825,1113 L1725,1833" stroke="blue" stroke-width="2" />
<path d="M3700,1445 L3512,1518" stroke="blue" stroke-width="2" />
<path d="M0,0 L6635,0" stroke="red" stroke-width="10" />
<path d="M6635,0 L6635,3058" stroke="red" stroke-width="10" />
<path d="M0,3058 L6635,3058" stroke="red" stroke-width="10" />
<path d="M0,3058 L0,0" stroke="red" stroke-width="10" />
</svg>