<?xml version="1.0" encoding="UTF-8"?>
<svg xmlns="http://www.w3.org/2000/svg" xmlns:xlink="http://www.w3.org/1999/xlink"
     width="10000" height="10000" viewBox="0 0 10000 10000">
<defs>
</defs>
<path d="M1497,7671 L6057,6851" stroke="blue" stroke-width="2" />
<path d="M1026,238 L3973,1607" stroke="blue" stroke-width="2" />
<path d="M3073,3000 L448,5324" stroke="blue" stroke-width="2" />
<path d="M2136,948 L2615,3805" stroke="blue" stroke-width="2" />
<path d="M1074,511 L4507,3025" stroke="blue" stroke-width="2" />
<path d="M2144,4680 L4915,5438" stroke="blue" stroke-width="2" />
<path d="M6765,1933 L3982,499" stroke="blue" stroke-width="2" />
<path d="M5051,7528 L7360,6306" stroke="blue" stroke-width="2" />
<path d="M1975,2790 L6183,4218" stroke="blue" stroke-width="2" />
<path d="M5815,3180 L6617,4357" stroke="blue" stroke-width="2" />
<path d="M6795,6933 L487,309" stroke="blue" stroke-width="2" />
<path d="M2305,6191 L3350,7470" stroke="blue" stroke-width="2" />
<path d="M2820,5858 L553,7062" stroke="blue" stroke-width="2" />
<path d="M69,7046 L6341,2335" stroke="blue" stroke-width="2" />
<path d="M6281,6192 L775,4394" stroke="blue" stroke-width="2" />
<path d="M561,2364 L3190,3758" stroke="blue" stroke-width="2" />
<path d="M743,7974 L3004,2208" stroke="blue" stroke-width="2" />
<path d="M325,3968 L3067,7168" stroke="blue" stroke-width="2" />
<path d="M2333,4443 L2023,5570" stroke="blue" stroke-width="2" />
<path d="M6527,5950 L4501,6616" stroke="blue" stroke-width="2" />
<path d="M1973,2289 L4844,6563" stroke="blue" stroke-width="2" />
<path d="M4959,3487 L3026,820" stroke="blue" stroke-width="2" />
<path d="M6074,5518 L4230,636" stroke="blue" stroke-width="2" />
<path d="M6150,5176 L4508,3610" stroke="blue" stroke-width="2" />
<path d="M6838,4318 L5951,1617" stroke="blue" stroke-width="2" />
<path d="M4619,1036 L1456,5969" stroke="blue" stroke-width="2" />
<path d="M5783,6280 L4740,1415" stroke="blue" stroke-width="2" />
<path d="M890,2664 L3832,7281" stroke="blue" stroke-width="2" />
<path d="M1988,2965 L2983,6216" stroke="blue" stroke-width="2" />
<path d="M5828,6617 L5624,3808" stroke="blue" stroke-width="2" />
<path d="M5166,3626 L1524,5483" stroke="blue" stroke-width="2" />
<path d="M2382,4852 L387,1400" stroke="blue" stroke-width="2" />
<path d="M47,1931 L1648,2065" stroke="blue" stroke-width="2" />
<path d="M5763,2293 L462,2797" stroke="blue" stroke-width="2" />
<path d="M6600,7063 L648,5792" stroke="blue" stroke-width="2" />
<path d="M2775,945 L3603,4707" stroke="blue" stroke-width="2" />
<path d="M2869,6236 L5463,1288" stroke="blue" stroke-width="2" />
<path d="M7479,7272 L6546,1485" stroke="blue" stroke-width="2" />
<path d="M186,4392 L6247,5707" stroke="blue" stroke-width="2" />
<path d="M6359,5773 L2669,2949" stroke="blue" stroke-width="2" />
<path d="M846,7837 L3134,946" stroke="blue" stroke-width="2" />
<path d="M5782,5165 L6989,2872" stroke="blue" stroke-width="2" />
<path d="M1951,2529 L7370,1021" stroke="blue" stroke-width="2" />
<path d="M7242,648 L4285,2994" stroke="blue" stroke-width="2" />
<path d="M3880,4796 L1399,3896" stroke="blue" stroke-width="2" />
<path d="M899,6132 L1932,1020" stroke="blue" stroke-width="2" />
<path d="M4069,4452 L319,7175" stroke="blue" stroke-width="2" />
<path d="M402,2101 L6777,6093" stroke="blue" stroke-width="2" />
<path d="M2715,3740 L6507,7618" stroke="blue" stroke-width="2" />
<path d="M5547,2895 L2987,7766" stroke="blue" stroke-width="2" />
<path d="M2270,4599 L1577,1606" stroke="blue" stroke-width="2" />
<path d="M5023,6754 L6684,7181" stroke="blue" stroke-width="2" />
<path d="M5425,1351 L6570,3859" stroke="blue" stroke-width="2" />
<path d="M5622,4296 L935,5216" stroke="blue" stroke-width="2" />
<path d="M4878,5094 L7088,2873" stroke="blue" stroke-width="2" />
<path d="M1391,2213 L7201,2539" stroke="blue" stroke-width="2" />
<path d="M127,7188 L602,1282" stroke="blue" stroke-width="2" />
<path d="M3454,3194 L4830,2124" stroke="blue" stroke-width="2" />
<path d="M7183,3015 L7317,561" stroke="blue" stroke-width="2" />
<path d="M1631,3360 L712,222" stroke="blue" stroke-width="2" />
<path d="M4468,1116 L5960,7248" stroke="blue" stroke-width="2" />
<path d="M1032,5031 L654,1113" stroke="blue" stroke-width="2" />
<path d="M1219,4247 L874,6216" stroke="blue" stroke-width="2" />
<path d="M2036,5150 L4683,1019" stroke="blue" stroke-width="2" />
<path d="M3407,6492 L549,1449" stroke="blue" stroke-width="2" />
<path d="M5229,3239 L4920,2428" stroke="blue" stroke-width="2" />
<path d="M4888,6300 L3345,7560" stroke="blue" stroke-width="2" />
<path d="M4016,7960 L5762,6453" stroke="blue" stroke-width="2" />
<path d="M7466,3849 L701,6665" stroke="blue" stroke-width="2" />
<path d="M5593,3675 L2250,2515" stroke="blue" stroke-width="2" />
<path d="M2306,4322 L4118,1524" stroke="blue" stroke-width="2" />
<path d="M3913,7114 L3339,5521" stroke="blue" stroke-width="2" />
<path d="M3940,697 L2687,4329" stroke="blue" stroke-width="2" />
<path d="M3120,6363 L2082,1077" stroke="blue" stroke-width="2" />
<path d="M5067,4508 L2440,6613" stroke="blue" stroke-width="2" />
<path d="M300,4885 L6451,2794" stroke="blue" stroke-width="2" />
<path d="M4685,7975 L1120,2018" stroke="blue" stroke-width="2" />
<path d="M6111,7549 L349,2854" stroke="blue" stroke-width="2" />
<path d="M2825,4952 L3510,1043" stroke="blue" stroke-width="2" />
<path d="M664,7675 L4413,7358" stroke="blue" stroke-width="2" />
<path d="M4536,3093 L3833,2555" stroke="blue" stroke-width="2" />
<path d="M6333,301 L1894,5869" stroke="blue" stroke-width="2" />
<path d="M4030,4281 L3942,3366" stroke="blue" stroke-width="2" />
<path d="M1061,4505 L6046,441" stroke="blue" stroke-width="2" />
<path d="M317,172 L2183,2115" stroke="blue" stroke-width="2" />
<path d="M1449,6418 L7429,5124" stroke="blue" stroke-width="2" />
<path d="M6608,4862 L788,4330" stroke="blue" stroke-width="2" />
<path d="M2015,5330 L4483,2676" stroke="blue" stroke-width="2" />
<path d="M6260,1321 L1095,326" stroke="blue" stroke-width="2" />
<path d="M2511,6262 L1069,1219" stroke="blue" stroke-width="2" />
<path d="M144,931 L981,6290" stroke="blue" stroke-width="2" />
<path d="M2322,7166 L1943,2803" stroke="blue" stroke-width="2" />
<path d="M1075,1535 L3691,1500" stroke="blue" stroke-width="2" />
<path d="M4934,729 L3247,2110" stroke="blue" stroke-width="2" />
<path d="M2830,401 L7206,306" stroke="blue" stroke-width="2" />
<path d="M6912,6922 L6066,2555" stroke="blue" stroke-width="2" />
<path d="M5708,5780 L7435,667" stroke="blue" stroke-width="2" />
<path d="M5594,7435 L2412,6392" stroke="blue" stroke-width="2" />
<path d="M0,0 L7508,0" stroke="red" stroke-width="10" />
<path d="M7508,0 L7508,8023" stroke="red" stroke-width="10" />
<path d="M0,8023 L7508,8023" stroke="red" stroke-width="10" />
<path d="M0,8023 L0,0" stroke="red" stroke-width="10" />
</svg>