<?xml version="1.0" encoding="UTF-8"?>
<svg xmlns="http://www.w3.org/2000/svg" xmlns:xlink="http://www.w3.org/1999/xlink"
     width="10000" height="10000" viewBox="0 0 10000 10000">
<defs>
</defs>
<path d="M1941,223 L1042,2251" stroke="blue" stroke-width="2" />
<path d="M1851,3125 L4640,305" stroke="blue" stroke-width="2" />
<path d="M1247,2266 L2947,3332" stroke="blue" stroke-width="2" />
<path d="M1927,2274 L1745,418" stroke="blue" stroke-width="2" />
<path d="M4293,1670 L2293,800" stroke="blue" stroke-width="2" />
<path d="M4072,1363 L1342,1757" stroke="blue" stroke-width="2" />
<path d="M3025,1637 L4862,2804" stroke="blue" stroke-width="2" />
<path d="M4234,125 L2348,1086" stroke="blue" stroke-width="2" />
<path d="M1972,2525 L1800,1926" stroke="blue" stroke-width="2" />
<path d="M3710,1832 L97,2133" stroke="blue" stroke-width="2" />
<path d="M4916,1394 L1579,3133" stroke="blue" stroke-width="2" />
<path d="M1787,2156 L1580,328" stroke="blue" stroke-width="2" />
<path d="M3513,1127 L2206,2798" stroke="blue" stroke-width="2" />
<path d="M3777,1375 L1111,760" stroke="blue" stroke-width="2" />
<path d="M4475,1141 L373,3431" stroke="blue" stroke-width="2" />
<path d="M1259,2389 L993,193" stroke="blue" stroke-width="2" />
<path d="M2124,2047 L283,1660" stroke="blue" stroke-width="2" />
<path d="M4453,2624 L161,2976" stroke="blue" stroke-width="2" />
<path d="M3116,521 L2269,676" stroke="blue" stroke-width="2" />
<path d="M3131,2332 L708,673" stroke="blue" stroke-width="2" />
<path d="M4751,1757 L4686,45" stroke="blue" stroke-width="2" />
<path d="M3488,2195 L3617,3117" stroke="blue" stroke-width="2" />
<path d="M4330,3020 L406,3089" stroke="blue" stroke-width="2" />
<path d="M622,2863 L1016,3025" stroke="blue" stroke-width="2" />
<path d="M2389,593 L1539,2754" stroke="blue" stroke-width="2" />
<path d="M600,1843 L1788,1438" stroke="blue" stroke-width="2" />
<path d="M3815,332 L4561,2802" stroke="blue" stroke-width="2" />
<path d="M3664,1700 L1006,376" stroke="blue" stroke-width="2" />
<path d="M510,387 L822,3491" stroke="blue" stroke-width="2" />
<path d="M2373,1025 L3773,2912" stroke="blue" stroke-width="2" />
<path d="M2614,3104 L286,528" stroke="blue" stroke-width="2" />
<path d="M3849,3229 L1765,3180" stroke="blue" stroke-width="2" />
<path d="M1115,93 L268,1133" stroke="blue" stroke-width="2" />
<path d="M4364,2492 L2947,2918" stroke="blue" stroke-width="2" />
<path d="M45,2129 L3036,2927" stroke="blue" stroke-width="2" />
<path d="M143,170 L1329,2019" stroke="blue" stroke-width="2" />
<path d="M3397,870 L497,3127" stroke="blue" stroke-width="2" />
<path d="M3335,1351 L1223,2381" stroke="blue" stroke-width="2" />
<path d="M846,1839 L4571,2393" stroke="blue" stroke-width="2" />
<path d="M2686,1543 L891,2940" stroke="blue" stroke-width="2" />
<path d="M501,1487 L4734,2715" stroke="blue" stroke-width="2" />
<path d="M948,2787 L3062,1152" stroke="blue" stroke-width="2" />
<path d="M1071,328 L2388,2791" stroke="blue" stroke-width="2" />
<path d="M4242,3105 L896,2597" stroke="blue" stroke-width="2" />
<path d="M2039,2067 L4631,1046" stroke="blue" stroke-width="2" />
<path d="M3483,3420 L3427,3516" stroke="blue" stroke-width="2" />
<path d="M1438,2243 L163,2060" stroke="blue" stroke-width="2" />
<path d="M3578,1775 L2415,2284" stroke="blue" stroke-width="2" />
<path d="M2937,757 L110,752" stroke="blue" stroke-width="2" />
<path d="M3131,3241 L4920,1596" stroke="blue" stroke-width="2" />
<path d="M2147,693 L3495,793" stroke="blue" stroke-width="2" />
<path d="M730,960 L4383,818" stroke="blue" stroke-width="2" />
<path d="M3161,363 L3071,3190" stroke="blue" stroke-width="2" />
<path d="M2910,2951 L4490,474" stroke="blue" stroke-width="2" />
<path d="M2865,1667 L3439,2179" stroke="blue" stroke-width="2" />
<path d="M4090,366 L1202,1649" stroke="blue" stroke-width="2" />
<path d="M1264,3027 L1131,1761" stroke="blue" stroke-width="2" />
<path d="M3848,2228 L2649,601" stroke="blue" stroke-width="2" />
<path d="M20,2975 L3699,1340" stroke="blue" stroke-width="2" />
<path d="M5054,363 L1434,2526" stroke="blue" stroke-width="2" />
<path d="M2133,1947 L1665,886" stroke="blue" stroke-width="2" />
<path d="M1398,779 L755,1319" stroke="blue" stroke-width="2" />
<path d="M2638,1852 L868,1230" stroke="blue" stroke-width="2" />
<path d="M4952,821 L1011,89" stroke="blue" stroke-width="2" />
<path d="M3666,3140 L1285,1876" stroke="blue" stroke-width="2" />
<path d="M1867,312 L4457,3108" stroke="blue" stroke-width="2" />
<path d="M3716,2914 L1802,438" stroke="blue" stroke-width="2" />
<path d="M262,3295 L2441,502" stroke="blue" stroke-width="2" />
<path d="M2847,241 L2042,2234" stroke="blue" stroke-width="2" />
<path d="M2205,629 L2034,3413" stroke="blue" stroke-width="2" />
<path d="M147,2689 L4804,1426" stroke="blue" stroke-width="2" />
<path d="M3368,949 L3680,2998" stroke="blue" stroke-width="2" />
<path d="M4967,3195 L3590,2256" stroke="blue" stroke-width="2" />
<path d="M162,1761 L3428,3416" stroke="blue" stroke-width="2" />
<path d="M3274,294 L72,49" stroke="blue" stroke-width="2" />
<path d="M4999,2065 L3254,2139" stroke="blue" stroke-width="2" />
<path d="M2164,1971 L1812,2864" stroke="blue" stroke-width="2" />
<path d="M2381,2995 L4759,2280" stroke="blue" stroke-width="2" />
<path d="M3440,1054 L2809,446" stroke="blue" stroke-width="2" />
<path d="M1186,27 L2878,2292" stroke="blue" stroke-width="2" />
<path d="M2157,3091 L3764,1619" stroke="blue" stroke-width="2" />
<path d="M4114,3366 L1081,2402" stroke="blue" stroke-width="2" />
<path d="M174,1221 L959,863" stroke="blue" stroke-width="2" />
<path d="M3810,1477 L4443,1113" stroke="blue" stroke-width="2" />
<path d="M4464,2709 L4523,2510" stroke="blue" stroke-width="2" />
<path d="M3366,1 L1767,594" stroke="blue" stroke-width="2" />
<path d="M1994,617 L3709,3337" stroke="blue" stroke-width="2" />
<path d="M3387,1759 L1397,120" stroke="blue" stroke-width="2" />
<path d="M2444,3121 L327,281" stroke="blue" stroke-width="2" />
<path d="M1299,928 L3536,324" stroke="blue" stroke-width="2" />
<path d="M4187,1020 L1040,567" stroke="blue" stroke-width="2" />
<path d="M1717,1263 L3432,1822" stroke="blue" stroke-width="2" />
<path d="M4574,581 L2836,930" stroke="blue" stroke-width="2" />
<path d="M958,1212 L733,3051" stroke="blue" stroke-width="2" />
<path d="M956,3185 L4307,530" stroke="blue" stroke-width="2" />
<path d="M432,1136 L3785,3362" stroke="blue" stroke-width="2" />
<path d="M4063,1853 L3532,1856" stroke="blue" stroke-width="2" />
<path d="M4021,2776 L4399,3156" stroke="blue" stroke-width="2" />
<path d="M2670,2506 L4837,578" stroke="blue" stroke-width="2" />
<path d="M492,2982 L4464,462" stroke="blue" stroke-width="2" />
<path d="M1505,1431 L1157,3096" stroke="blue" stroke-width="2" />
<path d="M4503,270 L51,643" stroke="blue" stroke-width="2" />
<path d="M5013,555 L3591,2356" stroke="blue" stroke-width="2" />
<path d="M1599,322 L2056,2661" stroke="blue" stroke-width="2" />
<path d="M2445,1816 L2680,23" stroke="blue" stroke-width="2" />
<path d="M963,3155 L3201,1686" stroke="blue" stroke-width="2" />
<path d="M3053,1088 L2120,124" stroke="blue" stroke-width="2" />
<path d="M4056,3324 L3166,3265" stroke="blue" stroke-width="2" />
<path d="M3495,2631 L219,1879" stroke="blue" stroke-width="2" />
<path d="M1042,2793 L1997,2116" stroke="blue" stroke-width="2" />
<path d="M3373,58 L3813,601" stroke="blue" stroke-width="2" />
<path d="M121,1854 L4430,2119" stroke="blue" stroke-width="2" />
<path d="M4461,1436 L319,1803" stroke="blue" stroke-width="2" />
<path d="M1130,2285 L4817,992" stroke="blue" stroke-width="2" />
<path d="M2765,972 L4403,153" stroke="blue" stroke-width="2" />
<path d="M2934,1555 L1147,638" stroke="blue" stroke-width="2" />
<path d="M424,379 L4614,530" stroke="blue" stroke-width="2" />
<path d="M3661,2553 L3792,2160" stroke="blue" stroke-width="2" />
<path d="M1030,705 L2862,2849" stroke="blue" stroke-width="2" />
<path d="M3643,1266 L3979,1791" stroke="blue" stroke-width="2" />
<path d="M4468,749 L1461,2148" stroke="blue" stroke-width="2" />
<path d="M4204,262 L796,1659" stroke="blue" stroke-width="2" />
<path d="M0,0 L5065,0" stroke="red" stroke-width="10" />
<path d="M5065,0 L5065,3542" stroke="red" stroke-width="10" />
<path d="M0,3542 L5065,3542" stroke="red" stroke-width="10" />
<path d="M0,3542 L0,0" stroke="red" stroke-width="10" />
</svg>