<?xml version="1.0" encoding="UTF-8"?>
<svg xmlns="http://www.w3.org/2000/svg" xmlns:xlink="http://www.w3.org/1999/xlink"
     width="10000" height="10000" viewBox="0 0 10000 10000">
<defs>
</defs>
<path d="M81,1379 L2085,2666" stroke="blue" stroke-width="2" />
<path d="M735,4944 L1535,1792" stroke="blue" stroke-width="2" />
<path d="M4049,2959 L1338,5243" stroke="blue" stroke-width="2" />
<path d="M4725,4967 L4645,1393" stroke="blue" stroke-width="2" />
<path d="M4393,4455 L3613,5370" stroke="blue" stroke-width="2" />
<path d="M3704,153 L3884,2513" stroke="blue" stroke-width="2" />
<path d="M1739,3128 L4596,3645" stroke="blue" stroke-width="2" />
<path d="M1212,5851 L3916,5995" stroke="blue" stroke-width="2" />
<path d="M38,1582 L4969,3567" stroke="blue" stroke-width="2" />
<path d="M2229,2342 L2310,4373" stroke="blue" stroke-width="2" />
<path d="M2267,1424 L3064,5463" stroke="blue" stroke-width="2" />
<path d="M4045,600 L808,4790" stroke="blue" stroke-width="2" />
<path d="M85,265 L4678,5694" stroke="blue" stroke-width="2" />
<path d="M3210,2368 L4961,5774" stroke="blue" stroke-width="2" />
<path d="M4904,5955 L3866,1762" stroke="blue" stroke-width="2" />
<path d="M998,5695 L1123,5835" stroke="blue" stroke-width="2" />
<path d="M268,4997 L1287,389" stroke="blue" stroke-width="2" />
<path d="M935,4939 L2701,1897" stroke="blue" stroke-width="2" />
<path d="M349,4996 L733,2972" stroke="blue" stroke-width="2" />
<path d="M3409,805 L1812,4850" stroke="blue" stroke-width="2" />
<path d="M4025,2838 L3178,5941" stroke="blue" stroke-width="2" />
<path d="M4423,602 L4242,974" stroke="blue" stroke-width="2" />
<path d="M720,2043 L1343,2138" stroke="blue" stroke-width="2" />
<path d="M1508,3944 L1769,5267" stroke="blue" stroke-width="2" />
<path d="M3764,782 L534,1342" stroke="blue" stroke-width="2" />
<path d="M3394,6311 L2416,2716" stroke="blue" stroke-width="2" />
<path d="M2275,1143 L2118,1917" stroke="blue" stroke-width="2" />
<path d="M3453,816 L1490,1006" stroke="blue" stroke-width="2" />
<path d="M2711,1414 L1426,5290" stroke="blue" stroke-width="2" />
<path d="M4940,464 L1283,1006" stroke="blue" stroke-width="2" />
<path d="M4690,524 L122,1664" stroke="blue" stroke-width="2" />
<path d="M4888,6205 L4573,6114" stroke="blue" stroke-width="2" />
<path d="M2261,3257 L2386,102" stroke="blue" stroke-width="2" />
<path d="M4986,131 L1383,5579" stroke="blue" stroke-width="2" />
<path d="M1214,3348 L3879,1958" stroke="blue" stroke-width="2" />
<path d="M2552,6287 L1479,1631" stroke="blue" stroke-width="2" />
<path d="M625,5192 L1578,4171" stroke="blue" stroke-width="2" />
<path d="M4140,549 L2874,2518" stroke="blue" stroke-width="2" />
<path d="M172,4484 L3244,5671" stroke="blue" stroke-width="2" />
<path d="M2250,4877 L3843,6091" stroke="blue" stroke-width="2" />
<path d="M2093,5129 L218,2105" stroke="blue" stroke-width="2" />
<path d="M1628,2568 L1094,2333" stroke="blue" stroke-width="2" />
<path d="M477,1403 L2760,1965" stroke="blue" stroke-width="2" />
<path d="M1054,3144 L1328,4558" stroke="blue" stroke-width="2" />
<path d="M322,2389 L2145,4876" stroke="blue" stroke-width="2" />
<path d="M1184,4278 L163,5599" stroke="blue" stroke-width="2" />
<path d="M3001,837 L1549,95" stroke="blue" stroke-width="2" />
<path d="M1499,1378 L2694,313" stroke="blue" stroke-width="2" />
<path d="M92,2747 L4598,1189" stroke="blue" stroke-width="2" />
<path d="M4422,2678 L1597,5503" stroke="blue" stroke-width="2" />
<path d="M2302,1772 L990,3822" stroke="blue" stroke-width="2" />
<path d="M2604,5887 L4812,679" stroke="blue" stroke-width="2" />
<path d="M4527,4537 L2019,5494" stroke="blue" stroke-width="2" />
<path d="M4753,1055 L86,5375" stroke="blue" stroke-width="2" />
<path d="M4410,1268 L932,4054" stroke="blue" stroke-width="2" />
<path d="M4059,3613 L217,1044" stroke="blue" stroke-width="2" />
<path d="M4720,1280 L3379,2472" stroke="blue" stroke-width="2" />
<path d="M4390,1428 L1014,3623" stroke="blue" stroke-width="2" />
<path d="M1773,2711 L4815,2415" stroke="blue" stroke-width="2" />
<path d="M3347,4753 L740,641" stroke="blue" stroke-width="2" />
<path d="M729,5306 L1445,5217" stroke="blue" stroke-width="2" />
<path d="M1965,1239 L1322,2734" stroke="blue" stroke-width="2" />
<path d="M1279,5675 L3579,3205" stroke="blue" stroke-width="2" />
<path d="M2432,5590 L3465,751" stroke="blue" stroke-width="2" />
<path d="M4542,2855 L4612,2065" stroke="blue" stroke-width="2" />
<path d="M2016,3169 L2811,3943" stroke="blue" stroke-width="2" />
<path d="M1511,3181 L3992,4165" stroke="blue" stroke-width="2" />
<path d="M4698,4941 L4136,4487" stroke="blue" stroke-width="2" />
<path d="M527,275 L4443,138" stroke="blue" stroke-width="2" />
<path d="M191,785 L437,1576" stroke="blue" stroke-width="2" />
<path d="M519,4449 L229,185" stroke="blue" stroke-width="2" />
<path d="M661,5359 L2902,4074" stroke="blue" stroke-width="2" />
<path d="M3904,3516 L1738,3188" stroke="blue" stroke-width="2" />
<path d="M1508,2667 L4526,2288" stroke="blue" stroke-width="2" />
<path d="M855,4738 L3182,2211" stroke="blue" stroke-width="2" />
<path d="M2929,5362 L4297,3827" stroke="blue" stroke-width="2" />
<path d="M2237,4620 L4521,2326" stroke="blue" stroke-width="2" />
<path d="M2259,418 L166,4731" stroke="blue" stroke-width="2" />
<path d="M2239,1612 L1926,3229" stroke="blue" stroke-width="2" />
<path d="M1162,1095 L582,4375" stroke="blue" stroke-width="2" />
<path d="M2600,17 L4243,6288" stroke="blue" stroke-width="2" />
<path d="M3853,2328 L526,4829" stroke="blue" stroke-width="2" />
<path d="M1394,5515 L406,580" stroke="blue" stroke-width="2" />
<path d="M3098,3566 L3256,6087" stroke="blue" stroke-width="2" />
<path d="M4146,6093 L746,5267" stroke="blue" stroke-width="2" />
<path d="M68,3586 L709,2715" stroke="blue" stroke-width="2" />
<path d="M431,996 L3469,4256" stroke="blue" stroke-width="2" />
<path d="M2146,2380 L526,4172" stroke="blue" stroke-width="2" />
<path d="M2406,3248 L268,3259" stroke="blue" stroke-width="2" />
<path d="M2687,3052 L3778,1988" stroke="blue" stroke-width="2" />
<path d="M2847,5940 L1526,5720" stroke="blue" stroke-width="2" />
<path d="M1689,3156 L4227,3841" stroke="blue" stroke-width="2" />
<path d="M672,2486 L3807,5609" stroke="blue" stroke-width="2" />
<path d="M4451,2695 L828,4759" stroke="blue" stroke-width="2" />
<path d="M1362,736 L709,662" stroke="blue" stroke-width="2" />
<path d="M1273,5944 L2463,5549" stroke="blue" stroke-width="2" />
<path d="M1011,4891 L1949,1091" stroke="blue" stroke-width="2" />
<path d="M67,6184 L2963,408" stroke="blue" stroke-width="2" />
<path d="M1442,4257 L2386,1152" stroke="blue" stroke-width="2" />
<path d="M4098,1253 L3949,1495" stroke="blue" stroke-width="2" />
<path d="M1092,5265 L3979,5591" stroke="blue" stroke-width="2" />
<path d="M2985,942 L3458,5346" stroke="blue" stroke-width="2" />
<path d="M2575,808 L1326,1213" stroke="blue" stroke-width="2" />
<path d="M3396,3869 L3937,1854" stroke="blue" stroke-width="2" />
<path d="M4531,104 L3146,1155" stroke="blue" stroke-width="2" />
<path d="M1886,217 L1289,561" stroke="blue" stroke-width="2" />
<path d="M2717,3677 L4910,3565" stroke="blue" stroke-width="2" />
<path d="M1306,2725 L1191,4469" stroke="blue" stroke-width="2" />
<path d="M4231,1409 L2575,1112" stroke="blue" stroke-width="2" />
<path d="M3029,4341 L3107,3335" stroke="blue" stroke-width="2" />
<path d="M4073,88 L3484,3449" stroke="blue" stroke-width="2" />
<path d="M4563,2577 L1587,4181" stroke="blue" stroke-width="2" />
<path d="M114,2204 L1344,1520" stroke="blue" stroke-width="2" />
<path d="M4589,3878 L2559,1207" stroke="blue" stroke-width="2" />
<path d="M3001,4738 L3936,4883" stroke="blue" stroke-width="2" />
<path d="M3224,2126 L3626,4480" stroke="blue" stroke-width="2" />
<path d="M2716,961 L3814,4044" stroke="blue" stroke-width="2" />
<path d="M126,1758 L3889,695" stroke="blue" stroke-width="2" />
<path d="M1306,2685 L2156,2721" stroke="blue" stroke-width="2" />
<path d="M1852,6135 L1704,419" stroke="blue" stroke-width="2" />
<path d="M4340,3706 L4486,2699" stroke="blue" stroke-width="2" />
<path d="M4140,3613 L1306,2429" stroke="blue" stroke-width="2" />
<path d="M4459,665 L149,4975" stroke="blue" stroke-width="2" />
<path d="M3743,5641 L4591,6191" stroke="blue" stroke-width="2" />
<path d="M2681,1172 L3015,4169" stroke="blue" stroke-width="2" />
<path d="M3237,4677 L1611,4037" stroke="blue" stroke-width="2" />
<path d="M1660,4699 L2172,5381" stroke="blue" stroke-width="2" />
<path d="M3661,4335 L4925,1765" stroke="blue" stroke-width="2" />
<path d="M2840,2801 L395,838" stroke="blue" stroke-width="2" />
<path d="M2711,2123 L2561,3361" stroke="blue" stroke-width="2" />
<path d="M3836,4607 L3519,3089" stroke="blue" stroke-width="2" />
<path d="M1750,4247 L257,380" stroke="blue" stroke-width="2" />
<path d="M1139,3834 L671,3137" stroke="blue" stroke-width="2" />
<path d="M1085,4602 L2045,3013" stroke="blue" stroke-width="2" />
<path d="M583,4055 L4525,414" stroke="blue" stroke-width="2" />
<path d="M2487,2589 L122,3981" stroke="blue" stroke-width="2" />
<path d="M4549,2469 L2093,379" stroke="blue" stroke-width="2" />
<path d="M2429,1392 L237,4621" stroke="blue" stroke-width="2" />
<path d="M228,1673 L4227,4791" stroke="blue" stroke-width="2" />
<path d="M3819,3731 L2942,4650" stroke="blue" stroke-width="2" />
<path d="M4847,3232 L4452,785" stroke="blue" stroke-width="2" />
<path d="M4117,1951 L1503,877" stroke="blue" stroke-width="2" />
<path d="M3190,2723 L2135,310" stroke="blue" stroke-width="2" />
<path d="M2641,699 L1918,4096" stroke="blue" stroke-width="2" />
<path d="M3119,2278 L4278,1202" stroke="blue" stroke-width="2" />
<path d="M3879,5471 L2069,532" stroke="blue" stroke-width="2" />
<path d="M1460,4943 L3206,6076" stroke="blue" stroke-width="2" />
<path d="M4988,5743 L559,3000" stroke="blue" stroke-width="2" />
<path d="M2380,2959 L597,3831" stroke="blue" stroke-width="2" />
<path d="M767,5057 L2092,5948" stroke="blue" stroke-width="2" />
<path d="M4593,5500 L1340,3044" stroke="blue" stroke-width="2" />
<path d="M3170,4259 L4800,5425" stroke="blue" stroke-width="2" />
<path d="M3954,2916 L401,3033" stroke="blue" stroke-width="2" />
<path d="M4112,2890 L4944,1753" stroke="blue" stroke-width="2" />
<path d="M4755,5923 L657,2948" stroke="blue" stroke-width="2" />
<path d="M4648,3829 L1176,617" stroke="blue" stroke-width="2" />
<path d="M3476,725 L38,2807" stroke="blue" stroke-width="2" />
<path d="M4615,4842 L3958,3057" stroke="blue" stroke-width="2" />
<path d="M1606,5092 L545,1144" stroke="blue" stroke-width="2" />
<path d="M4867,800 L1310,406" stroke="blue" stroke-width="2" />
<path d="M4579,2256 L866,2623" stroke="blue" stroke-width="2" />
<path d="M283,447 L4906,1793" stroke="blue" stroke-width="2" />
<path d="M1383,4405 L1073,1803" stroke="blue" stroke-width="2" />
<path d="M1217,3704 L3886,786" stroke="blue" stroke-width="2" />
<path d="M3060,3297 L2678,414" stroke="blue" stroke-width="2" />
<path d="M3176,3901 L1208,1804" stroke="blue" stroke-width="2" />
<path d="M4598,5709 L3401,3910" stroke="blue" stroke-width="2" />
<path d="M3037,3562 L913,2098" stroke="blue" stroke-width="2" />
<path d="M3482,164 L3990,3737" stroke="blue" stroke-width="2" />
<path d="M3043,1271 L1104,1588" stroke="blue" stroke-width="2" />
<path d="M4980,3643 L2668,4611" stroke="blue" stroke-width="2" />
<path d="M81,3501 L2186,1700" stroke="blue" stroke-width="2" />
<path d="M3893,528 L3744,3464" stroke="blue" stroke-width="2" />
<path d="M3548,3095 L4319,4379" stroke="blue" stroke-width="2" />
<path d="M571,4301 L1752,572" stroke="blue" stroke-width="2" />
<path d="M200,3552 L4197,380" stroke="blue" stroke-width="2" />
<path d="M2300,1951 L303,2482" stroke="blue" stroke-width="2" />
<path d="M2547,5199 L162,542" stroke="blue" stroke-width="2" />
<path d="M308,1018 L4341,5303" stroke="blue" stroke-width="2" />
<path d="M1017,3556 L555,5250" stroke="blue" stroke-width="2" />
<path d="M4122,2967 L2696,4510" stroke="blue" stroke-width="2" />
<path d="M2235,3484 L4316,465" stroke="blue" stroke-width="2" />
<path d="M3675,433 L524,5941" stroke="blue" stroke-width="2" />
<path d="M2973,2344 L2526,4947" stroke="blue" stroke-width="2" />
<path d="M2553,1199 L2258,3132" stroke="blue" stroke-width="2" />
<path d="M3111,5461 L1686,4698" stroke="blue" stroke-width="2" />
<path d="M2557,4397 L2599,6208" stroke="blue" stroke-width="2" />
<path d="M1381,5475 L1207,2159" stroke="blue" stroke-width="2" />
<path d="M1624,397 L1087,4587" stroke="blue" stroke-width="2" />
<path d="M736,4676 L3726,1152" stroke="blue" stroke-width="2" />
<path d="M313,5961 L1878,2130" stroke="blue" stroke-width="2" />
<path d="M1098,3666 L1929,5088" stroke="blue" stroke-width="2" />
<path d="M639,5242 L3483,2576" stroke="blue" stroke-width="2" />
<path d="M4161,2745 L2906,3071" stroke="blue" stroke-width="2" />
<path d="M37,5603 L3434,1971" stroke="blue" stroke-width="2" />
<path d="M3510,6261 L2842,2188" stroke="blue" stroke-width="2" />
<path d="M1409,4635 L1020,5856" stroke="blue" stroke-width="2" />
<path d="M166,114 L4582,5538" stroke="blue" stroke-width="2" />
<path d="M4933,1109 L2689,2975" stroke="blue" stroke-width="2" />
<path d="M4108,4271 L4789,2586" stroke="blue" stroke-width="2" />
<path d="M3127,2074 L2294,738" stroke="blue" stroke-width="2" />
<path d="M104,5097 L2149,1365" stroke="blue" stroke-width="2" />
<path d="M741,5572 L2565,3583" stroke="blue" stroke-width="2" />
<path d="M670,1463 L4831,4851" stroke="blue" stroke-width="2" />
<path d="M1109,4739 L266,1402" stroke="blue" stroke-width="2" />
<path d="M3789,2164 L4298,5130" stroke="blue" stroke-width="2" />
<path d="M1762,2198 L3937,559" stroke="blue" stroke-width="2" />
<path d="M474,4541 L3810,4017" stroke="blue" stroke-width="2" />
<path d="M4163,2026 L4859,160" stroke="blue" stroke-width="2" />
<path d="M1365,1750 L916,2717" stroke="blue" stroke-width="2" />
<path d="M2192,4482 L2831,1956" stroke="blue" stroke-width="2" />
<path d="M3544,4707 L1558,1815" stroke="blue" stroke-width="2" />
<path d="M4387,280 L3504,1317" stroke="blue" stroke-width="2" />
<path d="M2632,5109 L2405,3318" stroke="blue" stroke-width="2" />
<path d="M1857,5354 L1441,817" stroke="blue" stroke-width="2" />
<path d="M4806,5636 L4211,15" stroke="blue" stroke-width="2" />
<path d="M3774,5590 L825,505" stroke="blue" stroke-width="2" />
<path d="M3214,4074 L693,4549" stroke="blue" stroke-width="2" />
<path d="M1940,487 L4084,3421" stroke="blue" stroke-width="2" />
<path d="M3037,225 L3617,3776" stroke="blue" stroke-width="2" />
<path d="M3230,4965 L3417,2297" stroke="blue" stroke-width="2" />
<path d="M1879,5030 L3486,4996" stroke="blue" stroke-width="2" />
<path d="M2388,4835 L3394,1263" stroke="blue" stroke-width="2" />
<path d="M1770,4450 L3004,6076" stroke="blue" stroke-width="2" />
<path d="M4513,4054 L1434,5800" stroke="blue" stroke-width="2" />
<path d="M2811,5474 L1123,1327" stroke="blue" stroke-width="2" />
<path d="M4645,5143 L150,3426" stroke="blue" stroke-width="2" />
<path d="M1090,799 L1934,5369" stroke="blue" stroke-width="2" />
<path d="M3103,2690 L2191,4268" stroke="blue" stroke-width="2" />
<path d="M1374,2523 L2896,3075" stroke="blue" stroke-width="2" />
<path d="M2292,8 L727,1721" stroke="blue" stroke-width="2" />
<path d="M123,5953 L4262,4666" stroke="blue" stroke-width="2" />
<path d="M4418,3484 L1296,5869" stroke="blue" stroke-width="2" />
<path d="M1167,1993 L3989,2187" stroke="blue" stroke-width="2" />
<path d="M142,4753 L1541,358" stroke="blue" stroke-width="2" />
<path d="M3151,1805 L4624,5012" stroke="blue" stroke-width="2" />
<path d="M4520,333 L4726,430" stroke="blue" stroke-width="2" />
<path d="M2339,2412 L2688,2407" stroke="blue" stroke-width="2" />
<path d="M3095,2142 L2645,4578" stroke="blue" stroke-width="2" />
<path d="M4816,5419 L603,1727" stroke="blue" stroke-width="2" />
<path d="M3483,2798 L2512,3088" stroke="blue" stroke-width="2" />
<path d="M3023,1383 L4971,4292" stroke="blue" stroke-width="2" />
<path d="M4582,428 L2319,1671" stroke="blue" stroke-width="2" />
<path d="M1136,212 L4459,1065" stroke="blue" stroke-width="2" />
<path d="M2960,2708 L3947,6161" stroke="blue" stroke-width="2" />
<path d="M110,4606 L3235,1610" stroke="blue" stroke-width="2" />
<path d="M1736,3345 L407,6036" stroke="blue" stroke-width="2" />
<path d="M1470,1392 L3411,4903" stroke="blue" stroke-width="2" />
<path d="M2597,4281 L2904,489" stroke="blue" stroke-width="2" />
<path d="M652,2959 L355,5789" stroke="blue" stroke-width="2" />
<path d="M1095,5830 L644,581" stroke="blue" stroke-width="2" />
<path d="M4784,981 L2306,2508" stroke="blue" stroke-width="2" />
<path d="M191,4334 L1098,885" stroke="blue" stroke-width="2" />
<path d="M1047,132 L4555,2635" stroke="blue" stroke-width="2" />
<path d="M0,0 L4997,0" stroke="red" stroke-width="10" />
<path d="M4997,0 L4997,6318" stroke="red" stroke-width="10" />
<path d="M0,6318 L4997,6318" stroke="red" stroke-width="10" />
<path d="M0,6318 L0,0" stroke="red" stroke-width="10" />
</svg>