<?xml version="1.0" encoding="UTF-8"?>
<svg xmlns="http://www.w3.org/2000/svg" xmlns:xlink="http://www.w3.org/1999/xlink"
     width="10000" height="10000" viewBox="0 0 10000 10000">
<defs>
</defs>
<path d="M3715,1914 L1261,8662" stroke="blue" stroke-width="2" />
<path d="M4368,4979 L5396,3507" stroke="blue" stroke-width="2" />
<path d="M4572,4866 L2442,3769" stroke="blue" stroke-width="2" />
<path d="M1366,8147 L717,5653" stroke="blue" stroke-width="2" />
<path d="M1313,1157 L205,1158" stroke="blue" stroke-width="2" />
<path d="M5415,2811 L4040,4556" stroke="blue" stroke-width="2" />
<path d="M3638,8917 L3718,636" stroke="blue" stroke-width="2" />
<path d="M1000,491 L1257,8293" stroke="blue" stroke-width="2" />
<path d="M4451,6411 L87,1796" stroke="blue" stroke-width="2" />
<path d="M669,1196 L4756,3933" stroke="blue" stroke-width="2" />
<path d="M3245,1386 L532,3612" stroke="blue" stroke-width="2" />
<path d="M2587,9076 L5060,1351" stroke="blue" stroke-width="2" />
<path d="M2029,7826 L159,2429" stroke="blue" stroke-width="2" />
<path d="M4496,4898 L2690,5725" stroke="blue" stroke-width="2" />
<path d="M3995,8655 L1160,2183" stroke="blue" stroke-width="2" />
<path d="M5430,3173 L718,6795" stroke="blue" stroke-width="2" />
<path d="M3109,8220 L3954,4708" stroke="blue" stroke-width="2" />
<path d="M3503,765 L2189,5659" stroke="blue" stroke-width="2" />
<path d="M3015,5743 L4265,5270" stroke="blue" stroke-width="2" />
<path d="M274,8331 L4864,1039" stroke="blue" stroke-width="2" />
<path d="M3307,3532 L4102,8969" stroke="blue" stroke-width="2" />
<path d="M717,5468 L3902,1423" stroke="blue" stroke-width="2" />
<path d="M3598,7346 L72,7194" stroke="blue" stroke-width="2" />
<path d="M3488,2460 L210,4108" stroke="blue" stroke-width="2" />
<path d="M4439,360 L267,2732" stroke="blue" stroke-width="2" />
<path d="M2685,8631 L986,3457" stroke="blue" stroke-width="2" />
<path d="M761,8833 L3596,9501" stroke="blue" stroke-width="2" />
<path d="M4089,38 L3932,6022" stroke="blue" stroke-width="2" />
<path d="M4306,1500 L2583,1951" stroke="blue" stroke-width="2" />
<path d="M3622,9395 L2555,6390" stroke="blue" stroke-width="2" />
<path d="M2865,7237 L2394,794" stroke="blue" stroke-width="2" />
<path d="M1307,6290 L2768,5774" stroke="blue" stroke-width="2" />
<path d="M5098,1305 L4854,6386" stroke="blue" stroke-width="2" />
<path d="M2279,6592 L4168,241" stroke="blue" stroke-width="2" />
<path d="M2135,7040 L2017,7500" stroke="blue" stroke-width="2" />
<path d="M898,1460 L696,6977" stroke="blue" stroke-width="2" />
<path d="M1142,5302 L2184,3451" stroke="blue" stroke-width="2" />
<path d="M2136,2046 L4857,6782" stroke="blue" stroke-width="2" />
<path d="M2359,4455 L92,7721" stroke="blue" stroke-width="2" />
<path d="M2009,6606 L3077,472" stroke="blue" stroke-width="2" />
<path d="M2154,5251 L3097,6108" stroke="blue" stroke-width="2" />
<path d="M1139,1332 L588,184" stroke="blue" stroke-width="2" />
<path d="M3431,9222 L3504,2122" stroke="blue" stroke-width="2" />
<path d="M3540,8402 L1787,5402" stroke="blue" stroke-width="2" />
<path d="M2038,2538 L3570,3100" stroke="blue" stroke-width="2" />
<path d="M3586,2347 L57,4276" stroke="blue" stroke-width="2" />
<path d="M1689,6324 L4036,9170" stroke="blue" stroke-width="2" />
<path d="M4216,5970 L3156,2594" stroke="blue" stroke-width="2" />
<path d="M527,9420 L2462,4857" stroke="blue" stroke-width="2" />
<path d="M330,5449 L433,3981" stroke="blue" stroke-width="2" />
<path d="M2838,4803 L2530,9745" stroke="blue" stroke-width="2" />
<path d="M3184,5157 L2417,7066" stroke="blue" stroke-width="2" />
<path d="M2956,9220 L1601,6485" stroke="blue" stroke-width="2" />
<path d="M3210,1938 L3423,5141" stroke="blue" stroke-width="2" />
<path d="M1826,6517 L4562,6112" stroke="blue" stroke-width="2" />
<path d="M2309,7997 L4359,1182" stroke="blue" stroke-width="2" />
<path d="M789,4917 L431,7016" stroke="blue" stroke-width="2" />
<path d="M1735,1041 L4547,7376" stroke="blue" stroke-width="2" />
<path d="M4010,1072 L5278,5908" stroke="blue" stroke-width="2" />
<path d="M3825,7172 L4538,466" stroke="blue" stroke-width="2" />
<path d="M1022,3225 L1574,1060" stroke="blue" stroke-width="2" />
<path d="M1203,6174 L4909,7391" stroke="blue" stroke-width="2" />
<path d="M382,3669 L1420,2804" stroke="blue" stroke-width="2" />
<path d="M3369,8342 L3582,2615" stroke="blue" stroke-width="2" />
<path d="M123,5380 L1223,6795" stroke="blue" stroke-width="2" />
<path d="M4758,8115 L3794,2455" stroke="blue" stroke-width="2" />
<path d="M4760,4178 L80,9429" stroke="blue" stroke-width="2" />
<path d="M4546,7825 L2362,2674" stroke="blue" stroke-width="2" />
<path d="M3599,5706 L1853,5493" stroke="blue" stroke-width="2" />
<path d="M1851,4523 L571,4342" stroke="blue" stroke-width="2" />
<path d="M740,8178 L1883,6437" stroke="blue" stroke-width="2" />
<path d="M4317,8328 L5290,2154" stroke="blue" stroke-width="2" />
<path d="M85,3163 L51,7815" stroke="blue" stroke-width="2" />
<path d="M3189,4742 L4416,989" stroke="blue" stroke-width="2" />
<path d="M5119,3932 L1192,8513" stroke="blue" stroke-width="2" />
<path d="M371,8932 L3943,1755" stroke="blue" stroke-width="2" />
<path d="M2643,6155 L4804,9072" stroke="blue" stroke-width="2" />
<path d="M3491,5247 L2139,1802" stroke="blue" stroke-width="2" />
<path d="M901,3311 L922,8403" stroke="blue" stroke-width="2" />
<path d="M5162,4075 L5015,3134" stroke="blue" stroke-width="2" />
<path d="M5148,9152 L3042,8190" stroke="blue" stroke-width="2" />
<path d="M4760,54 L3237,2006" stroke="blue" stroke-width="2" />
<path d="M4557,1017 L2589,2946" stroke="blue" stroke-width="2" />
<path d="M1052,8546 L1177,7991" stroke="blue" stroke-width="2" />
<path d="M1465,6600 L2334,4327" stroke="blue" stroke-width="2" />
<path d="M3943,7781 L2551,9750" stroke="blue" stroke-width="2" />
<path d="M834,4013 L2207,7867" stroke="blue" stroke-width="2" />
<path d="M2931,9523 L2942,1460" stroke="blue" stroke-width="2" />
<path d="M932,4257 L3978,935" stroke="blue" stroke-width="2" />
<path d="M367,3999 L1897,4604" stroke="blue" stroke-width="2" />
<path d="M4495,4124 L777,5768" stroke="blue" stroke-width="2" />
<path d="M2152,8180 L1472,3314" stroke="blue" stroke-width="2" />
<path d="M5266,4762 L5148,7078" stroke="blue" stroke-width="2" />
<path d="M2221,6689 L5249,3485" stroke="blue" stroke-width="2" />
<path d="M2200,1262 L2687,3344" stroke="blue" stroke-width="2" />
<path d="M2868,6605 L5007,2477" stroke="blue" stroke-width="2" />
<path d="M5113,1366 L1877,305" stroke="blue" stroke-width="2" />
<path d="M492,2898 L1628,6189" stroke="blue" stroke-width="2" />
<path d="M5159,3068 L321,5650" stroke="blue" stroke-width="2" />
<path d="M4345,4875 L5377,133" stroke="blue" stroke-width="2" />
<path d="M5195,2173 L3713,2911" stroke="blue" stroke-width="2" />
<path d="M2716,4882 L1378,1999" stroke="blue" stroke-width="2" />
<path d="M2386,2868 L4294,2805" stroke="blue" stroke-width="2" />
<path d="M1928,4862 L4096,6440" stroke="blue" stroke-width="2" />
<path d="M4373,9644 L1049,575" stroke="blue" stroke-width="2" />
<path d="M2486,1157 L1291,991" stroke="blue" stroke-width="2" />
<path d="M1384,904 L1956,8609" stroke="blue" stroke-width="2" />
<path d="M4355,4323 L4911,1781" stroke="blue" stroke-width="2" />
<path d="M3808,904 L1431,6257" stroke="blue" stroke-width="2" />
<path d="M3169,7414 L4402,1191" stroke="blue" stroke-width="2" />
<path d="M1549,4408 L2643,2081" stroke="blue" stroke-width="2" />
<path d="M648,6882 L600,977" stroke="blue" stroke-width="2" />
<path d="M1903,8454 L4057,6800" stroke="blue" stroke-width="2" />
<path d="M4981,8426 L5022,3651" stroke="blue" stroke-width="2" />
<path d="M4738,929 L1807,169" stroke="blue" stroke-width="2" />
<path d="M14,8303 L645,7224" stroke="blue" stroke-width="2" />
<path d="M5292,6892 L2585,999" stroke="blue" stroke-width="2" />
<path d="M1898,2522 L5136,1978" stroke="blue" stroke-width="2" />
<path d="M3370,7339 L2270,2335" stroke="blue" stroke-width="2" />
<path d="M4582,4003 L3239,2385" stroke="blue" stroke-width="2" />
<path d="M5379,8046 L4927,4799" stroke="blue" stroke-width="2" />
<path d="M1909,9718 L2693,1738" stroke="blue" stroke-width="2" />
<path d="M4997,8711 L5403,112" stroke="blue" stroke-width="2" />
<path d="M1177,4144 L370,6009" stroke="blue" stroke-width="2" />
<path d="M645,7033 L2357,9073" stroke="blue" stroke-width="2" />
<path d="M2597,8916 L2938,7880" stroke="blue" stroke-width="2" />
<path d="M1645,9742 L5322,7600" stroke="blue" stroke-width="2" />
<path d="M3204,5829 L1569,1366" stroke="blue" stroke-width="2" />
<path d="M1739,4476 L3884,70" stroke="blue" stroke-width="2" />
<path d="M1741,945 L1774,9680" stroke="blue" stroke-width="2" />
<path d="M868,6054 L2917,791" stroke="blue" stroke-width="2" />
<path d="M2995,1816 L3998,3373" stroke="blue" stroke-width="2" />
<path d="M306,926 L4002,4516" stroke="blue" stroke-width="2" />
<path d="M684,7197 L405,3263" stroke="blue" stroke-width="2" />
<path d="M104,868 L1639,8681" stroke="blue" stroke-width="2" />
<path d="M4212,5121 L913,6756" stroke="blue" stroke-width="2" />
<path d="M1503,735 L3435,8538" stroke="blue" stroke-width="2" />
<path d="M2604,9770 L2717,9204" stroke="blue" stroke-width="2" />
<path d="M545,5145 L2595,6715" stroke="blue" stroke-width="2" />
<path d="M4802,8918 L3000,3275" stroke="blue" stroke-width="2" />
<path d="M4468,7558 L4704,6339" stroke="blue" stroke-width="2" />
<path d="M5271,5434 L3075,8571" stroke="blue" stroke-width="2" />
<path d="M2194,8589 L3652,6289" stroke="blue" stroke-width="2" />
<path d="M1088,5869 L119,7654" stroke="blue" stroke-width="2" />
<path d="M4159,8168 L2648,9622" stroke="blue" stroke-width="2" />
<path d="M2112,3977 L3780,3778" stroke="blue" stroke-width="2" />
<path d="M5093,7334 L2403,2242" stroke="blue" stroke-width="2" />
<path d="M3005,6445 L1725,1456" stroke="blue" stroke-width="2" />
<path d="M2612,6116 L4734,4861" stroke="blue" stroke-width="2" />
<path d="M1493,1677 L5017,2483" stroke="blue" stroke-width="2" />
<path d="M1816,8128 L943,8476" stroke="blue" stroke-width="2" />
<path d="M3933,2052 L3295,107" stroke="blue" stroke-width="2" />
<path d="M4680,4974 L841,4041" stroke="blue" stroke-width="2" />
<path d="M4713,1821 L544,8527" stroke="blue" stroke-width="2" />
<path d="M4620,2463 L4414,3990" stroke="blue" stroke-width="2" />
<path d="M5290,1236 L1945,5072" stroke="blue" stroke-width="2" />
<path d="M3168,2165 L2785,6977" stroke="blue" stroke-width="2" />
<path d="M108,1485 L1347,8756" stroke="blue" stroke-width="2" />
<path d="M3160,830 L3984,4030" stroke="blue" stroke-width="2" />
<path d="M674,7964 L4771,1005" stroke="blue" stroke-width="2" />
<path d="M1270,8599 L4670,2714" stroke="blue" stroke-width="2" />
<path d="M4308,5445 L4110,3191" stroke="blue" stroke-width="2" />
<path d="M2607,2911 L2752,1184" stroke="blue" stroke-width="2" />
<path d="M1165,3217 L473,971" stroke="blue" stroke-width="2" />
<path d="M1086,287 L134,2123" stroke="blue" stroke-width="2" />
<path d="M827,5956 L3608,5962" stroke="blue" stroke-width="2" />
<path d="M85,3817 L3079,7306" stroke="blue" stroke-width="2" />
<path d="M3131,9501 L1373,9853" stroke="blue" stroke-width="2" />
<path d="M801,5050 L1472,8666" stroke="blue" stroke-width="2" />
<path d="M2463,6202 L662,203" stroke="blue" stroke-width="2" />
<path d="M1226,6286 L4883,42" stroke="blue" stroke-width="2" />
<path d="M2352,551 L5360,580" stroke="blue" stroke-width="2" />
<path d="M1690,851 L4768,9228" stroke="blue" stroke-width="2" />
<path d="M1935,9188 L4975,7883" stroke="blue" stroke-width="2" />
<path d="M3945,3597 L1063,5032" stroke="blue" stroke-width="2" />
<path d="M4240,2035 L407,566" stroke="blue" stroke-width="2" />
<path d="M2686,5000 L3256,6704" stroke="blue" stroke-width="2" />
<path d="M3831,269 L2184,151" stroke="blue" stroke-width="2" />
<path d="M1009,6959 L1771,7179" stroke="blue" stroke-width="2" />
<path d="M2560,5063 L1157,3765" stroke="blue" stroke-width="2" />
<path d="M3411,6462 L3603,9034" stroke="blue" stroke-width="2" />
<path d="M3476,8236 L2086,9841" stroke="blue" stroke-width="2" />
<path d="M359,3997 L931,5285" stroke="blue" stroke-width="2" />
<path d="M4320,3577 L3859,8131" stroke="blue" stroke-width="2" />
<path d="M14,4287 L2840,765" stroke="blue" stroke-width="2" />
<path d="M541,6953 L605,5930" stroke="blue" stroke-width="2" />
<path d="M3414,2102 L1646,5854" stroke="blue" stroke-width="2" />
<path d="M1456,5499 L815,9229" stroke="blue" stroke-width="2" />
<path d="M4001,2688 L1269,6729" stroke="blue" stroke-width="2" />
<path d="M2959,1095 L458,3918" stroke="blue" stroke-width="2" />
<path d="M5356,7352 L1462,4606" stroke="blue" stroke-width="2" />
<path d="M1627,4327 L2895,6148" stroke="blue" stroke-width="2" />
<path d="M4926,7964 L1261,8642" stroke="blue" stroke-width="2" />
<path d="M3375,5905 L820,439" stroke="blue" stroke-width="2" />
<path d="M2170,4411 L4637,4503" stroke="blue" stroke-width="2" />
<path d="M3791,2061 L1086,3937" stroke="blue" stroke-width="2" />
<path d="M1365,5450 L1867,3681" stroke="blue" stroke-width="2" />
<path d="M3346,7883 L5303,2356" stroke="blue" stroke-width="2" />
<path d="M1648,7844 L210,7408" stroke="blue" stroke-width="2" />
<path d="M1323,60 L2303,883" stroke="blue" stroke-width="2" />
<path d="M3720,2274 L2908,1566" stroke="blue" stroke-width="2" />
<path d="M777,335 L4862,6071" stroke="blue" stroke-width="2" />
<path d="M4598,411 L3309,6309" stroke="blue" stroke-width="2" />
<path d="M2796,7693 L1416,9262" stroke="blue" stroke-width="2" />
<path d="M3857,2770 L5113,9260" stroke="blue" stroke-width="2" />
<path d="M853,7044 L4456,1913" stroke="blue" stroke-width="2" />
<path d="M192,6208 L5224,1474" stroke="blue" stroke-width="2" />
<path d="M3253,339 L1741,6639" stroke="blue" stroke-width="2" />
<path d="M2552,2220 L2984,3252" stroke="blue" stroke-width="2" />
<path d="M4554,8831 L1406,1955" stroke="blue" stroke-width="2" />
<path d="M5332,6372 L3329,5899" stroke="blue" stroke-width="2" />
<path d="M5352,441 L5273,471" stroke="blue" stroke-width="2" />
<path d="M4831,7333 L2764,9664" stroke="blue" stroke-width="2" />
<path d="M4517,4531 L3856,2367" stroke="blue" stroke-width="2" />
<path d="M1128,5544 L5281,4109" stroke="blue" stroke-width="2" />
<path d="M832,7333 L1592,9301" stroke="blue" stroke-width="2" />
<path d="M5093,3309 L1464,9360" stroke="blue" stroke-width="2" />
<path d="M5086,2262 L1314,391" stroke="blue" stroke-width="2" />
<path d="M2069,2363 L3786,4093" stroke="blue" stroke-width="2" />
<path d="M2954,3785 L2624,1259" stroke="blue" stroke-width="2" />
<path d="M4909,3197 L5085,7998" stroke="blue" stroke-width="2" />
<path d="M4174,744 L2488,3259" stroke="blue" stroke-width="2" />
<path d="M3782,7491 L4182,6707" stroke="blue" stroke-width="2" />
<path d="M3095,6760 L4316,7295" stroke="blue" stroke-width="2" />
<path d="M3793,6061 L1593,4076" stroke="blue" stroke-width="2" />
<path d="M5275,61 L1533,5849" stroke="blue" stroke-width="2" />
<path d="M1093,7647 L2122,3531" stroke="blue" stroke-width="2" />
<path d="M2770,1687 L3258,4366" stroke="blue" stroke-width="2" />
<path d="M2289,1998 L769,9596" stroke="blue" stroke-width="2" />
<path d="M2658,9307 L2833,31" stroke="blue" stroke-width="2" />
<path d="M5360,2770 L3146,3008" stroke="blue" stroke-width="2" />
<path d="M2687,5838 L1466,722" stroke="blue" stroke-width="2" />
<path d="M0,0 L5448,0" stroke="red" stroke-width="10" />
<path d="M5448,0 L5448,9889" stroke="red" stroke-width="10" />
<path d="M0,9889 L5448,9889" stroke="red" stroke-width="10" />
<path d="M0,9889 L0,0" stroke="red" stroke-width="10" />
</svg>