<?xml version="1.0" encoding="UTF-8"?>
<svg xmlns="http://www.w3.org/2000/svg" xmlns:xlink="http://www.w3.org/1999/xlink"
     width="10000" height="10000" viewBox="0 0 10000 10000">
<defs>
</defs>
<path d="M5441,936 L637,1245" stroke="blue" stroke-width="2" />
<path d="M5340,484 L4664,1203" stroke="blue" stroke-width="2" />
<path d="M1137,207 L2071,478" stroke="blue" stroke-width="2" />
<path d="M7355,924 L4341,265" stroke="blue" stroke-width="2" />
<path d="M2175,1008 L6383,870" stroke="blue" stroke-width="2" />
<path d="M5011,1224 L3256,672" stroke="blue" stroke-width="2" />
<path d="M6961,1261 L8247,450" stroke="blue" stroke-width="2" />
<path d="M2036,94 L6316,199" stroke="blue" stroke-width="2" />
<path d="M6178,91 L1690,1111" stroke="blue" stroke-width="2" />
<path d="M817,46 L7656,578" stroke="blue" stroke-width="2" />
<path d="M8166,305 L7039,654" stroke="blue" stroke-width="2" />
<path d="M5986,535 L8138,1120" stroke="blue" stroke-width="2" />
<path d="M4960,82 L7561,691" stroke="blue" stroke-width="2" />
<path d="M1782,306 L7706,284" stroke="blue" stroke-width="2" />
<path d="M7657,1250 L6823,348" stroke="blue" stroke-width="2" />
<path d="M7079,446 L8250,336" stroke="blue" stroke-width="2" />
<path d="M1891,1322 L6932,56" stroke="blue" stroke-width="2" />
<path d="M402,1153 L1172,366" stroke="blue" stroke-width="2" />
<path d="M5157,260 L2358,1337" stroke="blue" stroke-width="2" />
<path d="M4516,1217 L2256,746" stroke="blue" stroke-width="2" />
<path d="M1859,535 L3984,312" stroke="blue" stroke-width="2" />
<path d="M2362,1108 L239,228" stroke="blue" stroke-width="2" />
<path d="M7667,217 L2400,377" stroke="blue" stroke-width="2" />
<path d="M2001,1049 L2798,1112" stroke="blue" stroke-width="2" />
<path d="M5323,421 L7553,565" stroke="blue" stroke-width="2" />
<path d="M7442,557 L1518,1007" stroke="blue" stroke-width="2" />
<path d="M7645,150 L1703,1080" stroke="blue" stroke-width="2" />
<path d="M5324,453 L4298,1124" stroke="blue" stroke-width="2" />
<path d="M3977,28 L4828,721" stroke="blue" stroke-width="2" />
<path d="M4008,509 L6835,1242" stroke="blue" stroke-width="2" />
<path d="M424,1106 L6665,1312" stroke="blue" stroke-width="2" />
<path d="M4876,621 L6850,431" stroke="blue" stroke-width="2" />
<path d="M7448,723 L692,160" stroke="blue" stroke-width="2" />
<path d="M5617,197 L7884,460" stroke="blue" stroke-width="2" />
<path d="M7551,29 L2044,590" stroke="blue" stroke-width="2" />
<path d="M5844,260 L6924,1310" stroke="blue" stroke-width="2" />
<path d="M4901,700 L3015,556" stroke="blue" stroke-width="2" />
<path d="M2652,488 L2117,902" stroke="blue" stroke-width="2" />
<path d="M2085,473 L640,683" stroke="blue" stroke-width="2" />
<path d="M1612,551 L2194,637" stroke="blue" stroke-width="2" />
<path d="M7725,1098 L8245,1213" stroke="blue" stroke-width="2" />
<path d="M2660,257 L6178,637" stroke="blue" stroke-width="2" />
<path d="M1955,1318 L5239,1231" stroke="blue" stroke-width="2" />
<path d="M3428,3 L486,966" stroke="blue" stroke-width="2" />
<path d="M320,125 L5269,325" stroke="blue" stroke-width="2" />
<path d="M6176,758 L7114,397" stroke="blue" stroke-width="2" />
<path d="M4405,737 L7502,1116" stroke="blue" stroke-width="2" />
<path d="M6678,240 L783,1108" stroke="blue" stroke-width="2" />
<path d="M733,1296 L256,975" stroke="blue" stroke-width="2" />
<path d="M6831,203 L2828,1073" stroke="blue" stroke-width="2" />
<path d="M4791,531 L3919,986" stroke="blue" stroke-width="2" />
<path d="M1771,754 L357,707" stroke="blue" stroke-width="2" />
<path d="M4447,672 L8263,1111" stroke="blue" stroke-width="2" />
<path d="M8138,517 L4359,600" stroke="blue" stroke-width="2" />
<path d="M6168,76 L8198,774" stroke="blue" stroke-width="2" />
<path d="M2765,389 L6098,1002" stroke="blue" stroke-width="2" />
<path d="M2441,646 L3367,1282" stroke="blue" stroke-width="2" />
<path d="M1987,293 L2177,51" stroke="blue" stroke-width="2" />
<path d="M6531,1273 L2653,232" stroke="blue" stroke-width="2" />
<path d="M84,810 L6403,797" stroke="blue" stroke-width="2" />
<path d="M5937,932 L5047,1302" stroke="blue" stroke-width="2" />
<path d="M5327,626 L3942,1306" stroke="blue" stroke-width="2" />
<path d="M6084,135 L6605,768" stroke="blue" stroke-width="2" />
<path d="M7735,277 L4874,217" stroke="blue" stroke-width="2" />
<path d="M4711,858 L2710,968" stroke="blue" stroke-width="2" />
<path d="M6469,458 L6616,1197" stroke="blue" stroke-width="2" />
<path d="M2635,447 L7142,376" stroke="blue" stroke-width="2" />
<path d="M7382,1107 L8464,699" stroke="blue" stroke-width="2" />
<path d="M5502,1218 L3308,502" stroke="blue" stroke-width="2" />
<path d="M2333,1310 L1037,931" stroke="blue" stroke-width="2" />
<path d="M2623,1158 L4914,1232" stroke="blue" stroke-width="2" />
<path d="M1247,226 L2934,408" stroke="blue" stroke-width="2" />
<path d="M1515,783 L7083,389" stroke="blue" stroke-width="2" />
<path d="M652,532 L28,844" stroke="blue" stroke-width="2" />
<path d="M3428,29 L5156,893" stroke="blue" stroke-width="2" />
<path d="M316,1208 L3101,1235" stroke="blue" stroke-width="2" />
<path d="M8071,547 L5765,692" stroke="blue" stroke-width="2" />
<path d="M4697,87 L5009,50" stroke="blue" stroke-width="2" />
<path d="M1175,813 L4018,380" stroke="blue" stroke-width="2" />
<path d="M8101,273 L7000,265" stroke="blue" stroke-width="2" />
<path d="M6941,1081 L7746,82" stroke="blue" stroke-width="2" />
<path d="M7839,176 L7018,1057" stroke="blue" stroke-width="2" />
<path d="M3639,1018 L617,715" stroke="blue" stroke-width="2" />
<path d="M1862,1310 L5697,890" stroke="blue" stroke-width="2" />
<path d="M2342,580 L7426,1180" stroke="blue" stroke-width="2" />
<path d="M6545,187 L2113,1017" stroke="blue" stroke-width="2" />
<path d="M591,726 L4540,293" stroke="blue" stroke-width="2" />
<path d="M7247,627 L3463,81" stroke="blue" stroke-width="2" />
<path d="M7187,1119 L7068,1255" stroke="blue" stroke-width="2" />
<path d="M1867,170 L5574,1234" stroke="blue" stroke-width="2" />
<path d="M517,689 L5047,339" stroke="blue" stroke-width="2" />
<path d="M414,1018 L5886,1004" stroke="blue" stroke-width="2" />
<path d="M7745,318 L7601,591" stroke="blue" stroke-width="2" />
<path d="M1017,809 L6954,701" stroke="blue" stroke-width="2" />
<path d="M7945,8 L6950,910" stroke="blue" stroke-width="2" />
<path d="M7186,104 L4961,201" stroke="blue" stroke-width="2" />
<path d="M1811,205 L7289,703" stroke="blue" stroke-width="2" />
<path d="M3983,602 L5288,659" stroke="blue" stroke-width="2" />
<path d="M5585,984 L3125,1216" stroke="blue" stroke-width="2" />
<path d="M7521,428 L7926,880" stroke="blue" stroke-width="2" />
<path d="M4725,329 L6837,1254" stroke="blue" stroke-width="2" />
<path d="M7922,985 L3838,169" stroke="blue" stroke-width="2" />
<path d="M5958,1270 L2746,583" stroke="blue" stroke-width="2" />
<path d="M8241,765 L4934,238" stroke="blue" stroke-width="2" />
<path d="M415,529 L7521,103" stroke="blue" stroke-width="2" />
<path d="M5587,21 L2671,1169" stroke="blue" stroke-width="2" />
<path d="M2375,1026 L4070,205" stroke="blue" stroke-width="2" />
<path d="M1992,354 L2457,414" stroke="blue" stroke-width="2" />
<path d="M7772,156 L1406,554" stroke="blue" stroke-width="2" />
<path d="M424,1234 L7983,812" stroke="blue" stroke-width="2" />
<path d="M8118,517 L746,1216" stroke="blue" stroke-width="2" />
<path d="M4012,443 L5462,616" stroke="blue" stroke-width="2" />
<path d="M5525,337 L5544,376" stroke="blue" stroke-width="2" />
<path d="M1944,197 L3233,1240" stroke="blue" stroke-width="2" />
<path d="M1926,34 L2285,1043" stroke="blue" stroke-width="2" />
<path d="M3465,663 L1184,1040" stroke="blue" stroke-width="2" />
<path d="M3419,851 L8316,678" stroke="blue" stroke-width="2" />
<path d="M7297,1 L4499,988" stroke="blue" stroke-width="2" />
<path d="M6424,975 L6957,1263" stroke="blue" stroke-width="2" />
<path d="M5386,1105 L7705,739" stroke="blue" stroke-width="2" />
<path d="M8031,918 L497,444" stroke="blue" stroke-width="2" />
<path d="M2006,517 L6034,465" stroke="blue" stroke-width="2" />
<path d="M4393,102 L3252,848" stroke="blue" stroke-width="2" />
<path d="M5634,798 L6344,478" stroke="blue" stroke-width="2" />
<path d="M7241,1284 L5923,1285" stroke="blue" stroke-width="2" />
<path d="M3707,222 L1089,441" stroke="blue" stroke-width="2" />
<path d="M3560,440 L656,889" stroke="blue" stroke-width="2" />
<path d="M607,677 L1028,711" stroke="blue" stroke-width="2" />
<path d="M8037,1030 L626,585" stroke="blue" stroke-width="2" />
<path d="M5905,380 L2845,114" stroke="blue" stroke-width="2" />
<path d="M4510,687 L4899,803" stroke="blue" stroke-width="2" />
<path d="M2809,341 L3533,287" stroke="blue" stroke-width="2" />
<path d="M3127,787 L8046,1282" stroke="blue" stroke-width="2" />
<path d="M2842,1149 L6791,126" stroke="blue" stroke-width="2" />
<path d="M1875,355 L6670,1167" stroke="blue" stroke-width="2" />
<path d="M7181,739 L7,687" stroke="blue" stroke-width="2" />
<path d="M2583,867 L6239,64" stroke="blue" stroke-width="2" />
<path d="M1646,1295 L7672,1297" stroke="blue" stroke-width="2" />
<path d="M7517,549 L6713,224" stroke="blue" stroke-width="2" />
<path d="M3931,831 L7908,281" stroke="blue" stroke-width="2" />
<path d="M401,1132 L1105,1100" stroke="blue" stroke-width="2" />
<path d="M7051,1208 L2099,683" stroke="blue" stroke-width="2" />
<path d="M5843,645 L5195,183" stroke="blue" stroke-width="2" />
<path d="M520,1115 L5773,231" stroke="blue" stroke-width="2" />
<path d="M5927,1266 L6207,1080" stroke="blue" stroke-width="2" />
<path d="M7903,842 L7718,529" stroke="blue" stroke-width="2" />
<path d="M7881,9 L5113,528" stroke="blue" stroke-width="2" />
<path d="M3665,324 L7016,1105" stroke="blue" stroke-width="2" />
<path d="M2578,170 L3391,935" stroke="blue" stroke-width="2" />
<path d="M1165,643 L6246,398" stroke="blue" stroke-width="2" />
<path d="M6346,1077 L4183,835" stroke="blue" stroke-width="2" />
<path d="M3806,642 L2486,900" stroke="blue" stroke-width="2" />
<path d="M5796,507 L5585,365" stroke="blue" stroke-width="2" />
<path d="M444,861 L4684,11" stroke="blue" stroke-width="2" />
<path d="M3039,1094 L2639,284" stroke="blue" stroke-width="2" />
<path d="M4728,1005 L8447,785" stroke="blue" stroke-width="2" />
<path d="M5646,466 L868,928" stroke="blue" stroke-width="2" />
<path d="M1005,895 L1786,658" stroke="blue" stroke-width="2" />
<path d="M7668,1142 L4446,1300" stroke="blue" stroke-width="2" />
<path d="M1878,1122 L4258,112" stroke="blue" stroke-width="2" />
<path d="M8308,1139 L592,986" stroke="blue" stroke-width="2" />
<path d="M2303,217 L1454,842" stroke="blue" stroke-width="2" />
<path d="M106,1290 L526,1065" stroke="blue" stroke-width="2" />
<path d="M4042,277 L4626,1223" stroke="blue" stroke-width="2" />
<path d="M8352,1001 L4210,595" stroke="blue" stroke-width="2" />
<path d="M6931,655 L5496,638" stroke="blue" stroke-width="2" />
<path d="M4880,932 L3655,33" stroke="blue" stroke-width="2" />
<path d="M1190,825 L3326,497" stroke="blue" stroke-width="2" />
<path d="M3359,287 L7148,627" stroke="blue" stroke-width="2" />
<path d="M8374,860 L7765,604" stroke="blue" stroke-width="2" />
<path d="M4766,431 L7841,480" stroke="blue" stroke-width="2" />
<path d="M6165,876 L5259,369" stroke="blue" stroke-width="2" />
<path d="M8509,281 L6798,1030" stroke="blue" stroke-width="2" />
<path d="M968,1325 L6406,626" stroke="blue" stroke-width="2" />
<path d="M4628,154 L5175,792" stroke="blue" stroke-width="2" />
<path d="M1713,518 L3128,831" stroke="blue" stroke-width="2" />
<path d="M4896,1278 L3171,1266" stroke="blue" stroke-width="2" />
<path d="M19,852 L1811,464" stroke="blue" stroke-width="2" />
<path d="M3975,1017 L8417,508" stroke="blue" stroke-width="2" />
<path d="M211,587 L7932,252" stroke="blue" stroke-width="2" />
<path d="M1039,265 L8087,739" stroke="blue" stroke-width="2" />
<path d="M80,671 L6546,807" stroke="blue" stroke-width="2" />
<path d="M3690,232 L3064,325" stroke="blue" stroke-width="2" />
<path d="M886,869 L3451,1298" stroke="blue" stroke-width="2" />
<path d="M5481,952 L5062,69" stroke="blue" stroke-width="2" />
<path d="M1690,1166 L2558,383" stroke="blue" stroke-width="2" />
<path d="M6317,793 L4053,309" stroke="blue" stroke-width="2" />
<path d="M2770,754 L6300,255" stroke="blue" stroke-width="2" />
<path d="M4953,745 L2128,1162" stroke="blue" stroke-width="2" />
<path d="M1467,1274 L3232,334" stroke="blue" stroke-width="2" />
<path d="M2195,1186 L7177,475" stroke="blue" stroke-width="2" />
<path d="M4934,76 L6698,774" stroke="blue" stroke-width="2" />
<path d="M5416,1081 L6971,731" stroke="blue" stroke-width="2" />
<path d="M449,995 L1677,782" stroke="blue" stroke-width="2" />
<path d="M1466,461 L525,273" stroke="blue" stroke-width="2" />
<path d="M1824,198 L4657,90" stroke="blue" stroke-width="2" />
<path d="M4381,610 L3826,1165" stroke="blue" stroke-width="2" />
<path d="M7937,263 L353,747" stroke="blue" stroke-width="2" />
<path d="M1445,264 L3053,240" stroke="blue" stroke-width="2" />
<path d="M3336,1028 L6434,663" stroke="blue" stroke-width="2" />
<path d="M3218,360 L5578,1271" stroke="blue" stroke-width="2" />
<path d="M533,692 L1362,30" stroke="blue" stroke-width="2" />
<path d="M5180,661 L1672,128" stroke="blue" stroke-width="2" />
<path d="M4636,1147 L2324,854" stroke="blue" stroke-width="2" />
<path d="M3952,644 L5687,54" stroke="blue" stroke-width="2" />
<path d="M2687,408 L5808,640" stroke="blue" stroke-width="2" />
<path d="M203,399 L3028,318" stroke="blue" stroke-width="2" />
<path d="M5716,534 L1619,226" stroke="blue" stroke-width="2" />
<path d="M6967,919 L301,529" stroke="blue" stroke-width="2" />
<path d="M7091,477 L694,390" stroke="blue" stroke-width="2" />
<path d="M6351,894 L71,61" stroke="blue" stroke-width="2" />
<path d="M4958,527 L8463,493" stroke="blue" stroke-width="2" />
<path d="M4380,201 L1268,983" stroke="blue" stroke-width="2" />
<path d="M4062,737 L647,242" stroke="blue" stroke-width="2" />
<path d="M2627,548 L2134,1064" stroke="blue" stroke-width="2" />
<path d="M1506,477 L5072,751" stroke="blue" stroke-width="2" />
<path d="M5996,935 L3690,241" stroke="blue" stroke-width="2" />
<path d="M1085,55 L2064,1025" stroke="blue" stroke-width="2" />
<path d="M5673,1056 L4744,601" stroke="blue" stroke-width="2" />
<path d="M919,241 L4596,1016" stroke="blue" stroke-width="2" />
<path d="M6517,61 L2387,783" stroke="blue" stroke-width="2" />
<path d="M2708,1217 L5188,486" stroke="blue" stroke-width="2" />
<path d="M4308,532 L8315,196" stroke="blue" stroke-width="2" />
<path d="M4015,107 L1615,520" stroke="blue" stroke-width="2" />
<path d="M4577,1105 L2245,416" stroke="blue" stroke-width="2" />
<path d="M6126,485 L5153,264" stroke="blue" stroke-width="2" />
<path d="M3589,1288 L2691,256" stroke="blue" stroke-width="2" />
<path d="M4660,315 L4039,83" stroke="blue" stroke-width="2" />
<path d="M7422,684 L1755,294" stroke="blue" stroke-width="2" />
<path d="M517,220 L4508,1000" stroke="blue" stroke-width="2" />
<path d="M4438,847 L5929,462" stroke="blue" stroke-width="2" />
<path d="M5237,291 L925,623" stroke="blue" stroke-width="2" />
<path d="M1878,1315 L6673,164" stroke="blue" stroke-width="2" />
<path d="M1410,345 L804,603" stroke="blue" stroke-width="2" />
<path d="M7438,1179 L3888,1317" stroke="blue" stroke-width="2" />
<path d="M6887,697 L650,918" stroke="blue" stroke-width="2" />
<path d="M4074,537 L4602,1173" stroke="blue" stroke-width="2" />
<path d="M3167,620 L2510,768" stroke="blue" stroke-width="2" />
<path d="M2863,790 L2174,148" stroke="blue" stroke-width="2" />
<path d="M5210,931 L224,1166" stroke="blue" stroke-width="2" />
<path d="M6184,1091 L6970,372" stroke="blue" stroke-width="2" />
<path d="M2383,1 L2120,444" stroke="blue" stroke-width="2" />
<path d="M4314,847 L5226,1197" stroke="blue" stroke-width="2" />
<path d="M4403,585 L5652,1239" stroke="blue" stroke-width="2" />
<path d="M368,279 L2716,665" stroke="blue" stroke-width="2" />
<path d="M5248,171 L4504,438" stroke="blue" stroke-width="2" />
<path d="M4963,143 L8142,202" stroke="blue" stroke-width="2" />
<path d="M2428,509 L7098,859" stroke="blue" stroke-width="2" />
<path d="M3998,407 L8272,657" stroke="blue" stroke-width="2" />
<path d="M8239,19 L2521,1281" stroke="blue" stroke-width="2" />
<path d="M2907,872 L1562,1193" stroke="blue" stroke-width="2" />
<path d="M4356,422 L2773,867" stroke="blue" stroke-width="2" />
<path d="M1623,166 L2194,227" stroke="blue" stroke-width="2" />
<path d="M7293,238 L3241,427" stroke="blue" stroke-width="2" />
<path d="M1860,771 L1464,268" stroke="blue" stroke-width="2" />
<path d="M6351,692 L8408,935" stroke="blue" stroke-width="2" />
<path d="M4697,46 L3603,1321" stroke="blue" stroke-width="2" />
<path d="M8151,692 L6960,284" stroke="blue" stroke-width="2" />
<path d="M7325,911 L354,685" stroke="blue" stroke-width="2" />
<path d="M2763,691 L3498,249" stroke="blue" stroke-width="2" />
<path d="M5260,530 L5196,76" stroke="blue" stroke-width="2" />
<path d="M6905,1070 L6682,117" stroke="blue" stroke-width="2" />
<path d="M5283,908 L3709,812" stroke="blue" stroke-width="2" />
<path d="M1701,806 L4337,904" stroke="blue" stroke-width="2" />
<path d="M2255,1295 L7433,642" stroke="blue" stroke-width="2" />
<path d="M5396,73 L5422,690" stroke="blue" stroke-width="2" />
<path d="M8227,896 L3361,1001" stroke="blue" stroke-width="2" />
<path d="M974,528 L931,208" stroke="blue" stroke-width="2" />
<path d="M7403,396 L6425,427" stroke="blue" stroke-width="2" />
<path d="M5855,1201 L5580,1217" stroke="blue" stroke-width="2" />
<path d="M1029,26 L837,1271" stroke="blue" stroke-width="2" />
<path d="M8323,541 L5358,769" stroke="blue" stroke-width="2" />
<path d="M158,482 L7422,735" stroke="blue" stroke-width="2" />
<path d="M8126,963 L2096,553" stroke="blue" stroke-width="2" />
<path d="M3313,135 L5209,187" stroke="blue" stroke-width="2" />
<path d="M2449,624 L2696,448" stroke="blue" stroke-width="2" />
<path d="M308,521 L1932,853" stroke="blue" stroke-width="2" />
<path d="M1123,970 L2056,193" stroke="blue" stroke-width="2" />
<path d="M3799,73 L4864,173" stroke="blue" stroke-width="2" />
<path d="M3285,1240 L5344,775" stroke="blue" stroke-width="2" />
<path d="M5330,434 L6065,802" stroke="blue" stroke-width="2" />
<path d="M1888,271 L3256,1242" stroke="blue" stroke-width="2" />
<path d="M3816,135 L5157,1117" stroke="blue" stroke-width="2" />
<path d="M682,841 L6259,1182" stroke="blue" stroke-width="2" />
<path d="M5686,384 L4047,775" stroke="blue" stroke-width="2" />
<path d="M3488,1097 L1893,235" stroke="blue" stroke-width="2" />
<path d="M8409,1276 L1942,909" stroke="blue" stroke-width="2" />
<path d="M1625,802 L4340,636" stroke="blue" stroke-width="2" />
<path d="M6446,652 L2235,837" stroke="blue" stroke-width="2" />
<path d="M4347,320 L7929,778" stroke="blue" stroke-width="2" />
<path d="M4661,461 L3804,922" stroke="blue" stroke-width="2" />
<path d="M5148,550 L832,486" stroke="blue" stroke-width="2" />
<path d="M2037,185 L8333,444" stroke="blue" stroke-width="2" />
<path d="M8272,475 L6475,1311" stroke="blue" stroke-width="2" />
<path d="M846,686 L74,713" stroke="blue" stroke-width="2" />
<path d="M201,463 L8283,256" stroke="blue" stroke-width="2" />
<path d="M2067,752 L5839,43" stroke="blue" stroke-width="2" />
<path d="M6674,832 L5390,353" stroke="blue" stroke-width="2" />
<path d="M4653,826 L8106,815" stroke="blue" stroke-width="2" />
<path d="M2026,853 L2663,171" stroke="blue" stroke-width="2" />
<path d="M5547,305 L3293,580" stroke="blue" stroke-width="2" />
<path d="M882,257 L894,1118" stroke="blue" stroke-width="2" />
<path d="M5448,607 L3197,85" stroke="blue" stroke-width="2" />
<path d="M5745,1141 L4868,657" stroke="blue" stroke-width="2" />
<path d="M1840,92 L8162,1046" stroke="blue" stroke-width="2" />
<path d="M3736,668 L355,974" stroke="blue" stroke-width="2" />
<path d="M3858,553 L25,464" stroke="blue" stroke-width="2" />
<path d="M6434,168 L7342,1051" stroke="blue" stroke-width="2" />
<path d="M2781,1187 L982,1050" stroke="blue" stroke-width="2" />
<path d="M4430,1065 L1821,215" stroke="blue" stroke-width="2" />
<path d="M5325,317 L6319,172" stroke="blue" stroke-width="2" />
<path d="M4369,1328 L462,738" stroke="blue" stroke-width="2" />
<path d="M4996,1172 L3959,885" stroke="blue" stroke-width="2" />
<path d="M1490,189 L7704,911" stroke="blue" stroke-width="2" />
<path d="M2605,302 L361,811" stroke="blue" stroke-width="2" />
<path d="M8382,431 L7569,72" stroke="blue" stroke-width="2" />
<path d="M6562,192 L2032,799" stroke="blue" stroke-width="2" />
<path d="M2296,491 L3002,286" stroke="blue" stroke-width="2" />
<path d="M569,1067 L1664,1129" stroke="blue" stroke-width="2" />
<path d="M5129,337 L3179,784" stroke="blue" stroke-width="2" />
<path d="M4901,79 L1700,133" stroke="blue" stroke-width="2" />
<path d="M7602,968 L6706,815" stroke="blue" stroke-width="2" />
<path d="M5391,704 L3525,761" stroke="blue" stroke-width="2" />
<path d="M5007,53 L975,426" stroke="blue" stroke-width="2" />
<path d="M1371,1321 L6075,406" stroke="blue" stroke-width="2" />
<path d="M6221,253 L4671,201" stroke="blue" stroke-width="2" />
<path d="M3724,992 L2604,634" stroke="blue" stroke-width="2" />
<path d="M8113,1178 L5386,1096" stroke="blue" stroke-width="2" />
<path d="M3625,1212 L6942,1209" stroke="blue" stroke-width="2" />
<path d="M7063,702 L1732,131" stroke="blue" stroke-width="2" />
<path d="M8084,732 L6278,57" stroke="blue" stroke-width="2" />
<path d="M5587,54 L7340,102" stroke="blue" stroke-width="2" />
<path d="M3310,1241 L2349,145" stroke="blue" stroke-width="2" />
<path d="M7745,1179 L2179,818" stroke="blue" stroke-width="2" />
<path d="M6778,392 L5219,332" stroke="blue" stroke-width="2" />
<path d="M5666,1296 L4107,516" stroke="blue" stroke-width="2" />
<path d="M3060,1295 L4897,303" stroke="blue" stroke-width="2" />
<path d="M2732,1276 L8093,962" stroke="blue" stroke-width="2" />
<path d="M2607,656 L6286,782" stroke="blue" stroke-width="2" />
<path d="M1792,545 L8166,1153" stroke="blue" stroke-width="2" />
<path d="M6735,381 L7154,821" stroke="blue" stroke-width="2" />
<path d="M8006,343 L7375,540" stroke="blue" stroke-width="2" />
<path d="M8259,449 L3610,796" stroke="blue" stroke-width="2" />
<path d="M1760,639 L7764,748" stroke="blue" stroke-width="2" />
<path d="M6650,337 L6766,825" stroke="blue" stroke-width="2" />
<path d="M192,686 L5665,1310" stroke="blue" stroke-width="2" />
<path d="M8453,775 L823,507" stroke="blue" stroke-width="2" />
<path d="M3215,229 L2068,268" stroke="blue" stroke-width="2" />
<path d="M3325,1110 L1457,462" stroke="blue" stroke-width="2" />
<path d="M5408,674 L6546,439" stroke="blue" stroke-width="2" />
<path d="M6969,1044 L4002,1210" stroke="blue" stroke-width="2" />
<path d="M700,1152 L3939,192" stroke="blue" stroke-width="2" />
<path d="M7124,325 L1151,108" stroke="blue" stroke-width="2" />
<path d="M3535,574 L7216,51" stroke="blue" stroke-width="2" />
<path d="M5460,1115 L3299,468" stroke="blue" stroke-width="2" />
<path d="M7752,745 L2064,167" stroke="blue" stroke-width="2" />
<path d="M3800,1049 L7484,67" stroke="blue" stroke-width="2" />
<path d="M4946,883 L3154,450" stroke="blue" stroke-width="2" />
<path d="M7007,433 L2441,626" stroke="blue" stroke-width="2" />
<path d="M3165,471 L6957,410" stroke="blue" stroke-width="2" />
<path d="M5804,395 L7941,316" stroke="blue" stroke-width="2" />
<path d="M3689,1301 L3983,133" stroke="blue" stroke-width="2" />
<path d="M1164,350 L5004,989" stroke="blue" stroke-width="2" />
<path d="M263,150 L305,381" stroke="blue" stroke-width="2" />
<path d="M2050,1298 L4400,1282" stroke="blue" stroke-width="2" />
<path d="M6310,1031 L3611,555" stroke="blue" stroke-width="2" />
<path d="M5446,962 L2493,160" stroke="blue" stroke-width="2" />
<path d="M748,688 L7741,975" stroke="blue" stroke-width="2" />
<path d="M1808,889 L7916,502" stroke="blue" stroke-width="2" />
<path d="M6317,683 L3402,761" stroke="blue" stroke-width="2" />
<path d="M2655,845 L4295,826" stroke="blue" stroke-width="2" />
<path d="M2266,435 L6404,623" stroke="blue" stroke-width="2" />
<path d="M4024,667 L8123,21" stroke="blue" stroke-width="2" />
<path d="M4945,367 L3060,953" stroke="blue" stroke-width="2" />
<path d="M2132,14 L1482,1202" stroke="blue" stroke-width="2" />
<path d="M7508,267 L753,567" stroke="blue" stroke-width="2" />
<path d="M1687,1304 L3924,854" stroke="blue" stroke-width="2" />
<path d="M5413,248 L3687,568" stroke="blue" stroke-width="2" />
<path d="M5603,1051 L2055,1181" stroke="blue" stroke-width="2" />
<path d="M2372,896 L5509,504" stroke="blue" stroke-width="2" />
<path d="M2285,435 L2868,588" stroke="blue" stroke-width="2" />
<path d="M1228,495 L5228,214" stroke="blue" stroke-width="2" />
<path d="M6445,290 L8247,249" stroke="blue" stroke-width="2" />
<path d="M5557,126 L71,772" stroke="blue" stroke-width="2" />
<path d="M648,833 L308,349" stroke="blue" stroke-width="2" />
<path d="M2053,786 L7654,709" stroke="blue" stroke-width="2" />
<path d="M5030,1059 L389,555" stroke="blue" stroke-width="2" />
<path d="M5339,237 L3200,8" stroke="blue" stroke-width="2" />
<path d="M536,695 L6542,96" stroke="blue" stroke-width="2" />
<path d="M7044,959 L4627,119" stroke="blue" stroke-width="2" />
<path d="M1235,426 L7663,1086" stroke="blue" stroke-width="2" />
<path d="M1267,5 L7294,299" stroke="blue" stroke-width="2" />
<path d="M1514,286 L2515,90" stroke="blue" stroke-width="2" />
<path d="M8079,434 L5353,138" stroke="blue" stroke-width="2" />
<path d="M773,856 L3763,1331" stroke="blue" stroke-width="2" />
<path d="M3288,408 L2751,1337" stroke="blue" stroke-width="2" />
<path d="M7167,882 L2427,356" stroke="blue" stroke-width="2" />
<path d="M1135,278 L1668,719" stroke="blue" stroke-width="2" />
<path d="M5045,729 L1160,1287" stroke="blue" stroke-width="2" />
<path d="M4146,998 L7255,433" stroke="blue" stroke-width="2" />
<path d="M2001,457 L1541,232" stroke="blue" stroke-width="2" />
<path d="M911,4 L339,745" stroke="blue" stroke-width="2" />
<path d="M7876,562 L6647,1190" stroke="blue" stroke-width="2" />
<path d="M3435,925 L8519,200" stroke="blue" stroke-width="2" />
<path d="M1316,911 L7819,1328" stroke="blue" stroke-width="2" />
<path d="M7175,1302 L1747,319" stroke="blue" stroke-width="2" />
<path d="M4232,938 L6423,1149" stroke="blue" stroke-width="2" />
<path d="M6284,1331 L6511,113" stroke="blue" stroke-width="2" />
<path d="M2537,393 L3167,1137" stroke="blue" stroke-width="2" />
<path d="M5942,1272 L6439,968" stroke="blue" stroke-width="2" />
<path d="M4435,18 L8029,280" stroke="blue" stroke-width="2" />
<path d="M782,544 L2072,1155" stroke="blue" stroke-width="2" />
<path d="M2457,376 L7423,483" stroke="blue" stroke-width="2" />
<path d="M8153,909 L4614,1289" stroke="blue" stroke-width="2" />
<path d="M902,1324 L4567,70" stroke="blue" stroke-width="2" />
<path d="M722,782 L7510,219" stroke="blue" stroke-width="2" />
<path d="M1386,461 L6048,1092" stroke="blue" stroke-width="2" />
<path d="M5249,874 L3176,868" stroke="blue" stroke-width="2" />
<path d="M5212,579 L6979,771" stroke="blue" stroke-width="2" />
<path d="M5971,115 L1167,135" stroke="blue" stroke-width="2" />
<path d="M7644,361 L4194,1156" stroke="blue" stroke-width="2" />
<path d="M255,722 L2638,910" stroke="blue" stroke-width="2" />
<path d="M6828,303 L3405,676" stroke="blue" stroke-width="2" />
<path d="M3155,1033 L3443,839" stroke="blue" stroke-width="2" />
<path d="M2637,817 L8091,711" stroke="blue" stroke-width="2" />
<path d="M2726,1156 L3859,950" stroke="blue" stroke-width="2" />
<path d="M4554,424 L1683,705" stroke="blue" stroke-width="2" />
<path d="M4926,733 L6549,417" stroke="blue" stroke-width="2" />
<path d="M6540,951 L2570,545" stroke="blue" stroke-width="2" />
<path d="M1678,310 L5288,500" stroke="blue" stroke-width="2" />
<path d="M2658,45 L1626,351" stroke="blue" stroke-width="2" />
<path d="M8203,643 L5002,635" stroke="blue" stroke-width="2" />
<path d="M5410,694 L7838,79" stroke="blue" stroke-width="2" />
<path d="M2774,787 L8235,509" stroke="blue" stroke-width="2" />
<path d="M1495,1186 L8325,924" stroke="blue" stroke-width="2" />
<path d="M4841,427 L7737,822" stroke="blue" stroke-width="2" />
<path d="M2599,383 L469,877" stroke="blue" stroke-width="2" />
<path d="M5030,1179 L2424,962" stroke="blue" stroke-width="2" />
<path d="M5214,852 L7785,848" stroke="blue" stroke-width="2" />
<path d="M962,923 L39,95" stroke="blue" stroke-width="2" />
<path d="M7663,165 L7323,32" stroke="blue" stroke-width="2" />
<path d="M2047,390 L7033,708" stroke="blue" stroke-width="2" />
<path d="M4014,948 L158,1008" stroke="blue" stroke-width="2" />
<path d="M2920,16 L1770,1138" stroke="blue" stroke-width="2" />
<path d="M8514,847 L88,53" stroke="blue" stroke-width="2" />
<path d="M2065,1170 L689,450" stroke="blue" stroke-width="2" />
<path d="M6729,1275 L1124,890" stroke="blue" stroke-width="2" />
<path d="M5088,104 L4488,162" stroke="blue" stroke-width="2" />
<path d="M4675,975 L7031,253" stroke="blue" stroke-width="2" />
<path d="M1610,329 L6173,1238" stroke="blue" stroke-width="2" />
<path d="M8322,913 L6374,176" stroke="blue" stroke-width="2" />
<path d="M96,174 L4536,355" stroke="blue" stroke-width="2" />
<path d="M218,52 L7693,629" stroke="blue" stroke-width="2" />
<path d="M3625,977 L0,521" stroke="blue" stroke-width="2" />
<path d="M4494,1144 L2155,518" stroke="blue" stroke-width="2" />
<path d="M6691,249 L2304,887" stroke="blue" stroke-width="2" />
<path d="M2788,259 L4886,173" stroke="blue" stroke-width="2" />
<path d="M7084,219 L6494,241" stroke="blue" stroke-width="2" />
<path d="M3773,1148 L95,100" stroke="blue" stroke-width="2" />
<path d="M598,360 L6978,1333" stroke="blue" stroke-width="2" />
<path d="M3579,956 L2519,82" stroke="blue" stroke-width="2" />
<path d="M1166,325 L5862,652" stroke="blue" stroke-width="2" />
<path d="M1329,1036 L5259,190" stroke="blue" stroke-width="2" />
<path d="M4137,134 L7584,249" stroke="blue" stroke-width="2" />
<path d="M893,864 L4596,657" stroke="blue" stroke-width="2" />
<path d="M4735,122 L4024,1034" stroke="blue" stroke-width="2" />
<path d="M2186,993 L4702,129" stroke="blue" stroke-width="2" />
<path d="M4160,1206 L4424,1146" stroke="blue" stroke-width="2" />
<path d="M7516,254 L4514,518" stroke="blue" stroke-width="2" />
<path d="M2700,27 L5296,1256" stroke="blue" stroke-width="2" />
<path d="M7557,1049 L6104,866" stroke="blue" stroke-width="2" />
<path d="M3797,86 L7659,1109" stroke="blue" stroke-width="2" />
<path d="M3638,1274 L6424,824" stroke="blue" stroke-width="2" />
<path d="M3914,245 L2159,1050" stroke="blue" stroke-width="2" />
<path d="M5868,307 L6253,654" stroke="blue" stroke-width="2" />
<path d="M1880,1308 L4527,1062" stroke="blue" stroke-width="2" />
<path d="M7721,1261 L6266,637" stroke="blue" stroke-width="2" />
<path d="M6888,21 L6820,1241" stroke="blue" stroke-width="2" />
<path d="M2731,768 L2700,207" stroke="blue" stroke-width="2" />
<path d="M656,138 L2088,855" stroke="blue" stroke-width="2" />
<path d="M6686,782 L5259,790" stroke="blue" stroke-width="2" />
<path d="M5093,140 L2127,623" stroke="blue" stroke-width="2" />
<path d="M7253,218 L2813,796" stroke="blue" stroke-width="2" />
<path d="M8043,765 L4945,548" stroke="blue" stroke-width="2" />
<path d="M5352,429 L1601,956" stroke="blue" stroke-width="2" />
<path d="M4770,557 L4482,655" stroke="blue" stroke-width="2" />
<path d="M8063,1327 L6436,1218" stroke="blue" stroke-width="2" />
<path d="M2128,622 L457,47" stroke="blue" stroke-width="2" />
<path d="M2985,1083 L1417,604" stroke="blue" stroke-width="2" />
<path d="M7932,252 L136,768" stroke="blue" stroke-width="2" />
<path d="M1079,612 L7333,624" stroke="blue" stroke-width="2" />
<path d="M7439,451 L3170,941" stroke="blue" stroke-width="2" />
<path d="M6008,1250 L504,1096" stroke="blue" stroke-width="2" />
<path d="M5388,576 L3984,562" stroke="blue" stroke-width="2" />
<path d="M2041,161 L2193,270" stroke="blue" stroke-width="2" />
<path d="M459,337 L5019,1109" stroke="blue" stroke-width="2" />
<path d="M1065,945 L6196,696" stroke="blue" stroke-width="2" />
<path d="M4542,510 L5172,670" stroke="blue" stroke-width="2" />
<path d="M8331,558 L666,737" stroke="blue" stroke-width="2" />
<path d="M6910,1267 L4470,69" stroke="blue" stroke-width="2" />
<path d="M1222,978 L7435,1025" stroke="blue" stroke-width="2" />
<path d="M450,37 L2974,181" stroke="blue" stroke-width="2" />
<path d="M4117,444 L122,29" stroke="blue" stroke-width="2" />
<path d="M6413,877 L1610,653" stroke="blue" stroke-width="2" />
<path d="M8299,62 L2857,848" stroke="blue" stroke-width="2" />
<path d="M1944,840 L5944,390" stroke="blue" stroke-width="2" />
<path d="M1329,818 L1905,1135" stroke="blue" stroke-width="2" />
<path d="M6465,1261 L4127,854" stroke="blue" stroke-width="2" />
<path d="M3166,381 L3457,374" stroke="blue" stroke-width="2" />
<path d="M5511,1004 L1159,266" stroke="blue" stroke-width="2" />
<path d="M1136,62 L7121,657" stroke="blue" stroke-width="2" />
<path d="M3512,450 L4917,556" stroke="blue" stroke-width="2" />
<path d="M4392,261 L3325,1268" stroke="blue" stroke-width="2" />
<path d="M3165,978 L1544,1132" stroke="blue" stroke-width="2" />
<path d="M6590,317 L5989,180" stroke="blue" stroke-width="2" />
<path d="M7860,1168 L3980,189" stroke="blue" stroke-width="2" />
<path d="M5060,457 L1272,1049" stroke="blue" stroke-width="2" />
<path d="M5006,991 L4723,341" stroke="blue" stroke-width="2" />
<path d="M5373,968 L7834,216" stroke="blue" stroke-width="2" />
<path d="M4982,892 L121,124" stroke="blue" stroke-width="2" />
<path d="M6349,1198 L4234,503" stroke="blue" stroke-width="2" />
<path d="M4585,46 L5349,676" stroke="blue" stroke-width="2" />
<path d="M4110,1097 L7068,507" stroke="blue" stroke-width="2" />
<path d="M970,1219 L879,27" stroke="blue" stroke-width="2" />
<path d="M169,389 L6802,10" stroke="blue" stroke-width="2" />
<path d="M6376,41 L4597,188" stroke="blue" stroke-width="2" />
<path d="M430,1020 L4110,927" stroke="blue" stroke-width="2" />
<path d="M5552,958 L6641,1193" stroke="blue" stroke-width="2" />
<path d="M8419,630 L2351,781" stroke="blue" stroke-width="2" />
<path d="M1001,1325 L6652,905" stroke="blue" stroke-width="2" />
<path d="M3556,276 L2434,970" stroke="blue" stroke-width="2" />
<path d="M6515,73 L5015,383" stroke="blue" stroke-width="2" />
<path d="M6724,349 L203,477" stroke="blue" stroke-width="2" />
<path d="M4778,945 L5580,363" stroke="blue" stroke-width="2" />
<path d="M3750,61 L7394,30" stroke="blue" stroke-width="2" />
<path d="M1590,1139 L2476,9" stroke="blue" stroke-width="2" />
<path d="M2282,1034 L3384,968" stroke="blue" stroke-width="2" />
<path d="M5260,1184 L5774,702" stroke="blue" stroke-width="2" />
<path d="M7595,457 L3255,453" stroke="blue" stroke-width="2" />
<path d="M7534,38 L4144,4" stroke="blue" stroke-width="2" />
<path d="M7600,964 L1315,200" stroke="blue" stroke-width="2" />
<path d="M4037,157 L6601,301" stroke="blue" stroke-width="2" />
<path d="M2744,657 L2019,613" stroke="blue" stroke-width="2" />
<path d="M1074,487 L5314,1214" stroke="blue" stroke-width="2" />
<path d="M4630,386 L6557,654" stroke="blue" stroke-width="2" />
<path d="M5972,552 L1277,277" stroke="blue" stroke-width="2" />
<path d="M6620,452 L70,1183" stroke="blue" stroke-width="2" />
<path d="M4391,1259 L6204,503" stroke="blue" stroke-width="2" />
<path d="M6312,1127 L6823,368" stroke="blue" stroke-width="2" />
<path d="M6659,1198 L3947,705" stroke="blue" stroke-width="2" />
<path d="M8303,169 L5100,30" stroke="blue" stroke-width="2" />
<path d="M3081,255 L6990,59" stroke="blue" stroke-width="2" />
<path d="M827,335 L1449,470" stroke="blue" stroke-width="2" />
<path d="M6550,763 L1123,896" stroke="blue" stroke-width="2" />
<path d="M7404,198 L7386,644" stroke="blue" stroke-width="2" />
<path d="M3885,315 L3225,432" stroke="blue" stroke-width="2" />
<path d="M8089,750 L3632,771" stroke="blue" stroke-width="2" />
<path d="M6193,18 L2209,214" stroke="blue" stroke-width="2" />
<path d="M1003,459 L7351,220" stroke="blue" stroke-width="2" />
<path d="M761,1317 L7004,15" stroke="blue" stroke-width="2" />
<path d="M8486,317 L753,1210" stroke="blue" stroke-width="2" />
<path d="M2954,859 L2703,627" stroke="blue" stroke-width="2" />
<path d="M626,143 L6376,321" stroke="blue" stroke-width="2" />
<path d="M5897,1077 L272,906" stroke="blue" stroke-width="2" />
<path d="M5152,438 L914,554" stroke="blue" stroke-width="2" />
<path d="M2092,1211 L3609,80" stroke="blue" stroke-width="2" />
<path d="M8478,1170 L644,1228" stroke="blue" stroke-width="2" />
<path d="M7928,475 L6286,1280" stroke="blue" stroke-width="2" />
<path d="M3806,849 L6876,832" stroke="blue" stroke-width="2" />
<path d="M2144,797 L4179,738" stroke="blue" stroke-width="2" />
<path d="M847,1019 L806,188" stroke="blue" stroke-width="2" />
<path d="M8305,314 L487,624" stroke="blue" stroke-width="2" />
<path d="M6700,486 L1625,495" stroke="blue" stroke-width="2" />
<path d="M4600,247 L4484,1120" stroke="blue" stroke-width="2" />
<path d="M4157,131 L7958,637" stroke="blue" stroke-width="2" />
<path d="M3995,481 L6704,967" stroke="blue" stroke-width="2" />
<path d="M1223,12 L8355,689" stroke="blue" stroke-width="2" />
<path d="M1694,696 L1306,988" stroke="blue" stroke-width="2" />
<path d="M3366,1240 L721,46" stroke="blue" stroke-width="2" />
<path d="M2257,256 L1197,909" stroke="blue" stroke-width="2" />
<path d="M5387,410 L5468,1270" stroke="blue" stroke-width="2" />
<path d="M5950,772 L3680,1208" stroke="blue" stroke-width="2" />
<path d="M7886,447 L2372,490" stroke="blue" stroke-width="2" />
<path d="M279,546 L5345,1294" stroke="blue" stroke-width="2" />
<path d="M2743,199 L4294,902" stroke="blue" stroke-width="2" />
<path d="M5718,594 L5358,583" stroke="blue" stroke-width="2" />
<path d="M2697,1008 L5631,1165" stroke="blue" stroke-width="2" />
<path d="M8255,1081 L5969,655" stroke="blue" stroke-width="2" />
<path d="M1932,592 L106,1198" stroke="blue" stroke-width="2" />
<path d="M2293,1100 L3770,542" stroke="blue" stroke-width="2" />
<path d="M1851,491 L7088,252" stroke="blue" stroke-width="2" />
<path d="M1112,659 L1885,989" stroke="blue" stroke-width="2" />
<path d="M2526,392 L4303,31" stroke="blue" stroke-width="2" />
<path d="M2007,504 L3569,1308" stroke="blue" stroke-width="2" />
<path d="M1207,622 L5431,986" stroke="blue" stroke-width="2" />
<path d="M5856,404 L3763,560" stroke="blue" stroke-width="2" />
<path d="M5281,1304 L4726,1243" stroke="blue" stroke-width="2" />
<path d="M945,994 L5051,634" stroke="blue" stroke-width="2" />
<path d="M6834,1151 L8041,946" stroke="blue" stroke-width="2" />
<path d="M7793,57 L2099,643" stroke="blue" stroke-width="2" />
<path d="M5244,1103 L3874,1149" stroke="blue" stroke-width="2" />
<path d="M4008,641 L2987,676" stroke="blue" stroke-width="2" />
<path d="M5137,781 L1807,1222" stroke="blue" stroke-width="2" />
<path d="M4484,248 L3471,374" stroke="blue" stroke-width="2" />
<path d="M7390,994 L3333,227" stroke="blue" stroke-width="2" />
<path d="M5255,1177 L421,187" stroke="blue" stroke-width="2" />
<path d="M978,865 L6762,870" stroke="blue" stroke-width="2" />
<path d="M5807,622 L4655,238" stroke="blue" stroke-width="2" />
<path d="M2036,86 L4635,1171" stroke="blue" stroke-width="2" />
<path d="M4432,505 L7122,876" stroke="blue" stroke-width="2" />
<path d="M3988,986 L775,51" stroke="blue" stroke-width="2" />
<path d="M7047,764 L8357,995" stroke="blue" stroke-width="2" />
<path d="M2582,772 L467,1277" stroke="blue" stroke-width="2" />
<path d="M3940,1193 L3921,932" stroke="blue" stroke-width="2" />
<path d="M6130,621 L3947,1067" stroke="blue" stroke-width="2" />
<path d="M8148,1156 L4787,66" stroke="blue" stroke-width="2" />
<path d="M144,718 L2565,1054" stroke="blue" stroke-width="2" />
<path d="M4200,5 L8497,1111" stroke="blue" stroke-width="2" />
<path d="M1659,21 L2027,602" stroke="blue" stroke-width="2" />
<path d="M6026,1042 L727,1211" stroke="blue" stroke-width="2" />
<path d="M2983,980 L5647,444" stroke="blue" stroke-width="2" />
<path d="M4569,1266 L5507,23" stroke="blue" stroke-width="2" />
<path d="M6125,33 L6221,27" stroke="blue" stroke-width="2" />
<path d="M5433,1090 L112,206" stroke="blue" stroke-width="2" />
<path d="M2820,553 L1587,1131" stroke="blue" stroke-width="2" />
<path d="M5569,71 L651,92" stroke="blue" stroke-width="2" />
<path d="M7616,614 L5816,1134" stroke="blue" stroke-width="2" />
<path d="M5865,1124 L2825,874" stroke="blue" stroke-width="2" />
<path d="M212,1109 L2792,726" stroke="blue" stroke-width="2" />
<path d="M4971,218 L4483,383" stroke="blue" stroke-width="2" />
<path d="M4775,729 L3268,592" stroke="blue" stroke-width="2" />
<path d="M8362,166 L2801,733" stroke="blue" stroke-width="2" />
<path d="M8068,655 L3734,1055" stroke="blue" stroke-width="2" />
<path d="M2089,519 L972,167" stroke="blue" stroke-width="2" />
<path d="M201,1020 L1136,548" stroke="blue" stroke-width="2" />
<path d="M6828,292 L4691,538" stroke="blue" stroke-width="2" />
<path d="M5886,62 L2341,284" stroke="blue" stroke-width="2" />
<path d="M368,726 L3245,91" stroke="blue" stroke-width="2" />
<path d="M1838,102 L2404,1262" stroke="blue" stroke-width="2" />
<path d="M814,998 L101,1141" stroke="blue" stroke-width="2" />
<path d="M3529,70 L5040,1078" stroke="blue" stroke-width="2" />
<path d="M3853,544 L2303,553" stroke="blue" stroke-width="2" />
<path d="M5707,1338 L3063,1005" stroke="blue" stroke-width="2" />
<path d="M8425,346 L7975,436" stroke="blue" stroke-width="2" />
<path d="M6668,510 L5224,919" stroke="blue" stroke-width="2" />
<path d="M5932,203 L7886,865" stroke="blue" stroke-width="2" />
<path d="M7173,50 L5936,425" stroke="blue" stroke-width="2" />
<path d="M5375,825 L5813,660" stroke="blue" stroke-width="2" />
<path d="M5691,300 L881,994" stroke="blue" stroke-width="2" />
<path d="M5869,55 L7649,852" stroke="blue" stroke-width="2" />
<path d="M2664,993 L2377,619" stroke="blue" stroke-width="2" />
<path d="M6675,1079 L6507,669" stroke="blue" stroke-width="2" />
<path d="M5735,174 L5165,1190" stroke="blue" stroke-width="2" />
<path d="M2118,338 L3413,1090" stroke="blue" stroke-width="2" />
<path d="M1405,1088 L428,1230" stroke="blue" stroke-width="2" />
<path d="M5068,159 L2151,1230" stroke="blue" stroke-width="2" />
<path d="M3253,1021 L2090,930" stroke="blue" stroke-width="2" />
<path d="M3253,1066 L6553,812" stroke="blue" stroke-width="2" />
<path d="M1222,1025 L5646,1219" stroke="blue" stroke-width="2" />
<path d="M5122,818 L1173,1079" stroke="blue" stroke-width="2" />
<path d="M971,101 L5612,268" stroke="blue" stroke-width="2" />
<path d="M5924,103 L6426,1255" stroke="blue" stroke-width="2" />
<path d="M5650,438 L6207,68" stroke="blue" stroke-width="2" />
<path d="M877,63 L3181,414" stroke="blue" stroke-width="2" />
<path d="M5459,1165 L4576,543" stroke="blue" stroke-width="2" />
<path d="M3039,619 L3463,395" stroke="blue" stroke-width="2" />
<path d="M333,450 L8427,1049" stroke="blue" stroke-width="2" />
<path d="M7690,371 L4682,900" stroke="blue" stroke-width="2" />
<path d="M1761,410 L8224,665" stroke="blue" stroke-width="2" />
<path d="M6672,623 L5723,1334" stroke="blue" stroke-width="2" />
<path d="M579,980 L6438,249" stroke="blue" stroke-width="2" />
<path d="M5137,558 L6798,611" stroke="blue" stroke-width="2" />
<path d="M5110,958 L1378,367" stroke="blue" stroke-width="2" />
<path d="M1721,559 L5524,997" stroke="blue" stroke-width="2" />
<path d="M5998,914 L6622,575" stroke="blue" stroke-width="2" />
<path d="M1344,562 L4841,213" stroke="blue" stroke-width="2" />
<path d="M4003,326 L7394,973" stroke="blue" stroke-width="2" />
<path d="M1076,640 L6880,751" stroke="blue" stroke-width="2" />
<path d="M3841,659 L8088,87" stroke="blue" stroke-width="2" />
<path d="M931,631 L7701,1194" stroke="blue" stroke-width="2" />
<path d="M5614,709 L5239,1140" stroke="blue" stroke-width="2" />
<path d="M5229,506 L6599,167" stroke="blue" stroke-width="2" />
<path d="M1338,535 L6983,1160" stroke="blue" stroke-width="2" />
<path d="M7516,702 L4275,1052" stroke="blue" stroke-width="2" />
<path d="M1651,1039 L7477,253" stroke="blue" stroke-width="2" />
<path d="M4373,283 L2198,287" stroke="blue" stroke-width="2" />
<path d="M4042,392 L8112,1306" stroke="blue" stroke-width="2" />
<path d="M2462,1141 L2156,661" stroke="blue" stroke-width="2" />
<path d="M7762,276 L2781,702" stroke="blue" stroke-width="2" />
<path d="M7124,34 L4488,39" stroke="blue" stroke-width="2" />
<path d="M1850,1098 L2206,990" stroke="blue" stroke-width="2" />
<path d="M1371,51 L6630,221" stroke="blue" stroke-width="2" />
<path d="M2712,761 L3617,84" stroke="blue" stroke-width="2" />
<path d="M3039,993 L2719,1246" stroke="blue" stroke-width="2" />
<path d="M7943,645 L8156,275" stroke="blue" stroke-width="2" />
<path d="M8319,1284 L2179,1073" stroke="blue" stroke-width="2" />
<path d="M4426,943 L5452,60" stroke="blue" stroke-width="2" />
<path d="M1130,568 L5395,196" stroke="blue" stroke-width="2" />
<path d="M7710,884 L2024,1010" stroke="blue" stroke-width="2" />
<path d="M5103,423 L172,576" stroke="blue" stroke-width="2" />
<path d="M2652,40 L6712,954" stroke="blue" stroke-width="2" />
<path d="M5406,625 L5858,807" stroke="blue" stroke-width="2" />
<path d="M5182,85 L4702,9" stroke="blue" stroke-width="2" />
<path d="M893,697 L292,1003" stroke="blue" stroke-width="2" />
<path d="M1200,1332 L3186,441" stroke="blue" stroke-width="2" />
<path d="M4737,174 L7763,619" stroke="blue" stroke-width="2" />
<path d="M6322,114 L2639,635" stroke="blue" stroke-width="2" />
<path d="M6355,364 L5052,661" stroke="blue" stroke-width="2" />
<path d="M4093,220 L5219,810" stroke="blue" stroke-width="2" />
<path d="M3646,992 L3767,966" stroke="blue" stroke-width="2" />
<path d="M5636,316 L2455,383" stroke="blue" stroke-width="2" />
<path d="M3886,1296 L3320,94" stroke="blue" stroke-width="2" />
<path d="M1955,186 L2716,691" stroke="blue" stroke-width="2" />
<path d="M8039,707 L257,1302" stroke="blue" stroke-width="2" />
<path d="M3993,261 L7047,292" stroke="blue" stroke-width="2" />
<path d="M4671,976 L4004,681" stroke="blue" stroke-width="2" />
<path d="M3163,729 L4465,1329" stroke="blue" stroke-width="2" />
<path d="M7323,587 L6341,86" stroke="blue" stroke-width="2" />
<path d="M3989,174 L814,873" stroke="blue" stroke-width="2" />
<path d="M5554,1072 L6943,734" stroke="blue" stroke-width="2" />
<path d="M5841,25 L6920,397" stroke="blue" stroke-width="2" />
<path d="M7219,72 L1634,452" stroke="blue" stroke-width="2" />
<path d="M6515,184 L4915,1139" stroke="blue" stroke-width="2" />
<path d="M7115,499 L7520,1270" stroke="blue" stroke-width="2" />
<path d="M757,804 L657,214" stroke="blue" stroke-width="2" />
<path d="M7811,203 L3336,694" stroke="blue" stroke-width="2" />
<path d="M4574,800 L5869,621" stroke="blue" stroke-width="2" />
<path d="M874,1316 L4334,715" stroke="blue" stroke-width="2" />
<path d="M3719,1030 L6435,1167" stroke="blue" stroke-width="2" />
<path d="M365,578 L5313,522" stroke="blue" stroke-width="2" />
<path d="M494,1282 L4446,544" stroke="blue" stroke-width="2" />
<path d="M4046,788 L1330,478" stroke="blue" stroke-width="2" />
<path d="M3602,170 L2018,75" stroke="blue" stroke-width="2" />
<path d="M155,162 L5964,607" stroke="blue" stroke-width="2" />
<path d="M6951,81 L3234,502" stroke="blue" stroke-width="2" />
<path d="M4134,668 L8241,577" stroke="blue" stroke-width="2" />
<path d="M4603,405 L804,528" stroke="blue" stroke-width="2" />
<path d="M5026,569 L6924,522" stroke="blue" stroke-width="2" />
<path d="M446,1296 L1185,464" stroke="blue" stroke-width="2" />
<path d="M6038,1222 L392,397" stroke="blue" stroke-width="2" />
<path d="M5043,140 L7807,550" stroke="blue" stroke-width="2" />
<path d="M5753,277 L3709,1214" stroke="blue" stroke-width="2" />
<path d="M6384,376 L3075,230" stroke="blue" stroke-width="2" />
<path d="M5751,722 L7737,680" stroke="blue" stroke-width="2" />
<path d="M4432,750 L4210,575" stroke="blue" stroke-width="2" />
<path d="M8229,883 L7300,1242" stroke="blue" stroke-width="2" />
<path d="M6383,45 L4918,1305" stroke="blue" stroke-width="2" />
<path d="M6356,1153 L6849,808" stroke="blue" stroke-width="2" />
<path d="M6425,237 L7662,904" stroke="blue" stroke-width="2" />
<path d="M1788,742 L4927,90" stroke="blue" stroke-width="2" />
<path d="M3295,1190 L869,1326" stroke="blue" stroke-width="2" />
<path d="M8190,907 L3055,54" stroke="blue" stroke-width="2" />
<path d="M1381,269 L6939,73" stroke="blue" stroke-width="2" />
<path d="M8103,333 L5294,830" stroke="blue" stroke-width="2" />
<path d="M7456,519 L7894,313" stroke="blue" stroke-width="2" />
<path d="M3177,570 L3708,805" stroke="blue" stroke-width="2" />
<path d="M2314,79 L366,763" stroke="blue" stroke-width="2" />
<path d="M2859,615 L4844,834" stroke="blue" stroke-width="2" />
<path d="M590,715 L5668,749" stroke="blue" stroke-width="2" />
<path d="M6609,582 L7169,322" stroke="blue" stroke-width="2" />
<path d="M7627,256 L5447,118" stroke="blue" stroke-width="2" />
<path d="M7571,646 L6789,269" stroke="blue" stroke-width="2" />
<path d="M6148,427 L4506,556" stroke="blue" stroke-width="2" />
<path d="M2056,1141 L1954,75" stroke="blue" stroke-width="2" />
<path d="M4037,1236 L1730,135" stroke="blue" stroke-width="2" />
<path d="M735,383 L6144,1040" stroke="blue" stroke-width="2" />
<path d="M3062,1028 L2984,1319" stroke="blue" stroke-width="2" />
<path d="M0,0 L8521,0" stroke="red" stroke-width="10" />
<path d="M8521,0 L8521,1339" stroke="red" stroke-width="10" />
<path d="M0,1339 L8521,1339" stroke="red" stroke-width="10" />
<path d="M0,1339 L0,0" stroke="red" stroke-width="10" />
</svg>