<?xml version="1.0" encoding="UTF-8"?>
<svg xmlns="http://www.w3.org/2000/svg" xmlns:xlink="http://www.w3.org/1999/xlink"
     width="10000" height="10000" viewBox="0 0 10000 10000">
<defs>
</defs>
<path d="M513,6547 L568,5315" stroke="blue" stroke-width="2" />
<path d="M835,2327 L1086,2535" stroke="blue" stroke-width="2" />
<path d="M1888,1950 L2234,5468" stroke="blue" stroke-width="2" />
<path d="M363,218 L1809,6095" stroke="blue" stroke-width="2" />
<path d="M2209,809 L1076,4758" stroke="blue" stroke-width="2" />
<path d="M2139,5051 L1889,688" stroke="blue" stroke-width="2" />
<path d="M2266,4036 L164,2820" stroke="blue" stroke-width="2" />
<path d="M878,476 L750,3374" stroke="blue" stroke-width="2" />
<path d="M225,1705 L493,3238" stroke="blue" stroke-width="2" />
<path d="M1132,4329 L56,4378" stroke="blue" stroke-width="2" />
<path d="M2088,296 L1636,3220" stroke="blue" stroke-width="2" />
<path d="M1218,4317 L1100,915" stroke="blue" stroke-width="2" />
<path d="M154,5975 L2067,5599" stroke="blue" stroke-width="2" />
<path d="M2957,6943 L741,4123" stroke="blue" stroke-width="2" />
<path d="M3095,5903 L491,6190" stroke="blue" stroke-width="2" />
<path d="M2841,5491 L564,6725" stroke="blue" stroke-width="2" />
<path d="M2784,1876 L1207,2362" stroke="blue" stroke-width="2" />
<path d="M3091,587 L2483,4992" stroke="blue" stroke-width="2" />
<path d="M1989,6015 L2156,6839" stroke="blue" stroke-width="2" />
<path d="M2946,2060 L783,812" stroke="blue" stroke-width="2" />
<path d="M2726,4779 L2530,2693" stroke="blue" stroke-width="2" />
<path d="M51,6933 L2127,3086" stroke="blue" stroke-width="2" />
<path d="M2282,2539 L2661,3409" stroke="blue" stroke-width="2" />
<path d="M1814,4786 L2612,607" stroke="blue" stroke-width="2" />
<path d="M1023,2294 L2244,6287" stroke="blue" stroke-width="2" />
<path d="M1475,4981 L2794,2617" stroke="blue" stroke-width="2" />
<path d="M1743,6053 L1181,5263" stroke="blue" stroke-width="2" />
<path d="M14,3496 L758,5411" stroke="blue" stroke-width="2" />
<path d="M2165,1192 L2019,5208" stroke="blue" stroke-width="2" />
<path d="M1941,2354 L213,897" stroke="blue" stroke-width="2" />
<path d="M1276,2629 L1881,269" stroke="blue" stroke-width="2" />
<path d="M725,2336 L1089,716" stroke="blue" stroke-width="2" />
<path d="M1434,328 L2796,6423" stroke="blue" stroke-width="2" />
<path d="M2062,1185 L109,3606" stroke="blue" stroke-width="2" />
<path d="M1879,460 L1159,632" stroke="blue" stroke-width="2" />
<path d="M2957,372 L1147,4664" stroke="blue" stroke-width="2" />
<path d="M1156,3558 L373,1804" stroke="blue" stroke-width="2" />
<path d="M1420,4597 L1996,5744" stroke="blue" stroke-width="2" />
<path d="M2749,1152 L761,758" stroke="blue" stroke-width="2" />
<path d="M1731,5725 L200,4040" stroke="blue" stroke-width="2" />
<path d="M1985,3230 L3096,2796" stroke="blue" stroke-width="2" />
<path d="M345,10 L2738,1549" stroke="blue" stroke-width="2" />
<path d="M1951,3062 L1141,7116" stroke="blue" stroke-width="2" />
<path d="M206,3206 L2982,5856" stroke="blue" stroke-width="2" />
<path d="M81,6901 L846,1829" stroke="blue" stroke-width="2" />
<path d="M1584,4455 L2042,3330" stroke="blue" stroke-width="2" />
<path d="M3002,926 L2960,6334" stroke="blue" stroke-width="2" />
<path d="M2411,936 L2308,2909" stroke="blue" stroke-width="2" />
<path d="M95,5539 L1783,6944" stroke="blue" stroke-width="2" />
<path d="M1318,6938 L1887,7107" stroke="blue" stroke-width="2" />
<path d="M1285,6139 L472,5626" stroke="blue" stroke-width="2" />
<path d="M2916,62 L1424,5461" stroke="blue" stroke-width="2" />
<path d="M420,5810 L2613,2216" stroke="blue" stroke-width="2" />
<path d="M2392,6169 L2204,3409" stroke="blue" stroke-width="2" />
<path d="M1959,5819 L2394,6512" stroke="blue" stroke-width="2" />
<path d="M2337,528 L1762,5321" stroke="blue" stroke-width="2" />
<path d="M3124,403 L806,1550" stroke="blue" stroke-width="2" />
<path d="M2944,4096 L3091,1634" stroke="blue" stroke-width="2" />
<path d="M1577,911 L2222,2624" stroke="blue" stroke-width="2" />
<path d="M3075,6144 L2121,3944" stroke="blue" stroke-width="2" />
<path d="M599,5759 L336,371" stroke="blue" stroke-width="2" />
<path d="M47,6380 L346,1271" stroke="blue" stroke-width="2" />
<path d="M1449,4711 L2354,5538" stroke="blue" stroke-width="2" />
<path d="M208,2349 L214,3682" stroke="blue" stroke-width="2" />
<path d="M3069,2765 L561,4408" stroke="blue" stroke-width="2" />
<path d="M2145,126 L1095,353" stroke="blue" stroke-width="2" />
<path d="M3037,6197 L2119,6845" stroke="blue" stroke-width="2" />
<path d="M874,6511 L1371,4590" stroke="blue" stroke-width="2" />
<path d="M1988,6215 L2788,1839" stroke="blue" stroke-width="2" />
<path d="M1399,2248 L2337,1454" stroke="blue" stroke-width="2" />
<path d="M69,2406 L835,3139" stroke="blue" stroke-width="2" />
<path d="M159,3192 L1529,1627" stroke="blue" stroke-width="2" />
<path d="M1881,4453 L2232,5658" stroke="blue" stroke-width="2" />
<path d="M197,2499 L1070,2467" stroke="blue" stroke-width="2" />
<path d="M664,101 L1157,5077" stroke="blue" stroke-width="2" />
<path d="M1633,4707 L3137,3072" stroke="blue" stroke-width="2" />
<path d="M1818,1071 L2795,4684" stroke="blue" stroke-width="2" />
<path d="M130,2769 L1462,5120" stroke="blue" stroke-width="2" />
<path d="M231,4329 L2123,4184" stroke="blue" stroke-width="2" />
<path d="M2228,5575 L2031,2098" stroke="blue" stroke-width="2" />
<path d="M2749,6826 L1393,1812" stroke="blue" stroke-width="2" />
<path d="M2381,1450 L2495,4982" stroke="blue" stroke-width="2" />
<path d="M2312,5796 L2158,4241" stroke="blue" stroke-width="2" />
<path d="M2271,212 L1948,873" stroke="blue" stroke-width="2" />
<path d="M1674,1890 L917,5839" stroke="blue" stroke-width="2" />
<path d="M2942,2709 L615,6913" stroke="blue" stroke-width="2" />
<path d="M1342,6267 L2782,1038" stroke="blue" stroke-width="2" />
<path d="M428,1501 L860,1523" stroke="blue" stroke-width="2" />
<path d="M1531,4056 L468,124" stroke="blue" stroke-width="2" />
<path d="M1187,3186 L2673,2963" stroke="blue" stroke-width="2" />
<path d="M556,6260 L1427,451" stroke="blue" stroke-width="2" />
<path d="M774,3266 L1224,3578" stroke="blue" stroke-width="2" />
<path d="M3014,1684 L706,5232" stroke="blue" stroke-width="2" />
<path d="M2654,2276 L226,421" stroke="blue" stroke-width="2" />
<path d="M2658,3787 L1894,5702" stroke="blue" stroke-width="2" />
<path d="M2012,6817 L2117,682" stroke="blue" stroke-width="2" />
<path d="M975,3966 L1451,6173" stroke="blue" stroke-width="2" />
<path d="M927,7063 L906,3024" stroke="blue" stroke-width="2" />
<path d="M3116,6557 L2630,6258" stroke="blue" stroke-width="2" />
<path d="M2311,835 L2250,153" stroke="blue" stroke-width="2" />
<path d="M1077,4082 L803,4625" stroke="blue" stroke-width="2" />
<path d="M187,2605 L1160,3432" stroke="blue" stroke-width="2" />
<path d="M1462,7108 L1459,1152" stroke="blue" stroke-width="2" />
<path d="M2171,4917 L1927,4864" stroke="blue" stroke-width="2" />
<path d="M1858,104 L1863,5897" stroke="blue" stroke-width="2" />
<path d="M491,3267 L2785,544" stroke="blue" stroke-width="2" />
<path d="M2409,7003 L1914,1983" stroke="blue" stroke-width="2" />
<path d="M975,1935 L1850,1885" stroke="blue" stroke-width="2" />
<path d="M823,7120 L1498,4768" stroke="blue" stroke-width="2" />
<path d="M2267,1590 L2380,2766" stroke="blue" stroke-width="2" />
<path d="M1836,3653 L409,4486" stroke="blue" stroke-width="2" />
<path d="M421,2655 L1947,1476" stroke="blue" stroke-width="2" />
<path d="M870,432 L2738,3790" stroke="blue" stroke-width="2" />
<path d="M2754,2730 L483,5247" stroke="blue" stroke-width="2" />
<path d="M2511,653 L2224,1207" stroke="blue" stroke-width="2" />
<path d="M694,4336 L2026,1603" stroke="blue" stroke-width="2" />
<path d="M853,2262 L1190,2165" stroke="blue" stroke-width="2" />
<path d="M1411,1580 L607,630" stroke="blue" stroke-width="2" />
<path d="M2467,2559 L530,6317" stroke="blue" stroke-width="2" />
<path d="M2165,4905 L930,1840" stroke="blue" stroke-width="2" />
<path d="M503,1954 L3157,5938" stroke="blue" stroke-width="2" />
<path d="M2320,1645 L924,4085" stroke="blue" stroke-width="2" />
<path d="M2415,3049 L1045,6356" stroke="blue" stroke-width="2" />
<path d="M2589,1385 L2230,7120" stroke="blue" stroke-width="2" />
<path d="M2503,1193 L1853,4825" stroke="blue" stroke-width="2" />
<path d="M1414,4610 L2012,6724" stroke="blue" stroke-width="2" />
<path d="M2605,3033 L32,2175" stroke="blue" stroke-width="2" />
<path d="M582,6649 L2545,349" stroke="blue" stroke-width="2" />
<path d="M1348,6511 L1583,6955" stroke="blue" stroke-width="2" />
<path d="M1515,5555 L640,2558" stroke="blue" stroke-width="2" />
<path d="M2006,6717 L2126,3085" stroke="blue" stroke-width="2" />
<path d="M1801,493 L403,4540" stroke="blue" stroke-width="2" />
<path d="M1168,6342 L1026,348" stroke="blue" stroke-width="2" />
<path d="M2559,5162 L475,6974" stroke="blue" stroke-width="2" />
<path d="M1595,4312 L2534,1820" stroke="blue" stroke-width="2" />
<path d="M2715,4060 L1415,4655" stroke="blue" stroke-width="2" />
<path d="M660,5705 L807,6709" stroke="blue" stroke-width="2" />
<path d="M2266,3717 L1758,369" stroke="blue" stroke-width="2" />
<path d="M2490,3895 L435,180" stroke="blue" stroke-width="2" />
<path d="M2619,852 L560,1769" stroke="blue" stroke-width="2" />
<path d="M1891,6881 L1413,6630" stroke="blue" stroke-width="2" />
<path d="M1377,5513 L144,6130" stroke="blue" stroke-width="2" />
<path d="M1849,1061 L1177,6546" stroke="blue" stroke-width="2" />
<path d="M1028,5410 L1791,2696" stroke="blue" stroke-width="2" />
<path d="M1860,660 L390,3198" stroke="blue" stroke-width="2" />
<path d="M862,4206 L1582,6401" stroke="blue" stroke-width="2" />
<path d="M1999,5404 L2741,5742" stroke="blue" stroke-width="2" />
<path d="M2934,6155 L1999,3168" stroke="blue" stroke-width="2" />
<path d="M2172,4274 L2770,2642" stroke="blue" stroke-width="2" />
<path d="M350,1066 L1430,6476" stroke="blue" stroke-width="2" />
<path d="M1388,4715 L329,997" stroke="blue" stroke-width="2" />
<path d="M3107,6573 L2765,5875" stroke="blue" stroke-width="2" />
<path d="M2606,4504 L116,1566" stroke="blue" stroke-width="2" />
<path d="M1908,1227 L636,2685" stroke="blue" stroke-width="2" />
<path d="M783,3535 L2773,1750" stroke="blue" stroke-width="2" />
<path d="M2728,4122 L2448,3462" stroke="blue" stroke-width="2" />
<path d="M2233,1222 L2935,6624" stroke="blue" stroke-width="2" />
<path d="M1762,2143 L2846,6471" stroke="blue" stroke-width="2" />
<path d="M2284,5141 L2626,6678" stroke="blue" stroke-width="2" />
<path d="M1000,5012 L1195,1793" stroke="blue" stroke-width="2" />
<path d="M1594,3974 L2536,4212" stroke="blue" stroke-width="2" />
<path d="M2649,537 L1726,1892" stroke="blue" stroke-width="2" />
<path d="M1405,1368 L1546,4731" stroke="blue" stroke-width="2" />
<path d="M1883,316 L2640,431" stroke="blue" stroke-width="2" />
<path d="M264,5117 L1175,4521" stroke="blue" stroke-width="2" />
<path d="M2235,5618 L3118,3801" stroke="blue" stroke-width="2" />
<path d="M93,205 L2383,5697" stroke="blue" stroke-width="2" />
<path d="M331,2607 L1570,3118" stroke="blue" stroke-width="2" />
<path d="M2113,4454 L42,5420" stroke="blue" stroke-width="2" />
<path d="M1709,6697 L1186,1119" stroke="blue" stroke-width="2" />
<path d="M1090,3413 L2909,4878" stroke="blue" stroke-width="2" />
<path d="M437,314 L2376,831" stroke="blue" stroke-width="2" />
<path d="M715,3228 L347,4473" stroke="blue" stroke-width="2" />
<path d="M748,6226 L1644,4393" stroke="blue" stroke-width="2" />
<path d="M1917,6851 L2223,2706" stroke="blue" stroke-width="2" />
<path d="M1520,3558 L2432,2320" stroke="blue" stroke-width="2" />
<path d="M1072,2052 L2847,1441" stroke="blue" stroke-width="2" />
<path d="M642,34 L148,2922" stroke="blue" stroke-width="2" />
<path d="M3031,2504 L2279,335" stroke="blue" stroke-width="2" />
<path d="M833,5261 L165,6962" stroke="blue" stroke-width="2" />
<path d="M1147,2364 L1449,5573" stroke="blue" stroke-width="2" />
<path d="M1410,66 L1386,6941" stroke="blue" stroke-width="2" />
<path d="M1943,6775 L1533,5567" stroke="blue" stroke-width="2" />
<path d="M54,2369 L1435,4338" stroke="blue" stroke-width="2" />
<path d="M2838,2724 L89,3604" stroke="blue" stroke-width="2" />
<path d="M909,6292 L2756,1182" stroke="blue" stroke-width="2" />
<path d="M2354,2819 L626,4785" stroke="blue" stroke-width="2" />
<path d="M2097,5478 L2703,918" stroke="blue" stroke-width="2" />
<path d="M2552,4743 L167,6834" stroke="blue" stroke-width="2" />
<path d="M1681,1438 L727,6121" stroke="blue" stroke-width="2" />
<path d="M219,6027 L1524,5677" stroke="blue" stroke-width="2" />
<path d="M1236,2782 L510,1546" stroke="blue" stroke-width="2" />
<path d="M2593,6212 L178,3600" stroke="blue" stroke-width="2" />
<path d="M2448,6406 L456,5944" stroke="blue" stroke-width="2" />
<path d="M1698,5773 L274,695" stroke="blue" stroke-width="2" />
<path d="M2901,1657 L2992,930" stroke="blue" stroke-width="2" />
<path d="M535,776 L2444,4138" stroke="blue" stroke-width="2" />
<path d="M863,1364 L2964,1706" stroke="blue" stroke-width="2" />
<path d="M66,5630 L1449,4820" stroke="blue" stroke-width="2" />
<path d="M2434,7103 L1133,2404" stroke="blue" stroke-width="2" />
<path d="M888,4987 L342,2849" stroke="blue" stroke-width="2" />
<path d="M1495,5126 L1412,6344" stroke="blue" stroke-width="2" />
<path d="M306,796 L691,1365" stroke="blue" stroke-width="2" />
<path d="M862,5386 L1901,5319" stroke="blue" stroke-width="2" />
<path d="M452,4354 L1975,742" stroke="blue" stroke-width="2" />
<path d="M2249,4487 L2406,6678" stroke="blue" stroke-width="2" />
<path d="M2969,1355 L865,7072" stroke="blue" stroke-width="2" />
<path d="M1011,3228 L892,320" stroke="blue" stroke-width="2" />
<path d="M1363,1325 L1743,4929" stroke="blue" stroke-width="2" />
<path d="M1397,3474 L1917,5273" stroke="blue" stroke-width="2" />
<path d="M20,4352 L2622,5982" stroke="blue" stroke-width="2" />
<path d="M743,5648 L2328,2555" stroke="blue" stroke-width="2" />
<path d="M154,887 L2756,6101" stroke="blue" stroke-width="2" />
<path d="M129,3193 L318,6494" stroke="blue" stroke-width="2" />
<path d="M2758,2754 L3053,2612" stroke="blue" stroke-width="2" />
<path d="M1748,2514 L319,1626" stroke="blue" stroke-width="2" />
<path d="M3085,4825 L2614,421" stroke="blue" stroke-width="2" />
<path d="M1639,5093 L304,1622" stroke="blue" stroke-width="2" />
<path d="M1007,5125 L1957,4353" stroke="blue" stroke-width="2" />
<path d="M2576,3305 L1511,5028" stroke="blue" stroke-width="2" />
<path d="M2489,5455 L2170,2048" stroke="blue" stroke-width="2" />
<path d="M1852,4336 L1317,4318" stroke="blue" stroke-width="2" />
<path d="M2413,3994 L2743,3235" stroke="blue" stroke-width="2" />
<path d="M84,6037 L631,2882" stroke="blue" stroke-width="2" />
<path d="M1909,3592 L146,6083" stroke="blue" stroke-width="2" />
<path d="M609,2432 L2810,5878" stroke="blue" stroke-width="2" />
<path d="M142,6649 L2747,208" stroke="blue" stroke-width="2" />
<path d="M406,2414 L2874,6151" stroke="blue" stroke-width="2" />
<path d="M1772,3770 L789,5502" stroke="blue" stroke-width="2" />
<path d="M1336,4290 L1222,2311" stroke="blue" stroke-width="2" />
<path d="M1005,3576 L1571,2157" stroke="blue" stroke-width="2" />
<path d="M2811,7114 L631,3436" stroke="blue" stroke-width="2" />
<path d="M2830,1411 L880,3187" stroke="blue" stroke-width="2" />
<path d="M1085,1841 L1784,2108" stroke="blue" stroke-width="2" />
<path d="M547,2689 L731,1190" stroke="blue" stroke-width="2" />
<path d="M2099,4230 L2539,3123" stroke="blue" stroke-width="2" />
<path d="M788,2805 L2135,3231" stroke="blue" stroke-width="2" />
<path d="M2256,5098 L663,7126" stroke="blue" stroke-width="2" />
<path d="M1587,4156 L682,3755" stroke="blue" stroke-width="2" />
<path d="M1720,6156 L1404,2384" stroke="blue" stroke-width="2" />
<path d="M1625,1879 L396,3759" stroke="blue" stroke-width="2" />
<path d="M402,2858 L1123,2815" stroke="blue" stroke-width="2" />
<path d="M1819,4702 L1831,3771" stroke="blue" stroke-width="2" />
<path d="M3014,280 L406,281" stroke="blue" stroke-width="2" />
<path d="M2702,6652 L1536,5086" stroke="blue" stroke-width="2" />
<path d="M1068,5001 L962,5221" stroke="blue" stroke-width="2" />
<path d="M2769,2025 L1770,6335" stroke="blue" stroke-width="2" />
<path d="M2931,4171 L43,6378" stroke="blue" stroke-width="2" />
<path d="M844,3619 L2801,2783" stroke="blue" stroke-width="2" />
<path d="M2009,3805 L1200,1904" stroke="blue" stroke-width="2" />
<path d="M2983,2823 L380,4338" stroke="blue" stroke-width="2" />
<path d="M2943,4969 L2503,2678" stroke="blue" stroke-width="2" />
<path d="M432,7054 L1836,6866" stroke="blue" stroke-width="2" />
<path d="M890,3943 L1977,2132" stroke="blue" stroke-width="2" />
<path d="M1547,3816 L2154,5640" stroke="blue" stroke-width="2" />
<path d="M547,2431 L576,2424" stroke="blue" stroke-width="2" />
<path d="M1728,6989 L691,6490" stroke="blue" stroke-width="2" />
<path d="M802,4043 L3026,591" stroke="blue" stroke-width="2" />
<path d="M2082,1164 L236,693" stroke="blue" stroke-width="2" />
<path d="M1021,5923 L1897,7086" stroke="blue" stroke-width="2" />
<path d="M460,2195 L2306,5835" stroke="blue" stroke-width="2" />
<path d="M1906,3538 L1519,6846" stroke="blue" stroke-width="2" />
<path d="M1624,1476 L207,5709" stroke="blue" stroke-width="2" />
<path d="M2533,183 L2603,3647" stroke="blue" stroke-width="2" />
<path d="M2549,1487 L801,5862" stroke="blue" stroke-width="2" />
<path d="M2271,1196 L266,5851" stroke="blue" stroke-width="2" />
<path d="M2578,6246 L526,2986" stroke="blue" stroke-width="2" />
<path d="M1408,6221 L489,6461" stroke="blue" stroke-width="2" />
<path d="M1096,3920 L405,4356" stroke="blue" stroke-width="2" />
<path d="M2004,2861 L97,5168" stroke="blue" stroke-width="2" />
<path d="M2471,6917 L228,1375" stroke="blue" stroke-width="2" />
<path d="M2739,486 L1754,5551" stroke="blue" stroke-width="2" />
<path d="M3077,7133 L2907,4192" stroke="blue" stroke-width="2" />
<path d="M926,7082 L574,2625" stroke="blue" stroke-width="2" />
<path d="M1414,4200 L1040,1524" stroke="blue" stroke-width="2" />
<path d="M3091,5243 L2182,5903" stroke="blue" stroke-width="2" />
<path d="M1983,877 L2733,1286" stroke="blue" stroke-width="2" />
<path d="M1546,6023 L1304,2658" stroke="blue" stroke-width="2" />
<path d="M2471,6104 L998,3446" stroke="blue" stroke-width="2" />
<path d="M1837,2423 L97,2510" stroke="blue" stroke-width="2" />
<path d="M1489,1759 L442,872" stroke="blue" stroke-width="2" />
<path d="M141,1247 L2667,1855" stroke="blue" stroke-width="2" />
<path d="M2599,1364 L1075,6890" stroke="blue" stroke-width="2" />
<path d="M534,156 L351,5946" stroke="blue" stroke-width="2" />
<path d="M691,976 L926,844" stroke="blue" stroke-width="2" />
<path d="M2554,3300 L198,1268" stroke="blue" stroke-width="2" />
<path d="M2565,6685 L1805,4093" stroke="blue" stroke-width="2" />
<path d="M2026,3797 L2211,2109" stroke="blue" stroke-width="2" />
<path d="M3103,327 L1505,1729" stroke="blue" stroke-width="2" />
<path d="M2156,4418 L479,3464" stroke="blue" stroke-width="2" />
<path d="M891,764 L1441,5212" stroke="blue" stroke-width="2" />
<path d="M1190,1337 L940,4246" stroke="blue" stroke-width="2" />
<path d="M542,4070 L675,7000" stroke="blue" stroke-width="2" />
<path d="M822,6183 L2276,5302" stroke="blue" stroke-width="2" />
<path d="M1132,3610 L2976,6128" stroke="blue" stroke-width="2" />
<path d="M2710,56 L2539,2318" stroke="blue" stroke-width="2" />
<path d="M2921,627 L716,4276" stroke="blue" stroke-width="2" />
<path d="M2403,4447 L2604,2986" stroke="blue" stroke-width="2" />
<path d="M2960,3582 L415,6821" stroke="blue" stroke-width="2" />
<path d="M97,592 L2877,5380" stroke="blue" stroke-width="2" />
<path d="M1708,387 L895,4679" stroke="blue" stroke-width="2" />
<path d="M2647,3789 L1043,1829" stroke="blue" stroke-width="2" />
<path d="M870,603 L1983,6566" stroke="blue" stroke-width="2" />
<path d="M1555,1285 L1752,3101" stroke="blue" stroke-width="2" />
<path d="M2634,4818 L269,3817" stroke="blue" stroke-width="2" />
<path d="M2661,1311 L2658,699" stroke="blue" stroke-width="2" />
<path d="M1320,1311 L1960,3057" stroke="blue" stroke-width="2" />
<path d="M340,7094 L1725,6342" stroke="blue" stroke-width="2" />
<path d="M206,1354 L1923,5610" stroke="blue" stroke-width="2" />
<path d="M2702,3037 L1416,1596" stroke="blue" stroke-width="2" />
<path d="M3081,771 L2527,992" stroke="blue" stroke-width="2" />
<path d="M2254,5644 L253,3890" stroke="blue" stroke-width="2" />
<path d="M531,5483 L1902,3964" stroke="blue" stroke-width="2" />
<path d="M1960,4319 L1868,1920" stroke="blue" stroke-width="2" />
<path d="M2709,5353 L858,4955" stroke="blue" stroke-width="2" />
<path d="M2847,2547 L2607,5992" stroke="blue" stroke-width="2" />
<path d="M787,493 L1326,1955" stroke="blue" stroke-width="2" />
<path d="M1012,4087 L3149,3440" stroke="blue" stroke-width="2" />
<path d="M2204,2546 L821,577" stroke="blue" stroke-width="2" />
<path d="M2788,3962 L275,1014" stroke="blue" stroke-width="2" />
<path d="M1026,3097 L1524,5190" stroke="blue" stroke-width="2" />
<path d="M2822,100 L441,799" stroke="blue" stroke-width="2" />
<path d="M2799,4315 L495,6246" stroke="blue" stroke-width="2" />
<path d="M2737,2131 L695,4027" stroke="blue" stroke-width="2" />
<path d="M2776,5594 L1303,7046" stroke="blue" stroke-width="2" />
<path d="M1446,3216 L877,3620" stroke="blue" stroke-width="2" />
<path d="M2153,5368 L325,4021" stroke="blue" stroke-width="2" />
<path d="M2361,4454 L1078,4254" stroke="blue" stroke-width="2" />
<path d="M1642,6503 L874,6087" stroke="blue" stroke-width="2" />
<path d="M2487,2004 L2782,1438" stroke="blue" stroke-width="2" />
<path d="M1243,2566 L1131,674" stroke="blue" stroke-width="2" />
<path d="M2719,4542 L2216,6763" stroke="blue" stroke-width="2" />
<path d="M2131,4042 L273,6674" stroke="blue" stroke-width="2" />
<path d="M2808,5271 L2865,3588" stroke="blue" stroke-width="2" />
<path d="M1009,6905 L1112,5008" stroke="blue" stroke-width="2" />
<path d="M295,4002 L1128,6943" stroke="blue" stroke-width="2" />
<path d="M2215,4742 L2603,1662" stroke="blue" stroke-width="2" />
<path d="M2513,4178 L162,709" stroke="blue" stroke-width="2" />
<path d="M2348,180 L3069,1652" stroke="blue" stroke-width="2" />
<path d="M2894,5757 L2116,4184" stroke="blue" stroke-width="2" />
<path d="M2904,4890 L928,1215" stroke="blue" stroke-width="2" />
<path d="M2147,4332 L974,5490" stroke="blue" stroke-width="2" />
<path d="M266,6830 L1113,4680" stroke="blue" stroke-width="2" />
<path d="M1281,2267 L1203,6031" stroke="blue" stroke-width="2" />
<path d="M2289,7004 L1903,1943" stroke="blue" stroke-width="2" />
<path d="M1596,3318 L2215,642" stroke="blue" stroke-width="2" />
<path d="M2625,5332 L700,1248" stroke="blue" stroke-width="2" />
<path d="M2261,5200 L2240,1559" stroke="blue" stroke-width="2" />
<path d="M2627,785 L1016,6431" stroke="blue" stroke-width="2" />
<path d="M1578,1179 L2739,268" stroke="blue" stroke-width="2" />
<path d="M1430,5031 L2423,1448" stroke="blue" stroke-width="2" />
<path d="M2840,6451 L1030,476" stroke="blue" stroke-width="2" />
<path d="M1803,1062 L1795,5751" stroke="blue" stroke-width="2" />
<path d="M2897,3714 L1946,3200" stroke="blue" stroke-width="2" />
<path d="M2985,810 L2683,1305" stroke="blue" stroke-width="2" />
<path d="M178,2569 L2262,5755" stroke="blue" stroke-width="2" />
<path d="M779,4780 L878,1088" stroke="blue" stroke-width="2" />
<path d="M2946,698 L370,6585" stroke="blue" stroke-width="2" />
<path d="M1125,4822 L1102,296" stroke="blue" stroke-width="2" />
<path d="M2754,3445 L772,1901" stroke="blue" stroke-width="2" />
<path d="M2072,4156 L155,4863" stroke="blue" stroke-width="2" />
<path d="M2714,2441 L640,5944" stroke="blue" stroke-width="2" />
<path d="M442,3230 L1382,7129" stroke="blue" stroke-width="2" />
<path d="M2273,3855 L1960,3479" stroke="blue" stroke-width="2" />
<path d="M972,4926 L2605,5806" stroke="blue" stroke-width="2" />
<path d="M2830,2277 L348,6897" stroke="blue" stroke-width="2" />
<path d="M2912,4401 L885,1331" stroke="blue" stroke-width="2" />
<path d="M1919,2403 L2563,4648" stroke="blue" stroke-width="2" />
<path d="M874,4249 L3089,222" stroke="blue" stroke-width="2" />
<path d="M234,6250 L6,2314" stroke="blue" stroke-width="2" />
<path d="M2123,3781 L283,5834" stroke="blue" stroke-width="2" />
<path d="M2524,7001 L2233,2151" stroke="blue" stroke-width="2" />
<path d="M2400,2419 L811,2603" stroke="blue" stroke-width="2" />
<path d="M2765,3320 L414,5214" stroke="blue" stroke-width="2" />
<path d="M1922,1575 L483,1720" stroke="blue" stroke-width="2" />
<path d="M2975,1542 L780,6513" stroke="blue" stroke-width="2" />
<path d="M202,6794 L2798,1338" stroke="blue" stroke-width="2" />
<path d="M2962,5290 L952,2418" stroke="blue" stroke-width="2" />
<path d="M2622,3258 L1774,4597" stroke="blue" stroke-width="2" />
<path d="M2742,2788 L1145,4735" stroke="blue" stroke-width="2" />
<path d="M280,6895 L919,3446" stroke="blue" stroke-width="2" />
<path d="M2848,35 L2155,2292" stroke="blue" stroke-width="2" />
<path d="M2759,3296 L2562,3427" stroke="blue" stroke-width="2" />
<path d="M1215,5318 L2501,732" stroke="blue" stroke-width="2" />
<path d="M2857,5039 L1126,5028" stroke="blue" stroke-width="2" />
<path d="M2011,4768 L396,6123" stroke="blue" stroke-width="2" />
<path d="M1961,6414 L1575,4697" stroke="blue" stroke-width="2" />
<path d="M2403,1062 L2583,355" stroke="blue" stroke-width="2" />
<path d="M1352,950 L2815,1611" stroke="blue" stroke-width="2" />
<path d="M3007,994 L1433,6008" stroke="blue" stroke-width="2" />
<path d="M2467,2238 L1004,6602" stroke="blue" stroke-width="2" />
<path d="M2698,6023 L2983,2141" stroke="blue" stroke-width="2" />
<path d="M2091,5038 L2735,6458" stroke="blue" stroke-width="2" />
<path d="M1296,1440 L1075,382" stroke="blue" stroke-width="2" />
<path d="M1755,5378 L585,2537" stroke="blue" stroke-width="2" />
<path d="M1636,5859 L1103,5342" stroke="blue" stroke-width="2" />
<path d="M1021,4122 L2909,3754" stroke="blue" stroke-width="2" />
<path d="M999,5617 L431,6685" stroke="blue" stroke-width="2" />
<path d="M294,6443 L27,4883" stroke="blue" stroke-width="2" />
<path d="M2856,4433 L1167,3734" stroke="blue" stroke-width="2" />
<path d="M1399,6620 L2147,3844" stroke="blue" stroke-width="2" />
<path d="M3031,3614 L1233,6694" stroke="blue" stroke-width="2" />
<path d="M118,3637 L1651,6122" stroke="blue" stroke-width="2" />
<path d="M1702,537 L1825,4730" stroke="blue" stroke-width="2" />
<path d="M2861,5584 L513,1356" stroke="blue" stroke-width="2" />
<path d="M2634,6248 L797,6801" stroke="blue" stroke-width="2" />
<path d="M1340,4268 L260,4639" stroke="blue" stroke-width="2" />
<path d="M135,2228 L541,598" stroke="blue" stroke-width="2" />
<path d="M193,3962 L105,3870" stroke="blue" stroke-width="2" />
<path d="M2093,4855 L1267,901" stroke="blue" stroke-width="2" />
<path d="M2280,1135 L2033,3273" stroke="blue" stroke-width="2" />
<path d="M2610,5757 L1061,3126" stroke="blue" stroke-width="2" />
<path d="M3154,6446 L644,2019" stroke="blue" stroke-width="2" />
<path d="M1580,5279 L2433,1629" stroke="blue" stroke-width="2" />
<path d="M2286,5328 L288,483" stroke="blue" stroke-width="2" />
<path d="M1465,2991 L230,3040" stroke="blue" stroke-width="2" />
<path d="M263,6589 L1418,312" stroke="blue" stroke-width="2" />
<path d="M2401,2897 L1318,1273" stroke="blue" stroke-width="2" />
<path d="M2439,5002 L718,2858" stroke="blue" stroke-width="2" />
<path d="M299,1248 L1080,601" stroke="blue" stroke-width="2" />
<path d="M342,322 L2003,6490" stroke="blue" stroke-width="2" />
<path d="M1208,422 L2037,2260" stroke="blue" stroke-width="2" />
<path d="M2117,1211 L2356,5253" stroke="blue" stroke-width="2" />
<path d="M174,3515 L1422,6096" stroke="blue" stroke-width="2" />
<path d="M0,0 L3159,0" stroke="red" stroke-width="10" />
<path d="M3159,0 L3159,7135" stroke="red" stroke-width="10" />
<path d="M0,7135 L3159,7135" stroke="red" stroke-width="10" />
<path d="M0,7135 L0,0" stroke="red" stroke-width="10" />
</svg>