<?xml version="1.0" encoding="UTF-8"?>
<svg xmlns="http://www.w3.org/2000/svg" xmlns:xlink="http://www.w3.org/1999/xlink"
     width="10000" height="10000" viewBox="0 0 10000 10000">
<defs>
</defs>
<path d="M820,3178 L609,372" stroke="blue" stroke-width="2" />
<path d="M357,740 L974,132" stroke="blue" stroke-width="2" />
<path d="M778,1872 L733,2988" stroke="blue" stroke-width="2" />
<path d="M744,1468 L190,848" stroke="blue" stroke-width="2" />
<path d="M37,207 L294,341" stroke="blue" stroke-width="2" />
<path d="M700,1265 L801,1188" stroke="blue" stroke-width="2" />
<path d="M501,1084 L1051,93" stroke="blue" stroke-width="2" />
<path d="M438,767 L233,1256" stroke="blue" stroke-width="2" />
<path d="M58,810 L684,1140" stroke="blue" stroke-width="2" />
<path d="M38,2661 L512,188" stroke="blue" stroke-width="2" />
<path d="M879,3262 L398,3252" stroke="blue" stroke-width="2" />
<path d="M1055,194 L1027,882" stroke="blue" stroke-width="2" />
<path d="M954,3255 L912,1538" stroke="blue" stroke-width="2" />
<path d="M472,2260 L546,3087" stroke="blue" stroke-width="2" />
<path d="M1124,3616 L955,290" stroke="blue" stroke-width="2" />
<path d="M947,1146 L130,1153" stroke="blue" stroke-width="2" />
<path d="M361,503 L299,2149" stroke="blue" stroke-width="2" />
<path d="M895,1012 L812,374" stroke="blue" stroke-width="2" />
<path d="M159,449 L1132,763" stroke="blue" stroke-width="2" />
<path d="M523,2233 L983,3533" stroke="blue" stroke-width="2" />
<path d="M148,708 L988,1564" stroke="blue" stroke-width="2" />
<path d="M748,3004 L807,250" stroke="blue" stroke-width="2" />
<path d="M586,2596 L40,3612" stroke="blue" stroke-width="2" />
<path d="M769,3483 L65,2699" stroke="blue" stroke-width="2" />
<path d="M297,2800 L461,2942" stroke="blue" stroke-width="2" />
<path d="M643,2534 L185,3273" stroke="blue" stroke-width="2" />
<path d="M1073,1509 L606,248" stroke="blue" stroke-width="2" />
<path d="M64,3621 L588,3352" stroke="blue" stroke-width="2" />
<path d="M536,3546 L496,700" stroke="blue" stroke-width="2" />
<path d="M649,139 L1119,1720" stroke="blue" stroke-width="2" />
<path d="M1139,2296 L179,2985" stroke="blue" stroke-width="2" />
<path d="M920,1305 L1119,3078" stroke="blue" stroke-width="2" />
<path d="M831,3273 L953,3333" stroke="blue" stroke-width="2" />
<path d="M403,3234 L16,750" stroke="blue" stroke-width="2" />
<path d="M433,218 L419,30" stroke="blue" stroke-width="2" />
<path d="M610,3254 L712,676" stroke="blue" stroke-width="2" />
<path d="M238,2695 L542,1224" stroke="blue" stroke-width="2" />
<path d="M910,1490 L296,3240" stroke="blue" stroke-width="2" />
<path d="M1001,477 L1184,1758" stroke="blue" stroke-width="2" />
<path d="M404,3055 L750,3224" stroke="blue" stroke-width="2" />
<path d="M837,3256 L957,813" stroke="blue" stroke-width="2" />
<path d="M270,2781 L1114,988" stroke="blue" stroke-width="2" />
<path d="M149,2290 L588,2741" stroke="blue" stroke-width="2" />
<path d="M941,196 L87,1513" stroke="blue" stroke-width="2" />
<path d="M441,1357 L664,1570" stroke="blue" stroke-width="2" />
<path d="M219,1470 L1016,1724" stroke="blue" stroke-width="2" />
<path d="M284,3460 L830,1452" stroke="blue" stroke-width="2" />
<path d="M262,1076 L280,2562" stroke="blue" stroke-width="2" />
<path d="M930,2908 L215,259" stroke="blue" stroke-width="2" />
<path d="M1035,1237 L832,1208" stroke="blue" stroke-width="2" />
<path d="M485,2905 L365,1974" stroke="blue" stroke-width="2" />
<path d="M1155,2664 L247,1245" stroke="blue" stroke-width="2" />
<path d="M1078,3476 L293,1641" stroke="blue" stroke-width="2" />
<path d="M235,613 L74,424" stroke="blue" stroke-width="2" />
<path d="M769,1026 L834,1149" stroke="blue" stroke-width="2" />
<path d="M358,3631 L52,2264" stroke="blue" stroke-width="2" />
<path d="M1174,1065 L477,1150" stroke="blue" stroke-width="2" />
<path d="M811,1010 L826,1462" stroke="blue" stroke-width="2" />
<path d="M327,275 L1137,2440" stroke="blue" stroke-width="2" />
<path d="M512,569 L1065,1993" stroke="blue" stroke-width="2" />
<path d="M1111,2229 L1072,1988" stroke="blue" stroke-width="2" />
<path d="M137,1917 L556,3338" stroke="blue" stroke-width="2" />
<path d="M921,3423 L1106,2938" stroke="blue" stroke-width="2" />
<path d="M531,985 L1135,3126" stroke="blue" stroke-width="2" />
<path d="M412,1378 L1185,614" stroke="blue" stroke-width="2" />
<path d="M64,3169 L263,2266" stroke="blue" stroke-width="2" />
<path d="M401,2672 L616,2789" stroke="blue" stroke-width="2" />
<path d="M650,2594 L551,604" stroke="blue" stroke-width="2" />
<path d="M563,2996 L129,1950" stroke="blue" stroke-width="2" />
<path d="M999,3435 L1056,3219" stroke="blue" stroke-width="2" />
<path d="M499,1455 L433,2887" stroke="blue" stroke-width="2" />
<path d="M678,3583 L84,3323" stroke="blue" stroke-width="2" />
<path d="M114,2080 L479,1481" stroke="blue" stroke-width="2" />
<path d="M776,504 L513,1824" stroke="blue" stroke-width="2" />
<path d="M389,1143 L897,775" stroke="blue" stroke-width="2" />
<path d="M1141,1433 L993,1164" stroke="blue" stroke-width="2" />
<path d="M454,267 L57,1250" stroke="blue" stroke-width="2" />
<path d="M535,1102 L1136,2768" stroke="blue" stroke-width="2" />
<path d="M1011,439 L995,1485" stroke="blue" stroke-width="2" />
<path d="M687,2158 L103,2762" stroke="blue" stroke-width="2" />
<path d="M483,836 L277,1432" stroke="blue" stroke-width="2" />
<path d="M592,404 L109,2652" stroke="blue" stroke-width="2" />
<path d="M1113,116 L434,416" stroke="blue" stroke-width="2" />
<path d="M217,1389 L588,639" stroke="blue" stroke-width="2" />
<path d="M881,3093 L731,390" stroke="blue" stroke-width="2" />
<path d="M884,2107 L937,2681" stroke="blue" stroke-width="2" />
<path d="M471,2057 L798,2281" stroke="blue" stroke-width="2" />
<path d="M230,2543 L464,2277" stroke="blue" stroke-width="2" />
<path d="M1069,270 L1094,1170" stroke="blue" stroke-width="2" />
<path d="M847,3653 L747,3433" stroke="blue" stroke-width="2" />
<path d="M986,921 L1130,429" stroke="blue" stroke-width="2" />
<path d="M1152,3601 L917,2082" stroke="blue" stroke-width="2" />
<path d="M979,3617 L204,1452" stroke="blue" stroke-width="2" />
<path d="M1136,3137 L398,2107" stroke="blue" stroke-width="2" />
<path d="M824,3027 L202,651" stroke="blue" stroke-width="2" />
<path d="M499,3491 L340,2068" stroke="blue" stroke-width="2" />
<path d="M756,1043 L360,3633" stroke="blue" stroke-width="2" />
<path d="M503,2114 L731,3407" stroke="blue" stroke-width="2" />
<path d="M94,1295 L16,2821" stroke="blue" stroke-width="2" />
<path d="M533,2627 L886,3155" stroke="blue" stroke-width="2" />
<path d="M568,2181 L1031,3603" stroke="blue" stroke-width="2" />
<path d="M213,665 L239,3659" stroke="blue" stroke-width="2" />
<path d="M673,1159 L195,688" stroke="blue" stroke-width="2" />
<path d="M340,767 L1092,1028" stroke="blue" stroke-width="2" />
<path d="M874,1418 L223,2783" stroke="blue" stroke-width="2" />
<path d="M850,302 L1011,2788" stroke="blue" stroke-width="2" />
<path d="M763,792 L461,1778" stroke="blue" stroke-width="2" />
<path d="M904,2801 L664,3528" stroke="blue" stroke-width="2" />
<path d="M395,1687 L91,3469" stroke="blue" stroke-width="2" />
<path d="M604,1060 L74,157" stroke="blue" stroke-width="2" />
<path d="M259,1424 L892,1851" stroke="blue" stroke-width="2" />
<path d="M66,874 L603,3438" stroke="blue" stroke-width="2" />
<path d="M536,677 L762,2298" stroke="blue" stroke-width="2" />
<path d="M24,717 L871,1982" stroke="blue" stroke-width="2" />
<path d="M910,464 L338,1859" stroke="blue" stroke-width="2" />
<path d="M124,972 L574,2309" stroke="blue" stroke-width="2" />
<path d="M313,104 L28,1203" stroke="blue" stroke-width="2" />
<path d="M1115,1033 L1180,1379" stroke="blue" stroke-width="2" />
<path d="M486,2610 L921,200" stroke="blue" stroke-width="2" />
<path d="M648,3598 L718,2971" stroke="blue" stroke-width="2" />
<path d="M480,72 L369,3497" stroke="blue" stroke-width="2" />
<path d="M231,315 L891,2861" stroke="blue" stroke-width="2" />
<path d="M452,1863 L142,403" stroke="blue" stroke-width="2" />
<path d="M84,781 L84,2766" stroke="blue" stroke-width="2" />
<path d="M631,3480 L803,2952" stroke="blue" stroke-width="2" />
<path d="M39,626 L77,2712" stroke="blue" stroke-width="2" />
<path d="M779,1369 L743,2080" stroke="blue" stroke-width="2" />
<path d="M194,1944 L932,3553" stroke="blue" stroke-width="2" />
<path d="M391,225 L438,2408" stroke="blue" stroke-width="2" />
<path d="M535,2003 L660,1781" stroke="blue" stroke-width="2" />
<path d="M685,3628 L519,2417" stroke="blue" stroke-width="2" />
<path d="M1040,1500 L869,2215" stroke="blue" stroke-width="2" />
<path d="M902,3003 L938,2537" stroke="blue" stroke-width="2" />
<path d="M468,2583 L99,2981" stroke="blue" stroke-width="2" />
<path d="M1185,3082 L224,3594" stroke="blue" stroke-width="2" />
<path d="M1114,2955 L341,1120" stroke="blue" stroke-width="2" />
<path d="M1004,1329 L713,430" stroke="blue" stroke-width="2" />
<path d="M387,3621 L124,2742" stroke="blue" stroke-width="2" />
<path d="M564,134 L736,3008" stroke="blue" stroke-width="2" />
<path d="M537,2568 L163,876" stroke="blue" stroke-width="2" />
<path d="M937,3514 L1088,2729" stroke="blue" stroke-width="2" />
<path d="M789,559 L763,2464" stroke="blue" stroke-width="2" />
<path d="M335,583 L1129,3340" stroke="blue" stroke-width="2" />
<path d="M320,3005 L1162,956" stroke="blue" stroke-width="2" />
<path d="M75,961 L343,2454" stroke="blue" stroke-width="2" />
<path d="M222,2177 L782,625" stroke="blue" stroke-width="2" />
<path d="M924,1692 L98,654" stroke="blue" stroke-width="2" />
<path d="M958,3329 L253,2122" stroke="blue" stroke-width="2" />
<path d="M5,1841 L917,1684" stroke="blue" stroke-width="2" />
<path d="M1050,3438 L1025,3330" stroke="blue" stroke-width="2" />
<path d="M821,2845 L304,1577" stroke="blue" stroke-width="2" />
<path d="M762,3147 L134,672" stroke="blue" stroke-width="2" />
<path d="M816,1921 L1013,3414" stroke="blue" stroke-width="2" />
<path d="M283,3398 L528,2024" stroke="blue" stroke-width="2" />
<path d="M818,1247 L1055,2005" stroke="blue" stroke-width="2" />
<path d="M1123,2732 L827,2741" stroke="blue" stroke-width="2" />
<path d="M491,3568 L670,599" stroke="blue" stroke-width="2" />
<path d="M414,694 L843,337" stroke="blue" stroke-width="2" />
<path d="M101,286 L351,3085" stroke="blue" stroke-width="2" />
<path d="M64,1688 L222,442" stroke="blue" stroke-width="2" />
<path d="M552,2596 L450,2926" stroke="blue" stroke-width="2" />
<path d="M359,1783 L327,2406" stroke="blue" stroke-width="2" />
<path d="M326,13 L741,2158" stroke="blue" stroke-width="2" />
<path d="M898,791 L4,1500" stroke="blue" stroke-width="2" />
<path d="M880,2714 L835,2281" stroke="blue" stroke-width="2" />
<path d="M925,2672 L40,3144" stroke="blue" stroke-width="2" />
<path d="M1096,548 L120,1040" stroke="blue" stroke-width="2" />
<path d="M718,2719 L384,361" stroke="blue" stroke-width="2" />
<path d="M794,214 L130,1352" stroke="blue" stroke-width="2" />
<path d="M705,3406 L904,2164" stroke="blue" stroke-width="2" />
<path d="M924,3074 L172,2450" stroke="blue" stroke-width="2" />
<path d="M704,3066 L955,3416" stroke="blue" stroke-width="2" />
<path d="M926,2492 L81,701" stroke="blue" stroke-width="2" />
<path d="M628,2016 L319,965" stroke="blue" stroke-width="2" />
<path d="M163,1463 L22,1923" stroke="blue" stroke-width="2" />
<path d="M978,597 L881,339" stroke="blue" stroke-width="2" />
<path d="M14,138 L1121,2797" stroke="blue" stroke-width="2" />
<path d="M1173,24 L322,3633" stroke="blue" stroke-width="2" />
<path d="M352,430 L623,433" stroke="blue" stroke-width="2" />
<path d="M294,2653 L739,2905" stroke="blue" stroke-width="2" />
<path d="M633,2910 L322,1918" stroke="blue" stroke-width="2" />
<path d="M692,2793 L940,661" stroke="blue" stroke-width="2" />
<path d="M575,2928 L748,499" stroke="blue" stroke-width="2" />
<path d="M199,3625 L745,2848" stroke="blue" stroke-width="2" />
<path d="M886,2354 L694,1018" stroke="blue" stroke-width="2" />
<path d="M144,358 L295,798" stroke="blue" stroke-width="2" />
<path d="M132,3069 L907,2401" stroke="blue" stroke-width="2" />
<path d="M1160,544 L639,1155" stroke="blue" stroke-width="2" />
<path d="M334,1177 L2,1943" stroke="blue" stroke-width="2" />
<path d="M167,1301 L745,2115" stroke="blue" stroke-width="2" />
<path d="M961,3448 L713,1738" stroke="blue" stroke-width="2" />
<path d="M127,3477 L673,3571" stroke="blue" stroke-width="2" />
<path d="M628,398 L129,366" stroke="blue" stroke-width="2" />
<path d="M994,625 L1050,3419" stroke="blue" stroke-width="2" />
<path d="M1092,1094 L594,148" stroke="blue" stroke-width="2" />
<path d="M477,831 L45,1899" stroke="blue" stroke-width="2" />
<path d="M790,3367 L391,1994" stroke="blue" stroke-width="2" />
<path d="M1070,2823 L946,2908" stroke="blue" stroke-width="2" />
<path d="M552,3341 L586,3424" stroke="blue" stroke-width="2" />
<path d="M666,3216 L99,3560" stroke="blue" stroke-width="2" />
<path d="M990,2498 L27,3529" stroke="blue" stroke-width="2" />
<path d="M651,1923 L21,1066" stroke="blue" stroke-width="2" />
<path d="M583,904 L785,3131" stroke="blue" stroke-width="2" />
<path d="M783,679 L1047,1180" stroke="blue" stroke-width="2" />
<path d="M241,1127 L75,1803" stroke="blue" stroke-width="2" />
<path d="M774,1172 L1126,2476" stroke="blue" stroke-width="2" />
<path d="M224,2573 L753,637" stroke="blue" stroke-width="2" />
<path d="M1031,3421 L333,510" stroke="blue" stroke-width="2" />
<path d="M1149,2152 L288,2511" stroke="blue" stroke-width="2" />
<path d="M166,1972 L550,893" stroke="blue" stroke-width="2" />
<path d="M575,1535 L115,442" stroke="blue" stroke-width="2" />
<path d="M536,964 L1128,1088" stroke="blue" stroke-width="2" />
<path d="M750,716 L1071,1957" stroke="blue" stroke-width="2" />
<path d="M1089,1191 L366,3144" stroke="blue" stroke-width="2" />
<path d="M267,2681 L1167,1145" stroke="blue" stroke-width="2" />
<path d="M403,677 L623,2145" stroke="blue" stroke-width="2" />
<path d="M501,2737 L425,1640" stroke="blue" stroke-width="2" />
<path d="M286,239 L337,2875" stroke="blue" stroke-width="2" />
<path d="M272,3506 L517,3534" stroke="blue" stroke-width="2" />
<path d="M904,3503 L533,1702" stroke="blue" stroke-width="2" />
<path d="M973,655 L782,3341" stroke="blue" stroke-width="2" />
<path d="M1111,349 L969,2342" stroke="blue" stroke-width="2" />
<path d="M1153,2580 L649,978" stroke="blue" stroke-width="2" />
<path d="M523,3122 L93,1373" stroke="blue" stroke-width="2" />
<path d="M567,3415 L878,1153" stroke="blue" stroke-width="2" />
<path d="M652,3619 L419,1225" stroke="blue" stroke-width="2" />
<path d="M974,2654 L821,3461" stroke="blue" stroke-width="2" />
<path d="M1073,2586 L186,1567" stroke="blue" stroke-width="2" />
<path d="M421,938 L1149,1796" stroke="blue" stroke-width="2" />
<path d="M361,2761 L11,2041" stroke="blue" stroke-width="2" />
<path d="M196,448 L1072,2779" stroke="blue" stroke-width="2" />
<path d="M960,3084 L151,337" stroke="blue" stroke-width="2" />
<path d="M712,2224 L160,2795" stroke="blue" stroke-width="2" />
<path d="M13,1868 L29,2601" stroke="blue" stroke-width="2" />
<path d="M1081,989 L920,2502" stroke="blue" stroke-width="2" />
<path d="M1043,2258 L45,7" stroke="blue" stroke-width="2" />
<path d="M600,1900 L1139,1812" stroke="blue" stroke-width="2" />
<path d="M436,1163 L111,1690" stroke="blue" stroke-width="2" />
<path d="M683,3532 L319,1170" stroke="blue" stroke-width="2" />
<path d="M265,3276 L987,1730" stroke="blue" stroke-width="2" />
<path d="M146,3461 L961,1534" stroke="blue" stroke-width="2" />
<path d="M1046,936 L566,2678" stroke="blue" stroke-width="2" />
<path d="M852,1937 L206,3434" stroke="blue" stroke-width="2" />
<path d="M271,1202 L643,1956" stroke="blue" stroke-width="2" />
<path d="M87,924 L549,3524" stroke="blue" stroke-width="2" />
<path d="M1072,1296 L415,3169" stroke="blue" stroke-width="2" />
<path d="M1062,3209 L876,3569" stroke="blue" stroke-width="2" />
<path d="M73,1631 L818,1240" stroke="blue" stroke-width="2" />
<path d="M1061,264 L556,1296" stroke="blue" stroke-width="2" />
<path d="M37,789 L975,233" stroke="blue" stroke-width="2" />
<path d="M634,3104 L182,2217" stroke="blue" stroke-width="2" />
<path d="M659,2774 L1124,494" stroke="blue" stroke-width="2" />
<path d="M826,2705 L191,1387" stroke="blue" stroke-width="2" />
<path d="M1069,2849 L200,2207" stroke="blue" stroke-width="2" />
<path d="M767,1682 L409,2405" stroke="blue" stroke-width="2" />
<path d="M884,1986 L87,2339" stroke="blue" stroke-width="2" />
<path d="M86,936 L14,1540" stroke="blue" stroke-width="2" />
<path d="M591,2447 L540,3070" stroke="blue" stroke-width="2" />
<path d="M258,1577 L684,3409" stroke="blue" stroke-width="2" />
<path d="M385,779 L753,3605" stroke="blue" stroke-width="2" />
<path d="M731,2606 L158,2485" stroke="blue" stroke-width="2" />
<path d="M70,717 L489,52" stroke="blue" stroke-width="2" />
<path d="M18,20 L206,991" stroke="blue" stroke-width="2" />
<path d="M276,3512 L778,3190" stroke="blue" stroke-width="2" />
<path d="M357,678 L229,1374" stroke="blue" stroke-width="2" />
<path d="M365,2773 L289,701" stroke="blue" stroke-width="2" />
<path d="M453,2654 L915,957" stroke="blue" stroke-width="2" />
<path d="M530,1246 L343,1625" stroke="blue" stroke-width="2" />
<path d="M1070,1528 L637,1112" stroke="blue" stroke-width="2" />
<path d="M1100,142 L607,896" stroke="blue" stroke-width="2" />
<path d="M347,1806 L455,1274" stroke="blue" stroke-width="2" />
<path d="M620,1842 L1043,1689" stroke="blue" stroke-width="2" />
<path d="M8,247 L1008,2533" stroke="blue" stroke-width="2" />
<path d="M771,301 L882,3624" stroke="blue" stroke-width="2" />
<path d="M607,2640 L486,42" stroke="blue" stroke-width="2" />
<path d="M1101,3195 L897,792" stroke="blue" stroke-width="2" />
<path d="M950,639 L991,600" stroke="blue" stroke-width="2" />
<path d="M956,2622 L560,2707" stroke="blue" stroke-width="2" />
<path d="M851,2982 L827,2755" stroke="blue" stroke-width="2" />
<path d="M1129,2789 L428,3583" stroke="blue" stroke-width="2" />
<path d="M750,3458 L318,830" stroke="blue" stroke-width="2" />
<path d="M432,1032 L1065,72" stroke="blue" stroke-width="2" />
<path d="M520,1250 L580,2983" stroke="blue" stroke-width="2" />
<path d="M338,2583 L484,3480" stroke="blue" stroke-width="2" />
<path d="M934,2029 L151,3338" stroke="blue" stroke-width="2" />
<path d="M689,1301 L965,1868" stroke="blue" stroke-width="2" />
<path d="M349,1308 L795,1655" stroke="blue" stroke-width="2" />
<path d="M204,3173 L220,1667" stroke="blue" stroke-width="2" />
<path d="M128,2896 L595,1471" stroke="blue" stroke-width="2" />
<path d="M757,2632 L1174,2732" stroke="blue" stroke-width="2" />
<path d="M1155,1627 L48,819" stroke="blue" stroke-width="2" />
<path d="M195,1252 L297,1610" stroke="blue" stroke-width="2" />
<path d="M898,203 L500,1301" stroke="blue" stroke-width="2" />
<path d="M626,701 L858,293" stroke="blue" stroke-width="2" />
<path d="M387,122 L742,2308" stroke="blue" stroke-width="2" />
<path d="M469,3208 L944,2199" stroke="blue" stroke-width="2" />
<path d="M541,829 L482,260" stroke="blue" stroke-width="2" />
<path d="M645,967 L432,1758" stroke="blue" stroke-width="2" />
<path d="M258,832 L396,1968" stroke="blue" stroke-width="2" />
<path d="M839,1116 L654,141" stroke="blue" stroke-width="2" />
<path d="M37,3080 L179,464" stroke="blue" stroke-width="2" />
<path d="M167,3123 L631,2690" stroke="blue" stroke-width="2" />
<path d="M1153,952 L125,1090" stroke="blue" stroke-width="2" />
<path d="M1053,1528 L492,1700" stroke="blue" stroke-width="2" />
<path d="M940,2726 L155,719" stroke="blue" stroke-width="2" />
<path d="M796,2986 L782,3582" stroke="blue" stroke-width="2" />
<path d="M229,746 L852,1320" stroke="blue" stroke-width="2" />
<path d="M877,3001 L18,1089" stroke="blue" stroke-width="2" />
<path d="M60,924 L825,2466" stroke="blue" stroke-width="2" />
<path d="M172,1064 L993,2994" stroke="blue" stroke-width="2" />
<path d="M958,791 L688,1344" stroke="blue" stroke-width="2" />
<path d="M1131,1129 L1150,2405" stroke="blue" stroke-width="2" />
<path d="M152,594 L374,3501" stroke="blue" stroke-width="2" />
<path d="M1058,1933 L822,1777" stroke="blue" stroke-width="2" />
<path d="M202,565 L1182,434" stroke="blue" stroke-width="2" />
<path d="M626,2703 L76,156" stroke="blue" stroke-width="2" />
<path d="M954,2639 L705,2498" stroke="blue" stroke-width="2" />
<path d="M1028,1152 L629,3182" stroke="blue" stroke-width="2" />
<path d="M855,2952 L690,2015" stroke="blue" stroke-width="2" />
<path d="M560,1376 L493,3610" stroke="blue" stroke-width="2" />
<path d="M1181,3305 L754,2030" stroke="blue" stroke-width="2" />
<path d="M910,1297 L1014,779" stroke="blue" stroke-width="2" />
<path d="M555,3256 L848,836" stroke="blue" stroke-width="2" />
<path d="M1174,746 L455,467" stroke="blue" stroke-width="2" />
<path d="M158,2071 L190,1910" stroke="blue" stroke-width="2" />
<path d="M174,888 L1047,2343" stroke="blue" stroke-width="2" />
<path d="M800,928 L533,1128" stroke="blue" stroke-width="2" />
<path d="M1117,2341 L448,42" stroke="blue" stroke-width="2" />
<path d="M881,923 L991,276" stroke="blue" stroke-width="2" />
<path d="M306,3444 L456,2802" stroke="blue" stroke-width="2" />
<path d="M1159,3595 L457,3498" stroke="blue" stroke-width="2" />
<path d="M1060,3576 L722,1183" stroke="blue" stroke-width="2" />
<path d="M39,3045 L935,43" stroke="blue" stroke-width="2" />
<path d="M497,1131 L1039,278" stroke="blue" stroke-width="2" />
<path d="M1047,737 L1026,2584" stroke="blue" stroke-width="2" />
<path d="M710,1554 L1003,3189" stroke="blue" stroke-width="2" />
<path d="M174,1100 L1066,2340" stroke="blue" stroke-width="2" />
<path d="M354,918 L886,463" stroke="blue" stroke-width="2" />
<path d="M1127,2517 L596,761" stroke="blue" stroke-width="2" />
<path d="M792,2626 L970,1130" stroke="blue" stroke-width="2" />
<path d="M390,1114 L580,751" stroke="blue" stroke-width="2" />
<path d="M883,1495 L456,1942" stroke="blue" stroke-width="2" />
<path d="M35,278 L391,2736" stroke="blue" stroke-width="2" />
<path d="M1038,2278 L318,624" stroke="blue" stroke-width="2" />
<path d="M813,1202 L1100,3476" stroke="blue" stroke-width="2" />
<path d="M584,2237 L253,809" stroke="blue" stroke-width="2" />
<path d="M925,2890 L161,2845" stroke="blue" stroke-width="2" />
<path d="M534,283 L519,2740" stroke="blue" stroke-width="2" />
<path d="M1128,3004 L708,967" stroke="blue" stroke-width="2" />
<path d="M520,2707 L562,2842" stroke="blue" stroke-width="2" />
<path d="M459,1654 L861,3500" stroke="blue" stroke-width="2" />
<path d="M1156,3037 L655,2119" stroke="blue" stroke-width="2" />
<path d="M1099,3357 L1021,3129" stroke="blue" stroke-width="2" />
<path d="M1006,1461 L813,3393" stroke="blue" stroke-width="2" />
<path d="M418,2872 L1180,1552" stroke="blue" stroke-width="2" />
<path d="M1178,2566 L157,1957" stroke="blue" stroke-width="2" />
<path d="M199,661 L5,2852" stroke="blue" stroke-width="2" />
<path d="M832,739 L1139,38" stroke="blue" stroke-width="2" />
<path d="M875,1875 L800,2468" stroke="blue" stroke-width="2" />
<path d="M492,2473 L563,2728" stroke="blue" stroke-width="2" />
<path d="M121,2574 L34,270" stroke="blue" stroke-width="2" />
<path d="M934,3194 L223,2891" stroke="blue" stroke-width="2" />
<path d="M529,1650 L536,3239" stroke="blue" stroke-width="2" />
<path d="M848,1403 L856,2605" stroke="blue" stroke-width="2" />
<path d="M1146,2682 L811,715" stroke="blue" stroke-width="2" />
<path d="M512,419 L770,3530" stroke="blue" stroke-width="2" />
<path d="M242,2478 L869,1453" stroke="blue" stroke-width="2" />
<path d="M1108,2865 L450,3200" stroke="blue" stroke-width="2" />
<path d="M685,3465 L613,2167" stroke="blue" stroke-width="2" />
<path d="M1021,2378 L640,2465" stroke="blue" stroke-width="2" />
<path d="M491,2925 L539,3583" stroke="blue" stroke-width="2" />
<path d="M123,1401 L311,1109" stroke="blue" stroke-width="2" />
<path d="M1120,443 L290,3257" stroke="blue" stroke-width="2" />
<path d="M455,400 L1117,1867" stroke="blue" stroke-width="2" />
<path d="M1172,1039 L176,849" stroke="blue" stroke-width="2" />
<path d="M823,513 L1115,552" stroke="blue" stroke-width="2" />
<path d="M212,3626 L752,3091" stroke="blue" stroke-width="2" />
<path d="M532,2534 L484,3292" stroke="blue" stroke-width="2" />
<path d="M400,2745 L116,1140" stroke="blue" stroke-width="2" />
<path d="M733,548 L74,1994" stroke="blue" stroke-width="2" />
<path d="M711,1115 L456,3238" stroke="blue" stroke-width="2" />
<path d="M35,760 L703,1140" stroke="blue" stroke-width="2" />
<path d="M243,927 L87,804" stroke="blue" stroke-width="2" />
<path d="M624,1873 L208,3204" stroke="blue" stroke-width="2" />
<path d="M179,381 L661,1281" stroke="blue" stroke-width="2" />
<path d="M936,1045 L820,176" stroke="blue" stroke-width="2" />
<path d="M942,3075 L77,1272" stroke="blue" stroke-width="2" />
<path d="M740,3135 L817,3178" stroke="blue" stroke-width="2" />
<path d="M254,3179 L40,1294" stroke="blue" stroke-width="2" />
<path d="M924,644 L157,2997" stroke="blue" stroke-width="2" />
<path d="M252,1077 L326,1246" stroke="blue" stroke-width="2" />
<path d="M55,3646 L323,2176" stroke="blue" stroke-width="2" />
<path d="M1077,2839 L32,2253" stroke="blue" stroke-width="2" />
<path d="M522,1404 L2,2754" stroke="blue" stroke-width="2" />
<path d="M275,2082 L81,2550" stroke="blue" stroke-width="2" />
<path d="M543,2839 L1006,947" stroke="blue" stroke-width="2" />
<path d="M1122,3161 L820,81" stroke="blue" stroke-width="2" />
<path d="M646,2360 L734,1107" stroke="blue" stroke-width="2" />
<path d="M1051,3155 L564,3337" stroke="blue" stroke-width="2" />
<path d="M162,2161 L497,392" stroke="blue" stroke-width="2" />
<path d="M1091,201 L640,1665" stroke="blue" stroke-width="2" />
<path d="M1155,890 L524,1529" stroke="blue" stroke-width="2" />
<path d="M872,196 L214,691" stroke="blue" stroke-width="2" />
<path d="M100,1612 L386,1037" stroke="blue" stroke-width="2" />
<path d="M978,3088 L699,1117" stroke="blue" stroke-width="2" />
<path d="M1041,828 L914,1487" stroke="blue" stroke-width="2" />
<path d="M497,607 L785,2141" stroke="blue" stroke-width="2" />
<path d="M952,1991 L1024,3217" stroke="blue" stroke-width="2" />
<path d="M521,1901 L773,1389" stroke="blue" stroke-width="2" />
<path d="M150,3278 L791,1681" stroke="blue" stroke-width="2" />
<path d="M216,2144 L1088,1316" stroke="blue" stroke-width="2" />
<path d="M447,3359 L1036,2989" stroke="blue" stroke-width="2" />
<path d="M594,1363 L922,1718" stroke="blue" stroke-width="2" />
<path d="M766,3127 L332,1914" stroke="blue" stroke-width="2" />
<path d="M621,2646 L422,746" stroke="blue" stroke-width="2" />
<path d="M761,1600 L1146,2456" stroke="blue" stroke-width="2" />
<path d="M1069,3031 L382,2742" stroke="blue" stroke-width="2" />
<path d="M1130,1263 L682,1413" stroke="blue" stroke-width="2" />
<path d="M64,3393 L564,3442" stroke="blue" stroke-width="2" />
<path d="M1035,1547 L1041,27" stroke="blue" stroke-width="2" />
<path d="M142,1345 L875,1594" stroke="blue" stroke-width="2" />
<path d="M813,1579 L284,3012" stroke="blue" stroke-width="2" />
<path d="M326,739 L950,591" stroke="blue" stroke-width="2" />
<path d="M193,2609 L827,487" stroke="blue" stroke-width="2" />
<path d="M495,1008 L233,3648" stroke="blue" stroke-width="2" />
<path d="M1002,690 L50,2303" stroke="blue" stroke-width="2" />
<path d="M467,3302 L973,3597" stroke="blue" stroke-width="2" />
<path d="M966,3621 L1104,301" stroke="blue" stroke-width="2" />
<path d="M947,2855 L1098,2961" stroke="blue" stroke-width="2" />
<path d="M760,1923 L469,419" stroke="blue" stroke-width="2" />
<path d="M1038,1472 L659,3121" stroke="blue" stroke-width="2" />
<path d="M451,1282 L242,535" stroke="blue" stroke-width="2" />
<path d="M806,559 L1072,988" stroke="blue" stroke-width="2" />
<path d="M43,1581 L669,790" stroke="blue" stroke-width="2" />
<path d="M401,1316 L639,22" stroke="blue" stroke-width="2" />
<path d="M64,3033 L1182,578" stroke="blue" stroke-width="2" />
<path d="M18,3575 L18,837" stroke="blue" stroke-width="2" />
<path d="M833,2832 L21,3621" stroke="blue" stroke-width="2" />
<path d="M242,1565 L704,2832" stroke="blue" stroke-width="2" />
<path d="M763,2035 L705,1752" stroke="blue" stroke-width="2" />
<path d="M260,1582 L87,1732" stroke="blue" stroke-width="2" />
<path d="M1010,661 L143,1380" stroke="blue" stroke-width="2" />
<path d="M1174,1699 L15,3106" stroke="blue" stroke-width="2" />
<path d="M211,1992 L733,649" stroke="blue" stroke-width="2" />
<path d="M441,3239 L475,3237" stroke="blue" stroke-width="2" />
<path d="M321,3506 L119,623" stroke="blue" stroke-width="2" />
<path d="M1027,123 L378,3417" stroke="blue" stroke-width="2" />
<path d="M825,1557 L104,35" stroke="blue" stroke-width="2" />
<path d="M678,1470 L120,1802" stroke="blue" stroke-width="2" />
<path d="M850,2125 L796,29" stroke="blue" stroke-width="2" />
<path d="M107,745 L1093,2978" stroke="blue" stroke-width="2" />
<path d="M0,0 L1186,0" stroke="red" stroke-width="10" />
<path d="M1186,0 L1186,3666" stroke="red" stroke-width="10" />
<path d="M0,3666 L1186,3666" stroke="red" stroke-width="10" />
<path d="M0,3666 L0,0" stroke="red" stroke-width="10" />
</svg>