<?xml version="1.0" encoding="UTF-8"?>
<svg xmlns="http://www.w3.org/2000/svg" xmlns:xlink="http://www.w3.org/1999/xlink"
     width="10000" height="10000" viewBox="0 0 10000 10000">
<defs>
</defs>
<path d="M3511,2826 L3391,1757" stroke="blue" stroke-width="2" />
<path d="M8740,2118 L913,1533" stroke="blue" stroke-width="2" />
<path d="M5383,507 L6676,1851" stroke="blue" stroke-width="2" />
<path d="M5490,520 L7092,519" stroke="blue" stroke-width="2" />
<path d="M1187,534 L5815,2388" stroke="blue" stroke-width="2" />
<path d="M5660,83 L1368,2125" stroke="blue" stroke-width="2" />
<path d="M4230,2569 L1129,1444" stroke="blue" stroke-width="2" />
<path d="M2441,1058 L9453,591" stroke="blue" stroke-width="2" />
<path d="M1537,1520 L3158,1930" stroke="blue" stroke-width="2" />
<path d="M2629,1465 L3948,1777" stroke="blue" stroke-width="2" />
<path d="M9363,765 L426,1064" stroke="blue" stroke-width="2" />
<path d="M1377,354 L7554,2167" stroke="blue" stroke-width="2" />
<path d="M6166,20 L5587,77" stroke="blue" stroke-width="2" />
<path d="M4686,2663 L2026,1309" stroke="blue" stroke-width="2" />
<path d="M4219,1192 L6316,2739" stroke="blue" stroke-width="2" />
<path d="M2423,1427 L4229,2222" stroke="blue" stroke-width="2" />
<path d="M9541,1371 L3446,1442" stroke="blue" stroke-width="2" />
<path d="M6573,1849 L5359,2148" stroke="blue" stroke-width="2" />
<path d="M4873,2532 L8162,915" stroke="blue" stroke-width="2" />
<path d="M6318,2571 L1017,1520" stroke="blue" stroke-width="2" />
<path d="M4996,1649 L4491,1563" stroke="blue" stroke-width="2" />
<path d="M4186,971 L4244,546" stroke="blue" stroke-width="2" />
<path d="M8292,2262 L7542,1001" stroke="blue" stroke-width="2" />
<path d="M7917,1292 L4405,2667" stroke="blue" stroke-width="2" />
<path d="M6002,2864 L4728,1799" stroke="blue" stroke-width="2" />
<path d="M2941,1423 L7018,2719" stroke="blue" stroke-width="2" />
<path d="M1298,2551 L7800,345" stroke="blue" stroke-width="2" />
<path d="M9479,1676 L6553,479" stroke="blue" stroke-width="2" />
<path d="M9548,2760 L7207,985" stroke="blue" stroke-width="2" />
<path d="M2124,1894 L8149,120" stroke="blue" stroke-width="2" />
<path d="M1384,1197 L8149,2327" stroke="blue" stroke-width="2" />
<path d="M4807,1657 L1739,1664" stroke="blue" stroke-width="2" />
<path d="M5280,39 L1591,923" stroke="blue" stroke-width="2" />
<path d="M6552,2529 L7395,969" stroke="blue" stroke-width="2" />
<path d="M1101,2245 L9059,2685" stroke="blue" stroke-width="2" />
<path d="M8197,557 L4489,1428" stroke="blue" stroke-width="2" />
<path d="M4107,2206 L7763,45" stroke="blue" stroke-width="2" />
<path d="M8579,2451 L8241,68" stroke="blue" stroke-width="2" />
<path d="M216,2452 L8377,1105" stroke="blue" stroke-width="2" />
<path d="M609,1796 L1835,477" stroke="blue" stroke-width="2" />
<path d="M3152,1161 L3211,1465" stroke="blue" stroke-width="2" />
<path d="M7895,1645 L5797,1202" stroke="blue" stroke-width="2" />
<path d="M609,1413 L5513,2477" stroke="blue" stroke-width="2" />
<path d="M8746,491 L8736,1711" stroke="blue" stroke-width="2" />
<path d="M1346,73 L5964,1060" stroke="blue" stroke-width="2" />
<path d="M201,1540 L6106,1987" stroke="blue" stroke-width="2" />
<path d="M3007,1899 L2775,804" stroke="blue" stroke-width="2" />
<path d="M6716,2777 L1549,410" stroke="blue" stroke-width="2" />
<path d="M8826,686 L6326,738" stroke="blue" stroke-width="2" />
<path d="M3316,1236 L873,2541" stroke="blue" stroke-width="2" />
<path d="M2008,1491 L1275,691" stroke="blue" stroke-width="2" />
<path d="M5446,1073 L7711,1427" stroke="blue" stroke-width="2" />
<path d="M6338,2775 L8596,2518" stroke="blue" stroke-width="2" />
<path d="M4702,940 L1553,2133" stroke="blue" stroke-width="2" />
<path d="M6890,805 L4504,418" stroke="blue" stroke-width="2" />
<path d="M8146,754 L4804,541" stroke="blue" stroke-width="2" />
<path d="M7100,265 L3983,2826" stroke="blue" stroke-width="2" />
<path d="M6827,2499 L5235,2332" stroke="blue" stroke-width="2" />
<path d="M7168,112 L219,370" stroke="blue" stroke-width="2" />
<path d="M6470,1339 L9015,2479" stroke="blue" stroke-width="2" />
<path d="M4035,796 L3296,899" stroke="blue" stroke-width="2" />
<path d="M2073,53 L3379,998" stroke="blue" stroke-width="2" />
<path d="M2092,2128 L2074,1350" stroke="blue" stroke-width="2" />
<path d="M3269,1080 L7792,1296" stroke="blue" stroke-width="2" />
<path d="M9081,1312 L2383,2781" stroke="blue" stroke-width="2" />
<path d="M3543,2064 L8257,493" stroke="blue" stroke-width="2" />
<path d="M7234,2351 L6562,2210" stroke="blue" stroke-width="2" />
<path d="M562,571 L2579,2066" stroke="blue" stroke-width="2" />
<path d="M8544,1924 L4347,1200" stroke="blue" stroke-width="2" />
<path d="M8270,1971 L7906,2467" stroke="blue" stroke-width="2" />
<path d="M7967,2061 L3847,810" stroke="blue" stroke-width="2" />
<path d="M1344,2893 L8144,2478" stroke="blue" stroke-width="2" />
<path d="M4639,347 L1314,901" stroke="blue" stroke-width="2" />
<path d="M899,2566 L6529,80" stroke="blue" stroke-width="2" />
<path d="M8026,2747 L3792,185" stroke="blue" stroke-width="2" />
<path d="M369,1822 L8866,40" stroke="blue" stroke-width="2" />
<path d="M4770,2464 L1295,11" stroke="blue" stroke-width="2" />
<path d="M1702,1166 L4153,1446" stroke="blue" stroke-width="2" />
<path d="M6330,135 L3915,2272" stroke="blue" stroke-width="2" />
<path d="M4067,2450 L1082,819" stroke="blue" stroke-width="2" />
<path d="M7235,1221 L6019,1658" stroke="blue" stroke-width="2" />
<path d="M7676,2788 L737,1533" stroke="blue" stroke-width="2" />
<path d="M6414,2207 L13,2097" stroke="blue" stroke-width="2" />
<path d="M4515,1218 L2727,1314" stroke="blue" stroke-width="2" />
<path d="M2842,1546 L3963,710" stroke="blue" stroke-width="2" />
<path d="M2115,2146 L1469,2396" stroke="blue" stroke-width="2" />
<path d="M8726,1581 L5065,1304" stroke="blue" stroke-width="2" />
<path d="M6119,103 L22,1899" stroke="blue" stroke-width="2" />
<path d="M484,1491 L7246,2479" stroke="blue" stroke-width="2" />
<path d="M4333,365 L3179,2287" stroke="blue" stroke-width="2" />
<path d="M3571,1698 L8003,2622" stroke="blue" stroke-width="2" />
<path d="M1474,2415 L8163,2774" stroke="blue" stroke-width="2" />
<path d="M4801,1697 L241,1516" stroke="blue" stroke-width="2" />
<path d="M4032,1307 L2850,2706" stroke="blue" stroke-width="2" />
<path d="M1421,2177 L6716,304" stroke="blue" stroke-width="2" />
<path d="M920,984 L2209,466" stroke="blue" stroke-width="2" />
<path d="M6886,2067 L2216,1239" stroke="blue" stroke-width="2" />
<path d="M4196,2849 L7122,1776" stroke="blue" stroke-width="2" />
<path d="M5267,2804 L384,2835" stroke="blue" stroke-width="2" />
<path d="M9155,2029 L2454,1747" stroke="blue" stroke-width="2" />
<path d="M7319,787 L4173,1114" stroke="blue" stroke-width="2" />
<path d="M5836,2888 L5265,206" stroke="blue" stroke-width="2" />
<path d="M3018,1823 L6366,2530" stroke="blue" stroke-width="2" />
<path d="M171,2036 L6413,669" stroke="blue" stroke-width="2" />
<path d="M2460,1222 L1192,407" stroke="blue" stroke-width="2" />
<path d="M182,83 L5830,129" stroke="blue" stroke-width="2" />
<path d="M9231,2379 L8359,1341" stroke="blue" stroke-width="2" />
<path d="M3606,1137 L9332,1270" stroke="blue" stroke-width="2" />
<path d="M8218,2827 L5738,1463" stroke="blue" stroke-width="2" />
<path d="M9263,1000 L6614,549" stroke="blue" stroke-width="2" />
<path d="M1513,139 L3103,1997" stroke="blue" stroke-width="2" />
<path d="M8299,2554 L8655,756" stroke="blue" stroke-width="2" />
<path d="M4073,986 L9411,838" stroke="blue" stroke-width="2" />
<path d="M7688,2880 L5099,2476" stroke="blue" stroke-width="2" />
<path d="M5644,1707 L1284,328" stroke="blue" stroke-width="2" />
<path d="M283,844 L3059,2372" stroke="blue" stroke-width="2" />
<path d="M6036,1496 L7722,2433" stroke="blue" stroke-width="2" />
<path d="M4414,1810 L4287,394" stroke="blue" stroke-width="2" />
<path d="M7624,1806 L4449,1653" stroke="blue" stroke-width="2" />
<path d="M576,1489 L1245,1655" stroke="blue" stroke-width="2" />
<path d="M5941,1054 L9468,1122" stroke="blue" stroke-width="2" />
<path d="M4534,166 L2760,407" stroke="blue" stroke-width="2" />
<path d="M4493,1092 L9009,312" stroke="blue" stroke-width="2" />
<path d="M8920,866 L1524,1110" stroke="blue" stroke-width="2" />
<path d="M4806,710 L8481,2719" stroke="blue" stroke-width="2" />
<path d="M7111,1582 L6675,2232" stroke="blue" stroke-width="2" />
<path d="M6322,116 L4593,750" stroke="blue" stroke-width="2" />
<path d="M5914,1936 L799,2666" stroke="blue" stroke-width="2" />
<path d="M1845,1344 L2380,2223" stroke="blue" stroke-width="2" />
<path d="M6655,1124 L2201,778" stroke="blue" stroke-width="2" />
<path d="M538,862 L8621,1809" stroke="blue" stroke-width="2" />
<path d="M7445,1758 L4991,564" stroke="blue" stroke-width="2" />
<path d="M7233,2497 L2225,1126" stroke="blue" stroke-width="2" />
<path d="M5710,1426 L3849,324" stroke="blue" stroke-width="2" />
<path d="M258,2382 L8911,1192" stroke="blue" stroke-width="2" />
<path d="M3234,597 L7752,2685" stroke="blue" stroke-width="2" />
<path d="M8477,2232 L5683,2823" stroke="blue" stroke-width="2" />
<path d="M3100,1236 L5171,1545" stroke="blue" stroke-width="2" />
<path d="M8412,1908 L543,184" stroke="blue" stroke-width="2" />
<path d="M4242,1210 L4787,515" stroke="blue" stroke-width="2" />
<path d="M2199,2746 L167,256" stroke="blue" stroke-width="2" />
<path d="M4446,2758 L1681,401" stroke="blue" stroke-width="2" />
<path d="M4798,924 L1043,2708" stroke="blue" stroke-width="2" />
<path d="M5914,145 L4027,1603" stroke="blue" stroke-width="2" />
<path d="M7678,2535 L5623,2844" stroke="blue" stroke-width="2" />
<path d="M9376,2700 L6435,1896" stroke="blue" stroke-width="2" />
<path d="M4678,2077 L6468,1580" stroke="blue" stroke-width="2" />
<path d="M4206,186 L2278,2523" stroke="blue" stroke-width="2" />
<path d="M2574,1404 L2608,2399" stroke="blue" stroke-width="2" />
<path d="M591,2128 L2211,2459" stroke="blue" stroke-width="2" />
<path d="M7158,2174 L4762,1843" stroke="blue" stroke-width="2" />
<path d="M6141,596 L9535,681" stroke="blue" stroke-width="2" />
<path d="M3217,88 L2941,1601" stroke="blue" stroke-width="2" />
<path d="M6345,258 L6812,2714" stroke="blue" stroke-width="2" />
<path d="M4182,810 L125,3" stroke="blue" stroke-width="2" />
<path d="M5031,457 L3615,2757" stroke="blue" stroke-width="2" />
<path d="M510,1419 L865,1909" stroke="blue" stroke-width="2" />
<path d="M760,2765 L149,860" stroke="blue" stroke-width="2" />
<path d="M4209,1896 L4456,363" stroke="blue" stroke-width="2" />
<path d="M8943,1865 L5085,613" stroke="blue" stroke-width="2" />
<path d="M7706,1393 L4648,588" stroke="blue" stroke-width="2" />
<path d="M1669,1340 L8072,560" stroke="blue" stroke-width="2" />
<path d="M3822,2041 L1493,625" stroke="blue" stroke-width="2" />
<path d="M1189,2909 L8606,1390" stroke="blue" stroke-width="2" />
<path d="M3618,820 L4757,2445" stroke="blue" stroke-width="2" />
<path d="M6300,1983 L6234,1948" stroke="blue" stroke-width="2" />
<path d="M1822,193 L688,2078" stroke="blue" stroke-width="2" />
<path d="M2340,2230 L891,1844" stroke="blue" stroke-width="2" />
<path d="M1535,75 L5496,1190" stroke="blue" stroke-width="2" />
<path d="M2799,2083 L9233,1529" stroke="blue" stroke-width="2" />
<path d="M3052,832 L4605,2745" stroke="blue" stroke-width="2" />
<path d="M5762,1266 L504,1895" stroke="blue" stroke-width="2" />
<path d="M5790,19 L6894,94" stroke="blue" stroke-width="2" />
<path d="M4784,1659 L7074,0" stroke="blue" stroke-width="2" />
<path d="M5548,1226 L3983,2462" stroke="blue" stroke-width="2" />
<path d="M9141,637 L6818,284" stroke="blue" stroke-width="2" />
<path d="M8628,173 L1165,907" stroke="blue" stroke-width="2" />
<path d="M2079,2551 L1508,2364" stroke="blue" stroke-width="2" />
<path d="M4414,2049 L7755,619" stroke="blue" stroke-width="2" />
<path d="M3826,2363 L7845,905" stroke="blue" stroke-width="2" />
<path d="M9131,1114 L745,2794" stroke="blue" stroke-width="2" />
<path d="M6405,604 L7110,1303" stroke="blue" stroke-width="2" />
<path d="M1433,111 L5886,998" stroke="blue" stroke-width="2" />
<path d="M8659,1853 L7923,445" stroke="blue" stroke-width="2" />
<path d="M741,1617 L6598,2785" stroke="blue" stroke-width="2" />
<path d="M9219,1879 L2975,997" stroke="blue" stroke-width="2" />
<path d="M3550,563 L2312,2174" stroke="blue" stroke-width="2" />
<path d="M3935,238 L8336,1949" stroke="blue" stroke-width="2" />
<path d="M4918,2833 L196,1200" stroke="blue" stroke-width="2" />
<path d="M2029,1586 L4053,2554" stroke="blue" stroke-width="2" />
<path d="M7379,463 L6812,494" stroke="blue" stroke-width="2" />
<path d="M6505,2411 L3615,33" stroke="blue" stroke-width="2" />
<path d="M126,1071 L9139,2014" stroke="blue" stroke-width="2" />
<path d="M6885,410 L3169,2270" stroke="blue" stroke-width="2" />
<path d="M2850,1112 L1432,2227" stroke="blue" stroke-width="2" />
<path d="M5783,1550 L3459,1229" stroke="blue" stroke-width="2" />
<path d="M3596,1960 L9258,1056" stroke="blue" stroke-width="2" />
<path d="M6259,758 L7785,1253" stroke="blue" stroke-width="2" />
<path d="M3637,1576 L5518,828" stroke="blue" stroke-width="2" />
<path d="M6426,2250 L9027,2446" stroke="blue" stroke-width="2" />
<path d="M7872,2761 L7513,1020" stroke="blue" stroke-width="2" />
<path d="M242,27 L7930,1162" stroke="blue" stroke-width="2" />
<path d="M6042,2697 L2322,2167" stroke="blue" stroke-width="2" />
<path d="M3463,2349 L7511,1607" stroke="blue" stroke-width="2" />
<path d="M2438,1932 L4166,1013" stroke="blue" stroke-width="2" />
<path d="M5565,2696 L3106,1116" stroke="blue" stroke-width="2" />
<path d="M2907,54 L3047,2165" stroke="blue" stroke-width="2" />
<path d="M4706,923 L1667,2524" stroke="blue" stroke-width="2" />
<path d="M8252,506 L8446,1851" stroke="blue" stroke-width="2" />
<path d="M3217,888 L7013,1115" stroke="blue" stroke-width="2" />
<path d="M6549,1848 L5646,1522" stroke="blue" stroke-width="2" />
<path d="M9136,485 L3393,2086" stroke="blue" stroke-width="2" />
<path d="M5223,295 L4768,439" stroke="blue" stroke-width="2" />
<path d="M2349,376 L6158,264" stroke="blue" stroke-width="2" />
<path d="M8628,607 L7732,1950" stroke="blue" stroke-width="2" />
<path d="M2730,2197 L7336,273" stroke="blue" stroke-width="2" />
<path d="M6392,824 L8080,2732" stroke="blue" stroke-width="2" />
<path d="M5576,157 L5163,1635" stroke="blue" stroke-width="2" />
<path d="M1305,1405 L1897,2860" stroke="blue" stroke-width="2" />
<path d="M1468,1601 L7984,2618" stroke="blue" stroke-width="2" />
<path d="M6381,226 L8859,1085" stroke="blue" stroke-width="2" />
<path d="M4585,1289 L4294,1513" stroke="blue" stroke-width="2" />
<path d="M3273,2442 L7580,1914" stroke="blue" stroke-width="2" />
<path d="M8915,833 L2128,861" stroke="blue" stroke-width="2" />
<path d="M6614,1849 L3914,1813" stroke="blue" stroke-width="2" />
<path d="M8212,1127 L2459,1091" stroke="blue" stroke-width="2" />
<path d="M9487,2236 L4193,891" stroke="blue" stroke-width="2" />
<path d="M8128,1339 L4710,416" stroke="blue" stroke-width="2" />
<path d="M8916,1982 L7022,2876" stroke="blue" stroke-width="2" />
<path d="M4651,2454 L4816,1733" stroke="blue" stroke-width="2" />
<path d="M7098,1570 L2803,1297" stroke="blue" stroke-width="2" />
<path d="M6420,1902 L5950,2630" stroke="blue" stroke-width="2" />
<path d="M6033,2171 L8038,1576" stroke="blue" stroke-width="2" />
<path d="M1580,1313 L4018,1624" stroke="blue" stroke-width="2" />
<path d="M7040,2906 L1988,2110" stroke="blue" stroke-width="2" />
<path d="M3115,1021 L8109,1089" stroke="blue" stroke-width="2" />
<path d="M3083,654 L8241,969" stroke="blue" stroke-width="2" />
<path d="M7287,1262 L565,1656" stroke="blue" stroke-width="2" />
<path d="M4227,2574 L4913,969" stroke="blue" stroke-width="2" />
<path d="M7741,1528 L2831,2593" stroke="blue" stroke-width="2" />
<path d="M8471,457 L4465,184" stroke="blue" stroke-width="2" />
<path d="M3402,129 L8186,2807" stroke="blue" stroke-width="2" />
<path d="M2138,448 L6168,2908" stroke="blue" stroke-width="2" />
<path d="M6231,1177 L572,416" stroke="blue" stroke-width="2" />
<path d="M9248,2466 L7237,2758" stroke="blue" stroke-width="2" />
<path d="M598,2613 L5957,229" stroke="blue" stroke-width="2" />
<path d="M1462,2761 L6252,2572" stroke="blue" stroke-width="2" />
<path d="M9000,1411 L705,2857" stroke="blue" stroke-width="2" />
<path d="M3659,2302 L5980,2302" stroke="blue" stroke-width="2" />
<path d="M6488,1537 L1742,108" stroke="blue" stroke-width="2" />
<path d="M3870,1406 L8320,1185" stroke="blue" stroke-width="2" />
<path d="M4212,2000 L6084,120" stroke="blue" stroke-width="2" />
<path d="M1185,1828 L8978,1732" stroke="blue" stroke-width="2" />
<path d="M828,2745 L390,1361" stroke="blue" stroke-width="2" />
<path d="M8911,1 L5034,137" stroke="blue" stroke-width="2" />
<path d="M3032,1936 L6316,640" stroke="blue" stroke-width="2" />
<path d="M2330,75 L4568,1874" stroke="blue" stroke-width="2" />
<path d="M7333,241 L7520,1429" stroke="blue" stroke-width="2" />
<path d="M2492,2796 L1845,1884" stroke="blue" stroke-width="2" />
<path d="M2829,1510 L2094,2325" stroke="blue" stroke-width="2" />
<path d="M6260,2206 L2414,349" stroke="blue" stroke-width="2" />
<path d="M1181,137 L7287,1647" stroke="blue" stroke-width="2" />
<path d="M1779,1251 L4511,590" stroke="blue" stroke-width="2" />
<path d="M4109,1577 L5752,2426" stroke="blue" stroke-width="2" />
<path d="M3953,2609 L54,1006" stroke="blue" stroke-width="2" />
<path d="M4478,2482 L6119,223" stroke="blue" stroke-width="2" />
<path d="M5777,1138 L2965,2368" stroke="blue" stroke-width="2" />
<path d="M8687,1879 L1071,622" stroke="blue" stroke-width="2" />
<path d="M8206,567 L7261,656" stroke="blue" stroke-width="2" />
<path d="M7263,1317 L3142,2814" stroke="blue" stroke-width="2" />
<path d="M5602,1948 L7795,1264" stroke="blue" stroke-width="2" />
<path d="M8249,2531 L6347,1574" stroke="blue" stroke-width="2" />
<path d="M8605,111 L8314,1079" stroke="blue" stroke-width="2" />
<path d="M842,661 L6807,388" stroke="blue" stroke-width="2" />
<path d="M5508,824 L3573,2803" stroke="blue" stroke-width="2" />
<path d="M6741,2790 L4429,2245" stroke="blue" stroke-width="2" />
<path d="M6624,206 L8830,2011" stroke="blue" stroke-width="2" />
<path d="M1210,2560 L1494,1363" stroke="blue" stroke-width="2" />
<path d="M8832,105 L6989,2256" stroke="blue" stroke-width="2" />
<path d="M3299,2226 L6413,1172" stroke="blue" stroke-width="2" />
<path d="M5772,1972 L2405,137" stroke="blue" stroke-width="2" />
<path d="M2709,1194 L3981,1419" stroke="blue" stroke-width="2" />
<path d="M4793,1467 L5330,2326" stroke="blue" stroke-width="2" />
<path d="M3806,1087 L3682,1109" stroke="blue" stroke-width="2" />
<path d="M1409,2534 L2849,1581" stroke="blue" stroke-width="2" />
<path d="M6144,2908 L5422,75" stroke="blue" stroke-width="2" />
<path d="M8804,654 L5316,366" stroke="blue" stroke-width="2" />
<path d="M9475,112 L3121,117" stroke="blue" stroke-width="2" />
<path d="M360,135 L8117,1431" stroke="blue" stroke-width="2" />
<path d="M8063,1575 L9530,1818" stroke="blue" stroke-width="2" />
<path d="M3259,2109 L2849,2425" stroke="blue" stroke-width="2" />
<path d="M2394,1765 L7427,792" stroke="blue" stroke-width="2" />
<path d="M5136,2221 L4004,1554" stroke="blue" stroke-width="2" />
<path d="M4264,76 L6088,1123" stroke="blue" stroke-width="2" />
<path d="M8503,2412 L9040,2560" stroke="blue" stroke-width="2" />
<path d="M5828,357 L4230,2043" stroke="blue" stroke-width="2" />
<path d="M7487,2875 L8251,148" stroke="blue" stroke-width="2" />
<path d="M6810,374 L1951,2769" stroke="blue" stroke-width="2" />
<path d="M7103,2801 L9218,1888" stroke="blue" stroke-width="2" />
<path d="M6705,954 L7507,1815" stroke="blue" stroke-width="2" />
<path d="M5253,468 L4018,2704" stroke="blue" stroke-width="2" />
<path d="M3884,907 L2329,395" stroke="blue" stroke-width="2" />
<path d="M6511,1855 L3572,2482" stroke="blue" stroke-width="2" />
<path d="M8583,2507 L1826,1985" stroke="blue" stroke-width="2" />
<path d="M8910,2497 L1977,887" stroke="blue" stroke-width="2" />
<path d="M2504,218 L5212,2128" stroke="blue" stroke-width="2" />
<path d="M1825,1730 L3349,1863" stroke="blue" stroke-width="2" />
<path d="M1866,1027 L7896,554" stroke="blue" stroke-width="2" />
<path d="M8974,888 L7835,1279" stroke="blue" stroke-width="2" />
<path d="M9143,210 L2962,2217" stroke="blue" stroke-width="2" />
<path d="M5126,768 L4195,2321" stroke="blue" stroke-width="2" />
<path d="M3915,2637 L8752,1959" stroke="blue" stroke-width="2" />
<path d="M5884,2292 L8705,57" stroke="blue" stroke-width="2" />
<path d="M7599,392 L481,412" stroke="blue" stroke-width="2" />
<path d="M8529,671 L517,2640" stroke="blue" stroke-width="2" />
<path d="M8733,1191 L9156,2089" stroke="blue" stroke-width="2" />
<path d="M9018,2098 L6465,2409" stroke="blue" stroke-width="2" />
<path d="M123,766 L5434,427" stroke="blue" stroke-width="2" />
<path d="M4866,2261 L1899,1745" stroke="blue" stroke-width="2" />
<path d="M0,0 L9561,0" stroke="red" stroke-width="10" />
<path d="M9561,0 L9561,2911" stroke="red" stroke-width="10" />
<path d="M0,2911 L9561,2911" stroke="red" stroke-width="10" />
<path d="M0,2911 L0,0" stroke="red" stroke-width="10" />
</svg>