<?xml version="1.0" encoding="UTF-8"?>
<svg xmlns="http://www.w3.org/2000/svg" xmlns:xlink="http://www.w3.org/1999/xlink"
     width="10000" height="10000" viewBox="0 0 10000 10000">
<defs>
</defs>
<path d="M1595,635 L116,784" stroke="blue" stroke-width="2" />
<path d="M970,895 L681,400" stroke="blue" stroke-width="2" />
<path d="M1417,1014 L825,877" stroke="blue" stroke-width="2" />
<path d="M769,1107 L646,873" stroke="blue" stroke-width="2" />
<path d="M1857,1188 L1594,1184" stroke="blue" stroke-width="2" />
<path d="M1979,412 L1770,1223" stroke="blue" stroke-width="2" />
<path d="M1508,1124 L1199,183" stroke="blue" stroke-width="2" />
<path d="M778,1244 L613,368" stroke="blue" stroke-width="2" />
<path d="M952,33 L33,172" stroke="blue" stroke-width="2" />
<path d="M1098,56 L1284,778" stroke="blue" stroke-width="2" />
<path d="M618,1246 L1231,541" stroke="blue" stroke-width="2" />
<path d="M980,1326 L2088,76" stroke="blue" stroke-width="2" />
<path d="M2097,74 L1329,536" stroke="blue" stroke-width="2" />
<path d="M1098,996 L1971,461" stroke="blue" stroke-width="2" />
<path d="M1088,541 L558,239" stroke="blue" stroke-width="2" />
<path d="M1254,1193 L556,645" stroke="blue" stroke-width="2" />
<path d="M28,932 L1783,252" stroke="blue" stroke-width="2" />
<path d="M2091,1197 L737,944" stroke="blue" stroke-width="2" />
<path d="M1394,922 L1879,376" stroke="blue" stroke-width="2" />
<path d="M1483,468 L21,1196" stroke="blue" stroke-width="2" />
<path d="M676,625 L1758,230" stroke="blue" stroke-width="2" />
<path d="M971,835 L1779,1047" stroke="blue" stroke-width="2" />
<path d="M1105,162 L1578,782" stroke="blue" stroke-width="2" />
<path d="M1879,1143 L1443,646" stroke="blue" stroke-width="2" />
<path d="M2071,289 L2035,847" stroke="blue" stroke-width="2" />
<path d="M816,1034 L1488,103" stroke="blue" stroke-width="2" />
<path d="M2083,271 L590,821" stroke="blue" stroke-width="2" />
<path d="M253,685 L1208,379" stroke="blue" stroke-width="2" />
<path d="M916,484 L1516,947" stroke="blue" stroke-width="2" />
<path d="M199,656 L835,747" stroke="blue" stroke-width="2" />
<path d="M1896,17 L1491,678" stroke="blue" stroke-width="2" />
<path d="M241,919 L1405,237" stroke="blue" stroke-width="2" />
<path d="M1789,807 L1947,743" stroke="blue" stroke-width="2" />
<path d="M701,844 L1848,1017" stroke="blue" stroke-width="2" />
<path d="M808,136 L284,457" stroke="blue" stroke-width="2" />
<path d="M727,222 L44,1065" stroke="blue" stroke-width="2" />
<path d="M93,486 L1330,1092" stroke="blue" stroke-width="2" />
<path d="M1352,444 L1273,816" stroke="blue" stroke-width="2" />
<path d="M937,269 L873,408" stroke="blue" stroke-width="2" />
<path d="M646,871 L1730,133" stroke="blue" stroke-width="2" />
<path d="M639,140 L1705,1138" stroke="blue" stroke-width="2" />
<path d="M1508,110 L1813,156" stroke="blue" stroke-width="2" />
<path d="M1055,733 L1324,642" stroke="blue" stroke-width="2" />
<path d="M536,764 L1922,804" stroke="blue" stroke-width="2" />
<path d="M1966,923 L994,515" stroke="blue" stroke-width="2" />
<path d="M307,17 L341,1050" stroke="blue" stroke-width="2" />
<path d="M1267,814 L439,461" stroke="blue" stroke-width="2" />
<path d="M566,842 L378,662" stroke="blue" stroke-width="2" />
<path d="M472,1311 L1796,1319" stroke="blue" stroke-width="2" />
<path d="M440,854 L100,604" stroke="blue" stroke-width="2" />
<path d="M122,1070 L1870,953" stroke="blue" stroke-width="2" />
<path d="M1950,964 L1886,486" stroke="blue" stroke-width="2" />
<path d="M918,1021 L275,311" stroke="blue" stroke-width="2" />
<path d="M885,384 L1694,1145" stroke="blue" stroke-width="2" />
<path d="M22,1178 L17,261" stroke="blue" stroke-width="2" />
<path d="M843,789 L365,420" stroke="blue" stroke-width="2" />
<path d="M1681,1007 L806,152" stroke="blue" stroke-width="2" />
<path d="M148,468 L2034,163" stroke="blue" stroke-width="2" />
<path d="M1421,687 L1927,182" stroke="blue" stroke-width="2" />
<path d="M1206,303 L678,1273" stroke="blue" stroke-width="2" />
<path d="M1268,1023 L1491,548" stroke="blue" stroke-width="2" />
<path d="M811,165 L1952,842" stroke="blue" stroke-width="2" />
<path d="M257,942 L481,40" stroke="blue" stroke-width="2" />
<path d="M468,850 L423,1132" stroke="blue" stroke-width="2" />
<path d="M154,794 L975,252" stroke="blue" stroke-width="2" />
<path d="M63,895 L577,402" stroke="blue" stroke-width="2" />
<path d="M522,497 L1423,84" stroke="blue" stroke-width="2" />
<path d="M1229,499 L446,291" stroke="blue" stroke-width="2" />
<path d="M771,438 L238,369" stroke="blue" stroke-width="2" />
<path d="M911,233 L80,626" stroke="blue" stroke-width="2" />
<path d="M519,220 L1686,1320" stroke="blue" stroke-width="2" />
<path d="M579,587 L1600,978" stroke="blue" stroke-width="2" />
<path d="M1853,362 L1852,535" stroke="blue" stroke-width="2" />
<path d="M176,122 L643,1006" stroke="blue" stroke-width="2" />
<path d="M1559,835 L711,642" stroke="blue" stroke-width="2" />
<path d="M884,1027 L1495,1278" stroke="blue" stroke-width="2" />
<path d="M1176,718 L1765,1290" stroke="blue" stroke-width="2" />
<path d="M368,377 L305,429" stroke="blue" stroke-width="2" />
<path d="M1344,152 L1574,1328" stroke="blue" stroke-width="2" />
<path d="M420,519 L1573,1112" stroke="blue" stroke-width="2" />
<path d="M310,1032 L590,1250" stroke="blue" stroke-width="2" />
<path d="M1252,795 L801,866" stroke="blue" stroke-width="2" />
<path d="M1823,71 L1967,912" stroke="blue" stroke-width="2" />
<path d="M448,589 L630,1049" stroke="blue" stroke-width="2" />
<path d="M981,583 L897,0" stroke="blue" stroke-width="2" />
<path d="M189,462 L734,643" stroke="blue" stroke-width="2" />
<path d="M1491,385 L1827,522" stroke="blue" stroke-width="2" />
<path d="M1572,932 L1051,845" stroke="blue" stroke-width="2" />
<path d="M1101,79 L1989,428" stroke="blue" stroke-width="2" />
<path d="M303,1210 L1084,349" stroke="blue" stroke-width="2" />
<path d="M75,894 L1948,765" stroke="blue" stroke-width="2" />
<path d="M304,306 L1760,629" stroke="blue" stroke-width="2" />
<path d="M423,861 L2024,48" stroke="blue" stroke-width="2" />
<path d="M875,20 L1253,45" stroke="blue" stroke-width="2" />
<path d="M595,1135 L175,1138" stroke="blue" stroke-width="2" />
<path d="M204,132 L1896,879" stroke="blue" stroke-width="2" />
<path d="M804,511 L365,377" stroke="blue" stroke-width="2" />
<path d="M1954,1313 L445,482" stroke="blue" stroke-width="2" />
<path d="M93,302 L178,345" stroke="blue" stroke-width="2" />
<path d="M1053,822 L1828,1079" stroke="blue" stroke-width="2" />
<path d="M1922,1183 L1944,825" stroke="blue" stroke-width="2" />
<path d="M323,1003 L385,593" stroke="blue" stroke-width="2" />
<path d="M467,1269 L479,588" stroke="blue" stroke-width="2" />
<path d="M227,641 L354,323" stroke="blue" stroke-width="2" />
<path d="M1377,144 L284,126" stroke="blue" stroke-width="2" />
<path d="M272,463 L153,1189" stroke="blue" stroke-width="2" />
<path d="M1804,204 L1185,884" stroke="blue" stroke-width="2" />
<path d="M475,1108 L114,289" stroke="blue" stroke-width="2" />
<path d="M669,109 L1477,1178" stroke="blue" stroke-width="2" />
<path d="M420,1247 L2001,697" stroke="blue" stroke-width="2" />
<path d="M472,797 L1975,405" stroke="blue" stroke-width="2" />
<path d="M1543,68 L1841,653" stroke="blue" stroke-width="2" />
<path d="M1120,153 L1237,1185" stroke="blue" stroke-width="2" />
<path d="M1884,1240 L703,63" stroke="blue" stroke-width="2" />
<path d="M1792,885 L1463,322" stroke="blue" stroke-width="2" />
<path d="M532,1311 L1119,347" stroke="blue" stroke-width="2" />
<path d="M1604,193 L829,1110" stroke="blue" stroke-width="2" />
<path d="M706,913 L667,1148" stroke="blue" stroke-width="2" />
<path d="M1684,20 L634,0" stroke="blue" stroke-width="2" />
<path d="M669,1127 L417,290" stroke="blue" stroke-width="2" />
<path d="M546,1135 L758,1223" stroke="blue" stroke-width="2" />
<path d="M933,323 L498,180" stroke="blue" stroke-width="2" />
<path d="M1798,1001 L1150,915" stroke="blue" stroke-width="2" />
<path d="M540,360 L2006,1067" stroke="blue" stroke-width="2" />
<path d="M237,54 L885,223" stroke="blue" stroke-width="2" />
<path d="M134,1181 L2046,671" stroke="blue" stroke-width="2" />
<path d="M1579,46 L480,65" stroke="blue" stroke-width="2" />
<path d="M1593,1138 L190,495" stroke="blue" stroke-width="2" />
<path d="M683,870 L1952,1300" stroke="blue" stroke-width="2" />
<path d="M1511,1270 L1257,790" stroke="blue" stroke-width="2" />
<path d="M508,230 L1656,333" stroke="blue" stroke-width="2" />
<path d="M1430,401 L1449,47" stroke="blue" stroke-width="2" />
<path d="M2001,1216 L1373,660" stroke="blue" stroke-width="2" />
<path d="M550,711 L1109,65" stroke="blue" stroke-width="2" />
<path d="M880,608 L160,458" stroke="blue" stroke-width="2" />
<path d="M48,97 L506,133" stroke="blue" stroke-width="2" />
<path d="M822,88 L2059,185" stroke="blue" stroke-width="2" />
<path d="M1694,951 L194,447" stroke="blue" stroke-width="2" />
<path d="M498,825 L429,1129" stroke="blue" stroke-width="2" />
<path d="M1438,411 L839,841" stroke="blue" stroke-width="2" />
<path d="M1174,594 L427,1277" stroke="blue" stroke-width="2" />
<path d="M1340,835 L1401,503" stroke="blue" stroke-width="2" />
<path d="M671,328 L1169,1287" stroke="blue" stroke-width="2" />
<path d="M1522,1237 L255,323" stroke="blue" stroke-width="2" />
<path d="M1264,1063 L1553,110" stroke="blue" stroke-width="2" />
<path d="M1096,747 L913,1121" stroke="blue" stroke-width="2" />
<path d="M272,1303 L681,161" stroke="blue" stroke-width="2" />
<path d="M1332,365 L681,193" stroke="blue" stroke-width="2" />
<path d="M1293,193 L1275,37" stroke="blue" stroke-width="2" />
<path d="M587,879 L1302,661" stroke="blue" stroke-width="2" />
<path d="M1905,1129 L813,885" stroke="blue" stroke-width="2" />
<path d="M993,955 L258,88" stroke="blue" stroke-width="2" />
<path d="M1833,1120 L1947,364" stroke="blue" stroke-width="2" />
<path d="M164,693 L112,737" stroke="blue" stroke-width="2" />
<path d="M671,257 L885,709" stroke="blue" stroke-width="2" />
<path d="M710,129 L2077,33" stroke="blue" stroke-width="2" />
<path d="M1521,1187 L1176,76" stroke="blue" stroke-width="2" />
<path d="M2021,22 L1413,448" stroke="blue" stroke-width="2" />
<path d="M590,376 L381,938" stroke="blue" stroke-width="2" />
<path d="M205,1137 L2018,373" stroke="blue" stroke-width="2" />
<path d="M1642,194 L937,133" stroke="blue" stroke-width="2" />
<path d="M1910,445 L1830,1258" stroke="blue" stroke-width="2" />
<path d="M1070,421 L1537,567" stroke="blue" stroke-width="2" />
<path d="M1519,289 L426,675" stroke="blue" stroke-width="2" />
<path d="M710,1010 L1443,960" stroke="blue" stroke-width="2" />
<path d="M1861,755 L1084,855" stroke="blue" stroke-width="2" />
<path d="M363,370 L1932,634" stroke="blue" stroke-width="2" />
<path d="M204,1241 L863,665" stroke="blue" stroke-width="2" />
<path d="M764,408 L1365,924" stroke="blue" stroke-width="2" />
<path d="M1351,846 L232,386" stroke="blue" stroke-width="2" />
<path d="M662,165 L29,1309" stroke="blue" stroke-width="2" />
<path d="M1457,437 L209,142" stroke="blue" stroke-width="2" />
<path d="M305,383 L1738,255" stroke="blue" stroke-width="2" />
<path d="M1056,474 L844,803" stroke="blue" stroke-width="2" />
<path d="M3,30 L978,562" stroke="blue" stroke-width="2" />
<path d="M236,387 L128,314" stroke="blue" stroke-width="2" />
<path d="M53,233 L74,700" stroke="blue" stroke-width="2" />
<path d="M2022,420 L1626,898" stroke="blue" stroke-width="2" />
<path d="M143,343 L1230,1142" stroke="blue" stroke-width="2" />
<path d="M778,196 L483,433" stroke="blue" stroke-width="2" />
<path d="M1355,322 L1649,1023" stroke="blue" stroke-width="2" />
<path d="M1550,0 L890,589" stroke="blue" stroke-width="2" />
<path d="M1995,1093 L1812,443" stroke="blue" stroke-width="2" />
<path d="M514,417 L1207,494" stroke="blue" stroke-width="2" />
<path d="M1552,362 L601,867" stroke="blue" stroke-width="2" />
<path d="M212,570 L238,991" stroke="blue" stroke-width="2" />
<path d="M1537,399 L1188,187" stroke="blue" stroke-width="2" />
<path d="M1975,162 L225,1256" stroke="blue" stroke-width="2" />
<path d="M1110,170 L828,1236" stroke="blue" stroke-width="2" />
<path d="M282,1090 L698,450" stroke="blue" stroke-width="2" />
<path d="M1041,1265 L412,123" stroke="blue" stroke-width="2" />
<path d="M1312,1256 L725,1239" stroke="blue" stroke-width="2" />
<path d="M1637,1008 L958,490" stroke="blue" stroke-width="2" />
<path d="M699,390 L146,518" stroke="blue" stroke-width="2" />
<path d="M1947,391 L234,194" stroke="blue" stroke-width="2" />
<path d="M489,499 L2048,537" stroke="blue" stroke-width="2" />
<path d="M2,158 L1454,960" stroke="blue" stroke-width="2" />
<path d="M1632,291 L1420,663" stroke="blue" stroke-width="2" />
<path d="M1436,468 L176,282" stroke="blue" stroke-width="2" />
<path d="M1036,333 L1751,254" stroke="blue" stroke-width="2" />
<path d="M1242,213 L1137,783" stroke="blue" stroke-width="2" />
<path d="M1322,796 L1342,1323" stroke="blue" stroke-width="2" />
<path d="M1736,612 L757,1127" stroke="blue" stroke-width="2" />
<path d="M1543,377 L1877,199" stroke="blue" stroke-width="2" />
<path d="M1952,1299 L1745,926" stroke="blue" stroke-width="2" />
<path d="M1767,648 L411,375" stroke="blue" stroke-width="2" />
<path d="M1026,551 L1646,1159" stroke="blue" stroke-width="2" />
<path d="M2052,107 L1821,589" stroke="blue" stroke-width="2" />
<path d="M1570,145 L154,1003" stroke="blue" stroke-width="2" />
<path d="M306,375 L301,993" stroke="blue" stroke-width="2" />
<path d="M976,416 L1218,873" stroke="blue" stroke-width="2" />
<path d="M1795,1084 L1715,750" stroke="blue" stroke-width="2" />
<path d="M1876,1288 L801,1009" stroke="blue" stroke-width="2" />
<path d="M783,279 L601,500" stroke="blue" stroke-width="2" />
<path d="M212,277 L1257,410" stroke="blue" stroke-width="2" />
<path d="M1703,623 L596,1330" stroke="blue" stroke-width="2" />
<path d="M824,1123 L937,809" stroke="blue" stroke-width="2" />
<path d="M378,606 L2070,38" stroke="blue" stroke-width="2" />
<path d="M839,684 L813,976" stroke="blue" stroke-width="2" />
<path d="M1424,818 L551,419" stroke="blue" stroke-width="2" />
<path d="M1712,1189 L1349,727" stroke="blue" stroke-width="2" />
<path d="M1651,999 L827,1321" stroke="blue" stroke-width="2" />
<path d="M1219,47 L644,424" stroke="blue" stroke-width="2" />
<path d="M1429,961 L887,1328" stroke="blue" stroke-width="2" />
<path d="M555,275 L1676,1108" stroke="blue" stroke-width="2" />
<path d="M1021,858 L1168,668" stroke="blue" stroke-width="2" />
<path d="M2079,398 L1543,29" stroke="blue" stroke-width="2" />
<path d="M2045,655 L369,1036" stroke="blue" stroke-width="2" />
<path d="M494,617 L242,1272" stroke="blue" stroke-width="2" />
<path d="M2016,682 L1683,1264" stroke="blue" stroke-width="2" />
<path d="M1650,1067 L993,358" stroke="blue" stroke-width="2" />
<path d="M558,906 L2036,757" stroke="blue" stroke-width="2" />
<path d="M1552,850 L1097,651" stroke="blue" stroke-width="2" />
<path d="M1048,913 L143,275" stroke="blue" stroke-width="2" />
<path d="M47,4 L1371,792" stroke="blue" stroke-width="2" />
<path d="M1238,51 L181,1159" stroke="blue" stroke-width="2" />
<path d="M581,729 L724,862" stroke="blue" stroke-width="2" />
<path d="M1339,181 L1249,582" stroke="blue" stroke-width="2" />
<path d="M906,1031 L676,115" stroke="blue" stroke-width="2" />
<path d="M41,906 L650,776" stroke="blue" stroke-width="2" />
<path d="M1788,849 L1792,222" stroke="blue" stroke-width="2" />
<path d="M1241,1125 L2059,1131" stroke="blue" stroke-width="2" />
<path d="M533,687 L1347,642" stroke="blue" stroke-width="2" />
<path d="M995,351 L112,161" stroke="blue" stroke-width="2" />
<path d="M835,463 L193,404" stroke="blue" stroke-width="2" />
<path d="M1338,1222 L1734,95" stroke="blue" stroke-width="2" />
<path d="M642,1005 L1688,1273" stroke="blue" stroke-width="2" />
<path d="M522,756 L373,750" stroke="blue" stroke-width="2" />
<path d="M1900,1108 L1544,895" stroke="blue" stroke-width="2" />
<path d="M1737,93 L1798,1263" stroke="blue" stroke-width="2" />
<path d="M216,340 L911,377" stroke="blue" stroke-width="2" />
<path d="M1171,217 L1952,260" stroke="blue" stroke-width="2" />
<path d="M1614,238 L44,196" stroke="blue" stroke-width="2" />
<path d="M1401,1122 L112,1167" stroke="blue" stroke-width="2" />
<path d="M47,496 L541,968" stroke="blue" stroke-width="2" />
<path d="M1640,1162 L47,575" stroke="blue" stroke-width="2" />
<path d="M0,0 L2100,0" stroke="red" stroke-width="10" />
<path d="M2100,0 L2100,1332" stroke="red" stroke-width="10" />
<path d="M0,1332 L2100,1332" stroke="red" stroke-width="10" />
<path d="M0,1332 L0,0" stroke="red" stroke-width="10" />
</svg>