<?xml version="1.0" encoding="UTF-8"?>
<svg xmlns="http://www.w3.org/2000/svg" xmlns:xlink="http://www.w3.org/1999/xlink"
     width="10000" height="10000" viewBox="0 0 10000 10000">
<defs>
</defs>
<path d="M3525,4044 L3722,4156" stroke="blue" stroke-width="2" />
<path d="M1144,707 L1182,3570" stroke="blue" stroke-width="2" />
<path d="M8784,4317 L9282,3870" stroke="blue" stroke-width="2" />
<path d="M5412,382 L1778,313" stroke="blue" stroke-width="2" />
<path d="M3163,3825 L7590,2797" stroke="blue" stroke-width="2" />
<path d="M7954,4300 L1703,3675" stroke="blue" stroke-width="2" />
<path d="M9468,10 L2202,4380" stroke="blue" stroke-width="2" />
<path d="M2849,1371 L2778,790" stroke="blue" stroke-width="2" />
<path d="M71,1635 L8377,3624" stroke="blue" stroke-width="2" />
<path d="M6367,1696 L1718,3207" stroke="blue" stroke-width="2" />
<path d="M6857,4200 L6903,4228" stroke="blue" stroke-width="2" />
<path d="M4082,307 L7118,3931" stroke="blue" stroke-width="2" />
<path d="M2030,79 L6802,3537" stroke="blue" stroke-width="2" />
<path d="M4661,3837 L2769,2697" stroke="blue" stroke-width="2" />
<path d="M9864,1834 L6547,3385" stroke="blue" stroke-width="2" />
<path d="M8392,1386 L5125,2940" stroke="blue" stroke-width="2" />
<path d="M1016,2709 L7491,3570" stroke="blue" stroke-width="2" />
<path d="M6410,4126 L7463,2877" stroke="blue" stroke-width="2" />
<path d="M2087,2762 L7828,4076" stroke="blue" stroke-width="2" />
<path d="M4054,1384 L3087,1196" stroke="blue" stroke-width="2" />
<path d="M1270,4046 L2180,1641" stroke="blue" stroke-width="2" />
<path d="M3404,1339 L3213,3690" stroke="blue" stroke-width="2" />
<path d="M2268,3209 L194,787" stroke="blue" stroke-width="2" />
<path d="M7513,1291 L9098,322" stroke="blue" stroke-width="2" />
<path d="M4977,2152 L4429,207" stroke="blue" stroke-width="2" />
<path d="M3121,3204 L6566,2675" stroke="blue" stroke-width="2" />
<path d="M8228,2867 L2765,3665" stroke="blue" stroke-width="2" />
<path d="M8489,3230 L9841,3967" stroke="blue" stroke-width="2" />
<path d="M2663,2069 L732,1783" stroke="blue" stroke-width="2" />
<path d="M1721,4405 L7167,1193" stroke="blue" stroke-width="2" />
<path d="M2876,4241 L3039,890" stroke="blue" stroke-width="2" />
<path d="M7810,649 L713,3652" stroke="blue" stroke-width="2" />
<path d="M622,1499 L2773,619" stroke="blue" stroke-width="2" />
<path d="M444,439 L1805,1053" stroke="blue" stroke-width="2" />
<path d="M3528,1801 L8560,2714" stroke="blue" stroke-width="2" />
<path d="M7057,1150 L9665,633" stroke="blue" stroke-width="2" />
<path d="M2808,592 L4601,374" stroke="blue" stroke-width="2" />
<path d="M3528,3706 L3562,817" stroke="blue" stroke-width="2" />
<path d="M9439,237 L2860,3690" stroke="blue" stroke-width="2" />
<path d="M4405,2263 L7864,222" stroke="blue" stroke-width="2" />
<path d="M4155,2049 L7761,3374" stroke="blue" stroke-width="2" />
<path d="M6573,3864 L1105,511" stroke="blue" stroke-width="2" />
<path d="M9470,1740 L3129,1003" stroke="blue" stroke-width="2" />
<path d="M2108,3703 L4401,855" stroke="blue" stroke-width="2" />
<path d="M8685,3225 L604,2291" stroke="blue" stroke-width="2" />
<path d="M7608,531 L3042,3268" stroke="blue" stroke-width="2" />
<path d="M7132,1996 L758,2347" stroke="blue" stroke-width="2" />
<path d="M5079,1008 L735,3833" stroke="blue" stroke-width="2" />
<path d="M7493,3131 L3787,3447" stroke="blue" stroke-width="2" />
<path d="M1267,2841 L6860,45" stroke="blue" stroke-width="2" />
<path d="M2517,2827 L5369,406" stroke="blue" stroke-width="2" />
<path d="M4179,3267 L2317,3029" stroke="blue" stroke-width="2" />
<path d="M2813,2673 L120,1502" stroke="blue" stroke-width="2" />
<path d="M5126,995 L690,1539" stroke="blue" stroke-width="2" />
<path d="M917,1730 L1708,2642" stroke="blue" stroke-width="2" />
<path d="M2558,3479 L7691,3065" stroke="blue" stroke-width="2" />
<path d="M3427,698 L1778,424" stroke="blue" stroke-width="2" />
<path d="M1649,2049 L3508,868" stroke="blue" stroke-width="2" />
<path d="M6066,151 L8250,983" stroke="blue" stroke-width="2" />
<path d="M3991,1234 L3641,439" stroke="blue" stroke-width="2" />
<path d="M1474,1247 L5799,1144" stroke="blue" stroke-width="2" />
<path d="M3008,1331 L375,3716" stroke="blue" stroke-width="2" />
<path d="M3349,506 L8029,2634" stroke="blue" stroke-width="2" />
<path d="M1984,2986 L602,4321" stroke="blue" stroke-width="2" />
<path d="M5735,4373 L5770,3039" stroke="blue" stroke-width="2" />
<path d="M5760,3256 L3986,687" stroke="blue" stroke-width="2" />
<path d="M0,0 L9947,0" stroke="red" stroke-width="10" />
<path d="M9947,0 L9947,4549" stroke="red" stroke-width="10" />
<path d="M0,4549 L9947,4549" stroke="red" stroke-width="10" />
<path d="M0,4549 L0,0" stroke="red" stroke-width="10" />
</svg>