<?xml version="1.0" encoding="UTF-8"?>
<svg xmlns="http://www.w3.org/2000/svg" xmlns:xlink="http://www.w3.org/1999/xlink"
     width="10000" height="10000" viewBox="0 0 10000 10000">
<defs>
</defs>
<path d="M3432,1943 L1926,3592" stroke="blue" stroke-width="2" />
<path d="M2583,2218 L2969,2401" stroke="blue" stroke-width="2" />
<path d="M4119,1079 L483,2179" stroke="blue" stroke-width="2" />
<path d="M870,742 L4322,3365" stroke="blue" stroke-width="2" />
<path d="M493,1533 L6387,2239" stroke="blue" stroke-width="2" />
<path d="M1418,201 L2893,2020" stroke="blue" stroke-width="2" />
<path d="M4459,565 L3757,2531" stroke="blue" stroke-width="2" />
<path d="M3316,3119 L1290,5167" stroke="blue" stroke-width="2" />
<path d="M6450,1715 L2967,2352" stroke="blue" stroke-width="2" />
<path d="M2689,2257 L2370,1218" stroke="blue" stroke-width="2" />
<path d="M3875,3492 L3072,3662" stroke="blue" stroke-width="2" />
<path d="M5565,4984 L652,1318" stroke="blue" stroke-width="2" />
<path d="M2503,2451 L5903,4077" stroke="blue" stroke-width="2" />
<path d="M3951,397 L1392,4259" stroke="blue" stroke-width="2" />
<path d="M1887,980 L972,1830" stroke="blue" stroke-width="2" />
<path d="M2631,4565 L3639,924" stroke="blue" stroke-width="2" />
<path d="M1936,83 L5620,2049" stroke="blue" stroke-width="2" />
<path d="M867,1345 L1206,641" stroke="blue" stroke-width="2" />
<path d="M1036,3869 L3921,306" stroke="blue" stroke-width="2" />
<path d="M4471,412 L6378,5123" stroke="blue" stroke-width="2" />
<path d="M6106,1180 L5147,4747" stroke="blue" stroke-width="2" />
<path d="M13,1791 L2690,1522" stroke="blue" stroke-width="2" />
<path d="M2681,359 L4694,4539" stroke="blue" stroke-width="2" />
<path d="M401,871 L3793,3202" stroke="blue" stroke-width="2" />
<path d="M3504,241 L6464,1882" stroke="blue" stroke-width="2" />
<path d="M1275,3903 L3449,2884" stroke="blue" stroke-width="2" />
<path d="M6326,532 L6421,4103" stroke="blue" stroke-width="2" />
<path d="M4410,1740 L6106,906" stroke="blue" stroke-width="2" />
<path d="M3797,4830 L2329,4527" stroke="blue" stroke-width="2" />
<path d="M4549,3664 L5938,3207" stroke="blue" stroke-width="2" />
<path d="M2014,3873 L1041,4352" stroke="blue" stroke-width="2" />
<path d="M250,5090 L1836,1775" stroke="blue" stroke-width="2" />
<path d="M2204,1792 L3165,914" stroke="blue" stroke-width="2" />
<path d="M1549,585 L4364,3641" stroke="blue" stroke-width="2" />
<path d="M3404,843 L2140,2451" stroke="blue" stroke-width="2" />
<path d="M1473,1988 L3591,2998" stroke="blue" stroke-width="2" />
<path d="M3904,334 L1562,3691" stroke="blue" stroke-width="2" />
<path d="M3111,4329 L3338,5252" stroke="blue" stroke-width="2" />
<path d="M4505,2745 L3251,5219" stroke="blue" stroke-width="2" />
<path d="M4746,3794 L2631,3496" stroke="blue" stroke-width="2" />
<path d="M4189,3423 L4319,2368" stroke="blue" stroke-width="2" />
<path d="M122,4942 L4460,4668" stroke="blue" stroke-width="2" />
<path d="M4994,4881 L5431,1492" stroke="blue" stroke-width="2" />
<path d="M543,2846 L707,3828" stroke="blue" stroke-width="2" />
<path d="M5367,631 L6232,2220" stroke="blue" stroke-width="2" />
<path d="M5976,3974 L20,1237" stroke="blue" stroke-width="2" />
<path d="M3060,3750 L10,1422" stroke="blue" stroke-width="2" />
<path d="M5164,33 L2431,4868" stroke="blue" stroke-width="2" />
<path d="M1388,2312 L4989,746" stroke="blue" stroke-width="2" />
<path d="M1295,4888 L5099,4313" stroke="blue" stroke-width="2" />
<path d="M6249,4679 L840,3251" stroke="blue" stroke-width="2" />
<path d="M5935,3067 L5107,45" stroke="blue" stroke-width="2" />
<path d="M943,4034 L482,3606" stroke="blue" stroke-width="2" />
<path d="M4289,14 L6522,2673" stroke="blue" stroke-width="2" />
<path d="M352,4897 L1873,1108" stroke="blue" stroke-width="2" />
<path d="M3121,704 L473,910" stroke="blue" stroke-width="2" />
<path d="M637,3649 L2382,5320" stroke="blue" stroke-width="2" />
<path d="M3246,1714 L4421,2227" stroke="blue" stroke-width="2" />
<path d="M2370,934 L5912,3580" stroke="blue" stroke-width="2" />
<path d="M2065,1663 L6425,1507" stroke="blue" stroke-width="2" />
<path d="M5449,1453 L818,159" stroke="blue" stroke-width="2" />
<path d="M2271,5317 L3462,4918" stroke="blue" stroke-width="2" />
<path d="M3599,794 L5560,5380" stroke="blue" stroke-width="2" />
<path d="M5887,3278 L5446,2640" stroke="blue" stroke-width="2" />
<path d="M3847,2452 L216,4740" stroke="blue" stroke-width="2" />
<path d="M2482,3341 L721,4280" stroke="blue" stroke-width="2" />
<path d="M1529,2219 L4851,1387" stroke="blue" stroke-width="2" />
<path d="M800,4862 L5556,1629" stroke="blue" stroke-width="2" />
<path d="M4479,876 L4435,2848" stroke="blue" stroke-width="2" />
<path d="M2791,1144 L6165,3013" stroke="blue" stroke-width="2" />
<path d="M4513,604 L6153,1818" stroke="blue" stroke-width="2" />
<path d="M5493,2119 L197,4452" stroke="blue" stroke-width="2" />
<path d="M4558,3440 L3758,832" stroke="blue" stroke-width="2" />
<path d="M4052,160 L5846,3102" stroke="blue" stroke-width="2" />
<path d="M3198,5060 L4382,2244" stroke="blue" stroke-width="2" />
<path d="M5955,3024 L2644,4104" stroke="blue" stroke-width="2" />
<path d="M4209,5314 L6403,4140" stroke="blue" stroke-width="2" />
<path d="M308,2235 L3410,3964" stroke="blue" stroke-width="2" />
<path d="M1995,5035 L1038,48" stroke="blue" stroke-width="2" />
<path d="M1202,1627 L1248,4185" stroke="blue" stroke-width="2" />
<path d="M1776,2059 L231,4728" stroke="blue" stroke-width="2" />
<path d="M2093,1070 L3968,621" stroke="blue" stroke-width="2" />
<path d="M119,2887 L2589,1924" stroke="blue" stroke-width="2" />
<path d="M3022,45 L6006,1668" stroke="blue" stroke-width="2" />
<path d="M2850,3697 L428,815" stroke="blue" stroke-width="2" />
<path d="M4858,5320 L6254,3636" stroke="blue" stroke-width="2" />
<path d="M6304,3005 L2425,4793" stroke="blue" stroke-width="2" />
<path d="M5040,3005 L6104,4178" stroke="blue" stroke-width="2" />
<path d="M2322,781 L2191,4243" stroke="blue" stroke-width="2" />
<path d="M6346,4461 L236,5245" stroke="blue" stroke-width="2" />
<path d="M2686,899 L6319,2468" stroke="blue" stroke-width="2" />
<path d="M1235,3473 L2257,2064" stroke="blue" stroke-width="2" />
<path d="M2151,2108 L3788,32" stroke="blue" stroke-width="2" />
<path d="M2543,1379 L5482,1168" stroke="blue" stroke-width="2" />
<path d="M953,3636 L5927,773" stroke="blue" stroke-width="2" />
<path d="M3254,2175 L4345,3829" stroke="blue" stroke-width="2" />
<path d="M760,1933 L2034,3301" stroke="blue" stroke-width="2" />
<path d="M3949,4726 L4445,5390" stroke="blue" stroke-width="2" />
<path d="M4851,3928 L2925,5208" stroke="blue" stroke-width="2" />
<path d="M5199,1172 L5779,701" stroke="blue" stroke-width="2" />
<path d="M1899,4911 L4889,5110" stroke="blue" stroke-width="2" />
<path d="M2978,5313 L69,4021" stroke="blue" stroke-width="2" />
<path d="M5042,3157 L806,1927" stroke="blue" stroke-width="2" />
<path d="M2625,1329 L5590,1728" stroke="blue" stroke-width="2" />
<path d="M1990,4331 L3589,2158" stroke="blue" stroke-width="2" />
<path d="M44,230 L2772,694" stroke="blue" stroke-width="2" />
<path d="M6442,2308 L5655,830" stroke="blue" stroke-width="2" />
<path d="M4918,357 L2837,4326" stroke="blue" stroke-width="2" />
<path d="M4641,4125 L2037,2176" stroke="blue" stroke-width="2" />
<path d="M5412,909 L5020,2302" stroke="blue" stroke-width="2" />
<path d="M2470,2037 L5319,767" stroke="blue" stroke-width="2" />
<path d="M2200,2753 L127,3079" stroke="blue" stroke-width="2" />
<path d="M2432,4366 L532,567" stroke="blue" stroke-width="2" />
<path d="M226,271 L6438,533" stroke="blue" stroke-width="2" />
<path d="M4551,4644 L232,4908" stroke="blue" stroke-width="2" />
<path d="M83,1388 L1147,1976" stroke="blue" stroke-width="2" />
<path d="M2063,3990 L1446,187" stroke="blue" stroke-width="2" />
<path d="M5760,2500 L1000,4042" stroke="blue" stroke-width="2" />
<path d="M4355,5353 L5770,3678" stroke="blue" stroke-width="2" />
<path d="M5247,2742 L2457,5386" stroke="blue" stroke-width="2" />
<path d="M995,2346 L2901,3736" stroke="blue" stroke-width="2" />
<path d="M4622,2007 L5690,1058" stroke="blue" stroke-width="2" />
<path d="M2175,3432 L2463,3240" stroke="blue" stroke-width="2" />
<path d="M5999,2296 L3075,4586" stroke="blue" stroke-width="2" />
<path d="M3851,5318 L2286,4745" stroke="blue" stroke-width="2" />
<path d="M5178,4587 L5828,4544" stroke="blue" stroke-width="2" />
<path d="M6053,3223 L6235,4620" stroke="blue" stroke-width="2" />
<path d="M6110,924 L956,2738" stroke="blue" stroke-width="2" />
<path d="M5911,3216 L2751,4055" stroke="blue" stroke-width="2" />
<path d="M4712,3110 L4727,3885" stroke="blue" stroke-width="2" />
<path d="M2123,5344 L2189,3679" stroke="blue" stroke-width="2" />
<path d="M2829,2595 L2942,4599" stroke="blue" stroke-width="2" />
<path d="M1114,578 L5004,1711" stroke="blue" stroke-width="2" />
<path d="M6396,3694 L634,1085" stroke="blue" stroke-width="2" />
<path d="M6459,3917 L4810,1145" stroke="blue" stroke-width="2" />
<path d="M5215,2191 L375,89" stroke="blue" stroke-width="2" />
<path d="M5983,1942 L5164,3721" stroke="blue" stroke-width="2" />
<path d="M5173,1827 L215,3371" stroke="blue" stroke-width="2" />
<path d="M5166,3254 L1718,3195" stroke="blue" stroke-width="2" />
<path d="M4683,4971 L4351,1429" stroke="blue" stroke-width="2" />
<path d="M1676,3663 L5200,5222" stroke="blue" stroke-width="2" />
<path d="M1284,3594 L3410,2314" stroke="blue" stroke-width="2" />
<path d="M5307,4044 L3774,525" stroke="blue" stroke-width="2" />
<path d="M4096,259 L3220,641" stroke="blue" stroke-width="2" />
<path d="M938,3324 L1733,4526" stroke="blue" stroke-width="2" />
<path d="M3450,5257 L2082,518" stroke="blue" stroke-width="2" />
<path d="M5293,4808 L4048,49" stroke="blue" stroke-width="2" />
<path d="M2570,5223 L878,1216" stroke="blue" stroke-width="2" />
<path d="M2085,1634 L3604,2196" stroke="blue" stroke-width="2" />
<path d="M6073,3809 L4719,896" stroke="blue" stroke-width="2" />
<path d="M3365,4110 L2886,1705" stroke="blue" stroke-width="2" />
<path d="M3826,773 L429,2783" stroke="blue" stroke-width="2" />
<path d="M6322,1024 L1145,1412" stroke="blue" stroke-width="2" />
<path d="M6374,4161 L5477,2133" stroke="blue" stroke-width="2" />
<path d="M2545,3693 L5847,4728" stroke="blue" stroke-width="2" />
<path d="M623,172 L748,2509" stroke="blue" stroke-width="2" />
<path d="M4808,615 L1412,4213" stroke="blue" stroke-width="2" />
<path d="M3724,3150 L5207,785" stroke="blue" stroke-width="2" />
<path d="M686,439 L2579,1463" stroke="blue" stroke-width="2" />
<path d="M2230,2747 L3830,4986" stroke="blue" stroke-width="2" />
<path d="M2125,416 L2063,4481" stroke="blue" stroke-width="2" />
<path d="M4219,960 L4732,3106" stroke="blue" stroke-width="2" />
<path d="M4064,3348 L5731,1871" stroke="blue" stroke-width="2" />
<path d="M4497,4443 L377,2061" stroke="blue" stroke-width="2" />
<path d="M742,5178 L1830,44" stroke="blue" stroke-width="2" />
<path d="M1274,172 L6023,4220" stroke="blue" stroke-width="2" />
<path d="M5332,3556 L5077,4959" stroke="blue" stroke-width="2" />
<path d="M2058,333 L4613,5098" stroke="blue" stroke-width="2" />
<path d="M404,4144 L3163,1258" stroke="blue" stroke-width="2" />
<path d="M2405,4154 L847,4800" stroke="blue" stroke-width="2" />
<path d="M4786,1102 L3548,4854" stroke="blue" stroke-width="2" />
<path d="M5977,5070 L5033,2493" stroke="blue" stroke-width="2" />
<path d="M6306,4240 L985,3598" stroke="blue" stroke-width="2" />
<path d="M2291,3477 L2894,1885" stroke="blue" stroke-width="2" />
<path d="M2881,602 L3405,4303" stroke="blue" stroke-width="2" />
<path d="M4384,2383 L3567,2830" stroke="blue" stroke-width="2" />
<path d="M6470,2879 L5577,1452" stroke="blue" stroke-width="2" />
<path d="M4227,5127 L4057,1877" stroke="blue" stroke-width="2" />
<path d="M2381,1910 L504,2134" stroke="blue" stroke-width="2" />
<path d="M351,2117 L4387,2958" stroke="blue" stroke-width="2" />
<path d="M4128,4463 L1882,3554" stroke="blue" stroke-width="2" />
<path d="M3430,3884 L2370,4094" stroke="blue" stroke-width="2" />
<path d="M2311,4022 L6045,2175" stroke="blue" stroke-width="2" />
<path d="M2872,296 L5416,4447" stroke="blue" stroke-width="2" />
<path d="M6551,4557 L5924,4338" stroke="blue" stroke-width="2" />
<path d="M5220,2696 L4560,4049" stroke="blue" stroke-width="2" />
<path d="M4218,2678 L556,4088" stroke="blue" stroke-width="2" />
<path d="M2375,2751 L5359,1700" stroke="blue" stroke-width="2" />
<path d="M5123,4373 L4676,4237" stroke="blue" stroke-width="2" />
<path d="M4452,5027 L4617,2811" stroke="blue" stroke-width="2" />
<path d="M3079,2121 L5439,1603" stroke="blue" stroke-width="2" />
<path d="M4083,1361 L4253,4050" stroke="blue" stroke-width="2" />
<path d="M5434,94 L6270,3874" stroke="blue" stroke-width="2" />
<path d="M1186,4896 L6483,688" stroke="blue" stroke-width="2" />
<path d="M439,2547 L2678,3290" stroke="blue" stroke-width="2" />
<path d="M2537,2586 L4229,3984" stroke="blue" stroke-width="2" />
<path d="M4869,861 L1245,4873" stroke="blue" stroke-width="2" />
<path d="M5764,227 L1092,4380" stroke="blue" stroke-width="2" />
<path d="M5599,2120 L5173,5200" stroke="blue" stroke-width="2" />
<path d="M4225,746 L5710,1612" stroke="blue" stroke-width="2" />
<path d="M3892,2845 L6161,4973" stroke="blue" stroke-width="2" />
<path d="M2076,4475 L5719,3788" stroke="blue" stroke-width="2" />
<path d="M5111,2039 L5059,3902" stroke="blue" stroke-width="2" />
<path d="M3708,1994 L5288,3423" stroke="blue" stroke-width="2" />
<path d="M1615,5359 L126,1185" stroke="blue" stroke-width="2" />
<path d="M2713,3751 L39,135" stroke="blue" stroke-width="2" />
<path d="M2290,2993 L4756,2598" stroke="blue" stroke-width="2" />
<path d="M3594,1333 L5615,4000" stroke="blue" stroke-width="2" />
<path d="M3318,3584 L4376,291" stroke="blue" stroke-width="2" />
<path d="M1094,2139 L6443,2532" stroke="blue" stroke-width="2" />
<path d="M6365,1991 L714,5216" stroke="blue" stroke-width="2" />
<path d="M1749,3810 L4622,4775" stroke="blue" stroke-width="2" />
<path d="M1211,5296 L6326,712" stroke="blue" stroke-width="2" />
<path d="M4974,3847 L3568,3959" stroke="blue" stroke-width="2" />
<path d="M6518,2540 L3871,3022" stroke="blue" stroke-width="2" />
<path d="M2802,4576 L1212,122" stroke="blue" stroke-width="2" />
<path d="M1923,1789 L5776,1239" stroke="blue" stroke-width="2" />
<path d="M2222,2904 L204,1993" stroke="blue" stroke-width="2" />
<path d="M4602,3468 L6179,595" stroke="blue" stroke-width="2" />
<path d="M6353,5274 L3630,3366" stroke="blue" stroke-width="2" />
<path d="M5238,1975 L4466,4105" stroke="blue" stroke-width="2" />
<path d="M2819,4260 L6124,3388" stroke="blue" stroke-width="2" />
<path d="M3199,4259 L3759,2984" stroke="blue" stroke-width="2" />
<path d="M529,3846 L4172,2016" stroke="blue" stroke-width="2" />
<path d="M1864,1873 L2879,1670" stroke="blue" stroke-width="2" />
<path d="M5052,2402 L3244,2646" stroke="blue" stroke-width="2" />
<path d="M3345,726 L484,3000" stroke="blue" stroke-width="2" />
<path d="M4002,2620 L2451,2280" stroke="blue" stroke-width="2" />
<path d="M3615,1866 L6000,57" stroke="blue" stroke-width="2" />
<path d="M1421,261 L966,2108" stroke="blue" stroke-width="2" />
<path d="M5103,3066 L473,3337" stroke="blue" stroke-width="2" />
<path d="M3775,1587 L604,4970" stroke="blue" stroke-width="2" />
<path d="M4423,4183 L780,3915" stroke="blue" stroke-width="2" />
<path d="M4965,3129 L2107,5153" stroke="blue" stroke-width="2" />
<path d="M2624,2257 L3063,2818" stroke="blue" stroke-width="2" />
<path d="M801,1761 L2771,4557" stroke="blue" stroke-width="2" />
<path d="M3376,1149 L1004,4734" stroke="blue" stroke-width="2" />
<path d="M6061,4823 L2439,3117" stroke="blue" stroke-width="2" />
<path d="M2783,3794 L5282,628" stroke="blue" stroke-width="2" />
<path d="M6545,3263 L6092,1959" stroke="blue" stroke-width="2" />
<path d="M1475,238 L1189,4991" stroke="blue" stroke-width="2" />
<path d="M970,680 L3068,2592" stroke="blue" stroke-width="2" />
<path d="M2600,213 L2701,2800" stroke="blue" stroke-width="2" />
<path d="M2508,4636 L3643,1863" stroke="blue" stroke-width="2" />
<path d="M1481,5264 L399,504" stroke="blue" stroke-width="2" />
<path d="M3916,5181 L1157,4384" stroke="blue" stroke-width="2" />
<path d="M213,5198 L2758,3294" stroke="blue" stroke-width="2" />
<path d="M4655,4959 L3093,2589" stroke="blue" stroke-width="2" />
<path d="M4118,4854 L174,4540" stroke="blue" stroke-width="2" />
<path d="M5240,1183 L956,2704" stroke="blue" stroke-width="2" />
<path d="M650,2780 L3748,3191" stroke="blue" stroke-width="2" />
<path d="M6033,3934 L3547,5386" stroke="blue" stroke-width="2" />
<path d="M4757,4800 L3705,2545" stroke="blue" stroke-width="2" />
<path d="M3304,416 L720,3128" stroke="blue" stroke-width="2" />
<path d="M5717,1012 L4263,1979" stroke="blue" stroke-width="2" />
<path d="M216,1074 L1574,452" stroke="blue" stroke-width="2" />
<path d="M5270,2410 L3227,4888" stroke="blue" stroke-width="2" />
<path d="M3434,847 L6215,1070" stroke="blue" stroke-width="2" />
<path d="M6392,2843 L5912,1588" stroke="blue" stroke-width="2" />
<path d="M2008,730 L5729,3572" stroke="blue" stroke-width="2" />
<path d="M4347,2145 L6361,3825" stroke="blue" stroke-width="2" />
<path d="M3938,848 L1084,591" stroke="blue" stroke-width="2" />
<path d="M6192,2275 L5060,2643" stroke="blue" stroke-width="2" />
<path d="M1205,992 L4042,862" stroke="blue" stroke-width="2" />
<path d="M5528,3027 L217,1391" stroke="blue" stroke-width="2" />
<path d="M4363,4986 L1307,4750" stroke="blue" stroke-width="2" />
<path d="M5363,3099 L5114,550" stroke="blue" stroke-width="2" />
<path d="M3551,5121 L4388,1290" stroke="blue" stroke-width="2" />
<path d="M5522,5007 L3561,3868" stroke="blue" stroke-width="2" />
<path d="M326,534 L4390,528" stroke="blue" stroke-width="2" />
<path d="M6352,1601 L899,2980" stroke="blue" stroke-width="2" />
<path d="M1247,4928 L1551,1045" stroke="blue" stroke-width="2" />
<path d="M419,3485 L1494,2431" stroke="blue" stroke-width="2" />
<path d="M4840,909 L1010,1634" stroke="blue" stroke-width="2" />
<path d="M4366,2703 L4627,2604" stroke="blue" stroke-width="2" />
<path d="M2639,1418 L1072,4654" stroke="blue" stroke-width="2" />
<path d="M3039,3236 L45,1954" stroke="blue" stroke-width="2" />
<path d="M4387,884 L4825,2041" stroke="blue" stroke-width="2" />
<path d="M5520,4894 L6538,5300" stroke="blue" stroke-width="2" />
<path d="M4708,225 L4753,4213" stroke="blue" stroke-width="2" />
<path d="M5531,2135 L519,467" stroke="blue" stroke-width="2" />
<path d="M2207,3382 L3745,3962" stroke="blue" stroke-width="2" />
<path d="M353,5395 L4419,1908" stroke="blue" stroke-width="2" />
<path d="M2143,1101 L2398,3264" stroke="blue" stroke-width="2" />
<path d="M1950,4794 L983,4661" stroke="blue" stroke-width="2" />
<path d="M2126,489 L1711,2589" stroke="blue" stroke-width="2" />
<path d="M3502,5190 L1071,578" stroke="blue" stroke-width="2" />
<path d="M481,68 L3725,543" stroke="blue" stroke-width="2" />
<path d="M2192,2060 L3999,2351" stroke="blue" stroke-width="2" />
<path d="M3097,2307 L549,664" stroke="blue" stroke-width="2" />
<path d="M1114,3233 L5424,1561" stroke="blue" stroke-width="2" />
<path d="M3101,1575 L2874,747" stroke="blue" stroke-width="2" />
<path d="M2263,4669 L3367,811" stroke="blue" stroke-width="2" />
<path d="M5096,4686 L2282,456" stroke="blue" stroke-width="2" />
<path d="M1736,334 L4485,2755" stroke="blue" stroke-width="2" />
<path d="M6016,2227 L6119,3653" stroke="blue" stroke-width="2" />
<path d="M72,935 L2200,4167" stroke="blue" stroke-width="2" />
<path d="M1011,4758 L1819,150" stroke="blue" stroke-width="2" />
<path d="M5997,1919 L3086,2815" stroke="blue" stroke-width="2" />
<path d="M4051,229 L4467,899" stroke="blue" stroke-width="2" />
<path d="M5775,4066 L6265,965" stroke="blue" stroke-width="2" />
<path d="M2329,1912 L6144,3709" stroke="blue" stroke-width="2" />
<path d="M1755,4920 L3961,4376" stroke="blue" stroke-width="2" />
<path d="M2505,176 L2932,1232" stroke="blue" stroke-width="2" />
<path d="M4751,2126 L5888,1242" stroke="blue" stroke-width="2" />
<path d="M4232,2534 L6523,5039" stroke="blue" stroke-width="2" />
<path d="M5852,2760 L2506,4202" stroke="blue" stroke-width="2" />
<path d="M6500,4566 L5883,3846" stroke="blue" stroke-width="2" />
<path d="M4054,1136 L838,2208" stroke="blue" stroke-width="2" />
<path d="M4744,876 L2324,1184" stroke="blue" stroke-width="2" />
<path d="M4188,1494 L5994,2377" stroke="blue" stroke-width="2" />
<path d="M3821,2972 L999,1794" stroke="blue" stroke-width="2" />
<path d="M5582,4816 L965,2297" stroke="blue" stroke-width="2" />
<path d="M196,2463 L2383,4812" stroke="blue" stroke-width="2" />
<path d="M6397,2992 L6091,878" stroke="blue" stroke-width="2" />
<path d="M813,1737 L4013,264" stroke="blue" stroke-width="2" />
<path d="M4151,5145 L1421,4553" stroke="blue" stroke-width="2" />
<path d="M2675,2730 L4584,5247" stroke="blue" stroke-width="2" />
<path d="M2692,2764 L4972,5104" stroke="blue" stroke-width="2" />
<path d="M5015,1813 L3009,2623" stroke="blue" stroke-width="2" />
<path d="M5392,3034 L3638,3097" stroke="blue" stroke-width="2" />
<path d="M4008,2904 L2779,3294" stroke="blue" stroke-width="2" />
<path d="M1586,3313 L3238,1944" stroke="blue" stroke-width="2" />
<path d="M4649,1961 L3842,2777" stroke="blue" stroke-width="2" />
<path d="M1556,4691 L2131,2239" stroke="blue" stroke-width="2" />
<path d="M4521,3034 L5786,2166" stroke="blue" stroke-width="2" />
<path d="M4624,3499 L1781,2360" stroke="blue" stroke-width="2" />
<path d="M4704,1390 L2407,1992" stroke="blue" stroke-width="2" />
<path d="M4484,655 L4295,4036" stroke="blue" stroke-width="2" />
<path d="M2868,4140 L1299,4934" stroke="blue" stroke-width="2" />
<path d="M4189,4870 L41,1231" stroke="blue" stroke-width="2" />
<path d="M3868,1928 L1124,2605" stroke="blue" stroke-width="2" />
<path d="M5016,4003 L5047,3133" stroke="blue" stroke-width="2" />
<path d="M1589,2692 L1332,2308" stroke="blue" stroke-width="2" />
<path d="M3834,4899 L1028,3207" stroke="blue" stroke-width="2" />
<path d="M690,2335 L517,55" stroke="blue" stroke-width="2" />
<path d="M4328,2343 L4244,4697" stroke="blue" stroke-width="2" />
<path d="M2181,1798 L4139,3353" stroke="blue" stroke-width="2" />
<path d="M3679,1140 L5312,936" stroke="blue" stroke-width="2" />
<path d="M6258,704 L6410,1367" stroke="blue" stroke-width="2" />
<path d="M343,1455 L6014,3998" stroke="blue" stroke-width="2" />
<path d="M2744,4974 L5610,3304" stroke="blue" stroke-width="2" />
<path d="M4532,590 L6088,5038" stroke="blue" stroke-width="2" />
<path d="M2887,2652 L3859,3399" stroke="blue" stroke-width="2" />
<path d="M1380,1739 L2220,1443" stroke="blue" stroke-width="2" />
<path d="M5370,2765 L5333,337" stroke="blue" stroke-width="2" />
<path d="M4931,5375 L2408,82" stroke="blue" stroke-width="2" />
<path d="M1318,5370 L1127,1274" stroke="blue" stroke-width="2" />
<path d="M377,4233 L5511,2675" stroke="blue" stroke-width="2" />
<path d="M716,565 L4925,2834" stroke="blue" stroke-width="2" />
<path d="M1392,4483 L3355,4910" stroke="blue" stroke-width="2" />
<path d="M3910,3726 L71,823" stroke="blue" stroke-width="2" />
<path d="M5853,1564 L198,2264" stroke="blue" stroke-width="2" />
<path d="M6252,1584 L160,3325" stroke="blue" stroke-width="2" />
<path d="M663,3196 L2901,3314" stroke="blue" stroke-width="2" />
<path d="M3440,3538 L2691,1451" stroke="blue" stroke-width="2" />
<path d="M2900,2945 L2174,5399" stroke="blue" stroke-width="2" />
<path d="M2884,2772 L4215,1093" stroke="blue" stroke-width="2" />
<path d="M1917,5009 L5872,2952" stroke="blue" stroke-width="2" />
<path d="M5283,3173 L456,4825" stroke="blue" stroke-width="2" />
<path d="M4226,1033 L2257,660" stroke="blue" stroke-width="2" />
<path d="M1120,4682 L5571,184" stroke="blue" stroke-width="2" />
<path d="M2551,307 L4248,4652" stroke="blue" stroke-width="2" />
<path d="M428,3984 L2582,740" stroke="blue" stroke-width="2" />
<path d="M3582,1993 L3101,2420" stroke="blue" stroke-width="2" />
<path d="M2381,168 L1825,3422" stroke="blue" stroke-width="2" />
<path d="M1851,638 L2324,54" stroke="blue" stroke-width="2" />
<path d="M2025,2830 L3148,887" stroke="blue" stroke-width="2" />
<path d="M1198,3837 L5054,2470" stroke="blue" stroke-width="2" />
<path d="M1444,1966 L2890,3964" stroke="blue" stroke-width="2" />
<path d="M1494,2772 L5433,1497" stroke="blue" stroke-width="2" />
<path d="M5377,1842 L710,1671" stroke="blue" stroke-width="2" />
<path d="M2282,3750 L4849,2365" stroke="blue" stroke-width="2" />
<path d="M5033,2777 L2082,475" stroke="blue" stroke-width="2" />
<path d="M6241,343 L6018,4935" stroke="blue" stroke-width="2" />
<path d="M2716,4847 L2744,2240" stroke="blue" stroke-width="2" />
<path d="M309,3975 L1037,2438" stroke="blue" stroke-width="2" />
<path d="M2347,1794 L5073,5177" stroke="blue" stroke-width="2" />
<path d="M6053,1445 L3950,1891" stroke="blue" stroke-width="2" />
<path d="M5182,2066 L4313,234" stroke="blue" stroke-width="2" />
<path d="M4646,4332 L5200,3742" stroke="blue" stroke-width="2" />
<path d="M5744,1183 L4112,2412" stroke="blue" stroke-width="2" />
<path d="M4116,161 L2237,1642" stroke="blue" stroke-width="2" />
<path d="M244,2498 L5369,874" stroke="blue" stroke-width="2" />
<path d="M3238,4760 L4841,1673" stroke="blue" stroke-width="2" />
<path d="M77,5053 L995,1062" stroke="blue" stroke-width="2" />
<path d="M996,2223 L1361,2905" stroke="blue" stroke-width="2" />
<path d="M1693,3810 L340,2334" stroke="blue" stroke-width="2" />
<path d="M4229,2504 L251,4001" stroke="blue" stroke-width="2" />
<path d="M3394,1522 L2276,247" stroke="blue" stroke-width="2" />
<path d="M2521,4469 L2250,439" stroke="blue" stroke-width="2" />
<path d="M127,3516 L272,3114" stroke="blue" stroke-width="2" />
<path d="M3641,3855 L1020,3418" stroke="blue" stroke-width="2" />
<path d="M164,4990 L3579,2664" stroke="blue" stroke-width="2" />
<path d="M5449,2680 L2425,3340" stroke="blue" stroke-width="2" />
<path d="M3434,2648 L5491,2841" stroke="blue" stroke-width="2" />
<path d="M987,626 L2696,4210" stroke="blue" stroke-width="2" />
<path d="M1830,5200 L13,4280" stroke="blue" stroke-width="2" />
<path d="M6411,2453 L1621,1728" stroke="blue" stroke-width="2" />
<path d="M4878,3418 L6310,4382" stroke="blue" stroke-width="2" />
<path d="M2634,2863 L5671,4347" stroke="blue" stroke-width="2" />
<path d="M1420,4775 L881,4242" stroke="blue" stroke-width="2" />
<path d="M1404,3504 L608,3203" stroke="blue" stroke-width="2" />
<path d="M564,966 L5799,902" stroke="blue" stroke-width="2" />
<path d="M4563,1856 L1920,3850" stroke="blue" stroke-width="2" />
<path d="M5712,1127 L4977,3375" stroke="blue" stroke-width="2" />
<path d="M1227,2665 L2046,4163" stroke="blue" stroke-width="2" />
<path d="M4455,4454 L1972,862" stroke="blue" stroke-width="2" />
<path d="M52,4038 L2653,4671" stroke="blue" stroke-width="2" />
<path d="M3371,3741 L2141,2459" stroke="blue" stroke-width="2" />
<path d="M1753,3148 L6405,4057" stroke="blue" stroke-width="2" />
<path d="M5894,825 L2098,2659" stroke="blue" stroke-width="2" />
<path d="M3131,4252 L6056,4056" stroke="blue" stroke-width="2" />
<path d="M2829,2737 L178,1498" stroke="blue" stroke-width="2" />
<path d="M3757,1853 L3329,1252" stroke="blue" stroke-width="2" />
<path d="M3967,1821 L5747,5302" stroke="blue" stroke-width="2" />
<path d="M5344,1549 L872,2" stroke="blue" stroke-width="2" />
<path d="M2184,5010 L1761,3301" stroke="blue" stroke-width="2" />
<path d="M4273,2778 L4039,119" stroke="blue" stroke-width="2" />
<path d="M3018,1855 L5958,5259" stroke="blue" stroke-width="2" />
<path d="M6375,995 L2106,4823" stroke="blue" stroke-width="2" />
<path d="M4473,394 L3136,1824" stroke="blue" stroke-width="2" />
<path d="M1149,2222 L1284,1766" stroke="blue" stroke-width="2" />
<path d="M4812,2574 L5240,4826" stroke="blue" stroke-width="2" />
<path d="M4215,1668 L2504,4397" stroke="blue" stroke-width="2" />
<path d="M4581,4982 L2132,230" stroke="blue" stroke-width="2" />
<path d="M4547,760 L6530,3890" stroke="blue" stroke-width="2" />
<path d="M4240,214 L2900,975" stroke="blue" stroke-width="2" />
<path d="M907,4675 L5285,2090" stroke="blue" stroke-width="2" />
<path d="M6403,3521 L3071,3896" stroke="blue" stroke-width="2" />
<path d="M5670,4840 L3488,5208" stroke="blue" stroke-width="2" />
<path d="M4122,3181 L5706,5363" stroke="blue" stroke-width="2" />
<path d="M4111,2758 L3152,4218" stroke="blue" stroke-width="2" />
<path d="M4772,1333 L5572,1801" stroke="blue" stroke-width="2" />
<path d="M3932,1872 L2641,4818" stroke="blue" stroke-width="2" />
<path d="M2300,5087 L4408,123" stroke="blue" stroke-width="2" />
<path d="M4298,344 L4070,3653" stroke="blue" stroke-width="2" />
<path d="M4836,3190 L5463,1983" stroke="blue" stroke-width="2" />
<path d="M5714,4392 L1268,3413" stroke="blue" stroke-width="2" />
<path d="M2782,66 L858,5210" stroke="blue" stroke-width="2" />
<path d="M1092,2781 L4127,4308" stroke="blue" stroke-width="2" />
<path d="M3058,3485 L643,3257" stroke="blue" stroke-width="2" />
<path d="M2563,786 L3313,1170" stroke="blue" stroke-width="2" />
<path d="M6295,1374 L2795,2944" stroke="blue" stroke-width="2" />
<path d="M1344,4880 L1044,3483" stroke="blue" stroke-width="2" />
<path d="M4138,1625 L211,3152" stroke="blue" stroke-width="2" />
<path d="M4404,5344 L1474,170" stroke="blue" stroke-width="2" />
<path d="M5118,5253 L880,850" stroke="blue" stroke-width="2" />
<path d="M4064,5001 L4256,492" stroke="blue" stroke-width="2" />
<path d="M1993,3188 L5840,4959" stroke="blue" stroke-width="2" />
<path d="M2790,2442 L678,20" stroke="blue" stroke-width="2" />
<path d="M1432,4837 L1334,2961" stroke="blue" stroke-width="2" />
<path d="M3306,2971 L5171,3120" stroke="blue" stroke-width="2" />
<path d="M3602,4453 L4560,227" stroke="blue" stroke-width="2" />
<path d="M5122,4190 L3909,1905" stroke="blue" stroke-width="2" />
<path d="M1216,2908 L2029,4797" stroke="blue" stroke-width="2" />
<path d="M3901,4597 L190,43" stroke="blue" stroke-width="2" />
<path d="M5877,5239 L66,2315" stroke="blue" stroke-width="2" />
<path d="M410,938 L3560,2582" stroke="blue" stroke-width="2" />
<path d="M3745,1441 L2910,578" stroke="blue" stroke-width="2" />
<path d="M3196,4079 L3498,5010" stroke="blue" stroke-width="2" />
<path d="M2528,3114 L5468,4176" stroke="blue" stroke-width="2" />
<path d="M6530,971 L4918,1021" stroke="blue" stroke-width="2" />
<path d="M4434,4144 L5257,1485" stroke="blue" stroke-width="2" />
<path d="M1502,4355 L149,3288" stroke="blue" stroke-width="2" />
<path d="M2429,2978 L2675,3823" stroke="blue" stroke-width="2" />
<path d="M1360,2057 L6123,1679" stroke="blue" stroke-width="2" />
<path d="M6147,1411 L1925,3975" stroke="blue" stroke-width="2" />
<path d="M5956,4420 L1944,745" stroke="blue" stroke-width="2" />
<path d="M521,2477 L319,157" stroke="blue" stroke-width="2" />
<path d="M5171,4216 L5151,4426" stroke="blue" stroke-width="2" />
<path d="M384,241 L1379,4389" stroke="blue" stroke-width="2" />
<path d="M7,3147 L914,4718" stroke="blue" stroke-width="2" />
<path d="M790,2038 L4591,4070" stroke="blue" stroke-width="2" />
<path d="M2214,3817 L6184,3614" stroke="blue" stroke-width="2" />
<path d="M6341,1985 L3890,588" stroke="blue" stroke-width="2" />
<path d="M443,426 L3198,5052" stroke="blue" stroke-width="2" />
<path d="M5999,3027 L186,5279" stroke="blue" stroke-width="2" />
<path d="M417,1645 L3459,4470" stroke="blue" stroke-width="2" />
<path d="M1899,1537 L3406,3895" stroke="blue" stroke-width="2" />
<path d="M269,2420 L5088,676" stroke="blue" stroke-width="2" />
<path d="M4209,3914 L4698,2591" stroke="blue" stroke-width="2" />
<path d="M1928,124 L4577,2556" stroke="blue" stroke-width="2" />
<path d="M3351,4491 L3756,5255" stroke="blue" stroke-width="2" />
<path d="M4884,328 L1090,3631" stroke="blue" stroke-width="2" />
<path d="M2367,2683 L5887,626" stroke="blue" stroke-width="2" />
<path d="M3845,1523 L397,3125" stroke="blue" stroke-width="2" />
<path d="M4261,3674 L206,3117" stroke="blue" stroke-width="2" />
<path d="M6238,2945 L4970,692" stroke="blue" stroke-width="2" />
<path d="M3374,4236 L6420,3421" stroke="blue" stroke-width="2" />
<path d="M3698,4116 L3420,4570" stroke="blue" stroke-width="2" />
<path d="M2541,3883 L5553,5212" stroke="blue" stroke-width="2" />
<path d="M5570,1439 L832,1799" stroke="blue" stroke-width="2" />
<path d="M1862,2618 L4010,3859" stroke="blue" stroke-width="2" />
<path d="M4302,5062 L6403,4727" stroke="blue" stroke-width="2" />
<path d="M2839,4517 L1054,4243" stroke="blue" stroke-width="2" />
<path d="M2461,1519 L2766,2049" stroke="blue" stroke-width="2" />
<path d="M2269,3075 L4250,4429" stroke="blue" stroke-width="2" />
<path d="M5341,1674 L870,2527" stroke="blue" stroke-width="2" />
<path d="M3311,1372 L4579,3346" stroke="blue" stroke-width="2" />
<path d="M3906,3251 L4479,3035" stroke="blue" stroke-width="2" />
<path d="M853,3372 L1254,1939" stroke="blue" stroke-width="2" />
<path d="M4419,1825 L6354,2443" stroke="blue" stroke-width="2" />
<path d="M3724,534 L5653,1313" stroke="blue" stroke-width="2" />
<path d="M4336,272 L4028,5280" stroke="blue" stroke-width="2" />
<path d="M1086,916 L1048,3663" stroke="blue" stroke-width="2" />
<path d="M1222,1685 L3034,3399" stroke="blue" stroke-width="2" />
<path d="M1009,3295 L1561,4453" stroke="blue" stroke-width="2" />
<path d="M6,1599 L2414,4486" stroke="blue" stroke-width="2" />
<path d="M4621,2129 L1634,1109" stroke="blue" stroke-width="2" />
<path d="M3279,75 L1364,5339" stroke="blue" stroke-width="2" />
<path d="M3158,4812 L2434,3617" stroke="blue" stroke-width="2" />
<path d="M228,2864 L3256,1085" stroke="blue" stroke-width="2" />
<path d="M4508,3457 L1932,4063" stroke="blue" stroke-width="2" />
<path d="M2584,88 L3549,3761" stroke="blue" stroke-width="2" />
<path d="M3643,4117 L3232,1058" stroke="blue" stroke-width="2" />
<path d="M216,3731 L86,3120" stroke="blue" stroke-width="2" />
<path d="M3246,967 L2671,1150" stroke="blue" stroke-width="2" />
<path d="M797,5298 L510,349" stroke="blue" stroke-width="2" />
<path d="M5951,5132 L6447,617" stroke="blue" stroke-width="2" />
<path d="M5990,823 L6240,231" stroke="blue" stroke-width="2" />
<path d="M5696,1909 L2711,1331" stroke="blue" stroke-width="2" />
<path d="M3044,659 L993,743" stroke="blue" stroke-width="2" />
<path d="M3208,5101 L2862,5209" stroke="blue" stroke-width="2" />
<path d="M475,4640 L5611,5146" stroke="blue" stroke-width="2" />
<path d="M2232,1275 L4630,5177" stroke="blue" stroke-width="2" />
<path d="M1178,5170 L880,2001" stroke="blue" stroke-width="2" />
<path d="M470,1226 L2597,1370" stroke="blue" stroke-width="2" />
<path d="M622,82 L211,162" stroke="blue" stroke-width="2" />
<path d="M638,4261 L2912,3230" stroke="blue" stroke-width="2" />
<path d="M3486,2259 L54,2774" stroke="blue" stroke-width="2" />
<path d="M2703,1095 L6207,276" stroke="blue" stroke-width="2" />
<path d="M6381,2343 L6101,1659" stroke="blue" stroke-width="2" />
<path d="M4707,1024 L2243,3988" stroke="blue" stroke-width="2" />
<path d="M4265,3253 L1593,3191" stroke="blue" stroke-width="2" />
<path d="M943,1089 L261,4763" stroke="blue" stroke-width="2" />
<path d="M2422,3176 L37,4925" stroke="blue" stroke-width="2" />
<path d="M5009,4277 L6247,2831" stroke="blue" stroke-width="2" />
<path d="M2746,577 L1353,3561" stroke="blue" stroke-width="2" />
<path d="M2966,2695 L474,90" stroke="blue" stroke-width="2" />
<path d="M2785,2689 L3642,1461" stroke="blue" stroke-width="2" />
<path d="M6081,3450 L439,3240" stroke="blue" stroke-width="2" />
<path d="M4246,3747 L5278,3849" stroke="blue" stroke-width="2" />
<path d="M5118,2496 L4608,1646" stroke="blue" stroke-width="2" />
<path d="M1208,242 L1949,116" stroke="blue" stroke-width="2" />
<path d="M4783,2473 L5599,2349" stroke="blue" stroke-width="2" />
<path d="M5537,449 L1598,4890" stroke="blue" stroke-width="2" />
<path d="M3457,687 L2917,5353" stroke="blue" stroke-width="2" />
<path d="M2324,1329 L3351,3037" stroke="blue" stroke-width="2" />
<path d="M5812,1730 L1773,3977" stroke="blue" stroke-width="2" />
<path d="M5251,4344 L40,638" stroke="blue" stroke-width="2" />
<path d="M6467,3574 L3450,1881" stroke="blue" stroke-width="2" />
<path d="M4306,1007 L1799,4204" stroke="blue" stroke-width="2" />
<path d="M2567,2709 L2530,5326" stroke="blue" stroke-width="2" />
<path d="M150,159 L3087,3201" stroke="blue" stroke-width="2" />
<path d="M5425,1907 L2483,883" stroke="blue" stroke-width="2" />
<path d="M3072,3518 L2703,3905" stroke="blue" stroke-width="2" />
<path d="M23,4553 L1952,3539" stroke="blue" stroke-width="2" />
<path d="M2831,2129 L1867,4566" stroke="blue" stroke-width="2" />
<path d="M4939,1967 L5536,57" stroke="blue" stroke-width="2" />
<path d="M5662,3464 L6349,4365" stroke="blue" stroke-width="2" />
<path d="M2081,233 L2613,3338" stroke="blue" stroke-width="2" />
<path d="M790,3660 L2209,1083" stroke="blue" stroke-width="2" />
<path d="M180,1678 L4391,4639" stroke="blue" stroke-width="2" />
<path d="M2173,512 L2229,4755" stroke="blue" stroke-width="2" />
<path d="M2486,2402 L2621,2121" stroke="blue" stroke-width="2" />
<path d="M4440,2276 L338,4726" stroke="blue" stroke-width="2" />
<path d="M2641,707 L3969,1190" stroke="blue" stroke-width="2" />
<path d="M6030,4536 L1132,1891" stroke="blue" stroke-width="2" />
<path d="M845,3792 L3732,2721" stroke="blue" stroke-width="2" />
<path d="M0,0 L6556,0" stroke="red" stroke-width="10" />
<path d="M6556,0 L6556,5405" stroke="red" stroke-width="10" />
<path d="M0,5405 L6556,5405" stroke="red" stroke-width="10" />
<path d="M0,5405 L0,0" stroke="red" stroke-width="10" />
</svg>