<?xml version="1.0" encoding="UTF-8"?>
<svg xmlns="http://www.w3.org/2000/svg" xmlns:xlink="http://www.w3.org/1999/xlink"
     width="10000" height="10000" viewBox="0 0 10000 10000">
<defs>
</defs>
<path d="M7590,2986 L6679,2516" stroke="blue" stroke-width="2" />
<path d="M1515,2655 L9355,1316" stroke="blue" stroke-width="2" />
<path d="M2523,9375 L4793,3528" stroke="blue" stroke-width="2" />
<path d="M9750,8885 L3462,4665" stroke="blue" stroke-width="2" />
<path d="M5134,7905 L4245,9461" stroke="blue" stroke-width="2" />
<path d="M8136,5729 L3342,6276" stroke="blue" stroke-width="2" />
<path d="M3713,3965 L7341,8769" stroke="blue" stroke-width="2" />
<path d="M4588,5852 L3071,9294" stroke="blue" stroke-width="2" />
<path d="M5708,97 L4071,8345" stroke="blue" stroke-width="2" />
<path d="M7357,7731 L9722,1969" stroke="blue" stroke-width="2" />
<path d="M2120,2531 L3082,1307" stroke="blue" stroke-width="2" />
<path d="M6636,6284 L7781,46" stroke="blue" stroke-width="2" />
<path d="M1347,2571 L9563,6270" stroke="blue" stroke-width="2" />
<path d="M9210,5092 L6344,2289" stroke="blue" stroke-width="2" />
<path d="M6152,9247 L8908,7144" stroke="blue" stroke-width="2" />
<path d="M2254,876 L1542,6945" stroke="blue" stroke-width="2" />
<path d="M9519,9297 L4721,1181" stroke="blue" stroke-width="2" />
<path d="M4295,3529 L9009,6023" stroke="blue" stroke-width="2" />
<path d="M2983,8314 L63,3509" stroke="blue" stroke-width="2" />
<path d="M704,4090 L9143,1721" stroke="blue" stroke-width="2" />
<path d="M1851,2733 L353,3628" stroke="blue" stroke-width="2" />
<path d="M1493,2320 L6712,5206" stroke="blue" stroke-width="2" />
<path d="M7898,7638 L6382,7707" stroke="blue" stroke-width="2" />
<path d="M8126,8296 L7468,2706" stroke="blue" stroke-width="2" />
<path d="M4431,2369 L6306,9098" stroke="blue" stroke-width="2" />
<path d="M9596,2768 L4456,2946" stroke="blue" stroke-width="2" />
<path d="M4746,822 L7316,6157" stroke="blue" stroke-width="2" />
<path d="M2948,9330 L9484,9211" stroke="blue" stroke-width="2" />
<path d="M8146,8389 L1970,1288" stroke="blue" stroke-width="2" />
<path d="M1380,6977 L9318,504" stroke="blue" stroke-width="2" />
<path d="M7732,1919 L4075,7545" stroke="blue" stroke-width="2" />
<path d="M5727,3265 L3496,7358" stroke="blue" stroke-width="2" />
<path d="M6750,9110 L3954,5031" stroke="blue" stroke-width="2" />
<path d="M8439,8646 L7586,3182" stroke="blue" stroke-width="2" />
<path d="M3166,4927 L3955,7473" stroke="blue" stroke-width="2" />
<path d="M1047,4214 L616,7745" stroke="blue" stroke-width="2" />
<path d="M1489,3366 L1179,1263" stroke="blue" stroke-width="2" />
<path d="M2344,151 L8402,7903" stroke="blue" stroke-width="2" />
<path d="M5454,3215 L4248,398" stroke="blue" stroke-width="2" />
<path d="M3985,1475 L3550,5528" stroke="blue" stroke-width="2" />
<path d="M1458,544 L7646,1751" stroke="blue" stroke-width="2" />
<path d="M8670,7228 L7299,1883" stroke="blue" stroke-width="2" />
<path d="M5576,8281 L5606,1691" stroke="blue" stroke-width="2" />
<path d="M7797,2531 L4197,3533" stroke="blue" stroke-width="2" />
<path d="M2447,9237 L7574,4687" stroke="blue" stroke-width="2" />
<path d="M8192,8929 L8603,4349" stroke="blue" stroke-width="2" />
<path d="M2416,439 L7982,5340" stroke="blue" stroke-width="2" />
<path d="M1573,1003 L2224,1632" stroke="blue" stroke-width="2" />
<path d="M8061,3945 L5953,5030" stroke="blue" stroke-width="2" />
<path d="M9589,2083 L7729,8848" stroke="blue" stroke-width="2" />
<path d="M9390,8061 L195,9032" stroke="blue" stroke-width="2" />
<path d="M6826,2029 L8921,2092" stroke="blue" stroke-width="2" />
<path d="M9006,3314 L2764,2469" stroke="blue" stroke-width="2" />
<path d="M582,8586 L8365,5614" stroke="blue" stroke-width="2" />
<path d="M452,144 L4524,3465" stroke="blue" stroke-width="2" />
<path d="M6211,8309 L8011,7606" stroke="blue" stroke-width="2" />
<path d="M8999,4685 L5436,555" stroke="blue" stroke-width="2" />
<path d="M8337,8694 L5360,8625" stroke="blue" stroke-width="2" />
<path d="M5445,1240 L4321,2913" stroke="blue" stroke-width="2" />
<path d="M9318,2018 L3321,7098" stroke="blue" stroke-width="2" />
<path d="M6185,8392 L5934,5446" stroke="blue" stroke-width="2" />
<path d="M8681,8328 L3611,2268" stroke="blue" stroke-width="2" />
<path d="M2244,1709 L2179,5919" stroke="blue" stroke-width="2" />
<path d="M346,1336 L9722,1287" stroke="blue" stroke-width="2" />
<path d="M9217,836 L8123,1423" stroke="blue" stroke-width="2" />
<path d="M9034,7523 L6496,8332" stroke="blue" stroke-width="2" />
<path d="M3954,2993 L5937,7758" stroke="blue" stroke-width="2" />
<path d="M5931,1032 L9298,126" stroke="blue" stroke-width="2" />
<path d="M2549,5775 L2410,7112" stroke="blue" stroke-width="2" />
<path d="M7061,1322 L8719,1580" stroke="blue" stroke-width="2" />
<path d="M1956,5091 L272,7585" stroke="blue" stroke-width="2" />
<path d="M7706,3375 L938,6848" stroke="blue" stroke-width="2" />
<path d="M3723,6911 L3154,9235" stroke="blue" stroke-width="2" />
<path d="M1348,3905 L8650,6727" stroke="blue" stroke-width="2" />
<path d="M5424,4256 L6207,8239" stroke="blue" stroke-width="2" />
<path d="M4824,7576 L3052,6996" stroke="blue" stroke-width="2" />
<path d="M7233,490 L4599,4497" stroke="blue" stroke-width="2" />
<path d="M3366,7644 L2414,2471" stroke="blue" stroke-width="2" />
<path d="M9110,7955 L7990,6641" stroke="blue" stroke-width="2" />
<path d="M8170,6545 L1929,5259" stroke="blue" stroke-width="2" />
<path d="M6669,556 L155,5483" stroke="blue" stroke-width="2" />
<path d="M8317,4295 L8164,755" stroke="blue" stroke-width="2" />
<path d="M457,7679 L9029,3300" stroke="blue" stroke-width="2" />
<path d="M6442,6007 L7512,2019" stroke="blue" stroke-width="2" />
<path d="M8,35 L1387,7444" stroke="blue" stroke-width="2" />
<path d="M8283,5525 L3977,9485" stroke="blue" stroke-width="2" />
<path d="M4836,3445 L2569,300" stroke="blue" stroke-width="2" />
<path d="M2142,8767 L6997,6790" stroke="blue" stroke-width="2" />
<path d="M606,1144 L7061,858" stroke="blue" stroke-width="2" />
<path d="M9564,6517 L5856,7087" stroke="blue" stroke-width="2" />
<path d="M9512,6475 L4671,2901" stroke="blue" stroke-width="2" />
<path d="M3066,7988 L5723,1170" stroke="blue" stroke-width="2" />
<path d="M3240,5487 L4083,3577" stroke="blue" stroke-width="2" />
<path d="M645,7158 L9675,2104" stroke="blue" stroke-width="2" />
<path d="M1231,6308 L4765,8241" stroke="blue" stroke-width="2" />
<path d="M8292,2042 L5906,6610" stroke="blue" stroke-width="2" />
<path d="M9777,9336 L2019,6096" stroke="blue" stroke-width="2" />
<path d="M3450,7246 L6565,1794" stroke="blue" stroke-width="2" />
<path d="M9428,2054 L8604,6717" stroke="blue" stroke-width="2" />
<path d="M4986,7263 L2971,1907" stroke="blue" stroke-width="2" />
<path d="M945,4894 L2113,2003" stroke="blue" stroke-width="2" />
<path d="M7059,4934 L6593,2735" stroke="blue" stroke-width="2" />
<path d="M4389,8812 L5111,8512" stroke="blue" stroke-width="2" />
<path d="M608,4099 L2913,2656" stroke="blue" stroke-width="2" />
<path d="M7218,5920 L4489,7803" stroke="blue" stroke-width="2" />
<path d="M2721,4352 L3528,4484" stroke="blue" stroke-width="2" />
<path d="M3668,5578 L5489,168" stroke="blue" stroke-width="2" />
<path d="M4511,5920 L780,1675" stroke="blue" stroke-width="2" />
<path d="M6517,6405 L5000,4761" stroke="blue" stroke-width="2" />
<path d="M8566,6323 L9177,3639" stroke="blue" stroke-width="2" />
<path d="M854,3449 L9368,1196" stroke="blue" stroke-width="2" />
<path d="M2216,1547 L7172,1563" stroke="blue" stroke-width="2" />
<path d="M8756,8407 L3857,521" stroke="blue" stroke-width="2" />
<path d="M2005,7406 L8147,3300" stroke="blue" stroke-width="2" />
<path d="M4026,269 L8229,6538" stroke="blue" stroke-width="2" />
<path d="M7638,6601 L4563,8333" stroke="blue" stroke-width="2" />
<path d="M2281,4543 L9338,7105" stroke="blue" stroke-width="2" />
<path d="M7816,4810 L6197,7975" stroke="blue" stroke-width="2" />
<path d="M7957,3517 L7508,4177" stroke="blue" stroke-width="2" />
<path d="M2968,7917 L6326,8243" stroke="blue" stroke-width="2" />
<path d="M7362,1183 L7246,3754" stroke="blue" stroke-width="2" />
<path d="M317,4855 L8470,7832" stroke="blue" stroke-width="2" />
<path d="M3264,3264 L743,2777" stroke="blue" stroke-width="2" />
<path d="M1781,7532 L7247,4167" stroke="blue" stroke-width="2" />
<path d="M1646,4813 L7141,6762" stroke="blue" stroke-width="2" />
<path d="M871,339 L9585,8300" stroke="blue" stroke-width="2" />
<path d="M918,2883 L2005,5084" stroke="blue" stroke-width="2" />
<path d="M5518,4809 L5413,9180" stroke="blue" stroke-width="2" />
<path d="M6322,4312 L4343,7978" stroke="blue" stroke-width="2" />
<path d="M6230,8807 L7176,7469" stroke="blue" stroke-width="2" />
<path d="M4093,9500 L7046,918" stroke="blue" stroke-width="2" />
<path d="M2546,6489 L8788,5214" stroke="blue" stroke-width="2" />
<path d="M6331,869 L2035,4099" stroke="blue" stroke-width="2" />
<path d="M3981,3881 L3079,3078" stroke="blue" stroke-width="2" />
<path d="M1357,3425 L1892,5367" stroke="blue" stroke-width="2" />
<path d="M8975,8214 L8885,2508" stroke="blue" stroke-width="2" />
<path d="M2245,8687 L1241,3301" stroke="blue" stroke-width="2" />
<path d="M7967,511 L7292,4509" stroke="blue" stroke-width="2" />
<path d="M5617,1569 L6715,8844" stroke="blue" stroke-width="2" />
<path d="M676,5989 L7837,3876" stroke="blue" stroke-width="2" />
<path d="M5589,1162 L255,8477" stroke="blue" stroke-width="2" />
<path d="M5448,8874 L4816,2941" stroke="blue" stroke-width="2" />
<path d="M9652,6626 L9643,8526" stroke="blue" stroke-width="2" />
<path d="M8942,4373 L154,7002" stroke="blue" stroke-width="2" />
<path d="M2581,7372 L8181,8871" stroke="blue" stroke-width="2" />
<path d="M8041,2222 L2882,7102" stroke="blue" stroke-width="2" />
<path d="M7584,933 L9367,6129" stroke="blue" stroke-width="2" />
<path d="M2348,1678 L4517,4638" stroke="blue" stroke-width="2" />
<path d="M1768,9430 L9550,8966" stroke="blue" stroke-width="2" />
<path d="M6116,1431 L8336,274" stroke="blue" stroke-width="2" />
<path d="M2217,6170 L8010,4635" stroke="blue" stroke-width="2" />
<path d="M8022,2186 L8308,253" stroke="blue" stroke-width="2" />
<path d="M276,3131 L3782,6335" stroke="blue" stroke-width="2" />
<path d="M5561,3040 L618,6569" stroke="blue" stroke-width="2" />
<path d="M9519,2017 L133,9219" stroke="blue" stroke-width="2" />
<path d="M9463,270 L8021,5485" stroke="blue" stroke-width="2" />
<path d="M3408,7344 L9773,5125" stroke="blue" stroke-width="2" />
<path d="M6651,4983 L4899,6661" stroke="blue" stroke-width="2" />
<path d="M0,0 L9813,0" stroke="red" stroke-width="10" />
<path d="M9813,0 L9813,9502" stroke="red" stroke-width="10" />
<path d="M0,9502 L9813,9502" stroke="red" stroke-width="10" />
<path d="M0,9502 L0,0" stroke="red" stroke-width="10" />
</svg>