<?xml version="1.0" encoding="UTF-8"?>
<svg xmlns="http://www.w3.org/2000/svg" xmlns:xlink="http://www.w3.org/1999/xlink"
     width="10000" height="10000" viewBox="0 0 10000 10000">
<defs>
</defs>
<path d="M9023,1084 L117,3379" stroke="blue" stroke-width="2" />
<path d="M2176,2212 L7538,2308" stroke="blue" stroke-width="2" />
<path d="M1231,953 L7137,502" stroke="blue" stroke-width="2" />
<path d="M7188,1658 L857,692" stroke="blue" stroke-width="2" />
<path d="M6223,651 L5596,3747" stroke="blue" stroke-width="2" />
<path d="M4576,3354 L9363,2088" stroke="blue" stroke-width="2" />
<path d="M9560,717 L7368,972" stroke="blue" stroke-width="2" />
<path d="M2324,2518 L238,3806" stroke="blue" stroke-width="2" />
<path d="M2338,937 L1487,3668" stroke="blue" stroke-width="2" />
<path d="M9520,1362 L1395,524" stroke="blue" stroke-width="2" />
<path d="M8448,3275 L7702,1952" stroke="blue" stroke-width="2" />
<path d="M8459,555 L6148,1555" stroke="blue" stroke-width="2" />
<path d="M6678,1010 L3900,2540" stroke="blue" stroke-width="2" />
<path d="M3787,1935 L2788,3119" stroke="blue" stroke-width="2" />
<path d="M3595,3323 L5649,2768" stroke="blue" stroke-width="2" />
<path d="M6611,30 L2193,2034" stroke="blue" stroke-width="2" />
<path d="M6798,455 L1355,3205" stroke="blue" stroke-width="2" />
<path d="M688,2632 L339,1823" stroke="blue" stroke-width="2" />
<path d="M2189,741 L4675,13" stroke="blue" stroke-width="2" />
<path d="M205,2440 L6068,169" stroke="blue" stroke-width="2" />
<path d="M9211,3323 L8263,877" stroke="blue" stroke-width="2" />
<path d="M1234,2400 L7058,3533" stroke="blue" stroke-width="2" />
<path d="M6468,1729 L6490,3433" stroke="blue" stroke-width="2" />
<path d="M5023,1735 L6965,2526" stroke="blue" stroke-width="2" />
<path d="M7949,1450 L9475,3736" stroke="blue" stroke-width="2" />
<path d="M5372,1681 L6578,1910" stroke="blue" stroke-width="2" />
<path d="M5590,1777 L71,53" stroke="blue" stroke-width="2" />
<path d="M2082,4018 L6935,1809" stroke="blue" stroke-width="2" />
<path d="M4432,1583 L1356,189" stroke="blue" stroke-width="2" />
<path d="M1229,3058 L2001,1183" stroke="blue" stroke-width="2" />
<path d="M6634,800 L4493,486" stroke="blue" stroke-width="2" />
<path d="M4799,3969 L4124,3562" stroke="blue" stroke-width="2" />
<path d="M4784,4049 L9543,2756" stroke="blue" stroke-width="2" />
<path d="M4736,2711 L3857,419" stroke="blue" stroke-width="2" />
<path d="M6822,4086 L288,1359" stroke="blue" stroke-width="2" />
<path d="M5263,2913 L2925,466" stroke="blue" stroke-width="2" />
<path d="M6102,1132 L8278,2973" stroke="blue" stroke-width="2" />
<path d="M672,1012 L9570,4024" stroke="blue" stroke-width="2" />
<path d="M1352,2928 L3122,812" stroke="blue" stroke-width="2" />
<path d="M5246,1414 L5520,3556" stroke="blue" stroke-width="2" />
<path d="M3748,1053 L7811,2318" stroke="blue" stroke-width="2" />
<path d="M2982,3821 L5165,2172" stroke="blue" stroke-width="2" />
<path d="M7340,2364 L9090,3448" stroke="blue" stroke-width="2" />
<path d="M3731,322 L9601,2315" stroke="blue" stroke-width="2" />
<path d="M6744,444 L4660,1203" stroke="blue" stroke-width="2" />
<path d="M3887,2994 L9182,3585" stroke="blue" stroke-width="2" />
<path d="M856,978 L5706,1097" stroke="blue" stroke-width="2" />
<path d="M3214,2787 L6565,528" stroke="blue" stroke-width="2" />
<path d="M4138,2816 L9452,3791" stroke="blue" stroke-width="2" />
<path d="M9207,457 L1371,3318" stroke="blue" stroke-width="2" />
<path d="M7251,894 L5891,647" stroke="blue" stroke-width="2" />
<path d="M4498,2302 L4088,1571" stroke="blue" stroke-width="2" />
<path d="M9191,2547 L3374,102" stroke="blue" stroke-width="2" />
<path d="M3002,1172 L304,1478" stroke="blue" stroke-width="2" />
<path d="M400,3534 L8093,1936" stroke="blue" stroke-width="2" />
<path d="M3929,333 L7294,1166" stroke="blue" stroke-width="2" />
<path d="M4999,2084 L2871,2646" stroke="blue" stroke-width="2" />
<path d="M6443,3600 L6823,2425" stroke="blue" stroke-width="2" />
<path d="M5206,2500 L8218,1791" stroke="blue" stroke-width="2" />
<path d="M4135,1655 L5146,402" stroke="blue" stroke-width="2" />
<path d="M8047,2592 L3265,2256" stroke="blue" stroke-width="2" />
<path d="M7204,3727 L8151,1615" stroke="blue" stroke-width="2" />
<path d="M545,1167 L6367,2303" stroke="blue" stroke-width="2" />
<path d="M1314,152 L2316,2791" stroke="blue" stroke-width="2" />
<path d="M4563,445 L1649,2950" stroke="blue" stroke-width="2" />
<path d="M2838,82 L4193,769" stroke="blue" stroke-width="2" />
<path d="M3895,902 L1326,3516" stroke="blue" stroke-width="2" />
<path d="M6248,852 L87,2543" stroke="blue" stroke-width="2" />
<path d="M5105,3351 L1137,867" stroke="blue" stroke-width="2" />
<path d="M4800,1461 L4409,2902" stroke="blue" stroke-width="2" />
<path d="M4763,3203 L3945,1890" stroke="blue" stroke-width="2" />
<path d="M3979,3974 L1180,2439" stroke="blue" stroke-width="2" />
<path d="M2861,4064 L249,1941" stroke="blue" stroke-width="2" />
<path d="M5836,1937 L9457,1122" stroke="blue" stroke-width="2" />
<path d="M8499,3128 L225,4153" stroke="blue" stroke-width="2" />
<path d="M6057,408 L4506,1507" stroke="blue" stroke-width="2" />
<path d="M4858,1677 L8351,3450" stroke="blue" stroke-width="2" />
<path d="M9168,3274 L9381,1602" stroke="blue" stroke-width="2" />
<path d="M4696,2980 L4890,1213" stroke="blue" stroke-width="2" />
<path d="M8651,1906 L6589,939" stroke="blue" stroke-width="2" />
<path d="M4417,22 L8343,3870" stroke="blue" stroke-width="2" />
<path d="M2114,542 L4765,3694" stroke="blue" stroke-width="2" />
<path d="M9432,258 L7417,3552" stroke="blue" stroke-width="2" />
<path d="M2744,1505 L3677,1105" stroke="blue" stroke-width="2" />
<path d="M7740,3387 L9270,3278" stroke="blue" stroke-width="2" />
<path d="M5471,387 L1426,2120" stroke="blue" stroke-width="2" />
<path d="M5118,2126 L7002,2905" stroke="blue" stroke-width="2" />
<path d="M4620,3589 L6634,1392" stroke="blue" stroke-width="2" />
<path d="M2211,2295 L8229,1461" stroke="blue" stroke-width="2" />
<path d="M6232,2585 L3074,893" stroke="blue" stroke-width="2" />
<path d="M1687,339 L654,3839" stroke="blue" stroke-width="2" />
<path d="M1077,2091 L2330,1952" stroke="blue" stroke-width="2" />
<path d="M3659,3251 L3420,2581" stroke="blue" stroke-width="2" />
<path d="M3986,484 L3137,2240" stroke="blue" stroke-width="2" />
<path d="M8758,3268 L6075,2754" stroke="blue" stroke-width="2" />
<path d="M4728,3000 L472,369" stroke="blue" stroke-width="2" />
<path d="M6231,2368 L6662,2420" stroke="blue" stroke-width="2" />
<path d="M1716,3276 L6312,426" stroke="blue" stroke-width="2" />
<path d="M9139,3190 L2525,2068" stroke="blue" stroke-width="2" />
<path d="M2438,2910 L1217,904" stroke="blue" stroke-width="2" />
<path d="M7666,94 L5318,320" stroke="blue" stroke-width="2" />
<path d="M2325,1539 L3548,297" stroke="blue" stroke-width="2" />
<path d="M8119,581 L9357,1766" stroke="blue" stroke-width="2" />
<path d="M2802,766 L2697,808" stroke="blue" stroke-width="2" />
<path d="M2242,385 L7347,2095" stroke="blue" stroke-width="2" />
<path d="M7511,725 L4335,1063" stroke="blue" stroke-width="2" />
<path d="M5135,2292 L8963,2943" stroke="blue" stroke-width="2" />
<path d="M1785,1169 L3672,3084" stroke="blue" stroke-width="2" />
<path d="M4113,4043 L3999,111" stroke="blue" stroke-width="2" />
<path d="M5987,3940 L3444,1500" stroke="blue" stroke-width="2" />
<path d="M6014,1953 L716,3850" stroke="blue" stroke-width="2" />
<path d="M2909,2162 L7724,970" stroke="blue" stroke-width="2" />
<path d="M7615,1178 L3669,1859" stroke="blue" stroke-width="2" />
<path d="M7421,1350 L1273,2124" stroke="blue" stroke-width="2" />
<path d="M6155,2909 L4237,1198" stroke="blue" stroke-width="2" />
<path d="M8957,762 L4637,1528" stroke="blue" stroke-width="2" />
<path d="M9568,1247 L2072,1351" stroke="blue" stroke-width="2" />
<path d="M8684,2363 L4178,2306" stroke="blue" stroke-width="2" />
<path d="M5482,2251 L4413,2475" stroke="blue" stroke-width="2" />
<path d="M1829,1829 L3405,3758" stroke="blue" stroke-width="2" />
<path d="M5670,1319 L3261,952" stroke="blue" stroke-width="2" />
<path d="M6594,3113 L1340,880" stroke="blue" stroke-width="2" />
<path d="M7557,1679 L754,1937" stroke="blue" stroke-width="2" />
<path d="M9522,995 L6829,553" stroke="blue" stroke-width="2" />
<path d="M7886,1720 L6337,256" stroke="blue" stroke-width="2" />
<path d="M2766,2192 L1405,3002" stroke="blue" stroke-width="2" />
<path d="M250,4127 L5180,3591" stroke="blue" stroke-width="2" />
<path d="M8067,555 L7784,874" stroke="blue" stroke-width="2" />
<path d="M1215,2063 L6392,3166" stroke="blue" stroke-width="2" />
<path d="M5506,3592 L8613,2466" stroke="blue" stroke-width="2" />
<path d="M4774,2902 L6618,2894" stroke="blue" stroke-width="2" />
<path d="M6878,301 L6266,3102" stroke="blue" stroke-width="2" />
<path d="M1960,2285 L7020,4023" stroke="blue" stroke-width="2" />
<path d="M111,1036 L2427,1955" stroke="blue" stroke-width="2" />
<path d="M930,1575 L8413,789" stroke="blue" stroke-width="2" />
<path d="M8979,1919 L8986,273" stroke="blue" stroke-width="2" />
<path d="M1060,2093 L606,773" stroke="blue" stroke-width="2" />
<path d="M2908,228 L4222,1215" stroke="blue" stroke-width="2" />
<path d="M6181,1180 L2540,2603" stroke="blue" stroke-width="2" />
<path d="M212,2458 L1233,2709" stroke="blue" stroke-width="2" />
<path d="M2876,3103 L5471,668" stroke="blue" stroke-width="2" />
<path d="M5345,148 L9611,2313" stroke="blue" stroke-width="2" />
<path d="M6261,2084 L4464,2861" stroke="blue" stroke-width="2" />
<path d="M2924,1110 L8299,2300" stroke="blue" stroke-width="2" />
<path d="M6129,1607 L5822,2533" stroke="blue" stroke-width="2" />
<path d="M3708,2307 L5449,3664" stroke="blue" stroke-width="2" />
<path d="M3879,96 L6825,1176" stroke="blue" stroke-width="2" />
<path d="M9204,1614 L9415,45" stroke="blue" stroke-width="2" />
<path d="M965,1354 L301,3245" stroke="blue" stroke-width="2" />
<path d="M7639,900 L9062,1383" stroke="blue" stroke-width="2" />
<path d="M2548,3151 L124,2506" stroke="blue" stroke-width="2" />
<path d="M1157,2020 L2654,1955" stroke="blue" stroke-width="2" />
<path d="M4056,2864 L6937,1518" stroke="blue" stroke-width="2" />
<path d="M4916,1632 L6637,3622" stroke="blue" stroke-width="2" />
<path d="M304,553 L8221,311" stroke="blue" stroke-width="2" />
<path d="M520,706 L3777,3433" stroke="blue" stroke-width="2" />
<path d="M911,3656 L3549,724" stroke="blue" stroke-width="2" />
<path d="M1186,3491 L7663,2566" stroke="blue" stroke-width="2" />
<path d="M829,1416 L1935,3578" stroke="blue" stroke-width="2" />
<path d="M2993,4165 L3064,258" stroke="blue" stroke-width="2" />
<path d="M6922,3420 L7741,3231" stroke="blue" stroke-width="2" />
<path d="M2266,50 L5776,1795" stroke="blue" stroke-width="2" />
<path d="M3886,3197 L5645,2854" stroke="blue" stroke-width="2" />
<path d="M4307,2550 L1448,1197" stroke="blue" stroke-width="2" />
<path d="M6388,527 L9479,3113" stroke="blue" stroke-width="2" />
<path d="M4438,184 L4203,1206" stroke="blue" stroke-width="2" />
<path d="M5403,141 L5252,3120" stroke="blue" stroke-width="2" />
<path d="M7212,2286 L892,2424" stroke="blue" stroke-width="2" />
<path d="M6281,2456 L2230,1603" stroke="blue" stroke-width="2" />
<path d="M2091,196 L2603,2911" stroke="blue" stroke-width="2" />
<path d="M9136,2456 L4799,2849" stroke="blue" stroke-width="2" />
<path d="M5381,1683 L5221,3273" stroke="blue" stroke-width="2" />
<path d="M7574,3125 L36,3309" stroke="blue" stroke-width="2" />
<path d="M7130,2709 L1577,589" stroke="blue" stroke-width="2" />
<path d="M3723,2226 L2467,3894" stroke="blue" stroke-width="2" />
<path d="M2244,2968 L5643,1276" stroke="blue" stroke-width="2" />
<path d="M239,941 L4125,2642" stroke="blue" stroke-width="2" />
<path d="M4567,57 L3326,2720" stroke="blue" stroke-width="2" />
<path d="M3938,3666 L7322,338" stroke="blue" stroke-width="2" />
<path d="M3491,3127 L4388,3725" stroke="blue" stroke-width="2" />
<path d="M7302,2933 L9029,779" stroke="blue" stroke-width="2" />
<path d="M3957,3469 L3445,3559" stroke="blue" stroke-width="2" />
<path d="M1234,2823 L3310,4001" stroke="blue" stroke-width="2" />
<path d="M9390,1335 L8503,502" stroke="blue" stroke-width="2" />
<path d="M6477,3869 L7013,3978" stroke="blue" stroke-width="2" />
<path d="M8672,3820 L6446,774" stroke="blue" stroke-width="2" />
<path d="M2582,1446 L90,3827" stroke="blue" stroke-width="2" />
<path d="M9466,56 L9170,3747" stroke="blue" stroke-width="2" />
<path d="M4884,4066 L3051,3106" stroke="blue" stroke-width="2" />
<path d="M4932,222 L5431,3593" stroke="blue" stroke-width="2" />
<path d="M8236,3559 L4132,3053" stroke="blue" stroke-width="2" />
<path d="M706,2118 L152,2652" stroke="blue" stroke-width="2" />
<path d="M2544,1613 L8887,3738" stroke="blue" stroke-width="2" />
<path d="M4599,2192 L7894,474" stroke="blue" stroke-width="2" />
<path d="M4574,2640 L7715,4053" stroke="blue" stroke-width="2" />
<path d="M8409,1572 L1328,2569" stroke="blue" stroke-width="2" />
<path d="M1960,2813 L5239,203" stroke="blue" stroke-width="2" />
<path d="M9413,752 L1229,3339" stroke="blue" stroke-width="2" />
<path d="M6518,3146 L4234,2403" stroke="blue" stroke-width="2" />
<path d="M7465,3515 L699,2216" stroke="blue" stroke-width="2" />
<path d="M6054,847 L138,3624" stroke="blue" stroke-width="2" />
<path d="M8712,1417 L7046,3111" stroke="blue" stroke-width="2" />
<path d="M4582,1054 L565,218" stroke="blue" stroke-width="2" />
<path d="M6163,1447 L930,648" stroke="blue" stroke-width="2" />
<path d="M2964,1195 L3214,1458" stroke="blue" stroke-width="2" />
<path d="M8246,473 L8290,3819" stroke="blue" stroke-width="2" />
<path d="M4214,726 L2312,760" stroke="blue" stroke-width="2" />
<path d="M8538,2632 L3061,3767" stroke="blue" stroke-width="2" />
<path d="M7042,3058 L4292,934" stroke="blue" stroke-width="2" />
<path d="M2070,279 L5336,3558" stroke="blue" stroke-width="2" />
<path d="M6304,3504 L5440,869" stroke="blue" stroke-width="2" />
<path d="M959,1558 L4130,683" stroke="blue" stroke-width="2" />
<path d="M1245,2099 L2020,2746" stroke="blue" stroke-width="2" />
<path d="M346,2239 L7723,3893" stroke="blue" stroke-width="2" />
<path d="M5956,2265 L5397,2758" stroke="blue" stroke-width="2" />
<path d="M3682,3693 L536,3627" stroke="blue" stroke-width="2" />
<path d="M5185,1963 L733,1493" stroke="blue" stroke-width="2" />
<path d="M7274,888 L6255,2786" stroke="blue" stroke-width="2" />
<path d="M6765,3389 L4332,3024" stroke="blue" stroke-width="2" />
<path d="M8183,1549 L5823,2900" stroke="blue" stroke-width="2" />
<path d="M6322,3358 L2177,337" stroke="blue" stroke-width="2" />
<path d="M4510,983 L8193,2845" stroke="blue" stroke-width="2" />
<path d="M9410,1863 L6827,2182" stroke="blue" stroke-width="2" />
<path d="M4546,1402 L3116,1383" stroke="blue" stroke-width="2" />
<path d="M8132,4140 L9109,4074" stroke="blue" stroke-width="2" />
<path d="M9325,819 L4037,918" stroke="blue" stroke-width="2" />
<path d="M7207,3492 L3854,1512" stroke="blue" stroke-width="2" />
<path d="M1173,3843 L4090,2131" stroke="blue" stroke-width="2" />
<path d="M3724,1095 L2272,4065" stroke="blue" stroke-width="2" />
<path d="M1538,2379 L2262,304" stroke="blue" stroke-width="2" />
<path d="M6685,2895 L1347,512" stroke="blue" stroke-width="2" />
<path d="M1719,309 L6183,2855" stroke="blue" stroke-width="2" />
<path d="M554,1950 L8182,3283" stroke="blue" stroke-width="2" />
<path d="M3596,1430 L6123,1385" stroke="blue" stroke-width="2" />
<path d="M1474,3929 L3726,3248" stroke="blue" stroke-width="2" />
<path d="M6757,3386 L4136,1865" stroke="blue" stroke-width="2" />
<path d="M101,3897 L4442,2747" stroke="blue" stroke-width="2" />
<path d="M7318,1116 L9471,202" stroke="blue" stroke-width="2" />
<path d="M3795,456 L6105,3941" stroke="blue" stroke-width="2" />
<path d="M812,3533 L8349,1392" stroke="blue" stroke-width="2" />
<path d="M6387,2756 L8728,657" stroke="blue" stroke-width="2" />
<path d="M5495,768 L2944,347" stroke="blue" stroke-width="2" />
<path d="M2990,526 L7460,2605" stroke="blue" stroke-width="2" />
<path d="M4054,1048 L5789,633" stroke="blue" stroke-width="2" />
<path d="M1385,1334 L1000,3401" stroke="blue" stroke-width="2" />
<path d="M2745,3077 L6779,2971" stroke="blue" stroke-width="2" />
<path d="M1354,3783 L1341,2231" stroke="blue" stroke-width="2" />
<path d="M3023,1548 L2430,824" stroke="blue" stroke-width="2" />
<path d="M7488,2413 L7803,3527" stroke="blue" stroke-width="2" />
<path d="M6589,440 L7649,2560" stroke="blue" stroke-width="2" />
<path d="M86,3545 L9278,193" stroke="blue" stroke-width="2" />
<path d="M9471,3416 L6896,626" stroke="blue" stroke-width="2" />
<path d="M7932,1988 L2926,1412" stroke="blue" stroke-width="2" />
<path d="M2387,691 L7750,1610" stroke="blue" stroke-width="2" />
<path d="M7649,2037 L5736,3545" stroke="blue" stroke-width="2" />
<path d="M8048,3621 L9092,2112" stroke="blue" stroke-width="2" />
<path d="M5252,2872 L5518,4102" stroke="blue" stroke-width="2" />
<path d="M4831,3626 L8750,2464" stroke="blue" stroke-width="2" />
<path d="M9003,408 L5587,244" stroke="blue" stroke-width="2" />
<path d="M7679,1767 L3130,3302" stroke="blue" stroke-width="2" />
<path d="M8776,3498 L804,2358" stroke="blue" stroke-width="2" />
<path d="M690,1415 L998,3836" stroke="blue" stroke-width="2" />
<path d="M5211,2966 L8946,3259" stroke="blue" stroke-width="2" />
<path d="M5262,2049 L8085,2452" stroke="blue" stroke-width="2" />
<path d="M8797,1612 L7497,2036" stroke="blue" stroke-width="2" />
<path d="M7374,3850 L1413,659" stroke="blue" stroke-width="2" />
<path d="M6244,577 L2504,1044" stroke="blue" stroke-width="2" />
<path d="M601,75 L6083,4041" stroke="blue" stroke-width="2" />
<path d="M6425,2456 L5264,3615" stroke="blue" stroke-width="2" />
<path d="M5530,3573 L8178,559" stroke="blue" stroke-width="2" />
<path d="M9197,1706 L2845,2479" stroke="blue" stroke-width="2" />
<path d="M6389,2227 L9077,203" stroke="blue" stroke-width="2" />
<path d="M7325,1738 L8041,2993" stroke="blue" stroke-width="2" />
<path d="M1704,969 L1617,1235" stroke="blue" stroke-width="2" />
<path d="M5067,869 L6361,2108" stroke="blue" stroke-width="2" />
<path d="M7711,942 L1866,3740" stroke="blue" stroke-width="2" />
<path d="M5161,3686 L1901,223" stroke="blue" stroke-width="2" />
<path d="M6997,2030 L8632,2516" stroke="blue" stroke-width="2" />
<path d="M9464,1268 L6707,3165" stroke="blue" stroke-width="2" />
<path d="M5819,1369 L7593,3283" stroke="blue" stroke-width="2" />
<path d="M7867,3067 L3845,15" stroke="blue" stroke-width="2" />
<path d="M3258,2783 L6312,4024" stroke="blue" stroke-width="2" />
<path d="M562,1051 L9128,3311" stroke="blue" stroke-width="2" />
<path d="M1534,3783 L2572,2791" stroke="blue" stroke-width="2" />
<path d="M8915,2449 L7887,538" stroke="blue" stroke-width="2" />
<path d="M1986,3935 L6599,566" stroke="blue" stroke-width="2" />
<path d="M4423,1916 L1450,3741" stroke="blue" stroke-width="2" />
<path d="M3794,756 L7129,2989" stroke="blue" stroke-width="2" />
<path d="M8322,1961 L2216,2867" stroke="blue" stroke-width="2" />
<path d="M4828,4125 L2915,1426" stroke="blue" stroke-width="2" />
<path d="M3368,2455 L1898,2683" stroke="blue" stroke-width="2" />
<path d="M3231,481 L5377,4131" stroke="blue" stroke-width="2" />
<path d="M9215,3829 L1546,364" stroke="blue" stroke-width="2" />
<path d="M8680,719 L4012,1601" stroke="blue" stroke-width="2" />
<path d="M4501,2717 L2946,1474" stroke="blue" stroke-width="2" />
<path d="M5222,1813 L864,3710" stroke="blue" stroke-width="2" />
<path d="M3808,914 L3831,1340" stroke="blue" stroke-width="2" />
<path d="M7076,1344 L1089,1209" stroke="blue" stroke-width="2" />
<path d="M1868,696 L821,3063" stroke="blue" stroke-width="2" />
<path d="M4372,274 L7651,1038" stroke="blue" stroke-width="2" />
<path d="M412,1513 L1408,1603" stroke="blue" stroke-width="2" />
<path d="M2912,1501 L2340,1883" stroke="blue" stroke-width="2" />
<path d="M1031,3879 L1860,3767" stroke="blue" stroke-width="2" />
<path d="M8386,3710 L9354,3264" stroke="blue" stroke-width="2" />
<path d="M1149,249 L2006,1610" stroke="blue" stroke-width="2" />
<path d="M8687,3079 L6163,1400" stroke="blue" stroke-width="2" />
<path d="M6246,2811 L4854,2843" stroke="blue" stroke-width="2" />
<path d="M2836,1320 L1304,2134" stroke="blue" stroke-width="2" />
<path d="M3022,1156 L4930,2929" stroke="blue" stroke-width="2" />
<path d="M3339,2199 L4813,1241" stroke="blue" stroke-width="2" />
<path d="M5401,816 L4670,3416" stroke="blue" stroke-width="2" />
<path d="M646,571 L1996,1029" stroke="blue" stroke-width="2" />
<path d="M9447,346 L8877,2605" stroke="blue" stroke-width="2" />
<path d="M9226,2158 L458,1950" stroke="blue" stroke-width="2" />
<path d="M8621,3144 L1052,231" stroke="blue" stroke-width="2" />
<path d="M7618,3494 L5537,3833" stroke="blue" stroke-width="2" />
<path d="M7630,2402 L781,3654" stroke="blue" stroke-width="2" />
<path d="M5903,3520 L1293,3942" stroke="blue" stroke-width="2" />
<path d="M6449,1037 L4451,1422" stroke="blue" stroke-width="2" />
<path d="M275,666 L8352,2332" stroke="blue" stroke-width="2" />
<path d="M9309,1290 L2872,250" stroke="blue" stroke-width="2" />
<path d="M644,387 L4578,619" stroke="blue" stroke-width="2" />
<path d="M4643,2819 L793,1458" stroke="blue" stroke-width="2" />
<path d="M4531,2219 L3886,1714" stroke="blue" stroke-width="2" />
<path d="M2007,482 L3141,3849" stroke="blue" stroke-width="2" />
<path d="M1297,1415 L7154,3692" stroke="blue" stroke-width="2" />
<path d="M5756,3365 L48,2278" stroke="blue" stroke-width="2" />
<path d="M2096,1443 L1823,2923" stroke="blue" stroke-width="2" />
<path d="M9298,3473 L6170,540" stroke="blue" stroke-width="2" />
<path d="M4963,553 L2797,537" stroke="blue" stroke-width="2" />
<path d="M6474,610 L4785,2891" stroke="blue" stroke-width="2" />
<path d="M7221,2674 L1317,1209" stroke="blue" stroke-width="2" />
<path d="M3838,2393 L7903,363" stroke="blue" stroke-width="2" />
<path d="M3490,2428 L5499,2542" stroke="blue" stroke-width="2" />
<path d="M3348,4015 L1381,6" stroke="blue" stroke-width="2" />
<path d="M3067,2358 L4423,364" stroke="blue" stroke-width="2" />
<path d="M3442,3091 L6652,2682" stroke="blue" stroke-width="2" />
<path d="M7621,3854 L7455,983" stroke="blue" stroke-width="2" />
<path d="M6849,1920 L5137,1003" stroke="blue" stroke-width="2" />
<path d="M6126,1319 L4072,2887" stroke="blue" stroke-width="2" />
<path d="M5154,2224 L5603,286" stroke="blue" stroke-width="2" />
<path d="M7289,2538 L3194,1094" stroke="blue" stroke-width="2" />
<path d="M8961,4043 L688,3209" stroke="blue" stroke-width="2" />
<path d="M2528,584 L8970,3577" stroke="blue" stroke-width="2" />
<path d="M746,1674 L3824,3154" stroke="blue" stroke-width="2" />
<path d="M4778,4030 L1067,1160" stroke="blue" stroke-width="2" />
<path d="M442,2258 L9282,779" stroke="blue" stroke-width="2" />
<path d="M8603,1999 L6122,3016" stroke="blue" stroke-width="2" />
<path d="M4928,1299 L1661,2265" stroke="blue" stroke-width="2" />
<path d="M3591,3905 L8952,1251" stroke="blue" stroke-width="2" />
<path d="M7504,1559 L3467,1165" stroke="blue" stroke-width="2" />
<path d="M3591,3513 L4418,3420" stroke="blue" stroke-width="2" />
<path d="M8592,1268 L1174,1198" stroke="blue" stroke-width="2" />
<path d="M5618,2650 L296,778" stroke="blue" stroke-width="2" />
<path d="M2096,1293 L7987,2957" stroke="blue" stroke-width="2" />
<path d="M2978,3687 L7930,464" stroke="blue" stroke-width="2" />
<path d="M3167,4087 L6767,1004" stroke="blue" stroke-width="2" />
<path d="M1570,2709 L625,1171" stroke="blue" stroke-width="2" />
<path d="M7002,3727 L7329,2920" stroke="blue" stroke-width="2" />
<path d="M5897,1879 L626,3325" stroke="blue" stroke-width="2" />
<path d="M6694,2866 L4826,2855" stroke="blue" stroke-width="2" />
<path d="M6246,444 L6657,3486" stroke="blue" stroke-width="2" />
<path d="M4656,2928 L1970,4164" stroke="blue" stroke-width="2" />
<path d="M8529,3535 L7442,2152" stroke="blue" stroke-width="2" />
<path d="M3312,2636 L1576,3129" stroke="blue" stroke-width="2" />
<path d="M4261,3265 L4066,3406" stroke="blue" stroke-width="2" />
<path d="M8640,2234 L6813,2752" stroke="blue" stroke-width="2" />
<path d="M1831,2021 L8439,944" stroke="blue" stroke-width="2" />
<path d="M7213,0 L4269,1919" stroke="blue" stroke-width="2" />
<path d="M1870,2103 L724,102" stroke="blue" stroke-width="2" />
<path d="M6100,1185 L2606,3627" stroke="blue" stroke-width="2" />
<path d="M1377,4090 L1687,4089" stroke="blue" stroke-width="2" />
<path d="M387,1514 L9282,2632" stroke="blue" stroke-width="2" />
<path d="M4779,3208 L1946,2534" stroke="blue" stroke-width="2" />
<path d="M8313,44 L7369,3722" stroke="blue" stroke-width="2" />
<path d="M2879,3122 L1131,2649" stroke="blue" stroke-width="2" />
<path d="M3847,2209 L8106,325" stroke="blue" stroke-width="2" />
<path d="M5512,1488 L1120,3252" stroke="blue" stroke-width="2" />
<path d="M7660,1676 L7187,3788" stroke="blue" stroke-width="2" />
<path d="M865,1319 L1717,3200" stroke="blue" stroke-width="2" />
<path d="M1760,671 L2857,1403" stroke="blue" stroke-width="2" />
<path d="M3147,3261 L9035,1941" stroke="blue" stroke-width="2" />
<path d="M4425,121 L6376,2088" stroke="blue" stroke-width="2" />
<path d="M7287,2769 L619,4037" stroke="blue" stroke-width="2" />
<path d="M585,741 L998,1178" stroke="blue" stroke-width="2" />
<path d="M3074,4033 L4992,3037" stroke="blue" stroke-width="2" />
<path d="M4655,330 L1294,2006" stroke="blue" stroke-width="2" />
<path d="M2873,3165 L1319,3931" stroke="blue" stroke-width="2" />
<path d="M864,2718 L9631,3705" stroke="blue" stroke-width="2" />
<path d="M57,2600 L477,3076" stroke="blue" stroke-width="2" />
<path d="M2714,1186 L4651,3025" stroke="blue" stroke-width="2" />
<path d="M4226,3062 L1145,1558" stroke="blue" stroke-width="2" />
<path d="M3016,1807 L7280,1535" stroke="blue" stroke-width="2" />
<path d="M2751,2501 L7338,2393" stroke="blue" stroke-width="2" />
<path d="M1784,3659 L3653,2375" stroke="blue" stroke-width="2" />
<path d="M1191,3846 L3014,618" stroke="blue" stroke-width="2" />
<path d="M8451,3027 L4442,2263" stroke="blue" stroke-width="2" />
<path d="M6583,1027 L4137,2120" stroke="blue" stroke-width="2" />
<path d="M7037,1395 L3738,1668" stroke="blue" stroke-width="2" />
<path d="M2930,3769 L4861,1068" stroke="blue" stroke-width="2" />
<path d="M5392,4087 L8001,2667" stroke="blue" stroke-width="2" />
<path d="M605,2526 L5738,1154" stroke="blue" stroke-width="2" />
<path d="M6526,1770 L443,1992" stroke="blue" stroke-width="2" />
<path d="M9408,226 L4627,319" stroke="blue" stroke-width="2" />
<path d="M3637,3015 L2588,3482" stroke="blue" stroke-width="2" />
<path d="M6319,406 L8716,3712" stroke="blue" stroke-width="2" />
<path d="M2851,2349 L4888,3205" stroke="blue" stroke-width="2" />
<path d="M4903,3566 L1854,871" stroke="blue" stroke-width="2" />
<path d="M2999,2840 L5921,2962" stroke="blue" stroke-width="2" />
<path d="M7233,1351 L1618,1448" stroke="blue" stroke-width="2" />
<path d="M2765,1066 L1528,2016" stroke="blue" stroke-width="2" />
<path d="M6808,1075 L2670,4132" stroke="blue" stroke-width="2" />
<path d="M9253,3823 L447,3891" stroke="blue" stroke-width="2" />
<path d="M7558,676 L2623,2329" stroke="blue" stroke-width="2" />
<path d="M2130,4159 L3009,2937" stroke="blue" stroke-width="2" />
<path d="M4397,3200 L7487,2452" stroke="blue" stroke-width="2" />
<path d="M7447,873 L5733,3080" stroke="blue" stroke-width="2" />
<path d="M5457,1088 L5415,2394" stroke="blue" stroke-width="2" />
<path d="M4727,168 L7730,278" stroke="blue" stroke-width="2" />
<path d="M6273,4001 L6792,2350" stroke="blue" stroke-width="2" />
<path d="M7134,2146 L1943,1913" stroke="blue" stroke-width="2" />
<path d="M7609,2984 L4967,1917" stroke="blue" stroke-width="2" />
<path d="M2444,1483 L3030,553" stroke="blue" stroke-width="2" />
<path d="M5240,529 L6302,426" stroke="blue" stroke-width="2" />
<path d="M8119,3355 L8000,1425" stroke="blue" stroke-width="2" />
<path d="M774,712 L7705,982" stroke="blue" stroke-width="2" />
<path d="M1254,2129 L5914,3018" stroke="blue" stroke-width="2" />
<path d="M9514,1950 L5577,267" stroke="blue" stroke-width="2" />
<path d="M5842,2384 L4609,3340" stroke="blue" stroke-width="2" />
<path d="M9283,985 L1640,3321" stroke="blue" stroke-width="2" />
<path d="M4006,833 L1492,354" stroke="blue" stroke-width="2" />
<path d="M9077,1114 L7734,4078" stroke="blue" stroke-width="2" />
<path d="M5484,2733 L3573,133" stroke="blue" stroke-width="2" />
<path d="M4586,885 L2612,538" stroke="blue" stroke-width="2" />
<path d="M3601,3222 L9414,532" stroke="blue" stroke-width="2" />
<path d="M2261,1716 L7413,3146" stroke="blue" stroke-width="2" />
<path d="M934,3653 L6320,2643" stroke="blue" stroke-width="2" />
<path d="M6959,623 L6918,1287" stroke="blue" stroke-width="2" />
<path d="M5312,3142 L2000,2008" stroke="blue" stroke-width="2" />
<path d="M265,481 L1071,3802" stroke="blue" stroke-width="2" />
<path d="M4917,1221 L5857,1273" stroke="blue" stroke-width="2" />
<path d="M7890,84 L3494,2576" stroke="blue" stroke-width="2" />
<path d="M6405,2634 L2715,3497" stroke="blue" stroke-width="2" />
<path d="M6602,2456 L2948,3488" stroke="blue" stroke-width="2" />
<path d="M4903,200 L92,323" stroke="blue" stroke-width="2" />
<path d="M6788,2550 L8804,699" stroke="blue" stroke-width="2" />
<path d="M714,2176 L379,4147" stroke="blue" stroke-width="2" />
<path d="M7466,255 L3195,2864" stroke="blue" stroke-width="2" />
<path d="M8732,1989 L1114,1233" stroke="blue" stroke-width="2" />
<path d="M9352,1620 L3508,1063" stroke="blue" stroke-width="2" />
<path d="M3428,2200 L2169,711" stroke="blue" stroke-width="2" />
<path d="M6799,2514 L6611,3870" stroke="blue" stroke-width="2" />
<path d="M40,2806 L546,1733" stroke="blue" stroke-width="2" />
<path d="M7223,537 L6446,913" stroke="blue" stroke-width="2" />
<path d="M6926,708 L5607,3084" stroke="blue" stroke-width="2" />
<path d="M3559,3581 L5082,3170" stroke="blue" stroke-width="2" />
<path d="M3408,2190 L9125,1066" stroke="blue" stroke-width="2" />
<path d="M8677,822 L611,2308" stroke="blue" stroke-width="2" />
<path d="M5679,3112 L5127,2538" stroke="blue" stroke-width="2" />
<path d="M3278,2529 L4886,74" stroke="blue" stroke-width="2" />
<path d="M5434,2187 L2384,3057" stroke="blue" stroke-width="2" />
<path d="M2746,3457 L7518,2214" stroke="blue" stroke-width="2" />
<path d="M9011,4025 L2333,3778" stroke="blue" stroke-width="2" />
<path d="M6169,2597 L1917,330" stroke="blue" stroke-width="2" />
<path d="M2542,284 L8557,4137" stroke="blue" stroke-width="2" />
<path d="M1514,2995 L5958,337" stroke="blue" stroke-width="2" />
<path d="M648,2010 L2940,40" stroke="blue" stroke-width="2" />
<path d="M7490,1407 L5147,1092" stroke="blue" stroke-width="2" />
<path d="M1152,2930 L8236,3292" stroke="blue" stroke-width="2" />
<path d="M1657,3792 L4132,3619" stroke="blue" stroke-width="2" />
<path d="M7186,3799 L8779,18" stroke="blue" stroke-width="2" />
<path d="M5312,2968 L4024,1567" stroke="blue" stroke-width="2" />
<path d="M4753,2605 L5834,3799" stroke="blue" stroke-width="2" />
<path d="M95,3994 L7770,664" stroke="blue" stroke-width="2" />
<path d="M550,3837 L2873,713" stroke="blue" stroke-width="2" />
<path d="M3734,3010 L7006,1188" stroke="blue" stroke-width="2" />
<path d="M5968,677 L8714,3914" stroke="blue" stroke-width="2" />
<path d="M5166,1301 L5884,1998" stroke="blue" stroke-width="2" />
<path d="M5402,506 L1058,1089" stroke="blue" stroke-width="2" />
<path d="M9520,2692 L2052,1470" stroke="blue" stroke-width="2" />
<path d="M9515,1340 L1484,1242" stroke="blue" stroke-width="2" />
<path d="M4991,3349 L4342,122" stroke="blue" stroke-width="2" />
<path d="M7438,3764 L8488,3660" stroke="blue" stroke-width="2" />
<path d="M6057,3948 L5327,387" stroke="blue" stroke-width="2" />
<path d="M8845,1596 L8857,148" stroke="blue" stroke-width="2" />
<path d="M9277,1567 L6941,713" stroke="blue" stroke-width="2" />
<path d="M5848,3037 L2016,3902" stroke="blue" stroke-width="2" />
<path d="M5373,2701 L7683,2867" stroke="blue" stroke-width="2" />
<path d="M4521,2558 L1255,3816" stroke="blue" stroke-width="2" />
<path d="M1998,3674 L1180,428" stroke="blue" stroke-width="2" />
<path d="M2366,1371 L7921,2886" stroke="blue" stroke-width="2" />
<path d="M8562,3526 L5488,3407" stroke="blue" stroke-width="2" />
<path d="M5504,3334 L7152,2170" stroke="blue" stroke-width="2" />
<path d="M8291,1734 L2680,1887" stroke="blue" stroke-width="2" />
<path d="M8753,1370 L896,1639" stroke="blue" stroke-width="2" />
<path d="M8289,1215 L6485,4039" stroke="blue" stroke-width="2" />
<path d="M8479,2322 L1139,1446" stroke="blue" stroke-width="2" />
<path d="M8299,62 L8360,382" stroke="blue" stroke-width="2" />
<path d="M7793,3206 L6301,1920" stroke="blue" stroke-width="2" />
<path d="M1708,327 L5310,2921" stroke="blue" stroke-width="2" />
<path d="M6352,3350 L569,2195" stroke="blue" stroke-width="2" />
<path d="M4413,3725 L596,3538" stroke="blue" stroke-width="2" />
<path d="M978,1697 L3153,2243" stroke="blue" stroke-width="2" />
<path d="M436,2523 L81,2845" stroke="blue" stroke-width="2" />
<path d="M263,400 L276,1685" stroke="blue" stroke-width="2" />
<path d="M5496,2553 L5085,1383" stroke="blue" stroke-width="2" />
<path d="M6503,520 L8310,3219" stroke="blue" stroke-width="2" />
<path d="M8985,1855 L3276,2565" stroke="blue" stroke-width="2" />
<path d="M8545,266 L5006,3162" stroke="blue" stroke-width="2" />
<path d="M1864,1433 L8910,973" stroke="blue" stroke-width="2" />
<path d="M6710,2754 L788,3744" stroke="blue" stroke-width="2" />
<path d="M5562,3366 L8648,4147" stroke="blue" stroke-width="2" />
<path d="M6954,3630 L9203,1641" stroke="blue" stroke-width="2" />
<path d="M3326,2798 L780,1488" stroke="blue" stroke-width="2" />
<path d="M3163,1470 L6422,1729" stroke="blue" stroke-width="2" />
<path d="M809,3687 L1809,977" stroke="blue" stroke-width="2" />
<path d="M2364,167 L4929,2951" stroke="blue" stroke-width="2" />
<path d="M5953,2517 L9489,2930" stroke="blue" stroke-width="2" />
<path d="M6919,2571 L4476,1201" stroke="blue" stroke-width="2" />
<path d="M3311,3425 L4649,4124" stroke="blue" stroke-width="2" />
<path d="M5164,2530 L917,2376" stroke="blue" stroke-width="2" />
<path d="M3438,2406 L4193,2211" stroke="blue" stroke-width="2" />
<path d="M380,1492 L3437,1037" stroke="blue" stroke-width="2" />
<path d="M2737,1405 L3867,893" stroke="blue" stroke-width="2" />
<path d="M201,2703 L4591,1694" stroke="blue" stroke-width="2" />
<path d="M9592,913 L8518,704" stroke="blue" stroke-width="2" />
<path d="M7917,3752 L8374,1405" stroke="blue" stroke-width="2" />
<path d="M9116,1248 L8450,1687" stroke="blue" stroke-width="2" />
<path d="M926,2293 L4295,2212" stroke="blue" stroke-width="2" />
<path d="M5189,2708 L6366,3438" stroke="blue" stroke-width="2" />
<path d="M8369,1437 L8245,3410" stroke="blue" stroke-width="2" />
<path d="M8689,3327 L2380,3719" stroke="blue" stroke-width="2" />
<path d="M9096,1807 L5520,1705" stroke="blue" stroke-width="2" />
<path d="M6104,1768 L8879,2703" stroke="blue" stroke-width="2" />
<path d="M1776,1070 L1322,3241" stroke="blue" stroke-width="2" />
<path d="M4162,805 L7260,2009" stroke="blue" stroke-width="2" />
<path d="M8897,1826 L8706,2067" stroke="blue" stroke-width="2" />
<path d="M7611,874 L1532,657" stroke="blue" stroke-width="2" />
<path d="M2002,3226 L4665,24" stroke="blue" stroke-width="2" />
<path d="M5650,3127 L3688,2007" stroke="blue" stroke-width="2" />
<path d="M576,3140 L5624,1587" stroke="blue" stroke-width="2" />
<path d="M3637,3856 L347,165" stroke="blue" stroke-width="2" />
<path d="M4827,1426 L1550,1398" stroke="blue" stroke-width="2" />
<path d="M6896,365 L9631,1423" stroke="blue" stroke-width="2" />
<path d="M4768,74 L3858,330" stroke="blue" stroke-width="2" />
<path d="M3143,3315 L3075,3768" stroke="blue" stroke-width="2" />
<path d="M2022,4097 L4131,589" stroke="blue" stroke-width="2" />
<path d="M7752,384 L1690,4006" stroke="blue" stroke-width="2" />
<path d="M7777,1330 L3756,2902" stroke="blue" stroke-width="2" />
<path d="M5587,1905 L502,1132" stroke="blue" stroke-width="2" />
<path d="M536,1280 L6037,3314" stroke="blue" stroke-width="2" />
<path d="M7251,1691 L5684,2443" stroke="blue" stroke-width="2" />
<path d="M4661,1225 L7248,3979" stroke="blue" stroke-width="2" />
<path d="M4112,1319 L4200,3548" stroke="blue" stroke-width="2" />
<path d="M8871,1818 L6822,367" stroke="blue" stroke-width="2" />
<path d="M7122,267 L5250,1157" stroke="blue" stroke-width="2" />
<path d="M2290,732 L1664,3287" stroke="blue" stroke-width="2" />
<path d="M9146,603 L8547,3909" stroke="blue" stroke-width="2" />
<path d="M703,465 L6617,1314" stroke="blue" stroke-width="2" />
<path d="M8313,1018 L54,2632" stroke="blue" stroke-width="2" />
<path d="M4130,415 L8665,1612" stroke="blue" stroke-width="2" />
<path d="M4094,1021 L689,753" stroke="blue" stroke-width="2" />
<path d="M1011,2069 L1194,3761" stroke="blue" stroke-width="2" />
<path d="M2127,3000 L7855,2002" stroke="blue" stroke-width="2" />
<path d="M9436,2806 L5537,413" stroke="blue" stroke-width="2" />
<path d="M1193,392 L7822,1883" stroke="blue" stroke-width="2" />
<path d="M6618,2681 L558,3854" stroke="blue" stroke-width="2" />
<path d="M0,0 L9632,0" stroke="red" stroke-width="10" />
<path d="M9632,0 L9632,4166" stroke="red" stroke-width="10" />
<path d="M0,4166 L9632,4166" stroke="red" stroke-width="10" />
<path d="M0,4166 L0,0" stroke="red" stroke-width="10" />
</svg>