<?xml version="1.0" encoding="UTF-8"?>
<svg xmlns="http://www.w3.org/2000/svg" xmlns:xlink="http://www.w3.org/1999/xlink"
     width="10000" height="10000" viewBox="0 0 10000 10000">
<defs>
</defs>
<path d="M400,6209 L3654,2611" stroke="blue" stroke-width="2" />
<path d="M4325,6073 L2474,4346" stroke="blue" stroke-width="2" />
<path d="M3415,4211 L939,4076" stroke="blue" stroke-width="2" />
<path d="M1949,4662 L2148,3598" stroke="blue" stroke-width="2" />
<path d="M205,3913 L1887,890" stroke="blue" stroke-width="2" />
<path d="M71,1696 L3103,1405" stroke="blue" stroke-width="2" />
<path d="M1950,2767 L4768,773" stroke="blue" stroke-width="2" />
<path d="M2482,1887 L70,2355" stroke="blue" stroke-width="2" />
<path d="M4681,6149 L2195,3073" stroke="blue" stroke-width="2" />
<path d="M2662,2161 L5198,506" stroke="blue" stroke-width="2" />
<path d="M1794,232 L3472,3966" stroke="blue" stroke-width="2" />
<path d="M2984,99 L2221,6524" stroke="blue" stroke-width="2" />
<path d="M3090,4841 L3070,453" stroke="blue" stroke-width="2" />
<path d="M2414,1821 L576,4569" stroke="blue" stroke-width="2" />
<path d="M1327,2542 L2429,760" stroke="blue" stroke-width="2" />
<path d="M1950,4995 L4476,2922" stroke="blue" stroke-width="2" />
<path d="M3795,6181 L965,3388" stroke="blue" stroke-width="2" />
<path d="M3026,4011 L5533,1146" stroke="blue" stroke-width="2" />
<path d="M4306,3275 L5795,1277" stroke="blue" stroke-width="2" />
<path d="M1315,5462 L4232,1446" stroke="blue" stroke-width="2" />
<path d="M3102,1706 L1560,2272" stroke="blue" stroke-width="2" />
<path d="M2878,1986 L100,1522" stroke="blue" stroke-width="2" />
<path d="M3228,4354 L453,4632" stroke="blue" stroke-width="2" />
<path d="M1858,5718 L3619,3622" stroke="blue" stroke-width="2" />
<path d="M1306,5739 L98,5928" stroke="blue" stroke-width="2" />
<path d="M2908,5584 L2254,1441" stroke="blue" stroke-width="2" />
<path d="M4283,4964 L5676,504" stroke="blue" stroke-width="2" />
<path d="M5858,2350 L842,3352" stroke="blue" stroke-width="2" />
<path d="M4606,3249 L1443,3026" stroke="blue" stroke-width="2" />
<path d="M1317,516 L44,432" stroke="blue" stroke-width="2" />
<path d="M2644,271 L1553,1874" stroke="blue" stroke-width="2" />
<path d="M3766,2474 L1760,1402" stroke="blue" stroke-width="2" />
<path d="M2376,4836 L1350,1202" stroke="blue" stroke-width="2" />
<path d="M3706,457 L4908,2446" stroke="blue" stroke-width="2" />
<path d="M3015,5226 L5081,4798" stroke="blue" stroke-width="2" />
<path d="M4863,1152 L1702,3703" stroke="blue" stroke-width="2" />
<path d="M1139,5585 L5653,3137" stroke="blue" stroke-width="2" />
<path d="M3556,2218 L2147,2766" stroke="blue" stroke-width="2" />
<path d="M4457,3955 L3474,5196" stroke="blue" stroke-width="2" />
<path d="M3071,3182 L4605,4734" stroke="blue" stroke-width="2" />
<path d="M5266,3627 L286,5847" stroke="blue" stroke-width="2" />
<path d="M4096,4591 L4444,25" stroke="blue" stroke-width="2" />
<path d="M4928,4278 L3040,148" stroke="blue" stroke-width="2" />
<path d="M2740,3340 L63,6233" stroke="blue" stroke-width="2" />
<path d="M5576,6272 L5089,3789" stroke="blue" stroke-width="2" />
<path d="M4048,3372 L2878,1258" stroke="blue" stroke-width="2" />
<path d="M3540,4161 L5648,1078" stroke="blue" stroke-width="2" />
<path d="M3531,1112 L3963,6310" stroke="blue" stroke-width="2" />
<path d="M5425,3055 L1063,598" stroke="blue" stroke-width="2" />
<path d="M5092,3210 L2506,2801" stroke="blue" stroke-width="2" />
<path d="M200,6444 L812,5415" stroke="blue" stroke-width="2" />
<path d="M5293,6048 L5588,6402" stroke="blue" stroke-width="2" />
<path d="M2226,82 L59,4400" stroke="blue" stroke-width="2" />
<path d="M5530,2939 L1992,2612" stroke="blue" stroke-width="2" />
<path d="M3704,5927 L2433,6321" stroke="blue" stroke-width="2" />
<path d="M4884,887 L3059,2216" stroke="blue" stroke-width="2" />
<path d="M4910,1093 L4034,2057" stroke="blue" stroke-width="2" />
<path d="M15,2179 L4406,295" stroke="blue" stroke-width="2" />
<path d="M2250,5923 L2954,3977" stroke="blue" stroke-width="2" />
<path d="M2873,2857 L2914,5545" stroke="blue" stroke-width="2" />
<path d="M160,3356 L764,6488" stroke="blue" stroke-width="2" />
<path d="M994,3498 L3958,4964" stroke="blue" stroke-width="2" />
<path d="M328,5551 L2809,2940" stroke="blue" stroke-width="2" />
<path d="M5363,5557 L4813,5719" stroke="blue" stroke-width="2" />
<path d="M1048,5653 L5699,3926" stroke="blue" stroke-width="2" />
<path d="M3461,1255 L4594,1499" stroke="blue" stroke-width="2" />
<path d="M3600,2127 L5602,442" stroke="blue" stroke-width="2" />
<path d="M1686,3277 L2816,5145" stroke="blue" stroke-width="2" />
<path d="M3917,5342 L2060,6416" stroke="blue" stroke-width="2" />
<path d="M2885,3166 L5179,203" stroke="blue" stroke-width="2" />
<path d="M4455,1720 L1109,1014" stroke="blue" stroke-width="2" />
<path d="M4082,5996 L4733,4943" stroke="blue" stroke-width="2" />
<path d="M3342,930 L5747,5243" stroke="blue" stroke-width="2" />
<path d="M4501,594 L4181,3686" stroke="blue" stroke-width="2" />
<path d="M2047,4275 L1840,5874" stroke="blue" stroke-width="2" />
<path d="M2495,2383 L5483,3960" stroke="blue" stroke-width="2" />
<path d="M148,4152 L5118,1074" stroke="blue" stroke-width="2" />
<path d="M4432,5719 L4511,274" stroke="blue" stroke-width="2" />
<path d="M4416,1995 L1552,5663" stroke="blue" stroke-width="2" />
<path d="M2384,121 L5202,3078" stroke="blue" stroke-width="2" />
<path d="M608,1607 L1420,5526" stroke="blue" stroke-width="2" />
<path d="M3353,4537 L4250,268" stroke="blue" stroke-width="2" />
<path d="M4940,3323 L3462,33" stroke="blue" stroke-width="2" />
<path d="M4321,563 L3151,2385" stroke="blue" stroke-width="2" />
<path d="M4230,3109 L282,5678" stroke="blue" stroke-width="2" />
<path d="M3362,223 L2381,5354" stroke="blue" stroke-width="2" />
<path d="M3831,1500 L5264,317" stroke="blue" stroke-width="2" />
<path d="M270,3980 L1223,5853" stroke="blue" stroke-width="2" />
<path d="M2115,1256 L4313,3095" stroke="blue" stroke-width="2" />
<path d="M5294,1027 L2455,2188" stroke="blue" stroke-width="2" />
<path d="M4561,2994 L1465,1919" stroke="blue" stroke-width="2" />
<path d="M3775,6081 L907,3410" stroke="blue" stroke-width="2" />
<path d="M3246,2399 L2200,3341" stroke="blue" stroke-width="2" />
<path d="M3724,3506 L2710,3825" stroke="blue" stroke-width="2" />
<path d="M2645,1628 L5118,5461" stroke="blue" stroke-width="2" />
<path d="M3732,3185 L1883,3812" stroke="blue" stroke-width="2" />
<path d="M5859,3809 L191,2614" stroke="blue" stroke-width="2" />
<path d="M3408,6539 L3801,3495" stroke="blue" stroke-width="2" />
<path d="M5775,5169 L3198,6433" stroke="blue" stroke-width="2" />
<path d="M5327,4777 L5718,1120" stroke="blue" stroke-width="2" />
<path d="M3186,1028 L646,4034" stroke="blue" stroke-width="2" />
<path d="M2577,4676 L4426,2810" stroke="blue" stroke-width="2" />
<path d="M4756,1244 L5504,1786" stroke="blue" stroke-width="2" />
<path d="M4912,5414 L5529,3592" stroke="blue" stroke-width="2" />
<path d="M5501,1919 L3478,3549" stroke="blue" stroke-width="2" />
<path d="M5361,5274 L2736,2058" stroke="blue" stroke-width="2" />
<path d="M4676,6160 L679,3506" stroke="blue" stroke-width="2" />
<path d="M322,208 L3371,696" stroke="blue" stroke-width="2" />
<path d="M2506,3172 L5339,5827" stroke="blue" stroke-width="2" />
<path d="M98,1851 L4646,2763" stroke="blue" stroke-width="2" />
<path d="M3743,5520 L3531,2411" stroke="blue" stroke-width="2" />
<path d="M1472,4544 L5688,2775" stroke="blue" stroke-width="2" />
<path d="M4250,2248 L1380,2758" stroke="blue" stroke-width="2" />
<path d="M3569,907 L1249,6030" stroke="blue" stroke-width="2" />
<path d="M4616,1111 L4524,144" stroke="blue" stroke-width="2" />
<path d="M2522,5794 L5707,6446" stroke="blue" stroke-width="2" />
<path d="M5340,5220 L5498,4254" stroke="blue" stroke-width="2" />
<path d="M3669,3343 L3450,5684" stroke="blue" stroke-width="2" />
<path d="M5356,5418 L5432,4897" stroke="blue" stroke-width="2" />
<path d="M1071,6545 L1795,1950" stroke="blue" stroke-width="2" />
<path d="M803,6289 L4666,2744" stroke="blue" stroke-width="2" />
<path d="M2079,3069 L155,1719" stroke="blue" stroke-width="2" />
<path d="M688,5166 L3358,5225" stroke="blue" stroke-width="2" />
<path d="M3869,5215 L4824,3125" stroke="blue" stroke-width="2" />
<path d="M3172,3515 L3096,1988" stroke="blue" stroke-width="2" />
<path d="M802,2350 L2511,4633" stroke="blue" stroke-width="2" />
<path d="M972,5985 L2949,2176" stroke="blue" stroke-width="2" />
<path d="M622,1781 L2220,5046" stroke="blue" stroke-width="2" />
<path d="M2770,2301 L158,5410" stroke="blue" stroke-width="2" />
<path d="M2130,4575 L733,1339" stroke="blue" stroke-width="2" />
<path d="M5043,334 L640,2696" stroke="blue" stroke-width="2" />
<path d="M3580,2049 L89,302" stroke="blue" stroke-width="2" />
<path d="M4017,3554 L413,435" stroke="blue" stroke-width="2" />
<path d="M1025,1633 L2791,2585" stroke="blue" stroke-width="2" />
<path d="M4217,460 L1197,3899" stroke="blue" stroke-width="2" />
<path d="M1708,3774 L2520,558" stroke="blue" stroke-width="2" />
<path d="M5583,5350 L4926,3253" stroke="blue" stroke-width="2" />
<path d="M5246,3583 L3498,1717" stroke="blue" stroke-width="2" />
<path d="M5302,2738 L5135,2987" stroke="blue" stroke-width="2" />
<path d="M2353,6192 L4016,3248" stroke="blue" stroke-width="2" />
<path d="M1798,2488 L774,5558" stroke="blue" stroke-width="2" />
<path d="M818,5137 L2247,5808" stroke="blue" stroke-width="2" />
<path d="M3893,1626 L5814,6268" stroke="blue" stroke-width="2" />
<path d="M2962,3969 L4152,6433" stroke="blue" stroke-width="2" />
<path d="M2498,3172 L4986,18" stroke="blue" stroke-width="2" />
<path d="M2763,911 L194,2247" stroke="blue" stroke-width="2" />
<path d="M1847,1027 L5068,2065" stroke="blue" stroke-width="2" />
<path d="M1612,5031 L3538,1042" stroke="blue" stroke-width="2" />
<path d="M5094,4919 L2773,4782" stroke="blue" stroke-width="2" />
<path d="M2804,751 L4016,1726" stroke="blue" stroke-width="2" />
<path d="M4333,5286 L3987,3414" stroke="blue" stroke-width="2" />
<path d="M4814,3537 L2521,2039" stroke="blue" stroke-width="2" />
<path d="M3598,4780 L1371,988" stroke="blue" stroke-width="2" />
<path d="M5466,4972 L5349,2492" stroke="blue" stroke-width="2" />
<path d="M2360,5078 L2984,4450" stroke="blue" stroke-width="2" />
<path d="M3723,19 L2599,5632" stroke="blue" stroke-width="2" />
<path d="M2785,4731 L518,4239" stroke="blue" stroke-width="2" />
<path d="M4337,712 L2109,1038" stroke="blue" stroke-width="2" />
<path d="M267,4314 L4711,1898" stroke="blue" stroke-width="2" />
<path d="M4002,3531 L947,2896" stroke="blue" stroke-width="2" />
<path d="M16,831 L4732,5693" stroke="blue" stroke-width="2" />
<path d="M5612,6479 L3547,1858" stroke="blue" stroke-width="2" />
<path d="M5291,3257 L4726,6494" stroke="blue" stroke-width="2" />
<path d="M1611,1825 L1861,5061" stroke="blue" stroke-width="2" />
<path d="M4365,799 L2343,131" stroke="blue" stroke-width="2" />
<path d="M5107,670 L5851,5037" stroke="blue" stroke-width="2" />
<path d="M3364,4627 L2638,3337" stroke="blue" stroke-width="2" />
<path d="M684,1735 L3886,3001" stroke="blue" stroke-width="2" />
<path d="M354,497 L3106,6110" stroke="blue" stroke-width="2" />
<path d="M4007,3385 L3856,1563" stroke="blue" stroke-width="2" />
<path d="M2491,1983 L641,3862" stroke="blue" stroke-width="2" />
<path d="M3999,5728 L549,6146" stroke="blue" stroke-width="2" />
<path d="M4712,4238 L3037,4545" stroke="blue" stroke-width="2" />
<path d="M1275,2952 L3412,682" stroke="blue" stroke-width="2" />
<path d="M3781,5333 L1608,4878" stroke="blue" stroke-width="2" />
<path d="M75,5373 L2203,651" stroke="blue" stroke-width="2" />
<path d="M2856,4586 L2995,1218" stroke="blue" stroke-width="2" />
<path d="M119,6366 L2958,3681" stroke="blue" stroke-width="2" />
<path d="M11,6492 L2814,4662" stroke="blue" stroke-width="2" />
<path d="M5778,5953 L3113,2071" stroke="blue" stroke-width="2" />
<path d="M4014,932 L2705,6357" stroke="blue" stroke-width="2" />
<path d="M2475,2005 L1477,6144" stroke="blue" stroke-width="2" />
<path d="M4022,3837 L1996,3371" stroke="blue" stroke-width="2" />
<path d="M3772,4273 L3440,4603" stroke="blue" stroke-width="2" />
<path d="M4338,3429 L3213,3009" stroke="blue" stroke-width="2" />
<path d="M1883,1107 L5505,907" stroke="blue" stroke-width="2" />
<path d="M1978,3434 L3862,4114" stroke="blue" stroke-width="2" />
<path d="M377,1111 L5253,1675" stroke="blue" stroke-width="2" />
<path d="M4136,6016 L5831,6423" stroke="blue" stroke-width="2" />
<path d="M520,1639 L541,2378" stroke="blue" stroke-width="2" />
<path d="M5286,4747 L4590,354" stroke="blue" stroke-width="2" />
<path d="M4242,501 L1573,1701" stroke="blue" stroke-width="2" />
<path d="M2675,5572 L1724,3755" stroke="blue" stroke-width="2" />
<path d="M4954,5176 L4711,414" stroke="blue" stroke-width="2" />
<path d="M2525,2145 L3748,6041" stroke="blue" stroke-width="2" />
<path d="M1444,4729 L4487,4891" stroke="blue" stroke-width="2" />
<path d="M99,5761 L5794,4240" stroke="blue" stroke-width="2" />
<path d="M3077,5254 L2794,1595" stroke="blue" stroke-width="2" />
<path d="M4618,3697 L2017,6052" stroke="blue" stroke-width="2" />
<path d="M4068,5437 L2529,1369" stroke="blue" stroke-width="2" />
<path d="M1365,4937 L5228,4904" stroke="blue" stroke-width="2" />
<path d="M3235,5829 L4033,2459" stroke="blue" stroke-width="2" />
<path d="M5348,2808 L3577,4476" stroke="blue" stroke-width="2" />
<path d="M4185,3848 L2492,71" stroke="blue" stroke-width="2" />
<path d="M3618,2114 L1814,2877" stroke="blue" stroke-width="2" />
<path d="M81,3436 L221,4723" stroke="blue" stroke-width="2" />
<path d="M4765,3861 L3986,1446" stroke="blue" stroke-width="2" />
<path d="M5532,1596 L994,81" stroke="blue" stroke-width="2" />
<path d="M3165,6009 L4589,6484" stroke="blue" stroke-width="2" />
<path d="M84,3991 L5371,1754" stroke="blue" stroke-width="2" />
<path d="M4389,5125 L2645,6451" stroke="blue" stroke-width="2" />
<path d="M486,5737 L5761,2950" stroke="blue" stroke-width="2" />
<path d="M893,6556 L1682,788" stroke="blue" stroke-width="2" />
<path d="M2313,2572 L2005,6020" stroke="blue" stroke-width="2" />
<path d="M677,1725 L1346,3771" stroke="blue" stroke-width="2" />
<path d="M1591,1585 L3336,6205" stroke="blue" stroke-width="2" />
<path d="M5112,2787 L4004,6012" stroke="blue" stroke-width="2" />
<path d="M5505,3730 L2652,2070" stroke="blue" stroke-width="2" />
<path d="M538,4585 L275,2338" stroke="blue" stroke-width="2" />
<path d="M2515,2981 L5084,1615" stroke="blue" stroke-width="2" />
<path d="M3734,1127 L5291,682" stroke="blue" stroke-width="2" />
<path d="M4273,4572 L5407,5539" stroke="blue" stroke-width="2" />
<path d="M3850,164 L3697,4966" stroke="blue" stroke-width="2" />
<path d="M2655,3374 L3993,2647" stroke="blue" stroke-width="2" />
<path d="M5631,5742 L5200,3224" stroke="blue" stroke-width="2" />
<path d="M1886,5402 L5875,4339" stroke="blue" stroke-width="2" />
<path d="M141,134 L5534,5463" stroke="blue" stroke-width="2" />
<path d="M1785,3587 L2132,1609" stroke="blue" stroke-width="2" />
<path d="M2041,4172 L3063,2565" stroke="blue" stroke-width="2" />
<path d="M4117,4749 L3857,5667" stroke="blue" stroke-width="2" />
<path d="M640,5527 L4063,5653" stroke="blue" stroke-width="2" />
<path d="M1017,3263 L3982,5720" stroke="blue" stroke-width="2" />
<path d="M661,5125 L4056,4464" stroke="blue" stroke-width="2" />
<path d="M4710,1126 L121,1250" stroke="blue" stroke-width="2" />
<path d="M2241,1095 L2301,1445" stroke="blue" stroke-width="2" />
<path d="M3006,5710 L221,5559" stroke="blue" stroke-width="2" />
<path d="M5018,1294 L4108,2368" stroke="blue" stroke-width="2" />
<path d="M4238,3968 L1599,3794" stroke="blue" stroke-width="2" />
<path d="M5475,4171 L2166,4603" stroke="blue" stroke-width="2" />
<path d="M4668,2569 L2930,3629" stroke="blue" stroke-width="2" />
<path d="M2517,215 L1084,2239" stroke="blue" stroke-width="2" />
<path d="M4626,2830 L1811,3470" stroke="blue" stroke-width="2" />
<path d="M2676,3822 L5649,4729" stroke="blue" stroke-width="2" />
<path d="M3025,5597 L1156,3510" stroke="blue" stroke-width="2" />
<path d="M2382,5900 L1575,6154" stroke="blue" stroke-width="2" />
<path d="M3695,4554 L4586,2367" stroke="blue" stroke-width="2" />
<path d="M3445,1461 L2420,1880" stroke="blue" stroke-width="2" />
<path d="M4434,2602 L1708,2031" stroke="blue" stroke-width="2" />
<path d="M5616,5002 L162,325" stroke="blue" stroke-width="2" />
<path d="M3995,4687 L3246,6204" stroke="blue" stroke-width="2" />
<path d="M1131,783 L3301,1981" stroke="blue" stroke-width="2" />
<path d="M3805,2599 L40,4413" stroke="blue" stroke-width="2" />
<path d="M1395,6476 L1521,6293" stroke="blue" stroke-width="2" />
<path d="M503,4334 L2185,4822" stroke="blue" stroke-width="2" />
<path d="M4485,6094 L3547,3613" stroke="blue" stroke-width="2" />
<path d="M138,1053 L1260,3411" stroke="blue" stroke-width="2" />
<path d="M1470,2082 L1757,4920" stroke="blue" stroke-width="2" />
<path d="M2781,3940 L2352,5450" stroke="blue" stroke-width="2" />
<path d="M4749,4328 L1669,4747" stroke="blue" stroke-width="2" />
<path d="M4287,4492 L4584,6166" stroke="blue" stroke-width="2" />
<path d="M1522,242 L3578,3897" stroke="blue" stroke-width="2" />
<path d="M937,2124 L1460,6236" stroke="blue" stroke-width="2" />
<path d="M4665,4070 L4270,851" stroke="blue" stroke-width="2" />
<path d="M1506,6123 L2436,3034" stroke="blue" stroke-width="2" />
<path d="M971,231 L4166,2282" stroke="blue" stroke-width="2" />
<path d="M2160,6307 L4296,951" stroke="blue" stroke-width="2" />
<path d="M2126,91 L1320,3781" stroke="blue" stroke-width="2" />
<path d="M4330,4496 L2075,2243" stroke="blue" stroke-width="2" />
<path d="M5137,1240 L2884,4023" stroke="blue" stroke-width="2" />
<path d="M3394,6438 L82,5986" stroke="blue" stroke-width="2" />
<path d="M5044,5140 L5853,4016" stroke="blue" stroke-width="2" />
<path d="M789,417 L2380,1804" stroke="blue" stroke-width="2" />
<path d="M1964,3690 L1971,870" stroke="blue" stroke-width="2" />
<path d="M3968,2315 L2369,4535" stroke="blue" stroke-width="2" />
<path d="M5758,2909 L2095,5998" stroke="blue" stroke-width="2" />
<path d="M247,2145 L4687,2532" stroke="blue" stroke-width="2" />
<path d="M5695,4579 L3746,3090" stroke="blue" stroke-width="2" />
<path d="M2849,3768 L5424,6306" stroke="blue" stroke-width="2" />
<path d="M1253,1267 L24,1574" stroke="blue" stroke-width="2" />
<path d="M428,266 L1955,4637" stroke="blue" stroke-width="2" />
<path d="M3531,3372 L3023,3522" stroke="blue" stroke-width="2" />
<path d="M3254,1877 L4590,3322" stroke="blue" stroke-width="2" />
<path d="M133,234 L298,1208" stroke="blue" stroke-width="2" />
<path d="M4718,926 L4707,1158" stroke="blue" stroke-width="2" />
<path d="M4176,4110 L3573,3485" stroke="blue" stroke-width="2" />
<path d="M5723,5801 L1746,2682" stroke="blue" stroke-width="2" />
<path d="M3633,6057 L287,2919" stroke="blue" stroke-width="2" />
<path d="M4345,2551 L5489,519" stroke="blue" stroke-width="2" />
<path d="M3046,5420 L2598,4733" stroke="blue" stroke-width="2" />
<path d="M655,3709 L1353,1974" stroke="blue" stroke-width="2" />
<path d="M858,5864 L3787,2253" stroke="blue" stroke-width="2" />
<path d="M3888,4506 L1123,3106" stroke="blue" stroke-width="2" />
<path d="M5411,1280 L3733,6159" stroke="blue" stroke-width="2" />
<path d="M4353,4569 L3844,2512" stroke="blue" stroke-width="2" />
<path d="M5223,1491 L2805,2044" stroke="blue" stroke-width="2" />
<path d="M4750,30 L1480,3426" stroke="blue" stroke-width="2" />
<path d="M4537,4793 L2600,578" stroke="blue" stroke-width="2" />
<path d="M1472,4446 L4484,4861" stroke="blue" stroke-width="2" />
<path d="M1271,168 L2398,829" stroke="blue" stroke-width="2" />
<path d="M4237,4460 L1688,917" stroke="blue" stroke-width="2" />
<path d="M5224,951 L4756,6428" stroke="blue" stroke-width="2" />
<path d="M482,2172 L4055,4453" stroke="blue" stroke-width="2" />
<path d="M1909,1793 L1953,1412" stroke="blue" stroke-width="2" />
<path d="M5533,6528 L2607,638" stroke="blue" stroke-width="2" />
<path d="M613,1361 L2727,1693" stroke="blue" stroke-width="2" />
<path d="M1410,1109 L3884,823" stroke="blue" stroke-width="2" />
<path d="M4348,4165 L3741,1072" stroke="blue" stroke-width="2" />
<path d="M4101,3640 L3669,2008" stroke="blue" stroke-width="2" />
<path d="M3226,192 L3818,3533" stroke="blue" stroke-width="2" />
<path d="M5685,3382 L2368,1270" stroke="blue" stroke-width="2" />
<path d="M5844,2615 L1802,1967" stroke="blue" stroke-width="2" />
<path d="M1295,6076 L4149,1703" stroke="blue" stroke-width="2" />
<path d="M4473,1406 L2236,2794" stroke="blue" stroke-width="2" />
<path d="M2042,397 L2450,2095" stroke="blue" stroke-width="2" />
<path d="M1096,622 L1629,3009" stroke="blue" stroke-width="2" />
<path d="M5027,1968 L1316,4348" stroke="blue" stroke-width="2" />
<path d="M5197,857 L465,2204" stroke="blue" stroke-width="2" />
<path d="M4569,3051 L445,1603" stroke="blue" stroke-width="2" />
<path d="M1887,2689 L620,4276" stroke="blue" stroke-width="2" />
<path d="M2585,867 L320,752" stroke="blue" stroke-width="2" />
<path d="M115,1280 L2175,6177" stroke="blue" stroke-width="2" />
<path d="M4198,1380 L4949,2289" stroke="blue" stroke-width="2" />
<path d="M4079,652 L23,5141" stroke="blue" stroke-width="2" />
<path d="M1684,4153 L4293,5573" stroke="blue" stroke-width="2" />
<path d="M5876,2922 L1440,6471" stroke="blue" stroke-width="2" />
<path d="M3809,4846 L3142,5784" stroke="blue" stroke-width="2" />
<path d="M1481,2227 L883,2645" stroke="blue" stroke-width="2" />
<path d="M5797,3400 L5248,3694" stroke="blue" stroke-width="2" />
<path d="M2958,6241 L3538,4046" stroke="blue" stroke-width="2" />
<path d="M883,3572 L4292,3640" stroke="blue" stroke-width="2" />
<path d="M4791,5459 L2186,886" stroke="blue" stroke-width="2" />
<path d="M5038,761 L260,6285" stroke="blue" stroke-width="2" />
<path d="M5547,4692 L1294,4820" stroke="blue" stroke-width="2" />
<path d="M3283,5376 L2240,5053" stroke="blue" stroke-width="2" />
<path d="M0,1966 L5729,6072" stroke="blue" stroke-width="2" />
<path d="M2199,3786 L5460,5648" stroke="blue" stroke-width="2" />
<path d="M4958,1350 L4014,5146" stroke="blue" stroke-width="2" />
<path d="M5548,6041 L1528,5547" stroke="blue" stroke-width="2" />
<path d="M5632,2825 L2421,838" stroke="blue" stroke-width="2" />
<path d="M4606,4949 L16,6065" stroke="blue" stroke-width="2" />
<path d="M1273,2405 L2666,3020" stroke="blue" stroke-width="2" />
<path d="M2935,5672 L4429,2976" stroke="blue" stroke-width="2" />
<path d="M140,4767 L3344,3481" stroke="blue" stroke-width="2" />
<path d="M1114,1096 L3176,110" stroke="blue" stroke-width="2" />
<path d="M4981,912 L2617,2010" stroke="blue" stroke-width="2" />
<path d="M2514,4855 L1827,2883" stroke="blue" stroke-width="2" />
<path d="M4555,854 L3592,2516" stroke="blue" stroke-width="2" />
<path d="M1863,2400 L1073,585" stroke="blue" stroke-width="2" />
<path d="M1055,1191 L5144,647" stroke="blue" stroke-width="2" />
<path d="M5850,5898 L5276,9" stroke="blue" stroke-width="2" />
<path d="M1056,3323 L895,129" stroke="blue" stroke-width="2" />
<path d="M426,3604 L5573,5922" stroke="blue" stroke-width="2" />
<path d="M5776,5790 L2476,2077" stroke="blue" stroke-width="2" />
<path d="M1537,517 L4645,3846" stroke="blue" stroke-width="2" />
<path d="M787,2434 L4308,4443" stroke="blue" stroke-width="2" />
<path d="M1995,1174 L3512,3938" stroke="blue" stroke-width="2" />
<path d="M4748,4832 L5186,2883" stroke="blue" stroke-width="2" />
<path d="M1564,2153 L4727,1730" stroke="blue" stroke-width="2" />
<path d="M1875,3710 L3754,5727" stroke="blue" stroke-width="2" />
<path d="M1065,3743 L1252,4370" stroke="blue" stroke-width="2" />
<path d="M1661,5216 L4210,6050" stroke="blue" stroke-width="2" />
<path d="M4358,4578 L1503,4699" stroke="blue" stroke-width="2" />
<path d="M180,4148 L4180,3968" stroke="blue" stroke-width="2" />
<path d="M2559,2065 L1572,5799" stroke="blue" stroke-width="2" />
<path d="M1032,4942 L3824,2427" stroke="blue" stroke-width="2" />
<path d="M4718,1654 L5851,4636" stroke="blue" stroke-width="2" />
<path d="M258,3259 L1551,634" stroke="blue" stroke-width="2" />
<path d="M1207,5009 L622,5170" stroke="blue" stroke-width="2" />
<path d="M4362,4185 L3429,2205" stroke="blue" stroke-width="2" />
<path d="M5052,1799 L561,2478" stroke="blue" stroke-width="2" />
<path d="M1001,3848 L3329,5166" stroke="blue" stroke-width="2" />
<path d="M5395,4221 L2501,603" stroke="blue" stroke-width="2" />
<path d="M2421,5487 L4765,6050" stroke="blue" stroke-width="2" />
<path d="M1210,5488 L1996,5727" stroke="blue" stroke-width="2" />
<path d="M1565,3453 L5834,5934" stroke="blue" stroke-width="2" />
<path d="M449,2622 L4670,1381" stroke="blue" stroke-width="2" />
<path d="M1683,3013 L3355,3667" stroke="blue" stroke-width="2" />
<path d="M864,1749 L5799,3164" stroke="blue" stroke-width="2" />
<path d="M3063,1331 L4205,612" stroke="blue" stroke-width="2" />
<path d="M3786,5853 L4896,4615" stroke="blue" stroke-width="2" />
<path d="M3556,4043 L4001,5024" stroke="blue" stroke-width="2" />
<path d="M3540,5027 L1949,5177" stroke="blue" stroke-width="2" />
<path d="M5174,198 L4371,924" stroke="blue" stroke-width="2" />
<path d="M4340,1175 L3484,2587" stroke="blue" stroke-width="2" />
<path d="M1663,5254 L4259,5415" stroke="blue" stroke-width="2" />
<path d="M5155,5121 L4934,2472" stroke="blue" stroke-width="2" />
<path d="M5366,4183 L2776,2495" stroke="blue" stroke-width="2" />
<path d="M358,5492 L3966,4760" stroke="blue" stroke-width="2" />
<path d="M1411,652 L2275,5824" stroke="blue" stroke-width="2" />
<path d="M5758,3545 L1543,262" stroke="blue" stroke-width="2" />
<path d="M4163,421 L2847,4551" stroke="blue" stroke-width="2" />
<path d="M4453,1849 L5743,4299" stroke="blue" stroke-width="2" />
<path d="M2071,2518 L5664,2441" stroke="blue" stroke-width="2" />
<path d="M960,5777 L1829,222" stroke="blue" stroke-width="2" />
<path d="M8,1275 L2180,2390" stroke="blue" stroke-width="2" />
<path d="M4619,3713 L483,4592" stroke="blue" stroke-width="2" />
<path d="M5353,5823 L2248,3107" stroke="blue" stroke-width="2" />
<path d="M1833,5183 L1954,1140" stroke="blue" stroke-width="2" />
<path d="M3939,6024 L4072,1486" stroke="blue" stroke-width="2" />
<path d="M2811,1356 L1308,31" stroke="blue" stroke-width="2" />
<path d="M954,4999 L4282,1022" stroke="blue" stroke-width="2" />
<path d="M4618,4253 L2437,5153" stroke="blue" stroke-width="2" />
<path d="M1315,5285 L4960,2765" stroke="blue" stroke-width="2" />
<path d="M3177,3768 L3290,3808" stroke="blue" stroke-width="2" />
<path d="M999,3768 L5568,2383" stroke="blue" stroke-width="2" />
<path d="M3992,5677 L3292,6365" stroke="blue" stroke-width="2" />
<path d="M3276,6006 L591,4994" stroke="blue" stroke-width="2" />
<path d="M2407,3322 L1305,3571" stroke="blue" stroke-width="2" />
<path d="M5815,2872 L5068,300" stroke="blue" stroke-width="2" />
<path d="M1491,6083 L5428,4226" stroke="blue" stroke-width="2" />
<path d="M1590,2488 L1566,369" stroke="blue" stroke-width="2" />
<path d="M2824,1837 L3083,834" stroke="blue" stroke-width="2" />
<path d="M1713,3838 L5722,5282" stroke="blue" stroke-width="2" />
<path d="M1743,975 L4369,6401" stroke="blue" stroke-width="2" />
<path d="M5035,4931 L5047,1081" stroke="blue" stroke-width="2" />
<path d="M244,3249 L2656,5810" stroke="blue" stroke-width="2" />
<path d="M2833,585 L3021,4203" stroke="blue" stroke-width="2" />
<path d="M4520,3821 L4307,5113" stroke="blue" stroke-width="2" />
<path d="M4889,4589 L4591,2328" stroke="blue" stroke-width="2" />
<path d="M2743,1247 L1503,3537" stroke="blue" stroke-width="2" />
<path d="M1325,3522 L3106,4265" stroke="blue" stroke-width="2" />
<path d="M2598,3755 L2693,2644" stroke="blue" stroke-width="2" />
<path d="M4997,4611 L1501,907" stroke="blue" stroke-width="2" />
<path d="M2604,5711 L2551,5241" stroke="blue" stroke-width="2" />
<path d="M1579,2422 L2572,1481" stroke="blue" stroke-width="2" />
<path d="M1124,316 L1131,1619" stroke="blue" stroke-width="2" />
<path d="M5128,84 L3431,1469" stroke="blue" stroke-width="2" />
<path d="M868,3825 L1516,5559" stroke="blue" stroke-width="2" />
<path d="M782,5051 L1082,5967" stroke="blue" stroke-width="2" />
<path d="M5409,4596 L1482,3180" stroke="blue" stroke-width="2" />
<path d="M4168,4722 L2563,1359" stroke="blue" stroke-width="2" />
<path d="M2522,5493 L1965,1963" stroke="blue" stroke-width="2" />
<path d="M1395,152 L3600,6361" stroke="blue" stroke-width="2" />
<path d="M381,3548 L4675,4536" stroke="blue" stroke-width="2" />
<path d="M3798,5435 L875,1080" stroke="blue" stroke-width="2" />
<path d="M2411,2169 L5670,1880" stroke="blue" stroke-width="2" />
<path d="M3873,1220 L2791,3383" stroke="blue" stroke-width="2" />
<path d="M4294,403 L1714,3995" stroke="blue" stroke-width="2" />
<path d="M4530,1125 L456,3526" stroke="blue" stroke-width="2" />
<path d="M4482,2660 L4613,6194" stroke="blue" stroke-width="2" />
<path d="M813,1632 L991,6495" stroke="blue" stroke-width="2" />
<path d="M5551,5516 L184,6401" stroke="blue" stroke-width="2" />
<path d="M1699,1013 L1295,2497" stroke="blue" stroke-width="2" />
<path d="M1110,5934 L5728,6529" stroke="blue" stroke-width="2" />
<path d="M3858,1105 L4926,3884" stroke="blue" stroke-width="2" />
<path d="M5261,3490 L4074,724" stroke="blue" stroke-width="2" />
<path d="M3671,1786 L5222,6138" stroke="blue" stroke-width="2" />
<path d="M2582,275 L3171,1908" stroke="blue" stroke-width="2" />
<path d="M2265,5943 L2892,6024" stroke="blue" stroke-width="2" />
<path d="M3339,4623 L1574,3483" stroke="blue" stroke-width="2" />
<path d="M5113,2670 L1178,1087" stroke="blue" stroke-width="2" />
<path d="M4478,1583 L2235,4993" stroke="blue" stroke-width="2" />
<path d="M4108,513 L4214,5415" stroke="blue" stroke-width="2" />
<path d="M3041,4824 L3635,5348" stroke="blue" stroke-width="2" />
<path d="M2474,4967 L3059,2248" stroke="blue" stroke-width="2" />
<path d="M4609,607 L3846,4653" stroke="blue" stroke-width="2" />
<path d="M1056,3162 L550,5060" stroke="blue" stroke-width="2" />
<path d="M292,1035 L5538,3308" stroke="blue" stroke-width="2" />
<path d="M5194,850 L4438,40" stroke="blue" stroke-width="2" />
<path d="M3577,2669 L1905,1029" stroke="blue" stroke-width="2" />
<path d="M1102,4533 L1154,6132" stroke="blue" stroke-width="2" />
<path d="M4877,3786 L4930,4125" stroke="blue" stroke-width="2" />
<path d="M2131,3813 L4983,615" stroke="blue" stroke-width="2" />
<path d="M5766,4092 L3891,1830" stroke="blue" stroke-width="2" />
<path d="M3327,2101 L1658,5351" stroke="blue" stroke-width="2" />
<path d="M5230,1852 L2267,5411" stroke="blue" stroke-width="2" />
<path d="M2291,5293 L1003,3982" stroke="blue" stroke-width="2" />
<path d="M3869,5472 L5358,698" stroke="blue" stroke-width="2" />
<path d="M4237,2003 L5083,2590" stroke="blue" stroke-width="2" />
<path d="M5279,3131 L2065,5524" stroke="blue" stroke-width="2" />
<path d="M5202,5290 L1732,6478" stroke="blue" stroke-width="2" />
<path d="M5622,4231 L4999,1878" stroke="blue" stroke-width="2" />
<path d="M1012,6193 L1877,4560" stroke="blue" stroke-width="2" />
<path d="M3514,3218 L5074,5272" stroke="blue" stroke-width="2" />
<path d="M3917,4193 L1839,2651" stroke="blue" stroke-width="2" />
<path d="M3077,4262 L3748,6138" stroke="blue" stroke-width="2" />
<path d="M4624,3149 L5196,4347" stroke="blue" stroke-width="2" />
<path d="M2351,5153 L4613,258" stroke="blue" stroke-width="2" />
<path d="M374,3707 L4511,6171" stroke="blue" stroke-width="2" />
<path d="M358,64 L740,5924" stroke="blue" stroke-width="2" />
<path d="M3619,4963 L2289,2067" stroke="blue" stroke-width="2" />
<path d="M1025,3489 L4764,497" stroke="blue" stroke-width="2" />
<path d="M223,3738 L5470,4239" stroke="blue" stroke-width="2" />
<path d="M4454,4014 L639,5909" stroke="blue" stroke-width="2" />
<path d="M5027,6376 L5349,3368" stroke="blue" stroke-width="2" />
<path d="M2519,6297 L5030,5442" stroke="blue" stroke-width="2" />
<path d="M1126,3194 L5263,5481" stroke="blue" stroke-width="2" />
<path d="M1034,622 L2607,4190" stroke="blue" stroke-width="2" />
<path d="M163,1960 L2085,3282" stroke="blue" stroke-width="2" />
<path d="M46,5571 L2363,5053" stroke="blue" stroke-width="2" />
<path d="M2051,3131 L2020,5425" stroke="blue" stroke-width="2" />
<path d="M3368,2128 L4349,4347" stroke="blue" stroke-width="2" />
<path d="M337,2472 L1636,4852" stroke="blue" stroke-width="2" />
<path d="M256,4177 L3185,759" stroke="blue" stroke-width="2" />
<path d="M4581,4280 L968,916" stroke="blue" stroke-width="2" />
<path d="M1085,2793 L2638,3944" stroke="blue" stroke-width="2" />
<path d="M941,5832 L3856,5928" stroke="blue" stroke-width="2" />
<path d="M2012,4467 L1337,4044" stroke="blue" stroke-width="2" />
<path d="M3189,5379 L1545,1851" stroke="blue" stroke-width="2" />
<path d="M5617,944 L1052,3952" stroke="blue" stroke-width="2" />
<path d="M787,5508 L4281,3241" stroke="blue" stroke-width="2" />
<path d="M2663,946 L963,5853" stroke="blue" stroke-width="2" />
<path d="M1906,4732 L4792,3877" stroke="blue" stroke-width="2" />
<path d="M2354,1641 L2641,2199" stroke="blue" stroke-width="2" />
<path d="M878,2426 L2017,6078" stroke="blue" stroke-width="2" />
<path d="M4067,1600 L243,93" stroke="blue" stroke-width="2" />
<path d="M5261,5356 L1243,5873" stroke="blue" stroke-width="2" />
<path d="M2328,6238 L797,4071" stroke="blue" stroke-width="2" />
<path d="M3014,5969 L2008,5456" stroke="blue" stroke-width="2" />
<path d="M1921,1493 L4069,3212" stroke="blue" stroke-width="2" />
<path d="M1113,4013 L5652,3375" stroke="blue" stroke-width="2" />
<path d="M717,227 L5771,924" stroke="blue" stroke-width="2" />
<path d="M2958,5783 L3829,2089" stroke="blue" stroke-width="2" />
<path d="M2948,1409 L2730,2007" stroke="blue" stroke-width="2" />
<path d="M1848,1809 L575,4150" stroke="blue" stroke-width="2" />
<path d="M2683,5225 L3727,5993" stroke="blue" stroke-width="2" />
<path d="M938,1445 L4145,650" stroke="blue" stroke-width="2" />
<path d="M4555,4896 L5833,1965" stroke="blue" stroke-width="2" />
<path d="M5423,3266 L3273,5289" stroke="blue" stroke-width="2" />
<path d="M3967,5450 L5287,3748" stroke="blue" stroke-width="2" />
<path d="M2447,6012 L5009,6507" stroke="blue" stroke-width="2" />
<path d="M5761,194 L2839,6156" stroke="blue" stroke-width="2" />
<path d="M5230,2945 L970,2544" stroke="blue" stroke-width="2" />
<path d="M2360,117 L3962,3307" stroke="blue" stroke-width="2" />
<path d="M4303,6191 L82,3480" stroke="blue" stroke-width="2" />
<path d="M5327,936 L3266,4298" stroke="blue" stroke-width="2" />
<path d="M2337,5300 L3413,184" stroke="blue" stroke-width="2" />
<path d="M261,752 L4535,2200" stroke="blue" stroke-width="2" />
<path d="M285,5121 L2120,5214" stroke="blue" stroke-width="2" />
<path d="M2275,5375 L673,239" stroke="blue" stroke-width="2" />
<path d="M188,4875 L4974,2376" stroke="blue" stroke-width="2" />
<path d="M725,1269 L1029,5863" stroke="blue" stroke-width="2" />
<path d="M2134,6066 L2391,1400" stroke="blue" stroke-width="2" />
<path d="M561,1947 L2659,72" stroke="blue" stroke-width="2" />
<path d="M864,3132 L3783,4678" stroke="blue" stroke-width="2" />
<path d="M1769,3523 L4029,631" stroke="blue" stroke-width="2" />
<path d="M3873,4931 L4762,2667" stroke="blue" stroke-width="2" />
<path d="M2616,6226 L878,4757" stroke="blue" stroke-width="2" />
<path d="M870,1423 L2162,6016" stroke="blue" stroke-width="2" />
<path d="M4284,3848 L3369,3808" stroke="blue" stroke-width="2" />
<path d="M5745,5554 L1007,4942" stroke="blue" stroke-width="2" />
<path d="M4005,4201 L5734,4361" stroke="blue" stroke-width="2" />
<path d="M5080,160 L926,6462" stroke="blue" stroke-width="2" />
<path d="M2763,4548 L1496,2959" stroke="blue" stroke-width="2" />
<path d="M3672,2905 L3905,1284" stroke="blue" stroke-width="2" />
<path d="M3360,6352 L377,1411" stroke="blue" stroke-width="2" />
<path d="M261,905 L5100,3436" stroke="blue" stroke-width="2" />
<path d="M1702,5147 L650,3742" stroke="blue" stroke-width="2" />
<path d="M705,1728 L5540,1715" stroke="blue" stroke-width="2" />
<path d="M3417,5010 L621,2065" stroke="blue" stroke-width="2" />
<path d="M2497,6399 L3559,5768" stroke="blue" stroke-width="2" />
<path d="M863,1605 L960,1111" stroke="blue" stroke-width="2" />
<path d="M5081,1694 L3549,1690" stroke="blue" stroke-width="2" />
<path d="M3787,14 L869,5846" stroke="blue" stroke-width="2" />
<path d="M880,4622 L5356,360" stroke="blue" stroke-width="2" />
<path d="M4174,3734 L2793,2756" stroke="blue" stroke-width="2" />
<path d="M1235,2935 L4657,4087" stroke="blue" stroke-width="2" />
<path d="M1436,3706 L443,6019" stroke="blue" stroke-width="2" />
<path d="M3798,511 L3777,1785" stroke="blue" stroke-width="2" />
<path d="M4559,5851 L3345,5760" stroke="blue" stroke-width="2" />
<path d="M2075,3554 L1633,5852" stroke="blue" stroke-width="2" />
<path d="M4794,1865 L1103,3573" stroke="blue" stroke-width="2" />
<path d="M4201,3776 L443,3149" stroke="blue" stroke-width="2" />
<path d="M1703,4528 L2026,656" stroke="blue" stroke-width="2" />
<path d="M4602,3012 L4506,1929" stroke="blue" stroke-width="2" />
<path d="M893,6529 L4313,2036" stroke="blue" stroke-width="2" />
<path d="M1974,4688 L3261,4164" stroke="blue" stroke-width="2" />
<path d="M1570,6163 L2922,6148" stroke="blue" stroke-width="2" />
<path d="M919,2817 L2501,3793" stroke="blue" stroke-width="2" />
<path d="M1137,2360 L4244,2828" stroke="blue" stroke-width="2" />
<path d="M5024,3101 L1339,2530" stroke="blue" stroke-width="2" />
<path d="M2232,115 L4548,6214" stroke="blue" stroke-width="2" />
<path d="M1770,1675 L500,1317" stroke="blue" stroke-width="2" />
<path d="M488,40 L3402,5457" stroke="blue" stroke-width="2" />
<path d="M1378,3888 L4437,5719" stroke="blue" stroke-width="2" />
<path d="M1561,4164 L128,23" stroke="blue" stroke-width="2" />
<path d="M2177,3145 L85,2180" stroke="blue" stroke-width="2" />
<path d="M4421,5305 L2410,4207" stroke="blue" stroke-width="2" />
<path d="M1131,4994 L3156,1331" stroke="blue" stroke-width="2" />
<path d="M4146,6142 L3090,1504" stroke="blue" stroke-width="2" />
<path d="M3401,4110 L1877,800" stroke="blue" stroke-width="2" />
<path d="M2084,1207 L2393,5748" stroke="blue" stroke-width="2" />
<path d="M1844,5313 L1579,4126" stroke="blue" stroke-width="2" />
<path d="M4459,3284 L1995,5284" stroke="blue" stroke-width="2" />
<path d="M4406,5508 L3347,179" stroke="blue" stroke-width="2" />
<path d="M286,252 L4652,3277" stroke="blue" stroke-width="2" />
<path d="M4227,2106 L4671,5954" stroke="blue" stroke-width="2" />
<path d="M3430,4347 L41,5670" stroke="blue" stroke-width="2" />
<path d="M5812,2065 L4787,4784" stroke="blue" stroke-width="2" />
<path d="M5529,2592 L3380,5924" stroke="blue" stroke-width="2" />
<path d="M2923,3577 L1011,520" stroke="blue" stroke-width="2" />
<path d="M1208,6352 L3635,503" stroke="blue" stroke-width="2" />
<path d="M51,3354 L3584,805" stroke="blue" stroke-width="2" />
<path d="M5687,2406 L232,3680" stroke="blue" stroke-width="2" />
<path d="M4861,3959 L2920,6537" stroke="blue" stroke-width="2" />
<path d="M2378,56 L3623,1980" stroke="blue" stroke-width="2" />
<path d="M1836,6419 L1159,1202" stroke="blue" stroke-width="2" />
<path d="M456,2001 L5176,2712" stroke="blue" stroke-width="2" />
<path d="M5807,5626 L4235,2168" stroke="blue" stroke-width="2" />
<path d="M5047,1340 L1434,4907" stroke="blue" stroke-width="2" />
<path d="M1692,2549 L2087,502" stroke="blue" stroke-width="2" />
<path d="M2872,2026 L3023,4982" stroke="blue" stroke-width="2" />
<path d="M2438,6090 L2963,4079" stroke="blue" stroke-width="2" />
<path d="M2431,1567 L3222,3136" stroke="blue" stroke-width="2" />
<path d="M1766,5375 L114,5354" stroke="blue" stroke-width="2" />
<path d="M1188,6086 L5721,978" stroke="blue" stroke-width="2" />
<path d="M544,3599 L1241,3032" stroke="blue" stroke-width="2" />
<path d="M1920,2487 L3820,5460" stroke="blue" stroke-width="2" />
<path d="M4825,4698 L5754,3288" stroke="blue" stroke-width="2" />
<path d="M662,3923 L2141,1534" stroke="blue" stroke-width="2" />
<path d="M1951,3767 L2040,5185" stroke="blue" stroke-width="2" />
<path d="M4280,1463 L1743,5368" stroke="blue" stroke-width="2" />
<path d="M4029,280 L3821,4353" stroke="blue" stroke-width="2" />
<path d="M700,1020 L3128,1680" stroke="blue" stroke-width="2" />
<path d="M1960,3624 L370,1075" stroke="blue" stroke-width="2" />
<path d="M3120,875 L4693,70" stroke="blue" stroke-width="2" />
<path d="M2475,3926 L5760,1676" stroke="blue" stroke-width="2" />
<path d="M800,1497 L5160,574" stroke="blue" stroke-width="2" />
<path d="M154,2475 L2018,2533" stroke="blue" stroke-width="2" />
<path d="M5855,3927 L5793,3834" stroke="blue" stroke-width="2" />
<path d="M866,2545 L5327,2574" stroke="blue" stroke-width="2" />
<path d="M1226,4023 L5043,6159" stroke="blue" stroke-width="2" />
<path d="M5874,6401 L5025,619" stroke="blue" stroke-width="2" />
<path d="M4018,3262 L635,1856" stroke="blue" stroke-width="2" />
<path d="M2145,5250 L4411,1313" stroke="blue" stroke-width="2" />
<path d="M3292,2140 L5302,850" stroke="blue" stroke-width="2" />
<path d="M2061,3828 L1650,4892" stroke="blue" stroke-width="2" />
<path d="M1311,6326 L4609,1610" stroke="blue" stroke-width="2" />
<path d="M4073,1763 L5051,6344" stroke="blue" stroke-width="2" />
<path d="M4272,2941 L2170,4866" stroke="blue" stroke-width="2" />
<path d="M4509,2555 L2190,6292" stroke="blue" stroke-width="2" />
<path d="M3656,1629 L4006,3998" stroke="blue" stroke-width="2" />
<path d="M1732,6042 L2123,3465" stroke="blue" stroke-width="2" />
<path d="M2851,4879 L3683,4523" stroke="blue" stroke-width="2" />
<path d="M2997,187 L1730,427" stroke="blue" stroke-width="2" />
<path d="M3513,3494 L2897,6533" stroke="blue" stroke-width="2" />
<path d="M850,5217 L3557,3049" stroke="blue" stroke-width="2" />
<path d="M5748,528 L2313,724" stroke="blue" stroke-width="2" />
<path d="M649,72 L3039,2904" stroke="blue" stroke-width="2" />
<path d="M4146,5094 L949,6138" stroke="blue" stroke-width="2" />
<path d="M5845,1937 L3093,762" stroke="blue" stroke-width="2" />
<path d="M2094,186 L3617,4045" stroke="blue" stroke-width="2" />
<path d="M3969,5940 L2378,848" stroke="blue" stroke-width="2" />
<path d="M5423,486 L5215,6011" stroke="blue" stroke-width="2" />
<path d="M2707,5522 L5736,4351" stroke="blue" stroke-width="2" />
<path d="M1093,2119 L4368,733" stroke="blue" stroke-width="2" />
<path d="M5501,3584 L4796,6157" stroke="blue" stroke-width="2" />
<path d="M4707,6502 L994,1729" stroke="blue" stroke-width="2" />
<path d="M3003,3904 L1262,2749" stroke="blue" stroke-width="2" />
<path d="M5049,2109 L5408,2489" stroke="blue" stroke-width="2" />
<path d="M3155,4089 L812,6142" stroke="blue" stroke-width="2" />
<path d="M3812,4961 L3075,5478" stroke="blue" stroke-width="2" />
<path d="M2636,3781 L1601,4980" stroke="blue" stroke-width="2" />
<path d="M157,2028 L3857,652" stroke="blue" stroke-width="2" />
<path d="M4359,5265 L2079,5833" stroke="blue" stroke-width="2" />
<path d="M5488,5010 L575,3370" stroke="blue" stroke-width="2" />
<path d="M987,5241 L2295,9" stroke="blue" stroke-width="2" />
<path d="M240,886 L1225,2203" stroke="blue" stroke-width="2" />
<path d="M2492,2938 L5040,4275" stroke="blue" stroke-width="2" />
<path d="M4598,3325 L4426,3825" stroke="blue" stroke-width="2" />
<path d="M5650,1770 L1419,1002" stroke="blue" stroke-width="2" />
<path d="M781,98 L5041,2618" stroke="blue" stroke-width="2" />
<path d="M3976,3681 L4265,820" stroke="blue" stroke-width="2" />
<path d="M5157,2191 L954,4321" stroke="blue" stroke-width="2" />
<path d="M5329,4577 L1529,1738" stroke="blue" stroke-width="2" />
<path d="M4649,3984 L4594,4039" stroke="blue" stroke-width="2" />
<path d="M152,2155 L5435,4512" stroke="blue" stroke-width="2" />
<path d="M5636,1337 L4874,4280" stroke="blue" stroke-width="2" />
<path d="M2107,3916 L3916,5767" stroke="blue" stroke-width="2" />
<path d="M3278,3466 L2845,4507" stroke="blue" stroke-width="2" />
<path d="M186,3704 L3084,5030" stroke="blue" stroke-width="2" />
<path d="M836,3506 L4428,5287" stroke="blue" stroke-width="2" />
<path d="M3073,2167 L5805,3109" stroke="blue" stroke-width="2" />
<path d="M3667,654 L1573,3298" stroke="blue" stroke-width="2" />
<path d="M326,5980 L4183,1284" stroke="blue" stroke-width="2" />
<path d="M3739,2424 L4013,4745" stroke="blue" stroke-width="2" />
<path d="M4357,2647 L4136,5466" stroke="blue" stroke-width="2" />
<path d="M601,6345 L2768,5538" stroke="blue" stroke-width="2" />
<path d="M609,754 L578,1588" stroke="blue" stroke-width="2" />
<path d="M1029,3981 L4070,3903" stroke="blue" stroke-width="2" />
<path d="M3860,5732 L5138,5403" stroke="blue" stroke-width="2" />
<path d="M2245,4244 L1967,6359" stroke="blue" stroke-width="2" />
<path d="M5612,61 L5705,6169" stroke="blue" stroke-width="2" />
<path d="M5524,4238 L5454,3905" stroke="blue" stroke-width="2" />
<path d="M1661,3390 L1757,2855" stroke="blue" stroke-width="2" />
<path d="M3860,6111 L37,493" stroke="blue" stroke-width="2" />
<path d="M434,3637 L2726,6094" stroke="blue" stroke-width="2" />
<path d="M2759,16 L933,2815" stroke="blue" stroke-width="2" />
<path d="M5456,162 L4211,6177" stroke="blue" stroke-width="2" />
<path d="M0,0 L5891,0" stroke="red" stroke-width="10" />
<path d="M5891,0 L5891,6564" stroke="red" stroke-width="10" />
<path d="M0,6564 L5891,6564" stroke="red" stroke-width="10" />
<path d="M0,6564 L0,0" stroke="red" stroke-width="10" />
</svg>