<?xml version="1.0" encoding="UTF-8"?>
<svg xmlns="http://www.w3.org/2000/svg" xmlns:xlink="http://www.w3.org/1999/xlink"
     width="10000" height="10000" viewBox="0 0 10000 10000">
<defs>
</defs>
<path d="M828,1033 L701,92" stroke="blue" stroke-width="2" />
<path d="M1843,3161 L2808,1322" stroke="blue" stroke-width="2" />
<path d="M2566,1474 L2668,2360" stroke="blue" stroke-width="2" />
<path d="M3073,3420 L2922,753" stroke="blue" stroke-width="2" />
<path d="M3404,3857 L1772,463" stroke="blue" stroke-width="2" />
<path d="M3529,1715 L2938,3682" stroke="blue" stroke-width="2" />
<path d="M1112,2204 L2111,3304" stroke="blue" stroke-width="2" />
<path d="M2255,1585 L138,3048" stroke="blue" stroke-width="2" />
<path d="M2884,158 L1601,3710" stroke="blue" stroke-width="2" />
<path d="M3300,846 L461,526" stroke="blue" stroke-width="2" />
<path d="M2098,3042 L2051,2168" stroke="blue" stroke-width="2" />
<path d="M3099,1389 L904,3080" stroke="blue" stroke-width="2" />
<path d="M2768,76 L2394,4214" stroke="blue" stroke-width="2" />
<path d="M2224,1019 L2861,1944" stroke="blue" stroke-width="2" />
<path d="M677,254 L712,3309" stroke="blue" stroke-width="2" />
<path d="M1662,2916 L2306,4216" stroke="blue" stroke-width="2" />
<path d="M849,660 L2551,3782" stroke="blue" stroke-width="2" />
<path d="M417,4021 L1755,747" stroke="blue" stroke-width="2" />
<path d="M1268,2224 L1059,4048" stroke="blue" stroke-width="2" />
<path d="M805,1023 L2871,515" stroke="blue" stroke-width="2" />
<path d="M135,1905 L1348,1976" stroke="blue" stroke-width="2" />
<path d="M1616,106 L558,4205" stroke="blue" stroke-width="2" />
<path d="M479,3665 L36,921" stroke="blue" stroke-width="2" />
<path d="M2159,415 L3056,3314" stroke="blue" stroke-width="2" />
<path d="M1750,2761 L1673,2815" stroke="blue" stroke-width="2" />
<path d="M871,1789 L2349,1937" stroke="blue" stroke-width="2" />
<path d="M3477,2401 L3581,3191" stroke="blue" stroke-width="2" />
<path d="M2414,495 L2567,4119" stroke="blue" stroke-width="2" />
<path d="M356,1768 L2160,4189" stroke="blue" stroke-width="2" />
<path d="M1558,416 L1717,802" stroke="blue" stroke-width="2" />
<path d="M2762,3543 L3172,69" stroke="blue" stroke-width="2" />
<path d="M3080,4049 L3286,3223" stroke="blue" stroke-width="2" />
<path d="M3544,4198 L2277,570" stroke="blue" stroke-width="2" />
<path d="M1744,210 L819,1691" stroke="blue" stroke-width="2" />
<path d="M321,1606 L1862,197" stroke="blue" stroke-width="2" />
<path d="M343,1671 L3464,3224" stroke="blue" stroke-width="2" />
<path d="M1284,1839 L1737,3472" stroke="blue" stroke-width="2" />
<path d="M1605,1323 L620,156" stroke="blue" stroke-width="2" />
<path d="M2387,3614 L765,1648" stroke="blue" stroke-width="2" />
<path d="M2367,2628 L1551,2664" stroke="blue" stroke-width="2" />
<path d="M2918,2034 L1459,2251" stroke="blue" stroke-width="2" />
<path d="M543,3261 L1025,75" stroke="blue" stroke-width="2" />
<path d="M2585,793 L2016,1833" stroke="blue" stroke-width="2" />
<path d="M1952,2786 L1565,2719" stroke="blue" stroke-width="2" />
<path d="M1387,3515 L1877,3710" stroke="blue" stroke-width="2" />
<path d="M1660,1438 L2261,911" stroke="blue" stroke-width="2" />
<path d="M1721,3183 L2464,1330" stroke="blue" stroke-width="2" />
<path d="M1527,2815 L10,1304" stroke="blue" stroke-width="2" />
<path d="M2852,3656 L1587,192" stroke="blue" stroke-width="2" />
<path d="M688,3678 L868,1839" stroke="blue" stroke-width="2" />
<path d="M364,2101 L1323,4052" stroke="blue" stroke-width="2" />
<path d="M3386,50 L707,1928" stroke="blue" stroke-width="2" />
<path d="M3378,561 L1087,1341" stroke="blue" stroke-width="2" />
<path d="M1926,784 L2598,3631" stroke="blue" stroke-width="2" />
<path d="M1080,1838 L3591,3768" stroke="blue" stroke-width="2" />
<path d="M1947,4115 L106,3292" stroke="blue" stroke-width="2" />
<path d="M1010,789 L3471,1550" stroke="blue" stroke-width="2" />
<path d="M1945,2294 L1293,886" stroke="blue" stroke-width="2" />
<path d="M644,1534 L3129,3015" stroke="blue" stroke-width="2" />
<path d="M1726,3338 L3586,4153" stroke="blue" stroke-width="2" />
<path d="M2564,2352 L2781,2879" stroke="blue" stroke-width="2" />
<path d="M64,2188 L1797,396" stroke="blue" stroke-width="2" />
<path d="M864,2071 L1269,2986" stroke="blue" stroke-width="2" />
<path d="M634,1885 L2355,1926" stroke="blue" stroke-width="2" />
<path d="M895,4079 L3192,2207" stroke="blue" stroke-width="2" />
<path d="M353,480 L3477,2124" stroke="blue" stroke-width="2" />
<path d="M3238,1501 L1687,160" stroke="blue" stroke-width="2" />
<path d="M301,96 L1099,1296" stroke="blue" stroke-width="2" />
<path d="M3466,3707 L743,565" stroke="blue" stroke-width="2" />
<path d="M1746,1707 L3122,3400" stroke="blue" stroke-width="2" />
<path d="M3574,3249 L33,216" stroke="blue" stroke-width="2" />
<path d="M1464,694 L2278,3175" stroke="blue" stroke-width="2" />
<path d="M2095,1905 L2608,973" stroke="blue" stroke-width="2" />
<path d="M227,2956 L797,4013" stroke="blue" stroke-width="2" />
<path d="M1060,3577 L1992,3854" stroke="blue" stroke-width="2" />
<path d="M185,293 L2112,2280" stroke="blue" stroke-width="2" />
<path d="M3439,2554 L2409,869" stroke="blue" stroke-width="2" />
<path d="M2628,244 L2786,3338" stroke="blue" stroke-width="2" />
<path d="M2237,1874 L685,2540" stroke="blue" stroke-width="2" />
<path d="M1387,255 L3153,4031" stroke="blue" stroke-width="2" />
<path d="M3344,2768 L2267,602" stroke="blue" stroke-width="2" />
<path d="M2602,900 L1742,2615" stroke="blue" stroke-width="2" />
<path d="M1544,480 L2641,1303" stroke="blue" stroke-width="2" />
<path d="M1779,2029 L2047,748" stroke="blue" stroke-width="2" />
<path d="M3110,1520 L3179,978" stroke="blue" stroke-width="2" />
<path d="M707,1377 L3228,2296" stroke="blue" stroke-width="2" />
<path d="M2164,476 L881,3954" stroke="blue" stroke-width="2" />
<path d="M2204,94 L2272,1360" stroke="blue" stroke-width="2" />
<path d="M3299,1707 L2028,2772" stroke="blue" stroke-width="2" />
<path d="M2751,1670 L3366,1055" stroke="blue" stroke-width="2" />
<path d="M1082,4197 L975,725" stroke="blue" stroke-width="2" />
<path d="M1378,3144 L2937,4139" stroke="blue" stroke-width="2" />
<path d="M1784,4072 L2522,3845" stroke="blue" stroke-width="2" />
<path d="M205,1264 L3495,2023" stroke="blue" stroke-width="2" />
<path d="M70,3807 L2777,803" stroke="blue" stroke-width="2" />
<path d="M2684,2005 L879,1145" stroke="blue" stroke-width="2" />
<path d="M3428,3864 L2707,1095" stroke="blue" stroke-width="2" />
<path d="M419,2310 L1444,789" stroke="blue" stroke-width="2" />
<path d="M1908,3244 L770,3328" stroke="blue" stroke-width="2" />
<path d="M49,250 L494,1919" stroke="blue" stroke-width="2" />
<path d="M2532,722 L482,3295" stroke="blue" stroke-width="2" />
<path d="M818,2697 L352,820" stroke="blue" stroke-width="2" />
<path d="M2802,3264 L2521,2553" stroke="blue" stroke-width="2" />
<path d="M2402,2376 L2503,2133" stroke="blue" stroke-width="2" />
<path d="M338,702 L1575,1775" stroke="blue" stroke-width="2" />
<path d="M1990,2210 L2204,2493" stroke="blue" stroke-width="2" />
<path d="M3425,3041 L3314,3362" stroke="blue" stroke-width="2" />
<path d="M2605,2944 L2670,45" stroke="blue" stroke-width="2" />
<path d="M921,563 L2226,1478" stroke="blue" stroke-width="2" />
<path d="M3060,1794 L3399,3281" stroke="blue" stroke-width="2" />
<path d="M262,3701 L3392,1055" stroke="blue" stroke-width="2" />
<path d="M3656,4100 L1706,3138" stroke="blue" stroke-width="2" />
<path d="M3514,414 L1529,1090" stroke="blue" stroke-width="2" />
<path d="M3005,2186 L1570,71" stroke="blue" stroke-width="2" />
<path d="M3337,4191 L2527,3196" stroke="blue" stroke-width="2" />
<path d="M1642,1271 L3612,3056" stroke="blue" stroke-width="2" />
<path d="M922,1964 L1549,2996" stroke="blue" stroke-width="2" />
<path d="M2063,3946 L3638,2294" stroke="blue" stroke-width="2" />
<path d="M585,3950 L480,1241" stroke="blue" stroke-width="2" />
<path d="M3138,58 L685,3174" stroke="blue" stroke-width="2" />
<path d="M1665,4228 L3095,1183" stroke="blue" stroke-width="2" />
<path d="M3449,1323 L2189,1248" stroke="blue" stroke-width="2" />
<path d="M3456,269 L157,3579" stroke="blue" stroke-width="2" />
<path d="M1670,1654 L307,595" stroke="blue" stroke-width="2" />
<path d="M2623,2241 L1052,970" stroke="blue" stroke-width="2" />
<path d="M323,1362 L3644,4186" stroke="blue" stroke-width="2" />
<path d="M1898,3031 L2360,3044" stroke="blue" stroke-width="2" />
<path d="M2634,1497 L588,2195" stroke="blue" stroke-width="2" />
<path d="M1212,3783 L1123,1068" stroke="blue" stroke-width="2" />
<path d="M1563,770 L3454,4240" stroke="blue" stroke-width="2" />
<path d="M1117,558 L3374,1261" stroke="blue" stroke-width="2" />
<path d="M1341,282 L1652,1523" stroke="blue" stroke-width="2" />
<path d="M1584,813 L1955,3547" stroke="blue" stroke-width="2" />
<path d="M1037,1474 L3217,3310" stroke="blue" stroke-width="2" />
<path d="M2403,2795 L1607,91" stroke="blue" stroke-width="2" />
<path d="M2458,3076 L1801,4046" stroke="blue" stroke-width="2" />
<path d="M1582,2306 L768,3920" stroke="blue" stroke-width="2" />
<path d="M75,2030 L1076,1241" stroke="blue" stroke-width="2" />
<path d="M2596,3831 L2910,2513" stroke="blue" stroke-width="2" />
<path d="M1948,479 L112,484" stroke="blue" stroke-width="2" />
<path d="M3327,3348 L1715,929" stroke="blue" stroke-width="2" />
<path d="M2585,2576 L3069,3527" stroke="blue" stroke-width="2" />
<path d="M3652,4270 L57,3379" stroke="blue" stroke-width="2" />
<path d="M602,897 L2528,1035" stroke="blue" stroke-width="2" />
<path d="M30,3382 L1662,2731" stroke="blue" stroke-width="2" />
<path d="M1716,3603 L3105,861" stroke="blue" stroke-width="2" />
<path d="M3253,1675 L3031,760" stroke="blue" stroke-width="2" />
<path d="M814,2613 L1210,277" stroke="blue" stroke-width="2" />
<path d="M238,1540 L10,1337" stroke="blue" stroke-width="2" />
<path d="M1775,211 L178,3686" stroke="blue" stroke-width="2" />
<path d="M3599,876 L1275,3754" stroke="blue" stroke-width="2" />
<path d="M2768,3497 L407,2083" stroke="blue" stroke-width="2" />
<path d="M2341,3562 L666,3425" stroke="blue" stroke-width="2" />
<path d="M3377,2343 L447,547" stroke="blue" stroke-width="2" />
<path d="M2369,1999 L3490,2640" stroke="blue" stroke-width="2" />
<path d="M1211,2506 L592,3264" stroke="blue" stroke-width="2" />
<path d="M2214,3284 L2018,4239" stroke="blue" stroke-width="2" />
<path d="M1193,3397 L2966,303" stroke="blue" stroke-width="2" />
<path d="M2672,170 L1367,3078" stroke="blue" stroke-width="2" />
<path d="M3489,1451 L364,3295" stroke="blue" stroke-width="2" />
<path d="M2639,3084 L3045,3346" stroke="blue" stroke-width="2" />
<path d="M3635,783 L2533,3577" stroke="blue" stroke-width="2" />
<path d="M330,3283 L2976,1763" stroke="blue" stroke-width="2" />
<path d="M1409,3548 L3250,4179" stroke="blue" stroke-width="2" />
<path d="M3428,3231 L136,3133" stroke="blue" stroke-width="2" />
<path d="M33,266 L1225,2337" stroke="blue" stroke-width="2" />
<path d="M1869,287 L3555,4147" stroke="blue" stroke-width="2" />
<path d="M1970,4257 L296,2450" stroke="blue" stroke-width="2" />
<path d="M945,431 L392,2038" stroke="blue" stroke-width="2" />
<path d="M1003,1345 L2083,3295" stroke="blue" stroke-width="2" />
<path d="M198,1911 L1461,3089" stroke="blue" stroke-width="2" />
<path d="M2131,2872 L3365,3696" stroke="blue" stroke-width="2" />
<path d="M773,1560 L1841,3543" stroke="blue" stroke-width="2" />
<path d="M2575,2105 L3110,100" stroke="blue" stroke-width="2" />
<path d="M1915,2044 L1164,1098" stroke="blue" stroke-width="2" />
<path d="M442,1090 L314,730" stroke="blue" stroke-width="2" />
<path d="M1154,3664 L658,519" stroke="blue" stroke-width="2" />
<path d="M1415,1706 L840,1619" stroke="blue" stroke-width="2" />
<path d="M2011,3113 L542,4159" stroke="blue" stroke-width="2" />
<path d="M2838,3491 L3590,2767" stroke="blue" stroke-width="2" />
<path d="M901,2745 L1843,4257" stroke="blue" stroke-width="2" />
<path d="M1013,1180 L1695,76" stroke="blue" stroke-width="2" />
<path d="M942,3339 L1417,972" stroke="blue" stroke-width="2" />
<path d="M1838,3048 L1623,3785" stroke="blue" stroke-width="2" />
<path d="M3213,3686 L2453,3377" stroke="blue" stroke-width="2" />
<path d="M2839,3297 L1559,125" stroke="blue" stroke-width="2" />
<path d="M1890,35 L1280,2634" stroke="blue" stroke-width="2" />
<path d="M937,320 L3389,2430" stroke="blue" stroke-width="2" />
<path d="M1536,1748 L1833,83" stroke="blue" stroke-width="2" />
<path d="M1549,2986 L893,3150" stroke="blue" stroke-width="2" />
<path d="M3229,3330 L28,652" stroke="blue" stroke-width="2" />
<path d="M2867,3523 L378,3762" stroke="blue" stroke-width="2" />
<path d="M2697,1360 L2281,3125" stroke="blue" stroke-width="2" />
<path d="M1793,3082 L2052,1947" stroke="blue" stroke-width="2" />
<path d="M549,904 L1871,2539" stroke="blue" stroke-width="2" />
<path d="M2382,4178 L3375,1481" stroke="blue" stroke-width="2" />
<path d="M2318,1924 L273,228" stroke="blue" stroke-width="2" />
<path d="M2769,3178 L3367,79" stroke="blue" stroke-width="2" />
<path d="M2963,2905 L2158,1643" stroke="blue" stroke-width="2" />
<path d="M2092,378 L432,1209" stroke="blue" stroke-width="2" />
<path d="M2819,3219 L2796,2895" stroke="blue" stroke-width="2" />
<path d="M3351,487 L3624,3855" stroke="blue" stroke-width="2" />
<path d="M783,2001 L1335,2313" stroke="blue" stroke-width="2" />
<path d="M1792,1020 L3121,961" stroke="blue" stroke-width="2" />
<path d="M971,1251 L1238,3112" stroke="blue" stroke-width="2" />
<path d="M3124,4197 L2015,4082" stroke="blue" stroke-width="2" />
<path d="M886,4265 L1625,3945" stroke="blue" stroke-width="2" />
<path d="M826,1183 L1094,1855" stroke="blue" stroke-width="2" />
<path d="M3590,409 L1075,421" stroke="blue" stroke-width="2" />
<path d="M1846,3227 L385,1850" stroke="blue" stroke-width="2" />
<path d="M3183,1536 L1136,3680" stroke="blue" stroke-width="2" />
<path d="M3637,3307 L504,2923" stroke="blue" stroke-width="2" />
<path d="M2478,3855 L2795,4070" stroke="blue" stroke-width="2" />
<path d="M588,1990 L3570,2092" stroke="blue" stroke-width="2" />
<path d="M2229,3890 L1185,1243" stroke="blue" stroke-width="2" />
<path d="M2026,1391 L2376,2286" stroke="blue" stroke-width="2" />
<path d="M125,744 L2655,1048" stroke="blue" stroke-width="2" />
<path d="M757,1718 L1500,2005" stroke="blue" stroke-width="2" />
<path d="M1025,3835 L1564,113" stroke="blue" stroke-width="2" />
<path d="M2803,3222 L3163,4220" stroke="blue" stroke-width="2" />
<path d="M1130,351 L2167,3195" stroke="blue" stroke-width="2" />
<path d="M1058,939 L1942,369" stroke="blue" stroke-width="2" />
<path d="M3173,2326 L1938,782" stroke="blue" stroke-width="2" />
<path d="M2803,2448 L229,436" stroke="blue" stroke-width="2" />
<path d="M2503,1269 L1565,3280" stroke="blue" stroke-width="2" />
<path d="M171,2368 L1696,421" stroke="blue" stroke-width="2" />
<path d="M1757,4221 L2792,3709" stroke="blue" stroke-width="2" />
<path d="M2729,3216 L1056,96" stroke="blue" stroke-width="2" />
<path d="M2171,2323 L207,1324" stroke="blue" stroke-width="2" />
<path d="M640,2219 L2862,58" stroke="blue" stroke-width="2" />
<path d="M1798,512 L2055,1787" stroke="blue" stroke-width="2" />
<path d="M2195,1003 L3304,2766" stroke="blue" stroke-width="2" />
<path d="M555,363 L522,2488" stroke="blue" stroke-width="2" />
<path d="M2467,882 L390,4067" stroke="blue" stroke-width="2" />
<path d="M2904,2955 L3119,1332" stroke="blue" stroke-width="2" />
<path d="M1826,1047 L3037,2867" stroke="blue" stroke-width="2" />
<path d="M3518,4108 L3291,1809" stroke="blue" stroke-width="2" />
<path d="M120,2902 L2863,3646" stroke="blue" stroke-width="2" />
<path d="M2088,734 L2618,1751" stroke="blue" stroke-width="2" />
<path d="M3257,4097 L1736,2744" stroke="blue" stroke-width="2" />
<path d="M1272,176 L1571,3992" stroke="blue" stroke-width="2" />
<path d="M1632,738 L1651,2359" stroke="blue" stroke-width="2" />
<path d="M217,4071 L3210,4131" stroke="blue" stroke-width="2" />
<path d="M2333,123 L2735,3163" stroke="blue" stroke-width="2" />
<path d="M2284,1527 L1124,3798" stroke="blue" stroke-width="2" />
<path d="M722,1630 L1904,297" stroke="blue" stroke-width="2" />
<path d="M2771,2074 L2120,976" stroke="blue" stroke-width="2" />
<path d="M47,1071 L3207,3751" stroke="blue" stroke-width="2" />
<path d="M916,2789 L1017,2287" stroke="blue" stroke-width="2" />
<path d="M1204,1599 L3240,2634" stroke="blue" stroke-width="2" />
<path d="M1225,2633 L2801,1636" stroke="blue" stroke-width="2" />
<path d="M2000,1887 L2619,3664" stroke="blue" stroke-width="2" />
<path d="M1666,702 L3598,3036" stroke="blue" stroke-width="2" />
<path d="M1350,2538 L3315,1859" stroke="blue" stroke-width="2" />
<path d="M717,1086 L2382,2088" stroke="blue" stroke-width="2" />
<path d="M2602,3432 L2994,2810" stroke="blue" stroke-width="2" />
<path d="M1444,305 L1043,876" stroke="blue" stroke-width="2" />
<path d="M1299,332 L1121,1993" stroke="blue" stroke-width="2" />
<path d="M834,964 L3185,2615" stroke="blue" stroke-width="2" />
<path d="M999,1615 L1192,2583" stroke="blue" stroke-width="2" />
<path d="M3259,3255 L1569,3746" stroke="blue" stroke-width="2" />
<path d="M2032,938 L933,613" stroke="blue" stroke-width="2" />
<path d="M3489,2380 L1526,2218" stroke="blue" stroke-width="2" />
<path d="M2916,1653 L1583,1932" stroke="blue" stroke-width="2" />
<path d="M675,607 L486,1778" stroke="blue" stroke-width="2" />
<path d="M3532,2584 L1147,2875" stroke="blue" stroke-width="2" />
<path d="M2849,513 L3456,2936" stroke="blue" stroke-width="2" />
<path d="M2683,46 L1312,4059" stroke="blue" stroke-width="2" />
<path d="M1273,3268 L2684,3275" stroke="blue" stroke-width="2" />
<path d="M3343,2637 L65,3767" stroke="blue" stroke-width="2" />
<path d="M602,1156 L1860,3036" stroke="blue" stroke-width="2" />
<path d="M1312,1636 L2445,1239" stroke="blue" stroke-width="2" />
<path d="M1936,2396 L1298,961" stroke="blue" stroke-width="2" />
<path d="M928,307 L1876,1545" stroke="blue" stroke-width="2" />
<path d="M602,649 L1228,1446" stroke="blue" stroke-width="2" />
<path d="M2135,3228 L1488,667" stroke="blue" stroke-width="2" />
<path d="M2971,1031 L1145,2645" stroke="blue" stroke-width="2" />
<path d="M1824,1156 L2158,3871" stroke="blue" stroke-width="2" />
<path d="M3180,3167 L923,1210" stroke="blue" stroke-width="2" />
<path d="M1283,919 L1934,699" stroke="blue" stroke-width="2" />
<path d="M1923,3290 L535,347" stroke="blue" stroke-width="2" />
<path d="M218,3159 L3159,1713" stroke="blue" stroke-width="2" />
<path d="M1876,2891 L435,2677" stroke="blue" stroke-width="2" />
<path d="M606,473 L2520,1090" stroke="blue" stroke-width="2" />
<path d="M1365,4242 L359,3689" stroke="blue" stroke-width="2" />
<path d="M110,126 L713,1340" stroke="blue" stroke-width="2" />
<path d="M1160,3267 L1432,2868" stroke="blue" stroke-width="2" />
<path d="M2003,3751 L999,2608" stroke="blue" stroke-width="2" />
<path d="M2973,192 L3042,1462" stroke="blue" stroke-width="2" />
<path d="M1640,3240 L3161,1536" stroke="blue" stroke-width="2" />
<path d="M1884,1513 L1160,2738" stroke="blue" stroke-width="2" />
<path d="M3047,1731 L164,2790" stroke="blue" stroke-width="2" />
<path d="M1995,3943 L2527,3816" stroke="blue" stroke-width="2" />
<path d="M114,2560 L2890,2534" stroke="blue" stroke-width="2" />
<path d="M326,3731 L1781,4129" stroke="blue" stroke-width="2" />
<path d="M920,2735 L512,3615" stroke="blue" stroke-width="2" />
<path d="M3436,209 L2386,1475" stroke="blue" stroke-width="2" />
<path d="M1204,1019 L2633,1175" stroke="blue" stroke-width="2" />
<path d="M1728,1767 L1113,4033" stroke="blue" stroke-width="2" />
<path d="M3233,3889 L2000,3722" stroke="blue" stroke-width="2" />
<path d="M1882,3001 L1134,2390" stroke="blue" stroke-width="2" />
<path d="M3155,1531 L138,1276" stroke="blue" stroke-width="2" />
<path d="M624,2151 L1202,14" stroke="blue" stroke-width="2" />
<path d="M176,3328 L2067,608" stroke="blue" stroke-width="2" />
<path d="M1999,964 L1639,2611" stroke="blue" stroke-width="2" />
<path d="M275,3862 L1862,1087" stroke="blue" stroke-width="2" />
<path d="M1767,2101 L2636,1113" stroke="blue" stroke-width="2" />
<path d="M1164,2447 L610,1837" stroke="blue" stroke-width="2" />
<path d="M2953,2785 L1681,3120" stroke="blue" stroke-width="2" />
<path d="M3575,3076 L2703,1768" stroke="blue" stroke-width="2" />
<path d="M1684,1729 L2220,436" stroke="blue" stroke-width="2" />
<path d="M2017,67 L2049,119" stroke="blue" stroke-width="2" />
<path d="M278,1877 L1300,3585" stroke="blue" stroke-width="2" />
<path d="M1840,30 L3027,2756" stroke="blue" stroke-width="2" />
<path d="M1688,2875 L3445,78" stroke="blue" stroke-width="2" />
<path d="M2875,3125 L248,3977" stroke="blue" stroke-width="2" />
<path d="M3203,1719 L1535,2640" stroke="blue" stroke-width="2" />
<path d="M3330,3536 L2125,722" stroke="blue" stroke-width="2" />
<path d="M1479,2225 L416,3866" stroke="blue" stroke-width="2" />
<path d="M1269,1564 L687,2262" stroke="blue" stroke-width="2" />
<path d="M1998,3620 L2228,1214" stroke="blue" stroke-width="2" />
<path d="M3640,2115 L3173,2524" stroke="blue" stroke-width="2" />
<path d="M3019,914 L3498,60" stroke="blue" stroke-width="2" />
<path d="M1197,3427 L847,2575" stroke="blue" stroke-width="2" />
<path d="M96,1170 L82,2207" stroke="blue" stroke-width="2" />
<path d="M368,2057 L3573,3758" stroke="blue" stroke-width="2" />
<path d="M1078,2848 L822,3356" stroke="blue" stroke-width="2" />
<path d="M2948,2340 L3509,1997" stroke="blue" stroke-width="2" />
<path d="M82,1325 L1829,3315" stroke="blue" stroke-width="2" />
<path d="M1534,4050 L2333,1493" stroke="blue" stroke-width="2" />
<path d="M1622,521 L633,2187" stroke="blue" stroke-width="2" />
<path d="M946,3076 L1097,1230" stroke="blue" stroke-width="2" />
<path d="M2873,3502 L189,2285" stroke="blue" stroke-width="2" />
<path d="M3147,1028 L3415,1838" stroke="blue" stroke-width="2" />
<path d="M1593,3894 L3248,464" stroke="blue" stroke-width="2" />
<path d="M522,4082 L2763,3321" stroke="blue" stroke-width="2" />
<path d="M822,3429 L1903,3833" stroke="blue" stroke-width="2" />
<path d="M1259,1530 L1073,869" stroke="blue" stroke-width="2" />
<path d="M1021,3678 L1493,337" stroke="blue" stroke-width="2" />
<path d="M1894,2214 L2682,3727" stroke="blue" stroke-width="2" />
<path d="M3488,894 L1141,2267" stroke="blue" stroke-width="2" />
<path d="M1809,2830 L1653,2940" stroke="blue" stroke-width="2" />
<path d="M2355,3670 L1132,3848" stroke="blue" stroke-width="2" />
<path d="M910,3244 L155,3379" stroke="blue" stroke-width="2" />
<path d="M2009,416 L542,3516" stroke="blue" stroke-width="2" />
<path d="M1647,2630 L1827,2755" stroke="blue" stroke-width="2" />
<path d="M3260,1766 L3647,4276" stroke="blue" stroke-width="2" />
<path d="M2967,1631 L3365,4135" stroke="blue" stroke-width="2" />
<path d="M3139,2913 L2861,2390" stroke="blue" stroke-width="2" />
<path d="M539,2496 L2911,2196" stroke="blue" stroke-width="2" />
<path d="M2585,1594 L3562,2537" stroke="blue" stroke-width="2" />
<path d="M989,1937 L3279,2140" stroke="blue" stroke-width="2" />
<path d="M2084,2555 L1781,3694" stroke="blue" stroke-width="2" />
<path d="M1087,2195 L3514,3566" stroke="blue" stroke-width="2" />
<path d="M2959,847 L3033,3645" stroke="blue" stroke-width="2" />
<path d="M637,1449 L2693,2180" stroke="blue" stroke-width="2" />
<path d="M245,1683 L822,1878" stroke="blue" stroke-width="2" />
<path d="M1086,2491 L1021,4213" stroke="blue" stroke-width="2" />
<path d="M1095,998 L1371,515" stroke="blue" stroke-width="2" />
<path d="M1491,987 L2043,985" stroke="blue" stroke-width="2" />
<path d="M2767,1472 L3609,2211" stroke="blue" stroke-width="2" />
<path d="M2292,265 L381,1497" stroke="blue" stroke-width="2" />
<path d="M1397,599 L2919,645" stroke="blue" stroke-width="2" />
<path d="M2148,1602 L2528,1642" stroke="blue" stroke-width="2" />
<path d="M2274,0 L146,1631" stroke="blue" stroke-width="2" />
<path d="M808,336 L2822,892" stroke="blue" stroke-width="2" />
<path d="M2398,4148 L1494,2955" stroke="blue" stroke-width="2" />
<path d="M2275,2839 L1936,3208" stroke="blue" stroke-width="2" />
<path d="M569,2331 L1114,1742" stroke="blue" stroke-width="2" />
<path d="M241,1246 L1353,2180" stroke="blue" stroke-width="2" />
<path d="M709,4184 L3167,1993" stroke="blue" stroke-width="2" />
<path d="M2767,1742 L1566,1948" stroke="blue" stroke-width="2" />
<path d="M57,3648 L2074,2597" stroke="blue" stroke-width="2" />
<path d="M1627,1573 L2092,2748" stroke="blue" stroke-width="2" />
<path d="M859,219 L895,438" stroke="blue" stroke-width="2" />
<path d="M1225,2262 L1749,3460" stroke="blue" stroke-width="2" />
<path d="M1795,1389 L3096,68" stroke="blue" stroke-width="2" />
<path d="M3593,1632 L3596,4080" stroke="blue" stroke-width="2" />
<path d="M2829,2553 L92,3145" stroke="blue" stroke-width="2" />
<path d="M2160,3420 L2010,2594" stroke="blue" stroke-width="2" />
<path d="M854,1194 L2466,2959" stroke="blue" stroke-width="2" />
<path d="M3034,4262 L660,2278" stroke="blue" stroke-width="2" />
<path d="M3276,453 L2658,134" stroke="blue" stroke-width="2" />
<path d="M2075,985 L764,2166" stroke="blue" stroke-width="2" />
<path d="M3612,2731 L174,1117" stroke="blue" stroke-width="2" />
<path d="M1649,162 L3609,2306" stroke="blue" stroke-width="2" />
<path d="M2370,618 L2797,2581" stroke="blue" stroke-width="2" />
<path d="M1432,3622 L2048,3774" stroke="blue" stroke-width="2" />
<path d="M2414,173 L997,2370" stroke="blue" stroke-width="2" />
<path d="M907,2290 L78,3302" stroke="blue" stroke-width="2" />
<path d="M1925,935 L1475,797" stroke="blue" stroke-width="2" />
<path d="M2978,3700 L1032,2748" stroke="blue" stroke-width="2" />
<path d="M1403,1538 L718,3943" stroke="blue" stroke-width="2" />
<path d="M323,3198 L2019,3299" stroke="blue" stroke-width="2" />
<path d="M1443,766 L3063,3354" stroke="blue" stroke-width="2" />
<path d="M1715,1187 L1028,1805" stroke="blue" stroke-width="2" />
<path d="M783,2378 L3286,268" stroke="blue" stroke-width="2" />
<path d="M1897,203 L1234,1448" stroke="blue" stroke-width="2" />
<path d="M1970,3984 L252,3111" stroke="blue" stroke-width="2" />
<path d="M252,243 L1472,83" stroke="blue" stroke-width="2" />
<path d="M39,1361 L2452,1281" stroke="blue" stroke-width="2" />
<path d="M2364,1338 L1238,2865" stroke="blue" stroke-width="2" />
<path d="M785,1678 L1548,3188" stroke="blue" stroke-width="2" />
<path d="M1963,2092 L1696,3390" stroke="blue" stroke-width="2" />
<path d="M1858,3336 L3216,2798" stroke="blue" stroke-width="2" />
<path d="M3027,1083 L1520,1664" stroke="blue" stroke-width="2" />
<path d="M3234,526 L847,3194" stroke="blue" stroke-width="2" />
<path d="M1240,1866 L2306,1882" stroke="blue" stroke-width="2" />
<path d="M1675,3576 L2905,4197" stroke="blue" stroke-width="2" />
<path d="M2878,4169 L3062,4119" stroke="blue" stroke-width="2" />
<path d="M2290,4080 L1863,3481" stroke="blue" stroke-width="2" />
<path d="M3626,1144 L643,2221" stroke="blue" stroke-width="2" />
<path d="M1667,1196 L477,1731" stroke="blue" stroke-width="2" />
<path d="M1142,2457 L1033,1582" stroke="blue" stroke-width="2" />
<path d="M3393,3524 L1577,3631" stroke="blue" stroke-width="2" />
<path d="M579,217 L1867,1133" stroke="blue" stroke-width="2" />
<path d="M3328,552 L1784,2768" stroke="blue" stroke-width="2" />
<path d="M2378,2244 L329,1939" stroke="blue" stroke-width="2" />
<path d="M547,1518 L1412,3455" stroke="blue" stroke-width="2" />
<path d="M880,3954 L2161,925" stroke="blue" stroke-width="2" />
<path d="M1221,2766 L42,3286" stroke="blue" stroke-width="2" />
<path d="M1266,1751 L672,1273" stroke="blue" stroke-width="2" />
<path d="M461,4046 L347,3762" stroke="blue" stroke-width="2" />
<path d="M3407,3941 L2736,495" stroke="blue" stroke-width="2" />
<path d="M652,2192 L86,2996" stroke="blue" stroke-width="2" />
<path d="M2192,424 L627,1158" stroke="blue" stroke-width="2" />
<path d="M3608,99 L1864,2597" stroke="blue" stroke-width="2" />
<path d="M881,3512 L2487,160" stroke="blue" stroke-width="2" />
<path d="M2668,1642 L2672,4187" stroke="blue" stroke-width="2" />
<path d="M82,4275 L1107,217" stroke="blue" stroke-width="2" />
<path d="M2320,3300 L2859,1674" stroke="blue" stroke-width="2" />
<path d="M1201,1957 L1019,1065" stroke="blue" stroke-width="2" />
<path d="M3331,809 L1247,796" stroke="blue" stroke-width="2" />
<path d="M3046,2397 L2232,3549" stroke="blue" stroke-width="2" />
<path d="M347,289 L3371,3822" stroke="blue" stroke-width="2" />
<path d="M3283,1290 L3227,405" stroke="blue" stroke-width="2" />
<path d="M3128,3038 L3506,407" stroke="blue" stroke-width="2" />
<path d="M2136,313 L536,1037" stroke="blue" stroke-width="2" />
<path d="M2211,1188 L533,910" stroke="blue" stroke-width="2" />
<path d="M2738,3854 L1440,131" stroke="blue" stroke-width="2" />
<path d="M1063,1839 L2824,2040" stroke="blue" stroke-width="2" />
<path d="M845,2509 L1264,2245" stroke="blue" stroke-width="2" />
<path d="M2341,3968 L838,4166" stroke="blue" stroke-width="2" />
<path d="M2552,2581 L359,105" stroke="blue" stroke-width="2" />
<path d="M234,561 L3471,3610" stroke="blue" stroke-width="2" />
<path d="M2901,416 L2978,4204" stroke="blue" stroke-width="2" />
<path d="M3268,2382 L3652,406" stroke="blue" stroke-width="2" />
<path d="M1446,120 L1922,1823" stroke="blue" stroke-width="2" />
<path d="M1980,3237 L1432,183" stroke="blue" stroke-width="2" />
<path d="M3262,3696 L1564,1605" stroke="blue" stroke-width="2" />
<path d="M2999,1789 L43,245" stroke="blue" stroke-width="2" />
<path d="M3533,1406 L1544,2649" stroke="blue" stroke-width="2" />
<path d="M2868,4269 L328,2426" stroke="blue" stroke-width="2" />
<path d="M1173,3856 L1451,1723" stroke="blue" stroke-width="2" />
<path d="M2164,919 L1363,447" stroke="blue" stroke-width="2" />
<path d="M3410,952 L3474,1668" stroke="blue" stroke-width="2" />
<path d="M2681,3787 L367,24" stroke="blue" stroke-width="2" />
<path d="M3606,483 L2712,2472" stroke="blue" stroke-width="2" />
<path d="M2195,737 L2602,4029" stroke="blue" stroke-width="2" />
<path d="M2526,3112 L608,2101" stroke="blue" stroke-width="2" />
<path d="M2693,1970 L1177,732" stroke="blue" stroke-width="2" />
<path d="M3489,67 L1655,350" stroke="blue" stroke-width="2" />
<path d="M487,3456 L1803,769" stroke="blue" stroke-width="2" />
<path d="M2891,1431 L1187,1319" stroke="blue" stroke-width="2" />
<path d="M0,0 L3658,0" stroke="red" stroke-width="10" />
<path d="M3658,0 L3658,4280" stroke="red" stroke-width="10" />
<path d="M0,4280 L3658,4280" stroke="red" stroke-width="10" />
<path d="M0,4280 L0,0" stroke="red" stroke-width="10" />
</svg>