<?xml version="1.0" encoding="UTF-8"?>
<svg xmlns="http://www.w3.org/2000/svg" xmlns:xlink="http://www.w3.org/1999/xlink"
     width="10000" height="10000" viewBox="0 0 10000 10000">
<defs>
</defs>
<path d="M2068,4697 L516,7538" stroke="blue" stroke-width="2" />
<path d="M3915,7611 L804,6843" stroke="blue" stroke-width="2" />
<path d="M555,9343 L4541,8654" stroke="blue" stroke-width="2" />
<path d="M4693,9784 L273,8752" stroke="blue" stroke-width="2" />
<path d="M3062,240 L1112,6420" stroke="blue" stroke-width="2" />
<path d="M4693,8537 L7873,334" stroke="blue" stroke-width="2" />
<path d="M6189,922 L7733,4396" stroke="blue" stroke-width="2" />
<path d="M3561,4572 L7633,7212" stroke="blue" stroke-width="2" />
<path d="M6807,6988 L5709,9818" stroke="blue" stroke-width="2" />
<path d="M1522,2089 L5665,7174" stroke="blue" stroke-width="2" />
<path d="M7855,7301 L4634,7658" stroke="blue" stroke-width="2" />
<path d="M6569,9122 L785,595" stroke="blue" stroke-width="2" />
<path d="M6116,8380 L5870,7407" stroke="blue" stroke-width="2" />
<path d="M5788,7787 L6253,9543" stroke="blue" stroke-width="2" />
<path d="M1386,8414 L4970,8259" stroke="blue" stroke-width="2" />
<path d="M5478,489 L3462,6792" stroke="blue" stroke-width="2" />
<path d="M2732,8436 L3233,4609" stroke="blue" stroke-width="2" />
<path d="M1260,8286 L4996,9210" stroke="blue" stroke-width="2" />
<path d="M1232,1763 L3651,6218" stroke="blue" stroke-width="2" />
<path d="M7289,4935 L678,8820" stroke="blue" stroke-width="2" />
<path d="M3128,9562 L4836,5288" stroke="blue" stroke-width="2" />
<path d="M4432,7069 L3544,5919" stroke="blue" stroke-width="2" />
<path d="M1191,5204 L3356,3518" stroke="blue" stroke-width="2" />
<path d="M7313,9275 L4843,2519" stroke="blue" stroke-width="2" />
<path d="M4000,8142 L1329,6734" stroke="blue" stroke-width="2" />
<path d="M206,5481 L5796,2391" stroke="blue" stroke-width="2" />
<path d="M2679,1128 L8077,3453" stroke="blue" stroke-width="2" />
<path d="M6342,4193 L5164,6131" stroke="blue" stroke-width="2" />
<path d="M3564,2836 L1498,6036" stroke="blue" stroke-width="2" />
<path d="M1327,9218 L79,3941" stroke="blue" stroke-width="2" />
<path d="M5891,4179 L1186,7888" stroke="blue" stroke-width="2" />
<path d="M6520,2042 L1577,9023" stroke="blue" stroke-width="2" />
<path d="M1194,5293 L724,9624" stroke="blue" stroke-width="2" />
<path d="M1758,6813 L1133,1702" stroke="blue" stroke-width="2" />
<path d="M6029,3209 L5738,2959" stroke="blue" stroke-width="2" />
<path d="M6936,8192 L417,1034" stroke="blue" stroke-width="2" />
<path d="M5886,7926 L7342,3296" stroke="blue" stroke-width="2" />
<path d="M6358,9309 L1189,9500" stroke="blue" stroke-width="2" />
<path d="M7327,5041 L1028,4636" stroke="blue" stroke-width="2" />
<path d="M6258,9797 L5761,9059" stroke="blue" stroke-width="2" />
<path d="M608,1263 L835,7698" stroke="blue" stroke-width="2" />
<path d="M7795,7974 L2535,4261" stroke="blue" stroke-width="2" />
<path d="M1992,1148 L7573,9761" stroke="blue" stroke-width="2" />
<path d="M6978,9252 L7218,5598" stroke="blue" stroke-width="2" />
<path d="M122,8784 L1583,1519" stroke="blue" stroke-width="2" />
<path d="M6047,7659 L1092,2334" stroke="blue" stroke-width="2" />
<path d="M2778,9288 L4316,9567" stroke="blue" stroke-width="2" />
<path d="M7442,2373 L6007,6706" stroke="blue" stroke-width="2" />
<path d="M910,1819 L7509,9297" stroke="blue" stroke-width="2" />
<path d="M2134,6174 L1471,6847" stroke="blue" stroke-width="2" />
<path d="M1102,6360 L2818,9344" stroke="blue" stroke-width="2" />
<path d="M5666,7579 L2675,8485" stroke="blue" stroke-width="2" />
<path d="M8019,2622 L2514,9721" stroke="blue" stroke-width="2" />
<path d="M3558,5048 L5141,5407" stroke="blue" stroke-width="2" />
<path d="M3694,3744 L5446,8277" stroke="blue" stroke-width="2" />
<path d="M5847,6552 L2422,4468" stroke="blue" stroke-width="2" />
<path d="M5129,9247 L3753,9747" stroke="blue" stroke-width="2" />
<path d="M7378,9184 L5295,6235" stroke="blue" stroke-width="2" />
<path d="M6867,7545 L3686,79" stroke="blue" stroke-width="2" />
<path d="M967,8122 L1427,5528" stroke="blue" stroke-width="2" />
<path d="M2267,6024 L7512,8125" stroke="blue" stroke-width="2" />
<path d="M6098,3505 L8108,1406" stroke="blue" stroke-width="2" />
<path d="M6750,9509 L4288,2815" stroke="blue" stroke-width="2" />
<path d="M5303,6935 L5176,1512" stroke="blue" stroke-width="2" />
<path d="M6352,1075 L5008,7473" stroke="blue" stroke-width="2" />
<path d="M1312,5975 L1076,9175" stroke="blue" stroke-width="2" />
<path d="M2687,5126 L538,7449" stroke="blue" stroke-width="2" />
<path d="M7438,7168 L1377,988" stroke="blue" stroke-width="2" />
<path d="M5556,3538 L6721,1070" stroke="blue" stroke-width="2" />
<path d="M5129,8891 L1510,3443" stroke="blue" stroke-width="2" />
<path d="M3913,591 L3591,4677" stroke="blue" stroke-width="2" />
<path d="M903,2739 L4801,2069" stroke="blue" stroke-width="2" />
<path d="M2335,6091 L1290,650" stroke="blue" stroke-width="2" />
<path d="M6532,458 L7730,7551" stroke="blue" stroke-width="2" />
<path d="M2220,8064 L7787,6106" stroke="blue" stroke-width="2" />
<path d="M5245,4540 L817,3085" stroke="blue" stroke-width="2" />
<path d="M4480,5788 L6192,2067" stroke="blue" stroke-width="2" />
<path d="M2744,8570 L1127,7956" stroke="blue" stroke-width="2" />
<path d="M2921,2978 L3198,7473" stroke="blue" stroke-width="2" />
<path d="M3576,6277 L4334,8043" stroke="blue" stroke-width="2" />
<path d="M6256,7687 L1289,5673" stroke="blue" stroke-width="2" />
<path d="M0,0 L8153,0" stroke="red" stroke-width="10" />
<path d="M8153,0 L8153,9825" stroke="red" stroke-width="10" />
<path d="M0,9825 L8153,9825" stroke="red" stroke-width="10" />
<path d="M0,9825 L0,0" stroke="red" stroke-width="10" />
</svg>