<?xml version="1.0" encoding="UTF-8"?>
<svg xmlns="http://www.w3.org/2000/svg" xmlns:xlink="http://www.w3.org/1999/xlink"
     width="10000" height="10000" viewBox="0 0 10000 10000">
<defs>
</defs>
<path d="M1049,4840 L2449,2934" stroke="blue" stroke-width="2" />
<path d="M2622,3538 L2663,916" stroke="blue" stroke-width="2" />
<path d="M3522,3109 L1994,3532" stroke="blue" stroke-width="2" />
<path d="M1829,3661 L218,5048" stroke="blue" stroke-width="2" />
<path d="M2443,1124 L536,177" stroke="blue" stroke-width="2" />
<path d="M3425,2025 L3636,2672" stroke="blue" stroke-width="2" />
<path d="M1372,345 L1285,2433" stroke="blue" stroke-width="2" />
<path d="M1670,2368 L2470,1659" stroke="blue" stroke-width="2" />
<path d="M4746,2428 L4306,4350" stroke="blue" stroke-width="2" />
<path d="M4640,2982 L327,2659" stroke="blue" stroke-width="2" />
<path d="M4566,551 L2440,4972" stroke="blue" stroke-width="2" />
<path d="M3662,4724 L2917,415" stroke="blue" stroke-width="2" />
<path d="M1117,2194 L3152,1530" stroke="blue" stroke-width="2" />
<path d="M1245,3199 L1582,1104" stroke="blue" stroke-width="2" />
<path d="M651,4178 L1397,3123" stroke="blue" stroke-width="2" />
<path d="M4453,865 L2334,4466" stroke="blue" stroke-width="2" />
<path d="M2411,935 L4215,3006" stroke="blue" stroke-width="2" />
<path d="M2846,2465 L4693,5053" stroke="blue" stroke-width="2" />
<path d="M666,384 L4812,3698" stroke="blue" stroke-width="2" />
<path d="M2354,4807 L4872,4573" stroke="blue" stroke-width="2" />
<path d="M815,3470 L2668,987" stroke="blue" stroke-width="2" />
<path d="M2945,2337 L3642,3117" stroke="blue" stroke-width="2" />
<path d="M468,2649 L4054,4329" stroke="blue" stroke-width="2" />
<path d="M3373,3542 L3437,3379" stroke="blue" stroke-width="2" />
<path d="M3307,2613 L578,2508" stroke="blue" stroke-width="2" />
<path d="M4382,4019 L996,4244" stroke="blue" stroke-width="2" />
<path d="M634,4811 L3182,3549" stroke="blue" stroke-width="2" />
<path d="M1664,4623 L3876,3991" stroke="blue" stroke-width="2" />
<path d="M3445,1023 L2869,3286" stroke="blue" stroke-width="2" />
<path d="M2916,576 L1763,812" stroke="blue" stroke-width="2" />
<path d="M2452,2476 L2871,739" stroke="blue" stroke-width="2" />
<path d="M2162,4390 L4003,1260" stroke="blue" stroke-width="2" />
<path d="M3083,4048 L4853,3729" stroke="blue" stroke-width="2" />
<path d="M556,2698 L3493,3341" stroke="blue" stroke-width="2" />
<path d="M432,4031 L968,4504" stroke="blue" stroke-width="2" />
<path d="M2244,2217 L2937,3202" stroke="blue" stroke-width="2" />
<path d="M3897,179 L997,1424" stroke="blue" stroke-width="2" />
<path d="M1120,4518 L2198,109" stroke="blue" stroke-width="2" />
<path d="M1339,4894 L3319,1338" stroke="blue" stroke-width="2" />
<path d="M2982,966 L2231,169" stroke="blue" stroke-width="2" />
<path d="M2147,4963 L2812,1895" stroke="blue" stroke-width="2" />
<path d="M16,4073 L2176,2930" stroke="blue" stroke-width="2" />
<path d="M3971,4444 L3301,1493" stroke="blue" stroke-width="2" />
<path d="M4241,220 L4565,668" stroke="blue" stroke-width="2" />
<path d="M4808,2786 L292,2227" stroke="blue" stroke-width="2" />
<path d="M1126,537 L4369,2164" stroke="blue" stroke-width="2" />
<path d="M2151,2245 L2252,1779" stroke="blue" stroke-width="2" />
<path d="M2613,2071 L3771,598" stroke="blue" stroke-width="2" />
<path d="M2862,2384 L1902,2735" stroke="blue" stroke-width="2" />
<path d="M2635,1403 L2987,4961" stroke="blue" stroke-width="2" />
<path d="M4649,3488 L1498,5133" stroke="blue" stroke-width="2" />
<path d="M2769,3864 L1706,4473" stroke="blue" stroke-width="2" />
<path d="M3885,2759 L1220,2847" stroke="blue" stroke-width="2" />
<path d="M2927,3309 L3608,4627" stroke="blue" stroke-width="2" />
<path d="M2783,983 L2836,630" stroke="blue" stroke-width="2" />
<path d="M2139,1977 L1146,4947" stroke="blue" stroke-width="2" />
<path d="M3490,4833 L75,15" stroke="blue" stroke-width="2" />
<path d="M1437,3503 L2332,2871" stroke="blue" stroke-width="2" />
<path d="M3280,4046 L2006,455" stroke="blue" stroke-width="2" />
<path d="M79,4347 L3238,2057" stroke="blue" stroke-width="2" />
<path d="M2262,2082 L3563,2270" stroke="blue" stroke-width="2" />
<path d="M3394,244 L3614,1315" stroke="blue" stroke-width="2" />
<path d="M1841,4225 L3323,4935" stroke="blue" stroke-width="2" />
<path d="M2743,3157 L1481,1630" stroke="blue" stroke-width="2" />
<path d="M3386,2622 L220,277" stroke="blue" stroke-width="2" />
<path d="M2822,3774 L2868,4782" stroke="blue" stroke-width="2" />
<path d="M2284,1411 L2249,1022" stroke="blue" stroke-width="2" />
<path d="M4143,2142 L1054,477" stroke="blue" stroke-width="2" />
<path d="M4603,2639 L3111,2692" stroke="blue" stroke-width="2" />
<path d="M1710,2107 L4093,2225" stroke="blue" stroke-width="2" />
<path d="M2493,3534 L499,3556" stroke="blue" stroke-width="2" />
<path d="M4634,2970 L2846,3243" stroke="blue" stroke-width="2" />
<path d="M2681,25 L4690,1191" stroke="blue" stroke-width="2" />
<path d="M2702,3366 L4306,4734" stroke="blue" stroke-width="2" />
<path d="M1694,1087 L4062,1024" stroke="blue" stroke-width="2" />
<path d="M3275,3909 L4407,4581" stroke="blue" stroke-width="2" />
<path d="M4321,830 L1953,3442" stroke="blue" stroke-width="2" />
<path d="M3133,3871 L4181,2368" stroke="blue" stroke-width="2" />
<path d="M3082,3849 L1108,2817" stroke="blue" stroke-width="2" />
<path d="M4418,4939 L1489,317" stroke="blue" stroke-width="2" />
<path d="M4828,2348 L2851,1856" stroke="blue" stroke-width="2" />
<path d="M279,2031 L2254,1276" stroke="blue" stroke-width="2" />
<path d="M4015,2441 L73,3769" stroke="blue" stroke-width="2" />
<path d="M4359,2515 L3967,4994" stroke="blue" stroke-width="2" />
<path d="M4346,2537 L4092,4684" stroke="blue" stroke-width="2" />
<path d="M4649,5010 L366,1589" stroke="blue" stroke-width="2" />
<path d="M2215,117 L340,2293" stroke="blue" stroke-width="2" />
<path d="M4141,3416 L4924,2544" stroke="blue" stroke-width="2" />
<path d="M4473,3692 L3021,3958" stroke="blue" stroke-width="2" />
<path d="M2993,4746 L129,1441" stroke="blue" stroke-width="2" />
<path d="M1724,2306 L2909,3073" stroke="blue" stroke-width="2" />
<path d="M1471,149 L3838,3557" stroke="blue" stroke-width="2" />
<path d="M4322,3299 L2942,115" stroke="blue" stroke-width="2" />
<path d="M3388,4760 L343,4442" stroke="blue" stroke-width="2" />
<path d="M2563,4287 L265,1749" stroke="blue" stroke-width="2" />
<path d="M2701,2196 L313,3551" stroke="blue" stroke-width="2" />
<path d="M3809,2406 L3820,3802" stroke="blue" stroke-width="2" />
<path d="M4563,1080 L3224,5154" stroke="blue" stroke-width="2" />
<path d="M3608,1380 L1115,2209" stroke="blue" stroke-width="2" />
<path d="M4014,3804 L379,967" stroke="blue" stroke-width="2" />
<path d="M1175,3346 L1584,2768" stroke="blue" stroke-width="2" />
<path d="M2188,2667 L158,2492" stroke="blue" stroke-width="2" />
<path d="M1696,2753 L4685,217" stroke="blue" stroke-width="2" />
<path d="M4768,3109 L1998,3289" stroke="blue" stroke-width="2" />
<path d="M653,2756 L1126,38" stroke="blue" stroke-width="2" />
<path d="M4564,3228 L2793,3754" stroke="blue" stroke-width="2" />
<path d="M3469,2909 L4903,1163" stroke="blue" stroke-width="2" />
<path d="M2059,4684 L4101,5109" stroke="blue" stroke-width="2" />
<path d="M1048,2685 L906,3357" stroke="blue" stroke-width="2" />
<path d="M1754,2789 L4241,3961" stroke="blue" stroke-width="2" />
<path d="M1681,3639 L2684,2657" stroke="blue" stroke-width="2" />
<path d="M2613,4535 L375,66" stroke="blue" stroke-width="2" />
<path d="M780,209 L4411,2612" stroke="blue" stroke-width="2" />
<path d="M421,679 L653,1352" stroke="blue" stroke-width="2" />
<path d="M177,1166 L3685,2959" stroke="blue" stroke-width="2" />
<path d="M51,943 L252,3070" stroke="blue" stroke-width="2" />
<path d="M3946,2445 L4707,3511" stroke="blue" stroke-width="2" />
<path d="M2526,1003 L1164,2876" stroke="blue" stroke-width="2" />
<path d="M4374,3726 L2636,3322" stroke="blue" stroke-width="2" />
<path d="M943,1310 L1596,4152" stroke="blue" stroke-width="2" />
<path d="M1327,4888 L4196,5092" stroke="blue" stroke-width="2" />
<path d="M522,430 L1045,1274" stroke="blue" stroke-width="2" />
<path d="M3143,1388 L3152,4833" stroke="blue" stroke-width="2" />
<path d="M3790,497 L358,3173" stroke="blue" stroke-width="2" />
<path d="M2304,3115 L1247,1751" stroke="blue" stroke-width="2" />
<path d="M1403,3036 L761,1050" stroke="blue" stroke-width="2" />
<path d="M4840,341 L3007,4513" stroke="blue" stroke-width="2" />
<path d="M3893,956 L3759,3030" stroke="blue" stroke-width="2" />
<path d="M181,163 L3469,2238" stroke="blue" stroke-width="2" />
<path d="M351,378 L78,1929" stroke="blue" stroke-width="2" />
<path d="M2340,304 L1659,4576" stroke="blue" stroke-width="2" />
<path d="M1470,1682 L1036,870" stroke="blue" stroke-width="2" />
<path d="M1945,3619 L1405,131" stroke="blue" stroke-width="2" />
<path d="M1488,831 L1193,3011" stroke="blue" stroke-width="2" />
<path d="M2617,1496 L3890,3997" stroke="blue" stroke-width="2" />
<path d="M1136,1940 L3475,1076" stroke="blue" stroke-width="2" />
<path d="M3961,4042 L1053,3221" stroke="blue" stroke-width="2" />
<path d="M407,1565 L2282,1833" stroke="blue" stroke-width="2" />
<path d="M3293,2205 L1489,4829" stroke="blue" stroke-width="2" />
<path d="M3159,4024 L3468,1502" stroke="blue" stroke-width="2" />
<path d="M3756,2106 L4768,2233" stroke="blue" stroke-width="2" />
<path d="M2876,94 L569,3237" stroke="blue" stroke-width="2" />
<path d="M998,1680 L2688,1767" stroke="blue" stroke-width="2" />
<path d="M4210,3807 L1910,636" stroke="blue" stroke-width="2" />
<path d="M2848,169 L2921,3473" stroke="blue" stroke-width="2" />
<path d="M3756,3445 L3741,876" stroke="blue" stroke-width="2" />
<path d="M2305,1358 L648,249" stroke="blue" stroke-width="2" />
<path d="M3779,2468 L486,2430" stroke="blue" stroke-width="2" />
<path d="M40,4059 L1374,3006" stroke="blue" stroke-width="2" />
<path d="M2423,1347 L335,2354" stroke="blue" stroke-width="2" />
<path d="M3003,2308 L2567,669" stroke="blue" stroke-width="2" />
<path d="M3819,185 L1468,1485" stroke="blue" stroke-width="2" />
<path d="M908,2551 L1246,4122" stroke="blue" stroke-width="2" />
<path d="M2577,4189 L4501,788" stroke="blue" stroke-width="2" />
<path d="M1772,4711 L3018,4612" stroke="blue" stroke-width="2" />
<path d="M1014,3532 L120,1672" stroke="blue" stroke-width="2" />
<path d="M3655,4763 L2562,4489" stroke="blue" stroke-width="2" />
<path d="M3067,2193 L1393,3182" stroke="blue" stroke-width="2" />
<path d="M4799,81 L3039,1627" stroke="blue" stroke-width="2" />
<path d="M618,3867 L3093,429" stroke="blue" stroke-width="2" />
<path d="M712,2478 L2687,4581" stroke="blue" stroke-width="2" />
<path d="M1083,4494 L2250,2862" stroke="blue" stroke-width="2" />
<path d="M4735,1850 L2568,2320" stroke="blue" stroke-width="2" />
<path d="M876,4427 L3574,863" stroke="blue" stroke-width="2" />
<path d="M3475,485 L2851,5153" stroke="blue" stroke-width="2" />
<path d="M3010,4883 L2302,493" stroke="blue" stroke-width="2" />
<path d="M3518,236 L36,4127" stroke="blue" stroke-width="2" />
<path d="M2514,5166 L1878,3691" stroke="blue" stroke-width="2" />
<path d="M3253,2594 L3951,2263" stroke="blue" stroke-width="2" />
<path d="M772,2172 L150,2869" stroke="blue" stroke-width="2" />
<path d="M153,1824 L4135,1021" stroke="blue" stroke-width="2" />
<path d="M2413,1550 L1508,1817" stroke="blue" stroke-width="2" />
<path d="M114,1818 L517,3367" stroke="blue" stroke-width="2" />
<path d="M3191,1425 L4678,464" stroke="blue" stroke-width="2" />
<path d="M1403,362 L3475,3533" stroke="blue" stroke-width="2" />
<path d="M1614,3962 L3639,2166" stroke="blue" stroke-width="2" />
<path d="M147,1546 L3145,2336" stroke="blue" stroke-width="2" />
<path d="M3867,398 L4422,618" stroke="blue" stroke-width="2" />
<path d="M4423,4564 L2176,2207" stroke="blue" stroke-width="2" />
<path d="M3593,2604 L2944,1930" stroke="blue" stroke-width="2" />
<path d="M3895,1908 L2807,3479" stroke="blue" stroke-width="2" />
<path d="M3712,4486 L3673,1120" stroke="blue" stroke-width="2" />
<path d="M497,2533 L4031,1868" stroke="blue" stroke-width="2" />
<path d="M403,3793 L354,3637" stroke="blue" stroke-width="2" />
<path d="M3504,720 L4502,902" stroke="blue" stroke-width="2" />
<path d="M1743,3738 L3016,3439" stroke="blue" stroke-width="2" />
<path d="M2706,2666 L2612,3667" stroke="blue" stroke-width="2" />
<path d="M492,3195 L2288,670" stroke="blue" stroke-width="2" />
<path d="M496,2756 L3332,1454" stroke="blue" stroke-width="2" />
<path d="M1049,4254 L773,4263" stroke="blue" stroke-width="2" />
<path d="M4470,4654 L3482,2843" stroke="blue" stroke-width="2" />
<path d="M3677,1726 L2661,189" stroke="blue" stroke-width="2" />
<path d="M1643,1377 L325,2369" stroke="blue" stroke-width="2" />
<path d="M2806,4078 L3473,821" stroke="blue" stroke-width="2" />
<path d="M957,689 L4547,1149" stroke="blue" stroke-width="2" />
<path d="M3394,2593 L1024,3253" stroke="blue" stroke-width="2" />
<path d="M2537,1650 L2481,4521" stroke="blue" stroke-width="2" />
<path d="M2755,1012 L2536,1458" stroke="blue" stroke-width="2" />
<path d="M3881,114 L3724,2581" stroke="blue" stroke-width="2" />
<path d="M3649,2977 L2639,1445" stroke="blue" stroke-width="2" />
<path d="M537,4035 L2841,2480" stroke="blue" stroke-width="2" />
<path d="M4877,2700 L2441,1795" stroke="blue" stroke-width="2" />
<path d="M689,3444 L163,236" stroke="blue" stroke-width="2" />
<path d="M3421,4168 L4169,2931" stroke="blue" stroke-width="2" />
<path d="M463,2337 L3207,2689" stroke="blue" stroke-width="2" />
<path d="M3529,3782 L3447,4103" stroke="blue" stroke-width="2" />
<path d="M1689,4687 L2984,166" stroke="blue" stroke-width="2" />
<path d="M2671,4152 L3928,1713" stroke="blue" stroke-width="2" />
<path d="M3909,1003 L4840,2419" stroke="blue" stroke-width="2" />
<path d="M3481,4851 L4914,1889" stroke="blue" stroke-width="2" />
<path d="M1340,1827 L2803,1155" stroke="blue" stroke-width="2" />
<path d="M1319,1739 L675,2966" stroke="blue" stroke-width="2" />
<path d="M2594,2222 L1022,3845" stroke="blue" stroke-width="2" />
<path d="M1476,3620 L3143,1175" stroke="blue" stroke-width="2" />
<path d="M249,4314 L1037,2" stroke="blue" stroke-width="2" />
<path d="M2127,498 L40,2702" stroke="blue" stroke-width="2" />
<path d="M1421,1042 L1960,2252" stroke="blue" stroke-width="2" />
<path d="M148,3396 L2258,236" stroke="blue" stroke-width="2" />
<path d="M142,3754 L2420,2846" stroke="blue" stroke-width="2" />
<path d="M3259,2305 L1965,2819" stroke="blue" stroke-width="2" />
<path d="M4906,4641 L239,1833" stroke="blue" stroke-width="2" />
<path d="M2662,5172 L747,1399" stroke="blue" stroke-width="2" />
<path d="M2764,597 L1732,1769" stroke="blue" stroke-width="2" />
<path d="M1931,1727 L2057,2302" stroke="blue" stroke-width="2" />
<path d="M688,1210 L4498,3720" stroke="blue" stroke-width="2" />
<path d="M2279,1110 L2486,3589" stroke="blue" stroke-width="2" />
<path d="M3152,3161 L4191,1558" stroke="blue" stroke-width="2" />
<path d="M1220,2488 L4936,1788" stroke="blue" stroke-width="2" />
<path d="M4467,4484 L3191,1433" stroke="blue" stroke-width="2" />
<path d="M3939,2378 L1501,3514" stroke="blue" stroke-width="2" />
<path d="M3128,1879 L4340,4215" stroke="blue" stroke-width="2" />
<path d="M4845,807 L929,200" stroke="blue" stroke-width="2" />
<path d="M781,1971 L1174,81" stroke="blue" stroke-width="2" />
<path d="M2871,3823 L2030,1725" stroke="blue" stroke-width="2" />
<path d="M3286,317 L4049,1689" stroke="blue" stroke-width="2" />
<path d="M3913,1521 L4156,179" stroke="blue" stroke-width="2" />
<path d="M249,3863 L1436,2887" stroke="blue" stroke-width="2" />
<path d="M4041,2046 L613,3538" stroke="blue" stroke-width="2" />
<path d="M131,3670 L3336,3801" stroke="blue" stroke-width="2" />
<path d="M2211,2288 L3522,3338" stroke="blue" stroke-width="2" />
<path d="M3007,3896 L2432,4074" stroke="blue" stroke-width="2" />
<path d="M4642,2501 L433,4516" stroke="blue" stroke-width="2" />
<path d="M3616,4503 L4718,5038" stroke="blue" stroke-width="2" />
<path d="M615,1948 L1522,3766" stroke="blue" stroke-width="2" />
<path d="M429,4570 L1766,3520" stroke="blue" stroke-width="2" />
<path d="M167,2985 L198,4362" stroke="blue" stroke-width="2" />
<path d="M4555,2733 L448,3694" stroke="blue" stroke-width="2" />
<path d="M3943,679 L1433,2813" stroke="blue" stroke-width="2" />
<path d="M1764,951 L2851,1467" stroke="blue" stroke-width="2" />
<path d="M4127,2559 L3153,3573" stroke="blue" stroke-width="2" />
<path d="M2336,3983 L2771,1130" stroke="blue" stroke-width="2" />
<path d="M1960,51 L423,1859" stroke="blue" stroke-width="2" />
<path d="M845,841 L508,887" stroke="blue" stroke-width="2" />
<path d="M206,1151 L3288,4774" stroke="blue" stroke-width="2" />
<path d="M4730,4006 L3027,1098" stroke="blue" stroke-width="2" />
<path d="M3693,3473 L4652,1029" stroke="blue" stroke-width="2" />
<path d="M1307,4185 L3473,2409" stroke="blue" stroke-width="2" />
<path d="M282,300 L297,3763" stroke="blue" stroke-width="2" />
<path d="M4231,3547 L3112,2257" stroke="blue" stroke-width="2" />
<path d="M4882,3529 L3993,2109" stroke="blue" stroke-width="2" />
<path d="M4609,5090 L756,3486" stroke="blue" stroke-width="2" />
<path d="M1555,1481 L822,3832" stroke="blue" stroke-width="2" />
<path d="M1832,1800 L1638,142" stroke="blue" stroke-width="2" />
<path d="M1977,4960 L1290,253" stroke="blue" stroke-width="2" />
<path d="M4067,4988 L309,4245" stroke="blue" stroke-width="2" />
<path d="M4136,4667 L538,1652" stroke="blue" stroke-width="2" />
<path d="M870,978 L4457,3275" stroke="blue" stroke-width="2" />
<path d="M1406,150 L2799,3162" stroke="blue" stroke-width="2" />
<path d="M2145,3714 L1866,3146" stroke="blue" stroke-width="2" />
<path d="M1687,2920 L4774,2457" stroke="blue" stroke-width="2" />
<path d="M1950,5004 L1578,4921" stroke="blue" stroke-width="2" />
<path d="M1057,1996 L1701,3598" stroke="blue" stroke-width="2" />
<path d="M3637,2353 L3364,3403" stroke="blue" stroke-width="2" />
<path d="M4619,4144 L4253,456" stroke="blue" stroke-width="2" />
<path d="M1787,4965 L2922,3320" stroke="blue" stroke-width="2" />
<path d="M4332,2890 L1978,3587" stroke="blue" stroke-width="2" />
<path d="M2759,3707 L2669,3445" stroke="blue" stroke-width="2" />
<path d="M2153,2054 L2959,2753" stroke="blue" stroke-width="2" />
<path d="M2109,201 L2250,2384" stroke="blue" stroke-width="2" />
<path d="M2369,33 L773,4991" stroke="blue" stroke-width="2" />
<path d="M2516,3843 L57,997" stroke="blue" stroke-width="2" />
<path d="M3601,3597 L2772,601" stroke="blue" stroke-width="2" />
<path d="M3867,795 L649,1012" stroke="blue" stroke-width="2" />
<path d="M3078,93 L4284,3874" stroke="blue" stroke-width="2" />
<path d="M1686,2089 L749,3535" stroke="blue" stroke-width="2" />
<path d="M226,4316 L1974,1285" stroke="blue" stroke-width="2" />
<path d="M2194,2421 L1296,2418" stroke="blue" stroke-width="2" />
<path d="M1716,4200 L3936,1667" stroke="blue" stroke-width="2" />
<path d="M3928,2385 L2224,4357" stroke="blue" stroke-width="2" />
<path d="M635,3228 L583,2674" stroke="blue" stroke-width="2" />
<path d="M4402,2835 L940,498" stroke="blue" stroke-width="2" />
<path d="M234,3242 L4890,2240" stroke="blue" stroke-width="2" />
<path d="M1445,771 L1051,2614" stroke="blue" stroke-width="2" />
<path d="M2193,4883 L2802,1512" stroke="blue" stroke-width="2" />
<path d="M2522,595 L2720,4039" stroke="blue" stroke-width="2" />
<path d="M3826,3836 L2549,3519" stroke="blue" stroke-width="2" />
<path d="M518,2804 L1112,2366" stroke="blue" stroke-width="2" />
<path d="M4304,2362 L2451,3916" stroke="blue" stroke-width="2" />
<path d="M4867,2721 L739,4639" stroke="blue" stroke-width="2" />
<path d="M2172,4307 L2360,2909" stroke="blue" stroke-width="2" />
<path d="M675,1892 L4907,884" stroke="blue" stroke-width="2" />
<path d="M2416,665 L1261,4366" stroke="blue" stroke-width="2" />
<path d="M3711,4185 L3845,1281" stroke="blue" stroke-width="2" />
<path d="M4197,951 L1174,2240" stroke="blue" stroke-width="2" />
<path d="M614,698 L1462,1001" stroke="blue" stroke-width="2" />
<path d="M1310,987 L2232,3688" stroke="blue" stroke-width="2" />
<path d="M3459,536 L3725,1034" stroke="blue" stroke-width="2" />
<path d="M499,4561 L1908,2883" stroke="blue" stroke-width="2" />
<path d="M1322,3549 L2849,552" stroke="blue" stroke-width="2" />
<path d="M3561,4906 L4081,4791" stroke="blue" stroke-width="2" />
<path d="M2106,3243 L4483,3407" stroke="blue" stroke-width="2" />
<path d="M3154,4574 L4861,4103" stroke="blue" stroke-width="2" />
<path d="M4517,826 L1546,3843" stroke="blue" stroke-width="2" />
<path d="M502,1301 L28,3131" stroke="blue" stroke-width="2" />
<path d="M2676,4334 L778,4412" stroke="blue" stroke-width="2" />
<path d="M4156,315 L4617,3210" stroke="blue" stroke-width="2" />
<path d="M4919,1988 L1540,4888" stroke="blue" stroke-width="2" />
<path d="M3907,4101 L770,3106" stroke="blue" stroke-width="2" />
<path d="M3968,4792 L3049,2181" stroke="blue" stroke-width="2" />
<path d="M621,1216 L4515,3936" stroke="blue" stroke-width="2" />
<path d="M3911,973 L2226,2613" stroke="blue" stroke-width="2" />
<path d="M487,1008 L2974,1831" stroke="blue" stroke-width="2" />
<path d="M1774,159 L3577,1771" stroke="blue" stroke-width="2" />
<path d="M848,3006 L3570,4105" stroke="blue" stroke-width="2" />
<path d="M4898,3069 L4224,2273" stroke="blue" stroke-width="2" />
<path d="M4553,2294 L4381,119" stroke="blue" stroke-width="2" />
<path d="M1749,2031 L3977,658" stroke="blue" stroke-width="2" />
<path d="M4706,2549 L719,567" stroke="blue" stroke-width="2" />
<path d="M2292,1761 L4244,1815" stroke="blue" stroke-width="2" />
<path d="M1681,1838 L1987,4823" stroke="blue" stroke-width="2" />
<path d="M3506,3883 L4527,2990" stroke="blue" stroke-width="2" />
<path d="M3873,1273 L1163,4180" stroke="blue" stroke-width="2" />
<path d="M349,4246 L857,2141" stroke="blue" stroke-width="2" />
<path d="M110,1103 L1220,3956" stroke="blue" stroke-width="2" />
<path d="M1882,3396 L3680,4707" stroke="blue" stroke-width="2" />
<path d="M777,3235 L4267,4857" stroke="blue" stroke-width="2" />
<path d="M2450,3072 L3261,1955" stroke="blue" stroke-width="2" />
<path d="M3753,3791 L2850,466" stroke="blue" stroke-width="2" />
<path d="M1124,2865 L4817,5188" stroke="blue" stroke-width="2" />
<path d="M1848,3645 L2238,3860" stroke="blue" stroke-width="2" />
<path d="M3300,967 L1956,3820" stroke="blue" stroke-width="2" />
<path d="M1838,4476 L2680,3071" stroke="blue" stroke-width="2" />
<path d="M2790,4822 L4306,796" stroke="blue" stroke-width="2" />
<path d="M1365,3608 L4349,2133" stroke="blue" stroke-width="2" />
<path d="M1197,3029 L1833,4779" stroke="blue" stroke-width="2" />
<path d="M2532,174 L2119,1188" stroke="blue" stroke-width="2" />
<path d="M2129,3486 L1043,4057" stroke="blue" stroke-width="2" />
<path d="M205,527 L4508,1714" stroke="blue" stroke-width="2" />
<path d="M2559,761 L3550,4700" stroke="blue" stroke-width="2" />
<path d="M4500,146 L4684,700" stroke="blue" stroke-width="2" />
<path d="M1128,3895 L1088,4687" stroke="blue" stroke-width="2" />
<path d="M3722,4815 L2018,3685" stroke="blue" stroke-width="2" />
<path d="M2850,1560 L289,2089" stroke="blue" stroke-width="2" />
<path d="M2677,4633 L3246,2340" stroke="blue" stroke-width="2" />
<path d="M1885,2931 L110,483" stroke="blue" stroke-width="2" />
<path d="M4853,2943 L3294,3811" stroke="blue" stroke-width="2" />
<path d="M3553,3843 L2122,4132" stroke="blue" stroke-width="2" />
<path d="M2283,2855 L196,56" stroke="blue" stroke-width="2" />
<path d="M3759,569 L779,1913" stroke="blue" stroke-width="2" />
<path d="M3577,2619 L1055,5182" stroke="blue" stroke-width="2" />
<path d="M12,2074 L1605,1334" stroke="blue" stroke-width="2" />
<path d="M3294,1869 L3541,1970" stroke="blue" stroke-width="2" />
<path d="M4055,4685 L3972,1269" stroke="blue" stroke-width="2" />
<path d="M4543,2540 L439,4245" stroke="blue" stroke-width="2" />
<path d="M607,3146 L3494,1526" stroke="blue" stroke-width="2" />
<path d="M2900,5004 L2020,3786" stroke="blue" stroke-width="2" />
<path d="M1929,764 L760,3286" stroke="blue" stroke-width="2" />
<path d="M1597,979 L4868,2253" stroke="blue" stroke-width="2" />
<path d="M769,4513 L617,1017" stroke="blue" stroke-width="2" />
<path d="M562,5066 L1731,1924" stroke="blue" stroke-width="2" />
<path d="M649,1459 L2486,103" stroke="blue" stroke-width="2" />
<path d="M675,1185 L1656,2447" stroke="blue" stroke-width="2" />
<path d="M3031,3643 L1412,3073" stroke="blue" stroke-width="2" />
<path d="M2504,3245 L512,2326" stroke="blue" stroke-width="2" />
<path d="M531,4767 L388,4087" stroke="blue" stroke-width="2" />
<path d="M3931,2676 L1711,1281" stroke="blue" stroke-width="2" />
<path d="M4022,1624 L2125,2397" stroke="blue" stroke-width="2" />
<path d="M1124,375 L325,3807" stroke="blue" stroke-width="2" />
<path d="M4427,4964 L2944,4193" stroke="blue" stroke-width="2" />
<path d="M3364,4628 L3275,3506" stroke="blue" stroke-width="2" />
<path d="M3074,1649 L1399,2343" stroke="blue" stroke-width="2" />
<path d="M1920,2078 L3467,4857" stroke="blue" stroke-width="2" />
<path d="M343,4338 L48,4150" stroke="blue" stroke-width="2" />
<path d="M186,2271 L3740,1854" stroke="blue" stroke-width="2" />
<path d="M4455,4504 L3370,1593" stroke="blue" stroke-width="2" />
<path d="M3120,344 L1062,2148" stroke="blue" stroke-width="2" />
<path d="M2885,4301 L584,4816" stroke="blue" stroke-width="2" />
<path d="M880,3764 L387,2069" stroke="blue" stroke-width="2" />
<path d="M244,4207 L2849,828" stroke="blue" stroke-width="2" />
<path d="M2009,221 L2923,2266" stroke="blue" stroke-width="2" />
<path d="M4574,505 L2462,1368" stroke="blue" stroke-width="2" />
<path d="M2169,381 L640,4652" stroke="blue" stroke-width="2" />
<path d="M1862,3138 L4001,2468" stroke="blue" stroke-width="2" />
<path d="M2926,1953 L770,4695" stroke="blue" stroke-width="2" />
<path d="M815,1482 L3005,2030" stroke="blue" stroke-width="2" />
<path d="M285,1592 L4402,3199" stroke="blue" stroke-width="2" />
<path d="M3559,867 L872,1435" stroke="blue" stroke-width="2" />
<path d="M2572,4903 L3562,2466" stroke="blue" stroke-width="2" />
<path d="M616,2757 L838,1263" stroke="blue" stroke-width="2" />
<path d="M4040,3241 L782,2619" stroke="blue" stroke-width="2" />
<path d="M4075,2685 L4803,2195" stroke="blue" stroke-width="2" />
<path d="M3145,3305 L3685,3248" stroke="blue" stroke-width="2" />
<path d="M1218,169 L583,964" stroke="blue" stroke-width="2" />
<path d="M172,5095 L375,1143" stroke="blue" stroke-width="2" />
<path d="M3132,355 L3801,1741" stroke="blue" stroke-width="2" />
<path d="M1790,324 L1648,2599" stroke="blue" stroke-width="2" />
<path d="M1133,427 L4221,705" stroke="blue" stroke-width="2" />
<path d="M351,360 L3451,4965" stroke="blue" stroke-width="2" />
<path d="M994,3177 L2604,2224" stroke="blue" stroke-width="2" />
<path d="M2965,4973 L4023,3704" stroke="blue" stroke-width="2" />
<path d="M2162,2693 L3046,2981" stroke="blue" stroke-width="2" />
<path d="M1944,4064 L3776,1281" stroke="blue" stroke-width="2" />
<path d="M3268,5185 L4479,936" stroke="blue" stroke-width="2" />
<path d="M2687,502 L2888,3021" stroke="blue" stroke-width="2" />
<path d="M3108,464 L3812,1781" stroke="blue" stroke-width="2" />
<path d="M1161,4192 L4015,17" stroke="blue" stroke-width="2" />
<path d="M1061,2292 L2349,3144" stroke="blue" stroke-width="2" />
<path d="M2520,4307 L613,3165" stroke="blue" stroke-width="2" />
<path d="M878,249 L4493,4432" stroke="blue" stroke-width="2" />
<path d="M2852,2059 L10,2785" stroke="blue" stroke-width="2" />
<path d="M3472,1778 L3376,4152" stroke="blue" stroke-width="2" />
<path d="M167,4835 L2703,3149" stroke="blue" stroke-width="2" />
<path d="M3007,1876 L1203,686" stroke="blue" stroke-width="2" />
<path d="M1426,4110 L2172,3050" stroke="blue" stroke-width="2" />
<path d="M1492,4936 L3498,1736" stroke="blue" stroke-width="2" />
<path d="M2086,4380 L4075,4836" stroke="blue" stroke-width="2" />
<path d="M4898,2431 L4113,1818" stroke="blue" stroke-width="2" />
<path d="M322,4663 L280,495" stroke="blue" stroke-width="2" />
<path d="M3150,1679 L3408,1765" stroke="blue" stroke-width="2" />
<path d="M547,5148 L3237,1912" stroke="blue" stroke-width="2" />
<path d="M3351,243 L2651,1595" stroke="blue" stroke-width="2" />
<path d="M4337,3970 L2159,187" stroke="blue" stroke-width="2" />
<path d="M3670,1727 L2851,3540" stroke="blue" stroke-width="2" />
<path d="M2944,3028 L4270,4008" stroke="blue" stroke-width="2" />
<path d="M4242,3502 L4353,4948" stroke="blue" stroke-width="2" />
<path d="M647,2795 L567,4240" stroke="blue" stroke-width="2" />
<path d="M3179,3067 L2097,2973" stroke="blue" stroke-width="2" />
<path d="M2115,3555 L2269,3824" stroke="blue" stroke-width="2" />
<path d="M682,351 L2969,1798" stroke="blue" stroke-width="2" />
<path d="M2273,3715 L4696,4043" stroke="blue" stroke-width="2" />
<path d="M3043,1997 L890,1429" stroke="blue" stroke-width="2" />
<path d="M4404,3156 L3349,2731" stroke="blue" stroke-width="2" />
<path d="M373,5135 L2118,575" stroke="blue" stroke-width="2" />
<path d="M3245,2731 L2765,757" stroke="blue" stroke-width="2" />
<path d="M256,2130 L898,1640" stroke="blue" stroke-width="2" />
<path d="M3754,1593 L2772,1249" stroke="blue" stroke-width="2" />
<path d="M4538,4332 L617,5014" stroke="blue" stroke-width="2" />
<path d="M4430,4902 L28,625" stroke="blue" stroke-width="2" />
<path d="M3822,4315 L2248,1769" stroke="blue" stroke-width="2" />
<path d="M605,3392 L3725,1595" stroke="blue" stroke-width="2" />
<path d="M768,4484 L3285,2812" stroke="blue" stroke-width="2" />
<path d="M3955,4116 L3772,3720" stroke="blue" stroke-width="2" />
<path d="M2214,2919 L545,4792" stroke="blue" stroke-width="2" />
<path d="M4808,4888 L2045,1969" stroke="blue" stroke-width="2" />
<path d="M222,2516 L1813,1656" stroke="blue" stroke-width="2" />
<path d="M4423,4932 L3144,266" stroke="blue" stroke-width="2" />
<path d="M393,2621 L14,5028" stroke="blue" stroke-width="2" />
<path d="M3175,4739 L3862,1010" stroke="blue" stroke-width="2" />
<path d="M2871,4247 L4246,3791" stroke="blue" stroke-width="2" />
<path d="M1069,3098 L745,595" stroke="blue" stroke-width="2" />
<path d="M1463,3021 L1688,2551" stroke="blue" stroke-width="2" />
<path d="M4673,4950 L1412,1676" stroke="blue" stroke-width="2" />
<path d="M3343,288 L3633,4639" stroke="blue" stroke-width="2" />
<path d="M1126,3036 L347,4194" stroke="blue" stroke-width="2" />
<path d="M1860,3759 L396,3268" stroke="blue" stroke-width="2" />
<path d="M4512,768 L2534,1121" stroke="blue" stroke-width="2" />
<path d="M1189,187 L1238,3426" stroke="blue" stroke-width="2" />
<path d="M3296,3213 L1756,1910" stroke="blue" stroke-width="2" />
<path d="M2427,4282 L1459,4037" stroke="blue" stroke-width="2" />
<path d="M3949,4973 L4704,2068" stroke="blue" stroke-width="2" />
<path d="M4226,3002 L1760,1258" stroke="blue" stroke-width="2" />
<path d="M359,2208 L856,4203" stroke="blue" stroke-width="2" />
<path d="M2106,1016 L1318,1660" stroke="blue" stroke-width="2" />
<path d="M458,3654 L4834,3600" stroke="blue" stroke-width="2" />
<path d="M1667,567 L3494,3867" stroke="blue" stroke-width="2" />
<path d="M943,2745 L3416,4457" stroke="blue" stroke-width="2" />
<path d="M2130,4116 L228,2197" stroke="blue" stroke-width="2" />
<path d="M1671,4528 L1069,3182" stroke="blue" stroke-width="2" />
<path d="M2864,5012 L1282,4980" stroke="blue" stroke-width="2" />
<path d="M2680,2193 L21,4004" stroke="blue" stroke-width="2" />
<path d="M3463,400 L3678,197" stroke="blue" stroke-width="2" />
<path d="M1646,932 L185,4189" stroke="blue" stroke-width="2" />
<path d="M2291,2698 L4235,2018" stroke="blue" stroke-width="2" />
<path d="M3280,1601 L1845,4868" stroke="blue" stroke-width="2" />
<path d="M3844,1129 L3448,4466" stroke="blue" stroke-width="2" />
<path d="M4583,1721 L2583,2868" stroke="blue" stroke-width="2" />
<path d="M3707,3214 L2041,989" stroke="blue" stroke-width="2" />
<path d="M0,0 L4937,0" stroke="red" stroke-width="10" />
<path d="M4937,0 L4937,5198" stroke="red" stroke-width="10" />
<path d="M0,5198 L4937,5198" stroke="red" stroke-width="10" />
<path d="M0,5198 L0,0" stroke="red" stroke-width="10" />
</svg>