<?xml version="1.0" encoding="UTF-8"?>
<svg xmlns="http://www.w3.org/2000/svg" xmlns:xlink="http://www.w3.org/1999/xlink"
     width="10000" height="10000" viewBox="0 0 10000 10000">
<defs>
</defs>
<path d="M937,3295 L172,1823" stroke="blue" stroke-width="2" />
<path d="M1315,1819 L1299,1735" stroke="blue" stroke-width="2" />
<path d="M1175,1774 L564,3384" stroke="blue" stroke-width="2" />
<path d="M1738,772 L905,3826" stroke="blue" stroke-width="2" />
<path d="M469,1403 L625,275" stroke="blue" stroke-width="2" />
<path d="M1,1591 L1267,1178" stroke="blue" stroke-width="2" />
<path d="M567,433 L1039,2615" stroke="blue" stroke-width="2" />
<path d="M1384,150 L511,3919" stroke="blue" stroke-width="2" />
<path d="M1212,1834 L779,783" stroke="blue" stroke-width="2" />
<path d="M437,3229 L1361,1697" stroke="blue" stroke-width="2" />
<path d="M1117,250 L1034,353" stroke="blue" stroke-width="2" />
<path d="M1288,3022 L1091,3164" stroke="blue" stroke-width="2" />
<path d="M192,1799 L1647,718" stroke="blue" stroke-width="2" />
<path d="M1187,953 L1289,312" stroke="blue" stroke-width="2" />
<path d="M786,3848 L573,296" stroke="blue" stroke-width="2" />
<path d="M1105,2696 L1741,1215" stroke="blue" stroke-width="2" />
<path d="M1517,999 L1725,3909" stroke="blue" stroke-width="2" />
<path d="M1790,2828 L381,2625" stroke="blue" stroke-width="2" />
<path d="M180,2373 L648,1337" stroke="blue" stroke-width="2" />
<path d="M1691,1896 L1202,1443" stroke="blue" stroke-width="2" />
<path d="M0,3279 L1095,3470" stroke="blue" stroke-width="2" />
<path d="M843,2382 L791,3329" stroke="blue" stroke-width="2" />
<path d="M503,480 L264,2447" stroke="blue" stroke-width="2" />
<path d="M932,407 L160,929" stroke="blue" stroke-width="2" />
<path d="M3,171 L52,199" stroke="blue" stroke-width="2" />
<path d="M1678,2896 L1075,3383" stroke="blue" stroke-width="2" />
<path d="M238,2450 L1495,3833" stroke="blue" stroke-width="2" />
<path d="M404,2940 L165,175" stroke="blue" stroke-width="2" />
<path d="M625,924 L545,3009" stroke="blue" stroke-width="2" />
<path d="M943,1928 L1358,718" stroke="blue" stroke-width="2" />
<path d="M770,72 L655,2670" stroke="blue" stroke-width="2" />
<path d="M467,2932 L693,2037" stroke="blue" stroke-width="2" />
<path d="M235,2025 L177,3246" stroke="blue" stroke-width="2" />
<path d="M1295,1109 L1176,1035" stroke="blue" stroke-width="2" />
<path d="M741,1376 L1762,3204" stroke="blue" stroke-width="2" />
<path d="M1552,2923 L1086,1500" stroke="blue" stroke-width="2" />
<path d="M1743,1180 L748,2031" stroke="blue" stroke-width="2" />
<path d="M70,3337 L985,3334" stroke="blue" stroke-width="2" />
<path d="M1721,623 L1031,2667" stroke="blue" stroke-width="2" />
<path d="M1191,2397 L657,3901" stroke="blue" stroke-width="2" />
<path d="M686,2142 L1477,822" stroke="blue" stroke-width="2" />
<path d="M1298,3059 L12,561" stroke="blue" stroke-width="2" />
<path d="M1768,3382 L1380,1119" stroke="blue" stroke-width="2" />
<path d="M114,1579 L1178,514" stroke="blue" stroke-width="2" />
<path d="M2,1862 L171,1878" stroke="blue" stroke-width="2" />
<path d="M102,2762 L424,2651" stroke="blue" stroke-width="2" />
<path d="M1558,2771 L1192,1474" stroke="blue" stroke-width="2" />
<path d="M896,3508 L292,1115" stroke="blue" stroke-width="2" />
<path d="M1193,2818 L1170,2244" stroke="blue" stroke-width="2" />
<path d="M1708,1467 L1027,3217" stroke="blue" stroke-width="2" />
<path d="M131,3954 L515,1883" stroke="blue" stroke-width="2" />
<path d="M14,3318 L90,3805" stroke="blue" stroke-width="2" />
<path d="M1555,3260 L201,452" stroke="blue" stroke-width="2" />
<path d="M1372,4013 L63,1411" stroke="blue" stroke-width="2" />
<path d="M1756,975 L193,44" stroke="blue" stroke-width="2" />
<path d="M1447,643 L1620,1967" stroke="blue" stroke-width="2" />
<path d="M444,1547 L625,2281" stroke="blue" stroke-width="2" />
<path d="M583,1261 L1457,3661" stroke="blue" stroke-width="2" />
<path d="M75,419 L36,3763" stroke="blue" stroke-width="2" />
<path d="M1762,1823 L1669,3590" stroke="blue" stroke-width="2" />
<path d="M201,1436 L763,1660" stroke="blue" stroke-width="2" />
<path d="M824,884 L1219,1477" stroke="blue" stroke-width="2" />
<path d="M1719,1206 L1131,3239" stroke="blue" stroke-width="2" />
<path d="M1215,1919 L1747,3082" stroke="blue" stroke-width="2" />
<path d="M118,1312 L1008,3931" stroke="blue" stroke-width="2" />
<path d="M1527,3545 L617,3631" stroke="blue" stroke-width="2" />
<path d="M88,697 L219,3616" stroke="blue" stroke-width="2" />
<path d="M1459,225 L1323,150" stroke="blue" stroke-width="2" />
<path d="M453,2598 L882,453" stroke="blue" stroke-width="2" />
<path d="M1069,3366 L99,3671" stroke="blue" stroke-width="2" />
<path d="M1702,254 L524,1381" stroke="blue" stroke-width="2" />
<path d="M1058,3736 L760,1289" stroke="blue" stroke-width="2" />
<path d="M1297,3841 L598,222" stroke="blue" stroke-width="2" />
<path d="M30,1850 L168,1919" stroke="blue" stroke-width="2" />
<path d="M0,2364 L593,815" stroke="blue" stroke-width="2" />
<path d="M1373,3192 L646,749" stroke="blue" stroke-width="2" />
<path d="M1533,1860 L819,2832" stroke="blue" stroke-width="2" />
<path d="M1541,2734 L774,626" stroke="blue" stroke-width="2" />
<path d="M550,1673 L867,4006" stroke="blue" stroke-width="2" />
<path d="M1787,246 L1407,1600" stroke="blue" stroke-width="2" />
<path d="M664,1300 L1146,2060" stroke="blue" stroke-width="2" />
<path d="M1152,534 L311,1019" stroke="blue" stroke-width="2" />
<path d="M823,3869 L906,1049" stroke="blue" stroke-width="2" />
<path d="M1145,2689 L69,3371" stroke="blue" stroke-width="2" />
<path d="M1195,886 L160,1804" stroke="blue" stroke-width="2" />
<path d="M806,3282 L1531,763" stroke="blue" stroke-width="2" />
<path d="M1058,1177 L196,3707" stroke="blue" stroke-width="2" />
<path d="M394,160 L1294,623" stroke="blue" stroke-width="2" />
<path d="M1274,3290 L479,1378" stroke="blue" stroke-width="2" />
<path d="M1776,1148 L36,434" stroke="blue" stroke-width="2" />
<path d="M845,2382 L1056,2940" stroke="blue" stroke-width="2" />
<path d="M1153,1383 L1695,3658" stroke="blue" stroke-width="2" />
<path d="M1737,2431 L1723,1529" stroke="blue" stroke-width="2" />
<path d="M895,2588 L1575,3063" stroke="blue" stroke-width="2" />
<path d="M715,1477 L1030,2632" stroke="blue" stroke-width="2" />
<path d="M294,1204 L1159,2527" stroke="blue" stroke-width="2" />
<path d="M1493,3297 L1784,2055" stroke="blue" stroke-width="2" />
<path d="M172,542 L933,2650" stroke="blue" stroke-width="2" />
<path d="M1604,1586 L458,507" stroke="blue" stroke-width="2" />
<path d="M625,2751 L1446,4029" stroke="blue" stroke-width="2" />
<path d="M160,1539 L460,41" stroke="blue" stroke-width="2" />
<path d="M728,2180 L863,2266" stroke="blue" stroke-width="2" />
<path d="M120,3445 L1085,2985" stroke="blue" stroke-width="2" />
<path d="M517,2121 L910,3984" stroke="blue" stroke-width="2" />
<path d="M746,2294 L1271,2411" stroke="blue" stroke-width="2" />
<path d="M1312,3200 L1063,68" stroke="blue" stroke-width="2" />
<path d="M1150,3598 L1649,2941" stroke="blue" stroke-width="2" />
<path d="M126,264 L5,3432" stroke="blue" stroke-width="2" />
<path d="M987,863 L61,2965" stroke="blue" stroke-width="2" />
<path d="M1143,873 L1378,3847" stroke="blue" stroke-width="2" />
<path d="M1788,2780 L1190,311" stroke="blue" stroke-width="2" />
<path d="M769,992 L102,331" stroke="blue" stroke-width="2" />
<path d="M345,3351 L358,3946" stroke="blue" stroke-width="2" />
<path d="M910,3342 L511,3595" stroke="blue" stroke-width="2" />
<path d="M879,1238 L167,1997" stroke="blue" stroke-width="2" />
<path d="M1460,2999 L769,3816" stroke="blue" stroke-width="2" />
<path d="M1565,753 L168,2560" stroke="blue" stroke-width="2" />
<path d="M1027,3609 L777,344" stroke="blue" stroke-width="2" />
<path d="M1185,3519 L700,1937" stroke="blue" stroke-width="2" />
<path d="M811,1918 L69,3662" stroke="blue" stroke-width="2" />
<path d="M292,2275 L96,2007" stroke="blue" stroke-width="2" />
<path d="M1468,2345 L1797,1853" stroke="blue" stroke-width="2" />
<path d="M242,3000 L137,137" stroke="blue" stroke-width="2" />
<path d="M1592,3274 L489,547" stroke="blue" stroke-width="2" />
<path d="M1804,1789 L1765,624" stroke="blue" stroke-width="2" />
<path d="M697,3939 L265,3451" stroke="blue" stroke-width="2" />
<path d="M340,2558 L324,227" stroke="blue" stroke-width="2" />
<path d="M383,2281 L392,1847" stroke="blue" stroke-width="2" />
<path d="M1053,1594 L242,3529" stroke="blue" stroke-width="2" />
<path d="M592,3204 L1659,3599" stroke="blue" stroke-width="2" />
<path d="M1554,272 L242,1049" stroke="blue" stroke-width="2" />
<path d="M141,3457 L1174,3982" stroke="blue" stroke-width="2" />
<path d="M938,326 L1425,1718" stroke="blue" stroke-width="2" />
<path d="M1536,1934 L81,96" stroke="blue" stroke-width="2" />
<path d="M766,338 L1333,430" stroke="blue" stroke-width="2" />
<path d="M1012,1428 L441,1362" stroke="blue" stroke-width="2" />
<path d="M1359,3569 L1484,2312" stroke="blue" stroke-width="2" />
<path d="M797,3393 L307,3069" stroke="blue" stroke-width="2" />
<path d="M1230,3007 L1037,294" stroke="blue" stroke-width="2" />
<path d="M1673,381 L114,3102" stroke="blue" stroke-width="2" />
<path d="M435,3641 L1184,966" stroke="blue" stroke-width="2" />
<path d="M647,3067 L786,1775" stroke="blue" stroke-width="2" />
<path d="M898,1738 L833,2709" stroke="blue" stroke-width="2" />
<path d="M112,1753 L1203,1089" stroke="blue" stroke-width="2" />
<path d="M857,3414 L316,1594" stroke="blue" stroke-width="2" />
<path d="M902,1485 L1064,2567" stroke="blue" stroke-width="2" />
<path d="M1469,1884 L757,712" stroke="blue" stroke-width="2" />
<path d="M1596,869 L109,1353" stroke="blue" stroke-width="2" />
<path d="M1102,1842 L921,1668" stroke="blue" stroke-width="2" />
<path d="M1508,1894 L1227,2065" stroke="blue" stroke-width="2" />
<path d="M58,1267 L1111,3569" stroke="blue" stroke-width="2" />
<path d="M83,1448 L729,3428" stroke="blue" stroke-width="2" />
<path d="M1059,3157 L197,1825" stroke="blue" stroke-width="2" />
<path d="M375,4018 L1220,3908" stroke="blue" stroke-width="2" />
<path d="M1115,433 L122,3649" stroke="blue" stroke-width="2" />
<path d="M1375,1719 L98,3335" stroke="blue" stroke-width="2" />
<path d="M537,3144 L1278,4038" stroke="blue" stroke-width="2" />
<path d="M103,951 L1083,990" stroke="blue" stroke-width="2" />
<path d="M537,3098 L619,3020" stroke="blue" stroke-width="2" />
<path d="M621,3686 L41,3380" stroke="blue" stroke-width="2" />
<path d="M289,1053 L513,2305" stroke="blue" stroke-width="2" />
<path d="M262,3319 L1453,3136" stroke="blue" stroke-width="2" />
<path d="M194,781 L219,2970" stroke="blue" stroke-width="2" />
<path d="M520,1880 L1321,251" stroke="blue" stroke-width="2" />
<path d="M1056,2223 L813,2268" stroke="blue" stroke-width="2" />
<path d="M243,2264 L1118,1828" stroke="blue" stroke-width="2" />
<path d="M1708,1146 L205,3816" stroke="blue" stroke-width="2" />
<path d="M1580,394 L892,3364" stroke="blue" stroke-width="2" />
<path d="M884,2623 L1802,280" stroke="blue" stroke-width="2" />
<path d="M1049,1069 L1380,3183" stroke="blue" stroke-width="2" />
<path d="M1042,3520 L269,2883" stroke="blue" stroke-width="2" />
<path d="M1663,1111 L395,2025" stroke="blue" stroke-width="2" />
<path d="M1256,2199 L1310,771" stroke="blue" stroke-width="2" />
<path d="M1783,2175 L1446,638" stroke="blue" stroke-width="2" />
<path d="M1269,3361 L1482,2221" stroke="blue" stroke-width="2" />
<path d="M1747,2352 L1415,3635" stroke="blue" stroke-width="2" />
<path d="M247,3137 L469,1961" stroke="blue" stroke-width="2" />
<path d="M150,1491 L364,3508" stroke="blue" stroke-width="2" />
<path d="M1505,2350 L1441,1217" stroke="blue" stroke-width="2" />
<path d="M621,2762 L1358,2499" stroke="blue" stroke-width="2" />
<path d="M1771,208 L1448,3095" stroke="blue" stroke-width="2" />
<path d="M153,354 L993,175" stroke="blue" stroke-width="2" />
<path d="M1096,2566 L1276,3028" stroke="blue" stroke-width="2" />
<path d="M104,455 L1698,861" stroke="blue" stroke-width="2" />
<path d="M256,2652 L1036,1930" stroke="blue" stroke-width="2" />
<path d="M1548,2965 L1333,1922" stroke="blue" stroke-width="2" />
<path d="M1191,327 L683,269" stroke="blue" stroke-width="2" />
<path d="M1452,1896 L420,517" stroke="blue" stroke-width="2" />
<path d="M1176,3695 L337,2100" stroke="blue" stroke-width="2" />
<path d="M769,1778 L99,1898" stroke="blue" stroke-width="2" />
<path d="M1316,854 L813,72" stroke="blue" stroke-width="2" />
<path d="M980,3427 L427,302" stroke="blue" stroke-width="2" />
<path d="M1542,2094 L1495,2075" stroke="blue" stroke-width="2" />
<path d="M795,3773 L416,2964" stroke="blue" stroke-width="2" />
<path d="M317,1951 L1747,2855" stroke="blue" stroke-width="2" />
<path d="M1752,1907 L334,2231" stroke="blue" stroke-width="2" />
<path d="M149,1409 L715,2709" stroke="blue" stroke-width="2" />
<path d="M1434,2536 L951,323" stroke="blue" stroke-width="2" />
<path d="M1755,1446 L444,64" stroke="blue" stroke-width="2" />
<path d="M1368,264 L153,2434" stroke="blue" stroke-width="2" />
<path d="M651,2029 L677,907" stroke="blue" stroke-width="2" />
<path d="M922,1701 L314,943" stroke="blue" stroke-width="2" />
<path d="M1386,3447 L353,1929" stroke="blue" stroke-width="2" />
<path d="M1315,3481 L1507,2049" stroke="blue" stroke-width="2" />
<path d="M1026,3825 L1094,147" stroke="blue" stroke-width="2" />
<path d="M1525,2038 L1008,1428" stroke="blue" stroke-width="2" />
<path d="M123,3004 L401,3493" stroke="blue" stroke-width="2" />
<path d="M528,3995 L900,2687" stroke="blue" stroke-width="2" />
<path d="M456,3529 L312,270" stroke="blue" stroke-width="2" />
<path d="M160,2968 L1196,751" stroke="blue" stroke-width="2" />
<path d="M682,3184 L432,967" stroke="blue" stroke-width="2" />
<path d="M677,1952 L1500,2822" stroke="blue" stroke-width="2" />
<path d="M542,3920 L1266,3300" stroke="blue" stroke-width="2" />
<path d="M462,3978 L1255,861" stroke="blue" stroke-width="2" />
<path d="M344,1986 L716,2419" stroke="blue" stroke-width="2" />
<path d="M1125,3852 L205,1429" stroke="blue" stroke-width="2" />
<path d="M1488,1426 L1485,132" stroke="blue" stroke-width="2" />
<path d="M1794,3254 L1360,2870" stroke="blue" stroke-width="2" />
<path d="M358,2337 L1084,903" stroke="blue" stroke-width="2" />
<path d="M208,1038 L732,2234" stroke="blue" stroke-width="2" />
<path d="M305,2844 L1458,3221" stroke="blue" stroke-width="2" />
<path d="M281,1413 L46,738" stroke="blue" stroke-width="2" />
<path d="M824,2436 L683,477" stroke="blue" stroke-width="2" />
<path d="M31,2297 L1614,2476" stroke="blue" stroke-width="2" />
<path d="M1074,2613 L1167,329" stroke="blue" stroke-width="2" />
<path d="M1280,3047 L661,3558" stroke="blue" stroke-width="2" />
<path d="M357,3035 L1617,2385" stroke="blue" stroke-width="2" />
<path d="M348,1067 L1595,1028" stroke="blue" stroke-width="2" />
<path d="M1139,1924 L1105,3234" stroke="blue" stroke-width="2" />
<path d="M468,1783 L352,1294" stroke="blue" stroke-width="2" />
<path d="M468,3751 L1092,2383" stroke="blue" stroke-width="2" />
<path d="M1171,2941 L1421,1762" stroke="blue" stroke-width="2" />
<path d="M1721,1521 L170,3751" stroke="blue" stroke-width="2" />
<path d="M1493,483 L276,3725" stroke="blue" stroke-width="2" />
<path d="M999,1764 L1435,907" stroke="blue" stroke-width="2" />
<path d="M366,280 L1667,2923" stroke="blue" stroke-width="2" />
<path d="M1484,1956 L1049,2607" stroke="blue" stroke-width="2" />
<path d="M40,1364 L1251,1640" stroke="blue" stroke-width="2" />
<path d="M426,1400 L1119,3893" stroke="blue" stroke-width="2" />
<path d="M865,2717 L573,1594" stroke="blue" stroke-width="2" />
<path d="M1732,1453 L187,876" stroke="blue" stroke-width="2" />
<path d="M1755,2306 L783,3657" stroke="blue" stroke-width="2" />
<path d="M360,2811 L516,1070" stroke="blue" stroke-width="2" />
<path d="M1589,74 L230,332" stroke="blue" stroke-width="2" />
<path d="M825,888 L713,3446" stroke="blue" stroke-width="2" />
<path d="M392,3793 L1757,1962" stroke="blue" stroke-width="2" />
<path d="M234,701 L684,2202" stroke="blue" stroke-width="2" />
<path d="M1541,1287 L1639,1328" stroke="blue" stroke-width="2" />
<path d="M889,2486 L1033,766" stroke="blue" stroke-width="2" />
<path d="M1510,3283 L1049,2763" stroke="blue" stroke-width="2" />
<path d="M555,3482 L1672,3214" stroke="blue" stroke-width="2" />
<path d="M391,2365 L1309,1296" stroke="blue" stroke-width="2" />
<path d="M872,3173 L443,2640" stroke="blue" stroke-width="2" />
<path d="M666,2545 L1474,593" stroke="blue" stroke-width="2" />
<path d="M1487,2239 L240,1126" stroke="blue" stroke-width="2" />
<path d="M403,1294 L204,3217" stroke="blue" stroke-width="2" />
<path d="M269,1280 L291,1455" stroke="blue" stroke-width="2" />
<path d="M1713,640 L699,744" stroke="blue" stroke-width="2" />
<path d="M878,3503 L977,2628" stroke="blue" stroke-width="2" />
<path d="M1150,2622 L509,3620" stroke="blue" stroke-width="2" />
<path d="M983,3485 L1476,3274" stroke="blue" stroke-width="2" />
<path d="M581,3644 L1631,472" stroke="blue" stroke-width="2" />
<path d="M870,2978 L252,3750" stroke="blue" stroke-width="2" />
<path d="M1412,2828 L959,3533" stroke="blue" stroke-width="2" />
<path d="M238,2074 L1171,3728" stroke="blue" stroke-width="2" />
<path d="M1484,3828 L1588,1368" stroke="blue" stroke-width="2" />
<path d="M436,1248 L1750,3875" stroke="blue" stroke-width="2" />
<path d="M1788,263 L48,2119" stroke="blue" stroke-width="2" />
<path d="M1520,1838 L730,3564" stroke="blue" stroke-width="2" />
<path d="M1151,897 L163,565" stroke="blue" stroke-width="2" />
<path d="M372,1595 L315,2657" stroke="blue" stroke-width="2" />
<path d="M193,1839 L1182,795" stroke="blue" stroke-width="2" />
<path d="M1042,3078 L633,395" stroke="blue" stroke-width="2" />
<path d="M381,1109 L1002,433" stroke="blue" stroke-width="2" />
<path d="M1695,260 L581,29" stroke="blue" stroke-width="2" />
<path d="M1292,871 L486,3740" stroke="blue" stroke-width="2" />
<path d="M1698,2273 L356,1387" stroke="blue" stroke-width="2" />
<path d="M1556,1399 L612,292" stroke="blue" stroke-width="2" />
<path d="M686,1288 L983,2270" stroke="blue" stroke-width="2" />
<path d="M1511,2072 L48,3078" stroke="blue" stroke-width="2" />
<path d="M284,2268 L1741,1073" stroke="blue" stroke-width="2" />
<path d="M1628,2022 L1449,80" stroke="blue" stroke-width="2" />
<path d="M1074,2522 L1631,2855" stroke="blue" stroke-width="2" />
<path d="M1355,2324 L1518,1844" stroke="blue" stroke-width="2" />
<path d="M1356,1023 L1479,3965" stroke="blue" stroke-width="2" />
<path d="M1434,914 L312,3732" stroke="blue" stroke-width="2" />
<path d="M952,1232 L326,1607" stroke="blue" stroke-width="2" />
<path d="M498,4033 L1106,3917" stroke="blue" stroke-width="2" />
<path d="M332,3542 L1577,419" stroke="blue" stroke-width="2" />
<path d="M980,248 L582,923" stroke="blue" stroke-width="2" />
<path d="M967,1728 L794,3493" stroke="blue" stroke-width="2" />
<path d="M1452,3916 L282,3697" stroke="blue" stroke-width="2" />
<path d="M175,296 L334,1763" stroke="blue" stroke-width="2" />
<path d="M1578,3661 L448,1836" stroke="blue" stroke-width="2" />
<path d="M208,2247 L386,2263" stroke="blue" stroke-width="2" />
<path d="M1599,1615 L1663,1995" stroke="blue" stroke-width="2" />
<path d="M466,3590 L416,2277" stroke="blue" stroke-width="2" />
<path d="M58,828 L306,2875" stroke="blue" stroke-width="2" />
<path d="M767,4037 L1421,385" stroke="blue" stroke-width="2" />
<path d="M156,1368 L770,1628" stroke="blue" stroke-width="2" />
<path d="M1075,1199 L354,858" stroke="blue" stroke-width="2" />
<path d="M69,1137 L1696,73" stroke="blue" stroke-width="2" />
<path d="M724,829 L741,3458" stroke="blue" stroke-width="2" />
<path d="M1555,480 L54,3156" stroke="blue" stroke-width="2" />
<path d="M420,236 L725,250" stroke="blue" stroke-width="2" />
<path d="M1324,1398 L1795,807" stroke="blue" stroke-width="2" />
<path d="M1103,2950 L16,1384" stroke="blue" stroke-width="2" />
<path d="M1016,3102 L1556,3496" stroke="blue" stroke-width="2" />
<path d="M91,771 L851,2617" stroke="blue" stroke-width="2" />
<path d="M1481,2509 L1507,1904" stroke="blue" stroke-width="2" />
<path d="M316,2323 L179,2622" stroke="blue" stroke-width="2" />
<path d="M1216,2006 L1117,3287" stroke="blue" stroke-width="2" />
<path d="M1392,3618 L689,3709" stroke="blue" stroke-width="2" />
<path d="M1812,3939 L645,966" stroke="blue" stroke-width="2" />
<path d="M1452,2876 L1275,3754" stroke="blue" stroke-width="2" />
<path d="M1620,3067 L321,2282" stroke="blue" stroke-width="2" />
<path d="M945,2439 L752,1781" stroke="blue" stroke-width="2" />
<path d="M1711,3926 L162,902" stroke="blue" stroke-width="2" />
<path d="M406,2963 L104,1567" stroke="blue" stroke-width="2" />
<path d="M1375,297 L1714,81" stroke="blue" stroke-width="2" />
<path d="M982,2729 L1153,12" stroke="blue" stroke-width="2" />
<path d="M1581,3695 L100,463" stroke="blue" stroke-width="2" />
<path d="M1246,2917 L831,1507" stroke="blue" stroke-width="2" />
<path d="M1402,482 L1309,480" stroke="blue" stroke-width="2" />
<path d="M652,1137 L1463,3751" stroke="blue" stroke-width="2" />
<path d="M53,749 L788,2659" stroke="blue" stroke-width="2" />
<path d="M667,2758 L1460,3864" stroke="blue" stroke-width="2" />
<path d="M1811,1996 L99,675" stroke="blue" stroke-width="2" />
<path d="M1724,241 L1036,2181" stroke="blue" stroke-width="2" />
<path d="M998,3824 L1,1369" stroke="blue" stroke-width="2" />
<path d="M585,974 L1290,3449" stroke="blue" stroke-width="2" />
<path d="M391,3596 L1783,2229" stroke="blue" stroke-width="2" />
<path d="M688,408 L606,989" stroke="blue" stroke-width="2" />
<path d="M647,1632 L843,2872" stroke="blue" stroke-width="2" />
<path d="M1716,2875 L752,3922" stroke="blue" stroke-width="2" />
<path d="M1416,3497 L1522,298" stroke="blue" stroke-width="2" />
<path d="M1286,3120 L819,1751" stroke="blue" stroke-width="2" />
<path d="M88,3483 L64,1228" stroke="blue" stroke-width="2" />
<path d="M433,162 L940,2831" stroke="blue" stroke-width="2" />
<path d="M1197,3875 L1048,1792" stroke="blue" stroke-width="2" />
<path d="M176,1891 L652,1438" stroke="blue" stroke-width="2" />
<path d="M203,3220 L211,795" stroke="blue" stroke-width="2" />
<path d="M1393,2633 L1688,424" stroke="blue" stroke-width="2" />
<path d="M1094,50 L357,2198" stroke="blue" stroke-width="2" />
<path d="M205,1678 L1247,11" stroke="blue" stroke-width="2" />
<path d="M627,2303 L113,2453" stroke="blue" stroke-width="2" />
<path d="M1710,960 L1095,601" stroke="blue" stroke-width="2" />
<path d="M465,780 L1196,669" stroke="blue" stroke-width="2" />
<path d="M156,899 L90,2087" stroke="blue" stroke-width="2" />
<path d="M1586,3102 L812,1370" stroke="blue" stroke-width="2" />
<path d="M438,743 L330,3394" stroke="blue" stroke-width="2" />
<path d="M633,923 L548,3897" stroke="blue" stroke-width="2" />
<path d="M506,339 L1039,2120" stroke="blue" stroke-width="2" />
<path d="M261,3614 L402,2017" stroke="blue" stroke-width="2" />
<path d="M713,3922 L996,680" stroke="blue" stroke-width="2" />
<path d="M268,2762 L281,903" stroke="blue" stroke-width="2" />
<path d="M252,1673 L1068,2038" stroke="blue" stroke-width="2" />
<path d="M1553,2276 L31,941" stroke="blue" stroke-width="2" />
<path d="M291,2516 L121,3673" stroke="blue" stroke-width="2" />
<path d="M5,1902 L1783,276" stroke="blue" stroke-width="2" />
<path d="M801,1058 L950,287" stroke="blue" stroke-width="2" />
<path d="M236,1158 L963,1515" stroke="blue" stroke-width="2" />
<path d="M1620,22 L81,1605" stroke="blue" stroke-width="2" />
<path d="M1017,3098 L888,3839" stroke="blue" stroke-width="2" />
<path d="M1137,600 L54,2851" stroke="blue" stroke-width="2" />
<path d="M708,3928 L1811,1084" stroke="blue" stroke-width="2" />
<path d="M935,2681 L312,3898" stroke="blue" stroke-width="2" />
<path d="M1723,392 L1564,411" stroke="blue" stroke-width="2" />
<path d="M921,461 L801,2648" stroke="blue" stroke-width="2" />
<path d="M766,2078 L1214,3849" stroke="blue" stroke-width="2" />
<path d="M1438,3113 L1585,1559" stroke="blue" stroke-width="2" />
<path d="M1617,2455 L1757,3208" stroke="blue" stroke-width="2" />
<path d="M886,3814 L849,1512" stroke="blue" stroke-width="2" />
<path d="M224,1918 L333,2550" stroke="blue" stroke-width="2" />
<path d="M517,2044 L662,1253" stroke="blue" stroke-width="2" />
<path d="M938,2226 L898,3303" stroke="blue" stroke-width="2" />
<path d="M1505,3591 L884,2340" stroke="blue" stroke-width="2" />
<path d="M1144,1805 L1072,1624" stroke="blue" stroke-width="2" />
<path d="M366,2478 L1136,17" stroke="blue" stroke-width="2" />
<path d="M932,902 L1124,1115" stroke="blue" stroke-width="2" />
<path d="M889,309 L947,608" stroke="blue" stroke-width="2" />
<path d="M642,868 L1791,2459" stroke="blue" stroke-width="2" />
<path d="M60,3364 L67,3991" stroke="blue" stroke-width="2" />
<path d="M174,1827 L171,3194" stroke="blue" stroke-width="2" />
<path d="M1447,2793 L406,1894" stroke="blue" stroke-width="2" />
<path d="M1460,2562 L1780,3118" stroke="blue" stroke-width="2" />
<path d="M1492,2664 L688,3346" stroke="blue" stroke-width="2" />
<path d="M453,2447 L657,2441" stroke="blue" stroke-width="2" />
<path d="M303,1560 L1255,2269" stroke="blue" stroke-width="2" />
<path d="M695,1980 L774,3197" stroke="blue" stroke-width="2" />
<path d="M381,674 L1504,1595" stroke="blue" stroke-width="2" />
<path d="M1388,2446 L1205,2616" stroke="blue" stroke-width="2" />
<path d="M1452,780 L293,1132" stroke="blue" stroke-width="2" />
<path d="M611,3781 L904,2406" stroke="blue" stroke-width="2" />
<path d="M1308,3206 L1088,987" stroke="blue" stroke-width="2" />
<path d="M667,2998 L406,2232" stroke="blue" stroke-width="2" />
<path d="M1388,3180 L733,2264" stroke="blue" stroke-width="2" />
<path d="M1513,2059 L845,828" stroke="blue" stroke-width="2" />
<path d="M1416,2151 L1012,2092" stroke="blue" stroke-width="2" />
<path d="M926,864 L372,958" stroke="blue" stroke-width="2" />
<path d="M688,1421 L828,3518" stroke="blue" stroke-width="2" />
<path d="M1286,2832 L121,2684" stroke="blue" stroke-width="2" />
<path d="M1106,381 L858,710" stroke="blue" stroke-width="2" />
<path d="M1532,1617 L1128,46" stroke="blue" stroke-width="2" />
<path d="M384,1643 L403,3709" stroke="blue" stroke-width="2" />
<path d="M880,2168 L1250,3446" stroke="blue" stroke-width="2" />
<path d="M424,2389 L612,2660" stroke="blue" stroke-width="2" />
<path d="M484,1162 L279,903" stroke="blue" stroke-width="2" />
<path d="M919,3071 L329,1354" stroke="blue" stroke-width="2" />
<path d="M460,1117 L1606,1163" stroke="blue" stroke-width="2" />
<path d="M1228,2951 L1741,501" stroke="blue" stroke-width="2" />
<path d="M676,3126 L1384,1409" stroke="blue" stroke-width="2" />
<path d="M1124,2214 L234,3802" stroke="blue" stroke-width="2" />
<path d="M1649,950 L916,89" stroke="blue" stroke-width="2" />
<path d="M1203,4021 L4,1304" stroke="blue" stroke-width="2" />
<path d="M334,3607 L620,3760" stroke="blue" stroke-width="2" />
<path d="M1702,282 L307,820" stroke="blue" stroke-width="2" />
<path d="M839,3974 L746,2864" stroke="blue" stroke-width="2" />
<path d="M1194,2296 L991,2369" stroke="blue" stroke-width="2" />
<path d="M231,2459 L544,3302" stroke="blue" stroke-width="2" />
<path d="M20,1424 L1682,1689" stroke="blue" stroke-width="2" />
<path d="M953,1056 L399,3982" stroke="blue" stroke-width="2" />
<path d="M1579,1313 L1214,2713" stroke="blue" stroke-width="2" />
<path d="M745,1942 L594,3681" stroke="blue" stroke-width="2" />
<path d="M337,2598 L1282,3256" stroke="blue" stroke-width="2" />
<path d="M175,2882 L1616,2591" stroke="blue" stroke-width="2" />
<path d="M965,2030 L533,1892" stroke="blue" stroke-width="2" />
<path d="M1808,2717 L285,3483" stroke="blue" stroke-width="2" />
<path d="M1779,839 L1722,2332" stroke="blue" stroke-width="2" />
<path d="M398,3466 L55,780" stroke="blue" stroke-width="2" />
<path d="M1517,1618 L1363,503" stroke="blue" stroke-width="2" />
<path d="M1548,3403 L1292,1371" stroke="blue" stroke-width="2" />
<path d="M500,730 L736,3604" stroke="blue" stroke-width="2" />
<path d="M592,491 L676,3543" stroke="blue" stroke-width="2" />
<path d="M530,2055 L1292,2772" stroke="blue" stroke-width="2" />
<path d="M1478,832 L1403,3944" stroke="blue" stroke-width="2" />
<path d="M464,1323 L1018,1741" stroke="blue" stroke-width="2" />
<path d="M1321,1772 L893,1277" stroke="blue" stroke-width="2" />
<path d="M420,2070 L1742,718" stroke="blue" stroke-width="2" />
<path d="M1467,3015 L750,2795" stroke="blue" stroke-width="2" />
<path d="M466,1513 L1362,3321" stroke="blue" stroke-width="2" />
<path d="M1633,3471 L1021,3052" stroke="blue" stroke-width="2" />
<path d="M186,551 L720,1542" stroke="blue" stroke-width="2" />
<path d="M1216,3491 L1029,3339" stroke="blue" stroke-width="2" />
<path d="M587,2632 L476,1641" stroke="blue" stroke-width="2" />
<path d="M262,1690 L979,1031" stroke="blue" stroke-width="2" />
<path d="M1375,1873 L1459,1799" stroke="blue" stroke-width="2" />
<path d="M945,816 L712,855" stroke="blue" stroke-width="2" />
<path d="M455,1978 L1357,1642" stroke="blue" stroke-width="2" />
<path d="M310,2895 L400,1356" stroke="blue" stroke-width="2" />
<path d="M483,433 L858,2568" stroke="blue" stroke-width="2" />
<path d="M235,774 L1541,766" stroke="blue" stroke-width="2" />
<path d="M752,2805 L201,2777" stroke="blue" stroke-width="2" />
<path d="M1663,1420 L1124,3656" stroke="blue" stroke-width="2" />
<path d="M578,487 L137,3328" stroke="blue" stroke-width="2" />
<path d="M1400,3725 L390,3056" stroke="blue" stroke-width="2" />
<path d="M356,47 L1399,3285" stroke="blue" stroke-width="2" />
<path d="M873,794 L1135,2368" stroke="blue" stroke-width="2" />
<path d="M207,3138 L792,2029" stroke="blue" stroke-width="2" />
<path d="M1369,1699 L942,2887" stroke="blue" stroke-width="2" />
<path d="M1311,3659 L28,651" stroke="blue" stroke-width="2" />
<path d="M745,3596 L332,3592" stroke="blue" stroke-width="2" />
<path d="M1645,1015 L1509,1404" stroke="blue" stroke-width="2" />
<path d="M1682,3316 L525,367" stroke="blue" stroke-width="2" />
<path d="M612,3982 L1706,2230" stroke="blue" stroke-width="2" />
<path d="M1743,3548 L1065,1162" stroke="blue" stroke-width="2" />
<path d="M485,2626 L64,1528" stroke="blue" stroke-width="2" />
<path d="M1610,2023 L1776,1917" stroke="blue" stroke-width="2" />
<path d="M70,3160 L695,3764" stroke="blue" stroke-width="2" />
<path d="M1038,2421 L1382,3793" stroke="blue" stroke-width="2" />
<path d="M422,2428 L188,656" stroke="blue" stroke-width="2" />
<path d="M121,1140 L254,3146" stroke="blue" stroke-width="2" />
<path d="M521,995 L87,2854" stroke="blue" stroke-width="2" />
<path d="M1275,3048 L1267,2072" stroke="blue" stroke-width="2" />
<path d="M1187,2092 L282,3888" stroke="blue" stroke-width="2" />
<path d="M594,3397 L342,2825" stroke="blue" stroke-width="2" />
<path d="M1155,2088 L831,3362" stroke="blue" stroke-width="2" />
<path d="M486,1195 L37,3970" stroke="blue" stroke-width="2" />
<path d="M86,1458 L653,1918" stroke="blue" stroke-width="2" />
<path d="M1570,2073 L910,1606" stroke="blue" stroke-width="2" />
<path d="M174,832 L1545,2250" stroke="blue" stroke-width="2" />
<path d="M684,892 L745,565" stroke="blue" stroke-width="2" />
<path d="M1133,2934 L74,2574" stroke="blue" stroke-width="2" />
<path d="M1373,58 L253,1127" stroke="blue" stroke-width="2" />
<path d="M1556,991 L632,3375" stroke="blue" stroke-width="2" />
<path d="M187,3650 L930,1009" stroke="blue" stroke-width="2" />
<path d="M800,1226 L1198,1011" stroke="blue" stroke-width="2" />
<path d="M1004,3598 L1051,2175" stroke="blue" stroke-width="2" />
<path d="M1008,84 L950,140" stroke="blue" stroke-width="2" />
<path d="M857,1708 L738,2090" stroke="blue" stroke-width="2" />
<path d="M722,3157 L356,3416" stroke="blue" stroke-width="2" />
<path d="M286,1255 L920,1295" stroke="blue" stroke-width="2" />
<path d="M610,2135 L700,768" stroke="blue" stroke-width="2" />
<path d="M1382,3825 L914,2603" stroke="blue" stroke-width="2" />
<path d="M97,1415 L74,1506" stroke="blue" stroke-width="2" />
<path d="M72,2889 L800,2080" stroke="blue" stroke-width="2" />
<path d="M532,1311 L1169,1623" stroke="blue" stroke-width="2" />
<path d="M1433,819 L1434,390" stroke="blue" stroke-width="2" />
<path d="M1399,1062 L198,2108" stroke="blue" stroke-width="2" />
<path d="M143,3370 L792,1751" stroke="blue" stroke-width="2" />
<path d="M514,321 L201,2012" stroke="blue" stroke-width="2" />
<path d="M139,466 L1178,417" stroke="blue" stroke-width="2" />
<path d="M281,95 L482,3897" stroke="blue" stroke-width="2" />
<path d="M1514,385 L863,2596" stroke="blue" stroke-width="2" />
<path d="M1240,2720 L242,1387" stroke="blue" stroke-width="2" />
<path d="M23,2591 L1350,2992" stroke="blue" stroke-width="2" />
<path d="M1587,541 L298,615" stroke="blue" stroke-width="2" />
<path d="M1751,1330 L357,3325" stroke="blue" stroke-width="2" />
<path d="M1281,1449 L1703,2030" stroke="blue" stroke-width="2" />
<path d="M1077,1416 L813,2925" stroke="blue" stroke-width="2" />
<path d="M876,1010 L1060,10" stroke="blue" stroke-width="2" />
<path d="M173,1017 L868,2211" stroke="blue" stroke-width="2" />
<path d="M375,3111 L686,389" stroke="blue" stroke-width="2" />
<path d="M1260,241 L831,3126" stroke="blue" stroke-width="2" />
<path d="M200,310 L1480,1314" stroke="blue" stroke-width="2" />
<path d="M816,148 L67,646" stroke="blue" stroke-width="2" />
<path d="M3,1315 L1534,2206" stroke="blue" stroke-width="2" />
<path d="M786,1651 L1243,326" stroke="blue" stroke-width="2" />
<path d="M1191,1053 L1143,2109" stroke="blue" stroke-width="2" />
<path d="M1693,2593 L880,3988" stroke="blue" stroke-width="2" />
<path d="M572,1851 L576,1954" stroke="blue" stroke-width="2" />
<path d="M136,176 L606,3623" stroke="blue" stroke-width="2" />
<path d="M1475,2118 L341,441" stroke="blue" stroke-width="2" />
<path d="M189,59 L984,676" stroke="blue" stroke-width="2" />
<path d="M23,761 L1800,1044" stroke="blue" stroke-width="2" />
<path d="M224,1827 L12,3102" stroke="blue" stroke-width="2" />
<path d="M435,830 L1497,2818" stroke="blue" stroke-width="2" />
<path d="M1144,2334 L1489,330" stroke="blue" stroke-width="2" />
<path d="M1029,296 L530,3366" stroke="blue" stroke-width="2" />
<path d="M1808,1233 L1749,3431" stroke="blue" stroke-width="2" />
<path d="M565,902 L711,882" stroke="blue" stroke-width="2" />
<path d="M586,3538 L989,577" stroke="blue" stroke-width="2" />
<path d="M674,229 L1749,2269" stroke="blue" stroke-width="2" />
<path d="M1601,1926 L1428,257" stroke="blue" stroke-width="2" />
<path d="M1606,3505 L489,2384" stroke="blue" stroke-width="2" />
<path d="M830,3936 L75,1407" stroke="blue" stroke-width="2" />
<path d="M1012,2883 L25,3398" stroke="blue" stroke-width="2" />
<path d="M1520,849 L1580,88" stroke="blue" stroke-width="2" />
<path d="M1534,1508 L1751,3539" stroke="blue" stroke-width="2" />
<path d="M1037,3626 L336,3305" stroke="blue" stroke-width="2" />
<path d="M858,1002 L966,1396" stroke="blue" stroke-width="2" />
<path d="M224,3628 L629,1517" stroke="blue" stroke-width="2" />
<path d="M965,266 L1463,3632" stroke="blue" stroke-width="2" />
<path d="M1175,869 L396,3140" stroke="blue" stroke-width="2" />
<path d="M1632,635 L417,1322" stroke="blue" stroke-width="2" />
<path d="M1153,3057 L1269,3493" stroke="blue" stroke-width="2" />
<path d="M1564,3610 L1769,2821" stroke="blue" stroke-width="2" />
<path d="M753,3986 L624,1336" stroke="blue" stroke-width="2" />
<path d="M977,2744 L710,1321" stroke="blue" stroke-width="2" />
<path d="M1283,551 L376,1858" stroke="blue" stroke-width="2" />
<path d="M935,2826 L1324,2622" stroke="blue" stroke-width="2" />
<path d="M333,3244 L157,3925" stroke="blue" stroke-width="2" />
<path d="M362,972 L1580,3604" stroke="blue" stroke-width="2" />
<path d="M628,2684 L1576,224" stroke="blue" stroke-width="2" />
<path d="M1147,1059 L80,306" stroke="blue" stroke-width="2" />
<path d="M486,715 L1423,2693" stroke="blue" stroke-width="2" />
<path d="M43,64 L692,2590" stroke="blue" stroke-width="2" />
<path d="M1565,905 L1028,2733" stroke="blue" stroke-width="2" />
<path d="M267,2261 L1704,3655" stroke="blue" stroke-width="2" />
<path d="M1387,319 L497,383" stroke="blue" stroke-width="2" />
<path d="M232,3572 L1720,3362" stroke="blue" stroke-width="2" />
<path d="M937,53 L470,3340" stroke="blue" stroke-width="2" />
<path d="M60,1331 L1145,1776" stroke="blue" stroke-width="2" />
<path d="M798,1582 L64,2203" stroke="blue" stroke-width="2" />
<path d="M609,493 L1526,2630" stroke="blue" stroke-width="2" />
<path d="M1357,2378 L1490,2394" stroke="blue" stroke-width="2" />
<path d="M839,2162 L364,3101" stroke="blue" stroke-width="2" />
<path d="M346,3132 L169,3378" stroke="blue" stroke-width="2" />
<path d="M478,2528 L1153,1633" stroke="blue" stroke-width="2" />
<path d="M1254,57 L134,3552" stroke="blue" stroke-width="2" />
<path d="M106,1346 L529,3001" stroke="blue" stroke-width="2" />
<path d="M1222,3338 L587,1921" stroke="blue" stroke-width="2" />
<path d="M588,3678 L333,3731" stroke="blue" stroke-width="2" />
<path d="M1635,3073 L68,1254" stroke="blue" stroke-width="2" />
<path d="M369,141 L452,3262" stroke="blue" stroke-width="2" />
<path d="M619,3611 L1186,42" stroke="blue" stroke-width="2" />
<path d="M878,1955 L442,86" stroke="blue" stroke-width="2" />
<path d="M1391,3751 L186,3013" stroke="blue" stroke-width="2" />
<path d="M1164,3681 L1161,3483" stroke="blue" stroke-width="2" />
<path d="M887,4015 L1406,3895" stroke="blue" stroke-width="2" />
<path d="M267,978 L582,667" stroke="blue" stroke-width="2" />
<path d="M387,1513 L489,1809" stroke="blue" stroke-width="2" />
<path d="M1461,754 L1172,3317" stroke="blue" stroke-width="2" />
<path d="M902,128 L1079,1555" stroke="blue" stroke-width="2" />
<path d="M305,3389 L590,2506" stroke="blue" stroke-width="2" />
<path d="M1593,61 L102,2212" stroke="blue" stroke-width="2" />
<path d="M692,3389 L1557,2687" stroke="blue" stroke-width="2" />
<path d="M1576,1708 L1593,1175" stroke="blue" stroke-width="2" />
<path d="M1063,1321 L370,2840" stroke="blue" stroke-width="2" />
<path d="M825,938 L1267,3616" stroke="blue" stroke-width="2" />
<path d="M1251,2186 L1623,2301" stroke="blue" stroke-width="2" />
<path d="M1362,3069 L1484,358" stroke="blue" stroke-width="2" />
<path d="M1495,2143 L1415,3748" stroke="blue" stroke-width="2" />
<path d="M1059,3477 L487,747" stroke="blue" stroke-width="2" />
<path d="M577,1427 L1749,3560" stroke="blue" stroke-width="2" />
<path d="M1315,3459 L1522,3995" stroke="blue" stroke-width="2" />
<path d="M3,1664 L1571,2866" stroke="blue" stroke-width="2" />
<path d="M936,3808 L616,1657" stroke="blue" stroke-width="2" />
<path d="M988,1033 L1020,961" stroke="blue" stroke-width="2" />
<path d="M639,38 L1726,2401" stroke="blue" stroke-width="2" />
<path d="M635,872 L1225,1159" stroke="blue" stroke-width="2" />
<path d="M1133,2579 L941,3" stroke="blue" stroke-width="2" />
<path d="M527,1568 L717,3177" stroke="blue" stroke-width="2" />
<path d="M1403,765 L1125,3409" stroke="blue" stroke-width="2" />
<path d="M821,1650 L1678,3610" stroke="blue" stroke-width="2" />
<path d="M1591,3667 L962,3628" stroke="blue" stroke-width="2" />
<path d="M564,3488 L734,950" stroke="blue" stroke-width="2" />
<path d="M445,3613 L353,2954" stroke="blue" stroke-width="2" />
<path d="M510,3905 L1775,3808" stroke="blue" stroke-width="2" />
<path d="M1249,2660 L1469,565" stroke="blue" stroke-width="2" />
<path d="M1671,325 L478,372" stroke="blue" stroke-width="2" />
<path d="M1269,3818 L108,42" stroke="blue" stroke-width="2" />
<path d="M1177,376 L1811,2479" stroke="blue" stroke-width="2" />
<path d="M370,15 L952,1104" stroke="blue" stroke-width="2" />
<path d="M658,1768 L1013,833" stroke="blue" stroke-width="2" />
<path d="M1017,1166 L565,2475" stroke="blue" stroke-width="2" />
<path d="M652,2273 L940,2480" stroke="blue" stroke-width="2" />
<path d="M34,262 L1160,931" stroke="blue" stroke-width="2" />
<path d="M965,357 L105,1934" stroke="blue" stroke-width="2" />
<path d="M945,3266 L998,2004" stroke="blue" stroke-width="2" />
<path d="M773,2352 L1285,616" stroke="blue" stroke-width="2" />
<path d="M1251,189 L1441,742" stroke="blue" stroke-width="2" />
<path d="M686,236 L595,722" stroke="blue" stroke-width="2" />
<path d="M904,198 L907,3557" stroke="blue" stroke-width="2" />
<path d="M1806,943 L502,3700" stroke="blue" stroke-width="2" />
<path d="M730,1425 L1799,3238" stroke="blue" stroke-width="2" />
<path d="M1188,2166 L271,2298" stroke="blue" stroke-width="2" />
<path d="M33,1512 L890,2971" stroke="blue" stroke-width="2" />
<path d="M781,265 L955,3181" stroke="blue" stroke-width="2" />
<path d="M179,4017 L1071,3853" stroke="blue" stroke-width="2" />
<path d="M1041,2975 L953,1477" stroke="blue" stroke-width="2" />
<path d="M1465,3541 L1012,1044" stroke="blue" stroke-width="2" />
<path d="M959,2746 L1263,1082" stroke="blue" stroke-width="2" />
<path d="M944,3304 L163,3043" stroke="blue" stroke-width="2" />
<path d="M411,3242 L872,3418" stroke="blue" stroke-width="2" />
<path d="M285,156 L260,2634" stroke="blue" stroke-width="2" />
<path d="M461,2987 L1359,2924" stroke="blue" stroke-width="2" />
<path d="M1248,3209 L1092,1810" stroke="blue" stroke-width="2" />
<path d="M1523,2066 L1582,3967" stroke="blue" stroke-width="2" />
<path d="M737,2911 L1355,1566" stroke="blue" stroke-width="2" />
<path d="M1777,2110 L1043,105" stroke="blue" stroke-width="2" />
<path d="M0,0 L1819,0" stroke="red" stroke-width="10" />
<path d="M1819,0 L1819,4040" stroke="red" stroke-width="10" />
<path d="M0,4040 L1819,4040" stroke="red" stroke-width="10" />
<path d="M0,4040 L0,0" stroke="red" stroke-width="10" />
</svg>