<?xml version="1.0" encoding="UTF-8"?>
<svg xmlns="http://www.w3.org/2000/svg" xmlns:xlink="http://www.w3.org/1999/xlink"
     width="10000" height="10000" viewBox="0 0 10000 10000">
<defs>
</defs>
<path d="M6608,2616 L5133,330" stroke="blue" stroke-width="2" />
<path d="M6981,1603 L1208,288" stroke="blue" stroke-width="2" />
<path d="M3346,3328 L4854,4043" stroke="blue" stroke-width="2" />
<path d="M3343,2461 L5635,3391" stroke="blue" stroke-width="2" />
<path d="M7836,709 L4935,788" stroke="blue" stroke-width="2" />
<path d="M6015,3884 L1653,1362" stroke="blue" stroke-width="2" />
<path d="M964,5556 L40,4777" stroke="blue" stroke-width="2" />
<path d="M5214,2847 L3734,4506" stroke="blue" stroke-width="2" />
<path d="M2231,2517 L710,2707" stroke="blue" stroke-width="2" />
<path d="M2558,80 L1507,4995" stroke="blue" stroke-width="2" />
<path d="M4514,1482 L550,2469" stroke="blue" stroke-width="2" />
<path d="M2833,528 L1951,1511" stroke="blue" stroke-width="2" />
<path d="M888,1109 L5067,1327" stroke="blue" stroke-width="2" />
<path d="M3284,562 L6048,1361" stroke="blue" stroke-width="2" />
<path d="M7190,4121 L8470,2176" stroke="blue" stroke-width="2" />
<path d="M8169,3117 L3665,2279" stroke="blue" stroke-width="2" />
<path d="M5554,3924 L1790,4190" stroke="blue" stroke-width="2" />
<path d="M4941,4559 L4138,1328" stroke="blue" stroke-width="2" />
<path d="M7402,3625 L5815,3657" stroke="blue" stroke-width="2" />
<path d="M5002,2094 L6846,5857" stroke="blue" stroke-width="2" />
<path d="M5670,5825 L8163,4450" stroke="blue" stroke-width="2" />
<path d="M1860,3254 L7524,2321" stroke="blue" stroke-width="2" />
<path d="M4468,1135 L2691,4744" stroke="blue" stroke-width="2" />
<path d="M1197,2069 L3788,899" stroke="blue" stroke-width="2" />
<path d="M3897,5548 L473,4135" stroke="blue" stroke-width="2" />
<path d="M8736,5544 L5396,2699" stroke="blue" stroke-width="2" />
<path d="M5535,180 L7738,781" stroke="blue" stroke-width="2" />
<path d="M8349,1113 L4783,3071" stroke="blue" stroke-width="2" />
<path d="M3514,1670 L1235,3143" stroke="blue" stroke-width="2" />
<path d="M7844,2970 L7446,4686" stroke="blue" stroke-width="2" />
<path d="M5276,193 L6980,3598" stroke="blue" stroke-width="2" />
<path d="M8352,2811 L1281,4746" stroke="blue" stroke-width="2" />
<path d="M4911,2522 L1053,4933" stroke="blue" stroke-width="2" />
<path d="M5226,3537 L4016,1807" stroke="blue" stroke-width="2" />
<path d="M6106,2043 L6856,2307" stroke="blue" stroke-width="2" />
<path d="M4690,2548 L6963,1512" stroke="blue" stroke-width="2" />
<path d="M7372,4194 L8143,379" stroke="blue" stroke-width="2" />
<path d="M498,5775 L2896,1143" stroke="blue" stroke-width="2" />
<path d="M948,5226 L3600,3904" stroke="blue" stroke-width="2" />
<path d="M4522,4467 L6555,1820" stroke="blue" stroke-width="2" />
<path d="M2198,3572 L7198,713" stroke="blue" stroke-width="2" />
<path d="M1726,3476 L6099,1161" stroke="blue" stroke-width="2" />
<path d="M5571,2218 L2864,1405" stroke="blue" stroke-width="2" />
<path d="M5220,1851 L614,3624" stroke="blue" stroke-width="2" />
<path d="M3544,4643 L2198,2982" stroke="blue" stroke-width="2" />
<path d="M6110,3420 L3351,2716" stroke="blue" stroke-width="2" />
<path d="M6898,2128 L4234,4836" stroke="blue" stroke-width="2" />
<path d="M255,1639 L5804,2128" stroke="blue" stroke-width="2" />
<path d="M4906,3439 L1711,4029" stroke="blue" stroke-width="2" />
<path d="M3200,2928 L6901,2244" stroke="blue" stroke-width="2" />
<path d="M3219,2931 L3442,1532" stroke="blue" stroke-width="2" />
<path d="M4783,3099 L5162,2166" stroke="blue" stroke-width="2" />
<path d="M2130,614 L3110,3092" stroke="blue" stroke-width="2" />
<path d="M6777,1367 L2992,2906" stroke="blue" stroke-width="2" />
<path d="M2705,5066 L7923,4398" stroke="blue" stroke-width="2" />
<path d="M4754,3456 L7573,3442" stroke="blue" stroke-width="2" />
<path d="M7590,5723 L5208,435" stroke="blue" stroke-width="2" />
<path d="M699,1408 L4092,689" stroke="blue" stroke-width="2" />
<path d="M2212,59 L2905,4791" stroke="blue" stroke-width="2" />
<path d="M1349,1990 L4388,3891" stroke="blue" stroke-width="2" />
<path d="M8753,3423 L4844,4043" stroke="blue" stroke-width="2" />
<path d="M4474,56 L117,4782" stroke="blue" stroke-width="2" />
<path d="M1530,2527 L6933,1347" stroke="blue" stroke-width="2" />
<path d="M8149,3961 L7278,2986" stroke="blue" stroke-width="2" />
<path d="M843,2939 L5673,4236" stroke="blue" stroke-width="2" />
<path d="M6448,5202 L7088,5740" stroke="blue" stroke-width="2" />
<path d="M6618,1029 L1739,3373" stroke="blue" stroke-width="2" />
<path d="M1855,4790 L1385,1640" stroke="blue" stroke-width="2" />
<path d="M2386,2690 L3950,4835" stroke="blue" stroke-width="2" />
<path d="M6348,1435 L2460,2986" stroke="blue" stroke-width="2" />
<path d="M2529,4882 L1135,5301" stroke="blue" stroke-width="2" />
<path d="M5334,937 L6330,5028" stroke="blue" stroke-width="2" />
<path d="M6012,1616 L1237,1554" stroke="blue" stroke-width="2" />
<path d="M5075,2186 L1625,4839" stroke="blue" stroke-width="2" />
<path d="M6803,292 L2377,5174" stroke="blue" stroke-width="2" />
<path d="M3736,2102 L6338,171" stroke="blue" stroke-width="2" />
<path d="M564,1923 L7674,5779" stroke="blue" stroke-width="2" />
<path d="M5653,1001 L5307,3263" stroke="blue" stroke-width="2" />
<path d="M1500,1433 L7313,5753" stroke="blue" stroke-width="2" />
<path d="M6986,5012 L5383,2159" stroke="blue" stroke-width="2" />
<path d="M5131,5748 L892,300" stroke="blue" stroke-width="2" />
<path d="M2046,5115 L1196,5258" stroke="blue" stroke-width="2" />
<path d="M1448,355 L580,4292" stroke="blue" stroke-width="2" />
<path d="M5245,3695 L5827,2791" stroke="blue" stroke-width="2" />
<path d="M1776,1281 L7280,3921" stroke="blue" stroke-width="2" />
<path d="M2553,4978 L5324,3412" stroke="blue" stroke-width="2" />
<path d="M2612,1785 L8738,2957" stroke="blue" stroke-width="2" />
<path d="M8296,3628 L6910,1873" stroke="blue" stroke-width="2" />
<path d="M275,3735 L8276,919" stroke="blue" stroke-width="2" />
<path d="M5384,5388 L2574,982" stroke="blue" stroke-width="2" />
<path d="M909,1195 L7606,5430" stroke="blue" stroke-width="2" />
<path d="M8782,2864 L591,3420" stroke="blue" stroke-width="2" />
<path d="M2736,3265 L4850,2435" stroke="blue" stroke-width="2" />
<path d="M3014,3793 L8572,5460" stroke="blue" stroke-width="2" />
<path d="M6183,5876 L3586,2040" stroke="blue" stroke-width="2" />
<path d="M7809,1227 L609,206" stroke="blue" stroke-width="2" />
<path d="M2682,2593 L7217,1157" stroke="blue" stroke-width="2" />
<path d="M640,3905 L7871,4201" stroke="blue" stroke-width="2" />
<path d="M3225,448 L4187,4140" stroke="blue" stroke-width="2" />
<path d="M4461,5799 L5647,684" stroke="blue" stroke-width="2" />
<path d="M5744,5421 L6057,2139" stroke="blue" stroke-width="2" />
<path d="M7883,4868 L5121,257" stroke="blue" stroke-width="2" />
<path d="M8533,3531 L3113,1585" stroke="blue" stroke-width="2" />
<path d="M7344,5318 L7313,1938" stroke="blue" stroke-width="2" />
<path d="M50,5843 L7038,4371" stroke="blue" stroke-width="2" />
<path d="M2679,5591 L8229,2572" stroke="blue" stroke-width="2" />
<path d="M6530,991 L8565,5884" stroke="blue" stroke-width="2" />
<path d="M216,1217 L7184,3002" stroke="blue" stroke-width="2" />
<path d="M3730,1543 L8182,3092" stroke="blue" stroke-width="2" />
<path d="M7257,4618 L4269,3338" stroke="blue" stroke-width="2" />
<path d="M2380,4364 L5393,1820" stroke="blue" stroke-width="2" />
<path d="M3385,2204 L4575,3225" stroke="blue" stroke-width="2" />
<path d="M3659,1108 L4757,3023" stroke="blue" stroke-width="2" />
<path d="M8706,2859 L59,3496" stroke="blue" stroke-width="2" />
<path d="M4441,1081 L6946,202" stroke="blue" stroke-width="2" />
<path d="M7743,2739 L4510,5436" stroke="blue" stroke-width="2" />
<path d="M2416,720 L1443,1920" stroke="blue" stroke-width="2" />
<path d="M8704,3273 L1398,3655" stroke="blue" stroke-width="2" />
<path d="M1734,4032 L2386,5229" stroke="blue" stroke-width="2" />
<path d="M5268,3877 L6123,2079" stroke="blue" stroke-width="2" />
<path d="M4570,413 L7978,1691" stroke="blue" stroke-width="2" />
<path d="M1358,1736 L8705,2118" stroke="blue" stroke-width="2" />
<path d="M8034,3038 L8489,468" stroke="blue" stroke-width="2" />
<path d="M5004,492 L8072,4470" stroke="blue" stroke-width="2" />
<path d="M5180,1700 L808,1791" stroke="blue" stroke-width="2" />
<path d="M5037,1511 L6965,1505" stroke="blue" stroke-width="2" />
<path d="M3558,712 L6201,5615" stroke="blue" stroke-width="2" />
<path d="M6566,429 L651,4039" stroke="blue" stroke-width="2" />
<path d="M7305,2497 L1651,5275" stroke="blue" stroke-width="2" />
<path d="M353,3825 L5355,619" stroke="blue" stroke-width="2" />
<path d="M6742,553 L5160,2181" stroke="blue" stroke-width="2" />
<path d="M158,3085 L1018,3505" stroke="blue" stroke-width="2" />
<path d="M6794,4930 L4141,1107" stroke="blue" stroke-width="2" />
<path d="M3120,184 L4833,2219" stroke="blue" stroke-width="2" />
<path d="M2525,2707 L3355,659" stroke="blue" stroke-width="2" />
<path d="M2411,5722 L2940,3659" stroke="blue" stroke-width="2" />
<path d="M1186,4475 L8800,1299" stroke="blue" stroke-width="2" />
<path d="M5065,2527 L645,4290" stroke="blue" stroke-width="2" />
<path d="M4259,653 L68,5229" stroke="blue" stroke-width="2" />
<path d="M3915,2280 L5486,4487" stroke="blue" stroke-width="2" />
<path d="M5933,2075 L7930,2555" stroke="blue" stroke-width="2" />
<path d="M5928,4463 L8412,3541" stroke="blue" stroke-width="2" />
<path d="M859,2741 L4466,3369" stroke="blue" stroke-width="2" />
<path d="M7555,5812 L4483,2872" stroke="blue" stroke-width="2" />
<path d="M2695,757 L888,4818" stroke="blue" stroke-width="2" />
<path d="M961,679 L5223,2678" stroke="blue" stroke-width="2" />
<path d="M3877,48 L2407,4360" stroke="blue" stroke-width="2" />
<path d="M3855,1569 L3913,2121" stroke="blue" stroke-width="2" />
<path d="M7058,2350 L7584,1279" stroke="blue" stroke-width="2" />
<path d="M5869,438 L2229,5017" stroke="blue" stroke-width="2" />
<path d="M216,3189 L1690,3642" stroke="blue" stroke-width="2" />
<path d="M400,5379 L183,293" stroke="blue" stroke-width="2" />
<path d="M6655,868 L5348,5229" stroke="blue" stroke-width="2" />
<path d="M6591,4460 L3836,1772" stroke="blue" stroke-width="2" />
<path d="M3045,5861 L6204,73" stroke="blue" stroke-width="2" />
<path d="M3432,2889 L1346,3719" stroke="blue" stroke-width="2" />
<path d="M3663,425 L645,5672" stroke="blue" stroke-width="2" />
<path d="M1194,1317 L8038,4637" stroke="blue" stroke-width="2" />
<path d="M1619,4631 L2184,4584" stroke="blue" stroke-width="2" />
<path d="M7703,4934 L4277,497" stroke="blue" stroke-width="2" />
<path d="M4967,2189 L8658,5608" stroke="blue" stroke-width="2" />
<path d="M4554,2740 L8227,1605" stroke="blue" stroke-width="2" />
<path d="M3399,4018 L2580,5109" stroke="blue" stroke-width="2" />
<path d="M5515,233 L5762,2406" stroke="blue" stroke-width="2" />
<path d="M6835,2023 L8058,1781" stroke="blue" stroke-width="2" />
<path d="M1191,4319 L5157,3453" stroke="blue" stroke-width="2" />
<path d="M1916,5111 L6703,3046" stroke="blue" stroke-width="2" />
<path d="M6459,1286 L4185,4638" stroke="blue" stroke-width="2" />
<path d="M7271,4515 L155,4704" stroke="blue" stroke-width="2" />
<path d="M2972,2778 L1157,3223" stroke="blue" stroke-width="2" />
<path d="M4655,1152 L7244,5346" stroke="blue" stroke-width="2" />
<path d="M7523,2071 L3599,4530" stroke="blue" stroke-width="2" />
<path d="M8179,4150 L6237,2700" stroke="blue" stroke-width="2" />
<path d="M4537,943 L5846,1939" stroke="blue" stroke-width="2" />
<path d="M3036,2108 L5695,3325" stroke="blue" stroke-width="2" />
<path d="M7510,4206 L1047,5558" stroke="blue" stroke-width="2" />
<path d="M6082,3685 L1467,5419" stroke="blue" stroke-width="2" />
<path d="M3292,4447 L1971,4068" stroke="blue" stroke-width="2" />
<path d="M1957,778 L7762,3472" stroke="blue" stroke-width="2" />
<path d="M2977,1711 L7914,20" stroke="blue" stroke-width="2" />
<path d="M2527,1686 L1075,2491" stroke="blue" stroke-width="2" />
<path d="M692,288 L5153,5684" stroke="blue" stroke-width="2" />
<path d="M930,5510 L571,4241" stroke="blue" stroke-width="2" />
<path d="M3862,2446 L4992,2479" stroke="blue" stroke-width="2" />
<path d="M4212,393 L3918,4000" stroke="blue" stroke-width="2" />
<path d="M1397,5077 L5383,3925" stroke="blue" stroke-width="2" />
<path d="M2066,106 L677,1304" stroke="blue" stroke-width="2" />
<path d="M2272,1017 L2004,709" stroke="blue" stroke-width="2" />
<path d="M7487,5040 L1551,3089" stroke="blue" stroke-width="2" />
<path d="M7318,1381 L380,3664" stroke="blue" stroke-width="2" />
<path d="M2306,281 L5959,4399" stroke="blue" stroke-width="2" />
<path d="M4197,984 L6523,5896" stroke="blue" stroke-width="2" />
<path d="M5879,886 L1656,743" stroke="blue" stroke-width="2" />
<path d="M4796,1801 L6746,602" stroke="blue" stroke-width="2" />
<path d="M3361,2896 L4510,2628" stroke="blue" stroke-width="2" />
<path d="M5978,4432 L3970,3099" stroke="blue" stroke-width="2" />
<path d="M4085,800 L8482,3951" stroke="blue" stroke-width="2" />
<path d="M4441,696 L3562,1613" stroke="blue" stroke-width="2" />
<path d="M6722,3061 L8125,1044" stroke="blue" stroke-width="2" />
<path d="M2847,2163 L8552,5233" stroke="blue" stroke-width="2" />
<path d="M11,1044 L2557,4584" stroke="blue" stroke-width="2" />
<path d="M1553,1272 L2767,5680" stroke="blue" stroke-width="2" />
<path d="M3668,387 L5583,3142" stroke="blue" stroke-width="2" />
<path d="M6706,3489 L906,2888" stroke="blue" stroke-width="2" />
<path d="M4961,4423 L3729,5124" stroke="blue" stroke-width="2" />
<path d="M2001,5235 L8230,3934" stroke="blue" stroke-width="2" />
<path d="M5618,708 L1687,4582" stroke="blue" stroke-width="2" />
<path d="M3871,2547 L1472,5827" stroke="blue" stroke-width="2" />
<path d="M2391,1615 L5809,2066" stroke="blue" stroke-width="2" />
<path d="M8727,4421 L4027,5551" stroke="blue" stroke-width="2" />
<path d="M4242,2306 L6714,1986" stroke="blue" stroke-width="2" />
<path d="M8774,781 L4928,51" stroke="blue" stroke-width="2" />
<path d="M2558,1184 L6774,4000" stroke="blue" stroke-width="2" />
<path d="M32,1084 L4030,5088" stroke="blue" stroke-width="2" />
<path d="M3901,3546 L4768,293" stroke="blue" stroke-width="2" />
<path d="M5483,3434 L3433,4123" stroke="blue" stroke-width="2" />
<path d="M2440,3162 L1090,1151" stroke="blue" stroke-width="2" />
<path d="M2237,804 L6590,4788" stroke="blue" stroke-width="2" />
<path d="M1109,1906 L7273,2026" stroke="blue" stroke-width="2" />
<path d="M1327,4704 L5802,4234" stroke="blue" stroke-width="2" />
<path d="M5927,3906 L4932,4234" stroke="blue" stroke-width="2" />
<path d="M5723,3950 L2619,4987" stroke="blue" stroke-width="2" />
<path d="M6867,1040 L451,1573" stroke="blue" stroke-width="2" />
<path d="M323,4678 L1508,4301" stroke="blue" stroke-width="2" />
<path d="M334,2268 L3579,5867" stroke="blue" stroke-width="2" />
<path d="M6481,557 L4154,1001" stroke="blue" stroke-width="2" />
<path d="M1189,3499 L7863,972" stroke="blue" stroke-width="2" />
<path d="M2377,2734 L5075,4039" stroke="blue" stroke-width="2" />
<path d="M4285,5001 L2070,4983" stroke="blue" stroke-width="2" />
<path d="M6405,2736 L3775,4162" stroke="blue" stroke-width="2" />
<path d="M3643,1408 L258,1601" stroke="blue" stroke-width="2" />
<path d="M4530,3458 L7888,589" stroke="blue" stroke-width="2" />
<path d="M5605,1297 L8736,361" stroke="blue" stroke-width="2" />
<path d="M1578,2133 L7306,434" stroke="blue" stroke-width="2" />
<path d="M2259,4595 L5291,4301" stroke="blue" stroke-width="2" />
<path d="M2513,481 L7633,2022" stroke="blue" stroke-width="2" />
<path d="M5041,4676 L5330,766" stroke="blue" stroke-width="2" />
<path d="M967,4293 L1910,3737" stroke="blue" stroke-width="2" />
<path d="M8098,255 L6218,436" stroke="blue" stroke-width="2" />
<path d="M7933,478 L3300,4993" stroke="blue" stroke-width="2" />
<path d="M7434,660 L4468,5875" stroke="blue" stroke-width="2" />
<path d="M3751,308 L5601,2131" stroke="blue" stroke-width="2" />
<path d="M3898,2350 L8334,663" stroke="blue" stroke-width="2" />
<path d="M4633,866 L2463,4887" stroke="blue" stroke-width="2" />
<path d="M8228,1207 L2749,4513" stroke="blue" stroke-width="2" />
<path d="M31,5525 L4037,2040" stroke="blue" stroke-width="2" />
<path d="M7906,3445 L6713,5848" stroke="blue" stroke-width="2" />
<path d="M1387,1164 L3988,3225" stroke="blue" stroke-width="2" />
<path d="M7415,1257 L2079,3016" stroke="blue" stroke-width="2" />
<path d="M4059,3753 L7611,776" stroke="blue" stroke-width="2" />
<path d="M2096,4541 L2245,4249" stroke="blue" stroke-width="2" />
<path d="M6644,3080 L8050,2498" stroke="blue" stroke-width="2" />
<path d="M4738,2463 L669,4793" stroke="blue" stroke-width="2" />
<path d="M3990,3121 L6505,1015" stroke="blue" stroke-width="2" />
<path d="M7237,2633 L2765,3140" stroke="blue" stroke-width="2" />
<path d="M2643,3606 L1451,4602" stroke="blue" stroke-width="2" />
<path d="M273,4315 L3413,4267" stroke="blue" stroke-width="2" />
<path d="M4374,3751 L6282,4877" stroke="blue" stroke-width="2" />
<path d="M8408,1756 L6625,763" stroke="blue" stroke-width="2" />
<path d="M1758,310 L2956,856" stroke="blue" stroke-width="2" />
<path d="M6081,1369 L4557,5182" stroke="blue" stroke-width="2" />
<path d="M5605,4526 L1339,1376" stroke="blue" stroke-width="2" />
<path d="M3592,5468 L1793,5579" stroke="blue" stroke-width="2" />
<path d="M8504,3429 L8767,4854" stroke="blue" stroke-width="2" />
<path d="M6198,1378 L2918,4407" stroke="blue" stroke-width="2" />
<path d="M1513,3053 L4055,2100" stroke="blue" stroke-width="2" />
<path d="M3971,3849 L3208,313" stroke="blue" stroke-width="2" />
<path d="M7939,3887 L7577,1954" stroke="blue" stroke-width="2" />
<path d="M1099,3352 L6700,226" stroke="blue" stroke-width="2" />
<path d="M3196,2794 L3487,428" stroke="blue" stroke-width="2" />
<path d="M8158,3980 L5750,5591" stroke="blue" stroke-width="2" />
<path d="M4932,607 L7995,274" stroke="blue" stroke-width="2" />
<path d="M5400,4793 L284,1364" stroke="blue" stroke-width="2" />
<path d="M7612,1204 L7955,2091" stroke="blue" stroke-width="2" />
<path d="M7628,3899 L8241,3400" stroke="blue" stroke-width="2" />
<path d="M2087,3952 L6130,4250" stroke="blue" stroke-width="2" />
<path d="M4790,3843 L1138,1840" stroke="blue" stroke-width="2" />
<path d="M2337,4921 L6438,1525" stroke="blue" stroke-width="2" />
<path d="M2549,3308 L5263,3674" stroke="blue" stroke-width="2" />
<path d="M2345,4682 L7340,4407" stroke="blue" stroke-width="2" />
<path d="M87,127 L595,194" stroke="blue" stroke-width="2" />
<path d="M7179,4354 L5703,4011" stroke="blue" stroke-width="2" />
<path d="M6497,5260 L553,3507" stroke="blue" stroke-width="2" />
<path d="M989,3053 L1796,2396" stroke="blue" stroke-width="2" />
<path d="M8409,5089 L3043,4032" stroke="blue" stroke-width="2" />
<path d="M3123,3837 L5992,1386" stroke="blue" stroke-width="2" />
<path d="M771,785 L4039,2775" stroke="blue" stroke-width="2" />
<path d="M3300,633 L2129,5139" stroke="blue" stroke-width="2" />
<path d="M8373,5331 L8749,5902" stroke="blue" stroke-width="2" />
<path d="M1840,990 L8077,2995" stroke="blue" stroke-width="2" />
<path d="M3572,5616 L425,715" stroke="blue" stroke-width="2" />
<path d="M931,5822 L6564,846" stroke="blue" stroke-width="2" />
<path d="M6702,17 L3757,808" stroke="blue" stroke-width="2" />
<path d="M158,1794 L1680,3739" stroke="blue" stroke-width="2" />
<path d="M206,1015 L3835,4825" stroke="blue" stroke-width="2" />
<path d="M5639,3164 L716,2917" stroke="blue" stroke-width="2" />
<path d="M7576,756 L6435,3555" stroke="blue" stroke-width="2" />
<path d="M1370,1011 L8488,4957" stroke="blue" stroke-width="2" />
<path d="M8330,4611 L7502,292" stroke="blue" stroke-width="2" />
<path d="M7615,2439 L1227,2329" stroke="blue" stroke-width="2" />
<path d="M6012,3482 L7660,1242" stroke="blue" stroke-width="2" />
<path d="M64,226 L1124,3320" stroke="blue" stroke-width="2" />
<path d="M5271,630 L7803,5882" stroke="blue" stroke-width="2" />
<path d="M4090,5427 L2383,2367" stroke="blue" stroke-width="2" />
<path d="M6182,5718 L466,200" stroke="blue" stroke-width="2" />
<path d="M5808,4731 L1733,4913" stroke="blue" stroke-width="2" />
<path d="M8800,2198 L4732,4568" stroke="blue" stroke-width="2" />
<path d="M111,640 L4145,4751" stroke="blue" stroke-width="2" />
<path d="M551,5497 L2977,3255" stroke="blue" stroke-width="2" />
<path d="M8411,485 L5750,806" stroke="blue" stroke-width="2" />
<path d="M5709,2439 L5831,896" stroke="blue" stroke-width="2" />
<path d="M3935,1515 L4271,416" stroke="blue" stroke-width="2" />
<path d="M3370,5387 L755,4225" stroke="blue" stroke-width="2" />
<path d="M5444,4392 L2616,3157" stroke="blue" stroke-width="2" />
<path d="M3167,4836 L3358,3910" stroke="blue" stroke-width="2" />
<path d="M5595,2632 L1973,240" stroke="blue" stroke-width="2" />
<path d="M4235,208 L4095,3532" stroke="blue" stroke-width="2" />
<path d="M3216,4838 L2892,1268" stroke="blue" stroke-width="2" />
<path d="M7634,4068 L1051,2797" stroke="blue" stroke-width="2" />
<path d="M7587,2169 L1769,1374" stroke="blue" stroke-width="2" />
<path d="M6143,2397 L2590,3225" stroke="blue" stroke-width="2" />
<path d="M5776,807 L8360,1087" stroke="blue" stroke-width="2" />
<path d="M1372,5526 L1608,7" stroke="blue" stroke-width="2" />
<path d="M3578,2749 L8692,4872" stroke="blue" stroke-width="2" />
<path d="M5166,394 L2612,1723" stroke="blue" stroke-width="2" />
<path d="M875,4252 L2368,5115" stroke="blue" stroke-width="2" />
<path d="M7932,1019 L1556,2739" stroke="blue" stroke-width="2" />
<path d="M8118,1988 L8169,2703" stroke="blue" stroke-width="2" />
<path d="M6940,3174 L2361,3508" stroke="blue" stroke-width="2" />
<path d="M3959,4907 L5490,3003" stroke="blue" stroke-width="2" />
<path d="M2740,3531 L3822,1696" stroke="blue" stroke-width="2" />
<path d="M4077,1499 L2749,1491" stroke="blue" stroke-width="2" />
<path d="M3696,3505 L882,2323" stroke="blue" stroke-width="2" />
<path d="M3160,5749 L3247,958" stroke="blue" stroke-width="2" />
<path d="M4429,468 L7156,4641" stroke="blue" stroke-width="2" />
<path d="M1839,4740 L7743,3212" stroke="blue" stroke-width="2" />
<path d="M2818,831 L7424,3217" stroke="blue" stroke-width="2" />
<path d="M2247,3488 L6110,2986" stroke="blue" stroke-width="2" />
<path d="M8446,531 L5324,4183" stroke="blue" stroke-width="2" />
<path d="M5380,939 L1807,2883" stroke="blue" stroke-width="2" />
<path d="M389,5159 L1970,3692" stroke="blue" stroke-width="2" />
<path d="M3076,517 L2569,3094" stroke="blue" stroke-width="2" />
<path d="M541,1007 L3629,4522" stroke="blue" stroke-width="2" />
<path d="M56,980 L3430,59" stroke="blue" stroke-width="2" />
<path d="M963,2111 L5765,649" stroke="blue" stroke-width="2" />
<path d="M4516,3318 L7080,3844" stroke="blue" stroke-width="2" />
<path d="M1427,2890 L3774,2446" stroke="blue" stroke-width="2" />
<path d="M4484,4846 L4025,123" stroke="blue" stroke-width="2" />
<path d="M7093,3418 L404,2653" stroke="blue" stroke-width="2" />
<path d="M1674,3884 L8248,5195" stroke="blue" stroke-width="2" />
<path d="M1396,1771 L1902,4980" stroke="blue" stroke-width="2" />
<path d="M3875,3548 L6388,5277" stroke="blue" stroke-width="2" />
<path d="M5142,5573 L907,4392" stroke="blue" stroke-width="2" />
<path d="M6591,656 L7679,466" stroke="blue" stroke-width="2" />
<path d="M7403,3656 L980,3104" stroke="blue" stroke-width="2" />
<path d="M3332,1767 L6506,5167" stroke="blue" stroke-width="2" />
<path d="M5739,1886 L3230,4742" stroke="blue" stroke-width="2" />
<path d="M6887,2156 L6984,3881" stroke="blue" stroke-width="2" />
<path d="M5040,1269 L6757,4143" stroke="blue" stroke-width="2" />
<path d="M4572,3305 L3723,693" stroke="blue" stroke-width="2" />
<path d="M5878,1601 L2334,1705" stroke="blue" stroke-width="2" />
<path d="M2623,1904 L5902,2598" stroke="blue" stroke-width="2" />
<path d="M5647,5027 L2937,5661" stroke="blue" stroke-width="2" />
<path d="M2615,5567 L950,2960" stroke="blue" stroke-width="2" />
<path d="M6123,5069 L7759,3132" stroke="blue" stroke-width="2" />
<path d="M8565,4918 L7865,4159" stroke="blue" stroke-width="2" />
<path d="M6427,710 L4492,700" stroke="blue" stroke-width="2" />
<path d="M879,5240 L410,5687" stroke="blue" stroke-width="2" />
<path d="M2039,5025 L3104,4241" stroke="blue" stroke-width="2" />
<path d="M5817,4998 L3044,4920" stroke="blue" stroke-width="2" />
<path d="M1374,4373 L987,5242" stroke="blue" stroke-width="2" />
<path d="M1649,5180 L634,5396" stroke="blue" stroke-width="2" />
<path d="M3688,2760 L6583,1217" stroke="blue" stroke-width="2" />
<path d="M4709,5147 L8355,3814" stroke="blue" stroke-width="2" />
<path d="M3423,390 L6996,3358" stroke="blue" stroke-width="2" />
<path d="M8637,4852 L7202,5885" stroke="blue" stroke-width="2" />
<path d="M8422,1944 L5544,944" stroke="blue" stroke-width="2" />
<path d="M1498,5546 L5855,5208" stroke="blue" stroke-width="2" />
<path d="M462,1012 L6867,1553" stroke="blue" stroke-width="2" />
<path d="M8153,683 L3654,3898" stroke="blue" stroke-width="2" />
<path d="M6048,2914 L6474,2367" stroke="blue" stroke-width="2" />
<path d="M6637,614 L5316,2823" stroke="blue" stroke-width="2" />
<path d="M2614,3774 L2659,4919" stroke="blue" stroke-width="2" />
<path d="M3372,3738 L1629,234" stroke="blue" stroke-width="2" />
<path d="M5205,3176 L795,5450" stroke="blue" stroke-width="2" />
<path d="M8700,85 L5869,4568" stroke="blue" stroke-width="2" />
<path d="M5007,172 L8017,4171" stroke="blue" stroke-width="2" />
<path d="M1719,1464 L22,5023" stroke="blue" stroke-width="2" />
<path d="M6819,5195 L1136,349" stroke="blue" stroke-width="2" />
<path d="M958,5291 L7157,1049" stroke="blue" stroke-width="2" />
<path d="M2918,1487 L1065,807" stroke="blue" stroke-width="2" />
<path d="M4759,699 L5622,2866" stroke="blue" stroke-width="2" />
<path d="M7675,72 L8607,5036" stroke="blue" stroke-width="2" />
<path d="M918,4241 L825,1559" stroke="blue" stroke-width="2" />
<path d="M7227,1772 L5800,3847" stroke="blue" stroke-width="2" />
<path d="M3959,5617 L4824,1591" stroke="blue" stroke-width="2" />
<path d="M4696,1354 L5048,362" stroke="blue" stroke-width="2" />
<path d="M6948,853 L3399,3250" stroke="blue" stroke-width="2" />
<path d="M7473,886 L1417,2284" stroke="blue" stroke-width="2" />
<path d="M6266,649 L8203,2259" stroke="blue" stroke-width="2" />
<path d="M7146,4211 L1051,3562" stroke="blue" stroke-width="2" />
<path d="M2091,5494 L1818,4238" stroke="blue" stroke-width="2" />
<path d="M785,170 L7479,5533" stroke="blue" stroke-width="2" />
<path d="M5938,3722 L5951,2761" stroke="blue" stroke-width="2" />
<path d="M2519,774 L4476,1427" stroke="blue" stroke-width="2" />
<path d="M7181,53 L8754,5467" stroke="blue" stroke-width="2" />
<path d="M6527,5780 L3943,1750" stroke="blue" stroke-width="2" />
<path d="M8377,5198 L1572,2648" stroke="blue" stroke-width="2" />
<path d="M3725,4042 L4487,2320" stroke="blue" stroke-width="2" />
<path d="M4062,4545 L6395,1654" stroke="blue" stroke-width="2" />
<path d="M8707,5122 L6307,4105" stroke="blue" stroke-width="2" />
<path d="M3506,5210 L7747,1333" stroke="blue" stroke-width="2" />
<path d="M2475,887 L113,5631" stroke="blue" stroke-width="2" />
<path d="M2816,2941 L1019,4315" stroke="blue" stroke-width="2" />
<path d="M327,955 L7727,4565" stroke="blue" stroke-width="2" />
<path d="M4650,3458 L8718,2124" stroke="blue" stroke-width="2" />
<path d="M824,962 L2237,5026" stroke="blue" stroke-width="2" />
<path d="M5967,1079 L4943,2560" stroke="blue" stroke-width="2" />
<path d="M1448,4477 L5744,4765" stroke="blue" stroke-width="2" />
<path d="M8447,5724 L3179,1119" stroke="blue" stroke-width="2" />
<path d="M3142,4997 L8184,92" stroke="blue" stroke-width="2" />
<path d="M7316,3885 L856,273" stroke="blue" stroke-width="2" />
<path d="M1520,3667 L7566,483" stroke="blue" stroke-width="2" />
<path d="M6262,808 L2409,635" stroke="blue" stroke-width="2" />
<path d="M1650,4893 L3067,3265" stroke="blue" stroke-width="2" />
<path d="M3427,2610 L7556,4092" stroke="blue" stroke-width="2" />
<path d="M1209,4682 L5483,5623" stroke="blue" stroke-width="2" />
<path d="M3476,1447 L1090,4325" stroke="blue" stroke-width="2" />
<path d="M176,2639 L6212,3698" stroke="blue" stroke-width="2" />
<path d="M3829,1592 L1993,1573" stroke="blue" stroke-width="2" />
<path d="M4675,677 L5445,2298" stroke="blue" stroke-width="2" />
<path d="M5092,2749 L1720,3131" stroke="blue" stroke-width="2" />
<path d="M145,3469 L3253,431" stroke="blue" stroke-width="2" />
<path d="M2793,4913 L6003,1598" stroke="blue" stroke-width="2" />
<path d="M7269,3207 L6014,2493" stroke="blue" stroke-width="2" />
<path d="M3492,4260 L1950,3855" stroke="blue" stroke-width="2" />
<path d="M3791,3131 L2333,925" stroke="blue" stroke-width="2" />
<path d="M2675,2116 L7882,5350" stroke="blue" stroke-width="2" />
<path d="M5693,4353 L8324,2361" stroke="blue" stroke-width="2" />
<path d="M6840,3528 L3366,5133" stroke="blue" stroke-width="2" />
<path d="M5384,4492 L1195,2583" stroke="blue" stroke-width="2" />
<path d="M1877,1450 L6135,5256" stroke="blue" stroke-width="2" />
<path d="M7003,3652 L3234,377" stroke="blue" stroke-width="2" />
<path d="M3315,2102 L7307,1534" stroke="blue" stroke-width="2" />
<path d="M3623,2954 L3681,1235" stroke="blue" stroke-width="2" />
<path d="M1502,1033 L2848,2154" stroke="blue" stroke-width="2" />
<path d="M7966,5561 L1282,2905" stroke="blue" stroke-width="2" />
<path d="M1239,3988 L3274,1231" stroke="blue" stroke-width="2" />
<path d="M8633,252 L5906,4207" stroke="blue" stroke-width="2" />
<path d="M3433,2766 L2471,3618" stroke="blue" stroke-width="2" />
<path d="M4304,4152 L2532,4765" stroke="blue" stroke-width="2" />
<path d="M1246,3416 L403,4525" stroke="blue" stroke-width="2" />
<path d="M8662,2014 L7886,1287" stroke="blue" stroke-width="2" />
<path d="M2285,2726 L7666,1879" stroke="blue" stroke-width="2" />
<path d="M6825,1427 L2034,3602" stroke="blue" stroke-width="2" />
<path d="M7530,5183 L6783,1979" stroke="blue" stroke-width="2" />
<path d="M7505,1995 L2493,806" stroke="blue" stroke-width="2" />
<path d="M1392,4059 L7663,2855" stroke="blue" stroke-width="2" />
<path d="M2445,3850 L1409,4403" stroke="blue" stroke-width="2" />
<path d="M139,1462 L5940,3642" stroke="blue" stroke-width="2" />
<path d="M8622,3975 L7151,2385" stroke="blue" stroke-width="2" />
<path d="M384,872 L5573,3034" stroke="blue" stroke-width="2" />
<path d="M7626,1372 L1189,1498" stroke="blue" stroke-width="2" />
<path d="M315,2696 L1421,4938" stroke="blue" stroke-width="2" />
<path d="M2392,2425 L2604,4298" stroke="blue" stroke-width="2" />
<path d="M955,5882 L2075,1376" stroke="blue" stroke-width="2" />
<path d="M7606,2032 L5205,5606" stroke="blue" stroke-width="2" />
<path d="M4294,3690 L6784,368" stroke="blue" stroke-width="2" />
<path d="M4536,4618 L2520,249" stroke="blue" stroke-width="2" />
<path d="M6819,5554 L7929,3616" stroke="blue" stroke-width="2" />
<path d="M8759,2189 L7016,4543" stroke="blue" stroke-width="2" />
<path d="M440,2825 L996,2801" stroke="blue" stroke-width="2" />
<path d="M1552,5855 L414,1901" stroke="blue" stroke-width="2" />
<path d="M8663,3580 L7335,3714" stroke="blue" stroke-width="2" />
<path d="M5866,5745 L7545,2904" stroke="blue" stroke-width="2" />
<path d="M5655,4210 L8038,5317" stroke="blue" stroke-width="2" />
<path d="M6404,658 L6470,959" stroke="blue" stroke-width="2" />
<path d="M5357,2297 L2636,4152" stroke="blue" stroke-width="2" />
<path d="M4408,2126 L903,5114" stroke="blue" stroke-width="2" />
<path d="M2223,5641 L7657,2465" stroke="blue" stroke-width="2" />
<path d="M2670,1990 L3297,4615" stroke="blue" stroke-width="2" />
<path d="M4090,575 L795,520" stroke="blue" stroke-width="2" />
<path d="M561,1312 L5366,508" stroke="blue" stroke-width="2" />
<path d="M707,4851 L4355,3864" stroke="blue" stroke-width="2" />
<path d="M1885,4437 L6094,3076" stroke="blue" stroke-width="2" />
<path d="M4116,5268 L2953,4620" stroke="blue" stroke-width="2" />
<path d="M1904,3795 L5775,1959" stroke="blue" stroke-width="2" />
<path d="M6979,3763 L2201,4638" stroke="blue" stroke-width="2" />
<path d="M7278,1779 L3313,1977" stroke="blue" stroke-width="2" />
<path d="M8066,4327 L2937,2478" stroke="blue" stroke-width="2" />
<path d="M7210,5534 L1675,661" stroke="blue" stroke-width="2" />
<path d="M3382,1648 L71,2356" stroke="blue" stroke-width="2" />
<path d="M7878,2825 L514,3763" stroke="blue" stroke-width="2" />
<path d="M312,5721 L4692,2847" stroke="blue" stroke-width="2" />
<path d="M350,3554 L8392,5567" stroke="blue" stroke-width="2" />
<path d="M2391,1914 L7865,2140" stroke="blue" stroke-width="2" />
<path d="M3971,2340 L829,3899" stroke="blue" stroke-width="2" />
<path d="M5403,5669 L2163,4239" stroke="blue" stroke-width="2" />
<path d="M4919,5343 L5997,2317" stroke="blue" stroke-width="2" />
<path d="M817,5438 L6434,421" stroke="blue" stroke-width="2" />
<path d="M3188,4745 L6453,5108" stroke="blue" stroke-width="2" />
<path d="M7302,2016 L5403,4308" stroke="blue" stroke-width="2" />
<path d="M7707,5814 L810,757" stroke="blue" stroke-width="2" />
<path d="M6698,3729 L2281,4598" stroke="blue" stroke-width="2" />
<path d="M3468,3622 L6290,5902" stroke="blue" stroke-width="2" />
<path d="M2627,3584 L40,976" stroke="blue" stroke-width="2" />
<path d="M5048,2846 L3202,5773" stroke="blue" stroke-width="2" />
<path d="M5406,1793 L1434,180" stroke="blue" stroke-width="2" />
<path d="M5655,1117 L44,5642" stroke="blue" stroke-width="2" />
<path d="M4879,3635 L5416,906" stroke="blue" stroke-width="2" />
<path d="M1643,3999 L136,324" stroke="blue" stroke-width="2" />
<path d="M901,2469 L5455,5674" stroke="blue" stroke-width="2" />
<path d="M157,4517 L8758,3234" stroke="blue" stroke-width="2" />
<path d="M5011,2311 L5119,5800" stroke="blue" stroke-width="2" />
<path d="M2733,5479 L8494,4586" stroke="blue" stroke-width="2" />
<path d="M3723,1747 L6983,4878" stroke="blue" stroke-width="2" />
<path d="M5051,1796 L6081,1749" stroke="blue" stroke-width="2" />
<path d="M4022,5027 L1927,2370" stroke="blue" stroke-width="2" />
<path d="M8660,1912 L5011,3083" stroke="blue" stroke-width="2" />
<path d="M8754,4649 L8756,4464" stroke="blue" stroke-width="2" />
<path d="M1170,5588 L6191,1042" stroke="blue" stroke-width="2" />
<path d="M3833,1178 L4452,1106" stroke="blue" stroke-width="2" />
<path d="M8203,2315 L6752,1886" stroke="blue" stroke-width="2" />
<path d="M3743,2635 L5906,5760" stroke="blue" stroke-width="2" />
<path d="M5974,4283 L3811,987" stroke="blue" stroke-width="2" />
<path d="M4111,2440 L2670,84" stroke="blue" stroke-width="2" />
<path d="M4226,5313 L1739,5550" stroke="blue" stroke-width="2" />
<path d="M3399,833 L5419,2608" stroke="blue" stroke-width="2" />
<path d="M8620,2154 L1280,4129" stroke="blue" stroke-width="2" />
<path d="M4343,2992 L1222,4951" stroke="blue" stroke-width="2" />
<path d="M3795,928 L5479,220" stroke="blue" stroke-width="2" />
<path d="M4479,1548 L6048,797" stroke="blue" stroke-width="2" />
<path d="M2475,1783 L2046,4651" stroke="blue" stroke-width="2" />
<path d="M7223,944 L6345,1014" stroke="blue" stroke-width="2" />
<path d="M830,4033 L2446,2152" stroke="blue" stroke-width="2" />
<path d="M3662,5592 L595,3745" stroke="blue" stroke-width="2" />
<path d="M4175,3537 L1044,2537" stroke="blue" stroke-width="2" />
<path d="M7185,5738 L5649,4727" stroke="blue" stroke-width="2" />
<path d="M5721,339 L5960,5153" stroke="blue" stroke-width="2" />
<path d="M7743,5784 L8725,2662" stroke="blue" stroke-width="2" />
<path d="M6637,1062 L3854,223" stroke="blue" stroke-width="2" />
<path d="M7563,5510 L1595,5378" stroke="blue" stroke-width="2" />
<path d="M7097,4818 L5227,1722" stroke="blue" stroke-width="2" />
<path d="M3066,714 L3697,3661" stroke="blue" stroke-width="2" />
<path d="M362,2524 L1484,4672" stroke="blue" stroke-width="2" />
<path d="M3352,4348 L4558,2684" stroke="blue" stroke-width="2" />
<path d="M7600,5115 L1368,5799" stroke="blue" stroke-width="2" />
<path d="M2360,5376 L2283,2606" stroke="blue" stroke-width="2" />
<path d="M7829,5823 L8765,215" stroke="blue" stroke-width="2" />
<path d="M7865,546 L5185,606" stroke="blue" stroke-width="2" />
<path d="M3430,1464 L8719,4729" stroke="blue" stroke-width="2" />
<path d="M4476,648 L5330,1296" stroke="blue" stroke-width="2" />
<path d="M7991,1127 L4038,2059" stroke="blue" stroke-width="2" />
<path d="M400,1910 L1617,4075" stroke="blue" stroke-width="2" />
<path d="M4302,4517 L7467,4245" stroke="blue" stroke-width="2" />
<path d="M804,5691 L3759,976" stroke="blue" stroke-width="2" />
<path d="M1746,184 L6366,3328" stroke="blue" stroke-width="2" />
<path d="M6653,2723 L4986,1583" stroke="blue" stroke-width="2" />
<path d="M6286,5407 L7094,3088" stroke="blue" stroke-width="2" />
<path d="M7927,793 L6235,4163" stroke="blue" stroke-width="2" />
<path d="M2919,4373 L3172,4384" stroke="blue" stroke-width="2" />
<path d="M2756,2102 L7200,347" stroke="blue" stroke-width="2" />
<path d="M6887,3598 L7834,5688" stroke="blue" stroke-width="2" />
<path d="M254,1589 L4971,925" stroke="blue" stroke-width="2" />
<path d="M361,2655 L5480,2189" stroke="blue" stroke-width="2" />
<path d="M6811,2275 L3348,2838" stroke="blue" stroke-width="2" />
<path d="M3129,238 L4561,5271" stroke="blue" stroke-width="2" />
<path d="M2159,4910 L7612,2271" stroke="blue" stroke-width="2" />
<path d="M2412,5325 L3908,1259" stroke="blue" stroke-width="2" />
<path d="M3540,2007 L5666,4790" stroke="blue" stroke-width="2" />
<path d="M2908,331 L7237,5130" stroke="blue" stroke-width="2" />
<path d="M114,1121 L7103,2042" stroke="blue" stroke-width="2" />
<path d="M5834,4188 L7841,4787" stroke="blue" stroke-width="2" />
<path d="M1897,5197 L6963,1284" stroke="blue" stroke-width="2" />
<path d="M7225,5312 L4643,2301" stroke="blue" stroke-width="2" />
<path d="M7892,590 L3457,5765" stroke="blue" stroke-width="2" />
<path d="M6110,1280 L4379,3004" stroke="blue" stroke-width="2" />
<path d="M6658,4009 L2755,395" stroke="blue" stroke-width="2" />
<path d="M621,58 L3982,1893" stroke="blue" stroke-width="2" />
<path d="M4485,4903 L2393,2697" stroke="blue" stroke-width="2" />
<path d="M75,3744 L4212,4811" stroke="blue" stroke-width="2" />
<path d="M5203,2946 L387,4652" stroke="blue" stroke-width="2" />
<path d="M8221,2793 L6454,5776" stroke="blue" stroke-width="2" />
<path d="M8791,4057 L6214,3161" stroke="blue" stroke-width="2" />
<path d="M5208,2501 L2127,3123" stroke="blue" stroke-width="2" />
<path d="M2533,2658 L4363,5618" stroke="blue" stroke-width="2" />
<path d="M1281,4795 L6346,1778" stroke="blue" stroke-width="2" />
<path d="M4882,4690 L3176,5363" stroke="blue" stroke-width="2" />
<path d="M2984,5035 L2575,4479" stroke="blue" stroke-width="2" />
<path d="M2914,352 L4361,693" stroke="blue" stroke-width="2" />
<path d="M1597,4580 L8323,3123" stroke="blue" stroke-width="2" />
<path d="M3283,5827 L2348,4871" stroke="blue" stroke-width="2" />
<path d="M2273,871 L3377,2311" stroke="blue" stroke-width="2" />
<path d="M519,1553 L6160,4568" stroke="blue" stroke-width="2" />
<path d="M7787,98 L2271,2448" stroke="blue" stroke-width="2" />
<path d="M2279,4929 L3847,2145" stroke="blue" stroke-width="2" />
<path d="M8644,3282 L3382,3565" stroke="blue" stroke-width="2" />
<path d="M1181,1721 L4032,2607" stroke="blue" stroke-width="2" />
<path d="M4812,4046 L6246,5593" stroke="blue" stroke-width="2" />
<path d="M4899,455 L8200,1269" stroke="blue" stroke-width="2" />
<path d="M752,1976 L950,4834" stroke="blue" stroke-width="2" />
<path d="M4309,1783 L3230,5216" stroke="blue" stroke-width="2" />
<path d="M3284,3789 L6075,3086" stroke="blue" stroke-width="2" />
<path d="M7400,2212 L6792,797" stroke="blue" stroke-width="2" />
<path d="M3114,1709 L2743,689" stroke="blue" stroke-width="2" />
<path d="M8293,5232 L1593,559" stroke="blue" stroke-width="2" />
<path d="M227,5569 L3446,2128" stroke="blue" stroke-width="2" />
<path d="M755,2253 L6141,619" stroke="blue" stroke-width="2" />
<path d="M245,2342 L438,2370" stroke="blue" stroke-width="2" />
<path d="M3259,4181 L2585,1412" stroke="blue" stroke-width="2" />
<path d="M6626,570 L5453,2886" stroke="blue" stroke-width="2" />
<path d="M3321,2712 L1388,1331" stroke="blue" stroke-width="2" />
<path d="M6435,3615 L7487,3077" stroke="blue" stroke-width="2" />
<path d="M3209,4878 L58,3118" stroke="blue" stroke-width="2" />
<path d="M2859,1437 L4044,3809" stroke="blue" stroke-width="2" />
<path d="M2765,5560 L7617,4244" stroke="blue" stroke-width="2" />
<path d="M591,2774 L4396,2552" stroke="blue" stroke-width="2" />
<path d="M1079,793 L4846,5303" stroke="blue" stroke-width="2" />
<path d="M5106,4238 L1699,5366" stroke="blue" stroke-width="2" />
<path d="M6832,5856 L8252,3780" stroke="blue" stroke-width="2" />
<path d="M2439,1199 L753,4173" stroke="blue" stroke-width="2" />
<path d="M4266,2665 L1751,5568" stroke="blue" stroke-width="2" />
<path d="M8419,113 L7870,2136" stroke="blue" stroke-width="2" />
<path d="M1307,2051 L621,5041" stroke="blue" stroke-width="2" />
<path d="M5947,1635 L3610,78" stroke="blue" stroke-width="2" />
<path d="M546,5865 L7737,4179" stroke="blue" stroke-width="2" />
<path d="M4643,5169 L4959,3087" stroke="blue" stroke-width="2" />
<path d="M7216,5900 L757,3157" stroke="blue" stroke-width="2" />
<path d="M3468,3630 L4709,1345" stroke="blue" stroke-width="2" />
<path d="M7141,877 L1317,4427" stroke="blue" stroke-width="2" />
<path d="M5553,4124 L3939,4526" stroke="blue" stroke-width="2" />
<path d="M6080,2044 L945,5105" stroke="blue" stroke-width="2" />
<path d="M620,4391 L2489,3500" stroke="blue" stroke-width="2" />
<path d="M3901,3029 L8550,4473" stroke="blue" stroke-width="2" />
<path d="M3877,4952 L6208,5440" stroke="blue" stroke-width="2" />
<path d="M2386,5174 L3584,4140" stroke="blue" stroke-width="2" />
<path d="M2871,4247 L5129,4749" stroke="blue" stroke-width="2" />
<path d="M804,3517 L4587,5113" stroke="blue" stroke-width="2" />
<path d="M2143,3873 L4760,2523" stroke="blue" stroke-width="2" />
<path d="M8770,5705 L5279,293" stroke="blue" stroke-width="2" />
<path d="M8242,2689 L5691,1580" stroke="blue" stroke-width="2" />
<path d="M965,3595 L2125,1504" stroke="blue" stroke-width="2" />
<path d="M8222,3826 L2527,3371" stroke="blue" stroke-width="2" />
<path d="M8757,5002 L7373,3149" stroke="blue" stroke-width="2" />
<path d="M2604,370 L5552,3700" stroke="blue" stroke-width="2" />
<path d="M7327,1568 L6364,4352" stroke="blue" stroke-width="2" />
<path d="M7337,1496 L5866,4934" stroke="blue" stroke-width="2" />
<path d="M1464,1129 L6062,4223" stroke="blue" stroke-width="2" />
<path d="M1077,3213 L8138,197" stroke="blue" stroke-width="2" />
<path d="M7364,523 L8449,1692" stroke="blue" stroke-width="2" />
<path d="M4322,3778 L2109,708" stroke="blue" stroke-width="2" />
<path d="M8660,5547 L1321,3825" stroke="blue" stroke-width="2" />
<path d="M6330,80 L237,4621" stroke="blue" stroke-width="2" />
<path d="M5871,734 L3126,3997" stroke="blue" stroke-width="2" />
<path d="M1009,2351 L8600,3941" stroke="blue" stroke-width="2" />
<path d="M8241,2378 L7524,3490" stroke="blue" stroke-width="2" />
<path d="M7390,161 L5457,1657" stroke="blue" stroke-width="2" />
<path d="M1857,2538 L1721,2759" stroke="blue" stroke-width="2" />
<path d="M1786,4705 L3534,215" stroke="blue" stroke-width="2" />
<path d="M5030,3868 L3166,1066" stroke="blue" stroke-width="2" />
<path d="M160,5070 L7882,1192" stroke="blue" stroke-width="2" />
<path d="M1281,3824 L8107,4289" stroke="blue" stroke-width="2" />
<path d="M3479,1809 L968,1459" stroke="blue" stroke-width="2" />
<path d="M1015,4254 L7067,5642" stroke="blue" stroke-width="2" />
<path d="M8303,3560 L8363,5574" stroke="blue" stroke-width="2" />
<path d="M2073,3100 L3953,4003" stroke="blue" stroke-width="2" />
<path d="M167,3340 L8804,5462" stroke="blue" stroke-width="2" />
<path d="M617,2906 L7062,4692" stroke="blue" stroke-width="2" />
<path d="M4398,45 L6924,45" stroke="blue" stroke-width="2" />
<path d="M5154,347 L1287,2504" stroke="blue" stroke-width="2" />
<path d="M1524,4237 L4945,1705" stroke="blue" stroke-width="2" />
<path d="M2415,2260 L4231,5841" stroke="blue" stroke-width="2" />
<path d="M2595,2967 L1723,1451" stroke="blue" stroke-width="2" />
<path d="M5917,2890 L5286,3515" stroke="blue" stroke-width="2" />
<path d="M4901,5822 L8079,5150" stroke="blue" stroke-width="2" />
<path d="M1776,3028 L3117,9" stroke="blue" stroke-width="2" />
<path d="M2328,5103 L4781,2904" stroke="blue" stroke-width="2" />
<path d="M1376,3270 L993,587" stroke="blue" stroke-width="2" />
<path d="M102,1903 L223,556" stroke="blue" stroke-width="2" />
<path d="M599,5661 L5675,1904" stroke="blue" stroke-width="2" />
<path d="M3826,1489 L7145,775" stroke="blue" stroke-width="2" />
<path d="M907,1872 L4588,154" stroke="blue" stroke-width="2" />
<path d="M127,4467 L1346,3912" stroke="blue" stroke-width="2" />
<path d="M381,2054 L1207,1420" stroke="blue" stroke-width="2" />
<path d="M7976,1946 L1970,3371" stroke="blue" stroke-width="2" />
<path d="M320,1268 L6937,883" stroke="blue" stroke-width="2" />
<path d="M6443,4207 L8705,2565" stroke="blue" stroke-width="2" />
<path d="M7306,1079 L3633,4791" stroke="blue" stroke-width="2" />
<path d="M7389,974 L7341,4340" stroke="blue" stroke-width="2" />
<path d="M5444,845 L8589,3187" stroke="blue" stroke-width="2" />
<path d="M8511,1948 L584,2290" stroke="blue" stroke-width="2" />
<path d="M812,2419 L3730,2095" stroke="blue" stroke-width="2" />
<path d="M122,1064 L5012,5825" stroke="blue" stroke-width="2" />
<path d="M7181,270 L7182,4238" stroke="blue" stroke-width="2" />
<path d="M1411,2145 L1482,5206" stroke="blue" stroke-width="2" />
<path d="M1505,1505 L2424,1478" stroke="blue" stroke-width="2" />
<path d="M8026,1885 L6433,1713" stroke="blue" stroke-width="2" />
<path d="M4112,2869 L3881,1364" stroke="blue" stroke-width="2" />
<path d="M388,1202 L3160,4346" stroke="blue" stroke-width="2" />
<path d="M7170,5730 L1945,1101" stroke="blue" stroke-width="2" />
<path d="M6314,3052 L1065,812" stroke="blue" stroke-width="2" />
<path d="M2823,3232 L3571,5463" stroke="blue" stroke-width="2" />
<path d="M6051,5532 L343,2465" stroke="blue" stroke-width="2" />
<path d="M198,3069 L541,470" stroke="blue" stroke-width="2" />
<path d="M2199,162 L809,1079" stroke="blue" stroke-width="2" />
<path d="M6004,1475 L1181,721" stroke="blue" stroke-width="2" />
<path d="M1691,4398 L4743,4853" stroke="blue" stroke-width="2" />
<path d="M5826,5824 L2952,323" stroke="blue" stroke-width="2" />
<path d="M8582,4015 L3413,5730" stroke="blue" stroke-width="2" />
<path d="M761,4209 L8655,1832" stroke="blue" stroke-width="2" />
<path d="M1548,928 L2579,2952" stroke="blue" stroke-width="2" />
<path d="M5652,4038 L3890,1263" stroke="blue" stroke-width="2" />
<path d="M2185,1360 L273,1915" stroke="blue" stroke-width="2" />
<path d="M3328,203 L3496,1257" stroke="blue" stroke-width="2" />
<path d="M3500,2014 L6523,2231" stroke="blue" stroke-width="2" />
<path d="M2250,5399 L5662,5785" stroke="blue" stroke-width="2" />
<path d="M8299,4992 L2056,5473" stroke="blue" stroke-width="2" />
<path d="M323,3805 L651,3284" stroke="blue" stroke-width="2" />
<path d="M0,0 L8805,0" stroke="red" stroke-width="10" />
<path d="M8805,0 L8805,5906" stroke="red" stroke-width="10" />
<path d="M0,5906 L8805,5906" stroke="red" stroke-width="10" />
<path d="M0,5906 L0,0" stroke="red" stroke-width="10" />
</svg>