<?xml version="1.0" encoding="UTF-8"?>
<svg xmlns="http://www.w3.org/2000/svg" xmlns:xlink="http://www.w3.org/1999/xlink"
     width="10000" height="10000" viewBox="0 0 10000 10000">
<defs>
</defs>
<path d="M6668,1644 L4448,4187" stroke="blue" stroke-width="2" />
<path d="M2247,2614 L7566,5365" stroke="blue" stroke-width="2" />
<path d="M5640,675 L6010,2073" stroke="blue" stroke-width="2" />
<path d="M4053,885 L8447,4469" stroke="blue" stroke-width="2" />
<path d="M1081,3815 L2809,2061" stroke="blue" stroke-width="2" />
<path d="M8076,4461 L802,5866" stroke="blue" stroke-width="2" />
<path d="M7320,5643 L1749,2133" stroke="blue" stroke-width="2" />
<path d="M2758,5338 L1992,984" stroke="blue" stroke-width="2" />
<path d="M3970,3741 L646,1034" stroke="blue" stroke-width="2" />
<path d="M2600,5585 L3636,1696" stroke="blue" stroke-width="2" />
<path d="M8397,2991 L6902,1493" stroke="blue" stroke-width="2" />
<path d="M5294,1744 L6824,103" stroke="blue" stroke-width="2" />
<path d="M3243,1651 L7996,4734" stroke="blue" stroke-width="2" />
<path d="M3171,606 L6502,4528" stroke="blue" stroke-width="2" />
<path d="M1516,5168 L3754,1328" stroke="blue" stroke-width="2" />
<path d="M3773,2112 L527,2959" stroke="blue" stroke-width="2" />
<path d="M242,2006 L668,3118" stroke="blue" stroke-width="2" />
<path d="M2056,1109 L3141,1425" stroke="blue" stroke-width="2" />
<path d="M7467,239 L6277,5380" stroke="blue" stroke-width="2" />
<path d="M6873,3415 L3251,593" stroke="blue" stroke-width="2" />
<path d="M7835,2372 L7177,3487" stroke="blue" stroke-width="2" />
<path d="M4349,2367 L1726,416" stroke="blue" stroke-width="2" />
<path d="M3180,3887 L554,4221" stroke="blue" stroke-width="2" />
<path d="M1738,727 L2271,5737" stroke="blue" stroke-width="2" />
<path d="M4761,3 L8041,1946" stroke="blue" stroke-width="2" />
<path d="M8270,850 L1555,4264" stroke="blue" stroke-width="2" />
<path d="M7477,1475 L3786,1957" stroke="blue" stroke-width="2" />
<path d="M4551,5462 L5894,2998" stroke="blue" stroke-width="2" />
<path d="M402,4886 L6445,2751" stroke="blue" stroke-width="2" />
<path d="M7414,5460 L1121,4761" stroke="blue" stroke-width="2" />
<path d="M6792,4660 L7413,2288" stroke="blue" stroke-width="2" />
<path d="M8205,3713 L1253,2942" stroke="blue" stroke-width="2" />
<path d="M4086,3233 L2663,218" stroke="blue" stroke-width="2" />
<path d="M6029,3874 L4401,3034" stroke="blue" stroke-width="2" />
<path d="M963,4277 L155,4210" stroke="blue" stroke-width="2" />
<path d="M4354,2109 L4206,378" stroke="blue" stroke-width="2" />
<path d="M2970,46 L8123,5643" stroke="blue" stroke-width="2" />
<path d="M1273,2544 L4916,2874" stroke="blue" stroke-width="2" />
<path d="M5496,1539 L5273,932" stroke="blue" stroke-width="2" />
<path d="M897,5488 L6149,1932" stroke="blue" stroke-width="2" />
<path d="M6008,1768 L2364,600" stroke="blue" stroke-width="2" />
<path d="M8099,5291 L7742,2710" stroke="blue" stroke-width="2" />
<path d="M6643,5631 L6642,4676" stroke="blue" stroke-width="2" />
<path d="M3634,2921 L6443,289" stroke="blue" stroke-width="2" />
<path d="M6460,1343 L4916,1868" stroke="blue" stroke-width="2" />
<path d="M6938,1182 L1688,2133" stroke="blue" stroke-width="2" />
<path d="M7933,2310 L5831,1588" stroke="blue" stroke-width="2" />
<path d="M1980,1718 L6274,2791" stroke="blue" stroke-width="2" />
<path d="M2383,4259 L5487,2918" stroke="blue" stroke-width="2" />
<path d="M2063,375 L6071,3773" stroke="blue" stroke-width="2" />
<path d="M7704,2530 L6059,5760" stroke="blue" stroke-width="2" />
<path d="M5100,4786 L4948,553" stroke="blue" stroke-width="2" />
<path d="M6614,2596 L4678,137" stroke="blue" stroke-width="2" />
<path d="M7510,413 L8372,4971" stroke="blue" stroke-width="2" />
<path d="M3756,5571 L3872,2586" stroke="blue" stroke-width="2" />
<path d="M7010,5257 L3675,4328" stroke="blue" stroke-width="2" />
<path d="M1166,947 L6548,162" stroke="blue" stroke-width="2" />
<path d="M5028,2962 L2810,728" stroke="blue" stroke-width="2" />
<path d="M3370,4594 L1289,4826" stroke="blue" stroke-width="2" />
<path d="M3777,5177 L7898,969" stroke="blue" stroke-width="2" />
<path d="M2962,1340 L5024,2869" stroke="blue" stroke-width="2" />
<path d="M2535,5121 L5446,1097" stroke="blue" stroke-width="2" />
<path d="M1048,1153 L7719,671" stroke="blue" stroke-width="2" />
<path d="M824,3308 L1402,567" stroke="blue" stroke-width="2" />
<path d="M1599,2362 L529,4549" stroke="blue" stroke-width="2" />
<path d="M802,2160 L7642,1149" stroke="blue" stroke-width="2" />
<path d="M6191,389 L7396,4215" stroke="blue" stroke-width="2" />
<path d="M3619,1937 L8386,4817" stroke="blue" stroke-width="2" />
<path d="M4406,4816 L5135,135" stroke="blue" stroke-width="2" />
<path d="M6339,1834 L227,3505" stroke="blue" stroke-width="2" />
<path d="M6629,3693 L1200,2710" stroke="blue" stroke-width="2" />
<path d="M4492,1007 L6967,612" stroke="blue" stroke-width="2" />
<path d="M2789,5252 L2921,200" stroke="blue" stroke-width="2" />
<path d="M2494,3070 L2716,3012" stroke="blue" stroke-width="2" />
<path d="M1482,5000 L6618,2661" stroke="blue" stroke-width="2" />
<path d="M5288,5038 L4805,867" stroke="blue" stroke-width="2" />
<path d="M6772,431 L2860,470" stroke="blue" stroke-width="2" />
<path d="M3937,3968 L469,3126" stroke="blue" stroke-width="2" />
<path d="M4223,1638 L2645,1088" stroke="blue" stroke-width="2" />
<path d="M307,3395 L2306,4043" stroke="blue" stroke-width="2" />
<path d="M379,5333 L1277,2266" stroke="blue" stroke-width="2" />
<path d="M7442,3647 L7196,4284" stroke="blue" stroke-width="2" />
<path d="M4489,296 L1025,383" stroke="blue" stroke-width="2" />
<path d="M4124,755 L6037,4276" stroke="blue" stroke-width="2" />
<path d="M1396,3522 L4196,2590" stroke="blue" stroke-width="2" />
<path d="M5570,1597 L7899,4353" stroke="blue" stroke-width="2" />
<path d="M1055,3048 L410,2495" stroke="blue" stroke-width="2" />
<path d="M3021,203 L7622,157" stroke="blue" stroke-width="2" />
<path d="M51,1922 L6408,3449" stroke="blue" stroke-width="2" />
<path d="M3467,3197 L2527,824" stroke="blue" stroke-width="2" />
<path d="M5417,2715 L4156,2870" stroke="blue" stroke-width="2" />
<path d="M5968,5838 L2293,2496" stroke="blue" stroke-width="2" />
<path d="M6666,4113 L4646,4127" stroke="blue" stroke-width="2" />
<path d="M125,1883 L3371,2733" stroke="blue" stroke-width="2" />
<path d="M3893,3918 L4106,5664" stroke="blue" stroke-width="2" />
<path d="M8284,3713 L295,4915" stroke="blue" stroke-width="2" />
<path d="M7540,4107 L3126,432" stroke="blue" stroke-width="2" />
<path d="M8004,4102 L3364,4587" stroke="blue" stroke-width="2" />
<path d="M680,1702 L133,142" stroke="blue" stroke-width="2" />
<path d="M2440,4566 L1681,5301" stroke="blue" stroke-width="2" />
<path d="M7248,2745 L5761,2835" stroke="blue" stroke-width="2" />
<path d="M3194,4424 L3520,4821" stroke="blue" stroke-width="2" />
<path d="M5404,3600 L1004,4104" stroke="blue" stroke-width="2" />
<path d="M3539,4659 L6806,102" stroke="blue" stroke-width="2" />
<path d="M6434,405 L2816,4126" stroke="blue" stroke-width="2" />
<path d="M5485,1709 L6550,1541" stroke="blue" stroke-width="2" />
<path d="M1842,5306 L6384,3958" stroke="blue" stroke-width="2" />
<path d="M7594,3935 L391,1004" stroke="blue" stroke-width="2" />
<path d="M4372,854 L467,2058" stroke="blue" stroke-width="2" />
<path d="M4748,367 L2608,852" stroke="blue" stroke-width="2" />
<path d="M1970,5384 L4684,2598" stroke="blue" stroke-width="2" />
<path d="M56,3456 L1232,1447" stroke="blue" stroke-width="2" />
<path d="M5105,1592 L7475,3916" stroke="blue" stroke-width="2" />
<path d="M1564,4033 L3720,2461" stroke="blue" stroke-width="2" />
<path d="M5622,2005 L3411,4312" stroke="blue" stroke-width="2" />
<path d="M5099,2176 L5576,1640" stroke="blue" stroke-width="2" />
<path d="M1208,1291 L2353,101" stroke="blue" stroke-width="2" />
<path d="M8218,5190 L7571,1363" stroke="blue" stroke-width="2" />
<path d="M2337,4331 L4215,3750" stroke="blue" stroke-width="2" />
<path d="M6204,4404 L893,2885" stroke="blue" stroke-width="2" />
<path d="M7635,3875 L7639,228" stroke="blue" stroke-width="2" />
<path d="M6639,1543 L1922,3894" stroke="blue" stroke-width="2" />
<path d="M7322,3000 L5078,3510" stroke="blue" stroke-width="2" />
<path d="M4496,5312 L1910,822" stroke="blue" stroke-width="2" />
<path d="M922,564 L3492,1555" stroke="blue" stroke-width="2" />
<path d="M5417,4882 L330,2932" stroke="blue" stroke-width="2" />
<path d="M985,2165 L5271,3867" stroke="blue" stroke-width="2" />
<path d="M6924,5320 L94,4194" stroke="blue" stroke-width="2" />
<path d="M1370,4357 L487,1826" stroke="blue" stroke-width="2" />
<path d="M3359,2712 L680,5740" stroke="blue" stroke-width="2" />
<path d="M3538,5765 L2445,5443" stroke="blue" stroke-width="2" />
<path d="M969,2006 L5611,2513" stroke="blue" stroke-width="2" />
<path d="M2415,3384 L1146,4644" stroke="blue" stroke-width="2" />
<path d="M7971,5499 L2921,4611" stroke="blue" stroke-width="2" />
<path d="M7421,4907 L5965,3302" stroke="blue" stroke-width="2" />
<path d="M6647,4512 L4970,5198" stroke="blue" stroke-width="2" />
<path d="M5631,3151 L3265,3938" stroke="blue" stroke-width="2" />
<path d="M2842,3124 L970,20" stroke="blue" stroke-width="2" />
<path d="M814,224 L670,3596" stroke="blue" stroke-width="2" />
<path d="M930,3489 L1061,3511" stroke="blue" stroke-width="2" />
<path d="M7303,5203 L6917,1363" stroke="blue" stroke-width="2" />
<path d="M6228,5322 L7282,3761" stroke="blue" stroke-width="2" />
<path d="M6224,4859 L3835,5502" stroke="blue" stroke-width="2" />
<path d="M2631,2055 L2115,1147" stroke="blue" stroke-width="2" />
<path d="M5932,2242 L2448,1961" stroke="blue" stroke-width="2" />
<path d="M7718,3142 L7772,2664" stroke="blue" stroke-width="2" />
<path d="M4545,2054 L4537,4990" stroke="blue" stroke-width="2" />
<path d="M4497,1414 L2644,5712" stroke="blue" stroke-width="2" />
<path d="M4807,4554 L8347,835" stroke="blue" stroke-width="2" />
<path d="M3879,3194 L3329,1526" stroke="blue" stroke-width="2" />
<path d="M4196,5153 L3897,3072" stroke="blue" stroke-width="2" />
<path d="M3548,2991 L2097,4261" stroke="blue" stroke-width="2" />
<path d="M6848,1954 L1050,4275" stroke="blue" stroke-width="2" />
<path d="M5619,1452 L731,2475" stroke="blue" stroke-width="2" />
<path d="M949,217 L3311,3169" stroke="blue" stroke-width="2" />
<path d="M1837,1315 L8441,4992" stroke="blue" stroke-width="2" />
<path d="M141,2352 L7129,109" stroke="blue" stroke-width="2" />
<path d="M5317,5754 L6396,2756" stroke="blue" stroke-width="2" />
<path d="M1622,1702 L3635,5740" stroke="blue" stroke-width="2" />
<path d="M6485,4275 L341,2514" stroke="blue" stroke-width="2" />
<path d="M5085,3778 L5935,4279" stroke="blue" stroke-width="2" />
<path d="M3790,5336 L4595,2268" stroke="blue" stroke-width="2" />
<path d="M3508,4012 L8348,3768" stroke="blue" stroke-width="2" />
<path d="M902,2333 L6885,559" stroke="blue" stroke-width="2" />
<path d="M2488,3409 L3523,1595" stroke="blue" stroke-width="2" />
<path d="M3369,2861 L7643,4768" stroke="blue" stroke-width="2" />
<path d="M2538,3713 L7772,3817" stroke="blue" stroke-width="2" />
<path d="M6449,1669 L1120,1838" stroke="blue" stroke-width="2" />
<path d="M1372,551 L3811,1029" stroke="blue" stroke-width="2" />
<path d="M8060,2696 L6267,1595" stroke="blue" stroke-width="2" />
<path d="M2608,4547 L427,4001" stroke="blue" stroke-width="2" />
<path d="M7617,1010 L5582,3176" stroke="blue" stroke-width="2" />
<path d="M5129,3348 L7838,4547" stroke="blue" stroke-width="2" />
<path d="M6737,4974 L1935,2157" stroke="blue" stroke-width="2" />
<path d="M2522,4512 L2800,1307" stroke="blue" stroke-width="2" />
<path d="M4030,4766 L4759,2376" stroke="blue" stroke-width="2" />
<path d="M460,1329 L6332,672" stroke="blue" stroke-width="2" />
<path d="M847,2408 L4920,795" stroke="blue" stroke-width="2" />
<path d="M955,1985 L3,1704" stroke="blue" stroke-width="2" />
<path d="M6544,5620 L428,4405" stroke="blue" stroke-width="2" />
<path d="M3986,4020 L4285,4903" stroke="blue" stroke-width="2" />
<path d="M1685,4771 L2235,5797" stroke="blue" stroke-width="2" />
<path d="M7958,3883 L2418,2628" stroke="blue" stroke-width="2" />
<path d="M3199,2239 L8147,4099" stroke="blue" stroke-width="2" />
<path d="M2940,1333 L3529,3516" stroke="blue" stroke-width="2" />
<path d="M1075,1502 L7825,35" stroke="blue" stroke-width="2" />
<path d="M4336,3753 L1816,5432" stroke="blue" stroke-width="2" />
<path d="M2159,3007 L2616,5864" stroke="blue" stroke-width="2" />
<path d="M5210,3016 L2957,4761" stroke="blue" stroke-width="2" />
<path d="M3602,2265 L5849,3076" stroke="blue" stroke-width="2" />
<path d="M7881,937 L5541,1682" stroke="blue" stroke-width="2" />
<path d="M5904,4077 L7537,1803" stroke="blue" stroke-width="2" />
<path d="M7160,4536 L304,319" stroke="blue" stroke-width="2" />
<path d="M8383,139 L2111,1828" stroke="blue" stroke-width="2" />
<path d="M4986,1303 L8043,1614" stroke="blue" stroke-width="2" />
<path d="M1290,3680 L4764,5260" stroke="blue" stroke-width="2" />
<path d="M7650,1546 L3029,2274" stroke="blue" stroke-width="2" />
<path d="M4892,5742 L344,4795" stroke="blue" stroke-width="2" />
<path d="M6281,3901 L2222,5439" stroke="blue" stroke-width="2" />
<path d="M6593,4296 L4568,4268" stroke="blue" stroke-width="2" />
<path d="M5415,5908 L289,2959" stroke="blue" stroke-width="2" />
<path d="M8130,5243 L4401,3262" stroke="blue" stroke-width="2" />
<path d="M5697,79 L6367,5608" stroke="blue" stroke-width="2" />
<path d="M3757,5637 L7052,2449" stroke="blue" stroke-width="2" />
<path d="M4414,2793 L2959,473" stroke="blue" stroke-width="2" />
<path d="M2540,3254 L4752,3301" stroke="blue" stroke-width="2" />
<path d="M2533,1822 L8231,1175" stroke="blue" stroke-width="2" />
<path d="M6578,1205 L6754,4062" stroke="blue" stroke-width="2" />
<path d="M4000,5077 L744,5216" stroke="blue" stroke-width="2" />
<path d="M7106,4436 L3059,3227" stroke="blue" stroke-width="2" />
<path d="M1411,5048 L6528,644" stroke="blue" stroke-width="2" />
<path d="M7939,1316 L5683,4708" stroke="blue" stroke-width="2" />
<path d="M1218,3020 L4467,1841" stroke="blue" stroke-width="2" />
<path d="M104,2228 L8047,1112" stroke="blue" stroke-width="2" />
<path d="M7397,2545 L7118,5363" stroke="blue" stroke-width="2" />
<path d="M7259,4980 L3524,3681" stroke="blue" stroke-width="2" />
<path d="M1540,3884 L8439,826" stroke="blue" stroke-width="2" />
<path d="M3829,1533 L1682,3455" stroke="blue" stroke-width="2" />
<path d="M8236,2633 L329,1644" stroke="blue" stroke-width="2" />
<path d="M498,3527 L6509,839" stroke="blue" stroke-width="2" />
<path d="M2415,5874 L678,2170" stroke="blue" stroke-width="2" />
<path d="M5498,1859 L7431,1174" stroke="blue" stroke-width="2" />
<path d="M3698,4298 L7597,5613" stroke="blue" stroke-width="2" />
<path d="M3104,5620 L4284,2172" stroke="blue" stroke-width="2" />
<path d="M6807,1934 L3799,3659" stroke="blue" stroke-width="2" />
<path d="M6400,3654 L8009,2485" stroke="blue" stroke-width="2" />
<path d="M4749,2772 L8224,3460" stroke="blue" stroke-width="2" />
<path d="M831,4679 L4996,1112" stroke="blue" stroke-width="2" />
<path d="M6982,4629 L8191,1792" stroke="blue" stroke-width="2" />
<path d="M3479,5514 L3058,5050" stroke="blue" stroke-width="2" />
<path d="M8164,793 L3835,2661" stroke="blue" stroke-width="2" />
<path d="M105,471 L227,4734" stroke="blue" stroke-width="2" />
<path d="M6005,3588 L2497,2655" stroke="blue" stroke-width="2" />
<path d="M3026,5310 L3766,1193" stroke="blue" stroke-width="2" />
<path d="M4012,2335 L3014,475" stroke="blue" stroke-width="2" />
<path d="M3545,5693 L577,2881" stroke="blue" stroke-width="2" />
<path d="M161,203 L1616,4067" stroke="blue" stroke-width="2" />
<path d="M1334,5411 L2482,3582" stroke="blue" stroke-width="2" />
<path d="M4661,1844 L3156,1765" stroke="blue" stroke-width="2" />
<path d="M1922,519 L7013,2906" stroke="blue" stroke-width="2" />
<path d="M4542,1963 L7311,899" stroke="blue" stroke-width="2" />
<path d="M4507,761 L4958,2304" stroke="blue" stroke-width="2" />
<path d="M3615,3566 L7524,604" stroke="blue" stroke-width="2" />
<path d="M5638,4304 L3793,5812" stroke="blue" stroke-width="2" />
<path d="M4469,4980 L3122,2945" stroke="blue" stroke-width="2" />
<path d="M2883,202 L7807,5226" stroke="blue" stroke-width="2" />
<path d="M18,4755 L4868,3834" stroke="blue" stroke-width="2" />
<path d="M98,5415 L5635,5009" stroke="blue" stroke-width="2" />
<path d="M1659,1383 L1170,2142" stroke="blue" stroke-width="2" />
<path d="M6160,2457 L7330,5625" stroke="blue" stroke-width="2" />
<path d="M1254,1233 L5821,4337" stroke="blue" stroke-width="2" />
<path d="M3233,5842 L1106,1338" stroke="blue" stroke-width="2" />
<path d="M577,3727 L2553,4332" stroke="blue" stroke-width="2" />
<path d="M4210,4133 L311,5767" stroke="blue" stroke-width="2" />
<path d="M1693,4094 L1431,3852" stroke="blue" stroke-width="2" />
<path d="M1883,861 L2980,87" stroke="blue" stroke-width="2" />
<path d="M4349,863 L4971,3444" stroke="blue" stroke-width="2" />
<path d="M6261,1272 L4521,241" stroke="blue" stroke-width="2" />
<path d="M6086,5884 L4608,4749" stroke="blue" stroke-width="2" />
<path d="M2526,5724 L7696,2042" stroke="blue" stroke-width="2" />
<path d="M2290,4279 L154,2643" stroke="blue" stroke-width="2" />
<path d="M2437,4940 L1933,1" stroke="blue" stroke-width="2" />
<path d="M7428,2886 L4667,5838" stroke="blue" stroke-width="2" />
<path d="M2383,2406 L2082,3169" stroke="blue" stroke-width="2" />
<path d="M8134,660 L3751,4959" stroke="blue" stroke-width="2" />
<path d="M8104,5910 L628,1256" stroke="blue" stroke-width="2" />
<path d="M6212,1440 L4895,384" stroke="blue" stroke-width="2" />
<path d="M2280,2299 L6808,1164" stroke="blue" stroke-width="2" />
<path d="M7589,1499 L2780,104" stroke="blue" stroke-width="2" />
<path d="M14,3780 L6907,1094" stroke="blue" stroke-width="2" />
<path d="M4971,3349 L2862,2629" stroke="blue" stroke-width="2" />
<path d="M7462,4464 L1619,270" stroke="blue" stroke-width="2" />
<path d="M2481,1275 L4442,1821" stroke="blue" stroke-width="2" />
<path d="M6810,2658 L4931,4576" stroke="blue" stroke-width="2" />
<path d="M8201,577 L3871,3127" stroke="blue" stroke-width="2" />
<path d="M1584,164 L7366,5288" stroke="blue" stroke-width="2" />
<path d="M6464,5313 L94,579" stroke="blue" stroke-width="2" />
<path d="M7667,5627 L4283,2008" stroke="blue" stroke-width="2" />
<path d="M2512,3687 L7992,260" stroke="blue" stroke-width="2" />
<path d="M7068,176 L2212,4399" stroke="blue" stroke-width="2" />
<path d="M2423,897 L7461,4394" stroke="blue" stroke-width="2" />
<path d="M6471,4089 L3489,3533" stroke="blue" stroke-width="2" />
<path d="M8119,2047 L6343,3461" stroke="blue" stroke-width="2" />
<path d="M4515,1918 L5127,4406" stroke="blue" stroke-width="2" />
<path d="M3794,5723 L1857,1907" stroke="blue" stroke-width="2" />
<path d="M7733,2649 L5777,4851" stroke="blue" stroke-width="2" />
<path d="M918,2554 L5195,4235" stroke="blue" stroke-width="2" />
<path d="M6773,3142 L1606,5538" stroke="blue" stroke-width="2" />
<path d="M1002,5125 L4410,4635" stroke="blue" stroke-width="2" />
<path d="M1176,295 L686,1709" stroke="blue" stroke-width="2" />
<path d="M7406,183 L2593,4937" stroke="blue" stroke-width="2" />
<path d="M5036,4350 L235,4178" stroke="blue" stroke-width="2" />
<path d="M5206,4001 L852,1570" stroke="blue" stroke-width="2" />
<path d="M6079,2887 L1448,1874" stroke="blue" stroke-width="2" />
<path d="M1319,2389 L5003,5444" stroke="blue" stroke-width="2" />
<path d="M1849,4104 L1689,1595" stroke="blue" stroke-width="2" />
<path d="M5839,3604 L5279,1738" stroke="blue" stroke-width="2" />
<path d="M3719,894 L2914,2340" stroke="blue" stroke-width="2" />
<path d="M6897,779 L7672,3929" stroke="blue" stroke-width="2" />
<path d="M2290,4485 L5003,4709" stroke="blue" stroke-width="2" />
<path d="M4847,5234 L8069,2831" stroke="blue" stroke-width="2" />
<path d="M5259,3710 L3419,3327" stroke="blue" stroke-width="2" />
<path d="M6904,2150 L780,1294" stroke="blue" stroke-width="2" />
<path d="M6189,5332 L3933,232" stroke="blue" stroke-width="2" />
<path d="M8265,5813 L6927,2225" stroke="blue" stroke-width="2" />
<path d="M4395,1599 L2426,3578" stroke="blue" stroke-width="2" />
<path d="M4526,3699 L2482,2005" stroke="blue" stroke-width="2" />
<path d="M2375,4392 L7120,4864" stroke="blue" stroke-width="2" />
<path d="M2151,2116 L7327,750" stroke="blue" stroke-width="2" />
<path d="M5104,97 L807,2787" stroke="blue" stroke-width="2" />
<path d="M5198,2570 L4156,4610" stroke="blue" stroke-width="2" />
<path d="M1611,894 L4897,3466" stroke="blue" stroke-width="2" />
<path d="M4787,3600 L2887,4963" stroke="blue" stroke-width="2" />
<path d="M8028,3627 L6768,3873" stroke="blue" stroke-width="2" />
<path d="M2865,699 L5468,2081" stroke="blue" stroke-width="2" />
<path d="M1407,580 L3095,4347" stroke="blue" stroke-width="2" />
<path d="M5322,2210 L4905,3527" stroke="blue" stroke-width="2" />
<path d="M3200,469 L1465,1188" stroke="blue" stroke-width="2" />
<path d="M3619,782 L7049,5914" stroke="blue" stroke-width="2" />
<path d="M5180,5072 L4485,1564" stroke="blue" stroke-width="2" />
<path d="M1351,895 L4848,176" stroke="blue" stroke-width="2" />
<path d="M1143,2733 L970,4087" stroke="blue" stroke-width="2" />
<path d="M2795,5054 L5267,3237" stroke="blue" stroke-width="2" />
<path d="M7358,1034 L6958,2267" stroke="blue" stroke-width="2" />
<path d="M0,0 L8450,0" stroke="red" stroke-width="10" />
<path d="M8450,0 L8450,5935" stroke="red" stroke-width="10" />
<path d="M0,5935 L8450,5935" stroke="red" stroke-width="10" />
<path d="M0,5935 L0,0" stroke="red" stroke-width="10" />
</svg>