<?xml version="1.0" encoding="UTF-8"?>
<svg xmlns="http://www.w3.org/2000/svg" xmlns:xlink="http://www.w3.org/1999/xlink"
     width="10000" height="10000" viewBox="0 0 10000 10000">
<defs>
</defs>
<path d="M3363,3409 L3372,1790" stroke="blue" stroke-width="2" />
<path d="M670,2319 L1711,451" stroke="blue" stroke-width="2" />
<path d="M1526,1589 L7035,173" stroke="blue" stroke-width="2" />
<path d="M6778,1837 L736,1840" stroke="blue" stroke-width="2" />
<path d="M4556,999 L2298,3258" stroke="blue" stroke-width="2" />
<path d="M6547,510 L2959,753" stroke="blue" stroke-width="2" />
<path d="M1739,2342 L7194,2450" stroke="blue" stroke-width="2" />
<path d="M7233,0 L2595,1173" stroke="blue" stroke-width="2" />
<path d="M5142,3883 L1630,3132" stroke="blue" stroke-width="2" />
<path d="M6863,3588 L1844,1263" stroke="blue" stroke-width="2" />
<path d="M4697,1842 L2297,1078" stroke="blue" stroke-width="2" />
<path d="M3707,1918 L6947,2218" stroke="blue" stroke-width="2" />
<path d="M5703,945 L3511,757" stroke="blue" stroke-width="2" />
<path d="M3008,3390 L309,199" stroke="blue" stroke-width="2" />
<path d="M3603,280 L4862,66" stroke="blue" stroke-width="2" />
<path d="M1773,3141 L5076,778" stroke="blue" stroke-width="2" />
<path d="M2744,2780 L1836,208" stroke="blue" stroke-width="2" />
<path d="M591,302 L216,2866" stroke="blue" stroke-width="2" />
<path d="M2143,3023 L887,1310" stroke="blue" stroke-width="2" />
<path d="M5099,1652 L1546,760" stroke="blue" stroke-width="2" />
<path d="M502,1629 L155,4054" stroke="blue" stroke-width="2" />
<path d="M4690,2634 L1286,3105" stroke="blue" stroke-width="2" />
<path d="M2658,1825 L6523,4143" stroke="blue" stroke-width="2" />
<path d="M2986,2288 L1658,27" stroke="blue" stroke-width="2" />
<path d="M4353,3967 L3313,3953" stroke="blue" stroke-width="2" />
<path d="M7355,137 L1441,4097" stroke="blue" stroke-width="2" />
<path d="M1630,2000 L1658,1827" stroke="blue" stroke-width="2" />
<path d="M4382,941 L6161,3360" stroke="blue" stroke-width="2" />
<path d="M2230,3810 L4538,1366" stroke="blue" stroke-width="2" />
<path d="M7221,3154 L1171,757" stroke="blue" stroke-width="2" />
<path d="M6953,4084 L2200,1702" stroke="blue" stroke-width="2" />
<path d="M5695,357 L7374,1303" stroke="blue" stroke-width="2" />
<path d="M129,2263 L5297,1310" stroke="blue" stroke-width="2" />
<path d="M1140,941 L7117,3356" stroke="blue" stroke-width="2" />
<path d="M390,2405 L1215,2886" stroke="blue" stroke-width="2" />
<path d="M1724,2427 L4668,470" stroke="blue" stroke-width="2" />
<path d="M3845,255 L5596,2375" stroke="blue" stroke-width="2" />
<path d="M7049,849 L1826,3588" stroke="blue" stroke-width="2" />
<path d="M3395,2337 L1318,3228" stroke="blue" stroke-width="2" />
<path d="M6100,2264 L5031,1499" stroke="blue" stroke-width="2" />
<path d="M6360,1385 L289,2717" stroke="blue" stroke-width="2" />
<path d="M1380,696 L3549,66" stroke="blue" stroke-width="2" />
<path d="M3643,1627 L1281,1455" stroke="blue" stroke-width="2" />
<path d="M6843,988 L485,176" stroke="blue" stroke-width="2" />
<path d="M5434,2680 L1695,2192" stroke="blue" stroke-width="2" />
<path d="M4176,4071 L105,2834" stroke="blue" stroke-width="2" />
<path d="M4886,3118 L4848,2524" stroke="blue" stroke-width="2" />
<path d="M3857,1072 L4183,1597" stroke="blue" stroke-width="2" />
<path d="M5849,3520 L7357,945" stroke="blue" stroke-width="2" />
<path d="M3980,1178 L3735,1621" stroke="blue" stroke-width="2" />
<path d="M4990,3374 L818,3263" stroke="blue" stroke-width="2" />
<path d="M1064,417 L701,2909" stroke="blue" stroke-width="2" />
<path d="M6917,3287 L1770,1872" stroke="blue" stroke-width="2" />
<path d="M7395,2884 L4606,2860" stroke="blue" stroke-width="2" />
<path d="M3241,3911 L4813,3882" stroke="blue" stroke-width="2" />
<path d="M3653,1095 L7391,1670" stroke="blue" stroke-width="2" />
<path d="M1196,1029 L6871,3106" stroke="blue" stroke-width="2" />
<path d="M4007,1662 L3234,2393" stroke="blue" stroke-width="2" />
<path d="M2393,2552 L2967,1810" stroke="blue" stroke-width="2" />
<path d="M2837,225 L3236,1427" stroke="blue" stroke-width="2" />
<path d="M4903,316 L1759,3403" stroke="blue" stroke-width="2" />
<path d="M6807,548 L6783,873" stroke="blue" stroke-width="2" />
<path d="M4609,1870 L254,2554" stroke="blue" stroke-width="2" />
<path d="M5286,1098 L282,118" stroke="blue" stroke-width="2" />
<path d="M1360,372 L4742,3773" stroke="blue" stroke-width="2" />
<path d="M5550,3180 L5766,753" stroke="blue" stroke-width="2" />
<path d="M4967,181 L6289,499" stroke="blue" stroke-width="2" />
<path d="M3222,965 L552,3349" stroke="blue" stroke-width="2" />
<path d="M3245,146 L266,2476" stroke="blue" stroke-width="2" />
<path d="M4006,3682 L1616,2864" stroke="blue" stroke-width="2" />
<path d="M2149,227 L4863,996" stroke="blue" stroke-width="2" />
<path d="M324,2222 L4135,2958" stroke="blue" stroke-width="2" />
<path d="M4391,3993 L1667,1370" stroke="blue" stroke-width="2" />
<path d="M3322,1196 L5081,12" stroke="blue" stroke-width="2" />
<path d="M6616,2501 L5359,3100" stroke="blue" stroke-width="2" />
<path d="M6378,1292 L2105,1238" stroke="blue" stroke-width="2" />
<path d="M2206,3335 L1759,1735" stroke="blue" stroke-width="2" />
<path d="M567,68 L5949,3482" stroke="blue" stroke-width="2" />
<path d="M2340,3310 L613,3494" stroke="blue" stroke-width="2" />
<path d="M6789,1543 L5772,740" stroke="blue" stroke-width="2" />
<path d="M2962,3200 L1761,3008" stroke="blue" stroke-width="2" />
<path d="M5137,3253 L3950,3552" stroke="blue" stroke-width="2" />
<path d="M3243,2668 L404,659" stroke="blue" stroke-width="2" />
<path d="M683,3329 L5385,760" stroke="blue" stroke-width="2" />
<path d="M4348,841 L3050,3600" stroke="blue" stroke-width="2" />
<path d="M7083,987 L3877,231" stroke="blue" stroke-width="2" />
<path d="M5370,1686 L5470,1613" stroke="blue" stroke-width="2" />
<path d="M1073,3057 L3132,1922" stroke="blue" stroke-width="2" />
<path d="M7324,650 L1677,3126" stroke="blue" stroke-width="2" />
<path d="M5627,2292 L906,3775" stroke="blue" stroke-width="2" />
<path d="M5261,3957 L605,3149" stroke="blue" stroke-width="2" />
<path d="M1604,3459 L2364,1048" stroke="blue" stroke-width="2" />
<path d="M126,578 L2165,2355" stroke="blue" stroke-width="2" />
<path d="M6078,1231 L2233,1416" stroke="blue" stroke-width="2" />
<path d="M1443,2464 L7225,964" stroke="blue" stroke-width="2" />
<path d="M489,2823 L2429,3813" stroke="blue" stroke-width="2" />
<path d="M4997,330 L1769,511" stroke="blue" stroke-width="2" />
<path d="M6169,1545 L1170,831" stroke="blue" stroke-width="2" />
<path d="M3670,1781 L3592,350" stroke="blue" stroke-width="2" />
<path d="M6744,2079 L1384,2826" stroke="blue" stroke-width="2" />
<path d="M3326,1015 L5625,2789" stroke="blue" stroke-width="2" />
<path d="M3515,924 L3455,1323" stroke="blue" stroke-width="2" />
<path d="M1114,1441 L2648,724" stroke="blue" stroke-width="2" />
<path d="M852,980 L2525,3311" stroke="blue" stroke-width="2" />
<path d="M632,1616 L7017,1931" stroke="blue" stroke-width="2" />
<path d="M2498,2435 L4030,1406" stroke="blue" stroke-width="2" />
<path d="M923,1832 L300,1953" stroke="blue" stroke-width="2" />
<path d="M3669,2322 L5265,2010" stroke="blue" stroke-width="2" />
<path d="M3318,77 L6035,2721" stroke="blue" stroke-width="2" />
<path d="M27,3967 L4461,2941" stroke="blue" stroke-width="2" />
<path d="M681,881 L922,900" stroke="blue" stroke-width="2" />
<path d="M112,2170 L3965,1688" stroke="blue" stroke-width="2" />
<path d="M3793,2718 L7168,4120" stroke="blue" stroke-width="2" />
<path d="M6228,4120 L1114,689" stroke="blue" stroke-width="2" />
<path d="M5011,2712 L5321,1971" stroke="blue" stroke-width="2" />
<path d="M1462,2553 L3609,2479" stroke="blue" stroke-width="2" />
<path d="M4263,1308 L5076,2623" stroke="blue" stroke-width="2" />
<path d="M1329,1406 L789,597" stroke="blue" stroke-width="2" />
<path d="M5528,715 L5522,603" stroke="blue" stroke-width="2" />
<path d="M6339,634 L1178,3093" stroke="blue" stroke-width="2" />
<path d="M3384,1481 L5021,1786" stroke="blue" stroke-width="2" />
<path d="M7148,220 L1868,1925" stroke="blue" stroke-width="2" />
<path d="M5537,2192 L2197,1512" stroke="blue" stroke-width="2" />
<path d="M6269,969 L249,3890" stroke="blue" stroke-width="2" />
<path d="M6161,372 L5374,3444" stroke="blue" stroke-width="2" />
<path d="M2575,658 L6273,3171" stroke="blue" stroke-width="2" />
<path d="M316,1502 L4852,1311" stroke="blue" stroke-width="2" />
<path d="M246,1593 L2221,1514" stroke="blue" stroke-width="2" />
<path d="M1331,2175 L6387,3582" stroke="blue" stroke-width="2" />
<path d="M1189,937 L3574,2155" stroke="blue" stroke-width="2" />
<path d="M6272,1365 L6095,2571" stroke="blue" stroke-width="2" />
<path d="M533,236 L754,1718" stroke="blue" stroke-width="2" />
<path d="M3388,322 L6231,3834" stroke="blue" stroke-width="2" />
<path d="M3974,1414 L4167,1335" stroke="blue" stroke-width="2" />
<path d="M3505,1654 L4553,3187" stroke="blue" stroke-width="2" />
<path d="M5224,897 L4975,3344" stroke="blue" stroke-width="2" />
<path d="M4254,535 L1201,3043" stroke="blue" stroke-width="2" />
<path d="M6256,1030 L375,1854" stroke="blue" stroke-width="2" />
<path d="M3790,1665 L5787,427" stroke="blue" stroke-width="2" />
<path d="M6194,231 L6153,3867" stroke="blue" stroke-width="2" />
<path d="M1585,3186 L1804,310" stroke="blue" stroke-width="2" />
<path d="M3411,219 L2507,242" stroke="blue" stroke-width="2" />
<path d="M7097,571 L3884,2128" stroke="blue" stroke-width="2" />
<path d="M4795,2837 L4572,905" stroke="blue" stroke-width="2" />
<path d="M4817,2127 L1669,521" stroke="blue" stroke-width="2" />
<path d="M7295,3973 L6174,1665" stroke="blue" stroke-width="2" />
<path d="M732,1323 L689,3381" stroke="blue" stroke-width="2" />
<path d="M907,1860 L4183,1968" stroke="blue" stroke-width="2" />
<path d="M4821,2305 L2465,3324" stroke="blue" stroke-width="2" />
<path d="M4606,3881 L5107,1776" stroke="blue" stroke-width="2" />
<path d="M670,3630 L4686,3955" stroke="blue" stroke-width="2" />
<path d="M4439,1124 L3648,462" stroke="blue" stroke-width="2" />
<path d="M7207,3215 L3643,3749" stroke="blue" stroke-width="2" />
<path d="M5910,1289 L1022,3133" stroke="blue" stroke-width="2" />
<path d="M6118,2530 L1557,243" stroke="blue" stroke-width="2" />
<path d="M4114,97 L894,2509" stroke="blue" stroke-width="2" />
<path d="M7218,2491 L1813,1752" stroke="blue" stroke-width="2" />
<path d="M3482,2209 L4001,422" stroke="blue" stroke-width="2" />
<path d="M3766,377 L3902,50" stroke="blue" stroke-width="2" />
<path d="M1303,442 L6084,3994" stroke="blue" stroke-width="2" />
<path d="M2254,2408 L6701,2377" stroke="blue" stroke-width="2" />
<path d="M5297,3142 L1292,479" stroke="blue" stroke-width="2" />
<path d="M557,1110 L5165,1760" stroke="blue" stroke-width="2" />
<path d="M3646,2521 L7102,339" stroke="blue" stroke-width="2" />
<path d="M6147,3347 L3116,2124" stroke="blue" stroke-width="2" />
<path d="M5747,4090 L4392,2004" stroke="blue" stroke-width="2" />
<path d="M607,4142 L1298,1118" stroke="blue" stroke-width="2" />
<path d="M647,874 L3986,1405" stroke="blue" stroke-width="2" />
<path d="M4460,1277 L925,3259" stroke="blue" stroke-width="2" />
<path d="M4689,3305 L2607,1072" stroke="blue" stroke-width="2" />
<path d="M6255,1200 L2541,1346" stroke="blue" stroke-width="2" />
<path d="M47,2023 L3339,669" stroke="blue" stroke-width="2" />
<path d="M5477,103 L6064,3320" stroke="blue" stroke-width="2" />
<path d="M2361,780 L1668,2020" stroke="blue" stroke-width="2" />
<path d="M4820,1511 L1392,562" stroke="blue" stroke-width="2" />
<path d="M883,2809 L4116,111" stroke="blue" stroke-width="2" />
<path d="M2540,3916 L1330,3920" stroke="blue" stroke-width="2" />
<path d="M5900,57 L2961,1317" stroke="blue" stroke-width="2" />
<path d="M1862,240 L1823,708" stroke="blue" stroke-width="2" />
<path d="M2174,1410 L6098,2337" stroke="blue" stroke-width="2" />
<path d="M7176,3019 L1891,2411" stroke="blue" stroke-width="2" />
<path d="M1708,109 L2693,3828" stroke="blue" stroke-width="2" />
<path d="M3452,84 L7146,3084" stroke="blue" stroke-width="2" />
<path d="M2361,912 L2540,4102" stroke="blue" stroke-width="2" />
<path d="M311,2805 L5635,972" stroke="blue" stroke-width="2" />
<path d="M893,400 L5579,463" stroke="blue" stroke-width="2" />
<path d="M3649,427 L5197,3042" stroke="blue" stroke-width="2" />
<path d="M2877,48 L2912,1717" stroke="blue" stroke-width="2" />
<path d="M4115,1853 L5281,2455" stroke="blue" stroke-width="2" />
<path d="M3112,1458 L1288,3420" stroke="blue" stroke-width="2" />
<path d="M2364,942 L783,1811" stroke="blue" stroke-width="2" />
<path d="M6432,928 L4488,2715" stroke="blue" stroke-width="2" />
<path d="M3911,3049 L3934,414" stroke="blue" stroke-width="2" />
<path d="M92,3242 L1396,629" stroke="blue" stroke-width="2" />
<path d="M521,493 L6770,1692" stroke="blue" stroke-width="2" />
<path d="M7163,1655 L4205,461" stroke="blue" stroke-width="2" />
<path d="M1515,1002 L1481,1694" stroke="blue" stroke-width="2" />
<path d="M3002,1056 L2572,2536" stroke="blue" stroke-width="2" />
<path d="M1396,3157 L4119,1013" stroke="blue" stroke-width="2" />
<path d="M3988,2155 L298,1688" stroke="blue" stroke-width="2" />
<path d="M2722,1971 L4363,2040" stroke="blue" stroke-width="2" />
<path d="M3138,2468 L4185,2269" stroke="blue" stroke-width="2" />
<path d="M1423,667 L1681,1889" stroke="blue" stroke-width="2" />
<path d="M1645,782 L6404,1537" stroke="blue" stroke-width="2" />
<path d="M1875,257 L5064,1062" stroke="blue" stroke-width="2" />
<path d="M258,2603 L3156,2057" stroke="blue" stroke-width="2" />
<path d="M4729,1795 L1826,2522" stroke="blue" stroke-width="2" />
<path d="M2386,1252 L3313,1482" stroke="blue" stroke-width="2" />
<path d="M2699,1024 L4114,3909" stroke="blue" stroke-width="2" />
<path d="M6950,1659 L5180,1714" stroke="blue" stroke-width="2" />
<path d="M3419,1654 L2412,1066" stroke="blue" stroke-width="2" />
<path d="M6954,2758 L706,3866" stroke="blue" stroke-width="2" />
<path d="M2574,3076 L1571,140" stroke="blue" stroke-width="2" />
<path d="M1498,2227 L3933,3704" stroke="blue" stroke-width="2" />
<path d="M3240,415 L6846,1950" stroke="blue" stroke-width="2" />
<path d="M1599,3816 L1135,653" stroke="blue" stroke-width="2" />
<path d="M4892,2630 L6593,3096" stroke="blue" stroke-width="2" />
<path d="M4875,750 L3285,438" stroke="blue" stroke-width="2" />
<path d="M4076,3702 L1676,601" stroke="blue" stroke-width="2" />
<path d="M1755,2560 L1639,2495" stroke="blue" stroke-width="2" />
<path d="M2994,2323 L6073,1650" stroke="blue" stroke-width="2" />
<path d="M5045,1451 L2458,3525" stroke="blue" stroke-width="2" />
<path d="M5819,3863 L7323,3902" stroke="blue" stroke-width="2" />
<path d="M6736,1064 L2761,623" stroke="blue" stroke-width="2" />
<path d="M6567,4017 L4419,2497" stroke="blue" stroke-width="2" />
<path d="M2852,546 L2398,1046" stroke="blue" stroke-width="2" />
<path d="M1809,764 L5860,2908" stroke="blue" stroke-width="2" />
<path d="M1915,3978 L1957,1638" stroke="blue" stroke-width="2" />
<path d="M1891,3648 L38,3114" stroke="blue" stroke-width="2" />
<path d="M715,3734 L5194,1323" stroke="blue" stroke-width="2" />
<path d="M4529,2227 L3470,672" stroke="blue" stroke-width="2" />
<path d="M3808,2256 L6294,248" stroke="blue" stroke-width="2" />
<path d="M5605,3280 L3674,2791" stroke="blue" stroke-width="2" />
<path d="M6558,3512 L4961,3552" stroke="blue" stroke-width="2" />
<path d="M5573,3925 L2725,266" stroke="blue" stroke-width="2" />
<path d="M5259,1592 L6030,4034" stroke="blue" stroke-width="2" />
<path d="M3745,3776 L1879,4076" stroke="blue" stroke-width="2" />
<path d="M3057,527 L1818,286" stroke="blue" stroke-width="2" />
<path d="M2049,1909 L1588,3280" stroke="blue" stroke-width="2" />
<path d="M1668,4079 L2546,142" stroke="blue" stroke-width="2" />
<path d="M6746,189 L1371,1947" stroke="blue" stroke-width="2" />
<path d="M1802,4046 L5649,3911" stroke="blue" stroke-width="2" />
<path d="M3949,3089 L4312,1083" stroke="blue" stroke-width="2" />
<path d="M1021,1169 L1704,910" stroke="blue" stroke-width="2" />
<path d="M1059,3871 L2580,3259" stroke="blue" stroke-width="2" />
<path d="M5753,199 L800,3123" stroke="blue" stroke-width="2" />
<path d="M623,4089 L4624,3351" stroke="blue" stroke-width="2" />
<path d="M7027,2081 L1120,1482" stroke="blue" stroke-width="2" />
<path d="M5430,1083 L2344,2846" stroke="blue" stroke-width="2" />
<path d="M2027,1927 L738,3759" stroke="blue" stroke-width="2" />
<path d="M1713,3562 L1079,273" stroke="blue" stroke-width="2" />
<path d="M6682,2921 L768,2456" stroke="blue" stroke-width="2" />
<path d="M3326,3182 L1566,2513" stroke="blue" stroke-width="2" />
<path d="M3115,2408 L4498,3181" stroke="blue" stroke-width="2" />
<path d="M1473,3966 L399,1308" stroke="blue" stroke-width="2" />
<path d="M1269,2871 L3590,4010" stroke="blue" stroke-width="2" />
<path d="M491,2638 L5924,2734" stroke="blue" stroke-width="2" />
<path d="M5000,3306 L2794,2543" stroke="blue" stroke-width="2" />
<path d="M4110,2341 L408,692" stroke="blue" stroke-width="2" />
<path d="M2857,3420 L1580,3054" stroke="blue" stroke-width="2" />
<path d="M812,1570 L3624,4018" stroke="blue" stroke-width="2" />
<path d="M7001,2970 L3505,3517" stroke="blue" stroke-width="2" />
<path d="M5696,2678 L3948,293" stroke="blue" stroke-width="2" />
<path d="M2253,1584 L3556,2480" stroke="blue" stroke-width="2" />
<path d="M6563,2940 L1384,3795" stroke="blue" stroke-width="2" />
<path d="M2254,3995 L3506,2749" stroke="blue" stroke-width="2" />
<path d="M2747,1166 L3815,591" stroke="blue" stroke-width="2" />
<path d="M3812,1637 L3869,4" stroke="blue" stroke-width="2" />
<path d="M7028,3085 L4918,508" stroke="blue" stroke-width="2" />
<path d="M1420,980 L6609,2050" stroke="blue" stroke-width="2" />
<path d="M5123,2295 L2468,3910" stroke="blue" stroke-width="2" />
<path d="M996,3479 L5389,659" stroke="blue" stroke-width="2" />
<path d="M4127,542 L3306,890" stroke="blue" stroke-width="2" />
<path d="M2762,4019 L4161,1674" stroke="blue" stroke-width="2" />
<path d="M1715,3175 L2764,3607" stroke="blue" stroke-width="2" />
<path d="M1603,1251 L4048,3223" stroke="blue" stroke-width="2" />
<path d="M6434,707 L3750,3120" stroke="blue" stroke-width="2" />
<path d="M1552,202 L4968,1243" stroke="blue" stroke-width="2" />
<path d="M1673,2138 L6419,3688" stroke="blue" stroke-width="2" />
<path d="M6732,2887 L2264,1739" stroke="blue" stroke-width="2" />
<path d="M6146,4110 L470,1079" stroke="blue" stroke-width="2" />
<path d="M1026,3593 L6039,1001" stroke="blue" stroke-width="2" />
<path d="M2597,1806 L1182,1650" stroke="blue" stroke-width="2" />
<path d="M2245,135 L4712,190" stroke="blue" stroke-width="2" />
<path d="M652,1567 L966,2559" stroke="blue" stroke-width="2" />
<path d="M652,2196 L5204,3625" stroke="blue" stroke-width="2" />
<path d="M5210,1856 L1643,228" stroke="blue" stroke-width="2" />
<path d="M4084,1684 L1001,4111" stroke="blue" stroke-width="2" />
<path d="M1218,51 L3744,3967" stroke="blue" stroke-width="2" />
<path d="M5532,2855 L2622,3105" stroke="blue" stroke-width="2" />
<path d="M1623,408 L2563,809" stroke="blue" stroke-width="2" />
<path d="M4802,3913 L2540,2513" stroke="blue" stroke-width="2" />
<path d="M5251,2504 L4340,2813" stroke="blue" stroke-width="2" />
<path d="M6658,116 L3260,2269" stroke="blue" stroke-width="2" />
<path d="M4387,3022 L3288,1929" stroke="blue" stroke-width="2" />
<path d="M1258,3380 L5214,3778" stroke="blue" stroke-width="2" />
<path d="M3385,1024 L3349,1141" stroke="blue" stroke-width="2" />
<path d="M6452,2175 L293,1939" stroke="blue" stroke-width="2" />
<path d="M717,1225 L1356,1565" stroke="blue" stroke-width="2" />
<path d="M970,3775 L3843,1121" stroke="blue" stroke-width="2" />
<path d="M754,2676 L2011,3821" stroke="blue" stroke-width="2" />
<path d="M1000,1084 L7311,3984" stroke="blue" stroke-width="2" />
<path d="M4308,2896 L1590,3518" stroke="blue" stroke-width="2" />
<path d="M4034,3044 L6771,983" stroke="blue" stroke-width="2" />
<path d="M1834,2734 L4316,2554" stroke="blue" stroke-width="2" />
<path d="M2462,3476 L5843,3484" stroke="blue" stroke-width="2" />
<path d="M5032,3696 L235,3526" stroke="blue" stroke-width="2" />
<path d="M3892,3568 L4350,1056" stroke="blue" stroke-width="2" />
<path d="M1156,3922 L6325,3777" stroke="blue" stroke-width="2" />
<path d="M856,1125 L120,1367" stroke="blue" stroke-width="2" />
<path d="M3361,1900 L7089,3418" stroke="blue" stroke-width="2" />
<path d="M6154,2184 L5558,555" stroke="blue" stroke-width="2" />
<path d="M2893,3095 L860,3059" stroke="blue" stroke-width="2" />
<path d="M7385,1146 L2845,1617" stroke="blue" stroke-width="2" />
<path d="M2006,3212 L4331,1355" stroke="blue" stroke-width="2" />
<path d="M2563,3412 L5516,1547" stroke="blue" stroke-width="2" />
<path d="M4097,1640 L4026,3700" stroke="blue" stroke-width="2" />
<path d="M2043,3030 L3170,3599" stroke="blue" stroke-width="2" />
<path d="M0,0 L7397,0" stroke="red" stroke-width="10" />
<path d="M7397,0 L7397,4145" stroke="red" stroke-width="10" />
<path d="M0,4145 L7397,4145" stroke="red" stroke-width="10" />
<path d="M0,4145 L0,0" stroke="red" stroke-width="10" />
</svg>