<?xml version="1.0" encoding="UTF-8"?>
<svg xmlns="http://www.w3.org/2000/svg" xmlns:xlink="http://www.w3.org/1999/xlink"
     width="10000" height="10000" viewBox="0 0 10000 10000">
<defs>
</defs>
<path d="M1806,694 L291,4691" stroke="blue" stroke-width="2" />
<path d="M2168,9481 L1896,3218" stroke="blue" stroke-width="2" />
<path d="M2081,3102 L671,5873" stroke="blue" stroke-width="2" />
<path d="M1883,7256 L1565,4499" stroke="blue" stroke-width="2" />
<path d="M2239,9064 L386,3724" stroke="blue" stroke-width="2" />
<path d="M1203,5248 L795,2192" stroke="blue" stroke-width="2" />
<path d="M2166,8908 L26,3898" stroke="blue" stroke-width="2" />
<path d="M623,9383 L594,1701" stroke="blue" stroke-width="2" />
<path d="M912,8412 L984,3192" stroke="blue" stroke-width="2" />
<path d="M1704,3753 L1244,2946" stroke="blue" stroke-width="2" />
<path d="M1913,2605 L988,1230" stroke="blue" stroke-width="2" />
<path d="M1504,2494 L74,3180" stroke="blue" stroke-width="2" />
<path d="M351,3525 L1156,4942" stroke="blue" stroke-width="2" />
<path d="M1217,7142 L1629,2897" stroke="blue" stroke-width="2" />
<path d="M1997,2192 L1627,5621" stroke="blue" stroke-width="2" />
<path d="M1368,7570 L1395,8655" stroke="blue" stroke-width="2" />
<path d="M1349,370 L1657,5508" stroke="blue" stroke-width="2" />
<path d="M1841,4369 L1859,5179" stroke="blue" stroke-width="2" />
<path d="M225,1683 L252,107" stroke="blue" stroke-width="2" />
<path d="M1828,1922 L348,578" stroke="blue" stroke-width="2" />
<path d="M1999,1706 L623,9043" stroke="blue" stroke-width="2" />
<path d="M1238,1016 L786,3768" stroke="blue" stroke-width="2" />
<path d="M604,433 L1494,8190" stroke="blue" stroke-width="2" />
<path d="M1271,5226 L377,6762" stroke="blue" stroke-width="2" />
<path d="M1022,7515 L648,2364" stroke="blue" stroke-width="2" />
<path d="M1625,432 L1607,8231" stroke="blue" stroke-width="2" />
<path d="M1841,3747 L83,8558" stroke="blue" stroke-width="2" />
<path d="M105,8920 L796,7306" stroke="blue" stroke-width="2" />
<path d="M1610,1779 L2256,3853" stroke="blue" stroke-width="2" />
<path d="M698,8778 L317,5823" stroke="blue" stroke-width="2" />
<path d="M1355,6092 L1179,6450" stroke="blue" stroke-width="2" />
<path d="M515,8879 L290,4310" stroke="blue" stroke-width="2" />
<path d="M228,2786 L1719,9238" stroke="blue" stroke-width="2" />
<path d="M1885,2710 L703,6836" stroke="blue" stroke-width="2" />
<path d="M1635,5399 L982,5362" stroke="blue" stroke-width="2" />
<path d="M818,9033 L1714,5179" stroke="blue" stroke-width="2" />
<path d="M1903,4654 L1839,5053" stroke="blue" stroke-width="2" />
<path d="M1658,2816 L1793,2358" stroke="blue" stroke-width="2" />
<path d="M2015,4306 L2317,1066" stroke="blue" stroke-width="2" />
<path d="M386,4591 L2304,4941" stroke="blue" stroke-width="2" />
<path d="M1363,9275 L168,8567" stroke="blue" stroke-width="2" />
<path d="M1350,7166 L1717,4192" stroke="blue" stroke-width="2" />
<path d="M1280,1109 L649,6844" stroke="blue" stroke-width="2" />
<path d="M39,385 L186,3418" stroke="blue" stroke-width="2" />
<path d="M1590,1605 L1578,5506" stroke="blue" stroke-width="2" />
<path d="M1564,1968 L760,6171" stroke="blue" stroke-width="2" />
<path d="M427,9453 L1140,1957" stroke="blue" stroke-width="2" />
<path d="M1440,9229 L152,7441" stroke="blue" stroke-width="2" />
<path d="M2139,2495 L786,1491" stroke="blue" stroke-width="2" />
<path d="M1355,1090 L1805,4280" stroke="blue" stroke-width="2" />
<path d="M1492,3729 L1566,3635" stroke="blue" stroke-width="2" />
<path d="M1365,8603 L616,8712" stroke="blue" stroke-width="2" />
<path d="M1570,3409 L1589,1700" stroke="blue" stroke-width="2" />
<path d="M871,2989 L2315,346" stroke="blue" stroke-width="2" />
<path d="M0,0 L2325,0" stroke="red" stroke-width="10" />
<path d="M2325,0 L2325,9494" stroke="red" stroke-width="10" />
<path d="M0,9494 L2325,9494" stroke="red" stroke-width="10" />
<path d="M0,9494 L0,0" stroke="red" stroke-width="10" />
</svg>