<?xml version="1.0" encoding="UTF-8"?>
<svg xmlns="http://www.w3.org/2000/svg" xmlns:xlink="http://www.w3.org/1999/xlink"
     width="10000" height="10000" viewBox="0 0 10000 10000">
<defs>
</defs>
<path d="M8660,4350 L4823,7949" stroke="blue" stroke-width="2" />
<path d="M6464,5125 L4123,3287" stroke="blue" stroke-width="2" />
<path d="M209,2828 L2905,6750" stroke="blue" stroke-width="2" />
<path d="M6656,490 L3425,5747" stroke="blue" stroke-width="2" />
<path d="M4325,42 L6480,1625" stroke="blue" stroke-width="2" />
<path d="M5301,2455 L4662,4604" stroke="blue" stroke-width="2" />
<path d="M2811,613 L3081,2266" stroke="blue" stroke-width="2" />
<path d="M3748,2058 L1890,922" stroke="blue" stroke-width="2" />
<path d="M2153,42 L3903,7074" stroke="blue" stroke-width="2" />
<path d="M6766,6144 L6928,1626" stroke="blue" stroke-width="2" />
<path d="M6087,5889 L7293,7928" stroke="blue" stroke-width="2" />
<path d="M8571,3068 L1147,8099" stroke="blue" stroke-width="2" />
<path d="M4829,2681 L3992,7928" stroke="blue" stroke-width="2" />
<path d="M6067,6915 L2358,5564" stroke="blue" stroke-width="2" />
<path d="M616,1172 L4048,479" stroke="blue" stroke-width="2" />
<path d="M5091,791 L2731,6327" stroke="blue" stroke-width="2" />
<path d="M4354,3218 L7840,6235" stroke="blue" stroke-width="2" />
<path d="M3820,6275 L2800,5814" stroke="blue" stroke-width="2" />
<path d="M2469,5729 L5943,8297" stroke="blue" stroke-width="2" />
<path d="M3022,1536 L3538,4980" stroke="blue" stroke-width="2" />
<path d="M2334,3850 L1398,3459" stroke="blue" stroke-width="2" />
<path d="M2646,6477 L6424,4006" stroke="blue" stroke-width="2" />
<path d="M8790,1149 L3750,7812" stroke="blue" stroke-width="2" />
<path d="M8733,2144 L4680,2005" stroke="blue" stroke-width="2" />
<path d="M204,5624 L5018,8187" stroke="blue" stroke-width="2" />
<path d="M2414,3137 L2451,487" stroke="blue" stroke-width="2" />
<path d="M920,7176 L1242,6490" stroke="blue" stroke-width="2" />
<path d="M160,3007 L7151,8167" stroke="blue" stroke-width="2" />
<path d="M6232,4741 L3710,2783" stroke="blue" stroke-width="2" />
<path d="M286,1210 L7692,617" stroke="blue" stroke-width="2" />
<path d="M1133,1107 L470,6949" stroke="blue" stroke-width="2" />
<path d="M6965,7437 L1332,3550" stroke="blue" stroke-width="2" />
<path d="M6483,5776 L6456,7647" stroke="blue" stroke-width="2" />
<path d="M3215,1682 L8527,4010" stroke="blue" stroke-width="2" />
<path d="M1783,7262 L4281,2589" stroke="blue" stroke-width="2" />
<path d="M7931,7593 L6745,4999" stroke="blue" stroke-width="2" />
<path d="M6439,5811 L697,5462" stroke="blue" stroke-width="2" />
<path d="M2568,6638 L6744,7915" stroke="blue" stroke-width="2" />
<path d="M4887,5251 L3085,5639" stroke="blue" stroke-width="2" />
<path d="M1027,4018 L2515,5937" stroke="blue" stroke-width="2" />
<path d="M2365,3952 L6182,4994" stroke="blue" stroke-width="2" />
<path d="M5456,4208 L8452,3007" stroke="blue" stroke-width="2" />
<path d="M6754,7332 L7475,4757" stroke="blue" stroke-width="2" />
<path d="M693,4128 L6565,1223" stroke="blue" stroke-width="2" />
<path d="M1999,5017 L5162,724" stroke="blue" stroke-width="2" />
<path d="M6589,1268 L1596,3000" stroke="blue" stroke-width="2" />
<path d="M6782,431 L2664,7576" stroke="blue" stroke-width="2" />
<path d="M8417,3048 L5180,5432" stroke="blue" stroke-width="2" />
<path d="M244,3373 L2234,3687" stroke="blue" stroke-width="2" />
<path d="M8323,4861 L1634,1876" stroke="blue" stroke-width="2" />
<path d="M4631,4566 L7590,374" stroke="blue" stroke-width="2" />
<path d="M215,4904 L6132,5568" stroke="blue" stroke-width="2" />
<path d="M5231,295 L3685,5028" stroke="blue" stroke-width="2" />
<path d="M2448,773 L5243,20" stroke="blue" stroke-width="2" />
<path d="M7284,8137 L1098,6959" stroke="blue" stroke-width="2" />
<path d="M4751,6454 L1689,6838" stroke="blue" stroke-width="2" />
<path d="M3026,5861 L7647,584" stroke="blue" stroke-width="2" />
<path d="M6650,32 L8118,338" stroke="blue" stroke-width="2" />
<path d="M1774,6276 L8204,6465" stroke="blue" stroke-width="2" />
<path d="M1781,903 L3720,4080" stroke="blue" stroke-width="2" />
<path d="M7902,202 L3996,7215" stroke="blue" stroke-width="2" />
<path d="M3590,5133 L1017,7734" stroke="blue" stroke-width="2" />
<path d="M396,1743 L866,5940" stroke="blue" stroke-width="2" />
<path d="M8809,4879 L8768,6509" stroke="blue" stroke-width="2" />
<path d="M8008,570 L2301,7756" stroke="blue" stroke-width="2" />
<path d="M2332,5695 L8706,3160" stroke="blue" stroke-width="2" />
<path d="M8974,3395 L5682,5742" stroke="blue" stroke-width="2" />
<path d="M7089,894 L5477,7919" stroke="blue" stroke-width="2" />
<path d="M6600,6877 L3191,6005" stroke="blue" stroke-width="2" />
<path d="M1597,7519 L3798,4364" stroke="blue" stroke-width="2" />
<path d="M6849,836 L6229,1265" stroke="blue" stroke-width="2" />
<path d="M6019,3918 L9376,2849" stroke="blue" stroke-width="2" />
<path d="M5690,6367 L6745,7184" stroke="blue" stroke-width="2" />
<path d="M2460,3458 L259,3866" stroke="blue" stroke-width="2" />
<path d="M9186,1731 L7269,7418" stroke="blue" stroke-width="2" />
<path d="M8414,3450 L416,1885" stroke="blue" stroke-width="2" />
<path d="M4889,776 L5568,3372" stroke="blue" stroke-width="2" />
<path d="M3696,4675 L9008,4528" stroke="blue" stroke-width="2" />
<path d="M7301,4958 L7050,4842" stroke="blue" stroke-width="2" />
<path d="M5223,1797 L1685,8253" stroke="blue" stroke-width="2" />
<path d="M4561,7067 L3692,2861" stroke="blue" stroke-width="2" />
<path d="M6279,2915 L8256,6177" stroke="blue" stroke-width="2" />
<path d="M6329,6413 L3686,4052" stroke="blue" stroke-width="2" />
<path d="M6627,7349 L1075,2401" stroke="blue" stroke-width="2" />
<path d="M8846,6389 L2721,2788" stroke="blue" stroke-width="2" />
<path d="M1918,6764 L6851,6538" stroke="blue" stroke-width="2" />
<path d="M752,6975 L55,3999" stroke="blue" stroke-width="2" />
<path d="M7829,1496 L3072,4008" stroke="blue" stroke-width="2" />
<path d="M3829,6302 L9360,5664" stroke="blue" stroke-width="2" />
<path d="M7102,6788 L6469,3527" stroke="blue" stroke-width="2" />
<path d="M144,2844 L2009,4594" stroke="blue" stroke-width="2" />
<path d="M5163,6753 L8856,628" stroke="blue" stroke-width="2" />
<path d="M942,6168 L102,4094" stroke="blue" stroke-width="2" />
<path d="M5849,2397 L1116,2104" stroke="blue" stroke-width="2" />
<path d="M9025,1368 L3694,4364" stroke="blue" stroke-width="2" />
<path d="M4508,7626 L7706,1490" stroke="blue" stroke-width="2" />
<path d="M3561,5807 L5642,1678" stroke="blue" stroke-width="2" />
<path d="M7080,5339 L992,7319" stroke="blue" stroke-width="2" />
<path d="M21,7604 L8085,5195" stroke="blue" stroke-width="2" />
<path d="M7606,416 L8047,3383" stroke="blue" stroke-width="2" />
<path d="M4494,3292 L1819,1463" stroke="blue" stroke-width="2" />
<path d="M8878,2632 L1023,2121" stroke="blue" stroke-width="2" />
<path d="M8130,478 L6180,5788" stroke="blue" stroke-width="2" />
<path d="M9377,775 L4268,3960" stroke="blue" stroke-width="2" />
<path d="M6144,4970 L1302,4790" stroke="blue" stroke-width="2" />
<path d="M5836,1474 L805,8193" stroke="blue" stroke-width="2" />
<path d="M174,4306 L4373,1706" stroke="blue" stroke-width="2" />
<path d="M6220,6144 L2749,6111" stroke="blue" stroke-width="2" />
<path d="M4225,7765 L2883,6318" stroke="blue" stroke-width="2" />
<path d="M4411,7590 L7926,474" stroke="blue" stroke-width="2" />
<path d="M361,4229 L9408,1479" stroke="blue" stroke-width="2" />
<path d="M5377,4255 L1281,3012" stroke="blue" stroke-width="2" />
<path d="M1353,4587 L1535,2802" stroke="blue" stroke-width="2" />
<path d="M3032,7573 L8429,1561" stroke="blue" stroke-width="2" />
<path d="M6070,5202 L1477,4250" stroke="blue" stroke-width="2" />
<path d="M134,5003 L6694,1236" stroke="blue" stroke-width="2" />
<path d="M5508,5800 L1305,2805" stroke="blue" stroke-width="2" />
<path d="M4975,2664 L79,1425" stroke="blue" stroke-width="2" />
<path d="M7077,2564 L7554,1384" stroke="blue" stroke-width="2" />
<path d="M1228,3744 L4195,7571" stroke="blue" stroke-width="2" />
<path d="M8112,6343 L3631,805" stroke="blue" stroke-width="2" />
<path d="M1112,6988 L3170,5892" stroke="blue" stroke-width="2" />
<path d="M4868,501 L7614,6342" stroke="blue" stroke-width="2" />
<path d="M4464,1120 L4608,7755" stroke="blue" stroke-width="2" />
<path d="M5302,7355 L2218,3336" stroke="blue" stroke-width="2" />
<path d="M6347,3201 L2683,3328" stroke="blue" stroke-width="2" />
<path d="M6438,7360 L3987,2738" stroke="blue" stroke-width="2" />
<path d="M3779,98 L6892,3055" stroke="blue" stroke-width="2" />
<path d="M4852,2648 L5780,3945" stroke="blue" stroke-width="2" />
<path d="M2052,4250 L4453,7768" stroke="blue" stroke-width="2" />
<path d="M1943,6316 L2406,7539" stroke="blue" stroke-width="2" />
<path d="M6383,7210 L1848,5363" stroke="blue" stroke-width="2" />
<path d="M3147,3325 L8940,743" stroke="blue" stroke-width="2" />
<path d="M7630,3208 L5903,837" stroke="blue" stroke-width="2" />
<path d="M5910,5306 L2830,6672" stroke="blue" stroke-width="2" />
<path d="M2626,5166 L6767,3501" stroke="blue" stroke-width="2" />
<path d="M7824,2047 L4228,55" stroke="blue" stroke-width="2" />
<path d="M2456,1352 L347,5134" stroke="blue" stroke-width="2" />
<path d="M3875,5172 L2792,621" stroke="blue" stroke-width="2" />
<path d="M3907,2972 L1552,5391" stroke="blue" stroke-width="2" />
<path d="M3317,4863 L6084,5941" stroke="blue" stroke-width="2" />
<path d="M7131,6846 L3926,1706" stroke="blue" stroke-width="2" />
<path d="M4250,475 L3669,7695" stroke="blue" stroke-width="2" />
<path d="M353,735 L839,3503" stroke="blue" stroke-width="2" />
<path d="M1580,265 L1517,237" stroke="blue" stroke-width="2" />
<path d="M8446,2083 L8025,3574" stroke="blue" stroke-width="2" />
<path d="M2891,1648 L944,6152" stroke="blue" stroke-width="2" />
<path d="M1272,7900 L9352,5100" stroke="blue" stroke-width="2" />
<path d="M7594,5344 L1193,3471" stroke="blue" stroke-width="2" />
<path d="M5392,2178 L6833,5567" stroke="blue" stroke-width="2" />
<path d="M8151,1614 L7684,3531" stroke="blue" stroke-width="2" />
<path d="M1637,7322 L8078,4516" stroke="blue" stroke-width="2" />
<path d="M4570,1795 L3526,5781" stroke="blue" stroke-width="2" />
<path d="M2026,2538 L5036,4272" stroke="blue" stroke-width="2" />
<path d="M7173,3035 L6119,2928" stroke="blue" stroke-width="2" />
<path d="M5714,3209 L3908,1471" stroke="blue" stroke-width="2" />
<path d="M6838,2909 L845,4981" stroke="blue" stroke-width="2" />
<path d="M4369,6309 L5195,4093" stroke="blue" stroke-width="2" />
<path d="M2653,7855 L7497,1863" stroke="blue" stroke-width="2" />
<path d="M4911,1979 L1437,2111" stroke="blue" stroke-width="2" />
<path d="M7125,5840 L1394,5272" stroke="blue" stroke-width="2" />
<path d="M5004,3579 L5816,2747" stroke="blue" stroke-width="2" />
<path d="M6885,7110 L1525,5455" stroke="blue" stroke-width="2" />
<path d="M63,5133 L3945,2812" stroke="blue" stroke-width="2" />
<path d="M6305,3947 L8235,5530" stroke="blue" stroke-width="2" />
<path d="M2301,4848 L4182,141" stroke="blue" stroke-width="2" />
<path d="M8795,4515 L9096,264" stroke="blue" stroke-width="2" />
<path d="M8445,5194 L6897,5114" stroke="blue" stroke-width="2" />
<path d="M5251,736 L4962,4128" stroke="blue" stroke-width="2" />
<path d="M8842,8122 L6773,4084" stroke="blue" stroke-width="2" />
<path d="M6508,7352 L7822,6242" stroke="blue" stroke-width="2" />
<path d="M6555,3653 L1833,914" stroke="blue" stroke-width="2" />
<path d="M4380,2777 L4140,4430" stroke="blue" stroke-width="2" />
<path d="M1104,2600 L504,6313" stroke="blue" stroke-width="2" />
<path d="M5398,3606 L813,6160" stroke="blue" stroke-width="2" />
<path d="M7017,3326 L4084,1805" stroke="blue" stroke-width="2" />
<path d="M7608,2171 L5255,654" stroke="blue" stroke-width="2" />
<path d="M704,2353 L4552,3830" stroke="blue" stroke-width="2" />
<path d="M7158,7339 L5172,5502" stroke="blue" stroke-width="2" />
<path d="M1820,2530 L9052,2408" stroke="blue" stroke-width="2" />
<path d="M1449,7560 L6680,3148" stroke="blue" stroke-width="2" />
<path d="M6311,4517 L9230,6135" stroke="blue" stroke-width="2" />
<path d="M7660,322 L6992,6191" stroke="blue" stroke-width="2" />
<path d="M2014,8292 L4792,2077" stroke="blue" stroke-width="2" />
<path d="M7081,6858 L5788,7298" stroke="blue" stroke-width="2" />
<path d="M1192,3714 L5579,6924" stroke="blue" stroke-width="2" />
<path d="M4353,1306 L8335,2682" stroke="blue" stroke-width="2" />
<path d="M7208,5771 L7636,2593" stroke="blue" stroke-width="2" />
<path d="M1403,7858 L7214,1922" stroke="blue" stroke-width="2" />
<path d="M1842,4125 L4977,8102" stroke="blue" stroke-width="2" />
<path d="M9117,1018 L1023,6254" stroke="blue" stroke-width="2" />
<path d="M8330,6491 L7486,2594" stroke="blue" stroke-width="2" />
<path d="M9168,4504 L7410,2606" stroke="blue" stroke-width="2" />
<path d="M1496,2744 L7610,619" stroke="blue" stroke-width="2" />
<path d="M1672,7493 L9005,4009" stroke="blue" stroke-width="2" />
<path d="M7241,1736 L872,2165" stroke="blue" stroke-width="2" />
<path d="M782,5442 L9310,3854" stroke="blue" stroke-width="2" />
<path d="M8293,5963 L9401,13" stroke="blue" stroke-width="2" />
<path d="M6290,4548 L3110,2899" stroke="blue" stroke-width="2" />
<path d="M9335,3276 L3828,4521" stroke="blue" stroke-width="2" />
<path d="M6593,2151 L2481,3464" stroke="blue" stroke-width="2" />
<path d="M7201,4916 L4954,5445" stroke="blue" stroke-width="2" />
<path d="M90,6182 L1358,3600" stroke="blue" stroke-width="2" />
<path d="M8952,8240 L6298,5083" stroke="blue" stroke-width="2" />
<path d="M4546,3141 L5307,3967" stroke="blue" stroke-width="2" />
<path d="M9209,7933 L5895,1746" stroke="blue" stroke-width="2" />
<path d="M7375,1882 L8611,3967" stroke="blue" stroke-width="2" />
<path d="M1210,7176 L3894,407" stroke="blue" stroke-width="2" />
<path d="M6172,3870 L3855,6383" stroke="blue" stroke-width="2" />
<path d="M7100,5788 L7828,7332" stroke="blue" stroke-width="2" />
<path d="M7299,315 L3277,3950" stroke="blue" stroke-width="2" />
<path d="M6486,4437 L8359,7320" stroke="blue" stroke-width="2" />
<path d="M6488,5879 L4920,986" stroke="blue" stroke-width="2" />
<path d="M2729,2406 L6277,4748" stroke="blue" stroke-width="2" />
<path d="M8899,6045 L3648,2024" stroke="blue" stroke-width="2" />
<path d="M7536,7061 L3156,6833" stroke="blue" stroke-width="2" />
<path d="M3666,313 L8176,6200" stroke="blue" stroke-width="2" />
<path d="M2016,1454 L1004,1296" stroke="blue" stroke-width="2" />
<path d="M5132,320 L3938,5256" stroke="blue" stroke-width="2" />
<path d="M1366,6337 L5390,520" stroke="blue" stroke-width="2" />
<path d="M3303,5480 L671,904" stroke="blue" stroke-width="2" />
<path d="M4851,6788 L8408,6182" stroke="blue" stroke-width="2" />
<path d="M178,6877 L8572,7499" stroke="blue" stroke-width="2" />
<path d="M1054,7885 L7576,5217" stroke="blue" stroke-width="2" />
<path d="M8359,5003 L1027,8274" stroke="blue" stroke-width="2" />
<path d="M8998,14 L1995,343" stroke="blue" stroke-width="2" />
<path d="M728,1475 L3410,5212" stroke="blue" stroke-width="2" />
<path d="M2842,1312 L2021,2978" stroke="blue" stroke-width="2" />
<path d="M7993,4489 L1308,4024" stroke="blue" stroke-width="2" />
<path d="M663,2976 L1446,1236" stroke="blue" stroke-width="2" />
<path d="M5288,5311 L3708,606" stroke="blue" stroke-width="2" />
<path d="M6188,6475 L3272,4385" stroke="blue" stroke-width="2" />
<path d="M5223,3128 L6130,4420" stroke="blue" stroke-width="2" />
<path d="M4204,1976 L946,4653" stroke="blue" stroke-width="2" />
<path d="M5193,1043 L8525,1879" stroke="blue" stroke-width="2" />
<path d="M5573,1632 L5556,6920" stroke="blue" stroke-width="2" />
<path d="M3793,1019 L3271,5536" stroke="blue" stroke-width="2" />
<path d="M5977,2998 L8648,8212" stroke="blue" stroke-width="2" />
<path d="M7466,4942 L8160,680" stroke="blue" stroke-width="2" />
<path d="M8853,1703 L6621,1386" stroke="blue" stroke-width="2" />
<path d="M7739,4432 L5988,3709" stroke="blue" stroke-width="2" />
<path d="M5994,7473 L3740,1845" stroke="blue" stroke-width="2" />
<path d="M8663,594 L1475,6505" stroke="blue" stroke-width="2" />
<path d="M9060,6125 L9372,3957" stroke="blue" stroke-width="2" />
<path d="M3284,7029 L1916,1782" stroke="blue" stroke-width="2" />
<path d="M1177,4673 L6391,3413" stroke="blue" stroke-width="2" />
<path d="M1789,6953 L6018,882" stroke="blue" stroke-width="2" />
<path d="M7810,1556 L3780,2784" stroke="blue" stroke-width="2" />
<path d="M6389,2217 L4973,4262" stroke="blue" stroke-width="2" />
<path d="M8593,6042 L1330,8016" stroke="blue" stroke-width="2" />
<path d="M8760,4315 L3261,2027" stroke="blue" stroke-width="2" />
<path d="M8502,1289 L6807,1104" stroke="blue" stroke-width="2" />
<path d="M8284,7437 L5944,4411" stroke="blue" stroke-width="2" />
<path d="M7226,2355 L988,2574" stroke="blue" stroke-width="2" />
<path d="M8513,5287 L830,3172" stroke="blue" stroke-width="2" />
<path d="M8135,5775 L5955,5980" stroke="blue" stroke-width="2" />
<path d="M422,3864 L7379,7195" stroke="blue" stroke-width="2" />
<path d="M652,8225 L1683,4023" stroke="blue" stroke-width="2" />
<path d="M649,3247 L8275,7599" stroke="blue" stroke-width="2" />
<path d="M4008,4769 L7328,6585" stroke="blue" stroke-width="2" />
<path d="M3476,2324 L1161,3798" stroke="blue" stroke-width="2" />
<path d="M5206,5676 L2400,5590" stroke="blue" stroke-width="2" />
<path d="M6544,4459 L6101,7429" stroke="blue" stroke-width="2" />
<path d="M484,1698 L1533,3777" stroke="blue" stroke-width="2" />
<path d="M1742,2315 L4459,2211" stroke="blue" stroke-width="2" />
<path d="M7320,2412 L4246,885" stroke="blue" stroke-width="2" />
<path d="M3642,3221 L5603,6227" stroke="blue" stroke-width="2" />
<path d="M4285,3530 L1041,4057" stroke="blue" stroke-width="2" />
<path d="M1057,8258 L1411,6975" stroke="blue" stroke-width="2" />
<path d="M6677,2677 L8799,5151" stroke="blue" stroke-width="2" />
<path d="M2056,6248 L3455,693" stroke="blue" stroke-width="2" />
<path d="M7819,1605 L6131,1814" stroke="blue" stroke-width="2" />
<path d="M6017,1752 L7413,251" stroke="blue" stroke-width="2" />
<path d="M8491,4772 L929,7167" stroke="blue" stroke-width="2" />
<path d="M8111,5551 L1224,7579" stroke="blue" stroke-width="2" />
<path d="M4982,172 L9313,1701" stroke="blue" stroke-width="2" />
<path d="M6073,815 L4502,5660" stroke="blue" stroke-width="2" />
<path d="M1213,4128 L7696,4080" stroke="blue" stroke-width="2" />
<path d="M5634,3806 L5096,839" stroke="blue" stroke-width="2" />
<path d="M6212,5876 L7534,1694" stroke="blue" stroke-width="2" />
<path d="M8115,5489 L2861,6505" stroke="blue" stroke-width="2" />
<path d="M6447,6385 L8562,4180" stroke="blue" stroke-width="2" />
<path d="M4571,2040 L1269,3430" stroke="blue" stroke-width="2" />
<path d="M8702,3246 L9350,5158" stroke="blue" stroke-width="2" />
<path d="M5576,3120 L1006,7702" stroke="blue" stroke-width="2" />
<path d="M752,5226 L4492,6028" stroke="blue" stroke-width="2" />
<path d="M1579,429 L730,2640" stroke="blue" stroke-width="2" />
<path d="M412,7349 L267,519" stroke="blue" stroke-width="2" />
<path d="M8380,3696 L2785,4112" stroke="blue" stroke-width="2" />
<path d="M7423,7151 L7316,1079" stroke="blue" stroke-width="2" />
<path d="M148,5249 L6252,7554" stroke="blue" stroke-width="2" />
<path d="M3087,6353 L852,5564" stroke="blue" stroke-width="2" />
<path d="M4672,1889 L777,5805" stroke="blue" stroke-width="2" />
<path d="M8522,4274 L321,1639" stroke="blue" stroke-width="2" />
<path d="M2681,3661 L2207,5650" stroke="blue" stroke-width="2" />
<path d="M8985,9 L5389,2849" stroke="blue" stroke-width="2" />
<path d="M9280,2490 L5794,5945" stroke="blue" stroke-width="2" />
<path d="M8277,4073 L7168,5962" stroke="blue" stroke-width="2" />
<path d="M5368,7100 L3078,4539" stroke="blue" stroke-width="2" />
<path d="M5946,456 L3120,3710" stroke="blue" stroke-width="2" />
<path d="M2182,691 L1825,6202" stroke="blue" stroke-width="2" />
<path d="M8672,5843 L586,682" stroke="blue" stroke-width="2" />
<path d="M1921,4196 L6972,4439" stroke="blue" stroke-width="2" />
<path d="M4,4549 L2765,3171" stroke="blue" stroke-width="2" />
<path d="M3156,1513 L3560,7123" stroke="blue" stroke-width="2" />
<path d="M7044,1013 L1456,6536" stroke="blue" stroke-width="2" />
<path d="M5754,4919 L3188,1328" stroke="blue" stroke-width="2" />
<path d="M2317,5986 L4281,2967" stroke="blue" stroke-width="2" />
<path d="M8436,3280 L7329,6735" stroke="blue" stroke-width="2" />
<path d="M8919,4538 L27,621" stroke="blue" stroke-width="2" />
<path d="M3788,2240 L4898,837" stroke="blue" stroke-width="2" />
<path d="M4158,4987 L2183,4393" stroke="blue" stroke-width="2" />
<path d="M3496,6635 L271,4344" stroke="blue" stroke-width="2" />
<path d="M2855,4567 L9209,521" stroke="blue" stroke-width="2" />
<path d="M7009,6628 L7066,287" stroke="blue" stroke-width="2" />
<path d="M2477,1827 L353,7043" stroke="blue" stroke-width="2" />
<path d="M8372,6626 L7886,5112" stroke="blue" stroke-width="2" />
<path d="M400,7221 L6950,2911" stroke="blue" stroke-width="2" />
<path d="M5618,2920 L7098,1401" stroke="blue" stroke-width="2" />
<path d="M1806,4580 L6823,783" stroke="blue" stroke-width="2" />
<path d="M4609,604 L233,7430" stroke="blue" stroke-width="2" />
<path d="M7678,8173 L1789,2125" stroke="blue" stroke-width="2" />
<path d="M8206,6046 L8991,2626" stroke="blue" stroke-width="2" />
<path d="M6480,362 L2138,5869" stroke="blue" stroke-width="2" />
<path d="M4210,6146 L3159,3225" stroke="blue" stroke-width="2" />
<path d="M494,5255 L4887,2798" stroke="blue" stroke-width="2" />
<path d="M6817,5339 L2341,6559" stroke="blue" stroke-width="2" />
<path d="M8257,4637 L1718,6880" stroke="blue" stroke-width="2" />
<path d="M4327,659 L3416,5762" stroke="blue" stroke-width="2" />
<path d="M5309,242 L7849,3322" stroke="blue" stroke-width="2" />
<path d="M7513,878 L2859,458" stroke="blue" stroke-width="2" />
<path d="M5991,7258 L4357,6527" stroke="blue" stroke-width="2" />
<path d="M7133,2803 L4827,7701" stroke="blue" stroke-width="2" />
<path d="M7585,1999 L3362,1663" stroke="blue" stroke-width="2" />
<path d="M2270,1407 L2302,1195" stroke="blue" stroke-width="2" />
<path d="M2388,2258 L1249,2150" stroke="blue" stroke-width="2" />
<path d="M5885,4435 L7943,4475" stroke="blue" stroke-width="2" />
<path d="M8538,3863 L4918,7425" stroke="blue" stroke-width="2" />
<path d="M5155,4194 L21,542" stroke="blue" stroke-width="2" />
<path d="M4055,840 L5338,6265" stroke="blue" stroke-width="2" />
<path d="M5776,662 L6330,4905" stroke="blue" stroke-width="2" />
<path d="M3307,6064 L8095,2452" stroke="blue" stroke-width="2" />
<path d="M4885,4999 L5384,1505" stroke="blue" stroke-width="2" />
<path d="M582,5497 L2438,3054" stroke="blue" stroke-width="2" />
<path d="M5602,1475 L9359,686" stroke="blue" stroke-width="2" />
<path d="M1673,7616 L4138,5585" stroke="blue" stroke-width="2" />
<path d="M6490,5471 L4017,1690" stroke="blue" stroke-width="2" />
<path d="M2236,5079 L122,3006" stroke="blue" stroke-width="2" />
<path d="M0,0 L9426,0" stroke="red" stroke-width="10" />
<path d="M9426,0 L9426,8303" stroke="red" stroke-width="10" />
<path d="M0,8303 L9426,8303" stroke="red" stroke-width="10" />
<path d="M0,8303 L0,0" stroke="red" stroke-width="10" />
</svg>