<?xml version="1.0" encoding="UTF-8"?>
<svg xmlns="http://www.w3.org/2000/svg" xmlns:xlink="http://www.w3.org/1999/xlink"
     width="10000" height="10000" viewBox="0 0 10000 10000">
<defs>
</defs>
<path d="M4288,851 L813,3361" stroke="blue" stroke-width="2" />
<path d="M2140,3570 L3493,1462" stroke="blue" stroke-width="2" />
<path d="M2095,3594 L6872,1092" stroke="blue" stroke-width="2" />
<path d="M5229,1114 L2462,5629" stroke="blue" stroke-width="2" />
<path d="M6117,5927 L1968,5621" stroke="blue" stroke-width="2" />
<path d="M1358,1970 L5717,4980" stroke="blue" stroke-width="2" />
<path d="M7442,1472 L3246,702" stroke="blue" stroke-width="2" />
<path d="M5635,3905 L6785,2342" stroke="blue" stroke-width="2" />
<path d="M7901,3576 L1604,1696" stroke="blue" stroke-width="2" />
<path d="M2565,3394 L1646,1690" stroke="blue" stroke-width="2" />
<path d="M6045,6352 L304,5768" stroke="blue" stroke-width="2" />
<path d="M4760,3574 L7802,5062" stroke="blue" stroke-width="2" />
<path d="M7572,3955 L1142,1811" stroke="blue" stroke-width="2" />
<path d="M7869,1474 L4438,3418" stroke="blue" stroke-width="2" />
<path d="M360,592 L7774,3528" stroke="blue" stroke-width="2" />
<path d="M4287,346 L3483,2271" stroke="blue" stroke-width="2" />
<path d="M5961,1188 L7606,2557" stroke="blue" stroke-width="2" />
<path d="M6351,2470 L105,4322" stroke="blue" stroke-width="2" />
<path d="M3048,1409 L7312,1262" stroke="blue" stroke-width="2" />
<path d="M7819,2557 L6411,4930" stroke="blue" stroke-width="2" />
<path d="M4850,5578 L3715,3242" stroke="blue" stroke-width="2" />
<path d="M2964,3852 L733,2266" stroke="blue" stroke-width="2" />
<path d="M6767,2492 L1159,4307" stroke="blue" stroke-width="2" />
<path d="M630,3629 L7722,3255" stroke="blue" stroke-width="2" />
<path d="M3188,2721 L2468,2484" stroke="blue" stroke-width="2" />
<path d="M2876,5509 L1811,4303" stroke="blue" stroke-width="2" />
<path d="M570,4989 L671,3277" stroke="blue" stroke-width="2" />
<path d="M185,29 L4411,1434" stroke="blue" stroke-width="2" />
<path d="M5146,1130 L4384,5734" stroke="blue" stroke-width="2" />
<path d="M4960,177 L4078,5361" stroke="blue" stroke-width="2" />
<path d="M1601,4890 L7415,635" stroke="blue" stroke-width="2" />
<path d="M17,4177 L6362,3536" stroke="blue" stroke-width="2" />
<path d="M7356,5747 L646,3709" stroke="blue" stroke-width="2" />
<path d="M5304,4224 L4100,1315" stroke="blue" stroke-width="2" />
<path d="M2440,36 L2212,90" stroke="blue" stroke-width="2" />
<path d="M713,4092 L4855,2693" stroke="blue" stroke-width="2" />
<path d="M2256,5894 L923,1773" stroke="blue" stroke-width="2" />
<path d="M6599,5517 L2963,5560" stroke="blue" stroke-width="2" />
<path d="M3209,3223 L6041,1965" stroke="blue" stroke-width="2" />
<path d="M5067,4418 L882,5033" stroke="blue" stroke-width="2" />
<path d="M328,1459 L2804,1153" stroke="blue" stroke-width="2" />
<path d="M7293,359 L3838,5117" stroke="blue" stroke-width="2" />
<path d="M3189,1157 L3639,3737" stroke="blue" stroke-width="2" />
<path d="M7787,1717 L4694,4162" stroke="blue" stroke-width="2" />
<path d="M3497,1371 L4308,2133" stroke="blue" stroke-width="2" />
<path d="M833,1412 L2268,966" stroke="blue" stroke-width="2" />
<path d="M1892,3731 L2746,5258" stroke="blue" stroke-width="2" />
<path d="M4075,1695 L1172,4281" stroke="blue" stroke-width="2" />
<path d="M889,3712 L393,683" stroke="blue" stroke-width="2" />
<path d="M339,2468 L3463,4502" stroke="blue" stroke-width="2" />
<path d="M2854,3067 L6765,1927" stroke="blue" stroke-width="2" />
<path d="M1324,59 L7778,5776" stroke="blue" stroke-width="2" />
<path d="M3951,1530 L5225,4402" stroke="blue" stroke-width="2" />
<path d="M2126,3377 L2903,737" stroke="blue" stroke-width="2" />
<path d="M6200,2107 L6084,1834" stroke="blue" stroke-width="2" />
<path d="M135,344 L5280,537" stroke="blue" stroke-width="2" />
<path d="M1120,2615 L7472,3421" stroke="blue" stroke-width="2" />
<path d="M3002,2528 L2274,3802" stroke="blue" stroke-width="2" />
<path d="M3453,987 L6924,5645" stroke="blue" stroke-width="2" />
<path d="M1530,4398 L2080,6381" stroke="blue" stroke-width="2" />
<path d="M1340,284 L6956,2258" stroke="blue" stroke-width="2" />
<path d="M7666,885 L1457,124" stroke="blue" stroke-width="2" />
<path d="M5750,2170 L3154,458" stroke="blue" stroke-width="2" />
<path d="M4150,4643 L2632,5668" stroke="blue" stroke-width="2" />
<path d="M1918,2431 L1114,890" stroke="blue" stroke-width="2" />
<path d="M1361,764 L6492,216" stroke="blue" stroke-width="2" />
<path d="M844,2549 L3931,2243" stroke="blue" stroke-width="2" />
<path d="M5072,3587 L839,4089" stroke="blue" stroke-width="2" />
<path d="M932,23 L6147,3757" stroke="blue" stroke-width="2" />
<path d="M5488,589 L217,362" stroke="blue" stroke-width="2" />
<path d="M2328,162 L6283,5319" stroke="blue" stroke-width="2" />
<path d="M1696,6203 L291,5385" stroke="blue" stroke-width="2" />
<path d="M4804,3770 L3761,4299" stroke="blue" stroke-width="2" />
<path d="M4496,6243 L3178,4451" stroke="blue" stroke-width="2" />
<path d="M4258,3040 L7835,2451" stroke="blue" stroke-width="2" />
<path d="M7173,1862 L6968,2714" stroke="blue" stroke-width="2" />
<path d="M6386,4246 L4119,1000" stroke="blue" stroke-width="2" />
<path d="M4059,5732 L2526,4912" stroke="blue" stroke-width="2" />
<path d="M3981,5510 L7505,2278" stroke="blue" stroke-width="2" />
<path d="M220,1151 L7615,2280" stroke="blue" stroke-width="2" />
<path d="M3464,1301 L5051,608" stroke="blue" stroke-width="2" />
<path d="M7143,3514 L3361,5432" stroke="blue" stroke-width="2" />
<path d="M5569,1099 L838,193" stroke="blue" stroke-width="2" />
<path d="M2171,1998 L4424,4788" stroke="blue" stroke-width="2" />
<path d="M387,4128 L7857,939" stroke="blue" stroke-width="2" />
<path d="M427,4529 L4905,243" stroke="blue" stroke-width="2" />
<path d="M3393,2904 L1956,5026" stroke="blue" stroke-width="2" />
<path d="M6938,3384 L4774,3309" stroke="blue" stroke-width="2" />
<path d="M3986,2739 L6841,2795" stroke="blue" stroke-width="2" />
<path d="M4560,4315 L2718,419" stroke="blue" stroke-width="2" />
<path d="M5366,1923 L3365,3849" stroke="blue" stroke-width="2" />
<path d="M4398,114 L1131,3401" stroke="blue" stroke-width="2" />
<path d="M3918,6134 L7013,4063" stroke="blue" stroke-width="2" />
<path d="M7885,2659 L5109,1207" stroke="blue" stroke-width="2" />
<path d="M3129,3142 L7318,1496" stroke="blue" stroke-width="2" />
<path d="M5641,2922 L2021,6407" stroke="blue" stroke-width="2" />
<path d="M3456,263 L2028,5549" stroke="blue" stroke-width="2" />
<path d="M5245,4008 L317,507" stroke="blue" stroke-width="2" />
<path d="M7577,5479 L1270,5740" stroke="blue" stroke-width="2" />
<path d="M2096,4302 L4174,1013" stroke="blue" stroke-width="2" />
<path d="M1196,3074 L5199,3567" stroke="blue" stroke-width="2" />
<path d="M1308,4836 L675,4079" stroke="blue" stroke-width="2" />
<path d="M5043,2217 L3509,5633" stroke="blue" stroke-width="2" />
<path d="M4914,518 L7769,2026" stroke="blue" stroke-width="2" />
<path d="M5347,641 L516,5447" stroke="blue" stroke-width="2" />
<path d="M388,1663 L7110,2711" stroke="blue" stroke-width="2" />
<path d="M7820,4948 L7011,5816" stroke="blue" stroke-width="2" />
<path d="M6951,1986 L7174,2447" stroke="blue" stroke-width="2" />
<path d="M6272,3655 L7748,3810" stroke="blue" stroke-width="2" />
<path d="M4811,735 L6908,2968" stroke="blue" stroke-width="2" />
<path d="M3687,4260 L2126,3662" stroke="blue" stroke-width="2" />
<path d="M5882,5620 L1727,4961" stroke="blue" stroke-width="2" />
<path d="M352,2940 L416,210" stroke="blue" stroke-width="2" />
<path d="M7220,6349 L5991,5045" stroke="blue" stroke-width="2" />
<path d="M6467,3433 L292,5248" stroke="blue" stroke-width="2" />
<path d="M6273,3119 L3251,1180" stroke="blue" stroke-width="2" />
<path d="M2206,5711 L6378,3484" stroke="blue" stroke-width="2" />
<path d="M5248,1121 L2359,6410" stroke="blue" stroke-width="2" />
<path d="M1441,1935 L2605,23" stroke="blue" stroke-width="2" />
<path d="M818,5686 L5259,2881" stroke="blue" stroke-width="2" />
<path d="M7224,2143 L3754,1986" stroke="blue" stroke-width="2" />
<path d="M4385,927 L4716,464" stroke="blue" stroke-width="2" />
<path d="M7511,3523 L7120,4526" stroke="blue" stroke-width="2" />
<path d="M2426,468 L7876,4303" stroke="blue" stroke-width="2" />
<path d="M5468,2226 L353,2605" stroke="blue" stroke-width="2" />
<path d="M235,4290 L4886,4231" stroke="blue" stroke-width="2" />
<path d="M2634,2155 L2013,5977" stroke="blue" stroke-width="2" />
<path d="M4275,2181 L5516,3801" stroke="blue" stroke-width="2" />
<path d="M1293,3423 L4022,6440" stroke="blue" stroke-width="2" />
<path d="M4814,2273 L1602,123" stroke="blue" stroke-width="2" />
<path d="M5973,6336 L5464,4975" stroke="blue" stroke-width="2" />
<path d="M7140,3530 L933,596" stroke="blue" stroke-width="2" />
<path d="M2003,5187 L4569,5674" stroke="blue" stroke-width="2" />
<path d="M2153,4406 L1623,5467" stroke="blue" stroke-width="2" />
<path d="M4891,3601 L1881,3277" stroke="blue" stroke-width="2" />
<path d="M5649,5048 L6016,5240" stroke="blue" stroke-width="2" />
<path d="M4424,3131 L5009,301" stroke="blue" stroke-width="2" />
<path d="M723,6225 L668,383" stroke="blue" stroke-width="2" />
<path d="M239,3256 L1392,1718" stroke="blue" stroke-width="2" />
<path d="M1214,127 L2536,6375" stroke="blue" stroke-width="2" />
<path d="M5833,594 L7391,2616" stroke="blue" stroke-width="2" />
<path d="M1902,5207 L3802,2387" stroke="blue" stroke-width="2" />
<path d="M3931,3344 L5575,1737" stroke="blue" stroke-width="2" />
<path d="M5286,5779 L6748,4299" stroke="blue" stroke-width="2" />
<path d="M637,2263 L4308,380" stroke="blue" stroke-width="2" />
<path d="M2601,5473 L817,3535" stroke="blue" stroke-width="2" />
<path d="M5690,1833 L2260,3903" stroke="blue" stroke-width="2" />
<path d="M2299,959 L1889,4189" stroke="blue" stroke-width="2" />
<path d="M2803,489 L40,601" stroke="blue" stroke-width="2" />
<path d="M5487,4170 L5281,31" stroke="blue" stroke-width="2" />
<path d="M7767,971 L3483,5560" stroke="blue" stroke-width="2" />
<path d="M2739,331 L4852,2423" stroke="blue" stroke-width="2" />
<path d="M5414,4980 L4671,3762" stroke="blue" stroke-width="2" />
<path d="M7106,4711 L559,1763" stroke="blue" stroke-width="2" />
<path d="M4402,1906 L7773,945" stroke="blue" stroke-width="2" />
<path d="M5831,5973 L414,4994" stroke="blue" stroke-width="2" />
<path d="M5563,2550 L6586,4697" stroke="blue" stroke-width="2" />
<path d="M2822,5458 L646,3038" stroke="blue" stroke-width="2" />
<path d="M734,5299 L7749,4624" stroke="blue" stroke-width="2" />
<path d="M7011,1490 L4685,225" stroke="blue" stroke-width="2" />
<path d="M5034,878 L1797,2816" stroke="blue" stroke-width="2" />
<path d="M4915,6417 L7279,3768" stroke="blue" stroke-width="2" />
<path d="M7472,5200 L2947,4046" stroke="blue" stroke-width="2" />
<path d="M461,5591 L6238,4030" stroke="blue" stroke-width="2" />
<path d="M7185,4949 L6417,4821" stroke="blue" stroke-width="2" />
<path d="M3122,480 L482,6129" stroke="blue" stroke-width="2" />
<path d="M1722,2340 L7850,331" stroke="blue" stroke-width="2" />
<path d="M693,373 L6586,600" stroke="blue" stroke-width="2" />
<path d="M2606,4933 L1543,3270" stroke="blue" stroke-width="2" />
<path d="M6556,3977 L3122,2784" stroke="blue" stroke-width="2" />
<path d="M3745,2984 L5194,41" stroke="blue" stroke-width="2" />
<path d="M5015,2495 L1520,5142" stroke="blue" stroke-width="2" />
<path d="M1759,1729 L2702,1685" stroke="blue" stroke-width="2" />
<path d="M2685,6308 L1929,2671" stroke="blue" stroke-width="2" />
<path d="M1271,1120 L1037,2670" stroke="blue" stroke-width="2" />
<path d="M3460,5541 L7446,3239" stroke="blue" stroke-width="2" />
<path d="M4636,1939 L3994,1307" stroke="blue" stroke-width="2" />
<path d="M4814,225 L2583,4087" stroke="blue" stroke-width="2" />
<path d="M3962,5120 L7122,6000" stroke="blue" stroke-width="2" />
<path d="M3479,674 L5988,2757" stroke="blue" stroke-width="2" />
<path d="M7228,4290 L7861,1698" stroke="blue" stroke-width="2" />
<path d="M2956,3787 L4722,1572" stroke="blue" stroke-width="2" />
<path d="M7401,2422 L7904,4944" stroke="blue" stroke-width="2" />
<path d="M7226,2843 L2764,5190" stroke="blue" stroke-width="2" />
<path d="M1657,987 L2949,3506" stroke="blue" stroke-width="2" />
<path d="M4742,421 L140,6362" stroke="blue" stroke-width="2" />
<path d="M7395,1440 L7150,2109" stroke="blue" stroke-width="2" />
<path d="M87,3856 L7153,744" stroke="blue" stroke-width="2" />
<path d="M4435,1684 L2755,3939" stroke="blue" stroke-width="2" />
<path d="M4171,4331 L7417,720" stroke="blue" stroke-width="2" />
<path d="M7719,5797 L3465,739" stroke="blue" stroke-width="2" />
<path d="M5036,1921 L6364,316" stroke="blue" stroke-width="2" />
<path d="M3070,42 L3334,2786" stroke="blue" stroke-width="2" />
<path d="M2169,2299 L6700,5541" stroke="blue" stroke-width="2" />
<path d="M958,28 L1991,5957" stroke="blue" stroke-width="2" />
<path d="M1404,1561 L6455,6173" stroke="blue" stroke-width="2" />
<path d="M3438,5301 L2980,6111" stroke="blue" stroke-width="2" />
<path d="M4977,1251 L5316,2341" stroke="blue" stroke-width="2" />
<path d="M1583,5006 L7068,5966" stroke="blue" stroke-width="2" />
<path d="M1013,5133 L5673,4604" stroke="blue" stroke-width="2" />
<path d="M6434,4028 L4110,2092" stroke="blue" stroke-width="2" />
<path d="M2857,3940 L5802,1256" stroke="blue" stroke-width="2" />
<path d="M4290,106 L6876,3425" stroke="blue" stroke-width="2" />
<path d="M3894,1156 L7730,1427" stroke="blue" stroke-width="2" />
<path d="M256,3905 L2628,1361" stroke="blue" stroke-width="2" />
<path d="M3097,3931 L7783,1403" stroke="blue" stroke-width="2" />
<path d="M2166,6414 L7442,1120" stroke="blue" stroke-width="2" />
<path d="M6403,5670 L7288,3084" stroke="blue" stroke-width="2" />
<path d="M7003,1368 L2452,3752" stroke="blue" stroke-width="2" />
<path d="M4339,1073 L6513,1566" stroke="blue" stroke-width="2" />
<path d="M1093,4521 L5532,2772" stroke="blue" stroke-width="2" />
<path d="M1326,92 L7388,1521" stroke="blue" stroke-width="2" />
<path d="M6439,3540 L1724,2089" stroke="blue" stroke-width="2" />
<path d="M7795,1027 L6026,2817" stroke="blue" stroke-width="2" />
<path d="M952,4351 L3935,2740" stroke="blue" stroke-width="2" />
<path d="M716,1664 L5554,5867" stroke="blue" stroke-width="2" />
<path d="M2833,355 L699,185" stroke="blue" stroke-width="2" />
<path d="M6699,1170 L3243,2213" stroke="blue" stroke-width="2" />
<path d="M605,1236 L4582,1603" stroke="blue" stroke-width="2" />
<path d="M2071,2462 L5743,4088" stroke="blue" stroke-width="2" />
<path d="M385,2961 L1720,3269" stroke="blue" stroke-width="2" />
<path d="M1203,3337 L1584,5264" stroke="blue" stroke-width="2" />
<path d="M1561,5734 L3772,4773" stroke="blue" stroke-width="2" />
<path d="M1051,5451 L4266,3381" stroke="blue" stroke-width="2" />
<path d="M5453,3852 L3868,3105" stroke="blue" stroke-width="2" />
<path d="M5799,2945 L319,3153" stroke="blue" stroke-width="2" />
<path d="M3196,3725 L7735,646" stroke="blue" stroke-width="2" />
<path d="M408,4532 L5116,2469" stroke="blue" stroke-width="2" />
<path d="M4488,3758 L281,5924" stroke="blue" stroke-width="2" />
<path d="M7136,2023 L361,6263" stroke="blue" stroke-width="2" />
<path d="M4522,2111 L6896,1910" stroke="blue" stroke-width="2" />
<path d="M7438,2444 L1359,3823" stroke="blue" stroke-width="2" />
<path d="M4266,1385 L567,1968" stroke="blue" stroke-width="2" />
<path d="M7176,1132 L7697,5450" stroke="blue" stroke-width="2" />
<path d="M6520,3168 L634,274" stroke="blue" stroke-width="2" />
<path d="M3839,3022 L1003,780" stroke="blue" stroke-width="2" />
<path d="M5662,4196 L5040,4031" stroke="blue" stroke-width="2" />
<path d="M2025,1869 L4701,1176" stroke="blue" stroke-width="2" />
<path d="M4322,5050 L5012,3266" stroke="blue" stroke-width="2" />
<path d="M2415,2559 L3800,3771" stroke="blue" stroke-width="2" />
<path d="M6666,1116 L5744,1241" stroke="blue" stroke-width="2" />
<path d="M2537,781 L319,339" stroke="blue" stroke-width="2" />
<path d="M828,921 L4810,996" stroke="blue" stroke-width="2" />
<path d="M2079,5992 L4474,1459" stroke="blue" stroke-width="2" />
<path d="M1400,3442 L5123,1882" stroke="blue" stroke-width="2" />
<path d="M896,3457 L250,5899" stroke="blue" stroke-width="2" />
<path d="M2588,886 L4817,4984" stroke="blue" stroke-width="2" />
<path d="M5381,591 L3184,5428" stroke="blue" stroke-width="2" />
<path d="M1045,3657 L1877,6011" stroke="blue" stroke-width="2" />
<path d="M5468,5417 L1130,5367" stroke="blue" stroke-width="2" />
<path d="M6771,1847 L5930,1971" stroke="blue" stroke-width="2" />
<path d="M2253,6309 L961,2477" stroke="blue" stroke-width="2" />
<path d="M1118,5228 L550,2707" stroke="blue" stroke-width="2" />
<path d="M501,5120 L6187,3689" stroke="blue" stroke-width="2" />
<path d="M7407,6217 L4754,2053" stroke="blue" stroke-width="2" />
<path d="M4164,3517 L4785,4438" stroke="blue" stroke-width="2" />
<path d="M4508,2134 L4478,4099" stroke="blue" stroke-width="2" />
<path d="M5713,1996 L7264,1434" stroke="blue" stroke-width="2" />
<path d="M6243,5767 L5073,6173" stroke="blue" stroke-width="2" />
<path d="M6477,3582 L6053,5833" stroke="blue" stroke-width="2" />
<path d="M4926,6425 L6205,1687" stroke="blue" stroke-width="2" />
<path d="M7378,1560 L980,438" stroke="blue" stroke-width="2" />
<path d="M5379,2493 L2046,4678" stroke="blue" stroke-width="2" />
<path d="M3551,2510 L7362,1855" stroke="blue" stroke-width="2" />
<path d="M5626,5350 L7777,5054" stroke="blue" stroke-width="2" />
<path d="M7033,2365 L5205,4791" stroke="blue" stroke-width="2" />
<path d="M2326,5777 L701,2865" stroke="blue" stroke-width="2" />
<path d="M4760,6423 L4469,2876" stroke="blue" stroke-width="2" />
<path d="M301,5655 L6201,3600" stroke="blue" stroke-width="2" />
<path d="M4044,1798 L7818,2409" stroke="blue" stroke-width="2" />
<path d="M6247,558 L6188,2449" stroke="blue" stroke-width="2" />
<path d="M7391,919 L558,2610" stroke="blue" stroke-width="2" />
<path d="M4022,6039 L2069,3730" stroke="blue" stroke-width="2" />
<path d="M5258,240 L7654,5102" stroke="blue" stroke-width="2" />
<path d="M3367,3597 L7780,3184" stroke="blue" stroke-width="2" />
<path d="M6398,4242 L770,2451" stroke="blue" stroke-width="2" />
<path d="M5043,4932 L7240,2693" stroke="blue" stroke-width="2" />
<path d="M7527,4443 L2575,3717" stroke="blue" stroke-width="2" />
<path d="M3507,2383 L7074,667" stroke="blue" stroke-width="2" />
<path d="M6906,6377 L6594,5949" stroke="blue" stroke-width="2" />
<path d="M5885,5809 L6666,1569" stroke="blue" stroke-width="2" />
<path d="M5155,3999 L4029,368" stroke="blue" stroke-width="2" />
<path d="M3579,5771 L922,6241" stroke="blue" stroke-width="2" />
<path d="M3931,2891 L3120,2942" stroke="blue" stroke-width="2" />
<path d="M3680,3831 L6186,2190" stroke="blue" stroke-width="2" />
<path d="M4161,3753 L61,6195" stroke="blue" stroke-width="2" />
<path d="M1871,448 L4839,3854" stroke="blue" stroke-width="2" />
<path d="M5631,2485 L6664,1266" stroke="blue" stroke-width="2" />
<path d="M4459,3669 L4546,2739" stroke="blue" stroke-width="2" />
<path d="M6822,2815 L4763,136" stroke="blue" stroke-width="2" />
<path d="M5354,4025 L3969,1741" stroke="blue" stroke-width="2" />
<path d="M7799,1835 L1884,2530" stroke="blue" stroke-width="2" />
<path d="M864,3340 L3786,1430" stroke="blue" stroke-width="2" />
<path d="M1520,3860 L1105,5028" stroke="blue" stroke-width="2" />
<path d="M4213,921 L253,1840" stroke="blue" stroke-width="2" />
<path d="M7750,756 L3993,4006" stroke="blue" stroke-width="2" />
<path d="M859,2619 L5139,5785" stroke="blue" stroke-width="2" />
<path d="M675,2849 L1887,862" stroke="blue" stroke-width="2" />
<path d="M4684,4480 L2806,3128" stroke="blue" stroke-width="2" />
<path d="M7141,1550 L4997,236" stroke="blue" stroke-width="2" />
<path d="M3151,3359 L3464,2689" stroke="blue" stroke-width="2" />
<path d="M5623,2076 L7891,3278" stroke="blue" stroke-width="2" />
<path d="M3290,1787 L5480,1521" stroke="blue" stroke-width="2" />
<path d="M4216,4869 L1226,5429" stroke="blue" stroke-width="2" />
<path d="M6399,357 L6812,4730" stroke="blue" stroke-width="2" />
<path d="M2900,3930 L6662,6427" stroke="blue" stroke-width="2" />
<path d="M6392,3547 L620,5395" stroke="blue" stroke-width="2" />
<path d="M3058,2529 L3642,6045" stroke="blue" stroke-width="2" />
<path d="M1323,2868 L1034,5358" stroke="blue" stroke-width="2" />
<path d="M5029,792 L306,990" stroke="blue" stroke-width="2" />
<path d="M1834,2813 L6940,6212" stroke="blue" stroke-width="2" />
<path d="M6273,3727 L3692,355" stroke="blue" stroke-width="2" />
<path d="M2149,3497 L2769,6010" stroke="blue" stroke-width="2" />
<path d="M182,6205 L3784,678" stroke="blue" stroke-width="2" />
<path d="M933,5289 L4480,4758" stroke="blue" stroke-width="2" />
<path d="M7009,1027 L1097,3997" stroke="blue" stroke-width="2" />
<path d="M3074,90 L3058,3328" stroke="blue" stroke-width="2" />
<path d="M1152,4306 L2528,450" stroke="blue" stroke-width="2" />
<path d="M2128,2381 L4467,469" stroke="blue" stroke-width="2" />
<path d="M21,4425 L6294,6043" stroke="blue" stroke-width="2" />
<path d="M4349,4336 L5631,1340" stroke="blue" stroke-width="2" />
<path d="M7370,2646 L4504,3753" stroke="blue" stroke-width="2" />
<path d="M1850,3173 L834,6294" stroke="blue" stroke-width="2" />
<path d="M5614,4806 L2027,3180" stroke="blue" stroke-width="2" />
<path d="M7568,1262 L919,2921" stroke="blue" stroke-width="2" />
<path d="M970,6278 L6436,5013" stroke="blue" stroke-width="2" />
<path d="M1885,1028 L4502,484" stroke="blue" stroke-width="2" />
<path d="M7265,1530 L2332,65" stroke="blue" stroke-width="2" />
<path d="M7018,5229 L7805,2425" stroke="blue" stroke-width="2" />
<path d="M4337,1559 L4300,3074" stroke="blue" stroke-width="2" />
<path d="M3097,542 L1645,6042" stroke="blue" stroke-width="2" />
<path d="M787,2575 L7381,3341" stroke="blue" stroke-width="2" />
<path d="M2131,4000 L3084,6332" stroke="blue" stroke-width="2" />
<path d="M5535,347 L5076,5998" stroke="blue" stroke-width="2" />
<path d="M6146,5860 L1642,4536" stroke="blue" stroke-width="2" />
<path d="M396,6278 L7865,2701" stroke="blue" stroke-width="2" />
<path d="M1370,4165 L7287,893" stroke="blue" stroke-width="2" />
<path d="M2261,222 L554,804" stroke="blue" stroke-width="2" />
<path d="M7776,3139 L7496,5927" stroke="blue" stroke-width="2" />
<path d="M2663,5480 L385,4733" stroke="blue" stroke-width="2" />
<path d="M6228,2789 L879,835" stroke="blue" stroke-width="2" />
<path d="M1235,424 L4126,2034" stroke="blue" stroke-width="2" />
<path d="M505,2323 L3157,5650" stroke="blue" stroke-width="2" />
<path d="M3076,435 L682,5976" stroke="blue" stroke-width="2" />
<path d="M5210,4729 L4209,1115" stroke="blue" stroke-width="2" />
<path d="M4727,2794 L5770,172" stroke="blue" stroke-width="2" />
<path d="M2154,3452 L4888,4476" stroke="blue" stroke-width="2" />
<path d="M6265,4333 L6514,438" stroke="blue" stroke-width="2" />
<path d="M7143,1999 L5039,1778" stroke="blue" stroke-width="2" />
<path d="M6410,2249 L2502,2707" stroke="blue" stroke-width="2" />
<path d="M2440,5516 L2055,2758" stroke="blue" stroke-width="2" />
<path d="M4646,646 L1312,6439" stroke="blue" stroke-width="2" />
<path d="M2517,6189 L6639,2059" stroke="blue" stroke-width="2" />
<path d="M235,3072 L7088,4042" stroke="blue" stroke-width="2" />
<path d="M565,1794 L6341,6281" stroke="blue" stroke-width="2" />
<path d="M4704,619 L7866,5571" stroke="blue" stroke-width="2" />
<path d="M2760,3718 L6001,3700" stroke="blue" stroke-width="2" />
<path d="M1335,3508 L5860,4967" stroke="blue" stroke-width="2" />
<path d="M6404,6344 L171,6254" stroke="blue" stroke-width="2" />
<path d="M6660,3572 L7429,4156" stroke="blue" stroke-width="2" />
<path d="M2283,656 L2555,4869" stroke="blue" stroke-width="2" />
<path d="M5694,2017 L1539,2227" stroke="blue" stroke-width="2" />
<path d="M5042,4870 L6162,671" stroke="blue" stroke-width="2" />
<path d="M4272,3969 L3302,1657" stroke="blue" stroke-width="2" />
<path d="M2209,3372 L5006,797" stroke="blue" stroke-width="2" />
<path d="M186,4967 L918,3773" stroke="blue" stroke-width="2" />
<path d="M5035,3913 L462,3798" stroke="blue" stroke-width="2" />
<path d="M6369,3876 L3744,3577" stroke="blue" stroke-width="2" />
<path d="M1771,5692 L2854,3384" stroke="blue" stroke-width="2" />
<path d="M7469,1896 L7285,6152" stroke="blue" stroke-width="2" />
<path d="M394,3907 L1386,3292" stroke="blue" stroke-width="2" />
<path d="M3812,6175 L4151,3163" stroke="blue" stroke-width="2" />
<path d="M3292,6159 L1269,2583" stroke="blue" stroke-width="2" />
<path d="M751,4128 L5363,4969" stroke="blue" stroke-width="2" />
<path d="M7121,3753 L638,4467" stroke="blue" stroke-width="2" />
<path d="M2834,2249 L2275,1530" stroke="blue" stroke-width="2" />
<path d="M2256,6224 L6902,4025" stroke="blue" stroke-width="2" />
<path d="M5781,3699 L6812,6447" stroke="blue" stroke-width="2" />
<path d="M2257,6446 L7301,5805" stroke="blue" stroke-width="2" />
<path d="M1280,3585 L7878,2429" stroke="blue" stroke-width="2" />
<path d="M5888,2889 L7297,6316" stroke="blue" stroke-width="2" />
<path d="M5209,3004 L402,2277" stroke="blue" stroke-width="2" />
<path d="M820,3692 L4319,3086" stroke="blue" stroke-width="2" />
<path d="M6193,2220 L3967,6385" stroke="blue" stroke-width="2" />
<path d="M4055,5923 L5393,1257" stroke="blue" stroke-width="2" />
<path d="M7298,2202 L641,3296" stroke="blue" stroke-width="2" />
<path d="M1295,2741 L1114,814" stroke="blue" stroke-width="2" />
<path d="M7841,1786 L1655,5028" stroke="blue" stroke-width="2" />
<path d="M1259,4193 L5509,3753" stroke="blue" stroke-width="2" />
<path d="M4082,6179 L4455,5455" stroke="blue" stroke-width="2" />
<path d="M2322,4800 L2316,4160" stroke="blue" stroke-width="2" />
<path d="M841,2739 L1666,3001" stroke="blue" stroke-width="2" />
<path d="M931,839 L3381,3776" stroke="blue" stroke-width="2" />
<path d="M1189,5988 L1663,1703" stroke="blue" stroke-width="2" />
<path d="M1846,5750 L6960,2512" stroke="blue" stroke-width="2" />
<path d="M628,5580 L137,1209" stroke="blue" stroke-width="2" />
<path d="M3993,1219 L1685,417" stroke="blue" stroke-width="2" />
<path d="M5834,2153 L6641,5665" stroke="blue" stroke-width="2" />
<path d="M997,1614 L2645,4556" stroke="blue" stroke-width="2" />
<path d="M4169,4594 L2218,4189" stroke="blue" stroke-width="2" />
<path d="M7453,2297 L2351,1694" stroke="blue" stroke-width="2" />
<path d="M2869,462 L6445,3164" stroke="blue" stroke-width="2" />
<path d="M7002,2724 L3411,3025" stroke="blue" stroke-width="2" />
<path d="M835,5074 L2731,3855" stroke="blue" stroke-width="2" />
<path d="M1876,3584 L4494,4890" stroke="blue" stroke-width="2" />
<path d="M4830,2454 L5523,3002" stroke="blue" stroke-width="2" />
<path d="M3802,2124 L5801,1002" stroke="blue" stroke-width="2" />
<path d="M4722,283 L5392,3188" stroke="blue" stroke-width="2" />
<path d="M6261,1383 L4021,1113" stroke="blue" stroke-width="2" />
<path d="M2654,5921 L5592,4190" stroke="blue" stroke-width="2" />
<path d="M7677,3433 L3478,1334" stroke="blue" stroke-width="2" />
<path d="M1441,407 L7028,6307" stroke="blue" stroke-width="2" />
<path d="M3944,993 L7667,5129" stroke="blue" stroke-width="2" />
<path d="M2853,889 L3374,4750" stroke="blue" stroke-width="2" />
<path d="M6350,5816 L3860,1451" stroke="blue" stroke-width="2" />
<path d="M7295,408 L5120,2948" stroke="blue" stroke-width="2" />
<path d="M2641,6388 L468,599" stroke="blue" stroke-width="2" />
<path d="M5982,3484 L2998,5792" stroke="blue" stroke-width="2" />
<path d="M0,0 L7909,0" stroke="red" stroke-width="10" />
<path d="M7909,0 L7909,6449" stroke="red" stroke-width="10" />
<path d="M0,6449 L7909,6449" stroke="red" stroke-width="10" />
<path d="M0,6449 L0,0" stroke="red" stroke-width="10" />
</svg>