<?xml version="1.0" encoding="UTF-8"?>
<svg xmlns="http://www.w3.org/2000/svg" xmlns:xlink="http://www.w3.org/1999/xlink"
     width="10000" height="10000" viewBox="0 0 10000 10000">
<defs>
</defs>
<path d="M1743,1583 L942,2230" stroke="blue" stroke-width="2" />
<path d="M1930,1917 L3817,4184" stroke="blue" stroke-width="2" />
<path d="M2805,2234 L1984,715" stroke="blue" stroke-width="2" />
<path d="M3863,4054 L3034,1339" stroke="blue" stroke-width="2" />
<path d="M2246,3789 L238,183" stroke="blue" stroke-width="2" />
<path d="M1123,4607 L1258,3606" stroke="blue" stroke-width="2" />
<path d="M2453,5489 L1786,2319" stroke="blue" stroke-width="2" />
<path d="M2688,1929 L537,3898" stroke="blue" stroke-width="2" />
<path d="M1213,1092 L3334,5402" stroke="blue" stroke-width="2" />
<path d="M1261,854 L1825,1485" stroke="blue" stroke-width="2" />
<path d="M3049,2553 L72,3938" stroke="blue" stroke-width="2" />
<path d="M3847,5246 L2238,3381" stroke="blue" stroke-width="2" />
<path d="M1066,5484 L2737,4061" stroke="blue" stroke-width="2" />
<path d="M3306,5523 L2812,4474" stroke="blue" stroke-width="2" />
<path d="M922,3275 L577,5700" stroke="blue" stroke-width="2" />
<path d="M691,3425 L1144,4942" stroke="blue" stroke-width="2" />
<path d="M3168,758 L278,776" stroke="blue" stroke-width="2" />
<path d="M3123,2829 L3086,1546" stroke="blue" stroke-width="2" />
<path d="M2300,3100 L2942,5046" stroke="blue" stroke-width="2" />
<path d="M3414,2067 L3948,2535" stroke="blue" stroke-width="2" />
<path d="M970,2754 L3537,20" stroke="blue" stroke-width="2" />
<path d="M3846,4773 L1987,4097" stroke="blue" stroke-width="2" />
<path d="M2757,2564 L697,2905" stroke="blue" stroke-width="2" />
<path d="M3620,4639 L3367,1593" stroke="blue" stroke-width="2" />
<path d="M2764,4219 L3572,2801" stroke="blue" stroke-width="2" />
<path d="M2300,1640 L1191,4283" stroke="blue" stroke-width="2" />
<path d="M1375,2965 L1183,3129" stroke="blue" stroke-width="2" />
<path d="M179,3899 L1595,891" stroke="blue" stroke-width="2" />
<path d="M2942,660 L1018,4282" stroke="blue" stroke-width="2" />
<path d="M327,758 L3222,471" stroke="blue" stroke-width="2" />
<path d="M3390,3245 L828,3273" stroke="blue" stroke-width="2" />
<path d="M781,1276 L2166,4353" stroke="blue" stroke-width="2" />
<path d="M2538,3569 L2047,1659" stroke="blue" stroke-width="2" />
<path d="M227,534 L2953,1724" stroke="blue" stroke-width="2" />
<path d="M2984,499 L2610,478" stroke="blue" stroke-width="2" />
<path d="M1186,2320 L138,537" stroke="blue" stroke-width="2" />
<path d="M3960,2294 L3548,3195" stroke="blue" stroke-width="2" />
<path d="M582,5588 L2574,554" stroke="blue" stroke-width="2" />
<path d="M2969,5447 L2772,1350" stroke="blue" stroke-width="2" />
<path d="M3822,1775 L2335,2507" stroke="blue" stroke-width="2" />
<path d="M2840,394 L3643,2459" stroke="blue" stroke-width="2" />
<path d="M3175,364 L935,5260" stroke="blue" stroke-width="2" />
<path d="M1878,5084 L3320,4434" stroke="blue" stroke-width="2" />
<path d="M3009,57 L1950,101" stroke="blue" stroke-width="2" />
<path d="M1115,4875 L2111,4856" stroke="blue" stroke-width="2" />
<path d="M3497,1223 L359,2302" stroke="blue" stroke-width="2" />
<path d="M1686,2662 L1672,4405" stroke="blue" stroke-width="2" />
<path d="M1122,329 L1869,1394" stroke="blue" stroke-width="2" />
<path d="M2401,2134 L1717,5008" stroke="blue" stroke-width="2" />
<path d="M70,5125 L1241,5045" stroke="blue" stroke-width="2" />
<path d="M523,3639 L1424,965" stroke="blue" stroke-width="2" />
<path d="M3380,4074 L1353,2211" stroke="blue" stroke-width="2" />
<path d="M1768,2388 L3938,3464" stroke="blue" stroke-width="2" />
<path d="M1677,2958 L1057,3345" stroke="blue" stroke-width="2" />
<path d="M680,543 L744,3007" stroke="blue" stroke-width="2" />
<path d="M2239,3309 L2165,5018" stroke="blue" stroke-width="2" />
<path d="M141,40 L1225,3267" stroke="blue" stroke-width="2" />
<path d="M851,4399 L3783,5459" stroke="blue" stroke-width="2" />
<path d="M898,87 L1931,62" stroke="blue" stroke-width="2" />
<path d="M1526,1144 L60,4891" stroke="blue" stroke-width="2" />
<path d="M1570,522 L2915,493" stroke="blue" stroke-width="2" />
<path d="M1044,4373 L3,2567" stroke="blue" stroke-width="2" />
<path d="M2713,2124 L3302,5347" stroke="blue" stroke-width="2" />
<path d="M3020,3869 L2854,5683" stroke="blue" stroke-width="2" />
<path d="M3544,2299 L2270,1678" stroke="blue" stroke-width="2" />
<path d="M666,1460 L3539,13" stroke="blue" stroke-width="2" />
<path d="M2600,768 L1908,2102" stroke="blue" stroke-width="2" />
<path d="M869,1844 L1100,750" stroke="blue" stroke-width="2" />
<path d="M2654,3248 L2940,3784" stroke="blue" stroke-width="2" />
<path d="M1626,291 L467,3403" stroke="blue" stroke-width="2" />
<path d="M715,4264 L2033,973" stroke="blue" stroke-width="2" />
<path d="M3420,2526 L1935,2030" stroke="blue" stroke-width="2" />
<path d="M1573,1750 L3587,4437" stroke="blue" stroke-width="2" />
<path d="M1176,357 L1392,4019" stroke="blue" stroke-width="2" />
<path d="M611,319 L290,1774" stroke="blue" stroke-width="2" />
<path d="M2805,135 L37,1513" stroke="blue" stroke-width="2" />
<path d="M2304,1651 L3555,584" stroke="blue" stroke-width="2" />
<path d="M3193,287 L2616,3819" stroke="blue" stroke-width="2" />
<path d="M2028,1159 L2146,4141" stroke="blue" stroke-width="2" />
<path d="M3027,5080 L3234,1919" stroke="blue" stroke-width="2" />
<path d="M405,4110 L751,4296" stroke="blue" stroke-width="2" />
<path d="M709,5167 L2684,5458" stroke="blue" stroke-width="2" />
<path d="M1256,359 L303,5405" stroke="blue" stroke-width="2" />
<path d="M1649,5411 L2300,1311" stroke="blue" stroke-width="2" />
<path d="M888,5283 L1831,2276" stroke="blue" stroke-width="2" />
<path d="M1275,4660 L3121,4331" stroke="blue" stroke-width="2" />
<path d="M3047,1198 L1744,1313" stroke="blue" stroke-width="2" />
<path d="M2475,2242 L1974,545" stroke="blue" stroke-width="2" />
<path d="M3842,3509 L3534,3952" stroke="blue" stroke-width="2" />
<path d="M2547,5329 L3827,510" stroke="blue" stroke-width="2" />
<path d="M3518,269 L1421,894" stroke="blue" stroke-width="2" />
<path d="M2341,4569 L3071,2079" stroke="blue" stroke-width="2" />
<path d="M1279,5400 L2078,2948" stroke="blue" stroke-width="2" />
<path d="M616,4020 L2048,4732" stroke="blue" stroke-width="2" />
<path d="M1415,5757 L3558,573" stroke="blue" stroke-width="2" />
<path d="M2560,5796 L3031,1285" stroke="blue" stroke-width="2" />
<path d="M2883,3221 L113,986" stroke="blue" stroke-width="2" />
<path d="M2547,5297 L1,3822" stroke="blue" stroke-width="2" />
<path d="M390,2684 L1394,1969" stroke="blue" stroke-width="2" />
<path d="M2026,3595 L97,4882" stroke="blue" stroke-width="2" />
<path d="M1528,2022 L2986,348" stroke="blue" stroke-width="2" />
<path d="M1126,4675 L718,2621" stroke="blue" stroke-width="2" />
<path d="M1325,5076 L1784,385" stroke="blue" stroke-width="2" />
<path d="M2917,5148 L270,3435" stroke="blue" stroke-width="2" />
<path d="M1117,324 L1788,4749" stroke="blue" stroke-width="2" />
<path d="M906,3725 L456,1331" stroke="blue" stroke-width="2" />
<path d="M1088,3520 L3933,4767" stroke="blue" stroke-width="2" />
<path d="M3936,1465 L617,2409" stroke="blue" stroke-width="2" />
<path d="M2768,3314 L1577,5484" stroke="blue" stroke-width="2" />
<path d="M3765,4974 L611,659" stroke="blue" stroke-width="2" />
<path d="M1945,1838 L1310,3370" stroke="blue" stroke-width="2" />
<path d="M2638,4267 L2765,4395" stroke="blue" stroke-width="2" />
<path d="M2735,5249 L2950,1996" stroke="blue" stroke-width="2" />
<path d="M1218,346 L2264,2302" stroke="blue" stroke-width="2" />
<path d="M1572,3942 L2744,721" stroke="blue" stroke-width="2" />
<path d="M3638,1547 L1122,4448" stroke="blue" stroke-width="2" />
<path d="M2181,3457 L1919,4335" stroke="blue" stroke-width="2" />
<path d="M2318,4657 L2738,1227" stroke="blue" stroke-width="2" />
<path d="M586,1394 L51,5758" stroke="blue" stroke-width="2" />
<path d="M316,2195 L842,3861" stroke="blue" stroke-width="2" />
<path d="M3985,4157 L1654,2941" stroke="blue" stroke-width="2" />
<path d="M3473,3531 L975,1630" stroke="blue" stroke-width="2" />
<path d="M75,176 L3053,155" stroke="blue" stroke-width="2" />
<path d="M1764,2423 L2690,3025" stroke="blue" stroke-width="2" />
<path d="M2079,2536 L426,859" stroke="blue" stroke-width="2" />
<path d="M848,3426 L1693,5752" stroke="blue" stroke-width="2" />
<path d="M2757,2405 L748,4613" stroke="blue" stroke-width="2" />
<path d="M342,471 L3776,842" stroke="blue" stroke-width="2" />
<path d="M2154,3198 L618,2056" stroke="blue" stroke-width="2" />
<path d="M840,2176 L3353,5398" stroke="blue" stroke-width="2" />
<path d="M575,2801 L3822,1886" stroke="blue" stroke-width="2" />
<path d="M695,4968 L2339,1214" stroke="blue" stroke-width="2" />
<path d="M1347,5753 L1740,2094" stroke="blue" stroke-width="2" />
<path d="M3580,3800 L1138,2804" stroke="blue" stroke-width="2" />
<path d="M797,5686 L97,419" stroke="blue" stroke-width="2" />
<path d="M2369,3680 L68,5422" stroke="blue" stroke-width="2" />
<path d="M1860,3851 L2834,4593" stroke="blue" stroke-width="2" />
<path d="M1926,1827 L2425,3758" stroke="blue" stroke-width="2" />
<path d="M3351,4206 L1604,470" stroke="blue" stroke-width="2" />
<path d="M2571,2581 L191,1897" stroke="blue" stroke-width="2" />
<path d="M970,1776 L1253,651" stroke="blue" stroke-width="2" />
<path d="M259,1786 L1919,4007" stroke="blue" stroke-width="2" />
<path d="M65,258 L2699,1549" stroke="blue" stroke-width="2" />
<path d="M943,880 L2407,4598" stroke="blue" stroke-width="2" />
<path d="M3401,3345 L1440,5535" stroke="blue" stroke-width="2" />
<path d="M3006,2518 L1728,304" stroke="blue" stroke-width="2" />
<path d="M1324,3929 L1900,2867" stroke="blue" stroke-width="2" />
<path d="M2784,4955 L1966,2203" stroke="blue" stroke-width="2" />
<path d="M2389,253 L2772,4855" stroke="blue" stroke-width="2" />
<path d="M3041,5824 L3649,941" stroke="blue" stroke-width="2" />
<path d="M2168,4438 L2877,2742" stroke="blue" stroke-width="2" />
<path d="M3372,3321 L1821,3078" stroke="blue" stroke-width="2" />
<path d="M156,5827 L3756,4171" stroke="blue" stroke-width="2" />
<path d="M3822,5581 L677,1546" stroke="blue" stroke-width="2" />
<path d="M1723,1039 L2863,5202" stroke="blue" stroke-width="2" />
<path d="M2974,677 L3876,3403" stroke="blue" stroke-width="2" />
<path d="M787,2749 L50,3690" stroke="blue" stroke-width="2" />
<path d="M3978,5262 L3635,1950" stroke="blue" stroke-width="2" />
<path d="M374,4739 L2941,121" stroke="blue" stroke-width="2" />
<path d="M1455,1982 L2207,232" stroke="blue" stroke-width="2" />
<path d="M1139,3356 L658,3357" stroke="blue" stroke-width="2" />
<path d="M645,5413 L2729,5778" stroke="blue" stroke-width="2" />
<path d="M1519,3250 L2585,3622" stroke="blue" stroke-width="2" />
<path d="M2764,3321 L2455,3053" stroke="blue" stroke-width="2" />
<path d="M1642,4807 L2769,3883" stroke="blue" stroke-width="2" />
<path d="M1687,5126 L1304,1993" stroke="blue" stroke-width="2" />
<path d="M1855,4077 L94,2720" stroke="blue" stroke-width="2" />
<path d="M2499,5029 L1393,4206" stroke="blue" stroke-width="2" />
<path d="M3852,4434 L2207,3279" stroke="blue" stroke-width="2" />
<path d="M2008,1238 L2349,5307" stroke="blue" stroke-width="2" />
<path d="M2135,3735 L45,5292" stroke="blue" stroke-width="2" />
<path d="M2506,4516 L1400,3515" stroke="blue" stroke-width="2" />
<path d="M3630,5238 L1185,3822" stroke="blue" stroke-width="2" />
<path d="M2187,28 L1912,5768" stroke="blue" stroke-width="2" />
<path d="M43,5184 L3393,3004" stroke="blue" stroke-width="2" />
<path d="M361,507 L2905,1005" stroke="blue" stroke-width="2" />
<path d="M1071,67 L3263,4799" stroke="blue" stroke-width="2" />
<path d="M1534,4216 L230,3495" stroke="blue" stroke-width="2" />
<path d="M3119,5244 L2685,1805" stroke="blue" stroke-width="2" />
<path d="M3831,475 L2554,809" stroke="blue" stroke-width="2" />
<path d="M2,1791 L2200,3142" stroke="blue" stroke-width="2" />
<path d="M3281,1832 L3912,4910" stroke="blue" stroke-width="2" />
<path d="M2689,1509 L2580,3299" stroke="blue" stroke-width="2" />
<path d="M983,2993 L1335,5193" stroke="blue" stroke-width="2" />
<path d="M2150,1348 L2572,822" stroke="blue" stroke-width="2" />
<path d="M1414,248 L2883,412" stroke="blue" stroke-width="2" />
<path d="M3344,3392 L1217,230" stroke="blue" stroke-width="2" />
<path d="M1727,5038 L3763,3298" stroke="blue" stroke-width="2" />
<path d="M3403,2090 L3187,2217" stroke="blue" stroke-width="2" />
<path d="M2045,981 L1849,4942" stroke="blue" stroke-width="2" />
<path d="M1327,133 L1289,3723" stroke="blue" stroke-width="2" />
<path d="M2703,2419 L3689,2649" stroke="blue" stroke-width="2" />
<path d="M339,5075 L3158,2476" stroke="blue" stroke-width="2" />
<path d="M3203,2498 L1240,5393" stroke="blue" stroke-width="2" />
<path d="M1582,463 L829,1823" stroke="blue" stroke-width="2" />
<path d="M286,2690 L905,325" stroke="blue" stroke-width="2" />
<path d="M527,2988 L2496,1535" stroke="blue" stroke-width="2" />
<path d="M3569,3909 L3940,2964" stroke="blue" stroke-width="2" />
<path d="M3727,5465 L3061,2110" stroke="blue" stroke-width="2" />
<path d="M1548,1774 L1724,2728" stroke="blue" stroke-width="2" />
<path d="M3489,2245 L2431,4529" stroke="blue" stroke-width="2" />
<path d="M2982,1438 L1193,228" stroke="blue" stroke-width="2" />
<path d="M300,4545 L2991,3986" stroke="blue" stroke-width="2" />
<path d="M3570,3302 L3522,5323" stroke="blue" stroke-width="2" />
<path d="M3175,5870 L2869,383" stroke="blue" stroke-width="2" />
<path d="M2945,3154 L2258,769" stroke="blue" stroke-width="2" />
<path d="M3464,3696 L1735,3552" stroke="blue" stroke-width="2" />
<path d="M1537,3564 L1541,4506" stroke="blue" stroke-width="2" />
<path d="M1648,3773 L371,2554" stroke="blue" stroke-width="2" />
<path d="M3644,3075 L2210,4058" stroke="blue" stroke-width="2" />
<path d="M2798,3234 L1126,1740" stroke="blue" stroke-width="2" />
<path d="M1781,1064 L2778,39" stroke="blue" stroke-width="2" />
<path d="M3773,2963 L1728,5696" stroke="blue" stroke-width="2" />
<path d="M3640,1294 L3852,2138" stroke="blue" stroke-width="2" />
<path d="M3476,623 L2689,892" stroke="blue" stroke-width="2" />
<path d="M465,4862 L515,1385" stroke="blue" stroke-width="2" />
<path d="M3484,2277 L3096,649" stroke="blue" stroke-width="2" />
<path d="M3547,1788 L1134,4359" stroke="blue" stroke-width="2" />
<path d="M1263,874 L1780,1967" stroke="blue" stroke-width="2" />
<path d="M3933,1521 L933,5410" stroke="blue" stroke-width="2" />
<path d="M445,1117 L3543,2251" stroke="blue" stroke-width="2" />
<path d="M482,4478 L1441,5015" stroke="blue" stroke-width="2" />
<path d="M1711,308 L1141,1870" stroke="blue" stroke-width="2" />
<path d="M1998,24 L1814,343" stroke="blue" stroke-width="2" />
<path d="M3077,2762 L2477,5386" stroke="blue" stroke-width="2" />
<path d="M1570,905 L3650,2272" stroke="blue" stroke-width="2" />
<path d="M3113,4968 L2633,5174" stroke="blue" stroke-width="2" />
<path d="M2736,4840 L2476,2052" stroke="blue" stroke-width="2" />
<path d="M357,774 L749,5178" stroke="blue" stroke-width="2" />
<path d="M314,1116 L60,30" stroke="blue" stroke-width="2" />
<path d="M3804,5370 L589,505" stroke="blue" stroke-width="2" />
<path d="M1863,3571 L1732,1466" stroke="blue" stroke-width="2" />
<path d="M1222,1357 L390,5271" stroke="blue" stroke-width="2" />
<path d="M981,1515 L779,1702" stroke="blue" stroke-width="2" />
<path d="M355,1602 L1478,2096" stroke="blue" stroke-width="2" />
<path d="M548,93 L3249,2602" stroke="blue" stroke-width="2" />
<path d="M1368,5334 L303,3388" stroke="blue" stroke-width="2" />
<path d="M715,687 L1114,3042" stroke="blue" stroke-width="2" />
<path d="M3480,720 L2007,3824" stroke="blue" stroke-width="2" />
<path d="M535,4006 L3266,5218" stroke="blue" stroke-width="2" />
<path d="M1316,2929 L2996,3014" stroke="blue" stroke-width="2" />
<path d="M3680,4109 L3935,913" stroke="blue" stroke-width="2" />
<path d="M3919,3738 L2328,213" stroke="blue" stroke-width="2" />
<path d="M1968,4766 L2550,2929" stroke="blue" stroke-width="2" />
<path d="M716,3553 L2869,3177" stroke="blue" stroke-width="2" />
<path d="M1831,4941 L2167,1448" stroke="blue" stroke-width="2" />
<path d="M3246,5789 L878,2546" stroke="blue" stroke-width="2" />
<path d="M2610,788 L1940,1601" stroke="blue" stroke-width="2" />
<path d="M2786,1958 L3209,338" stroke="blue" stroke-width="2" />
<path d="M2981,1616 L421,1027" stroke="blue" stroke-width="2" />
<path d="M3136,2202 L3252,4789" stroke="blue" stroke-width="2" />
<path d="M533,3861 L473,4417" stroke="blue" stroke-width="2" />
<path d="M3289,3625 L1277,3685" stroke="blue" stroke-width="2" />
<path d="M3708,362 L144,133" stroke="blue" stroke-width="2" />
<path d="M509,4288 L311,149" stroke="blue" stroke-width="2" />
<path d="M2553,3086 L2180,1705" stroke="blue" stroke-width="2" />
<path d="M1168,5209 L2628,5401" stroke="blue" stroke-width="2" />
<path d="M2019,4483 L1584,4836" stroke="blue" stroke-width="2" />
<path d="M829,59 L2276,3177" stroke="blue" stroke-width="2" />
<path d="M1190,385 L2985,299" stroke="blue" stroke-width="2" />
<path d="M988,3298 L3627,4291" stroke="blue" stroke-width="2" />
<path d="M2587,1909 L3761,5268" stroke="blue" stroke-width="2" />
<path d="M2394,1426 L356,4216" stroke="blue" stroke-width="2" />
<path d="M3819,5048 L1267,1314" stroke="blue" stroke-width="2" />
<path d="M3942,1600 L112,5398" stroke="blue" stroke-width="2" />
<path d="M242,4506 L1225,4292" stroke="blue" stroke-width="2" />
<path d="M3824,669 L1520,4632" stroke="blue" stroke-width="2" />
<path d="M3272,2416 L1759,1703" stroke="blue" stroke-width="2" />
<path d="M1420,3185 L3902,274" stroke="blue" stroke-width="2" />
<path d="M3364,188 L1901,4232" stroke="blue" stroke-width="2" />
<path d="M2091,1389 L646,512" stroke="blue" stroke-width="2" />
<path d="M3567,1385 L78,3798" stroke="blue" stroke-width="2" />
<path d="M3946,2041 L632,5109" stroke="blue" stroke-width="2" />
<path d="M41,2189 L3663,5076" stroke="blue" stroke-width="2" />
<path d="M2486,3490 L2867,3878" stroke="blue" stroke-width="2" />
<path d="M3241,74 L822,1602" stroke="blue" stroke-width="2" />
<path d="M1407,2323 L2135,3172" stroke="blue" stroke-width="2" />
<path d="M2695,2172 L736,5316" stroke="blue" stroke-width="2" />
<path d="M369,5565 L2139,580" stroke="blue" stroke-width="2" />
<path d="M3220,1569 L1785,1786" stroke="blue" stroke-width="2" />
<path d="M3202,2726 L1442,5142" stroke="blue" stroke-width="2" />
<path d="M883,4204 L3879,261" stroke="blue" stroke-width="2" />
<path d="M3742,3518 L199,1190" stroke="blue" stroke-width="2" />
<path d="M2688,5812 L802,2556" stroke="blue" stroke-width="2" />
<path d="M197,4956 L621,1872" stroke="blue" stroke-width="2" />
<path d="M1042,1 L2798,3010" stroke="blue" stroke-width="2" />
<path d="M2336,3362 L3644,462" stroke="blue" stroke-width="2" />
<path d="M1569,5787 L630,1987" stroke="blue" stroke-width="2" />
<path d="M162,5067 L642,1920" stroke="blue" stroke-width="2" />
<path d="M794,4379 L924,3209" stroke="blue" stroke-width="2" />
<path d="M3003,5819 L1683,4563" stroke="blue" stroke-width="2" />
<path d="M1057,3770 L3435,372" stroke="blue" stroke-width="2" />
<path d="M3821,4844 L1118,5639" stroke="blue" stroke-width="2" />
<path d="M1180,3471 L1787,3372" stroke="blue" stroke-width="2" />
<path d="M2078,3473 L3043,4919" stroke="blue" stroke-width="2" />
<path d="M1355,2192 L2328,451" stroke="blue" stroke-width="2" />
<path d="M3150,1267 L1556,5009" stroke="blue" stroke-width="2" />
<path d="M3876,4316 L2703,3230" stroke="blue" stroke-width="2" />
<path d="M3755,3171 L561,3792" stroke="blue" stroke-width="2" />
<path d="M1010,1143 L963,5143" stroke="blue" stroke-width="2" />
<path d="M503,3524 L1109,5626" stroke="blue" stroke-width="2" />
<path d="M3367,233 L170,1129" stroke="blue" stroke-width="2" />
<path d="M2413,4320 L1480,822" stroke="blue" stroke-width="2" />
<path d="M3709,546 L3448,1420" stroke="blue" stroke-width="2" />
<path d="M2703,5104 L2546,1794" stroke="blue" stroke-width="2" />
<path d="M3584,3579 L945,3630" stroke="blue" stroke-width="2" />
<path d="M1185,2581 L1111,2037" stroke="blue" stroke-width="2" />
<path d="M1063,238 L2804,4366" stroke="blue" stroke-width="2" />
<path d="M2567,1007 L2692,3960" stroke="blue" stroke-width="2" />
<path d="M3724,2885 L2599,685" stroke="blue" stroke-width="2" />
<path d="M3517,4242 L775,818" stroke="blue" stroke-width="2" />
<path d="M3323,47 L1286,4909" stroke="blue" stroke-width="2" />
<path d="M3573,988 L3577,2888" stroke="blue" stroke-width="2" />
<path d="M981,1378 L3175,5032" stroke="blue" stroke-width="2" />
<path d="M4001,5751 L996,1317" stroke="blue" stroke-width="2" />
<path d="M1031,2911 L424,300" stroke="blue" stroke-width="2" />
<path d="M860,926 L3009,5442" stroke="blue" stroke-width="2" />
<path d="M2854,1406 L381,147" stroke="blue" stroke-width="2" />
<path d="M3593,4629 L1898,3390" stroke="blue" stroke-width="2" />
<path d="M3548,4587 L1153,1772" stroke="blue" stroke-width="2" />
<path d="M3203,4900 L1361,587" stroke="blue" stroke-width="2" />
<path d="M1149,5198 L3807,3231" stroke="blue" stroke-width="2" />
<path d="M138,2496 L960,5801" stroke="blue" stroke-width="2" />
<path d="M2255,3434 L1793,298" stroke="blue" stroke-width="2" />
<path d="M1143,5545 L2747,1940" stroke="blue" stroke-width="2" />
<path d="M2309,2045 L669,353" stroke="blue" stroke-width="2" />
<path d="M2537,3274 L278,285" stroke="blue" stroke-width="2" />
<path d="M3676,1580 L3016,5478" stroke="blue" stroke-width="2" />
<path d="M3601,2185 L3162,439" stroke="blue" stroke-width="2" />
<path d="M2859,4035 L3285,3798" stroke="blue" stroke-width="2" />
<path d="M1774,4667 L2763,4228" stroke="blue" stroke-width="2" />
<path d="M438,899 L727,4466" stroke="blue" stroke-width="2" />
<path d="M692,4126 L255,4801" stroke="blue" stroke-width="2" />
<path d="M2595,3327 L2723,5554" stroke="blue" stroke-width="2" />
<path d="M61,3252 L252,2794" stroke="blue" stroke-width="2" />
<path d="M2481,3200 L965,560" stroke="blue" stroke-width="2" />
<path d="M1960,5733 L1228,5648" stroke="blue" stroke-width="2" />
<path d="M3567,630 L2982,2629" stroke="blue" stroke-width="2" />
<path d="M2793,3226 L3620,5354" stroke="blue" stroke-width="2" />
<path d="M3579,2641 L519,2632" stroke="blue" stroke-width="2" />
<path d="M3778,810 L338,5112" stroke="blue" stroke-width="2" />
<path d="M772,791 L2989,4555" stroke="blue" stroke-width="2" />
<path d="M3594,1775 L3147,1952" stroke="blue" stroke-width="2" />
<path d="M902,1155 L3389,1310" stroke="blue" stroke-width="2" />
<path d="M1703,4941 L1062,5518" stroke="blue" stroke-width="2" />
<path d="M1078,2719 L3176,805" stroke="blue" stroke-width="2" />
<path d="M180,5601 L2154,2243" stroke="blue" stroke-width="2" />
<path d="M60,1083 L3351,1522" stroke="blue" stroke-width="2" />
<path d="M3697,2071 L2410,1594" stroke="blue" stroke-width="2" />
<path d="M3537,3955 L2238,3455" stroke="blue" stroke-width="2" />
<path d="M1754,3692 L2841,5729" stroke="blue" stroke-width="2" />
<path d="M3093,2241 L3452,1362" stroke="blue" stroke-width="2" />
<path d="M2019,3848 L497,5417" stroke="blue" stroke-width="2" />
<path d="M881,2859 L3439,238" stroke="blue" stroke-width="2" />
<path d="M2951,784 L3842,4252" stroke="blue" stroke-width="2" />
<path d="M2012,3500 L2847,5445" stroke="blue" stroke-width="2" />
<path d="M3323,3757 L1718,508" stroke="blue" stroke-width="2" />
<path d="M271,5427 L1204,4713" stroke="blue" stroke-width="2" />
<path d="M2050,4993 L3391,3884" stroke="blue" stroke-width="2" />
<path d="M2212,5282 L1050,5672" stroke="blue" stroke-width="2" />
<path d="M847,5437 L3694,379" stroke="blue" stroke-width="2" />
<path d="M3186,4643 L1360,2109" stroke="blue" stroke-width="2" />
<path d="M3085,745 L2060,3946" stroke="blue" stroke-width="2" />
<path d="M2531,2675 L614,4499" stroke="blue" stroke-width="2" />
<path d="M1044,2348 L53,2197" stroke="blue" stroke-width="2" />
<path d="M3815,2031 L3281,2109" stroke="blue" stroke-width="2" />
<path d="M503,83 L2046,3427" stroke="blue" stroke-width="2" />
<path d="M3981,4087 L1838,666" stroke="blue" stroke-width="2" />
<path d="M3634,3609 L2588,2484" stroke="blue" stroke-width="2" />
<path d="M1328,4222 L1238,5713" stroke="blue" stroke-width="2" />
<path d="M1020,2994 L2514,3809" stroke="blue" stroke-width="2" />
<path d="M2528,4005 L3767,4678" stroke="blue" stroke-width="2" />
<path d="M355,5537 L1266,949" stroke="blue" stroke-width="2" />
<path d="M2331,3140 L1324,1710" stroke="blue" stroke-width="2" />
<path d="M2745,1673 L3420,3503" stroke="blue" stroke-width="2" />
<path d="M2613,2548 L2235,5654" stroke="blue" stroke-width="2" />
<path d="M2559,2353 L56,4924" stroke="blue" stroke-width="2" />
<path d="M1627,1842 L3349,4545" stroke="blue" stroke-width="2" />
<path d="M217,387 L3394,381" stroke="blue" stroke-width="2" />
<path d="M562,48 L2082,4152" stroke="blue" stroke-width="2" />
<path d="M1512,2924 L2263,2552" stroke="blue" stroke-width="2" />
<path d="M2579,4779 L1771,101" stroke="blue" stroke-width="2" />
<path d="M35,3982 L3166,1958" stroke="blue" stroke-width="2" />
<path d="M2683,3795 L3149,3713" stroke="blue" stroke-width="2" />
<path d="M3165,2102 L361,892" stroke="blue" stroke-width="2" />
<path d="M1645,2703 L605,5787" stroke="blue" stroke-width="2" />
<path d="M3831,3952 L953,5629" stroke="blue" stroke-width="2" />
<path d="M2094,3673 L3694,4539" stroke="blue" stroke-width="2" />
<path d="M3986,5569 L1806,5619" stroke="blue" stroke-width="2" />
<path d="M881,1656 L632,715" stroke="blue" stroke-width="2" />
<path d="M3233,5624 L1964,1306" stroke="blue" stroke-width="2" />
<path d="M1369,2714 L915,463" stroke="blue" stroke-width="2" />
<path d="M1616,1572 L3395,4131" stroke="blue" stroke-width="2" />
<path d="M42,1545 L1429,2767" stroke="blue" stroke-width="2" />
<path d="M2695,1249 L1463,1944" stroke="blue" stroke-width="2" />
<path d="M2876,2780 L548,3849" stroke="blue" stroke-width="2" />
<path d="M2507,3516 L1366,1468" stroke="blue" stroke-width="2" />
<path d="M1635,2251 L3350,3100" stroke="blue" stroke-width="2" />
<path d="M2883,5208 L2956,435" stroke="blue" stroke-width="2" />
<path d="M1449,2298 L763,1144" stroke="blue" stroke-width="2" />
<path d="M559,3985 L3736,385" stroke="blue" stroke-width="2" />
<path d="M1639,3819 L2314,5450" stroke="blue" stroke-width="2" />
<path d="M3319,546 L1294,1708" stroke="blue" stroke-width="2" />
<path d="M2304,4965 L2616,1414" stroke="blue" stroke-width="2" />
<path d="M3754,805 L258,2198" stroke="blue" stroke-width="2" />
<path d="M3067,975 L3491,738" stroke="blue" stroke-width="2" />
<path d="M503,2221 L2270,5505" stroke="blue" stroke-width="2" />
<path d="M3336,813 L1494,425" stroke="blue" stroke-width="2" />
<path d="M782,46 L2987,2942" stroke="blue" stroke-width="2" />
<path d="M3814,5024 L3081,1829" stroke="blue" stroke-width="2" />
<path d="M3702,3387 L1901,5550" stroke="blue" stroke-width="2" />
<path d="M1767,3668 L1780,221" stroke="blue" stroke-width="2" />
<path d="M646,2780 L2626,5485" stroke="blue" stroke-width="2" />
<path d="M159,4100 L1896,2867" stroke="blue" stroke-width="2" />
<path d="M578,4568 L2913,1679" stroke="blue" stroke-width="2" />
<path d="M3572,3619 L1788,2516" stroke="blue" stroke-width="2" />
<path d="M3908,1101 L1260,5749" stroke="blue" stroke-width="2" />
<path d="M2486,5494 L1844,3741" stroke="blue" stroke-width="2" />
<path d="M2754,3165 L1081,2370" stroke="blue" stroke-width="2" />
<path d="M3987,2406 L3524,4458" stroke="blue" stroke-width="2" />
<path d="M2211,446 L285,373" stroke="blue" stroke-width="2" />
<path d="M2249,1322 L1945,4656" stroke="blue" stroke-width="2" />
<path d="M1447,1212 L3187,536" stroke="blue" stroke-width="2" />
<path d="M3787,4535 L3021,5603" stroke="blue" stroke-width="2" />
<path d="M2430,1991 L2642,2207" stroke="blue" stroke-width="2" />
<path d="M1562,1660 L2366,2121" stroke="blue" stroke-width="2" />
<path d="M2557,1462 L3709,3061" stroke="blue" stroke-width="2" />
<path d="M2289,2765 L2999,4538" stroke="blue" stroke-width="2" />
<path d="M2711,3367 L2232,5570" stroke="blue" stroke-width="2" />
<path d="M2728,4303 L1274,4976" stroke="blue" stroke-width="2" />
<path d="M2805,1882 L2362,2192" stroke="blue" stroke-width="2" />
<path d="M2883,3718 L558,2915" stroke="blue" stroke-width="2" />
<path d="M2515,2743 L3389,3281" stroke="blue" stroke-width="2" />
<path d="M3297,2865 L490,129" stroke="blue" stroke-width="2" />
<path d="M1969,4612 L141,4398" stroke="blue" stroke-width="2" />
<path d="M640,464 L2793,135" stroke="blue" stroke-width="2" />
<path d="M742,5532 L1841,5623" stroke="blue" stroke-width="2" />
<path d="M3002,601 L34,485" stroke="blue" stroke-width="2" />
<path d="M1779,2502 L3326,3247" stroke="blue" stroke-width="2" />
<path d="M3193,1986 L57,306" stroke="blue" stroke-width="2" />
<path d="M450,3857 L2879,2680" stroke="blue" stroke-width="2" />
<path d="M849,1479 L413,5512" stroke="blue" stroke-width="2" />
<path d="M3869,5169 L27,3540" stroke="blue" stroke-width="2" />
<path d="M408,5854 L2872,5184" stroke="blue" stroke-width="2" />
<path d="M1293,1961 L989,3522" stroke="blue" stroke-width="2" />
<path d="M2311,3041 L3254,4284" stroke="blue" stroke-width="2" />
<path d="M517,3621 L1096,3668" stroke="blue" stroke-width="2" />
<path d="M366,849 L3297,5859" stroke="blue" stroke-width="2" />
<path d="M1053,2003 L459,5349" stroke="blue" stroke-width="2" />
<path d="M1092,3113 L137,786" stroke="blue" stroke-width="2" />
<path d="M3905,4901 L3571,1993" stroke="blue" stroke-width="2" />
<path d="M1477,3868 L3869,3493" stroke="blue" stroke-width="2" />
<path d="M2840,927 L3393,2050" stroke="blue" stroke-width="2" />
<path d="M2619,3567 L846,3412" stroke="blue" stroke-width="2" />
<path d="M2954,3811 L2474,1826" stroke="blue" stroke-width="2" />
<path d="M3833,2357 L3346,3620" stroke="blue" stroke-width="2" />
<path d="M3335,1165 L2273,102" stroke="blue" stroke-width="2" />
<path d="M915,4370 L71,2032" stroke="blue" stroke-width="2" />
<path d="M2984,4864 L3978,604" stroke="blue" stroke-width="2" />
<path d="M793,5543 L196,1436" stroke="blue" stroke-width="2" />
<path d="M2850,5447 L1261,463" stroke="blue" stroke-width="2" />
<path d="M2126,4414 L596,4906" stroke="blue" stroke-width="2" />
<path d="M3091,2883 L2869,2955" stroke="blue" stroke-width="2" />
<path d="M3235,2057 L1973,3940" stroke="blue" stroke-width="2" />
<path d="M3589,4807 L2362,1047" stroke="blue" stroke-width="2" />
<path d="M1789,3641 L2481,3043" stroke="blue" stroke-width="2" />
<path d="M3255,5357 L539,530" stroke="blue" stroke-width="2" />
<path d="M304,1223 L3528,2092" stroke="blue" stroke-width="2" />
<path d="M286,3636 L2957,4500" stroke="blue" stroke-width="2" />
<path d="M45,1408 L2478,3752" stroke="blue" stroke-width="2" />
<path d="M377,4609 L104,2362" stroke="blue" stroke-width="2" />
<path d="M1168,5788 L3584,1062" stroke="blue" stroke-width="2" />
<path d="M2706,4110 L110,2446" stroke="blue" stroke-width="2" />
<path d="M1784,4252 L1694,4619" stroke="blue" stroke-width="2" />
<path d="M1781,5707 L2952,2495" stroke="blue" stroke-width="2" />
<path d="M2674,316 L223,2881" stroke="blue" stroke-width="2" />
<path d="M571,2358 L609,129" stroke="blue" stroke-width="2" />
<path d="M3882,2884 L3741,5846" stroke="blue" stroke-width="2" />
<path d="M1480,1979 L670,742" stroke="blue" stroke-width="2" />
<path d="M1141,5452 L2197,1386" stroke="blue" stroke-width="2" />
<path d="M3672,2487 L1368,850" stroke="blue" stroke-width="2" />
<path d="M3253,506 L1684,4170" stroke="blue" stroke-width="2" />
<path d="M175,2823 L1457,2543" stroke="blue" stroke-width="2" />
<path d="M1416,4484 L2414,1184" stroke="blue" stroke-width="2" />
<path d="M190,3884 L159,2140" stroke="blue" stroke-width="2" />
<path d="M726,5658 L3491,175" stroke="blue" stroke-width="2" />
<path d="M2432,5638 L2638,2035" stroke="blue" stroke-width="2" />
<path d="M2598,4636 L1114,5833" stroke="blue" stroke-width="2" />
<path d="M2821,1997 L3957,2341" stroke="blue" stroke-width="2" />
<path d="M236,4337 L3066,2721" stroke="blue" stroke-width="2" />
<path d="M3606,3884 L2387,2168" stroke="blue" stroke-width="2" />
<path d="M3900,5666 L1254,3098" stroke="blue" stroke-width="2" />
<path d="M1046,5411 L14,1582" stroke="blue" stroke-width="2" />
<path d="M137,1735 L3004,3543" stroke="blue" stroke-width="2" />
<path d="M2617,3025 L266,1698" stroke="blue" stroke-width="2" />
<path d="M2326,2833 L2676,3576" stroke="blue" stroke-width="2" />
<path d="M2243,3412 L782,4060" stroke="blue" stroke-width="2" />
<path d="M2924,5235 L1174,1484" stroke="blue" stroke-width="2" />
<path d="M2575,4445 L963,2160" stroke="blue" stroke-width="2" />
<path d="M2348,552 L2301,510" stroke="blue" stroke-width="2" />
<path d="M700,636 L3179,3276" stroke="blue" stroke-width="2" />
<path d="M729,331 L1545,5785" stroke="blue" stroke-width="2" />
<path d="M645,2597 L1832,2599" stroke="blue" stroke-width="2" />
<path d="M1838,651 L269,3115" stroke="blue" stroke-width="2" />
<path d="M2089,438 L573,4194" stroke="blue" stroke-width="2" />
<path d="M2221,702 L3039,4603" stroke="blue" stroke-width="2" />
<path d="M2537,5254 L777,4149" stroke="blue" stroke-width="2" />
<path d="M3474,615 L1118,4293" stroke="blue" stroke-width="2" />
<path d="M3019,4917 L1836,1186" stroke="blue" stroke-width="2" />
<path d="M1649,2475 L203,93" stroke="blue" stroke-width="2" />
<path d="M2456,2497 L323,2184" stroke="blue" stroke-width="2" />
<path d="M172,3062 L1979,609" stroke="blue" stroke-width="2" />
<path d="M3998,1127 L2795,1946" stroke="blue" stroke-width="2" />
<path d="M695,1654 L3548,4153" stroke="blue" stroke-width="2" />
<path d="M2499,113 L2833,2938" stroke="blue" stroke-width="2" />
<path d="M1350,2245 L3771,1378" stroke="blue" stroke-width="2" />
<path d="M50,1727 L2877,459" stroke="blue" stroke-width="2" />
<path d="M2436,1699 L327,2798" stroke="blue" stroke-width="2" />
<path d="M2257,5306 L1791,1222" stroke="blue" stroke-width="2" />
<path d="M3690,3391 L1586,827" stroke="blue" stroke-width="2" />
<path d="M1802,988 L2676,770" stroke="blue" stroke-width="2" />
<path d="M2653,211 L1762,4190" stroke="blue" stroke-width="2" />
<path d="M2807,3171 L1903,4798" stroke="blue" stroke-width="2" />
<path d="M2866,3812 L2530,3924" stroke="blue" stroke-width="2" />
<path d="M3808,493 L166,69" stroke="blue" stroke-width="2" />
<path d="M3814,5805 L3212,4426" stroke="blue" stroke-width="2" />
<path d="M1717,3833 L813,2165" stroke="blue" stroke-width="2" />
<path d="M2207,3762 L2176,2420" stroke="blue" stroke-width="2" />
<path d="M3522,834 L207,5128" stroke="blue" stroke-width="2" />
<path d="M3612,2839 L2101,2746" stroke="blue" stroke-width="2" />
<path d="M3307,303 L2506,5100" stroke="blue" stroke-width="2" />
<path d="M3689,4221 L1942,2422" stroke="blue" stroke-width="2" />
<path d="M2904,4124 L3249,3718" stroke="blue" stroke-width="2" />
<path d="M1426,5370 L3075,47" stroke="blue" stroke-width="2" />
<path d="M2957,298 L631,3467" stroke="blue" stroke-width="2" />
<path d="M3493,1640 L220,5612" stroke="blue" stroke-width="2" />
<path d="M588,1593 L3927,4245" stroke="blue" stroke-width="2" />
<path d="M2918,1202 L609,2347" stroke="blue" stroke-width="2" />
<path d="M71,5225 L3049,5135" stroke="blue" stroke-width="2" />
<path d="M548,2124 L3800,5338" stroke="blue" stroke-width="2" />
<path d="M2248,4222 L2487,2060" stroke="blue" stroke-width="2" />
<path d="M2767,4666 L1198,5204" stroke="blue" stroke-width="2" />
<path d="M2846,3330 L920,1521" stroke="blue" stroke-width="2" />
<path d="M2122,5713 L2985,3377" stroke="blue" stroke-width="2" />
<path d="M2175,5593 L196,1516" stroke="blue" stroke-width="2" />
<path d="M2447,3929 L1564,1410" stroke="blue" stroke-width="2" />
<path d="M3602,741 L647,423" stroke="blue" stroke-width="2" />
<path d="M3557,2927 L2318,1175" stroke="blue" stroke-width="2" />
<path d="M2038,4597 L1232,5342" stroke="blue" stroke-width="2" />
<path d="M438,2563 L3716,2097" stroke="blue" stroke-width="2" />
<path d="M958,52 L659,5511" stroke="blue" stroke-width="2" />
<path d="M2145,1603 L2599,5019" stroke="blue" stroke-width="2" />
<path d="M1571,2937 L309,4095" stroke="blue" stroke-width="2" />
<path d="M1725,1144 L514,2864" stroke="blue" stroke-width="2" />
<path d="M2694,2913 L1848,4599" stroke="blue" stroke-width="2" />
<path d="M996,4520 L3341,1698" stroke="blue" stroke-width="2" />
<path d="M3793,242 L1857,2393" stroke="blue" stroke-width="2" />
<path d="M595,921 L2460,5478" stroke="blue" stroke-width="2" />
<path d="M887,2780 L558,4717" stroke="blue" stroke-width="2" />
<path d="M857,231 L1904,3084" stroke="blue" stroke-width="2" />
<path d="M983,3139 L3109,1223" stroke="blue" stroke-width="2" />
<path d="M3750,5739 L2425,2656" stroke="blue" stroke-width="2" />
<path d="M1578,597 L3304,3840" stroke="blue" stroke-width="2" />
<path d="M1470,2880 L2770,3903" stroke="blue" stroke-width="2" />
<path d="M989,2627 L3669,3730" stroke="blue" stroke-width="2" />
<path d="M3914,1321 L868,88" stroke="blue" stroke-width="2" />
<path d="M408,3194 L2193,232" stroke="blue" stroke-width="2" />
<path d="M1111,2485 L669,3610" stroke="blue" stroke-width="2" />
<path d="M843,3169 L1170,3450" stroke="blue" stroke-width="2" />
<path d="M3322,1366 L798,2830" stroke="blue" stroke-width="2" />
<path d="M1971,1589 L3122,2682" stroke="blue" stroke-width="2" />
<path d="M1775,3148 L3201,1711" stroke="blue" stroke-width="2" />
<path d="M2983,212 L2372,1926" stroke="blue" stroke-width="2" />
<path d="M2689,5508 L1100,3365" stroke="blue" stroke-width="2" />
<path d="M3809,848 L2160,2509" stroke="blue" stroke-width="2" />
<path d="M3039,5318 L13,4240" stroke="blue" stroke-width="2" />
<path d="M1616,2104 L801,3715" stroke="blue" stroke-width="2" />
<path d="M928,1513 L1064,3519" stroke="blue" stroke-width="2" />
<path d="M2455,2675 L598,1534" stroke="blue" stroke-width="2" />
<path d="M1595,4857 L546,4000" stroke="blue" stroke-width="2" />
<path d="M3196,3181 L2083,3337" stroke="blue" stroke-width="2" />
<path d="M202,4648 L221,3542" stroke="blue" stroke-width="2" />
<path d="M1403,969 L2261,1182" stroke="blue" stroke-width="2" />
<path d="M2612,4089 L2120,3696" stroke="blue" stroke-width="2" />
<path d="M1730,2817 L3217,218" stroke="blue" stroke-width="2" />
<path d="M2368,3670 L1109,3065" stroke="blue" stroke-width="2" />
<path d="M2908,1610 L2697,775" stroke="blue" stroke-width="2" />
<path d="M1537,4235 L102,411" stroke="blue" stroke-width="2" />
<path d="M1105,5267 L2026,3261" stroke="blue" stroke-width="2" />
<path d="M3510,468 L2267,1837" stroke="blue" stroke-width="2" />
<path d="M1425,5678 L3943,1633" stroke="blue" stroke-width="2" />
<path d="M1425,5545 L2185,1236" stroke="blue" stroke-width="2" />
<path d="M2234,4440 L2598,3230" stroke="blue" stroke-width="2" />
<path d="M1382,2106 L44,4273" stroke="blue" stroke-width="2" />
<path d="M2625,1065 L402,3930" stroke="blue" stroke-width="2" />
<path d="M3181,3725 L1670,2832" stroke="blue" stroke-width="2" />
<path d="M1594,495 L1322,1769" stroke="blue" stroke-width="2" />
<path d="M1429,4446 L1128,1927" stroke="blue" stroke-width="2" />
<path d="M2337,4985 L3248,4747" stroke="blue" stroke-width="2" />
<path d="M768,695 L1726,4066" stroke="blue" stroke-width="2" />
<path d="M342,4938 L2480,1617" stroke="blue" stroke-width="2" />
<path d="M2406,4804 L3032,3858" stroke="blue" stroke-width="2" />
<path d="M0,0 L4003,0" stroke="red" stroke-width="10" />
<path d="M4003,0 L4003,5873" stroke="red" stroke-width="10" />
<path d="M0,5873 L4003,5873" stroke="red" stroke-width="10" />
<path d="M0,5873 L0,0" stroke="red" stroke-width="10" />
</svg>