<?xml version="1.0" encoding="UTF-8"?>
<svg xmlns="http://www.w3.org/2000/svg" xmlns:xlink="http://www.w3.org/1999/xlink"
     width="10000" height="10000" viewBox="0 0 10000 10000">
<defs>
</defs>
<path d="M2790,3840 L3722,6735" stroke="blue" stroke-width="2" />
<path d="M1975,6726 L2186,6907" stroke="blue" stroke-width="2" />
<path d="M4696,4816 L8705,3763" stroke="blue" stroke-width="2" />
<path d="M2407,5419 L3789,19" stroke="blue" stroke-width="2" />
<path d="M6605,4264 L1394,2887" stroke="blue" stroke-width="2" />
<path d="M8635,1469 L26,1264" stroke="blue" stroke-width="2" />
<path d="M2563,3948 L5046,1941" stroke="blue" stroke-width="2" />
<path d="M4271,4693 L7967,6809" stroke="blue" stroke-width="2" />
<path d="M4540,4659 L6986,670" stroke="blue" stroke-width="2" />
<path d="M8706,5306 L4548,2456" stroke="blue" stroke-width="2" />
<path d="M7372,6130 L7657,5985" stroke="blue" stroke-width="2" />
<path d="M2934,1860 L162,1594" stroke="blue" stroke-width="2" />
<path d="M1249,4494 L5905,5181" stroke="blue" stroke-width="2" />
<path d="M6653,2381 L553,3830" stroke="blue" stroke-width="2" />
<path d="M5256,915 L8003,3570" stroke="blue" stroke-width="2" />
<path d="M5777,4228 L462,1597" stroke="blue" stroke-width="2" />
<path d="M7131,1670 L8748,3077" stroke="blue" stroke-width="2" />
<path d="M959,2065 L1454,6178" stroke="blue" stroke-width="2" />
<path d="M7640,2469 L8493,5575" stroke="blue" stroke-width="2" />
<path d="M2224,2257 L2345,4700" stroke="blue" stroke-width="2" />
<path d="M4910,6363 L6036,2202" stroke="blue" stroke-width="2" />
<path d="M7321,6003 L7028,3668" stroke="blue" stroke-width="2" />
<path d="M841,1686 L5164,5285" stroke="blue" stroke-width="2" />
<path d="M1570,6330 L8622,1333" stroke="blue" stroke-width="2" />
<path d="M8210,1690 L5790,1531" stroke="blue" stroke-width="2" />
<path d="M5277,3361 L2411,1795" stroke="blue" stroke-width="2" />
<path d="M8543,192 L3500,4212" stroke="blue" stroke-width="2" />
<path d="M2839,4423 L724,5691" stroke="blue" stroke-width="2" />
<path d="M1601,6473 L5579,4943" stroke="blue" stroke-width="2" />
<path d="M3526,727 L7838,2138" stroke="blue" stroke-width="2" />
<path d="M1868,124 L7348,139" stroke="blue" stroke-width="2" />
<path d="M1376,6804 L5850,740" stroke="blue" stroke-width="2" />
<path d="M6479,5337 L8430,762" stroke="blue" stroke-width="2" />
<path d="M7230,5669 L4747,1457" stroke="blue" stroke-width="2" />
<path d="M2475,6078 L1276,6169" stroke="blue" stroke-width="2" />
<path d="M6548,854 L2123,4761" stroke="blue" stroke-width="2" />
<path d="M5613,2108 L2563,815" stroke="blue" stroke-width="2" />
<path d="M6930,2345 L1873,1602" stroke="blue" stroke-width="2" />
<path d="M5023,5216 L5590,5295" stroke="blue" stroke-width="2" />
<path d="M8019,3786 L6022,1764" stroke="blue" stroke-width="2" />
<path d="M1608,5664 L564,2223" stroke="blue" stroke-width="2" />
<path d="M5036,6791 L6380,725" stroke="blue" stroke-width="2" />
<path d="M5318,1105 L2364,4104" stroke="blue" stroke-width="2" />
<path d="M7381,5354 L2633,3534" stroke="blue" stroke-width="2" />
<path d="M7545,6911 L7387,6499" stroke="blue" stroke-width="2" />
<path d="M5213,1422 L5143,6061" stroke="blue" stroke-width="2" />
<path d="M66,1980 L8796,2682" stroke="blue" stroke-width="2" />
<path d="M5940,836 L159,4956" stroke="blue" stroke-width="2" />
<path d="M4933,5798 L8733,4268" stroke="blue" stroke-width="2" />
<path d="M3037,1633 L7287,2086" stroke="blue" stroke-width="2" />
<path d="M2417,5434 L3290,53" stroke="blue" stroke-width="2" />
<path d="M8498,4169 L1714,1578" stroke="blue" stroke-width="2" />
<path d="M3637,2647 L4014,5794" stroke="blue" stroke-width="2" />
<path d="M2933,4613 L7523,4531" stroke="blue" stroke-width="2" />
<path d="M5436,4481 L5648,2388" stroke="blue" stroke-width="2" />
<path d="M4900,1795 L5333,2824" stroke="blue" stroke-width="2" />
<path d="M3203,1992 L7210,4325" stroke="blue" stroke-width="2" />
<path d="M5186,5857 L1723,4850" stroke="blue" stroke-width="2" />
<path d="M6569,3476 L6480,3108" stroke="blue" stroke-width="2" />
<path d="M1088,5085 L1686,5428" stroke="blue" stroke-width="2" />
<path d="M5179,6894 L8259,3486" stroke="blue" stroke-width="2" />
<path d="M6937,3370 L238,4198" stroke="blue" stroke-width="2" />
<path d="M4267,6745 L1187,3149" stroke="blue" stroke-width="2" />
<path d="M5323,817 L3024,5240" stroke="blue" stroke-width="2" />
<path d="M7744,5342 L2176,5799" stroke="blue" stroke-width="2" />
<path d="M5178,3067 L4503,1068" stroke="blue" stroke-width="2" />
<path d="M3270,4806 L3230,4990" stroke="blue" stroke-width="2" />
<path d="M7100,4807 L7190,3517" stroke="blue" stroke-width="2" />
<path d="M3869,4035 L479,1325" stroke="blue" stroke-width="2" />
<path d="M1819,5249 L8382,4992" stroke="blue" stroke-width="2" />
<path d="M3847,2806 L8377,6948" stroke="blue" stroke-width="2" />
<path d="M705,2531 L1377,5444" stroke="blue" stroke-width="2" />
<path d="M2646,5264 L6909,4247" stroke="blue" stroke-width="2" />
<path d="M3891,3407 L3571,5760" stroke="blue" stroke-width="2" />
<path d="M1434,4935 L4315,1783" stroke="blue" stroke-width="2" />
<path d="M6254,5925 L4853,3862" stroke="blue" stroke-width="2" />
<path d="M5770,14 L2740,6232" stroke="blue" stroke-width="2" />
<path d="M6964,2483 L7061,1136" stroke="blue" stroke-width="2" />
<path d="M5915,6358 L2500,5374" stroke="blue" stroke-width="2" />
<path d="M6872,811 L5804,1316" stroke="blue" stroke-width="2" />
<path d="M387,2083 L405,5740" stroke="blue" stroke-width="2" />
<path d="M4276,4731 L3318,4955" stroke="blue" stroke-width="2" />
<path d="M5514,5905 L7810,3283" stroke="blue" stroke-width="2" />
<path d="M7647,6144 L257,5151" stroke="blue" stroke-width="2" />
<path d="M6725,1031 L169,5354" stroke="blue" stroke-width="2" />
<path d="M2433,3632 L3428,5399" stroke="blue" stroke-width="2" />
<path d="M6874,3674 L5340,4428" stroke="blue" stroke-width="2" />
<path d="M633,649 L1277,3244" stroke="blue" stroke-width="2" />
<path d="M6073,3650 L4984,2227" stroke="blue" stroke-width="2" />
<path d="M8600,1561 L2400,5882" stroke="blue" stroke-width="2" />
<path d="M2610,1138 L7948,3084" stroke="blue" stroke-width="2" />
<path d="M4721,333 L3935,4506" stroke="blue" stroke-width="2" />
<path d="M8452,6693 L2555,2760" stroke="blue" stroke-width="2" />
<path d="M6799,1077 L1443,15" stroke="blue" stroke-width="2" />
<path d="M3895,1443 L6925,4115" stroke="blue" stroke-width="2" />
<path d="M2507,1402 L452,920" stroke="blue" stroke-width="2" />
<path d="M570,918 L265,367" stroke="blue" stroke-width="2" />
<path d="M4021,1712 L7668,4489" stroke="blue" stroke-width="2" />
<path d="M2416,3929 L3601,2460" stroke="blue" stroke-width="2" />
<path d="M5995,376 L6452,3122" stroke="blue" stroke-width="2" />
<path d="M2037,4903 L6046,6313" stroke="blue" stroke-width="2" />
<path d="M8410,3871 L5332,5177" stroke="blue" stroke-width="2" />
<path d="M5478,175 L4725,6371" stroke="blue" stroke-width="2" />
<path d="M1719,4929 L1520,3080" stroke="blue" stroke-width="2" />
<path d="M3159,2558 L4449,5999" stroke="blue" stroke-width="2" />
<path d="M6292,2960 L5230,2845" stroke="blue" stroke-width="2" />
<path d="M7904,3655 L4755,1226" stroke="blue" stroke-width="2" />
<path d="M4722,4702 L1466,2631" stroke="blue" stroke-width="2" />
<path d="M5216,6713 L6049,4499" stroke="blue" stroke-width="2" />
<path d="M1605,4440 L6368,1544" stroke="blue" stroke-width="2" />
<path d="M0,0 L8804,0" stroke="red" stroke-width="10" />
<path d="M8804,0 L8804,6974" stroke="red" stroke-width="10" />
<path d="M0,6974 L8804,6974" stroke="red" stroke-width="10" />
<path d="M0,6974 L0,0" stroke="red" stroke-width="10" />
</svg>