<?xml version="1.0" encoding="UTF-8"?>
<svg xmlns="http://www.w3.org/2000/svg" xmlns:xlink="http://www.w3.org/1999/xlink"
     width="10000" height="10000" viewBox="0 0 10000 10000">
<defs>
</defs>
<path d="M1994,1352 L931,1279" stroke="blue" stroke-width="2" />
<path d="M3941,639 L3428,650" stroke="blue" stroke-width="2" />
<path d="M2571,741 L2051,231" stroke="blue" stroke-width="2" />
<path d="M4019,673 L605,1129" stroke="blue" stroke-width="2" />
<path d="M1252,1481 L721,1391" stroke="blue" stroke-width="2" />
<path d="M1892,268 L1684,414" stroke="blue" stroke-width="2" />
<path d="M2702,1009 L1119,578" stroke="blue" stroke-width="2" />
<path d="M1495,93 L3241,358" stroke="blue" stroke-width="2" />
<path d="M3458,513 L3185,450" stroke="blue" stroke-width="2" />
<path d="M3246,0 L881,777" stroke="blue" stroke-width="2" />
<path d="M1932,464 L3488,285" stroke="blue" stroke-width="2" />
<path d="M2244,1374 L2958,863" stroke="blue" stroke-width="2" />
<path d="M1122,1244 L3059,1501" stroke="blue" stroke-width="2" />
<path d="M844,983 L1210,76" stroke="blue" stroke-width="2" />
<path d="M1253,886 L2897,429" stroke="blue" stroke-width="2" />
<path d="M823,1463 L1860,1008" stroke="blue" stroke-width="2" />
<path d="M436,1398 L1142,836" stroke="blue" stroke-width="2" />
<path d="M3739,1440 L222,1503" stroke="blue" stroke-width="2" />
<path d="M958,376 L716,1463" stroke="blue" stroke-width="2" />
<path d="M2940,610 L2796,1165" stroke="blue" stroke-width="2" />
<path d="M2313,1608 L1528,819" stroke="blue" stroke-width="2" />
<path d="M1185,46 L77,892" stroke="blue" stroke-width="2" />
<path d="M862,1632 L751,1608" stroke="blue" stroke-width="2" />
<path d="M1363,382 L803,1468" stroke="blue" stroke-width="2" />
<path d="M1857,657 L1866,281" stroke="blue" stroke-width="2" />
<path d="M3703,567 L2997,1604" stroke="blue" stroke-width="2" />
<path d="M1789,514 L1756,1148" stroke="blue" stroke-width="2" />
<path d="M2759,1167 L3487,232" stroke="blue" stroke-width="2" />
<path d="M65,1291 L2073,1638" stroke="blue" stroke-width="2" />
<path d="M4066,1255 L4342,557" stroke="blue" stroke-width="2" />
<path d="M312,1360 L1946,236" stroke="blue" stroke-width="2" />
<path d="M115,1486 L3815,211" stroke="blue" stroke-width="2" />
<path d="M3019,315 L1674,1502" stroke="blue" stroke-width="2" />
<path d="M1767,1400 L2302,799" stroke="blue" stroke-width="2" />
<path d="M527,1079 L154,1026" stroke="blue" stroke-width="2" />
<path d="M502,1429 L1546,686" stroke="blue" stroke-width="2" />
<path d="M969,1629 L1690,1060" stroke="blue" stroke-width="2" />
<path d="M4172,582 L3358,1195" stroke="blue" stroke-width="2" />
<path d="M1555,1086 L4363,1630" stroke="blue" stroke-width="2" />
<path d="M4307,1170 L2943,1264" stroke="blue" stroke-width="2" />
<path d="M3750,864 L3789,793" stroke="blue" stroke-width="2" />
<path d="M745,1358 L694,1496" stroke="blue" stroke-width="2" />
<path d="M63,332 L3960,14" stroke="blue" stroke-width="2" />
<path d="M3187,196 L3447,20" stroke="blue" stroke-width="2" />
<path d="M822,1309 L1792,248" stroke="blue" stroke-width="2" />
<path d="M1821,1077 L2940,300" stroke="blue" stroke-width="2" />
<path d="M2492,631 L2067,1584" stroke="blue" stroke-width="2" />
<path d="M2763,137 L1268,1052" stroke="blue" stroke-width="2" />
<path d="M1999,1133 L4338,989" stroke="blue" stroke-width="2" />
<path d="M4125,1002 L1546,472" stroke="blue" stroke-width="2" />
<path d="M4089,999 L1931,1204" stroke="blue" stroke-width="2" />
<path d="M1331,773 L1054,990" stroke="blue" stroke-width="2" />
<path d="M1354,375 L284,1541" stroke="blue" stroke-width="2" />
<path d="M4187,1138 L3005,620" stroke="blue" stroke-width="2" />
<path d="M3051,246 L2327,1229" stroke="blue" stroke-width="2" />
<path d="M1447,405 L1344,1324" stroke="blue" stroke-width="2" />
<path d="M1410,1380 L2285,556" stroke="blue" stroke-width="2" />
<path d="M1597,1192 L1863,813" stroke="blue" stroke-width="2" />
<path d="M4100,1308 L1628,1417" stroke="blue" stroke-width="2" />
<path d="M3994,1632 L3767,1397" stroke="blue" stroke-width="2" />
<path d="M1075,1109 L2980,263" stroke="blue" stroke-width="2" />
<path d="M3086,1473 L603,1426" stroke="blue" stroke-width="2" />
<path d="M252,865 L2833,1464" stroke="blue" stroke-width="2" />
<path d="M3972,1182 L2732,738" stroke="blue" stroke-width="2" />
<path d="M1233,79 L1190,964" stroke="blue" stroke-width="2" />
<path d="M1810,69 L1335,376" stroke="blue" stroke-width="2" />
<path d="M704,779 L621,590" stroke="blue" stroke-width="2" />
<path d="M3396,1075 L832,222" stroke="blue" stroke-width="2" />
<path d="M3127,1485 L4002,1463" stroke="blue" stroke-width="2" />
<path d="M3379,729 L44,771" stroke="blue" stroke-width="2" />
<path d="M879,730 L1827,1298" stroke="blue" stroke-width="2" />
<path d="M381,1621 L4243,1273" stroke="blue" stroke-width="2" />
<path d="M4253,791 L3173,1255" stroke="blue" stroke-width="2" />
<path d="M2149,31 L166,1229" stroke="blue" stroke-width="2" />
<path d="M2077,1409 L3499,829" stroke="blue" stroke-width="2" />
<path d="M3447,601 L24,1159" stroke="blue" stroke-width="2" />
<path d="M2339,316 L56,1101" stroke="blue" stroke-width="2" />
<path d="M3575,451 L1127,239" stroke="blue" stroke-width="2" />
<path d="M1959,291 L2770,1412" stroke="blue" stroke-width="2" />
<path d="M2114,716 L396,388" stroke="blue" stroke-width="2" />
<path d="M2626,553 L2639,255" stroke="blue" stroke-width="2" />
<path d="M1178,1152 L266,927" stroke="blue" stroke-width="2" />
<path d="M595,591 L1032,844" stroke="blue" stroke-width="2" />
<path d="M2452,1080 L1261,964" stroke="blue" stroke-width="2" />
<path d="M2052,654 L2636,1062" stroke="blue" stroke-width="2" />
<path d="M4015,3 L1018,944" stroke="blue" stroke-width="2" />
<path d="M2461,693 L3072,15" stroke="blue" stroke-width="2" />
<path d="M2270,584 L2505,706" stroke="blue" stroke-width="2" />
<path d="M4016,1051 L3677,1209" stroke="blue" stroke-width="2" />
<path d="M1703,1636 L1930,665" stroke="blue" stroke-width="2" />
<path d="M1025,208 L37,111" stroke="blue" stroke-width="2" />
<path d="M1902,535 L621,17" stroke="blue" stroke-width="2" />
<path d="M669,159 L2873,76" stroke="blue" stroke-width="2" />
<path d="M3943,1625 L361,1391" stroke="blue" stroke-width="2" />
<path d="M3999,457 L3810,892" stroke="blue" stroke-width="2" />
<path d="M2444,1433 L2369,1609" stroke="blue" stroke-width="2" />
<path d="M4112,1015 L1001,221" stroke="blue" stroke-width="2" />
<path d="M3943,1607 L3483,42" stroke="blue" stroke-width="2" />
<path d="M268,657 L3534,1118" stroke="blue" stroke-width="2" />
<path d="M2316,1558 L1928,867" stroke="blue" stroke-width="2" />
<path d="M3404,110 L2442,1055" stroke="blue" stroke-width="2" />
<path d="M4172,432 L209,907" stroke="blue" stroke-width="2" />
<path d="M1828,346 L1312,67" stroke="blue" stroke-width="2" />
<path d="M2104,1536 L1424,1474" stroke="blue" stroke-width="2" />
<path d="M1223,870 L1808,643" stroke="blue" stroke-width="2" />
<path d="M3655,1262 L3232,388" stroke="blue" stroke-width="2" />
<path d="M419,402 L1895,1249" stroke="blue" stroke-width="2" />
<path d="M2808,820 L3416,637" stroke="blue" stroke-width="2" />
<path d="M1780,1199 L3927,11" stroke="blue" stroke-width="2" />
<path d="M884,1186 L2396,336" stroke="blue" stroke-width="2" />
<path d="M3251,1277 L4410,39" stroke="blue" stroke-width="2" />
<path d="M2628,754 L2772,949" stroke="blue" stroke-width="2" />
<path d="M659,620 L2860,540" stroke="blue" stroke-width="2" />
<path d="M70,813 L621,948" stroke="blue" stroke-width="2" />
<path d="M80,1161 L3224,548" stroke="blue" stroke-width="2" />
<path d="M2670,176 L2812,191" stroke="blue" stroke-width="2" />
<path d="M1086,747 L2992,1366" stroke="blue" stroke-width="2" />
<path d="M3868,1152 L1692,974" stroke="blue" stroke-width="2" />
<path d="M3523,1143 L61,73" stroke="blue" stroke-width="2" />
<path d="M229,516 L1899,733" stroke="blue" stroke-width="2" />
<path d="M4430,92 L3684,883" stroke="blue" stroke-width="2" />
<path d="M183,621 L2091,928" stroke="blue" stroke-width="2" />
<path d="M2317,1333 L3500,1299" stroke="blue" stroke-width="2" />
<path d="M3810,72 L2228,655" stroke="blue" stroke-width="2" />
<path d="M3994,1066 L2020,1181" stroke="blue" stroke-width="2" />
<path d="M3325,189 L1454,234" stroke="blue" stroke-width="2" />
<path d="M4145,1019 L2072,576" stroke="blue" stroke-width="2" />
<path d="M2144,1263 L4324,789" stroke="blue" stroke-width="2" />
<path d="M1877,23 L224,34" stroke="blue" stroke-width="2" />
<path d="M3035,374 L2553,1031" stroke="blue" stroke-width="2" />
<path d="M543,1382 L539,1267" stroke="blue" stroke-width="2" />
<path d="M3992,1450 L495,1186" stroke="blue" stroke-width="2" />
<path d="M3753,169 L3128,84" stroke="blue" stroke-width="2" />
<path d="M158,182 L989,960" stroke="blue" stroke-width="2" />
<path d="M2891,416 L2194,629" stroke="blue" stroke-width="2" />
<path d="M1630,910 L2037,334" stroke="blue" stroke-width="2" />
<path d="M1475,802 L914,959" stroke="blue" stroke-width="2" />
<path d="M2465,193 L4343,631" stroke="blue" stroke-width="2" />
<path d="M15,62 L892,1252" stroke="blue" stroke-width="2" />
<path d="M243,647 L766,762" stroke="blue" stroke-width="2" />
<path d="M2140,436 L2951,313" stroke="blue" stroke-width="2" />
<path d="M2036,529 L2225,1402" stroke="blue" stroke-width="2" />
<path d="M1511,74 L3983,943" stroke="blue" stroke-width="2" />
<path d="M3159,1028 L3605,178" stroke="blue" stroke-width="2" />
<path d="M563,1001 L2692,1537" stroke="blue" stroke-width="2" />
<path d="M45,1472 L2834,93" stroke="blue" stroke-width="2" />
<path d="M356,1409 L2481,43" stroke="blue" stroke-width="2" />
<path d="M439,888 L3484,1013" stroke="blue" stroke-width="2" />
<path d="M111,1605 L3322,1418" stroke="blue" stroke-width="2" />
<path d="M3092,595 L3447,143" stroke="blue" stroke-width="2" />
<path d="M385,367 L1794,150" stroke="blue" stroke-width="2" />
<path d="M955,893 L1624,1040" stroke="blue" stroke-width="2" />
<path d="M4254,645 L4170,1627" stroke="blue" stroke-width="2" />
<path d="M428,115 L1019,299" stroke="blue" stroke-width="2" />
<path d="M1485,1147 L639,507" stroke="blue" stroke-width="2" />
<path d="M879,1069 L4093,497" stroke="blue" stroke-width="2" />
<path d="M4403,891 L3100,1130" stroke="blue" stroke-width="2" />
<path d="M2787,723 L4205,315" stroke="blue" stroke-width="2" />
<path d="M2952,630 L2339,714" stroke="blue" stroke-width="2" />
<path d="M3648,1477 L1050,1043" stroke="blue" stroke-width="2" />
<path d="M772,1582 L2647,1607" stroke="blue" stroke-width="2" />
<path d="M1351,659 L3047,1348" stroke="blue" stroke-width="2" />
<path d="M550,451 L2672,1033" stroke="blue" stroke-width="2" />
<path d="M3726,1096 L1742,231" stroke="blue" stroke-width="2" />
<path d="M3057,1160 L1101,692" stroke="blue" stroke-width="2" />
<path d="M3649,1179 L4168,159" stroke="blue" stroke-width="2" />
<path d="M3271,843 L2917,333" stroke="blue" stroke-width="2" />
<path d="M1604,805 L628,1163" stroke="blue" stroke-width="2" />
<path d="M2847,721 L1527,1047" stroke="blue" stroke-width="2" />
<path d="M3149,1049 L992,54" stroke="blue" stroke-width="2" />
<path d="M78,1054 L3794,1309" stroke="blue" stroke-width="2" />
<path d="M1895,118 L1864,198" stroke="blue" stroke-width="2" />
<path d="M3959,383 L3970,993" stroke="blue" stroke-width="2" />
<path d="M541,359 L3885,191" stroke="blue" stroke-width="2" />
<path d="M1744,44 L2509,1361" stroke="blue" stroke-width="2" />
<path d="M892,1458 L149,310" stroke="blue" stroke-width="2" />
<path d="M3913,340 L1097,1587" stroke="blue" stroke-width="2" />
<path d="M455,1117 L2079,1623" stroke="blue" stroke-width="2" />
<path d="M112,1168 L3692,265" stroke="blue" stroke-width="2" />
<path d="M2471,854 L3742,763" stroke="blue" stroke-width="2" />
<path d="M3900,1515 L498,7" stroke="blue" stroke-width="2" />
<path d="M2831,155 L3586,648" stroke="blue" stroke-width="2" />
<path d="M357,427 L2061,19" stroke="blue" stroke-width="2" />
<path d="M7,501 L1397,1229" stroke="blue" stroke-width="2" />
<path d="M4430,717 L3882,948" stroke="blue" stroke-width="2" />
<path d="M1614,1491 L806,42" stroke="blue" stroke-width="2" />
<path d="M1326,238 L1613,307" stroke="blue" stroke-width="2" />
<path d="M1305,1060 L347,1285" stroke="blue" stroke-width="2" />
<path d="M4250,1638 L2434,360" stroke="blue" stroke-width="2" />
<path d="M1070,942 L4059,900" stroke="blue" stroke-width="2" />
<path d="M4124,117 L4357,1453" stroke="blue" stroke-width="2" />
<path d="M2736,1291 L118,100" stroke="blue" stroke-width="2" />
<path d="M325,750 L1634,1107" stroke="blue" stroke-width="2" />
<path d="M2124,1153 L3945,1367" stroke="blue" stroke-width="2" />
<path d="M2342,1482 L1020,1469" stroke="blue" stroke-width="2" />
<path d="M4221,991 L2234,1505" stroke="blue" stroke-width="2" />
<path d="M119,1340 L378,357" stroke="blue" stroke-width="2" />
<path d="M3991,531 L1089,546" stroke="blue" stroke-width="2" />
<path d="M302,1368 L1134,366" stroke="blue" stroke-width="2" />
<path d="M3019,125 L4157,4" stroke="blue" stroke-width="2" />
<path d="M1477,30 L2235,389" stroke="blue" stroke-width="2" />
<path d="M3227,745 L1211,770" stroke="blue" stroke-width="2" />
<path d="M1554,138 L40,1266" stroke="blue" stroke-width="2" />
<path d="M1278,498 L885,62" stroke="blue" stroke-width="2" />
<path d="M218,106 L490,406" stroke="blue" stroke-width="2" />
<path d="M2890,620 L3267,721" stroke="blue" stroke-width="2" />
<path d="M1724,187 L3486,783" stroke="blue" stroke-width="2" />
<path d="M2448,753 L2569,877" stroke="blue" stroke-width="2" />
<path d="M2036,1396 L2994,766" stroke="blue" stroke-width="2" />
<path d="M1912,526 L3873,671" stroke="blue" stroke-width="2" />
<path d="M3590,1357 L2574,1263" stroke="blue" stroke-width="2" />
<path d="M666,743 L878,100" stroke="blue" stroke-width="2" />
<path d="M770,1110 L4442,1321" stroke="blue" stroke-width="2" />
<path d="M1347,534 L2314,141" stroke="blue" stroke-width="2" />
<path d="M1954,1319 L2502,422" stroke="blue" stroke-width="2" />
<path d="M2616,274 L3942,820" stroke="blue" stroke-width="2" />
<path d="M3931,1460 L3136,1201" stroke="blue" stroke-width="2" />
<path d="M3949,1398 L2623,1558" stroke="blue" stroke-width="2" />
<path d="M2759,268 L1902,507" stroke="blue" stroke-width="2" />
<path d="M3202,648 L2053,1379" stroke="blue" stroke-width="2" />
<path d="M1568,262 L2477,1275" stroke="blue" stroke-width="2" />
<path d="M2976,1277 L4150,792" stroke="blue" stroke-width="2" />
<path d="M479,617 L1352,807" stroke="blue" stroke-width="2" />
<path d="M3595,158 L434,1115" stroke="blue" stroke-width="2" />
<path d="M3231,1576 L1026,744" stroke="blue" stroke-width="2" />
<path d="M4226,823 L788,1291" stroke="blue" stroke-width="2" />
<path d="M4370,717 L2293,258" stroke="blue" stroke-width="2" />
<path d="M3028,1399 L4423,908" stroke="blue" stroke-width="2" />
<path d="M1755,94 L4398,1530" stroke="blue" stroke-width="2" />
<path d="M3964,1293 L2024,407" stroke="blue" stroke-width="2" />
<path d="M2331,832 L3353,1505" stroke="blue" stroke-width="2" />
<path d="M4269,96 L3061,61" stroke="blue" stroke-width="2" />
<path d="M166,11 L2063,666" stroke="blue" stroke-width="2" />
<path d="M2761,398 L3654,922" stroke="blue" stroke-width="2" />
<path d="M3921,1341 L4124,1357" stroke="blue" stroke-width="2" />
<path d="M3318,1610 L1577,928" stroke="blue" stroke-width="2" />
<path d="M4274,1224 L365,1588" stroke="blue" stroke-width="2" />
<path d="M3971,1363 L260,1253" stroke="blue" stroke-width="2" />
<path d="M2410,805 L1182,1022" stroke="blue" stroke-width="2" />
<path d="M2631,297 L1735,1284" stroke="blue" stroke-width="2" />
<path d="M3721,1481 L2211,528" stroke="blue" stroke-width="2" />
<path d="M1607,141 L2556,550" stroke="blue" stroke-width="2" />
<path d="M4055,1335 L1324,1555" stroke="blue" stroke-width="2" />
<path d="M3163,641 L3550,525" stroke="blue" stroke-width="2" />
<path d="M3519,836 L575,902" stroke="blue" stroke-width="2" />
<path d="M500,1512 L1747,1302" stroke="blue" stroke-width="2" />
<path d="M0,0 L4443,0" stroke="red" stroke-width="10" />
<path d="M4443,0 L4443,1640" stroke="red" stroke-width="10" />
<path d="M0,1640 L4443,1640" stroke="red" stroke-width="10" />
<path d="M0,1640 L0,0" stroke="red" stroke-width="10" />
</svg>