<?xml version="1.0" encoding="UTF-8"?>
<svg xmlns="http://www.w3.org/2000/svg" xmlns:xlink="http://www.w3.org/1999/xlink"
     width="10000" height="10000" viewBox="0 0 10000 10000">
<defs>
</defs>
<path d="M702,1792 L2244,40" stroke="blue" stroke-width="2" />
<path d="M1477,453 L251,288" stroke="blue" stroke-width="2" />
<path d="M917,954 L750,1496" stroke="blue" stroke-width="2" />
<path d="M1650,2068 L2709,1206" stroke="blue" stroke-width="2" />
<path d="M1644,1324 L3062,2621" stroke="blue" stroke-width="2" />
<path d="M63,2990 L1848,2389" stroke="blue" stroke-width="2" />
<path d="M3031,808 L3329,125" stroke="blue" stroke-width="2" />
<path d="M545,1724 L6,2944" stroke="blue" stroke-width="2" />
<path d="M3192,3623 L23,645" stroke="blue" stroke-width="2" />
<path d="M2239,539 L990,2826" stroke="blue" stroke-width="2" />
<path d="M1728,2133 L244,1193" stroke="blue" stroke-width="2" />
<path d="M201,1586 L2603,2742" stroke="blue" stroke-width="2" />
<path d="M254,1691 L2349,1832" stroke="blue" stroke-width="2" />
<path d="M478,2774 L1605,9" stroke="blue" stroke-width="2" />
<path d="M1876,3708 L70,736" stroke="blue" stroke-width="2" />
<path d="M2385,573 L1535,3279" stroke="blue" stroke-width="2" />
<path d="M562,3359 L565,2869" stroke="blue" stroke-width="2" />
<path d="M1302,1556 L494,3078" stroke="blue" stroke-width="2" />
<path d="M205,877 L690,1014" stroke="blue" stroke-width="2" />
<path d="M2537,1331 L1325,1260" stroke="blue" stroke-width="2" />
<path d="M132,1933 L1613,1531" stroke="blue" stroke-width="2" />
<path d="M146,1217 L1305,1556" stroke="blue" stroke-width="2" />
<path d="M866,88 L1365,2355" stroke="blue" stroke-width="2" />
<path d="M2877,3007 L951,2605" stroke="blue" stroke-width="2" />
<path d="M409,1340 L777,563" stroke="blue" stroke-width="2" />
<path d="M167,2391 L1798,478" stroke="blue" stroke-width="2" />
<path d="M2317,2793 L720,2238" stroke="blue" stroke-width="2" />
<path d="M1139,618 L1908,950" stroke="blue" stroke-width="2" />
<path d="M2727,3477 L1248,3287" stroke="blue" stroke-width="2" />
<path d="M1152,1576 L1448,2619" stroke="blue" stroke-width="2" />
<path d="M1063,560 L484,957" stroke="blue" stroke-width="2" />
<path d="M3007,2553 L211,2016" stroke="blue" stroke-width="2" />
<path d="M771,2760 L684,538" stroke="blue" stroke-width="2" />
<path d="M1538,277 L2064,325" stroke="blue" stroke-width="2" />
<path d="M3331,3306 L3036,2889" stroke="blue" stroke-width="2" />
<path d="M1215,2540 L1633,1978" stroke="blue" stroke-width="2" />
<path d="M2497,2821 L1689,981" stroke="blue" stroke-width="2" />
<path d="M1860,2325 L3022,3762" stroke="blue" stroke-width="2" />
<path d="M1471,593 L5,2286" stroke="blue" stroke-width="2" />
<path d="M1397,2264 L3104,1541" stroke="blue" stroke-width="2" />
<path d="M398,466 L3256,922" stroke="blue" stroke-width="2" />
<path d="M2776,1307 L1410,2271" stroke="blue" stroke-width="2" />
<path d="M2606,3065 L2992,3655" stroke="blue" stroke-width="2" />
<path d="M2968,1298 L2068,2775" stroke="blue" stroke-width="2" />
<path d="M3129,3758 L1664,797" stroke="blue" stroke-width="2" />
<path d="M912,2673 L418,93" stroke="blue" stroke-width="2" />
<path d="M950,102 L2582,2794" stroke="blue" stroke-width="2" />
<path d="M1190,421 L2844,1163" stroke="blue" stroke-width="2" />
<path d="M0,0 L3343,0" stroke="red" stroke-width="10" />
<path d="M3343,0 L3343,3763" stroke="red" stroke-width="10" />
<path d="M0,3763 L3343,3763" stroke="red" stroke-width="10" />
<path d="M0,3763 L0,0" stroke="red" stroke-width="10" />
</svg>