<?xml version="1.0" encoding="UTF-8"?>
<svg xmlns="http://www.w3.org/2000/svg" xmlns:xlink="http://www.w3.org/1999/xlink"
     width="10000" height="10000" viewBox="0 0 10000 10000">
<defs>
</defs>
<path d="M98,8122 L7198,8155" stroke="blue" stroke-width="2" />
<path d="M8124,1759 L1743,1685" stroke="blue" stroke-width="2" />
<path d="M6011,5062 L3743,7453" stroke="blue" stroke-width="2" />
<path d="M2666,3926 L4066,4553" stroke="blue" stroke-width="2" />
<path d="M8816,6254 L5973,793" stroke="blue" stroke-width="2" />
<path d="M8588,4519 L1895,1315" stroke="blue" stroke-width="2" />
<path d="M4276,2600 L1011,310" stroke="blue" stroke-width="2" />
<path d="M1105,2106 L5174,7934" stroke="blue" stroke-width="2" />
<path d="M9230,2772 L223,3479" stroke="blue" stroke-width="2" />
<path d="M4814,5776 L8812,5925" stroke="blue" stroke-width="2" />
<path d="M8258,5491 L5895,781" stroke="blue" stroke-width="2" />
<path d="M30,5834 L6173,3605" stroke="blue" stroke-width="2" />
<path d="M5700,7882 L1724,1637" stroke="blue" stroke-width="2" />
<path d="M1190,4844 L1458,8224" stroke="blue" stroke-width="2" />
<path d="M7467,8525 L3424,3011" stroke="blue" stroke-width="2" />
<path d="M1710,5127 L9583,5737" stroke="blue" stroke-width="2" />
<path d="M4708,765 L6969,475" stroke="blue" stroke-width="2" />
<path d="M32,367 L5762,323" stroke="blue" stroke-width="2" />
<path d="M912,3196 L9076,547" stroke="blue" stroke-width="2" />
<path d="M719,4959 L3570,4366" stroke="blue" stroke-width="2" />
<path d="M2248,5036 L1349,1646" stroke="blue" stroke-width="2" />
<path d="M4107,4150 L3728,1960" stroke="blue" stroke-width="2" />
<path d="M3649,4261 L3014,5429" stroke="blue" stroke-width="2" />
<path d="M2255,2472 L3915,4357" stroke="blue" stroke-width="2" />
<path d="M8907,5362 L176,7206" stroke="blue" stroke-width="2" />
<path d="M902,5078 L7147,6236" stroke="blue" stroke-width="2" />
<path d="M6169,5986 L3155,8466" stroke="blue" stroke-width="2" />
<path d="M9668,1395 L3371,5694" stroke="blue" stroke-width="2" />
<path d="M939,1332 L9372,6613" stroke="blue" stroke-width="2" />
<path d="M1724,7472 L5202,8175" stroke="blue" stroke-width="2" />
<path d="M8315,8446 L9092,6062" stroke="blue" stroke-width="2" />
<path d="M9397,8052 L5744,4456" stroke="blue" stroke-width="2" />
<path d="M8266,3286 L9714,2792" stroke="blue" stroke-width="2" />
<path d="M8564,4890 L8282,2765" stroke="blue" stroke-width="2" />
<path d="M5296,744 L410,4824" stroke="blue" stroke-width="2" />
<path d="M180,7690 L5699,4854" stroke="blue" stroke-width="2" />
<path d="M5212,6556 L5838,6609" stroke="blue" stroke-width="2" />
<path d="M8200,8771 L9332,5054" stroke="blue" stroke-width="2" />
<path d="M4048,7815 L3072,570" stroke="blue" stroke-width="2" />
<path d="M5873,7693 L9409,5184" stroke="blue" stroke-width="2" />
<path d="M1158,8091 L7340,8664" stroke="blue" stroke-width="2" />
<path d="M3920,353 L6429,5113" stroke="blue" stroke-width="2" />
<path d="M528,7142 L3716,3389" stroke="blue" stroke-width="2" />
<path d="M8752,27 L8865,6026" stroke="blue" stroke-width="2" />
<path d="M7928,5706 L1035,6607" stroke="blue" stroke-width="2" />
<path d="M5242,7393 L3192,3607" stroke="blue" stroke-width="2" />
<path d="M9295,3612 L1507,4412" stroke="blue" stroke-width="2" />
<path d="M961,4794 L3486,2900" stroke="blue" stroke-width="2" />
<path d="M1516,2681 L4825,307" stroke="blue" stroke-width="2" />
<path d="M3660,6299 L1465,1619" stroke="blue" stroke-width="2" />
<path d="M5526,5409 L4128,2617" stroke="blue" stroke-width="2" />
<path d="M423,4693 L7629,8340" stroke="blue" stroke-width="2" />
<path d="M7622,4294 L6940,2643" stroke="blue" stroke-width="2" />
<path d="M8139,2433 L9509,6896" stroke="blue" stroke-width="2" />
<path d="M3888,6787 L9653,8122" stroke="blue" stroke-width="2" />
<path d="M3283,5640 L3417,7432" stroke="blue" stroke-width="2" />
<path d="M8666,4677 L68,1038" stroke="blue" stroke-width="2" />
<path d="M9465,6439 L2022,7448" stroke="blue" stroke-width="2" />
<path d="M7981,2211 L9329,8326" stroke="blue" stroke-width="2" />
<path d="M8428,2233 L4470,5731" stroke="blue" stroke-width="2" />
<path d="M3940,1620 L8952,6714" stroke="blue" stroke-width="2" />
<path d="M4233,1409 L3894,1377" stroke="blue" stroke-width="2" />
<path d="M9612,6090 L7888,2568" stroke="blue" stroke-width="2" />
<path d="M1784,6111 L668,6619" stroke="blue" stroke-width="2" />
<path d="M5638,8221 L6248,8225" stroke="blue" stroke-width="2" />
<path d="M8278,6198 L3225,2639" stroke="blue" stroke-width="2" />
<path d="M8992,190 L3456,146" stroke="blue" stroke-width="2" />
<path d="M1456,8350 L3453,3052" stroke="blue" stroke-width="2" />
<path d="M4697,1709 L6517,8147" stroke="blue" stroke-width="2" />
<path d="M1107,3850 L4232,1513" stroke="blue" stroke-width="2" />
<path d="M6290,5503 L5819,1278" stroke="blue" stroke-width="2" />
<path d="M6414,3055 L349,1060" stroke="blue" stroke-width="2" />
<path d="M397,391 L3651,6777" stroke="blue" stroke-width="2" />
<path d="M1724,4776 L3565,299" stroke="blue" stroke-width="2" />
<path d="M9306,6827 L7746,1499" stroke="blue" stroke-width="2" />
<path d="M2633,1175 L5751,1130" stroke="blue" stroke-width="2" />
<path d="M7841,7845 L5899,4873" stroke="blue" stroke-width="2" />
<path d="M5463,2961 L1614,1418" stroke="blue" stroke-width="2" />
<path d="M2550,4149 L182,2618" stroke="blue" stroke-width="2" />
<path d="M3807,3972 L6726,5073" stroke="blue" stroke-width="2" />
<path d="M712,2682 L7875,8184" stroke="blue" stroke-width="2" />
<path d="M6032,2701 L7938,5565" stroke="blue" stroke-width="2" />
<path d="M9297,4491 L238,5089" stroke="blue" stroke-width="2" />
<path d="M73,7134 L1741,2648" stroke="blue" stroke-width="2" />
<path d="M2335,5661 L7140,6755" stroke="blue" stroke-width="2" />
<path d="M6346,1591 L3948,4692" stroke="blue" stroke-width="2" />
<path d="M4828,5356 L9254,3230" stroke="blue" stroke-width="2" />
<path d="M7867,603 L5806,7950" stroke="blue" stroke-width="2" />
<path d="M9169,7576 L7533,3680" stroke="blue" stroke-width="2" />
<path d="M1491,3961 L4260,2922" stroke="blue" stroke-width="2" />
<path d="M4196,820 L2120,7919" stroke="blue" stroke-width="2" />
<path d="M5112,6270 L7458,7973" stroke="blue" stroke-width="2" />
<path d="M3811,1499 L9453,4696" stroke="blue" stroke-width="2" />
<path d="M1172,5987 L7362,7731" stroke="blue" stroke-width="2" />
<path d="M4051,6542 L8690,4641" stroke="blue" stroke-width="2" />
<path d="M3894,1756 L4211,2369" stroke="blue" stroke-width="2" />
<path d="M1331,1124 L3476,2355" stroke="blue" stroke-width="2" />
<path d="M7797,5273 L2261,6878" stroke="blue" stroke-width="2" />
<path d="M5777,5147 L8069,7699" stroke="blue" stroke-width="2" />
<path d="M8511,6355 L812,5382" stroke="blue" stroke-width="2" />
<path d="M8808,356 L7138,911" stroke="blue" stroke-width="2" />
<path d="M101,804 L9431,6461" stroke="blue" stroke-width="2" />
<path d="M9305,5451 L1988,5476" stroke="blue" stroke-width="2" />
<path d="M9025,8738 L6738,6611" stroke="blue" stroke-width="2" />
<path d="M4797,3205 L1918,2362" stroke="blue" stroke-width="2" />
<path d="M2730,6572 L7003,960" stroke="blue" stroke-width="2" />
<path d="M4732,8189 L6103,6609" stroke="blue" stroke-width="2" />
<path d="M6219,347 L8034,5066" stroke="blue" stroke-width="2" />
<path d="M5644,2869 L1507,1274" stroke="blue" stroke-width="2" />
<path d="M1080,5842 L1440,4996" stroke="blue" stroke-width="2" />
<path d="M1402,4868 L7923,8150" stroke="blue" stroke-width="2" />
<path d="M9133,4512 L8077,1194" stroke="blue" stroke-width="2" />
<path d="M8241,8213 L2341,3423" stroke="blue" stroke-width="2" />
<path d="M110,2614 L744,1708" stroke="blue" stroke-width="2" />
<path d="M3919,8479 L5314,6103" stroke="blue" stroke-width="2" />
<path d="M4766,3502 L7528,6152" stroke="blue" stroke-width="2" />
<path d="M6639,2223 L7743,1348" stroke="blue" stroke-width="2" />
<path d="M3226,3536 L6188,7350" stroke="blue" stroke-width="2" />
<path d="M492,1936 L5461,8310" stroke="blue" stroke-width="2" />
<path d="M6102,2978 L4243,5089" stroke="blue" stroke-width="2" />
<path d="M2690,4368 L7524,4442" stroke="blue" stroke-width="2" />
<path d="M5616,3792 L576,2930" stroke="blue" stroke-width="2" />
<path d="M638,4268 L9434,1474" stroke="blue" stroke-width="2" />
<path d="M3220,5274 L2198,1975" stroke="blue" stroke-width="2" />
<path d="M1603,6247 L4942,6217" stroke="blue" stroke-width="2" />
<path d="M2612,2824 L8370,815" stroke="blue" stroke-width="2" />
<path d="M4390,2959 L300,6208" stroke="blue" stroke-width="2" />
<path d="M4108,4639 L8588,2636" stroke="blue" stroke-width="2" />
<path d="M4444,2806 L5229,5005" stroke="blue" stroke-width="2" />
<path d="M28,4843 L8305,1630" stroke="blue" stroke-width="2" />
<path d="M8111,3705 L2646,8512" stroke="blue" stroke-width="2" />
<path d="M83,7592 L1503,237" stroke="blue" stroke-width="2" />
<path d="M7721,5724 L5048,6769" stroke="blue" stroke-width="2" />
<path d="M5337,5144 L724,8482" stroke="blue" stroke-width="2" />
<path d="M1604,7820 L7904,4399" stroke="blue" stroke-width="2" />
<path d="M7147,3291 L3763,2439" stroke="blue" stroke-width="2" />
<path d="M6923,1863 L8395,8237" stroke="blue" stroke-width="2" />
<path d="M8703,4183 L5051,2785" stroke="blue" stroke-width="2" />
<path d="M4731,1739 L3530,915" stroke="blue" stroke-width="2" />
<path d="M5854,4494 L1198,3161" stroke="blue" stroke-width="2" />
<path d="M4611,5248 L5507,5689" stroke="blue" stroke-width="2" />
<path d="M7906,3911 L6848,5302" stroke="blue" stroke-width="2" />
<path d="M6689,6719 L1222,5834" stroke="blue" stroke-width="2" />
<path d="M3416,819 L4052,605" stroke="blue" stroke-width="2" />
<path d="M4192,8002 L3101,6309" stroke="blue" stroke-width="2" />
<path d="M5021,16 L4970,8698" stroke="blue" stroke-width="2" />
<path d="M227,4745 L1167,6145" stroke="blue" stroke-width="2" />
<path d="M3405,1431 L4165,6515" stroke="blue" stroke-width="2" />
<path d="M569,330 L6566,1820" stroke="blue" stroke-width="2" />
<path d="M5412,4432 L4094,6408" stroke="blue" stroke-width="2" />
<path d="M3840,4237 L5646,3804" stroke="blue" stroke-width="2" />
<path d="M1937,3172 L2887,7929" stroke="blue" stroke-width="2" />
<path d="M6948,6904 L8532,8774" stroke="blue" stroke-width="2" />
<path d="M5794,753 L151,3523" stroke="blue" stroke-width="2" />
<path d="M894,4901 L7210,3209" stroke="blue" stroke-width="2" />
<path d="M4677,5447 L6277,6757" stroke="blue" stroke-width="2" />
<path d="M2746,4792 L3255,1930" stroke="blue" stroke-width="2" />
<path d="M4014,5459 L786,7548" stroke="blue" stroke-width="2" />
<path d="M8559,1833 L3057,3868" stroke="blue" stroke-width="2" />
<path d="M7672,5634 L8811,2266" stroke="blue" stroke-width="2" />
<path d="M2341,7837 L1901,8496" stroke="blue" stroke-width="2" />
<path d="M330,4274 L2043,3933" stroke="blue" stroke-width="2" />
<path d="M974,390 L6417,6256" stroke="blue" stroke-width="2" />
<path d="M1306,3526 L606,5459" stroke="blue" stroke-width="2" />
<path d="M6233,5707 L4753,2229" stroke="blue" stroke-width="2" />
<path d="M6768,5232 L7268,7965" stroke="blue" stroke-width="2" />
<path d="M441,8268 L7865,6825" stroke="blue" stroke-width="2" />
<path d="M12,6809 L5160,5004" stroke="blue" stroke-width="2" />
<path d="M6515,5744 L5614,303" stroke="blue" stroke-width="2" />
<path d="M2481,4062 L7714,1794" stroke="blue" stroke-width="2" />
<path d="M6238,1939 L4516,1665" stroke="blue" stroke-width="2" />
<path d="M7444,6973 L2321,7012" stroke="blue" stroke-width="2" />
<path d="M4396,5077 L5400,3972" stroke="blue" stroke-width="2" />
<path d="M9631,1056 L388,220" stroke="blue" stroke-width="2" />
<path d="M3412,7944 L4419,1751" stroke="blue" stroke-width="2" />
<path d="M7954,2712 L8356,3418" stroke="blue" stroke-width="2" />
<path d="M2805,3149 L4028,576" stroke="blue" stroke-width="2" />
<path d="M7376,8435 L2353,7162" stroke="blue" stroke-width="2" />
<path d="M5004,4520 L7108,912" stroke="blue" stroke-width="2" />
<path d="M3179,3619 L477,4913" stroke="blue" stroke-width="2" />
<path d="M8225,2313 L4770,4787" stroke="blue" stroke-width="2" />
<path d="M1574,6621 L6825,5192" stroke="blue" stroke-width="2" />
<path d="M7318,6314 L9662,2129" stroke="blue" stroke-width="2" />
<path d="M255,4450 L7106,3250" stroke="blue" stroke-width="2" />
<path d="M4095,5133 L4233,2500" stroke="blue" stroke-width="2" />
<path d="M8192,6255 L2884,5192" stroke="blue" stroke-width="2" />
<path d="M1917,1175 L9072,3306" stroke="blue" stroke-width="2" />
<path d="M5960,7595 L3615,3045" stroke="blue" stroke-width="2" />
<path d="M4741,5996 L8913,3161" stroke="blue" stroke-width="2" />
<path d="M8102,3442 L1167,3756" stroke="blue" stroke-width="2" />
<path d="M1381,3883 L533,5491" stroke="blue" stroke-width="2" />
<path d="M9224,2839 L5412,5705" stroke="blue" stroke-width="2" />
<path d="M3076,6573 L4336,6861" stroke="blue" stroke-width="2" />
<path d="M8753,5335 L4857,7148" stroke="blue" stroke-width="2" />
<path d="M6383,5445 L7357,6278" stroke="blue" stroke-width="2" />
<path d="M9579,3895 L8188,7590" stroke="blue" stroke-width="2" />
<path d="M2461,8142 L2519,43" stroke="blue" stroke-width="2" />
<path d="M490,1358 L3712,8276" stroke="blue" stroke-width="2" />
<path d="M3024,1213 L5636,4728" stroke="blue" stroke-width="2" />
<path d="M3142,3776 L3461,4639" stroke="blue" stroke-width="2" />
<path d="M2269,1592 L7797,6032" stroke="blue" stroke-width="2" />
<path d="M5063,4218 L7468,48" stroke="blue" stroke-width="2" />
<path d="M343,7521 L8952,4894" stroke="blue" stroke-width="2" />
<path d="M858,4010 L4747,5729" stroke="blue" stroke-width="2" />
<path d="M5106,919 L4094,657" stroke="blue" stroke-width="2" />
<path d="M1778,2720 L9235,7676" stroke="blue" stroke-width="2" />
<path d="M287,2508 L7005,8100" stroke="blue" stroke-width="2" />
<path d="M1561,404 L7617,4450" stroke="blue" stroke-width="2" />
<path d="M2479,2649 L9266,1101" stroke="blue" stroke-width="2" />
<path d="M4668,4878 L1106,4528" stroke="blue" stroke-width="2" />
<path d="M3042,7453 L3047,3474" stroke="blue" stroke-width="2" />
<path d="M3824,357 L7852,6143" stroke="blue" stroke-width="2" />
<path d="M2293,4382 L3245,6407" stroke="blue" stroke-width="2" />
<path d="M3843,1464 L2361,6026" stroke="blue" stroke-width="2" />
<path d="M4810,7697 L9265,8657" stroke="blue" stroke-width="2" />
<path d="M728,2873 L9326,611" stroke="blue" stroke-width="2" />
<path d="M1957,1990 L9416,7324" stroke="blue" stroke-width="2" />
<path d="M6326,8025 L5877,1832" stroke="blue" stroke-width="2" />
<path d="M7218,2200 L7293,8712" stroke="blue" stroke-width="2" />
<path d="M6817,34 L3501,8360" stroke="blue" stroke-width="2" />
<path d="M7824,3684 L5437,8544" stroke="blue" stroke-width="2" />
<path d="M1914,8607 L402,5268" stroke="blue" stroke-width="2" />
<path d="M7678,3020 L2469,374" stroke="blue" stroke-width="2" />
<path d="M7022,419 L7100,2827" stroke="blue" stroke-width="2" />
<path d="M7008,1486 L4314,5501" stroke="blue" stroke-width="2" />
<path d="M2918,1501 L379,6099" stroke="blue" stroke-width="2" />
<path d="M2367,5307 L8673,1972" stroke="blue" stroke-width="2" />
<path d="M7860,4018 L4231,8607" stroke="blue" stroke-width="2" />
<path d="M2833,2530 L8146,2541" stroke="blue" stroke-width="2" />
<path d="M8455,6783 L8377,4212" stroke="blue" stroke-width="2" />
<path d="M4716,8766 L6178,3282" stroke="blue" stroke-width="2" />
<path d="M6142,3159 L129,5347" stroke="blue" stroke-width="2" />
<path d="M8692,3974 L487,686" stroke="blue" stroke-width="2" />
<path d="M4861,233 L1416,7358" stroke="blue" stroke-width="2" />
<path d="M6022,2945 L2338,4215" stroke="blue" stroke-width="2" />
<path d="M5650,6079 L2946,2133" stroke="blue" stroke-width="2" />
<path d="M5992,7614 L9421,8730" stroke="blue" stroke-width="2" />
<path d="M4681,7356 L492,5940" stroke="blue" stroke-width="2" />
<path d="M2817,7112 L6601,6733" stroke="blue" stroke-width="2" />
<path d="M1333,2665 L2565,5676" stroke="blue" stroke-width="2" />
<path d="M3290,8205 L8609,4217" stroke="blue" stroke-width="2" />
<path d="M8310,6375 L5620,2651" stroke="blue" stroke-width="2" />
<path d="M3876,169 L7886,2839" stroke="blue" stroke-width="2" />
<path d="M948,1905 L1962,8398" stroke="blue" stroke-width="2" />
<path d="M4018,3039 L8750,1641" stroke="blue" stroke-width="2" />
<path d="M4206,3705 L6730,2040" stroke="blue" stroke-width="2" />
<path d="M4717,2086 L2031,4926" stroke="blue" stroke-width="2" />
<path d="M3761,1630 L2674,7299" stroke="blue" stroke-width="2" />
<path d="M6663,8421 L563,8477" stroke="blue" stroke-width="2" />
<path d="M1483,2231 L163,6441" stroke="blue" stroke-width="2" />
<path d="M1477,3498 L9119,8488" stroke="blue" stroke-width="2" />
<path d="M6538,3439 L3550,8737" stroke="blue" stroke-width="2" />
<path d="M2673,8473 L676,6243" stroke="blue" stroke-width="2" />
<path d="M6124,6923 L36,7803" stroke="blue" stroke-width="2" />
<path d="M7623,4622 L6594,2781" stroke="blue" stroke-width="2" />
<path d="M6151,6794 L532,4966" stroke="blue" stroke-width="2" />
<path d="M4813,1472 L8300,4774" stroke="blue" stroke-width="2" />
<path d="M0,0 L9719,0" stroke="red" stroke-width="10" />
<path d="M9719,0 L9719,8792" stroke="red" stroke-width="10" />
<path d="M0,8792 L9719,8792" stroke="red" stroke-width="10" />
<path d="M0,8792 L0,0" stroke="red" stroke-width="10" />
</svg>