<?xml version="1.0" encoding="UTF-8"?>
<svg xmlns="http://www.w3.org/2000/svg" xmlns:xlink="http://www.w3.org/1999/xlink"
     width="544" height="672" viewBox="0 0 544 672">
<defs>
</defs>
<rect x="0" y="0" width="544" height="672" fill="blue" />
<rect x="32" y="32" width="32" height="32" fill="white" />
<rect x="44.0" y="60.0" width="8.0" height="8.0" fill="red" />
<rect x="60.0" y="44.0" width="8.0" height="8.0" fill="red" />
<rect x="44.0" y="28.0" width="8.0" height="8.0" fill="red" />
<rect x="28.0" y="44.0" width="8.0" height="8.0" fill="red" />
<rect x="32" y="224" width="32" height="32" fill="white" />
<rect x="44.0" y="252.0" width="8.0" height="8.0" fill="red" />
<rect x="60.0" y="236.0" width="8.0" height="8.0" fill="red" />
<rect x="44.0" y="220.0" width="8.0" height="8.0" fill="red" />
<rect x="28.0" y="236.0" width="8.0" height="8.0" fill="red" />
<rect x="160" y="32" width="32" height="32" fill="white" />
<rect x="172.0" y="60.0" width="8.0" height="8.0" fill="red" />
<rect x="188.0" y="44.0" width="8.0" height="8.0" fill="red" />
<rect x="172.0" y="28.0" width="8.0" height="8.0" fill="red" />
<rect x="156.0" y="44.0" width="8.0" height="8.0" fill="red" />
<rect x="224" y="32" width="32" height="32" fill="white" />
<rect x="236.0" y="60.0" width="8.0" height="8.0" fill="red" />
<rect x="252.0" y="44.0" width="8.0" height="8.0" fill="red" />
<rect x="236.0" y="28.0" width="8.0" height="8.0" fill="red" />
<rect x="220.0" y="44.0" width="8.0" height="8.0" fill="red" />
<rect x="288" y="32" width="32" height="32" fill="white" />
<rect x="300.0" y="60.0" width="8.0" height="8.0" fill="red" />
<rect x="316.0" y="44.0" width="8.0" height="8.0" fill="red" />
<rect x="300.0" y="28.0" width="8.0" height="8.0" fill="red" />
<rect x="284.0" y="44.0" width="8.0" height="8.0" fill="red" />
<rect x="32" y="352" width="32" height="32" fill="white" />
<rect x="44.0" y="380.0" width="8.0" height="8.0" fill="red" />
<rect x="60.0" y="364.0" width="8.0" height="8.0" fill="red" />
<rect x="44.0" y="348.0" width="8.0" height="8.0" fill="red" />
<rect x="28.0" y="364.0" width="8.0" height="8.0" fill="red" />
<rect x="416" y="32" width="32" height="32" fill="white" />
<rect x="428.0" y="60.0" width="8.0" height="8.0" fill="red" />
<rect x="444.0" y="44.0" width="8.0" height="8.0" fill="red" />
<rect x="428.0" y="28.0" width="8.0" height="8.0" fill="red" />
<rect x="412.0" y="44.0" width="8.0" height="8.0" fill="red" />
<rect x="480" y="32" width="32" height="32" fill="white" />
<rect x="492.0" y="60.0" width="8.0" height="8.0" fill="red" />
<rect x="508.0" y="44.0" width="8.0" height="8.0" fill="red" />
<rect x="492.0" y="28.0" width="8.0" height="8.0" fill="red" />
<rect x="476.0" y="44.0" width="8.0" height="8.0" fill="red" />
<rect x="32" y="96" width="32" height="32" fill="white" />
<rect x="44.0" y="124.0" width="8.0" height="8.0" fill="red" />
<rect x="60.0" y="108.0" width="8.0" height="8.0" fill="red" />
<rect x="44.0" y="92.0" width="8.0" height="8.0" fill="red" />
<rect x="28.0" y="108.0" width="8.0" height="8.0" fill="red" />
<rect x="96" y="96" width="32" height="32" fill="white" />
<rect x="108.0" y="124.0" width="8.0" height="8.0" fill="red" />
<rect x="124.0" y="108.0" width="8.0" height="8.0" fill="red" />
<rect x="108.0" y="92.0" width="8.0" height="8.0" fill="red" />
<rect x="92.0" y="108.0" width="8.0" height="8.0" fill="red" />
<rect x="160" y="96" width="32" height="32" fill="white" />
<rect x="172.0" y="124.0" width="8.0" height="8.0" fill="red" />
<rect x="188.0" y="108.0" width="8.0" height="8.0" fill="red" />
<rect x="172.0" y="92.0" width="8.0" height="8.0" fill="red" />
<rect x="156.0" y="108.0" width="8.0" height="8.0" fill="red" />
<rect x="224" y="96" width="32" height="32" fill="white" />
<rect x="236.0" y="124.0" width="8.0" height="8.0" fill="red" />
<rect x="252.0" y="108.0" width="8.0" height="8.0" fill="red" />
<rect x="236.0" y="92.0" width="8.0" height="8.0" fill="red" />
<rect x="220.0" y="108.0" width="8.0" height="8.0" fill="red" />
<rect x="288" y="96" width="32" height="32" fill="white" />
<rect x="300.0" y="124.0" width="8.0" height="8.0" fill="red" />
<rect x="316.0" y="108.0" width="8.0" height="8.0" fill="red" />
<rect x="300.0" y="92.0" width="8.0" height="8.0" fill="red" />
<rect x="284.0" y="108.0" width="8.0" height="8.0" fill="red" />
<rect x="352" y="96" width="32" height="32" fill="white" />
<rect x="364.0" y="124.0" width="8.0" height="8.0" fill="red" />
<rect x="380.0" y="108.0" width="8.0" height="8.0" fill="red" />
<rect x="364.0" y="92.0" width="8.0" height="8.0" fill="red" />
<rect x="348.0" y="108.0" width="8.0" height="8.0" fill="red" />
<rect x="416" y="96" width="32" height="32" fill="white" />
<rect x="428.0" y="124.0" width="8.0" height="8.0" fill="red" />
<rect x="444.0" y="108.0" width="8.0" height="8.0" fill="red" />
<rect x="428.0" y="92.0" width="8.0" height="8.0" fill="red" />
<rect x="412.0" y="108.0" width="8.0" height="8.0" fill="red" />
<rect x="480" y="96" width="32" height="32" fill="white" />
<rect x="492.0" y="124.0" width="8.0" height="8.0" fill="red" />
<rect x="508.0" y="108.0" width="8.0" height="8.0" fill="red" />
<rect x="492.0" y="92.0" width="8.0" height="8.0" fill="red" />
<rect x="476.0" y="108.0" width="8.0" height="8.0" fill="red" />
<rect x="32" y="160" width="32" height="32" fill="white" />
<rect x="44.0" y="188.0" width="8.0" height="8.0" fill="red" />
<rect x="60.0" y="172.0" width="8.0" height="8.0" fill="red" />
<rect x="44.0" y="156.0" width="8.0" height="8.0" fill="red" />
<rect x="28.0" y="172.0" width="8.0" height="8.0" fill="red" />
<rect x="96" y="160" width="32" height="32" fill="white" />
<rect x="108.0" y="188.0" width="8.0" height="8.0" fill="red" />
<rect x="124.0" y="172.0" width="8.0" height="8.0" fill="red" />
<rect x="108.0" y="156.0" width="8.0" height="8.0" fill="red" />
<rect x="92.0" y="172.0" width="8.0" height="8.0" fill="red" />
<rect x="160" y="160" width="32" height="32" fill="white" />
<rect x="172.0" y="188.0" width="8.0" height="8.0" fill="red" />
<rect x="188.0" y="172.0" width="8.0" height="8.0" fill="red" />
<rect x="172.0" y="156.0" width="8.0" height="8.0" fill="red" />
<rect x="156.0" y="172.0" width="8.0" height="8.0" fill="red" />
<rect x="224" y="288" width="32" height="32" fill="white" />
<rect x="236.0" y="316.0" width="8.0" height="8.0" fill="red" />
<rect x="252.0" y="300.0" width="8.0" height="8.0" fill="red" />
<rect x="236.0" y="284.0" width="8.0" height="8.0" fill="red" />
<rect x="220.0" y="300.0" width="8.0" height="8.0" fill="red" />
<rect x="480" y="288" width="32" height="32" fill="white" />
<rect x="492.0" y="316.0" width="8.0" height="8.0" fill="red" />
<rect x="508.0" y="300.0" width="8.0" height="8.0" fill="red" />
<rect x="492.0" y="284.0" width="8.0" height="8.0" fill="red" />
<rect x="476.0" y="300.0" width="8.0" height="8.0" fill="red" />
<rect x="352" y="160" width="32" height="32" fill="white" />
<rect x="364.0" y="188.0" width="8.0" height="8.0" fill="red" />
<rect x="380.0" y="172.0" width="8.0" height="8.0" fill="red" />
<rect x="364.0" y="156.0" width="8.0" height="8.0" fill="red" />
<rect x="348.0" y="172.0" width="8.0" height="8.0" fill="red" />
<rect x="416" y="160" width="32" height="32" fill="white" />
<rect x="428.0" y="188.0" width="8.0" height="8.0" fill="red" />
<rect x="444.0" y="172.0" width="8.0" height="8.0" fill="red" />
<rect x="428.0" y="156.0" width="8.0" height="8.0" fill="red" />
<rect x="412.0" y="172.0" width="8.0" height="8.0" fill="red" />
<rect x="32" y="608" width="32" height="32" fill="white" />
<rect x="44.0" y="636.0" width="8.0" height="8.0" fill="red" />
<rect x="60.0" y="620.0" width="8.0" height="8.0" fill="red" />
<rect x="44.0" y="604.0" width="8.0" height="8.0" fill="red" />
<rect x="28.0" y="620.0" width="8.0" height="8.0" fill="red" />
<rect x="480" y="544" width="32" height="32" fill="white" />
<rect x="492.0" y="572.0" width="8.0" height="8.0" fill="red" />
<rect x="508.0" y="556.0" width="8.0" height="8.0" fill="red" />
<rect x="492.0" y="540.0" width="8.0" height="8.0" fill="red" />
<rect x="476.0" y="556.0" width="8.0" height="8.0" fill="red" />
<rect x="416" y="480" width="32" height="32" fill="white" />
<rect x="428.0" y="508.0" width="8.0" height="8.0" fill="red" />
<rect x="444.0" y="492.0" width="8.0" height="8.0" fill="red" />
<rect x="428.0" y="476.0" width="8.0" height="8.0" fill="red" />
<rect x="412.0" y="492.0" width="8.0" height="8.0" fill="red" />
<rect x="352" y="544" width="32" height="32" fill="white" />
<rect x="364.0" y="572.0" width="8.0" height="8.0" fill="red" />
<rect x="380.0" y="556.0" width="8.0" height="8.0" fill="red" />
<rect x="364.0" y="540.0" width="8.0" height="8.0" fill="red" />
<rect x="348.0" y="556.0" width="8.0" height="8.0" fill="red" />
<rect x="352" y="416" width="32" height="32" fill="white" />
<rect x="364.0" y="444.0" width="8.0" height="8.0" fill="red" />
<rect x="380.0" y="428.0" width="8.0" height="8.0" fill="red" />
<rect x="364.0" y="412.0" width="8.0" height="8.0" fill="red" />
<rect x="348.0" y="428.0" width="8.0" height="8.0" fill="red" />
<rect x="288" y="224" width="32" height="32" fill="white" />
<rect x="300.0" y="252.0" width="8.0" height="8.0" fill="red" />
<rect x="316.0" y="236.0" width="8.0" height="8.0" fill="red" />
<rect x="300.0" y="220.0" width="8.0" height="8.0" fill="red" />
<rect x="284.0" y="236.0" width="8.0" height="8.0" fill="red" />
<rect x="352" y="224" width="32" height="32" fill="white" />
<rect x="364.0" y="252.0" width="8.0" height="8.0" fill="red" />
<rect x="380.0" y="236.0" width="8.0" height="8.0" fill="red" />
<rect x="364.0" y="220.0" width="8.0" height="8.0" fill="red" />
<rect x="348.0" y="236.0" width="8.0" height="8.0" fill="red" />
<rect x="96" y="352" width="32" height="32" fill="white" />
<rect x="108.0" y="380.0" width="8.0" height="8.0" fill="red" />
<rect x="124.0" y="364.0" width="8.0" height="8.0" fill="red" />
<rect x="108.0" y="348.0" width="8.0" height="8.0" fill="red" />
<rect x="92.0" y="364.0" width="8.0" height="8.0" fill="red" />
<rect x="480" y="224" width="32" height="32" fill="white" />
<rect x="492.0" y="252.0" width="8.0" height="8.0" fill="red" />
<rect x="508.0" y="236.0" width="8.0" height="8.0" fill="red" />
<rect x="492.0" y="220.0" width="8.0" height="8.0" fill="red" />
<rect x="476.0" y="236.0" width="8.0" height="8.0" fill="red" />
<rect x="416" y="288" width="32" height="32" fill="white" />
<rect x="428.0" y="316.0" width="8.0" height="8.0" fill="red" />
<rect x="444.0" y="300.0" width="8.0" height="8.0" fill="red" />
<rect x="428.0" y="284.0" width="8.0" height="8.0" fill="red" />
<rect x="412.0" y="300.0" width="8.0" height="8.0" fill="red" />
<rect x="224" y="160" width="32" height="32" fill="white" />
<rect x="236.0" y="188.0" width="8.0" height="8.0" fill="red" />
<rect x="252.0" y="172.0" width="8.0" height="8.0" fill="red" />
<rect x="236.0" y="156.0" width="8.0" height="8.0" fill="red" />
<rect x="220.0" y="172.0" width="8.0" height="8.0" fill="red" />
<rect x="352" y="32" width="32" height="32" fill="white" />
<rect x="364.0" y="60.0" width="8.0" height="8.0" fill="red" />
<rect x="380.0" y="44.0" width="8.0" height="8.0" fill="red" />
<rect x="364.0" y="28.0" width="8.0" height="8.0" fill="red" />
<rect x="348.0" y="44.0" width="8.0" height="8.0" fill="red" />
<rect x="96" y="288" width="32" height="32" fill="white" />
<rect x="108.0" y="316.0" width="8.0" height="8.0" fill="red" />
<rect x="124.0" y="300.0" width="8.0" height="8.0" fill="red" />
<rect x="108.0" y="284.0" width="8.0" height="8.0" fill="red" />
<rect x="92.0" y="300.0" width="8.0" height="8.0" fill="red" />
<rect x="288" y="288" width="32" height="32" fill="white" />
<rect x="300.0" y="316.0" width="8.0" height="8.0" fill="red" />
<rect x="316.0" y="300.0" width="8.0" height="8.0" fill="red" />
<rect x="300.0" y="284.0" width="8.0" height="8.0" fill="red" />
<rect x="284.0" y="300.0" width="8.0" height="8.0" fill="red" />
<rect x="416" y="224" width="32" height="32" fill="white" />
<rect x="428.0" y="252.0" width="8.0" height="8.0" fill="red" />
<rect x="444.0" y="236.0" width="8.0" height="8.0" fill="red" />
<rect x="428.0" y="220.0" width="8.0" height="8.0" fill="red" />
<rect x="412.0" y="236.0" width="8.0" height="8.0" fill="red" />
<rect x="32" y="288" width="32" height="32" fill="white" />
<rect x="44.0" y="316.0" width="8.0" height="8.0" fill="red" />
<rect x="60.0" y="300.0" width="8.0" height="8.0" fill="red" />
<rect x="44.0" y="284.0" width="8.0" height="8.0" fill="red" />
<rect x="28.0" y="300.0" width="8.0" height="8.0" fill="red" />
<rect x="288" y="160" width="32" height="32" fill="white" />
<rect x="300.0" y="188.0" width="8.0" height="8.0" fill="red" />
<rect x="316.0" y="172.0" width="8.0" height="8.0" fill="red" />
<rect x="300.0" y="156.0" width="8.0" height="8.0" fill="red" />
<rect x="284.0" y="172.0" width="8.0" height="8.0" fill="red" />
<rect x="160" y="288" width="32" height="32" fill="white" />
<rect x="172.0" y="316.0" width="8.0" height="8.0" fill="red" />
<rect x="188.0" y="300.0" width="8.0" height="8.0" fill="red" />
<rect x="172.0" y="284.0" width="8.0" height="8.0" fill="red" />
<rect x="156.0" y="300.0" width="8.0" height="8.0" fill="red" />
<rect x="352" y="288" width="32" height="32" fill="white" />
<rect x="364.0" y="316.0" width="8.0" height="8.0" fill="red" />
<rect x="380.0" y="300.0" width="8.0" height="8.0" fill="red" />
<rect x="364.0" y="284.0" width="8.0" height="8.0" fill="red" />
<rect x="348.0" y="300.0" width="8.0" height="8.0" fill="red" />
<rect x="160" y="352" width="32" height="32" fill="white" />
<rect x="172.0" y="380.0" width="8.0" height="8.0" fill="red" />
<rect x="188.0" y="364.0" width="8.0" height="8.0" fill="red" />
<rect x="172.0" y="348.0" width="8.0" height="8.0" fill="red" />
<rect x="156.0" y="364.0" width="8.0" height="8.0" fill="red" />
<rect x="352" y="352" width="32" height="32" fill="white" />
<rect x="364.0" y="380.0" width="8.0" height="8.0" fill="red" />
<rect x="380.0" y="364.0" width="8.0" height="8.0" fill="red" />
<rect x="364.0" y="348.0" width="8.0" height="8.0" fill="red" />
<rect x="348.0" y="364.0" width="8.0" height="8.0" fill="red" />
<rect x="224" y="480" width="32" height="32" fill="white" />
<rect x="236.0" y="508.0" width="8.0" height="8.0" fill="red" />
<rect x="252.0" y="492.0" width="8.0" height="8.0" fill="red" />
<rect x="236.0" y="476.0" width="8.0" height="8.0" fill="red" />
<rect x="220.0" y="492.0" width="8.0" height="8.0" fill="red" />
<rect x="224" y="352" width="32" height="32" fill="white" />
<rect x="236.0" y="380.0" width="8.0" height="8.0" fill="red" />
<rect x="252.0" y="364.0" width="8.0" height="8.0" fill="red" />
<rect x="236.0" y="348.0" width="8.0" height="8.0" fill="red" />
<rect x="220.0" y="364.0" width="8.0" height="8.0" fill="red" />
<rect x="224" y="224" width="32" height="32" fill="white" />
<rect x="236.0" y="252.0" width="8.0" height="8.0" fill="red" />
<rect x="252.0" y="236.0" width="8.0" height="8.0" fill="red" />
<rect x="236.0" y="220.0" width="8.0" height="8.0" fill="red" />
<rect x="220.0" y="236.0" width="8.0" height="8.0" fill="red" />
<rect x="480" y="352" width="32" height="32" fill="white" />
<rect x="492.0" y="380.0" width="8.0" height="8.0" fill="red" />
<rect x="508.0" y="364.0" width="8.0" height="8.0" fill="red" />
<rect x="492.0" y="348.0" width="8.0" height="8.0" fill="red" />
<rect x="476.0" y="364.0" width="8.0" height="8.0" fill="red" />
<rect x="480" y="416" width="32" height="32" fill="white" />
<rect x="492.0" y="444.0" width="8.0" height="8.0" fill="red" />
<rect x="508.0" y="428.0" width="8.0" height="8.0" fill="red" />
<rect x="492.0" y="412.0" width="8.0" height="8.0" fill="red" />
<rect x="476.0" y="428.0" width="8.0" height="8.0" fill="red" />
<rect x="288" y="608" width="32" height="32" fill="white" />
<rect x="300.0" y="636.0" width="8.0" height="8.0" fill="red" />
<rect x="316.0" y="620.0" width="8.0" height="8.0" fill="red" />
<rect x="300.0" y="604.0" width="8.0" height="8.0" fill="red" />
<rect x="284.0" y="620.0" width="8.0" height="8.0" fill="red" />
<rect x="160" y="416" width="32" height="32" fill="white" />
<rect x="172.0" y="444.0" width="8.0" height="8.0" fill="red" />
<rect x="188.0" y="428.0" width="8.0" height="8.0" fill="red" />
<rect x="172.0" y="412.0" width="8.0" height="8.0" fill="red" />
<rect x="156.0" y="428.0" width="8.0" height="8.0" fill="red" />
<rect x="224" y="416" width="32" height="32" fill="white" />
<rect x="236.0" y="444.0" width="8.0" height="8.0" fill="red" />
<rect x="252.0" y="428.0" width="8.0" height="8.0" fill="red" />
<rect x="236.0" y="412.0" width="8.0" height="8.0" fill="red" />
<rect x="220.0" y="428.0" width="8.0" height="8.0" fill="red" />
<rect x="288" y="416" width="32" height="32" fill="white" />
<rect x="300.0" y="444.0" width="8.0" height="8.0" fill="red" />
<rect x="316.0" y="428.0" width="8.0" height="8.0" fill="red" />
<rect x="300.0" y="412.0" width="8.0" height="8.0" fill="red" />
<rect x="284.0" y="428.0" width="8.0" height="8.0" fill="red" />
<rect x="416" y="352" width="32" height="32" fill="white" />
<rect x="428.0" y="380.0" width="8.0" height="8.0" fill="red" />
<rect x="444.0" y="364.0" width="8.0" height="8.0" fill="red" />
<rect x="428.0" y="348.0" width="8.0" height="8.0" fill="red" />
<rect x="412.0" y="364.0" width="8.0" height="8.0" fill="red" />
<rect x="416" y="416" width="32" height="32" fill="white" />
<rect x="428.0" y="444.0" width="8.0" height="8.0" fill="red" />
<rect x="444.0" y="428.0" width="8.0" height="8.0" fill="red" />
<rect x="428.0" y="412.0" width="8.0" height="8.0" fill="red" />
<rect x="412.0" y="428.0" width="8.0" height="8.0" fill="red" />
<rect x="32" y="416" width="32" height="32" fill="white" />
<rect x="44.0" y="444.0" width="8.0" height="8.0" fill="red" />
<rect x="60.0" y="428.0" width="8.0" height="8.0" fill="red" />
<rect x="44.0" y="412.0" width="8.0" height="8.0" fill="red" />
<rect x="28.0" y="428.0" width="8.0" height="8.0" fill="red" />
<rect x="32" y="480" width="32" height="32" fill="white" />
<rect x="44.0" y="508.0" width="8.0" height="8.0" fill="red" />
<rect x="60.0" y="492.0" width="8.0" height="8.0" fill="red" />
<rect x="44.0" y="476.0" width="8.0" height="8.0" fill="red" />
<rect x="28.0" y="492.0" width="8.0" height="8.0" fill="red" />
<rect x="96" y="480" width="32" height="32" fill="white" />
<rect x="108.0" y="508.0" width="8.0" height="8.0" fill="red" />
<rect x="124.0" y="492.0" width="8.0" height="8.0" fill="red" />
<rect x="108.0" y="476.0" width="8.0" height="8.0" fill="red" />
<rect x="92.0" y="492.0" width="8.0" height="8.0" fill="red" />
<rect x="96" y="544" width="32" height="32" fill="white" />
<rect x="108.0" y="572.0" width="8.0" height="8.0" fill="red" />
<rect x="124.0" y="556.0" width="8.0" height="8.0" fill="red" />
<rect x="108.0" y="540.0" width="8.0" height="8.0" fill="red" />
<rect x="92.0" y="556.0" width="8.0" height="8.0" fill="red" />
<rect x="288" y="544" width="32" height="32" fill="white" />
<rect x="300.0" y="572.0" width="8.0" height="8.0" fill="red" />
<rect x="316.0" y="556.0" width="8.0" height="8.0" fill="red" />
<rect x="300.0" y="540.0" width="8.0" height="8.0" fill="red" />
<rect x="284.0" y="556.0" width="8.0" height="8.0" fill="red" />
<rect x="288" y="480" width="32" height="32" fill="white" />
<rect x="300.0" y="508.0" width="8.0" height="8.0" fill="red" />
<rect x="316.0" y="492.0" width="8.0" height="8.0" fill="red" />
<rect x="300.0" y="476.0" width="8.0" height="8.0" fill="red" />
<rect x="284.0" y="492.0" width="8.0" height="8.0" fill="red" />
<rect x="352" y="480" width="32" height="32" fill="white" />
<rect x="364.0" y="508.0" width="8.0" height="8.0" fill="red" />
<rect x="380.0" y="492.0" width="8.0" height="8.0" fill="red" />
<rect x="364.0" y="476.0" width="8.0" height="8.0" fill="red" />
<rect x="348.0" y="492.0" width="8.0" height="8.0" fill="red" />
<rect x="96" y="224" width="32" height="32" fill="white" />
<rect x="108.0" y="252.0" width="8.0" height="8.0" fill="red" />
<rect x="124.0" y="236.0" width="8.0" height="8.0" fill="red" />
<rect x="108.0" y="220.0" width="8.0" height="8.0" fill="red" />
<rect x="92.0" y="236.0" width="8.0" height="8.0" fill="red" />
<rect x="480" y="480" width="32" height="32" fill="white" />
<rect x="492.0" y="508.0" width="8.0" height="8.0" fill="red" />
<rect x="508.0" y="492.0" width="8.0" height="8.0" fill="red" />
<rect x="492.0" y="476.0" width="8.0" height="8.0" fill="red" />
<rect x="476.0" y="492.0" width="8.0" height="8.0" fill="red" />
<rect x="32" y="544" width="32" height="32" fill="white" />
<rect x="44.0" y="572.0" width="8.0" height="8.0" fill="red" />
<rect x="60.0" y="556.0" width="8.0" height="8.0" fill="red" />
<rect x="44.0" y="540.0" width="8.0" height="8.0" fill="red" />
<rect x="28.0" y="556.0" width="8.0" height="8.0" fill="red" />
<rect x="160" y="480" width="32" height="32" fill="white" />
<rect x="172.0" y="508.0" width="8.0" height="8.0" fill="red" />
<rect x="188.0" y="492.0" width="8.0" height="8.0" fill="red" />
<rect x="172.0" y="476.0" width="8.0" height="8.0" fill="red" />
<rect x="156.0" y="492.0" width="8.0" height="8.0" fill="red" />
<rect x="160" y="544" width="32" height="32" fill="white" />
<rect x="172.0" y="572.0" width="8.0" height="8.0" fill="red" />
<rect x="188.0" y="556.0" width="8.0" height="8.0" fill="red" />
<rect x="172.0" y="540.0" width="8.0" height="8.0" fill="red" />
<rect x="156.0" y="556.0" width="8.0" height="8.0" fill="red" />
<rect x="224" y="544" width="32" height="32" fill="white" />
<rect x="236.0" y="572.0" width="8.0" height="8.0" fill="red" />
<rect x="252.0" y="556.0" width="8.0" height="8.0" fill="red" />
<rect x="236.0" y="540.0" width="8.0" height="8.0" fill="red" />
<rect x="220.0" y="556.0" width="8.0" height="8.0" fill="red" />
<rect x="288" y="352" width="32" height="32" fill="white" />
<rect x="300.0" y="380.0" width="8.0" height="8.0" fill="red" />
<rect x="316.0" y="364.0" width="8.0" height="8.0" fill="red" />
<rect x="300.0" y="348.0" width="8.0" height="8.0" fill="red" />
<rect x="284.0" y="364.0" width="8.0" height="8.0" fill="red" />
<rect x="160" y="224" width="32" height="32" fill="white" />
<rect x="172.0" y="252.0" width="8.0" height="8.0" fill="red" />
<rect x="188.0" y="236.0" width="8.0" height="8.0" fill="red" />
<rect x="172.0" y="220.0" width="8.0" height="8.0" fill="red" />
<rect x="156.0" y="236.0" width="8.0" height="8.0" fill="red" />
<rect x="416" y="544" width="32" height="32" fill="white" />
<rect x="428.0" y="572.0" width="8.0" height="8.0" fill="red" />
<rect x="444.0" y="556.0" width="8.0" height="8.0" fill="red" />
<rect x="428.0" y="540.0" width="8.0" height="8.0" fill="red" />
<rect x="412.0" y="556.0" width="8.0" height="8.0" fill="red" />
<rect x="96" y="32" width="32" height="32" fill="white" />
<rect x="108.0" y="60.0" width="8.0" height="8.0" fill="red" />
<rect x="124.0" y="44.0" width="8.0" height="8.0" fill="red" />
<rect x="108.0" y="28.0" width="8.0" height="8.0" fill="red" />
<rect x="92.0" y="44.0" width="8.0" height="8.0" fill="red" />
<rect x="480" y="160" width="32" height="32" fill="white" />
<rect x="492.0" y="188.0" width="8.0" height="8.0" fill="red" />
<rect x="508.0" y="172.0" width="8.0" height="8.0" fill="red" />
<rect x="492.0" y="156.0" width="8.0" height="8.0" fill="red" />
<rect x="476.0" y="172.0" width="8.0" height="8.0" fill="red" />
<rect x="96" y="608" width="32" height="32" fill="white" />
<rect x="108.0" y="636.0" width="8.0" height="8.0" fill="red" />
<rect x="124.0" y="620.0" width="8.0" height="8.0" fill="red" />
<rect x="108.0" y="604.0" width="8.0" height="8.0" fill="red" />
<rect x="92.0" y="620.0" width="8.0" height="8.0" fill="red" />
<rect x="160" y="608" width="32" height="32" fill="white" />
<rect x="172.0" y="636.0" width="8.0" height="8.0" fill="red" />
<rect x="188.0" y="620.0" width="8.0" height="8.0" fill="red" />
<rect x="172.0" y="604.0" width="8.0" height="8.0" fill="red" />
<rect x="156.0" y="620.0" width="8.0" height="8.0" fill="red" />
<rect x="224" y="608" width="32" height="32" fill="white" />
<rect x="236.0" y="636.0" width="8.0" height="8.0" fill="red" />
<rect x="252.0" y="620.0" width="8.0" height="8.0" fill="red" />
<rect x="236.0" y="604.0" width="8.0" height="8.0" fill="red" />
<rect x="220.0" y="620.0" width="8.0" height="8.0" fill="red" />
<rect x="96" y="416" width="32" height="32" fill="white" />
<rect x="108.0" y="444.0" width="8.0" height="8.0" fill="red" />
<rect x="124.0" y="428.0" width="8.0" height="8.0" fill="red" />
<rect x="108.0" y="412.0" width="8.0" height="8.0" fill="red" />
<rect x="92.0" y="428.0" width="8.0" height="8.0" fill="red" />
<rect x="352" y="608" width="32" height="32" fill="white" />
<rect x="364.0" y="636.0" width="8.0" height="8.0" fill="red" />
<rect x="380.0" y="620.0" width="8.0" height="8.0" fill="red" />
<rect x="364.0" y="604.0" width="8.0" height="8.0" fill="red" />
<rect x="348.0" y="620.0" width="8.0" height="8.0" fill="red" />
<rect x="416" y="608" width="32" height="32" fill="white" />
<rect x="428.0" y="636.0" width="8.0" height="8.0" fill="red" />
<rect x="444.0" y="620.0" width="8.0" height="8.0" fill="red" />
<rect x="428.0" y="604.0" width="8.0" height="8.0" fill="red" />
<rect x="412.0" y="620.0" width="8.0" height="8.0" fill="red" />
<rect x="480" y="608" width="32" height="32" fill="white" />
<rect x="492.0" y="636.0" width="8.0" height="8.0" fill="red" />
<rect x="508.0" y="620.0" width="8.0" height="8.0" fill="red" />
<rect x="492.0" y="604.0" width="8.0" height="8.0" fill="red" />
<rect x="476.0" y="620.0" width="8.0" height="8.0" fill="red" />
<path d="M64.0,48.0 L32.0,240.0" stroke="black" stroke-width="1" />
<path d="M48.0,64.0 L48.0,96.0" stroke="black" stroke-width="1" />
<path d="M64.0,240.0 L160.0,48.0" stroke="black" stroke-width="1" />
<path d="M48.0,256.0 L112.0,96.0" stroke="black" stroke-width="1" />
<path d="M192.0,48.0 L224.0,48.0" stroke="black" stroke-width="1" />
<path d="M176.0,64.0 L176.0,96.0" stroke="black" stroke-width="1" />
<path d="M256.0,48.0 L288.0,48.0" stroke="black" stroke-width="1" />
<path d="M240.0,64.0 L240.0,96.0" stroke="black" stroke-width="1" />
<path d="M320.0,48.0 L32.0,368.0" stroke="black" stroke-width="1" />
<path d="M304.0,64.0 L304.0,96.0" stroke="black" stroke-width="1" />
<path d="M64.0,368.0 L416.0,48.0" stroke="black" stroke-width="1" />
<path d="M48.0,384.0 L368.0,96.0" stroke="black" stroke-width="1" />
<path d="M448.0,48.0 L480.0,48.0" stroke="black" stroke-width="1" />
<path d="M432.0,64.0 L432.0,96.0" stroke="black" stroke-width="1" />
<path d="M496.0,64.0 L496.0,96.0" stroke="black" stroke-width="1" />
<path d="M64.0,112.0 L96.0,112.0" stroke="black" stroke-width="1" />
<path d="M48.0,128.0 L48.0,160.0" stroke="black" stroke-width="1" />
<path d="M128.0,112.0 L160.0,112.0" stroke="black" stroke-width="1" />
<path d="M112.0,128.0 L112.0,160.0" stroke="black" stroke-width="1" />
<path d="M192.0,112.0 L224.0,112.0" stroke="black" stroke-width="1" />
<path d="M176.0,128.0 L176.0,160.0" stroke="black" stroke-width="1" />
<path d="M256.0,112.0 L288.0,112.0" stroke="black" stroke-width="1" />
<path d="M240.0,128.0 L240.0,288.0" stroke="black" stroke-width="1" />
<path d="M320.0,112.0 L352.0,112.0" stroke="black" stroke-width="1" />
<path d="M304.0,128.0 L496.0,288.0" stroke="black" stroke-width="1" />
<path d="M384.0,112.0 L416.0,112.0" stroke="black" stroke-width="1" />
<path d="M368.0,128.0 L368.0,160.0" stroke="black" stroke-width="1" />
<path d="M448.0,112.0 L480.0,112.0" stroke="black" stroke-width="1" />
<path d="M432.0,128.0 L432.0,160.0" stroke="black" stroke-width="1" />
<path d="M496.0,128.0 L48.0,608.0" stroke="black" stroke-width="1" />
<path d="M64.0,176.0 L96.0,176.0" stroke="black" stroke-width="1" />
<path d="M48.0,192.0 L496.0,544.0" stroke="black" stroke-width="1" />
<path d="M128.0,176.0 L160.0,176.0" stroke="black" stroke-width="1" />
<path d="M112.0,192.0 L432.0,480.0" stroke="black" stroke-width="1" />
<path d="M192.0,176.0 L224.0,304.0" stroke="black" stroke-width="1" />
<path d="M176.0,192.0 L368.0,544.0" stroke="black" stroke-width="1" />
<path d="M256.0,304.0 L480.0,304.0" stroke="black" stroke-width="1" />
<path d="M240.0,320.0 L368.0,416.0" stroke="black" stroke-width="1" />
<path d="M512.0,304.0 L352.0,176.0" stroke="black" stroke-width="1" />
<path d="M496.0,320.0 L304.0,224.0" stroke="black" stroke-width="1" />
<path d="M384.0,176.0 L416.0,176.0" stroke="black" stroke-width="1" />
<path d="M368.0,192.0 L368.0,224.0" stroke="black" stroke-width="1" />
<path d="M448.0,176.0 L32.0,624.0" stroke="black" stroke-width="1" />
<path d="M432.0,192.0 L112.0,352.0" stroke="black" stroke-width="1" />
<path d="M48.0,640.0 L496.0,224.0" stroke="black" stroke-width="1" />
<path d="M512.0,560.0 L416.0,496.0" stroke="black" stroke-width="1" />
<path d="M496.0,576.0 L432.0,288.0" stroke="black" stroke-width="1" />
<path d="M448.0,496.0 L352.0,560.0" stroke="black" stroke-width="1" />
<path d="M432.0,512.0 L240.0,160.0" stroke="black" stroke-width="1" />
<path d="M384.0,560.0 L352.0,432.0" stroke="black" stroke-width="1" />
<path d="M368.0,576.0 L368.0,32.0" stroke="black" stroke-width="1" />
<path d="M384.0,432.0 L288.0,240.0" stroke="black" stroke-width="1" />
<path d="M368.0,448.0 L112.0,288.0" stroke="black" stroke-width="1" />
<path d="M320.0,240.0 L352.0,240.0" stroke="black" stroke-width="1" />
<path d="M304.0,256.0 L304.0,288.0" stroke="black" stroke-width="1" />
<path d="M384.0,240.0 L96.0,368.0" stroke="black" stroke-width="1" />
<path d="M368.0,256.0 L432.0,224.0" stroke="black" stroke-width="1" />
<path d="M128.0,368.0 L480.0,240.0" stroke="black" stroke-width="1" />
<path d="M112.0,384.0 L48.0,288.0" stroke="black" stroke-width="1" />
<path d="M496.0,256.0 L304.0,160.0" stroke="black" stroke-width="1" />
<path d="M448.0,304.0 L224.0,176.0" stroke="black" stroke-width="1" />
<path d="M432.0,320.0 L176.0,288.0" stroke="black" stroke-width="1" />
<path d="M256.0,176.0 L352.0,48.0" stroke="black" stroke-width="1" />
<path d="M240.0,192.0 L368.0,288.0" stroke="black" stroke-width="1" />
<path d="M384.0,48.0 L96.0,304.0" stroke="black" stroke-width="1" />
<path d="M368.0,64.0 L176.0,352.0" stroke="black" stroke-width="1" />
<path d="M128.0,304.0 L288.0,304.0" stroke="black" stroke-width="1" />
<path d="M112.0,320.0 L368.0,352.0" stroke="black" stroke-width="1" />
<path d="M320.0,304.0 L416.0,240.0" stroke="black" stroke-width="1" />
<path d="M304.0,320.0 L240.0,480.0" stroke="black" stroke-width="1" />
<path d="M448.0,240.0 L32.0,304.0" stroke="black" stroke-width="1" />
<path d="M432.0,256.0 L240.0,352.0" stroke="black" stroke-width="1" />
<path d="M64.0,304.0 L288.0,176.0" stroke="black" stroke-width="1" />
<path d="M48.0,320.0 L240.0,224.0" stroke="black" stroke-width="1" />
<path d="M304.0,192.0 L496.0,352.0" stroke="black" stroke-width="1" />
<path d="M192.0,304.0 L352.0,304.0" stroke="black" stroke-width="1" />
<path d="M176.0,320.0 L496.0,416.0" stroke="black" stroke-width="1" />
<path d="M384.0,304.0 L160.0,368.0" stroke="black" stroke-width="1" />
<path d="M368.0,320.0 L304.0,608.0" stroke="black" stroke-width="1" />
<path d="M192.0,368.0 L352.0,368.0" stroke="black" stroke-width="1" />
<path d="M176.0,384.0 L176.0,416.0" stroke="black" stroke-width="1" />
<path d="M384.0,368.0 L224.0,496.0" stroke="black" stroke-width="1" />
<path d="M368.0,384.0 L240.0,416.0" stroke="black" stroke-width="1" />
<path d="M256.0,496.0 L224.0,368.0" stroke="black" stroke-width="1" />
<path d="M240.0,512.0 L304.0,416.0" stroke="black" stroke-width="1" />
<path d="M256.0,368.0 L224.0,240.0" stroke="black" stroke-width="1" />
<path d="M240.0,384.0 L432.0,352.0" stroke="black" stroke-width="1" />
<path d="M256.0,240.0 L480.0,368.0" stroke="black" stroke-width="1" />
<path d="M240.0,256.0 L432.0,416.0" stroke="black" stroke-width="1" />
<path d="M496.0,384.0 L48.0,416.0" stroke="black" stroke-width="1" />
<path d="M512.0,432.0 L288.0,624.0" stroke="black" stroke-width="1" />
<path d="M496.0,448.0 L48.0,480.0" stroke="black" stroke-width="1" />
<path d="M320.0,624.0 L160.0,432.0" stroke="black" stroke-width="1" />
<path d="M304.0,640.0 L112.0,480.0" stroke="black" stroke-width="1" />
<path d="M192.0,432.0 L224.0,432.0" stroke="black" stroke-width="1" />
<path d="M176.0,448.0 L112.0,544.0" stroke="black" stroke-width="1" />
<path d="M256.0,432.0 L288.0,432.0" stroke="black" stroke-width="1" />
<path d="M240.0,448.0 L304.0,544.0" stroke="black" stroke-width="1" />
<path d="M320.0,432.0 L416.0,368.0" stroke="black" stroke-width="1" />
<path d="M304.0,448.0 L304.0,480.0" stroke="black" stroke-width="1" />
<path d="M448.0,368.0 L416.0,432.0" stroke="black" stroke-width="1" />
<path d="M432.0,384.0 L368.0,480.0" stroke="black" stroke-width="1" />
<path d="M448.0,432.0 L32.0,432.0" stroke="black" stroke-width="1" />
<path d="M432.0,448.0 L112.0,224.0" stroke="black" stroke-width="1" />
<path d="M48.0,448.0 L496.0,480.0" stroke="black" stroke-width="1" />
<path d="M64.0,496.0 L96.0,496.0" stroke="black" stroke-width="1" />
<path d="M48.0,512.0 L48.0,544.0" stroke="black" stroke-width="1" />
<path d="M128.0,496.0 L96.0,560.0" stroke="black" stroke-width="1" />
<path d="M112.0,512.0 L176.0,480.0" stroke="black" stroke-width="1" />
<path d="M128.0,560.0 L288.0,560.0" stroke="black" stroke-width="1" />
<path d="M112.0,576.0 L176.0,544.0" stroke="black" stroke-width="1" />
<path d="M320.0,560.0 L288.0,496.0" stroke="black" stroke-width="1" />
<path d="M304.0,576.0 L240.0,544.0" stroke="black" stroke-width="1" />
<path d="M320.0,496.0 L352.0,496.0" stroke="black" stroke-width="1" />
<path d="M304.0,512.0 L304.0,352.0" stroke="black" stroke-width="1" />
<path d="M384.0,496.0 L96.0,240.0" stroke="black" stroke-width="1" />
<path d="M368.0,512.0 L176.0,224.0" stroke="black" stroke-width="1" />
<path d="M128.0,240.0 L480.0,496.0" stroke="black" stroke-width="1" />
<path d="M112.0,256.0 L432.0,544.0" stroke="black" stroke-width="1" />
<path d="M496.0,512.0 L112.0,32.0" stroke="black" stroke-width="1" />
<path d="M64.0,560.0 L160.0,496.0" stroke="black" stroke-width="1" />
<path d="M48.0,576.0 L496.0,160.0" stroke="black" stroke-width="1" />
<path d="M192.0,496.0 L160.0,560.0" stroke="black" stroke-width="1" />
<path d="M176.0,512.0 L112.0,608.0" stroke="black" stroke-width="1" />
<path d="M192.0,560.0 L224.0,560.0" stroke="black" stroke-width="1" />
<path d="M176.0,576.0 L176.0,608.0" stroke="black" stroke-width="1" />
<path d="M256.0,560.0 L288.0,368.0" stroke="black" stroke-width="1" />
<path d="M240.0,576.0 L240.0,608.0" stroke="black" stroke-width="1" />
<path d="M320.0,368.0 L160.0,240.0" stroke="black" stroke-width="1" />
<path d="M304.0,384.0 L112.0,416.0" stroke="black" stroke-width="1" />
<path d="M192.0,240.0 L416.0,560.0" stroke="black" stroke-width="1" />
<path d="M176.0,256.0 L368.0,608.0" stroke="black" stroke-width="1" />
<path d="M448.0,560.0 L96.0,48.0" stroke="black" stroke-width="1" />
<path d="M432.0,576.0 L432.0,608.0" stroke="black" stroke-width="1" />
<path d="M112.0,64.0 L496.0,608.0" stroke="black" stroke-width="1" />
<path d="M512.0,176.0 L96.0,624.0" stroke="black" stroke-width="1" />
<path d="M128.0,624.0 L160.0,624.0" stroke="black" stroke-width="1" />
<path d="M192.0,624.0 L224.0,624.0" stroke="black" stroke-width="1" />
<path d="M256.0,624.0 L96.0,432.0" stroke="black" stroke-width="1" />
<path d="M128.0,432.0 L352.0,624.0" stroke="black" stroke-width="1" />
<path d="M384.0,624.0 L416.0,624.0" stroke="black" stroke-width="1" />
<path d="M448.0,624.0 L480.0,624.0" stroke="black" stroke-width="1" />
</svg>