<?xml version="1.0" encoding="UTF-8"?>
<svg xmlns="http://www.w3.org/2000/svg" xmlns:xlink="http://www.w3.org/1999/xlink"
     width="224" height="608" viewBox="0 0 224 608">
<defs>
</defs>
<rect x="0" y="0" width="224" height="608" fill="blue" />
<rect x="32" y="32" width="32" height="32" fill="white" />
<rect x="44.0" y="60.0" width="8.0" height="8.0" fill="red" />
<rect x="60.0" y="44.0" width="8.0" height="8.0" fill="red" />
<rect x="44.0" y="28.0" width="8.0" height="8.0" fill="red" />
<rect x="28.0" y="44.0" width="8.0" height="8.0" fill="red" />
<rect x="96" y="32" width="32" height="32" fill="white" />
<rect x="108.0" y="60.0" width="8.0" height="8.0" fill="red" />
<rect x="124.0" y="44.0" width="8.0" height="8.0" fill="red" />
<rect x="108.0" y="28.0" width="8.0" height="8.0" fill="red" />
<rect x="92.0" y="44.0" width="8.0" height="8.0" fill="red" />
<rect x="160" y="352" width="32" height="32" fill="white" />
<rect x="172.0" y="380.0" width="8.0" height="8.0" fill="red" />
<rect x="188.0" y="364.0" width="8.0" height="8.0" fill="red" />
<rect x="172.0" y="348.0" width="8.0" height="8.0" fill="red" />
<rect x="156.0" y="364.0" width="8.0" height="8.0" fill="red" />
<rect x="32" y="96" width="32" height="32" fill="white" />
<rect x="44.0" y="124.0" width="8.0" height="8.0" fill="red" />
<rect x="60.0" y="108.0" width="8.0" height="8.0" fill="red" />
<rect x="44.0" y="92.0" width="8.0" height="8.0" fill="red" />
<rect x="28.0" y="108.0" width="8.0" height="8.0" fill="red" />
<rect x="96" y="96" width="32" height="32" fill="white" />
<rect x="108.0" y="124.0" width="8.0" height="8.0" fill="red" />
<rect x="124.0" y="108.0" width="8.0" height="8.0" fill="red" />
<rect x="108.0" y="92.0" width="8.0" height="8.0" fill="red" />
<rect x="92.0" y="108.0" width="8.0" height="8.0" fill="red" />
<rect x="160" y="96" width="32" height="32" fill="white" />
<rect x="172.0" y="124.0" width="8.0" height="8.0" fill="red" />
<rect x="188.0" y="108.0" width="8.0" height="8.0" fill="red" />
<rect x="172.0" y="92.0" width="8.0" height="8.0" fill="red" />
<rect x="156.0" y="108.0" width="8.0" height="8.0" fill="red" />
<rect x="32" y="160" width="32" height="32" fill="white" />
<rect x="44.0" y="188.0" width="8.0" height="8.0" fill="red" />
<rect x="60.0" y="172.0" width="8.0" height="8.0" fill="red" />
<rect x="44.0" y="156.0" width="8.0" height="8.0" fill="red" />
<rect x="28.0" y="172.0" width="8.0" height="8.0" fill="red" />
<rect x="96" y="160" width="32" height="32" fill="white" />
<rect x="108.0" y="188.0" width="8.0" height="8.0" fill="red" />
<rect x="124.0" y="172.0" width="8.0" height="8.0" fill="red" />
<rect x="108.0" y="156.0" width="8.0" height="8.0" fill="red" />
<rect x="92.0" y="172.0" width="8.0" height="8.0" fill="red" />
<rect x="160" y="544" width="32" height="32" fill="white" />
<rect x="172.0" y="572.0" width="8.0" height="8.0" fill="red" />
<rect x="188.0" y="556.0" width="8.0" height="8.0" fill="red" />
<rect x="172.0" y="540.0" width="8.0" height="8.0" fill="red" />
<rect x="156.0" y="556.0" width="8.0" height="8.0" fill="red" />
<rect x="96" y="416" width="32" height="32" fill="white" />
<rect x="108.0" y="444.0" width="8.0" height="8.0" fill="red" />
<rect x="124.0" y="428.0" width="8.0" height="8.0" fill="red" />
<rect x="108.0" y="412.0" width="8.0" height="8.0" fill="red" />
<rect x="92.0" y="428.0" width="8.0" height="8.0" fill="red" />
<rect x="96" y="224" width="32" height="32" fill="white" />
<rect x="108.0" y="252.0" width="8.0" height="8.0" fill="red" />
<rect x="124.0" y="236.0" width="8.0" height="8.0" fill="red" />
<rect x="108.0" y="220.0" width="8.0" height="8.0" fill="red" />
<rect x="92.0" y="236.0" width="8.0" height="8.0" fill="red" />
<rect x="160" y="416" width="32" height="32" fill="white" />
<rect x="172.0" y="444.0" width="8.0" height="8.0" fill="red" />
<rect x="188.0" y="428.0" width="8.0" height="8.0" fill="red" />
<rect x="172.0" y="412.0" width="8.0" height="8.0" fill="red" />
<rect x="156.0" y="428.0" width="8.0" height="8.0" fill="red" />
<rect x="32" y="288" width="32" height="32" fill="white" />
<rect x="44.0" y="316.0" width="8.0" height="8.0" fill="red" />
<rect x="60.0" y="300.0" width="8.0" height="8.0" fill="red" />
<rect x="44.0" y="284.0" width="8.0" height="8.0" fill="red" />
<rect x="28.0" y="300.0" width="8.0" height="8.0" fill="red" />
<rect x="96" y="480" width="32" height="32" fill="white" />
<rect x="108.0" y="508.0" width="8.0" height="8.0" fill="red" />
<rect x="124.0" y="492.0" width="8.0" height="8.0" fill="red" />
<rect x="108.0" y="476.0" width="8.0" height="8.0" fill="red" />
<rect x="92.0" y="492.0" width="8.0" height="8.0" fill="red" />
<rect x="160" y="160" width="32" height="32" fill="white" />
<rect x="172.0" y="188.0" width="8.0" height="8.0" fill="red" />
<rect x="188.0" y="172.0" width="8.0" height="8.0" fill="red" />
<rect x="172.0" y="156.0" width="8.0" height="8.0" fill="red" />
<rect x="156.0" y="172.0" width="8.0" height="8.0" fill="red" />
<rect x="32" y="352" width="32" height="32" fill="white" />
<rect x="44.0" y="380.0" width="8.0" height="8.0" fill="red" />
<rect x="60.0" y="364.0" width="8.0" height="8.0" fill="red" />
<rect x="44.0" y="348.0" width="8.0" height="8.0" fill="red" />
<rect x="28.0" y="364.0" width="8.0" height="8.0" fill="red" />
<rect x="96" y="352" width="32" height="32" fill="white" />
<rect x="108.0" y="380.0" width="8.0" height="8.0" fill="red" />
<rect x="124.0" y="364.0" width="8.0" height="8.0" fill="red" />
<rect x="108.0" y="348.0" width="8.0" height="8.0" fill="red" />
<rect x="92.0" y="364.0" width="8.0" height="8.0" fill="red" />
<rect x="160" y="32" width="32" height="32" fill="white" />
<rect x="172.0" y="60.0" width="8.0" height="8.0" fill="red" />
<rect x="188.0" y="44.0" width="8.0" height="8.0" fill="red" />
<rect x="172.0" y="28.0" width="8.0" height="8.0" fill="red" />
<rect x="156.0" y="44.0" width="8.0" height="8.0" fill="red" />
<rect x="32" y="416" width="32" height="32" fill="white" />
<rect x="44.0" y="444.0" width="8.0" height="8.0" fill="red" />
<rect x="60.0" y="428.0" width="8.0" height="8.0" fill="red" />
<rect x="44.0" y="412.0" width="8.0" height="8.0" fill="red" />
<rect x="28.0" y="428.0" width="8.0" height="8.0" fill="red" />
<rect x="32" y="224" width="32" height="32" fill="white" />
<rect x="44.0" y="252.0" width="8.0" height="8.0" fill="red" />
<rect x="60.0" y="236.0" width="8.0" height="8.0" fill="red" />
<rect x="44.0" y="220.0" width="8.0" height="8.0" fill="red" />
<rect x="28.0" y="236.0" width="8.0" height="8.0" fill="red" />
<rect x="160" y="224" width="32" height="32" fill="white" />
<rect x="172.0" y="252.0" width="8.0" height="8.0" fill="red" />
<rect x="188.0" y="236.0" width="8.0" height="8.0" fill="red" />
<rect x="172.0" y="220.0" width="8.0" height="8.0" fill="red" />
<rect x="156.0" y="236.0" width="8.0" height="8.0" fill="red" />
<rect x="32" y="480" width="32" height="32" fill="white" />
<rect x="44.0" y="508.0" width="8.0" height="8.0" fill="red" />
<rect x="60.0" y="492.0" width="8.0" height="8.0" fill="red" />
<rect x="44.0" y="476.0" width="8.0" height="8.0" fill="red" />
<rect x="28.0" y="492.0" width="8.0" height="8.0" fill="red" />
<rect x="96" y="288" width="32" height="32" fill="white" />
<rect x="108.0" y="316.0" width="8.0" height="8.0" fill="red" />
<rect x="124.0" y="300.0" width="8.0" height="8.0" fill="red" />
<rect x="108.0" y="284.0" width="8.0" height="8.0" fill="red" />
<rect x="92.0" y="300.0" width="8.0" height="8.0" fill="red" />
<rect x="160" y="480" width="32" height="32" fill="white" />
<rect x="172.0" y="508.0" width="8.0" height="8.0" fill="red" />
<rect x="188.0" y="492.0" width="8.0" height="8.0" fill="red" />
<rect x="172.0" y="476.0" width="8.0" height="8.0" fill="red" />
<rect x="156.0" y="492.0" width="8.0" height="8.0" fill="red" />
<rect x="32" y="544" width="32" height="32" fill="white" />
<rect x="44.0" y="572.0" width="8.0" height="8.0" fill="red" />
<rect x="60.0" y="556.0" width="8.0" height="8.0" fill="red" />
<rect x="44.0" y="540.0" width="8.0" height="8.0" fill="red" />
<rect x="28.0" y="556.0" width="8.0" height="8.0" fill="red" />
<rect x="96" y="544" width="32" height="32" fill="white" />
<rect x="108.0" y="572.0" width="8.0" height="8.0" fill="red" />
<rect x="124.0" y="556.0" width="8.0" height="8.0" fill="red" />
<rect x="108.0" y="540.0" width="8.0" height="8.0" fill="red" />
<rect x="92.0" y="556.0" width="8.0" height="8.0" fill="red" />
<rect x="160" y="288" width="32" height="32" fill="white" />
<rect x="172.0" y="316.0" width="8.0" height="8.0" fill="red" />
<rect x="188.0" y="300.0" width="8.0" height="8.0" fill="red" />
<rect x="172.0" y="284.0" width="8.0" height="8.0" fill="red" />
<rect x="156.0" y="300.0" width="8.0" height="8.0" fill="red" />
<path d="M64.0,48.0 L96.0,48.0" stroke="black" stroke-width="1" />
<path d="M48.0,64.0 L48.0,96.0" stroke="black" stroke-width="1" />
<path d="M128.0,48.0 L160.0,368.0" stroke="black" stroke-width="1" />
<path d="M112.0,64.0 L112.0,96.0" stroke="black" stroke-width="1" />
<path d="M176.0,384.0 L176.0,96.0" stroke="black" stroke-width="1" />
<path d="M64.0,112.0 L96.0,112.0" stroke="black" stroke-width="1" />
<path d="M48.0,128.0 L48.0,160.0" stroke="black" stroke-width="1" />
<path d="M128.0,112.0 L160.0,112.0" stroke="black" stroke-width="1" />
<path d="M112.0,128.0 L112.0,160.0" stroke="black" stroke-width="1" />
<path d="M176.0,128.0 L176.0,544.0" stroke="black" stroke-width="1" />
<path d="M64.0,176.0 L96.0,176.0" stroke="black" stroke-width="1" />
<path d="M48.0,192.0 L112.0,416.0" stroke="black" stroke-width="1" />
<path d="M128.0,176.0 L160.0,560.0" stroke="black" stroke-width="1" />
<path d="M112.0,192.0 L112.0,224.0" stroke="black" stroke-width="1" />
<path d="M176.0,576.0 L176.0,416.0" stroke="black" stroke-width="1" />
<path d="M128.0,432.0 L96.0,240.0" stroke="black" stroke-width="1" />
<path d="M112.0,448.0 L48.0,288.0" stroke="black" stroke-width="1" />
<path d="M128.0,240.0 L160.0,432.0" stroke="black" stroke-width="1" />
<path d="M112.0,256.0 L112.0,480.0" stroke="black" stroke-width="1" />
<path d="M176.0,448.0 L176.0,160.0" stroke="black" stroke-width="1" />
<path d="M64.0,304.0 L96.0,496.0" stroke="black" stroke-width="1" />
<path d="M48.0,320.0 L48.0,352.0" stroke="black" stroke-width="1" />
<path d="M128.0,496.0 L160.0,176.0" stroke="black" stroke-width="1" />
<path d="M112.0,512.0 L112.0,352.0" stroke="black" stroke-width="1" />
<path d="M176.0,192.0 L176.0,32.0" stroke="black" stroke-width="1" />
<path d="M64.0,368.0 L96.0,368.0" stroke="black" stroke-width="1" />
<path d="M48.0,384.0 L48.0,416.0" stroke="black" stroke-width="1" />
<path d="M128.0,368.0 L160.0,48.0" stroke="black" stroke-width="1" />
<path d="M112.0,384.0 L48.0,224.0" stroke="black" stroke-width="1" />
<path d="M176.0,64.0 L176.0,224.0" stroke="black" stroke-width="1" />
<path d="M64.0,432.0 L32.0,240.0" stroke="black" stroke-width="1" />
<path d="M48.0,448.0 L48.0,480.0" stroke="black" stroke-width="1" />
<path d="M64.0,240.0 L160.0,240.0" stroke="black" stroke-width="1" />
<path d="M48.0,256.0 L112.0,288.0" stroke="black" stroke-width="1" />
<path d="M176.0,256.0 L176.0,480.0" stroke="black" stroke-width="1" />
<path d="M64.0,496.0 L96.0,304.0" stroke="black" stroke-width="1" />
<path d="M48.0,512.0 L48.0,544.0" stroke="black" stroke-width="1" />
<path d="M128.0,304.0 L160.0,496.0" stroke="black" stroke-width="1" />
<path d="M112.0,320.0 L112.0,544.0" stroke="black" stroke-width="1" />
<path d="M176.0,512.0 L176.0,288.0" stroke="black" stroke-width="1" />
<path d="M64.0,560.0 L96.0,560.0" stroke="black" stroke-width="1" />
<path d="M128.0,560.0 L160.0,304.0" stroke="black" stroke-width="1" />
</svg>